<?xml version="1.0" encoding="UTF-8"?>
<svg xmlns="http://www.w3.org/2000/svg" xmlns:xlink="http://www.w3.org/1999/xlink"
     width="250" height="250" viewBox="-125.0 -125.0 250 250">
<defs>
</defs>
<path d="M0.0,-0.0 L1.5288656035854662,-0.3362788913069613 L2.4183574304260267,-1.139472956075129" fill="orange" fill-opacity="0.6" stroke="black" />
<path d="M0.0,-0.0 L1.5288656035854662,0.3362788913069613 L2.4183574304260267,1.139472956075129" fill="brown" fill-opacity="0.6" stroke="black" />
<path d="M1.5288656035854662,-0.3362788913069613 L2.4183574304260267,-1.139472956075129 L8.642024287277877,-4.127946339428467" fill="black" fill-opacity="0.6" stroke="black" />
<path d="M1.5288656035854662,0.3362788913069613 L2.4183574304260267,1.139472956075129 L8.642024287277877,4.127946339428467" fill="red" fill-opacity="0.6" stroke="black" />
<path d="M2.4183574304260267,-1.139472956075129 L8.642024287277877,-4.127946339428467 L10.02557780251045,-4.568419380823209" fill="blue" fill-opacity="0.6" stroke="black" />
<path d="M2.4183574304260267,1.139472956075129 L8.642024287277877,4.127946339428467 L10.02557780251045,4.568419380823209" fill="blue" fill-opacity="0.6" stroke="black" />
<path d="M8.642024287277877,-4.127946339428467 L10.02557780251045,-4.568419380823209 L13.10961746635796,-4.568888965883444" fill="yellow" fill-opacity="0.6" stroke="black" />
<path d="M8.642024287277877,4.127946339428467 L10.02557780251045,4.568419380823209 L13.10961746635796,4.568888965883444" fill="black" fill-opacity="0.6" stroke="black" />
<path d="M10.02557780251045,-4.568419380823209 L13.10961746635796,-4.568888965883444 L14.4252157573048,-5.596505997381058" fill="black" fill-opacity="0.6" stroke="black" />
<path d="M10.02557780251045,4.568419380823209 L13.10961746635796,4.568888965883444 L14.4252157573048,5.596505997381058" fill="yellow" fill-opacity="0.6" stroke="black" />
<path d="M13.10961746635796,-4.568888965883444 L14.4252157573048,-5.596505997381058 L14.511252563974956,-8.627523201609375" fill="pink" fill-opacity="0.6" stroke="black" />
<path d="M13.10961746635796,4.568888965883444 L14.4252157573048,5.596505997381058 L14.511252563974956,8.627523201609375" fill="black" fill-opacity="0.6" stroke="black" />
<path d="M14.4252157573048,-5.596505997381058 L14.511252563974956,-8.627523201609375 L17.270832282072874,-9.335869790157924" fill="blue" fill-opacity="0.6" stroke="black" />
<path d="M14.4252157573048,5.596505997381058 L14.511252563974956,8.627523201609375 L17.270832282072874,9.335869790157924" fill="blue" fill-opacity="0.6" stroke="black" />
<path d="M14.511252563974956,-8.627523201609375 L17.270832282072874,-9.335869790157924 L18.93476039931948,-9.89524968919528" fill="black" fill-opacity="0.6" stroke="black" />
<path d="M14.511252563974956,8.627523201609375 L17.270832282072874,9.335869790157924 L18.93476039931948,9.89524968919528" fill="purple" fill-opacity="0.6" stroke="black" />
<path d="M17.270832282072874,-9.335869790157924 L18.93476039931948,-9.89524968919528 L20.51130740788537,-11.585573689880283" fill="yellow" fill-opacity="0.6" stroke="black" />
<path d="M17.270832282072874,9.335869790157924 L18.93476039931948,9.89524968919528 L20.51130740788537,11.585573689880283" fill="red" fill-opacity="0.6" stroke="black" />
<path d="M18.93476039931948,-9.89524968919528 L20.51130740788537,-11.585573689880283 L29.86947213871291,-12.199326434622526" fill="blue" fill-opacity="0.6" stroke="black" />
<path d="M18.93476039931948,9.89524968919528 L20.51130740788537,11.585573689880283 L29.86947213871291,12.199326434622526" fill="green" fill-opacity="0.6" stroke="black" />
<path d="M20.51130740788537,-11.585573689880283 L29.86947213871291,-12.199326434622526 L50.0,-0.0" fill="brown" fill-opacity="0.6" stroke="black" />
<path d="M20.51130740788537,11.585573689880283 L29.86947213871291,12.199326434622526 L50.0,-0.0" fill="green" fill-opacity="0.6" stroke="black" />
<path d="M50.0,-50.0 L31.79927274182451,-13.850899032215564 L31.815600706834182,-14.244637864397394" fill="purple" fill-opacity="0.6" stroke="black" />
<path d="M50.0,50.0 L31.79927274182451,13.850899032215564 L31.815600706834182,14.244637864397394" fill="brown" fill-opacity="0.6" stroke="black" />
<path d="M31.79927274182451,-13.850899032215564 L31.815600706834182,-14.244637864397394 L32.19733019170535,-17.349456719495766" fill="purple" fill-opacity="0.6" stroke="black" />
<path d="M31.79927274182451,13.850899032215564 L31.815600706834182,14.244637864397394 L32.19733019170535,17.349456719495766" fill="orange" fill-opacity="0.6" stroke="black" />
<path d="M31.815600706834182,-14.244637864397394 L32.19733019170535,-17.349456719495766 L32.70201920607868,-17.609229012422453" fill="black" fill-opacity="0.6" stroke="black" />
<path d="M31.815600706834182,14.244637864397394 L32.19733019170535,17.349456719495766 L32.70201920607868,17.609229012422453" fill="red" fill-opacity="0.6" stroke="black" />
<path d="M32.19733019170535,-17.349456719495766 L32.70201920607868,-17.609229012422453 L39.50302009206704,-22.46589852625839" fill="orange" fill-opacity="0.6" stroke="black" />
<path d="M32.19733019170535,17.349456719495766 L32.70201920607868,17.609229012422453 L39.50302009206704,22.46589852625839" fill="red" fill-opacity="0.6" stroke="black" />
<path d="M32.70201920607868,-17.609229012422453 L39.50302009206704,-22.46589852625839 L40.921276885889526,-25.670685227748525" fill="blue" fill-opacity="0.6" stroke="black" />
<path d="M32.70201920607868,17.609229012422453 L39.50302009206704,22.46589852625839 L40.921276885889526,25.670685227748525" fill="purple" fill-opacity="0.6" stroke="black" />
<path d="M39.50302009206704,-22.46589852625839 L40.921276885889526,-25.670685227748525 L44.14656489113581,-35.848405587129086" fill="pink" fill-opacity="0.6" stroke="black" />
<path d="M39.50302009206704,22.46589852625839 L40.921276885889526,25.670685227748525 L44.14656489113581,35.848405587129086" fill="orange" fill-opacity="0.6" stroke="black" />
<path d="M40.921276885889526,-25.670685227748525 L44.14656489113581,-35.848405587129086 L45.14879968043736,-38.286149837601016" fill="blue" fill-opacity="0.6" stroke="black" />
<path d="M40.921276885889526,25.670685227748525 L44.14656489113581,35.848405587129086 L45.14879968043736,38.286149837601016" fill="yellow" fill-opacity="0.6" stroke="black" />
<path d="M44.14656489113581,-35.848405587129086 L45.14879968043736,-38.286149837601016 L49.909139606261945,-40.927520469255015" fill="black" fill-opacity="0.6" stroke="black" />
<path d="M44.14656489113581,35.848405587129086 L45.14879968043736,38.286149837601016 L49.909139606261945,40.927520469255015" fill="blue" fill-opacity="0.6" stroke="black" />
<path d="M45.14879968043736,-38.286149837601016 L49.909139606261945,-40.927520469255015 L0.0,-0.0" fill="purple" fill-opacity="0.6" stroke="black" />
<path d="M45.14879968043736,38.286149837601016 L49.909139606261945,40.927520469255015 L0.0,-0.0" fill="orange" fill-opacity="0.6" stroke="black" />
<path d="M0.0,-0.0 L-1.5288656035854662,-0.3362788913069613 L-2.4183574304260267,-1.139472956075129" fill="black" fill-opacity="0.6" stroke="black" />
<path d="M0.0,-0.0 L-1.5288656035854662,0.3362788913069613 L-2.4183574304260267,1.139472956075129" fill="blue" fill-opacity="0.6" stroke="black" />
<path d="M-1.5288656035854662,-0.3362788913069613 L-2.4183574304260267,-1.139472956075129 L-8.642024287277877,-4.127946339428467" fill="red" fill-opacity="0.6" stroke="black" />
<path d="M-1.5288656035854662,0.3362788913069613 L-2.4183574304260267,1.139472956075129 L-8.642024287277877,4.127946339428467" fill="brown" fill-opacity="0.6" stroke="black" />
<path d="M-2.4183574304260267,-1.139472956075129 L-8.642024287277877,-4.127946339428467 L-10.02557780251045,-4.568419380823209" fill="red" fill-opacity="0.6" stroke="black" />
<path d="M-2.4183574304260267,1.139472956075129 L-8.642024287277877,4.127946339428467 L-10.02557780251045,4.568419380823209" fill="green" fill-opacity="0.6" stroke="black" />
<path d="M-8.642024287277877,-4.127946339428467 L-10.02557780251045,-4.568419380823209 L-13.10961746635796,-4.568888965883444" fill="blue" fill-opacity="0.6" stroke="black" />
<path d="M-8.642024287277877,4.127946339428467 L-10.02557780251045,4.568419380823209 L-13.10961746635796,4.568888965883444" fill="blue" fill-opacity="0.6" stroke="black" />
<path d="M-10.02557780251045,-4.568419380823209 L-13.10961746635796,-4.568888965883444 L-14.4252157573048,-5.596505997381058" fill="pink" fill-opacity="0.6" stroke="black" />
<path d="M-10.02557780251045,4.568419380823209 L-13.10961746635796,4.568888965883444 L-14.4252157573048,5.596505997381058" fill="yellow" fill-opacity="0.6" stroke="black" />
<path d="M-13.10961746635796,-4.568888965883444 L-14.4252157573048,-5.596505997381058 L-14.511252563974956,-8.627523201609375" fill="red" fill-opacity="0.6" stroke="black" />
<path d="M-13.10961746635796,4.568888965883444 L-14.4252157573048,5.596505997381058 L-14.511252563974956,8.627523201609375" fill="orange" fill-opacity="0.6" stroke="black" />
<path d="M-14.4252157573048,-5.596505997381058 L-14.511252563974956,-8.627523201609375 L-17.270832282072874,-9.335869790157924" fill="pink" fill-opacity="0.6" stroke="black" />
<path d="M-14.4252157573048,5.596505997381058 L-14.511252563974956,8.627523201609375 L-17.270832282072874,9.335869790157924" fill="blue" fill-opacity="0.6" stroke="black" />
<path d="M-14.511252563974956,-8.627523201609375 L-17.270832282072874,-9.335869790157924 L-18.93476039931948,-9.89524968919528" fill="green" fill-opacity="0.6" stroke="black" />
<path d="M-14.511252563974956,8.627523201609375 L-17.270832282072874,9.335869790157924 L-18.93476039931948,9.89524968919528" fill="brown" fill-opacity="0.6" stroke="black" />
<path d="M-17.270832282072874,-9.335869790157924 L-18.93476039931948,-9.89524968919528 L-20.51130740788537,-11.585573689880283" fill="blue" fill-opacity="0.6" stroke="black" />
<path d="M-17.270832282072874,9.335869790157924 L-18.93476039931948,9.89524968919528 L-20.51130740788537,11.585573689880283" fill="blue" fill-opacity="0.6" stroke="black" />
<path d="M-18.93476039931948,-9.89524968919528 L-20.51130740788537,-11.585573689880283 L-29.86947213871291,-12.199326434622526" fill="purple" fill-opacity="0.6" stroke="black" />
<path d="M-18.93476039931948,9.89524968919528 L-20.51130740788537,11.585573689880283 L-29.86947213871291,12.199326434622526" fill="yellow" fill-opacity="0.6" stroke="black" />
<path d="M-20.51130740788537,-11.585573689880283 L-29.86947213871291,-12.199326434622526 L-50.0,-0.0" fill="brown" fill-opacity="0.6" stroke="black" />
<path d="M-20.51130740788537,11.585573689880283 L-29.86947213871291,12.199326434622526 L-50.0,-0.0" fill="black" fill-opacity="0.6" stroke="black" />
<path d="M-50.0,-50.0 L-31.79927274182451,-13.850899032215564 L-31.815600706834182,-14.244637864397394" fill="blue" fill-opacity="0.6" stroke="black" />
<path d="M-50.0,50.0 L-31.79927274182451,13.850899032215564 L-31.815600706834182,14.244637864397394" fill="pink" fill-opacity="0.6" stroke="black" />
<path d="M-31.79927274182451,-13.850899032215564 L-31.815600706834182,-14.244637864397394 L-32.19733019170535,-17.349456719495766" fill="blue" fill-opacity="0.6" stroke="black" />
<path d="M-31.79927274182451,13.850899032215564 L-31.815600706834182,14.244637864397394 L-32.19733019170535,17.349456719495766" fill="orange" fill-opacity="0.6" stroke="black" />
<path d="M-31.815600706834182,-14.244637864397394 L-32.19733019170535,-17.349456719495766 L-32.70201920607868,-17.609229012422453" fill="blue" fill-opacity="0.6" stroke="black" />
<path d="M-31.815600706834182,14.244637864397394 L-32.19733019170535,17.349456719495766 L-32.70201920607868,17.609229012422453" fill="brown" fill-opacity="0.6" stroke="black" />
<path d="M-32.19733019170535,-17.349456719495766 L-32.70201920607868,-17.609229012422453 L-39.50302009206704,-22.46589852625839" fill="blue" fill-opacity="0.6" stroke="black" />
<path d="M-32.19733019170535,17.349456719495766 L-32.70201920607868,17.609229012422453 L-39.50302009206704,22.46589852625839" fill="yellow" fill-opacity="0.6" stroke="black" />
<path d="M-32.70201920607868,-17.609229012422453 L-39.50302009206704,-22.46589852625839 L-40.921276885889526,-25.670685227748525" fill="orange" fill-opacity="0.6" stroke="black" />
<path d="M-32.70201920607868,17.609229012422453 L-39.50302009206704,22.46589852625839 L-40.921276885889526,25.670685227748525" fill="green" fill-opacity="0.6" stroke="black" />
<path d="M-39.50302009206704,-22.46589852625839 L-40.921276885889526,-25.670685227748525 L-44.14656489113581,-35.848405587129086" fill="black" fill-opacity="0.6" stroke="black" />
<path d="M-39.50302009206704,22.46589852625839 L-40.921276885889526,25.670685227748525 L-44.14656489113581,35.848405587129086" fill="black" fill-opacity="0.6" stroke="black" />
<path d="M-40.921276885889526,-25.670685227748525 L-44.14656489113581,-35.848405587129086 L-45.14879968043736,-38.286149837601016" fill="purple" fill-opacity="0.6" stroke="black" />
<path d="M-40.921276885889526,25.670685227748525 L-44.14656489113581,35.848405587129086 L-45.14879968043736,38.286149837601016" fill="red" fill-opacity="0.6" stroke="black" />
<path d="M-44.14656489113581,-35.848405587129086 L-45.14879968043736,-38.286149837601016 L-49.909139606261945,-40.927520469255015" fill="red" fill-opacity="0.6" stroke="black" />
<path d="M-44.14656489113581,35.848405587129086 L-45.14879968043736,38.286149837601016 L-49.909139606261945,40.927520469255015" fill="yellow" fill-opacity="0.6" stroke="black" />
<path d="M-45.14879968043736,-38.286149837601016 L-49.909139606261945,-40.927520469255015 L0.0,-0.0" fill="pink" fill-opacity="0.6" stroke="black" />
<path d="M-45.14879968043736,38.286149837601016 L-49.909139606261945,40.927520469255015 L0.0,-0.0" fill="red" fill-opacity="0.6" stroke="black" />
<path d="M100.0,-0.0 L98.47113439641453,0.3362788913069613 L97.58164256957397,1.139472956075129" fill="blue" fill-opacity="0.6" stroke="black" />
<path d="M100.0,-0.0 L98.47113439641453,-0.3362788913069613 L97.58164256957397,-1.139472956075129" fill="pink" fill-opacity="0.6" stroke="black" />
<path d="M98.47113439641453,0.3362788913069613 L97.58164256957397,1.139472956075129 L91.35797571272212,4.127946339428467" fill="green" fill-opacity="0.6" stroke="black" />
<path d="M98.47113439641453,-0.3362788913069613 L97.58164256957397,-1.139472956075129 L91.35797571272212,-4.127946339428467" fill="blue" fill-opacity="0.6" stroke="black" />
<path d="M97.58164256957397,1.139472956075129 L91.35797571272212,4.127946339428467 L89.97442219748956,4.568419380823209" fill="purple" fill-opacity="0.6" stroke="black" />
<path d="M97.58164256957397,-1.139472956075129 L91.35797571272212,-4.127946339428467 L89.97442219748956,-4.568419380823209" fill="pink" fill-opacity="0.6" stroke="black" />
<path d="M91.35797571272212,4.127946339428467 L89.97442219748956,4.568419380823209 L86.89038253364204,4.568888965883444" fill="red" fill-opacity="0.6" stroke="black" />
<path d="M91.35797571272212,-4.127946339428467 L89.97442219748956,-4.568419380823209 L86.89038253364204,-4.568888965883444" fill="purple" fill-opacity="0.6" stroke="black" />
<path d="M89.97442219748956,4.568419380823209 L86.89038253364204,4.568888965883444 L85.5747842426952,5.596505997381058" fill="pink" fill-opacity="0.6" stroke="black" />
<path d="M89.97442219748956,-4.568419380823209 L86.89038253364204,-4.568888965883444 L85.5747842426952,-5.596505997381058" fill="brown" fill-opacity="0.6" stroke="black" />
<path d="M86.89038253364204,4.568888965883444 L85.5747842426952,5.596505997381058 L85.48874743602505,8.627523201609375" fill="purple" fill-opacity="0.6" stroke="black" />
<path d="M86.89038253364204,-4.568888965883444 L85.5747842426952,-5.596505997381058 L85.48874743602505,-8.627523201609375" fill="blue" fill-opacity="0.6" stroke="black" />
<path d="M85.5747842426952,5.596505997381058 L85.48874743602505,8.627523201609375 L82.72916771792713,9.335869790157924" fill="orange" fill-opacity="0.6" stroke="black" />
<path d="M85.5747842426952,-5.596505997381058 L85.48874743602505,-8.627523201609375 L82.72916771792713,-9.335869790157924" fill="yellow" fill-opacity="0.6" stroke="black" />
<path d="M85.48874743602505,8.627523201609375 L82.72916771792713,9.335869790157924 L81.06523960068051,9.89524968919528" fill="red" fill-opacity="0.6" stroke="black" />
<path d="M85.48874743602505,-8.627523201609375 L82.72916771792713,-9.335869790157924 L81.06523960068051,-9.89524968919528" fill="red" fill-opacity="0.6" stroke="black" />
<path d="M82.72916771792713,9.335869790157924 L81.06523960068051,9.89524968919528 L79.48869259211463,11.585573689880283" fill="blue" fill-opacity="0.6" stroke="black" />
<path d="M82.72916771792713,-9.335869790157924 L81.06523960068051,-9.89524968919528 L79.48869259211463,-11.585573689880283" fill="orange" fill-opacity="0.6" stroke="black" />
<path d="M81.06523960068051,9.89524968919528 L79.48869259211463,11.585573689880283 L70.13052786128709,12.199326434622526" fill="green" fill-opacity="0.6" stroke="black" />
<path d="M81.06523960068051,-9.89524968919528 L79.48869259211463,-11.585573689880283 L70.13052786128709,-12.199326434622526" fill="yellow" fill-opacity="0.6" stroke="black" />
<path d="M79.48869259211463,11.585573689880283 L70.13052786128709,12.199326434622526 L50.0,-0.0" fill="green" fill-opacity="0.6" stroke="black" />
<path d="M79.48869259211463,-11.585573689880283 L70.13052786128709,-12.199326434622526 L50.0,-0.0" fill="green" fill-opacity="0.6" stroke="black" />
<path d="M50.0,50.0 L68.20072725817549,13.850899032215564 L68.18439929316582,14.244637864397394" fill="black" fill-opacity="0.6" stroke="black" />
<path d="M50.0,-50.0 L68.20072725817549,-13.850899032215564 L68.18439929316582,-14.244637864397394" fill="black" fill-opacity="0.6" stroke="black" />
<path d="M68.20072725817549,13.850899032215564 L68.18439929316582,14.244637864397394 L67.80266980829465,17.349456719495766" fill="pink" fill-opacity="0.6" stroke="black" />
<path d="M68.20072725817549,-13.850899032215564 L68.18439929316582,-14.244637864397394 L67.80266980829465,-17.349456719495766" fill="black" fill-opacity="0.6" stroke="black" />
<path d="M68.18439929316582,14.244637864397394 L67.80266980829465,17.349456719495766 L67.29798079392131,17.609229012422453" fill="red" fill-opacity="0.6" stroke="black" />
<path d="M68.18439929316582,-14.244637864397394 L67.80266980829465,-17.349456719495766 L67.29798079392131,-17.609229012422453" fill="red" fill-opacity="0.6" stroke="black" />
<path d="M67.80266980829465,17.349456719495766 L67.29798079392131,17.609229012422453 L60.49697990793296,22.46589852625839" fill="brown" fill-opacity="0.6" stroke="black" />
<path d="M67.80266980829465,-17.349456719495766 L67.29798079392131,-17.609229012422453 L60.49697990793296,-22.46589852625839" fill="red" fill-opacity="0.6" stroke="black" />
<path d="M67.29798079392131,17.609229012422453 L60.49697990793296,22.46589852625839 L59.078723114110474,25.670685227748525" fill="yellow" fill-opacity="0.6" stroke="black" />
<path d="M67.29798079392131,-17.609229012422453 L60.49697990793296,-22.46589852625839 L59.078723114110474,-25.670685227748525" fill="purple" fill-opacity="0.6" stroke="black" />
<path d="M60.49697990793296,22.46589852625839 L59.078723114110474,25.670685227748525 L55.85343510886419,35.848405587129086" fill="orange" fill-opacity="0.6" stroke="black" />
<path d="M60.49697990793296,-22.46589852625839 L59.078723114110474,-25.670685227748525 L55.85343510886419,-35.848405587129086" fill="purple" fill-opacity="0.6" stroke="black" />
<path d="M59.078723114110474,25.670685227748525 L55.85343510886419,35.848405587129086 L54.85120031956264,38.286149837601016" fill="orange" fill-opacity="0.6" stroke="black" />
<path d="M59.078723114110474,-25.670685227748525 L55.85343510886419,-35.848405587129086 L54.85120031956264,-38.286149837601016" fill="pink" fill-opacity="0.6" stroke="black" />
<path d="M55.85343510886419,35.848405587129086 L54.85120031956264,38.286149837601016 L50.090860393738055,40.927520469255015" fill="green" fill-opacity="0.6" stroke="black" />
<path d="M55.85343510886419,-35.848405587129086 L54.85120031956264,-38.286149837601016 L50.090860393738055,-40.927520469255015" fill="red" fill-opacity="0.6" stroke="black" />
<path d="M54.85120031956264,38.286149837601016 L50.090860393738055,40.927520469255015 L100.0,-0.0" fill="black" fill-opacity="0.6" stroke="black" />
<path d="M54.85120031956264,-38.286149837601016 L50.090860393738055,-40.927520469255015 L100.0,-0.0" fill="red" fill-opacity="0.6" stroke="black" />
<path d="M0.0,-0.0 L0.3362788913069613,-1.5288656035854662 L1.139472956075129,-2.4183574304260267" fill="orange" fill-opacity="0.6" stroke="black" />
<path d="M0.0,-0.0 L0.3362788913069613,1.5288656035854662 L1.139472956075129,2.4183574304260267" fill="green" fill-opacity="0.6" stroke="black" />
<path d="M0.0,100.0 L0.3362788913069613,98.47113439641453 L1.139472956075129,97.58164256957397" fill="black" fill-opacity="0.6" stroke="black" />
<path d="M0.0,-100.0 L0.3362788913069613,-98.47113439641453 L1.139472956075129,-97.58164256957397" fill="brown" fill-opacity="0.6" stroke="black" />
<path d="M0.3362788913069613,-1.5288656035854662 L1.139472956075129,-2.4183574304260267 L4.127946339428467,-8.642024287277877" fill="brown" fill-opacity="0.6" stroke="black" />
<path d="M0.3362788913069613,1.5288656035854662 L1.139472956075129,2.4183574304260267 L4.127946339428467,8.642024287277877" fill="green" fill-opacity="0.6" stroke="black" />
<path d="M0.3362788913069613,98.47113439641453 L1.139472956075129,97.58164256957397 L4.127946339428467,91.35797571272212" fill="blue" fill-opacity="0.6" stroke="black" />
<path d="M0.3362788913069613,-98.47113439641453 L1.139472956075129,-97.58164256957397 L4.127946339428467,-91.35797571272212" fill="yellow" fill-opacity="0.6" stroke="black" />
<path d="M1.139472956075129,-2.4183574304260267 L4.127946339428467,-8.642024287277877 L4.568419380823209,-10.02557780251045" fill="pink" fill-opacity="0.6" stroke="black" />
<path d="M1.139472956075129,2.4183574304260267 L4.127946339428467,8.642024287277877 L4.568419380823209,10.02557780251045" fill="pink" fill-opacity="0.6" stroke="black" />
<path d="M1.139472956075129,97.58164256957397 L4.127946339428467,91.35797571272212 L4.568419380823209,89.97442219748956" fill="brown" fill-opacity="0.6" stroke="black" />
<path d="M1.139472956075129,-97.58164256957397 L4.127946339428467,-91.35797571272212 L4.568419380823209,-89.97442219748956" fill="purple" fill-opacity="0.6" stroke="black" />
<path d="M4.127946339428467,-8.642024287277877 L4.568419380823209,-10.02557780251045 L4.568888965883444,-13.10961746635796" fill="blue" fill-opacity="0.6" stroke="black" />
<path d="M4.127946339428467,8.642024287277877 L4.568419380823209,10.02557780251045 L4.568888965883444,13.10961746635796" fill="pink" fill-opacity="0.6" stroke="black" />
<path d="M4.127946339428467,91.35797571272212 L4.568419380823209,89.97442219748956 L4.568888965883444,86.89038253364204" fill="black" fill-opacity="0.6" stroke="black" />
<path d="M4.127946339428467,-91.35797571272212 L4.568419380823209,-89.97442219748956 L4.568888965883444,-86.89038253364204" fill="purple" fill-opacity="0.6" stroke="black" />
<path d="M4.568419380823209,-10.02557780251045 L4.568888965883444,-13.10961746635796 L5.596505997381058,-14.4252157573048" fill="green" fill-opacity="0.6" stroke="black" />
<path d="M4.568419380823209,10.02557780251045 L4.568888965883444,13.10961746635796 L5.596505997381058,14.4252157573048" fill="orange" fill-opacity="0.6" stroke="black" />
<path d="M4.568419380823209,89.97442219748956 L4.568888965883444,86.89038253364204 L5.596505997381058,85.5747842426952" fill="orange" fill-opacity="0.6" stroke="black" />
<path d="M4.568419380823209,-89.97442219748956 L4.568888965883444,-86.89038253364204 L5.596505997381058,-85.5747842426952" fill="pink" fill-opacity="0.6" stroke="black" />
<path d="M4.568888965883444,-13.10961746635796 L5.596505997381058,-14.4252157573048 L8.627523201609375,-14.511252563974956" fill="orange" fill-opacity="0.6" stroke="black" />
<path d="M4.568888965883444,13.10961746635796 L5.596505997381058,14.4252157573048 L8.627523201609375,14.511252563974956" fill="blue" fill-opacity="0.6" stroke="black" />
<path d="M4.568888965883444,86.89038253364204 L5.596505997381058,85.5747842426952 L8.627523201609375,85.48874743602505" fill="orange" fill-opacity="0.6" stroke="black" />
<path d="M4.568888965883444,-86.89038253364204 L5.596505997381058,-85.5747842426952 L8.627523201609375,-85.48874743602505" fill="green" fill-opacity="0.6" stroke="black" />
<path d="M5.596505997381058,-14.4252157573048 L8.627523201609375,-14.511252563974956 L9.335869790157924,-17.270832282072874" fill="red" fill-opacity="0.6" stroke="black" />
<path d="M5.596505997381058,14.4252157573048 L8.627523201609375,14.511252563974956 L9.335869790157924,17.270832282072874" fill="green" fill-opacity="0.6" stroke="black" />
<path d="M5.596505997381058,85.5747842426952 L8.627523201609375,85.48874743602505 L9.335869790157924,82.72916771792713" fill="green" fill-opacity="0.6" stroke="black" />
<path d="M5.596505997381058,-85.5747842426952 L8.627523201609375,-85.48874743602505 L9.335869790157924,-82.72916771792713" fill="orange" fill-opacity="0.6" stroke="black" />
<path d="M8.627523201609375,-14.511252563974956 L9.335869790157924,-17.270832282072874 L9.89524968919528,-18.93476039931948" fill="pink" fill-opacity="0.6" stroke="black" />
<path d="M8.627523201609375,14.511252563974956 L9.335869790157924,17.270832282072874 L9.89524968919528,18.93476039931948" fill="purple" fill-opacity="0.6" stroke="black" />
<path d="M8.627523201609375,85.48874743602505 L9.335869790157924,82.72916771792713 L9.89524968919528,81.06523960068051" fill="blue" fill-opacity="0.6" stroke="black" />
<path d="M8.627523201609375,-85.48874743602505 L9.335869790157924,-82.72916771792713 L9.89524968919528,-81.06523960068051" fill="black" fill-opacity="0.6" stroke="black" />
<path d="M9.335869790157924,-17.270832282072874 L9.89524968919528,-18.93476039931948 L11.585573689880283,-20.51130740788537" fill="pink" fill-opacity="0.6" stroke="black" />
<path d="M9.335869790157924,17.270832282072874 L9.89524968919528,18.93476039931948 L11.585573689880283,20.51130740788537" fill="purple" fill-opacity="0.6" stroke="black" />
<path d="M9.335869790157924,82.72916771792713 L9.89524968919528,81.06523960068051 L11.585573689880283,79.48869259211463" fill="orange" fill-opacity="0.6" stroke="black" />
<path d="M9.335869790157924,-82.72916771792713 L9.89524968919528,-81.06523960068051 L11.585573689880283,-79.48869259211463" fill="purple" fill-opacity="0.6" stroke="black" />
<path d="M9.89524968919528,-18.93476039931948 L11.585573689880283,-20.51130740788537 L12.199326434622526,-29.86947213871291" fill="green" fill-opacity="0.6" stroke="black" />
<path d="M9.89524968919528,18.93476039931948 L11.585573689880283,20.51130740788537 L12.199326434622526,29.86947213871291" fill="orange" fill-opacity="0.6" stroke="black" />
<path d="M9.89524968919528,81.06523960068051 L11.585573689880283,79.48869259211463 L12.199326434622526,70.13052786128709" fill="pink" fill-opacity="0.6" stroke="black" />
<path d="M9.89524968919528,-81.06523960068051 L11.585573689880283,-79.48869259211463 L12.199326434622526,-70.13052786128709" fill="purple" fill-opacity="0.6" stroke="black" />
<path d="M11.585573689880283,-20.51130740788537 L12.199326434622526,-29.86947213871291 L0.0,-50.0" fill="red" fill-opacity="0.6" stroke="black" />
<path d="M11.585573689880283,20.51130740788537 L12.199326434622526,29.86947213871291 L0.0,50.0" fill="pink" fill-opacity="0.6" stroke="black" />
<path d="M11.585573689880283,79.48869259211463 L12.199326434622526,70.13052786128709 L0.0,50.0" fill="orange" fill-opacity="0.6" stroke="black" />
<path d="M11.585573689880283,-79.48869259211463 L12.199326434622526,-70.13052786128709 L0.0,-50.0" fill="brown" fill-opacity="0.6" stroke="black" />
<path d="M50.0,-50.0 L13.850899032215564,-31.79927274182451 L14.244637864397394,-31.815600706834182" fill="orange" fill-opacity="0.6" stroke="black" />
<path d="M50.0,50.0 L13.850899032215564,31.79927274182451 L14.244637864397394,31.815600706834182" fill="red" fill-opacity="0.6" stroke="black" />
<path d="M50.0,50.0 L13.850899032215564,68.20072725817549 L14.244637864397394,68.18439929316582" fill="purple" fill-opacity="0.6" stroke="black" />
<path d="M50.0,-50.0 L13.850899032215564,-68.20072725817549 L14.244637864397394,-68.18439929316582" fill="brown" fill-opacity="0.6" stroke="black" />
<path d="M13.850899032215564,-31.79927274182451 L14.244637864397394,-31.815600706834182 L17.349456719495766,-32.19733019170535" fill="yellow" fill-opacity="0.6" stroke="black" />
<path d="M13.850899032215564,31.79927274182451 L14.244637864397394,31.815600706834182 L17.349456719495766,32.19733019170535" fill="green" fill-opacity="0.6" stroke="black" />
<path d="M13.850899032215564,68.20072725817549 L14.244637864397394,68.18439929316582 L17.349456719495766,67.80266980829465" fill="red" fill-opacity="0.6" stroke="black" />
<path d="M13.850899032215564,-68.20072725817549 L14.244637864397394,-68.18439929316582 L17.349456719495766,-67.80266980829465" fill="green" fill-opacity="0.6" stroke="black" />
<path d="M14.244637864397394,-31.815600706834182 L17.349456719495766,-32.19733019170535 L17.609229012422453,-32.70201920607868" fill="pink" fill-opacity="0.6" stroke="black" />
<path d="M14.244637864397394,31.815600706834182 L17.349456719495766,32.19733019170535 L17.609229012422453,32.70201920607868" fill="red" fill-opacity="0.6" stroke="black" />
<path d="M14.244637864397394,68.18439929316582 L17.349456719495766,67.80266980829465 L17.609229012422453,67.29798079392131" fill="brown" fill-opacity="0.6" stroke="black" />
<path d="M14.244637864397394,-68.18439929316582 L17.349456719495766,-67.80266980829465 L17.609229012422453,-67.29798079392131" fill="red" fill-opacity="0.6" stroke="black" />
<path d="M17.349456719495766,-32.19733019170535 L17.609229012422453,-32.70201920607868 L22.46589852625839,-39.50302009206704" fill="orange" fill-opacity="0.6" stroke="black" />
<path d="M17.349456719495766,32.19733019170535 L17.609229012422453,32.70201920607868 L22.46589852625839,39.50302009206704" fill="yellow" fill-opacity="0.6" stroke="black" />
<path d="M17.349456719495766,67.80266980829465 L17.609229012422453,67.29798079392131 L22.46589852625839,60.49697990793296" fill="purple" fill-opacity="0.6" stroke="black" />
<path d="M17.349456719495766,-67.80266980829465 L17.609229012422453,-67.29798079392131 L22.46589852625839,-60.49697990793296" fill="yellow" fill-opacity="0.6" stroke="black" />
<path d="M17.609229012422453,-32.70201920607868 L22.46589852625839,-39.50302009206704 L25.670685227748525,-40.921276885889526" fill="brown" fill-opacity="0.6" stroke="black" />
<path d="M17.609229012422453,32.70201920607868 L22.46589852625839,39.50302009206704 L25.670685227748525,40.921276885889526" fill="green" fill-opacity="0.6" stroke="black" />
<path d="M17.609229012422453,67.29798079392131 L22.46589852625839,60.49697990793296 L25.670685227748525,59.078723114110474" fill="pink" fill-opacity="0.6" stroke="black" />
<path d="M17.609229012422453,-67.29798079392131 L22.46589852625839,-60.49697990793296 L25.670685227748525,-59.078723114110474" fill="pink" fill-opacity="0.6" stroke="black" />
<path d="M22.46589852625839,-39.50302009206704 L25.670685227748525,-40.921276885889526 L35.848405587129086,-44.14656489113581" fill="black" fill-opacity="0.6" stroke="black" />
<path d="M22.46589852625839,39.50302009206704 L25.670685227748525,40.921276885889526 L35.848405587129086,44.14656489113581" fill="purple" fill-opacity="0.6" stroke="black" />
<path d="M22.46589852625839,60.49697990793296 L25.670685227748525,59.078723114110474 L35.848405587129086,55.85343510886419" fill="red" fill-opacity="0.6" stroke="black" />
<path d="M22.46589852625839,-60.49697990793296 L25.670685227748525,-59.078723114110474 L35.848405587129086,-55.85343510886419" fill="yellow" fill-opacity="0.6" stroke="black" />
<path d="M25.670685227748525,-40.921276885889526 L35.848405587129086,-44.14656489113581 L38.286149837601016,-45.14879968043736" fill="purple" fill-opacity="0.6" stroke="black" />
<path d="M25.670685227748525,40.921276885889526 L35.848405587129086,44.14656489113581 L38.286149837601016,45.14879968043736" fill="black" fill-opacity="0.6" stroke="black" />
<path d="M25.670685227748525,59.078723114110474 L35.848405587129086,55.85343510886419 L38.286149837601016,54.85120031956264" fill="purple" fill-opacity="0.6" stroke="black" />
<path d="M25.670685227748525,-59.078723114110474 L35.848405587129086,-55.85343510886419 L38.286149837601016,-54.85120031956264" fill="black" fill-opacity="0.6" stroke="black" />
<path d="M35.848405587129086,-44.14656489113581 L38.286149837601016,-45.14879968043736 L40.927520469255015,-49.909139606261945" fill="pink" fill-opacity="0.6" stroke="black" />
<path d="M35.848405587129086,44.14656489113581 L38.286149837601016,45.14879968043736 L40.927520469255015,49.909139606261945" fill="yellow" fill-opacity="0.6" stroke="black" />
<path d="M35.848405587129086,55.85343510886419 L38.286149837601016,54.85120031956264 L40.927520469255015,50.090860393738055" fill="blue" fill-opacity="0.6" stroke="black" />
<path d="M35.848405587129086,-55.85343510886419 L38.286149837601016,-54.85120031956264 L40.927520469255015,-50.090860393738055" fill="brown" fill-opacity="0.6" stroke="black" />
<path d="M38.286149837601016,-45.14879968043736 L40.927520469255015,-49.909139606261945 L0.0,-0.0" fill="black" fill-opacity="0.6" stroke="black" />
<path d="M38.286149837601016,45.14879968043736 L40.927520469255015,49.909139606261945 L0.0,-0.0" fill="blue" fill-opacity="0.6" stroke="black" />
<path d="M38.286149837601016,54.85120031956264 L40.927520469255015,50.090860393738055 L0.0,100.0" fill="red" fill-opacity="0.6" stroke="black" />
<path d="M38.286149837601016,-54.85120031956264 L40.927520469255015,-50.090860393738055 L0.0,-100.0" fill="orange" fill-opacity="0.6" stroke="black" />
<path d="M0.0,100.0 L-0.3362788913069613,98.47113439641453 L-1.139472956075129,97.58164256957397" fill="orange" fill-opacity="0.6" stroke="black" />
<path d="M0.0,-0.0 L-0.3362788913069613,-1.5288656035854662 L-1.139472956075129,-2.4183574304260267" fill="green" fill-opacity="0.6" stroke="black" />
<path d="M0.0,-0.0 L-0.3362788913069613,1.5288656035854729 L-1.139472956075129,2.4183574304260276" fill="orange" fill-opacity="0.6" stroke="black" />
<path d="M0.0,-100.0 L-0.3362788913069613,-98.47113439641453 L-1.139472956075129,-97.58164256957397" fill="green" fill-opacity="0.6" stroke="black" />
<path d="M-0.3362788913069613,98.47113439641453 L-1.139472956075129,97.58164256957397 L-4.127946339428467,91.35797571272212" fill="brown" fill-opacity="0.6" stroke="black" />
<path d="M-0.3362788913069613,-1.5288656035854662 L-1.139472956075129,-2.4183574304260267 L-4.127946339428467,-8.642024287277877" fill="pink" fill-opacity="0.6" stroke="black" />
<path d="M-0.3362788913069613,1.5288656035854729 L-1.139472956075129,2.4183574304260276 L-4.127946339428467,8.642024287277877" fill="black" fill-opacity="0.6" stroke="black" />
<path d="M-0.3362788913069613,-98.47113439641453 L-1.139472956075129,-97.58164256957397 L-4.127946339428467,-91.35797571272212" fill="red" fill-opacity="0.6" stroke="black" />
<path d="M-1.139472956075129,97.58164256957397 L-4.127946339428467,91.35797571272212 L-4.568419380823209,89.97442219748955" fill="brown" fill-opacity="0.6" stroke="black" />
<path d="M-1.139472956075129,-2.4183574304260267 L-4.127946339428467,-8.642024287277877 L-4.568419380823209,-10.02557780251045" fill="yellow" fill-opacity="0.6" stroke="black" />
<path d="M-1.139472956075129,2.4183574304260276 L-4.127946339428467,8.642024287277877 L-4.568419380823209,10.025577802510455" fill="pink" fill-opacity="0.6" stroke="black" />
<path d="M-1.139472956075129,-97.58164256957397 L-4.127946339428467,-91.35797571272212 L-4.568419380823209,-89.97442219748956" fill="orange" fill-opacity="0.6" stroke="black" />
<path d="M-4.127946339428467,91.35797571272212 L-4.568419380823209,89.97442219748955 L-4.568888965883444,86.89038253364204" fill="blue" fill-opacity="0.6" stroke="black" />
<path d="M-4.127946339428467,-8.642024287277877 L-4.568419380823209,-10.02557780251045 L-4.568888965883444,-13.10961746635796" fill="pink" fill-opacity="0.6" stroke="black" />
<path d="M-4.127946339428467,8.642024287277877 L-4.568419380823209,10.025577802510455 L-4.568888965883444,13.10961746635796" fill="orange" fill-opacity="0.6" stroke="black" />
<path d="M-4.127946339428467,-91.35797571272212 L-4.568419380823209,-89.97442219748956 L-4.568888965883444,-86.89038253364204" fill="blue" fill-opacity="0.6" stroke="black" />
<path d="M-4.568419380823209,89.97442219748955 L-4.568888965883444,86.89038253364204 L-5.596505997381058,85.5747842426952" fill="orange" fill-opacity="0.6" stroke="black" />
<path d="M-4.568419380823209,-10.02557780251045 L-4.568888965883444,-13.10961746635796 L-5.596505997381058,-14.4252157573048" fill="pink" fill-opacity="0.6" stroke="black" />
<path d="M-4.568419380823209,10.025577802510455 L-4.568888965883444,13.10961746635796 L-5.596505997381058,14.425215757304798" fill="brown" fill-opacity="0.6" stroke="black" />
<path d="M-4.568419380823209,-89.97442219748956 L-4.568888965883444,-86.89038253364204 L-5.596505997381058,-85.5747842426952" fill="black" fill-opacity="0.6" stroke="black" />
<path d="M-4.568888965883444,86.89038253364204 L-5.596505997381058,85.5747842426952 L-8.627523201609375,85.48874743602505" fill="brown" fill-opacity="0.6" stroke="black" />
<path d="M-4.568888965883444,-13.10961746635796 L-5.596505997381058,-14.4252157573048 L-8.627523201609375,-14.511252563974956" fill="green" fill-opacity="0.6" stroke="black" />
<path d="M-4.568888965883444,13.10961746635796 L-5.596505997381058,14.425215757304798 L-8.627523201609375,14.51125256397495" fill="blue" fill-opacity="0.6" stroke="black" />
<path d="M-4.568888965883444,-86.89038253364204 L-5.596505997381058,-85.5747842426952 L-8.627523201609375,-85.48874743602505" fill="green" fill-opacity="0.6" stroke="black" />
<path d="M-5.596505997381058,85.5747842426952 L-8.627523201609375,85.48874743602505 L-9.335869790157924,82.72916771792713" fill="blue" fill-opacity="0.6" stroke="black" />
<path d="M-5.596505997381058,-14.4252157573048 L-8.627523201609375,-14.511252563974956 L-9.335869790157924,-17.270832282072874" fill="blue" fill-opacity="0.6" stroke="black" />
<path d="M-5.596505997381058,14.425215757304798 L-8.627523201609375,14.51125256397495 L-9.335869790157924,17.270832282072874" fill="green" fill-opacity="0.6" stroke="black" />
<path d="M-5.596505997381058,-85.5747842426952 L-8.627523201609375,-85.48874743602505 L-9.335869790157924,-82.72916771792713" fill="orange" fill-opacity="0.6" stroke="black" />
<path d="M-8.627523201609375,85.48874743602505 L-9.335869790157924,82.72916771792713 L-9.89524968919528,81.06523960068051" fill="green" fill-opacity="0.6" stroke="black" />
<path d="M-8.627523201609375,-14.511252563974956 L-9.335869790157924,-17.270832282072874 L-9.89524968919528,-18.93476039931948" fill="purple" fill-opacity="0.6" stroke="black" />
<path d="M-8.627523201609375,14.51125256397495 L-9.335869790157924,17.270832282072874 L-9.89524968919528,18.934760399319487" fill="orange" fill-opacity="0.6" stroke="black" />
<path d="M-8.627523201609375,-85.48874743602505 L-9.335869790157924,-82.72916771792713 L-9.89524968919528,-81.06523960068051" fill="orange" fill-opacity="0.6" stroke="black" />
<path d="M-9.335869790157924,82.72916771792713 L-9.89524968919528,81.06523960068051 L-11.585573689880283,79.48869259211463" fill="blue" fill-opacity="0.6" stroke="black" />
<path d="M-9.335869790157924,-17.270832282072874 L-9.89524968919528,-18.93476039931948 L-11.585573689880283,-20.51130740788537" fill="blue" fill-opacity="0.6" stroke="black" />
<path d="M-9.335869790157924,17.270832282072874 L-9.89524968919528,18.934760399319487 L-11.585573689880283,20.51130740788537" fill="red" fill-opacity="0.6" stroke="black" />
<path d="M-9.335869790157924,-82.72916771792713 L-9.89524968919528,-81.06523960068051 L-11.585573689880283,-79.48869259211463" fill="yellow" fill-opacity="0.6" stroke="black" />
<path d="M-9.89524968919528,81.06523960068051 L-11.585573689880283,79.48869259211463 L-12.199326434622526,70.13052786128709" fill="blue" fill-opacity="0.6" stroke="black" />
<path d="M-9.89524968919528,-18.93476039931948 L-11.585573689880283,-20.51130740788537 L-12.199326434622526,-29.86947213871291" fill="orange" fill-opacity="0.6" stroke="black" />
<path d="M-9.89524968919528,18.934760399319487 L-11.585573689880283,20.51130740788537 L-12.199326434622526,29.869472138712908" fill="purple" fill-opacity="0.6" stroke="black" />
<path d="M-9.89524968919528,-81.06523960068051 L-11.585573689880283,-79.48869259211463 L-12.199326434622526,-70.13052786128709" fill="purple" fill-opacity="0.6" stroke="black" />
<path d="M-11.585573689880283,79.48869259211463 L-12.199326434622526,70.13052786128709 L0.0,50.0" fill="black" fill-opacity="0.6" stroke="black" />
<path d="M-11.585573689880283,-20.51130740788537 L-12.199326434622526,-29.86947213871291 L0.0,-50.0" fill="blue" fill-opacity="0.6" stroke="black" />
<path d="M-11.585573689880283,20.51130740788537 L-12.199326434622526,29.869472138712908 L0.0,50.0" fill="purple" fill-opacity="0.6" stroke="black" />
<path d="M-11.585573689880283,-79.48869259211463 L-12.199326434622526,-70.13052786128709 L0.0,-50.0" fill="yellow" fill-opacity="0.6" stroke="black" />
<path d="M-50.0,50.0 L-13.850899032215564,68.20072725817549 L-14.244637864397394,68.18439929316582" fill="pink" fill-opacity="0.6" stroke="black" />
<path d="M-50.0,-50.0 L-13.850899032215564,-31.79927274182451 L-14.244637864397394,-31.815600706834182" fill="yellow" fill-opacity="0.6" stroke="black" />
<path d="M-50.0,50.0 L-13.850899032215564,31.79927274182451 L-14.244637864397394,31.815600706834175" fill="orange" fill-opacity="0.6" stroke="black" />
<path d="M-50.0,-50.0 L-13.850899032215564,-68.20072725817549 L-14.244637864397394,-68.18439929316582" fill="green" fill-opacity="0.6" stroke="black" />
<path d="M-13.850899032215564,68.20072725817549 L-14.244637864397394,68.18439929316582 L-17.349456719495766,67.80266980829465" fill="blue" fill-opacity="0.6" stroke="black" />
<path d="M-13.850899032215564,-31.79927274182451 L-14.244637864397394,-31.815600706834182 L-17.349456719495766,-32.19733019170535" fill="red" fill-opacity="0.6" stroke="black" />
<path d="M-13.850899032215564,31.79927274182451 L-14.244637864397394,31.815600706834175 L-17.349456719495766,32.19733019170535" fill="pink" fill-opacity="0.6" stroke="black" />
<path d="M-13.850899032215564,-68.20072725817549 L-14.244637864397394,-68.18439929316582 L-17.349456719495766,-67.80266980829465" fill="blue" fill-opacity="0.6" stroke="black" />
<path d="M-14.244637864397394,68.18439929316582 L-17.349456719495766,67.80266980829465 L-17.609229012422453,67.29798079392131" fill="black" fill-opacity="0.6" stroke="black" />
<path d="M-14.244637864397394,-31.815600706834182 L-17.349456719495766,-32.19733019170535 L-17.609229012422453,-32.70201920607868" fill="brown" fill-opacity="0.6" stroke="black" />
<path d="M-14.244637864397394,31.815600706834175 L-17.349456719495766,32.19733019170535 L-17.609229012422453,32.70201920607869" fill="brown" fill-opacity="0.6" stroke="black" />
<path d="M-14.244637864397394,-68.18439929316582 L-17.349456719495766,-67.80266980829465 L-17.609229012422453,-67.29798079392131" fill="yellow" fill-opacity="0.6" stroke="black" />
<path d="M-17.349456719495766,67.80266980829465 L-17.609229012422453,67.29798079392131 L-22.46589852625839,60.49697990793296" fill="red" fill-opacity="0.6" stroke="black" />
<path d="M-17.349456719495766,-32.19733019170535 L-17.609229012422453,-32.70201920607868 L-22.46589852625839,-39.50302009206704" fill="pink" fill-opacity="0.6" stroke="black" />
<path d="M-17.349456719495766,32.19733019170535 L-17.609229012422453,32.70201920607869 L-22.46589852625839,39.50302009206704" fill="brown" fill-opacity="0.6" stroke="black" />
<path d="M-17.349456719495766,-67.80266980829465 L-17.609229012422453,-67.29798079392131 L-22.46589852625839,-60.49697990793296" fill="pink" fill-opacity="0.6" stroke="black" />
<path d="M-17.609229012422453,67.29798079392131 L-22.46589852625839,60.49697990793296 L-25.670685227748525,59.078723114110474" fill="orange" fill-opacity="0.6" stroke="black" />
<path d="M-17.609229012422453,-32.70201920607868 L-22.46589852625839,-39.50302009206704 L-25.670685227748525,-40.921276885889526" fill="red" fill-opacity="0.6" stroke="black" />
<path d="M-17.609229012422453,32.70201920607869 L-22.46589852625839,39.50302009206704 L-25.670685227748525,40.921276885889526" fill="yellow" fill-opacity="0.6" stroke="black" />
<path d="M-17.609229012422453,-67.29798079392131 L-22.46589852625839,-60.49697990793296 L-25.670685227748525,-59.078723114110474" fill="orange" fill-opacity="0.6" stroke="black" />
<path d="M-22.46589852625839,60.49697990793296 L-25.670685227748525,59.078723114110474 L-35.848405587129086,55.85343510886419" fill="brown" fill-opacity="0.6" stroke="black" />
<path d="M-22.46589852625839,-39.50302009206704 L-25.670685227748525,-40.921276885889526 L-35.848405587129086,-44.14656489113581" fill="pink" fill-opacity="0.6" stroke="black" />
<path d="M-22.46589852625839,39.50302009206704 L-25.670685227748525,40.921276885889526 L-35.848405587129086,44.14656489113581" fill="black" fill-opacity="0.6" stroke="black" />
<path d="M-22.46589852625839,-60.49697990793296 L-25.670685227748525,-59.078723114110474 L-35.848405587129086,-55.85343510886419" fill="brown" fill-opacity="0.6" stroke="black" />
<path d="M-25.670685227748525,59.078723114110474 L-35.848405587129086,55.85343510886419 L-38.286149837601016,54.85120031956264" fill="green" fill-opacity="0.6" stroke="black" />
<path d="M-25.670685227748525,-40.921276885889526 L-35.848405587129086,-44.14656489113581 L-38.286149837601016,-45.14879968043736" fill="orange" fill-opacity="0.6" stroke="black" />
<path d="M-25.670685227748525,40.921276885889526 L-35.848405587129086,44.14656489113581 L-38.286149837601016,45.14879968043736" fill="orange" fill-opacity="0.6" stroke="black" />
<path d="M-25.670685227748525,-59.078723114110474 L-35.848405587129086,-55.85343510886419 L-38.286149837601016,-54.85120031956264" fill="pink" fill-opacity="0.6" stroke="black" />
<path d="M-35.848405587129086,55.85343510886419 L-38.286149837601016,54.85120031956264 L-40.927520469255015,50.090860393738055" fill="green" fill-opacity="0.6" stroke="black" />
<path d="M-35.848405587129086,-44.14656489113581 L-38.286149837601016,-45.14879968043736 L-40.927520469255015,-49.909139606261945" fill="purple" fill-opacity="0.6" stroke="black" />
<path d="M-35.848405587129086,44.14656489113581 L-38.286149837601016,45.14879968043736 L-40.927520469255015,49.909139606261945" fill="blue" fill-opacity="0.6" stroke="black" />
<path d="M-35.848405587129086,-55.85343510886419 L-38.286149837601016,-54.85120031956264 L-40.927520469255015,-50.090860393738055" fill="brown" fill-opacity="0.6" stroke="black" />
<path d="M-38.286149837601016,54.85120031956264 L-40.927520469255015,50.090860393738055 L0.0,100.0" fill="purple" fill-opacity="0.6" stroke="black" />
<path d="M-38.286149837601016,-45.14879968043736 L-40.927520469255015,-49.909139606261945 L0.0,-0.0" fill="green" fill-opacity="0.6" stroke="black" />
<path d="M-38.286149837601016,45.14879968043736 L-40.927520469255015,49.909139606261945 L0.0,-0.0" fill="blue" fill-opacity="0.6" stroke="black" />
<path d="M-38.286149837601016,-54.85120031956264 L-40.927520469255015,-50.090860393738055 L0.0,-100.0" fill="pink" fill-opacity="0.6" stroke="black" />
<path d="M-100.0,-0.0 L-98.47113439641453,-0.3362788913069613 L-97.58164256957397,-1.139472956075129" fill="black" fill-opacity="0.6" stroke="black" />
<path d="M-100.0,-0.0 L-98.47113439641453,0.3362788913069613 L-97.58164256957397,1.139472956075129" fill="purple" fill-opacity="0.6" stroke="black" />
<path d="M-98.47113439641453,-0.3362788913069613 L-97.58164256957397,-1.139472956075129 L-91.35797571272212,-4.127946339428467" fill="blue" fill-opacity="0.6" stroke="black" />
<path d="M-98.47113439641453,0.3362788913069613 L-97.58164256957397,1.139472956075129 L-91.35797571272212,4.127946339428467" fill="black" fill-opacity="0.6" stroke="black" />
<path d="M-97.58164256957397,-1.139472956075129 L-91.35797571272212,-4.127946339428467 L-89.97442219748956,-4.568419380823209" fill="red" fill-opacity="0.6" stroke="black" />
<path d="M-97.58164256957397,1.139472956075129 L-91.35797571272212,4.127946339428467 L-89.97442219748956,4.568419380823209" fill="brown" fill-opacity="0.6" stroke="black" />
<path d="M-91.35797571272212,-4.127946339428467 L-89.97442219748956,-4.568419380823209 L-86.89038253364204,-4.568888965883444" fill="blue" fill-opacity="0.6" stroke="black" />
<path d="M-91.35797571272212,4.127946339428467 L-89.97442219748956,4.568419380823209 L-86.89038253364204,4.568888965883444" fill="black" fill-opacity="0.6" stroke="black" />
<path d="M-89.97442219748956,-4.568419380823209 L-86.89038253364204,-4.568888965883444 L-85.5747842426952,-5.596505997381058" fill="black" fill-opacity="0.6" stroke="black" />
<path d="M-89.97442219748956,4.568419380823209 L-86.89038253364204,4.568888965883444 L-85.5747842426952,5.596505997381058" fill="red" fill-opacity="0.6" stroke="black" />
<path d="M-86.89038253364204,-4.568888965883444 L-85.5747842426952,-5.596505997381058 L-85.48874743602505,-8.627523201609375" fill="orange" fill-opacity="0.6" stroke="black" />
<path d="M-86.89038253364204,4.568888965883444 L-85.5747842426952,5.596505997381058 L-85.48874743602505,8.627523201609375" fill="red" fill-opacity="0.6" stroke="black" />
<path d="M-85.5747842426952,-5.596505997381058 L-85.48874743602505,-8.627523201609375 L-82.72916771792713,-9.335869790157924" fill="yellow" fill-opacity="0.6" stroke="black" />
<path d="M-85.5747842426952,5.596505997381058 L-85.48874743602505,8.627523201609375 L-82.72916771792713,9.335869790157924" fill="black" fill-opacity="0.6" stroke="black" />
<path d="M-85.48874743602505,-8.627523201609375 L-82.72916771792713,-9.335869790157924 L-81.06523960068051,-9.89524968919528" fill="orange" fill-opacity="0.6" stroke="black" />
<path d="M-85.48874743602505,8.627523201609375 L-82.72916771792713,9.335869790157924 L-81.06523960068051,9.89524968919528" fill="brown" fill-opacity="0.6" stroke="black" />
<path d="M-82.72916771792713,-9.335869790157924 L-81.06523960068051,-9.89524968919528 L-79.48869259211463,-11.585573689880283" fill="black" fill-opacity="0.6" stroke="black" />
<path d="M-82.72916771792713,9.335869790157924 L-81.06523960068051,9.89524968919528 L-79.48869259211463,11.585573689880283" fill="black" fill-opacity="0.6" stroke="black" />
<path d="M-81.06523960068051,-9.89524968919528 L-79.48869259211463,-11.585573689880283 L-70.13052786128709,-12.199326434622526" fill="brown" fill-opacity="0.6" stroke="black" />
<path d="M-81.06523960068051,9.89524968919528 L-79.48869259211463,11.585573689880283 L-70.13052786128709,12.199326434622526" fill="orange" fill-opacity="0.6" stroke="black" />
<path d="M-79.48869259211463,-11.585573689880283 L-70.13052786128709,-12.199326434622526 L-50.0,-0.0" fill="green" fill-opacity="0.6" stroke="black" />
<path d="M-79.48869259211463,11.585573689880283 L-70.13052786128709,12.199326434622526 L-50.0,-0.0" fill="black" fill-opacity="0.6" stroke="black" />
<path d="M-50.0,-50.0 L-68.20072725817549,-13.850899032215564 L-68.18439929316582,-14.244637864397394" fill="purple" fill-opacity="0.6" stroke="black" />
<path d="M-50.0,50.0 L-68.20072725817549,13.850899032215564 L-68.18439929316582,14.244637864397394" fill="purple" fill-opacity="0.6" stroke="black" />
<path d="M-68.20072725817549,-13.850899032215564 L-68.18439929316582,-14.244637864397394 L-67.80266980829465,-17.349456719495766" fill="brown" fill-opacity="0.6" stroke="black" />
<path d="M-68.20072725817549,13.850899032215564 L-68.18439929316582,14.244637864397394 L-67.80266980829465,17.349456719495766" fill="black" fill-opacity="0.6" stroke="black" />
<path d="M-68.18439929316582,-14.244637864397394 L-67.80266980829465,-17.349456719495766 L-67.29798079392131,-17.609229012422453" fill="pink" fill-opacity="0.6" stroke="black" />
<path d="M-68.18439929316582,14.244637864397394 L-67.80266980829465,17.349456719495766 L-67.29798079392131,17.609229012422453" fill="purple" fill-opacity="0.6" stroke="black" />
<path d="M-67.80266980829465,-17.349456719495766 L-67.29798079392131,-17.609229012422453 L-60.49697990793296,-22.46589852625839" fill="purple" fill-opacity="0.6" stroke="black" />
<path d="M-67.80266980829465,17.349456719495766 L-67.29798079392131,17.609229012422453 L-60.49697990793296,22.46589852625839" fill="pink" fill-opacity="0.6" stroke="black" />
<path d="M-67.29798079392131,-17.609229012422453 L-60.49697990793296,-22.46589852625839 L-59.078723114110474,-25.670685227748525" fill="pink" fill-opacity="0.6" stroke="black" />
<path d="M-67.29798079392131,17.609229012422453 L-60.49697990793296,22.46589852625839 L-59.078723114110474,25.670685227748525" fill="blue" fill-opacity="0.6" stroke="black" />
<path d="M-60.49697990793296,-22.46589852625839 L-59.078723114110474,-25.670685227748525 L-55.85343510886419,-35.848405587129086" fill="orange" fill-opacity="0.6" stroke="black" />
<path d="M-60.49697990793296,22.46589852625839 L-59.078723114110474,25.670685227748525 L-55.85343510886419,35.848405587129086" fill="orange" fill-opacity="0.6" stroke="black" />
<path d="M-59.078723114110474,-25.670685227748525 L-55.85343510886419,-35.848405587129086 L-54.85120031956264,-38.286149837601016" fill="pink" fill-opacity="0.6" stroke="black" />
<path d="M-59.078723114110474,25.670685227748525 L-55.85343510886419,35.848405587129086 L-54.85120031956264,38.286149837601016" fill="green" fill-opacity="0.6" stroke="black" />
<path d="M-55.85343510886419,-35.848405587129086 L-54.85120031956264,-38.286149837601016 L-50.090860393738055,-40.927520469255015" fill="blue" fill-opacity="0.6" stroke="black" />
<path d="M-55.85343510886419,35.848405587129086 L-54.85120031956264,38.286149837601016 L-50.090860393738055,40.927520469255015" fill="brown" fill-opacity="0.6" stroke="black" />
<path d="M-54.85120031956264,-38.286149837601016 L-50.090860393738055,-40.927520469255015 L-100.0,-0.0" fill="blue" fill-opacity="0.6" stroke="black" />
<path d="M-54.85120031956264,38.286149837601016 L-50.090860393738055,40.927520469255015 L-100.0,-0.0" fill="orange" fill-opacity="0.6" stroke="black" />
</svg>