<?xml version="1.0" encoding="UTF-8"?>
<svg xmlns="http://www.w3.org/2000/svg" xmlns:xlink="http://www.w3.org/1999/xlink"
     width="250" height="250" viewBox="-125.0 -125.0 250 250">
<defs>
</defs>
<path d="M5,0 L16,-1 L21,-1" fill="yellow" fill-opacity="1" stroke="black" />
<path d="M5,0 L16,1 L21,1" fill="red" fill-opacity="1" stroke="black" />
<path d="M14,-29 L16,-32 L17,-32" fill="brown" fill-opacity="1" stroke="black" />
<path d="M14,29 L16,32 L17,32" fill="yellow" fill-opacity="1" stroke="black" />
<path d="M14,71 L16,68 L17,68" fill="pink" fill-opacity="1" stroke="black" />
<path d="M14,-71 L16,-68 L17,-68" fill="black" fill-opacity="1" stroke="black" />
<path d="M16,-1 L21,-1 L22,-2" fill="yellow" fill-opacity="1" stroke="black" />
<path d="M16,1 L21,1 L22,2" fill="pink" fill-opacity="1" stroke="black" />
<path d="M21,-1 L22,-2 L23,-3" fill="red" fill-opacity="1" stroke="black" />
<path d="M21,1 L22,2 L23,3" fill="green" fill-opacity="1" stroke="black" />
<path d="M22,-2 L23,-3 L23,-7" fill="red" fill-opacity="1" stroke="black" />
<path d="M23,-3 L23,-7 L23,-9" fill="blue" fill-opacity="1" stroke="black" />
<path d="M23,-7 L23,-9 L50,0" fill="orange" fill-opacity="1" stroke="black" />
<path d="M22,2 L23,3 L23,7" fill="brown" fill-opacity="1" stroke="black" />
<path d="M23,3 L23,7 L23,9" fill="purple" fill-opacity="1" stroke="black" />
<path d="M23,7 L23,9 L50,0" fill="orange" fill-opacity="1" stroke="black" />
<path d="M19,-42 L23,-44 L29,-44" fill="blue" fill-opacity="1" stroke="black" />
<path d="M19,42 L23,44 L29,44" fill="black" fill-opacity="1" stroke="black" />
<path d="M19,58 L23,56 L29,56" fill="purple" fill-opacity="1" stroke="black" />
<path d="M19,-58 L23,-56 L29,-56" fill="blue" fill-opacity="1" stroke="black" />
<path d="M50,0 L25,-10 L27,-11" fill="pink" fill-opacity="1" stroke="black" />
<path d="M50,0 L25,10 L27,11" fill="black" fill-opacity="1" stroke="black" />
<path d="M25,-10 L27,-11 L29,-14" fill="green" fill-opacity="1" stroke="black" />
<path d="M25,10 L27,11 L29,14" fill="green" fill-opacity="1" stroke="black" />
<path d="M23,-44 L29,-44 L29,-47" fill="orange" fill-opacity="1" stroke="black" />
<path d="M29,-44 L29,-47 L50,-50" fill="yellow" fill-opacity="1" stroke="black" />
<path d="M23,44 L29,44 L29,47" fill="green" fill-opacity="1" stroke="black" />
<path d="M29,44 L29,47 L50,50" fill="red" fill-opacity="1" stroke="black" />
<path d="M23,56 L29,56 L29,53" fill="blue" fill-opacity="1" stroke="black" />
<path d="M29,56 L29,53 L50,50" fill="black" fill-opacity="1" stroke="black" />
<path d="M23,-56 L29,-56 L29,-53" fill="black" fill-opacity="1" stroke="black" />
<path d="M29,-56 L29,-53 L50,-50" fill="yellow" fill-opacity="1" stroke="black" />
<path d="M29,-14 L32,-16 L32,-17" fill="black" fill-opacity="1" stroke="black" />
<path d="M32,-16 L32,-17 L36,-18" fill="purple" fill-opacity="1" stroke="black" />
<path d="M29,14 L32,16 L32,17" fill="purple" fill-opacity="1" stroke="black" />
<path d="M32,16 L32,17 L36,18" fill="yellow" fill-opacity="1" stroke="black" />
<path d="M32,-17 L36,-18 L41,-19" fill="purple" fill-opacity="1" stroke="black" />
<path d="M32,17 L36,18 L41,19" fill="blue" fill-opacity="1" stroke="black" />
<path d="M36,-18 L41,-19 L42,-19" fill="yellow" fill-opacity="1" stroke="black" />
<path d="M36,18 L41,19 L42,19" fill="brown" fill-opacity="1" stroke="black" />
<path d="M41,-19 L42,-19 L44,-23" fill="pink" fill-opacity="1" stroke="black" />
<path d="M41,19 L42,19 L44,23" fill="red" fill-opacity="1" stroke="black" />
<path d="M42,-19 L44,-23 L44,-29" fill="yellow" fill-opacity="1" stroke="black" />
<path d="M44,-23 L44,-29 L47,-29" fill="green" fill-opacity="1" stroke="black" />
<path d="M42,19 L44,23 L44,29" fill="orange" fill-opacity="1" stroke="black" />
<path d="M44,23 L44,29 L47,29" fill="black" fill-opacity="1" stroke="black" />
<path d="M44,-29 L47,-29 L50,-50" fill="orange" fill-opacity="1" stroke="black" />
<path d="M44,29 L47,29 L50,50" fill="green" fill-opacity="1" stroke="black" />
<path d="M50,-50 L49,-39 L5,0" fill="yellow" fill-opacity="1" stroke="black" />
<path d="M50,50 L49,39 L5,0" fill="orange" fill-opacity="1" stroke="black" />
<path d="M-5,0 L-16,-1 L-21,-1" fill="orange" fill-opacity="1" stroke="black" />
<path d="M-5,0 L-16,1 L-21,1" fill="black" fill-opacity="1" stroke="black" />
<path d="M-14,71 L-16,68 L-17,68" fill="brown" fill-opacity="1" stroke="black" />
<path d="M-14,-29 L-16,-32 L-17,-32" fill="red" fill-opacity="1" stroke="black" />
<path d="M-14,29 L-16,32 L-17,32" fill="orange" fill-opacity="1" stroke="black" />
<path d="M-14,-71 L-16,-68 L-17,-68" fill="yellow" fill-opacity="1" stroke="black" />
<path d="M-16,-1 L-21,-1 L-22,-2" fill="red" fill-opacity="1" stroke="black" />
<path d="M-16,1 L-21,1 L-22,2" fill="black" fill-opacity="1" stroke="black" />
<path d="M-21,-1 L-22,-2 L-23,-3" fill="yellow" fill-opacity="1" stroke="black" />
<path d="M-21,1 L-22,2 L-23,3" fill="pink" fill-opacity="1" stroke="black" />
<path d="M-22,-2 L-23,-3 L-23,-7" fill="blue" fill-opacity="1" stroke="black" />
<path d="M-23,-3 L-23,-7 L-23,-9" fill="green" fill-opacity="1" stroke="black" />
<path d="M-23,-7 L-23,-9 L-50,0" fill="blue" fill-opacity="1" stroke="black" />
<path d="M-22,2 L-23,3 L-23,7" fill="purple" fill-opacity="1" stroke="black" />
<path d="M-23,3 L-23,7 L-23,9" fill="orange" fill-opacity="1" stroke="black" />
<path d="M-23,7 L-23,9 L-50,0" fill="purple" fill-opacity="1" stroke="black" />
<path d="M-19,58 L-23,56 L-29,56" fill="purple" fill-opacity="1" stroke="black" />
<path d="M-19,-42 L-23,-44 L-29,-44" fill="black" fill-opacity="1" stroke="black" />
<path d="M-19,42 L-23,44 L-29,44" fill="yellow" fill-opacity="1" stroke="black" />
<path d="M-19,-58 L-23,-56 L-29,-56" fill="orange" fill-opacity="1" stroke="black" />
<path d="M-50,0 L-25,-10 L-27,-11" fill="pink" fill-opacity="1" stroke="black" />
<path d="M-50,0 L-25,10 L-27,11" fill="yellow" fill-opacity="1" stroke="black" />
<path d="M-25,-10 L-27,-11 L-29,-14" fill="purple" fill-opacity="1" stroke="black" />
<path d="M-25,10 L-27,11 L-29,14" fill="black" fill-opacity="1" stroke="black" />
<path d="M-23,56 L-29,56 L-29,53" fill="pink" fill-opacity="1" stroke="black" />
<path d="M-29,56 L-29,53 L-50,50" fill="orange" fill-opacity="1" stroke="black" />
<path d="M-23,-44 L-29,-44 L-29,-47" fill="blue" fill-opacity="1" stroke="black" />
<path d="M-29,-44 L-29,-47 L-50,-50" fill="black" fill-opacity="1" stroke="black" />
<path d="M-23,44 L-29,44 L-29,47" fill="green" fill-opacity="1" stroke="black" />
<path d="M-29,44 L-29,47 L-50,50" fill="purple" fill-opacity="1" stroke="black" />
<path d="M-23,-56 L-29,-56 L-29,-53" fill="yellow" fill-opacity="1" stroke="black" />
<path d="M-29,-56 L-29,-53 L-50,-50" fill="brown" fill-opacity="1" stroke="black" />
<path d="M-29,-14 L-32,-16 L-32,-17" fill="blue" fill-opacity="1" stroke="black" />
<path d="M-32,-16 L-32,-17 L-36,-18" fill="pink" fill-opacity="1" stroke="black" />
<path d="M-29,14 L-32,16 L-32,17" fill="blue" fill-opacity="1" stroke="black" />
<path d="M-32,16 L-32,17 L-36,18" fill="brown" fill-opacity="1" stroke="black" />
<path d="M-32,-17 L-36,-18 L-41,-19" fill="brown" fill-opacity="1" stroke="black" />
<path d="M-32,17 L-36,18 L-41,19" fill="pink" fill-opacity="1" stroke="black" />
<path d="M-36,-18 L-41,-19 L-42,-19" fill="pink" fill-opacity="1" stroke="black" />
<path d="M-36,18 L-41,19 L-42,19" fill="yellow" fill-opacity="1" stroke="black" />
<path d="M-41,-19 L-42,-19 L-44,-23" fill="green" fill-opacity="1" stroke="black" />
<path d="M-41,19 L-42,19 L-44,23" fill="red" fill-opacity="1" stroke="black" />
<path d="M-42,-19 L-44,-23 L-44,-29" fill="pink" fill-opacity="1" stroke="black" />
<path d="M-44,-23 L-44,-29 L-47,-29" fill="yellow" fill-opacity="1" stroke="black" />
<path d="M-42,19 L-44,23 L-44,29" fill="pink" fill-opacity="1" stroke="black" />
<path d="M-44,23 L-44,29 L-47,29" fill="blue" fill-opacity="1" stroke="black" />
<path d="M-44,-29 L-47,-29 L-50,-50" fill="brown" fill-opacity="1" stroke="black" />
<path d="M-44,29 L-47,29 L-50,50" fill="blue" fill-opacity="1" stroke="black" />
<path d="M-50,-50 L-49,-39 L-5,0" fill="red" fill-opacity="1" stroke="black" />
<path d="M-50,50 L-49,39 L-5,0" fill="yellow" fill-opacity="1" stroke="black" />
<path d="M95,0 L84,1 L79,1" fill="blue" fill-opacity="1" stroke="black" />
<path d="M95,0 L84,-1 L79,-1" fill="orange" fill-opacity="1" stroke="black" />
<path d="M84,1 L79,1 L78,2" fill="orange" fill-opacity="1" stroke="black" />
<path d="M84,-1 L79,-1 L78,-2" fill="purple" fill-opacity="1" stroke="black" />
<path d="M79,1 L78,2 L77,3" fill="yellow" fill-opacity="1" stroke="black" />
<path d="M79,-1 L78,-2 L77,-3" fill="black" fill-opacity="1" stroke="black" />
<path d="M78,2 L77,3 L77,7" fill="purple" fill-opacity="1" stroke="black" />
<path d="M77,3 L77,7 L77,9" fill="orange" fill-opacity="1" stroke="black" />
<path d="M77,7 L77,9 L50,0" fill="yellow" fill-opacity="1" stroke="black" />
<path d="M78,-2 L77,-3 L77,-7" fill="orange" fill-opacity="1" stroke="black" />
<path d="M77,-3 L77,-7 L77,-9" fill="brown" fill-opacity="1" stroke="black" />
<path d="M77,-7 L77,-9 L50,0" fill="purple" fill-opacity="1" stroke="black" />
<path d="M50,0 L75,10 L73,11" fill="yellow" fill-opacity="1" stroke="black" />
<path d="M50,0 L75,-10 L73,-11" fill="black" fill-opacity="1" stroke="black" />
<path d="M75,10 L73,11 L71,14" fill="red" fill-opacity="1" stroke="black" />
<path d="M75,-10 L73,-11 L71,-14" fill="orange" fill-opacity="1" stroke="black" />
<path d="M71,14 L68,16 L68,17" fill="brown" fill-opacity="1" stroke="black" />
<path d="M68,16 L68,17 L64,18" fill="orange" fill-opacity="1" stroke="black" />
<path d="M71,-14 L68,-16 L68,-17" fill="yellow" fill-opacity="1" stroke="black" />
<path d="M68,-16 L68,-17 L64,-18" fill="brown" fill-opacity="1" stroke="black" />
<path d="M68,17 L64,18 L59,19" fill="black" fill-opacity="1" stroke="black" />
<path d="M68,-17 L64,-18 L59,-19" fill="brown" fill-opacity="1" stroke="black" />
<path d="M64,18 L59,19 L58,19" fill="purple" fill-opacity="1" stroke="black" />
<path d="M64,-18 L59,-19 L58,-19" fill="blue" fill-opacity="1" stroke="black" />
<path d="M59,19 L58,19 L56,23" fill="green" fill-opacity="1" stroke="black" />
<path d="M59,-19 L58,-19 L56,-23" fill="orange" fill-opacity="1" stroke="black" />
<path d="M58,19 L56,23 L56,29" fill="yellow" fill-opacity="1" stroke="black" />
<path d="M56,23 L56,29 L53,29" fill="red" fill-opacity="1" stroke="black" />
<path d="M58,-19 L56,-23 L56,-29" fill="brown" fill-opacity="1" stroke="black" />
<path d="M56,-23 L56,-29 L53,-29" fill="black" fill-opacity="1" stroke="black" />
<path d="M56,29 L53,29 L50,50" fill="orange" fill-opacity="1" stroke="black" />
<path d="M56,-29 L53,-29 L50,-50" fill="pink" fill-opacity="1" stroke="black" />
<path d="M50,50 L51,39 L95,0" fill="blue" fill-opacity="1" stroke="black" />
<path d="M50,-50 L51,-39 L95,0" fill="brown" fill-opacity="1" stroke="black" />
<path d="M0,-5 L1,-16 L1,-21" fill="orange" fill-opacity="1" stroke="black" />
<path d="M1,-16 L1,-21 L2,-22" fill="black" fill-opacity="1" stroke="black" />
<path d="M0,5 L1,16 L1,21" fill="orange" fill-opacity="1" stroke="black" />
<path d="M1,16 L1,21 L2,22" fill="red" fill-opacity="1" stroke="black" />
<path d="M0,95 L1,84 L1,79" fill="blue" fill-opacity="1" stroke="black" />
<path d="M1,84 L1,79 L2,78" fill="red" fill-opacity="1" stroke="black" />
<path d="M0,-95 L1,-84 L1,-79" fill="pink" fill-opacity="1" stroke="black" />
<path d="M1,-84 L1,-79 L2,-78" fill="orange" fill-opacity="1" stroke="black" />
<path d="M1,-21 L2,-22 L3,-23" fill="blue" fill-opacity="1" stroke="black" />
<path d="M1,21 L2,22 L3,23" fill="orange" fill-opacity="1" stroke="black" />
<path d="M1,79 L2,78 L3,77" fill="brown" fill-opacity="1" stroke="black" />
<path d="M1,-79 L2,-78 L3,-77" fill="yellow" fill-opacity="1" stroke="black" />
<path d="M2,-22 L3,-23 L7,-23" fill="blue" fill-opacity="1" stroke="black" />
<path d="M2,22 L3,23 L7,23" fill="red" fill-opacity="1" stroke="black" />
<path d="M2,78 L3,77 L7,77" fill="blue" fill-opacity="1" stroke="black" />
<path d="M2,-78 L3,-77 L7,-77" fill="yellow" fill-opacity="1" stroke="black" />
<path d="M3,-23 L7,-23 L9,-23" fill="black" fill-opacity="1" stroke="black" />
<path d="M3,23 L7,23 L9,23" fill="blue" fill-opacity="1" stroke="black" />
<path d="M3,77 L7,77 L9,77" fill="brown" fill-opacity="1" stroke="black" />
<path d="M3,-77 L7,-77 L9,-77" fill="pink" fill-opacity="1" stroke="black" />
<path d="M7,-23 L9,-23 L0,-50" fill="yellow" fill-opacity="1" stroke="black" />
<path d="M7,23 L9,23 L0,50" fill="blue" fill-opacity="1" stroke="black" />
<path d="M7,77 L9,77 L0,50" fill="black" fill-opacity="1" stroke="black" />
<path d="M7,-77 L9,-77 L0,-50" fill="orange" fill-opacity="1" stroke="black" />
<path d="M0,-50 L10,-25 L11,-27" fill="yellow" fill-opacity="1" stroke="black" />
<path d="M0,50 L10,25 L11,27" fill="blue" fill-opacity="1" stroke="black" />
<path d="M0,50 L10,75 L11,73" fill="green" fill-opacity="1" stroke="black" />
<path d="M0,-50 L10,-75 L11,-73" fill="black" fill-opacity="1" stroke="black" />
<path d="M10,-25 L11,-27 L14,-29" fill="orange" fill-opacity="1" stroke="black" />
<path d="M10,25 L11,27 L14,29" fill="brown" fill-opacity="1" stroke="black" />
<path d="M10,75 L11,73 L14,71" fill="pink" fill-opacity="1" stroke="black" />
<path d="M10,-75 L11,-73 L14,-71" fill="purple" fill-opacity="1" stroke="black" />
<path d="M16,-32 L17,-32 L18,-36" fill="purple" fill-opacity="1" stroke="black" />
<path d="M16,32 L17,32 L18,36" fill="pink" fill-opacity="1" stroke="black" />
<path d="M16,68 L17,68 L18,64" fill="pink" fill-opacity="1" stroke="black" />
<path d="M16,-68 L17,-68 L18,-64" fill="purple" fill-opacity="1" stroke="black" />
<path d="M17,-32 L18,-36 L19,-41" fill="red" fill-opacity="1" stroke="black" />
<path d="M17,32 L18,36 L19,41" fill="purple" fill-opacity="1" stroke="black" />
<path d="M17,68 L18,64 L19,59" fill="yellow" fill-opacity="1" stroke="black" />
<path d="M17,-68 L18,-64 L19,-59" fill="blue" fill-opacity="1" stroke="black" />
<path d="M18,-36 L19,-41 L19,-42" fill="yellow" fill-opacity="1" stroke="black" />
<path d="M19,-41 L19,-42 L23,-44" fill="pink" fill-opacity="1" stroke="black" />
<path d="M18,36 L19,41 L19,42" fill="brown" fill-opacity="1" stroke="black" />
<path d="M19,41 L19,42 L23,44" fill="orange" fill-opacity="1" stroke="black" />
<path d="M18,64 L19,59 L19,58" fill="brown" fill-opacity="1" stroke="black" />
<path d="M19,59 L19,58 L23,56" fill="green" fill-opacity="1" stroke="black" />
<path d="M18,-64 L19,-59 L19,-58" fill="black" fill-opacity="1" stroke="black" />
<path d="M19,-59 L19,-58 L23,-56" fill="pink" fill-opacity="1" stroke="black" />
<path d="M50,-50 L39,-49 L0,-5" fill="purple" fill-opacity="1" stroke="black" />
<path d="M50,50 L39,49 L0,5" fill="blue" fill-opacity="1" stroke="black" />
<path d="M50,50 L39,51 L0,95" fill="purple" fill-opacity="1" stroke="black" />
<path d="M50,-50 L39,-51 L0,-95" fill="brown" fill-opacity="1" stroke="black" />
<path d="M0,95 L-1,84 L-1,79" fill="yellow" fill-opacity="1" stroke="black" />
<path d="M-1,84 L-1,79 L-2,78" fill="red" fill-opacity="1" stroke="black" />
<path d="M0,-5 L-1,-16 L-1,-21" fill="orange" fill-opacity="1" stroke="black" />
<path d="M-1,-16 L-1,-21 L-2,-22" fill="purple" fill-opacity="1" stroke="black" />
<path d="M0,5 L-1,16 L-1,21" fill="orange" fill-opacity="1" stroke="black" />
<path d="M-1,16 L-1,21 L-2,22" fill="brown" fill-opacity="1" stroke="black" />
<path d="M0,-95 L-1,-84 L-1,-79" fill="black" fill-opacity="1" stroke="black" />
<path d="M-1,-84 L-1,-79 L-2,-78" fill="black" fill-opacity="1" stroke="black" />
<path d="M-1,79 L-2,78 L-3,77" fill="blue" fill-opacity="1" stroke="black" />
<path d="M-1,-21 L-2,-22 L-3,-23" fill="yellow" fill-opacity="1" stroke="black" />
<path d="M-1,21 L-2,22 L-3,23" fill="red" fill-opacity="1" stroke="black" />
<path d="M-1,-79 L-2,-78 L-3,-77" fill="green" fill-opacity="1" stroke="black" />
<path d="M-2,78 L-3,77 L-7,77" fill="pink" fill-opacity="1" stroke="black" />
<path d="M-2,-22 L-3,-23 L-7,-23" fill="brown" fill-opacity="1" stroke="black" />
<path d="M-2,22 L-3,23 L-7,23" fill="green" fill-opacity="1" stroke="black" />
<path d="M-2,-78 L-3,-77 L-7,-77" fill="black" fill-opacity="1" stroke="black" />
<path d="M-3,77 L-7,77 L-9,77" fill="black" fill-opacity="1" stroke="black" />
<path d="M-3,-23 L-7,-23 L-9,-23" fill="red" fill-opacity="1" stroke="black" />
<path d="M-3,23 L-7,23 L-9,23" fill="purple" fill-opacity="1" stroke="black" />
<path d="M-3,-77 L-7,-77 L-9,-77" fill="blue" fill-opacity="1" stroke="black" />
<path d="M-7,77 L-9,77 L0,50" fill="brown" fill-opacity="1" stroke="black" />
<path d="M-7,-23 L-9,-23 L0,-50" fill="black" fill-opacity="1" stroke="black" />
<path d="M-7,23 L-9,23 L0,50" fill="black" fill-opacity="1" stroke="black" />
<path d="M-7,-77 L-9,-77 L0,-50" fill="pink" fill-opacity="1" stroke="black" />
<path d="M0,50 L-10,75 L-11,73" fill="yellow" fill-opacity="1" stroke="black" />
<path d="M0,-50 L-10,-25 L-11,-27" fill="brown" fill-opacity="1" stroke="black" />
<path d="M0,50 L-10,25 L-11,27" fill="black" fill-opacity="1" stroke="black" />
<path d="M0,-50 L-10,-75 L-11,-73" fill="pink" fill-opacity="1" stroke="black" />
<path d="M-10,75 L-11,73 L-14,71" fill="blue" fill-opacity="1" stroke="black" />
<path d="M-10,-25 L-11,-27 L-14,-29" fill="orange" fill-opacity="1" stroke="black" />
<path d="M-10,25 L-11,27 L-14,29" fill="purple" fill-opacity="1" stroke="black" />
<path d="M-10,-75 L-11,-73 L-14,-71" fill="black" fill-opacity="1" stroke="black" />
<path d="M-16,68 L-17,68 L-18,64" fill="black" fill-opacity="1" stroke="black" />
<path d="M-16,-32 L-17,-32 L-18,-36" fill="yellow" fill-opacity="1" stroke="black" />
<path d="M-16,32 L-17,32 L-18,36" fill="blue" fill-opacity="1" stroke="black" />
<path d="M-16,-68 L-17,-68 L-18,-64" fill="brown" fill-opacity="1" stroke="black" />
<path d="M-17,68 L-18,64 L-19,59" fill="purple" fill-opacity="1" stroke="black" />
<path d="M-17,-32 L-18,-36 L-19,-41" fill="orange" fill-opacity="1" stroke="black" />
<path d="M-17,32 L-18,36 L-19,41" fill="red" fill-opacity="1" stroke="black" />
<path d="M-17,-68 L-18,-64 L-19,-59" fill="blue" fill-opacity="1" stroke="black" />
<path d="M-18,64 L-19,59 L-19,58" fill="yellow" fill-opacity="1" stroke="black" />
<path d="M-19,59 L-19,58 L-23,56" fill="purple" fill-opacity="1" stroke="black" />
<path d="M-18,-36 L-19,-41 L-19,-42" fill="yellow" fill-opacity="1" stroke="black" />
<path d="M-19,-41 L-19,-42 L-23,-44" fill="green" fill-opacity="1" stroke="black" />
<path d="M-18,36 L-19,41 L-19,42" fill="orange" fill-opacity="1" stroke="black" />
<path d="M-19,41 L-19,42 L-23,44" fill="black" fill-opacity="1" stroke="black" />
<path d="M-18,-64 L-19,-59 L-19,-58" fill="red" fill-opacity="1" stroke="black" />
<path d="M-19,-59 L-19,-58 L-23,-56" fill="black" fill-opacity="1" stroke="black" />
<path d="M-50,50 L-39,51 L0,95" fill="red" fill-opacity="1" stroke="black" />
<path d="M-50,-50 L-39,-49 L0,-5" fill="yellow" fill-opacity="1" stroke="black" />
<path d="M-50,50 L-39,49 L0,5" fill="orange" fill-opacity="1" stroke="black" />
<path d="M-50,-50 L-39,-51 L0,-95" fill="pink" fill-opacity="1" stroke="black" />
<path d="M-95,0 L-84,-1 L-79,-1" fill="brown" fill-opacity="1" stroke="black" />
<path d="M-95,0 L-84,1 L-79,1" fill="yellow" fill-opacity="1" stroke="black" />
<path d="M-84,-1 L-79,-1 L-78,-2" fill="blue" fill-opacity="1" stroke="black" />
<path d="M-84,1 L-79,1 L-78,2" fill="red" fill-opacity="1" stroke="black" />
<path d="M-79,-1 L-78,-2 L-77,-3" fill="black" fill-opacity="1" stroke="black" />
<path d="M-79,1 L-78,2 L-77,3" fill="blue" fill-opacity="1" stroke="black" />
<path d="M-78,-2 L-77,-3 L-77,-7" fill="blue" fill-opacity="1" stroke="black" />
<path d="M-77,-3 L-77,-7 L-77,-9" fill="brown" fill-opacity="1" stroke="black" />
<path d="M-77,-7 L-77,-9 L-50,0" fill="brown" fill-opacity="1" stroke="black" />
<path d="M-78,2 L-77,3 L-77,7" fill="brown" fill-opacity="1" stroke="black" />
<path d="M-77,3 L-77,7 L-77,9" fill="brown" fill-opacity="1" stroke="black" />
<path d="M-77,7 L-77,9 L-50,0" fill="orange" fill-opacity="1" stroke="black" />
<path d="M-50,0 L-75,-10 L-73,-11" fill="green" fill-opacity="1" stroke="black" />
<path d="M-50,0 L-75,10 L-73,11" fill="purple" fill-opacity="1" stroke="black" />
<path d="M-75,-10 L-73,-11 L-71,-14" fill="orange" fill-opacity="1" stroke="black" />
<path d="M-75,10 L-73,11 L-71,14" fill="black" fill-opacity="1" stroke="black" />
<path d="M-71,-14 L-68,-16 L-68,-17" fill="black" fill-opacity="1" stroke="black" />
<path d="M-68,-16 L-68,-17 L-64,-18" fill="orange" fill-opacity="1" stroke="black" />
<path d="M-71,14 L-68,16 L-68,17" fill="brown" fill-opacity="1" stroke="black" />
<path d="M-68,16 L-68,17 L-64,18" fill="orange" fill-opacity="1" stroke="black" />
<path d="M-68,-17 L-64,-18 L-59,-19" fill="orange" fill-opacity="1" stroke="black" />
<path d="M-68,17 L-64,18 L-59,19" fill="blue" fill-opacity="1" stroke="black" />
<path d="M-64,-18 L-59,-19 L-58,-19" fill="blue" fill-opacity="1" stroke="black" />
<path d="M-64,18 L-59,19 L-58,19" fill="pink" fill-opacity="1" stroke="black" />
<path d="M-59,-19 L-58,-19 L-56,-23" fill="black" fill-opacity="1" stroke="black" />
<path d="M-59,19 L-58,19 L-56,23" fill="purple" fill-opacity="1" stroke="black" />
<path d="M-58,-19 L-56,-23 L-56,-29" fill="yellow" fill-opacity="1" stroke="black" />
<path d="M-56,-23 L-56,-29 L-53,-29" fill="brown" fill-opacity="1" stroke="black" />
<path d="M-58,19 L-56,23 L-56,29" fill="purple" fill-opacity="1" stroke="black" />
<path d="M-56,23 L-56,29 L-53,29" fill="red" fill-opacity="1" stroke="black" />
<path d="M-56,-29 L-53,-29 L-50,-50" fill="brown" fill-opacity="1" stroke="black" />
<path d="M-56,29 L-53,29 L-50,50" fill="orange" fill-opacity="1" stroke="black" />
<path d="M-50,-50 L-51,-39 L-95,0" fill="red" fill-opacity="1" stroke="black" />
<path d="M-50,50 L-51,39 L-95,0" fill="pink" fill-opacity="1" stroke="black" />
<path d="M-100,100 L-100,-100" stroke="grey" stroke-width="0.3" fill="none" />
<path d="M-100,100 L100,100" stroke="grey" stroke-width="0.3" fill="none" />
<path d="M-90,100 L-90,-100" stroke="grey" stroke-width="0.3" fill="none" />
<path d="M-100,90 L100,90" stroke="grey" stroke-width="0.3" fill="none" />
<path d="M-80,100 L-80,-100" stroke="grey" stroke-width="0.3" fill="none" />
<path d="M-100,80 L100,80" stroke="grey" stroke-width="0.3" fill="none" />
<path d="M-70,100 L-70,-100" stroke="grey" stroke-width="0.3" fill="none" />
<path d="M-100,70 L100,70" stroke="grey" stroke-width="0.3" fill="none" />
<path d="M-60,100 L-60,-100" stroke="grey" stroke-width="0.3" fill="none" />
<path d="M-100,60 L100,60" stroke="grey" stroke-width="0.3" fill="none" />
<path d="M-50,100 L-50,-100" stroke="grey" stroke-width="0.3" fill="none" />
<path d="M-100,50 L100,50" stroke="grey" stroke-width="0.3" fill="none" />
<path d="M-40,100 L-40,-100" stroke="grey" stroke-width="0.3" fill="none" />
<path d="M-100,40 L100,40" stroke="grey" stroke-width="0.3" fill="none" />
<path d="M-30,100 L-30,-100" stroke="grey" stroke-width="0.3" fill="none" />
<path d="M-100,30 L100,30" stroke="grey" stroke-width="0.3" fill="none" />
<path d="M-20,100 L-20,-100" stroke="grey" stroke-width="0.3" fill="none" />
<path d="M-100,20 L100,20" stroke="grey" stroke-width="0.3" fill="none" />
<path d="M-10,100 L-10,-100" stroke="grey" stroke-width="0.3" fill="none" />
<path d="M-100,10 L100,10" stroke="grey" stroke-width="0.3" fill="none" />
<path d="M0,100 L0,-100" stroke="grey" stroke-width="0.3" fill="none" />
<path d="M-100,0 L100,0" stroke="grey" stroke-width="0.3" fill="none" />
<path d="M10,100 L10,-100" stroke="grey" stroke-width="0.3" fill="none" />
<path d="M-100,-10 L100,-10" stroke="grey" stroke-width="0.3" fill="none" />
<path d="M20,100 L20,-100" stroke="grey" stroke-width="0.3" fill="none" />
<path d="M-100,-20 L100,-20" stroke="grey" stroke-width="0.3" fill="none" />
<path d="M30,100 L30,-100" stroke="grey" stroke-width="0.3" fill="none" />
<path d="M-100,-30 L100,-30" stroke="grey" stroke-width="0.3" fill="none" />
<path d="M40,100 L40,-100" stroke="grey" stroke-width="0.3" fill="none" />
<path d="M-100,-40 L100,-40" stroke="grey" stroke-width="0.3" fill="none" />
<path d="M50,100 L50,-100" stroke="grey" stroke-width="0.3" fill="none" />
<path d="M-100,-50 L100,-50" stroke="grey" stroke-width="0.3" fill="none" />
<path d="M60,100 L60,-100" stroke="grey" stroke-width="0.3" fill="none" />
<path d="M-100,-60 L100,-60" stroke="grey" stroke-width="0.3" fill="none" />
<path d="M70,100 L70,-100" stroke="grey" stroke-width="0.3" fill="none" />
<path d="M-100,-70 L100,-70" stroke="grey" stroke-width="0.3" fill="none" />
<path d="M80,100 L80,-100" stroke="grey" stroke-width="0.3" fill="none" />
<path d="M-100,-80 L100,-80" stroke="grey" stroke-width="0.3" fill="none" />
<path d="M90,100 L90,-100" stroke="grey" stroke-width="0.3" fill="none" />
<path d="M-100,-90 L100,-90" stroke="grey" stroke-width="0.3" fill="none" />
<path d="M100,100 L100,-100" stroke="grey" stroke-width="0.3" fill="none" />
<path d="M-100,-100 L100,-100" stroke="grey" stroke-width="0.3" fill="none" />
<path d="M-100,0 L100,0" stroke="black" stroke-width="1" fill="none" />
<path d="M0,100 L0,-100" stroke="black" stroke-width="1" fill="none" />
</svg>