<?xml version="1.0" encoding="UTF-8"?>
<svg xmlns="http://www.w3.org/2000/svg" xmlns:xlink="http://www.w3.org/1999/xlink"
     width="250" height="250" viewBox="-125.0 -125.0 250 250">
<defs>
</defs>
<path d="M0.0,-0.0 l5.0,-0.0 l5.276456636197883,-1.0792568121844432 l2.7235433638021167,1.0792568121844432 l3.9791133343335687,-1.087895696420993 l0.02088666566643127,1.087895696420993 l0.22787945368316542,-2.1177884619658025 l2.220446865580996,-0.7549687216434009 l1.0247256929602884,-1.2962622975807276 l1.6737417550518252,-1.6005632464225013 l1.8532062327237249,5.769582727612432 l0.008566897521614436,-6.618088191536973 l0.882346916584126,-0.21470983248225028 l2.1090861858942596,6.832798024019223 l4.0,-0.0 l2.0,-0.0 l2.433814358401854,-14.312272338879211 l14.566185641598146,14.312272338879211 l0.0,-1.0 l0.0,-6.0 l0.0,-5.0 l0.0,-4.0 l-9.78115112385239,-3.648917250840455 l7.960646806223515,-0.34365934143737675 l1.820504317628874,-0.007423407722168207 l0.0,-4.0 l-0.21147609324489736,-10.913695509787559 l0.21147609324489736,-8.086304490212441 l0.0,-7.0 l-2.0,2.0 l-8.0,8.0 l-12.0,12.0 l-3.0,3.0 l-1.0,1.0 l-16.732927998719568,23.696832103332156 l-1.9053570769716872,0.012303836503337051 l-3.361714924308747,-1.7091359398354942 l-0.30108593517235516,1.8174754150127352 l-0.6989140648276448,-0.8174754150127352 l-0.09565053028588366,0.8534087279178202 Z" stroke-width="1" stroke="grey" fill="brown" fill-opacity="0" />
</svg>