<?xml version="1.0" encoding="UTF-8"?>
<svg xmlns="http://www.w3.org/2000/svg" xmlns:xlink="http://www.w3.org/1999/xlink"
     width="250" height="250" viewBox="-125.0 -125.0 250 250">
<defs>
</defs>
<path d="M0.0,-0.0 l4.0,-0.0 l3.0,-0.0 l1.0,-0.0 l2.2824917611121,-1.6921125560534156 l2.7175082388879,1.6921125560534156 l3.0,-0.0 l1.0,-0.0 l6.312084158706373,-3.6203647973275075 l1.818147727474372,-1.6608007450390758 l2.622101692596054,-12.735635394901106 l0.24766642122320093,18.01680093726769 l20.0,-0.0 l2.0,-9.0 l0.0,-6.0 l0.0,-4.0 l-13.899979855901186,-1.693265784212521 l13.899979855901186,-5.306734215787479 l0.0,-4.0 l0.0,-5.0 l0.0,-10.0 l0.0,-4.0 l0.0,-1.0 l-1.0,1.0 l-7.0,7.0 l-1.0,1.0 l-1.0,1.0 l-4.0,4.0 l-3.0,3.0 l-5.0,5.0 l-12.0,12.0 l-15.402347467256657,15.94111924228397 Z" stroke-width="1" stroke="grey" fill="red" fill-opacity="0" />
</svg>