<?xml version="1.0" encoding="UTF-8"?>
<svg xmlns="http://www.w3.org/2000/svg" xmlns:xlink="http://www.w3.org/1999/xlink"
     width="250" height="250" viewBox="-125.0 -125.0 250 250">
<defs>
</defs>
<path d="M0.0,-0.0 l2.0,-0.0 l5.0,-0.0 l12.0,-0.0 l3.411979180034809,-9.47345850154891 l4.752210309433675,-0.8695917787873935 l3.4570660976554954,-0.7392039382877904 l2.255623478909005,-1.8618432713119528 l1.1231209339670158,12.944097489936047 l7.0,-0.0 l9.0,-0.0 l0.0,-1.0 l0.0,-1.0 l0.0,-3.0 l0.0,-10.0 l-12.63545905997379,-1.1240400149792222 l0.15344304203041048,-2.2378599933170094 l5.193932096271489,-8.447692778731376 l7.288083921671891,-23.190407212972392 l-1.0,1.0 l-5.0,5.0 l-0.3433857317709581,6.861915312731021 l-0.698998586859382,0.44005843037403736 l-26.546519526809348,27.285120247380526 l-2.0135234447962063,0.4610404848262384 l-2.615736034649103,0.8143291983623531 l-0.2264051898440247,0.6128392767297406 l-0.8962409512764449,3.1424509201595994 l-1.1725555679380832,1.723141994979383 l-0.4866349660564495,-6.3408958655428975 l-1.4966194266659816,8.705307708688018 l-0.5033805733340184,-6.705307708688018 l-5.712710708875267,6.903729360889767 l-0.28728929112473245,-0.9037293608897672 Z" stroke-width="1" stroke="grey" fill="black" fill-opacity="0" />
</svg>