<?xml version="1.0" encoding="UTF-8"?>
<svg xmlns="http://www.w3.org/2000/svg" xmlns:xlink="http://www.w3.org/1999/xlink"
     width="250" height="250" viewBox="-125.0 -125.0 250 250">
<defs>
</defs>
<path d="M0.0,-0.0 l13.444421154649989,-3.2083750194438245 l0.028223198738434263,-1.6090406901620025 l4.527355646611577,4.817415709605827 l1.0,-0.0 l2.0,-0.0 l2.0,-0.0 l1.0,-0.0 l0.6404458336501655,-8.140340674546872 l6.26183252145016,-0.9467198745984149 l1.2063222144964278,-0.57874781660251 l2.012636943610012,-2.844941469865031 l3.878762486793235,12.510749835612827 l12.0,-0.0 l0.0,-0.0 l0.0,-4.0 l-12.34162910392925,-12.687334620283174 l0.3851778117358151,-10.932130754685538 l11.956451292193435,-0.380534625031288 l0.0,-3.0 l-5.72752275217637,-4.830571544750519 l3.0356363656834873,-0.3689394545122866 l2.6918863864928824,-10.800489000737194 l0.0,-2.0 l-2.0,1.0 l-4.0,4.0 l-16.0,16.0 l-3.0,3.0 l-15.0,15.0 l-1.0,1.0 l-4.043617411616527,8.046544133460795 l-2.9662461130074367,0.10238459296576308 Z" stroke-width="1" stroke="grey" fill="red" fill-opacity="0" />
</svg>