<?xml version="1.0" encoding="UTF-8"?>
<svg xmlns="http://www.w3.org/2000/svg" xmlns:xlink="http://www.w3.org/1999/xlink"
     width="250" height="250" viewBox="-125.0 -125.0 250 250">
<defs>
</defs>
<path d="M0.0,-0.0 l1.0,-0.0 l2.0,-0.0 l5.0,-0.0 l12.409328786830343,-4.789208979727802 l2.6905162845521033,-3.8372736215419776 l2.7542473652407793,-0.19653024882682324 l0.3357059395762221,-8.65358312748507 l14.810201623800552,17.476595977581674 l3.0,-0.0 l6.0,-8.0 l0.0,-7.0 l-18.436099369864568,-5.400115330809815 l18.436099369864568,-0.5998846691901853 l-10.183440628847848,-5.704582837556156 l1.8896725970898274,-2.4891653678732197 l6.283336194268067,-2.5354800842602394 l2.0104318374899535,-0.2707717103103846 l-0.5703799863755208,-0.0634946425052334 l0.5703799863755208,-10.936505357494767 l-0.3685454326363242,-2.3269881465780315 l-6.631454567363676,2.3269881465780315 l-7.0,7.0 l-2.0,2.0 l-1.2192891022953205,8.933680485095383 l-18.78071089770468,11.066319514904617 l-1.0,1.0 l-3.596696795415985,9.325094180146795 l-2.882510617878528,1.3256876560269526 l-1.5502982548639297,0.6655402105847259 l-0.08272521367743746,0.2264875117556444 l-0.036070988041435825,0.4983189961988015 l-1.0815748028645435,0.28237216674384624 l-2.5938918080534004,0.37231068158643427 l-0.1626952869812126,0.07635596090336677 Z" stroke-width="1" stroke="grey" fill="pink" fill-opacity="0" />
</svg>