<?xml version="1.0" encoding="UTF-8"?>
<svg xmlns="http://www.w3.org/2000/svg" xmlns:xlink="http://www.w3.org/1999/xlink"
     width="250" height="250" viewBox="-125.0 -125.0 250 250">
<defs>
</defs>
<path d="M0.0,-0.0 l12.0,-0.0 l2.0,-0.0 l0.9119558704310364,-1.4720168792983934 l2.746422343277146,-1.8327159294637505 l1.6365266167071795,-1.09051865857991 l0.6550702892487053,-2.589567119034836 l0.11535293590936035,-2.3384763856099697 l2.3863408992568615,-1.259279573503953 l3.5483310451697108,10.582574545490813 l2.0,-0.0 l2.120119790060407,-10.602192985812147 l19.879880209939593,10.602192985812147 l0.0,-6.0 l-17.01727973377502,-12.854483775463628 l0.4000985865354991,-2.647430472157062 l2.8694705854924436,-0.19437930763618283 l13.747710561747077,-1.3037064447431277 l-5.1494404234299935,-1.0921856969879435 l0.8861271764126712,-7.683520277446998 l1.2193771412120142,-1.2325873847355098 l3.043936105805308,-12.991706640829548 l0.0,-3.0 l-1.0,-0.0 l-3.0,3.0 l-4.0,4.0 l-25.0,25.0 l-13.263633962519169,15.677379628236059 l-3.5927608477207333,1.2801488070579865 Z" stroke-width="1" stroke="grey" fill="green" fill-opacity="0" />
</svg>