<?xml version="1.0" encoding="UTF-8"?>
<svg xmlns="http://www.w3.org/2000/svg" xmlns:xlink="http://www.w3.org/1999/xlink"
     width="250" height="250" viewBox="-125.0 -125.0 250 250">
<defs>
</defs>
<path d="M0.0,-0.0 l0.0,-0.0 l4.0,-0.0 l8.215232669804566,-3.0190786338866396 l3.153453377426912,-4.276729564069346 l5.120283078338083,-1.3859156965842407 l0.13740446153823882,-0.8473250387138513 l0.3518685804637194,-0.3917825996959756 l0.7767233282251098,-1.8878385220943414 l2.463966243916314,-2.860359078113829 l11.781068260287057,14.669029133158224 l14.0,-0.0 l0.0,-3.0 l-13.535521221828766,-12.209510377671576 l1.082491982640363,-1.9621297997874496 l2.349186146688041,-1.908615051357014 l10.103843092500362,-0.9197447711839608 l-9.0847596674786,-0.9602395400226698 l4.1594323697050655,-8.515341744683752 l4.601423204579895,-3.1037675561585374 l0.3239040931936401,-2.4206511591350406 l0.0,-15.0 l-2.0,2.0 l-14.0,14.0 l-5.0,5.0 l-22.377782036344705,26.692947246822314 l-0.6776576063584123,0.9586249544089138 l-1.4171742511912768,0.1894019469368986 l-1.190970962400201,0.5196214500263016 Z" stroke-width="1" stroke="grey" fill="pink" fill-opacity="0" />
</svg>