<?xml version="1.0" encoding="UTF-8"?>
<svg xmlns="http://www.w3.org/2000/svg" xmlns:xlink="http://www.w3.org/1999/xlink"
     width="250" height="250" viewBox="-125.0 -125.0 250 250">
<defs>
</defs>
<path d="M0.0,-0.0 l16.791755357812022,-6.491082103963352 l2.780458076186264,-1.55717523315972 l0.45310889444055746,-0.03228942419101166 l2.9746776715611567,8.080546761314084 l0.5045541703563181,-11.250175687538857 l0.4954458296436819,11.250175687538857 l2.906921614298458,-12.126145304644867 l6.093078385701542,12.126145304644867 l1.0,-0.0 l8.0,-0.0 l7.0,-0.0 l1.0,-0.0 l0.0,-0.0 l0.0,-4.0 l-11.863725249437614,-11.716152137216133 l6.21107876367541,-0.7671857671328812 l4.366984196317475,-6.845829581344599 l1.2856622894447298,-1.6708325143063867 l0.0,-8.0 l0.0,-1.0 l0.0,-2.0 l0.0,-1.0 l0.0,-2.0 l-16.0,5.0 l-2.0,2.0 l-13.0,13.0 l-2.0,2.0 l-1.0,1.0 l-2.0,2.0 l-3.9366591540604396,8.598724641900201 l-1.9180977864611037,3.3442941536127146 l-0.8106734599171812,0.7485473187593108 l-0.3345695995612754,-5.691566114272225 l-2.2804575998743024,6.166287315189158 l-4.531484974618927,0.8146928172014987 Z" stroke-width="1" stroke="grey" fill="black" fill-opacity="0" />
</svg>