<?xml version="1.0" encoding="UTF-8"?>
<svg xmlns="http://www.w3.org/2000/svg" xmlns:xlink="http://www.w3.org/1999/xlink"
     width="250" height="250" viewBox="-125.0 -125.0 250 250">
<defs>
</defs>
<path d="M0.0,-0.0 l12.799520826260368,-2.687346275741481 l1.200479173739632,2.687346275741481 l1.2327939696420938,-3.944146002815746 l2.0146098796666347,-0.4011738616331906 l1.6036920876502414,-0.5540465001532864 l0.5743483148586606,-2.014150134938822 l4.158247021504867,-0.11954841432943475 l1.1535479119732344,-0.6441907588246014 l0.6579098938874317,-3.7942531365730883 l0.4287026171499164,-5.425539060428317 l3.1761483036669205,16.897047869696486 l0.014203882164519399,-19.469728006347864 l3.9857961178354806,19.469728006347864 l12.0,-0.0 l5.0,-0.0 l0.0,-4.0 l-14.204251007577739,-15.847434254975887 l0.012404574681440295,-0.7941036604420546 l1.3905358852471394,-0.2792399422410021 l3.4070570466116123,-2.6787117622032 l1.4744913915690816,-3.871832318270954 l7.919762109468465,-1.528678061866902 l0.0,-8.0 l0.0,-12.0 l0.0,-1.0 l-1.6257886258319019,3.563021095916916 l-8.374211374168098,6.436978904083084 l-4.0,4.0 l-28.633533965614866,33.57333567297098 l-0.3664660343851329,-4.573335672970979 l-1.1968425815543071,5.244720385469892 l-3.5421173458167923,1.210180190104471 Z" stroke-width="1" stroke="grey" fill="brown" fill-opacity="0" />
</svg>