<?xml version="1.0" encoding="UTF-8"?>
<svg xmlns="http://www.w3.org/2000/svg" xmlns:xlink="http://www.w3.org/1999/xlink"
     width="250" height="250" viewBox="-125.0 -125.0 250 250">
<defs>
</defs>
<path d="M0.0,-0.0 l1.0,-0.0 l5.0,-0.0 l4.0,-0.0 l11.369659293478971,-2.9673617836108805 l1.3063883794795537,-4.996235532945781 l7.323952327041475,7.963597316556662 l3.3124302949741633,-14.51635355911048 l3.6875697050258367,14.51635355911048 l4.0,-0.0 l1.0,-0.0 l1.0,-0.0 l7.0,-0.0 l0.0,-0.0 l0.0,-5.0 l0.0,-9.0 l-1.6568807729904833,-10.415333663208415 l1.6568807729904833,-6.584666336791585 l0.0,-4.0 l0.0,-2.0 l0.0,-1.0 l0.0,-4.0 l0.0,-8.0 l-3.0,3.0 l-4.0,4.0 l-8.0,8.0 l-1.0,1.0 l-19.0,19.0 l-6.0,6.0 l-1.9139637810185715,7.9232462035168165 l-2.0860362189814285,-3.9232462035168165 l-1.0,1.0 l-1.2278163338500256,3.7395949487543465 l-2.3908907145484273,0.17814637742823763 Z" stroke-width="1" stroke="grey" fill="green" fill-opacity="0" />
</svg>