<?xml version="1.0" encoding="UTF-8"?>
<svg xmlns="http://www.w3.org/2000/svg" xmlns:xlink="http://www.w3.org/1999/xlink"
     width="250" height="250" viewBox="-125.0 -125.0 250 250">
<defs>
</defs>
<path d="M0.0,-0.0 l12.0,-0.0 l0.0,-0.0 l1.249374882401849,-4.86843269298599 l8.193349729011572,-1.3119792607414924 l0.5572753885865787,6.180411953727482 l5.0,-0.0 l9.0,-0.0 l1.0,-0.0 l1.0,-0.0 l4.0,-0.0 l8.0,-4.0 l0.0,-0.0 l0.0,-2.0 l0.0,-3.0 l0.0,-19.0 l0.0,-6.0 l0.0,-11.0 l0.0,-5.0 l0.0,-0.0 l-2.0,2.0 l-2.392561096409615,6.806984776890978 l-10.607438903590385,6.193015223109022 l-2.0,2.0 l-1.0,1.0 l-12.0,12.0 l-2.0,2.0 l-10.963991407041597,13.309624676631028 l-4.036008592958403,1.6903753233689711 l-1.087515624896826,1.7725985930686154 Z" stroke-width="1" stroke="grey" fill="green" fill-opacity="0" />
</svg>