<?xml version="1.0" encoding="UTF-8"?>
<svg xmlns="http://www.w3.org/2000/svg" xmlns:xlink="http://www.w3.org/1999/xlink"
     width="250" height="250" viewBox="-125.0 -125.0 250 250">
<defs>
</defs>
<path d="M0.0,-0.0 l6.0,-0.0 l4.6347517938711835,-2.0090525386342235 l6.3652482061288165,2.0090525386342235 l0.967502749877049,-2.251495841727371 l0.032497250122951016,2.251495841727371 l3.0,-0.0 l1.4527144024849008,-2.347636518245065 l3.547285597515099,2.347636518245065 l0.8421090252894103,-2.9121779631010662 l4.15789097471059,2.9121779631010662 l2.1292369471807007,-4.64304028628129 l0.8389077326430154,-0.946757058549875 l3.3827964434708235,-3.949873287536146 l5.64905887670546,9.539670632367311 l7.0,-4.0 l0.0,-6.0 l-7.9677102410433065,-8.615420819382116 l7.9677102410433065,-1.3845791806178838 l0.0,-1.0 l0.0,-4.0 l-6.812499836236469,-0.45541756151934365 l2.4040061673084168,-1.8473238799097587 l0.9574320528516793,-4.488735592473002 l0.6501949141519532,-0.1523814722810819 l2.80086670192442,-1.0561414938168134 l-0.18687051261117205,-1.6763670606160233 l0.18687051261117205,-13.323632939383977 l0.0,-2.0 l-23.0,23.0 l-6.0,6.0 l0.0,-0.0 l-1.0,1.0 l-11.0,11.0 l-1.2179325097448324,7.007960781404324 l-2.610739969963138,0.2644937063923991 l-0.011113135274054997,0.6185245229346326 l-0.6112645693028105,0.4088194846168791 l-3.668114470733219,0.2841042229333118 l-0.670516483609318,0.2641236746444416 l-0.210318861372627,0.15197360707401175 Z" stroke-width="1" stroke="grey" fill="green" fill-opacity="0" />
</svg>