<?xml version="1.0" encoding="UTF-8"?>
<svg xmlns="http://www.w3.org/2000/svg" xmlns:xlink="http://www.w3.org/1999/xlink"
     width="250" height="250" viewBox="-125.0 -125.0 250 250">
<defs>
</defs>
<path d="M0.0,-0.0 l12.787012884712606,-3.252182544487864 l1.212987115287394,3.252182544487864 l0.7998950954591102,-4.84042697838531 l0.459773912839875,-1.4300522077256836 l0.9515988878697321,-0.5191112212172921 l1.7887321038312827,6.789590407328286 l2.2285833814435776,-6.967671404817495 l3.3810713025113834,-1.595277395343639 l2.349910255907492,-0.0006711805129739901 l0.7037797016360017,-5.648897010606444 l4.336655358501545,14.212516991280552 l3.0,-0.0 l16.0,-0.0 l0.0,-1.0 l0.0,-9.0 l-7.143488516946121,-13.100164793309208 l7.143488516946121,-2.899835206690792 l-5.555659269065956,-4.197126691731281 l5.555659269065956,-8.802873308268719 l0.0,-11.0 l-21.91747430945808,29.010952048729255 l-1.082525690541921,-6.010952048729255 l-4.0,4.0 l-2.0,2.0 l-1.0,1.0 l-10.831737461846057,18.216522887253312 l-2.919934709633237,0.05953162180328553 l-3.707039240159771,1.71932933400461 Z" stroke-width="1" stroke="grey" fill="green" fill-opacity="0" />
</svg>