<?xml version="1.0" encoding="UTF-8"?>
<svg xmlns="http://www.w3.org/2000/svg" xmlns:xlink="http://www.w3.org/1999/xlink"
     width="250" height="250" viewBox="-125.0 -125.0 250 250">
<defs>
</defs>
<path d="M0.0,-0.0 l8.0,-0.0 l5.0,-0.0 l1.0,-0.0 l3.4150226584670946,-4.97958727544702 l0.9108905656809227,-0.3832808487027686 l11.463276623409453,-9.88197818478243 l3.21081015244253,15.244846308932217 l6.0,-0.0 l2.0,-0.0 l9.0,-8.0 l0.0,-0.0 l-15.96558116185188,-11.130583234167567 l11.424617283609948,-1.0015308595957428 l0.1172244708045369,-0.21611276825838033 l4.423739407437395,-7.65177313797831 l-1.2203234949350161,-0.11934158186234001 l1.2203234949350161,-5.88065841813766 l0.0,-5.0 l0.0,-2.0 l0.0,-9.0 l-9.0,9.0 l-2.0,2.0 l-6.0,6.0 l-9.0,9.0 l-2.6529517476607865,9.536464868402057 l-14.389613144418012,9.63473073501407 l-0.3626671495358398,1.480230074977794 l-1.1292097470714584,0.3334829594911666 l-2.465558211313903,0.015091362114912688 Z" stroke-width="1" stroke="grey" fill="yellow" fill-opacity="0" />
</svg>