<?xml version="1.0" encoding="UTF-8"?>
<svg xmlns="http://www.w3.org/2000/svg" xmlns:xlink="http://www.w3.org/1999/xlink"
     width="250" height="250" viewBox="-125.0 -125.0 250 250">
<defs>
</defs>
<path d="M0.0,-0.0 l8.0,-0.0 l2.5126609146745924,-2.3821951915092607 l2.660324704658157,-0.31132948695794926 l0.3068720769556954,-0.6503228983836555 l0.07565866221704276,-1.9313546449572851 l6.725389745238514,-3.8275384978739773 l2.0094111828446657,-2.469397572432282 l0.17484647047595558,-0.5509135276533446 l1.534836242935377,12.123051819767754 l2.0,-0.0 l9.0,-0.0 l1.210296728714603,-12.551496406633051 l13.789703271285397,7.551496406633051 l0.0,-2.0 l0.0,-0.0 l0.0,-3.0 l-13.182749703880447,-3.603416130773347 l1.705529117459207,-1.1745421562034615 l0.5334385772956978,-3.6964231926185995 l0.4587908968417267,-2.7752913806370216 l2.000622213949825,-0.35750391557022354 l0.29951520079999483,-4.333666614780821 l0.44050841070319535,-6.286364852786129 l-2.2556547131692,-7.772791756630397 l-6.0,6.0 l-12.0,12.0 l-6.891081665036305,13.47863102711514 l-0.9676922626990478,0.8035073708817917 l-3.1412260722646472,-3.282138397996932 l-2.895511946380509,8.711333530891178 l-4.476506881338749,0.4078631086254212 Z" stroke-width="1" stroke="grey" fill="orange" fill-opacity="0" />
</svg>