<?xml version="1.0" encoding="UTF-8"?>
<svg xmlns="http://www.w3.org/2000/svg" xmlns:xlink="http://www.w3.org/1999/xlink"
     width="250" height="250" viewBox="-125.0 -125.0 250 250">
<defs>
</defs>
<path d="M0.0,-0.0 l1.0,-0.0 l15.18187476722155,-6.630506690647742 l2.6802373695641357,-1.3253085814828562 l3.434224282286369,-2.449994805462566 l1.7036635809279446,10.405810077593165 l5.755475628023092,-10.676540218593761 l2.5942177323988176,-3.0161393109841885 l0.6503066395780905,13.69267952957795 l2.0,-0.0 l14.0,-0.0 l1.0,-0.0 l0.0,-10.0 l0.0,-3.0 l-8.349914014274859,-6.396975301708746 l8.349914014274859,-2.6030246982912537 l-7.616820409610369,-2.581713750296842 l7.616820409610369,-1.4182862497031579 l0.0,-0.0 l-5.615676569271066,-1.064506835867462 l0.5150899271807319,-1.7122229349912033 l3.6574133291283317,-13.762037359963927 l-13.556826687037997,7.538767130822592 l-1.0,1.0 l-7.0,7.0 l-15.093742383904623,21.469038424557958 l-2.0928440690410888,0.460374343840134 l-0.8134135470542887,-3.92941276839809 l0.0,-0.0 l-3.4431986368369785,7.469472464217967 l-4.08956938327471,0.15111640788601832 Z" stroke-width="1" stroke="grey" fill="pink" fill-opacity="0" />
</svg>