<?xml version="1.0" encoding="UTF-8"?>
<svg xmlns="http://www.w3.org/2000/svg" xmlns:xlink="http://www.w3.org/1999/xlink"
     width="250" height="250" viewBox="-125.0 -125.0 250 250">
<defs>
</defs>
<path d="M0.0,-0.0 l4.0,-0.0 l4.0,-0.0 l6.113494489412487,-4.246736646728581 l1.2092513362845043,-0.05919225516310256 l6.5700898468505216,-1.0341842948129267 l1.1071643274524874,5.3401131967046105 l1.4116339576564236,-7.7975915469575305 l1.679923128670687,-0.44056515505826077 l4.908442913672889,8.238156702015791 l3.0,-0.0 l0.0,-0.0 l5.0,-0.0 l5.0,-0.0 l6.0,-0.0 l-10.956594551688298,-11.868952566215151 l10.956594551688298,-0.13104743378484862 l0.0,-1.0 l0.0,-1.0 l0.0,-4.0 l-6.479561969346136,-3.719510641283275 l6.479561969346136,-0.280489358716725 l0.0,-11.0 l0.0,-16.0 l-8.0,7.0 l-3.0,3.0 l-2.0,2.0 l-9.0,9.0 l-5.0,5.0 l-8.0,8.0 l-3.5888601371256126,10.979161465309652 l-5.411139862874387,-1.9791614653096508 l-0.534244697900438,5.277776577689944 l-4.012402159626621,0.2722725279766496 l-1.4533531424729407,0.4499508943334063 Z" stroke-width="1" stroke="grey" fill="red" fill-opacity="0" />
</svg>