<?xml version="1.0" encoding="UTF-8"?>
<svg xmlns="http://www.w3.org/2000/svg" xmlns:xlink="http://www.w3.org/1999/xlink"
     width="250" height="250" viewBox="-125.0 -125.0 250 250">
<defs>
</defs>
<path d="M0.0,-0.0 l12.915197897299585,-3.953334539476979 l4.084802102700415,3.953334539476979 l3.0,-0.0 l0.7175196930638066,-4.000766929485858 l0.2824803069361934,4.000766929485858 l0.20985288229155685,-4.304658185815695 l0.5353779108652326,-1.9530416991097903 l1.3915593030119133,-1.2502850864795798 l2.0005759070169447,-0.4922079272712736 l0.31329597551626875,-0.95746506663974 l2.76209163283481,-10.321502379759854 l0.7872463884632737,19.279160345075933 l3.0,-0.0 l13.0,-0.0 l3.0,-0.0 l2.0,-3.0 l0.0,-6.0 l0.0,-2.0 l0.0,-3.0 l0.0,-1.0 l-13.088696221974146,-7.261837117092149 l2.2454464386587745,-0.7325873458475165 l0.9757440932709756,-2.6244876459909747 l9.867505690044396,-8.38108789106936 l0.0,-16.0 l-4.0,4.0 l-8.0,8.0 l-11.0,11.0 l-5.0,5.0 l-4.0,4.0 l-4.0,4.0 l-4.496484995386069,11.418848226631471 l-1.2476065654890043,0.11778221005439038 l-1.2559084391249264,-4.536630436685861 l-0.20607169421802318,5.052074014799963 l-1.3706589556225115,0.3730348208640337 l-0.5517883040491771,1.2552194551891547 Z" stroke-width="1" stroke="grey" fill="blue" fill-opacity="0" />
</svg>