<?xml version="1.0" encoding="UTF-8"?>
<svg xmlns="http://www.w3.org/2000/svg" xmlns:xlink="http://www.w3.org/1999/xlink"
     width="250" height="250" viewBox="-125.0 -125.0 250 250">
<defs>
</defs>
<path d="M0.0,-0.0 l9.0,-0.0 l0.5388844071805305,-0.9566044189863631 l0.8733388360253294,-0.5574064803404143 l4.643404370685566,-2.035745171130883 l2.0221788311548874,-0.05727354646432792 l5.616914548131074,-0.25704561344135124 l1.3052790068226123,3.8640752303633397 l0.19161158766601716,-5.5879375429697715 l2.2587890653915466,-0.8165922114682767 l3.5495993469424363,6.404529754438048 l1.804784907475053,-6.521367520484595 l2.007423000757285,-0.5445993912527092 l4.888840947846859,-1.6720585361396303 l0.6209770075736003,-0.21112484540666365 l5.677974136347203,8.949150293283598 l1.0,-0.0 l3.0,-0.0 l1.0,-4.0 l-7.93883108120022,-11.504787251550981 l7.93883108120022,-4.495212748449019 l-6.073971572337271,-0.20466295140287016 l6.073971572337271,-1.7953370485971298 l0.0,-2.0 l0.0,-10.0 l-4.8804751274843525,-1.2022072643471233 l2.527095511996869,-1.857779980787278 l2.3533796154874835,-0.9400127548655988 l-0.9710406336818806,-2.20408161480222 l0.9710406336818806,-9.79591838519778 l-0.38094582444612257,1.2875473326688223 l-3.6190541755538774,2.7124526673311777 l-2.0,2.0 l-10.0,10.0 l0.0,-0.0 l-6.0,6.0 l-17.30373556161478,24.522905693964354 l-5.696264438385223,-1.522905693964356 l-3.4281169403871616,4.174996518931463 Z" stroke-width="1" stroke="grey" fill="green" fill-opacity="0" />
</svg>