<?xml version="1.0" encoding="UTF-8"?>
<svg xmlns="http://www.w3.org/2000/svg" xmlns:xlink="http://www.w3.org/1999/xlink"
     width="250" height="250" viewBox="-125.0 -125.0 250 250">
<defs>
</defs>
<path d="M0.0,-0.0 l0.0,-0.0 l3.0,-0.0 l7.0,-0.0 l2.0,-0.0 l4.504268392267484,-3.4082716596026046 l2.6620916849289067,-1.6582563708971128 l0.891938216511587,-0.009213405127367125 l0.3187469241330376,-1.148479453196133 l3.5224133618534665,-0.5435493365587742 l2.237103862692287,-0.18377168161015067 l1.8634375576132314,6.9515419069921425 l0.22666853334931147,-11.718442794411448 l3.1612293660347106,-0.07483717158576297 l11.612102100615978,11.793279965997211 l1.0,-0.0 l5.0,-0.0 l1.0,-0.0 l0.0,-2.0 l0.0,-6.0 l0.0,-2.0 l0.0,-3.0 l-16.155280290388454,-5.2967421093244695 l11.58370706692562,-0.3429508463790576 l1.2387512700884855,-0.9356148398163775 l3.3328219533743493,-0.42469220448009537 l-3.237202420452121,-4.421044934254951 l3.237202420452121,-0.5789550657450491 l0.0,-17.0 l0.0,-2.0 l0.0,-6.0 l-3.0,3.0 l-7.0,7.0 l-6.0,6.0 l0.0,-0.0 l-1.0,1.0 l-2.0,2.0 l-15.0,15.0 l-4.0,4.0 l-2.856175277385537,9.56520144999068 l-1.394437786465014,0.5340577151685462 Z" stroke-width="1" stroke="grey" fill="pink" fill-opacity="0" />
</svg>