<?xml version="1.0" encoding="UTF-8"?>
<svg xmlns="http://www.w3.org/2000/svg" xmlns:xlink="http://www.w3.org/1999/xlink"
     width="250" height="250" viewBox="-125.0 -125.0 250 250">
<defs>
</defs>
<path d="M0.0,-0.0 l10.125100423206867,-1.566818108566028 l3.6162372763054282,-1.983777567198459 l4.06983064303312,-0.4179885049909764 l2.1888316574545854,3.9685841807554634 l3.36373867552717,-4.425320842329014 l0.044980168788242736,-0.9303047096376558 l4.591281155684587,5.35562555196667 l1.0,-0.0 l2.0,-0.0 l0.5386576486742207,-5.561365581950936 l1.4613423513257793,5.561365581950936 l0.2679300456466436,-8.417274357090337 l0.7320699543533564,8.417274357090337 l16.0,-0.0 l0.0,-9.0 l-11.539999729492486,-6.276367025574173 l1.5819446867959144,-5.560340099632077 l2.197866628986773,-0.5133759777765583 l2.081978960947005,-3.154534651708598 l5.678209452762793,-1.495382245308594 l-5.318284472954943,-0.8941763942758243 l5.318284472954943,-0.1058236057241757 l0.0,-4.0 l-4.761726742192472,-0.9199047338287194 l4.761726742192472,-5.080095266171281 l-2.818532591326857,-0.7817461243248331 l1.2489991714142619,-0.5843424971155358 l-6.430466580087405,-3.633911378559631 l-5.0,5.0 l-5.0,5.0 l-3.0,3.0 l-20.0,20.0 l-1.0,1.0 l-5.809537129478169,7.147742014603658 l-1.0975776632008325,0.05075874031767358 l-0.2640637594891748,0.6744787119250045 l-0.6682490068563585,0.04031379231440807 Z" stroke-width="1" stroke="grey" fill="purple" fill-opacity="0" />
</svg>