<?xml version="1.0" encoding="UTF-8"?>
<svg xmlns="http://www.w3.org/2000/svg" xmlns:xlink="http://www.w3.org/1999/xlink"
     width="250" height="250" viewBox="-125.0 -125.0 250 250">
<defs>
</defs>
<path d="M0.0,-0.0 l5.0,-0.0 l10.0,-0.0 l2.0,-0.0 l1.0,-0.0 l2.861202330535697,-8.442001614369858 l11.012682293608101,-0.009586143775106137 l1.1261153758562017,8.451587758144964 l1.0,-0.0 l8.0,-0.0 l2.0,-0.0 l6.0,-2.0 l0.0,-6.0 l0.0,-2.0 l-10.770861736865072,-1.4431493019050095 l2.241738981643337,-0.023466709829952137 l8.529122755221735,-4.533383988265038 l0.0,-1.0 l0.0,-9.0 l0.0,-3.0 l0.0,-14.0 l-2.0,-5.0 l-3.0950137268442504,6.952008052481332 l-6.90498627315575,3.0479919475186676 l-5.0,5.0 l-11.0,11.0 l-1.0,1.0 l-4.987851232336553,12.636077656956063 l-0.804553181534434,0.16208992263490707 l-0.6650530822782823,1.0358190508195833 l-2.899407958395617,3.1119061746122787 l-0.6431345454551138,-6.945892805022832 l-1.0,1.0 l-0.7758250482685725,6.306956166160268 l-0.825413886673946,2.245310659682359 l-5.822217467732367,1.2592106416510231 l-1.5765435973251147,-0.8114774674936502 Z" stroke-width="1" stroke="grey" fill="brown" fill-opacity="0" />
</svg>