<?xml version="1.0" encoding="UTF-8"?>
<svg xmlns="http://www.w3.org/2000/svg" xmlns:xlink="http://www.w3.org/1999/xlink"
     width="250" height="250" viewBox="-125.0 -125.0 250 250">
<defs>
</defs>
<path d="M0.0,-0.0 l0.0,-0.0 l18.0,-0.0 l1.0,-0.0 l3.3499492560909374,-7.816079110171728 l0.6500507439090626,7.816079110171728 l4.0,-0.0 l3.0,-0.0 l20.0,-0.0 l0.0,-0.0 l0.0,-0.0 l0.0,-9.0 l0.0,-8.0 l0.0,-3.0 l0.0,-6.0 l0.0,-8.0 l0.0,-2.0 l0.0,-14.0 l-13.0,13.0 l-7.303131260237787,7.340457340357158 l-0.6968687397622126,0.6595426596428418 l-6.0,6.0 l0.0,-0.0 l-3.0,3.0 l-8.295105598830169,13.887459646281425 l-1.317297611638491,0.3496510248242446 l-2.38759678953134,-2.2371106711056683 l-6.0,6.0 l-2.0,2.0 Z" stroke-width="1" stroke="grey" fill="orange" fill-opacity="0" />
</svg>