<?xml version="1.0" encoding="UTF-8"?>
<svg xmlns="http://www.w3.org/2000/svg" xmlns:xlink="http://www.w3.org/1999/xlink"
     width="250" height="250" viewBox="-125.0 -125.0 250 250">
<defs>
</defs>
<path d="M0.0,-0.0 l0.0,-0.0 l5.0,-0.0 l3.0,-0.0 l1.0,-0.0 l3.0,-0.0 l2.923808853643317,-1.0856572273366254 l3.9422727118233585,-0.8138765218682433 l0.13391843453332442,1.8995337492048687 l12.0,-0.0 l13.0,-0.0 l6.0,-8.0 l0.0,-1.0 l0.0,-6.0 l0.0,-0.0 l-7.055011201843179,-7.703384053691206 l7.055011201843179,-5.296615946308794 l0.0,-1.0 l0.0,-8.0 l0.0,-8.0 l0.0,-5.0 l-3.0,3.0 l-0.5624635936750622,7.609197969879567 l-1.146761064636081,0.931009295826918 l-7.290775341688857,0.4597927342935151 l-4.0,4.0 l-12.0,12.0 l-1.0,1.0 l-5.0,5.0 l0.0,-0.0 l-4.0,4.0 l-5.281927609071174,11.012897872474209 Z" stroke-width="1" stroke="grey" fill="purple" fill-opacity="0" />
</svg>