<?xml version="1.0" encoding="UTF-8"?>
<svg xmlns="http://www.w3.org/2000/svg" xmlns:xlink="http://www.w3.org/1999/xlink"
     width="250" height="250" viewBox="-125.0 -125.0 250 250">
<defs>
</defs>
<path d="M0.0,-0.0 l12.461197453876839,-1.3970738125491786 l0.5388025461231614,1.3970738125491786 l6.005339250191479,-2.1233208515310764 l2.555139291976044,-2.8776024582001183 l0.43952145783247687,5.000923309731195 l3.933232290189803,-6.386337454837062 l2.319975293470158,-9.262322872555025 l2.746792416340039,15.648660327392086 l0.11665430018537037,-16.65062691535673 l0.8833456998146296,16.65062691535673 l18.0,-0.0 l-18.229885524644608,-19.192259474198224 l18.229885524644608,-1.8077405258017762 l0.0,-1.0 l0.0,-5.0 l-13.210076572482158,-1.148347181208898 l0.6802944885039253,-1.312634110193546 l7.319259785318316,-0.19735854597615443 l0.7349259218315112,-2.786235019117946 l4.475596376828406,-17.555425143503456 l-1.0,1.0 l-13.3696919241805,21.31741465369251 l-12.6303080758195,4.682585346307491 l-4.0,4.0 l-10.57084458627202,17.723136190168645 l-2.7467487933414754,0.32268022728040635 l-0.460290238130062,0.37378493716107997 l-1.2221163822564423,-3.419601354610132 l-1.7762728454964032,3.6247712347118233 l-0.4964949527330125,0.2870761015016699 Z" stroke-width="1" stroke="grey" fill="purple" fill-opacity="0" />
</svg>