<?xml version="1.0" encoding="UTF-8"?>
<svg xmlns="http://www.w3.org/2000/svg" xmlns:xlink="http://www.w3.org/1999/xlink"
     width="250" height="250" viewBox="-125.0 -125.0 250 250">
<defs>
</defs>
<path d="M0.0,-0.0 l19.00470549611985,-4.154006608271094 l3.9952945038801495,4.154006608271094 l3.0,-0.0 l0.6105449701975125,-4.432667266548365 l0.4498467958364003,-0.10073244244043433 l0.13068113267449277,-0.30755421154871154 l0.24374601146387675,-0.7549554056938046 l0.8404488181755951,-1.3590459555650307 l0.7247322716521225,6.954955281796346 l0.04574897773014541,-15.439851224763684 l1.8300074474986125,-0.5118730022405593 l2.124243574771242,15.951724227004243 l12.0,-0.0 l5.0,-0.0 l0.0,-0.0 l0.0,-4.0 l0.0,-8.0 l0.0,-6.0 l-19.094350193271467,-3.483332298330552 l3.232520074936623,-4.652992127542163 l3.6197070263977125,-1.6204822576236069 l12.242123091937131,-0.24319331650367815 l-9.227147996900982,-4.709895583229795 l9.227147996900982,-6.290104416770205 l0.0,-1.0 l-5.0,-5.0 l-4.1865132076408145,11.781966738475937 l-15.813486792359186,8.218033261524063 l0.0,-0.0 l-12.0,12.0 l-4.450923374493421,8.883775990882237 l-0.014881100784268853,2.5798151159487803 l-3.5341955247223105,-3.463591106831017 l-0.22065885831401744,3.7526955702993203 l-0.042954727391169456,0.32939221801052754 l-0.9973234533952549,0.35997112112480734 l-2.7036769939049465,0.16460437570588876 l-1.035385966994612,0.39333671485945604 Z" stroke-width="1" stroke="grey" fill="blue" fill-opacity="0" />
</svg>