<?xml version="1.0" encoding="UTF-8"?>
<svg xmlns="http://www.w3.org/2000/svg" xmlns:xlink="http://www.w3.org/1999/xlink"
     width="250" height="250" viewBox="-125.0 -125.0 250 250">
<defs>
</defs>
<path d="M0.0,-0.0 l10.0,-0.0 l0.33649630623343363,-0.9537913699541462 l3.5330770228263084,-1.3924764477328613 l0.7613914303575005,-1.7433551437006156 l2.3690352405827575,4.089622961387623 l3.527473782237241,-4.516821412642277 l0.6402047516823011,-3.2127225851448538 l8.197131696682725,-0.5107269733255073 l0.6351897693977335,8.240270971112638 l1.7331379301581684,-13.29284100904831 l10.266862069841832,13.29284100904831 l1.0,-0.0 l7.0,-0.0 l0.0,-3.0 l0.0,-2.0 l0.0,-7.0 l0.0,-4.0 l-14.627587779110137,-1.3796798993459234 l2.90945707271117,-5.278959674712148 l2.9063732234218946,-0.7022324384766492 l8.811757482977072,-1.6391279874652795 l0.0,-25.0 l-8.283394036885426,11.61425361747174 l-5.716605963114574,2.3857463825282608 l-12.0,12.0 l-12.0,12.0 l-10.0,10.0 l0.0,-0.0 l-0.8832853207293805,1.8015372136622068 Z" stroke-width="1" stroke="grey" fill="yellow" fill-opacity="0" />
</svg>