<?xml version="1.0" encoding="UTF-8"?>
<svg xmlns="http://www.w3.org/2000/svg" xmlns:xlink="http://www.w3.org/1999/xlink"
     width="250" height="250" viewBox="-125.0 -125.0 250 250">
<defs>
</defs>
<path d="M0.0,-0.0 l24.0,-0.0 l1.0,-0.0 l1.0,-0.0 l4.0,-0.0 l1.0,-0.0 l7.0,-0.0 l3.0,-0.0 l9.0,-0.0 l0.0,-0.0 l0.0,-18.0 l0.0,-10.0 l0.0,-1.0 l-3.2639730683697223,-5.355152568553947 l3.2639730683697223,-6.644847431446053 l0.0,-5.0 l0.0,-2.0 l0.0,-1.0 l0.0,-0.0 l0.0,-1.0 l-2.18111284469267,4.009532114791249 l-0.13658887841405232,1.11587015078198 l-5.6822982768932775,2.8745977344267715 l-2.0,2.0 l-2.0,2.0 l-1.5594667758591854,3.999798597300149 l-0.31697537245425167,5.73266025150334 l-12.123557851686563,4.267541151196511 l-5.0,5.0 l-2.8020204384045435,3.9547981443701783 l-3.055256287309824,2.7815338895257167 l-0.682517550103034,5.918573157798168 l-1.4602057241825985,-4.654905191694063 l-0.6831168756260411,5.170182255011568 l-0.8245687087845557,2.351301625775364 l-0.49231441558940325,-5.521483880786931 l-0.6914895754604995,7.494990737001559 l-0.8674010840908579,0.27358383407509357 l-0.4411093404486426,-5.768574571076652 l-0.40545960967358585,5.911236181331913 l-1.8022807146829853,0.14066700020309164 l-1.589891713413588,0.11946204925161075 l-0.6623380796481673,0.3325785552092665 l-0.03775520619735406,0.4159698172314603 Z" stroke-width="1" stroke="grey" fill="blue" fill-opacity="0" />
</svg>