<?xml version="1.0" encoding="UTF-8"?>
<svg xmlns="http://www.w3.org/2000/svg" xmlns:xlink="http://www.w3.org/1999/xlink"
     width="250" height="250" viewBox="-125.0 -125.0 250 250">
<defs>
</defs>
<path d="M0.0,-0.0 l2.0,-0.0 l2.0,-0.0 l7.389190594092014,-2.2819060668760107 l1.7904946635136483,-1.4976081448655632 l0.8203147423943378,3.779514211741574 l6.853677626696172,-4.876722914910248 l1.7021887922079664,-3.850498936189238 l0.03137000576691662,-0.10216332304086606 l6.231874347197085,-10.472763779477233 l1.1808892281318606,19.302148953617586 l3.0,-0.0 l0.0,-0.0 l3.0,-0.0 l14.0,-0.0 l0.0,-4.0 l0.0,-7.0 l0.0,-5.0 l0.0,-3.0 l-4.118239163334913,-11.847480532047626 l4.118239163334913,-9.152519467952374 l0.0,-5.0 l0.0,-2.0 l0.0,-3.0 l0.0,-0.0 l-3.0,3.0 l-0.3320534690640926,4.788532964679725 l-11.845017960927734,15.149340510026743 l-2.822928570008173,-4.937873474706468 l-1.929868417161309,8.453333943917201 l-2.070131582838691,-4.453333943917201 l-3.0,3.0 l-1.2068944309229117,8.894276970509157 l-4.793105569077088,-2.894276970509157 l-4.0,4.0 l-7.889295532313959,12.911182243988861 l-6.69042387020784,1.9666574519150184 Z" stroke-width="1" stroke="grey" fill="yellow" fill-opacity="0" />
</svg>