<?xml version="1.0" encoding="UTF-8"?>
<svg xmlns="http://www.w3.org/2000/svg" xmlns:xlink="http://www.w3.org/1999/xlink"
     width="250" height="250" viewBox="-125.0 -125.0 250 250">
<defs>
</defs>
<path d="M0.0,-0.0 l1.0,-0.0 l12.0,-0.0 l3.8877570083557025,-3.788405447755097 l0.09779986268191365,-3.313006205035032 l1.3267145171222339,-3.0043817834064077 l4.6820088941255165,-3.1113800211030327 l8.005719717714634,13.21717345729957 l2.0,-0.0 l14.0,-0.0 l1.0,-0.0 l2.0,-0.0 l0.0,-0.0 l0.0,-7.0 l-17.402091094302314,-10.588518606441113 l17.402091094302314,-3.411481393558887 l-11.921075138517978,-0.2616135408568496 l11.921075138517978,-8.73838645914315 l-8.142725758471386,-1.2665774693880358 l8.142725758471386,-9.733422530611964 l0.0,-1.0 l-1.5476457391128733,-4.504474276768811 l-1.7209364606169117,1.7592966071597331 l-0.731417800270215,-1.2548223303909225 l0.0,-0.0 l-0.5708167695392561,4.525904537175279 l-2.9380247055392203,1.6250913557056705 l-2.4911585249215236,-0.1509958928809496 l-1.0,1.0 l-1.0,1.0 l-26.894671692709554,34.27247758407368 l-0.10532830729044562,-7.272477584073675 l-3.109459965399898,7.954690345256295 l-0.19187886956442135,0.557759754004941 l-2.001178332078224,0.12681962616908526 l-1.1433193440435137,0.38298448410012553 l-3.30687604581722,1.3837480457512605 Z" stroke-width="1" stroke="grey" fill="purple" fill-opacity="0" />
</svg>