<?xml version="1.0" encoding="UTF-8"?>
<svg xmlns="http://www.w3.org/2000/svg" xmlns:xlink="http://www.w3.org/1999/xlink"
     width="250" height="250" viewBox="-125.0 -125.0 250 250">
<defs>
</defs>
<path d="M0.0,-0.0 l0.0,-0.0 l6.0,-0.0 l7.636194789295068,-0.7597416457940265 l1.3930183635438524,-0.7300291683178826 l2.071354308567603,-0.6162040412633885 l6.7513471328937875,-2.0847716292737903 l1.148085405699689,4.190746484649088 l12.995751300370031,-4.231655941998384 l2.0042486996299687,4.231655941998384 l0.0,-0.0 l4.0,-0.0 l3.0,-0.0 l3.0,-0.0 l0.0,-0.0 l0.0,-6.0 l0.0,-0.0 l0.0,-6.0 l0.0,-8.0 l0.0,-1.0 l0.0,-12.0 l-4.0,-13.0 l-4.071958717270462,8.498700234936415 l-3.2873768164828974,3.6641147095951254 l-2.6406644662466405,-2.16281494453154 l-6.0,6.0 l-5.0,5.0 l-8.0,8.0 l-10.0,10.0 l-0.20603975313336775,6.405803226682432 l-3.7939602468666322,-2.405803226682432 Z" stroke-width="1" stroke="grey" fill="yellow" fill-opacity="0" />
</svg>