<?xml version="1.0" encoding="UTF-8"?>
<svg xmlns="http://www.w3.org/2000/svg" xmlns:xlink="http://www.w3.org/1999/xlink"
     width="250" height="250" viewBox="-125.0 -125.0 250 250">
<defs>
</defs>
<path d="M0.0,-0.0 l3.0,-0.0 l4.0,-0.0 l8.071383963799894,-3.4966070386719323 l5.928616036200106,3.4966070386719323 l0.983642656200594,-9.872660001294026 l3.170250024940188,-5.347966306828855 l7.846107318859218,15.220626308122881 l3.0,-0.0 l1.0,-0.0 l4.0,-0.0 l8.0,-0.0 l1.0,-0.0 l0.0,-7.0 l0.0,-4.0 l0.0,-8.0 l-5.9524267041969665,-1.3600133919751798 l5.9524267041969665,-6.63998660802482 l0.0,-1.0 l0.0,-1.0 l0.0,-8.0 l0.0,-6.0 l-8.0,1.0 l-9.0,9.0 l-6.0,6.0 l-5.0,5.0 l-1.0,1.0 l-1.0,1.0 l-13.0,13.0 l-3.0,3.0 l-2.6147850003299298,3.3594821168767233 Z" stroke-width="1" stroke="grey" fill="black" fill-opacity="0" />
</svg>