<?xml version="1.0" encoding="UTF-8"?>
<svg xmlns="http://www.w3.org/2000/svg" xmlns:xlink="http://www.w3.org/1999/xlink"
     width="250" height="250" viewBox="-125.0 -125.0 250 250">
<defs>
</defs>
<path d="M0.0,-0.0 l6.0,-0.0 l11.837176526485273,-5.335063319666794 l0.9297094756727589,-1.2321974353121359 l1.2331139978419685,6.56726075497893 l1.4434591171803604,-8.297523021516495 l9.55654088281964,8.297523021516495 l1.0,-0.0 l2.0,-0.0 l1.0,-0.0 l0.26205990280509894,-14.039932469899801 l0.7379400971949011,14.039932469899801 l9.0,-0.0 l5.0,-0.0 l0.0,-2.0 l0.0,-4.0 l0.0,-2.0 l0.0,-2.0 l-7.4572016671326296,-8.615633487190937 l7.4572016671326296,-1.3843665128090628 l0.0,-3.0 l0.0,-14.0 l0.0,-4.0 l-12.0,3.0 l-5.0,5.0 l-1.0,1.0 l-11.0,11.0 l-2.0,2.0 l-2.0,2.0 l-2.0,2.0 l-10.0,10.0 l-4.99282639243493,4.998397082939498 Z" stroke-width="1" stroke="grey" fill="black" fill-opacity="0" />
</svg>