<?xml version="1.0" encoding="UTF-8"?>
<svg xmlns="http://www.w3.org/2000/svg" xmlns:xlink="http://www.w3.org/1999/xlink"
     width="250" height="250" viewBox="-125.0 -125.0 250 250">
<defs>
</defs>
<path d="M0.0,-0.0 l12.0,-0.0 l2.0,-0.0 l2.0,-0.0 l5.0,-0.0 l4.0,-0.0 l1.0,-0.0 l8.0,-0.0 l5.0,-0.0 l11.0,-9.0 l-8.421354876300924,-12.405527656536776 l8.421354876300924,-10.594472343463224 l0.0,-4.0 l0.0,-3.0 l0.0,-4.0 l0.0,-5.0 l0.0,-0.0 l0.0,-0.0 l0.0,-2.0 l-5.0,5.0 l-4.0,4.0 l0.0,-0.0 l-7.0,7.0 l-1.0,1.0 l-16.23762540362879,19.814192276820528 l-5.76237459637121,2.1858077231794706 l-9.0,9.0 l0.0,-0.0 l-1.5148794910002965,1.5744598585904621 Z" stroke-width="1" stroke="grey" fill="red" fill-opacity="0" />
</svg>