<?xml version="1.0" encoding="UTF-8"?>
<svg xmlns="http://www.w3.org/2000/svg" xmlns:xlink="http://www.w3.org/1999/xlink"
     width="250" height="250" viewBox="-125.0 -125.0 250 250">
<defs>
</defs>
<path d="M0.0,-0.0 l7.0,-0.0 l0.0,-0.0 l4.7030051939276465,-1.941661511073306 l0.8904210754075219,-1.661394613126231 l0.28138664578313666,-0.9806992844585873 l0.5875425601995268,-0.02658593908106166 l5.537644524682168,4.610341347739186 l1.5263114542883471,-4.739000596292856 l5.473688545711653,4.739000596292856 l0.0,-0.0 l5.0,-0.0 l2.2021032177004187,-5.7385038653612375 l4.606848781814222,-3.426021938964719 l12.19104800048536,-0.8354741956740437 l0.0,-1.0 l0.0,-11.0 l-2.702098739400384,-7.35542280107699 l2.702098739400384,-1.6445771989230096 l0.0,-4.0 l0.0,-1.0 l-3.0,-11.0 l-1.0,1.0 l-27.0,27.0 l-4.0,4.0 l-1.0,1.0 l0.0,-0.0 l-4.704930155383067,12.16937313452404 l-0.5382709362115374,0.37723965358311684 l-0.07389598553027099,0.1052730919904723 l-3.9747345041980795,0.2050153936607333 l-2.67182151684191,0.5005016691043251 l-1.0224906233906208,0.11941821877157799 l-0.3067546824179479,0.299879530428292 Z" stroke-width="1" stroke="grey" fill="blue" fill-opacity="0" />
</svg>