<?xml version="1.0" encoding="UTF-8"?>
<svg xmlns="http://www.w3.org/2000/svg" xmlns:xlink="http://www.w3.org/1999/xlink"
     width="250" height="250" viewBox="-125.0 -125.0 250 250">
<defs>
</defs>
<path d="M0.0,-0.0 l4.0,-0.0 l5.0,-0.0 l2.1925581058992094,-2.1109887085572376 l3.3367824453765387,-3.223228185147736 l3.767348918765716,-1.177625502799473 l0.893754798273168,-1.8265729965895314 l1.0536788537172619,-2.5895602317919657 l3.3533304871473106,-3.1035175692339934 l1.4025463908207954,14.031493194119937 l7.694093166858032,-16.688207668172343 l3.305906833141968,16.688207668172343 l5.0,-0.0 l9.0,-0.0 l0.0,-0.0 l0.0,-3.0 l0.0,-6.0 l0.0,-1.0 l-16.60309723925036,-8.127383953804436 l1.45241887636422,-1.8981223236791926 l0.6639751054504615,-1.8980972015562827 l0.755469619595857,-1.2398479930201418 l3.495948285899459,-5.7321125754341615 l1.714495903800369,-0.13353405428820508 l0.261521595624842,-2.9606238332122423 l6.063575084583924,-5.115535724829144 l2.1956927679312273,-8.894742340176194 l0.0,-4.0 l-19.0,19.0 l-15.0,15.0 l-2.0,2.0 l-2.0,2.0 l-1.0,1.0 l-3.197474693816095,10.464422941667035 l-6.996640380407854,0.0012447636981800514 l-0.23433839186567385,0.3609600019184289 Z" stroke-width="1" stroke="grey" fill="brown" fill-opacity="0" />
</svg>