<?xml version="1.0" encoding="UTF-8"?>
<svg xmlns="http://www.w3.org/2000/svg" xmlns:xlink="http://www.w3.org/1999/xlink"
     width="250" height="250" viewBox="-125.0 -125.0 250 250">
<defs>
</defs>
<path d="M0.0,-0.0 l4.0,-0.0 l4.0,-0.0 l2.586299320516929,-2.2800539402249997 l0.48799645858624174,-0.13099449911608474 l2.9257042208968294,2.4110484393410845 l1.8786427666636136,-3.2139349096845558 l1.1213572333363864,3.2139349096845558 l0.1149556468791495,-4.708377084689403 l0.8850443531208505,4.708377084689403 l8.22607073109301,-8.812743377805841 l2.77392926890699,8.812743377805841 l3.9384133524277445,-10.016159618322282 l4.0615866475722555,10.016159618322282 l13.0,-0.0 l0.0,-4.0 l0.0,-12.0 l0.0,-1.0 l0.0,-10.0 l-1.9950166179847102,-9.37312157781286 l1.9950166179847102,-6.62687842218714 l0.0,-2.0 l0.0,-4.0 l-5.0,4.0 l-6.0,6.0 l-5.567469072366137,7.262299209089832 l-7.432530927633863,5.737700790910168 l-7.0,7.0 l-1.0,1.0 l-1.0,1.0 l-4.0,4.0 l-4.034684048885845,10.83014763753809 l-2.3189607716606213,0.2314750264758192 l-0.9087868907235901,0.48860280227076003 l-1.836931579702438,0.5062708749054623 l-2.8312052590143137,0.8911428779715463 Z" stroke-width="1" stroke="grey" fill="orange" fill-opacity="0" />
</svg>