<?xml version="1.0" encoding="UTF-8"?>
<svg xmlns="http://www.w3.org/2000/svg" xmlns:xlink="http://www.w3.org/1999/xlink"
     width="250" height="250" viewBox="-125.0 -125.0 250 250">
<defs>
</defs>
<path d="M0.0,-0.0 l8.648145405894958,-0.4206138741456899 l4.351854594105042,0.4206138741456899 l1.0,-0.0 l2.0,-0.0 l1.0,-0.0 l4.0,-0.0 l0.088400153368422,-2.630762249373955 l1.60537964035246,-0.23936180383294392 l4.639892736325844,-2.03913731627581 l3.6663274699532735,4.909261369482709 l4.641450917639915,-5.841589841875288 l0.5865083459788138,-0.9812225411785445 l0.4281337923159185,-4.746712789114874 l0.3439069440653526,11.569525172168706 l5.0,-0.0 l8.0,-0.0 l0.0,-12.0 l-12.904315159965805,-1.5310231378651444 l0.27112117727419616,-1.3639721409588716 l12.633193982691608,-0.10500472117598392 l0.0,-4.0 l-7.753675869546527,-1.389691957566857 l0.7732971918056819,-5.260123589243577 l1.2664441190472076,-0.35704194257830224 l5.713934558693637,-0.9931425106112641 l0.0,-1.0 l-1.7249585009825097,-2.509051835072075 l1.7249585009825097,-5.490948164927925 l0.0,-11.0 l0.0,-3.0 l-1.0519718396075461,6.429812272505089 l-0.9480281603924539,-4.429812272505089 l-2.0,2.0 l-6.0,6.0 l-18.0,18.0 l-2.0,2.0 l-4.0,4.0 l-1.0,1.0 l-6.0,6.0 l-0.3338248603592806,7.991851464722075 l-0.30825022609007924,0.6235983205803499 l-3.3574984811780944,0.1516158408950516 l-4.28427425286625,0.09242970446101118 l-0.4264274353393771,0.10060715285909995 l-0.2124448589418848,0.020865285923148118 Z" stroke-width="1" stroke="grey" fill="black" fill-opacity="0" />
</svg>