<?xml version="1.0" encoding="UTF-8"?>
<svg xmlns="http://www.w3.org/2000/svg" xmlns:xlink="http://www.w3.org/1999/xlink"
     width="250" height="250" viewBox="-125.0 -125.0 250 250">
<defs>
</defs>
<path d="M0.0,-0.0 l1.0,-0.0 l4.0,-0.0 l6.313777481208852,-1.289054894133567 l1.3783105754659761,-1.353403452824529 l0.8996915701466204,-0.6384344204819619 l6.44249865026282,-0.34096973485740456 l0.11475807351943956,-1.1073062103306253 l0.14745003838194748,-4.838589362738741 l0.9522408116623033,-1.885952298315953 l1.7512727993520407,11.453710373682782 l2.0,-0.0 l6.0,-0.0 l8.0,-0.0 l3.0,-0.0 l8.0,-0.0 l0.0,-16.0 l0.0,-6.0 l0.0,-12.0 l0.0,-1.0 l0.0,-1.0 l0.0,-0.0 l0.0,-10.0 l0.0,-4.0 l-1.9464317048913244,5.838219964165624 l-3.4806820371520857,5.522697363057908 l-2.57288625795659,-3.3609173272235324 l-1.0,1.0 l-12.89471099904835,16.847073954842404 l-0.10528900095165028,-3.847073954842404 l-3.6523919151791624,11.34219097065644 l-5.347608084820838,-2.342190970656439 l-3.0,3.0 l-3.0,3.0 l-5.817245040279561,12.909085834609002 l-2.182754959720439,-4.909085834609002 l-1.7799622046675632,4.97702009612936 Z" stroke-width="1" stroke="grey" fill="orange" fill-opacity="0" />
</svg>