<?xml version="1.0" encoding="UTF-8"?>
<svg xmlns="http://www.w3.org/2000/svg" xmlns:xlink="http://www.w3.org/1999/xlink"
     width="250" height="250" viewBox="-125.0 -125.0 250 250">
<defs>
</defs>
<path d="M0.0,-0.0 l1.0,-0.0 l5.0,-0.0 l3.0,-0.0 l2.0,-0.0 l1.0,-0.0 l0.5752500560446503,-2.407538475182743 l0.27089957804676956,-0.004912915272364149 l1.1538503659085801,2.4124513904551073 l2.31235696188984,-2.7542324318649913 l4.527416022764683,-2.6313108213606067 l4.160227015345477,5.385543253225598 l10.31401614671308,-11.907368168271935 l3.6859838532869205,11.907368168271935 l11.0,-2.0 l0.0,-5.0 l0.0,-0.0 l0.0,-3.0 l0.0,-1.0 l0.0,-1.0 l0.0,-1.0 l-8.663817077638413,-0.9960147343899326 l0.8598418709573821,-18.723936982190956 l7.803975206681031,-15.280048283419113 l-1.0,-1.0 l0.0,-0.0 l-0.8744138883340327,4.8326638771969215 l-3.1255861116659673,-0.8326638771969215 l-0.5206529260568402,3.2045661332295268 l-1.5211511120344952,2.614223854624541 l-22.958195961908665,19.181210012145932 l-1.0,1.0 l-4.0,4.0 l-2.0,2.0 l-1.0,1.0 l-4.433742698354065,10.467070571576315 l-0.19265353586615674,0.12291437584422482 l-0.12573215264141702,0.4341803670600435 l-0.3151857169712873,0.12959439204191514 l-3.1102004963135874,0.12191176214445543 l-3.639547610970156,0.5840653616490376 l-0.1712353438082903,0.13783332897205225 Z" stroke-width="1" stroke="grey" fill="brown" fill-opacity="0" />
</svg>