<?xml version="1.0" encoding="UTF-8"?>
<svg xmlns="http://www.w3.org/2000/svg" xmlns:xlink="http://www.w3.org/1999/xlink"
     width="250" height="250" viewBox="-125.0 -125.0 250 250">
<defs>
</defs>
<path d="M0.0,-0.0 l0.0,-0.0 l1.0,-0.0 l13.13650524989185,-3.2465169612019404 l0.13489133568118028,-0.5734672893487773 l0.774985905893816,-0.04651224656267816 l3.1637936868569696,-0.0035544527508188928 l0.13530135651326702,-0.299145500888895 l1.6545224651629162,4.16919645075311 l7.688499304208751,-13.9252075975701 l2.311500695791249,13.9252075975701 l4.292487393945208,-15.63760564342848 l9.707512606054792,15.63760564342848 l6.0,-0.0 l0.0,-12.0 l-15.132491888348,-9.835241030777908 l15.132491888348,-2.164758969222092 l0.0,-3.0 l0.0,-2.0 l-2.8288704360234007,-2.5723237263544014 l2.8288704360234007,-4.427676273645599 l-0.06919347669121123,-4.605549539066118 l-4.930806523308789,-4.394450460933882 l-9.0,9.0 l-19.0,19.0 l-6.0,6.0 l-0.4187332834678834,7.9740251494598535 l-1.4504156232726437,0.3454441849986014 l-0.13085109325947286,-6.319469334458455 l-3.2748231590293635,7.12739997780882 l-0.7151127210196346,0.6268553243551702 l-0.3887548460584531,0.37894521054240016 l-0.6340665261211798,0.03715213828266173 l-0.4406260946848981,0.4778754872909845 l-1.0769363197306427,0.022036937749884244 l-0.47555467393929374,0.04051192014669913 Z" stroke-width="1" stroke="grey" fill="yellow" fill-opacity="0" />
</svg>