<?xml version="1.0" encoding="UTF-8"?>
<svg xmlns="http://www.w3.org/2000/svg" xmlns:xlink="http://www.w3.org/1999/xlink"
     width="250" height="250" viewBox="-125.0 -125.0 250 250">
<defs>
</defs>
<path d="M0.0,-0.0 l1.0,-0.0 l7.2634265979184,-0.14454291059400326 l1.7365734020816,0.14454291059400326 l2.0,-0.0 l4.615165179411619,-7.081867720232409 l2.8713666156858793,-1.2746512315378444 l1.5134682049025017,8.356518951770253 l0.0,-0.0 l6.0,-0.0 l18.0,-0.0 l1.0,-0.0 l4.0,-0.0 l0.0,-5.0 l0.0,-0.0 l0.0,-4.0 l-10.620200983192639,-3.1186557591058612 l0.9796287382316677,-3.144828765197266 l9.640572244960971,-6.736515475696873 l0.0,-3.0 l0.0,-2.0 l0.0,-13.0 l0.0,-10.0 l0.0,-0.0 l-5.0,5.0 l-1.0,1.0 l-3.0,3.0 l-8.0,8.0 l0.0,-0.0 l-15.0,15.0 l-3.0,3.0 l-2.9245722725804537,10.218118506411928 l-9.075427727419546,1.781881493588072 Z" stroke-width="1" stroke="grey" fill="purple" fill-opacity="0" />
</svg>