<?xml version="1.0" encoding="UTF-8"?>
<svg xmlns="http://www.w3.org/2000/svg" xmlns:xlink="http://www.w3.org/1999/xlink"
     width="250" height="250" viewBox="-125.0 -125.0 250 250">
<defs>
</defs>
<path d="M0.0,-0.0 l3.0,-0.0 l7.0,-0.0 l3.796019309082947,-1.3978306053226066 l2.198078679800142,-4.889218154389448 l3.005902011116911,6.2870487597120555 l7.543846690497947,-15.882372854404528 l1.456153309502053,15.882372854404528 l2.0,-0.0 l13.0,-0.0 l7.0,-0.0 l0.0,-4.0 l0.0,-1.0 l-8.60825327468897,-11.853767615114073 l2.2341513020249337,-5.931613889696248 l6.374101972664036,-0.21461849518967924 l-5.74052126702275,-2.4208753526352353 l5.74052126702275,-5.579124647364765 l0.0,-4.0 l-1.4313664315736716,-4.935197981048361 l1.4313664315736716,-9.064802018951639 l-11.0,10.0 l-5.0,5.0 l-10.0,10.0 l-4.523701299199502,10.572200708626342 l-2.365844975858966,1.570854244595024 l-7.110453724941532,1.856945046778634 l-4.0,4.0 l-3.4879535592410584,5.719826903172936 l-0.14932467352858358,0.01748571037839608 l-2.362721767230358,0.26268738644866785 Z" stroke-width="1" stroke="grey" fill="orange" fill-opacity="0" />
</svg>