<?xml version="1.0" encoding="UTF-8"?>
<svg xmlns="http://www.w3.org/2000/svg" xmlns:xlink="http://www.w3.org/1999/xlink"
     width="250" height="250" viewBox="-125.0 -125.0 250 250">
<defs>
</defs>
<path d="M0.0,-0.0 l10.89025949830057,-2.819678920900337 l0.10974050169943084,2.819678920900337 l2.396121281793672,-3.8650875078195672 l1.0911262236841672,-2.177447183216524 l3.381533944052272,-0.30967975588439334 l1.3791481483989934,-0.7558309688090219 l2.049040821369818,-0.4533518711586373 l1.7030295807010774,7.561397286888144 l3.0,-0.0 l1.0,-0.0 l0.9954042329322235,-7.706132321373435 l1.0045957670677765,7.706132321373435 l0.6046273009476337,-8.484519971398896 l2.1120857504703814,-0.33111296958387193 l1.3449706296959896,-4.081218786211062 l14.938316318885995,12.89685172719383 l2.0,-1.0 l0.0,-13.0 l0.0,-1.0 l-15.386535556701553,-3.98087370338121 l1.689140697930135,-0.1123763029573368 l13.697394858771418,-8.906749993661453 l0.0,-6.0 l0.0,-4.0 l-2.8238886307810063,-4.73390880877335 l-8.176111369218994,3.73390880877335 l-0.24627109184642393,4.176827156052077 l-3.753728908153576,-0.17682715605207733 l0.0,-0.0 l-4.0,4.0 l0.0,-0.0 l-2.0,2.0 l-20.092282313524098,26.96875899780814 l-5.502746670294728,0.14761735646421337 l-0.3149885077018628,1.5733329817141872 l-1.5736861402892823,0.013724936830463663 l-0.8548088385098462,0.12261572095662787 Z" stroke-width="1" stroke="grey" fill="yellow" fill-opacity="0" />
</svg>