<?xml version="1.0" encoding="UTF-8"?>
<svg xmlns="http://www.w3.org/2000/svg" xmlns:xlink="http://www.w3.org/1999/xlink"
     width="250" height="250" viewBox="-125.0 -125.0 250 250">
<defs>
</defs>
<path d="M0.0,-0.0 l10.391477607701066,-1.161993755643778 l0.6085223922989336,1.161993755643778 l1.0,-0.0 l4.438890152082475,-1.9270968261760002 l1.7600697345633343,-0.36038169334694503 l1.26311247325172,-4.740691564126026 l0.5379276401024704,7.0281700836489716 l2.0231268163464904,-7.065108314796687 l0.9768731836535096,7.065108314796687 l0.5846682449901408,-7.284072653818577 l1.9572825477903777,-0.8974705904688536 l4.420224689997976,-2.1093208291933507 l0.03782451722150526,10.290864073480781 l1.8480185350738054,-11.105842948483911 l0.47639079981453136,-6.1939354304615115 l4.675590665111663,17.299778378945422 l13.0,-0.0 l0.0,-2.0 l0.0,-7.0 l0.0,-0.0 l0.0,-1.0 l-15.134020431294118,-8.34661895058909 l0.9286539270219407,-0.3498751481977145 l3.49802472436874,-4.626622948362556 l2.170353101360078,-1.7150511074523749 l2.4380434866231155,-8.89264518075668 l3.7410122630905462,-0.0004150202175026152 l2.3579329288296975,-2.068771644424082 l0.0,-3.0 l-3.0,-8.0 l-6.0,6.0 l-18.0,18.0 l-2.0,2.0 l-4.0,4.0 l-10.375922618099704,16.28410332258999 l-0.6240773819002952,-5.28410332258999 l-4.779762390402276,5.594311122510806 l-0.7485546189610668,0.24831479100113324 Z" stroke-width="1" stroke="grey" fill="purple" fill-opacity="0" />
</svg>