<?xml version="1.0" encoding="UTF-8"?>
<svg xmlns="http://www.w3.org/2000/svg" xmlns:xlink="http://www.w3.org/1999/xlink"
     width="250" height="250" viewBox="-125.0 -125.0 250 250">
<defs>
</defs>
<path d="M0.0,-0.0 l2.0,-0.0 l5.0,-0.0 l4.730433068022977,-1.0668233365491517 l1.880168602823284,-1.119132170840618 l1.4592801445105064,-3.5448424212657756 l1.9301181846432325,5.730797928655545 l0.862829781239757,-5.746382796029648 l3.137170218760243,5.746382796029648 l0.5920124269356961,-5.809530563094892 l0.037654066482478044,-0.7429235227604716 l2.2478113888370714,-5.556722293401756 l1.1576021005076953,-0.8811450327169812 l0.9649200172370591,12.9903214119741 l1.0,-0.0 l1.0143349883340846,-18.198082302073015 l21.985665011665915,18.198082302073015 l0.0,-4.0 l0.0,-15.0 l-18.802410926563446,-0.5192229758089439 l1.6662504012183845,-1.8296230283363784 l12.882024669663998,-6.500484480043884 l4.254135855681064,-0.1506695158107938 l0.0,-4.0 l0.0,-1.0 l0.0,-5.0 l0.0,-6.0 l0.0,-6.0 l-1.0,1.0 l-6.0,6.0 l-11.0,11.0 l-17.0,17.0 l-4.0,4.0 l-4.0,4.0 l-1.5121298383264312,6.252195280413524 l-3.0512157773625868,0.06520783958792009 l-0.4336190503596624,0.12200579115768628 l-0.0030353339513196076,-1.4394089111591302 l-1.0880664373926523,1.8180357738338853 Z" stroke-width="1" stroke="grey" fill="yellow" fill-opacity="0" />
</svg>