<?xml version="1.0" encoding="UTF-8"?>
<svg xmlns="http://www.w3.org/2000/svg" xmlns:xlink="http://www.w3.org/1999/xlink"
     width="250" height="250" viewBox="-125.0 -125.0 250 250">
<defs>
</defs>
<path d="M0.0,-0.0 l8.0,-0.0 l3.7147222650852303,-3.3596589284494645 l2.558344863521434,-1.0548870798913388 l4.722630529461037,-0.19298387963524277 l1.0043023419322985,4.607529887976046 l6.634878504079548,-5.236485985561096 l0.3651214959204516,5.236485985561096 l2.0,-0.0 l2.396796453542109,-6.138592655023679 l2.603203546457891,6.138592655023679 l0.0,-0.0 l9.0,-0.0 l7.0,-0.0 l0.0,-0.0 l-4.814934650798108,-8.150580742511737 l4.814934650798108,-1.8494192574882629 l-4.73702404217633,-1.5561582300063552 l0.837678077509679,-2.115009013790619 l0.8958862603034703,-3.626212182553635 l3.0034597043631805,-0.7026205736493907 l-2.8450915979187528,-0.8398578189587553 l0.22748269513809305,-2.980501917798893 l0.7978852851334395,-1.4358102962042878 l1.8197236176472202,-2.7438299670380637 l-0.03758289995074904,-1.7363481041776332 l0.03758289995074904,-5.263651895822367 l0.0,-1.0 l0.0,-16.0 l0.0,-0.0 l-4.0,4.0 l-2.0,2.0 l-4.0,4.0 l-1.0,1.0 l-3.0,3.0 l-12.0,12.0 l-13.147683002651974,21.074187210202247 l-1.5809412650755235,0.14511809929981245 l-0.11729803099718872,1.3096864088891964 l-2.0545427078222316,0.11554739139940917 l-3.687450964994332,0.8829186910779121 l-2.002142003138646,0.28288780521982093 l-0.8114938407871919,0.12659511034206847 l-0.5984481845329126,0.06305928356953525 Z" stroke-width="1" stroke="grey" fill="brown" fill-opacity="0" />
</svg>