<?xml version="1.0" encoding="UTF-8"?>
<svg xmlns="http://www.w3.org/2000/svg" xmlns:xlink="http://www.w3.org/1999/xlink"
     width="250" height="250" viewBox="-125.0 -125.0 250 250">
<defs>
</defs>
<path d="M0.0,-0.0 l1.0,-0.0 l12.891813849468209,-1.3279112100594945 l2.6276635885979207,-0.20994200970995824 l1.6272926937719738,-0.11040506267470662 l4.2513630613606,-0.1543154673238345 l0.4419439980040494,-0.9970103507644155 l0.8873387571886475,-2.992098507552564 l1.018390706736426,-5.256180101026701 l0.25419334487217426,11.047862709111675 l3.5855928485614044,-15.737544379678864 l0.41440715143859563,15.737544379678864 l3.194343090361947,-17.26991328111854 l3.805656909638053,17.26991328111854 l5.0,-0.0 l1.0,-0.0 l0.0,-0.0 l6.0,-0.0 l2.0,-0.0 l0.0,-9.0 l-16.594024976645038,-10.770195822950658 l16.594024976645038,-2.229804177049342 l-1.5520561398631898,-1.62375804433292 l1.5520561398631898,-2.37624195566708 l0.0,-6.0 l0.0,-0.0 l0.0,-15.0 l0.0,-1.0 l0.0,-2.0 l-1.4372882726598846,1.915905788266663 l-0.5627117273401154,0.08409421173333698 l-9.0,9.0 l-14.0,14.0 l0.0,-0.0 l-5.0,5.0 l-3.0,3.0 l-5.0,5.0 l-1.0,1.0 l-4.167508224372908,9.768567271196572 l-0.22945827719918022,0.4168993686515826 l-3.9108569594630875,0.22137811775065974 l-1.483012913350468,0.23450907672385657 l-0.5404959623482142,0.2216911482325147 Z" stroke-width="1" stroke="grey" fill="pink" fill-opacity="0" />
</svg>