<?xml version="1.0" encoding="UTF-8"?>
<svg xmlns="http://www.w3.org/2000/svg" xmlns:xlink="http://www.w3.org/1999/xlink"
     width="250" height="250" viewBox="-125.0 -125.0 250 250">
<defs>
</defs>
<path d="M0.0,-0.0 l11.0,-0.0 l0.5317686504689938,-3.3066499172801493 l1.2286501435497303,-1.1524931685389679 l3.239581205981276,4.459143085819117 l2.4038930573374273,-5.64115274348026 l0.5961069426625727,5.64115274348026 l4.672039014756258,-6.242453975785802 l9.327960985243742,6.242453975785802 l2.097214946432345,-6.766203419106359 l2.0312420243582565,-1.6298767458927887 l3.8715430292093984,8.396080164999148 l0.0,-0.0 l0.4738124875208456,-8.463650458588162 l6.526187512479154,8.463650458588162 l1.0,-0.0 l1.0,-1.0 l0.0,-3.0 l-8.47165426803165,-7.721832077091394 l8.47165426803165,-0.27816792290860626 l0.0,-1.0 l0.0,-6.0 l-3.1548854144468024,-1.7488473435502705 l3.1548854144468024,-9.25115265644973 l0.0,-2.0 l-2.8570858420166374,-3.0165778921872217 l2.8570858420166374,-5.983422107812778 l0.0,-9.0 l-9.0,9.0 l-9.0,9.0 l-5.0,5.0 l-12.0,12.0 l0.0,-0.0 l0.0,-0.0 l-2.0,2.0 l-5.369174590409752,10.56125476089739 l-2.7533533120145677,0.5094360064224452 l-3.87747209757568,0.9293092326801653 Z" stroke-width="1" stroke="grey" fill="blue" fill-opacity="0" />
</svg>