<?xml version="1.0" encoding="UTF-8"?>
<svg xmlns="http://www.w3.org/2000/svg" xmlns:xlink="http://www.w3.org/1999/xlink"
     width="250" height="250" viewBox="-125.0 -125.0 250 250">
<defs>
</defs>
<path d="M0.0,-0.0 l5.0,-0.0 l2.0,-0.0 l20.28975335515059,-11.614439366859719 l6.710246644849409,11.614439366859719 l8.0,-0.0 l7.0,-0.0 l1.0,-10.0 l0.0,-8.0 l-16.70751617003574,-4.068735371617741 l10.37445439005971,-4.919214446185084 l4.44257018933645,-5.791090814404544 l1.8904915906395772,-5.220959367792631 l0.0,-0.0 l0.0,-10.0 l0.0,-2.0 l-1.0,1.0 l-0.39173571236268856,1.2991125332925435 l-4.608264287637311,3.7008874667074565 l-9.0,9.0 l-22.0,22.0 l-0.05323513596633944,3.1507959633008706 l-2.3616020839419267,3.8346398774436565 l-0.6303300459472467,3.7578547699902525 l-1.954832734144487,-5.74329061073478 l-1.1984582154026526,5.845244390168453 l-2.2804187991960543,0.7845767040656528 l-2.1724347722871458,0.333032436310684 l-0.40087024169987995,0.8634936806515412 Z" stroke-width="1" stroke="grey" fill="pink" fill-opacity="0" />
</svg>