<?xml version="1.0" encoding="UTF-8"?>
<svg xmlns="http://www.w3.org/2000/svg" xmlns:xlink="http://www.w3.org/1999/xlink"
     width="250" height="250" viewBox="-125.0 -125.0 250 250">
<defs>
</defs>
<path d="M0.0,-0.0 l0.0,-0.0 l2.0,-0.0 l9.491751018617308,-1.3806581984495334 l6.474073944620397,-0.1745867531726144 l4.034175036762296,1.5552449516221478 l0.1374856275284131,-6.88844350596928 l6.862514372471587,6.88844350596928 l7.0,-0.0 l9.0,-0.0 l5.0,-3.0 l0.0,-3.0 l-15.917767178043576,-10.929798133734899 l15.917767178043576,-2.0702018662651014 l0.0,-0.0 l-14.751675055817941,-2.9735339519228994 l3.1216152139389237,-8.115885729113224 l11.630059841879017,-6.910580318963877 l0.0,-3.0 l-9.0,-1.0 l-3.0,3.0 l-15.0,15.0 l-5.0,5.0 l-10.0,10.0 l-3.0,3.0 l-2.3730427069449456,3.9098817677027022 l-0.7883273560941539,0.24999598598486095 l-0.3142573749975619,0.2198190019081605 l-0.4015213794802355,0.06981356974200181 Z" stroke-width="1" stroke="grey" fill="black" fill-opacity="0" />
</svg>