<?xml version="1.0" encoding="UTF-8"?>
<svg xmlns="http://www.w3.org/2000/svg" xmlns:xlink="http://www.w3.org/1999/xlink"
     width="250" height="250" viewBox="-125.0 -125.0 250 250">
<defs>
</defs>
<path d="M0.0,-0.0 l2.0,-0.0 l8.0,-0.0 l4.0,-0.0 l0.27676129873744415,-3.1288902146323543 l0.9861780402374194,-3.9989359798051987 l4.697898264262427,-0.6620951689764691 l0.03916239676270905,7.789921363414022 l0.08991728913541408,-8.373369242860123 l3.278563402360227,-1.2916360330225967 l0.6315193085043589,9.66500527588272 l3.265807010249553,-11.803105502417138 l1.3921885843321746,-1.0693724226374215 l4.3420044054182725,12.87247792505456 l0.4709942685555575,-13.714685477863608 l12.529005731444443,13.714685477863608 l2.0,-0.0 l2.0,-0.0 l0.0,-7.0 l-13.370568234883692,-7.1683705108529825 l1.3558867183716572,-0.959394408514676 l12.014681516512034,-0.8722350806323416 l0.0,-0.0 l-11.111823412849319,-1.54102654829439 l0.9609056762044119,-5.276439302514937 l0.7725565850428922,-3.3546403136820757 l9.378361151602014,-5.827893835508597 l0.0,-10.0 l0.0,-1.0 l0.0,-2.0 l0.0,-4.0 l-5.0,4.0 l-0.18052757545466847,2.6272312661630934 l-2.27579346329469,7.761901782836574 l-1.5436789612506416,-6.389133048999668 l-4.0,4.0 l-7.0,7.0 l-3.0,3.0 l-3.0,3.0 l-13.447038828455733,21.125304877500017 l-3.228809989455727,0.5285893006295934 l-1.3241511820885394,-3.6538941781296117 l-5.0,5.0 Z" stroke-width="1" stroke="grey" fill="orange" fill-opacity="0" />
</svg>