<?xml version="1.0" encoding="UTF-8"?>
<svg xmlns="http://www.w3.org/2000/svg" xmlns:xlink="http://www.w3.org/1999/xlink"
     width="250" height="250" viewBox="-125.0 -125.0 250 250">
<defs>
</defs>
<path d="M0.0,-0.0 l0.0,-0.0 l15.0,-0.0 l0.0,-0.0 l1.0,-0.0 l10.0,-0.0 l0.31911380317498583,-1.0975928452209183 l0.21574529967206857,-3.2640389553861353 l0.4651408971529456,4.361631800607054 l5.0,-0.0 l0.0,-0.0 l5.72112270270587,-5.581705407846655 l0.37183553054914853,-6.408813529093316 l4.436092045753732,-1.6905645628007377 l0.23593276647778083,-3.6738885006961937 l0.5594888948901726,-1.2317229613674918 l6.675528059623296,-3.413305038195606 l0.0,-1.0 l0.0,-1.0 l-4.263243913526416,-1.9751235444133037 l4.263243913526416,-8.024876455586696 l0.0,-1.0 l0.0,-1.0 l-1.1573047823169347,-2.6771392367046687 l1.1573047823169347,-1.3228607632953313 l0.0,-5.0 l0.0,-5.0 l-3.0,3.0 l0.0,-0.0 l-1.0,1.0 l0.0,-0.0 l-4.0,4.0 l-15.0,15.0 l-11.0,11.0 l-6.0,6.0 l-2.2473608473812767,9.301036705274875 l-4.359829121109127,0.5762734030529703 Z" stroke-width="1" stroke="grey" fill="brown" fill-opacity="0" />
</svg>