<?xml version="1.0" encoding="UTF-8"?>
<svg xmlns="http://www.w3.org/2000/svg" xmlns:xlink="http://www.w3.org/1999/xlink"
     width="250" height="250" viewBox="-125.0 -125.0 250 250">
<defs>
</defs>
<path d="M0.0,-0.0 l4.0,-0.0 l7.112217990623307,-1.9027341935711342 l2.887782009376693,1.9027341935711342 l0.47754717096274035,-2.0451439686960686 l3.0607497329226483,-0.017222058369502413 l2.18942357470268,-6.678182259681164 l2.2722795214119316,8.740548286746735 l0.0,-0.0 l3.7056765788252264,-14.218415691561686 l1.4572505321207458,-1.2252287052056534 l1.3910685550085162,-2.612691473633994 l0.44600433404551154,18.056335870401334 l2.0,-0.0 l5.0,-0.0 l6.0,-0.0 l8.0,-9.0 l0.0,-1.0 l0.0,-4.0 l-2.311264965585565,-13.321340333721896 l1.4463375368782607,-1.0617718989967742 l0.8649274287073041,-2.61688776728133 l0.0,-1.0 l0.0,-5.0 l0.0,-5.0 l0.0,-8.0 l-12.0,12.0 l-1.0,1.0 l-2.0,2.0 l-1.0,1.0 l-0.08755739752446345,6.8110020951294565 l-2.9124426024755365,-3.8110020951294565 l-0.543227961168995,6.15338047828001 l-2.456772038831005,-3.1533804782800097 l-8.0,8.0 l-9.0,9.0 l-3.8522123068758365,9.614685511514107 l-4.692939727088408,0.07277014538326587 l-0.053058519925542225,0.759404067196404 l-0.4509342438656301,0.0824958456824662 l-0.07273120474181605,0.05578882252621298 l-1.8398541508517496,0.4023670482648291 Z" stroke-width="1" stroke="grey" fill="green" fill-opacity="0" />
</svg>