<?xml version="1.0" encoding="UTF-8"?>
<svg xmlns="http://www.w3.org/2000/svg" xmlns:xlink="http://www.w3.org/1999/xlink"
     width="250" height="250" viewBox="-125.0 -125.0 250 250">
<defs>
</defs>
<path d="M0.0,-0.0 l3.0,-0.0 l6.19687720480653,-0.4949218293834212 l1.8031227951934703,0.4949218293834212 l5.379162974066666,-2.135745674802708 l2.4955440396750532,-0.5714147255981157 l0.12529298625828034,2.7071604004008236 l4.286687883325886,-5.260638232387735 l1.276242708960325,-2.6187451500790404 l1.437069407713789,7.879383382466775 l10.0,-0.0 l8.0,-0.0 l6.0,-0.0 l0.0,-0.0 l0.0,-8.0 l-7.4194280347196795,-0.41876409614158305 l7.4194280347196795,-1.581235903858417 l0.0,-2.0 l-7.250882364938903,-0.18154944861098699 l4.206480187669783,-1.2425310071927846 l1.7848830540217975,-0.936750599169045 l0.21762093184746334,-13.841237071056938 l1.0418981913998593,-9.797931873970246 l0.0,-5.0 l-2.0,-5.0 l-6.0,6.0 l-12.0,12.0 l-6.0,6.0 l-7.0,7.0 l-3.0,3.0 l-10.39877532132058,13.641163608407387 Z" stroke-width="1" stroke="grey" fill="orange" fill-opacity="0" />
</svg>