<?xml version="1.0" encoding="UTF-8"?>
<svg xmlns="http://www.w3.org/2000/svg" xmlns:xlink="http://www.w3.org/1999/xlink"
     width="250" height="250" viewBox="-125.0 -125.0 250 250">
<defs>
</defs>
<path d="M0.0,-0.0 l22.816882377733688,-12.705182892231992 l4.1831176222663125,12.705182892231992 l7.0,-0.0 l9.0,-0.0 l0.0,-0.0 l4.0,-0.0 l2.0,-0.0 l1.0,-5.0 l0.0,-8.0 l0.0,-8.0 l-14.50394013981709,-1.4931845154327625 l14.50394013981709,-4.5068154845672375 l0.0,-17.0 l0.0,-5.0 l-1.0,-0.0 l-2.0,2.0 l-6.184096091652691,6.734914716999391 l-1.815903908347309,1.2650852830006087 l-13.0,13.0 l-2.1866281642277663,8.007543595623574 l-7.275676532444308,9.454297965123438 l-1.7802960392704552,0.3406573342823531 l-2.3534836825508556,3.3743803889887705 l-0.4039155815066149,-7.176879284018135 l-1.396558596764569,7.604322267388209 l-0.46278139740548596,0.9328056836358951 l-1.6952725176921657,1.215283121785507 l-3.8976014719221412,0.14316782835147723 l-1.547786016215638,-0.8955789011610884 Z" stroke-width="1" stroke="grey" fill="blue" fill-opacity="0" />
</svg>