<?xml version="1.0" encoding="UTF-8"?>
<svg xmlns="http://www.w3.org/2000/svg" xmlns:xlink="http://www.w3.org/1999/xlink"
     width="250" height="250" viewBox="-125.0 -125.0 250 250">
<defs>
</defs>
<path d="M0.0,-0.0 l2.0,-0.0 l9.222335885669155,-2.313066029838301 l2.942246666232112,-0.8182161572308932 l0.4965712353602374,-0.30847212864473894 l1.4423093034295462,-1.6704979244509204 l1.094522451470425,-0.3729857499307041 l8.802014457838524,5.4832379900955575 l3.0,-0.0 l2.2338707434706535,-14.072535161542515 l1.61515557643353,-2.1166906742330873 l2.1509736800958166,16.189225835775602 l3.0,-0.0 l12.0,-0.0 l0.0,-4.0 l0.0,-14.0 l0.0,-4.0 l-11.939159653675738,-6.7314442391235865 l2.4123727596843523,-2.8391462009276296 l9.526786893991385,-4.429409559948784 l0.0,-2.0 l-1.824968581480917,-8.595294220098218 l-3.3097039081958144,8.500909956924623 l-3.650079030040409,2.3974734262124073 l-0.2152484802828596,-5.303089163038813 l-3.0,3.0 l-16.83854483719088,24.39866917628398 l-5.161455162809119,-2.3986691762839794 l-2.0,2.0 l0.0,-0.0 l-8.55635406842543,12.092564316679423 l-0.2144520566113366,0.35441151286133965 l-3.0287043615081557,0.9904972337019571 l-1.3604805383765182,0.1890069006273128 Z" stroke-width="1" stroke="grey" fill="brown" fill-opacity="0" />
</svg>