<?xml version="1.0" encoding="UTF-8"?>
<svg xmlns="http://www.w3.org/2000/svg" xmlns:xlink="http://www.w3.org/1999/xlink"
     width="250" height="250" viewBox="-125.0 -125.0 250 250">
<defs>
</defs>
<path d="M0.0,-0.0 l7.0,-0.0 l2.0,-0.0 l3.0,-0.0 l2.296015144040247,-4.181702768589815 l1.575119484708038,-1.2073530592347934 l9.378641017983279,-6.305606462979383 l1.5961501536080789,-1.3042430686506048 l1.1540741996603572,12.998905359454596 l12.0,-0.0 l10.0,-1.0 l0.0,-5.0 l0.0,-2.0 l-9.646984581668342,-5.883005386657482 l4.336012307991027,-10.59417443639539 l5.310972273677315,-6.522820176947128 l0.0,-6.0 l0.0,-13.0 l-29.0,29.0 l-2.0,2.0 l-4.0,4.0 l-3.871630081981772,11.381192422822318 l-0.7919322016960901,0.7936332844467917 l-0.3364377163221377,-7.174825707269109 l-2.4027880409566524,7.436517470767043 l-0.41786084784407507,0.6500161437988412 l-1.1793511111992725,-4.0865336145658855 l-1.0671768360260847,4.605633954348104 l-1.9109304160033593,0.42517042171653463 l-0.6995438539593501,0.12433746190996076 l-0.5656012695736679,0.089780673639267 Z" stroke-width="1" stroke="grey" fill="purple" fill-opacity="0" />
</svg>