<?xml version="1.0" encoding="UTF-8"?>
<svg xmlns="http://www.w3.org/2000/svg" xmlns:xlink="http://www.w3.org/1999/xlink"
     width="250" height="250" viewBox="-125.0 -125.0 250 250">
<defs>
</defs>
<path d="M0.0,-0.0 l12.142033368603022,-1.884244492274048 l4.465761233673584,-0.9189203234227743 l0.7897954383910673,-1.160570635085588 l2.602409959332327,3.9637354507824103 l3.0,-0.0 l2.6090458339314075,-8.631885775852123 l0.9364662849462455,-1.0863111672465884 l0.0956124857223628,-0.04643895002894993 l0.8354576476520919,-0.2948307678879143 l3.5234177477478923,10.059466661015575 l0.8100812700348072,-12.107977543203186 l15.189918729965193,12.107977543203186 l2.0,-0.0 l1.0,-0.0 l0.0,-12.0 l-11.230756929308576,-4.678590703862632 l2.162403655524244,-1.6899674308232981 l0.29389531400990165,-0.378871210245034 l0.2315421298153808,-0.9248037623550687 l0.6664141109329265,-1.6853009513295092 l2.3234501873405833,-1.6770912234555766 l5.55305153168554,-9.965374717928881 l0.0,-1.0 l-2.821112209571332,-2.9732646452691256 l2.821112209571332,-13.026735354730874 l0.0,-0.0 l-0.748229623744578,2.0311263500706715 l-1.1684957749526674,7.3516825437778905 l-5.0832746013027545,-2.382808893848562 l-12.0,12.0 l-8.0,8.0 l-2.0,2.0 l-6.0,6.0 l-8.922343020850523,13.417564359142323 l-0.047984379338882555,0.13044459637305272 l-2.233213563637105,0.6001127981342724 Z" stroke-width="1" stroke="grey" fill="purple" fill-opacity="0" />
</svg>