<?xml version="1.0" encoding="UTF-8"?>
<svg xmlns="http://www.w3.org/2000/svg" xmlns:xlink="http://www.w3.org/1999/xlink"
     width="250" height="250" viewBox="-125.0 -125.0 250 250">
<defs>
</defs>
<path d="M0.0,-0.0 l3.0,-0.0 l3.0,-0.0 l10.0,-0.0 l3.0,-0.0 l12.0,-0.0 l1.0,-0.0 l10.0,-0.0 l8.0,-0.0 l0.0,-0.0 l0.0,-0.0 l0.0,-8.0 l0.0,-2.0 l0.0,-2.0 l-11.622684359686055,-6.75592093988265 l11.622684359686055,-1.2440790601173504 l0.0,-3.0 l0.0,-15.0 l0.0,-7.0 l-9.0,4.0 l-1.0,1.0 l-2.0,2.0 l-8.0,8.0 l-1.0,1.0 l-2.6380683230500424,10.458199201074098 l-7.361931676949958,-0.4581992010740983 l-1.356414506178318,4.958758392472049 l-1.643585493821682,-1.958758392472049 l-5.0,5.0 Z" stroke-width="1" stroke="grey" fill="pink" fill-opacity="0" />
</svg>