<?xml version="1.0" encoding="UTF-8"?>
<svg xmlns="http://www.w3.org/2000/svg" xmlns:xlink="http://www.w3.org/1999/xlink"
     width="250" height="250" viewBox="-125.0 -125.0 250 250">
<defs>
</defs>
<path d="M0.0,-0.0 l1.0,-0.0 l5.0,-0.0 l0.0,-0.0 l0.0,-0.0 l5.471493042730424,-1.6180082743014919 l1.6945075707594803,-1.1662891929159813 l1.392014497318316,-2.0931986995778935 l0.5776303308818722,-0.06762646708059528 l1.5796518734129972,-0.6423914107472593 l3.5051932038203546,-2.1900588149391966 l0.2108144427159253,-0.27442534917069406 l0.40700423601195723,-4.087748349455962 l8.166873959594316,-0.36390323146033765 l4.994816842754357,12.503649789649412 l0.0,-0.0 l15.0,-0.0 l1.0,-0.0 l-8.283117289158028,-12.53852711179736 l3.0067152853942076,-1.8397181671266924 l2.3109707582441956,-2.2203593469063208 l1.3885066362318241,-6.263229894550875 l1.5769246092878006,-5.138165479618753 l0.0,-7.0 l0.0,-3.0 l-0.8619245629426047,-2.936174427687206 l0.8619245629426047,-3.063825572312794 l0.0,-1.0 l0.0,-2.0 l0.0,-3.0 l-16.0,16.0 l-1.0,1.0 l0.0,-0.0 l-3.0,3.0 l-5.0,5.0 l-2.0,2.0 l-11.0,11.0 l-4.608551686644863,11.403462725937649 l-0.299039296452853,0.16027964433922154 l-1.511454920549265,0.08606418201808491 l-0.5371909263575336,0.19361140467730464 l-3.3581121313630833,0.1383334199613201 Z" stroke-width="1" stroke="grey" fill="yellow" fill-opacity="0" />
</svg>