<?xml version="1.0" encoding="UTF-8"?>
<svg xmlns="http://www.w3.org/2000/svg" xmlns:xlink="http://www.w3.org/1999/xlink"
     width="250" height="250" viewBox="-125.0 -125.0 250 250">
<defs>
</defs>
<path d="M0.0,-0.0 l13.479055366922143,-4.763024537090314 l0.5209446330778569,4.763024537090314 l1.2138720932672555,-4.779974051894889 l0.0018698146369686697,-0.5194041197592449 l0.1453903772405436,-0.13573788690223498 l0.13044875789641885,-0.5211343213757784 l0.13364487413817017,-0.009955708224475224 l0.2905407632682273,-0.6135582873336798 l1.6287418224378865,-0.16337447402139027 l1.5335086391872466,-0.23837091131271393 l0.7943154493915543,-0.26356206213636213 l0.7430949842264027,-0.03082952566656516 l1.3827965053859437,-0.16788557700234108 l0.001775918923382136,7.443786925629675 l0.17946889830845691,-7.584617437439205 l0.26130276098055205,-0.11397003516226878 l0.2991474574716726,-0.8249208134916381 l1.651925883771348,-0.6175737336573786 l0.05631566958287948,-1.176093095140784 l0.25437289165662946,-1.5191479229981333 l1.4054658868064465,-0.1734309047886562 l0.9749377592726063,-3.3827337267742372 l2.68081521006582,-1.6829254197630945 l1.236247582083589,17.075413089215395 l1.3787935308346704,-17.444954976824643 l10.62120646916533,17.444954976824643 l5.0,-0.0 l2.0,-1.0 l0.0,-2.0 l0.0,-4.0 l-17.589764567472265,-10.769891764502681 l2.525851816339376,-0.17867656758480166 l5.711000577615806,-0.6693002600125908 l0.1401203970679461,-0.9526399896147417 l0.19931045541135006,-0.6979479745919228 l3.688758250455109,-0.3562099058258177 l0.18265043993752528,-1.0650247949787008 l0.48255537629628265,-4.078636238153635 l2.3818993294900253,-0.0209452326997166 l2.277617924858845,-1.2107272720353919 l-1.9091610285989447,-7.509905358847753 l0.39083052384318506,-0.7274236742869604 l0.7967298185598821,-0.7935662845060563 l0.043648317168646145,-4.398725946184463 l0.6779523690272313,-0.5703787361747672 l0.0,-9.0 l-18.0,18.0 l-10.0,10.0 l-9.0,9.0 l-1.3844896393811084,8.277715573455898 l-0.08777985513748732,0.6960900150120501 l-0.45901852036566737,0.4215649646000208 l-0.03947748580627142,0.12861319574128904 l-0.44745216603963023,0.20626817821311905 l-0.9823481932300542,0.40844636842293625 l-1.1008036470170737,0.22321435551108504 l-0.005058201386527017,0.4713813238953164 l-0.3404201499165911,0.10493334911084995 l-0.7161045876920076,0.08395565684768669 l-1.4370475540275818,-4.022182980810252 l-1.825232173490921,4.580861735593772 l-1.0951058889914043,0.47635190488709567 l-0.8963893846045012,0.614762164342493 l-1.6726733311593467,0.23697054101244447 l-0.3725475414172452,0.030412240860936204 l-0.13805168033658166,0.06064141330325845 Z" stroke-width="1" stroke="grey" fill="purple" fill-opacity="0" />
</svg>