<?xml version="1.0" encoding="UTF-8"?>
<svg xmlns="http://www.w3.org/2000/svg" xmlns:xlink="http://www.w3.org/1999/xlink"
     width="250" height="250" viewBox="-125.0 -125.0 250 250">
<defs>
</defs>
<path d="M0.0,-0.0 l17.47304831417883,-3.1464043794507237 l0.738174379696261,-0.18729610401078656 l4.01516304142045,-3.5158675129315506 l2.7736142647044595,6.849567996393061 l0.15565098303857994,-15.275091968566013 l1.3362223003716487,-2.698835996377891 l3.4884003526630174,-1.8742990152983516 l1.019726363926754,19.848226980242256 l12.0,-0.0 l7.0,-0.0 l0.0,-3.0 l-10.08524505037213,-17.73911703922579 l0.6403037388119586,-1.643787428948265 l4.387396091079069,-2.845394568329457 l0.8990131320214587,-0.55634098199722 l0.8430735824332132,-0.78658325856712 l0.6596567412382512,-2.9041012533358384 l1.4342335129849886,-7.599848826256235 l1.2215682518031912,-2.924826643340076 l0.0,-1.0 l-4.0,-5.0 l-22.0,22.0 l-1.0,1.0 l-14.265278118489674,20.69931735260517 l-0.20309400026381574,0.6180955538411343 l-0.6227207801257997,0.13604537777712888 l-7.4005745990711205,1.3872538130112346 l-0.26039722213949124,0.15657721302396171 Z" stroke-width="1" stroke="grey" fill="brown" fill-opacity="0" />
</svg>