<?xml version="1.0" encoding="UTF-8"?>
<svg xmlns="http://www.w3.org/2000/svg" xmlns:xlink="http://www.w3.org/1999/xlink"
     width="250" height="250" viewBox="-125.0 -125.0 250 250">
<defs>
</defs>
<path d="M0.0,-0.0 l5.0,-0.0 l0.0,-0.0 l7.0,-0.0 l2.0,-0.0 l7.507951657990333,-5.015858803660573 l0.38166718464608707,-0.05452708077963209 l3.173315717161632,-0.729986709616222 l3.5790137234096484,-0.3875697346392508 l0.7277364914600426,-12.34647210168779 l2.6303152253322573,18.534414430383467 l18.0,-0.0 l0.0,-6.0 l0.0,-11.0 l-10.874114337863844,-8.044845930932063 l5.889683374639915,-0.8834988190724538 l4.984430963223929,-0.07165524999548367 l0.0,-7.0 l-2.3493593845916863,-5.933671403388445 l2.3493593845916863,-5.066328596611555 l0.0,-6.0 l-1.6539246761186206,5.510440197845902 l-27.34607532388138,23.489559802154098 l-10.0,10.0 l-1.0,1.0 l-0.1910928200062525,6.116727879007435 l-0.8089071799937475,-5.116727879007435 l-2.201333384772205,5.19309813467371 l-0.780360278040038,1.9518842910265342 l-0.9112961478101091,0.6960185919849495 l-1.9960592267791566,0.6934365313401363 l-0.06594472485168534,0.0737495066733499 l-2.0450062377468057,-0.6081870556986804 l-0.29449916855711544,0.7277282994465015 l-0.19843576451257783,0.14534999647244468 Z" stroke-width="1" stroke="grey" fill="blue" fill-opacity="0" />
</svg>