<?xml version="1.0" encoding="UTF-8"?>
<svg xmlns="http://www.w3.org/2000/svg" xmlns:xlink="http://www.w3.org/1999/xlink"
     width="250" height="250" viewBox="-125.0 -125.0 250 250">
<defs>
</defs>
<path d="M0.0,-0.0 l5.0,-0.0 l0.0,-0.0 l9.0,-0.0 l0.8420940335686424,-5.732078645080681 l11.255535838069726,-10.280632035045493 l3.418330813140173,-1.4541683500644247 l2.484039315221459,17.466879030190597 l1.0,-0.0 l3.0,-0.0 l10.0,-0.0 l4.0,-0.0 l0.0,-6.0 l0.0,-0.0 l0.0,-4.0 l0.0,-1.0 l-14.234068580780082,-8.7786938288295 l14.234068580780082,-0.22130617117050022 l-13.803330748811916,-1.030079439041451 l3.7870388502767725,-2.4995193365234165 l10.016291898535144,-1.4704012244351325 l-7.870009947421373,-0.5984822866062736 l1.699553254728329,-0.24167800256535799 l0.5013394874700623,-7.419891319283867 l0.5532712878089612,-1.6188267221075563 l5.1158459174140205,-7.1211216694369455 l0.0,-8.0 l-12.0,12.0 l-5.0,5.0 l-3.0,3.0 l-8.065028888235695,15.529724982249888 l-1.9349711117643054,-5.529724982249888 l-3.742244326198211,6.738618832897755 l-0.684206830819809,4.866725767471216 l-1.57354884298198,-5.605344600368971 l-3.0,3.0 l-1.1347573249160767,5.38378564234949 l-5.865242675083923,1.6162143576505104 l-2.0203135853352503,2.07184829094265 l-0.3216592848420352,0.518050402448683 Z" stroke-width="1" stroke="grey" fill="purple" fill-opacity="0" />
</svg>