<?xml version="1.0" encoding="UTF-8"?>
<svg xmlns="http://www.w3.org/2000/svg" xmlns:xlink="http://www.w3.org/1999/xlink"
     width="250" height="250" viewBox="-125.0 -125.0 250 250">
<defs>
</defs>
<path d="M0.0,-0.0 l15.0,-0.0 l9.98070459357045,-5.181761905512252 l1.314934180950349,-6.1665258670386915 l3.7043612254792,11.348287772550943 l1.0,-0.0 l1.0,-0.0 l1.0,-0.0 l6.0,-0.0 l7.0,-0.0 l4.0,-0.0 l0.0,-20.0 l0.0,-2.0 l0.0,-2.0 l0.0,-0.0 l-4.512628640515906,-0.6303542813505167 l4.512628640515906,-1.3696457186494833 l-1.2685342592836903,-1.311661643933327 l1.2685342592836903,-3.688338356066673 l0.0,-4.0 l0.0,-11.0 l0.0,-4.0 l-0.21341552013272747,6.418731146890316 l-0.7865844798672725,-5.418731146890316 l-5.0,5.0 l-8.0,8.0 l-11.0,11.0 l-4.0,4.0 l-1.0,1.0 l-5.0,5.0 l-2.3035277381253536,9.820977752697617 l-5.468705851478705,2.4070343757711337 l-1.6553046460831995,0.791334838647757 l-1.8065659680106538,0.20964553313539702 l-0.5411096802543311,0.18922831652167305 l-0.22478611604775667,-1.418220816773578 l-0.12229245600579874,1.9080437747914876 l-0.3029619754408741,0.05985706425919135 Z" stroke-width="1" stroke="grey" fill="blue" fill-opacity="0" />
</svg>