<?xml version="1.0" encoding="UTF-8"?>
<svg xmlns="http://www.w3.org/2000/svg" xmlns:xlink="http://www.w3.org/1999/xlink"
     width="250" height="250" viewBox="-125.0 -125.0 250 250">
<defs>
</defs>
<path d="M0.0,-0.0 l11.0,-0.0 l1.0,-0.0 l3.0,-0.0 l10.0,-0.0 l1.0,-0.0 l7.786584425949314,-6.562408300573614 l0.686183411602812,-3.684499926620127 l0.9270161497375398,-3.410280672518292 l2.6002160127103338,13.657188899712033 l5.0,-0.0 l7.0,-0.0 l0.0,-0.0 l0.0,-3.0 l0.0,-3.0 l0.0,-9.0 l0.0,-1.0 l-12.933614064577824,-3.49963658424171 l12.933614064577824,-3.50036341575829 l0.0,-1.0 l-7.060085375115435,-1.5311525859499682 l0.012433982413568856,-2.993500318281228 l4.488825290589332,-12.448528710455193 l-0.41656178001512245,1.6462006149432185 l-2.111328213750177,2.253684255309608 l-1.6313376584570136,0.9640849819104034 l-0.2819462456651536,-6.8907882374768405 l-7.0,7.0 l-2.0,2.0 l-6.0,6.0 l-5.0,5.0 l-12.0,12.0 l0.0,-0.0 l-0.2387948899363579,4.77143808034964 l-0.6291681735202932,0.7588937495620369 l-3.3609339747290807,2.4999376521280756 Z" stroke-width="1" stroke="grey" fill="pink" fill-opacity="0" />
</svg>