<?xml version="1.0" encoding="UTF-8"?>
<svg xmlns="http://www.w3.org/2000/svg" xmlns:xlink="http://www.w3.org/1999/xlink"
     width="250" height="250" viewBox="-125.0 -125.0 250 250">
<defs>
</defs>
<path d="M0.0,-0.0 l2.0,-0.0 l13.0,-0.0 l1.0,-0.0 l0.9306843783204215,-8.916473292693397 l6.462069233905165,-0.3500585137418124 l1.5421389964835157,-1.5139447779745723 l0.06510739129089771,10.780476584409781 l3.43700278609721,-10.924990802860265 l0.5629972139027899,10.924990802860265 l2.452431113875477,-17.031067867105715 l4.547568886124523,17.031067867105715 l12.0,-0.0 l2.0,-0.0 l0.0,-3.0 l0.0,-9.0 l0.0,-3.0 l0.0,-2.0 l-9.665138882631808,-5.08612697061006 l9.665138882631808,-1.91387302938994 l-8.097102134974065,-1.1769192891930942 l1.103985921676653,-0.04070103794968105 l6.993116213297412,-3.7823796728572248 l0.0,-6.0 l-4.21142361303599,-2.1274792242477076 l4.21142361303599,-1.8725207757522924 l0.0,-11.0 l-1.0,1.0 l-1.0,1.0 l-2.0,2.0 l-22.0,22.0 l-9.0,9.0 l-3.069275573639427,9.537570796353783 l-4.458445714189747,2.1216432877260565 l-0.2998786582801607,2.660389622020562 l-2.172400053890666,-4.319603706100401 l-1.0,1.0 l-3.0,3.0 Z" stroke-width="1" stroke="grey" fill="yellow" fill-opacity="0" />
</svg>