<?xml version="1.0" encoding="UTF-8"?>
<svg xmlns="http://www.w3.org/2000/svg" xmlns:xlink="http://www.w3.org/1999/xlink"
     width="250" height="250" viewBox="-125.0 -125.0 250 250">
<defs>
</defs>
<path d="M0.0,-0.0 l2.0,-0.0 l0.0,-0.0 l10.2291358480347,-4.124300689440852 l3.7708641519653003,4.124300689440852 l0.920383168094645,-4.642226810648859 l14.563701243150405,-0.45129359828787674 l2.7193956961971466,-3.148166399716362 l2.0127351703287317,-0.31909998706670706 l0.15812009664609405,-4.115554351875614 l1.6256646255829779,12.67634114759542 l7.0,-0.0 l-7.666307727365357,-14.256795488947288 l12.666307727365357,-6.743204511052712 l0.0,-2.0 l0.0,-4.0 l-7.763311901222323,-0.46355573156794705 l7.763311901222323,-1.536444268432053 l-6.5693637888414145,-2.4197692374984676 l0.0193559321755572,-1.201710273055074 l5.611605262554171,-3.7144024562883544 l0.938402594111686,-4.664118033158104 l0.0,-9.0 l-12.0,12.0 l-3.0,3.0 l-12.0,12.0 l-2.0,2.0 l-9.497460381068343,16.9771542586547 l-2.1999529341632975,0.09796228701041443 l-0.5523014524982592,0.5946461336855999 l-2.627116690669757,1.6708700991987833 l-0.7910118508730966,0.20946806713490052 l-0.3321566907272464,-3.5501008456843963 l-0.84632503710277,3.593266780957256 l-3.5932755897601476,1.289893039818884 l-0.2559412005756212,0.038135721869725914 Z" stroke-width="1" stroke="grey" fill="orange" fill-opacity="0" />
</svg>