<?xml version="1.0" encoding="UTF-8"?>
<svg xmlns="http://www.w3.org/2000/svg" xmlns:xlink="http://www.w3.org/1999/xlink"
     width="250" height="250" viewBox="-125.0 -125.0 250 250">
<defs>
</defs>
<path d="M0.0,-0.0 l2.0,-0.0 l9.38213636693176,-2.5599641612303325 l2.096951503750306,-1.9385698321402463 l2.0621385943502766,-0.22508002634262514 l2.0827632199851482,-0.8349720484891554 l0.14737718351579687,-2.7150375660509614 l3.2286331314667116,8.27362363425332 l2.0,-0.0 l1.6870889947805168,-12.231306428077177 l1.3129110052194832,12.231306428077177 l7.0,-0.0 l2.620766206593771,-13.102206839978821 l14.379233793406229,13.102206839978821 l0.0,-2.0 l0.0,-3.0 l-1.0737646067929774,-8.433688377668144 l1.0737646067929774,-22.566311622331856 l0.0,-5.0 l0.0,-9.0 l0.0,-0.0 l-3.0,3.0 l-23.0,23.0 l-1.0,1.0 l-3.976533268809483,11.660613976599054 l-2.023466731190517,-5.660613976599054 l-5.024828964294416,12.744766127255037 l-4.834667146281313,2.7348852775335946 l-2.140503889424271,-3.4796514047886307 l-0.9862850350890922,3.7284469178919277 Z" stroke-width="1" stroke="grey" fill="yellow" fill-opacity="0" />
</svg>