<?xml version="1.0" encoding="UTF-8"?>
<svg xmlns="http://www.w3.org/2000/svg" xmlns:xlink="http://www.w3.org/1999/xlink"
     width="250" height="250" viewBox="-125.0 -125.0 250 250">
<defs>
</defs>
<path d="M1.3234069929808947,96.97295081315752 L3.0,97.0 L2.0,98.0" fill-opacity="0" stroke="black" stroke-width="1" />
<path d="M1.3234069929808947,-96.97295081315752 L3.0,-97.0 L2.0,-98.0" fill-opacity="0" stroke="black" stroke-width="1" />
<path d="M22.0,78.0 L11.0,89.0 L2.463561750366295,91.05657689926814" fill-opacity="0" stroke="black" stroke-width="1" />
<path d="M22.0,-78.0 L11.0,-89.0 L2.463561750366295,-91.05657689926814" fill-opacity="0" stroke="black" stroke-width="1" />
<path d="M11.0,-0.0 L11.880036674138584,-3.0104834698635785 L12.0,-0.0" fill-opacity="0" stroke="black" stroke-width="1" />
<path d="M11.0,-0.0 L11.880036674138584,3.0104834698635785 L12.0,-0.0" fill-opacity="0" stroke="black" stroke-width="1" />
<path d="M15.0,-0.0 L16.648319284731013,-4.1397115696970745 L18.485766987062636,-6.22913071758092" fill-opacity="0" stroke="black" stroke-width="1" />
<path d="M15.0,-0.0 L16.648319284731013,4.1397115696970745 L18.485766987062636,6.22913071758092" fill-opacity="0" stroke="black" stroke-width="1" />
<path d="M16.648319284731013,-4.1397115696970745 L18.485766987062636,-6.22913071758092 L22.0,-0.0" fill-opacity="0" stroke="black" stroke-width="1" />
<path d="M16.648319284731013,4.1397115696970745 L18.485766987062636,6.22913071758092 L22.0,-0.0" fill-opacity="0" stroke="black" stroke-width="1" />
<path d="M25.18339824441403,67.68352779005524 L22.0,78.0 L11.0,89.0" fill-opacity="0" stroke="black" stroke-width="1" />
<path d="M25.18339824441403,-67.68352779005524 L22.0,-78.0 L11.0,-89.0" fill-opacity="0" stroke="black" stroke-width="1" />
<path d="M22.0,-0.0 L27.49296705398882,-6.2603361496944325 L28.158432237681254,-14.845065423196152" fill-opacity="0" stroke="black" stroke-width="1" />
<path d="M22.0,-0.0 L27.49296705398882,6.2603361496944325 L28.158432237681254,14.845065423196152" fill-opacity="0" stroke="black" stroke-width="1" />
<path d="M27.49296705398882,-6.2603361496944325 L28.158432237681254,-14.845065423196152 L28.36320359945603,-15.522210066666469" fill-opacity="0" stroke="black" stroke-width="1" />
<path d="M27.49296705398882,6.2603361496944325 L28.158432237681254,14.845065423196152 L28.36320359945603,15.522210066666469" fill-opacity="0" stroke="black" stroke-width="1" />
<path d="M28.158432237681254,-14.845065423196152 L28.36320359945603,-15.522210066666469 L33.0,-0.0" fill-opacity="0" stroke="black" stroke-width="1" />
<path d="M28.158432237681254,14.845065423196152 L28.36320359945603,15.522210066666469 L33.0,-0.0" fill-opacity="0" stroke="black" stroke-width="1" />
<path d="M50.0,-16.0 L29.640130834978702,-21.604894426378955 L50.0,-23.0" fill-opacity="0" stroke="black" stroke-width="1" />
<path d="M50.0,16.0 L29.640130834978702,21.604894426378955 L50.0,23.0" fill-opacity="0" stroke="black" stroke-width="1" />
<path d="M50.0,-23.0 L31.982212078834483,-23.923404867924898 L38.0991058597034,-25.529221070207438" fill-opacity="0" stroke="black" stroke-width="1" />
<path d="M50.0,23.0 L31.982212078834483,23.923404867924898 L38.0991058597034,25.529221070207438" fill-opacity="0" stroke="black" stroke-width="1" />
<path d="M31.982212078834483,-23.923404867924898 L38.0991058597034,-25.529221070207438 L50.0,-29.0" fill-opacity="0" stroke="black" stroke-width="1" />
<path d="M31.982212078834483,23.923404867924898 L38.0991058597034,25.529221070207438 L50.0,29.0" fill-opacity="0" stroke="black" stroke-width="1" />
<path d="M50.0,-38.0 L46.24255218972087,-38.85782831260671 L44.0,-44.0" fill-opacity="0" stroke="black" stroke-width="1" />
<path d="M50.0,38.0 L46.24255218972087,38.85782831260671 L44.0,44.0" fill-opacity="0" stroke="black" stroke-width="1" />
<path d="M38.85782831260671,53.75744781027913 L44.0,56.0 L37.0,63.0" fill-opacity="0" stroke="black" stroke-width="1" />
<path d="M38.85782831260671,-53.75744781027913 L44.0,-56.0 L37.0,-63.0" fill-opacity="0" stroke="black" stroke-width="1" />
<path d="M44.0,56.0 L37.0,63.0 L25.18339824441403,67.68352779005524" fill-opacity="0" stroke="black" stroke-width="1" />
<path d="M44.0,-56.0 L37.0,-63.0 L25.18339824441403,-67.68352779005524" fill-opacity="0" stroke="black" stroke-width="1" />
<path d="M37.0,-37.0 L32.31647220994476,-25.18339824441403 L22.0,-22.0" fill-opacity="0" stroke="black" stroke-width="1" />
<path d="M37.0,37.0 L32.31647220994476,25.18339824441403 L22.0,22.0" fill-opacity="0" stroke="black" stroke-width="1" />
<path d="M11.0,-11.0 L8.943423100731867,-2.463561750366295 L8.0,-8.0" fill-opacity="0" stroke="black" stroke-width="1" />
<path d="M11.0,11.0 L8.943423100731867,2.463561750366295 L8.0,8.0" fill-opacity="0" stroke="black" stroke-width="1" />
<path d="M8.0,-8.0 L6.5271621010298375,-2.359501749917485 L3.728648118810712,-1.9384644932497364" fill-opacity="0" stroke="black" stroke-width="1" />
<path d="M8.0,8.0 L6.5271621010298375,2.359501749917485 L3.728648118810712,1.9384644932497364" fill-opacity="0" stroke="black" stroke-width="1" />
<path d="M6.5271621010298375,-2.359501749917485 L3.728648118810712,-1.9384644932497364 L3.027049186842479,-1.3234069929808947" fill-opacity="0" stroke="black" stroke-width="1" />
<path d="M6.5271621010298375,2.359501749917485 L3.728648118810712,1.9384644932497364 L3.027049186842479,1.3234069929808947" fill-opacity="0" stroke="black" stroke-width="1" />
<path d="M3.728648118810712,-1.9384644932497364 L3.027049186842479,-1.3234069929808947 L3.0,-3.0" fill-opacity="0" stroke="black" stroke-width="1" />
<path d="M3.728648118810712,1.9384644932497364 L3.027049186842479,1.3234069929808947 L3.0,3.0" fill-opacity="0" stroke="black" stroke-width="1" />
<path d="M3.0,97.0 L2.0,98.0 L0.3874883338723786,98.83936954088009" fill-opacity="0" stroke="black" stroke-width="1" />
<path d="M3.0,-97.0 L2.0,-98.0 L0.3874883338723786,-98.83936954088009" fill-opacity="0" stroke="black" stroke-width="1" />
<path d="M2.0,-2.0 L1.1606304591199046,-0.3874883338723786 L0.19149279777450623,-0.01755727789145591" fill-opacity="0" stroke="black" stroke-width="1" />
<path d="M2.0,2.0 L1.1606304591199046,0.3874883338723786 L0.19149279777450623,0.01755727789145591" fill-opacity="0" stroke="black" stroke-width="1" />
<path d="M1.1606304591199046,-0.3874883338723786 L0.19149279777450623,-0.01755727789145591 L0.0,-0.0" fill-opacity="0" stroke="black" stroke-width="1" />
<path d="M1.1606304591199046,0.3874883338723786 L0.19149279777450623,0.01755727789145591 L0.0,-0.0" fill-opacity="0" stroke="black" stroke-width="1" />
<path d="M-1.3234069929808947,96.97295081315752 L-3.0,97.0 L-2.0,98.0" fill-opacity="0" stroke="black" stroke-width="1" />
<path d="M-1.3234069929808947,-96.97295081315752 L-3.0,-97.0 L-2.0,-98.0" fill-opacity="0" stroke="black" stroke-width="1" />
<path d="M-22.0,78.0 L-11.0,89.0 L-2.463561750366295,91.05657689926814" fill-opacity="0" stroke="black" stroke-width="1" />
<path d="M-22.0,-78.0 L-11.0,-89.0 L-2.463561750366295,-91.05657689926814" fill-opacity="0" stroke="black" stroke-width="1" />
<path d="M-11.0,-0.0 L-11.880036674138584,-3.0104834698635785 L-12.0,-0.0" fill-opacity="0" stroke="black" stroke-width="1" />
<path d="M-11.0,-0.0 L-11.880036674138584,3.0104834698635785 L-12.0,-0.0" fill-opacity="0" stroke="black" stroke-width="1" />
<path d="M-15.0,-0.0 L-16.648319284731013,-4.1397115696970745 L-18.485766987062636,-6.22913071758092" fill-opacity="0" stroke="black" stroke-width="1" />
<path d="M-15.0,-0.0 L-16.648319284731013,4.1397115696970745 L-18.485766987062636,6.22913071758092" fill-opacity="0" stroke="black" stroke-width="1" />
<path d="M-16.648319284731013,-4.1397115696970745 L-18.485766987062636,-6.22913071758092 L-22.0,-0.0" fill-opacity="0" stroke="black" stroke-width="1" />
<path d="M-16.648319284731013,4.1397115696970745 L-18.485766987062636,6.22913071758092 L-22.0,-0.0" fill-opacity="0" stroke="black" stroke-width="1" />
<path d="M-25.18339824441403,67.68352779005524 L-22.0,78.0 L-11.0,89.0" fill-opacity="0" stroke="black" stroke-width="1" />
<path d="M-25.18339824441403,-67.68352779005524 L-22.0,-78.0 L-11.0,-89.0" fill-opacity="0" stroke="black" stroke-width="1" />
<path d="M-22.0,-0.0 L-27.49296705398882,-6.2603361496944325 L-28.158432237681254,-14.845065423196152" fill-opacity="0" stroke="black" stroke-width="1" />
<path d="M-22.0,-0.0 L-27.49296705398882,6.2603361496944325 L-28.158432237681254,14.845065423196152" fill-opacity="0" stroke="black" stroke-width="1" />
<path d="M-27.49296705398882,-6.2603361496944325 L-28.158432237681254,-14.845065423196152 L-28.36320359945603,-15.522210066666469" fill-opacity="0" stroke="black" stroke-width="1" />
<path d="M-27.49296705398882,6.2603361496944325 L-28.158432237681254,14.845065423196152 L-28.36320359945603,15.522210066666469" fill-opacity="0" stroke="black" stroke-width="1" />
<path d="M-28.158432237681254,-14.845065423196152 L-28.36320359945603,-15.522210066666469 L-33.0,-0.0" fill-opacity="0" stroke="black" stroke-width="1" />
<path d="M-28.158432237681254,14.845065423196152 L-28.36320359945603,15.522210066666469 L-33.0,-0.0" fill-opacity="0" stroke="black" stroke-width="1" />
<path d="M-50.0,-16.0 L-29.640130834978702,-21.604894426378955 L-50.0,-23.0" fill-opacity="0" stroke="black" stroke-width="1" />
<path d="M-50.0,16.0 L-29.640130834978702,21.604894426378955 L-50.0,23.0" fill-opacity="0" stroke="black" stroke-width="1" />
<path d="M-50.0,-23.0 L-31.982212078834483,-23.923404867924898 L-38.0991058597034,-25.529221070207438" fill-opacity="0" stroke="black" stroke-width="1" />
<path d="M-50.0,23.0 L-31.982212078834483,23.923404867924898 L-38.0991058597034,25.529221070207438" fill-opacity="0" stroke="black" stroke-width="1" />
<path d="M-31.982212078834483,-23.923404867924898 L-38.0991058597034,-25.529221070207438 L-50.0,-29.0" fill-opacity="0" stroke="black" stroke-width="1" />
<path d="M-31.982212078834483,23.923404867924898 L-38.0991058597034,25.529221070207438 L-50.0,29.0" fill-opacity="0" stroke="black" stroke-width="1" />
<path d="M-50.0,-38.0 L-46.24255218972087,-38.85782831260671 L-44.0,-44.0" fill-opacity="0" stroke="black" stroke-width="1" />
<path d="M-50.0,38.0 L-46.24255218972087,38.85782831260671 L-44.0,44.0" fill-opacity="0" stroke="black" stroke-width="1" />
<path d="M-38.85782831260671,53.75744781027913 L-44.0,56.0 L-37.0,63.0" fill-opacity="0" stroke="black" stroke-width="1" />
<path d="M-38.85782831260671,-53.75744781027913 L-44.0,-56.0 L-37.0,-63.0" fill-opacity="0" stroke="black" stroke-width="1" />
<path d="M-44.0,56.0 L-37.0,63.0 L-25.18339824441403,67.68352779005524" fill-opacity="0" stroke="black" stroke-width="1" />
<path d="M-44.0,-56.0 L-37.0,-63.0 L-25.18339824441403,-67.68352779005524" fill-opacity="0" stroke="black" stroke-width="1" />
<path d="M-37.0,-37.0 L-32.31647220994476,-25.18339824441403 L-22.0,-22.0" fill-opacity="0" stroke="black" stroke-width="1" />
<path d="M-37.0,37.0 L-32.31647220994476,25.18339824441403 L-22.0,22.0" fill-opacity="0" stroke="black" stroke-width="1" />
<path d="M-11.0,-11.0 L-8.943423100731867,-2.463561750366295 L-8.0,-8.0" fill-opacity="0" stroke="black" stroke-width="1" />
<path d="M-11.0,11.0 L-8.943423100731867,2.463561750366295 L-8.0,8.0" fill-opacity="0" stroke="black" stroke-width="1" />
<path d="M-8.0,-8.0 L-6.5271621010298375,-2.359501749917485 L-3.728648118810712,-1.9384644932497364" fill-opacity="0" stroke="black" stroke-width="1" />
<path d="M-8.0,8.0 L-6.5271621010298375,2.359501749917485 L-3.728648118810712,1.9384644932497364" fill-opacity="0" stroke="black" stroke-width="1" />
<path d="M-6.5271621010298375,-2.359501749917485 L-3.728648118810712,-1.9384644932497364 L-3.027049186842479,-1.3234069929808947" fill-opacity="0" stroke="black" stroke-width="1" />
<path d="M-6.5271621010298375,2.359501749917485 L-3.728648118810712,1.9384644932497364 L-3.027049186842479,1.3234069929808947" fill-opacity="0" stroke="black" stroke-width="1" />
<path d="M-3.728648118810712,-1.9384644932497364 L-3.027049186842479,-1.3234069929808947 L-3.0,-3.0" fill-opacity="0" stroke="black" stroke-width="1" />
<path d="M-3.728648118810712,1.9384644932497364 L-3.027049186842479,1.3234069929808947 L-3.0,3.0" fill-opacity="0" stroke="black" stroke-width="1" />
<path d="M-3.0,97.0 L-2.0,98.0 L-0.3874883338723786,98.8393695408801" fill-opacity="0" stroke="black" stroke-width="1" />
<path d="M-3.0,-97.0 L-2.0,-98.0 L-0.3874883338723786,-98.83936954088009" fill-opacity="0" stroke="black" stroke-width="1" />
<path d="M-2.0,-2.0 L-1.1606304591199046,-0.3874883338723786 L-0.19149279777450623,-0.01755727789145591" fill-opacity="0" stroke="black" stroke-width="1" />
<path d="M-2.0,2.0 L-1.1606304591199046,0.3874883338723786 L-0.19149279777450623,0.01755727789145591" fill-opacity="0" stroke="black" stroke-width="1" />
<path d="M-1.1606304591199046,-0.3874883338723786 L-0.19149279777450623,-0.01755727789145591 L0.0,-0.0" fill-opacity="0" stroke="black" stroke-width="1" />
<path d="M-1.1606304591199046,0.3874883338723786 L-0.19149279777450623,0.01755727789145591 L0.0,-0.0" fill-opacity="0" stroke="black" stroke-width="1" />
<path d="M96.97295081315752,1.3234069929808947 L97.0,3.0 L98.0,2.0" fill-opacity="0" stroke="black" stroke-width="1" />
<path d="M96.97295081315752,-1.3234069929808947 L97.0,-3.0 L98.0,-2.0" fill-opacity="0" stroke="black" stroke-width="1" />
<path d="M78.0,22.0 L89.0,11.0 L91.05657689926814,2.463561750366295" fill-opacity="0" stroke="black" stroke-width="1" />
<path d="M78.0,-22.0 L89.0,-11.0 L91.05657689926814,-2.463561750366295" fill-opacity="0" stroke="black" stroke-width="1" />
<path d="M89.0,-0.0 L88.11996332586142,3.0104834698635785 L88.0,-0.0" fill-opacity="0" stroke="black" stroke-width="1" />
<path d="M89.0,-0.0 L88.11996332586142,-3.0104834698635785 L88.0,-0.0" fill-opacity="0" stroke="black" stroke-width="1" />
<path d="M85.0,-0.0 L83.35168071526898,4.1397115696970745 L81.51423301293737,6.22913071758092" fill-opacity="0" stroke="black" stroke-width="1" />
<path d="M85.0,-0.0 L83.35168071526898,-4.1397115696970745 L81.51423301293737,-6.22913071758092" fill-opacity="0" stroke="black" stroke-width="1" />
<path d="M83.35168071526898,4.1397115696970745 L81.51423301293737,6.22913071758092 L78.0,-0.0" fill-opacity="0" stroke="black" stroke-width="1" />
<path d="M83.35168071526898,-4.1397115696970745 L81.51423301293737,-6.22913071758092 L78.0,-0.0" fill-opacity="0" stroke="black" stroke-width="1" />
<path d="M67.68352779005524,25.18339824441403 L78.0,22.0 L89.0,11.0" fill-opacity="0" stroke="black" stroke-width="1" />
<path d="M67.68352779005524,-25.18339824441403 L78.0,-22.0 L89.0,-11.0" fill-opacity="0" stroke="black" stroke-width="1" />
<path d="M78.0,-0.0 L72.50703294601118,6.2603361496944325 L71.84156776231875,14.845065423196152" fill-opacity="0" stroke="black" stroke-width="1" />
<path d="M78.0,-0.0 L72.50703294601118,-6.2603361496944325 L71.84156776231875,-14.845065423196152" fill-opacity="0" stroke="black" stroke-width="1" />
<path d="M72.50703294601118,6.2603361496944325 L71.84156776231875,14.845065423196152 L71.63679640054397,15.522210066666469" fill-opacity="0" stroke="black" stroke-width="1" />
<path d="M72.50703294601118,-6.2603361496944325 L71.84156776231875,-14.845065423196152 L71.63679640054397,-15.522210066666469" fill-opacity="0" stroke="black" stroke-width="1" />
<path d="M71.84156776231875,14.845065423196152 L71.63679640054397,15.522210066666469 L67.0,-0.0" fill-opacity="0" stroke="black" stroke-width="1" />
<path d="M71.84156776231875,-14.845065423196152 L71.63679640054397,-15.522210066666469 L67.0,-0.0" fill-opacity="0" stroke="black" stroke-width="1" />
<path d="M50.0,16.0 L70.3598691650213,21.604894426378955 L50.0,23.0" fill-opacity="0" stroke="black" stroke-width="1" />
<path d="M50.0,-16.0 L70.3598691650213,-21.604894426378955 L50.0,-23.0" fill-opacity="0" stroke="black" stroke-width="1" />
<path d="M50.0,23.0 L68.01778792116552,23.923404867924898 L61.9008941402966,25.529221070207438" fill-opacity="0" stroke="black" stroke-width="1" />
<path d="M50.0,-23.0 L68.01778792116552,-23.923404867924898 L61.9008941402966,-25.529221070207438" fill-opacity="0" stroke="black" stroke-width="1" />
<path d="M68.01778792116552,23.923404867924898 L61.9008941402966,25.529221070207438 L50.0,29.0" fill-opacity="0" stroke="black" stroke-width="1" />
<path d="M68.01778792116552,-23.923404867924898 L61.9008941402966,-25.529221070207438 L50.0,-29.0" fill-opacity="0" stroke="black" stroke-width="1" />
<path d="M50.0,38.0 L53.75744781027913,38.85782831260671 L56.0,44.0" fill-opacity="0" stroke="black" stroke-width="1" />
<path d="M50.0,-38.0 L53.75744781027913,-38.85782831260671 L56.0,-44.0" fill-opacity="0" stroke="black" stroke-width="1" />
<path d="M53.75744781027913,38.85782831260671 L56.0,44.0 L63.0,37.0" fill-opacity="0" stroke="black" stroke-width="1" />
<path d="M53.75744781027913,-38.85782831260671 L56.0,-44.0 L63.0,-37.0" fill-opacity="0" stroke="black" stroke-width="1" />
<path d="M56.0,44.0 L63.0,37.0 L67.68352779005524,25.18339824441403" fill-opacity="0" stroke="black" stroke-width="1" />
<path d="M56.0,-44.0 L63.0,-37.0 L67.68352779005524,-25.18339824441403" fill-opacity="0" stroke="black" stroke-width="1" />
<path d="M63.0,37.0 L67.68352779005524,25.18339824441403 L78.0,22.0" fill-opacity="0" stroke="black" stroke-width="1" />
<path d="M63.0,-37.0 L67.68352779005524,-25.18339824441403 L78.0,-22.0" fill-opacity="0" stroke="black" stroke-width="1" />
<path d="M89.0,11.0 L91.05657689926814,2.463561750366295 L92.0,8.0" fill-opacity="0" stroke="black" stroke-width="1" />
<path d="M89.0,-11.0 L91.05657689926814,-2.463561750366295 L92.0,-8.0" fill-opacity="0" stroke="black" stroke-width="1" />
<path d="M92.0,8.0 L93.47283789897017,2.359501749917485 L96.27135188118929,1.9384644932497364" fill-opacity="0" stroke="black" stroke-width="1" />
<path d="M92.0,-8.0 L93.47283789897017,-2.359501749917485 L96.27135188118929,-1.9384644932497364" fill-opacity="0" stroke="black" stroke-width="1" />
<path d="M93.47283789897017,2.359501749917485 L96.27135188118929,1.9384644932497364 L96.97295081315752,1.3234069929808947" fill-opacity="0" stroke="black" stroke-width="1" />
<path d="M93.47283789897017,-2.359501749917485 L96.27135188118929,-1.9384644932497364 L96.97295081315752,-1.3234069929808947" fill-opacity="0" stroke="black" stroke-width="1" />
<path d="M96.27135188118929,1.9384644932497364 L96.97295081315752,1.3234069929808947 L97.0,3.0" fill-opacity="0" stroke="black" stroke-width="1" />
<path d="M96.27135188118929,-1.9384644932497364 L96.97295081315752,-1.3234069929808947 L97.0,-3.0" fill-opacity="0" stroke="black" stroke-width="1" />
<path d="M97.0,3.0 L98.0,2.0 L98.83936954088009,0.3874883338723786" fill-opacity="0" stroke="black" stroke-width="1" />
<path d="M97.0,-3.0 L98.0,-2.0 L98.83936954088009,-0.3874883338723786" fill-opacity="0" stroke="black" stroke-width="1" />
<path d="M98.0,2.0 L98.83936954088009,0.3874883338723786 L99.80850720222548,0.01755727789145591" fill-opacity="0" stroke="black" stroke-width="1" />
<path d="M98.0,-2.0 L98.83936954088009,-0.3874883338723786 L99.80850720222548,-0.01755727789145591" fill-opacity="0" stroke="black" stroke-width="1" />
<path d="M98.83936954088009,0.3874883338723786 L99.80850720222548,0.01755727789145591 L100.0,-0.0" fill-opacity="0" stroke="black" stroke-width="1" />
<path d="M98.83936954088009,-0.3874883338723786 L99.80850720222548,-0.01755727789145591 L100.0,-0.0" fill-opacity="0" stroke="black" stroke-width="1" />
<path d="M0.0,-11.0 L3.0104834698635785,-11.880036674138584 L0.0,-12.0" fill-opacity="0" stroke="black" stroke-width="1" />
<path d="M0.0,11.0 L3.0104834698635785,11.880036674138584 L0.0,12.0" fill-opacity="0" stroke="black" stroke-width="1" />
<path d="M0.0,89.0 L3.0104834698635785,88.11996332586142 L0.0,88.0" fill-opacity="0" stroke="black" stroke-width="1" />
<path d="M0.0,-89.0 L3.0104834698635785,-88.11996332586142 L0.0,-88.0" fill-opacity="0" stroke="black" stroke-width="1" />
<path d="M0.0,-15.0 L4.1397115696970745,-16.648319284731013 L6.22913071758092,-18.485766987062636" fill-opacity="0" stroke="black" stroke-width="1" />
<path d="M0.0,15.0 L4.1397115696970745,16.648319284731013 L6.22913071758092,18.485766987062636" fill-opacity="0" stroke="black" stroke-width="1" />
<path d="M0.0,85.0 L4.1397115696970745,83.35168071526898 L6.22913071758092,81.51423301293737" fill-opacity="0" stroke="black" stroke-width="1" />
<path d="M0.0,-85.0 L4.1397115696970745,-83.35168071526898 L6.22913071758092,-81.51423301293737" fill-opacity="0" stroke="black" stroke-width="1" />
<path d="M4.1397115696970745,-16.648319284731013 L6.22913071758092,-18.485766987062636 L0.0,-22.0" fill-opacity="0" stroke="black" stroke-width="1" />
<path d="M4.1397115696970745,16.648319284731013 L6.22913071758092,18.485766987062636 L0.0,22.0" fill-opacity="0" stroke="black" stroke-width="1" />
<path d="M4.1397115696970745,83.35168071526898 L6.22913071758092,81.51423301293737 L0.0,78.0" fill-opacity="0" stroke="black" stroke-width="1" />
<path d="M4.1397115696970745,-83.35168071526898 L6.22913071758092,-81.51423301293737 L0.0,-78.0" fill-opacity="0" stroke="black" stroke-width="1" />
<path d="M0.0,-22.0 L6.2603361496944325,-27.49296705398882 L14.845065423196152,-28.158432237681254" fill-opacity="0" stroke="black" stroke-width="1" />
<path d="M0.0,22.0 L6.2603361496944325,27.49296705398882 L14.845065423196152,28.158432237681254" fill-opacity="0" stroke="black" stroke-width="1" />
<path d="M0.0,78.0 L6.2603361496944325,72.50703294601118 L14.845065423196152,71.84156776231875" fill-opacity="0" stroke="black" stroke-width="1" />
<path d="M0.0,-78.0 L6.2603361496944325,-72.50703294601118 L14.845065423196152,-71.84156776231875" fill-opacity="0" stroke="black" stroke-width="1" />
<path d="M6.2603361496944325,-27.49296705398882 L14.845065423196152,-28.158432237681254 L15.522210066666469,-28.36320359945603" fill-opacity="0" stroke="black" stroke-width="1" />
<path d="M6.2603361496944325,27.49296705398882 L14.845065423196152,28.158432237681254 L15.522210066666469,28.36320359945603" fill-opacity="0" stroke="black" stroke-width="1" />
<path d="M6.2603361496944325,72.50703294601118 L14.845065423196152,71.84156776231875 L15.522210066666469,71.63679640054397" fill-opacity="0" stroke="black" stroke-width="1" />
<path d="M6.2603361496944325,-72.50703294601118 L14.845065423196152,-71.84156776231875 L15.522210066666469,-71.63679640054397" fill-opacity="0" stroke="black" stroke-width="1" />
<path d="M14.845065423196152,-28.158432237681254 L15.522210066666469,-28.36320359945603 L0.0,-33.0" fill-opacity="0" stroke="black" stroke-width="1" />
<path d="M14.845065423196152,28.158432237681254 L15.522210066666469,28.36320359945603 L0.0,33.0" fill-opacity="0" stroke="black" stroke-width="1" />
<path d="M14.845065423196152,71.84156776231875 L15.522210066666469,71.63679640054397 L0.0,67.0" fill-opacity="0" stroke="black" stroke-width="1" />
<path d="M14.845065423196152,-71.84156776231875 L15.522210066666469,-71.63679640054397 L0.0,-67.0" fill-opacity="0" stroke="black" stroke-width="1" />
<path d="M16.0,-50.0 L21.604894426378955,-29.640130834978702 L23.0,-50.0" fill-opacity="0" stroke="black" stroke-width="1" />
<path d="M16.0,50.0 L21.604894426378955,29.640130834978702 L23.0,50.0" fill-opacity="0" stroke="black" stroke-width="1" />
<path d="M16.0,50.0 L21.604894426378955,70.3598691650213 L23.0,50.0" fill-opacity="0" stroke="black" stroke-width="1" />
<path d="M16.0,-50.0 L21.604894426378955,-70.3598691650213 L23.0,-50.0" fill-opacity="0" stroke="black" stroke-width="1" />
<path d="M23.0,-50.0 L23.923404867924898,-31.982212078834483 L25.529221070207438,-38.0991058597034" fill-opacity="0" stroke="black" stroke-width="1" />
<path d="M23.0,50.0 L23.923404867924898,31.982212078834483 L25.529221070207438,38.0991058597034" fill-opacity="0" stroke="black" stroke-width="1" />
<path d="M23.0,50.0 L23.923404867924898,68.01778792116552 L25.529221070207438,61.9008941402966" fill-opacity="0" stroke="black" stroke-width="1" />
<path d="M23.0,-50.0 L23.923404867924898,-68.01778792116552 L25.529221070207438,-61.9008941402966" fill-opacity="0" stroke="black" stroke-width="1" />
<path d="M23.923404867924898,-31.982212078834483 L25.529221070207438,-38.0991058597034 L29.0,-50.0" fill-opacity="0" stroke="black" stroke-width="1" />
<path d="M23.923404867924898,31.982212078834483 L25.529221070207438,38.0991058597034 L29.0,50.0" fill-opacity="0" stroke="black" stroke-width="1" />
<path d="M23.923404867924898,68.01778792116552 L25.529221070207438,61.9008941402966 L29.0,50.0" fill-opacity="0" stroke="black" stroke-width="1" />
<path d="M23.923404867924898,-68.01778792116552 L25.529221070207438,-61.9008941402966 L29.0,-50.0" fill-opacity="0" stroke="black" stroke-width="1" />
<path d="M38.0,-50.0 L38.85782831260671,-46.24255218972087 L44.0,-44.0" fill-opacity="0" stroke="black" stroke-width="1" />
<path d="M38.0,50.0 L38.85782831260671,46.24255218972087 L44.0,44.0" fill-opacity="0" stroke="black" stroke-width="1" />
<path d="M38.0,50.0 L38.85782831260671,53.75744781027913 L44.0,56.0" fill-opacity="0" stroke="black" stroke-width="1" />
<path d="M38.0,-50.0 L38.85782831260671,-53.75744781027913 L44.0,-56.0" fill-opacity="0" stroke="black" stroke-width="1" />
<path d="M37.0,-37.0 L25.18339824441403,-32.31647220994476 L22.0,-22.0" fill-opacity="0" stroke="black" stroke-width="1" />
<path d="M37.0,37.0 L25.18339824441403,32.31647220994476 L22.0,22.0" fill-opacity="0" stroke="black" stroke-width="1" />
<path d="M37.0,63.0 L25.18339824441403,67.68352779005524 L22.0,78.0" fill-opacity="0" stroke="black" stroke-width="1" />
<path d="M37.0,-63.0 L25.18339824441403,-67.68352779005524 L22.0,-78.0" fill-opacity="0" stroke="black" stroke-width="1" />
<path d="M11.0,-11.0 L2.463561750366295,-8.943423100731867 L8.0,-8.0" fill-opacity="0" stroke="black" stroke-width="1" />
<path d="M11.0,11.0 L2.463561750366295,8.943423100731867 L8.0,8.0" fill-opacity="0" stroke="black" stroke-width="1" />
<path d="M11.0,89.0 L2.463561750366295,91.05657689926814 L8.0,92.0" fill-opacity="0" stroke="black" stroke-width="1" />
<path d="M11.0,-89.0 L2.463561750366295,-91.05657689926814 L8.0,-92.0" fill-opacity="0" stroke="black" stroke-width="1" />
<path d="M8.0,-8.0 L2.359501749917485,-6.5271621010298375 L1.9384644932497364,-3.728648118810712" fill-opacity="0" stroke="black" stroke-width="1" />
<path d="M8.0,8.0 L2.359501749917485,6.5271621010298375 L1.9384644932497364,3.728648118810712" fill-opacity="0" stroke="black" stroke-width="1" />
<path d="M8.0,92.0 L2.359501749917485,93.47283789897017 L1.9384644932497364,96.27135188118929" fill-opacity="0" stroke="black" stroke-width="1" />
<path d="M8.0,-92.0 L2.359501749917485,-93.47283789897017 L1.9384644932497364,-96.27135188118929" fill-opacity="0" stroke="black" stroke-width="1" />
<path d="M2.359501749917485,-6.5271621010298375 L1.9384644932497364,-3.728648118810712 L1.3234069929808947,-3.027049186842479" fill-opacity="0" stroke="black" stroke-width="1" />
<path d="M2.359501749917485,6.5271621010298375 L1.9384644932497364,3.728648118810712 L1.3234069929808947,3.027049186842479" fill-opacity="0" stroke="black" stroke-width="1" />
<path d="M2.359501749917485,93.47283789897017 L1.9384644932497364,96.27135188118929 L1.3234069929808947,96.97295081315752" fill-opacity="0" stroke="black" stroke-width="1" />
<path d="M2.359501749917485,-93.47283789897017 L1.9384644932497364,-96.27135188118929 L1.3234069929808947,-96.97295081315752" fill-opacity="0" stroke="black" stroke-width="1" />
<path d="M1.9384644932497364,-3.728648118810712 L1.3234069929808947,-3.027049186842479 L3.0,-3.0" fill-opacity="0" stroke="black" stroke-width="1" />
<path d="M1.9384644932497364,3.728648118810712 L1.3234069929808947,3.027049186842479 L3.0,3.0" fill-opacity="0" stroke="black" stroke-width="1" />
<path d="M1.9384644932497364,96.27135188118929 L1.3234069929808947,96.97295081315752 L3.0,97.0" fill-opacity="0" stroke="black" stroke-width="1" />
<path d="M1.9384644932497364,-96.27135188118929 L1.3234069929808947,-96.97295081315752 L3.0,-97.0" fill-opacity="0" stroke="black" stroke-width="1" />
<path d="M2.0,-2.0 L0.3874883338723786,-1.1606304591199046 L0.01755727789145591,-0.19149279777450623" fill-opacity="0" stroke="black" stroke-width="1" />
<path d="M2.0,2.0 L0.3874883338723786,1.1606304591199046 L0.01755727789145591,0.19149279777450623" fill-opacity="0" stroke="black" stroke-width="1" />
<path d="M2.0,98.0 L0.3874883338723786,98.83936954088009 L0.01755727789145591,99.80850720222548" fill-opacity="0" stroke="black" stroke-width="1" />
<path d="M2.0,-98.0 L0.3874883338723786,-98.83936954088009 L0.01755727789145591,-99.80850720222548" fill-opacity="0" stroke="black" stroke-width="1" />
<path d="M0.3874883338723786,-1.1606304591199046 L0.01755727789145591,-0.19149279777450623 L0.0,-0.0" fill-opacity="0" stroke="black" stroke-width="1" />
<path d="M0.3874883338723786,1.1606304591199046 L0.01755727789145591,0.19149279777450623 L0.0,-0.0" fill-opacity="0" stroke="black" stroke-width="1" />
<path d="M0.3874883338723786,98.83936954088009 L0.01755727789145591,99.80850720222548 L0.0,100.0" fill-opacity="0" stroke="black" stroke-width="1" />
<path d="M0.3874883338723786,-98.83936954088009 L0.01755727789145591,-99.80850720222548 L0.0,-100.0" fill-opacity="0" stroke="black" stroke-width="1" />
<path d="M0.0,89.0 L-3.0104834698635785,88.11996332586142 L0.0,88.0" fill-opacity="0" stroke="black" stroke-width="1" />
<path d="M0.0,-11.0 L-3.0104834698635785,-11.880036674138584 L0.0,-12.0" fill-opacity="0" stroke="black" stroke-width="1" />
<path d="M0.0,11.0 L-3.0104834698635785,11.88003667413858 L0.0,12.0" fill-opacity="0" stroke="black" stroke-width="1" />
<path d="M0.0,-89.0 L-3.0104834698635785,-88.11996332586142 L0.0,-88.0" fill-opacity="0" stroke="black" stroke-width="1" />
<path d="M0.0,85.0 L-4.1397115696970745,83.35168071526898 L-6.22913071758092,81.51423301293737" fill-opacity="0" stroke="black" stroke-width="1" />
<path d="M0.0,-15.0 L-4.1397115696970745,-16.648319284731013 L-6.22913071758092,-18.485766987062636" fill-opacity="0" stroke="black" stroke-width="1" />
<path d="M0.0,15.0 L-4.1397115696970745,16.648319284731016 L-6.22913071758092,18.485766987062632" fill-opacity="0" stroke="black" stroke-width="1" />
<path d="M0.0,-85.0 L-4.1397115696970745,-83.35168071526898 L-6.22913071758092,-81.51423301293737" fill-opacity="0" stroke="black" stroke-width="1" />
<path d="M-4.1397115696970745,83.35168071526898 L-6.22913071758092,81.51423301293737 L0.0,78.0" fill-opacity="0" stroke="black" stroke-width="1" />
<path d="M-4.1397115696970745,-16.648319284731013 L-6.22913071758092,-18.485766987062636 L0.0,-22.0" fill-opacity="0" stroke="black" stroke-width="1" />
<path d="M-4.1397115696970745,16.648319284731016 L-6.22913071758092,18.485766987062632 L0.0,22.0" fill-opacity="0" stroke="black" stroke-width="1" />
<path d="M-4.1397115696970745,-83.35168071526898 L-6.22913071758092,-81.51423301293737 L0.0,-78.0" fill-opacity="0" stroke="black" stroke-width="1" />
<path d="M0.0,78.0 L-6.2603361496944325,72.50703294601118 L-14.845065423196152,71.84156776231875" fill-opacity="0" stroke="black" stroke-width="1" />
<path d="M0.0,-22.0 L-6.2603361496944325,-27.49296705398882 L-14.845065423196152,-28.158432237681254" fill-opacity="0" stroke="black" stroke-width="1" />
<path d="M0.0,22.0 L-6.2603361496944325,27.49296705398882 L-14.845065423196152,28.158432237681254" fill-opacity="0" stroke="black" stroke-width="1" />
<path d="M0.0,-78.0 L-6.2603361496944325,-72.50703294601118 L-14.845065423196152,-71.84156776231875" fill-opacity="0" stroke="black" stroke-width="1" />
<path d="M-6.2603361496944325,72.50703294601118 L-14.845065423196152,71.84156776231875 L-15.522210066666469,71.63679640054397" fill-opacity="0" stroke="black" stroke-width="1" />
<path d="M-6.2603361496944325,-27.49296705398882 L-14.845065423196152,-28.158432237681254 L-15.522210066666469,-28.36320359945603" fill-opacity="0" stroke="black" stroke-width="1" />
<path d="M-6.2603361496944325,27.49296705398882 L-14.845065423196152,28.158432237681254 L-15.522210066666469,28.36320359945603" fill-opacity="0" stroke="black" stroke-width="1" />
<path d="M-6.2603361496944325,-72.50703294601118 L-14.845065423196152,-71.84156776231875 L-15.522210066666469,-71.63679640054397" fill-opacity="0" stroke="black" stroke-width="1" />
<path d="M-14.845065423196152,71.84156776231875 L-15.522210066666469,71.63679640054397 L0.0,67.0" fill-opacity="0" stroke="black" stroke-width="1" />
<path d="M-14.845065423196152,-28.158432237681254 L-15.522210066666469,-28.36320359945603 L0.0,-33.0" fill-opacity="0" stroke="black" stroke-width="1" />
<path d="M-14.845065423196152,28.158432237681254 L-15.522210066666469,28.36320359945603 L0.0,33.0" fill-opacity="0" stroke="black" stroke-width="1" />
<path d="M-14.845065423196152,-71.84156776231875 L-15.522210066666469,-71.63679640054397 L0.0,-67.0" fill-opacity="0" stroke="black" stroke-width="1" />
<path d="M-16.0,50.0 L-21.604894426378955,70.3598691650213 L-23.0,50.0" fill-opacity="0" stroke="black" stroke-width="1" />
<path d="M-16.0,-50.0 L-21.604894426378955,-29.640130834978702 L-23.0,-50.0" fill-opacity="0" stroke="black" stroke-width="1" />
<path d="M-16.0,50.0 L-21.604894426378955,29.640130834978706 L-23.0,50.0" fill-opacity="0" stroke="black" stroke-width="1" />
<path d="M-16.0,-50.0 L-21.604894426378955,-70.3598691650213 L-23.0,-50.0" fill-opacity="0" stroke="black" stroke-width="1" />
<path d="M-23.0,50.0 L-23.923404867924898,68.01778792116552 L-25.529221070207438,61.9008941402966" fill-opacity="0" stroke="black" stroke-width="1" />
<path d="M-23.0,-50.0 L-23.923404867924898,-31.982212078834483 L-25.529221070207438,-38.0991058597034" fill-opacity="0" stroke="black" stroke-width="1" />
<path d="M-23.0,50.0 L-23.923404867924898,31.98221207883448 L-25.529221070207438,38.0991058597034" fill-opacity="0" stroke="black" stroke-width="1" />
<path d="M-23.0,-50.0 L-23.923404867924898,-68.01778792116552 L-25.529221070207438,-61.9008941402966" fill-opacity="0" stroke="black" stroke-width="1" />
<path d="M-23.923404867924898,68.01778792116552 L-25.529221070207438,61.9008941402966 L-29.0,50.0" fill-opacity="0" stroke="black" stroke-width="1" />
<path d="M-23.923404867924898,-31.982212078834483 L-25.529221070207438,-38.0991058597034 L-29.0,-50.0" fill-opacity="0" stroke="black" stroke-width="1" />
<path d="M-23.923404867924898,31.98221207883448 L-25.529221070207438,38.0991058597034 L-29.0,50.0" fill-opacity="0" stroke="black" stroke-width="1" />
<path d="M-23.923404867924898,-68.01778792116552 L-25.529221070207438,-61.9008941402966 L-29.0,-50.0" fill-opacity="0" stroke="black" stroke-width="1" />
<path d="M-38.0,50.0 L-38.85782831260671,53.75744781027913 L-44.0,56.0" fill-opacity="0" stroke="black" stroke-width="1" />
<path d="M-38.0,-50.0 L-38.85782831260671,-46.24255218972087 L-44.0,-44.0" fill-opacity="0" stroke="black" stroke-width="1" />
<path d="M-38.0,50.0 L-38.85782831260671,46.24255218972087 L-44.0,44.0" fill-opacity="0" stroke="black" stroke-width="1" />
<path d="M-38.0,-50.0 L-38.85782831260671,-53.75744781027913 L-44.0,-56.0" fill-opacity="0" stroke="black" stroke-width="1" />
<path d="M-37.0,63.0 L-25.18339824441403,67.68352779005524 L-22.0,78.0" fill-opacity="0" stroke="black" stroke-width="1" />
<path d="M-37.0,-37.0 L-25.18339824441403,-32.31647220994476 L-22.0,-22.0" fill-opacity="0" stroke="black" stroke-width="1" />
<path d="M-37.0,37.0 L-25.18339824441403,32.31647220994476 L-22.0,22.0" fill-opacity="0" stroke="black" stroke-width="1" />
<path d="M-37.0,-63.0 L-25.18339824441403,-67.68352779005524 L-22.0,-78.0" fill-opacity="0" stroke="black" stroke-width="1" />
<path d="M-11.0,89.0 L-2.463561750366295,91.05657689926814 L-8.0,92.0" fill-opacity="0" stroke="black" stroke-width="1" />
<path d="M-11.0,-11.0 L-2.463561750366295,-8.943423100731867 L-8.0,-8.0" fill-opacity="0" stroke="black" stroke-width="1" />
<path d="M-11.0,11.0 L-2.463561750366295,8.943423100731863 L-8.0,8.0" fill-opacity="0" stroke="black" stroke-width="1" />
<path d="M-11.0,-89.0 L-2.463561750366295,-91.05657689926814 L-8.0,-92.0" fill-opacity="0" stroke="black" stroke-width="1" />
<path d="M-8.0,92.0 L-2.359501749917485,93.47283789897017 L-1.9384644932497364,96.27135188118929" fill-opacity="0" stroke="black" stroke-width="1" />
<path d="M-8.0,-8.0 L-2.359501749917485,-6.5271621010298375 L-1.9384644932497364,-3.728648118810712" fill-opacity="0" stroke="black" stroke-width="1" />
<path d="M-8.0,8.0 L-2.359501749917485,6.52716210102983 L-1.9384644932497364,3.7286481188107103" fill-opacity="0" stroke="black" stroke-width="1" />
<path d="M-8.0,-92.0 L-2.359501749917485,-93.47283789897017 L-1.9384644932497364,-96.27135188118929" fill-opacity="0" stroke="black" stroke-width="1" />
<path d="M-2.359501749917485,93.47283789897017 L-1.9384644932497364,96.27135188118929 L-1.3234069929808947,96.97295081315752" fill-opacity="0" stroke="black" stroke-width="1" />
<path d="M-2.359501749917485,-6.5271621010298375 L-1.9384644932497364,-3.728648118810712 L-1.3234069929808947,-3.027049186842479" fill-opacity="0" stroke="black" stroke-width="1" />
<path d="M-2.359501749917485,6.52716210102983 L-1.9384644932497364,3.7286481188107103 L-1.3234069929808947,3.0270491868424756" fill-opacity="0" stroke="black" stroke-width="1" />
<path d="M-2.359501749917485,-93.47283789897017 L-1.9384644932497364,-96.27135188118929 L-1.3234069929808947,-96.97295081315752" fill-opacity="0" stroke="black" stroke-width="1" />
<path d="M-1.9384644932497364,96.27135188118929 L-1.3234069929808947,96.97295081315752 L-3.0,97.0" fill-opacity="0" stroke="black" stroke-width="1" />
<path d="M-1.9384644932497364,-3.728648118810712 L-1.3234069929808947,-3.027049186842479 L-3.0,-3.0" fill-opacity="0" stroke="black" stroke-width="1" />
<path d="M-1.9384644932497364,3.7286481188107103 L-1.3234069929808947,3.0270491868424756 L-3.0,3.0" fill-opacity="0" stroke="black" stroke-width="1" />
<path d="M-1.9384644932497364,-96.27135188118929 L-1.3234069929808947,-96.97295081315752 L-3.0,-97.0" fill-opacity="0" stroke="black" stroke-width="1" />
<path d="M-2.0,98.0 L-0.3874883338723786,98.8393695408801 L-0.01755727789145591,99.8085072022255" fill-opacity="0" stroke="black" stroke-width="1" />
<path d="M-2.0,-2.0 L-0.3874883338723786,-1.1606304591199046 L-0.01755727789145591,-0.19149279777450623" fill-opacity="0" stroke="black" stroke-width="1" />
<path d="M-2.0,2.0 L-0.3874883338723786,1.1606304591199006 L-0.01755727789145591,0.1914927977745009" fill-opacity="0" stroke="black" stroke-width="1" />
<path d="M-2.0,-98.0 L-0.3874883338723786,-98.83936954088009 L-0.01755727789145591,-99.80850720222548" fill-opacity="0" stroke="black" stroke-width="1" />
<path d="M-0.3874883338723786,98.8393695408801 L-0.01755727789145591,99.8085072022255 L0.0,100.0" fill-opacity="0" stroke="black" stroke-width="1" />
<path d="M-0.3874883338723786,-1.1606304591199046 L-0.01755727789145591,-0.19149279777450623 L0.0,-0.0" fill-opacity="0" stroke="black" stroke-width="1" />
<path d="M-0.3874883338723786,1.1606304591199006 L-0.01755727789145591,0.1914927977745009 L0.0,-0.0" fill-opacity="0" stroke="black" stroke-width="1" />
<path d="M-0.3874883338723786,-98.83936954088009 L-0.01755727789145591,-99.80850720222548 L0.0,-100.0" fill-opacity="0" stroke="black" stroke-width="1" />
<path d="M-96.97295081315752,-1.3234069929808947 L-97.0,-3.0 L-98.0,-2.0" fill-opacity="0" stroke="black" stroke-width="1" />
<path d="M-96.97295081315752,1.3234069929808947 L-97.0,3.0 L-98.0,2.0" fill-opacity="0" stroke="black" stroke-width="1" />
<path d="M-78.0,-22.0 L-89.0,-11.0 L-91.05657689926814,-2.463561750366295" fill-opacity="0" stroke="black" stroke-width="1" />
<path d="M-78.0,22.0 L-89.0,11.0 L-91.05657689926814,2.463561750366295" fill-opacity="0" stroke="black" stroke-width="1" />
<path d="M-89.0,-0.0 L-88.11996332586142,-3.0104834698635785 L-88.0,-0.0" fill-opacity="0" stroke="black" stroke-width="1" />
<path d="M-89.0,-0.0 L-88.11996332586142,3.0104834698635785 L-88.0,-0.0" fill-opacity="0" stroke="black" stroke-width="1" />
<path d="M-85.0,-0.0 L-83.35168071526898,-4.1397115696970745 L-81.51423301293737,-6.22913071758092" fill-opacity="0" stroke="black" stroke-width="1" />
<path d="M-85.0,-0.0 L-83.35168071526898,4.1397115696970745 L-81.51423301293737,6.22913071758092" fill-opacity="0" stroke="black" stroke-width="1" />
<path d="M-83.35168071526898,-4.1397115696970745 L-81.51423301293737,-6.22913071758092 L-78.0,-0.0" fill-opacity="0" stroke="black" stroke-width="1" />
<path d="M-83.35168071526898,4.1397115696970745 L-81.51423301293737,6.22913071758092 L-78.0,-0.0" fill-opacity="0" stroke="black" stroke-width="1" />
<path d="M-67.68352779005524,-25.18339824441403 L-78.0,-22.0 L-89.0,-11.0" fill-opacity="0" stroke="black" stroke-width="1" />
<path d="M-67.68352779005524,25.18339824441403 L-78.0,22.0 L-89.0,11.0" fill-opacity="0" stroke="black" stroke-width="1" />
<path d="M-78.0,-0.0 L-72.50703294601118,-6.2603361496944325 L-71.84156776231875,-14.845065423196152" fill-opacity="0" stroke="black" stroke-width="1" />
<path d="M-78.0,-0.0 L-72.50703294601118,6.2603361496944325 L-71.84156776231875,14.845065423196152" fill-opacity="0" stroke="black" stroke-width="1" />
<path d="M-72.50703294601118,-6.2603361496944325 L-71.84156776231875,-14.845065423196152 L-71.63679640054397,-15.522210066666469" fill-opacity="0" stroke="black" stroke-width="1" />
<path d="M-72.50703294601118,6.2603361496944325 L-71.84156776231875,14.845065423196152 L-71.63679640054397,15.522210066666469" fill-opacity="0" stroke="black" stroke-width="1" />
<path d="M-71.84156776231875,-14.845065423196152 L-71.63679640054397,-15.522210066666469 L-67.0,-0.0" fill-opacity="0" stroke="black" stroke-width="1" />
<path d="M-71.84156776231875,14.845065423196152 L-71.63679640054397,15.522210066666469 L-67.0,-0.0" fill-opacity="0" stroke="black" stroke-width="1" />
<path d="M-50.0,-16.0 L-70.3598691650213,-21.604894426378955 L-50.0,-23.0" fill-opacity="0" stroke="black" stroke-width="1" />
<path d="M-50.0,16.0 L-70.3598691650213,21.604894426378955 L-50.0,23.0" fill-opacity="0" stroke="black" stroke-width="1" />
<path d="M-50.0,-23.0 L-68.01778792116552,-23.923404867924898 L-61.9008941402966,-25.529221070207438" fill-opacity="0" stroke="black" stroke-width="1" />
<path d="M-50.0,23.0 L-68.01778792116552,23.923404867924898 L-61.9008941402966,25.529221070207438" fill-opacity="0" stroke="black" stroke-width="1" />
<path d="M-68.01778792116552,-23.923404867924898 L-61.9008941402966,-25.529221070207438 L-50.0,-29.0" fill-opacity="0" stroke="black" stroke-width="1" />
<path d="M-68.01778792116552,23.923404867924898 L-61.9008941402966,25.529221070207438 L-50.0,29.0" fill-opacity="0" stroke="black" stroke-width="1" />
<path d="M-50.0,-38.0 L-53.75744781027913,-38.85782831260671 L-56.0,-44.0" fill-opacity="0" stroke="black" stroke-width="1" />
<path d="M-50.0,38.0 L-53.75744781027913,38.85782831260671 L-56.0,44.0" fill-opacity="0" stroke="black" stroke-width="1" />
<path d="M-53.75744781027913,-38.85782831260671 L-56.0,-44.0 L-63.0,-37.0" fill-opacity="0" stroke="black" stroke-width="1" />
<path d="M-53.75744781027913,38.85782831260671 L-56.0,44.0 L-63.0,37.0" fill-opacity="0" stroke="black" stroke-width="1" />
<path d="M-56.0,-44.0 L-63.0,-37.0 L-67.68352779005524,-25.18339824441403" fill-opacity="0" stroke="black" stroke-width="1" />
<path d="M-56.0,44.0 L-63.0,37.0 L-67.68352779005524,25.18339824441403" fill-opacity="0" stroke="black" stroke-width="1" />
<path d="M-63.0,-37.0 L-67.68352779005524,-25.18339824441403 L-78.0,-22.0" fill-opacity="0" stroke="black" stroke-width="1" />
<path d="M-63.0,37.0 L-67.68352779005524,25.18339824441403 L-78.0,22.0" fill-opacity="0" stroke="black" stroke-width="1" />
<path d="M-89.0,-11.0 L-91.05657689926814,-2.463561750366295 L-92.0,-8.0" fill-opacity="0" stroke="black" stroke-width="1" />
<path d="M-89.0,11.0 L-91.05657689926814,2.463561750366295 L-92.0,8.0" fill-opacity="0" stroke="black" stroke-width="1" />
<path d="M-92.0,-8.0 L-93.47283789897017,-2.359501749917485 L-96.27135188118929,-1.9384644932497364" fill-opacity="0" stroke="black" stroke-width="1" />
<path d="M-92.0,8.0 L-93.47283789897017,2.359501749917485 L-96.27135188118929,1.9384644932497364" fill-opacity="0" stroke="black" stroke-width="1" />
<path d="M-93.47283789897017,-2.359501749917485 L-96.27135188118929,-1.9384644932497364 L-96.97295081315752,-1.3234069929808947" fill-opacity="0" stroke="black" stroke-width="1" />
<path d="M-93.47283789897017,2.359501749917485 L-96.27135188118929,1.9384644932497364 L-96.97295081315752,1.3234069929808947" fill-opacity="0" stroke="black" stroke-width="1" />
<path d="M-96.27135188118929,-1.9384644932497364 L-96.97295081315752,-1.3234069929808947 L-97.0,-3.0" fill-opacity="0" stroke="black" stroke-width="1" />
<path d="M-96.27135188118929,1.9384644932497364 L-96.97295081315752,1.3234069929808947 L-97.0,3.0" fill-opacity="0" stroke="black" stroke-width="1" />
<path d="M-97.0,-3.0 L-98.0,-2.0 L-98.83936954088009,-0.3874883338723786" fill-opacity="0" stroke="black" stroke-width="1" />
<path d="M-97.0,3.0 L-98.0,2.0 L-98.83936954088009,0.3874883338723786" fill-opacity="0" stroke="black" stroke-width="1" />
<path d="M-98.0,-2.0 L-98.83936954088009,-0.3874883338723786 L-99.80850720222548,-0.01755727789145591" fill-opacity="0" stroke="black" stroke-width="1" />
<path d="M-98.0,2.0 L-98.83936954088009,0.3874883338723786 L-99.80850720222548,0.01755727789145591" fill-opacity="0" stroke="black" stroke-width="1" />
<path d="M-98.83936954088009,-0.3874883338723786 L-99.80850720222548,-0.01755727789145591 L-100.0,-0.0" fill-opacity="0" stroke="black" stroke-width="1" />
<path d="M-98.83936954088009,0.3874883338723786 L-99.80850720222548,0.01755727789145591 L-100.0,-0.0" fill-opacity="0" stroke="black" stroke-width="1" />
<circle cx="0" cy="-97" r="8" stroke-dasharray="39.653880605311166 10.611601852125524" stroke-dashoffset="-17.59291886010284" stroke="black" stroke-width="1" fill="white" fill-opacity="1" />
<circle cx="0" cy="-97" r="4" stroke="black" stroke-width="1" fill="white" fill-opacity="1" />
</svg>