<?xml version="1.0" encoding="UTF-8"?>
<svg xmlns="http://www.w3.org/2000/svg" xmlns:xlink="http://www.w3.org/1999/xlink"
     width="250" height="250" viewBox="-125.0 -125.0 250 250">
<defs>
</defs>
<path d="M4.0,-0.0 L12.159667694888709,-1.521233533795166 L12.946876998794808,-1.8633952895527521" fill="black" fill-opacity="0.6" stroke="black" stroke-width="1" />
<path d="M4.0,-0.0 L12.159667694888709,1.521233533795166 L12.946876998794808,1.8633952895527521" fill="green" fill-opacity="0.6" stroke="black" stroke-width="1" />
<path d="M12.159667694888709,-1.521233533795166 L12.946876998794808,-1.8633952895527521 L14.927235674248656,-2.5997280482847107" fill="orange" fill-opacity="0.6" stroke="black" stroke-width="1" />
<path d="M12.159667694888709,1.521233533795166 L12.946876998794808,1.8633952895527521 L14.927235674248656,2.5997280482847107" fill="pink" fill-opacity="0.6" stroke="black" stroke-width="1" />
<path d="M12.946876998794808,-1.8633952895527521 L14.927235674248656,-2.5997280482847107 L16.448369483435016,-2.6319517934705883" fill="black" fill-opacity="0.6" stroke="black" stroke-width="1" />
<path d="M12.946876998794808,1.8633952895527521 L14.927235674248656,2.5997280482847107 L16.448369483435016,2.6319517934705883" fill="red" fill-opacity="0.6" stroke="black" stroke-width="1" />
<path d="M14.927235674248656,-2.5997280482847107 L16.448369483435016,-2.6319517934705883 L21.000751032642,-10.648168397943989" fill="orange" fill-opacity="0.6" stroke="black" stroke-width="1" />
<path d="M14.927235674248656,2.5997280482847107 L16.448369483435016,2.6319517934705883 L21.000751032642,10.648168397943989" fill="blue" fill-opacity="0.6" stroke="black" stroke-width="1" />
<path d="M16.448369483435016,-2.6319517934705883 L21.000751032642,-10.648168397943989 L25.166102471158432,-12.428946572865797" fill="black" fill-opacity="0.6" stroke="black" stroke-width="1" />
<path d="M16.448369483435016,2.6319517934705883 L21.000751032642,10.648168397943989 L25.166102471158432,12.428946572865797" fill="purple" fill-opacity="0.6" stroke="black" stroke-width="1" />
<path d="M21.000751032642,-10.648168397943989 L25.166102471158432,-12.428946572865797 L27.856258140809782,-15.769719847757493" fill="red" fill-opacity="0.6" stroke="black" stroke-width="1" />
<path d="M21.000751032642,10.648168397943989 L25.166102471158432,12.428946572865797 L27.856258140809782,15.769719847757493" fill="yellow" fill-opacity="0.6" stroke="black" stroke-width="1" />
<path d="M25.166102471158432,-12.428946572865797 L27.856258140809782,-15.769719847757493 L40.0,-0.0" fill="green" fill-opacity="0.6" stroke="black" stroke-width="1" />
<path d="M25.166102471158432,12.428946572865797 L27.856258140809782,15.769719847757493 L40.0,-0.0" fill="black" fill-opacity="0.6" stroke="black" stroke-width="1" />
<path d="M50.0,-18.0 L48.77407951451018,-39.8081950638219 L50.0,-45.0" fill="orange" fill-opacity="0.6" stroke="black" stroke-width="1" />
<path d="M50.0,18.0 L48.77407951451018,39.8081950638219 L50.0,45.0" fill="orange" fill-opacity="0.6" stroke="black" stroke-width="1" />
<path d="M45.0,50.0 L45.0,55.0 L32.62545838119513,64.43601544919233" fill="orange" fill-opacity="0.6" stroke="black" stroke-width="1" />
<path d="M45.0,-50.0 L45.0,-55.0 L32.62545838119513,-64.43601544919233" fill="purple" fill-opacity="0.6" stroke="black" stroke-width="1" />
<path d="M45.0,-45.0 L35.56398455080767,-32.62545838119513 L22.0,-22.0" fill="green" fill-opacity="0.6" stroke="black" stroke-width="1" />
<path d="M45.0,45.0 L35.56398455080767,32.62545838119513 L22.0,22.0" fill="orange" fill-opacity="0.6" stroke="black" stroke-width="1" />
<path d="M32.62545838119513,64.43601544919233 L22.0,78.0 L9.5615947996564,82.55893397803071" fill="purple" fill-opacity="0.6" stroke="black" stroke-width="1" />
<path d="M32.62545838119513,-64.43601544919233 L22.0,-78.0 L9.5615947996564,-82.55893397803071" fill="black" fill-opacity="0.6" stroke="black" stroke-width="1" />
<path d="M22.0,-22.0 L17.441066021969288,-9.5615947996564 L12.0,-12.0" fill="pink" fill-opacity="0.6" stroke="black" stroke-width="1" />
<path d="M22.0,22.0 L17.441066021969288,9.5615947996564 L12.0,12.0" fill="pink" fill-opacity="0.6" stroke="black" stroke-width="1" />
<path d="M9.5615947996564,82.55893397803071 L12.0,88.0 L7.0,93.0" fill="yellow" fill-opacity="0.6" stroke="black" stroke-width="1" />
<path d="M9.5615947996564,-82.55893397803071 L12.0,-88.0 L7.0,-93.0" fill="yellow" fill-opacity="0.6" stroke="black" stroke-width="1" />
<path d="M12.0,88.0 L7.0,93.0 L0.6078533975776998,96.78970107094128" fill="red" fill-opacity="0.6" stroke="black" stroke-width="1" />
<path d="M12.0,-88.0 L7.0,-93.0 L0.6078533975776998,-96.78970107094128" fill="orange" fill-opacity="0.6" stroke="black" stroke-width="1" />
<path d="M7.0,-7.0 L3.2102989290587303,-0.6078533975776998 L1.2187158175289925,-0.18641212214417438" fill="orange" fill-opacity="0.6" stroke="black" stroke-width="1" />
<path d="M7.0,7.0 L3.2102989290587303,0.6078533975776998 L1.2187158175289925,0.18641212214417438" fill="yellow" fill-opacity="0.6" stroke="black" stroke-width="1" />
<path d="M3.2102989290587303,-0.6078533975776998 L1.2187158175289925,-0.18641212214417438 L0.6857780893407606,-0.08331315134749682" fill="orange" fill-opacity="0.6" stroke="black" stroke-width="1" />
<path d="M3.2102989290587303,0.6078533975776998 L1.2187158175289925,0.18641212214417438 L0.6857780893407606,0.08331315134749682" fill="yellow" fill-opacity="0.6" stroke="black" stroke-width="1" />
<path d="M1.2187158175289925,-0.18641212214417438 L0.6857780893407606,-0.08331315134749682 L0.30962167407098673,-0.043550938758615126" fill="yellow" fill-opacity="0.6" stroke="black" stroke-width="1" />
<path d="M1.2187158175289925,0.18641212214417438 L0.6857780893407606,0.08331315134749682 L0.30962167407098673,0.043550938758615126" fill="blue" fill-opacity="0.6" stroke="black" stroke-width="1" />
<path d="M0.6857780893407606,-0.08331315134749682 L0.30962167407098673,-0.043550938758615126 L0.0,-0.0" fill="red" fill-opacity="0.6" stroke="black" stroke-width="1" />
<path d="M0.6857780893407606,0.08331315134749682 L0.30962167407098673,0.043550938758615126 L0.0,-0.0" fill="red" fill-opacity="0.6" stroke="black" stroke-width="1" />
<path d="M-4.0,-0.0 L-12.159667694888709,-1.521233533795166 L-12.946876998794808,-1.8633952895527521" fill="green" fill-opacity="0.6" stroke="black" stroke-width="1" />
<path d="M-4.0,-0.0 L-12.159667694888709,1.521233533795166 L-12.946876998794808,1.8633952895527521" fill="red" fill-opacity="0.6" stroke="black" stroke-width="1" />
<path d="M-12.159667694888709,-1.521233533795166 L-12.946876998794808,-1.8633952895527521 L-14.927235674248656,-2.5997280482847107" fill="red" fill-opacity="0.6" stroke="black" stroke-width="1" />
<path d="M-12.159667694888709,1.521233533795166 L-12.946876998794808,1.8633952895527521 L-14.927235674248656,2.5997280482847107" fill="green" fill-opacity="0.6" stroke="black" stroke-width="1" />
<path d="M-12.946876998794808,-1.8633952895527521 L-14.927235674248656,-2.5997280482847107 L-16.448369483435016,-2.6319517934705883" fill="black" fill-opacity="0.6" stroke="black" stroke-width="1" />
<path d="M-12.946876998794808,1.8633952895527521 L-14.927235674248656,2.5997280482847107 L-16.448369483435016,2.6319517934705883" fill="orange" fill-opacity="0.6" stroke="black" stroke-width="1" />
<path d="M-14.927235674248656,-2.5997280482847107 L-16.448369483435016,-2.6319517934705883 L-21.000751032642,-10.648168397943989" fill="brown" fill-opacity="0.6" stroke="black" stroke-width="1" />
<path d="M-14.927235674248656,2.5997280482847107 L-16.448369483435016,2.6319517934705883 L-21.000751032642,10.648168397943989" fill="purple" fill-opacity="0.6" stroke="black" stroke-width="1" />
<path d="M-16.448369483435016,-2.6319517934705883 L-21.000751032642,-10.648168397943989 L-25.166102471158432,-12.428946572865797" fill="yellow" fill-opacity="0.6" stroke="black" stroke-width="1" />
<path d="M-16.448369483435016,2.6319517934705883 L-21.000751032642,10.648168397943989 L-25.166102471158432,12.428946572865797" fill="red" fill-opacity="0.6" stroke="black" stroke-width="1" />
<path d="M-21.000751032642,-10.648168397943989 L-25.166102471158432,-12.428946572865797 L-27.856258140809782,-15.769719847757493" fill="pink" fill-opacity="0.6" stroke="black" stroke-width="1" />
<path d="M-21.000751032642,10.648168397943989 L-25.166102471158432,12.428946572865797 L-27.856258140809782,15.769719847757493" fill="black" fill-opacity="0.6" stroke="black" stroke-width="1" />
<path d="M-25.166102471158432,-12.428946572865797 L-27.856258140809782,-15.769719847757493 L-40.0,-0.0" fill="red" fill-opacity="0.6" stroke="black" stroke-width="1" />
<path d="M-25.166102471158432,12.428946572865797 L-27.856258140809782,15.769719847757493 L-40.0,-0.0" fill="red" fill-opacity="0.6" stroke="black" stroke-width="1" />
<path d="M-50.0,-18.0 L-48.77407951451018,-39.8081950638219 L-50.0,-45.0" fill="black" fill-opacity="0.6" stroke="black" stroke-width="1" />
<path d="M-50.0,18.0 L-48.77407951451018,39.8081950638219 L-50.0,45.0" fill="brown" fill-opacity="0.6" stroke="black" stroke-width="1" />
<path d="M-45.0,50.0 L-45.0,55.0 L-32.62545838119513,64.43601544919233" fill="yellow" fill-opacity="0.6" stroke="black" stroke-width="1" />
<path d="M-45.0,-50.0 L-45.0,-55.0 L-32.62545838119513,-64.43601544919233" fill="black" fill-opacity="0.6" stroke="black" stroke-width="1" />
<path d="M-45.0,-45.0 L-35.56398455080767,-32.62545838119513 L-22.0,-22.0" fill="blue" fill-opacity="0.6" stroke="black" stroke-width="1" />
<path d="M-45.0,45.0 L-35.56398455080767,32.62545838119513 L-22.0,22.0" fill="yellow" fill-opacity="0.6" stroke="black" stroke-width="1" />
<path d="M-32.62545838119513,64.43601544919233 L-22.0,78.0 L-9.5615947996564,82.55893397803071" fill="orange" fill-opacity="0.6" stroke="black" stroke-width="1" />
<path d="M-32.62545838119513,-64.43601544919233 L-22.0,-78.0 L-9.5615947996564,-82.55893397803071" fill="red" fill-opacity="0.6" stroke="black" stroke-width="1" />
<path d="M-22.0,-22.0 L-17.441066021969288,-9.5615947996564 L-12.0,-12.0" fill="green" fill-opacity="0.6" stroke="black" stroke-width="1" />
<path d="M-22.0,22.0 L-17.441066021969288,9.5615947996564 L-12.0,12.0" fill="brown" fill-opacity="0.6" stroke="black" stroke-width="1" />
<path d="M-9.5615947996564,82.55893397803071 L-12.0,88.0 L-7.0,93.0" fill="yellow" fill-opacity="0.6" stroke="black" stroke-width="1" />
<path d="M-9.5615947996564,-82.55893397803071 L-12.0,-88.0 L-7.0,-93.0" fill="purple" fill-opacity="0.6" stroke="black" stroke-width="1" />
<path d="M-12.0,88.0 L-7.0,93.0 L-0.6078533975776998,96.78970107094128" fill="orange" fill-opacity="0.6" stroke="black" stroke-width="1" />
<path d="M-12.0,-88.0 L-7.0,-93.0 L-0.6078533975776998,-96.78970107094128" fill="red" fill-opacity="0.6" stroke="black" stroke-width="1" />
<path d="M-7.0,-7.0 L-3.2102989290587303,-0.6078533975776998 L-1.2187158175289925,-0.18641212214417438" fill="blue" fill-opacity="0.6" stroke="black" stroke-width="1" />
<path d="M-7.0,7.0 L-3.2102989290587303,0.6078533975776998 L-1.2187158175289925,0.18641212214417438" fill="purple" fill-opacity="0.6" stroke="black" stroke-width="1" />
<path d="M-3.2102989290587303,-0.6078533975776998 L-1.2187158175289925,-0.18641212214417438 L-0.6857780893407606,-0.08331315134749682" fill="yellow" fill-opacity="0.6" stroke="black" stroke-width="1" />
<path d="M-3.2102989290587303,0.6078533975776998 L-1.2187158175289925,0.18641212214417438 L-0.6857780893407606,0.08331315134749682" fill="blue" fill-opacity="0.6" stroke="black" stroke-width="1" />
<path d="M-1.2187158175289925,-0.18641212214417438 L-0.6857780893407606,-0.08331315134749682 L-0.30962167407098673,-0.043550938758615126" fill="orange" fill-opacity="0.6" stroke="black" stroke-width="1" />
<path d="M-1.2187158175289925,0.18641212214417438 L-0.6857780893407606,0.08331315134749682 L-0.30962167407098673,0.043550938758615126" fill="yellow" fill-opacity="0.6" stroke="black" stroke-width="1" />
<path d="M-0.6857780893407606,-0.08331315134749682 L-0.30962167407098673,-0.043550938758615126 L0.0,-0.0" fill="red" fill-opacity="0.6" stroke="black" stroke-width="1" />
<path d="M-0.6857780893407606,0.08331315134749682 L-0.30962167407098673,0.043550938758615126 L0.0,-0.0" fill="black" fill-opacity="0.6" stroke="black" stroke-width="1" />
<path d="M96.0,-0.0 L87.84033230511129,1.521233533795166 L87.0531230012052,1.8633952895527521" fill="yellow" fill-opacity="0.6" stroke="black" stroke-width="1" />
<path d="M96.0,-0.0 L87.84033230511129,-1.521233533795166 L87.0531230012052,-1.8633952895527521" fill="red" fill-opacity="0.6" stroke="black" stroke-width="1" />
<path d="M87.84033230511129,1.521233533795166 L87.0531230012052,1.8633952895527521 L85.07276432575134,2.5997280482847107" fill="orange" fill-opacity="0.6" stroke="black" stroke-width="1" />
<path d="M87.84033230511129,-1.521233533795166 L87.0531230012052,-1.8633952895527521 L85.07276432575134,-2.5997280482847107" fill="red" fill-opacity="0.6" stroke="black" stroke-width="1" />
<path d="M87.0531230012052,1.8633952895527521 L85.07276432575134,2.5997280482847107 L83.55163051656498,2.6319517934705883" fill="brown" fill-opacity="0.6" stroke="black" stroke-width="1" />
<path d="M87.0531230012052,-1.8633952895527521 L85.07276432575134,-2.5997280482847107 L83.55163051656498,-2.6319517934705883" fill="green" fill-opacity="0.6" stroke="black" stroke-width="1" />
<path d="M85.07276432575134,2.5997280482847107 L83.55163051656498,2.6319517934705883 L78.999248967358,10.648168397943989" fill="orange" fill-opacity="0.6" stroke="black" stroke-width="1" />
<path d="M85.07276432575134,-2.5997280482847107 L83.55163051656498,-2.6319517934705883 L78.999248967358,-10.648168397943989" fill="pink" fill-opacity="0.6" stroke="black" stroke-width="1" />
<path d="M83.55163051656498,2.6319517934705883 L78.999248967358,10.648168397943989 L74.83389752884156,12.428946572865797" fill="red" fill-opacity="0.6" stroke="black" stroke-width="1" />
<path d="M83.55163051656498,-2.6319517934705883 L78.999248967358,-10.648168397943989 L74.83389752884156,-12.428946572865797" fill="yellow" fill-opacity="0.6" stroke="black" stroke-width="1" />
<path d="M78.999248967358,10.648168397943989 L74.83389752884156,12.428946572865797 L72.14374185919021,15.769719847757493" fill="yellow" fill-opacity="0.6" stroke="black" stroke-width="1" />
<path d="M78.999248967358,-10.648168397943989 L74.83389752884156,-12.428946572865797 L72.14374185919021,-15.769719847757493" fill="pink" fill-opacity="0.6" stroke="black" stroke-width="1" />
<path d="M74.83389752884156,12.428946572865797 L72.14374185919021,15.769719847757493 L60.0,-0.0" fill="orange" fill-opacity="0.6" stroke="black" stroke-width="1" />
<path d="M74.83389752884156,-12.428946572865797 L72.14374185919021,-15.769719847757493 L60.0,-0.0" fill="green" fill-opacity="0.6" stroke="black" stroke-width="1" />
<path d="M50.0,18.0 L51.22592048548982,39.8081950638219 L50.0,45.0" fill="brown" fill-opacity="0.6" stroke="black" stroke-width="1" />
<path d="M50.0,-18.0 L51.22592048548982,-39.8081950638219 L50.0,-45.0" fill="orange" fill-opacity="0.6" stroke="black" stroke-width="1" />
<path d="M50.0,45.0 L55.0,45.0 L64.43601544919233,32.62545838119513" fill="orange" fill-opacity="0.6" stroke="black" stroke-width="1" />
<path d="M50.0,-45.0 L55.0,-45.0 L64.43601544919233,-32.62545838119513" fill="yellow" fill-opacity="0.6" stroke="black" stroke-width="1" />
<path d="M55.0,45.0 L64.43601544919233,32.62545838119513 L78.0,22.0" fill="pink" fill-opacity="0.6" stroke="black" stroke-width="1" />
<path d="M55.0,-45.0 L64.43601544919233,-32.62545838119513 L78.0,-22.0" fill="red" fill-opacity="0.6" stroke="black" stroke-width="1" />
<path d="M64.43601544919233,32.62545838119513 L78.0,22.0 L82.55893397803071,9.5615947996564" fill="green" fill-opacity="0.6" stroke="black" stroke-width="1" />
<path d="M64.43601544919233,-32.62545838119513 L78.0,-22.0 L82.55893397803071,-9.5615947996564" fill="green" fill-opacity="0.6" stroke="black" stroke-width="1" />
<path d="M78.0,22.0 L82.55893397803071,9.5615947996564 L88.0,12.0" fill="blue" fill-opacity="0.6" stroke="black" stroke-width="1" />
<path d="M78.0,-22.0 L82.55893397803071,-9.5615947996564 L88.0,-12.0" fill="green" fill-opacity="0.6" stroke="black" stroke-width="1" />
<path d="M82.55893397803071,9.5615947996564 L88.0,12.0 L93.0,7.0" fill="brown" fill-opacity="0.6" stroke="black" stroke-width="1" />
<path d="M82.55893397803071,-9.5615947996564 L88.0,-12.0 L93.0,-7.0" fill="brown" fill-opacity="0.6" stroke="black" stroke-width="1" />
<path d="M88.0,12.0 L93.0,7.0 L96.78970107094128,0.6078533975776998" fill="yellow" fill-opacity="0.6" stroke="black" stroke-width="1" />
<path d="M88.0,-12.0 L93.0,-7.0 L96.78970107094128,-0.6078533975776998" fill="brown" fill-opacity="0.6" stroke="black" stroke-width="1" />
<path d="M93.0,7.0 L96.78970107094128,0.6078533975776998 L98.78128418247101,0.18641212214417438" fill="blue" fill-opacity="0.6" stroke="black" stroke-width="1" />
<path d="M93.0,-7.0 L96.78970107094128,-0.6078533975776998 L98.78128418247101,-0.18641212214417438" fill="brown" fill-opacity="0.6" stroke="black" stroke-width="1" />
<path d="M96.78970107094128,0.6078533975776998 L98.78128418247101,0.18641212214417438 L99.31422191065924,0.08331315134749682" fill="orange" fill-opacity="0.6" stroke="black" stroke-width="1" />
<path d="M96.78970107094128,-0.6078533975776998 L98.78128418247101,-0.18641212214417438 L99.31422191065924,-0.08331315134749682" fill="blue" fill-opacity="0.6" stroke="black" stroke-width="1" />
<path d="M98.78128418247101,0.18641212214417438 L99.31422191065924,0.08331315134749682 L99.690378325929,0.043550938758615126" fill="blue" fill-opacity="0.6" stroke="black" stroke-width="1" />
<path d="M98.78128418247101,-0.18641212214417438 L99.31422191065924,-0.08331315134749682 L99.690378325929,-0.043550938758615126" fill="brown" fill-opacity="0.6" stroke="black" stroke-width="1" />
<path d="M99.31422191065924,0.08331315134749682 L99.690378325929,0.043550938758615126 L100.0,-0.0" fill="blue" fill-opacity="0.6" stroke="black" stroke-width="1" />
<path d="M99.31422191065924,-0.08331315134749682 L99.690378325929,-0.043550938758615126 L100.0,-0.0" fill="red" fill-opacity="0.6" stroke="black" stroke-width="1" />
<path d="M0.0,-4.0 L1.521233533795166,-12.159667694888709 L1.8633952895527521,-12.946876998794808" fill="yellow" fill-opacity="0.6" stroke="black" stroke-width="1" />
<path d="M0.0,4.0 L1.521233533795166,12.159667694888709 L1.8633952895527521,12.946876998794808" fill="brown" fill-opacity="0.6" stroke="black" stroke-width="1" />
<path d="M0.0,96.0 L1.521233533795166,87.84033230511129 L1.8633952895527521,87.0531230012052" fill="black" fill-opacity="0.6" stroke="black" stroke-width="1" />
<path d="M0.0,-96.0 L1.521233533795166,-87.84033230511129 L1.8633952895527521,-87.0531230012052" fill="purple" fill-opacity="0.6" stroke="black" stroke-width="1" />
<path d="M1.521233533795166,-12.159667694888709 L1.8633952895527521,-12.946876998794808 L2.5997280482847107,-14.927235674248656" fill="yellow" fill-opacity="0.6" stroke="black" stroke-width="1" />
<path d="M1.521233533795166,12.159667694888709 L1.8633952895527521,12.946876998794808 L2.5997280482847107,14.927235674248656" fill="black" fill-opacity="0.6" stroke="black" stroke-width="1" />
<path d="M1.521233533795166,87.84033230511129 L1.8633952895527521,87.0531230012052 L2.5997280482847107,85.07276432575134" fill="black" fill-opacity="0.6" stroke="black" stroke-width="1" />
<path d="M1.521233533795166,-87.84033230511129 L1.8633952895527521,-87.0531230012052 L2.5997280482847107,-85.07276432575134" fill="pink" fill-opacity="0.6" stroke="black" stroke-width="1" />
<path d="M1.8633952895527521,-12.946876998794808 L2.5997280482847107,-14.927235674248656 L2.6319517934705883,-16.448369483435016" fill="yellow" fill-opacity="0.6" stroke="black" stroke-width="1" />
<path d="M1.8633952895527521,12.946876998794808 L2.5997280482847107,14.927235674248656 L2.6319517934705883,16.448369483435016" fill="black" fill-opacity="0.6" stroke="black" stroke-width="1" />
<path d="M1.8633952895527521,87.0531230012052 L2.5997280482847107,85.07276432575134 L2.6319517934705883,83.55163051656498" fill="brown" fill-opacity="0.6" stroke="black" stroke-width="1" />
<path d="M1.8633952895527521,-87.0531230012052 L2.5997280482847107,-85.07276432575134 L2.6319517934705883,-83.55163051656498" fill="brown" fill-opacity="0.6" stroke="black" stroke-width="1" />
<path d="M2.5997280482847107,-14.927235674248656 L2.6319517934705883,-16.448369483435016 L10.648168397943989,-21.000751032642" fill="yellow" fill-opacity="0.6" stroke="black" stroke-width="1" />
<path d="M2.5997280482847107,14.927235674248656 L2.6319517934705883,16.448369483435016 L10.648168397943989,21.000751032642" fill="purple" fill-opacity="0.6" stroke="black" stroke-width="1" />
<path d="M2.5997280482847107,85.07276432575134 L2.6319517934705883,83.55163051656498 L10.648168397943989,78.999248967358" fill="pink" fill-opacity="0.6" stroke="black" stroke-width="1" />
<path d="M2.5997280482847107,-85.07276432575134 L2.6319517934705883,-83.55163051656498 L10.648168397943989,-78.999248967358" fill="pink" fill-opacity="0.6" stroke="black" stroke-width="1" />
<path d="M2.6319517934705883,-16.448369483435016 L10.648168397943989,-21.000751032642 L12.428946572865797,-25.166102471158432" fill="green" fill-opacity="0.6" stroke="black" stroke-width="1" />
<path d="M2.6319517934705883,16.448369483435016 L10.648168397943989,21.000751032642 L12.428946572865797,25.166102471158432" fill="black" fill-opacity="0.6" stroke="black" stroke-width="1" />
<path d="M2.6319517934705883,83.55163051656498 L10.648168397943989,78.999248967358 L12.428946572865797,74.83389752884156" fill="blue" fill-opacity="0.6" stroke="black" stroke-width="1" />
<path d="M2.6319517934705883,-83.55163051656498 L10.648168397943989,-78.999248967358 L12.428946572865797,-74.83389752884156" fill="blue" fill-opacity="0.6" stroke="black" stroke-width="1" />
<path d="M10.648168397943989,-21.000751032642 L12.428946572865797,-25.166102471158432 L15.769719847757493,-27.856258140809782" fill="black" fill-opacity="0.6" stroke="black" stroke-width="1" />
<path d="M10.648168397943989,21.000751032642 L12.428946572865797,25.166102471158432 L15.769719847757493,27.856258140809782" fill="black" fill-opacity="0.6" stroke="black" stroke-width="1" />
<path d="M10.648168397943989,78.999248967358 L12.428946572865797,74.83389752884156 L15.769719847757493,72.14374185919021" fill="green" fill-opacity="0.6" stroke="black" stroke-width="1" />
<path d="M10.648168397943989,-78.999248967358 L12.428946572865797,-74.83389752884156 L15.769719847757493,-72.14374185919021" fill="yellow" fill-opacity="0.6" stroke="black" stroke-width="1" />
<path d="M12.428946572865797,-25.166102471158432 L15.769719847757493,-27.856258140809782 L0.0,-40.0" fill="black" fill-opacity="0.6" stroke="black" stroke-width="1" />
<path d="M12.428946572865797,25.166102471158432 L15.769719847757493,27.856258140809782 L0.0,40.0" fill="brown" fill-opacity="0.6" stroke="black" stroke-width="1" />
<path d="M12.428946572865797,74.83389752884156 L15.769719847757493,72.14374185919021 L0.0,60.0" fill="yellow" fill-opacity="0.6" stroke="black" stroke-width="1" />
<path d="M12.428946572865797,-74.83389752884156 L15.769719847757493,-72.14374185919021 L0.0,-60.0" fill="pink" fill-opacity="0.6" stroke="black" stroke-width="1" />
<path d="M18.0,-50.0 L39.8081950638219,-48.77407951451018 L45.0,-50.0" fill="blue" fill-opacity="0.6" stroke="black" stroke-width="1" />
<path d="M18.0,50.0 L39.8081950638219,48.77407951451018 L45.0,50.0" fill="blue" fill-opacity="0.6" stroke="black" stroke-width="1" />
<path d="M18.0,50.0 L39.8081950638219,51.22592048548982 L45.0,50.0" fill="blue" fill-opacity="0.6" stroke="black" stroke-width="1" />
<path d="M18.0,-50.0 L39.8081950638219,-51.22592048548982 L45.0,-50.0" fill="orange" fill-opacity="0.6" stroke="black" stroke-width="1" />
<path d="M45.0,-45.0 L32.62545838119513,-35.56398455080767 L22.0,-22.0" fill="yellow" fill-opacity="0.6" stroke="black" stroke-width="1" />
<path d="M45.0,45.0 L32.62545838119513,35.56398455080767 L22.0,22.0" fill="purple" fill-opacity="0.6" stroke="black" stroke-width="1" />
<path d="M45.0,55.0 L32.62545838119513,64.43601544919233 L22.0,78.0" fill="red" fill-opacity="0.6" stroke="black" stroke-width="1" />
<path d="M45.0,-55.0 L32.62545838119513,-64.43601544919233 L22.0,-78.0" fill="red" fill-opacity="0.6" stroke="black" stroke-width="1" />
<path d="M22.0,-22.0 L9.5615947996564,-17.441066021969288 L12.0,-12.0" fill="purple" fill-opacity="0.6" stroke="black" stroke-width="1" />
<path d="M22.0,22.0 L9.5615947996564,17.441066021969288 L12.0,12.0" fill="pink" fill-opacity="0.6" stroke="black" stroke-width="1" />
<path d="M22.0,78.0 L9.5615947996564,82.55893397803071 L12.0,88.0" fill="black" fill-opacity="0.6" stroke="black" stroke-width="1" />
<path d="M22.0,-78.0 L9.5615947996564,-82.55893397803071 L12.0,-88.0" fill="brown" fill-opacity="0.6" stroke="black" stroke-width="1" />
<path d="M7.0,-7.0 L0.6078533975776998,-3.2102989290587303 L0.18641212214417438,-1.2187158175289925" fill="purple" fill-opacity="0.6" stroke="black" stroke-width="1" />
<path d="M7.0,7.0 L0.6078533975776998,3.2102989290587303 L0.18641212214417438,1.2187158175289925" fill="brown" fill-opacity="0.6" stroke="black" stroke-width="1" />
<path d="M7.0,93.0 L0.6078533975776998,96.78970107094128 L0.18641212214417438,98.78128418247101" fill="blue" fill-opacity="0.6" stroke="black" stroke-width="1" />
<path d="M7.0,-93.0 L0.6078533975776998,-96.78970107094128 L0.18641212214417438,-98.78128418247101" fill="green" fill-opacity="0.6" stroke="black" stroke-width="1" />
<path d="M0.6078533975776998,-3.2102989290587303 L0.18641212214417438,-1.2187158175289925 L0.08331315134749682,-0.6857780893407606" fill="black" fill-opacity="0.6" stroke="black" stroke-width="1" />
<path d="M0.6078533975776998,3.2102989290587303 L0.18641212214417438,1.2187158175289925 L0.08331315134749682,0.6857780893407606" fill="blue" fill-opacity="0.6" stroke="black" stroke-width="1" />
<path d="M0.6078533975776998,96.78970107094128 L0.18641212214417438,98.78128418247101 L0.08331315134749682,99.31422191065924" fill="blue" fill-opacity="0.6" stroke="black" stroke-width="1" />
<path d="M0.6078533975776998,-96.78970107094128 L0.18641212214417438,-98.78128418247101 L0.08331315134749682,-99.31422191065924" fill="orange" fill-opacity="0.6" stroke="black" stroke-width="1" />
<path d="M0.18641212214417438,-1.2187158175289925 L0.08331315134749682,-0.6857780893407606 L0.043550938758615126,-0.30962167407098673" fill="blue" fill-opacity="0.6" stroke="black" stroke-width="1" />
<path d="M0.18641212214417438,1.2187158175289925 L0.08331315134749682,0.6857780893407606 L0.043550938758615126,0.30962167407098673" fill="brown" fill-opacity="0.6" stroke="black" stroke-width="1" />
<path d="M0.18641212214417438,98.78128418247101 L0.08331315134749682,99.31422191065924 L0.043550938758615126,99.690378325929" fill="orange" fill-opacity="0.6" stroke="black" stroke-width="1" />
<path d="M0.18641212214417438,-98.78128418247101 L0.08331315134749682,-99.31422191065924 L0.043550938758615126,-99.690378325929" fill="blue" fill-opacity="0.6" stroke="black" stroke-width="1" />
<path d="M0.08331315134749682,-0.6857780893407606 L0.043550938758615126,-0.30962167407098673 L0.0,-0.0" fill="black" fill-opacity="0.6" stroke="black" stroke-width="1" />
<path d="M0.08331315134749682,0.6857780893407606 L0.043550938758615126,0.30962167407098673 L0.0,-0.0" fill="yellow" fill-opacity="0.6" stroke="black" stroke-width="1" />
<path d="M0.08331315134749682,99.31422191065924 L0.043550938758615126,99.690378325929 L0.0,100.0" fill="black" fill-opacity="0.6" stroke="black" stroke-width="1" />
<path d="M0.08331315134749682,-99.31422191065924 L0.043550938758615126,-99.690378325929 L0.0,-100.0" fill="black" fill-opacity="0.6" stroke="black" stroke-width="1" />
<path d="M0.0,96.0 L-1.521233533795166,87.84033230511129 L-1.8633952895527521,87.0531230012052" fill="red" fill-opacity="0.6" stroke="black" stroke-width="1" />
<path d="M0.0,-4.0 L-1.521233533795166,-12.159667694888709 L-1.8633952895527521,-12.946876998794808" fill="brown" fill-opacity="0.6" stroke="black" stroke-width="1" />
<path d="M0.0,4.0 L-1.521233533795166,12.15966769488871 L-1.8633952895527521,12.946876998794806" fill="orange" fill-opacity="0.6" stroke="black" stroke-width="1" />
<path d="M0.0,-96.0 L-1.521233533795166,-87.84033230511129 L-1.8633952895527521,-87.0531230012052" fill="orange" fill-opacity="0.6" stroke="black" stroke-width="1" />
<path d="M-1.521233533795166,87.84033230511129 L-1.8633952895527521,87.0531230012052 L-2.5997280482847107,85.07276432575134" fill="pink" fill-opacity="0.6" stroke="black" stroke-width="1" />
<path d="M-1.521233533795166,-12.159667694888709 L-1.8633952895527521,-12.946876998794808 L-2.5997280482847107,-14.927235674248656" fill="green" fill-opacity="0.6" stroke="black" stroke-width="1" />
<path d="M-1.521233533795166,12.15966769488871 L-1.8633952895527521,12.946876998794806 L-2.5997280482847107,14.927235674248664" fill="orange" fill-opacity="0.6" stroke="black" stroke-width="1" />
<path d="M-1.521233533795166,-87.84033230511129 L-1.8633952895527521,-87.0531230012052 L-2.5997280482847107,-85.07276432575134" fill="purple" fill-opacity="0.6" stroke="black" stroke-width="1" />
<path d="M-1.8633952895527521,87.0531230012052 L-2.5997280482847107,85.07276432575134 L-2.6319517934705883,83.55163051656498" fill="green" fill-opacity="0.6" stroke="black" stroke-width="1" />
<path d="M-1.8633952895527521,-12.946876998794808 L-2.5997280482847107,-14.927235674248656 L-2.6319517934705883,-16.448369483435016" fill="purple" fill-opacity="0.6" stroke="black" stroke-width="1" />
<path d="M-1.8633952895527521,12.946876998794806 L-2.5997280482847107,14.927235674248664 L-2.6319517934705883,16.448369483435016" fill="orange" fill-opacity="0.6" stroke="black" stroke-width="1" />
<path d="M-1.8633952895527521,-87.0531230012052 L-2.5997280482847107,-85.07276432575134 L-2.6319517934705883,-83.55163051656498" fill="pink" fill-opacity="0.6" stroke="black" stroke-width="1" />
<path d="M-2.5997280482847107,85.07276432575134 L-2.6319517934705883,83.55163051656498 L-10.648168397943989,78.999248967358" fill="purple" fill-opacity="0.6" stroke="black" stroke-width="1" />
<path d="M-2.5997280482847107,-14.927235674248656 L-2.6319517934705883,-16.448369483435016 L-10.648168397943989,-21.000751032642" fill="red" fill-opacity="0.6" stroke="black" stroke-width="1" />
<path d="M-2.5997280482847107,14.927235674248664 L-2.6319517934705883,16.448369483435016 L-10.648168397943989,21.000751032642" fill="red" fill-opacity="0.6" stroke="black" stroke-width="1" />
<path d="M-2.5997280482847107,-85.07276432575134 L-2.6319517934705883,-83.55163051656498 L-10.648168397943989,-78.999248967358" fill="purple" fill-opacity="0.6" stroke="black" stroke-width="1" />
<path d="M-2.6319517934705883,83.55163051656498 L-10.648168397943989,78.999248967358 L-12.428946572865797,74.83389752884156" fill="red" fill-opacity="0.6" stroke="black" stroke-width="1" />
<path d="M-2.6319517934705883,-16.448369483435016 L-10.648168397943989,-21.000751032642 L-12.428946572865797,-25.166102471158432" fill="blue" fill-opacity="0.6" stroke="black" stroke-width="1" />
<path d="M-2.6319517934705883,16.448369483435016 L-10.648168397943989,21.000751032642 L-12.428946572865797,25.16610247115844" fill="black" fill-opacity="0.6" stroke="black" stroke-width="1" />
<path d="M-2.6319517934705883,-83.55163051656498 L-10.648168397943989,-78.999248967358 L-12.428946572865797,-74.83389752884156" fill="black" fill-opacity="0.6" stroke="black" stroke-width="1" />
<path d="M-10.648168397943989,78.999248967358 L-12.428946572865797,74.83389752884156 L-15.769719847757493,72.14374185919021" fill="purple" fill-opacity="0.6" stroke="black" stroke-width="1" />
<path d="M-10.648168397943989,-21.000751032642 L-12.428946572865797,-25.166102471158432 L-15.769719847757493,-27.856258140809782" fill="brown" fill-opacity="0.6" stroke="black" stroke-width="1" />
<path d="M-10.648168397943989,21.000751032642 L-12.428946572865797,25.16610247115844 L-15.769719847757493,27.856258140809786" fill="pink" fill-opacity="0.6" stroke="black" stroke-width="1" />
<path d="M-10.648168397943989,-78.999248967358 L-12.428946572865797,-74.83389752884156 L-15.769719847757493,-72.14374185919021" fill="pink" fill-opacity="0.6" stroke="black" stroke-width="1" />
<path d="M-12.428946572865797,74.83389752884156 L-15.769719847757493,72.14374185919021 L0.0,60.0" fill="yellow" fill-opacity="0.6" stroke="black" stroke-width="1" />
<path d="M-12.428946572865797,-25.166102471158432 L-15.769719847757493,-27.856258140809782 L0.0,-40.0" fill="blue" fill-opacity="0.6" stroke="black" stroke-width="1" />
<path d="M-12.428946572865797,25.16610247115844 L-15.769719847757493,27.856258140809786 L0.0,40.0" fill="green" fill-opacity="0.6" stroke="black" stroke-width="1" />
<path d="M-12.428946572865797,-74.83389752884156 L-15.769719847757493,-72.14374185919021 L0.0,-60.0" fill="red" fill-opacity="0.6" stroke="black" stroke-width="1" />
<path d="M-18.0,50.0 L-39.8081950638219,51.22592048548982 L-45.0,50.0" fill="pink" fill-opacity="0.6" stroke="black" stroke-width="1" />
<path d="M-18.0,-50.0 L-39.8081950638219,-48.77407951451018 L-45.0,-50.0" fill="yellow" fill-opacity="0.6" stroke="black" stroke-width="1" />
<path d="M-18.0,50.0 L-39.8081950638219,48.77407951451018 L-45.0,50.0" fill="green" fill-opacity="0.6" stroke="black" stroke-width="1" />
<path d="M-18.0,-50.0 L-39.8081950638219,-51.22592048548982 L-45.0,-50.0" fill="brown" fill-opacity="0.6" stroke="black" stroke-width="1" />
<path d="M-45.0,55.0 L-32.62545838119513,64.43601544919233 L-22.0,78.0" fill="green" fill-opacity="0.6" stroke="black" stroke-width="1" />
<path d="M-45.0,-45.0 L-32.62545838119513,-35.56398455080767 L-22.0,-22.0" fill="brown" fill-opacity="0.6" stroke="black" stroke-width="1" />
<path d="M-45.0,45.0 L-32.62545838119513,35.563984550807675 L-22.0,22.0" fill="yellow" fill-opacity="0.6" stroke="black" stroke-width="1" />
<path d="M-45.0,-55.0 L-32.62545838119513,-64.43601544919233 L-22.0,-78.0" fill="green" fill-opacity="0.6" stroke="black" stroke-width="1" />
<path d="M-22.0,78.0 L-9.5615947996564,82.55893397803071 L-12.0,88.0" fill="yellow" fill-opacity="0.6" stroke="black" stroke-width="1" />
<path d="M-22.0,-22.0 L-9.5615947996564,-17.441066021969288 L-12.0,-12.0" fill="yellow" fill-opacity="0.6" stroke="black" stroke-width="1" />
<path d="M-22.0,22.0 L-9.5615947996564,17.44106602196929 L-12.0,12.0" fill="yellow" fill-opacity="0.6" stroke="black" stroke-width="1" />
<path d="M-22.0,-78.0 L-9.5615947996564,-82.55893397803071 L-12.0,-88.0" fill="blue" fill-opacity="0.6" stroke="black" stroke-width="1" />
<path d="M-7.0,93.0 L-0.6078533975776998,96.78970107094128 L-0.18641212214417438,98.78128418247101" fill="pink" fill-opacity="0.6" stroke="black" stroke-width="1" />
<path d="M-7.0,-7.0 L-0.6078533975776998,-3.2102989290587303 L-0.18641212214417438,-1.2187158175289925" fill="red" fill-opacity="0.6" stroke="black" stroke-width="1" />
<path d="M-7.0,7.0 L-0.6078533975776998,3.210298929058723 L-0.18641212214417438,1.218715817528988" fill="purple" fill-opacity="0.6" stroke="black" stroke-width="1" />
<path d="M-7.0,-93.0 L-0.6078533975776998,-96.78970107094128 L-0.18641212214417438,-98.78128418247101" fill="orange" fill-opacity="0.6" stroke="black" stroke-width="1" />
<path d="M-0.6078533975776998,96.78970107094128 L-0.18641212214417438,98.78128418247101 L-0.08331315134749682,99.31422191065924" fill="red" fill-opacity="0.6" stroke="black" stroke-width="1" />
<path d="M-0.6078533975776998,-3.2102989290587303 L-0.18641212214417438,-1.2187158175289925 L-0.08331315134749682,-0.6857780893407606" fill="black" fill-opacity="0.6" stroke="black" stroke-width="1" />
<path d="M-0.6078533975776998,3.210298929058723 L-0.18641212214417438,1.218715817528988 L-0.08331315134749682,0.6857780893407579" fill="green" fill-opacity="0.6" stroke="black" stroke-width="1" />
<path d="M-0.6078533975776998,-96.78970107094128 L-0.18641212214417438,-98.78128418247101 L-0.08331315134749682,-99.31422191065924" fill="orange" fill-opacity="0.6" stroke="black" stroke-width="1" />
<path d="M-0.18641212214417438,98.78128418247101 L-0.08331315134749682,99.31422191065924 L-0.043550938758615126,99.69037832592902" fill="black" fill-opacity="0.6" stroke="black" stroke-width="1" />
<path d="M-0.18641212214417438,-1.2187158175289925 L-0.08331315134749682,-0.6857780893407606 L-0.043550938758615126,-0.30962167407098673" fill="black" fill-opacity="0.6" stroke="black" stroke-width="1" />
<path d="M-0.18641212214417438,1.218715817528988 L-0.08331315134749682,0.6857780893407579 L-0.043550938758615126,0.30962167407098207" fill="purple" fill-opacity="0.6" stroke="black" stroke-width="1" />
<path d="M-0.18641212214417438,-98.78128418247101 L-0.08331315134749682,-99.31422191065924 L-0.043550938758615126,-99.690378325929" fill="purple" fill-opacity="0.6" stroke="black" stroke-width="1" />
<path d="M-0.08331315134749682,99.31422191065924 L-0.043550938758615126,99.69037832592902 L0.0,100.0" fill="green" fill-opacity="0.6" stroke="black" stroke-width="1" />
<path d="M-0.08331315134749682,-0.6857780893407606 L-0.043550938758615126,-0.30962167407098673 L0.0,-0.0" fill="brown" fill-opacity="0.6" stroke="black" stroke-width="1" />
<path d="M-0.08331315134749682,0.6857780893407579 L-0.043550938758615126,0.30962167407098207 L0.0,-0.0" fill="yellow" fill-opacity="0.6" stroke="black" stroke-width="1" />
<path d="M-0.08331315134749682,-99.31422191065924 L-0.043550938758615126,-99.690378325929 L0.0,-100.0" fill="black" fill-opacity="0.6" stroke="black" stroke-width="1" />
<path d="M-96.0,-0.0 L-87.84033230511129,-1.521233533795166 L-87.0531230012052,-1.8633952895527521" fill="purple" fill-opacity="0.6" stroke="black" stroke-width="1" />
<path d="M-96.0,-0.0 L-87.84033230511129,1.521233533795166 L-87.0531230012052,1.8633952895527521" fill="pink" fill-opacity="0.6" stroke="black" stroke-width="1" />
<path d="M-87.84033230511129,-1.521233533795166 L-87.0531230012052,-1.8633952895527521 L-85.07276432575134,-2.5997280482847107" fill="blue" fill-opacity="0.6" stroke="black" stroke-width="1" />
<path d="M-87.84033230511129,1.521233533795166 L-87.0531230012052,1.8633952895527521 L-85.07276432575134,2.5997280482847107" fill="black" fill-opacity="0.6" stroke="black" stroke-width="1" />
<path d="M-87.0531230012052,-1.8633952895527521 L-85.07276432575134,-2.5997280482847107 L-83.55163051656498,-2.6319517934705883" fill="green" fill-opacity="0.6" stroke="black" stroke-width="1" />
<path d="M-87.0531230012052,1.8633952895527521 L-85.07276432575134,2.5997280482847107 L-83.55163051656498,2.6319517934705883" fill="red" fill-opacity="0.6" stroke="black" stroke-width="1" />
<path d="M-85.07276432575134,-2.5997280482847107 L-83.55163051656498,-2.6319517934705883 L-78.999248967358,-10.648168397943989" fill="green" fill-opacity="0.6" stroke="black" stroke-width="1" />
<path d="M-85.07276432575134,2.5997280482847107 L-83.55163051656498,2.6319517934705883 L-78.999248967358,10.648168397943989" fill="black" fill-opacity="0.6" stroke="black" stroke-width="1" />
<path d="M-83.55163051656498,-2.6319517934705883 L-78.999248967358,-10.648168397943989 L-74.83389752884156,-12.428946572865797" fill="yellow" fill-opacity="0.6" stroke="black" stroke-width="1" />
<path d="M-83.55163051656498,2.6319517934705883 L-78.999248967358,10.648168397943989 L-74.83389752884156,12.428946572865797" fill="orange" fill-opacity="0.6" stroke="black" stroke-width="1" />
<path d="M-78.999248967358,-10.648168397943989 L-74.83389752884156,-12.428946572865797 L-72.14374185919021,-15.769719847757493" fill="black" fill-opacity="0.6" stroke="black" stroke-width="1" />
<path d="M-78.999248967358,10.648168397943989 L-74.83389752884156,12.428946572865797 L-72.14374185919021,15.769719847757493" fill="purple" fill-opacity="0.6" stroke="black" stroke-width="1" />
<path d="M-74.83389752884156,-12.428946572865797 L-72.14374185919021,-15.769719847757493 L-60.0,-0.0" fill="red" fill-opacity="0.6" stroke="black" stroke-width="1" />
<path d="M-74.83389752884156,12.428946572865797 L-72.14374185919021,15.769719847757493 L-60.0,-0.0" fill="blue" fill-opacity="0.6" stroke="black" stroke-width="1" />
<path d="M-50.0,-18.0 L-51.22592048548982,-39.8081950638219 L-50.0,-45.0" fill="black" fill-opacity="0.6" stroke="black" stroke-width="1" />
<path d="M-50.0,18.0 L-51.22592048548982,39.8081950638219 L-50.0,45.0" fill="orange" fill-opacity="0.6" stroke="black" stroke-width="1" />
<path d="M-50.0,-45.0 L-55.0,-45.0 L-64.43601544919233,-32.62545838119513" fill="blue" fill-opacity="0.6" stroke="black" stroke-width="1" />
<path d="M-50.0,45.0 L-55.0,45.0 L-64.43601544919233,32.62545838119513" fill="green" fill-opacity="0.6" stroke="black" stroke-width="1" />
<path d="M-55.0,-45.0 L-64.43601544919233,-32.62545838119513 L-78.0,-22.0" fill="yellow" fill-opacity="0.6" stroke="black" stroke-width="1" />
<path d="M-55.0,45.0 L-64.43601544919233,32.62545838119513 L-78.0,22.0" fill="pink" fill-opacity="0.6" stroke="black" stroke-width="1" />
<path d="M-64.43601544919233,-32.62545838119513 L-78.0,-22.0 L-82.55893397803071,-9.5615947996564" fill="brown" fill-opacity="0.6" stroke="black" stroke-width="1" />
<path d="M-64.43601544919233,32.62545838119513 L-78.0,22.0 L-82.55893397803071,9.5615947996564" fill="yellow" fill-opacity="0.6" stroke="black" stroke-width="1" />
<path d="M-78.0,-22.0 L-82.55893397803071,-9.5615947996564 L-88.0,-12.0" fill="yellow" fill-opacity="0.6" stroke="black" stroke-width="1" />
<path d="M-78.0,22.0 L-82.55893397803071,9.5615947996564 L-88.0,12.0" fill="orange" fill-opacity="0.6" stroke="black" stroke-width="1" />
<path d="M-82.55893397803071,-9.5615947996564 L-88.0,-12.0 L-93.0,-7.0" fill="green" fill-opacity="0.6" stroke="black" stroke-width="1" />
<path d="M-82.55893397803071,9.5615947996564 L-88.0,12.0 L-93.0,7.0" fill="pink" fill-opacity="0.6" stroke="black" stroke-width="1" />
<path d="M-88.0,-12.0 L-93.0,-7.0 L-96.78970107094128,-0.6078533975776998" fill="purple" fill-opacity="0.6" stroke="black" stroke-width="1" />
<path d="M-88.0,12.0 L-93.0,7.0 L-96.78970107094128,0.6078533975776998" fill="orange" fill-opacity="0.6" stroke="black" stroke-width="1" />
<path d="M-93.0,-7.0 L-96.78970107094128,-0.6078533975776998 L-98.78128418247101,-0.18641212214417438" fill="red" fill-opacity="0.6" stroke="black" stroke-width="1" />
<path d="M-93.0,7.0 L-96.78970107094128,0.6078533975776998 L-98.78128418247101,0.18641212214417438" fill="black" fill-opacity="0.6" stroke="black" stroke-width="1" />
<path d="M-96.78970107094128,-0.6078533975776998 L-98.78128418247101,-0.18641212214417438 L-99.31422191065924,-0.08331315134749682" fill="yellow" fill-opacity="0.6" stroke="black" stroke-width="1" />
<path d="M-96.78970107094128,0.6078533975776998 L-98.78128418247101,0.18641212214417438 L-99.31422191065924,0.08331315134749682" fill="black" fill-opacity="0.6" stroke="black" stroke-width="1" />
<path d="M-98.78128418247101,-0.18641212214417438 L-99.31422191065924,-0.08331315134749682 L-99.690378325929,-0.043550938758615126" fill="yellow" fill-opacity="0.6" stroke="black" stroke-width="1" />
<path d="M-98.78128418247101,0.18641212214417438 L-99.31422191065924,0.08331315134749682 L-99.690378325929,0.043550938758615126" fill="green" fill-opacity="0.6" stroke="black" stroke-width="1" />
<path d="M-99.31422191065924,-0.08331315134749682 L-99.690378325929,-0.043550938758615126 L-100.0,-0.0" fill="red" fill-opacity="0.6" stroke="black" stroke-width="1" />
<path d="M-99.31422191065924,0.08331315134749682 L-99.690378325929,0.043550938758615126 L-100.0,-0.0" fill="green" fill-opacity="0.6" stroke="black" stroke-width="1" />
</svg>