<?xml version="1.0" encoding="UTF-8"?>
<svg xmlns="http://www.w3.org/2000/svg" xmlns:xlink="http://www.w3.org/1999/xlink"
     width="250" height="250" viewBox="-125.0 -125.0 250 250">
<defs>
</defs>
<path d="M0.0,-0.0 L10.578378231221697,-1.2190497403921363 L12.118169074337949,-2.441874457384663" fill="brown" fill-opacity="0.6" stroke="black" stroke-width="1" />
<path d="M0.0,-0.0 L10.578378231221697,1.2190497403921363 L12.118169074337949,2.441874457384663" fill="black" fill-opacity="0.6" stroke="black" stroke-width="1" />
<path d="M10.578378231221697,-1.2190497403921363 L12.118169074337949,-2.441874457384663 L12.636414228258474,-2.486450146460347" fill="red" fill-opacity="0.6" stroke="black" stroke-width="1" />
<path d="M10.578378231221697,1.2190497403921363 L12.118169074337949,2.441874457384663 L12.636414228258474,2.486450146460347" fill="black" fill-opacity="0.6" stroke="black" stroke-width="1" />
<path d="M12.118169074337949,-2.441874457384663 L12.636414228258474,-2.486450146460347 L20.0,-0.0" fill="red" fill-opacity="0.6" stroke="black" stroke-width="1" />
<path d="M12.118169074337949,2.441874457384663 L12.636414228258474,2.486450146460347 L20.0,-0.0" fill="red" fill-opacity="0.6" stroke="black" stroke-width="1" />
<path d="M20.0,-0.0 L26.34636337624339,-4.410701190373251 L26.71067658368702,-6.180079736099947" fill="blue" fill-opacity="0.6" stroke="black" stroke-width="1" />
<path d="M20.0,-0.0 L26.34636337624339,4.410701190373251 L26.71067658368702,6.180079736099947" fill="red" fill-opacity="0.6" stroke="black" stroke-width="1" />
<path d="M26.34636337624339,-4.410701190373251 L26.71067658368702,-6.180079736099947 L29.491643486838765,-12.156056139310367" fill="red" fill-opacity="0.6" stroke="black" stroke-width="1" />
<path d="M26.34636337624339,4.410701190373251 L26.71067658368702,6.180079736099947 L29.491643486838765,12.156056139310367" fill="orange" fill-opacity="0.6" stroke="black" stroke-width="1" />
<path d="M26.71067658368702,-6.180079736099947 L29.491643486838765,-12.156056139310367 L40.0,-0.0" fill="orange" fill-opacity="0.6" stroke="black" stroke-width="1" />
<path d="M26.71067658368702,6.180079736099947 L29.491643486838765,12.156056139310367 L40.0,-0.0" fill="purple" fill-opacity="0.6" stroke="black" stroke-width="1" />
<path d="M50.0,-12.0 L36.651171049691385,-19.476911777438403 L37.13567636753951,-23.407014209319918" fill="red" fill-opacity="0.6" stroke="black" stroke-width="1" />
<path d="M50.0,12.0 L36.651171049691385,19.476911777438403 L37.13567636753951,23.407014209319918" fill="orange" fill-opacity="0.6" stroke="black" stroke-width="1" />
<path d="M36.651171049691385,-19.476911777438403 L37.13567636753951,-23.407014209319918 L40.81131731019494,-23.771546842417727" fill="purple" fill-opacity="0.6" stroke="black" stroke-width="1" />
<path d="M36.651171049691385,19.476911777438403 L37.13567636753951,23.407014209319918 L40.81131731019494,23.771546842417727" fill="green" fill-opacity="0.6" stroke="black" stroke-width="1" />
<path d="M37.13567636753951,-23.407014209319918 L40.81131731019494,-23.771546842417727 L50.0,-25.0" fill="red" fill-opacity="0.6" stroke="black" stroke-width="1" />
<path d="M37.13567636753951,23.407014209319918 L40.81131731019494,23.771546842417727 L50.0,25.0" fill="red" fill-opacity="0.6" stroke="black" stroke-width="1" />
<path d="M50.0,-25.0 L43.40548523298507,-25.905513172773485 L43.45464824214032,-26.052883099850778" fill="yellow" fill-opacity="0.6" stroke="black" stroke-width="1" />
<path d="M50.0,25.0 L43.40548523298507,25.905513172773485 L43.45464824214032,26.052883099850778" fill="yellow" fill-opacity="0.6" stroke="black" stroke-width="1" />
<path d="M43.40548523298507,-25.905513172773485 L43.45464824214032,-26.052883099850778 L43.654428521927564,-26.21758560545008" fill="yellow" fill-opacity="0.6" stroke="black" stroke-width="1" />
<path d="M43.40548523298507,25.905513172773485 L43.45464824214032,26.052883099850778 L43.654428521927564,26.21758560545008" fill="purple" fill-opacity="0.6" stroke="black" stroke-width="1" />
<path d="M43.45464824214032,-26.052883099850778 L43.654428521927564,-26.21758560545008 L45.19681507926309,-36.57163132306843" fill="orange" fill-opacity="0.6" stroke="black" stroke-width="1" />
<path d="M43.45464824214032,26.052883099850778 L43.654428521927564,26.21758560545008 L45.19681507926309,36.57163132306843" fill="blue" fill-opacity="0.6" stroke="black" stroke-width="1" />
<path d="M43.654428521927564,-26.21758560545008 L45.19681507926309,-36.57163132306843 L50.0,-50.0" fill="purple" fill-opacity="0.6" stroke="black" stroke-width="1" />
<path d="M43.654428521927564,26.21758560545008 L45.19681507926309,36.57163132306843 L50.0,50.0" fill="orange" fill-opacity="0.6" stroke="black" stroke-width="1" />
<path d="M50.0,-50.0 L45.96316946013114,-39.22039596282282 L39.0,-39.0" fill="brown" fill-opacity="0.6" stroke="black" stroke-width="1" />
<path d="M50.0,50.0 L45.96316946013114,39.22039596282282 L39.0,39.0" fill="purple" fill-opacity="0.6" stroke="black" stroke-width="1" />
<path d="M39.22039596282282,54.03683053986886 L39.0,61.0 L18.0,82.0" fill="brown" fill-opacity="0.6" stroke="black" stroke-width="1" />
<path d="M39.22039596282282,-54.03683053986886 L39.0,-61.0 L18.0,-82.0" fill="black" fill-opacity="0.6" stroke="black" stroke-width="1" />
<path d="M39.0,61.0 L18.0,82.0 L16.0,84.0" fill="black" fill-opacity="0.6" stroke="black" stroke-width="1" />
<path d="M39.0,-61.0 L18.0,-82.0 L16.0,-84.0" fill="brown" fill-opacity="0.6" stroke="black" stroke-width="1" />
<path d="M18.0,82.0 L16.0,84.0 L11.0,89.0" fill="purple" fill-opacity="0.6" stroke="black" stroke-width="1" />
<path d="M18.0,-82.0 L16.0,-84.0 L11.0,-89.0" fill="black" fill-opacity="0.6" stroke="black" stroke-width="1" />
<path d="M16.0,84.0 L11.0,89.0 L1.0947419154644171,95.73768949394963" fill="black" fill-opacity="0.6" stroke="black" stroke-width="1" />
<path d="M16.0,-84.0 L11.0,-89.0 L1.0947419154644171,-95.73768949394963" fill="purple" fill-opacity="0.6" stroke="black" stroke-width="1" />
<path d="M11.0,-11.0 L4.262310506050365,-1.0947419154644171 L3.6225124572467573,-0.8208466767160028" fill="green" fill-opacity="0.6" stroke="black" stroke-width="1" />
<path d="M11.0,11.0 L4.262310506050365,1.0947419154644171 L3.6225124572467573,0.8208466767160028" fill="brown" fill-opacity="0.6" stroke="black" stroke-width="1" />
<path d="M4.262310506050365,-1.0947419154644171 L3.6225124572467573,-0.8208466767160028 L3.421504499985434,-0.6330068562184571" fill="red" fill-opacity="0.6" stroke="black" stroke-width="1" />
<path d="M4.262310506050365,1.0947419154644171 L3.6225124572467573,0.8208466767160028 L3.421504499985434,0.6330068562184571" fill="orange" fill-opacity="0.6" stroke="black" stroke-width="1" />
<path d="M3.6225124572467573,-0.8208466767160028 L3.421504499985434,-0.6330068562184571 L2.1161874097219533,-0.29439603974383277" fill="blue" fill-opacity="0.6" stroke="black" stroke-width="1" />
<path d="M3.6225124572467573,0.8208466767160028 L3.421504499985434,0.6330068562184571 L2.1161874097219533,0.29439603974383277" fill="green" fill-opacity="0.6" stroke="black" stroke-width="1" />
<path d="M3.421504499985434,-0.6330068562184571 L2.1161874097219533,-0.29439603974383277 L0.3331118877232253,-0.20621064486297855" fill="blue" fill-opacity="0.6" stroke="black" stroke-width="1" />
<path d="M3.421504499985434,0.6330068562184571 L2.1161874097219533,0.29439603974383277 L0.3331118877232253,0.20621064486297855" fill="orange" fill-opacity="0.6" stroke="black" stroke-width="1" />
<path d="M2.1161874097219533,-0.29439603974383277 L0.3331118877232253,-0.20621064486297855 L0.0,-0.0" fill="purple" fill-opacity="0.6" stroke="black" stroke-width="1" />
<path d="M2.1161874097219533,0.29439603974383277 L0.3331118877232253,0.20621064486297855 L0.0,-0.0" fill="pink" fill-opacity="0.6" stroke="black" stroke-width="1" />
<path d="M0.0,-0.0 L-10.578378231221697,-1.2190497403921363 L-12.118169074337949,-2.441874457384663" fill="yellow" fill-opacity="0.6" stroke="black" stroke-width="1" />
<path d="M0.0,-0.0 L-10.578378231221697,1.2190497403921363 L-12.118169074337949,2.441874457384663" fill="black" fill-opacity="0.6" stroke="black" stroke-width="1" />
<path d="M-10.578378231221697,-1.2190497403921363 L-12.118169074337949,-2.441874457384663 L-12.636414228258474,-2.486450146460347" fill="blue" fill-opacity="0.6" stroke="black" stroke-width="1" />
<path d="M-10.578378231221697,1.2190497403921363 L-12.118169074337949,2.441874457384663 L-12.636414228258474,2.486450146460347" fill="orange" fill-opacity="0.6" stroke="black" stroke-width="1" />
<path d="M-12.118169074337949,-2.441874457384663 L-12.636414228258474,-2.486450146460347 L-20.0,-0.0" fill="orange" fill-opacity="0.6" stroke="black" stroke-width="1" />
<path d="M-12.118169074337949,2.441874457384663 L-12.636414228258474,2.486450146460347 L-20.0,-0.0" fill="black" fill-opacity="0.6" stroke="black" stroke-width="1" />
<path d="M-20.0,-0.0 L-26.34636337624339,-4.410701190373251 L-26.71067658368702,-6.180079736099947" fill="orange" fill-opacity="0.6" stroke="black" stroke-width="1" />
<path d="M-20.0,-0.0 L-26.34636337624339,4.410701190373251 L-26.71067658368702,6.180079736099947" fill="orange" fill-opacity="0.6" stroke="black" stroke-width="1" />
<path d="M-26.34636337624339,-4.410701190373251 L-26.71067658368702,-6.180079736099947 L-29.491643486838765,-12.156056139310367" fill="green" fill-opacity="0.6" stroke="black" stroke-width="1" />
<path d="M-26.34636337624339,4.410701190373251 L-26.71067658368702,6.180079736099947 L-29.491643486838765,12.156056139310367" fill="red" fill-opacity="0.6" stroke="black" stroke-width="1" />
<path d="M-26.71067658368702,-6.180079736099947 L-29.491643486838765,-12.156056139310367 L-40.0,-0.0" fill="pink" fill-opacity="0.6" stroke="black" stroke-width="1" />
<path d="M-26.71067658368702,6.180079736099947 L-29.491643486838765,12.156056139310367 L-40.0,-0.0" fill="green" fill-opacity="0.6" stroke="black" stroke-width="1" />
<path d="M-50.0,-12.0 L-36.651171049691385,-19.476911777438403 L-37.13567636753951,-23.407014209319918" fill="yellow" fill-opacity="0.6" stroke="black" stroke-width="1" />
<path d="M-50.0,12.0 L-36.651171049691385,19.476911777438403 L-37.13567636753951,23.407014209319918" fill="green" fill-opacity="0.6" stroke="black" stroke-width="1" />
<path d="M-36.651171049691385,-19.476911777438403 L-37.13567636753951,-23.407014209319918 L-40.81131731019494,-23.771546842417727" fill="red" fill-opacity="0.6" stroke="black" stroke-width="1" />
<path d="M-36.651171049691385,19.476911777438403 L-37.13567636753951,23.407014209319918 L-40.81131731019494,23.771546842417727" fill="purple" fill-opacity="0.6" stroke="black" stroke-width="1" />
<path d="M-37.13567636753951,-23.407014209319918 L-40.81131731019494,-23.771546842417727 L-50.0,-25.0" fill="blue" fill-opacity="0.6" stroke="black" stroke-width="1" />
<path d="M-37.13567636753951,23.407014209319918 L-40.81131731019494,23.771546842417727 L-50.0,25.0" fill="brown" fill-opacity="0.6" stroke="black" stroke-width="1" />
<path d="M-50.0,-25.0 L-43.40548523298507,-25.905513172773485 L-43.45464824214032,-26.052883099850778" fill="brown" fill-opacity="0.6" stroke="black" stroke-width="1" />
<path d="M-50.0,25.0 L-43.40548523298507,25.905513172773485 L-43.45464824214032,26.052883099850778" fill="brown" fill-opacity="0.6" stroke="black" stroke-width="1" />
<path d="M-43.40548523298507,-25.905513172773485 L-43.45464824214032,-26.052883099850778 L-43.654428521927564,-26.21758560545008" fill="blue" fill-opacity="0.6" stroke="black" stroke-width="1" />
<path d="M-43.40548523298507,25.905513172773485 L-43.45464824214032,26.052883099850778 L-43.654428521927564,26.21758560545008" fill="yellow" fill-opacity="0.6" stroke="black" stroke-width="1" />
<path d="M-43.45464824214032,-26.052883099850778 L-43.654428521927564,-26.21758560545008 L-45.19681507926309,-36.57163132306843" fill="pink" fill-opacity="0.6" stroke="black" stroke-width="1" />
<path d="M-43.45464824214032,26.052883099850778 L-43.654428521927564,26.21758560545008 L-45.19681507926309,36.57163132306843" fill="yellow" fill-opacity="0.6" stroke="black" stroke-width="1" />
<path d="M-43.654428521927564,-26.21758560545008 L-45.19681507926309,-36.57163132306843 L-50.0,-50.0" fill="orange" fill-opacity="0.6" stroke="black" stroke-width="1" />
<path d="M-43.654428521927564,26.21758560545008 L-45.19681507926309,36.57163132306843 L-50.0,50.0" fill="orange" fill-opacity="0.6" stroke="black" stroke-width="1" />
<path d="M-50.0,-50.0 L-45.96316946013114,-39.22039596282282 L-39.0,-39.0" fill="brown" fill-opacity="0.6" stroke="black" stroke-width="1" />
<path d="M-50.0,50.0 L-45.96316946013114,39.22039596282282 L-39.0,39.0" fill="pink" fill-opacity="0.6" stroke="black" stroke-width="1" />
<path d="M-39.22039596282282,54.03683053986886 L-39.0,61.0 L-18.0,82.0" fill="yellow" fill-opacity="0.6" stroke="black" stroke-width="1" />
<path d="M-39.22039596282282,-54.03683053986886 L-39.0,-61.0 L-18.0,-82.0" fill="yellow" fill-opacity="0.6" stroke="black" stroke-width="1" />
<path d="M-39.0,61.0 L-18.0,82.0 L-16.0,84.0" fill="red" fill-opacity="0.6" stroke="black" stroke-width="1" />
<path d="M-39.0,-61.0 L-18.0,-82.0 L-16.0,-84.0" fill="green" fill-opacity="0.6" stroke="black" stroke-width="1" />
<path d="M-18.0,82.0 L-16.0,84.0 L-11.0,89.0" fill="black" fill-opacity="0.6" stroke="black" stroke-width="1" />
<path d="M-18.0,-82.0 L-16.0,-84.0 L-11.0,-89.0" fill="red" fill-opacity="0.6" stroke="black" stroke-width="1" />
<path d="M-16.0,84.0 L-11.0,89.0 L-1.0947419154644171,95.73768949394963" fill="pink" fill-opacity="0.6" stroke="black" stroke-width="1" />
<path d="M-16.0,-84.0 L-11.0,-89.0 L-1.0947419154644171,-95.73768949394963" fill="yellow" fill-opacity="0.6" stroke="black" stroke-width="1" />
<path d="M-11.0,-11.0 L-4.262310506050365,-1.0947419154644171 L-3.6225124572467573,-0.8208466767160028" fill="pink" fill-opacity="0.6" stroke="black" stroke-width="1" />
<path d="M-11.0,11.0 L-4.262310506050365,1.0947419154644171 L-3.6225124572467573,0.8208466767160028" fill="yellow" fill-opacity="0.6" stroke="black" stroke-width="1" />
<path d="M-4.262310506050365,-1.0947419154644171 L-3.6225124572467573,-0.8208466767160028 L-3.421504499985434,-0.6330068562184571" fill="orange" fill-opacity="0.6" stroke="black" stroke-width="1" />
<path d="M-4.262310506050365,1.0947419154644171 L-3.6225124572467573,0.8208466767160028 L-3.421504499985434,0.6330068562184571" fill="purple" fill-opacity="0.6" stroke="black" stroke-width="1" />
<path d="M-3.6225124572467573,-0.8208466767160028 L-3.421504499985434,-0.6330068562184571 L-2.1161874097219533,-0.29439603974383277" fill="black" fill-opacity="0.6" stroke="black" stroke-width="1" />
<path d="M-3.6225124572467573,0.8208466767160028 L-3.421504499985434,0.6330068562184571 L-2.1161874097219533,0.29439603974383277" fill="brown" fill-opacity="0.6" stroke="black" stroke-width="1" />
<path d="M-3.421504499985434,-0.6330068562184571 L-2.1161874097219533,-0.29439603974383277 L-0.3331118877232253,-0.20621064486297855" fill="purple" fill-opacity="0.6" stroke="black" stroke-width="1" />
<path d="M-3.421504499985434,0.6330068562184571 L-2.1161874097219533,0.29439603974383277 L-0.3331118877232253,0.20621064486297855" fill="black" fill-opacity="0.6" stroke="black" stroke-width="1" />
<path d="M-2.1161874097219533,-0.29439603974383277 L-0.3331118877232253,-0.20621064486297855 L0.0,-0.0" fill="red" fill-opacity="0.6" stroke="black" stroke-width="1" />
<path d="M-2.1161874097219533,0.29439603974383277 L-0.3331118877232253,0.20621064486297855 L0.0,-0.0" fill="yellow" fill-opacity="0.6" stroke="black" stroke-width="1" />
<path d="M100.0,-0.0 L89.4216217687783,1.2190497403921363 L87.88183092566206,2.441874457384663" fill="blue" fill-opacity="0.6" stroke="black" stroke-width="1" />
<path d="M100.0,-0.0 L89.4216217687783,-1.2190497403921363 L87.88183092566206,-2.441874457384663" fill="brown" fill-opacity="0.6" stroke="black" stroke-width="1" />
<path d="M89.4216217687783,1.2190497403921363 L87.88183092566206,2.441874457384663 L87.36358577174153,2.486450146460347" fill="pink" fill-opacity="0.6" stroke="black" stroke-width="1" />
<path d="M89.4216217687783,-1.2190497403921363 L87.88183092566206,-2.441874457384663 L87.36358577174153,-2.486450146460347" fill="pink" fill-opacity="0.6" stroke="black" stroke-width="1" />
<path d="M87.88183092566206,2.441874457384663 L87.36358577174153,2.486450146460347 L80.0,-0.0" fill="black" fill-opacity="0.6" stroke="black" stroke-width="1" />
<path d="M87.88183092566206,-2.441874457384663 L87.36358577174153,-2.486450146460347 L80.0,-0.0" fill="purple" fill-opacity="0.6" stroke="black" stroke-width="1" />
<path d="M80.0,-0.0 L73.65363662375661,4.410701190373251 L73.28932341631298,6.180079736099947" fill="green" fill-opacity="0.6" stroke="black" stroke-width="1" />
<path d="M80.0,-0.0 L73.65363662375661,-4.410701190373251 L73.28932341631298,-6.180079736099947" fill="yellow" fill-opacity="0.6" stroke="black" stroke-width="1" />
<path d="M73.65363662375661,4.410701190373251 L73.28932341631298,6.180079736099947 L70.50835651316123,12.156056139310367" fill="black" fill-opacity="0.6" stroke="black" stroke-width="1" />
<path d="M73.65363662375661,-4.410701190373251 L73.28932341631298,-6.180079736099947 L70.50835651316123,-12.156056139310367" fill="blue" fill-opacity="0.6" stroke="black" stroke-width="1" />
<path d="M73.28932341631298,6.180079736099947 L70.50835651316123,12.156056139310367 L60.0,-0.0" fill="blue" fill-opacity="0.6" stroke="black" stroke-width="1" />
<path d="M73.28932341631298,-6.180079736099947 L70.50835651316123,-12.156056139310367 L60.0,-0.0" fill="purple" fill-opacity="0.6" stroke="black" stroke-width="1" />
<path d="M50.0,12.0 L63.348828950308615,19.476911777438403 L62.86432363246049,23.407014209319918" fill="orange" fill-opacity="0.6" stroke="black" stroke-width="1" />
<path d="M50.0,-12.0 L63.348828950308615,-19.476911777438403 L62.86432363246049,-23.407014209319918" fill="blue" fill-opacity="0.6" stroke="black" stroke-width="1" />
<path d="M63.348828950308615,19.476911777438403 L62.86432363246049,23.407014209319918 L59.18868268980506,23.771546842417727" fill="blue" fill-opacity="0.6" stroke="black" stroke-width="1" />
<path d="M63.348828950308615,-19.476911777438403 L62.86432363246049,-23.407014209319918 L59.18868268980506,-23.771546842417727" fill="red" fill-opacity="0.6" stroke="black" stroke-width="1" />
<path d="M62.86432363246049,23.407014209319918 L59.18868268980506,23.771546842417727 L50.0,25.0" fill="purple" fill-opacity="0.6" stroke="black" stroke-width="1" />
<path d="M62.86432363246049,-23.407014209319918 L59.18868268980506,-23.771546842417727 L50.0,-25.0" fill="pink" fill-opacity="0.6" stroke="black" stroke-width="1" />
<path d="M50.0,25.0 L56.59451476701493,25.905513172773485 L56.54535175785968,26.052883099850778" fill="orange" fill-opacity="0.6" stroke="black" stroke-width="1" />
<path d="M50.0,-25.0 L56.59451476701493,-25.905513172773485 L56.54535175785968,-26.052883099850778" fill="purple" fill-opacity="0.6" stroke="black" stroke-width="1" />
<path d="M56.59451476701493,25.905513172773485 L56.54535175785968,26.052883099850778 L56.345571478072436,26.21758560545008" fill="yellow" fill-opacity="0.6" stroke="black" stroke-width="1" />
<path d="M56.59451476701493,-25.905513172773485 L56.54535175785968,-26.052883099850778 L56.345571478072436,-26.21758560545008" fill="purple" fill-opacity="0.6" stroke="black" stroke-width="1" />
<path d="M56.54535175785968,26.052883099850778 L56.345571478072436,26.21758560545008 L54.80318492073691,36.57163132306843" fill="black" fill-opacity="0.6" stroke="black" stroke-width="1" />
<path d="M56.54535175785968,-26.052883099850778 L56.345571478072436,-26.21758560545008 L54.80318492073691,-36.57163132306843" fill="purple" fill-opacity="0.6" stroke="black" stroke-width="1" />
<path d="M56.345571478072436,26.21758560545008 L54.80318492073691,36.57163132306843 L50.0,50.0" fill="purple" fill-opacity="0.6" stroke="black" stroke-width="1" />
<path d="M56.345571478072436,-26.21758560545008 L54.80318492073691,-36.57163132306843 L50.0,-50.0" fill="black" fill-opacity="0.6" stroke="black" stroke-width="1" />
<path d="M50.0,50.0 L54.03683053986886,39.22039596282282 L61.0,39.0" fill="black" fill-opacity="0.6" stroke="black" stroke-width="1" />
<path d="M50.0,-50.0 L54.03683053986886,-39.22039596282282 L61.0,-39.0" fill="brown" fill-opacity="0.6" stroke="black" stroke-width="1" />
<path d="M54.03683053986886,39.22039596282282 L61.0,39.0 L82.0,18.0" fill="yellow" fill-opacity="0.6" stroke="black" stroke-width="1" />
<path d="M54.03683053986886,-39.22039596282282 L61.0,-39.0 L82.0,-18.0" fill="orange" fill-opacity="0.6" stroke="black" stroke-width="1" />
<path d="M61.0,39.0 L82.0,18.0 L84.0,16.0" fill="purple" fill-opacity="0.6" stroke="black" stroke-width="1" />
<path d="M61.0,-39.0 L82.0,-18.0 L84.0,-16.0" fill="red" fill-opacity="0.6" stroke="black" stroke-width="1" />
<path d="M82.0,18.0 L84.0,16.0 L89.0,11.0" fill="purple" fill-opacity="0.6" stroke="black" stroke-width="1" />
<path d="M82.0,-18.0 L84.0,-16.0 L89.0,-11.0" fill="black" fill-opacity="0.6" stroke="black" stroke-width="1" />
<path d="M84.0,16.0 L89.0,11.0 L95.73768949394963,1.0947419154644171" fill="green" fill-opacity="0.6" stroke="black" stroke-width="1" />
<path d="M84.0,-16.0 L89.0,-11.0 L95.73768949394963,-1.0947419154644171" fill="orange" fill-opacity="0.6" stroke="black" stroke-width="1" />
<path d="M89.0,11.0 L95.73768949394963,1.0947419154644171 L96.37748754275324,0.8208466767160028" fill="brown" fill-opacity="0.6" stroke="black" stroke-width="1" />
<path d="M89.0,-11.0 L95.73768949394963,-1.0947419154644171 L96.37748754275324,-0.8208466767160028" fill="black" fill-opacity="0.6" stroke="black" stroke-width="1" />
<path d="M95.73768949394963,1.0947419154644171 L96.37748754275324,0.8208466767160028 L96.57849550001457,0.6330068562184571" fill="brown" fill-opacity="0.6" stroke="black" stroke-width="1" />
<path d="M95.73768949394963,-1.0947419154644171 L96.37748754275324,-0.8208466767160028 L96.57849550001457,-0.6330068562184571" fill="blue" fill-opacity="0.6" stroke="black" stroke-width="1" />
<path d="M96.37748754275324,0.8208466767160028 L96.57849550001457,0.6330068562184571 L97.88381259027804,0.29439603974383277" fill="brown" fill-opacity="0.6" stroke="black" stroke-width="1" />
<path d="M96.37748754275324,-0.8208466767160028 L96.57849550001457,-0.6330068562184571 L97.88381259027804,-0.29439603974383277" fill="yellow" fill-opacity="0.6" stroke="black" stroke-width="1" />
<path d="M96.57849550001457,0.6330068562184571 L97.88381259027804,0.29439603974383277 L99.66688811227678,0.20621064486297855" fill="pink" fill-opacity="0.6" stroke="black" stroke-width="1" />
<path d="M96.57849550001457,-0.6330068562184571 L97.88381259027804,-0.29439603974383277 L99.66688811227678,-0.20621064486297855" fill="yellow" fill-opacity="0.6" stroke="black" stroke-width="1" />
<path d="M97.88381259027804,0.29439603974383277 L99.66688811227678,0.20621064486297855 L100.0,-0.0" fill="purple" fill-opacity="0.6" stroke="black" stroke-width="1" />
<path d="M97.88381259027804,-0.29439603974383277 L99.66688811227678,-0.20621064486297855 L100.0,-0.0" fill="black" fill-opacity="0.6" stroke="black" stroke-width="1" />
<path d="M0.0,-0.0 L1.2190497403921363,-10.578378231221697 L2.441874457384663,-12.118169074337949" fill="orange" fill-opacity="0.6" stroke="black" stroke-width="1" />
<path d="M0.0,-0.0 L1.2190497403921363,10.578378231221697 L2.441874457384663,12.118169074337949" fill="red" fill-opacity="0.6" stroke="black" stroke-width="1" />
<path d="M0.0,100.0 L1.2190497403921363,89.4216217687783 L2.441874457384663,87.88183092566206" fill="yellow" fill-opacity="0.6" stroke="black" stroke-width="1" />
<path d="M0.0,-100.0 L1.2190497403921363,-89.4216217687783 L2.441874457384663,-87.88183092566206" fill="black" fill-opacity="0.6" stroke="black" stroke-width="1" />
<path d="M1.2190497403921363,-10.578378231221697 L2.441874457384663,-12.118169074337949 L2.486450146460347,-12.636414228258474" fill="blue" fill-opacity="0.6" stroke="black" stroke-width="1" />
<path d="M1.2190497403921363,10.578378231221697 L2.441874457384663,12.118169074337949 L2.486450146460347,12.636414228258474" fill="red" fill-opacity="0.6" stroke="black" stroke-width="1" />
<path d="M1.2190497403921363,89.4216217687783 L2.441874457384663,87.88183092566206 L2.486450146460347,87.36358577174153" fill="black" fill-opacity="0.6" stroke="black" stroke-width="1" />
<path d="M1.2190497403921363,-89.4216217687783 L2.441874457384663,-87.88183092566206 L2.486450146460347,-87.36358577174153" fill="red" fill-opacity="0.6" stroke="black" stroke-width="1" />
<path d="M2.441874457384663,-12.118169074337949 L2.486450146460347,-12.636414228258474 L0.0,-20.0" fill="purple" fill-opacity="0.6" stroke="black" stroke-width="1" />
<path d="M2.441874457384663,12.118169074337949 L2.486450146460347,12.636414228258474 L0.0,20.0" fill="orange" fill-opacity="0.6" stroke="black" stroke-width="1" />
<path d="M2.441874457384663,87.88183092566206 L2.486450146460347,87.36358577174153 L0.0,80.0" fill="blue" fill-opacity="0.6" stroke="black" stroke-width="1" />
<path d="M2.441874457384663,-87.88183092566206 L2.486450146460347,-87.36358577174153 L0.0,-80.0" fill="blue" fill-opacity="0.6" stroke="black" stroke-width="1" />
<path d="M0.0,-20.0 L4.410701190373251,-26.34636337624339 L6.180079736099947,-26.71067658368702" fill="yellow" fill-opacity="0.6" stroke="black" stroke-width="1" />
<path d="M0.0,20.0 L4.410701190373251,26.34636337624339 L6.180079736099947,26.71067658368702" fill="green" fill-opacity="0.6" stroke="black" stroke-width="1" />
<path d="M0.0,80.0 L4.410701190373251,73.65363662375661 L6.180079736099947,73.28932341631298" fill="blue" fill-opacity="0.6" stroke="black" stroke-width="1" />
<path d="M0.0,-80.0 L4.410701190373251,-73.65363662375661 L6.180079736099947,-73.28932341631298" fill="brown" fill-opacity="0.6" stroke="black" stroke-width="1" />
<path d="M4.410701190373251,-26.34636337624339 L6.180079736099947,-26.71067658368702 L12.156056139310367,-29.491643486838765" fill="red" fill-opacity="0.6" stroke="black" stroke-width="1" />
<path d="M4.410701190373251,26.34636337624339 L6.180079736099947,26.71067658368702 L12.156056139310367,29.491643486838765" fill="black" fill-opacity="0.6" stroke="black" stroke-width="1" />
<path d="M4.410701190373251,73.65363662375661 L6.180079736099947,73.28932341631298 L12.156056139310367,70.50835651316123" fill="red" fill-opacity="0.6" stroke="black" stroke-width="1" />
<path d="M4.410701190373251,-73.65363662375661 L6.180079736099947,-73.28932341631298 L12.156056139310367,-70.50835651316123" fill="orange" fill-opacity="0.6" stroke="black" stroke-width="1" />
<path d="M6.180079736099947,-26.71067658368702 L12.156056139310367,-29.491643486838765 L0.0,-40.0" fill="purple" fill-opacity="0.6" stroke="black" stroke-width="1" />
<path d="M6.180079736099947,26.71067658368702 L12.156056139310367,29.491643486838765 L0.0,40.0" fill="orange" fill-opacity="0.6" stroke="black" stroke-width="1" />
<path d="M6.180079736099947,73.28932341631298 L12.156056139310367,70.50835651316123 L0.0,60.0" fill="green" fill-opacity="0.6" stroke="black" stroke-width="1" />
<path d="M6.180079736099947,-73.28932341631298 L12.156056139310367,-70.50835651316123 L0.0,-60.0" fill="yellow" fill-opacity="0.6" stroke="black" stroke-width="1" />
<path d="M12.0,-50.0 L19.476911777438403,-36.651171049691385 L23.407014209319918,-37.13567636753951" fill="purple" fill-opacity="0.6" stroke="black" stroke-width="1" />
<path d="M12.0,50.0 L19.476911777438403,36.651171049691385 L23.407014209319918,37.13567636753951" fill="green" fill-opacity="0.6" stroke="black" stroke-width="1" />
<path d="M12.0,50.0 L19.476911777438403,63.348828950308615 L23.407014209319918,62.86432363246049" fill="yellow" fill-opacity="0.6" stroke="black" stroke-width="1" />
<path d="M12.0,-50.0 L19.476911777438403,-63.348828950308615 L23.407014209319918,-62.86432363246049" fill="orange" fill-opacity="0.6" stroke="black" stroke-width="1" />
<path d="M19.476911777438403,-36.651171049691385 L23.407014209319918,-37.13567636753951 L23.771546842417727,-40.81131731019494" fill="red" fill-opacity="0.6" stroke="black" stroke-width="1" />
<path d="M19.476911777438403,36.651171049691385 L23.407014209319918,37.13567636753951 L23.771546842417727,40.81131731019494" fill="blue" fill-opacity="0.6" stroke="black" stroke-width="1" />
<path d="M19.476911777438403,63.348828950308615 L23.407014209319918,62.86432363246049 L23.771546842417727,59.18868268980506" fill="red" fill-opacity="0.6" stroke="black" stroke-width="1" />
<path d="M19.476911777438403,-63.348828950308615 L23.407014209319918,-62.86432363246049 L23.771546842417727,-59.18868268980506" fill="orange" fill-opacity="0.6" stroke="black" stroke-width="1" />
<path d="M23.407014209319918,-37.13567636753951 L23.771546842417727,-40.81131731019494 L25.0,-50.0" fill="red" fill-opacity="0.6" stroke="black" stroke-width="1" />
<path d="M23.407014209319918,37.13567636753951 L23.771546842417727,40.81131731019494 L25.0,50.0" fill="blue" fill-opacity="0.6" stroke="black" stroke-width="1" />
<path d="M23.407014209319918,62.86432363246049 L23.771546842417727,59.18868268980506 L25.0,50.0" fill="green" fill-opacity="0.6" stroke="black" stroke-width="1" />
<path d="M23.407014209319918,-62.86432363246049 L23.771546842417727,-59.18868268980506 L25.0,-50.0" fill="yellow" fill-opacity="0.6" stroke="black" stroke-width="1" />
<path d="M25.0,-50.0 L25.905513172773485,-43.40548523298507 L26.052883099850778,-43.45464824214032" fill="purple" fill-opacity="0.6" stroke="black" stroke-width="1" />
<path d="M25.0,50.0 L25.905513172773485,43.40548523298507 L26.052883099850778,43.45464824214032" fill="brown" fill-opacity="0.6" stroke="black" stroke-width="1" />
<path d="M25.0,50.0 L25.905513172773485,56.59451476701493 L26.052883099850778,56.54535175785968" fill="red" fill-opacity="0.6" stroke="black" stroke-width="1" />
<path d="M25.0,-50.0 L25.905513172773485,-56.59451476701493 L26.052883099850778,-56.54535175785968" fill="blue" fill-opacity="0.6" stroke="black" stroke-width="1" />
<path d="M25.905513172773485,-43.40548523298507 L26.052883099850778,-43.45464824214032 L26.21758560545008,-43.654428521927564" fill="purple" fill-opacity="0.6" stroke="black" stroke-width="1" />
<path d="M25.905513172773485,43.40548523298507 L26.052883099850778,43.45464824214032 L26.21758560545008,43.654428521927564" fill="yellow" fill-opacity="0.6" stroke="black" stroke-width="1" />
<path d="M25.905513172773485,56.59451476701493 L26.052883099850778,56.54535175785968 L26.21758560545008,56.345571478072436" fill="red" fill-opacity="0.6" stroke="black" stroke-width="1" />
<path d="M25.905513172773485,-56.59451476701493 L26.052883099850778,-56.54535175785968 L26.21758560545008,-56.345571478072436" fill="purple" fill-opacity="0.6" stroke="black" stroke-width="1" />
<path d="M26.052883099850778,-43.45464824214032 L26.21758560545008,-43.654428521927564 L36.57163132306843,-45.19681507926309" fill="orange" fill-opacity="0.6" stroke="black" stroke-width="1" />
<path d="M26.052883099850778,43.45464824214032 L26.21758560545008,43.654428521927564 L36.57163132306843,45.19681507926309" fill="red" fill-opacity="0.6" stroke="black" stroke-width="1" />
<path d="M26.052883099850778,56.54535175785968 L26.21758560545008,56.345571478072436 L36.57163132306843,54.80318492073691" fill="purple" fill-opacity="0.6" stroke="black" stroke-width="1" />
<path d="M26.052883099850778,-56.54535175785968 L26.21758560545008,-56.345571478072436 L36.57163132306843,-54.80318492073691" fill="red" fill-opacity="0.6" stroke="black" stroke-width="1" />
<path d="M26.21758560545008,-43.654428521927564 L36.57163132306843,-45.19681507926309 L50.0,-50.0" fill="yellow" fill-opacity="0.6" stroke="black" stroke-width="1" />
<path d="M26.21758560545008,43.654428521927564 L36.57163132306843,45.19681507926309 L50.0,50.0" fill="orange" fill-opacity="0.6" stroke="black" stroke-width="1" />
<path d="M26.21758560545008,56.345571478072436 L36.57163132306843,54.80318492073691 L50.0,50.0" fill="blue" fill-opacity="0.6" stroke="black" stroke-width="1" />
<path d="M26.21758560545008,-56.345571478072436 L36.57163132306843,-54.80318492073691 L50.0,-50.0" fill="pink" fill-opacity="0.6" stroke="black" stroke-width="1" />
<path d="M50.0,-50.0 L39.22039596282282,-45.96316946013114 L39.0,-39.0" fill="orange" fill-opacity="0.6" stroke="black" stroke-width="1" />
<path d="M50.0,50.0 L39.22039596282282,45.96316946013114 L39.0,39.0" fill="yellow" fill-opacity="0.6" stroke="black" stroke-width="1" />
<path d="M50.0,50.0 L39.22039596282282,54.03683053986886 L39.0,61.0" fill="purple" fill-opacity="0.6" stroke="black" stroke-width="1" />
<path d="M50.0,-50.0 L39.22039596282282,-54.03683053986886 L39.0,-61.0" fill="pink" fill-opacity="0.6" stroke="black" stroke-width="1" />
<path d="M11.0,-11.0 L1.0947419154644171,-4.262310506050365 L0.8208466767160028,-3.6225124572467573" fill="red" fill-opacity="0.6" stroke="black" stroke-width="1" />
<path d="M11.0,11.0 L1.0947419154644171,4.262310506050365 L0.8208466767160028,3.6225124572467573" fill="black" fill-opacity="0.6" stroke="black" stroke-width="1" />
<path d="M11.0,89.0 L1.0947419154644171,95.73768949394963 L0.8208466767160028,96.37748754275324" fill="blue" fill-opacity="0.6" stroke="black" stroke-width="1" />
<path d="M11.0,-89.0 L1.0947419154644171,-95.73768949394963 L0.8208466767160028,-96.37748754275324" fill="red" fill-opacity="0.6" stroke="black" stroke-width="1" />
<path d="M1.0947419154644171,-4.262310506050365 L0.8208466767160028,-3.6225124572467573 L0.6330068562184571,-3.421504499985434" fill="blue" fill-opacity="0.6" stroke="black" stroke-width="1" />
<path d="M1.0947419154644171,4.262310506050365 L0.8208466767160028,3.6225124572467573 L0.6330068562184571,3.421504499985434" fill="yellow" fill-opacity="0.6" stroke="black" stroke-width="1" />
<path d="M1.0947419154644171,95.73768949394963 L0.8208466767160028,96.37748754275324 L0.6330068562184571,96.57849550001457" fill="black" fill-opacity="0.6" stroke="black" stroke-width="1" />
<path d="M1.0947419154644171,-95.73768949394963 L0.8208466767160028,-96.37748754275324 L0.6330068562184571,-96.57849550001457" fill="red" fill-opacity="0.6" stroke="black" stroke-width="1" />
<path d="M0.8208466767160028,-3.6225124572467573 L0.6330068562184571,-3.421504499985434 L0.29439603974383277,-2.1161874097219533" fill="yellow" fill-opacity="0.6" stroke="black" stroke-width="1" />
<path d="M0.8208466767160028,3.6225124572467573 L0.6330068562184571,3.421504499985434 L0.29439603974383277,2.1161874097219533" fill="pink" fill-opacity="0.6" stroke="black" stroke-width="1" />
<path d="M0.8208466767160028,96.37748754275324 L0.6330068562184571,96.57849550001457 L0.29439603974383277,97.88381259027804" fill="red" fill-opacity="0.6" stroke="black" stroke-width="1" />
<path d="M0.8208466767160028,-96.37748754275324 L0.6330068562184571,-96.57849550001457 L0.29439603974383277,-97.88381259027804" fill="brown" fill-opacity="0.6" stroke="black" stroke-width="1" />
<path d="M0.6330068562184571,-3.421504499985434 L0.29439603974383277,-2.1161874097219533 L0.20621064486297855,-0.3331118877232253" fill="purple" fill-opacity="0.6" stroke="black" stroke-width="1" />
<path d="M0.6330068562184571,3.421504499985434 L0.29439603974383277,2.1161874097219533 L0.20621064486297855,0.3331118877232253" fill="red" fill-opacity="0.6" stroke="black" stroke-width="1" />
<path d="M0.6330068562184571,96.57849550001457 L0.29439603974383277,97.88381259027804 L0.20621064486297855,99.66688811227678" fill="pink" fill-opacity="0.6" stroke="black" stroke-width="1" />
<path d="M0.6330068562184571,-96.57849550001457 L0.29439603974383277,-97.88381259027804 L0.20621064486297855,-99.66688811227678" fill="red" fill-opacity="0.6" stroke="black" stroke-width="1" />
<path d="M0.29439603974383277,-2.1161874097219533 L0.20621064486297855,-0.3331118877232253 L0.0,-0.0" fill="blue" fill-opacity="0.6" stroke="black" stroke-width="1" />
<path d="M0.29439603974383277,2.1161874097219533 L0.20621064486297855,0.3331118877232253 L0.0,-0.0" fill="yellow" fill-opacity="0.6" stroke="black" stroke-width="1" />
<path d="M0.29439603974383277,97.88381259027804 L0.20621064486297855,99.66688811227678 L0.0,100.0" fill="blue" fill-opacity="0.6" stroke="black" stroke-width="1" />
<path d="M0.29439603974383277,-97.88381259027804 L0.20621064486297855,-99.66688811227678 L0.0,-100.0" fill="green" fill-opacity="0.6" stroke="black" stroke-width="1" />
<path d="M0.0,100.0 L-1.2190497403921363,89.42162176877831 L-2.441874457384663,87.88183092566206" fill="brown" fill-opacity="0.6" stroke="black" stroke-width="1" />
<path d="M0.0,-0.0 L-1.2190497403921363,-10.578378231221697 L-2.441874457384663,-12.118169074337949" fill="pink" fill-opacity="0.6" stroke="black" stroke-width="1" />
<path d="M0.0,-0.0 L-1.2190497403921363,10.578378231221691 L-2.441874457384663,12.118169074337942" fill="orange" fill-opacity="0.6" stroke="black" stroke-width="1" />
<path d="M0.0,-100.0 L-1.2190497403921363,-89.4216217687783 L-2.441874457384663,-87.88183092566206" fill="brown" fill-opacity="0.6" stroke="black" stroke-width="1" />
<path d="M-1.2190497403921363,89.42162176877831 L-2.441874457384663,87.88183092566206 L-2.486450146460347,87.36358577174153" fill="green" fill-opacity="0.6" stroke="black" stroke-width="1" />
<path d="M-1.2190497403921363,-10.578378231221697 L-2.441874457384663,-12.118169074337949 L-2.486450146460347,-12.636414228258474" fill="green" fill-opacity="0.6" stroke="black" stroke-width="1" />
<path d="M-1.2190497403921363,10.578378231221691 L-2.441874457384663,12.118169074337942 L-2.486450146460347,12.636414228258474" fill="blue" fill-opacity="0.6" stroke="black" stroke-width="1" />
<path d="M-1.2190497403921363,-89.4216217687783 L-2.441874457384663,-87.88183092566206 L-2.486450146460347,-87.36358577174153" fill="blue" fill-opacity="0.6" stroke="black" stroke-width="1" />
<path d="M-2.441874457384663,87.88183092566206 L-2.486450146460347,87.36358577174153 L0.0,80.0" fill="orange" fill-opacity="0.6" stroke="black" stroke-width="1" />
<path d="M-2.441874457384663,-12.118169074337949 L-2.486450146460347,-12.636414228258474 L0.0,-20.0" fill="pink" fill-opacity="0.6" stroke="black" stroke-width="1" />
<path d="M-2.441874457384663,12.118169074337942 L-2.486450146460347,12.636414228258474 L0.0,20.0" fill="blue" fill-opacity="0.6" stroke="black" stroke-width="1" />
<path d="M-2.441874457384663,-87.88183092566206 L-2.486450146460347,-87.36358577174153 L0.0,-80.0" fill="blue" fill-opacity="0.6" stroke="black" stroke-width="1" />
<path d="M0.0,80.0 L-4.410701190373251,73.65363662375661 L-6.180079736099947,73.28932341631298" fill="purple" fill-opacity="0.6" stroke="black" stroke-width="1" />
<path d="M0.0,-20.0 L-4.410701190373251,-26.34636337624339 L-6.180079736099947,-26.71067658368702" fill="orange" fill-opacity="0.6" stroke="black" stroke-width="1" />
<path d="M0.0,20.0 L-4.410701190373251,26.34636337624339 L-6.180079736099947,26.710676583687018" fill="blue" fill-opacity="0.6" stroke="black" stroke-width="1" />
<path d="M0.0,-80.0 L-4.410701190373251,-73.65363662375661 L-6.180079736099947,-73.28932341631298" fill="blue" fill-opacity="0.6" stroke="black" stroke-width="1" />
<path d="M-4.410701190373251,73.65363662375661 L-6.180079736099947,73.28932341631298 L-12.156056139310367,70.50835651316123" fill="orange" fill-opacity="0.6" stroke="black" stroke-width="1" />
<path d="M-4.410701190373251,-26.34636337624339 L-6.180079736099947,-26.71067658368702 L-12.156056139310367,-29.491643486838765" fill="blue" fill-opacity="0.6" stroke="black" stroke-width="1" />
<path d="M-4.410701190373251,26.34636337624339 L-6.180079736099947,26.710676583687018 L-12.156056139310367,29.49164348683877" fill="purple" fill-opacity="0.6" stroke="black" stroke-width="1" />
<path d="M-4.410701190373251,-73.65363662375661 L-6.180079736099947,-73.28932341631298 L-12.156056139310367,-70.50835651316123" fill="green" fill-opacity="0.6" stroke="black" stroke-width="1" />
<path d="M-6.180079736099947,73.28932341631298 L-12.156056139310367,70.50835651316123 L0.0,60.0" fill="green" fill-opacity="0.6" stroke="black" stroke-width="1" />
<path d="M-6.180079736099947,-26.71067658368702 L-12.156056139310367,-29.491643486838765 L0.0,-40.0" fill="brown" fill-opacity="0.6" stroke="black" stroke-width="1" />
<path d="M-6.180079736099947,26.710676583687018 L-12.156056139310367,29.49164348683877 L0.0,40.0" fill="black" fill-opacity="0.6" stroke="black" stroke-width="1" />
<path d="M-6.180079736099947,-73.28932341631298 L-12.156056139310367,-70.50835651316123 L0.0,-60.0" fill="black" fill-opacity="0.6" stroke="black" stroke-width="1" />
<path d="M-12.0,50.0 L-19.476911777438403,63.348828950308615 L-23.407014209319918,62.86432363246049" fill="yellow" fill-opacity="0.6" stroke="black" stroke-width="1" />
<path d="M-12.0,-50.0 L-19.476911777438403,-36.651171049691385 L-23.407014209319918,-37.13567636753951" fill="red" fill-opacity="0.6" stroke="black" stroke-width="1" />
<path d="M-12.0,50.0 L-19.476911777438403,36.651171049691385 L-23.407014209319918,37.13567636753951" fill="black" fill-opacity="0.6" stroke="black" stroke-width="1" />
<path d="M-12.0,-50.0 L-19.476911777438403,-63.348828950308615 L-23.407014209319918,-62.86432363246049" fill="red" fill-opacity="0.6" stroke="black" stroke-width="1" />
<path d="M-19.476911777438403,63.348828950308615 L-23.407014209319918,62.86432363246049 L-23.771546842417727,59.18868268980506" fill="blue" fill-opacity="0.6" stroke="black" stroke-width="1" />
<path d="M-19.476911777438403,-36.651171049691385 L-23.407014209319918,-37.13567636753951 L-23.771546842417727,-40.81131731019494" fill="blue" fill-opacity="0.6" stroke="black" stroke-width="1" />
<path d="M-19.476911777438403,36.651171049691385 L-23.407014209319918,37.13567636753951 L-23.771546842417727,40.81131731019494" fill="purple" fill-opacity="0.6" stroke="black" stroke-width="1" />
<path d="M-19.476911777438403,-63.348828950308615 L-23.407014209319918,-62.86432363246049 L-23.771546842417727,-59.18868268980506" fill="green" fill-opacity="0.6" stroke="black" stroke-width="1" />
<path d="M-23.407014209319918,62.86432363246049 L-23.771546842417727,59.18868268980506 L-25.0,50.0" fill="red" fill-opacity="0.6" stroke="black" stroke-width="1" />
<path d="M-23.407014209319918,-37.13567636753951 L-23.771546842417727,-40.81131731019494 L-25.0,-50.0" fill="blue" fill-opacity="0.6" stroke="black" stroke-width="1" />
<path d="M-23.407014209319918,37.13567636753951 L-23.771546842417727,40.81131731019494 L-25.0,50.0" fill="red" fill-opacity="0.6" stroke="black" stroke-width="1" />
<path d="M-23.407014209319918,-62.86432363246049 L-23.771546842417727,-59.18868268980506 L-25.0,-50.0" fill="purple" fill-opacity="0.6" stroke="black" stroke-width="1" />
<path d="M-25.0,50.0 L-25.905513172773485,56.59451476701493 L-26.052883099850778,56.54535175785968" fill="orange" fill-opacity="0.6" stroke="black" stroke-width="1" />
<path d="M-25.0,-50.0 L-25.905513172773485,-43.40548523298507 L-26.052883099850778,-43.45464824214032" fill="yellow" fill-opacity="0.6" stroke="black" stroke-width="1" />
<path d="M-25.0,50.0 L-25.905513172773485,43.40548523298507 L-26.052883099850778,43.45464824214032" fill="yellow" fill-opacity="0.6" stroke="black" stroke-width="1" />
<path d="M-25.0,-50.0 L-25.905513172773485,-56.59451476701493 L-26.052883099850778,-56.54535175785968" fill="black" fill-opacity="0.6" stroke="black" stroke-width="1" />
<path d="M-25.905513172773485,56.59451476701493 L-26.052883099850778,56.54535175785968 L-26.21758560545008,56.345571478072436" fill="brown" fill-opacity="0.6" stroke="black" stroke-width="1" />
<path d="M-25.905513172773485,-43.40548523298507 L-26.052883099850778,-43.45464824214032 L-26.21758560545008,-43.654428521927564" fill="blue" fill-opacity="0.6" stroke="black" stroke-width="1" />
<path d="M-25.905513172773485,43.40548523298507 L-26.052883099850778,43.45464824214032 L-26.21758560545008,43.654428521927564" fill="black" fill-opacity="0.6" stroke="black" stroke-width="1" />
<path d="M-25.905513172773485,-56.59451476701493 L-26.052883099850778,-56.54535175785968 L-26.21758560545008,-56.345571478072436" fill="green" fill-opacity="0.6" stroke="black" stroke-width="1" />
<path d="M-26.052883099850778,56.54535175785968 L-26.21758560545008,56.345571478072436 L-36.57163132306843,54.80318492073691" fill="yellow" fill-opacity="0.6" stroke="black" stroke-width="1" />
<path d="M-26.052883099850778,-43.45464824214032 L-26.21758560545008,-43.654428521927564 L-36.57163132306843,-45.19681507926309" fill="purple" fill-opacity="0.6" stroke="black" stroke-width="1" />
<path d="M-26.052883099850778,43.45464824214032 L-26.21758560545008,43.654428521927564 L-36.57163132306843,45.19681507926309" fill="brown" fill-opacity="0.6" stroke="black" stroke-width="1" />
<path d="M-26.052883099850778,-56.54535175785968 L-26.21758560545008,-56.345571478072436 L-36.57163132306843,-54.80318492073691" fill="blue" fill-opacity="0.6" stroke="black" stroke-width="1" />
<path d="M-26.21758560545008,56.345571478072436 L-36.57163132306843,54.80318492073691 L-50.0,50.0" fill="blue" fill-opacity="0.6" stroke="black" stroke-width="1" />
<path d="M-26.21758560545008,-43.654428521927564 L-36.57163132306843,-45.19681507926309 L-50.0,-50.0" fill="pink" fill-opacity="0.6" stroke="black" stroke-width="1" />
<path d="M-26.21758560545008,43.654428521927564 L-36.57163132306843,45.19681507926309 L-50.0,50.0" fill="purple" fill-opacity="0.6" stroke="black" stroke-width="1" />
<path d="M-26.21758560545008,-56.345571478072436 L-36.57163132306843,-54.80318492073691 L-50.0,-50.0" fill="purple" fill-opacity="0.6" stroke="black" stroke-width="1" />
<path d="M-50.0,50.0 L-39.22039596282282,54.03683053986886 L-39.0,61.0" fill="blue" fill-opacity="0.6" stroke="black" stroke-width="1" />
<path d="M-50.0,-50.0 L-39.22039596282282,-45.96316946013114 L-39.0,-39.0" fill="blue" fill-opacity="0.6" stroke="black" stroke-width="1" />
<path d="M-50.0,50.0 L-39.22039596282282,45.96316946013114 L-39.0,39.0" fill="orange" fill-opacity="0.6" stroke="black" stroke-width="1" />
<path d="M-50.0,-50.0 L-39.22039596282282,-54.03683053986886 L-39.0,-61.0" fill="brown" fill-opacity="0.6" stroke="black" stroke-width="1" />
<path d="M-11.0,89.0 L-1.0947419154644171,95.73768949394963 L-0.8208466767160028,96.37748754275324" fill="green" fill-opacity="0.6" stroke="black" stroke-width="1" />
<path d="M-11.0,-11.0 L-1.0947419154644171,-4.262310506050365 L-0.8208466767160028,-3.6225124572467573" fill="purple" fill-opacity="0.6" stroke="black" stroke-width="1" />
<path d="M-11.0,11.0 L-1.0947419154644171,4.262310506050369 L-0.8208466767160028,3.6225124572467564" fill="blue" fill-opacity="0.6" stroke="black" stroke-width="1" />
<path d="M-11.0,-89.0 L-1.0947419154644171,-95.73768949394963 L-0.8208466767160028,-96.37748754275324" fill="blue" fill-opacity="0.6" stroke="black" stroke-width="1" />
<path d="M-1.0947419154644171,95.73768949394963 L-0.8208466767160028,96.37748754275324 L-0.6330068562184571,96.57849550001457" fill="purple" fill-opacity="0.6" stroke="black" stroke-width="1" />
<path d="M-1.0947419154644171,-4.262310506050365 L-0.8208466767160028,-3.6225124572467573 L-0.6330068562184571,-3.421504499985434" fill="yellow" fill-opacity="0.6" stroke="black" stroke-width="1" />
<path d="M-1.0947419154644171,4.262310506050369 L-0.8208466767160028,3.6225124572467564 L-0.6330068562184571,3.4215044999854314" fill="purple" fill-opacity="0.6" stroke="black" stroke-width="1" />
<path d="M-1.0947419154644171,-95.73768949394963 L-0.8208466767160028,-96.37748754275324 L-0.6330068562184571,-96.57849550001457" fill="green" fill-opacity="0.6" stroke="black" stroke-width="1" />
<path d="M-0.8208466767160028,96.37748754275324 L-0.6330068562184571,96.57849550001457 L-0.29439603974383277,97.88381259027804" fill="green" fill-opacity="0.6" stroke="black" stroke-width="1" />
<path d="M-0.8208466767160028,-3.6225124572467573 L-0.6330068562184571,-3.421504499985434 L-0.29439603974383277,-2.1161874097219533" fill="purple" fill-opacity="0.6" stroke="black" stroke-width="1" />
<path d="M-0.8208466767160028,3.6225124572467564 L-0.6330068562184571,3.4215044999854314 L-0.29439603974383277,2.1161874097219595" fill="red" fill-opacity="0.6" stroke="black" stroke-width="1" />
<path d="M-0.8208466767160028,-96.37748754275324 L-0.6330068562184571,-96.57849550001457 L-0.29439603974383277,-97.88381259027804" fill="yellow" fill-opacity="0.6" stroke="black" stroke-width="1" />
<path d="M-0.6330068562184571,96.57849550001457 L-0.29439603974383277,97.88381259027804 L-0.20621064486297855,99.66688811227678" fill="red" fill-opacity="0.6" stroke="black" stroke-width="1" />
<path d="M-0.6330068562184571,-3.421504499985434 L-0.29439603974383277,-2.1161874097219533 L-0.20621064486297855,-0.3331118877232253" fill="orange" fill-opacity="0.6" stroke="black" stroke-width="1" />
<path d="M-0.6330068562184571,3.4215044999854314 L-0.29439603974383277,2.1161874097219595 L-0.20621064486297855,0.33311188772322" fill="brown" fill-opacity="0.6" stroke="black" stroke-width="1" />
<path d="M-0.6330068562184571,-96.57849550001457 L-0.29439603974383277,-97.88381259027804 L-0.20621064486297855,-99.66688811227678" fill="red" fill-opacity="0.6" stroke="black" stroke-width="1" />
<path d="M-0.29439603974383277,97.88381259027804 L-0.20621064486297855,99.66688811227678 L0.0,100.0" fill="brown" fill-opacity="0.6" stroke="black" stroke-width="1" />
<path d="M-0.29439603974383277,-2.1161874097219533 L-0.20621064486297855,-0.3331118877232253 L0.0,-0.0" fill="brown" fill-opacity="0.6" stroke="black" stroke-width="1" />
<path d="M-0.29439603974383277,2.1161874097219595 L-0.20621064486297855,0.33311188772322 L0.0,-0.0" fill="orange" fill-opacity="0.6" stroke="black" stroke-width="1" />
<path d="M-0.29439603974383277,-97.88381259027804 L-0.20621064486297855,-99.66688811227678 L0.0,-100.0" fill="orange" fill-opacity="0.6" stroke="black" stroke-width="1" />
<path d="M-100.0,-0.0 L-89.4216217687783,-1.2190497403921363 L-87.88183092566206,-2.441874457384663" fill="blue" fill-opacity="0.6" stroke="black" stroke-width="1" />
<path d="M-100.0,-0.0 L-89.4216217687783,1.2190497403921363 L-87.88183092566206,2.441874457384663" fill="purple" fill-opacity="0.6" stroke="black" stroke-width="1" />
<path d="M-89.4216217687783,-1.2190497403921363 L-87.88183092566206,-2.441874457384663 L-87.36358577174153,-2.486450146460347" fill="orange" fill-opacity="0.6" stroke="black" stroke-width="1" />
<path d="M-89.4216217687783,1.2190497403921363 L-87.88183092566206,2.441874457384663 L-87.36358577174153,2.486450146460347" fill="green" fill-opacity="0.6" stroke="black" stroke-width="1" />
<path d="M-87.88183092566206,-2.441874457384663 L-87.36358577174153,-2.486450146460347 L-80.0,-0.0" fill="red" fill-opacity="0.6" stroke="black" stroke-width="1" />
<path d="M-87.88183092566206,2.441874457384663 L-87.36358577174153,2.486450146460347 L-80.0,-0.0" fill="orange" fill-opacity="0.6" stroke="black" stroke-width="1" />
<path d="M-80.0,-0.0 L-73.65363662375661,-4.410701190373251 L-73.28932341631298,-6.180079736099947" fill="brown" fill-opacity="0.6" stroke="black" stroke-width="1" />
<path d="M-80.0,-0.0 L-73.65363662375661,4.410701190373251 L-73.28932341631298,6.180079736099947" fill="red" fill-opacity="0.6" stroke="black" stroke-width="1" />
<path d="M-73.65363662375661,-4.410701190373251 L-73.28932341631298,-6.180079736099947 L-70.50835651316123,-12.156056139310367" fill="blue" fill-opacity="0.6" stroke="black" stroke-width="1" />
<path d="M-73.65363662375661,4.410701190373251 L-73.28932341631298,6.180079736099947 L-70.50835651316123,12.156056139310367" fill="brown" fill-opacity="0.6" stroke="black" stroke-width="1" />
<path d="M-73.28932341631298,-6.180079736099947 L-70.50835651316123,-12.156056139310367 L-60.0,-0.0" fill="yellow" fill-opacity="0.6" stroke="black" stroke-width="1" />
<path d="M-73.28932341631298,6.180079736099947 L-70.50835651316123,12.156056139310367 L-60.0,-0.0" fill="blue" fill-opacity="0.6" stroke="black" stroke-width="1" />
<path d="M-50.0,-12.0 L-63.348828950308615,-19.476911777438403 L-62.86432363246049,-23.407014209319918" fill="pink" fill-opacity="0.6" stroke="black" stroke-width="1" />
<path d="M-50.0,12.0 L-63.348828950308615,19.476911777438403 L-62.86432363246049,23.407014209319918" fill="brown" fill-opacity="0.6" stroke="black" stroke-width="1" />
<path d="M-63.348828950308615,-19.476911777438403 L-62.86432363246049,-23.407014209319918 L-59.18868268980506,-23.771546842417727" fill="brown" fill-opacity="0.6" stroke="black" stroke-width="1" />
<path d="M-63.348828950308615,19.476911777438403 L-62.86432363246049,23.407014209319918 L-59.18868268980506,23.771546842417727" fill="purple" fill-opacity="0.6" stroke="black" stroke-width="1" />
<path d="M-62.86432363246049,-23.407014209319918 L-59.18868268980506,-23.771546842417727 L-50.0,-25.0" fill="blue" fill-opacity="0.6" stroke="black" stroke-width="1" />
<path d="M-62.86432363246049,23.407014209319918 L-59.18868268980506,23.771546842417727 L-50.0,25.0" fill="blue" fill-opacity="0.6" stroke="black" stroke-width="1" />
<path d="M-50.0,-25.0 L-56.59451476701493,-25.905513172773485 L-56.54535175785968,-26.052883099850778" fill="black" fill-opacity="0.6" stroke="black" stroke-width="1" />
<path d="M-50.0,25.0 L-56.59451476701493,25.905513172773485 L-56.54535175785968,26.052883099850778" fill="purple" fill-opacity="0.6" stroke="black" stroke-width="1" />
<path d="M-56.59451476701493,-25.905513172773485 L-56.54535175785968,-26.052883099850778 L-56.345571478072436,-26.21758560545008" fill="purple" fill-opacity="0.6" stroke="black" stroke-width="1" />
<path d="M-56.59451476701493,25.905513172773485 L-56.54535175785968,26.052883099850778 L-56.345571478072436,26.21758560545008" fill="purple" fill-opacity="0.6" stroke="black" stroke-width="1" />
<path d="M-56.54535175785968,-26.052883099850778 L-56.345571478072436,-26.21758560545008 L-54.80318492073691,-36.57163132306843" fill="purple" fill-opacity="0.6" stroke="black" stroke-width="1" />
<path d="M-56.54535175785968,26.052883099850778 L-56.345571478072436,26.21758560545008 L-54.80318492073691,36.57163132306843" fill="black" fill-opacity="0.6" stroke="black" stroke-width="1" />
<path d="M-56.345571478072436,-26.21758560545008 L-54.80318492073691,-36.57163132306843 L-50.0,-50.0" fill="black" fill-opacity="0.6" stroke="black" stroke-width="1" />
<path d="M-56.345571478072436,26.21758560545008 L-54.80318492073691,36.57163132306843 L-50.0,50.0" fill="orange" fill-opacity="0.6" stroke="black" stroke-width="1" />
<path d="M-50.0,-50.0 L-54.03683053986886,-39.22039596282282 L-61.0,-39.0" fill="orange" fill-opacity="0.6" stroke="black" stroke-width="1" />
<path d="M-50.0,50.0 L-54.03683053986886,39.22039596282282 L-61.0,39.0" fill="purple" fill-opacity="0.6" stroke="black" stroke-width="1" />
<path d="M-54.03683053986886,-39.22039596282282 L-61.0,-39.0 L-82.0,-18.0" fill="brown" fill-opacity="0.6" stroke="black" stroke-width="1" />
<path d="M-54.03683053986886,39.22039596282282 L-61.0,39.0 L-82.0,18.0" fill="green" fill-opacity="0.6" stroke="black" stroke-width="1" />
<path d="M-61.0,-39.0 L-82.0,-18.0 L-84.0,-16.0" fill="orange" fill-opacity="0.6" stroke="black" stroke-width="1" />
<path d="M-61.0,39.0 L-82.0,18.0 L-84.0,16.0" fill="purple" fill-opacity="0.6" stroke="black" stroke-width="1" />
<path d="M-82.0,-18.0 L-84.0,-16.0 L-89.0,-11.0" fill="yellow" fill-opacity="0.6" stroke="black" stroke-width="1" />
<path d="M-82.0,18.0 L-84.0,16.0 L-89.0,11.0" fill="red" fill-opacity="0.6" stroke="black" stroke-width="1" />
<path d="M-84.0,-16.0 L-89.0,-11.0 L-95.73768949394963,-1.0947419154644171" fill="yellow" fill-opacity="0.6" stroke="black" stroke-width="1" />
<path d="M-84.0,16.0 L-89.0,11.0 L-95.73768949394963,1.0947419154644171" fill="brown" fill-opacity="0.6" stroke="black" stroke-width="1" />
<path d="M-89.0,-11.0 L-95.73768949394963,-1.0947419154644171 L-96.37748754275324,-0.8208466767160028" fill="orange" fill-opacity="0.6" stroke="black" stroke-width="1" />
<path d="M-89.0,11.0 L-95.73768949394963,1.0947419154644171 L-96.37748754275324,0.8208466767160028" fill="red" fill-opacity="0.6" stroke="black" stroke-width="1" />
<path d="M-95.73768949394963,-1.0947419154644171 L-96.37748754275324,-0.8208466767160028 L-96.57849550001457,-0.6330068562184571" fill="red" fill-opacity="0.6" stroke="black" stroke-width="1" />
<path d="M-95.73768949394963,1.0947419154644171 L-96.37748754275324,0.8208466767160028 L-96.57849550001457,0.6330068562184571" fill="orange" fill-opacity="0.6" stroke="black" stroke-width="1" />
<path d="M-96.37748754275324,-0.8208466767160028 L-96.57849550001457,-0.6330068562184571 L-97.88381259027804,-0.29439603974383277" fill="brown" fill-opacity="0.6" stroke="black" stroke-width="1" />
<path d="M-96.37748754275324,0.8208466767160028 L-96.57849550001457,0.6330068562184571 L-97.88381259027804,0.29439603974383277" fill="brown" fill-opacity="0.6" stroke="black" stroke-width="1" />
<path d="M-96.57849550001457,-0.6330068562184571 L-97.88381259027804,-0.29439603974383277 L-99.66688811227678,-0.20621064486297855" fill="black" fill-opacity="0.6" stroke="black" stroke-width="1" />
<path d="M-96.57849550001457,0.6330068562184571 L-97.88381259027804,0.29439603974383277 L-99.66688811227678,0.20621064486297855" fill="blue" fill-opacity="0.6" stroke="black" stroke-width="1" />
<path d="M-97.88381259027804,-0.29439603974383277 L-99.66688811227678,-0.20621064486297855 L-100.0,-0.0" fill="orange" fill-opacity="0.6" stroke="black" stroke-width="1" />
<path d="M-97.88381259027804,0.29439603974383277 L-99.66688811227678,0.20621064486297855 L-100.0,-0.0" fill="green" fill-opacity="0.6" stroke="black" stroke-width="1" />
</svg>