<?xml version="1.0" encoding="UTF-8"?>
<svg xmlns="http://www.w3.org/2000/svg" xmlns:xlink="http://www.w3.org/1999/xlink"
     width="250" height="250" viewBox="-125.0 -125.0 250 250">
<defs>
</defs>
<path d="M43.0,50.0 L35.0,65.0 L23.0,77.0" fill="red" fill-opacity="0.6" stroke="black" stroke-width="1" />
<path d="M43.0,-50.0 L35.0,-65.0 L23.0,-77.0" fill="brown" fill-opacity="0.6" stroke="black" stroke-width="1" />
<path d="M23.0,-23.0 L21.401425519718952,-17.557693151706875 L16.0,-16.0" fill="brown" fill-opacity="0.6" stroke="black" stroke-width="1" />
<path d="M23.0,23.0 L21.401425519718952,17.557693151706875 L16.0,16.0" fill="orange" fill-opacity="0.6" stroke="black" stroke-width="1" />
<path d="M17.557693151706875,78.59857448028104 L16.0,84.0 L0.0,100.0" fill="blue" fill-opacity="0.6" stroke="black" stroke-width="1" />
<path d="M17.557693151706875,-78.59857448028104 L16.0,-84.0 L0.0,-100.0" fill="black" fill-opacity="0.6" stroke="black" stroke-width="1" />
<path d="M-43.0,50.0 L-35.0,65.0 L-23.0,77.0" fill="pink" fill-opacity="0.6" stroke="black" stroke-width="1" />
<path d="M-43.0,-50.0 L-35.0,-65.0 L-23.0,-77.0" fill="blue" fill-opacity="0.6" stroke="black" stroke-width="1" />
<path d="M-23.0,-23.0 L-21.401425519718952,-17.557693151706875 L-16.0,-16.0" fill="red" fill-opacity="0.6" stroke="black" stroke-width="1" />
<path d="M-23.0,23.0 L-21.401425519718952,17.557693151706875 L-16.0,16.0" fill="red" fill-opacity="0.6" stroke="black" stroke-width="1" />
<path d="M-17.557693151706875,78.59857448028104 L-16.0,84.0 L0.0,100.0" fill="yellow" fill-opacity="0.6" stroke="black" stroke-width="1" />
<path d="M-17.557693151706875,-78.59857448028104 L-16.0,-84.0 L0.0,-100.0" fill="blue" fill-opacity="0.6" stroke="black" stroke-width="1" />
<path d="M50.0,43.0 L65.0,35.0 L77.0,23.0" fill="orange" fill-opacity="0.6" stroke="black" stroke-width="1" />
<path d="M50.0,-43.0 L65.0,-35.0 L77.0,-23.0" fill="green" fill-opacity="0.6" stroke="black" stroke-width="1" />
<path d="M77.0,23.0 L78.59857448028104,17.557693151706875 L84.0,16.0" fill="blue" fill-opacity="0.6" stroke="black" stroke-width="1" />
<path d="M77.0,-23.0 L78.59857448028104,-17.557693151706875 L84.0,-16.0" fill="purple" fill-opacity="0.6" stroke="black" stroke-width="1" />
<path d="M78.59857448028104,17.557693151706875 L84.0,16.0 L100.0,-0.0" fill="orange" fill-opacity="0.6" stroke="black" stroke-width="1" />
<path d="M78.59857448028104,-17.557693151706875 L84.0,-16.0 L100.0,-0.0" fill="blue" fill-opacity="0.6" stroke="black" stroke-width="1" />
<path d="M23.0,-23.0 L17.557693151706875,-21.401425519718952 L16.0,-16.0" fill="purple" fill-opacity="0.6" stroke="black" stroke-width="1" />
<path d="M23.0,23.0 L17.557693151706875,21.401425519718952 L16.0,16.0" fill="blue" fill-opacity="0.6" stroke="black" stroke-width="1" />
<path d="M23.0,77.0 L17.557693151706875,78.59857448028104 L16.0,84.0" fill="green" fill-opacity="0.6" stroke="black" stroke-width="1" />
<path d="M23.0,-77.0 L17.557693151706875,-78.59857448028104 L16.0,-84.0" fill="blue" fill-opacity="0.6" stroke="black" stroke-width="1" />
<path d="M-23.0,77.0 L-17.557693151706875,78.59857448028104 L-16.0,84.0" fill="purple" fill-opacity="0.6" stroke="black" stroke-width="1" />
<path d="M-23.0,-23.0 L-17.557693151706875,-21.401425519718952 L-16.0,-16.0" fill="orange" fill-opacity="0.6" stroke="black" stroke-width="1" />
<path d="M-23.0,23.0 L-17.557693151706875,21.401425519718956 L-16.0,16.0" fill="pink" fill-opacity="0.6" stroke="black" stroke-width="1" />
<path d="M-23.0,-77.0 L-17.557693151706875,-78.59857448028104 L-16.0,-84.0" fill="green" fill-opacity="0.6" stroke="black" stroke-width="1" />
<path d="M-50.0,-43.0 L-65.0,-35.0 L-77.0,-23.0" fill="pink" fill-opacity="0.6" stroke="black" stroke-width="1" />
<path d="M-50.0,43.0 L-65.0,35.0 L-77.0,23.0" fill="orange" fill-opacity="0.6" stroke="black" stroke-width="1" />
<path d="M-77.0,-23.0 L-78.59857448028104,-17.557693151706875 L-84.0,-16.0" fill="black" fill-opacity="0.6" stroke="black" stroke-width="1" />
<path d="M-77.0,23.0 L-78.59857448028104,17.557693151706875 L-84.0,16.0" fill="orange" fill-opacity="0.6" stroke="black" stroke-width="1" />
<path d="M-78.59857448028104,-17.557693151706875 L-84.0,-16.0 L-100.0,-0.0" fill="green" fill-opacity="0.6" stroke="black" stroke-width="1" />
<path d="M-78.59857448028104,17.557693151706875 L-84.0,16.0 L-100.0,-0.0" fill="blue" fill-opacity="0.6" stroke="black" stroke-width="1" />
</svg>