<?xml version="1.0" encoding="UTF-8"?>
<svg xmlns="http://www.w3.org/2000/svg" xmlns:xlink="http://www.w3.org/1999/xlink"
     width="250" height="250" viewBox="-125.0 -125.0 250 250">
<defs>
</defs>
<path d="M1.3680633154244761,93.68744838779091 L6.0,94.0 L1.177696310174492,95.60827285961598" fill="orange" fill-opacity="0.6" stroke="black" stroke-width="1" />
<path d="M1.3680633154244761,-93.68744838779091 L6.0,-94.0 L1.177696310174492,-95.60827285961598" fill="blue" fill-opacity="0.6" stroke="black" stroke-width="1" />
<path d="M6.0,-0.0 L10.395604445123759,-2.224975301179012 L11.788651847022685,-2.3374035571528524" fill="blue" fill-opacity="0.6" stroke="black" stroke-width="1" />
<path d="M6.0,-0.0 L10.395604445123759,2.224975301179012 L11.788651847022685,2.3374035571528524" fill="pink" fill-opacity="0.6" stroke="black" stroke-width="1" />
<path d="M10.395604445123759,-2.224975301179012 L11.788651847022685,-2.3374035571528524 L12.779292710754019,-3.1596937036066732" fill="yellow" fill-opacity="0.6" stroke="black" stroke-width="1" />
<path d="M10.395604445123759,2.224975301179012 L11.788651847022685,2.3374035571528524 L12.779292710754019,3.1596937036066732" fill="black" fill-opacity="0.6" stroke="black" stroke-width="1" />
<path d="M11.788651847022685,-2.3374035571528524 L12.779292710754019,-3.1596937036066732 L15.0,-0.0" fill="yellow" fill-opacity="0.6" stroke="black" stroke-width="1" />
<path d="M11.788651847022685,2.3374035571528524 L12.779292710754019,3.1596937036066732 L15.0,-0.0" fill="red" fill-opacity="0.6" stroke="black" stroke-width="1" />
<path d="M15.0,-0.0 L20.201464613635565,-7.12242512486771 L24.794613390042223,-7.783640212370802" fill="blue" fill-opacity="0.6" stroke="black" stroke-width="1" />
<path d="M15.0,-0.0 L20.201464613635565,7.12242512486771 L24.794613390042223,7.783640212370802" fill="blue" fill-opacity="0.6" stroke="black" stroke-width="1" />
<path d="M20.201464613635565,-7.12242512486771 L24.794613390042223,-7.783640212370802 L25.0,-0.0" fill="purple" fill-opacity="0.6" stroke="black" stroke-width="1" />
<path d="M20.201464613635565,7.12242512486771 L24.794613390042223,7.783640212370802 L25.0,-0.0" fill="orange" fill-opacity="0.6" stroke="black" stroke-width="1" />
<path d="M25.0,-0.0 L25.966577712023597,-8.04220491275069 L28.0,-0.0" fill="yellow" fill-opacity="0.6" stroke="black" stroke-width="1" />
<path d="M25.0,-0.0 L25.966577712023597,8.04220491275069 L28.0,-0.0" fill="pink" fill-opacity="0.6" stroke="black" stroke-width="1" />
<path d="M28.0,-0.0 L37.65298107261765,-10.03371281126081 L50.0,-0.0" fill="purple" fill-opacity="0.6" stroke="black" stroke-width="1" />
<path d="M28.0,-0.0 L37.65298107261765,10.03371281126081 L50.0,-0.0" fill="green" fill-opacity="0.6" stroke="black" stroke-width="1" />
<path d="M50.0,-8.0 L37.71064073829949,-12.917823667765077 L38.442676600649584,-13.082769752289211" fill="black" fill-opacity="0.6" stroke="black" stroke-width="1" />
<path d="M50.0,8.0 L37.71064073829949,12.917823667765077 L38.442676600649584,13.082769752289211" fill="orange" fill-opacity="0.6" stroke="black" stroke-width="1" />
<path d="M37.71064073829949,-12.917823667765077 L38.442676600649584,-13.082769752289211 L41.407365421213136,-15.112954197073464" fill="brown" fill-opacity="0.6" stroke="black" stroke-width="1" />
<path d="M37.71064073829949,12.917823667765077 L38.442676600649584,13.082769752289211 L41.407365421213136,15.112954197073464" fill="red" fill-opacity="0.6" stroke="black" stroke-width="1" />
<path d="M38.442676600649584,-13.082769752289211 L41.407365421213136,-15.112954197073464 L43.51894565458288,-15.762130268553436" fill="yellow" fill-opacity="0.6" stroke="black" stroke-width="1" />
<path d="M38.442676600649584,13.082769752289211 L41.407365421213136,15.112954197073464 L43.51894565458288,15.762130268553436" fill="orange" fill-opacity="0.6" stroke="black" stroke-width="1" />
<path d="M41.407365421213136,-15.112954197073464 L43.51894565458288,-15.762130268553436 L48.04960930143617,-19.14367871266447" fill="blue" fill-opacity="0.6" stroke="black" stroke-width="1" />
<path d="M41.407365421213136,15.112954197073464 L43.51894565458288,15.762130268553436 L48.04960930143617,19.14367871266447" fill="black" fill-opacity="0.6" stroke="black" stroke-width="1" />
<path d="M43.51894565458288,-15.762130268553436 L48.04960930143617,-19.14367871266447 L48.23710753575238,-24.213093827115546" fill="pink" fill-opacity="0.6" stroke="black" stroke-width="1" />
<path d="M43.51894565458288,15.762130268553436 L48.04960930143617,19.14367871266447 L48.23710753575238,24.213093827115546" fill="green" fill-opacity="0.6" stroke="black" stroke-width="1" />
<path d="M48.04960930143617,-19.14367871266447 L48.23710753575238,-24.213093827115546 L50.0,-36.0" fill="purple" fill-opacity="0.6" stroke="black" stroke-width="1" />
<path d="M48.04960930143617,19.14367871266447 L48.23710753575238,24.213093827115546 L50.0,36.0" fill="orange" fill-opacity="0.6" stroke="black" stroke-width="1" />
<path d="M50.0,-36.0 L48.74188787893037,-39.91070999212849 L50.0,-47.0" fill="orange" fill-opacity="0.6" stroke="black" stroke-width="1" />
<path d="M50.0,36.0 L48.74188787893037,39.91070999212849 L50.0,47.0" fill="blue" fill-opacity="0.6" stroke="black" stroke-width="1" />
<path d="M50.0,50.0 L47.0,53.0 L24.0,76.0" fill="pink" fill-opacity="0.6" stroke="black" stroke-width="1" />
<path d="M50.0,-50.0 L47.0,-53.0 L24.0,-76.0" fill="red" fill-opacity="0.6" stroke="black" stroke-width="1" />
<path d="M47.0,53.0 L24.0,76.0 L18.0,82.0" fill="blue" fill-opacity="0.6" stroke="black" stroke-width="1" />
<path d="M47.0,-53.0 L24.0,-76.0 L18.0,-82.0" fill="blue" fill-opacity="0.6" stroke="black" stroke-width="1" />
<path d="M24.0,76.0 L18.0,82.0 L14.0,86.0" fill="green" fill-opacity="0.6" stroke="black" stroke-width="1" />
<path d="M24.0,-76.0 L18.0,-82.0 L14.0,-86.0" fill="yellow" fill-opacity="0.6" stroke="black" stroke-width="1" />
<path d="M18.0,82.0 L14.0,86.0 L6.528164603315489,86.07126868327006" fill="black" fill-opacity="0.6" stroke="black" stroke-width="1" />
<path d="M18.0,-82.0 L14.0,-86.0 L6.528164603315489,-86.07126868327006" fill="green" fill-opacity="0.6" stroke="black" stroke-width="1" />
<path d="M14.0,-14.0 L13.928731316729932,-6.528164603315489 L9.532643025267435,-2.1901118974089444" fill="red" fill-opacity="0.6" stroke="black" stroke-width="1" />
<path d="M14.0,14.0 L13.928731316729932,6.528164603315489 L9.532643025267435,2.1901118974089444" fill="purple" fill-opacity="0.6" stroke="black" stroke-width="1" />
<path d="M13.928731316729932,-6.528164603315489 L9.532643025267435,-2.1901118974089444 L9.164835322520181,-1.9279439292867102" fill="black" fill-opacity="0.6" stroke="black" stroke-width="1" />
<path d="M13.928731316729932,6.528164603315489 L9.532643025267435,2.1901118974089444 L9.164835322520181,1.9279439292867102" fill="red" fill-opacity="0.6" stroke="black" stroke-width="1" />
<path d="M9.532643025267435,-2.1901118974089444 L9.164835322520181,-1.9279439292867102 L6.312551612209083,-1.3680633154244761" fill="black" fill-opacity="0.6" stroke="black" stroke-width="1" />
<path d="M9.532643025267435,2.1901118974089444 L9.164835322520181,1.9279439292867102 L6.312551612209083,1.3680633154244761" fill="black" fill-opacity="0.6" stroke="black" stroke-width="1" />
<path d="M9.164835322520181,-1.9279439292867102 L6.312551612209083,-1.3680633154244761 L6.0,-6.0" fill="pink" fill-opacity="0.6" stroke="black" stroke-width="1" />
<path d="M9.164835322520181,1.9279439292867102 L6.312551612209083,1.3680633154244761 L6.0,6.0" fill="red" fill-opacity="0.6" stroke="black" stroke-width="1" />
<path d="M6.0,-6.0 L4.391727140384017,-1.177696310174492 L3.1614721896150053,-0.4138807639109135" fill="blue" fill-opacity="0.6" stroke="black" stroke-width="1" />
<path d="M6.0,6.0 L4.391727140384017,1.177696310174492 L3.1614721896150053,0.4138807639109135" fill="blue" fill-opacity="0.6" stroke="black" stroke-width="1" />
<path d="M4.391727140384017,-1.177696310174492 L3.1614721896150053,-0.4138807639109135 L0.0,-0.0" fill="purple" fill-opacity="0.6" stroke="black" stroke-width="1" />
<path d="M4.391727140384017,1.177696310174492 L3.1614721896150053,0.4138807639109135 L0.0,-0.0" fill="pink" fill-opacity="0.6" stroke="black" stroke-width="1" />
<path d="M-1.3680633154244761,93.68744838779092 L-6.0,94.0 L-1.177696310174492,95.60827285961598" fill="purple" fill-opacity="0.6" stroke="black" stroke-width="1" />
<path d="M-1.3680633154244761,-93.68744838779091 L-6.0,-94.0 L-1.177696310174492,-95.60827285961598" fill="orange" fill-opacity="0.6" stroke="black" stroke-width="1" />
<path d="M-6.0,-0.0 L-10.395604445123759,-2.224975301179012 L-11.788651847022685,-2.3374035571528524" fill="green" fill-opacity="0.6" stroke="black" stroke-width="1" />
<path d="M-6.0,-0.0 L-10.395604445123759,2.224975301179012 L-11.788651847022685,2.3374035571528524" fill="green" fill-opacity="0.6" stroke="black" stroke-width="1" />
<path d="M-10.395604445123759,-2.224975301179012 L-11.788651847022685,-2.3374035571528524 L-12.779292710754019,-3.1596937036066732" fill="brown" fill-opacity="0.6" stroke="black" stroke-width="1" />
<path d="M-10.395604445123759,2.224975301179012 L-11.788651847022685,2.3374035571528524 L-12.779292710754019,3.1596937036066732" fill="brown" fill-opacity="0.6" stroke="black" stroke-width="1" />
<path d="M-11.788651847022685,-2.3374035571528524 L-12.779292710754019,-3.1596937036066732 L-15.0,-0.0" fill="pink" fill-opacity="0.6" stroke="black" stroke-width="1" />
<path d="M-11.788651847022685,2.3374035571528524 L-12.779292710754019,3.1596937036066732 L-15.0,-0.0" fill="yellow" fill-opacity="0.6" stroke="black" stroke-width="1" />
<path d="M-15.0,-0.0 L-20.201464613635565,-7.12242512486771 L-24.794613390042223,-7.783640212370802" fill="purple" fill-opacity="0.6" stroke="black" stroke-width="1" />
<path d="M-15.0,-0.0 L-20.201464613635565,7.12242512486771 L-24.794613390042223,7.783640212370802" fill="purple" fill-opacity="0.6" stroke="black" stroke-width="1" />
<path d="M-20.201464613635565,-7.12242512486771 L-24.794613390042223,-7.783640212370802 L-25.0,-0.0" fill="green" fill-opacity="0.6" stroke="black" stroke-width="1" />
<path d="M-20.201464613635565,7.12242512486771 L-24.794613390042223,7.783640212370802 L-25.0,-0.0" fill="yellow" fill-opacity="0.6" stroke="black" stroke-width="1" />
<path d="M-25.0,-0.0 L-25.966577712023597,-8.04220491275069 L-28.0,-0.0" fill="yellow" fill-opacity="0.6" stroke="black" stroke-width="1" />
<path d="M-25.0,-0.0 L-25.966577712023597,8.04220491275069 L-28.0,-0.0" fill="blue" fill-opacity="0.6" stroke="black" stroke-width="1" />
<path d="M-28.0,-0.0 L-37.65298107261765,-10.03371281126081 L-50.0,-0.0" fill="blue" fill-opacity="0.6" stroke="black" stroke-width="1" />
<path d="M-28.0,-0.0 L-37.65298107261765,10.03371281126081 L-50.0,-0.0" fill="blue" fill-opacity="0.6" stroke="black" stroke-width="1" />
<path d="M-50.0,-8.0 L-37.71064073829949,-12.917823667765077 L-38.442676600649584,-13.082769752289211" fill="yellow" fill-opacity="0.6" stroke="black" stroke-width="1" />
<path d="M-50.0,8.0 L-37.71064073829949,12.917823667765077 L-38.442676600649584,13.082769752289211" fill="black" fill-opacity="0.6" stroke="black" stroke-width="1" />
<path d="M-37.71064073829949,-12.917823667765077 L-38.442676600649584,-13.082769752289211 L-41.407365421213136,-15.112954197073464" fill="pink" fill-opacity="0.6" stroke="black" stroke-width="1" />
<path d="M-37.71064073829949,12.917823667765077 L-38.442676600649584,13.082769752289211 L-41.407365421213136,15.112954197073464" fill="black" fill-opacity="0.6" stroke="black" stroke-width="1" />
<path d="M-38.442676600649584,-13.082769752289211 L-41.407365421213136,-15.112954197073464 L-43.51894565458288,-15.762130268553436" fill="brown" fill-opacity="0.6" stroke="black" stroke-width="1" />
<path d="M-38.442676600649584,13.082769752289211 L-41.407365421213136,15.112954197073464 L-43.51894565458288,15.762130268553436" fill="brown" fill-opacity="0.6" stroke="black" stroke-width="1" />
<path d="M-41.407365421213136,-15.112954197073464 L-43.51894565458288,-15.762130268553436 L-48.04960930143617,-19.14367871266447" fill="blue" fill-opacity="0.6" stroke="black" stroke-width="1" />
<path d="M-41.407365421213136,15.112954197073464 L-43.51894565458288,15.762130268553436 L-48.04960930143617,19.14367871266447" fill="blue" fill-opacity="0.6" stroke="black" stroke-width="1" />
<path d="M-43.51894565458288,-15.762130268553436 L-48.04960930143617,-19.14367871266447 L-48.23710753575238,-24.213093827115546" fill="green" fill-opacity="0.6" stroke="black" stroke-width="1" />
<path d="M-43.51894565458288,15.762130268553436 L-48.04960930143617,19.14367871266447 L-48.23710753575238,24.213093827115546" fill="orange" fill-opacity="0.6" stroke="black" stroke-width="1" />
<path d="M-48.04960930143617,-19.14367871266447 L-48.23710753575238,-24.213093827115546 L-50.0,-36.0" fill="orange" fill-opacity="0.6" stroke="black" stroke-width="1" />
<path d="M-48.04960930143617,19.14367871266447 L-48.23710753575238,24.213093827115546 L-50.0,36.0" fill="brown" fill-opacity="0.6" stroke="black" stroke-width="1" />
<path d="M-50.0,-36.0 L-48.74188787893037,-39.91070999212849 L-50.0,-47.0" fill="brown" fill-opacity="0.6" stroke="black" stroke-width="1" />
<path d="M-50.0,36.0 L-48.74188787893037,39.91070999212849 L-50.0,47.0" fill="green" fill-opacity="0.6" stroke="black" stroke-width="1" />
<path d="M-50.0,50.0 L-47.0,53.0 L-24.0,76.0" fill="green" fill-opacity="0.6" stroke="black" stroke-width="1" />
<path d="M-50.0,-50.0 L-47.0,-53.0 L-24.0,-76.0" fill="pink" fill-opacity="0.6" stroke="black" stroke-width="1" />
<path d="M-47.0,53.0 L-24.0,76.0 L-18.0,82.0" fill="orange" fill-opacity="0.6" stroke="black" stroke-width="1" />
<path d="M-47.0,-53.0 L-24.0,-76.0 L-18.0,-82.0" fill="orange" fill-opacity="0.6" stroke="black" stroke-width="1" />
<path d="M-24.0,76.0 L-18.0,82.0 L-14.0,86.0" fill="purple" fill-opacity="0.6" stroke="black" stroke-width="1" />
<path d="M-24.0,-76.0 L-18.0,-82.0 L-14.0,-86.0" fill="orange" fill-opacity="0.6" stroke="black" stroke-width="1" />
<path d="M-18.0,82.0 L-14.0,86.0 L-6.528164603315489,86.07126868327006" fill="blue" fill-opacity="0.6" stroke="black" stroke-width="1" />
<path d="M-18.0,-82.0 L-14.0,-86.0 L-6.528164603315489,-86.07126868327006" fill="black" fill-opacity="0.6" stroke="black" stroke-width="1" />
<path d="M-14.0,-14.0 L-13.928731316729932,-6.528164603315489 L-9.532643025267435,-2.1901118974089444" fill="yellow" fill-opacity="0.6" stroke="black" stroke-width="1" />
<path d="M-14.0,14.0 L-13.928731316729932,6.528164603315489 L-9.532643025267435,2.1901118974089444" fill="black" fill-opacity="0.6" stroke="black" stroke-width="1" />
<path d="M-13.928731316729932,-6.528164603315489 L-9.532643025267435,-2.1901118974089444 L-9.164835322520181,-1.9279439292867102" fill="red" fill-opacity="0.6" stroke="black" stroke-width="1" />
<path d="M-13.928731316729932,6.528164603315489 L-9.532643025267435,2.1901118974089444 L-9.164835322520181,1.9279439292867102" fill="pink" fill-opacity="0.6" stroke="black" stroke-width="1" />
<path d="M-9.532643025267435,-2.1901118974089444 L-9.164835322520181,-1.9279439292867102 L-6.312551612209083,-1.3680633154244761" fill="red" fill-opacity="0.6" stroke="black" stroke-width="1" />
<path d="M-9.532643025267435,2.1901118974089444 L-9.164835322520181,1.9279439292867102 L-6.312551612209083,1.3680633154244761" fill="brown" fill-opacity="0.6" stroke="black" stroke-width="1" />
<path d="M-9.164835322520181,-1.9279439292867102 L-6.312551612209083,-1.3680633154244761 L-6.0,-6.0" fill="blue" fill-opacity="0.6" stroke="black" stroke-width="1" />
<path d="M-9.164835322520181,1.9279439292867102 L-6.312551612209083,1.3680633154244761 L-6.0,6.0" fill="green" fill-opacity="0.6" stroke="black" stroke-width="1" />
<path d="M-6.0,-6.0 L-4.391727140384017,-1.177696310174492 L-3.1614721896150053,-0.4138807639109135" fill="purple" fill-opacity="0.6" stroke="black" stroke-width="1" />
<path d="M-6.0,6.0 L-4.391727140384017,1.177696310174492 L-3.1614721896150053,0.4138807639109135" fill="orange" fill-opacity="0.6" stroke="black" stroke-width="1" />
<path d="M-4.391727140384017,-1.177696310174492 L-3.1614721896150053,-0.4138807639109135 L0.0,-0.0" fill="red" fill-opacity="0.6" stroke="black" stroke-width="1" />
<path d="M-4.391727140384017,1.177696310174492 L-3.1614721896150053,0.4138807639109135 L0.0,-0.0" fill="black" fill-opacity="0.6" stroke="black" stroke-width="1" />
<path d="M93.68744838779091,1.3680633154244761 L94.0,6.0 L95.60827285961598,1.177696310174492" fill="orange" fill-opacity="0.6" stroke="black" stroke-width="1" />
<path d="M93.68744838779091,-1.3680633154244761 L94.0,-6.0 L95.60827285961598,-1.177696310174492" fill="brown" fill-opacity="0.6" stroke="black" stroke-width="1" />
<path d="M94.0,-0.0 L89.60439555487625,2.224975301179012 L88.21134815297731,2.3374035571528524" fill="yellow" fill-opacity="0.6" stroke="black" stroke-width="1" />
<path d="M94.0,-0.0 L89.60439555487625,-2.224975301179012 L88.21134815297731,-2.3374035571528524" fill="green" fill-opacity="0.6" stroke="black" stroke-width="1" />
<path d="M89.60439555487625,2.224975301179012 L88.21134815297731,2.3374035571528524 L87.22070728924598,3.1596937036066732" fill="pink" fill-opacity="0.6" stroke="black" stroke-width="1" />
<path d="M89.60439555487625,-2.224975301179012 L88.21134815297731,-2.3374035571528524 L87.22070728924598,-3.1596937036066732" fill="pink" fill-opacity="0.6" stroke="black" stroke-width="1" />
<path d="M88.21134815297731,2.3374035571528524 L87.22070728924598,3.1596937036066732 L85.0,-0.0" fill="blue" fill-opacity="0.6" stroke="black" stroke-width="1" />
<path d="M88.21134815297731,-2.3374035571528524 L87.22070728924598,-3.1596937036066732 L85.0,-0.0" fill="brown" fill-opacity="0.6" stroke="black" stroke-width="1" />
<path d="M85.0,-0.0 L79.79853538636443,7.12242512486771 L75.20538660995777,7.783640212370802" fill="blue" fill-opacity="0.6" stroke="black" stroke-width="1" />
<path d="M85.0,-0.0 L79.79853538636443,-7.12242512486771 L75.20538660995777,-7.783640212370802" fill="green" fill-opacity="0.6" stroke="black" stroke-width="1" />
<path d="M79.79853538636443,7.12242512486771 L75.20538660995777,7.783640212370802 L75.0,-0.0" fill="blue" fill-opacity="0.6" stroke="black" stroke-width="1" />
<path d="M79.79853538636443,-7.12242512486771 L75.20538660995777,-7.783640212370802 L75.0,-0.0" fill="green" fill-opacity="0.6" stroke="black" stroke-width="1" />
<path d="M75.0,-0.0 L74.0334222879764,8.04220491275069 L72.0,-0.0" fill="purple" fill-opacity="0.6" stroke="black" stroke-width="1" />
<path d="M75.0,-0.0 L74.0334222879764,-8.04220491275069 L72.0,-0.0" fill="brown" fill-opacity="0.6" stroke="black" stroke-width="1" />
<path d="M72.0,-0.0 L62.34701892738235,10.03371281126081 L50.0,-0.0" fill="yellow" fill-opacity="0.6" stroke="black" stroke-width="1" />
<path d="M72.0,-0.0 L62.34701892738235,-10.03371281126081 L50.0,-0.0" fill="blue" fill-opacity="0.6" stroke="black" stroke-width="1" />
<path d="M50.0,8.0 L62.28935926170051,12.917823667765077 L61.557323399350416,13.082769752289211" fill="green" fill-opacity="0.6" stroke="black" stroke-width="1" />
<path d="M50.0,-8.0 L62.28935926170051,-12.917823667765077 L61.557323399350416,-13.082769752289211" fill="brown" fill-opacity="0.6" stroke="black" stroke-width="1" />
<path d="M62.28935926170051,12.917823667765077 L61.557323399350416,13.082769752289211 L58.592634578786864,15.112954197073464" fill="black" fill-opacity="0.6" stroke="black" stroke-width="1" />
<path d="M62.28935926170051,-12.917823667765077 L61.557323399350416,-13.082769752289211 L58.592634578786864,-15.112954197073464" fill="blue" fill-opacity="0.6" stroke="black" stroke-width="1" />
<path d="M61.557323399350416,13.082769752289211 L58.592634578786864,15.112954197073464 L56.48105434541712,15.762130268553436" fill="pink" fill-opacity="0.6" stroke="black" stroke-width="1" />
<path d="M61.557323399350416,-13.082769752289211 L58.592634578786864,-15.112954197073464 L56.48105434541712,-15.762130268553436" fill="blue" fill-opacity="0.6" stroke="black" stroke-width="1" />
<path d="M58.592634578786864,15.112954197073464 L56.48105434541712,15.762130268553436 L51.95039069856383,19.14367871266447" fill="yellow" fill-opacity="0.6" stroke="black" stroke-width="1" />
<path d="M58.592634578786864,-15.112954197073464 L56.48105434541712,-15.762130268553436 L51.95039069856383,-19.14367871266447" fill="brown" fill-opacity="0.6" stroke="black" stroke-width="1" />
<path d="M56.48105434541712,15.762130268553436 L51.95039069856383,19.14367871266447 L51.76289246424762,24.213093827115546" fill="red" fill-opacity="0.6" stroke="black" stroke-width="1" />
<path d="M56.48105434541712,-15.762130268553436 L51.95039069856383,-19.14367871266447 L51.76289246424762,-24.213093827115546" fill="green" fill-opacity="0.6" stroke="black" stroke-width="1" />
<path d="M51.95039069856383,19.14367871266447 L51.76289246424762,24.213093827115546 L50.0,36.0" fill="yellow" fill-opacity="0.6" stroke="black" stroke-width="1" />
<path d="M51.95039069856383,-19.14367871266447 L51.76289246424762,-24.213093827115546 L50.0,-36.0" fill="yellow" fill-opacity="0.6" stroke="black" stroke-width="1" />
<path d="M50.0,36.0 L51.25811212106963,39.91070999212849 L50.0,47.0" fill="red" fill-opacity="0.6" stroke="black" stroke-width="1" />
<path d="M50.0,-36.0 L51.25811212106963,-39.91070999212849 L50.0,-47.0" fill="purple" fill-opacity="0.6" stroke="black" stroke-width="1" />
<path d="M50.0,50.0 L53.0,47.0 L76.0,24.0" fill="yellow" fill-opacity="0.6" stroke="black" stroke-width="1" />
<path d="M50.0,-50.0 L53.0,-47.0 L76.0,-24.0" fill="brown" fill-opacity="0.6" stroke="black" stroke-width="1" />
<path d="M53.0,47.0 L76.0,24.0 L82.0,18.0" fill="yellow" fill-opacity="0.6" stroke="black" stroke-width="1" />
<path d="M53.0,-47.0 L76.0,-24.0 L82.0,-18.0" fill="yellow" fill-opacity="0.6" stroke="black" stroke-width="1" />
<path d="M76.0,24.0 L82.0,18.0 L86.0,14.0" fill="blue" fill-opacity="0.6" stroke="black" stroke-width="1" />
<path d="M76.0,-24.0 L82.0,-18.0 L86.0,-14.0" fill="brown" fill-opacity="0.6" stroke="black" stroke-width="1" />
<path d="M82.0,18.0 L86.0,14.0 L86.07126868327006,6.528164603315489" fill="blue" fill-opacity="0.6" stroke="black" stroke-width="1" />
<path d="M82.0,-18.0 L86.0,-14.0 L86.07126868327006,-6.528164603315489" fill="orange" fill-opacity="0.6" stroke="black" stroke-width="1" />
<path d="M86.0,14.0 L86.07126868327006,6.528164603315489 L90.46735697473257,2.1901118974089444" fill="yellow" fill-opacity="0.6" stroke="black" stroke-width="1" />
<path d="M86.0,-14.0 L86.07126868327006,-6.528164603315489 L90.46735697473257,-2.1901118974089444" fill="purple" fill-opacity="0.6" stroke="black" stroke-width="1" />
<path d="M86.07126868327006,6.528164603315489 L90.46735697473257,2.1901118974089444 L90.83516467747981,1.9279439292867102" fill="red" fill-opacity="0.6" stroke="black" stroke-width="1" />
<path d="M86.07126868327006,-6.528164603315489 L90.46735697473257,-2.1901118974089444 L90.83516467747981,-1.9279439292867102" fill="orange" fill-opacity="0.6" stroke="black" stroke-width="1" />
<path d="M90.46735697473257,2.1901118974089444 L90.83516467747981,1.9279439292867102 L93.68744838779091,1.3680633154244761" fill="brown" fill-opacity="0.6" stroke="black" stroke-width="1" />
<path d="M90.46735697473257,-2.1901118974089444 L90.83516467747981,-1.9279439292867102 L93.68744838779091,-1.3680633154244761" fill="blue" fill-opacity="0.6" stroke="black" stroke-width="1" />
<path d="M90.83516467747981,1.9279439292867102 L93.68744838779091,1.3680633154244761 L94.0,6.0" fill="pink" fill-opacity="0.6" stroke="black" stroke-width="1" />
<path d="M90.83516467747981,-1.9279439292867102 L93.68744838779091,-1.3680633154244761 L94.0,-6.0" fill="green" fill-opacity="0.6" stroke="black" stroke-width="1" />
<path d="M94.0,6.0 L95.60827285961598,1.177696310174492 L96.83852781038499,0.4138807639109135" fill="brown" fill-opacity="0.6" stroke="black" stroke-width="1" />
<path d="M94.0,-6.0 L95.60827285961598,-1.177696310174492 L96.83852781038499,-0.4138807639109135" fill="brown" fill-opacity="0.6" stroke="black" stroke-width="1" />
<path d="M95.60827285961598,1.177696310174492 L96.83852781038499,0.4138807639109135 L100.0,-0.0" fill="black" fill-opacity="0.6" stroke="black" stroke-width="1" />
<path d="M95.60827285961598,-1.177696310174492 L96.83852781038499,-0.4138807639109135 L100.0,-0.0" fill="green" fill-opacity="0.6" stroke="black" stroke-width="1" />
<path d="M0.0,-6.0 L2.224975301179012,-10.395604445123759 L2.3374035571528524,-11.788651847022685" fill="purple" fill-opacity="0.6" stroke="black" stroke-width="1" />
<path d="M0.0,6.0 L2.224975301179012,10.395604445123759 L2.3374035571528524,11.788651847022685" fill="purple" fill-opacity="0.6" stroke="black" stroke-width="1" />
<path d="M0.0,94.0 L2.224975301179012,89.60439555487625 L2.3374035571528524,88.21134815297731" fill="pink" fill-opacity="0.6" stroke="black" stroke-width="1" />
<path d="M0.0,-94.0 L2.224975301179012,-89.60439555487625 L2.3374035571528524,-88.21134815297731" fill="green" fill-opacity="0.6" stroke="black" stroke-width="1" />
<path d="M2.224975301179012,-10.395604445123759 L2.3374035571528524,-11.788651847022685 L3.1596937036066732,-12.779292710754019" fill="green" fill-opacity="0.6" stroke="black" stroke-width="1" />
<path d="M2.224975301179012,10.395604445123759 L2.3374035571528524,11.788651847022685 L3.1596937036066732,12.779292710754019" fill="brown" fill-opacity="0.6" stroke="black" stroke-width="1" />
<path d="M2.224975301179012,89.60439555487625 L2.3374035571528524,88.21134815297731 L3.1596937036066732,87.22070728924598" fill="red" fill-opacity="0.6" stroke="black" stroke-width="1" />
<path d="M2.224975301179012,-89.60439555487625 L2.3374035571528524,-88.21134815297731 L3.1596937036066732,-87.22070728924598" fill="orange" fill-opacity="0.6" stroke="black" stroke-width="1" />
<path d="M2.3374035571528524,-11.788651847022685 L3.1596937036066732,-12.779292710754019 L0.0,-15.0" fill="green" fill-opacity="0.6" stroke="black" stroke-width="1" />
<path d="M2.3374035571528524,11.788651847022685 L3.1596937036066732,12.779292710754019 L0.0,15.0" fill="brown" fill-opacity="0.6" stroke="black" stroke-width="1" />
<path d="M2.3374035571528524,88.21134815297731 L3.1596937036066732,87.22070728924598 L0.0,85.0" fill="green" fill-opacity="0.6" stroke="black" stroke-width="1" />
<path d="M2.3374035571528524,-88.21134815297731 L3.1596937036066732,-87.22070728924598 L0.0,-85.0" fill="pink" fill-opacity="0.6" stroke="black" stroke-width="1" />
<path d="M0.0,-15.0 L7.12242512486771,-20.201464613635565 L7.783640212370802,-24.794613390042223" fill="red" fill-opacity="0.6" stroke="black" stroke-width="1" />
<path d="M0.0,15.0 L7.12242512486771,20.201464613635565 L7.783640212370802,24.794613390042223" fill="black" fill-opacity="0.6" stroke="black" stroke-width="1" />
<path d="M0.0,85.0 L7.12242512486771,79.79853538636443 L7.783640212370802,75.20538660995777" fill="pink" fill-opacity="0.6" stroke="black" stroke-width="1" />
<path d="M0.0,-85.0 L7.12242512486771,-79.79853538636443 L7.783640212370802,-75.20538660995777" fill="black" fill-opacity="0.6" stroke="black" stroke-width="1" />
<path d="M7.12242512486771,-20.201464613635565 L7.783640212370802,-24.794613390042223 L0.0,-25.0" fill="pink" fill-opacity="0.6" stroke="black" stroke-width="1" />
<path d="M7.12242512486771,20.201464613635565 L7.783640212370802,24.794613390042223 L0.0,25.0" fill="blue" fill-opacity="0.6" stroke="black" stroke-width="1" />
<path d="M7.12242512486771,79.79853538636443 L7.783640212370802,75.20538660995777 L0.0,75.0" fill="green" fill-opacity="0.6" stroke="black" stroke-width="1" />
<path d="M7.12242512486771,-79.79853538636443 L7.783640212370802,-75.20538660995777 L0.0,-75.0" fill="green" fill-opacity="0.6" stroke="black" stroke-width="1" />
<path d="M0.0,-25.0 L8.04220491275069,-25.966577712023597 L0.0,-28.0" fill="green" fill-opacity="0.6" stroke="black" stroke-width="1" />
<path d="M0.0,25.0 L8.04220491275069,25.966577712023597 L0.0,28.0" fill="brown" fill-opacity="0.6" stroke="black" stroke-width="1" />
<path d="M0.0,75.0 L8.04220491275069,74.0334222879764 L0.0,72.0" fill="green" fill-opacity="0.6" stroke="black" stroke-width="1" />
<path d="M0.0,-75.0 L8.04220491275069,-74.0334222879764 L0.0,-72.0" fill="purple" fill-opacity="0.6" stroke="black" stroke-width="1" />
<path d="M0.0,-28.0 L10.03371281126081,-37.65298107261765 L0.0,-50.0" fill="blue" fill-opacity="0.6" stroke="black" stroke-width="1" />
<path d="M0.0,28.0 L10.03371281126081,37.65298107261765 L0.0,50.0" fill="blue" fill-opacity="0.6" stroke="black" stroke-width="1" />
<path d="M0.0,72.0 L10.03371281126081,62.34701892738235 L0.0,50.0" fill="purple" fill-opacity="0.6" stroke="black" stroke-width="1" />
<path d="M0.0,-72.0 L10.03371281126081,-62.34701892738235 L0.0,-50.0" fill="orange" fill-opacity="0.6" stroke="black" stroke-width="1" />
<path d="M8.0,-50.0 L12.917823667765077,-37.71064073829949 L13.082769752289211,-38.442676600649584" fill="blue" fill-opacity="0.6" stroke="black" stroke-width="1" />
<path d="M8.0,50.0 L12.917823667765077,37.71064073829949 L13.082769752289211,38.442676600649584" fill="purple" fill-opacity="0.6" stroke="black" stroke-width="1" />
<path d="M8.0,50.0 L12.917823667765077,62.28935926170051 L13.082769752289211,61.557323399350416" fill="orange" fill-opacity="0.6" stroke="black" stroke-width="1" />
<path d="M8.0,-50.0 L12.917823667765077,-62.28935926170051 L13.082769752289211,-61.557323399350416" fill="red" fill-opacity="0.6" stroke="black" stroke-width="1" />
<path d="M12.917823667765077,-37.71064073829949 L13.082769752289211,-38.442676600649584 L15.112954197073464,-41.407365421213136" fill="purple" fill-opacity="0.6" stroke="black" stroke-width="1" />
<path d="M12.917823667765077,37.71064073829949 L13.082769752289211,38.442676600649584 L15.112954197073464,41.407365421213136" fill="blue" fill-opacity="0.6" stroke="black" stroke-width="1" />
<path d="M12.917823667765077,62.28935926170051 L13.082769752289211,61.557323399350416 L15.112954197073464,58.592634578786864" fill="blue" fill-opacity="0.6" stroke="black" stroke-width="1" />
<path d="M12.917823667765077,-62.28935926170051 L13.082769752289211,-61.557323399350416 L15.112954197073464,-58.592634578786864" fill="yellow" fill-opacity="0.6" stroke="black" stroke-width="1" />
<path d="M13.082769752289211,-38.442676600649584 L15.112954197073464,-41.407365421213136 L15.762130268553436,-43.51894565458288" fill="green" fill-opacity="0.6" stroke="black" stroke-width="1" />
<path d="M13.082769752289211,38.442676600649584 L15.112954197073464,41.407365421213136 L15.762130268553436,43.51894565458288" fill="purple" fill-opacity="0.6" stroke="black" stroke-width="1" />
<path d="M13.082769752289211,61.557323399350416 L15.112954197073464,58.592634578786864 L15.762130268553436,56.48105434541712" fill="pink" fill-opacity="0.6" stroke="black" stroke-width="1" />
<path d="M13.082769752289211,-61.557323399350416 L15.112954197073464,-58.592634578786864 L15.762130268553436,-56.48105434541712" fill="pink" fill-opacity="0.6" stroke="black" stroke-width="1" />
<path d="M15.112954197073464,-41.407365421213136 L15.762130268553436,-43.51894565458288 L19.14367871266447,-48.04960930143617" fill="purple" fill-opacity="0.6" stroke="black" stroke-width="1" />
<path d="M15.112954197073464,41.407365421213136 L15.762130268553436,43.51894565458288 L19.14367871266447,48.04960930143617" fill="brown" fill-opacity="0.6" stroke="black" stroke-width="1" />
<path d="M15.112954197073464,58.592634578786864 L15.762130268553436,56.48105434541712 L19.14367871266447,51.95039069856383" fill="brown" fill-opacity="0.6" stroke="black" stroke-width="1" />
<path d="M15.112954197073464,-58.592634578786864 L15.762130268553436,-56.48105434541712 L19.14367871266447,-51.95039069856383" fill="orange" fill-opacity="0.6" stroke="black" stroke-width="1" />
<path d="M15.762130268553436,-43.51894565458288 L19.14367871266447,-48.04960930143617 L24.213093827115546,-48.23710753575238" fill="brown" fill-opacity="0.6" stroke="black" stroke-width="1" />
<path d="M15.762130268553436,43.51894565458288 L19.14367871266447,48.04960930143617 L24.213093827115546,48.23710753575238" fill="orange" fill-opacity="0.6" stroke="black" stroke-width="1" />
<path d="M15.762130268553436,56.48105434541712 L19.14367871266447,51.95039069856383 L24.213093827115546,51.76289246424762" fill="green" fill-opacity="0.6" stroke="black" stroke-width="1" />
<path d="M15.762130268553436,-56.48105434541712 L19.14367871266447,-51.95039069856383 L24.213093827115546,-51.76289246424762" fill="green" fill-opacity="0.6" stroke="black" stroke-width="1" />
<path d="M19.14367871266447,-48.04960930143617 L24.213093827115546,-48.23710753575238 L36.0,-50.0" fill="blue" fill-opacity="0.6" stroke="black" stroke-width="1" />
<path d="M19.14367871266447,48.04960930143617 L24.213093827115546,48.23710753575238 L36.0,50.0" fill="red" fill-opacity="0.6" stroke="black" stroke-width="1" />
<path d="M19.14367871266447,51.95039069856383 L24.213093827115546,51.76289246424762 L36.0,50.0" fill="green" fill-opacity="0.6" stroke="black" stroke-width="1" />
<path d="M19.14367871266447,-51.95039069856383 L24.213093827115546,-51.76289246424762 L36.0,-50.0" fill="yellow" fill-opacity="0.6" stroke="black" stroke-width="1" />
<path d="M36.0,-50.0 L39.91070999212849,-48.74188787893037 L47.0,-50.0" fill="yellow" fill-opacity="0.6" stroke="black" stroke-width="1" />
<path d="M36.0,50.0 L39.91070999212849,48.74188787893037 L47.0,50.0" fill="red" fill-opacity="0.6" stroke="black" stroke-width="1" />
<path d="M36.0,50.0 L39.91070999212849,51.25811212106963 L47.0,50.0" fill="blue" fill-opacity="0.6" stroke="black" stroke-width="1" />
<path d="M36.0,-50.0 L39.91070999212849,-51.25811212106963 L47.0,-50.0" fill="green" fill-opacity="0.6" stroke="black" stroke-width="1" />
<path d="M14.0,-14.0 L6.528164603315489,-13.928731316729932 L2.1901118974089444,-9.532643025267435" fill="purple" fill-opacity="0.6" stroke="black" stroke-width="1" />
<path d="M14.0,14.0 L6.528164603315489,13.928731316729932 L2.1901118974089444,9.532643025267435" fill="yellow" fill-opacity="0.6" stroke="black" stroke-width="1" />
<path d="M14.0,86.0 L6.528164603315489,86.07126868327006 L2.1901118974089444,90.46735697473257" fill="yellow" fill-opacity="0.6" stroke="black" stroke-width="1" />
<path d="M14.0,-86.0 L6.528164603315489,-86.07126868327006 L2.1901118974089444,-90.46735697473257" fill="orange" fill-opacity="0.6" stroke="black" stroke-width="1" />
<path d="M6.528164603315489,-13.928731316729932 L2.1901118974089444,-9.532643025267435 L1.9279439292867102,-9.164835322520181" fill="red" fill-opacity="0.6" stroke="black" stroke-width="1" />
<path d="M6.528164603315489,13.928731316729932 L2.1901118974089444,9.532643025267435 L1.9279439292867102,9.164835322520181" fill="red" fill-opacity="0.6" stroke="black" stroke-width="1" />
<path d="M6.528164603315489,86.07126868327006 L2.1901118974089444,90.46735697473257 L1.9279439292867102,90.83516467747981" fill="purple" fill-opacity="0.6" stroke="black" stroke-width="1" />
<path d="M6.528164603315489,-86.07126868327006 L2.1901118974089444,-90.46735697473257 L1.9279439292867102,-90.83516467747981" fill="red" fill-opacity="0.6" stroke="black" stroke-width="1" />
<path d="M2.1901118974089444,-9.532643025267435 L1.9279439292867102,-9.164835322520181 L1.3680633154244761,-6.312551612209083" fill="blue" fill-opacity="0.6" stroke="black" stroke-width="1" />
<path d="M2.1901118974089444,9.532643025267435 L1.9279439292867102,9.164835322520181 L1.3680633154244761,6.312551612209083" fill="orange" fill-opacity="0.6" stroke="black" stroke-width="1" />
<path d="M2.1901118974089444,90.46735697473257 L1.9279439292867102,90.83516467747981 L1.3680633154244761,93.68744838779091" fill="red" fill-opacity="0.6" stroke="black" stroke-width="1" />
<path d="M2.1901118974089444,-90.46735697473257 L1.9279439292867102,-90.83516467747981 L1.3680633154244761,-93.68744838779091" fill="pink" fill-opacity="0.6" stroke="black" stroke-width="1" />
<path d="M1.9279439292867102,-9.164835322520181 L1.3680633154244761,-6.312551612209083 L6.0,-6.0" fill="orange" fill-opacity="0.6" stroke="black" stroke-width="1" />
<path d="M1.9279439292867102,9.164835322520181 L1.3680633154244761,6.312551612209083 L6.0,6.0" fill="red" fill-opacity="0.6" stroke="black" stroke-width="1" />
<path d="M1.9279439292867102,90.83516467747981 L1.3680633154244761,93.68744838779091 L6.0,94.0" fill="pink" fill-opacity="0.6" stroke="black" stroke-width="1" />
<path d="M1.9279439292867102,-90.83516467747981 L1.3680633154244761,-93.68744838779091 L6.0,-94.0" fill="red" fill-opacity="0.6" stroke="black" stroke-width="1" />
<path d="M6.0,-6.0 L1.177696310174492,-4.391727140384017 L0.4138807639109135,-3.1614721896150053" fill="orange" fill-opacity="0.6" stroke="black" stroke-width="1" />
<path d="M6.0,6.0 L1.177696310174492,4.391727140384017 L0.4138807639109135,3.1614721896150053" fill="green" fill-opacity="0.6" stroke="black" stroke-width="1" />
<path d="M6.0,94.0 L1.177696310174492,95.60827285961598 L0.4138807639109135,96.83852781038499" fill="purple" fill-opacity="0.6" stroke="black" stroke-width="1" />
<path d="M6.0,-94.0 L1.177696310174492,-95.60827285961598 L0.4138807639109135,-96.83852781038499" fill="orange" fill-opacity="0.6" stroke="black" stroke-width="1" />
<path d="M1.177696310174492,-4.391727140384017 L0.4138807639109135,-3.1614721896150053 L0.0,-0.0" fill="red" fill-opacity="0.6" stroke="black" stroke-width="1" />
<path d="M1.177696310174492,4.391727140384017 L0.4138807639109135,3.1614721896150053 L0.0,-0.0" fill="orange" fill-opacity="0.6" stroke="black" stroke-width="1" />
<path d="M1.177696310174492,95.60827285961598 L0.4138807639109135,96.83852781038499 L0.0,100.0" fill="blue" fill-opacity="0.6" stroke="black" stroke-width="1" />
<path d="M1.177696310174492,-95.60827285961598 L0.4138807639109135,-96.83852781038499 L0.0,-100.0" fill="black" fill-opacity="0.6" stroke="black" stroke-width="1" />
<path d="M0.0,94.0 L-2.224975301179012,89.60439555487625 L-2.3374035571528524,88.21134815297731" fill="purple" fill-opacity="0.6" stroke="black" stroke-width="1" />
<path d="M0.0,-6.0 L-2.224975301179012,-10.395604445123759 L-2.3374035571528524,-11.788651847022685" fill="orange" fill-opacity="0.6" stroke="black" stroke-width="1" />
<path d="M0.0,6.0 L-2.224975301179012,10.395604445123752 L-2.3374035571528524,11.788651847022692" fill="red" fill-opacity="0.6" stroke="black" stroke-width="1" />
<path d="M0.0,-94.0 L-2.224975301179012,-89.60439555487625 L-2.3374035571528524,-88.21134815297731" fill="green" fill-opacity="0.6" stroke="black" stroke-width="1" />
<path d="M-2.224975301179012,89.60439555487625 L-2.3374035571528524,88.21134815297731 L-3.1596937036066732,87.22070728924598" fill="red" fill-opacity="0.6" stroke="black" stroke-width="1" />
<path d="M-2.224975301179012,-10.395604445123759 L-2.3374035571528524,-11.788651847022685 L-3.1596937036066732,-12.779292710754019" fill="green" fill-opacity="0.6" stroke="black" stroke-width="1" />
<path d="M-2.224975301179012,10.395604445123752 L-2.3374035571528524,11.788651847022692 L-3.1596937036066732,12.77929271075402" fill="black" fill-opacity="0.6" stroke="black" stroke-width="1" />
<path d="M-2.224975301179012,-89.60439555487625 L-2.3374035571528524,-88.21134815297731 L-3.1596937036066732,-87.22070728924598" fill="yellow" fill-opacity="0.6" stroke="black" stroke-width="1" />
<path d="M-2.3374035571528524,88.21134815297731 L-3.1596937036066732,87.22070728924598 L0.0,85.0" fill="green" fill-opacity="0.6" stroke="black" stroke-width="1" />
<path d="M-2.3374035571528524,-11.788651847022685 L-3.1596937036066732,-12.779292710754019 L0.0,-15.0" fill="brown" fill-opacity="0.6" stroke="black" stroke-width="1" />
<path d="M-2.3374035571528524,11.788651847022692 L-3.1596937036066732,12.77929271075402 L0.0,15.0" fill="pink" fill-opacity="0.6" stroke="black" stroke-width="1" />
<path d="M-2.3374035571528524,-88.21134815297731 L-3.1596937036066732,-87.22070728924598 L0.0,-85.0" fill="pink" fill-opacity="0.6" stroke="black" stroke-width="1" />
<path d="M0.0,85.0 L-7.12242512486771,79.79853538636443 L-7.783640212370802,75.20538660995777" fill="red" fill-opacity="0.6" stroke="black" stroke-width="1" />
<path d="M0.0,-15.0 L-7.12242512486771,-20.201464613635565 L-7.783640212370802,-24.794613390042223" fill="black" fill-opacity="0.6" stroke="black" stroke-width="1" />
<path d="M0.0,15.0 L-7.12242512486771,20.201464613635565 L-7.783640212370802,24.79461339004223" fill="orange" fill-opacity="0.6" stroke="black" stroke-width="1" />
<path d="M0.0,-85.0 L-7.12242512486771,-79.79853538636443 L-7.783640212370802,-75.20538660995777" fill="orange" fill-opacity="0.6" stroke="black" stroke-width="1" />
<path d="M-7.12242512486771,79.79853538636443 L-7.783640212370802,75.20538660995777 L0.0,75.0" fill="blue" fill-opacity="0.6" stroke="black" stroke-width="1" />
<path d="M-7.12242512486771,-20.201464613635565 L-7.783640212370802,-24.794613390042223 L0.0,-25.0" fill="pink" fill-opacity="0.6" stroke="black" stroke-width="1" />
<path d="M-7.12242512486771,20.201464613635565 L-7.783640212370802,24.79461339004223 L0.0,25.0" fill="orange" fill-opacity="0.6" stroke="black" stroke-width="1" />
<path d="M-7.12242512486771,-79.79853538636443 L-7.783640212370802,-75.20538660995777 L0.0,-75.0" fill="black" fill-opacity="0.6" stroke="black" stroke-width="1" />
<path d="M0.0,75.0 L-8.04220491275069,74.0334222879764 L0.0,72.0" fill="brown" fill-opacity="0.6" stroke="black" stroke-width="1" />
<path d="M0.0,-25.0 L-8.04220491275069,-25.966577712023597 L0.0,-28.0" fill="brown" fill-opacity="0.6" stroke="black" stroke-width="1" />
<path d="M0.0,25.0 L-8.04220491275069,25.966577712023593 L0.0,28.0" fill="orange" fill-opacity="0.6" stroke="black" stroke-width="1" />
<path d="M0.0,-75.0 L-8.04220491275069,-74.0334222879764 L0.0,-72.0" fill="orange" fill-opacity="0.6" stroke="black" stroke-width="1" />
<path d="M0.0,72.0 L-10.03371281126081,62.34701892738235 L0.0,50.0" fill="black" fill-opacity="0.6" stroke="black" stroke-width="1" />
<path d="M0.0,-28.0 L-10.03371281126081,-37.65298107261765 L0.0,-50.0" fill="blue" fill-opacity="0.6" stroke="black" stroke-width="1" />
<path d="M0.0,28.0 L-10.03371281126081,37.65298107261765 L0.0,50.0" fill="orange" fill-opacity="0.6" stroke="black" stroke-width="1" />
<path d="M0.0,-72.0 L-10.03371281126081,-62.34701892738235 L0.0,-50.0" fill="orange" fill-opacity="0.6" stroke="black" stroke-width="1" />
<path d="M-8.0,50.0 L-12.917823667765077,62.28935926170051 L-13.082769752289211,61.557323399350416" fill="yellow" fill-opacity="0.6" stroke="black" stroke-width="1" />
<path d="M-8.0,-50.0 L-12.917823667765077,-37.71064073829949 L-13.082769752289211,-38.442676600649584" fill="red" fill-opacity="0.6" stroke="black" stroke-width="1" />
<path d="M-8.0,50.0 L-12.917823667765077,37.71064073829949 L-13.082769752289211,38.442676600649584" fill="red" fill-opacity="0.6" stroke="black" stroke-width="1" />
<path d="M-8.0,-50.0 L-12.917823667765077,-62.28935926170051 L-13.082769752289211,-61.557323399350416" fill="orange" fill-opacity="0.6" stroke="black" stroke-width="1" />
<path d="M-12.917823667765077,62.28935926170051 L-13.082769752289211,61.557323399350416 L-15.112954197073464,58.592634578786864" fill="brown" fill-opacity="0.6" stroke="black" stroke-width="1" />
<path d="M-12.917823667765077,-37.71064073829949 L-13.082769752289211,-38.442676600649584 L-15.112954197073464,-41.407365421213136" fill="brown" fill-opacity="0.6" stroke="black" stroke-width="1" />
<path d="M-12.917823667765077,37.71064073829949 L-13.082769752289211,38.442676600649584 L-15.112954197073464,41.407365421213136" fill="pink" fill-opacity="0.6" stroke="black" stroke-width="1" />
<path d="M-12.917823667765077,-62.28935926170051 L-13.082769752289211,-61.557323399350416 L-15.112954197073464,-58.592634578786864" fill="yellow" fill-opacity="0.6" stroke="black" stroke-width="1" />
<path d="M-13.082769752289211,61.557323399350416 L-15.112954197073464,58.592634578786864 L-15.762130268553436,56.48105434541712" fill="orange" fill-opacity="0.6" stroke="black" stroke-width="1" />
<path d="M-13.082769752289211,-38.442676600649584 L-15.112954197073464,-41.407365421213136 L-15.762130268553436,-43.51894565458288" fill="red" fill-opacity="0.6" stroke="black" stroke-width="1" />
<path d="M-13.082769752289211,38.442676600649584 L-15.112954197073464,41.407365421213136 L-15.762130268553436,43.51894565458288" fill="black" fill-opacity="0.6" stroke="black" stroke-width="1" />
<path d="M-13.082769752289211,-61.557323399350416 L-15.112954197073464,-58.592634578786864 L-15.762130268553436,-56.48105434541712" fill="orange" fill-opacity="0.6" stroke="black" stroke-width="1" />
<path d="M-15.112954197073464,58.592634578786864 L-15.762130268553436,56.48105434541712 L-19.14367871266447,51.95039069856383" fill="red" fill-opacity="0.6" stroke="black" stroke-width="1" />
<path d="M-15.112954197073464,-41.407365421213136 L-15.762130268553436,-43.51894565458288 L-19.14367871266447,-48.04960930143617" fill="blue" fill-opacity="0.6" stroke="black" stroke-width="1" />
<path d="M-15.112954197073464,41.407365421213136 L-15.762130268553436,43.51894565458288 L-19.14367871266447,48.04960930143617" fill="purple" fill-opacity="0.6" stroke="black" stroke-width="1" />
<path d="M-15.112954197073464,-58.592634578786864 L-15.762130268553436,-56.48105434541712 L-19.14367871266447,-51.95039069856383" fill="blue" fill-opacity="0.6" stroke="black" stroke-width="1" />
<path d="M-15.762130268553436,56.48105434541712 L-19.14367871266447,51.95039069856383 L-24.213093827115546,51.76289246424762" fill="yellow" fill-opacity="0.6" stroke="black" stroke-width="1" />
<path d="M-15.762130268553436,-43.51894565458288 L-19.14367871266447,-48.04960930143617 L-24.213093827115546,-48.23710753575238" fill="green" fill-opacity="0.6" stroke="black" stroke-width="1" />
<path d="M-15.762130268553436,43.51894565458288 L-19.14367871266447,48.04960930143617 L-24.213093827115546,48.23710753575238" fill="blue" fill-opacity="0.6" stroke="black" stroke-width="1" />
<path d="M-15.762130268553436,-56.48105434541712 L-19.14367871266447,-51.95039069856383 L-24.213093827115546,-51.76289246424762" fill="yellow" fill-opacity="0.6" stroke="black" stroke-width="1" />
<path d="M-19.14367871266447,51.95039069856383 L-24.213093827115546,51.76289246424762 L-36.0,50.0" fill="red" fill-opacity="0.6" stroke="black" stroke-width="1" />
<path d="M-19.14367871266447,-48.04960930143617 L-24.213093827115546,-48.23710753575238 L-36.0,-50.0" fill="orange" fill-opacity="0.6" stroke="black" stroke-width="1" />
<path d="M-19.14367871266447,48.04960930143617 L-24.213093827115546,48.23710753575238 L-36.0,50.0" fill="orange" fill-opacity="0.6" stroke="black" stroke-width="1" />
<path d="M-19.14367871266447,-51.95039069856383 L-24.213093827115546,-51.76289246424762 L-36.0,-50.0" fill="blue" fill-opacity="0.6" stroke="black" stroke-width="1" />
<path d="M-36.0,50.0 L-39.91070999212849,51.25811212106963 L-47.0,50.0" fill="green" fill-opacity="0.6" stroke="black" stroke-width="1" />
<path d="M-36.0,-50.0 L-39.91070999212849,-48.74188787893037 L-47.0,-50.0" fill="green" fill-opacity="0.6" stroke="black" stroke-width="1" />
<path d="M-36.0,50.0 L-39.91070999212849,48.74188787893037 L-47.0,50.0" fill="purple" fill-opacity="0.6" stroke="black" stroke-width="1" />
<path d="M-36.0,-50.0 L-39.91070999212849,-51.25811212106963 L-47.0,-50.0" fill="orange" fill-opacity="0.6" stroke="black" stroke-width="1" />
<path d="M-14.0,86.0 L-6.528164603315489,86.07126868327006 L-2.1901118974089444,90.46735697473257" fill="blue" fill-opacity="0.6" stroke="black" stroke-width="1" />
<path d="M-14.0,-14.0 L-6.528164603315489,-13.928731316729932 L-2.1901118974089444,-9.532643025267435" fill="black" fill-opacity="0.6" stroke="black" stroke-width="1" />
<path d="M-14.0,14.0 L-6.528164603315489,13.928731316729937 L-2.1901118974089444,9.532643025267433" fill="green" fill-opacity="0.6" stroke="black" stroke-width="1" />
<path d="M-14.0,-86.0 L-6.528164603315489,-86.07126868327006 L-2.1901118974089444,-90.46735697473257" fill="purple" fill-opacity="0.6" stroke="black" stroke-width="1" />
<path d="M-6.528164603315489,86.07126868327006 L-2.1901118974089444,90.46735697473257 L-1.9279439292867102,90.83516467747982" fill="yellow" fill-opacity="0.6" stroke="black" stroke-width="1" />
<path d="M-6.528164603315489,-13.928731316729932 L-2.1901118974089444,-9.532643025267435 L-1.9279439292867102,-9.164835322520181" fill="brown" fill-opacity="0.6" stroke="black" stroke-width="1" />
<path d="M-6.528164603315489,13.928731316729937 L-2.1901118974089444,9.532643025267433 L-1.9279439292867102,9.164835322520176" fill="brown" fill-opacity="0.6" stroke="black" stroke-width="1" />
<path d="M-6.528164603315489,-86.07126868327006 L-2.1901118974089444,-90.46735697473257 L-1.9279439292867102,-90.83516467747981" fill="blue" fill-opacity="0.6" stroke="black" stroke-width="1" />
<path d="M-2.1901118974089444,90.46735697473257 L-1.9279439292867102,90.83516467747982 L-1.3680633154244761,93.68744838779092" fill="orange" fill-opacity="0.6" stroke="black" stroke-width="1" />
<path d="M-2.1901118974089444,-9.532643025267435 L-1.9279439292867102,-9.164835322520181 L-1.3680633154244761,-6.312551612209083" fill="brown" fill-opacity="0.6" stroke="black" stroke-width="1" />
<path d="M-2.1901118974089444,9.532643025267433 L-1.9279439292867102,9.164835322520176 L-1.3680633154244761,6.312551612209077" fill="pink" fill-opacity="0.6" stroke="black" stroke-width="1" />
<path d="M-2.1901118974089444,-90.46735697473257 L-1.9279439292867102,-90.83516467747981 L-1.3680633154244761,-93.68744838779091" fill="red" fill-opacity="0.6" stroke="black" stroke-width="1" />
<path d="M-1.9279439292867102,90.83516467747982 L-1.3680633154244761,93.68744838779092 L-6.0,94.0" fill="black" fill-opacity="0.6" stroke="black" stroke-width="1" />
<path d="M-1.9279439292867102,-9.164835322520181 L-1.3680633154244761,-6.312551612209083 L-6.0,-6.0" fill="yellow" fill-opacity="0.6" stroke="black" stroke-width="1" />
<path d="M-1.9279439292867102,9.164835322520176 L-1.3680633154244761,6.312551612209077 L-6.0,6.0" fill="purple" fill-opacity="0.6" stroke="black" stroke-width="1" />
<path d="M-1.9279439292867102,-90.83516467747981 L-1.3680633154244761,-93.68744838779091 L-6.0,-94.0" fill="red" fill-opacity="0.6" stroke="black" stroke-width="1" />
<path d="M-6.0,94.0 L-1.177696310174492,95.60827285961598 L-0.4138807639109135,96.83852781038499" fill="purple" fill-opacity="0.6" stroke="black" stroke-width="1" />
<path d="M-6.0,-6.0 L-1.177696310174492,-4.391727140384017 L-0.4138807639109135,-3.1614721896150053" fill="orange" fill-opacity="0.6" stroke="black" stroke-width="1" />
<path d="M-6.0,6.0 L-1.177696310174492,4.39172714038402 L-0.4138807639109135,3.1614721896150115" fill="brown" fill-opacity="0.6" stroke="black" stroke-width="1" />
<path d="M-6.0,-94.0 L-1.177696310174492,-95.60827285961598 L-0.4138807639109135,-96.83852781038499" fill="green" fill-opacity="0.6" stroke="black" stroke-width="1" />
<path d="M-1.177696310174492,95.60827285961598 L-0.4138807639109135,96.83852781038499 L0.0,100.0" fill="red" fill-opacity="0.6" stroke="black" stroke-width="1" />
<path d="M-1.177696310174492,-4.391727140384017 L-0.4138807639109135,-3.1614721896150053 L0.0,-0.0" fill="red" fill-opacity="0.6" stroke="black" stroke-width="1" />
<path d="M-1.177696310174492,4.39172714038402 L-0.4138807639109135,3.1614721896150115 L0.0,-0.0" fill="red" fill-opacity="0.6" stroke="black" stroke-width="1" />
<path d="M-1.177696310174492,-95.60827285961598 L-0.4138807639109135,-96.83852781038499 L0.0,-100.0" fill="brown" fill-opacity="0.6" stroke="black" stroke-width="1" />
<path d="M-93.68744838779091,-1.3680633154244761 L-94.0,-6.0 L-95.60827285961598,-1.177696310174492" fill="pink" fill-opacity="0.6" stroke="black" stroke-width="1" />
<path d="M-93.68744838779091,1.3680633154244761 L-94.0,6.0 L-95.60827285961598,1.177696310174492" fill="red" fill-opacity="0.6" stroke="black" stroke-width="1" />
<path d="M-94.0,-0.0 L-89.60439555487625,-2.224975301179012 L-88.21134815297731,-2.3374035571528524" fill="green" fill-opacity="0.6" stroke="black" stroke-width="1" />
<path d="M-94.0,-0.0 L-89.60439555487625,2.224975301179012 L-88.21134815297731,2.3374035571528524" fill="green" fill-opacity="0.6" stroke="black" stroke-width="1" />
<path d="M-89.60439555487625,-2.224975301179012 L-88.21134815297731,-2.3374035571528524 L-87.22070728924598,-3.1596937036066732" fill="blue" fill-opacity="0.6" stroke="black" stroke-width="1" />
<path d="M-89.60439555487625,2.224975301179012 L-88.21134815297731,2.3374035571528524 L-87.22070728924598,3.1596937036066732" fill="purple" fill-opacity="0.6" stroke="black" stroke-width="1" />
<path d="M-88.21134815297731,-2.3374035571528524 L-87.22070728924598,-3.1596937036066732 L-85.0,-0.0" fill="black" fill-opacity="0.6" stroke="black" stroke-width="1" />
<path d="M-88.21134815297731,2.3374035571528524 L-87.22070728924598,3.1596937036066732 L-85.0,-0.0" fill="black" fill-opacity="0.6" stroke="black" stroke-width="1" />
<path d="M-85.0,-0.0 L-79.79853538636443,-7.12242512486771 L-75.20538660995777,-7.783640212370802" fill="purple" fill-opacity="0.6" stroke="black" stroke-width="1" />
<path d="M-85.0,-0.0 L-79.79853538636443,7.12242512486771 L-75.20538660995777,7.783640212370802" fill="green" fill-opacity="0.6" stroke="black" stroke-width="1" />
<path d="M-79.79853538636443,-7.12242512486771 L-75.20538660995777,-7.783640212370802 L-75.0,-0.0" fill="black" fill-opacity="0.6" stroke="black" stroke-width="1" />
<path d="M-79.79853538636443,7.12242512486771 L-75.20538660995777,7.783640212370802 L-75.0,-0.0" fill="yellow" fill-opacity="0.6" stroke="black" stroke-width="1" />
<path d="M-75.0,-0.0 L-74.0334222879764,-8.04220491275069 L-72.0,-0.0" fill="red" fill-opacity="0.6" stroke="black" stroke-width="1" />
<path d="M-75.0,-0.0 L-74.0334222879764,8.04220491275069 L-72.0,-0.0" fill="yellow" fill-opacity="0.6" stroke="black" stroke-width="1" />
<path d="M-72.0,-0.0 L-62.34701892738235,-10.03371281126081 L-50.0,-0.0" fill="orange" fill-opacity="0.6" stroke="black" stroke-width="1" />
<path d="M-72.0,-0.0 L-62.34701892738235,10.03371281126081 L-50.0,-0.0" fill="brown" fill-opacity="0.6" stroke="black" stroke-width="1" />
<path d="M-50.0,-8.0 L-62.28935926170051,-12.917823667765077 L-61.557323399350416,-13.082769752289211" fill="yellow" fill-opacity="0.6" stroke="black" stroke-width="1" />
<path d="M-50.0,8.0 L-62.28935926170051,12.917823667765077 L-61.557323399350416,13.082769752289211" fill="purple" fill-opacity="0.6" stroke="black" stroke-width="1" />
<path d="M-62.28935926170051,-12.917823667765077 L-61.557323399350416,-13.082769752289211 L-58.592634578786864,-15.112954197073464" fill="green" fill-opacity="0.6" stroke="black" stroke-width="1" />
<path d="M-62.28935926170051,12.917823667765077 L-61.557323399350416,13.082769752289211 L-58.592634578786864,15.112954197073464" fill="pink" fill-opacity="0.6" stroke="black" stroke-width="1" />
<path d="M-61.557323399350416,-13.082769752289211 L-58.592634578786864,-15.112954197073464 L-56.48105434541712,-15.762130268553436" fill="red" fill-opacity="0.6" stroke="black" stroke-width="1" />
<path d="M-61.557323399350416,13.082769752289211 L-58.592634578786864,15.112954197073464 L-56.48105434541712,15.762130268553436" fill="pink" fill-opacity="0.6" stroke="black" stroke-width="1" />
<path d="M-58.592634578786864,-15.112954197073464 L-56.48105434541712,-15.762130268553436 L-51.95039069856383,-19.14367871266447" fill="black" fill-opacity="0.6" stroke="black" stroke-width="1" />
<path d="M-58.592634578786864,15.112954197073464 L-56.48105434541712,15.762130268553436 L-51.95039069856383,19.14367871266447" fill="black" fill-opacity="0.6" stroke="black" stroke-width="1" />
<path d="M-56.48105434541712,-15.762130268553436 L-51.95039069856383,-19.14367871266447 L-51.76289246424762,-24.213093827115546" fill="pink" fill-opacity="0.6" stroke="black" stroke-width="1" />
<path d="M-56.48105434541712,15.762130268553436 L-51.95039069856383,19.14367871266447 L-51.76289246424762,24.213093827115546" fill="brown" fill-opacity="0.6" stroke="black" stroke-width="1" />
<path d="M-51.95039069856383,-19.14367871266447 L-51.76289246424762,-24.213093827115546 L-50.0,-36.0" fill="purple" fill-opacity="0.6" stroke="black" stroke-width="1" />
<path d="M-51.95039069856383,19.14367871266447 L-51.76289246424762,24.213093827115546 L-50.0,36.0" fill="orange" fill-opacity="0.6" stroke="black" stroke-width="1" />
<path d="M-50.0,-36.0 L-51.25811212106963,-39.91070999212849 L-50.0,-47.0" fill="orange" fill-opacity="0.6" stroke="black" stroke-width="1" />
<path d="M-50.0,36.0 L-51.25811212106963,39.91070999212849 L-50.0,47.0" fill="blue" fill-opacity="0.6" stroke="black" stroke-width="1" />
<path d="M-50.0,-50.0 L-53.0,-47.0 L-76.0,-24.0" fill="black" fill-opacity="0.6" stroke="black" stroke-width="1" />
<path d="M-50.0,50.0 L-53.0,47.0 L-76.0,24.0" fill="blue" fill-opacity="0.6" stroke="black" stroke-width="1" />
<path d="M-53.0,-47.0 L-76.0,-24.0 L-82.0,-18.0" fill="red" fill-opacity="0.6" stroke="black" stroke-width="1" />
<path d="M-53.0,47.0 L-76.0,24.0 L-82.0,18.0" fill="black" fill-opacity="0.6" stroke="black" stroke-width="1" />
<path d="M-76.0,-24.0 L-82.0,-18.0 L-86.0,-14.0" fill="pink" fill-opacity="0.6" stroke="black" stroke-width="1" />
<path d="M-76.0,24.0 L-82.0,18.0 L-86.0,14.0" fill="brown" fill-opacity="0.6" stroke="black" stroke-width="1" />
<path d="M-82.0,-18.0 L-86.0,-14.0 L-86.07126868327006,-6.528164603315489" fill="brown" fill-opacity="0.6" stroke="black" stroke-width="1" />
<path d="M-82.0,18.0 L-86.0,14.0 L-86.07126868327006,6.528164603315489" fill="black" fill-opacity="0.6" stroke="black" stroke-width="1" />
<path d="M-86.0,-14.0 L-86.07126868327006,-6.528164603315489 L-90.46735697473257,-2.1901118974089444" fill="red" fill-opacity="0.6" stroke="black" stroke-width="1" />
<path d="M-86.0,14.0 L-86.07126868327006,6.528164603315489 L-90.46735697473257,2.1901118974089444" fill="yellow" fill-opacity="0.6" stroke="black" stroke-width="1" />
<path d="M-86.07126868327006,-6.528164603315489 L-90.46735697473257,-2.1901118974089444 L-90.83516467747981,-1.9279439292867102" fill="purple" fill-opacity="0.6" stroke="black" stroke-width="1" />
<path d="M-86.07126868327006,6.528164603315489 L-90.46735697473257,2.1901118974089444 L-90.83516467747981,1.9279439292867102" fill="red" fill-opacity="0.6" stroke="black" stroke-width="1" />
<path d="M-90.46735697473257,-2.1901118974089444 L-90.83516467747981,-1.9279439292867102 L-93.68744838779091,-1.3680633154244761" fill="black" fill-opacity="0.6" stroke="black" stroke-width="1" />
<path d="M-90.46735697473257,2.1901118974089444 L-90.83516467747981,1.9279439292867102 L-93.68744838779091,1.3680633154244761" fill="blue" fill-opacity="0.6" stroke="black" stroke-width="1" />
<path d="M-90.83516467747981,-1.9279439292867102 L-93.68744838779091,-1.3680633154244761 L-94.0,-6.0" fill="blue" fill-opacity="0.6" stroke="black" stroke-width="1" />
<path d="M-90.83516467747981,1.9279439292867102 L-93.68744838779091,1.3680633154244761 L-94.0,6.0" fill="red" fill-opacity="0.6" stroke="black" stroke-width="1" />
<path d="M-94.0,-6.0 L-95.60827285961598,-1.177696310174492 L-96.83852781038499,-0.4138807639109135" fill="blue" fill-opacity="0.6" stroke="black" stroke-width="1" />
<path d="M-94.0,6.0 L-95.60827285961598,1.177696310174492 L-96.83852781038499,0.4138807639109135" fill="green" fill-opacity="0.6" stroke="black" stroke-width="1" />
<path d="M-95.60827285961598,-1.177696310174492 L-96.83852781038499,-0.4138807639109135 L-100.0,-0.0" fill="yellow" fill-opacity="0.6" stroke="black" stroke-width="1" />
<path d="M-95.60827285961598,1.177696310174492 L-96.83852781038499,0.4138807639109135 L-100.0,-0.0" fill="green" fill-opacity="0.6" stroke="black" stroke-width="1" />
</svg>