<?xml version="1.0" encoding="UTF-8"?>
<svg xmlns="http://www.w3.org/2000/svg" xmlns:xlink="http://www.w3.org/1999/xlink"
     width="250" height="250" viewBox="-125.0 -125.0 250 250">
<defs>
</defs>
<path d="M22.0,78.0 L8.0,92.0 L1.2110095320648244,92.03988019267027" fill="black" fill-opacity="0.6" stroke="black" stroke-width="1" />
<path d="M22.0,-78.0 L8.0,-92.0 L1.2110095320648244,-92.03988019267027" fill="brown" fill-opacity="0.6" stroke="black" stroke-width="1" />
<path d="M12.0,-0.0 L12.697678139751494,-1.4149065307391044 L14.049595402958463,-1.7625773040979231" fill="green" fill-opacity="0.6" stroke="black" stroke-width="1" />
<path d="M12.0,-0.0 L12.697678139751494,1.4149065307391044 L14.049595402958463,1.7625773040979231" fill="blue" fill-opacity="0.6" stroke="black" stroke-width="1" />
<path d="M12.697678139751494,-1.4149065307391044 L14.049595402958463,-1.7625773040979231 L15.704839938072007,-5.8679687946658206" fill="pink" fill-opacity="0.6" stroke="black" stroke-width="1" />
<path d="M12.697678139751494,1.4149065307391044 L14.049595402958463,1.7625773040979231 L15.704839938072007,5.8679687946658206" fill="green" fill-opacity="0.6" stroke="black" stroke-width="1" />
<path d="M14.049595402958463,-1.7625773040979231 L15.704839938072007,-5.8679687946658206 L16.015291877436145,-6.283705421446223" fill="purple" fill-opacity="0.6" stroke="black" stroke-width="1" />
<path d="M14.049595402958463,1.7625773040979231 L15.704839938072007,5.8679687946658206 L16.015291877436145,6.283705421446223" fill="orange" fill-opacity="0.6" stroke="black" stroke-width="1" />
<path d="M15.704839938072007,-5.8679687946658206 L16.015291877436145,-6.283705421446223 L19.071481831507807,-6.501361823670945" fill="blue" fill-opacity="0.6" stroke="black" stroke-width="1" />
<path d="M15.704839938072007,5.8679687946658206 L16.015291877436145,6.283705421446223 L19.071481831507807,6.501361823670945" fill="blue" fill-opacity="0.6" stroke="black" stroke-width="1" />
<path d="M16.015291877436145,-6.283705421446223 L19.071481831507807,-6.501361823670945 L19.338195370941413,-6.5406853377988154" fill="orange" fill-opacity="0.6" stroke="black" stroke-width="1" />
<path d="M16.015291877436145,6.283705421446223 L19.071481831507807,6.501361823670945 L19.338195370941413,6.5406853377988154" fill="brown" fill-opacity="0.6" stroke="black" stroke-width="1" />
<path d="M19.071481831507807,-6.501361823670945 L19.338195370941413,-6.5406853377988154 L22.937696795335626,-7.346866500715919" fill="green" fill-opacity="0.6" stroke="black" stroke-width="1" />
<path d="M19.071481831507807,6.501361823670945 L19.338195370941413,6.5406853377988154 L22.937696795335626,7.346866500715919" fill="brown" fill-opacity="0.6" stroke="black" stroke-width="1" />
<path d="M19.338195370941413,-6.5406853377988154 L22.937696795335626,-7.346866500715919 L24.514290939768152,-9.78370045605575" fill="green" fill-opacity="0.6" stroke="black" stroke-width="1" />
<path d="M19.338195370941413,6.5406853377988154 L22.937696795335626,7.346866500715919 L24.514290939768152,9.78370045605575" fill="pink" fill-opacity="0.6" stroke="black" stroke-width="1" />
<path d="M22.937696795335626,-7.346866500715919 L24.514290939768152,-9.78370045605575 L25.133047779094767,-10.54198421905877" fill="blue" fill-opacity="0.6" stroke="black" stroke-width="1" />
<path d="M22.937696795335626,7.346866500715919 L24.514290939768152,9.78370045605575 L25.133047779094767,10.54198421905877" fill="blue" fill-opacity="0.6" stroke="black" stroke-width="1" />
<path d="M24.514290939768152,-9.78370045605575 L25.133047779094767,-10.54198421905877 L28.301141900143516,-13.947698214213222" fill="brown" fill-opacity="0.6" stroke="black" stroke-width="1" />
<path d="M24.514290939768152,9.78370045605575 L25.133047779094767,10.54198421905877 L28.301141900143516,13.947698214213222" fill="yellow" fill-opacity="0.6" stroke="black" stroke-width="1" />
<path d="M25.133047779094767,-10.54198421905877 L28.301141900143516,-13.947698214213222 L50.0,-0.0" fill="pink" fill-opacity="0.6" stroke="black" stroke-width="1" />
<path d="M25.133047779094767,10.54198421905877 L28.301141900143516,13.947698214213222 L50.0,-0.0" fill="purple" fill-opacity="0.6" stroke="black" stroke-width="1" />
<path d="M50.0,-50.0 L30.99399862551848,-28.686711333932507 L29.48546481398098,-21.621100728078517" fill="red" fill-opacity="0.6" stroke="black" stroke-width="1" />
<path d="M50.0,50.0 L30.99399862551848,28.686711333932507 L29.48546481398098,21.621100728078517" fill="red" fill-opacity="0.6" stroke="black" stroke-width="1" />
<path d="M30.99399862551848,-28.686711333932507 L29.48546481398098,-21.621100728078517 L29.0,-29.0" fill="pink" fill-opacity="0.6" stroke="black" stroke-width="1" />
<path d="M30.99399862551848,28.686711333932507 L29.48546481398098,21.621100728078517 L29.0,29.0" fill="pink" fill-opacity="0.6" stroke="black" stroke-width="1" />
<path d="M21.621100728078517,70.51453518601902 L29.0,71.0 L28.0,72.0" fill="brown" fill-opacity="0.6" stroke="black" stroke-width="1" />
<path d="M21.621100728078517,-70.51453518601902 L29.0,-71.0 L28.0,-72.0" fill="red" fill-opacity="0.6" stroke="black" stroke-width="1" />
<path d="M29.0,71.0 L28.0,72.0 L27.0,73.0" fill="orange" fill-opacity="0.6" stroke="black" stroke-width="1" />
<path d="M29.0,-71.0 L28.0,-72.0 L27.0,-73.0" fill="pink" fill-opacity="0.6" stroke="black" stroke-width="1" />
<path d="M28.0,72.0 L27.0,73.0 L22.0,78.0" fill="orange" fill-opacity="0.6" stroke="black" stroke-width="1" />
<path d="M28.0,-72.0 L27.0,-73.0 L22.0,-78.0" fill="brown" fill-opacity="0.6" stroke="black" stroke-width="1" />
<path d="M27.0,73.0 L22.0,78.0 L8.0,92.0" fill="brown" fill-opacity="0.6" stroke="black" stroke-width="1" />
<path d="M27.0,-73.0 L22.0,-78.0 L8.0,-92.0" fill="brown" fill-opacity="0.6" stroke="black" stroke-width="1" />
<path d="M8.0,-8.0 L7.960119807329741,-1.2110095320648244 L4.958450737905478,-0.7846799385160873" fill="pink" fill-opacity="0.6" stroke="black" stroke-width="1" />
<path d="M8.0,8.0 L7.960119807329741,1.2110095320648244 L4.958450737905478,0.7846799385160873" fill="blue" fill-opacity="0.6" stroke="black" stroke-width="1" />
<path d="M7.960119807329741,-1.2110095320648244 L4.958450737905478,-0.7846799385160873 L1.2361469945472825,-0.27300751461186185" fill="green" fill-opacity="0.6" stroke="black" stroke-width="1" />
<path d="M7.960119807329741,1.2110095320648244 L4.958450737905478,0.7846799385160873 L1.2361469945472825,0.27300751461186185" fill="yellow" fill-opacity="0.6" stroke="black" stroke-width="1" />
<path d="M4.958450737905478,-0.7846799385160873 L1.2361469945472825,-0.27300751461186185 L0.817399816645753,-0.12005161391853286" fill="green" fill-opacity="0.6" stroke="black" stroke-width="1" />
<path d="M4.958450737905478,0.7846799385160873 L1.2361469945472825,0.27300751461186185 L0.817399816645753,0.12005161391853286" fill="black" fill-opacity="0.6" stroke="black" stroke-width="1" />
<path d="M1.2361469945472825,-0.27300751461186185 L0.817399816645753,-0.12005161391853286 L0.0,-0.0" fill="orange" fill-opacity="0.6" stroke="black" stroke-width="1" />
<path d="M1.2361469945472825,0.27300751461186185 L0.817399816645753,0.12005161391853286 L0.0,-0.0" fill="pink" fill-opacity="0.6" stroke="black" stroke-width="1" />
<path d="M-22.0,78.0 L-8.0,92.0 L-1.2110095320648244,92.03988019267025" fill="blue" fill-opacity="0.6" stroke="black" stroke-width="1" />
<path d="M-22.0,-78.0 L-8.0,-92.0 L-1.2110095320648244,-92.03988019267027" fill="blue" fill-opacity="0.6" stroke="black" stroke-width="1" />
<path d="M-12.0,-0.0 L-12.697678139751494,-1.4149065307391044 L-14.049595402958463,-1.7625773040979231" fill="yellow" fill-opacity="0.6" stroke="black" stroke-width="1" />
<path d="M-12.0,-0.0 L-12.697678139751494,1.4149065307391044 L-14.049595402958463,1.7625773040979231" fill="brown" fill-opacity="0.6" stroke="black" stroke-width="1" />
<path d="M-12.697678139751494,-1.4149065307391044 L-14.049595402958463,-1.7625773040979231 L-15.704839938072007,-5.8679687946658206" fill="red" fill-opacity="0.6" stroke="black" stroke-width="1" />
<path d="M-12.697678139751494,1.4149065307391044 L-14.049595402958463,1.7625773040979231 L-15.704839938072007,5.8679687946658206" fill="blue" fill-opacity="0.6" stroke="black" stroke-width="1" />
<path d="M-14.049595402958463,-1.7625773040979231 L-15.704839938072007,-5.8679687946658206 L-16.015291877436145,-6.283705421446223" fill="green" fill-opacity="0.6" stroke="black" stroke-width="1" />
<path d="M-14.049595402958463,1.7625773040979231 L-15.704839938072007,5.8679687946658206 L-16.015291877436145,6.283705421446223" fill="yellow" fill-opacity="0.6" stroke="black" stroke-width="1" />
<path d="M-15.704839938072007,-5.8679687946658206 L-16.015291877436145,-6.283705421446223 L-19.071481831507807,-6.501361823670945" fill="blue" fill-opacity="0.6" stroke="black" stroke-width="1" />
<path d="M-15.704839938072007,5.8679687946658206 L-16.015291877436145,6.283705421446223 L-19.071481831507807,6.501361823670945" fill="green" fill-opacity="0.6" stroke="black" stroke-width="1" />
<path d="M-16.015291877436145,-6.283705421446223 L-19.071481831507807,-6.501361823670945 L-19.338195370941413,-6.5406853377988154" fill="brown" fill-opacity="0.6" stroke="black" stroke-width="1" />
<path d="M-16.015291877436145,6.283705421446223 L-19.071481831507807,6.501361823670945 L-19.338195370941413,6.5406853377988154" fill="blue" fill-opacity="0.6" stroke="black" stroke-width="1" />
<path d="M-19.071481831507807,-6.501361823670945 L-19.338195370941413,-6.5406853377988154 L-22.937696795335626,-7.346866500715919" fill="green" fill-opacity="0.6" stroke="black" stroke-width="1" />
<path d="M-19.071481831507807,6.501361823670945 L-19.338195370941413,6.5406853377988154 L-22.937696795335626,7.346866500715919" fill="green" fill-opacity="0.6" stroke="black" stroke-width="1" />
<path d="M-19.338195370941413,-6.5406853377988154 L-22.937696795335626,-7.346866500715919 L-24.514290939768152,-9.78370045605575" fill="blue" fill-opacity="0.6" stroke="black" stroke-width="1" />
<path d="M-19.338195370941413,6.5406853377988154 L-22.937696795335626,7.346866500715919 L-24.514290939768152,9.78370045605575" fill="purple" fill-opacity="0.6" stroke="black" stroke-width="1" />
<path d="M-22.937696795335626,-7.346866500715919 L-24.514290939768152,-9.78370045605575 L-25.133047779094767,-10.54198421905877" fill="blue" fill-opacity="0.6" stroke="black" stroke-width="1" />
<path d="M-22.937696795335626,7.346866500715919 L-24.514290939768152,9.78370045605575 L-25.133047779094767,10.54198421905877" fill="yellow" fill-opacity="0.6" stroke="black" stroke-width="1" />
<path d="M-24.514290939768152,-9.78370045605575 L-25.133047779094767,-10.54198421905877 L-28.301141900143516,-13.947698214213222" fill="orange" fill-opacity="0.6" stroke="black" stroke-width="1" />
<path d="M-24.514290939768152,9.78370045605575 L-25.133047779094767,10.54198421905877 L-28.301141900143516,13.947698214213222" fill="pink" fill-opacity="0.6" stroke="black" stroke-width="1" />
<path d="M-25.133047779094767,-10.54198421905877 L-28.301141900143516,-13.947698214213222 L-50.0,-0.0" fill="pink" fill-opacity="0.6" stroke="black" stroke-width="1" />
<path d="M-25.133047779094767,10.54198421905877 L-28.301141900143516,13.947698214213222 L-50.0,-0.0" fill="yellow" fill-opacity="0.6" stroke="black" stroke-width="1" />
<path d="M-50.0,-50.0 L-30.99399862551848,-28.686711333932507 L-29.48546481398098,-21.621100728078517" fill="yellow" fill-opacity="0.6" stroke="black" stroke-width="1" />
<path d="M-50.0,50.0 L-30.99399862551848,28.686711333932507 L-29.48546481398098,21.621100728078517" fill="blue" fill-opacity="0.6" stroke="black" stroke-width="1" />
<path d="M-30.99399862551848,-28.686711333932507 L-29.48546481398098,-21.621100728078517 L-29.0,-29.0" fill="blue" fill-opacity="0.6" stroke="black" stroke-width="1" />
<path d="M-30.99399862551848,28.686711333932507 L-29.48546481398098,21.621100728078517 L-29.0,29.0" fill="green" fill-opacity="0.6" stroke="black" stroke-width="1" />
<path d="M-21.621100728078517,70.51453518601902 L-29.0,71.0 L-28.0,72.0" fill="purple" fill-opacity="0.6" stroke="black" stroke-width="1" />
<path d="M-21.621100728078517,-70.51453518601902 L-29.0,-71.0 L-28.0,-72.0" fill="blue" fill-opacity="0.6" stroke="black" stroke-width="1" />
<path d="M-29.0,71.0 L-28.0,72.0 L-27.0,73.0" fill="blue" fill-opacity="0.6" stroke="black" stroke-width="1" />
<path d="M-29.0,-71.0 L-28.0,-72.0 L-27.0,-73.0" fill="orange" fill-opacity="0.6" stroke="black" stroke-width="1" />
<path d="M-28.0,72.0 L-27.0,73.0 L-22.0,78.0" fill="green" fill-opacity="0.6" stroke="black" stroke-width="1" />
<path d="M-28.0,-72.0 L-27.0,-73.0 L-22.0,-78.0" fill="pink" fill-opacity="0.6" stroke="black" stroke-width="1" />
<path d="M-27.0,73.0 L-22.0,78.0 L-8.0,92.0" fill="yellow" fill-opacity="0.6" stroke="black" stroke-width="1" />
<path d="M-27.0,-73.0 L-22.0,-78.0 L-8.0,-92.0" fill="black" fill-opacity="0.6" stroke="black" stroke-width="1" />
<path d="M-8.0,-8.0 L-7.960119807329741,-1.2110095320648244 L-4.958450737905478,-0.7846799385160873" fill="red" fill-opacity="0.6" stroke="black" stroke-width="1" />
<path d="M-8.0,8.0 L-7.960119807329741,1.2110095320648244 L-4.958450737905478,0.7846799385160873" fill="green" fill-opacity="0.6" stroke="black" stroke-width="1" />
<path d="M-7.960119807329741,-1.2110095320648244 L-4.958450737905478,-0.7846799385160873 L-1.2361469945472825,-0.27300751461186185" fill="black" fill-opacity="0.6" stroke="black" stroke-width="1" />
<path d="M-7.960119807329741,1.2110095320648244 L-4.958450737905478,0.7846799385160873 L-1.2361469945472825,0.27300751461186185" fill="green" fill-opacity="0.6" stroke="black" stroke-width="1" />
<path d="M-4.958450737905478,-0.7846799385160873 L-1.2361469945472825,-0.27300751461186185 L-0.817399816645753,-0.12005161391853286" fill="yellow" fill-opacity="0.6" stroke="black" stroke-width="1" />
<path d="M-4.958450737905478,0.7846799385160873 L-1.2361469945472825,0.27300751461186185 L-0.817399816645753,0.12005161391853286" fill="purple" fill-opacity="0.6" stroke="black" stroke-width="1" />
<path d="M-1.2361469945472825,-0.27300751461186185 L-0.817399816645753,-0.12005161391853286 L0.0,-0.0" fill="red" fill-opacity="0.6" stroke="black" stroke-width="1" />
<path d="M-1.2361469945472825,0.27300751461186185 L-0.817399816645753,0.12005161391853286 L0.0,-0.0" fill="blue" fill-opacity="0.6" stroke="black" stroke-width="1" />
<path d="M78.0,22.0 L92.0,8.0 L92.03988019267027,1.2110095320648244" fill="yellow" fill-opacity="0.6" stroke="black" stroke-width="1" />
<path d="M78.0,-22.0 L92.0,-8.0 L92.03988019267027,-1.2110095320648244" fill="black" fill-opacity="0.6" stroke="black" stroke-width="1" />
<path d="M88.0,-0.0 L87.3023218602485,1.4149065307391044 L85.95040459704154,1.7625773040979231" fill="blue" fill-opacity="0.6" stroke="black" stroke-width="1" />
<path d="M88.0,-0.0 L87.3023218602485,-1.4149065307391044 L85.95040459704154,-1.7625773040979231" fill="red" fill-opacity="0.6" stroke="black" stroke-width="1" />
<path d="M87.3023218602485,1.4149065307391044 L85.95040459704154,1.7625773040979231 L84.29516006192799,5.8679687946658206" fill="brown" fill-opacity="0.6" stroke="black" stroke-width="1" />
<path d="M87.3023218602485,-1.4149065307391044 L85.95040459704154,-1.7625773040979231 L84.29516006192799,-5.8679687946658206" fill="yellow" fill-opacity="0.6" stroke="black" stroke-width="1" />
<path d="M85.95040459704154,1.7625773040979231 L84.29516006192799,5.8679687946658206 L83.98470812256386,6.283705421446223" fill="blue" fill-opacity="0.6" stroke="black" stroke-width="1" />
<path d="M85.95040459704154,-1.7625773040979231 L84.29516006192799,-5.8679687946658206 L83.98470812256386,-6.283705421446223" fill="yellow" fill-opacity="0.6" stroke="black" stroke-width="1" />
<path d="M84.29516006192799,5.8679687946658206 L83.98470812256386,6.283705421446223 L80.92851816849219,6.501361823670945" fill="purple" fill-opacity="0.6" stroke="black" stroke-width="1" />
<path d="M84.29516006192799,-5.8679687946658206 L83.98470812256386,-6.283705421446223 L80.92851816849219,-6.501361823670945" fill="orange" fill-opacity="0.6" stroke="black" stroke-width="1" />
<path d="M83.98470812256386,6.283705421446223 L80.92851816849219,6.501361823670945 L80.6618046290586,6.5406853377988154" fill="pink" fill-opacity="0.6" stroke="black" stroke-width="1" />
<path d="M83.98470812256386,-6.283705421446223 L80.92851816849219,-6.501361823670945 L80.6618046290586,-6.5406853377988154" fill="black" fill-opacity="0.6" stroke="black" stroke-width="1" />
<path d="M80.92851816849219,6.501361823670945 L80.6618046290586,6.5406853377988154 L77.06230320466437,7.346866500715919" fill="purple" fill-opacity="0.6" stroke="black" stroke-width="1" />
<path d="M80.92851816849219,-6.501361823670945 L80.6618046290586,-6.5406853377988154 L77.06230320466437,-7.346866500715919" fill="green" fill-opacity="0.6" stroke="black" stroke-width="1" />
<path d="M80.6618046290586,6.5406853377988154 L77.06230320466437,7.346866500715919 L75.48570906023184,9.78370045605575" fill="red" fill-opacity="0.6" stroke="black" stroke-width="1" />
<path d="M80.6618046290586,-6.5406853377988154 L77.06230320466437,-7.346866500715919 L75.48570906023184,-9.78370045605575" fill="yellow" fill-opacity="0.6" stroke="black" stroke-width="1" />
<path d="M77.06230320466437,7.346866500715919 L75.48570906023184,9.78370045605575 L74.86695222090523,10.54198421905877" fill="red" fill-opacity="0.6" stroke="black" stroke-width="1" />
<path d="M77.06230320466437,-7.346866500715919 L75.48570906023184,-9.78370045605575 L74.86695222090523,-10.54198421905877" fill="brown" fill-opacity="0.6" stroke="black" stroke-width="1" />
<path d="M75.48570906023184,9.78370045605575 L74.86695222090523,10.54198421905877 L71.69885809985648,13.947698214213222" fill="green" fill-opacity="0.6" stroke="black" stroke-width="1" />
<path d="M75.48570906023184,-9.78370045605575 L74.86695222090523,-10.54198421905877 L71.69885809985648,-13.947698214213222" fill="pink" fill-opacity="0.6" stroke="black" stroke-width="1" />
<path d="M74.86695222090523,10.54198421905877 L71.69885809985648,13.947698214213222 L50.0,-0.0" fill="red" fill-opacity="0.6" stroke="black" stroke-width="1" />
<path d="M74.86695222090523,-10.54198421905877 L71.69885809985648,-13.947698214213222 L50.0,-0.0" fill="purple" fill-opacity="0.6" stroke="black" stroke-width="1" />
<path d="M50.0,50.0 L69.00600137448151,28.686711333932507 L70.51453518601902,21.621100728078517" fill="blue" fill-opacity="0.6" stroke="black" stroke-width="1" />
<path d="M50.0,-50.0 L69.00600137448151,-28.686711333932507 L70.51453518601902,-21.621100728078517" fill="brown" fill-opacity="0.6" stroke="black" stroke-width="1" />
<path d="M69.00600137448151,28.686711333932507 L70.51453518601902,21.621100728078517 L71.0,29.0" fill="brown" fill-opacity="0.6" stroke="black" stroke-width="1" />
<path d="M69.00600137448151,-28.686711333932507 L70.51453518601902,-21.621100728078517 L71.0,-29.0" fill="green" fill-opacity="0.6" stroke="black" stroke-width="1" />
<path d="M70.51453518601902,21.621100728078517 L71.0,29.0 L72.0,28.0" fill="black" fill-opacity="0.6" stroke="black" stroke-width="1" />
<path d="M70.51453518601902,-21.621100728078517 L71.0,-29.0 L72.0,-28.0" fill="blue" fill-opacity="0.6" stroke="black" stroke-width="1" />
<path d="M71.0,29.0 L72.0,28.0 L73.0,27.0" fill="brown" fill-opacity="0.6" stroke="black" stroke-width="1" />
<path d="M71.0,-29.0 L72.0,-28.0 L73.0,-27.0" fill="brown" fill-opacity="0.6" stroke="black" stroke-width="1" />
<path d="M72.0,28.0 L73.0,27.0 L78.0,22.0" fill="blue" fill-opacity="0.6" stroke="black" stroke-width="1" />
<path d="M72.0,-28.0 L73.0,-27.0 L78.0,-22.0" fill="red" fill-opacity="0.6" stroke="black" stroke-width="1" />
<path d="M73.0,27.0 L78.0,22.0 L92.0,8.0" fill="red" fill-opacity="0.6" stroke="black" stroke-width="1" />
<path d="M73.0,-27.0 L78.0,-22.0 L92.0,-8.0" fill="blue" fill-opacity="0.6" stroke="black" stroke-width="1" />
<path d="M92.0,8.0 L92.03988019267027,1.2110095320648244 L95.04154926209452,0.7846799385160873" fill="yellow" fill-opacity="0.6" stroke="black" stroke-width="1" />
<path d="M92.0,-8.0 L92.03988019267027,-1.2110095320648244 L95.04154926209452,-0.7846799385160873" fill="black" fill-opacity="0.6" stroke="black" stroke-width="1" />
<path d="M92.03988019267027,1.2110095320648244 L95.04154926209452,0.7846799385160873 L98.76385300545272,0.27300751461186185" fill="black" fill-opacity="0.6" stroke="black" stroke-width="1" />
<path d="M92.03988019267027,-1.2110095320648244 L95.04154926209452,-0.7846799385160873 L98.76385300545272,-0.27300751461186185" fill="blue" fill-opacity="0.6" stroke="black" stroke-width="1" />
<path d="M95.04154926209452,0.7846799385160873 L98.76385300545272,0.27300751461186185 L99.18260018335425,0.12005161391853286" fill="brown" fill-opacity="0.6" stroke="black" stroke-width="1" />
<path d="M95.04154926209452,-0.7846799385160873 L98.76385300545272,-0.27300751461186185 L99.18260018335425,-0.12005161391853286" fill="orange" fill-opacity="0.6" stroke="black" stroke-width="1" />
<path d="M98.76385300545272,0.27300751461186185 L99.18260018335425,0.12005161391853286 L100.0,-0.0" fill="orange" fill-opacity="0.6" stroke="black" stroke-width="1" />
<path d="M98.76385300545272,-0.27300751461186185 L99.18260018335425,-0.12005161391853286 L100.0,-0.0" fill="pink" fill-opacity="0.6" stroke="black" stroke-width="1" />
<path d="M0.0,-12.0 L1.4149065307391044,-12.697678139751494 L1.7625773040979231,-14.049595402958463" fill="black" fill-opacity="0.6" stroke="black" stroke-width="1" />
<path d="M0.0,12.0 L1.4149065307391044,12.697678139751494 L1.7625773040979231,14.049595402958463" fill="yellow" fill-opacity="0.6" stroke="black" stroke-width="1" />
<path d="M0.0,88.0 L1.4149065307391044,87.3023218602485 L1.7625773040979231,85.95040459704154" fill="pink" fill-opacity="0.6" stroke="black" stroke-width="1" />
<path d="M0.0,-88.0 L1.4149065307391044,-87.3023218602485 L1.7625773040979231,-85.95040459704154" fill="black" fill-opacity="0.6" stroke="black" stroke-width="1" />
<path d="M1.4149065307391044,-12.697678139751494 L1.7625773040979231,-14.049595402958463 L5.8679687946658206,-15.704839938072007" fill="blue" fill-opacity="0.6" stroke="black" stroke-width="1" />
<path d="M1.4149065307391044,12.697678139751494 L1.7625773040979231,14.049595402958463 L5.8679687946658206,15.704839938072007" fill="purple" fill-opacity="0.6" stroke="black" stroke-width="1" />
<path d="M1.4149065307391044,87.3023218602485 L1.7625773040979231,85.95040459704154 L5.8679687946658206,84.29516006192799" fill="purple" fill-opacity="0.6" stroke="black" stroke-width="1" />
<path d="M1.4149065307391044,-87.3023218602485 L1.7625773040979231,-85.95040459704154 L5.8679687946658206,-84.29516006192799" fill="black" fill-opacity="0.6" stroke="black" stroke-width="1" />
<path d="M1.7625773040979231,-14.049595402958463 L5.8679687946658206,-15.704839938072007 L6.283705421446223,-16.015291877436145" fill="brown" fill-opacity="0.6" stroke="black" stroke-width="1" />
<path d="M1.7625773040979231,14.049595402958463 L5.8679687946658206,15.704839938072007 L6.283705421446223,16.015291877436145" fill="purple" fill-opacity="0.6" stroke="black" stroke-width="1" />
<path d="M1.7625773040979231,85.95040459704154 L5.8679687946658206,84.29516006192799 L6.283705421446223,83.98470812256386" fill="yellow" fill-opacity="0.6" stroke="black" stroke-width="1" />
<path d="M1.7625773040979231,-85.95040459704154 L5.8679687946658206,-84.29516006192799 L6.283705421446223,-83.98470812256386" fill="pink" fill-opacity="0.6" stroke="black" stroke-width="1" />
<path d="M5.8679687946658206,-15.704839938072007 L6.283705421446223,-16.015291877436145 L6.501361823670945,-19.071481831507807" fill="brown" fill-opacity="0.6" stroke="black" stroke-width="1" />
<path d="M5.8679687946658206,15.704839938072007 L6.283705421446223,16.015291877436145 L6.501361823670945,19.071481831507807" fill="orange" fill-opacity="0.6" stroke="black" stroke-width="1" />
<path d="M5.8679687946658206,84.29516006192799 L6.283705421446223,83.98470812256386 L6.501361823670945,80.92851816849219" fill="green" fill-opacity="0.6" stroke="black" stroke-width="1" />
<path d="M5.8679687946658206,-84.29516006192799 L6.283705421446223,-83.98470812256386 L6.501361823670945,-80.92851816849219" fill="blue" fill-opacity="0.6" stroke="black" stroke-width="1" />
<path d="M6.283705421446223,-16.015291877436145 L6.501361823670945,-19.071481831507807 L6.5406853377988154,-19.338195370941413" fill="red" fill-opacity="0.6" stroke="black" stroke-width="1" />
<path d="M6.283705421446223,16.015291877436145 L6.501361823670945,19.071481831507807 L6.5406853377988154,19.338195370941413" fill="red" fill-opacity="0.6" stroke="black" stroke-width="1" />
<path d="M6.283705421446223,83.98470812256386 L6.501361823670945,80.92851816849219 L6.5406853377988154,80.6618046290586" fill="blue" fill-opacity="0.6" stroke="black" stroke-width="1" />
<path d="M6.283705421446223,-83.98470812256386 L6.501361823670945,-80.92851816849219 L6.5406853377988154,-80.6618046290586" fill="purple" fill-opacity="0.6" stroke="black" stroke-width="1" />
<path d="M6.501361823670945,-19.071481831507807 L6.5406853377988154,-19.338195370941413 L7.346866500715919,-22.937696795335626" fill="blue" fill-opacity="0.6" stroke="black" stroke-width="1" />
<path d="M6.501361823670945,19.071481831507807 L6.5406853377988154,19.338195370941413 L7.346866500715919,22.937696795335626" fill="green" fill-opacity="0.6" stroke="black" stroke-width="1" />
<path d="M6.501361823670945,80.92851816849219 L6.5406853377988154,80.6618046290586 L7.346866500715919,77.06230320466437" fill="purple" fill-opacity="0.6" stroke="black" stroke-width="1" />
<path d="M6.501361823670945,-80.92851816849219 L6.5406853377988154,-80.6618046290586 L7.346866500715919,-77.06230320466437" fill="brown" fill-opacity="0.6" stroke="black" stroke-width="1" />
<path d="M6.5406853377988154,-19.338195370941413 L7.346866500715919,-22.937696795335626 L9.78370045605575,-24.514290939768152" fill="red" fill-opacity="0.6" stroke="black" stroke-width="1" />
<path d="M6.5406853377988154,19.338195370941413 L7.346866500715919,22.937696795335626 L9.78370045605575,24.514290939768152" fill="brown" fill-opacity="0.6" stroke="black" stroke-width="1" />
<path d="M6.5406853377988154,80.6618046290586 L7.346866500715919,77.06230320466437 L9.78370045605575,75.48570906023184" fill="red" fill-opacity="0.6" stroke="black" stroke-width="1" />
<path d="M6.5406853377988154,-80.6618046290586 L7.346866500715919,-77.06230320466437 L9.78370045605575,-75.48570906023184" fill="purple" fill-opacity="0.6" stroke="black" stroke-width="1" />
<path d="M7.346866500715919,-22.937696795335626 L9.78370045605575,-24.514290939768152 L10.54198421905877,-25.133047779094767" fill="brown" fill-opacity="0.6" stroke="black" stroke-width="1" />
<path d="M7.346866500715919,22.937696795335626 L9.78370045605575,24.514290939768152 L10.54198421905877,25.133047779094767" fill="black" fill-opacity="0.6" stroke="black" stroke-width="1" />
<path d="M7.346866500715919,77.06230320466437 L9.78370045605575,75.48570906023184 L10.54198421905877,74.86695222090523" fill="purple" fill-opacity="0.6" stroke="black" stroke-width="1" />
<path d="M7.346866500715919,-77.06230320466437 L9.78370045605575,-75.48570906023184 L10.54198421905877,-74.86695222090523" fill="pink" fill-opacity="0.6" stroke="black" stroke-width="1" />
<path d="M9.78370045605575,-24.514290939768152 L10.54198421905877,-25.133047779094767 L13.947698214213222,-28.301141900143516" fill="yellow" fill-opacity="0.6" stroke="black" stroke-width="1" />
<path d="M9.78370045605575,24.514290939768152 L10.54198421905877,25.133047779094767 L13.947698214213222,28.301141900143516" fill="yellow" fill-opacity="0.6" stroke="black" stroke-width="1" />
<path d="M9.78370045605575,75.48570906023184 L10.54198421905877,74.86695222090523 L13.947698214213222,71.69885809985648" fill="orange" fill-opacity="0.6" stroke="black" stroke-width="1" />
<path d="M9.78370045605575,-75.48570906023184 L10.54198421905877,-74.86695222090523 L13.947698214213222,-71.69885809985648" fill="red" fill-opacity="0.6" stroke="black" stroke-width="1" />
<path d="M10.54198421905877,-25.133047779094767 L13.947698214213222,-28.301141900143516 L0.0,-50.0" fill="black" fill-opacity="0.6" stroke="black" stroke-width="1" />
<path d="M10.54198421905877,25.133047779094767 L13.947698214213222,28.301141900143516 L0.0,50.0" fill="brown" fill-opacity="0.6" stroke="black" stroke-width="1" />
<path d="M10.54198421905877,74.86695222090523 L13.947698214213222,71.69885809985648 L0.0,50.0" fill="purple" fill-opacity="0.6" stroke="black" stroke-width="1" />
<path d="M10.54198421905877,-74.86695222090523 L13.947698214213222,-71.69885809985648 L0.0,-50.0" fill="brown" fill-opacity="0.6" stroke="black" stroke-width="1" />
<path d="M50.0,-50.0 L28.686711333932507,-30.99399862551848 L21.621100728078517,-29.48546481398098" fill="yellow" fill-opacity="0.6" stroke="black" stroke-width="1" />
<path d="M50.0,50.0 L28.686711333932507,30.99399862551848 L21.621100728078517,29.48546481398098" fill="black" fill-opacity="0.6" stroke="black" stroke-width="1" />
<path d="M50.0,50.0 L28.686711333932507,69.00600137448151 L21.621100728078517,70.51453518601902" fill="blue" fill-opacity="0.6" stroke="black" stroke-width="1" />
<path d="M50.0,-50.0 L28.686711333932507,-69.00600137448151 L21.621100728078517,-70.51453518601902" fill="blue" fill-opacity="0.6" stroke="black" stroke-width="1" />
<path d="M28.686711333932507,-30.99399862551848 L21.621100728078517,-29.48546481398098 L29.0,-29.0" fill="green" fill-opacity="0.6" stroke="black" stroke-width="1" />
<path d="M28.686711333932507,30.99399862551848 L21.621100728078517,29.48546481398098 L29.0,29.0" fill="purple" fill-opacity="0.6" stroke="black" stroke-width="1" />
<path d="M28.686711333932507,69.00600137448151 L21.621100728078517,70.51453518601902 L29.0,71.0" fill="brown" fill-opacity="0.6" stroke="black" stroke-width="1" />
<path d="M28.686711333932507,-69.00600137448151 L21.621100728078517,-70.51453518601902 L29.0,-71.0" fill="green" fill-opacity="0.6" stroke="black" stroke-width="1" />
<path d="M8.0,-8.0 L1.2110095320648244,-7.960119807329741 L0.7846799385160873,-4.958450737905478" fill="yellow" fill-opacity="0.6" stroke="black" stroke-width="1" />
<path d="M8.0,8.0 L1.2110095320648244,7.960119807329741 L0.7846799385160873,4.958450737905478" fill="pink" fill-opacity="0.6" stroke="black" stroke-width="1" />
<path d="M8.0,92.0 L1.2110095320648244,92.03988019267027 L0.7846799385160873,95.04154926209452" fill="blue" fill-opacity="0.6" stroke="black" stroke-width="1" />
<path d="M8.0,-92.0 L1.2110095320648244,-92.03988019267027 L0.7846799385160873,-95.04154926209452" fill="green" fill-opacity="0.6" stroke="black" stroke-width="1" />
<path d="M1.2110095320648244,-7.960119807329741 L0.7846799385160873,-4.958450737905478 L0.27300751461186185,-1.2361469945472825" fill="yellow" fill-opacity="0.6" stroke="black" stroke-width="1" />
<path d="M1.2110095320648244,7.960119807329741 L0.7846799385160873,4.958450737905478 L0.27300751461186185,1.2361469945472825" fill="blue" fill-opacity="0.6" stroke="black" stroke-width="1" />
<path d="M1.2110095320648244,92.03988019267027 L0.7846799385160873,95.04154926209452 L0.27300751461186185,98.76385300545272" fill="blue" fill-opacity="0.6" stroke="black" stroke-width="1" />
<path d="M1.2110095320648244,-92.03988019267027 L0.7846799385160873,-95.04154926209452 L0.27300751461186185,-98.76385300545272" fill="pink" fill-opacity="0.6" stroke="black" stroke-width="1" />
<path d="M0.7846799385160873,-4.958450737905478 L0.27300751461186185,-1.2361469945472825 L0.12005161391853286,-0.817399816645753" fill="pink" fill-opacity="0.6" stroke="black" stroke-width="1" />
<path d="M0.7846799385160873,4.958450737905478 L0.27300751461186185,1.2361469945472825 L0.12005161391853286,0.817399816645753" fill="orange" fill-opacity="0.6" stroke="black" stroke-width="1" />
<path d="M0.7846799385160873,95.04154926209452 L0.27300751461186185,98.76385300545272 L0.12005161391853286,99.18260018335425" fill="yellow" fill-opacity="0.6" stroke="black" stroke-width="1" />
<path d="M0.7846799385160873,-95.04154926209452 L0.27300751461186185,-98.76385300545272 L0.12005161391853286,-99.18260018335425" fill="yellow" fill-opacity="0.6" stroke="black" stroke-width="1" />
<path d="M0.27300751461186185,-1.2361469945472825 L0.12005161391853286,-0.817399816645753 L0.0,-0.0" fill="black" fill-opacity="0.6" stroke="black" stroke-width="1" />
<path d="M0.27300751461186185,1.2361469945472825 L0.12005161391853286,0.817399816645753 L0.0,-0.0" fill="black" fill-opacity="0.6" stroke="black" stroke-width="1" />
<path d="M0.27300751461186185,98.76385300545272 L0.12005161391853286,99.18260018335425 L0.0,100.0" fill="pink" fill-opacity="0.6" stroke="black" stroke-width="1" />
<path d="M0.27300751461186185,-98.76385300545272 L0.12005161391853286,-99.18260018335425 L0.0,-100.0" fill="brown" fill-opacity="0.6" stroke="black" stroke-width="1" />
<path d="M0.0,88.0 L-1.4149065307391044,87.30232186024851 L-1.7625773040979231,85.95040459704154" fill="pink" fill-opacity="0.6" stroke="black" stroke-width="1" />
<path d="M0.0,-12.0 L-1.4149065307391044,-12.697678139751494 L-1.7625773040979231,-14.049595402958463" fill="brown" fill-opacity="0.6" stroke="black" stroke-width="1" />
<path d="M0.0,12.0 L-1.4149065307391044,12.697678139751488 L-1.7625773040979231,14.04959540295846" fill="green" fill-opacity="0.6" stroke="black" stroke-width="1" />
<path d="M0.0,-88.0 L-1.4149065307391044,-87.3023218602485 L-1.7625773040979231,-85.95040459704154" fill="red" fill-opacity="0.6" stroke="black" stroke-width="1" />
<path d="M-1.4149065307391044,87.30232186024851 L-1.7625773040979231,85.95040459704154 L-5.8679687946658206,84.29516006192799" fill="pink" fill-opacity="0.6" stroke="black" stroke-width="1" />
<path d="M-1.4149065307391044,-12.697678139751494 L-1.7625773040979231,-14.049595402958463 L-5.8679687946658206,-15.704839938072007" fill="red" fill-opacity="0.6" stroke="black" stroke-width="1" />
<path d="M-1.4149065307391044,12.697678139751488 L-1.7625773040979231,14.04959540295846 L-5.8679687946658206,15.704839938072013" fill="black" fill-opacity="0.6" stroke="black" stroke-width="1" />
<path d="M-1.4149065307391044,-87.3023218602485 L-1.7625773040979231,-85.95040459704154 L-5.8679687946658206,-84.29516006192799" fill="red" fill-opacity="0.6" stroke="black" stroke-width="1" />
<path d="M-1.7625773040979231,85.95040459704154 L-5.8679687946658206,84.29516006192799 L-6.283705421446223,83.98470812256386" fill="orange" fill-opacity="0.6" stroke="black" stroke-width="1" />
<path d="M-1.7625773040979231,-14.049595402958463 L-5.8679687946658206,-15.704839938072007 L-6.283705421446223,-16.015291877436145" fill="green" fill-opacity="0.6" stroke="black" stroke-width="1" />
<path d="M-1.7625773040979231,14.04959540295846 L-5.8679687946658206,15.704839938072013 L-6.283705421446223,16.01529187743614" fill="purple" fill-opacity="0.6" stroke="black" stroke-width="1" />
<path d="M-1.7625773040979231,-85.95040459704154 L-5.8679687946658206,-84.29516006192799 L-6.283705421446223,-83.98470812256386" fill="orange" fill-opacity="0.6" stroke="black" stroke-width="1" />
<path d="M-5.8679687946658206,84.29516006192799 L-6.283705421446223,83.98470812256386 L-6.501361823670945,80.92851816849219" fill="pink" fill-opacity="0.6" stroke="black" stroke-width="1" />
<path d="M-5.8679687946658206,-15.704839938072007 L-6.283705421446223,-16.015291877436145 L-6.501361823670945,-19.071481831507807" fill="brown" fill-opacity="0.6" stroke="black" stroke-width="1" />
<path d="M-5.8679687946658206,15.704839938072013 L-6.283705421446223,16.01529187743614 L-6.501361823670945,19.07148183150781" fill="red" fill-opacity="0.6" stroke="black" stroke-width="1" />
<path d="M-5.8679687946658206,-84.29516006192799 L-6.283705421446223,-83.98470812256386 L-6.501361823670945,-80.92851816849219" fill="brown" fill-opacity="0.6" stroke="black" stroke-width="1" />
<path d="M-6.283705421446223,83.98470812256386 L-6.501361823670945,80.92851816849219 L-6.5406853377988154,80.6618046290586" fill="blue" fill-opacity="0.6" stroke="black" stroke-width="1" />
<path d="M-6.283705421446223,-16.015291877436145 L-6.501361823670945,-19.071481831507807 L-6.5406853377988154,-19.338195370941413" fill="brown" fill-opacity="0.6" stroke="black" stroke-width="1" />
<path d="M-6.283705421446223,16.01529187743614 L-6.501361823670945,19.07148183150781 L-6.5406853377988154,19.338195370941406" fill="purple" fill-opacity="0.6" stroke="black" stroke-width="1" />
<path d="M-6.283705421446223,-83.98470812256386 L-6.501361823670945,-80.92851816849219 L-6.5406853377988154,-80.6618046290586" fill="brown" fill-opacity="0.6" stroke="black" stroke-width="1" />
<path d="M-6.501361823670945,80.92851816849219 L-6.5406853377988154,80.6618046290586 L-7.346866500715919,77.06230320466437" fill="pink" fill-opacity="0.6" stroke="black" stroke-width="1" />
<path d="M-6.501361823670945,-19.071481831507807 L-6.5406853377988154,-19.338195370941413 L-7.346866500715919,-22.937696795335626" fill="orange" fill-opacity="0.6" stroke="black" stroke-width="1" />
<path d="M-6.501361823670945,19.07148183150781 L-6.5406853377988154,19.338195370941406 L-7.346866500715919,22.937696795335626" fill="blue" fill-opacity="0.6" stroke="black" stroke-width="1" />
<path d="M-6.501361823670945,-80.92851816849219 L-6.5406853377988154,-80.6618046290586 L-7.346866500715919,-77.06230320466437" fill="red" fill-opacity="0.6" stroke="black" stroke-width="1" />
<path d="M-6.5406853377988154,80.6618046290586 L-7.346866500715919,77.06230320466437 L-9.78370045605575,75.48570906023184" fill="red" fill-opacity="0.6" stroke="black" stroke-width="1" />
<path d="M-6.5406853377988154,-19.338195370941413 L-7.346866500715919,-22.937696795335626 L-9.78370045605575,-24.514290939768152" fill="black" fill-opacity="0.6" stroke="black" stroke-width="1" />
<path d="M-6.5406853377988154,19.338195370941406 L-7.346866500715919,22.937696795335626 L-9.78370045605575,24.51429093976816" fill="pink" fill-opacity="0.6" stroke="black" stroke-width="1" />
<path d="M-6.5406853377988154,-80.6618046290586 L-7.346866500715919,-77.06230320466437 L-9.78370045605575,-75.48570906023184" fill="red" fill-opacity="0.6" stroke="black" stroke-width="1" />
<path d="M-7.346866500715919,77.06230320466437 L-9.78370045605575,75.48570906023184 L-10.54198421905877,74.86695222090523" fill="brown" fill-opacity="0.6" stroke="black" stroke-width="1" />
<path d="M-7.346866500715919,-22.937696795335626 L-9.78370045605575,-24.514290939768152 L-10.54198421905877,-25.133047779094767" fill="brown" fill-opacity="0.6" stroke="black" stroke-width="1" />
<path d="M-7.346866500715919,22.937696795335626 L-9.78370045605575,24.51429093976816 L-10.54198421905877,25.133047779094767" fill="green" fill-opacity="0.6" stroke="black" stroke-width="1" />
<path d="M-7.346866500715919,-77.06230320466437 L-9.78370045605575,-75.48570906023184 L-10.54198421905877,-74.86695222090523" fill="pink" fill-opacity="0.6" stroke="black" stroke-width="1" />
<path d="M-9.78370045605575,75.48570906023184 L-10.54198421905877,74.86695222090523 L-13.947698214213222,71.69885809985648" fill="red" fill-opacity="0.6" stroke="black" stroke-width="1" />
<path d="M-9.78370045605575,-24.514290939768152 L-10.54198421905877,-25.133047779094767 L-13.947698214213222,-28.301141900143516" fill="purple" fill-opacity="0.6" stroke="black" stroke-width="1" />
<path d="M-9.78370045605575,24.51429093976816 L-10.54198421905877,25.133047779094767 L-13.947698214213222,28.30114190014352" fill="black" fill-opacity="0.6" stroke="black" stroke-width="1" />
<path d="M-9.78370045605575,-75.48570906023184 L-10.54198421905877,-74.86695222090523 L-13.947698214213222,-71.69885809985648" fill="brown" fill-opacity="0.6" stroke="black" stroke-width="1" />
<path d="M-10.54198421905877,74.86695222090523 L-13.947698214213222,71.69885809985648 L0.0,50.0" fill="purple" fill-opacity="0.6" stroke="black" stroke-width="1" />
<path d="M-10.54198421905877,-25.133047779094767 L-13.947698214213222,-28.301141900143516 L0.0,-50.0" fill="yellow" fill-opacity="0.6" stroke="black" stroke-width="1" />
<path d="M-10.54198421905877,25.133047779094767 L-13.947698214213222,28.30114190014352 L0.0,50.0" fill="brown" fill-opacity="0.6" stroke="black" stroke-width="1" />
<path d="M-10.54198421905877,-74.86695222090523 L-13.947698214213222,-71.69885809985648 L0.0,-50.0" fill="red" fill-opacity="0.6" stroke="black" stroke-width="1" />
<path d="M-50.0,50.0 L-28.686711333932507,69.00600137448151 L-21.621100728078517,70.51453518601902" fill="yellow" fill-opacity="0.6" stroke="black" stroke-width="1" />
<path d="M-50.0,-50.0 L-28.686711333932507,-30.99399862551848 L-21.621100728078517,-29.48546481398098" fill="brown" fill-opacity="0.6" stroke="black" stroke-width="1" />
<path d="M-50.0,50.0 L-28.686711333932507,30.993998625518486 L-21.621100728078517,29.485464813980983" fill="yellow" fill-opacity="0.6" stroke="black" stroke-width="1" />
<path d="M-50.0,-50.0 L-28.686711333932507,-69.00600137448151 L-21.621100728078517,-70.51453518601902" fill="blue" fill-opacity="0.6" stroke="black" stroke-width="1" />
<path d="M-28.686711333932507,69.00600137448151 L-21.621100728078517,70.51453518601902 L-29.0,71.0" fill="green" fill-opacity="0.6" stroke="black" stroke-width="1" />
<path d="M-28.686711333932507,-30.99399862551848 L-21.621100728078517,-29.48546481398098 L-29.0,-29.0" fill="yellow" fill-opacity="0.6" stroke="black" stroke-width="1" />
<path d="M-28.686711333932507,30.993998625518486 L-21.621100728078517,29.485464813980983 L-29.0,29.0" fill="black" fill-opacity="0.6" stroke="black" stroke-width="1" />
<path d="M-28.686711333932507,-69.00600137448151 L-21.621100728078517,-70.51453518601902 L-29.0,-71.0" fill="pink" fill-opacity="0.6" stroke="black" stroke-width="1" />
<path d="M-8.0,92.0 L-1.2110095320648244,92.03988019267025 L-0.7846799385160873,95.04154926209452" fill="brown" fill-opacity="0.6" stroke="black" stroke-width="1" />
<path d="M-8.0,-8.0 L-1.2110095320648244,-7.960119807329741 L-0.7846799385160873,-4.958450737905478" fill="blue" fill-opacity="0.6" stroke="black" stroke-width="1" />
<path d="M-8.0,8.0 L-1.2110095320648244,7.960119807329747 L-0.7846799385160873,4.95845073790548" fill="black" fill-opacity="0.6" stroke="black" stroke-width="1" />
<path d="M-8.0,-92.0 L-1.2110095320648244,-92.03988019267027 L-0.7846799385160873,-95.04154926209452" fill="purple" fill-opacity="0.6" stroke="black" stroke-width="1" />
<path d="M-1.2110095320648244,92.03988019267025 L-0.7846799385160873,95.04154926209452 L-0.27300751461186185,98.76385300545272" fill="blue" fill-opacity="0.6" stroke="black" stroke-width="1" />
<path d="M-1.2110095320648244,-7.960119807329741 L-0.7846799385160873,-4.958450737905478 L-0.27300751461186185,-1.2361469945472825" fill="yellow" fill-opacity="0.6" stroke="black" stroke-width="1" />
<path d="M-1.2110095320648244,7.960119807329747 L-0.7846799385160873,4.95845073790548 L-0.27300751461186185,1.2361469945472834" fill="brown" fill-opacity="0.6" stroke="black" stroke-width="1" />
<path d="M-1.2110095320648244,-92.03988019267027 L-0.7846799385160873,-95.04154926209452 L-0.27300751461186185,-98.76385300545272" fill="orange" fill-opacity="0.6" stroke="black" stroke-width="1" />
<path d="M-0.7846799385160873,95.04154926209452 L-0.27300751461186185,98.76385300545272 L-0.12005161391853286,99.18260018335425" fill="green" fill-opacity="0.6" stroke="black" stroke-width="1" />
<path d="M-0.7846799385160873,-4.958450737905478 L-0.27300751461186185,-1.2361469945472825 L-0.12005161391853286,-0.817399816645753" fill="yellow" fill-opacity="0.6" stroke="black" stroke-width="1" />
<path d="M-0.7846799385160873,4.95845073790548 L-0.27300751461186185,1.2361469945472834 L-0.12005161391853286,0.8173998166457466" fill="black" fill-opacity="0.6" stroke="black" stroke-width="1" />
<path d="M-0.7846799385160873,-95.04154926209452 L-0.27300751461186185,-98.76385300545272 L-0.12005161391853286,-99.18260018335425" fill="red" fill-opacity="0.6" stroke="black" stroke-width="1" />
<path d="M-0.27300751461186185,98.76385300545272 L-0.12005161391853286,99.18260018335425 L0.0,100.0" fill="red" fill-opacity="0.6" stroke="black" stroke-width="1" />
<path d="M-0.27300751461186185,-1.2361469945472825 L-0.12005161391853286,-0.817399816645753 L0.0,-0.0" fill="yellow" fill-opacity="0.6" stroke="black" stroke-width="1" />
<path d="M-0.27300751461186185,1.2361469945472834 L-0.12005161391853286,0.8173998166457466 L0.0,-0.0" fill="green" fill-opacity="0.6" stroke="black" stroke-width="1" />
<path d="M-0.27300751461186185,-98.76385300545272 L-0.12005161391853286,-99.18260018335425 L0.0,-100.0" fill="green" fill-opacity="0.6" stroke="black" stroke-width="1" />
<path d="M-78.0,-22.0 L-92.0,-8.0 L-92.03988019267027,-1.2110095320648244" fill="pink" fill-opacity="0.6" stroke="black" stroke-width="1" />
<path d="M-78.0,22.0 L-92.0,8.0 L-92.03988019267027,1.2110095320648244" fill="green" fill-opacity="0.6" stroke="black" stroke-width="1" />
<path d="M-88.0,-0.0 L-87.3023218602485,-1.4149065307391044 L-85.95040459704154,-1.7625773040979231" fill="brown" fill-opacity="0.6" stroke="black" stroke-width="1" />
<path d="M-88.0,-0.0 L-87.3023218602485,1.4149065307391044 L-85.95040459704154,1.7625773040979231" fill="pink" fill-opacity="0.6" stroke="black" stroke-width="1" />
<path d="M-87.3023218602485,-1.4149065307391044 L-85.95040459704154,-1.7625773040979231 L-84.29516006192799,-5.8679687946658206" fill="yellow" fill-opacity="0.6" stroke="black" stroke-width="1" />
<path d="M-87.3023218602485,1.4149065307391044 L-85.95040459704154,1.7625773040979231 L-84.29516006192799,5.8679687946658206" fill="red" fill-opacity="0.6" stroke="black" stroke-width="1" />
<path d="M-85.95040459704154,-1.7625773040979231 L-84.29516006192799,-5.8679687946658206 L-83.98470812256386,-6.283705421446223" fill="orange" fill-opacity="0.6" stroke="black" stroke-width="1" />
<path d="M-85.95040459704154,1.7625773040979231 L-84.29516006192799,5.8679687946658206 L-83.98470812256386,6.283705421446223" fill="red" fill-opacity="0.6" stroke="black" stroke-width="1" />
<path d="M-84.29516006192799,-5.8679687946658206 L-83.98470812256386,-6.283705421446223 L-80.92851816849219,-6.501361823670945" fill="yellow" fill-opacity="0.6" stroke="black" stroke-width="1" />
<path d="M-84.29516006192799,5.8679687946658206 L-83.98470812256386,6.283705421446223 L-80.92851816849219,6.501361823670945" fill="black" fill-opacity="0.6" stroke="black" stroke-width="1" />
<path d="M-83.98470812256386,-6.283705421446223 L-80.92851816849219,-6.501361823670945 L-80.6618046290586,-6.5406853377988154" fill="purple" fill-opacity="0.6" stroke="black" stroke-width="1" />
<path d="M-83.98470812256386,6.283705421446223 L-80.92851816849219,6.501361823670945 L-80.6618046290586,6.5406853377988154" fill="brown" fill-opacity="0.6" stroke="black" stroke-width="1" />
<path d="M-80.92851816849219,-6.501361823670945 L-80.6618046290586,-6.5406853377988154 L-77.06230320466437,-7.346866500715919" fill="black" fill-opacity="0.6" stroke="black" stroke-width="1" />
<path d="M-80.92851816849219,6.501361823670945 L-80.6618046290586,6.5406853377988154 L-77.06230320466437,7.346866500715919" fill="orange" fill-opacity="0.6" stroke="black" stroke-width="1" />
<path d="M-80.6618046290586,-6.5406853377988154 L-77.06230320466437,-7.346866500715919 L-75.48570906023184,-9.78370045605575" fill="green" fill-opacity="0.6" stroke="black" stroke-width="1" />
<path d="M-80.6618046290586,6.5406853377988154 L-77.06230320466437,7.346866500715919 L-75.48570906023184,9.78370045605575" fill="purple" fill-opacity="0.6" stroke="black" stroke-width="1" />
<path d="M-77.06230320466437,-7.346866500715919 L-75.48570906023184,-9.78370045605575 L-74.86695222090523,-10.54198421905877" fill="brown" fill-opacity="0.6" stroke="black" stroke-width="1" />
<path d="M-77.06230320466437,7.346866500715919 L-75.48570906023184,9.78370045605575 L-74.86695222090523,10.54198421905877" fill="yellow" fill-opacity="0.6" stroke="black" stroke-width="1" />
<path d="M-75.48570906023184,-9.78370045605575 L-74.86695222090523,-10.54198421905877 L-71.69885809985648,-13.947698214213222" fill="blue" fill-opacity="0.6" stroke="black" stroke-width="1" />
<path d="M-75.48570906023184,9.78370045605575 L-74.86695222090523,10.54198421905877 L-71.69885809985648,13.947698214213222" fill="yellow" fill-opacity="0.6" stroke="black" stroke-width="1" />
<path d="M-74.86695222090523,-10.54198421905877 L-71.69885809985648,-13.947698214213222 L-50.0,-0.0" fill="yellow" fill-opacity="0.6" stroke="black" stroke-width="1" />
<path d="M-74.86695222090523,10.54198421905877 L-71.69885809985648,13.947698214213222 L-50.0,-0.0" fill="brown" fill-opacity="0.6" stroke="black" stroke-width="1" />
<path d="M-50.0,-50.0 L-69.00600137448151,-28.686711333932507 L-70.51453518601902,-21.621100728078517" fill="green" fill-opacity="0.6" stroke="black" stroke-width="1" />
<path d="M-50.0,50.0 L-69.00600137448151,28.686711333932507 L-70.51453518601902,21.621100728078517" fill="red" fill-opacity="0.6" stroke="black" stroke-width="1" />
<path d="M-69.00600137448151,-28.686711333932507 L-70.51453518601902,-21.621100728078517 L-71.0,-29.0" fill="purple" fill-opacity="0.6" stroke="black" stroke-width="1" />
<path d="M-69.00600137448151,28.686711333932507 L-70.51453518601902,21.621100728078517 L-71.0,29.0" fill="orange" fill-opacity="0.6" stroke="black" stroke-width="1" />
<path d="M-70.51453518601902,-21.621100728078517 L-71.0,-29.0 L-72.0,-28.0" fill="blue" fill-opacity="0.6" stroke="black" stroke-width="1" />
<path d="M-70.51453518601902,21.621100728078517 L-71.0,29.0 L-72.0,28.0" fill="red" fill-opacity="0.6" stroke="black" stroke-width="1" />
<path d="M-71.0,-29.0 L-72.0,-28.0 L-73.0,-27.0" fill="red" fill-opacity="0.6" stroke="black" stroke-width="1" />
<path d="M-71.0,29.0 L-72.0,28.0 L-73.0,27.0" fill="purple" fill-opacity="0.6" stroke="black" stroke-width="1" />
<path d="M-72.0,-28.0 L-73.0,-27.0 L-78.0,-22.0" fill="blue" fill-opacity="0.6" stroke="black" stroke-width="1" />
<path d="M-72.0,28.0 L-73.0,27.0 L-78.0,22.0" fill="brown" fill-opacity="0.6" stroke="black" stroke-width="1" />
<path d="M-73.0,-27.0 L-78.0,-22.0 L-92.0,-8.0" fill="black" fill-opacity="0.6" stroke="black" stroke-width="1" />
<path d="M-73.0,27.0 L-78.0,22.0 L-92.0,8.0" fill="purple" fill-opacity="0.6" stroke="black" stroke-width="1" />
<path d="M-92.0,-8.0 L-92.03988019267027,-1.2110095320648244 L-95.04154926209452,-0.7846799385160873" fill="red" fill-opacity="0.6" stroke="black" stroke-width="1" />
<path d="M-92.0,8.0 L-92.03988019267027,1.2110095320648244 L-95.04154926209452,0.7846799385160873" fill="green" fill-opacity="0.6" stroke="black" stroke-width="1" />
<path d="M-92.03988019267027,-1.2110095320648244 L-95.04154926209452,-0.7846799385160873 L-98.76385300545272,-0.27300751461186185" fill="pink" fill-opacity="0.6" stroke="black" stroke-width="1" />
<path d="M-92.03988019267027,1.2110095320648244 L-95.04154926209452,0.7846799385160873 L-98.76385300545272,0.27300751461186185" fill="red" fill-opacity="0.6" stroke="black" stroke-width="1" />
<path d="M-95.04154926209452,-0.7846799385160873 L-98.76385300545272,-0.27300751461186185 L-99.18260018335425,-0.12005161391853286" fill="blue" fill-opacity="0.6" stroke="black" stroke-width="1" />
<path d="M-95.04154926209452,0.7846799385160873 L-98.76385300545272,0.27300751461186185 L-99.18260018335425,0.12005161391853286" fill="brown" fill-opacity="0.6" stroke="black" stroke-width="1" />
<path d="M-98.76385300545272,-0.27300751461186185 L-99.18260018335425,-0.12005161391853286 L-100.0,-0.0" fill="red" fill-opacity="0.6" stroke="black" stroke-width="1" />
<path d="M-98.76385300545272,0.27300751461186185 L-99.18260018335425,0.12005161391853286 L-100.0,-0.0" fill="green" fill-opacity="0.6" stroke="black" stroke-width="1" />
</svg>