<?xml version="1.0" encoding="UTF-8"?>
<svg xmlns="http://www.w3.org/2000/svg" xmlns:xlink="http://www.w3.org/1999/xlink"
     width="250" height="250" viewBox="-125.0 -125.0 250 250">
<defs>
</defs>
<path d="M50.0,50.0 L47.0,53.0 L43.0,57.0" fill-opacity="0" stroke="black" stroke-width="1" />
<path d="M50.0,-50.0 L47.0,-53.0 L43.0,-57.0" fill-opacity="0" stroke="black" stroke-width="1" />
<path d="M47.0,53.0 L43.0,57.0 L15.366050835395297,83.47604512048191" fill-opacity="0" stroke="black" stroke-width="1" />
<path d="M47.0,-53.0 L43.0,-57.0 L15.366050835395297,-83.47604512048191" fill-opacity="0" stroke="black" stroke-width="1" />
<path d="M43.0,-43.0 L16.523954879518087,-15.366050835395297 L12.0,-12.0" fill-opacity="0" stroke="black" stroke-width="1" />
<path d="M43.0,43.0 L16.523954879518087,15.366050835395297 L12.0,12.0" fill-opacity="0" stroke="black" stroke-width="1" />
<path d="M15.366050835395297,83.47604512048191 L12.0,88.0 L6.0,94.0" fill-opacity="0" stroke="black" stroke-width="1" />
<path d="M15.366050835395297,-83.47604512048191 L12.0,-88.0 L6.0,-94.0" fill-opacity="0" stroke="black" stroke-width="1" />
<path d="M12.0,88.0 L6.0,94.0 L1.2873615716992388,95.1777452421504" fill-opacity="0" stroke="black" stroke-width="1" />
<path d="M12.0,-88.0 L6.0,-94.0 L1.2873615716992388,-95.1777452421504" fill-opacity="0" stroke="black" stroke-width="1" />
<path d="M6.0,-6.0 L4.822254757849604,-1.2873615716992388 L4.0,-4.0" fill-opacity="0" stroke="black" stroke-width="1" />
<path d="M6.0,6.0 L4.822254757849604,1.2873615716992388 L4.0,4.0" fill-opacity="0" stroke="black" stroke-width="1" />
<path d="M1.2873615716992388,95.1777452421504 L4.0,96.0 L0.3018062973844857,98.8029389704076" fill-opacity="0" stroke="black" stroke-width="1" />
<path d="M1.2873615716992388,-95.1777452421504 L4.0,-96.0 L0.3018062973844857,-98.8029389704076" fill-opacity="0" stroke="black" stroke-width="1" />
<path d="M4.0,-4.0 L1.1970610295924056,-0.3018062973844857 L0.0,-0.0" fill-opacity="0" stroke="black" stroke-width="1" />
<path d="M4.0,4.0 L1.1970610295924056,0.3018062973844857 L0.0,-0.0" fill-opacity="0" stroke="black" stroke-width="1" />
<path d="M-50.0,50.0 L-47.0,53.0 L-43.0,57.0" fill-opacity="0" stroke="black" stroke-width="1" />
<path d="M-50.0,-50.0 L-47.0,-53.0 L-43.0,-57.0" fill-opacity="0" stroke="black" stroke-width="1" />
<path d="M-47.0,53.0 L-43.0,57.0 L-15.366050835395297,83.47604512048191" fill-opacity="0" stroke="black" stroke-width="1" />
<path d="M-47.0,-53.0 L-43.0,-57.0 L-15.366050835395297,-83.47604512048191" fill-opacity="0" stroke="black" stroke-width="1" />
<path d="M-43.0,-43.0 L-16.523954879518087,-15.366050835395297 L-12.0,-12.0" fill-opacity="0" stroke="black" stroke-width="1" />
<path d="M-43.0,43.0 L-16.523954879518087,15.366050835395297 L-12.0,12.0" fill-opacity="0" stroke="black" stroke-width="1" />
<path d="M-15.366050835395297,83.47604512048191 L-12.0,88.0 L-6.0,94.0" fill-opacity="0" stroke="black" stroke-width="1" />
<path d="M-15.366050835395297,-83.47604512048191 L-12.0,-88.0 L-6.0,-94.0" fill-opacity="0" stroke="black" stroke-width="1" />
<path d="M-12.0,88.0 L-6.0,94.0 L-1.2873615716992388,95.1777452421504" fill-opacity="0" stroke="black" stroke-width="1" />
<path d="M-12.0,-88.0 L-6.0,-94.0 L-1.2873615716992388,-95.1777452421504" fill-opacity="0" stroke="black" stroke-width="1" />
<path d="M-6.0,-6.0 L-4.822254757849604,-1.2873615716992388 L-4.0,-4.0" fill-opacity="0" stroke="black" stroke-width="1" />
<path d="M-6.0,6.0 L-4.822254757849604,1.2873615716992388 L-4.0,4.0" fill-opacity="0" stroke="black" stroke-width="1" />
<path d="M-1.2873615716992388,95.1777452421504 L-4.0,96.0 L-0.3018062973844857,98.8029389704076" fill-opacity="0" stroke="black" stroke-width="1" />
<path d="M-1.2873615716992388,-95.1777452421504 L-4.0,-96.0 L-0.3018062973844857,-98.8029389704076" fill-opacity="0" stroke="black" stroke-width="1" />
<path d="M-4.0,-4.0 L-1.1970610295924056,-0.3018062973844857 L0.0,-0.0" fill-opacity="0" stroke="black" stroke-width="1" />
<path d="M-4.0,4.0 L-1.1970610295924056,0.3018062973844857 L0.0,-0.0" fill-opacity="0" stroke="black" stroke-width="1" />
<path d="M50.0,50.0 L53.0,47.0 L57.0,43.0" fill-opacity="0" stroke="black" stroke-width="1" />
<path d="M50.0,-50.0 L53.0,-47.0 L57.0,-43.0" fill-opacity="0" stroke="black" stroke-width="1" />
<path d="M53.0,47.0 L57.0,43.0 L83.47604512048191,15.366050835395297" fill-opacity="0" stroke="black" stroke-width="1" />
<path d="M53.0,-47.0 L57.0,-43.0 L83.47604512048191,-15.366050835395297" fill-opacity="0" stroke="black" stroke-width="1" />
<path d="M57.0,43.0 L83.47604512048191,15.366050835395297 L88.0,12.0" fill-opacity="0" stroke="black" stroke-width="1" />
<path d="M57.0,-43.0 L83.47604512048191,-15.366050835395297 L88.0,-12.0" fill-opacity="0" stroke="black" stroke-width="1" />
<path d="M83.47604512048191,15.366050835395297 L88.0,12.0 L94.0,6.0" fill-opacity="0" stroke="black" stroke-width="1" />
<path d="M83.47604512048191,-15.366050835395297 L88.0,-12.0 L94.0,-6.0" fill-opacity="0" stroke="black" stroke-width="1" />
<path d="M88.0,12.0 L94.0,6.0 L95.1777452421504,1.2873615716992388" fill-opacity="0" stroke="black" stroke-width="1" />
<path d="M88.0,-12.0 L94.0,-6.0 L95.1777452421504,-1.2873615716992388" fill-opacity="0" stroke="black" stroke-width="1" />
<path d="M94.0,6.0 L95.1777452421504,1.2873615716992388 L96.0,4.0" fill-opacity="0" stroke="black" stroke-width="1" />
<path d="M94.0,-6.0 L95.1777452421504,-1.2873615716992388 L96.0,-4.0" fill-opacity="0" stroke="black" stroke-width="1" />
<path d="M95.1777452421504,1.2873615716992388 L96.0,4.0 L98.8029389704076,0.3018062973844857" fill-opacity="0" stroke="black" stroke-width="1" />
<path d="M95.1777452421504,-1.2873615716992388 L96.0,-4.0 L98.8029389704076,-0.3018062973844857" fill-opacity="0" stroke="black" stroke-width="1" />
<path d="M96.0,4.0 L98.8029389704076,0.3018062973844857 L100.0,-0.0" fill-opacity="0" stroke="black" stroke-width="1" />
<path d="M96.0,-4.0 L98.8029389704076,-0.3018062973844857 L100.0,-0.0" fill-opacity="0" stroke="black" stroke-width="1" />
<path d="M43.0,-43.0 L15.366050835395297,-16.523954879518087 L12.0,-12.0" fill-opacity="0" stroke="black" stroke-width="1" />
<path d="M43.0,43.0 L15.366050835395297,16.523954879518087 L12.0,12.0" fill-opacity="0" stroke="black" stroke-width="1" />
<path d="M43.0,57.0 L15.366050835395297,83.47604512048191 L12.0,88.0" fill-opacity="0" stroke="black" stroke-width="1" />
<path d="M43.0,-57.0 L15.366050835395297,-83.47604512048191 L12.0,-88.0" fill-opacity="0" stroke="black" stroke-width="1" />
<path d="M6.0,-6.0 L1.2873615716992388,-4.822254757849604 L4.0,-4.0" fill-opacity="0" stroke="black" stroke-width="1" />
<path d="M6.0,6.0 L1.2873615716992388,4.822254757849604 L4.0,4.0" fill-opacity="0" stroke="black" stroke-width="1" />
<path d="M6.0,94.0 L1.2873615716992388,95.1777452421504 L4.0,96.0" fill-opacity="0" stroke="black" stroke-width="1" />
<path d="M6.0,-94.0 L1.2873615716992388,-95.1777452421504 L4.0,-96.0" fill-opacity="0" stroke="black" stroke-width="1" />
<path d="M4.0,-4.0 L0.3018062973844857,-1.1970610295924056 L0.0,-0.0" fill-opacity="0" stroke="black" stroke-width="1" />
<path d="M4.0,4.0 L0.3018062973844857,1.1970610295924056 L0.0,-0.0" fill-opacity="0" stroke="black" stroke-width="1" />
<path d="M4.0,96.0 L0.3018062973844857,98.8029389704076 L0.0,100.0" fill-opacity="0" stroke="black" stroke-width="1" />
<path d="M4.0,-96.0 L0.3018062973844857,-98.8029389704076 L0.0,-100.0" fill-opacity="0" stroke="black" stroke-width="1" />
<path d="M-43.0,57.0 L-15.366050835395297,83.47604512048191 L-12.0,88.0" fill-opacity="0" stroke="black" stroke-width="1" />
<path d="M-43.0,-43.0 L-15.366050835395297,-16.523954879518087 L-12.0,-12.0" fill-opacity="0" stroke="black" stroke-width="1" />
<path d="M-43.0,43.0 L-15.366050835395297,16.523954879518087 L-12.0,12.0" fill-opacity="0" stroke="black" stroke-width="1" />
<path d="M-43.0,-57.0 L-15.366050835395297,-83.47604512048191 L-12.0,-88.0" fill-opacity="0" stroke="black" stroke-width="1" />
<path d="M-6.0,94.0 L-1.2873615716992388,95.1777452421504 L-4.0,96.0" fill-opacity="0" stroke="black" stroke-width="1" />
<path d="M-6.0,-6.0 L-1.2873615716992388,-4.822254757849604 L-4.0,-4.0" fill-opacity="0" stroke="black" stroke-width="1" />
<path d="M-6.0,6.0 L-1.2873615716992388,4.822254757849606 L-4.0,4.0" fill-opacity="0" stroke="black" stroke-width="1" />
<path d="M-6.0,-94.0 L-1.2873615716992388,-95.1777452421504 L-4.0,-96.0" fill-opacity="0" stroke="black" stroke-width="1" />
<path d="M-4.0,96.0 L-0.3018062973844857,98.8029389704076 L0.0,100.0" fill-opacity="0" stroke="black" stroke-width="1" />
<path d="M-4.0,-4.0 L-0.3018062973844857,-1.1970610295924056 L0.0,-0.0" fill-opacity="0" stroke="black" stroke-width="1" />
<path d="M-4.0,4.0 L-0.3018062973844857,1.1970610295924047 L0.0,-0.0" fill-opacity="0" stroke="black" stroke-width="1" />
<path d="M-4.0,-96.0 L-0.3018062973844857,-98.8029389704076 L0.0,-100.0" fill-opacity="0" stroke="black" stroke-width="1" />
<path d="M-50.0,-50.0 L-53.0,-47.0 L-57.0,-43.0" fill-opacity="0" stroke="black" stroke-width="1" />
<path d="M-50.0,50.0 L-53.0,47.0 L-57.0,43.0" fill-opacity="0" stroke="black" stroke-width="1" />
<path d="M-53.0,-47.0 L-57.0,-43.0 L-83.47604512048191,-15.366050835395297" fill-opacity="0" stroke="black" stroke-width="1" />
<path d="M-53.0,47.0 L-57.0,43.0 L-83.47604512048191,15.366050835395297" fill-opacity="0" stroke="black" stroke-width="1" />
<path d="M-57.0,-43.0 L-83.47604512048191,-15.366050835395297 L-88.0,-12.0" fill-opacity="0" stroke="black" stroke-width="1" />
<path d="M-57.0,43.0 L-83.47604512048191,15.366050835395297 L-88.0,12.0" fill-opacity="0" stroke="black" stroke-width="1" />
<path d="M-83.47604512048191,-15.366050835395297 L-88.0,-12.0 L-94.0,-6.0" fill-opacity="0" stroke="black" stroke-width="1" />
<path d="M-83.47604512048191,15.366050835395297 L-88.0,12.0 L-94.0,6.0" fill-opacity="0" stroke="black" stroke-width="1" />
<path d="M-88.0,-12.0 L-94.0,-6.0 L-95.1777452421504,-1.2873615716992388" fill-opacity="0" stroke="black" stroke-width="1" />
<path d="M-88.0,12.0 L-94.0,6.0 L-95.1777452421504,1.2873615716992388" fill-opacity="0" stroke="black" stroke-width="1" />
<path d="M-94.0,-6.0 L-95.1777452421504,-1.2873615716992388 L-96.0,-4.0" fill-opacity="0" stroke="black" stroke-width="1" />
<path d="M-94.0,6.0 L-95.1777452421504,1.2873615716992388 L-96.0,4.0" fill-opacity="0" stroke="black" stroke-width="1" />
<path d="M-95.1777452421504,-1.2873615716992388 L-96.0,-4.0 L-98.8029389704076,-0.3018062973844857" fill-opacity="0" stroke="black" stroke-width="1" />
<path d="M-95.1777452421504,1.2873615716992388 L-96.0,4.0 L-98.8029389704076,0.3018062973844857" fill-opacity="0" stroke="black" stroke-width="1" />
<path d="M-96.0,-4.0 L-98.8029389704076,-0.3018062973844857 L-100.0,-0.0" fill-opacity="0" stroke="black" stroke-width="1" />
<path d="M-96.0,4.0 L-98.8029389704076,0.3018062973844857 L-100.0,-0.0" fill-opacity="0" stroke="black" stroke-width="1" />
<circle cx="0" cy="-97" r="8" stroke-dasharray="39.653880605311166 10.611601852125524" stroke-dashoffset="-17.59291886010284" stroke="black" stroke-width="1" fill="white" fill-opacity="1" />
<circle cx="0" cy="-97" r="4" stroke="black" stroke-width="1" fill="white" fill-opacity="1" />
</svg>