<?xml version="1.0" encoding="UTF-8"?>
<svg xmlns="http://www.w3.org/2000/svg" xmlns:xlink="http://www.w3.org/1999/xlink"
     width="250" height="250" viewBox="-125.0 -125.0 250 250">
<defs>
</defs>
<path d="M1.0,-0.0 L23.307638904447085,-6.388451225107375 L25.051134740436474,-13.679702930087162" fill="green" fill-opacity="0.6" stroke="black" stroke-width="1" />
<path d="M1.0,-0.0 L23.307638904447085,6.388451225107375 L25.051134740436474,13.679702930087162" fill="brown" fill-opacity="0.6" stroke="black" stroke-width="1" />
<path d="M23.307638904447085,-6.388451225107375 L25.051134740436474,-13.679702930087162 L29.651424813456394,-13.695396485306496" fill="black" fill-opacity="0.6" stroke="black" stroke-width="1" />
<path d="M23.307638904447085,6.388451225107375 L25.051134740436474,13.679702930087162 L29.651424813456394,13.695396485306496" fill="green" fill-opacity="0.6" stroke="black" stroke-width="1" />
<path d="M25.051134740436474,-13.679702930087162 L29.651424813456394,-13.695396485306496 L32.55168891942448,-14.424556966490332" fill="yellow" fill-opacity="0.6" stroke="black" stroke-width="1" />
<path d="M25.051134740436474,13.679702930087162 L29.651424813456394,13.695396485306496 L32.55168891942448,14.424556966490332" fill="orange" fill-opacity="0.6" stroke="black" stroke-width="1" />
<path d="M29.651424813456394,-13.695396485306496 L32.55168891942448,-14.424556966490332 L34.0,-0.0" fill="red" fill-opacity="0.6" stroke="black" stroke-width="1" />
<path d="M29.651424813456394,13.695396485306496 L32.55168891942448,14.424556966490332 L34.0,-0.0" fill="orange" fill-opacity="0.6" stroke="black" stroke-width="1" />
<path d="M50.0,-12.0 L33.52151803959951,-20.50266048579575 L40.50669602704763,-23.628345825601944" fill="red" fill-opacity="0.6" stroke="black" stroke-width="1" />
<path d="M50.0,12.0 L33.52151803959951,20.50266048579575 L40.50669602704763,23.628345825601944" fill="green" fill-opacity="0.6" stroke="black" stroke-width="1" />
<path d="M33.52151803959951,-20.50266048579575 L40.50669602704763,-23.628345825601944 L42.56352982936665,-27.217861712430686" fill="pink" fill-opacity="0.6" stroke="black" stroke-width="1" />
<path d="M33.52151803959951,20.50266048579575 L40.50669602704763,23.628345825601944 L42.56352982936665,27.217861712430686" fill="blue" fill-opacity="0.6" stroke="black" stroke-width="1" />
<path d="M40.50669602704763,-23.628345825601944 L42.56352982936665,-27.217861712430686 L49.61253619431368,-38.358572205351514" fill="black" fill-opacity="0.6" stroke="black" stroke-width="1" />
<path d="M40.50669602704763,23.628345825601944 L42.56352982936665,27.217861712430686 L49.61253619431368,38.358572205351514" fill="blue" fill-opacity="0.6" stroke="black" stroke-width="1" />
<path d="M42.56352982936665,-27.217861712430686 L49.61253619431368,-38.358572205351514 L50.0,-47.0" fill="red" fill-opacity="0.6" stroke="black" stroke-width="1" />
<path d="M42.56352982936665,27.217861712430686 L49.61253619431368,38.358572205351514 L50.0,47.0" fill="orange" fill-opacity="0.6" stroke="black" stroke-width="1" />
<path d="M25.0,75.0 L18.0,82.0 L17.0,83.0" fill="yellow" fill-opacity="0.6" stroke="black" stroke-width="1" />
<path d="M25.0,-75.0 L18.0,-82.0 L17.0,-83.0" fill="black" fill-opacity="0.6" stroke="black" stroke-width="1" />
<path d="M18.0,82.0 L17.0,83.0 L5.482447297560672,91.53537442706855" fill="green" fill-opacity="0.6" stroke="black" stroke-width="1" />
<path d="M18.0,-82.0 L17.0,-83.0 L5.482447297560672,-91.53537442706855" fill="brown" fill-opacity="0.6" stroke="black" stroke-width="1" />
<path d="M17.0,-17.0 L8.464625572931446,-5.482447297560672 L6.381705054983838,-3.995161469585208" fill="yellow" fill-opacity="0.6" stroke="black" stroke-width="1" />
<path d="M17.0,17.0 L8.464625572931446,5.482447297560672 L6.381705054983838,3.995161469585208" fill="pink" fill-opacity="0.6" stroke="black" stroke-width="1" />
<path d="M8.464625572931446,-5.482447297560672 L6.381705054983838,-3.995161469585208 L0.0,-0.0" fill="pink" fill-opacity="0.6" stroke="black" stroke-width="1" />
<path d="M8.464625572931446,5.482447297560672 L6.381705054983838,3.995161469585208 L0.0,-0.0" fill="brown" fill-opacity="0.6" stroke="black" stroke-width="1" />
<path d="M-1.0,-0.0 L-23.307638904447085,-6.388451225107375 L-25.051134740436474,-13.679702930087162" fill="brown" fill-opacity="0.6" stroke="black" stroke-width="1" />
<path d="M-1.0,-0.0 L-23.307638904447085,6.388451225107375 L-25.051134740436474,13.679702930087162" fill="green" fill-opacity="0.6" stroke="black" stroke-width="1" />
<path d="M-23.307638904447085,-6.388451225107375 L-25.051134740436474,-13.679702930087162 L-29.651424813456394,-13.695396485306496" fill="green" fill-opacity="0.6" stroke="black" stroke-width="1" />
<path d="M-23.307638904447085,6.388451225107375 L-25.051134740436474,13.679702930087162 L-29.651424813456394,13.695396485306496" fill="orange" fill-opacity="0.6" stroke="black" stroke-width="1" />
<path d="M-25.051134740436474,-13.679702930087162 L-29.651424813456394,-13.695396485306496 L-32.55168891942448,-14.424556966490332" fill="purple" fill-opacity="0.6" stroke="black" stroke-width="1" />
<path d="M-25.051134740436474,13.679702930087162 L-29.651424813456394,13.695396485306496 L-32.55168891942448,14.424556966490332" fill="pink" fill-opacity="0.6" stroke="black" stroke-width="1" />
<path d="M-29.651424813456394,-13.695396485306496 L-32.55168891942448,-14.424556966490332 L-34.0,-0.0" fill="blue" fill-opacity="0.6" stroke="black" stroke-width="1" />
<path d="M-29.651424813456394,13.695396485306496 L-32.55168891942448,14.424556966490332 L-34.0,-0.0" fill="green" fill-opacity="0.6" stroke="black" stroke-width="1" />
<path d="M-50.0,-12.0 L-33.52151803959951,-20.50266048579575 L-40.50669602704763,-23.628345825601944" fill="black" fill-opacity="0.6" stroke="black" stroke-width="1" />
<path d="M-50.0,12.0 L-33.52151803959951,20.50266048579575 L-40.50669602704763,23.628345825601944" fill="black" fill-opacity="0.6" stroke="black" stroke-width="1" />
<path d="M-33.52151803959951,-20.50266048579575 L-40.50669602704763,-23.628345825601944 L-42.56352982936665,-27.217861712430686" fill="brown" fill-opacity="0.6" stroke="black" stroke-width="1" />
<path d="M-33.52151803959951,20.50266048579575 L-40.50669602704763,23.628345825601944 L-42.56352982936665,27.217861712430686" fill="pink" fill-opacity="0.6" stroke="black" stroke-width="1" />
<path d="M-40.50669602704763,-23.628345825601944 L-42.56352982936665,-27.217861712430686 L-49.61253619431368,-38.358572205351514" fill="blue" fill-opacity="0.6" stroke="black" stroke-width="1" />
<path d="M-40.50669602704763,23.628345825601944 L-42.56352982936665,27.217861712430686 L-49.61253619431368,38.358572205351514" fill="orange" fill-opacity="0.6" stroke="black" stroke-width="1" />
<path d="M-42.56352982936665,-27.217861712430686 L-49.61253619431368,-38.358572205351514 L-50.0,-47.0" fill="blue" fill-opacity="0.6" stroke="black" stroke-width="1" />
<path d="M-42.56352982936665,27.217861712430686 L-49.61253619431368,38.358572205351514 L-50.0,47.0" fill="pink" fill-opacity="0.6" stroke="black" stroke-width="1" />
<path d="M-25.0,75.0 L-18.0,82.0 L-17.0,83.0" fill="pink" fill-opacity="0.6" stroke="black" stroke-width="1" />
<path d="M-25.0,-75.0 L-18.0,-82.0 L-17.0,-83.0" fill="red" fill-opacity="0.6" stroke="black" stroke-width="1" />
<path d="M-18.0,82.0 L-17.0,83.0 L-5.482447297560672,91.53537442706855" fill="green" fill-opacity="0.6" stroke="black" stroke-width="1" />
<path d="M-18.0,-82.0 L-17.0,-83.0 L-5.482447297560672,-91.53537442706855" fill="green" fill-opacity="0.6" stroke="black" stroke-width="1" />
<path d="M-17.0,-17.0 L-8.464625572931446,-5.482447297560672 L-6.381705054983838,-3.995161469585208" fill="blue" fill-opacity="0.6" stroke="black" stroke-width="1" />
<path d="M-17.0,17.0 L-8.464625572931446,5.482447297560672 L-6.381705054983838,3.995161469585208" fill="brown" fill-opacity="0.6" stroke="black" stroke-width="1" />
<path d="M-8.464625572931446,-5.482447297560672 L-6.381705054983838,-3.995161469585208 L0.0,-0.0" fill="orange" fill-opacity="0.6" stroke="black" stroke-width="1" />
<path d="M-8.464625572931446,5.482447297560672 L-6.381705054983838,3.995161469585208 L0.0,-0.0" fill="black" fill-opacity="0.6" stroke="black" stroke-width="1" />
<path d="M99.0,-0.0 L76.69236109555291,6.388451225107375 L74.94886525956352,13.679702930087162" fill="black" fill-opacity="0.6" stroke="black" stroke-width="1" />
<path d="M99.0,-0.0 L76.69236109555291,-6.388451225107375 L74.94886525956352,-13.679702930087162" fill="yellow" fill-opacity="0.6" stroke="black" stroke-width="1" />
<path d="M76.69236109555291,6.388451225107375 L74.94886525956352,13.679702930087162 L70.3485751865436,13.695396485306496" fill="black" fill-opacity="0.6" stroke="black" stroke-width="1" />
<path d="M76.69236109555291,-6.388451225107375 L74.94886525956352,-13.679702930087162 L70.3485751865436,-13.695396485306496" fill="black" fill-opacity="0.6" stroke="black" stroke-width="1" />
<path d="M74.94886525956352,13.679702930087162 L70.3485751865436,13.695396485306496 L67.44831108057552,14.424556966490332" fill="red" fill-opacity="0.6" stroke="black" stroke-width="1" />
<path d="M74.94886525956352,-13.679702930087162 L70.3485751865436,-13.695396485306496 L67.44831108057552,-14.424556966490332" fill="blue" fill-opacity="0.6" stroke="black" stroke-width="1" />
<path d="M70.3485751865436,13.695396485306496 L67.44831108057552,14.424556966490332 L66.0,-0.0" fill="green" fill-opacity="0.6" stroke="black" stroke-width="1" />
<path d="M70.3485751865436,-13.695396485306496 L67.44831108057552,-14.424556966490332 L66.0,-0.0" fill="green" fill-opacity="0.6" stroke="black" stroke-width="1" />
<path d="M50.0,12.0 L66.47848196040049,20.50266048579575 L59.49330397295237,23.628345825601944" fill="black" fill-opacity="0.6" stroke="black" stroke-width="1" />
<path d="M50.0,-12.0 L66.47848196040049,-20.50266048579575 L59.49330397295237,-23.628345825601944" fill="pink" fill-opacity="0.6" stroke="black" stroke-width="1" />
<path d="M66.47848196040049,20.50266048579575 L59.49330397295237,23.628345825601944 L57.43647017063335,27.217861712430686" fill="blue" fill-opacity="0.6" stroke="black" stroke-width="1" />
<path d="M66.47848196040049,-20.50266048579575 L59.49330397295237,-23.628345825601944 L57.43647017063335,-27.217861712430686" fill="black" fill-opacity="0.6" stroke="black" stroke-width="1" />
<path d="M59.49330397295237,23.628345825601944 L57.43647017063335,27.217861712430686 L50.38746380568632,38.358572205351514" fill="red" fill-opacity="0.6" stroke="black" stroke-width="1" />
<path d="M59.49330397295237,-23.628345825601944 L57.43647017063335,-27.217861712430686 L50.38746380568632,-38.358572205351514" fill="brown" fill-opacity="0.6" stroke="black" stroke-width="1" />
<path d="M57.43647017063335,27.217861712430686 L50.38746380568632,38.358572205351514 L50.0,47.0" fill="yellow" fill-opacity="0.6" stroke="black" stroke-width="1" />
<path d="M57.43647017063335,-27.217861712430686 L50.38746380568632,-38.358572205351514 L50.0,-47.0" fill="black" fill-opacity="0.6" stroke="black" stroke-width="1" />
<path d="M75.0,25.0 L82.0,18.0 L83.0,17.0" fill="black" fill-opacity="0.6" stroke="black" stroke-width="1" />
<path d="M75.0,-25.0 L82.0,-18.0 L83.0,-17.0" fill="pink" fill-opacity="0.6" stroke="black" stroke-width="1" />
<path d="M82.0,18.0 L83.0,17.0 L91.53537442706855,5.482447297560672" fill="purple" fill-opacity="0.6" stroke="black" stroke-width="1" />
<path d="M82.0,-18.0 L83.0,-17.0 L91.53537442706855,-5.482447297560672" fill="brown" fill-opacity="0.6" stroke="black" stroke-width="1" />
<path d="M83.0,17.0 L91.53537442706855,5.482447297560672 L93.61829494501616,3.995161469585208" fill="blue" fill-opacity="0.6" stroke="black" stroke-width="1" />
<path d="M83.0,-17.0 L91.53537442706855,-5.482447297560672 L93.61829494501616,-3.995161469585208" fill="yellow" fill-opacity="0.6" stroke="black" stroke-width="1" />
<path d="M91.53537442706855,5.482447297560672 L93.61829494501616,3.995161469585208 L100.0,-0.0" fill="purple" fill-opacity="0.6" stroke="black" stroke-width="1" />
<path d="M91.53537442706855,-5.482447297560672 L93.61829494501616,-3.995161469585208 L100.0,-0.0" fill="pink" fill-opacity="0.6" stroke="black" stroke-width="1" />
<path d="M0.0,-1.0 L6.388451225107375,-23.307638904447085 L13.679702930087162,-25.051134740436474" fill="orange" fill-opacity="0.6" stroke="black" stroke-width="1" />
<path d="M0.0,1.0 L6.388451225107375,23.307638904447085 L13.679702930087162,25.051134740436474" fill="brown" fill-opacity="0.6" stroke="black" stroke-width="1" />
<path d="M0.0,99.0 L6.388451225107375,76.69236109555291 L13.679702930087162,74.94886525956352" fill="black" fill-opacity="0.6" stroke="black" stroke-width="1" />
<path d="M0.0,-99.0 L6.388451225107375,-76.69236109555291 L13.679702930087162,-74.94886525956352" fill="green" fill-opacity="0.6" stroke="black" stroke-width="1" />
<path d="M6.388451225107375,-23.307638904447085 L13.679702930087162,-25.051134740436474 L13.695396485306496,-29.651424813456394" fill="green" fill-opacity="0.6" stroke="black" stroke-width="1" />
<path d="M6.388451225107375,23.307638904447085 L13.679702930087162,25.051134740436474 L13.695396485306496,29.651424813456394" fill="purple" fill-opacity="0.6" stroke="black" stroke-width="1" />
<path d="M6.388451225107375,76.69236109555291 L13.679702930087162,74.94886525956352 L13.695396485306496,70.3485751865436" fill="blue" fill-opacity="0.6" stroke="black" stroke-width="1" />
<path d="M6.388451225107375,-76.69236109555291 L13.679702930087162,-74.94886525956352 L13.695396485306496,-70.3485751865436" fill="pink" fill-opacity="0.6" stroke="black" stroke-width="1" />
<path d="M13.679702930087162,-25.051134740436474 L13.695396485306496,-29.651424813456394 L14.424556966490332,-32.55168891942448" fill="purple" fill-opacity="0.6" stroke="black" stroke-width="1" />
<path d="M13.679702930087162,25.051134740436474 L13.695396485306496,29.651424813456394 L14.424556966490332,32.55168891942448" fill="pink" fill-opacity="0.6" stroke="black" stroke-width="1" />
<path d="M13.679702930087162,74.94886525956352 L13.695396485306496,70.3485751865436 L14.424556966490332,67.44831108057552" fill="black" fill-opacity="0.6" stroke="black" stroke-width="1" />
<path d="M13.679702930087162,-74.94886525956352 L13.695396485306496,-70.3485751865436 L14.424556966490332,-67.44831108057552" fill="pink" fill-opacity="0.6" stroke="black" stroke-width="1" />
<path d="M13.695396485306496,-29.651424813456394 L14.424556966490332,-32.55168891942448 L0.0,-34.0" fill="orange" fill-opacity="0.6" stroke="black" stroke-width="1" />
<path d="M13.695396485306496,29.651424813456394 L14.424556966490332,32.55168891942448 L0.0,34.0" fill="green" fill-opacity="0.6" stroke="black" stroke-width="1" />
<path d="M13.695396485306496,70.3485751865436 L14.424556966490332,67.44831108057552 L0.0,66.0" fill="orange" fill-opacity="0.6" stroke="black" stroke-width="1" />
<path d="M13.695396485306496,-70.3485751865436 L14.424556966490332,-67.44831108057552 L0.0,-66.0" fill="brown" fill-opacity="0.6" stroke="black" stroke-width="1" />
<path d="M12.0,-50.0 L20.50266048579575,-33.52151803959951 L23.628345825601944,-40.50669602704763" fill="blue" fill-opacity="0.6" stroke="black" stroke-width="1" />
<path d="M12.0,50.0 L20.50266048579575,33.52151803959951 L23.628345825601944,40.50669602704763" fill="orange" fill-opacity="0.6" stroke="black" stroke-width="1" />
<path d="M12.0,50.0 L20.50266048579575,66.47848196040049 L23.628345825601944,59.49330397295237" fill="brown" fill-opacity="0.6" stroke="black" stroke-width="1" />
<path d="M12.0,-50.0 L20.50266048579575,-66.47848196040049 L23.628345825601944,-59.49330397295237" fill="green" fill-opacity="0.6" stroke="black" stroke-width="1" />
<path d="M20.50266048579575,-33.52151803959951 L23.628345825601944,-40.50669602704763 L27.217861712430686,-42.56352982936665" fill="orange" fill-opacity="0.6" stroke="black" stroke-width="1" />
<path d="M20.50266048579575,33.52151803959951 L23.628345825601944,40.50669602704763 L27.217861712430686,42.56352982936665" fill="red" fill-opacity="0.6" stroke="black" stroke-width="1" />
<path d="M20.50266048579575,66.47848196040049 L23.628345825601944,59.49330397295237 L27.217861712430686,57.43647017063335" fill="yellow" fill-opacity="0.6" stroke="black" stroke-width="1" />
<path d="M20.50266048579575,-66.47848196040049 L23.628345825601944,-59.49330397295237 L27.217861712430686,-57.43647017063335" fill="yellow" fill-opacity="0.6" stroke="black" stroke-width="1" />
<path d="M23.628345825601944,-40.50669602704763 L27.217861712430686,-42.56352982936665 L38.358572205351514,-49.61253619431368" fill="green" fill-opacity="0.6" stroke="black" stroke-width="1" />
<path d="M23.628345825601944,40.50669602704763 L27.217861712430686,42.56352982936665 L38.358572205351514,49.61253619431368" fill="purple" fill-opacity="0.6" stroke="black" stroke-width="1" />
<path d="M23.628345825601944,59.49330397295237 L27.217861712430686,57.43647017063335 L38.358572205351514,50.38746380568632" fill="orange" fill-opacity="0.6" stroke="black" stroke-width="1" />
<path d="M23.628345825601944,-59.49330397295237 L27.217861712430686,-57.43647017063335 L38.358572205351514,-50.38746380568632" fill="yellow" fill-opacity="0.6" stroke="black" stroke-width="1" />
<path d="M27.217861712430686,-42.56352982936665 L38.358572205351514,-49.61253619431368 L47.0,-50.0" fill="blue" fill-opacity="0.6" stroke="black" stroke-width="1" />
<path d="M27.217861712430686,42.56352982936665 L38.358572205351514,49.61253619431368 L47.0,50.0" fill="red" fill-opacity="0.6" stroke="black" stroke-width="1" />
<path d="M27.217861712430686,57.43647017063335 L38.358572205351514,50.38746380568632 L47.0,50.0" fill="yellow" fill-opacity="0.6" stroke="black" stroke-width="1" />
<path d="M27.217861712430686,-57.43647017063335 L38.358572205351514,-50.38746380568632 L47.0,-50.0" fill="orange" fill-opacity="0.6" stroke="black" stroke-width="1" />
<path d="M17.0,-17.0 L5.482447297560672,-8.464625572931446 L3.995161469585208,-6.381705054983838" fill="yellow" fill-opacity="0.6" stroke="black" stroke-width="1" />
<path d="M17.0,17.0 L5.482447297560672,8.464625572931446 L3.995161469585208,6.381705054983838" fill="brown" fill-opacity="0.6" stroke="black" stroke-width="1" />
<path d="M17.0,83.0 L5.482447297560672,91.53537442706855 L3.995161469585208,93.61829494501616" fill="orange" fill-opacity="0.6" stroke="black" stroke-width="1" />
<path d="M17.0,-83.0 L5.482447297560672,-91.53537442706855 L3.995161469585208,-93.61829494501616" fill="yellow" fill-opacity="0.6" stroke="black" stroke-width="1" />
<path d="M5.482447297560672,-8.464625572931446 L3.995161469585208,-6.381705054983838 L0.0,-0.0" fill="yellow" fill-opacity="0.6" stroke="black" stroke-width="1" />
<path d="M5.482447297560672,8.464625572931446 L3.995161469585208,6.381705054983838 L0.0,-0.0" fill="brown" fill-opacity="0.6" stroke="black" stroke-width="1" />
<path d="M5.482447297560672,91.53537442706855 L3.995161469585208,93.61829494501616 L0.0,100.0" fill="red" fill-opacity="0.6" stroke="black" stroke-width="1" />
<path d="M5.482447297560672,-91.53537442706855 L3.995161469585208,-93.61829494501616 L0.0,-100.0" fill="brown" fill-opacity="0.6" stroke="black" stroke-width="1" />
<path d="M0.0,99.0 L-6.388451225107375,76.69236109555291 L-13.679702930087162,74.94886525956352" fill="brown" fill-opacity="0.6" stroke="black" stroke-width="1" />
<path d="M0.0,-1.0 L-6.388451225107375,-23.307638904447085 L-13.679702930087162,-25.051134740436474" fill="red" fill-opacity="0.6" stroke="black" stroke-width="1" />
<path d="M0.0,1.0 L-6.388451225107375,23.30763890444709 L-13.679702930087162,25.05113474043648" fill="red" fill-opacity="0.6" stroke="black" stroke-width="1" />
<path d="M0.0,-99.0 L-6.388451225107375,-76.69236109555291 L-13.679702930087162,-74.94886525956352" fill="pink" fill-opacity="0.6" stroke="black" stroke-width="1" />
<path d="M-6.388451225107375,76.69236109555291 L-13.679702930087162,74.94886525956352 L-13.695396485306496,70.3485751865436" fill="orange" fill-opacity="0.6" stroke="black" stroke-width="1" />
<path d="M-6.388451225107375,-23.307638904447085 L-13.679702930087162,-25.051134740436474 L-13.695396485306496,-29.651424813456394" fill="brown" fill-opacity="0.6" stroke="black" stroke-width="1" />
<path d="M-6.388451225107375,23.30763890444709 L-13.679702930087162,25.05113474043648 L-13.695396485306496,29.6514248134564" fill="yellow" fill-opacity="0.6" stroke="black" stroke-width="1" />
<path d="M-6.388451225107375,-76.69236109555291 L-13.679702930087162,-74.94886525956352 L-13.695396485306496,-70.3485751865436" fill="green" fill-opacity="0.6" stroke="black" stroke-width="1" />
<path d="M-13.679702930087162,74.94886525956352 L-13.695396485306496,70.3485751865436 L-14.424556966490332,67.44831108057552" fill="orange" fill-opacity="0.6" stroke="black" stroke-width="1" />
<path d="M-13.679702930087162,-25.051134740436474 L-13.695396485306496,-29.651424813456394 L-14.424556966490332,-32.55168891942448" fill="purple" fill-opacity="0.6" stroke="black" stroke-width="1" />
<path d="M-13.679702930087162,25.05113474043648 L-13.695396485306496,29.6514248134564 L-14.424556966490332,32.55168891942448" fill="purple" fill-opacity="0.6" stroke="black" stroke-width="1" />
<path d="M-13.679702930087162,-74.94886525956352 L-13.695396485306496,-70.3485751865436 L-14.424556966490332,-67.44831108057552" fill="yellow" fill-opacity="0.6" stroke="black" stroke-width="1" />
<path d="M-13.695396485306496,70.3485751865436 L-14.424556966490332,67.44831108057552 L0.0,66.0" fill="orange" fill-opacity="0.6" stroke="black" stroke-width="1" />
<path d="M-13.695396485306496,-29.651424813456394 L-14.424556966490332,-32.55168891942448 L0.0,-34.0" fill="yellow" fill-opacity="0.6" stroke="black" stroke-width="1" />
<path d="M-13.695396485306496,29.6514248134564 L-14.424556966490332,32.55168891942448 L0.0,34.0" fill="orange" fill-opacity="0.6" stroke="black" stroke-width="1" />
<path d="M-13.695396485306496,-70.3485751865436 L-14.424556966490332,-67.44831108057552 L0.0,-66.0" fill="black" fill-opacity="0.6" stroke="black" stroke-width="1" />
<path d="M-12.0,50.0 L-20.50266048579575,66.47848196040049 L-23.628345825601944,59.49330397295237" fill="orange" fill-opacity="0.6" stroke="black" stroke-width="1" />
<path d="M-12.0,-50.0 L-20.50266048579575,-33.52151803959951 L-23.628345825601944,-40.50669602704763" fill="red" fill-opacity="0.6" stroke="black" stroke-width="1" />
<path d="M-12.0,50.0 L-20.50266048579575,33.52151803959951 L-23.628345825601944,40.50669602704763" fill="black" fill-opacity="0.6" stroke="black" stroke-width="1" />
<path d="M-12.0,-50.0 L-20.50266048579575,-66.47848196040049 L-23.628345825601944,-59.49330397295237" fill="yellow" fill-opacity="0.6" stroke="black" stroke-width="1" />
<path d="M-20.50266048579575,66.47848196040049 L-23.628345825601944,59.49330397295237 L-27.217861712430686,57.43647017063335" fill="green" fill-opacity="0.6" stroke="black" stroke-width="1" />
<path d="M-20.50266048579575,-33.52151803959951 L-23.628345825601944,-40.50669602704763 L-27.217861712430686,-42.56352982936665" fill="blue" fill-opacity="0.6" stroke="black" stroke-width="1" />
<path d="M-20.50266048579575,33.52151803959951 L-23.628345825601944,40.50669602704763 L-27.217861712430686,42.56352982936665" fill="orange" fill-opacity="0.6" stroke="black" stroke-width="1" />
<path d="M-20.50266048579575,-66.47848196040049 L-23.628345825601944,-59.49330397295237 L-27.217861712430686,-57.43647017063335" fill="orange" fill-opacity="0.6" stroke="black" stroke-width="1" />
<path d="M-23.628345825601944,59.49330397295237 L-27.217861712430686,57.43647017063335 L-38.358572205351514,50.38746380568632" fill="red" fill-opacity="0.6" stroke="black" stroke-width="1" />
<path d="M-23.628345825601944,-40.50669602704763 L-27.217861712430686,-42.56352982936665 L-38.358572205351514,-49.61253619431368" fill="pink" fill-opacity="0.6" stroke="black" stroke-width="1" />
<path d="M-23.628345825601944,40.50669602704763 L-27.217861712430686,42.56352982936665 L-38.358572205351514,49.61253619431368" fill="yellow" fill-opacity="0.6" stroke="black" stroke-width="1" />
<path d="M-23.628345825601944,-59.49330397295237 L-27.217861712430686,-57.43647017063335 L-38.358572205351514,-50.38746380568632" fill="black" fill-opacity="0.6" stroke="black" stroke-width="1" />
<path d="M-27.217861712430686,57.43647017063335 L-38.358572205351514,50.38746380568632 L-47.0,50.0" fill="red" fill-opacity="0.6" stroke="black" stroke-width="1" />
<path d="M-27.217861712430686,-42.56352982936665 L-38.358572205351514,-49.61253619431368 L-47.0,-50.0" fill="yellow" fill-opacity="0.6" stroke="black" stroke-width="1" />
<path d="M-27.217861712430686,42.56352982936665 L-38.358572205351514,49.61253619431368 L-47.0,50.0" fill="blue" fill-opacity="0.6" stroke="black" stroke-width="1" />
<path d="M-27.217861712430686,-57.43647017063335 L-38.358572205351514,-50.38746380568632 L-47.0,-50.0" fill="green" fill-opacity="0.6" stroke="black" stroke-width="1" />
<path d="M-17.0,83.0 L-5.482447297560672,91.53537442706855 L-3.995161469585208,93.61829494501616" fill="red" fill-opacity="0.6" stroke="black" stroke-width="1" />
<path d="M-17.0,-17.0 L-5.482447297560672,-8.464625572931446 L-3.995161469585208,-6.381705054983838" fill="red" fill-opacity="0.6" stroke="black" stroke-width="1" />
<path d="M-17.0,17.0 L-5.482447297560672,8.464625572931453 L-3.995161469585208,6.38170505498384" fill="orange" fill-opacity="0.6" stroke="black" stroke-width="1" />
<path d="M-17.0,-83.0 L-5.482447297560672,-91.53537442706855 L-3.995161469585208,-93.61829494501616" fill="yellow" fill-opacity="0.6" stroke="black" stroke-width="1" />
<path d="M-5.482447297560672,91.53537442706855 L-3.995161469585208,93.61829494501616 L0.0,100.0" fill="red" fill-opacity="0.6" stroke="black" stroke-width="1" />
<path d="M-5.482447297560672,-8.464625572931446 L-3.995161469585208,-6.381705054983838 L0.0,-0.0" fill="black" fill-opacity="0.6" stroke="black" stroke-width="1" />
<path d="M-5.482447297560672,8.464625572931453 L-3.995161469585208,6.38170505498384 L0.0,-0.0" fill="orange" fill-opacity="0.6" stroke="black" stroke-width="1" />
<path d="M-5.482447297560672,-91.53537442706855 L-3.995161469585208,-93.61829494501616 L0.0,-100.0" fill="yellow" fill-opacity="0.6" stroke="black" stroke-width="1" />
<path d="M-99.0,-0.0 L-76.69236109555291,-6.388451225107375 L-74.94886525956352,-13.679702930087162" fill="blue" fill-opacity="0.6" stroke="black" stroke-width="1" />
<path d="M-99.0,-0.0 L-76.69236109555291,6.388451225107375 L-74.94886525956352,13.679702930087162" fill="green" fill-opacity="0.6" stroke="black" stroke-width="1" />
<path d="M-76.69236109555291,-6.388451225107375 L-74.94886525956352,-13.679702930087162 L-70.3485751865436,-13.695396485306496" fill="orange" fill-opacity="0.6" stroke="black" stroke-width="1" />
<path d="M-76.69236109555291,6.388451225107375 L-74.94886525956352,13.679702930087162 L-70.3485751865436,13.695396485306496" fill="brown" fill-opacity="0.6" stroke="black" stroke-width="1" />
<path d="M-74.94886525956352,-13.679702930087162 L-70.3485751865436,-13.695396485306496 L-67.44831108057552,-14.424556966490332" fill="brown" fill-opacity="0.6" stroke="black" stroke-width="1" />
<path d="M-74.94886525956352,13.679702930087162 L-70.3485751865436,13.695396485306496 L-67.44831108057552,14.424556966490332" fill="red" fill-opacity="0.6" stroke="black" stroke-width="1" />
<path d="M-70.3485751865436,-13.695396485306496 L-67.44831108057552,-14.424556966490332 L-66.0,-0.0" fill="purple" fill-opacity="0.6" stroke="black" stroke-width="1" />
<path d="M-70.3485751865436,13.695396485306496 L-67.44831108057552,14.424556966490332 L-66.0,-0.0" fill="green" fill-opacity="0.6" stroke="black" stroke-width="1" />
<path d="M-50.0,-12.0 L-66.47848196040049,-20.50266048579575 L-59.49330397295237,-23.628345825601944" fill="pink" fill-opacity="0.6" stroke="black" stroke-width="1" />
<path d="M-50.0,12.0 L-66.47848196040049,20.50266048579575 L-59.49330397295237,23.628345825601944" fill="pink" fill-opacity="0.6" stroke="black" stroke-width="1" />
<path d="M-66.47848196040049,-20.50266048579575 L-59.49330397295237,-23.628345825601944 L-57.43647017063335,-27.217861712430686" fill="red" fill-opacity="0.6" stroke="black" stroke-width="1" />
<path d="M-66.47848196040049,20.50266048579575 L-59.49330397295237,23.628345825601944 L-57.43647017063335,27.217861712430686" fill="purple" fill-opacity="0.6" stroke="black" stroke-width="1" />
<path d="M-59.49330397295237,-23.628345825601944 L-57.43647017063335,-27.217861712430686 L-50.38746380568632,-38.358572205351514" fill="purple" fill-opacity="0.6" stroke="black" stroke-width="1" />
<path d="M-59.49330397295237,23.628345825601944 L-57.43647017063335,27.217861712430686 L-50.38746380568632,38.358572205351514" fill="blue" fill-opacity="0.6" stroke="black" stroke-width="1" />
<path d="M-57.43647017063335,-27.217861712430686 L-50.38746380568632,-38.358572205351514 L-50.0,-47.0" fill="blue" fill-opacity="0.6" stroke="black" stroke-width="1" />
<path d="M-57.43647017063335,27.217861712430686 L-50.38746380568632,38.358572205351514 L-50.0,47.0" fill="blue" fill-opacity="0.6" stroke="black" stroke-width="1" />
<path d="M-75.0,-25.0 L-82.0,-18.0 L-83.0,-17.0" fill="orange" fill-opacity="0.6" stroke="black" stroke-width="1" />
<path d="M-75.0,25.0 L-82.0,18.0 L-83.0,17.0" fill="blue" fill-opacity="0.6" stroke="black" stroke-width="1" />
<path d="M-82.0,-18.0 L-83.0,-17.0 L-91.53537442706855,-5.482447297560672" fill="orange" fill-opacity="0.6" stroke="black" stroke-width="1" />
<path d="M-82.0,18.0 L-83.0,17.0 L-91.53537442706855,5.482447297560672" fill="yellow" fill-opacity="0.6" stroke="black" stroke-width="1" />
<path d="M-83.0,-17.0 L-91.53537442706855,-5.482447297560672 L-93.61829494501616,-3.995161469585208" fill="black" fill-opacity="0.6" stroke="black" stroke-width="1" />
<path d="M-83.0,17.0 L-91.53537442706855,5.482447297560672 L-93.61829494501616,3.995161469585208" fill="brown" fill-opacity="0.6" stroke="black" stroke-width="1" />
<path d="M-91.53537442706855,-5.482447297560672 L-93.61829494501616,-3.995161469585208 L-100.0,-0.0" fill="red" fill-opacity="0.6" stroke="black" stroke-width="1" />
<path d="M-91.53537442706855,5.482447297560672 L-93.61829494501616,3.995161469585208 L-100.0,-0.0" fill="orange" fill-opacity="0.6" stroke="black" stroke-width="1" />
</svg>