<?xml version="1.0" encoding="UTF-8"?>
<svg xmlns="http://www.w3.org/2000/svg" xmlns:xlink="http://www.w3.org/1999/xlink"
     width="250" height="250" viewBox="-125.0 -125.0 250 250">
<defs>
</defs>
<path d="M11.0,-0.0 L11.781121643505344,-3.751189799517049 L16.798934264577916,-4.731233236197889" fill-opacity="0" stroke="black" stroke-width="1" />
<path d="M11.0,-0.0 L11.781121643505344,3.751189799517049 L16.798934264577916,4.731233236197889" fill-opacity="0" stroke="black" stroke-width="1" />
<path d="M11.781121643505344,-3.751189799517049 L16.798934264577916,-4.731233236197889 L19.079416699412867,-4.9260850329261" fill-opacity="0" stroke="black" stroke-width="1" />
<path d="M11.781121643505344,3.751189799517049 L16.798934264577916,4.731233236197889 L19.079416699412867,4.9260850329261" fill-opacity="0" stroke="black" stroke-width="1" />
<path d="M16.798934264577916,-4.731233236197889 L19.079416699412867,-4.9260850329261 L30.0,-0.0" fill-opacity="0" stroke="black" stroke-width="1" />
<path d="M16.798934264577916,4.731233236197889 L19.079416699412867,4.9260850329261 L30.0,-0.0" fill-opacity="0" stroke="black" stroke-width="1" />
<path d="M48.0,52.0 L30.0,70.0 L26.0,74.0" fill-opacity="0" stroke="black" stroke-width="1" />
<path d="M48.0,-52.0 L30.0,-70.0 L26.0,-74.0" fill-opacity="0" stroke="black" stroke-width="1" />
<path d="M50.0,-0.0 L43.75973911422831,-12.251857156016825 L46.3761456366509,-18.119902795296095" fill-opacity="0" stroke="black" stroke-width="1" />
<path d="M50.0,-0.0 L43.75973911422831,12.251857156016825 L46.3761456366509,18.119902795296095" fill-opacity="0" stroke="black" stroke-width="1" />
<path d="M43.75973911422831,-12.251857156016825 L46.3761456366509,-18.119902795296095 L50.0,-20.0" fill-opacity="0" stroke="black" stroke-width="1" />
<path d="M43.75973911422831,12.251857156016825 L46.3761456366509,18.119902795296095 L50.0,20.0" fill-opacity="0" stroke="black" stroke-width="1" />
<path d="M50.0,50.0 L48.0,52.0 L30.0,70.0" fill-opacity="0" stroke="black" stroke-width="1" />
<path d="M50.0,-50.0 L48.0,-52.0 L30.0,-70.0" fill-opacity="0" stroke="black" stroke-width="1" />
<path d="M30.0,70.0 L26.0,74.0 L20.0,80.0" fill-opacity="0" stroke="black" stroke-width="1" />
<path d="M30.0,-70.0 L26.0,-74.0 L20.0,-80.0" fill-opacity="0" stroke="black" stroke-width="1" />
<path d="M26.0,74.0 L20.0,80.0 L2.932614681498502,89.24196795948464" fill-opacity="0" stroke="black" stroke-width="1" />
<path d="M26.0,-74.0 L20.0,-80.0 L2.932614681498502,-89.24196795948464" fill-opacity="0" stroke="black" stroke-width="1" />
<path d="M20.0,-20.0 L10.758032040515364,-2.932614681498502 L7.389863490312898,-2.3140754390828966" fill-opacity="0" stroke="black" stroke-width="1" />
<path d="M20.0,20.0 L10.758032040515364,2.932614681498502 L7.389863490312898,2.3140754390828966" fill-opacity="0" stroke="black" stroke-width="1" />
<path d="M10.758032040515364,-2.932614681498502 L7.389863490312898,-2.3140754390828966 L6.412939611362972,-1.9370738055576986" fill-opacity="0" stroke="black" stroke-width="1" />
<path d="M10.758032040515364,2.932614681498502 L7.389863490312898,2.3140754390828966 L6.412939611362972,1.9370738055576986" fill-opacity="0" stroke="black" stroke-width="1" />
<path d="M7.389863490312898,-2.3140754390828966 L6.412939611362972,-1.9370738055576986 L2.670199676780899,-0.769402361229261" fill-opacity="0" stroke="black" stroke-width="1" />
<path d="M7.389863490312898,2.3140754390828966 L6.412939611362972,1.9370738055576986 L2.670199676780899,0.769402361229261" fill-opacity="0" stroke="black" stroke-width="1" />
<path d="M6.412939611362972,-1.9370738055576986 L2.670199676780899,-0.769402361229261 L2.0,-2.0" fill-opacity="0" stroke="black" stroke-width="1" />
<path d="M6.412939611362972,1.9370738055576986 L2.670199676780899,0.769402361229261 L2.0,2.0" fill-opacity="0" stroke="black" stroke-width="1" />
<path d="M0.769402361229261,97.3298003232191 L2.0,98.0 L0.03720778793688852,98.5396832418228" fill-opacity="0" stroke="black" stroke-width="1" />
<path d="M0.769402361229261,-97.3298003232191 L2.0,-98.0 L0.03720778793688852,-98.5396832418228" fill-opacity="0" stroke="black" stroke-width="1" />
<path d="M2.0,-2.0 L1.4603167581771992,-0.03720778793688852 L0.0,-0.0" fill-opacity="0" stroke="black" stroke-width="1" />
<path d="M2.0,2.0 L1.4603167581771992,0.03720778793688852 L0.0,-0.0" fill-opacity="0" stroke="black" stroke-width="1" />
<path d="M-11.0,-0.0 L-11.781121643505344,-3.751189799517049 L-16.798934264577916,-4.731233236197889" fill-opacity="0" stroke="black" stroke-width="1" />
<path d="M-11.0,-0.0 L-11.781121643505344,3.751189799517049 L-16.798934264577916,4.731233236197889" fill-opacity="0" stroke="black" stroke-width="1" />
<path d="M-11.781121643505344,-3.751189799517049 L-16.798934264577916,-4.731233236197889 L-19.079416699412867,-4.9260850329261" fill-opacity="0" stroke="black" stroke-width="1" />
<path d="M-11.781121643505344,3.751189799517049 L-16.798934264577916,4.731233236197889 L-19.079416699412867,4.9260850329261" fill-opacity="0" stroke="black" stroke-width="1" />
<path d="M-16.798934264577916,-4.731233236197889 L-19.079416699412867,-4.9260850329261 L-30.0,-0.0" fill-opacity="0" stroke="black" stroke-width="1" />
<path d="M-16.798934264577916,4.731233236197889 L-19.079416699412867,4.9260850329261 L-30.0,-0.0" fill-opacity="0" stroke="black" stroke-width="1" />
<path d="M-48.0,52.0 L-30.0,70.0 L-26.0,74.0" fill-opacity="0" stroke="black" stroke-width="1" />
<path d="M-48.0,-52.0 L-30.0,-70.0 L-26.0,-74.0" fill-opacity="0" stroke="black" stroke-width="1" />
<path d="M-50.0,-0.0 L-43.75973911422831,-12.251857156016825 L-46.3761456366509,-18.119902795296095" fill-opacity="0" stroke="black" stroke-width="1" />
<path d="M-50.0,-0.0 L-43.75973911422831,12.251857156016825 L-46.3761456366509,18.119902795296095" fill-opacity="0" stroke="black" stroke-width="1" />
<path d="M-43.75973911422831,-12.251857156016825 L-46.3761456366509,-18.119902795296095 L-50.0,-20.0" fill-opacity="0" stroke="black" stroke-width="1" />
<path d="M-43.75973911422831,12.251857156016825 L-46.3761456366509,18.119902795296095 L-50.0,20.0" fill-opacity="0" stroke="black" stroke-width="1" />
<path d="M-50.0,50.0 L-48.0,52.0 L-30.0,70.0" fill-opacity="0" stroke="black" stroke-width="1" />
<path d="M-50.0,-50.0 L-48.0,-52.0 L-30.0,-70.0" fill-opacity="0" stroke="black" stroke-width="1" />
<path d="M-30.0,70.0 L-26.0,74.0 L-20.0,80.0" fill-opacity="0" stroke="black" stroke-width="1" />
<path d="M-30.0,-70.0 L-26.0,-74.0 L-20.0,-80.0" fill-opacity="0" stroke="black" stroke-width="1" />
<path d="M-26.0,74.0 L-20.0,80.0 L-2.932614681498502,89.24196795948464" fill-opacity="0" stroke="black" stroke-width="1" />
<path d="M-26.0,-74.0 L-20.0,-80.0 L-2.932614681498502,-89.24196795948464" fill-opacity="0" stroke="black" stroke-width="1" />
<path d="M-20.0,-20.0 L-10.758032040515364,-2.932614681498502 L-7.389863490312898,-2.3140754390828966" fill-opacity="0" stroke="black" stroke-width="1" />
<path d="M-20.0,20.0 L-10.758032040515364,2.932614681498502 L-7.389863490312898,2.3140754390828966" fill-opacity="0" stroke="black" stroke-width="1" />
<path d="M-10.758032040515364,-2.932614681498502 L-7.389863490312898,-2.3140754390828966 L-6.412939611362972,-1.9370738055576986" fill-opacity="0" stroke="black" stroke-width="1" />
<path d="M-10.758032040515364,2.932614681498502 L-7.389863490312898,2.3140754390828966 L-6.412939611362972,1.9370738055576986" fill-opacity="0" stroke="black" stroke-width="1" />
<path d="M-7.389863490312898,-2.3140754390828966 L-6.412939611362972,-1.9370738055576986 L-2.670199676780899,-0.769402361229261" fill-opacity="0" stroke="black" stroke-width="1" />
<path d="M-7.389863490312898,2.3140754390828966 L-6.412939611362972,1.9370738055576986 L-2.670199676780899,0.769402361229261" fill-opacity="0" stroke="black" stroke-width="1" />
<path d="M-6.412939611362972,-1.9370738055576986 L-2.670199676780899,-0.769402361229261 L-2.0,-2.0" fill-opacity="0" stroke="black" stroke-width="1" />
<path d="M-6.412939611362972,1.9370738055576986 L-2.670199676780899,0.769402361229261 L-2.0,2.0" fill-opacity="0" stroke="black" stroke-width="1" />
<path d="M-0.769402361229261,97.3298003232191 L-2.0,98.0 L-0.03720778793688852,98.5396832418228" fill-opacity="0" stroke="black" stroke-width="1" />
<path d="M-0.769402361229261,-97.3298003232191 L-2.0,-98.0 L-0.03720778793688852,-98.5396832418228" fill-opacity="0" stroke="black" stroke-width="1" />
<path d="M-2.0,-2.0 L-1.4603167581771992,-0.03720778793688852 L0.0,-0.0" fill-opacity="0" stroke="black" stroke-width="1" />
<path d="M-2.0,2.0 L-1.4603167581771992,0.03720778793688852 L0.0,-0.0" fill-opacity="0" stroke="black" stroke-width="1" />
<path d="M89.0,-0.0 L88.21887835649466,3.751189799517049 L83.20106573542208,4.731233236197889" fill-opacity="0" stroke="black" stroke-width="1" />
<path d="M89.0,-0.0 L88.21887835649466,-3.751189799517049 L83.20106573542208,-4.731233236197889" fill-opacity="0" stroke="black" stroke-width="1" />
<path d="M88.21887835649466,3.751189799517049 L83.20106573542208,4.731233236197889 L80.92058330058714,4.9260850329261" fill-opacity="0" stroke="black" stroke-width="1" />
<path d="M88.21887835649466,-3.751189799517049 L83.20106573542208,-4.731233236197889 L80.92058330058714,-4.9260850329261" fill-opacity="0" stroke="black" stroke-width="1" />
<path d="M83.20106573542208,4.731233236197889 L80.92058330058714,4.9260850329261 L70.0,-0.0" fill-opacity="0" stroke="black" stroke-width="1" />
<path d="M83.20106573542208,-4.731233236197889 L80.92058330058714,-4.9260850329261 L70.0,-0.0" fill-opacity="0" stroke="black" stroke-width="1" />
<path d="M52.0,48.0 L70.0,30.0 L74.0,26.0" fill-opacity="0" stroke="black" stroke-width="1" />
<path d="M52.0,-48.0 L70.0,-30.0 L74.0,-26.0" fill-opacity="0" stroke="black" stroke-width="1" />
<path d="M50.0,-0.0 L56.24026088577169,12.251857156016825 L53.6238543633491,18.119902795296095" fill-opacity="0" stroke="black" stroke-width="1" />
<path d="M50.0,-0.0 L56.24026088577169,-12.251857156016825 L53.6238543633491,-18.119902795296095" fill-opacity="0" stroke="black" stroke-width="1" />
<path d="M56.24026088577169,12.251857156016825 L53.6238543633491,18.119902795296095 L50.0,20.0" fill-opacity="0" stroke="black" stroke-width="1" />
<path d="M56.24026088577169,-12.251857156016825 L53.6238543633491,-18.119902795296095 L50.0,-20.0" fill-opacity="0" stroke="black" stroke-width="1" />
<path d="M50.0,50.0 L52.0,48.0 L70.0,30.0" fill-opacity="0" stroke="black" stroke-width="1" />
<path d="M50.0,-50.0 L52.0,-48.0 L70.0,-30.0" fill-opacity="0" stroke="black" stroke-width="1" />
<path d="M70.0,30.0 L74.0,26.0 L80.0,20.0" fill-opacity="0" stroke="black" stroke-width="1" />
<path d="M70.0,-30.0 L74.0,-26.0 L80.0,-20.0" fill-opacity="0" stroke="black" stroke-width="1" />
<path d="M74.0,26.0 L80.0,20.0 L89.24196795948464,2.932614681498502" fill-opacity="0" stroke="black" stroke-width="1" />
<path d="M74.0,-26.0 L80.0,-20.0 L89.24196795948464,-2.932614681498502" fill-opacity="0" stroke="black" stroke-width="1" />
<path d="M80.0,20.0 L89.24196795948464,2.932614681498502 L92.6101365096871,2.3140754390828966" fill-opacity="0" stroke="black" stroke-width="1" />
<path d="M80.0,-20.0 L89.24196795948464,-2.932614681498502 L92.6101365096871,-2.3140754390828966" fill-opacity="0" stroke="black" stroke-width="1" />
<path d="M89.24196795948464,2.932614681498502 L92.6101365096871,2.3140754390828966 L93.58706038863703,1.9370738055576986" fill-opacity="0" stroke="black" stroke-width="1" />
<path d="M89.24196795948464,-2.932614681498502 L92.6101365096871,-2.3140754390828966 L93.58706038863703,-1.9370738055576986" fill-opacity="0" stroke="black" stroke-width="1" />
<path d="M92.6101365096871,2.3140754390828966 L93.58706038863703,1.9370738055576986 L97.3298003232191,0.769402361229261" fill-opacity="0" stroke="black" stroke-width="1" />
<path d="M92.6101365096871,-2.3140754390828966 L93.58706038863703,-1.9370738055576986 L97.3298003232191,-0.769402361229261" fill-opacity="0" stroke="black" stroke-width="1" />
<path d="M93.58706038863703,1.9370738055576986 L97.3298003232191,0.769402361229261 L98.0,2.0" fill-opacity="0" stroke="black" stroke-width="1" />
<path d="M93.58706038863703,-1.9370738055576986 L97.3298003232191,-0.769402361229261 L98.0,-2.0" fill-opacity="0" stroke="black" stroke-width="1" />
<path d="M97.3298003232191,0.769402361229261 L98.0,2.0 L98.5396832418228,0.03720778793688852" fill-opacity="0" stroke="black" stroke-width="1" />
<path d="M97.3298003232191,-0.769402361229261 L98.0,-2.0 L98.5396832418228,-0.03720778793688852" fill-opacity="0" stroke="black" stroke-width="1" />
<path d="M98.0,2.0 L98.5396832418228,0.03720778793688852 L100.0,-0.0" fill-opacity="0" stroke="black" stroke-width="1" />
<path d="M98.0,-2.0 L98.5396832418228,-0.03720778793688852 L100.0,-0.0" fill-opacity="0" stroke="black" stroke-width="1" />
<path d="M0.0,-11.0 L3.751189799517049,-11.781121643505344 L4.731233236197889,-16.798934264577916" fill-opacity="0" stroke="black" stroke-width="1" />
<path d="M0.0,11.0 L3.751189799517049,11.781121643505344 L4.731233236197889,16.798934264577916" fill-opacity="0" stroke="black" stroke-width="1" />
<path d="M0.0,89.0 L3.751189799517049,88.21887835649466 L4.731233236197889,83.20106573542208" fill-opacity="0" stroke="black" stroke-width="1" />
<path d="M0.0,-89.0 L3.751189799517049,-88.21887835649466 L4.731233236197889,-83.20106573542208" fill-opacity="0" stroke="black" stroke-width="1" />
<path d="M3.751189799517049,-11.781121643505344 L4.731233236197889,-16.798934264577916 L4.9260850329261,-19.079416699412867" fill-opacity="0" stroke="black" stroke-width="1" />
<path d="M3.751189799517049,11.781121643505344 L4.731233236197889,16.798934264577916 L4.9260850329261,19.079416699412867" fill-opacity="0" stroke="black" stroke-width="1" />
<path d="M3.751189799517049,88.21887835649466 L4.731233236197889,83.20106573542208 L4.9260850329261,80.92058330058714" fill-opacity="0" stroke="black" stroke-width="1" />
<path d="M3.751189799517049,-88.21887835649466 L4.731233236197889,-83.20106573542208 L4.9260850329261,-80.92058330058714" fill-opacity="0" stroke="black" stroke-width="1" />
<path d="M4.731233236197889,-16.798934264577916 L4.9260850329261,-19.079416699412867 L0.0,-30.0" fill-opacity="0" stroke="black" stroke-width="1" />
<path d="M4.731233236197889,16.798934264577916 L4.9260850329261,19.079416699412867 L0.0,30.0" fill-opacity="0" stroke="black" stroke-width="1" />
<path d="M4.731233236197889,83.20106573542208 L4.9260850329261,80.92058330058714 L0.0,70.0" fill-opacity="0" stroke="black" stroke-width="1" />
<path d="M4.731233236197889,-83.20106573542208 L4.9260850329261,-80.92058330058714 L0.0,-70.0" fill-opacity="0" stroke="black" stroke-width="1" />
<path d="M0.0,-50.0 L12.251857156016825,-43.75973911422831 L18.119902795296095,-46.3761456366509" fill-opacity="0" stroke="black" stroke-width="1" />
<path d="M0.0,50.0 L12.251857156016825,43.75973911422831 L18.119902795296095,46.3761456366509" fill-opacity="0" stroke="black" stroke-width="1" />
<path d="M0.0,50.0 L12.251857156016825,56.24026088577169 L18.119902795296095,53.6238543633491" fill-opacity="0" stroke="black" stroke-width="1" />
<path d="M0.0,-50.0 L12.251857156016825,-56.24026088577169 L18.119902795296095,-53.6238543633491" fill-opacity="0" stroke="black" stroke-width="1" />
<path d="M12.251857156016825,-43.75973911422831 L18.119902795296095,-46.3761456366509 L20.0,-50.0" fill-opacity="0" stroke="black" stroke-width="1" />
<path d="M12.251857156016825,43.75973911422831 L18.119902795296095,46.3761456366509 L20.0,50.0" fill-opacity="0" stroke="black" stroke-width="1" />
<path d="M12.251857156016825,56.24026088577169 L18.119902795296095,53.6238543633491 L20.0,50.0" fill-opacity="0" stroke="black" stroke-width="1" />
<path d="M12.251857156016825,-56.24026088577169 L18.119902795296095,-53.6238543633491 L20.0,-50.0" fill-opacity="0" stroke="black" stroke-width="1" />
<path d="M20.0,-20.0 L2.932614681498502,-10.758032040515364 L2.3140754390828966,-7.389863490312898" fill-opacity="0" stroke="black" stroke-width="1" />
<path d="M20.0,20.0 L2.932614681498502,10.758032040515364 L2.3140754390828966,7.389863490312898" fill-opacity="0" stroke="black" stroke-width="1" />
<path d="M20.0,80.0 L2.932614681498502,89.24196795948464 L2.3140754390828966,92.6101365096871" fill-opacity="0" stroke="black" stroke-width="1" />
<path d="M20.0,-80.0 L2.932614681498502,-89.24196795948464 L2.3140754390828966,-92.6101365096871" fill-opacity="0" stroke="black" stroke-width="1" />
<path d="M2.932614681498502,-10.758032040515364 L2.3140754390828966,-7.389863490312898 L1.9370738055576986,-6.412939611362972" fill-opacity="0" stroke="black" stroke-width="1" />
<path d="M2.932614681498502,10.758032040515364 L2.3140754390828966,7.389863490312898 L1.9370738055576986,6.412939611362972" fill-opacity="0" stroke="black" stroke-width="1" />
<path d="M2.932614681498502,89.24196795948464 L2.3140754390828966,92.6101365096871 L1.9370738055576986,93.58706038863703" fill-opacity="0" stroke="black" stroke-width="1" />
<path d="M2.932614681498502,-89.24196795948464 L2.3140754390828966,-92.6101365096871 L1.9370738055576986,-93.58706038863703" fill-opacity="0" stroke="black" stroke-width="1" />
<path d="M2.3140754390828966,-7.389863490312898 L1.9370738055576986,-6.412939611362972 L0.769402361229261,-2.670199676780899" fill-opacity="0" stroke="black" stroke-width="1" />
<path d="M2.3140754390828966,7.389863490312898 L1.9370738055576986,6.412939611362972 L0.769402361229261,2.670199676780899" fill-opacity="0" stroke="black" stroke-width="1" />
<path d="M2.3140754390828966,92.6101365096871 L1.9370738055576986,93.58706038863703 L0.769402361229261,97.3298003232191" fill-opacity="0" stroke="black" stroke-width="1" />
<path d="M2.3140754390828966,-92.6101365096871 L1.9370738055576986,-93.58706038863703 L0.769402361229261,-97.3298003232191" fill-opacity="0" stroke="black" stroke-width="1" />
<path d="M1.9370738055576986,-6.412939611362972 L0.769402361229261,-2.670199676780899 L2.0,-2.0" fill-opacity="0" stroke="black" stroke-width="1" />
<path d="M1.9370738055576986,6.412939611362972 L0.769402361229261,2.670199676780899 L2.0,2.0" fill-opacity="0" stroke="black" stroke-width="1" />
<path d="M1.9370738055576986,93.58706038863703 L0.769402361229261,97.3298003232191 L2.0,98.0" fill-opacity="0" stroke="black" stroke-width="1" />
<path d="M1.9370738055576986,-93.58706038863703 L0.769402361229261,-97.3298003232191 L2.0,-98.0" fill-opacity="0" stroke="black" stroke-width="1" />
<path d="M2.0,-2.0 L0.03720778793688852,-1.4603167581771992 L0.0,-0.0" fill-opacity="0" stroke="black" stroke-width="1" />
<path d="M2.0,2.0 L0.03720778793688852,1.4603167581771992 L0.0,-0.0" fill-opacity="0" stroke="black" stroke-width="1" />
<path d="M2.0,98.0 L0.03720778793688852,98.5396832418228 L0.0,100.0" fill-opacity="0" stroke="black" stroke-width="1" />
<path d="M2.0,-98.0 L0.03720778793688852,-98.5396832418228 L0.0,-100.0" fill-opacity="0" stroke="black" stroke-width="1" />
<path d="M0.0,89.0 L-3.751189799517049,88.21887835649466 L-4.731233236197889,83.20106573542208" fill-opacity="0" stroke="black" stroke-width="1" />
<path d="M0.0,-11.0 L-3.751189799517049,-11.781121643505344 L-4.731233236197889,-16.798934264577916" fill-opacity="0" stroke="black" stroke-width="1" />
<path d="M0.0,11.0 L-3.751189799517049,11.781121643505344 L-4.731233236197889,16.798934264577923" fill-opacity="0" stroke="black" stroke-width="1" />
<path d="M0.0,-89.0 L-3.751189799517049,-88.21887835649466 L-4.731233236197889,-83.20106573542208" fill-opacity="0" stroke="black" stroke-width="1" />
<path d="M-3.751189799517049,88.21887835649466 L-4.731233236197889,83.20106573542208 L-4.9260850329261,80.92058330058714" fill-opacity="0" stroke="black" stroke-width="1" />
<path d="M-3.751189799517049,-11.781121643505344 L-4.731233236197889,-16.798934264577916 L-4.9260850329261,-19.079416699412867" fill-opacity="0" stroke="black" stroke-width="1" />
<path d="M-3.751189799517049,11.781121643505344 L-4.731233236197889,16.798934264577923 L-4.9260850329261,19.07941669941286" fill-opacity="0" stroke="black" stroke-width="1" />
<path d="M-3.751189799517049,-88.21887835649466 L-4.731233236197889,-83.20106573542208 L-4.9260850329261,-80.92058330058714" fill-opacity="0" stroke="black" stroke-width="1" />
<path d="M-4.731233236197889,83.20106573542208 L-4.9260850329261,80.92058330058714 L0.0,70.0" fill-opacity="0" stroke="black" stroke-width="1" />
<path d="M-4.731233236197889,-16.798934264577916 L-4.9260850329261,-19.079416699412867 L0.0,-30.0" fill-opacity="0" stroke="black" stroke-width="1" />
<path d="M-4.731233236197889,16.798934264577923 L-4.9260850329261,19.07941669941286 L0.0,30.0" fill-opacity="0" stroke="black" stroke-width="1" />
<path d="M-4.731233236197889,-83.20106573542208 L-4.9260850329261,-80.92058330058714 L0.0,-70.0" fill-opacity="0" stroke="black" stroke-width="1" />
<path d="M0.0,50.0 L-12.251857156016825,56.24026088577169 L-18.119902795296095,53.6238543633491" fill-opacity="0" stroke="black" stroke-width="1" />
<path d="M0.0,-50.0 L-12.251857156016825,-43.75973911422831 L-18.119902795296095,-46.3761456366509" fill-opacity="0" stroke="black" stroke-width="1" />
<path d="M0.0,50.0 L-12.251857156016825,43.75973911422831 L-18.119902795296095,46.3761456366509" fill-opacity="0" stroke="black" stroke-width="1" />
<path d="M0.0,-50.0 L-12.251857156016825,-56.24026088577169 L-18.119902795296095,-53.6238543633491" fill-opacity="0" stroke="black" stroke-width="1" />
<path d="M-12.251857156016825,56.24026088577169 L-18.119902795296095,53.6238543633491 L-20.0,50.0" fill-opacity="0" stroke="black" stroke-width="1" />
<path d="M-12.251857156016825,-43.75973911422831 L-18.119902795296095,-46.3761456366509 L-20.0,-50.0" fill-opacity="0" stroke="black" stroke-width="1" />
<path d="M-12.251857156016825,43.75973911422831 L-18.119902795296095,46.3761456366509 L-20.0,50.0" fill-opacity="0" stroke="black" stroke-width="1" />
<path d="M-12.251857156016825,-56.24026088577169 L-18.119902795296095,-53.6238543633491 L-20.0,-50.0" fill-opacity="0" stroke="black" stroke-width="1" />
<path d="M-20.0,80.0 L-2.932614681498502,89.24196795948464 L-2.3140754390828966,92.6101365096871" fill-opacity="0" stroke="black" stroke-width="1" />
<path d="M-20.0,-20.0 L-2.932614681498502,-10.758032040515364 L-2.3140754390828966,-7.389863490312898" fill-opacity="0" stroke="black" stroke-width="1" />
<path d="M-20.0,20.0 L-2.932614681498502,10.75803204051536 L-2.3140754390828966,7.389863490312905" fill-opacity="0" stroke="black" stroke-width="1" />
<path d="M-20.0,-80.0 L-2.932614681498502,-89.24196795948464 L-2.3140754390828966,-92.6101365096871" fill-opacity="0" stroke="black" stroke-width="1" />
<path d="M-2.932614681498502,89.24196795948464 L-2.3140754390828966,92.6101365096871 L-1.9370738055576986,93.58706038863703" fill-opacity="0" stroke="black" stroke-width="1" />
<path d="M-2.932614681498502,-10.758032040515364 L-2.3140754390828966,-7.389863490312898 L-1.9370738055576986,-6.412939611362972" fill-opacity="0" stroke="black" stroke-width="1" />
<path d="M-2.932614681498502,10.75803204051536 L-2.3140754390828966,7.389863490312905 L-1.9370738055576986,6.412939611362972" fill-opacity="0" stroke="black" stroke-width="1" />
<path d="M-2.932614681498502,-89.24196795948464 L-2.3140754390828966,-92.6101365096871 L-1.9370738055576986,-93.58706038863703" fill-opacity="0" stroke="black" stroke-width="1" />
<path d="M-2.3140754390828966,92.6101365096871 L-1.9370738055576986,93.58706038863703 L-0.769402361229261,97.3298003232191" fill-opacity="0" stroke="black" stroke-width="1" />
<path d="M-2.3140754390828966,-7.389863490312898 L-1.9370738055576986,-6.412939611362972 L-0.769402361229261,-2.670199676780899" fill-opacity="0" stroke="black" stroke-width="1" />
<path d="M-2.3140754390828966,7.389863490312905 L-1.9370738055576986,6.412939611362972 L-0.769402361229261,2.6701996767808964" fill-opacity="0" stroke="black" stroke-width="1" />
<path d="M-2.3140754390828966,-92.6101365096871 L-1.9370738055576986,-93.58706038863703 L-0.769402361229261,-97.3298003232191" fill-opacity="0" stroke="black" stroke-width="1" />
<path d="M-1.9370738055576986,93.58706038863703 L-0.769402361229261,97.3298003232191 L-2.0,98.0" fill-opacity="0" stroke="black" stroke-width="1" />
<path d="M-1.9370738055576986,-6.412939611362972 L-0.769402361229261,-2.670199676780899 L-2.0,-2.0" fill-opacity="0" stroke="black" stroke-width="1" />
<path d="M-1.9370738055576986,6.412939611362972 L-0.769402361229261,2.6701996767808964 L-2.0,2.0" fill-opacity="0" stroke="black" stroke-width="1" />
<path d="M-1.9370738055576986,-93.58706038863703 L-0.769402361229261,-97.3298003232191 L-2.0,-98.0" fill-opacity="0" stroke="black" stroke-width="1" />
<path d="M-2.0,98.0 L-0.03720778793688852,98.5396832418228 L0.0,100.0" fill-opacity="0" stroke="black" stroke-width="1" />
<path d="M-2.0,-2.0 L-0.03720778793688852,-1.4603167581771992 L0.0,-0.0" fill-opacity="0" stroke="black" stroke-width="1" />
<path d="M-2.0,2.0 L-0.03720778793688852,1.4603167581771999 L0.0,-0.0" fill-opacity="0" stroke="black" stroke-width="1" />
<path d="M-2.0,-98.0 L-0.03720778793688852,-98.5396832418228 L0.0,-100.0" fill-opacity="0" stroke="black" stroke-width="1" />
<path d="M-89.0,-0.0 L-88.21887835649466,-3.751189799517049 L-83.20106573542208,-4.731233236197889" fill-opacity="0" stroke="black" stroke-width="1" />
<path d="M-89.0,-0.0 L-88.21887835649466,3.751189799517049 L-83.20106573542208,4.731233236197889" fill-opacity="0" stroke="black" stroke-width="1" />
<path d="M-88.21887835649466,-3.751189799517049 L-83.20106573542208,-4.731233236197889 L-80.92058330058714,-4.9260850329261" fill-opacity="0" stroke="black" stroke-width="1" />
<path d="M-88.21887835649466,3.751189799517049 L-83.20106573542208,4.731233236197889 L-80.92058330058714,4.9260850329261" fill-opacity="0" stroke="black" stroke-width="1" />
<path d="M-83.20106573542208,-4.731233236197889 L-80.92058330058714,-4.9260850329261 L-70.0,-0.0" fill-opacity="0" stroke="black" stroke-width="1" />
<path d="M-83.20106573542208,4.731233236197889 L-80.92058330058714,4.9260850329261 L-70.0,-0.0" fill-opacity="0" stroke="black" stroke-width="1" />
<path d="M-52.0,-48.0 L-70.0,-30.0 L-74.0,-26.0" fill-opacity="0" stroke="black" stroke-width="1" />
<path d="M-52.0,48.0 L-70.0,30.0 L-74.0,26.0" fill-opacity="0" stroke="black" stroke-width="1" />
<path d="M-50.0,-0.0 L-56.24026088577169,-12.251857156016825 L-53.6238543633491,-18.119902795296095" fill-opacity="0" stroke="black" stroke-width="1" />
<path d="M-50.0,-0.0 L-56.24026088577169,12.251857156016825 L-53.6238543633491,18.119902795296095" fill-opacity="0" stroke="black" stroke-width="1" />
<path d="M-56.24026088577169,-12.251857156016825 L-53.6238543633491,-18.119902795296095 L-50.0,-20.0" fill-opacity="0" stroke="black" stroke-width="1" />
<path d="M-56.24026088577169,12.251857156016825 L-53.6238543633491,18.119902795296095 L-50.0,20.0" fill-opacity="0" stroke="black" stroke-width="1" />
<path d="M-50.0,-50.0 L-52.0,-48.0 L-70.0,-30.0" fill-opacity="0" stroke="black" stroke-width="1" />
<path d="M-50.0,50.0 L-52.0,48.0 L-70.0,30.0" fill-opacity="0" stroke="black" stroke-width="1" />
<path d="M-70.0,-30.0 L-74.0,-26.0 L-80.0,-20.0" fill-opacity="0" stroke="black" stroke-width="1" />
<path d="M-70.0,30.0 L-74.0,26.0 L-80.0,20.0" fill-opacity="0" stroke="black" stroke-width="1" />
<path d="M-74.0,-26.0 L-80.0,-20.0 L-89.24196795948464,-2.932614681498502" fill-opacity="0" stroke="black" stroke-width="1" />
<path d="M-74.0,26.0 L-80.0,20.0 L-89.24196795948464,2.932614681498502" fill-opacity="0" stroke="black" stroke-width="1" />
<path d="M-80.0,-20.0 L-89.24196795948464,-2.932614681498502 L-92.6101365096871,-2.3140754390828966" fill-opacity="0" stroke="black" stroke-width="1" />
<path d="M-80.0,20.0 L-89.24196795948464,2.932614681498502 L-92.6101365096871,2.3140754390828966" fill-opacity="0" stroke="black" stroke-width="1" />
<path d="M-89.24196795948464,-2.932614681498502 L-92.6101365096871,-2.3140754390828966 L-93.58706038863703,-1.9370738055576986" fill-opacity="0" stroke="black" stroke-width="1" />
<path d="M-89.24196795948464,2.932614681498502 L-92.6101365096871,2.3140754390828966 L-93.58706038863703,1.9370738055576986" fill-opacity="0" stroke="black" stroke-width="1" />
<path d="M-92.6101365096871,-2.3140754390828966 L-93.58706038863703,-1.9370738055576986 L-97.3298003232191,-0.769402361229261" fill-opacity="0" stroke="black" stroke-width="1" />
<path d="M-92.6101365096871,2.3140754390828966 L-93.58706038863703,1.9370738055576986 L-97.3298003232191,0.769402361229261" fill-opacity="0" stroke="black" stroke-width="1" />
<path d="M-93.58706038863703,-1.9370738055576986 L-97.3298003232191,-0.769402361229261 L-98.0,-2.0" fill-opacity="0" stroke="black" stroke-width="1" />
<path d="M-93.58706038863703,1.9370738055576986 L-97.3298003232191,0.769402361229261 L-98.0,2.0" fill-opacity="0" stroke="black" stroke-width="1" />
<path d="M-97.3298003232191,-0.769402361229261 L-98.0,-2.0 L-98.5396832418228,-0.03720778793688852" fill-opacity="0" stroke="black" stroke-width="1" />
<path d="M-97.3298003232191,0.769402361229261 L-98.0,2.0 L-98.5396832418228,0.03720778793688852" fill-opacity="0" stroke="black" stroke-width="1" />
<path d="M-98.0,-2.0 L-98.5396832418228,-0.03720778793688852 L-100.0,-0.0" fill-opacity="0" stroke="black" stroke-width="1" />
<path d="M-98.0,2.0 L-98.5396832418228,0.03720778793688852 L-100.0,-0.0" fill-opacity="0" stroke="black" stroke-width="1" />
</svg>