<?xml version="1.0" encoding="UTF-8"?>
<svg xmlns="http://www.w3.org/2000/svg" xmlns:xlink="http://www.w3.org/1999/xlink"
     width="250" height="250" viewBox="-125.0 -125.0 250 250">
<defs>
</defs>
<path d="M0.0,-0.0 L10.73795579338676,-0.6911666126945493 L10.977535085020824,-1.371723848824613" fill="purple" fill-opacity="0.6" stroke="black" stroke-width="1" />
<path d="M0.0,-0.0 L10.73795579338676,0.6911666126945493 L10.977535085020824,1.371723848824613" fill="green" fill-opacity="0.6" stroke="black" stroke-width="1" />
<path d="M10.73795579338676,-0.6911666126945493 L10.977535085020824,-1.371723848824613 L12.454923543657687,-1.417659985923185" fill="brown" fill-opacity="0.6" stroke="black" stroke-width="1" />
<path d="M10.73795579338676,0.6911666126945493 L10.977535085020824,1.371723848824613 L12.454923543657687,1.417659985923185" fill="pink" fill-opacity="0.6" stroke="black" stroke-width="1" />
<path d="M10.977535085020824,-1.371723848824613 L12.454923543657687,-1.417659985923185 L17.295743308464484,-2.768651479728998" fill="purple" fill-opacity="0.6" stroke="black" stroke-width="1" />
<path d="M10.977535085020824,1.371723848824613 L12.454923543657687,1.417659985923185 L17.295743308464484,2.768651479728998" fill="pink" fill-opacity="0.6" stroke="black" stroke-width="1" />
<path d="M12.454923543657687,-1.417659985923185 L17.295743308464484,-2.768651479728998 L20.254903721634843,-4.276885490267116" fill="pink" fill-opacity="0.6" stroke="black" stroke-width="1" />
<path d="M12.454923543657687,1.417659985923185 L17.295743308464484,2.768651479728998 L20.254903721634843,4.276885490267116" fill="yellow" fill-opacity="0.6" stroke="black" stroke-width="1" />
<path d="M17.295743308464484,-2.768651479728998 L20.254903721634843,-4.276885490267116 L21.664118536824812,-4.629964672233314" fill="pink" fill-opacity="0.6" stroke="black" stroke-width="1" />
<path d="M17.295743308464484,2.768651479728998 L20.254903721634843,4.276885490267116 L21.664118536824812,4.629964672233314" fill="orange" fill-opacity="0.6" stroke="black" stroke-width="1" />
<path d="M20.254903721634843,-4.276885490267116 L21.664118536824812,-4.629964672233314 L23.086835926796134,-6.7001121127069085" fill="orange" fill-opacity="0.6" stroke="black" stroke-width="1" />
<path d="M20.254903721634843,4.276885490267116 L21.664118536824812,4.629964672233314 L23.086835926796134,6.7001121127069085" fill="red" fill-opacity="0.6" stroke="black" stroke-width="1" />
<path d="M21.664118536824812,-4.629964672233314 L23.086835926796134,-6.7001121127069085 L25.972675270639346,-11.03786340583289" fill="yellow" fill-opacity="0.6" stroke="black" stroke-width="1" />
<path d="M21.664118536824812,4.629964672233314 L23.086835926796134,6.7001121127069085 L25.972675270639346,11.03786340583289" fill="yellow" fill-opacity="0.6" stroke="black" stroke-width="1" />
<path d="M23.086835926796134,-6.7001121127069085 L25.972675270639346,-11.03786340583289 L30.23312162887224,-11.58305725679139" fill="brown" fill-opacity="0.6" stroke="black" stroke-width="1" />
<path d="M23.086835926796134,6.7001121127069085 L25.972675270639346,11.03786340583289 L30.23312162887224,11.58305725679139" fill="pink" fill-opacity="0.6" stroke="black" stroke-width="1" />
<path d="M25.972675270639346,-11.03786340583289 L30.23312162887224,-11.58305725679139 L31.0,-0.0" fill="blue" fill-opacity="0.6" stroke="black" stroke-width="1" />
<path d="M25.972675270639346,11.03786340583289 L30.23312162887224,11.58305725679139 L31.0,-0.0" fill="purple" fill-opacity="0.6" stroke="black" stroke-width="1" />
<path d="M31.0,-0.0 L32.166487592048924,-14.95995147036249 L36.0,-0.0" fill="pink" fill-opacity="0.6" stroke="black" stroke-width="1" />
<path d="M31.0,-0.0 L32.166487592048924,14.95995147036249 L36.0,-0.0" fill="brown" fill-opacity="0.6" stroke="black" stroke-width="1" />
<path d="M50.0,-10.0 L38.409773032040434,-16.557042951891596 L43.26955865970362,-16.86863559982717" fill="orange" fill-opacity="0.6" stroke="black" stroke-width="1" />
<path d="M50.0,10.0 L38.409773032040434,16.557042951891596 L43.26955865970362,16.86863559982717" fill="black" fill-opacity="0.6" stroke="black" stroke-width="1" />
<path d="M38.409773032040434,-16.557042951891596 L43.26955865970362,-16.86863559982717 L45.003155950446725,-18.1069967751449" fill="green" fill-opacity="0.6" stroke="black" stroke-width="1" />
<path d="M38.409773032040434,16.557042951891596 L43.26955865970362,16.86863559982717 L45.003155950446725,18.1069967751449" fill="orange" fill-opacity="0.6" stroke="black" stroke-width="1" />
<path d="M43.26955865970362,-16.86863559982717 L45.003155950446725,-18.1069967751449 L45.46015538648598,-19.29747846352076" fill="pink" fill-opacity="0.6" stroke="black" stroke-width="1" />
<path d="M43.26955865970362,16.86863559982717 L45.003155950446725,18.1069967751449 L45.46015538648598,19.29747846352076" fill="pink" fill-opacity="0.6" stroke="black" stroke-width="1" />
<path d="M45.003155950446725,-18.1069967751449 L45.46015538648598,-19.29747846352076 L50.0,-23.0" fill="orange" fill-opacity="0.6" stroke="black" stroke-width="1" />
<path d="M45.003155950446725,18.1069967751449 L45.46015538648598,19.29747846352076 L50.0,23.0" fill="black" fill-opacity="0.6" stroke="black" stroke-width="1" />
<path d="M50.0,-23.0 L46.206544449408796,-25.855186476175795 L46.87167888869237,-32.191692292439086" fill="purple" fill-opacity="0.6" stroke="black" stroke-width="1" />
<path d="M50.0,23.0 L46.206544449408796,25.855186476175795 L46.87167888869237,32.191692292439086" fill="red" fill-opacity="0.6" stroke="black" stroke-width="1" />
<path d="M46.206544449408796,-25.855186476175795 L46.87167888869237,-32.191692292439086 L50.0,-39.0" fill="brown" fill-opacity="0.6" stroke="black" stroke-width="1" />
<path d="M46.206544449408796,25.855186476175795 L46.87167888869237,32.191692292439086 L50.0,39.0" fill="yellow" fill-opacity="0.6" stroke="black" stroke-width="1" />
<path d="M50.0,50.0 L44.0,56.0 L28.0,72.0" fill="brown" fill-opacity="0.6" stroke="black" stroke-width="1" />
<path d="M50.0,-50.0 L44.0,-56.0 L28.0,-72.0" fill="purple" fill-opacity="0.6" stroke="black" stroke-width="1" />
<path d="M44.0,56.0 L28.0,72.0 L23.0,77.0" fill="yellow" fill-opacity="0.6" stroke="black" stroke-width="1" />
<path d="M44.0,-56.0 L28.0,-72.0 L23.0,-77.0" fill="green" fill-opacity="0.6" stroke="black" stroke-width="1" />
<path d="M28.0,72.0 L23.0,77.0 L22.0,78.0" fill="brown" fill-opacity="0.6" stroke="black" stroke-width="1" />
<path d="M28.0,-72.0 L23.0,-77.0 L22.0,-78.0" fill="orange" fill-opacity="0.6" stroke="black" stroke-width="1" />
<path d="M23.0,77.0 L22.0,78.0 L20.0,80.0" fill="black" fill-opacity="0.6" stroke="black" stroke-width="1" />
<path d="M23.0,-77.0 L22.0,-78.0 L20.0,-80.0" fill="black" fill-opacity="0.6" stroke="black" stroke-width="1" />
<path d="M22.0,78.0 L20.0,80.0 L17.0,83.0" fill="red" fill-opacity="0.6" stroke="black" stroke-width="1" />
<path d="M22.0,-78.0 L20.0,-80.0 L17.0,-83.0" fill="pink" fill-opacity="0.6" stroke="black" stroke-width="1" />
<path d="M20.0,80.0 L17.0,83.0 L1.0,99.0" fill="blue" fill-opacity="0.6" stroke="black" stroke-width="1" />
<path d="M20.0,-80.0 L17.0,-83.0 L1.0,-99.0" fill="brown" fill-opacity="0.6" stroke="black" stroke-width="1" />
<path d="M17.0,83.0 L1.0,99.0 L0.34087974625271633,99.48050045729042" fill="red" fill-opacity="0.6" stroke="black" stroke-width="1" />
<path d="M17.0,-83.0 L1.0,-99.0 L0.34087974625271633,-99.48050045729042" fill="orange" fill-opacity="0.6" stroke="black" stroke-width="1" />
<path d="M1.0,-1.0 L0.5194995427095894,-0.34087974625271633 L0.0,-0.0" fill="purple" fill-opacity="0.6" stroke="black" stroke-width="1" />
<path d="M1.0,1.0 L0.5194995427095894,0.34087974625271633 L0.0,-0.0" fill="yellow" fill-opacity="0.6" stroke="black" stroke-width="1" />
<path d="M0.0,-0.0 L-10.73795579338676,-0.6911666126945493 L-10.977535085020824,-1.371723848824613" fill="yellow" fill-opacity="0.6" stroke="black" stroke-width="1" />
<path d="M0.0,-0.0 L-10.73795579338676,0.6911666126945493 L-10.977535085020824,1.371723848824613" fill="pink" fill-opacity="0.6" stroke="black" stroke-width="1" />
<path d="M-10.73795579338676,-0.6911666126945493 L-10.977535085020824,-1.371723848824613 L-12.454923543657687,-1.417659985923185" fill="pink" fill-opacity="0.6" stroke="black" stroke-width="1" />
<path d="M-10.73795579338676,0.6911666126945493 L-10.977535085020824,1.371723848824613 L-12.454923543657687,1.417659985923185" fill="black" fill-opacity="0.6" stroke="black" stroke-width="1" />
<path d="M-10.977535085020824,-1.371723848824613 L-12.454923543657687,-1.417659985923185 L-17.295743308464484,-2.768651479728998" fill="green" fill-opacity="0.6" stroke="black" stroke-width="1" />
<path d="M-10.977535085020824,1.371723848824613 L-12.454923543657687,1.417659985923185 L-17.295743308464484,2.768651479728998" fill="blue" fill-opacity="0.6" stroke="black" stroke-width="1" />
<path d="M-12.454923543657687,-1.417659985923185 L-17.295743308464484,-2.768651479728998 L-20.254903721634843,-4.276885490267116" fill="pink" fill-opacity="0.6" stroke="black" stroke-width="1" />
<path d="M-12.454923543657687,1.417659985923185 L-17.295743308464484,2.768651479728998 L-20.254903721634843,4.276885490267116" fill="red" fill-opacity="0.6" stroke="black" stroke-width="1" />
<path d="M-17.295743308464484,-2.768651479728998 L-20.254903721634843,-4.276885490267116 L-21.664118536824812,-4.629964672233314" fill="red" fill-opacity="0.6" stroke="black" stroke-width="1" />
<path d="M-17.295743308464484,2.768651479728998 L-20.254903721634843,4.276885490267116 L-21.664118536824812,4.629964672233314" fill="brown" fill-opacity="0.6" stroke="black" stroke-width="1" />
<path d="M-20.254903721634843,-4.276885490267116 L-21.664118536824812,-4.629964672233314 L-23.086835926796134,-6.7001121127069085" fill="black" fill-opacity="0.6" stroke="black" stroke-width="1" />
<path d="M-20.254903721634843,4.276885490267116 L-21.664118536824812,4.629964672233314 L-23.086835926796134,6.7001121127069085" fill="purple" fill-opacity="0.6" stroke="black" stroke-width="1" />
<path d="M-21.664118536824812,-4.629964672233314 L-23.086835926796134,-6.7001121127069085 L-25.972675270639346,-11.03786340583289" fill="red" fill-opacity="0.6" stroke="black" stroke-width="1" />
<path d="M-21.664118536824812,4.629964672233314 L-23.086835926796134,6.7001121127069085 L-25.972675270639346,11.03786340583289" fill="brown" fill-opacity="0.6" stroke="black" stroke-width="1" />
<path d="M-23.086835926796134,-6.7001121127069085 L-25.972675270639346,-11.03786340583289 L-30.23312162887224,-11.58305725679139" fill="purple" fill-opacity="0.6" stroke="black" stroke-width="1" />
<path d="M-23.086835926796134,6.7001121127069085 L-25.972675270639346,11.03786340583289 L-30.23312162887224,11.58305725679139" fill="brown" fill-opacity="0.6" stroke="black" stroke-width="1" />
<path d="M-25.972675270639346,-11.03786340583289 L-30.23312162887224,-11.58305725679139 L-31.0,-0.0" fill="purple" fill-opacity="0.6" stroke="black" stroke-width="1" />
<path d="M-25.972675270639346,11.03786340583289 L-30.23312162887224,11.58305725679139 L-31.0,-0.0" fill="brown" fill-opacity="0.6" stroke="black" stroke-width="1" />
<path d="M-31.0,-0.0 L-32.166487592048924,-14.95995147036249 L-36.0,-0.0" fill="black" fill-opacity="0.6" stroke="black" stroke-width="1" />
<path d="M-31.0,-0.0 L-32.166487592048924,14.95995147036249 L-36.0,-0.0" fill="orange" fill-opacity="0.6" stroke="black" stroke-width="1" />
<path d="M-50.0,-10.0 L-38.409773032040434,-16.557042951891596 L-43.26955865970362,-16.86863559982717" fill="green" fill-opacity="0.6" stroke="black" stroke-width="1" />
<path d="M-50.0,10.0 L-38.409773032040434,16.557042951891596 L-43.26955865970362,16.86863559982717" fill="blue" fill-opacity="0.6" stroke="black" stroke-width="1" />
<path d="M-38.409773032040434,-16.557042951891596 L-43.26955865970362,-16.86863559982717 L-45.003155950446725,-18.1069967751449" fill="black" fill-opacity="0.6" stroke="black" stroke-width="1" />
<path d="M-38.409773032040434,16.557042951891596 L-43.26955865970362,16.86863559982717 L-45.003155950446725,18.1069967751449" fill="black" fill-opacity="0.6" stroke="black" stroke-width="1" />
<path d="M-43.26955865970362,-16.86863559982717 L-45.003155950446725,-18.1069967751449 L-45.46015538648598,-19.29747846352076" fill="purple" fill-opacity="0.6" stroke="black" stroke-width="1" />
<path d="M-43.26955865970362,16.86863559982717 L-45.003155950446725,18.1069967751449 L-45.46015538648598,19.29747846352076" fill="red" fill-opacity="0.6" stroke="black" stroke-width="1" />
<path d="M-45.003155950446725,-18.1069967751449 L-45.46015538648598,-19.29747846352076 L-50.0,-23.0" fill="yellow" fill-opacity="0.6" stroke="black" stroke-width="1" />
<path d="M-45.003155950446725,18.1069967751449 L-45.46015538648598,19.29747846352076 L-50.0,23.0" fill="pink" fill-opacity="0.6" stroke="black" stroke-width="1" />
<path d="M-50.0,-23.0 L-46.206544449408796,-25.855186476175795 L-46.87167888869237,-32.191692292439086" fill="brown" fill-opacity="0.6" stroke="black" stroke-width="1" />
<path d="M-50.0,23.0 L-46.206544449408796,25.855186476175795 L-46.87167888869237,32.191692292439086" fill="black" fill-opacity="0.6" stroke="black" stroke-width="1" />
<path d="M-46.206544449408796,-25.855186476175795 L-46.87167888869237,-32.191692292439086 L-50.0,-39.0" fill="brown" fill-opacity="0.6" stroke="black" stroke-width="1" />
<path d="M-46.206544449408796,25.855186476175795 L-46.87167888869237,32.191692292439086 L-50.0,39.0" fill="pink" fill-opacity="0.6" stroke="black" stroke-width="1" />
<path d="M-50.0,50.0 L-44.0,56.0 L-28.0,72.0" fill="green" fill-opacity="0.6" stroke="black" stroke-width="1" />
<path d="M-50.0,-50.0 L-44.0,-56.0 L-28.0,-72.0" fill="black" fill-opacity="0.6" stroke="black" stroke-width="1" />
<path d="M-44.0,56.0 L-28.0,72.0 L-23.0,77.0" fill="brown" fill-opacity="0.6" stroke="black" stroke-width="1" />
<path d="M-44.0,-56.0 L-28.0,-72.0 L-23.0,-77.0" fill="black" fill-opacity="0.6" stroke="black" stroke-width="1" />
<path d="M-28.0,72.0 L-23.0,77.0 L-22.0,78.0" fill="brown" fill-opacity="0.6" stroke="black" stroke-width="1" />
<path d="M-28.0,-72.0 L-23.0,-77.0 L-22.0,-78.0" fill="orange" fill-opacity="0.6" stroke="black" stroke-width="1" />
<path d="M-23.0,77.0 L-22.0,78.0 L-20.0,80.0" fill="blue" fill-opacity="0.6" stroke="black" stroke-width="1" />
<path d="M-23.0,-77.0 L-22.0,-78.0 L-20.0,-80.0" fill="purple" fill-opacity="0.6" stroke="black" stroke-width="1" />
<path d="M-22.0,78.0 L-20.0,80.0 L-17.0,83.0" fill="green" fill-opacity="0.6" stroke="black" stroke-width="1" />
<path d="M-22.0,-78.0 L-20.0,-80.0 L-17.0,-83.0" fill="brown" fill-opacity="0.6" stroke="black" stroke-width="1" />
<path d="M-20.0,80.0 L-17.0,83.0 L-1.0,99.0" fill="blue" fill-opacity="0.6" stroke="black" stroke-width="1" />
<path d="M-20.0,-80.0 L-17.0,-83.0 L-1.0,-99.0" fill="red" fill-opacity="0.6" stroke="black" stroke-width="1" />
<path d="M-17.0,83.0 L-1.0,99.0 L-0.34087974625271633,99.4805004572904" fill="yellow" fill-opacity="0.6" stroke="black" stroke-width="1" />
<path d="M-17.0,-83.0 L-1.0,-99.0 L-0.34087974625271633,-99.48050045729042" fill="green" fill-opacity="0.6" stroke="black" stroke-width="1" />
<path d="M-1.0,-1.0 L-0.5194995427095894,-0.34087974625271633 L0.0,-0.0" fill="black" fill-opacity="0.6" stroke="black" stroke-width="1" />
<path d="M-1.0,1.0 L-0.5194995427095894,0.34087974625271633 L0.0,-0.0" fill="yellow" fill-opacity="0.6" stroke="black" stroke-width="1" />
<path d="M100.0,-0.0 L89.26204420661324,0.6911666126945493 L89.02246491497917,1.371723848824613" fill="pink" fill-opacity="0.6" stroke="black" stroke-width="1" />
<path d="M100.0,-0.0 L89.26204420661324,-0.6911666126945493 L89.02246491497917,-1.371723848824613" fill="purple" fill-opacity="0.6" stroke="black" stroke-width="1" />
<path d="M89.26204420661324,0.6911666126945493 L89.02246491497917,1.371723848824613 L87.54507645634231,1.417659985923185" fill="orange" fill-opacity="0.6" stroke="black" stroke-width="1" />
<path d="M89.26204420661324,-0.6911666126945493 L89.02246491497917,-1.371723848824613 L87.54507645634231,-1.417659985923185" fill="brown" fill-opacity="0.6" stroke="black" stroke-width="1" />
<path d="M89.02246491497917,1.371723848824613 L87.54507645634231,1.417659985923185 L82.70425669153552,2.768651479728998" fill="orange" fill-opacity="0.6" stroke="black" stroke-width="1" />
<path d="M89.02246491497917,-1.371723848824613 L87.54507645634231,-1.417659985923185 L82.70425669153552,-2.768651479728998" fill="orange" fill-opacity="0.6" stroke="black" stroke-width="1" />
<path d="M87.54507645634231,1.417659985923185 L82.70425669153552,2.768651479728998 L79.74509627836515,4.276885490267116" fill="black" fill-opacity="0.6" stroke="black" stroke-width="1" />
<path d="M87.54507645634231,-1.417659985923185 L82.70425669153552,-2.768651479728998 L79.74509627836515,-4.276885490267116" fill="green" fill-opacity="0.6" stroke="black" stroke-width="1" />
<path d="M82.70425669153552,2.768651479728998 L79.74509627836515,4.276885490267116 L78.33588146317518,4.629964672233314" fill="yellow" fill-opacity="0.6" stroke="black" stroke-width="1" />
<path d="M82.70425669153552,-2.768651479728998 L79.74509627836515,-4.276885490267116 L78.33588146317518,-4.629964672233314" fill="green" fill-opacity="0.6" stroke="black" stroke-width="1" />
<path d="M79.74509627836515,4.276885490267116 L78.33588146317518,4.629964672233314 L76.91316407320386,6.7001121127069085" fill="brown" fill-opacity="0.6" stroke="black" stroke-width="1" />
<path d="M79.74509627836515,-4.276885490267116 L78.33588146317518,-4.629964672233314 L76.91316407320386,-6.7001121127069085" fill="green" fill-opacity="0.6" stroke="black" stroke-width="1" />
<path d="M78.33588146317518,4.629964672233314 L76.91316407320386,6.7001121127069085 L74.02732472936066,11.03786340583289" fill="green" fill-opacity="0.6" stroke="black" stroke-width="1" />
<path d="M78.33588146317518,-4.629964672233314 L76.91316407320386,-6.7001121127069085 L74.02732472936066,-11.03786340583289" fill="orange" fill-opacity="0.6" stroke="black" stroke-width="1" />
<path d="M76.91316407320386,6.7001121127069085 L74.02732472936066,11.03786340583289 L69.76687837112776,11.58305725679139" fill="yellow" fill-opacity="0.6" stroke="black" stroke-width="1" />
<path d="M76.91316407320386,-6.7001121127069085 L74.02732472936066,-11.03786340583289 L69.76687837112776,-11.58305725679139" fill="orange" fill-opacity="0.6" stroke="black" stroke-width="1" />
<path d="M74.02732472936066,11.03786340583289 L69.76687837112776,11.58305725679139 L69.0,-0.0" fill="brown" fill-opacity="0.6" stroke="black" stroke-width="1" />
<path d="M74.02732472936066,-11.03786340583289 L69.76687837112776,-11.58305725679139 L69.0,-0.0" fill="blue" fill-opacity="0.6" stroke="black" stroke-width="1" />
<path d="M69.0,-0.0 L67.83351240795108,14.95995147036249 L64.0,-0.0" fill="black" fill-opacity="0.6" stroke="black" stroke-width="1" />
<path d="M69.0,-0.0 L67.83351240795108,-14.95995147036249 L64.0,-0.0" fill="red" fill-opacity="0.6" stroke="black" stroke-width="1" />
<path d="M50.0,10.0 L61.590226967959566,16.557042951891596 L56.73044134029638,16.86863559982717" fill="green" fill-opacity="0.6" stroke="black" stroke-width="1" />
<path d="M50.0,-10.0 L61.590226967959566,-16.557042951891596 L56.73044134029638,-16.86863559982717" fill="blue" fill-opacity="0.6" stroke="black" stroke-width="1" />
<path d="M61.590226967959566,16.557042951891596 L56.73044134029638,16.86863559982717 L54.996844049553275,18.1069967751449" fill="yellow" fill-opacity="0.6" stroke="black" stroke-width="1" />
<path d="M61.590226967959566,-16.557042951891596 L56.73044134029638,-16.86863559982717 L54.996844049553275,-18.1069967751449" fill="blue" fill-opacity="0.6" stroke="black" stroke-width="1" />
<path d="M56.73044134029638,16.86863559982717 L54.996844049553275,18.1069967751449 L54.53984461351402,19.29747846352076" fill="brown" fill-opacity="0.6" stroke="black" stroke-width="1" />
<path d="M56.73044134029638,-16.86863559982717 L54.996844049553275,-18.1069967751449 L54.53984461351402,-19.29747846352076" fill="black" fill-opacity="0.6" stroke="black" stroke-width="1" />
<path d="M54.996844049553275,18.1069967751449 L54.53984461351402,19.29747846352076 L50.0,23.0" fill="black" fill-opacity="0.6" stroke="black" stroke-width="1" />
<path d="M54.996844049553275,-18.1069967751449 L54.53984461351402,-19.29747846352076 L50.0,-23.0" fill="red" fill-opacity="0.6" stroke="black" stroke-width="1" />
<path d="M50.0,23.0 L53.793455550591204,25.855186476175795 L53.12832111130763,32.191692292439086" fill="red" fill-opacity="0.6" stroke="black" stroke-width="1" />
<path d="M50.0,-23.0 L53.793455550591204,-25.855186476175795 L53.12832111130763,-32.191692292439086" fill="yellow" fill-opacity="0.6" stroke="black" stroke-width="1" />
<path d="M53.793455550591204,25.855186476175795 L53.12832111130763,32.191692292439086 L50.0,39.0" fill="brown" fill-opacity="0.6" stroke="black" stroke-width="1" />
<path d="M53.793455550591204,-25.855186476175795 L53.12832111130763,-32.191692292439086 L50.0,-39.0" fill="red" fill-opacity="0.6" stroke="black" stroke-width="1" />
<path d="M50.0,50.0 L56.0,44.0 L72.0,28.0" fill="red" fill-opacity="0.6" stroke="black" stroke-width="1" />
<path d="M50.0,-50.0 L56.0,-44.0 L72.0,-28.0" fill="brown" fill-opacity="0.6" stroke="black" stroke-width="1" />
<path d="M56.0,44.0 L72.0,28.0 L77.0,23.0" fill="pink" fill-opacity="0.6" stroke="black" stroke-width="1" />
<path d="M56.0,-44.0 L72.0,-28.0 L77.0,-23.0" fill="purple" fill-opacity="0.6" stroke="black" stroke-width="1" />
<path d="M72.0,28.0 L77.0,23.0 L78.0,22.0" fill="orange" fill-opacity="0.6" stroke="black" stroke-width="1" />
<path d="M72.0,-28.0 L77.0,-23.0 L78.0,-22.0" fill="pink" fill-opacity="0.6" stroke="black" stroke-width="1" />
<path d="M77.0,23.0 L78.0,22.0 L80.0,20.0" fill="blue" fill-opacity="0.6" stroke="black" stroke-width="1" />
<path d="M77.0,-23.0 L78.0,-22.0 L80.0,-20.0" fill="pink" fill-opacity="0.6" stroke="black" stroke-width="1" />
<path d="M78.0,22.0 L80.0,20.0 L83.0,17.0" fill="red" fill-opacity="0.6" stroke="black" stroke-width="1" />
<path d="M78.0,-22.0 L80.0,-20.0 L83.0,-17.0" fill="red" fill-opacity="0.6" stroke="black" stroke-width="1" />
<path d="M80.0,20.0 L83.0,17.0 L99.0,1.0" fill="brown" fill-opacity="0.6" stroke="black" stroke-width="1" />
<path d="M80.0,-20.0 L83.0,-17.0 L99.0,-1.0" fill="red" fill-opacity="0.6" stroke="black" stroke-width="1" />
<path d="M83.0,17.0 L99.0,1.0 L99.48050045729042,0.34087974625271633" fill="red" fill-opacity="0.6" stroke="black" stroke-width="1" />
<path d="M83.0,-17.0 L99.0,-1.0 L99.48050045729042,-0.34087974625271633" fill="orange" fill-opacity="0.6" stroke="black" stroke-width="1" />
<path d="M99.0,1.0 L99.48050045729042,0.34087974625271633 L100.0,-0.0" fill="purple" fill-opacity="0.6" stroke="black" stroke-width="1" />
<path d="M99.0,-1.0 L99.48050045729042,-0.34087974625271633 L100.0,-0.0" fill="purple" fill-opacity="0.6" stroke="black" stroke-width="1" />
<path d="M0.0,-0.0 L0.6911666126945493,-10.73795579338676 L1.371723848824613,-10.977535085020824" fill="pink" fill-opacity="0.6" stroke="black" stroke-width="1" />
<path d="M0.0,-0.0 L0.6911666126945493,10.73795579338676 L1.371723848824613,10.977535085020824" fill="pink" fill-opacity="0.6" stroke="black" stroke-width="1" />
<path d="M0.0,100.0 L0.6911666126945493,89.26204420661324 L1.371723848824613,89.02246491497917" fill="green" fill-opacity="0.6" stroke="black" stroke-width="1" />
<path d="M0.0,-100.0 L0.6911666126945493,-89.26204420661324 L1.371723848824613,-89.02246491497917" fill="yellow" fill-opacity="0.6" stroke="black" stroke-width="1" />
<path d="M0.6911666126945493,-10.73795579338676 L1.371723848824613,-10.977535085020824 L1.417659985923185,-12.454923543657687" fill="blue" fill-opacity="0.6" stroke="black" stroke-width="1" />
<path d="M0.6911666126945493,10.73795579338676 L1.371723848824613,10.977535085020824 L1.417659985923185,12.454923543657687" fill="brown" fill-opacity="0.6" stroke="black" stroke-width="1" />
<path d="M0.6911666126945493,89.26204420661324 L1.371723848824613,89.02246491497917 L1.417659985923185,87.54507645634231" fill="blue" fill-opacity="0.6" stroke="black" stroke-width="1" />
<path d="M0.6911666126945493,-89.26204420661324 L1.371723848824613,-89.02246491497917 L1.417659985923185,-87.54507645634231" fill="purple" fill-opacity="0.6" stroke="black" stroke-width="1" />
<path d="M1.371723848824613,-10.977535085020824 L1.417659985923185,-12.454923543657687 L2.768651479728998,-17.295743308464484" fill="orange" fill-opacity="0.6" stroke="black" stroke-width="1" />
<path d="M1.371723848824613,10.977535085020824 L1.417659985923185,12.454923543657687 L2.768651479728998,17.295743308464484" fill="red" fill-opacity="0.6" stroke="black" stroke-width="1" />
<path d="M1.371723848824613,89.02246491497917 L1.417659985923185,87.54507645634231 L2.768651479728998,82.70425669153552" fill="black" fill-opacity="0.6" stroke="black" stroke-width="1" />
<path d="M1.371723848824613,-89.02246491497917 L1.417659985923185,-87.54507645634231 L2.768651479728998,-82.70425669153552" fill="yellow" fill-opacity="0.6" stroke="black" stroke-width="1" />
<path d="M1.417659985923185,-12.454923543657687 L2.768651479728998,-17.295743308464484 L4.276885490267116,-20.254903721634843" fill="orange" fill-opacity="0.6" stroke="black" stroke-width="1" />
<path d="M1.417659985923185,12.454923543657687 L2.768651479728998,17.295743308464484 L4.276885490267116,20.254903721634843" fill="black" fill-opacity="0.6" stroke="black" stroke-width="1" />
<path d="M1.417659985923185,87.54507645634231 L2.768651479728998,82.70425669153552 L4.276885490267116,79.74509627836515" fill="blue" fill-opacity="0.6" stroke="black" stroke-width="1" />
<path d="M1.417659985923185,-87.54507645634231 L2.768651479728998,-82.70425669153552 L4.276885490267116,-79.74509627836515" fill="red" fill-opacity="0.6" stroke="black" stroke-width="1" />
<path d="M2.768651479728998,-17.295743308464484 L4.276885490267116,-20.254903721634843 L4.629964672233314,-21.664118536824812" fill="orange" fill-opacity="0.6" stroke="black" stroke-width="1" />
<path d="M2.768651479728998,17.295743308464484 L4.276885490267116,20.254903721634843 L4.629964672233314,21.664118536824812" fill="pink" fill-opacity="0.6" stroke="black" stroke-width="1" />
<path d="M2.768651479728998,82.70425669153552 L4.276885490267116,79.74509627836515 L4.629964672233314,78.33588146317518" fill="green" fill-opacity="0.6" stroke="black" stroke-width="1" />
<path d="M2.768651479728998,-82.70425669153552 L4.276885490267116,-79.74509627836515 L4.629964672233314,-78.33588146317518" fill="brown" fill-opacity="0.6" stroke="black" stroke-width="1" />
<path d="M4.276885490267116,-20.254903721634843 L4.629964672233314,-21.664118536824812 L6.7001121127069085,-23.086835926796134" fill="blue" fill-opacity="0.6" stroke="black" stroke-width="1" />
<path d="M4.276885490267116,20.254903721634843 L4.629964672233314,21.664118536824812 L6.7001121127069085,23.086835926796134" fill="black" fill-opacity="0.6" stroke="black" stroke-width="1" />
<path d="M4.276885490267116,79.74509627836515 L4.629964672233314,78.33588146317518 L6.7001121127069085,76.91316407320386" fill="black" fill-opacity="0.6" stroke="black" stroke-width="1" />
<path d="M4.276885490267116,-79.74509627836515 L4.629964672233314,-78.33588146317518 L6.7001121127069085,-76.91316407320386" fill="pink" fill-opacity="0.6" stroke="black" stroke-width="1" />
<path d="M4.629964672233314,-21.664118536824812 L6.7001121127069085,-23.086835926796134 L11.03786340583289,-25.972675270639346" fill="red" fill-opacity="0.6" stroke="black" stroke-width="1" />
<path d="M4.629964672233314,21.664118536824812 L6.7001121127069085,23.086835926796134 L11.03786340583289,25.972675270639346" fill="brown" fill-opacity="0.6" stroke="black" stroke-width="1" />
<path d="M4.629964672233314,78.33588146317518 L6.7001121127069085,76.91316407320386 L11.03786340583289,74.02732472936066" fill="red" fill-opacity="0.6" stroke="black" stroke-width="1" />
<path d="M4.629964672233314,-78.33588146317518 L6.7001121127069085,-76.91316407320386 L11.03786340583289,-74.02732472936066" fill="yellow" fill-opacity="0.6" stroke="black" stroke-width="1" />
<path d="M6.7001121127069085,-23.086835926796134 L11.03786340583289,-25.972675270639346 L11.58305725679139,-30.23312162887224" fill="pink" fill-opacity="0.6" stroke="black" stroke-width="1" />
<path d="M6.7001121127069085,23.086835926796134 L11.03786340583289,25.972675270639346 L11.58305725679139,30.23312162887224" fill="pink" fill-opacity="0.6" stroke="black" stroke-width="1" />
<path d="M6.7001121127069085,76.91316407320386 L11.03786340583289,74.02732472936066 L11.58305725679139,69.76687837112776" fill="pink" fill-opacity="0.6" stroke="black" stroke-width="1" />
<path d="M6.7001121127069085,-76.91316407320386 L11.03786340583289,-74.02732472936066 L11.58305725679139,-69.76687837112776" fill="orange" fill-opacity="0.6" stroke="black" stroke-width="1" />
<path d="M11.03786340583289,-25.972675270639346 L11.58305725679139,-30.23312162887224 L0.0,-31.0" fill="purple" fill-opacity="0.6" stroke="black" stroke-width="1" />
<path d="M11.03786340583289,25.972675270639346 L11.58305725679139,30.23312162887224 L0.0,31.0" fill="black" fill-opacity="0.6" stroke="black" stroke-width="1" />
<path d="M11.03786340583289,74.02732472936066 L11.58305725679139,69.76687837112776 L0.0,69.0" fill="orange" fill-opacity="0.6" stroke="black" stroke-width="1" />
<path d="M11.03786340583289,-74.02732472936066 L11.58305725679139,-69.76687837112776 L0.0,-69.0" fill="red" fill-opacity="0.6" stroke="black" stroke-width="1" />
<path d="M0.0,-31.0 L14.95995147036249,-32.166487592048924 L0.0,-36.0" fill="black" fill-opacity="0.6" stroke="black" stroke-width="1" />
<path d="M0.0,31.0 L14.95995147036249,32.166487592048924 L0.0,36.0" fill="brown" fill-opacity="0.6" stroke="black" stroke-width="1" />
<path d="M0.0,69.0 L14.95995147036249,67.83351240795108 L0.0,64.0" fill="purple" fill-opacity="0.6" stroke="black" stroke-width="1" />
<path d="M0.0,-69.0 L14.95995147036249,-67.83351240795108 L0.0,-64.0" fill="brown" fill-opacity="0.6" stroke="black" stroke-width="1" />
<path d="M10.0,-50.0 L16.557042951891596,-38.409773032040434 L16.86863559982717,-43.26955865970362" fill="pink" fill-opacity="0.6" stroke="black" stroke-width="1" />
<path d="M10.0,50.0 L16.557042951891596,38.409773032040434 L16.86863559982717,43.26955865970362" fill="yellow" fill-opacity="0.6" stroke="black" stroke-width="1" />
<path d="M10.0,50.0 L16.557042951891596,61.590226967959566 L16.86863559982717,56.73044134029638" fill="purple" fill-opacity="0.6" stroke="black" stroke-width="1" />
<path d="M10.0,-50.0 L16.557042951891596,-61.590226967959566 L16.86863559982717,-56.73044134029638" fill="blue" fill-opacity="0.6" stroke="black" stroke-width="1" />
<path d="M16.557042951891596,-38.409773032040434 L16.86863559982717,-43.26955865970362 L18.1069967751449,-45.003155950446725" fill="black" fill-opacity="0.6" stroke="black" stroke-width="1" />
<path d="M16.557042951891596,38.409773032040434 L16.86863559982717,43.26955865970362 L18.1069967751449,45.003155950446725" fill="red" fill-opacity="0.6" stroke="black" stroke-width="1" />
<path d="M16.557042951891596,61.590226967959566 L16.86863559982717,56.73044134029638 L18.1069967751449,54.996844049553275" fill="brown" fill-opacity="0.6" stroke="black" stroke-width="1" />
<path d="M16.557042951891596,-61.590226967959566 L16.86863559982717,-56.73044134029638 L18.1069967751449,-54.996844049553275" fill="brown" fill-opacity="0.6" stroke="black" stroke-width="1" />
<path d="M16.86863559982717,-43.26955865970362 L18.1069967751449,-45.003155950446725 L19.29747846352076,-45.46015538648598" fill="purple" fill-opacity="0.6" stroke="black" stroke-width="1" />
<path d="M16.86863559982717,43.26955865970362 L18.1069967751449,45.003155950446725 L19.29747846352076,45.46015538648598" fill="orange" fill-opacity="0.6" stroke="black" stroke-width="1" />
<path d="M16.86863559982717,56.73044134029638 L18.1069967751449,54.996844049553275 L19.29747846352076,54.53984461351402" fill="blue" fill-opacity="0.6" stroke="black" stroke-width="1" />
<path d="M16.86863559982717,-56.73044134029638 L18.1069967751449,-54.996844049553275 L19.29747846352076,-54.53984461351402" fill="orange" fill-opacity="0.6" stroke="black" stroke-width="1" />
<path d="M18.1069967751449,-45.003155950446725 L19.29747846352076,-45.46015538648598 L23.0,-50.0" fill="brown" fill-opacity="0.6" stroke="black" stroke-width="1" />
<path d="M18.1069967751449,45.003155950446725 L19.29747846352076,45.46015538648598 L23.0,50.0" fill="blue" fill-opacity="0.6" stroke="black" stroke-width="1" />
<path d="M18.1069967751449,54.996844049553275 L19.29747846352076,54.53984461351402 L23.0,50.0" fill="orange" fill-opacity="0.6" stroke="black" stroke-width="1" />
<path d="M18.1069967751449,-54.996844049553275 L19.29747846352076,-54.53984461351402 L23.0,-50.0" fill="purple" fill-opacity="0.6" stroke="black" stroke-width="1" />
<path d="M23.0,-50.0 L25.855186476175795,-46.206544449408796 L32.191692292439086,-46.87167888869237" fill="green" fill-opacity="0.6" stroke="black" stroke-width="1" />
<path d="M23.0,50.0 L25.855186476175795,46.206544449408796 L32.191692292439086,46.87167888869237" fill="brown" fill-opacity="0.6" stroke="black" stroke-width="1" />
<path d="M23.0,50.0 L25.855186476175795,53.793455550591204 L32.191692292439086,53.12832111130763" fill="green" fill-opacity="0.6" stroke="black" stroke-width="1" />
<path d="M23.0,-50.0 L25.855186476175795,-53.793455550591204 L32.191692292439086,-53.12832111130763" fill="purple" fill-opacity="0.6" stroke="black" stroke-width="1" />
<path d="M25.855186476175795,-46.206544449408796 L32.191692292439086,-46.87167888869237 L39.0,-50.0" fill="green" fill-opacity="0.6" stroke="black" stroke-width="1" />
<path d="M25.855186476175795,46.206544449408796 L32.191692292439086,46.87167888869237 L39.0,50.0" fill="pink" fill-opacity="0.6" stroke="black" stroke-width="1" />
<path d="M25.855186476175795,53.793455550591204 L32.191692292439086,53.12832111130763 L39.0,50.0" fill="blue" fill-opacity="0.6" stroke="black" stroke-width="1" />
<path d="M25.855186476175795,-53.793455550591204 L32.191692292439086,-53.12832111130763 L39.0,-50.0" fill="red" fill-opacity="0.6" stroke="black" stroke-width="1" />
<path d="M1.0,-1.0 L0.34087974625271633,-0.5194995427095894 L0.0,-0.0" fill="purple" fill-opacity="0.6" stroke="black" stroke-width="1" />
<path d="M1.0,1.0 L0.34087974625271633,0.5194995427095894 L0.0,-0.0" fill="pink" fill-opacity="0.6" stroke="black" stroke-width="1" />
<path d="M1.0,99.0 L0.34087974625271633,99.48050045729042 L0.0,100.0" fill="blue" fill-opacity="0.6" stroke="black" stroke-width="1" />
<path d="M1.0,-99.0 L0.34087974625271633,-99.48050045729042 L0.0,-100.0" fill="pink" fill-opacity="0.6" stroke="black" stroke-width="1" />
<path d="M0.0,100.0 L-0.6911666126945493,89.26204420661324 L-1.371723848824613,89.02246491497918" fill="blue" fill-opacity="0.6" stroke="black" stroke-width="1" />
<path d="M0.0,-0.0 L-0.6911666126945493,-10.73795579338676 L-1.371723848824613,-10.977535085020824" fill="pink" fill-opacity="0.6" stroke="black" stroke-width="1" />
<path d="M0.0,-0.0 L-0.6911666126945493,10.73795579338676 L-1.371723848824613,10.977535085020818" fill="orange" fill-opacity="0.6" stroke="black" stroke-width="1" />
<path d="M0.0,-100.0 L-0.6911666126945493,-89.26204420661324 L-1.371723848824613,-89.02246491497917" fill="black" fill-opacity="0.6" stroke="black" stroke-width="1" />
<path d="M-0.6911666126945493,89.26204420661324 L-1.371723848824613,89.02246491497918 L-1.417659985923185,87.54507645634231" fill="red" fill-opacity="0.6" stroke="black" stroke-width="1" />
<path d="M-0.6911666126945493,-10.73795579338676 L-1.371723848824613,-10.977535085020824 L-1.417659985923185,-12.454923543657687" fill="red" fill-opacity="0.6" stroke="black" stroke-width="1" />
<path d="M-0.6911666126945493,10.73795579338676 L-1.371723848824613,10.977535085020818 L-1.417659985923185,12.454923543657685" fill="yellow" fill-opacity="0.6" stroke="black" stroke-width="1" />
<path d="M-0.6911666126945493,-89.26204420661324 L-1.371723848824613,-89.02246491497917 L-1.417659985923185,-87.54507645634231" fill="green" fill-opacity="0.6" stroke="black" stroke-width="1" />
<path d="M-1.371723848824613,89.02246491497918 L-1.417659985923185,87.54507645634231 L-2.768651479728998,82.70425669153552" fill="green" fill-opacity="0.6" stroke="black" stroke-width="1" />
<path d="M-1.371723848824613,-10.977535085020824 L-1.417659985923185,-12.454923543657687 L-2.768651479728998,-17.295743308464484" fill="brown" fill-opacity="0.6" stroke="black" stroke-width="1" />
<path d="M-1.371723848824613,10.977535085020818 L-1.417659985923185,12.454923543657685 L-2.768651479728998,17.29574330846448" fill="blue" fill-opacity="0.6" stroke="black" stroke-width="1" />
<path d="M-1.371723848824613,-89.02246491497917 L-1.417659985923185,-87.54507645634231 L-2.768651479728998,-82.70425669153552" fill="red" fill-opacity="0.6" stroke="black" stroke-width="1" />
<path d="M-1.417659985923185,87.54507645634231 L-2.768651479728998,82.70425669153552 L-4.276885490267116,79.74509627836515" fill="green" fill-opacity="0.6" stroke="black" stroke-width="1" />
<path d="M-1.417659985923185,-12.454923543657687 L-2.768651479728998,-17.295743308464484 L-4.276885490267116,-20.254903721634843" fill="blue" fill-opacity="0.6" stroke="black" stroke-width="1" />
<path d="M-1.417659985923185,12.454923543657685 L-2.768651479728998,17.29574330846448 L-4.276885490267116,20.254903721634847" fill="red" fill-opacity="0.6" stroke="black" stroke-width="1" />
<path d="M-1.417659985923185,-87.54507645634231 L-2.768651479728998,-82.70425669153552 L-4.276885490267116,-79.74509627836515" fill="orange" fill-opacity="0.6" stroke="black" stroke-width="1" />
<path d="M-2.768651479728998,82.70425669153552 L-4.276885490267116,79.74509627836515 L-4.629964672233314,78.33588146317518" fill="yellow" fill-opacity="0.6" stroke="black" stroke-width="1" />
<path d="M-2.768651479728998,-17.295743308464484 L-4.276885490267116,-20.254903721634843 L-4.629964672233314,-21.664118536824812" fill="black" fill-opacity="0.6" stroke="black" stroke-width="1" />
<path d="M-2.768651479728998,17.29574330846448 L-4.276885490267116,20.254903721634847 L-4.629964672233314,21.664118536824816" fill="brown" fill-opacity="0.6" stroke="black" stroke-width="1" />
<path d="M-2.768651479728998,-82.70425669153552 L-4.276885490267116,-79.74509627836515 L-4.629964672233314,-78.33588146317518" fill="red" fill-opacity="0.6" stroke="black" stroke-width="1" />
<path d="M-4.276885490267116,79.74509627836515 L-4.629964672233314,78.33588146317518 L-6.7001121127069085,76.91316407320386" fill="black" fill-opacity="0.6" stroke="black" stroke-width="1" />
<path d="M-4.276885490267116,-20.254903721634843 L-4.629964672233314,-21.664118536824812 L-6.7001121127069085,-23.086835926796134" fill="blue" fill-opacity="0.6" stroke="black" stroke-width="1" />
<path d="M-4.276885490267116,20.254903721634847 L-4.629964672233314,21.664118536824816 L-6.7001121127069085,23.08683592679614" fill="purple" fill-opacity="0.6" stroke="black" stroke-width="1" />
<path d="M-4.276885490267116,-79.74509627836515 L-4.629964672233314,-78.33588146317518 L-6.7001121127069085,-76.91316407320386" fill="green" fill-opacity="0.6" stroke="black" stroke-width="1" />
<path d="M-4.629964672233314,78.33588146317518 L-6.7001121127069085,76.91316407320386 L-11.03786340583289,74.02732472936066" fill="yellow" fill-opacity="0.6" stroke="black" stroke-width="1" />
<path d="M-4.629964672233314,-21.664118536824812 L-6.7001121127069085,-23.086835926796134 L-11.03786340583289,-25.972675270639346" fill="orange" fill-opacity="0.6" stroke="black" stroke-width="1" />
<path d="M-4.629964672233314,21.664118536824816 L-6.7001121127069085,23.08683592679614 L-11.03786340583289,25.972675270639343" fill="blue" fill-opacity="0.6" stroke="black" stroke-width="1" />
<path d="M-4.629964672233314,-78.33588146317518 L-6.7001121127069085,-76.91316407320386 L-11.03786340583289,-74.02732472936066" fill="green" fill-opacity="0.6" stroke="black" stroke-width="1" />
<path d="M-6.7001121127069085,76.91316407320386 L-11.03786340583289,74.02732472936066 L-11.58305725679139,69.76687837112776" fill="black" fill-opacity="0.6" stroke="black" stroke-width="1" />
<path d="M-6.7001121127069085,-23.086835926796134 L-11.03786340583289,-25.972675270639346 L-11.58305725679139,-30.23312162887224" fill="red" fill-opacity="0.6" stroke="black" stroke-width="1" />
<path d="M-6.7001121127069085,23.08683592679614 L-11.03786340583289,25.972675270639343 L-11.58305725679139,30.23312162887224" fill="purple" fill-opacity="0.6" stroke="black" stroke-width="1" />
<path d="M-6.7001121127069085,-76.91316407320386 L-11.03786340583289,-74.02732472936066 L-11.58305725679139,-69.76687837112776" fill="purple" fill-opacity="0.6" stroke="black" stroke-width="1" />
<path d="M-11.03786340583289,74.02732472936066 L-11.58305725679139,69.76687837112776 L0.0,69.0" fill="pink" fill-opacity="0.6" stroke="black" stroke-width="1" />
<path d="M-11.03786340583289,-25.972675270639346 L-11.58305725679139,-30.23312162887224 L0.0,-31.0" fill="pink" fill-opacity="0.6" stroke="black" stroke-width="1" />
<path d="M-11.03786340583289,25.972675270639343 L-11.58305725679139,30.23312162887224 L0.0,31.0" fill="pink" fill-opacity="0.6" stroke="black" stroke-width="1" />
<path d="M-11.03786340583289,-74.02732472936066 L-11.58305725679139,-69.76687837112776 L0.0,-69.0" fill="brown" fill-opacity="0.6" stroke="black" stroke-width="1" />
<path d="M0.0,69.0 L-14.95995147036249,67.83351240795108 L0.0,64.0" fill="blue" fill-opacity="0.6" stroke="black" stroke-width="1" />
<path d="M0.0,-31.0 L-14.95995147036249,-32.166487592048924 L0.0,-36.0" fill="pink" fill-opacity="0.6" stroke="black" stroke-width="1" />
<path d="M0.0,31.0 L-14.95995147036249,32.166487592048924 L0.0,36.0" fill="green" fill-opacity="0.6" stroke="black" stroke-width="1" />
<path d="M0.0,-69.0 L-14.95995147036249,-67.83351240795108 L0.0,-64.0" fill="black" fill-opacity="0.6" stroke="black" stroke-width="1" />
<path d="M-10.0,50.0 L-16.557042951891596,61.590226967959566 L-16.86863559982717,56.73044134029638" fill="green" fill-opacity="0.6" stroke="black" stroke-width="1" />
<path d="M-10.0,-50.0 L-16.557042951891596,-38.409773032040434 L-16.86863559982717,-43.26955865970362" fill="red" fill-opacity="0.6" stroke="black" stroke-width="1" />
<path d="M-10.0,50.0 L-16.557042951891596,38.409773032040434 L-16.86863559982717,43.26955865970362" fill="brown" fill-opacity="0.6" stroke="black" stroke-width="1" />
<path d="M-10.0,-50.0 L-16.557042951891596,-61.590226967959566 L-16.86863559982717,-56.73044134029638" fill="yellow" fill-opacity="0.6" stroke="black" stroke-width="1" />
<path d="M-16.557042951891596,61.590226967959566 L-16.86863559982717,56.73044134029638 L-18.1069967751449,54.996844049553275" fill="red" fill-opacity="0.6" stroke="black" stroke-width="1" />
<path d="M-16.557042951891596,-38.409773032040434 L-16.86863559982717,-43.26955865970362 L-18.1069967751449,-45.003155950446725" fill="green" fill-opacity="0.6" stroke="black" stroke-width="1" />
<path d="M-16.557042951891596,38.409773032040434 L-16.86863559982717,43.26955865970362 L-18.1069967751449,45.003155950446725" fill="black" fill-opacity="0.6" stroke="black" stroke-width="1" />
<path d="M-16.557042951891596,-61.590226967959566 L-16.86863559982717,-56.73044134029638 L-18.1069967751449,-54.996844049553275" fill="orange" fill-opacity="0.6" stroke="black" stroke-width="1" />
<path d="M-16.86863559982717,56.73044134029638 L-18.1069967751449,54.996844049553275 L-19.29747846352076,54.53984461351402" fill="brown" fill-opacity="0.6" stroke="black" stroke-width="1" />
<path d="M-16.86863559982717,-43.26955865970362 L-18.1069967751449,-45.003155950446725 L-19.29747846352076,-45.46015538648598" fill="yellow" fill-opacity="0.6" stroke="black" stroke-width="1" />
<path d="M-16.86863559982717,43.26955865970362 L-18.1069967751449,45.003155950446725 L-19.29747846352076,45.46015538648598" fill="blue" fill-opacity="0.6" stroke="black" stroke-width="1" />
<path d="M-16.86863559982717,-56.73044134029638 L-18.1069967751449,-54.996844049553275 L-19.29747846352076,-54.53984461351402" fill="red" fill-opacity="0.6" stroke="black" stroke-width="1" />
<path d="M-18.1069967751449,54.996844049553275 L-19.29747846352076,54.53984461351402 L-23.0,50.0" fill="green" fill-opacity="0.6" stroke="black" stroke-width="1" />
<path d="M-18.1069967751449,-45.003155950446725 L-19.29747846352076,-45.46015538648598 L-23.0,-50.0" fill="red" fill-opacity="0.6" stroke="black" stroke-width="1" />
<path d="M-18.1069967751449,45.003155950446725 L-19.29747846352076,45.46015538648598 L-23.0,50.0" fill="green" fill-opacity="0.6" stroke="black" stroke-width="1" />
<path d="M-18.1069967751449,-54.996844049553275 L-19.29747846352076,-54.53984461351402 L-23.0,-50.0" fill="pink" fill-opacity="0.6" stroke="black" stroke-width="1" />
<path d="M-23.0,50.0 L-25.855186476175795,53.793455550591204 L-32.191692292439086,53.12832111130763" fill="orange" fill-opacity="0.6" stroke="black" stroke-width="1" />
<path d="M-23.0,-50.0 L-25.855186476175795,-46.206544449408796 L-32.191692292439086,-46.87167888869237" fill="red" fill-opacity="0.6" stroke="black" stroke-width="1" />
<path d="M-23.0,50.0 L-25.855186476175795,46.206544449408796 L-32.191692292439086,46.87167888869237" fill="purple" fill-opacity="0.6" stroke="black" stroke-width="1" />
<path d="M-23.0,-50.0 L-25.855186476175795,-53.793455550591204 L-32.191692292439086,-53.12832111130763" fill="yellow" fill-opacity="0.6" stroke="black" stroke-width="1" />
<path d="M-25.855186476175795,53.793455550591204 L-32.191692292439086,53.12832111130763 L-39.0,50.0" fill="purple" fill-opacity="0.6" stroke="black" stroke-width="1" />
<path d="M-25.855186476175795,-46.206544449408796 L-32.191692292439086,-46.87167888869237 L-39.0,-50.0" fill="yellow" fill-opacity="0.6" stroke="black" stroke-width="1" />
<path d="M-25.855186476175795,46.206544449408796 L-32.191692292439086,46.87167888869237 L-39.0,50.0" fill="red" fill-opacity="0.6" stroke="black" stroke-width="1" />
<path d="M-25.855186476175795,-53.793455550591204 L-32.191692292439086,-53.12832111130763 L-39.0,-50.0" fill="brown" fill-opacity="0.6" stroke="black" stroke-width="1" />
<path d="M-1.0,99.0 L-0.34087974625271633,99.4805004572904 L0.0,100.0" fill="red" fill-opacity="0.6" stroke="black" stroke-width="1" />
<path d="M-1.0,-1.0 L-0.34087974625271633,-0.5194995427095894 L0.0,-0.0" fill="black" fill-opacity="0.6" stroke="black" stroke-width="1" />
<path d="M-1.0,1.0 L-0.34087974625271633,0.5194995427095961 L0.0,-0.0" fill="pink" fill-opacity="0.6" stroke="black" stroke-width="1" />
<path d="M-1.0,-99.0 L-0.34087974625271633,-99.48050045729042 L0.0,-100.0" fill="pink" fill-opacity="0.6" stroke="black" stroke-width="1" />
<path d="M-100.0,-0.0 L-89.26204420661324,-0.6911666126945493 L-89.02246491497917,-1.371723848824613" fill="orange" fill-opacity="0.6" stroke="black" stroke-width="1" />
<path d="M-100.0,-0.0 L-89.26204420661324,0.6911666126945493 L-89.02246491497917,1.371723848824613" fill="green" fill-opacity="0.6" stroke="black" stroke-width="1" />
<path d="M-89.26204420661324,-0.6911666126945493 L-89.02246491497917,-1.371723848824613 L-87.54507645634231,-1.417659985923185" fill="orange" fill-opacity="0.6" stroke="black" stroke-width="1" />
<path d="M-89.26204420661324,0.6911666126945493 L-89.02246491497917,1.371723848824613 L-87.54507645634231,1.417659985923185" fill="yellow" fill-opacity="0.6" stroke="black" stroke-width="1" />
<path d="M-89.02246491497917,-1.371723848824613 L-87.54507645634231,-1.417659985923185 L-82.70425669153552,-2.768651479728998" fill="blue" fill-opacity="0.6" stroke="black" stroke-width="1" />
<path d="M-89.02246491497917,1.371723848824613 L-87.54507645634231,1.417659985923185 L-82.70425669153552,2.768651479728998" fill="purple" fill-opacity="0.6" stroke="black" stroke-width="1" />
<path d="M-87.54507645634231,-1.417659985923185 L-82.70425669153552,-2.768651479728998 L-79.74509627836515,-4.276885490267116" fill="yellow" fill-opacity="0.6" stroke="black" stroke-width="1" />
<path d="M-87.54507645634231,1.417659985923185 L-82.70425669153552,2.768651479728998 L-79.74509627836515,4.276885490267116" fill="purple" fill-opacity="0.6" stroke="black" stroke-width="1" />
<path d="M-82.70425669153552,-2.768651479728998 L-79.74509627836515,-4.276885490267116 L-78.33588146317518,-4.629964672233314" fill="black" fill-opacity="0.6" stroke="black" stroke-width="1" />
<path d="M-82.70425669153552,2.768651479728998 L-79.74509627836515,4.276885490267116 L-78.33588146317518,4.629964672233314" fill="orange" fill-opacity="0.6" stroke="black" stroke-width="1" />
<path d="M-79.74509627836515,-4.276885490267116 L-78.33588146317518,-4.629964672233314 L-76.91316407320386,-6.7001121127069085" fill="red" fill-opacity="0.6" stroke="black" stroke-width="1" />
<path d="M-79.74509627836515,4.276885490267116 L-78.33588146317518,4.629964672233314 L-76.91316407320386,6.7001121127069085" fill="brown" fill-opacity="0.6" stroke="black" stroke-width="1" />
<path d="M-78.33588146317518,-4.629964672233314 L-76.91316407320386,-6.7001121127069085 L-74.02732472936066,-11.03786340583289" fill="green" fill-opacity="0.6" stroke="black" stroke-width="1" />
<path d="M-78.33588146317518,4.629964672233314 L-76.91316407320386,6.7001121127069085 L-74.02732472936066,11.03786340583289" fill="red" fill-opacity="0.6" stroke="black" stroke-width="1" />
<path d="M-76.91316407320386,-6.7001121127069085 L-74.02732472936066,-11.03786340583289 L-69.76687837112776,-11.58305725679139" fill="red" fill-opacity="0.6" stroke="black" stroke-width="1" />
<path d="M-76.91316407320386,6.7001121127069085 L-74.02732472936066,11.03786340583289 L-69.76687837112776,11.58305725679139" fill="black" fill-opacity="0.6" stroke="black" stroke-width="1" />
<path d="M-74.02732472936066,-11.03786340583289 L-69.76687837112776,-11.58305725679139 L-69.0,-0.0" fill="red" fill-opacity="0.6" stroke="black" stroke-width="1" />
<path d="M-74.02732472936066,11.03786340583289 L-69.76687837112776,11.58305725679139 L-69.0,-0.0" fill="black" fill-opacity="0.6" stroke="black" stroke-width="1" />
<path d="M-69.0,-0.0 L-67.83351240795108,-14.95995147036249 L-64.0,-0.0" fill="yellow" fill-opacity="0.6" stroke="black" stroke-width="1" />
<path d="M-69.0,-0.0 L-67.83351240795108,14.95995147036249 L-64.0,-0.0" fill="green" fill-opacity="0.6" stroke="black" stroke-width="1" />
<path d="M-50.0,-10.0 L-61.590226967959566,-16.557042951891596 L-56.73044134029638,-16.86863559982717" fill="yellow" fill-opacity="0.6" stroke="black" stroke-width="1" />
<path d="M-50.0,10.0 L-61.590226967959566,16.557042951891596 L-56.73044134029638,16.86863559982717" fill="purple" fill-opacity="0.6" stroke="black" stroke-width="1" />
<path d="M-61.590226967959566,-16.557042951891596 L-56.73044134029638,-16.86863559982717 L-54.996844049553275,-18.1069967751449" fill="orange" fill-opacity="0.6" stroke="black" stroke-width="1" />
<path d="M-61.590226967959566,16.557042951891596 L-56.73044134029638,16.86863559982717 L-54.996844049553275,18.1069967751449" fill="black" fill-opacity="0.6" stroke="black" stroke-width="1" />
<path d="M-56.73044134029638,-16.86863559982717 L-54.996844049553275,-18.1069967751449 L-54.53984461351402,-19.29747846352076" fill="black" fill-opacity="0.6" stroke="black" stroke-width="1" />
<path d="M-56.73044134029638,16.86863559982717 L-54.996844049553275,18.1069967751449 L-54.53984461351402,19.29747846352076" fill="blue" fill-opacity="0.6" stroke="black" stroke-width="1" />
<path d="M-54.996844049553275,-18.1069967751449 L-54.53984461351402,-19.29747846352076 L-50.0,-23.0" fill="pink" fill-opacity="0.6" stroke="black" stroke-width="1" />
<path d="M-54.996844049553275,18.1069967751449 L-54.53984461351402,19.29747846352076 L-50.0,23.0" fill="orange" fill-opacity="0.6" stroke="black" stroke-width="1" />
<path d="M-50.0,-23.0 L-53.793455550591204,-25.855186476175795 L-53.12832111130763,-32.191692292439086" fill="red" fill-opacity="0.6" stroke="black" stroke-width="1" />
<path d="M-50.0,23.0 L-53.793455550591204,25.855186476175795 L-53.12832111130763,32.191692292439086" fill="yellow" fill-opacity="0.6" stroke="black" stroke-width="1" />
<path d="M-53.793455550591204,-25.855186476175795 L-53.12832111130763,-32.191692292439086 L-50.0,-39.0" fill="orange" fill-opacity="0.6" stroke="black" stroke-width="1" />
<path d="M-53.793455550591204,25.855186476175795 L-53.12832111130763,32.191692292439086 L-50.0,39.0" fill="purple" fill-opacity="0.6" stroke="black" stroke-width="1" />
<path d="M-50.0,-50.0 L-56.0,-44.0 L-72.0,-28.0" fill="yellow" fill-opacity="0.6" stroke="black" stroke-width="1" />
<path d="M-50.0,50.0 L-56.0,44.0 L-72.0,28.0" fill="brown" fill-opacity="0.6" stroke="black" stroke-width="1" />
<path d="M-56.0,-44.0 L-72.0,-28.0 L-77.0,-23.0" fill="brown" fill-opacity="0.6" stroke="black" stroke-width="1" />
<path d="M-56.0,44.0 L-72.0,28.0 L-77.0,23.0" fill="blue" fill-opacity="0.6" stroke="black" stroke-width="1" />
<path d="M-72.0,-28.0 L-77.0,-23.0 L-78.0,-22.0" fill="blue" fill-opacity="0.6" stroke="black" stroke-width="1" />
<path d="M-72.0,28.0 L-77.0,23.0 L-78.0,22.0" fill="pink" fill-opacity="0.6" stroke="black" stroke-width="1" />
<path d="M-77.0,-23.0 L-78.0,-22.0 L-80.0,-20.0" fill="pink" fill-opacity="0.6" stroke="black" stroke-width="1" />
<path d="M-77.0,23.0 L-78.0,22.0 L-80.0,20.0" fill="red" fill-opacity="0.6" stroke="black" stroke-width="1" />
<path d="M-78.0,-22.0 L-80.0,-20.0 L-83.0,-17.0" fill="pink" fill-opacity="0.6" stroke="black" stroke-width="1" />
<path d="M-78.0,22.0 L-80.0,20.0 L-83.0,17.0" fill="pink" fill-opacity="0.6" stroke="black" stroke-width="1" />
<path d="M-80.0,-20.0 L-83.0,-17.0 L-99.0,-1.0" fill="black" fill-opacity="0.6" stroke="black" stroke-width="1" />
<path d="M-80.0,20.0 L-83.0,17.0 L-99.0,1.0" fill="green" fill-opacity="0.6" stroke="black" stroke-width="1" />
<path d="M-83.0,-17.0 L-99.0,-1.0 L-99.48050045729042,-0.34087974625271633" fill="purple" fill-opacity="0.6" stroke="black" stroke-width="1" />
<path d="M-83.0,17.0 L-99.0,1.0 L-99.48050045729042,0.34087974625271633" fill="brown" fill-opacity="0.6" stroke="black" stroke-width="1" />
<path d="M-99.0,-1.0 L-99.48050045729042,-0.34087974625271633 L-100.0,-0.0" fill="pink" fill-opacity="0.6" stroke="black" stroke-width="1" />
<path d="M-99.0,1.0 L-99.48050045729042,0.34087974625271633 L-100.0,-0.0" fill="pink" fill-opacity="0.6" stroke="black" stroke-width="1" />
</svg>