<?xml version="1.0" encoding="UTF-8"?>
<svg xmlns="http://www.w3.org/2000/svg" xmlns:xlink="http://www.w3.org/1999/xlink"
     width="250" height="250" viewBox="-125.0 -125.0 250 250">
<defs>
</defs>
<path d="M0.0,-0.0 L12.238025954694422,-3.740620096259767 L13.807464244981244,-4.622661552173585" fill-opacity="0" stroke="black" stroke-width="1" />
<path d="M0.0,-0.0 L12.238025954694422,3.740620096259767 L13.807464244981244,4.622661552173585" fill-opacity="0" stroke="black" stroke-width="1" />
<path d="M12.238025954694422,-3.740620096259767 L13.807464244981244,-4.622661552173585 L19.209302512103147,-4.649147699255489" fill-opacity="0" stroke="black" stroke-width="1" />
<path d="M12.238025954694422,3.740620096259767 L13.807464244981244,4.622661552173585 L19.209302512103147,4.649147699255489" fill-opacity="0" stroke="black" stroke-width="1" />
<path d="M13.807464244981244,-4.622661552173585 L19.209302512103147,-4.649147699255489 L19.76408152501413,-5.4160693706837595" fill-opacity="0" stroke="black" stroke-width="1" />
<path d="M13.807464244981244,4.622661552173585 L19.209302512103147,4.649147699255489 L19.76408152501413,5.4160693706837595" fill-opacity="0" stroke="black" stroke-width="1" />
<path d="M19.209302512103147,-4.649147699255489 L19.76408152501413,-5.4160693706837595 L21.12408246174299,-5.744529349487393" fill-opacity="0" stroke="black" stroke-width="1" />
<path d="M19.209302512103147,4.649147699255489 L19.76408152501413,5.4160693706837595 L21.12408246174299,5.744529349487393" fill-opacity="0" stroke="black" stroke-width="1" />
<path d="M19.76408152501413,-5.4160693706837595 L21.12408246174299,-5.744529349487393 L23.709781548337524,-15.107963602007867" fill-opacity="0" stroke="black" stroke-width="1" />
<path d="M19.76408152501413,5.4160693706837595 L21.12408246174299,5.744529349487393 L23.709781548337524,15.107963602007867" fill-opacity="0" stroke="black" stroke-width="1" />
<path d="M21.12408246174299,-5.744529349487393 L23.709781548337524,-15.107963602007867 L26.955669698143847,-18.31795729575541" fill-opacity="0" stroke="black" stroke-width="1" />
<path d="M21.12408246174299,5.744529349487393 L23.709781548337524,15.107963602007867 L26.955669698143847,18.31795729575541" fill-opacity="0" stroke="black" stroke-width="1" />
<path d="M23.709781548337524,-15.107963602007867 L26.955669698143847,-18.31795729575541 L29.536001809936202,-20.44895150256273" fill-opacity="0" stroke="black" stroke-width="1" />
<path d="M23.709781548337524,15.107963602007867 L26.955669698143847,18.31795729575541 L29.536001809936202,20.44895150256273" fill-opacity="0" stroke="black" stroke-width="1" />
<path d="M26.955669698143847,-18.31795729575541 L29.536001809936202,-20.44895150256273 L30.0,-0.0" fill-opacity="0" stroke="black" stroke-width="1" />
<path d="M26.955669698143847,18.31795729575541 L29.536001809936202,20.44895150256273 L30.0,-0.0" fill-opacity="0" stroke="black" stroke-width="1" />
<path d="M50.0,-6.0 L35.08230119679435,-26.60716518713913 L38.82960326067698,-27.595042304785377" fill-opacity="0" stroke="black" stroke-width="1" />
<path d="M50.0,6.0 L35.08230119679435,26.60716518713913 L38.82960326067698,27.595042304785377" fill-opacity="0" stroke="black" stroke-width="1" />
<path d="M35.08230119679435,-26.60716518713913 L38.82960326067698,-27.595042304785377 L50.0,-29.0" fill-opacity="0" stroke="black" stroke-width="1" />
<path d="M35.08230119679435,26.60716518713913 L38.82960326067698,27.595042304785377 L50.0,29.0" fill-opacity="0" stroke="black" stroke-width="1" />
<path d="M50.0,-29.0 L39.74896697827198,-29.00436556946508 L45.62350593862416,-35.02160009629341" fill-opacity="0" stroke="black" stroke-width="1" />
<path d="M50.0,29.0 L39.74896697827198,29.00436556946508 L45.62350593862416,35.02160009629341" fill-opacity="0" stroke="black" stroke-width="1" />
<path d="M39.74896697827198,-29.00436556946508 L45.62350593862416,-35.02160009629341 L50.0,-37.0" fill-opacity="0" stroke="black" stroke-width="1" />
<path d="M39.74896697827198,29.00436556946508 L45.62350593862416,35.02160009629341 L50.0,37.0" fill-opacity="0" stroke="black" stroke-width="1" />
<path d="M50.0,-37.0 L46.67075976659532,-37.00461425502379 L50.0,-46.0" fill-opacity="0" stroke="black" stroke-width="1" />
<path d="M50.0,37.0 L46.67075976659532,37.00461425502379 L50.0,46.0" fill-opacity="0" stroke="black" stroke-width="1" />
<path d="M50.0,50.0 L44.0,56.0 L40.0,60.0" fill-opacity="0" stroke="black" stroke-width="1" />
<path d="M50.0,-50.0 L44.0,-56.0 L40.0,-60.0" fill-opacity="0" stroke="black" stroke-width="1" />
<path d="M44.0,56.0 L40.0,60.0 L39.0,61.0" fill-opacity="0" stroke="black" stroke-width="1" />
<path d="M44.0,-56.0 L40.0,-60.0 L39.0,-61.0" fill-opacity="0" stroke="black" stroke-width="1" />
<path d="M40.0,60.0 L39.0,61.0 L17.938843615061888,75.6370024202939" fill-opacity="0" stroke="black" stroke-width="1" />
<path d="M40.0,-60.0 L39.0,-61.0 L17.938843615061888,-75.6370024202939" fill-opacity="0" stroke="black" stroke-width="1" />
<path d="M39.0,-39.0 L24.362997579706104,-17.938843615061888 L23.0,-23.0" fill-opacity="0" stroke="black" stroke-width="1" />
<path d="M39.0,39.0 L24.362997579706104,17.938843615061888 L23.0,23.0" fill-opacity="0" stroke="black" stroke-width="1" />
<path d="M17.938843615061888,75.6370024202939 L23.0,77.0 L3.5228691760704507,88.72055510989745" fill-opacity="0" stroke="black" stroke-width="1" />
<path d="M17.938843615061888,-75.6370024202939 L23.0,-77.0 L3.5228691760704507,-88.72055510989745" fill-opacity="0" stroke="black" stroke-width="1" />
<path d="M23.0,-23.0 L11.279444890102557,-3.5228691760704507 L10.0,-10.0" fill-opacity="0" stroke="black" stroke-width="1" />
<path d="M23.0,23.0 L11.279444890102557,3.5228691760704507 L10.0,10.0" fill-opacity="0" stroke="black" stroke-width="1" />
<path d="M3.5228691760704507,88.72055510989745 L10.0,90.0 L1.7757340910143693,92.56532531867173" fill-opacity="0" stroke="black" stroke-width="1" />
<path d="M3.5228691760704507,-88.72055510989745 L10.0,-90.0 L1.7757340910143693,-92.56532531867173" fill-opacity="0" stroke="black" stroke-width="1" />
<path d="M10.0,-10.0 L7.434674681328275,-1.7757340910143693 L5.044252495022761,-0.8727459824018374" fill-opacity="0" stroke="black" stroke-width="1" />
<path d="M10.0,10.0 L7.434674681328275,1.7757340910143693 L5.044252495022761,0.8727459824018374" fill-opacity="0" stroke="black" stroke-width="1" />
<path d="M7.434674681328275,-1.7757340910143693 L5.044252495022761,-0.8727459824018374 L2.6321607850204987,-0.020750446148988175" fill-opacity="0" stroke="black" stroke-width="1" />
<path d="M7.434674681328275,1.7757340910143693 L5.044252495022761,0.8727459824018374 L2.6321607850204987,0.020750446148988175" fill-opacity="0" stroke="black" stroke-width="1" />
<path d="M5.044252495022761,-0.8727459824018374 L2.6321607850204987,-0.020750446148988175 L0.0756442684228531,-0.012907366478564488" fill-opacity="0" stroke="black" stroke-width="1" />
<path d="M5.044252495022761,0.8727459824018374 L2.6321607850204987,0.020750446148988175 L0.0756442684228531,0.012907366478564488" fill-opacity="0" stroke="black" stroke-width="1" />
<path d="M2.6321607850204987,-0.020750446148988175 L0.0756442684228531,-0.012907366478564488 L0.0,-0.0" fill-opacity="0" stroke="black" stroke-width="1" />
<path d="M2.6321607850204987,0.020750446148988175 L0.0756442684228531,0.012907366478564488 L0.0,-0.0" fill-opacity="0" stroke="black" stroke-width="1" />
<path d="M0.0,-0.0 L-12.238025954694422,-3.740620096259767 L-13.807464244981244,-4.622661552173585" fill-opacity="0" stroke="black" stroke-width="1" />
<path d="M0.0,-0.0 L-12.238025954694422,3.740620096259767 L-13.807464244981244,4.622661552173585" fill-opacity="0" stroke="black" stroke-width="1" />
<path d="M-12.238025954694422,-3.740620096259767 L-13.807464244981244,-4.622661552173585 L-19.209302512103147,-4.649147699255489" fill-opacity="0" stroke="black" stroke-width="1" />
<path d="M-12.238025954694422,3.740620096259767 L-13.807464244981244,4.622661552173585 L-19.209302512103147,4.649147699255489" fill-opacity="0" stroke="black" stroke-width="1" />
<path d="M-13.807464244981244,-4.622661552173585 L-19.209302512103147,-4.649147699255489 L-19.76408152501413,-5.4160693706837595" fill-opacity="0" stroke="black" stroke-width="1" />
<path d="M-13.807464244981244,4.622661552173585 L-19.209302512103147,4.649147699255489 L-19.76408152501413,5.4160693706837595" fill-opacity="0" stroke="black" stroke-width="1" />
<path d="M-19.209302512103147,-4.649147699255489 L-19.76408152501413,-5.4160693706837595 L-21.12408246174299,-5.744529349487393" fill-opacity="0" stroke="black" stroke-width="1" />
<path d="M-19.209302512103147,4.649147699255489 L-19.76408152501413,5.4160693706837595 L-21.12408246174299,5.744529349487393" fill-opacity="0" stroke="black" stroke-width="1" />
<path d="M-19.76408152501413,-5.4160693706837595 L-21.12408246174299,-5.744529349487393 L-23.709781548337524,-15.107963602007867" fill-opacity="0" stroke="black" stroke-width="1" />
<path d="M-19.76408152501413,5.4160693706837595 L-21.12408246174299,5.744529349487393 L-23.709781548337524,15.107963602007867" fill-opacity="0" stroke="black" stroke-width="1" />
<path d="M-21.12408246174299,-5.744529349487393 L-23.709781548337524,-15.107963602007867 L-26.955669698143847,-18.31795729575541" fill-opacity="0" stroke="black" stroke-width="1" />
<path d="M-21.12408246174299,5.744529349487393 L-23.709781548337524,15.107963602007867 L-26.955669698143847,18.31795729575541" fill-opacity="0" stroke="black" stroke-width="1" />
<path d="M-23.709781548337524,-15.107963602007867 L-26.955669698143847,-18.31795729575541 L-29.536001809936202,-20.44895150256273" fill-opacity="0" stroke="black" stroke-width="1" />
<path d="M-23.709781548337524,15.107963602007867 L-26.955669698143847,18.31795729575541 L-29.536001809936202,20.44895150256273" fill-opacity="0" stroke="black" stroke-width="1" />
<path d="M-26.955669698143847,-18.31795729575541 L-29.536001809936202,-20.44895150256273 L-30.0,-0.0" fill-opacity="0" stroke="black" stroke-width="1" />
<path d="M-26.955669698143847,18.31795729575541 L-29.536001809936202,20.44895150256273 L-30.0,-0.0" fill-opacity="0" stroke="black" stroke-width="1" />
<path d="M-50.0,-6.0 L-35.08230119679435,-26.60716518713913 L-38.82960326067698,-27.595042304785377" fill-opacity="0" stroke="black" stroke-width="1" />
<path d="M-50.0,6.0 L-35.08230119679435,26.60716518713913 L-38.82960326067698,27.595042304785377" fill-opacity="0" stroke="black" stroke-width="1" />
<path d="M-35.08230119679435,-26.60716518713913 L-38.82960326067698,-27.595042304785377 L-50.0,-29.0" fill-opacity="0" stroke="black" stroke-width="1" />
<path d="M-35.08230119679435,26.60716518713913 L-38.82960326067698,27.595042304785377 L-50.0,29.0" fill-opacity="0" stroke="black" stroke-width="1" />
<path d="M-50.0,-29.0 L-39.74896697827198,-29.00436556946508 L-45.62350593862416,-35.02160009629341" fill-opacity="0" stroke="black" stroke-width="1" />
<path d="M-50.0,29.0 L-39.74896697827198,29.00436556946508 L-45.62350593862416,35.02160009629341" fill-opacity="0" stroke="black" stroke-width="1" />
<path d="M-39.74896697827198,-29.00436556946508 L-45.62350593862416,-35.02160009629341 L-50.0,-37.0" fill-opacity="0" stroke="black" stroke-width="1" />
<path d="M-39.74896697827198,29.00436556946508 L-45.62350593862416,35.02160009629341 L-50.0,37.0" fill-opacity="0" stroke="black" stroke-width="1" />
<path d="M-50.0,-37.0 L-46.67075976659532,-37.00461425502379 L-50.0,-46.0" fill-opacity="0" stroke="black" stroke-width="1" />
<path d="M-50.0,37.0 L-46.67075976659532,37.00461425502379 L-50.0,46.0" fill-opacity="0" stroke="black" stroke-width="1" />
<path d="M-50.0,50.0 L-44.0,56.0 L-40.0,60.0" fill-opacity="0" stroke="black" stroke-width="1" />
<path d="M-50.0,-50.0 L-44.0,-56.0 L-40.0,-60.0" fill-opacity="0" stroke="black" stroke-width="1" />
<path d="M-44.0,56.0 L-40.0,60.0 L-39.0,61.0" fill-opacity="0" stroke="black" stroke-width="1" />
<path d="M-44.0,-56.0 L-40.0,-60.0 L-39.0,-61.0" fill-opacity="0" stroke="black" stroke-width="1" />
<path d="M-40.0,60.0 L-39.0,61.0 L-17.938843615061888,75.6370024202939" fill-opacity="0" stroke="black" stroke-width="1" />
<path d="M-40.0,-60.0 L-39.0,-61.0 L-17.938843615061888,-75.6370024202939" fill-opacity="0" stroke="black" stroke-width="1" />
<path d="M-39.0,-39.0 L-24.362997579706104,-17.938843615061888 L-23.0,-23.0" fill-opacity="0" stroke="black" stroke-width="1" />
<path d="M-39.0,39.0 L-24.362997579706104,17.938843615061888 L-23.0,23.0" fill-opacity="0" stroke="black" stroke-width="1" />
<path d="M-17.938843615061888,75.6370024202939 L-23.0,77.0 L-3.5228691760704507,88.72055510989745" fill-opacity="0" stroke="black" stroke-width="1" />
<path d="M-17.938843615061888,-75.6370024202939 L-23.0,-77.0 L-3.5228691760704507,-88.72055510989745" fill-opacity="0" stroke="black" stroke-width="1" />
<path d="M-23.0,-23.0 L-11.279444890102557,-3.5228691760704507 L-10.0,-10.0" fill-opacity="0" stroke="black" stroke-width="1" />
<path d="M-23.0,23.0 L-11.279444890102557,3.5228691760704507 L-10.0,10.0" fill-opacity="0" stroke="black" stroke-width="1" />
<path d="M-3.5228691760704507,88.72055510989745 L-10.0,90.0 L-1.7757340910143693,92.56532531867173" fill-opacity="0" stroke="black" stroke-width="1" />
<path d="M-3.5228691760704507,-88.72055510989745 L-10.0,-90.0 L-1.7757340910143693,-92.56532531867173" fill-opacity="0" stroke="black" stroke-width="1" />
<path d="M-10.0,-10.0 L-7.434674681328275,-1.7757340910143693 L-5.044252495022761,-0.8727459824018374" fill-opacity="0" stroke="black" stroke-width="1" />
<path d="M-10.0,10.0 L-7.434674681328275,1.7757340910143693 L-5.044252495022761,0.8727459824018374" fill-opacity="0" stroke="black" stroke-width="1" />
<path d="M-7.434674681328275,-1.7757340910143693 L-5.044252495022761,-0.8727459824018374 L-2.6321607850204987,-0.020750446148988175" fill-opacity="0" stroke="black" stroke-width="1" />
<path d="M-7.434674681328275,1.7757340910143693 L-5.044252495022761,0.8727459824018374 L-2.6321607850204987,0.020750446148988175" fill-opacity="0" stroke="black" stroke-width="1" />
<path d="M-5.044252495022761,-0.8727459824018374 L-2.6321607850204987,-0.020750446148988175 L-0.0756442684228531,-0.012907366478564488" fill-opacity="0" stroke="black" stroke-width="1" />
<path d="M-5.044252495022761,0.8727459824018374 L-2.6321607850204987,0.020750446148988175 L-0.0756442684228531,0.012907366478564488" fill-opacity="0" stroke="black" stroke-width="1" />
<path d="M-2.6321607850204987,-0.020750446148988175 L-0.0756442684228531,-0.012907366478564488 L0.0,-0.0" fill-opacity="0" stroke="black" stroke-width="1" />
<path d="M-2.6321607850204987,0.020750446148988175 L-0.0756442684228531,0.012907366478564488 L0.0,-0.0" fill-opacity="0" stroke="black" stroke-width="1" />
<path d="M100.0,-0.0 L87.76197404530558,3.740620096259767 L86.19253575501875,4.622661552173585" fill-opacity="0" stroke="black" stroke-width="1" />
<path d="M100.0,-0.0 L87.76197404530558,-3.740620096259767 L86.19253575501875,-4.622661552173585" fill-opacity="0" stroke="black" stroke-width="1" />
<path d="M87.76197404530558,3.740620096259767 L86.19253575501875,4.622661552173585 L80.79069748789685,4.649147699255489" fill-opacity="0" stroke="black" stroke-width="1" />
<path d="M87.76197404530558,-3.740620096259767 L86.19253575501875,-4.622661552173585 L80.79069748789685,-4.649147699255489" fill-opacity="0" stroke="black" stroke-width="1" />
<path d="M86.19253575501875,4.622661552173585 L80.79069748789685,4.649147699255489 L80.23591847498587,5.4160693706837595" fill-opacity="0" stroke="black" stroke-width="1" />
<path d="M86.19253575501875,-4.622661552173585 L80.79069748789685,-4.649147699255489 L80.23591847498587,-5.4160693706837595" fill-opacity="0" stroke="black" stroke-width="1" />
<path d="M80.79069748789685,4.649147699255489 L80.23591847498587,5.4160693706837595 L78.87591753825701,5.744529349487393" fill-opacity="0" stroke="black" stroke-width="1" />
<path d="M80.79069748789685,-4.649147699255489 L80.23591847498587,-5.4160693706837595 L78.87591753825701,-5.744529349487393" fill-opacity="0" stroke="black" stroke-width="1" />
<path d="M80.23591847498587,5.4160693706837595 L78.87591753825701,5.744529349487393 L76.29021845166247,15.107963602007867" fill-opacity="0" stroke="black" stroke-width="1" />
<path d="M80.23591847498587,-5.4160693706837595 L78.87591753825701,-5.744529349487393 L76.29021845166247,-15.107963602007867" fill-opacity="0" stroke="black" stroke-width="1" />
<path d="M78.87591753825701,5.744529349487393 L76.29021845166247,15.107963602007867 L73.04433030185615,18.31795729575541" fill-opacity="0" stroke="black" stroke-width="1" />
<path d="M78.87591753825701,-5.744529349487393 L76.29021845166247,-15.107963602007867 L73.04433030185615,-18.31795729575541" fill-opacity="0" stroke="black" stroke-width="1" />
<path d="M76.29021845166247,15.107963602007867 L73.04433030185615,18.31795729575541 L70.46399819006379,20.44895150256273" fill-opacity="0" stroke="black" stroke-width="1" />
<path d="M76.29021845166247,-15.107963602007867 L73.04433030185615,-18.31795729575541 L70.46399819006379,-20.44895150256273" fill-opacity="0" stroke="black" stroke-width="1" />
<path d="M73.04433030185615,18.31795729575541 L70.46399819006379,20.44895150256273 L70.0,-0.0" fill-opacity="0" stroke="black" stroke-width="1" />
<path d="M73.04433030185615,-18.31795729575541 L70.46399819006379,-20.44895150256273 L70.0,-0.0" fill-opacity="0" stroke="black" stroke-width="1" />
<path d="M50.0,6.0 L64.91769880320565,26.60716518713913 L61.17039673932302,27.595042304785377" fill-opacity="0" stroke="black" stroke-width="1" />
<path d="M50.0,-6.0 L64.91769880320565,-26.60716518713913 L61.17039673932302,-27.595042304785377" fill-opacity="0" stroke="black" stroke-width="1" />
<path d="M64.91769880320565,26.60716518713913 L61.17039673932302,27.595042304785377 L50.0,29.0" fill-opacity="0" stroke="black" stroke-width="1" />
<path d="M64.91769880320565,-26.60716518713913 L61.17039673932302,-27.595042304785377 L50.0,-29.0" fill-opacity="0" stroke="black" stroke-width="1" />
<path d="M50.0,29.0 L60.25103302172802,29.00436556946508 L54.37649406137584,35.02160009629341" fill-opacity="0" stroke="black" stroke-width="1" />
<path d="M50.0,-29.0 L60.25103302172802,-29.00436556946508 L54.37649406137584,-35.02160009629341" fill-opacity="0" stroke="black" stroke-width="1" />
<path d="M60.25103302172802,29.00436556946508 L54.37649406137584,35.02160009629341 L50.0,37.0" fill-opacity="0" stroke="black" stroke-width="1" />
<path d="M60.25103302172802,-29.00436556946508 L54.37649406137584,-35.02160009629341 L50.0,-37.0" fill-opacity="0" stroke="black" stroke-width="1" />
<path d="M50.0,37.0 L53.32924023340468,37.00461425502379 L50.0,46.0" fill-opacity="0" stroke="black" stroke-width="1" />
<path d="M50.0,-37.0 L53.32924023340468,-37.00461425502379 L50.0,-46.0" fill-opacity="0" stroke="black" stroke-width="1" />
<path d="M50.0,50.0 L56.0,44.0 L60.0,40.0" fill-opacity="0" stroke="black" stroke-width="1" />
<path d="M50.0,-50.0 L56.0,-44.0 L60.0,-40.0" fill-opacity="0" stroke="black" stroke-width="1" />
<path d="M56.0,44.0 L60.0,40.0 L61.0,39.0" fill-opacity="0" stroke="black" stroke-width="1" />
<path d="M56.0,-44.0 L60.0,-40.0 L61.0,-39.0" fill-opacity="0" stroke="black" stroke-width="1" />
<path d="M60.0,40.0 L61.0,39.0 L75.6370024202939,17.938843615061888" fill-opacity="0" stroke="black" stroke-width="1" />
<path d="M60.0,-40.0 L61.0,-39.0 L75.6370024202939,-17.938843615061888" fill-opacity="0" stroke="black" stroke-width="1" />
<path d="M61.0,39.0 L75.6370024202939,17.938843615061888 L77.0,23.0" fill-opacity="0" stroke="black" stroke-width="1" />
<path d="M61.0,-39.0 L75.6370024202939,-17.938843615061888 L77.0,-23.0" fill-opacity="0" stroke="black" stroke-width="1" />
<path d="M75.6370024202939,17.938843615061888 L77.0,23.0 L88.72055510989745,3.5228691760704507" fill-opacity="0" stroke="black" stroke-width="1" />
<path d="M75.6370024202939,-17.938843615061888 L77.0,-23.0 L88.72055510989745,-3.5228691760704507" fill-opacity="0" stroke="black" stroke-width="1" />
<path d="M77.0,23.0 L88.72055510989745,3.5228691760704507 L90.0,10.0" fill-opacity="0" stroke="black" stroke-width="1" />
<path d="M77.0,-23.0 L88.72055510989745,-3.5228691760704507 L90.0,-10.0" fill-opacity="0" stroke="black" stroke-width="1" />
<path d="M88.72055510989745,3.5228691760704507 L90.0,10.0 L92.56532531867173,1.7757340910143693" fill-opacity="0" stroke="black" stroke-width="1" />
<path d="M88.72055510989745,-3.5228691760704507 L90.0,-10.0 L92.56532531867173,-1.7757340910143693" fill-opacity="0" stroke="black" stroke-width="1" />
<path d="M90.0,10.0 L92.56532531867173,1.7757340910143693 L94.95574750497724,0.8727459824018374" fill-opacity="0" stroke="black" stroke-width="1" />
<path d="M90.0,-10.0 L92.56532531867173,-1.7757340910143693 L94.95574750497724,-0.8727459824018374" fill-opacity="0" stroke="black" stroke-width="1" />
<path d="M92.56532531867173,1.7757340910143693 L94.95574750497724,0.8727459824018374 L97.36783921497951,0.020750446148988175" fill-opacity="0" stroke="black" stroke-width="1" />
<path d="M92.56532531867173,-1.7757340910143693 L94.95574750497724,-0.8727459824018374 L97.36783921497951,-0.020750446148988175" fill-opacity="0" stroke="black" stroke-width="1" />
<path d="M94.95574750497724,0.8727459824018374 L97.36783921497951,0.020750446148988175 L99.92435573157715,0.012907366478564488" fill-opacity="0" stroke="black" stroke-width="1" />
<path d="M94.95574750497724,-0.8727459824018374 L97.36783921497951,-0.020750446148988175 L99.92435573157715,-0.012907366478564488" fill-opacity="0" stroke="black" stroke-width="1" />
<path d="M97.36783921497951,0.020750446148988175 L99.92435573157715,0.012907366478564488 L100.0,-0.0" fill-opacity="0" stroke="black" stroke-width="1" />
<path d="M97.36783921497951,-0.020750446148988175 L99.92435573157715,-0.012907366478564488 L100.0,-0.0" fill-opacity="0" stroke="black" stroke-width="1" />
<path d="M0.0,-0.0 L3.740620096259767,-12.238025954694422 L4.622661552173585,-13.807464244981244" fill-opacity="0" stroke="black" stroke-width="1" />
<path d="M0.0,-0.0 L3.740620096259767,12.238025954694422 L4.622661552173585,13.807464244981244" fill-opacity="0" stroke="black" stroke-width="1" />
<path d="M0.0,100.0 L3.740620096259767,87.76197404530558 L4.622661552173585,86.19253575501875" fill-opacity="0" stroke="black" stroke-width="1" />
<path d="M0.0,-100.0 L3.740620096259767,-87.76197404530558 L4.622661552173585,-86.19253575501875" fill-opacity="0" stroke="black" stroke-width="1" />
<path d="M3.740620096259767,-12.238025954694422 L4.622661552173585,-13.807464244981244 L4.649147699255489,-19.209302512103147" fill-opacity="0" stroke="black" stroke-width="1" />
<path d="M3.740620096259767,12.238025954694422 L4.622661552173585,13.807464244981244 L4.649147699255489,19.209302512103147" fill-opacity="0" stroke="black" stroke-width="1" />
<path d="M3.740620096259767,87.76197404530558 L4.622661552173585,86.19253575501875 L4.649147699255489,80.79069748789685" fill-opacity="0" stroke="black" stroke-width="1" />
<path d="M3.740620096259767,-87.76197404530558 L4.622661552173585,-86.19253575501875 L4.649147699255489,-80.79069748789685" fill-opacity="0" stroke="black" stroke-width="1" />
<path d="M4.622661552173585,-13.807464244981244 L4.649147699255489,-19.209302512103147 L5.4160693706837595,-19.76408152501413" fill-opacity="0" stroke="black" stroke-width="1" />
<path d="M4.622661552173585,13.807464244981244 L4.649147699255489,19.209302512103147 L5.4160693706837595,19.76408152501413" fill-opacity="0" stroke="black" stroke-width="1" />
<path d="M4.622661552173585,86.19253575501875 L4.649147699255489,80.79069748789685 L5.4160693706837595,80.23591847498587" fill-opacity="0" stroke="black" stroke-width="1" />
<path d="M4.622661552173585,-86.19253575501875 L4.649147699255489,-80.79069748789685 L5.4160693706837595,-80.23591847498587" fill-opacity="0" stroke="black" stroke-width="1" />
<path d="M4.649147699255489,-19.209302512103147 L5.4160693706837595,-19.76408152501413 L5.744529349487393,-21.12408246174299" fill-opacity="0" stroke="black" stroke-width="1" />
<path d="M4.649147699255489,19.209302512103147 L5.4160693706837595,19.76408152501413 L5.744529349487393,21.12408246174299" fill-opacity="0" stroke="black" stroke-width="1" />
<path d="M4.649147699255489,80.79069748789685 L5.4160693706837595,80.23591847498587 L5.744529349487393,78.87591753825701" fill-opacity="0" stroke="black" stroke-width="1" />
<path d="M4.649147699255489,-80.79069748789685 L5.4160693706837595,-80.23591847498587 L5.744529349487393,-78.87591753825701" fill-opacity="0" stroke="black" stroke-width="1" />
<path d="M5.4160693706837595,-19.76408152501413 L5.744529349487393,-21.12408246174299 L15.107963602007867,-23.709781548337524" fill-opacity="0" stroke="black" stroke-width="1" />
<path d="M5.4160693706837595,19.76408152501413 L5.744529349487393,21.12408246174299 L15.107963602007867,23.709781548337524" fill-opacity="0" stroke="black" stroke-width="1" />
<path d="M5.4160693706837595,80.23591847498587 L5.744529349487393,78.87591753825701 L15.107963602007867,76.29021845166247" fill-opacity="0" stroke="black" stroke-width="1" />
<path d="M5.4160693706837595,-80.23591847498587 L5.744529349487393,-78.87591753825701 L15.107963602007867,-76.29021845166247" fill-opacity="0" stroke="black" stroke-width="1" />
<path d="M5.744529349487393,-21.12408246174299 L15.107963602007867,-23.709781548337524 L18.31795729575541,-26.955669698143847" fill-opacity="0" stroke="black" stroke-width="1" />
<path d="M5.744529349487393,21.12408246174299 L15.107963602007867,23.709781548337524 L18.31795729575541,26.955669698143847" fill-opacity="0" stroke="black" stroke-width="1" />
<path d="M5.744529349487393,78.87591753825701 L15.107963602007867,76.29021845166247 L18.31795729575541,73.04433030185615" fill-opacity="0" stroke="black" stroke-width="1" />
<path d="M5.744529349487393,-78.87591753825701 L15.107963602007867,-76.29021845166247 L18.31795729575541,-73.04433030185615" fill-opacity="0" stroke="black" stroke-width="1" />
<path d="M15.107963602007867,-23.709781548337524 L18.31795729575541,-26.955669698143847 L20.44895150256273,-29.536001809936202" fill-opacity="0" stroke="black" stroke-width="1" />
<path d="M15.107963602007867,23.709781548337524 L18.31795729575541,26.955669698143847 L20.44895150256273,29.536001809936202" fill-opacity="0" stroke="black" stroke-width="1" />
<path d="M15.107963602007867,76.29021845166247 L18.31795729575541,73.04433030185615 L20.44895150256273,70.46399819006379" fill-opacity="0" stroke="black" stroke-width="1" />
<path d="M15.107963602007867,-76.29021845166247 L18.31795729575541,-73.04433030185615 L20.44895150256273,-70.46399819006379" fill-opacity="0" stroke="black" stroke-width="1" />
<path d="M18.31795729575541,-26.955669698143847 L20.44895150256273,-29.536001809936202 L0.0,-30.0" fill-opacity="0" stroke="black" stroke-width="1" />
<path d="M18.31795729575541,26.955669698143847 L20.44895150256273,29.536001809936202 L0.0,30.0" fill-opacity="0" stroke="black" stroke-width="1" />
<path d="M18.31795729575541,73.04433030185615 L20.44895150256273,70.46399819006379 L0.0,70.0" fill-opacity="0" stroke="black" stroke-width="1" />
<path d="M18.31795729575541,-73.04433030185615 L20.44895150256273,-70.46399819006379 L0.0,-70.0" fill-opacity="0" stroke="black" stroke-width="1" />
<path d="M6.0,-50.0 L26.60716518713913,-35.08230119679435 L27.595042304785377,-38.82960326067698" fill-opacity="0" stroke="black" stroke-width="1" />
<path d="M6.0,50.0 L26.60716518713913,35.08230119679435 L27.595042304785377,38.82960326067698" fill-opacity="0" stroke="black" stroke-width="1" />
<path d="M6.0,50.0 L26.60716518713913,64.91769880320565 L27.595042304785377,61.17039673932302" fill-opacity="0" stroke="black" stroke-width="1" />
<path d="M6.0,-50.0 L26.60716518713913,-64.91769880320565 L27.595042304785377,-61.17039673932302" fill-opacity="0" stroke="black" stroke-width="1" />
<path d="M26.60716518713913,-35.08230119679435 L27.595042304785377,-38.82960326067698 L29.0,-50.0" fill-opacity="0" stroke="black" stroke-width="1" />
<path d="M26.60716518713913,35.08230119679435 L27.595042304785377,38.82960326067698 L29.0,50.0" fill-opacity="0" stroke="black" stroke-width="1" />
<path d="M26.60716518713913,64.91769880320565 L27.595042304785377,61.17039673932302 L29.0,50.0" fill-opacity="0" stroke="black" stroke-width="1" />
<path d="M26.60716518713913,-64.91769880320565 L27.595042304785377,-61.17039673932302 L29.0,-50.0" fill-opacity="0" stroke="black" stroke-width="1" />
<path d="M29.0,-50.0 L29.00436556946508,-39.74896697827198 L35.02160009629341,-45.62350593862416" fill-opacity="0" stroke="black" stroke-width="1" />
<path d="M29.0,50.0 L29.00436556946508,39.74896697827198 L35.02160009629341,45.62350593862416" fill-opacity="0" stroke="black" stroke-width="1" />
<path d="M29.0,50.0 L29.00436556946508,60.25103302172802 L35.02160009629341,54.37649406137584" fill-opacity="0" stroke="black" stroke-width="1" />
<path d="M29.0,-50.0 L29.00436556946508,-60.25103302172802 L35.02160009629341,-54.37649406137584" fill-opacity="0" stroke="black" stroke-width="1" />
<path d="M29.00436556946508,-39.74896697827198 L35.02160009629341,-45.62350593862416 L37.0,-50.0" fill-opacity="0" stroke="black" stroke-width="1" />
<path d="M29.00436556946508,39.74896697827198 L35.02160009629341,45.62350593862416 L37.0,50.0" fill-opacity="0" stroke="black" stroke-width="1" />
<path d="M29.00436556946508,60.25103302172802 L35.02160009629341,54.37649406137584 L37.0,50.0" fill-opacity="0" stroke="black" stroke-width="1" />
<path d="M29.00436556946508,-60.25103302172802 L35.02160009629341,-54.37649406137584 L37.0,-50.0" fill-opacity="0" stroke="black" stroke-width="1" />
<path d="M37.0,-50.0 L37.00461425502379,-46.67075976659532 L46.0,-50.0" fill-opacity="0" stroke="black" stroke-width="1" />
<path d="M37.0,50.0 L37.00461425502379,46.67075976659532 L46.0,50.0" fill-opacity="0" stroke="black" stroke-width="1" />
<path d="M37.0,50.0 L37.00461425502379,53.32924023340468 L46.0,50.0" fill-opacity="0" stroke="black" stroke-width="1" />
<path d="M37.0,-50.0 L37.00461425502379,-53.32924023340468 L46.0,-50.0" fill-opacity="0" stroke="black" stroke-width="1" />
<path d="M39.0,-39.0 L17.938843615061888,-24.362997579706104 L23.0,-23.0" fill-opacity="0" stroke="black" stroke-width="1" />
<path d="M39.0,39.0 L17.938843615061888,24.362997579706104 L23.0,23.0" fill-opacity="0" stroke="black" stroke-width="1" />
<path d="M39.0,61.0 L17.938843615061888,75.6370024202939 L23.0,77.0" fill-opacity="0" stroke="black" stroke-width="1" />
<path d="M39.0,-61.0 L17.938843615061888,-75.6370024202939 L23.0,-77.0" fill-opacity="0" stroke="black" stroke-width="1" />
<path d="M23.0,-23.0 L3.5228691760704507,-11.279444890102557 L10.0,-10.0" fill-opacity="0" stroke="black" stroke-width="1" />
<path d="M23.0,23.0 L3.5228691760704507,11.279444890102557 L10.0,10.0" fill-opacity="0" stroke="black" stroke-width="1" />
<path d="M23.0,77.0 L3.5228691760704507,88.72055510989745 L10.0,90.0" fill-opacity="0" stroke="black" stroke-width="1" />
<path d="M23.0,-77.0 L3.5228691760704507,-88.72055510989745 L10.0,-90.0" fill-opacity="0" stroke="black" stroke-width="1" />
<path d="M10.0,-10.0 L1.7757340910143693,-7.434674681328275 L0.8727459824018374,-5.044252495022761" fill-opacity="0" stroke="black" stroke-width="1" />
<path d="M10.0,10.0 L1.7757340910143693,7.434674681328275 L0.8727459824018374,5.044252495022761" fill-opacity="0" stroke="black" stroke-width="1" />
<path d="M10.0,90.0 L1.7757340910143693,92.56532531867173 L0.8727459824018374,94.95574750497724" fill-opacity="0" stroke="black" stroke-width="1" />
<path d="M10.0,-90.0 L1.7757340910143693,-92.56532531867173 L0.8727459824018374,-94.95574750497724" fill-opacity="0" stroke="black" stroke-width="1" />
<path d="M1.7757340910143693,-7.434674681328275 L0.8727459824018374,-5.044252495022761 L0.020750446148988175,-2.6321607850204987" fill-opacity="0" stroke="black" stroke-width="1" />
<path d="M1.7757340910143693,7.434674681328275 L0.8727459824018374,5.044252495022761 L0.020750446148988175,2.6321607850204987" fill-opacity="0" stroke="black" stroke-width="1" />
<path d="M1.7757340910143693,92.56532531867173 L0.8727459824018374,94.95574750497724 L0.020750446148988175,97.36783921497951" fill-opacity="0" stroke="black" stroke-width="1" />
<path d="M1.7757340910143693,-92.56532531867173 L0.8727459824018374,-94.95574750497724 L0.020750446148988175,-97.36783921497951" fill-opacity="0" stroke="black" stroke-width="1" />
<path d="M0.8727459824018374,-5.044252495022761 L0.020750446148988175,-2.6321607850204987 L0.012907366478564488,-0.0756442684228531" fill-opacity="0" stroke="black" stroke-width="1" />
<path d="M0.8727459824018374,5.044252495022761 L0.020750446148988175,2.6321607850204987 L0.012907366478564488,0.0756442684228531" fill-opacity="0" stroke="black" stroke-width="1" />
<path d="M0.8727459824018374,94.95574750497724 L0.020750446148988175,97.36783921497951 L0.012907366478564488,99.92435573157715" fill-opacity="0" stroke="black" stroke-width="1" />
<path d="M0.8727459824018374,-94.95574750497724 L0.020750446148988175,-97.36783921497951 L0.012907366478564488,-99.92435573157715" fill-opacity="0" stroke="black" stroke-width="1" />
<path d="M0.020750446148988175,-2.6321607850204987 L0.012907366478564488,-0.0756442684228531 L0.0,-0.0" fill-opacity="0" stroke="black" stroke-width="1" />
<path d="M0.020750446148988175,2.6321607850204987 L0.012907366478564488,0.0756442684228531 L0.0,-0.0" fill-opacity="0" stroke="black" stroke-width="1" />
<path d="M0.020750446148988175,97.36783921497951 L0.012907366478564488,99.92435573157715 L0.0,100.0" fill-opacity="0" stroke="black" stroke-width="1" />
<path d="M0.020750446148988175,-97.36783921497951 L0.012907366478564488,-99.92435573157715 L0.0,-100.0" fill-opacity="0" stroke="black" stroke-width="1" />
<path d="M0.0,100.0 L-3.740620096259767,87.76197404530558 L-4.622661552173585,86.19253575501875" fill-opacity="0" stroke="black" stroke-width="1" />
<path d="M0.0,-0.0 L-3.740620096259767,-12.238025954694422 L-4.622661552173585,-13.807464244981244" fill-opacity="0" stroke="black" stroke-width="1" />
<path d="M0.0,-0.0 L-3.740620096259767,12.238025954694422 L-4.622661552173585,13.807464244981247" fill-opacity="0" stroke="black" stroke-width="1" />
<path d="M0.0,-100.0 L-3.740620096259767,-87.76197404530558 L-4.622661552173585,-86.19253575501875" fill-opacity="0" stroke="black" stroke-width="1" />
<path d="M-3.740620096259767,87.76197404530558 L-4.622661552173585,86.19253575501875 L-4.649147699255489,80.79069748789685" fill-opacity="0" stroke="black" stroke-width="1" />
<path d="M-3.740620096259767,-12.238025954694422 L-4.622661552173585,-13.807464244981244 L-4.649147699255489,-19.209302512103147" fill-opacity="0" stroke="black" stroke-width="1" />
<path d="M-3.740620096259767,12.238025954694422 L-4.622661552173585,13.807464244981247 L-4.649147699255489,19.20930251210315" fill-opacity="0" stroke="black" stroke-width="1" />
<path d="M-3.740620096259767,-87.76197404530558 L-4.622661552173585,-86.19253575501875 L-4.649147699255489,-80.79069748789685" fill-opacity="0" stroke="black" stroke-width="1" />
<path d="M-4.622661552173585,86.19253575501875 L-4.649147699255489,80.79069748789685 L-5.4160693706837595,80.23591847498587" fill-opacity="0" stroke="black" stroke-width="1" />
<path d="M-4.622661552173585,-13.807464244981244 L-4.649147699255489,-19.209302512103147 L-5.4160693706837595,-19.76408152501413" fill-opacity="0" stroke="black" stroke-width="1" />
<path d="M-4.622661552173585,13.807464244981247 L-4.649147699255489,19.20930251210315 L-5.4160693706837595,19.764081525014134" fill-opacity="0" stroke="black" stroke-width="1" />
<path d="M-4.622661552173585,-86.19253575501875 L-4.649147699255489,-80.79069748789685 L-5.4160693706837595,-80.23591847498587" fill-opacity="0" stroke="black" stroke-width="1" />
<path d="M-4.649147699255489,80.79069748789685 L-5.4160693706837595,80.23591847498587 L-5.744529349487393,78.87591753825701" fill-opacity="0" stroke="black" stroke-width="1" />
<path d="M-4.649147699255489,-19.209302512103147 L-5.4160693706837595,-19.76408152501413 L-5.744529349487393,-21.12408246174299" fill-opacity="0" stroke="black" stroke-width="1" />
<path d="M-4.649147699255489,19.20930251210315 L-5.4160693706837595,19.764081525014134 L-5.744529349487393,21.124082461742987" fill-opacity="0" stroke="black" stroke-width="1" />
<path d="M-4.649147699255489,-80.79069748789685 L-5.4160693706837595,-80.23591847498587 L-5.744529349487393,-78.87591753825701" fill-opacity="0" stroke="black" stroke-width="1" />
<path d="M-5.4160693706837595,80.23591847498587 L-5.744529349487393,78.87591753825701 L-15.107963602007867,76.29021845166247" fill-opacity="0" stroke="black" stroke-width="1" />
<path d="M-5.4160693706837595,-19.76408152501413 L-5.744529349487393,-21.12408246174299 L-15.107963602007867,-23.709781548337524" fill-opacity="0" stroke="black" stroke-width="1" />
<path d="M-5.4160693706837595,19.764081525014134 L-5.744529349487393,21.124082461742987 L-15.107963602007867,23.70978154833753" fill-opacity="0" stroke="black" stroke-width="1" />
<path d="M-5.4160693706837595,-80.23591847498587 L-5.744529349487393,-78.87591753825701 L-15.107963602007867,-76.29021845166247" fill-opacity="0" stroke="black" stroke-width="1" />
<path d="M-5.744529349487393,78.87591753825701 L-15.107963602007867,76.29021845166247 L-18.31795729575541,73.04433030185615" fill-opacity="0" stroke="black" stroke-width="1" />
<path d="M-5.744529349487393,-21.12408246174299 L-15.107963602007867,-23.709781548337524 L-18.31795729575541,-26.955669698143847" fill-opacity="0" stroke="black" stroke-width="1" />
<path d="M-5.744529349487393,21.124082461742987 L-15.107963602007867,23.70978154833753 L-18.31795729575541,26.95566969814385" fill-opacity="0" stroke="black" stroke-width="1" />
<path d="M-5.744529349487393,-78.87591753825701 L-15.107963602007867,-76.29021845166247 L-18.31795729575541,-73.04433030185615" fill-opacity="0" stroke="black" stroke-width="1" />
<path d="M-15.107963602007867,76.29021845166247 L-18.31795729575541,73.04433030185615 L-20.44895150256273,70.46399819006379" fill-opacity="0" stroke="black" stroke-width="1" />
<path d="M-15.107963602007867,-23.709781548337524 L-18.31795729575541,-26.955669698143847 L-20.44895150256273,-29.536001809936202" fill-opacity="0" stroke="black" stroke-width="1" />
<path d="M-15.107963602007867,23.70978154833753 L-18.31795729575541,26.95566969814385 L-20.44895150256273,29.53600180993621" fill-opacity="0" stroke="black" stroke-width="1" />
<path d="M-15.107963602007867,-76.29021845166247 L-18.31795729575541,-73.04433030185615 L-20.44895150256273,-70.46399819006379" fill-opacity="0" stroke="black" stroke-width="1" />
<path d="M-18.31795729575541,73.04433030185615 L-20.44895150256273,70.46399819006379 L0.0,70.0" fill-opacity="0" stroke="black" stroke-width="1" />
<path d="M-18.31795729575541,-26.955669698143847 L-20.44895150256273,-29.536001809936202 L0.0,-30.0" fill-opacity="0" stroke="black" stroke-width="1" />
<path d="M-18.31795729575541,26.95566969814385 L-20.44895150256273,29.53600180993621 L0.0,30.0" fill-opacity="0" stroke="black" stroke-width="1" />
<path d="M-18.31795729575541,-73.04433030185615 L-20.44895150256273,-70.46399819006379 L0.0,-70.0" fill-opacity="0" stroke="black" stroke-width="1" />
<path d="M-6.0,50.0 L-26.60716518713913,64.91769880320565 L-27.595042304785377,61.17039673932302" fill-opacity="0" stroke="black" stroke-width="1" />
<path d="M-6.0,-50.0 L-26.60716518713913,-35.08230119679435 L-27.595042304785377,-38.82960326067698" fill-opacity="0" stroke="black" stroke-width="1" />
<path d="M-6.0,50.0 L-26.60716518713913,35.08230119679435 L-27.595042304785377,38.82960326067698" fill-opacity="0" stroke="black" stroke-width="1" />
<path d="M-6.0,-50.0 L-26.60716518713913,-64.91769880320565 L-27.595042304785377,-61.17039673932302" fill-opacity="0" stroke="black" stroke-width="1" />
<path d="M-26.60716518713913,64.91769880320565 L-27.595042304785377,61.17039673932302 L-29.0,50.0" fill-opacity="0" stroke="black" stroke-width="1" />
<path d="M-26.60716518713913,-35.08230119679435 L-27.595042304785377,-38.82960326067698 L-29.0,-50.0" fill-opacity="0" stroke="black" stroke-width="1" />
<path d="M-26.60716518713913,35.08230119679435 L-27.595042304785377,38.82960326067698 L-29.0,50.0" fill-opacity="0" stroke="black" stroke-width="1" />
<path d="M-26.60716518713913,-64.91769880320565 L-27.595042304785377,-61.17039673932302 L-29.0,-50.0" fill-opacity="0" stroke="black" stroke-width="1" />
<path d="M-29.0,50.0 L-29.00436556946508,60.25103302172802 L-35.02160009629341,54.37649406137584" fill-opacity="0" stroke="black" stroke-width="1" />
<path d="M-29.0,-50.0 L-29.00436556946508,-39.74896697827198 L-35.02160009629341,-45.62350593862416" fill-opacity="0" stroke="black" stroke-width="1" />
<path d="M-29.0,50.0 L-29.00436556946508,39.74896697827198 L-35.02160009629341,45.62350593862416" fill-opacity="0" stroke="black" stroke-width="1" />
<path d="M-29.0,-50.0 L-29.00436556946508,-60.25103302172802 L-35.02160009629341,-54.37649406137584" fill-opacity="0" stroke="black" stroke-width="1" />
<path d="M-29.00436556946508,60.25103302172802 L-35.02160009629341,54.37649406137584 L-37.0,50.0" fill-opacity="0" stroke="black" stroke-width="1" />
<path d="M-29.00436556946508,-39.74896697827198 L-35.02160009629341,-45.62350593862416 L-37.0,-50.0" fill-opacity="0" stroke="black" stroke-width="1" />
<path d="M-29.00436556946508,39.74896697827198 L-35.02160009629341,45.62350593862416 L-37.0,50.0" fill-opacity="0" stroke="black" stroke-width="1" />
<path d="M-29.00436556946508,-60.25103302172802 L-35.02160009629341,-54.37649406137584 L-37.0,-50.0" fill-opacity="0" stroke="black" stroke-width="1" />
<path d="M-37.0,50.0 L-37.00461425502379,53.32924023340468 L-46.0,50.0" fill-opacity="0" stroke="black" stroke-width="1" />
<path d="M-37.0,-50.0 L-37.00461425502379,-46.67075976659532 L-46.0,-50.0" fill-opacity="0" stroke="black" stroke-width="1" />
<path d="M-37.0,50.0 L-37.00461425502379,46.67075976659532 L-46.0,50.0" fill-opacity="0" stroke="black" stroke-width="1" />
<path d="M-37.0,-50.0 L-37.00461425502379,-53.32924023340468 L-46.0,-50.0" fill-opacity="0" stroke="black" stroke-width="1" />
<path d="M-39.0,61.0 L-17.938843615061888,75.6370024202939 L-23.0,77.0" fill-opacity="0" stroke="black" stroke-width="1" />
<path d="M-39.0,-39.0 L-17.938843615061888,-24.362997579706104 L-23.0,-23.0" fill-opacity="0" stroke="black" stroke-width="1" />
<path d="M-39.0,39.0 L-17.938843615061888,24.362997579706104 L-23.0,23.0" fill-opacity="0" stroke="black" stroke-width="1" />
<path d="M-39.0,-61.0 L-17.938843615061888,-75.6370024202939 L-23.0,-77.0" fill-opacity="0" stroke="black" stroke-width="1" />
<path d="M-23.0,77.0 L-3.5228691760704507,88.72055510989745 L-10.0,90.0" fill-opacity="0" stroke="black" stroke-width="1" />
<path d="M-23.0,-23.0 L-3.5228691760704507,-11.279444890102557 L-10.0,-10.0" fill-opacity="0" stroke="black" stroke-width="1" />
<path d="M-23.0,23.0 L-3.5228691760704507,11.279444890102553 L-10.0,10.0" fill-opacity="0" stroke="black" stroke-width="1" />
<path d="M-23.0,-77.0 L-3.5228691760704507,-88.72055510989745 L-10.0,-90.0" fill-opacity="0" stroke="black" stroke-width="1" />
<path d="M-10.0,90.0 L-1.7757340910143693,92.56532531867173 L-0.8727459824018374,94.95574750497724" fill-opacity="0" stroke="black" stroke-width="1" />
<path d="M-10.0,-10.0 L-1.7757340910143693,-7.434674681328275 L-0.8727459824018374,-5.044252495022761" fill-opacity="0" stroke="black" stroke-width="1" />
<path d="M-10.0,10.0 L-1.7757340910143693,7.434674681328275 L-0.8727459824018374,5.044252495022761" fill-opacity="0" stroke="black" stroke-width="1" />
<path d="M-10.0,-90.0 L-1.7757340910143693,-92.56532531867173 L-0.8727459824018374,-94.95574750497724" fill-opacity="0" stroke="black" stroke-width="1" />
<path d="M-1.7757340910143693,92.56532531867173 L-0.8727459824018374,94.95574750497724 L-0.020750446148988175,97.3678392149795" fill-opacity="0" stroke="black" stroke-width="1" />
<path d="M-1.7757340910143693,-7.434674681328275 L-0.8727459824018374,-5.044252495022761 L-0.020750446148988175,-2.6321607850204987" fill-opacity="0" stroke="black" stroke-width="1" />
<path d="M-1.7757340910143693,7.434674681328275 L-0.8727459824018374,5.044252495022761 L-0.020750446148988175,2.6321607850205027" fill-opacity="0" stroke="black" stroke-width="1" />
<path d="M-1.7757340910143693,-92.56532531867173 L-0.8727459824018374,-94.95574750497724 L-0.020750446148988175,-97.36783921497951" fill-opacity="0" stroke="black" stroke-width="1" />
<path d="M-0.8727459824018374,94.95574750497724 L-0.020750446148988175,97.3678392149795 L-0.012907366478564488,99.92435573157715" fill-opacity="0" stroke="black" stroke-width="1" />
<path d="M-0.8727459824018374,-5.044252495022761 L-0.020750446148988175,-2.6321607850204987 L-0.012907366478564488,-0.0756442684228531" fill-opacity="0" stroke="black" stroke-width="1" />
<path d="M-0.8727459824018374,5.044252495022761 L-0.020750446148988175,2.6321607850205027 L-0.012907366478564488,0.07564426842284888" fill-opacity="0" stroke="black" stroke-width="1" />
<path d="M-0.8727459824018374,-94.95574750497724 L-0.020750446148988175,-97.36783921497951 L-0.012907366478564488,-99.92435573157715" fill-opacity="0" stroke="black" stroke-width="1" />
<path d="M-0.020750446148988175,97.3678392149795 L-0.012907366478564488,99.92435573157715 L0.0,100.0" fill-opacity="0" stroke="black" stroke-width="1" />
<path d="M-0.020750446148988175,-2.6321607850204987 L-0.012907366478564488,-0.0756442684228531 L0.0,-0.0" fill-opacity="0" stroke="black" stroke-width="1" />
<path d="M-0.020750446148988175,2.6321607850205027 L-0.012907366478564488,0.07564426842284888 L0.0,-0.0" fill-opacity="0" stroke="black" stroke-width="1" />
<path d="M-0.020750446148988175,-97.36783921497951 L-0.012907366478564488,-99.92435573157715 L0.0,-100.0" fill-opacity="0" stroke="black" stroke-width="1" />
<path d="M-100.0,-0.0 L-87.76197404530558,-3.740620096259767 L-86.19253575501875,-4.622661552173585" fill-opacity="0" stroke="black" stroke-width="1" />
<path d="M-100.0,-0.0 L-87.76197404530558,3.740620096259767 L-86.19253575501875,4.622661552173585" fill-opacity="0" stroke="black" stroke-width="1" />
<path d="M-87.76197404530558,-3.740620096259767 L-86.19253575501875,-4.622661552173585 L-80.79069748789685,-4.649147699255489" fill-opacity="0" stroke="black" stroke-width="1" />
<path d="M-87.76197404530558,3.740620096259767 L-86.19253575501875,4.622661552173585 L-80.79069748789685,4.649147699255489" fill-opacity="0" stroke="black" stroke-width="1" />
<path d="M-86.19253575501875,-4.622661552173585 L-80.79069748789685,-4.649147699255489 L-80.23591847498587,-5.4160693706837595" fill-opacity="0" stroke="black" stroke-width="1" />
<path d="M-86.19253575501875,4.622661552173585 L-80.79069748789685,4.649147699255489 L-80.23591847498587,5.4160693706837595" fill-opacity="0" stroke="black" stroke-width="1" />
<path d="M-80.79069748789685,-4.649147699255489 L-80.23591847498587,-5.4160693706837595 L-78.87591753825701,-5.744529349487393" fill-opacity="0" stroke="black" stroke-width="1" />
<path d="M-80.79069748789685,4.649147699255489 L-80.23591847498587,5.4160693706837595 L-78.87591753825701,5.744529349487393" fill-opacity="0" stroke="black" stroke-width="1" />
<path d="M-80.23591847498587,-5.4160693706837595 L-78.87591753825701,-5.744529349487393 L-76.29021845166247,-15.107963602007867" fill-opacity="0" stroke="black" stroke-width="1" />
<path d="M-80.23591847498587,5.4160693706837595 L-78.87591753825701,5.744529349487393 L-76.29021845166247,15.107963602007867" fill-opacity="0" stroke="black" stroke-width="1" />
<path d="M-78.87591753825701,-5.744529349487393 L-76.29021845166247,-15.107963602007867 L-73.04433030185615,-18.31795729575541" fill-opacity="0" stroke="black" stroke-width="1" />
<path d="M-78.87591753825701,5.744529349487393 L-76.29021845166247,15.107963602007867 L-73.04433030185615,18.31795729575541" fill-opacity="0" stroke="black" stroke-width="1" />
<path d="M-76.29021845166247,-15.107963602007867 L-73.04433030185615,-18.31795729575541 L-70.46399819006379,-20.44895150256273" fill-opacity="0" stroke="black" stroke-width="1" />
<path d="M-76.29021845166247,15.107963602007867 L-73.04433030185615,18.31795729575541 L-70.46399819006379,20.44895150256273" fill-opacity="0" stroke="black" stroke-width="1" />
<path d="M-73.04433030185615,-18.31795729575541 L-70.46399819006379,-20.44895150256273 L-70.0,-0.0" fill-opacity="0" stroke="black" stroke-width="1" />
<path d="M-73.04433030185615,18.31795729575541 L-70.46399819006379,20.44895150256273 L-70.0,-0.0" fill-opacity="0" stroke="black" stroke-width="1" />
<path d="M-50.0,-6.0 L-64.91769880320565,-26.60716518713913 L-61.17039673932302,-27.595042304785377" fill-opacity="0" stroke="black" stroke-width="1" />
<path d="M-50.0,6.0 L-64.91769880320565,26.60716518713913 L-61.17039673932302,27.595042304785377" fill-opacity="0" stroke="black" stroke-width="1" />
<path d="M-64.91769880320565,-26.60716518713913 L-61.17039673932302,-27.595042304785377 L-50.0,-29.0" fill-opacity="0" stroke="black" stroke-width="1" />
<path d="M-64.91769880320565,26.60716518713913 L-61.17039673932302,27.595042304785377 L-50.0,29.0" fill-opacity="0" stroke="black" stroke-width="1" />
<path d="M-50.0,-29.0 L-60.25103302172802,-29.00436556946508 L-54.37649406137584,-35.02160009629341" fill-opacity="0" stroke="black" stroke-width="1" />
<path d="M-50.0,29.0 L-60.25103302172802,29.00436556946508 L-54.37649406137584,35.02160009629341" fill-opacity="0" stroke="black" stroke-width="1" />
<path d="M-60.25103302172802,-29.00436556946508 L-54.37649406137584,-35.02160009629341 L-50.0,-37.0" fill-opacity="0" stroke="black" stroke-width="1" />
<path d="M-60.25103302172802,29.00436556946508 L-54.37649406137584,35.02160009629341 L-50.0,37.0" fill-opacity="0" stroke="black" stroke-width="1" />
<path d="M-50.0,-37.0 L-53.32924023340468,-37.00461425502379 L-50.0,-46.0" fill-opacity="0" stroke="black" stroke-width="1" />
<path d="M-50.0,37.0 L-53.32924023340468,37.00461425502379 L-50.0,46.0" fill-opacity="0" stroke="black" stroke-width="1" />
<path d="M-50.0,-50.0 L-56.0,-44.0 L-60.0,-40.0" fill-opacity="0" stroke="black" stroke-width="1" />
<path d="M-50.0,50.0 L-56.0,44.0 L-60.0,40.0" fill-opacity="0" stroke="black" stroke-width="1" />
<path d="M-56.0,-44.0 L-60.0,-40.0 L-61.0,-39.0" fill-opacity="0" stroke="black" stroke-width="1" />
<path d="M-56.0,44.0 L-60.0,40.0 L-61.0,39.0" fill-opacity="0" stroke="black" stroke-width="1" />
<path d="M-60.0,-40.0 L-61.0,-39.0 L-75.6370024202939,-17.938843615061888" fill-opacity="0" stroke="black" stroke-width="1" />
<path d="M-60.0,40.0 L-61.0,39.0 L-75.6370024202939,17.938843615061888" fill-opacity="0" stroke="black" stroke-width="1" />
<path d="M-61.0,-39.0 L-75.6370024202939,-17.938843615061888 L-77.0,-23.0" fill-opacity="0" stroke="black" stroke-width="1" />
<path d="M-61.0,39.0 L-75.6370024202939,17.938843615061888 L-77.0,23.0" fill-opacity="0" stroke="black" stroke-width="1" />
<path d="M-75.6370024202939,-17.938843615061888 L-77.0,-23.0 L-88.72055510989745,-3.5228691760704507" fill-opacity="0" stroke="black" stroke-width="1" />
<path d="M-75.6370024202939,17.938843615061888 L-77.0,23.0 L-88.72055510989745,3.5228691760704507" fill-opacity="0" stroke="black" stroke-width="1" />
<path d="M-77.0,-23.0 L-88.72055510989745,-3.5228691760704507 L-90.0,-10.0" fill-opacity="0" stroke="black" stroke-width="1" />
<path d="M-77.0,23.0 L-88.72055510989745,3.5228691760704507 L-90.0,10.0" fill-opacity="0" stroke="black" stroke-width="1" />
<path d="M-88.72055510989745,-3.5228691760704507 L-90.0,-10.0 L-92.56532531867173,-1.7757340910143693" fill-opacity="0" stroke="black" stroke-width="1" />
<path d="M-88.72055510989745,3.5228691760704507 L-90.0,10.0 L-92.56532531867173,1.7757340910143693" fill-opacity="0" stroke="black" stroke-width="1" />
<path d="M-90.0,-10.0 L-92.56532531867173,-1.7757340910143693 L-94.95574750497724,-0.8727459824018374" fill-opacity="0" stroke="black" stroke-width="1" />
<path d="M-90.0,10.0 L-92.56532531867173,1.7757340910143693 L-94.95574750497724,0.8727459824018374" fill-opacity="0" stroke="black" stroke-width="1" />
<path d="M-92.56532531867173,-1.7757340910143693 L-94.95574750497724,-0.8727459824018374 L-97.36783921497951,-0.020750446148988175" fill-opacity="0" stroke="black" stroke-width="1" />
<path d="M-92.56532531867173,1.7757340910143693 L-94.95574750497724,0.8727459824018374 L-97.36783921497951,0.020750446148988175" fill-opacity="0" stroke="black" stroke-width="1" />
<path d="M-94.95574750497724,-0.8727459824018374 L-97.36783921497951,-0.020750446148988175 L-99.92435573157715,-0.012907366478564488" fill-opacity="0" stroke="black" stroke-width="1" />
<path d="M-94.95574750497724,0.8727459824018374 L-97.36783921497951,0.020750446148988175 L-99.92435573157715,0.012907366478564488" fill-opacity="0" stroke="black" stroke-width="1" />
<path d="M-97.36783921497951,-0.020750446148988175 L-99.92435573157715,-0.012907366478564488 L-100.0,-0.0" fill-opacity="0" stroke="black" stroke-width="1" />
<path d="M-97.36783921497951,0.020750446148988175 L-99.92435573157715,0.012907366478564488 L-100.0,-0.0" fill-opacity="0" stroke="black" stroke-width="1" />
<circle cx="0" cy="-97" r="8" stroke-dasharray="39.653880605311166 10.611601852125524" stroke-dashoffset="-17.59291886010284" stroke="black" stroke-width="1" fill="white" fill-opacity="1" />
<circle cx="0" cy="-97" r="4" stroke="black" stroke-width="1" fill="white" fill-opacity="1" />
</svg>