<?xml version="1.0" encoding="UTF-8"?>
<svg xmlns="http://www.w3.org/2000/svg" xmlns:xlink="http://www.w3.org/1999/xlink"
     width="250" height="250" viewBox="-125.0 -125.0 250 250">
<defs>
</defs>
<path d="M15.0,-0.0 L16.116588303262226,-8.062831245520407 L20.076184683704575,-10.4641500478644" fill-opacity="0" stroke="black" stroke-width="1" />
<path d="M15.0,-0.0 L16.116588303262226,8.062831245520407 L20.076184683704575,10.4641500478644" fill-opacity="0" stroke="black" stroke-width="1" />
<path d="M16.116588303262226,-8.062831245520407 L20.076184683704575,-10.4641500478644 L26.58370361503281,-10.52394370059377" fill-opacity="0" stroke="black" stroke-width="1" />
<path d="M16.116588303262226,8.062831245520407 L20.076184683704575,10.4641500478644 L26.58370361503281,10.52394370059377" fill-opacity="0" stroke="black" stroke-width="1" />
<path d="M20.076184683704575,-10.4641500478644 L26.58370361503281,-10.52394370059377 L30.018192432814427,-10.581480611551243" fill-opacity="0" stroke="black" stroke-width="1" />
<path d="M20.076184683704575,10.4641500478644 L26.58370361503281,10.52394370059377 L30.018192432814427,10.581480611551243" fill-opacity="0" stroke="black" stroke-width="1" />
<path d="M26.58370361503281,-10.52394370059377 L30.018192432814427,-10.581480611551243 L34.0044144203238,-12.41813120447149" fill-opacity="0" stroke="black" stroke-width="1" />
<path d="M26.58370361503281,10.52394370059377 L30.018192432814427,10.581480611551243 L34.0044144203238,12.41813120447149" fill-opacity="0" stroke="black" stroke-width="1" />
<path d="M30.018192432814427,-10.581480611551243 L34.0044144203238,-12.41813120447149 L39.0,-0.0" fill-opacity="0" stroke="black" stroke-width="1" />
<path d="M30.018192432814427,10.581480611551243 L34.0044144203238,12.41813120447149 L39.0,-0.0" fill-opacity="0" stroke="black" stroke-width="1" />
<path d="M50.0,50.0 L47.0,53.0 L43.0,57.0" fill-opacity="0" stroke="black" stroke-width="1" />
<path d="M50.0,-50.0 L47.0,-53.0 L43.0,-57.0" fill-opacity="0" stroke="black" stroke-width="1" />
<path d="M50.0,-9.0 L34.0859943613395,-18.09778171414266 L50.0,-19.0" fill-opacity="0" stroke="black" stroke-width="1" />
<path d="M50.0,9.0 L34.0859943613395,18.09778171414266 L50.0,19.0" fill-opacity="0" stroke="black" stroke-width="1" />
<path d="M50.0,-23.0 L43.38852175510771,-23.470411600131904 L43.95125399762044,-25.696233858766487" fill-opacity="0" stroke="black" stroke-width="1" />
<path d="M50.0,23.0 L43.38852175510771,23.470411600131904 L43.95125399762044,25.696233858766487" fill-opacity="0" stroke="black" stroke-width="1" />
<path d="M43.38852175510771,-23.470411600131904 L43.95125399762044,-25.696233858766487 L48.93482287608059,-38.9343297018003" fill-opacity="0" stroke="black" stroke-width="1" />
<path d="M43.38852175510771,23.470411600131904 L43.95125399762044,25.696233858766487 L48.93482287608059,38.9343297018003" fill-opacity="0" stroke="black" stroke-width="1" />
<path d="M43.95125399762044,-25.696233858766487 L48.93482287608059,-38.9343297018003 L50.0,-50.0" fill-opacity="0" stroke="black" stroke-width="1" />
<path d="M43.95125399762044,25.696233858766487 L48.93482287608059,38.9343297018003 L50.0,50.0" fill-opacity="0" stroke="black" stroke-width="1" />
<path d="M47.0,53.0 L43.0,57.0 L34.0,66.0" fill-opacity="0" stroke="black" stroke-width="1" />
<path d="M47.0,-53.0 L43.0,-57.0 L34.0,-66.0" fill-opacity="0" stroke="black" stroke-width="1" />
<path d="M43.0,57.0 L34.0,66.0 L29.0,71.0" fill-opacity="0" stroke="black" stroke-width="1" />
<path d="M43.0,-57.0 L34.0,-66.0 L29.0,-71.0" fill-opacity="0" stroke="black" stroke-width="1" />
<path d="M34.0,66.0 L29.0,71.0 L18.0,82.0" fill-opacity="0" stroke="black" stroke-width="1" />
<path d="M34.0,-66.0 L29.0,-71.0 L18.0,-82.0" fill-opacity="0" stroke="black" stroke-width="1" />
<path d="M29.0,71.0 L18.0,82.0 L14.0,86.0" fill-opacity="0" stroke="black" stroke-width="1" />
<path d="M29.0,-71.0 L18.0,-82.0 L14.0,-86.0" fill-opacity="0" stroke="black" stroke-width="1" />
<path d="M18.0,82.0 L14.0,86.0 L2.5051829086086568,89.57165856267548" fill-opacity="0" stroke="black" stroke-width="1" />
<path d="M18.0,-82.0 L14.0,-86.0 L2.5051829086086568,-89.57165856267548" fill-opacity="0" stroke="black" stroke-width="1" />
<path d="M14.0,-14.0 L10.428341437324523,-2.5051829086086568 L8.005595235157347,-1.7529592900535378" fill-opacity="0" stroke="black" stroke-width="1" />
<path d="M14.0,14.0 L10.428341437324523,2.5051829086086568 L8.005595235157347,1.7529592900535378" fill-opacity="0" stroke="black" stroke-width="1" />
<path d="M10.428341437324523,-2.5051829086086568 L8.005595235157347,-1.7529592900535378 L0.6108918669604835,-0.38741811198586007" fill-opacity="0" stroke="black" stroke-width="1" />
<path d="M10.428341437324523,2.5051829086086568 L8.005595235157347,1.7529592900535378 L0.6108918669604835,0.38741811198586007" fill-opacity="0" stroke="black" stroke-width="1" />
<path d="M8.005595235157347,-1.7529592900535378 L0.6108918669604835,-0.38741811198586007 L0.316691859286361,-0.27139705629118305" fill-opacity="0" stroke="black" stroke-width="1" />
<path d="M8.005595235157347,1.7529592900535378 L0.6108918669604835,0.38741811198586007 L0.316691859286361,0.27139705629118305" fill-opacity="0" stroke="black" stroke-width="1" />
<path d="M0.6108918669604835,-0.38741811198586007 L0.316691859286361,-0.27139705629118305 L0.0,-0.0" fill-opacity="0" stroke="black" stroke-width="1" />
<path d="M0.6108918669604835,0.38741811198586007 L0.316691859286361,0.27139705629118305 L0.0,-0.0" fill-opacity="0" stroke="black" stroke-width="1" />
<path d="M-15.0,-0.0 L-16.116588303262226,-8.062831245520407 L-20.076184683704575,-10.4641500478644" fill-opacity="0" stroke="black" stroke-width="1" />
<path d="M-15.0,-0.0 L-16.116588303262226,8.062831245520407 L-20.076184683704575,10.4641500478644" fill-opacity="0" stroke="black" stroke-width="1" />
<path d="M-16.116588303262226,-8.062831245520407 L-20.076184683704575,-10.4641500478644 L-26.58370361503281,-10.52394370059377" fill-opacity="0" stroke="black" stroke-width="1" />
<path d="M-16.116588303262226,8.062831245520407 L-20.076184683704575,10.4641500478644 L-26.58370361503281,10.52394370059377" fill-opacity="0" stroke="black" stroke-width="1" />
<path d="M-20.076184683704575,-10.4641500478644 L-26.58370361503281,-10.52394370059377 L-30.018192432814427,-10.581480611551243" fill-opacity="0" stroke="black" stroke-width="1" />
<path d="M-20.076184683704575,10.4641500478644 L-26.58370361503281,10.52394370059377 L-30.018192432814427,10.581480611551243" fill-opacity="0" stroke="black" stroke-width="1" />
<path d="M-26.58370361503281,-10.52394370059377 L-30.018192432814427,-10.581480611551243 L-34.0044144203238,-12.41813120447149" fill-opacity="0" stroke="black" stroke-width="1" />
<path d="M-26.58370361503281,10.52394370059377 L-30.018192432814427,10.581480611551243 L-34.0044144203238,12.41813120447149" fill-opacity="0" stroke="black" stroke-width="1" />
<path d="M-30.018192432814427,-10.581480611551243 L-34.0044144203238,-12.41813120447149 L-39.0,-0.0" fill-opacity="0" stroke="black" stroke-width="1" />
<path d="M-30.018192432814427,10.581480611551243 L-34.0044144203238,12.41813120447149 L-39.0,-0.0" fill-opacity="0" stroke="black" stroke-width="1" />
<path d="M-50.0,50.0 L-47.0,53.0 L-43.0,57.0" fill-opacity="0" stroke="black" stroke-width="1" />
<path d="M-50.0,-50.0 L-47.0,-53.0 L-43.0,-57.0" fill-opacity="0" stroke="black" stroke-width="1" />
<path d="M-50.0,-9.0 L-34.0859943613395,-18.09778171414266 L-50.0,-19.0" fill-opacity="0" stroke="black" stroke-width="1" />
<path d="M-50.0,9.0 L-34.0859943613395,18.09778171414266 L-50.0,19.0" fill-opacity="0" stroke="black" stroke-width="1" />
<path d="M-50.0,-23.0 L-43.38852175510771,-23.470411600131904 L-43.95125399762044,-25.696233858766487" fill-opacity="0" stroke="black" stroke-width="1" />
<path d="M-50.0,23.0 L-43.38852175510771,23.470411600131904 L-43.95125399762044,25.696233858766487" fill-opacity="0" stroke="black" stroke-width="1" />
<path d="M-43.38852175510771,-23.470411600131904 L-43.95125399762044,-25.696233858766487 L-48.93482287608059,-38.9343297018003" fill-opacity="0" stroke="black" stroke-width="1" />
<path d="M-43.38852175510771,23.470411600131904 L-43.95125399762044,25.696233858766487 L-48.93482287608059,38.9343297018003" fill-opacity="0" stroke="black" stroke-width="1" />
<path d="M-43.95125399762044,-25.696233858766487 L-48.93482287608059,-38.9343297018003 L-50.0,-50.0" fill-opacity="0" stroke="black" stroke-width="1" />
<path d="M-43.95125399762044,25.696233858766487 L-48.93482287608059,38.9343297018003 L-50.0,50.0" fill-opacity="0" stroke="black" stroke-width="1" />
<path d="M-47.0,53.0 L-43.0,57.0 L-34.0,66.0" fill-opacity="0" stroke="black" stroke-width="1" />
<path d="M-47.0,-53.0 L-43.0,-57.0 L-34.0,-66.0" fill-opacity="0" stroke="black" stroke-width="1" />
<path d="M-43.0,57.0 L-34.0,66.0 L-29.0,71.0" fill-opacity="0" stroke="black" stroke-width="1" />
<path d="M-43.0,-57.0 L-34.0,-66.0 L-29.0,-71.0" fill-opacity="0" stroke="black" stroke-width="1" />
<path d="M-34.0,66.0 L-29.0,71.0 L-18.0,82.0" fill-opacity="0" stroke="black" stroke-width="1" />
<path d="M-34.0,-66.0 L-29.0,-71.0 L-18.0,-82.0" fill-opacity="0" stroke="black" stroke-width="1" />
<path d="M-29.0,71.0 L-18.0,82.0 L-14.0,86.0" fill-opacity="0" stroke="black" stroke-width="1" />
<path d="M-29.0,-71.0 L-18.0,-82.0 L-14.0,-86.0" fill-opacity="0" stroke="black" stroke-width="1" />
<path d="M-18.0,82.0 L-14.0,86.0 L-2.5051829086086568,89.57165856267548" fill-opacity="0" stroke="black" stroke-width="1" />
<path d="M-18.0,-82.0 L-14.0,-86.0 L-2.5051829086086568,-89.57165856267548" fill-opacity="0" stroke="black" stroke-width="1" />
<path d="M-14.0,-14.0 L-10.428341437324523,-2.5051829086086568 L-8.005595235157347,-1.7529592900535378" fill-opacity="0" stroke="black" stroke-width="1" />
<path d="M-14.0,14.0 L-10.428341437324523,2.5051829086086568 L-8.005595235157347,1.7529592900535378" fill-opacity="0" stroke="black" stroke-width="1" />
<path d="M-10.428341437324523,-2.5051829086086568 L-8.005595235157347,-1.7529592900535378 L-0.6108918669604835,-0.38741811198586007" fill-opacity="0" stroke="black" stroke-width="1" />
<path d="M-10.428341437324523,2.5051829086086568 L-8.005595235157347,1.7529592900535378 L-0.6108918669604835,0.38741811198586007" fill-opacity="0" stroke="black" stroke-width="1" />
<path d="M-8.005595235157347,-1.7529592900535378 L-0.6108918669604835,-0.38741811198586007 L-0.316691859286361,-0.27139705629118305" fill-opacity="0" stroke="black" stroke-width="1" />
<path d="M-8.005595235157347,1.7529592900535378 L-0.6108918669604835,0.38741811198586007 L-0.316691859286361,0.27139705629118305" fill-opacity="0" stroke="black" stroke-width="1" />
<path d="M-0.6108918669604835,-0.38741811198586007 L-0.316691859286361,-0.27139705629118305 L0.0,-0.0" fill-opacity="0" stroke="black" stroke-width="1" />
<path d="M-0.6108918669604835,0.38741811198586007 L-0.316691859286361,0.27139705629118305 L0.0,-0.0" fill-opacity="0" stroke="black" stroke-width="1" />
<path d="M85.0,-0.0 L83.88341169673777,8.062831245520407 L79.92381531629542,10.4641500478644" fill-opacity="0" stroke="black" stroke-width="1" />
<path d="M85.0,-0.0 L83.88341169673777,-8.062831245520407 L79.92381531629542,-10.4641500478644" fill-opacity="0" stroke="black" stroke-width="1" />
<path d="M83.88341169673777,8.062831245520407 L79.92381531629542,10.4641500478644 L73.41629638496718,10.52394370059377" fill-opacity="0" stroke="black" stroke-width="1" />
<path d="M83.88341169673777,-8.062831245520407 L79.92381531629542,-10.4641500478644 L73.41629638496718,-10.52394370059377" fill-opacity="0" stroke="black" stroke-width="1" />
<path d="M79.92381531629542,10.4641500478644 L73.41629638496718,10.52394370059377 L69.98180756718557,10.581480611551243" fill-opacity="0" stroke="black" stroke-width="1" />
<path d="M79.92381531629542,-10.4641500478644 L73.41629638496718,-10.52394370059377 L69.98180756718557,-10.581480611551243" fill-opacity="0" stroke="black" stroke-width="1" />
<path d="M73.41629638496718,10.52394370059377 L69.98180756718557,10.581480611551243 L65.9955855796762,12.41813120447149" fill-opacity="0" stroke="black" stroke-width="1" />
<path d="M73.41629638496718,-10.52394370059377 L69.98180756718557,-10.581480611551243 L65.9955855796762,-12.41813120447149" fill-opacity="0" stroke="black" stroke-width="1" />
<path d="M69.98180756718557,10.581480611551243 L65.9955855796762,12.41813120447149 L61.0,-0.0" fill-opacity="0" stroke="black" stroke-width="1" />
<path d="M69.98180756718557,-10.581480611551243 L65.9955855796762,-12.41813120447149 L61.0,-0.0" fill-opacity="0" stroke="black" stroke-width="1" />
<path d="M50.0,50.0 L53.0,47.0 L57.0,43.0" fill-opacity="0" stroke="black" stroke-width="1" />
<path d="M50.0,-50.0 L53.0,-47.0 L57.0,-43.0" fill-opacity="0" stroke="black" stroke-width="1" />
<path d="M50.0,9.0 L65.9140056386605,18.09778171414266 L50.0,19.0" fill-opacity="0" stroke="black" stroke-width="1" />
<path d="M50.0,-9.0 L65.9140056386605,-18.09778171414266 L50.0,-19.0" fill-opacity="0" stroke="black" stroke-width="1" />
<path d="M50.0,23.0 L56.61147824489229,23.470411600131904 L56.04874600237956,25.696233858766487" fill-opacity="0" stroke="black" stroke-width="1" />
<path d="M50.0,-23.0 L56.61147824489229,-23.470411600131904 L56.04874600237956,-25.696233858766487" fill-opacity="0" stroke="black" stroke-width="1" />
<path d="M56.61147824489229,23.470411600131904 L56.04874600237956,25.696233858766487 L51.06517712391941,38.9343297018003" fill-opacity="0" stroke="black" stroke-width="1" />
<path d="M56.61147824489229,-23.470411600131904 L56.04874600237956,-25.696233858766487 L51.06517712391941,-38.9343297018003" fill-opacity="0" stroke="black" stroke-width="1" />
<path d="M56.04874600237956,25.696233858766487 L51.06517712391941,38.9343297018003 L50.0,50.0" fill-opacity="0" stroke="black" stroke-width="1" />
<path d="M56.04874600237956,-25.696233858766487 L51.06517712391941,-38.9343297018003 L50.0,-50.0" fill-opacity="0" stroke="black" stroke-width="1" />
<path d="M53.0,47.0 L57.0,43.0 L66.0,34.0" fill-opacity="0" stroke="black" stroke-width="1" />
<path d="M53.0,-47.0 L57.0,-43.0 L66.0,-34.0" fill-opacity="0" stroke="black" stroke-width="1" />
<path d="M57.0,43.0 L66.0,34.0 L71.0,29.0" fill-opacity="0" stroke="black" stroke-width="1" />
<path d="M57.0,-43.0 L66.0,-34.0 L71.0,-29.0" fill-opacity="0" stroke="black" stroke-width="1" />
<path d="M66.0,34.0 L71.0,29.0 L82.0,18.0" fill-opacity="0" stroke="black" stroke-width="1" />
<path d="M66.0,-34.0 L71.0,-29.0 L82.0,-18.0" fill-opacity="0" stroke="black" stroke-width="1" />
<path d="M71.0,29.0 L82.0,18.0 L86.0,14.0" fill-opacity="0" stroke="black" stroke-width="1" />
<path d="M71.0,-29.0 L82.0,-18.0 L86.0,-14.0" fill-opacity="0" stroke="black" stroke-width="1" />
<path d="M82.0,18.0 L86.0,14.0 L89.57165856267548,2.5051829086086568" fill-opacity="0" stroke="black" stroke-width="1" />
<path d="M82.0,-18.0 L86.0,-14.0 L89.57165856267548,-2.5051829086086568" fill-opacity="0" stroke="black" stroke-width="1" />
<path d="M86.0,14.0 L89.57165856267548,2.5051829086086568 L91.99440476484266,1.7529592900535378" fill-opacity="0" stroke="black" stroke-width="1" />
<path d="M86.0,-14.0 L89.57165856267548,-2.5051829086086568 L91.99440476484266,-1.7529592900535378" fill-opacity="0" stroke="black" stroke-width="1" />
<path d="M89.57165856267548,2.5051829086086568 L91.99440476484266,1.7529592900535378 L99.38910813303951,0.38741811198586007" fill-opacity="0" stroke="black" stroke-width="1" />
<path d="M89.57165856267548,-2.5051829086086568 L91.99440476484266,-1.7529592900535378 L99.38910813303951,-0.38741811198586007" fill-opacity="0" stroke="black" stroke-width="1" />
<path d="M91.99440476484266,1.7529592900535378 L99.38910813303951,0.38741811198586007 L99.68330814071365,0.27139705629118305" fill-opacity="0" stroke="black" stroke-width="1" />
<path d="M91.99440476484266,-1.7529592900535378 L99.38910813303951,-0.38741811198586007 L99.68330814071365,-0.27139705629118305" fill-opacity="0" stroke="black" stroke-width="1" />
<path d="M99.38910813303951,0.38741811198586007 L99.68330814071365,0.27139705629118305 L100.0,-0.0" fill-opacity="0" stroke="black" stroke-width="1" />
<path d="M99.38910813303951,-0.38741811198586007 L99.68330814071365,-0.27139705629118305 L100.0,-0.0" fill-opacity="0" stroke="black" stroke-width="1" />
<path d="M0.0,-15.0 L8.062831245520407,-16.116588303262226 L10.4641500478644,-20.076184683704575" fill-opacity="0" stroke="black" stroke-width="1" />
<path d="M0.0,15.0 L8.062831245520407,16.116588303262226 L10.4641500478644,20.076184683704575" fill-opacity="0" stroke="black" stroke-width="1" />
<path d="M0.0,85.0 L8.062831245520407,83.88341169673777 L10.4641500478644,79.92381531629542" fill-opacity="0" stroke="black" stroke-width="1" />
<path d="M0.0,-85.0 L8.062831245520407,-83.88341169673777 L10.4641500478644,-79.92381531629542" fill-opacity="0" stroke="black" stroke-width="1" />
<path d="M8.062831245520407,-16.116588303262226 L10.4641500478644,-20.076184683704575 L10.52394370059377,-26.58370361503281" fill-opacity="0" stroke="black" stroke-width="1" />
<path d="M8.062831245520407,16.116588303262226 L10.4641500478644,20.076184683704575 L10.52394370059377,26.58370361503281" fill-opacity="0" stroke="black" stroke-width="1" />
<path d="M8.062831245520407,83.88341169673777 L10.4641500478644,79.92381531629542 L10.52394370059377,73.41629638496718" fill-opacity="0" stroke="black" stroke-width="1" />
<path d="M8.062831245520407,-83.88341169673777 L10.4641500478644,-79.92381531629542 L10.52394370059377,-73.41629638496718" fill-opacity="0" stroke="black" stroke-width="1" />
<path d="M10.4641500478644,-20.076184683704575 L10.52394370059377,-26.58370361503281 L10.581480611551243,-30.018192432814427" fill-opacity="0" stroke="black" stroke-width="1" />
<path d="M10.4641500478644,20.076184683704575 L10.52394370059377,26.58370361503281 L10.581480611551243,30.018192432814427" fill-opacity="0" stroke="black" stroke-width="1" />
<path d="M10.4641500478644,79.92381531629542 L10.52394370059377,73.41629638496718 L10.581480611551243,69.98180756718557" fill-opacity="0" stroke="black" stroke-width="1" />
<path d="M10.4641500478644,-79.92381531629542 L10.52394370059377,-73.41629638496718 L10.581480611551243,-69.98180756718557" fill-opacity="0" stroke="black" stroke-width="1" />
<path d="M10.52394370059377,-26.58370361503281 L10.581480611551243,-30.018192432814427 L12.41813120447149,-34.0044144203238" fill-opacity="0" stroke="black" stroke-width="1" />
<path d="M10.52394370059377,26.58370361503281 L10.581480611551243,30.018192432814427 L12.41813120447149,34.0044144203238" fill-opacity="0" stroke="black" stroke-width="1" />
<path d="M10.52394370059377,73.41629638496718 L10.581480611551243,69.98180756718557 L12.41813120447149,65.9955855796762" fill-opacity="0" stroke="black" stroke-width="1" />
<path d="M10.52394370059377,-73.41629638496718 L10.581480611551243,-69.98180756718557 L12.41813120447149,-65.9955855796762" fill-opacity="0" stroke="black" stroke-width="1" />
<path d="M10.581480611551243,-30.018192432814427 L12.41813120447149,-34.0044144203238 L0.0,-39.0" fill-opacity="0" stroke="black" stroke-width="1" />
<path d="M10.581480611551243,30.018192432814427 L12.41813120447149,34.0044144203238 L0.0,39.0" fill-opacity="0" stroke="black" stroke-width="1" />
<path d="M10.581480611551243,69.98180756718557 L12.41813120447149,65.9955855796762 L0.0,61.0" fill-opacity="0" stroke="black" stroke-width="1" />
<path d="M10.581480611551243,-69.98180756718557 L12.41813120447149,-65.9955855796762 L0.0,-61.0" fill-opacity="0" stroke="black" stroke-width="1" />
<path d="M9.0,-50.0 L18.09778171414266,-34.0859943613395 L19.0,-50.0" fill-opacity="0" stroke="black" stroke-width="1" />
<path d="M9.0,50.0 L18.09778171414266,34.0859943613395 L19.0,50.0" fill-opacity="0" stroke="black" stroke-width="1" />
<path d="M9.0,50.0 L18.09778171414266,65.9140056386605 L19.0,50.0" fill-opacity="0" stroke="black" stroke-width="1" />
<path d="M9.0,-50.0 L18.09778171414266,-65.9140056386605 L19.0,-50.0" fill-opacity="0" stroke="black" stroke-width="1" />
<path d="M23.0,-50.0 L23.470411600131904,-43.38852175510771 L25.696233858766487,-43.95125399762044" fill-opacity="0" stroke="black" stroke-width="1" />
<path d="M23.0,50.0 L23.470411600131904,43.38852175510771 L25.696233858766487,43.95125399762044" fill-opacity="0" stroke="black" stroke-width="1" />
<path d="M23.0,50.0 L23.470411600131904,56.61147824489229 L25.696233858766487,56.04874600237956" fill-opacity="0" stroke="black" stroke-width="1" />
<path d="M23.0,-50.0 L23.470411600131904,-56.61147824489229 L25.696233858766487,-56.04874600237956" fill-opacity="0" stroke="black" stroke-width="1" />
<path d="M23.470411600131904,-43.38852175510771 L25.696233858766487,-43.95125399762044 L38.9343297018003,-48.93482287608059" fill-opacity="0" stroke="black" stroke-width="1" />
<path d="M23.470411600131904,43.38852175510771 L25.696233858766487,43.95125399762044 L38.9343297018003,48.93482287608059" fill-opacity="0" stroke="black" stroke-width="1" />
<path d="M23.470411600131904,56.61147824489229 L25.696233858766487,56.04874600237956 L38.9343297018003,51.06517712391941" fill-opacity="0" stroke="black" stroke-width="1" />
<path d="M23.470411600131904,-56.61147824489229 L25.696233858766487,-56.04874600237956 L38.9343297018003,-51.06517712391941" fill-opacity="0" stroke="black" stroke-width="1" />
<path d="M25.696233858766487,-43.95125399762044 L38.9343297018003,-48.93482287608059 L50.0,-50.0" fill-opacity="0" stroke="black" stroke-width="1" />
<path d="M25.696233858766487,43.95125399762044 L38.9343297018003,48.93482287608059 L50.0,50.0" fill-opacity="0" stroke="black" stroke-width="1" />
<path d="M25.696233858766487,56.04874600237956 L38.9343297018003,51.06517712391941 L50.0,50.0" fill-opacity="0" stroke="black" stroke-width="1" />
<path d="M25.696233858766487,-56.04874600237956 L38.9343297018003,-51.06517712391941 L50.0,-50.0" fill-opacity="0" stroke="black" stroke-width="1" />
<path d="M14.0,-14.0 L2.5051829086086568,-10.428341437324523 L1.7529592900535378,-8.005595235157347" fill-opacity="0" stroke="black" stroke-width="1" />
<path d="M14.0,14.0 L2.5051829086086568,10.428341437324523 L1.7529592900535378,8.005595235157347" fill-opacity="0" stroke="black" stroke-width="1" />
<path d="M14.0,86.0 L2.5051829086086568,89.57165856267548 L1.7529592900535378,91.99440476484266" fill-opacity="0" stroke="black" stroke-width="1" />
<path d="M14.0,-86.0 L2.5051829086086568,-89.57165856267548 L1.7529592900535378,-91.99440476484266" fill-opacity="0" stroke="black" stroke-width="1" />
<path d="M2.5051829086086568,-10.428341437324523 L1.7529592900535378,-8.005595235157347 L0.38741811198586007,-0.6108918669604835" fill-opacity="0" stroke="black" stroke-width="1" />
<path d="M2.5051829086086568,10.428341437324523 L1.7529592900535378,8.005595235157347 L0.38741811198586007,0.6108918669604835" fill-opacity="0" stroke="black" stroke-width="1" />
<path d="M2.5051829086086568,89.57165856267548 L1.7529592900535378,91.99440476484266 L0.38741811198586007,99.38910813303951" fill-opacity="0" stroke="black" stroke-width="1" />
<path d="M2.5051829086086568,-89.57165856267548 L1.7529592900535378,-91.99440476484266 L0.38741811198586007,-99.38910813303951" fill-opacity="0" stroke="black" stroke-width="1" />
<path d="M1.7529592900535378,-8.005595235157347 L0.38741811198586007,-0.6108918669604835 L0.27139705629118305,-0.316691859286361" fill-opacity="0" stroke="black" stroke-width="1" />
<path d="M1.7529592900535378,8.005595235157347 L0.38741811198586007,0.6108918669604835 L0.27139705629118305,0.316691859286361" fill-opacity="0" stroke="black" stroke-width="1" />
<path d="M1.7529592900535378,91.99440476484266 L0.38741811198586007,99.38910813303951 L0.27139705629118305,99.68330814071365" fill-opacity="0" stroke="black" stroke-width="1" />
<path d="M1.7529592900535378,-91.99440476484266 L0.38741811198586007,-99.38910813303951 L0.27139705629118305,-99.68330814071365" fill-opacity="0" stroke="black" stroke-width="1" />
<path d="M0.38741811198586007,-0.6108918669604835 L0.27139705629118305,-0.316691859286361 L0.0,-0.0" fill-opacity="0" stroke="black" stroke-width="1" />
<path d="M0.38741811198586007,0.6108918669604835 L0.27139705629118305,0.316691859286361 L0.0,-0.0" fill-opacity="0" stroke="black" stroke-width="1" />
<path d="M0.38741811198586007,99.38910813303951 L0.27139705629118305,99.68330814071365 L0.0,100.0" fill-opacity="0" stroke="black" stroke-width="1" />
<path d="M0.38741811198586007,-99.38910813303951 L0.27139705629118305,-99.68330814071365 L0.0,-100.0" fill-opacity="0" stroke="black" stroke-width="1" />
<path d="M0.0,85.0 L-8.062831245520407,83.88341169673777 L-10.4641500478644,79.92381531629542" fill-opacity="0" stroke="black" stroke-width="1" />
<path d="M0.0,-15.0 L-8.062831245520407,-16.116588303262226 L-10.4641500478644,-20.076184683704575" fill-opacity="0" stroke="black" stroke-width="1" />
<path d="M0.0,15.0 L-8.062831245520407,16.116588303262233 L-10.4641500478644,20.076184683704582" fill-opacity="0" stroke="black" stroke-width="1" />
<path d="M0.0,-85.0 L-8.062831245520407,-83.88341169673777 L-10.4641500478644,-79.92381531629542" fill-opacity="0" stroke="black" stroke-width="1" />
<path d="M-8.062831245520407,83.88341169673777 L-10.4641500478644,79.92381531629542 L-10.52394370059377,73.41629638496718" fill-opacity="0" stroke="black" stroke-width="1" />
<path d="M-8.062831245520407,-16.116588303262226 L-10.4641500478644,-20.076184683704575 L-10.52394370059377,-26.58370361503281" fill-opacity="0" stroke="black" stroke-width="1" />
<path d="M-8.062831245520407,16.116588303262233 L-10.4641500478644,20.076184683704582 L-10.52394370059377,26.583703615032817" fill-opacity="0" stroke="black" stroke-width="1" />
<path d="M-8.062831245520407,-83.88341169673777 L-10.4641500478644,-79.92381531629542 L-10.52394370059377,-73.41629638496718" fill-opacity="0" stroke="black" stroke-width="1" />
<path d="M-10.4641500478644,79.92381531629542 L-10.52394370059377,73.41629638496718 L-10.581480611551243,69.98180756718557" fill-opacity="0" stroke="black" stroke-width="1" />
<path d="M-10.4641500478644,-20.076184683704575 L-10.52394370059377,-26.58370361503281 L-10.581480611551243,-30.018192432814427" fill-opacity="0" stroke="black" stroke-width="1" />
<path d="M-10.4641500478644,20.076184683704582 L-10.52394370059377,26.583703615032817 L-10.581480611551243,30.01819243281443" fill-opacity="0" stroke="black" stroke-width="1" />
<path d="M-10.4641500478644,-79.92381531629542 L-10.52394370059377,-73.41629638496718 L-10.581480611551243,-69.98180756718557" fill-opacity="0" stroke="black" stroke-width="1" />
<path d="M-10.52394370059377,73.41629638496718 L-10.581480611551243,69.98180756718557 L-12.41813120447149,65.9955855796762" fill-opacity="0" stroke="black" stroke-width="1" />
<path d="M-10.52394370059377,-26.58370361503281 L-10.581480611551243,-30.018192432814427 L-12.41813120447149,-34.0044144203238" fill-opacity="0" stroke="black" stroke-width="1" />
<path d="M-10.52394370059377,26.583703615032817 L-10.581480611551243,30.01819243281443 L-12.41813120447149,34.0044144203238" fill-opacity="0" stroke="black" stroke-width="1" />
<path d="M-10.52394370059377,-73.41629638496718 L-10.581480611551243,-69.98180756718557 L-12.41813120447149,-65.9955855796762" fill-opacity="0" stroke="black" stroke-width="1" />
<path d="M-10.581480611551243,69.98180756718557 L-12.41813120447149,65.9955855796762 L0.0,61.0" fill-opacity="0" stroke="black" stroke-width="1" />
<path d="M-10.581480611551243,-30.018192432814427 L-12.41813120447149,-34.0044144203238 L0.0,-39.0" fill-opacity="0" stroke="black" stroke-width="1" />
<path d="M-10.581480611551243,30.01819243281443 L-12.41813120447149,34.0044144203238 L0.0,39.0" fill-opacity="0" stroke="black" stroke-width="1" />
<path d="M-10.581480611551243,-69.98180756718557 L-12.41813120447149,-65.9955855796762 L0.0,-61.0" fill-opacity="0" stroke="black" stroke-width="1" />
<path d="M-9.0,50.0 L-18.09778171414266,65.9140056386605 L-19.0,50.0" fill-opacity="0" stroke="black" stroke-width="1" />
<path d="M-9.0,-50.0 L-18.09778171414266,-34.0859943613395 L-19.0,-50.0" fill-opacity="0" stroke="black" stroke-width="1" />
<path d="M-9.0,50.0 L-18.09778171414266,34.0859943613395 L-19.0,50.0" fill-opacity="0" stroke="black" stroke-width="1" />
<path d="M-9.0,-50.0 L-18.09778171414266,-65.9140056386605 L-19.0,-50.0" fill-opacity="0" stroke="black" stroke-width="1" />
<path d="M-23.0,50.0 L-23.470411600131904,56.61147824489229 L-25.696233858766487,56.04874600237956" fill-opacity="0" stroke="black" stroke-width="1" />
<path d="M-23.0,-50.0 L-23.470411600131904,-43.38852175510771 L-25.696233858766487,-43.95125399762044" fill-opacity="0" stroke="black" stroke-width="1" />
<path d="M-23.0,50.0 L-23.470411600131904,43.38852175510771 L-25.696233858766487,43.95125399762044" fill-opacity="0" stroke="black" stroke-width="1" />
<path d="M-23.0,-50.0 L-23.470411600131904,-56.61147824489229 L-25.696233858766487,-56.04874600237956" fill-opacity="0" stroke="black" stroke-width="1" />
<path d="M-23.470411600131904,56.61147824489229 L-25.696233858766487,56.04874600237956 L-38.9343297018003,51.06517712391941" fill-opacity="0" stroke="black" stroke-width="1" />
<path d="M-23.470411600131904,-43.38852175510771 L-25.696233858766487,-43.95125399762044 L-38.9343297018003,-48.93482287608059" fill-opacity="0" stroke="black" stroke-width="1" />
<path d="M-23.470411600131904,43.38852175510771 L-25.696233858766487,43.95125399762044 L-38.9343297018003,48.93482287608059" fill-opacity="0" stroke="black" stroke-width="1" />
<path d="M-23.470411600131904,-56.61147824489229 L-25.696233858766487,-56.04874600237956 L-38.9343297018003,-51.06517712391941" fill-opacity="0" stroke="black" stroke-width="1" />
<path d="M-25.696233858766487,56.04874600237956 L-38.9343297018003,51.06517712391941 L-50.0,50.0" fill-opacity="0" stroke="black" stroke-width="1" />
<path d="M-25.696233858766487,-43.95125399762044 L-38.9343297018003,-48.93482287608059 L-50.0,-50.0" fill-opacity="0" stroke="black" stroke-width="1" />
<path d="M-25.696233858766487,43.95125399762044 L-38.9343297018003,48.93482287608059 L-50.0,50.0" fill-opacity="0" stroke="black" stroke-width="1" />
<path d="M-25.696233858766487,-56.04874600237956 L-38.9343297018003,-51.06517712391941 L-50.0,-50.0" fill-opacity="0" stroke="black" stroke-width="1" />
<path d="M-14.0,86.0 L-2.5051829086086568,89.57165856267548 L-1.7529592900535378,91.99440476484266" fill-opacity="0" stroke="black" stroke-width="1" />
<path d="M-14.0,-14.0 L-2.5051829086086568,-10.428341437324523 L-1.7529592900535378,-8.005595235157347" fill-opacity="0" stroke="black" stroke-width="1" />
<path d="M-14.0,14.0 L-2.5051829086086568,10.42834143732452 L-1.7529592900535378,8.005595235157344" fill-opacity="0" stroke="black" stroke-width="1" />
<path d="M-14.0,-86.0 L-2.5051829086086568,-89.57165856267548 L-1.7529592900535378,-91.99440476484266" fill-opacity="0" stroke="black" stroke-width="1" />
<path d="M-2.5051829086086568,89.57165856267548 L-1.7529592900535378,91.99440476484266 L-0.38741811198586007,99.38910813303951" fill-opacity="0" stroke="black" stroke-width="1" />
<path d="M-2.5051829086086568,-10.428341437324523 L-1.7529592900535378,-8.005595235157347 L-0.38741811198586007,-0.6108918669604835" fill-opacity="0" stroke="black" stroke-width="1" />
<path d="M-2.5051829086086568,10.42834143732452 L-1.7529592900535378,8.005595235157344 L-0.38741811198586007,0.6108918669604861" fill-opacity="0" stroke="black" stroke-width="1" />
<path d="M-2.5051829086086568,-89.57165856267548 L-1.7529592900535378,-91.99440476484266 L-0.38741811198586007,-99.38910813303951" fill-opacity="0" stroke="black" stroke-width="1" />
<path d="M-1.7529592900535378,91.99440476484266 L-0.38741811198586007,99.38910813303951 L-0.27139705629118305,99.68330814071363" fill-opacity="0" stroke="black" stroke-width="1" />
<path d="M-1.7529592900535378,-8.005595235157347 L-0.38741811198586007,-0.6108918669604835 L-0.27139705629118305,-0.316691859286361" fill-opacity="0" stroke="black" stroke-width="1" />
<path d="M-1.7529592900535378,8.005595235157344 L-0.38741811198586007,0.6108918669604861 L-0.27139705629118305,0.31669185928636523" fill-opacity="0" stroke="black" stroke-width="1" />
<path d="M-1.7529592900535378,-91.99440476484266 L-0.38741811198586007,-99.38910813303951 L-0.27139705629118305,-99.68330814071365" fill-opacity="0" stroke="black" stroke-width="1" />
<path d="M-0.38741811198586007,99.38910813303951 L-0.27139705629118305,99.68330814071363 L0.0,100.0" fill-opacity="0" stroke="black" stroke-width="1" />
<path d="M-0.38741811198586007,-0.6108918669604835 L-0.27139705629118305,-0.316691859286361 L0.0,-0.0" fill-opacity="0" stroke="black" stroke-width="1" />
<path d="M-0.38741811198586007,0.6108918669604861 L-0.27139705629118305,0.31669185928636523 L0.0,-0.0" fill-opacity="0" stroke="black" stroke-width="1" />
<path d="M-0.38741811198586007,-99.38910813303951 L-0.27139705629118305,-99.68330814071365 L0.0,-100.0" fill-opacity="0" stroke="black" stroke-width="1" />
<path d="M-85.0,-0.0 L-83.88341169673777,-8.062831245520407 L-79.92381531629542,-10.4641500478644" fill-opacity="0" stroke="black" stroke-width="1" />
<path d="M-85.0,-0.0 L-83.88341169673777,8.062831245520407 L-79.92381531629542,10.4641500478644" fill-opacity="0" stroke="black" stroke-width="1" />
<path d="M-83.88341169673777,-8.062831245520407 L-79.92381531629542,-10.4641500478644 L-73.41629638496718,-10.52394370059377" fill-opacity="0" stroke="black" stroke-width="1" />
<path d="M-83.88341169673777,8.062831245520407 L-79.92381531629542,10.4641500478644 L-73.41629638496718,10.52394370059377" fill-opacity="0" stroke="black" stroke-width="1" />
<path d="M-79.92381531629542,-10.4641500478644 L-73.41629638496718,-10.52394370059377 L-69.98180756718557,-10.581480611551243" fill-opacity="0" stroke="black" stroke-width="1" />
<path d="M-79.92381531629542,10.4641500478644 L-73.41629638496718,10.52394370059377 L-69.98180756718557,10.581480611551243" fill-opacity="0" stroke="black" stroke-width="1" />
<path d="M-73.41629638496718,-10.52394370059377 L-69.98180756718557,-10.581480611551243 L-65.9955855796762,-12.41813120447149" fill-opacity="0" stroke="black" stroke-width="1" />
<path d="M-73.41629638496718,10.52394370059377 L-69.98180756718557,10.581480611551243 L-65.9955855796762,12.41813120447149" fill-opacity="0" stroke="black" stroke-width="1" />
<path d="M-69.98180756718557,-10.581480611551243 L-65.9955855796762,-12.41813120447149 L-61.0,-0.0" fill-opacity="0" stroke="black" stroke-width="1" />
<path d="M-69.98180756718557,10.581480611551243 L-65.9955855796762,12.41813120447149 L-61.0,-0.0" fill-opacity="0" stroke="black" stroke-width="1" />
<path d="M-50.0,-50.0 L-53.0,-47.0 L-57.0,-43.0" fill-opacity="0" stroke="black" stroke-width="1" />
<path d="M-50.0,50.0 L-53.0,47.0 L-57.0,43.0" fill-opacity="0" stroke="black" stroke-width="1" />
<path d="M-50.0,-9.0 L-65.9140056386605,-18.09778171414266 L-50.0,-19.0" fill-opacity="0" stroke="black" stroke-width="1" />
<path d="M-50.0,9.0 L-65.9140056386605,18.09778171414266 L-50.0,19.0" fill-opacity="0" stroke="black" stroke-width="1" />
<path d="M-50.0,-23.0 L-56.61147824489229,-23.470411600131904 L-56.04874600237956,-25.696233858766487" fill-opacity="0" stroke="black" stroke-width="1" />
<path d="M-50.0,23.0 L-56.61147824489229,23.470411600131904 L-56.04874600237956,25.696233858766487" fill-opacity="0" stroke="black" stroke-width="1" />
<path d="M-56.61147824489229,-23.470411600131904 L-56.04874600237956,-25.696233858766487 L-51.06517712391941,-38.9343297018003" fill-opacity="0" stroke="black" stroke-width="1" />
<path d="M-56.61147824489229,23.470411600131904 L-56.04874600237956,25.696233858766487 L-51.06517712391941,38.9343297018003" fill-opacity="0" stroke="black" stroke-width="1" />
<path d="M-56.04874600237956,-25.696233858766487 L-51.06517712391941,-38.9343297018003 L-50.0,-50.0" fill-opacity="0" stroke="black" stroke-width="1" />
<path d="M-56.04874600237956,25.696233858766487 L-51.06517712391941,38.9343297018003 L-50.0,50.0" fill-opacity="0" stroke="black" stroke-width="1" />
<path d="M-53.0,-47.0 L-57.0,-43.0 L-66.0,-34.0" fill-opacity="0" stroke="black" stroke-width="1" />
<path d="M-53.0,47.0 L-57.0,43.0 L-66.0,34.0" fill-opacity="0" stroke="black" stroke-width="1" />
<path d="M-57.0,-43.0 L-66.0,-34.0 L-71.0,-29.0" fill-opacity="0" stroke="black" stroke-width="1" />
<path d="M-57.0,43.0 L-66.0,34.0 L-71.0,29.0" fill-opacity="0" stroke="black" stroke-width="1" />
<path d="M-66.0,-34.0 L-71.0,-29.0 L-82.0,-18.0" fill-opacity="0" stroke="black" stroke-width="1" />
<path d="M-66.0,34.0 L-71.0,29.0 L-82.0,18.0" fill-opacity="0" stroke="black" stroke-width="1" />
<path d="M-71.0,-29.0 L-82.0,-18.0 L-86.0,-14.0" fill-opacity="0" stroke="black" stroke-width="1" />
<path d="M-71.0,29.0 L-82.0,18.0 L-86.0,14.0" fill-opacity="0" stroke="black" stroke-width="1" />
<path d="M-82.0,-18.0 L-86.0,-14.0 L-89.57165856267548,-2.5051829086086568" fill-opacity="0" stroke="black" stroke-width="1" />
<path d="M-82.0,18.0 L-86.0,14.0 L-89.57165856267548,2.5051829086086568" fill-opacity="0" stroke="black" stroke-width="1" />
<path d="M-86.0,-14.0 L-89.57165856267548,-2.5051829086086568 L-91.99440476484266,-1.7529592900535378" fill-opacity="0" stroke="black" stroke-width="1" />
<path d="M-86.0,14.0 L-89.57165856267548,2.5051829086086568 L-91.99440476484266,1.7529592900535378" fill-opacity="0" stroke="black" stroke-width="1" />
<path d="M-89.57165856267548,-2.5051829086086568 L-91.99440476484266,-1.7529592900535378 L-99.38910813303951,-0.38741811198586007" fill-opacity="0" stroke="black" stroke-width="1" />
<path d="M-89.57165856267548,2.5051829086086568 L-91.99440476484266,1.7529592900535378 L-99.38910813303951,0.38741811198586007" fill-opacity="0" stroke="black" stroke-width="1" />
<path d="M-91.99440476484266,-1.7529592900535378 L-99.38910813303951,-0.38741811198586007 L-99.68330814071365,-0.27139705629118305" fill-opacity="0" stroke="black" stroke-width="1" />
<path d="M-91.99440476484266,1.7529592900535378 L-99.38910813303951,0.38741811198586007 L-99.68330814071365,0.27139705629118305" fill-opacity="0" stroke="black" stroke-width="1" />
<path d="M-99.38910813303951,-0.38741811198586007 L-99.68330814071365,-0.27139705629118305 L-100.0,-0.0" fill-opacity="0" stroke="black" stroke-width="1" />
<path d="M-99.38910813303951,0.38741811198586007 L-99.68330814071365,0.27139705629118305 L-100.0,-0.0" fill-opacity="0" stroke="black" stroke-width="1" />
<circle cx="0" cy="-97" r="8" stroke-dasharray="39.653880605311166 10.611601852125524" stroke-dashoffset="-17.59291886010284" stroke="black" stroke-width="1" fill="white" fill-opacity="1" />
<circle cx="0" cy="-97" r="4" stroke="black" stroke-width="1" fill="white" fill-opacity="1" />
</svg>