<?xml version="1.0" encoding="UTF-8"?>
<svg xmlns="http://www.w3.org/2000/svg" xmlns:xlink="http://www.w3.org/1999/xlink"
     width="250" height="250" viewBox="-125.0 -125.0 250 250">
<defs>
</defs>
<path d="M19.0,81.0 L4.0,96.0 L2.0,98.0" fill-opacity="0" stroke="black" stroke-width="1" />
<path d="M19.0,-81.0 L4.0,-96.0 L2.0,-98.0" fill-opacity="0" stroke="black" stroke-width="1" />
<path d="M50.0,-28.0 L46.99576000927654,-35.07520750965198 L50.0,-39.0" fill-opacity="0" stroke="black" stroke-width="1" />
<path d="M50.0,28.0 L46.99576000927654,35.07520750965198 L50.0,39.0" fill-opacity="0" stroke="black" stroke-width="1" />
<path d="M50.0,50.0 L45.0,55.0 L41.0,59.0" fill-opacity="0" stroke="black" stroke-width="1" />
<path d="M50.0,-50.0 L45.0,-55.0 L41.0,-59.0" fill-opacity="0" stroke="black" stroke-width="1" />
<path d="M45.0,55.0 L41.0,59.0 L39.0,61.0" fill-opacity="0" stroke="black" stroke-width="1" />
<path d="M45.0,-55.0 L41.0,-59.0 L39.0,-61.0" fill-opacity="0" stroke="black" stroke-width="1" />
<path d="M41.0,59.0 L39.0,61.0 L38.0,62.0" fill-opacity="0" stroke="black" stroke-width="1" />
<path d="M41.0,-59.0 L39.0,-61.0 L38.0,-62.0" fill-opacity="0" stroke="black" stroke-width="1" />
<path d="M39.0,61.0 L38.0,62.0 L36.0,64.0" fill-opacity="0" stroke="black" stroke-width="1" />
<path d="M39.0,-61.0 L38.0,-62.0 L36.0,-64.0" fill-opacity="0" stroke="black" stroke-width="1" />
<path d="M38.0,62.0 L36.0,64.0 L19.0,81.0" fill-opacity="0" stroke="black" stroke-width="1" />
<path d="M38.0,-62.0 L36.0,-64.0 L19.0,-81.0" fill-opacity="0" stroke="black" stroke-width="1" />
<path d="M36.0,64.0 L19.0,81.0 L4.0,96.0" fill-opacity="0" stroke="black" stroke-width="1" />
<path d="M36.0,-64.0 L19.0,-81.0 L4.0,-96.0" fill-opacity="0" stroke="black" stroke-width="1" />
<path d="M4.0,96.0 L2.0,98.0 L0.9724357403240471,98.57556488814319" fill-opacity="0" stroke="black" stroke-width="1" />
<path d="M4.0,-96.0 L2.0,-98.0 L0.9724357403240471,-98.57556488814319" fill-opacity="0" stroke="black" stroke-width="1" />
<path d="M2.0,-2.0 L1.4244351118568088,-0.9724357403240471 L0.0,-0.0" fill-opacity="0" stroke="black" stroke-width="1" />
<path d="M2.0,2.0 L1.4244351118568088,0.9724357403240471 L0.0,-0.0" fill-opacity="0" stroke="black" stroke-width="1" />
<path d="M-19.0,81.0 L-4.0,96.0 L-2.0,98.0" fill-opacity="0" stroke="black" stroke-width="1" />
<path d="M-19.0,-81.0 L-4.0,-96.0 L-2.0,-98.0" fill-opacity="0" stroke="black" stroke-width="1" />
<path d="M-50.0,-28.0 L-46.99576000927654,-35.07520750965198 L-50.0,-39.0" fill-opacity="0" stroke="black" stroke-width="1" />
<path d="M-50.0,28.0 L-46.99576000927654,35.07520750965198 L-50.0,39.0" fill-opacity="0" stroke="black" stroke-width="1" />
<path d="M-50.0,50.0 L-45.0,55.0 L-41.0,59.0" fill-opacity="0" stroke="black" stroke-width="1" />
<path d="M-50.0,-50.0 L-45.0,-55.0 L-41.0,-59.0" fill-opacity="0" stroke="black" stroke-width="1" />
<path d="M-45.0,55.0 L-41.0,59.0 L-39.0,61.0" fill-opacity="0" stroke="black" stroke-width="1" />
<path d="M-45.0,-55.0 L-41.0,-59.0 L-39.0,-61.0" fill-opacity="0" stroke="black" stroke-width="1" />
<path d="M-41.0,59.0 L-39.0,61.0 L-38.0,62.0" fill-opacity="0" stroke="black" stroke-width="1" />
<path d="M-41.0,-59.0 L-39.0,-61.0 L-38.0,-62.0" fill-opacity="0" stroke="black" stroke-width="1" />
<path d="M-39.0,61.0 L-38.0,62.0 L-36.0,64.0" fill-opacity="0" stroke="black" stroke-width="1" />
<path d="M-39.0,-61.0 L-38.0,-62.0 L-36.0,-64.0" fill-opacity="0" stroke="black" stroke-width="1" />
<path d="M-38.0,62.0 L-36.0,64.0 L-19.0,81.0" fill-opacity="0" stroke="black" stroke-width="1" />
<path d="M-38.0,-62.0 L-36.0,-64.0 L-19.0,-81.0" fill-opacity="0" stroke="black" stroke-width="1" />
<path d="M-36.0,64.0 L-19.0,81.0 L-4.0,96.0" fill-opacity="0" stroke="black" stroke-width="1" />
<path d="M-36.0,-64.0 L-19.0,-81.0 L-4.0,-96.0" fill-opacity="0" stroke="black" stroke-width="1" />
<path d="M-4.0,96.0 L-2.0,98.0 L-0.9724357403240471,98.57556488814319" fill-opacity="0" stroke="black" stroke-width="1" />
<path d="M-4.0,-96.0 L-2.0,-98.0 L-0.9724357403240471,-98.57556488814319" fill-opacity="0" stroke="black" stroke-width="1" />
<path d="M-2.0,-2.0 L-1.4244351118568088,-0.9724357403240471 L0.0,-0.0" fill-opacity="0" stroke="black" stroke-width="1" />
<path d="M-2.0,2.0 L-1.4244351118568088,0.9724357403240471 L0.0,-0.0" fill-opacity="0" stroke="black" stroke-width="1" />
<path d="M81.0,19.0 L96.0,4.0 L98.0,2.0" fill-opacity="0" stroke="black" stroke-width="1" />
<path d="M81.0,-19.0 L96.0,-4.0 L98.0,-2.0" fill-opacity="0" stroke="black" stroke-width="1" />
<path d="M50.0,28.0 L53.00423999072346,35.07520750965198 L50.0,39.0" fill-opacity="0" stroke="black" stroke-width="1" />
<path d="M50.0,-28.0 L53.00423999072346,-35.07520750965198 L50.0,-39.0" fill-opacity="0" stroke="black" stroke-width="1" />
<path d="M50.0,50.0 L55.0,45.0 L59.0,41.0" fill-opacity="0" stroke="black" stroke-width="1" />
<path d="M50.0,-50.0 L55.0,-45.0 L59.0,-41.0" fill-opacity="0" stroke="black" stroke-width="1" />
<path d="M55.0,45.0 L59.0,41.0 L61.0,39.0" fill-opacity="0" stroke="black" stroke-width="1" />
<path d="M55.0,-45.0 L59.0,-41.0 L61.0,-39.0" fill-opacity="0" stroke="black" stroke-width="1" />
<path d="M59.0,41.0 L61.0,39.0 L62.0,38.0" fill-opacity="0" stroke="black" stroke-width="1" />
<path d="M59.0,-41.0 L61.0,-39.0 L62.0,-38.0" fill-opacity="0" stroke="black" stroke-width="1" />
<path d="M61.0,39.0 L62.0,38.0 L64.0,36.0" fill-opacity="0" stroke="black" stroke-width="1" />
<path d="M61.0,-39.0 L62.0,-38.0 L64.0,-36.0" fill-opacity="0" stroke="black" stroke-width="1" />
<path d="M62.0,38.0 L64.0,36.0 L81.0,19.0" fill-opacity="0" stroke="black" stroke-width="1" />
<path d="M62.0,-38.0 L64.0,-36.0 L81.0,-19.0" fill-opacity="0" stroke="black" stroke-width="1" />
<path d="M64.0,36.0 L81.0,19.0 L96.0,4.0" fill-opacity="0" stroke="black" stroke-width="1" />
<path d="M64.0,-36.0 L81.0,-19.0 L96.0,-4.0" fill-opacity="0" stroke="black" stroke-width="1" />
<path d="M96.0,4.0 L98.0,2.0 L98.57556488814319,0.9724357403240471" fill-opacity="0" stroke="black" stroke-width="1" />
<path d="M96.0,-4.0 L98.0,-2.0 L98.57556488814319,-0.9724357403240471" fill-opacity="0" stroke="black" stroke-width="1" />
<path d="M98.0,2.0 L98.57556488814319,0.9724357403240471 L100.0,-0.0" fill-opacity="0" stroke="black" stroke-width="1" />
<path d="M98.0,-2.0 L98.57556488814319,-0.9724357403240471 L100.0,-0.0" fill-opacity="0" stroke="black" stroke-width="1" />
<path d="M28.0,-50.0 L35.07520750965198,-46.99576000927654 L39.0,-50.0" fill-opacity="0" stroke="black" stroke-width="1" />
<path d="M28.0,50.0 L35.07520750965198,46.99576000927654 L39.0,50.0" fill-opacity="0" stroke="black" stroke-width="1" />
<path d="M28.0,50.0 L35.07520750965198,53.00423999072346 L39.0,50.0" fill-opacity="0" stroke="black" stroke-width="1" />
<path d="M28.0,-50.0 L35.07520750965198,-53.00423999072346 L39.0,-50.0" fill-opacity="0" stroke="black" stroke-width="1" />
<path d="M2.0,-2.0 L0.9724357403240471,-1.4244351118568088 L0.0,-0.0" fill-opacity="0" stroke="black" stroke-width="1" />
<path d="M2.0,2.0 L0.9724357403240471,1.4244351118568088 L0.0,-0.0" fill-opacity="0" stroke="black" stroke-width="1" />
<path d="M2.0,98.0 L0.9724357403240471,98.57556488814319 L0.0,100.0" fill-opacity="0" stroke="black" stroke-width="1" />
<path d="M2.0,-98.0 L0.9724357403240471,-98.57556488814319 L0.0,-100.0" fill-opacity="0" stroke="black" stroke-width="1" />
<path d="M-28.0,50.0 L-35.07520750965198,53.00423999072346 L-39.0,50.0" fill-opacity="0" stroke="black" stroke-width="1" />
<path d="M-28.0,-50.0 L-35.07520750965198,-46.99576000927654 L-39.0,-50.0" fill-opacity="0" stroke="black" stroke-width="1" />
<path d="M-28.0,50.0 L-35.07520750965198,46.99576000927654 L-39.0,50.0" fill-opacity="0" stroke="black" stroke-width="1" />
<path d="M-28.0,-50.0 L-35.07520750965198,-53.00423999072346 L-39.0,-50.0" fill-opacity="0" stroke="black" stroke-width="1" />
<path d="M-2.0,98.0 L-0.9724357403240471,98.57556488814319 L0.0,100.0" fill-opacity="0" stroke="black" stroke-width="1" />
<path d="M-2.0,-2.0 L-0.9724357403240471,-1.4244351118568088 L0.0,-0.0" fill-opacity="0" stroke="black" stroke-width="1" />
<path d="M-2.0,2.0 L-0.9724357403240471,1.424435111856809 L0.0,-0.0" fill-opacity="0" stroke="black" stroke-width="1" />
<path d="M-2.0,-98.0 L-0.9724357403240471,-98.57556488814319 L0.0,-100.0" fill-opacity="0" stroke="black" stroke-width="1" />
<path d="M-81.0,-19.0 L-96.0,-4.0 L-98.0,-2.0" fill-opacity="0" stroke="black" stroke-width="1" />
<path d="M-81.0,19.0 L-96.0,4.0 L-98.0,2.0" fill-opacity="0" stroke="black" stroke-width="1" />
<path d="M-50.0,-28.0 L-53.00423999072346,-35.07520750965198 L-50.0,-39.0" fill-opacity="0" stroke="black" stroke-width="1" />
<path d="M-50.0,28.0 L-53.00423999072346,35.07520750965198 L-50.0,39.0" fill-opacity="0" stroke="black" stroke-width="1" />
<path d="M-50.0,-50.0 L-55.0,-45.0 L-59.0,-41.0" fill-opacity="0" stroke="black" stroke-width="1" />
<path d="M-50.0,50.0 L-55.0,45.0 L-59.0,41.0" fill-opacity="0" stroke="black" stroke-width="1" />
<path d="M-55.0,-45.0 L-59.0,-41.0 L-61.0,-39.0" fill-opacity="0" stroke="black" stroke-width="1" />
<path d="M-55.0,45.0 L-59.0,41.0 L-61.0,39.0" fill-opacity="0" stroke="black" stroke-width="1" />
<path d="M-59.0,-41.0 L-61.0,-39.0 L-62.0,-38.0" fill-opacity="0" stroke="black" stroke-width="1" />
<path d="M-59.0,41.0 L-61.0,39.0 L-62.0,38.0" fill-opacity="0" stroke="black" stroke-width="1" />
<path d="M-61.0,-39.0 L-62.0,-38.0 L-64.0,-36.0" fill-opacity="0" stroke="black" stroke-width="1" />
<path d="M-61.0,39.0 L-62.0,38.0 L-64.0,36.0" fill-opacity="0" stroke="black" stroke-width="1" />
<path d="M-62.0,-38.0 L-64.0,-36.0 L-81.0,-19.0" fill-opacity="0" stroke="black" stroke-width="1" />
<path d="M-62.0,38.0 L-64.0,36.0 L-81.0,19.0" fill-opacity="0" stroke="black" stroke-width="1" />
<path d="M-64.0,-36.0 L-81.0,-19.0 L-96.0,-4.0" fill-opacity="0" stroke="black" stroke-width="1" />
<path d="M-64.0,36.0 L-81.0,19.0 L-96.0,4.0" fill-opacity="0" stroke="black" stroke-width="1" />
<path d="M-96.0,-4.0 L-98.0,-2.0 L-98.57556488814319,-0.9724357403240471" fill-opacity="0" stroke="black" stroke-width="1" />
<path d="M-96.0,4.0 L-98.0,2.0 L-98.57556488814319,0.9724357403240471" fill-opacity="0" stroke="black" stroke-width="1" />
<path d="M-98.0,-2.0 L-98.57556488814319,-0.9724357403240471 L-100.0,-0.0" fill-opacity="0" stroke="black" stroke-width="1" />
<path d="M-98.0,2.0 L-98.57556488814319,0.9724357403240471 L-100.0,-0.0" fill-opacity="0" stroke="black" stroke-width="1" />
</svg>