<?xml version="1.0" encoding="UTF-8"?>
<svg xmlns="http://www.w3.org/2000/svg" xmlns:xlink="http://www.w3.org/1999/xlink"
     width="250" height="250" viewBox="-125.0 -125.0 250 250">
<defs>
</defs>
<path d="M10.0,-0.0 L15.51637051398545,-0.47185377486561597 L18.0,-0.0" fill="purple" fill-opacity="0.6" stroke="black" stroke-width="1" />
<path d="M10.0,-0.0 L15.51637051398545,0.47185377486561597 L18.0,-0.0" fill="pink" fill-opacity="0.6" stroke="black" stroke-width="1" />
<path d="M18.0,-0.0 L18.269153556235207,-0.8875808879410169 L20.0,-0.0" fill="red" fill-opacity="0.6" stroke="black" stroke-width="1" />
<path d="M18.0,-0.0 L18.269153556235207,0.8875808879410169 L20.0,-0.0" fill="black" fill-opacity="0.6" stroke="black" stroke-width="1" />
<path d="M28.52795104349945,65.6923460854217 L20.0,80.0 L19.0,81.0" fill="yellow" fill-opacity="0.6" stroke="black" stroke-width="1" />
<path d="M28.52795104349945,-65.6923460854217 L20.0,-80.0 L19.0,-81.0" fill="black" fill-opacity="0.6" stroke="black" stroke-width="1" />
<path d="M20.0,-0.0 L20.770433954775335,-1.0955065744459453 L22.461960701509767,-1.6320519772278774" fill="black" fill-opacity="0.6" stroke="black" stroke-width="1" />
<path d="M20.0,-0.0 L20.770433954775335,1.0955065744459453 L22.461960701509767,1.6320519772278774" fill="purple" fill-opacity="0.6" stroke="black" stroke-width="1" />
<path d="M20.770433954775335,-1.0955065744459453 L22.461960701509767,-1.6320519772278774 L23.368544013102927,-4.951727295552197" fill="red" fill-opacity="0.6" stroke="black" stroke-width="1" />
<path d="M20.770433954775335,1.0955065744459453 L22.461960701509767,1.6320519772278774 L23.368544013102927,4.951727295552197" fill="brown" fill-opacity="0.6" stroke="black" stroke-width="1" />
<path d="M22.461960701509767,-1.6320519772278774 L23.368544013102927,-4.951727295552197 L23.59063447492285,-8.326424852168824" fill="red" fill-opacity="0.6" stroke="black" stroke-width="1" />
<path d="M22.461960701509767,1.6320519772278774 L23.368544013102927,4.951727295552197 L23.59063447492285,8.326424852168824" fill="green" fill-opacity="0.6" stroke="black" stroke-width="1" />
<path d="M23.368544013102927,-4.951727295552197 L23.59063447492285,-8.326424852168824 L25.116577615970286,-14.358923664202422" fill="purple" fill-opacity="0.6" stroke="black" stroke-width="1" />
<path d="M23.368544013102927,4.951727295552197 L23.59063447492285,8.326424852168824 L25.116577615970286,14.358923664202422" fill="blue" fill-opacity="0.6" stroke="black" stroke-width="1" />
<path d="M23.59063447492285,-8.326424852168824 L25.116577615970286,-14.358923664202422 L27.0,-0.0" fill="blue" fill-opacity="0.6" stroke="black" stroke-width="1" />
<path d="M23.59063447492285,8.326424852168824 L25.116577615970286,14.358923664202422 L27.0,-0.0" fill="red" fill-opacity="0.6" stroke="black" stroke-width="1" />
<path d="M27.0,-0.0 L32.39333116576376,-16.776816240770692 L34.0,-0.0" fill="pink" fill-opacity="0.6" stroke="black" stroke-width="1" />
<path d="M27.0,-0.0 L32.39333116576376,16.776816240770692 L34.0,-0.0" fill="black" fill-opacity="0.6" stroke="black" stroke-width="1" />
<path d="M50.0,-21.0 L32.86151598429609,-22.033660887765027 L33.40218275530627,-24.102289622492552" fill="red" fill-opacity="0.6" stroke="black" stroke-width="1" />
<path d="M50.0,21.0 L32.86151598429609,22.033660887765027 L33.40218275530627,24.102289622492552" fill="pink" fill-opacity="0.6" stroke="black" stroke-width="1" />
<path d="M32.86151598429609,-22.033660887765027 L33.40218275530627,-24.102289622492552 L47.40993616621133,-30.565594767889483" fill="brown" fill-opacity="0.6" stroke="black" stroke-width="1" />
<path d="M32.86151598429609,22.033660887765027 L33.40218275530627,24.102289622492552 L47.40993616621133,30.565594767889483" fill="brown" fill-opacity="0.6" stroke="black" stroke-width="1" />
<path d="M33.40218275530627,-24.102289622492552 L47.40993616621133,-30.565594767889483 L50.0,-33.0" fill="red" fill-opacity="0.6" stroke="black" stroke-width="1" />
<path d="M33.40218275530627,24.102289622492552 L47.40993616621133,30.565594767889483 L50.0,33.0" fill="pink" fill-opacity="0.6" stroke="black" stroke-width="1" />
<path d="M45.0,50.0 L47.0,53.0 L40.0,60.0" fill="red" fill-opacity="0.6" stroke="black" stroke-width="1" />
<path d="M45.0,-50.0 L47.0,-53.0 L40.0,-60.0" fill="purple" fill-opacity="0.6" stroke="black" stroke-width="1" />
<path d="M47.0,53.0 L40.0,60.0 L37.0,63.0" fill="pink" fill-opacity="0.6" stroke="black" stroke-width="1" />
<path d="M47.0,-53.0 L40.0,-60.0 L37.0,-63.0" fill="blue" fill-opacity="0.6" stroke="black" stroke-width="1" />
<path d="M40.0,60.0 L37.0,63.0 L29.816230355694767,65.49740415760894" fill="black" fill-opacity="0.6" stroke="black" stroke-width="1" />
<path d="M40.0,-60.0 L37.0,-63.0 L29.816230355694767,-65.49740415760894" fill="blue" fill-opacity="0.6" stroke="black" stroke-width="1" />
<path d="M37.0,-37.0 L34.50259584239107,-29.816230355694767 L34.307653914578296,-28.52795104349945" fill="green" fill-opacity="0.6" stroke="black" stroke-width="1" />
<path d="M37.0,37.0 L34.50259584239107,29.816230355694767 L34.307653914578296,28.52795104349945" fill="red" fill-opacity="0.6" stroke="black" stroke-width="1" />
<path d="M34.50259584239107,-29.816230355694767 L34.307653914578296,-28.52795104349945 L20.0,-20.0" fill="purple" fill-opacity="0.6" stroke="black" stroke-width="1" />
<path d="M34.50259584239107,29.816230355694767 L34.307653914578296,28.52795104349945 L20.0,20.0" fill="green" fill-opacity="0.6" stroke="black" stroke-width="1" />
<path d="M20.0,80.0 L19.0,81.0 L9.0,91.0" fill="yellow" fill-opacity="0.6" stroke="black" stroke-width="1" />
<path d="M20.0,-80.0 L19.0,-81.0 L9.0,-91.0" fill="blue" fill-opacity="0.6" stroke="black" stroke-width="1" />
<path d="M9.0,-9.0 L6.251279525003156,-0.37908613660900536 L2.1616059274433166,-0.07114216086751564" fill="purple" fill-opacity="0.6" stroke="black" stroke-width="1" />
<path d="M9.0,9.0 L6.251279525003156,0.37908613660900536 L2.1616059274433166,0.07114216086751564" fill="brown" fill-opacity="0.6" stroke="black" stroke-width="1" />
<path d="M6.251279525003156,-0.37908613660900536 L2.1616059274433166,-0.07114216086751564 L0.10590141740497439,-0.024827677469176773" fill="red" fill-opacity="0.6" stroke="black" stroke-width="1" />
<path d="M6.251279525003156,0.37908613660900536 L2.1616059274433166,0.07114216086751564 L0.10590141740497439,0.024827677469176773" fill="purple" fill-opacity="0.6" stroke="black" stroke-width="1" />
<path d="M2.1616059274433166,-0.07114216086751564 L0.10590141740497439,-0.024827677469176773 L0.0,-0.0" fill="red" fill-opacity="0.6" stroke="black" stroke-width="1" />
<path d="M2.1616059274433166,0.07114216086751564 L0.10590141740497439,0.024827677469176773 L0.0,-0.0" fill="black" fill-opacity="0.6" stroke="black" stroke-width="1" />
<path d="M-10.0,-0.0 L-15.51637051398545,-0.47185377486561597 L-18.0,-0.0" fill="orange" fill-opacity="0.6" stroke="black" stroke-width="1" />
<path d="M-10.0,-0.0 L-15.51637051398545,0.47185377486561597 L-18.0,-0.0" fill="yellow" fill-opacity="0.6" stroke="black" stroke-width="1" />
<path d="M-18.0,-0.0 L-18.269153556235207,-0.8875808879410169 L-20.0,-0.0" fill="green" fill-opacity="0.6" stroke="black" stroke-width="1" />
<path d="M-18.0,-0.0 L-18.269153556235207,0.8875808879410169 L-20.0,-0.0" fill="black" fill-opacity="0.6" stroke="black" stroke-width="1" />
<path d="M-28.52795104349945,65.6923460854217 L-20.0,80.0 L-19.0,81.0" fill="pink" fill-opacity="0.6" stroke="black" stroke-width="1" />
<path d="M-28.52795104349945,-65.6923460854217 L-20.0,-80.0 L-19.0,-81.0" fill="orange" fill-opacity="0.6" stroke="black" stroke-width="1" />
<path d="M-20.0,-0.0 L-20.770433954775335,-1.0955065744459453 L-22.461960701509767,-1.6320519772278774" fill="red" fill-opacity="0.6" stroke="black" stroke-width="1" />
<path d="M-20.0,-0.0 L-20.770433954775335,1.0955065744459453 L-22.461960701509767,1.6320519772278774" fill="yellow" fill-opacity="0.6" stroke="black" stroke-width="1" />
<path d="M-20.770433954775335,-1.0955065744459453 L-22.461960701509767,-1.6320519772278774 L-23.368544013102927,-4.951727295552197" fill="red" fill-opacity="0.6" stroke="black" stroke-width="1" />
<path d="M-20.770433954775335,1.0955065744459453 L-22.461960701509767,1.6320519772278774 L-23.368544013102927,4.951727295552197" fill="purple" fill-opacity="0.6" stroke="black" stroke-width="1" />
<path d="M-22.461960701509767,-1.6320519772278774 L-23.368544013102927,-4.951727295552197 L-23.59063447492285,-8.326424852168824" fill="red" fill-opacity="0.6" stroke="black" stroke-width="1" />
<path d="M-22.461960701509767,1.6320519772278774 L-23.368544013102927,4.951727295552197 L-23.59063447492285,8.326424852168824" fill="orange" fill-opacity="0.6" stroke="black" stroke-width="1" />
<path d="M-23.368544013102927,-4.951727295552197 L-23.59063447492285,-8.326424852168824 L-25.116577615970286,-14.358923664202422" fill="pink" fill-opacity="0.6" stroke="black" stroke-width="1" />
<path d="M-23.368544013102927,4.951727295552197 L-23.59063447492285,8.326424852168824 L-25.116577615970286,14.358923664202422" fill="brown" fill-opacity="0.6" stroke="black" stroke-width="1" />
<path d="M-23.59063447492285,-8.326424852168824 L-25.116577615970286,-14.358923664202422 L-27.0,-0.0" fill="orange" fill-opacity="0.6" stroke="black" stroke-width="1" />
<path d="M-23.59063447492285,8.326424852168824 L-25.116577615970286,14.358923664202422 L-27.0,-0.0" fill="yellow" fill-opacity="0.6" stroke="black" stroke-width="1" />
<path d="M-27.0,-0.0 L-32.39333116576376,-16.776816240770692 L-34.0,-0.0" fill="orange" fill-opacity="0.6" stroke="black" stroke-width="1" />
<path d="M-27.0,-0.0 L-32.39333116576376,16.776816240770692 L-34.0,-0.0" fill="green" fill-opacity="0.6" stroke="black" stroke-width="1" />
<path d="M-50.0,-21.0 L-32.86151598429609,-22.033660887765027 L-33.40218275530627,-24.102289622492552" fill="orange" fill-opacity="0.6" stroke="black" stroke-width="1" />
<path d="M-50.0,21.0 L-32.86151598429609,22.033660887765027 L-33.40218275530627,24.102289622492552" fill="black" fill-opacity="0.6" stroke="black" stroke-width="1" />
<path d="M-32.86151598429609,-22.033660887765027 L-33.40218275530627,-24.102289622492552 L-47.40993616621133,-30.565594767889483" fill="orange" fill-opacity="0.6" stroke="black" stroke-width="1" />
<path d="M-32.86151598429609,22.033660887765027 L-33.40218275530627,24.102289622492552 L-47.40993616621133,30.565594767889483" fill="black" fill-opacity="0.6" stroke="black" stroke-width="1" />
<path d="M-33.40218275530627,-24.102289622492552 L-47.40993616621133,-30.565594767889483 L-50.0,-33.0" fill="blue" fill-opacity="0.6" stroke="black" stroke-width="1" />
<path d="M-33.40218275530627,24.102289622492552 L-47.40993616621133,30.565594767889483 L-50.0,33.0" fill="red" fill-opacity="0.6" stroke="black" stroke-width="1" />
<path d="M-45.0,50.0 L-47.0,53.0 L-40.0,60.0" fill="black" fill-opacity="0.6" stroke="black" stroke-width="1" />
<path d="M-45.0,-50.0 L-47.0,-53.0 L-40.0,-60.0" fill="red" fill-opacity="0.6" stroke="black" stroke-width="1" />
<path d="M-47.0,53.0 L-40.0,60.0 L-37.0,63.0" fill="blue" fill-opacity="0.6" stroke="black" stroke-width="1" />
<path d="M-47.0,-53.0 L-40.0,-60.0 L-37.0,-63.0" fill="orange" fill-opacity="0.6" stroke="black" stroke-width="1" />
<path d="M-40.0,60.0 L-37.0,63.0 L-29.816230355694767,65.49740415760894" fill="green" fill-opacity="0.6" stroke="black" stroke-width="1" />
<path d="M-40.0,-60.0 L-37.0,-63.0 L-29.816230355694767,-65.49740415760894" fill="black" fill-opacity="0.6" stroke="black" stroke-width="1" />
<path d="M-37.0,-37.0 L-34.50259584239107,-29.816230355694767 L-34.307653914578296,-28.52795104349945" fill="green" fill-opacity="0.6" stroke="black" stroke-width="1" />
<path d="M-37.0,37.0 L-34.50259584239107,29.816230355694767 L-34.307653914578296,28.52795104349945" fill="purple" fill-opacity="0.6" stroke="black" stroke-width="1" />
<path d="M-34.50259584239107,-29.816230355694767 L-34.307653914578296,-28.52795104349945 L-20.0,-20.0" fill="purple" fill-opacity="0.6" stroke="black" stroke-width="1" />
<path d="M-34.50259584239107,29.816230355694767 L-34.307653914578296,28.52795104349945 L-20.0,20.0" fill="yellow" fill-opacity="0.6" stroke="black" stroke-width="1" />
<path d="M-20.0,80.0 L-19.0,81.0 L-9.0,91.0" fill="black" fill-opacity="0.6" stroke="black" stroke-width="1" />
<path d="M-20.0,-80.0 L-19.0,-81.0 L-9.0,-91.0" fill="black" fill-opacity="0.6" stroke="black" stroke-width="1" />
<path d="M-9.0,-9.0 L-6.251279525003156,-0.37908613660900536 L-2.1616059274433166,-0.07114216086751564" fill="green" fill-opacity="0.6" stroke="black" stroke-width="1" />
<path d="M-9.0,9.0 L-6.251279525003156,0.37908613660900536 L-2.1616059274433166,0.07114216086751564" fill="orange" fill-opacity="0.6" stroke="black" stroke-width="1" />
<path d="M-6.251279525003156,-0.37908613660900536 L-2.1616059274433166,-0.07114216086751564 L-0.10590141740497439,-0.024827677469176773" fill="red" fill-opacity="0.6" stroke="black" stroke-width="1" />
<path d="M-6.251279525003156,0.37908613660900536 L-2.1616059274433166,0.07114216086751564 L-0.10590141740497439,0.024827677469176773" fill="brown" fill-opacity="0.6" stroke="black" stroke-width="1" />
<path d="M-2.1616059274433166,-0.07114216086751564 L-0.10590141740497439,-0.024827677469176773 L0.0,-0.0" fill="purple" fill-opacity="0.6" stroke="black" stroke-width="1" />
<path d="M-2.1616059274433166,0.07114216086751564 L-0.10590141740497439,0.024827677469176773 L0.0,-0.0" fill="black" fill-opacity="0.6" stroke="black" stroke-width="1" />
<path d="M90.0,-0.0 L84.48362948601455,0.47185377486561597 L82.0,-0.0" fill="green" fill-opacity="0.6" stroke="black" stroke-width="1" />
<path d="M90.0,-0.0 L84.48362948601455,-0.47185377486561597 L82.0,-0.0" fill="green" fill-opacity="0.6" stroke="black" stroke-width="1" />
<path d="M82.0,-0.0 L81.73084644376479,0.8875808879410169 L80.0,-0.0" fill="purple" fill-opacity="0.6" stroke="black" stroke-width="1" />
<path d="M82.0,-0.0 L81.73084644376479,-0.8875808879410169 L80.0,-0.0" fill="pink" fill-opacity="0.6" stroke="black" stroke-width="1" />
<path d="M65.6923460854217,28.52795104349945 L80.0,20.0 L81.0,19.0" fill="red" fill-opacity="0.6" stroke="black" stroke-width="1" />
<path d="M65.6923460854217,-28.52795104349945 L80.0,-20.0 L81.0,-19.0" fill="blue" fill-opacity="0.6" stroke="black" stroke-width="1" />
<path d="M80.0,-0.0 L79.22956604522466,1.0955065744459453 L77.53803929849023,1.6320519772278774" fill="green" fill-opacity="0.6" stroke="black" stroke-width="1" />
<path d="M80.0,-0.0 L79.22956604522466,-1.0955065744459453 L77.53803929849023,-1.6320519772278774" fill="pink" fill-opacity="0.6" stroke="black" stroke-width="1" />
<path d="M79.22956604522466,1.0955065744459453 L77.53803929849023,1.6320519772278774 L76.63145598689707,4.951727295552197" fill="brown" fill-opacity="0.6" stroke="black" stroke-width="1" />
<path d="M79.22956604522466,-1.0955065744459453 L77.53803929849023,-1.6320519772278774 L76.63145598689707,-4.951727295552197" fill="black" fill-opacity="0.6" stroke="black" stroke-width="1" />
<path d="M77.53803929849023,1.6320519772278774 L76.63145598689707,4.951727295552197 L76.40936552507715,8.326424852168824" fill="blue" fill-opacity="0.6" stroke="black" stroke-width="1" />
<path d="M77.53803929849023,-1.6320519772278774 L76.63145598689707,-4.951727295552197 L76.40936552507715,-8.326424852168824" fill="red" fill-opacity="0.6" stroke="black" stroke-width="1" />
<path d="M76.63145598689707,4.951727295552197 L76.40936552507715,8.326424852168824 L74.88342238402971,14.358923664202422" fill="black" fill-opacity="0.6" stroke="black" stroke-width="1" />
<path d="M76.63145598689707,-4.951727295552197 L76.40936552507715,-8.326424852168824 L74.88342238402971,-14.358923664202422" fill="pink" fill-opacity="0.6" stroke="black" stroke-width="1" />
<path d="M76.40936552507715,8.326424852168824 L74.88342238402971,14.358923664202422 L73.0,-0.0" fill="yellow" fill-opacity="0.6" stroke="black" stroke-width="1" />
<path d="M76.40936552507715,-8.326424852168824 L74.88342238402971,-14.358923664202422 L73.0,-0.0" fill="black" fill-opacity="0.6" stroke="black" stroke-width="1" />
<path d="M73.0,-0.0 L67.60666883423625,16.776816240770692 L66.0,-0.0" fill="red" fill-opacity="0.6" stroke="black" stroke-width="1" />
<path d="M73.0,-0.0 L67.60666883423625,-16.776816240770692 L66.0,-0.0" fill="yellow" fill-opacity="0.6" stroke="black" stroke-width="1" />
<path d="M50.0,21.0 L67.13848401570391,22.033660887765027 L66.59781724469373,24.102289622492552" fill="orange" fill-opacity="0.6" stroke="black" stroke-width="1" />
<path d="M50.0,-21.0 L67.13848401570391,-22.033660887765027 L66.59781724469373,-24.102289622492552" fill="blue" fill-opacity="0.6" stroke="black" stroke-width="1" />
<path d="M67.13848401570391,22.033660887765027 L66.59781724469373,24.102289622492552 L52.59006383378867,30.565594767889483" fill="green" fill-opacity="0.6" stroke="black" stroke-width="1" />
<path d="M67.13848401570391,-22.033660887765027 L66.59781724469373,-24.102289622492552 L52.59006383378867,-30.565594767889483" fill="black" fill-opacity="0.6" stroke="black" stroke-width="1" />
<path d="M66.59781724469373,24.102289622492552 L52.59006383378867,30.565594767889483 L50.0,33.0" fill="green" fill-opacity="0.6" stroke="black" stroke-width="1" />
<path d="M66.59781724469373,-24.102289622492552 L52.59006383378867,-30.565594767889483 L50.0,-33.0" fill="pink" fill-opacity="0.6" stroke="black" stroke-width="1" />
<path d="M50.0,45.0 L53.0,47.0 L60.0,40.0" fill="blue" fill-opacity="0.6" stroke="black" stroke-width="1" />
<path d="M50.0,-45.0 L53.0,-47.0 L60.0,-40.0" fill="yellow" fill-opacity="0.6" stroke="black" stroke-width="1" />
<path d="M53.0,47.0 L60.0,40.0 L63.0,37.0" fill="orange" fill-opacity="0.6" stroke="black" stroke-width="1" />
<path d="M53.0,-47.0 L60.0,-40.0 L63.0,-37.0" fill="pink" fill-opacity="0.6" stroke="black" stroke-width="1" />
<path d="M60.0,40.0 L63.0,37.0 L65.49740415760894,29.816230355694767" fill="brown" fill-opacity="0.6" stroke="black" stroke-width="1" />
<path d="M60.0,-40.0 L63.0,-37.0 L65.49740415760894,-29.816230355694767" fill="purple" fill-opacity="0.6" stroke="black" stroke-width="1" />
<path d="M63.0,37.0 L65.49740415760894,29.816230355694767 L65.6923460854217,28.52795104349945" fill="blue" fill-opacity="0.6" stroke="black" stroke-width="1" />
<path d="M63.0,-37.0 L65.49740415760894,-29.816230355694767 L65.6923460854217,-28.52795104349945" fill="brown" fill-opacity="0.6" stroke="black" stroke-width="1" />
<path d="M65.49740415760894,29.816230355694767 L65.6923460854217,28.52795104349945 L80.0,20.0" fill="yellow" fill-opacity="0.6" stroke="black" stroke-width="1" />
<path d="M65.49740415760894,-29.816230355694767 L65.6923460854217,-28.52795104349945 L80.0,-20.0" fill="blue" fill-opacity="0.6" stroke="black" stroke-width="1" />
<path d="M80.0,20.0 L81.0,19.0 L91.0,9.0" fill="red" fill-opacity="0.6" stroke="black" stroke-width="1" />
<path d="M80.0,-20.0 L81.0,-19.0 L91.0,-9.0" fill="green" fill-opacity="0.6" stroke="black" stroke-width="1" />
<path d="M91.0,9.0 L93.74872047499684,0.37908613660900536 L97.83839407255668,0.07114216086751564" fill="yellow" fill-opacity="0.6" stroke="black" stroke-width="1" />
<path d="M91.0,-9.0 L93.74872047499684,-0.37908613660900536 L97.83839407255668,-0.07114216086751564" fill="orange" fill-opacity="0.6" stroke="black" stroke-width="1" />
<path d="M93.74872047499684,0.37908613660900536 L97.83839407255668,0.07114216086751564 L99.89409858259503,0.024827677469176773" fill="purple" fill-opacity="0.6" stroke="black" stroke-width="1" />
<path d="M93.74872047499684,-0.37908613660900536 L97.83839407255668,-0.07114216086751564 L99.89409858259503,-0.024827677469176773" fill="pink" fill-opacity="0.6" stroke="black" stroke-width="1" />
<path d="M97.83839407255668,0.07114216086751564 L99.89409858259503,0.024827677469176773 L100.0,-0.0" fill="black" fill-opacity="0.6" stroke="black" stroke-width="1" />
<path d="M97.83839407255668,-0.07114216086751564 L99.89409858259503,-0.024827677469176773 L100.0,-0.0" fill="orange" fill-opacity="0.6" stroke="black" stroke-width="1" />
<path d="M0.0,-10.0 L0.47185377486561597,-15.51637051398545 L0.0,-18.0" fill="red" fill-opacity="0.6" stroke="black" stroke-width="1" />
<path d="M0.0,10.0 L0.47185377486561597,15.51637051398545 L0.0,18.0" fill="red" fill-opacity="0.6" stroke="black" stroke-width="1" />
<path d="M0.0,90.0 L0.47185377486561597,84.48362948601455 L0.0,82.0" fill="orange" fill-opacity="0.6" stroke="black" stroke-width="1" />
<path d="M0.0,-90.0 L0.47185377486561597,-84.48362948601455 L0.0,-82.0" fill="yellow" fill-opacity="0.6" stroke="black" stroke-width="1" />
<path d="M0.0,-18.0 L0.8875808879410169,-18.269153556235207 L0.0,-20.0" fill="blue" fill-opacity="0.6" stroke="black" stroke-width="1" />
<path d="M0.0,18.0 L0.8875808879410169,18.269153556235207 L0.0,20.0" fill="pink" fill-opacity="0.6" stroke="black" stroke-width="1" />
<path d="M0.0,82.0 L0.8875808879410169,81.73084644376479 L0.0,80.0" fill="green" fill-opacity="0.6" stroke="black" stroke-width="1" />
<path d="M0.0,-82.0 L0.8875808879410169,-81.73084644376479 L0.0,-80.0" fill="brown" fill-opacity="0.6" stroke="black" stroke-width="1" />
<path d="M0.0,-20.0 L1.0955065744459453,-20.770433954775335 L1.6320519772278774,-22.461960701509767" fill="brown" fill-opacity="0.6" stroke="black" stroke-width="1" />
<path d="M0.0,20.0 L1.0955065744459453,20.770433954775335 L1.6320519772278774,22.461960701509767" fill="brown" fill-opacity="0.6" stroke="black" stroke-width="1" />
<path d="M0.0,80.0 L1.0955065744459453,79.22956604522466 L1.6320519772278774,77.53803929849023" fill="black" fill-opacity="0.6" stroke="black" stroke-width="1" />
<path d="M0.0,-80.0 L1.0955065744459453,-79.22956604522466 L1.6320519772278774,-77.53803929849023" fill="yellow" fill-opacity="0.6" stroke="black" stroke-width="1" />
<path d="M1.0955065744459453,-20.770433954775335 L1.6320519772278774,-22.461960701509767 L4.951727295552197,-23.368544013102927" fill="purple" fill-opacity="0.6" stroke="black" stroke-width="1" />
<path d="M1.0955065744459453,20.770433954775335 L1.6320519772278774,22.461960701509767 L4.951727295552197,23.368544013102927" fill="orange" fill-opacity="0.6" stroke="black" stroke-width="1" />
<path d="M1.0955065744459453,79.22956604522466 L1.6320519772278774,77.53803929849023 L4.951727295552197,76.63145598689707" fill="yellow" fill-opacity="0.6" stroke="black" stroke-width="1" />
<path d="M1.0955065744459453,-79.22956604522466 L1.6320519772278774,-77.53803929849023 L4.951727295552197,-76.63145598689707" fill="pink" fill-opacity="0.6" stroke="black" stroke-width="1" />
<path d="M1.6320519772278774,-22.461960701509767 L4.951727295552197,-23.368544013102927 L8.326424852168824,-23.59063447492285" fill="blue" fill-opacity="0.6" stroke="black" stroke-width="1" />
<path d="M1.6320519772278774,22.461960701509767 L4.951727295552197,23.368544013102927 L8.326424852168824,23.59063447492285" fill="red" fill-opacity="0.6" stroke="black" stroke-width="1" />
<path d="M1.6320519772278774,77.53803929849023 L4.951727295552197,76.63145598689707 L8.326424852168824,76.40936552507715" fill="black" fill-opacity="0.6" stroke="black" stroke-width="1" />
<path d="M1.6320519772278774,-77.53803929849023 L4.951727295552197,-76.63145598689707 L8.326424852168824,-76.40936552507715" fill="blue" fill-opacity="0.6" stroke="black" stroke-width="1" />
<path d="M4.951727295552197,-23.368544013102927 L8.326424852168824,-23.59063447492285 L14.358923664202422,-25.116577615970286" fill="orange" fill-opacity="0.6" stroke="black" stroke-width="1" />
<path d="M4.951727295552197,23.368544013102927 L8.326424852168824,23.59063447492285 L14.358923664202422,25.116577615970286" fill="brown" fill-opacity="0.6" stroke="black" stroke-width="1" />
<path d="M4.951727295552197,76.63145598689707 L8.326424852168824,76.40936552507715 L14.358923664202422,74.88342238402971" fill="green" fill-opacity="0.6" stroke="black" stroke-width="1" />
<path d="M4.951727295552197,-76.63145598689707 L8.326424852168824,-76.40936552507715 L14.358923664202422,-74.88342238402971" fill="blue" fill-opacity="0.6" stroke="black" stroke-width="1" />
<path d="M8.326424852168824,-23.59063447492285 L14.358923664202422,-25.116577615970286 L0.0,-27.0" fill="green" fill-opacity="0.6" stroke="black" stroke-width="1" />
<path d="M8.326424852168824,23.59063447492285 L14.358923664202422,25.116577615970286 L0.0,27.0" fill="brown" fill-opacity="0.6" stroke="black" stroke-width="1" />
<path d="M8.326424852168824,76.40936552507715 L14.358923664202422,74.88342238402971 L0.0,73.0" fill="green" fill-opacity="0.6" stroke="black" stroke-width="1" />
<path d="M8.326424852168824,-76.40936552507715 L14.358923664202422,-74.88342238402971 L0.0,-73.0" fill="black" fill-opacity="0.6" stroke="black" stroke-width="1" />
<path d="M0.0,-27.0 L16.776816240770692,-32.39333116576376 L0.0,-34.0" fill="yellow" fill-opacity="0.6" stroke="black" stroke-width="1" />
<path d="M0.0,27.0 L16.776816240770692,32.39333116576376 L0.0,34.0" fill="yellow" fill-opacity="0.6" stroke="black" stroke-width="1" />
<path d="M0.0,73.0 L16.776816240770692,67.60666883423625 L0.0,66.0" fill="black" fill-opacity="0.6" stroke="black" stroke-width="1" />
<path d="M0.0,-73.0 L16.776816240770692,-67.60666883423625 L0.0,-66.0" fill="pink" fill-opacity="0.6" stroke="black" stroke-width="1" />
<path d="M21.0,-50.0 L22.033660887765027,-32.86151598429609 L24.102289622492552,-33.40218275530627" fill="orange" fill-opacity="0.6" stroke="black" stroke-width="1" />
<path d="M21.0,50.0 L22.033660887765027,32.86151598429609 L24.102289622492552,33.40218275530627" fill="red" fill-opacity="0.6" stroke="black" stroke-width="1" />
<path d="M21.0,50.0 L22.033660887765027,67.13848401570391 L24.102289622492552,66.59781724469373" fill="red" fill-opacity="0.6" stroke="black" stroke-width="1" />
<path d="M21.0,-50.0 L22.033660887765027,-67.13848401570391 L24.102289622492552,-66.59781724469373" fill="orange" fill-opacity="0.6" stroke="black" stroke-width="1" />
<path d="M22.033660887765027,-32.86151598429609 L24.102289622492552,-33.40218275530627 L30.565594767889483,-47.40993616621133" fill="green" fill-opacity="0.6" stroke="black" stroke-width="1" />
<path d="M22.033660887765027,32.86151598429609 L24.102289622492552,33.40218275530627 L30.565594767889483,47.40993616621133" fill="yellow" fill-opacity="0.6" stroke="black" stroke-width="1" />
<path d="M22.033660887765027,67.13848401570391 L24.102289622492552,66.59781724469373 L30.565594767889483,52.59006383378867" fill="blue" fill-opacity="0.6" stroke="black" stroke-width="1" />
<path d="M22.033660887765027,-67.13848401570391 L24.102289622492552,-66.59781724469373 L30.565594767889483,-52.59006383378867" fill="orange" fill-opacity="0.6" stroke="black" stroke-width="1" />
<path d="M24.102289622492552,-33.40218275530627 L30.565594767889483,-47.40993616621133 L33.0,-50.0" fill="green" fill-opacity="0.6" stroke="black" stroke-width="1" />
<path d="M24.102289622492552,33.40218275530627 L30.565594767889483,47.40993616621133 L33.0,50.0" fill="blue" fill-opacity="0.6" stroke="black" stroke-width="1" />
<path d="M24.102289622492552,66.59781724469373 L30.565594767889483,52.59006383378867 L33.0,50.0" fill="brown" fill-opacity="0.6" stroke="black" stroke-width="1" />
<path d="M24.102289622492552,-66.59781724469373 L30.565594767889483,-52.59006383378867 L33.0,-50.0" fill="purple" fill-opacity="0.6" stroke="black" stroke-width="1" />
<path d="M37.0,-37.0 L29.816230355694767,-34.50259584239107 L28.52795104349945,-34.307653914578296" fill="pink" fill-opacity="0.6" stroke="black" stroke-width="1" />
<path d="M37.0,37.0 L29.816230355694767,34.50259584239107 L28.52795104349945,34.307653914578296" fill="purple" fill-opacity="0.6" stroke="black" stroke-width="1" />
<path d="M37.0,63.0 L29.816230355694767,65.49740415760894 L28.52795104349945,65.6923460854217" fill="green" fill-opacity="0.6" stroke="black" stroke-width="1" />
<path d="M37.0,-63.0 L29.816230355694767,-65.49740415760894 L28.52795104349945,-65.6923460854217" fill="purple" fill-opacity="0.6" stroke="black" stroke-width="1" />
<path d="M29.816230355694767,-34.50259584239107 L28.52795104349945,-34.307653914578296 L20.0,-20.0" fill="black" fill-opacity="0.6" stroke="black" stroke-width="1" />
<path d="M29.816230355694767,34.50259584239107 L28.52795104349945,34.307653914578296 L20.0,20.0" fill="brown" fill-opacity="0.6" stroke="black" stroke-width="1" />
<path d="M29.816230355694767,65.49740415760894 L28.52795104349945,65.6923460854217 L20.0,80.0" fill="yellow" fill-opacity="0.6" stroke="black" stroke-width="1" />
<path d="M29.816230355694767,-65.49740415760894 L28.52795104349945,-65.6923460854217 L20.0,-80.0" fill="orange" fill-opacity="0.6" stroke="black" stroke-width="1" />
<path d="M9.0,-9.0 L0.37908613660900536,-6.251279525003156 L0.07114216086751564,-2.1616059274433166" fill="pink" fill-opacity="0.6" stroke="black" stroke-width="1" />
<path d="M9.0,9.0 L0.37908613660900536,6.251279525003156 L0.07114216086751564,2.1616059274433166" fill="green" fill-opacity="0.6" stroke="black" stroke-width="1" />
<path d="M9.0,91.0 L0.37908613660900536,93.74872047499684 L0.07114216086751564,97.83839407255668" fill="blue" fill-opacity="0.6" stroke="black" stroke-width="1" />
<path d="M9.0,-91.0 L0.37908613660900536,-93.74872047499684 L0.07114216086751564,-97.83839407255668" fill="purple" fill-opacity="0.6" stroke="black" stroke-width="1" />
<path d="M0.37908613660900536,-6.251279525003156 L0.07114216086751564,-2.1616059274433166 L0.024827677469176773,-0.10590141740497439" fill="brown" fill-opacity="0.6" stroke="black" stroke-width="1" />
<path d="M0.37908613660900536,6.251279525003156 L0.07114216086751564,2.1616059274433166 L0.024827677469176773,0.10590141740497439" fill="purple" fill-opacity="0.6" stroke="black" stroke-width="1" />
<path d="M0.37908613660900536,93.74872047499684 L0.07114216086751564,97.83839407255668 L0.024827677469176773,99.89409858259503" fill="purple" fill-opacity="0.6" stroke="black" stroke-width="1" />
<path d="M0.37908613660900536,-93.74872047499684 L0.07114216086751564,-97.83839407255668 L0.024827677469176773,-99.89409858259503" fill="purple" fill-opacity="0.6" stroke="black" stroke-width="1" />
<path d="M0.07114216086751564,-2.1616059274433166 L0.024827677469176773,-0.10590141740497439 L0.0,-0.0" fill="red" fill-opacity="0.6" stroke="black" stroke-width="1" />
<path d="M0.07114216086751564,2.1616059274433166 L0.024827677469176773,0.10590141740497439 L0.0,-0.0" fill="orange" fill-opacity="0.6" stroke="black" stroke-width="1" />
<path d="M0.07114216086751564,97.83839407255668 L0.024827677469176773,99.89409858259503 L0.0,100.0" fill="brown" fill-opacity="0.6" stroke="black" stroke-width="1" />
<path d="M0.07114216086751564,-97.83839407255668 L0.024827677469176773,-99.89409858259503 L0.0,-100.0" fill="pink" fill-opacity="0.6" stroke="black" stroke-width="1" />
<path d="M0.0,90.0 L-0.47185377486561597,84.48362948601455 L0.0,82.0" fill="blue" fill-opacity="0.6" stroke="black" stroke-width="1" />
<path d="M0.0,-10.0 L-0.47185377486561597,-15.51637051398545 L0.0,-18.0" fill="green" fill-opacity="0.6" stroke="black" stroke-width="1" />
<path d="M0.0,10.0 L-0.47185377486561597,15.51637051398545 L0.0,18.0" fill="red" fill-opacity="0.6" stroke="black" stroke-width="1" />
<path d="M0.0,-90.0 L-0.47185377486561597,-84.48362948601455 L0.0,-82.0" fill="orange" fill-opacity="0.6" stroke="black" stroke-width="1" />
<path d="M0.0,82.0 L-0.8875808879410169,81.73084644376479 L0.0,80.0" fill="black" fill-opacity="0.6" stroke="black" stroke-width="1" />
<path d="M0.0,-18.0 L-0.8875808879410169,-18.269153556235207 L0.0,-20.0" fill="red" fill-opacity="0.6" stroke="black" stroke-width="1" />
<path d="M0.0,18.0 L-0.8875808879410169,18.26915355623521 L0.0,20.0" fill="green" fill-opacity="0.6" stroke="black" stroke-width="1" />
<path d="M0.0,-82.0 L-0.8875808879410169,-81.73084644376479 L0.0,-80.0" fill="blue" fill-opacity="0.6" stroke="black" stroke-width="1" />
<path d="M0.0,80.0 L-1.0955065744459453,79.22956604522466 L-1.6320519772278774,77.53803929849023" fill="orange" fill-opacity="0.6" stroke="black" stroke-width="1" />
<path d="M0.0,-20.0 L-1.0955065744459453,-20.770433954775335 L-1.6320519772278774,-22.461960701509767" fill="green" fill-opacity="0.6" stroke="black" stroke-width="1" />
<path d="M0.0,20.0 L-1.0955065744459453,20.770433954775342 L-1.6320519772278774,22.461960701509767" fill="pink" fill-opacity="0.6" stroke="black" stroke-width="1" />
<path d="M0.0,-80.0 L-1.0955065744459453,-79.22956604522466 L-1.6320519772278774,-77.53803929849023" fill="blue" fill-opacity="0.6" stroke="black" stroke-width="1" />
<path d="M-1.0955065744459453,79.22956604522466 L-1.6320519772278774,77.53803929849023 L-4.951727295552197,76.63145598689707" fill="blue" fill-opacity="0.6" stroke="black" stroke-width="1" />
<path d="M-1.0955065744459453,-20.770433954775335 L-1.6320519772278774,-22.461960701509767 L-4.951727295552197,-23.368544013102927" fill="purple" fill-opacity="0.6" stroke="black" stroke-width="1" />
<path d="M-1.0955065744459453,20.770433954775342 L-1.6320519772278774,22.461960701509767 L-4.951727295552197,23.368544013102934" fill="pink" fill-opacity="0.6" stroke="black" stroke-width="1" />
<path d="M-1.0955065744459453,-79.22956604522466 L-1.6320519772278774,-77.53803929849023 L-4.951727295552197,-76.63145598689707" fill="black" fill-opacity="0.6" stroke="black" stroke-width="1" />
<path d="M-1.6320519772278774,77.53803929849023 L-4.951727295552197,76.63145598689707 L-8.326424852168824,76.40936552507715" fill="blue" fill-opacity="0.6" stroke="black" stroke-width="1" />
<path d="M-1.6320519772278774,-22.461960701509767 L-4.951727295552197,-23.368544013102927 L-8.326424852168824,-23.59063447492285" fill="pink" fill-opacity="0.6" stroke="black" stroke-width="1" />
<path d="M-1.6320519772278774,22.461960701509767 L-4.951727295552197,23.368544013102934 L-8.326424852168824,23.59063447492285" fill="purple" fill-opacity="0.6" stroke="black" stroke-width="1" />
<path d="M-1.6320519772278774,-77.53803929849023 L-4.951727295552197,-76.63145598689707 L-8.326424852168824,-76.40936552507715" fill="blue" fill-opacity="0.6" stroke="black" stroke-width="1" />
<path d="M-4.951727295552197,76.63145598689707 L-8.326424852168824,76.40936552507715 L-14.358923664202422,74.88342238402971" fill="black" fill-opacity="0.6" stroke="black" stroke-width="1" />
<path d="M-4.951727295552197,-23.368544013102927 L-8.326424852168824,-23.59063447492285 L-14.358923664202422,-25.116577615970286" fill="yellow" fill-opacity="0.6" stroke="black" stroke-width="1" />
<path d="M-4.951727295552197,23.368544013102934 L-8.326424852168824,23.59063447492285 L-14.358923664202422,25.116577615970286" fill="black" fill-opacity="0.6" stroke="black" stroke-width="1" />
<path d="M-4.951727295552197,-76.63145598689707 L-8.326424852168824,-76.40936552507715 L-14.358923664202422,-74.88342238402971" fill="orange" fill-opacity="0.6" stroke="black" stroke-width="1" />
<path d="M-8.326424852168824,76.40936552507715 L-14.358923664202422,74.88342238402971 L0.0,73.0" fill="blue" fill-opacity="0.6" stroke="black" stroke-width="1" />
<path d="M-8.326424852168824,-23.59063447492285 L-14.358923664202422,-25.116577615970286 L0.0,-27.0" fill="red" fill-opacity="0.6" stroke="black" stroke-width="1" />
<path d="M-8.326424852168824,23.59063447492285 L-14.358923664202422,25.116577615970286 L0.0,27.0" fill="brown" fill-opacity="0.6" stroke="black" stroke-width="1" />
<path d="M-8.326424852168824,-76.40936552507715 L-14.358923664202422,-74.88342238402971 L0.0,-73.0" fill="pink" fill-opacity="0.6" stroke="black" stroke-width="1" />
<path d="M0.0,73.0 L-16.776816240770692,67.60666883423625 L0.0,66.0" fill="brown" fill-opacity="0.6" stroke="black" stroke-width="1" />
<path d="M0.0,-27.0 L-16.776816240770692,-32.39333116576376 L0.0,-34.0" fill="black" fill-opacity="0.6" stroke="black" stroke-width="1" />
<path d="M0.0,27.0 L-16.776816240770692,32.393331165763755 L0.0,34.0" fill="yellow" fill-opacity="0.6" stroke="black" stroke-width="1" />
<path d="M0.0,-73.0 L-16.776816240770692,-67.60666883423625 L0.0,-66.0" fill="yellow" fill-opacity="0.6" stroke="black" stroke-width="1" />
<path d="M-21.0,50.0 L-22.033660887765027,67.13848401570391 L-24.102289622492552,66.59781724469373" fill="brown" fill-opacity="0.6" stroke="black" stroke-width="1" />
<path d="M-21.0,-50.0 L-22.033660887765027,-32.86151598429609 L-24.102289622492552,-33.40218275530627" fill="orange" fill-opacity="0.6" stroke="black" stroke-width="1" />
<path d="M-21.0,50.0 L-22.033660887765027,32.86151598429609 L-24.102289622492552,33.40218275530627" fill="purple" fill-opacity="0.6" stroke="black" stroke-width="1" />
<path d="M-21.0,-50.0 L-22.033660887765027,-67.13848401570391 L-24.102289622492552,-66.59781724469373" fill="black" fill-opacity="0.6" stroke="black" stroke-width="1" />
<path d="M-22.033660887765027,67.13848401570391 L-24.102289622492552,66.59781724469373 L-30.565594767889483,52.59006383378867" fill="yellow" fill-opacity="0.6" stroke="black" stroke-width="1" />
<path d="M-22.033660887765027,-32.86151598429609 L-24.102289622492552,-33.40218275530627 L-30.565594767889483,-47.40993616621133" fill="green" fill-opacity="0.6" stroke="black" stroke-width="1" />
<path d="M-22.033660887765027,32.86151598429609 L-24.102289622492552,33.40218275530627 L-30.565594767889483,47.40993616621133" fill="red" fill-opacity="0.6" stroke="black" stroke-width="1" />
<path d="M-22.033660887765027,-67.13848401570391 L-24.102289622492552,-66.59781724469373 L-30.565594767889483,-52.59006383378867" fill="yellow" fill-opacity="0.6" stroke="black" stroke-width="1" />
<path d="M-24.102289622492552,66.59781724469373 L-30.565594767889483,52.59006383378867 L-33.0,50.0" fill="yellow" fill-opacity="0.6" stroke="black" stroke-width="1" />
<path d="M-24.102289622492552,-33.40218275530627 L-30.565594767889483,-47.40993616621133 L-33.0,-50.0" fill="green" fill-opacity="0.6" stroke="black" stroke-width="1" />
<path d="M-24.102289622492552,33.40218275530627 L-30.565594767889483,47.40993616621133 L-33.0,50.0" fill="pink" fill-opacity="0.6" stroke="black" stroke-width="1" />
<path d="M-24.102289622492552,-66.59781724469373 L-30.565594767889483,-52.59006383378867 L-33.0,-50.0" fill="orange" fill-opacity="0.6" stroke="black" stroke-width="1" />
<path d="M-37.0,63.0 L-29.816230355694767,65.49740415760894 L-28.52795104349945,65.6923460854217" fill="green" fill-opacity="0.6" stroke="black" stroke-width="1" />
<path d="M-37.0,-37.0 L-29.816230355694767,-34.50259584239107 L-28.52795104349945,-34.307653914578296" fill="yellow" fill-opacity="0.6" stroke="black" stroke-width="1" />
<path d="M-37.0,37.0 L-29.816230355694767,34.50259584239106 L-28.52795104349945,34.307653914578296" fill="purple" fill-opacity="0.6" stroke="black" stroke-width="1" />
<path d="M-37.0,-63.0 L-29.816230355694767,-65.49740415760894 L-28.52795104349945,-65.6923460854217" fill="yellow" fill-opacity="0.6" stroke="black" stroke-width="1" />
<path d="M-29.816230355694767,65.49740415760894 L-28.52795104349945,65.6923460854217 L-20.0,80.0" fill="yellow" fill-opacity="0.6" stroke="black" stroke-width="1" />
<path d="M-29.816230355694767,-34.50259584239107 L-28.52795104349945,-34.307653914578296 L-20.0,-20.0" fill="orange" fill-opacity="0.6" stroke="black" stroke-width="1" />
<path d="M-29.816230355694767,34.50259584239106 L-28.52795104349945,34.307653914578296 L-20.0,20.0" fill="red" fill-opacity="0.6" stroke="black" stroke-width="1" />
<path d="M-29.816230355694767,-65.49740415760894 L-28.52795104349945,-65.6923460854217 L-20.0,-80.0" fill="red" fill-opacity="0.6" stroke="black" stroke-width="1" />
<path d="M-9.0,91.0 L-0.37908613660900536,93.74872047499684 L-0.07114216086751564,97.83839407255668" fill="orange" fill-opacity="0.6" stroke="black" stroke-width="1" />
<path d="M-9.0,-9.0 L-0.37908613660900536,-6.251279525003156 L-0.07114216086751564,-2.1616059274433166" fill="black" fill-opacity="0.6" stroke="black" stroke-width="1" />
<path d="M-9.0,9.0 L-0.37908613660900536,6.251279525003156 L-0.07114216086751564,2.1616059274433184" fill="purple" fill-opacity="0.6" stroke="black" stroke-width="1" />
<path d="M-9.0,-91.0 L-0.37908613660900536,-93.74872047499684 L-0.07114216086751564,-97.83839407255668" fill="pink" fill-opacity="0.6" stroke="black" stroke-width="1" />
<path d="M-0.37908613660900536,93.74872047499684 L-0.07114216086751564,97.83839407255668 L-0.024827677469176773,99.89409858259502" fill="blue" fill-opacity="0.6" stroke="black" stroke-width="1" />
<path d="M-0.37908613660900536,-6.251279525003156 L-0.07114216086751564,-2.1616059274433166 L-0.024827677469176773,-0.10590141740497439" fill="orange" fill-opacity="0.6" stroke="black" stroke-width="1" />
<path d="M-0.37908613660900536,6.251279525003156 L-0.07114216086751564,2.1616059274433184 L-0.024827677469176773,0.10590141740497927" fill="blue" fill-opacity="0.6" stroke="black" stroke-width="1" />
<path d="M-0.37908613660900536,-93.74872047499684 L-0.07114216086751564,-97.83839407255668 L-0.024827677469176773,-99.89409858259503" fill="pink" fill-opacity="0.6" stroke="black" stroke-width="1" />
<path d="M-0.07114216086751564,97.83839407255668 L-0.024827677469176773,99.89409858259502 L0.0,100.0" fill="brown" fill-opacity="0.6" stroke="black" stroke-width="1" />
<path d="M-0.07114216086751564,-2.1616059274433166 L-0.024827677469176773,-0.10590141740497439 L0.0,-0.0" fill="black" fill-opacity="0.6" stroke="black" stroke-width="1" />
<path d="M-0.07114216086751564,2.1616059274433184 L-0.024827677469176773,0.10590141740497927 L0.0,-0.0" fill="purple" fill-opacity="0.6" stroke="black" stroke-width="1" />
<path d="M-0.07114216086751564,-97.83839407255668 L-0.024827677469176773,-99.89409858259503 L0.0,-100.0" fill="red" fill-opacity="0.6" stroke="black" stroke-width="1" />
<path d="M-90.0,-0.0 L-84.48362948601455,-0.47185377486561597 L-82.0,-0.0" fill="red" fill-opacity="0.6" stroke="black" stroke-width="1" />
<path d="M-90.0,-0.0 L-84.48362948601455,0.47185377486561597 L-82.0,-0.0" fill="pink" fill-opacity="0.6" stroke="black" stroke-width="1" />
<path d="M-82.0,-0.0 L-81.73084644376479,-0.8875808879410169 L-80.0,-0.0" fill="orange" fill-opacity="0.6" stroke="black" stroke-width="1" />
<path d="M-82.0,-0.0 L-81.73084644376479,0.8875808879410169 L-80.0,-0.0" fill="blue" fill-opacity="0.6" stroke="black" stroke-width="1" />
<path d="M-65.6923460854217,-28.52795104349945 L-80.0,-20.0 L-81.0,-19.0" fill="pink" fill-opacity="0.6" stroke="black" stroke-width="1" />
<path d="M-65.6923460854217,28.52795104349945 L-80.0,20.0 L-81.0,19.0" fill="pink" fill-opacity="0.6" stroke="black" stroke-width="1" />
<path d="M-80.0,-0.0 L-79.22956604522466,-1.0955065744459453 L-77.53803929849023,-1.6320519772278774" fill="pink" fill-opacity="0.6" stroke="black" stroke-width="1" />
<path d="M-80.0,-0.0 L-79.22956604522466,1.0955065744459453 L-77.53803929849023,1.6320519772278774" fill="green" fill-opacity="0.6" stroke="black" stroke-width="1" />
<path d="M-79.22956604522466,-1.0955065744459453 L-77.53803929849023,-1.6320519772278774 L-76.63145598689707,-4.951727295552197" fill="blue" fill-opacity="0.6" stroke="black" stroke-width="1" />
<path d="M-79.22956604522466,1.0955065744459453 L-77.53803929849023,1.6320519772278774 L-76.63145598689707,4.951727295552197" fill="black" fill-opacity="0.6" stroke="black" stroke-width="1" />
<path d="M-77.53803929849023,-1.6320519772278774 L-76.63145598689707,-4.951727295552197 L-76.40936552507715,-8.326424852168824" fill="pink" fill-opacity="0.6" stroke="black" stroke-width="1" />
<path d="M-77.53803929849023,1.6320519772278774 L-76.63145598689707,4.951727295552197 L-76.40936552507715,8.326424852168824" fill="purple" fill-opacity="0.6" stroke="black" stroke-width="1" />
<path d="M-76.63145598689707,-4.951727295552197 L-76.40936552507715,-8.326424852168824 L-74.88342238402971,-14.358923664202422" fill="yellow" fill-opacity="0.6" stroke="black" stroke-width="1" />
<path d="M-76.63145598689707,4.951727295552197 L-76.40936552507715,8.326424852168824 L-74.88342238402971,14.358923664202422" fill="yellow" fill-opacity="0.6" stroke="black" stroke-width="1" />
<path d="M-76.40936552507715,-8.326424852168824 L-74.88342238402971,-14.358923664202422 L-73.0,-0.0" fill="orange" fill-opacity="0.6" stroke="black" stroke-width="1" />
<path d="M-76.40936552507715,8.326424852168824 L-74.88342238402971,14.358923664202422 L-73.0,-0.0" fill="pink" fill-opacity="0.6" stroke="black" stroke-width="1" />
<path d="M-73.0,-0.0 L-67.60666883423625,-16.776816240770692 L-66.0,-0.0" fill="green" fill-opacity="0.6" stroke="black" stroke-width="1" />
<path d="M-73.0,-0.0 L-67.60666883423625,16.776816240770692 L-66.0,-0.0" fill="red" fill-opacity="0.6" stroke="black" stroke-width="1" />
<path d="M-50.0,-21.0 L-67.13848401570391,-22.033660887765027 L-66.59781724469373,-24.102289622492552" fill="pink" fill-opacity="0.6" stroke="black" stroke-width="1" />
<path d="M-50.0,21.0 L-67.13848401570391,22.033660887765027 L-66.59781724469373,24.102289622492552" fill="brown" fill-opacity="0.6" stroke="black" stroke-width="1" />
<path d="M-67.13848401570391,-22.033660887765027 L-66.59781724469373,-24.102289622492552 L-52.59006383378867,-30.565594767889483" fill="blue" fill-opacity="0.6" stroke="black" stroke-width="1" />
<path d="M-67.13848401570391,22.033660887765027 L-66.59781724469373,24.102289622492552 L-52.59006383378867,30.565594767889483" fill="green" fill-opacity="0.6" stroke="black" stroke-width="1" />
<path d="M-66.59781724469373,-24.102289622492552 L-52.59006383378867,-30.565594767889483 L-50.0,-33.0" fill="pink" fill-opacity="0.6" stroke="black" stroke-width="1" />
<path d="M-66.59781724469373,24.102289622492552 L-52.59006383378867,30.565594767889483 L-50.0,33.0" fill="blue" fill-opacity="0.6" stroke="black" stroke-width="1" />
<path d="M-50.0,-45.0 L-53.0,-47.0 L-60.0,-40.0" fill="red" fill-opacity="0.6" stroke="black" stroke-width="1" />
<path d="M-50.0,45.0 L-53.0,47.0 L-60.0,40.0" fill="red" fill-opacity="0.6" stroke="black" stroke-width="1" />
<path d="M-53.0,-47.0 L-60.0,-40.0 L-63.0,-37.0" fill="yellow" fill-opacity="0.6" stroke="black" stroke-width="1" />
<path d="M-53.0,47.0 L-60.0,40.0 L-63.0,37.0" fill="pink" fill-opacity="0.6" stroke="black" stroke-width="1" />
<path d="M-60.0,-40.0 L-63.0,-37.0 L-65.49740415760894,-29.816230355694767" fill="yellow" fill-opacity="0.6" stroke="black" stroke-width="1" />
<path d="M-60.0,40.0 L-63.0,37.0 L-65.49740415760894,29.816230355694767" fill="yellow" fill-opacity="0.6" stroke="black" stroke-width="1" />
<path d="M-63.0,-37.0 L-65.49740415760894,-29.816230355694767 L-65.6923460854217,-28.52795104349945" fill="pink" fill-opacity="0.6" stroke="black" stroke-width="1" />
<path d="M-63.0,37.0 L-65.49740415760894,29.816230355694767 L-65.6923460854217,28.52795104349945" fill="purple" fill-opacity="0.6" stroke="black" stroke-width="1" />
<path d="M-65.49740415760894,-29.816230355694767 L-65.6923460854217,-28.52795104349945 L-80.0,-20.0" fill="yellow" fill-opacity="0.6" stroke="black" stroke-width="1" />
<path d="M-65.49740415760894,29.816230355694767 L-65.6923460854217,28.52795104349945 L-80.0,20.0" fill="green" fill-opacity="0.6" stroke="black" stroke-width="1" />
<path d="M-80.0,-20.0 L-81.0,-19.0 L-91.0,-9.0" fill="yellow" fill-opacity="0.6" stroke="black" stroke-width="1" />
<path d="M-80.0,20.0 L-81.0,19.0 L-91.0,9.0" fill="brown" fill-opacity="0.6" stroke="black" stroke-width="1" />
<path d="M-91.0,-9.0 L-93.74872047499684,-0.37908613660900536 L-97.83839407255668,-0.07114216086751564" fill="red" fill-opacity="0.6" stroke="black" stroke-width="1" />
<path d="M-91.0,9.0 L-93.74872047499684,0.37908613660900536 L-97.83839407255668,0.07114216086751564" fill="orange" fill-opacity="0.6" stroke="black" stroke-width="1" />
<path d="M-93.74872047499684,-0.37908613660900536 L-97.83839407255668,-0.07114216086751564 L-99.89409858259503,-0.024827677469176773" fill="purple" fill-opacity="0.6" stroke="black" stroke-width="1" />
<path d="M-93.74872047499684,0.37908613660900536 L-97.83839407255668,0.07114216086751564 L-99.89409858259503,0.024827677469176773" fill="orange" fill-opacity="0.6" stroke="black" stroke-width="1" />
<path d="M-97.83839407255668,-0.07114216086751564 L-99.89409858259503,-0.024827677469176773 L-100.0,-0.0" fill="brown" fill-opacity="0.6" stroke="black" stroke-width="1" />
<path d="M-97.83839407255668,0.07114216086751564 L-99.89409858259503,0.024827677469176773 L-100.0,-0.0" fill="pink" fill-opacity="0.6" stroke="black" stroke-width="1" />
</svg>