<?xml version="1.0" encoding="UTF-8"?>
<svg xmlns="http://www.w3.org/2000/svg" xmlns:xlink="http://www.w3.org/1999/xlink"
     width="250" height="250" viewBox="-125.0 -125.0 250 250">
<defs>
</defs>
<path d="M17.0,-0.0 L18.03691609729044,-9.52038773919911 L50.0,-0.0" fill-opacity="0" stroke="black" stroke-width="1" />
<path d="M17.0,-0.0 L18.03691609729044,9.52038773919911 L50.0,-0.0" fill-opacity="0" stroke="black" stroke-width="1" />
<path d="M50.0,-0.0 L44.59787213270357,-16.33618406868799 L50.0,-19.0" fill-opacity="0" stroke="black" stroke-width="1" />
<path d="M50.0,-0.0 L44.59787213270357,16.33618406868799 L50.0,19.0" fill-opacity="0" stroke="black" stroke-width="1" />
<path d="M19.0,50.0 L19.0,81.0 L6.028303358502974,87.23681117836911" fill-opacity="0" stroke="black" stroke-width="1" />
<path d="M19.0,-50.0 L19.0,-81.0 L6.028303358502974,-87.23681117836911" fill-opacity="0" stroke="black" stroke-width="1" />
<path d="M19.0,-19.0 L12.763188821630894,-6.028303358502974 L10.883363780028565,-4.4957395162867595" fill-opacity="0" stroke="black" stroke-width="1" />
<path d="M19.0,19.0 L12.763188821630894,6.028303358502974 L10.883363780028565,4.4957395162867595" fill-opacity="0" stroke="black" stroke-width="1" />
<path d="M12.763188821630894,-6.028303358502974 L10.883363780028565,-4.4957395162867595 L10.645402463430143,-4.280637975806945" fill-opacity="0" stroke="black" stroke-width="1" />
<path d="M12.763188821630894,6.028303358502974 L10.883363780028565,4.4957395162867595 L10.645402463430143,4.280637975806945" fill-opacity="0" stroke="black" stroke-width="1" />
<path d="M10.883363780028565,-4.4957395162867595 L10.645402463430143,-4.280637975806945 L9.0,-9.0" fill-opacity="0" stroke="black" stroke-width="1" />
<path d="M10.883363780028565,4.4957395162867595 L10.645402463430143,4.280637975806945 L9.0,9.0" fill-opacity="0" stroke="black" stroke-width="1" />
<path d="M4.280637975806945,89.35459753656986 L9.0,91.0 L2.773670290124185,91.66141448493555" fill-opacity="0" stroke="black" stroke-width="1" />
<path d="M4.280637975806945,-89.35459753656986 L9.0,-91.0 L2.773670290124185,-91.66141448493555" fill-opacity="0" stroke="black" stroke-width="1" />
<path d="M9.0,-9.0 L8.338585515064455,-2.773670290124185 L4.164647114710396,-0.32768218010527095" fill-opacity="0" stroke="black" stroke-width="1" />
<path d="M9.0,9.0 L8.338585515064455,2.773670290124185 L4.164647114710396,0.32768218010527095" fill-opacity="0" stroke="black" stroke-width="1" />
<path d="M8.338585515064455,-2.773670290124185 L4.164647114710396,-0.32768218010527095 L1.6255470950660655,-0.23253065383574967" fill-opacity="0" stroke="black" stroke-width="1" />
<path d="M8.338585515064455,2.773670290124185 L4.164647114710396,0.32768218010527095 L1.6255470950660655,0.23253065383574967" fill-opacity="0" stroke="black" stroke-width="1" />
<path d="M4.164647114710396,-0.32768218010527095 L1.6255470950660655,-0.23253065383574967 L0.0,-0.0" fill-opacity="0" stroke="black" stroke-width="1" />
<path d="M4.164647114710396,0.32768218010527095 L1.6255470950660655,0.23253065383574967 L0.0,-0.0" fill-opacity="0" stroke="black" stroke-width="1" />
<path d="M-17.0,-0.0 L-18.03691609729044,-9.52038773919911 L-50.0,-0.0" fill-opacity="0" stroke="black" stroke-width="1" />
<path d="M-17.0,-0.0 L-18.03691609729044,9.52038773919911 L-50.0,-0.0" fill-opacity="0" stroke="black" stroke-width="1" />
<path d="M-50.0,-0.0 L-44.59787213270357,-16.33618406868799 L-50.0,-19.0" fill-opacity="0" stroke="black" stroke-width="1" />
<path d="M-50.0,-0.0 L-44.59787213270357,16.33618406868799 L-50.0,19.0" fill-opacity="0" stroke="black" stroke-width="1" />
<path d="M-19.0,50.0 L-19.0,81.0 L-6.028303358502974,87.23681117836911" fill-opacity="0" stroke="black" stroke-width="1" />
<path d="M-19.0,-50.0 L-19.0,-81.0 L-6.028303358502974,-87.23681117836911" fill-opacity="0" stroke="black" stroke-width="1" />
<path d="M-19.0,-19.0 L-12.763188821630894,-6.028303358502974 L-10.883363780028565,-4.4957395162867595" fill-opacity="0" stroke="black" stroke-width="1" />
<path d="M-19.0,19.0 L-12.763188821630894,6.028303358502974 L-10.883363780028565,4.4957395162867595" fill-opacity="0" stroke="black" stroke-width="1" />
<path d="M-12.763188821630894,-6.028303358502974 L-10.883363780028565,-4.4957395162867595 L-10.645402463430143,-4.280637975806945" fill-opacity="0" stroke="black" stroke-width="1" />
<path d="M-12.763188821630894,6.028303358502974 L-10.883363780028565,4.4957395162867595 L-10.645402463430143,4.280637975806945" fill-opacity="0" stroke="black" stroke-width="1" />
<path d="M-10.883363780028565,-4.4957395162867595 L-10.645402463430143,-4.280637975806945 L-9.0,-9.0" fill-opacity="0" stroke="black" stroke-width="1" />
<path d="M-10.883363780028565,4.4957395162867595 L-10.645402463430143,4.280637975806945 L-9.0,9.0" fill-opacity="0" stroke="black" stroke-width="1" />
<path d="M-4.280637975806945,89.35459753656986 L-9.0,91.0 L-2.773670290124185,91.66141448493555" fill-opacity="0" stroke="black" stroke-width="1" />
<path d="M-4.280637975806945,-89.35459753656986 L-9.0,-91.0 L-2.773670290124185,-91.66141448493555" fill-opacity="0" stroke="black" stroke-width="1" />
<path d="M-9.0,-9.0 L-8.338585515064455,-2.773670290124185 L-4.164647114710396,-0.32768218010527095" fill-opacity="0" stroke="black" stroke-width="1" />
<path d="M-9.0,9.0 L-8.338585515064455,2.773670290124185 L-4.164647114710396,0.32768218010527095" fill-opacity="0" stroke="black" stroke-width="1" />
<path d="M-8.338585515064455,-2.773670290124185 L-4.164647114710396,-0.32768218010527095 L-1.6255470950660655,-0.23253065383574967" fill-opacity="0" stroke="black" stroke-width="1" />
<path d="M-8.338585515064455,2.773670290124185 L-4.164647114710396,0.32768218010527095 L-1.6255470950660655,0.23253065383574967" fill-opacity="0" stroke="black" stroke-width="1" />
<path d="M-4.164647114710396,-0.32768218010527095 L-1.6255470950660655,-0.23253065383574967 L0.0,-0.0" fill-opacity="0" stroke="black" stroke-width="1" />
<path d="M-4.164647114710396,0.32768218010527095 L-1.6255470950660655,0.23253065383574967 L0.0,-0.0" fill-opacity="0" stroke="black" stroke-width="1" />
<path d="M83.0,-0.0 L81.96308390270956,9.52038773919911 L50.0,-0.0" fill-opacity="0" stroke="black" stroke-width="1" />
<path d="M83.0,-0.0 L81.96308390270956,-9.52038773919911 L50.0,-0.0" fill-opacity="0" stroke="black" stroke-width="1" />
<path d="M50.0,-0.0 L55.40212786729643,16.33618406868799 L50.0,19.0" fill-opacity="0" stroke="black" stroke-width="1" />
<path d="M50.0,-0.0 L55.40212786729643,-16.33618406868799 L50.0,-19.0" fill-opacity="0" stroke="black" stroke-width="1" />
<path d="M50.0,19.0 L81.0,19.0 L87.23681117836911,6.028303358502974" fill-opacity="0" stroke="black" stroke-width="1" />
<path d="M50.0,-19.0 L81.0,-19.0 L87.23681117836911,-6.028303358502974" fill-opacity="0" stroke="black" stroke-width="1" />
<path d="M81.0,19.0 L87.23681117836911,6.028303358502974 L89.11663621997144,4.4957395162867595" fill-opacity="0" stroke="black" stroke-width="1" />
<path d="M81.0,-19.0 L87.23681117836911,-6.028303358502974 L89.11663621997144,-4.4957395162867595" fill-opacity="0" stroke="black" stroke-width="1" />
<path d="M87.23681117836911,6.028303358502974 L89.11663621997144,4.4957395162867595 L89.35459753656986,4.280637975806945" fill-opacity="0" stroke="black" stroke-width="1" />
<path d="M87.23681117836911,-6.028303358502974 L89.11663621997144,-4.4957395162867595 L89.35459753656986,-4.280637975806945" fill-opacity="0" stroke="black" stroke-width="1" />
<path d="M89.11663621997144,4.4957395162867595 L89.35459753656986,4.280637975806945 L91.0,9.0" fill-opacity="0" stroke="black" stroke-width="1" />
<path d="M89.11663621997144,-4.4957395162867595 L89.35459753656986,-4.280637975806945 L91.0,-9.0" fill-opacity="0" stroke="black" stroke-width="1" />
<path d="M89.35459753656986,4.280637975806945 L91.0,9.0 L91.66141448493555,2.773670290124185" fill-opacity="0" stroke="black" stroke-width="1" />
<path d="M89.35459753656986,-4.280637975806945 L91.0,-9.0 L91.66141448493555,-2.773670290124185" fill-opacity="0" stroke="black" stroke-width="1" />
<path d="M91.0,9.0 L91.66141448493555,2.773670290124185 L95.83535288528961,0.32768218010527095" fill-opacity="0" stroke="black" stroke-width="1" />
<path d="M91.0,-9.0 L91.66141448493555,-2.773670290124185 L95.83535288528961,-0.32768218010527095" fill-opacity="0" stroke="black" stroke-width="1" />
<path d="M91.66141448493555,2.773670290124185 L95.83535288528961,0.32768218010527095 L98.37445290493393,0.23253065383574967" fill-opacity="0" stroke="black" stroke-width="1" />
<path d="M91.66141448493555,-2.773670290124185 L95.83535288528961,-0.32768218010527095 L98.37445290493393,-0.23253065383574967" fill-opacity="0" stroke="black" stroke-width="1" />
<path d="M95.83535288528961,0.32768218010527095 L98.37445290493393,0.23253065383574967 L100.0,-0.0" fill-opacity="0" stroke="black" stroke-width="1" />
<path d="M95.83535288528961,-0.32768218010527095 L98.37445290493393,-0.23253065383574967 L100.0,-0.0" fill-opacity="0" stroke="black" stroke-width="1" />
<path d="M0.0,-17.0 L9.52038773919911,-18.03691609729044 L0.0,-50.0" fill-opacity="0" stroke="black" stroke-width="1" />
<path d="M0.0,17.0 L9.52038773919911,18.03691609729044 L0.0,50.0" fill-opacity="0" stroke="black" stroke-width="1" />
<path d="M0.0,83.0 L9.52038773919911,81.96308390270956 L0.0,50.0" fill-opacity="0" stroke="black" stroke-width="1" />
<path d="M0.0,-83.0 L9.52038773919911,-81.96308390270956 L0.0,-50.0" fill-opacity="0" stroke="black" stroke-width="1" />
<path d="M0.0,-50.0 L16.33618406868799,-44.59787213270357 L19.0,-50.0" fill-opacity="0" stroke="black" stroke-width="1" />
<path d="M0.0,50.0 L16.33618406868799,44.59787213270357 L19.0,50.0" fill-opacity="0" stroke="black" stroke-width="1" />
<path d="M0.0,50.0 L16.33618406868799,55.40212786729643 L19.0,50.0" fill-opacity="0" stroke="black" stroke-width="1" />
<path d="M0.0,-50.0 L16.33618406868799,-55.40212786729643 L19.0,-50.0" fill-opacity="0" stroke="black" stroke-width="1" />
<path d="M19.0,-19.0 L6.028303358502974,-12.763188821630894 L4.4957395162867595,-10.883363780028565" fill-opacity="0" stroke="black" stroke-width="1" />
<path d="M19.0,19.0 L6.028303358502974,12.763188821630894 L4.4957395162867595,10.883363780028565" fill-opacity="0" stroke="black" stroke-width="1" />
<path d="M19.0,81.0 L6.028303358502974,87.23681117836911 L4.4957395162867595,89.11663621997144" fill-opacity="0" stroke="black" stroke-width="1" />
<path d="M19.0,-81.0 L6.028303358502974,-87.23681117836911 L4.4957395162867595,-89.11663621997144" fill-opacity="0" stroke="black" stroke-width="1" />
<path d="M6.028303358502974,-12.763188821630894 L4.4957395162867595,-10.883363780028565 L4.280637975806945,-10.645402463430143" fill-opacity="0" stroke="black" stroke-width="1" />
<path d="M6.028303358502974,12.763188821630894 L4.4957395162867595,10.883363780028565 L4.280637975806945,10.645402463430143" fill-opacity="0" stroke="black" stroke-width="1" />
<path d="M6.028303358502974,87.23681117836911 L4.4957395162867595,89.11663621997144 L4.280637975806945,89.35459753656986" fill-opacity="0" stroke="black" stroke-width="1" />
<path d="M6.028303358502974,-87.23681117836911 L4.4957395162867595,-89.11663621997144 L4.280637975806945,-89.35459753656986" fill-opacity="0" stroke="black" stroke-width="1" />
<path d="M4.4957395162867595,-10.883363780028565 L4.280637975806945,-10.645402463430143 L9.0,-9.0" fill-opacity="0" stroke="black" stroke-width="1" />
<path d="M4.4957395162867595,10.883363780028565 L4.280637975806945,10.645402463430143 L9.0,9.0" fill-opacity="0" stroke="black" stroke-width="1" />
<path d="M4.4957395162867595,89.11663621997144 L4.280637975806945,89.35459753656986 L9.0,91.0" fill-opacity="0" stroke="black" stroke-width="1" />
<path d="M4.4957395162867595,-89.11663621997144 L4.280637975806945,-89.35459753656986 L9.0,-91.0" fill-opacity="0" stroke="black" stroke-width="1" />
<path d="M9.0,-9.0 L2.773670290124185,-8.338585515064455 L0.32768218010527095,-4.164647114710396" fill-opacity="0" stroke="black" stroke-width="1" />
<path d="M9.0,9.0 L2.773670290124185,8.338585515064455 L0.32768218010527095,4.164647114710396" fill-opacity="0" stroke="black" stroke-width="1" />
<path d="M9.0,91.0 L2.773670290124185,91.66141448493555 L0.32768218010527095,95.83535288528961" fill-opacity="0" stroke="black" stroke-width="1" />
<path d="M9.0,-91.0 L2.773670290124185,-91.66141448493555 L0.32768218010527095,-95.83535288528961" fill-opacity="0" stroke="black" stroke-width="1" />
<path d="M2.773670290124185,-8.338585515064455 L0.32768218010527095,-4.164647114710396 L0.23253065383574967,-1.6255470950660655" fill-opacity="0" stroke="black" stroke-width="1" />
<path d="M2.773670290124185,8.338585515064455 L0.32768218010527095,4.164647114710396 L0.23253065383574967,1.6255470950660655" fill-opacity="0" stroke="black" stroke-width="1" />
<path d="M2.773670290124185,91.66141448493555 L0.32768218010527095,95.83535288528961 L0.23253065383574967,98.37445290493393" fill-opacity="0" stroke="black" stroke-width="1" />
<path d="M2.773670290124185,-91.66141448493555 L0.32768218010527095,-95.83535288528961 L0.23253065383574967,-98.37445290493393" fill-opacity="0" stroke="black" stroke-width="1" />
<path d="M0.32768218010527095,-4.164647114710396 L0.23253065383574967,-1.6255470950660655 L0.0,-0.0" fill-opacity="0" stroke="black" stroke-width="1" />
<path d="M0.32768218010527095,4.164647114710396 L0.23253065383574967,1.6255470950660655 L0.0,-0.0" fill-opacity="0" stroke="black" stroke-width="1" />
<path d="M0.32768218010527095,95.83535288528961 L0.23253065383574967,98.37445290493393 L0.0,100.0" fill-opacity="0" stroke="black" stroke-width="1" />
<path d="M0.32768218010527095,-95.83535288528961 L0.23253065383574967,-98.37445290493393 L0.0,-100.0" fill-opacity="0" stroke="black" stroke-width="1" />
<path d="M0.0,83.0 L-9.52038773919911,81.96308390270956 L0.0,50.0" fill-opacity="0" stroke="black" stroke-width="1" />
<path d="M0.0,-17.0 L-9.52038773919911,-18.03691609729044 L0.0,-50.0" fill-opacity="0" stroke="black" stroke-width="1" />
<path d="M0.0,17.0 L-9.52038773919911,18.036916097290444 L0.0,50.0" fill-opacity="0" stroke="black" stroke-width="1" />
<path d="M0.0,-83.0 L-9.52038773919911,-81.96308390270956 L0.0,-50.0" fill-opacity="0" stroke="black" stroke-width="1" />
<path d="M0.0,50.0 L-16.33618406868799,55.40212786729643 L-19.0,50.0" fill-opacity="0" stroke="black" stroke-width="1" />
<path d="M0.0,-50.0 L-16.33618406868799,-44.59787213270357 L-19.0,-50.0" fill-opacity="0" stroke="black" stroke-width="1" />
<path d="M0.0,50.0 L-16.33618406868799,44.59787213270357 L-19.0,50.0" fill-opacity="0" stroke="black" stroke-width="1" />
<path d="M0.0,-50.0 L-16.33618406868799,-55.40212786729643 L-19.0,-50.0" fill-opacity="0" stroke="black" stroke-width="1" />
<path d="M-19.0,81.0 L-6.028303358502974,87.23681117836911 L-4.4957395162867595,89.11663621997144" fill-opacity="0" stroke="black" stroke-width="1" />
<path d="M-19.0,-19.0 L-6.028303358502974,-12.763188821630894 L-4.4957395162867595,-10.883363780028565" fill-opacity="0" stroke="black" stroke-width="1" />
<path d="M-19.0,19.0 L-6.028303358502974,12.76318882163089 L-4.4957395162867595,10.88336378002856" fill-opacity="0" stroke="black" stroke-width="1" />
<path d="M-19.0,-81.0 L-6.028303358502974,-87.23681117836911 L-4.4957395162867595,-89.11663621997144" fill-opacity="0" stroke="black" stroke-width="1" />
<path d="M-6.028303358502974,87.23681117836911 L-4.4957395162867595,89.11663621997144 L-4.280637975806945,89.35459753656986" fill-opacity="0" stroke="black" stroke-width="1" />
<path d="M-6.028303358502974,-12.763188821630894 L-4.4957395162867595,-10.883363780028565 L-4.280637975806945,-10.645402463430143" fill-opacity="0" stroke="black" stroke-width="1" />
<path d="M-6.028303358502974,12.76318882163089 L-4.4957395162867595,10.88336378002856 L-4.280637975806945,10.645402463430145" fill-opacity="0" stroke="black" stroke-width="1" />
<path d="M-6.028303358502974,-87.23681117836911 L-4.4957395162867595,-89.11663621997144 L-4.280637975806945,-89.35459753656986" fill-opacity="0" stroke="black" stroke-width="1" />
<path d="M-4.4957395162867595,89.11663621997144 L-4.280637975806945,89.35459753656986 L-9.0,91.0" fill-opacity="0" stroke="black" stroke-width="1" />
<path d="M-4.4957395162867595,-10.883363780028565 L-4.280637975806945,-10.645402463430143 L-9.0,-9.0" fill-opacity="0" stroke="black" stroke-width="1" />
<path d="M-4.4957395162867595,10.88336378002856 L-4.280637975806945,10.645402463430145 L-9.0,9.0" fill-opacity="0" stroke="black" stroke-width="1" />
<path d="M-4.4957395162867595,-89.11663621997144 L-4.280637975806945,-89.35459753656986 L-9.0,-91.0" fill-opacity="0" stroke="black" stroke-width="1" />
<path d="M-9.0,91.0 L-2.773670290124185,91.66141448493555 L-0.32768218010527095,95.83535288528961" fill-opacity="0" stroke="black" stroke-width="1" />
<path d="M-9.0,-9.0 L-2.773670290124185,-8.338585515064455 L-0.32768218010527095,-4.164647114710396" fill-opacity="0" stroke="black" stroke-width="1" />
<path d="M-9.0,9.0 L-2.773670290124185,8.338585515064452 L-0.32768218010527095,4.164647114710391" fill-opacity="0" stroke="black" stroke-width="1" />
<path d="M-9.0,-91.0 L-2.773670290124185,-91.66141448493555 L-0.32768218010527095,-95.83535288528961" fill-opacity="0" stroke="black" stroke-width="1" />
<path d="M-2.773670290124185,91.66141448493555 L-0.32768218010527095,95.83535288528961 L-0.23253065383574967,98.37445290493393" fill-opacity="0" stroke="black" stroke-width="1" />
<path d="M-2.773670290124185,-8.338585515064455 L-0.32768218010527095,-4.164647114710396 L-0.23253065383574967,-1.6255470950660655" fill-opacity="0" stroke="black" stroke-width="1" />
<path d="M-2.773670290124185,8.338585515064452 L-0.32768218010527095,4.164647114710391 L-0.23253065383574967,1.625547095066068" fill-opacity="0" stroke="black" stroke-width="1" />
<path d="M-2.773670290124185,-91.66141448493555 L-0.32768218010527095,-95.83535288528961 L-0.23253065383574967,-98.37445290493393" fill-opacity="0" stroke="black" stroke-width="1" />
<path d="M-0.32768218010527095,95.83535288528961 L-0.23253065383574967,98.37445290493393 L0.0,100.0" fill-opacity="0" stroke="black" stroke-width="1" />
<path d="M-0.32768218010527095,-4.164647114710396 L-0.23253065383574967,-1.6255470950660655 L0.0,-0.0" fill-opacity="0" stroke="black" stroke-width="1" />
<path d="M-0.32768218010527095,4.164647114710391 L-0.23253065383574967,1.625547095066068 L0.0,-0.0" fill-opacity="0" stroke="black" stroke-width="1" />
<path d="M-0.32768218010527095,-95.83535288528961 L-0.23253065383574967,-98.37445290493393 L0.0,-100.0" fill-opacity="0" stroke="black" stroke-width="1" />
<path d="M-83.0,-0.0 L-81.96308390270956,-9.52038773919911 L-50.0,-0.0" fill-opacity="0" stroke="black" stroke-width="1" />
<path d="M-83.0,-0.0 L-81.96308390270956,9.52038773919911 L-50.0,-0.0" fill-opacity="0" stroke="black" stroke-width="1" />
<path d="M-50.0,-0.0 L-55.40212786729643,-16.33618406868799 L-50.0,-19.0" fill-opacity="0" stroke="black" stroke-width="1" />
<path d="M-50.0,-0.0 L-55.40212786729643,16.33618406868799 L-50.0,19.0" fill-opacity="0" stroke="black" stroke-width="1" />
<path d="M-50.0,-19.0 L-81.0,-19.0 L-87.23681117836911,-6.028303358502974" fill-opacity="0" stroke="black" stroke-width="1" />
<path d="M-50.0,19.0 L-81.0,19.0 L-87.23681117836911,6.028303358502974" fill-opacity="0" stroke="black" stroke-width="1" />
<path d="M-81.0,-19.0 L-87.23681117836911,-6.028303358502974 L-89.11663621997144,-4.4957395162867595" fill-opacity="0" stroke="black" stroke-width="1" />
<path d="M-81.0,19.0 L-87.23681117836911,6.028303358502974 L-89.11663621997144,4.4957395162867595" fill-opacity="0" stroke="black" stroke-width="1" />
<path d="M-87.23681117836911,-6.028303358502974 L-89.11663621997144,-4.4957395162867595 L-89.35459753656986,-4.280637975806945" fill-opacity="0" stroke="black" stroke-width="1" />
<path d="M-87.23681117836911,6.028303358502974 L-89.11663621997144,4.4957395162867595 L-89.35459753656986,4.280637975806945" fill-opacity="0" stroke="black" stroke-width="1" />
<path d="M-89.11663621997144,-4.4957395162867595 L-89.35459753656986,-4.280637975806945 L-91.0,-9.0" fill-opacity="0" stroke="black" stroke-width="1" />
<path d="M-89.11663621997144,4.4957395162867595 L-89.35459753656986,4.280637975806945 L-91.0,9.0" fill-opacity="0" stroke="black" stroke-width="1" />
<path d="M-89.35459753656986,-4.280637975806945 L-91.0,-9.0 L-91.66141448493555,-2.773670290124185" fill-opacity="0" stroke="black" stroke-width="1" />
<path d="M-89.35459753656986,4.280637975806945 L-91.0,9.0 L-91.66141448493555,2.773670290124185" fill-opacity="0" stroke="black" stroke-width="1" />
<path d="M-91.0,-9.0 L-91.66141448493555,-2.773670290124185 L-95.83535288528961,-0.32768218010527095" fill-opacity="0" stroke="black" stroke-width="1" />
<path d="M-91.0,9.0 L-91.66141448493555,2.773670290124185 L-95.83535288528961,0.32768218010527095" fill-opacity="0" stroke="black" stroke-width="1" />
<path d="M-91.66141448493555,-2.773670290124185 L-95.83535288528961,-0.32768218010527095 L-98.37445290493393,-0.23253065383574967" fill-opacity="0" stroke="black" stroke-width="1" />
<path d="M-91.66141448493555,2.773670290124185 L-95.83535288528961,0.32768218010527095 L-98.37445290493393,0.23253065383574967" fill-opacity="0" stroke="black" stroke-width="1" />
<path d="M-95.83535288528961,-0.32768218010527095 L-98.37445290493393,-0.23253065383574967 L-100.0,-0.0" fill-opacity="0" stroke="black" stroke-width="1" />
<path d="M-95.83535288528961,0.32768218010527095 L-98.37445290493393,0.23253065383574967 L-100.0,-0.0" fill-opacity="0" stroke="black" stroke-width="1" />
</svg>