<?xml version="1.0" encoding="UTF-8"?>
<svg xmlns="http://www.w3.org/2000/svg" xmlns:xlink="http://www.w3.org/1999/xlink"
     width="250" height="250" viewBox="-125.0 -125.0 250 250">
<defs>
</defs>
<path d="M0.0,-0.0 L32.27964965108317,-2.07927631655635 L42.0,-0.0" fill-opacity="0" stroke="black" stroke-width="1" />
<path d="M0.0,-0.0 L32.27964965108317,2.07927631655635 L42.0,-0.0" fill-opacity="0" stroke="black" stroke-width="1" />
<path d="M50.0,-11.0 L32.76221638267886,-23.232752137127363 L44.750748548163266,-25.174994436842095" fill-opacity="0" stroke="black" stroke-width="1" />
<path d="M50.0,11.0 L32.76221638267886,23.232752137127363 L44.750748548163266,25.174994436842095" fill-opacity="0" stroke="black" stroke-width="1" />
<path d="M32.76221638267886,-23.232752137127363 L44.750748548163266,-25.174994436842095 L47.06731302124163,-31.789490497872023" fill-opacity="0" stroke="black" stroke-width="1" />
<path d="M32.76221638267886,23.232752137127363 L44.750748548163266,25.174994436842095 L47.06731302124163,31.789490497872023" fill-opacity="0" stroke="black" stroke-width="1" />
<path d="M44.750748548163266,-25.174994436842095 L47.06731302124163,-31.789490497872023 L30.0,-30.0" fill-opacity="0" stroke="black" stroke-width="1" />
<path d="M44.750748548163266,25.174994436842095 L47.06731302124163,31.789490497872023 L30.0,30.0" fill-opacity="0" stroke="black" stroke-width="1" />
<path d="M31.789490497872023,52.93268697875837 L30.0,70.0 L27.0,73.0" fill-opacity="0" stroke="black" stroke-width="1" />
<path d="M31.789490497872023,-52.93268697875837 L30.0,-70.0 L27.0,-73.0" fill-opacity="0" stroke="black" stroke-width="1" />
<path d="M30.0,70.0 L27.0,73.0 L0.35644698414364523,98.16943290944442" fill-opacity="0" stroke="black" stroke-width="1" />
<path d="M30.0,-70.0 L27.0,-73.0 L0.35644698414364523,-98.16943290944442" fill-opacity="0" stroke="black" stroke-width="1" />
<path d="M27.0,-27.0 L1.8305670905555849,-0.35644698414364523 L0.0,-0.0" fill-opacity="0" stroke="black" stroke-width="1" />
<path d="M27.0,27.0 L1.8305670905555849,0.35644698414364523 L0.0,-0.0" fill-opacity="0" stroke="black" stroke-width="1" />
<path d="M0.0,-0.0 L-32.27964965108317,-2.07927631655635 L-42.0,-0.0" fill-opacity="0" stroke="black" stroke-width="1" />
<path d="M0.0,-0.0 L-32.27964965108317,2.07927631655635 L-42.0,-0.0" fill-opacity="0" stroke="black" stroke-width="1" />
<path d="M-50.0,-11.0 L-32.76221638267886,-23.232752137127363 L-44.750748548163266,-25.174994436842095" fill-opacity="0" stroke="black" stroke-width="1" />
<path d="M-50.0,11.0 L-32.76221638267886,23.232752137127363 L-44.750748548163266,25.174994436842095" fill-opacity="0" stroke="black" stroke-width="1" />
<path d="M-32.76221638267886,-23.232752137127363 L-44.750748548163266,-25.174994436842095 L-47.06731302124163,-31.789490497872023" fill-opacity="0" stroke="black" stroke-width="1" />
<path d="M-32.76221638267886,23.232752137127363 L-44.750748548163266,25.174994436842095 L-47.06731302124163,31.789490497872023" fill-opacity="0" stroke="black" stroke-width="1" />
<path d="M-44.750748548163266,-25.174994436842095 L-47.06731302124163,-31.789490497872023 L-30.0,-30.0" fill-opacity="0" stroke="black" stroke-width="1" />
<path d="M-44.750748548163266,25.174994436842095 L-47.06731302124163,31.789490497872023 L-30.0,30.0" fill-opacity="0" stroke="black" stroke-width="1" />
<path d="M-31.789490497872023,52.93268697875837 L-30.0,70.0 L-27.0,73.0" fill-opacity="0" stroke="black" stroke-width="1" />
<path d="M-31.789490497872023,-52.93268697875837 L-30.0,-70.0 L-27.0,-73.0" fill-opacity="0" stroke="black" stroke-width="1" />
<path d="M-30.0,70.0 L-27.0,73.0 L-0.35644698414364523,98.16943290944441" fill-opacity="0" stroke="black" stroke-width="1" />
<path d="M-30.0,-70.0 L-27.0,-73.0 L-0.35644698414364523,-98.16943290944442" fill-opacity="0" stroke="black" stroke-width="1" />
<path d="M-27.0,-27.0 L-1.8305670905555849,-0.35644698414364523 L0.0,-0.0" fill-opacity="0" stroke="black" stroke-width="1" />
<path d="M-27.0,27.0 L-1.8305670905555849,0.35644698414364523 L0.0,-0.0" fill-opacity="0" stroke="black" stroke-width="1" />
<path d="M100.0,-0.0 L67.72035034891684,2.07927631655635 L58.0,-0.0" fill-opacity="0" stroke="black" stroke-width="1" />
<path d="M100.0,-0.0 L67.72035034891684,-2.07927631655635 L58.0,-0.0" fill-opacity="0" stroke="black" stroke-width="1" />
<path d="M50.0,11.0 L67.23778361732114,23.232752137127363 L55.249251451836734,25.174994436842095" fill-opacity="0" stroke="black" stroke-width="1" />
<path d="M50.0,-11.0 L67.23778361732114,-23.232752137127363 L55.249251451836734,-25.174994436842095" fill-opacity="0" stroke="black" stroke-width="1" />
<path d="M67.23778361732114,23.232752137127363 L55.249251451836734,25.174994436842095 L52.93268697875837,31.789490497872023" fill-opacity="0" stroke="black" stroke-width="1" />
<path d="M67.23778361732114,-23.232752137127363 L55.249251451836734,-25.174994436842095 L52.93268697875837,-31.789490497872023" fill-opacity="0" stroke="black" stroke-width="1" />
<path d="M55.249251451836734,25.174994436842095 L52.93268697875837,31.789490497872023 L70.0,30.0" fill-opacity="0" stroke="black" stroke-width="1" />
<path d="M55.249251451836734,-25.174994436842095 L52.93268697875837,-31.789490497872023 L70.0,-30.0" fill-opacity="0" stroke="black" stroke-width="1" />
<path d="M52.93268697875837,31.789490497872023 L70.0,30.0 L73.0,27.0" fill-opacity="0" stroke="black" stroke-width="1" />
<path d="M52.93268697875837,-31.789490497872023 L70.0,-30.0 L73.0,-27.0" fill-opacity="0" stroke="black" stroke-width="1" />
<path d="M70.0,30.0 L73.0,27.0 L98.16943290944442,0.35644698414364523" fill-opacity="0" stroke="black" stroke-width="1" />
<path d="M70.0,-30.0 L73.0,-27.0 L98.16943290944442,-0.35644698414364523" fill-opacity="0" stroke="black" stroke-width="1" />
<path d="M73.0,27.0 L98.16943290944442,0.35644698414364523 L100.0,-0.0" fill-opacity="0" stroke="black" stroke-width="1" />
<path d="M73.0,-27.0 L98.16943290944442,-0.35644698414364523 L100.0,-0.0" fill-opacity="0" stroke="black" stroke-width="1" />
<path d="M0.0,-0.0 L2.07927631655635,-32.27964965108317 L0.0,-42.0" fill-opacity="0" stroke="black" stroke-width="1" />
<path d="M0.0,-0.0 L2.07927631655635,32.27964965108317 L0.0,42.0" fill-opacity="0" stroke="black" stroke-width="1" />
<path d="M0.0,100.0 L2.07927631655635,67.72035034891684 L0.0,58.0" fill-opacity="0" stroke="black" stroke-width="1" />
<path d="M0.0,-100.0 L2.07927631655635,-67.72035034891684 L0.0,-58.0" fill-opacity="0" stroke="black" stroke-width="1" />
<path d="M11.0,-50.0 L23.232752137127363,-32.76221638267886 L25.174994436842095,-44.750748548163266" fill-opacity="0" stroke="black" stroke-width="1" />
<path d="M11.0,50.0 L23.232752137127363,32.76221638267886 L25.174994436842095,44.750748548163266" fill-opacity="0" stroke="black" stroke-width="1" />
<path d="M11.0,50.0 L23.232752137127363,67.23778361732114 L25.174994436842095,55.249251451836734" fill-opacity="0" stroke="black" stroke-width="1" />
<path d="M11.0,-50.0 L23.232752137127363,-67.23778361732114 L25.174994436842095,-55.249251451836734" fill-opacity="0" stroke="black" stroke-width="1" />
<path d="M23.232752137127363,-32.76221638267886 L25.174994436842095,-44.750748548163266 L31.789490497872023,-47.06731302124163" fill-opacity="0" stroke="black" stroke-width="1" />
<path d="M23.232752137127363,32.76221638267886 L25.174994436842095,44.750748548163266 L31.789490497872023,47.06731302124163" fill-opacity="0" stroke="black" stroke-width="1" />
<path d="M23.232752137127363,67.23778361732114 L25.174994436842095,55.249251451836734 L31.789490497872023,52.93268697875837" fill-opacity="0" stroke="black" stroke-width="1" />
<path d="M23.232752137127363,-67.23778361732114 L25.174994436842095,-55.249251451836734 L31.789490497872023,-52.93268697875837" fill-opacity="0" stroke="black" stroke-width="1" />
<path d="M25.174994436842095,-44.750748548163266 L31.789490497872023,-47.06731302124163 L30.0,-30.0" fill-opacity="0" stroke="black" stroke-width="1" />
<path d="M25.174994436842095,44.750748548163266 L31.789490497872023,47.06731302124163 L30.0,30.0" fill-opacity="0" stroke="black" stroke-width="1" />
<path d="M25.174994436842095,55.249251451836734 L31.789490497872023,52.93268697875837 L30.0,70.0" fill-opacity="0" stroke="black" stroke-width="1" />
<path d="M25.174994436842095,-55.249251451836734 L31.789490497872023,-52.93268697875837 L30.0,-70.0" fill-opacity="0" stroke="black" stroke-width="1" />
<path d="M27.0,-27.0 L0.35644698414364523,-1.8305670905555849 L0.0,-0.0" fill-opacity="0" stroke="black" stroke-width="1" />
<path d="M27.0,27.0 L0.35644698414364523,1.8305670905555849 L0.0,-0.0" fill-opacity="0" stroke="black" stroke-width="1" />
<path d="M27.0,73.0 L0.35644698414364523,98.16943290944442 L0.0,100.0" fill-opacity="0" stroke="black" stroke-width="1" />
<path d="M27.0,-73.0 L0.35644698414364523,-98.16943290944442 L0.0,-100.0" fill-opacity="0" stroke="black" stroke-width="1" />
<path d="M0.0,100.0 L-2.07927631655635,67.72035034891684 L0.0,58.0" fill-opacity="0" stroke="black" stroke-width="1" />
<path d="M0.0,-0.0 L-2.07927631655635,-32.27964965108317 L0.0,-42.0" fill-opacity="0" stroke="black" stroke-width="1" />
<path d="M0.0,-0.0 L-2.07927631655635,32.27964965108316 L0.0,42.0" fill-opacity="0" stroke="black" stroke-width="1" />
<path d="M0.0,-100.0 L-2.07927631655635,-67.72035034891684 L0.0,-58.0" fill-opacity="0" stroke="black" stroke-width="1" />
<path d="M-11.0,50.0 L-23.232752137127363,67.23778361732114 L-25.174994436842095,55.249251451836734" fill-opacity="0" stroke="black" stroke-width="1" />
<path d="M-11.0,-50.0 L-23.232752137127363,-32.76221638267886 L-25.174994436842095,-44.750748548163266" fill-opacity="0" stroke="black" stroke-width="1" />
<path d="M-11.0,50.0 L-23.232752137127363,32.76221638267886 L-25.174994436842095,44.750748548163266" fill-opacity="0" stroke="black" stroke-width="1" />
<path d="M-11.0,-50.0 L-23.232752137127363,-67.23778361732114 L-25.174994436842095,-55.249251451836734" fill-opacity="0" stroke="black" stroke-width="1" />
<path d="M-23.232752137127363,67.23778361732114 L-25.174994436842095,55.249251451836734 L-31.789490497872023,52.93268697875837" fill-opacity="0" stroke="black" stroke-width="1" />
<path d="M-23.232752137127363,-32.76221638267886 L-25.174994436842095,-44.750748548163266 L-31.789490497872023,-47.06731302124163" fill-opacity="0" stroke="black" stroke-width="1" />
<path d="M-23.232752137127363,32.76221638267886 L-25.174994436842095,44.750748548163266 L-31.789490497872023,47.06731302124163" fill-opacity="0" stroke="black" stroke-width="1" />
<path d="M-23.232752137127363,-67.23778361732114 L-25.174994436842095,-55.249251451836734 L-31.789490497872023,-52.93268697875837" fill-opacity="0" stroke="black" stroke-width="1" />
<path d="M-25.174994436842095,55.249251451836734 L-31.789490497872023,52.93268697875837 L-30.0,70.0" fill-opacity="0" stroke="black" stroke-width="1" />
<path d="M-25.174994436842095,-44.750748548163266 L-31.789490497872023,-47.06731302124163 L-30.0,-30.0" fill-opacity="0" stroke="black" stroke-width="1" />
<path d="M-25.174994436842095,44.750748548163266 L-31.789490497872023,47.06731302124163 L-30.0,30.0" fill-opacity="0" stroke="black" stroke-width="1" />
<path d="M-25.174994436842095,-55.249251451836734 L-31.789490497872023,-52.93268697875837 L-30.0,-70.0" fill-opacity="0" stroke="black" stroke-width="1" />
<path d="M-27.0,73.0 L-0.35644698414364523,98.16943290944441 L0.0,100.0" fill-opacity="0" stroke="black" stroke-width="1" />
<path d="M-27.0,-27.0 L-0.35644698414364523,-1.8305670905555849 L0.0,-0.0" fill-opacity="0" stroke="black" stroke-width="1" />
<path d="M-27.0,27.0 L-0.35644698414364523,1.83056709055559 L0.0,-0.0" fill-opacity="0" stroke="black" stroke-width="1" />
<path d="M-27.0,-73.0 L-0.35644698414364523,-98.16943290944442 L0.0,-100.0" fill-opacity="0" stroke="black" stroke-width="1" />
<path d="M-100.0,-0.0 L-67.72035034891684,-2.07927631655635 L-58.0,-0.0" fill-opacity="0" stroke="black" stroke-width="1" />
<path d="M-100.0,-0.0 L-67.72035034891684,2.07927631655635 L-58.0,-0.0" fill-opacity="0" stroke="black" stroke-width="1" />
<path d="M-50.0,-11.0 L-67.23778361732114,-23.232752137127363 L-55.249251451836734,-25.174994436842095" fill-opacity="0" stroke="black" stroke-width="1" />
<path d="M-50.0,11.0 L-67.23778361732114,23.232752137127363 L-55.249251451836734,25.174994436842095" fill-opacity="0" stroke="black" stroke-width="1" />
<path d="M-67.23778361732114,-23.232752137127363 L-55.249251451836734,-25.174994436842095 L-52.93268697875837,-31.789490497872023" fill-opacity="0" stroke="black" stroke-width="1" />
<path d="M-67.23778361732114,23.232752137127363 L-55.249251451836734,25.174994436842095 L-52.93268697875837,31.789490497872023" fill-opacity="0" stroke="black" stroke-width="1" />
<path d="M-55.249251451836734,-25.174994436842095 L-52.93268697875837,-31.789490497872023 L-70.0,-30.0" fill-opacity="0" stroke="black" stroke-width="1" />
<path d="M-55.249251451836734,25.174994436842095 L-52.93268697875837,31.789490497872023 L-70.0,30.0" fill-opacity="0" stroke="black" stroke-width="1" />
<path d="M-52.93268697875837,-31.789490497872023 L-70.0,-30.0 L-73.0,-27.0" fill-opacity="0" stroke="black" stroke-width="1" />
<path d="M-52.93268697875837,31.789490497872023 L-70.0,30.0 L-73.0,27.0" fill-opacity="0" stroke="black" stroke-width="1" />
<path d="M-70.0,-30.0 L-73.0,-27.0 L-98.16943290944442,-0.35644698414364523" fill-opacity="0" stroke="black" stroke-width="1" />
<path d="M-70.0,30.0 L-73.0,27.0 L-98.16943290944442,0.35644698414364523" fill-opacity="0" stroke="black" stroke-width="1" />
<path d="M-73.0,-27.0 L-98.16943290944442,-0.35644698414364523 L-100.0,-0.0" fill-opacity="0" stroke="black" stroke-width="1" />
<path d="M-73.0,27.0 L-98.16943290944442,0.35644698414364523 L-100.0,-0.0" fill-opacity="0" stroke="black" stroke-width="1" />
</svg>