<?xml version="1.0" encoding="UTF-8"?>
<svg xmlns="http://www.w3.org/2000/svg" xmlns:xlink="http://www.w3.org/1999/xlink"
     width="250" height="250" viewBox="-125.0 -125.0 250 250">
<defs>
</defs>
<path d="M14.041241607527951,82.35641450617831 L16.0,84.0 L11.0,89.0" fill-opacity="0" stroke="black" stroke-width="1" />
<path d="M14.041241607527951,-82.35641450617831 L16.0,-84.0 L11.0,-89.0" fill-opacity="0" stroke="black" stroke-width="1" />
<path d="M18.5418007989259,73.63806832305005 L19.0,81.0 L14.041241607527951,82.35641450617831" fill-opacity="0" stroke="black" stroke-width="1" />
<path d="M18.5418007989259,-73.63806832305005 L19.0,-81.0 L14.041241607527951,-82.35641450617831" fill-opacity="0" stroke="black" stroke-width="1" />
<path d="M50.0,-12.0 L38.377315640313945,-18.75592093988265 L50.0,-20.0" fill-opacity="0" stroke="black" stroke-width="1" />
<path d="M50.0,12.0 L38.377315640313945,18.75592093988265 L50.0,20.0" fill-opacity="0" stroke="black" stroke-width="1" />
<path d="M45.0,50.0 L41.0,59.0 L40.0,60.0" fill-opacity="0" stroke="black" stroke-width="1" />
<path d="M45.0,-50.0 L41.0,-59.0 L40.0,-60.0" fill-opacity="0" stroke="black" stroke-width="1" />
<path d="M41.0,59.0 L40.0,60.0 L38.0,62.0" fill-opacity="0" stroke="black" stroke-width="1" />
<path d="M41.0,-59.0 L40.0,-60.0 L38.0,-62.0" fill-opacity="0" stroke="black" stroke-width="1" />
<path d="M40.0,60.0 L38.0,62.0 L30.0,70.0" fill-opacity="0" stroke="black" stroke-width="1" />
<path d="M40.0,-60.0 L38.0,-62.0 L30.0,-70.0" fill-opacity="0" stroke="black" stroke-width="1" />
<path d="M38.0,62.0 L30.0,70.0 L29.0,71.0" fill-opacity="0" stroke="black" stroke-width="1" />
<path d="M38.0,-62.0 L30.0,-70.0 L29.0,-71.0" fill-opacity="0" stroke="black" stroke-width="1" />
<path d="M30.0,70.0 L29.0,71.0 L18.5418007989259,73.63806832305005" fill-opacity="0" stroke="black" stroke-width="1" />
<path d="M30.0,-70.0 L29.0,-71.0 L18.5418007989259,-73.63806832305005" fill-opacity="0" stroke="black" stroke-width="1" />
<path d="M29.0,-29.0 L26.361931676949958,-18.5418007989259 L19.0,-19.0" fill-opacity="0" stroke="black" stroke-width="1" />
<path d="M29.0,29.0 L26.361931676949958,18.5418007989259 L19.0,19.0" fill-opacity="0" stroke="black" stroke-width="1" />
<path d="M19.0,-19.0 L17.643585493821682,-14.041241607527951 L16.0,-16.0" fill-opacity="0" stroke="black" stroke-width="1" />
<path d="M19.0,19.0 L17.643585493821682,14.041241607527951 L16.0,16.0" fill-opacity="0" stroke="black" stroke-width="1" />
<path d="M16.0,84.0 L11.0,89.0 L0.0,100.0" fill-opacity="0" stroke="black" stroke-width="1" />
<path d="M16.0,-84.0 L11.0,-89.0 L0.0,-100.0" fill-opacity="0" stroke="black" stroke-width="1" />
<path d="M-14.041241607527951,82.35641450617831 L-16.0,84.0 L-11.0,89.0" fill-opacity="0" stroke="black" stroke-width="1" />
<path d="M-14.041241607527951,-82.35641450617831 L-16.0,-84.0 L-11.0,-89.0" fill-opacity="0" stroke="black" stroke-width="1" />
<path d="M-18.5418007989259,73.63806832305005 L-19.0,81.0 L-14.041241607527951,82.35641450617831" fill-opacity="0" stroke="black" stroke-width="1" />
<path d="M-18.5418007989259,-73.63806832305005 L-19.0,-81.0 L-14.041241607527951,-82.35641450617831" fill-opacity="0" stroke="black" stroke-width="1" />
<path d="M-50.0,-12.0 L-38.377315640313945,-18.75592093988265 L-50.0,-20.0" fill-opacity="0" stroke="black" stroke-width="1" />
<path d="M-50.0,12.0 L-38.377315640313945,18.75592093988265 L-50.0,20.0" fill-opacity="0" stroke="black" stroke-width="1" />
<path d="M-45.0,50.0 L-41.0,59.0 L-40.0,60.0" fill-opacity="0" stroke="black" stroke-width="1" />
<path d="M-45.0,-50.0 L-41.0,-59.0 L-40.0,-60.0" fill-opacity="0" stroke="black" stroke-width="1" />
<path d="M-41.0,59.0 L-40.0,60.0 L-38.0,62.0" fill-opacity="0" stroke="black" stroke-width="1" />
<path d="M-41.0,-59.0 L-40.0,-60.0 L-38.0,-62.0" fill-opacity="0" stroke="black" stroke-width="1" />
<path d="M-40.0,60.0 L-38.0,62.0 L-30.0,70.0" fill-opacity="0" stroke="black" stroke-width="1" />
<path d="M-40.0,-60.0 L-38.0,-62.0 L-30.0,-70.0" fill-opacity="0" stroke="black" stroke-width="1" />
<path d="M-38.0,62.0 L-30.0,70.0 L-29.0,71.0" fill-opacity="0" stroke="black" stroke-width="1" />
<path d="M-38.0,-62.0 L-30.0,-70.0 L-29.0,-71.0" fill-opacity="0" stroke="black" stroke-width="1" />
<path d="M-30.0,70.0 L-29.0,71.0 L-18.5418007989259,73.63806832305005" fill-opacity="0" stroke="black" stroke-width="1" />
<path d="M-30.0,-70.0 L-29.0,-71.0 L-18.5418007989259,-73.63806832305005" fill-opacity="0" stroke="black" stroke-width="1" />
<path d="M-29.0,-29.0 L-26.361931676949958,-18.5418007989259 L-19.0,-19.0" fill-opacity="0" stroke="black" stroke-width="1" />
<path d="M-29.0,29.0 L-26.361931676949958,18.5418007989259 L-19.0,19.0" fill-opacity="0" stroke="black" stroke-width="1" />
<path d="M-19.0,-19.0 L-17.643585493821682,-14.041241607527951 L-16.0,-16.0" fill-opacity="0" stroke="black" stroke-width="1" />
<path d="M-19.0,19.0 L-17.643585493821682,14.041241607527951 L-16.0,16.0" fill-opacity="0" stroke="black" stroke-width="1" />
<path d="M-16.0,84.0 L-11.0,89.0 L0.0,100.0" fill-opacity="0" stroke="black" stroke-width="1" />
<path d="M-16.0,-84.0 L-11.0,-89.0 L0.0,-100.0" fill-opacity="0" stroke="black" stroke-width="1" />
<path d="M82.35641450617831,14.041241607527951 L84.0,16.0 L89.0,11.0" fill-opacity="0" stroke="black" stroke-width="1" />
<path d="M82.35641450617831,-14.041241607527951 L84.0,-16.0 L89.0,-11.0" fill-opacity="0" stroke="black" stroke-width="1" />
<path d="M73.63806832305005,18.5418007989259 L81.0,19.0 L82.35641450617831,14.041241607527951" fill-opacity="0" stroke="black" stroke-width="1" />
<path d="M73.63806832305005,-18.5418007989259 L81.0,-19.0 L82.35641450617831,-14.041241607527951" fill-opacity="0" stroke="black" stroke-width="1" />
<path d="M50.0,12.0 L61.622684359686055,18.75592093988265 L50.0,20.0" fill-opacity="0" stroke="black" stroke-width="1" />
<path d="M50.0,-12.0 L61.622684359686055,-18.75592093988265 L50.0,-20.0" fill-opacity="0" stroke="black" stroke-width="1" />
<path d="M50.0,45.0 L59.0,41.0 L60.0,40.0" fill-opacity="0" stroke="black" stroke-width="1" />
<path d="M50.0,-45.0 L59.0,-41.0 L60.0,-40.0" fill-opacity="0" stroke="black" stroke-width="1" />
<path d="M59.0,41.0 L60.0,40.0 L62.0,38.0" fill-opacity="0" stroke="black" stroke-width="1" />
<path d="M59.0,-41.0 L60.0,-40.0 L62.0,-38.0" fill-opacity="0" stroke="black" stroke-width="1" />
<path d="M60.0,40.0 L62.0,38.0 L70.0,30.0" fill-opacity="0" stroke="black" stroke-width="1" />
<path d="M60.0,-40.0 L62.0,-38.0 L70.0,-30.0" fill-opacity="0" stroke="black" stroke-width="1" />
<path d="M62.0,38.0 L70.0,30.0 L71.0,29.0" fill-opacity="0" stroke="black" stroke-width="1" />
<path d="M62.0,-38.0 L70.0,-30.0 L71.0,-29.0" fill-opacity="0" stroke="black" stroke-width="1" />
<path d="M70.0,30.0 L71.0,29.0 L73.63806832305005,18.5418007989259" fill-opacity="0" stroke="black" stroke-width="1" />
<path d="M70.0,-30.0 L71.0,-29.0 L73.63806832305005,-18.5418007989259" fill-opacity="0" stroke="black" stroke-width="1" />
<path d="M71.0,29.0 L73.63806832305005,18.5418007989259 L81.0,19.0" fill-opacity="0" stroke="black" stroke-width="1" />
<path d="M71.0,-29.0 L73.63806832305005,-18.5418007989259 L81.0,-19.0" fill-opacity="0" stroke="black" stroke-width="1" />
<path d="M81.0,19.0 L82.35641450617831,14.041241607527951 L84.0,16.0" fill-opacity="0" stroke="black" stroke-width="1" />
<path d="M81.0,-19.0 L82.35641450617831,-14.041241607527951 L84.0,-16.0" fill-opacity="0" stroke="black" stroke-width="1" />
<path d="M84.0,16.0 L89.0,11.0 L100.0,-0.0" fill-opacity="0" stroke="black" stroke-width="1" />
<path d="M84.0,-16.0 L89.0,-11.0 L100.0,-0.0" fill-opacity="0" stroke="black" stroke-width="1" />
<path d="M12.0,-50.0 L18.75592093988265,-38.377315640313945 L20.0,-50.0" fill-opacity="0" stroke="black" stroke-width="1" />
<path d="M12.0,50.0 L18.75592093988265,38.377315640313945 L20.0,50.0" fill-opacity="0" stroke="black" stroke-width="1" />
<path d="M12.0,50.0 L18.75592093988265,61.622684359686055 L20.0,50.0" fill-opacity="0" stroke="black" stroke-width="1" />
<path d="M12.0,-50.0 L18.75592093988265,-61.622684359686055 L20.0,-50.0" fill-opacity="0" stroke="black" stroke-width="1" />
<path d="M29.0,-29.0 L18.5418007989259,-26.361931676949958 L19.0,-19.0" fill-opacity="0" stroke="black" stroke-width="1" />
<path d="M29.0,29.0 L18.5418007989259,26.361931676949958 L19.0,19.0" fill-opacity="0" stroke="black" stroke-width="1" />
<path d="M29.0,71.0 L18.5418007989259,73.63806832305005 L19.0,81.0" fill-opacity="0" stroke="black" stroke-width="1" />
<path d="M29.0,-71.0 L18.5418007989259,-73.63806832305005 L19.0,-81.0" fill-opacity="0" stroke="black" stroke-width="1" />
<path d="M19.0,-19.0 L14.041241607527951,-17.643585493821682 L16.0,-16.0" fill-opacity="0" stroke="black" stroke-width="1" />
<path d="M19.0,19.0 L14.041241607527951,17.643585493821682 L16.0,16.0" fill-opacity="0" stroke="black" stroke-width="1" />
<path d="M19.0,81.0 L14.041241607527951,82.35641450617831 L16.0,84.0" fill-opacity="0" stroke="black" stroke-width="1" />
<path d="M19.0,-81.0 L14.041241607527951,-82.35641450617831 L16.0,-84.0" fill-opacity="0" stroke="black" stroke-width="1" />
<path d="M-12.0,50.0 L-18.75592093988265,61.622684359686055 L-20.0,50.0" fill-opacity="0" stroke="black" stroke-width="1" />
<path d="M-12.0,-50.0 L-18.75592093988265,-38.377315640313945 L-20.0,-50.0" fill-opacity="0" stroke="black" stroke-width="1" />
<path d="M-12.0,50.0 L-18.75592093988265,38.377315640313945 L-20.0,50.0" fill-opacity="0" stroke="black" stroke-width="1" />
<path d="M-12.0,-50.0 L-18.75592093988265,-61.622684359686055 L-20.0,-50.0" fill-opacity="0" stroke="black" stroke-width="1" />
<path d="M-29.0,71.0 L-18.5418007989259,73.63806832305005 L-19.0,81.0" fill-opacity="0" stroke="black" stroke-width="1" />
<path d="M-29.0,-29.0 L-18.5418007989259,-26.361931676949958 L-19.0,-19.0" fill-opacity="0" stroke="black" stroke-width="1" />
<path d="M-29.0,29.0 L-18.5418007989259,26.36193167694995 L-19.0,19.0" fill-opacity="0" stroke="black" stroke-width="1" />
<path d="M-29.0,-71.0 L-18.5418007989259,-73.63806832305005 L-19.0,-81.0" fill-opacity="0" stroke="black" stroke-width="1" />
<path d="M-19.0,81.0 L-14.041241607527951,82.35641450617831 L-16.0,84.0" fill-opacity="0" stroke="black" stroke-width="1" />
<path d="M-19.0,-19.0 L-14.041241607527951,-17.643585493821682 L-16.0,-16.0" fill-opacity="0" stroke="black" stroke-width="1" />
<path d="M-19.0,19.0 L-14.041241607527951,17.64358549382169 L-16.0,16.0" fill-opacity="0" stroke="black" stroke-width="1" />
<path d="M-19.0,-81.0 L-14.041241607527951,-82.35641450617831 L-16.0,-84.0" fill-opacity="0" stroke="black" stroke-width="1" />
<path d="M-82.35641450617831,-14.041241607527951 L-84.0,-16.0 L-89.0,-11.0" fill-opacity="0" stroke="black" stroke-width="1" />
<path d="M-82.35641450617831,14.041241607527951 L-84.0,16.0 L-89.0,11.0" fill-opacity="0" stroke="black" stroke-width="1" />
<path d="M-73.63806832305005,-18.5418007989259 L-81.0,-19.0 L-82.35641450617831,-14.041241607527951" fill-opacity="0" stroke="black" stroke-width="1" />
<path d="M-73.63806832305005,18.5418007989259 L-81.0,19.0 L-82.35641450617831,14.041241607527951" fill-opacity="0" stroke="black" stroke-width="1" />
<path d="M-50.0,-12.0 L-61.622684359686055,-18.75592093988265 L-50.0,-20.0" fill-opacity="0" stroke="black" stroke-width="1" />
<path d="M-50.0,12.0 L-61.622684359686055,18.75592093988265 L-50.0,20.0" fill-opacity="0" stroke="black" stroke-width="1" />
<path d="M-50.0,-45.0 L-59.0,-41.0 L-60.0,-40.0" fill-opacity="0" stroke="black" stroke-width="1" />
<path d="M-50.0,45.0 L-59.0,41.0 L-60.0,40.0" fill-opacity="0" stroke="black" stroke-width="1" />
<path d="M-59.0,-41.0 L-60.0,-40.0 L-62.0,-38.0" fill-opacity="0" stroke="black" stroke-width="1" />
<path d="M-59.0,41.0 L-60.0,40.0 L-62.0,38.0" fill-opacity="0" stroke="black" stroke-width="1" />
<path d="M-60.0,-40.0 L-62.0,-38.0 L-70.0,-30.0" fill-opacity="0" stroke="black" stroke-width="1" />
<path d="M-60.0,40.0 L-62.0,38.0 L-70.0,30.0" fill-opacity="0" stroke="black" stroke-width="1" />
<path d="M-62.0,-38.0 L-70.0,-30.0 L-71.0,-29.0" fill-opacity="0" stroke="black" stroke-width="1" />
<path d="M-62.0,38.0 L-70.0,30.0 L-71.0,29.0" fill-opacity="0" stroke="black" stroke-width="1" />
<path d="M-70.0,-30.0 L-71.0,-29.0 L-73.63806832305005,-18.5418007989259" fill-opacity="0" stroke="black" stroke-width="1" />
<path d="M-70.0,30.0 L-71.0,29.0 L-73.63806832305005,18.5418007989259" fill-opacity="0" stroke="black" stroke-width="1" />
<path d="M-71.0,-29.0 L-73.63806832305005,-18.5418007989259 L-81.0,-19.0" fill-opacity="0" stroke="black" stroke-width="1" />
<path d="M-71.0,29.0 L-73.63806832305005,18.5418007989259 L-81.0,19.0" fill-opacity="0" stroke="black" stroke-width="1" />
<path d="M-81.0,-19.0 L-82.35641450617831,-14.041241607527951 L-84.0,-16.0" fill-opacity="0" stroke="black" stroke-width="1" />
<path d="M-81.0,19.0 L-82.35641450617831,14.041241607527951 L-84.0,16.0" fill-opacity="0" stroke="black" stroke-width="1" />
<path d="M-84.0,-16.0 L-89.0,-11.0 L-100.0,-0.0" fill-opacity="0" stroke="black" stroke-width="1" />
<path d="M-84.0,16.0 L-89.0,11.0 L-100.0,-0.0" fill-opacity="0" stroke="black" stroke-width="1" />
</svg>