<?xml version="1.0" encoding="UTF-8"?>
<svg xmlns="http://www.w3.org/2000/svg" xmlns:xlink="http://www.w3.org/1999/xlink"
     width="250" height="250" viewBox="-125.0 -125.0 250 250">
<defs>
</defs>
<path d="M22.0,78.0 L19.0,81.0 L3.496373809299752,90.44403677390326" fill="pink" fill-opacity="0.6" stroke="black" stroke-width="1" />
<path d="M22.0,-78.0 L19.0,-81.0 L3.496373809299752,-90.44403677390326" fill="orange" fill-opacity="0.6" stroke="black" stroke-width="1" />
<path d="M19.0,-0.0 L22.53665296190381,-4.257957496000017 L26.0,-0.0" fill="black" fill-opacity="0.6" stroke="black" stroke-width="1" />
<path d="M19.0,-0.0 L22.53665296190381,4.257957496000017 L26.0,-0.0" fill="red" fill-opacity="0.6" stroke="black" stroke-width="1" />
<path d="M26.0,-0.0 L26.932177445328204,-4.4922507366575655 L27.97111835338706,-5.913652661732794" fill="purple" fill-opacity="0.6" stroke="black" stroke-width="1" />
<path d="M26.0,-0.0 L26.932177445328204,4.4922507366575655 L27.97111835338706,5.913652661732794" fill="purple" fill-opacity="0.6" stroke="black" stroke-width="1" />
<path d="M26.932177445328204,-4.4922507366575655 L27.97111835338706,-5.913652661732794 L28.70023356932422,-19.200644578632975" fill="green" fill-opacity="0.6" stroke="black" stroke-width="1" />
<path d="M26.932177445328204,4.4922507366575655 L27.97111835338706,5.913652661732794 L28.70023356932422,19.200644578632975" fill="red" fill-opacity="0.6" stroke="black" stroke-width="1" />
<path d="M27.97111835338706,-5.913652661732794 L28.70023356932422,-19.200644578632975 L29.0,-0.0" fill="black" fill-opacity="0.6" stroke="black" stroke-width="1" />
<path d="M27.97111835338706,5.913652661732794 L28.70023356932422,19.200644578632975 L29.0,-0.0" fill="black" fill-opacity="0.6" stroke="black" stroke-width="1" />
<path d="M50.0,-20.0 L40.48471070209348,-22.749394769355668 L45.79304601208686,-23.51861260296688" fill="blue" fill-opacity="0.6" stroke="black" stroke-width="1" />
<path d="M50.0,20.0 L40.48471070209348,22.749394769355668 L45.79304601208686,23.51861260296688" fill="pink" fill-opacity="0.6" stroke="black" stroke-width="1" />
<path d="M40.48471070209348,-22.749394769355668 L45.79304601208686,-23.51861260296688 L50.0,-28.0" fill="green" fill-opacity="0.6" stroke="black" stroke-width="1" />
<path d="M40.48471070209348,22.749394769355668 L45.79304601208686,23.51861260296688 L50.0,28.0" fill="green" fill-opacity="0.6" stroke="black" stroke-width="1" />
<path d="M50.0,-28.0 L49.830088638525794,-32.22266591274236 L50.0,-39.0" fill="brown" fill-opacity="0.6" stroke="black" stroke-width="1" />
<path d="M50.0,28.0 L49.830088638525794,32.22266591274236 L50.0,39.0" fill="pink" fill-opacity="0.6" stroke="black" stroke-width="1" />
<path d="M50.0,50.0 L47.0,53.0 L43.0,57.0" fill="yellow" fill-opacity="0.6" stroke="black" stroke-width="1" />
<path d="M50.0,-50.0 L47.0,-53.0 L43.0,-57.0" fill="black" fill-opacity="0.6" stroke="black" stroke-width="1" />
<path d="M47.0,53.0 L43.0,57.0 L37.0,63.0" fill="green" fill-opacity="0.6" stroke="black" stroke-width="1" />
<path d="M47.0,-53.0 L43.0,-57.0 L37.0,-63.0" fill="purple" fill-opacity="0.6" stroke="black" stroke-width="1" />
<path d="M43.0,57.0 L37.0,63.0 L36.0,64.0" fill="blue" fill-opacity="0.6" stroke="black" stroke-width="1" />
<path d="M43.0,-57.0 L37.0,-63.0 L36.0,-64.0" fill="orange" fill-opacity="0.6" stroke="black" stroke-width="1" />
<path d="M37.0,63.0 L36.0,64.0 L34.0,66.0" fill="red" fill-opacity="0.6" stroke="black" stroke-width="1" />
<path d="M37.0,-63.0 L36.0,-64.0 L34.0,-66.0" fill="green" fill-opacity="0.6" stroke="black" stroke-width="1" />
<path d="M36.0,64.0 L34.0,66.0 L22.3194377631553,70.28674799014075" fill="blue" fill-opacity="0.6" stroke="black" stroke-width="1" />
<path d="M36.0,-64.0 L34.0,-66.0 L22.3194377631553,-70.28674799014075" fill="red" fill-opacity="0.6" stroke="black" stroke-width="1" />
<path d="M34.0,-34.0 L29.713252009859254,-22.3194377631553 L22.0,-22.0" fill="black" fill-opacity="0.6" stroke="black" stroke-width="1" />
<path d="M34.0,34.0 L29.713252009859254,22.3194377631553 L22.0,22.0" fill="brown" fill-opacity="0.6" stroke="black" stroke-width="1" />
<path d="M19.0,-19.0 L9.555963226096743,-3.496373809299752 L1.897166043533094,-1.4816300948908445" fill="green" fill-opacity="0.6" stroke="black" stroke-width="1" />
<path d="M19.0,19.0 L9.555963226096743,3.496373809299752 L1.897166043533094,1.4816300948908445" fill="red" fill-opacity="0.6" stroke="black" stroke-width="1" />
<path d="M9.555963226096743,-3.496373809299752 L1.897166043533094,-1.4816300948908445 L0.0,-0.0" fill="orange" fill-opacity="0.6" stroke="black" stroke-width="1" />
<path d="M9.555963226096743,3.496373809299752 L1.897166043533094,1.4816300948908445 L0.0,-0.0" fill="red" fill-opacity="0.6" stroke="black" stroke-width="1" />
<path d="M-22.0,78.0 L-19.0,81.0 L-3.496373809299752,90.44403677390326" fill="black" fill-opacity="0.6" stroke="black" stroke-width="1" />
<path d="M-22.0,-78.0 L-19.0,-81.0 L-3.496373809299752,-90.44403677390326" fill="pink" fill-opacity="0.6" stroke="black" stroke-width="1" />
<path d="M-19.0,-0.0 L-22.53665296190381,-4.257957496000017 L-26.0,-0.0" fill="yellow" fill-opacity="0.6" stroke="black" stroke-width="1" />
<path d="M-19.0,-0.0 L-22.53665296190381,4.257957496000017 L-26.0,-0.0" fill="purple" fill-opacity="0.6" stroke="black" stroke-width="1" />
<path d="M-26.0,-0.0 L-26.932177445328204,-4.4922507366575655 L-27.97111835338706,-5.913652661732794" fill="yellow" fill-opacity="0.6" stroke="black" stroke-width="1" />
<path d="M-26.0,-0.0 L-26.932177445328204,4.4922507366575655 L-27.97111835338706,5.913652661732794" fill="yellow" fill-opacity="0.6" stroke="black" stroke-width="1" />
<path d="M-26.932177445328204,-4.4922507366575655 L-27.97111835338706,-5.913652661732794 L-28.70023356932422,-19.200644578632975" fill="red" fill-opacity="0.6" stroke="black" stroke-width="1" />
<path d="M-26.932177445328204,4.4922507366575655 L-27.97111835338706,5.913652661732794 L-28.70023356932422,19.200644578632975" fill="blue" fill-opacity="0.6" stroke="black" stroke-width="1" />
<path d="M-27.97111835338706,-5.913652661732794 L-28.70023356932422,-19.200644578632975 L-29.0,-0.0" fill="pink" fill-opacity="0.6" stroke="black" stroke-width="1" />
<path d="M-27.97111835338706,5.913652661732794 L-28.70023356932422,19.200644578632975 L-29.0,-0.0" fill="black" fill-opacity="0.6" stroke="black" stroke-width="1" />
<path d="M-50.0,-20.0 L-40.48471070209348,-22.749394769355668 L-45.79304601208686,-23.51861260296688" fill="green" fill-opacity="0.6" stroke="black" stroke-width="1" />
<path d="M-50.0,20.0 L-40.48471070209348,22.749394769355668 L-45.79304601208686,23.51861260296688" fill="brown" fill-opacity="0.6" stroke="black" stroke-width="1" />
<path d="M-40.48471070209348,-22.749394769355668 L-45.79304601208686,-23.51861260296688 L-50.0,-28.0" fill="pink" fill-opacity="0.6" stroke="black" stroke-width="1" />
<path d="M-40.48471070209348,22.749394769355668 L-45.79304601208686,23.51861260296688 L-50.0,28.0" fill="brown" fill-opacity="0.6" stroke="black" stroke-width="1" />
<path d="M-50.0,-28.0 L-49.830088638525794,-32.22266591274236 L-50.0,-39.0" fill="purple" fill-opacity="0.6" stroke="black" stroke-width="1" />
<path d="M-50.0,28.0 L-49.830088638525794,32.22266591274236 L-50.0,39.0" fill="blue" fill-opacity="0.6" stroke="black" stroke-width="1" />
<path d="M-50.0,50.0 L-47.0,53.0 L-43.0,57.0" fill="green" fill-opacity="0.6" stroke="black" stroke-width="1" />
<path d="M-50.0,-50.0 L-47.0,-53.0 L-43.0,-57.0" fill="black" fill-opacity="0.6" stroke="black" stroke-width="1" />
<path d="M-47.0,53.0 L-43.0,57.0 L-37.0,63.0" fill="yellow" fill-opacity="0.6" stroke="black" stroke-width="1" />
<path d="M-47.0,-53.0 L-43.0,-57.0 L-37.0,-63.0" fill="blue" fill-opacity="0.6" stroke="black" stroke-width="1" />
<path d="M-43.0,57.0 L-37.0,63.0 L-36.0,64.0" fill="red" fill-opacity="0.6" stroke="black" stroke-width="1" />
<path d="M-43.0,-57.0 L-37.0,-63.0 L-36.0,-64.0" fill="orange" fill-opacity="0.6" stroke="black" stroke-width="1" />
<path d="M-37.0,63.0 L-36.0,64.0 L-34.0,66.0" fill="black" fill-opacity="0.6" stroke="black" stroke-width="1" />
<path d="M-37.0,-63.0 L-36.0,-64.0 L-34.0,-66.0" fill="red" fill-opacity="0.6" stroke="black" stroke-width="1" />
<path d="M-36.0,64.0 L-34.0,66.0 L-22.3194377631553,70.28674799014075" fill="blue" fill-opacity="0.6" stroke="black" stroke-width="1" />
<path d="M-36.0,-64.0 L-34.0,-66.0 L-22.3194377631553,-70.28674799014075" fill="brown" fill-opacity="0.6" stroke="black" stroke-width="1" />
<path d="M-34.0,-34.0 L-29.713252009859254,-22.3194377631553 L-22.0,-22.0" fill="black" fill-opacity="0.6" stroke="black" stroke-width="1" />
<path d="M-34.0,34.0 L-29.713252009859254,22.3194377631553 L-22.0,22.0" fill="blue" fill-opacity="0.6" stroke="black" stroke-width="1" />
<path d="M-19.0,-19.0 L-9.555963226096743,-3.496373809299752 L-1.897166043533094,-1.4816300948908445" fill="blue" fill-opacity="0.6" stroke="black" stroke-width="1" />
<path d="M-19.0,19.0 L-9.555963226096743,3.496373809299752 L-1.897166043533094,1.4816300948908445" fill="green" fill-opacity="0.6" stroke="black" stroke-width="1" />
<path d="M-9.555963226096743,-3.496373809299752 L-1.897166043533094,-1.4816300948908445 L0.0,-0.0" fill="green" fill-opacity="0.6" stroke="black" stroke-width="1" />
<path d="M-9.555963226096743,3.496373809299752 L-1.897166043533094,1.4816300948908445 L0.0,-0.0" fill="brown" fill-opacity="0.6" stroke="black" stroke-width="1" />
<path d="M78.0,22.0 L81.0,19.0 L90.44403677390326,3.496373809299752" fill="blue" fill-opacity="0.6" stroke="black" stroke-width="1" />
<path d="M78.0,-22.0 L81.0,-19.0 L90.44403677390326,-3.496373809299752" fill="yellow" fill-opacity="0.6" stroke="black" stroke-width="1" />
<path d="M81.0,-0.0 L77.46334703809619,4.257957496000017 L74.0,-0.0" fill="blue" fill-opacity="0.6" stroke="black" stroke-width="1" />
<path d="M81.0,-0.0 L77.46334703809619,-4.257957496000017 L74.0,-0.0" fill="blue" fill-opacity="0.6" stroke="black" stroke-width="1" />
<path d="M74.0,-0.0 L73.06782255467179,4.4922507366575655 L72.02888164661294,5.913652661732794" fill="orange" fill-opacity="0.6" stroke="black" stroke-width="1" />
<path d="M74.0,-0.0 L73.06782255467179,-4.4922507366575655 L72.02888164661294,-5.913652661732794" fill="pink" fill-opacity="0.6" stroke="black" stroke-width="1" />
<path d="M73.06782255467179,4.4922507366575655 L72.02888164661294,5.913652661732794 L71.29976643067579,19.200644578632975" fill="brown" fill-opacity="0.6" stroke="black" stroke-width="1" />
<path d="M73.06782255467179,-4.4922507366575655 L72.02888164661294,-5.913652661732794 L71.29976643067579,-19.200644578632975" fill="purple" fill-opacity="0.6" stroke="black" stroke-width="1" />
<path d="M72.02888164661294,5.913652661732794 L71.29976643067579,19.200644578632975 L71.0,-0.0" fill="orange" fill-opacity="0.6" stroke="black" stroke-width="1" />
<path d="M72.02888164661294,-5.913652661732794 L71.29976643067579,-19.200644578632975 L71.0,-0.0" fill="black" fill-opacity="0.6" stroke="black" stroke-width="1" />
<path d="M50.0,20.0 L59.51528929790652,22.749394769355668 L54.20695398791314,23.51861260296688" fill="red" fill-opacity="0.6" stroke="black" stroke-width="1" />
<path d="M50.0,-20.0 L59.51528929790652,-22.749394769355668 L54.20695398791314,-23.51861260296688" fill="orange" fill-opacity="0.6" stroke="black" stroke-width="1" />
<path d="M59.51528929790652,22.749394769355668 L54.20695398791314,23.51861260296688 L50.0,28.0" fill="red" fill-opacity="0.6" stroke="black" stroke-width="1" />
<path d="M59.51528929790652,-22.749394769355668 L54.20695398791314,-23.51861260296688 L50.0,-28.0" fill="green" fill-opacity="0.6" stroke="black" stroke-width="1" />
<path d="M50.0,28.0 L50.169911361474206,32.22266591274236 L50.0,39.0" fill="black" fill-opacity="0.6" stroke="black" stroke-width="1" />
<path d="M50.0,-28.0 L50.169911361474206,-32.22266591274236 L50.0,-39.0" fill="blue" fill-opacity="0.6" stroke="black" stroke-width="1" />
<path d="M50.0,50.0 L53.0,47.0 L57.0,43.0" fill="blue" fill-opacity="0.6" stroke="black" stroke-width="1" />
<path d="M50.0,-50.0 L53.0,-47.0 L57.0,-43.0" fill="orange" fill-opacity="0.6" stroke="black" stroke-width="1" />
<path d="M53.0,47.0 L57.0,43.0 L63.0,37.0" fill="black" fill-opacity="0.6" stroke="black" stroke-width="1" />
<path d="M53.0,-47.0 L57.0,-43.0 L63.0,-37.0" fill="black" fill-opacity="0.6" stroke="black" stroke-width="1" />
<path d="M57.0,43.0 L63.0,37.0 L64.0,36.0" fill="red" fill-opacity="0.6" stroke="black" stroke-width="1" />
<path d="M57.0,-43.0 L63.0,-37.0 L64.0,-36.0" fill="yellow" fill-opacity="0.6" stroke="black" stroke-width="1" />
<path d="M63.0,37.0 L64.0,36.0 L66.0,34.0" fill="purple" fill-opacity="0.6" stroke="black" stroke-width="1" />
<path d="M63.0,-37.0 L64.0,-36.0 L66.0,-34.0" fill="pink" fill-opacity="0.6" stroke="black" stroke-width="1" />
<path d="M64.0,36.0 L66.0,34.0 L70.28674799014075,22.3194377631553" fill="green" fill-opacity="0.6" stroke="black" stroke-width="1" />
<path d="M64.0,-36.0 L66.0,-34.0 L70.28674799014075,-22.3194377631553" fill="orange" fill-opacity="0.6" stroke="black" stroke-width="1" />
<path d="M66.0,34.0 L70.28674799014075,22.3194377631553 L78.0,22.0" fill="black" fill-opacity="0.6" stroke="black" stroke-width="1" />
<path d="M66.0,-34.0 L70.28674799014075,-22.3194377631553 L78.0,-22.0" fill="red" fill-opacity="0.6" stroke="black" stroke-width="1" />
<path d="M81.0,19.0 L90.44403677390326,3.496373809299752 L98.10283395646691,1.4816300948908445" fill="pink" fill-opacity="0.6" stroke="black" stroke-width="1" />
<path d="M81.0,-19.0 L90.44403677390326,-3.496373809299752 L98.10283395646691,-1.4816300948908445" fill="blue" fill-opacity="0.6" stroke="black" stroke-width="1" />
<path d="M90.44403677390326,3.496373809299752 L98.10283395646691,1.4816300948908445 L100.0,-0.0" fill="red" fill-opacity="0.6" stroke="black" stroke-width="1" />
<path d="M90.44403677390326,-3.496373809299752 L98.10283395646691,-1.4816300948908445 L100.0,-0.0" fill="purple" fill-opacity="0.6" stroke="black" stroke-width="1" />
<path d="M0.0,-19.0 L4.257957496000017,-22.53665296190381 L0.0,-26.0" fill="brown" fill-opacity="0.6" stroke="black" stroke-width="1" />
<path d="M0.0,19.0 L4.257957496000017,22.53665296190381 L0.0,26.0" fill="red" fill-opacity="0.6" stroke="black" stroke-width="1" />
<path d="M0.0,81.0 L4.257957496000017,77.46334703809619 L0.0,74.0" fill="purple" fill-opacity="0.6" stroke="black" stroke-width="1" />
<path d="M0.0,-81.0 L4.257957496000017,-77.46334703809619 L0.0,-74.0" fill="black" fill-opacity="0.6" stroke="black" stroke-width="1" />
<path d="M0.0,-26.0 L4.4922507366575655,-26.932177445328204 L5.913652661732794,-27.97111835338706" fill="purple" fill-opacity="0.6" stroke="black" stroke-width="1" />
<path d="M0.0,26.0 L4.4922507366575655,26.932177445328204 L5.913652661732794,27.97111835338706" fill="brown" fill-opacity="0.6" stroke="black" stroke-width="1" />
<path d="M0.0,74.0 L4.4922507366575655,73.06782255467179 L5.913652661732794,72.02888164661294" fill="brown" fill-opacity="0.6" stroke="black" stroke-width="1" />
<path d="M0.0,-74.0 L4.4922507366575655,-73.06782255467179 L5.913652661732794,-72.02888164661294" fill="pink" fill-opacity="0.6" stroke="black" stroke-width="1" />
<path d="M4.4922507366575655,-26.932177445328204 L5.913652661732794,-27.97111835338706 L19.200644578632975,-28.70023356932422" fill="pink" fill-opacity="0.6" stroke="black" stroke-width="1" />
<path d="M4.4922507366575655,26.932177445328204 L5.913652661732794,27.97111835338706 L19.200644578632975,28.70023356932422" fill="pink" fill-opacity="0.6" stroke="black" stroke-width="1" />
<path d="M4.4922507366575655,73.06782255467179 L5.913652661732794,72.02888164661294 L19.200644578632975,71.29976643067579" fill="orange" fill-opacity="0.6" stroke="black" stroke-width="1" />
<path d="M4.4922507366575655,-73.06782255467179 L5.913652661732794,-72.02888164661294 L19.200644578632975,-71.29976643067579" fill="blue" fill-opacity="0.6" stroke="black" stroke-width="1" />
<path d="M5.913652661732794,-27.97111835338706 L19.200644578632975,-28.70023356932422 L0.0,-29.0" fill="yellow" fill-opacity="0.6" stroke="black" stroke-width="1" />
<path d="M5.913652661732794,27.97111835338706 L19.200644578632975,28.70023356932422 L0.0,29.0" fill="black" fill-opacity="0.6" stroke="black" stroke-width="1" />
<path d="M5.913652661732794,72.02888164661294 L19.200644578632975,71.29976643067579 L0.0,71.0" fill="yellow" fill-opacity="0.6" stroke="black" stroke-width="1" />
<path d="M5.913652661732794,-72.02888164661294 L19.200644578632975,-71.29976643067579 L0.0,-71.0" fill="blue" fill-opacity="0.6" stroke="black" stroke-width="1" />
<path d="M20.0,-50.0 L22.749394769355668,-40.48471070209348 L23.51861260296688,-45.79304601208686" fill="yellow" fill-opacity="0.6" stroke="black" stroke-width="1" />
<path d="M20.0,50.0 L22.749394769355668,40.48471070209348 L23.51861260296688,45.79304601208686" fill="red" fill-opacity="0.6" stroke="black" stroke-width="1" />
<path d="M20.0,50.0 L22.749394769355668,59.51528929790652 L23.51861260296688,54.20695398791314" fill="purple" fill-opacity="0.6" stroke="black" stroke-width="1" />
<path d="M20.0,-50.0 L22.749394769355668,-59.51528929790652 L23.51861260296688,-54.20695398791314" fill="black" fill-opacity="0.6" stroke="black" stroke-width="1" />
<path d="M22.749394769355668,-40.48471070209348 L23.51861260296688,-45.79304601208686 L28.0,-50.0" fill="yellow" fill-opacity="0.6" stroke="black" stroke-width="1" />
<path d="M22.749394769355668,40.48471070209348 L23.51861260296688,45.79304601208686 L28.0,50.0" fill="brown" fill-opacity="0.6" stroke="black" stroke-width="1" />
<path d="M22.749394769355668,59.51528929790652 L23.51861260296688,54.20695398791314 L28.0,50.0" fill="orange" fill-opacity="0.6" stroke="black" stroke-width="1" />
<path d="M22.749394769355668,-59.51528929790652 L23.51861260296688,-54.20695398791314 L28.0,-50.0" fill="orange" fill-opacity="0.6" stroke="black" stroke-width="1" />
<path d="M28.0,-50.0 L32.22266591274236,-49.830088638525794 L39.0,-50.0" fill="pink" fill-opacity="0.6" stroke="black" stroke-width="1" />
<path d="M28.0,50.0 L32.22266591274236,49.830088638525794 L39.0,50.0" fill="red" fill-opacity="0.6" stroke="black" stroke-width="1" />
<path d="M28.0,50.0 L32.22266591274236,50.169911361474206 L39.0,50.0" fill="red" fill-opacity="0.6" stroke="black" stroke-width="1" />
<path d="M28.0,-50.0 L32.22266591274236,-50.169911361474206 L39.0,-50.0" fill="pink" fill-opacity="0.6" stroke="black" stroke-width="1" />
<path d="M34.0,-34.0 L22.3194377631553,-29.713252009859254 L22.0,-22.0" fill="pink" fill-opacity="0.6" stroke="black" stroke-width="1" />
<path d="M34.0,34.0 L22.3194377631553,29.713252009859254 L22.0,22.0" fill="orange" fill-opacity="0.6" stroke="black" stroke-width="1" />
<path d="M34.0,66.0 L22.3194377631553,70.28674799014075 L22.0,78.0" fill="yellow" fill-opacity="0.6" stroke="black" stroke-width="1" />
<path d="M34.0,-66.0 L22.3194377631553,-70.28674799014075 L22.0,-78.0" fill="yellow" fill-opacity="0.6" stroke="black" stroke-width="1" />
<path d="M19.0,-19.0 L3.496373809299752,-9.555963226096743 L1.4816300948908445,-1.897166043533094" fill="brown" fill-opacity="0.6" stroke="black" stroke-width="1" />
<path d="M19.0,19.0 L3.496373809299752,9.555963226096743 L1.4816300948908445,1.897166043533094" fill="blue" fill-opacity="0.6" stroke="black" stroke-width="1" />
<path d="M19.0,81.0 L3.496373809299752,90.44403677390326 L1.4816300948908445,98.10283395646691" fill="brown" fill-opacity="0.6" stroke="black" stroke-width="1" />
<path d="M19.0,-81.0 L3.496373809299752,-90.44403677390326 L1.4816300948908445,-98.10283395646691" fill="green" fill-opacity="0.6" stroke="black" stroke-width="1" />
<path d="M3.496373809299752,-9.555963226096743 L1.4816300948908445,-1.897166043533094 L0.0,-0.0" fill="brown" fill-opacity="0.6" stroke="black" stroke-width="1" />
<path d="M3.496373809299752,9.555963226096743 L1.4816300948908445,1.897166043533094 L0.0,-0.0" fill="pink" fill-opacity="0.6" stroke="black" stroke-width="1" />
<path d="M3.496373809299752,90.44403677390326 L1.4816300948908445,98.10283395646691 L0.0,100.0" fill="orange" fill-opacity="0.6" stroke="black" stroke-width="1" />
<path d="M3.496373809299752,-90.44403677390326 L1.4816300948908445,-98.10283395646691 L0.0,-100.0" fill="orange" fill-opacity="0.6" stroke="black" stroke-width="1" />
<path d="M0.0,81.0 L-4.257957496000017,77.46334703809619 L0.0,74.0" fill="red" fill-opacity="0.6" stroke="black" stroke-width="1" />
<path d="M0.0,-19.0 L-4.257957496000017,-22.53665296190381 L0.0,-26.0" fill="green" fill-opacity="0.6" stroke="black" stroke-width="1" />
<path d="M0.0,19.0 L-4.257957496000017,22.536652961903812 L0.0,26.0" fill="red" fill-opacity="0.6" stroke="black" stroke-width="1" />
<path d="M0.0,-81.0 L-4.257957496000017,-77.46334703809619 L0.0,-74.0" fill="blue" fill-opacity="0.6" stroke="black" stroke-width="1" />
<path d="M0.0,74.0 L-4.4922507366575655,73.06782255467179 L-5.913652661732794,72.02888164661294" fill="yellow" fill-opacity="0.6" stroke="black" stroke-width="1" />
<path d="M0.0,-26.0 L-4.4922507366575655,-26.932177445328204 L-5.913652661732794,-27.97111835338706" fill="purple" fill-opacity="0.6" stroke="black" stroke-width="1" />
<path d="M0.0,26.0 L-4.4922507366575655,26.932177445328207 L-5.913652661732794,27.971118353387055" fill="green" fill-opacity="0.6" stroke="black" stroke-width="1" />
<path d="M0.0,-74.0 L-4.4922507366575655,-73.06782255467179 L-5.913652661732794,-72.02888164661294" fill="orange" fill-opacity="0.6" stroke="black" stroke-width="1" />
<path d="M-4.4922507366575655,73.06782255467179 L-5.913652661732794,72.02888164661294 L-19.200644578632975,71.29976643067579" fill="pink" fill-opacity="0.6" stroke="black" stroke-width="1" />
<path d="M-4.4922507366575655,-26.932177445328204 L-5.913652661732794,-27.97111835338706 L-19.200644578632975,-28.70023356932422" fill="green" fill-opacity="0.6" stroke="black" stroke-width="1" />
<path d="M-4.4922507366575655,26.932177445328207 L-5.913652661732794,27.971118353387055 L-19.200644578632975,28.70023356932421" fill="black" fill-opacity="0.6" stroke="black" stroke-width="1" />
<path d="M-4.4922507366575655,-73.06782255467179 L-5.913652661732794,-72.02888164661294 L-19.200644578632975,-71.29976643067579" fill="pink" fill-opacity="0.6" stroke="black" stroke-width="1" />
<path d="M-5.913652661732794,72.02888164661294 L-19.200644578632975,71.29976643067579 L0.0,71.0" fill="brown" fill-opacity="0.6" stroke="black" stroke-width="1" />
<path d="M-5.913652661732794,-27.97111835338706 L-19.200644578632975,-28.70023356932422 L0.0,-29.0" fill="red" fill-opacity="0.6" stroke="black" stroke-width="1" />
<path d="M-5.913652661732794,27.971118353387055 L-19.200644578632975,28.70023356932421 L0.0,29.0" fill="yellow" fill-opacity="0.6" stroke="black" stroke-width="1" />
<path d="M-5.913652661732794,-72.02888164661294 L-19.200644578632975,-71.29976643067579 L0.0,-71.0" fill="orange" fill-opacity="0.6" stroke="black" stroke-width="1" />
<path d="M-20.0,50.0 L-22.749394769355668,59.51528929790652 L-23.51861260296688,54.20695398791314" fill="blue" fill-opacity="0.6" stroke="black" stroke-width="1" />
<path d="M-20.0,-50.0 L-22.749394769355668,-40.48471070209348 L-23.51861260296688,-45.79304601208686" fill="blue" fill-opacity="0.6" stroke="black" stroke-width="1" />
<path d="M-20.0,50.0 L-22.749394769355668,40.48471070209348 L-23.51861260296688,45.79304601208686" fill="orange" fill-opacity="0.6" stroke="black" stroke-width="1" />
<path d="M-20.0,-50.0 L-22.749394769355668,-59.51528929790652 L-23.51861260296688,-54.20695398791314" fill="black" fill-opacity="0.6" stroke="black" stroke-width="1" />
<path d="M-22.749394769355668,59.51528929790652 L-23.51861260296688,54.20695398791314 L-28.0,50.0" fill="yellow" fill-opacity="0.6" stroke="black" stroke-width="1" />
<path d="M-22.749394769355668,-40.48471070209348 L-23.51861260296688,-45.79304601208686 L-28.0,-50.0" fill="blue" fill-opacity="0.6" stroke="black" stroke-width="1" />
<path d="M-22.749394769355668,40.48471070209348 L-23.51861260296688,45.79304601208686 L-28.0,50.0" fill="yellow" fill-opacity="0.6" stroke="black" stroke-width="1" />
<path d="M-22.749394769355668,-59.51528929790652 L-23.51861260296688,-54.20695398791314 L-28.0,-50.0" fill="yellow" fill-opacity="0.6" stroke="black" stroke-width="1" />
<path d="M-28.0,50.0 L-32.22266591274236,50.169911361474206 L-39.0,50.0" fill="orange" fill-opacity="0.6" stroke="black" stroke-width="1" />
<path d="M-28.0,-50.0 L-32.22266591274236,-49.830088638525794 L-39.0,-50.0" fill="green" fill-opacity="0.6" stroke="black" stroke-width="1" />
<path d="M-28.0,50.0 L-32.22266591274236,49.830088638525794 L-39.0,50.0" fill="purple" fill-opacity="0.6" stroke="black" stroke-width="1" />
<path d="M-28.0,-50.0 L-32.22266591274236,-50.169911361474206 L-39.0,-50.0" fill="red" fill-opacity="0.6" stroke="black" stroke-width="1" />
<path d="M-34.0,66.0 L-22.3194377631553,70.28674799014075 L-22.0,78.0" fill="yellow" fill-opacity="0.6" stroke="black" stroke-width="1" />
<path d="M-34.0,-34.0 L-22.3194377631553,-29.713252009859254 L-22.0,-22.0" fill="orange" fill-opacity="0.6" stroke="black" stroke-width="1" />
<path d="M-34.0,34.0 L-22.3194377631553,29.713252009859247 L-22.0,22.0" fill="black" fill-opacity="0.6" stroke="black" stroke-width="1" />
<path d="M-34.0,-66.0 L-22.3194377631553,-70.28674799014075 L-22.0,-78.0" fill="green" fill-opacity="0.6" stroke="black" stroke-width="1" />
<path d="M-19.0,81.0 L-3.496373809299752,90.44403677390326 L-1.4816300948908445,98.10283395646691" fill="purple" fill-opacity="0.6" stroke="black" stroke-width="1" />
<path d="M-19.0,-19.0 L-3.496373809299752,-9.555963226096743 L-1.4816300948908445,-1.897166043533094" fill="red" fill-opacity="0.6" stroke="black" stroke-width="1" />
<path d="M-19.0,19.0 L-3.496373809299752,9.555963226096736 L-1.4816300948908445,1.8971660435330904" fill="red" fill-opacity="0.6" stroke="black" stroke-width="1" />
<path d="M-19.0,-81.0 L-3.496373809299752,-90.44403677390326 L-1.4816300948908445,-98.10283395646691" fill="blue" fill-opacity="0.6" stroke="black" stroke-width="1" />
<path d="M-3.496373809299752,90.44403677390326 L-1.4816300948908445,98.10283395646691 L0.0,100.0" fill="blue" fill-opacity="0.6" stroke="black" stroke-width="1" />
<path d="M-3.496373809299752,-9.555963226096743 L-1.4816300948908445,-1.897166043533094 L0.0,-0.0" fill="yellow" fill-opacity="0.6" stroke="black" stroke-width="1" />
<path d="M-3.496373809299752,9.555963226096736 L-1.4816300948908445,1.8971660435330904 L0.0,-0.0" fill="orange" fill-opacity="0.6" stroke="black" stroke-width="1" />
<path d="M-3.496373809299752,-90.44403677390326 L-1.4816300948908445,-98.10283395646691 L0.0,-100.0" fill="green" fill-opacity="0.6" stroke="black" stroke-width="1" />
<path d="M-78.0,-22.0 L-81.0,-19.0 L-90.44403677390326,-3.496373809299752" fill="orange" fill-opacity="0.6" stroke="black" stroke-width="1" />
<path d="M-78.0,22.0 L-81.0,19.0 L-90.44403677390326,3.496373809299752" fill="orange" fill-opacity="0.6" stroke="black" stroke-width="1" />
<path d="M-81.0,-0.0 L-77.46334703809619,-4.257957496000017 L-74.0,-0.0" fill="purple" fill-opacity="0.6" stroke="black" stroke-width="1" />
<path d="M-81.0,-0.0 L-77.46334703809619,4.257957496000017 L-74.0,-0.0" fill="green" fill-opacity="0.6" stroke="black" stroke-width="1" />
<path d="M-74.0,-0.0 L-73.06782255467179,-4.4922507366575655 L-72.02888164661294,-5.913652661732794" fill="blue" fill-opacity="0.6" stroke="black" stroke-width="1" />
<path d="M-74.0,-0.0 L-73.06782255467179,4.4922507366575655 L-72.02888164661294,5.913652661732794" fill="orange" fill-opacity="0.6" stroke="black" stroke-width="1" />
<path d="M-73.06782255467179,-4.4922507366575655 L-72.02888164661294,-5.913652661732794 L-71.29976643067579,-19.200644578632975" fill="green" fill-opacity="0.6" stroke="black" stroke-width="1" />
<path d="M-73.06782255467179,4.4922507366575655 L-72.02888164661294,5.913652661732794 L-71.29976643067579,19.200644578632975" fill="orange" fill-opacity="0.6" stroke="black" stroke-width="1" />
<path d="M-72.02888164661294,-5.913652661732794 L-71.29976643067579,-19.200644578632975 L-71.0,-0.0" fill="orange" fill-opacity="0.6" stroke="black" stroke-width="1" />
<path d="M-72.02888164661294,5.913652661732794 L-71.29976643067579,19.200644578632975 L-71.0,-0.0" fill="black" fill-opacity="0.6" stroke="black" stroke-width="1" />
<path d="M-50.0,-20.0 L-59.51528929790652,-22.749394769355668 L-54.20695398791314,-23.51861260296688" fill="black" fill-opacity="0.6" stroke="black" stroke-width="1" />
<path d="M-50.0,20.0 L-59.51528929790652,22.749394769355668 L-54.20695398791314,23.51861260296688" fill="green" fill-opacity="0.6" stroke="black" stroke-width="1" />
<path d="M-59.51528929790652,-22.749394769355668 L-54.20695398791314,-23.51861260296688 L-50.0,-28.0" fill="pink" fill-opacity="0.6" stroke="black" stroke-width="1" />
<path d="M-59.51528929790652,22.749394769355668 L-54.20695398791314,23.51861260296688 L-50.0,28.0" fill="black" fill-opacity="0.6" stroke="black" stroke-width="1" />
<path d="M-50.0,-28.0 L-50.169911361474206,-32.22266591274236 L-50.0,-39.0" fill="red" fill-opacity="0.6" stroke="black" stroke-width="1" />
<path d="M-50.0,28.0 L-50.169911361474206,32.22266591274236 L-50.0,39.0" fill="purple" fill-opacity="0.6" stroke="black" stroke-width="1" />
<path d="M-50.0,-50.0 L-53.0,-47.0 L-57.0,-43.0" fill="yellow" fill-opacity="0.6" stroke="black" stroke-width="1" />
<path d="M-50.0,50.0 L-53.0,47.0 L-57.0,43.0" fill="red" fill-opacity="0.6" stroke="black" stroke-width="1" />
<path d="M-53.0,-47.0 L-57.0,-43.0 L-63.0,-37.0" fill="purple" fill-opacity="0.6" stroke="black" stroke-width="1" />
<path d="M-53.0,47.0 L-57.0,43.0 L-63.0,37.0" fill="blue" fill-opacity="0.6" stroke="black" stroke-width="1" />
<path d="M-57.0,-43.0 L-63.0,-37.0 L-64.0,-36.0" fill="yellow" fill-opacity="0.6" stroke="black" stroke-width="1" />
<path d="M-57.0,43.0 L-63.0,37.0 L-64.0,36.0" fill="orange" fill-opacity="0.6" stroke="black" stroke-width="1" />
<path d="M-63.0,-37.0 L-64.0,-36.0 L-66.0,-34.0" fill="yellow" fill-opacity="0.6" stroke="black" stroke-width="1" />
<path d="M-63.0,37.0 L-64.0,36.0 L-66.0,34.0" fill="black" fill-opacity="0.6" stroke="black" stroke-width="1" />
<path d="M-64.0,-36.0 L-66.0,-34.0 L-70.28674799014075,-22.3194377631553" fill="red" fill-opacity="0.6" stroke="black" stroke-width="1" />
<path d="M-64.0,36.0 L-66.0,34.0 L-70.28674799014075,22.3194377631553" fill="red" fill-opacity="0.6" stroke="black" stroke-width="1" />
<path d="M-66.0,-34.0 L-70.28674799014075,-22.3194377631553 L-78.0,-22.0" fill="pink" fill-opacity="0.6" stroke="black" stroke-width="1" />
<path d="M-66.0,34.0 L-70.28674799014075,22.3194377631553 L-78.0,22.0" fill="pink" fill-opacity="0.6" stroke="black" stroke-width="1" />
<path d="M-81.0,-19.0 L-90.44403677390326,-3.496373809299752 L-98.10283395646691,-1.4816300948908445" fill="green" fill-opacity="0.6" stroke="black" stroke-width="1" />
<path d="M-81.0,19.0 L-90.44403677390326,3.496373809299752 L-98.10283395646691,1.4816300948908445" fill="pink" fill-opacity="0.6" stroke="black" stroke-width="1" />
<path d="M-90.44403677390326,-3.496373809299752 L-98.10283395646691,-1.4816300948908445 L-100.0,-0.0" fill="blue" fill-opacity="0.6" stroke="black" stroke-width="1" />
<path d="M-90.44403677390326,3.496373809299752 L-98.10283395646691,1.4816300948908445 L-100.0,-0.0" fill="pink" fill-opacity="0.6" stroke="black" stroke-width="1" />
</svg>