<?xml version="1.0" encoding="UTF-8"?>
<svg xmlns="http://www.w3.org/2000/svg" xmlns:xlink="http://www.w3.org/1999/xlink"
     width="250" height="250" viewBox="-125.0 -125.0 250 250">
<defs>
</defs>
<path d="M21.0,79.0 L11.0,89.0 L3.8713616177181756,92.76686341417557" fill="green" fill-opacity="0.6" stroke="black" stroke-width="1" />
<path d="M21.0,-79.0 L11.0,-89.0 L3.8713616177181756,-92.76686341417557" fill="yellow" fill-opacity="0.6" stroke="black" stroke-width="1" />
<path d="M43.0,50.0 L34.0,66.0 L21.0,79.0" fill="red" fill-opacity="0.6" stroke="black" stroke-width="1" />
<path d="M43.0,-50.0 L34.0,-66.0 L21.0,-79.0" fill="red" fill-opacity="0.6" stroke="black" stroke-width="1" />
<path d="M34.0,66.0 L21.0,79.0 L11.0,89.0" fill="yellow" fill-opacity="0.6" stroke="black" stroke-width="1" />
<path d="M34.0,-66.0 L21.0,-79.0 L11.0,-89.0" fill="pink" fill-opacity="0.6" stroke="black" stroke-width="1" />
<path d="M11.0,-11.0 L7.233136585824429,-3.8713616177181756 L4.29498512007277,-2.393959885707967" fill="red" fill-opacity="0.6" stroke="black" stroke-width="1" />
<path d="M11.0,11.0 L7.233136585824429,3.8713616177181756 L4.29498512007277,2.393959885707967" fill="purple" fill-opacity="0.6" stroke="black" stroke-width="1" />
<path d="M7.233136585824429,-3.8713616177181756 L4.29498512007277,-2.393959885707967 L2.440525405044902,-1.524229256987917" fill="red" fill-opacity="0.6" stroke="black" stroke-width="1" />
<path d="M7.233136585824429,3.8713616177181756 L4.29498512007277,2.393959885707967 L2.440525405044902,1.524229256987917" fill="red" fill-opacity="0.6" stroke="black" stroke-width="1" />
<path d="M4.29498512007277,-2.393959885707967 L2.440525405044902,-1.524229256987917 L2.0,-2.0" fill="purple" fill-opacity="0.6" stroke="black" stroke-width="1" />
<path d="M4.29498512007277,2.393959885707967 L2.440525405044902,1.524229256987917 L2.0,2.0" fill="brown" fill-opacity="0.6" stroke="black" stroke-width="1" />
<path d="M1.524229256987917,97.5594745949551 L2.0,98.0 L0.0,100.0" fill="purple" fill-opacity="0.6" stroke="black" stroke-width="1" />
<path d="M1.524229256987917,-97.5594745949551 L2.0,-98.0 L0.0,-100.0" fill="green" fill-opacity="0.6" stroke="black" stroke-width="1" />
<path d="M-21.0,79.0 L-11.0,89.0 L-3.8713616177181756,92.76686341417557" fill="purple" fill-opacity="0.6" stroke="black" stroke-width="1" />
<path d="M-21.0,-79.0 L-11.0,-89.0 L-3.8713616177181756,-92.76686341417557" fill="green" fill-opacity="0.6" stroke="black" stroke-width="1" />
<path d="M-43.0,50.0 L-34.0,66.0 L-21.0,79.0" fill="black" fill-opacity="0.6" stroke="black" stroke-width="1" />
<path d="M-43.0,-50.0 L-34.0,-66.0 L-21.0,-79.0" fill="brown" fill-opacity="0.6" stroke="black" stroke-width="1" />
<path d="M-34.0,66.0 L-21.0,79.0 L-11.0,89.0" fill="black" fill-opacity="0.6" stroke="black" stroke-width="1" />
<path d="M-34.0,-66.0 L-21.0,-79.0 L-11.0,-89.0" fill="purple" fill-opacity="0.6" stroke="black" stroke-width="1" />
<path d="M-11.0,-11.0 L-7.233136585824429,-3.8713616177181756 L-4.29498512007277,-2.393959885707967" fill="pink" fill-opacity="0.6" stroke="black" stroke-width="1" />
<path d="M-11.0,11.0 L-7.233136585824429,3.8713616177181756 L-4.29498512007277,2.393959885707967" fill="black" fill-opacity="0.6" stroke="black" stroke-width="1" />
<path d="M-7.233136585824429,-3.8713616177181756 L-4.29498512007277,-2.393959885707967 L-2.440525405044902,-1.524229256987917" fill="orange" fill-opacity="0.6" stroke="black" stroke-width="1" />
<path d="M-7.233136585824429,3.8713616177181756 L-4.29498512007277,2.393959885707967 L-2.440525405044902,1.524229256987917" fill="green" fill-opacity="0.6" stroke="black" stroke-width="1" />
<path d="M-4.29498512007277,-2.393959885707967 L-2.440525405044902,-1.524229256987917 L-2.0,-2.0" fill="pink" fill-opacity="0.6" stroke="black" stroke-width="1" />
<path d="M-4.29498512007277,2.393959885707967 L-2.440525405044902,1.524229256987917 L-2.0,2.0" fill="yellow" fill-opacity="0.6" stroke="black" stroke-width="1" />
<path d="M-1.524229256987917,97.55947459495509 L-2.0,98.0 L0.0,100.0" fill="pink" fill-opacity="0.6" stroke="black" stroke-width="1" />
<path d="M-1.524229256987917,-97.5594745949551 L-2.0,-98.0 L0.0,-100.0" fill="blue" fill-opacity="0.6" stroke="black" stroke-width="1" />
<path d="M79.0,21.0 L89.0,11.0 L92.76686341417557,3.8713616177181756" fill="purple" fill-opacity="0.6" stroke="black" stroke-width="1" />
<path d="M79.0,-21.0 L89.0,-11.0 L92.76686341417557,-3.8713616177181756" fill="purple" fill-opacity="0.6" stroke="black" stroke-width="1" />
<path d="M50.0,43.0 L66.0,34.0 L79.0,21.0" fill="pink" fill-opacity="0.6" stroke="black" stroke-width="1" />
<path d="M50.0,-43.0 L66.0,-34.0 L79.0,-21.0" fill="orange" fill-opacity="0.6" stroke="black" stroke-width="1" />
<path d="M66.0,34.0 L79.0,21.0 L89.0,11.0" fill="red" fill-opacity="0.6" stroke="black" stroke-width="1" />
<path d="M66.0,-34.0 L79.0,-21.0 L89.0,-11.0" fill="blue" fill-opacity="0.6" stroke="black" stroke-width="1" />
<path d="M89.0,11.0 L92.76686341417557,3.8713616177181756 L95.70501487992723,2.393959885707967" fill="green" fill-opacity="0.6" stroke="black" stroke-width="1" />
<path d="M89.0,-11.0 L92.76686341417557,-3.8713616177181756 L95.70501487992723,-2.393959885707967" fill="orange" fill-opacity="0.6" stroke="black" stroke-width="1" />
<path d="M92.76686341417557,3.8713616177181756 L95.70501487992723,2.393959885707967 L97.5594745949551,1.524229256987917" fill="black" fill-opacity="0.6" stroke="black" stroke-width="1" />
<path d="M92.76686341417557,-3.8713616177181756 L95.70501487992723,-2.393959885707967 L97.5594745949551,-1.524229256987917" fill="black" fill-opacity="0.6" stroke="black" stroke-width="1" />
<path d="M95.70501487992723,2.393959885707967 L97.5594745949551,1.524229256987917 L98.0,2.0" fill="blue" fill-opacity="0.6" stroke="black" stroke-width="1" />
<path d="M95.70501487992723,-2.393959885707967 L97.5594745949551,-1.524229256987917 L98.0,-2.0" fill="orange" fill-opacity="0.6" stroke="black" stroke-width="1" />
<path d="M97.5594745949551,1.524229256987917 L98.0,2.0 L100.0,-0.0" fill="yellow" fill-opacity="0.6" stroke="black" stroke-width="1" />
<path d="M97.5594745949551,-1.524229256987917 L98.0,-2.0 L100.0,-0.0" fill="blue" fill-opacity="0.6" stroke="black" stroke-width="1" />
<path d="M11.0,-11.0 L3.8713616177181756,-7.233136585824429 L2.393959885707967,-4.29498512007277" fill="pink" fill-opacity="0.6" stroke="black" stroke-width="1" />
<path d="M11.0,11.0 L3.8713616177181756,7.233136585824429 L2.393959885707967,4.29498512007277" fill="pink" fill-opacity="0.6" stroke="black" stroke-width="1" />
<path d="M11.0,89.0 L3.8713616177181756,92.76686341417557 L2.393959885707967,95.70501487992723" fill="purple" fill-opacity="0.6" stroke="black" stroke-width="1" />
<path d="M11.0,-89.0 L3.8713616177181756,-92.76686341417557 L2.393959885707967,-95.70501487992723" fill="black" fill-opacity="0.6" stroke="black" stroke-width="1" />
<path d="M3.8713616177181756,-7.233136585824429 L2.393959885707967,-4.29498512007277 L1.524229256987917,-2.440525405044902" fill="blue" fill-opacity="0.6" stroke="black" stroke-width="1" />
<path d="M3.8713616177181756,7.233136585824429 L2.393959885707967,4.29498512007277 L1.524229256987917,2.440525405044902" fill="black" fill-opacity="0.6" stroke="black" stroke-width="1" />
<path d="M3.8713616177181756,92.76686341417557 L2.393959885707967,95.70501487992723 L1.524229256987917,97.5594745949551" fill="orange" fill-opacity="0.6" stroke="black" stroke-width="1" />
<path d="M3.8713616177181756,-92.76686341417557 L2.393959885707967,-95.70501487992723 L1.524229256987917,-97.5594745949551" fill="yellow" fill-opacity="0.6" stroke="black" stroke-width="1" />
<path d="M2.393959885707967,-4.29498512007277 L1.524229256987917,-2.440525405044902 L2.0,-2.0" fill="orange" fill-opacity="0.6" stroke="black" stroke-width="1" />
<path d="M2.393959885707967,4.29498512007277 L1.524229256987917,2.440525405044902 L2.0,2.0" fill="pink" fill-opacity="0.6" stroke="black" stroke-width="1" />
<path d="M2.393959885707967,95.70501487992723 L1.524229256987917,97.5594745949551 L2.0,98.0" fill="yellow" fill-opacity="0.6" stroke="black" stroke-width="1" />
<path d="M2.393959885707967,-95.70501487992723 L1.524229256987917,-97.5594745949551 L2.0,-98.0" fill="yellow" fill-opacity="0.6" stroke="black" stroke-width="1" />
<path d="M-11.0,89.0 L-3.8713616177181756,92.76686341417557 L-2.393959885707967,95.70501487992723" fill="red" fill-opacity="0.6" stroke="black" stroke-width="1" />
<path d="M-11.0,-11.0 L-3.8713616177181756,-7.233136585824429 L-2.393959885707967,-4.29498512007277" fill="red" fill-opacity="0.6" stroke="black" stroke-width="1" />
<path d="M-11.0,11.0 L-3.8713616177181756,7.233136585824425 L-2.393959885707967,4.2949851200727664" fill="blue" fill-opacity="0.6" stroke="black" stroke-width="1" />
<path d="M-11.0,-89.0 L-3.8713616177181756,-92.76686341417557 L-2.393959885707967,-95.70501487992723" fill="red" fill-opacity="0.6" stroke="black" stroke-width="1" />
<path d="M-3.8713616177181756,92.76686341417557 L-2.393959885707967,95.70501487992723 L-1.524229256987917,97.55947459495509" fill="purple" fill-opacity="0.6" stroke="black" stroke-width="1" />
<path d="M-3.8713616177181756,-7.233136585824429 L-2.393959885707967,-4.29498512007277 L-1.524229256987917,-2.440525405044902" fill="purple" fill-opacity="0.6" stroke="black" stroke-width="1" />
<path d="M-3.8713616177181756,7.233136585824425 L-2.393959885707967,4.2949851200727664 L-1.524229256987917,2.440525405044909" fill="orange" fill-opacity="0.6" stroke="black" stroke-width="1" />
<path d="M-3.8713616177181756,-92.76686341417557 L-2.393959885707967,-95.70501487992723 L-1.524229256987917,-97.5594745949551" fill="purple" fill-opacity="0.6" stroke="black" stroke-width="1" />
<path d="M-2.393959885707967,95.70501487992723 L-1.524229256987917,97.55947459495509 L-2.0,98.0" fill="green" fill-opacity="0.6" stroke="black" stroke-width="1" />
<path d="M-2.393959885707967,-4.29498512007277 L-1.524229256987917,-2.440525405044902 L-2.0,-2.0" fill="red" fill-opacity="0.6" stroke="black" stroke-width="1" />
<path d="M-2.393959885707967,4.2949851200727664 L-1.524229256987917,2.440525405044909 L-2.0,2.0" fill="brown" fill-opacity="0.6" stroke="black" stroke-width="1" />
<path d="M-2.393959885707967,-95.70501487992723 L-1.524229256987917,-97.5594745949551 L-2.0,-98.0" fill="brown" fill-opacity="0.6" stroke="black" stroke-width="1" />
<path d="M-79.0,-21.0 L-89.0,-11.0 L-92.76686341417557,-3.8713616177181756" fill="brown" fill-opacity="0.6" stroke="black" stroke-width="1" />
<path d="M-79.0,21.0 L-89.0,11.0 L-92.76686341417557,3.8713616177181756" fill="purple" fill-opacity="0.6" stroke="black" stroke-width="1" />
<path d="M-50.0,-43.0 L-66.0,-34.0 L-79.0,-21.0" fill="blue" fill-opacity="0.6" stroke="black" stroke-width="1" />
<path d="M-50.0,43.0 L-66.0,34.0 L-79.0,21.0" fill="green" fill-opacity="0.6" stroke="black" stroke-width="1" />
<path d="M-66.0,-34.0 L-79.0,-21.0 L-89.0,-11.0" fill="orange" fill-opacity="0.6" stroke="black" stroke-width="1" />
<path d="M-66.0,34.0 L-79.0,21.0 L-89.0,11.0" fill="green" fill-opacity="0.6" stroke="black" stroke-width="1" />
<path d="M-89.0,-11.0 L-92.76686341417557,-3.8713616177181756 L-95.70501487992723,-2.393959885707967" fill="green" fill-opacity="0.6" stroke="black" stroke-width="1" />
<path d="M-89.0,11.0 L-92.76686341417557,3.8713616177181756 L-95.70501487992723,2.393959885707967" fill="pink" fill-opacity="0.6" stroke="black" stroke-width="1" />
<path d="M-92.76686341417557,-3.8713616177181756 L-95.70501487992723,-2.393959885707967 L-97.5594745949551,-1.524229256987917" fill="pink" fill-opacity="0.6" stroke="black" stroke-width="1" />
<path d="M-92.76686341417557,3.8713616177181756 L-95.70501487992723,2.393959885707967 L-97.5594745949551,1.524229256987917" fill="green" fill-opacity="0.6" stroke="black" stroke-width="1" />
<path d="M-95.70501487992723,-2.393959885707967 L-97.5594745949551,-1.524229256987917 L-98.0,-2.0" fill="red" fill-opacity="0.6" stroke="black" stroke-width="1" />
<path d="M-95.70501487992723,2.393959885707967 L-97.5594745949551,1.524229256987917 L-98.0,2.0" fill="yellow" fill-opacity="0.6" stroke="black" stroke-width="1" />
<path d="M-97.5594745949551,-1.524229256987917 L-98.0,-2.0 L-100.0,-0.0" fill="yellow" fill-opacity="0.6" stroke="black" stroke-width="1" />
<path d="M-97.5594745949551,1.524229256987917 L-98.0,2.0 L-100.0,-0.0" fill="black" fill-opacity="0.6" stroke="black" stroke-width="1" />
</svg>