<?xml version="1.0" encoding="UTF-8"?>
<svg xmlns="http://www.w3.org/2000/svg" xmlns:xlink="http://www.w3.org/1999/xlink"
     width="250" height="250" viewBox="-125.0 -125.0 250 250">
<defs>
</defs>
<path d="M4.0,-0.0 L11.214895077147547,-1.5812443318949476 L11.544383871514935,-1.7746812307074507" fill-opacity="0" stroke="black" stroke-width="1" />
<path d="M4.0,-0.0 L11.214895077147547,1.5812443318949476 L11.544383871514935,1.7746812307074507" fill-opacity="0" stroke="black" stroke-width="1" />
<path d="M11.214895077147547,-1.5812443318949476 L11.544383871514935,-1.7746812307074507 L13.0,-0.0" fill-opacity="0" stroke="black" stroke-width="1" />
<path d="M11.214895077147547,1.5812443318949476 L11.544383871514935,1.7746812307074507 L13.0,-0.0" fill-opacity="0" stroke="black" stroke-width="1" />
<path d="M10.334188026053557,84.02968145990772 L13.0,87.0 L12.0,88.0" fill-opacity="0" stroke="black" stroke-width="1" />
<path d="M10.334188026053557,-84.02968145990772 L13.0,-87.0 L12.0,-88.0" fill-opacity="0" stroke="black" stroke-width="1" />
<path d="M14.0,-0.0 L14.23766507740109,-2.893210211094574 L15.279642889710903,-3.0564295979183695" fill-opacity="0" stroke="black" stroke-width="1" />
<path d="M14.0,-0.0 L14.23766507740109,2.893210211094574 L15.279642889710903,3.0564295979183695" fill-opacity="0" stroke="black" stroke-width="1" />
<path d="M14.23766507740109,-2.893210211094574 L15.279642889710903,-3.0564295979183695 L15.957419543560363,-3.2975125067153304" fill-opacity="0" stroke="black" stroke-width="1" />
<path d="M14.23766507740109,2.893210211094574 L15.279642889710903,3.0564295979183695 L15.957419543560363,3.2975125067153304" fill-opacity="0" stroke="black" stroke-width="1" />
<path d="M15.279642889710903,-3.0564295979183695 L15.957419543560363,-3.2975125067153304 L29.85396550270418,-13.186850452838621" fill-opacity="0" stroke="black" stroke-width="1" />
<path d="M15.279642889710903,3.0564295979183695 L15.957419543560363,3.2975125067153304 L29.85396550270418,13.186850452838621" fill-opacity="0" stroke="black" stroke-width="1" />
<path d="M15.957419543560363,-3.2975125067153304 L29.85396550270418,-13.186850452838621 L35.0,-0.0" fill-opacity="0" stroke="black" stroke-width="1" />
<path d="M15.957419543560363,3.2975125067153304 L29.85396550270418,13.186850452838621 L35.0,-0.0" fill-opacity="0" stroke="black" stroke-width="1" />
<path d="M50.0,-7.0 L38.63004707332698,-13.539123920034966 L50.0,-21.0" fill-opacity="0" stroke="black" stroke-width="1" />
<path d="M50.0,7.0 L38.63004707332698,13.539123920034966 L50.0,21.0" fill-opacity="0" stroke="black" stroke-width="1" />
<path d="M50.0,-21.0 L44.69052086673691,-25.056522787835544 L50.0,-29.0" fill-opacity="0" stroke="black" stroke-width="1" />
<path d="M50.0,21.0 L44.69052086673691,25.056522787835544 L50.0,29.0" fill-opacity="0" stroke="black" stroke-width="1" />
<path d="M50.0,-29.0 L46.82058103342568,-31.41692943209454 L50.0,-35.0" fill-opacity="0" stroke="black" stroke-width="1" />
<path d="M50.0,29.0 L46.82058103342568,31.41692943209454 L50.0,35.0" fill-opacity="0" stroke="black" stroke-width="1" />
<path d="M50.0,-36.0 L46.96594578543886,-36.88218215107681 L50.0,-38.0" fill-opacity="0" stroke="black" stroke-width="1" />
<path d="M50.0,36.0 L46.96594578543886,36.88218215107681 L50.0,38.0" fill-opacity="0" stroke="black" stroke-width="1" />
<path d="M50.0,-38.0 L47.26072554974992,-38.51245373221446 L50.0,-42.0" fill-opacity="0" stroke="black" stroke-width="1" />
<path d="M50.0,38.0 L47.26072554974992,38.51245373221446 L50.0,42.0" fill-opacity="0" stroke="black" stroke-width="1" />
<path d="M50.0,-42.0 L48.08649602712266,-44.416498877280716 L47.593472000387564,-40.9646872660325" fill-opacity="0" stroke="black" stroke-width="1" />
<path d="M50.0,42.0 L48.08649602712266,44.416498877280716 L47.593472000387564,40.9646872660325" fill-opacity="0" stroke="black" stroke-width="1" />
<path d="M48.08649602712266,-44.416498877280716 L47.593472000387564,-40.9646872660325 L45.0,-45.0" fill-opacity="0" stroke="black" stroke-width="1" />
<path d="M48.08649602712266,44.416498877280716 L47.593472000387564,40.9646872660325 L45.0,45.0" fill-opacity="0" stroke="black" stroke-width="1" />
<path d="M40.9646872660325,52.406527999612436 L45.0,55.0 L29.0,71.0" fill-opacity="0" stroke="black" stroke-width="1" />
<path d="M40.9646872660325,-52.406527999612436 L45.0,-55.0 L29.0,-71.0" fill-opacity="0" stroke="black" stroke-width="1" />
<path d="M45.0,55.0 L29.0,71.0 L26.0,74.0" fill-opacity="0" stroke="black" stroke-width="1" />
<path d="M45.0,-55.0 L29.0,-71.0 L26.0,-74.0" fill-opacity="0" stroke="black" stroke-width="1" />
<path d="M29.0,71.0 L26.0,74.0 L22.0,78.0" fill-opacity="0" stroke="black" stroke-width="1" />
<path d="M29.0,-71.0 L26.0,-74.0 L22.0,-78.0" fill-opacity="0" stroke="black" stroke-width="1" />
<path d="M26.0,74.0 L22.0,78.0 L13.048214153227871,83.20764989614773" fill-opacity="0" stroke="black" stroke-width="1" />
<path d="M26.0,-74.0 L22.0,-78.0 L13.048214153227871,-83.20764989614773" fill-opacity="0" stroke="black" stroke-width="1" />
<path d="M22.0,-22.0 L16.792350103852268,-13.048214153227871 L15.970318540092288,-10.334188026053557" fill-opacity="0" stroke="black" stroke-width="1" />
<path d="M22.0,22.0 L16.792350103852268,13.048214153227871 L15.970318540092288,10.334188026053557" fill-opacity="0" stroke="black" stroke-width="1" />
<path d="M16.792350103852268,-13.048214153227871 L15.970318540092288,-10.334188026053557 L13.0,-13.0" fill-opacity="0" stroke="black" stroke-width="1" />
<path d="M16.792350103852268,13.048214153227871 L15.970318540092288,10.334188026053557 L13.0,13.0" fill-opacity="0" stroke="black" stroke-width="1" />
<path d="M12.0,-12.0 L6.343007079444358,-1.184639258914276 L5.649213468858388,-0.5019871118593866" fill-opacity="0" stroke="black" stroke-width="1" />
<path d="M12.0,12.0 L6.343007079444358,1.184639258914276 L5.649213468858388,0.5019871118593866" fill-opacity="0" stroke="black" stroke-width="1" />
<path d="M6.343007079444358,-1.184639258914276 L5.649213468858388,-0.5019871118593866 L4.329746169358906,-0.21065912292111272" fill-opacity="0" stroke="black" stroke-width="1" />
<path d="M6.343007079444358,1.184639258914276 L5.649213468858388,0.5019871118593866 L4.329746169358906,0.21065912292111272" fill-opacity="0" stroke="black" stroke-width="1" />
<path d="M5.649213468858388,-0.5019871118593866 L4.329746169358906,-0.21065912292111272 L3.8550504244253716,-0.16958136534951737" fill-opacity="0" stroke="black" stroke-width="1" />
<path d="M5.649213468858388,0.5019871118593866 L4.329746169358906,0.21065912292111272 L3.8550504244253716,0.16958136534951737" fill-opacity="0" stroke="black" stroke-width="1" />
<path d="M4.329746169358906,-0.21065912292111272 L3.8550504244253716,-0.16958136534951737 L1.3053372672941155,-0.024356811567299158" fill-opacity="0" stroke="black" stroke-width="1" />
<path d="M4.329746169358906,0.21065912292111272 L3.8550504244253716,0.16958136534951737 L1.3053372672941155,0.024356811567299158" fill-opacity="0" stroke="black" stroke-width="1" />
<path d="M3.8550504244253716,-0.16958136534951737 L1.3053372672941155,-0.024356811567299158 L0.0,-0.0" fill-opacity="0" stroke="black" stroke-width="1" />
<path d="M3.8550504244253716,0.16958136534951737 L1.3053372672941155,0.024356811567299158 L0.0,-0.0" fill-opacity="0" stroke="black" stroke-width="1" />
<path d="M-4.0,-0.0 L-11.214895077147547,-1.5812443318949476 L-11.544383871514935,-1.7746812307074507" fill-opacity="0" stroke="black" stroke-width="1" />
<path d="M-4.0,-0.0 L-11.214895077147547,1.5812443318949476 L-11.544383871514935,1.7746812307074507" fill-opacity="0" stroke="black" stroke-width="1" />
<path d="M-11.214895077147547,-1.5812443318949476 L-11.544383871514935,-1.7746812307074507 L-13.0,-0.0" fill-opacity="0" stroke="black" stroke-width="1" />
<path d="M-11.214895077147547,1.5812443318949476 L-11.544383871514935,1.7746812307074507 L-13.0,-0.0" fill-opacity="0" stroke="black" stroke-width="1" />
<path d="M-10.334188026053557,84.0296814599077 L-13.0,87.0 L-12.0,88.0" fill-opacity="0" stroke="black" stroke-width="1" />
<path d="M-10.334188026053557,-84.02968145990772 L-13.0,-87.0 L-12.0,-88.0" fill-opacity="0" stroke="black" stroke-width="1" />
<path d="M-14.0,-0.0 L-14.23766507740109,-2.893210211094574 L-15.279642889710903,-3.0564295979183695" fill-opacity="0" stroke="black" stroke-width="1" />
<path d="M-14.0,-0.0 L-14.23766507740109,2.893210211094574 L-15.279642889710903,3.0564295979183695" fill-opacity="0" stroke="black" stroke-width="1" />
<path d="M-14.23766507740109,-2.893210211094574 L-15.279642889710903,-3.0564295979183695 L-15.957419543560363,-3.2975125067153304" fill-opacity="0" stroke="black" stroke-width="1" />
<path d="M-14.23766507740109,2.893210211094574 L-15.279642889710903,3.0564295979183695 L-15.957419543560363,3.2975125067153304" fill-opacity="0" stroke="black" stroke-width="1" />
<path d="M-15.279642889710903,-3.0564295979183695 L-15.957419543560363,-3.2975125067153304 L-29.85396550270418,-13.186850452838621" fill-opacity="0" stroke="black" stroke-width="1" />
<path d="M-15.279642889710903,3.0564295979183695 L-15.957419543560363,3.2975125067153304 L-29.85396550270418,13.186850452838621" fill-opacity="0" stroke="black" stroke-width="1" />
<path d="M-15.957419543560363,-3.2975125067153304 L-29.85396550270418,-13.186850452838621 L-35.0,-0.0" fill-opacity="0" stroke="black" stroke-width="1" />
<path d="M-15.957419543560363,3.2975125067153304 L-29.85396550270418,13.186850452838621 L-35.0,-0.0" fill-opacity="0" stroke="black" stroke-width="1" />
<path d="M-50.0,-7.0 L-38.63004707332698,-13.539123920034966 L-50.0,-21.0" fill-opacity="0" stroke="black" stroke-width="1" />
<path d="M-50.0,7.0 L-38.63004707332698,13.539123920034966 L-50.0,21.0" fill-opacity="0" stroke="black" stroke-width="1" />
<path d="M-50.0,-21.0 L-44.69052086673691,-25.056522787835544 L-50.0,-29.0" fill-opacity="0" stroke="black" stroke-width="1" />
<path d="M-50.0,21.0 L-44.69052086673691,25.056522787835544 L-50.0,29.0" fill-opacity="0" stroke="black" stroke-width="1" />
<path d="M-50.0,-29.0 L-46.82058103342568,-31.41692943209454 L-50.0,-35.0" fill-opacity="0" stroke="black" stroke-width="1" />
<path d="M-50.0,29.0 L-46.82058103342568,31.41692943209454 L-50.0,35.0" fill-opacity="0" stroke="black" stroke-width="1" />
<path d="M-50.0,-36.0 L-46.96594578543886,-36.88218215107681 L-50.0,-38.0" fill-opacity="0" stroke="black" stroke-width="1" />
<path d="M-50.0,36.0 L-46.96594578543886,36.88218215107681 L-50.0,38.0" fill-opacity="0" stroke="black" stroke-width="1" />
<path d="M-50.0,-38.0 L-47.26072554974992,-38.51245373221446 L-50.0,-42.0" fill-opacity="0" stroke="black" stroke-width="1" />
<path d="M-50.0,38.0 L-47.26072554974992,38.51245373221446 L-50.0,42.0" fill-opacity="0" stroke="black" stroke-width="1" />
<path d="M-50.0,-42.0 L-48.08649602712266,-44.416498877280716 L-47.593472000387564,-40.9646872660325" fill-opacity="0" stroke="black" stroke-width="1" />
<path d="M-50.0,42.0 L-48.08649602712266,44.416498877280716 L-47.593472000387564,40.9646872660325" fill-opacity="0" stroke="black" stroke-width="1" />
<path d="M-48.08649602712266,-44.416498877280716 L-47.593472000387564,-40.9646872660325 L-45.0,-45.0" fill-opacity="0" stroke="black" stroke-width="1" />
<path d="M-48.08649602712266,44.416498877280716 L-47.593472000387564,40.9646872660325 L-45.0,45.0" fill-opacity="0" stroke="black" stroke-width="1" />
<path d="M-40.9646872660325,52.406527999612436 L-45.0,55.0 L-29.0,71.0" fill-opacity="0" stroke="black" stroke-width="1" />
<path d="M-40.9646872660325,-52.406527999612436 L-45.0,-55.0 L-29.0,-71.0" fill-opacity="0" stroke="black" stroke-width="1" />
<path d="M-45.0,55.0 L-29.0,71.0 L-26.0,74.0" fill-opacity="0" stroke="black" stroke-width="1" />
<path d="M-45.0,-55.0 L-29.0,-71.0 L-26.0,-74.0" fill-opacity="0" stroke="black" stroke-width="1" />
<path d="M-29.0,71.0 L-26.0,74.0 L-22.0,78.0" fill-opacity="0" stroke="black" stroke-width="1" />
<path d="M-29.0,-71.0 L-26.0,-74.0 L-22.0,-78.0" fill-opacity="0" stroke="black" stroke-width="1" />
<path d="M-26.0,74.0 L-22.0,78.0 L-13.048214153227871,83.20764989614773" fill-opacity="0" stroke="black" stroke-width="1" />
<path d="M-26.0,-74.0 L-22.0,-78.0 L-13.048214153227871,-83.20764989614773" fill-opacity="0" stroke="black" stroke-width="1" />
<path d="M-22.0,-22.0 L-16.792350103852268,-13.048214153227871 L-15.970318540092288,-10.334188026053557" fill-opacity="0" stroke="black" stroke-width="1" />
<path d="M-22.0,22.0 L-16.792350103852268,13.048214153227871 L-15.970318540092288,10.334188026053557" fill-opacity="0" stroke="black" stroke-width="1" />
<path d="M-16.792350103852268,-13.048214153227871 L-15.970318540092288,-10.334188026053557 L-13.0,-13.0" fill-opacity="0" stroke="black" stroke-width="1" />
<path d="M-16.792350103852268,13.048214153227871 L-15.970318540092288,10.334188026053557 L-13.0,13.0" fill-opacity="0" stroke="black" stroke-width="1" />
<path d="M-12.0,-12.0 L-6.343007079444358,-1.184639258914276 L-5.649213468858388,-0.5019871118593866" fill-opacity="0" stroke="black" stroke-width="1" />
<path d="M-12.0,12.0 L-6.343007079444358,1.184639258914276 L-5.649213468858388,0.5019871118593866" fill-opacity="0" stroke="black" stroke-width="1" />
<path d="M-6.343007079444358,-1.184639258914276 L-5.649213468858388,-0.5019871118593866 L-4.329746169358906,-0.21065912292111272" fill-opacity="0" stroke="black" stroke-width="1" />
<path d="M-6.343007079444358,1.184639258914276 L-5.649213468858388,0.5019871118593866 L-4.329746169358906,0.21065912292111272" fill-opacity="0" stroke="black" stroke-width="1" />
<path d="M-5.649213468858388,-0.5019871118593866 L-4.329746169358906,-0.21065912292111272 L-3.8550504244253716,-0.16958136534951737" fill-opacity="0" stroke="black" stroke-width="1" />
<path d="M-5.649213468858388,0.5019871118593866 L-4.329746169358906,0.21065912292111272 L-3.8550504244253716,0.16958136534951737" fill-opacity="0" stroke="black" stroke-width="1" />
<path d="M-4.329746169358906,-0.21065912292111272 L-3.8550504244253716,-0.16958136534951737 L-1.3053372672941155,-0.024356811567299158" fill-opacity="0" stroke="black" stroke-width="1" />
<path d="M-4.329746169358906,0.21065912292111272 L-3.8550504244253716,0.16958136534951737 L-1.3053372672941155,0.024356811567299158" fill-opacity="0" stroke="black" stroke-width="1" />
<path d="M-3.8550504244253716,-0.16958136534951737 L-1.3053372672941155,-0.024356811567299158 L0.0,-0.0" fill-opacity="0" stroke="black" stroke-width="1" />
<path d="M-3.8550504244253716,0.16958136534951737 L-1.3053372672941155,0.024356811567299158 L0.0,-0.0" fill-opacity="0" stroke="black" stroke-width="1" />
<path d="M96.0,-0.0 L88.78510492285245,1.5812443318949476 L88.45561612848506,1.7746812307074507" fill-opacity="0" stroke="black" stroke-width="1" />
<path d="M96.0,-0.0 L88.78510492285245,-1.5812443318949476 L88.45561612848506,-1.7746812307074507" fill-opacity="0" stroke="black" stroke-width="1" />
<path d="M88.78510492285245,1.5812443318949476 L88.45561612848506,1.7746812307074507 L87.0,-0.0" fill-opacity="0" stroke="black" stroke-width="1" />
<path d="M88.78510492285245,-1.5812443318949476 L88.45561612848506,-1.7746812307074507 L87.0,-0.0" fill-opacity="0" stroke="black" stroke-width="1" />
<path d="M84.02968145990772,10.334188026053557 L87.0,13.0 L88.0,12.0" fill-opacity="0" stroke="black" stroke-width="1" />
<path d="M84.02968145990772,-10.334188026053557 L87.0,-13.0 L88.0,-12.0" fill-opacity="0" stroke="black" stroke-width="1" />
<path d="M86.0,-0.0 L85.76233492259891,2.893210211094574 L84.7203571102891,3.0564295979183695" fill-opacity="0" stroke="black" stroke-width="1" />
<path d="M86.0,-0.0 L85.76233492259891,-2.893210211094574 L84.7203571102891,-3.0564295979183695" fill-opacity="0" stroke="black" stroke-width="1" />
<path d="M85.76233492259891,2.893210211094574 L84.7203571102891,3.0564295979183695 L84.04258045643964,3.2975125067153304" fill-opacity="0" stroke="black" stroke-width="1" />
<path d="M85.76233492259891,-2.893210211094574 L84.7203571102891,-3.0564295979183695 L84.04258045643964,-3.2975125067153304" fill-opacity="0" stroke="black" stroke-width="1" />
<path d="M84.7203571102891,3.0564295979183695 L84.04258045643964,3.2975125067153304 L70.14603449729582,13.186850452838621" fill-opacity="0" stroke="black" stroke-width="1" />
<path d="M84.7203571102891,-3.0564295979183695 L84.04258045643964,-3.2975125067153304 L70.14603449729582,-13.186850452838621" fill-opacity="0" stroke="black" stroke-width="1" />
<path d="M84.04258045643964,3.2975125067153304 L70.14603449729582,13.186850452838621 L65.0,-0.0" fill-opacity="0" stroke="black" stroke-width="1" />
<path d="M84.04258045643964,-3.2975125067153304 L70.14603449729582,-13.186850452838621 L65.0,-0.0" fill-opacity="0" stroke="black" stroke-width="1" />
<path d="M50.0,7.0 L61.36995292667302,13.539123920034966 L50.0,21.0" fill-opacity="0" stroke="black" stroke-width="1" />
<path d="M50.0,-7.0 L61.36995292667302,-13.539123920034966 L50.0,-21.0" fill-opacity="0" stroke="black" stroke-width="1" />
<path d="M50.0,21.0 L55.30947913326309,25.056522787835544 L50.0,29.0" fill-opacity="0" stroke="black" stroke-width="1" />
<path d="M50.0,-21.0 L55.30947913326309,-25.056522787835544 L50.0,-29.0" fill-opacity="0" stroke="black" stroke-width="1" />
<path d="M50.0,29.0 L53.17941896657432,31.41692943209454 L50.0,35.0" fill-opacity="0" stroke="black" stroke-width="1" />
<path d="M50.0,-29.0 L53.17941896657432,-31.41692943209454 L50.0,-35.0" fill-opacity="0" stroke="black" stroke-width="1" />
<path d="M50.0,36.0 L53.03405421456114,36.88218215107681 L50.0,38.0" fill-opacity="0" stroke="black" stroke-width="1" />
<path d="M50.0,-36.0 L53.03405421456114,-36.88218215107681 L50.0,-38.0" fill-opacity="0" stroke="black" stroke-width="1" />
<path d="M50.0,38.0 L52.73927445025008,38.51245373221446 L50.0,42.0" fill-opacity="0" stroke="black" stroke-width="1" />
<path d="M50.0,-38.0 L52.73927445025008,-38.51245373221446 L50.0,-42.0" fill-opacity="0" stroke="black" stroke-width="1" />
<path d="M50.0,42.0 L51.91350397287734,44.416498877280716 L52.406527999612436,40.9646872660325" fill-opacity="0" stroke="black" stroke-width="1" />
<path d="M50.0,-42.0 L51.91350397287734,-44.416498877280716 L52.406527999612436,-40.9646872660325" fill-opacity="0" stroke="black" stroke-width="1" />
<path d="M51.91350397287734,44.416498877280716 L52.406527999612436,40.9646872660325 L55.0,45.0" fill-opacity="0" stroke="black" stroke-width="1" />
<path d="M51.91350397287734,-44.416498877280716 L52.406527999612436,-40.9646872660325 L55.0,-45.0" fill-opacity="0" stroke="black" stroke-width="1" />
<path d="M52.406527999612436,40.9646872660325 L55.0,45.0 L71.0,29.0" fill-opacity="0" stroke="black" stroke-width="1" />
<path d="M52.406527999612436,-40.9646872660325 L55.0,-45.0 L71.0,-29.0" fill-opacity="0" stroke="black" stroke-width="1" />
<path d="M55.0,45.0 L71.0,29.0 L74.0,26.0" fill-opacity="0" stroke="black" stroke-width="1" />
<path d="M55.0,-45.0 L71.0,-29.0 L74.0,-26.0" fill-opacity="0" stroke="black" stroke-width="1" />
<path d="M71.0,29.0 L74.0,26.0 L78.0,22.0" fill-opacity="0" stroke="black" stroke-width="1" />
<path d="M71.0,-29.0 L74.0,-26.0 L78.0,-22.0" fill-opacity="0" stroke="black" stroke-width="1" />
<path d="M74.0,26.0 L78.0,22.0 L83.20764989614773,13.048214153227871" fill-opacity="0" stroke="black" stroke-width="1" />
<path d="M74.0,-26.0 L78.0,-22.0 L83.20764989614773,-13.048214153227871" fill-opacity="0" stroke="black" stroke-width="1" />
<path d="M78.0,22.0 L83.20764989614773,13.048214153227871 L84.02968145990772,10.334188026053557" fill-opacity="0" stroke="black" stroke-width="1" />
<path d="M78.0,-22.0 L83.20764989614773,-13.048214153227871 L84.02968145990772,-10.334188026053557" fill-opacity="0" stroke="black" stroke-width="1" />
<path d="M83.20764989614773,13.048214153227871 L84.02968145990772,10.334188026053557 L87.0,13.0" fill-opacity="0" stroke="black" stroke-width="1" />
<path d="M83.20764989614773,-13.048214153227871 L84.02968145990772,-10.334188026053557 L87.0,-13.0" fill-opacity="0" stroke="black" stroke-width="1" />
<path d="M88.0,12.0 L93.65699292055564,1.184639258914276 L94.35078653114161,0.5019871118593866" fill-opacity="0" stroke="black" stroke-width="1" />
<path d="M88.0,-12.0 L93.65699292055564,-1.184639258914276 L94.35078653114161,-0.5019871118593866" fill-opacity="0" stroke="black" stroke-width="1" />
<path d="M93.65699292055564,1.184639258914276 L94.35078653114161,0.5019871118593866 L95.67025383064109,0.21065912292111272" fill-opacity="0" stroke="black" stroke-width="1" />
<path d="M93.65699292055564,-1.184639258914276 L94.35078653114161,-0.5019871118593866 L95.67025383064109,-0.21065912292111272" fill-opacity="0" stroke="black" stroke-width="1" />
<path d="M94.35078653114161,0.5019871118593866 L95.67025383064109,0.21065912292111272 L96.14494957557463,0.16958136534951737" fill-opacity="0" stroke="black" stroke-width="1" />
<path d="M94.35078653114161,-0.5019871118593866 L95.67025383064109,-0.21065912292111272 L96.14494957557463,-0.16958136534951737" fill-opacity="0" stroke="black" stroke-width="1" />
<path d="M95.67025383064109,0.21065912292111272 L96.14494957557463,0.16958136534951737 L98.6946627327059,0.024356811567299158" fill-opacity="0" stroke="black" stroke-width="1" />
<path d="M95.67025383064109,-0.21065912292111272 L96.14494957557463,-0.16958136534951737 L98.6946627327059,-0.024356811567299158" fill-opacity="0" stroke="black" stroke-width="1" />
<path d="M96.14494957557463,0.16958136534951737 L98.6946627327059,0.024356811567299158 L100.0,-0.0" fill-opacity="0" stroke="black" stroke-width="1" />
<path d="M96.14494957557463,-0.16958136534951737 L98.6946627327059,-0.024356811567299158 L100.0,-0.0" fill-opacity="0" stroke="black" stroke-width="1" />
<path d="M0.0,-4.0 L1.5812443318949476,-11.214895077147547 L1.7746812307074507,-11.544383871514935" fill-opacity="0" stroke="black" stroke-width="1" />
<path d="M0.0,4.0 L1.5812443318949476,11.214895077147547 L1.7746812307074507,11.544383871514935" fill-opacity="0" stroke="black" stroke-width="1" />
<path d="M0.0,96.0 L1.5812443318949476,88.78510492285245 L1.7746812307074507,88.45561612848506" fill-opacity="0" stroke="black" stroke-width="1" />
<path d="M0.0,-96.0 L1.5812443318949476,-88.78510492285245 L1.7746812307074507,-88.45561612848506" fill-opacity="0" stroke="black" stroke-width="1" />
<path d="M1.5812443318949476,-11.214895077147547 L1.7746812307074507,-11.544383871514935 L0.0,-13.0" fill-opacity="0" stroke="black" stroke-width="1" />
<path d="M1.5812443318949476,11.214895077147547 L1.7746812307074507,11.544383871514935 L0.0,13.0" fill-opacity="0" stroke="black" stroke-width="1" />
<path d="M1.5812443318949476,88.78510492285245 L1.7746812307074507,88.45561612848506 L0.0,87.0" fill-opacity="0" stroke="black" stroke-width="1" />
<path d="M1.5812443318949476,-88.78510492285245 L1.7746812307074507,-88.45561612848506 L0.0,-87.0" fill-opacity="0" stroke="black" stroke-width="1" />
<path d="M0.0,-14.0 L2.893210211094574,-14.23766507740109 L3.0564295979183695,-15.279642889710903" fill-opacity="0" stroke="black" stroke-width="1" />
<path d="M0.0,14.0 L2.893210211094574,14.23766507740109 L3.0564295979183695,15.279642889710903" fill-opacity="0" stroke="black" stroke-width="1" />
<path d="M0.0,86.0 L2.893210211094574,85.76233492259891 L3.0564295979183695,84.7203571102891" fill-opacity="0" stroke="black" stroke-width="1" />
<path d="M0.0,-86.0 L2.893210211094574,-85.76233492259891 L3.0564295979183695,-84.7203571102891" fill-opacity="0" stroke="black" stroke-width="1" />
<path d="M2.893210211094574,-14.23766507740109 L3.0564295979183695,-15.279642889710903 L3.2975125067153304,-15.957419543560363" fill-opacity="0" stroke="black" stroke-width="1" />
<path d="M2.893210211094574,14.23766507740109 L3.0564295979183695,15.279642889710903 L3.2975125067153304,15.957419543560363" fill-opacity="0" stroke="black" stroke-width="1" />
<path d="M2.893210211094574,85.76233492259891 L3.0564295979183695,84.7203571102891 L3.2975125067153304,84.04258045643964" fill-opacity="0" stroke="black" stroke-width="1" />
<path d="M2.893210211094574,-85.76233492259891 L3.0564295979183695,-84.7203571102891 L3.2975125067153304,-84.04258045643964" fill-opacity="0" stroke="black" stroke-width="1" />
<path d="M3.0564295979183695,-15.279642889710903 L3.2975125067153304,-15.957419543560363 L13.186850452838621,-29.85396550270418" fill-opacity="0" stroke="black" stroke-width="1" />
<path d="M3.0564295979183695,15.279642889710903 L3.2975125067153304,15.957419543560363 L13.186850452838621,29.85396550270418" fill-opacity="0" stroke="black" stroke-width="1" />
<path d="M3.0564295979183695,84.7203571102891 L3.2975125067153304,84.04258045643964 L13.186850452838621,70.14603449729582" fill-opacity="0" stroke="black" stroke-width="1" />
<path d="M3.0564295979183695,-84.7203571102891 L3.2975125067153304,-84.04258045643964 L13.186850452838621,-70.14603449729582" fill-opacity="0" stroke="black" stroke-width="1" />
<path d="M3.2975125067153304,-15.957419543560363 L13.186850452838621,-29.85396550270418 L0.0,-35.0" fill-opacity="0" stroke="black" stroke-width="1" />
<path d="M3.2975125067153304,15.957419543560363 L13.186850452838621,29.85396550270418 L0.0,35.0" fill-opacity="0" stroke="black" stroke-width="1" />
<path d="M3.2975125067153304,84.04258045643964 L13.186850452838621,70.14603449729582 L0.0,65.0" fill-opacity="0" stroke="black" stroke-width="1" />
<path d="M3.2975125067153304,-84.04258045643964 L13.186850452838621,-70.14603449729582 L0.0,-65.0" fill-opacity="0" stroke="black" stroke-width="1" />
<path d="M7.0,-50.0 L13.539123920034966,-38.63004707332698 L21.0,-50.0" fill-opacity="0" stroke="black" stroke-width="1" />
<path d="M7.0,50.0 L13.539123920034966,38.63004707332698 L21.0,50.0" fill-opacity="0" stroke="black" stroke-width="1" />
<path d="M7.0,50.0 L13.539123920034966,61.36995292667302 L21.0,50.0" fill-opacity="0" stroke="black" stroke-width="1" />
<path d="M7.0,-50.0 L13.539123920034966,-61.36995292667302 L21.0,-50.0" fill-opacity="0" stroke="black" stroke-width="1" />
<path d="M21.0,-50.0 L25.056522787835544,-44.69052086673691 L29.0,-50.0" fill-opacity="0" stroke="black" stroke-width="1" />
<path d="M21.0,50.0 L25.056522787835544,44.69052086673691 L29.0,50.0" fill-opacity="0" stroke="black" stroke-width="1" />
<path d="M21.0,50.0 L25.056522787835544,55.30947913326309 L29.0,50.0" fill-opacity="0" stroke="black" stroke-width="1" />
<path d="M21.0,-50.0 L25.056522787835544,-55.30947913326309 L29.0,-50.0" fill-opacity="0" stroke="black" stroke-width="1" />
<path d="M29.0,-50.0 L31.41692943209454,-46.82058103342568 L35.0,-50.0" fill-opacity="0" stroke="black" stroke-width="1" />
<path d="M29.0,50.0 L31.41692943209454,46.82058103342568 L35.0,50.0" fill-opacity="0" stroke="black" stroke-width="1" />
<path d="M29.0,50.0 L31.41692943209454,53.17941896657432 L35.0,50.0" fill-opacity="0" stroke="black" stroke-width="1" />
<path d="M29.0,-50.0 L31.41692943209454,-53.17941896657432 L35.0,-50.0" fill-opacity="0" stroke="black" stroke-width="1" />
<path d="M36.0,-50.0 L36.88218215107681,-46.96594578543886 L38.0,-50.0" fill-opacity="0" stroke="black" stroke-width="1" />
<path d="M36.0,50.0 L36.88218215107681,46.96594578543886 L38.0,50.0" fill-opacity="0" stroke="black" stroke-width="1" />
<path d="M36.0,50.0 L36.88218215107681,53.03405421456114 L38.0,50.0" fill-opacity="0" stroke="black" stroke-width="1" />
<path d="M36.0,-50.0 L36.88218215107681,-53.03405421456114 L38.0,-50.0" fill-opacity="0" stroke="black" stroke-width="1" />
<path d="M38.0,-50.0 L38.51245373221446,-47.26072554974992 L42.0,-50.0" fill-opacity="0" stroke="black" stroke-width="1" />
<path d="M38.0,50.0 L38.51245373221446,47.26072554974992 L42.0,50.0" fill-opacity="0" stroke="black" stroke-width="1" />
<path d="M38.0,50.0 L38.51245373221446,52.73927445025008 L42.0,50.0" fill-opacity="0" stroke="black" stroke-width="1" />
<path d="M38.0,-50.0 L38.51245373221446,-52.73927445025008 L42.0,-50.0" fill-opacity="0" stroke="black" stroke-width="1" />
<path d="M42.0,-50.0 L44.416498877280716,-48.08649602712266 L40.9646872660325,-47.593472000387564" fill-opacity="0" stroke="black" stroke-width="1" />
<path d="M42.0,50.0 L44.416498877280716,48.08649602712266 L40.9646872660325,47.593472000387564" fill-opacity="0" stroke="black" stroke-width="1" />
<path d="M42.0,50.0 L44.416498877280716,51.91350397287734 L40.9646872660325,52.406527999612436" fill-opacity="0" stroke="black" stroke-width="1" />
<path d="M42.0,-50.0 L44.416498877280716,-51.91350397287734 L40.9646872660325,-52.406527999612436" fill-opacity="0" stroke="black" stroke-width="1" />
<path d="M44.416498877280716,-48.08649602712266 L40.9646872660325,-47.593472000387564 L45.0,-45.0" fill-opacity="0" stroke="black" stroke-width="1" />
<path d="M44.416498877280716,48.08649602712266 L40.9646872660325,47.593472000387564 L45.0,45.0" fill-opacity="0" stroke="black" stroke-width="1" />
<path d="M44.416498877280716,51.91350397287734 L40.9646872660325,52.406527999612436 L45.0,55.0" fill-opacity="0" stroke="black" stroke-width="1" />
<path d="M44.416498877280716,-51.91350397287734 L40.9646872660325,-52.406527999612436 L45.0,-55.0" fill-opacity="0" stroke="black" stroke-width="1" />
<path d="M22.0,-22.0 L13.048214153227871,-16.792350103852268 L10.334188026053557,-15.970318540092288" fill-opacity="0" stroke="black" stroke-width="1" />
<path d="M22.0,22.0 L13.048214153227871,16.792350103852268 L10.334188026053557,15.970318540092288" fill-opacity="0" stroke="black" stroke-width="1" />
<path d="M22.0,78.0 L13.048214153227871,83.20764989614773 L10.334188026053557,84.02968145990772" fill-opacity="0" stroke="black" stroke-width="1" />
<path d="M22.0,-78.0 L13.048214153227871,-83.20764989614773 L10.334188026053557,-84.02968145990772" fill-opacity="0" stroke="black" stroke-width="1" />
<path d="M13.048214153227871,-16.792350103852268 L10.334188026053557,-15.970318540092288 L13.0,-13.0" fill-opacity="0" stroke="black" stroke-width="1" />
<path d="M13.048214153227871,16.792350103852268 L10.334188026053557,15.970318540092288 L13.0,13.0" fill-opacity="0" stroke="black" stroke-width="1" />
<path d="M13.048214153227871,83.20764989614773 L10.334188026053557,84.02968145990772 L13.0,87.0" fill-opacity="0" stroke="black" stroke-width="1" />
<path d="M13.048214153227871,-83.20764989614773 L10.334188026053557,-84.02968145990772 L13.0,-87.0" fill-opacity="0" stroke="black" stroke-width="1" />
<path d="M12.0,-12.0 L1.184639258914276,-6.343007079444358 L0.5019871118593866,-5.649213468858388" fill-opacity="0" stroke="black" stroke-width="1" />
<path d="M12.0,12.0 L1.184639258914276,6.343007079444358 L0.5019871118593866,5.649213468858388" fill-opacity="0" stroke="black" stroke-width="1" />
<path d="M12.0,88.0 L1.184639258914276,93.65699292055564 L0.5019871118593866,94.35078653114161" fill-opacity="0" stroke="black" stroke-width="1" />
<path d="M12.0,-88.0 L1.184639258914276,-93.65699292055564 L0.5019871118593866,-94.35078653114161" fill-opacity="0" stroke="black" stroke-width="1" />
<path d="M1.184639258914276,-6.343007079444358 L0.5019871118593866,-5.649213468858388 L0.21065912292111272,-4.329746169358906" fill-opacity="0" stroke="black" stroke-width="1" />
<path d="M1.184639258914276,6.343007079444358 L0.5019871118593866,5.649213468858388 L0.21065912292111272,4.329746169358906" fill-opacity="0" stroke="black" stroke-width="1" />
<path d="M1.184639258914276,93.65699292055564 L0.5019871118593866,94.35078653114161 L0.21065912292111272,95.67025383064109" fill-opacity="0" stroke="black" stroke-width="1" />
<path d="M1.184639258914276,-93.65699292055564 L0.5019871118593866,-94.35078653114161 L0.21065912292111272,-95.67025383064109" fill-opacity="0" stroke="black" stroke-width="1" />
<path d="M0.5019871118593866,-5.649213468858388 L0.21065912292111272,-4.329746169358906 L0.16958136534951737,-3.8550504244253716" fill-opacity="0" stroke="black" stroke-width="1" />
<path d="M0.5019871118593866,5.649213468858388 L0.21065912292111272,4.329746169358906 L0.16958136534951737,3.8550504244253716" fill-opacity="0" stroke="black" stroke-width="1" />
<path d="M0.5019871118593866,94.35078653114161 L0.21065912292111272,95.67025383064109 L0.16958136534951737,96.14494957557463" fill-opacity="0" stroke="black" stroke-width="1" />
<path d="M0.5019871118593866,-94.35078653114161 L0.21065912292111272,-95.67025383064109 L0.16958136534951737,-96.14494957557463" fill-opacity="0" stroke="black" stroke-width="1" />
<path d="M0.21065912292111272,-4.329746169358906 L0.16958136534951737,-3.8550504244253716 L0.024356811567299158,-1.3053372672941155" fill-opacity="0" stroke="black" stroke-width="1" />
<path d="M0.21065912292111272,4.329746169358906 L0.16958136534951737,3.8550504244253716 L0.024356811567299158,1.3053372672941155" fill-opacity="0" stroke="black" stroke-width="1" />
<path d="M0.21065912292111272,95.67025383064109 L0.16958136534951737,96.14494957557463 L0.024356811567299158,98.6946627327059" fill-opacity="0" stroke="black" stroke-width="1" />
<path d="M0.21065912292111272,-95.67025383064109 L0.16958136534951737,-96.14494957557463 L0.024356811567299158,-98.6946627327059" fill-opacity="0" stroke="black" stroke-width="1" />
<path d="M0.16958136534951737,-3.8550504244253716 L0.024356811567299158,-1.3053372672941155 L0.0,-0.0" fill-opacity="0" stroke="black" stroke-width="1" />
<path d="M0.16958136534951737,3.8550504244253716 L0.024356811567299158,1.3053372672941155 L0.0,-0.0" fill-opacity="0" stroke="black" stroke-width="1" />
<path d="M0.16958136534951737,96.14494957557463 L0.024356811567299158,98.6946627327059 L0.0,100.0" fill-opacity="0" stroke="black" stroke-width="1" />
<path d="M0.16958136534951737,-96.14494957557463 L0.024356811567299158,-98.6946627327059 L0.0,-100.0" fill-opacity="0" stroke="black" stroke-width="1" />
<path d="M0.0,96.0 L-1.5812443318949476,88.78510492285245 L-1.7746812307074507,88.45561612848506" fill-opacity="0" stroke="black" stroke-width="1" />
<path d="M0.0,-4.0 L-1.5812443318949476,-11.214895077147547 L-1.7746812307074507,-11.544383871514935" fill-opacity="0" stroke="black" stroke-width="1" />
<path d="M0.0,4.0 L-1.5812443318949476,11.214895077147546 L-1.7746812307074507,11.544383871514938" fill-opacity="0" stroke="black" stroke-width="1" />
<path d="M0.0,-96.0 L-1.5812443318949476,-88.78510492285245 L-1.7746812307074507,-88.45561612848506" fill-opacity="0" stroke="black" stroke-width="1" />
<path d="M-1.5812443318949476,88.78510492285245 L-1.7746812307074507,88.45561612848506 L0.0,87.0" fill-opacity="0" stroke="black" stroke-width="1" />
<path d="M-1.5812443318949476,-11.214895077147547 L-1.7746812307074507,-11.544383871514935 L0.0,-13.0" fill-opacity="0" stroke="black" stroke-width="1" />
<path d="M-1.5812443318949476,11.214895077147546 L-1.7746812307074507,11.544383871514938 L0.0,13.0" fill-opacity="0" stroke="black" stroke-width="1" />
<path d="M-1.5812443318949476,-88.78510492285245 L-1.7746812307074507,-88.45561612848506 L0.0,-87.0" fill-opacity="0" stroke="black" stroke-width="1" />
<path d="M0.0,86.0 L-2.893210211094574,85.76233492259891 L-3.0564295979183695,84.7203571102891" fill-opacity="0" stroke="black" stroke-width="1" />
<path d="M0.0,-14.0 L-2.893210211094574,-14.23766507740109 L-3.0564295979183695,-15.279642889710903" fill-opacity="0" stroke="black" stroke-width="1" />
<path d="M0.0,14.0 L-2.893210211094574,14.23766507740109 L-3.0564295979183695,15.2796428897109" fill-opacity="0" stroke="black" stroke-width="1" />
<path d="M0.0,-86.0 L-2.893210211094574,-85.76233492259891 L-3.0564295979183695,-84.7203571102891" fill-opacity="0" stroke="black" stroke-width="1" />
<path d="M-2.893210211094574,85.76233492259891 L-3.0564295979183695,84.7203571102891 L-3.2975125067153304,84.04258045643964" fill-opacity="0" stroke="black" stroke-width="1" />
<path d="M-2.893210211094574,-14.23766507740109 L-3.0564295979183695,-15.279642889710903 L-3.2975125067153304,-15.957419543560363" fill-opacity="0" stroke="black" stroke-width="1" />
<path d="M-2.893210211094574,14.23766507740109 L-3.0564295979183695,15.2796428897109 L-3.2975125067153304,15.957419543560363" fill-opacity="0" stroke="black" stroke-width="1" />
<path d="M-2.893210211094574,-85.76233492259891 L-3.0564295979183695,-84.7203571102891 L-3.2975125067153304,-84.04258045643964" fill-opacity="0" stroke="black" stroke-width="1" />
<path d="M-3.0564295979183695,84.7203571102891 L-3.2975125067153304,84.04258045643964 L-13.186850452838621,70.14603449729582" fill-opacity="0" stroke="black" stroke-width="1" />
<path d="M-3.0564295979183695,-15.279642889710903 L-3.2975125067153304,-15.957419543560363 L-13.186850452838621,-29.85396550270418" fill-opacity="0" stroke="black" stroke-width="1" />
<path d="M-3.0564295979183695,15.2796428897109 L-3.2975125067153304,15.957419543560363 L-13.186850452838621,29.853965502704185" fill-opacity="0" stroke="black" stroke-width="1" />
<path d="M-3.0564295979183695,-84.7203571102891 L-3.2975125067153304,-84.04258045643964 L-13.186850452838621,-70.14603449729582" fill-opacity="0" stroke="black" stroke-width="1" />
<path d="M-3.2975125067153304,84.04258045643964 L-13.186850452838621,70.14603449729582 L0.0,65.0" fill-opacity="0" stroke="black" stroke-width="1" />
<path d="M-3.2975125067153304,-15.957419543560363 L-13.186850452838621,-29.85396550270418 L0.0,-35.0" fill-opacity="0" stroke="black" stroke-width="1" />
<path d="M-3.2975125067153304,15.957419543560363 L-13.186850452838621,29.853965502704185 L0.0,35.0" fill-opacity="0" stroke="black" stroke-width="1" />
<path d="M-3.2975125067153304,-84.04258045643964 L-13.186850452838621,-70.14603449729582 L0.0,-65.0" fill-opacity="0" stroke="black" stroke-width="1" />
<path d="M-7.0,50.0 L-13.539123920034966,61.36995292667302 L-21.0,50.0" fill-opacity="0" stroke="black" stroke-width="1" />
<path d="M-7.0,-50.0 L-13.539123920034966,-38.63004707332698 L-21.0,-50.0" fill-opacity="0" stroke="black" stroke-width="1" />
<path d="M-7.0,50.0 L-13.539123920034966,38.63004707332698 L-21.0,50.0" fill-opacity="0" stroke="black" stroke-width="1" />
<path d="M-7.0,-50.0 L-13.539123920034966,-61.36995292667302 L-21.0,-50.0" fill-opacity="0" stroke="black" stroke-width="1" />
<path d="M-21.0,50.0 L-25.056522787835544,55.30947913326309 L-29.0,50.0" fill-opacity="0" stroke="black" stroke-width="1" />
<path d="M-21.0,-50.0 L-25.056522787835544,-44.69052086673691 L-29.0,-50.0" fill-opacity="0" stroke="black" stroke-width="1" />
<path d="M-21.0,50.0 L-25.056522787835544,44.69052086673691 L-29.0,50.0" fill-opacity="0" stroke="black" stroke-width="1" />
<path d="M-21.0,-50.0 L-25.056522787835544,-55.30947913326309 L-29.0,-50.0" fill-opacity="0" stroke="black" stroke-width="1" />
<path d="M-29.0,50.0 L-31.41692943209454,53.17941896657432 L-35.0,50.0" fill-opacity="0" stroke="black" stroke-width="1" />
<path d="M-29.0,-50.0 L-31.41692943209454,-46.82058103342568 L-35.0,-50.0" fill-opacity="0" stroke="black" stroke-width="1" />
<path d="M-29.0,50.0 L-31.41692943209454,46.82058103342568 L-35.0,50.0" fill-opacity="0" stroke="black" stroke-width="1" />
<path d="M-29.0,-50.0 L-31.41692943209454,-53.17941896657432 L-35.0,-50.0" fill-opacity="0" stroke="black" stroke-width="1" />
<path d="M-36.0,50.0 L-36.88218215107681,53.03405421456114 L-38.0,50.0" fill-opacity="0" stroke="black" stroke-width="1" />
<path d="M-36.0,-50.0 L-36.88218215107681,-46.96594578543886 L-38.0,-50.0" fill-opacity="0" stroke="black" stroke-width="1" />
<path d="M-36.0,50.0 L-36.88218215107681,46.96594578543886 L-38.0,50.0" fill-opacity="0" stroke="black" stroke-width="1" />
<path d="M-36.0,-50.0 L-36.88218215107681,-53.03405421456114 L-38.0,-50.0" fill-opacity="0" stroke="black" stroke-width="1" />
<path d="M-38.0,50.0 L-38.51245373221446,52.73927445025008 L-42.0,50.0" fill-opacity="0" stroke="black" stroke-width="1" />
<path d="M-38.0,-50.0 L-38.51245373221446,-47.26072554974992 L-42.0,-50.0" fill-opacity="0" stroke="black" stroke-width="1" />
<path d="M-38.0,50.0 L-38.51245373221446,47.26072554974992 L-42.0,50.0" fill-opacity="0" stroke="black" stroke-width="1" />
<path d="M-38.0,-50.0 L-38.51245373221446,-52.73927445025008 L-42.0,-50.0" fill-opacity="0" stroke="black" stroke-width="1" />
<path d="M-42.0,50.0 L-44.416498877280716,51.91350397287734 L-40.9646872660325,52.406527999612436" fill-opacity="0" stroke="black" stroke-width="1" />
<path d="M-42.0,-50.0 L-44.416498877280716,-48.08649602712266 L-40.9646872660325,-47.593472000387564" fill-opacity="0" stroke="black" stroke-width="1" />
<path d="M-42.0,50.0 L-44.416498877280716,48.08649602712266 L-40.9646872660325,47.593472000387564" fill-opacity="0" stroke="black" stroke-width="1" />
<path d="M-42.0,-50.0 L-44.416498877280716,-51.91350397287734 L-40.9646872660325,-52.406527999612436" fill-opacity="0" stroke="black" stroke-width="1" />
<path d="M-44.416498877280716,51.91350397287734 L-40.9646872660325,52.406527999612436 L-45.0,55.0" fill-opacity="0" stroke="black" stroke-width="1" />
<path d="M-44.416498877280716,-48.08649602712266 L-40.9646872660325,-47.593472000387564 L-45.0,-45.0" fill-opacity="0" stroke="black" stroke-width="1" />
<path d="M-44.416498877280716,48.08649602712266 L-40.9646872660325,47.593472000387564 L-45.0,45.0" fill-opacity="0" stroke="black" stroke-width="1" />
<path d="M-44.416498877280716,-51.91350397287734 L-40.9646872660325,-52.406527999612436 L-45.0,-55.0" fill-opacity="0" stroke="black" stroke-width="1" />
<path d="M-22.0,78.0 L-13.048214153227871,83.20764989614773 L-10.334188026053557,84.0296814599077" fill-opacity="0" stroke="black" stroke-width="1" />
<path d="M-22.0,-22.0 L-13.048214153227871,-16.792350103852268 L-10.334188026053557,-15.970318540092288" fill-opacity="0" stroke="black" stroke-width="1" />
<path d="M-22.0,22.0 L-13.048214153227871,16.79235010385227 L-10.334188026053557,15.970318540092293" fill-opacity="0" stroke="black" stroke-width="1" />
<path d="M-22.0,-78.0 L-13.048214153227871,-83.20764989614773 L-10.334188026053557,-84.02968145990772" fill-opacity="0" stroke="black" stroke-width="1" />
<path d="M-13.048214153227871,83.20764989614773 L-10.334188026053557,84.0296814599077 L-13.0,87.0" fill-opacity="0" stroke="black" stroke-width="1" />
<path d="M-13.048214153227871,-16.792350103852268 L-10.334188026053557,-15.970318540092288 L-13.0,-13.0" fill-opacity="0" stroke="black" stroke-width="1" />
<path d="M-13.048214153227871,16.79235010385227 L-10.334188026053557,15.970318540092293 L-13.0,13.0" fill-opacity="0" stroke="black" stroke-width="1" />
<path d="M-13.048214153227871,-83.20764989614773 L-10.334188026053557,-84.02968145990772 L-13.0,-87.0" fill-opacity="0" stroke="black" stroke-width="1" />
<path d="M-12.0,88.0 L-1.184639258914276,93.65699292055564 L-0.5019871118593866,94.35078653114161" fill-opacity="0" stroke="black" stroke-width="1" />
<path d="M-12.0,-12.0 L-1.184639258914276,-6.343007079444358 L-0.5019871118593866,-5.649213468858388" fill-opacity="0" stroke="black" stroke-width="1" />
<path d="M-12.0,12.0 L-1.184639258914276,6.343007079444362 L-0.5019871118593866,5.649213468858392" fill-opacity="0" stroke="black" stroke-width="1" />
<path d="M-12.0,-88.0 L-1.184639258914276,-93.65699292055564 L-0.5019871118593866,-94.35078653114161" fill-opacity="0" stroke="black" stroke-width="1" />
<path d="M-1.184639258914276,93.65699292055564 L-0.5019871118593866,94.35078653114161 L-0.21065912292111272,95.67025383064109" fill-opacity="0" stroke="black" stroke-width="1" />
<path d="M-1.184639258914276,-6.343007079444358 L-0.5019871118593866,-5.649213468858388 L-0.21065912292111272,-4.329746169358906" fill-opacity="0" stroke="black" stroke-width="1" />
<path d="M-1.184639258914276,6.343007079444362 L-0.5019871118593866,5.649213468858392 L-0.21065912292111272,4.329746169358913" fill-opacity="0" stroke="black" stroke-width="1" />
<path d="M-1.184639258914276,-93.65699292055564 L-0.5019871118593866,-94.35078653114161 L-0.21065912292111272,-95.67025383064109" fill-opacity="0" stroke="black" stroke-width="1" />
<path d="M-0.5019871118593866,94.35078653114161 L-0.21065912292111272,95.67025383064109 L-0.16958136534951737,96.14494957557463" fill-opacity="0" stroke="black" stroke-width="1" />
<path d="M-0.5019871118593866,-5.649213468858388 L-0.21065912292111272,-4.329746169358906 L-0.16958136534951737,-3.8550504244253716" fill-opacity="0" stroke="black" stroke-width="1" />
<path d="M-0.5019871118593866,5.649213468858392 L-0.21065912292111272,4.329746169358913 L-0.16958136534951737,3.8550504244253716" fill-opacity="0" stroke="black" stroke-width="1" />
<path d="M-0.5019871118593866,-94.35078653114161 L-0.21065912292111272,-95.67025383064109 L-0.16958136534951737,-96.14494957557463" fill-opacity="0" stroke="black" stroke-width="1" />
<path d="M-0.21065912292111272,95.67025383064109 L-0.16958136534951737,96.14494957557463 L-0.024356811567299158,98.69466273270588" fill-opacity="0" stroke="black" stroke-width="1" />
<path d="M-0.21065912292111272,-4.329746169358906 L-0.16958136534951737,-3.8550504244253716 L-0.024356811567299158,-1.3053372672941155" fill-opacity="0" stroke="black" stroke-width="1" />
<path d="M-0.21065912292111272,4.329746169358913 L-0.16958136534951737,3.8550504244253716 L-0.024356811567299158,1.3053372672941208" fill-opacity="0" stroke="black" stroke-width="1" />
<path d="M-0.21065912292111272,-95.67025383064109 L-0.16958136534951737,-96.14494957557463 L-0.024356811567299158,-98.6946627327059" fill-opacity="0" stroke="black" stroke-width="1" />
<path d="M-0.16958136534951737,96.14494957557463 L-0.024356811567299158,98.69466273270588 L0.0,100.0" fill-opacity="0" stroke="black" stroke-width="1" />
<path d="M-0.16958136534951737,-3.8550504244253716 L-0.024356811567299158,-1.3053372672941155 L0.0,-0.0" fill-opacity="0" stroke="black" stroke-width="1" />
<path d="M-0.16958136534951737,3.8550504244253716 L-0.024356811567299158,1.3053372672941208 L0.0,-0.0" fill-opacity="0" stroke="black" stroke-width="1" />
<path d="M-0.16958136534951737,-96.14494957557463 L-0.024356811567299158,-98.6946627327059 L0.0,-100.0" fill-opacity="0" stroke="black" stroke-width="1" />
<path d="M-96.0,-0.0 L-88.78510492285245,-1.5812443318949476 L-88.45561612848506,-1.7746812307074507" fill-opacity="0" stroke="black" stroke-width="1" />
<path d="M-96.0,-0.0 L-88.78510492285245,1.5812443318949476 L-88.45561612848506,1.7746812307074507" fill-opacity="0" stroke="black" stroke-width="1" />
<path d="M-88.78510492285245,-1.5812443318949476 L-88.45561612848506,-1.7746812307074507 L-87.0,-0.0" fill-opacity="0" stroke="black" stroke-width="1" />
<path d="M-88.78510492285245,1.5812443318949476 L-88.45561612848506,1.7746812307074507 L-87.0,-0.0" fill-opacity="0" stroke="black" stroke-width="1" />
<path d="M-84.02968145990772,-10.334188026053557 L-87.0,-13.0 L-88.0,-12.0" fill-opacity="0" stroke="black" stroke-width="1" />
<path d="M-84.02968145990772,10.334188026053557 L-87.0,13.0 L-88.0,12.0" fill-opacity="0" stroke="black" stroke-width="1" />
<path d="M-86.0,-0.0 L-85.76233492259891,-2.893210211094574 L-84.7203571102891,-3.0564295979183695" fill-opacity="0" stroke="black" stroke-width="1" />
<path d="M-86.0,-0.0 L-85.76233492259891,2.893210211094574 L-84.7203571102891,3.0564295979183695" fill-opacity="0" stroke="black" stroke-width="1" />
<path d="M-85.76233492259891,-2.893210211094574 L-84.7203571102891,-3.0564295979183695 L-84.04258045643964,-3.2975125067153304" fill-opacity="0" stroke="black" stroke-width="1" />
<path d="M-85.76233492259891,2.893210211094574 L-84.7203571102891,3.0564295979183695 L-84.04258045643964,3.2975125067153304" fill-opacity="0" stroke="black" stroke-width="1" />
<path d="M-84.7203571102891,-3.0564295979183695 L-84.04258045643964,-3.2975125067153304 L-70.14603449729582,-13.186850452838621" fill-opacity="0" stroke="black" stroke-width="1" />
<path d="M-84.7203571102891,3.0564295979183695 L-84.04258045643964,3.2975125067153304 L-70.14603449729582,13.186850452838621" fill-opacity="0" stroke="black" stroke-width="1" />
<path d="M-84.04258045643964,-3.2975125067153304 L-70.14603449729582,-13.186850452838621 L-65.0,-0.0" fill-opacity="0" stroke="black" stroke-width="1" />
<path d="M-84.04258045643964,3.2975125067153304 L-70.14603449729582,13.186850452838621 L-65.0,-0.0" fill-opacity="0" stroke="black" stroke-width="1" />
<path d="M-50.0,-7.0 L-61.36995292667302,-13.539123920034966 L-50.0,-21.0" fill-opacity="0" stroke="black" stroke-width="1" />
<path d="M-50.0,7.0 L-61.36995292667302,13.539123920034966 L-50.0,21.0" fill-opacity="0" stroke="black" stroke-width="1" />
<path d="M-50.0,-21.0 L-55.30947913326309,-25.056522787835544 L-50.0,-29.0" fill-opacity="0" stroke="black" stroke-width="1" />
<path d="M-50.0,21.0 L-55.30947913326309,25.056522787835544 L-50.0,29.0" fill-opacity="0" stroke="black" stroke-width="1" />
<path d="M-50.0,-29.0 L-53.17941896657432,-31.41692943209454 L-50.0,-35.0" fill-opacity="0" stroke="black" stroke-width="1" />
<path d="M-50.0,29.0 L-53.17941896657432,31.41692943209454 L-50.0,35.0" fill-opacity="0" stroke="black" stroke-width="1" />
<path d="M-50.0,-36.0 L-53.03405421456114,-36.88218215107681 L-50.0,-38.0" fill-opacity="0" stroke="black" stroke-width="1" />
<path d="M-50.0,36.0 L-53.03405421456114,36.88218215107681 L-50.0,38.0" fill-opacity="0" stroke="black" stroke-width="1" />
<path d="M-50.0,-38.0 L-52.73927445025008,-38.51245373221446 L-50.0,-42.0" fill-opacity="0" stroke="black" stroke-width="1" />
<path d="M-50.0,38.0 L-52.73927445025008,38.51245373221446 L-50.0,42.0" fill-opacity="0" stroke="black" stroke-width="1" />
<path d="M-50.0,-42.0 L-51.91350397287734,-44.416498877280716 L-52.406527999612436,-40.9646872660325" fill-opacity="0" stroke="black" stroke-width="1" />
<path d="M-50.0,42.0 L-51.91350397287734,44.416498877280716 L-52.406527999612436,40.9646872660325" fill-opacity="0" stroke="black" stroke-width="1" />
<path d="M-51.91350397287734,-44.416498877280716 L-52.406527999612436,-40.9646872660325 L-55.0,-45.0" fill-opacity="0" stroke="black" stroke-width="1" />
<path d="M-51.91350397287734,44.416498877280716 L-52.406527999612436,40.9646872660325 L-55.0,45.0" fill-opacity="0" stroke="black" stroke-width="1" />
<path d="M-52.406527999612436,-40.9646872660325 L-55.0,-45.0 L-71.0,-29.0" fill-opacity="0" stroke="black" stroke-width="1" />
<path d="M-52.406527999612436,40.9646872660325 L-55.0,45.0 L-71.0,29.0" fill-opacity="0" stroke="black" stroke-width="1" />
<path d="M-55.0,-45.0 L-71.0,-29.0 L-74.0,-26.0" fill-opacity="0" stroke="black" stroke-width="1" />
<path d="M-55.0,45.0 L-71.0,29.0 L-74.0,26.0" fill-opacity="0" stroke="black" stroke-width="1" />
<path d="M-71.0,-29.0 L-74.0,-26.0 L-78.0,-22.0" fill-opacity="0" stroke="black" stroke-width="1" />
<path d="M-71.0,29.0 L-74.0,26.0 L-78.0,22.0" fill-opacity="0" stroke="black" stroke-width="1" />
<path d="M-74.0,-26.0 L-78.0,-22.0 L-83.20764989614773,-13.048214153227871" fill-opacity="0" stroke="black" stroke-width="1" />
<path d="M-74.0,26.0 L-78.0,22.0 L-83.20764989614773,13.048214153227871" fill-opacity="0" stroke="black" stroke-width="1" />
<path d="M-78.0,-22.0 L-83.20764989614773,-13.048214153227871 L-84.02968145990772,-10.334188026053557" fill-opacity="0" stroke="black" stroke-width="1" />
<path d="M-78.0,22.0 L-83.20764989614773,13.048214153227871 L-84.02968145990772,10.334188026053557" fill-opacity="0" stroke="black" stroke-width="1" />
<path d="M-83.20764989614773,-13.048214153227871 L-84.02968145990772,-10.334188026053557 L-87.0,-13.0" fill-opacity="0" stroke="black" stroke-width="1" />
<path d="M-83.20764989614773,13.048214153227871 L-84.02968145990772,10.334188026053557 L-87.0,13.0" fill-opacity="0" stroke="black" stroke-width="1" />
<path d="M-88.0,-12.0 L-93.65699292055564,-1.184639258914276 L-94.35078653114161,-0.5019871118593866" fill-opacity="0" stroke="black" stroke-width="1" />
<path d="M-88.0,12.0 L-93.65699292055564,1.184639258914276 L-94.35078653114161,0.5019871118593866" fill-opacity="0" stroke="black" stroke-width="1" />
<path d="M-93.65699292055564,-1.184639258914276 L-94.35078653114161,-0.5019871118593866 L-95.67025383064109,-0.21065912292111272" fill-opacity="0" stroke="black" stroke-width="1" />
<path d="M-93.65699292055564,1.184639258914276 L-94.35078653114161,0.5019871118593866 L-95.67025383064109,0.21065912292111272" fill-opacity="0" stroke="black" stroke-width="1" />
<path d="M-94.35078653114161,-0.5019871118593866 L-95.67025383064109,-0.21065912292111272 L-96.14494957557463,-0.16958136534951737" fill-opacity="0" stroke="black" stroke-width="1" />
<path d="M-94.35078653114161,0.5019871118593866 L-95.67025383064109,0.21065912292111272 L-96.14494957557463,0.16958136534951737" fill-opacity="0" stroke="black" stroke-width="1" />
<path d="M-95.67025383064109,-0.21065912292111272 L-96.14494957557463,-0.16958136534951737 L-98.6946627327059,-0.024356811567299158" fill-opacity="0" stroke="black" stroke-width="1" />
<path d="M-95.67025383064109,0.21065912292111272 L-96.14494957557463,0.16958136534951737 L-98.6946627327059,0.024356811567299158" fill-opacity="0" stroke="black" stroke-width="1" />
<path d="M-96.14494957557463,-0.16958136534951737 L-98.6946627327059,-0.024356811567299158 L-100.0,-0.0" fill-opacity="0" stroke="black" stroke-width="1" />
<path d="M-96.14494957557463,0.16958136534951737 L-98.6946627327059,0.024356811567299158 L-100.0,-0.0" fill-opacity="0" stroke="black" stroke-width="1" />
<circle cx="0" cy="-97" r="8" stroke-dasharray="39.653880605311166 10.611601852125524" stroke-dashoffset="-17.59291886010284" stroke="black" stroke-width="1" fill="white" fill-opacity="1" />
<circle cx="0" cy="-97" r="4" stroke="black" stroke-width="1" fill="white" fill-opacity="1" />
</svg>