<?xml version="1.0" encoding="UTF-8"?>
<svg xmlns="http://www.w3.org/2000/svg" xmlns:xlink="http://www.w3.org/1999/xlink"
     width="250" height="250" viewBox="-125.0 -125.0 250 250">
<defs>
</defs>
<path d="M12.0,-0.0 L12.261213498123668,-3.990196846028213 L24.0,-0.0" fill="brown" fill-opacity="0.6" stroke="black" stroke-width="1" />
<path d="M12.0,-0.0 L12.261213498123668,3.990196846028213 L24.0,-0.0" fill="orange" fill-opacity="0.6" stroke="black" stroke-width="1" />
<path d="M24.0,-0.0 L25.73192237096326,-16.298287159930293 L40.0,-0.0" fill="red" fill-opacity="0.6" stroke="black" stroke-width="1" />
<path d="M24.0,-0.0 L25.73192237096326,16.298287159930293 L40.0,-0.0" fill="red" fill-opacity="0.6" stroke="black" stroke-width="1" />
<path d="M50.0,-17.0 L42.504829879981436,-24.903574731955832 L46.941253041025874,-27.483015080203614" fill="pink" fill-opacity="0.6" stroke="black" stroke-width="1" />
<path d="M50.0,17.0 L42.504829879981436,24.903574731955832 L46.941253041025874,27.483015080203614" fill="purple" fill-opacity="0.6" stroke="black" stroke-width="1" />
<path d="M42.504829879981436,-24.903574731955832 L46.941253041025874,-27.483015080203614 L50.0,-28.0" fill="blue" fill-opacity="0.6" stroke="black" stroke-width="1" />
<path d="M42.504829879981436,24.903574731955832 L46.941253041025874,27.483015080203614 L50.0,28.0" fill="orange" fill-opacity="0.6" stroke="black" stroke-width="1" />
<path d="M50.0,50.0 L45.0,55.0 L21.0,79.0" fill="orange" fill-opacity="0.6" stroke="black" stroke-width="1" />
<path d="M50.0,-50.0 L45.0,-55.0 L21.0,-79.0" fill="yellow" fill-opacity="0.6" stroke="black" stroke-width="1" />
<path d="M45.0,55.0 L21.0,79.0 L14.890953668972987,80.50543068649932" fill="orange" fill-opacity="0.6" stroke="black" stroke-width="1" />
<path d="M45.0,-55.0 L21.0,-79.0 L14.890953668972987,-80.50543068649932" fill="brown" fill-opacity="0.6" stroke="black" stroke-width="1" />
<path d="M21.0,-21.0 L19.49456931350067,-14.890953668972987 L17.384325217441038,-11.808714566060562" fill="brown" fill-opacity="0.6" stroke="black" stroke-width="1" />
<path d="M21.0,21.0 L19.49456931350067,14.890953668972987 L17.384325217441038,11.808714566060562" fill="red" fill-opacity="0.6" stroke="black" stroke-width="1" />
<path d="M19.49456931350067,-14.890953668972987 L17.384325217441038,-11.808714566060562 L14.036478817783655,-10.626700307256712" fill="blue" fill-opacity="0.6" stroke="black" stroke-width="1" />
<path d="M19.49456931350067,14.890953668972987 L17.384325217441038,11.808714566060562 L14.036478817783655,10.626700307256712" fill="black" fill-opacity="0.6" stroke="black" stroke-width="1" />
<path d="M17.384325217441038,-11.808714566060562 L14.036478817783655,-10.626700307256712 L11.198679788765926,-3.370069184937896" fill="pink" fill-opacity="0.6" stroke="black" stroke-width="1" />
<path d="M17.384325217441038,11.808714566060562 L14.036478817783655,10.626700307256712 L11.198679788765926,3.370069184937896" fill="black" fill-opacity="0.6" stroke="black" stroke-width="1" />
<path d="M14.036478817783655,-10.626700307256712 L11.198679788765926,-3.370069184937896 L3.6254325399386444,-2.4056107486941256" fill="pink" fill-opacity="0.6" stroke="black" stroke-width="1" />
<path d="M14.036478817783655,10.626700307256712 L11.198679788765926,3.370069184937896 L3.6254325399386444,2.4056107486941256" fill="black" fill-opacity="0.6" stroke="black" stroke-width="1" />
<path d="M11.198679788765926,-3.370069184937896 L3.6254325399386444,-2.4056107486941256 L0.0,-0.0" fill="brown" fill-opacity="0.6" stroke="black" stroke-width="1" />
<path d="M11.198679788765926,3.370069184937896 L3.6254325399386444,2.4056107486941256 L0.0,-0.0" fill="yellow" fill-opacity="0.6" stroke="black" stroke-width="1" />
<path d="M-12.0,-0.0 L-12.261213498123668,-3.990196846028213 L-24.0,-0.0" fill="yellow" fill-opacity="0.6" stroke="black" stroke-width="1" />
<path d="M-12.0,-0.0 L-12.261213498123668,3.990196846028213 L-24.0,-0.0" fill="yellow" fill-opacity="0.6" stroke="black" stroke-width="1" />
<path d="M-24.0,-0.0 L-25.73192237096326,-16.298287159930293 L-40.0,-0.0" fill="blue" fill-opacity="0.6" stroke="black" stroke-width="1" />
<path d="M-24.0,-0.0 L-25.73192237096326,16.298287159930293 L-40.0,-0.0" fill="brown" fill-opacity="0.6" stroke="black" stroke-width="1" />
<path d="M-50.0,-17.0 L-42.504829879981436,-24.903574731955832 L-46.941253041025874,-27.483015080203614" fill="blue" fill-opacity="0.6" stroke="black" stroke-width="1" />
<path d="M-50.0,17.0 L-42.504829879981436,24.903574731955832 L-46.941253041025874,27.483015080203614" fill="green" fill-opacity="0.6" stroke="black" stroke-width="1" />
<path d="M-42.504829879981436,-24.903574731955832 L-46.941253041025874,-27.483015080203614 L-50.0,-28.0" fill="orange" fill-opacity="0.6" stroke="black" stroke-width="1" />
<path d="M-42.504829879981436,24.903574731955832 L-46.941253041025874,27.483015080203614 L-50.0,28.0" fill="yellow" fill-opacity="0.6" stroke="black" stroke-width="1" />
<path d="M-50.0,50.0 L-45.0,55.0 L-21.0,79.0" fill="red" fill-opacity="0.6" stroke="black" stroke-width="1" />
<path d="M-50.0,-50.0 L-45.0,-55.0 L-21.0,-79.0" fill="red" fill-opacity="0.6" stroke="black" stroke-width="1" />
<path d="M-45.0,55.0 L-21.0,79.0 L-14.890953668972987,80.50543068649932" fill="green" fill-opacity="0.6" stroke="black" stroke-width="1" />
<path d="M-45.0,-55.0 L-21.0,-79.0 L-14.890953668972987,-80.50543068649932" fill="purple" fill-opacity="0.6" stroke="black" stroke-width="1" />
<path d="M-21.0,-21.0 L-19.49456931350067,-14.890953668972987 L-17.384325217441038,-11.808714566060562" fill="orange" fill-opacity="0.6" stroke="black" stroke-width="1" />
<path d="M-21.0,21.0 L-19.49456931350067,14.890953668972987 L-17.384325217441038,11.808714566060562" fill="purple" fill-opacity="0.6" stroke="black" stroke-width="1" />
<path d="M-19.49456931350067,-14.890953668972987 L-17.384325217441038,-11.808714566060562 L-14.036478817783655,-10.626700307256712" fill="red" fill-opacity="0.6" stroke="black" stroke-width="1" />
<path d="M-19.49456931350067,14.890953668972987 L-17.384325217441038,11.808714566060562 L-14.036478817783655,10.626700307256712" fill="orange" fill-opacity="0.6" stroke="black" stroke-width="1" />
<path d="M-17.384325217441038,-11.808714566060562 L-14.036478817783655,-10.626700307256712 L-11.198679788765926,-3.370069184937896" fill="pink" fill-opacity="0.6" stroke="black" stroke-width="1" />
<path d="M-17.384325217441038,11.808714566060562 L-14.036478817783655,10.626700307256712 L-11.198679788765926,3.370069184937896" fill="purple" fill-opacity="0.6" stroke="black" stroke-width="1" />
<path d="M-14.036478817783655,-10.626700307256712 L-11.198679788765926,-3.370069184937896 L-3.6254325399386444,-2.4056107486941256" fill="purple" fill-opacity="0.6" stroke="black" stroke-width="1" />
<path d="M-14.036478817783655,10.626700307256712 L-11.198679788765926,3.370069184937896 L-3.6254325399386444,2.4056107486941256" fill="orange" fill-opacity="0.6" stroke="black" stroke-width="1" />
<path d="M-11.198679788765926,-3.370069184937896 L-3.6254325399386444,-2.4056107486941256 L0.0,-0.0" fill="blue" fill-opacity="0.6" stroke="black" stroke-width="1" />
<path d="M-11.198679788765926,3.370069184937896 L-3.6254325399386444,2.4056107486941256 L0.0,-0.0" fill="black" fill-opacity="0.6" stroke="black" stroke-width="1" />
<path d="M88.0,-0.0 L87.73878650187633,3.990196846028213 L76.0,-0.0" fill="orange" fill-opacity="0.6" stroke="black" stroke-width="1" />
<path d="M88.0,-0.0 L87.73878650187633,-3.990196846028213 L76.0,-0.0" fill="yellow" fill-opacity="0.6" stroke="black" stroke-width="1" />
<path d="M76.0,-0.0 L74.26807762903674,16.298287159930293 L60.0,-0.0" fill="purple" fill-opacity="0.6" stroke="black" stroke-width="1" />
<path d="M76.0,-0.0 L74.26807762903674,-16.298287159930293 L60.0,-0.0" fill="orange" fill-opacity="0.6" stroke="black" stroke-width="1" />
<path d="M50.0,17.0 L57.495170120018564,24.903574731955832 L53.058746958974126,27.483015080203614" fill="pink" fill-opacity="0.6" stroke="black" stroke-width="1" />
<path d="M50.0,-17.0 L57.495170120018564,-24.903574731955832 L53.058746958974126,-27.483015080203614" fill="blue" fill-opacity="0.6" stroke="black" stroke-width="1" />
<path d="M57.495170120018564,24.903574731955832 L53.058746958974126,27.483015080203614 L50.0,28.0" fill="yellow" fill-opacity="0.6" stroke="black" stroke-width="1" />
<path d="M57.495170120018564,-24.903574731955832 L53.058746958974126,-27.483015080203614 L50.0,-28.0" fill="pink" fill-opacity="0.6" stroke="black" stroke-width="1" />
<path d="M50.0,50.0 L55.0,45.0 L79.0,21.0" fill="black" fill-opacity="0.6" stroke="black" stroke-width="1" />
<path d="M50.0,-50.0 L55.0,-45.0 L79.0,-21.0" fill="pink" fill-opacity="0.6" stroke="black" stroke-width="1" />
<path d="M55.0,45.0 L79.0,21.0 L80.50543068649932,14.890953668972987" fill="yellow" fill-opacity="0.6" stroke="black" stroke-width="1" />
<path d="M55.0,-45.0 L79.0,-21.0 L80.50543068649932,-14.890953668972987" fill="purple" fill-opacity="0.6" stroke="black" stroke-width="1" />
<path d="M79.0,21.0 L80.50543068649932,14.890953668972987 L82.61567478255895,11.808714566060562" fill="orange" fill-opacity="0.6" stroke="black" stroke-width="1" />
<path d="M79.0,-21.0 L80.50543068649932,-14.890953668972987 L82.61567478255895,-11.808714566060562" fill="yellow" fill-opacity="0.6" stroke="black" stroke-width="1" />
<path d="M80.50543068649932,14.890953668972987 L82.61567478255895,11.808714566060562 L85.96352118221634,10.626700307256712" fill="red" fill-opacity="0.6" stroke="black" stroke-width="1" />
<path d="M80.50543068649932,-14.890953668972987 L82.61567478255895,-11.808714566060562 L85.96352118221634,-10.626700307256712" fill="brown" fill-opacity="0.6" stroke="black" stroke-width="1" />
<path d="M82.61567478255895,11.808714566060562 L85.96352118221634,10.626700307256712 L88.80132021123407,3.370069184937896" fill="blue" fill-opacity="0.6" stroke="black" stroke-width="1" />
<path d="M82.61567478255895,-11.808714566060562 L85.96352118221634,-10.626700307256712 L88.80132021123407,-3.370069184937896" fill="blue" fill-opacity="0.6" stroke="black" stroke-width="1" />
<path d="M85.96352118221634,10.626700307256712 L88.80132021123407,3.370069184937896 L96.37456746006136,2.4056107486941256" fill="orange" fill-opacity="0.6" stroke="black" stroke-width="1" />
<path d="M85.96352118221634,-10.626700307256712 L88.80132021123407,-3.370069184937896 L96.37456746006136,-2.4056107486941256" fill="blue" fill-opacity="0.6" stroke="black" stroke-width="1" />
<path d="M88.80132021123407,3.370069184937896 L96.37456746006136,2.4056107486941256 L100.0,-0.0" fill="yellow" fill-opacity="0.6" stroke="black" stroke-width="1" />
<path d="M88.80132021123407,-3.370069184937896 L96.37456746006136,-2.4056107486941256 L100.0,-0.0" fill="orange" fill-opacity="0.6" stroke="black" stroke-width="1" />
<path d="M0.0,-12.0 L3.990196846028213,-12.261213498123668 L0.0,-24.0" fill="blue" fill-opacity="0.6" stroke="black" stroke-width="1" />
<path d="M0.0,12.0 L3.990196846028213,12.261213498123668 L0.0,24.0" fill="purple" fill-opacity="0.6" stroke="black" stroke-width="1" />
<path d="M0.0,88.0 L3.990196846028213,87.73878650187633 L0.0,76.0" fill="orange" fill-opacity="0.6" stroke="black" stroke-width="1" />
<path d="M0.0,-88.0 L3.990196846028213,-87.73878650187633 L0.0,-76.0" fill="purple" fill-opacity="0.6" stroke="black" stroke-width="1" />
<path d="M0.0,-24.0 L16.298287159930293,-25.73192237096326 L0.0,-40.0" fill="brown" fill-opacity="0.6" stroke="black" stroke-width="1" />
<path d="M0.0,24.0 L16.298287159930293,25.73192237096326 L0.0,40.0" fill="brown" fill-opacity="0.6" stroke="black" stroke-width="1" />
<path d="M0.0,76.0 L16.298287159930293,74.26807762903674 L0.0,60.0" fill="brown" fill-opacity="0.6" stroke="black" stroke-width="1" />
<path d="M0.0,-76.0 L16.298287159930293,-74.26807762903674 L0.0,-60.0" fill="blue" fill-opacity="0.6" stroke="black" stroke-width="1" />
<path d="M17.0,-50.0 L24.903574731955832,-42.504829879981436 L27.483015080203614,-46.941253041025874" fill="purple" fill-opacity="0.6" stroke="black" stroke-width="1" />
<path d="M17.0,50.0 L24.903574731955832,42.504829879981436 L27.483015080203614,46.941253041025874" fill="yellow" fill-opacity="0.6" stroke="black" stroke-width="1" />
<path d="M17.0,50.0 L24.903574731955832,57.495170120018564 L27.483015080203614,53.058746958974126" fill="brown" fill-opacity="0.6" stroke="black" stroke-width="1" />
<path d="M17.0,-50.0 L24.903574731955832,-57.495170120018564 L27.483015080203614,-53.058746958974126" fill="red" fill-opacity="0.6" stroke="black" stroke-width="1" />
<path d="M24.903574731955832,-42.504829879981436 L27.483015080203614,-46.941253041025874 L28.0,-50.0" fill="black" fill-opacity="0.6" stroke="black" stroke-width="1" />
<path d="M24.903574731955832,42.504829879981436 L27.483015080203614,46.941253041025874 L28.0,50.0" fill="purple" fill-opacity="0.6" stroke="black" stroke-width="1" />
<path d="M24.903574731955832,57.495170120018564 L27.483015080203614,53.058746958974126 L28.0,50.0" fill="black" fill-opacity="0.6" stroke="black" stroke-width="1" />
<path d="M24.903574731955832,-57.495170120018564 L27.483015080203614,-53.058746958974126 L28.0,-50.0" fill="blue" fill-opacity="0.6" stroke="black" stroke-width="1" />
<path d="M21.0,-21.0 L14.890953668972987,-19.49456931350067 L11.808714566060562,-17.384325217441038" fill="pink" fill-opacity="0.6" stroke="black" stroke-width="1" />
<path d="M21.0,21.0 L14.890953668972987,19.49456931350067 L11.808714566060562,17.384325217441038" fill="pink" fill-opacity="0.6" stroke="black" stroke-width="1" />
<path d="M21.0,79.0 L14.890953668972987,80.50543068649932 L11.808714566060562,82.61567478255895" fill="brown" fill-opacity="0.6" stroke="black" stroke-width="1" />
<path d="M21.0,-79.0 L14.890953668972987,-80.50543068649932 L11.808714566060562,-82.61567478255895" fill="pink" fill-opacity="0.6" stroke="black" stroke-width="1" />
<path d="M14.890953668972987,-19.49456931350067 L11.808714566060562,-17.384325217441038 L10.626700307256712,-14.036478817783655" fill="black" fill-opacity="0.6" stroke="black" stroke-width="1" />
<path d="M14.890953668972987,19.49456931350067 L11.808714566060562,17.384325217441038 L10.626700307256712,14.036478817783655" fill="blue" fill-opacity="0.6" stroke="black" stroke-width="1" />
<path d="M14.890953668972987,80.50543068649932 L11.808714566060562,82.61567478255895 L10.626700307256712,85.96352118221634" fill="purple" fill-opacity="0.6" stroke="black" stroke-width="1" />
<path d="M14.890953668972987,-80.50543068649932 L11.808714566060562,-82.61567478255895 L10.626700307256712,-85.96352118221634" fill="red" fill-opacity="0.6" stroke="black" stroke-width="1" />
<path d="M11.808714566060562,-17.384325217441038 L10.626700307256712,-14.036478817783655 L3.370069184937896,-11.198679788765926" fill="green" fill-opacity="0.6" stroke="black" stroke-width="1" />
<path d="M11.808714566060562,17.384325217441038 L10.626700307256712,14.036478817783655 L3.370069184937896,11.198679788765926" fill="black" fill-opacity="0.6" stroke="black" stroke-width="1" />
<path d="M11.808714566060562,82.61567478255895 L10.626700307256712,85.96352118221634 L3.370069184937896,88.80132021123407" fill="orange" fill-opacity="0.6" stroke="black" stroke-width="1" />
<path d="M11.808714566060562,-82.61567478255895 L10.626700307256712,-85.96352118221634 L3.370069184937896,-88.80132021123407" fill="blue" fill-opacity="0.6" stroke="black" stroke-width="1" />
<path d="M10.626700307256712,-14.036478817783655 L3.370069184937896,-11.198679788765926 L2.4056107486941256,-3.6254325399386444" fill="brown" fill-opacity="0.6" stroke="black" stroke-width="1" />
<path d="M10.626700307256712,14.036478817783655 L3.370069184937896,11.198679788765926 L2.4056107486941256,3.6254325399386444" fill="brown" fill-opacity="0.6" stroke="black" stroke-width="1" />
<path d="M10.626700307256712,85.96352118221634 L3.370069184937896,88.80132021123407 L2.4056107486941256,96.37456746006136" fill="blue" fill-opacity="0.6" stroke="black" stroke-width="1" />
<path d="M10.626700307256712,-85.96352118221634 L3.370069184937896,-88.80132021123407 L2.4056107486941256,-96.37456746006136" fill="red" fill-opacity="0.6" stroke="black" stroke-width="1" />
<path d="M3.370069184937896,-11.198679788765926 L2.4056107486941256,-3.6254325399386444 L0.0,-0.0" fill="pink" fill-opacity="0.6" stroke="black" stroke-width="1" />
<path d="M3.370069184937896,11.198679788765926 L2.4056107486941256,3.6254325399386444 L0.0,-0.0" fill="yellow" fill-opacity="0.6" stroke="black" stroke-width="1" />
<path d="M3.370069184937896,88.80132021123407 L2.4056107486941256,96.37456746006136 L0.0,100.0" fill="blue" fill-opacity="0.6" stroke="black" stroke-width="1" />
<path d="M3.370069184937896,-88.80132021123407 L2.4056107486941256,-96.37456746006136 L0.0,-100.0" fill="yellow" fill-opacity="0.6" stroke="black" stroke-width="1" />
<path d="M0.0,88.0 L-3.990196846028213,87.73878650187633 L0.0,76.0" fill="yellow" fill-opacity="0.6" stroke="black" stroke-width="1" />
<path d="M0.0,-12.0 L-3.990196846028213,-12.261213498123668 L0.0,-24.0" fill="orange" fill-opacity="0.6" stroke="black" stroke-width="1" />
<path d="M0.0,12.0 L-3.990196846028213,12.261213498123666 L0.0,24.0" fill="brown" fill-opacity="0.6" stroke="black" stroke-width="1" />
<path d="M0.0,-88.0 L-3.990196846028213,-87.73878650187633 L0.0,-76.0" fill="brown" fill-opacity="0.6" stroke="black" stroke-width="1" />
<path d="M0.0,76.0 L-16.298287159930293,74.26807762903674 L0.0,60.0" fill="green" fill-opacity="0.6" stroke="black" stroke-width="1" />
<path d="M0.0,-24.0 L-16.298287159930293,-25.73192237096326 L0.0,-40.0" fill="brown" fill-opacity="0.6" stroke="black" stroke-width="1" />
<path d="M0.0,24.0 L-16.298287159930293,25.73192237096326 L0.0,40.0" fill="black" fill-opacity="0.6" stroke="black" stroke-width="1" />
<path d="M0.0,-76.0 L-16.298287159930293,-74.26807762903674 L0.0,-60.0" fill="brown" fill-opacity="0.6" stroke="black" stroke-width="1" />
<path d="M-17.0,50.0 L-24.903574731955832,57.495170120018564 L-27.483015080203614,53.058746958974126" fill="brown" fill-opacity="0.6" stroke="black" stroke-width="1" />
<path d="M-17.0,-50.0 L-24.903574731955832,-42.504829879981436 L-27.483015080203614,-46.941253041025874" fill="pink" fill-opacity="0.6" stroke="black" stroke-width="1" />
<path d="M-17.0,50.0 L-24.903574731955832,42.504829879981436 L-27.483015080203614,46.941253041025874" fill="red" fill-opacity="0.6" stroke="black" stroke-width="1" />
<path d="M-17.0,-50.0 L-24.903574731955832,-57.495170120018564 L-27.483015080203614,-53.058746958974126" fill="blue" fill-opacity="0.6" stroke="black" stroke-width="1" />
<path d="M-24.903574731955832,57.495170120018564 L-27.483015080203614,53.058746958974126 L-28.0,50.0" fill="blue" fill-opacity="0.6" stroke="black" stroke-width="1" />
<path d="M-24.903574731955832,-42.504829879981436 L-27.483015080203614,-46.941253041025874 L-28.0,-50.0" fill="green" fill-opacity="0.6" stroke="black" stroke-width="1" />
<path d="M-24.903574731955832,42.504829879981436 L-27.483015080203614,46.941253041025874 L-28.0,50.0" fill="pink" fill-opacity="0.6" stroke="black" stroke-width="1" />
<path d="M-24.903574731955832,-57.495170120018564 L-27.483015080203614,-53.058746958974126 L-28.0,-50.0" fill="blue" fill-opacity="0.6" stroke="black" stroke-width="1" />
<path d="M-21.0,79.0 L-14.890953668972987,80.50543068649932 L-11.808714566060562,82.61567478255895" fill="brown" fill-opacity="0.6" stroke="black" stroke-width="1" />
<path d="M-21.0,-21.0 L-14.890953668972987,-19.49456931350067 L-11.808714566060562,-17.384325217441038" fill="yellow" fill-opacity="0.6" stroke="black" stroke-width="1" />
<path d="M-21.0,21.0 L-14.890953668972987,19.494569313500676 L-11.808714566060562,17.384325217441045" fill="blue" fill-opacity="0.6" stroke="black" stroke-width="1" />
<path d="M-21.0,-79.0 L-14.890953668972987,-80.50543068649932 L-11.808714566060562,-82.61567478255895" fill="green" fill-opacity="0.6" stroke="black" stroke-width="1" />
<path d="M-14.890953668972987,80.50543068649932 L-11.808714566060562,82.61567478255895 L-10.626700307256712,85.96352118221634" fill="brown" fill-opacity="0.6" stroke="black" stroke-width="1" />
<path d="M-14.890953668972987,-19.49456931350067 L-11.808714566060562,-17.384325217441038 L-10.626700307256712,-14.036478817783655" fill="green" fill-opacity="0.6" stroke="black" stroke-width="1" />
<path d="M-14.890953668972987,19.494569313500676 L-11.808714566060562,17.384325217441045 L-10.626700307256712,14.03647881778366" fill="blue" fill-opacity="0.6" stroke="black" stroke-width="1" />
<path d="M-14.890953668972987,-80.50543068649932 L-11.808714566060562,-82.61567478255895 L-10.626700307256712,-85.96352118221634" fill="green" fill-opacity="0.6" stroke="black" stroke-width="1" />
<path d="M-11.808714566060562,82.61567478255895 L-10.626700307256712,85.96352118221634 L-3.370069184937896,88.80132021123407" fill="blue" fill-opacity="0.6" stroke="black" stroke-width="1" />
<path d="M-11.808714566060562,-17.384325217441038 L-10.626700307256712,-14.036478817783655 L-3.370069184937896,-11.198679788765926" fill="purple" fill-opacity="0.6" stroke="black" stroke-width="1" />
<path d="M-11.808714566060562,17.384325217441045 L-10.626700307256712,14.03647881778366 L-3.370069184937896,11.19867978876593" fill="purple" fill-opacity="0.6" stroke="black" stroke-width="1" />
<path d="M-11.808714566060562,-82.61567478255895 L-10.626700307256712,-85.96352118221634 L-3.370069184937896,-88.80132021123407" fill="brown" fill-opacity="0.6" stroke="black" stroke-width="1" />
<path d="M-10.626700307256712,85.96352118221634 L-3.370069184937896,88.80132021123407 L-2.4056107486941256,96.37456746006136" fill="black" fill-opacity="0.6" stroke="black" stroke-width="1" />
<path d="M-10.626700307256712,-14.036478817783655 L-3.370069184937896,-11.198679788765926 L-2.4056107486941256,-3.6254325399386444" fill="green" fill-opacity="0.6" stroke="black" stroke-width="1" />
<path d="M-10.626700307256712,14.03647881778366 L-3.370069184937896,11.19867978876593 L-2.4056107486941256,3.625432539938643" fill="blue" fill-opacity="0.6" stroke="black" stroke-width="1" />
<path d="M-10.626700307256712,-85.96352118221634 L-3.370069184937896,-88.80132021123407 L-2.4056107486941256,-96.37456746006136" fill="brown" fill-opacity="0.6" stroke="black" stroke-width="1" />
<path d="M-3.370069184937896,88.80132021123407 L-2.4056107486941256,96.37456746006136 L0.0,100.0" fill="yellow" fill-opacity="0.6" stroke="black" stroke-width="1" />
<path d="M-3.370069184937896,-11.198679788765926 L-2.4056107486941256,-3.6254325399386444 L0.0,-0.0" fill="yellow" fill-opacity="0.6" stroke="black" stroke-width="1" />
<path d="M-3.370069184937896,11.19867978876593 L-2.4056107486941256,3.625432539938643 L0.0,-0.0" fill="red" fill-opacity="0.6" stroke="black" stroke-width="1" />
<path d="M-3.370069184937896,-88.80132021123407 L-2.4056107486941256,-96.37456746006136 L0.0,-100.0" fill="yellow" fill-opacity="0.6" stroke="black" stroke-width="1" />
<path d="M-88.0,-0.0 L-87.73878650187633,-3.990196846028213 L-76.0,-0.0" fill="blue" fill-opacity="0.6" stroke="black" stroke-width="1" />
<path d="M-88.0,-0.0 L-87.73878650187633,3.990196846028213 L-76.0,-0.0" fill="orange" fill-opacity="0.6" stroke="black" stroke-width="1" />
<path d="M-76.0,-0.0 L-74.26807762903674,-16.298287159930293 L-60.0,-0.0" fill="purple" fill-opacity="0.6" stroke="black" stroke-width="1" />
<path d="M-76.0,-0.0 L-74.26807762903674,16.298287159930293 L-60.0,-0.0" fill="black" fill-opacity="0.6" stroke="black" stroke-width="1" />
<path d="M-50.0,-17.0 L-57.495170120018564,-24.903574731955832 L-53.058746958974126,-27.483015080203614" fill="brown" fill-opacity="0.6" stroke="black" stroke-width="1" />
<path d="M-50.0,17.0 L-57.495170120018564,24.903574731955832 L-53.058746958974126,27.483015080203614" fill="black" fill-opacity="0.6" stroke="black" stroke-width="1" />
<path d="M-57.495170120018564,-24.903574731955832 L-53.058746958974126,-27.483015080203614 L-50.0,-28.0" fill="yellow" fill-opacity="0.6" stroke="black" stroke-width="1" />
<path d="M-57.495170120018564,24.903574731955832 L-53.058746958974126,27.483015080203614 L-50.0,28.0" fill="black" fill-opacity="0.6" stroke="black" stroke-width="1" />
<path d="M-50.0,-50.0 L-55.0,-45.0 L-79.0,-21.0" fill="purple" fill-opacity="0.6" stroke="black" stroke-width="1" />
<path d="M-50.0,50.0 L-55.0,45.0 L-79.0,21.0" fill="purple" fill-opacity="0.6" stroke="black" stroke-width="1" />
<path d="M-55.0,-45.0 L-79.0,-21.0 L-80.50543068649932,-14.890953668972987" fill="green" fill-opacity="0.6" stroke="black" stroke-width="1" />
<path d="M-55.0,45.0 L-79.0,21.0 L-80.50543068649932,14.890953668972987" fill="pink" fill-opacity="0.6" stroke="black" stroke-width="1" />
<path d="M-79.0,-21.0 L-80.50543068649932,-14.890953668972987 L-82.61567478255895,-11.808714566060562" fill="orange" fill-opacity="0.6" stroke="black" stroke-width="1" />
<path d="M-79.0,21.0 L-80.50543068649932,14.890953668972987 L-82.61567478255895,11.808714566060562" fill="yellow" fill-opacity="0.6" stroke="black" stroke-width="1" />
<path d="M-80.50543068649932,-14.890953668972987 L-82.61567478255895,-11.808714566060562 L-85.96352118221634,-10.626700307256712" fill="blue" fill-opacity="0.6" stroke="black" stroke-width="1" />
<path d="M-80.50543068649932,14.890953668972987 L-82.61567478255895,11.808714566060562 L-85.96352118221634,10.626700307256712" fill="blue" fill-opacity="0.6" stroke="black" stroke-width="1" />
<path d="M-82.61567478255895,-11.808714566060562 L-85.96352118221634,-10.626700307256712 L-88.80132021123407,-3.370069184937896" fill="yellow" fill-opacity="0.6" stroke="black" stroke-width="1" />
<path d="M-82.61567478255895,11.808714566060562 L-85.96352118221634,10.626700307256712 L-88.80132021123407,3.370069184937896" fill="brown" fill-opacity="0.6" stroke="black" stroke-width="1" />
<path d="M-85.96352118221634,-10.626700307256712 L-88.80132021123407,-3.370069184937896 L-96.37456746006136,-2.4056107486941256" fill="green" fill-opacity="0.6" stroke="black" stroke-width="1" />
<path d="M-85.96352118221634,10.626700307256712 L-88.80132021123407,3.370069184937896 L-96.37456746006136,2.4056107486941256" fill="red" fill-opacity="0.6" stroke="black" stroke-width="1" />
<path d="M-88.80132021123407,-3.370069184937896 L-96.37456746006136,-2.4056107486941256 L-100.0,-0.0" fill="green" fill-opacity="0.6" stroke="black" stroke-width="1" />
<path d="M-88.80132021123407,3.370069184937896 L-96.37456746006136,2.4056107486941256 L-100.0,-0.0" fill="purple" fill-opacity="0.6" stroke="black" stroke-width="1" />
</svg>