<?xml version="1.0" encoding="UTF-8"?>
<svg xmlns="http://www.w3.org/2000/svg" xmlns:xlink="http://www.w3.org/1999/xlink"
     width="250" height="250" viewBox="-125.0 -125.0 250 250">
<defs>
</defs>
<path d="M0.0,-0.0 L10.415416740316152,-1.6994934584453225 L11.0,-0.0" fill="purple" fill-opacity="0.6" stroke="black" stroke-width="1" />
<path d="M0.0,-0.0 L10.415416740316152,1.6994934584453225 L11.0,-0.0" fill="brown" fill-opacity="0.6" stroke="black" stroke-width="1" />
<path d="M11.0,-0.0 L11.441979726827995,-2.0720213976029522 L11.451687987453452,-3.2278282912308107" fill="red" fill-opacity="0.6" stroke="black" stroke-width="1" />
<path d="M11.0,-0.0 L11.441979726827995,2.0720213976029522 L11.451687987453452,3.2278282912308107" fill="pink" fill-opacity="0.6" stroke="black" stroke-width="1" />
<path d="M11.441979726827995,-2.0720213976029522 L11.451687987453452,-3.2278282912308107 L18.0,-0.0" fill="green" fill-opacity="0.6" stroke="black" stroke-width="1" />
<path d="M11.441979726827995,2.0720213976029522 L11.451687987453452,3.2278282912308107 L18.0,-0.0" fill="brown" fill-opacity="0.6" stroke="black" stroke-width="1" />
<path d="M18.0,-0.0 L18.53417594965419,-3.5415303545255625 L23.091117192770934,-4.150009370692385" fill="black" fill-opacity="0.6" stroke="black" stroke-width="1" />
<path d="M18.0,-0.0 L18.53417594965419,3.5415303545255625 L23.091117192770934,4.150009370692385" fill="orange" fill-opacity="0.6" stroke="black" stroke-width="1" />
<path d="M18.53417594965419,-3.5415303545255625 L23.091117192770934,-4.150009370692385 L25.829253808538624,-4.2655959628417" fill="green" fill-opacity="0.6" stroke="black" stroke-width="1" />
<path d="M18.53417594965419,3.5415303545255625 L23.091117192770934,4.150009370692385 L25.829253808538624,4.2655959628417" fill="purple" fill-opacity="0.6" stroke="black" stroke-width="1" />
<path d="M23.091117192770934,-4.150009370692385 L25.829253808538624,-4.2655959628417 L34.385897364583464,-6.936226296379005" fill="blue" fill-opacity="0.6" stroke="black" stroke-width="1" />
<path d="M23.091117192770934,4.150009370692385 L25.829253808538624,4.2655959628417 L34.385897364583464,6.936226296379005" fill="orange" fill-opacity="0.6" stroke="black" stroke-width="1" />
<path d="M25.829253808538624,-4.2655959628417 L34.385897364583464,-6.936226296379005 L40.0,-0.0" fill="black" fill-opacity="0.6" stroke="black" stroke-width="1" />
<path d="M25.829253808538624,4.2655959628417 L34.385897364583464,6.936226296379005 L40.0,-0.0" fill="purple" fill-opacity="0.6" stroke="black" stroke-width="1" />
<path d="M47.0,53.0 L40.0,60.0 L27.0,73.0" fill="yellow" fill-opacity="0.6" stroke="black" stroke-width="1" />
<path d="M47.0,-53.0 L40.0,-60.0 L27.0,-73.0" fill="green" fill-opacity="0.6" stroke="black" stroke-width="1" />
<path d="M50.0,-3.0 L35.26038529521909,-21.352363946666152 L50.0,-22.0" fill="blue" fill-opacity="0.6" stroke="black" stroke-width="1" />
<path d="M50.0,3.0 L35.26038529521909,21.352363946666152 L50.0,22.0" fill="orange" fill-opacity="0.6" stroke="black" stroke-width="1" />
<path d="M50.0,-22.0 L46.25530677666672,-22.22653930859104 L50.0,-23.0" fill="pink" fill-opacity="0.6" stroke="black" stroke-width="1" />
<path d="M50.0,22.0 L46.25530677666672,22.22653930859104 L50.0,23.0" fill="yellow" fill-opacity="0.6" stroke="black" stroke-width="1" />
<path d="M50.0,-23.0 L47.878253766334396,-30.661202347992834 L50.0,-33.0" fill="purple" fill-opacity="0.6" stroke="black" stroke-width="1" />
<path d="M50.0,23.0 L47.878253766334396,30.661202347992834 L50.0,33.0" fill="green" fill-opacity="0.6" stroke="black" stroke-width="1" />
<path d="M50.0,-33.0 L48.67570791666428,-34.886844991475094 L50.0,-44.0" fill="yellow" fill-opacity="0.6" stroke="black" stroke-width="1" />
<path d="M50.0,33.0 L48.67570791666428,34.886844991475094 L50.0,44.0" fill="red" fill-opacity="0.6" stroke="black" stroke-width="1" />
<path d="M44.0,50.0 L47.0,53.0 L40.0,60.0" fill="purple" fill-opacity="0.6" stroke="black" stroke-width="1" />
<path d="M44.0,-50.0 L47.0,-53.0 L40.0,-60.0" fill="yellow" fill-opacity="0.6" stroke="black" stroke-width="1" />
<path d="M40.0,60.0 L27.0,73.0 L16.0,84.0" fill="pink" fill-opacity="0.6" stroke="black" stroke-width="1" />
<path d="M40.0,-60.0 L27.0,-73.0 L16.0,-84.0" fill="pink" fill-opacity="0.6" stroke="black" stroke-width="1" />
<path d="M27.0,73.0 L16.0,84.0 L1.579889348772713,93.98365674392974" fill="orange" fill-opacity="0.6" stroke="black" stroke-width="1" />
<path d="M27.0,-73.0 L16.0,-84.0 L1.579889348772713,-93.98365674392974" fill="yellow" fill-opacity="0.6" stroke="black" stroke-width="1" />
<path d="M16.0,-16.0 L6.016343256070266,-1.579889348772713 L5.253510889847223,-1.4376258231673" fill="pink" fill-opacity="0.6" stroke="black" stroke-width="1" />
<path d="M16.0,16.0 L6.016343256070266,1.579889348772713 L5.253510889847223,1.4376258231673" fill="green" fill-opacity="0.6" stroke="black" stroke-width="1" />
<path d="M6.016343256070266,-1.579889348772713 L5.253510889847223,-1.4376258231673 L4.592635418837593,-1.0649232837170841" fill="pink" fill-opacity="0.6" stroke="black" stroke-width="1" />
<path d="M6.016343256070266,1.579889348772713 L5.253510889847223,1.4376258231673 L4.592635418837593,1.0649232837170841" fill="purple" fill-opacity="0.6" stroke="black" stroke-width="1" />
<path d="M5.253510889847223,-1.4376258231673 L4.592635418837593,-1.0649232837170841 L4.062476337088089,-0.5780502331952596" fill="purple" fill-opacity="0.6" stroke="black" stroke-width="1" />
<path d="M5.253510889847223,1.4376258231673 L4.592635418837593,1.0649232837170841 L4.062476337088089,0.5780502331952596" fill="red" fill-opacity="0.6" stroke="black" stroke-width="1" />
<path d="M4.592635418837593,-1.0649232837170841 L4.062476337088089,-0.5780502331952596 L2.0,-2.0" fill="brown" fill-opacity="0.6" stroke="black" stroke-width="1" />
<path d="M4.592635418837593,1.0649232837170841 L4.062476337088089,0.5780502331952596 L2.0,2.0" fill="green" fill-opacity="0.6" stroke="black" stroke-width="1" />
<path d="M0.5780502331952596,95.93752366291191 L2.0,98.0 L0.4535627606463269,98.09430129436828" fill="yellow" fill-opacity="0.6" stroke="black" stroke-width="1" />
<path d="M0.5780502331952596,-95.93752366291191 L2.0,-98.0 L0.4535627606463269,-98.09430129436828" fill="orange" fill-opacity="0.6" stroke="black" stroke-width="1" />
<path d="M2.0,-2.0 L1.9056987056317198,-0.4535627606463269 L1.137741918139018,-0.29759593351854735" fill="red" fill-opacity="0.6" stroke="black" stroke-width="1" />
<path d="M2.0,2.0 L1.9056987056317198,0.4535627606463269 L1.137741918139018,0.29759593351854735" fill="red" fill-opacity="0.6" stroke="black" stroke-width="1" />
<path d="M1.9056987056317198,-0.4535627606463269 L1.137741918139018,-0.29759593351854735 L1.0,-1.0" fill="black" fill-opacity="0.6" stroke="black" stroke-width="1" />
<path d="M1.9056987056317198,0.4535627606463269 L1.137741918139018,0.29759593351854735 L1.0,1.0" fill="pink" fill-opacity="0.6" stroke="black" stroke-width="1" />
<path d="M0.29759593351854735,98.86225808186097 L1.0,99.0 L0.0,100.0" fill="yellow" fill-opacity="0.6" stroke="black" stroke-width="1" />
<path d="M0.29759593351854735,-98.86225808186097 L1.0,-99.0 L0.0,-100.0" fill="red" fill-opacity="0.6" stroke="black" stroke-width="1" />
<path d="M0.0,-0.0 L-10.415416740316152,-1.6994934584453225 L-11.0,-0.0" fill="blue" fill-opacity="0.6" stroke="black" stroke-width="1" />
<path d="M0.0,-0.0 L-10.415416740316152,1.6994934584453225 L-11.0,-0.0" fill="orange" fill-opacity="0.6" stroke="black" stroke-width="1" />
<path d="M-11.0,-0.0 L-11.441979726827995,-2.0720213976029522 L-11.451687987453452,-3.2278282912308107" fill="yellow" fill-opacity="0.6" stroke="black" stroke-width="1" />
<path d="M-11.0,-0.0 L-11.441979726827995,2.0720213976029522 L-11.451687987453452,3.2278282912308107" fill="purple" fill-opacity="0.6" stroke="black" stroke-width="1" />
<path d="M-11.441979726827995,-2.0720213976029522 L-11.451687987453452,-3.2278282912308107 L-18.0,-0.0" fill="pink" fill-opacity="0.6" stroke="black" stroke-width="1" />
<path d="M-11.441979726827995,2.0720213976029522 L-11.451687987453452,3.2278282912308107 L-18.0,-0.0" fill="purple" fill-opacity="0.6" stroke="black" stroke-width="1" />
<path d="M-18.0,-0.0 L-18.53417594965419,-3.5415303545255625 L-23.091117192770934,-4.150009370692385" fill="purple" fill-opacity="0.6" stroke="black" stroke-width="1" />
<path d="M-18.0,-0.0 L-18.53417594965419,3.5415303545255625 L-23.091117192770934,4.150009370692385" fill="green" fill-opacity="0.6" stroke="black" stroke-width="1" />
<path d="M-18.53417594965419,-3.5415303545255625 L-23.091117192770934,-4.150009370692385 L-25.829253808538624,-4.2655959628417" fill="red" fill-opacity="0.6" stroke="black" stroke-width="1" />
<path d="M-18.53417594965419,3.5415303545255625 L-23.091117192770934,4.150009370692385 L-25.829253808538624,4.2655959628417" fill="orange" fill-opacity="0.6" stroke="black" stroke-width="1" />
<path d="M-23.091117192770934,-4.150009370692385 L-25.829253808538624,-4.2655959628417 L-34.385897364583464,-6.936226296379005" fill="brown" fill-opacity="0.6" stroke="black" stroke-width="1" />
<path d="M-23.091117192770934,4.150009370692385 L-25.829253808538624,4.2655959628417 L-34.385897364583464,6.936226296379005" fill="blue" fill-opacity="0.6" stroke="black" stroke-width="1" />
<path d="M-25.829253808538624,-4.2655959628417 L-34.385897364583464,-6.936226296379005 L-40.0,-0.0" fill="orange" fill-opacity="0.6" stroke="black" stroke-width="1" />
<path d="M-25.829253808538624,4.2655959628417 L-34.385897364583464,6.936226296379005 L-40.0,-0.0" fill="red" fill-opacity="0.6" stroke="black" stroke-width="1" />
<path d="M-47.0,53.0 L-40.0,60.0 L-27.0,73.0" fill="green" fill-opacity="0.6" stroke="black" stroke-width="1" />
<path d="M-47.0,-53.0 L-40.0,-60.0 L-27.0,-73.0" fill="blue" fill-opacity="0.6" stroke="black" stroke-width="1" />
<path d="M-50.0,-3.0 L-35.26038529521909,-21.352363946666152 L-50.0,-22.0" fill="red" fill-opacity="0.6" stroke="black" stroke-width="1" />
<path d="M-50.0,3.0 L-35.26038529521909,21.352363946666152 L-50.0,22.0" fill="pink" fill-opacity="0.6" stroke="black" stroke-width="1" />
<path d="M-50.0,-22.0 L-46.25530677666672,-22.22653930859104 L-50.0,-23.0" fill="orange" fill-opacity="0.6" stroke="black" stroke-width="1" />
<path d="M-50.0,22.0 L-46.25530677666672,22.22653930859104 L-50.0,23.0" fill="purple" fill-opacity="0.6" stroke="black" stroke-width="1" />
<path d="M-50.0,-23.0 L-47.878253766334396,-30.661202347992834 L-50.0,-33.0" fill="orange" fill-opacity="0.6" stroke="black" stroke-width="1" />
<path d="M-50.0,23.0 L-47.878253766334396,30.661202347992834 L-50.0,33.0" fill="green" fill-opacity="0.6" stroke="black" stroke-width="1" />
<path d="M-50.0,-33.0 L-48.67570791666428,-34.886844991475094 L-50.0,-44.0" fill="brown" fill-opacity="0.6" stroke="black" stroke-width="1" />
<path d="M-50.0,33.0 L-48.67570791666428,34.886844991475094 L-50.0,44.0" fill="black" fill-opacity="0.6" stroke="black" stroke-width="1" />
<path d="M-44.0,50.0 L-47.0,53.0 L-40.0,60.0" fill="orange" fill-opacity="0.6" stroke="black" stroke-width="1" />
<path d="M-44.0,-50.0 L-47.0,-53.0 L-40.0,-60.0" fill="brown" fill-opacity="0.6" stroke="black" stroke-width="1" />
<path d="M-40.0,60.0 L-27.0,73.0 L-16.0,84.0" fill="blue" fill-opacity="0.6" stroke="black" stroke-width="1" />
<path d="M-40.0,-60.0 L-27.0,-73.0 L-16.0,-84.0" fill="pink" fill-opacity="0.6" stroke="black" stroke-width="1" />
<path d="M-27.0,73.0 L-16.0,84.0 L-1.579889348772713,93.98365674392973" fill="pink" fill-opacity="0.6" stroke="black" stroke-width="1" />
<path d="M-27.0,-73.0 L-16.0,-84.0 L-1.579889348772713,-93.98365674392974" fill="purple" fill-opacity="0.6" stroke="black" stroke-width="1" />
<path d="M-16.0,-16.0 L-6.016343256070266,-1.579889348772713 L-5.253510889847223,-1.4376258231673" fill="orange" fill-opacity="0.6" stroke="black" stroke-width="1" />
<path d="M-16.0,16.0 L-6.016343256070266,1.579889348772713 L-5.253510889847223,1.4376258231673" fill="yellow" fill-opacity="0.6" stroke="black" stroke-width="1" />
<path d="M-6.016343256070266,-1.579889348772713 L-5.253510889847223,-1.4376258231673 L-4.592635418837593,-1.0649232837170841" fill="black" fill-opacity="0.6" stroke="black" stroke-width="1" />
<path d="M-6.016343256070266,1.579889348772713 L-5.253510889847223,1.4376258231673 L-4.592635418837593,1.0649232837170841" fill="black" fill-opacity="0.6" stroke="black" stroke-width="1" />
<path d="M-5.253510889847223,-1.4376258231673 L-4.592635418837593,-1.0649232837170841 L-4.062476337088089,-0.5780502331952596" fill="pink" fill-opacity="0.6" stroke="black" stroke-width="1" />
<path d="M-5.253510889847223,1.4376258231673 L-4.592635418837593,1.0649232837170841 L-4.062476337088089,0.5780502331952596" fill="brown" fill-opacity="0.6" stroke="black" stroke-width="1" />
<path d="M-4.592635418837593,-1.0649232837170841 L-4.062476337088089,-0.5780502331952596 L-2.0,-2.0" fill="pink" fill-opacity="0.6" stroke="black" stroke-width="1" />
<path d="M-4.592635418837593,1.0649232837170841 L-4.062476337088089,0.5780502331952596 L-2.0,2.0" fill="red" fill-opacity="0.6" stroke="black" stroke-width="1" />
<path d="M-0.5780502331952596,95.93752366291191 L-2.0,98.0 L-0.4535627606463269,98.09430129436828" fill="green" fill-opacity="0.6" stroke="black" stroke-width="1" />
<path d="M-0.5780502331952596,-95.93752366291191 L-2.0,-98.0 L-0.4535627606463269,-98.09430129436828" fill="brown" fill-opacity="0.6" stroke="black" stroke-width="1" />
<path d="M-2.0,-2.0 L-1.9056987056317198,-0.4535627606463269 L-1.137741918139018,-0.29759593351854735" fill="black" fill-opacity="0.6" stroke="black" stroke-width="1" />
<path d="M-2.0,2.0 L-1.9056987056317198,0.4535627606463269 L-1.137741918139018,0.29759593351854735" fill="red" fill-opacity="0.6" stroke="black" stroke-width="1" />
<path d="M-1.9056987056317198,-0.4535627606463269 L-1.137741918139018,-0.29759593351854735 L-1.0,-1.0" fill="pink" fill-opacity="0.6" stroke="black" stroke-width="1" />
<path d="M-1.9056987056317198,0.4535627606463269 L-1.137741918139018,0.29759593351854735 L-1.0,1.0" fill="purple" fill-opacity="0.6" stroke="black" stroke-width="1" />
<path d="M-0.29759593351854735,98.86225808186099 L-1.0,99.0 L0.0,100.0" fill="pink" fill-opacity="0.6" stroke="black" stroke-width="1" />
<path d="M-0.29759593351854735,-98.86225808186097 L-1.0,-99.0 L0.0,-100.0" fill="pink" fill-opacity="0.6" stroke="black" stroke-width="1" />
<path d="M100.0,-0.0 L89.58458325968385,1.6994934584453225 L89.0,-0.0" fill="purple" fill-opacity="0.6" stroke="black" stroke-width="1" />
<path d="M100.0,-0.0 L89.58458325968385,-1.6994934584453225 L89.0,-0.0" fill="black" fill-opacity="0.6" stroke="black" stroke-width="1" />
<path d="M89.0,-0.0 L88.558020273172,2.0720213976029522 L88.54831201254655,3.2278282912308107" fill="blue" fill-opacity="0.6" stroke="black" stroke-width="1" />
<path d="M89.0,-0.0 L88.558020273172,-2.0720213976029522 L88.54831201254655,-3.2278282912308107" fill="yellow" fill-opacity="0.6" stroke="black" stroke-width="1" />
<path d="M88.558020273172,2.0720213976029522 L88.54831201254655,3.2278282912308107 L82.0,-0.0" fill="purple" fill-opacity="0.6" stroke="black" stroke-width="1" />
<path d="M88.558020273172,-2.0720213976029522 L88.54831201254655,-3.2278282912308107 L82.0,-0.0" fill="green" fill-opacity="0.6" stroke="black" stroke-width="1" />
<path d="M82.0,-0.0 L81.46582405034582,3.5415303545255625 L76.90888280722906,4.150009370692385" fill="red" fill-opacity="0.6" stroke="black" stroke-width="1" />
<path d="M82.0,-0.0 L81.46582405034582,-3.5415303545255625 L76.90888280722906,-4.150009370692385" fill="yellow" fill-opacity="0.6" stroke="black" stroke-width="1" />
<path d="M81.46582405034582,3.5415303545255625 L76.90888280722906,4.150009370692385 L74.17074619146138,4.2655959628417" fill="black" fill-opacity="0.6" stroke="black" stroke-width="1" />
<path d="M81.46582405034582,-3.5415303545255625 L76.90888280722906,-4.150009370692385 L74.17074619146138,-4.2655959628417" fill="green" fill-opacity="0.6" stroke="black" stroke-width="1" />
<path d="M76.90888280722906,4.150009370692385 L74.17074619146138,4.2655959628417 L65.61410263541654,6.936226296379005" fill="purple" fill-opacity="0.6" stroke="black" stroke-width="1" />
<path d="M76.90888280722906,-4.150009370692385 L74.17074619146138,-4.2655959628417 L65.61410263541654,-6.936226296379005" fill="yellow" fill-opacity="0.6" stroke="black" stroke-width="1" />
<path d="M74.17074619146138,4.2655959628417 L65.61410263541654,6.936226296379005 L60.0,-0.0" fill="yellow" fill-opacity="0.6" stroke="black" stroke-width="1" />
<path d="M74.17074619146138,-4.2655959628417 L65.61410263541654,-6.936226296379005 L60.0,-0.0" fill="yellow" fill-opacity="0.6" stroke="black" stroke-width="1" />
<path d="M53.0,47.0 L60.0,40.0 L73.0,27.0" fill="orange" fill-opacity="0.6" stroke="black" stroke-width="1" />
<path d="M53.0,-47.0 L60.0,-40.0 L73.0,-27.0" fill="black" fill-opacity="0.6" stroke="black" stroke-width="1" />
<path d="M50.0,3.0 L64.7396147047809,21.352363946666152 L50.0,22.0" fill="yellow" fill-opacity="0.6" stroke="black" stroke-width="1" />
<path d="M50.0,-3.0 L64.7396147047809,-21.352363946666152 L50.0,-22.0" fill="blue" fill-opacity="0.6" stroke="black" stroke-width="1" />
<path d="M50.0,22.0 L53.74469322333328,22.22653930859104 L50.0,23.0" fill="orange" fill-opacity="0.6" stroke="black" stroke-width="1" />
<path d="M50.0,-22.0 L53.74469322333328,-22.22653930859104 L50.0,-23.0" fill="orange" fill-opacity="0.6" stroke="black" stroke-width="1" />
<path d="M50.0,23.0 L52.121746233665604,30.661202347992834 L50.0,33.0" fill="pink" fill-opacity="0.6" stroke="black" stroke-width="1" />
<path d="M50.0,-23.0 L52.121746233665604,-30.661202347992834 L50.0,-33.0" fill="brown" fill-opacity="0.6" stroke="black" stroke-width="1" />
<path d="M50.0,33.0 L51.32429208333572,34.886844991475094 L50.0,44.0" fill="green" fill-opacity="0.6" stroke="black" stroke-width="1" />
<path d="M50.0,-33.0 L51.32429208333572,-34.886844991475094 L50.0,-44.0" fill="red" fill-opacity="0.6" stroke="black" stroke-width="1" />
<path d="M50.0,44.0 L53.0,47.0 L60.0,40.0" fill="black" fill-opacity="0.6" stroke="black" stroke-width="1" />
<path d="M50.0,-44.0 L53.0,-47.0 L60.0,-40.0" fill="pink" fill-opacity="0.6" stroke="black" stroke-width="1" />
<path d="M60.0,40.0 L73.0,27.0 L84.0,16.0" fill="brown" fill-opacity="0.6" stroke="black" stroke-width="1" />
<path d="M60.0,-40.0 L73.0,-27.0 L84.0,-16.0" fill="purple" fill-opacity="0.6" stroke="black" stroke-width="1" />
<path d="M73.0,27.0 L84.0,16.0 L93.98365674392974,1.579889348772713" fill="green" fill-opacity="0.6" stroke="black" stroke-width="1" />
<path d="M73.0,-27.0 L84.0,-16.0 L93.98365674392974,-1.579889348772713" fill="orange" fill-opacity="0.6" stroke="black" stroke-width="1" />
<path d="M84.0,16.0 L93.98365674392974,1.579889348772713 L94.74648911015278,1.4376258231673" fill="orange" fill-opacity="0.6" stroke="black" stroke-width="1" />
<path d="M84.0,-16.0 L93.98365674392974,-1.579889348772713 L94.74648911015278,-1.4376258231673" fill="brown" fill-opacity="0.6" stroke="black" stroke-width="1" />
<path d="M93.98365674392974,1.579889348772713 L94.74648911015278,1.4376258231673 L95.4073645811624,1.0649232837170841" fill="yellow" fill-opacity="0.6" stroke="black" stroke-width="1" />
<path d="M93.98365674392974,-1.579889348772713 L94.74648911015278,-1.4376258231673 L95.4073645811624,-1.0649232837170841" fill="black" fill-opacity="0.6" stroke="black" stroke-width="1" />
<path d="M94.74648911015278,1.4376258231673 L95.4073645811624,1.0649232837170841 L95.93752366291191,0.5780502331952596" fill="pink" fill-opacity="0.6" stroke="black" stroke-width="1" />
<path d="M94.74648911015278,-1.4376258231673 L95.4073645811624,-1.0649232837170841 L95.93752366291191,-0.5780502331952596" fill="brown" fill-opacity="0.6" stroke="black" stroke-width="1" />
<path d="M95.4073645811624,1.0649232837170841 L95.93752366291191,0.5780502331952596 L98.0,2.0" fill="black" fill-opacity="0.6" stroke="black" stroke-width="1" />
<path d="M95.4073645811624,-1.0649232837170841 L95.93752366291191,-0.5780502331952596 L98.0,-2.0" fill="purple" fill-opacity="0.6" stroke="black" stroke-width="1" />
<path d="M95.93752366291191,0.5780502331952596 L98.0,2.0 L98.09430129436828,0.4535627606463269" fill="brown" fill-opacity="0.6" stroke="black" stroke-width="1" />
<path d="M95.93752366291191,-0.5780502331952596 L98.0,-2.0 L98.09430129436828,-0.4535627606463269" fill="black" fill-opacity="0.6" stroke="black" stroke-width="1" />
<path d="M98.0,2.0 L98.09430129436828,0.4535627606463269 L98.86225808186097,0.29759593351854735" fill="red" fill-opacity="0.6" stroke="black" stroke-width="1" />
<path d="M98.0,-2.0 L98.09430129436828,-0.4535627606463269 L98.86225808186097,-0.29759593351854735" fill="pink" fill-opacity="0.6" stroke="black" stroke-width="1" />
<path d="M98.09430129436828,0.4535627606463269 L98.86225808186097,0.29759593351854735 L99.0,1.0" fill="yellow" fill-opacity="0.6" stroke="black" stroke-width="1" />
<path d="M98.09430129436828,-0.4535627606463269 L98.86225808186097,-0.29759593351854735 L99.0,-1.0" fill="purple" fill-opacity="0.6" stroke="black" stroke-width="1" />
<path d="M98.86225808186097,0.29759593351854735 L99.0,1.0 L100.0,-0.0" fill="red" fill-opacity="0.6" stroke="black" stroke-width="1" />
<path d="M98.86225808186097,-0.29759593351854735 L99.0,-1.0 L100.0,-0.0" fill="pink" fill-opacity="0.6" stroke="black" stroke-width="1" />
<path d="M0.0,-0.0 L1.6994934584453225,-10.415416740316152 L0.0,-11.0" fill="red" fill-opacity="0.6" stroke="black" stroke-width="1" />
<path d="M0.0,-0.0 L1.6994934584453225,10.415416740316152 L0.0,11.0" fill="red" fill-opacity="0.6" stroke="black" stroke-width="1" />
<path d="M0.0,100.0 L1.6994934584453225,89.58458325968385 L0.0,89.0" fill="red" fill-opacity="0.6" stroke="black" stroke-width="1" />
<path d="M0.0,-100.0 L1.6994934584453225,-89.58458325968385 L0.0,-89.0" fill="brown" fill-opacity="0.6" stroke="black" stroke-width="1" />
<path d="M0.0,-11.0 L2.0720213976029522,-11.441979726827995 L3.2278282912308107,-11.451687987453452" fill="blue" fill-opacity="0.6" stroke="black" stroke-width="1" />
<path d="M0.0,11.0 L2.0720213976029522,11.441979726827995 L3.2278282912308107,11.451687987453452" fill="orange" fill-opacity="0.6" stroke="black" stroke-width="1" />
<path d="M0.0,89.0 L2.0720213976029522,88.558020273172 L3.2278282912308107,88.54831201254655" fill="pink" fill-opacity="0.6" stroke="black" stroke-width="1" />
<path d="M0.0,-89.0 L2.0720213976029522,-88.558020273172 L3.2278282912308107,-88.54831201254655" fill="purple" fill-opacity="0.6" stroke="black" stroke-width="1" />
<path d="M2.0720213976029522,-11.441979726827995 L3.2278282912308107,-11.451687987453452 L0.0,-18.0" fill="blue" fill-opacity="0.6" stroke="black" stroke-width="1" />
<path d="M2.0720213976029522,11.441979726827995 L3.2278282912308107,11.451687987453452 L0.0,18.0" fill="purple" fill-opacity="0.6" stroke="black" stroke-width="1" />
<path d="M2.0720213976029522,88.558020273172 L3.2278282912308107,88.54831201254655 L0.0,82.0" fill="black" fill-opacity="0.6" stroke="black" stroke-width="1" />
<path d="M2.0720213976029522,-88.558020273172 L3.2278282912308107,-88.54831201254655 L0.0,-82.0" fill="purple" fill-opacity="0.6" stroke="black" stroke-width="1" />
<path d="M0.0,-18.0 L3.5415303545255625,-18.53417594965419 L4.150009370692385,-23.091117192770934" fill="blue" fill-opacity="0.6" stroke="black" stroke-width="1" />
<path d="M0.0,18.0 L3.5415303545255625,18.53417594965419 L4.150009370692385,23.091117192770934" fill="orange" fill-opacity="0.6" stroke="black" stroke-width="1" />
<path d="M0.0,82.0 L3.5415303545255625,81.46582405034582 L4.150009370692385,76.90888280722906" fill="pink" fill-opacity="0.6" stroke="black" stroke-width="1" />
<path d="M0.0,-82.0 L3.5415303545255625,-81.46582405034582 L4.150009370692385,-76.90888280722906" fill="purple" fill-opacity="0.6" stroke="black" stroke-width="1" />
<path d="M3.5415303545255625,-18.53417594965419 L4.150009370692385,-23.091117192770934 L4.2655959628417,-25.829253808538624" fill="yellow" fill-opacity="0.6" stroke="black" stroke-width="1" />
<path d="M3.5415303545255625,18.53417594965419 L4.150009370692385,23.091117192770934 L4.2655959628417,25.829253808538624" fill="brown" fill-opacity="0.6" stroke="black" stroke-width="1" />
<path d="M3.5415303545255625,81.46582405034582 L4.150009370692385,76.90888280722906 L4.2655959628417,74.17074619146138" fill="purple" fill-opacity="0.6" stroke="black" stroke-width="1" />
<path d="M3.5415303545255625,-81.46582405034582 L4.150009370692385,-76.90888280722906 L4.2655959628417,-74.17074619146138" fill="green" fill-opacity="0.6" stroke="black" stroke-width="1" />
<path d="M4.150009370692385,-23.091117192770934 L4.2655959628417,-25.829253808538624 L6.936226296379005,-34.385897364583464" fill="black" fill-opacity="0.6" stroke="black" stroke-width="1" />
<path d="M4.150009370692385,23.091117192770934 L4.2655959628417,25.829253808538624 L6.936226296379005,34.385897364583464" fill="red" fill-opacity="0.6" stroke="black" stroke-width="1" />
<path d="M4.150009370692385,76.90888280722906 L4.2655959628417,74.17074619146138 L6.936226296379005,65.61410263541654" fill="yellow" fill-opacity="0.6" stroke="black" stroke-width="1" />
<path d="M4.150009370692385,-76.90888280722906 L4.2655959628417,-74.17074619146138 L6.936226296379005,-65.61410263541654" fill="green" fill-opacity="0.6" stroke="black" stroke-width="1" />
<path d="M4.2655959628417,-25.829253808538624 L6.936226296379005,-34.385897364583464 L0.0,-40.0" fill="orange" fill-opacity="0.6" stroke="black" stroke-width="1" />
<path d="M4.2655959628417,25.829253808538624 L6.936226296379005,34.385897364583464 L0.0,40.0" fill="orange" fill-opacity="0.6" stroke="black" stroke-width="1" />
<path d="M4.2655959628417,74.17074619146138 L6.936226296379005,65.61410263541654 L0.0,60.0" fill="purple" fill-opacity="0.6" stroke="black" stroke-width="1" />
<path d="M4.2655959628417,-74.17074619146138 L6.936226296379005,-65.61410263541654 L0.0,-60.0" fill="blue" fill-opacity="0.6" stroke="black" stroke-width="1" />
<path d="M3.0,-50.0 L21.352363946666152,-35.26038529521909 L22.0,-50.0" fill="pink" fill-opacity="0.6" stroke="black" stroke-width="1" />
<path d="M3.0,50.0 L21.352363946666152,35.26038529521909 L22.0,50.0" fill="orange" fill-opacity="0.6" stroke="black" stroke-width="1" />
<path d="M3.0,50.0 L21.352363946666152,64.7396147047809 L22.0,50.0" fill="purple" fill-opacity="0.6" stroke="black" stroke-width="1" />
<path d="M3.0,-50.0 L21.352363946666152,-64.7396147047809 L22.0,-50.0" fill="pink" fill-opacity="0.6" stroke="black" stroke-width="1" />
<path d="M22.0,-50.0 L22.22653930859104,-46.25530677666672 L23.0,-50.0" fill="orange" fill-opacity="0.6" stroke="black" stroke-width="1" />
<path d="M22.0,50.0 L22.22653930859104,46.25530677666672 L23.0,50.0" fill="purple" fill-opacity="0.6" stroke="black" stroke-width="1" />
<path d="M22.0,50.0 L22.22653930859104,53.74469322333328 L23.0,50.0" fill="green" fill-opacity="0.6" stroke="black" stroke-width="1" />
<path d="M22.0,-50.0 L22.22653930859104,-53.74469322333328 L23.0,-50.0" fill="pink" fill-opacity="0.6" stroke="black" stroke-width="1" />
<path d="M23.0,-50.0 L30.661202347992834,-47.878253766334396 L33.0,-50.0" fill="green" fill-opacity="0.6" stroke="black" stroke-width="1" />
<path d="M23.0,50.0 L30.661202347992834,47.878253766334396 L33.0,50.0" fill="black" fill-opacity="0.6" stroke="black" stroke-width="1" />
<path d="M23.0,50.0 L30.661202347992834,52.121746233665604 L33.0,50.0" fill="yellow" fill-opacity="0.6" stroke="black" stroke-width="1" />
<path d="M23.0,-50.0 L30.661202347992834,-52.121746233665604 L33.0,-50.0" fill="purple" fill-opacity="0.6" stroke="black" stroke-width="1" />
<path d="M33.0,-50.0 L34.886844991475094,-48.67570791666428 L44.0,-50.0" fill="pink" fill-opacity="0.6" stroke="black" stroke-width="1" />
<path d="M33.0,50.0 L34.886844991475094,48.67570791666428 L44.0,50.0" fill="pink" fill-opacity="0.6" stroke="black" stroke-width="1" />
<path d="M33.0,50.0 L34.886844991475094,51.32429208333572 L44.0,50.0" fill="yellow" fill-opacity="0.6" stroke="black" stroke-width="1" />
<path d="M33.0,-50.0 L34.886844991475094,-51.32429208333572 L44.0,-50.0" fill="blue" fill-opacity="0.6" stroke="black" stroke-width="1" />
<path d="M16.0,-16.0 L1.579889348772713,-6.016343256070266 L1.4376258231673,-5.253510889847223" fill="black" fill-opacity="0.6" stroke="black" stroke-width="1" />
<path d="M16.0,16.0 L1.579889348772713,6.016343256070266 L1.4376258231673,5.253510889847223" fill="green" fill-opacity="0.6" stroke="black" stroke-width="1" />
<path d="M16.0,84.0 L1.579889348772713,93.98365674392974 L1.4376258231673,94.74648911015278" fill="purple" fill-opacity="0.6" stroke="black" stroke-width="1" />
<path d="M16.0,-84.0 L1.579889348772713,-93.98365674392974 L1.4376258231673,-94.74648911015278" fill="orange" fill-opacity="0.6" stroke="black" stroke-width="1" />
<path d="M1.579889348772713,-6.016343256070266 L1.4376258231673,-5.253510889847223 L1.0649232837170841,-4.592635418837593" fill="red" fill-opacity="0.6" stroke="black" stroke-width="1" />
<path d="M1.579889348772713,6.016343256070266 L1.4376258231673,5.253510889847223 L1.0649232837170841,4.592635418837593" fill="orange" fill-opacity="0.6" stroke="black" stroke-width="1" />
<path d="M1.579889348772713,93.98365674392974 L1.4376258231673,94.74648911015278 L1.0649232837170841,95.4073645811624" fill="orange" fill-opacity="0.6" stroke="black" stroke-width="1" />
<path d="M1.579889348772713,-93.98365674392974 L1.4376258231673,-94.74648911015278 L1.0649232837170841,-95.4073645811624" fill="red" fill-opacity="0.6" stroke="black" stroke-width="1" />
<path d="M1.4376258231673,-5.253510889847223 L1.0649232837170841,-4.592635418837593 L0.5780502331952596,-4.062476337088089" fill="red" fill-opacity="0.6" stroke="black" stroke-width="1" />
<path d="M1.4376258231673,5.253510889847223 L1.0649232837170841,4.592635418837593 L0.5780502331952596,4.062476337088089" fill="yellow" fill-opacity="0.6" stroke="black" stroke-width="1" />
<path d="M1.4376258231673,94.74648911015278 L1.0649232837170841,95.4073645811624 L0.5780502331952596,95.93752366291191" fill="yellow" fill-opacity="0.6" stroke="black" stroke-width="1" />
<path d="M1.4376258231673,-94.74648911015278 L1.0649232837170841,-95.4073645811624 L0.5780502331952596,-95.93752366291191" fill="black" fill-opacity="0.6" stroke="black" stroke-width="1" />
<path d="M1.0649232837170841,-4.592635418837593 L0.5780502331952596,-4.062476337088089 L2.0,-2.0" fill="brown" fill-opacity="0.6" stroke="black" stroke-width="1" />
<path d="M1.0649232837170841,4.592635418837593 L0.5780502331952596,4.062476337088089 L2.0,2.0" fill="blue" fill-opacity="0.6" stroke="black" stroke-width="1" />
<path d="M1.0649232837170841,95.4073645811624 L0.5780502331952596,95.93752366291191 L2.0,98.0" fill="yellow" fill-opacity="0.6" stroke="black" stroke-width="1" />
<path d="M1.0649232837170841,-95.4073645811624 L0.5780502331952596,-95.93752366291191 L2.0,-98.0" fill="purple" fill-opacity="0.6" stroke="black" stroke-width="1" />
<path d="M2.0,-2.0 L0.4535627606463269,-1.9056987056317198 L0.29759593351854735,-1.137741918139018" fill="red" fill-opacity="0.6" stroke="black" stroke-width="1" />
<path d="M2.0,2.0 L0.4535627606463269,1.9056987056317198 L0.29759593351854735,1.137741918139018" fill="red" fill-opacity="0.6" stroke="black" stroke-width="1" />
<path d="M2.0,98.0 L0.4535627606463269,98.09430129436828 L0.29759593351854735,98.86225808186097" fill="purple" fill-opacity="0.6" stroke="black" stroke-width="1" />
<path d="M2.0,-98.0 L0.4535627606463269,-98.09430129436828 L0.29759593351854735,-98.86225808186097" fill="red" fill-opacity="0.6" stroke="black" stroke-width="1" />
<path d="M0.4535627606463269,-1.9056987056317198 L0.29759593351854735,-1.137741918139018 L1.0,-1.0" fill="blue" fill-opacity="0.6" stroke="black" stroke-width="1" />
<path d="M0.4535627606463269,1.9056987056317198 L0.29759593351854735,1.137741918139018 L1.0,1.0" fill="orange" fill-opacity="0.6" stroke="black" stroke-width="1" />
<path d="M0.4535627606463269,98.09430129436828 L0.29759593351854735,98.86225808186097 L1.0,99.0" fill="red" fill-opacity="0.6" stroke="black" stroke-width="1" />
<path d="M0.4535627606463269,-98.09430129436828 L0.29759593351854735,-98.86225808186097 L1.0,-99.0" fill="green" fill-opacity="0.6" stroke="black" stroke-width="1" />
<path d="M0.0,100.0 L-1.6994934584453225,89.58458325968385 L0.0,89.0" fill="purple" fill-opacity="0.6" stroke="black" stroke-width="1" />
<path d="M0.0,-0.0 L-1.6994934584453225,-10.415416740316152 L0.0,-11.0" fill="blue" fill-opacity="0.6" stroke="black" stroke-width="1" />
<path d="M0.0,-0.0 L-1.6994934584453225,10.415416740316147 L0.0,11.0" fill="black" fill-opacity="0.6" stroke="black" stroke-width="1" />
<path d="M0.0,-100.0 L-1.6994934584453225,-89.58458325968385 L0.0,-89.0" fill="red" fill-opacity="0.6" stroke="black" stroke-width="1" />
<path d="M0.0,89.0 L-2.0720213976029522,88.558020273172 L-3.2278282912308107,88.54831201254655" fill="black" fill-opacity="0.6" stroke="black" stroke-width="1" />
<path d="M0.0,-11.0 L-2.0720213976029522,-11.441979726827995 L-3.2278282912308107,-11.451687987453452" fill="pink" fill-opacity="0.6" stroke="black" stroke-width="1" />
<path d="M0.0,11.0 L-2.0720213976029522,11.441979726827995 L-3.2278282912308107,11.451687987453454" fill="yellow" fill-opacity="0.6" stroke="black" stroke-width="1" />
<path d="M0.0,-89.0 L-2.0720213976029522,-88.558020273172 L-3.2278282912308107,-88.54831201254655" fill="blue" fill-opacity="0.6" stroke="black" stroke-width="1" />
<path d="M-2.0720213976029522,88.558020273172 L-3.2278282912308107,88.54831201254655 L0.0,82.0" fill="blue" fill-opacity="0.6" stroke="black" stroke-width="1" />
<path d="M-2.0720213976029522,-11.441979726827995 L-3.2278282912308107,-11.451687987453452 L0.0,-18.0" fill="pink" fill-opacity="0.6" stroke="black" stroke-width="1" />
<path d="M-2.0720213976029522,11.441979726827995 L-3.2278282912308107,11.451687987453454 L0.0,18.0" fill="red" fill-opacity="0.6" stroke="black" stroke-width="1" />
<path d="M-2.0720213976029522,-88.558020273172 L-3.2278282912308107,-88.54831201254655 L0.0,-82.0" fill="brown" fill-opacity="0.6" stroke="black" stroke-width="1" />
<path d="M0.0,82.0 L-3.5415303545255625,81.46582405034582 L-4.150009370692385,76.90888280722906" fill="pink" fill-opacity="0.6" stroke="black" stroke-width="1" />
<path d="M0.0,-18.0 L-3.5415303545255625,-18.53417594965419 L-4.150009370692385,-23.091117192770934" fill="green" fill-opacity="0.6" stroke="black" stroke-width="1" />
<path d="M0.0,18.0 L-3.5415303545255625,18.534175949654184 L-4.150009370692385,23.091117192770938" fill="yellow" fill-opacity="0.6" stroke="black" stroke-width="1" />
<path d="M0.0,-82.0 L-3.5415303545255625,-81.46582405034582 L-4.150009370692385,-76.90888280722906" fill="pink" fill-opacity="0.6" stroke="black" stroke-width="1" />
<path d="M-3.5415303545255625,81.46582405034582 L-4.150009370692385,76.90888280722906 L-4.2655959628417,74.17074619146138" fill="brown" fill-opacity="0.6" stroke="black" stroke-width="1" />
<path d="M-3.5415303545255625,-18.53417594965419 L-4.150009370692385,-23.091117192770934 L-4.2655959628417,-25.829253808538624" fill="brown" fill-opacity="0.6" stroke="black" stroke-width="1" />
<path d="M-3.5415303545255625,18.534175949654184 L-4.150009370692385,23.091117192770938 L-4.2655959628417,25.829253808538624" fill="orange" fill-opacity="0.6" stroke="black" stroke-width="1" />
<path d="M-3.5415303545255625,-81.46582405034582 L-4.150009370692385,-76.90888280722906 L-4.2655959628417,-74.17074619146138" fill="brown" fill-opacity="0.6" stroke="black" stroke-width="1" />
<path d="M-4.150009370692385,76.90888280722906 L-4.2655959628417,74.17074619146138 L-6.936226296379005,65.61410263541654" fill="blue" fill-opacity="0.6" stroke="black" stroke-width="1" />
<path d="M-4.150009370692385,-23.091117192770934 L-4.2655959628417,-25.829253808538624 L-6.936226296379005,-34.385897364583464" fill="pink" fill-opacity="0.6" stroke="black" stroke-width="1" />
<path d="M-4.150009370692385,23.091117192770938 L-4.2655959628417,25.829253808538624 L-6.936226296379005,34.38589736458346" fill="yellow" fill-opacity="0.6" stroke="black" stroke-width="1" />
<path d="M-4.150009370692385,-76.90888280722906 L-4.2655959628417,-74.17074619146138 L-6.936226296379005,-65.61410263541654" fill="green" fill-opacity="0.6" stroke="black" stroke-width="1" />
<path d="M-4.2655959628417,74.17074619146138 L-6.936226296379005,65.61410263541654 L0.0,60.0" fill="brown" fill-opacity="0.6" stroke="black" stroke-width="1" />
<path d="M-4.2655959628417,-25.829253808538624 L-6.936226296379005,-34.385897364583464 L0.0,-40.0" fill="brown" fill-opacity="0.6" stroke="black" stroke-width="1" />
<path d="M-4.2655959628417,25.829253808538624 L-6.936226296379005,34.38589736458346 L0.0,40.0" fill="yellow" fill-opacity="0.6" stroke="black" stroke-width="1" />
<path d="M-4.2655959628417,-74.17074619146138 L-6.936226296379005,-65.61410263541654 L0.0,-60.0" fill="blue" fill-opacity="0.6" stroke="black" stroke-width="1" />
<path d="M-3.0,50.0 L-21.352363946666152,64.7396147047809 L-22.0,50.0" fill="brown" fill-opacity="0.6" stroke="black" stroke-width="1" />
<path d="M-3.0,-50.0 L-21.352363946666152,-35.26038529521909 L-22.0,-50.0" fill="black" fill-opacity="0.6" stroke="black" stroke-width="1" />
<path d="M-3.0,50.0 L-21.352363946666152,35.260385295219095 L-22.0,50.0" fill="brown" fill-opacity="0.6" stroke="black" stroke-width="1" />
<path d="M-3.0,-50.0 L-21.352363946666152,-64.7396147047809 L-22.0,-50.0" fill="black" fill-opacity="0.6" stroke="black" stroke-width="1" />
<path d="M-22.0,50.0 L-22.22653930859104,53.74469322333328 L-23.0,50.0" fill="purple" fill-opacity="0.6" stroke="black" stroke-width="1" />
<path d="M-22.0,-50.0 L-22.22653930859104,-46.25530677666672 L-23.0,-50.0" fill="purple" fill-opacity="0.6" stroke="black" stroke-width="1" />
<path d="M-22.0,50.0 L-22.22653930859104,46.25530677666672 L-23.0,50.0" fill="purple" fill-opacity="0.6" stroke="black" stroke-width="1" />
<path d="M-22.0,-50.0 L-22.22653930859104,-53.74469322333328 L-23.0,-50.0" fill="yellow" fill-opacity="0.6" stroke="black" stroke-width="1" />
<path d="M-23.0,50.0 L-30.661202347992834,52.121746233665604 L-33.0,50.0" fill="black" fill-opacity="0.6" stroke="black" stroke-width="1" />
<path d="M-23.0,-50.0 L-30.661202347992834,-47.878253766334396 L-33.0,-50.0" fill="blue" fill-opacity="0.6" stroke="black" stroke-width="1" />
<path d="M-23.0,50.0 L-30.661202347992834,47.878253766334396 L-33.0,50.0" fill="black" fill-opacity="0.6" stroke="black" stroke-width="1" />
<path d="M-23.0,-50.0 L-30.661202347992834,-52.121746233665604 L-33.0,-50.0" fill="blue" fill-opacity="0.6" stroke="black" stroke-width="1" />
<path d="M-33.0,50.0 L-34.886844991475094,51.32429208333572 L-44.0,50.0" fill="blue" fill-opacity="0.6" stroke="black" stroke-width="1" />
<path d="M-33.0,-50.0 L-34.886844991475094,-48.67570791666428 L-44.0,-50.0" fill="black" fill-opacity="0.6" stroke="black" stroke-width="1" />
<path d="M-33.0,50.0 L-34.886844991475094,48.67570791666428 L-44.0,50.0" fill="green" fill-opacity="0.6" stroke="black" stroke-width="1" />
<path d="M-33.0,-50.0 L-34.886844991475094,-51.32429208333572 L-44.0,-50.0" fill="blue" fill-opacity="0.6" stroke="black" stroke-width="1" />
<path d="M-16.0,84.0 L-1.579889348772713,93.98365674392973 L-1.4376258231673,94.74648911015278" fill="red" fill-opacity="0.6" stroke="black" stroke-width="1" />
<path d="M-16.0,-16.0 L-1.579889348772713,-6.016343256070266 L-1.4376258231673,-5.253510889847223" fill="brown" fill-opacity="0.6" stroke="black" stroke-width="1" />
<path d="M-16.0,16.0 L-1.579889348772713,6.016343256070272 L-1.4376258231673,5.25351088984722" fill="black" fill-opacity="0.6" stroke="black" stroke-width="1" />
<path d="M-16.0,-84.0 L-1.579889348772713,-93.98365674392974 L-1.4376258231673,-94.74648911015278" fill="blue" fill-opacity="0.6" stroke="black" stroke-width="1" />
<path d="M-1.579889348772713,93.98365674392973 L-1.4376258231673,94.74648911015278 L-1.0649232837170841,95.40736458116241" fill="yellow" fill-opacity="0.6" stroke="black" stroke-width="1" />
<path d="M-1.579889348772713,-6.016343256070266 L-1.4376258231673,-5.253510889847223 L-1.0649232837170841,-4.592635418837593" fill="purple" fill-opacity="0.6" stroke="black" stroke-width="1" />
<path d="M-1.579889348772713,6.016343256070272 L-1.4376258231673,5.25351088984722 L-1.0649232837170841,4.592635418837588" fill="green" fill-opacity="0.6" stroke="black" stroke-width="1" />
<path d="M-1.579889348772713,-93.98365674392974 L-1.4376258231673,-94.74648911015278 L-1.0649232837170841,-95.4073645811624" fill="black" fill-opacity="0.6" stroke="black" stroke-width="1" />
<path d="M-1.4376258231673,94.74648911015278 L-1.0649232837170841,95.40736458116241 L-0.5780502331952596,95.93752366291191" fill="purple" fill-opacity="0.6" stroke="black" stroke-width="1" />
<path d="M-1.4376258231673,-5.253510889847223 L-1.0649232837170841,-4.592635418837593 L-0.5780502331952596,-4.062476337088089" fill="green" fill-opacity="0.6" stroke="black" stroke-width="1" />
<path d="M-1.4376258231673,5.25351088984722 L-1.0649232837170841,4.592635418837588 L-0.5780502331952596,4.062476337088086" fill="red" fill-opacity="0.6" stroke="black" stroke-width="1" />
<path d="M-1.4376258231673,-94.74648911015278 L-1.0649232837170841,-95.4073645811624 L-0.5780502331952596,-95.93752366291191" fill="orange" fill-opacity="0.6" stroke="black" stroke-width="1" />
<path d="M-1.0649232837170841,95.40736458116241 L-0.5780502331952596,95.93752366291191 L-2.0,98.0" fill="black" fill-opacity="0.6" stroke="black" stroke-width="1" />
<path d="M-1.0649232837170841,-4.592635418837593 L-0.5780502331952596,-4.062476337088089 L-2.0,-2.0" fill="pink" fill-opacity="0.6" stroke="black" stroke-width="1" />
<path d="M-1.0649232837170841,4.592635418837588 L-0.5780502331952596,4.062476337088086 L-2.0,2.0" fill="black" fill-opacity="0.6" stroke="black" stroke-width="1" />
<path d="M-1.0649232837170841,-95.4073645811624 L-0.5780502331952596,-95.93752366291191 L-2.0,-98.0" fill="green" fill-opacity="0.6" stroke="black" stroke-width="1" />
<path d="M-2.0,98.0 L-0.4535627606463269,98.09430129436828 L-0.29759593351854735,98.86225808186099" fill="blue" fill-opacity="0.6" stroke="black" stroke-width="1" />
<path d="M-2.0,-2.0 L-0.4535627606463269,-1.9056987056317198 L-0.29759593351854735,-1.137741918139018" fill="blue" fill-opacity="0.6" stroke="black" stroke-width="1" />
<path d="M-2.0,2.0 L-0.4535627606463269,1.9056987056317212 L-0.29759593351854735,1.1377419181390138" fill="yellow" fill-opacity="0.6" stroke="black" stroke-width="1" />
<path d="M-2.0,-98.0 L-0.4535627606463269,-98.09430129436828 L-0.29759593351854735,-98.86225808186097" fill="blue" fill-opacity="0.6" stroke="black" stroke-width="1" />
<path d="M-0.4535627606463269,98.09430129436828 L-0.29759593351854735,98.86225808186099 L-1.0,99.0" fill="yellow" fill-opacity="0.6" stroke="black" stroke-width="1" />
<path d="M-0.4535627606463269,-1.9056987056317198 L-0.29759593351854735,-1.137741918139018 L-1.0,-1.0" fill="purple" fill-opacity="0.6" stroke="black" stroke-width="1" />
<path d="M-0.4535627606463269,1.9056987056317212 L-0.29759593351854735,1.1377419181390138 L-1.0,1.0" fill="purple" fill-opacity="0.6" stroke="black" stroke-width="1" />
<path d="M-0.4535627606463269,-98.09430129436828 L-0.29759593351854735,-98.86225808186097 L-1.0,-99.0" fill="black" fill-opacity="0.6" stroke="black" stroke-width="1" />
<path d="M-100.0,-0.0 L-89.58458325968385,-1.6994934584453225 L-89.0,-0.0" fill="blue" fill-opacity="0.6" stroke="black" stroke-width="1" />
<path d="M-100.0,-0.0 L-89.58458325968385,1.6994934584453225 L-89.0,-0.0" fill="black" fill-opacity="0.6" stroke="black" stroke-width="1" />
<path d="M-89.0,-0.0 L-88.558020273172,-2.0720213976029522 L-88.54831201254655,-3.2278282912308107" fill="black" fill-opacity="0.6" stroke="black" stroke-width="1" />
<path d="M-89.0,-0.0 L-88.558020273172,2.0720213976029522 L-88.54831201254655,3.2278282912308107" fill="yellow" fill-opacity="0.6" stroke="black" stroke-width="1" />
<path d="M-88.558020273172,-2.0720213976029522 L-88.54831201254655,-3.2278282912308107 L-82.0,-0.0" fill="orange" fill-opacity="0.6" stroke="black" stroke-width="1" />
<path d="M-88.558020273172,2.0720213976029522 L-88.54831201254655,3.2278282912308107 L-82.0,-0.0" fill="black" fill-opacity="0.6" stroke="black" stroke-width="1" />
<path d="M-82.0,-0.0 L-81.46582405034582,-3.5415303545255625 L-76.90888280722906,-4.150009370692385" fill="brown" fill-opacity="0.6" stroke="black" stroke-width="1" />
<path d="M-82.0,-0.0 L-81.46582405034582,3.5415303545255625 L-76.90888280722906,4.150009370692385" fill="black" fill-opacity="0.6" stroke="black" stroke-width="1" />
<path d="M-81.46582405034582,-3.5415303545255625 L-76.90888280722906,-4.150009370692385 L-74.17074619146138,-4.2655959628417" fill="blue" fill-opacity="0.6" stroke="black" stroke-width="1" />
<path d="M-81.46582405034582,3.5415303545255625 L-76.90888280722906,4.150009370692385 L-74.17074619146138,4.2655959628417" fill="brown" fill-opacity="0.6" stroke="black" stroke-width="1" />
<path d="M-76.90888280722906,-4.150009370692385 L-74.17074619146138,-4.2655959628417 L-65.61410263541654,-6.936226296379005" fill="yellow" fill-opacity="0.6" stroke="black" stroke-width="1" />
<path d="M-76.90888280722906,4.150009370692385 L-74.17074619146138,4.2655959628417 L-65.61410263541654,6.936226296379005" fill="pink" fill-opacity="0.6" stroke="black" stroke-width="1" />
<path d="M-74.17074619146138,-4.2655959628417 L-65.61410263541654,-6.936226296379005 L-60.0,-0.0" fill="orange" fill-opacity="0.6" stroke="black" stroke-width="1" />
<path d="M-74.17074619146138,4.2655959628417 L-65.61410263541654,6.936226296379005 L-60.0,-0.0" fill="purple" fill-opacity="0.6" stroke="black" stroke-width="1" />
<path d="M-53.0,-47.0 L-60.0,-40.0 L-73.0,-27.0" fill="red" fill-opacity="0.6" stroke="black" stroke-width="1" />
<path d="M-53.0,47.0 L-60.0,40.0 L-73.0,27.0" fill="blue" fill-opacity="0.6" stroke="black" stroke-width="1" />
<path d="M-50.0,-3.0 L-64.7396147047809,-21.352363946666152 L-50.0,-22.0" fill="green" fill-opacity="0.6" stroke="black" stroke-width="1" />
<path d="M-50.0,3.0 L-64.7396147047809,21.352363946666152 L-50.0,22.0" fill="green" fill-opacity="0.6" stroke="black" stroke-width="1" />
<path d="M-50.0,-22.0 L-53.74469322333328,-22.22653930859104 L-50.0,-23.0" fill="orange" fill-opacity="0.6" stroke="black" stroke-width="1" />
<path d="M-50.0,22.0 L-53.74469322333328,22.22653930859104 L-50.0,23.0" fill="green" fill-opacity="0.6" stroke="black" stroke-width="1" />
<path d="M-50.0,-23.0 L-52.121746233665604,-30.661202347992834 L-50.0,-33.0" fill="blue" fill-opacity="0.6" stroke="black" stroke-width="1" />
<path d="M-50.0,23.0 L-52.121746233665604,30.661202347992834 L-50.0,33.0" fill="blue" fill-opacity="0.6" stroke="black" stroke-width="1" />
<path d="M-50.0,-33.0 L-51.32429208333572,-34.886844991475094 L-50.0,-44.0" fill="pink" fill-opacity="0.6" stroke="black" stroke-width="1" />
<path d="M-50.0,33.0 L-51.32429208333572,34.886844991475094 L-50.0,44.0" fill="pink" fill-opacity="0.6" stroke="black" stroke-width="1" />
<path d="M-50.0,-44.0 L-53.0,-47.0 L-60.0,-40.0" fill="black" fill-opacity="0.6" stroke="black" stroke-width="1" />
<path d="M-50.0,44.0 L-53.0,47.0 L-60.0,40.0" fill="green" fill-opacity="0.6" stroke="black" stroke-width="1" />
<path d="M-60.0,-40.0 L-73.0,-27.0 L-84.0,-16.0" fill="brown" fill-opacity="0.6" stroke="black" stroke-width="1" />
<path d="M-60.0,40.0 L-73.0,27.0 L-84.0,16.0" fill="green" fill-opacity="0.6" stroke="black" stroke-width="1" />
<path d="M-73.0,-27.0 L-84.0,-16.0 L-93.98365674392974,-1.579889348772713" fill="pink" fill-opacity="0.6" stroke="black" stroke-width="1" />
<path d="M-73.0,27.0 L-84.0,16.0 L-93.98365674392974,1.579889348772713" fill="brown" fill-opacity="0.6" stroke="black" stroke-width="1" />
<path d="M-84.0,-16.0 L-93.98365674392974,-1.579889348772713 L-94.74648911015278,-1.4376258231673" fill="black" fill-opacity="0.6" stroke="black" stroke-width="1" />
<path d="M-84.0,16.0 L-93.98365674392974,1.579889348772713 L-94.74648911015278,1.4376258231673" fill="orange" fill-opacity="0.6" stroke="black" stroke-width="1" />
<path d="M-93.98365674392974,-1.579889348772713 L-94.74648911015278,-1.4376258231673 L-95.4073645811624,-1.0649232837170841" fill="green" fill-opacity="0.6" stroke="black" stroke-width="1" />
<path d="M-93.98365674392974,1.579889348772713 L-94.74648911015278,1.4376258231673 L-95.4073645811624,1.0649232837170841" fill="black" fill-opacity="0.6" stroke="black" stroke-width="1" />
<path d="M-94.74648911015278,-1.4376258231673 L-95.4073645811624,-1.0649232837170841 L-95.93752366291191,-0.5780502331952596" fill="blue" fill-opacity="0.6" stroke="black" stroke-width="1" />
<path d="M-94.74648911015278,1.4376258231673 L-95.4073645811624,1.0649232837170841 L-95.93752366291191,0.5780502331952596" fill="pink" fill-opacity="0.6" stroke="black" stroke-width="1" />
<path d="M-95.4073645811624,-1.0649232837170841 L-95.93752366291191,-0.5780502331952596 L-98.0,-2.0" fill="green" fill-opacity="0.6" stroke="black" stroke-width="1" />
<path d="M-95.4073645811624,1.0649232837170841 L-95.93752366291191,0.5780502331952596 L-98.0,2.0" fill="green" fill-opacity="0.6" stroke="black" stroke-width="1" />
<path d="M-95.93752366291191,-0.5780502331952596 L-98.0,-2.0 L-98.09430129436828,-0.4535627606463269" fill="black" fill-opacity="0.6" stroke="black" stroke-width="1" />
<path d="M-95.93752366291191,0.5780502331952596 L-98.0,2.0 L-98.09430129436828,0.4535627606463269" fill="orange" fill-opacity="0.6" stroke="black" stroke-width="1" />
<path d="M-98.0,-2.0 L-98.09430129436828,-0.4535627606463269 L-98.86225808186097,-0.29759593351854735" fill="green" fill-opacity="0.6" stroke="black" stroke-width="1" />
<path d="M-98.0,2.0 L-98.09430129436828,0.4535627606463269 L-98.86225808186097,0.29759593351854735" fill="green" fill-opacity="0.6" stroke="black" stroke-width="1" />
<path d="M-98.09430129436828,-0.4535627606463269 L-98.86225808186097,-0.29759593351854735 L-99.0,-1.0" fill="pink" fill-opacity="0.6" stroke="black" stroke-width="1" />
<path d="M-98.09430129436828,0.4535627606463269 L-98.86225808186097,0.29759593351854735 L-99.0,1.0" fill="pink" fill-opacity="0.6" stroke="black" stroke-width="1" />
<path d="M-98.86225808186097,-0.29759593351854735 L-99.0,-1.0 L-100.0,-0.0" fill="yellow" fill-opacity="0.6" stroke="black" stroke-width="1" />
<path d="M-98.86225808186097,0.29759593351854735 L-99.0,1.0 L-100.0,-0.0" fill="green" fill-opacity="0.6" stroke="black" stroke-width="1" />
</svg>