<?xml version="1.0" encoding="UTF-8"?>
<svg xmlns="http://www.w3.org/2000/svg" xmlns:xlink="http://www.w3.org/1999/xlink"
     width="250" height="250" viewBox="-125.0 -125.0 250 250">
<defs>
</defs>
<path d="M1.0,-0.0 L15.010022416283226,-6.743311806408387 L21.478319392134026,-9.738568078789422" fill-opacity="0" stroke="black" stroke-width="1" />
<path d="M1.0,-0.0 L15.010022416283226,6.743311806408387 L21.478319392134026,9.738568078789422" fill-opacity="0" stroke="black" stroke-width="1" />
<path d="M15.010022416283226,-6.743311806408387 L21.478319392134026,-9.738568078789422 L23.036594760089486,-12.518999393099095" fill-opacity="0" stroke="black" stroke-width="1" />
<path d="M15.010022416283226,6.743311806408387 L21.478319392134026,9.738568078789422 L23.036594760089486,12.518999393099095" fill-opacity="0" stroke="black" stroke-width="1" />
<path d="M21.478319392134026,-9.738568078789422 L23.036594760089486,-12.518999393099095 L26.0,-0.0" fill-opacity="0" stroke="black" stroke-width="1" />
<path d="M21.478319392134026,9.738568078789422 L23.036594760089486,12.518999393099095 L26.0,-0.0" fill-opacity="0" stroke="black" stroke-width="1" />
<path d="M50.0,-1.0 L41.82030073627129,-20.634894000997445 L50.0,-22.0" fill-opacity="0" stroke="black" stroke-width="1" />
<path d="M50.0,1.0 L41.82030073627129,20.634894000997445 L50.0,22.0" fill-opacity="0" stroke="black" stroke-width="1" />
<path d="M50.0,50.0 L48.0,52.0 L31.0,69.0" fill-opacity="0" stroke="black" stroke-width="1" />
<path d="M50.0,-50.0 L48.0,-52.0 L31.0,-69.0" fill-opacity="0" stroke="black" stroke-width="1" />
<path d="M48.0,52.0 L31.0,69.0 L30.0,70.0" fill-opacity="0" stroke="black" stroke-width="1" />
<path d="M48.0,-52.0 L31.0,-69.0 L30.0,-70.0" fill-opacity="0" stroke="black" stroke-width="1" />
<path d="M31.0,69.0 L30.0,70.0 L12.0,88.0" fill-opacity="0" stroke="black" stroke-width="1" />
<path d="M31.0,-69.0 L30.0,-70.0 L12.0,-88.0" fill-opacity="0" stroke="black" stroke-width="1" />
<path d="M30.0,70.0 L12.0,88.0 L6.736020871100861,92.30982569256551" fill-opacity="0" stroke="black" stroke-width="1" />
<path d="M30.0,-70.0 L12.0,-88.0 L6.736020871100861,-92.30982569256551" fill-opacity="0" stroke="black" stroke-width="1" />
<path d="M12.0,-12.0 L7.690174307434483,-6.736020871100861 L0.0,-0.0" fill-opacity="0" stroke="black" stroke-width="1" />
<path d="M12.0,12.0 L7.690174307434483,6.736020871100861 L0.0,-0.0" fill-opacity="0" stroke="black" stroke-width="1" />
<path d="M-1.0,-0.0 L-15.010022416283226,-6.743311806408387 L-21.478319392134026,-9.738568078789422" fill-opacity="0" stroke="black" stroke-width="1" />
<path d="M-1.0,-0.0 L-15.010022416283226,6.743311806408387 L-21.478319392134026,9.738568078789422" fill-opacity="0" stroke="black" stroke-width="1" />
<path d="M-15.010022416283226,-6.743311806408387 L-21.478319392134026,-9.738568078789422 L-23.036594760089486,-12.518999393099095" fill-opacity="0" stroke="black" stroke-width="1" />
<path d="M-15.010022416283226,6.743311806408387 L-21.478319392134026,9.738568078789422 L-23.036594760089486,12.518999393099095" fill-opacity="0" stroke="black" stroke-width="1" />
<path d="M-21.478319392134026,-9.738568078789422 L-23.036594760089486,-12.518999393099095 L-26.0,-0.0" fill-opacity="0" stroke="black" stroke-width="1" />
<path d="M-21.478319392134026,9.738568078789422 L-23.036594760089486,12.518999393099095 L-26.0,-0.0" fill-opacity="0" stroke="black" stroke-width="1" />
<path d="M-50.0,-1.0 L-41.82030073627129,-20.634894000997445 L-50.0,-22.0" fill-opacity="0" stroke="black" stroke-width="1" />
<path d="M-50.0,1.0 L-41.82030073627129,20.634894000997445 L-50.0,22.0" fill-opacity="0" stroke="black" stroke-width="1" />
<path d="M-50.0,50.0 L-48.0,52.0 L-31.0,69.0" fill-opacity="0" stroke="black" stroke-width="1" />
<path d="M-50.0,-50.0 L-48.0,-52.0 L-31.0,-69.0" fill-opacity="0" stroke="black" stroke-width="1" />
<path d="M-48.0,52.0 L-31.0,69.0 L-30.0,70.0" fill-opacity="0" stroke="black" stroke-width="1" />
<path d="M-48.0,-52.0 L-31.0,-69.0 L-30.0,-70.0" fill-opacity="0" stroke="black" stroke-width="1" />
<path d="M-31.0,69.0 L-30.0,70.0 L-12.0,88.0" fill-opacity="0" stroke="black" stroke-width="1" />
<path d="M-31.0,-69.0 L-30.0,-70.0 L-12.0,-88.0" fill-opacity="0" stroke="black" stroke-width="1" />
<path d="M-30.0,70.0 L-12.0,88.0 L-6.736020871100861,92.30982569256551" fill-opacity="0" stroke="black" stroke-width="1" />
<path d="M-30.0,-70.0 L-12.0,-88.0 L-6.736020871100861,-92.30982569256551" fill-opacity="0" stroke="black" stroke-width="1" />
<path d="M-12.0,-12.0 L-7.690174307434483,-6.736020871100861 L0.0,-0.0" fill-opacity="0" stroke="black" stroke-width="1" />
<path d="M-12.0,12.0 L-7.690174307434483,6.736020871100861 L0.0,-0.0" fill-opacity="0" stroke="black" stroke-width="1" />
<path d="M99.0,-0.0 L84.98997758371678,6.743311806408387 L78.52168060786597,9.738568078789422" fill-opacity="0" stroke="black" stroke-width="1" />
<path d="M99.0,-0.0 L84.98997758371678,-6.743311806408387 L78.52168060786597,-9.738568078789422" fill-opacity="0" stroke="black" stroke-width="1" />
<path d="M84.98997758371678,6.743311806408387 L78.52168060786597,9.738568078789422 L76.96340523991051,12.518999393099095" fill-opacity="0" stroke="black" stroke-width="1" />
<path d="M84.98997758371678,-6.743311806408387 L78.52168060786597,-9.738568078789422 L76.96340523991051,-12.518999393099095" fill-opacity="0" stroke="black" stroke-width="1" />
<path d="M78.52168060786597,9.738568078789422 L76.96340523991051,12.518999393099095 L74.0,-0.0" fill-opacity="0" stroke="black" stroke-width="1" />
<path d="M78.52168060786597,-9.738568078789422 L76.96340523991051,-12.518999393099095 L74.0,-0.0" fill-opacity="0" stroke="black" stroke-width="1" />
<path d="M50.0,1.0 L58.17969926372871,20.634894000997445 L50.0,22.0" fill-opacity="0" stroke="black" stroke-width="1" />
<path d="M50.0,-1.0 L58.17969926372871,-20.634894000997445 L50.0,-22.0" fill-opacity="0" stroke="black" stroke-width="1" />
<path d="M50.0,50.0 L52.0,48.0 L69.0,31.0" fill-opacity="0" stroke="black" stroke-width="1" />
<path d="M50.0,-50.0 L52.0,-48.0 L69.0,-31.0" fill-opacity="0" stroke="black" stroke-width="1" />
<path d="M52.0,48.0 L69.0,31.0 L70.0,30.0" fill-opacity="0" stroke="black" stroke-width="1" />
<path d="M52.0,-48.0 L69.0,-31.0 L70.0,-30.0" fill-opacity="0" stroke="black" stroke-width="1" />
<path d="M69.0,31.0 L70.0,30.0 L88.0,12.0" fill-opacity="0" stroke="black" stroke-width="1" />
<path d="M69.0,-31.0 L70.0,-30.0 L88.0,-12.0" fill-opacity="0" stroke="black" stroke-width="1" />
<path d="M70.0,30.0 L88.0,12.0 L92.30982569256551,6.736020871100861" fill-opacity="0" stroke="black" stroke-width="1" />
<path d="M70.0,-30.0 L88.0,-12.0 L92.30982569256551,-6.736020871100861" fill-opacity="0" stroke="black" stroke-width="1" />
<path d="M88.0,12.0 L92.30982569256551,6.736020871100861 L100.0,-0.0" fill-opacity="0" stroke="black" stroke-width="1" />
<path d="M88.0,-12.0 L92.30982569256551,-6.736020871100861 L100.0,-0.0" fill-opacity="0" stroke="black" stroke-width="1" />
<path d="M0.0,-1.0 L6.743311806408387,-15.010022416283226 L9.738568078789422,-21.478319392134026" fill-opacity="0" stroke="black" stroke-width="1" />
<path d="M0.0,1.0 L6.743311806408387,15.010022416283226 L9.738568078789422,21.478319392134026" fill-opacity="0" stroke="black" stroke-width="1" />
<path d="M0.0,99.0 L6.743311806408387,84.98997758371678 L9.738568078789422,78.52168060786597" fill-opacity="0" stroke="black" stroke-width="1" />
<path d="M0.0,-99.0 L6.743311806408387,-84.98997758371678 L9.738568078789422,-78.52168060786597" fill-opacity="0" stroke="black" stroke-width="1" />
<path d="M6.743311806408387,-15.010022416283226 L9.738568078789422,-21.478319392134026 L12.518999393099095,-23.036594760089486" fill-opacity="0" stroke="black" stroke-width="1" />
<path d="M6.743311806408387,15.010022416283226 L9.738568078789422,21.478319392134026 L12.518999393099095,23.036594760089486" fill-opacity="0" stroke="black" stroke-width="1" />
<path d="M6.743311806408387,84.98997758371678 L9.738568078789422,78.52168060786597 L12.518999393099095,76.96340523991051" fill-opacity="0" stroke="black" stroke-width="1" />
<path d="M6.743311806408387,-84.98997758371678 L9.738568078789422,-78.52168060786597 L12.518999393099095,-76.96340523991051" fill-opacity="0" stroke="black" stroke-width="1" />
<path d="M9.738568078789422,-21.478319392134026 L12.518999393099095,-23.036594760089486 L0.0,-26.0" fill-opacity="0" stroke="black" stroke-width="1" />
<path d="M9.738568078789422,21.478319392134026 L12.518999393099095,23.036594760089486 L0.0,26.0" fill-opacity="0" stroke="black" stroke-width="1" />
<path d="M9.738568078789422,78.52168060786597 L12.518999393099095,76.96340523991051 L0.0,74.0" fill-opacity="0" stroke="black" stroke-width="1" />
<path d="M9.738568078789422,-78.52168060786597 L12.518999393099095,-76.96340523991051 L0.0,-74.0" fill-opacity="0" stroke="black" stroke-width="1" />
<path d="M1.0,-50.0 L20.634894000997445,-41.82030073627129 L22.0,-50.0" fill-opacity="0" stroke="black" stroke-width="1" />
<path d="M1.0,50.0 L20.634894000997445,41.82030073627129 L22.0,50.0" fill-opacity="0" stroke="black" stroke-width="1" />
<path d="M1.0,50.0 L20.634894000997445,58.17969926372871 L22.0,50.0" fill-opacity="0" stroke="black" stroke-width="1" />
<path d="M1.0,-50.0 L20.634894000997445,-58.17969926372871 L22.0,-50.0" fill-opacity="0" stroke="black" stroke-width="1" />
<path d="M12.0,-12.0 L6.736020871100861,-7.690174307434483 L0.0,-0.0" fill-opacity="0" stroke="black" stroke-width="1" />
<path d="M12.0,12.0 L6.736020871100861,7.690174307434483 L0.0,-0.0" fill-opacity="0" stroke="black" stroke-width="1" />
<path d="M12.0,88.0 L6.736020871100861,92.30982569256551 L0.0,100.0" fill-opacity="0" stroke="black" stroke-width="1" />
<path d="M12.0,-88.0 L6.736020871100861,-92.30982569256551 L0.0,-100.0" fill-opacity="0" stroke="black" stroke-width="1" />
<path d="M0.0,99.0 L-6.743311806408387,84.98997758371678 L-9.738568078789422,78.52168060786597" fill-opacity="0" stroke="black" stroke-width="1" />
<path d="M0.0,-1.0 L-6.743311806408387,-15.010022416283226 L-9.738568078789422,-21.478319392134026" fill-opacity="0" stroke="black" stroke-width="1" />
<path d="M0.0,1.0 L-6.743311806408387,15.01002241628322 L-9.738568078789422,21.478319392134026" fill-opacity="0" stroke="black" stroke-width="1" />
<path d="M0.0,-99.0 L-6.743311806408387,-84.98997758371678 L-9.738568078789422,-78.52168060786597" fill-opacity="0" stroke="black" stroke-width="1" />
<path d="M-6.743311806408387,84.98997758371678 L-9.738568078789422,78.52168060786597 L-12.518999393099095,76.96340523991051" fill-opacity="0" stroke="black" stroke-width="1" />
<path d="M-6.743311806408387,-15.010022416283226 L-9.738568078789422,-21.478319392134026 L-12.518999393099095,-23.036594760089486" fill-opacity="0" stroke="black" stroke-width="1" />
<path d="M-6.743311806408387,15.01002241628322 L-9.738568078789422,21.478319392134026 L-12.518999393099095,23.036594760089486" fill-opacity="0" stroke="black" stroke-width="1" />
<path d="M-6.743311806408387,-84.98997758371678 L-9.738568078789422,-78.52168060786597 L-12.518999393099095,-76.96340523991051" fill-opacity="0" stroke="black" stroke-width="1" />
<path d="M-9.738568078789422,78.52168060786597 L-12.518999393099095,76.96340523991051 L0.0,74.0" fill-opacity="0" stroke="black" stroke-width="1" />
<path d="M-9.738568078789422,-21.478319392134026 L-12.518999393099095,-23.036594760089486 L0.0,-26.0" fill-opacity="0" stroke="black" stroke-width="1" />
<path d="M-9.738568078789422,21.478319392134026 L-12.518999393099095,23.036594760089486 L0.0,26.0" fill-opacity="0" stroke="black" stroke-width="1" />
<path d="M-9.738568078789422,-78.52168060786597 L-12.518999393099095,-76.96340523991051 L0.0,-74.0" fill-opacity="0" stroke="black" stroke-width="1" />
<path d="M-1.0,50.0 L-20.634894000997445,58.17969926372871 L-22.0,50.0" fill-opacity="0" stroke="black" stroke-width="1" />
<path d="M-1.0,-50.0 L-20.634894000997445,-41.82030073627129 L-22.0,-50.0" fill-opacity="0" stroke="black" stroke-width="1" />
<path d="M-1.0,50.0 L-20.634894000997445,41.82030073627129 L-22.0,50.0" fill-opacity="0" stroke="black" stroke-width="1" />
<path d="M-1.0,-50.0 L-20.634894000997445,-58.17969926372871 L-22.0,-50.0" fill-opacity="0" stroke="black" stroke-width="1" />
<path d="M-12.0,88.0 L-6.736020871100861,92.30982569256551 L0.0,100.0" fill-opacity="0" stroke="black" stroke-width="1" />
<path d="M-12.0,-12.0 L-6.736020871100861,-7.690174307434483 L0.0,-0.0" fill-opacity="0" stroke="black" stroke-width="1" />
<path d="M-12.0,12.0 L-6.736020871100861,7.690174307434489 L0.0,-0.0" fill-opacity="0" stroke="black" stroke-width="1" />
<path d="M-12.0,-88.0 L-6.736020871100861,-92.30982569256551 L0.0,-100.0" fill-opacity="0" stroke="black" stroke-width="1" />
<path d="M-99.0,-0.0 L-84.98997758371678,-6.743311806408387 L-78.52168060786597,-9.738568078789422" fill-opacity="0" stroke="black" stroke-width="1" />
<path d="M-99.0,-0.0 L-84.98997758371678,6.743311806408387 L-78.52168060786597,9.738568078789422" fill-opacity="0" stroke="black" stroke-width="1" />
<path d="M-84.98997758371678,-6.743311806408387 L-78.52168060786597,-9.738568078789422 L-76.96340523991051,-12.518999393099095" fill-opacity="0" stroke="black" stroke-width="1" />
<path d="M-84.98997758371678,6.743311806408387 L-78.52168060786597,9.738568078789422 L-76.96340523991051,12.518999393099095" fill-opacity="0" stroke="black" stroke-width="1" />
<path d="M-78.52168060786597,-9.738568078789422 L-76.96340523991051,-12.518999393099095 L-74.0,-0.0" fill-opacity="0" stroke="black" stroke-width="1" />
<path d="M-78.52168060786597,9.738568078789422 L-76.96340523991051,12.518999393099095 L-74.0,-0.0" fill-opacity="0" stroke="black" stroke-width="1" />
<path d="M-50.0,-1.0 L-58.17969926372871,-20.634894000997445 L-50.0,-22.0" fill-opacity="0" stroke="black" stroke-width="1" />
<path d="M-50.0,1.0 L-58.17969926372871,20.634894000997445 L-50.0,22.0" fill-opacity="0" stroke="black" stroke-width="1" />
<path d="M-50.0,-50.0 L-52.0,-48.0 L-69.0,-31.0" fill-opacity="0" stroke="black" stroke-width="1" />
<path d="M-50.0,50.0 L-52.0,48.0 L-69.0,31.0" fill-opacity="0" stroke="black" stroke-width="1" />
<path d="M-52.0,-48.0 L-69.0,-31.0 L-70.0,-30.0" fill-opacity="0" stroke="black" stroke-width="1" />
<path d="M-52.0,48.0 L-69.0,31.0 L-70.0,30.0" fill-opacity="0" stroke="black" stroke-width="1" />
<path d="M-69.0,-31.0 L-70.0,-30.0 L-88.0,-12.0" fill-opacity="0" stroke="black" stroke-width="1" />
<path d="M-69.0,31.0 L-70.0,30.0 L-88.0,12.0" fill-opacity="0" stroke="black" stroke-width="1" />
<path d="M-70.0,-30.0 L-88.0,-12.0 L-92.30982569256551,-6.736020871100861" fill-opacity="0" stroke="black" stroke-width="1" />
<path d="M-70.0,30.0 L-88.0,12.0 L-92.30982569256551,6.736020871100861" fill-opacity="0" stroke="black" stroke-width="1" />
<path d="M-88.0,-12.0 L-92.30982569256551,-6.736020871100861 L-100.0,-0.0" fill-opacity="0" stroke="black" stroke-width="1" />
<path d="M-88.0,12.0 L-92.30982569256551,6.736020871100861 L-100.0,-0.0" fill-opacity="0" stroke="black" stroke-width="1" />
</svg>