<?xml version="1.0" encoding="UTF-8"?>
<svg xmlns="http://www.w3.org/2000/svg" xmlns:xlink="http://www.w3.org/1999/xlink"
     width="250" height="250" viewBox="-125.0 -125.0 250 250">
<defs>
</defs>
<path d="M5.0,-0.0 L12.12958930876144,-0.7945301104446995 L13.0,-0.0" fill-opacity="0" stroke="black" stroke-width="1" />
<path d="M5.0,-0.0 L12.12958930876144,0.7945301104446995 L13.0,-0.0" fill-opacity="0" stroke="black" stroke-width="1" />
<path d="M13.0,-0.0 L14.905656187438604,-1.834548029381733 L17.601564601965098,-3.3819030051514405" fill-opacity="0" stroke="black" stroke-width="1" />
<path d="M13.0,-0.0 L14.905656187438604,1.834548029381733 L17.601564601965098,3.3819030051514405" fill-opacity="0" stroke="black" stroke-width="1" />
<path d="M14.905656187438604,-1.834548029381733 L17.601564601965098,-3.3819030051514405 L17.886545116301107,-4.412704221809358" fill-opacity="0" stroke="black" stroke-width="1" />
<path d="M14.905656187438604,1.834548029381733 L17.601564601965098,3.3819030051514405 L17.886545116301107,4.412704221809358" fill-opacity="0" stroke="black" stroke-width="1" />
<path d="M17.601564601965098,-3.3819030051514405 L17.886545116301107,-4.412704221809358 L22.36618847730638,-4.644495636203226" fill-opacity="0" stroke="black" stroke-width="1" />
<path d="M17.601564601965098,3.3819030051514405 L17.886545116301107,4.412704221809358 L22.36618847730638,4.644495636203226" fill-opacity="0" stroke="black" stroke-width="1" />
<path d="M17.886545116301107,-4.412704221809358 L22.36618847730638,-4.644495636203226 L24.89159759000641,-6.200909652340678" fill-opacity="0" stroke="black" stroke-width="1" />
<path d="M17.886545116301107,4.412704221809358 L22.36618847730638,4.644495636203226 L24.89159759000641,6.200909652340678" fill-opacity="0" stroke="black" stroke-width="1" />
<path d="M22.36618847730638,-4.644495636203226 L24.89159759000641,-6.200909652340678 L28.10962274808935,-10.298477489988198" fill-opacity="0" stroke="black" stroke-width="1" />
<path d="M22.36618847730638,4.644495636203226 L24.89159759000641,6.200909652340678 L28.10962274808935,10.298477489988198" fill-opacity="0" stroke="black" stroke-width="1" />
<path d="M24.89159759000641,-6.200909652340678 L28.10962274808935,-10.298477489988198 L28.73614246043633,-13.276500992611066" fill-opacity="0" stroke="black" stroke-width="1" />
<path d="M24.89159759000641,6.200909652340678 L28.10962274808935,10.298477489988198 L28.73614246043633,13.276500992611066" fill-opacity="0" stroke="black" stroke-width="1" />
<path d="M28.10962274808935,-10.298477489988198 L28.73614246043633,-13.276500992611066 L33.0,-0.0" fill-opacity="0" stroke="black" stroke-width="1" />
<path d="M28.10962274808935,10.298477489988198 L28.73614246043633,13.276500992611066 L33.0,-0.0" fill-opacity="0" stroke="black" stroke-width="1" />
<path d="M50.0,-11.0 L36.145051793420635,-20.50063118877078 L50.0,-24.0" fill-opacity="0" stroke="black" stroke-width="1" />
<path d="M50.0,11.0 L36.145051793420635,20.50063118877078 L50.0,24.0" fill-opacity="0" stroke="black" stroke-width="1" />
<path d="M50.0,-24.0 L37.495261998274515,-27.88352229657174 L42.055402376562796,-28.576093693989" fill-opacity="0" stroke="black" stroke-width="1" />
<path d="M50.0,24.0 L37.495261998274515,27.88352229657174 L42.055402376562796,28.576093693989" fill-opacity="0" stroke="black" stroke-width="1" />
<path d="M37.495261998274515,-27.88352229657174 L42.055402376562796,-28.576093693989 L43.86839056202481,-29.715557944411653" fill-opacity="0" stroke="black" stroke-width="1" />
<path d="M37.495261998274515,27.88352229657174 L42.055402376562796,28.576093693989 L43.86839056202481,29.715557944411653" fill-opacity="0" stroke="black" stroke-width="1" />
<path d="M42.055402376562796,-28.576093693989 L43.86839056202481,-29.715557944411653 L44.78331315749214,-33.68733512065878" fill-opacity="0" stroke="black" stroke-width="1" />
<path d="M42.055402376562796,28.576093693989 L43.86839056202481,29.715557944411653 L44.78331315749214,33.68733512065878" fill-opacity="0" stroke="black" stroke-width="1" />
<path d="M43.86839056202481,-29.715557944411653 L44.78331315749214,-33.68733512065878 L50.0,-34.0" fill-opacity="0" stroke="black" stroke-width="1" />
<path d="M43.86839056202481,29.715557944411653 L44.78331315749214,33.68733512065878 L50.0,34.0" fill-opacity="0" stroke="black" stroke-width="1" />
<path d="M50.0,-34.0 L44.864996881323506,-34.03411517063194 L50.0,-45.0" fill-opacity="0" stroke="black" stroke-width="1" />
<path d="M50.0,34.0 L44.864996881323506,34.03411517063194 L50.0,45.0" fill-opacity="0" stroke="black" stroke-width="1" />
<path d="M50.0,-45.0 L47.15574780745429,-39.494242823509666 L46.64448005659493,-39.40540226670594" fill-opacity="0" stroke="black" stroke-width="1" />
<path d="M50.0,45.0 L47.15574780745429,39.494242823509666 L46.64448005659493,39.40540226670594" fill-opacity="0" stroke="black" stroke-width="1" />
<path d="M47.15574780745429,-39.494242823509666 L46.64448005659493,-39.40540226670594 L38.0,-38.0" fill-opacity="0" stroke="black" stroke-width="1" />
<path d="M47.15574780745429,39.494242823509666 L46.64448005659493,39.40540226670594 L38.0,38.0" fill-opacity="0" stroke="black" stroke-width="1" />
<path d="M39.40540226670594,53.35551994340507 L38.0,62.0 L31.0,69.0" fill-opacity="0" stroke="black" stroke-width="1" />
<path d="M39.40540226670594,-53.35551994340507 L38.0,-62.0 L31.0,-69.0" fill-opacity="0" stroke="black" stroke-width="1" />
<path d="M38.0,62.0 L31.0,69.0 L19.0,81.0" fill-opacity="0" stroke="black" stroke-width="1" />
<path d="M38.0,-62.0 L31.0,-69.0 L19.0,-81.0" fill-opacity="0" stroke="black" stroke-width="1" />
<path d="M31.0,69.0 L19.0,81.0 L7.0,93.0" fill-opacity="0" stroke="black" stroke-width="1" />
<path d="M31.0,-69.0 L19.0,-81.0 L7.0,-93.0" fill-opacity="0" stroke="black" stroke-width="1" />
<path d="M19.0,81.0 L7.0,93.0 L0.6553708874692931,93.48253080358401" fill-opacity="0" stroke="black" stroke-width="1" />
<path d="M19.0,-81.0 L7.0,-93.0 L0.6553708874692931,-93.48253080358401" fill-opacity="0" stroke="black" stroke-width="1" />
<path d="M7.0,-7.0 L6.517469196415993,-0.6553708874692931 L6.0,-6.0" fill-opacity="0" stroke="black" stroke-width="1" />
<path d="M7.0,7.0 L6.517469196415993,0.6553708874692931 L6.0,6.0" fill-opacity="0" stroke="black" stroke-width="1" />
<path d="M0.6553708874692931,93.48253080358401 L6.0,94.0 L0.5857831652615303,98.16695877101591" fill-opacity="0" stroke="black" stroke-width="1" />
<path d="M0.6553708874692931,-93.48253080358401 L6.0,-94.0 L0.5857831652615303,-98.16695877101591" fill-opacity="0" stroke="black" stroke-width="1" />
<path d="M6.0,-6.0 L1.833041228984095,-0.5857831652615303 L1.6914957974060671,-0.5549539542017475" fill-opacity="0" stroke="black" stroke-width="1" />
<path d="M6.0,6.0 L1.833041228984095,0.5857831652615303 L1.6914957974060671,0.5549539542017475" fill-opacity="0" stroke="black" stroke-width="1" />
<path d="M1.833041228984095,-0.5857831652615303 L1.6914957974060671,-0.5549539542017475 L0.0,-0.0" fill-opacity="0" stroke="black" stroke-width="1" />
<path d="M1.833041228984095,0.5857831652615303 L1.6914957974060671,0.5549539542017475 L0.0,-0.0" fill-opacity="0" stroke="black" stroke-width="1" />
<path d="M-5.0,-0.0 L-12.12958930876144,-0.7945301104446995 L-13.0,-0.0" fill-opacity="0" stroke="black" stroke-width="1" />
<path d="M-5.0,-0.0 L-12.12958930876144,0.7945301104446995 L-13.0,-0.0" fill-opacity="0" stroke="black" stroke-width="1" />
<path d="M-13.0,-0.0 L-14.905656187438604,-1.834548029381733 L-17.601564601965098,-3.3819030051514405" fill-opacity="0" stroke="black" stroke-width="1" />
<path d="M-13.0,-0.0 L-14.905656187438604,1.834548029381733 L-17.601564601965098,3.3819030051514405" fill-opacity="0" stroke="black" stroke-width="1" />
<path d="M-14.905656187438604,-1.834548029381733 L-17.601564601965098,-3.3819030051514405 L-17.886545116301107,-4.412704221809358" fill-opacity="0" stroke="black" stroke-width="1" />
<path d="M-14.905656187438604,1.834548029381733 L-17.601564601965098,3.3819030051514405 L-17.886545116301107,4.412704221809358" fill-opacity="0" stroke="black" stroke-width="1" />
<path d="M-17.601564601965098,-3.3819030051514405 L-17.886545116301107,-4.412704221809358 L-22.36618847730638,-4.644495636203226" fill-opacity="0" stroke="black" stroke-width="1" />
<path d="M-17.601564601965098,3.3819030051514405 L-17.886545116301107,4.412704221809358 L-22.36618847730638,4.644495636203226" fill-opacity="0" stroke="black" stroke-width="1" />
<path d="M-17.886545116301107,-4.412704221809358 L-22.36618847730638,-4.644495636203226 L-24.89159759000641,-6.200909652340678" fill-opacity="0" stroke="black" stroke-width="1" />
<path d="M-17.886545116301107,4.412704221809358 L-22.36618847730638,4.644495636203226 L-24.89159759000641,6.200909652340678" fill-opacity="0" stroke="black" stroke-width="1" />
<path d="M-22.36618847730638,-4.644495636203226 L-24.89159759000641,-6.200909652340678 L-28.10962274808935,-10.298477489988198" fill-opacity="0" stroke="black" stroke-width="1" />
<path d="M-22.36618847730638,4.644495636203226 L-24.89159759000641,6.200909652340678 L-28.10962274808935,10.298477489988198" fill-opacity="0" stroke="black" stroke-width="1" />
<path d="M-24.89159759000641,-6.200909652340678 L-28.10962274808935,-10.298477489988198 L-28.73614246043633,-13.276500992611066" fill-opacity="0" stroke="black" stroke-width="1" />
<path d="M-24.89159759000641,6.200909652340678 L-28.10962274808935,10.298477489988198 L-28.73614246043633,13.276500992611066" fill-opacity="0" stroke="black" stroke-width="1" />
<path d="M-28.10962274808935,-10.298477489988198 L-28.73614246043633,-13.276500992611066 L-33.0,-0.0" fill-opacity="0" stroke="black" stroke-width="1" />
<path d="M-28.10962274808935,10.298477489988198 L-28.73614246043633,13.276500992611066 L-33.0,-0.0" fill-opacity="0" stroke="black" stroke-width="1" />
<path d="M-50.0,-11.0 L-36.145051793420635,-20.50063118877078 L-50.0,-24.0" fill-opacity="0" stroke="black" stroke-width="1" />
<path d="M-50.0,11.0 L-36.145051793420635,20.50063118877078 L-50.0,24.0" fill-opacity="0" stroke="black" stroke-width="1" />
<path d="M-50.0,-24.0 L-37.495261998274515,-27.88352229657174 L-42.055402376562796,-28.576093693989" fill-opacity="0" stroke="black" stroke-width="1" />
<path d="M-50.0,24.0 L-37.495261998274515,27.88352229657174 L-42.055402376562796,28.576093693989" fill-opacity="0" stroke="black" stroke-width="1" />
<path d="M-37.495261998274515,-27.88352229657174 L-42.055402376562796,-28.576093693989 L-43.86839056202481,-29.715557944411653" fill-opacity="0" stroke="black" stroke-width="1" />
<path d="M-37.495261998274515,27.88352229657174 L-42.055402376562796,28.576093693989 L-43.86839056202481,29.715557944411653" fill-opacity="0" stroke="black" stroke-width="1" />
<path d="M-42.055402376562796,-28.576093693989 L-43.86839056202481,-29.715557944411653 L-44.78331315749214,-33.68733512065878" fill-opacity="0" stroke="black" stroke-width="1" />
<path d="M-42.055402376562796,28.576093693989 L-43.86839056202481,29.715557944411653 L-44.78331315749214,33.68733512065878" fill-opacity="0" stroke="black" stroke-width="1" />
<path d="M-43.86839056202481,-29.715557944411653 L-44.78331315749214,-33.68733512065878 L-50.0,-34.0" fill-opacity="0" stroke="black" stroke-width="1" />
<path d="M-43.86839056202481,29.715557944411653 L-44.78331315749214,33.68733512065878 L-50.0,34.0" fill-opacity="0" stroke="black" stroke-width="1" />
<path d="M-50.0,-34.0 L-44.864996881323506,-34.03411517063194 L-50.0,-45.0" fill-opacity="0" stroke="black" stroke-width="1" />
<path d="M-50.0,34.0 L-44.864996881323506,34.03411517063194 L-50.0,45.0" fill-opacity="0" stroke="black" stroke-width="1" />
<path d="M-50.0,-45.0 L-47.15574780745429,-39.494242823509666 L-46.64448005659493,-39.40540226670594" fill-opacity="0" stroke="black" stroke-width="1" />
<path d="M-50.0,45.0 L-47.15574780745429,39.494242823509666 L-46.64448005659493,39.40540226670594" fill-opacity="0" stroke="black" stroke-width="1" />
<path d="M-47.15574780745429,-39.494242823509666 L-46.64448005659493,-39.40540226670594 L-38.0,-38.0" fill-opacity="0" stroke="black" stroke-width="1" />
<path d="M-47.15574780745429,39.494242823509666 L-46.64448005659493,39.40540226670594 L-38.0,38.0" fill-opacity="0" stroke="black" stroke-width="1" />
<path d="M-39.40540226670594,53.35551994340507 L-38.0,62.0 L-31.0,69.0" fill-opacity="0" stroke="black" stroke-width="1" />
<path d="M-39.40540226670594,-53.35551994340507 L-38.0,-62.0 L-31.0,-69.0" fill-opacity="0" stroke="black" stroke-width="1" />
<path d="M-38.0,62.0 L-31.0,69.0 L-19.0,81.0" fill-opacity="0" stroke="black" stroke-width="1" />
<path d="M-38.0,-62.0 L-31.0,-69.0 L-19.0,-81.0" fill-opacity="0" stroke="black" stroke-width="1" />
<path d="M-31.0,69.0 L-19.0,81.0 L-7.0,93.0" fill-opacity="0" stroke="black" stroke-width="1" />
<path d="M-31.0,-69.0 L-19.0,-81.0 L-7.0,-93.0" fill-opacity="0" stroke="black" stroke-width="1" />
<path d="M-19.0,81.0 L-7.0,93.0 L-0.6553708874692931,93.48253080358401" fill-opacity="0" stroke="black" stroke-width="1" />
<path d="M-19.0,-81.0 L-7.0,-93.0 L-0.6553708874692931,-93.48253080358401" fill-opacity="0" stroke="black" stroke-width="1" />
<path d="M-7.0,-7.0 L-6.517469196415993,-0.6553708874692931 L-6.0,-6.0" fill-opacity="0" stroke="black" stroke-width="1" />
<path d="M-7.0,7.0 L-6.517469196415993,0.6553708874692931 L-6.0,6.0" fill-opacity="0" stroke="black" stroke-width="1" />
<path d="M-0.6553708874692931,93.48253080358401 L-6.0,94.0 L-0.5857831652615303,98.1669587710159" fill-opacity="0" stroke="black" stroke-width="1" />
<path d="M-0.6553708874692931,-93.48253080358401 L-6.0,-94.0 L-0.5857831652615303,-98.16695877101591" fill-opacity="0" stroke="black" stroke-width="1" />
<path d="M-6.0,-6.0 L-1.833041228984095,-0.5857831652615303 L-1.6914957974060671,-0.5549539542017475" fill-opacity="0" stroke="black" stroke-width="1" />
<path d="M-6.0,6.0 L-1.833041228984095,0.5857831652615303 L-1.6914957974060671,0.5549539542017475" fill-opacity="0" stroke="black" stroke-width="1" />
<path d="M-1.833041228984095,-0.5857831652615303 L-1.6914957974060671,-0.5549539542017475 L0.0,-0.0" fill-opacity="0" stroke="black" stroke-width="1" />
<path d="M-1.833041228984095,0.5857831652615303 L-1.6914957974060671,0.5549539542017475 L0.0,-0.0" fill-opacity="0" stroke="black" stroke-width="1" />
<path d="M95.0,-0.0 L87.87041069123856,0.7945301104446995 L87.0,-0.0" fill-opacity="0" stroke="black" stroke-width="1" />
<path d="M95.0,-0.0 L87.87041069123856,-0.7945301104446995 L87.0,-0.0" fill-opacity="0" stroke="black" stroke-width="1" />
<path d="M87.0,-0.0 L85.09434381256139,1.834548029381733 L82.3984353980349,3.3819030051514405" fill-opacity="0" stroke="black" stroke-width="1" />
<path d="M87.0,-0.0 L85.09434381256139,-1.834548029381733 L82.3984353980349,-3.3819030051514405" fill-opacity="0" stroke="black" stroke-width="1" />
<path d="M85.09434381256139,1.834548029381733 L82.3984353980349,3.3819030051514405 L82.11345488369889,4.412704221809358" fill-opacity="0" stroke="black" stroke-width="1" />
<path d="M85.09434381256139,-1.834548029381733 L82.3984353980349,-3.3819030051514405 L82.11345488369889,-4.412704221809358" fill-opacity="0" stroke="black" stroke-width="1" />
<path d="M82.3984353980349,3.3819030051514405 L82.11345488369889,4.412704221809358 L77.63381152269362,4.644495636203226" fill-opacity="0" stroke="black" stroke-width="1" />
<path d="M82.3984353980349,-3.3819030051514405 L82.11345488369889,-4.412704221809358 L77.63381152269362,-4.644495636203226" fill-opacity="0" stroke="black" stroke-width="1" />
<path d="M82.11345488369889,4.412704221809358 L77.63381152269362,4.644495636203226 L75.10840240999359,6.200909652340678" fill-opacity="0" stroke="black" stroke-width="1" />
<path d="M82.11345488369889,-4.412704221809358 L77.63381152269362,-4.644495636203226 L75.10840240999359,-6.200909652340678" fill-opacity="0" stroke="black" stroke-width="1" />
<path d="M77.63381152269362,4.644495636203226 L75.10840240999359,6.200909652340678 L71.89037725191065,10.298477489988198" fill-opacity="0" stroke="black" stroke-width="1" />
<path d="M77.63381152269362,-4.644495636203226 L75.10840240999359,-6.200909652340678 L71.89037725191065,-10.298477489988198" fill-opacity="0" stroke="black" stroke-width="1" />
<path d="M75.10840240999359,6.200909652340678 L71.89037725191065,10.298477489988198 L71.26385753956367,13.276500992611066" fill-opacity="0" stroke="black" stroke-width="1" />
<path d="M75.10840240999359,-6.200909652340678 L71.89037725191065,-10.298477489988198 L71.26385753956367,-13.276500992611066" fill-opacity="0" stroke="black" stroke-width="1" />
<path d="M71.89037725191065,10.298477489988198 L71.26385753956367,13.276500992611066 L67.0,-0.0" fill-opacity="0" stroke="black" stroke-width="1" />
<path d="M71.89037725191065,-10.298477489988198 L71.26385753956367,-13.276500992611066 L67.0,-0.0" fill-opacity="0" stroke="black" stroke-width="1" />
<path d="M50.0,11.0 L63.854948206579365,20.50063118877078 L50.0,24.0" fill-opacity="0" stroke="black" stroke-width="1" />
<path d="M50.0,-11.0 L63.854948206579365,-20.50063118877078 L50.0,-24.0" fill-opacity="0" stroke="black" stroke-width="1" />
<path d="M50.0,24.0 L62.504738001725485,27.88352229657174 L57.944597623437204,28.576093693989" fill-opacity="0" stroke="black" stroke-width="1" />
<path d="M50.0,-24.0 L62.504738001725485,-27.88352229657174 L57.944597623437204,-28.576093693989" fill-opacity="0" stroke="black" stroke-width="1" />
<path d="M62.504738001725485,27.88352229657174 L57.944597623437204,28.576093693989 L56.13160943797519,29.715557944411653" fill-opacity="0" stroke="black" stroke-width="1" />
<path d="M62.504738001725485,-27.88352229657174 L57.944597623437204,-28.576093693989 L56.13160943797519,-29.715557944411653" fill-opacity="0" stroke="black" stroke-width="1" />
<path d="M57.944597623437204,28.576093693989 L56.13160943797519,29.715557944411653 L55.21668684250786,33.68733512065878" fill-opacity="0" stroke="black" stroke-width="1" />
<path d="M57.944597623437204,-28.576093693989 L56.13160943797519,-29.715557944411653 L55.21668684250786,-33.68733512065878" fill-opacity="0" stroke="black" stroke-width="1" />
<path d="M56.13160943797519,29.715557944411653 L55.21668684250786,33.68733512065878 L50.0,34.0" fill-opacity="0" stroke="black" stroke-width="1" />
<path d="M56.13160943797519,-29.715557944411653 L55.21668684250786,-33.68733512065878 L50.0,-34.0" fill-opacity="0" stroke="black" stroke-width="1" />
<path d="M50.0,34.0 L55.135003118676494,34.03411517063194 L50.0,45.0" fill-opacity="0" stroke="black" stroke-width="1" />
<path d="M50.0,-34.0 L55.135003118676494,-34.03411517063194 L50.0,-45.0" fill-opacity="0" stroke="black" stroke-width="1" />
<path d="M50.0,45.0 L52.84425219254571,39.494242823509666 L53.35551994340507,39.40540226670594" fill-opacity="0" stroke="black" stroke-width="1" />
<path d="M50.0,-45.0 L52.84425219254571,-39.494242823509666 L53.35551994340507,-39.40540226670594" fill-opacity="0" stroke="black" stroke-width="1" />
<path d="M52.84425219254571,39.494242823509666 L53.35551994340507,39.40540226670594 L62.0,38.0" fill-opacity="0" stroke="black" stroke-width="1" />
<path d="M52.84425219254571,-39.494242823509666 L53.35551994340507,-39.40540226670594 L62.0,-38.0" fill-opacity="0" stroke="black" stroke-width="1" />
<path d="M53.35551994340507,39.40540226670594 L62.0,38.0 L69.0,31.0" fill-opacity="0" stroke="black" stroke-width="1" />
<path d="M53.35551994340507,-39.40540226670594 L62.0,-38.0 L69.0,-31.0" fill-opacity="0" stroke="black" stroke-width="1" />
<path d="M62.0,38.0 L69.0,31.0 L81.0,19.0" fill-opacity="0" stroke="black" stroke-width="1" />
<path d="M62.0,-38.0 L69.0,-31.0 L81.0,-19.0" fill-opacity="0" stroke="black" stroke-width="1" />
<path d="M69.0,31.0 L81.0,19.0 L93.0,7.0" fill-opacity="0" stroke="black" stroke-width="1" />
<path d="M69.0,-31.0 L81.0,-19.0 L93.0,-7.0" fill-opacity="0" stroke="black" stroke-width="1" />
<path d="M81.0,19.0 L93.0,7.0 L93.48253080358401,0.6553708874692931" fill-opacity="0" stroke="black" stroke-width="1" />
<path d="M81.0,-19.0 L93.0,-7.0 L93.48253080358401,-0.6553708874692931" fill-opacity="0" stroke="black" stroke-width="1" />
<path d="M93.0,7.0 L93.48253080358401,0.6553708874692931 L94.0,6.0" fill-opacity="0" stroke="black" stroke-width="1" />
<path d="M93.0,-7.0 L93.48253080358401,-0.6553708874692931 L94.0,-6.0" fill-opacity="0" stroke="black" stroke-width="1" />
<path d="M93.48253080358401,0.6553708874692931 L94.0,6.0 L98.16695877101591,0.5857831652615303" fill-opacity="0" stroke="black" stroke-width="1" />
<path d="M93.48253080358401,-0.6553708874692931 L94.0,-6.0 L98.16695877101591,-0.5857831652615303" fill-opacity="0" stroke="black" stroke-width="1" />
<path d="M94.0,6.0 L98.16695877101591,0.5857831652615303 L98.30850420259392,0.5549539542017475" fill-opacity="0" stroke="black" stroke-width="1" />
<path d="M94.0,-6.0 L98.16695877101591,-0.5857831652615303 L98.30850420259392,-0.5549539542017475" fill-opacity="0" stroke="black" stroke-width="1" />
<path d="M98.16695877101591,0.5857831652615303 L98.30850420259392,0.5549539542017475 L100.0,-0.0" fill-opacity="0" stroke="black" stroke-width="1" />
<path d="M98.16695877101591,-0.5857831652615303 L98.30850420259392,-0.5549539542017475 L100.0,-0.0" fill-opacity="0" stroke="black" stroke-width="1" />
<path d="M0.0,-5.0 L0.7945301104446995,-12.12958930876144 L0.0,-13.0" fill-opacity="0" stroke="black" stroke-width="1" />
<path d="M0.0,5.0 L0.7945301104446995,12.12958930876144 L0.0,13.0" fill-opacity="0" stroke="black" stroke-width="1" />
<path d="M0.0,95.0 L0.7945301104446995,87.87041069123856 L0.0,87.0" fill-opacity="0" stroke="black" stroke-width="1" />
<path d="M0.0,-95.0 L0.7945301104446995,-87.87041069123856 L0.0,-87.0" fill-opacity="0" stroke="black" stroke-width="1" />
<path d="M0.0,-13.0 L1.834548029381733,-14.905656187438604 L3.3819030051514405,-17.601564601965098" fill-opacity="0" stroke="black" stroke-width="1" />
<path d="M0.0,13.0 L1.834548029381733,14.905656187438604 L3.3819030051514405,17.601564601965098" fill-opacity="0" stroke="black" stroke-width="1" />
<path d="M0.0,87.0 L1.834548029381733,85.09434381256139 L3.3819030051514405,82.3984353980349" fill-opacity="0" stroke="black" stroke-width="1" />
<path d="M0.0,-87.0 L1.834548029381733,-85.09434381256139 L3.3819030051514405,-82.3984353980349" fill-opacity="0" stroke="black" stroke-width="1" />
<path d="M1.834548029381733,-14.905656187438604 L3.3819030051514405,-17.601564601965098 L4.412704221809358,-17.886545116301107" fill-opacity="0" stroke="black" stroke-width="1" />
<path d="M1.834548029381733,14.905656187438604 L3.3819030051514405,17.601564601965098 L4.412704221809358,17.886545116301107" fill-opacity="0" stroke="black" stroke-width="1" />
<path d="M1.834548029381733,85.09434381256139 L3.3819030051514405,82.3984353980349 L4.412704221809358,82.11345488369889" fill-opacity="0" stroke="black" stroke-width="1" />
<path d="M1.834548029381733,-85.09434381256139 L3.3819030051514405,-82.3984353980349 L4.412704221809358,-82.11345488369889" fill-opacity="0" stroke="black" stroke-width="1" />
<path d="M3.3819030051514405,-17.601564601965098 L4.412704221809358,-17.886545116301107 L4.644495636203226,-22.36618847730638" fill-opacity="0" stroke="black" stroke-width="1" />
<path d="M3.3819030051514405,17.601564601965098 L4.412704221809358,17.886545116301107 L4.644495636203226,22.36618847730638" fill-opacity="0" stroke="black" stroke-width="1" />
<path d="M3.3819030051514405,82.3984353980349 L4.412704221809358,82.11345488369889 L4.644495636203226,77.63381152269362" fill-opacity="0" stroke="black" stroke-width="1" />
<path d="M3.3819030051514405,-82.3984353980349 L4.412704221809358,-82.11345488369889 L4.644495636203226,-77.63381152269362" fill-opacity="0" stroke="black" stroke-width="1" />
<path d="M4.412704221809358,-17.886545116301107 L4.644495636203226,-22.36618847730638 L6.200909652340678,-24.89159759000641" fill-opacity="0" stroke="black" stroke-width="1" />
<path d="M4.412704221809358,17.886545116301107 L4.644495636203226,22.36618847730638 L6.200909652340678,24.89159759000641" fill-opacity="0" stroke="black" stroke-width="1" />
<path d="M4.412704221809358,82.11345488369889 L4.644495636203226,77.63381152269362 L6.200909652340678,75.10840240999359" fill-opacity="0" stroke="black" stroke-width="1" />
<path d="M4.412704221809358,-82.11345488369889 L4.644495636203226,-77.63381152269362 L6.200909652340678,-75.10840240999359" fill-opacity="0" stroke="black" stroke-width="1" />
<path d="M4.644495636203226,-22.36618847730638 L6.200909652340678,-24.89159759000641 L10.298477489988198,-28.10962274808935" fill-opacity="0" stroke="black" stroke-width="1" />
<path d="M4.644495636203226,22.36618847730638 L6.200909652340678,24.89159759000641 L10.298477489988198,28.10962274808935" fill-opacity="0" stroke="black" stroke-width="1" />
<path d="M4.644495636203226,77.63381152269362 L6.200909652340678,75.10840240999359 L10.298477489988198,71.89037725191065" fill-opacity="0" stroke="black" stroke-width="1" />
<path d="M4.644495636203226,-77.63381152269362 L6.200909652340678,-75.10840240999359 L10.298477489988198,-71.89037725191065" fill-opacity="0" stroke="black" stroke-width="1" />
<path d="M6.200909652340678,-24.89159759000641 L10.298477489988198,-28.10962274808935 L13.276500992611066,-28.73614246043633" fill-opacity="0" stroke="black" stroke-width="1" />
<path d="M6.200909652340678,24.89159759000641 L10.298477489988198,28.10962274808935 L13.276500992611066,28.73614246043633" fill-opacity="0" stroke="black" stroke-width="1" />
<path d="M6.200909652340678,75.10840240999359 L10.298477489988198,71.89037725191065 L13.276500992611066,71.26385753956367" fill-opacity="0" stroke="black" stroke-width="1" />
<path d="M6.200909652340678,-75.10840240999359 L10.298477489988198,-71.89037725191065 L13.276500992611066,-71.26385753956367" fill-opacity="0" stroke="black" stroke-width="1" />
<path d="M10.298477489988198,-28.10962274808935 L13.276500992611066,-28.73614246043633 L0.0,-33.0" fill-opacity="0" stroke="black" stroke-width="1" />
<path d="M10.298477489988198,28.10962274808935 L13.276500992611066,28.73614246043633 L0.0,33.0" fill-opacity="0" stroke="black" stroke-width="1" />
<path d="M10.298477489988198,71.89037725191065 L13.276500992611066,71.26385753956367 L0.0,67.0" fill-opacity="0" stroke="black" stroke-width="1" />
<path d="M10.298477489988198,-71.89037725191065 L13.276500992611066,-71.26385753956367 L0.0,-67.0" fill-opacity="0" stroke="black" stroke-width="1" />
<path d="M11.0,-50.0 L20.50063118877078,-36.145051793420635 L24.0,-50.0" fill-opacity="0" stroke="black" stroke-width="1" />
<path d="M11.0,50.0 L20.50063118877078,36.145051793420635 L24.0,50.0" fill-opacity="0" stroke="black" stroke-width="1" />
<path d="M11.0,50.0 L20.50063118877078,63.854948206579365 L24.0,50.0" fill-opacity="0" stroke="black" stroke-width="1" />
<path d="M11.0,-50.0 L20.50063118877078,-63.854948206579365 L24.0,-50.0" fill-opacity="0" stroke="black" stroke-width="1" />
<path d="M24.0,-50.0 L27.88352229657174,-37.495261998274515 L28.576093693989,-42.055402376562796" fill-opacity="0" stroke="black" stroke-width="1" />
<path d="M24.0,50.0 L27.88352229657174,37.495261998274515 L28.576093693989,42.055402376562796" fill-opacity="0" stroke="black" stroke-width="1" />
<path d="M24.0,50.0 L27.88352229657174,62.504738001725485 L28.576093693989,57.944597623437204" fill-opacity="0" stroke="black" stroke-width="1" />
<path d="M24.0,-50.0 L27.88352229657174,-62.504738001725485 L28.576093693989,-57.944597623437204" fill-opacity="0" stroke="black" stroke-width="1" />
<path d="M27.88352229657174,-37.495261998274515 L28.576093693989,-42.055402376562796 L29.715557944411653,-43.86839056202481" fill-opacity="0" stroke="black" stroke-width="1" />
<path d="M27.88352229657174,37.495261998274515 L28.576093693989,42.055402376562796 L29.715557944411653,43.86839056202481" fill-opacity="0" stroke="black" stroke-width="1" />
<path d="M27.88352229657174,62.504738001725485 L28.576093693989,57.944597623437204 L29.715557944411653,56.13160943797519" fill-opacity="0" stroke="black" stroke-width="1" />
<path d="M27.88352229657174,-62.504738001725485 L28.576093693989,-57.944597623437204 L29.715557944411653,-56.13160943797519" fill-opacity="0" stroke="black" stroke-width="1" />
<path d="M28.576093693989,-42.055402376562796 L29.715557944411653,-43.86839056202481 L33.68733512065878,-44.78331315749214" fill-opacity="0" stroke="black" stroke-width="1" />
<path d="M28.576093693989,42.055402376562796 L29.715557944411653,43.86839056202481 L33.68733512065878,44.78331315749214" fill-opacity="0" stroke="black" stroke-width="1" />
<path d="M28.576093693989,57.944597623437204 L29.715557944411653,56.13160943797519 L33.68733512065878,55.21668684250786" fill-opacity="0" stroke="black" stroke-width="1" />
<path d="M28.576093693989,-57.944597623437204 L29.715557944411653,-56.13160943797519 L33.68733512065878,-55.21668684250786" fill-opacity="0" stroke="black" stroke-width="1" />
<path d="M29.715557944411653,-43.86839056202481 L33.68733512065878,-44.78331315749214 L34.0,-50.0" fill-opacity="0" stroke="black" stroke-width="1" />
<path d="M29.715557944411653,43.86839056202481 L33.68733512065878,44.78331315749214 L34.0,50.0" fill-opacity="0" stroke="black" stroke-width="1" />
<path d="M29.715557944411653,56.13160943797519 L33.68733512065878,55.21668684250786 L34.0,50.0" fill-opacity="0" stroke="black" stroke-width="1" />
<path d="M29.715557944411653,-56.13160943797519 L33.68733512065878,-55.21668684250786 L34.0,-50.0" fill-opacity="0" stroke="black" stroke-width="1" />
<path d="M34.0,-50.0 L34.03411517063194,-44.864996881323506 L45.0,-50.0" fill-opacity="0" stroke="black" stroke-width="1" />
<path d="M34.0,50.0 L34.03411517063194,44.864996881323506 L45.0,50.0" fill-opacity="0" stroke="black" stroke-width="1" />
<path d="M34.0,50.0 L34.03411517063194,55.135003118676494 L45.0,50.0" fill-opacity="0" stroke="black" stroke-width="1" />
<path d="M34.0,-50.0 L34.03411517063194,-55.135003118676494 L45.0,-50.0" fill-opacity="0" stroke="black" stroke-width="1" />
<path d="M45.0,-50.0 L39.494242823509666,-47.15574780745429 L39.40540226670594,-46.64448005659493" fill-opacity="0" stroke="black" stroke-width="1" />
<path d="M45.0,50.0 L39.494242823509666,47.15574780745429 L39.40540226670594,46.64448005659493" fill-opacity="0" stroke="black" stroke-width="1" />
<path d="M45.0,50.0 L39.494242823509666,52.84425219254571 L39.40540226670594,53.35551994340507" fill-opacity="0" stroke="black" stroke-width="1" />
<path d="M45.0,-50.0 L39.494242823509666,-52.84425219254571 L39.40540226670594,-53.35551994340507" fill-opacity="0" stroke="black" stroke-width="1" />
<path d="M39.494242823509666,-47.15574780745429 L39.40540226670594,-46.64448005659493 L38.0,-38.0" fill-opacity="0" stroke="black" stroke-width="1" />
<path d="M39.494242823509666,47.15574780745429 L39.40540226670594,46.64448005659493 L38.0,38.0" fill-opacity="0" stroke="black" stroke-width="1" />
<path d="M39.494242823509666,52.84425219254571 L39.40540226670594,53.35551994340507 L38.0,62.0" fill-opacity="0" stroke="black" stroke-width="1" />
<path d="M39.494242823509666,-52.84425219254571 L39.40540226670594,-53.35551994340507 L38.0,-62.0" fill-opacity="0" stroke="black" stroke-width="1" />
<path d="M7.0,-7.0 L0.6553708874692931,-6.517469196415993 L6.0,-6.0" fill-opacity="0" stroke="black" stroke-width="1" />
<path d="M7.0,7.0 L0.6553708874692931,6.517469196415993 L6.0,6.0" fill-opacity="0" stroke="black" stroke-width="1" />
<path d="M7.0,93.0 L0.6553708874692931,93.48253080358401 L6.0,94.0" fill-opacity="0" stroke="black" stroke-width="1" />
<path d="M7.0,-93.0 L0.6553708874692931,-93.48253080358401 L6.0,-94.0" fill-opacity="0" stroke="black" stroke-width="1" />
<path d="M6.0,-6.0 L0.5857831652615303,-1.833041228984095 L0.5549539542017475,-1.6914957974060671" fill-opacity="0" stroke="black" stroke-width="1" />
<path d="M6.0,6.0 L0.5857831652615303,1.833041228984095 L0.5549539542017475,1.6914957974060671" fill-opacity="0" stroke="black" stroke-width="1" />
<path d="M6.0,94.0 L0.5857831652615303,98.16695877101591 L0.5549539542017475,98.30850420259392" fill-opacity="0" stroke="black" stroke-width="1" />
<path d="M6.0,-94.0 L0.5857831652615303,-98.16695877101591 L0.5549539542017475,-98.30850420259392" fill-opacity="0" stroke="black" stroke-width="1" />
<path d="M0.5857831652615303,-1.833041228984095 L0.5549539542017475,-1.6914957974060671 L0.0,-0.0" fill-opacity="0" stroke="black" stroke-width="1" />
<path d="M0.5857831652615303,1.833041228984095 L0.5549539542017475,1.6914957974060671 L0.0,-0.0" fill-opacity="0" stroke="black" stroke-width="1" />
<path d="M0.5857831652615303,98.16695877101591 L0.5549539542017475,98.30850420259392 L0.0,100.0" fill-opacity="0" stroke="black" stroke-width="1" />
<path d="M0.5857831652615303,-98.16695877101591 L0.5549539542017475,-98.30850420259392 L0.0,-100.0" fill-opacity="0" stroke="black" stroke-width="1" />
<path d="M0.0,95.0 L-0.7945301104446995,87.87041069123856 L0.0,87.0" fill-opacity="0" stroke="black" stroke-width="1" />
<path d="M0.0,-5.0 L-0.7945301104446995,-12.12958930876144 L0.0,-13.0" fill-opacity="0" stroke="black" stroke-width="1" />
<path d="M0.0,5.0 L-0.7945301104446995,12.129589308761439 L0.0,13.0" fill-opacity="0" stroke="black" stroke-width="1" />
<path d="M0.0,-95.0 L-0.7945301104446995,-87.87041069123856 L0.0,-87.0" fill-opacity="0" stroke="black" stroke-width="1" />
<path d="M0.0,87.0 L-1.834548029381733,85.09434381256139 L-3.3819030051514405,82.3984353980349" fill-opacity="0" stroke="black" stroke-width="1" />
<path d="M0.0,-13.0 L-1.834548029381733,-14.905656187438604 L-3.3819030051514405,-17.601564601965098" fill-opacity="0" stroke="black" stroke-width="1" />
<path d="M0.0,13.0 L-1.834548029381733,14.905656187438609 L-3.3819030051514405,17.601564601965094" fill-opacity="0" stroke="black" stroke-width="1" />
<path d="M0.0,-87.0 L-1.834548029381733,-85.09434381256139 L-3.3819030051514405,-82.3984353980349" fill-opacity="0" stroke="black" stroke-width="1" />
<path d="M-1.834548029381733,85.09434381256139 L-3.3819030051514405,82.3984353980349 L-4.412704221809358,82.11345488369889" fill-opacity="0" stroke="black" stroke-width="1" />
<path d="M-1.834548029381733,-14.905656187438604 L-3.3819030051514405,-17.601564601965098 L-4.412704221809358,-17.886545116301107" fill-opacity="0" stroke="black" stroke-width="1" />
<path d="M-1.834548029381733,14.905656187438609 L-3.3819030051514405,17.601564601965094 L-4.412704221809358,17.886545116301107" fill-opacity="0" stroke="black" stroke-width="1" />
<path d="M-1.834548029381733,-85.09434381256139 L-3.3819030051514405,-82.3984353980349 L-4.412704221809358,-82.11345488369889" fill-opacity="0" stroke="black" stroke-width="1" />
<path d="M-3.3819030051514405,82.3984353980349 L-4.412704221809358,82.11345488369889 L-4.644495636203226,77.63381152269362" fill-opacity="0" stroke="black" stroke-width="1" />
<path d="M-3.3819030051514405,-17.601564601965098 L-4.412704221809358,-17.886545116301107 L-4.644495636203226,-22.36618847730638" fill-opacity="0" stroke="black" stroke-width="1" />
<path d="M-3.3819030051514405,17.601564601965094 L-4.412704221809358,17.886545116301107 L-4.644495636203226,22.36618847730638" fill-opacity="0" stroke="black" stroke-width="1" />
<path d="M-3.3819030051514405,-82.3984353980349 L-4.412704221809358,-82.11345488369889 L-4.644495636203226,-77.63381152269362" fill-opacity="0" stroke="black" stroke-width="1" />
<path d="M-4.412704221809358,82.11345488369889 L-4.644495636203226,77.63381152269362 L-6.200909652340678,75.10840240999359" fill-opacity="0" stroke="black" stroke-width="1" />
<path d="M-4.412704221809358,-17.886545116301107 L-4.644495636203226,-22.36618847730638 L-6.200909652340678,-24.89159759000641" fill-opacity="0" stroke="black" stroke-width="1" />
<path d="M-4.412704221809358,17.886545116301107 L-4.644495636203226,22.36618847730638 L-6.200909652340678,24.891597590006413" fill-opacity="0" stroke="black" stroke-width="1" />
<path d="M-4.412704221809358,-82.11345488369889 L-4.644495636203226,-77.63381152269362 L-6.200909652340678,-75.10840240999359" fill-opacity="0" stroke="black" stroke-width="1" />
<path d="M-4.644495636203226,77.63381152269362 L-6.200909652340678,75.10840240999359 L-10.298477489988198,71.89037725191065" fill-opacity="0" stroke="black" stroke-width="1" />
<path d="M-4.644495636203226,-22.36618847730638 L-6.200909652340678,-24.89159759000641 L-10.298477489988198,-28.10962274808935" fill-opacity="0" stroke="black" stroke-width="1" />
<path d="M-4.644495636203226,22.36618847730638 L-6.200909652340678,24.891597590006413 L-10.298477489988198,28.10962274808935" fill-opacity="0" stroke="black" stroke-width="1" />
<path d="M-4.644495636203226,-77.63381152269362 L-6.200909652340678,-75.10840240999359 L-10.298477489988198,-71.89037725191065" fill-opacity="0" stroke="black" stroke-width="1" />
<path d="M-6.200909652340678,75.10840240999359 L-10.298477489988198,71.89037725191065 L-13.276500992611066,71.26385753956367" fill-opacity="0" stroke="black" stroke-width="1" />
<path d="M-6.200909652340678,-24.89159759000641 L-10.298477489988198,-28.10962274808935 L-13.276500992611066,-28.73614246043633" fill-opacity="0" stroke="black" stroke-width="1" />
<path d="M-6.200909652340678,24.891597590006413 L-10.298477489988198,28.10962274808935 L-13.276500992611066,28.736142460436326" fill-opacity="0" stroke="black" stroke-width="1" />
<path d="M-6.200909652340678,-75.10840240999359 L-10.298477489988198,-71.89037725191065 L-13.276500992611066,-71.26385753956367" fill-opacity="0" stroke="black" stroke-width="1" />
<path d="M-10.298477489988198,71.89037725191065 L-13.276500992611066,71.26385753956367 L0.0,67.0" fill-opacity="0" stroke="black" stroke-width="1" />
<path d="M-10.298477489988198,-28.10962274808935 L-13.276500992611066,-28.73614246043633 L0.0,-33.0" fill-opacity="0" stroke="black" stroke-width="1" />
<path d="M-10.298477489988198,28.10962274808935 L-13.276500992611066,28.736142460436326 L0.0,33.0" fill-opacity="0" stroke="black" stroke-width="1" />
<path d="M-10.298477489988198,-71.89037725191065 L-13.276500992611066,-71.26385753956367 L0.0,-67.0" fill-opacity="0" stroke="black" stroke-width="1" />
<path d="M-11.0,50.0 L-20.50063118877078,63.854948206579365 L-24.0,50.0" fill-opacity="0" stroke="black" stroke-width="1" />
<path d="M-11.0,-50.0 L-20.50063118877078,-36.145051793420635 L-24.0,-50.0" fill-opacity="0" stroke="black" stroke-width="1" />
<path d="M-11.0,50.0 L-20.50063118877078,36.145051793420635 L-24.0,50.0" fill-opacity="0" stroke="black" stroke-width="1" />
<path d="M-11.0,-50.0 L-20.50063118877078,-63.854948206579365 L-24.0,-50.0" fill-opacity="0" stroke="black" stroke-width="1" />
<path d="M-24.0,50.0 L-27.88352229657174,62.504738001725485 L-28.576093693989,57.944597623437204" fill-opacity="0" stroke="black" stroke-width="1" />
<path d="M-24.0,-50.0 L-27.88352229657174,-37.495261998274515 L-28.576093693989,-42.055402376562796" fill-opacity="0" stroke="black" stroke-width="1" />
<path d="M-24.0,50.0 L-27.88352229657174,37.495261998274515 L-28.576093693989,42.055402376562796" fill-opacity="0" stroke="black" stroke-width="1" />
<path d="M-24.0,-50.0 L-27.88352229657174,-62.504738001725485 L-28.576093693989,-57.944597623437204" fill-opacity="0" stroke="black" stroke-width="1" />
<path d="M-27.88352229657174,62.504738001725485 L-28.576093693989,57.944597623437204 L-29.715557944411653,56.13160943797519" fill-opacity="0" stroke="black" stroke-width="1" />
<path d="M-27.88352229657174,-37.495261998274515 L-28.576093693989,-42.055402376562796 L-29.715557944411653,-43.86839056202481" fill-opacity="0" stroke="black" stroke-width="1" />
<path d="M-27.88352229657174,37.495261998274515 L-28.576093693989,42.055402376562796 L-29.715557944411653,43.86839056202481" fill-opacity="0" stroke="black" stroke-width="1" />
<path d="M-27.88352229657174,-62.504738001725485 L-28.576093693989,-57.944597623437204 L-29.715557944411653,-56.13160943797519" fill-opacity="0" stroke="black" stroke-width="1" />
<path d="M-28.576093693989,57.944597623437204 L-29.715557944411653,56.13160943797519 L-33.68733512065878,55.21668684250786" fill-opacity="0" stroke="black" stroke-width="1" />
<path d="M-28.576093693989,-42.055402376562796 L-29.715557944411653,-43.86839056202481 L-33.68733512065878,-44.78331315749214" fill-opacity="0" stroke="black" stroke-width="1" />
<path d="M-28.576093693989,42.055402376562796 L-29.715557944411653,43.86839056202481 L-33.68733512065878,44.78331315749214" fill-opacity="0" stroke="black" stroke-width="1" />
<path d="M-28.576093693989,-57.944597623437204 L-29.715557944411653,-56.13160943797519 L-33.68733512065878,-55.21668684250786" fill-opacity="0" stroke="black" stroke-width="1" />
<path d="M-29.715557944411653,56.13160943797519 L-33.68733512065878,55.21668684250786 L-34.0,50.0" fill-opacity="0" stroke="black" stroke-width="1" />
<path d="M-29.715557944411653,-43.86839056202481 L-33.68733512065878,-44.78331315749214 L-34.0,-50.0" fill-opacity="0" stroke="black" stroke-width="1" />
<path d="M-29.715557944411653,43.86839056202481 L-33.68733512065878,44.78331315749214 L-34.0,50.0" fill-opacity="0" stroke="black" stroke-width="1" />
<path d="M-29.715557944411653,-56.13160943797519 L-33.68733512065878,-55.21668684250786 L-34.0,-50.0" fill-opacity="0" stroke="black" stroke-width="1" />
<path d="M-34.0,50.0 L-34.03411517063194,55.135003118676494 L-45.0,50.0" fill-opacity="0" stroke="black" stroke-width="1" />
<path d="M-34.0,-50.0 L-34.03411517063194,-44.864996881323506 L-45.0,-50.0" fill-opacity="0" stroke="black" stroke-width="1" />
<path d="M-34.0,50.0 L-34.03411517063194,44.864996881323506 L-45.0,50.0" fill-opacity="0" stroke="black" stroke-width="1" />
<path d="M-34.0,-50.0 L-34.03411517063194,-55.135003118676494 L-45.0,-50.0" fill-opacity="0" stroke="black" stroke-width="1" />
<path d="M-45.0,50.0 L-39.494242823509666,52.84425219254571 L-39.40540226670594,53.35551994340507" fill-opacity="0" stroke="black" stroke-width="1" />
<path d="M-45.0,-50.0 L-39.494242823509666,-47.15574780745429 L-39.40540226670594,-46.64448005659493" fill-opacity="0" stroke="black" stroke-width="1" />
<path d="M-45.0,50.0 L-39.494242823509666,47.15574780745429 L-39.40540226670594,46.64448005659493" fill-opacity="0" stroke="black" stroke-width="1" />
<path d="M-45.0,-50.0 L-39.494242823509666,-52.84425219254571 L-39.40540226670594,-53.35551994340507" fill-opacity="0" stroke="black" stroke-width="1" />
<path d="M-39.494242823509666,52.84425219254571 L-39.40540226670594,53.35551994340507 L-38.0,62.0" fill-opacity="0" stroke="black" stroke-width="1" />
<path d="M-39.494242823509666,-47.15574780745429 L-39.40540226670594,-46.64448005659493 L-38.0,-38.0" fill-opacity="0" stroke="black" stroke-width="1" />
<path d="M-39.494242823509666,47.15574780745429 L-39.40540226670594,46.64448005659493 L-38.0,38.0" fill-opacity="0" stroke="black" stroke-width="1" />
<path d="M-39.494242823509666,-52.84425219254571 L-39.40540226670594,-53.35551994340507 L-38.0,-62.0" fill-opacity="0" stroke="black" stroke-width="1" />
<path d="M-7.0,93.0 L-0.6553708874692931,93.48253080358401 L-6.0,94.0" fill-opacity="0" stroke="black" stroke-width="1" />
<path d="M-7.0,-7.0 L-0.6553708874692931,-6.517469196415993 L-6.0,-6.0" fill-opacity="0" stroke="black" stroke-width="1" />
<path d="M-7.0,7.0 L-0.6553708874692931,6.517469196415988 L-6.0,6.0" fill-opacity="0" stroke="black" stroke-width="1" />
<path d="M-7.0,-93.0 L-0.6553708874692931,-93.48253080358401 L-6.0,-94.0" fill-opacity="0" stroke="black" stroke-width="1" />
<path d="M-6.0,94.0 L-0.5857831652615303,98.1669587710159 L-0.5549539542017475,98.30850420259394" fill-opacity="0" stroke="black" stroke-width="1" />
<path d="M-6.0,-6.0 L-0.5857831652615303,-1.833041228984095 L-0.5549539542017475,-1.6914957974060671" fill-opacity="0" stroke="black" stroke-width="1" />
<path d="M-6.0,6.0 L-0.5857831652615303,1.8330412289841007 L-0.5549539542017475,1.6914957974060627" fill-opacity="0" stroke="black" stroke-width="1" />
<path d="M-6.0,-94.0 L-0.5857831652615303,-98.16695877101591 L-0.5549539542017475,-98.30850420259392" fill-opacity="0" stroke="black" stroke-width="1" />
<path d="M-0.5857831652615303,98.1669587710159 L-0.5549539542017475,98.30850420259394 L0.0,100.0" fill-opacity="0" stroke="black" stroke-width="1" />
<path d="M-0.5857831652615303,-1.833041228984095 L-0.5549539542017475,-1.6914957974060671 L0.0,-0.0" fill-opacity="0" stroke="black" stroke-width="1" />
<path d="M-0.5857831652615303,1.8330412289841007 L-0.5549539542017475,1.6914957974060627 L0.0,-0.0" fill-opacity="0" stroke="black" stroke-width="1" />
<path d="M-0.5857831652615303,-98.16695877101591 L-0.5549539542017475,-98.30850420259392 L0.0,-100.0" fill-opacity="0" stroke="black" stroke-width="1" />
<path d="M-95.0,-0.0 L-87.87041069123856,-0.7945301104446995 L-87.0,-0.0" fill-opacity="0" stroke="black" stroke-width="1" />
<path d="M-95.0,-0.0 L-87.87041069123856,0.7945301104446995 L-87.0,-0.0" fill-opacity="0" stroke="black" stroke-width="1" />
<path d="M-87.0,-0.0 L-85.09434381256139,-1.834548029381733 L-82.3984353980349,-3.3819030051514405" fill-opacity="0" stroke="black" stroke-width="1" />
<path d="M-87.0,-0.0 L-85.09434381256139,1.834548029381733 L-82.3984353980349,3.3819030051514405" fill-opacity="0" stroke="black" stroke-width="1" />
<path d="M-85.09434381256139,-1.834548029381733 L-82.3984353980349,-3.3819030051514405 L-82.11345488369889,-4.412704221809358" fill-opacity="0" stroke="black" stroke-width="1" />
<path d="M-85.09434381256139,1.834548029381733 L-82.3984353980349,3.3819030051514405 L-82.11345488369889,4.412704221809358" fill-opacity="0" stroke="black" stroke-width="1" />
<path d="M-82.3984353980349,-3.3819030051514405 L-82.11345488369889,-4.412704221809358 L-77.63381152269362,-4.644495636203226" fill-opacity="0" stroke="black" stroke-width="1" />
<path d="M-82.3984353980349,3.3819030051514405 L-82.11345488369889,4.412704221809358 L-77.63381152269362,4.644495636203226" fill-opacity="0" stroke="black" stroke-width="1" />
<path d="M-82.11345488369889,-4.412704221809358 L-77.63381152269362,-4.644495636203226 L-75.10840240999359,-6.200909652340678" fill-opacity="0" stroke="black" stroke-width="1" />
<path d="M-82.11345488369889,4.412704221809358 L-77.63381152269362,4.644495636203226 L-75.10840240999359,6.200909652340678" fill-opacity="0" stroke="black" stroke-width="1" />
<path d="M-77.63381152269362,-4.644495636203226 L-75.10840240999359,-6.200909652340678 L-71.89037725191065,-10.298477489988198" fill-opacity="0" stroke="black" stroke-width="1" />
<path d="M-77.63381152269362,4.644495636203226 L-75.10840240999359,6.200909652340678 L-71.89037725191065,10.298477489988198" fill-opacity="0" stroke="black" stroke-width="1" />
<path d="M-75.10840240999359,-6.200909652340678 L-71.89037725191065,-10.298477489988198 L-71.26385753956367,-13.276500992611066" fill-opacity="0" stroke="black" stroke-width="1" />
<path d="M-75.10840240999359,6.200909652340678 L-71.89037725191065,10.298477489988198 L-71.26385753956367,13.276500992611066" fill-opacity="0" stroke="black" stroke-width="1" />
<path d="M-71.89037725191065,-10.298477489988198 L-71.26385753956367,-13.276500992611066 L-67.0,-0.0" fill-opacity="0" stroke="black" stroke-width="1" />
<path d="M-71.89037725191065,10.298477489988198 L-71.26385753956367,13.276500992611066 L-67.0,-0.0" fill-opacity="0" stroke="black" stroke-width="1" />
<path d="M-50.0,-11.0 L-63.854948206579365,-20.50063118877078 L-50.0,-24.0" fill-opacity="0" stroke="black" stroke-width="1" />
<path d="M-50.0,11.0 L-63.854948206579365,20.50063118877078 L-50.0,24.0" fill-opacity="0" stroke="black" stroke-width="1" />
<path d="M-50.0,-24.0 L-62.504738001725485,-27.88352229657174 L-57.944597623437204,-28.576093693989" fill-opacity="0" stroke="black" stroke-width="1" />
<path d="M-50.0,24.0 L-62.504738001725485,27.88352229657174 L-57.944597623437204,28.576093693989" fill-opacity="0" stroke="black" stroke-width="1" />
<path d="M-62.504738001725485,-27.88352229657174 L-57.944597623437204,-28.576093693989 L-56.13160943797519,-29.715557944411653" fill-opacity="0" stroke="black" stroke-width="1" />
<path d="M-62.504738001725485,27.88352229657174 L-57.944597623437204,28.576093693989 L-56.13160943797519,29.715557944411653" fill-opacity="0" stroke="black" stroke-width="1" />
<path d="M-57.944597623437204,-28.576093693989 L-56.13160943797519,-29.715557944411653 L-55.21668684250786,-33.68733512065878" fill-opacity="0" stroke="black" stroke-width="1" />
<path d="M-57.944597623437204,28.576093693989 L-56.13160943797519,29.715557944411653 L-55.21668684250786,33.68733512065878" fill-opacity="0" stroke="black" stroke-width="1" />
<path d="M-56.13160943797519,-29.715557944411653 L-55.21668684250786,-33.68733512065878 L-50.0,-34.0" fill-opacity="0" stroke="black" stroke-width="1" />
<path d="M-56.13160943797519,29.715557944411653 L-55.21668684250786,33.68733512065878 L-50.0,34.0" fill-opacity="0" stroke="black" stroke-width="1" />
<path d="M-50.0,-34.0 L-55.135003118676494,-34.03411517063194 L-50.0,-45.0" fill-opacity="0" stroke="black" stroke-width="1" />
<path d="M-50.0,34.0 L-55.135003118676494,34.03411517063194 L-50.0,45.0" fill-opacity="0" stroke="black" stroke-width="1" />
<path d="M-50.0,-45.0 L-52.84425219254571,-39.494242823509666 L-53.35551994340507,-39.40540226670594" fill-opacity="0" stroke="black" stroke-width="1" />
<path d="M-50.0,45.0 L-52.84425219254571,39.494242823509666 L-53.35551994340507,39.40540226670594" fill-opacity="0" stroke="black" stroke-width="1" />
<path d="M-52.84425219254571,-39.494242823509666 L-53.35551994340507,-39.40540226670594 L-62.0,-38.0" fill-opacity="0" stroke="black" stroke-width="1" />
<path d="M-52.84425219254571,39.494242823509666 L-53.35551994340507,39.40540226670594 L-62.0,38.0" fill-opacity="0" stroke="black" stroke-width="1" />
<path d="M-53.35551994340507,-39.40540226670594 L-62.0,-38.0 L-69.0,-31.0" fill-opacity="0" stroke="black" stroke-width="1" />
<path d="M-53.35551994340507,39.40540226670594 L-62.0,38.0 L-69.0,31.0" fill-opacity="0" stroke="black" stroke-width="1" />
<path d="M-62.0,-38.0 L-69.0,-31.0 L-81.0,-19.0" fill-opacity="0" stroke="black" stroke-width="1" />
<path d="M-62.0,38.0 L-69.0,31.0 L-81.0,19.0" fill-opacity="0" stroke="black" stroke-width="1" />
<path d="M-69.0,-31.0 L-81.0,-19.0 L-93.0,-7.0" fill-opacity="0" stroke="black" stroke-width="1" />
<path d="M-69.0,31.0 L-81.0,19.0 L-93.0,7.0" fill-opacity="0" stroke="black" stroke-width="1" />
<path d="M-81.0,-19.0 L-93.0,-7.0 L-93.48253080358401,-0.6553708874692931" fill-opacity="0" stroke="black" stroke-width="1" />
<path d="M-81.0,19.0 L-93.0,7.0 L-93.48253080358401,0.6553708874692931" fill-opacity="0" stroke="black" stroke-width="1" />
<path d="M-93.0,-7.0 L-93.48253080358401,-0.6553708874692931 L-94.0,-6.0" fill-opacity="0" stroke="black" stroke-width="1" />
<path d="M-93.0,7.0 L-93.48253080358401,0.6553708874692931 L-94.0,6.0" fill-opacity="0" stroke="black" stroke-width="1" />
<path d="M-93.48253080358401,-0.6553708874692931 L-94.0,-6.0 L-98.16695877101591,-0.5857831652615303" fill-opacity="0" stroke="black" stroke-width="1" />
<path d="M-93.48253080358401,0.6553708874692931 L-94.0,6.0 L-98.16695877101591,0.5857831652615303" fill-opacity="0" stroke="black" stroke-width="1" />
<path d="M-94.0,-6.0 L-98.16695877101591,-0.5857831652615303 L-98.30850420259392,-0.5549539542017475" fill-opacity="0" stroke="black" stroke-width="1" />
<path d="M-94.0,6.0 L-98.16695877101591,0.5857831652615303 L-98.30850420259392,0.5549539542017475" fill-opacity="0" stroke="black" stroke-width="1" />
<path d="M-98.16695877101591,-0.5857831652615303 L-98.30850420259392,-0.5549539542017475 L-100.0,-0.0" fill-opacity="0" stroke="black" stroke-width="1" />
<path d="M-98.16695877101591,0.5857831652615303 L-98.30850420259392,0.5549539542017475 L-100.0,-0.0" fill-opacity="0" stroke="black" stroke-width="1" />
<circle cx="0" cy="-97" r="8" stroke-dasharray="39.653880605311166 10.611601852125524" stroke-dashoffset="-17.59291886010284" stroke="black" stroke-width="1" fill="white" fill-opacity="1" />
<circle cx="0" cy="-97" r="4" stroke="black" stroke-width="1" fill="white" fill-opacity="1" />
</svg>