<?xml version="1.0" encoding="UTF-8"?>
<svg xmlns="http://www.w3.org/2000/svg" xmlns:xlink="http://www.w3.org/1999/xlink"
     width="250" height="250" viewBox="-125.0 -125.0 250 250">
<defs>
</defs>
<path d="M0.0,-0.0 L14.283211420937171,-3.642654166661885 L15.353999647393827,-4.1509619060084795" fill-opacity="0" stroke="black" stroke-width="1" />
<path d="M0.0,-0.0 L14.283211420937171,3.642654166661885 L15.353999647393827,4.1509619060084795" fill-opacity="0" stroke="black" stroke-width="1" />
<path d="M14.283211420937171,-3.642654166661885 L15.353999647393827,-4.1509619060084795 L19.0,-0.0" fill-opacity="0" stroke="black" stroke-width="1" />
<path d="M14.283211420937171,3.642654166661885 L15.353999647393827,4.1509619060084795 L19.0,-0.0" fill-opacity="0" stroke="black" stroke-width="1" />
<path d="M19.0,-0.0 L19.09826424160864,-7.417398754401194 L23.0,-0.0" fill-opacity="0" stroke="black" stroke-width="1" />
<path d="M19.0,-0.0 L19.09826424160864,7.417398754401194 L23.0,-0.0" fill-opacity="0" stroke="black" stroke-width="1" />
<path d="M23.0,-0.0 L25.930460801674315,-9.309963834404883 L27.368500269817265,-10.369458301811813" fill-opacity="0" stroke="black" stroke-width="1" />
<path d="M23.0,-0.0 L25.930460801674315,9.309963834404883 L27.368500269817265,10.369458301811813" fill-opacity="0" stroke="black" stroke-width="1" />
<path d="M25.930460801674315,-9.309963834404883 L27.368500269817265,-10.369458301811813 L30.0,-0.0" fill-opacity="0" stroke="black" stroke-width="1" />
<path d="M25.930460801674315,9.309963834404883 L27.368500269817265,10.369458301811813 L30.0,-0.0" fill-opacity="0" stroke="black" stroke-width="1" />
<path d="M30.0,-0.0 L36.50931767032668,-11.821348981460641 L36.88244508931285,-12.772894332815854" fill-opacity="0" stroke="black" stroke-width="1" />
<path d="M30.0,-0.0 L36.50931767032668,11.821348981460641 L36.88244508931285,12.772894332815854" fill-opacity="0" stroke="black" stroke-width="1" />
<path d="M36.50931767032668,-11.821348981460641 L36.88244508931285,-12.772894332815854 L40.0,-0.0" fill-opacity="0" stroke="black" stroke-width="1" />
<path d="M36.50931767032668,11.821348981460641 L36.88244508931285,12.772894332815854 L40.0,-0.0" fill-opacity="0" stroke="black" stroke-width="1" />
<path d="M40.0,-0.0 L38.8536813396438,-14.933764965851667 L39.79290618555328,-15.322453494050622" fill-opacity="0" stroke="black" stroke-width="1" />
<path d="M40.0,-0.0 L38.8536813396438,14.933764965851667 L39.79290618555328,15.322453494050622" fill-opacity="0" stroke="black" stroke-width="1" />
<path d="M38.8536813396438,-14.933764965851667 L39.79290618555328,-15.322453494050622 L50.0,-17.0" fill-opacity="0" stroke="black" stroke-width="1" />
<path d="M38.8536813396438,14.933764965851667 L39.79290618555328,15.322453494050622 L50.0,17.0" fill-opacity="0" stroke="black" stroke-width="1" />
<path d="M50.0,-17.0 L45.213031799541554,-24.006346825116694 L47.468990518543784,-31.197077924972778" fill-opacity="0" stroke="black" stroke-width="1" />
<path d="M50.0,17.0 L45.213031799541554,24.006346825116694 L47.468990518543784,31.197077924972778" fill-opacity="0" stroke="black" stroke-width="1" />
<path d="M45.213031799541554,-24.006346825116694 L47.468990518543784,-31.197077924972778 L49.86450003741706,-31.49267248443123" fill-opacity="0" stroke="black" stroke-width="1" />
<path d="M45.213031799541554,24.006346825116694 L47.468990518543784,31.197077924972778 L49.86450003741706,31.49267248443123" fill-opacity="0" stroke="black" stroke-width="1" />
<path d="M47.468990518543784,-31.197077924972778 L49.86450003741706,-31.49267248443123 L50.0,-32.0" fill-opacity="0" stroke="black" stroke-width="1" />
<path d="M47.468990518543784,31.197077924972778 L49.86450003741706,31.49267248443123 L50.0,32.0" fill-opacity="0" stroke="black" stroke-width="1" />
<path d="M50.0,50.0 L39.0,61.0 L26.0,74.0" fill-opacity="0" stroke="black" stroke-width="1" />
<path d="M50.0,-50.0 L39.0,-61.0 L26.0,-74.0" fill-opacity="0" stroke="black" stroke-width="1" />
<path d="M39.0,61.0 L26.0,74.0 L17.0,83.0" fill-opacity="0" stroke="black" stroke-width="1" />
<path d="M39.0,-61.0 L26.0,-74.0 L17.0,-83.0" fill-opacity="0" stroke="black" stroke-width="1" />
<path d="M26.0,74.0 L17.0,83.0 L3.1415163909095907,91.51092379788719" fill-opacity="0" stroke="black" stroke-width="1" />
<path d="M26.0,-74.0 L17.0,-83.0 L3.1415163909095907,-91.51092379788719" fill-opacity="0" stroke="black" stroke-width="1" />
<path d="M17.0,-17.0 L8.489076202112821,-3.1415163909095907 L7.383734193908103,-2.8307315194305573" fill-opacity="0" stroke="black" stroke-width="1" />
<path d="M17.0,17.0 L8.489076202112821,3.1415163909095907 L7.383734193908103,2.8307315194305573" fill-opacity="0" stroke="black" stroke-width="1" />
<path d="M8.489076202112821,-3.1415163909095907 L7.383734193908103,-2.8307315194305573 L7.132048322557916,-2.3477538141750576" fill-opacity="0" stroke="black" stroke-width="1" />
<path d="M8.489076202112821,3.1415163909095907 L7.383734193908103,2.8307315194305573 L7.132048322557916,2.3477538141750576" fill-opacity="0" stroke="black" stroke-width="1" />
<path d="M7.383734193908103,-2.8307315194305573 L7.132048322557916,-2.3477538141750576 L3.7921545633385403,-2.2965671276566955" fill-opacity="0" stroke="black" stroke-width="1" />
<path d="M7.383734193908103,2.8307315194305573 L7.132048322557916,2.3477538141750576 L3.7921545633385403,2.2965671276566955" fill-opacity="0" stroke="black" stroke-width="1" />
<path d="M7.132048322557916,-2.3477538141750576 L3.7921545633385403,-2.2965671276566955 L2.6931761786314845,-1.5700241338872065" fill-opacity="0" stroke="black" stroke-width="1" />
<path d="M7.132048322557916,2.3477538141750576 L3.7921545633385403,2.2965671276566955 L2.6931761786314845,1.5700241338872065" fill-opacity="0" stroke="black" stroke-width="1" />
<path d="M3.7921545633385403,-2.2965671276566955 L2.6931761786314845,-1.5700241338872065 L0.0,-0.0" fill-opacity="0" stroke="black" stroke-width="1" />
<path d="M3.7921545633385403,2.2965671276566955 L2.6931761786314845,1.5700241338872065 L0.0,-0.0" fill-opacity="0" stroke="black" stroke-width="1" />
<path d="M0.0,-0.0 L-14.283211420937171,-3.642654166661885 L-15.353999647393827,-4.1509619060084795" fill-opacity="0" stroke="black" stroke-width="1" />
<path d="M0.0,-0.0 L-14.283211420937171,3.642654166661885 L-15.353999647393827,4.1509619060084795" fill-opacity="0" stroke="black" stroke-width="1" />
<path d="M-14.283211420937171,-3.642654166661885 L-15.353999647393827,-4.1509619060084795 L-19.0,-0.0" fill-opacity="0" stroke="black" stroke-width="1" />
<path d="M-14.283211420937171,3.642654166661885 L-15.353999647393827,4.1509619060084795 L-19.0,-0.0" fill-opacity="0" stroke="black" stroke-width="1" />
<path d="M-19.0,-0.0 L-19.09826424160864,-7.417398754401194 L-23.0,-0.0" fill-opacity="0" stroke="black" stroke-width="1" />
<path d="M-19.0,-0.0 L-19.09826424160864,7.417398754401194 L-23.0,-0.0" fill-opacity="0" stroke="black" stroke-width="1" />
<path d="M-23.0,-0.0 L-25.930460801674315,-9.309963834404883 L-27.368500269817265,-10.369458301811813" fill-opacity="0" stroke="black" stroke-width="1" />
<path d="M-23.0,-0.0 L-25.930460801674315,9.309963834404883 L-27.368500269817265,10.369458301811813" fill-opacity="0" stroke="black" stroke-width="1" />
<path d="M-25.930460801674315,-9.309963834404883 L-27.368500269817265,-10.369458301811813 L-30.0,-0.0" fill-opacity="0" stroke="black" stroke-width="1" />
<path d="M-25.930460801674315,9.309963834404883 L-27.368500269817265,10.369458301811813 L-30.0,-0.0" fill-opacity="0" stroke="black" stroke-width="1" />
<path d="M-30.0,-0.0 L-36.50931767032668,-11.821348981460641 L-36.88244508931285,-12.772894332815854" fill-opacity="0" stroke="black" stroke-width="1" />
<path d="M-30.0,-0.0 L-36.50931767032668,11.821348981460641 L-36.88244508931285,12.772894332815854" fill-opacity="0" stroke="black" stroke-width="1" />
<path d="M-36.50931767032668,-11.821348981460641 L-36.88244508931285,-12.772894332815854 L-40.0,-0.0" fill-opacity="0" stroke="black" stroke-width="1" />
<path d="M-36.50931767032668,11.821348981460641 L-36.88244508931285,12.772894332815854 L-40.0,-0.0" fill-opacity="0" stroke="black" stroke-width="1" />
<path d="M-40.0,-0.0 L-38.8536813396438,-14.933764965851667 L-39.79290618555328,-15.322453494050622" fill-opacity="0" stroke="black" stroke-width="1" />
<path d="M-40.0,-0.0 L-38.8536813396438,14.933764965851667 L-39.79290618555328,15.322453494050622" fill-opacity="0" stroke="black" stroke-width="1" />
<path d="M-38.8536813396438,-14.933764965851667 L-39.79290618555328,-15.322453494050622 L-50.0,-17.0" fill-opacity="0" stroke="black" stroke-width="1" />
<path d="M-38.8536813396438,14.933764965851667 L-39.79290618555328,15.322453494050622 L-50.0,17.0" fill-opacity="0" stroke="black" stroke-width="1" />
<path d="M-50.0,-17.0 L-45.213031799541554,-24.006346825116694 L-47.468990518543784,-31.197077924972778" fill-opacity="0" stroke="black" stroke-width="1" />
<path d="M-50.0,17.0 L-45.213031799541554,24.006346825116694 L-47.468990518543784,31.197077924972778" fill-opacity="0" stroke="black" stroke-width="1" />
<path d="M-45.213031799541554,-24.006346825116694 L-47.468990518543784,-31.197077924972778 L-49.86450003741706,-31.49267248443123" fill-opacity="0" stroke="black" stroke-width="1" />
<path d="M-45.213031799541554,24.006346825116694 L-47.468990518543784,31.197077924972778 L-49.86450003741706,31.49267248443123" fill-opacity="0" stroke="black" stroke-width="1" />
<path d="M-47.468990518543784,-31.197077924972778 L-49.86450003741706,-31.49267248443123 L-50.0,-32.0" fill-opacity="0" stroke="black" stroke-width="1" />
<path d="M-47.468990518543784,31.197077924972778 L-49.86450003741706,31.49267248443123 L-50.0,32.0" fill-opacity="0" stroke="black" stroke-width="1" />
<path d="M-50.0,50.0 L-39.0,61.0 L-26.0,74.0" fill-opacity="0" stroke="black" stroke-width="1" />
<path d="M-50.0,-50.0 L-39.0,-61.0 L-26.0,-74.0" fill-opacity="0" stroke="black" stroke-width="1" />
<path d="M-39.0,61.0 L-26.0,74.0 L-17.0,83.0" fill-opacity="0" stroke="black" stroke-width="1" />
<path d="M-39.0,-61.0 L-26.0,-74.0 L-17.0,-83.0" fill-opacity="0" stroke="black" stroke-width="1" />
<path d="M-26.0,74.0 L-17.0,83.0 L-3.1415163909095907,91.51092379788717" fill-opacity="0" stroke="black" stroke-width="1" />
<path d="M-26.0,-74.0 L-17.0,-83.0 L-3.1415163909095907,-91.51092379788719" fill-opacity="0" stroke="black" stroke-width="1" />
<path d="M-17.0,-17.0 L-8.489076202112821,-3.1415163909095907 L-7.383734193908103,-2.8307315194305573" fill-opacity="0" stroke="black" stroke-width="1" />
<path d="M-17.0,17.0 L-8.489076202112821,3.1415163909095907 L-7.383734193908103,2.8307315194305573" fill-opacity="0" stroke="black" stroke-width="1" />
<path d="M-8.489076202112821,-3.1415163909095907 L-7.383734193908103,-2.8307315194305573 L-7.132048322557916,-2.3477538141750576" fill-opacity="0" stroke="black" stroke-width="1" />
<path d="M-8.489076202112821,3.1415163909095907 L-7.383734193908103,2.8307315194305573 L-7.132048322557916,2.3477538141750576" fill-opacity="0" stroke="black" stroke-width="1" />
<path d="M-7.383734193908103,-2.8307315194305573 L-7.132048322557916,-2.3477538141750576 L-3.7921545633385403,-2.2965671276566955" fill-opacity="0" stroke="black" stroke-width="1" />
<path d="M-7.383734193908103,2.8307315194305573 L-7.132048322557916,2.3477538141750576 L-3.7921545633385403,2.2965671276566955" fill-opacity="0" stroke="black" stroke-width="1" />
<path d="M-7.132048322557916,-2.3477538141750576 L-3.7921545633385403,-2.2965671276566955 L-2.6931761786314845,-1.5700241338872065" fill-opacity="0" stroke="black" stroke-width="1" />
<path d="M-7.132048322557916,2.3477538141750576 L-3.7921545633385403,2.2965671276566955 L-2.6931761786314845,1.5700241338872065" fill-opacity="0" stroke="black" stroke-width="1" />
<path d="M-3.7921545633385403,-2.2965671276566955 L-2.6931761786314845,-1.5700241338872065 L0.0,-0.0" fill-opacity="0" stroke="black" stroke-width="1" />
<path d="M-3.7921545633385403,2.2965671276566955 L-2.6931761786314845,1.5700241338872065 L0.0,-0.0" fill-opacity="0" stroke="black" stroke-width="1" />
<path d="M100.0,-0.0 L85.71678857906284,3.642654166661885 L84.64600035260617,4.1509619060084795" fill-opacity="0" stroke="black" stroke-width="1" />
<path d="M100.0,-0.0 L85.71678857906284,-3.642654166661885 L84.64600035260617,-4.1509619060084795" fill-opacity="0" stroke="black" stroke-width="1" />
<path d="M85.71678857906284,3.642654166661885 L84.64600035260617,4.1509619060084795 L81.0,-0.0" fill-opacity="0" stroke="black" stroke-width="1" />
<path d="M85.71678857906284,-3.642654166661885 L84.64600035260617,-4.1509619060084795 L81.0,-0.0" fill-opacity="0" stroke="black" stroke-width="1" />
<path d="M81.0,-0.0 L80.90173575839137,7.417398754401194 L77.0,-0.0" fill-opacity="0" stroke="black" stroke-width="1" />
<path d="M81.0,-0.0 L80.90173575839137,-7.417398754401194 L77.0,-0.0" fill-opacity="0" stroke="black" stroke-width="1" />
<path d="M77.0,-0.0 L74.06953919832569,9.309963834404883 L72.63149973018274,10.369458301811813" fill-opacity="0" stroke="black" stroke-width="1" />
<path d="M77.0,-0.0 L74.06953919832569,-9.309963834404883 L72.63149973018274,-10.369458301811813" fill-opacity="0" stroke="black" stroke-width="1" />
<path d="M74.06953919832569,9.309963834404883 L72.63149973018274,10.369458301811813 L70.0,-0.0" fill-opacity="0" stroke="black" stroke-width="1" />
<path d="M74.06953919832569,-9.309963834404883 L72.63149973018274,-10.369458301811813 L70.0,-0.0" fill-opacity="0" stroke="black" stroke-width="1" />
<path d="M70.0,-0.0 L63.49068232967332,11.821348981460641 L63.11755491068715,12.772894332815854" fill-opacity="0" stroke="black" stroke-width="1" />
<path d="M70.0,-0.0 L63.49068232967332,-11.821348981460641 L63.11755491068715,-12.772894332815854" fill-opacity="0" stroke="black" stroke-width="1" />
<path d="M63.49068232967332,11.821348981460641 L63.11755491068715,12.772894332815854 L60.0,-0.0" fill-opacity="0" stroke="black" stroke-width="1" />
<path d="M63.49068232967332,-11.821348981460641 L63.11755491068715,-12.772894332815854 L60.0,-0.0" fill-opacity="0" stroke="black" stroke-width="1" />
<path d="M60.0,-0.0 L61.1463186603562,14.933764965851667 L60.20709381444672,15.322453494050622" fill-opacity="0" stroke="black" stroke-width="1" />
<path d="M60.0,-0.0 L61.1463186603562,-14.933764965851667 L60.20709381444672,-15.322453494050622" fill-opacity="0" stroke="black" stroke-width="1" />
<path d="M61.1463186603562,14.933764965851667 L60.20709381444672,15.322453494050622 L50.0,17.0" fill-opacity="0" stroke="black" stroke-width="1" />
<path d="M61.1463186603562,-14.933764965851667 L60.20709381444672,-15.322453494050622 L50.0,-17.0" fill-opacity="0" stroke="black" stroke-width="1" />
<path d="M50.0,17.0 L54.786968200458446,24.006346825116694 L52.531009481456216,31.197077924972778" fill-opacity="0" stroke="black" stroke-width="1" />
<path d="M50.0,-17.0 L54.786968200458446,-24.006346825116694 L52.531009481456216,-31.197077924972778" fill-opacity="0" stroke="black" stroke-width="1" />
<path d="M54.786968200458446,24.006346825116694 L52.531009481456216,31.197077924972778 L50.13549996258294,31.49267248443123" fill-opacity="0" stroke="black" stroke-width="1" />
<path d="M54.786968200458446,-24.006346825116694 L52.531009481456216,-31.197077924972778 L50.13549996258294,-31.49267248443123" fill-opacity="0" stroke="black" stroke-width="1" />
<path d="M52.531009481456216,31.197077924972778 L50.13549996258294,31.49267248443123 L50.0,32.0" fill-opacity="0" stroke="black" stroke-width="1" />
<path d="M52.531009481456216,-31.197077924972778 L50.13549996258294,-31.49267248443123 L50.0,-32.0" fill-opacity="0" stroke="black" stroke-width="1" />
<path d="M50.0,50.0 L61.0,39.0 L74.0,26.0" fill-opacity="0" stroke="black" stroke-width="1" />
<path d="M50.0,-50.0 L61.0,-39.0 L74.0,-26.0" fill-opacity="0" stroke="black" stroke-width="1" />
<path d="M61.0,39.0 L74.0,26.0 L83.0,17.0" fill-opacity="0" stroke="black" stroke-width="1" />
<path d="M61.0,-39.0 L74.0,-26.0 L83.0,-17.0" fill-opacity="0" stroke="black" stroke-width="1" />
<path d="M74.0,26.0 L83.0,17.0 L91.51092379788719,3.1415163909095907" fill-opacity="0" stroke="black" stroke-width="1" />
<path d="M74.0,-26.0 L83.0,-17.0 L91.51092379788719,-3.1415163909095907" fill-opacity="0" stroke="black" stroke-width="1" />
<path d="M83.0,17.0 L91.51092379788719,3.1415163909095907 L92.61626580609189,2.8307315194305573" fill-opacity="0" stroke="black" stroke-width="1" />
<path d="M83.0,-17.0 L91.51092379788719,-3.1415163909095907 L92.61626580609189,-2.8307315194305573" fill-opacity="0" stroke="black" stroke-width="1" />
<path d="M91.51092379788719,3.1415163909095907 L92.61626580609189,2.8307315194305573 L92.86795167744208,2.3477538141750576" fill-opacity="0" stroke="black" stroke-width="1" />
<path d="M91.51092379788719,-3.1415163909095907 L92.61626580609189,-2.8307315194305573 L92.86795167744208,-2.3477538141750576" fill-opacity="0" stroke="black" stroke-width="1" />
<path d="M92.61626580609189,2.8307315194305573 L92.86795167744208,2.3477538141750576 L96.20784543666146,2.2965671276566955" fill-opacity="0" stroke="black" stroke-width="1" />
<path d="M92.61626580609189,-2.8307315194305573 L92.86795167744208,-2.3477538141750576 L96.20784543666146,-2.2965671276566955" fill-opacity="0" stroke="black" stroke-width="1" />
<path d="M92.86795167744208,2.3477538141750576 L96.20784543666146,2.2965671276566955 L97.30682382136851,1.5700241338872065" fill-opacity="0" stroke="black" stroke-width="1" />
<path d="M92.86795167744208,-2.3477538141750576 L96.20784543666146,-2.2965671276566955 L97.30682382136851,-1.5700241338872065" fill-opacity="0" stroke="black" stroke-width="1" />
<path d="M96.20784543666146,2.2965671276566955 L97.30682382136851,1.5700241338872065 L100.0,-0.0" fill-opacity="0" stroke="black" stroke-width="1" />
<path d="M96.20784543666146,-2.2965671276566955 L97.30682382136851,-1.5700241338872065 L100.0,-0.0" fill-opacity="0" stroke="black" stroke-width="1" />
<path d="M0.0,-0.0 L3.642654166661885,-14.283211420937171 L4.1509619060084795,-15.353999647393827" fill-opacity="0" stroke="black" stroke-width="1" />
<path d="M0.0,-0.0 L3.642654166661885,14.283211420937171 L4.1509619060084795,15.353999647393827" fill-opacity="0" stroke="black" stroke-width="1" />
<path d="M0.0,100.0 L3.642654166661885,85.71678857906284 L4.1509619060084795,84.64600035260617" fill-opacity="0" stroke="black" stroke-width="1" />
<path d="M0.0,-100.0 L3.642654166661885,-85.71678857906284 L4.1509619060084795,-84.64600035260617" fill-opacity="0" stroke="black" stroke-width="1" />
<path d="M3.642654166661885,-14.283211420937171 L4.1509619060084795,-15.353999647393827 L0.0,-19.0" fill-opacity="0" stroke="black" stroke-width="1" />
<path d="M3.642654166661885,14.283211420937171 L4.1509619060084795,15.353999647393827 L0.0,19.0" fill-opacity="0" stroke="black" stroke-width="1" />
<path d="M3.642654166661885,85.71678857906284 L4.1509619060084795,84.64600035260617 L0.0,81.0" fill-opacity="0" stroke="black" stroke-width="1" />
<path d="M3.642654166661885,-85.71678857906284 L4.1509619060084795,-84.64600035260617 L0.0,-81.0" fill-opacity="0" stroke="black" stroke-width="1" />
<path d="M0.0,-19.0 L7.417398754401194,-19.09826424160864 L0.0,-23.0" fill-opacity="0" stroke="black" stroke-width="1" />
<path d="M0.0,19.0 L7.417398754401194,19.09826424160864 L0.0,23.0" fill-opacity="0" stroke="black" stroke-width="1" />
<path d="M0.0,81.0 L7.417398754401194,80.90173575839137 L0.0,77.0" fill-opacity="0" stroke="black" stroke-width="1" />
<path d="M0.0,-81.0 L7.417398754401194,-80.90173575839137 L0.0,-77.0" fill-opacity="0" stroke="black" stroke-width="1" />
<path d="M0.0,-23.0 L9.309963834404883,-25.930460801674315 L10.369458301811813,-27.368500269817265" fill-opacity="0" stroke="black" stroke-width="1" />
<path d="M0.0,23.0 L9.309963834404883,25.930460801674315 L10.369458301811813,27.368500269817265" fill-opacity="0" stroke="black" stroke-width="1" />
<path d="M0.0,77.0 L9.309963834404883,74.06953919832569 L10.369458301811813,72.63149973018274" fill-opacity="0" stroke="black" stroke-width="1" />
<path d="M0.0,-77.0 L9.309963834404883,-74.06953919832569 L10.369458301811813,-72.63149973018274" fill-opacity="0" stroke="black" stroke-width="1" />
<path d="M9.309963834404883,-25.930460801674315 L10.369458301811813,-27.368500269817265 L0.0,-30.0" fill-opacity="0" stroke="black" stroke-width="1" />
<path d="M9.309963834404883,25.930460801674315 L10.369458301811813,27.368500269817265 L0.0,30.0" fill-opacity="0" stroke="black" stroke-width="1" />
<path d="M9.309963834404883,74.06953919832569 L10.369458301811813,72.63149973018274 L0.0,70.0" fill-opacity="0" stroke="black" stroke-width="1" />
<path d="M9.309963834404883,-74.06953919832569 L10.369458301811813,-72.63149973018274 L0.0,-70.0" fill-opacity="0" stroke="black" stroke-width="1" />
<path d="M0.0,-30.0 L11.821348981460641,-36.50931767032668 L12.772894332815854,-36.88244508931285" fill-opacity="0" stroke="black" stroke-width="1" />
<path d="M0.0,30.0 L11.821348981460641,36.50931767032668 L12.772894332815854,36.88244508931285" fill-opacity="0" stroke="black" stroke-width="1" />
<path d="M0.0,70.0 L11.821348981460641,63.49068232967332 L12.772894332815854,63.11755491068715" fill-opacity="0" stroke="black" stroke-width="1" />
<path d="M0.0,-70.0 L11.821348981460641,-63.49068232967332 L12.772894332815854,-63.11755491068715" fill-opacity="0" stroke="black" stroke-width="1" />
<path d="M11.821348981460641,-36.50931767032668 L12.772894332815854,-36.88244508931285 L0.0,-40.0" fill-opacity="0" stroke="black" stroke-width="1" />
<path d="M11.821348981460641,36.50931767032668 L12.772894332815854,36.88244508931285 L0.0,40.0" fill-opacity="0" stroke="black" stroke-width="1" />
<path d="M11.821348981460641,63.49068232967332 L12.772894332815854,63.11755491068715 L0.0,60.0" fill-opacity="0" stroke="black" stroke-width="1" />
<path d="M11.821348981460641,-63.49068232967332 L12.772894332815854,-63.11755491068715 L0.0,-60.0" fill-opacity="0" stroke="black" stroke-width="1" />
<path d="M0.0,-40.0 L14.933764965851667,-38.8536813396438 L15.322453494050622,-39.79290618555328" fill-opacity="0" stroke="black" stroke-width="1" />
<path d="M0.0,40.0 L14.933764965851667,38.8536813396438 L15.322453494050622,39.79290618555328" fill-opacity="0" stroke="black" stroke-width="1" />
<path d="M0.0,60.0 L14.933764965851667,61.1463186603562 L15.322453494050622,60.20709381444672" fill-opacity="0" stroke="black" stroke-width="1" />
<path d="M0.0,-60.0 L14.933764965851667,-61.1463186603562 L15.322453494050622,-60.20709381444672" fill-opacity="0" stroke="black" stroke-width="1" />
<path d="M14.933764965851667,-38.8536813396438 L15.322453494050622,-39.79290618555328 L17.0,-50.0" fill-opacity="0" stroke="black" stroke-width="1" />
<path d="M14.933764965851667,38.8536813396438 L15.322453494050622,39.79290618555328 L17.0,50.0" fill-opacity="0" stroke="black" stroke-width="1" />
<path d="M14.933764965851667,61.1463186603562 L15.322453494050622,60.20709381444672 L17.0,50.0" fill-opacity="0" stroke="black" stroke-width="1" />
<path d="M14.933764965851667,-61.1463186603562 L15.322453494050622,-60.20709381444672 L17.0,-50.0" fill-opacity="0" stroke="black" stroke-width="1" />
<path d="M17.0,-50.0 L24.006346825116694,-45.213031799541554 L31.197077924972778,-47.468990518543784" fill-opacity="0" stroke="black" stroke-width="1" />
<path d="M17.0,50.0 L24.006346825116694,45.213031799541554 L31.197077924972778,47.468990518543784" fill-opacity="0" stroke="black" stroke-width="1" />
<path d="M17.0,50.0 L24.006346825116694,54.786968200458446 L31.197077924972778,52.531009481456216" fill-opacity="0" stroke="black" stroke-width="1" />
<path d="M17.0,-50.0 L24.006346825116694,-54.786968200458446 L31.197077924972778,-52.531009481456216" fill-opacity="0" stroke="black" stroke-width="1" />
<path d="M24.006346825116694,-45.213031799541554 L31.197077924972778,-47.468990518543784 L31.49267248443123,-49.86450003741706" fill-opacity="0" stroke="black" stroke-width="1" />
<path d="M24.006346825116694,45.213031799541554 L31.197077924972778,47.468990518543784 L31.49267248443123,49.86450003741706" fill-opacity="0" stroke="black" stroke-width="1" />
<path d="M24.006346825116694,54.786968200458446 L31.197077924972778,52.531009481456216 L31.49267248443123,50.13549996258294" fill-opacity="0" stroke="black" stroke-width="1" />
<path d="M24.006346825116694,-54.786968200458446 L31.197077924972778,-52.531009481456216 L31.49267248443123,-50.13549996258294" fill-opacity="0" stroke="black" stroke-width="1" />
<path d="M31.197077924972778,-47.468990518543784 L31.49267248443123,-49.86450003741706 L32.0,-50.0" fill-opacity="0" stroke="black" stroke-width="1" />
<path d="M31.197077924972778,47.468990518543784 L31.49267248443123,49.86450003741706 L32.0,50.0" fill-opacity="0" stroke="black" stroke-width="1" />
<path d="M31.197077924972778,52.531009481456216 L31.49267248443123,50.13549996258294 L32.0,50.0" fill-opacity="0" stroke="black" stroke-width="1" />
<path d="M31.197077924972778,-52.531009481456216 L31.49267248443123,-50.13549996258294 L32.0,-50.0" fill-opacity="0" stroke="black" stroke-width="1" />
<path d="M17.0,-17.0 L3.1415163909095907,-8.489076202112821 L2.8307315194305573,-7.383734193908103" fill-opacity="0" stroke="black" stroke-width="1" />
<path d="M17.0,17.0 L3.1415163909095907,8.489076202112821 L2.8307315194305573,7.383734193908103" fill-opacity="0" stroke="black" stroke-width="1" />
<path d="M17.0,83.0 L3.1415163909095907,91.51092379788719 L2.8307315194305573,92.61626580609189" fill-opacity="0" stroke="black" stroke-width="1" />
<path d="M17.0,-83.0 L3.1415163909095907,-91.51092379788719 L2.8307315194305573,-92.61626580609189" fill-opacity="0" stroke="black" stroke-width="1" />
<path d="M3.1415163909095907,-8.489076202112821 L2.8307315194305573,-7.383734193908103 L2.3477538141750576,-7.132048322557916" fill-opacity="0" stroke="black" stroke-width="1" />
<path d="M3.1415163909095907,8.489076202112821 L2.8307315194305573,7.383734193908103 L2.3477538141750576,7.132048322557916" fill-opacity="0" stroke="black" stroke-width="1" />
<path d="M3.1415163909095907,91.51092379788719 L2.8307315194305573,92.61626580609189 L2.3477538141750576,92.86795167744208" fill-opacity="0" stroke="black" stroke-width="1" />
<path d="M3.1415163909095907,-91.51092379788719 L2.8307315194305573,-92.61626580609189 L2.3477538141750576,-92.86795167744208" fill-opacity="0" stroke="black" stroke-width="1" />
<path d="M2.8307315194305573,-7.383734193908103 L2.3477538141750576,-7.132048322557916 L2.2965671276566955,-3.7921545633385403" fill-opacity="0" stroke="black" stroke-width="1" />
<path d="M2.8307315194305573,7.383734193908103 L2.3477538141750576,7.132048322557916 L2.2965671276566955,3.7921545633385403" fill-opacity="0" stroke="black" stroke-width="1" />
<path d="M2.8307315194305573,92.61626580609189 L2.3477538141750576,92.86795167744208 L2.2965671276566955,96.20784543666146" fill-opacity="0" stroke="black" stroke-width="1" />
<path d="M2.8307315194305573,-92.61626580609189 L2.3477538141750576,-92.86795167744208 L2.2965671276566955,-96.20784543666146" fill-opacity="0" stroke="black" stroke-width="1" />
<path d="M2.3477538141750576,-7.132048322557916 L2.2965671276566955,-3.7921545633385403 L1.5700241338872065,-2.6931761786314845" fill-opacity="0" stroke="black" stroke-width="1" />
<path d="M2.3477538141750576,7.132048322557916 L2.2965671276566955,3.7921545633385403 L1.5700241338872065,2.6931761786314845" fill-opacity="0" stroke="black" stroke-width="1" />
<path d="M2.3477538141750576,92.86795167744208 L2.2965671276566955,96.20784543666146 L1.5700241338872065,97.30682382136851" fill-opacity="0" stroke="black" stroke-width="1" />
<path d="M2.3477538141750576,-92.86795167744208 L2.2965671276566955,-96.20784543666146 L1.5700241338872065,-97.30682382136851" fill-opacity="0" stroke="black" stroke-width="1" />
<path d="M2.2965671276566955,-3.7921545633385403 L1.5700241338872065,-2.6931761786314845 L0.0,-0.0" fill-opacity="0" stroke="black" stroke-width="1" />
<path d="M2.2965671276566955,3.7921545633385403 L1.5700241338872065,2.6931761786314845 L0.0,-0.0" fill-opacity="0" stroke="black" stroke-width="1" />
<path d="M2.2965671276566955,96.20784543666146 L1.5700241338872065,97.30682382136851 L0.0,100.0" fill-opacity="0" stroke="black" stroke-width="1" />
<path d="M2.2965671276566955,-96.20784543666146 L1.5700241338872065,-97.30682382136851 L0.0,-100.0" fill-opacity="0" stroke="black" stroke-width="1" />
<path d="M0.0,100.0 L-3.642654166661885,85.71678857906284 L-4.1509619060084795,84.64600035260617" fill-opacity="0" stroke="black" stroke-width="1" />
<path d="M0.0,-0.0 L-3.642654166661885,-14.283211420937171 L-4.1509619060084795,-15.353999647393827" fill-opacity="0" stroke="black" stroke-width="1" />
<path d="M0.0,-0.0 L-3.642654166661885,14.283211420937164 L-4.1509619060084795,15.353999647393834" fill-opacity="0" stroke="black" stroke-width="1" />
<path d="M0.0,-100.0 L-3.642654166661885,-85.71678857906284 L-4.1509619060084795,-84.64600035260617" fill-opacity="0" stroke="black" stroke-width="1" />
<path d="M-3.642654166661885,85.71678857906284 L-4.1509619060084795,84.64600035260617 L0.0,81.0" fill-opacity="0" stroke="black" stroke-width="1" />
<path d="M-3.642654166661885,-14.283211420937171 L-4.1509619060084795,-15.353999647393827 L0.0,-19.0" fill-opacity="0" stroke="black" stroke-width="1" />
<path d="M-3.642654166661885,14.283211420937164 L-4.1509619060084795,15.353999647393834 L0.0,19.0" fill-opacity="0" stroke="black" stroke-width="1" />
<path d="M-3.642654166661885,-85.71678857906284 L-4.1509619060084795,-84.64600035260617 L0.0,-81.0" fill-opacity="0" stroke="black" stroke-width="1" />
<path d="M0.0,81.0 L-7.417398754401194,80.90173575839137 L0.0,77.0" fill-opacity="0" stroke="black" stroke-width="1" />
<path d="M0.0,-19.0 L-7.417398754401194,-19.09826424160864 L0.0,-23.0" fill-opacity="0" stroke="black" stroke-width="1" />
<path d="M0.0,19.0 L-7.417398754401194,19.098264241608632 L0.0,23.0" fill-opacity="0" stroke="black" stroke-width="1" />
<path d="M0.0,-81.0 L-7.417398754401194,-80.90173575839137 L0.0,-77.0" fill-opacity="0" stroke="black" stroke-width="1" />
<path d="M0.0,77.0 L-9.309963834404883,74.06953919832569 L-10.369458301811813,72.63149973018274" fill-opacity="0" stroke="black" stroke-width="1" />
<path d="M0.0,-23.0 L-9.309963834404883,-25.930460801674315 L-10.369458301811813,-27.368500269817265" fill-opacity="0" stroke="black" stroke-width="1" />
<path d="M0.0,23.0 L-9.309963834404883,25.930460801674315 L-10.369458301811813,27.36850026981726" fill-opacity="0" stroke="black" stroke-width="1" />
<path d="M0.0,-77.0 L-9.309963834404883,-74.06953919832569 L-10.369458301811813,-72.63149973018274" fill-opacity="0" stroke="black" stroke-width="1" />
<path d="M-9.309963834404883,74.06953919832569 L-10.369458301811813,72.63149973018274 L0.0,70.0" fill-opacity="0" stroke="black" stroke-width="1" />
<path d="M-9.309963834404883,-25.930460801674315 L-10.369458301811813,-27.368500269817265 L0.0,-30.0" fill-opacity="0" stroke="black" stroke-width="1" />
<path d="M-9.309963834404883,25.930460801674315 L-10.369458301811813,27.36850026981726 L0.0,30.0" fill-opacity="0" stroke="black" stroke-width="1" />
<path d="M-9.309963834404883,-74.06953919832569 L-10.369458301811813,-72.63149973018274 L0.0,-70.0" fill-opacity="0" stroke="black" stroke-width="1" />
<path d="M0.0,70.0 L-11.821348981460641,63.49068232967332 L-12.772894332815854,63.11755491068715" fill-opacity="0" stroke="black" stroke-width="1" />
<path d="M0.0,-30.0 L-11.821348981460641,-36.50931767032668 L-12.772894332815854,-36.88244508931285" fill-opacity="0" stroke="black" stroke-width="1" />
<path d="M0.0,30.0 L-11.821348981460641,36.50931767032668 L-12.772894332815854,36.88244508931285" fill-opacity="0" stroke="black" stroke-width="1" />
<path d="M0.0,-70.0 L-11.821348981460641,-63.49068232967332 L-12.772894332815854,-63.11755491068715" fill-opacity="0" stroke="black" stroke-width="1" />
<path d="M-11.821348981460641,63.49068232967332 L-12.772894332815854,63.11755491068715 L0.0,60.0" fill-opacity="0" stroke="black" stroke-width="1" />
<path d="M-11.821348981460641,-36.50931767032668 L-12.772894332815854,-36.88244508931285 L0.0,-40.0" fill-opacity="0" stroke="black" stroke-width="1" />
<path d="M-11.821348981460641,36.50931767032668 L-12.772894332815854,36.88244508931285 L0.0,40.0" fill-opacity="0" stroke="black" stroke-width="1" />
<path d="M-11.821348981460641,-63.49068232967332 L-12.772894332815854,-63.11755491068715 L0.0,-60.0" fill-opacity="0" stroke="black" stroke-width="1" />
<path d="M0.0,60.0 L-14.933764965851667,61.1463186603562 L-15.322453494050622,60.20709381444672" fill-opacity="0" stroke="black" stroke-width="1" />
<path d="M0.0,-40.0 L-14.933764965851667,-38.8536813396438 L-15.322453494050622,-39.79290618555328" fill-opacity="0" stroke="black" stroke-width="1" />
<path d="M0.0,40.0 L-14.933764965851667,38.8536813396438 L-15.322453494050622,39.79290618555328" fill-opacity="0" stroke="black" stroke-width="1" />
<path d="M0.0,-60.0 L-14.933764965851667,-61.1463186603562 L-15.322453494050622,-60.20709381444672" fill-opacity="0" stroke="black" stroke-width="1" />
<path d="M-14.933764965851667,61.1463186603562 L-15.322453494050622,60.20709381444672 L-17.0,50.0" fill-opacity="0" stroke="black" stroke-width="1" />
<path d="M-14.933764965851667,-38.8536813396438 L-15.322453494050622,-39.79290618555328 L-17.0,-50.0" fill-opacity="0" stroke="black" stroke-width="1" />
<path d="M-14.933764965851667,38.8536813396438 L-15.322453494050622,39.79290618555328 L-17.0,50.0" fill-opacity="0" stroke="black" stroke-width="1" />
<path d="M-14.933764965851667,-61.1463186603562 L-15.322453494050622,-60.20709381444672 L-17.0,-50.0" fill-opacity="0" stroke="black" stroke-width="1" />
<path d="M-17.0,50.0 L-24.006346825116694,54.786968200458446 L-31.197077924972778,52.531009481456216" fill-opacity="0" stroke="black" stroke-width="1" />
<path d="M-17.0,-50.0 L-24.006346825116694,-45.213031799541554 L-31.197077924972778,-47.468990518543784" fill-opacity="0" stroke="black" stroke-width="1" />
<path d="M-17.0,50.0 L-24.006346825116694,45.213031799541554 L-31.197077924972778,47.468990518543784" fill-opacity="0" stroke="black" stroke-width="1" />
<path d="M-17.0,-50.0 L-24.006346825116694,-54.786968200458446 L-31.197077924972778,-52.531009481456216" fill-opacity="0" stroke="black" stroke-width="1" />
<path d="M-24.006346825116694,54.786968200458446 L-31.197077924972778,52.531009481456216 L-31.49267248443123,50.13549996258294" fill-opacity="0" stroke="black" stroke-width="1" />
<path d="M-24.006346825116694,-45.213031799541554 L-31.197077924972778,-47.468990518543784 L-31.49267248443123,-49.86450003741706" fill-opacity="0" stroke="black" stroke-width="1" />
<path d="M-24.006346825116694,45.213031799541554 L-31.197077924972778,47.468990518543784 L-31.49267248443123,49.86450003741706" fill-opacity="0" stroke="black" stroke-width="1" />
<path d="M-24.006346825116694,-54.786968200458446 L-31.197077924972778,-52.531009481456216 L-31.49267248443123,-50.13549996258294" fill-opacity="0" stroke="black" stroke-width="1" />
<path d="M-31.197077924972778,52.531009481456216 L-31.49267248443123,50.13549996258294 L-32.0,50.0" fill-opacity="0" stroke="black" stroke-width="1" />
<path d="M-31.197077924972778,-47.468990518543784 L-31.49267248443123,-49.86450003741706 L-32.0,-50.0" fill-opacity="0" stroke="black" stroke-width="1" />
<path d="M-31.197077924972778,47.468990518543784 L-31.49267248443123,49.86450003741706 L-32.0,50.0" fill-opacity="0" stroke="black" stroke-width="1" />
<path d="M-31.197077924972778,-52.531009481456216 L-31.49267248443123,-50.13549996258294 L-32.0,-50.0" fill-opacity="0" stroke="black" stroke-width="1" />
<path d="M-17.0,83.0 L-3.1415163909095907,91.51092379788717 L-2.8307315194305573,92.6162658060919" fill-opacity="0" stroke="black" stroke-width="1" />
<path d="M-17.0,-17.0 L-3.1415163909095907,-8.489076202112821 L-2.8307315194305573,-7.383734193908103" fill-opacity="0" stroke="black" stroke-width="1" />
<path d="M-17.0,17.0 L-3.1415163909095907,8.489076202112827 L-2.8307315194305573,7.383734193908097" fill-opacity="0" stroke="black" stroke-width="1" />
<path d="M-17.0,-83.0 L-3.1415163909095907,-91.51092379788719 L-2.8307315194305573,-92.61626580609189" fill-opacity="0" stroke="black" stroke-width="1" />
<path d="M-3.1415163909095907,91.51092379788717 L-2.8307315194305573,92.6162658060919 L-2.3477538141750576,92.86795167744208" fill-opacity="0" stroke="black" stroke-width="1" />
<path d="M-3.1415163909095907,-8.489076202112821 L-2.8307315194305573,-7.383734193908103 L-2.3477538141750576,-7.132048322557916" fill-opacity="0" stroke="black" stroke-width="1" />
<path d="M-3.1415163909095907,8.489076202112827 L-2.8307315194305573,7.383734193908097 L-2.3477538141750576,7.132048322557921" fill-opacity="0" stroke="black" stroke-width="1" />
<path d="M-3.1415163909095907,-91.51092379788719 L-2.8307315194305573,-92.61626580609189 L-2.3477538141750576,-92.86795167744208" fill-opacity="0" stroke="black" stroke-width="1" />
<path d="M-2.8307315194305573,92.6162658060919 L-2.3477538141750576,92.86795167744208 L-2.2965671276566955,96.20784543666146" fill-opacity="0" stroke="black" stroke-width="1" />
<path d="M-2.8307315194305573,-7.383734193908103 L-2.3477538141750576,-7.132048322557916 L-2.2965671276566955,-3.7921545633385403" fill-opacity="0" stroke="black" stroke-width="1" />
<path d="M-2.8307315194305573,7.383734193908097 L-2.3477538141750576,7.132048322557921 L-2.2965671276566955,3.792154563338542" fill-opacity="0" stroke="black" stroke-width="1" />
<path d="M-2.8307315194305573,-92.61626580609189 L-2.3477538141750576,-92.86795167744208 L-2.2965671276566955,-96.20784543666146" fill-opacity="0" stroke="black" stroke-width="1" />
<path d="M-2.3477538141750576,92.86795167744208 L-2.2965671276566955,96.20784543666146 L-1.5700241338872065,97.30682382136851" fill-opacity="0" stroke="black" stroke-width="1" />
<path d="M-2.3477538141750576,-7.132048322557916 L-2.2965671276566955,-3.7921545633385403 L-1.5700241338872065,-2.6931761786314845" fill-opacity="0" stroke="black" stroke-width="1" />
<path d="M-2.3477538141750576,7.132048322557921 L-2.2965671276566955,3.792154563338542 L-1.5700241338872065,2.6931761786314894" fill-opacity="0" stroke="black" stroke-width="1" />
<path d="M-2.3477538141750576,-92.86795167744208 L-2.2965671276566955,-96.20784543666146 L-1.5700241338872065,-97.30682382136851" fill-opacity="0" stroke="black" stroke-width="1" />
<path d="M-2.2965671276566955,96.20784543666146 L-1.5700241338872065,97.30682382136851 L0.0,100.0" fill-opacity="0" stroke="black" stroke-width="1" />
<path d="M-2.2965671276566955,-3.7921545633385403 L-1.5700241338872065,-2.6931761786314845 L0.0,-0.0" fill-opacity="0" stroke="black" stroke-width="1" />
<path d="M-2.2965671276566955,3.792154563338542 L-1.5700241338872065,2.6931761786314894 L0.0,-0.0" fill-opacity="0" stroke="black" stroke-width="1" />
<path d="M-2.2965671276566955,-96.20784543666146 L-1.5700241338872065,-97.30682382136851 L0.0,-100.0" fill-opacity="0" stroke="black" stroke-width="1" />
<path d="M-100.0,-0.0 L-85.71678857906284,-3.642654166661885 L-84.64600035260617,-4.1509619060084795" fill-opacity="0" stroke="black" stroke-width="1" />
<path d="M-100.0,-0.0 L-85.71678857906284,3.642654166661885 L-84.64600035260617,4.1509619060084795" fill-opacity="0" stroke="black" stroke-width="1" />
<path d="M-85.71678857906284,-3.642654166661885 L-84.64600035260617,-4.1509619060084795 L-81.0,-0.0" fill-opacity="0" stroke="black" stroke-width="1" />
<path d="M-85.71678857906284,3.642654166661885 L-84.64600035260617,4.1509619060084795 L-81.0,-0.0" fill-opacity="0" stroke="black" stroke-width="1" />
<path d="M-81.0,-0.0 L-80.90173575839137,-7.417398754401194 L-77.0,-0.0" fill-opacity="0" stroke="black" stroke-width="1" />
<path d="M-81.0,-0.0 L-80.90173575839137,7.417398754401194 L-77.0,-0.0" fill-opacity="0" stroke="black" stroke-width="1" />
<path d="M-77.0,-0.0 L-74.06953919832569,-9.309963834404883 L-72.63149973018274,-10.369458301811813" fill-opacity="0" stroke="black" stroke-width="1" />
<path d="M-77.0,-0.0 L-74.06953919832569,9.309963834404883 L-72.63149973018274,10.369458301811813" fill-opacity="0" stroke="black" stroke-width="1" />
<path d="M-74.06953919832569,-9.309963834404883 L-72.63149973018274,-10.369458301811813 L-70.0,-0.0" fill-opacity="0" stroke="black" stroke-width="1" />
<path d="M-74.06953919832569,9.309963834404883 L-72.63149973018274,10.369458301811813 L-70.0,-0.0" fill-opacity="0" stroke="black" stroke-width="1" />
<path d="M-70.0,-0.0 L-63.49068232967332,-11.821348981460641 L-63.11755491068715,-12.772894332815854" fill-opacity="0" stroke="black" stroke-width="1" />
<path d="M-70.0,-0.0 L-63.49068232967332,11.821348981460641 L-63.11755491068715,12.772894332815854" fill-opacity="0" stroke="black" stroke-width="1" />
<path d="M-63.49068232967332,-11.821348981460641 L-63.11755491068715,-12.772894332815854 L-60.0,-0.0" fill-opacity="0" stroke="black" stroke-width="1" />
<path d="M-63.49068232967332,11.821348981460641 L-63.11755491068715,12.772894332815854 L-60.0,-0.0" fill-opacity="0" stroke="black" stroke-width="1" />
<path d="M-60.0,-0.0 L-61.1463186603562,-14.933764965851667 L-60.20709381444672,-15.322453494050622" fill-opacity="0" stroke="black" stroke-width="1" />
<path d="M-60.0,-0.0 L-61.1463186603562,14.933764965851667 L-60.20709381444672,15.322453494050622" fill-opacity="0" stroke="black" stroke-width="1" />
<path d="M-61.1463186603562,-14.933764965851667 L-60.20709381444672,-15.322453494050622 L-50.0,-17.0" fill-opacity="0" stroke="black" stroke-width="1" />
<path d="M-61.1463186603562,14.933764965851667 L-60.20709381444672,15.322453494050622 L-50.0,17.0" fill-opacity="0" stroke="black" stroke-width="1" />
<path d="M-50.0,-17.0 L-54.786968200458446,-24.006346825116694 L-52.531009481456216,-31.197077924972778" fill-opacity="0" stroke="black" stroke-width="1" />
<path d="M-50.0,17.0 L-54.786968200458446,24.006346825116694 L-52.531009481456216,31.197077924972778" fill-opacity="0" stroke="black" stroke-width="1" />
<path d="M-54.786968200458446,-24.006346825116694 L-52.531009481456216,-31.197077924972778 L-50.13549996258294,-31.49267248443123" fill-opacity="0" stroke="black" stroke-width="1" />
<path d="M-54.786968200458446,24.006346825116694 L-52.531009481456216,31.197077924972778 L-50.13549996258294,31.49267248443123" fill-opacity="0" stroke="black" stroke-width="1" />
<path d="M-52.531009481456216,-31.197077924972778 L-50.13549996258294,-31.49267248443123 L-50.0,-32.0" fill-opacity="0" stroke="black" stroke-width="1" />
<path d="M-52.531009481456216,31.197077924972778 L-50.13549996258294,31.49267248443123 L-50.0,32.0" fill-opacity="0" stroke="black" stroke-width="1" />
<path d="M-50.0,-50.0 L-61.0,-39.0 L-74.0,-26.0" fill-opacity="0" stroke="black" stroke-width="1" />
<path d="M-50.0,50.0 L-61.0,39.0 L-74.0,26.0" fill-opacity="0" stroke="black" stroke-width="1" />
<path d="M-61.0,-39.0 L-74.0,-26.0 L-83.0,-17.0" fill-opacity="0" stroke="black" stroke-width="1" />
<path d="M-61.0,39.0 L-74.0,26.0 L-83.0,17.0" fill-opacity="0" stroke="black" stroke-width="1" />
<path d="M-74.0,-26.0 L-83.0,-17.0 L-91.51092379788719,-3.1415163909095907" fill-opacity="0" stroke="black" stroke-width="1" />
<path d="M-74.0,26.0 L-83.0,17.0 L-91.51092379788719,3.1415163909095907" fill-opacity="0" stroke="black" stroke-width="1" />
<path d="M-83.0,-17.0 L-91.51092379788719,-3.1415163909095907 L-92.61626580609189,-2.8307315194305573" fill-opacity="0" stroke="black" stroke-width="1" />
<path d="M-83.0,17.0 L-91.51092379788719,3.1415163909095907 L-92.61626580609189,2.8307315194305573" fill-opacity="0" stroke="black" stroke-width="1" />
<path d="M-91.51092379788719,-3.1415163909095907 L-92.61626580609189,-2.8307315194305573 L-92.86795167744208,-2.3477538141750576" fill-opacity="0" stroke="black" stroke-width="1" />
<path d="M-91.51092379788719,3.1415163909095907 L-92.61626580609189,2.8307315194305573 L-92.86795167744208,2.3477538141750576" fill-opacity="0" stroke="black" stroke-width="1" />
<path d="M-92.61626580609189,-2.8307315194305573 L-92.86795167744208,-2.3477538141750576 L-96.20784543666146,-2.2965671276566955" fill-opacity="0" stroke="black" stroke-width="1" />
<path d="M-92.61626580609189,2.8307315194305573 L-92.86795167744208,2.3477538141750576 L-96.20784543666146,2.2965671276566955" fill-opacity="0" stroke="black" stroke-width="1" />
<path d="M-92.86795167744208,-2.3477538141750576 L-96.20784543666146,-2.2965671276566955 L-97.30682382136851,-1.5700241338872065" fill-opacity="0" stroke="black" stroke-width="1" />
<path d="M-92.86795167744208,2.3477538141750576 L-96.20784543666146,2.2965671276566955 L-97.30682382136851,1.5700241338872065" fill-opacity="0" stroke="black" stroke-width="1" />
<path d="M-96.20784543666146,-2.2965671276566955 L-97.30682382136851,-1.5700241338872065 L-100.0,-0.0" fill-opacity="0" stroke="black" stroke-width="1" />
<path d="M-96.20784543666146,2.2965671276566955 L-97.30682382136851,1.5700241338872065 L-100.0,-0.0" fill-opacity="0" stroke="black" stroke-width="1" />
<circle cx="0" cy="-97" r="8" stroke-dasharray="39.653880605311166 10.611601852125524" stroke-dashoffset="-17.59291886010284" stroke="black" stroke-width="1" fill="white" fill-opacity="1" />
<circle cx="0" cy="-97" r="4" stroke="black" stroke-width="1" fill="white" fill-opacity="1" />
</svg>