<?xml version="1.0" encoding="UTF-8"?>
<svg xmlns="http://www.w3.org/2000/svg" xmlns:xlink="http://www.w3.org/1999/xlink"
     width="250" height="250" viewBox="-125.0 -125.0 250 250">
<defs>
</defs>
<path d="M0.0,-0.0 L12.482221173502973,-0.03088558544290798 L17.0,-0.0" fill="yellow" fill-opacity="0.6" stroke="black" stroke-width="1" />
<path d="M0.0,-0.0 L12.482221173502973,0.03088558544290798 L17.0,-0.0" fill="orange" fill-opacity="0.6" stroke="black" stroke-width="1" />
<path d="M17.0,-0.0 L21.25701712089308,-3.721499831756725 L31.412399148133588,-4.242834509697796" fill="purple" fill-opacity="0.6" stroke="black" stroke-width="1" />
<path d="M17.0,-0.0 L21.25701712089308,3.721499831756725 L31.412399148133588,4.242834509697796" fill="blue" fill-opacity="0.6" stroke="black" stroke-width="1" />
<path d="M21.25701712089308,-3.721499831756725 L31.412399148133588,-4.242834509697796 L46.0,-0.0" fill="pink" fill-opacity="0.6" stroke="black" stroke-width="1" />
<path d="M21.25701712089308,3.721499831756725 L31.412399148133588,4.242834509697796 L46.0,-0.0" fill="pink" fill-opacity="0.6" stroke="black" stroke-width="1" />
<path d="M50.0,-7.0 L34.90321655045176,-19.87559945989493 L50.0,-24.0" fill="red" fill-opacity="0.6" stroke="black" stroke-width="1" />
<path d="M50.0,7.0 L34.90321655045176,19.87559945989493 L50.0,24.0" fill="pink" fill-opacity="0.6" stroke="black" stroke-width="1" />
<path d="M50.0,-24.0 L40.42918937728823,-31.2938647251351 L14.0,-14.0" fill="blue" fill-opacity="0.6" stroke="black" stroke-width="1" />
<path d="M50.0,24.0 L40.42918937728823,31.2938647251351 L14.0,14.0" fill="yellow" fill-opacity="0.6" stroke="black" stroke-width="1" />
<path d="M31.2938647251351,59.57081062271177 L14.0,86.0 L5.0,95.0" fill="yellow" fill-opacity="0.6" stroke="black" stroke-width="1" />
<path d="M31.2938647251351,-59.57081062271177 L14.0,-86.0 L5.0,-95.0" fill="brown" fill-opacity="0.6" stroke="black" stroke-width="1" />
<path d="M14.0,86.0 L5.0,95.0 L0.0,100.0" fill="pink" fill-opacity="0.6" stroke="black" stroke-width="1" />
<path d="M14.0,-86.0 L5.0,-95.0 L0.0,-100.0" fill="red" fill-opacity="0.6" stroke="black" stroke-width="1" />
<path d="M0.0,-0.0 L-12.482221173502973,-0.03088558544290798 L-17.0,-0.0" fill="green" fill-opacity="0.6" stroke="black" stroke-width="1" />
<path d="M0.0,-0.0 L-12.482221173502973,0.03088558544290798 L-17.0,-0.0" fill="black" fill-opacity="0.6" stroke="black" stroke-width="1" />
<path d="M-17.0,-0.0 L-21.25701712089308,-3.721499831756725 L-31.412399148133588,-4.242834509697796" fill="green" fill-opacity="0.6" stroke="black" stroke-width="1" />
<path d="M-17.0,-0.0 L-21.25701712089308,3.721499831756725 L-31.412399148133588,4.242834509697796" fill="purple" fill-opacity="0.6" stroke="black" stroke-width="1" />
<path d="M-21.25701712089308,-3.721499831756725 L-31.412399148133588,-4.242834509697796 L-46.0,-0.0" fill="yellow" fill-opacity="0.6" stroke="black" stroke-width="1" />
<path d="M-21.25701712089308,3.721499831756725 L-31.412399148133588,4.242834509697796 L-46.0,-0.0" fill="blue" fill-opacity="0.6" stroke="black" stroke-width="1" />
<path d="M-50.0,-7.0 L-34.90321655045176,-19.87559945989493 L-50.0,-24.0" fill="yellow" fill-opacity="0.6" stroke="black" stroke-width="1" />
<path d="M-50.0,7.0 L-34.90321655045176,19.87559945989493 L-50.0,24.0" fill="red" fill-opacity="0.6" stroke="black" stroke-width="1" />
<path d="M-50.0,-24.0 L-40.42918937728823,-31.2938647251351 L-14.0,-14.0" fill="yellow" fill-opacity="0.6" stroke="black" stroke-width="1" />
<path d="M-50.0,24.0 L-40.42918937728823,31.2938647251351 L-14.0,14.0" fill="green" fill-opacity="0.6" stroke="black" stroke-width="1" />
<path d="M-31.2938647251351,59.57081062271177 L-14.0,86.0 L-5.0,95.0" fill="orange" fill-opacity="0.6" stroke="black" stroke-width="1" />
<path d="M-31.2938647251351,-59.57081062271177 L-14.0,-86.0 L-5.0,-95.0" fill="pink" fill-opacity="0.6" stroke="black" stroke-width="1" />
<path d="M-14.0,86.0 L-5.0,95.0 L0.0,100.0" fill="yellow" fill-opacity="0.6" stroke="black" stroke-width="1" />
<path d="M-14.0,-86.0 L-5.0,-95.0 L0.0,-100.0" fill="black" fill-opacity="0.6" stroke="black" stroke-width="1" />
<path d="M100.0,-0.0 L87.51777882649702,0.03088558544290798 L83.0,-0.0" fill="black" fill-opacity="0.6" stroke="black" stroke-width="1" />
<path d="M100.0,-0.0 L87.51777882649702,-0.03088558544290798 L83.0,-0.0" fill="red" fill-opacity="0.6" stroke="black" stroke-width="1" />
<path d="M83.0,-0.0 L78.74298287910692,3.721499831756725 L68.58760085186641,4.242834509697796" fill="black" fill-opacity="0.6" stroke="black" stroke-width="1" />
<path d="M83.0,-0.0 L78.74298287910692,-3.721499831756725 L68.58760085186641,-4.242834509697796" fill="blue" fill-opacity="0.6" stroke="black" stroke-width="1" />
<path d="M78.74298287910692,3.721499831756725 L68.58760085186641,4.242834509697796 L54.0,-0.0" fill="green" fill-opacity="0.6" stroke="black" stroke-width="1" />
<path d="M78.74298287910692,-3.721499831756725 L68.58760085186641,-4.242834509697796 L54.0,-0.0" fill="black" fill-opacity="0.6" stroke="black" stroke-width="1" />
<path d="M50.0,7.0 L65.09678344954824,19.87559945989493 L50.0,24.0" fill="yellow" fill-opacity="0.6" stroke="black" stroke-width="1" />
<path d="M50.0,-7.0 L65.09678344954824,-19.87559945989493 L50.0,-24.0" fill="black" fill-opacity="0.6" stroke="black" stroke-width="1" />
<path d="M50.0,24.0 L59.57081062271177,31.2938647251351 L86.0,14.0" fill="black" fill-opacity="0.6" stroke="black" stroke-width="1" />
<path d="M50.0,-24.0 L59.57081062271177,-31.2938647251351 L86.0,-14.0" fill="green" fill-opacity="0.6" stroke="black" stroke-width="1" />
<path d="M59.57081062271177,31.2938647251351 L86.0,14.0 L95.0,5.0" fill="black" fill-opacity="0.6" stroke="black" stroke-width="1" />
<path d="M59.57081062271177,-31.2938647251351 L86.0,-14.0 L95.0,-5.0" fill="blue" fill-opacity="0.6" stroke="black" stroke-width="1" />
<path d="M86.0,14.0 L95.0,5.0 L100.0,-0.0" fill="blue" fill-opacity="0.6" stroke="black" stroke-width="1" />
<path d="M86.0,-14.0 L95.0,-5.0 L100.0,-0.0" fill="brown" fill-opacity="0.6" stroke="black" stroke-width="1" />
<path d="M0.0,-0.0 L0.03088558544290798,-12.482221173502973 L0.0,-17.0" fill="orange" fill-opacity="0.6" stroke="black" stroke-width="1" />
<path d="M0.0,-0.0 L0.03088558544290798,12.482221173502973 L0.0,17.0" fill="pink" fill-opacity="0.6" stroke="black" stroke-width="1" />
<path d="M0.0,100.0 L0.03088558544290798,87.51777882649702 L0.0,83.0" fill="yellow" fill-opacity="0.6" stroke="black" stroke-width="1" />
<path d="M0.0,-100.0 L0.03088558544290798,-87.51777882649702 L0.0,-83.0" fill="red" fill-opacity="0.6" stroke="black" stroke-width="1" />
<path d="M0.0,-17.0 L3.721499831756725,-21.25701712089308 L4.242834509697796,-31.412399148133588" fill="brown" fill-opacity="0.6" stroke="black" stroke-width="1" />
<path d="M0.0,17.0 L3.721499831756725,21.25701712089308 L4.242834509697796,31.412399148133588" fill="yellow" fill-opacity="0.6" stroke="black" stroke-width="1" />
<path d="M0.0,83.0 L3.721499831756725,78.74298287910692 L4.242834509697796,68.58760085186641" fill="orange" fill-opacity="0.6" stroke="black" stroke-width="1" />
<path d="M0.0,-83.0 L3.721499831756725,-78.74298287910692 L4.242834509697796,-68.58760085186641" fill="blue" fill-opacity="0.6" stroke="black" stroke-width="1" />
<path d="M3.721499831756725,-21.25701712089308 L4.242834509697796,-31.412399148133588 L0.0,-46.0" fill="blue" fill-opacity="0.6" stroke="black" stroke-width="1" />
<path d="M3.721499831756725,21.25701712089308 L4.242834509697796,31.412399148133588 L0.0,46.0" fill="orange" fill-opacity="0.6" stroke="black" stroke-width="1" />
<path d="M3.721499831756725,78.74298287910692 L4.242834509697796,68.58760085186641 L0.0,54.0" fill="yellow" fill-opacity="0.6" stroke="black" stroke-width="1" />
<path d="M3.721499831756725,-78.74298287910692 L4.242834509697796,-68.58760085186641 L0.0,-54.0" fill="pink" fill-opacity="0.6" stroke="black" stroke-width="1" />
<path d="M7.0,-50.0 L19.87559945989493,-34.90321655045176 L24.0,-50.0" fill="yellow" fill-opacity="0.6" stroke="black" stroke-width="1" />
<path d="M7.0,50.0 L19.87559945989493,34.90321655045176 L24.0,50.0" fill="yellow" fill-opacity="0.6" stroke="black" stroke-width="1" />
<path d="M7.0,50.0 L19.87559945989493,65.09678344954824 L24.0,50.0" fill="pink" fill-opacity="0.6" stroke="black" stroke-width="1" />
<path d="M7.0,-50.0 L19.87559945989493,-65.09678344954824 L24.0,-50.0" fill="brown" fill-opacity="0.6" stroke="black" stroke-width="1" />
<path d="M24.0,-50.0 L31.2938647251351,-40.42918937728823 L14.0,-14.0" fill="pink" fill-opacity="0.6" stroke="black" stroke-width="1" />
<path d="M24.0,50.0 L31.2938647251351,40.42918937728823 L14.0,14.0" fill="brown" fill-opacity="0.6" stroke="black" stroke-width="1" />
<path d="M24.0,50.0 L31.2938647251351,59.57081062271177 L14.0,86.0" fill="green" fill-opacity="0.6" stroke="black" stroke-width="1" />
<path d="M24.0,-50.0 L31.2938647251351,-59.57081062271177 L14.0,-86.0" fill="green" fill-opacity="0.6" stroke="black" stroke-width="1" />
<path d="M0.0,100.0 L-0.03088558544290798,87.51777882649702 L0.0,83.0" fill="brown" fill-opacity="0.6" stroke="black" stroke-width="1" />
<path d="M0.0,-0.0 L-0.03088558544290798,-12.482221173502973 L0.0,-17.0" fill="black" fill-opacity="0.6" stroke="black" stroke-width="1" />
<path d="M0.0,-0.0 L-0.03088558544290798,12.482221173502978 L0.0,17.0" fill="green" fill-opacity="0.6" stroke="black" stroke-width="1" />
<path d="M0.0,-100.0 L-0.03088558544290798,-87.51777882649702 L0.0,-83.0" fill="brown" fill-opacity="0.6" stroke="black" stroke-width="1" />
<path d="M0.0,83.0 L-3.721499831756725,78.74298287910692 L-4.242834509697796,68.58760085186641" fill="purple" fill-opacity="0.6" stroke="black" stroke-width="1" />
<path d="M0.0,-17.0 L-3.721499831756725,-21.25701712089308 L-4.242834509697796,-31.412399148133588" fill="purple" fill-opacity="0.6" stroke="black" stroke-width="1" />
<path d="M0.0,17.0 L-3.721499831756725,21.25701712089308 L-4.242834509697796,31.412399148133588" fill="blue" fill-opacity="0.6" stroke="black" stroke-width="1" />
<path d="M0.0,-83.0 L-3.721499831756725,-78.74298287910692 L-4.242834509697796,-68.58760085186641" fill="blue" fill-opacity="0.6" stroke="black" stroke-width="1" />
<path d="M-3.721499831756725,78.74298287910692 L-4.242834509697796,68.58760085186641 L0.0,54.0" fill="orange" fill-opacity="0.6" stroke="black" stroke-width="1" />
<path d="M-3.721499831756725,-21.25701712089308 L-4.242834509697796,-31.412399148133588 L0.0,-46.0" fill="brown" fill-opacity="0.6" stroke="black" stroke-width="1" />
<path d="M-3.721499831756725,21.25701712089308 L-4.242834509697796,31.412399148133588 L0.0,46.0" fill="yellow" fill-opacity="0.6" stroke="black" stroke-width="1" />
<path d="M-3.721499831756725,-78.74298287910692 L-4.242834509697796,-68.58760085186641 L0.0,-54.0" fill="green" fill-opacity="0.6" stroke="black" stroke-width="1" />
<path d="M-7.0,50.0 L-19.87559945989493,65.09678344954824 L-24.0,50.0" fill="pink" fill-opacity="0.6" stroke="black" stroke-width="1" />
<path d="M-7.0,-50.0 L-19.87559945989493,-34.90321655045176 L-24.0,-50.0" fill="green" fill-opacity="0.6" stroke="black" stroke-width="1" />
<path d="M-7.0,50.0 L-19.87559945989493,34.90321655045176 L-24.0,50.0" fill="orange" fill-opacity="0.6" stroke="black" stroke-width="1" />
<path d="M-7.0,-50.0 L-19.87559945989493,-65.09678344954824 L-24.0,-50.0" fill="pink" fill-opacity="0.6" stroke="black" stroke-width="1" />
<path d="M-24.0,50.0 L-31.2938647251351,59.57081062271177 L-14.0,86.0" fill="purple" fill-opacity="0.6" stroke="black" stroke-width="1" />
<path d="M-24.0,-50.0 L-31.2938647251351,-40.42918937728823 L-14.0,-14.0" fill="brown" fill-opacity="0.6" stroke="black" stroke-width="1" />
<path d="M-24.0,50.0 L-31.2938647251351,40.42918937728823 L-14.0,14.0" fill="yellow" fill-opacity="0.6" stroke="black" stroke-width="1" />
<path d="M-24.0,-50.0 L-31.2938647251351,-59.57081062271177 L-14.0,-86.0" fill="orange" fill-opacity="0.6" stroke="black" stroke-width="1" />
<path d="M-100.0,-0.0 L-87.51777882649702,-0.03088558544290798 L-83.0,-0.0" fill="pink" fill-opacity="0.6" stroke="black" stroke-width="1" />
<path d="M-100.0,-0.0 L-87.51777882649702,0.03088558544290798 L-83.0,-0.0" fill="yellow" fill-opacity="0.6" stroke="black" stroke-width="1" />
<path d="M-83.0,-0.0 L-78.74298287910692,-3.721499831756725 L-68.58760085186641,-4.242834509697796" fill="orange" fill-opacity="0.6" stroke="black" stroke-width="1" />
<path d="M-83.0,-0.0 L-78.74298287910692,3.721499831756725 L-68.58760085186641,4.242834509697796" fill="green" fill-opacity="0.6" stroke="black" stroke-width="1" />
<path d="M-78.74298287910692,-3.721499831756725 L-68.58760085186641,-4.242834509697796 L-54.0,-0.0" fill="green" fill-opacity="0.6" stroke="black" stroke-width="1" />
<path d="M-78.74298287910692,3.721499831756725 L-68.58760085186641,4.242834509697796 L-54.0,-0.0" fill="pink" fill-opacity="0.6" stroke="black" stroke-width="1" />
<path d="M-50.0,-7.0 L-65.09678344954824,-19.87559945989493 L-50.0,-24.0" fill="yellow" fill-opacity="0.6" stroke="black" stroke-width="1" />
<path d="M-50.0,7.0 L-65.09678344954824,19.87559945989493 L-50.0,24.0" fill="green" fill-opacity="0.6" stroke="black" stroke-width="1" />
<path d="M-50.0,-24.0 L-59.57081062271177,-31.2938647251351 L-86.0,-14.0" fill="blue" fill-opacity="0.6" stroke="black" stroke-width="1" />
<path d="M-50.0,24.0 L-59.57081062271177,31.2938647251351 L-86.0,14.0" fill="purple" fill-opacity="0.6" stroke="black" stroke-width="1" />
<path d="M-59.57081062271177,-31.2938647251351 L-86.0,-14.0 L-95.0,-5.0" fill="green" fill-opacity="0.6" stroke="black" stroke-width="1" />
<path d="M-59.57081062271177,31.2938647251351 L-86.0,14.0 L-95.0,5.0" fill="brown" fill-opacity="0.6" stroke="black" stroke-width="1" />
<path d="M-86.0,-14.0 L-95.0,-5.0 L-100.0,-0.0" fill="orange" fill-opacity="0.6" stroke="black" stroke-width="1" />
<path d="M-86.0,14.0 L-95.0,5.0 L-100.0,-0.0" fill="blue" fill-opacity="0.6" stroke="black" stroke-width="1" />
</svg>