<?xml version="1.0" encoding="UTF-8"?>
<svg xmlns="http://www.w3.org/2000/svg" xmlns:xlink="http://www.w3.org/1999/xlink"
     width="250" height="250" viewBox="-125.0 -125.0 250 250">
<defs>
</defs>
<path d="M15.0,-0.0 L29.91935006770454,-19.82916276421804 L35.0,-0.0" fill-opacity="0" stroke="black" stroke-width="1" />
<path d="M15.0,-0.0 L29.91935006770454,19.82916276421804 L35.0,-0.0" fill-opacity="0" stroke="black" stroke-width="1" />
<path d="M50.0,-19.0 L39.82893016798608,-28.210953113750847 L44.592076695326256,-29.27098674696907" fill-opacity="0" stroke="black" stroke-width="1" />
<path d="M50.0,19.0 L39.82893016798608,28.210953113750847 L44.592076695326256,29.27098674696907" fill-opacity="0" stroke="black" stroke-width="1" />
<path d="M39.82893016798608,-28.210953113750847 L44.592076695326256,-29.27098674696907 L50.0,-45.0" fill-opacity="0" stroke="black" stroke-width="1" />
<path d="M39.82893016798608,28.210953113750847 L44.592076695326256,29.27098674696907 L50.0,45.0" fill-opacity="0" stroke="black" stroke-width="1" />
<path d="M50.0,50.0 L42.0,58.0 L27.99112499227265,69.81588593917499" fill-opacity="0" stroke="black" stroke-width="1" />
<path d="M50.0,-50.0 L42.0,-58.0 L27.99112499227265,-69.81588593917499" fill-opacity="0" stroke="black" stroke-width="1" />
<path d="M42.0,-42.0 L30.184114060825006,-27.99112499227265 L25.0,-25.0" fill-opacity="0" stroke="black" stroke-width="1" />
<path d="M42.0,42.0 L30.184114060825006,27.99112499227265 L25.0,25.0" fill-opacity="0" stroke="black" stroke-width="1" />
<path d="M27.99112499227265,69.81588593917499 L25.0,75.0 L17.0,83.0" fill-opacity="0" stroke="black" stroke-width="1" />
<path d="M27.99112499227265,-69.81588593917499 L25.0,-75.0 L17.0,-83.0" fill-opacity="0" stroke="black" stroke-width="1" />
<path d="M17.0,-17.0 L16.95511003615058,-14.35803877821599 L13.678690272539544,-8.025433101347398" fill-opacity="0" stroke="black" stroke-width="1" />
<path d="M17.0,17.0 L16.95511003615058,14.35803877821599 L13.678690272539544,8.025433101347398" fill-opacity="0" stroke="black" stroke-width="1" />
<path d="M16.95511003615058,-14.35803877821599 L13.678690272539544,-8.025433101347398 L7.367500787156578,-4.266654053184065" fill-opacity="0" stroke="black" stroke-width="1" />
<path d="M16.95511003615058,14.35803877821599 L13.678690272539544,8.025433101347398 L7.367500787156578,4.266654053184065" fill-opacity="0" stroke="black" stroke-width="1" />
<path d="M13.678690272539544,-8.025433101347398 L7.367500787156578,-4.266654053184065 L6.0,-6.0" fill-opacity="0" stroke="black" stroke-width="1" />
<path d="M13.678690272539544,8.025433101347398 L7.367500787156578,4.266654053184065 L6.0,6.0" fill-opacity="0" stroke="black" stroke-width="1" />
<path d="M4.266654053184065,92.63249921284341 L6.0,94.0 L0.0,100.0" fill-opacity="0" stroke="black" stroke-width="1" />
<path d="M4.266654053184065,-92.63249921284341 L6.0,-94.0 L0.0,-100.0" fill-opacity="0" stroke="black" stroke-width="1" />
<path d="M-15.0,-0.0 L-29.91935006770454,-19.82916276421804 L-35.0,-0.0" fill-opacity="0" stroke="black" stroke-width="1" />
<path d="M-15.0,-0.0 L-29.91935006770454,19.82916276421804 L-35.0,-0.0" fill-opacity="0" stroke="black" stroke-width="1" />
<path d="M-50.0,-19.0 L-39.82893016798608,-28.210953113750847 L-44.592076695326256,-29.27098674696907" fill-opacity="0" stroke="black" stroke-width="1" />
<path d="M-50.0,19.0 L-39.82893016798608,28.210953113750847 L-44.592076695326256,29.27098674696907" fill-opacity="0" stroke="black" stroke-width="1" />
<path d="M-39.82893016798608,-28.210953113750847 L-44.592076695326256,-29.27098674696907 L-50.0,-45.0" fill-opacity="0" stroke="black" stroke-width="1" />
<path d="M-39.82893016798608,28.210953113750847 L-44.592076695326256,29.27098674696907 L-50.0,45.0" fill-opacity="0" stroke="black" stroke-width="1" />
<path d="M-50.0,50.0 L-42.0,58.0 L-27.99112499227265,69.81588593917499" fill-opacity="0" stroke="black" stroke-width="1" />
<path d="M-50.0,-50.0 L-42.0,-58.0 L-27.99112499227265,-69.81588593917499" fill-opacity="0" stroke="black" stroke-width="1" />
<path d="M-42.0,-42.0 L-30.184114060825006,-27.99112499227265 L-25.0,-25.0" fill-opacity="0" stroke="black" stroke-width="1" />
<path d="M-42.0,42.0 L-30.184114060825006,27.99112499227265 L-25.0,25.0" fill-opacity="0" stroke="black" stroke-width="1" />
<path d="M-27.99112499227265,69.81588593917499 L-25.0,75.0 L-17.0,83.0" fill-opacity="0" stroke="black" stroke-width="1" />
<path d="M-27.99112499227265,-69.81588593917499 L-25.0,-75.0 L-17.0,-83.0" fill-opacity="0" stroke="black" stroke-width="1" />
<path d="M-17.0,-17.0 L-16.95511003615058,-14.35803877821599 L-13.678690272539544,-8.025433101347398" fill-opacity="0" stroke="black" stroke-width="1" />
<path d="M-17.0,17.0 L-16.95511003615058,14.35803877821599 L-13.678690272539544,8.025433101347398" fill-opacity="0" stroke="black" stroke-width="1" />
<path d="M-16.95511003615058,-14.35803877821599 L-13.678690272539544,-8.025433101347398 L-7.367500787156578,-4.266654053184065" fill-opacity="0" stroke="black" stroke-width="1" />
<path d="M-16.95511003615058,14.35803877821599 L-13.678690272539544,8.025433101347398 L-7.367500787156578,4.266654053184065" fill-opacity="0" stroke="black" stroke-width="1" />
<path d="M-13.678690272539544,-8.025433101347398 L-7.367500787156578,-4.266654053184065 L-6.0,-6.0" fill-opacity="0" stroke="black" stroke-width="1" />
<path d="M-13.678690272539544,8.025433101347398 L-7.367500787156578,4.266654053184065 L-6.0,6.0" fill-opacity="0" stroke="black" stroke-width="1" />
<path d="M-4.266654053184065,92.63249921284343 L-6.0,94.0 L0.0,100.0" fill-opacity="0" stroke="black" stroke-width="1" />
<path d="M-4.266654053184065,-92.63249921284341 L-6.0,-94.0 L0.0,-100.0" fill-opacity="0" stroke="black" stroke-width="1" />
<path d="M85.0,-0.0 L70.08064993229546,19.82916276421804 L65.0,-0.0" fill-opacity="0" stroke="black" stroke-width="1" />
<path d="M85.0,-0.0 L70.08064993229546,-19.82916276421804 L65.0,-0.0" fill-opacity="0" stroke="black" stroke-width="1" />
<path d="M50.0,19.0 L60.17106983201392,28.210953113750847 L55.407923304673744,29.27098674696907" fill-opacity="0" stroke="black" stroke-width="1" />
<path d="M50.0,-19.0 L60.17106983201392,-28.210953113750847 L55.407923304673744,-29.27098674696907" fill-opacity="0" stroke="black" stroke-width="1" />
<path d="M60.17106983201392,28.210953113750847 L55.407923304673744,29.27098674696907 L50.0,45.0" fill-opacity="0" stroke="black" stroke-width="1" />
<path d="M60.17106983201392,-28.210953113750847 L55.407923304673744,-29.27098674696907 L50.0,-45.0" fill-opacity="0" stroke="black" stroke-width="1" />
<path d="M50.0,50.0 L58.0,42.0 L69.81588593917499,27.99112499227265" fill-opacity="0" stroke="black" stroke-width="1" />
<path d="M50.0,-50.0 L58.0,-42.0 L69.81588593917499,-27.99112499227265" fill-opacity="0" stroke="black" stroke-width="1" />
<path d="M58.0,42.0 L69.81588593917499,27.99112499227265 L75.0,25.0" fill-opacity="0" stroke="black" stroke-width="1" />
<path d="M58.0,-42.0 L69.81588593917499,-27.99112499227265 L75.0,-25.0" fill-opacity="0" stroke="black" stroke-width="1" />
<path d="M69.81588593917499,27.99112499227265 L75.0,25.0 L83.0,17.0" fill-opacity="0" stroke="black" stroke-width="1" />
<path d="M69.81588593917499,-27.99112499227265 L75.0,-25.0 L83.0,-17.0" fill-opacity="0" stroke="black" stroke-width="1" />
<path d="M83.0,17.0 L83.04488996384941,14.35803877821599 L86.32130972746046,8.025433101347398" fill-opacity="0" stroke="black" stroke-width="1" />
<path d="M83.0,-17.0 L83.04488996384941,-14.35803877821599 L86.32130972746046,-8.025433101347398" fill-opacity="0" stroke="black" stroke-width="1" />
<path d="M83.04488996384941,14.35803877821599 L86.32130972746046,8.025433101347398 L92.63249921284341,4.266654053184065" fill-opacity="0" stroke="black" stroke-width="1" />
<path d="M83.04488996384941,-14.35803877821599 L86.32130972746046,-8.025433101347398 L92.63249921284341,-4.266654053184065" fill-opacity="0" stroke="black" stroke-width="1" />
<path d="M86.32130972746046,8.025433101347398 L92.63249921284341,4.266654053184065 L94.0,6.0" fill-opacity="0" stroke="black" stroke-width="1" />
<path d="M86.32130972746046,-8.025433101347398 L92.63249921284341,-4.266654053184065 L94.0,-6.0" fill-opacity="0" stroke="black" stroke-width="1" />
<path d="M92.63249921284341,4.266654053184065 L94.0,6.0 L100.0,-0.0" fill-opacity="0" stroke="black" stroke-width="1" />
<path d="M92.63249921284341,-4.266654053184065 L94.0,-6.0 L100.0,-0.0" fill-opacity="0" stroke="black" stroke-width="1" />
<path d="M0.0,-15.0 L19.82916276421804,-29.91935006770454 L0.0,-35.0" fill-opacity="0" stroke="black" stroke-width="1" />
<path d="M0.0,15.0 L19.82916276421804,29.91935006770454 L0.0,35.0" fill-opacity="0" stroke="black" stroke-width="1" />
<path d="M0.0,85.0 L19.82916276421804,70.08064993229546 L0.0,65.0" fill-opacity="0" stroke="black" stroke-width="1" />
<path d="M0.0,-85.0 L19.82916276421804,-70.08064993229546 L0.0,-65.0" fill-opacity="0" stroke="black" stroke-width="1" />
<path d="M19.0,-50.0 L28.210953113750847,-39.82893016798608 L29.27098674696907,-44.592076695326256" fill-opacity="0" stroke="black" stroke-width="1" />
<path d="M19.0,50.0 L28.210953113750847,39.82893016798608 L29.27098674696907,44.592076695326256" fill-opacity="0" stroke="black" stroke-width="1" />
<path d="M19.0,50.0 L28.210953113750847,60.17106983201392 L29.27098674696907,55.407923304673744" fill-opacity="0" stroke="black" stroke-width="1" />
<path d="M19.0,-50.0 L28.210953113750847,-60.17106983201392 L29.27098674696907,-55.407923304673744" fill-opacity="0" stroke="black" stroke-width="1" />
<path d="M28.210953113750847,-39.82893016798608 L29.27098674696907,-44.592076695326256 L45.0,-50.0" fill-opacity="0" stroke="black" stroke-width="1" />
<path d="M28.210953113750847,39.82893016798608 L29.27098674696907,44.592076695326256 L45.0,50.0" fill-opacity="0" stroke="black" stroke-width="1" />
<path d="M28.210953113750847,60.17106983201392 L29.27098674696907,55.407923304673744 L45.0,50.0" fill-opacity="0" stroke="black" stroke-width="1" />
<path d="M28.210953113750847,-60.17106983201392 L29.27098674696907,-55.407923304673744 L45.0,-50.0" fill-opacity="0" stroke="black" stroke-width="1" />
<path d="M42.0,-42.0 L27.99112499227265,-30.184114060825006 L25.0,-25.0" fill-opacity="0" stroke="black" stroke-width="1" />
<path d="M42.0,42.0 L27.99112499227265,30.184114060825006 L25.0,25.0" fill-opacity="0" stroke="black" stroke-width="1" />
<path d="M42.0,58.0 L27.99112499227265,69.81588593917499 L25.0,75.0" fill-opacity="0" stroke="black" stroke-width="1" />
<path d="M42.0,-58.0 L27.99112499227265,-69.81588593917499 L25.0,-75.0" fill-opacity="0" stroke="black" stroke-width="1" />
<path d="M17.0,-17.0 L14.35803877821599,-16.95511003615058 L8.025433101347398,-13.678690272539544" fill-opacity="0" stroke="black" stroke-width="1" />
<path d="M17.0,17.0 L14.35803877821599,16.95511003615058 L8.025433101347398,13.678690272539544" fill-opacity="0" stroke="black" stroke-width="1" />
<path d="M17.0,83.0 L14.35803877821599,83.04488996384941 L8.025433101347398,86.32130972746046" fill-opacity="0" stroke="black" stroke-width="1" />
<path d="M17.0,-83.0 L14.35803877821599,-83.04488996384941 L8.025433101347398,-86.32130972746046" fill-opacity="0" stroke="black" stroke-width="1" />
<path d="M14.35803877821599,-16.95511003615058 L8.025433101347398,-13.678690272539544 L4.266654053184065,-7.367500787156578" fill-opacity="0" stroke="black" stroke-width="1" />
<path d="M14.35803877821599,16.95511003615058 L8.025433101347398,13.678690272539544 L4.266654053184065,7.367500787156578" fill-opacity="0" stroke="black" stroke-width="1" />
<path d="M14.35803877821599,83.04488996384941 L8.025433101347398,86.32130972746046 L4.266654053184065,92.63249921284341" fill-opacity="0" stroke="black" stroke-width="1" />
<path d="M14.35803877821599,-83.04488996384941 L8.025433101347398,-86.32130972746046 L4.266654053184065,-92.63249921284341" fill-opacity="0" stroke="black" stroke-width="1" />
<path d="M8.025433101347398,-13.678690272539544 L4.266654053184065,-7.367500787156578 L6.0,-6.0" fill-opacity="0" stroke="black" stroke-width="1" />
<path d="M8.025433101347398,13.678690272539544 L4.266654053184065,7.367500787156578 L6.0,6.0" fill-opacity="0" stroke="black" stroke-width="1" />
<path d="M8.025433101347398,86.32130972746046 L4.266654053184065,92.63249921284341 L6.0,94.0" fill-opacity="0" stroke="black" stroke-width="1" />
<path d="M8.025433101347398,-86.32130972746046 L4.266654053184065,-92.63249921284341 L6.0,-94.0" fill-opacity="0" stroke="black" stroke-width="1" />
<path d="M0.0,85.0 L-19.82916276421804,70.08064993229546 L0.0,65.0" fill-opacity="0" stroke="black" stroke-width="1" />
<path d="M0.0,-15.0 L-19.82916276421804,-29.91935006770454 L0.0,-35.0" fill-opacity="0" stroke="black" stroke-width="1" />
<path d="M0.0,15.0 L-19.82916276421804,29.919350067704542 L0.0,35.0" fill-opacity="0" stroke="black" stroke-width="1" />
<path d="M0.0,-85.0 L-19.82916276421804,-70.08064993229546 L0.0,-65.0" fill-opacity="0" stroke="black" stroke-width="1" />
<path d="M-19.0,50.0 L-28.210953113750847,60.17106983201392 L-29.27098674696907,55.407923304673744" fill-opacity="0" stroke="black" stroke-width="1" />
<path d="M-19.0,-50.0 L-28.210953113750847,-39.82893016798608 L-29.27098674696907,-44.592076695326256" fill-opacity="0" stroke="black" stroke-width="1" />
<path d="M-19.0,50.0 L-28.210953113750847,39.82893016798608 L-29.27098674696907,44.592076695326256" fill-opacity="0" stroke="black" stroke-width="1" />
<path d="M-19.0,-50.0 L-28.210953113750847,-60.17106983201392 L-29.27098674696907,-55.407923304673744" fill-opacity="0" stroke="black" stroke-width="1" />
<path d="M-28.210953113750847,60.17106983201392 L-29.27098674696907,55.407923304673744 L-45.0,50.0" fill-opacity="0" stroke="black" stroke-width="1" />
<path d="M-28.210953113750847,-39.82893016798608 L-29.27098674696907,-44.592076695326256 L-45.0,-50.0" fill-opacity="0" stroke="black" stroke-width="1" />
<path d="M-28.210953113750847,39.82893016798608 L-29.27098674696907,44.592076695326256 L-45.0,50.0" fill-opacity="0" stroke="black" stroke-width="1" />
<path d="M-28.210953113750847,-60.17106983201392 L-29.27098674696907,-55.407923304673744 L-45.0,-50.0" fill-opacity="0" stroke="black" stroke-width="1" />
<path d="M-42.0,58.0 L-27.99112499227265,69.81588593917499 L-25.0,75.0" fill-opacity="0" stroke="black" stroke-width="1" />
<path d="M-42.0,-42.0 L-27.99112499227265,-30.184114060825006 L-25.0,-25.0" fill-opacity="0" stroke="black" stroke-width="1" />
<path d="M-42.0,42.0 L-27.99112499227265,30.18411406082501 L-25.0,25.0" fill-opacity="0" stroke="black" stroke-width="1" />
<path d="M-42.0,-58.0 L-27.99112499227265,-69.81588593917499 L-25.0,-75.0" fill-opacity="0" stroke="black" stroke-width="1" />
<path d="M-17.0,83.0 L-14.35803877821599,83.04488996384941 L-8.025433101347398,86.32130972746046" fill-opacity="0" stroke="black" stroke-width="1" />
<path d="M-17.0,-17.0 L-14.35803877821599,-16.95511003615058 L-8.025433101347398,-13.678690272539544" fill-opacity="0" stroke="black" stroke-width="1" />
<path d="M-17.0,17.0 L-14.35803877821599,16.955110036150586 L-8.025433101347398,13.67869027253954" fill-opacity="0" stroke="black" stroke-width="1" />
<path d="M-17.0,-83.0 L-14.35803877821599,-83.04488996384941 L-8.025433101347398,-86.32130972746046" fill-opacity="0" stroke="black" stroke-width="1" />
<path d="M-14.35803877821599,83.04488996384941 L-8.025433101347398,86.32130972746046 L-4.266654053184065,92.63249921284343" fill-opacity="0" stroke="black" stroke-width="1" />
<path d="M-14.35803877821599,-16.95511003615058 L-8.025433101347398,-13.678690272539544 L-4.266654053184065,-7.367500787156578" fill-opacity="0" stroke="black" stroke-width="1" />
<path d="M-14.35803877821599,16.955110036150586 L-8.025433101347398,13.67869027253954 L-4.266654053184065,7.3675007871565725" fill-opacity="0" stroke="black" stroke-width="1" />
<path d="M-14.35803877821599,-83.04488996384941 L-8.025433101347398,-86.32130972746046 L-4.266654053184065,-92.63249921284341" fill-opacity="0" stroke="black" stroke-width="1" />
<path d="M-8.025433101347398,86.32130972746046 L-4.266654053184065,92.63249921284343 L-6.0,94.0" fill-opacity="0" stroke="black" stroke-width="1" />
<path d="M-8.025433101347398,-13.678690272539544 L-4.266654053184065,-7.367500787156578 L-6.0,-6.0" fill-opacity="0" stroke="black" stroke-width="1" />
<path d="M-8.025433101347398,13.67869027253954 L-4.266654053184065,7.3675007871565725 L-6.0,6.0" fill-opacity="0" stroke="black" stroke-width="1" />
<path d="M-8.025433101347398,-86.32130972746046 L-4.266654053184065,-92.63249921284341 L-6.0,-94.0" fill-opacity="0" stroke="black" stroke-width="1" />
<path d="M-85.0,-0.0 L-70.08064993229546,-19.82916276421804 L-65.0,-0.0" fill-opacity="0" stroke="black" stroke-width="1" />
<path d="M-85.0,-0.0 L-70.08064993229546,19.82916276421804 L-65.0,-0.0" fill-opacity="0" stroke="black" stroke-width="1" />
<path d="M-50.0,-19.0 L-60.17106983201392,-28.210953113750847 L-55.407923304673744,-29.27098674696907" fill-opacity="0" stroke="black" stroke-width="1" />
<path d="M-50.0,19.0 L-60.17106983201392,28.210953113750847 L-55.407923304673744,29.27098674696907" fill-opacity="0" stroke="black" stroke-width="1" />
<path d="M-60.17106983201392,-28.210953113750847 L-55.407923304673744,-29.27098674696907 L-50.0,-45.0" fill-opacity="0" stroke="black" stroke-width="1" />
<path d="M-60.17106983201392,28.210953113750847 L-55.407923304673744,29.27098674696907 L-50.0,45.0" fill-opacity="0" stroke="black" stroke-width="1" />
<path d="M-50.0,-50.0 L-58.0,-42.0 L-69.81588593917499,-27.99112499227265" fill-opacity="0" stroke="black" stroke-width="1" />
<path d="M-50.0,50.0 L-58.0,42.0 L-69.81588593917499,27.99112499227265" fill-opacity="0" stroke="black" stroke-width="1" />
<path d="M-58.0,-42.0 L-69.81588593917499,-27.99112499227265 L-75.0,-25.0" fill-opacity="0" stroke="black" stroke-width="1" />
<path d="M-58.0,42.0 L-69.81588593917499,27.99112499227265 L-75.0,25.0" fill-opacity="0" stroke="black" stroke-width="1" />
<path d="M-69.81588593917499,-27.99112499227265 L-75.0,-25.0 L-83.0,-17.0" fill-opacity="0" stroke="black" stroke-width="1" />
<path d="M-69.81588593917499,27.99112499227265 L-75.0,25.0 L-83.0,17.0" fill-opacity="0" stroke="black" stroke-width="1" />
<path d="M-83.0,-17.0 L-83.04488996384941,-14.35803877821599 L-86.32130972746046,-8.025433101347398" fill-opacity="0" stroke="black" stroke-width="1" />
<path d="M-83.0,17.0 L-83.04488996384941,14.35803877821599 L-86.32130972746046,8.025433101347398" fill-opacity="0" stroke="black" stroke-width="1" />
<path d="M-83.04488996384941,-14.35803877821599 L-86.32130972746046,-8.025433101347398 L-92.63249921284341,-4.266654053184065" fill-opacity="0" stroke="black" stroke-width="1" />
<path d="M-83.04488996384941,14.35803877821599 L-86.32130972746046,8.025433101347398 L-92.63249921284341,4.266654053184065" fill-opacity="0" stroke="black" stroke-width="1" />
<path d="M-86.32130972746046,-8.025433101347398 L-92.63249921284341,-4.266654053184065 L-94.0,-6.0" fill-opacity="0" stroke="black" stroke-width="1" />
<path d="M-86.32130972746046,8.025433101347398 L-92.63249921284341,4.266654053184065 L-94.0,6.0" fill-opacity="0" stroke="black" stroke-width="1" />
<path d="M-92.63249921284341,-4.266654053184065 L-94.0,-6.0 L-100.0,-0.0" fill-opacity="0" stroke="black" stroke-width="1" />
<path d="M-92.63249921284341,4.266654053184065 L-94.0,6.0 L-100.0,-0.0" fill-opacity="0" stroke="black" stroke-width="1" />
</svg>