<?xml version="1.0" encoding="UTF-8"?>
<svg xmlns="http://www.w3.org/2000/svg" xmlns:xlink="http://www.w3.org/1999/xlink"
     width="250" height="250" viewBox="-125.0 -125.0 250 250">
<defs>
</defs>
<path d="M0.0,-0.0 L13.964125169360631,-3.312700749725156 L15.06175945108036,-3.7081394807713552" fill-opacity="0" stroke="black" stroke-width="1" />
<path d="M0.0,-0.0 L13.964125169360631,3.312700749725156 L15.06175945108036,3.7081394807713552" fill-opacity="0" stroke="black" stroke-width="1" />
<path d="M13.964125169360631,-3.312700749725156 L15.06175945108036,-3.7081394807713552 L17.0,-0.0" fill-opacity="0" stroke="black" stroke-width="1" />
<path d="M13.964125169360631,3.312700749725156 L15.06175945108036,3.7081394807713552 L17.0,-0.0" fill-opacity="0" stroke="black" stroke-width="1" />
<path d="M50.0,-5.0 L34.314295340720165,-17.761929724864792 L50.0,-20.0" fill-opacity="0" stroke="black" stroke-width="1" />
<path d="M50.0,5.0 L34.314295340720165,17.761929724864792 L50.0,20.0" fill-opacity="0" stroke="black" stroke-width="1" />
<path d="M50.0,50.0 L30.0,70.0 L27.0,73.0" fill-opacity="0" stroke="black" stroke-width="1" />
<path d="M50.0,-50.0 L30.0,-70.0 L27.0,-73.0" fill-opacity="0" stroke="black" stroke-width="1" />
<path d="M30.0,70.0 L27.0,73.0 L25.0,75.0" fill-opacity="0" stroke="black" stroke-width="1" />
<path d="M30.0,-70.0 L27.0,-73.0 L25.0,-75.0" fill-opacity="0" stroke="black" stroke-width="1" />
<path d="M27.0,73.0 L25.0,75.0 L22.0,78.0" fill-opacity="0" stroke="black" stroke-width="1" />
<path d="M27.0,-73.0 L25.0,-75.0 L22.0,-78.0" fill-opacity="0" stroke="black" stroke-width="1" />
<path d="M25.0,75.0 L22.0,78.0 L12.469041540316598,79.95901416044593" fill-opacity="0" stroke="black" stroke-width="1" />
<path d="M25.0,-75.0 L22.0,-78.0 L12.469041540316598,-79.95901416044593" fill-opacity="0" stroke="black" stroke-width="1" />
<path d="M22.0,-22.0 L20.040985839554068,-12.469041540316598 L15.0,-15.0" fill-opacity="0" stroke="black" stroke-width="1" />
<path d="M22.0,22.0 L20.040985839554068,12.469041540316598 L15.0,15.0" fill-opacity="0" stroke="black" stroke-width="1" />
<path d="M12.469041540316598,79.95901416044593 L15.0,85.0 L13.0,87.0" fill-opacity="0" stroke="black" stroke-width="1" />
<path d="M12.469041540316598,-79.95901416044593 L15.0,-85.0 L13.0,-87.0" fill-opacity="0" stroke="black" stroke-width="1" />
<path d="M15.0,85.0 L13.0,87.0 L3.2211801836982787,95.32660701305144" fill-opacity="0" stroke="black" stroke-width="1" />
<path d="M15.0,-85.0 L13.0,-87.0 L3.2211801836982787,-95.32660701305144" fill-opacity="0" stroke="black" stroke-width="1" />
<path d="M13.0,-13.0 L4.673392986948549,-3.2211801836982787 L4.077485441642159,-0.637209198965729" fill-opacity="0" stroke="black" stroke-width="1" />
<path d="M13.0,13.0 L4.673392986948549,3.2211801836982787 L4.077485441642159,0.637209198965729" fill-opacity="0" stroke="black" stroke-width="1" />
<path d="M4.673392986948549,-3.2211801836982787 L4.077485441642159,-0.637209198965729 L2.2802840963511373,-0.09923938002201829" fill-opacity="0" stroke="black" stroke-width="1" />
<path d="M4.673392986948549,3.2211801836982787 L4.077485441642159,0.637209198965729 L2.2802840963511373,0.09923938002201829" fill-opacity="0" stroke="black" stroke-width="1" />
<path d="M4.077485441642159,-0.637209198965729 L2.2802840963511373,-0.09923938002201829 L0.0,-0.0" fill-opacity="0" stroke="black" stroke-width="1" />
<path d="M4.077485441642159,0.637209198965729 L2.2802840963511373,0.09923938002201829 L0.0,-0.0" fill-opacity="0" stroke="black" stroke-width="1" />
<path d="M0.0,-0.0 L-13.964125169360631,-3.312700749725156 L-15.06175945108036,-3.7081394807713552" fill-opacity="0" stroke="black" stroke-width="1" />
<path d="M0.0,-0.0 L-13.964125169360631,3.312700749725156 L-15.06175945108036,3.7081394807713552" fill-opacity="0" stroke="black" stroke-width="1" />
<path d="M-13.964125169360631,-3.312700749725156 L-15.06175945108036,-3.7081394807713552 L-17.0,-0.0" fill-opacity="0" stroke="black" stroke-width="1" />
<path d="M-13.964125169360631,3.312700749725156 L-15.06175945108036,3.7081394807713552 L-17.0,-0.0" fill-opacity="0" stroke="black" stroke-width="1" />
<path d="M-50.0,-5.0 L-34.314295340720165,-17.761929724864792 L-50.0,-20.0" fill-opacity="0" stroke="black" stroke-width="1" />
<path d="M-50.0,5.0 L-34.314295340720165,17.761929724864792 L-50.0,20.0" fill-opacity="0" stroke="black" stroke-width="1" />
<path d="M-50.0,50.0 L-30.0,70.0 L-27.0,73.0" fill-opacity="0" stroke="black" stroke-width="1" />
<path d="M-50.0,-50.0 L-30.0,-70.0 L-27.0,-73.0" fill-opacity="0" stroke="black" stroke-width="1" />
<path d="M-30.0,70.0 L-27.0,73.0 L-25.0,75.0" fill-opacity="0" stroke="black" stroke-width="1" />
<path d="M-30.0,-70.0 L-27.0,-73.0 L-25.0,-75.0" fill-opacity="0" stroke="black" stroke-width="1" />
<path d="M-27.0,73.0 L-25.0,75.0 L-22.0,78.0" fill-opacity="0" stroke="black" stroke-width="1" />
<path d="M-27.0,-73.0 L-25.0,-75.0 L-22.0,-78.0" fill-opacity="0" stroke="black" stroke-width="1" />
<path d="M-25.0,75.0 L-22.0,78.0 L-12.469041540316598,79.95901416044593" fill-opacity="0" stroke="black" stroke-width="1" />
<path d="M-25.0,-75.0 L-22.0,-78.0 L-12.469041540316598,-79.95901416044593" fill-opacity="0" stroke="black" stroke-width="1" />
<path d="M-22.0,-22.0 L-20.040985839554068,-12.469041540316598 L-15.0,-15.0" fill-opacity="0" stroke="black" stroke-width="1" />
<path d="M-22.0,22.0 L-20.040985839554068,12.469041540316598 L-15.0,15.0" fill-opacity="0" stroke="black" stroke-width="1" />
<path d="M-12.469041540316598,79.95901416044593 L-15.0,85.0 L-13.0,87.0" fill-opacity="0" stroke="black" stroke-width="1" />
<path d="M-12.469041540316598,-79.95901416044593 L-15.0,-85.0 L-13.0,-87.0" fill-opacity="0" stroke="black" stroke-width="1" />
<path d="M-15.0,85.0 L-13.0,87.0 L-3.2211801836982787,95.32660701305144" fill-opacity="0" stroke="black" stroke-width="1" />
<path d="M-15.0,-85.0 L-13.0,-87.0 L-3.2211801836982787,-95.32660701305144" fill-opacity="0" stroke="black" stroke-width="1" />
<path d="M-13.0,-13.0 L-4.673392986948549,-3.2211801836982787 L-4.077485441642159,-0.637209198965729" fill-opacity="0" stroke="black" stroke-width="1" />
<path d="M-13.0,13.0 L-4.673392986948549,3.2211801836982787 L-4.077485441642159,0.637209198965729" fill-opacity="0" stroke="black" stroke-width="1" />
<path d="M-4.673392986948549,-3.2211801836982787 L-4.077485441642159,-0.637209198965729 L-2.2802840963511373,-0.09923938002201829" fill-opacity="0" stroke="black" stroke-width="1" />
<path d="M-4.673392986948549,3.2211801836982787 L-4.077485441642159,0.637209198965729 L-2.2802840963511373,0.09923938002201829" fill-opacity="0" stroke="black" stroke-width="1" />
<path d="M-4.077485441642159,-0.637209198965729 L-2.2802840963511373,-0.09923938002201829 L0.0,-0.0" fill-opacity="0" stroke="black" stroke-width="1" />
<path d="M-4.077485441642159,0.637209198965729 L-2.2802840963511373,0.09923938002201829 L0.0,-0.0" fill-opacity="0" stroke="black" stroke-width="1" />
<path d="M100.0,-0.0 L86.03587483063937,3.312700749725156 L84.93824054891964,3.7081394807713552" fill-opacity="0" stroke="black" stroke-width="1" />
<path d="M100.0,-0.0 L86.03587483063937,-3.312700749725156 L84.93824054891964,-3.7081394807713552" fill-opacity="0" stroke="black" stroke-width="1" />
<path d="M86.03587483063937,3.312700749725156 L84.93824054891964,3.7081394807713552 L83.0,-0.0" fill-opacity="0" stroke="black" stroke-width="1" />
<path d="M86.03587483063937,-3.312700749725156 L84.93824054891964,-3.7081394807713552 L83.0,-0.0" fill-opacity="0" stroke="black" stroke-width="1" />
<path d="M50.0,5.0 L65.68570465927984,17.761929724864792 L50.0,20.0" fill-opacity="0" stroke="black" stroke-width="1" />
<path d="M50.0,-5.0 L65.68570465927984,-17.761929724864792 L50.0,-20.0" fill-opacity="0" stroke="black" stroke-width="1" />
<path d="M50.0,50.0 L70.0,30.0 L73.0,27.0" fill-opacity="0" stroke="black" stroke-width="1" />
<path d="M50.0,-50.0 L70.0,-30.0 L73.0,-27.0" fill-opacity="0" stroke="black" stroke-width="1" />
<path d="M70.0,30.0 L73.0,27.0 L75.0,25.0" fill-opacity="0" stroke="black" stroke-width="1" />
<path d="M70.0,-30.0 L73.0,-27.0 L75.0,-25.0" fill-opacity="0" stroke="black" stroke-width="1" />
<path d="M73.0,27.0 L75.0,25.0 L78.0,22.0" fill-opacity="0" stroke="black" stroke-width="1" />
<path d="M73.0,-27.0 L75.0,-25.0 L78.0,-22.0" fill-opacity="0" stroke="black" stroke-width="1" />
<path d="M75.0,25.0 L78.0,22.0 L79.95901416044593,12.469041540316598" fill-opacity="0" stroke="black" stroke-width="1" />
<path d="M75.0,-25.0 L78.0,-22.0 L79.95901416044593,-12.469041540316598" fill-opacity="0" stroke="black" stroke-width="1" />
<path d="M78.0,22.0 L79.95901416044593,12.469041540316598 L85.0,15.0" fill-opacity="0" stroke="black" stroke-width="1" />
<path d="M78.0,-22.0 L79.95901416044593,-12.469041540316598 L85.0,-15.0" fill-opacity="0" stroke="black" stroke-width="1" />
<path d="M79.95901416044593,12.469041540316598 L85.0,15.0 L87.0,13.0" fill-opacity="0" stroke="black" stroke-width="1" />
<path d="M79.95901416044593,-12.469041540316598 L85.0,-15.0 L87.0,-13.0" fill-opacity="0" stroke="black" stroke-width="1" />
<path d="M85.0,15.0 L87.0,13.0 L95.32660701305144,3.2211801836982787" fill-opacity="0" stroke="black" stroke-width="1" />
<path d="M85.0,-15.0 L87.0,-13.0 L95.32660701305144,-3.2211801836982787" fill-opacity="0" stroke="black" stroke-width="1" />
<path d="M87.0,13.0 L95.32660701305144,3.2211801836982787 L95.92251455835785,0.637209198965729" fill-opacity="0" stroke="black" stroke-width="1" />
<path d="M87.0,-13.0 L95.32660701305144,-3.2211801836982787 L95.92251455835785,-0.637209198965729" fill-opacity="0" stroke="black" stroke-width="1" />
<path d="M95.32660701305144,3.2211801836982787 L95.92251455835785,0.637209198965729 L97.71971590364886,0.09923938002201829" fill-opacity="0" stroke="black" stroke-width="1" />
<path d="M95.32660701305144,-3.2211801836982787 L95.92251455835785,-0.637209198965729 L97.71971590364886,-0.09923938002201829" fill-opacity="0" stroke="black" stroke-width="1" />
<path d="M95.92251455835785,0.637209198965729 L97.71971590364886,0.09923938002201829 L100.0,-0.0" fill-opacity="0" stroke="black" stroke-width="1" />
<path d="M95.92251455835785,-0.637209198965729 L97.71971590364886,-0.09923938002201829 L100.0,-0.0" fill-opacity="0" stroke="black" stroke-width="1" />
<path d="M0.0,-0.0 L3.312700749725156,-13.964125169360631 L3.7081394807713552,-15.06175945108036" fill-opacity="0" stroke="black" stroke-width="1" />
<path d="M0.0,-0.0 L3.312700749725156,13.964125169360631 L3.7081394807713552,15.06175945108036" fill-opacity="0" stroke="black" stroke-width="1" />
<path d="M0.0,100.0 L3.312700749725156,86.03587483063937 L3.7081394807713552,84.93824054891964" fill-opacity="0" stroke="black" stroke-width="1" />
<path d="M0.0,-100.0 L3.312700749725156,-86.03587483063937 L3.7081394807713552,-84.93824054891964" fill-opacity="0" stroke="black" stroke-width="1" />
<path d="M3.312700749725156,-13.964125169360631 L3.7081394807713552,-15.06175945108036 L0.0,-17.0" fill-opacity="0" stroke="black" stroke-width="1" />
<path d="M3.312700749725156,13.964125169360631 L3.7081394807713552,15.06175945108036 L0.0,17.0" fill-opacity="0" stroke="black" stroke-width="1" />
<path d="M3.312700749725156,86.03587483063937 L3.7081394807713552,84.93824054891964 L0.0,83.0" fill-opacity="0" stroke="black" stroke-width="1" />
<path d="M3.312700749725156,-86.03587483063937 L3.7081394807713552,-84.93824054891964 L0.0,-83.0" fill-opacity="0" stroke="black" stroke-width="1" />
<path d="M5.0,-50.0 L17.761929724864792,-34.314295340720165 L20.0,-50.0" fill-opacity="0" stroke="black" stroke-width="1" />
<path d="M5.0,50.0 L17.761929724864792,34.314295340720165 L20.0,50.0" fill-opacity="0" stroke="black" stroke-width="1" />
<path d="M5.0,50.0 L17.761929724864792,65.68570465927984 L20.0,50.0" fill-opacity="0" stroke="black" stroke-width="1" />
<path d="M5.0,-50.0 L17.761929724864792,-65.68570465927984 L20.0,-50.0" fill-opacity="0" stroke="black" stroke-width="1" />
<path d="M22.0,-22.0 L12.469041540316598,-20.040985839554068 L15.0,-15.0" fill-opacity="0" stroke="black" stroke-width="1" />
<path d="M22.0,22.0 L12.469041540316598,20.040985839554068 L15.0,15.0" fill-opacity="0" stroke="black" stroke-width="1" />
<path d="M22.0,78.0 L12.469041540316598,79.95901416044593 L15.0,85.0" fill-opacity="0" stroke="black" stroke-width="1" />
<path d="M22.0,-78.0 L12.469041540316598,-79.95901416044593 L15.0,-85.0" fill-opacity="0" stroke="black" stroke-width="1" />
<path d="M13.0,-13.0 L3.2211801836982787,-4.673392986948549 L0.637209198965729,-4.077485441642159" fill-opacity="0" stroke="black" stroke-width="1" />
<path d="M13.0,13.0 L3.2211801836982787,4.673392986948549 L0.637209198965729,4.077485441642159" fill-opacity="0" stroke="black" stroke-width="1" />
<path d="M13.0,87.0 L3.2211801836982787,95.32660701305144 L0.637209198965729,95.92251455835785" fill-opacity="0" stroke="black" stroke-width="1" />
<path d="M13.0,-87.0 L3.2211801836982787,-95.32660701305144 L0.637209198965729,-95.92251455835785" fill-opacity="0" stroke="black" stroke-width="1" />
<path d="M3.2211801836982787,-4.673392986948549 L0.637209198965729,-4.077485441642159 L0.09923938002201829,-2.2802840963511373" fill-opacity="0" stroke="black" stroke-width="1" />
<path d="M3.2211801836982787,4.673392986948549 L0.637209198965729,4.077485441642159 L0.09923938002201829,2.2802840963511373" fill-opacity="0" stroke="black" stroke-width="1" />
<path d="M3.2211801836982787,95.32660701305144 L0.637209198965729,95.92251455835785 L0.09923938002201829,97.71971590364886" fill-opacity="0" stroke="black" stroke-width="1" />
<path d="M3.2211801836982787,-95.32660701305144 L0.637209198965729,-95.92251455835785 L0.09923938002201829,-97.71971590364886" fill-opacity="0" stroke="black" stroke-width="1" />
<path d="M0.637209198965729,-4.077485441642159 L0.09923938002201829,-2.2802840963511373 L0.0,-0.0" fill-opacity="0" stroke="black" stroke-width="1" />
<path d="M0.637209198965729,4.077485441642159 L0.09923938002201829,2.2802840963511373 L0.0,-0.0" fill-opacity="0" stroke="black" stroke-width="1" />
<path d="M0.637209198965729,95.92251455835785 L0.09923938002201829,97.71971590364886 L0.0,100.0" fill-opacity="0" stroke="black" stroke-width="1" />
<path d="M0.637209198965729,-95.92251455835785 L0.09923938002201829,-97.71971590364886 L0.0,-100.0" fill-opacity="0" stroke="black" stroke-width="1" />
<path d="M0.0,100.0 L-3.312700749725156,86.03587483063937 L-3.7081394807713552,84.93824054891964" fill-opacity="0" stroke="black" stroke-width="1" />
<path d="M0.0,-0.0 L-3.312700749725156,-13.964125169360631 L-3.7081394807713552,-15.06175945108036" fill-opacity="0" stroke="black" stroke-width="1" />
<path d="M0.0,-0.0 L-3.312700749725156,13.964125169360628 L-3.7081394807713552,15.061759451080363" fill-opacity="0" stroke="black" stroke-width="1" />
<path d="M0.0,-100.0 L-3.312700749725156,-86.03587483063937 L-3.7081394807713552,-84.93824054891964" fill-opacity="0" stroke="black" stroke-width="1" />
<path d="M-3.312700749725156,86.03587483063937 L-3.7081394807713552,84.93824054891964 L0.0,83.0" fill-opacity="0" stroke="black" stroke-width="1" />
<path d="M-3.312700749725156,-13.964125169360631 L-3.7081394807713552,-15.06175945108036 L0.0,-17.0" fill-opacity="0" stroke="black" stroke-width="1" />
<path d="M-3.312700749725156,13.964125169360628 L-3.7081394807713552,15.061759451080363 L0.0,17.0" fill-opacity="0" stroke="black" stroke-width="1" />
<path d="M-3.312700749725156,-86.03587483063937 L-3.7081394807713552,-84.93824054891964 L0.0,-83.0" fill-opacity="0" stroke="black" stroke-width="1" />
<path d="M-5.0,50.0 L-17.761929724864792,65.68570465927984 L-20.0,50.0" fill-opacity="0" stroke="black" stroke-width="1" />
<path d="M-5.0,-50.0 L-17.761929724864792,-34.314295340720165 L-20.0,-50.0" fill-opacity="0" stroke="black" stroke-width="1" />
<path d="M-5.0,50.0 L-17.761929724864792,34.314295340720165 L-20.0,50.0" fill-opacity="0" stroke="black" stroke-width="1" />
<path d="M-5.0,-50.0 L-17.761929724864792,-65.68570465927984 L-20.0,-50.0" fill-opacity="0" stroke="black" stroke-width="1" />
<path d="M-22.0,78.0 L-12.469041540316598,79.95901416044593 L-15.0,85.0" fill-opacity="0" stroke="black" stroke-width="1" />
<path d="M-22.0,-22.0 L-12.469041540316598,-20.040985839554068 L-15.0,-15.0" fill-opacity="0" stroke="black" stroke-width="1" />
<path d="M-22.0,22.0 L-12.469041540316598,20.040985839554068 L-15.0,15.0" fill-opacity="0" stroke="black" stroke-width="1" />
<path d="M-22.0,-78.0 L-12.469041540316598,-79.95901416044593 L-15.0,-85.0" fill-opacity="0" stroke="black" stroke-width="1" />
<path d="M-13.0,87.0 L-3.2211801836982787,95.32660701305144 L-0.637209198965729,95.92251455835785" fill-opacity="0" stroke="black" stroke-width="1" />
<path d="M-13.0,-13.0 L-3.2211801836982787,-4.673392986948549 L-0.637209198965729,-4.077485441642159" fill-opacity="0" stroke="black" stroke-width="1" />
<path d="M-13.0,13.0 L-3.2211801836982787,4.673392986948556 L-0.637209198965729,4.077485441642153" fill-opacity="0" stroke="black" stroke-width="1" />
<path d="M-13.0,-87.0 L-3.2211801836982787,-95.32660701305144 L-0.637209198965729,-95.92251455835785" fill-opacity="0" stroke="black" stroke-width="1" />
<path d="M-3.2211801836982787,95.32660701305144 L-0.637209198965729,95.92251455835785 L-0.09923938002201829,97.71971590364886" fill-opacity="0" stroke="black" stroke-width="1" />
<path d="M-3.2211801836982787,-4.673392986948549 L-0.637209198965729,-4.077485441642159 L-0.09923938002201829,-2.2802840963511373" fill-opacity="0" stroke="black" stroke-width="1" />
<path d="M-3.2211801836982787,4.673392986948556 L-0.637209198965729,4.077485441642153 L-0.09923938002201829,2.2802840963511386" fill-opacity="0" stroke="black" stroke-width="1" />
<path d="M-3.2211801836982787,-95.32660701305144 L-0.637209198965729,-95.92251455835785 L-0.09923938002201829,-97.71971590364886" fill-opacity="0" stroke="black" stroke-width="1" />
<path d="M-0.637209198965729,95.92251455835785 L-0.09923938002201829,97.71971590364886 L0.0,100.0" fill-opacity="0" stroke="black" stroke-width="1" />
<path d="M-0.637209198965729,-4.077485441642159 L-0.09923938002201829,-2.2802840963511373 L0.0,-0.0" fill-opacity="0" stroke="black" stroke-width="1" />
<path d="M-0.637209198965729,4.077485441642153 L-0.09923938002201829,2.2802840963511386 L0.0,-0.0" fill-opacity="0" stroke="black" stroke-width="1" />
<path d="M-0.637209198965729,-95.92251455835785 L-0.09923938002201829,-97.71971590364886 L0.0,-100.0" fill-opacity="0" stroke="black" stroke-width="1" />
<path d="M-100.0,-0.0 L-86.03587483063937,-3.312700749725156 L-84.93824054891964,-3.7081394807713552" fill-opacity="0" stroke="black" stroke-width="1" />
<path d="M-100.0,-0.0 L-86.03587483063937,3.312700749725156 L-84.93824054891964,3.7081394807713552" fill-opacity="0" stroke="black" stroke-width="1" />
<path d="M-86.03587483063937,-3.312700749725156 L-84.93824054891964,-3.7081394807713552 L-83.0,-0.0" fill-opacity="0" stroke="black" stroke-width="1" />
<path d="M-86.03587483063937,3.312700749725156 L-84.93824054891964,3.7081394807713552 L-83.0,-0.0" fill-opacity="0" stroke="black" stroke-width="1" />
<path d="M-50.0,-5.0 L-65.68570465927984,-17.761929724864792 L-50.0,-20.0" fill-opacity="0" stroke="black" stroke-width="1" />
<path d="M-50.0,5.0 L-65.68570465927984,17.761929724864792 L-50.0,20.0" fill-opacity="0" stroke="black" stroke-width="1" />
<path d="M-50.0,-50.0 L-70.0,-30.0 L-73.0,-27.0" fill-opacity="0" stroke="black" stroke-width="1" />
<path d="M-50.0,50.0 L-70.0,30.0 L-73.0,27.0" fill-opacity="0" stroke="black" stroke-width="1" />
<path d="M-70.0,-30.0 L-73.0,-27.0 L-75.0,-25.0" fill-opacity="0" stroke="black" stroke-width="1" />
<path d="M-70.0,30.0 L-73.0,27.0 L-75.0,25.0" fill-opacity="0" stroke="black" stroke-width="1" />
<path d="M-73.0,-27.0 L-75.0,-25.0 L-78.0,-22.0" fill-opacity="0" stroke="black" stroke-width="1" />
<path d="M-73.0,27.0 L-75.0,25.0 L-78.0,22.0" fill-opacity="0" stroke="black" stroke-width="1" />
<path d="M-75.0,-25.0 L-78.0,-22.0 L-79.95901416044593,-12.469041540316598" fill-opacity="0" stroke="black" stroke-width="1" />
<path d="M-75.0,25.0 L-78.0,22.0 L-79.95901416044593,12.469041540316598" fill-opacity="0" stroke="black" stroke-width="1" />
<path d="M-78.0,-22.0 L-79.95901416044593,-12.469041540316598 L-85.0,-15.0" fill-opacity="0" stroke="black" stroke-width="1" />
<path d="M-78.0,22.0 L-79.95901416044593,12.469041540316598 L-85.0,15.0" fill-opacity="0" stroke="black" stroke-width="1" />
<path d="M-79.95901416044593,-12.469041540316598 L-85.0,-15.0 L-87.0,-13.0" fill-opacity="0" stroke="black" stroke-width="1" />
<path d="M-79.95901416044593,12.469041540316598 L-85.0,15.0 L-87.0,13.0" fill-opacity="0" stroke="black" stroke-width="1" />
<path d="M-85.0,-15.0 L-87.0,-13.0 L-95.32660701305144,-3.2211801836982787" fill-opacity="0" stroke="black" stroke-width="1" />
<path d="M-85.0,15.0 L-87.0,13.0 L-95.32660701305144,3.2211801836982787" fill-opacity="0" stroke="black" stroke-width="1" />
<path d="M-87.0,-13.0 L-95.32660701305144,-3.2211801836982787 L-95.92251455835785,-0.637209198965729" fill-opacity="0" stroke="black" stroke-width="1" />
<path d="M-87.0,13.0 L-95.32660701305144,3.2211801836982787 L-95.92251455835785,0.637209198965729" fill-opacity="0" stroke="black" stroke-width="1" />
<path d="M-95.32660701305144,-3.2211801836982787 L-95.92251455835785,-0.637209198965729 L-97.71971590364886,-0.09923938002201829" fill-opacity="0" stroke="black" stroke-width="1" />
<path d="M-95.32660701305144,3.2211801836982787 L-95.92251455835785,0.637209198965729 L-97.71971590364886,0.09923938002201829" fill-opacity="0" stroke="black" stroke-width="1" />
<path d="M-95.92251455835785,-0.637209198965729 L-97.71971590364886,-0.09923938002201829 L-100.0,-0.0" fill-opacity="0" stroke="black" stroke-width="1" />
<path d="M-95.92251455835785,0.637209198965729 L-97.71971590364886,0.09923938002201829 L-100.0,-0.0" fill-opacity="0" stroke="black" stroke-width="1" />
</svg>