<?xml version="1.0" encoding="UTF-8"?>
<svg xmlns="http://www.w3.org/2000/svg" xmlns:xlink="http://www.w3.org/1999/xlink"
     width="250" height="250" viewBox="-125.0 -125.0 250 250">
<defs>
</defs>
<path d="M8.0,-0.0 L14.725154105165739,-4.887133615032384 L14.822207788601789,-5.560488780425931" fill-opacity="0" stroke="black" stroke-width="1" />
<path d="M8.0,-0.0 L14.725154105165739,4.887133615032384 L14.822207788601789,5.560488780425931" fill-opacity="0" stroke="black" stroke-width="1" />
<path d="M14.725154105165739,-4.887133615032384 L14.822207788601789,-5.560488780425931 L25.0,-0.0" fill-opacity="0" stroke="black" stroke-width="1" />
<path d="M14.725154105165739,4.887133615032384 L14.822207788601789,5.560488780425931 L25.0,-0.0" fill-opacity="0" stroke="black" stroke-width="1" />
<path d="M43.0,57.0 L26.0,74.0 L11.589646689526559,81.44370231570694" fill-opacity="0" stroke="black" stroke-width="1" />
<path d="M43.0,-57.0 L26.0,-74.0 L11.589646689526559,-81.44370231570694" fill-opacity="0" stroke="black" stroke-width="1" />
<path d="M26.0,-0.0 L28.29809944467957,-13.49027886524216 L28.55425933880354,-14.170976207384193" fill-opacity="0" stroke="black" stroke-width="1" />
<path d="M26.0,-0.0 L28.29809944467957,13.49027886524216 L28.55425933880354,14.170976207384193" fill-opacity="0" stroke="black" stroke-width="1" />
<path d="M28.29809944467957,-13.49027886524216 L28.55425933880354,-14.170976207384193 L35.0,-0.0" fill-opacity="0" stroke="black" stroke-width="1" />
<path d="M28.29809944467957,13.49027886524216 L28.55425933880354,14.170976207384193 L35.0,-0.0" fill-opacity="0" stroke="black" stroke-width="1" />
<path d="M50.0,-11.0 L34.58385690568313,-23.314187511602697 L50.0,-25.0" fill-opacity="0" stroke="black" stroke-width="1" />
<path d="M50.0,11.0 L34.58385690568313,23.314187511602697 L50.0,25.0" fill-opacity="0" stroke="black" stroke-width="1" />
<path d="M50.0,-25.0 L43.32617501461111,-28.17385518579879 L48.21273120631874,-34.800298732881465" fill-opacity="0" stroke="black" stroke-width="1" />
<path d="M50.0,25.0 L43.32617501461111,28.17385518579879 L48.21273120631874,34.800298732881465" fill-opacity="0" stroke="black" stroke-width="1" />
<path d="M43.32617501461111,-28.17385518579879 L48.21273120631874,-34.800298732881465 L50.0,-50.0" fill-opacity="0" stroke="black" stroke-width="1" />
<path d="M43.32617501461111,28.17385518579879 L48.21273120631874,34.800298732881465 L50.0,50.0" fill-opacity="0" stroke="black" stroke-width="1" />
<path d="M50.0,50.0 L43.0,57.0 L26.0,74.0" fill-opacity="0" stroke="black" stroke-width="1" />
<path d="M50.0,-50.0 L43.0,-57.0 L26.0,-74.0" fill-opacity="0" stroke="black" stroke-width="1" />
<path d="M26.0,-26.0 L18.55629768429306,-11.589646689526559 L14.0,-14.0" fill-opacity="0" stroke="black" stroke-width="1" />
<path d="M26.0,26.0 L18.55629768429306,11.589646689526559 L14.0,14.0" fill-opacity="0" stroke="black" stroke-width="1" />
<path d="M14.0,-14.0 L9.114278162530626,-4.30068850088062 L7.0,-7.0" fill-opacity="0" stroke="black" stroke-width="1" />
<path d="M14.0,14.0 L9.114278162530626,4.30068850088062 L7.0,7.0" fill-opacity="0" stroke="black" stroke-width="1" />
<path d="M4.30068850088062,90.88572183746938 L7.0,93.0 L3.5585333026273562,93.77976653490185" fill-opacity="0" stroke="black" stroke-width="1" />
<path d="M4.30068850088062,-90.88572183746938 L7.0,-93.0 L3.5585333026273562,-93.77976653490185" fill-opacity="0" stroke="black" stroke-width="1" />
<path d="M7.0,-7.0 L6.2202334650981514,-3.5585333026273562 L0.0,-0.0" fill-opacity="0" stroke="black" stroke-width="1" />
<path d="M7.0,7.0 L6.2202334650981514,3.5585333026273562 L0.0,-0.0" fill-opacity="0" stroke="black" stroke-width="1" />
<path d="M-8.0,-0.0 L-14.725154105165739,-4.887133615032384 L-14.822207788601789,-5.560488780425931" fill-opacity="0" stroke="black" stroke-width="1" />
<path d="M-8.0,-0.0 L-14.725154105165739,4.887133615032384 L-14.822207788601789,5.560488780425931" fill-opacity="0" stroke="black" stroke-width="1" />
<path d="M-14.725154105165739,-4.887133615032384 L-14.822207788601789,-5.560488780425931 L-25.0,-0.0" fill-opacity="0" stroke="black" stroke-width="1" />
<path d="M-14.725154105165739,4.887133615032384 L-14.822207788601789,5.560488780425931 L-25.0,-0.0" fill-opacity="0" stroke="black" stroke-width="1" />
<path d="M-43.0,57.0 L-26.0,74.0 L-11.589646689526559,81.44370231570694" fill-opacity="0" stroke="black" stroke-width="1" />
<path d="M-43.0,-57.0 L-26.0,-74.0 L-11.589646689526559,-81.44370231570694" fill-opacity="0" stroke="black" stroke-width="1" />
<path d="M-26.0,-0.0 L-28.29809944467957,-13.49027886524216 L-28.55425933880354,-14.170976207384193" fill-opacity="0" stroke="black" stroke-width="1" />
<path d="M-26.0,-0.0 L-28.29809944467957,13.49027886524216 L-28.55425933880354,14.170976207384193" fill-opacity="0" stroke="black" stroke-width="1" />
<path d="M-28.29809944467957,-13.49027886524216 L-28.55425933880354,-14.170976207384193 L-35.0,-0.0" fill-opacity="0" stroke="black" stroke-width="1" />
<path d="M-28.29809944467957,13.49027886524216 L-28.55425933880354,14.170976207384193 L-35.0,-0.0" fill-opacity="0" stroke="black" stroke-width="1" />
<path d="M-50.0,-11.0 L-34.58385690568313,-23.314187511602697 L-50.0,-25.0" fill-opacity="0" stroke="black" stroke-width="1" />
<path d="M-50.0,11.0 L-34.58385690568313,23.314187511602697 L-50.0,25.0" fill-opacity="0" stroke="black" stroke-width="1" />
<path d="M-50.0,-25.0 L-43.32617501461111,-28.17385518579879 L-48.21273120631874,-34.800298732881465" fill-opacity="0" stroke="black" stroke-width="1" />
<path d="M-50.0,25.0 L-43.32617501461111,28.17385518579879 L-48.21273120631874,34.800298732881465" fill-opacity="0" stroke="black" stroke-width="1" />
<path d="M-43.32617501461111,-28.17385518579879 L-48.21273120631874,-34.800298732881465 L-50.0,-50.0" fill-opacity="0" stroke="black" stroke-width="1" />
<path d="M-43.32617501461111,28.17385518579879 L-48.21273120631874,34.800298732881465 L-50.0,50.0" fill-opacity="0" stroke="black" stroke-width="1" />
<path d="M-50.0,50.0 L-43.0,57.0 L-26.0,74.0" fill-opacity="0" stroke="black" stroke-width="1" />
<path d="M-50.0,-50.0 L-43.0,-57.0 L-26.0,-74.0" fill-opacity="0" stroke="black" stroke-width="1" />
<path d="M-26.0,-26.0 L-18.55629768429306,-11.589646689526559 L-14.0,-14.0" fill-opacity="0" stroke="black" stroke-width="1" />
<path d="M-26.0,26.0 L-18.55629768429306,11.589646689526559 L-14.0,14.0" fill-opacity="0" stroke="black" stroke-width="1" />
<path d="M-14.0,-14.0 L-9.114278162530626,-4.30068850088062 L-7.0,-7.0" fill-opacity="0" stroke="black" stroke-width="1" />
<path d="M-14.0,14.0 L-9.114278162530626,4.30068850088062 L-7.0,7.0" fill-opacity="0" stroke="black" stroke-width="1" />
<path d="M-4.30068850088062,90.88572183746938 L-7.0,93.0 L-3.5585333026273562,93.77976653490185" fill-opacity="0" stroke="black" stroke-width="1" />
<path d="M-4.30068850088062,-90.88572183746938 L-7.0,-93.0 L-3.5585333026273562,-93.77976653490185" fill-opacity="0" stroke="black" stroke-width="1" />
<path d="M-7.0,-7.0 L-6.2202334650981514,-3.5585333026273562 L0.0,-0.0" fill-opacity="0" stroke="black" stroke-width="1" />
<path d="M-7.0,7.0 L-6.2202334650981514,3.5585333026273562 L0.0,-0.0" fill-opacity="0" stroke="black" stroke-width="1" />
<path d="M92.0,-0.0 L85.27484589483426,4.887133615032384 L85.17779221139821,5.560488780425931" fill-opacity="0" stroke="black" stroke-width="1" />
<path d="M92.0,-0.0 L85.27484589483426,-4.887133615032384 L85.17779221139821,-5.560488780425931" fill-opacity="0" stroke="black" stroke-width="1" />
<path d="M85.27484589483426,4.887133615032384 L85.17779221139821,5.560488780425931 L75.0,-0.0" fill-opacity="0" stroke="black" stroke-width="1" />
<path d="M85.27484589483426,-4.887133615032384 L85.17779221139821,-5.560488780425931 L75.0,-0.0" fill-opacity="0" stroke="black" stroke-width="1" />
<path d="M57.0,43.0 L74.0,26.0 L81.44370231570694,11.589646689526559" fill-opacity="0" stroke="black" stroke-width="1" />
<path d="M57.0,-43.0 L74.0,-26.0 L81.44370231570694,-11.589646689526559" fill-opacity="0" stroke="black" stroke-width="1" />
<path d="M74.0,-0.0 L71.70190055532044,13.49027886524216 L71.44574066119645,14.170976207384193" fill-opacity="0" stroke="black" stroke-width="1" />
<path d="M74.0,-0.0 L71.70190055532044,-13.49027886524216 L71.44574066119645,-14.170976207384193" fill-opacity="0" stroke="black" stroke-width="1" />
<path d="M71.70190055532044,13.49027886524216 L71.44574066119645,14.170976207384193 L65.0,-0.0" fill-opacity="0" stroke="black" stroke-width="1" />
<path d="M71.70190055532044,-13.49027886524216 L71.44574066119645,-14.170976207384193 L65.0,-0.0" fill-opacity="0" stroke="black" stroke-width="1" />
<path d="M50.0,11.0 L65.41614309431688,23.314187511602697 L50.0,25.0" fill-opacity="0" stroke="black" stroke-width="1" />
<path d="M50.0,-11.0 L65.41614309431688,-23.314187511602697 L50.0,-25.0" fill-opacity="0" stroke="black" stroke-width="1" />
<path d="M50.0,25.0 L56.67382498538889,28.17385518579879 L51.78726879368126,34.800298732881465" fill-opacity="0" stroke="black" stroke-width="1" />
<path d="M50.0,-25.0 L56.67382498538889,-28.17385518579879 L51.78726879368126,-34.800298732881465" fill-opacity="0" stroke="black" stroke-width="1" />
<path d="M56.67382498538889,28.17385518579879 L51.78726879368126,34.800298732881465 L50.0,50.0" fill-opacity="0" stroke="black" stroke-width="1" />
<path d="M56.67382498538889,-28.17385518579879 L51.78726879368126,-34.800298732881465 L50.0,-50.0" fill-opacity="0" stroke="black" stroke-width="1" />
<path d="M50.0,50.0 L57.0,43.0 L74.0,26.0" fill-opacity="0" stroke="black" stroke-width="1" />
<path d="M50.0,-50.0 L57.0,-43.0 L74.0,-26.0" fill-opacity="0" stroke="black" stroke-width="1" />
<path d="M74.0,26.0 L81.44370231570694,11.589646689526559 L86.0,14.0" fill-opacity="0" stroke="black" stroke-width="1" />
<path d="M74.0,-26.0 L81.44370231570694,-11.589646689526559 L86.0,-14.0" fill-opacity="0" stroke="black" stroke-width="1" />
<path d="M86.0,14.0 L90.88572183746938,4.30068850088062 L93.0,7.0" fill-opacity="0" stroke="black" stroke-width="1" />
<path d="M86.0,-14.0 L90.88572183746938,-4.30068850088062 L93.0,-7.0" fill-opacity="0" stroke="black" stroke-width="1" />
<path d="M90.88572183746938,4.30068850088062 L93.0,7.0 L93.77976653490185,3.5585333026273562" fill-opacity="0" stroke="black" stroke-width="1" />
<path d="M90.88572183746938,-4.30068850088062 L93.0,-7.0 L93.77976653490185,-3.5585333026273562" fill-opacity="0" stroke="black" stroke-width="1" />
<path d="M93.0,7.0 L93.77976653490185,3.5585333026273562 L100.0,-0.0" fill-opacity="0" stroke="black" stroke-width="1" />
<path d="M93.0,-7.0 L93.77976653490185,-3.5585333026273562 L100.0,-0.0" fill-opacity="0" stroke="black" stroke-width="1" />
<path d="M0.0,-8.0 L4.887133615032384,-14.725154105165739 L5.560488780425931,-14.822207788601789" fill-opacity="0" stroke="black" stroke-width="1" />
<path d="M0.0,8.0 L4.887133615032384,14.725154105165739 L5.560488780425931,14.822207788601789" fill-opacity="0" stroke="black" stroke-width="1" />
<path d="M0.0,92.0 L4.887133615032384,85.27484589483426 L5.560488780425931,85.17779221139821" fill-opacity="0" stroke="black" stroke-width="1" />
<path d="M0.0,-92.0 L4.887133615032384,-85.27484589483426 L5.560488780425931,-85.17779221139821" fill-opacity="0" stroke="black" stroke-width="1" />
<path d="M4.887133615032384,-14.725154105165739 L5.560488780425931,-14.822207788601789 L0.0,-25.0" fill-opacity="0" stroke="black" stroke-width="1" />
<path d="M4.887133615032384,14.725154105165739 L5.560488780425931,14.822207788601789 L0.0,25.0" fill-opacity="0" stroke="black" stroke-width="1" />
<path d="M4.887133615032384,85.27484589483426 L5.560488780425931,85.17779221139821 L0.0,75.0" fill-opacity="0" stroke="black" stroke-width="1" />
<path d="M4.887133615032384,-85.27484589483426 L5.560488780425931,-85.17779221139821 L0.0,-75.0" fill-opacity="0" stroke="black" stroke-width="1" />
<path d="M0.0,-26.0 L13.49027886524216,-28.29809944467957 L14.170976207384193,-28.55425933880354" fill-opacity="0" stroke="black" stroke-width="1" />
<path d="M0.0,26.0 L13.49027886524216,28.29809944467957 L14.170976207384193,28.55425933880354" fill-opacity="0" stroke="black" stroke-width="1" />
<path d="M0.0,74.0 L13.49027886524216,71.70190055532044 L14.170976207384193,71.44574066119645" fill-opacity="0" stroke="black" stroke-width="1" />
<path d="M0.0,-74.0 L13.49027886524216,-71.70190055532044 L14.170976207384193,-71.44574066119645" fill-opacity="0" stroke="black" stroke-width="1" />
<path d="M13.49027886524216,-28.29809944467957 L14.170976207384193,-28.55425933880354 L0.0,-35.0" fill-opacity="0" stroke="black" stroke-width="1" />
<path d="M13.49027886524216,28.29809944467957 L14.170976207384193,28.55425933880354 L0.0,35.0" fill-opacity="0" stroke="black" stroke-width="1" />
<path d="M13.49027886524216,71.70190055532044 L14.170976207384193,71.44574066119645 L0.0,65.0" fill-opacity="0" stroke="black" stroke-width="1" />
<path d="M13.49027886524216,-71.70190055532044 L14.170976207384193,-71.44574066119645 L0.0,-65.0" fill-opacity="0" stroke="black" stroke-width="1" />
<path d="M11.0,-50.0 L23.314187511602697,-34.58385690568313 L25.0,-50.0" fill-opacity="0" stroke="black" stroke-width="1" />
<path d="M11.0,50.0 L23.314187511602697,34.58385690568313 L25.0,50.0" fill-opacity="0" stroke="black" stroke-width="1" />
<path d="M11.0,50.0 L23.314187511602697,65.41614309431688 L25.0,50.0" fill-opacity="0" stroke="black" stroke-width="1" />
<path d="M11.0,-50.0 L23.314187511602697,-65.41614309431688 L25.0,-50.0" fill-opacity="0" stroke="black" stroke-width="1" />
<path d="M25.0,-50.0 L28.17385518579879,-43.32617501461111 L34.800298732881465,-48.21273120631874" fill-opacity="0" stroke="black" stroke-width="1" />
<path d="M25.0,50.0 L28.17385518579879,43.32617501461111 L34.800298732881465,48.21273120631874" fill-opacity="0" stroke="black" stroke-width="1" />
<path d="M25.0,50.0 L28.17385518579879,56.67382498538889 L34.800298732881465,51.78726879368126" fill-opacity="0" stroke="black" stroke-width="1" />
<path d="M25.0,-50.0 L28.17385518579879,-56.67382498538889 L34.800298732881465,-51.78726879368126" fill-opacity="0" stroke="black" stroke-width="1" />
<path d="M28.17385518579879,-43.32617501461111 L34.800298732881465,-48.21273120631874 L50.0,-50.0" fill-opacity="0" stroke="black" stroke-width="1" />
<path d="M28.17385518579879,43.32617501461111 L34.800298732881465,48.21273120631874 L50.0,50.0" fill-opacity="0" stroke="black" stroke-width="1" />
<path d="M28.17385518579879,56.67382498538889 L34.800298732881465,51.78726879368126 L50.0,50.0" fill-opacity="0" stroke="black" stroke-width="1" />
<path d="M28.17385518579879,-56.67382498538889 L34.800298732881465,-51.78726879368126 L50.0,-50.0" fill-opacity="0" stroke="black" stroke-width="1" />
<path d="M26.0,-26.0 L11.589646689526559,-18.55629768429306 L14.0,-14.0" fill-opacity="0" stroke="black" stroke-width="1" />
<path d="M26.0,26.0 L11.589646689526559,18.55629768429306 L14.0,14.0" fill-opacity="0" stroke="black" stroke-width="1" />
<path d="M26.0,74.0 L11.589646689526559,81.44370231570694 L14.0,86.0" fill-opacity="0" stroke="black" stroke-width="1" />
<path d="M26.0,-74.0 L11.589646689526559,-81.44370231570694 L14.0,-86.0" fill-opacity="0" stroke="black" stroke-width="1" />
<path d="M14.0,-14.0 L4.30068850088062,-9.114278162530626 L7.0,-7.0" fill-opacity="0" stroke="black" stroke-width="1" />
<path d="M14.0,14.0 L4.30068850088062,9.114278162530626 L7.0,7.0" fill-opacity="0" stroke="black" stroke-width="1" />
<path d="M14.0,86.0 L4.30068850088062,90.88572183746938 L7.0,93.0" fill-opacity="0" stroke="black" stroke-width="1" />
<path d="M14.0,-86.0 L4.30068850088062,-90.88572183746938 L7.0,-93.0" fill-opacity="0" stroke="black" stroke-width="1" />
<path d="M7.0,-7.0 L3.5585333026273562,-6.2202334650981514 L0.0,-0.0" fill-opacity="0" stroke="black" stroke-width="1" />
<path d="M7.0,7.0 L3.5585333026273562,6.2202334650981514 L0.0,-0.0" fill-opacity="0" stroke="black" stroke-width="1" />
<path d="M7.0,93.0 L3.5585333026273562,93.77976653490185 L0.0,100.0" fill-opacity="0" stroke="black" stroke-width="1" />
<path d="M7.0,-93.0 L3.5585333026273562,-93.77976653490185 L0.0,-100.0" fill-opacity="0" stroke="black" stroke-width="1" />
<path d="M0.0,92.0 L-4.887133615032384,85.27484589483426 L-5.560488780425931,85.17779221139821" fill-opacity="0" stroke="black" stroke-width="1" />
<path d="M0.0,-8.0 L-4.887133615032384,-14.725154105165739 L-5.560488780425931,-14.822207788601789" fill-opacity="0" stroke="black" stroke-width="1" />
<path d="M0.0,8.0 L-4.887133615032384,14.725154105165743 L-5.560488780425931,14.822207788601787" fill-opacity="0" stroke="black" stroke-width="1" />
<path d="M0.0,-92.0 L-4.887133615032384,-85.27484589483426 L-5.560488780425931,-85.17779221139821" fill-opacity="0" stroke="black" stroke-width="1" />
<path d="M-4.887133615032384,85.27484589483426 L-5.560488780425931,85.17779221139821 L0.0,75.0" fill-opacity="0" stroke="black" stroke-width="1" />
<path d="M-4.887133615032384,-14.725154105165739 L-5.560488780425931,-14.822207788601789 L0.0,-25.0" fill-opacity="0" stroke="black" stroke-width="1" />
<path d="M-4.887133615032384,14.725154105165743 L-5.560488780425931,14.822207788601787 L0.0,25.0" fill-opacity="0" stroke="black" stroke-width="1" />
<path d="M-4.887133615032384,-85.27484589483426 L-5.560488780425931,-85.17779221139821 L0.0,-75.0" fill-opacity="0" stroke="black" stroke-width="1" />
<path d="M0.0,74.0 L-13.49027886524216,71.70190055532044 L-14.170976207384193,71.44574066119645" fill-opacity="0" stroke="black" stroke-width="1" />
<path d="M0.0,-26.0 L-13.49027886524216,-28.29809944467957 L-14.170976207384193,-28.55425933880354" fill-opacity="0" stroke="black" stroke-width="1" />
<path d="M0.0,26.0 L-13.49027886524216,28.298099444679565 L-14.170976207384193,28.554259338803547" fill-opacity="0" stroke="black" stroke-width="1" />
<path d="M0.0,-74.0 L-13.49027886524216,-71.70190055532044 L-14.170976207384193,-71.44574066119645" fill-opacity="0" stroke="black" stroke-width="1" />
<path d="M-13.49027886524216,71.70190055532044 L-14.170976207384193,71.44574066119645 L0.0,65.0" fill-opacity="0" stroke="black" stroke-width="1" />
<path d="M-13.49027886524216,-28.29809944467957 L-14.170976207384193,-28.55425933880354 L0.0,-35.0" fill-opacity="0" stroke="black" stroke-width="1" />
<path d="M-13.49027886524216,28.298099444679565 L-14.170976207384193,28.554259338803547 L0.0,35.0" fill-opacity="0" stroke="black" stroke-width="1" />
<path d="M-13.49027886524216,-71.70190055532044 L-14.170976207384193,-71.44574066119645 L0.0,-65.0" fill-opacity="0" stroke="black" stroke-width="1" />
<path d="M-11.0,50.0 L-23.314187511602697,65.41614309431688 L-25.0,50.0" fill-opacity="0" stroke="black" stroke-width="1" />
<path d="M-11.0,-50.0 L-23.314187511602697,-34.58385690568313 L-25.0,-50.0" fill-opacity="0" stroke="black" stroke-width="1" />
<path d="M-11.0,50.0 L-23.314187511602697,34.58385690568312 L-25.0,50.0" fill-opacity="0" stroke="black" stroke-width="1" />
<path d="M-11.0,-50.0 L-23.314187511602697,-65.41614309431688 L-25.0,-50.0" fill-opacity="0" stroke="black" stroke-width="1" />
<path d="M-25.0,50.0 L-28.17385518579879,56.67382498538889 L-34.800298732881465,51.78726879368126" fill-opacity="0" stroke="black" stroke-width="1" />
<path d="M-25.0,-50.0 L-28.17385518579879,-43.32617501461111 L-34.800298732881465,-48.21273120631874" fill-opacity="0" stroke="black" stroke-width="1" />
<path d="M-25.0,50.0 L-28.17385518579879,43.32617501461111 L-34.800298732881465,48.21273120631874" fill-opacity="0" stroke="black" stroke-width="1" />
<path d="M-25.0,-50.0 L-28.17385518579879,-56.67382498538889 L-34.800298732881465,-51.78726879368126" fill-opacity="0" stroke="black" stroke-width="1" />
<path d="M-28.17385518579879,56.67382498538889 L-34.800298732881465,51.78726879368126 L-50.0,50.0" fill-opacity="0" stroke="black" stroke-width="1" />
<path d="M-28.17385518579879,-43.32617501461111 L-34.800298732881465,-48.21273120631874 L-50.0,-50.0" fill-opacity="0" stroke="black" stroke-width="1" />
<path d="M-28.17385518579879,43.32617501461111 L-34.800298732881465,48.21273120631874 L-50.0,50.0" fill-opacity="0" stroke="black" stroke-width="1" />
<path d="M-28.17385518579879,-56.67382498538889 L-34.800298732881465,-51.78726879368126 L-50.0,-50.0" fill-opacity="0" stroke="black" stroke-width="1" />
<path d="M-26.0,74.0 L-11.589646689526559,81.44370231570694 L-14.0,86.0" fill-opacity="0" stroke="black" stroke-width="1" />
<path d="M-26.0,-26.0 L-11.589646689526559,-18.55629768429306 L-14.0,-14.0" fill-opacity="0" stroke="black" stroke-width="1" />
<path d="M-26.0,26.0 L-11.589646689526559,18.556297684293057 L-14.0,14.0" fill-opacity="0" stroke="black" stroke-width="1" />
<path d="M-26.0,-74.0 L-11.589646689526559,-81.44370231570694 L-14.0,-86.0" fill-opacity="0" stroke="black" stroke-width="1" />
<path d="M-14.0,86.0 L-4.30068850088062,90.88572183746938 L-7.0,93.0" fill-opacity="0" stroke="black" stroke-width="1" />
<path d="M-14.0,-14.0 L-4.30068850088062,-9.114278162530626 L-7.0,-7.0" fill-opacity="0" stroke="black" stroke-width="1" />
<path d="M-14.0,14.0 L-4.30068850088062,9.114278162530624 L-7.0,7.0" fill-opacity="0" stroke="black" stroke-width="1" />
<path d="M-14.0,-86.0 L-4.30068850088062,-90.88572183746938 L-7.0,-93.0" fill-opacity="0" stroke="black" stroke-width="1" />
<path d="M-7.0,93.0 L-3.5585333026273562,93.77976653490185 L0.0,100.0" fill-opacity="0" stroke="black" stroke-width="1" />
<path d="M-7.0,-7.0 L-3.5585333026273562,-6.2202334650981514 L0.0,-0.0" fill-opacity="0" stroke="black" stroke-width="1" />
<path d="M-7.0,7.0 L-3.5585333026273562,6.220233465098147 L0.0,-0.0" fill-opacity="0" stroke="black" stroke-width="1" />
<path d="M-7.0,-93.0 L-3.5585333026273562,-93.77976653490185 L0.0,-100.0" fill-opacity="0" stroke="black" stroke-width="1" />
<path d="M-92.0,-0.0 L-85.27484589483426,-4.887133615032384 L-85.17779221139821,-5.560488780425931" fill-opacity="0" stroke="black" stroke-width="1" />
<path d="M-92.0,-0.0 L-85.27484589483426,4.887133615032384 L-85.17779221139821,5.560488780425931" fill-opacity="0" stroke="black" stroke-width="1" />
<path d="M-85.27484589483426,-4.887133615032384 L-85.17779221139821,-5.560488780425931 L-75.0,-0.0" fill-opacity="0" stroke="black" stroke-width="1" />
<path d="M-85.27484589483426,4.887133615032384 L-85.17779221139821,5.560488780425931 L-75.0,-0.0" fill-opacity="0" stroke="black" stroke-width="1" />
<path d="M-57.0,-43.0 L-74.0,-26.0 L-81.44370231570694,-11.589646689526559" fill-opacity="0" stroke="black" stroke-width="1" />
<path d="M-57.0,43.0 L-74.0,26.0 L-81.44370231570694,11.589646689526559" fill-opacity="0" stroke="black" stroke-width="1" />
<path d="M-74.0,-0.0 L-71.70190055532044,-13.49027886524216 L-71.44574066119645,-14.170976207384193" fill-opacity="0" stroke="black" stroke-width="1" />
<path d="M-74.0,-0.0 L-71.70190055532044,13.49027886524216 L-71.44574066119645,14.170976207384193" fill-opacity="0" stroke="black" stroke-width="1" />
<path d="M-71.70190055532044,-13.49027886524216 L-71.44574066119645,-14.170976207384193 L-65.0,-0.0" fill-opacity="0" stroke="black" stroke-width="1" />
<path d="M-71.70190055532044,13.49027886524216 L-71.44574066119645,14.170976207384193 L-65.0,-0.0" fill-opacity="0" stroke="black" stroke-width="1" />
<path d="M-50.0,-11.0 L-65.41614309431688,-23.314187511602697 L-50.0,-25.0" fill-opacity="0" stroke="black" stroke-width="1" />
<path d="M-50.0,11.0 L-65.41614309431688,23.314187511602697 L-50.0,25.0" fill-opacity="0" stroke="black" stroke-width="1" />
<path d="M-50.0,-25.0 L-56.67382498538889,-28.17385518579879 L-51.78726879368126,-34.800298732881465" fill-opacity="0" stroke="black" stroke-width="1" />
<path d="M-50.0,25.0 L-56.67382498538889,28.17385518579879 L-51.78726879368126,34.800298732881465" fill-opacity="0" stroke="black" stroke-width="1" />
<path d="M-56.67382498538889,-28.17385518579879 L-51.78726879368126,-34.800298732881465 L-50.0,-50.0" fill-opacity="0" stroke="black" stroke-width="1" />
<path d="M-56.67382498538889,28.17385518579879 L-51.78726879368126,34.800298732881465 L-50.0,50.0" fill-opacity="0" stroke="black" stroke-width="1" />
<path d="M-50.0,-50.0 L-57.0,-43.0 L-74.0,-26.0" fill-opacity="0" stroke="black" stroke-width="1" />
<path d="M-50.0,50.0 L-57.0,43.0 L-74.0,26.0" fill-opacity="0" stroke="black" stroke-width="1" />
<path d="M-74.0,-26.0 L-81.44370231570694,-11.589646689526559 L-86.0,-14.0" fill-opacity="0" stroke="black" stroke-width="1" />
<path d="M-74.0,26.0 L-81.44370231570694,11.589646689526559 L-86.0,14.0" fill-opacity="0" stroke="black" stroke-width="1" />
<path d="M-86.0,-14.0 L-90.88572183746938,-4.30068850088062 L-93.0,-7.0" fill-opacity="0" stroke="black" stroke-width="1" />
<path d="M-86.0,14.0 L-90.88572183746938,4.30068850088062 L-93.0,7.0" fill-opacity="0" stroke="black" stroke-width="1" />
<path d="M-90.88572183746938,-4.30068850088062 L-93.0,-7.0 L-93.77976653490185,-3.5585333026273562" fill-opacity="0" stroke="black" stroke-width="1" />
<path d="M-90.88572183746938,4.30068850088062 L-93.0,7.0 L-93.77976653490185,3.5585333026273562" fill-opacity="0" stroke="black" stroke-width="1" />
<path d="M-93.0,-7.0 L-93.77976653490185,-3.5585333026273562 L-100.0,-0.0" fill-opacity="0" stroke="black" stroke-width="1" />
<path d="M-93.0,7.0 L-93.77976653490185,3.5585333026273562 L-100.0,-0.0" fill-opacity="0" stroke="black" stroke-width="1" />
<circle cx="0" cy="-97" r="8" stroke-dasharray="39.653880605311166 10.611601852125524" stroke-dashoffset="-17.59291886010284" stroke="black" stroke-width="1" fill="white" fill-opacity="1" />
<circle cx="0" cy="-97" r="4" stroke="black" stroke-width="1" fill="white" fill-opacity="1" />
</svg>