<?xml version="1.0" encoding="UTF-8"?>
<svg xmlns="http://www.w3.org/2000/svg" xmlns:xlink="http://www.w3.org/1999/xlink"
     width="250" height="250" viewBox="-125.0 -125.0 250 250">
<defs>
</defs>
<path d="M14.0,-0.0 L14.089855593430244,-4.818036521898716 L14.179319608520235,-5.031162561012602" fill-opacity="0" stroke="black" stroke-width="1" />
<path d="M14.0,-0.0 L14.089855593430244,4.818036521898716 L14.179319608520235,5.031162561012602" fill-opacity="0" stroke="black" stroke-width="1" />
<path d="M14.089855593430244,-4.818036521898716 L14.179319608520235,-5.031162561012602 L17.612684110561013,-6.919140814593005" fill-opacity="0" stroke="black" stroke-width="1" />
<path d="M14.089855593430244,4.818036521898716 L14.179319608520235,5.031162561012602 L17.612684110561013,6.919140814593005" fill-opacity="0" stroke="black" stroke-width="1" />
<path d="M14.179319608520235,-5.031162561012602 L17.612684110561013,-6.919140814593005 L18.49871364542625,-7.287144696743461" fill-opacity="0" stroke="black" stroke-width="1" />
<path d="M14.179319608520235,5.031162561012602 L17.612684110561013,6.919140814593005 L18.49871364542625,7.287144696743461" fill-opacity="0" stroke="black" stroke-width="1" />
<path d="M17.612684110561013,-6.919140814593005 L18.49871364542625,-7.287144696743461 L23.05382177260391,-8.376639377305416" fill-opacity="0" stroke="black" stroke-width="1" />
<path d="M17.612684110561013,6.919140814593005 L18.49871364542625,7.287144696743461 L23.05382177260391,8.376639377305416" fill-opacity="0" stroke="black" stroke-width="1" />
<path d="M18.49871364542625,-7.287144696743461 L23.05382177260391,-8.376639377305416 L35.0,-0.0" fill-opacity="0" stroke="black" stroke-width="1" />
<path d="M18.49871364542625,7.287144696743461 L23.05382177260391,8.376639377305416 L35.0,-0.0" fill-opacity="0" stroke="black" stroke-width="1" />
<path d="M35.0,-0.0 L35.4139099424629,-9.488697266406836 L37.010580592645425,-9.736950899204489" fill-opacity="0" stroke="black" stroke-width="1" />
<path d="M35.0,-0.0 L35.4139099424629,9.488697266406836 L37.010580592645425,9.736950899204489" fill-opacity="0" stroke="black" stroke-width="1" />
<path d="M35.4139099424629,-9.488697266406836 L37.010580592645425,-9.736950899204489 L46.0,-0.0" fill-opacity="0" stroke="black" stroke-width="1" />
<path d="M35.4139099424629,9.488697266406836 L37.010580592645425,9.736950899204489 L46.0,-0.0" fill-opacity="0" stroke="black" stroke-width="1" />
<path d="M50.0,-7.0 L37.427537447715615,-13.183866567734615 L50.0,-15.0" fill-opacity="0" stroke="black" stroke-width="1" />
<path d="M50.0,7.0 L37.427537447715615,13.183866567734615 L50.0,15.0" fill-opacity="0" stroke="black" stroke-width="1" />
<path d="M50.0,-15.0 L38.110606521988366,-15.218898362304461 L43.12134886342224,-19.326981362225034" fill-opacity="0" stroke="black" stroke-width="1" />
<path d="M50.0,15.0 L38.110606521988366,15.218898362304461 L43.12134886342224,19.326981362225034" fill-opacity="0" stroke="black" stroke-width="1" />
<path d="M38.110606521988366,-15.218898362304461 L43.12134886342224,-19.326981362225034 L44.13652579430772,-19.640762882621964" fill-opacity="0" stroke="black" stroke-width="1" />
<path d="M38.110606521988366,15.218898362304461 L43.12134886342224,19.326981362225034 L44.13652579430772,19.640762882621964" fill-opacity="0" stroke="black" stroke-width="1" />
<path d="M43.12134886342224,-19.326981362225034 L44.13652579430772,-19.640762882621964 L46.11541617569754,-21.860119774576653" fill-opacity="0" stroke="black" stroke-width="1" />
<path d="M43.12134886342224,19.326981362225034 L44.13652579430772,19.640762882621964 L46.11541617569754,21.860119774576653" fill-opacity="0" stroke="black" stroke-width="1" />
<path d="M44.13652579430772,-19.640762882621964 L46.11541617569754,-21.860119774576653 L46.27911816761302,-22.58233003774198" fill-opacity="0" stroke="black" stroke-width="1" />
<path d="M44.13652579430772,19.640762882621964 L46.11541617569754,21.860119774576653 L46.27911816761302,22.58233003774198" fill-opacity="0" stroke="black" stroke-width="1" />
<path d="M46.11541617569754,-21.860119774576653 L46.27911816761302,-22.58233003774198 L47.86478368301091,-31.27170549822799" fill-opacity="0" stroke="black" stroke-width="1" />
<path d="M46.11541617569754,21.860119774576653 L46.27911816761302,22.58233003774198 L47.86478368301091,31.27170549822799" fill-opacity="0" stroke="black" stroke-width="1" />
<path d="M46.27911816761302,-22.58233003774198 L47.86478368301091,-31.27170549822799 L48.54719589964132,-31.56183889058409" fill-opacity="0" stroke="black" stroke-width="1" />
<path d="M46.27911816761302,22.58233003774198 L47.86478368301091,31.27170549822799 L48.54719589964132,31.56183889058409" fill-opacity="0" stroke="black" stroke-width="1" />
<path d="M47.86478368301091,-31.27170549822799 L48.54719589964132,-31.56183889058409 L48.687832222529295,-34.31179322496135" fill-opacity="0" stroke="black" stroke-width="1" />
<path d="M47.86478368301091,31.27170549822799 L48.54719589964132,31.56183889058409 L48.687832222529295,34.31179322496135" fill-opacity="0" stroke="black" stroke-width="1" />
<path d="M48.54719589964132,-31.56183889058409 L48.687832222529295,-34.31179322496135 L50.0,-46.0" fill-opacity="0" stroke="black" stroke-width="1" />
<path d="M48.54719589964132,31.56183889058409 L48.687832222529295,34.31179322496135 L50.0,46.0" fill-opacity="0" stroke="black" stroke-width="1" />
<path d="M46.0,50.0 L48.0,52.0 L26.0,74.0" fill-opacity="0" stroke="black" stroke-width="1" />
<path d="M46.0,-50.0 L48.0,-52.0 L26.0,-74.0" fill-opacity="0" stroke="black" stroke-width="1" />
<path d="M48.0,52.0 L26.0,74.0 L25.0,75.0" fill-opacity="0" stroke="black" stroke-width="1" />
<path d="M48.0,-52.0 L26.0,-74.0 L25.0,-75.0" fill-opacity="0" stroke="black" stroke-width="1" />
<path d="M26.0,74.0 L25.0,75.0 L13.0,87.0" fill-opacity="0" stroke="black" stroke-width="1" />
<path d="M26.0,-74.0 L25.0,-75.0 L13.0,-87.0" fill-opacity="0" stroke="black" stroke-width="1" />
<path d="M25.0,75.0 L13.0,87.0 L2.4467269382426413,93.3804573384013" fill-opacity="0" stroke="black" stroke-width="1" />
<path d="M25.0,-75.0 L13.0,-87.0 L2.4467269382426413,-93.3804573384013" fill-opacity="0" stroke="black" stroke-width="1" />
<path d="M13.0,-13.0 L6.619542661598709,-2.4467269382426413 L6.455200606290241,-1.407821661740677" fill-opacity="0" stroke="black" stroke-width="1" />
<path d="M13.0,13.0 L6.619542661598709,2.4467269382426413 L6.455200606290241,1.407821661740677" fill-opacity="0" stroke="black" stroke-width="1" />
<path d="M6.619542661598709,-2.4467269382426413 L6.455200606290241,-1.407821661740677 L4.770636616231361,-1.0440612055744203" fill-opacity="0" stroke="black" stroke-width="1" />
<path d="M6.619542661598709,2.4467269382426413 L6.455200606290241,1.407821661740677 L4.770636616231361,1.0440612055744203" fill-opacity="0" stroke="black" stroke-width="1" />
<path d="M6.455200606290241,-1.407821661740677 L4.770636616231361,-1.0440612055744203 L0.0,-0.0" fill-opacity="0" stroke="black" stroke-width="1" />
<path d="M6.455200606290241,1.407821661740677 L4.770636616231361,1.0440612055744203 L0.0,-0.0" fill-opacity="0" stroke="black" stroke-width="1" />
<path d="M-14.0,-0.0 L-14.089855593430244,-4.818036521898716 L-14.179319608520235,-5.031162561012602" fill-opacity="0" stroke="black" stroke-width="1" />
<path d="M-14.0,-0.0 L-14.089855593430244,4.818036521898716 L-14.179319608520235,5.031162561012602" fill-opacity="0" stroke="black" stroke-width="1" />
<path d="M-14.089855593430244,-4.818036521898716 L-14.179319608520235,-5.031162561012602 L-17.612684110561013,-6.919140814593005" fill-opacity="0" stroke="black" stroke-width="1" />
<path d="M-14.089855593430244,4.818036521898716 L-14.179319608520235,5.031162561012602 L-17.612684110561013,6.919140814593005" fill-opacity="0" stroke="black" stroke-width="1" />
<path d="M-14.179319608520235,-5.031162561012602 L-17.612684110561013,-6.919140814593005 L-18.49871364542625,-7.287144696743461" fill-opacity="0" stroke="black" stroke-width="1" />
<path d="M-14.179319608520235,5.031162561012602 L-17.612684110561013,6.919140814593005 L-18.49871364542625,7.287144696743461" fill-opacity="0" stroke="black" stroke-width="1" />
<path d="M-17.612684110561013,-6.919140814593005 L-18.49871364542625,-7.287144696743461 L-23.05382177260391,-8.376639377305416" fill-opacity="0" stroke="black" stroke-width="1" />
<path d="M-17.612684110561013,6.919140814593005 L-18.49871364542625,7.287144696743461 L-23.05382177260391,8.376639377305416" fill-opacity="0" stroke="black" stroke-width="1" />
<path d="M-18.49871364542625,-7.287144696743461 L-23.05382177260391,-8.376639377305416 L-35.0,-0.0" fill-opacity="0" stroke="black" stroke-width="1" />
<path d="M-18.49871364542625,7.287144696743461 L-23.05382177260391,8.376639377305416 L-35.0,-0.0" fill-opacity="0" stroke="black" stroke-width="1" />
<path d="M-35.0,-0.0 L-35.4139099424629,-9.488697266406836 L-37.010580592645425,-9.736950899204489" fill-opacity="0" stroke="black" stroke-width="1" />
<path d="M-35.0,-0.0 L-35.4139099424629,9.488697266406836 L-37.010580592645425,9.736950899204489" fill-opacity="0" stroke="black" stroke-width="1" />
<path d="M-35.4139099424629,-9.488697266406836 L-37.010580592645425,-9.736950899204489 L-46.0,-0.0" fill-opacity="0" stroke="black" stroke-width="1" />
<path d="M-35.4139099424629,9.488697266406836 L-37.010580592645425,9.736950899204489 L-46.0,-0.0" fill-opacity="0" stroke="black" stroke-width="1" />
<path d="M-50.0,-7.0 L-37.427537447715615,-13.183866567734615 L-50.0,-15.0" fill-opacity="0" stroke="black" stroke-width="1" />
<path d="M-50.0,7.0 L-37.427537447715615,13.183866567734615 L-50.0,15.0" fill-opacity="0" stroke="black" stroke-width="1" />
<path d="M-50.0,-15.0 L-38.110606521988366,-15.218898362304461 L-43.12134886342224,-19.326981362225034" fill-opacity="0" stroke="black" stroke-width="1" />
<path d="M-50.0,15.0 L-38.110606521988366,15.218898362304461 L-43.12134886342224,19.326981362225034" fill-opacity="0" stroke="black" stroke-width="1" />
<path d="M-38.110606521988366,-15.218898362304461 L-43.12134886342224,-19.326981362225034 L-44.13652579430772,-19.640762882621964" fill-opacity="0" stroke="black" stroke-width="1" />
<path d="M-38.110606521988366,15.218898362304461 L-43.12134886342224,19.326981362225034 L-44.13652579430772,19.640762882621964" fill-opacity="0" stroke="black" stroke-width="1" />
<path d="M-43.12134886342224,-19.326981362225034 L-44.13652579430772,-19.640762882621964 L-46.11541617569754,-21.860119774576653" fill-opacity="0" stroke="black" stroke-width="1" />
<path d="M-43.12134886342224,19.326981362225034 L-44.13652579430772,19.640762882621964 L-46.11541617569754,21.860119774576653" fill-opacity="0" stroke="black" stroke-width="1" />
<path d="M-44.13652579430772,-19.640762882621964 L-46.11541617569754,-21.860119774576653 L-46.27911816761302,-22.58233003774198" fill-opacity="0" stroke="black" stroke-width="1" />
<path d="M-44.13652579430772,19.640762882621964 L-46.11541617569754,21.860119774576653 L-46.27911816761302,22.58233003774198" fill-opacity="0" stroke="black" stroke-width="1" />
<path d="M-46.11541617569754,-21.860119774576653 L-46.27911816761302,-22.58233003774198 L-47.86478368301091,-31.27170549822799" fill-opacity="0" stroke="black" stroke-width="1" />
<path d="M-46.11541617569754,21.860119774576653 L-46.27911816761302,22.58233003774198 L-47.86478368301091,31.27170549822799" fill-opacity="0" stroke="black" stroke-width="1" />
<path d="M-46.27911816761302,-22.58233003774198 L-47.86478368301091,-31.27170549822799 L-48.54719589964132,-31.56183889058409" fill-opacity="0" stroke="black" stroke-width="1" />
<path d="M-46.27911816761302,22.58233003774198 L-47.86478368301091,31.27170549822799 L-48.54719589964132,31.56183889058409" fill-opacity="0" stroke="black" stroke-width="1" />
<path d="M-47.86478368301091,-31.27170549822799 L-48.54719589964132,-31.56183889058409 L-48.687832222529295,-34.31179322496135" fill-opacity="0" stroke="black" stroke-width="1" />
<path d="M-47.86478368301091,31.27170549822799 L-48.54719589964132,31.56183889058409 L-48.687832222529295,34.31179322496135" fill-opacity="0" stroke="black" stroke-width="1" />
<path d="M-48.54719589964132,-31.56183889058409 L-48.687832222529295,-34.31179322496135 L-50.0,-46.0" fill-opacity="0" stroke="black" stroke-width="1" />
<path d="M-48.54719589964132,31.56183889058409 L-48.687832222529295,34.31179322496135 L-50.0,46.0" fill-opacity="0" stroke="black" stroke-width="1" />
<path d="M-46.0,50.0 L-48.0,52.0 L-26.0,74.0" fill-opacity="0" stroke="black" stroke-width="1" />
<path d="M-46.0,-50.0 L-48.0,-52.0 L-26.0,-74.0" fill-opacity="0" stroke="black" stroke-width="1" />
<path d="M-48.0,52.0 L-26.0,74.0 L-25.0,75.0" fill-opacity="0" stroke="black" stroke-width="1" />
<path d="M-48.0,-52.0 L-26.0,-74.0 L-25.0,-75.0" fill-opacity="0" stroke="black" stroke-width="1" />
<path d="M-26.0,74.0 L-25.0,75.0 L-13.0,87.0" fill-opacity="0" stroke="black" stroke-width="1" />
<path d="M-26.0,-74.0 L-25.0,-75.0 L-13.0,-87.0" fill-opacity="0" stroke="black" stroke-width="1" />
<path d="M-25.0,75.0 L-13.0,87.0 L-2.4467269382426413,93.38045733840129" fill-opacity="0" stroke="black" stroke-width="1" />
<path d="M-25.0,-75.0 L-13.0,-87.0 L-2.4467269382426413,-93.3804573384013" fill-opacity="0" stroke="black" stroke-width="1" />
<path d="M-13.0,-13.0 L-6.619542661598709,-2.4467269382426413 L-6.455200606290241,-1.407821661740677" fill-opacity="0" stroke="black" stroke-width="1" />
<path d="M-13.0,13.0 L-6.619542661598709,2.4467269382426413 L-6.455200606290241,1.407821661740677" fill-opacity="0" stroke="black" stroke-width="1" />
<path d="M-6.619542661598709,-2.4467269382426413 L-6.455200606290241,-1.407821661740677 L-4.770636616231361,-1.0440612055744203" fill-opacity="0" stroke="black" stroke-width="1" />
<path d="M-6.619542661598709,2.4467269382426413 L-6.455200606290241,1.407821661740677 L-4.770636616231361,1.0440612055744203" fill-opacity="0" stroke="black" stroke-width="1" />
<path d="M-6.455200606290241,-1.407821661740677 L-4.770636616231361,-1.0440612055744203 L0.0,-0.0" fill-opacity="0" stroke="black" stroke-width="1" />
<path d="M-6.455200606290241,1.407821661740677 L-4.770636616231361,1.0440612055744203 L0.0,-0.0" fill-opacity="0" stroke="black" stroke-width="1" />
<path d="M86.0,-0.0 L85.91014440656976,4.818036521898716 L85.82068039147977,5.031162561012602" fill-opacity="0" stroke="black" stroke-width="1" />
<path d="M86.0,-0.0 L85.91014440656976,-4.818036521898716 L85.82068039147977,-5.031162561012602" fill-opacity="0" stroke="black" stroke-width="1" />
<path d="M85.91014440656976,4.818036521898716 L85.82068039147977,5.031162561012602 L82.38731588943898,6.919140814593005" fill-opacity="0" stroke="black" stroke-width="1" />
<path d="M85.91014440656976,-4.818036521898716 L85.82068039147977,-5.031162561012602 L82.38731588943898,-6.919140814593005" fill-opacity="0" stroke="black" stroke-width="1" />
<path d="M85.82068039147977,5.031162561012602 L82.38731588943898,6.919140814593005 L81.50128635457375,7.287144696743461" fill-opacity="0" stroke="black" stroke-width="1" />
<path d="M85.82068039147977,-5.031162561012602 L82.38731588943898,-6.919140814593005 L81.50128635457375,-7.287144696743461" fill-opacity="0" stroke="black" stroke-width="1" />
<path d="M82.38731588943898,6.919140814593005 L81.50128635457375,7.287144696743461 L76.94617822739609,8.376639377305416" fill-opacity="0" stroke="black" stroke-width="1" />
<path d="M82.38731588943898,-6.919140814593005 L81.50128635457375,-7.287144696743461 L76.94617822739609,-8.376639377305416" fill-opacity="0" stroke="black" stroke-width="1" />
<path d="M81.50128635457375,7.287144696743461 L76.94617822739609,8.376639377305416 L65.0,-0.0" fill-opacity="0" stroke="black" stroke-width="1" />
<path d="M81.50128635457375,-7.287144696743461 L76.94617822739609,-8.376639377305416 L65.0,-0.0" fill-opacity="0" stroke="black" stroke-width="1" />
<path d="M65.0,-0.0 L64.58609005753709,9.488697266406836 L62.989419407354575,9.736950899204489" fill-opacity="0" stroke="black" stroke-width="1" />
<path d="M65.0,-0.0 L64.58609005753709,-9.488697266406836 L62.989419407354575,-9.736950899204489" fill-opacity="0" stroke="black" stroke-width="1" />
<path d="M64.58609005753709,9.488697266406836 L62.989419407354575,9.736950899204489 L54.0,-0.0" fill-opacity="0" stroke="black" stroke-width="1" />
<path d="M64.58609005753709,-9.488697266406836 L62.989419407354575,-9.736950899204489 L54.0,-0.0" fill-opacity="0" stroke="black" stroke-width="1" />
<path d="M50.0,7.0 L62.572462552284385,13.183866567734615 L50.0,15.0" fill-opacity="0" stroke="black" stroke-width="1" />
<path d="M50.0,-7.0 L62.572462552284385,-13.183866567734615 L50.0,-15.0" fill-opacity="0" stroke="black" stroke-width="1" />
<path d="M50.0,15.0 L61.889393478011634,15.218898362304461 L56.87865113657776,19.326981362225034" fill-opacity="0" stroke="black" stroke-width="1" />
<path d="M50.0,-15.0 L61.889393478011634,-15.218898362304461 L56.87865113657776,-19.326981362225034" fill-opacity="0" stroke="black" stroke-width="1" />
<path d="M61.889393478011634,15.218898362304461 L56.87865113657776,19.326981362225034 L55.86347420569228,19.640762882621964" fill-opacity="0" stroke="black" stroke-width="1" />
<path d="M61.889393478011634,-15.218898362304461 L56.87865113657776,-19.326981362225034 L55.86347420569228,-19.640762882621964" fill-opacity="0" stroke="black" stroke-width="1" />
<path d="M56.87865113657776,19.326981362225034 L55.86347420569228,19.640762882621964 L53.88458382430246,21.860119774576653" fill-opacity="0" stroke="black" stroke-width="1" />
<path d="M56.87865113657776,-19.326981362225034 L55.86347420569228,-19.640762882621964 L53.88458382430246,-21.860119774576653" fill-opacity="0" stroke="black" stroke-width="1" />
<path d="M55.86347420569228,19.640762882621964 L53.88458382430246,21.860119774576653 L53.72088183238698,22.58233003774198" fill-opacity="0" stroke="black" stroke-width="1" />
<path d="M55.86347420569228,-19.640762882621964 L53.88458382430246,-21.860119774576653 L53.72088183238698,-22.58233003774198" fill-opacity="0" stroke="black" stroke-width="1" />
<path d="M53.88458382430246,21.860119774576653 L53.72088183238698,22.58233003774198 L52.13521631698909,31.27170549822799" fill-opacity="0" stroke="black" stroke-width="1" />
<path d="M53.88458382430246,-21.860119774576653 L53.72088183238698,-22.58233003774198 L52.13521631698909,-31.27170549822799" fill-opacity="0" stroke="black" stroke-width="1" />
<path d="M53.72088183238698,22.58233003774198 L52.13521631698909,31.27170549822799 L51.45280410035868,31.56183889058409" fill-opacity="0" stroke="black" stroke-width="1" />
<path d="M53.72088183238698,-22.58233003774198 L52.13521631698909,-31.27170549822799 L51.45280410035868,-31.56183889058409" fill-opacity="0" stroke="black" stroke-width="1" />
<path d="M52.13521631698909,31.27170549822799 L51.45280410035868,31.56183889058409 L51.312167777470705,34.31179322496135" fill-opacity="0" stroke="black" stroke-width="1" />
<path d="M52.13521631698909,-31.27170549822799 L51.45280410035868,-31.56183889058409 L51.312167777470705,-34.31179322496135" fill-opacity="0" stroke="black" stroke-width="1" />
<path d="M51.45280410035868,31.56183889058409 L51.312167777470705,34.31179322496135 L50.0,46.0" fill-opacity="0" stroke="black" stroke-width="1" />
<path d="M51.45280410035868,-31.56183889058409 L51.312167777470705,-34.31179322496135 L50.0,-46.0" fill-opacity="0" stroke="black" stroke-width="1" />
<path d="M50.0,46.0 L52.0,48.0 L74.0,26.0" fill-opacity="0" stroke="black" stroke-width="1" />
<path d="M50.0,-46.0 L52.0,-48.0 L74.0,-26.0" fill-opacity="0" stroke="black" stroke-width="1" />
<path d="M52.0,48.0 L74.0,26.0 L75.0,25.0" fill-opacity="0" stroke="black" stroke-width="1" />
<path d="M52.0,-48.0 L74.0,-26.0 L75.0,-25.0" fill-opacity="0" stroke="black" stroke-width="1" />
<path d="M74.0,26.0 L75.0,25.0 L87.0,13.0" fill-opacity="0" stroke="black" stroke-width="1" />
<path d="M74.0,-26.0 L75.0,-25.0 L87.0,-13.0" fill-opacity="0" stroke="black" stroke-width="1" />
<path d="M75.0,25.0 L87.0,13.0 L93.3804573384013,2.4467269382426413" fill-opacity="0" stroke="black" stroke-width="1" />
<path d="M75.0,-25.0 L87.0,-13.0 L93.3804573384013,-2.4467269382426413" fill-opacity="0" stroke="black" stroke-width="1" />
<path d="M87.0,13.0 L93.3804573384013,2.4467269382426413 L93.54479939370975,1.407821661740677" fill-opacity="0" stroke="black" stroke-width="1" />
<path d="M87.0,-13.0 L93.3804573384013,-2.4467269382426413 L93.54479939370975,-1.407821661740677" fill-opacity="0" stroke="black" stroke-width="1" />
<path d="M93.3804573384013,2.4467269382426413 L93.54479939370975,1.407821661740677 L95.22936338376864,1.0440612055744203" fill-opacity="0" stroke="black" stroke-width="1" />
<path d="M93.3804573384013,-2.4467269382426413 L93.54479939370975,-1.407821661740677 L95.22936338376864,-1.0440612055744203" fill-opacity="0" stroke="black" stroke-width="1" />
<path d="M93.54479939370975,1.407821661740677 L95.22936338376864,1.0440612055744203 L100.0,-0.0" fill-opacity="0" stroke="black" stroke-width="1" />
<path d="M93.54479939370975,-1.407821661740677 L95.22936338376864,-1.0440612055744203 L100.0,-0.0" fill-opacity="0" stroke="black" stroke-width="1" />
<path d="M0.0,-14.0 L4.818036521898716,-14.089855593430244 L5.031162561012602,-14.179319608520235" fill-opacity="0" stroke="black" stroke-width="1" />
<path d="M0.0,14.0 L4.818036521898716,14.089855593430244 L5.031162561012602,14.179319608520235" fill-opacity="0" stroke="black" stroke-width="1" />
<path d="M0.0,86.0 L4.818036521898716,85.91014440656976 L5.031162561012602,85.82068039147977" fill-opacity="0" stroke="black" stroke-width="1" />
<path d="M0.0,-86.0 L4.818036521898716,-85.91014440656976 L5.031162561012602,-85.82068039147977" fill-opacity="0" stroke="black" stroke-width="1" />
<path d="M4.818036521898716,-14.089855593430244 L5.031162561012602,-14.179319608520235 L6.919140814593005,-17.612684110561013" fill-opacity="0" stroke="black" stroke-width="1" />
<path d="M4.818036521898716,14.089855593430244 L5.031162561012602,14.179319608520235 L6.919140814593005,17.612684110561013" fill-opacity="0" stroke="black" stroke-width="1" />
<path d="M4.818036521898716,85.91014440656976 L5.031162561012602,85.82068039147977 L6.919140814593005,82.38731588943898" fill-opacity="0" stroke="black" stroke-width="1" />
<path d="M4.818036521898716,-85.91014440656976 L5.031162561012602,-85.82068039147977 L6.919140814593005,-82.38731588943898" fill-opacity="0" stroke="black" stroke-width="1" />
<path d="M5.031162561012602,-14.179319608520235 L6.919140814593005,-17.612684110561013 L7.287144696743461,-18.49871364542625" fill-opacity="0" stroke="black" stroke-width="1" />
<path d="M5.031162561012602,14.179319608520235 L6.919140814593005,17.612684110561013 L7.287144696743461,18.49871364542625" fill-opacity="0" stroke="black" stroke-width="1" />
<path d="M5.031162561012602,85.82068039147977 L6.919140814593005,82.38731588943898 L7.287144696743461,81.50128635457375" fill-opacity="0" stroke="black" stroke-width="1" />
<path d="M5.031162561012602,-85.82068039147977 L6.919140814593005,-82.38731588943898 L7.287144696743461,-81.50128635457375" fill-opacity="0" stroke="black" stroke-width="1" />
<path d="M6.919140814593005,-17.612684110561013 L7.287144696743461,-18.49871364542625 L8.376639377305416,-23.05382177260391" fill-opacity="0" stroke="black" stroke-width="1" />
<path d="M6.919140814593005,17.612684110561013 L7.287144696743461,18.49871364542625 L8.376639377305416,23.05382177260391" fill-opacity="0" stroke="black" stroke-width="1" />
<path d="M6.919140814593005,82.38731588943898 L7.287144696743461,81.50128635457375 L8.376639377305416,76.94617822739609" fill-opacity="0" stroke="black" stroke-width="1" />
<path d="M6.919140814593005,-82.38731588943898 L7.287144696743461,-81.50128635457375 L8.376639377305416,-76.94617822739609" fill-opacity="0" stroke="black" stroke-width="1" />
<path d="M7.287144696743461,-18.49871364542625 L8.376639377305416,-23.05382177260391 L0.0,-35.0" fill-opacity="0" stroke="black" stroke-width="1" />
<path d="M7.287144696743461,18.49871364542625 L8.376639377305416,23.05382177260391 L0.0,35.0" fill-opacity="0" stroke="black" stroke-width="1" />
<path d="M7.287144696743461,81.50128635457375 L8.376639377305416,76.94617822739609 L0.0,65.0" fill-opacity="0" stroke="black" stroke-width="1" />
<path d="M7.287144696743461,-81.50128635457375 L8.376639377305416,-76.94617822739609 L0.0,-65.0" fill-opacity="0" stroke="black" stroke-width="1" />
<path d="M0.0,-35.0 L9.488697266406836,-35.4139099424629 L9.736950899204489,-37.010580592645425" fill-opacity="0" stroke="black" stroke-width="1" />
<path d="M0.0,35.0 L9.488697266406836,35.4139099424629 L9.736950899204489,37.010580592645425" fill-opacity="0" stroke="black" stroke-width="1" />
<path d="M0.0,65.0 L9.488697266406836,64.58609005753709 L9.736950899204489,62.989419407354575" fill-opacity="0" stroke="black" stroke-width="1" />
<path d="M0.0,-65.0 L9.488697266406836,-64.58609005753709 L9.736950899204489,-62.989419407354575" fill-opacity="0" stroke="black" stroke-width="1" />
<path d="M9.488697266406836,-35.4139099424629 L9.736950899204489,-37.010580592645425 L0.0,-46.0" fill-opacity="0" stroke="black" stroke-width="1" />
<path d="M9.488697266406836,35.4139099424629 L9.736950899204489,37.010580592645425 L0.0,46.0" fill-opacity="0" stroke="black" stroke-width="1" />
<path d="M9.488697266406836,64.58609005753709 L9.736950899204489,62.989419407354575 L0.0,54.0" fill-opacity="0" stroke="black" stroke-width="1" />
<path d="M9.488697266406836,-64.58609005753709 L9.736950899204489,-62.989419407354575 L0.0,-54.0" fill-opacity="0" stroke="black" stroke-width="1" />
<path d="M7.0,-50.0 L13.183866567734615,-37.427537447715615 L15.0,-50.0" fill-opacity="0" stroke="black" stroke-width="1" />
<path d="M7.0,50.0 L13.183866567734615,37.427537447715615 L15.0,50.0" fill-opacity="0" stroke="black" stroke-width="1" />
<path d="M7.0,50.0 L13.183866567734615,62.572462552284385 L15.0,50.0" fill-opacity="0" stroke="black" stroke-width="1" />
<path d="M7.0,-50.0 L13.183866567734615,-62.572462552284385 L15.0,-50.0" fill-opacity="0" stroke="black" stroke-width="1" />
<path d="M15.0,-50.0 L15.218898362304461,-38.110606521988366 L19.326981362225034,-43.12134886342224" fill-opacity="0" stroke="black" stroke-width="1" />
<path d="M15.0,50.0 L15.218898362304461,38.110606521988366 L19.326981362225034,43.12134886342224" fill-opacity="0" stroke="black" stroke-width="1" />
<path d="M15.0,50.0 L15.218898362304461,61.889393478011634 L19.326981362225034,56.87865113657776" fill-opacity="0" stroke="black" stroke-width="1" />
<path d="M15.0,-50.0 L15.218898362304461,-61.889393478011634 L19.326981362225034,-56.87865113657776" fill-opacity="0" stroke="black" stroke-width="1" />
<path d="M15.218898362304461,-38.110606521988366 L19.326981362225034,-43.12134886342224 L19.640762882621964,-44.13652579430772" fill-opacity="0" stroke="black" stroke-width="1" />
<path d="M15.218898362304461,38.110606521988366 L19.326981362225034,43.12134886342224 L19.640762882621964,44.13652579430772" fill-opacity="0" stroke="black" stroke-width="1" />
<path d="M15.218898362304461,61.889393478011634 L19.326981362225034,56.87865113657776 L19.640762882621964,55.86347420569228" fill-opacity="0" stroke="black" stroke-width="1" />
<path d="M15.218898362304461,-61.889393478011634 L19.326981362225034,-56.87865113657776 L19.640762882621964,-55.86347420569228" fill-opacity="0" stroke="black" stroke-width="1" />
<path d="M19.326981362225034,-43.12134886342224 L19.640762882621964,-44.13652579430772 L21.860119774576653,-46.11541617569754" fill-opacity="0" stroke="black" stroke-width="1" />
<path d="M19.326981362225034,43.12134886342224 L19.640762882621964,44.13652579430772 L21.860119774576653,46.11541617569754" fill-opacity="0" stroke="black" stroke-width="1" />
<path d="M19.326981362225034,56.87865113657776 L19.640762882621964,55.86347420569228 L21.860119774576653,53.88458382430246" fill-opacity="0" stroke="black" stroke-width="1" />
<path d="M19.326981362225034,-56.87865113657776 L19.640762882621964,-55.86347420569228 L21.860119774576653,-53.88458382430246" fill-opacity="0" stroke="black" stroke-width="1" />
<path d="M19.640762882621964,-44.13652579430772 L21.860119774576653,-46.11541617569754 L22.58233003774198,-46.27911816761302" fill-opacity="0" stroke="black" stroke-width="1" />
<path d="M19.640762882621964,44.13652579430772 L21.860119774576653,46.11541617569754 L22.58233003774198,46.27911816761302" fill-opacity="0" stroke="black" stroke-width="1" />
<path d="M19.640762882621964,55.86347420569228 L21.860119774576653,53.88458382430246 L22.58233003774198,53.72088183238698" fill-opacity="0" stroke="black" stroke-width="1" />
<path d="M19.640762882621964,-55.86347420569228 L21.860119774576653,-53.88458382430246 L22.58233003774198,-53.72088183238698" fill-opacity="0" stroke="black" stroke-width="1" />
<path d="M21.860119774576653,-46.11541617569754 L22.58233003774198,-46.27911816761302 L31.27170549822799,-47.86478368301091" fill-opacity="0" stroke="black" stroke-width="1" />
<path d="M21.860119774576653,46.11541617569754 L22.58233003774198,46.27911816761302 L31.27170549822799,47.86478368301091" fill-opacity="0" stroke="black" stroke-width="1" />
<path d="M21.860119774576653,53.88458382430246 L22.58233003774198,53.72088183238698 L31.27170549822799,52.13521631698909" fill-opacity="0" stroke="black" stroke-width="1" />
<path d="M21.860119774576653,-53.88458382430246 L22.58233003774198,-53.72088183238698 L31.27170549822799,-52.13521631698909" fill-opacity="0" stroke="black" stroke-width="1" />
<path d="M22.58233003774198,-46.27911816761302 L31.27170549822799,-47.86478368301091 L31.56183889058409,-48.54719589964132" fill-opacity="0" stroke="black" stroke-width="1" />
<path d="M22.58233003774198,46.27911816761302 L31.27170549822799,47.86478368301091 L31.56183889058409,48.54719589964132" fill-opacity="0" stroke="black" stroke-width="1" />
<path d="M22.58233003774198,53.72088183238698 L31.27170549822799,52.13521631698909 L31.56183889058409,51.45280410035868" fill-opacity="0" stroke="black" stroke-width="1" />
<path d="M22.58233003774198,-53.72088183238698 L31.27170549822799,-52.13521631698909 L31.56183889058409,-51.45280410035868" fill-opacity="0" stroke="black" stroke-width="1" />
<path d="M31.27170549822799,-47.86478368301091 L31.56183889058409,-48.54719589964132 L34.31179322496135,-48.687832222529295" fill-opacity="0" stroke="black" stroke-width="1" />
<path d="M31.27170549822799,47.86478368301091 L31.56183889058409,48.54719589964132 L34.31179322496135,48.687832222529295" fill-opacity="0" stroke="black" stroke-width="1" />
<path d="M31.27170549822799,52.13521631698909 L31.56183889058409,51.45280410035868 L34.31179322496135,51.312167777470705" fill-opacity="0" stroke="black" stroke-width="1" />
<path d="M31.27170549822799,-52.13521631698909 L31.56183889058409,-51.45280410035868 L34.31179322496135,-51.312167777470705" fill-opacity="0" stroke="black" stroke-width="1" />
<path d="M31.56183889058409,-48.54719589964132 L34.31179322496135,-48.687832222529295 L46.0,-50.0" fill-opacity="0" stroke="black" stroke-width="1" />
<path d="M31.56183889058409,48.54719589964132 L34.31179322496135,48.687832222529295 L46.0,50.0" fill-opacity="0" stroke="black" stroke-width="1" />
<path d="M31.56183889058409,51.45280410035868 L34.31179322496135,51.312167777470705 L46.0,50.0" fill-opacity="0" stroke="black" stroke-width="1" />
<path d="M31.56183889058409,-51.45280410035868 L34.31179322496135,-51.312167777470705 L46.0,-50.0" fill-opacity="0" stroke="black" stroke-width="1" />
<path d="M13.0,-13.0 L2.4467269382426413,-6.619542661598709 L1.407821661740677,-6.455200606290241" fill-opacity="0" stroke="black" stroke-width="1" />
<path d="M13.0,13.0 L2.4467269382426413,6.619542661598709 L1.407821661740677,6.455200606290241" fill-opacity="0" stroke="black" stroke-width="1" />
<path d="M13.0,87.0 L2.4467269382426413,93.3804573384013 L1.407821661740677,93.54479939370975" fill-opacity="0" stroke="black" stroke-width="1" />
<path d="M13.0,-87.0 L2.4467269382426413,-93.3804573384013 L1.407821661740677,-93.54479939370975" fill-opacity="0" stroke="black" stroke-width="1" />
<path d="M2.4467269382426413,-6.619542661598709 L1.407821661740677,-6.455200606290241 L1.0440612055744203,-4.770636616231361" fill-opacity="0" stroke="black" stroke-width="1" />
<path d="M2.4467269382426413,6.619542661598709 L1.407821661740677,6.455200606290241 L1.0440612055744203,4.770636616231361" fill-opacity="0" stroke="black" stroke-width="1" />
<path d="M2.4467269382426413,93.3804573384013 L1.407821661740677,93.54479939370975 L1.0440612055744203,95.22936338376864" fill-opacity="0" stroke="black" stroke-width="1" />
<path d="M2.4467269382426413,-93.3804573384013 L1.407821661740677,-93.54479939370975 L1.0440612055744203,-95.22936338376864" fill-opacity="0" stroke="black" stroke-width="1" />
<path d="M1.407821661740677,-6.455200606290241 L1.0440612055744203,-4.770636616231361 L0.0,-0.0" fill-opacity="0" stroke="black" stroke-width="1" />
<path d="M1.407821661740677,6.455200606290241 L1.0440612055744203,4.770636616231361 L0.0,-0.0" fill-opacity="0" stroke="black" stroke-width="1" />
<path d="M1.407821661740677,93.54479939370975 L1.0440612055744203,95.22936338376864 L0.0,100.0" fill-opacity="0" stroke="black" stroke-width="1" />
<path d="M1.407821661740677,-93.54479939370975 L1.0440612055744203,-95.22936338376864 L0.0,-100.0" fill-opacity="0" stroke="black" stroke-width="1" />
<path d="M0.0,86.0 L-4.818036521898716,85.91014440656976 L-5.031162561012602,85.82068039147977" fill-opacity="0" stroke="black" stroke-width="1" />
<path d="M0.0,-14.0 L-4.818036521898716,-14.089855593430244 L-5.031162561012602,-14.179319608520235" fill-opacity="0" stroke="black" stroke-width="1" />
<path d="M0.0,14.0 L-4.818036521898716,14.089855593430244 L-5.031162561012602,14.179319608520231" fill-opacity="0" stroke="black" stroke-width="1" />
<path d="M0.0,-86.0 L-4.818036521898716,-85.91014440656976 L-5.031162561012602,-85.82068039147977" fill-opacity="0" stroke="black" stroke-width="1" />
<path d="M-4.818036521898716,85.91014440656976 L-5.031162561012602,85.82068039147977 L-6.919140814593005,82.38731588943898" fill-opacity="0" stroke="black" stroke-width="1" />
<path d="M-4.818036521898716,-14.089855593430244 L-5.031162561012602,-14.179319608520235 L-6.919140814593005,-17.612684110561013" fill-opacity="0" stroke="black" stroke-width="1" />
<path d="M-4.818036521898716,14.089855593430244 L-5.031162561012602,14.179319608520231 L-6.919140814593005,17.61268411056102" fill-opacity="0" stroke="black" stroke-width="1" />
<path d="M-4.818036521898716,-85.91014440656976 L-5.031162561012602,-85.82068039147977 L-6.919140814593005,-82.38731588943898" fill-opacity="0" stroke="black" stroke-width="1" />
<path d="M-5.031162561012602,85.82068039147977 L-6.919140814593005,82.38731588943898 L-7.287144696743461,81.50128635457375" fill-opacity="0" stroke="black" stroke-width="1" />
<path d="M-5.031162561012602,-14.179319608520235 L-6.919140814593005,-17.612684110561013 L-7.287144696743461,-18.49871364542625" fill-opacity="0" stroke="black" stroke-width="1" />
<path d="M-5.031162561012602,14.179319608520231 L-6.919140814593005,17.61268411056102 L-7.287144696743461,18.49871364542625" fill-opacity="0" stroke="black" stroke-width="1" />
<path d="M-5.031162561012602,-85.82068039147977 L-6.919140814593005,-82.38731588943898 L-7.287144696743461,-81.50128635457375" fill-opacity="0" stroke="black" stroke-width="1" />
<path d="M-6.919140814593005,82.38731588943898 L-7.287144696743461,81.50128635457375 L-8.376639377305416,76.94617822739609" fill-opacity="0" stroke="black" stroke-width="1" />
<path d="M-6.919140814593005,-17.612684110561013 L-7.287144696743461,-18.49871364542625 L-8.376639377305416,-23.05382177260391" fill-opacity="0" stroke="black" stroke-width="1" />
<path d="M-6.919140814593005,17.61268411056102 L-7.287144696743461,18.49871364542625 L-8.376639377305416,23.05382177260391" fill-opacity="0" stroke="black" stroke-width="1" />
<path d="M-6.919140814593005,-82.38731588943898 L-7.287144696743461,-81.50128635457375 L-8.376639377305416,-76.94617822739609" fill-opacity="0" stroke="black" stroke-width="1" />
<path d="M-7.287144696743461,81.50128635457375 L-8.376639377305416,76.94617822739609 L0.0,65.0" fill-opacity="0" stroke="black" stroke-width="1" />
<path d="M-7.287144696743461,-18.49871364542625 L-8.376639377305416,-23.05382177260391 L0.0,-35.0" fill-opacity="0" stroke="black" stroke-width="1" />
<path d="M-7.287144696743461,18.49871364542625 L-8.376639377305416,23.05382177260391 L0.0,35.0" fill-opacity="0" stroke="black" stroke-width="1" />
<path d="M-7.287144696743461,-81.50128635457375 L-8.376639377305416,-76.94617822739609 L0.0,-65.0" fill-opacity="0" stroke="black" stroke-width="1" />
<path d="M0.0,65.0 L-9.488697266406836,64.58609005753709 L-9.736950899204489,62.989419407354575" fill-opacity="0" stroke="black" stroke-width="1" />
<path d="M0.0,-35.0 L-9.488697266406836,-35.4139099424629 L-9.736950899204489,-37.010580592645425" fill-opacity="0" stroke="black" stroke-width="1" />
<path d="M0.0,35.0 L-9.488697266406836,35.41390994246291 L-9.736950899204489,37.010580592645425" fill-opacity="0" stroke="black" stroke-width="1" />
<path d="M0.0,-65.0 L-9.488697266406836,-64.58609005753709 L-9.736950899204489,-62.989419407354575" fill-opacity="0" stroke="black" stroke-width="1" />
<path d="M-9.488697266406836,64.58609005753709 L-9.736950899204489,62.989419407354575 L0.0,54.0" fill-opacity="0" stroke="black" stroke-width="1" />
<path d="M-9.488697266406836,-35.4139099424629 L-9.736950899204489,-37.010580592645425 L0.0,-46.0" fill-opacity="0" stroke="black" stroke-width="1" />
<path d="M-9.488697266406836,35.41390994246291 L-9.736950899204489,37.010580592645425 L0.0,46.0" fill-opacity="0" stroke="black" stroke-width="1" />
<path d="M-9.488697266406836,-64.58609005753709 L-9.736950899204489,-62.989419407354575 L0.0,-54.0" fill-opacity="0" stroke="black" stroke-width="1" />
<path d="M-7.0,50.0 L-13.183866567734615,62.572462552284385 L-15.0,50.0" fill-opacity="0" stroke="black" stroke-width="1" />
<path d="M-7.0,-50.0 L-13.183866567734615,-37.427537447715615 L-15.0,-50.0" fill-opacity="0" stroke="black" stroke-width="1" />
<path d="M-7.0,50.0 L-13.183866567734615,37.427537447715615 L-15.0,50.0" fill-opacity="0" stroke="black" stroke-width="1" />
<path d="M-7.0,-50.0 L-13.183866567734615,-62.572462552284385 L-15.0,-50.0" fill-opacity="0" stroke="black" stroke-width="1" />
<path d="M-15.0,50.0 L-15.218898362304461,61.889393478011634 L-19.326981362225034,56.87865113657776" fill-opacity="0" stroke="black" stroke-width="1" />
<path d="M-15.0,-50.0 L-15.218898362304461,-38.110606521988366 L-19.326981362225034,-43.12134886342224" fill-opacity="0" stroke="black" stroke-width="1" />
<path d="M-15.0,50.0 L-15.218898362304461,38.110606521988366 L-19.326981362225034,43.12134886342224" fill-opacity="0" stroke="black" stroke-width="1" />
<path d="M-15.0,-50.0 L-15.218898362304461,-61.889393478011634 L-19.326981362225034,-56.87865113657776" fill-opacity="0" stroke="black" stroke-width="1" />
<path d="M-15.218898362304461,61.889393478011634 L-19.326981362225034,56.87865113657776 L-19.640762882621964,55.86347420569228" fill-opacity="0" stroke="black" stroke-width="1" />
<path d="M-15.218898362304461,-38.110606521988366 L-19.326981362225034,-43.12134886342224 L-19.640762882621964,-44.13652579430772" fill-opacity="0" stroke="black" stroke-width="1" />
<path d="M-15.218898362304461,38.110606521988366 L-19.326981362225034,43.12134886342224 L-19.640762882621964,44.13652579430772" fill-opacity="0" stroke="black" stroke-width="1" />
<path d="M-15.218898362304461,-61.889393478011634 L-19.326981362225034,-56.87865113657776 L-19.640762882621964,-55.86347420569228" fill-opacity="0" stroke="black" stroke-width="1" />
<path d="M-19.326981362225034,56.87865113657776 L-19.640762882621964,55.86347420569228 L-21.860119774576653,53.88458382430246" fill-opacity="0" stroke="black" stroke-width="1" />
<path d="M-19.326981362225034,-43.12134886342224 L-19.640762882621964,-44.13652579430772 L-21.860119774576653,-46.11541617569754" fill-opacity="0" stroke="black" stroke-width="1" />
<path d="M-19.326981362225034,43.12134886342224 L-19.640762882621964,44.13652579430772 L-21.860119774576653,46.11541617569754" fill-opacity="0" stroke="black" stroke-width="1" />
<path d="M-19.326981362225034,-56.87865113657776 L-19.640762882621964,-55.86347420569228 L-21.860119774576653,-53.88458382430246" fill-opacity="0" stroke="black" stroke-width="1" />
<path d="M-19.640762882621964,55.86347420569228 L-21.860119774576653,53.88458382430246 L-22.58233003774198,53.72088183238698" fill-opacity="0" stroke="black" stroke-width="1" />
<path d="M-19.640762882621964,-44.13652579430772 L-21.860119774576653,-46.11541617569754 L-22.58233003774198,-46.27911816761302" fill-opacity="0" stroke="black" stroke-width="1" />
<path d="M-19.640762882621964,44.13652579430772 L-21.860119774576653,46.11541617569754 L-22.58233003774198,46.27911816761302" fill-opacity="0" stroke="black" stroke-width="1" />
<path d="M-19.640762882621964,-55.86347420569228 L-21.860119774576653,-53.88458382430246 L-22.58233003774198,-53.72088183238698" fill-opacity="0" stroke="black" stroke-width="1" />
<path d="M-21.860119774576653,53.88458382430246 L-22.58233003774198,53.72088183238698 L-31.27170549822799,52.13521631698909" fill-opacity="0" stroke="black" stroke-width="1" />
<path d="M-21.860119774576653,-46.11541617569754 L-22.58233003774198,-46.27911816761302 L-31.27170549822799,-47.86478368301091" fill-opacity="0" stroke="black" stroke-width="1" />
<path d="M-21.860119774576653,46.11541617569754 L-22.58233003774198,46.27911816761302 L-31.27170549822799,47.86478368301091" fill-opacity="0" stroke="black" stroke-width="1" />
<path d="M-21.860119774576653,-53.88458382430246 L-22.58233003774198,-53.72088183238698 L-31.27170549822799,-52.13521631698909" fill-opacity="0" stroke="black" stroke-width="1" />
<path d="M-22.58233003774198,53.72088183238698 L-31.27170549822799,52.13521631698909 L-31.56183889058409,51.45280410035868" fill-opacity="0" stroke="black" stroke-width="1" />
<path d="M-22.58233003774198,-46.27911816761302 L-31.27170549822799,-47.86478368301091 L-31.56183889058409,-48.54719589964132" fill-opacity="0" stroke="black" stroke-width="1" />
<path d="M-22.58233003774198,46.27911816761302 L-31.27170549822799,47.86478368301091 L-31.56183889058409,48.54719589964132" fill-opacity="0" stroke="black" stroke-width="1" />
<path d="M-22.58233003774198,-53.72088183238698 L-31.27170549822799,-52.13521631698909 L-31.56183889058409,-51.45280410035868" fill-opacity="0" stroke="black" stroke-width="1" />
<path d="M-31.27170549822799,52.13521631698909 L-31.56183889058409,51.45280410035868 L-34.31179322496135,51.312167777470705" fill-opacity="0" stroke="black" stroke-width="1" />
<path d="M-31.27170549822799,-47.86478368301091 L-31.56183889058409,-48.54719589964132 L-34.31179322496135,-48.687832222529295" fill-opacity="0" stroke="black" stroke-width="1" />
<path d="M-31.27170549822799,47.86478368301091 L-31.56183889058409,48.54719589964132 L-34.31179322496135,48.687832222529295" fill-opacity="0" stroke="black" stroke-width="1" />
<path d="M-31.27170549822799,-52.13521631698909 L-31.56183889058409,-51.45280410035868 L-34.31179322496135,-51.312167777470705" fill-opacity="0" stroke="black" stroke-width="1" />
<path d="M-31.56183889058409,51.45280410035868 L-34.31179322496135,51.312167777470705 L-46.0,50.0" fill-opacity="0" stroke="black" stroke-width="1" />
<path d="M-31.56183889058409,-48.54719589964132 L-34.31179322496135,-48.687832222529295 L-46.0,-50.0" fill-opacity="0" stroke="black" stroke-width="1" />
<path d="M-31.56183889058409,48.54719589964132 L-34.31179322496135,48.687832222529295 L-46.0,50.0" fill-opacity="0" stroke="black" stroke-width="1" />
<path d="M-31.56183889058409,-51.45280410035868 L-34.31179322496135,-51.312167777470705 L-46.0,-50.0" fill-opacity="0" stroke="black" stroke-width="1" />
<path d="M-13.0,87.0 L-2.4467269382426413,93.38045733840129 L-1.407821661740677,93.54479939370975" fill-opacity="0" stroke="black" stroke-width="1" />
<path d="M-13.0,-13.0 L-2.4467269382426413,-6.619542661598709 L-1.407821661740677,-6.455200606290241" fill-opacity="0" stroke="black" stroke-width="1" />
<path d="M-13.0,13.0 L-2.4467269382426413,6.6195426615987145 L-1.407821661740677,6.455200606290248" fill-opacity="0" stroke="black" stroke-width="1" />
<path d="M-13.0,-87.0 L-2.4467269382426413,-93.3804573384013 L-1.407821661740677,-93.54479939370975" fill-opacity="0" stroke="black" stroke-width="1" />
<path d="M-2.4467269382426413,93.38045733840129 L-1.407821661740677,93.54479939370975 L-1.0440612055744203,95.22936338376864" fill-opacity="0" stroke="black" stroke-width="1" />
<path d="M-2.4467269382426413,-6.619542661598709 L-1.407821661740677,-6.455200606290241 L-1.0440612055744203,-4.770636616231361" fill-opacity="0" stroke="black" stroke-width="1" />
<path d="M-2.4467269382426413,6.6195426615987145 L-1.407821661740677,6.455200606290248 L-1.0440612055744203,4.770636616231357" fill-opacity="0" stroke="black" stroke-width="1" />
<path d="M-2.4467269382426413,-93.3804573384013 L-1.407821661740677,-93.54479939370975 L-1.0440612055744203,-95.22936338376864" fill-opacity="0" stroke="black" stroke-width="1" />
<path d="M-1.407821661740677,93.54479939370975 L-1.0440612055744203,95.22936338376864 L0.0,100.0" fill-opacity="0" stroke="black" stroke-width="1" />
<path d="M-1.407821661740677,-6.455200606290241 L-1.0440612055744203,-4.770636616231361 L0.0,-0.0" fill-opacity="0" stroke="black" stroke-width="1" />
<path d="M-1.407821661740677,6.455200606290248 L-1.0440612055744203,4.770636616231357 L0.0,-0.0" fill-opacity="0" stroke="black" stroke-width="1" />
<path d="M-1.407821661740677,-93.54479939370975 L-1.0440612055744203,-95.22936338376864 L0.0,-100.0" fill-opacity="0" stroke="black" stroke-width="1" />
<path d="M-86.0,-0.0 L-85.91014440656976,-4.818036521898716 L-85.82068039147977,-5.031162561012602" fill-opacity="0" stroke="black" stroke-width="1" />
<path d="M-86.0,-0.0 L-85.91014440656976,4.818036521898716 L-85.82068039147977,5.031162561012602" fill-opacity="0" stroke="black" stroke-width="1" />
<path d="M-85.91014440656976,-4.818036521898716 L-85.82068039147977,-5.031162561012602 L-82.38731588943898,-6.919140814593005" fill-opacity="0" stroke="black" stroke-width="1" />
<path d="M-85.91014440656976,4.818036521898716 L-85.82068039147977,5.031162561012602 L-82.38731588943898,6.919140814593005" fill-opacity="0" stroke="black" stroke-width="1" />
<path d="M-85.82068039147977,-5.031162561012602 L-82.38731588943898,-6.919140814593005 L-81.50128635457375,-7.287144696743461" fill-opacity="0" stroke="black" stroke-width="1" />
<path d="M-85.82068039147977,5.031162561012602 L-82.38731588943898,6.919140814593005 L-81.50128635457375,7.287144696743461" fill-opacity="0" stroke="black" stroke-width="1" />
<path d="M-82.38731588943898,-6.919140814593005 L-81.50128635457375,-7.287144696743461 L-76.94617822739609,-8.376639377305416" fill-opacity="0" stroke="black" stroke-width="1" />
<path d="M-82.38731588943898,6.919140814593005 L-81.50128635457375,7.287144696743461 L-76.94617822739609,8.376639377305416" fill-opacity="0" stroke="black" stroke-width="1" />
<path d="M-81.50128635457375,-7.287144696743461 L-76.94617822739609,-8.376639377305416 L-65.0,-0.0" fill-opacity="0" stroke="black" stroke-width="1" />
<path d="M-81.50128635457375,7.287144696743461 L-76.94617822739609,8.376639377305416 L-65.0,-0.0" fill-opacity="0" stroke="black" stroke-width="1" />
<path d="M-65.0,-0.0 L-64.58609005753709,-9.488697266406836 L-62.989419407354575,-9.736950899204489" fill-opacity="0" stroke="black" stroke-width="1" />
<path d="M-65.0,-0.0 L-64.58609005753709,9.488697266406836 L-62.989419407354575,9.736950899204489" fill-opacity="0" stroke="black" stroke-width="1" />
<path d="M-64.58609005753709,-9.488697266406836 L-62.989419407354575,-9.736950899204489 L-54.0,-0.0" fill-opacity="0" stroke="black" stroke-width="1" />
<path d="M-64.58609005753709,9.488697266406836 L-62.989419407354575,9.736950899204489 L-54.0,-0.0" fill-opacity="0" stroke="black" stroke-width="1" />
<path d="M-50.0,-7.0 L-62.572462552284385,-13.183866567734615 L-50.0,-15.0" fill-opacity="0" stroke="black" stroke-width="1" />
<path d="M-50.0,7.0 L-62.572462552284385,13.183866567734615 L-50.0,15.0" fill-opacity="0" stroke="black" stroke-width="1" />
<path d="M-50.0,-15.0 L-61.889393478011634,-15.218898362304461 L-56.87865113657776,-19.326981362225034" fill-opacity="0" stroke="black" stroke-width="1" />
<path d="M-50.0,15.0 L-61.889393478011634,15.218898362304461 L-56.87865113657776,19.326981362225034" fill-opacity="0" stroke="black" stroke-width="1" />
<path d="M-61.889393478011634,-15.218898362304461 L-56.87865113657776,-19.326981362225034 L-55.86347420569228,-19.640762882621964" fill-opacity="0" stroke="black" stroke-width="1" />
<path d="M-61.889393478011634,15.218898362304461 L-56.87865113657776,19.326981362225034 L-55.86347420569228,19.640762882621964" fill-opacity="0" stroke="black" stroke-width="1" />
<path d="M-56.87865113657776,-19.326981362225034 L-55.86347420569228,-19.640762882621964 L-53.88458382430246,-21.860119774576653" fill-opacity="0" stroke="black" stroke-width="1" />
<path d="M-56.87865113657776,19.326981362225034 L-55.86347420569228,19.640762882621964 L-53.88458382430246,21.860119774576653" fill-opacity="0" stroke="black" stroke-width="1" />
<path d="M-55.86347420569228,-19.640762882621964 L-53.88458382430246,-21.860119774576653 L-53.72088183238698,-22.58233003774198" fill-opacity="0" stroke="black" stroke-width="1" />
<path d="M-55.86347420569228,19.640762882621964 L-53.88458382430246,21.860119774576653 L-53.72088183238698,22.58233003774198" fill-opacity="0" stroke="black" stroke-width="1" />
<path d="M-53.88458382430246,-21.860119774576653 L-53.72088183238698,-22.58233003774198 L-52.13521631698909,-31.27170549822799" fill-opacity="0" stroke="black" stroke-width="1" />
<path d="M-53.88458382430246,21.860119774576653 L-53.72088183238698,22.58233003774198 L-52.13521631698909,31.27170549822799" fill-opacity="0" stroke="black" stroke-width="1" />
<path d="M-53.72088183238698,-22.58233003774198 L-52.13521631698909,-31.27170549822799 L-51.45280410035868,-31.56183889058409" fill-opacity="0" stroke="black" stroke-width="1" />
<path d="M-53.72088183238698,22.58233003774198 L-52.13521631698909,31.27170549822799 L-51.45280410035868,31.56183889058409" fill-opacity="0" stroke="black" stroke-width="1" />
<path d="M-52.13521631698909,-31.27170549822799 L-51.45280410035868,-31.56183889058409 L-51.312167777470705,-34.31179322496135" fill-opacity="0" stroke="black" stroke-width="1" />
<path d="M-52.13521631698909,31.27170549822799 L-51.45280410035868,31.56183889058409 L-51.312167777470705,34.31179322496135" fill-opacity="0" stroke="black" stroke-width="1" />
<path d="M-51.45280410035868,-31.56183889058409 L-51.312167777470705,-34.31179322496135 L-50.0,-46.0" fill-opacity="0" stroke="black" stroke-width="1" />
<path d="M-51.45280410035868,31.56183889058409 L-51.312167777470705,34.31179322496135 L-50.0,46.0" fill-opacity="0" stroke="black" stroke-width="1" />
<path d="M-50.0,-46.0 L-52.0,-48.0 L-74.0,-26.0" fill-opacity="0" stroke="black" stroke-width="1" />
<path d="M-50.0,46.0 L-52.0,48.0 L-74.0,26.0" fill-opacity="0" stroke="black" stroke-width="1" />
<path d="M-52.0,-48.0 L-74.0,-26.0 L-75.0,-25.0" fill-opacity="0" stroke="black" stroke-width="1" />
<path d="M-52.0,48.0 L-74.0,26.0 L-75.0,25.0" fill-opacity="0" stroke="black" stroke-width="1" />
<path d="M-74.0,-26.0 L-75.0,-25.0 L-87.0,-13.0" fill-opacity="0" stroke="black" stroke-width="1" />
<path d="M-74.0,26.0 L-75.0,25.0 L-87.0,13.0" fill-opacity="0" stroke="black" stroke-width="1" />
<path d="M-75.0,-25.0 L-87.0,-13.0 L-93.3804573384013,-2.4467269382426413" fill-opacity="0" stroke="black" stroke-width="1" />
<path d="M-75.0,25.0 L-87.0,13.0 L-93.3804573384013,2.4467269382426413" fill-opacity="0" stroke="black" stroke-width="1" />
<path d="M-87.0,-13.0 L-93.3804573384013,-2.4467269382426413 L-93.54479939370975,-1.407821661740677" fill-opacity="0" stroke="black" stroke-width="1" />
<path d="M-87.0,13.0 L-93.3804573384013,2.4467269382426413 L-93.54479939370975,1.407821661740677" fill-opacity="0" stroke="black" stroke-width="1" />
<path d="M-93.3804573384013,-2.4467269382426413 L-93.54479939370975,-1.407821661740677 L-95.22936338376864,-1.0440612055744203" fill-opacity="0" stroke="black" stroke-width="1" />
<path d="M-93.3804573384013,2.4467269382426413 L-93.54479939370975,1.407821661740677 L-95.22936338376864,1.0440612055744203" fill-opacity="0" stroke="black" stroke-width="1" />
<path d="M-93.54479939370975,-1.407821661740677 L-95.22936338376864,-1.0440612055744203 L-100.0,-0.0" fill-opacity="0" stroke="black" stroke-width="1" />
<path d="M-93.54479939370975,1.407821661740677 L-95.22936338376864,1.0440612055744203 L-100.0,-0.0" fill-opacity="0" stroke="black" stroke-width="1" />
<circle cx="0" cy="-97" r="8" stroke-dasharray="39.653880605311166 10.611601852125524" stroke-dashoffset="-17.59291886010284" stroke="black" stroke-width="1" fill="white" fill-opacity="1" />
<circle cx="0" cy="-97" r="4" stroke="black" stroke-width="1" fill="white" fill-opacity="1" />
</svg>