<?xml version="1.0" encoding="UTF-8"?>
<svg xmlns="http://www.w3.org/2000/svg" xmlns:xlink="http://www.w3.org/1999/xlink"
     width="250" height="250" viewBox="-125.0 -125.0 250 250">
<defs>
</defs>
<path d="M8.0,-0.0 L9.312041414825934,-0.15730467973570084 L12.28222815587398,-1.4607273254775677" fill="orange" fill-opacity="0.6" stroke="black" stroke-width="1" />
<path d="M8.0,-0.0 L9.312041414825934,0.15730467973570084 L12.28222815587398,1.4607273254775677" fill="yellow" fill-opacity="0.6" stroke="black" stroke-width="1" />
<path d="M9.312041414825934,-0.15730467973570084 L12.28222815587398,-1.4607273254775677 L14.0,-0.0" fill="pink" fill-opacity="0.6" stroke="black" stroke-width="1" />
<path d="M9.312041414825934,0.15730467973570084 L12.28222815587398,1.4607273254775677 L14.0,-0.0" fill="yellow" fill-opacity="0.6" stroke="black" stroke-width="1" />
<path d="M14.0,-0.0 L14.452872932464256,-2.3266825020630932 L14.825648854777407,-2.7396886594466348" fill="purple" fill-opacity="0.6" stroke="black" stroke-width="1" />
<path d="M14.0,-0.0 L14.452872932464256,2.3266825020630932 L14.825648854777407,2.7396886594466348" fill="red" fill-opacity="0.6" stroke="black" stroke-width="1" />
<path d="M14.452872932464256,-2.3266825020630932 L14.825648854777407,-2.7396886594466348 L16.62160459152033,-4.676081828265623" fill="pink" fill-opacity="0.6" stroke="black" stroke-width="1" />
<path d="M14.452872932464256,2.3266825020630932 L14.825648854777407,2.7396886594466348 L16.62160459152033,4.676081828265623" fill="orange" fill-opacity="0.6" stroke="black" stroke-width="1" />
<path d="M14.825648854777407,-2.7396886594466348 L16.62160459152033,-4.676081828265623 L18.0,-0.0" fill="green" fill-opacity="0.6" stroke="black" stroke-width="1" />
<path d="M14.825648854777407,2.7396886594466348 L16.62160459152033,4.676081828265623 L18.0,-0.0" fill="blue" fill-opacity="0.6" stroke="black" stroke-width="1" />
<path d="M18.0,-0.0 L20.4672394716311,-8.534851133052328 L20.98010488166256,-9.893712519722003" fill="pink" fill-opacity="0.6" stroke="black" stroke-width="1" />
<path d="M18.0,-0.0 L20.4672394716311,8.534851133052328 L20.98010488166256,9.893712519722003" fill="blue" fill-opacity="0.6" stroke="black" stroke-width="1" />
<path d="M20.4672394716311,-8.534851133052328 L20.98010488166256,-9.893712519722003 L37.36817317748404,-10.024831659567523" fill="orange" fill-opacity="0.6" stroke="black" stroke-width="1" />
<path d="M20.4672394716311,8.534851133052328 L20.98010488166256,9.893712519722003 L37.36817317748404,10.024831659567523" fill="yellow" fill-opacity="0.6" stroke="black" stroke-width="1" />
<path d="M20.98010488166256,-9.893712519722003 L37.36817317748404,-10.024831659567523 L37.96121198753616,-10.571107089536172" fill="orange" fill-opacity="0.6" stroke="black" stroke-width="1" />
<path d="M20.98010488166256,9.893712519722003 L37.36817317748404,10.024831659567523 L37.96121198753616,10.571107089536172" fill="brown" fill-opacity="0.6" stroke="black" stroke-width="1" />
<path d="M37.36817317748404,-10.024831659567523 L37.96121198753616,-10.571107089536172 L38.065571603904644,-10.998267213476826" fill="pink" fill-opacity="0.6" stroke="black" stroke-width="1" />
<path d="M37.36817317748404,10.024831659567523 L37.96121198753616,10.571107089536172 L38.065571603904644,10.998267213476826" fill="orange" fill-opacity="0.6" stroke="black" stroke-width="1" />
<path d="M37.96121198753616,-10.571107089536172 L38.065571603904644,-10.998267213476826 L50.0,-0.0" fill="yellow" fill-opacity="0.6" stroke="black" stroke-width="1" />
<path d="M37.96121198753616,10.571107089536172 L38.065571603904644,10.998267213476826 L50.0,-0.0" fill="red" fill-opacity="0.6" stroke="black" stroke-width="1" />
<path d="M50.0,-0.0 L39.575020558141816,-12.582669535831231 L39.85473834385072,-13.483316134514405" fill="orange" fill-opacity="0.6" stroke="black" stroke-width="1" />
<path d="M50.0,-0.0 L39.575020558141816,12.582669535831231 L39.85473834385072,13.483316134514405" fill="yellow" fill-opacity="0.6" stroke="black" stroke-width="1" />
<path d="M39.575020558141816,-12.582669535831231 L39.85473834385072,-13.483316134514405 L50.0,-14.0" fill="black" fill-opacity="0.6" stroke="black" stroke-width="1" />
<path d="M39.575020558141816,12.582669535831231 L39.85473834385072,13.483316134514405 L50.0,14.0" fill="purple" fill-opacity="0.6" stroke="black" stroke-width="1" />
<path d="M50.0,-18.0 L39.921900156806466,-18.127290746928495 L41.109996163774056,-19.3931504627085" fill="brown" fill-opacity="0.6" stroke="black" stroke-width="1" />
<path d="M50.0,18.0 L39.921900156806466,18.127290746928495 L41.109996163774056,19.3931504627085" fill="brown" fill-opacity="0.6" stroke="black" stroke-width="1" />
<path d="M39.921900156806466,-18.127290746928495 L41.109996163774056,-19.3931504627085 L41.36007505171111,-24.61093205448133" fill="brown" fill-opacity="0.6" stroke="black" stroke-width="1" />
<path d="M39.921900156806466,18.127290746928495 L41.109996163774056,19.3931504627085 L41.36007505171111,24.61093205448133" fill="yellow" fill-opacity="0.6" stroke="black" stroke-width="1" />
<path d="M41.109996163774056,-19.3931504627085 L41.36007505171111,-24.61093205448133 L43.174849413846275,-29.622646756381055" fill="yellow" fill-opacity="0.6" stroke="black" stroke-width="1" />
<path d="M41.109996163774056,19.3931504627085 L41.36007505171111,24.61093205448133 L43.174849413846275,29.622646756381055" fill="black" fill-opacity="0.6" stroke="black" stroke-width="1" />
<path d="M41.36007505171111,-24.61093205448133 L43.174849413846275,-29.622646756381055 L45.328796388260294,-30.78982195878047" fill="orange" fill-opacity="0.6" stroke="black" stroke-width="1" />
<path d="M41.36007505171111,24.61093205448133 L43.174849413846275,29.622646756381055 L45.328796388260294,30.78982195878047" fill="pink" fill-opacity="0.6" stroke="black" stroke-width="1" />
<path d="M43.174849413846275,-29.622646756381055 L45.328796388260294,-30.78982195878047 L47.87550788728271,-33.74629345549568" fill="brown" fill-opacity="0.6" stroke="black" stroke-width="1" />
<path d="M43.174849413846275,29.622646756381055 L45.328796388260294,30.78982195878047 L47.87550788728271,33.74629345549568" fill="orange" fill-opacity="0.6" stroke="black" stroke-width="1" />
<path d="M45.328796388260294,-30.78982195878047 L47.87550788728271,-33.74629345549568 L49.129401589257995,-39.06736120341736" fill="red" fill-opacity="0.6" stroke="black" stroke-width="1" />
<path d="M45.328796388260294,30.78982195878047 L47.87550788728271,33.74629345549568 L49.129401589257995,39.06736120341736" fill="yellow" fill-opacity="0.6" stroke="black" stroke-width="1" />
<path d="M47.87550788728271,-33.74629345549568 L49.129401589257995,-39.06736120341736 L50.0,-40.0" fill="pink" fill-opacity="0.6" stroke="black" stroke-width="1" />
<path d="M47.87550788728271,33.74629345549568 L49.129401589257995,39.06736120341736 L50.0,40.0" fill="black" fill-opacity="0.6" stroke="black" stroke-width="1" />
<path d="M16.0,84.0 L12.0,88.0 L11.0,89.0" fill="pink" fill-opacity="0.6" stroke="black" stroke-width="1" />
<path d="M16.0,-84.0 L12.0,-88.0 L11.0,-89.0" fill="blue" fill-opacity="0.6" stroke="black" stroke-width="1" />
<path d="M12.0,88.0 L11.0,89.0 L0.0,100.0" fill="pink" fill-opacity="0.6" stroke="black" stroke-width="1" />
<path d="M12.0,-88.0 L11.0,-89.0 L0.0,-100.0" fill="orange" fill-opacity="0.6" stroke="black" stroke-width="1" />
<path d="M-8.0,-0.0 L-9.312041414825934,-0.15730467973570084 L-12.28222815587398,-1.4607273254775677" fill="black" fill-opacity="0.6" stroke="black" stroke-width="1" />
<path d="M-8.0,-0.0 L-9.312041414825934,0.15730467973570084 L-12.28222815587398,1.4607273254775677" fill="yellow" fill-opacity="0.6" stroke="black" stroke-width="1" />
<path d="M-9.312041414825934,-0.15730467973570084 L-12.28222815587398,-1.4607273254775677 L-14.0,-0.0" fill="brown" fill-opacity="0.6" stroke="black" stroke-width="1" />
<path d="M-9.312041414825934,0.15730467973570084 L-12.28222815587398,1.4607273254775677 L-14.0,-0.0" fill="blue" fill-opacity="0.6" stroke="black" stroke-width="1" />
<path d="M-14.0,-0.0 L-14.452872932464256,-2.3266825020630932 L-14.825648854777407,-2.7396886594466348" fill="pink" fill-opacity="0.6" stroke="black" stroke-width="1" />
<path d="M-14.0,-0.0 L-14.452872932464256,2.3266825020630932 L-14.825648854777407,2.7396886594466348" fill="brown" fill-opacity="0.6" stroke="black" stroke-width="1" />
<path d="M-14.452872932464256,-2.3266825020630932 L-14.825648854777407,-2.7396886594466348 L-16.62160459152033,-4.676081828265623" fill="yellow" fill-opacity="0.6" stroke="black" stroke-width="1" />
<path d="M-14.452872932464256,2.3266825020630932 L-14.825648854777407,2.7396886594466348 L-16.62160459152033,4.676081828265623" fill="orange" fill-opacity="0.6" stroke="black" stroke-width="1" />
<path d="M-14.825648854777407,-2.7396886594466348 L-16.62160459152033,-4.676081828265623 L-18.0,-0.0" fill="pink" fill-opacity="0.6" stroke="black" stroke-width="1" />
<path d="M-14.825648854777407,2.7396886594466348 L-16.62160459152033,4.676081828265623 L-18.0,-0.0" fill="black" fill-opacity="0.6" stroke="black" stroke-width="1" />
<path d="M-18.0,-0.0 L-20.4672394716311,-8.534851133052328 L-20.98010488166256,-9.893712519722003" fill="yellow" fill-opacity="0.6" stroke="black" stroke-width="1" />
<path d="M-18.0,-0.0 L-20.4672394716311,8.534851133052328 L-20.98010488166256,9.893712519722003" fill="black" fill-opacity="0.6" stroke="black" stroke-width="1" />
<path d="M-20.4672394716311,-8.534851133052328 L-20.98010488166256,-9.893712519722003 L-37.36817317748404,-10.024831659567523" fill="red" fill-opacity="0.6" stroke="black" stroke-width="1" />
<path d="M-20.4672394716311,8.534851133052328 L-20.98010488166256,9.893712519722003 L-37.36817317748404,10.024831659567523" fill="purple" fill-opacity="0.6" stroke="black" stroke-width="1" />
<path d="M-20.98010488166256,-9.893712519722003 L-37.36817317748404,-10.024831659567523 L-37.96121198753616,-10.571107089536172" fill="blue" fill-opacity="0.6" stroke="black" stroke-width="1" />
<path d="M-20.98010488166256,9.893712519722003 L-37.36817317748404,10.024831659567523 L-37.96121198753616,10.571107089536172" fill="green" fill-opacity="0.6" stroke="black" stroke-width="1" />
<path d="M-37.36817317748404,-10.024831659567523 L-37.96121198753616,-10.571107089536172 L-38.065571603904644,-10.998267213476826" fill="black" fill-opacity="0.6" stroke="black" stroke-width="1" />
<path d="M-37.36817317748404,10.024831659567523 L-37.96121198753616,10.571107089536172 L-38.065571603904644,10.998267213476826" fill="orange" fill-opacity="0.6" stroke="black" stroke-width="1" />
<path d="M-37.96121198753616,-10.571107089536172 L-38.065571603904644,-10.998267213476826 L-50.0,-0.0" fill="purple" fill-opacity="0.6" stroke="black" stroke-width="1" />
<path d="M-37.96121198753616,10.571107089536172 L-38.065571603904644,10.998267213476826 L-50.0,-0.0" fill="orange" fill-opacity="0.6" stroke="black" stroke-width="1" />
<path d="M-50.0,-0.0 L-39.575020558141816,-12.582669535831231 L-39.85473834385072,-13.483316134514405" fill="green" fill-opacity="0.6" stroke="black" stroke-width="1" />
<path d="M-50.0,-0.0 L-39.575020558141816,12.582669535831231 L-39.85473834385072,13.483316134514405" fill="green" fill-opacity="0.6" stroke="black" stroke-width="1" />
<path d="M-39.575020558141816,-12.582669535831231 L-39.85473834385072,-13.483316134514405 L-50.0,-14.0" fill="green" fill-opacity="0.6" stroke="black" stroke-width="1" />
<path d="M-39.575020558141816,12.582669535831231 L-39.85473834385072,13.483316134514405 L-50.0,14.0" fill="purple" fill-opacity="0.6" stroke="black" stroke-width="1" />
<path d="M-50.0,-18.0 L-39.921900156806466,-18.127290746928495 L-41.109996163774056,-19.3931504627085" fill="black" fill-opacity="0.6" stroke="black" stroke-width="1" />
<path d="M-50.0,18.0 L-39.921900156806466,18.127290746928495 L-41.109996163774056,19.3931504627085" fill="green" fill-opacity="0.6" stroke="black" stroke-width="1" />
<path d="M-39.921900156806466,-18.127290746928495 L-41.109996163774056,-19.3931504627085 L-41.36007505171111,-24.61093205448133" fill="brown" fill-opacity="0.6" stroke="black" stroke-width="1" />
<path d="M-39.921900156806466,18.127290746928495 L-41.109996163774056,19.3931504627085 L-41.36007505171111,24.61093205448133" fill="red" fill-opacity="0.6" stroke="black" stroke-width="1" />
<path d="M-41.109996163774056,-19.3931504627085 L-41.36007505171111,-24.61093205448133 L-43.174849413846275,-29.622646756381055" fill="red" fill-opacity="0.6" stroke="black" stroke-width="1" />
<path d="M-41.109996163774056,19.3931504627085 L-41.36007505171111,24.61093205448133 L-43.174849413846275,29.622646756381055" fill="orange" fill-opacity="0.6" stroke="black" stroke-width="1" />
<path d="M-41.36007505171111,-24.61093205448133 L-43.174849413846275,-29.622646756381055 L-45.328796388260294,-30.78982195878047" fill="blue" fill-opacity="0.6" stroke="black" stroke-width="1" />
<path d="M-41.36007505171111,24.61093205448133 L-43.174849413846275,29.622646756381055 L-45.328796388260294,30.78982195878047" fill="purple" fill-opacity="0.6" stroke="black" stroke-width="1" />
<path d="M-43.174849413846275,-29.622646756381055 L-45.328796388260294,-30.78982195878047 L-47.87550788728271,-33.74629345549568" fill="blue" fill-opacity="0.6" stroke="black" stroke-width="1" />
<path d="M-43.174849413846275,29.622646756381055 L-45.328796388260294,30.78982195878047 L-47.87550788728271,33.74629345549568" fill="pink" fill-opacity="0.6" stroke="black" stroke-width="1" />
<path d="M-45.328796388260294,-30.78982195878047 L-47.87550788728271,-33.74629345549568 L-49.129401589257995,-39.06736120341736" fill="red" fill-opacity="0.6" stroke="black" stroke-width="1" />
<path d="M-45.328796388260294,30.78982195878047 L-47.87550788728271,33.74629345549568 L-49.129401589257995,39.06736120341736" fill="red" fill-opacity="0.6" stroke="black" stroke-width="1" />
<path d="M-47.87550788728271,-33.74629345549568 L-49.129401589257995,-39.06736120341736 L-50.0,-40.0" fill="yellow" fill-opacity="0.6" stroke="black" stroke-width="1" />
<path d="M-47.87550788728271,33.74629345549568 L-49.129401589257995,39.06736120341736 L-50.0,40.0" fill="orange" fill-opacity="0.6" stroke="black" stroke-width="1" />
<path d="M-16.0,84.0 L-12.0,88.0 L-11.0,89.0" fill="red" fill-opacity="0.6" stroke="black" stroke-width="1" />
<path d="M-16.0,-84.0 L-12.0,-88.0 L-11.0,-89.0" fill="black" fill-opacity="0.6" stroke="black" stroke-width="1" />
<path d="M-12.0,88.0 L-11.0,89.0 L0.0,100.0" fill="black" fill-opacity="0.6" stroke="black" stroke-width="1" />
<path d="M-12.0,-88.0 L-11.0,-89.0 L0.0,-100.0" fill="black" fill-opacity="0.6" stroke="black" stroke-width="1" />
<path d="M92.0,-0.0 L90.68795858517407,0.15730467973570084 L87.71777184412602,1.4607273254775677" fill="orange" fill-opacity="0.6" stroke="black" stroke-width="1" />
<path d="M92.0,-0.0 L90.68795858517407,-0.15730467973570084 L87.71777184412602,-1.4607273254775677" fill="yellow" fill-opacity="0.6" stroke="black" stroke-width="1" />
<path d="M90.68795858517407,0.15730467973570084 L87.71777184412602,1.4607273254775677 L86.0,-0.0" fill="red" fill-opacity="0.6" stroke="black" stroke-width="1" />
<path d="M90.68795858517407,-0.15730467973570084 L87.71777184412602,-1.4607273254775677 L86.0,-0.0" fill="purple" fill-opacity="0.6" stroke="black" stroke-width="1" />
<path d="M86.0,-0.0 L85.54712706753574,2.3266825020630932 L85.1743511452226,2.7396886594466348" fill="purple" fill-opacity="0.6" stroke="black" stroke-width="1" />
<path d="M86.0,-0.0 L85.54712706753574,-2.3266825020630932 L85.1743511452226,-2.7396886594466348" fill="pink" fill-opacity="0.6" stroke="black" stroke-width="1" />
<path d="M85.54712706753574,2.3266825020630932 L85.1743511452226,2.7396886594466348 L83.37839540847966,4.676081828265623" fill="orange" fill-opacity="0.6" stroke="black" stroke-width="1" />
<path d="M85.54712706753574,-2.3266825020630932 L85.1743511452226,-2.7396886594466348 L83.37839540847966,-4.676081828265623" fill="purple" fill-opacity="0.6" stroke="black" stroke-width="1" />
<path d="M85.1743511452226,2.7396886594466348 L83.37839540847966,4.676081828265623 L82.0,-0.0" fill="black" fill-opacity="0.6" stroke="black" stroke-width="1" />
<path d="M85.1743511452226,-2.7396886594466348 L83.37839540847966,-4.676081828265623 L82.0,-0.0" fill="green" fill-opacity="0.6" stroke="black" stroke-width="1" />
<path d="M82.0,-0.0 L79.5327605283689,8.534851133052328 L79.01989511833744,9.893712519722003" fill="yellow" fill-opacity="0.6" stroke="black" stroke-width="1" />
<path d="M82.0,-0.0 L79.5327605283689,-8.534851133052328 L79.01989511833744,-9.893712519722003" fill="pink" fill-opacity="0.6" stroke="black" stroke-width="1" />
<path d="M79.5327605283689,8.534851133052328 L79.01989511833744,9.893712519722003 L62.63182682251596,10.024831659567523" fill="brown" fill-opacity="0.6" stroke="black" stroke-width="1" />
<path d="M79.5327605283689,-8.534851133052328 L79.01989511833744,-9.893712519722003 L62.63182682251596,-10.024831659567523" fill="red" fill-opacity="0.6" stroke="black" stroke-width="1" />
<path d="M79.01989511833744,9.893712519722003 L62.63182682251596,10.024831659567523 L62.03878801246384,10.571107089536172" fill="orange" fill-opacity="0.6" stroke="black" stroke-width="1" />
<path d="M79.01989511833744,-9.893712519722003 L62.63182682251596,-10.024831659567523 L62.03878801246384,-10.571107089536172" fill="purple" fill-opacity="0.6" stroke="black" stroke-width="1" />
<path d="M62.63182682251596,10.024831659567523 L62.03878801246384,10.571107089536172 L61.934428396095356,10.998267213476826" fill="black" fill-opacity="0.6" stroke="black" stroke-width="1" />
<path d="M62.63182682251596,-10.024831659567523 L62.03878801246384,-10.571107089536172 L61.934428396095356,-10.998267213476826" fill="green" fill-opacity="0.6" stroke="black" stroke-width="1" />
<path d="M62.03878801246384,10.571107089536172 L61.934428396095356,10.998267213476826 L50.0,-0.0" fill="yellow" fill-opacity="0.6" stroke="black" stroke-width="1" />
<path d="M62.03878801246384,-10.571107089536172 L61.934428396095356,-10.998267213476826 L50.0,-0.0" fill="red" fill-opacity="0.6" stroke="black" stroke-width="1" />
<path d="M50.0,-0.0 L60.424979441858184,12.582669535831231 L60.14526165614928,13.483316134514405" fill="green" fill-opacity="0.6" stroke="black" stroke-width="1" />
<path d="M50.0,-0.0 L60.424979441858184,-12.582669535831231 L60.14526165614928,-13.483316134514405" fill="brown" fill-opacity="0.6" stroke="black" stroke-width="1" />
<path d="M60.424979441858184,12.582669535831231 L60.14526165614928,13.483316134514405 L50.0,14.0" fill="orange" fill-opacity="0.6" stroke="black" stroke-width="1" />
<path d="M60.424979441858184,-12.582669535831231 L60.14526165614928,-13.483316134514405 L50.0,-14.0" fill="red" fill-opacity="0.6" stroke="black" stroke-width="1" />
<path d="M50.0,18.0 L60.078099843193534,18.127290746928495 L58.890003836225944,19.3931504627085" fill="yellow" fill-opacity="0.6" stroke="black" stroke-width="1" />
<path d="M50.0,-18.0 L60.078099843193534,-18.127290746928495 L58.890003836225944,-19.3931504627085" fill="pink" fill-opacity="0.6" stroke="black" stroke-width="1" />
<path d="M60.078099843193534,18.127290746928495 L58.890003836225944,19.3931504627085 L58.63992494828889,24.61093205448133" fill="green" fill-opacity="0.6" stroke="black" stroke-width="1" />
<path d="M60.078099843193534,-18.127290746928495 L58.890003836225944,-19.3931504627085 L58.63992494828889,-24.61093205448133" fill="green" fill-opacity="0.6" stroke="black" stroke-width="1" />
<path d="M58.890003836225944,19.3931504627085 L58.63992494828889,24.61093205448133 L56.825150586153725,29.622646756381055" fill="blue" fill-opacity="0.6" stroke="black" stroke-width="1" />
<path d="M58.890003836225944,-19.3931504627085 L58.63992494828889,-24.61093205448133 L56.825150586153725,-29.622646756381055" fill="orange" fill-opacity="0.6" stroke="black" stroke-width="1" />
<path d="M58.63992494828889,24.61093205448133 L56.825150586153725,29.622646756381055 L54.671203611739706,30.78982195878047" fill="orange" fill-opacity="0.6" stroke="black" stroke-width="1" />
<path d="M58.63992494828889,-24.61093205448133 L56.825150586153725,-29.622646756381055 L54.671203611739706,-30.78982195878047" fill="yellow" fill-opacity="0.6" stroke="black" stroke-width="1" />
<path d="M56.825150586153725,29.622646756381055 L54.671203611739706,30.78982195878047 L52.12449211271729,33.74629345549568" fill="yellow" fill-opacity="0.6" stroke="black" stroke-width="1" />
<path d="M56.825150586153725,-29.622646756381055 L54.671203611739706,-30.78982195878047 L52.12449211271729,-33.74629345549568" fill="orange" fill-opacity="0.6" stroke="black" stroke-width="1" />
<path d="M54.671203611739706,30.78982195878047 L52.12449211271729,33.74629345549568 L50.870598410742005,39.06736120341736" fill="red" fill-opacity="0.6" stroke="black" stroke-width="1" />
<path d="M54.671203611739706,-30.78982195878047 L52.12449211271729,-33.74629345549568 L50.870598410742005,-39.06736120341736" fill="green" fill-opacity="0.6" stroke="black" stroke-width="1" />
<path d="M52.12449211271729,33.74629345549568 L50.870598410742005,39.06736120341736 L50.0,40.0" fill="pink" fill-opacity="0.6" stroke="black" stroke-width="1" />
<path d="M52.12449211271729,-33.74629345549568 L50.870598410742005,-39.06736120341736 L50.0,-40.0" fill="blue" fill-opacity="0.6" stroke="black" stroke-width="1" />
<path d="M84.0,16.0 L88.0,12.0 L89.0,11.0" fill="green" fill-opacity="0.6" stroke="black" stroke-width="1" />
<path d="M84.0,-16.0 L88.0,-12.0 L89.0,-11.0" fill="yellow" fill-opacity="0.6" stroke="black" stroke-width="1" />
<path d="M88.0,12.0 L89.0,11.0 L100.0,-0.0" fill="purple" fill-opacity="0.6" stroke="black" stroke-width="1" />
<path d="M88.0,-12.0 L89.0,-11.0 L100.0,-0.0" fill="black" fill-opacity="0.6" stroke="black" stroke-width="1" />
<path d="M0.0,-8.0 L0.15730467973570084,-9.312041414825934 L1.4607273254775677,-12.28222815587398" fill="brown" fill-opacity="0.6" stroke="black" stroke-width="1" />
<path d="M0.0,8.0 L0.15730467973570084,9.312041414825934 L1.4607273254775677,12.28222815587398" fill="green" fill-opacity="0.6" stroke="black" stroke-width="1" />
<path d="M0.0,92.0 L0.15730467973570084,90.68795858517407 L1.4607273254775677,87.71777184412602" fill="orange" fill-opacity="0.6" stroke="black" stroke-width="1" />
<path d="M0.0,-92.0 L0.15730467973570084,-90.68795858517407 L1.4607273254775677,-87.71777184412602" fill="purple" fill-opacity="0.6" stroke="black" stroke-width="1" />
<path d="M0.15730467973570084,-9.312041414825934 L1.4607273254775677,-12.28222815587398 L0.0,-14.0" fill="blue" fill-opacity="0.6" stroke="black" stroke-width="1" />
<path d="M0.15730467973570084,9.312041414825934 L1.4607273254775677,12.28222815587398 L0.0,14.0" fill="red" fill-opacity="0.6" stroke="black" stroke-width="1" />
<path d="M0.15730467973570084,90.68795858517407 L1.4607273254775677,87.71777184412602 L0.0,86.0" fill="brown" fill-opacity="0.6" stroke="black" stroke-width="1" />
<path d="M0.15730467973570084,-90.68795858517407 L1.4607273254775677,-87.71777184412602 L0.0,-86.0" fill="red" fill-opacity="0.6" stroke="black" stroke-width="1" />
<path d="M0.0,-14.0 L2.3266825020630932,-14.452872932464256 L2.7396886594466348,-14.825648854777407" fill="orange" fill-opacity="0.6" stroke="black" stroke-width="1" />
<path d="M0.0,14.0 L2.3266825020630932,14.452872932464256 L2.7396886594466348,14.825648854777407" fill="orange" fill-opacity="0.6" stroke="black" stroke-width="1" />
<path d="M0.0,86.0 L2.3266825020630932,85.54712706753574 L2.7396886594466348,85.1743511452226" fill="red" fill-opacity="0.6" stroke="black" stroke-width="1" />
<path d="M0.0,-86.0 L2.3266825020630932,-85.54712706753574 L2.7396886594466348,-85.1743511452226" fill="blue" fill-opacity="0.6" stroke="black" stroke-width="1" />
<path d="M2.3266825020630932,-14.452872932464256 L2.7396886594466348,-14.825648854777407 L4.676081828265623,-16.62160459152033" fill="orange" fill-opacity="0.6" stroke="black" stroke-width="1" />
<path d="M2.3266825020630932,14.452872932464256 L2.7396886594466348,14.825648854777407 L4.676081828265623,16.62160459152033" fill="orange" fill-opacity="0.6" stroke="black" stroke-width="1" />
<path d="M2.3266825020630932,85.54712706753574 L2.7396886594466348,85.1743511452226 L4.676081828265623,83.37839540847966" fill="orange" fill-opacity="0.6" stroke="black" stroke-width="1" />
<path d="M2.3266825020630932,-85.54712706753574 L2.7396886594466348,-85.1743511452226 L4.676081828265623,-83.37839540847966" fill="pink" fill-opacity="0.6" stroke="black" stroke-width="1" />
<path d="M2.7396886594466348,-14.825648854777407 L4.676081828265623,-16.62160459152033 L0.0,-18.0" fill="purple" fill-opacity="0.6" stroke="black" stroke-width="1" />
<path d="M2.7396886594466348,14.825648854777407 L4.676081828265623,16.62160459152033 L0.0,18.0" fill="brown" fill-opacity="0.6" stroke="black" stroke-width="1" />
<path d="M2.7396886594466348,85.1743511452226 L4.676081828265623,83.37839540847966 L0.0,82.0" fill="red" fill-opacity="0.6" stroke="black" stroke-width="1" />
<path d="M2.7396886594466348,-85.1743511452226 L4.676081828265623,-83.37839540847966 L0.0,-82.0" fill="red" fill-opacity="0.6" stroke="black" stroke-width="1" />
<path d="M0.0,-18.0 L8.534851133052328,-20.4672394716311 L9.893712519722003,-20.98010488166256" fill="orange" fill-opacity="0.6" stroke="black" stroke-width="1" />
<path d="M0.0,18.0 L8.534851133052328,20.4672394716311 L9.893712519722003,20.98010488166256" fill="pink" fill-opacity="0.6" stroke="black" stroke-width="1" />
<path d="M0.0,82.0 L8.534851133052328,79.5327605283689 L9.893712519722003,79.01989511833744" fill="blue" fill-opacity="0.6" stroke="black" stroke-width="1" />
<path d="M0.0,-82.0 L8.534851133052328,-79.5327605283689 L9.893712519722003,-79.01989511833744" fill="black" fill-opacity="0.6" stroke="black" stroke-width="1" />
<path d="M8.534851133052328,-20.4672394716311 L9.893712519722003,-20.98010488166256 L10.024831659567523,-37.36817317748404" fill="orange" fill-opacity="0.6" stroke="black" stroke-width="1" />
<path d="M8.534851133052328,20.4672394716311 L9.893712519722003,20.98010488166256 L10.024831659567523,37.36817317748404" fill="yellow" fill-opacity="0.6" stroke="black" stroke-width="1" />
<path d="M8.534851133052328,79.5327605283689 L9.893712519722003,79.01989511833744 L10.024831659567523,62.63182682251596" fill="pink" fill-opacity="0.6" stroke="black" stroke-width="1" />
<path d="M8.534851133052328,-79.5327605283689 L9.893712519722003,-79.01989511833744 L10.024831659567523,-62.63182682251596" fill="yellow" fill-opacity="0.6" stroke="black" stroke-width="1" />
<path d="M9.893712519722003,-20.98010488166256 L10.024831659567523,-37.36817317748404 L10.571107089536172,-37.96121198753616" fill="purple" fill-opacity="0.6" stroke="black" stroke-width="1" />
<path d="M9.893712519722003,20.98010488166256 L10.024831659567523,37.36817317748404 L10.571107089536172,37.96121198753616" fill="pink" fill-opacity="0.6" stroke="black" stroke-width="1" />
<path d="M9.893712519722003,79.01989511833744 L10.024831659567523,62.63182682251596 L10.571107089536172,62.03878801246384" fill="yellow" fill-opacity="0.6" stroke="black" stroke-width="1" />
<path d="M9.893712519722003,-79.01989511833744 L10.024831659567523,-62.63182682251596 L10.571107089536172,-62.03878801246384" fill="blue" fill-opacity="0.6" stroke="black" stroke-width="1" />
<path d="M10.024831659567523,-37.36817317748404 L10.571107089536172,-37.96121198753616 L10.998267213476826,-38.065571603904644" fill="green" fill-opacity="0.6" stroke="black" stroke-width="1" />
<path d="M10.024831659567523,37.36817317748404 L10.571107089536172,37.96121198753616 L10.998267213476826,38.065571603904644" fill="brown" fill-opacity="0.6" stroke="black" stroke-width="1" />
<path d="M10.024831659567523,62.63182682251596 L10.571107089536172,62.03878801246384 L10.998267213476826,61.934428396095356" fill="pink" fill-opacity="0.6" stroke="black" stroke-width="1" />
<path d="M10.024831659567523,-62.63182682251596 L10.571107089536172,-62.03878801246384 L10.998267213476826,-61.934428396095356" fill="brown" fill-opacity="0.6" stroke="black" stroke-width="1" />
<path d="M10.571107089536172,-37.96121198753616 L10.998267213476826,-38.065571603904644 L0.0,-50.0" fill="black" fill-opacity="0.6" stroke="black" stroke-width="1" />
<path d="M10.571107089536172,37.96121198753616 L10.998267213476826,38.065571603904644 L0.0,50.0" fill="purple" fill-opacity="0.6" stroke="black" stroke-width="1" />
<path d="M10.571107089536172,62.03878801246384 L10.998267213476826,61.934428396095356 L0.0,50.0" fill="green" fill-opacity="0.6" stroke="black" stroke-width="1" />
<path d="M10.571107089536172,-62.03878801246384 L10.998267213476826,-61.934428396095356 L0.0,-50.0" fill="brown" fill-opacity="0.6" stroke="black" stroke-width="1" />
<path d="M0.0,-50.0 L12.582669535831231,-39.575020558141816 L13.483316134514405,-39.85473834385072" fill="purple" fill-opacity="0.6" stroke="black" stroke-width="1" />
<path d="M0.0,50.0 L12.582669535831231,39.575020558141816 L13.483316134514405,39.85473834385072" fill="red" fill-opacity="0.6" stroke="black" stroke-width="1" />
<path d="M0.0,50.0 L12.582669535831231,60.424979441858184 L13.483316134514405,60.14526165614928" fill="black" fill-opacity="0.6" stroke="black" stroke-width="1" />
<path d="M0.0,-50.0 L12.582669535831231,-60.424979441858184 L13.483316134514405,-60.14526165614928" fill="red" fill-opacity="0.6" stroke="black" stroke-width="1" />
<path d="M12.582669535831231,-39.575020558141816 L13.483316134514405,-39.85473834385072 L14.0,-50.0" fill="black" fill-opacity="0.6" stroke="black" stroke-width="1" />
<path d="M12.582669535831231,39.575020558141816 L13.483316134514405,39.85473834385072 L14.0,50.0" fill="yellow" fill-opacity="0.6" stroke="black" stroke-width="1" />
<path d="M12.582669535831231,60.424979441858184 L13.483316134514405,60.14526165614928 L14.0,50.0" fill="blue" fill-opacity="0.6" stroke="black" stroke-width="1" />
<path d="M12.582669535831231,-60.424979441858184 L13.483316134514405,-60.14526165614928 L14.0,-50.0" fill="brown" fill-opacity="0.6" stroke="black" stroke-width="1" />
<path d="M18.0,-50.0 L18.127290746928495,-39.921900156806466 L19.3931504627085,-41.109996163774056" fill="purple" fill-opacity="0.6" stroke="black" stroke-width="1" />
<path d="M18.0,50.0 L18.127290746928495,39.921900156806466 L19.3931504627085,41.109996163774056" fill="pink" fill-opacity="0.6" stroke="black" stroke-width="1" />
<path d="M18.0,50.0 L18.127290746928495,60.078099843193534 L19.3931504627085,58.890003836225944" fill="green" fill-opacity="0.6" stroke="black" stroke-width="1" />
<path d="M18.0,-50.0 L18.127290746928495,-60.078099843193534 L19.3931504627085,-58.890003836225944" fill="blue" fill-opacity="0.6" stroke="black" stroke-width="1" />
<path d="M18.127290746928495,-39.921900156806466 L19.3931504627085,-41.109996163774056 L24.61093205448133,-41.36007505171111" fill="black" fill-opacity="0.6" stroke="black" stroke-width="1" />
<path d="M18.127290746928495,39.921900156806466 L19.3931504627085,41.109996163774056 L24.61093205448133,41.36007505171111" fill="red" fill-opacity="0.6" stroke="black" stroke-width="1" />
<path d="M18.127290746928495,60.078099843193534 L19.3931504627085,58.890003836225944 L24.61093205448133,58.63992494828889" fill="red" fill-opacity="0.6" stroke="black" stroke-width="1" />
<path d="M18.127290746928495,-60.078099843193534 L19.3931504627085,-58.890003836225944 L24.61093205448133,-58.63992494828889" fill="orange" fill-opacity="0.6" stroke="black" stroke-width="1" />
<path d="M19.3931504627085,-41.109996163774056 L24.61093205448133,-41.36007505171111 L29.622646756381055,-43.174849413846275" fill="brown" fill-opacity="0.6" stroke="black" stroke-width="1" />
<path d="M19.3931504627085,41.109996163774056 L24.61093205448133,41.36007505171111 L29.622646756381055,43.174849413846275" fill="blue" fill-opacity="0.6" stroke="black" stroke-width="1" />
<path d="M19.3931504627085,58.890003836225944 L24.61093205448133,58.63992494828889 L29.622646756381055,56.825150586153725" fill="brown" fill-opacity="0.6" stroke="black" stroke-width="1" />
<path d="M19.3931504627085,-58.890003836225944 L24.61093205448133,-58.63992494828889 L29.622646756381055,-56.825150586153725" fill="brown" fill-opacity="0.6" stroke="black" stroke-width="1" />
<path d="M24.61093205448133,-41.36007505171111 L29.622646756381055,-43.174849413846275 L30.78982195878047,-45.328796388260294" fill="blue" fill-opacity="0.6" stroke="black" stroke-width="1" />
<path d="M24.61093205448133,41.36007505171111 L29.622646756381055,43.174849413846275 L30.78982195878047,45.328796388260294" fill="red" fill-opacity="0.6" stroke="black" stroke-width="1" />
<path d="M24.61093205448133,58.63992494828889 L29.622646756381055,56.825150586153725 L30.78982195878047,54.671203611739706" fill="pink" fill-opacity="0.6" stroke="black" stroke-width="1" />
<path d="M24.61093205448133,-58.63992494828889 L29.622646756381055,-56.825150586153725 L30.78982195878047,-54.671203611739706" fill="yellow" fill-opacity="0.6" stroke="black" stroke-width="1" />
<path d="M29.622646756381055,-43.174849413846275 L30.78982195878047,-45.328796388260294 L33.74629345549568,-47.87550788728271" fill="orange" fill-opacity="0.6" stroke="black" stroke-width="1" />
<path d="M29.622646756381055,43.174849413846275 L30.78982195878047,45.328796388260294 L33.74629345549568,47.87550788728271" fill="pink" fill-opacity="0.6" stroke="black" stroke-width="1" />
<path d="M29.622646756381055,56.825150586153725 L30.78982195878047,54.671203611739706 L33.74629345549568,52.12449211271729" fill="orange" fill-opacity="0.6" stroke="black" stroke-width="1" />
<path d="M29.622646756381055,-56.825150586153725 L30.78982195878047,-54.671203611739706 L33.74629345549568,-52.12449211271729" fill="orange" fill-opacity="0.6" stroke="black" stroke-width="1" />
<path d="M30.78982195878047,-45.328796388260294 L33.74629345549568,-47.87550788728271 L39.06736120341736,-49.129401589257995" fill="red" fill-opacity="0.6" stroke="black" stroke-width="1" />
<path d="M30.78982195878047,45.328796388260294 L33.74629345549568,47.87550788728271 L39.06736120341736,49.129401589257995" fill="orange" fill-opacity="0.6" stroke="black" stroke-width="1" />
<path d="M30.78982195878047,54.671203611739706 L33.74629345549568,52.12449211271729 L39.06736120341736,50.870598410742005" fill="green" fill-opacity="0.6" stroke="black" stroke-width="1" />
<path d="M30.78982195878047,-54.671203611739706 L33.74629345549568,-52.12449211271729 L39.06736120341736,-50.870598410742005" fill="red" fill-opacity="0.6" stroke="black" stroke-width="1" />
<path d="M33.74629345549568,-47.87550788728271 L39.06736120341736,-49.129401589257995 L40.0,-50.0" fill="black" fill-opacity="0.6" stroke="black" stroke-width="1" />
<path d="M33.74629345549568,47.87550788728271 L39.06736120341736,49.129401589257995 L40.0,50.0" fill="brown" fill-opacity="0.6" stroke="black" stroke-width="1" />
<path d="M33.74629345549568,52.12449211271729 L39.06736120341736,50.870598410742005 L40.0,50.0" fill="red" fill-opacity="0.6" stroke="black" stroke-width="1" />
<path d="M33.74629345549568,-52.12449211271729 L39.06736120341736,-50.870598410742005 L40.0,-50.0" fill="purple" fill-opacity="0.6" stroke="black" stroke-width="1" />
<path d="M0.0,92.0 L-0.15730467973570084,90.68795858517407 L-1.4607273254775677,87.71777184412602" fill="pink" fill-opacity="0.6" stroke="black" stroke-width="1" />
<path d="M0.0,-8.0 L-0.15730467973570084,-9.312041414825934 L-1.4607273254775677,-12.28222815587398" fill="pink" fill-opacity="0.6" stroke="black" stroke-width="1" />
<path d="M0.0,8.0 L-0.15730467973570084,9.312041414825927 L-1.4607273254775677,12.28222815587398" fill="orange" fill-opacity="0.6" stroke="black" stroke-width="1" />
<path d="M0.0,-92.0 L-0.15730467973570084,-90.68795858517407 L-1.4607273254775677,-87.71777184412602" fill="yellow" fill-opacity="0.6" stroke="black" stroke-width="1" />
<path d="M-0.15730467973570084,90.68795858517407 L-1.4607273254775677,87.71777184412602 L0.0,86.0" fill="green" fill-opacity="0.6" stroke="black" stroke-width="1" />
<path d="M-0.15730467973570084,-9.312041414825934 L-1.4607273254775677,-12.28222815587398 L0.0,-14.0" fill="pink" fill-opacity="0.6" stroke="black" stroke-width="1" />
<path d="M-0.15730467973570084,9.312041414825927 L-1.4607273254775677,12.28222815587398 L0.0,14.0" fill="yellow" fill-opacity="0.6" stroke="black" stroke-width="1" />
<path d="M-0.15730467973570084,-90.68795858517407 L-1.4607273254775677,-87.71777184412602 L0.0,-86.0" fill="yellow" fill-opacity="0.6" stroke="black" stroke-width="1" />
<path d="M0.0,86.0 L-2.3266825020630932,85.54712706753574 L-2.7396886594466348,85.17435114522259" fill="brown" fill-opacity="0.6" stroke="black" stroke-width="1" />
<path d="M0.0,-14.0 L-2.3266825020630932,-14.452872932464256 L-2.7396886594466348,-14.825648854777407" fill="red" fill-opacity="0.6" stroke="black" stroke-width="1" />
<path d="M0.0,14.0 L-2.3266825020630932,14.45287293246426 L-2.7396886594466348,14.825648854777413" fill="green" fill-opacity="0.6" stroke="black" stroke-width="1" />
<path d="M0.0,-86.0 L-2.3266825020630932,-85.54712706753574 L-2.7396886594466348,-85.1743511452226" fill="purple" fill-opacity="0.6" stroke="black" stroke-width="1" />
<path d="M-2.3266825020630932,85.54712706753574 L-2.7396886594466348,85.17435114522259 L-4.676081828265623,83.37839540847966" fill="pink" fill-opacity="0.6" stroke="black" stroke-width="1" />
<path d="M-2.3266825020630932,-14.452872932464256 L-2.7396886594466348,-14.825648854777407 L-4.676081828265623,-16.62160459152033" fill="black" fill-opacity="0.6" stroke="black" stroke-width="1" />
<path d="M-2.3266825020630932,14.45287293246426 L-2.7396886594466348,14.825648854777413 L-4.676081828265623,16.621604591520338" fill="orange" fill-opacity="0.6" stroke="black" stroke-width="1" />
<path d="M-2.3266825020630932,-85.54712706753574 L-2.7396886594466348,-85.1743511452226 L-4.676081828265623,-83.37839540847966" fill="blue" fill-opacity="0.6" stroke="black" stroke-width="1" />
<path d="M-2.7396886594466348,85.17435114522259 L-4.676081828265623,83.37839540847966 L0.0,82.0" fill="brown" fill-opacity="0.6" stroke="black" stroke-width="1" />
<path d="M-2.7396886594466348,-14.825648854777407 L-4.676081828265623,-16.62160459152033 L0.0,-18.0" fill="green" fill-opacity="0.6" stroke="black" stroke-width="1" />
<path d="M-2.7396886594466348,14.825648854777413 L-4.676081828265623,16.621604591520338 L0.0,18.0" fill="yellow" fill-opacity="0.6" stroke="black" stroke-width="1" />
<path d="M-2.7396886594466348,-85.1743511452226 L-4.676081828265623,-83.37839540847966 L0.0,-82.0" fill="brown" fill-opacity="0.6" stroke="black" stroke-width="1" />
<path d="M0.0,82.0 L-8.534851133052328,79.5327605283689 L-9.893712519722003,79.01989511833744" fill="pink" fill-opacity="0.6" stroke="black" stroke-width="1" />
<path d="M0.0,-18.0 L-8.534851133052328,-20.4672394716311 L-9.893712519722003,-20.98010488166256" fill="purple" fill-opacity="0.6" stroke="black" stroke-width="1" />
<path d="M0.0,18.0 L-8.534851133052328,20.467239471631103 L-9.893712519722003,20.980104881662555" fill="brown" fill-opacity="0.6" stroke="black" stroke-width="1" />
<path d="M0.0,-82.0 L-8.534851133052328,-79.5327605283689 L-9.893712519722003,-79.01989511833744" fill="green" fill-opacity="0.6" stroke="black" stroke-width="1" />
<path d="M-8.534851133052328,79.5327605283689 L-9.893712519722003,79.01989511833744 L-10.024831659567523,62.63182682251596" fill="pink" fill-opacity="0.6" stroke="black" stroke-width="1" />
<path d="M-8.534851133052328,-20.4672394716311 L-9.893712519722003,-20.98010488166256 L-10.024831659567523,-37.36817317748404" fill="brown" fill-opacity="0.6" stroke="black" stroke-width="1" />
<path d="M-8.534851133052328,20.467239471631103 L-9.893712519722003,20.980104881662555 L-10.024831659567523,37.36817317748404" fill="green" fill-opacity="0.6" stroke="black" stroke-width="1" />
<path d="M-8.534851133052328,-79.5327605283689 L-9.893712519722003,-79.01989511833744 L-10.024831659567523,-62.63182682251596" fill="purple" fill-opacity="0.6" stroke="black" stroke-width="1" />
<path d="M-9.893712519722003,79.01989511833744 L-10.024831659567523,62.63182682251596 L-10.571107089536172,62.03878801246384" fill="black" fill-opacity="0.6" stroke="black" stroke-width="1" />
<path d="M-9.893712519722003,-20.98010488166256 L-10.024831659567523,-37.36817317748404 L-10.571107089536172,-37.96121198753616" fill="purple" fill-opacity="0.6" stroke="black" stroke-width="1" />
<path d="M-9.893712519722003,20.980104881662555 L-10.024831659567523,37.36817317748404 L-10.571107089536172,37.96121198753616" fill="orange" fill-opacity="0.6" stroke="black" stroke-width="1" />
<path d="M-9.893712519722003,-79.01989511833744 L-10.024831659567523,-62.63182682251596 L-10.571107089536172,-62.03878801246384" fill="purple" fill-opacity="0.6" stroke="black" stroke-width="1" />
<path d="M-10.024831659567523,62.63182682251596 L-10.571107089536172,62.03878801246384 L-10.998267213476826,61.934428396095356" fill="orange" fill-opacity="0.6" stroke="black" stroke-width="1" />
<path d="M-10.024831659567523,-37.36817317748404 L-10.571107089536172,-37.96121198753616 L-10.998267213476826,-38.065571603904644" fill="pink" fill-opacity="0.6" stroke="black" stroke-width="1" />
<path d="M-10.024831659567523,37.36817317748404 L-10.571107089536172,37.96121198753616 L-10.998267213476826,38.065571603904644" fill="purple" fill-opacity="0.6" stroke="black" stroke-width="1" />
<path d="M-10.024831659567523,-62.63182682251596 L-10.571107089536172,-62.03878801246384 L-10.998267213476826,-61.934428396095356" fill="yellow" fill-opacity="0.6" stroke="black" stroke-width="1" />
<path d="M-10.571107089536172,62.03878801246384 L-10.998267213476826,61.934428396095356 L0.0,50.0" fill="purple" fill-opacity="0.6" stroke="black" stroke-width="1" />
<path d="M-10.571107089536172,-37.96121198753616 L-10.998267213476826,-38.065571603904644 L0.0,-50.0" fill="purple" fill-opacity="0.6" stroke="black" stroke-width="1" />
<path d="M-10.571107089536172,37.96121198753616 L-10.998267213476826,38.065571603904644 L0.0,50.0" fill="pink" fill-opacity="0.6" stroke="black" stroke-width="1" />
<path d="M-10.571107089536172,-62.03878801246384 L-10.998267213476826,-61.934428396095356 L0.0,-50.0" fill="purple" fill-opacity="0.6" stroke="black" stroke-width="1" />
<path d="M0.0,50.0 L-12.582669535831231,60.424979441858184 L-13.483316134514405,60.14526165614928" fill="red" fill-opacity="0.6" stroke="black" stroke-width="1" />
<path d="M0.0,-50.0 L-12.582669535831231,-39.575020558141816 L-13.483316134514405,-39.85473834385072" fill="green" fill-opacity="0.6" stroke="black" stroke-width="1" />
<path d="M0.0,50.0 L-12.582669535831231,39.575020558141816 L-13.483316134514405,39.85473834385072" fill="brown" fill-opacity="0.6" stroke="black" stroke-width="1" />
<path d="M0.0,-50.0 L-12.582669535831231,-60.424979441858184 L-13.483316134514405,-60.14526165614928" fill="red" fill-opacity="0.6" stroke="black" stroke-width="1" />
<path d="M-12.582669535831231,60.424979441858184 L-13.483316134514405,60.14526165614928 L-14.0,50.0" fill="black" fill-opacity="0.6" stroke="black" stroke-width="1" />
<path d="M-12.582669535831231,-39.575020558141816 L-13.483316134514405,-39.85473834385072 L-14.0,-50.0" fill="green" fill-opacity="0.6" stroke="black" stroke-width="1" />
<path d="M-12.582669535831231,39.575020558141816 L-13.483316134514405,39.85473834385072 L-14.0,50.0" fill="red" fill-opacity="0.6" stroke="black" stroke-width="1" />
<path d="M-12.582669535831231,-60.424979441858184 L-13.483316134514405,-60.14526165614928 L-14.0,-50.0" fill="orange" fill-opacity="0.6" stroke="black" stroke-width="1" />
<path d="M-18.0,50.0 L-18.127290746928495,60.078099843193534 L-19.3931504627085,58.890003836225944" fill="pink" fill-opacity="0.6" stroke="black" stroke-width="1" />
<path d="M-18.0,-50.0 L-18.127290746928495,-39.921900156806466 L-19.3931504627085,-41.109996163774056" fill="orange" fill-opacity="0.6" stroke="black" stroke-width="1" />
<path d="M-18.0,50.0 L-18.127290746928495,39.921900156806466 L-19.3931504627085,41.109996163774056" fill="blue" fill-opacity="0.6" stroke="black" stroke-width="1" />
<path d="M-18.0,-50.0 L-18.127290746928495,-60.078099843193534 L-19.3931504627085,-58.890003836225944" fill="brown" fill-opacity="0.6" stroke="black" stroke-width="1" />
<path d="M-18.127290746928495,60.078099843193534 L-19.3931504627085,58.890003836225944 L-24.61093205448133,58.63992494828889" fill="green" fill-opacity="0.6" stroke="black" stroke-width="1" />
<path d="M-18.127290746928495,-39.921900156806466 L-19.3931504627085,-41.109996163774056 L-24.61093205448133,-41.36007505171111" fill="green" fill-opacity="0.6" stroke="black" stroke-width="1" />
<path d="M-18.127290746928495,39.921900156806466 L-19.3931504627085,41.109996163774056 L-24.61093205448133,41.36007505171111" fill="purple" fill-opacity="0.6" stroke="black" stroke-width="1" />
<path d="M-18.127290746928495,-60.078099843193534 L-19.3931504627085,-58.890003836225944 L-24.61093205448133,-58.63992494828889" fill="brown" fill-opacity="0.6" stroke="black" stroke-width="1" />
<path d="M-19.3931504627085,58.890003836225944 L-24.61093205448133,58.63992494828889 L-29.622646756381055,56.825150586153725" fill="pink" fill-opacity="0.6" stroke="black" stroke-width="1" />
<path d="M-19.3931504627085,-41.109996163774056 L-24.61093205448133,-41.36007505171111 L-29.622646756381055,-43.174849413846275" fill="pink" fill-opacity="0.6" stroke="black" stroke-width="1" />
<path d="M-19.3931504627085,41.109996163774056 L-24.61093205448133,41.36007505171111 L-29.622646756381055,43.174849413846275" fill="blue" fill-opacity="0.6" stroke="black" stroke-width="1" />
<path d="M-19.3931504627085,-58.890003836225944 L-24.61093205448133,-58.63992494828889 L-29.622646756381055,-56.825150586153725" fill="yellow" fill-opacity="0.6" stroke="black" stroke-width="1" />
<path d="M-24.61093205448133,58.63992494828889 L-29.622646756381055,56.825150586153725 L-30.78982195878047,54.671203611739706" fill="orange" fill-opacity="0.6" stroke="black" stroke-width="1" />
<path d="M-24.61093205448133,-41.36007505171111 L-29.622646756381055,-43.174849413846275 L-30.78982195878047,-45.328796388260294" fill="orange" fill-opacity="0.6" stroke="black" stroke-width="1" />
<path d="M-24.61093205448133,41.36007505171111 L-29.622646756381055,43.174849413846275 L-30.78982195878047,45.328796388260294" fill="blue" fill-opacity="0.6" stroke="black" stroke-width="1" />
<path d="M-24.61093205448133,-58.63992494828889 L-29.622646756381055,-56.825150586153725 L-30.78982195878047,-54.671203611739706" fill="pink" fill-opacity="0.6" stroke="black" stroke-width="1" />
<path d="M-29.622646756381055,56.825150586153725 L-30.78982195878047,54.671203611739706 L-33.74629345549568,52.12449211271729" fill="pink" fill-opacity="0.6" stroke="black" stroke-width="1" />
<path d="M-29.622646756381055,-43.174849413846275 L-30.78982195878047,-45.328796388260294 L-33.74629345549568,-47.87550788728271" fill="black" fill-opacity="0.6" stroke="black" stroke-width="1" />
<path d="M-29.622646756381055,43.174849413846275 L-30.78982195878047,45.328796388260294 L-33.74629345549568,47.87550788728271" fill="pink" fill-opacity="0.6" stroke="black" stroke-width="1" />
<path d="M-29.622646756381055,-56.825150586153725 L-30.78982195878047,-54.671203611739706 L-33.74629345549568,-52.12449211271729" fill="green" fill-opacity="0.6" stroke="black" stroke-width="1" />
<path d="M-30.78982195878047,54.671203611739706 L-33.74629345549568,52.12449211271729 L-39.06736120341736,50.870598410742005" fill="blue" fill-opacity="0.6" stroke="black" stroke-width="1" />
<path d="M-30.78982195878047,-45.328796388260294 L-33.74629345549568,-47.87550788728271 L-39.06736120341736,-49.129401589257995" fill="orange" fill-opacity="0.6" stroke="black" stroke-width="1" />
<path d="M-30.78982195878047,45.328796388260294 L-33.74629345549568,47.87550788728271 L-39.06736120341736,49.129401589257995" fill="orange" fill-opacity="0.6" stroke="black" stroke-width="1" />
<path d="M-30.78982195878047,-54.671203611739706 L-33.74629345549568,-52.12449211271729 L-39.06736120341736,-50.870598410742005" fill="pink" fill-opacity="0.6" stroke="black" stroke-width="1" />
<path d="M-33.74629345549568,52.12449211271729 L-39.06736120341736,50.870598410742005 L-40.0,50.0" fill="black" fill-opacity="0.6" stroke="black" stroke-width="1" />
<path d="M-33.74629345549568,-47.87550788728271 L-39.06736120341736,-49.129401589257995 L-40.0,-50.0" fill="pink" fill-opacity="0.6" stroke="black" stroke-width="1" />
<path d="M-33.74629345549568,47.87550788728271 L-39.06736120341736,49.129401589257995 L-40.0,50.0" fill="black" fill-opacity="0.6" stroke="black" stroke-width="1" />
<path d="M-33.74629345549568,-52.12449211271729 L-39.06736120341736,-50.870598410742005 L-40.0,-50.0" fill="orange" fill-opacity="0.6" stroke="black" stroke-width="1" />
<path d="M-92.0,-0.0 L-90.68795858517407,-0.15730467973570084 L-87.71777184412602,-1.4607273254775677" fill="green" fill-opacity="0.6" stroke="black" stroke-width="1" />
<path d="M-92.0,-0.0 L-90.68795858517407,0.15730467973570084 L-87.71777184412602,1.4607273254775677" fill="pink" fill-opacity="0.6" stroke="black" stroke-width="1" />
<path d="M-90.68795858517407,-0.15730467973570084 L-87.71777184412602,-1.4607273254775677 L-86.0,-0.0" fill="black" fill-opacity="0.6" stroke="black" stroke-width="1" />
<path d="M-90.68795858517407,0.15730467973570084 L-87.71777184412602,1.4607273254775677 L-86.0,-0.0" fill="black" fill-opacity="0.6" stroke="black" stroke-width="1" />
<path d="M-86.0,-0.0 L-85.54712706753574,-2.3266825020630932 L-85.1743511452226,-2.7396886594466348" fill="yellow" fill-opacity="0.6" stroke="black" stroke-width="1" />
<path d="M-86.0,-0.0 L-85.54712706753574,2.3266825020630932 L-85.1743511452226,2.7396886594466348" fill="orange" fill-opacity="0.6" stroke="black" stroke-width="1" />
<path d="M-85.54712706753574,-2.3266825020630932 L-85.1743511452226,-2.7396886594466348 L-83.37839540847966,-4.676081828265623" fill="pink" fill-opacity="0.6" stroke="black" stroke-width="1" />
<path d="M-85.54712706753574,2.3266825020630932 L-85.1743511452226,2.7396886594466348 L-83.37839540847966,4.676081828265623" fill="purple" fill-opacity="0.6" stroke="black" stroke-width="1" />
<path d="M-85.1743511452226,-2.7396886594466348 L-83.37839540847966,-4.676081828265623 L-82.0,-0.0" fill="black" fill-opacity="0.6" stroke="black" stroke-width="1" />
<path d="M-85.1743511452226,2.7396886594466348 L-83.37839540847966,4.676081828265623 L-82.0,-0.0" fill="red" fill-opacity="0.6" stroke="black" stroke-width="1" />
<path d="M-82.0,-0.0 L-79.5327605283689,-8.534851133052328 L-79.01989511833744,-9.893712519722003" fill="purple" fill-opacity="0.6" stroke="black" stroke-width="1" />
<path d="M-82.0,-0.0 L-79.5327605283689,8.534851133052328 L-79.01989511833744,9.893712519722003" fill="blue" fill-opacity="0.6" stroke="black" stroke-width="1" />
<path d="M-79.5327605283689,-8.534851133052328 L-79.01989511833744,-9.893712519722003 L-62.63182682251596,-10.024831659567523" fill="black" fill-opacity="0.6" stroke="black" stroke-width="1" />
<path d="M-79.5327605283689,8.534851133052328 L-79.01989511833744,9.893712519722003 L-62.63182682251596,10.024831659567523" fill="purple" fill-opacity="0.6" stroke="black" stroke-width="1" />
<path d="M-79.01989511833744,-9.893712519722003 L-62.63182682251596,-10.024831659567523 L-62.03878801246384,-10.571107089536172" fill="green" fill-opacity="0.6" stroke="black" stroke-width="1" />
<path d="M-79.01989511833744,9.893712519722003 L-62.63182682251596,10.024831659567523 L-62.03878801246384,10.571107089536172" fill="orange" fill-opacity="0.6" stroke="black" stroke-width="1" />
<path d="M-62.63182682251596,-10.024831659567523 L-62.03878801246384,-10.571107089536172 L-61.934428396095356,-10.998267213476826" fill="purple" fill-opacity="0.6" stroke="black" stroke-width="1" />
<path d="M-62.63182682251596,10.024831659567523 L-62.03878801246384,10.571107089536172 L-61.934428396095356,10.998267213476826" fill="green" fill-opacity="0.6" stroke="black" stroke-width="1" />
<path d="M-62.03878801246384,-10.571107089536172 L-61.934428396095356,-10.998267213476826 L-50.0,-0.0" fill="purple" fill-opacity="0.6" stroke="black" stroke-width="1" />
<path d="M-62.03878801246384,10.571107089536172 L-61.934428396095356,10.998267213476826 L-50.0,-0.0" fill="black" fill-opacity="0.6" stroke="black" stroke-width="1" />
<path d="M-50.0,-0.0 L-60.424979441858184,-12.582669535831231 L-60.14526165614928,-13.483316134514405" fill="purple" fill-opacity="0.6" stroke="black" stroke-width="1" />
<path d="M-50.0,-0.0 L-60.424979441858184,12.582669535831231 L-60.14526165614928,13.483316134514405" fill="yellow" fill-opacity="0.6" stroke="black" stroke-width="1" />
<path d="M-60.424979441858184,-12.582669535831231 L-60.14526165614928,-13.483316134514405 L-50.0,-14.0" fill="brown" fill-opacity="0.6" stroke="black" stroke-width="1" />
<path d="M-60.424979441858184,12.582669535831231 L-60.14526165614928,13.483316134514405 L-50.0,14.0" fill="green" fill-opacity="0.6" stroke="black" stroke-width="1" />
<path d="M-50.0,-18.0 L-60.078099843193534,-18.127290746928495 L-58.890003836225944,-19.3931504627085" fill="pink" fill-opacity="0.6" stroke="black" stroke-width="1" />
<path d="M-50.0,18.0 L-60.078099843193534,18.127290746928495 L-58.890003836225944,19.3931504627085" fill="blue" fill-opacity="0.6" stroke="black" stroke-width="1" />
<path d="M-60.078099843193534,-18.127290746928495 L-58.890003836225944,-19.3931504627085 L-58.63992494828889,-24.61093205448133" fill="orange" fill-opacity="0.6" stroke="black" stroke-width="1" />
<path d="M-60.078099843193534,18.127290746928495 L-58.890003836225944,19.3931504627085 L-58.63992494828889,24.61093205448133" fill="pink" fill-opacity="0.6" stroke="black" stroke-width="1" />
<path d="M-58.890003836225944,-19.3931504627085 L-58.63992494828889,-24.61093205448133 L-56.825150586153725,-29.622646756381055" fill="purple" fill-opacity="0.6" stroke="black" stroke-width="1" />
<path d="M-58.890003836225944,19.3931504627085 L-58.63992494828889,24.61093205448133 L-56.825150586153725,29.622646756381055" fill="green" fill-opacity="0.6" stroke="black" stroke-width="1" />
<path d="M-58.63992494828889,-24.61093205448133 L-56.825150586153725,-29.622646756381055 L-54.671203611739706,-30.78982195878047" fill="pink" fill-opacity="0.6" stroke="black" stroke-width="1" />
<path d="M-58.63992494828889,24.61093205448133 L-56.825150586153725,29.622646756381055 L-54.671203611739706,30.78982195878047" fill="orange" fill-opacity="0.6" stroke="black" stroke-width="1" />
<path d="M-56.825150586153725,-29.622646756381055 L-54.671203611739706,-30.78982195878047 L-52.12449211271729,-33.74629345549568" fill="blue" fill-opacity="0.6" stroke="black" stroke-width="1" />
<path d="M-56.825150586153725,29.622646756381055 L-54.671203611739706,30.78982195878047 L-52.12449211271729,33.74629345549568" fill="red" fill-opacity="0.6" stroke="black" stroke-width="1" />
<path d="M-54.671203611739706,-30.78982195878047 L-52.12449211271729,-33.74629345549568 L-50.870598410742005,-39.06736120341736" fill="yellow" fill-opacity="0.6" stroke="black" stroke-width="1" />
<path d="M-54.671203611739706,30.78982195878047 L-52.12449211271729,33.74629345549568 L-50.870598410742005,39.06736120341736" fill="brown" fill-opacity="0.6" stroke="black" stroke-width="1" />
<path d="M-52.12449211271729,-33.74629345549568 L-50.870598410742005,-39.06736120341736 L-50.0,-40.0" fill="black" fill-opacity="0.6" stroke="black" stroke-width="1" />
<path d="M-52.12449211271729,33.74629345549568 L-50.870598410742005,39.06736120341736 L-50.0,40.0" fill="red" fill-opacity="0.6" stroke="black" stroke-width="1" />
<path d="M-84.0,-16.0 L-88.0,-12.0 L-89.0,-11.0" fill="orange" fill-opacity="0.6" stroke="black" stroke-width="1" />
<path d="M-84.0,16.0 L-88.0,12.0 L-89.0,11.0" fill="pink" fill-opacity="0.6" stroke="black" stroke-width="1" />
<path d="M-88.0,-12.0 L-89.0,-11.0 L-100.0,-0.0" fill="pink" fill-opacity="0.6" stroke="black" stroke-width="1" />
<path d="M-88.0,12.0 L-89.0,11.0 L-100.0,-0.0" fill="red" fill-opacity="0.6" stroke="black" stroke-width="1" />
</svg>