<?xml version="1.0" encoding="UTF-8"?>
<svg xmlns="http://www.w3.org/2000/svg" xmlns:xlink="http://www.w3.org/1999/xlink"
     width="250" height="250" viewBox="-125.0 -125.0 250 250">
<defs>
</defs>
<path d="M32.0,68.0 L25.0,75.0 L0.671947414364471,96.08173470319248" fill="pink" fill-opacity="0.6" stroke="black" stroke-width="1" />
<path d="M32.0,-68.0 L25.0,-75.0 L0.671947414364471,-96.08173470319248" fill="blue" fill-opacity="0.6" stroke="black" stroke-width="1" />
<path d="M25.0,-0.0 L25.971462906114713,-0.6735722134869677 L27.349468364512735,-3.836984549423045" fill="yellow" fill-opacity="0.6" stroke="black" stroke-width="1" />
<path d="M25.0,-0.0 L25.971462906114713,0.6735722134869677 L27.349468364512735,3.836984549423045" fill="purple" fill-opacity="0.6" stroke="black" stroke-width="1" />
<path d="M25.971462906114713,-0.6735722134869677 L27.349468364512735,-3.836984549423045 L28.68434761842414,-5.982122062680695" fill="purple" fill-opacity="0.6" stroke="black" stroke-width="1" />
<path d="M25.971462906114713,0.6735722134869677 L27.349468364512735,3.836984549423045 L28.68434761842414,5.982122062680695" fill="green" fill-opacity="0.6" stroke="black" stroke-width="1" />
<path d="M27.349468364512735,-3.836984549423045 L28.68434761842414,-5.982122062680695 L30.0,-0.0" fill="black" fill-opacity="0.6" stroke="black" stroke-width="1" />
<path d="M27.349468364512735,3.836984549423045 L28.68434761842414,5.982122062680695 L30.0,-0.0" fill="pink" fill-opacity="0.6" stroke="black" stroke-width="1" />
<path d="M50.0,-0.0 L33.38915019138991,-22.52174650517622 L48.66422838600879,-24.653026038590045" fill="brown" fill-opacity="0.6" stroke="black" stroke-width="1" />
<path d="M50.0,-0.0 L33.38915019138991,22.52174650517622 L48.66422838600879,24.653026038590045" fill="orange" fill-opacity="0.6" stroke="black" stroke-width="1" />
<path d="M33.38915019138991,-22.52174650517622 L48.66422838600879,-24.653026038590045 L49.538177009204944,-25.764848559315435" fill="black" fill-opacity="0.6" stroke="black" stroke-width="1" />
<path d="M33.38915019138991,22.52174650517622 L48.66422838600879,24.653026038590045 L49.538177009204944,25.764848559315435" fill="blue" fill-opacity="0.6" stroke="black" stroke-width="1" />
<path d="M48.66422838600879,-24.653026038590045 L49.538177009204944,-25.764848559315435 L50.0,-27.0" fill="red" fill-opacity="0.6" stroke="black" stroke-width="1" />
<path d="M48.66422838600879,24.653026038590045 L49.538177009204944,25.764848559315435 L50.0,27.0" fill="pink" fill-opacity="0.6" stroke="black" stroke-width="1" />
<path d="M47.0,50.0 L41.0,59.0 L38.0,62.0" fill="pink" fill-opacity="0.6" stroke="black" stroke-width="1" />
<path d="M47.0,-50.0 L41.0,-59.0 L38.0,-62.0" fill="yellow" fill-opacity="0.6" stroke="black" stroke-width="1" />
<path d="M41.0,59.0 L38.0,62.0 L32.0,68.0" fill="yellow" fill-opacity="0.6" stroke="black" stroke-width="1" />
<path d="M41.0,-59.0 L38.0,-62.0 L32.0,-68.0" fill="yellow" fill-opacity="0.6" stroke="black" stroke-width="1" />
<path d="M38.0,62.0 L32.0,68.0 L25.0,75.0" fill="purple" fill-opacity="0.6" stroke="black" stroke-width="1" />
<path d="M38.0,-62.0 L32.0,-68.0 L25.0,-75.0" fill="blue" fill-opacity="0.6" stroke="black" stroke-width="1" />
<path d="M25.0,-25.0 L3.9182652968075216,-0.671947414364471 L3.60841766188873,-0.5575272707671864" fill="black" fill-opacity="0.6" stroke="black" stroke-width="1" />
<path d="M25.0,25.0 L3.9182652968075216,0.671947414364471 L3.60841766188873,0.5575272707671864" fill="orange" fill-opacity="0.6" stroke="black" stroke-width="1" />
<path d="M3.9182652968075216,-0.671947414364471 L3.60841766188873,-0.5575272707671864 L0.0,-0.0" fill="orange" fill-opacity="0.6" stroke="black" stroke-width="1" />
<path d="M3.9182652968075216,0.671947414364471 L3.60841766188873,0.5575272707671864 L0.0,-0.0" fill="blue" fill-opacity="0.6" stroke="black" stroke-width="1" />
<path d="M-32.0,68.0 L-25.0,75.0 L-0.671947414364471,96.08173470319248" fill="yellow" fill-opacity="0.6" stroke="black" stroke-width="1" />
<path d="M-32.0,-68.0 L-25.0,-75.0 L-0.671947414364471,-96.08173470319248" fill="black" fill-opacity="0.6" stroke="black" stroke-width="1" />
<path d="M-25.0,-0.0 L-25.971462906114713,-0.6735722134869677 L-27.349468364512735,-3.836984549423045" fill="red" fill-opacity="0.6" stroke="black" stroke-width="1" />
<path d="M-25.0,-0.0 L-25.971462906114713,0.6735722134869677 L-27.349468364512735,3.836984549423045" fill="green" fill-opacity="0.6" stroke="black" stroke-width="1" />
<path d="M-25.971462906114713,-0.6735722134869677 L-27.349468364512735,-3.836984549423045 L-28.68434761842414,-5.982122062680695" fill="brown" fill-opacity="0.6" stroke="black" stroke-width="1" />
<path d="M-25.971462906114713,0.6735722134869677 L-27.349468364512735,3.836984549423045 L-28.68434761842414,5.982122062680695" fill="pink" fill-opacity="0.6" stroke="black" stroke-width="1" />
<path d="M-27.349468364512735,-3.836984549423045 L-28.68434761842414,-5.982122062680695 L-30.0,-0.0" fill="blue" fill-opacity="0.6" stroke="black" stroke-width="1" />
<path d="M-27.349468364512735,3.836984549423045 L-28.68434761842414,5.982122062680695 L-30.0,-0.0" fill="red" fill-opacity="0.6" stroke="black" stroke-width="1" />
<path d="M-50.0,-0.0 L-33.38915019138991,-22.52174650517622 L-48.66422838600879,-24.653026038590045" fill="black" fill-opacity="0.6" stroke="black" stroke-width="1" />
<path d="M-50.0,-0.0 L-33.38915019138991,22.52174650517622 L-48.66422838600879,24.653026038590045" fill="red" fill-opacity="0.6" stroke="black" stroke-width="1" />
<path d="M-33.38915019138991,-22.52174650517622 L-48.66422838600879,-24.653026038590045 L-49.538177009204944,-25.764848559315435" fill="yellow" fill-opacity="0.6" stroke="black" stroke-width="1" />
<path d="M-33.38915019138991,22.52174650517622 L-48.66422838600879,24.653026038590045 L-49.538177009204944,25.764848559315435" fill="blue" fill-opacity="0.6" stroke="black" stroke-width="1" />
<path d="M-48.66422838600879,-24.653026038590045 L-49.538177009204944,-25.764848559315435 L-50.0,-27.0" fill="yellow" fill-opacity="0.6" stroke="black" stroke-width="1" />
<path d="M-48.66422838600879,24.653026038590045 L-49.538177009204944,25.764848559315435 L-50.0,27.0" fill="green" fill-opacity="0.6" stroke="black" stroke-width="1" />
<path d="M-47.0,50.0 L-41.0,59.0 L-38.0,62.0" fill="brown" fill-opacity="0.6" stroke="black" stroke-width="1" />
<path d="M-47.0,-50.0 L-41.0,-59.0 L-38.0,-62.0" fill="orange" fill-opacity="0.6" stroke="black" stroke-width="1" />
<path d="M-41.0,59.0 L-38.0,62.0 L-32.0,68.0" fill="blue" fill-opacity="0.6" stroke="black" stroke-width="1" />
<path d="M-41.0,-59.0 L-38.0,-62.0 L-32.0,-68.0" fill="orange" fill-opacity="0.6" stroke="black" stroke-width="1" />
<path d="M-38.0,62.0 L-32.0,68.0 L-25.0,75.0" fill="pink" fill-opacity="0.6" stroke="black" stroke-width="1" />
<path d="M-38.0,-62.0 L-32.0,-68.0 L-25.0,-75.0" fill="black" fill-opacity="0.6" stroke="black" stroke-width="1" />
<path d="M-25.0,-25.0 L-3.9182652968075216,-0.671947414364471 L-3.60841766188873,-0.5575272707671864" fill="red" fill-opacity="0.6" stroke="black" stroke-width="1" />
<path d="M-25.0,25.0 L-3.9182652968075216,0.671947414364471 L-3.60841766188873,0.5575272707671864" fill="purple" fill-opacity="0.6" stroke="black" stroke-width="1" />
<path d="M-3.9182652968075216,-0.671947414364471 L-3.60841766188873,-0.5575272707671864 L0.0,-0.0" fill="yellow" fill-opacity="0.6" stroke="black" stroke-width="1" />
<path d="M-3.9182652968075216,0.671947414364471 L-3.60841766188873,0.5575272707671864 L0.0,-0.0" fill="purple" fill-opacity="0.6" stroke="black" stroke-width="1" />
<path d="M68.0,32.0 L75.0,25.0 L96.08173470319248,0.671947414364471" fill="orange" fill-opacity="0.6" stroke="black" stroke-width="1" />
<path d="M68.0,-32.0 L75.0,-25.0 L96.08173470319248,-0.671947414364471" fill="green" fill-opacity="0.6" stroke="black" stroke-width="1" />
<path d="M75.0,-0.0 L74.02853709388529,0.6735722134869677 L72.65053163548727,3.836984549423045" fill="pink" fill-opacity="0.6" stroke="black" stroke-width="1" />
<path d="M75.0,-0.0 L74.02853709388529,-0.6735722134869677 L72.65053163548727,-3.836984549423045" fill="red" fill-opacity="0.6" stroke="black" stroke-width="1" />
<path d="M74.02853709388529,0.6735722134869677 L72.65053163548727,3.836984549423045 L71.31565238157586,5.982122062680695" fill="blue" fill-opacity="0.6" stroke="black" stroke-width="1" />
<path d="M74.02853709388529,-0.6735722134869677 L72.65053163548727,-3.836984549423045 L71.31565238157586,-5.982122062680695" fill="purple" fill-opacity="0.6" stroke="black" stroke-width="1" />
<path d="M72.65053163548727,3.836984549423045 L71.31565238157586,5.982122062680695 L70.0,-0.0" fill="green" fill-opacity="0.6" stroke="black" stroke-width="1" />
<path d="M72.65053163548727,-3.836984549423045 L71.31565238157586,-5.982122062680695 L70.0,-0.0" fill="blue" fill-opacity="0.6" stroke="black" stroke-width="1" />
<path d="M50.0,-0.0 L66.61084980861008,22.52174650517622 L51.33577161399121,24.653026038590045" fill="purple" fill-opacity="0.6" stroke="black" stroke-width="1" />
<path d="M50.0,-0.0 L66.61084980861008,-22.52174650517622 L51.33577161399121,-24.653026038590045" fill="pink" fill-opacity="0.6" stroke="black" stroke-width="1" />
<path d="M66.61084980861008,22.52174650517622 L51.33577161399121,24.653026038590045 L50.461822990795056,25.764848559315435" fill="orange" fill-opacity="0.6" stroke="black" stroke-width="1" />
<path d="M66.61084980861008,-22.52174650517622 L51.33577161399121,-24.653026038590045 L50.461822990795056,-25.764848559315435" fill="purple" fill-opacity="0.6" stroke="black" stroke-width="1" />
<path d="M51.33577161399121,24.653026038590045 L50.461822990795056,25.764848559315435 L50.0,27.0" fill="yellow" fill-opacity="0.6" stroke="black" stroke-width="1" />
<path d="M51.33577161399121,-24.653026038590045 L50.461822990795056,-25.764848559315435 L50.0,-27.0" fill="brown" fill-opacity="0.6" stroke="black" stroke-width="1" />
<path d="M50.0,47.0 L59.0,41.0 L62.0,38.0" fill="orange" fill-opacity="0.6" stroke="black" stroke-width="1" />
<path d="M50.0,-47.0 L59.0,-41.0 L62.0,-38.0" fill="yellow" fill-opacity="0.6" stroke="black" stroke-width="1" />
<path d="M59.0,41.0 L62.0,38.0 L68.0,32.0" fill="green" fill-opacity="0.6" stroke="black" stroke-width="1" />
<path d="M59.0,-41.0 L62.0,-38.0 L68.0,-32.0" fill="purple" fill-opacity="0.6" stroke="black" stroke-width="1" />
<path d="M62.0,38.0 L68.0,32.0 L75.0,25.0" fill="yellow" fill-opacity="0.6" stroke="black" stroke-width="1" />
<path d="M62.0,-38.0 L68.0,-32.0 L75.0,-25.0" fill="green" fill-opacity="0.6" stroke="black" stroke-width="1" />
<path d="M75.0,25.0 L96.08173470319248,0.671947414364471 L96.39158233811128,0.5575272707671864" fill="brown" fill-opacity="0.6" stroke="black" stroke-width="1" />
<path d="M75.0,-25.0 L96.08173470319248,-0.671947414364471 L96.39158233811128,-0.5575272707671864" fill="black" fill-opacity="0.6" stroke="black" stroke-width="1" />
<path d="M96.08173470319248,0.671947414364471 L96.39158233811128,0.5575272707671864 L100.0,-0.0" fill="pink" fill-opacity="0.6" stroke="black" stroke-width="1" />
<path d="M96.08173470319248,-0.671947414364471 L96.39158233811128,-0.5575272707671864 L100.0,-0.0" fill="purple" fill-opacity="0.6" stroke="black" stroke-width="1" />
<path d="M0.0,-25.0 L0.6735722134869677,-25.971462906114713 L3.836984549423045,-27.349468364512735" fill="orange" fill-opacity="0.6" stroke="black" stroke-width="1" />
<path d="M0.0,25.0 L0.6735722134869677,25.971462906114713 L3.836984549423045,27.349468364512735" fill="brown" fill-opacity="0.6" stroke="black" stroke-width="1" />
<path d="M0.0,75.0 L0.6735722134869677,74.02853709388529 L3.836984549423045,72.65053163548727" fill="brown" fill-opacity="0.6" stroke="black" stroke-width="1" />
<path d="M0.0,-75.0 L0.6735722134869677,-74.02853709388529 L3.836984549423045,-72.65053163548727" fill="red" fill-opacity="0.6" stroke="black" stroke-width="1" />
<path d="M0.6735722134869677,-25.971462906114713 L3.836984549423045,-27.349468364512735 L5.982122062680695,-28.68434761842414" fill="green" fill-opacity="0.6" stroke="black" stroke-width="1" />
<path d="M0.6735722134869677,25.971462906114713 L3.836984549423045,27.349468364512735 L5.982122062680695,28.68434761842414" fill="blue" fill-opacity="0.6" stroke="black" stroke-width="1" />
<path d="M0.6735722134869677,74.02853709388529 L3.836984549423045,72.65053163548727 L5.982122062680695,71.31565238157586" fill="brown" fill-opacity="0.6" stroke="black" stroke-width="1" />
<path d="M0.6735722134869677,-74.02853709388529 L3.836984549423045,-72.65053163548727 L5.982122062680695,-71.31565238157586" fill="orange" fill-opacity="0.6" stroke="black" stroke-width="1" />
<path d="M3.836984549423045,-27.349468364512735 L5.982122062680695,-28.68434761842414 L0.0,-30.0" fill="orange" fill-opacity="0.6" stroke="black" stroke-width="1" />
<path d="M3.836984549423045,27.349468364512735 L5.982122062680695,28.68434761842414 L0.0,30.0" fill="blue" fill-opacity="0.6" stroke="black" stroke-width="1" />
<path d="M3.836984549423045,72.65053163548727 L5.982122062680695,71.31565238157586 L0.0,70.0" fill="blue" fill-opacity="0.6" stroke="black" stroke-width="1" />
<path d="M3.836984549423045,-72.65053163548727 L5.982122062680695,-71.31565238157586 L0.0,-70.0" fill="blue" fill-opacity="0.6" stroke="black" stroke-width="1" />
<path d="M0.0,-50.0 L22.52174650517622,-33.38915019138991 L24.653026038590045,-48.66422838600879" fill="yellow" fill-opacity="0.6" stroke="black" stroke-width="1" />
<path d="M0.0,50.0 L22.52174650517622,33.38915019138991 L24.653026038590045,48.66422838600879" fill="brown" fill-opacity="0.6" stroke="black" stroke-width="1" />
<path d="M0.0,50.0 L22.52174650517622,66.61084980861008 L24.653026038590045,51.33577161399121" fill="brown" fill-opacity="0.6" stroke="black" stroke-width="1" />
<path d="M0.0,-50.0 L22.52174650517622,-66.61084980861008 L24.653026038590045,-51.33577161399121" fill="orange" fill-opacity="0.6" stroke="black" stroke-width="1" />
<path d="M22.52174650517622,-33.38915019138991 L24.653026038590045,-48.66422838600879 L25.764848559315435,-49.538177009204944" fill="pink" fill-opacity="0.6" stroke="black" stroke-width="1" />
<path d="M22.52174650517622,33.38915019138991 L24.653026038590045,48.66422838600879 L25.764848559315435,49.538177009204944" fill="purple" fill-opacity="0.6" stroke="black" stroke-width="1" />
<path d="M22.52174650517622,66.61084980861008 L24.653026038590045,51.33577161399121 L25.764848559315435,50.461822990795056" fill="purple" fill-opacity="0.6" stroke="black" stroke-width="1" />
<path d="M22.52174650517622,-66.61084980861008 L24.653026038590045,-51.33577161399121 L25.764848559315435,-50.461822990795056" fill="red" fill-opacity="0.6" stroke="black" stroke-width="1" />
<path d="M24.653026038590045,-48.66422838600879 L25.764848559315435,-49.538177009204944 L27.0,-50.0" fill="green" fill-opacity="0.6" stroke="black" stroke-width="1" />
<path d="M24.653026038590045,48.66422838600879 L25.764848559315435,49.538177009204944 L27.0,50.0" fill="purple" fill-opacity="0.6" stroke="black" stroke-width="1" />
<path d="M24.653026038590045,51.33577161399121 L25.764848559315435,50.461822990795056 L27.0,50.0" fill="orange" fill-opacity="0.6" stroke="black" stroke-width="1" />
<path d="M24.653026038590045,-51.33577161399121 L25.764848559315435,-50.461822990795056 L27.0,-50.0" fill="brown" fill-opacity="0.6" stroke="black" stroke-width="1" />
<path d="M25.0,-25.0 L0.671947414364471,-3.9182652968075216 L0.5575272707671864,-3.60841766188873" fill="orange" fill-opacity="0.6" stroke="black" stroke-width="1" />
<path d="M25.0,25.0 L0.671947414364471,3.9182652968075216 L0.5575272707671864,3.60841766188873" fill="black" fill-opacity="0.6" stroke="black" stroke-width="1" />
<path d="M25.0,75.0 L0.671947414364471,96.08173470319248 L0.5575272707671864,96.39158233811128" fill="black" fill-opacity="0.6" stroke="black" stroke-width="1" />
<path d="M25.0,-75.0 L0.671947414364471,-96.08173470319248 L0.5575272707671864,-96.39158233811128" fill="purple" fill-opacity="0.6" stroke="black" stroke-width="1" />
<path d="M0.671947414364471,-3.9182652968075216 L0.5575272707671864,-3.60841766188873 L0.0,-0.0" fill="purple" fill-opacity="0.6" stroke="black" stroke-width="1" />
<path d="M0.671947414364471,3.9182652968075216 L0.5575272707671864,3.60841766188873 L0.0,-0.0" fill="pink" fill-opacity="0.6" stroke="black" stroke-width="1" />
<path d="M0.671947414364471,96.08173470319248 L0.5575272707671864,96.39158233811128 L0.0,100.0" fill="red" fill-opacity="0.6" stroke="black" stroke-width="1" />
<path d="M0.671947414364471,-96.08173470319248 L0.5575272707671864,-96.39158233811128 L0.0,-100.0" fill="orange" fill-opacity="0.6" stroke="black" stroke-width="1" />
<path d="M0.0,75.0 L-0.6735722134869677,74.02853709388529 L-3.836984549423045,72.65053163548727" fill="brown" fill-opacity="0.6" stroke="black" stroke-width="1" />
<path d="M0.0,-25.0 L-0.6735722134869677,-25.971462906114713 L-3.836984549423045,-27.349468364512735" fill="green" fill-opacity="0.6" stroke="black" stroke-width="1" />
<path d="M0.0,25.0 L-0.6735722134869677,25.97146290611471 L-3.836984549423045,27.34946836451273" fill="blue" fill-opacity="0.6" stroke="black" stroke-width="1" />
<path d="M0.0,-75.0 L-0.6735722134869677,-74.02853709388529 L-3.836984549423045,-72.65053163548727" fill="orange" fill-opacity="0.6" stroke="black" stroke-width="1" />
<path d="M-0.6735722134869677,74.02853709388529 L-3.836984549423045,72.65053163548727 L-5.982122062680695,71.31565238157586" fill="red" fill-opacity="0.6" stroke="black" stroke-width="1" />
<path d="M-0.6735722134869677,-25.971462906114713 L-3.836984549423045,-27.349468364512735 L-5.982122062680695,-28.68434761842414" fill="blue" fill-opacity="0.6" stroke="black" stroke-width="1" />
<path d="M-0.6735722134869677,25.97146290611471 L-3.836984549423045,27.34946836451273 L-5.982122062680695,28.68434761842414" fill="pink" fill-opacity="0.6" stroke="black" stroke-width="1" />
<path d="M-0.6735722134869677,-74.02853709388529 L-3.836984549423045,-72.65053163548727 L-5.982122062680695,-71.31565238157586" fill="pink" fill-opacity="0.6" stroke="black" stroke-width="1" />
<path d="M-3.836984549423045,72.65053163548727 L-5.982122062680695,71.31565238157586 L0.0,70.0" fill="black" fill-opacity="0.6" stroke="black" stroke-width="1" />
<path d="M-3.836984549423045,-27.349468364512735 L-5.982122062680695,-28.68434761842414 L0.0,-30.0" fill="purple" fill-opacity="0.6" stroke="black" stroke-width="1" />
<path d="M-3.836984549423045,27.34946836451273 L-5.982122062680695,28.68434761842414 L0.0,30.0" fill="black" fill-opacity="0.6" stroke="black" stroke-width="1" />
<path d="M-3.836984549423045,-72.65053163548727 L-5.982122062680695,-71.31565238157586 L0.0,-70.0" fill="black" fill-opacity="0.6" stroke="black" stroke-width="1" />
<path d="M0.0,50.0 L-22.52174650517622,66.61084980861008 L-24.653026038590045,51.33577161399121" fill="red" fill-opacity="0.6" stroke="black" stroke-width="1" />
<path d="M0.0,-50.0 L-22.52174650517622,-33.38915019138991 L-24.653026038590045,-48.66422838600879" fill="orange" fill-opacity="0.6" stroke="black" stroke-width="1" />
<path d="M0.0,50.0 L-22.52174650517622,33.389150191389916 L-24.653026038590045,48.66422838600879" fill="yellow" fill-opacity="0.6" stroke="black" stroke-width="1" />
<path d="M0.0,-50.0 L-22.52174650517622,-66.61084980861008 L-24.653026038590045,-51.33577161399121" fill="orange" fill-opacity="0.6" stroke="black" stroke-width="1" />
<path d="M-22.52174650517622,66.61084980861008 L-24.653026038590045,51.33577161399121 L-25.764848559315435,50.461822990795056" fill="purple" fill-opacity="0.6" stroke="black" stroke-width="1" />
<path d="M-22.52174650517622,-33.38915019138991 L-24.653026038590045,-48.66422838600879 L-25.764848559315435,-49.538177009204944" fill="red" fill-opacity="0.6" stroke="black" stroke-width="1" />
<path d="M-22.52174650517622,33.389150191389916 L-24.653026038590045,48.66422838600879 L-25.764848559315435,49.538177009204944" fill="blue" fill-opacity="0.6" stroke="black" stroke-width="1" />
<path d="M-22.52174650517622,-66.61084980861008 L-24.653026038590045,-51.33577161399121 L-25.764848559315435,-50.461822990795056" fill="brown" fill-opacity="0.6" stroke="black" stroke-width="1" />
<path d="M-24.653026038590045,51.33577161399121 L-25.764848559315435,50.461822990795056 L-27.0,50.0" fill="black" fill-opacity="0.6" stroke="black" stroke-width="1" />
<path d="M-24.653026038590045,-48.66422838600879 L-25.764848559315435,-49.538177009204944 L-27.0,-50.0" fill="red" fill-opacity="0.6" stroke="black" stroke-width="1" />
<path d="M-24.653026038590045,48.66422838600879 L-25.764848559315435,49.538177009204944 L-27.0,50.0" fill="yellow" fill-opacity="0.6" stroke="black" stroke-width="1" />
<path d="M-24.653026038590045,-51.33577161399121 L-25.764848559315435,-50.461822990795056 L-27.0,-50.0" fill="black" fill-opacity="0.6" stroke="black" stroke-width="1" />
<path d="M-25.0,75.0 L-0.671947414364471,96.08173470319248 L-0.5575272707671864,96.39158233811128" fill="red" fill-opacity="0.6" stroke="black" stroke-width="1" />
<path d="M-25.0,-25.0 L-0.671947414364471,-3.9182652968075216 L-0.5575272707671864,-3.60841766188873" fill="yellow" fill-opacity="0.6" stroke="black" stroke-width="1" />
<path d="M-25.0,25.0 L-0.671947414364471,3.918265296807519 L-0.5575272707671864,3.6084176618887227" fill="black" fill-opacity="0.6" stroke="black" stroke-width="1" />
<path d="M-25.0,-75.0 L-0.671947414364471,-96.08173470319248 L-0.5575272707671864,-96.39158233811128" fill="red" fill-opacity="0.6" stroke="black" stroke-width="1" />
<path d="M-0.671947414364471,96.08173470319248 L-0.5575272707671864,96.39158233811128 L0.0,100.0" fill="purple" fill-opacity="0.6" stroke="black" stroke-width="1" />
<path d="M-0.671947414364471,-3.9182652968075216 L-0.5575272707671864,-3.60841766188873 L0.0,-0.0" fill="pink" fill-opacity="0.6" stroke="black" stroke-width="1" />
<path d="M-0.671947414364471,3.918265296807519 L-0.5575272707671864,3.6084176618887227 L0.0,-0.0" fill="black" fill-opacity="0.6" stroke="black" stroke-width="1" />
<path d="M-0.671947414364471,-96.08173470319248 L-0.5575272707671864,-96.39158233811128 L0.0,-100.0" fill="blue" fill-opacity="0.6" stroke="black" stroke-width="1" />
<path d="M-68.0,-32.0 L-75.0,-25.0 L-96.08173470319248,-0.671947414364471" fill="brown" fill-opacity="0.6" stroke="black" stroke-width="1" />
<path d="M-68.0,32.0 L-75.0,25.0 L-96.08173470319248,0.671947414364471" fill="purple" fill-opacity="0.6" stroke="black" stroke-width="1" />
<path d="M-75.0,-0.0 L-74.02853709388529,-0.6735722134869677 L-72.65053163548727,-3.836984549423045" fill="orange" fill-opacity="0.6" stroke="black" stroke-width="1" />
<path d="M-75.0,-0.0 L-74.02853709388529,0.6735722134869677 L-72.65053163548727,3.836984549423045" fill="pink" fill-opacity="0.6" stroke="black" stroke-width="1" />
<path d="M-74.02853709388529,-0.6735722134869677 L-72.65053163548727,-3.836984549423045 L-71.31565238157586,-5.982122062680695" fill="brown" fill-opacity="0.6" stroke="black" stroke-width="1" />
<path d="M-74.02853709388529,0.6735722134869677 L-72.65053163548727,3.836984549423045 L-71.31565238157586,5.982122062680695" fill="orange" fill-opacity="0.6" stroke="black" stroke-width="1" />
<path d="M-72.65053163548727,-3.836984549423045 L-71.31565238157586,-5.982122062680695 L-70.0,-0.0" fill="pink" fill-opacity="0.6" stroke="black" stroke-width="1" />
<path d="M-72.65053163548727,3.836984549423045 L-71.31565238157586,5.982122062680695 L-70.0,-0.0" fill="red" fill-opacity="0.6" stroke="black" stroke-width="1" />
<path d="M-50.0,-0.0 L-66.61084980861008,-22.52174650517622 L-51.33577161399121,-24.653026038590045" fill="purple" fill-opacity="0.6" stroke="black" stroke-width="1" />
<path d="M-50.0,-0.0 L-66.61084980861008,22.52174650517622 L-51.33577161399121,24.653026038590045" fill="pink" fill-opacity="0.6" stroke="black" stroke-width="1" />
<path d="M-66.61084980861008,-22.52174650517622 L-51.33577161399121,-24.653026038590045 L-50.461822990795056,-25.764848559315435" fill="black" fill-opacity="0.6" stroke="black" stroke-width="1" />
<path d="M-66.61084980861008,22.52174650517622 L-51.33577161399121,24.653026038590045 L-50.461822990795056,25.764848559315435" fill="black" fill-opacity="0.6" stroke="black" stroke-width="1" />
<path d="M-51.33577161399121,-24.653026038590045 L-50.461822990795056,-25.764848559315435 L-50.0,-27.0" fill="purple" fill-opacity="0.6" stroke="black" stroke-width="1" />
<path d="M-51.33577161399121,24.653026038590045 L-50.461822990795056,25.764848559315435 L-50.0,27.0" fill="orange" fill-opacity="0.6" stroke="black" stroke-width="1" />
<path d="M-50.0,-47.0 L-59.0,-41.0 L-62.0,-38.0" fill="blue" fill-opacity="0.6" stroke="black" stroke-width="1" />
<path d="M-50.0,47.0 L-59.0,41.0 L-62.0,38.0" fill="orange" fill-opacity="0.6" stroke="black" stroke-width="1" />
<path d="M-59.0,-41.0 L-62.0,-38.0 L-68.0,-32.0" fill="orange" fill-opacity="0.6" stroke="black" stroke-width="1" />
<path d="M-59.0,41.0 L-62.0,38.0 L-68.0,32.0" fill="black" fill-opacity="0.6" stroke="black" stroke-width="1" />
<path d="M-62.0,-38.0 L-68.0,-32.0 L-75.0,-25.0" fill="pink" fill-opacity="0.6" stroke="black" stroke-width="1" />
<path d="M-62.0,38.0 L-68.0,32.0 L-75.0,25.0" fill="red" fill-opacity="0.6" stroke="black" stroke-width="1" />
<path d="M-75.0,-25.0 L-96.08173470319248,-0.671947414364471 L-96.39158233811128,-0.5575272707671864" fill="purple" fill-opacity="0.6" stroke="black" stroke-width="1" />
<path d="M-75.0,25.0 L-96.08173470319248,0.671947414364471 L-96.39158233811128,0.5575272707671864" fill="blue" fill-opacity="0.6" stroke="black" stroke-width="1" />
<path d="M-96.08173470319248,-0.671947414364471 L-96.39158233811128,-0.5575272707671864 L-100.0,-0.0" fill="red" fill-opacity="0.6" stroke="black" stroke-width="1" />
<path d="M-96.08173470319248,0.671947414364471 L-96.39158233811128,0.5575272707671864 L-100.0,-0.0" fill="black" fill-opacity="0.6" stroke="black" stroke-width="1" />
</svg>