<?xml version="1.0" encoding="UTF-8"?>
<svg xmlns="http://www.w3.org/2000/svg" xmlns:xlink="http://www.w3.org/1999/xlink"
     width="250" height="250" viewBox="-125.0 -125.0 250 250">
<defs>
</defs>
<path d="M10.0,-0.0 L13.596109338872843,-3.384279714561589 L15.0,-0.0" fill-opacity="0" stroke="black" stroke-width="1" />
<path d="M10.0,-0.0 L13.596109338872843,3.384279714561589 L15.0,-0.0" fill-opacity="0" stroke="black" stroke-width="1" />
<path d="M15.0,-0.0 L17.165614788918624,-4.341561602140658 L18.0,-0.0" fill-opacity="0" stroke="black" stroke-width="1" />
<path d="M15.0,-0.0 L17.165614788918624,4.341561602140658 L18.0,-0.0" fill-opacity="0" stroke="black" stroke-width="1" />
<path d="M18.0,-0.0 L19.87318551929699,-4.914837392564077 L20.13622813323813,-5.006234465821202" fill-opacity="0" stroke="black" stroke-width="1" />
<path d="M18.0,-0.0 L19.87318551929699,4.914837392564077 L20.13622813323813,5.006234465821202" fill-opacity="0" stroke="black" stroke-width="1" />
<path d="M19.87318551929699,-4.914837392564077 L20.13622813323813,-5.006234465821202 L21.0,-0.0" fill-opacity="0" stroke="black" stroke-width="1" />
<path d="M19.87318551929699,4.914837392564077 L20.13622813323813,5.006234465821202 L21.0,-0.0" fill-opacity="0" stroke="black" stroke-width="1" />
<path d="M26.0,74.0 L21.0,79.0 L14.0,86.0" fill-opacity="0" stroke="black" stroke-width="1" />
<path d="M26.0,-74.0 L21.0,-79.0 L14.0,-86.0" fill-opacity="0" stroke="black" stroke-width="1" />
<path d="M21.0,-0.0 L24.00707396635895,-5.645711717983554 L29.03549260895013,-7.656384392303761" fill-opacity="0" stroke="black" stroke-width="1" />
<path d="M21.0,-0.0 L24.00707396635895,5.645711717983554 L29.03549260895013,7.656384392303761" fill-opacity="0" stroke="black" stroke-width="1" />
<path d="M24.00707396635895,-5.645711717983554 L29.03549260895013,-7.656384392303761 L38.0,-0.0" fill-opacity="0" stroke="black" stroke-width="1" />
<path d="M24.00707396635895,5.645711717983554 L29.03549260895013,7.656384392303761 L38.0,-0.0" fill-opacity="0" stroke="black" stroke-width="1" />
<path d="M42.0,58.0 L38.0,62.0 L36.0,64.0" fill-opacity="0" stroke="black" stroke-width="1" />
<path d="M42.0,-58.0 L38.0,-62.0 L36.0,-64.0" fill-opacity="0" stroke="black" stroke-width="1" />
<path d="M50.0,-1.0 L37.915410391548235,-13.012464372990507 L39.09371214404692,-14.050966916731722" fill-opacity="0" stroke="black" stroke-width="1" />
<path d="M50.0,1.0 L37.915410391548235,13.012464372990507 L39.09371214404692,14.050966916731722" fill-opacity="0" stroke="black" stroke-width="1" />
<path d="M37.915410391548235,-13.012464372990507 L39.09371214404692,-14.050966916731722 L40.75246587998524,-23.795657792988543" fill-opacity="0" stroke="black" stroke-width="1" />
<path d="M37.915410391548235,13.012464372990507 L39.09371214404692,14.050966916731722 L40.75246587998524,23.795657792988543" fill-opacity="0" stroke="black" stroke-width="1" />
<path d="M39.09371214404692,-14.050966916731722 L40.75246587998524,-23.795657792988543 L50.0,-26.0" fill-opacity="0" stroke="black" stroke-width="1" />
<path d="M39.09371214404692,14.050966916731722 L40.75246587998524,23.795657792988543 L50.0,26.0" fill-opacity="0" stroke="black" stroke-width="1" />
<path d="M50.0,-29.0 L45.42744053040092,-30.463805371743025 L50.0,-37.0" fill-opacity="0" stroke="black" stroke-width="1" />
<path d="M50.0,29.0 L45.42744053040092,30.463805371743025 L50.0,37.0" fill-opacity="0" stroke="black" stroke-width="1" />
<path d="M50.0,-50.0 L46.20021867167559,-42.073286093906 L42.0,-42.0" fill-opacity="0" stroke="black" stroke-width="1" />
<path d="M50.0,50.0 L46.20021867167559,42.073286093906 L42.0,42.0" fill-opacity="0" stroke="black" stroke-width="1" />
<path d="M42.073286093906,53.79978132832441 L42.0,58.0 L38.0,62.0" fill-opacity="0" stroke="black" stroke-width="1" />
<path d="M42.073286093906,-53.79978132832441 L42.0,-58.0 L38.0,-62.0" fill-opacity="0" stroke="black" stroke-width="1" />
<path d="M38.0,62.0 L36.0,64.0 L26.0,74.0" fill-opacity="0" stroke="black" stroke-width="1" />
<path d="M38.0,-62.0 L36.0,-64.0 L26.0,-74.0" fill-opacity="0" stroke="black" stroke-width="1" />
<path d="M36.0,64.0 L26.0,74.0 L21.0,79.0" fill-opacity="0" stroke="black" stroke-width="1" />
<path d="M36.0,-64.0 L26.0,-74.0 L21.0,-79.0" fill-opacity="0" stroke="black" stroke-width="1" />
<path d="M21.0,79.0 L14.0,86.0 L2.7310580392713324,93.74676431161316" fill-opacity="0" stroke="black" stroke-width="1" />
<path d="M21.0,-79.0 L14.0,-86.0 L2.7310580392713324,-93.74676431161316" fill-opacity="0" stroke="black" stroke-width="1" />
<path d="M14.0,-14.0 L6.253235688386838,-2.7310580392713324 L6.138041154957186,-1.6420761036710392" fill-opacity="0" stroke="black" stroke-width="1" />
<path d="M14.0,14.0 L6.253235688386838,2.7310580392713324 L6.138041154957186,1.6420761036710392" fill-opacity="0" stroke="black" stroke-width="1" />
<path d="M6.253235688386838,-2.7310580392713324 L6.138041154957186,-1.6420761036710392 L4.960656752724995,-0.6038131406889607" fill-opacity="0" stroke="black" stroke-width="1" />
<path d="M6.253235688386838,2.7310580392713324 L6.138041154957186,1.6420761036710392 L4.960656752724995,0.6038131406889607" fill-opacity="0" stroke="black" stroke-width="1" />
<path d="M6.138041154957186,-1.6420761036710392 L4.960656752724995,-0.6038131406889607 L3.0,-3.0" fill-opacity="0" stroke="black" stroke-width="1" />
<path d="M6.138041154957186,1.6420761036710392 L4.960656752724995,0.6038131406889607 L3.0,3.0" fill-opacity="0" stroke="black" stroke-width="1" />
<path d="M0.6038131406889607,95.03934324727501 L3.0,97.0 L0.42650117617312955,97.15540134544528" fill-opacity="0" stroke="black" stroke-width="1" />
<path d="M0.6038131406889607,-95.03934324727501 L3.0,-97.0 L0.42650117617312955,-97.15540134544528" fill-opacity="0" stroke="black" stroke-width="1" />
<path d="M3.0,-3.0 L2.8445986545547197,-0.42650117617312955 L0.3809993823384705,-0.09513008603110386" fill-opacity="0" stroke="black" stroke-width="1" />
<path d="M3.0,3.0 L2.8445986545547197,0.42650117617312955 L0.3809993823384705,0.09513008603110386" fill-opacity="0" stroke="black" stroke-width="1" />
<path d="M2.8445986545547197,-0.42650117617312955 L0.3809993823384705,-0.09513008603110386 L0.235032745867364,-0.05098233911765299" fill-opacity="0" stroke="black" stroke-width="1" />
<path d="M2.8445986545547197,0.42650117617312955 L0.3809993823384705,0.09513008603110386 L0.235032745867364,0.05098233911765299" fill-opacity="0" stroke="black" stroke-width="1" />
<path d="M0.3809993823384705,-0.09513008603110386 L0.235032745867364,-0.05098233911765299 L0.0,-0.0" fill-opacity="0" stroke="black" stroke-width="1" />
<path d="M0.3809993823384705,0.09513008603110386 L0.235032745867364,0.05098233911765299 L0.0,-0.0" fill-opacity="0" stroke="black" stroke-width="1" />
<path d="M-10.0,-0.0 L-13.596109338872843,-3.384279714561589 L-15.0,-0.0" fill-opacity="0" stroke="black" stroke-width="1" />
<path d="M-10.0,-0.0 L-13.596109338872843,3.384279714561589 L-15.0,-0.0" fill-opacity="0" stroke="black" stroke-width="1" />
<path d="M-15.0,-0.0 L-17.165614788918624,-4.341561602140658 L-18.0,-0.0" fill-opacity="0" stroke="black" stroke-width="1" />
<path d="M-15.0,-0.0 L-17.165614788918624,4.341561602140658 L-18.0,-0.0" fill-opacity="0" stroke="black" stroke-width="1" />
<path d="M-18.0,-0.0 L-19.87318551929699,-4.914837392564077 L-20.13622813323813,-5.006234465821202" fill-opacity="0" stroke="black" stroke-width="1" />
<path d="M-18.0,-0.0 L-19.87318551929699,4.914837392564077 L-20.13622813323813,5.006234465821202" fill-opacity="0" stroke="black" stroke-width="1" />
<path d="M-19.87318551929699,-4.914837392564077 L-20.13622813323813,-5.006234465821202 L-21.0,-0.0" fill-opacity="0" stroke="black" stroke-width="1" />
<path d="M-19.87318551929699,4.914837392564077 L-20.13622813323813,5.006234465821202 L-21.0,-0.0" fill-opacity="0" stroke="black" stroke-width="1" />
<path d="M-26.0,74.0 L-21.0,79.0 L-14.0,86.0" fill-opacity="0" stroke="black" stroke-width="1" />
<path d="M-26.0,-74.0 L-21.0,-79.0 L-14.0,-86.0" fill-opacity="0" stroke="black" stroke-width="1" />
<path d="M-21.0,-0.0 L-24.00707396635895,-5.645711717983554 L-29.03549260895013,-7.656384392303761" fill-opacity="0" stroke="black" stroke-width="1" />
<path d="M-21.0,-0.0 L-24.00707396635895,5.645711717983554 L-29.03549260895013,7.656384392303761" fill-opacity="0" stroke="black" stroke-width="1" />
<path d="M-24.00707396635895,-5.645711717983554 L-29.03549260895013,-7.656384392303761 L-38.0,-0.0" fill-opacity="0" stroke="black" stroke-width="1" />
<path d="M-24.00707396635895,5.645711717983554 L-29.03549260895013,7.656384392303761 L-38.0,-0.0" fill-opacity="0" stroke="black" stroke-width="1" />
<path d="M-42.0,58.0 L-38.0,62.0 L-36.0,64.0" fill-opacity="0" stroke="black" stroke-width="1" />
<path d="M-42.0,-58.0 L-38.0,-62.0 L-36.0,-64.0" fill-opacity="0" stroke="black" stroke-width="1" />
<path d="M-50.0,-1.0 L-37.915410391548235,-13.012464372990507 L-39.09371214404692,-14.050966916731722" fill-opacity="0" stroke="black" stroke-width="1" />
<path d="M-50.0,1.0 L-37.915410391548235,13.012464372990507 L-39.09371214404692,14.050966916731722" fill-opacity="0" stroke="black" stroke-width="1" />
<path d="M-37.915410391548235,-13.012464372990507 L-39.09371214404692,-14.050966916731722 L-40.75246587998524,-23.795657792988543" fill-opacity="0" stroke="black" stroke-width="1" />
<path d="M-37.915410391548235,13.012464372990507 L-39.09371214404692,14.050966916731722 L-40.75246587998524,23.795657792988543" fill-opacity="0" stroke="black" stroke-width="1" />
<path d="M-39.09371214404692,-14.050966916731722 L-40.75246587998524,-23.795657792988543 L-50.0,-26.0" fill-opacity="0" stroke="black" stroke-width="1" />
<path d="M-39.09371214404692,14.050966916731722 L-40.75246587998524,23.795657792988543 L-50.0,26.0" fill-opacity="0" stroke="black" stroke-width="1" />
<path d="M-50.0,-29.0 L-45.42744053040092,-30.463805371743025 L-50.0,-37.0" fill-opacity="0" stroke="black" stroke-width="1" />
<path d="M-50.0,29.0 L-45.42744053040092,30.463805371743025 L-50.0,37.0" fill-opacity="0" stroke="black" stroke-width="1" />
<path d="M-50.0,-50.0 L-46.20021867167559,-42.073286093906 L-42.0,-42.0" fill-opacity="0" stroke="black" stroke-width="1" />
<path d="M-50.0,50.0 L-46.20021867167559,42.073286093906 L-42.0,42.0" fill-opacity="0" stroke="black" stroke-width="1" />
<path d="M-42.073286093906,53.79978132832441 L-42.0,58.0 L-38.0,62.0" fill-opacity="0" stroke="black" stroke-width="1" />
<path d="M-42.073286093906,-53.79978132832441 L-42.0,-58.0 L-38.0,-62.0" fill-opacity="0" stroke="black" stroke-width="1" />
<path d="M-38.0,62.0 L-36.0,64.0 L-26.0,74.0" fill-opacity="0" stroke="black" stroke-width="1" />
<path d="M-38.0,-62.0 L-36.0,-64.0 L-26.0,-74.0" fill-opacity="0" stroke="black" stroke-width="1" />
<path d="M-36.0,64.0 L-26.0,74.0 L-21.0,79.0" fill-opacity="0" stroke="black" stroke-width="1" />
<path d="M-36.0,-64.0 L-26.0,-74.0 L-21.0,-79.0" fill-opacity="0" stroke="black" stroke-width="1" />
<path d="M-21.0,79.0 L-14.0,86.0 L-2.7310580392713324,93.74676431161316" fill-opacity="0" stroke="black" stroke-width="1" />
<path d="M-21.0,-79.0 L-14.0,-86.0 L-2.7310580392713324,-93.74676431161316" fill-opacity="0" stroke="black" stroke-width="1" />
<path d="M-14.0,-14.0 L-6.253235688386838,-2.7310580392713324 L-6.138041154957186,-1.6420761036710392" fill-opacity="0" stroke="black" stroke-width="1" />
<path d="M-14.0,14.0 L-6.253235688386838,2.7310580392713324 L-6.138041154957186,1.6420761036710392" fill-opacity="0" stroke="black" stroke-width="1" />
<path d="M-6.253235688386838,-2.7310580392713324 L-6.138041154957186,-1.6420761036710392 L-4.960656752724995,-0.6038131406889607" fill-opacity="0" stroke="black" stroke-width="1" />
<path d="M-6.253235688386838,2.7310580392713324 L-6.138041154957186,1.6420761036710392 L-4.960656752724995,0.6038131406889607" fill-opacity="0" stroke="black" stroke-width="1" />
<path d="M-6.138041154957186,-1.6420761036710392 L-4.960656752724995,-0.6038131406889607 L-3.0,-3.0" fill-opacity="0" stroke="black" stroke-width="1" />
<path d="M-6.138041154957186,1.6420761036710392 L-4.960656752724995,0.6038131406889607 L-3.0,3.0" fill-opacity="0" stroke="black" stroke-width="1" />
<path d="M-0.6038131406889607,95.039343247275 L-3.0,97.0 L-0.42650117617312955,97.15540134544528" fill-opacity="0" stroke="black" stroke-width="1" />
<path d="M-0.6038131406889607,-95.03934324727501 L-3.0,-97.0 L-0.42650117617312955,-97.15540134544528" fill-opacity="0" stroke="black" stroke-width="1" />
<path d="M-3.0,-3.0 L-2.8445986545547197,-0.42650117617312955 L-0.3809993823384705,-0.09513008603110386" fill-opacity="0" stroke="black" stroke-width="1" />
<path d="M-3.0,3.0 L-2.8445986545547197,0.42650117617312955 L-0.3809993823384705,0.09513008603110386" fill-opacity="0" stroke="black" stroke-width="1" />
<path d="M-2.8445986545547197,-0.42650117617312955 L-0.3809993823384705,-0.09513008603110386 L-0.235032745867364,-0.05098233911765299" fill-opacity="0" stroke="black" stroke-width="1" />
<path d="M-2.8445986545547197,0.42650117617312955 L-0.3809993823384705,0.09513008603110386 L-0.235032745867364,0.05098233911765299" fill-opacity="0" stroke="black" stroke-width="1" />
<path d="M-0.3809993823384705,-0.09513008603110386 L-0.235032745867364,-0.05098233911765299 L0.0,-0.0" fill-opacity="0" stroke="black" stroke-width="1" />
<path d="M-0.3809993823384705,0.09513008603110386 L-0.235032745867364,0.05098233911765299 L0.0,-0.0" fill-opacity="0" stroke="black" stroke-width="1" />
<path d="M90.0,-0.0 L86.40389066112715,3.384279714561589 L85.0,-0.0" fill-opacity="0" stroke="black" stroke-width="1" />
<path d="M90.0,-0.0 L86.40389066112715,-3.384279714561589 L85.0,-0.0" fill-opacity="0" stroke="black" stroke-width="1" />
<path d="M85.0,-0.0 L82.83438521108138,4.341561602140658 L82.0,-0.0" fill-opacity="0" stroke="black" stroke-width="1" />
<path d="M85.0,-0.0 L82.83438521108138,-4.341561602140658 L82.0,-0.0" fill-opacity="0" stroke="black" stroke-width="1" />
<path d="M82.0,-0.0 L80.12681448070302,4.914837392564077 L79.86377186676187,5.006234465821202" fill-opacity="0" stroke="black" stroke-width="1" />
<path d="M82.0,-0.0 L80.12681448070302,-4.914837392564077 L79.86377186676187,-5.006234465821202" fill-opacity="0" stroke="black" stroke-width="1" />
<path d="M80.12681448070302,4.914837392564077 L79.86377186676187,5.006234465821202 L79.0,-0.0" fill-opacity="0" stroke="black" stroke-width="1" />
<path d="M80.12681448070302,-4.914837392564077 L79.86377186676187,-5.006234465821202 L79.0,-0.0" fill-opacity="0" stroke="black" stroke-width="1" />
<path d="M74.0,26.0 L79.0,21.0 L86.0,14.0" fill-opacity="0" stroke="black" stroke-width="1" />
<path d="M74.0,-26.0 L79.0,-21.0 L86.0,-14.0" fill-opacity="0" stroke="black" stroke-width="1" />
<path d="M79.0,-0.0 L75.99292603364106,5.645711717983554 L70.96450739104986,7.656384392303761" fill-opacity="0" stroke="black" stroke-width="1" />
<path d="M79.0,-0.0 L75.99292603364106,-5.645711717983554 L70.96450739104986,-7.656384392303761" fill-opacity="0" stroke="black" stroke-width="1" />
<path d="M75.99292603364106,5.645711717983554 L70.96450739104986,7.656384392303761 L62.0,-0.0" fill-opacity="0" stroke="black" stroke-width="1" />
<path d="M75.99292603364106,-5.645711717983554 L70.96450739104986,-7.656384392303761 L62.0,-0.0" fill-opacity="0" stroke="black" stroke-width="1" />
<path d="M58.0,42.0 L62.0,38.0 L64.0,36.0" fill-opacity="0" stroke="black" stroke-width="1" />
<path d="M58.0,-42.0 L62.0,-38.0 L64.0,-36.0" fill-opacity="0" stroke="black" stroke-width="1" />
<path d="M50.0,1.0 L62.084589608451765,13.012464372990507 L60.90628785595308,14.050966916731722" fill-opacity="0" stroke="black" stroke-width="1" />
<path d="M50.0,-1.0 L62.084589608451765,-13.012464372990507 L60.90628785595308,-14.050966916731722" fill-opacity="0" stroke="black" stroke-width="1" />
<path d="M62.084589608451765,13.012464372990507 L60.90628785595308,14.050966916731722 L59.24753412001476,23.795657792988543" fill-opacity="0" stroke="black" stroke-width="1" />
<path d="M62.084589608451765,-13.012464372990507 L60.90628785595308,-14.050966916731722 L59.24753412001476,-23.795657792988543" fill-opacity="0" stroke="black" stroke-width="1" />
<path d="M60.90628785595308,14.050966916731722 L59.24753412001476,23.795657792988543 L50.0,26.0" fill-opacity="0" stroke="black" stroke-width="1" />
<path d="M60.90628785595308,-14.050966916731722 L59.24753412001476,-23.795657792988543 L50.0,-26.0" fill-opacity="0" stroke="black" stroke-width="1" />
<path d="M50.0,29.0 L54.57255946959908,30.463805371743025 L50.0,37.0" fill-opacity="0" stroke="black" stroke-width="1" />
<path d="M50.0,-29.0 L54.57255946959908,-30.463805371743025 L50.0,-37.0" fill-opacity="0" stroke="black" stroke-width="1" />
<path d="M50.0,50.0 L53.79978132832441,42.073286093906 L58.0,42.0" fill-opacity="0" stroke="black" stroke-width="1" />
<path d="M50.0,-50.0 L53.79978132832441,-42.073286093906 L58.0,-42.0" fill-opacity="0" stroke="black" stroke-width="1" />
<path d="M53.79978132832441,42.073286093906 L58.0,42.0 L62.0,38.0" fill-opacity="0" stroke="black" stroke-width="1" />
<path d="M53.79978132832441,-42.073286093906 L58.0,-42.0 L62.0,-38.0" fill-opacity="0" stroke="black" stroke-width="1" />
<path d="M62.0,38.0 L64.0,36.0 L74.0,26.0" fill-opacity="0" stroke="black" stroke-width="1" />
<path d="M62.0,-38.0 L64.0,-36.0 L74.0,-26.0" fill-opacity="0" stroke="black" stroke-width="1" />
<path d="M64.0,36.0 L74.0,26.0 L79.0,21.0" fill-opacity="0" stroke="black" stroke-width="1" />
<path d="M64.0,-36.0 L74.0,-26.0 L79.0,-21.0" fill-opacity="0" stroke="black" stroke-width="1" />
<path d="M79.0,21.0 L86.0,14.0 L93.74676431161316,2.7310580392713324" fill-opacity="0" stroke="black" stroke-width="1" />
<path d="M79.0,-21.0 L86.0,-14.0 L93.74676431161316,-2.7310580392713324" fill-opacity="0" stroke="black" stroke-width="1" />
<path d="M86.0,14.0 L93.74676431161316,2.7310580392713324 L93.8619588450428,1.6420761036710392" fill-opacity="0" stroke="black" stroke-width="1" />
<path d="M86.0,-14.0 L93.74676431161316,-2.7310580392713324 L93.8619588450428,-1.6420761036710392" fill-opacity="0" stroke="black" stroke-width="1" />
<path d="M93.74676431161316,2.7310580392713324 L93.8619588450428,1.6420761036710392 L95.03934324727501,0.6038131406889607" fill-opacity="0" stroke="black" stroke-width="1" />
<path d="M93.74676431161316,-2.7310580392713324 L93.8619588450428,-1.6420761036710392 L95.03934324727501,-0.6038131406889607" fill-opacity="0" stroke="black" stroke-width="1" />
<path d="M93.8619588450428,1.6420761036710392 L95.03934324727501,0.6038131406889607 L97.0,3.0" fill-opacity="0" stroke="black" stroke-width="1" />
<path d="M93.8619588450428,-1.6420761036710392 L95.03934324727501,-0.6038131406889607 L97.0,-3.0" fill-opacity="0" stroke="black" stroke-width="1" />
<path d="M95.03934324727501,0.6038131406889607 L97.0,3.0 L97.15540134544528,0.42650117617312955" fill-opacity="0" stroke="black" stroke-width="1" />
<path d="M95.03934324727501,-0.6038131406889607 L97.0,-3.0 L97.15540134544528,-0.42650117617312955" fill-opacity="0" stroke="black" stroke-width="1" />
<path d="M97.0,3.0 L97.15540134544528,0.42650117617312955 L99.61900061766153,0.09513008603110386" fill-opacity="0" stroke="black" stroke-width="1" />
<path d="M97.0,-3.0 L97.15540134544528,-0.42650117617312955 L99.61900061766153,-0.09513008603110386" fill-opacity="0" stroke="black" stroke-width="1" />
<path d="M97.15540134544528,0.42650117617312955 L99.61900061766153,0.09513008603110386 L99.76496725413264,0.05098233911765299" fill-opacity="0" stroke="black" stroke-width="1" />
<path d="M97.15540134544528,-0.42650117617312955 L99.61900061766153,-0.09513008603110386 L99.76496725413264,-0.05098233911765299" fill-opacity="0" stroke="black" stroke-width="1" />
<path d="M99.61900061766153,0.09513008603110386 L99.76496725413264,0.05098233911765299 L100.0,-0.0" fill-opacity="0" stroke="black" stroke-width="1" />
<path d="M99.61900061766153,-0.09513008603110386 L99.76496725413264,-0.05098233911765299 L100.0,-0.0" fill-opacity="0" stroke="black" stroke-width="1" />
<path d="M0.0,-10.0 L3.384279714561589,-13.596109338872843 L0.0,-15.0" fill-opacity="0" stroke="black" stroke-width="1" />
<path d="M0.0,10.0 L3.384279714561589,13.596109338872843 L0.0,15.0" fill-opacity="0" stroke="black" stroke-width="1" />
<path d="M0.0,90.0 L3.384279714561589,86.40389066112715 L0.0,85.0" fill-opacity="0" stroke="black" stroke-width="1" />
<path d="M0.0,-90.0 L3.384279714561589,-86.40389066112715 L0.0,-85.0" fill-opacity="0" stroke="black" stroke-width="1" />
<path d="M0.0,-15.0 L4.341561602140658,-17.165614788918624 L0.0,-18.0" fill-opacity="0" stroke="black" stroke-width="1" />
<path d="M0.0,15.0 L4.341561602140658,17.165614788918624 L0.0,18.0" fill-opacity="0" stroke="black" stroke-width="1" />
<path d="M0.0,85.0 L4.341561602140658,82.83438521108138 L0.0,82.0" fill-opacity="0" stroke="black" stroke-width="1" />
<path d="M0.0,-85.0 L4.341561602140658,-82.83438521108138 L0.0,-82.0" fill-opacity="0" stroke="black" stroke-width="1" />
<path d="M0.0,-18.0 L4.914837392564077,-19.87318551929699 L5.006234465821202,-20.13622813323813" fill-opacity="0" stroke="black" stroke-width="1" />
<path d="M0.0,18.0 L4.914837392564077,19.87318551929699 L5.006234465821202,20.13622813323813" fill-opacity="0" stroke="black" stroke-width="1" />
<path d="M0.0,82.0 L4.914837392564077,80.12681448070302 L5.006234465821202,79.86377186676187" fill-opacity="0" stroke="black" stroke-width="1" />
<path d="M0.0,-82.0 L4.914837392564077,-80.12681448070302 L5.006234465821202,-79.86377186676187" fill-opacity="0" stroke="black" stroke-width="1" />
<path d="M4.914837392564077,-19.87318551929699 L5.006234465821202,-20.13622813323813 L0.0,-21.0" fill-opacity="0" stroke="black" stroke-width="1" />
<path d="M4.914837392564077,19.87318551929699 L5.006234465821202,20.13622813323813 L0.0,21.0" fill-opacity="0" stroke="black" stroke-width="1" />
<path d="M4.914837392564077,80.12681448070302 L5.006234465821202,79.86377186676187 L0.0,79.0" fill-opacity="0" stroke="black" stroke-width="1" />
<path d="M4.914837392564077,-80.12681448070302 L5.006234465821202,-79.86377186676187 L0.0,-79.0" fill-opacity="0" stroke="black" stroke-width="1" />
<path d="M0.0,-21.0 L5.645711717983554,-24.00707396635895 L7.656384392303761,-29.03549260895013" fill-opacity="0" stroke="black" stroke-width="1" />
<path d="M0.0,21.0 L5.645711717983554,24.00707396635895 L7.656384392303761,29.03549260895013" fill-opacity="0" stroke="black" stroke-width="1" />
<path d="M0.0,79.0 L5.645711717983554,75.99292603364106 L7.656384392303761,70.96450739104986" fill-opacity="0" stroke="black" stroke-width="1" />
<path d="M0.0,-79.0 L5.645711717983554,-75.99292603364106 L7.656384392303761,-70.96450739104986" fill-opacity="0" stroke="black" stroke-width="1" />
<path d="M5.645711717983554,-24.00707396635895 L7.656384392303761,-29.03549260895013 L0.0,-38.0" fill-opacity="0" stroke="black" stroke-width="1" />
<path d="M5.645711717983554,24.00707396635895 L7.656384392303761,29.03549260895013 L0.0,38.0" fill-opacity="0" stroke="black" stroke-width="1" />
<path d="M5.645711717983554,75.99292603364106 L7.656384392303761,70.96450739104986 L0.0,62.0" fill-opacity="0" stroke="black" stroke-width="1" />
<path d="M5.645711717983554,-75.99292603364106 L7.656384392303761,-70.96450739104986 L0.0,-62.0" fill-opacity="0" stroke="black" stroke-width="1" />
<path d="M1.0,-50.0 L13.012464372990507,-37.915410391548235 L14.050966916731722,-39.09371214404692" fill-opacity="0" stroke="black" stroke-width="1" />
<path d="M1.0,50.0 L13.012464372990507,37.915410391548235 L14.050966916731722,39.09371214404692" fill-opacity="0" stroke="black" stroke-width="1" />
<path d="M1.0,50.0 L13.012464372990507,62.084589608451765 L14.050966916731722,60.90628785595308" fill-opacity="0" stroke="black" stroke-width="1" />
<path d="M1.0,-50.0 L13.012464372990507,-62.084589608451765 L14.050966916731722,-60.90628785595308" fill-opacity="0" stroke="black" stroke-width="1" />
<path d="M13.012464372990507,-37.915410391548235 L14.050966916731722,-39.09371214404692 L23.795657792988543,-40.75246587998524" fill-opacity="0" stroke="black" stroke-width="1" />
<path d="M13.012464372990507,37.915410391548235 L14.050966916731722,39.09371214404692 L23.795657792988543,40.75246587998524" fill-opacity="0" stroke="black" stroke-width="1" />
<path d="M13.012464372990507,62.084589608451765 L14.050966916731722,60.90628785595308 L23.795657792988543,59.24753412001476" fill-opacity="0" stroke="black" stroke-width="1" />
<path d="M13.012464372990507,-62.084589608451765 L14.050966916731722,-60.90628785595308 L23.795657792988543,-59.24753412001476" fill-opacity="0" stroke="black" stroke-width="1" />
<path d="M14.050966916731722,-39.09371214404692 L23.795657792988543,-40.75246587998524 L26.0,-50.0" fill-opacity="0" stroke="black" stroke-width="1" />
<path d="M14.050966916731722,39.09371214404692 L23.795657792988543,40.75246587998524 L26.0,50.0" fill-opacity="0" stroke="black" stroke-width="1" />
<path d="M14.050966916731722,60.90628785595308 L23.795657792988543,59.24753412001476 L26.0,50.0" fill-opacity="0" stroke="black" stroke-width="1" />
<path d="M14.050966916731722,-60.90628785595308 L23.795657792988543,-59.24753412001476 L26.0,-50.0" fill-opacity="0" stroke="black" stroke-width="1" />
<path d="M29.0,-50.0 L30.463805371743025,-45.42744053040092 L37.0,-50.0" fill-opacity="0" stroke="black" stroke-width="1" />
<path d="M29.0,50.0 L30.463805371743025,45.42744053040092 L37.0,50.0" fill-opacity="0" stroke="black" stroke-width="1" />
<path d="M29.0,50.0 L30.463805371743025,54.57255946959908 L37.0,50.0" fill-opacity="0" stroke="black" stroke-width="1" />
<path d="M29.0,-50.0 L30.463805371743025,-54.57255946959908 L37.0,-50.0" fill-opacity="0" stroke="black" stroke-width="1" />
<path d="M50.0,-50.0 L42.073286093906,-46.20021867167559 L42.0,-42.0" fill-opacity="0" stroke="black" stroke-width="1" />
<path d="M50.0,50.0 L42.073286093906,46.20021867167559 L42.0,42.0" fill-opacity="0" stroke="black" stroke-width="1" />
<path d="M50.0,50.0 L42.073286093906,53.79978132832441 L42.0,58.0" fill-opacity="0" stroke="black" stroke-width="1" />
<path d="M50.0,-50.0 L42.073286093906,-53.79978132832441 L42.0,-58.0" fill-opacity="0" stroke="black" stroke-width="1" />
<path d="M14.0,-14.0 L2.7310580392713324,-6.253235688386838 L1.6420761036710392,-6.138041154957186" fill-opacity="0" stroke="black" stroke-width="1" />
<path d="M14.0,14.0 L2.7310580392713324,6.253235688386838 L1.6420761036710392,6.138041154957186" fill-opacity="0" stroke="black" stroke-width="1" />
<path d="M14.0,86.0 L2.7310580392713324,93.74676431161316 L1.6420761036710392,93.8619588450428" fill-opacity="0" stroke="black" stroke-width="1" />
<path d="M14.0,-86.0 L2.7310580392713324,-93.74676431161316 L1.6420761036710392,-93.8619588450428" fill-opacity="0" stroke="black" stroke-width="1" />
<path d="M2.7310580392713324,-6.253235688386838 L1.6420761036710392,-6.138041154957186 L0.6038131406889607,-4.960656752724995" fill-opacity="0" stroke="black" stroke-width="1" />
<path d="M2.7310580392713324,6.253235688386838 L1.6420761036710392,6.138041154957186 L0.6038131406889607,4.960656752724995" fill-opacity="0" stroke="black" stroke-width="1" />
<path d="M2.7310580392713324,93.74676431161316 L1.6420761036710392,93.8619588450428 L0.6038131406889607,95.03934324727501" fill-opacity="0" stroke="black" stroke-width="1" />
<path d="M2.7310580392713324,-93.74676431161316 L1.6420761036710392,-93.8619588450428 L0.6038131406889607,-95.03934324727501" fill-opacity="0" stroke="black" stroke-width="1" />
<path d="M1.6420761036710392,-6.138041154957186 L0.6038131406889607,-4.960656752724995 L3.0,-3.0" fill-opacity="0" stroke="black" stroke-width="1" />
<path d="M1.6420761036710392,6.138041154957186 L0.6038131406889607,4.960656752724995 L3.0,3.0" fill-opacity="0" stroke="black" stroke-width="1" />
<path d="M1.6420761036710392,93.8619588450428 L0.6038131406889607,95.03934324727501 L3.0,97.0" fill-opacity="0" stroke="black" stroke-width="1" />
<path d="M1.6420761036710392,-93.8619588450428 L0.6038131406889607,-95.03934324727501 L3.0,-97.0" fill-opacity="0" stroke="black" stroke-width="1" />
<path d="M3.0,-3.0 L0.42650117617312955,-2.8445986545547197 L0.09513008603110386,-0.3809993823384705" fill-opacity="0" stroke="black" stroke-width="1" />
<path d="M3.0,3.0 L0.42650117617312955,2.8445986545547197 L0.09513008603110386,0.3809993823384705" fill-opacity="0" stroke="black" stroke-width="1" />
<path d="M3.0,97.0 L0.42650117617312955,97.15540134544528 L0.09513008603110386,99.61900061766153" fill-opacity="0" stroke="black" stroke-width="1" />
<path d="M3.0,-97.0 L0.42650117617312955,-97.15540134544528 L0.09513008603110386,-99.61900061766153" fill-opacity="0" stroke="black" stroke-width="1" />
<path d="M0.42650117617312955,-2.8445986545547197 L0.09513008603110386,-0.3809993823384705 L0.05098233911765299,-0.235032745867364" fill-opacity="0" stroke="black" stroke-width="1" />
<path d="M0.42650117617312955,2.8445986545547197 L0.09513008603110386,0.3809993823384705 L0.05098233911765299,0.235032745867364" fill-opacity="0" stroke="black" stroke-width="1" />
<path d="M0.42650117617312955,97.15540134544528 L0.09513008603110386,99.61900061766153 L0.05098233911765299,99.76496725413264" fill-opacity="0" stroke="black" stroke-width="1" />
<path d="M0.42650117617312955,-97.15540134544528 L0.09513008603110386,-99.61900061766153 L0.05098233911765299,-99.76496725413264" fill-opacity="0" stroke="black" stroke-width="1" />
<path d="M0.09513008603110386,-0.3809993823384705 L0.05098233911765299,-0.235032745867364 L0.0,-0.0" fill-opacity="0" stroke="black" stroke-width="1" />
<path d="M0.09513008603110386,0.3809993823384705 L0.05098233911765299,0.235032745867364 L0.0,-0.0" fill-opacity="0" stroke="black" stroke-width="1" />
<path d="M0.09513008603110386,99.61900061766153 L0.05098233911765299,99.76496725413264 L0.0,100.0" fill-opacity="0" stroke="black" stroke-width="1" />
<path d="M0.09513008603110386,-99.61900061766153 L0.05098233911765299,-99.76496725413264 L0.0,-100.0" fill-opacity="0" stroke="black" stroke-width="1" />
<path d="M0.0,90.0 L-3.384279714561589,86.40389066112715 L0.0,85.0" fill-opacity="0" stroke="black" stroke-width="1" />
<path d="M0.0,-10.0 L-3.384279714561589,-13.596109338872843 L0.0,-15.0" fill-opacity="0" stroke="black" stroke-width="1" />
<path d="M0.0,10.0 L-3.384279714561589,13.59610933887285 L0.0,15.0" fill-opacity="0" stroke="black" stroke-width="1" />
<path d="M0.0,-90.0 L-3.384279714561589,-86.40389066112715 L0.0,-85.0" fill-opacity="0" stroke="black" stroke-width="1" />
<path d="M0.0,85.0 L-4.341561602140658,82.83438521108138 L0.0,82.0" fill-opacity="0" stroke="black" stroke-width="1" />
<path d="M0.0,-15.0 L-4.341561602140658,-17.165614788918624 L0.0,-18.0" fill-opacity="0" stroke="black" stroke-width="1" />
<path d="M0.0,15.0 L-4.341561602140658,17.165614788918617 L0.0,18.0" fill-opacity="0" stroke="black" stroke-width="1" />
<path d="M0.0,-85.0 L-4.341561602140658,-82.83438521108138 L0.0,-82.0" fill-opacity="0" stroke="black" stroke-width="1" />
<path d="M0.0,82.0 L-4.914837392564077,80.12681448070302 L-5.006234465821202,79.86377186676187" fill-opacity="0" stroke="black" stroke-width="1" />
<path d="M0.0,-18.0 L-4.914837392564077,-19.87318551929699 L-5.006234465821202,-20.13622813323813" fill-opacity="0" stroke="black" stroke-width="1" />
<path d="M0.0,18.0 L-4.914837392564077,19.87318551929698 L-5.006234465821202,20.136228133238134" fill-opacity="0" stroke="black" stroke-width="1" />
<path d="M0.0,-82.0 L-4.914837392564077,-80.12681448070302 L-5.006234465821202,-79.86377186676187" fill-opacity="0" stroke="black" stroke-width="1" />
<path d="M-4.914837392564077,80.12681448070302 L-5.006234465821202,79.86377186676187 L0.0,79.0" fill-opacity="0" stroke="black" stroke-width="1" />
<path d="M-4.914837392564077,-19.87318551929699 L-5.006234465821202,-20.13622813323813 L0.0,-21.0" fill-opacity="0" stroke="black" stroke-width="1" />
<path d="M-4.914837392564077,19.87318551929698 L-5.006234465821202,20.136228133238134 L0.0,21.0" fill-opacity="0" stroke="black" stroke-width="1" />
<path d="M-4.914837392564077,-80.12681448070302 L-5.006234465821202,-79.86377186676187 L0.0,-79.0" fill-opacity="0" stroke="black" stroke-width="1" />
<path d="M0.0,79.0 L-5.645711717983554,75.99292603364106 L-7.656384392303761,70.96450739104986" fill-opacity="0" stroke="black" stroke-width="1" />
<path d="M0.0,-21.0 L-5.645711717983554,-24.00707396635895 L-7.656384392303761,-29.03549260895013" fill-opacity="0" stroke="black" stroke-width="1" />
<path d="M0.0,21.0 L-5.645711717983554,24.007073966358945 L-7.656384392303761,29.035492608950136" fill-opacity="0" stroke="black" stroke-width="1" />
<path d="M0.0,-79.0 L-5.645711717983554,-75.99292603364106 L-7.656384392303761,-70.96450739104986" fill-opacity="0" stroke="black" stroke-width="1" />
<path d="M-5.645711717983554,75.99292603364106 L-7.656384392303761,70.96450739104986 L0.0,62.0" fill-opacity="0" stroke="black" stroke-width="1" />
<path d="M-5.645711717983554,-24.00707396635895 L-7.656384392303761,-29.03549260895013 L0.0,-38.0" fill-opacity="0" stroke="black" stroke-width="1" />
<path d="M-5.645711717983554,24.007073966358945 L-7.656384392303761,29.035492608950136 L0.0,38.0" fill-opacity="0" stroke="black" stroke-width="1" />
<path d="M-5.645711717983554,-75.99292603364106 L-7.656384392303761,-70.96450739104986 L0.0,-62.0" fill-opacity="0" stroke="black" stroke-width="1" />
<path d="M-1.0,50.0 L-13.012464372990507,62.084589608451765 L-14.050966916731722,60.90628785595308" fill-opacity="0" stroke="black" stroke-width="1" />
<path d="M-1.0,-50.0 L-13.012464372990507,-37.915410391548235 L-14.050966916731722,-39.09371214404692" fill-opacity="0" stroke="black" stroke-width="1" />
<path d="M-1.0,50.0 L-13.012464372990507,37.915410391548235 L-14.050966916731722,39.09371214404692" fill-opacity="0" stroke="black" stroke-width="1" />
<path d="M-1.0,-50.0 L-13.012464372990507,-62.084589608451765 L-14.050966916731722,-60.90628785595308" fill-opacity="0" stroke="black" stroke-width="1" />
<path d="M-13.012464372990507,62.084589608451765 L-14.050966916731722,60.90628785595308 L-23.795657792988543,59.24753412001476" fill-opacity="0" stroke="black" stroke-width="1" />
<path d="M-13.012464372990507,-37.915410391548235 L-14.050966916731722,-39.09371214404692 L-23.795657792988543,-40.75246587998524" fill-opacity="0" stroke="black" stroke-width="1" />
<path d="M-13.012464372990507,37.915410391548235 L-14.050966916731722,39.09371214404692 L-23.795657792988543,40.75246587998524" fill-opacity="0" stroke="black" stroke-width="1" />
<path d="M-13.012464372990507,-62.084589608451765 L-14.050966916731722,-60.90628785595308 L-23.795657792988543,-59.24753412001476" fill-opacity="0" stroke="black" stroke-width="1" />
<path d="M-14.050966916731722,60.90628785595308 L-23.795657792988543,59.24753412001476 L-26.0,50.0" fill-opacity="0" stroke="black" stroke-width="1" />
<path d="M-14.050966916731722,-39.09371214404692 L-23.795657792988543,-40.75246587998524 L-26.0,-50.0" fill-opacity="0" stroke="black" stroke-width="1" />
<path d="M-14.050966916731722,39.09371214404692 L-23.795657792988543,40.75246587998524 L-26.0,50.0" fill-opacity="0" stroke="black" stroke-width="1" />
<path d="M-14.050966916731722,-60.90628785595308 L-23.795657792988543,-59.24753412001476 L-26.0,-50.0" fill-opacity="0" stroke="black" stroke-width="1" />
<path d="M-29.0,50.0 L-30.463805371743025,54.57255946959908 L-37.0,50.0" fill-opacity="0" stroke="black" stroke-width="1" />
<path d="M-29.0,-50.0 L-30.463805371743025,-45.42744053040092 L-37.0,-50.0" fill-opacity="0" stroke="black" stroke-width="1" />
<path d="M-29.0,50.0 L-30.463805371743025,45.42744053040092 L-37.0,50.0" fill-opacity="0" stroke="black" stroke-width="1" />
<path d="M-29.0,-50.0 L-30.463805371743025,-54.57255946959908 L-37.0,-50.0" fill-opacity="0" stroke="black" stroke-width="1" />
<path d="M-50.0,50.0 L-42.073286093906,53.79978132832441 L-42.0,58.0" fill-opacity="0" stroke="black" stroke-width="1" />
<path d="M-50.0,-50.0 L-42.073286093906,-46.20021867167559 L-42.0,-42.0" fill-opacity="0" stroke="black" stroke-width="1" />
<path d="M-50.0,50.0 L-42.073286093906,46.20021867167559 L-42.0,42.0" fill-opacity="0" stroke="black" stroke-width="1" />
<path d="M-50.0,-50.0 L-42.073286093906,-53.79978132832441 L-42.0,-58.0" fill-opacity="0" stroke="black" stroke-width="1" />
<path d="M-14.0,86.0 L-2.7310580392713324,93.74676431161316 L-1.6420761036710392,93.8619588450428" fill-opacity="0" stroke="black" stroke-width="1" />
<path d="M-14.0,-14.0 L-2.7310580392713324,-6.253235688386838 L-1.6420761036710392,-6.138041154957186" fill-opacity="0" stroke="black" stroke-width="1" />
<path d="M-14.0,14.0 L-2.7310580392713324,6.253235688386837 L-1.6420761036710392,6.138041154957193" fill-opacity="0" stroke="black" stroke-width="1" />
<path d="M-14.0,-86.0 L-2.7310580392713324,-93.74676431161316 L-1.6420761036710392,-93.8619588450428" fill-opacity="0" stroke="black" stroke-width="1" />
<path d="M-2.7310580392713324,93.74676431161316 L-1.6420761036710392,93.8619588450428 L-0.6038131406889607,95.039343247275" fill-opacity="0" stroke="black" stroke-width="1" />
<path d="M-2.7310580392713324,-6.253235688386838 L-1.6420761036710392,-6.138041154957186 L-0.6038131406889607,-4.960656752724995" fill-opacity="0" stroke="black" stroke-width="1" />
<path d="M-2.7310580392713324,6.253235688386837 L-1.6420761036710392,6.138041154957193 L-0.6038131406889607,4.960656752725001" fill-opacity="0" stroke="black" stroke-width="1" />
<path d="M-2.7310580392713324,-93.74676431161316 L-1.6420761036710392,-93.8619588450428 L-0.6038131406889607,-95.03934324727501" fill-opacity="0" stroke="black" stroke-width="1" />
<path d="M-1.6420761036710392,93.8619588450428 L-0.6038131406889607,95.039343247275 L-3.0,97.0" fill-opacity="0" stroke="black" stroke-width="1" />
<path d="M-1.6420761036710392,-6.138041154957186 L-0.6038131406889607,-4.960656752724995 L-3.0,-3.0" fill-opacity="0" stroke="black" stroke-width="1" />
<path d="M-1.6420761036710392,6.138041154957193 L-0.6038131406889607,4.960656752725001 L-3.0,3.0" fill-opacity="0" stroke="black" stroke-width="1" />
<path d="M-1.6420761036710392,-93.8619588450428 L-0.6038131406889607,-95.03934324727501 L-3.0,-97.0" fill-opacity="0" stroke="black" stroke-width="1" />
<path d="M-3.0,97.0 L-0.42650117617312955,97.15540134544528 L-0.09513008603110386,99.61900061766153" fill-opacity="0" stroke="black" stroke-width="1" />
<path d="M-3.0,-3.0 L-0.42650117617312955,-2.8445986545547197 L-0.09513008603110386,-0.3809993823384705" fill-opacity="0" stroke="black" stroke-width="1" />
<path d="M-3.0,3.0 L-0.42650117617312955,2.8445986545547157 L-0.09513008603110386,0.38099938233847297" fill-opacity="0" stroke="black" stroke-width="1" />
<path d="M-3.0,-97.0 L-0.42650117617312955,-97.15540134544528 L-0.09513008603110386,-99.61900061766153" fill-opacity="0" stroke="black" stroke-width="1" />
<path d="M-0.42650117617312955,97.15540134544528 L-0.09513008603110386,99.61900061766153 L-0.05098233911765299,99.76496725413264" fill-opacity="0" stroke="black" stroke-width="1" />
<path d="M-0.42650117617312955,-2.8445986545547197 L-0.09513008603110386,-0.3809993823384705 L-0.05098233911765299,-0.235032745867364" fill-opacity="0" stroke="black" stroke-width="1" />
<path d="M-0.42650117617312955,2.8445986545547157 L-0.09513008603110386,0.38099938233847297 L-0.05098233911765299,0.23503274586735756" fill-opacity="0" stroke="black" stroke-width="1" />
<path d="M-0.42650117617312955,-97.15540134544528 L-0.09513008603110386,-99.61900061766153 L-0.05098233911765299,-99.76496725413264" fill-opacity="0" stroke="black" stroke-width="1" />
<path d="M-0.09513008603110386,99.61900061766153 L-0.05098233911765299,99.76496725413264 L0.0,100.0" fill-opacity="0" stroke="black" stroke-width="1" />
<path d="M-0.09513008603110386,-0.3809993823384705 L-0.05098233911765299,-0.235032745867364 L0.0,-0.0" fill-opacity="0" stroke="black" stroke-width="1" />
<path d="M-0.09513008603110386,0.38099938233847297 L-0.05098233911765299,0.23503274586735756 L0.0,-0.0" fill-opacity="0" stroke="black" stroke-width="1" />
<path d="M-0.09513008603110386,-99.61900061766153 L-0.05098233911765299,-99.76496725413264 L0.0,-100.0" fill-opacity="0" stroke="black" stroke-width="1" />
<path d="M-90.0,-0.0 L-86.40389066112715,-3.384279714561589 L-85.0,-0.0" fill-opacity="0" stroke="black" stroke-width="1" />
<path d="M-90.0,-0.0 L-86.40389066112715,3.384279714561589 L-85.0,-0.0" fill-opacity="0" stroke="black" stroke-width="1" />
<path d="M-85.0,-0.0 L-82.83438521108138,-4.341561602140658 L-82.0,-0.0" fill-opacity="0" stroke="black" stroke-width="1" />
<path d="M-85.0,-0.0 L-82.83438521108138,4.341561602140658 L-82.0,-0.0" fill-opacity="0" stroke="black" stroke-width="1" />
<path d="M-82.0,-0.0 L-80.12681448070302,-4.914837392564077 L-79.86377186676187,-5.006234465821202" fill-opacity="0" stroke="black" stroke-width="1" />
<path d="M-82.0,-0.0 L-80.12681448070302,4.914837392564077 L-79.86377186676187,5.006234465821202" fill-opacity="0" stroke="black" stroke-width="1" />
<path d="M-80.12681448070302,-4.914837392564077 L-79.86377186676187,-5.006234465821202 L-79.0,-0.0" fill-opacity="0" stroke="black" stroke-width="1" />
<path d="M-80.12681448070302,4.914837392564077 L-79.86377186676187,5.006234465821202 L-79.0,-0.0" fill-opacity="0" stroke="black" stroke-width="1" />
<path d="M-74.0,-26.0 L-79.0,-21.0 L-86.0,-14.0" fill-opacity="0" stroke="black" stroke-width="1" />
<path d="M-74.0,26.0 L-79.0,21.0 L-86.0,14.0" fill-opacity="0" stroke="black" stroke-width="1" />
<path d="M-79.0,-0.0 L-75.99292603364106,-5.645711717983554 L-70.96450739104986,-7.656384392303761" fill-opacity="0" stroke="black" stroke-width="1" />
<path d="M-79.0,-0.0 L-75.99292603364106,5.645711717983554 L-70.96450739104986,7.656384392303761" fill-opacity="0" stroke="black" stroke-width="1" />
<path d="M-75.99292603364106,-5.645711717983554 L-70.96450739104986,-7.656384392303761 L-62.0,-0.0" fill-opacity="0" stroke="black" stroke-width="1" />
<path d="M-75.99292603364106,5.645711717983554 L-70.96450739104986,7.656384392303761 L-62.0,-0.0" fill-opacity="0" stroke="black" stroke-width="1" />
<path d="M-58.0,-42.0 L-62.0,-38.0 L-64.0,-36.0" fill-opacity="0" stroke="black" stroke-width="1" />
<path d="M-58.0,42.0 L-62.0,38.0 L-64.0,36.0" fill-opacity="0" stroke="black" stroke-width="1" />
<path d="M-50.0,-1.0 L-62.084589608451765,-13.012464372990507 L-60.90628785595308,-14.050966916731722" fill-opacity="0" stroke="black" stroke-width="1" />
<path d="M-50.0,1.0 L-62.084589608451765,13.012464372990507 L-60.90628785595308,14.050966916731722" fill-opacity="0" stroke="black" stroke-width="1" />
<path d="M-62.084589608451765,-13.012464372990507 L-60.90628785595308,-14.050966916731722 L-59.24753412001476,-23.795657792988543" fill-opacity="0" stroke="black" stroke-width="1" />
<path d="M-62.084589608451765,13.012464372990507 L-60.90628785595308,14.050966916731722 L-59.24753412001476,23.795657792988543" fill-opacity="0" stroke="black" stroke-width="1" />
<path d="M-60.90628785595308,-14.050966916731722 L-59.24753412001476,-23.795657792988543 L-50.0,-26.0" fill-opacity="0" stroke="black" stroke-width="1" />
<path d="M-60.90628785595308,14.050966916731722 L-59.24753412001476,23.795657792988543 L-50.0,26.0" fill-opacity="0" stroke="black" stroke-width="1" />
<path d="M-50.0,-29.0 L-54.57255946959908,-30.463805371743025 L-50.0,-37.0" fill-opacity="0" stroke="black" stroke-width="1" />
<path d="M-50.0,29.0 L-54.57255946959908,30.463805371743025 L-50.0,37.0" fill-opacity="0" stroke="black" stroke-width="1" />
<path d="M-50.0,-50.0 L-53.79978132832441,-42.073286093906 L-58.0,-42.0" fill-opacity="0" stroke="black" stroke-width="1" />
<path d="M-50.0,50.0 L-53.79978132832441,42.073286093906 L-58.0,42.0" fill-opacity="0" stroke="black" stroke-width="1" />
<path d="M-53.79978132832441,-42.073286093906 L-58.0,-42.0 L-62.0,-38.0" fill-opacity="0" stroke="black" stroke-width="1" />
<path d="M-53.79978132832441,42.073286093906 L-58.0,42.0 L-62.0,38.0" fill-opacity="0" stroke="black" stroke-width="1" />
<path d="M-62.0,-38.0 L-64.0,-36.0 L-74.0,-26.0" fill-opacity="0" stroke="black" stroke-width="1" />
<path d="M-62.0,38.0 L-64.0,36.0 L-74.0,26.0" fill-opacity="0" stroke="black" stroke-width="1" />
<path d="M-64.0,-36.0 L-74.0,-26.0 L-79.0,-21.0" fill-opacity="0" stroke="black" stroke-width="1" />
<path d="M-64.0,36.0 L-74.0,26.0 L-79.0,21.0" fill-opacity="0" stroke="black" stroke-width="1" />
<path d="M-79.0,-21.0 L-86.0,-14.0 L-93.74676431161316,-2.7310580392713324" fill-opacity="0" stroke="black" stroke-width="1" />
<path d="M-79.0,21.0 L-86.0,14.0 L-93.74676431161316,2.7310580392713324" fill-opacity="0" stroke="black" stroke-width="1" />
<path d="M-86.0,-14.0 L-93.74676431161316,-2.7310580392713324 L-93.8619588450428,-1.6420761036710392" fill-opacity="0" stroke="black" stroke-width="1" />
<path d="M-86.0,14.0 L-93.74676431161316,2.7310580392713324 L-93.8619588450428,1.6420761036710392" fill-opacity="0" stroke="black" stroke-width="1" />
<path d="M-93.74676431161316,-2.7310580392713324 L-93.8619588450428,-1.6420761036710392 L-95.03934324727501,-0.6038131406889607" fill-opacity="0" stroke="black" stroke-width="1" />
<path d="M-93.74676431161316,2.7310580392713324 L-93.8619588450428,1.6420761036710392 L-95.03934324727501,0.6038131406889607" fill-opacity="0" stroke="black" stroke-width="1" />
<path d="M-93.8619588450428,-1.6420761036710392 L-95.03934324727501,-0.6038131406889607 L-97.0,-3.0" fill-opacity="0" stroke="black" stroke-width="1" />
<path d="M-93.8619588450428,1.6420761036710392 L-95.03934324727501,0.6038131406889607 L-97.0,3.0" fill-opacity="0" stroke="black" stroke-width="1" />
<path d="M-95.03934324727501,-0.6038131406889607 L-97.0,-3.0 L-97.15540134544528,-0.42650117617312955" fill-opacity="0" stroke="black" stroke-width="1" />
<path d="M-95.03934324727501,0.6038131406889607 L-97.0,3.0 L-97.15540134544528,0.42650117617312955" fill-opacity="0" stroke="black" stroke-width="1" />
<path d="M-97.0,-3.0 L-97.15540134544528,-0.42650117617312955 L-99.61900061766153,-0.09513008603110386" fill-opacity="0" stroke="black" stroke-width="1" />
<path d="M-97.0,3.0 L-97.15540134544528,0.42650117617312955 L-99.61900061766153,0.09513008603110386" fill-opacity="0" stroke="black" stroke-width="1" />
<path d="M-97.15540134544528,-0.42650117617312955 L-99.61900061766153,-0.09513008603110386 L-99.76496725413264,-0.05098233911765299" fill-opacity="0" stroke="black" stroke-width="1" />
<path d="M-97.15540134544528,0.42650117617312955 L-99.61900061766153,0.09513008603110386 L-99.76496725413264,0.05098233911765299" fill-opacity="0" stroke="black" stroke-width="1" />
<path d="M-99.61900061766153,-0.09513008603110386 L-99.76496725413264,-0.05098233911765299 L-100.0,-0.0" fill-opacity="0" stroke="black" stroke-width="1" />
<path d="M-99.61900061766153,0.09513008603110386 L-99.76496725413264,0.05098233911765299 L-100.0,-0.0" fill-opacity="0" stroke="black" stroke-width="1" />
</svg>