<?xml version="1.0" encoding="UTF-8"?>
<svg xmlns="http://www.w3.org/2000/svg" xmlns:xlink="http://www.w3.org/1999/xlink"
     width="250" height="250" viewBox="-125.0 -125.0 250 250">
<defs>
</defs>
<path d="M0.0,-0.0 L14.576312474360087,-2.3937702100991234 L17.0,-0.0" fill="purple" fill-opacity="0.6" stroke="black" stroke-width="1" />
<path d="M0.0,-0.0 L14.576312474360087,2.3937702100991234 L17.0,-0.0" fill="orange" fill-opacity="0.6" stroke="black" stroke-width="1" />
<path d="M48.0,50.0 L40.0,60.0 L27.0,73.0" fill="pink" fill-opacity="0.6" stroke="black" stroke-width="1" />
<path d="M48.0,-50.0 L40.0,-60.0 L27.0,-73.0" fill="green" fill-opacity="0.6" stroke="black" stroke-width="1" />
<path d="M40.0,60.0 L27.0,73.0 L24.0,76.0" fill="pink" fill-opacity="0.6" stroke="black" stroke-width="1" />
<path d="M40.0,-60.0 L27.0,-73.0 L24.0,-76.0" fill="black" fill-opacity="0.6" stroke="black" stroke-width="1" />
<path d="M27.0,73.0 L24.0,76.0 L23.0,77.0" fill="green" fill-opacity="0.6" stroke="black" stroke-width="1" />
<path d="M27.0,-73.0 L24.0,-76.0 L23.0,-77.0" fill="orange" fill-opacity="0.6" stroke="black" stroke-width="1" />
<path d="M24.0,76.0 L23.0,77.0 L13.0,87.0" fill="red" fill-opacity="0.6" stroke="black" stroke-width="1" />
<path d="M24.0,-76.0 L23.0,-77.0 L13.0,-87.0" fill="black" fill-opacity="0.6" stroke="black" stroke-width="1" />
<path d="M23.0,77.0 L13.0,87.0 L1.5843928972360075,92.20755448048467" fill="orange" fill-opacity="0.6" stroke="black" stroke-width="1" />
<path d="M23.0,-77.0 L13.0,-87.0 L1.5843928972360075,-92.20755448048467" fill="orange" fill-opacity="0.6" stroke="black" stroke-width="1" />
<path d="M13.0,-13.0 L7.792445519515322,-1.5843928972360075 L3.0825858449976815,-1.345384414212436" fill="red" fill-opacity="0.6" stroke="black" stroke-width="1" />
<path d="M13.0,13.0 L7.792445519515322,1.5843928972360075 L3.0825858449976815,1.345384414212436" fill="blue" fill-opacity="0.6" stroke="black" stroke-width="1" />
<path d="M7.792445519515322,-1.5843928972360075 L3.0825858449976815,-1.345384414212436 L2.25903063002455,-1.1307792070807703" fill="brown" fill-opacity="0.6" stroke="black" stroke-width="1" />
<path d="M7.792445519515322,1.5843928972360075 L3.0825858449976815,1.345384414212436 L2.25903063002455,1.1307792070807703" fill="green" fill-opacity="0.6" stroke="black" stroke-width="1" />
<path d="M3.0825858449976815,-1.345384414212436 L2.25903063002455,-1.1307792070807703 L0.026380498509120942,-0.008226032444566737" fill="pink" fill-opacity="0.6" stroke="black" stroke-width="1" />
<path d="M3.0825858449976815,1.345384414212436 L2.25903063002455,1.1307792070807703 L0.026380498509120942,0.008226032444566737" fill="blue" fill-opacity="0.6" stroke="black" stroke-width="1" />
<path d="M2.25903063002455,-1.1307792070807703 L0.026380498509120942,-0.008226032444566737 L0.0,-0.0" fill="brown" fill-opacity="0.6" stroke="black" stroke-width="1" />
<path d="M2.25903063002455,1.1307792070807703 L0.026380498509120942,0.008226032444566737 L0.0,-0.0" fill="yellow" fill-opacity="0.6" stroke="black" stroke-width="1" />
<path d="M0.0,-0.0 L-14.576312474360087,-2.3937702100991234 L-17.0,-0.0" fill="blue" fill-opacity="0.6" stroke="black" stroke-width="1" />
<path d="M0.0,-0.0 L-14.576312474360087,2.3937702100991234 L-17.0,-0.0" fill="black" fill-opacity="0.6" stroke="black" stroke-width="1" />
<path d="M-48.0,50.0 L-40.0,60.0 L-27.0,73.0" fill="orange" fill-opacity="0.6" stroke="black" stroke-width="1" />
<path d="M-48.0,-50.0 L-40.0,-60.0 L-27.0,-73.0" fill="black" fill-opacity="0.6" stroke="black" stroke-width="1" />
<path d="M-40.0,60.0 L-27.0,73.0 L-24.0,76.0" fill="brown" fill-opacity="0.6" stroke="black" stroke-width="1" />
<path d="M-40.0,-60.0 L-27.0,-73.0 L-24.0,-76.0" fill="orange" fill-opacity="0.6" stroke="black" stroke-width="1" />
<path d="M-27.0,73.0 L-24.0,76.0 L-23.0,77.0" fill="orange" fill-opacity="0.6" stroke="black" stroke-width="1" />
<path d="M-27.0,-73.0 L-24.0,-76.0 L-23.0,-77.0" fill="pink" fill-opacity="0.6" stroke="black" stroke-width="1" />
<path d="M-24.0,76.0 L-23.0,77.0 L-13.0,87.0" fill="orange" fill-opacity="0.6" stroke="black" stroke-width="1" />
<path d="M-24.0,-76.0 L-23.0,-77.0 L-13.0,-87.0" fill="brown" fill-opacity="0.6" stroke="black" stroke-width="1" />
<path d="M-23.0,77.0 L-13.0,87.0 L-1.5843928972360075,92.20755448048467" fill="yellow" fill-opacity="0.6" stroke="black" stroke-width="1" />
<path d="M-23.0,-77.0 L-13.0,-87.0 L-1.5843928972360075,-92.20755448048467" fill="green" fill-opacity="0.6" stroke="black" stroke-width="1" />
<path d="M-13.0,-13.0 L-7.792445519515322,-1.5843928972360075 L-3.0825858449976815,-1.345384414212436" fill="brown" fill-opacity="0.6" stroke="black" stroke-width="1" />
<path d="M-13.0,13.0 L-7.792445519515322,1.5843928972360075 L-3.0825858449976815,1.345384414212436" fill="pink" fill-opacity="0.6" stroke="black" stroke-width="1" />
<path d="M-7.792445519515322,-1.5843928972360075 L-3.0825858449976815,-1.345384414212436 L-2.25903063002455,-1.1307792070807703" fill="red" fill-opacity="0.6" stroke="black" stroke-width="1" />
<path d="M-7.792445519515322,1.5843928972360075 L-3.0825858449976815,1.345384414212436 L-2.25903063002455,1.1307792070807703" fill="pink" fill-opacity="0.6" stroke="black" stroke-width="1" />
<path d="M-3.0825858449976815,-1.345384414212436 L-2.25903063002455,-1.1307792070807703 L-0.026380498509120942,-0.008226032444566737" fill="brown" fill-opacity="0.6" stroke="black" stroke-width="1" />
<path d="M-3.0825858449976815,1.345384414212436 L-2.25903063002455,1.1307792070807703 L-0.026380498509120942,0.008226032444566737" fill="black" fill-opacity="0.6" stroke="black" stroke-width="1" />
<path d="M-2.25903063002455,-1.1307792070807703 L-0.026380498509120942,-0.008226032444566737 L0.0,-0.0" fill="pink" fill-opacity="0.6" stroke="black" stroke-width="1" />
<path d="M-2.25903063002455,1.1307792070807703 L-0.026380498509120942,0.008226032444566737 L0.0,-0.0" fill="brown" fill-opacity="0.6" stroke="black" stroke-width="1" />
<path d="M100.0,-0.0 L85.4236875256399,2.3937702100991234 L83.0,-0.0" fill="orange" fill-opacity="0.6" stroke="black" stroke-width="1" />
<path d="M100.0,-0.0 L85.4236875256399,-2.3937702100991234 L83.0,-0.0" fill="black" fill-opacity="0.6" stroke="black" stroke-width="1" />
<path d="M50.0,48.0 L60.0,40.0 L73.0,27.0" fill="orange" fill-opacity="0.6" stroke="black" stroke-width="1" />
<path d="M50.0,-48.0 L60.0,-40.0 L73.0,-27.0" fill="pink" fill-opacity="0.6" stroke="black" stroke-width="1" />
<path d="M60.0,40.0 L73.0,27.0 L76.0,24.0" fill="orange" fill-opacity="0.6" stroke="black" stroke-width="1" />
<path d="M60.0,-40.0 L73.0,-27.0 L76.0,-24.0" fill="orange" fill-opacity="0.6" stroke="black" stroke-width="1" />
<path d="M73.0,27.0 L76.0,24.0 L77.0,23.0" fill="black" fill-opacity="0.6" stroke="black" stroke-width="1" />
<path d="M73.0,-27.0 L76.0,-24.0 L77.0,-23.0" fill="purple" fill-opacity="0.6" stroke="black" stroke-width="1" />
<path d="M76.0,24.0 L77.0,23.0 L87.0,13.0" fill="blue" fill-opacity="0.6" stroke="black" stroke-width="1" />
<path d="M76.0,-24.0 L77.0,-23.0 L87.0,-13.0" fill="blue" fill-opacity="0.6" stroke="black" stroke-width="1" />
<path d="M77.0,23.0 L87.0,13.0 L92.20755448048467,1.5843928972360075" fill="blue" fill-opacity="0.6" stroke="black" stroke-width="1" />
<path d="M77.0,-23.0 L87.0,-13.0 L92.20755448048467,-1.5843928972360075" fill="yellow" fill-opacity="0.6" stroke="black" stroke-width="1" />
<path d="M87.0,13.0 L92.20755448048467,1.5843928972360075 L96.91741415500232,1.345384414212436" fill="blue" fill-opacity="0.6" stroke="black" stroke-width="1" />
<path d="M87.0,-13.0 L92.20755448048467,-1.5843928972360075 L96.91741415500232,-1.345384414212436" fill="orange" fill-opacity="0.6" stroke="black" stroke-width="1" />
<path d="M92.20755448048467,1.5843928972360075 L96.91741415500232,1.345384414212436 L97.74096936997546,1.1307792070807703" fill="pink" fill-opacity="0.6" stroke="black" stroke-width="1" />
<path d="M92.20755448048467,-1.5843928972360075 L96.91741415500232,-1.345384414212436 L97.74096936997546,-1.1307792070807703" fill="black" fill-opacity="0.6" stroke="black" stroke-width="1" />
<path d="M96.91741415500232,1.345384414212436 L97.74096936997546,1.1307792070807703 L99.97361950149087,0.008226032444566737" fill="purple" fill-opacity="0.6" stroke="black" stroke-width="1" />
<path d="M96.91741415500232,-1.345384414212436 L97.74096936997546,-1.1307792070807703 L99.97361950149087,-0.008226032444566737" fill="purple" fill-opacity="0.6" stroke="black" stroke-width="1" />
<path d="M97.74096936997546,1.1307792070807703 L99.97361950149087,0.008226032444566737 L100.0,-0.0" fill="green" fill-opacity="0.6" stroke="black" stroke-width="1" />
<path d="M97.74096936997546,-1.1307792070807703 L99.97361950149087,-0.008226032444566737 L100.0,-0.0" fill="yellow" fill-opacity="0.6" stroke="black" stroke-width="1" />
<path d="M0.0,-0.0 L2.3937702100991234,-14.576312474360087 L0.0,-17.0" fill="red" fill-opacity="0.6" stroke="black" stroke-width="1" />
<path d="M0.0,-0.0 L2.3937702100991234,14.576312474360087 L0.0,17.0" fill="blue" fill-opacity="0.6" stroke="black" stroke-width="1" />
<path d="M0.0,100.0 L2.3937702100991234,85.4236875256399 L0.0,83.0" fill="orange" fill-opacity="0.6" stroke="black" stroke-width="1" />
<path d="M0.0,-100.0 L2.3937702100991234,-85.4236875256399 L0.0,-83.0" fill="yellow" fill-opacity="0.6" stroke="black" stroke-width="1" />
<path d="M13.0,-13.0 L1.5843928972360075,-7.792445519515322 L1.345384414212436,-3.0825858449976815" fill="brown" fill-opacity="0.6" stroke="black" stroke-width="1" />
<path d="M13.0,13.0 L1.5843928972360075,7.792445519515322 L1.345384414212436,3.0825858449976815" fill="purple" fill-opacity="0.6" stroke="black" stroke-width="1" />
<path d="M13.0,87.0 L1.5843928972360075,92.20755448048467 L1.345384414212436,96.91741415500232" fill="brown" fill-opacity="0.6" stroke="black" stroke-width="1" />
<path d="M13.0,-87.0 L1.5843928972360075,-92.20755448048467 L1.345384414212436,-96.91741415500232" fill="yellow" fill-opacity="0.6" stroke="black" stroke-width="1" />
<path d="M1.5843928972360075,-7.792445519515322 L1.345384414212436,-3.0825858449976815 L1.1307792070807703,-2.25903063002455" fill="purple" fill-opacity="0.6" stroke="black" stroke-width="1" />
<path d="M1.5843928972360075,7.792445519515322 L1.345384414212436,3.0825858449976815 L1.1307792070807703,2.25903063002455" fill="green" fill-opacity="0.6" stroke="black" stroke-width="1" />
<path d="M1.5843928972360075,92.20755448048467 L1.345384414212436,96.91741415500232 L1.1307792070807703,97.74096936997546" fill="red" fill-opacity="0.6" stroke="black" stroke-width="1" />
<path d="M1.5843928972360075,-92.20755448048467 L1.345384414212436,-96.91741415500232 L1.1307792070807703,-97.74096936997546" fill="green" fill-opacity="0.6" stroke="black" stroke-width="1" />
<path d="M1.345384414212436,-3.0825858449976815 L1.1307792070807703,-2.25903063002455 L0.008226032444566737,-0.026380498509120942" fill="brown" fill-opacity="0.6" stroke="black" stroke-width="1" />
<path d="M1.345384414212436,3.0825858449976815 L1.1307792070807703,2.25903063002455 L0.008226032444566737,0.026380498509120942" fill="yellow" fill-opacity="0.6" stroke="black" stroke-width="1" />
<path d="M1.345384414212436,96.91741415500232 L1.1307792070807703,97.74096936997546 L0.008226032444566737,99.97361950149087" fill="blue" fill-opacity="0.6" stroke="black" stroke-width="1" />
<path d="M1.345384414212436,-96.91741415500232 L1.1307792070807703,-97.74096936997546 L0.008226032444566737,-99.97361950149087" fill="brown" fill-opacity="0.6" stroke="black" stroke-width="1" />
<path d="M1.1307792070807703,-2.25903063002455 L0.008226032444566737,-0.026380498509120942 L0.0,-0.0" fill="blue" fill-opacity="0.6" stroke="black" stroke-width="1" />
<path d="M1.1307792070807703,2.25903063002455 L0.008226032444566737,0.026380498509120942 L0.0,-0.0" fill="pink" fill-opacity="0.6" stroke="black" stroke-width="1" />
<path d="M1.1307792070807703,97.74096936997546 L0.008226032444566737,99.97361950149087 L0.0,100.0" fill="brown" fill-opacity="0.6" stroke="black" stroke-width="1" />
<path d="M1.1307792070807703,-97.74096936997546 L0.008226032444566737,-99.97361950149087 L0.0,-100.0" fill="orange" fill-opacity="0.6" stroke="black" stroke-width="1" />
<path d="M0.0,100.0 L-2.3937702100991234,85.4236875256399 L0.0,83.0" fill="pink" fill-opacity="0.6" stroke="black" stroke-width="1" />
<path d="M0.0,-0.0 L-2.3937702100991234,-14.576312474360087 L0.0,-17.0" fill="black" fill-opacity="0.6" stroke="black" stroke-width="1" />
<path d="M0.0,-0.0 L-2.3937702100991234,14.576312474360094 L0.0,17.0" fill="pink" fill-opacity="0.6" stroke="black" stroke-width="1" />
<path d="M0.0,-100.0 L-2.3937702100991234,-85.4236875256399 L0.0,-83.0" fill="pink" fill-opacity="0.6" stroke="black" stroke-width="1" />
<path d="M-13.0,87.0 L-1.5843928972360075,92.20755448048467 L-1.345384414212436,96.91741415500232" fill="black" fill-opacity="0.6" stroke="black" stroke-width="1" />
<path d="M-13.0,-13.0 L-1.5843928972360075,-7.792445519515322 L-1.345384414212436,-3.0825858449976815" fill="purple" fill-opacity="0.6" stroke="black" stroke-width="1" />
<path d="M-13.0,13.0 L-1.5843928972360075,7.792445519515326 L-1.345384414212436,3.0825858449976806" fill="red" fill-opacity="0.6" stroke="black" stroke-width="1" />
<path d="M-13.0,-87.0 L-1.5843928972360075,-92.20755448048467 L-1.345384414212436,-96.91741415500232" fill="yellow" fill-opacity="0.6" stroke="black" stroke-width="1" />
<path d="M-1.5843928972360075,92.20755448048467 L-1.345384414212436,96.91741415500232 L-1.1307792070807703,97.74096936997545" fill="purple" fill-opacity="0.6" stroke="black" stroke-width="1" />
<path d="M-1.5843928972360075,-7.792445519515322 L-1.345384414212436,-3.0825858449976815 L-1.1307792070807703,-2.25903063002455" fill="purple" fill-opacity="0.6" stroke="black" stroke-width="1" />
<path d="M-1.5843928972360075,7.792445519515326 L-1.345384414212436,3.0825858449976806 L-1.1307792070807703,2.2590306300245544" fill="red" fill-opacity="0.6" stroke="black" stroke-width="1" />
<path d="M-1.5843928972360075,-92.20755448048467 L-1.345384414212436,-96.91741415500232 L-1.1307792070807703,-97.74096936997546" fill="black" fill-opacity="0.6" stroke="black" stroke-width="1" />
<path d="M-1.345384414212436,96.91741415500232 L-1.1307792070807703,97.74096936997545 L-0.008226032444566737,99.97361950149087" fill="pink" fill-opacity="0.6" stroke="black" stroke-width="1" />
<path d="M-1.345384414212436,-3.0825858449976815 L-1.1307792070807703,-2.25903063002455 L-0.008226032444566737,-0.026380498509120942" fill="blue" fill-opacity="0.6" stroke="black" stroke-width="1" />
<path d="M-1.345384414212436,3.0825858449976806 L-1.1307792070807703,2.2590306300245544 L-0.008226032444566737,0.026380498509126937" fill="brown" fill-opacity="0.6" stroke="black" stroke-width="1" />
<path d="M-1.345384414212436,-96.91741415500232 L-1.1307792070807703,-97.74096936997546 L-0.008226032444566737,-99.97361950149087" fill="purple" fill-opacity="0.6" stroke="black" stroke-width="1" />
<path d="M-1.1307792070807703,97.74096936997545 L-0.008226032444566737,99.97361950149087 L0.0,100.0" fill="orange" fill-opacity="0.6" stroke="black" stroke-width="1" />
<path d="M-1.1307792070807703,-2.25903063002455 L-0.008226032444566737,-0.026380498509120942 L0.0,-0.0" fill="black" fill-opacity="0.6" stroke="black" stroke-width="1" />
<path d="M-1.1307792070807703,2.2590306300245544 L-0.008226032444566737,0.026380498509126937 L0.0,-0.0" fill="pink" fill-opacity="0.6" stroke="black" stroke-width="1" />
<path d="M-1.1307792070807703,-97.74096936997546 L-0.008226032444566737,-99.97361950149087 L0.0,-100.0" fill="pink" fill-opacity="0.6" stroke="black" stroke-width="1" />
<path d="M-100.0,-0.0 L-85.4236875256399,-2.3937702100991234 L-83.0,-0.0" fill="green" fill-opacity="0.6" stroke="black" stroke-width="1" />
<path d="M-100.0,-0.0 L-85.4236875256399,2.3937702100991234 L-83.0,-0.0" fill="brown" fill-opacity="0.6" stroke="black" stroke-width="1" />
<path d="M-50.0,-48.0 L-60.0,-40.0 L-73.0,-27.0" fill="brown" fill-opacity="0.6" stroke="black" stroke-width="1" />
<path d="M-50.0,48.0 L-60.0,40.0 L-73.0,27.0" fill="orange" fill-opacity="0.6" stroke="black" stroke-width="1" />
<path d="M-60.0,-40.0 L-73.0,-27.0 L-76.0,-24.0" fill="pink" fill-opacity="0.6" stroke="black" stroke-width="1" />
<path d="M-60.0,40.0 L-73.0,27.0 L-76.0,24.0" fill="black" fill-opacity="0.6" stroke="black" stroke-width="1" />
<path d="M-73.0,-27.0 L-76.0,-24.0 L-77.0,-23.0" fill="purple" fill-opacity="0.6" stroke="black" stroke-width="1" />
<path d="M-73.0,27.0 L-76.0,24.0 L-77.0,23.0" fill="blue" fill-opacity="0.6" stroke="black" stroke-width="1" />
<path d="M-76.0,-24.0 L-77.0,-23.0 L-87.0,-13.0" fill="red" fill-opacity="0.6" stroke="black" stroke-width="1" />
<path d="M-76.0,24.0 L-77.0,23.0 L-87.0,13.0" fill="black" fill-opacity="0.6" stroke="black" stroke-width="1" />
<path d="M-77.0,-23.0 L-87.0,-13.0 L-92.20755448048467,-1.5843928972360075" fill="pink" fill-opacity="0.6" stroke="black" stroke-width="1" />
<path d="M-77.0,23.0 L-87.0,13.0 L-92.20755448048467,1.5843928972360075" fill="red" fill-opacity="0.6" stroke="black" stroke-width="1" />
<path d="M-87.0,-13.0 L-92.20755448048467,-1.5843928972360075 L-96.91741415500232,-1.345384414212436" fill="brown" fill-opacity="0.6" stroke="black" stroke-width="1" />
<path d="M-87.0,13.0 L-92.20755448048467,1.5843928972360075 L-96.91741415500232,1.345384414212436" fill="orange" fill-opacity="0.6" stroke="black" stroke-width="1" />
<path d="M-92.20755448048467,-1.5843928972360075 L-96.91741415500232,-1.345384414212436 L-97.74096936997546,-1.1307792070807703" fill="blue" fill-opacity="0.6" stroke="black" stroke-width="1" />
<path d="M-92.20755448048467,1.5843928972360075 L-96.91741415500232,1.345384414212436 L-97.74096936997546,1.1307792070807703" fill="blue" fill-opacity="0.6" stroke="black" stroke-width="1" />
<path d="M-96.91741415500232,-1.345384414212436 L-97.74096936997546,-1.1307792070807703 L-99.97361950149087,-0.008226032444566737" fill="purple" fill-opacity="0.6" stroke="black" stroke-width="1" />
<path d="M-96.91741415500232,1.345384414212436 L-97.74096936997546,1.1307792070807703 L-99.97361950149087,0.008226032444566737" fill="blue" fill-opacity="0.6" stroke="black" stroke-width="1" />
<path d="M-97.74096936997546,-1.1307792070807703 L-99.97361950149087,-0.008226032444566737 L-100.0,-0.0" fill="purple" fill-opacity="0.6" stroke="black" stroke-width="1" />
<path d="M-97.74096936997546,1.1307792070807703 L-99.97361950149087,0.008226032444566737 L-100.0,-0.0" fill="orange" fill-opacity="0.6" stroke="black" stroke-width="1" />
</svg>