<?xml version="1.0" encoding="UTF-8"?>
<svg xmlns="http://www.w3.org/2000/svg" xmlns:xlink="http://www.w3.org/1999/xlink"
     width="250" height="250" viewBox="-125.0 -125.0 250 250">
<defs>
</defs>
<path d="M0.0,-0.0 L14.856842668256785,-4.365523063239644 L17.956267685972097,-4.691540293962112" fill="green" fill-opacity="0.6" stroke="black" stroke-width="1" />
<path d="M0.0,-0.0 L14.856842668256785,4.365523063239644 L17.956267685972097,4.691540293962112" fill="red" fill-opacity="0.6" stroke="black" stroke-width="1" />
<path d="M14.856842668256785,-4.365523063239644 L17.956267685972097,-4.691540293962112 L20.484187506265297,-9.59694017117407" fill="black" fill-opacity="0.6" stroke="black" stroke-width="1" />
<path d="M14.856842668256785,4.365523063239644 L17.956267685972097,4.691540293962112 L20.484187506265297,9.59694017117407" fill="blue" fill-opacity="0.6" stroke="black" stroke-width="1" />
<path d="M17.956267685972097,-4.691540293962112 L20.484187506265297,-9.59694017117407 L27.0,-0.0" fill="black" fill-opacity="0.6" stroke="black" stroke-width="1" />
<path d="M17.956267685972097,4.691540293962112 L20.484187506265297,9.59694017117407 L27.0,-0.0" fill="yellow" fill-opacity="0.6" stroke="black" stroke-width="1" />
<path d="M29.0,-0.0 L35.26617904546204,-9.724407559158465 L42.0,-0.0" fill="green" fill-opacity="0.6" stroke="black" stroke-width="1" />
<path d="M29.0,-0.0 L35.26617904546204,9.724407559158465 L42.0,-0.0" fill="orange" fill-opacity="0.6" stroke="black" stroke-width="1" />
<path d="M50.0,-16.0 L41.00891648543062,-20.875764328775414 L44.461612527428315,-24.480215919189042" fill="red" fill-opacity="0.6" stroke="black" stroke-width="1" />
<path d="M50.0,16.0 L41.00891648543062,20.875764328775414 L44.461612527428315,24.480215919189042" fill="green" fill-opacity="0.6" stroke="black" stroke-width="1" />
<path d="M41.00891648543062,-20.875764328775414 L44.461612527428315,-24.480215919189042 L45.863816340603286,-34.68281591182684" fill="pink" fill-opacity="0.6" stroke="black" stroke-width="1" />
<path d="M41.00891648543062,20.875764328775414 L44.461612527428315,24.480215919189042 L45.863816340603286,34.68281591182684" fill="orange" fill-opacity="0.6" stroke="black" stroke-width="1" />
<path d="M44.461612527428315,-24.480215919189042 L45.863816340603286,-34.68281591182684 L50.0,-35.0" fill="blue" fill-opacity="0.6" stroke="black" stroke-width="1" />
<path d="M44.461612527428315,24.480215919189042 L45.863816340603286,34.68281591182684 L50.0,35.0" fill="pink" fill-opacity="0.6" stroke="black" stroke-width="1" />
<path d="M50.0,-37.0 L48.15371983674795,-47.27526681254352 L41.0,-41.0" fill="yellow" fill-opacity="0.6" stroke="black" stroke-width="1" />
<path d="M50.0,37.0 L48.15371983674795,47.27526681254352 L41.0,41.0" fill="purple" fill-opacity="0.6" stroke="black" stroke-width="1" />
<path d="M47.27526681254352,51.84628016325205 L41.0,59.0 L34.0,66.0" fill="yellow" fill-opacity="0.6" stroke="black" stroke-width="1" />
<path d="M47.27526681254352,-51.84628016325205 L41.0,-59.0 L34.0,-66.0" fill="black" fill-opacity="0.6" stroke="black" stroke-width="1" />
<path d="M41.0,59.0 L34.0,66.0 L19.0,81.0" fill="purple" fill-opacity="0.6" stroke="black" stroke-width="1" />
<path d="M41.0,-59.0 L34.0,-66.0 L19.0,-81.0" fill="blue" fill-opacity="0.6" stroke="black" stroke-width="1" />
<path d="M34.0,66.0 L19.0,81.0 L17.0,83.0" fill="yellow" fill-opacity="0.6" stroke="black" stroke-width="1" />
<path d="M34.0,-66.0 L19.0,-81.0 L17.0,-83.0" fill="red" fill-opacity="0.6" stroke="black" stroke-width="1" />
<path d="M19.0,81.0 L17.0,83.0 L3.797118981556065,88.58193224354976" fill="orange" fill-opacity="0.6" stroke="black" stroke-width="1" />
<path d="M19.0,-81.0 L17.0,-83.0 L3.797118981556065,-88.58193224354976" fill="black" fill-opacity="0.6" stroke="black" stroke-width="1" />
<path d="M17.0,-17.0 L11.418067756450245,-3.797118981556065 L10.067157454548925,-2.2028676475850313" fill="brown" fill-opacity="0.6" stroke="black" stroke-width="1" />
<path d="M17.0,17.0 L11.418067756450245,3.797118981556065 L10.067157454548925,2.2028676475850313" fill="orange" fill-opacity="0.6" stroke="black" stroke-width="1" />
<path d="M11.418067756450245,-3.797118981556065 L10.067157454548925,-2.2028676475850313 L5.469315959999854,-0.8387157007271162" fill="black" fill-opacity="0.6" stroke="black" stroke-width="1" />
<path d="M11.418067756450245,3.797118981556065 L10.067157454548925,2.2028676475850313 L5.469315959999854,0.8387157007271162" fill="blue" fill-opacity="0.6" stroke="black" stroke-width="1" />
<path d="M10.067157454548925,-2.2028676475850313 L5.469315959999854,-0.8387157007271162 L4.951564137424974,-0.18884599652028572" fill="yellow" fill-opacity="0.6" stroke="black" stroke-width="1" />
<path d="M10.067157454548925,2.2028676475850313 L5.469315959999854,0.8387157007271162 L4.951564137424974,0.18884599652028572" fill="black" fill-opacity="0.6" stroke="black" stroke-width="1" />
<path d="M5.469315959999854,-0.8387157007271162 L4.951564137424974,-0.18884599652028572 L4.709097639238002,-0.04124301771605832" fill="black" fill-opacity="0.6" stroke="black" stroke-width="1" />
<path d="M5.469315959999854,0.8387157007271162 L4.951564137424974,0.18884599652028572 L4.709097639238002,0.04124301771605832" fill="pink" fill-opacity="0.6" stroke="black" stroke-width="1" />
<path d="M4.951564137424974,-0.18884599652028572 L4.709097639238002,-0.04124301771605832 L3.0,-3.0" fill="yellow" fill-opacity="0.6" stroke="black" stroke-width="1" />
<path d="M4.951564137424974,0.18884599652028572 L4.709097639238002,0.04124301771605832 L3.0,3.0" fill="green" fill-opacity="0.6" stroke="black" stroke-width="1" />
<path d="M0.04124301771605832,95.290902360762 L3.0,97.0 L0.024214890255219723,98.17515575620564" fill="red" fill-opacity="0.6" stroke="black" stroke-width="1" />
<path d="M0.04124301771605832,-95.290902360762 L3.0,-97.0 L0.024214890255219723,-98.17515575620564" fill="green" fill-opacity="0.6" stroke="black" stroke-width="1" />
<path d="M3.0,-3.0 L1.8248442437943546,-0.024214890255219723 L0.0,-0.0" fill="black" fill-opacity="0.6" stroke="black" stroke-width="1" />
<path d="M3.0,3.0 L1.8248442437943546,0.024214890255219723 L0.0,-0.0" fill="pink" fill-opacity="0.6" stroke="black" stroke-width="1" />
<path d="M0.0,-0.0 L-14.856842668256785,-4.365523063239644 L-17.956267685972097,-4.691540293962112" fill="black" fill-opacity="0.6" stroke="black" stroke-width="1" />
<path d="M0.0,-0.0 L-14.856842668256785,4.365523063239644 L-17.956267685972097,4.691540293962112" fill="blue" fill-opacity="0.6" stroke="black" stroke-width="1" />
<path d="M-14.856842668256785,-4.365523063239644 L-17.956267685972097,-4.691540293962112 L-20.484187506265297,-9.59694017117407" fill="red" fill-opacity="0.6" stroke="black" stroke-width="1" />
<path d="M-14.856842668256785,4.365523063239644 L-17.956267685972097,4.691540293962112 L-20.484187506265297,9.59694017117407" fill="green" fill-opacity="0.6" stroke="black" stroke-width="1" />
<path d="M-17.956267685972097,-4.691540293962112 L-20.484187506265297,-9.59694017117407 L-27.0,-0.0" fill="pink" fill-opacity="0.6" stroke="black" stroke-width="1" />
<path d="M-17.956267685972097,4.691540293962112 L-20.484187506265297,9.59694017117407 L-27.0,-0.0" fill="blue" fill-opacity="0.6" stroke="black" stroke-width="1" />
<path d="M-29.0,-0.0 L-35.26617904546204,-9.724407559158465 L-42.0,-0.0" fill="green" fill-opacity="0.6" stroke="black" stroke-width="1" />
<path d="M-29.0,-0.0 L-35.26617904546204,9.724407559158465 L-42.0,-0.0" fill="yellow" fill-opacity="0.6" stroke="black" stroke-width="1" />
<path d="M-50.0,-16.0 L-41.00891648543062,-20.875764328775414 L-44.461612527428315,-24.480215919189042" fill="blue" fill-opacity="0.6" stroke="black" stroke-width="1" />
<path d="M-50.0,16.0 L-41.00891648543062,20.875764328775414 L-44.461612527428315,24.480215919189042" fill="red" fill-opacity="0.6" stroke="black" stroke-width="1" />
<path d="M-41.00891648543062,-20.875764328775414 L-44.461612527428315,-24.480215919189042 L-45.863816340603286,-34.68281591182684" fill="orange" fill-opacity="0.6" stroke="black" stroke-width="1" />
<path d="M-41.00891648543062,20.875764328775414 L-44.461612527428315,24.480215919189042 L-45.863816340603286,34.68281591182684" fill="black" fill-opacity="0.6" stroke="black" stroke-width="1" />
<path d="M-44.461612527428315,-24.480215919189042 L-45.863816340603286,-34.68281591182684 L-50.0,-35.0" fill="purple" fill-opacity="0.6" stroke="black" stroke-width="1" />
<path d="M-44.461612527428315,24.480215919189042 L-45.863816340603286,34.68281591182684 L-50.0,35.0" fill="blue" fill-opacity="0.6" stroke="black" stroke-width="1" />
<path d="M-50.0,-37.0 L-48.15371983674795,-47.27526681254352 L-41.0,-41.0" fill="blue" fill-opacity="0.6" stroke="black" stroke-width="1" />
<path d="M-50.0,37.0 L-48.15371983674795,47.27526681254352 L-41.0,41.0" fill="pink" fill-opacity="0.6" stroke="black" stroke-width="1" />
<path d="M-47.27526681254352,51.84628016325205 L-41.0,59.0 L-34.0,66.0" fill="pink" fill-opacity="0.6" stroke="black" stroke-width="1" />
<path d="M-47.27526681254352,-51.84628016325205 L-41.0,-59.0 L-34.0,-66.0" fill="purple" fill-opacity="0.6" stroke="black" stroke-width="1" />
<path d="M-41.0,59.0 L-34.0,66.0 L-19.0,81.0" fill="yellow" fill-opacity="0.6" stroke="black" stroke-width="1" />
<path d="M-41.0,-59.0 L-34.0,-66.0 L-19.0,-81.0" fill="pink" fill-opacity="0.6" stroke="black" stroke-width="1" />
<path d="M-34.0,66.0 L-19.0,81.0 L-17.0,83.0" fill="red" fill-opacity="0.6" stroke="black" stroke-width="1" />
<path d="M-34.0,-66.0 L-19.0,-81.0 L-17.0,-83.0" fill="blue" fill-opacity="0.6" stroke="black" stroke-width="1" />
<path d="M-19.0,81.0 L-17.0,83.0 L-3.797118981556065,88.58193224354976" fill="purple" fill-opacity="0.6" stroke="black" stroke-width="1" />
<path d="M-19.0,-81.0 L-17.0,-83.0 L-3.797118981556065,-88.58193224354976" fill="blue" fill-opacity="0.6" stroke="black" stroke-width="1" />
<path d="M-17.0,-17.0 L-11.418067756450245,-3.797118981556065 L-10.067157454548925,-2.2028676475850313" fill="orange" fill-opacity="0.6" stroke="black" stroke-width="1" />
<path d="M-17.0,17.0 L-11.418067756450245,3.797118981556065 L-10.067157454548925,2.2028676475850313" fill="purple" fill-opacity="0.6" stroke="black" stroke-width="1" />
<path d="M-11.418067756450245,-3.797118981556065 L-10.067157454548925,-2.2028676475850313 L-5.469315959999854,-0.8387157007271162" fill="yellow" fill-opacity="0.6" stroke="black" stroke-width="1" />
<path d="M-11.418067756450245,3.797118981556065 L-10.067157454548925,2.2028676475850313 L-5.469315959999854,0.8387157007271162" fill="green" fill-opacity="0.6" stroke="black" stroke-width="1" />
<path d="M-10.067157454548925,-2.2028676475850313 L-5.469315959999854,-0.8387157007271162 L-4.951564137424974,-0.18884599652028572" fill="green" fill-opacity="0.6" stroke="black" stroke-width="1" />
<path d="M-10.067157454548925,2.2028676475850313 L-5.469315959999854,0.8387157007271162 L-4.951564137424974,0.18884599652028572" fill="pink" fill-opacity="0.6" stroke="black" stroke-width="1" />
<path d="M-5.469315959999854,-0.8387157007271162 L-4.951564137424974,-0.18884599652028572 L-4.709097639238002,-0.04124301771605832" fill="black" fill-opacity="0.6" stroke="black" stroke-width="1" />
<path d="M-5.469315959999854,0.8387157007271162 L-4.951564137424974,0.18884599652028572 L-4.709097639238002,0.04124301771605832" fill="orange" fill-opacity="0.6" stroke="black" stroke-width="1" />
<path d="M-4.951564137424974,-0.18884599652028572 L-4.709097639238002,-0.04124301771605832 L-3.0,-3.0" fill="green" fill-opacity="0.6" stroke="black" stroke-width="1" />
<path d="M-4.951564137424974,0.18884599652028572 L-4.709097639238002,0.04124301771605832 L-3.0,3.0" fill="pink" fill-opacity="0.6" stroke="black" stroke-width="1" />
<path d="M-0.04124301771605832,95.290902360762 L-3.0,97.0 L-0.024214890255219723,98.17515575620564" fill="green" fill-opacity="0.6" stroke="black" stroke-width="1" />
<path d="M-0.04124301771605832,-95.290902360762 L-3.0,-97.0 L-0.024214890255219723,-98.17515575620564" fill="red" fill-opacity="0.6" stroke="black" stroke-width="1" />
<path d="M-3.0,-3.0 L-1.8248442437943546,-0.024214890255219723 L0.0,-0.0" fill="purple" fill-opacity="0.6" stroke="black" stroke-width="1" />
<path d="M-3.0,3.0 L-1.8248442437943546,0.024214890255219723 L0.0,-0.0" fill="green" fill-opacity="0.6" stroke="black" stroke-width="1" />
<path d="M100.0,-0.0 L85.14315733174321,4.365523063239644 L82.0437323140279,4.691540293962112" fill="pink" fill-opacity="0.6" stroke="black" stroke-width="1" />
<path d="M100.0,-0.0 L85.14315733174321,-4.365523063239644 L82.0437323140279,-4.691540293962112" fill="green" fill-opacity="0.6" stroke="black" stroke-width="1" />
<path d="M85.14315733174321,4.365523063239644 L82.0437323140279,4.691540293962112 L79.5158124937347,9.59694017117407" fill="orange" fill-opacity="0.6" stroke="black" stroke-width="1" />
<path d="M85.14315733174321,-4.365523063239644 L82.0437323140279,-4.691540293962112 L79.5158124937347,-9.59694017117407" fill="orange" fill-opacity="0.6" stroke="black" stroke-width="1" />
<path d="M82.0437323140279,4.691540293962112 L79.5158124937347,9.59694017117407 L73.0,-0.0" fill="green" fill-opacity="0.6" stroke="black" stroke-width="1" />
<path d="M82.0437323140279,-4.691540293962112 L79.5158124937347,-9.59694017117407 L73.0,-0.0" fill="pink" fill-opacity="0.6" stroke="black" stroke-width="1" />
<path d="M71.0,-0.0 L64.73382095453796,9.724407559158465 L58.0,-0.0" fill="red" fill-opacity="0.6" stroke="black" stroke-width="1" />
<path d="M71.0,-0.0 L64.73382095453796,-9.724407559158465 L58.0,-0.0" fill="orange" fill-opacity="0.6" stroke="black" stroke-width="1" />
<path d="M50.0,16.0 L58.99108351456938,20.875764328775414 L55.538387472571685,24.480215919189042" fill="green" fill-opacity="0.6" stroke="black" stroke-width="1" />
<path d="M50.0,-16.0 L58.99108351456938,-20.875764328775414 L55.538387472571685,-24.480215919189042" fill="yellow" fill-opacity="0.6" stroke="black" stroke-width="1" />
<path d="M58.99108351456938,20.875764328775414 L55.538387472571685,24.480215919189042 L54.136183659396714,34.68281591182684" fill="blue" fill-opacity="0.6" stroke="black" stroke-width="1" />
<path d="M58.99108351456938,-20.875764328775414 L55.538387472571685,-24.480215919189042 L54.136183659396714,-34.68281591182684" fill="orange" fill-opacity="0.6" stroke="black" stroke-width="1" />
<path d="M55.538387472571685,24.480215919189042 L54.136183659396714,34.68281591182684 L50.0,35.0" fill="pink" fill-opacity="0.6" stroke="black" stroke-width="1" />
<path d="M55.538387472571685,-24.480215919189042 L54.136183659396714,-34.68281591182684 L50.0,-35.0" fill="brown" fill-opacity="0.6" stroke="black" stroke-width="1" />
<path d="M50.0,37.0 L51.84628016325205,47.27526681254352 L59.0,41.0" fill="pink" fill-opacity="0.6" stroke="black" stroke-width="1" />
<path d="M50.0,-37.0 L51.84628016325205,-47.27526681254352 L59.0,-41.0" fill="pink" fill-opacity="0.6" stroke="black" stroke-width="1" />
<path d="M51.84628016325205,47.27526681254352 L59.0,41.0 L66.0,34.0" fill="blue" fill-opacity="0.6" stroke="black" stroke-width="1" />
<path d="M51.84628016325205,-47.27526681254352 L59.0,-41.0 L66.0,-34.0" fill="orange" fill-opacity="0.6" stroke="black" stroke-width="1" />
<path d="M59.0,41.0 L66.0,34.0 L81.0,19.0" fill="yellow" fill-opacity="0.6" stroke="black" stroke-width="1" />
<path d="M59.0,-41.0 L66.0,-34.0 L81.0,-19.0" fill="red" fill-opacity="0.6" stroke="black" stroke-width="1" />
<path d="M66.0,34.0 L81.0,19.0 L83.0,17.0" fill="black" fill-opacity="0.6" stroke="black" stroke-width="1" />
<path d="M66.0,-34.0 L81.0,-19.0 L83.0,-17.0" fill="pink" fill-opacity="0.6" stroke="black" stroke-width="1" />
<path d="M81.0,19.0 L83.0,17.0 L88.58193224354976,3.797118981556065" fill="blue" fill-opacity="0.6" stroke="black" stroke-width="1" />
<path d="M81.0,-19.0 L83.0,-17.0 L88.58193224354976,-3.797118981556065" fill="pink" fill-opacity="0.6" stroke="black" stroke-width="1" />
<path d="M83.0,17.0 L88.58193224354976,3.797118981556065 L89.93284254545108,2.2028676475850313" fill="black" fill-opacity="0.6" stroke="black" stroke-width="1" />
<path d="M83.0,-17.0 L88.58193224354976,-3.797118981556065 L89.93284254545108,-2.2028676475850313" fill="black" fill-opacity="0.6" stroke="black" stroke-width="1" />
<path d="M88.58193224354976,3.797118981556065 L89.93284254545108,2.2028676475850313 L94.53068404000015,0.8387157007271162" fill="blue" fill-opacity="0.6" stroke="black" stroke-width="1" />
<path d="M88.58193224354976,-3.797118981556065 L89.93284254545108,-2.2028676475850313 L94.53068404000015,-0.8387157007271162" fill="orange" fill-opacity="0.6" stroke="black" stroke-width="1" />
<path d="M89.93284254545108,2.2028676475850313 L94.53068404000015,0.8387157007271162 L95.04843586257502,0.18884599652028572" fill="orange" fill-opacity="0.6" stroke="black" stroke-width="1" />
<path d="M89.93284254545108,-2.2028676475850313 L94.53068404000015,-0.8387157007271162 L95.04843586257502,-0.18884599652028572" fill="purple" fill-opacity="0.6" stroke="black" stroke-width="1" />
<path d="M94.53068404000015,0.8387157007271162 L95.04843586257502,0.18884599652028572 L95.290902360762,0.04124301771605832" fill="black" fill-opacity="0.6" stroke="black" stroke-width="1" />
<path d="M94.53068404000015,-0.8387157007271162 L95.04843586257502,-0.18884599652028572 L95.290902360762,-0.04124301771605832" fill="pink" fill-opacity="0.6" stroke="black" stroke-width="1" />
<path d="M95.04843586257502,0.18884599652028572 L95.290902360762,0.04124301771605832 L97.0,3.0" fill="yellow" fill-opacity="0.6" stroke="black" stroke-width="1" />
<path d="M95.04843586257502,-0.18884599652028572 L95.290902360762,-0.04124301771605832 L97.0,-3.0" fill="black" fill-opacity="0.6" stroke="black" stroke-width="1" />
<path d="M95.290902360762,0.04124301771605832 L97.0,3.0 L98.17515575620564,0.024214890255219723" fill="blue" fill-opacity="0.6" stroke="black" stroke-width="1" />
<path d="M95.290902360762,-0.04124301771605832 L97.0,-3.0 L98.17515575620564,-0.024214890255219723" fill="pink" fill-opacity="0.6" stroke="black" stroke-width="1" />
<path d="M97.0,3.0 L98.17515575620564,0.024214890255219723 L100.0,-0.0" fill="purple" fill-opacity="0.6" stroke="black" stroke-width="1" />
<path d="M97.0,-3.0 L98.17515575620564,-0.024214890255219723 L100.0,-0.0" fill="green" fill-opacity="0.6" stroke="black" stroke-width="1" />
<path d="M0.0,-0.0 L4.365523063239644,-14.856842668256785 L4.691540293962112,-17.956267685972097" fill="green" fill-opacity="0.6" stroke="black" stroke-width="1" />
<path d="M0.0,-0.0 L4.365523063239644,14.856842668256785 L4.691540293962112,17.956267685972097" fill="yellow" fill-opacity="0.6" stroke="black" stroke-width="1" />
<path d="M0.0,100.0 L4.365523063239644,85.14315733174321 L4.691540293962112,82.0437323140279" fill="pink" fill-opacity="0.6" stroke="black" stroke-width="1" />
<path d="M0.0,-100.0 L4.365523063239644,-85.14315733174321 L4.691540293962112,-82.0437323140279" fill="orange" fill-opacity="0.6" stroke="black" stroke-width="1" />
<path d="M4.365523063239644,-14.856842668256785 L4.691540293962112,-17.956267685972097 L9.59694017117407,-20.484187506265297" fill="blue" fill-opacity="0.6" stroke="black" stroke-width="1" />
<path d="M4.365523063239644,14.856842668256785 L4.691540293962112,17.956267685972097 L9.59694017117407,20.484187506265297" fill="purple" fill-opacity="0.6" stroke="black" stroke-width="1" />
<path d="M4.365523063239644,85.14315733174321 L4.691540293962112,82.0437323140279 L9.59694017117407,79.5158124937347" fill="green" fill-opacity="0.6" stroke="black" stroke-width="1" />
<path d="M4.365523063239644,-85.14315733174321 L4.691540293962112,-82.0437323140279 L9.59694017117407,-79.5158124937347" fill="pink" fill-opacity="0.6" stroke="black" stroke-width="1" />
<path d="M4.691540293962112,-17.956267685972097 L9.59694017117407,-20.484187506265297 L0.0,-27.0" fill="purple" fill-opacity="0.6" stroke="black" stroke-width="1" />
<path d="M4.691540293962112,17.956267685972097 L9.59694017117407,20.484187506265297 L0.0,27.0" fill="brown" fill-opacity="0.6" stroke="black" stroke-width="1" />
<path d="M4.691540293962112,82.0437323140279 L9.59694017117407,79.5158124937347 L0.0,73.0" fill="brown" fill-opacity="0.6" stroke="black" stroke-width="1" />
<path d="M4.691540293962112,-82.0437323140279 L9.59694017117407,-79.5158124937347 L0.0,-73.0" fill="brown" fill-opacity="0.6" stroke="black" stroke-width="1" />
<path d="M0.0,-29.0 L9.724407559158465,-35.26617904546204 L0.0,-42.0" fill="red" fill-opacity="0.6" stroke="black" stroke-width="1" />
<path d="M0.0,29.0 L9.724407559158465,35.26617904546204 L0.0,42.0" fill="yellow" fill-opacity="0.6" stroke="black" stroke-width="1" />
<path d="M0.0,71.0 L9.724407559158465,64.73382095453796 L0.0,58.0" fill="pink" fill-opacity="0.6" stroke="black" stroke-width="1" />
<path d="M0.0,-71.0 L9.724407559158465,-64.73382095453796 L0.0,-58.0" fill="red" fill-opacity="0.6" stroke="black" stroke-width="1" />
<path d="M16.0,-50.0 L20.875764328775414,-41.00891648543062 L24.480215919189042,-44.461612527428315" fill="blue" fill-opacity="0.6" stroke="black" stroke-width="1" />
<path d="M16.0,50.0 L20.875764328775414,41.00891648543062 L24.480215919189042,44.461612527428315" fill="yellow" fill-opacity="0.6" stroke="black" stroke-width="1" />
<path d="M16.0,50.0 L20.875764328775414,58.99108351456938 L24.480215919189042,55.538387472571685" fill="brown" fill-opacity="0.6" stroke="black" stroke-width="1" />
<path d="M16.0,-50.0 L20.875764328775414,-58.99108351456938 L24.480215919189042,-55.538387472571685" fill="yellow" fill-opacity="0.6" stroke="black" stroke-width="1" />
<path d="M20.875764328775414,-41.00891648543062 L24.480215919189042,-44.461612527428315 L34.68281591182684,-45.863816340603286" fill="black" fill-opacity="0.6" stroke="black" stroke-width="1" />
<path d="M20.875764328775414,41.00891648543062 L24.480215919189042,44.461612527428315 L34.68281591182684,45.863816340603286" fill="orange" fill-opacity="0.6" stroke="black" stroke-width="1" />
<path d="M20.875764328775414,58.99108351456938 L24.480215919189042,55.538387472571685 L34.68281591182684,54.136183659396714" fill="black" fill-opacity="0.6" stroke="black" stroke-width="1" />
<path d="M20.875764328775414,-58.99108351456938 L24.480215919189042,-55.538387472571685 L34.68281591182684,-54.136183659396714" fill="purple" fill-opacity="0.6" stroke="black" stroke-width="1" />
<path d="M24.480215919189042,-44.461612527428315 L34.68281591182684,-45.863816340603286 L35.0,-50.0" fill="purple" fill-opacity="0.6" stroke="black" stroke-width="1" />
<path d="M24.480215919189042,44.461612527428315 L34.68281591182684,45.863816340603286 L35.0,50.0" fill="black" fill-opacity="0.6" stroke="black" stroke-width="1" />
<path d="M24.480215919189042,55.538387472571685 L34.68281591182684,54.136183659396714 L35.0,50.0" fill="purple" fill-opacity="0.6" stroke="black" stroke-width="1" />
<path d="M24.480215919189042,-55.538387472571685 L34.68281591182684,-54.136183659396714 L35.0,-50.0" fill="purple" fill-opacity="0.6" stroke="black" stroke-width="1" />
<path d="M37.0,-50.0 L47.27526681254352,-48.15371983674795 L41.0,-41.0" fill="yellow" fill-opacity="0.6" stroke="black" stroke-width="1" />
<path d="M37.0,50.0 L47.27526681254352,48.15371983674795 L41.0,41.0" fill="black" fill-opacity="0.6" stroke="black" stroke-width="1" />
<path d="M37.0,50.0 L47.27526681254352,51.84628016325205 L41.0,59.0" fill="blue" fill-opacity="0.6" stroke="black" stroke-width="1" />
<path d="M37.0,-50.0 L47.27526681254352,-51.84628016325205 L41.0,-59.0" fill="pink" fill-opacity="0.6" stroke="black" stroke-width="1" />
<path d="M17.0,-17.0 L3.797118981556065,-11.418067756450245 L2.2028676475850313,-10.067157454548925" fill="orange" fill-opacity="0.6" stroke="black" stroke-width="1" />
<path d="M17.0,17.0 L3.797118981556065,11.418067756450245 L2.2028676475850313,10.067157454548925" fill="purple" fill-opacity="0.6" stroke="black" stroke-width="1" />
<path d="M17.0,83.0 L3.797118981556065,88.58193224354976 L2.2028676475850313,89.93284254545108" fill="orange" fill-opacity="0.6" stroke="black" stroke-width="1" />
<path d="M17.0,-83.0 L3.797118981556065,-88.58193224354976 L2.2028676475850313,-89.93284254545108" fill="purple" fill-opacity="0.6" stroke="black" stroke-width="1" />
<path d="M3.797118981556065,-11.418067756450245 L2.2028676475850313,-10.067157454548925 L0.8387157007271162,-5.469315959999854" fill="yellow" fill-opacity="0.6" stroke="black" stroke-width="1" />
<path d="M3.797118981556065,11.418067756450245 L2.2028676475850313,10.067157454548925 L0.8387157007271162,5.469315959999854" fill="blue" fill-opacity="0.6" stroke="black" stroke-width="1" />
<path d="M3.797118981556065,88.58193224354976 L2.2028676475850313,89.93284254545108 L0.8387157007271162,94.53068404000015" fill="green" fill-opacity="0.6" stroke="black" stroke-width="1" />
<path d="M3.797118981556065,-88.58193224354976 L2.2028676475850313,-89.93284254545108 L0.8387157007271162,-94.53068404000015" fill="black" fill-opacity="0.6" stroke="black" stroke-width="1" />
<path d="M2.2028676475850313,-10.067157454548925 L0.8387157007271162,-5.469315959999854 L0.18884599652028572,-4.951564137424974" fill="green" fill-opacity="0.6" stroke="black" stroke-width="1" />
<path d="M2.2028676475850313,10.067157454548925 L0.8387157007271162,5.469315959999854 L0.18884599652028572,4.951564137424974" fill="pink" fill-opacity="0.6" stroke="black" stroke-width="1" />
<path d="M2.2028676475850313,89.93284254545108 L0.8387157007271162,94.53068404000015 L0.18884599652028572,95.04843586257502" fill="red" fill-opacity="0.6" stroke="black" stroke-width="1" />
<path d="M2.2028676475850313,-89.93284254545108 L0.8387157007271162,-94.53068404000015 L0.18884599652028572,-95.04843586257502" fill="orange" fill-opacity="0.6" stroke="black" stroke-width="1" />
<path d="M0.8387157007271162,-5.469315959999854 L0.18884599652028572,-4.951564137424974 L0.04124301771605832,-4.709097639238002" fill="yellow" fill-opacity="0.6" stroke="black" stroke-width="1" />
<path d="M0.8387157007271162,5.469315959999854 L0.18884599652028572,4.951564137424974 L0.04124301771605832,4.709097639238002" fill="black" fill-opacity="0.6" stroke="black" stroke-width="1" />
<path d="M0.8387157007271162,94.53068404000015 L0.18884599652028572,95.04843586257502 L0.04124301771605832,95.290902360762" fill="pink" fill-opacity="0.6" stroke="black" stroke-width="1" />
<path d="M0.8387157007271162,-94.53068404000015 L0.18884599652028572,-95.04843586257502 L0.04124301771605832,-95.290902360762" fill="blue" fill-opacity="0.6" stroke="black" stroke-width="1" />
<path d="M0.18884599652028572,-4.951564137424974 L0.04124301771605832,-4.709097639238002 L3.0,-3.0" fill="green" fill-opacity="0.6" stroke="black" stroke-width="1" />
<path d="M0.18884599652028572,4.951564137424974 L0.04124301771605832,4.709097639238002 L3.0,3.0" fill="red" fill-opacity="0.6" stroke="black" stroke-width="1" />
<path d="M0.18884599652028572,95.04843586257502 L0.04124301771605832,95.290902360762 L3.0,97.0" fill="green" fill-opacity="0.6" stroke="black" stroke-width="1" />
<path d="M0.18884599652028572,-95.04843586257502 L0.04124301771605832,-95.290902360762 L3.0,-97.0" fill="pink" fill-opacity="0.6" stroke="black" stroke-width="1" />
<path d="M3.0,-3.0 L0.024214890255219723,-1.8248442437943546 L0.0,-0.0" fill="pink" fill-opacity="0.6" stroke="black" stroke-width="1" />
<path d="M3.0,3.0 L0.024214890255219723,1.8248442437943546 L0.0,-0.0" fill="green" fill-opacity="0.6" stroke="black" stroke-width="1" />
<path d="M3.0,97.0 L0.024214890255219723,98.17515575620564 L0.0,100.0" fill="pink" fill-opacity="0.6" stroke="black" stroke-width="1" />
<path d="M3.0,-97.0 L0.024214890255219723,-98.17515575620564 L0.0,-100.0" fill="green" fill-opacity="0.6" stroke="black" stroke-width="1" />
<path d="M0.0,100.0 L-4.365523063239644,85.14315733174321 L-4.691540293962112,82.0437323140279" fill="black" fill-opacity="0.6" stroke="black" stroke-width="1" />
<path d="M0.0,-0.0 L-4.365523063239644,-14.856842668256785 L-4.691540293962112,-17.956267685972097" fill="red" fill-opacity="0.6" stroke="black" stroke-width="1" />
<path d="M0.0,-0.0 L-4.365523063239644,14.856842668256789 L-4.691540293962112,17.956267685972094" fill="red" fill-opacity="0.6" stroke="black" stroke-width="1" />
<path d="M0.0,-100.0 L-4.365523063239644,-85.14315733174321 L-4.691540293962112,-82.0437323140279" fill="red" fill-opacity="0.6" stroke="black" stroke-width="1" />
<path d="M-4.365523063239644,85.14315733174321 L-4.691540293962112,82.0437323140279 L-9.59694017117407,79.5158124937347" fill="black" fill-opacity="0.6" stroke="black" stroke-width="1" />
<path d="M-4.365523063239644,-14.856842668256785 L-4.691540293962112,-17.956267685972097 L-9.59694017117407,-20.484187506265297" fill="orange" fill-opacity="0.6" stroke="black" stroke-width="1" />
<path d="M-4.365523063239644,14.856842668256789 L-4.691540293962112,17.956267685972094 L-9.59694017117407,20.4841875062653" fill="brown" fill-opacity="0.6" stroke="black" stroke-width="1" />
<path d="M-4.365523063239644,-85.14315733174321 L-4.691540293962112,-82.0437323140279 L-9.59694017117407,-79.5158124937347" fill="black" fill-opacity="0.6" stroke="black" stroke-width="1" />
<path d="M-4.691540293962112,82.0437323140279 L-9.59694017117407,79.5158124937347 L0.0,73.0" fill="blue" fill-opacity="0.6" stroke="black" stroke-width="1" />
<path d="M-4.691540293962112,-17.956267685972097 L-9.59694017117407,-20.484187506265297 L0.0,-27.0" fill="yellow" fill-opacity="0.6" stroke="black" stroke-width="1" />
<path d="M-4.691540293962112,17.956267685972094 L-9.59694017117407,20.4841875062653 L0.0,27.0" fill="green" fill-opacity="0.6" stroke="black" stroke-width="1" />
<path d="M-4.691540293962112,-82.0437323140279 L-9.59694017117407,-79.5158124937347 L0.0,-73.0" fill="pink" fill-opacity="0.6" stroke="black" stroke-width="1" />
<path d="M0.0,71.0 L-9.724407559158465,64.73382095453796 L0.0,58.0" fill="red" fill-opacity="0.6" stroke="black" stroke-width="1" />
<path d="M0.0,-29.0 L-9.724407559158465,-35.26617904546204 L0.0,-42.0" fill="black" fill-opacity="0.6" stroke="black" stroke-width="1" />
<path d="M0.0,29.0 L-9.724407559158465,35.26617904546204 L0.0,42.0" fill="pink" fill-opacity="0.6" stroke="black" stroke-width="1" />
<path d="M0.0,-71.0 L-9.724407559158465,-64.73382095453796 L0.0,-58.0" fill="green" fill-opacity="0.6" stroke="black" stroke-width="1" />
<path d="M-16.0,50.0 L-20.875764328775414,58.99108351456938 L-24.480215919189042,55.538387472571685" fill="pink" fill-opacity="0.6" stroke="black" stroke-width="1" />
<path d="M-16.0,-50.0 L-20.875764328775414,-41.00891648543062 L-24.480215919189042,-44.461612527428315" fill="purple" fill-opacity="0.6" stroke="black" stroke-width="1" />
<path d="M-16.0,50.0 L-20.875764328775414,41.00891648543062 L-24.480215919189042,44.461612527428315" fill="black" fill-opacity="0.6" stroke="black" stroke-width="1" />
<path d="M-16.0,-50.0 L-20.875764328775414,-58.99108351456938 L-24.480215919189042,-55.538387472571685" fill="orange" fill-opacity="0.6" stroke="black" stroke-width="1" />
<path d="M-20.875764328775414,58.99108351456938 L-24.480215919189042,55.538387472571685 L-34.68281591182684,54.136183659396714" fill="yellow" fill-opacity="0.6" stroke="black" stroke-width="1" />
<path d="M-20.875764328775414,-41.00891648543062 L-24.480215919189042,-44.461612527428315 L-34.68281591182684,-45.863816340603286" fill="orange" fill-opacity="0.6" stroke="black" stroke-width="1" />
<path d="M-20.875764328775414,41.00891648543062 L-24.480215919189042,44.461612527428315 L-34.68281591182684,45.863816340603286" fill="green" fill-opacity="0.6" stroke="black" stroke-width="1" />
<path d="M-20.875764328775414,-58.99108351456938 L-24.480215919189042,-55.538387472571685 L-34.68281591182684,-54.136183659396714" fill="blue" fill-opacity="0.6" stroke="black" stroke-width="1" />
<path d="M-24.480215919189042,55.538387472571685 L-34.68281591182684,54.136183659396714 L-35.0,50.0" fill="purple" fill-opacity="0.6" stroke="black" stroke-width="1" />
<path d="M-24.480215919189042,-44.461612527428315 L-34.68281591182684,-45.863816340603286 L-35.0,-50.0" fill="yellow" fill-opacity="0.6" stroke="black" stroke-width="1" />
<path d="M-24.480215919189042,44.461612527428315 L-34.68281591182684,45.863816340603286 L-35.0,50.0" fill="orange" fill-opacity="0.6" stroke="black" stroke-width="1" />
<path d="M-24.480215919189042,-55.538387472571685 L-34.68281591182684,-54.136183659396714 L-35.0,-50.0" fill="blue" fill-opacity="0.6" stroke="black" stroke-width="1" />
<path d="M-37.0,50.0 L-47.27526681254352,51.84628016325205 L-41.0,59.0" fill="orange" fill-opacity="0.6" stroke="black" stroke-width="1" />
<path d="M-37.0,-50.0 L-47.27526681254352,-48.15371983674795 L-41.0,-41.0" fill="blue" fill-opacity="0.6" stroke="black" stroke-width="1" />
<path d="M-37.0,50.0 L-47.27526681254352,48.15371983674795 L-41.0,41.0" fill="red" fill-opacity="0.6" stroke="black" stroke-width="1" />
<path d="M-37.0,-50.0 L-47.27526681254352,-51.84628016325205 L-41.0,-59.0" fill="red" fill-opacity="0.6" stroke="black" stroke-width="1" />
<path d="M-17.0,83.0 L-3.797118981556065,88.58193224354976 L-2.2028676475850313,89.93284254545108" fill="red" fill-opacity="0.6" stroke="black" stroke-width="1" />
<path d="M-17.0,-17.0 L-3.797118981556065,-11.418067756450245 L-2.2028676475850313,-10.067157454548925" fill="green" fill-opacity="0.6" stroke="black" stroke-width="1" />
<path d="M-17.0,17.0 L-3.797118981556065,11.418067756450242 L-2.2028676475850313,10.06715745454892" fill="black" fill-opacity="0.6" stroke="black" stroke-width="1" />
<path d="M-17.0,-83.0 L-3.797118981556065,-88.58193224354976 L-2.2028676475850313,-89.93284254545108" fill="black" fill-opacity="0.6" stroke="black" stroke-width="1" />
<path d="M-3.797118981556065,88.58193224354976 L-2.2028676475850313,89.93284254545108 L-0.8387157007271162,94.53068404000015" fill="blue" fill-opacity="0.6" stroke="black" stroke-width="1" />
<path d="M-3.797118981556065,-11.418067756450245 L-2.2028676475850313,-10.067157454548925 L-0.8387157007271162,-5.469315959999854" fill="purple" fill-opacity="0.6" stroke="black" stroke-width="1" />
<path d="M-3.797118981556065,11.418067756450242 L-2.2028676475850313,10.06715745454892 L-0.8387157007271162,5.469315959999847" fill="brown" fill-opacity="0.6" stroke="black" stroke-width="1" />
<path d="M-3.797118981556065,-88.58193224354976 L-2.2028676475850313,-89.93284254545108 L-0.8387157007271162,-94.53068404000015" fill="brown" fill-opacity="0.6" stroke="black" stroke-width="1" />
<path d="M-2.2028676475850313,89.93284254545108 L-0.8387157007271162,94.53068404000015 L-0.18884599652028572,95.04843586257502" fill="green" fill-opacity="0.6" stroke="black" stroke-width="1" />
<path d="M-2.2028676475850313,-10.067157454548925 L-0.8387157007271162,-5.469315959999854 L-0.18884599652028572,-4.951564137424974" fill="red" fill-opacity="0.6" stroke="black" stroke-width="1" />
<path d="M-2.2028676475850313,10.06715745454892 L-0.8387157007271162,5.469315959999847 L-0.18884599652028572,4.951564137424981" fill="pink" fill-opacity="0.6" stroke="black" stroke-width="1" />
<path d="M-2.2028676475850313,-89.93284254545108 L-0.8387157007271162,-94.53068404000015 L-0.18884599652028572,-95.04843586257502" fill="black" fill-opacity="0.6" stroke="black" stroke-width="1" />
<path d="M-0.8387157007271162,94.53068404000015 L-0.18884599652028572,95.04843586257502 L-0.04124301771605832,95.290902360762" fill="purple" fill-opacity="0.6" stroke="black" stroke-width="1" />
<path d="M-0.8387157007271162,-5.469315959999854 L-0.18884599652028572,-4.951564137424974 L-0.04124301771605832,-4.709097639238002" fill="black" fill-opacity="0.6" stroke="black" stroke-width="1" />
<path d="M-0.8387157007271162,5.469315959999847 L-0.18884599652028572,4.951564137424981 L-0.04124301771605832,4.709097639237996" fill="black" fill-opacity="0.6" stroke="black" stroke-width="1" />
<path d="M-0.8387157007271162,-94.53068404000015 L-0.18884599652028572,-95.04843586257502 L-0.04124301771605832,-95.290902360762" fill="pink" fill-opacity="0.6" stroke="black" stroke-width="1" />
<path d="M-0.18884599652028572,95.04843586257502 L-0.04124301771605832,95.290902360762 L-3.0,97.0" fill="red" fill-opacity="0.6" stroke="black" stroke-width="1" />
<path d="M-0.18884599652028572,-4.951564137424974 L-0.04124301771605832,-4.709097639238002 L-3.0,-3.0" fill="black" fill-opacity="0.6" stroke="black" stroke-width="1" />
<path d="M-0.18884599652028572,4.951564137424981 L-0.04124301771605832,4.709097639237996 L-3.0,3.0" fill="yellow" fill-opacity="0.6" stroke="black" stroke-width="1" />
<path d="M-0.18884599652028572,-95.04843586257502 L-0.04124301771605832,-95.290902360762 L-3.0,-97.0" fill="green" fill-opacity="0.6" stroke="black" stroke-width="1" />
<path d="M-3.0,97.0 L-0.024214890255219723,98.17515575620564 L0.0,100.0" fill="red" fill-opacity="0.6" stroke="black" stroke-width="1" />
<path d="M-3.0,-3.0 L-0.024214890255219723,-1.8248442437943546 L0.0,-0.0" fill="green" fill-opacity="0.6" stroke="black" stroke-width="1" />
<path d="M-3.0,3.0 L-0.024214890255219723,1.8248442437943595 L0.0,-0.0" fill="purple" fill-opacity="0.6" stroke="black" stroke-width="1" />
<path d="M-3.0,-97.0 L-0.024214890255219723,-98.17515575620564 L0.0,-100.0" fill="purple" fill-opacity="0.6" stroke="black" stroke-width="1" />
<path d="M-100.0,-0.0 L-85.14315733174321,-4.365523063239644 L-82.0437323140279,-4.691540293962112" fill="brown" fill-opacity="0.6" stroke="black" stroke-width="1" />
<path d="M-100.0,-0.0 L-85.14315733174321,4.365523063239644 L-82.0437323140279,4.691540293962112" fill="red" fill-opacity="0.6" stroke="black" stroke-width="1" />
<path d="M-85.14315733174321,-4.365523063239644 L-82.0437323140279,-4.691540293962112 L-79.5158124937347,-9.59694017117407" fill="blue" fill-opacity="0.6" stroke="black" stroke-width="1" />
<path d="M-85.14315733174321,4.365523063239644 L-82.0437323140279,4.691540293962112 L-79.5158124937347,9.59694017117407" fill="blue" fill-opacity="0.6" stroke="black" stroke-width="1" />
<path d="M-82.0437323140279,-4.691540293962112 L-79.5158124937347,-9.59694017117407 L-73.0,-0.0" fill="blue" fill-opacity="0.6" stroke="black" stroke-width="1" />
<path d="M-82.0437323140279,4.691540293962112 L-79.5158124937347,9.59694017117407 L-73.0,-0.0" fill="blue" fill-opacity="0.6" stroke="black" stroke-width="1" />
<path d="M-71.0,-0.0 L-64.73382095453796,-9.724407559158465 L-58.0,-0.0" fill="purple" fill-opacity="0.6" stroke="black" stroke-width="1" />
<path d="M-71.0,-0.0 L-64.73382095453796,9.724407559158465 L-58.0,-0.0" fill="brown" fill-opacity="0.6" stroke="black" stroke-width="1" />
<path d="M-50.0,-16.0 L-58.99108351456938,-20.875764328775414 L-55.538387472571685,-24.480215919189042" fill="blue" fill-opacity="0.6" stroke="black" stroke-width="1" />
<path d="M-50.0,16.0 L-58.99108351456938,20.875764328775414 L-55.538387472571685,24.480215919189042" fill="yellow" fill-opacity="0.6" stroke="black" stroke-width="1" />
<path d="M-58.99108351456938,-20.875764328775414 L-55.538387472571685,-24.480215919189042 L-54.136183659396714,-34.68281591182684" fill="blue" fill-opacity="0.6" stroke="black" stroke-width="1" />
<path d="M-58.99108351456938,20.875764328775414 L-55.538387472571685,24.480215919189042 L-54.136183659396714,34.68281591182684" fill="blue" fill-opacity="0.6" stroke="black" stroke-width="1" />
<path d="M-55.538387472571685,-24.480215919189042 L-54.136183659396714,-34.68281591182684 L-50.0,-35.0" fill="orange" fill-opacity="0.6" stroke="black" stroke-width="1" />
<path d="M-55.538387472571685,24.480215919189042 L-54.136183659396714,34.68281591182684 L-50.0,35.0" fill="green" fill-opacity="0.6" stroke="black" stroke-width="1" />
<path d="M-50.0,-37.0 L-51.84628016325205,-47.27526681254352 L-59.0,-41.0" fill="orange" fill-opacity="0.6" stroke="black" stroke-width="1" />
<path d="M-50.0,37.0 L-51.84628016325205,47.27526681254352 L-59.0,41.0" fill="purple" fill-opacity="0.6" stroke="black" stroke-width="1" />
<path d="M-51.84628016325205,-47.27526681254352 L-59.0,-41.0 L-66.0,-34.0" fill="brown" fill-opacity="0.6" stroke="black" stroke-width="1" />
<path d="M-51.84628016325205,47.27526681254352 L-59.0,41.0 L-66.0,34.0" fill="blue" fill-opacity="0.6" stroke="black" stroke-width="1" />
<path d="M-59.0,-41.0 L-66.0,-34.0 L-81.0,-19.0" fill="pink" fill-opacity="0.6" stroke="black" stroke-width="1" />
<path d="M-59.0,41.0 L-66.0,34.0 L-81.0,19.0" fill="yellow" fill-opacity="0.6" stroke="black" stroke-width="1" />
<path d="M-66.0,-34.0 L-81.0,-19.0 L-83.0,-17.0" fill="blue" fill-opacity="0.6" stroke="black" stroke-width="1" />
<path d="M-66.0,34.0 L-81.0,19.0 L-83.0,17.0" fill="red" fill-opacity="0.6" stroke="black" stroke-width="1" />
<path d="M-81.0,-19.0 L-83.0,-17.0 L-88.58193224354976,-3.797118981556065" fill="black" fill-opacity="0.6" stroke="black" stroke-width="1" />
<path d="M-81.0,19.0 L-83.0,17.0 L-88.58193224354976,3.797118981556065" fill="orange" fill-opacity="0.6" stroke="black" stroke-width="1" />
<path d="M-83.0,-17.0 L-88.58193224354976,-3.797118981556065 L-89.93284254545108,-2.2028676475850313" fill="blue" fill-opacity="0.6" stroke="black" stroke-width="1" />
<path d="M-83.0,17.0 L-88.58193224354976,3.797118981556065 L-89.93284254545108,2.2028676475850313" fill="blue" fill-opacity="0.6" stroke="black" stroke-width="1" />
<path d="M-88.58193224354976,-3.797118981556065 L-89.93284254545108,-2.2028676475850313 L-94.53068404000015,-0.8387157007271162" fill="green" fill-opacity="0.6" stroke="black" stroke-width="1" />
<path d="M-88.58193224354976,3.797118981556065 L-89.93284254545108,2.2028676475850313 L-94.53068404000015,0.8387157007271162" fill="yellow" fill-opacity="0.6" stroke="black" stroke-width="1" />
<path d="M-89.93284254545108,-2.2028676475850313 L-94.53068404000015,-0.8387157007271162 L-95.04843586257502,-0.18884599652028572" fill="black" fill-opacity="0.6" stroke="black" stroke-width="1" />
<path d="M-89.93284254545108,2.2028676475850313 L-94.53068404000015,0.8387157007271162 L-95.04843586257502,0.18884599652028572" fill="blue" fill-opacity="0.6" stroke="black" stroke-width="1" />
<path d="M-94.53068404000015,-0.8387157007271162 L-95.04843586257502,-0.18884599652028572 L-95.290902360762,-0.04124301771605832" fill="brown" fill-opacity="0.6" stroke="black" stroke-width="1" />
<path d="M-94.53068404000015,0.8387157007271162 L-95.04843586257502,0.18884599652028572 L-95.290902360762,0.04124301771605832" fill="black" fill-opacity="0.6" stroke="black" stroke-width="1" />
<path d="M-95.04843586257502,-0.18884599652028572 L-95.290902360762,-0.04124301771605832 L-97.0,-3.0" fill="green" fill-opacity="0.6" stroke="black" stroke-width="1" />
<path d="M-95.04843586257502,0.18884599652028572 L-95.290902360762,0.04124301771605832 L-97.0,3.0" fill="brown" fill-opacity="0.6" stroke="black" stroke-width="1" />
<path d="M-95.290902360762,-0.04124301771605832 L-97.0,-3.0 L-98.17515575620564,-0.024214890255219723" fill="black" fill-opacity="0.6" stroke="black" stroke-width="1" />
<path d="M-95.290902360762,0.04124301771605832 L-97.0,3.0 L-98.17515575620564,0.024214890255219723" fill="green" fill-opacity="0.6" stroke="black" stroke-width="1" />
<path d="M-97.0,-3.0 L-98.17515575620564,-0.024214890255219723 L-100.0,-0.0" fill="black" fill-opacity="0.6" stroke="black" stroke-width="1" />
<path d="M-97.0,3.0 L-98.17515575620564,0.024214890255219723 L-100.0,-0.0" fill="green" fill-opacity="0.6" stroke="black" stroke-width="1" />
</svg>