<?xml version="1.0" encoding="UTF-8"?>
<svg xmlns="http://www.w3.org/2000/svg" xmlns:xlink="http://www.w3.org/1999/xlink"
     width="250" height="250" viewBox="-125.0 -125.0 250 250">
<defs>
</defs>
<path d="M3.242033697735304,89.50572553792269 L10.0,90.0 L2.48549132805187,95.63428718331767" fill="orange" fill-opacity="0.6" stroke="black" stroke-width="1" />
<path d="M3.242033697735304,-89.50572553792269 L10.0,-90.0 L2.48549132805187,-95.63428718331767" fill="blue" fill-opacity="0.6" stroke="black" stroke-width="1" />
<path d="M10.0,-0.0 L12.2769049456394,-3.748210407898646 L13.039931905866197,-3.7716229881471888" fill="red" fill-opacity="0.6" stroke="black" stroke-width="1" />
<path d="M10.0,-0.0 L12.2769049456394,3.748210407898646 L13.039931905866197,3.7716229881471888" fill="yellow" fill-opacity="0.6" stroke="black" stroke-width="1" />
<path d="M12.2769049456394,-3.748210407898646 L13.039931905866197,-3.7716229881471888 L15.737563133529392,-5.046991220239475" fill="brown" fill-opacity="0.6" stroke="black" stroke-width="1" />
<path d="M12.2769049456394,3.748210407898646 L13.039931905866197,3.7716229881471888 L15.737563133529392,5.046991220239475" fill="orange" fill-opacity="0.6" stroke="black" stroke-width="1" />
<path d="M13.039931905866197,-3.7716229881471888 L15.737563133529392,-5.046991220239475 L20.977030630381947,-6.0673679603693405" fill="green" fill-opacity="0.6" stroke="black" stroke-width="1" />
<path d="M13.039931905866197,3.7716229881471888 L15.737563133529392,5.046991220239475 L20.977030630381947,6.0673679603693405" fill="purple" fill-opacity="0.6" stroke="black" stroke-width="1" />
<path d="M15.737563133529392,-5.046991220239475 L20.977030630381947,-6.0673679603693405 L29.272959868381932,-6.273789328969327" fill="blue" fill-opacity="0.6" stroke="black" stroke-width="1" />
<path d="M15.737563133529392,5.046991220239475 L20.977030630381947,6.0673679603693405 L29.272959868381932,6.273789328969327" fill="yellow" fill-opacity="0.6" stroke="black" stroke-width="1" />
<path d="M20.977030630381947,-6.0673679603693405 L29.272959868381932,-6.273789328969327 L35.0,-0.0" fill="black" fill-opacity="0.6" stroke="black" stroke-width="1" />
<path d="M20.977030630381947,6.0673679603693405 L29.272959868381932,6.273789328969327 L35.0,-0.0" fill="blue" fill-opacity="0.6" stroke="black" stroke-width="1" />
<path d="M35.0,-0.0 L42.83789428147639,-7.000757176623337 L50.0,-0.0" fill="purple" fill-opacity="0.6" stroke="black" stroke-width="1" />
<path d="M35.0,-0.0 L42.83789428147639,7.000757176623337 L50.0,-0.0" fill="yellow" fill-opacity="0.6" stroke="black" stroke-width="1" />
<path d="M50.0,-0.0 L45.27109927696985,-15.725334020398984 L50.0,-16.0" fill="black" fill-opacity="0.6" stroke="black" stroke-width="1" />
<path d="M50.0,-0.0 L45.27109927696985,15.725334020398984 L50.0,16.0" fill="black" fill-opacity="0.6" stroke="black" stroke-width="1" />
<path d="M50.0,-27.0 L46.95679969379137,-31.708899178722678 L50.0,-33.0" fill="pink" fill-opacity="0.6" stroke="black" stroke-width="1" />
<path d="M50.0,27.0 L46.95679969379137,31.708899178722678 L50.0,33.0" fill="green" fill-opacity="0.6" stroke="black" stroke-width="1" />
<path d="M39.0,50.0 L49.0,51.0 L20.0,80.0" fill="black" fill-opacity="0.6" stroke="black" stroke-width="1" />
<path d="M39.0,-50.0 L49.0,-51.0 L20.0,-80.0" fill="pink" fill-opacity="0.6" stroke="black" stroke-width="1" />
<path d="M49.0,51.0 L20.0,80.0 L3.242033697735304,89.50572553792269" fill="brown" fill-opacity="0.6" stroke="black" stroke-width="1" />
<path d="M49.0,-51.0 L20.0,-80.0 L3.242033697735304,-89.50572553792269" fill="red" fill-opacity="0.6" stroke="black" stroke-width="1" />
<path d="M20.0,-20.0 L10.494274462077318,-3.242033697735304 L10.0,-10.0" fill="green" fill-opacity="0.6" stroke="black" stroke-width="1" />
<path d="M20.0,20.0 L10.494274462077318,3.242033697735304 L10.0,10.0" fill="black" fill-opacity="0.6" stroke="black" stroke-width="1" />
<path d="M10.0,-10.0 L4.365712816682338,-2.48549132805187 L3.8715943397132304,-1.091898319556122" fill="pink" fill-opacity="0.6" stroke="black" stroke-width="1" />
<path d="M10.0,10.0 L4.365712816682338,2.48549132805187 L3.8715943397132304,1.091898319556122" fill="green" fill-opacity="0.6" stroke="black" stroke-width="1" />
<path d="M4.365712816682338,-2.48549132805187 L3.8715943397132304,-1.091898319556122 L1.0564392337544803,-0.2560865217568379" fill="orange" fill-opacity="0.6" stroke="black" stroke-width="1" />
<path d="M4.365712816682338,2.48549132805187 L3.8715943397132304,1.091898319556122 L1.0564392337544803,0.2560865217568379" fill="green" fill-opacity="0.6" stroke="black" stroke-width="1" />
<path d="M3.8715943397132304,-1.091898319556122 L1.0564392337544803,-0.2560865217568379 L1.0,-1.0" fill="blue" fill-opacity="0.6" stroke="black" stroke-width="1" />
<path d="M3.8715943397132304,1.091898319556122 L1.0564392337544803,0.2560865217568379 L1.0,1.0" fill="red" fill-opacity="0.6" stroke="black" stroke-width="1" />
<path d="M0.2560865217568379,98.94356076624553 L1.0,99.0 L0.0,100.0" fill="orange" fill-opacity="0.6" stroke="black" stroke-width="1" />
<path d="M0.2560865217568379,-98.94356076624553 L1.0,-99.0 L0.0,-100.0" fill="black" fill-opacity="0.6" stroke="black" stroke-width="1" />
<path d="M-3.242033697735304,89.50572553792269 L-10.0,90.0 L-2.48549132805187,95.63428718331767" fill="pink" fill-opacity="0.6" stroke="black" stroke-width="1" />
<path d="M-3.242033697735304,-89.50572553792269 L-10.0,-90.0 L-2.48549132805187,-95.63428718331767" fill="brown" fill-opacity="0.6" stroke="black" stroke-width="1" />
<path d="M-10.0,-0.0 L-12.2769049456394,-3.748210407898646 L-13.039931905866197,-3.7716229881471888" fill="blue" fill-opacity="0.6" stroke="black" stroke-width="1" />
<path d="M-10.0,-0.0 L-12.2769049456394,3.748210407898646 L-13.039931905866197,3.7716229881471888" fill="black" fill-opacity="0.6" stroke="black" stroke-width="1" />
<path d="M-12.2769049456394,-3.748210407898646 L-13.039931905866197,-3.7716229881471888 L-15.737563133529392,-5.046991220239475" fill="black" fill-opacity="0.6" stroke="black" stroke-width="1" />
<path d="M-12.2769049456394,3.748210407898646 L-13.039931905866197,3.7716229881471888 L-15.737563133529392,5.046991220239475" fill="yellow" fill-opacity="0.6" stroke="black" stroke-width="1" />
<path d="M-13.039931905866197,-3.7716229881471888 L-15.737563133529392,-5.046991220239475 L-20.977030630381947,-6.0673679603693405" fill="green" fill-opacity="0.6" stroke="black" stroke-width="1" />
<path d="M-13.039931905866197,3.7716229881471888 L-15.737563133529392,5.046991220239475 L-20.977030630381947,6.0673679603693405" fill="blue" fill-opacity="0.6" stroke="black" stroke-width="1" />
<path d="M-15.737563133529392,-5.046991220239475 L-20.977030630381947,-6.0673679603693405 L-29.272959868381932,-6.273789328969327" fill="red" fill-opacity="0.6" stroke="black" stroke-width="1" />
<path d="M-15.737563133529392,5.046991220239475 L-20.977030630381947,6.0673679603693405 L-29.272959868381932,6.273789328969327" fill="brown" fill-opacity="0.6" stroke="black" stroke-width="1" />
<path d="M-20.977030630381947,-6.0673679603693405 L-29.272959868381932,-6.273789328969327 L-35.0,-0.0" fill="pink" fill-opacity="0.6" stroke="black" stroke-width="1" />
<path d="M-20.977030630381947,6.0673679603693405 L-29.272959868381932,6.273789328969327 L-35.0,-0.0" fill="brown" fill-opacity="0.6" stroke="black" stroke-width="1" />
<path d="M-35.0,-0.0 L-42.83789428147639,-7.000757176623337 L-50.0,-0.0" fill="yellow" fill-opacity="0.6" stroke="black" stroke-width="1" />
<path d="M-35.0,-0.0 L-42.83789428147639,7.000757176623337 L-50.0,-0.0" fill="pink" fill-opacity="0.6" stroke="black" stroke-width="1" />
<path d="M-50.0,-0.0 L-45.27109927696985,-15.725334020398984 L-50.0,-16.0" fill="red" fill-opacity="0.6" stroke="black" stroke-width="1" />
<path d="M-50.0,-0.0 L-45.27109927696985,15.725334020398984 L-50.0,16.0" fill="red" fill-opacity="0.6" stroke="black" stroke-width="1" />
<path d="M-50.0,-27.0 L-46.95679969379137,-31.708899178722678 L-50.0,-33.0" fill="red" fill-opacity="0.6" stroke="black" stroke-width="1" />
<path d="M-50.0,27.0 L-46.95679969379137,31.708899178722678 L-50.0,33.0" fill="blue" fill-opacity="0.6" stroke="black" stroke-width="1" />
<path d="M-39.0,50.0 L-49.0,51.0 L-20.0,80.0" fill="yellow" fill-opacity="0.6" stroke="black" stroke-width="1" />
<path d="M-39.0,-50.0 L-49.0,-51.0 L-20.0,-80.0" fill="red" fill-opacity="0.6" stroke="black" stroke-width="1" />
<path d="M-49.0,51.0 L-20.0,80.0 L-3.242033697735304,89.50572553792269" fill="orange" fill-opacity="0.6" stroke="black" stroke-width="1" />
<path d="M-49.0,-51.0 L-20.0,-80.0 L-3.242033697735304,-89.50572553792269" fill="black" fill-opacity="0.6" stroke="black" stroke-width="1" />
<path d="M-20.0,-20.0 L-10.494274462077318,-3.242033697735304 L-10.0,-10.0" fill="yellow" fill-opacity="0.6" stroke="black" stroke-width="1" />
<path d="M-20.0,20.0 L-10.494274462077318,3.242033697735304 L-10.0,10.0" fill="black" fill-opacity="0.6" stroke="black" stroke-width="1" />
<path d="M-10.0,-10.0 L-4.365712816682338,-2.48549132805187 L-3.8715943397132304,-1.091898319556122" fill="green" fill-opacity="0.6" stroke="black" stroke-width="1" />
<path d="M-10.0,10.0 L-4.365712816682338,2.48549132805187 L-3.8715943397132304,1.091898319556122" fill="brown" fill-opacity="0.6" stroke="black" stroke-width="1" />
<path d="M-4.365712816682338,-2.48549132805187 L-3.8715943397132304,-1.091898319556122 L-1.0564392337544803,-0.2560865217568379" fill="orange" fill-opacity="0.6" stroke="black" stroke-width="1" />
<path d="M-4.365712816682338,2.48549132805187 L-3.8715943397132304,1.091898319556122 L-1.0564392337544803,0.2560865217568379" fill="orange" fill-opacity="0.6" stroke="black" stroke-width="1" />
<path d="M-3.8715943397132304,-1.091898319556122 L-1.0564392337544803,-0.2560865217568379 L-1.0,-1.0" fill="red" fill-opacity="0.6" stroke="black" stroke-width="1" />
<path d="M-3.8715943397132304,1.091898319556122 L-1.0564392337544803,0.2560865217568379 L-1.0,1.0" fill="brown" fill-opacity="0.6" stroke="black" stroke-width="1" />
<path d="M-0.2560865217568379,98.94356076624553 L-1.0,99.0 L0.0,100.0" fill="orange" fill-opacity="0.6" stroke="black" stroke-width="1" />
<path d="M-0.2560865217568379,-98.94356076624553 L-1.0,-99.0 L0.0,-100.0" fill="orange" fill-opacity="0.6" stroke="black" stroke-width="1" />
<path d="M89.50572553792269,3.242033697735304 L90.0,10.0 L95.63428718331767,2.48549132805187" fill="orange" fill-opacity="0.6" stroke="black" stroke-width="1" />
<path d="M89.50572553792269,-3.242033697735304 L90.0,-10.0 L95.63428718331767,-2.48549132805187" fill="orange" fill-opacity="0.6" stroke="black" stroke-width="1" />
<path d="M90.0,-0.0 L87.7230950543606,3.748210407898646 L86.9600680941338,3.7716229881471888" fill="red" fill-opacity="0.6" stroke="black" stroke-width="1" />
<path d="M90.0,-0.0 L87.7230950543606,-3.748210407898646 L86.9600680941338,-3.7716229881471888" fill="yellow" fill-opacity="0.6" stroke="black" stroke-width="1" />
<path d="M87.7230950543606,3.748210407898646 L86.9600680941338,3.7716229881471888 L84.26243686647061,5.046991220239475" fill="yellow" fill-opacity="0.6" stroke="black" stroke-width="1" />
<path d="M87.7230950543606,-3.748210407898646 L86.9600680941338,-3.7716229881471888 L84.26243686647061,-5.046991220239475" fill="purple" fill-opacity="0.6" stroke="black" stroke-width="1" />
<path d="M86.9600680941338,3.7716229881471888 L84.26243686647061,5.046991220239475 L79.02296936961805,6.0673679603693405" fill="black" fill-opacity="0.6" stroke="black" stroke-width="1" />
<path d="M86.9600680941338,-3.7716229881471888 L84.26243686647061,-5.046991220239475 L79.02296936961805,-6.0673679603693405" fill="orange" fill-opacity="0.6" stroke="black" stroke-width="1" />
<path d="M84.26243686647061,5.046991220239475 L79.02296936961805,6.0673679603693405 L70.72704013161807,6.273789328969327" fill="blue" fill-opacity="0.6" stroke="black" stroke-width="1" />
<path d="M84.26243686647061,-5.046991220239475 L79.02296936961805,-6.0673679603693405 L70.72704013161807,-6.273789328969327" fill="orange" fill-opacity="0.6" stroke="black" stroke-width="1" />
<path d="M79.02296936961805,6.0673679603693405 L70.72704013161807,6.273789328969327 L65.0,-0.0" fill="green" fill-opacity="0.6" stroke="black" stroke-width="1" />
<path d="M79.02296936961805,-6.0673679603693405 L70.72704013161807,-6.273789328969327 L65.0,-0.0" fill="orange" fill-opacity="0.6" stroke="black" stroke-width="1" />
<path d="M65.0,-0.0 L57.16210571852361,7.000757176623337 L50.0,-0.0" fill="yellow" fill-opacity="0.6" stroke="black" stroke-width="1" />
<path d="M65.0,-0.0 L57.16210571852361,-7.000757176623337 L50.0,-0.0" fill="black" fill-opacity="0.6" stroke="black" stroke-width="1" />
<path d="M50.0,-0.0 L54.72890072303015,15.725334020398984 L50.0,16.0" fill="yellow" fill-opacity="0.6" stroke="black" stroke-width="1" />
<path d="M50.0,-0.0 L54.72890072303015,-15.725334020398984 L50.0,-16.0" fill="blue" fill-opacity="0.6" stroke="black" stroke-width="1" />
<path d="M50.0,27.0 L53.04320030620863,31.708899178722678 L50.0,33.0" fill="black" fill-opacity="0.6" stroke="black" stroke-width="1" />
<path d="M50.0,-27.0 L53.04320030620863,-31.708899178722678 L50.0,-33.0" fill="black" fill-opacity="0.6" stroke="black" stroke-width="1" />
<path d="M50.0,39.0 L51.0,49.0 L80.0,20.0" fill="green" fill-opacity="0.6" stroke="black" stroke-width="1" />
<path d="M50.0,-39.0 L51.0,-49.0 L80.0,-20.0" fill="green" fill-opacity="0.6" stroke="black" stroke-width="1" />
<path d="M51.0,49.0 L80.0,20.0 L89.50572553792269,3.242033697735304" fill="pink" fill-opacity="0.6" stroke="black" stroke-width="1" />
<path d="M51.0,-49.0 L80.0,-20.0 L89.50572553792269,-3.242033697735304" fill="blue" fill-opacity="0.6" stroke="black" stroke-width="1" />
<path d="M80.0,20.0 L89.50572553792269,3.242033697735304 L90.0,10.0" fill="red" fill-opacity="0.6" stroke="black" stroke-width="1" />
<path d="M80.0,-20.0 L89.50572553792269,-3.242033697735304 L90.0,-10.0" fill="orange" fill-opacity="0.6" stroke="black" stroke-width="1" />
<path d="M90.0,10.0 L95.63428718331767,2.48549132805187 L96.12840566028677,1.091898319556122" fill="red" fill-opacity="0.6" stroke="black" stroke-width="1" />
<path d="M90.0,-10.0 L95.63428718331767,-2.48549132805187 L96.12840566028677,-1.091898319556122" fill="brown" fill-opacity="0.6" stroke="black" stroke-width="1" />
<path d="M95.63428718331767,2.48549132805187 L96.12840566028677,1.091898319556122 L98.94356076624553,0.2560865217568379" fill="pink" fill-opacity="0.6" stroke="black" stroke-width="1" />
<path d="M95.63428718331767,-2.48549132805187 L96.12840566028677,-1.091898319556122 L98.94356076624553,-0.2560865217568379" fill="black" fill-opacity="0.6" stroke="black" stroke-width="1" />
<path d="M96.12840566028677,1.091898319556122 L98.94356076624553,0.2560865217568379 L99.0,1.0" fill="black" fill-opacity="0.6" stroke="black" stroke-width="1" />
<path d="M96.12840566028677,-1.091898319556122 L98.94356076624553,-0.2560865217568379 L99.0,-1.0" fill="green" fill-opacity="0.6" stroke="black" stroke-width="1" />
<path d="M98.94356076624553,0.2560865217568379 L99.0,1.0 L100.0,-0.0" fill="blue" fill-opacity="0.6" stroke="black" stroke-width="1" />
<path d="M98.94356076624553,-0.2560865217568379 L99.0,-1.0 L100.0,-0.0" fill="black" fill-opacity="0.6" stroke="black" stroke-width="1" />
<path d="M0.0,-10.0 L3.748210407898646,-12.2769049456394 L3.7716229881471888,-13.039931905866197" fill="yellow" fill-opacity="0.6" stroke="black" stroke-width="1" />
<path d="M0.0,10.0 L3.748210407898646,12.2769049456394 L3.7716229881471888,13.039931905866197" fill="black" fill-opacity="0.6" stroke="black" stroke-width="1" />
<path d="M0.0,90.0 L3.748210407898646,87.7230950543606 L3.7716229881471888,86.9600680941338" fill="orange" fill-opacity="0.6" stroke="black" stroke-width="1" />
<path d="M0.0,-90.0 L3.748210407898646,-87.7230950543606 L3.7716229881471888,-86.9600680941338" fill="black" fill-opacity="0.6" stroke="black" stroke-width="1" />
<path d="M3.748210407898646,-12.2769049456394 L3.7716229881471888,-13.039931905866197 L5.046991220239475,-15.737563133529392" fill="purple" fill-opacity="0.6" stroke="black" stroke-width="1" />
<path d="M3.748210407898646,12.2769049456394 L3.7716229881471888,13.039931905866197 L5.046991220239475,15.737563133529392" fill="brown" fill-opacity="0.6" stroke="black" stroke-width="1" />
<path d="M3.748210407898646,87.7230950543606 L3.7716229881471888,86.9600680941338 L5.046991220239475,84.26243686647061" fill="brown" fill-opacity="0.6" stroke="black" stroke-width="1" />
<path d="M3.748210407898646,-87.7230950543606 L3.7716229881471888,-86.9600680941338 L5.046991220239475,-84.26243686647061" fill="brown" fill-opacity="0.6" stroke="black" stroke-width="1" />
<path d="M3.7716229881471888,-13.039931905866197 L5.046991220239475,-15.737563133529392 L6.0673679603693405,-20.977030630381947" fill="black" fill-opacity="0.6" stroke="black" stroke-width="1" />
<path d="M3.7716229881471888,13.039931905866197 L5.046991220239475,15.737563133529392 L6.0673679603693405,20.977030630381947" fill="blue" fill-opacity="0.6" stroke="black" stroke-width="1" />
<path d="M3.7716229881471888,86.9600680941338 L5.046991220239475,84.26243686647061 L6.0673679603693405,79.02296936961805" fill="pink" fill-opacity="0.6" stroke="black" stroke-width="1" />
<path d="M3.7716229881471888,-86.9600680941338 L5.046991220239475,-84.26243686647061 L6.0673679603693405,-79.02296936961805" fill="green" fill-opacity="0.6" stroke="black" stroke-width="1" />
<path d="M5.046991220239475,-15.737563133529392 L6.0673679603693405,-20.977030630381947 L6.273789328969327,-29.272959868381932" fill="black" fill-opacity="0.6" stroke="black" stroke-width="1" />
<path d="M5.046991220239475,15.737563133529392 L6.0673679603693405,20.977030630381947 L6.273789328969327,29.272959868381932" fill="orange" fill-opacity="0.6" stroke="black" stroke-width="1" />
<path d="M5.046991220239475,84.26243686647061 L6.0673679603693405,79.02296936961805 L6.273789328969327,70.72704013161807" fill="blue" fill-opacity="0.6" stroke="black" stroke-width="1" />
<path d="M5.046991220239475,-84.26243686647061 L6.0673679603693405,-79.02296936961805 L6.273789328969327,-70.72704013161807" fill="yellow" fill-opacity="0.6" stroke="black" stroke-width="1" />
<path d="M6.0673679603693405,-20.977030630381947 L6.273789328969327,-29.272959868381932 L0.0,-35.0" fill="yellow" fill-opacity="0.6" stroke="black" stroke-width="1" />
<path d="M6.0673679603693405,20.977030630381947 L6.273789328969327,29.272959868381932 L0.0,35.0" fill="brown" fill-opacity="0.6" stroke="black" stroke-width="1" />
<path d="M6.0673679603693405,79.02296936961805 L6.273789328969327,70.72704013161807 L0.0,65.0" fill="purple" fill-opacity="0.6" stroke="black" stroke-width="1" />
<path d="M6.0673679603693405,-79.02296936961805 L6.273789328969327,-70.72704013161807 L0.0,-65.0" fill="green" fill-opacity="0.6" stroke="black" stroke-width="1" />
<path d="M0.0,-35.0 L7.000757176623337,-42.83789428147639 L0.0,-50.0" fill="red" fill-opacity="0.6" stroke="black" stroke-width="1" />
<path d="M0.0,35.0 L7.000757176623337,42.83789428147639 L0.0,50.0" fill="black" fill-opacity="0.6" stroke="black" stroke-width="1" />
<path d="M0.0,65.0 L7.000757176623337,57.16210571852361 L0.0,50.0" fill="orange" fill-opacity="0.6" stroke="black" stroke-width="1" />
<path d="M0.0,-65.0 L7.000757176623337,-57.16210571852361 L0.0,-50.0" fill="pink" fill-opacity="0.6" stroke="black" stroke-width="1" />
<path d="M0.0,-50.0 L15.725334020398984,-45.27109927696985 L16.0,-50.0" fill="blue" fill-opacity="0.6" stroke="black" stroke-width="1" />
<path d="M0.0,50.0 L15.725334020398984,45.27109927696985 L16.0,50.0" fill="black" fill-opacity="0.6" stroke="black" stroke-width="1" />
<path d="M0.0,50.0 L15.725334020398984,54.72890072303015 L16.0,50.0" fill="blue" fill-opacity="0.6" stroke="black" stroke-width="1" />
<path d="M0.0,-50.0 L15.725334020398984,-54.72890072303015 L16.0,-50.0" fill="black" fill-opacity="0.6" stroke="black" stroke-width="1" />
<path d="M27.0,-50.0 L31.708899178722678,-46.95679969379137 L33.0,-50.0" fill="pink" fill-opacity="0.6" stroke="black" stroke-width="1" />
<path d="M27.0,50.0 L31.708899178722678,46.95679969379137 L33.0,50.0" fill="brown" fill-opacity="0.6" stroke="black" stroke-width="1" />
<path d="M27.0,50.0 L31.708899178722678,53.04320030620863 L33.0,50.0" fill="orange" fill-opacity="0.6" stroke="black" stroke-width="1" />
<path d="M27.0,-50.0 L31.708899178722678,-53.04320030620863 L33.0,-50.0" fill="green" fill-opacity="0.6" stroke="black" stroke-width="1" />
<path d="M20.0,-20.0 L3.242033697735304,-10.494274462077318 L10.0,-10.0" fill="orange" fill-opacity="0.6" stroke="black" stroke-width="1" />
<path d="M20.0,20.0 L3.242033697735304,10.494274462077318 L10.0,10.0" fill="orange" fill-opacity="0.6" stroke="black" stroke-width="1" />
<path d="M20.0,80.0 L3.242033697735304,89.50572553792269 L10.0,90.0" fill="brown" fill-opacity="0.6" stroke="black" stroke-width="1" />
<path d="M20.0,-80.0 L3.242033697735304,-89.50572553792269 L10.0,-90.0" fill="brown" fill-opacity="0.6" stroke="black" stroke-width="1" />
<path d="M10.0,-10.0 L2.48549132805187,-4.365712816682338 L1.091898319556122,-3.8715943397132304" fill="pink" fill-opacity="0.6" stroke="black" stroke-width="1" />
<path d="M10.0,10.0 L2.48549132805187,4.365712816682338 L1.091898319556122,3.8715943397132304" fill="pink" fill-opacity="0.6" stroke="black" stroke-width="1" />
<path d="M10.0,90.0 L2.48549132805187,95.63428718331767 L1.091898319556122,96.12840566028677" fill="blue" fill-opacity="0.6" stroke="black" stroke-width="1" />
<path d="M10.0,-90.0 L2.48549132805187,-95.63428718331767 L1.091898319556122,-96.12840566028677" fill="orange" fill-opacity="0.6" stroke="black" stroke-width="1" />
<path d="M2.48549132805187,-4.365712816682338 L1.091898319556122,-3.8715943397132304 L0.2560865217568379,-1.0564392337544803" fill="pink" fill-opacity="0.6" stroke="black" stroke-width="1" />
<path d="M2.48549132805187,4.365712816682338 L1.091898319556122,3.8715943397132304 L0.2560865217568379,1.0564392337544803" fill="yellow" fill-opacity="0.6" stroke="black" stroke-width="1" />
<path d="M2.48549132805187,95.63428718331767 L1.091898319556122,96.12840566028677 L0.2560865217568379,98.94356076624553" fill="orange" fill-opacity="0.6" stroke="black" stroke-width="1" />
<path d="M2.48549132805187,-95.63428718331767 L1.091898319556122,-96.12840566028677 L0.2560865217568379,-98.94356076624553" fill="orange" fill-opacity="0.6" stroke="black" stroke-width="1" />
<path d="M1.091898319556122,-3.8715943397132304 L0.2560865217568379,-1.0564392337544803 L1.0,-1.0" fill="pink" fill-opacity="0.6" stroke="black" stroke-width="1" />
<path d="M1.091898319556122,3.8715943397132304 L0.2560865217568379,1.0564392337544803 L1.0,1.0" fill="green" fill-opacity="0.6" stroke="black" stroke-width="1" />
<path d="M1.091898319556122,96.12840566028677 L0.2560865217568379,98.94356076624553 L1.0,99.0" fill="brown" fill-opacity="0.6" stroke="black" stroke-width="1" />
<path d="M1.091898319556122,-96.12840566028677 L0.2560865217568379,-98.94356076624553 L1.0,-99.0" fill="yellow" fill-opacity="0.6" stroke="black" stroke-width="1" />
<path d="M0.0,90.0 L-3.748210407898646,87.7230950543606 L-3.7716229881471888,86.9600680941338" fill="purple" fill-opacity="0.6" stroke="black" stroke-width="1" />
<path d="M0.0,-10.0 L-3.748210407898646,-12.2769049456394 L-3.7716229881471888,-13.039931905866197" fill="yellow" fill-opacity="0.6" stroke="black" stroke-width="1" />
<path d="M0.0,10.0 L-3.748210407898646,12.276904945639401 L-3.7716229881471888,13.039931905866197" fill="yellow" fill-opacity="0.6" stroke="black" stroke-width="1" />
<path d="M0.0,-90.0 L-3.748210407898646,-87.7230950543606 L-3.7716229881471888,-86.9600680941338" fill="red" fill-opacity="0.6" stroke="black" stroke-width="1" />
<path d="M-3.748210407898646,87.7230950543606 L-3.7716229881471888,86.9600680941338 L-5.046991220239475,84.26243686647061" fill="red" fill-opacity="0.6" stroke="black" stroke-width="1" />
<path d="M-3.748210407898646,-12.2769049456394 L-3.7716229881471888,-13.039931905866197 L-5.046991220239475,-15.737563133529392" fill="green" fill-opacity="0.6" stroke="black" stroke-width="1" />
<path d="M-3.748210407898646,12.276904945639401 L-3.7716229881471888,13.039931905866197 L-5.046991220239475,15.737563133529392" fill="blue" fill-opacity="0.6" stroke="black" stroke-width="1" />
<path d="M-3.748210407898646,-87.7230950543606 L-3.7716229881471888,-86.9600680941338 L-5.046991220239475,-84.26243686647061" fill="pink" fill-opacity="0.6" stroke="black" stroke-width="1" />
<path d="M-3.7716229881471888,86.9600680941338 L-5.046991220239475,84.26243686647061 L-6.0673679603693405,79.02296936961805" fill="green" fill-opacity="0.6" stroke="black" stroke-width="1" />
<path d="M-3.7716229881471888,-13.039931905866197 L-5.046991220239475,-15.737563133529392 L-6.0673679603693405,-20.977030630381947" fill="green" fill-opacity="0.6" stroke="black" stroke-width="1" />
<path d="M-3.7716229881471888,13.039931905866197 L-5.046991220239475,15.737563133529392 L-6.0673679603693405,20.977030630381947" fill="orange" fill-opacity="0.6" stroke="black" stroke-width="1" />
<path d="M-3.7716229881471888,-86.9600680941338 L-5.046991220239475,-84.26243686647061 L-6.0673679603693405,-79.02296936961805" fill="green" fill-opacity="0.6" stroke="black" stroke-width="1" />
<path d="M-5.046991220239475,84.26243686647061 L-6.0673679603693405,79.02296936961805 L-6.273789328969327,70.72704013161807" fill="black" fill-opacity="0.6" stroke="black" stroke-width="1" />
<path d="M-5.046991220239475,-15.737563133529392 L-6.0673679603693405,-20.977030630381947 L-6.273789328969327,-29.272959868381932" fill="brown" fill-opacity="0.6" stroke="black" stroke-width="1" />
<path d="M-5.046991220239475,15.737563133529392 L-6.0673679603693405,20.977030630381947 L-6.273789328969327,29.272959868381932" fill="purple" fill-opacity="0.6" stroke="black" stroke-width="1" />
<path d="M-5.046991220239475,-84.26243686647061 L-6.0673679603693405,-79.02296936961805 L-6.273789328969327,-70.72704013161807" fill="yellow" fill-opacity="0.6" stroke="black" stroke-width="1" />
<path d="M-6.0673679603693405,79.02296936961805 L-6.273789328969327,70.72704013161807 L0.0,65.0" fill="purple" fill-opacity="0.6" stroke="black" stroke-width="1" />
<path d="M-6.0673679603693405,-20.977030630381947 L-6.273789328969327,-29.272959868381932 L0.0,-35.0" fill="orange" fill-opacity="0.6" stroke="black" stroke-width="1" />
<path d="M-6.0673679603693405,20.977030630381947 L-6.273789328969327,29.272959868381932 L0.0,35.0" fill="pink" fill-opacity="0.6" stroke="black" stroke-width="1" />
<path d="M-6.0673679603693405,-79.02296936961805 L-6.273789328969327,-70.72704013161807 L0.0,-65.0" fill="orange" fill-opacity="0.6" stroke="black" stroke-width="1" />
<path d="M0.0,65.0 L-7.000757176623337,57.16210571852361 L0.0,50.0" fill="yellow" fill-opacity="0.6" stroke="black" stroke-width="1" />
<path d="M0.0,-35.0 L-7.000757176623337,-42.83789428147639 L0.0,-50.0" fill="black" fill-opacity="0.6" stroke="black" stroke-width="1" />
<path d="M0.0,35.0 L-7.000757176623337,42.83789428147639 L0.0,50.0" fill="blue" fill-opacity="0.6" stroke="black" stroke-width="1" />
<path d="M0.0,-65.0 L-7.000757176623337,-57.16210571852361 L0.0,-50.0" fill="yellow" fill-opacity="0.6" stroke="black" stroke-width="1" />
<path d="M0.0,50.0 L-15.725334020398984,54.72890072303015 L-16.0,50.0" fill="pink" fill-opacity="0.6" stroke="black" stroke-width="1" />
<path d="M0.0,-50.0 L-15.725334020398984,-45.27109927696985 L-16.0,-50.0" fill="yellow" fill-opacity="0.6" stroke="black" stroke-width="1" />
<path d="M0.0,50.0 L-15.725334020398984,45.27109927696985 L-16.0,50.0" fill="yellow" fill-opacity="0.6" stroke="black" stroke-width="1" />
<path d="M0.0,-50.0 L-15.725334020398984,-54.72890072303015 L-16.0,-50.0" fill="green" fill-opacity="0.6" stroke="black" stroke-width="1" />
<path d="M-27.0,50.0 L-31.708899178722678,53.04320030620863 L-33.0,50.0" fill="black" fill-opacity="0.6" stroke="black" stroke-width="1" />
<path d="M-27.0,-50.0 L-31.708899178722678,-46.95679969379137 L-33.0,-50.0" fill="blue" fill-opacity="0.6" stroke="black" stroke-width="1" />
<path d="M-27.0,50.0 L-31.708899178722678,46.95679969379137 L-33.0,50.0" fill="yellow" fill-opacity="0.6" stroke="black" stroke-width="1" />
<path d="M-27.0,-50.0 L-31.708899178722678,-53.04320030620863 L-33.0,-50.0" fill="blue" fill-opacity="0.6" stroke="black" stroke-width="1" />
<path d="M-20.0,80.0 L-3.242033697735304,89.50572553792269 L-10.0,90.0" fill="red" fill-opacity="0.6" stroke="black" stroke-width="1" />
<path d="M-20.0,-20.0 L-3.242033697735304,-10.494274462077318 L-10.0,-10.0" fill="black" fill-opacity="0.6" stroke="black" stroke-width="1" />
<path d="M-20.0,20.0 L-3.242033697735304,10.494274462077314 L-10.0,10.0" fill="brown" fill-opacity="0.6" stroke="black" stroke-width="1" />
<path d="M-20.0,-80.0 L-3.242033697735304,-89.50572553792269 L-10.0,-90.0" fill="orange" fill-opacity="0.6" stroke="black" stroke-width="1" />
<path d="M-10.0,90.0 L-2.48549132805187,95.63428718331767 L-1.091898319556122,96.12840566028677" fill="brown" fill-opacity="0.6" stroke="black" stroke-width="1" />
<path d="M-10.0,-10.0 L-2.48549132805187,-4.365712816682338 L-1.091898319556122,-3.8715943397132304" fill="yellow" fill-opacity="0.6" stroke="black" stroke-width="1" />
<path d="M-10.0,10.0 L-2.48549132805187,4.365712816682333 L-1.091898319556122,3.8715943397132264" fill="blue" fill-opacity="0.6" stroke="black" stroke-width="1" />
<path d="M-10.0,-90.0 L-2.48549132805187,-95.63428718331767 L-1.091898319556122,-96.12840566028677" fill="green" fill-opacity="0.6" stroke="black" stroke-width="1" />
<path d="M-2.48549132805187,95.63428718331767 L-1.091898319556122,96.12840566028677 L-0.2560865217568379,98.94356076624553" fill="pink" fill-opacity="0.6" stroke="black" stroke-width="1" />
<path d="M-2.48549132805187,-4.365712816682338 L-1.091898319556122,-3.8715943397132304 L-0.2560865217568379,-1.0564392337544803" fill="red" fill-opacity="0.6" stroke="black" stroke-width="1" />
<path d="M-2.48549132805187,4.365712816682333 L-1.091898319556122,3.8715943397132264 L-0.2560865217568379,1.0564392337544746" fill="blue" fill-opacity="0.6" stroke="black" stroke-width="1" />
<path d="M-2.48549132805187,-95.63428718331767 L-1.091898319556122,-96.12840566028677 L-0.2560865217568379,-98.94356076624553" fill="red" fill-opacity="0.6" stroke="black" stroke-width="1" />
<path d="M-1.091898319556122,96.12840566028677 L-0.2560865217568379,98.94356076624553 L-1.0,99.0" fill="blue" fill-opacity="0.6" stroke="black" stroke-width="1" />
<path d="M-1.091898319556122,-3.8715943397132304 L-0.2560865217568379,-1.0564392337544803 L-1.0,-1.0" fill="pink" fill-opacity="0.6" stroke="black" stroke-width="1" />
<path d="M-1.091898319556122,3.8715943397132264 L-0.2560865217568379,1.0564392337544746 L-1.0,1.0" fill="orange" fill-opacity="0.6" stroke="black" stroke-width="1" />
<path d="M-1.091898319556122,-96.12840566028677 L-0.2560865217568379,-98.94356076624553 L-1.0,-99.0" fill="yellow" fill-opacity="0.6" stroke="black" stroke-width="1" />
<path d="M-89.50572553792269,-3.242033697735304 L-90.0,-10.0 L-95.63428718331767,-2.48549132805187" fill="orange" fill-opacity="0.6" stroke="black" stroke-width="1" />
<path d="M-89.50572553792269,3.242033697735304 L-90.0,10.0 L-95.63428718331767,2.48549132805187" fill="blue" fill-opacity="0.6" stroke="black" stroke-width="1" />
<path d="M-90.0,-0.0 L-87.7230950543606,-3.748210407898646 L-86.9600680941338,-3.7716229881471888" fill="brown" fill-opacity="0.6" stroke="black" stroke-width="1" />
<path d="M-90.0,-0.0 L-87.7230950543606,3.748210407898646 L-86.9600680941338,3.7716229881471888" fill="black" fill-opacity="0.6" stroke="black" stroke-width="1" />
<path d="M-87.7230950543606,-3.748210407898646 L-86.9600680941338,-3.7716229881471888 L-84.26243686647061,-5.046991220239475" fill="red" fill-opacity="0.6" stroke="black" stroke-width="1" />
<path d="M-87.7230950543606,3.748210407898646 L-86.9600680941338,3.7716229881471888 L-84.26243686647061,5.046991220239475" fill="black" fill-opacity="0.6" stroke="black" stroke-width="1" />
<path d="M-86.9600680941338,-3.7716229881471888 L-84.26243686647061,-5.046991220239475 L-79.02296936961805,-6.0673679603693405" fill="orange" fill-opacity="0.6" stroke="black" stroke-width="1" />
<path d="M-86.9600680941338,3.7716229881471888 L-84.26243686647061,5.046991220239475 L-79.02296936961805,6.0673679603693405" fill="red" fill-opacity="0.6" stroke="black" stroke-width="1" />
<path d="M-84.26243686647061,-5.046991220239475 L-79.02296936961805,-6.0673679603693405 L-70.72704013161807,-6.273789328969327" fill="yellow" fill-opacity="0.6" stroke="black" stroke-width="1" />
<path d="M-84.26243686647061,5.046991220239475 L-79.02296936961805,6.0673679603693405 L-70.72704013161807,6.273789328969327" fill="black" fill-opacity="0.6" stroke="black" stroke-width="1" />
<path d="M-79.02296936961805,-6.0673679603693405 L-70.72704013161807,-6.273789328969327 L-65.0,-0.0" fill="orange" fill-opacity="0.6" stroke="black" stroke-width="1" />
<path d="M-79.02296936961805,6.0673679603693405 L-70.72704013161807,6.273789328969327 L-65.0,-0.0" fill="pink" fill-opacity="0.6" stroke="black" stroke-width="1" />
<path d="M-65.0,-0.0 L-57.16210571852361,-7.000757176623337 L-50.0,-0.0" fill="green" fill-opacity="0.6" stroke="black" stroke-width="1" />
<path d="M-65.0,-0.0 L-57.16210571852361,7.000757176623337 L-50.0,-0.0" fill="red" fill-opacity="0.6" stroke="black" stroke-width="1" />
<path d="M-50.0,-0.0 L-54.72890072303015,-15.725334020398984 L-50.0,-16.0" fill="purple" fill-opacity="0.6" stroke="black" stroke-width="1" />
<path d="M-50.0,-0.0 L-54.72890072303015,15.725334020398984 L-50.0,16.0" fill="black" fill-opacity="0.6" stroke="black" stroke-width="1" />
<path d="M-50.0,-27.0 L-53.04320030620863,-31.708899178722678 L-50.0,-33.0" fill="blue" fill-opacity="0.6" stroke="black" stroke-width="1" />
<path d="M-50.0,27.0 L-53.04320030620863,31.708899178722678 L-50.0,33.0" fill="orange" fill-opacity="0.6" stroke="black" stroke-width="1" />
<path d="M-50.0,-39.0 L-51.0,-49.0 L-80.0,-20.0" fill="blue" fill-opacity="0.6" stroke="black" stroke-width="1" />
<path d="M-50.0,39.0 L-51.0,49.0 L-80.0,20.0" fill="black" fill-opacity="0.6" stroke="black" stroke-width="1" />
<path d="M-51.0,-49.0 L-80.0,-20.0 L-89.50572553792269,-3.242033697735304" fill="blue" fill-opacity="0.6" stroke="black" stroke-width="1" />
<path d="M-51.0,49.0 L-80.0,20.0 L-89.50572553792269,3.242033697735304" fill="purple" fill-opacity="0.6" stroke="black" stroke-width="1" />
<path d="M-80.0,-20.0 L-89.50572553792269,-3.242033697735304 L-90.0,-10.0" fill="red" fill-opacity="0.6" stroke="black" stroke-width="1" />
<path d="M-80.0,20.0 L-89.50572553792269,3.242033697735304 L-90.0,10.0" fill="black" fill-opacity="0.6" stroke="black" stroke-width="1" />
<path d="M-90.0,-10.0 L-95.63428718331767,-2.48549132805187 L-96.12840566028677,-1.091898319556122" fill="red" fill-opacity="0.6" stroke="black" stroke-width="1" />
<path d="M-90.0,10.0 L-95.63428718331767,2.48549132805187 L-96.12840566028677,1.091898319556122" fill="purple" fill-opacity="0.6" stroke="black" stroke-width="1" />
<path d="M-95.63428718331767,-2.48549132805187 L-96.12840566028677,-1.091898319556122 L-98.94356076624553,-0.2560865217568379" fill="brown" fill-opacity="0.6" stroke="black" stroke-width="1" />
<path d="M-95.63428718331767,2.48549132805187 L-96.12840566028677,1.091898319556122 L-98.94356076624553,0.2560865217568379" fill="purple" fill-opacity="0.6" stroke="black" stroke-width="1" />
<path d="M-96.12840566028677,-1.091898319556122 L-98.94356076624553,-0.2560865217568379 L-99.0,-1.0" fill="purple" fill-opacity="0.6" stroke="black" stroke-width="1" />
<path d="M-96.12840566028677,1.091898319556122 L-98.94356076624553,0.2560865217568379 L-99.0,1.0" fill="yellow" fill-opacity="0.6" stroke="black" stroke-width="1" />
<path d="M-98.94356076624553,-0.2560865217568379 L-99.0,-1.0 L-100.0,-0.0" fill="green" fill-opacity="0.6" stroke="black" stroke-width="1" />
<path d="M-98.94356076624553,0.2560865217568379 L-99.0,1.0 L-100.0,-0.0" fill="red" fill-opacity="0.6" stroke="black" stroke-width="1" />
</svg>