<?xml version="1.0" encoding="UTF-8"?>
<svg xmlns="http://www.w3.org/2000/svg" xmlns:xlink="http://www.w3.org/1999/xlink"
     width="250" height="250" viewBox="-125.0 -125.0 250 250">
<defs>
</defs>
<path d="M50.0,-3.0 L40.58529136494248,-31.68802223271824 L50.0,-47.0" fill="pink" fill-opacity="0.6" stroke="black" stroke-width="1" />
<path d="M50.0,3.0 L40.58529136494248,31.68802223271824 L50.0,47.0" fill="red" fill-opacity="0.6" stroke="black" stroke-width="1" />
<path d="M50.0,-50.0 L49.50815040516516,-47.72591215257189 L48.71767880041056,-44.30620530134745" fill="purple" fill-opacity="0.6" stroke="black" stroke-width="1" />
<path d="M50.0,50.0 L49.50815040516516,47.72591215257189 L48.71767880041056,44.30620530134745" fill="pink" fill-opacity="0.6" stroke="black" stroke-width="1" />
<path d="M49.50815040516516,-47.72591215257189 L48.71767880041056,-44.30620530134745 L46.717778355331305,-38.803552516749896" fill="purple" fill-opacity="0.6" stroke="black" stroke-width="1" />
<path d="M49.50815040516516,47.72591215257189 L48.71767880041056,44.30620530134745 L46.717778355331305,38.803552516749896" fill="pink" fill-opacity="0.6" stroke="black" stroke-width="1" />
<path d="M48.71767880041056,-44.30620530134745 L46.717778355331305,-38.803552516749896 L37.0,-37.0" fill="purple" fill-opacity="0.6" stroke="black" stroke-width="1" />
<path d="M48.71767880041056,44.30620530134745 L46.717778355331305,38.803552516749896 L37.0,37.0" fill="blue" fill-opacity="0.6" stroke="black" stroke-width="1" />
<path d="M38.803552516749896,53.282221644668695 L37.0,63.0 L36.0,64.0" fill="blue" fill-opacity="0.6" stroke="black" stroke-width="1" />
<path d="M38.803552516749896,-53.282221644668695 L37.0,-63.0 L36.0,-64.0" fill="pink" fill-opacity="0.6" stroke="black" stroke-width="1" />
<path d="M37.0,63.0 L36.0,64.0 L26.838683422521974,70.09296110303308" fill="red" fill-opacity="0.6" stroke="black" stroke-width="1" />
<path d="M37.0,-63.0 L36.0,-64.0 L26.838683422521974,-70.09296110303308" fill="pink" fill-opacity="0.6" stroke="black" stroke-width="1" />
<path d="M36.0,-36.0 L29.907038896966917,-26.838683422521974 L27.916586819673686,-26.365232186467107" fill="blue" fill-opacity="0.6" stroke="black" stroke-width="1" />
<path d="M36.0,36.0 L29.907038896966917,26.838683422521974 L27.916586819673686,26.365232186467107" fill="brown" fill-opacity="0.6" stroke="black" stroke-width="1" />
<path d="M29.907038896966917,-26.838683422521974 L27.916586819673686,-26.365232186467107 L18.626720460909457,-15.231019064509056" fill="purple" fill-opacity="0.6" stroke="black" stroke-width="1" />
<path d="M29.907038896966917,26.838683422521974 L27.916586819673686,26.365232186467107 L18.626720460909457,15.231019064509056" fill="blue" fill-opacity="0.6" stroke="black" stroke-width="1" />
<path d="M27.916586819673686,-26.365232186467107 L18.626720460909457,-15.231019064509056 L18.085029867984286,-14.941067641950989" fill="blue" fill-opacity="0.6" stroke="black" stroke-width="1" />
<path d="M27.916586819673686,26.365232186467107 L18.626720460909457,15.231019064509056 L18.085029867984286,14.941067641950989" fill="red" fill-opacity="0.6" stroke="black" stroke-width="1" />
<path d="M18.626720460909457,-15.231019064509056 L18.085029867984286,-14.941067641950989 L15.590484821295497,-9.615055057002575" fill="brown" fill-opacity="0.6" stroke="black" stroke-width="1" />
<path d="M18.626720460909457,15.231019064509056 L18.085029867984286,14.941067641950989 L15.590484821295497,9.615055057002575" fill="black" fill-opacity="0.6" stroke="black" stroke-width="1" />
<path d="M18.085029867984286,-14.941067641950989 L15.590484821295497,-9.615055057002575 L13.272626330105403,-7.9556075694796755" fill="brown" fill-opacity="0.6" stroke="black" stroke-width="1" />
<path d="M18.085029867984286,14.941067641950989 L15.590484821295497,9.615055057002575 L13.272626330105403,7.9556075694796755" fill="blue" fill-opacity="0.6" stroke="black" stroke-width="1" />
<path d="M15.590484821295497,-9.615055057002575 L13.272626330105403,-7.9556075694796755 L11.201952599534431,-5.87664942117565" fill="yellow" fill-opacity="0.6" stroke="black" stroke-width="1" />
<path d="M15.590484821295497,9.615055057002575 L13.272626330105403,7.9556075694796755 L11.201952599534431,5.87664942117565" fill="purple" fill-opacity="0.6" stroke="black" stroke-width="1" />
<path d="M13.272626330105403,-7.9556075694796755 L11.201952599534431,-5.87664942117565 L11.186933352649763,-5.334162546040446" fill="yellow" fill-opacity="0.6" stroke="black" stroke-width="1" />
<path d="M13.272626330105403,7.9556075694796755 L11.201952599534431,5.87664942117565 L11.186933352649763,5.334162546040446" fill="yellow" fill-opacity="0.6" stroke="black" stroke-width="1" />
<path d="M11.201952599534431,-5.87664942117565 L11.186933352649763,-5.334162546040446 L9.675057785619888,-4.952540762043987" fill="orange" fill-opacity="0.6" stroke="black" stroke-width="1" />
<path d="M11.201952599534431,5.87664942117565 L11.186933352649763,5.334162546040446 L9.675057785619888,4.952540762043987" fill="red" fill-opacity="0.6" stroke="black" stroke-width="1" />
<path d="M11.186933352649763,-5.334162546040446 L9.675057785619888,-4.952540762043987 L8.303271744265068,-4.907628390263256" fill="green" fill-opacity="0.6" stroke="black" stroke-width="1" />
<path d="M11.186933352649763,5.334162546040446 L9.675057785619888,4.952540762043987 L8.303271744265068,4.907628390263256" fill="brown" fill-opacity="0.6" stroke="black" stroke-width="1" />
<path d="M9.675057785619888,-4.952540762043987 L8.303271744265068,-4.907628390263256 L8.232287380398983,-4.727258995131885" fill="brown" fill-opacity="0.6" stroke="black" stroke-width="1" />
<path d="M9.675057785619888,4.952540762043987 L8.303271744265068,4.907628390263256 L8.232287380398983,4.727258995131885" fill="purple" fill-opacity="0.6" stroke="black" stroke-width="1" />
<path d="M8.303271744265068,-4.907628390263256 L8.232287380398983,-4.727258995131885 L5.769258688585144,-4.5726952670899434" fill="blue" fill-opacity="0.6" stroke="black" stroke-width="1" />
<path d="M8.303271744265068,4.907628390263256 L8.232287380398983,4.727258995131885 L5.769258688585144,4.5726952670899434" fill="purple" fill-opacity="0.6" stroke="black" stroke-width="1" />
<path d="M8.232287380398983,-4.727258995131885 L5.769258688585144,-4.5726952670899434 L5.508997073104271,-0.5837476915377862" fill="red" fill-opacity="0.6" stroke="black" stroke-width="1" />
<path d="M8.232287380398983,4.727258995131885 L5.769258688585144,4.5726952670899434 L5.508997073104271,0.5837476915377862" fill="blue" fill-opacity="0.6" stroke="black" stroke-width="1" />
<path d="M5.769258688585144,-4.5726952670899434 L5.508997073104271,-0.5837476915377862 L5.0,-5.0" fill="yellow" fill-opacity="0.6" stroke="black" stroke-width="1" />
<path d="M5.769258688585144,4.5726952670899434 L5.508997073104271,0.5837476915377862 L5.0,5.0" fill="yellow" fill-opacity="0.6" stroke="black" stroke-width="1" />
<path d="M0.5837476915377862,94.49100292689573 L5.0,95.0 L0.3892150990123133,99.01048255792526" fill="purple" fill-opacity="0.6" stroke="black" stroke-width="1" />
<path d="M0.5837476915377862,-94.49100292689573 L5.0,-95.0 L0.3892150990123133,-99.01048255792526" fill="purple" fill-opacity="0.6" stroke="black" stroke-width="1" />
<path d="M5.0,-5.0 L0.9895174420747443,-0.3892150990123133 L0.0,-0.0" fill="green" fill-opacity="0.6" stroke="black" stroke-width="1" />
<path d="M5.0,5.0 L0.9895174420747443,0.3892150990123133 L0.0,-0.0" fill="yellow" fill-opacity="0.6" stroke="black" stroke-width="1" />
<path d="M-50.0,-3.0 L-40.58529136494248,-31.68802223271824 L-50.0,-47.0" fill="green" fill-opacity="0.6" stroke="black" stroke-width="1" />
<path d="M-50.0,3.0 L-40.58529136494248,31.68802223271824 L-50.0,47.0" fill="red" fill-opacity="0.6" stroke="black" stroke-width="1" />
<path d="M-50.0,-50.0 L-49.50815040516516,-47.72591215257189 L-48.71767880041056,-44.30620530134745" fill="orange" fill-opacity="0.6" stroke="black" stroke-width="1" />
<path d="M-50.0,50.0 L-49.50815040516516,47.72591215257189 L-48.71767880041056,44.30620530134745" fill="brown" fill-opacity="0.6" stroke="black" stroke-width="1" />
<path d="M-49.50815040516516,-47.72591215257189 L-48.71767880041056,-44.30620530134745 L-46.717778355331305,-38.803552516749896" fill="blue" fill-opacity="0.6" stroke="black" stroke-width="1" />
<path d="M-49.50815040516516,47.72591215257189 L-48.71767880041056,44.30620530134745 L-46.717778355331305,38.803552516749896" fill="red" fill-opacity="0.6" stroke="black" stroke-width="1" />
<path d="M-48.71767880041056,-44.30620530134745 L-46.717778355331305,-38.803552516749896 L-37.0,-37.0" fill="orange" fill-opacity="0.6" stroke="black" stroke-width="1" />
<path d="M-48.71767880041056,44.30620530134745 L-46.717778355331305,38.803552516749896 L-37.0,37.0" fill="brown" fill-opacity="0.6" stroke="black" stroke-width="1" />
<path d="M-38.803552516749896,53.282221644668695 L-37.0,63.0 L-36.0,64.0" fill="yellow" fill-opacity="0.6" stroke="black" stroke-width="1" />
<path d="M-38.803552516749896,-53.282221644668695 L-37.0,-63.0 L-36.0,-64.0" fill="black" fill-opacity="0.6" stroke="black" stroke-width="1" />
<path d="M-37.0,63.0 L-36.0,64.0 L-26.838683422521974,70.09296110303308" fill="black" fill-opacity="0.6" stroke="black" stroke-width="1" />
<path d="M-37.0,-63.0 L-36.0,-64.0 L-26.838683422521974,-70.09296110303308" fill="blue" fill-opacity="0.6" stroke="black" stroke-width="1" />
<path d="M-36.0,-36.0 L-29.907038896966917,-26.838683422521974 L-27.916586819673686,-26.365232186467107" fill="pink" fill-opacity="0.6" stroke="black" stroke-width="1" />
<path d="M-36.0,36.0 L-29.907038896966917,26.838683422521974 L-27.916586819673686,26.365232186467107" fill="yellow" fill-opacity="0.6" stroke="black" stroke-width="1" />
<path d="M-29.907038896966917,-26.838683422521974 L-27.916586819673686,-26.365232186467107 L-18.626720460909457,-15.231019064509056" fill="orange" fill-opacity="0.6" stroke="black" stroke-width="1" />
<path d="M-29.907038896966917,26.838683422521974 L-27.916586819673686,26.365232186467107 L-18.626720460909457,15.231019064509056" fill="black" fill-opacity="0.6" stroke="black" stroke-width="1" />
<path d="M-27.916586819673686,-26.365232186467107 L-18.626720460909457,-15.231019064509056 L-18.085029867984286,-14.941067641950989" fill="brown" fill-opacity="0.6" stroke="black" stroke-width="1" />
<path d="M-27.916586819673686,26.365232186467107 L-18.626720460909457,15.231019064509056 L-18.085029867984286,14.941067641950989" fill="red" fill-opacity="0.6" stroke="black" stroke-width="1" />
<path d="M-18.626720460909457,-15.231019064509056 L-18.085029867984286,-14.941067641950989 L-15.590484821295497,-9.615055057002575" fill="red" fill-opacity="0.6" stroke="black" stroke-width="1" />
<path d="M-18.626720460909457,15.231019064509056 L-18.085029867984286,14.941067641950989 L-15.590484821295497,9.615055057002575" fill="yellow" fill-opacity="0.6" stroke="black" stroke-width="1" />
<path d="M-18.085029867984286,-14.941067641950989 L-15.590484821295497,-9.615055057002575 L-13.272626330105403,-7.9556075694796755" fill="black" fill-opacity="0.6" stroke="black" stroke-width="1" />
<path d="M-18.085029867984286,14.941067641950989 L-15.590484821295497,9.615055057002575 L-13.272626330105403,7.9556075694796755" fill="orange" fill-opacity="0.6" stroke="black" stroke-width="1" />
<path d="M-15.590484821295497,-9.615055057002575 L-13.272626330105403,-7.9556075694796755 L-11.201952599534431,-5.87664942117565" fill="red" fill-opacity="0.6" stroke="black" stroke-width="1" />
<path d="M-15.590484821295497,9.615055057002575 L-13.272626330105403,7.9556075694796755 L-11.201952599534431,5.87664942117565" fill="blue" fill-opacity="0.6" stroke="black" stroke-width="1" />
<path d="M-13.272626330105403,-7.9556075694796755 L-11.201952599534431,-5.87664942117565 L-11.186933352649763,-5.334162546040446" fill="orange" fill-opacity="0.6" stroke="black" stroke-width="1" />
<path d="M-13.272626330105403,7.9556075694796755 L-11.201952599534431,5.87664942117565 L-11.186933352649763,5.334162546040446" fill="blue" fill-opacity="0.6" stroke="black" stroke-width="1" />
<path d="M-11.201952599534431,-5.87664942117565 L-11.186933352649763,-5.334162546040446 L-9.675057785619888,-4.952540762043987" fill="brown" fill-opacity="0.6" stroke="black" stroke-width="1" />
<path d="M-11.201952599534431,5.87664942117565 L-11.186933352649763,5.334162546040446 L-9.675057785619888,4.952540762043987" fill="orange" fill-opacity="0.6" stroke="black" stroke-width="1" />
<path d="M-11.186933352649763,-5.334162546040446 L-9.675057785619888,-4.952540762043987 L-8.303271744265068,-4.907628390263256" fill="green" fill-opacity="0.6" stroke="black" stroke-width="1" />
<path d="M-11.186933352649763,5.334162546040446 L-9.675057785619888,4.952540762043987 L-8.303271744265068,4.907628390263256" fill="red" fill-opacity="0.6" stroke="black" stroke-width="1" />
<path d="M-9.675057785619888,-4.952540762043987 L-8.303271744265068,-4.907628390263256 L-8.232287380398983,-4.727258995131885" fill="orange" fill-opacity="0.6" stroke="black" stroke-width="1" />
<path d="M-9.675057785619888,4.952540762043987 L-8.303271744265068,4.907628390263256 L-8.232287380398983,4.727258995131885" fill="brown" fill-opacity="0.6" stroke="black" stroke-width="1" />
<path d="M-8.303271744265068,-4.907628390263256 L-8.232287380398983,-4.727258995131885 L-5.769258688585144,-4.5726952670899434" fill="black" fill-opacity="0.6" stroke="black" stroke-width="1" />
<path d="M-8.303271744265068,4.907628390263256 L-8.232287380398983,4.727258995131885 L-5.769258688585144,4.5726952670899434" fill="blue" fill-opacity="0.6" stroke="black" stroke-width="1" />
<path d="M-8.232287380398983,-4.727258995131885 L-5.769258688585144,-4.5726952670899434 L-5.508997073104271,-0.5837476915377862" fill="blue" fill-opacity="0.6" stroke="black" stroke-width="1" />
<path d="M-8.232287380398983,4.727258995131885 L-5.769258688585144,4.5726952670899434 L-5.508997073104271,0.5837476915377862" fill="red" fill-opacity="0.6" stroke="black" stroke-width="1" />
<path d="M-5.769258688585144,-4.5726952670899434 L-5.508997073104271,-0.5837476915377862 L-5.0,-5.0" fill="yellow" fill-opacity="0.6" stroke="black" stroke-width="1" />
<path d="M-5.769258688585144,4.5726952670899434 L-5.508997073104271,0.5837476915377862 L-5.0,5.0" fill="blue" fill-opacity="0.6" stroke="black" stroke-width="1" />
<path d="M-0.5837476915377862,94.49100292689573 L-5.0,95.0 L-0.3892150990123133,99.01048255792526" fill="purple" fill-opacity="0.6" stroke="black" stroke-width="1" />
<path d="M-0.5837476915377862,-94.49100292689573 L-5.0,-95.0 L-0.3892150990123133,-99.01048255792526" fill="red" fill-opacity="0.6" stroke="black" stroke-width="1" />
<path d="M-5.0,-5.0 L-0.9895174420747443,-0.3892150990123133 L0.0,-0.0" fill="purple" fill-opacity="0.6" stroke="black" stroke-width="1" />
<path d="M-5.0,5.0 L-0.9895174420747443,0.3892150990123133 L0.0,-0.0" fill="purple" fill-opacity="0.6" stroke="black" stroke-width="1" />
<path d="M50.0,3.0 L59.41470863505752,31.68802223271824 L50.0,47.0" fill="red" fill-opacity="0.6" stroke="black" stroke-width="1" />
<path d="M50.0,-3.0 L59.41470863505752,-31.68802223271824 L50.0,-47.0" fill="purple" fill-opacity="0.6" stroke="black" stroke-width="1" />
<path d="M50.0,50.0 L50.49184959483484,47.72591215257189 L51.28232119958944,44.30620530134745" fill="green" fill-opacity="0.6" stroke="black" stroke-width="1" />
<path d="M50.0,-50.0 L50.49184959483484,-47.72591215257189 L51.28232119958944,-44.30620530134745" fill="yellow" fill-opacity="0.6" stroke="black" stroke-width="1" />
<path d="M50.49184959483484,47.72591215257189 L51.28232119958944,44.30620530134745 L53.282221644668695,38.803552516749896" fill="brown" fill-opacity="0.6" stroke="black" stroke-width="1" />
<path d="M50.49184959483484,-47.72591215257189 L51.28232119958944,-44.30620530134745 L53.282221644668695,-38.803552516749896" fill="black" fill-opacity="0.6" stroke="black" stroke-width="1" />
<path d="M51.28232119958944,44.30620530134745 L53.282221644668695,38.803552516749896 L63.0,37.0" fill="blue" fill-opacity="0.6" stroke="black" stroke-width="1" />
<path d="M51.28232119958944,-44.30620530134745 L53.282221644668695,-38.803552516749896 L63.0,-37.0" fill="blue" fill-opacity="0.6" stroke="black" stroke-width="1" />
<path d="M53.282221644668695,38.803552516749896 L63.0,37.0 L64.0,36.0" fill="yellow" fill-opacity="0.6" stroke="black" stroke-width="1" />
<path d="M53.282221644668695,-38.803552516749896 L63.0,-37.0 L64.0,-36.0" fill="blue" fill-opacity="0.6" stroke="black" stroke-width="1" />
<path d="M63.0,37.0 L64.0,36.0 L70.09296110303308,26.838683422521974" fill="red" fill-opacity="0.6" stroke="black" stroke-width="1" />
<path d="M63.0,-37.0 L64.0,-36.0 L70.09296110303308,-26.838683422521974" fill="pink" fill-opacity="0.6" stroke="black" stroke-width="1" />
<path d="M64.0,36.0 L70.09296110303308,26.838683422521974 L72.08341318032632,26.365232186467107" fill="pink" fill-opacity="0.6" stroke="black" stroke-width="1" />
<path d="M64.0,-36.0 L70.09296110303308,-26.838683422521974 L72.08341318032632,-26.365232186467107" fill="green" fill-opacity="0.6" stroke="black" stroke-width="1" />
<path d="M70.09296110303308,26.838683422521974 L72.08341318032632,26.365232186467107 L81.37327953909055,15.231019064509056" fill="green" fill-opacity="0.6" stroke="black" stroke-width="1" />
<path d="M70.09296110303308,-26.838683422521974 L72.08341318032632,-26.365232186467107 L81.37327953909055,-15.231019064509056" fill="black" fill-opacity="0.6" stroke="black" stroke-width="1" />
<path d="M72.08341318032632,26.365232186467107 L81.37327953909055,15.231019064509056 L81.91497013201571,14.941067641950989" fill="green" fill-opacity="0.6" stroke="black" stroke-width="1" />
<path d="M72.08341318032632,-26.365232186467107 L81.37327953909055,-15.231019064509056 L81.91497013201571,-14.941067641950989" fill="black" fill-opacity="0.6" stroke="black" stroke-width="1" />
<path d="M81.37327953909055,15.231019064509056 L81.91497013201571,14.941067641950989 L84.40951517870451,9.615055057002575" fill="orange" fill-opacity="0.6" stroke="black" stroke-width="1" />
<path d="M81.37327953909055,-15.231019064509056 L81.91497013201571,-14.941067641950989 L84.40951517870451,-9.615055057002575" fill="red" fill-opacity="0.6" stroke="black" stroke-width="1" />
<path d="M81.91497013201571,14.941067641950989 L84.40951517870451,9.615055057002575 L86.7273736698946,7.9556075694796755" fill="purple" fill-opacity="0.6" stroke="black" stroke-width="1" />
<path d="M81.91497013201571,-14.941067641950989 L84.40951517870451,-9.615055057002575 L86.7273736698946,-7.9556075694796755" fill="purple" fill-opacity="0.6" stroke="black" stroke-width="1" />
<path d="M84.40951517870451,9.615055057002575 L86.7273736698946,7.9556075694796755 L88.79804740046558,5.87664942117565" fill="red" fill-opacity="0.6" stroke="black" stroke-width="1" />
<path d="M84.40951517870451,-9.615055057002575 L86.7273736698946,-7.9556075694796755 L88.79804740046558,-5.87664942117565" fill="red" fill-opacity="0.6" stroke="black" stroke-width="1" />
<path d="M86.7273736698946,7.9556075694796755 L88.79804740046558,5.87664942117565 L88.81306664735024,5.334162546040446" fill="yellow" fill-opacity="0.6" stroke="black" stroke-width="1" />
<path d="M86.7273736698946,-7.9556075694796755 L88.79804740046558,-5.87664942117565 L88.81306664735024,-5.334162546040446" fill="brown" fill-opacity="0.6" stroke="black" stroke-width="1" />
<path d="M88.79804740046558,5.87664942117565 L88.81306664735024,5.334162546040446 L90.32494221438012,4.952540762043987" fill="yellow" fill-opacity="0.6" stroke="black" stroke-width="1" />
<path d="M88.79804740046558,-5.87664942117565 L88.81306664735024,-5.334162546040446 L90.32494221438012,-4.952540762043987" fill="red" fill-opacity="0.6" stroke="black" stroke-width="1" />
<path d="M88.81306664735024,5.334162546040446 L90.32494221438012,4.952540762043987 L91.69672825573494,4.907628390263256" fill="blue" fill-opacity="0.6" stroke="black" stroke-width="1" />
<path d="M88.81306664735024,-5.334162546040446 L90.32494221438012,-4.952540762043987 L91.69672825573494,-4.907628390263256" fill="orange" fill-opacity="0.6" stroke="black" stroke-width="1" />
<path d="M90.32494221438012,4.952540762043987 L91.69672825573494,4.907628390263256 L91.76771261960101,4.727258995131885" fill="green" fill-opacity="0.6" stroke="black" stroke-width="1" />
<path d="M90.32494221438012,-4.952540762043987 L91.69672825573494,-4.907628390263256 L91.76771261960101,-4.727258995131885" fill="blue" fill-opacity="0.6" stroke="black" stroke-width="1" />
<path d="M91.69672825573494,4.907628390263256 L91.76771261960101,4.727258995131885 L94.23074131141485,4.5726952670899434" fill="black" fill-opacity="0.6" stroke="black" stroke-width="1" />
<path d="M91.69672825573494,-4.907628390263256 L91.76771261960101,-4.727258995131885 L94.23074131141485,-4.5726952670899434" fill="black" fill-opacity="0.6" stroke="black" stroke-width="1" />
<path d="M91.76771261960101,4.727258995131885 L94.23074131141485,4.5726952670899434 L94.49100292689573,0.5837476915377862" fill="brown" fill-opacity="0.6" stroke="black" stroke-width="1" />
<path d="M91.76771261960101,-4.727258995131885 L94.23074131141485,-4.5726952670899434 L94.49100292689573,-0.5837476915377862" fill="green" fill-opacity="0.6" stroke="black" stroke-width="1" />
<path d="M94.23074131141485,4.5726952670899434 L94.49100292689573,0.5837476915377862 L95.0,5.0" fill="orange" fill-opacity="0.6" stroke="black" stroke-width="1" />
<path d="M94.23074131141485,-4.5726952670899434 L94.49100292689573,-0.5837476915377862 L95.0,-5.0" fill="yellow" fill-opacity="0.6" stroke="black" stroke-width="1" />
<path d="M94.49100292689573,0.5837476915377862 L95.0,5.0 L99.01048255792526,0.3892150990123133" fill="green" fill-opacity="0.6" stroke="black" stroke-width="1" />
<path d="M94.49100292689573,-0.5837476915377862 L95.0,-5.0 L99.01048255792526,-0.3892150990123133" fill="purple" fill-opacity="0.6" stroke="black" stroke-width="1" />
<path d="M95.0,5.0 L99.01048255792526,0.3892150990123133 L100.0,-0.0" fill="green" fill-opacity="0.6" stroke="black" stroke-width="1" />
<path d="M95.0,-5.0 L99.01048255792526,-0.3892150990123133 L100.0,-0.0" fill="brown" fill-opacity="0.6" stroke="black" stroke-width="1" />
<path d="M3.0,-50.0 L31.68802223271824,-40.58529136494248 L47.0,-50.0" fill="red" fill-opacity="0.6" stroke="black" stroke-width="1" />
<path d="M3.0,50.0 L31.68802223271824,40.58529136494248 L47.0,50.0" fill="black" fill-opacity="0.6" stroke="black" stroke-width="1" />
<path d="M3.0,50.0 L31.68802223271824,59.41470863505752 L47.0,50.0" fill="yellow" fill-opacity="0.6" stroke="black" stroke-width="1" />
<path d="M3.0,-50.0 L31.68802223271824,-59.41470863505752 L47.0,-50.0" fill="red" fill-opacity="0.6" stroke="black" stroke-width="1" />
<path d="M50.0,-50.0 L47.72591215257189,-49.50815040516516 L44.30620530134745,-48.71767880041056" fill="purple" fill-opacity="0.6" stroke="black" stroke-width="1" />
<path d="M50.0,50.0 L47.72591215257189,49.50815040516516 L44.30620530134745,48.71767880041056" fill="black" fill-opacity="0.6" stroke="black" stroke-width="1" />
<path d="M50.0,50.0 L47.72591215257189,50.49184959483484 L44.30620530134745,51.28232119958944" fill="red" fill-opacity="0.6" stroke="black" stroke-width="1" />
<path d="M50.0,-50.0 L47.72591215257189,-50.49184959483484 L44.30620530134745,-51.28232119958944" fill="red" fill-opacity="0.6" stroke="black" stroke-width="1" />
<path d="M47.72591215257189,-49.50815040516516 L44.30620530134745,-48.71767880041056 L38.803552516749896,-46.717778355331305" fill="orange" fill-opacity="0.6" stroke="black" stroke-width="1" />
<path d="M47.72591215257189,49.50815040516516 L44.30620530134745,48.71767880041056 L38.803552516749896,46.717778355331305" fill="blue" fill-opacity="0.6" stroke="black" stroke-width="1" />
<path d="M47.72591215257189,50.49184959483484 L44.30620530134745,51.28232119958944 L38.803552516749896,53.282221644668695" fill="purple" fill-opacity="0.6" stroke="black" stroke-width="1" />
<path d="M47.72591215257189,-50.49184959483484 L44.30620530134745,-51.28232119958944 L38.803552516749896,-53.282221644668695" fill="red" fill-opacity="0.6" stroke="black" stroke-width="1" />
<path d="M44.30620530134745,-48.71767880041056 L38.803552516749896,-46.717778355331305 L37.0,-37.0" fill="blue" fill-opacity="0.6" stroke="black" stroke-width="1" />
<path d="M44.30620530134745,48.71767880041056 L38.803552516749896,46.717778355331305 L37.0,37.0" fill="purple" fill-opacity="0.6" stroke="black" stroke-width="1" />
<path d="M44.30620530134745,51.28232119958944 L38.803552516749896,53.282221644668695 L37.0,63.0" fill="orange" fill-opacity="0.6" stroke="black" stroke-width="1" />
<path d="M44.30620530134745,-51.28232119958944 L38.803552516749896,-53.282221644668695 L37.0,-63.0" fill="yellow" fill-opacity="0.6" stroke="black" stroke-width="1" />
<path d="M36.0,-36.0 L26.838683422521974,-29.907038896966917 L26.365232186467107,-27.916586819673686" fill="brown" fill-opacity="0.6" stroke="black" stroke-width="1" />
<path d="M36.0,36.0 L26.838683422521974,29.907038896966917 L26.365232186467107,27.916586819673686" fill="blue" fill-opacity="0.6" stroke="black" stroke-width="1" />
<path d="M36.0,64.0 L26.838683422521974,70.09296110303308 L26.365232186467107,72.08341318032632" fill="green" fill-opacity="0.6" stroke="black" stroke-width="1" />
<path d="M36.0,-64.0 L26.838683422521974,-70.09296110303308 L26.365232186467107,-72.08341318032632" fill="green" fill-opacity="0.6" stroke="black" stroke-width="1" />
<path d="M26.838683422521974,-29.907038896966917 L26.365232186467107,-27.916586819673686 L15.231019064509056,-18.626720460909457" fill="pink" fill-opacity="0.6" stroke="black" stroke-width="1" />
<path d="M26.838683422521974,29.907038896966917 L26.365232186467107,27.916586819673686 L15.231019064509056,18.626720460909457" fill="purple" fill-opacity="0.6" stroke="black" stroke-width="1" />
<path d="M26.838683422521974,70.09296110303308 L26.365232186467107,72.08341318032632 L15.231019064509056,81.37327953909055" fill="green" fill-opacity="0.6" stroke="black" stroke-width="1" />
<path d="M26.838683422521974,-70.09296110303308 L26.365232186467107,-72.08341318032632 L15.231019064509056,-81.37327953909055" fill="orange" fill-opacity="0.6" stroke="black" stroke-width="1" />
<path d="M26.365232186467107,-27.916586819673686 L15.231019064509056,-18.626720460909457 L14.941067641950989,-18.085029867984286" fill="red" fill-opacity="0.6" stroke="black" stroke-width="1" />
<path d="M26.365232186467107,27.916586819673686 L15.231019064509056,18.626720460909457 L14.941067641950989,18.085029867984286" fill="black" fill-opacity="0.6" stroke="black" stroke-width="1" />
<path d="M26.365232186467107,72.08341318032632 L15.231019064509056,81.37327953909055 L14.941067641950989,81.91497013201571" fill="yellow" fill-opacity="0.6" stroke="black" stroke-width="1" />
<path d="M26.365232186467107,-72.08341318032632 L15.231019064509056,-81.37327953909055 L14.941067641950989,-81.91497013201571" fill="brown" fill-opacity="0.6" stroke="black" stroke-width="1" />
<path d="M15.231019064509056,-18.626720460909457 L14.941067641950989,-18.085029867984286 L9.615055057002575,-15.590484821295497" fill="purple" fill-opacity="0.6" stroke="black" stroke-width="1" />
<path d="M15.231019064509056,18.626720460909457 L14.941067641950989,18.085029867984286 L9.615055057002575,15.590484821295497" fill="black" fill-opacity="0.6" stroke="black" stroke-width="1" />
<path d="M15.231019064509056,81.37327953909055 L14.941067641950989,81.91497013201571 L9.615055057002575,84.40951517870451" fill="pink" fill-opacity="0.6" stroke="black" stroke-width="1" />
<path d="M15.231019064509056,-81.37327953909055 L14.941067641950989,-81.91497013201571 L9.615055057002575,-84.40951517870451" fill="brown" fill-opacity="0.6" stroke="black" stroke-width="1" />
<path d="M14.941067641950989,-18.085029867984286 L9.615055057002575,-15.590484821295497 L7.9556075694796755,-13.272626330105403" fill="yellow" fill-opacity="0.6" stroke="black" stroke-width="1" />
<path d="M14.941067641950989,18.085029867984286 L9.615055057002575,15.590484821295497 L7.9556075694796755,13.272626330105403" fill="green" fill-opacity="0.6" stroke="black" stroke-width="1" />
<path d="M14.941067641950989,81.91497013201571 L9.615055057002575,84.40951517870451 L7.9556075694796755,86.7273736698946" fill="brown" fill-opacity="0.6" stroke="black" stroke-width="1" />
<path d="M14.941067641950989,-81.91497013201571 L9.615055057002575,-84.40951517870451 L7.9556075694796755,-86.7273736698946" fill="green" fill-opacity="0.6" stroke="black" stroke-width="1" />
<path d="M9.615055057002575,-15.590484821295497 L7.9556075694796755,-13.272626330105403 L5.87664942117565,-11.201952599534431" fill="green" fill-opacity="0.6" stroke="black" stroke-width="1" />
<path d="M9.615055057002575,15.590484821295497 L7.9556075694796755,13.272626330105403 L5.87664942117565,11.201952599534431" fill="purple" fill-opacity="0.6" stroke="black" stroke-width="1" />
<path d="M9.615055057002575,84.40951517870451 L7.9556075694796755,86.7273736698946 L5.87664942117565,88.79804740046558" fill="green" fill-opacity="0.6" stroke="black" stroke-width="1" />
<path d="M9.615055057002575,-84.40951517870451 L7.9556075694796755,-86.7273736698946 L5.87664942117565,-88.79804740046558" fill="black" fill-opacity="0.6" stroke="black" stroke-width="1" />
<path d="M7.9556075694796755,-13.272626330105403 L5.87664942117565,-11.201952599534431 L5.334162546040446,-11.186933352649763" fill="blue" fill-opacity="0.6" stroke="black" stroke-width="1" />
<path d="M7.9556075694796755,13.272626330105403 L5.87664942117565,11.201952599534431 L5.334162546040446,11.186933352649763" fill="blue" fill-opacity="0.6" stroke="black" stroke-width="1" />
<path d="M7.9556075694796755,86.7273736698946 L5.87664942117565,88.79804740046558 L5.334162546040446,88.81306664735024" fill="red" fill-opacity="0.6" stroke="black" stroke-width="1" />
<path d="M7.9556075694796755,-86.7273736698946 L5.87664942117565,-88.79804740046558 L5.334162546040446,-88.81306664735024" fill="yellow" fill-opacity="0.6" stroke="black" stroke-width="1" />
<path d="M5.87664942117565,-11.201952599534431 L5.334162546040446,-11.186933352649763 L4.952540762043987,-9.675057785619888" fill="orange" fill-opacity="0.6" stroke="black" stroke-width="1" />
<path d="M5.87664942117565,11.201952599534431 L5.334162546040446,11.186933352649763 L4.952540762043987,9.675057785619888" fill="pink" fill-opacity="0.6" stroke="black" stroke-width="1" />
<path d="M5.87664942117565,88.79804740046558 L5.334162546040446,88.81306664735024 L4.952540762043987,90.32494221438012" fill="green" fill-opacity="0.6" stroke="black" stroke-width="1" />
<path d="M5.87664942117565,-88.79804740046558 L5.334162546040446,-88.81306664735024 L4.952540762043987,-90.32494221438012" fill="orange" fill-opacity="0.6" stroke="black" stroke-width="1" />
<path d="M5.334162546040446,-11.186933352649763 L4.952540762043987,-9.675057785619888 L4.907628390263256,-8.303271744265068" fill="brown" fill-opacity="0.6" stroke="black" stroke-width="1" />
<path d="M5.334162546040446,11.186933352649763 L4.952540762043987,9.675057785619888 L4.907628390263256,8.303271744265068" fill="blue" fill-opacity="0.6" stroke="black" stroke-width="1" />
<path d="M5.334162546040446,88.81306664735024 L4.952540762043987,90.32494221438012 L4.907628390263256,91.69672825573494" fill="orange" fill-opacity="0.6" stroke="black" stroke-width="1" />
<path d="M5.334162546040446,-88.81306664735024 L4.952540762043987,-90.32494221438012 L4.907628390263256,-91.69672825573494" fill="red" fill-opacity="0.6" stroke="black" stroke-width="1" />
<path d="M4.952540762043987,-9.675057785619888 L4.907628390263256,-8.303271744265068 L4.727258995131885,-8.232287380398983" fill="pink" fill-opacity="0.6" stroke="black" stroke-width="1" />
<path d="M4.952540762043987,9.675057785619888 L4.907628390263256,8.303271744265068 L4.727258995131885,8.232287380398983" fill="purple" fill-opacity="0.6" stroke="black" stroke-width="1" />
<path d="M4.952540762043987,90.32494221438012 L4.907628390263256,91.69672825573494 L4.727258995131885,91.76771261960101" fill="yellow" fill-opacity="0.6" stroke="black" stroke-width="1" />
<path d="M4.952540762043987,-90.32494221438012 L4.907628390263256,-91.69672825573494 L4.727258995131885,-91.76771261960101" fill="brown" fill-opacity="0.6" stroke="black" stroke-width="1" />
<path d="M4.907628390263256,-8.303271744265068 L4.727258995131885,-8.232287380398983 L4.5726952670899434,-5.769258688585144" fill="green" fill-opacity="0.6" stroke="black" stroke-width="1" />
<path d="M4.907628390263256,8.303271744265068 L4.727258995131885,8.232287380398983 L4.5726952670899434,5.769258688585144" fill="green" fill-opacity="0.6" stroke="black" stroke-width="1" />
<path d="M4.907628390263256,91.69672825573494 L4.727258995131885,91.76771261960101 L4.5726952670899434,94.23074131141485" fill="purple" fill-opacity="0.6" stroke="black" stroke-width="1" />
<path d="M4.907628390263256,-91.69672825573494 L4.727258995131885,-91.76771261960101 L4.5726952670899434,-94.23074131141485" fill="yellow" fill-opacity="0.6" stroke="black" stroke-width="1" />
<path d="M4.727258995131885,-8.232287380398983 L4.5726952670899434,-5.769258688585144 L0.5837476915377862,-5.508997073104271" fill="green" fill-opacity="0.6" stroke="black" stroke-width="1" />
<path d="M4.727258995131885,8.232287380398983 L4.5726952670899434,5.769258688585144 L0.5837476915377862,5.508997073104271" fill="purple" fill-opacity="0.6" stroke="black" stroke-width="1" />
<path d="M4.727258995131885,91.76771261960101 L4.5726952670899434,94.23074131141485 L0.5837476915377862,94.49100292689573" fill="yellow" fill-opacity="0.6" stroke="black" stroke-width="1" />
<path d="M4.727258995131885,-91.76771261960101 L4.5726952670899434,-94.23074131141485 L0.5837476915377862,-94.49100292689573" fill="green" fill-opacity="0.6" stroke="black" stroke-width="1" />
<path d="M4.5726952670899434,-5.769258688585144 L0.5837476915377862,-5.508997073104271 L5.0,-5.0" fill="purple" fill-opacity="0.6" stroke="black" stroke-width="1" />
<path d="M4.5726952670899434,5.769258688585144 L0.5837476915377862,5.508997073104271 L5.0,5.0" fill="blue" fill-opacity="0.6" stroke="black" stroke-width="1" />
<path d="M4.5726952670899434,94.23074131141485 L0.5837476915377862,94.49100292689573 L5.0,95.0" fill="green" fill-opacity="0.6" stroke="black" stroke-width="1" />
<path d="M4.5726952670899434,-94.23074131141485 L0.5837476915377862,-94.49100292689573 L5.0,-95.0" fill="blue" fill-opacity="0.6" stroke="black" stroke-width="1" />
<path d="M5.0,-5.0 L0.3892150990123133,-0.9895174420747443 L0.0,-0.0" fill="black" fill-opacity="0.6" stroke="black" stroke-width="1" />
<path d="M5.0,5.0 L0.3892150990123133,0.9895174420747443 L0.0,-0.0" fill="blue" fill-opacity="0.6" stroke="black" stroke-width="1" />
<path d="M5.0,95.0 L0.3892150990123133,99.01048255792526 L0.0,100.0" fill="pink" fill-opacity="0.6" stroke="black" stroke-width="1" />
<path d="M5.0,-95.0 L0.3892150990123133,-99.01048255792526 L0.0,-100.0" fill="brown" fill-opacity="0.6" stroke="black" stroke-width="1" />
<path d="M-3.0,50.0 L-31.68802223271824,59.41470863505752 L-47.0,50.0" fill="orange" fill-opacity="0.6" stroke="black" stroke-width="1" />
<path d="M-3.0,-50.0 L-31.68802223271824,-40.58529136494248 L-47.0,-50.0" fill="black" fill-opacity="0.6" stroke="black" stroke-width="1" />
<path d="M-3.0,50.0 L-31.68802223271824,40.58529136494248 L-47.0,50.0" fill="black" fill-opacity="0.6" stroke="black" stroke-width="1" />
<path d="M-3.0,-50.0 L-31.68802223271824,-59.41470863505752 L-47.0,-50.0" fill="brown" fill-opacity="0.6" stroke="black" stroke-width="1" />
<path d="M-50.0,50.0 L-47.72591215257189,50.49184959483484 L-44.30620530134745,51.28232119958944" fill="purple" fill-opacity="0.6" stroke="black" stroke-width="1" />
<path d="M-50.0,-50.0 L-47.72591215257189,-49.50815040516516 L-44.30620530134745,-48.71767880041056" fill="brown" fill-opacity="0.6" stroke="black" stroke-width="1" />
<path d="M-50.0,50.0 L-47.72591215257189,49.50815040516516 L-44.30620530134745,48.71767880041056" fill="purple" fill-opacity="0.6" stroke="black" stroke-width="1" />
<path d="M-50.0,-50.0 L-47.72591215257189,-50.49184959483484 L-44.30620530134745,-51.28232119958944" fill="red" fill-opacity="0.6" stroke="black" stroke-width="1" />
<path d="M-47.72591215257189,50.49184959483484 L-44.30620530134745,51.28232119958944 L-38.803552516749896,53.282221644668695" fill="orange" fill-opacity="0.6" stroke="black" stroke-width="1" />
<path d="M-47.72591215257189,-49.50815040516516 L-44.30620530134745,-48.71767880041056 L-38.803552516749896,-46.717778355331305" fill="red" fill-opacity="0.6" stroke="black" stroke-width="1" />
<path d="M-47.72591215257189,49.50815040516516 L-44.30620530134745,48.71767880041056 L-38.803552516749896,46.717778355331305" fill="orange" fill-opacity="0.6" stroke="black" stroke-width="1" />
<path d="M-47.72591215257189,-50.49184959483484 L-44.30620530134745,-51.28232119958944 L-38.803552516749896,-53.282221644668695" fill="black" fill-opacity="0.6" stroke="black" stroke-width="1" />
<path d="M-44.30620530134745,51.28232119958944 L-38.803552516749896,53.282221644668695 L-37.0,63.0" fill="red" fill-opacity="0.6" stroke="black" stroke-width="1" />
<path d="M-44.30620530134745,-48.71767880041056 L-38.803552516749896,-46.717778355331305 L-37.0,-37.0" fill="blue" fill-opacity="0.6" stroke="black" stroke-width="1" />
<path d="M-44.30620530134745,48.71767880041056 L-38.803552516749896,46.717778355331305 L-37.0,37.0" fill="orange" fill-opacity="0.6" stroke="black" stroke-width="1" />
<path d="M-44.30620530134745,-51.28232119958944 L-38.803552516749896,-53.282221644668695 L-37.0,-63.0" fill="orange" fill-opacity="0.6" stroke="black" stroke-width="1" />
<path d="M-36.0,64.0 L-26.838683422521974,70.09296110303308 L-26.365232186467107,72.08341318032632" fill="brown" fill-opacity="0.6" stroke="black" stroke-width="1" />
<path d="M-36.0,-36.0 L-26.838683422521974,-29.907038896966917 L-26.365232186467107,-27.916586819673686" fill="blue" fill-opacity="0.6" stroke="black" stroke-width="1" />
<path d="M-36.0,36.0 L-26.838683422521974,29.907038896966924 L-26.365232186467107,27.916586819673682" fill="pink" fill-opacity="0.6" stroke="black" stroke-width="1" />
<path d="M-36.0,-64.0 L-26.838683422521974,-70.09296110303308 L-26.365232186467107,-72.08341318032632" fill="red" fill-opacity="0.6" stroke="black" stroke-width="1" />
<path d="M-26.838683422521974,70.09296110303308 L-26.365232186467107,72.08341318032632 L-15.231019064509056,81.37327953909055" fill="black" fill-opacity="0.6" stroke="black" stroke-width="1" />
<path d="M-26.838683422521974,-29.907038896966917 L-26.365232186467107,-27.916586819673686 L-15.231019064509056,-18.626720460909457" fill="pink" fill-opacity="0.6" stroke="black" stroke-width="1" />
<path d="M-26.838683422521974,29.907038896966924 L-26.365232186467107,27.916586819673682 L-15.231019064509056,18.626720460909453" fill="red" fill-opacity="0.6" stroke="black" stroke-width="1" />
<path d="M-26.838683422521974,-70.09296110303308 L-26.365232186467107,-72.08341318032632 L-15.231019064509056,-81.37327953909055" fill="orange" fill-opacity="0.6" stroke="black" stroke-width="1" />
<path d="M-26.365232186467107,72.08341318032632 L-15.231019064509056,81.37327953909055 L-14.941067641950989,81.91497013201571" fill="blue" fill-opacity="0.6" stroke="black" stroke-width="1" />
<path d="M-26.365232186467107,-27.916586819673686 L-15.231019064509056,-18.626720460909457 L-14.941067641950989,-18.085029867984286" fill="brown" fill-opacity="0.6" stroke="black" stroke-width="1" />
<path d="M-26.365232186467107,27.916586819673682 L-15.231019064509056,18.626720460909453 L-14.941067641950989,18.08502986798429" fill="pink" fill-opacity="0.6" stroke="black" stroke-width="1" />
<path d="M-26.365232186467107,-72.08341318032632 L-15.231019064509056,-81.37327953909055 L-14.941067641950989,-81.91497013201571" fill="blue" fill-opacity="0.6" stroke="black" stroke-width="1" />
<path d="M-15.231019064509056,81.37327953909055 L-14.941067641950989,81.91497013201571 L-9.615055057002575,84.40951517870451" fill="pink" fill-opacity="0.6" stroke="black" stroke-width="1" />
<path d="M-15.231019064509056,-18.626720460909457 L-14.941067641950989,-18.085029867984286 L-9.615055057002575,-15.590484821295497" fill="green" fill-opacity="0.6" stroke="black" stroke-width="1" />
<path d="M-15.231019064509056,18.626720460909453 L-14.941067641950989,18.08502986798429 L-9.615055057002575,15.59048482129549" fill="purple" fill-opacity="0.6" stroke="black" stroke-width="1" />
<path d="M-15.231019064509056,-81.37327953909055 L-14.941067641950989,-81.91497013201571 L-9.615055057002575,-84.40951517870451" fill="orange" fill-opacity="0.6" stroke="black" stroke-width="1" />
<path d="M-14.941067641950989,81.91497013201571 L-9.615055057002575,84.40951517870451 L-7.9556075694796755,86.7273736698946" fill="orange" fill-opacity="0.6" stroke="black" stroke-width="1" />
<path d="M-14.941067641950989,-18.085029867984286 L-9.615055057002575,-15.590484821295497 L-7.9556075694796755,-13.272626330105403" fill="pink" fill-opacity="0.6" stroke="black" stroke-width="1" />
<path d="M-14.941067641950989,18.08502986798429 L-9.615055057002575,15.59048482129549 L-7.9556075694796755,13.272626330105396" fill="black" fill-opacity="0.6" stroke="black" stroke-width="1" />
<path d="M-14.941067641950989,-81.91497013201571 L-9.615055057002575,-84.40951517870451 L-7.9556075694796755,-86.7273736698946" fill="yellow" fill-opacity="0.6" stroke="black" stroke-width="1" />
<path d="M-9.615055057002575,84.40951517870451 L-7.9556075694796755,86.7273736698946 L-5.87664942117565,88.79804740046556" fill="green" fill-opacity="0.6" stroke="black" stroke-width="1" />
<path d="M-9.615055057002575,-15.590484821295497 L-7.9556075694796755,-13.272626330105403 L-5.87664942117565,-11.201952599534431" fill="black" fill-opacity="0.6" stroke="black" stroke-width="1" />
<path d="M-9.615055057002575,15.59048482129549 L-7.9556075694796755,13.272626330105396 L-5.87664942117565,11.201952599534437" fill="orange" fill-opacity="0.6" stroke="black" stroke-width="1" />
<path d="M-9.615055057002575,-84.40951517870451 L-7.9556075694796755,-86.7273736698946 L-5.87664942117565,-88.79804740046558" fill="brown" fill-opacity="0.6" stroke="black" stroke-width="1" />
<path d="M-7.9556075694796755,86.7273736698946 L-5.87664942117565,88.79804740046556 L-5.334162546040446,88.81306664735024" fill="brown" fill-opacity="0.6" stroke="black" stroke-width="1" />
<path d="M-7.9556075694796755,-13.272626330105403 L-5.87664942117565,-11.201952599534431 L-5.334162546040446,-11.186933352649763" fill="pink" fill-opacity="0.6" stroke="black" stroke-width="1" />
<path d="M-7.9556075694796755,13.272626330105396 L-5.87664942117565,11.201952599534437 L-5.334162546040446,11.18693335264976" fill="red" fill-opacity="0.6" stroke="black" stroke-width="1" />
<path d="M-7.9556075694796755,-86.7273736698946 L-5.87664942117565,-88.79804740046558 L-5.334162546040446,-88.81306664735024" fill="pink" fill-opacity="0.6" stroke="black" stroke-width="1" />
<path d="M-5.87664942117565,88.79804740046556 L-5.334162546040446,88.81306664735024 L-4.952540762043987,90.32494221438012" fill="blue" fill-opacity="0.6" stroke="black" stroke-width="1" />
<path d="M-5.87664942117565,-11.201952599534431 L-5.334162546040446,-11.186933352649763 L-4.952540762043987,-9.675057785619888" fill="green" fill-opacity="0.6" stroke="black" stroke-width="1" />
<path d="M-5.87664942117565,11.201952599534437 L-5.334162546040446,11.18693335264976 L-4.952540762043987,9.675057785619884" fill="red" fill-opacity="0.6" stroke="black" stroke-width="1" />
<path d="M-5.87664942117565,-88.79804740046558 L-5.334162546040446,-88.81306664735024 L-4.952540762043987,-90.32494221438012" fill="pink" fill-opacity="0.6" stroke="black" stroke-width="1" />
<path d="M-5.334162546040446,88.81306664735024 L-4.952540762043987,90.32494221438012 L-4.907628390263256,91.69672825573494" fill="brown" fill-opacity="0.6" stroke="black" stroke-width="1" />
<path d="M-5.334162546040446,-11.186933352649763 L-4.952540762043987,-9.675057785619888 L-4.907628390263256,-8.303271744265068" fill="blue" fill-opacity="0.6" stroke="black" stroke-width="1" />
<path d="M-5.334162546040446,11.18693335264976 L-4.952540762043987,9.675057785619884 L-4.907628390263256,8.30327174426506" fill="pink" fill-opacity="0.6" stroke="black" stroke-width="1" />
<path d="M-5.334162546040446,-88.81306664735024 L-4.952540762043987,-90.32494221438012 L-4.907628390263256,-91.69672825573494" fill="brown" fill-opacity="0.6" stroke="black" stroke-width="1" />
<path d="M-4.952540762043987,90.32494221438012 L-4.907628390263256,91.69672825573494 L-4.727258995131885,91.76771261960101" fill="brown" fill-opacity="0.6" stroke="black" stroke-width="1" />
<path d="M-4.952540762043987,-9.675057785619888 L-4.907628390263256,-8.303271744265068 L-4.727258995131885,-8.232287380398983" fill="purple" fill-opacity="0.6" stroke="black" stroke-width="1" />
<path d="M-4.952540762043987,9.675057785619884 L-4.907628390263256,8.30327174426506 L-4.727258995131885,8.232287380398986" fill="red" fill-opacity="0.6" stroke="black" stroke-width="1" />
<path d="M-4.952540762043987,-90.32494221438012 L-4.907628390263256,-91.69672825573494 L-4.727258995131885,-91.76771261960101" fill="red" fill-opacity="0.6" stroke="black" stroke-width="1" />
<path d="M-4.907628390263256,91.69672825573494 L-4.727258995131885,91.76771261960101 L-4.5726952670899434,94.23074131141486" fill="brown" fill-opacity="0.6" stroke="black" stroke-width="1" />
<path d="M-4.907628390263256,-8.303271744265068 L-4.727258995131885,-8.232287380398983 L-4.5726952670899434,-5.769258688585144" fill="brown" fill-opacity="0.6" stroke="black" stroke-width="1" />
<path d="M-4.907628390263256,8.30327174426506 L-4.727258995131885,8.232287380398986 L-4.5726952670899434,5.76925868858514" fill="pink" fill-opacity="0.6" stroke="black" stroke-width="1" />
<path d="M-4.907628390263256,-91.69672825573494 L-4.727258995131885,-91.76771261960101 L-4.5726952670899434,-94.23074131141485" fill="brown" fill-opacity="0.6" stroke="black" stroke-width="1" />
<path d="M-4.727258995131885,91.76771261960101 L-4.5726952670899434,94.23074131141486 L-0.5837476915377862,94.49100292689573" fill="black" fill-opacity="0.6" stroke="black" stroke-width="1" />
<path d="M-4.727258995131885,-8.232287380398983 L-4.5726952670899434,-5.769258688585144 L-0.5837476915377862,-5.508997073104271" fill="orange" fill-opacity="0.6" stroke="black" stroke-width="1" />
<path d="M-4.727258995131885,8.232287380398986 L-4.5726952670899434,5.76925868858514 L-0.5837476915377862,5.508997073104268" fill="blue" fill-opacity="0.6" stroke="black" stroke-width="1" />
<path d="M-4.727258995131885,-91.76771261960101 L-4.5726952670899434,-94.23074131141485 L-0.5837476915377862,-94.49100292689573" fill="red" fill-opacity="0.6" stroke="black" stroke-width="1" />
<path d="M-4.5726952670899434,94.23074131141486 L-0.5837476915377862,94.49100292689573 L-5.0,95.0" fill="black" fill-opacity="0.6" stroke="black" stroke-width="1" />
<path d="M-4.5726952670899434,-5.769258688585144 L-0.5837476915377862,-5.508997073104271 L-5.0,-5.0" fill="pink" fill-opacity="0.6" stroke="black" stroke-width="1" />
<path d="M-4.5726952670899434,5.76925868858514 L-0.5837476915377862,5.508997073104268 L-5.0,5.0" fill="orange" fill-opacity="0.6" stroke="black" stroke-width="1" />
<path d="M-4.5726952670899434,-94.23074131141485 L-0.5837476915377862,-94.49100292689573 L-5.0,-95.0" fill="red" fill-opacity="0.6" stroke="black" stroke-width="1" />
<path d="M-5.0,95.0 L-0.3892150990123133,99.01048255792526 L0.0,100.0" fill="brown" fill-opacity="0.6" stroke="black" stroke-width="1" />
<path d="M-5.0,-5.0 L-0.3892150990123133,-0.9895174420747443 L0.0,-0.0" fill="orange" fill-opacity="0.6" stroke="black" stroke-width="1" />
<path d="M-5.0,5.0 L-0.3892150990123133,0.9895174420747423 L0.0,-0.0" fill="yellow" fill-opacity="0.6" stroke="black" stroke-width="1" />
<path d="M-5.0,-95.0 L-0.3892150990123133,-99.01048255792526 L0.0,-100.0" fill="black" fill-opacity="0.6" stroke="black" stroke-width="1" />
<path d="M-50.0,-3.0 L-59.41470863505752,-31.68802223271824 L-50.0,-47.0" fill="yellow" fill-opacity="0.6" stroke="black" stroke-width="1" />
<path d="M-50.0,3.0 L-59.41470863505752,31.68802223271824 L-50.0,47.0" fill="purple" fill-opacity="0.6" stroke="black" stroke-width="1" />
<path d="M-50.0,-50.0 L-50.49184959483484,-47.72591215257189 L-51.28232119958944,-44.30620530134745" fill="green" fill-opacity="0.6" stroke="black" stroke-width="1" />
<path d="M-50.0,50.0 L-50.49184959483484,47.72591215257189 L-51.28232119958944,44.30620530134745" fill="blue" fill-opacity="0.6" stroke="black" stroke-width="1" />
<path d="M-50.49184959483484,-47.72591215257189 L-51.28232119958944,-44.30620530134745 L-53.282221644668695,-38.803552516749896" fill="brown" fill-opacity="0.6" stroke="black" stroke-width="1" />
<path d="M-50.49184959483484,47.72591215257189 L-51.28232119958944,44.30620530134745 L-53.282221644668695,38.803552516749896" fill="blue" fill-opacity="0.6" stroke="black" stroke-width="1" />
<path d="M-51.28232119958944,-44.30620530134745 L-53.282221644668695,-38.803552516749896 L-63.0,-37.0" fill="orange" fill-opacity="0.6" stroke="black" stroke-width="1" />
<path d="M-51.28232119958944,44.30620530134745 L-53.282221644668695,38.803552516749896 L-63.0,37.0" fill="green" fill-opacity="0.6" stroke="black" stroke-width="1" />
<path d="M-53.282221644668695,-38.803552516749896 L-63.0,-37.0 L-64.0,-36.0" fill="purple" fill-opacity="0.6" stroke="black" stroke-width="1" />
<path d="M-53.282221644668695,38.803552516749896 L-63.0,37.0 L-64.0,36.0" fill="purple" fill-opacity="0.6" stroke="black" stroke-width="1" />
<path d="M-63.0,-37.0 L-64.0,-36.0 L-70.09296110303308,-26.838683422521974" fill="yellow" fill-opacity="0.6" stroke="black" stroke-width="1" />
<path d="M-63.0,37.0 L-64.0,36.0 L-70.09296110303308,26.838683422521974" fill="green" fill-opacity="0.6" stroke="black" stroke-width="1" />
<path d="M-64.0,-36.0 L-70.09296110303308,-26.838683422521974 L-72.08341318032632,-26.365232186467107" fill="black" fill-opacity="0.6" stroke="black" stroke-width="1" />
<path d="M-64.0,36.0 L-70.09296110303308,26.838683422521974 L-72.08341318032632,26.365232186467107" fill="pink" fill-opacity="0.6" stroke="black" stroke-width="1" />
<path d="M-70.09296110303308,-26.838683422521974 L-72.08341318032632,-26.365232186467107 L-81.37327953909055,-15.231019064509056" fill="purple" fill-opacity="0.6" stroke="black" stroke-width="1" />
<path d="M-70.09296110303308,26.838683422521974 L-72.08341318032632,26.365232186467107 L-81.37327953909055,15.231019064509056" fill="red" fill-opacity="0.6" stroke="black" stroke-width="1" />
<path d="M-72.08341318032632,-26.365232186467107 L-81.37327953909055,-15.231019064509056 L-81.91497013201571,-14.941067641950989" fill="brown" fill-opacity="0.6" stroke="black" stroke-width="1" />
<path d="M-72.08341318032632,26.365232186467107 L-81.37327953909055,15.231019064509056 L-81.91497013201571,14.941067641950989" fill="black" fill-opacity="0.6" stroke="black" stroke-width="1" />
<path d="M-81.37327953909055,-15.231019064509056 L-81.91497013201571,-14.941067641950989 L-84.40951517870451,-9.615055057002575" fill="green" fill-opacity="0.6" stroke="black" stroke-width="1" />
<path d="M-81.37327953909055,15.231019064509056 L-81.91497013201571,14.941067641950989 L-84.40951517870451,9.615055057002575" fill="orange" fill-opacity="0.6" stroke="black" stroke-width="1" />
<path d="M-81.91497013201571,-14.941067641950989 L-84.40951517870451,-9.615055057002575 L-86.7273736698946,-7.9556075694796755" fill="black" fill-opacity="0.6" stroke="black" stroke-width="1" />
<path d="M-81.91497013201571,14.941067641950989 L-84.40951517870451,9.615055057002575 L-86.7273736698946,7.9556075694796755" fill="brown" fill-opacity="0.6" stroke="black" stroke-width="1" />
<path d="M-84.40951517870451,-9.615055057002575 L-86.7273736698946,-7.9556075694796755 L-88.79804740046558,-5.87664942117565" fill="purple" fill-opacity="0.6" stroke="black" stroke-width="1" />
<path d="M-84.40951517870451,9.615055057002575 L-86.7273736698946,7.9556075694796755 L-88.79804740046558,5.87664942117565" fill="blue" fill-opacity="0.6" stroke="black" stroke-width="1" />
<path d="M-86.7273736698946,-7.9556075694796755 L-88.79804740046558,-5.87664942117565 L-88.81306664735024,-5.334162546040446" fill="pink" fill-opacity="0.6" stroke="black" stroke-width="1" />
<path d="M-86.7273736698946,7.9556075694796755 L-88.79804740046558,5.87664942117565 L-88.81306664735024,5.334162546040446" fill="red" fill-opacity="0.6" stroke="black" stroke-width="1" />
<path d="M-88.79804740046558,-5.87664942117565 L-88.81306664735024,-5.334162546040446 L-90.32494221438012,-4.952540762043987" fill="brown" fill-opacity="0.6" stroke="black" stroke-width="1" />
<path d="M-88.79804740046558,5.87664942117565 L-88.81306664735024,5.334162546040446 L-90.32494221438012,4.952540762043987" fill="pink" fill-opacity="0.6" stroke="black" stroke-width="1" />
<path d="M-88.81306664735024,-5.334162546040446 L-90.32494221438012,-4.952540762043987 L-91.69672825573494,-4.907628390263256" fill="green" fill-opacity="0.6" stroke="black" stroke-width="1" />
<path d="M-88.81306664735024,5.334162546040446 L-90.32494221438012,4.952540762043987 L-91.69672825573494,4.907628390263256" fill="blue" fill-opacity="0.6" stroke="black" stroke-width="1" />
<path d="M-90.32494221438012,-4.952540762043987 L-91.69672825573494,-4.907628390263256 L-91.76771261960101,-4.727258995131885" fill="brown" fill-opacity="0.6" stroke="black" stroke-width="1" />
<path d="M-90.32494221438012,4.952540762043987 L-91.69672825573494,4.907628390263256 L-91.76771261960101,4.727258995131885" fill="black" fill-opacity="0.6" stroke="black" stroke-width="1" />
<path d="M-91.69672825573494,-4.907628390263256 L-91.76771261960101,-4.727258995131885 L-94.23074131141485,-4.5726952670899434" fill="yellow" fill-opacity="0.6" stroke="black" stroke-width="1" />
<path d="M-91.69672825573494,4.907628390263256 L-91.76771261960101,4.727258995131885 L-94.23074131141485,4.5726952670899434" fill="green" fill-opacity="0.6" stroke="black" stroke-width="1" />
<path d="M-91.76771261960101,-4.727258995131885 L-94.23074131141485,-4.5726952670899434 L-94.49100292689573,-0.5837476915377862" fill="blue" fill-opacity="0.6" stroke="black" stroke-width="1" />
<path d="M-91.76771261960101,4.727258995131885 L-94.23074131141485,4.5726952670899434 L-94.49100292689573,0.5837476915377862" fill="black" fill-opacity="0.6" stroke="black" stroke-width="1" />
<path d="M-94.23074131141485,-4.5726952670899434 L-94.49100292689573,-0.5837476915377862 L-95.0,-5.0" fill="red" fill-opacity="0.6" stroke="black" stroke-width="1" />
<path d="M-94.23074131141485,4.5726952670899434 L-94.49100292689573,0.5837476915377862 L-95.0,5.0" fill="brown" fill-opacity="0.6" stroke="black" stroke-width="1" />
<path d="M-94.49100292689573,-0.5837476915377862 L-95.0,-5.0 L-99.01048255792526,-0.3892150990123133" fill="black" fill-opacity="0.6" stroke="black" stroke-width="1" />
<path d="M-94.49100292689573,0.5837476915377862 L-95.0,5.0 L-99.01048255792526,0.3892150990123133" fill="black" fill-opacity="0.6" stroke="black" stroke-width="1" />
<path d="M-95.0,-5.0 L-99.01048255792526,-0.3892150990123133 L-100.0,-0.0" fill="pink" fill-opacity="0.6" stroke="black" stroke-width="1" />
<path d="M-95.0,5.0 L-99.01048255792526,0.3892150990123133 L-100.0,-0.0" fill="purple" fill-opacity="0.6" stroke="black" stroke-width="1" />
</svg>