<?xml version="1.0" encoding="UTF-8"?>
<svg xmlns="http://www.w3.org/2000/svg" xmlns:xlink="http://www.w3.org/1999/xlink"
     width="250" height="250" viewBox="-125.0 -125.0 250 250">
<defs>
</defs>
<path d="M14.0,86.0 L11.0,89.0 L1.24591074406184,93.15613483008335" fill-opacity="0" stroke="black" stroke-width="1" />
<path d="M14.0,-86.0 L11.0,-89.0 L1.24591074406184,-93.15613483008335" fill-opacity="0" stroke="black" stroke-width="1" />
<path d="M22.0,50.0 L44.0,56.0 L28.0,72.0" fill-opacity="0" stroke="black" stroke-width="1" />
<path d="M22.0,-50.0 L44.0,-56.0 L28.0,-72.0" fill-opacity="0" stroke="black" stroke-width="1" />
<path d="M44.0,56.0 L28.0,72.0 L14.0,86.0" fill-opacity="0" stroke="black" stroke-width="1" />
<path d="M44.0,-56.0 L28.0,-72.0 L14.0,-86.0" fill-opacity="0" stroke="black" stroke-width="1" />
<path d="M28.0,72.0 L14.0,86.0 L11.0,89.0" fill-opacity="0" stroke="black" stroke-width="1" />
<path d="M28.0,-72.0 L14.0,-86.0 L11.0,-89.0" fill-opacity="0" stroke="black" stroke-width="1" />
<path d="M11.0,-11.0 L6.843865169916652,-1.24591074406184 L1.5562027016754298,-0.2186648838232129" fill-opacity="0" stroke="black" stroke-width="1" />
<path d="M11.0,11.0 L6.843865169916652,1.24591074406184 L1.5562027016754298,0.2186648838232129" fill-opacity="0" stroke="black" stroke-width="1" />
<path d="M6.843865169916652,-1.24591074406184 L1.5562027016754298,-0.2186648838232129 L0.0,-0.0" fill-opacity="0" stroke="black" stroke-width="1" />
<path d="M6.843865169916652,1.24591074406184 L1.5562027016754298,0.2186648838232129 L0.0,-0.0" fill-opacity="0" stroke="black" stroke-width="1" />
<path d="M-14.0,86.0 L-11.0,89.0 L-1.24591074406184,93.15613483008335" fill-opacity="0" stroke="black" stroke-width="1" />
<path d="M-14.0,-86.0 L-11.0,-89.0 L-1.24591074406184,-93.15613483008335" fill-opacity="0" stroke="black" stroke-width="1" />
<path d="M-22.0,50.0 L-44.0,56.0 L-28.0,72.0" fill-opacity="0" stroke="black" stroke-width="1" />
<path d="M-22.0,-50.0 L-44.0,-56.0 L-28.0,-72.0" fill-opacity="0" stroke="black" stroke-width="1" />
<path d="M-44.0,56.0 L-28.0,72.0 L-14.0,86.0" fill-opacity="0" stroke="black" stroke-width="1" />
<path d="M-44.0,-56.0 L-28.0,-72.0 L-14.0,-86.0" fill-opacity="0" stroke="black" stroke-width="1" />
<path d="M-28.0,72.0 L-14.0,86.0 L-11.0,89.0" fill-opacity="0" stroke="black" stroke-width="1" />
<path d="M-28.0,-72.0 L-14.0,-86.0 L-11.0,-89.0" fill-opacity="0" stroke="black" stroke-width="1" />
<path d="M-11.0,-11.0 L-6.843865169916652,-1.24591074406184 L-1.5562027016754298,-0.2186648838232129" fill-opacity="0" stroke="black" stroke-width="1" />
<path d="M-11.0,11.0 L-6.843865169916652,1.24591074406184 L-1.5562027016754298,0.2186648838232129" fill-opacity="0" stroke="black" stroke-width="1" />
<path d="M-6.843865169916652,-1.24591074406184 L-1.5562027016754298,-0.2186648838232129 L0.0,-0.0" fill-opacity="0" stroke="black" stroke-width="1" />
<path d="M-6.843865169916652,1.24591074406184 L-1.5562027016754298,0.2186648838232129 L0.0,-0.0" fill-opacity="0" stroke="black" stroke-width="1" />
<path d="M86.0,14.0 L89.0,11.0 L93.15613483008335,1.24591074406184" fill-opacity="0" stroke="black" stroke-width="1" />
<path d="M86.0,-14.0 L89.0,-11.0 L93.15613483008335,-1.24591074406184" fill-opacity="0" stroke="black" stroke-width="1" />
<path d="M50.0,22.0 L56.0,44.0 L72.0,28.0" fill-opacity="0" stroke="black" stroke-width="1" />
<path d="M50.0,-22.0 L56.0,-44.0 L72.0,-28.0" fill-opacity="0" stroke="black" stroke-width="1" />
<path d="M56.0,44.0 L72.0,28.0 L86.0,14.0" fill-opacity="0" stroke="black" stroke-width="1" />
<path d="M56.0,-44.0 L72.0,-28.0 L86.0,-14.0" fill-opacity="0" stroke="black" stroke-width="1" />
<path d="M72.0,28.0 L86.0,14.0 L89.0,11.0" fill-opacity="0" stroke="black" stroke-width="1" />
<path d="M72.0,-28.0 L86.0,-14.0 L89.0,-11.0" fill-opacity="0" stroke="black" stroke-width="1" />
<path d="M89.0,11.0 L93.15613483008335,1.24591074406184 L98.44379729832457,0.2186648838232129" fill-opacity="0" stroke="black" stroke-width="1" />
<path d="M89.0,-11.0 L93.15613483008335,-1.24591074406184 L98.44379729832457,-0.2186648838232129" fill-opacity="0" stroke="black" stroke-width="1" />
<path d="M93.15613483008335,1.24591074406184 L98.44379729832457,0.2186648838232129 L100.0,-0.0" fill-opacity="0" stroke="black" stroke-width="1" />
<path d="M93.15613483008335,-1.24591074406184 L98.44379729832457,-0.2186648838232129 L100.0,-0.0" fill-opacity="0" stroke="black" stroke-width="1" />
<path d="M11.0,-11.0 L1.24591074406184,-6.843865169916652 L0.2186648838232129,-1.5562027016754298" fill-opacity="0" stroke="black" stroke-width="1" />
<path d="M11.0,11.0 L1.24591074406184,6.843865169916652 L0.2186648838232129,1.5562027016754298" fill-opacity="0" stroke="black" stroke-width="1" />
<path d="M11.0,89.0 L1.24591074406184,93.15613483008335 L0.2186648838232129,98.44379729832457" fill-opacity="0" stroke="black" stroke-width="1" />
<path d="M11.0,-89.0 L1.24591074406184,-93.15613483008335 L0.2186648838232129,-98.44379729832457" fill-opacity="0" stroke="black" stroke-width="1" />
<path d="M1.24591074406184,-6.843865169916652 L0.2186648838232129,-1.5562027016754298 L0.0,-0.0" fill-opacity="0" stroke="black" stroke-width="1" />
<path d="M1.24591074406184,6.843865169916652 L0.2186648838232129,1.5562027016754298 L0.0,-0.0" fill-opacity="0" stroke="black" stroke-width="1" />
<path d="M1.24591074406184,93.15613483008335 L0.2186648838232129,98.44379729832457 L0.0,100.0" fill-opacity="0" stroke="black" stroke-width="1" />
<path d="M1.24591074406184,-93.15613483008335 L0.2186648838232129,-98.44379729832457 L0.0,-100.0" fill-opacity="0" stroke="black" stroke-width="1" />
<path d="M-11.0,89.0 L-1.24591074406184,93.15613483008335 L-0.2186648838232129,98.44379729832457" fill-opacity="0" stroke="black" stroke-width="1" />
<path d="M-11.0,-11.0 L-1.24591074406184,-6.843865169916652 L-0.2186648838232129,-1.5562027016754298" fill-opacity="0" stroke="black" stroke-width="1" />
<path d="M-11.0,11.0 L-1.24591074406184,6.843865169916654 L-0.2186648838232129,1.5562027016754314" fill-opacity="0" stroke="black" stroke-width="1" />
<path d="M-11.0,-89.0 L-1.24591074406184,-93.15613483008335 L-0.2186648838232129,-98.44379729832457" fill-opacity="0" stroke="black" stroke-width="1" />
<path d="M-1.24591074406184,93.15613483008335 L-0.2186648838232129,98.44379729832457 L0.0,100.0" fill-opacity="0" stroke="black" stroke-width="1" />
<path d="M-1.24591074406184,-6.843865169916652 L-0.2186648838232129,-1.5562027016754298 L0.0,-0.0" fill-opacity="0" stroke="black" stroke-width="1" />
<path d="M-1.24591074406184,6.843865169916654 L-0.2186648838232129,1.5562027016754314 L0.0,-0.0" fill-opacity="0" stroke="black" stroke-width="1" />
<path d="M-1.24591074406184,-93.15613483008335 L-0.2186648838232129,-98.44379729832457 L0.0,-100.0" fill-opacity="0" stroke="black" stroke-width="1" />
<path d="M-86.0,-14.0 L-89.0,-11.0 L-93.15613483008335,-1.24591074406184" fill-opacity="0" stroke="black" stroke-width="1" />
<path d="M-86.0,14.0 L-89.0,11.0 L-93.15613483008335,1.24591074406184" fill-opacity="0" stroke="black" stroke-width="1" />
<path d="M-50.0,-22.0 L-56.0,-44.0 L-72.0,-28.0" fill-opacity="0" stroke="black" stroke-width="1" />
<path d="M-50.0,22.0 L-56.0,44.0 L-72.0,28.0" fill-opacity="0" stroke="black" stroke-width="1" />
<path d="M-56.0,-44.0 L-72.0,-28.0 L-86.0,-14.0" fill-opacity="0" stroke="black" stroke-width="1" />
<path d="M-56.0,44.0 L-72.0,28.0 L-86.0,14.0" fill-opacity="0" stroke="black" stroke-width="1" />
<path d="M-72.0,-28.0 L-86.0,-14.0 L-89.0,-11.0" fill-opacity="0" stroke="black" stroke-width="1" />
<path d="M-72.0,28.0 L-86.0,14.0 L-89.0,11.0" fill-opacity="0" stroke="black" stroke-width="1" />
<path d="M-89.0,-11.0 L-93.15613483008335,-1.24591074406184 L-98.44379729832457,-0.2186648838232129" fill-opacity="0" stroke="black" stroke-width="1" />
<path d="M-89.0,11.0 L-93.15613483008335,1.24591074406184 L-98.44379729832457,0.2186648838232129" fill-opacity="0" stroke="black" stroke-width="1" />
<path d="M-93.15613483008335,-1.24591074406184 L-98.44379729832457,-0.2186648838232129 L-100.0,-0.0" fill-opacity="0" stroke="black" stroke-width="1" />
<path d="M-93.15613483008335,1.24591074406184 L-98.44379729832457,0.2186648838232129 L-100.0,-0.0" fill-opacity="0" stroke="black" stroke-width="1" />
<circle cx="0" cy="-97" r="8" stroke-dasharray="39.653880605311166 10.611601852125524" stroke-dashoffset="-17.59291886010284" stroke="black" stroke-width="1" fill="white" fill-opacity="1" />
<circle cx="0" cy="-97" r="4" stroke="black" stroke-width="1" fill="white" fill-opacity="1" />
</svg>