<?xml version="1.0" encoding="UTF-8"?>
<svg xmlns="http://www.w3.org/2000/svg" xmlns:xlink="http://www.w3.org/1999/xlink"
     width="250" height="250" viewBox="-125.0 -125.0 250 250">
<defs>
</defs>
<path d="M4.0,-0.0 L11.290128484800698,-0.17064251562937116 L16.162354161637428,-0.8853045717916508" fill-opacity="0" stroke="black" stroke-width="1" />
<path d="M4.0,-0.0 L11.290128484800698,0.17064251562937116 L16.162354161637428,0.8853045717916508" fill-opacity="0" stroke="black" stroke-width="1" />
<path d="M11.290128484800698,-0.17064251562937116 L16.162354161637428,-0.8853045717916508 L23.0,-0.0" fill-opacity="0" stroke="black" stroke-width="1" />
<path d="M11.290128484800698,0.17064251562937116 L16.162354161637428,0.8853045717916508 L23.0,-0.0" fill-opacity="0" stroke="black" stroke-width="1" />
<path d="M50.0,50.0 L47.0,53.0 L45.0,55.0" fill-opacity="0" stroke="black" stroke-width="1" />
<path d="M50.0,-50.0 L47.0,-53.0 L45.0,-55.0" fill-opacity="0" stroke="black" stroke-width="1" />
<path d="M45.0,55.0 L44.0,56.0 L41.0,59.0" fill-opacity="0" stroke="black" stroke-width="1" />
<path d="M45.0,-55.0 L44.0,-56.0 L41.0,-59.0" fill-opacity="0" stroke="black" stroke-width="1" />
<path d="M44.0,56.0 L41.0,59.0 L40.0,60.0" fill-opacity="0" stroke="black" stroke-width="1" />
<path d="M44.0,-56.0 L41.0,-59.0 L40.0,-60.0" fill-opacity="0" stroke="black" stroke-width="1" />
<path d="M41.0,59.0 L40.0,60.0 L38.31425383652155,60.680567327490955" fill-opacity="0" stroke="black" stroke-width="1" />
<path d="M41.0,-59.0 L40.0,-60.0 L38.31425383652155,-60.680567327490955" fill-opacity="0" stroke="black" stroke-width="1" />
<path d="M40.0,-40.0 L39.319432672509045,-38.31425383652155 L5.0,-5.0" fill-opacity="0" stroke="black" stroke-width="1" />
<path d="M40.0,40.0 L39.319432672509045,38.31425383652155 L5.0,5.0" fill-opacity="0" stroke="black" stroke-width="1" />
<path d="M38.31425383652155,60.680567327490955 L5.0,95.0 L0.0,100.0" fill-opacity="0" stroke="black" stroke-width="1" />
<path d="M38.31425383652155,-60.680567327490955 L5.0,-95.0 L0.0,-100.0" fill-opacity="0" stroke="black" stroke-width="1" />
<path d="M-4.0,-0.0 L-11.290128484800698,-0.17064251562937116 L-16.162354161637428,-0.8853045717916508" fill-opacity="0" stroke="black" stroke-width="1" />
<path d="M-4.0,-0.0 L-11.290128484800698,0.17064251562937116 L-16.162354161637428,0.8853045717916508" fill-opacity="0" stroke="black" stroke-width="1" />
<path d="M-11.290128484800698,-0.17064251562937116 L-16.162354161637428,-0.8853045717916508 L-23.0,-0.0" fill-opacity="0" stroke="black" stroke-width="1" />
<path d="M-11.290128484800698,0.17064251562937116 L-16.162354161637428,0.8853045717916508 L-23.0,-0.0" fill-opacity="0" stroke="black" stroke-width="1" />
<path d="M-50.0,50.0 L-47.0,53.0 L-45.0,55.0" fill-opacity="0" stroke="black" stroke-width="1" />
<path d="M-50.0,-50.0 L-47.0,-53.0 L-45.0,-55.0" fill-opacity="0" stroke="black" stroke-width="1" />
<path d="M-45.0,55.0 L-44.0,56.0 L-41.0,59.0" fill-opacity="0" stroke="black" stroke-width="1" />
<path d="M-45.0,-55.0 L-44.0,-56.0 L-41.0,-59.0" fill-opacity="0" stroke="black" stroke-width="1" />
<path d="M-44.0,56.0 L-41.0,59.0 L-40.0,60.0" fill-opacity="0" stroke="black" stroke-width="1" />
<path d="M-44.0,-56.0 L-41.0,-59.0 L-40.0,-60.0" fill-opacity="0" stroke="black" stroke-width="1" />
<path d="M-41.0,59.0 L-40.0,60.0 L-38.31425383652155,60.680567327490955" fill-opacity="0" stroke="black" stroke-width="1" />
<path d="M-41.0,-59.0 L-40.0,-60.0 L-38.31425383652155,-60.680567327490955" fill-opacity="0" stroke="black" stroke-width="1" />
<path d="M-40.0,-40.0 L-39.319432672509045,-38.31425383652155 L-5.0,-5.0" fill-opacity="0" stroke="black" stroke-width="1" />
<path d="M-40.0,40.0 L-39.319432672509045,38.31425383652155 L-5.0,5.0" fill-opacity="0" stroke="black" stroke-width="1" />
<path d="M-38.31425383652155,60.680567327490955 L-5.0,95.0 L0.0,100.0" fill-opacity="0" stroke="black" stroke-width="1" />
<path d="M-38.31425383652155,-60.680567327490955 L-5.0,-95.0 L0.0,-100.0" fill-opacity="0" stroke="black" stroke-width="1" />
<path d="M96.0,-0.0 L88.7098715151993,0.17064251562937116 L83.83764583836258,0.8853045717916508" fill-opacity="0" stroke="black" stroke-width="1" />
<path d="M96.0,-0.0 L88.7098715151993,-0.17064251562937116 L83.83764583836258,-0.8853045717916508" fill-opacity="0" stroke="black" stroke-width="1" />
<path d="M88.7098715151993,0.17064251562937116 L83.83764583836258,0.8853045717916508 L77.0,-0.0" fill-opacity="0" stroke="black" stroke-width="1" />
<path d="M88.7098715151993,-0.17064251562937116 L83.83764583836258,-0.8853045717916508 L77.0,-0.0" fill-opacity="0" stroke="black" stroke-width="1" />
<path d="M50.0,50.0 L53.0,47.0 L55.0,45.0" fill-opacity="0" stroke="black" stroke-width="1" />
<path d="M50.0,-50.0 L53.0,-47.0 L55.0,-45.0" fill-opacity="0" stroke="black" stroke-width="1" />
<path d="M55.0,45.0 L56.0,44.0 L59.0,41.0" fill-opacity="0" stroke="black" stroke-width="1" />
<path d="M55.0,-45.0 L56.0,-44.0 L59.0,-41.0" fill-opacity="0" stroke="black" stroke-width="1" />
<path d="M56.0,44.0 L59.0,41.0 L60.0,40.0" fill-opacity="0" stroke="black" stroke-width="1" />
<path d="M56.0,-44.0 L59.0,-41.0 L60.0,-40.0" fill-opacity="0" stroke="black" stroke-width="1" />
<path d="M59.0,41.0 L60.0,40.0 L60.680567327490955,38.31425383652155" fill-opacity="0" stroke="black" stroke-width="1" />
<path d="M59.0,-41.0 L60.0,-40.0 L60.680567327490955,-38.31425383652155" fill-opacity="0" stroke="black" stroke-width="1" />
<path d="M60.0,40.0 L60.680567327490955,38.31425383652155 L95.0,5.0" fill-opacity="0" stroke="black" stroke-width="1" />
<path d="M60.0,-40.0 L60.680567327490955,-38.31425383652155 L95.0,-5.0" fill-opacity="0" stroke="black" stroke-width="1" />
<path d="M60.680567327490955,38.31425383652155 L95.0,5.0 L100.0,-0.0" fill-opacity="0" stroke="black" stroke-width="1" />
<path d="M60.680567327490955,-38.31425383652155 L95.0,-5.0 L100.0,-0.0" fill-opacity="0" stroke="black" stroke-width="1" />
<path d="M0.0,-4.0 L0.17064251562937116,-11.290128484800698 L0.8853045717916508,-16.162354161637428" fill-opacity="0" stroke="black" stroke-width="1" />
<path d="M0.0,4.0 L0.17064251562937116,11.290128484800698 L0.8853045717916508,16.162354161637428" fill-opacity="0" stroke="black" stroke-width="1" />
<path d="M0.0,96.0 L0.17064251562937116,88.7098715151993 L0.8853045717916508,83.83764583836258" fill-opacity="0" stroke="black" stroke-width="1" />
<path d="M0.0,-96.0 L0.17064251562937116,-88.7098715151993 L0.8853045717916508,-83.83764583836258" fill-opacity="0" stroke="black" stroke-width="1" />
<path d="M0.17064251562937116,-11.290128484800698 L0.8853045717916508,-16.162354161637428 L0.0,-23.0" fill-opacity="0" stroke="black" stroke-width="1" />
<path d="M0.17064251562937116,11.290128484800698 L0.8853045717916508,16.162354161637428 L0.0,23.0" fill-opacity="0" stroke="black" stroke-width="1" />
<path d="M0.17064251562937116,88.7098715151993 L0.8853045717916508,83.83764583836258 L0.0,77.0" fill-opacity="0" stroke="black" stroke-width="1" />
<path d="M0.17064251562937116,-88.7098715151993 L0.8853045717916508,-83.83764583836258 L0.0,-77.0" fill-opacity="0" stroke="black" stroke-width="1" />
<path d="M40.0,-40.0 L38.31425383652155,-39.319432672509045 L5.0,-5.0" fill-opacity="0" stroke="black" stroke-width="1" />
<path d="M40.0,40.0 L38.31425383652155,39.319432672509045 L5.0,5.0" fill-opacity="0" stroke="black" stroke-width="1" />
<path d="M40.0,60.0 L38.31425383652155,60.680567327490955 L5.0,95.0" fill-opacity="0" stroke="black" stroke-width="1" />
<path d="M40.0,-60.0 L38.31425383652155,-60.680567327490955 L5.0,-95.0" fill-opacity="0" stroke="black" stroke-width="1" />
<path d="M0.0,96.0 L-0.17064251562937116,88.7098715151993 L-0.8853045717916508,83.83764583836258" fill-opacity="0" stroke="black" stroke-width="1" />
<path d="M0.0,-4.0 L-0.17064251562937116,-11.290128484800698 L-0.8853045717916508,-16.162354161637428" fill-opacity="0" stroke="black" stroke-width="1" />
<path d="M0.0,4.0 L-0.17064251562937116,11.290128484800704 L-0.8853045717916508,16.162354161637424" fill-opacity="0" stroke="black" stroke-width="1" />
<path d="M0.0,-96.0 L-0.17064251562937116,-88.7098715151993 L-0.8853045717916508,-83.83764583836258" fill-opacity="0" stroke="black" stroke-width="1" />
<path d="M-0.17064251562937116,88.7098715151993 L-0.8853045717916508,83.83764583836258 L0.0,77.0" fill-opacity="0" stroke="black" stroke-width="1" />
<path d="M-0.17064251562937116,-11.290128484800698 L-0.8853045717916508,-16.162354161637428 L0.0,-23.0" fill-opacity="0" stroke="black" stroke-width="1" />
<path d="M-0.17064251562937116,11.290128484800704 L-0.8853045717916508,16.162354161637424 L0.0,23.0" fill-opacity="0" stroke="black" stroke-width="1" />
<path d="M-0.17064251562937116,-88.7098715151993 L-0.8853045717916508,-83.83764583836258 L0.0,-77.0" fill-opacity="0" stroke="black" stroke-width="1" />
<path d="M-40.0,60.0 L-38.31425383652155,60.680567327490955 L-5.0,95.0" fill-opacity="0" stroke="black" stroke-width="1" />
<path d="M-40.0,-40.0 L-38.31425383652155,-39.319432672509045 L-5.0,-5.0" fill-opacity="0" stroke="black" stroke-width="1" />
<path d="M-40.0,40.0 L-38.31425383652155,39.319432672509045 L-5.0,5.0" fill-opacity="0" stroke="black" stroke-width="1" />
<path d="M-40.0,-60.0 L-38.31425383652155,-60.680567327490955 L-5.0,-95.0" fill-opacity="0" stroke="black" stroke-width="1" />
<path d="M-96.0,-0.0 L-88.7098715151993,-0.17064251562937116 L-83.83764583836258,-0.8853045717916508" fill-opacity="0" stroke="black" stroke-width="1" />
<path d="M-96.0,-0.0 L-88.7098715151993,0.17064251562937116 L-83.83764583836258,0.8853045717916508" fill-opacity="0" stroke="black" stroke-width="1" />
<path d="M-88.7098715151993,-0.17064251562937116 L-83.83764583836258,-0.8853045717916508 L-77.0,-0.0" fill-opacity="0" stroke="black" stroke-width="1" />
<path d="M-88.7098715151993,0.17064251562937116 L-83.83764583836258,0.8853045717916508 L-77.0,-0.0" fill-opacity="0" stroke="black" stroke-width="1" />
<path d="M-50.0,-50.0 L-53.0,-47.0 L-55.0,-45.0" fill-opacity="0" stroke="black" stroke-width="1" />
<path d="M-50.0,50.0 L-53.0,47.0 L-55.0,45.0" fill-opacity="0" stroke="black" stroke-width="1" />
<path d="M-55.0,-45.0 L-56.0,-44.0 L-59.0,-41.0" fill-opacity="0" stroke="black" stroke-width="1" />
<path d="M-55.0,45.0 L-56.0,44.0 L-59.0,41.0" fill-opacity="0" stroke="black" stroke-width="1" />
<path d="M-56.0,-44.0 L-59.0,-41.0 L-60.0,-40.0" fill-opacity="0" stroke="black" stroke-width="1" />
<path d="M-56.0,44.0 L-59.0,41.0 L-60.0,40.0" fill-opacity="0" stroke="black" stroke-width="1" />
<path d="M-59.0,-41.0 L-60.0,-40.0 L-60.680567327490955,-38.31425383652155" fill-opacity="0" stroke="black" stroke-width="1" />
<path d="M-59.0,41.0 L-60.0,40.0 L-60.680567327490955,38.31425383652155" fill-opacity="0" stroke="black" stroke-width="1" />
<path d="M-60.0,-40.0 L-60.680567327490955,-38.31425383652155 L-95.0,-5.0" fill-opacity="0" stroke="black" stroke-width="1" />
<path d="M-60.0,40.0 L-60.680567327490955,38.31425383652155 L-95.0,5.0" fill-opacity="0" stroke="black" stroke-width="1" />
<path d="M-60.680567327490955,-38.31425383652155 L-95.0,-5.0 L-100.0,-0.0" fill-opacity="0" stroke="black" stroke-width="1" />
<path d="M-60.680567327490955,38.31425383652155 L-95.0,5.0 L-100.0,-0.0" fill-opacity="0" stroke="black" stroke-width="1" />
<circle cx="0" cy="-97" r="8" stroke-dasharray="39.653880605311166 10.611601852125524" stroke-dashoffset="-17.59291886010284" stroke="black" stroke-width="1" fill="white" fill-opacity="1" />
<circle cx="0" cy="-97" r="4" stroke="black" stroke-width="1" fill="white" fill-opacity="1" />
</svg>