<?xml version="1.0" encoding="UTF-8"?>
<svg xmlns="http://www.w3.org/2000/svg" xmlns:xlink="http://www.w3.org/1999/xlink"
     width="250" height="250" viewBox="-125.0 -125.0 250 250">
<defs>
</defs>
<path d="M5.0,-0.0 L14.709383526634777,-2.3996631971442737 L17.948672804930467,-4.7032192145134735" fill-opacity="0" stroke="black" stroke-width="1" />
<path d="M5.0,-0.0 L14.709383526634777,2.3996631971442737 L17.948672804930467,4.7032192145134735" fill-opacity="0" stroke="black" stroke-width="1" />
<path d="M14.709383526634777,-2.3996631971442737 L17.948672804930467,-4.7032192145134735 L18.0,-0.0" fill-opacity="0" stroke="black" stroke-width="1" />
<path d="M14.709383526634777,2.3996631971442737 L17.948672804930467,4.7032192145134735 L18.0,-0.0" fill-opacity="0" stroke="black" stroke-width="1" />
<path d="M18.0,-0.0 L19.674735305197615,-6.129322761357721 L20.36793511078202,-6.3915669802606905" fill-opacity="0" stroke="black" stroke-width="1" />
<path d="M18.0,-0.0 L19.674735305197615,6.129322761357721 L20.36793511078202,6.3915669802606905" fill-opacity="0" stroke="black" stroke-width="1" />
<path d="M19.674735305197615,-6.129322761357721 L20.36793511078202,-6.3915669802606905 L23.2758739918767,-10.141506909247225" fill-opacity="0" stroke="black" stroke-width="1" />
<path d="M19.674735305197615,6.129322761357721 L20.36793511078202,6.3915669802606905 L23.2758739918767,10.141506909247225" fill-opacity="0" stroke="black" stroke-width="1" />
<path d="M20.36793511078202,-6.3915669802606905 L23.2758739918767,-10.141506909247225 L30.0,-0.0" fill-opacity="0" stroke="black" stroke-width="1" />
<path d="M20.36793511078202,6.3915669802606905 L23.2758739918767,10.141506909247225 L30.0,-0.0" fill-opacity="0" stroke="black" stroke-width="1" />
<path d="M50.0,-6.0 L39.98383278707105,-24.589442152250363 L43.51322005057994,-25.289397594928953" fill-opacity="0" stroke="black" stroke-width="1" />
<path d="M50.0,6.0 L39.98383278707105,24.589442152250363 L43.51322005057994,25.289397594928953" fill-opacity="0" stroke="black" stroke-width="1" />
<path d="M39.98383278707105,-24.589442152250363 L43.51322005057994,-25.289397594928953 L44.63747285593476,-26.636271452566042" fill-opacity="0" stroke="black" stroke-width="1" />
<path d="M39.98383278707105,24.589442152250363 L43.51322005057994,25.289397594928953 L44.63747285593476,26.636271452566042" fill-opacity="0" stroke="black" stroke-width="1" />
<path d="M43.51322005057994,-25.289397594928953 L44.63747285593476,-26.636271452566042 L45.56334652181755,-28.18323601898589" fill-opacity="0" stroke="black" stroke-width="1" />
<path d="M43.51322005057994,25.289397594928953 L44.63747285593476,26.636271452566042 L45.56334652181755,28.18323601898589" fill-opacity="0" stroke="black" stroke-width="1" />
<path d="M44.63747285593476,-26.636271452566042 L45.56334652181755,-28.18323601898589 L47.37723922996253,-32.94237314228167" fill-opacity="0" stroke="black" stroke-width="1" />
<path d="M44.63747285593476,26.636271452566042 L45.56334652181755,28.18323601898589 L47.37723922996253,32.94237314228167" fill-opacity="0" stroke="black" stroke-width="1" />
<path d="M45.56334652181755,-28.18323601898589 L47.37723922996253,-32.94237314228167 L48.646410792939264,-32.94659413761326" fill-opacity="0" stroke="black" stroke-width="1" />
<path d="M45.56334652181755,28.18323601898589 L47.37723922996253,32.94237314228167 L48.646410792939264,32.94659413761326" fill-opacity="0" stroke="black" stroke-width="1" />
<path d="M47.37723922996253,-32.94237314228167 L48.646410792939264,-32.94659413761326 L50.0,-35.0" fill-opacity="0" stroke="black" stroke-width="1" />
<path d="M47.37723922996253,32.94237314228167 L48.646410792939264,32.94659413761326 L50.0,35.0" fill-opacity="0" stroke="black" stroke-width="1" />
<path d="M50.0,-35.0 L49.918903715506985,-36.225762765818146 L50.0,-41.0" fill-opacity="0" stroke="black" stroke-width="1" />
<path d="M50.0,35.0 L49.918903715506985,36.225762765818146 L50.0,41.0" fill-opacity="0" stroke="black" stroke-width="1" />
<path d="M50.0,50.0 L21.0,79.0 L15.0,85.0" fill-opacity="0" stroke="black" stroke-width="1" />
<path d="M50.0,-50.0 L21.0,-79.0 L15.0,-85.0" fill-opacity="0" stroke="black" stroke-width="1" />
<path d="M21.0,79.0 L15.0,85.0 L9.0,91.0" fill-opacity="0" stroke="black" stroke-width="1" />
<path d="M21.0,-79.0 L15.0,-85.0 L9.0,-91.0" fill-opacity="0" stroke="black" stroke-width="1" />
<path d="M15.0,85.0 L9.0,91.0 L2.362644717537743,92.71978733469216" fill-opacity="0" stroke="black" stroke-width="1" />
<path d="M15.0,-85.0 L9.0,-91.0 L2.362644717537743,-92.71978733469216" fill-opacity="0" stroke="black" stroke-width="1" />
<path d="M9.0,-9.0 L7.280212665307845,-2.362644717537743 L5.936590414372583,-1.3442087473153064" fill-opacity="0" stroke="black" stroke-width="1" />
<path d="M9.0,9.0 L7.280212665307845,2.362644717537743 L5.936590414372583,1.3442087473153064" fill-opacity="0" stroke="black" stroke-width="1" />
<path d="M7.280212665307845,-2.362644717537743 L5.936590414372583,-1.3442087473153064 L3.7669958224352875,-0.5466562100853695" fill-opacity="0" stroke="black" stroke-width="1" />
<path d="M7.280212665307845,2.362644717537743 L5.936590414372583,1.3442087473153064 L3.7669958224352875,0.5466562100853695" fill-opacity="0" stroke="black" stroke-width="1" />
<path d="M5.936590414372583,-1.3442087473153064 L3.7669958224352875,-0.5466562100853695 L0.0,-0.0" fill-opacity="0" stroke="black" stroke-width="1" />
<path d="M5.936590414372583,1.3442087473153064 L3.7669958224352875,0.5466562100853695 L0.0,-0.0" fill-opacity="0" stroke="black" stroke-width="1" />
<path d="M-5.0,-0.0 L-14.709383526634777,-2.3996631971442737 L-17.948672804930467,-4.7032192145134735" fill-opacity="0" stroke="black" stroke-width="1" />
<path d="M-5.0,-0.0 L-14.709383526634777,2.3996631971442737 L-17.948672804930467,4.7032192145134735" fill-opacity="0" stroke="black" stroke-width="1" />
<path d="M-14.709383526634777,-2.3996631971442737 L-17.948672804930467,-4.7032192145134735 L-18.0,-0.0" fill-opacity="0" stroke="black" stroke-width="1" />
<path d="M-14.709383526634777,2.3996631971442737 L-17.948672804930467,4.7032192145134735 L-18.0,-0.0" fill-opacity="0" stroke="black" stroke-width="1" />
<path d="M-18.0,-0.0 L-19.674735305197615,-6.129322761357721 L-20.36793511078202,-6.3915669802606905" fill-opacity="0" stroke="black" stroke-width="1" />
<path d="M-18.0,-0.0 L-19.674735305197615,6.129322761357721 L-20.36793511078202,6.3915669802606905" fill-opacity="0" stroke="black" stroke-width="1" />
<path d="M-19.674735305197615,-6.129322761357721 L-20.36793511078202,-6.3915669802606905 L-23.2758739918767,-10.141506909247225" fill-opacity="0" stroke="black" stroke-width="1" />
<path d="M-19.674735305197615,6.129322761357721 L-20.36793511078202,6.3915669802606905 L-23.2758739918767,10.141506909247225" fill-opacity="0" stroke="black" stroke-width="1" />
<path d="M-20.36793511078202,-6.3915669802606905 L-23.2758739918767,-10.141506909247225 L-30.0,-0.0" fill-opacity="0" stroke="black" stroke-width="1" />
<path d="M-20.36793511078202,6.3915669802606905 L-23.2758739918767,10.141506909247225 L-30.0,-0.0" fill-opacity="0" stroke="black" stroke-width="1" />
<path d="M-50.0,-6.0 L-39.98383278707105,-24.589442152250363 L-43.51322005057994,-25.289397594928953" fill-opacity="0" stroke="black" stroke-width="1" />
<path d="M-50.0,6.0 L-39.98383278707105,24.589442152250363 L-43.51322005057994,25.289397594928953" fill-opacity="0" stroke="black" stroke-width="1" />
<path d="M-39.98383278707105,-24.589442152250363 L-43.51322005057994,-25.289397594928953 L-44.63747285593476,-26.636271452566042" fill-opacity="0" stroke="black" stroke-width="1" />
<path d="M-39.98383278707105,24.589442152250363 L-43.51322005057994,25.289397594928953 L-44.63747285593476,26.636271452566042" fill-opacity="0" stroke="black" stroke-width="1" />
<path d="M-43.51322005057994,-25.289397594928953 L-44.63747285593476,-26.636271452566042 L-45.56334652181755,-28.18323601898589" fill-opacity="0" stroke="black" stroke-width="1" />
<path d="M-43.51322005057994,25.289397594928953 L-44.63747285593476,26.636271452566042 L-45.56334652181755,28.18323601898589" fill-opacity="0" stroke="black" stroke-width="1" />
<path d="M-44.63747285593476,-26.636271452566042 L-45.56334652181755,-28.18323601898589 L-47.37723922996253,-32.94237314228167" fill-opacity="0" stroke="black" stroke-width="1" />
<path d="M-44.63747285593476,26.636271452566042 L-45.56334652181755,28.18323601898589 L-47.37723922996253,32.94237314228167" fill-opacity="0" stroke="black" stroke-width="1" />
<path d="M-45.56334652181755,-28.18323601898589 L-47.37723922996253,-32.94237314228167 L-48.646410792939264,-32.94659413761326" fill-opacity="0" stroke="black" stroke-width="1" />
<path d="M-45.56334652181755,28.18323601898589 L-47.37723922996253,32.94237314228167 L-48.646410792939264,32.94659413761326" fill-opacity="0" stroke="black" stroke-width="1" />
<path d="M-47.37723922996253,-32.94237314228167 L-48.646410792939264,-32.94659413761326 L-50.0,-35.0" fill-opacity="0" stroke="black" stroke-width="1" />
<path d="M-47.37723922996253,32.94237314228167 L-48.646410792939264,32.94659413761326 L-50.0,35.0" fill-opacity="0" stroke="black" stroke-width="1" />
<path d="M-50.0,-35.0 L-49.918903715506985,-36.225762765818146 L-50.0,-41.0" fill-opacity="0" stroke="black" stroke-width="1" />
<path d="M-50.0,35.0 L-49.918903715506985,36.225762765818146 L-50.0,41.0" fill-opacity="0" stroke="black" stroke-width="1" />
<path d="M-50.0,50.0 L-21.0,79.0 L-15.0,85.0" fill-opacity="0" stroke="black" stroke-width="1" />
<path d="M-50.0,-50.0 L-21.0,-79.0 L-15.0,-85.0" fill-opacity="0" stroke="black" stroke-width="1" />
<path d="M-21.0,79.0 L-15.0,85.0 L-9.0,91.0" fill-opacity="0" stroke="black" stroke-width="1" />
<path d="M-21.0,-79.0 L-15.0,-85.0 L-9.0,-91.0" fill-opacity="0" stroke="black" stroke-width="1" />
<path d="M-15.0,85.0 L-9.0,91.0 L-2.362644717537743,92.71978733469216" fill-opacity="0" stroke="black" stroke-width="1" />
<path d="M-15.0,-85.0 L-9.0,-91.0 L-2.362644717537743,-92.71978733469216" fill-opacity="0" stroke="black" stroke-width="1" />
<path d="M-9.0,-9.0 L-7.280212665307845,-2.362644717537743 L-5.936590414372583,-1.3442087473153064" fill-opacity="0" stroke="black" stroke-width="1" />
<path d="M-9.0,9.0 L-7.280212665307845,2.362644717537743 L-5.936590414372583,1.3442087473153064" fill-opacity="0" stroke="black" stroke-width="1" />
<path d="M-7.280212665307845,-2.362644717537743 L-5.936590414372583,-1.3442087473153064 L-3.7669958224352875,-0.5466562100853695" fill-opacity="0" stroke="black" stroke-width="1" />
<path d="M-7.280212665307845,2.362644717537743 L-5.936590414372583,1.3442087473153064 L-3.7669958224352875,0.5466562100853695" fill-opacity="0" stroke="black" stroke-width="1" />
<path d="M-5.936590414372583,-1.3442087473153064 L-3.7669958224352875,-0.5466562100853695 L0.0,-0.0" fill-opacity="0" stroke="black" stroke-width="1" />
<path d="M-5.936590414372583,1.3442087473153064 L-3.7669958224352875,0.5466562100853695 L0.0,-0.0" fill-opacity="0" stroke="black" stroke-width="1" />
<path d="M95.0,-0.0 L85.29061647336522,2.3996631971442737 L82.05132719506953,4.7032192145134735" fill-opacity="0" stroke="black" stroke-width="1" />
<path d="M95.0,-0.0 L85.29061647336522,-2.3996631971442737 L82.05132719506953,-4.7032192145134735" fill-opacity="0" stroke="black" stroke-width="1" />
<path d="M85.29061647336522,2.3996631971442737 L82.05132719506953,4.7032192145134735 L82.0,-0.0" fill-opacity="0" stroke="black" stroke-width="1" />
<path d="M85.29061647336522,-2.3996631971442737 L82.05132719506953,-4.7032192145134735 L82.0,-0.0" fill-opacity="0" stroke="black" stroke-width="1" />
<path d="M82.0,-0.0 L80.32526469480239,6.129322761357721 L79.63206488921799,6.3915669802606905" fill-opacity="0" stroke="black" stroke-width="1" />
<path d="M82.0,-0.0 L80.32526469480239,-6.129322761357721 L79.63206488921799,-6.3915669802606905" fill-opacity="0" stroke="black" stroke-width="1" />
<path d="M80.32526469480239,6.129322761357721 L79.63206488921799,6.3915669802606905 L76.7241260081233,10.141506909247225" fill-opacity="0" stroke="black" stroke-width="1" />
<path d="M80.32526469480239,-6.129322761357721 L79.63206488921799,-6.3915669802606905 L76.7241260081233,-10.141506909247225" fill-opacity="0" stroke="black" stroke-width="1" />
<path d="M79.63206488921799,6.3915669802606905 L76.7241260081233,10.141506909247225 L70.0,-0.0" fill-opacity="0" stroke="black" stroke-width="1" />
<path d="M79.63206488921799,-6.3915669802606905 L76.7241260081233,-10.141506909247225 L70.0,-0.0" fill-opacity="0" stroke="black" stroke-width="1" />
<path d="M50.0,6.0 L60.01616721292895,24.589442152250363 L56.48677994942006,25.289397594928953" fill-opacity="0" stroke="black" stroke-width="1" />
<path d="M50.0,-6.0 L60.01616721292895,-24.589442152250363 L56.48677994942006,-25.289397594928953" fill-opacity="0" stroke="black" stroke-width="1" />
<path d="M60.01616721292895,24.589442152250363 L56.48677994942006,25.289397594928953 L55.36252714406524,26.636271452566042" fill-opacity="0" stroke="black" stroke-width="1" />
<path d="M60.01616721292895,-24.589442152250363 L56.48677994942006,-25.289397594928953 L55.36252714406524,-26.636271452566042" fill-opacity="0" stroke="black" stroke-width="1" />
<path d="M56.48677994942006,25.289397594928953 L55.36252714406524,26.636271452566042 L54.43665347818245,28.18323601898589" fill-opacity="0" stroke="black" stroke-width="1" />
<path d="M56.48677994942006,-25.289397594928953 L55.36252714406524,-26.636271452566042 L54.43665347818245,-28.18323601898589" fill-opacity="0" stroke="black" stroke-width="1" />
<path d="M55.36252714406524,26.636271452566042 L54.43665347818245,28.18323601898589 L52.62276077003747,32.94237314228167" fill-opacity="0" stroke="black" stroke-width="1" />
<path d="M55.36252714406524,-26.636271452566042 L54.43665347818245,-28.18323601898589 L52.62276077003747,-32.94237314228167" fill-opacity="0" stroke="black" stroke-width="1" />
<path d="M54.43665347818245,28.18323601898589 L52.62276077003747,32.94237314228167 L51.353589207060736,32.94659413761326" fill-opacity="0" stroke="black" stroke-width="1" />
<path d="M54.43665347818245,-28.18323601898589 L52.62276077003747,-32.94237314228167 L51.353589207060736,-32.94659413761326" fill-opacity="0" stroke="black" stroke-width="1" />
<path d="M52.62276077003747,32.94237314228167 L51.353589207060736,32.94659413761326 L50.0,35.0" fill-opacity="0" stroke="black" stroke-width="1" />
<path d="M52.62276077003747,-32.94237314228167 L51.353589207060736,-32.94659413761326 L50.0,-35.0" fill-opacity="0" stroke="black" stroke-width="1" />
<path d="M50.0,35.0 L50.081096284493015,36.225762765818146 L50.0,41.0" fill-opacity="0" stroke="black" stroke-width="1" />
<path d="M50.0,-35.0 L50.081096284493015,-36.225762765818146 L50.0,-41.0" fill-opacity="0" stroke="black" stroke-width="1" />
<path d="M50.0,50.0 L79.0,21.0 L85.0,15.0" fill-opacity="0" stroke="black" stroke-width="1" />
<path d="M50.0,-50.0 L79.0,-21.0 L85.0,-15.0" fill-opacity="0" stroke="black" stroke-width="1" />
<path d="M79.0,21.0 L85.0,15.0 L91.0,9.0" fill-opacity="0" stroke="black" stroke-width="1" />
<path d="M79.0,-21.0 L85.0,-15.0 L91.0,-9.0" fill-opacity="0" stroke="black" stroke-width="1" />
<path d="M85.0,15.0 L91.0,9.0 L92.71978733469216,2.362644717537743" fill-opacity="0" stroke="black" stroke-width="1" />
<path d="M85.0,-15.0 L91.0,-9.0 L92.71978733469216,-2.362644717537743" fill-opacity="0" stroke="black" stroke-width="1" />
<path d="M91.0,9.0 L92.71978733469216,2.362644717537743 L94.06340958562743,1.3442087473153064" fill-opacity="0" stroke="black" stroke-width="1" />
<path d="M91.0,-9.0 L92.71978733469216,-2.362644717537743 L94.06340958562743,-1.3442087473153064" fill-opacity="0" stroke="black" stroke-width="1" />
<path d="M92.71978733469216,2.362644717537743 L94.06340958562743,1.3442087473153064 L96.23300417756471,0.5466562100853695" fill-opacity="0" stroke="black" stroke-width="1" />
<path d="M92.71978733469216,-2.362644717537743 L94.06340958562743,-1.3442087473153064 L96.23300417756471,-0.5466562100853695" fill-opacity="0" stroke="black" stroke-width="1" />
<path d="M94.06340958562743,1.3442087473153064 L96.23300417756471,0.5466562100853695 L100.0,-0.0" fill-opacity="0" stroke="black" stroke-width="1" />
<path d="M94.06340958562743,-1.3442087473153064 L96.23300417756471,-0.5466562100853695 L100.0,-0.0" fill-opacity="0" stroke="black" stroke-width="1" />
<path d="M0.0,-5.0 L2.3996631971442737,-14.709383526634777 L4.7032192145134735,-17.948672804930467" fill-opacity="0" stroke="black" stroke-width="1" />
<path d="M0.0,5.0 L2.3996631971442737,14.709383526634777 L4.7032192145134735,17.948672804930467" fill-opacity="0" stroke="black" stroke-width="1" />
<path d="M0.0,95.0 L2.3996631971442737,85.29061647336522 L4.7032192145134735,82.05132719506953" fill-opacity="0" stroke="black" stroke-width="1" />
<path d="M0.0,-95.0 L2.3996631971442737,-85.29061647336522 L4.7032192145134735,-82.05132719506953" fill-opacity="0" stroke="black" stroke-width="1" />
<path d="M2.3996631971442737,-14.709383526634777 L4.7032192145134735,-17.948672804930467 L0.0,-18.0" fill-opacity="0" stroke="black" stroke-width="1" />
<path d="M2.3996631971442737,14.709383526634777 L4.7032192145134735,17.948672804930467 L0.0,18.0" fill-opacity="0" stroke="black" stroke-width="1" />
<path d="M2.3996631971442737,85.29061647336522 L4.7032192145134735,82.05132719506953 L0.0,82.0" fill-opacity="0" stroke="black" stroke-width="1" />
<path d="M2.3996631971442737,-85.29061647336522 L4.7032192145134735,-82.05132719506953 L0.0,-82.0" fill-opacity="0" stroke="black" stroke-width="1" />
<path d="M0.0,-18.0 L6.129322761357721,-19.674735305197615 L6.3915669802606905,-20.36793511078202" fill-opacity="0" stroke="black" stroke-width="1" />
<path d="M0.0,18.0 L6.129322761357721,19.674735305197615 L6.3915669802606905,20.36793511078202" fill-opacity="0" stroke="black" stroke-width="1" />
<path d="M0.0,82.0 L6.129322761357721,80.32526469480239 L6.3915669802606905,79.63206488921799" fill-opacity="0" stroke="black" stroke-width="1" />
<path d="M0.0,-82.0 L6.129322761357721,-80.32526469480239 L6.3915669802606905,-79.63206488921799" fill-opacity="0" stroke="black" stroke-width="1" />
<path d="M6.129322761357721,-19.674735305197615 L6.3915669802606905,-20.36793511078202 L10.141506909247225,-23.2758739918767" fill-opacity="0" stroke="black" stroke-width="1" />
<path d="M6.129322761357721,19.674735305197615 L6.3915669802606905,20.36793511078202 L10.141506909247225,23.2758739918767" fill-opacity="0" stroke="black" stroke-width="1" />
<path d="M6.129322761357721,80.32526469480239 L6.3915669802606905,79.63206488921799 L10.141506909247225,76.7241260081233" fill-opacity="0" stroke="black" stroke-width="1" />
<path d="M6.129322761357721,-80.32526469480239 L6.3915669802606905,-79.63206488921799 L10.141506909247225,-76.7241260081233" fill-opacity="0" stroke="black" stroke-width="1" />
<path d="M6.3915669802606905,-20.36793511078202 L10.141506909247225,-23.2758739918767 L0.0,-30.0" fill-opacity="0" stroke="black" stroke-width="1" />
<path d="M6.3915669802606905,20.36793511078202 L10.141506909247225,23.2758739918767 L0.0,30.0" fill-opacity="0" stroke="black" stroke-width="1" />
<path d="M6.3915669802606905,79.63206488921799 L10.141506909247225,76.7241260081233 L0.0,70.0" fill-opacity="0" stroke="black" stroke-width="1" />
<path d="M6.3915669802606905,-79.63206488921799 L10.141506909247225,-76.7241260081233 L0.0,-70.0" fill-opacity="0" stroke="black" stroke-width="1" />
<path d="M6.0,-50.0 L24.589442152250363,-39.98383278707105 L25.289397594928953,-43.51322005057994" fill-opacity="0" stroke="black" stroke-width="1" />
<path d="M6.0,50.0 L24.589442152250363,39.98383278707105 L25.289397594928953,43.51322005057994" fill-opacity="0" stroke="black" stroke-width="1" />
<path d="M6.0,50.0 L24.589442152250363,60.01616721292895 L25.289397594928953,56.48677994942006" fill-opacity="0" stroke="black" stroke-width="1" />
<path d="M6.0,-50.0 L24.589442152250363,-60.01616721292895 L25.289397594928953,-56.48677994942006" fill-opacity="0" stroke="black" stroke-width="1" />
<path d="M24.589442152250363,-39.98383278707105 L25.289397594928953,-43.51322005057994 L26.636271452566042,-44.63747285593476" fill-opacity="0" stroke="black" stroke-width="1" />
<path d="M24.589442152250363,39.98383278707105 L25.289397594928953,43.51322005057994 L26.636271452566042,44.63747285593476" fill-opacity="0" stroke="black" stroke-width="1" />
<path d="M24.589442152250363,60.01616721292895 L25.289397594928953,56.48677994942006 L26.636271452566042,55.36252714406524" fill-opacity="0" stroke="black" stroke-width="1" />
<path d="M24.589442152250363,-60.01616721292895 L25.289397594928953,-56.48677994942006 L26.636271452566042,-55.36252714406524" fill-opacity="0" stroke="black" stroke-width="1" />
<path d="M25.289397594928953,-43.51322005057994 L26.636271452566042,-44.63747285593476 L28.18323601898589,-45.56334652181755" fill-opacity="0" stroke="black" stroke-width="1" />
<path d="M25.289397594928953,43.51322005057994 L26.636271452566042,44.63747285593476 L28.18323601898589,45.56334652181755" fill-opacity="0" stroke="black" stroke-width="1" />
<path d="M25.289397594928953,56.48677994942006 L26.636271452566042,55.36252714406524 L28.18323601898589,54.43665347818245" fill-opacity="0" stroke="black" stroke-width="1" />
<path d="M25.289397594928953,-56.48677994942006 L26.636271452566042,-55.36252714406524 L28.18323601898589,-54.43665347818245" fill-opacity="0" stroke="black" stroke-width="1" />
<path d="M26.636271452566042,-44.63747285593476 L28.18323601898589,-45.56334652181755 L32.94237314228167,-47.37723922996253" fill-opacity="0" stroke="black" stroke-width="1" />
<path d="M26.636271452566042,44.63747285593476 L28.18323601898589,45.56334652181755 L32.94237314228167,47.37723922996253" fill-opacity="0" stroke="black" stroke-width="1" />
<path d="M26.636271452566042,55.36252714406524 L28.18323601898589,54.43665347818245 L32.94237314228167,52.62276077003747" fill-opacity="0" stroke="black" stroke-width="1" />
<path d="M26.636271452566042,-55.36252714406524 L28.18323601898589,-54.43665347818245 L32.94237314228167,-52.62276077003747" fill-opacity="0" stroke="black" stroke-width="1" />
<path d="M28.18323601898589,-45.56334652181755 L32.94237314228167,-47.37723922996253 L32.94659413761326,-48.646410792939264" fill-opacity="0" stroke="black" stroke-width="1" />
<path d="M28.18323601898589,45.56334652181755 L32.94237314228167,47.37723922996253 L32.94659413761326,48.646410792939264" fill-opacity="0" stroke="black" stroke-width="1" />
<path d="M28.18323601898589,54.43665347818245 L32.94237314228167,52.62276077003747 L32.94659413761326,51.353589207060736" fill-opacity="0" stroke="black" stroke-width="1" />
<path d="M28.18323601898589,-54.43665347818245 L32.94237314228167,-52.62276077003747 L32.94659413761326,-51.353589207060736" fill-opacity="0" stroke="black" stroke-width="1" />
<path d="M32.94237314228167,-47.37723922996253 L32.94659413761326,-48.646410792939264 L35.0,-50.0" fill-opacity="0" stroke="black" stroke-width="1" />
<path d="M32.94237314228167,47.37723922996253 L32.94659413761326,48.646410792939264 L35.0,50.0" fill-opacity="0" stroke="black" stroke-width="1" />
<path d="M32.94237314228167,52.62276077003747 L32.94659413761326,51.353589207060736 L35.0,50.0" fill-opacity="0" stroke="black" stroke-width="1" />
<path d="M32.94237314228167,-52.62276077003747 L32.94659413761326,-51.353589207060736 L35.0,-50.0" fill-opacity="0" stroke="black" stroke-width="1" />
<path d="M35.0,-50.0 L36.225762765818146,-49.918903715506985 L41.0,-50.0" fill-opacity="0" stroke="black" stroke-width="1" />
<path d="M35.0,50.0 L36.225762765818146,49.918903715506985 L41.0,50.0" fill-opacity="0" stroke="black" stroke-width="1" />
<path d="M35.0,50.0 L36.225762765818146,50.081096284493015 L41.0,50.0" fill-opacity="0" stroke="black" stroke-width="1" />
<path d="M35.0,-50.0 L36.225762765818146,-50.081096284493015 L41.0,-50.0" fill-opacity="0" stroke="black" stroke-width="1" />
<path d="M9.0,-9.0 L2.362644717537743,-7.280212665307845 L1.3442087473153064,-5.936590414372583" fill-opacity="0" stroke="black" stroke-width="1" />
<path d="M9.0,9.0 L2.362644717537743,7.280212665307845 L1.3442087473153064,5.936590414372583" fill-opacity="0" stroke="black" stroke-width="1" />
<path d="M9.0,91.0 L2.362644717537743,92.71978733469216 L1.3442087473153064,94.06340958562743" fill-opacity="0" stroke="black" stroke-width="1" />
<path d="M9.0,-91.0 L2.362644717537743,-92.71978733469216 L1.3442087473153064,-94.06340958562743" fill-opacity="0" stroke="black" stroke-width="1" />
<path d="M2.362644717537743,-7.280212665307845 L1.3442087473153064,-5.936590414372583 L0.5466562100853695,-3.7669958224352875" fill-opacity="0" stroke="black" stroke-width="1" />
<path d="M2.362644717537743,7.280212665307845 L1.3442087473153064,5.936590414372583 L0.5466562100853695,3.7669958224352875" fill-opacity="0" stroke="black" stroke-width="1" />
<path d="M2.362644717537743,92.71978733469216 L1.3442087473153064,94.06340958562743 L0.5466562100853695,96.23300417756471" fill-opacity="0" stroke="black" stroke-width="1" />
<path d="M2.362644717537743,-92.71978733469216 L1.3442087473153064,-94.06340958562743 L0.5466562100853695,-96.23300417756471" fill-opacity="0" stroke="black" stroke-width="1" />
<path d="M1.3442087473153064,-5.936590414372583 L0.5466562100853695,-3.7669958224352875 L0.0,-0.0" fill-opacity="0" stroke="black" stroke-width="1" />
<path d="M1.3442087473153064,5.936590414372583 L0.5466562100853695,3.7669958224352875 L0.0,-0.0" fill-opacity="0" stroke="black" stroke-width="1" />
<path d="M1.3442087473153064,94.06340958562743 L0.5466562100853695,96.23300417756471 L0.0,100.0" fill-opacity="0" stroke="black" stroke-width="1" />
<path d="M1.3442087473153064,-94.06340958562743 L0.5466562100853695,-96.23300417756471 L0.0,-100.0" fill-opacity="0" stroke="black" stroke-width="1" />
<path d="M0.0,95.0 L-2.3996631971442737,85.29061647336522 L-4.7032192145134735,82.05132719506953" fill-opacity="0" stroke="black" stroke-width="1" />
<path d="M0.0,-5.0 L-2.3996631971442737,-14.709383526634777 L-4.7032192145134735,-17.948672804930467" fill-opacity="0" stroke="black" stroke-width="1" />
<path d="M0.0,5.0 L-2.3996631971442737,14.709383526634781 L-4.7032192145134735,17.948672804930467" fill-opacity="0" stroke="black" stroke-width="1" />
<path d="M0.0,-95.0 L-2.3996631971442737,-85.29061647336522 L-4.7032192145134735,-82.05132719506953" fill-opacity="0" stroke="black" stroke-width="1" />
<path d="M-2.3996631971442737,85.29061647336522 L-4.7032192145134735,82.05132719506953 L0.0,82.0" fill-opacity="0" stroke="black" stroke-width="1" />
<path d="M-2.3996631971442737,-14.709383526634777 L-4.7032192145134735,-17.948672804930467 L0.0,-18.0" fill-opacity="0" stroke="black" stroke-width="1" />
<path d="M-2.3996631971442737,14.709383526634781 L-4.7032192145134735,17.948672804930467 L0.0,18.0" fill-opacity="0" stroke="black" stroke-width="1" />
<path d="M-2.3996631971442737,-85.29061647336522 L-4.7032192145134735,-82.05132719506953 L0.0,-82.0" fill-opacity="0" stroke="black" stroke-width="1" />
<path d="M0.0,82.0 L-6.129322761357721,80.32526469480239 L-6.3915669802606905,79.63206488921799" fill-opacity="0" stroke="black" stroke-width="1" />
<path d="M0.0,-18.0 L-6.129322761357721,-19.674735305197615 L-6.3915669802606905,-20.36793511078202" fill-opacity="0" stroke="black" stroke-width="1" />
<path d="M0.0,18.0 L-6.129322761357721,19.674735305197615 L-6.3915669802606905,20.367935110782014" fill-opacity="0" stroke="black" stroke-width="1" />
<path d="M0.0,-82.0 L-6.129322761357721,-80.32526469480239 L-6.3915669802606905,-79.63206488921799" fill-opacity="0" stroke="black" stroke-width="1" />
<path d="M-6.129322761357721,80.32526469480239 L-6.3915669802606905,79.63206488921799 L-10.141506909247225,76.7241260081233" fill-opacity="0" stroke="black" stroke-width="1" />
<path d="M-6.129322761357721,-19.674735305197615 L-6.3915669802606905,-20.36793511078202 L-10.141506909247225,-23.2758739918767" fill-opacity="0" stroke="black" stroke-width="1" />
<path d="M-6.129322761357721,19.674735305197615 L-6.3915669802606905,20.367935110782014 L-10.141506909247225,23.275873991876693" fill-opacity="0" stroke="black" stroke-width="1" />
<path d="M-6.129322761357721,-80.32526469480239 L-6.3915669802606905,-79.63206488921799 L-10.141506909247225,-76.7241260081233" fill-opacity="0" stroke="black" stroke-width="1" />
<path d="M-6.3915669802606905,79.63206488921799 L-10.141506909247225,76.7241260081233 L0.0,70.0" fill-opacity="0" stroke="black" stroke-width="1" />
<path d="M-6.3915669802606905,-20.36793511078202 L-10.141506909247225,-23.2758739918767 L0.0,-30.0" fill-opacity="0" stroke="black" stroke-width="1" />
<path d="M-6.3915669802606905,20.367935110782014 L-10.141506909247225,23.275873991876693 L0.0,30.0" fill-opacity="0" stroke="black" stroke-width="1" />
<path d="M-6.3915669802606905,-79.63206488921799 L-10.141506909247225,-76.7241260081233 L0.0,-70.0" fill-opacity="0" stroke="black" stroke-width="1" />
<path d="M-6.0,50.0 L-24.589442152250363,60.01616721292895 L-25.289397594928953,56.48677994942006" fill-opacity="0" stroke="black" stroke-width="1" />
<path d="M-6.0,-50.0 L-24.589442152250363,-39.98383278707105 L-25.289397594928953,-43.51322005057994" fill-opacity="0" stroke="black" stroke-width="1" />
<path d="M-6.0,50.0 L-24.589442152250363,39.98383278707105 L-25.289397594928953,43.51322005057994" fill-opacity="0" stroke="black" stroke-width="1" />
<path d="M-6.0,-50.0 L-24.589442152250363,-60.01616721292895 L-25.289397594928953,-56.48677994942006" fill-opacity="0" stroke="black" stroke-width="1" />
<path d="M-24.589442152250363,60.01616721292895 L-25.289397594928953,56.48677994942006 L-26.636271452566042,55.36252714406524" fill-opacity="0" stroke="black" stroke-width="1" />
<path d="M-24.589442152250363,-39.98383278707105 L-25.289397594928953,-43.51322005057994 L-26.636271452566042,-44.63747285593476" fill-opacity="0" stroke="black" stroke-width="1" />
<path d="M-24.589442152250363,39.98383278707105 L-25.289397594928953,43.51322005057994 L-26.636271452566042,44.63747285593476" fill-opacity="0" stroke="black" stroke-width="1" />
<path d="M-24.589442152250363,-60.01616721292895 L-25.289397594928953,-56.48677994942006 L-26.636271452566042,-55.36252714406524" fill-opacity="0" stroke="black" stroke-width="1" />
<path d="M-25.289397594928953,56.48677994942006 L-26.636271452566042,55.36252714406524 L-28.18323601898589,54.43665347818245" fill-opacity="0" stroke="black" stroke-width="1" />
<path d="M-25.289397594928953,-43.51322005057994 L-26.636271452566042,-44.63747285593476 L-28.18323601898589,-45.56334652181755" fill-opacity="0" stroke="black" stroke-width="1" />
<path d="M-25.289397594928953,43.51322005057994 L-26.636271452566042,44.63747285593476 L-28.18323601898589,45.56334652181755" fill-opacity="0" stroke="black" stroke-width="1" />
<path d="M-25.289397594928953,-56.48677994942006 L-26.636271452566042,-55.36252714406524 L-28.18323601898589,-54.43665347818245" fill-opacity="0" stroke="black" stroke-width="1" />
<path d="M-26.636271452566042,55.36252714406524 L-28.18323601898589,54.43665347818245 L-32.94237314228167,52.62276077003747" fill-opacity="0" stroke="black" stroke-width="1" />
<path d="M-26.636271452566042,-44.63747285593476 L-28.18323601898589,-45.56334652181755 L-32.94237314228167,-47.37723922996253" fill-opacity="0" stroke="black" stroke-width="1" />
<path d="M-26.636271452566042,44.63747285593476 L-28.18323601898589,45.56334652181755 L-32.94237314228167,47.37723922996253" fill-opacity="0" stroke="black" stroke-width="1" />
<path d="M-26.636271452566042,-55.36252714406524 L-28.18323601898589,-54.43665347818245 L-32.94237314228167,-52.62276077003747" fill-opacity="0" stroke="black" stroke-width="1" />
<path d="M-28.18323601898589,54.43665347818245 L-32.94237314228167,52.62276077003747 L-32.94659413761326,51.353589207060736" fill-opacity="0" stroke="black" stroke-width="1" />
<path d="M-28.18323601898589,-45.56334652181755 L-32.94237314228167,-47.37723922996253 L-32.94659413761326,-48.646410792939264" fill-opacity="0" stroke="black" stroke-width="1" />
<path d="M-28.18323601898589,45.56334652181755 L-32.94237314228167,47.37723922996253 L-32.94659413761326,48.646410792939264" fill-opacity="0" stroke="black" stroke-width="1" />
<path d="M-28.18323601898589,-54.43665347818245 L-32.94237314228167,-52.62276077003747 L-32.94659413761326,-51.353589207060736" fill-opacity="0" stroke="black" stroke-width="1" />
<path d="M-32.94237314228167,52.62276077003747 L-32.94659413761326,51.353589207060736 L-35.0,50.0" fill-opacity="0" stroke="black" stroke-width="1" />
<path d="M-32.94237314228167,-47.37723922996253 L-32.94659413761326,-48.646410792939264 L-35.0,-50.0" fill-opacity="0" stroke="black" stroke-width="1" />
<path d="M-32.94237314228167,47.37723922996253 L-32.94659413761326,48.646410792939264 L-35.0,50.0" fill-opacity="0" stroke="black" stroke-width="1" />
<path d="M-32.94237314228167,-52.62276077003747 L-32.94659413761326,-51.353589207060736 L-35.0,-50.0" fill-opacity="0" stroke="black" stroke-width="1" />
<path d="M-35.0,50.0 L-36.225762765818146,50.081096284493015 L-41.0,50.0" fill-opacity="0" stroke="black" stroke-width="1" />
<path d="M-35.0,-50.0 L-36.225762765818146,-49.918903715506985 L-41.0,-50.0" fill-opacity="0" stroke="black" stroke-width="1" />
<path d="M-35.0,50.0 L-36.225762765818146,49.918903715506985 L-41.0,50.0" fill-opacity="0" stroke="black" stroke-width="1" />
<path d="M-35.0,-50.0 L-36.225762765818146,-50.081096284493015 L-41.0,-50.0" fill-opacity="0" stroke="black" stroke-width="1" />
<path d="M-9.0,91.0 L-2.362644717537743,92.71978733469216 L-1.3442087473153064,94.06340958562741" fill-opacity="0" stroke="black" stroke-width="1" />
<path d="M-9.0,-9.0 L-2.362644717537743,-7.280212665307845 L-1.3442087473153064,-5.936590414372583" fill-opacity="0" stroke="black" stroke-width="1" />
<path d="M-9.0,9.0 L-2.362644717537743,7.280212665307843 L-1.3442087473153064,5.9365904143725885" fill-opacity="0" stroke="black" stroke-width="1" />
<path d="M-9.0,-91.0 L-2.362644717537743,-92.71978733469216 L-1.3442087473153064,-94.06340958562743" fill-opacity="0" stroke="black" stroke-width="1" />
<path d="M-2.362644717537743,92.71978733469216 L-1.3442087473153064,94.06340958562741 L-0.5466562100853695,96.23300417756471" fill-opacity="0" stroke="black" stroke-width="1" />
<path d="M-2.362644717537743,-7.280212665307845 L-1.3442087473153064,-5.936590414372583 L-0.5466562100853695,-3.7669958224352875" fill-opacity="0" stroke="black" stroke-width="1" />
<path d="M-2.362644717537743,7.280212665307843 L-1.3442087473153064,5.9365904143725885 L-0.5466562100853695,3.766995822435291" fill-opacity="0" stroke="black" stroke-width="1" />
<path d="M-2.362644717537743,-92.71978733469216 L-1.3442087473153064,-94.06340958562743 L-0.5466562100853695,-96.23300417756471" fill-opacity="0" stroke="black" stroke-width="1" />
<path d="M-1.3442087473153064,94.06340958562741 L-0.5466562100853695,96.23300417756471 L0.0,100.0" fill-opacity="0" stroke="black" stroke-width="1" />
<path d="M-1.3442087473153064,-5.936590414372583 L-0.5466562100853695,-3.7669958224352875 L0.0,-0.0" fill-opacity="0" stroke="black" stroke-width="1" />
<path d="M-1.3442087473153064,5.9365904143725885 L-0.5466562100853695,3.766995822435291 L0.0,-0.0" fill-opacity="0" stroke="black" stroke-width="1" />
<path d="M-1.3442087473153064,-94.06340958562743 L-0.5466562100853695,-96.23300417756471 L0.0,-100.0" fill-opacity="0" stroke="black" stroke-width="1" />
<path d="M-95.0,-0.0 L-85.29061647336522,-2.3996631971442737 L-82.05132719506953,-4.7032192145134735" fill-opacity="0" stroke="black" stroke-width="1" />
<path d="M-95.0,-0.0 L-85.29061647336522,2.3996631971442737 L-82.05132719506953,4.7032192145134735" fill-opacity="0" stroke="black" stroke-width="1" />
<path d="M-85.29061647336522,-2.3996631971442737 L-82.05132719506953,-4.7032192145134735 L-82.0,-0.0" fill-opacity="0" stroke="black" stroke-width="1" />
<path d="M-85.29061647336522,2.3996631971442737 L-82.05132719506953,4.7032192145134735 L-82.0,-0.0" fill-opacity="0" stroke="black" stroke-width="1" />
<path d="M-82.0,-0.0 L-80.32526469480239,-6.129322761357721 L-79.63206488921799,-6.3915669802606905" fill-opacity="0" stroke="black" stroke-width="1" />
<path d="M-82.0,-0.0 L-80.32526469480239,6.129322761357721 L-79.63206488921799,6.3915669802606905" fill-opacity="0" stroke="black" stroke-width="1" />
<path d="M-80.32526469480239,-6.129322761357721 L-79.63206488921799,-6.3915669802606905 L-76.7241260081233,-10.141506909247225" fill-opacity="0" stroke="black" stroke-width="1" />
<path d="M-80.32526469480239,6.129322761357721 L-79.63206488921799,6.3915669802606905 L-76.7241260081233,10.141506909247225" fill-opacity="0" stroke="black" stroke-width="1" />
<path d="M-79.63206488921799,-6.3915669802606905 L-76.7241260081233,-10.141506909247225 L-70.0,-0.0" fill-opacity="0" stroke="black" stroke-width="1" />
<path d="M-79.63206488921799,6.3915669802606905 L-76.7241260081233,10.141506909247225 L-70.0,-0.0" fill-opacity="0" stroke="black" stroke-width="1" />
<path d="M-50.0,-6.0 L-60.01616721292895,-24.589442152250363 L-56.48677994942006,-25.289397594928953" fill-opacity="0" stroke="black" stroke-width="1" />
<path d="M-50.0,6.0 L-60.01616721292895,24.589442152250363 L-56.48677994942006,25.289397594928953" fill-opacity="0" stroke="black" stroke-width="1" />
<path d="M-60.01616721292895,-24.589442152250363 L-56.48677994942006,-25.289397594928953 L-55.36252714406524,-26.636271452566042" fill-opacity="0" stroke="black" stroke-width="1" />
<path d="M-60.01616721292895,24.589442152250363 L-56.48677994942006,25.289397594928953 L-55.36252714406524,26.636271452566042" fill-opacity="0" stroke="black" stroke-width="1" />
<path d="M-56.48677994942006,-25.289397594928953 L-55.36252714406524,-26.636271452566042 L-54.43665347818245,-28.18323601898589" fill-opacity="0" stroke="black" stroke-width="1" />
<path d="M-56.48677994942006,25.289397594928953 L-55.36252714406524,26.636271452566042 L-54.43665347818245,28.18323601898589" fill-opacity="0" stroke="black" stroke-width="1" />
<path d="M-55.36252714406524,-26.636271452566042 L-54.43665347818245,-28.18323601898589 L-52.62276077003747,-32.94237314228167" fill-opacity="0" stroke="black" stroke-width="1" />
<path d="M-55.36252714406524,26.636271452566042 L-54.43665347818245,28.18323601898589 L-52.62276077003747,32.94237314228167" fill-opacity="0" stroke="black" stroke-width="1" />
<path d="M-54.43665347818245,-28.18323601898589 L-52.62276077003747,-32.94237314228167 L-51.353589207060736,-32.94659413761326" fill-opacity="0" stroke="black" stroke-width="1" />
<path d="M-54.43665347818245,28.18323601898589 L-52.62276077003747,32.94237314228167 L-51.353589207060736,32.94659413761326" fill-opacity="0" stroke="black" stroke-width="1" />
<path d="M-52.62276077003747,-32.94237314228167 L-51.353589207060736,-32.94659413761326 L-50.0,-35.0" fill-opacity="0" stroke="black" stroke-width="1" />
<path d="M-52.62276077003747,32.94237314228167 L-51.353589207060736,32.94659413761326 L-50.0,35.0" fill-opacity="0" stroke="black" stroke-width="1" />
<path d="M-50.0,-35.0 L-50.081096284493015,-36.225762765818146 L-50.0,-41.0" fill-opacity="0" stroke="black" stroke-width="1" />
<path d="M-50.0,35.0 L-50.081096284493015,36.225762765818146 L-50.0,41.0" fill-opacity="0" stroke="black" stroke-width="1" />
<path d="M-50.0,-50.0 L-79.0,-21.0 L-85.0,-15.0" fill-opacity="0" stroke="black" stroke-width="1" />
<path d="M-50.0,50.0 L-79.0,21.0 L-85.0,15.0" fill-opacity="0" stroke="black" stroke-width="1" />
<path d="M-79.0,-21.0 L-85.0,-15.0 L-91.0,-9.0" fill-opacity="0" stroke="black" stroke-width="1" />
<path d="M-79.0,21.0 L-85.0,15.0 L-91.0,9.0" fill-opacity="0" stroke="black" stroke-width="1" />
<path d="M-85.0,-15.0 L-91.0,-9.0 L-92.71978733469216,-2.362644717537743" fill-opacity="0" stroke="black" stroke-width="1" />
<path d="M-85.0,15.0 L-91.0,9.0 L-92.71978733469216,2.362644717537743" fill-opacity="0" stroke="black" stroke-width="1" />
<path d="M-91.0,-9.0 L-92.71978733469216,-2.362644717537743 L-94.06340958562743,-1.3442087473153064" fill-opacity="0" stroke="black" stroke-width="1" />
<path d="M-91.0,9.0 L-92.71978733469216,2.362644717537743 L-94.06340958562743,1.3442087473153064" fill-opacity="0" stroke="black" stroke-width="1" />
<path d="M-92.71978733469216,-2.362644717537743 L-94.06340958562743,-1.3442087473153064 L-96.23300417756471,-0.5466562100853695" fill-opacity="0" stroke="black" stroke-width="1" />
<path d="M-92.71978733469216,2.362644717537743 L-94.06340958562743,1.3442087473153064 L-96.23300417756471,0.5466562100853695" fill-opacity="0" stroke="black" stroke-width="1" />
<path d="M-94.06340958562743,-1.3442087473153064 L-96.23300417756471,-0.5466562100853695 L-100.0,-0.0" fill-opacity="0" stroke="black" stroke-width="1" />
<path d="M-94.06340958562743,1.3442087473153064 L-96.23300417756471,0.5466562100853695 L-100.0,-0.0" fill-opacity="0" stroke="black" stroke-width="1" />
</svg>