<?xml version="1.0" encoding="UTF-8"?>
<svg xmlns="http://www.w3.org/2000/svg" xmlns:xlink="http://www.w3.org/1999/xlink"
     width="250" height="250" viewBox="-125.0 -125.0 250 250">
<defs>
</defs>
<path d="M2.5303505721485777,92.19582117851579 L7.0,93.0 L1.477048594910435,93.05918549715676" fill-opacity="0" stroke="black" stroke-width="1" />
<path d="M2.5303505721485777,-92.19582117851579 L7.0,-93.0 L1.477048594910435,-93.05918549715676" fill-opacity="0" stroke="black" stroke-width="1" />
<path d="M7.0,-0.0 L17.86460315089264,-5.501890851530298 L20.76196056359798,-7.335292329560797" fill-opacity="0" stroke="black" stroke-width="1" />
<path d="M7.0,-0.0 L17.86460315089264,5.501890851530298 L20.76196056359798,7.335292329560797" fill-opacity="0" stroke="black" stroke-width="1" />
<path d="M17.86460315089264,-5.501890851530298 L20.76196056359798,-7.335292329560797 L22.0,-0.0" fill-opacity="0" stroke="black" stroke-width="1" />
<path d="M17.86460315089264,5.501890851530298 L20.76196056359798,7.335292329560797 L22.0,-0.0" fill-opacity="0" stroke="black" stroke-width="1" />
<path d="M33.0,67.0 L26.0,74.0 L5.477185586181066,86.80093214856889" fill-opacity="0" stroke="black" stroke-width="1" />
<path d="M33.0,-67.0 L26.0,-74.0 L5.477185586181066,-86.80093214856889" fill-opacity="0" stroke="black" stroke-width="1" />
<path d="M50.0,-10.0 L41.71300057669604,-15.69841076750986 L47.17279236498704,-20.272450198319667" fill-opacity="0" stroke="black" stroke-width="1" />
<path d="M50.0,10.0 L41.71300057669604,15.69841076750986 L47.17279236498704,20.272450198319667" fill-opacity="0" stroke="black" stroke-width="1" />
<path d="M41.71300057669604,-15.69841076750986 L47.17279236498704,-20.272450198319667 L50.0,-21.0" fill-opacity="0" stroke="black" stroke-width="1" />
<path d="M41.71300057669604,15.69841076750986 L47.17279236498704,20.272450198319667 L50.0,21.0" fill-opacity="0" stroke="black" stroke-width="1" />
<path d="M50.0,-24.0 L47.864551526938946,-37.94679608030902 L50.0,-45.0" fill-opacity="0" stroke="black" stroke-width="1" />
<path d="M50.0,24.0 L47.864551526938946,37.94679608030902 L50.0,45.0" fill-opacity="0" stroke="black" stroke-width="1" />
<path d="M45.0,50.0 L48.0,52.0 L33.0,67.0" fill-opacity="0" stroke="black" stroke-width="1" />
<path d="M45.0,-50.0 L48.0,-52.0 L33.0,-67.0" fill-opacity="0" stroke="black" stroke-width="1" />
<path d="M48.0,52.0 L33.0,67.0 L26.0,74.0" fill-opacity="0" stroke="black" stroke-width="1" />
<path d="M48.0,-52.0 L33.0,-67.0 L26.0,-74.0" fill-opacity="0" stroke="black" stroke-width="1" />
<path d="M26.0,-26.0 L13.199067851431106,-5.477185586181066 L7.804178821484209,-2.5303505721485777" fill-opacity="0" stroke="black" stroke-width="1" />
<path d="M26.0,26.0 L13.199067851431106,5.477185586181066 L7.804178821484209,2.5303505721485777" fill-opacity="0" stroke="black" stroke-width="1" />
<path d="M13.199067851431106,-5.477185586181066 L7.804178821484209,-2.5303505721485777 L7.0,-7.0" fill-opacity="0" stroke="black" stroke-width="1" />
<path d="M13.199067851431106,5.477185586181066 L7.804178821484209,2.5303505721485777 L7.0,7.0" fill-opacity="0" stroke="black" stroke-width="1" />
<path d="M7.0,-7.0 L6.940814502843229,-1.477048594910435 L6.3093611289199,-1.0527522014565756" fill-opacity="0" stroke="black" stroke-width="1" />
<path d="M7.0,7.0 L6.940814502843229,1.477048594910435 L6.3093611289199,1.0527522014565756" fill-opacity="0" stroke="black" stroke-width="1" />
<path d="M6.940814502843229,-1.477048594910435 L6.3093611289199,-1.0527522014565756 L4.021527757874438,-0.5925414553266672" fill-opacity="0" stroke="black" stroke-width="1" />
<path d="M6.940814502843229,1.477048594910435 L6.3093611289199,1.0527522014565756 L4.021527757874438,0.5925414553266672" fill-opacity="0" stroke="black" stroke-width="1" />
<path d="M6.3093611289199,-1.0527522014565756 L4.021527757874438,-0.5925414553266672 L3.0,-3.0" fill-opacity="0" stroke="black" stroke-width="1" />
<path d="M6.3093611289199,1.0527522014565756 L4.021527757874438,0.5925414553266672 L3.0,3.0" fill-opacity="0" stroke="black" stroke-width="1" />
<path d="M0.5925414553266672,95.97847224212556 L3.0,97.0 L0.0,100.0" fill-opacity="0" stroke="black" stroke-width="1" />
<path d="M0.5925414553266672,-95.97847224212556 L3.0,-97.0 L0.0,-100.0" fill-opacity="0" stroke="black" stroke-width="1" />
<path d="M-2.5303505721485777,92.19582117851579 L-7.0,93.0 L-1.477048594910435,93.05918549715678" fill-opacity="0" stroke="black" stroke-width="1" />
<path d="M-2.5303505721485777,-92.19582117851579 L-7.0,-93.0 L-1.477048594910435,-93.05918549715676" fill-opacity="0" stroke="black" stroke-width="1" />
<path d="M-7.0,-0.0 L-17.86460315089264,-5.501890851530298 L-20.76196056359798,-7.335292329560797" fill-opacity="0" stroke="black" stroke-width="1" />
<path d="M-7.0,-0.0 L-17.86460315089264,5.501890851530298 L-20.76196056359798,7.335292329560797" fill-opacity="0" stroke="black" stroke-width="1" />
<path d="M-17.86460315089264,-5.501890851530298 L-20.76196056359798,-7.335292329560797 L-22.0,-0.0" fill-opacity="0" stroke="black" stroke-width="1" />
<path d="M-17.86460315089264,5.501890851530298 L-20.76196056359798,7.335292329560797 L-22.0,-0.0" fill-opacity="0" stroke="black" stroke-width="1" />
<path d="M-33.0,67.0 L-26.0,74.0 L-5.477185586181066,86.80093214856889" fill-opacity="0" stroke="black" stroke-width="1" />
<path d="M-33.0,-67.0 L-26.0,-74.0 L-5.477185586181066,-86.80093214856889" fill-opacity="0" stroke="black" stroke-width="1" />
<path d="M-50.0,-10.0 L-41.71300057669604,-15.69841076750986 L-47.17279236498704,-20.272450198319667" fill-opacity="0" stroke="black" stroke-width="1" />
<path d="M-50.0,10.0 L-41.71300057669604,15.69841076750986 L-47.17279236498704,20.272450198319667" fill-opacity="0" stroke="black" stroke-width="1" />
<path d="M-41.71300057669604,-15.69841076750986 L-47.17279236498704,-20.272450198319667 L-50.0,-21.0" fill-opacity="0" stroke="black" stroke-width="1" />
<path d="M-41.71300057669604,15.69841076750986 L-47.17279236498704,20.272450198319667 L-50.0,21.0" fill-opacity="0" stroke="black" stroke-width="1" />
<path d="M-50.0,-24.0 L-47.864551526938946,-37.94679608030902 L-50.0,-45.0" fill-opacity="0" stroke="black" stroke-width="1" />
<path d="M-50.0,24.0 L-47.864551526938946,37.94679608030902 L-50.0,45.0" fill-opacity="0" stroke="black" stroke-width="1" />
<path d="M-45.0,50.0 L-48.0,52.0 L-33.0,67.0" fill-opacity="0" stroke="black" stroke-width="1" />
<path d="M-45.0,-50.0 L-48.0,-52.0 L-33.0,-67.0" fill-opacity="0" stroke="black" stroke-width="1" />
<path d="M-48.0,52.0 L-33.0,67.0 L-26.0,74.0" fill-opacity="0" stroke="black" stroke-width="1" />
<path d="M-48.0,-52.0 L-33.0,-67.0 L-26.0,-74.0" fill-opacity="0" stroke="black" stroke-width="1" />
<path d="M-26.0,-26.0 L-13.199067851431106,-5.477185586181066 L-7.804178821484209,-2.5303505721485777" fill-opacity="0" stroke="black" stroke-width="1" />
<path d="M-26.0,26.0 L-13.199067851431106,5.477185586181066 L-7.804178821484209,2.5303505721485777" fill-opacity="0" stroke="black" stroke-width="1" />
<path d="M-13.199067851431106,-5.477185586181066 L-7.804178821484209,-2.5303505721485777 L-7.0,-7.0" fill-opacity="0" stroke="black" stroke-width="1" />
<path d="M-13.199067851431106,5.477185586181066 L-7.804178821484209,2.5303505721485777 L-7.0,7.0" fill-opacity="0" stroke="black" stroke-width="1" />
<path d="M-7.0,-7.0 L-6.940814502843229,-1.477048594910435 L-6.3093611289199,-1.0527522014565756" fill-opacity="0" stroke="black" stroke-width="1" />
<path d="M-7.0,7.0 L-6.940814502843229,1.477048594910435 L-6.3093611289199,1.0527522014565756" fill-opacity="0" stroke="black" stroke-width="1" />
<path d="M-6.940814502843229,-1.477048594910435 L-6.3093611289199,-1.0527522014565756 L-4.021527757874438,-0.5925414553266672" fill-opacity="0" stroke="black" stroke-width="1" />
<path d="M-6.940814502843229,1.477048594910435 L-6.3093611289199,1.0527522014565756 L-4.021527757874438,0.5925414553266672" fill-opacity="0" stroke="black" stroke-width="1" />
<path d="M-6.3093611289199,-1.0527522014565756 L-4.021527757874438,-0.5925414553266672 L-3.0,-3.0" fill-opacity="0" stroke="black" stroke-width="1" />
<path d="M-6.3093611289199,1.0527522014565756 L-4.021527757874438,0.5925414553266672 L-3.0,3.0" fill-opacity="0" stroke="black" stroke-width="1" />
<path d="M-0.5925414553266672,95.97847224212556 L-3.0,97.0 L0.0,100.0" fill-opacity="0" stroke="black" stroke-width="1" />
<path d="M-0.5925414553266672,-95.97847224212556 L-3.0,-97.0 L0.0,-100.0" fill-opacity="0" stroke="black" stroke-width="1" />
<path d="M92.19582117851579,2.5303505721485777 L93.0,7.0 L93.05918549715676,1.477048594910435" fill-opacity="0" stroke="black" stroke-width="1" />
<path d="M92.19582117851579,-2.5303505721485777 L93.0,-7.0 L93.05918549715676,-1.477048594910435" fill-opacity="0" stroke="black" stroke-width="1" />
<path d="M93.0,-0.0 L82.13539684910737,5.501890851530298 L79.23803943640202,7.335292329560797" fill-opacity="0" stroke="black" stroke-width="1" />
<path d="M93.0,-0.0 L82.13539684910737,-5.501890851530298 L79.23803943640202,-7.335292329560797" fill-opacity="0" stroke="black" stroke-width="1" />
<path d="M82.13539684910737,5.501890851530298 L79.23803943640202,7.335292329560797 L78.0,-0.0" fill-opacity="0" stroke="black" stroke-width="1" />
<path d="M82.13539684910737,-5.501890851530298 L79.23803943640202,-7.335292329560797 L78.0,-0.0" fill-opacity="0" stroke="black" stroke-width="1" />
<path d="M67.0,33.0 L74.0,26.0 L86.80093214856889,5.477185586181066" fill-opacity="0" stroke="black" stroke-width="1" />
<path d="M67.0,-33.0 L74.0,-26.0 L86.80093214856889,-5.477185586181066" fill-opacity="0" stroke="black" stroke-width="1" />
<path d="M50.0,10.0 L58.28699942330396,15.69841076750986 L52.82720763501296,20.272450198319667" fill-opacity="0" stroke="black" stroke-width="1" />
<path d="M50.0,-10.0 L58.28699942330396,-15.69841076750986 L52.82720763501296,-20.272450198319667" fill-opacity="0" stroke="black" stroke-width="1" />
<path d="M58.28699942330396,15.69841076750986 L52.82720763501296,20.272450198319667 L50.0,21.0" fill-opacity="0" stroke="black" stroke-width="1" />
<path d="M58.28699942330396,-15.69841076750986 L52.82720763501296,-20.272450198319667 L50.0,-21.0" fill-opacity="0" stroke="black" stroke-width="1" />
<path d="M50.0,24.0 L52.135448473061054,37.94679608030902 L50.0,45.0" fill-opacity="0" stroke="black" stroke-width="1" />
<path d="M50.0,-24.0 L52.135448473061054,-37.94679608030902 L50.0,-45.0" fill-opacity="0" stroke="black" stroke-width="1" />
<path d="M50.0,45.0 L52.0,48.0 L67.0,33.0" fill-opacity="0" stroke="black" stroke-width="1" />
<path d="M50.0,-45.0 L52.0,-48.0 L67.0,-33.0" fill-opacity="0" stroke="black" stroke-width="1" />
<path d="M52.0,48.0 L67.0,33.0 L74.0,26.0" fill-opacity="0" stroke="black" stroke-width="1" />
<path d="M52.0,-48.0 L67.0,-33.0 L74.0,-26.0" fill-opacity="0" stroke="black" stroke-width="1" />
<path d="M74.0,26.0 L86.80093214856889,5.477185586181066 L92.19582117851579,2.5303505721485777" fill-opacity="0" stroke="black" stroke-width="1" />
<path d="M74.0,-26.0 L86.80093214856889,-5.477185586181066 L92.19582117851579,-2.5303505721485777" fill-opacity="0" stroke="black" stroke-width="1" />
<path d="M86.80093214856889,5.477185586181066 L92.19582117851579,2.5303505721485777 L93.0,7.0" fill-opacity="0" stroke="black" stroke-width="1" />
<path d="M86.80093214856889,-5.477185586181066 L92.19582117851579,-2.5303505721485777 L93.0,-7.0" fill-opacity="0" stroke="black" stroke-width="1" />
<path d="M93.0,7.0 L93.05918549715676,1.477048594910435 L93.6906388710801,1.0527522014565756" fill-opacity="0" stroke="black" stroke-width="1" />
<path d="M93.0,-7.0 L93.05918549715676,-1.477048594910435 L93.6906388710801,-1.0527522014565756" fill-opacity="0" stroke="black" stroke-width="1" />
<path d="M93.05918549715676,1.477048594910435 L93.6906388710801,1.0527522014565756 L95.97847224212556,0.5925414553266672" fill-opacity="0" stroke="black" stroke-width="1" />
<path d="M93.05918549715676,-1.477048594910435 L93.6906388710801,-1.0527522014565756 L95.97847224212556,-0.5925414553266672" fill-opacity="0" stroke="black" stroke-width="1" />
<path d="M93.6906388710801,1.0527522014565756 L95.97847224212556,0.5925414553266672 L97.0,3.0" fill-opacity="0" stroke="black" stroke-width="1" />
<path d="M93.6906388710801,-1.0527522014565756 L95.97847224212556,-0.5925414553266672 L97.0,-3.0" fill-opacity="0" stroke="black" stroke-width="1" />
<path d="M95.97847224212556,0.5925414553266672 L97.0,3.0 L100.0,-0.0" fill-opacity="0" stroke="black" stroke-width="1" />
<path d="M95.97847224212556,-0.5925414553266672 L97.0,-3.0 L100.0,-0.0" fill-opacity="0" stroke="black" stroke-width="1" />
<path d="M0.0,-7.0 L5.501890851530298,-17.86460315089264 L7.335292329560797,-20.76196056359798" fill-opacity="0" stroke="black" stroke-width="1" />
<path d="M0.0,7.0 L5.501890851530298,17.86460315089264 L7.335292329560797,20.76196056359798" fill-opacity="0" stroke="black" stroke-width="1" />
<path d="M0.0,93.0 L5.501890851530298,82.13539684910737 L7.335292329560797,79.23803943640202" fill-opacity="0" stroke="black" stroke-width="1" />
<path d="M0.0,-93.0 L5.501890851530298,-82.13539684910737 L7.335292329560797,-79.23803943640202" fill-opacity="0" stroke="black" stroke-width="1" />
<path d="M5.501890851530298,-17.86460315089264 L7.335292329560797,-20.76196056359798 L0.0,-22.0" fill-opacity="0" stroke="black" stroke-width="1" />
<path d="M5.501890851530298,17.86460315089264 L7.335292329560797,20.76196056359798 L0.0,22.0" fill-opacity="0" stroke="black" stroke-width="1" />
<path d="M5.501890851530298,82.13539684910737 L7.335292329560797,79.23803943640202 L0.0,78.0" fill-opacity="0" stroke="black" stroke-width="1" />
<path d="M5.501890851530298,-82.13539684910737 L7.335292329560797,-79.23803943640202 L0.0,-78.0" fill-opacity="0" stroke="black" stroke-width="1" />
<path d="M10.0,-50.0 L15.69841076750986,-41.71300057669604 L20.272450198319667,-47.17279236498704" fill-opacity="0" stroke="black" stroke-width="1" />
<path d="M10.0,50.0 L15.69841076750986,41.71300057669604 L20.272450198319667,47.17279236498704" fill-opacity="0" stroke="black" stroke-width="1" />
<path d="M10.0,50.0 L15.69841076750986,58.28699942330396 L20.272450198319667,52.82720763501296" fill-opacity="0" stroke="black" stroke-width="1" />
<path d="M10.0,-50.0 L15.69841076750986,-58.28699942330396 L20.272450198319667,-52.82720763501296" fill-opacity="0" stroke="black" stroke-width="1" />
<path d="M15.69841076750986,-41.71300057669604 L20.272450198319667,-47.17279236498704 L21.0,-50.0" fill-opacity="0" stroke="black" stroke-width="1" />
<path d="M15.69841076750986,41.71300057669604 L20.272450198319667,47.17279236498704 L21.0,50.0" fill-opacity="0" stroke="black" stroke-width="1" />
<path d="M15.69841076750986,58.28699942330396 L20.272450198319667,52.82720763501296 L21.0,50.0" fill-opacity="0" stroke="black" stroke-width="1" />
<path d="M15.69841076750986,-58.28699942330396 L20.272450198319667,-52.82720763501296 L21.0,-50.0" fill-opacity="0" stroke="black" stroke-width="1" />
<path d="M24.0,-50.0 L37.94679608030902,-47.864551526938946 L45.0,-50.0" fill-opacity="0" stroke="black" stroke-width="1" />
<path d="M24.0,50.0 L37.94679608030902,47.864551526938946 L45.0,50.0" fill-opacity="0" stroke="black" stroke-width="1" />
<path d="M24.0,50.0 L37.94679608030902,52.135448473061054 L45.0,50.0" fill-opacity="0" stroke="black" stroke-width="1" />
<path d="M24.0,-50.0 L37.94679608030902,-52.135448473061054 L45.0,-50.0" fill-opacity="0" stroke="black" stroke-width="1" />
<path d="M26.0,-26.0 L5.477185586181066,-13.199067851431106 L2.5303505721485777,-7.804178821484209" fill-opacity="0" stroke="black" stroke-width="1" />
<path d="M26.0,26.0 L5.477185586181066,13.199067851431106 L2.5303505721485777,7.804178821484209" fill-opacity="0" stroke="black" stroke-width="1" />
<path d="M26.0,74.0 L5.477185586181066,86.80093214856889 L2.5303505721485777,92.19582117851579" fill-opacity="0" stroke="black" stroke-width="1" />
<path d="M26.0,-74.0 L5.477185586181066,-86.80093214856889 L2.5303505721485777,-92.19582117851579" fill-opacity="0" stroke="black" stroke-width="1" />
<path d="M5.477185586181066,-13.199067851431106 L2.5303505721485777,-7.804178821484209 L7.0,-7.0" fill-opacity="0" stroke="black" stroke-width="1" />
<path d="M5.477185586181066,13.199067851431106 L2.5303505721485777,7.804178821484209 L7.0,7.0" fill-opacity="0" stroke="black" stroke-width="1" />
<path d="M5.477185586181066,86.80093214856889 L2.5303505721485777,92.19582117851579 L7.0,93.0" fill-opacity="0" stroke="black" stroke-width="1" />
<path d="M5.477185586181066,-86.80093214856889 L2.5303505721485777,-92.19582117851579 L7.0,-93.0" fill-opacity="0" stroke="black" stroke-width="1" />
<path d="M7.0,-7.0 L1.477048594910435,-6.940814502843229 L1.0527522014565756,-6.3093611289199" fill-opacity="0" stroke="black" stroke-width="1" />
<path d="M7.0,7.0 L1.477048594910435,6.940814502843229 L1.0527522014565756,6.3093611289199" fill-opacity="0" stroke="black" stroke-width="1" />
<path d="M7.0,93.0 L1.477048594910435,93.05918549715676 L1.0527522014565756,93.6906388710801" fill-opacity="0" stroke="black" stroke-width="1" />
<path d="M7.0,-93.0 L1.477048594910435,-93.05918549715676 L1.0527522014565756,-93.6906388710801" fill-opacity="0" stroke="black" stroke-width="1" />
<path d="M1.477048594910435,-6.940814502843229 L1.0527522014565756,-6.3093611289199 L0.5925414553266672,-4.021527757874438" fill-opacity="0" stroke="black" stroke-width="1" />
<path d="M1.477048594910435,6.940814502843229 L1.0527522014565756,6.3093611289199 L0.5925414553266672,4.021527757874438" fill-opacity="0" stroke="black" stroke-width="1" />
<path d="M1.477048594910435,93.05918549715676 L1.0527522014565756,93.6906388710801 L0.5925414553266672,95.97847224212556" fill-opacity="0" stroke="black" stroke-width="1" />
<path d="M1.477048594910435,-93.05918549715676 L1.0527522014565756,-93.6906388710801 L0.5925414553266672,-95.97847224212556" fill-opacity="0" stroke="black" stroke-width="1" />
<path d="M1.0527522014565756,-6.3093611289199 L0.5925414553266672,-4.021527757874438 L3.0,-3.0" fill-opacity="0" stroke="black" stroke-width="1" />
<path d="M1.0527522014565756,6.3093611289199 L0.5925414553266672,4.021527757874438 L3.0,3.0" fill-opacity="0" stroke="black" stroke-width="1" />
<path d="M1.0527522014565756,93.6906388710801 L0.5925414553266672,95.97847224212556 L3.0,97.0" fill-opacity="0" stroke="black" stroke-width="1" />
<path d="M1.0527522014565756,-93.6906388710801 L0.5925414553266672,-95.97847224212556 L3.0,-97.0" fill-opacity="0" stroke="black" stroke-width="1" />
<path d="M0.0,93.0 L-5.501890851530298,82.13539684910737 L-7.335292329560797,79.23803943640202" fill-opacity="0" stroke="black" stroke-width="1" />
<path d="M0.0,-7.0 L-5.501890851530298,-17.86460315089264 L-7.335292329560797,-20.76196056359798" fill-opacity="0" stroke="black" stroke-width="1" />
<path d="M0.0,7.0 L-5.501890851530298,17.864603150892634 L-7.335292329560797,20.76196056359798" fill-opacity="0" stroke="black" stroke-width="1" />
<path d="M0.0,-93.0 L-5.501890851530298,-82.13539684910737 L-7.335292329560797,-79.23803943640202" fill-opacity="0" stroke="black" stroke-width="1" />
<path d="M-5.501890851530298,82.13539684910737 L-7.335292329560797,79.23803943640202 L0.0,78.0" fill-opacity="0" stroke="black" stroke-width="1" />
<path d="M-5.501890851530298,-17.86460315089264 L-7.335292329560797,-20.76196056359798 L0.0,-22.0" fill-opacity="0" stroke="black" stroke-width="1" />
<path d="M-5.501890851530298,17.864603150892634 L-7.335292329560797,20.76196056359798 L0.0,22.0" fill-opacity="0" stroke="black" stroke-width="1" />
<path d="M-5.501890851530298,-82.13539684910737 L-7.335292329560797,-79.23803943640202 L0.0,-78.0" fill-opacity="0" stroke="black" stroke-width="1" />
<path d="M-10.0,50.0 L-15.69841076750986,58.28699942330396 L-20.272450198319667,52.82720763501296" fill-opacity="0" stroke="black" stroke-width="1" />
<path d="M-10.0,-50.0 L-15.69841076750986,-41.71300057669604 L-20.272450198319667,-47.17279236498704" fill-opacity="0" stroke="black" stroke-width="1" />
<path d="M-10.0,50.0 L-15.69841076750986,41.71300057669604 L-20.272450198319667,47.17279236498704" fill-opacity="0" stroke="black" stroke-width="1" />
<path d="M-10.0,-50.0 L-15.69841076750986,-58.28699942330396 L-20.272450198319667,-52.82720763501296" fill-opacity="0" stroke="black" stroke-width="1" />
<path d="M-15.69841076750986,58.28699942330396 L-20.272450198319667,52.82720763501296 L-21.0,50.0" fill-opacity="0" stroke="black" stroke-width="1" />
<path d="M-15.69841076750986,-41.71300057669604 L-20.272450198319667,-47.17279236498704 L-21.0,-50.0" fill-opacity="0" stroke="black" stroke-width="1" />
<path d="M-15.69841076750986,41.71300057669604 L-20.272450198319667,47.17279236498704 L-21.0,50.0" fill-opacity="0" stroke="black" stroke-width="1" />
<path d="M-15.69841076750986,-58.28699942330396 L-20.272450198319667,-52.82720763501296 L-21.0,-50.0" fill-opacity="0" stroke="black" stroke-width="1" />
<path d="M-24.0,50.0 L-37.94679608030902,52.135448473061054 L-45.0,50.0" fill-opacity="0" stroke="black" stroke-width="1" />
<path d="M-24.0,-50.0 L-37.94679608030902,-47.864551526938946 L-45.0,-50.0" fill-opacity="0" stroke="black" stroke-width="1" />
<path d="M-24.0,50.0 L-37.94679608030902,47.864551526938946 L-45.0,50.0" fill-opacity="0" stroke="black" stroke-width="1" />
<path d="M-24.0,-50.0 L-37.94679608030902,-52.135448473061054 L-45.0,-50.0" fill-opacity="0" stroke="black" stroke-width="1" />
<path d="M-26.0,74.0 L-5.477185586181066,86.80093214856889 L-2.5303505721485777,92.19582117851579" fill-opacity="0" stroke="black" stroke-width="1" />
<path d="M-26.0,-26.0 L-5.477185586181066,-13.199067851431106 L-2.5303505721485777,-7.804178821484209" fill-opacity="0" stroke="black" stroke-width="1" />
<path d="M-26.0,26.0 L-5.477185586181066,13.19906785143111 L-2.5303505721485777,7.804178821484214" fill-opacity="0" stroke="black" stroke-width="1" />
<path d="M-26.0,-74.0 L-5.477185586181066,-86.80093214856889 L-2.5303505721485777,-92.19582117851579" fill-opacity="0" stroke="black" stroke-width="1" />
<path d="M-5.477185586181066,86.80093214856889 L-2.5303505721485777,92.19582117851579 L-7.0,93.0" fill-opacity="0" stroke="black" stroke-width="1" />
<path d="M-5.477185586181066,-13.199067851431106 L-2.5303505721485777,-7.804178821484209 L-7.0,-7.0" fill-opacity="0" stroke="black" stroke-width="1" />
<path d="M-5.477185586181066,13.19906785143111 L-2.5303505721485777,7.804178821484214 L-7.0,7.0" fill-opacity="0" stroke="black" stroke-width="1" />
<path d="M-5.477185586181066,-86.80093214856889 L-2.5303505721485777,-92.19582117851579 L-7.0,-93.0" fill-opacity="0" stroke="black" stroke-width="1" />
<path d="M-7.0,93.0 L-1.477048594910435,93.05918549715678 L-1.0527522014565756,93.6906388710801" fill-opacity="0" stroke="black" stroke-width="1" />
<path d="M-7.0,-7.0 L-1.477048594910435,-6.940814502843229 L-1.0527522014565756,-6.3093611289199" fill-opacity="0" stroke="black" stroke-width="1" />
<path d="M-7.0,7.0 L-1.477048594910435,6.940814502843224 L-1.0527522014565756,6.309361128919903" fill-opacity="0" stroke="black" stroke-width="1" />
<path d="M-7.0,-93.0 L-1.477048594910435,-93.05918549715676 L-1.0527522014565756,-93.6906388710801" fill-opacity="0" stroke="black" stroke-width="1" />
<path d="M-1.477048594910435,93.05918549715678 L-1.0527522014565756,93.6906388710801 L-0.5925414553266672,95.97847224212556" fill-opacity="0" stroke="black" stroke-width="1" />
<path d="M-1.477048594910435,-6.940814502843229 L-1.0527522014565756,-6.3093611289199 L-0.5925414553266672,-4.021527757874438" fill-opacity="0" stroke="black" stroke-width="1" />
<path d="M-1.477048594910435,6.940814502843224 L-1.0527522014565756,6.309361128919903 L-0.5925414553266672,4.021527757874438" fill-opacity="0" stroke="black" stroke-width="1" />
<path d="M-1.477048594910435,-93.05918549715676 L-1.0527522014565756,-93.6906388710801 L-0.5925414553266672,-95.97847224212556" fill-opacity="0" stroke="black" stroke-width="1" />
<path d="M-1.0527522014565756,93.6906388710801 L-0.5925414553266672,95.97847224212556 L-3.0,97.0" fill-opacity="0" stroke="black" stroke-width="1" />
<path d="M-1.0527522014565756,-6.3093611289199 L-0.5925414553266672,-4.021527757874438 L-3.0,-3.0" fill-opacity="0" stroke="black" stroke-width="1" />
<path d="M-1.0527522014565756,6.309361128919903 L-0.5925414553266672,4.021527757874438 L-3.0,3.0" fill-opacity="0" stroke="black" stroke-width="1" />
<path d="M-1.0527522014565756,-93.6906388710801 L-0.5925414553266672,-95.97847224212556 L-3.0,-97.0" fill-opacity="0" stroke="black" stroke-width="1" />
<path d="M-92.19582117851579,-2.5303505721485777 L-93.0,-7.0 L-93.05918549715676,-1.477048594910435" fill-opacity="0" stroke="black" stroke-width="1" />
<path d="M-92.19582117851579,2.5303505721485777 L-93.0,7.0 L-93.05918549715676,1.477048594910435" fill-opacity="0" stroke="black" stroke-width="1" />
<path d="M-93.0,-0.0 L-82.13539684910737,-5.501890851530298 L-79.23803943640202,-7.335292329560797" fill-opacity="0" stroke="black" stroke-width="1" />
<path d="M-93.0,-0.0 L-82.13539684910737,5.501890851530298 L-79.23803943640202,7.335292329560797" fill-opacity="0" stroke="black" stroke-width="1" />
<path d="M-82.13539684910737,-5.501890851530298 L-79.23803943640202,-7.335292329560797 L-78.0,-0.0" fill-opacity="0" stroke="black" stroke-width="1" />
<path d="M-82.13539684910737,5.501890851530298 L-79.23803943640202,7.335292329560797 L-78.0,-0.0" fill-opacity="0" stroke="black" stroke-width="1" />
<path d="M-67.0,-33.0 L-74.0,-26.0 L-86.80093214856889,-5.477185586181066" fill-opacity="0" stroke="black" stroke-width="1" />
<path d="M-67.0,33.0 L-74.0,26.0 L-86.80093214856889,5.477185586181066" fill-opacity="0" stroke="black" stroke-width="1" />
<path d="M-50.0,-10.0 L-58.28699942330396,-15.69841076750986 L-52.82720763501296,-20.272450198319667" fill-opacity="0" stroke="black" stroke-width="1" />
<path d="M-50.0,10.0 L-58.28699942330396,15.69841076750986 L-52.82720763501296,20.272450198319667" fill-opacity="0" stroke="black" stroke-width="1" />
<path d="M-58.28699942330396,-15.69841076750986 L-52.82720763501296,-20.272450198319667 L-50.0,-21.0" fill-opacity="0" stroke="black" stroke-width="1" />
<path d="M-58.28699942330396,15.69841076750986 L-52.82720763501296,20.272450198319667 L-50.0,21.0" fill-opacity="0" stroke="black" stroke-width="1" />
<path d="M-50.0,-24.0 L-52.135448473061054,-37.94679608030902 L-50.0,-45.0" fill-opacity="0" stroke="black" stroke-width="1" />
<path d="M-50.0,24.0 L-52.135448473061054,37.94679608030902 L-50.0,45.0" fill-opacity="0" stroke="black" stroke-width="1" />
<path d="M-50.0,-45.0 L-52.0,-48.0 L-67.0,-33.0" fill-opacity="0" stroke="black" stroke-width="1" />
<path d="M-50.0,45.0 L-52.0,48.0 L-67.0,33.0" fill-opacity="0" stroke="black" stroke-width="1" />
<path d="M-52.0,-48.0 L-67.0,-33.0 L-74.0,-26.0" fill-opacity="0" stroke="black" stroke-width="1" />
<path d="M-52.0,48.0 L-67.0,33.0 L-74.0,26.0" fill-opacity="0" stroke="black" stroke-width="1" />
<path d="M-74.0,-26.0 L-86.80093214856889,-5.477185586181066 L-92.19582117851579,-2.5303505721485777" fill-opacity="0" stroke="black" stroke-width="1" />
<path d="M-74.0,26.0 L-86.80093214856889,5.477185586181066 L-92.19582117851579,2.5303505721485777" fill-opacity="0" stroke="black" stroke-width="1" />
<path d="M-86.80093214856889,-5.477185586181066 L-92.19582117851579,-2.5303505721485777 L-93.0,-7.0" fill-opacity="0" stroke="black" stroke-width="1" />
<path d="M-86.80093214856889,5.477185586181066 L-92.19582117851579,2.5303505721485777 L-93.0,7.0" fill-opacity="0" stroke="black" stroke-width="1" />
<path d="M-93.0,-7.0 L-93.05918549715676,-1.477048594910435 L-93.6906388710801,-1.0527522014565756" fill-opacity="0" stroke="black" stroke-width="1" />
<path d="M-93.0,7.0 L-93.05918549715676,1.477048594910435 L-93.6906388710801,1.0527522014565756" fill-opacity="0" stroke="black" stroke-width="1" />
<path d="M-93.05918549715676,-1.477048594910435 L-93.6906388710801,-1.0527522014565756 L-95.97847224212556,-0.5925414553266672" fill-opacity="0" stroke="black" stroke-width="1" />
<path d="M-93.05918549715676,1.477048594910435 L-93.6906388710801,1.0527522014565756 L-95.97847224212556,0.5925414553266672" fill-opacity="0" stroke="black" stroke-width="1" />
<path d="M-93.6906388710801,-1.0527522014565756 L-95.97847224212556,-0.5925414553266672 L-97.0,-3.0" fill-opacity="0" stroke="black" stroke-width="1" />
<path d="M-93.6906388710801,1.0527522014565756 L-95.97847224212556,0.5925414553266672 L-97.0,3.0" fill-opacity="0" stroke="black" stroke-width="1" />
<path d="M-95.97847224212556,-0.5925414553266672 L-97.0,-3.0 L-100.0,-0.0" fill-opacity="0" stroke="black" stroke-width="1" />
<path d="M-95.97847224212556,0.5925414553266672 L-97.0,3.0 L-100.0,-0.0" fill-opacity="0" stroke="black" stroke-width="1" />
</svg>