<?xml version="1.0" encoding="UTF-8"?>
<svg xmlns="http://www.w3.org/2000/svg" xmlns:xlink="http://www.w3.org/1999/xlink"
     width="250" height="250" viewBox="-125.0 -125.0 250 250">
<defs>
</defs>
<path d="M13.0,-0.0 L17.709202351424732,-5.519635084416151 L18.0,-0.0" fill="green" fill-opacity="0.6" stroke="black" stroke-width="1" />
<path d="M13.0,-0.0 L17.709202351424732,5.519635084416151 L18.0,-0.0" fill="brown" fill-opacity="0.6" stroke="black" stroke-width="1" />
<path d="M50.0,-14.0 L46.196121624855735,-16.657006859607073 L48.95428990506416,-22.04585645577955" fill="green" fill-opacity="0.6" stroke="black" stroke-width="1" />
<path d="M50.0,14.0 L46.196121624855735,16.657006859607073 L48.95428990506416,22.04585645577955" fill="red" fill-opacity="0.6" stroke="black" stroke-width="1" />
<path d="M46.196121624855735,-16.657006859607073 L48.95428990506416,-22.04585645577955 L50.0,-28.0" fill="green" fill-opacity="0.6" stroke="black" stroke-width="1" />
<path d="M46.196121624855735,16.657006859607073 L48.95428990506416,22.04585645577955 L50.0,28.0" fill="orange" fill-opacity="0.6" stroke="black" stroke-width="1" />
<path d="M48.0,50.0 L48.0,52.0 L41.0,59.0" fill="orange" fill-opacity="0.6" stroke="black" stroke-width="1" />
<path d="M48.0,-50.0 L48.0,-52.0 L41.0,-59.0" fill="green" fill-opacity="0.6" stroke="black" stroke-width="1" />
<path d="M48.0,52.0 L41.0,59.0 L38.0,62.0" fill="red" fill-opacity="0.6" stroke="black" stroke-width="1" />
<path d="M48.0,-52.0 L41.0,-59.0 L38.0,-62.0" fill="yellow" fill-opacity="0.6" stroke="black" stroke-width="1" />
<path d="M41.0,59.0 L38.0,62.0 L22.0,78.0" fill="yellow" fill-opacity="0.6" stroke="black" stroke-width="1" />
<path d="M41.0,-59.0 L38.0,-62.0 L22.0,-78.0" fill="pink" fill-opacity="0.6" stroke="black" stroke-width="1" />
<path d="M38.0,62.0 L22.0,78.0 L16.327807342198568,79.99241726073546" fill="red" fill-opacity="0.6" stroke="black" stroke-width="1" />
<path d="M38.0,-62.0 L22.0,-78.0 L16.327807342198568,-79.99241726073546" fill="red" fill-opacity="0.6" stroke="black" stroke-width="1" />
<path d="M22.0,-22.0 L20.007582739264528,-16.327807342198568 L12.0,-12.0" fill="red" fill-opacity="0.6" stroke="black" stroke-width="1" />
<path d="M22.0,22.0 L20.007582739264528,16.327807342198568 L12.0,12.0" fill="brown" fill-opacity="0.6" stroke="black" stroke-width="1" />
<path d="M16.327807342198568,79.99241726073546 L12.0,88.0 L11.0,89.0" fill="green" fill-opacity="0.6" stroke="black" stroke-width="1" />
<path d="M16.327807342198568,-79.99241726073546 L12.0,-88.0 L11.0,-89.0" fill="pink" fill-opacity="0.6" stroke="black" stroke-width="1" />
<path d="M12.0,88.0 L11.0,89.0 L4.504280143754966,90.5060952626827" fill="blue" fill-opacity="0.6" stroke="black" stroke-width="1" />
<path d="M12.0,-88.0 L11.0,-89.0 L4.504280143754966,-90.5060952626827" fill="purple" fill-opacity="0.6" stroke="black" stroke-width="1" />
<path d="M11.0,-11.0 L9.493904737317294,-4.504280143754966 L7.056990989208001,-4.480160634134773" fill="yellow" fill-opacity="0.6" stroke="black" stroke-width="1" />
<path d="M11.0,11.0 L9.493904737317294,4.504280143754966 L7.056990989208001,4.480160634134773" fill="brown" fill-opacity="0.6" stroke="black" stroke-width="1" />
<path d="M9.493904737317294,-4.504280143754966 L7.056990989208001,-4.480160634134773 L5.96667298897765,-2.8609998673229877" fill="pink" fill-opacity="0.6" stroke="black" stroke-width="1" />
<path d="M9.493904737317294,4.504280143754966 L7.056990989208001,4.480160634134773 L5.96667298897765,2.8609998673229877" fill="brown" fill-opacity="0.6" stroke="black" stroke-width="1" />
<path d="M7.056990989208001,-4.480160634134773 L5.96667298897765,-2.8609998673229877 L4.991416326002607,-2.3265083652653713" fill="brown" fill-opacity="0.6" stroke="black" stroke-width="1" />
<path d="M7.056990989208001,4.480160634134773 L5.96667298897765,2.8609998673229877 L4.991416326002607,2.3265083652653713" fill="black" fill-opacity="0.6" stroke="black" stroke-width="1" />
<path d="M5.96667298897765,-2.8609998673229877 L4.991416326002607,-2.3265083652653713 L4.823265614340505,-2.097604922259244" fill="blue" fill-opacity="0.6" stroke="black" stroke-width="1" />
<path d="M5.96667298897765,2.8609998673229877 L4.991416326002607,2.3265083652653713 L4.823265614340505,2.097604922259244" fill="orange" fill-opacity="0.6" stroke="black" stroke-width="1" />
<path d="M4.991416326002607,-2.3265083652653713 L4.823265614340505,-2.097604922259244 L2.9268925066410154,-2.044178796231576" fill="blue" fill-opacity="0.6" stroke="black" stroke-width="1" />
<path d="M4.991416326002607,2.3265083652653713 L4.823265614340505,2.097604922259244 L2.9268925066410154,2.044178796231576" fill="purple" fill-opacity="0.6" stroke="black" stroke-width="1" />
<path d="M4.823265614340505,-2.097604922259244 L2.9268925066410154,-2.044178796231576 L0.8139943706477804,-0.4413855596169648" fill="yellow" fill-opacity="0.6" stroke="black" stroke-width="1" />
<path d="M4.823265614340505,2.097604922259244 L2.9268925066410154,2.044178796231576 L0.8139943706477804,0.4413855596169648" fill="blue" fill-opacity="0.6" stroke="black" stroke-width="1" />
<path d="M2.9268925066410154,-2.044178796231576 L0.8139943706477804,-0.4413855596169648 L0.0,-0.0" fill="red" fill-opacity="0.6" stroke="black" stroke-width="1" />
<path d="M2.9268925066410154,2.044178796231576 L0.8139943706477804,0.4413855596169648 L0.0,-0.0" fill="yellow" fill-opacity="0.6" stroke="black" stroke-width="1" />
<path d="M-13.0,-0.0 L-17.709202351424732,-5.519635084416151 L-18.0,-0.0" fill="yellow" fill-opacity="0.6" stroke="black" stroke-width="1" />
<path d="M-13.0,-0.0 L-17.709202351424732,5.519635084416151 L-18.0,-0.0" fill="purple" fill-opacity="0.6" stroke="black" stroke-width="1" />
<path d="M-50.0,-14.0 L-46.196121624855735,-16.657006859607073 L-48.95428990506416,-22.04585645577955" fill="green" fill-opacity="0.6" stroke="black" stroke-width="1" />
<path d="M-50.0,14.0 L-46.196121624855735,16.657006859607073 L-48.95428990506416,22.04585645577955" fill="yellow" fill-opacity="0.6" stroke="black" stroke-width="1" />
<path d="M-46.196121624855735,-16.657006859607073 L-48.95428990506416,-22.04585645577955 L-50.0,-28.0" fill="yellow" fill-opacity="0.6" stroke="black" stroke-width="1" />
<path d="M-46.196121624855735,16.657006859607073 L-48.95428990506416,22.04585645577955 L-50.0,28.0" fill="brown" fill-opacity="0.6" stroke="black" stroke-width="1" />
<path d="M-48.0,50.0 L-48.0,52.0 L-41.0,59.0" fill="orange" fill-opacity="0.6" stroke="black" stroke-width="1" />
<path d="M-48.0,-50.0 L-48.0,-52.0 L-41.0,-59.0" fill="red" fill-opacity="0.6" stroke="black" stroke-width="1" />
<path d="M-48.0,52.0 L-41.0,59.0 L-38.0,62.0" fill="orange" fill-opacity="0.6" stroke="black" stroke-width="1" />
<path d="M-48.0,-52.0 L-41.0,-59.0 L-38.0,-62.0" fill="black" fill-opacity="0.6" stroke="black" stroke-width="1" />
<path d="M-41.0,59.0 L-38.0,62.0 L-22.0,78.0" fill="orange" fill-opacity="0.6" stroke="black" stroke-width="1" />
<path d="M-41.0,-59.0 L-38.0,-62.0 L-22.0,-78.0" fill="red" fill-opacity="0.6" stroke="black" stroke-width="1" />
<path d="M-38.0,62.0 L-22.0,78.0 L-16.327807342198568,79.99241726073546" fill="orange" fill-opacity="0.6" stroke="black" stroke-width="1" />
<path d="M-38.0,-62.0 L-22.0,-78.0 L-16.327807342198568,-79.99241726073546" fill="brown" fill-opacity="0.6" stroke="black" stroke-width="1" />
<path d="M-22.0,-22.0 L-20.007582739264528,-16.327807342198568 L-12.0,-12.0" fill="blue" fill-opacity="0.6" stroke="black" stroke-width="1" />
<path d="M-22.0,22.0 L-20.007582739264528,16.327807342198568 L-12.0,12.0" fill="purple" fill-opacity="0.6" stroke="black" stroke-width="1" />
<path d="M-16.327807342198568,79.99241726073546 L-12.0,88.0 L-11.0,89.0" fill="yellow" fill-opacity="0.6" stroke="black" stroke-width="1" />
<path d="M-16.327807342198568,-79.99241726073546 L-12.0,-88.0 L-11.0,-89.0" fill="blue" fill-opacity="0.6" stroke="black" stroke-width="1" />
<path d="M-12.0,88.0 L-11.0,89.0 L-4.504280143754966,90.5060952626827" fill="black" fill-opacity="0.6" stroke="black" stroke-width="1" />
<path d="M-12.0,-88.0 L-11.0,-89.0 L-4.504280143754966,-90.5060952626827" fill="green" fill-opacity="0.6" stroke="black" stroke-width="1" />
<path d="M-11.0,-11.0 L-9.493904737317294,-4.504280143754966 L-7.056990989208001,-4.480160634134773" fill="orange" fill-opacity="0.6" stroke="black" stroke-width="1" />
<path d="M-11.0,11.0 L-9.493904737317294,4.504280143754966 L-7.056990989208001,4.480160634134773" fill="black" fill-opacity="0.6" stroke="black" stroke-width="1" />
<path d="M-9.493904737317294,-4.504280143754966 L-7.056990989208001,-4.480160634134773 L-5.96667298897765,-2.8609998673229877" fill="purple" fill-opacity="0.6" stroke="black" stroke-width="1" />
<path d="M-9.493904737317294,4.504280143754966 L-7.056990989208001,4.480160634134773 L-5.96667298897765,2.8609998673229877" fill="red" fill-opacity="0.6" stroke="black" stroke-width="1" />
<path d="M-7.056990989208001,-4.480160634134773 L-5.96667298897765,-2.8609998673229877 L-4.991416326002607,-2.3265083652653713" fill="black" fill-opacity="0.6" stroke="black" stroke-width="1" />
<path d="M-7.056990989208001,4.480160634134773 L-5.96667298897765,2.8609998673229877 L-4.991416326002607,2.3265083652653713" fill="red" fill-opacity="0.6" stroke="black" stroke-width="1" />
<path d="M-5.96667298897765,-2.8609998673229877 L-4.991416326002607,-2.3265083652653713 L-4.823265614340505,-2.097604922259244" fill="pink" fill-opacity="0.6" stroke="black" stroke-width="1" />
<path d="M-5.96667298897765,2.8609998673229877 L-4.991416326002607,2.3265083652653713 L-4.823265614340505,2.097604922259244" fill="green" fill-opacity="0.6" stroke="black" stroke-width="1" />
<path d="M-4.991416326002607,-2.3265083652653713 L-4.823265614340505,-2.097604922259244 L-2.9268925066410154,-2.044178796231576" fill="red" fill-opacity="0.6" stroke="black" stroke-width="1" />
<path d="M-4.991416326002607,2.3265083652653713 L-4.823265614340505,2.097604922259244 L-2.9268925066410154,2.044178796231576" fill="red" fill-opacity="0.6" stroke="black" stroke-width="1" />
<path d="M-4.823265614340505,-2.097604922259244 L-2.9268925066410154,-2.044178796231576 L-0.8139943706477804,-0.4413855596169648" fill="green" fill-opacity="0.6" stroke="black" stroke-width="1" />
<path d="M-4.823265614340505,2.097604922259244 L-2.9268925066410154,2.044178796231576 L-0.8139943706477804,0.4413855596169648" fill="pink" fill-opacity="0.6" stroke="black" stroke-width="1" />
<path d="M-2.9268925066410154,-2.044178796231576 L-0.8139943706477804,-0.4413855596169648 L0.0,-0.0" fill="orange" fill-opacity="0.6" stroke="black" stroke-width="1" />
<path d="M-2.9268925066410154,2.044178796231576 L-0.8139943706477804,0.4413855596169648 L0.0,-0.0" fill="orange" fill-opacity="0.6" stroke="black" stroke-width="1" />
<path d="M87.0,-0.0 L82.29079764857526,5.519635084416151 L82.0,-0.0" fill="blue" fill-opacity="0.6" stroke="black" stroke-width="1" />
<path d="M87.0,-0.0 L82.29079764857526,-5.519635084416151 L82.0,-0.0" fill="red" fill-opacity="0.6" stroke="black" stroke-width="1" />
<path d="M50.0,14.0 L53.803878375144265,16.657006859607073 L51.04571009493584,22.04585645577955" fill="green" fill-opacity="0.6" stroke="black" stroke-width="1" />
<path d="M50.0,-14.0 L53.803878375144265,-16.657006859607073 L51.04571009493584,-22.04585645577955" fill="brown" fill-opacity="0.6" stroke="black" stroke-width="1" />
<path d="M53.803878375144265,16.657006859607073 L51.04571009493584,22.04585645577955 L50.0,28.0" fill="yellow" fill-opacity="0.6" stroke="black" stroke-width="1" />
<path d="M53.803878375144265,-16.657006859607073 L51.04571009493584,-22.04585645577955 L50.0,-28.0" fill="blue" fill-opacity="0.6" stroke="black" stroke-width="1" />
<path d="M50.0,48.0 L52.0,48.0 L59.0,41.0" fill="orange" fill-opacity="0.6" stroke="black" stroke-width="1" />
<path d="M50.0,-48.0 L52.0,-48.0 L59.0,-41.0" fill="pink" fill-opacity="0.6" stroke="black" stroke-width="1" />
<path d="M52.0,48.0 L59.0,41.0 L62.0,38.0" fill="red" fill-opacity="0.6" stroke="black" stroke-width="1" />
<path d="M52.0,-48.0 L59.0,-41.0 L62.0,-38.0" fill="yellow" fill-opacity="0.6" stroke="black" stroke-width="1" />
<path d="M59.0,41.0 L62.0,38.0 L78.0,22.0" fill="blue" fill-opacity="0.6" stroke="black" stroke-width="1" />
<path d="M59.0,-41.0 L62.0,-38.0 L78.0,-22.0" fill="red" fill-opacity="0.6" stroke="black" stroke-width="1" />
<path d="M62.0,38.0 L78.0,22.0 L79.99241726073546,16.327807342198568" fill="brown" fill-opacity="0.6" stroke="black" stroke-width="1" />
<path d="M62.0,-38.0 L78.0,-22.0 L79.99241726073546,-16.327807342198568" fill="green" fill-opacity="0.6" stroke="black" stroke-width="1" />
<path d="M78.0,22.0 L79.99241726073546,16.327807342198568 L88.0,12.0" fill="orange" fill-opacity="0.6" stroke="black" stroke-width="1" />
<path d="M78.0,-22.0 L79.99241726073546,-16.327807342198568 L88.0,-12.0" fill="orange" fill-opacity="0.6" stroke="black" stroke-width="1" />
<path d="M79.99241726073546,16.327807342198568 L88.0,12.0 L89.0,11.0" fill="orange" fill-opacity="0.6" stroke="black" stroke-width="1" />
<path d="M79.99241726073546,-16.327807342198568 L88.0,-12.0 L89.0,-11.0" fill="purple" fill-opacity="0.6" stroke="black" stroke-width="1" />
<path d="M88.0,12.0 L89.0,11.0 L90.5060952626827,4.504280143754966" fill="pink" fill-opacity="0.6" stroke="black" stroke-width="1" />
<path d="M88.0,-12.0 L89.0,-11.0 L90.5060952626827,-4.504280143754966" fill="red" fill-opacity="0.6" stroke="black" stroke-width="1" />
<path d="M89.0,11.0 L90.5060952626827,4.504280143754966 L92.943009010792,4.480160634134773" fill="orange" fill-opacity="0.6" stroke="black" stroke-width="1" />
<path d="M89.0,-11.0 L90.5060952626827,-4.504280143754966 L92.943009010792,-4.480160634134773" fill="red" fill-opacity="0.6" stroke="black" stroke-width="1" />
<path d="M90.5060952626827,4.504280143754966 L92.943009010792,4.480160634134773 L94.03332701102235,2.8609998673229877" fill="yellow" fill-opacity="0.6" stroke="black" stroke-width="1" />
<path d="M90.5060952626827,-4.504280143754966 L92.943009010792,-4.480160634134773 L94.03332701102235,-2.8609998673229877" fill="yellow" fill-opacity="0.6" stroke="black" stroke-width="1" />
<path d="M92.943009010792,4.480160634134773 L94.03332701102235,2.8609998673229877 L95.00858367399739,2.3265083652653713" fill="orange" fill-opacity="0.6" stroke="black" stroke-width="1" />
<path d="M92.943009010792,-4.480160634134773 L94.03332701102235,-2.8609998673229877 L95.00858367399739,-2.3265083652653713" fill="purple" fill-opacity="0.6" stroke="black" stroke-width="1" />
<path d="M94.03332701102235,2.8609998673229877 L95.00858367399739,2.3265083652653713 L95.1767343856595,2.097604922259244" fill="purple" fill-opacity="0.6" stroke="black" stroke-width="1" />
<path d="M94.03332701102235,-2.8609998673229877 L95.00858367399739,-2.3265083652653713 L95.1767343856595,-2.097604922259244" fill="blue" fill-opacity="0.6" stroke="black" stroke-width="1" />
<path d="M95.00858367399739,2.3265083652653713 L95.1767343856595,2.097604922259244 L97.07310749335898,2.044178796231576" fill="purple" fill-opacity="0.6" stroke="black" stroke-width="1" />
<path d="M95.00858367399739,-2.3265083652653713 L95.1767343856595,-2.097604922259244 L97.07310749335898,-2.044178796231576" fill="yellow" fill-opacity="0.6" stroke="black" stroke-width="1" />
<path d="M95.1767343856595,2.097604922259244 L97.07310749335898,2.044178796231576 L99.18600562935222,0.4413855596169648" fill="green" fill-opacity="0.6" stroke="black" stroke-width="1" />
<path d="M95.1767343856595,-2.097604922259244 L97.07310749335898,-2.044178796231576 L99.18600562935222,-0.4413855596169648" fill="red" fill-opacity="0.6" stroke="black" stroke-width="1" />
<path d="M97.07310749335898,2.044178796231576 L99.18600562935222,0.4413855596169648 L100.0,-0.0" fill="purple" fill-opacity="0.6" stroke="black" stroke-width="1" />
<path d="M97.07310749335898,-2.044178796231576 L99.18600562935222,-0.4413855596169648 L100.0,-0.0" fill="purple" fill-opacity="0.6" stroke="black" stroke-width="1" />
<path d="M0.0,-13.0 L5.519635084416151,-17.709202351424732 L0.0,-18.0" fill="brown" fill-opacity="0.6" stroke="black" stroke-width="1" />
<path d="M0.0,13.0 L5.519635084416151,17.709202351424732 L0.0,18.0" fill="orange" fill-opacity="0.6" stroke="black" stroke-width="1" />
<path d="M0.0,87.0 L5.519635084416151,82.29079764857526 L0.0,82.0" fill="brown" fill-opacity="0.6" stroke="black" stroke-width="1" />
<path d="M0.0,-87.0 L5.519635084416151,-82.29079764857526 L0.0,-82.0" fill="green" fill-opacity="0.6" stroke="black" stroke-width="1" />
<path d="M14.0,-50.0 L16.657006859607073,-46.196121624855735 L22.04585645577955,-48.95428990506416" fill="brown" fill-opacity="0.6" stroke="black" stroke-width="1" />
<path d="M14.0,50.0 L16.657006859607073,46.196121624855735 L22.04585645577955,48.95428990506416" fill="pink" fill-opacity="0.6" stroke="black" stroke-width="1" />
<path d="M14.0,50.0 L16.657006859607073,53.803878375144265 L22.04585645577955,51.04571009493584" fill="brown" fill-opacity="0.6" stroke="black" stroke-width="1" />
<path d="M14.0,-50.0 L16.657006859607073,-53.803878375144265 L22.04585645577955,-51.04571009493584" fill="black" fill-opacity="0.6" stroke="black" stroke-width="1" />
<path d="M16.657006859607073,-46.196121624855735 L22.04585645577955,-48.95428990506416 L28.0,-50.0" fill="red" fill-opacity="0.6" stroke="black" stroke-width="1" />
<path d="M16.657006859607073,46.196121624855735 L22.04585645577955,48.95428990506416 L28.0,50.0" fill="blue" fill-opacity="0.6" stroke="black" stroke-width="1" />
<path d="M16.657006859607073,53.803878375144265 L22.04585645577955,51.04571009493584 L28.0,50.0" fill="brown" fill-opacity="0.6" stroke="black" stroke-width="1" />
<path d="M16.657006859607073,-53.803878375144265 L22.04585645577955,-51.04571009493584 L28.0,-50.0" fill="red" fill-opacity="0.6" stroke="black" stroke-width="1" />
<path d="M22.0,-22.0 L16.327807342198568,-20.007582739264528 L12.0,-12.0" fill="red" fill-opacity="0.6" stroke="black" stroke-width="1" />
<path d="M22.0,22.0 L16.327807342198568,20.007582739264528 L12.0,12.0" fill="red" fill-opacity="0.6" stroke="black" stroke-width="1" />
<path d="M22.0,78.0 L16.327807342198568,79.99241726073546 L12.0,88.0" fill="green" fill-opacity="0.6" stroke="black" stroke-width="1" />
<path d="M22.0,-78.0 L16.327807342198568,-79.99241726073546 L12.0,-88.0" fill="brown" fill-opacity="0.6" stroke="black" stroke-width="1" />
<path d="M11.0,-11.0 L4.504280143754966,-9.493904737317294 L4.480160634134773,-7.056990989208001" fill="purple" fill-opacity="0.6" stroke="black" stroke-width="1" />
<path d="M11.0,11.0 L4.504280143754966,9.493904737317294 L4.480160634134773,7.056990989208001" fill="red" fill-opacity="0.6" stroke="black" stroke-width="1" />
<path d="M11.0,89.0 L4.504280143754966,90.5060952626827 L4.480160634134773,92.943009010792" fill="green" fill-opacity="0.6" stroke="black" stroke-width="1" />
<path d="M11.0,-89.0 L4.504280143754966,-90.5060952626827 L4.480160634134773,-92.943009010792" fill="red" fill-opacity="0.6" stroke="black" stroke-width="1" />
<path d="M4.504280143754966,-9.493904737317294 L4.480160634134773,-7.056990989208001 L2.8609998673229877,-5.96667298897765" fill="orange" fill-opacity="0.6" stroke="black" stroke-width="1" />
<path d="M4.504280143754966,9.493904737317294 L4.480160634134773,7.056990989208001 L2.8609998673229877,5.96667298897765" fill="brown" fill-opacity="0.6" stroke="black" stroke-width="1" />
<path d="M4.504280143754966,90.5060952626827 L4.480160634134773,92.943009010792 L2.8609998673229877,94.03332701102235" fill="brown" fill-opacity="0.6" stroke="black" stroke-width="1" />
<path d="M4.504280143754966,-90.5060952626827 L4.480160634134773,-92.943009010792 L2.8609998673229877,-94.03332701102235" fill="brown" fill-opacity="0.6" stroke="black" stroke-width="1" />
<path d="M4.480160634134773,-7.056990989208001 L2.8609998673229877,-5.96667298897765 L2.3265083652653713,-4.991416326002607" fill="green" fill-opacity="0.6" stroke="black" stroke-width="1" />
<path d="M4.480160634134773,7.056990989208001 L2.8609998673229877,5.96667298897765 L2.3265083652653713,4.991416326002607" fill="pink" fill-opacity="0.6" stroke="black" stroke-width="1" />
<path d="M4.480160634134773,92.943009010792 L2.8609998673229877,94.03332701102235 L2.3265083652653713,95.00858367399739" fill="purple" fill-opacity="0.6" stroke="black" stroke-width="1" />
<path d="M4.480160634134773,-92.943009010792 L2.8609998673229877,-94.03332701102235 L2.3265083652653713,-95.00858367399739" fill="orange" fill-opacity="0.6" stroke="black" stroke-width="1" />
<path d="M2.8609998673229877,-5.96667298897765 L2.3265083652653713,-4.991416326002607 L2.097604922259244,-4.823265614340505" fill="black" fill-opacity="0.6" stroke="black" stroke-width="1" />
<path d="M2.8609998673229877,5.96667298897765 L2.3265083652653713,4.991416326002607 L2.097604922259244,4.823265614340505" fill="black" fill-opacity="0.6" stroke="black" stroke-width="1" />
<path d="M2.8609998673229877,94.03332701102235 L2.3265083652653713,95.00858367399739 L2.097604922259244,95.1767343856595" fill="blue" fill-opacity="0.6" stroke="black" stroke-width="1" />
<path d="M2.8609998673229877,-94.03332701102235 L2.3265083652653713,-95.00858367399739 L2.097604922259244,-95.1767343856595" fill="brown" fill-opacity="0.6" stroke="black" stroke-width="1" />
<path d="M2.3265083652653713,-4.991416326002607 L2.097604922259244,-4.823265614340505 L2.044178796231576,-2.9268925066410154" fill="pink" fill-opacity="0.6" stroke="black" stroke-width="1" />
<path d="M2.3265083652653713,4.991416326002607 L2.097604922259244,4.823265614340505 L2.044178796231576,2.9268925066410154" fill="black" fill-opacity="0.6" stroke="black" stroke-width="1" />
<path d="M2.3265083652653713,95.00858367399739 L2.097604922259244,95.1767343856595 L2.044178796231576,97.07310749335898" fill="green" fill-opacity="0.6" stroke="black" stroke-width="1" />
<path d="M2.3265083652653713,-95.00858367399739 L2.097604922259244,-95.1767343856595 L2.044178796231576,-97.07310749335898" fill="pink" fill-opacity="0.6" stroke="black" stroke-width="1" />
<path d="M2.097604922259244,-4.823265614340505 L2.044178796231576,-2.9268925066410154 L0.4413855596169648,-0.8139943706477804" fill="black" fill-opacity="0.6" stroke="black" stroke-width="1" />
<path d="M2.097604922259244,4.823265614340505 L2.044178796231576,2.9268925066410154 L0.4413855596169648,0.8139943706477804" fill="red" fill-opacity="0.6" stroke="black" stroke-width="1" />
<path d="M2.097604922259244,95.1767343856595 L2.044178796231576,97.07310749335898 L0.4413855596169648,99.18600562935222" fill="yellow" fill-opacity="0.6" stroke="black" stroke-width="1" />
<path d="M2.097604922259244,-95.1767343856595 L2.044178796231576,-97.07310749335898 L0.4413855596169648,-99.18600562935222" fill="black" fill-opacity="0.6" stroke="black" stroke-width="1" />
<path d="M2.044178796231576,-2.9268925066410154 L0.4413855596169648,-0.8139943706477804 L0.0,-0.0" fill="green" fill-opacity="0.6" stroke="black" stroke-width="1" />
<path d="M2.044178796231576,2.9268925066410154 L0.4413855596169648,0.8139943706477804 L0.0,-0.0" fill="orange" fill-opacity="0.6" stroke="black" stroke-width="1" />
<path d="M2.044178796231576,97.07310749335898 L0.4413855596169648,99.18600562935222 L0.0,100.0" fill="green" fill-opacity="0.6" stroke="black" stroke-width="1" />
<path d="M2.044178796231576,-97.07310749335898 L0.4413855596169648,-99.18600562935222 L0.0,-100.0" fill="pink" fill-opacity="0.6" stroke="black" stroke-width="1" />
<path d="M0.0,87.0 L-5.519635084416151,82.29079764857526 L0.0,82.0" fill="pink" fill-opacity="0.6" stroke="black" stroke-width="1" />
<path d="M0.0,-13.0 L-5.519635084416151,-17.709202351424732 L0.0,-18.0" fill="green" fill-opacity="0.6" stroke="black" stroke-width="1" />
<path d="M0.0,13.0 L-5.519635084416151,17.709202351424736 L0.0,18.0" fill="green" fill-opacity="0.6" stroke="black" stroke-width="1" />
<path d="M0.0,-87.0 L-5.519635084416151,-82.29079764857526 L0.0,-82.0" fill="blue" fill-opacity="0.6" stroke="black" stroke-width="1" />
<path d="M-14.0,50.0 L-16.657006859607073,53.803878375144265 L-22.04585645577955,51.04571009493584" fill="yellow" fill-opacity="0.6" stroke="black" stroke-width="1" />
<path d="M-14.0,-50.0 L-16.657006859607073,-46.196121624855735 L-22.04585645577955,-48.95428990506416" fill="brown" fill-opacity="0.6" stroke="black" stroke-width="1" />
<path d="M-14.0,50.0 L-16.657006859607073,46.196121624855735 L-22.04585645577955,48.95428990506416" fill="yellow" fill-opacity="0.6" stroke="black" stroke-width="1" />
<path d="M-14.0,-50.0 L-16.657006859607073,-53.803878375144265 L-22.04585645577955,-51.04571009493584" fill="brown" fill-opacity="0.6" stroke="black" stroke-width="1" />
<path d="M-16.657006859607073,53.803878375144265 L-22.04585645577955,51.04571009493584 L-28.0,50.0" fill="purple" fill-opacity="0.6" stroke="black" stroke-width="1" />
<path d="M-16.657006859607073,-46.196121624855735 L-22.04585645577955,-48.95428990506416 L-28.0,-50.0" fill="yellow" fill-opacity="0.6" stroke="black" stroke-width="1" />
<path d="M-16.657006859607073,46.196121624855735 L-22.04585645577955,48.95428990506416 L-28.0,50.0" fill="blue" fill-opacity="0.6" stroke="black" stroke-width="1" />
<path d="M-16.657006859607073,-53.803878375144265 L-22.04585645577955,-51.04571009493584 L-28.0,-50.0" fill="blue" fill-opacity="0.6" stroke="black" stroke-width="1" />
<path d="M-22.0,78.0 L-16.327807342198568,79.99241726073546 L-12.0,88.0" fill="black" fill-opacity="0.6" stroke="black" stroke-width="1" />
<path d="M-22.0,-22.0 L-16.327807342198568,-20.007582739264528 L-12.0,-12.0" fill="pink" fill-opacity="0.6" stroke="black" stroke-width="1" />
<path d="M-22.0,22.0 L-16.327807342198568,20.007582739264535 L-12.0,12.0" fill="green" fill-opacity="0.6" stroke="black" stroke-width="1" />
<path d="M-22.0,-78.0 L-16.327807342198568,-79.99241726073546 L-12.0,-88.0" fill="purple" fill-opacity="0.6" stroke="black" stroke-width="1" />
<path d="M-11.0,89.0 L-4.504280143754966,90.5060952626827 L-4.480160634134773,92.943009010792" fill="pink" fill-opacity="0.6" stroke="black" stroke-width="1" />
<path d="M-11.0,-11.0 L-4.504280143754966,-9.493904737317294 L-4.480160634134773,-7.056990989208001" fill="black" fill-opacity="0.6" stroke="black" stroke-width="1" />
<path d="M-11.0,11.0 L-4.504280143754966,9.493904737317294 L-4.480160634134773,7.056990989208003" fill="black" fill-opacity="0.6" stroke="black" stroke-width="1" />
<path d="M-11.0,-89.0 L-4.504280143754966,-90.5060952626827 L-4.480160634134773,-92.943009010792" fill="brown" fill-opacity="0.6" stroke="black" stroke-width="1" />
<path d="M-4.504280143754966,90.5060952626827 L-4.480160634134773,92.943009010792 L-2.8609998673229877,94.03332701102235" fill="green" fill-opacity="0.6" stroke="black" stroke-width="1" />
<path d="M-4.504280143754966,-9.493904737317294 L-4.480160634134773,-7.056990989208001 L-2.8609998673229877,-5.96667298897765" fill="brown" fill-opacity="0.6" stroke="black" stroke-width="1" />
<path d="M-4.504280143754966,9.493904737317294 L-4.480160634134773,7.056990989208003 L-2.8609998673229877,5.966672988977649" fill="purple" fill-opacity="0.6" stroke="black" stroke-width="1" />
<path d="M-4.504280143754966,-90.5060952626827 L-4.480160634134773,-92.943009010792 L-2.8609998673229877,-94.03332701102235" fill="brown" fill-opacity="0.6" stroke="black" stroke-width="1" />
<path d="M-4.480160634134773,92.943009010792 L-2.8609998673229877,94.03332701102235 L-2.3265083652653713,95.00858367399739" fill="pink" fill-opacity="0.6" stroke="black" stroke-width="1" />
<path d="M-4.480160634134773,-7.056990989208001 L-2.8609998673229877,-5.96667298897765 L-2.3265083652653713,-4.991416326002607" fill="black" fill-opacity="0.6" stroke="black" stroke-width="1" />
<path d="M-4.480160634134773,7.056990989208003 L-2.8609998673229877,5.966672988977649 L-2.3265083652653713,4.991416326002607" fill="pink" fill-opacity="0.6" stroke="black" stroke-width="1" />
<path d="M-4.480160634134773,-92.943009010792 L-2.8609998673229877,-94.03332701102235 L-2.3265083652653713,-95.00858367399739" fill="pink" fill-opacity="0.6" stroke="black" stroke-width="1" />
<path d="M-2.8609998673229877,94.03332701102235 L-2.3265083652653713,95.00858367399739 L-2.097604922259244,95.1767343856595" fill="black" fill-opacity="0.6" stroke="black" stroke-width="1" />
<path d="M-2.8609998673229877,-5.96667298897765 L-2.3265083652653713,-4.991416326002607 L-2.097604922259244,-4.823265614340505" fill="purple" fill-opacity="0.6" stroke="black" stroke-width="1" />
<path d="M-2.8609998673229877,5.966672988977649 L-2.3265083652653713,4.991416326002607 L-2.097604922259244,4.8232656143404995" fill="orange" fill-opacity="0.6" stroke="black" stroke-width="1" />
<path d="M-2.8609998673229877,-94.03332701102235 L-2.3265083652653713,-95.00858367399739 L-2.097604922259244,-95.1767343856595" fill="purple" fill-opacity="0.6" stroke="black" stroke-width="1" />
<path d="M-2.3265083652653713,95.00858367399739 L-2.097604922259244,95.1767343856595 L-2.044178796231576,97.07310749335899" fill="brown" fill-opacity="0.6" stroke="black" stroke-width="1" />
<path d="M-2.3265083652653713,-4.991416326002607 L-2.097604922259244,-4.823265614340505 L-2.044178796231576,-2.9268925066410154" fill="purple" fill-opacity="0.6" stroke="black" stroke-width="1" />
<path d="M-2.3265083652653713,4.991416326002607 L-2.097604922259244,4.8232656143404995 L-2.044178796231576,2.9268925066410105" fill="black" fill-opacity="0.6" stroke="black" stroke-width="1" />
<path d="M-2.3265083652653713,-95.00858367399739 L-2.097604922259244,-95.1767343856595 L-2.044178796231576,-97.07310749335898" fill="green" fill-opacity="0.6" stroke="black" stroke-width="1" />
<path d="M-2.097604922259244,95.1767343856595 L-2.044178796231576,97.07310749335899 L-0.4413855596169648,99.18600562935222" fill="black" fill-opacity="0.6" stroke="black" stroke-width="1" />
<path d="M-2.097604922259244,-4.823265614340505 L-2.044178796231576,-2.9268925066410154 L-0.4413855596169648,-0.8139943706477804" fill="purple" fill-opacity="0.6" stroke="black" stroke-width="1" />
<path d="M-2.097604922259244,4.8232656143404995 L-2.044178796231576,2.9268925066410105 L-0.4413855596169648,0.8139943706477766" fill="pink" fill-opacity="0.6" stroke="black" stroke-width="1" />
<path d="M-2.097604922259244,-95.1767343856595 L-2.044178796231576,-97.07310749335898 L-0.4413855596169648,-99.18600562935222" fill="red" fill-opacity="0.6" stroke="black" stroke-width="1" />
<path d="M-2.044178796231576,97.07310749335899 L-0.4413855596169648,99.18600562935222 L0.0,100.0" fill="yellow" fill-opacity="0.6" stroke="black" stroke-width="1" />
<path d="M-2.044178796231576,-2.9268925066410154 L-0.4413855596169648,-0.8139943706477804 L0.0,-0.0" fill="purple" fill-opacity="0.6" stroke="black" stroke-width="1" />
<path d="M-2.044178796231576,2.9268925066410105 L-0.4413855596169648,0.8139943706477766 L0.0,-0.0" fill="black" fill-opacity="0.6" stroke="black" stroke-width="1" />
<path d="M-2.044178796231576,-97.07310749335898 L-0.4413855596169648,-99.18600562935222 L0.0,-100.0" fill="green" fill-opacity="0.6" stroke="black" stroke-width="1" />
<path d="M-87.0,-0.0 L-82.29079764857526,-5.519635084416151 L-82.0,-0.0" fill="purple" fill-opacity="0.6" stroke="black" stroke-width="1" />
<path d="M-87.0,-0.0 L-82.29079764857526,5.519635084416151 L-82.0,-0.0" fill="pink" fill-opacity="0.6" stroke="black" stroke-width="1" />
<path d="M-50.0,-14.0 L-53.803878375144265,-16.657006859607073 L-51.04571009493584,-22.04585645577955" fill="orange" fill-opacity="0.6" stroke="black" stroke-width="1" />
<path d="M-50.0,14.0 L-53.803878375144265,16.657006859607073 L-51.04571009493584,22.04585645577955" fill="brown" fill-opacity="0.6" stroke="black" stroke-width="1" />
<path d="M-53.803878375144265,-16.657006859607073 L-51.04571009493584,-22.04585645577955 L-50.0,-28.0" fill="green" fill-opacity="0.6" stroke="black" stroke-width="1" />
<path d="M-53.803878375144265,16.657006859607073 L-51.04571009493584,22.04585645577955 L-50.0,28.0" fill="yellow" fill-opacity="0.6" stroke="black" stroke-width="1" />
<path d="M-50.0,-48.0 L-52.0,-48.0 L-59.0,-41.0" fill="black" fill-opacity="0.6" stroke="black" stroke-width="1" />
<path d="M-50.0,48.0 L-52.0,48.0 L-59.0,41.0" fill="yellow" fill-opacity="0.6" stroke="black" stroke-width="1" />
<path d="M-52.0,-48.0 L-59.0,-41.0 L-62.0,-38.0" fill="black" fill-opacity="0.6" stroke="black" stroke-width="1" />
<path d="M-52.0,48.0 L-59.0,41.0 L-62.0,38.0" fill="blue" fill-opacity="0.6" stroke="black" stroke-width="1" />
<path d="M-59.0,-41.0 L-62.0,-38.0 L-78.0,-22.0" fill="orange" fill-opacity="0.6" stroke="black" stroke-width="1" />
<path d="M-59.0,41.0 L-62.0,38.0 L-78.0,22.0" fill="purple" fill-opacity="0.6" stroke="black" stroke-width="1" />
<path d="M-62.0,-38.0 L-78.0,-22.0 L-79.99241726073546,-16.327807342198568" fill="blue" fill-opacity="0.6" stroke="black" stroke-width="1" />
<path d="M-62.0,38.0 L-78.0,22.0 L-79.99241726073546,16.327807342198568" fill="yellow" fill-opacity="0.6" stroke="black" stroke-width="1" />
<path d="M-78.0,-22.0 L-79.99241726073546,-16.327807342198568 L-88.0,-12.0" fill="green" fill-opacity="0.6" stroke="black" stroke-width="1" />
<path d="M-78.0,22.0 L-79.99241726073546,16.327807342198568 L-88.0,12.0" fill="yellow" fill-opacity="0.6" stroke="black" stroke-width="1" />
<path d="M-79.99241726073546,-16.327807342198568 L-88.0,-12.0 L-89.0,-11.0" fill="yellow" fill-opacity="0.6" stroke="black" stroke-width="1" />
<path d="M-79.99241726073546,16.327807342198568 L-88.0,12.0 L-89.0,11.0" fill="red" fill-opacity="0.6" stroke="black" stroke-width="1" />
<path d="M-88.0,-12.0 L-89.0,-11.0 L-90.5060952626827,-4.504280143754966" fill="brown" fill-opacity="0.6" stroke="black" stroke-width="1" />
<path d="M-88.0,12.0 L-89.0,11.0 L-90.5060952626827,4.504280143754966" fill="purple" fill-opacity="0.6" stroke="black" stroke-width="1" />
<path d="M-89.0,-11.0 L-90.5060952626827,-4.504280143754966 L-92.943009010792,-4.480160634134773" fill="black" fill-opacity="0.6" stroke="black" stroke-width="1" />
<path d="M-89.0,11.0 L-90.5060952626827,4.504280143754966 L-92.943009010792,4.480160634134773" fill="black" fill-opacity="0.6" stroke="black" stroke-width="1" />
<path d="M-90.5060952626827,-4.504280143754966 L-92.943009010792,-4.480160634134773 L-94.03332701102235,-2.8609998673229877" fill="red" fill-opacity="0.6" stroke="black" stroke-width="1" />
<path d="M-90.5060952626827,4.504280143754966 L-92.943009010792,4.480160634134773 L-94.03332701102235,2.8609998673229877" fill="yellow" fill-opacity="0.6" stroke="black" stroke-width="1" />
<path d="M-92.943009010792,-4.480160634134773 L-94.03332701102235,-2.8609998673229877 L-95.00858367399739,-2.3265083652653713" fill="purple" fill-opacity="0.6" stroke="black" stroke-width="1" />
<path d="M-92.943009010792,4.480160634134773 L-94.03332701102235,2.8609998673229877 L-95.00858367399739,2.3265083652653713" fill="yellow" fill-opacity="0.6" stroke="black" stroke-width="1" />
<path d="M-94.03332701102235,-2.8609998673229877 L-95.00858367399739,-2.3265083652653713 L-95.1767343856595,-2.097604922259244" fill="yellow" fill-opacity="0.6" stroke="black" stroke-width="1" />
<path d="M-94.03332701102235,2.8609998673229877 L-95.00858367399739,2.3265083652653713 L-95.1767343856595,2.097604922259244" fill="blue" fill-opacity="0.6" stroke="black" stroke-width="1" />
<path d="M-95.00858367399739,-2.3265083652653713 L-95.1767343856595,-2.097604922259244 L-97.07310749335898,-2.044178796231576" fill="blue" fill-opacity="0.6" stroke="black" stroke-width="1" />
<path d="M-95.00858367399739,2.3265083652653713 L-95.1767343856595,2.097604922259244 L-97.07310749335898,2.044178796231576" fill="black" fill-opacity="0.6" stroke="black" stroke-width="1" />
<path d="M-95.1767343856595,-2.097604922259244 L-97.07310749335898,-2.044178796231576 L-99.18600562935222,-0.4413855596169648" fill="green" fill-opacity="0.6" stroke="black" stroke-width="1" />
<path d="M-95.1767343856595,2.097604922259244 L-97.07310749335898,2.044178796231576 L-99.18600562935222,0.4413855596169648" fill="orange" fill-opacity="0.6" stroke="black" stroke-width="1" />
<path d="M-97.07310749335898,-2.044178796231576 L-99.18600562935222,-0.4413855596169648 L-100.0,-0.0" fill="black" fill-opacity="0.6" stroke="black" stroke-width="1" />
<path d="M-97.07310749335898,2.044178796231576 L-99.18600562935222,0.4413855596169648 L-100.0,-0.0" fill="black" fill-opacity="0.6" stroke="black" stroke-width="1" />
</svg>