<?xml version="1.0" encoding="UTF-8"?>
<svg xmlns="http://www.w3.org/2000/svg" xmlns:xlink="http://www.w3.org/1999/xlink"
     width="250" height="250" viewBox="-125.0 -125.0 250 250">
<defs>
</defs>
<path d="M14.0,-0.0 L17.415022658467095,-4.97958727544702 L18.325913224148017,-5.362868124149789" fill-opacity="0" stroke="black" stroke-width="1" />
<path d="M14.0,-0.0 L17.415022658467095,4.97958727544702 L18.325913224148017,5.362868124149789" fill-opacity="0" stroke="black" stroke-width="1" />
<path d="M17.415022658467095,-4.97958727544702 L18.325913224148017,-5.362868124149789 L29.78918984755747,-15.244846308932217" fill-opacity="0" stroke="black" stroke-width="1" />
<path d="M17.415022658467095,4.97958727544702 L18.325913224148017,5.362868124149789 L29.78918984755747,15.244846308932217" fill-opacity="0" stroke="black" stroke-width="1" />
<path d="M18.325913224148017,-5.362868124149789 L29.78918984755747,-15.244846308932217 L33.0,-0.0" fill-opacity="0" stroke="black" stroke-width="1" />
<path d="M18.325913224148017,5.362868124149789 L29.78918984755747,15.244846308932217 L33.0,-0.0" fill-opacity="0" stroke="black" stroke-width="1" />
<path d="M39.0,61.0 L33.0,67.0 L24.0,76.0" fill-opacity="0" stroke="black" stroke-width="1" />
<path d="M39.0,-61.0 L33.0,-67.0 L24.0,-76.0" fill-opacity="0" stroke="black" stroke-width="1" />
<path d="M41.0,59.0 L39.0,61.0 L33.0,67.0" fill-opacity="0" stroke="black" stroke-width="1" />
<path d="M41.0,-59.0 L39.0,-61.0 L33.0,-67.0" fill-opacity="0" stroke="black" stroke-width="1" />
<path d="M50.0,50.0 L41.0,59.0 L39.0,61.0" fill-opacity="0" stroke="black" stroke-width="1" />
<path d="M50.0,-50.0 L41.0,-59.0 L39.0,-61.0" fill-opacity="0" stroke="black" stroke-width="1" />
<path d="M50.0,-8.0 L34.03441883814812,-19.130583234167567 L45.45903612175807,-20.13211409376331" fill-opacity="0" stroke="black" stroke-width="1" />
<path d="M50.0,8.0 L34.03441883814812,19.130583234167567 L45.45903612175807,20.13211409376331" fill-opacity="0" stroke="black" stroke-width="1" />
<path d="M34.03441883814812,-19.130583234167567 L45.45903612175807,-20.13211409376331 L45.576260592562605,-20.34822686202169" fill-opacity="0" stroke="black" stroke-width="1" />
<path d="M34.03441883814812,19.130583234167567 L45.45903612175807,20.13211409376331 L45.576260592562605,20.34822686202169" fill-opacity="0" stroke="black" stroke-width="1" />
<path d="M45.45903612175807,-20.13211409376331 L45.576260592562605,-20.34822686202169 L50.0,-28.0" fill-opacity="0" stroke="black" stroke-width="1" />
<path d="M45.45903612175807,20.13211409376331 L45.576260592562605,20.34822686202169 L50.0,28.0" fill-opacity="0" stroke="black" stroke-width="1" />
<path d="M50.0,-28.0 L48.779676505064984,-28.11934158186234 L50.0,-34.0" fill-opacity="0" stroke="black" stroke-width="1" />
<path d="M50.0,28.0 L48.779676505064984,28.11934158186234 L50.0,34.0" fill-opacity="0" stroke="black" stroke-width="1" />
<path d="M33.0,67.0 L24.0,76.0 L14.463535131597943,78.65295174766078" fill-opacity="0" stroke="black" stroke-width="1" />
<path d="M33.0,-67.0 L24.0,-76.0 L14.463535131597943,-78.65295174766078" fill-opacity="0" stroke="black" stroke-width="1" />
<path d="M24.0,-24.0 L21.347048252339214,-14.463535131597943 L6.957435107921201,-4.828804396583873" fill-opacity="0" stroke="black" stroke-width="1" />
<path d="M24.0,24.0 L21.347048252339214,14.463535131597943 L6.957435107921201,4.828804396583873" fill-opacity="0" stroke="black" stroke-width="1" />
<path d="M21.347048252339214,-14.463535131597943 L6.957435107921201,-4.828804396583873 L6.594767958385361,-3.3485743216060793" fill-opacity="0" stroke="black" stroke-width="1" />
<path d="M21.347048252339214,14.463535131597943 L6.957435107921201,4.828804396583873 L6.594767958385361,3.3485743216060793" fill-opacity="0" stroke="black" stroke-width="1" />
<path d="M6.957435107921201,-4.828804396583873 L6.594767958385361,-3.3485743216060793 L5.465558211313903,-3.0150913621149127" fill-opacity="0" stroke="black" stroke-width="1" />
<path d="M6.957435107921201,4.828804396583873 L6.594767958385361,3.3485743216060793 L5.465558211313903,3.0150913621149127" fill-opacity="0" stroke="black" stroke-width="1" />
<path d="M6.594767958385361,-3.3485743216060793 L5.465558211313903,-3.0150913621149127 L3.0,-3.0" fill-opacity="0" stroke="black" stroke-width="1" />
<path d="M6.594767958385361,3.3485743216060793 L5.465558211313903,3.0150913621149127 L3.0,3.0" fill-opacity="0" stroke="black" stroke-width="1" />
<path d="M3.0150913621149127,94.5344417886861 L3.0,97.0 L0.0,100.0" fill-opacity="0" stroke="black" stroke-width="1" />
<path d="M3.0150913621149127,-94.5344417886861 L3.0,-97.0 L0.0,-100.0" fill-opacity="0" stroke="black" stroke-width="1" />
<path d="M-14.0,-0.0 L-17.415022658467095,-4.97958727544702 L-18.325913224148017,-5.362868124149789" fill-opacity="0" stroke="black" stroke-width="1" />
<path d="M-14.0,-0.0 L-17.415022658467095,4.97958727544702 L-18.325913224148017,5.362868124149789" fill-opacity="0" stroke="black" stroke-width="1" />
<path d="M-17.415022658467095,-4.97958727544702 L-18.325913224148017,-5.362868124149789 L-29.78918984755747,-15.244846308932217" fill-opacity="0" stroke="black" stroke-width="1" />
<path d="M-17.415022658467095,4.97958727544702 L-18.325913224148017,5.362868124149789 L-29.78918984755747,15.244846308932217" fill-opacity="0" stroke="black" stroke-width="1" />
<path d="M-18.325913224148017,-5.362868124149789 L-29.78918984755747,-15.244846308932217 L-33.0,-0.0" fill-opacity="0" stroke="black" stroke-width="1" />
<path d="M-18.325913224148017,5.362868124149789 L-29.78918984755747,15.244846308932217 L-33.0,-0.0" fill-opacity="0" stroke="black" stroke-width="1" />
<path d="M-39.0,61.0 L-33.0,67.0 L-24.0,76.0" fill-opacity="0" stroke="black" stroke-width="1" />
<path d="M-39.0,-61.0 L-33.0,-67.0 L-24.0,-76.0" fill-opacity="0" stroke="black" stroke-width="1" />
<path d="M-41.0,59.0 L-39.0,61.0 L-33.0,67.0" fill-opacity="0" stroke="black" stroke-width="1" />
<path d="M-41.0,-59.0 L-39.0,-61.0 L-33.0,-67.0" fill-opacity="0" stroke="black" stroke-width="1" />
<path d="M-50.0,50.0 L-41.0,59.0 L-39.0,61.0" fill-opacity="0" stroke="black" stroke-width="1" />
<path d="M-50.0,-50.0 L-41.0,-59.0 L-39.0,-61.0" fill-opacity="0" stroke="black" stroke-width="1" />
<path d="M-50.0,-8.0 L-34.03441883814812,-19.130583234167567 L-45.45903612175807,-20.13211409376331" fill-opacity="0" stroke="black" stroke-width="1" />
<path d="M-50.0,8.0 L-34.03441883814812,19.130583234167567 L-45.45903612175807,20.13211409376331" fill-opacity="0" stroke="black" stroke-width="1" />
<path d="M-34.03441883814812,-19.130583234167567 L-45.45903612175807,-20.13211409376331 L-45.576260592562605,-20.34822686202169" fill-opacity="0" stroke="black" stroke-width="1" />
<path d="M-34.03441883814812,19.130583234167567 L-45.45903612175807,20.13211409376331 L-45.576260592562605,20.34822686202169" fill-opacity="0" stroke="black" stroke-width="1" />
<path d="M-45.45903612175807,-20.13211409376331 L-45.576260592562605,-20.34822686202169 L-50.0,-28.0" fill-opacity="0" stroke="black" stroke-width="1" />
<path d="M-45.45903612175807,20.13211409376331 L-45.576260592562605,20.34822686202169 L-50.0,28.0" fill-opacity="0" stroke="black" stroke-width="1" />
<path d="M-50.0,-28.0 L-48.779676505064984,-28.11934158186234 L-50.0,-34.0" fill-opacity="0" stroke="black" stroke-width="1" />
<path d="M-50.0,28.0 L-48.779676505064984,28.11934158186234 L-50.0,34.0" fill-opacity="0" stroke="black" stroke-width="1" />
<path d="M-33.0,67.0 L-24.0,76.0 L-14.463535131597943,78.65295174766078" fill-opacity="0" stroke="black" stroke-width="1" />
<path d="M-33.0,-67.0 L-24.0,-76.0 L-14.463535131597943,-78.65295174766078" fill-opacity="0" stroke="black" stroke-width="1" />
<path d="M-24.0,-24.0 L-21.347048252339214,-14.463535131597943 L-6.957435107921201,-4.828804396583873" fill-opacity="0" stroke="black" stroke-width="1" />
<path d="M-24.0,24.0 L-21.347048252339214,14.463535131597943 L-6.957435107921201,4.828804396583873" fill-opacity="0" stroke="black" stroke-width="1" />
<path d="M-21.347048252339214,-14.463535131597943 L-6.957435107921201,-4.828804396583873 L-6.594767958385361,-3.3485743216060793" fill-opacity="0" stroke="black" stroke-width="1" />
<path d="M-21.347048252339214,14.463535131597943 L-6.957435107921201,4.828804396583873 L-6.594767958385361,3.3485743216060793" fill-opacity="0" stroke="black" stroke-width="1" />
<path d="M-6.957435107921201,-4.828804396583873 L-6.594767958385361,-3.3485743216060793 L-5.465558211313903,-3.0150913621149127" fill-opacity="0" stroke="black" stroke-width="1" />
<path d="M-6.957435107921201,4.828804396583873 L-6.594767958385361,3.3485743216060793 L-5.465558211313903,3.0150913621149127" fill-opacity="0" stroke="black" stroke-width="1" />
<path d="M-6.594767958385361,-3.3485743216060793 L-5.465558211313903,-3.0150913621149127 L-3.0,-3.0" fill-opacity="0" stroke="black" stroke-width="1" />
<path d="M-6.594767958385361,3.3485743216060793 L-5.465558211313903,3.0150913621149127 L-3.0,3.0" fill-opacity="0" stroke="black" stroke-width="1" />
<path d="M-3.0150913621149127,94.5344417886861 L-3.0,97.0 L0.0,100.0" fill-opacity="0" stroke="black" stroke-width="1" />
<path d="M-3.0150913621149127,-94.5344417886861 L-3.0,-97.0 L0.0,-100.0" fill-opacity="0" stroke="black" stroke-width="1" />
<path d="M86.0,-0.0 L82.5849773415329,4.97958727544702 L81.67408677585198,5.362868124149789" fill-opacity="0" stroke="black" stroke-width="1" />
<path d="M86.0,-0.0 L82.5849773415329,-4.97958727544702 L81.67408677585198,-5.362868124149789" fill-opacity="0" stroke="black" stroke-width="1" />
<path d="M82.5849773415329,4.97958727544702 L81.67408677585198,5.362868124149789 L70.21081015244253,15.244846308932217" fill-opacity="0" stroke="black" stroke-width="1" />
<path d="M82.5849773415329,-4.97958727544702 L81.67408677585198,-5.362868124149789 L70.21081015244253,-15.244846308932217" fill-opacity="0" stroke="black" stroke-width="1" />
<path d="M81.67408677585198,5.362868124149789 L70.21081015244253,15.244846308932217 L67.0,-0.0" fill-opacity="0" stroke="black" stroke-width="1" />
<path d="M81.67408677585198,-5.362868124149789 L70.21081015244253,-15.244846308932217 L67.0,-0.0" fill-opacity="0" stroke="black" stroke-width="1" />
<path d="M61.0,39.0 L67.0,33.0 L76.0,24.0" fill-opacity="0" stroke="black" stroke-width="1" />
<path d="M61.0,-39.0 L67.0,-33.0 L76.0,-24.0" fill-opacity="0" stroke="black" stroke-width="1" />
<path d="M59.0,41.0 L61.0,39.0 L67.0,33.0" fill-opacity="0" stroke="black" stroke-width="1" />
<path d="M59.0,-41.0 L61.0,-39.0 L67.0,-33.0" fill-opacity="0" stroke="black" stroke-width="1" />
<path d="M50.0,50.0 L59.0,41.0 L61.0,39.0" fill-opacity="0" stroke="black" stroke-width="1" />
<path d="M50.0,-50.0 L59.0,-41.0 L61.0,-39.0" fill-opacity="0" stroke="black" stroke-width="1" />
<path d="M50.0,8.0 L65.96558116185187,19.130583234167567 L54.54096387824193,20.13211409376331" fill-opacity="0" stroke="black" stroke-width="1" />
<path d="M50.0,-8.0 L65.96558116185187,-19.130583234167567 L54.54096387824193,-20.13211409376331" fill-opacity="0" stroke="black" stroke-width="1" />
<path d="M65.96558116185187,19.130583234167567 L54.54096387824193,20.13211409376331 L54.423739407437395,20.34822686202169" fill-opacity="0" stroke="black" stroke-width="1" />
<path d="M65.96558116185187,-19.130583234167567 L54.54096387824193,-20.13211409376331 L54.423739407437395,-20.34822686202169" fill-opacity="0" stroke="black" stroke-width="1" />
<path d="M54.54096387824193,20.13211409376331 L54.423739407437395,20.34822686202169 L50.0,28.0" fill-opacity="0" stroke="black" stroke-width="1" />
<path d="M54.54096387824193,-20.13211409376331 L54.423739407437395,-20.34822686202169 L50.0,-28.0" fill-opacity="0" stroke="black" stroke-width="1" />
<path d="M50.0,28.0 L51.220323494935016,28.11934158186234 L50.0,34.0" fill-opacity="0" stroke="black" stroke-width="1" />
<path d="M50.0,-28.0 L51.220323494935016,-28.11934158186234 L50.0,-34.0" fill-opacity="0" stroke="black" stroke-width="1" />
<path d="M67.0,33.0 L76.0,24.0 L78.65295174766078,14.463535131597943" fill-opacity="0" stroke="black" stroke-width="1" />
<path d="M67.0,-33.0 L76.0,-24.0 L78.65295174766078,-14.463535131597943" fill-opacity="0" stroke="black" stroke-width="1" />
<path d="M76.0,24.0 L78.65295174766078,14.463535131597943 L93.0425648920788,4.828804396583873" fill-opacity="0" stroke="black" stroke-width="1" />
<path d="M76.0,-24.0 L78.65295174766078,-14.463535131597943 L93.0425648920788,-4.828804396583873" fill-opacity="0" stroke="black" stroke-width="1" />
<path d="M78.65295174766078,14.463535131597943 L93.0425648920788,4.828804396583873 L93.40523204161464,3.3485743216060793" fill-opacity="0" stroke="black" stroke-width="1" />
<path d="M78.65295174766078,-14.463535131597943 L93.0425648920788,-4.828804396583873 L93.40523204161464,-3.3485743216060793" fill-opacity="0" stroke="black" stroke-width="1" />
<path d="M93.0425648920788,4.828804396583873 L93.40523204161464,3.3485743216060793 L94.5344417886861,3.0150913621149127" fill-opacity="0" stroke="black" stroke-width="1" />
<path d="M93.0425648920788,-4.828804396583873 L93.40523204161464,-3.3485743216060793 L94.5344417886861,-3.0150913621149127" fill-opacity="0" stroke="black" stroke-width="1" />
<path d="M93.40523204161464,3.3485743216060793 L94.5344417886861,3.0150913621149127 L97.0,3.0" fill-opacity="0" stroke="black" stroke-width="1" />
<path d="M93.40523204161464,-3.3485743216060793 L94.5344417886861,-3.0150913621149127 L97.0,-3.0" fill-opacity="0" stroke="black" stroke-width="1" />
<path d="M94.5344417886861,3.0150913621149127 L97.0,3.0 L100.0,-0.0" fill-opacity="0" stroke="black" stroke-width="1" />
<path d="M94.5344417886861,-3.0150913621149127 L97.0,-3.0 L100.0,-0.0" fill-opacity="0" stroke="black" stroke-width="1" />
<path d="M0.0,-14.0 L4.97958727544702,-17.415022658467095 L5.362868124149789,-18.325913224148017" fill-opacity="0" stroke="black" stroke-width="1" />
<path d="M0.0,14.0 L4.97958727544702,17.415022658467095 L5.362868124149789,18.325913224148017" fill-opacity="0" stroke="black" stroke-width="1" />
<path d="M0.0,86.0 L4.97958727544702,82.5849773415329 L5.362868124149789,81.67408677585198" fill-opacity="0" stroke="black" stroke-width="1" />
<path d="M0.0,-86.0 L4.97958727544702,-82.5849773415329 L5.362868124149789,-81.67408677585198" fill-opacity="0" stroke="black" stroke-width="1" />
<path d="M4.97958727544702,-17.415022658467095 L5.362868124149789,-18.325913224148017 L15.244846308932217,-29.78918984755747" fill-opacity="0" stroke="black" stroke-width="1" />
<path d="M4.97958727544702,17.415022658467095 L5.362868124149789,18.325913224148017 L15.244846308932217,29.78918984755747" fill-opacity="0" stroke="black" stroke-width="1" />
<path d="M4.97958727544702,82.5849773415329 L5.362868124149789,81.67408677585198 L15.244846308932217,70.21081015244253" fill-opacity="0" stroke="black" stroke-width="1" />
<path d="M4.97958727544702,-82.5849773415329 L5.362868124149789,-81.67408677585198 L15.244846308932217,-70.21081015244253" fill-opacity="0" stroke="black" stroke-width="1" />
<path d="M5.362868124149789,-18.325913224148017 L15.244846308932217,-29.78918984755747 L0.0,-33.0" fill-opacity="0" stroke="black" stroke-width="1" />
<path d="M5.362868124149789,18.325913224148017 L15.244846308932217,29.78918984755747 L0.0,33.0" fill-opacity="0" stroke="black" stroke-width="1" />
<path d="M5.362868124149789,81.67408677585198 L15.244846308932217,70.21081015244253 L0.0,67.0" fill-opacity="0" stroke="black" stroke-width="1" />
<path d="M5.362868124149789,-81.67408677585198 L15.244846308932217,-70.21081015244253 L0.0,-67.0" fill-opacity="0" stroke="black" stroke-width="1" />
<path d="M8.0,-50.0 L19.130583234167567,-34.03441883814812 L20.13211409376331,-45.45903612175807" fill-opacity="0" stroke="black" stroke-width="1" />
<path d="M8.0,50.0 L19.130583234167567,34.03441883814812 L20.13211409376331,45.45903612175807" fill-opacity="0" stroke="black" stroke-width="1" />
<path d="M8.0,50.0 L19.130583234167567,65.96558116185187 L20.13211409376331,54.54096387824193" fill-opacity="0" stroke="black" stroke-width="1" />
<path d="M8.0,-50.0 L19.130583234167567,-65.96558116185187 L20.13211409376331,-54.54096387824193" fill-opacity="0" stroke="black" stroke-width="1" />
<path d="M19.130583234167567,-34.03441883814812 L20.13211409376331,-45.45903612175807 L20.34822686202169,-45.576260592562605" fill-opacity="0" stroke="black" stroke-width="1" />
<path d="M19.130583234167567,34.03441883814812 L20.13211409376331,45.45903612175807 L20.34822686202169,45.576260592562605" fill-opacity="0" stroke="black" stroke-width="1" />
<path d="M19.130583234167567,65.96558116185187 L20.13211409376331,54.54096387824193 L20.34822686202169,54.423739407437395" fill-opacity="0" stroke="black" stroke-width="1" />
<path d="M19.130583234167567,-65.96558116185187 L20.13211409376331,-54.54096387824193 L20.34822686202169,-54.423739407437395" fill-opacity="0" stroke="black" stroke-width="1" />
<path d="M20.13211409376331,-45.45903612175807 L20.34822686202169,-45.576260592562605 L28.0,-50.0" fill-opacity="0" stroke="black" stroke-width="1" />
<path d="M20.13211409376331,45.45903612175807 L20.34822686202169,45.576260592562605 L28.0,50.0" fill-opacity="0" stroke="black" stroke-width="1" />
<path d="M20.13211409376331,54.54096387824193 L20.34822686202169,54.423739407437395 L28.0,50.0" fill-opacity="0" stroke="black" stroke-width="1" />
<path d="M20.13211409376331,-54.54096387824193 L20.34822686202169,-54.423739407437395 L28.0,-50.0" fill-opacity="0" stroke="black" stroke-width="1" />
<path d="M28.0,-50.0 L28.11934158186234,-48.779676505064984 L34.0,-50.0" fill-opacity="0" stroke="black" stroke-width="1" />
<path d="M28.0,50.0 L28.11934158186234,48.779676505064984 L34.0,50.0" fill-opacity="0" stroke="black" stroke-width="1" />
<path d="M28.0,50.0 L28.11934158186234,51.220323494935016 L34.0,50.0" fill-opacity="0" stroke="black" stroke-width="1" />
<path d="M28.0,-50.0 L28.11934158186234,-51.220323494935016 L34.0,-50.0" fill-opacity="0" stroke="black" stroke-width="1" />
<path d="M24.0,-24.0 L14.463535131597943,-21.347048252339214 L4.828804396583873,-6.957435107921201" fill-opacity="0" stroke="black" stroke-width="1" />
<path d="M24.0,24.0 L14.463535131597943,21.347048252339214 L4.828804396583873,6.957435107921201" fill-opacity="0" stroke="black" stroke-width="1" />
<path d="M24.0,76.0 L14.463535131597943,78.65295174766078 L4.828804396583873,93.0425648920788" fill-opacity="0" stroke="black" stroke-width="1" />
<path d="M24.0,-76.0 L14.463535131597943,-78.65295174766078 L4.828804396583873,-93.0425648920788" fill-opacity="0" stroke="black" stroke-width="1" />
<path d="M14.463535131597943,-21.347048252339214 L4.828804396583873,-6.957435107921201 L3.3485743216060793,-6.594767958385361" fill-opacity="0" stroke="black" stroke-width="1" />
<path d="M14.463535131597943,21.347048252339214 L4.828804396583873,6.957435107921201 L3.3485743216060793,6.594767958385361" fill-opacity="0" stroke="black" stroke-width="1" />
<path d="M14.463535131597943,78.65295174766078 L4.828804396583873,93.0425648920788 L3.3485743216060793,93.40523204161464" fill-opacity="0" stroke="black" stroke-width="1" />
<path d="M14.463535131597943,-78.65295174766078 L4.828804396583873,-93.0425648920788 L3.3485743216060793,-93.40523204161464" fill-opacity="0" stroke="black" stroke-width="1" />
<path d="M4.828804396583873,-6.957435107921201 L3.3485743216060793,-6.594767958385361 L3.0150913621149127,-5.465558211313903" fill-opacity="0" stroke="black" stroke-width="1" />
<path d="M4.828804396583873,6.957435107921201 L3.3485743216060793,6.594767958385361 L3.0150913621149127,5.465558211313903" fill-opacity="0" stroke="black" stroke-width="1" />
<path d="M4.828804396583873,93.0425648920788 L3.3485743216060793,93.40523204161464 L3.0150913621149127,94.5344417886861" fill-opacity="0" stroke="black" stroke-width="1" />
<path d="M4.828804396583873,-93.0425648920788 L3.3485743216060793,-93.40523204161464 L3.0150913621149127,-94.5344417886861" fill-opacity="0" stroke="black" stroke-width="1" />
<path d="M3.3485743216060793,-6.594767958385361 L3.0150913621149127,-5.465558211313903 L3.0,-3.0" fill-opacity="0" stroke="black" stroke-width="1" />
<path d="M3.3485743216060793,6.594767958385361 L3.0150913621149127,5.465558211313903 L3.0,3.0" fill-opacity="0" stroke="black" stroke-width="1" />
<path d="M3.3485743216060793,93.40523204161464 L3.0150913621149127,94.5344417886861 L3.0,97.0" fill-opacity="0" stroke="black" stroke-width="1" />
<path d="M3.3485743216060793,-93.40523204161464 L3.0150913621149127,-94.5344417886861 L3.0,-97.0" fill-opacity="0" stroke="black" stroke-width="1" />
<path d="M0.0,86.0 L-4.97958727544702,82.5849773415329 L-5.362868124149789,81.67408677585198" fill-opacity="0" stroke="black" stroke-width="1" />
<path d="M0.0,-14.0 L-4.97958727544702,-17.415022658467095 L-5.362868124149789,-18.325913224148017" fill-opacity="0" stroke="black" stroke-width="1" />
<path d="M0.0,14.0 L-4.97958727544702,17.415022658467095 L-5.362868124149789,18.325913224148024" fill-opacity="0" stroke="black" stroke-width="1" />
<path d="M0.0,-86.0 L-4.97958727544702,-82.5849773415329 L-5.362868124149789,-81.67408677585198" fill-opacity="0" stroke="black" stroke-width="1" />
<path d="M-4.97958727544702,82.5849773415329 L-5.362868124149789,81.67408677585198 L-15.244846308932217,70.21081015244253" fill-opacity="0" stroke="black" stroke-width="1" />
<path d="M-4.97958727544702,-17.415022658467095 L-5.362868124149789,-18.325913224148017 L-15.244846308932217,-29.78918984755747" fill-opacity="0" stroke="black" stroke-width="1" />
<path d="M-4.97958727544702,17.415022658467095 L-5.362868124149789,18.325913224148024 L-15.244846308932217,29.789189847557466" fill-opacity="0" stroke="black" stroke-width="1" />
<path d="M-4.97958727544702,-82.5849773415329 L-5.362868124149789,-81.67408677585198 L-15.244846308932217,-70.21081015244253" fill-opacity="0" stroke="black" stroke-width="1" />
<path d="M-5.362868124149789,81.67408677585198 L-15.244846308932217,70.21081015244253 L0.0,67.0" fill-opacity="0" stroke="black" stroke-width="1" />
<path d="M-5.362868124149789,-18.325913224148017 L-15.244846308932217,-29.78918984755747 L0.0,-33.0" fill-opacity="0" stroke="black" stroke-width="1" />
<path d="M-5.362868124149789,18.325913224148024 L-15.244846308932217,29.789189847557466 L0.0,33.0" fill-opacity="0" stroke="black" stroke-width="1" />
<path d="M-5.362868124149789,-81.67408677585198 L-15.244846308932217,-70.21081015244253 L0.0,-67.0" fill-opacity="0" stroke="black" stroke-width="1" />
<path d="M-8.0,50.0 L-19.130583234167567,65.96558116185187 L-20.13211409376331,54.54096387824193" fill-opacity="0" stroke="black" stroke-width="1" />
<path d="M-8.0,-50.0 L-19.130583234167567,-34.03441883814812 L-20.13211409376331,-45.45903612175807" fill-opacity="0" stroke="black" stroke-width="1" />
<path d="M-8.0,50.0 L-19.130583234167567,34.03441883814813 L-20.13211409376331,45.45903612175807" fill-opacity="0" stroke="black" stroke-width="1" />
<path d="M-8.0,-50.0 L-19.130583234167567,-65.96558116185187 L-20.13211409376331,-54.54096387824193" fill-opacity="0" stroke="black" stroke-width="1" />
<path d="M-19.130583234167567,65.96558116185187 L-20.13211409376331,54.54096387824193 L-20.34822686202169,54.423739407437395" fill-opacity="0" stroke="black" stroke-width="1" />
<path d="M-19.130583234167567,-34.03441883814812 L-20.13211409376331,-45.45903612175807 L-20.34822686202169,-45.576260592562605" fill-opacity="0" stroke="black" stroke-width="1" />
<path d="M-19.130583234167567,34.03441883814813 L-20.13211409376331,45.45903612175807 L-20.34822686202169,45.576260592562605" fill-opacity="0" stroke="black" stroke-width="1" />
<path d="M-19.130583234167567,-65.96558116185187 L-20.13211409376331,-54.54096387824193 L-20.34822686202169,-54.423739407437395" fill-opacity="0" stroke="black" stroke-width="1" />
<path d="M-20.13211409376331,54.54096387824193 L-20.34822686202169,54.423739407437395 L-28.0,50.0" fill-opacity="0" stroke="black" stroke-width="1" />
<path d="M-20.13211409376331,-45.45903612175807 L-20.34822686202169,-45.576260592562605 L-28.0,-50.0" fill-opacity="0" stroke="black" stroke-width="1" />
<path d="M-20.13211409376331,45.45903612175807 L-20.34822686202169,45.576260592562605 L-28.0,50.0" fill-opacity="0" stroke="black" stroke-width="1" />
<path d="M-20.13211409376331,-54.54096387824193 L-20.34822686202169,-54.423739407437395 L-28.0,-50.0" fill-opacity="0" stroke="black" stroke-width="1" />
<path d="M-28.0,50.0 L-28.11934158186234,51.220323494935016 L-34.0,50.0" fill-opacity="0" stroke="black" stroke-width="1" />
<path d="M-28.0,-50.0 L-28.11934158186234,-48.779676505064984 L-34.0,-50.0" fill-opacity="0" stroke="black" stroke-width="1" />
<path d="M-28.0,50.0 L-28.11934158186234,48.779676505064984 L-34.0,50.0" fill-opacity="0" stroke="black" stroke-width="1" />
<path d="M-28.0,-50.0 L-28.11934158186234,-51.220323494935016 L-34.0,-50.0" fill-opacity="0" stroke="black" stroke-width="1" />
<path d="M-24.0,76.0 L-14.463535131597943,78.65295174766078 L-4.828804396583873,93.0425648920788" fill-opacity="0" stroke="black" stroke-width="1" />
<path d="M-24.0,-24.0 L-14.463535131597943,-21.347048252339214 L-4.828804396583873,-6.957435107921201" fill-opacity="0" stroke="black" stroke-width="1" />
<path d="M-24.0,24.0 L-14.463535131597943,21.34704825233922 L-4.828804396583873,6.957435107921199" fill-opacity="0" stroke="black" stroke-width="1" />
<path d="M-24.0,-76.0 L-14.463535131597943,-78.65295174766078 L-4.828804396583873,-93.0425648920788" fill-opacity="0" stroke="black" stroke-width="1" />
<path d="M-14.463535131597943,78.65295174766078 L-4.828804396583873,93.0425648920788 L-3.3485743216060793,93.40523204161464" fill-opacity="0" stroke="black" stroke-width="1" />
<path d="M-14.463535131597943,-21.347048252339214 L-4.828804396583873,-6.957435107921201 L-3.3485743216060793,-6.594767958385361" fill-opacity="0" stroke="black" stroke-width="1" />
<path d="M-14.463535131597943,21.34704825233922 L-4.828804396583873,6.957435107921199 L-3.3485743216060793,6.594767958385361" fill-opacity="0" stroke="black" stroke-width="1" />
<path d="M-14.463535131597943,-78.65295174766078 L-4.828804396583873,-93.0425648920788 L-3.3485743216060793,-93.40523204161464" fill-opacity="0" stroke="black" stroke-width="1" />
<path d="M-4.828804396583873,93.0425648920788 L-3.3485743216060793,93.40523204161464 L-3.0150913621149127,94.5344417886861" fill-opacity="0" stroke="black" stroke-width="1" />
<path d="M-4.828804396583873,-6.957435107921201 L-3.3485743216060793,-6.594767958385361 L-3.0150913621149127,-5.465558211313903" fill-opacity="0" stroke="black" stroke-width="1" />
<path d="M-4.828804396583873,6.957435107921199 L-3.3485743216060793,6.594767958385361 L-3.0150913621149127,5.465558211313905" fill-opacity="0" stroke="black" stroke-width="1" />
<path d="M-4.828804396583873,-93.0425648920788 L-3.3485743216060793,-93.40523204161464 L-3.0150913621149127,-94.5344417886861" fill-opacity="0" stroke="black" stroke-width="1" />
<path d="M-3.3485743216060793,93.40523204161464 L-3.0150913621149127,94.5344417886861 L-3.0,97.0" fill-opacity="0" stroke="black" stroke-width="1" />
<path d="M-3.3485743216060793,-6.594767958385361 L-3.0150913621149127,-5.465558211313903 L-3.0,-3.0" fill-opacity="0" stroke="black" stroke-width="1" />
<path d="M-3.3485743216060793,6.594767958385361 L-3.0150913621149127,5.465558211313905 L-3.0,3.0" fill-opacity="0" stroke="black" stroke-width="1" />
<path d="M-3.3485743216060793,-93.40523204161464 L-3.0150913621149127,-94.5344417886861 L-3.0,-97.0" fill-opacity="0" stroke="black" stroke-width="1" />
<path d="M-86.0,-0.0 L-82.5849773415329,-4.97958727544702 L-81.67408677585198,-5.362868124149789" fill-opacity="0" stroke="black" stroke-width="1" />
<path d="M-86.0,-0.0 L-82.5849773415329,4.97958727544702 L-81.67408677585198,5.362868124149789" fill-opacity="0" stroke="black" stroke-width="1" />
<path d="M-82.5849773415329,-4.97958727544702 L-81.67408677585198,-5.362868124149789 L-70.21081015244253,-15.244846308932217" fill-opacity="0" stroke="black" stroke-width="1" />
<path d="M-82.5849773415329,4.97958727544702 L-81.67408677585198,5.362868124149789 L-70.21081015244253,15.244846308932217" fill-opacity="0" stroke="black" stroke-width="1" />
<path d="M-81.67408677585198,-5.362868124149789 L-70.21081015244253,-15.244846308932217 L-67.0,-0.0" fill-opacity="0" stroke="black" stroke-width="1" />
<path d="M-81.67408677585198,5.362868124149789 L-70.21081015244253,15.244846308932217 L-67.0,-0.0" fill-opacity="0" stroke="black" stroke-width="1" />
<path d="M-61.0,-39.0 L-67.0,-33.0 L-76.0,-24.0" fill-opacity="0" stroke="black" stroke-width="1" />
<path d="M-61.0,39.0 L-67.0,33.0 L-76.0,24.0" fill-opacity="0" stroke="black" stroke-width="1" />
<path d="M-59.0,-41.0 L-61.0,-39.0 L-67.0,-33.0" fill-opacity="0" stroke="black" stroke-width="1" />
<path d="M-59.0,41.0 L-61.0,39.0 L-67.0,33.0" fill-opacity="0" stroke="black" stroke-width="1" />
<path d="M-50.0,-50.0 L-59.0,-41.0 L-61.0,-39.0" fill-opacity="0" stroke="black" stroke-width="1" />
<path d="M-50.0,50.0 L-59.0,41.0 L-61.0,39.0" fill-opacity="0" stroke="black" stroke-width="1" />
<path d="M-50.0,-8.0 L-65.96558116185187,-19.130583234167567 L-54.54096387824193,-20.13211409376331" fill-opacity="0" stroke="black" stroke-width="1" />
<path d="M-50.0,8.0 L-65.96558116185187,19.130583234167567 L-54.54096387824193,20.13211409376331" fill-opacity="0" stroke="black" stroke-width="1" />
<path d="M-65.96558116185187,-19.130583234167567 L-54.54096387824193,-20.13211409376331 L-54.423739407437395,-20.34822686202169" fill-opacity="0" stroke="black" stroke-width="1" />
<path d="M-65.96558116185187,19.130583234167567 L-54.54096387824193,20.13211409376331 L-54.423739407437395,20.34822686202169" fill-opacity="0" stroke="black" stroke-width="1" />
<path d="M-54.54096387824193,-20.13211409376331 L-54.423739407437395,-20.34822686202169 L-50.0,-28.0" fill-opacity="0" stroke="black" stroke-width="1" />
<path d="M-54.54096387824193,20.13211409376331 L-54.423739407437395,20.34822686202169 L-50.0,28.0" fill-opacity="0" stroke="black" stroke-width="1" />
<path d="M-50.0,-28.0 L-51.220323494935016,-28.11934158186234 L-50.0,-34.0" fill-opacity="0" stroke="black" stroke-width="1" />
<path d="M-50.0,28.0 L-51.220323494935016,28.11934158186234 L-50.0,34.0" fill-opacity="0" stroke="black" stroke-width="1" />
<path d="M-67.0,-33.0 L-76.0,-24.0 L-78.65295174766078,-14.463535131597943" fill-opacity="0" stroke="black" stroke-width="1" />
<path d="M-67.0,33.0 L-76.0,24.0 L-78.65295174766078,14.463535131597943" fill-opacity="0" stroke="black" stroke-width="1" />
<path d="M-76.0,-24.0 L-78.65295174766078,-14.463535131597943 L-93.0425648920788,-4.828804396583873" fill-opacity="0" stroke="black" stroke-width="1" />
<path d="M-76.0,24.0 L-78.65295174766078,14.463535131597943 L-93.0425648920788,4.828804396583873" fill-opacity="0" stroke="black" stroke-width="1" />
<path d="M-78.65295174766078,-14.463535131597943 L-93.0425648920788,-4.828804396583873 L-93.40523204161464,-3.3485743216060793" fill-opacity="0" stroke="black" stroke-width="1" />
<path d="M-78.65295174766078,14.463535131597943 L-93.0425648920788,4.828804396583873 L-93.40523204161464,3.3485743216060793" fill-opacity="0" stroke="black" stroke-width="1" />
<path d="M-93.0425648920788,-4.828804396583873 L-93.40523204161464,-3.3485743216060793 L-94.5344417886861,-3.0150913621149127" fill-opacity="0" stroke="black" stroke-width="1" />
<path d="M-93.0425648920788,4.828804396583873 L-93.40523204161464,3.3485743216060793 L-94.5344417886861,3.0150913621149127" fill-opacity="0" stroke="black" stroke-width="1" />
<path d="M-93.40523204161464,-3.3485743216060793 L-94.5344417886861,-3.0150913621149127 L-97.0,-3.0" fill-opacity="0" stroke="black" stroke-width="1" />
<path d="M-93.40523204161464,3.3485743216060793 L-94.5344417886861,3.0150913621149127 L-97.0,3.0" fill-opacity="0" stroke="black" stroke-width="1" />
<path d="M-94.5344417886861,-3.0150913621149127 L-97.0,-3.0 L-100.0,-0.0" fill-opacity="0" stroke="black" stroke-width="1" />
<path d="M-94.5344417886861,3.0150913621149127 L-97.0,3.0 L-100.0,-0.0" fill-opacity="0" stroke="black" stroke-width="1" />
<circle cx="0" cy="-97" r="8" stroke-dasharray="39.653880605311166 10.611601852125524" stroke-dashoffset="-17.59291886010284" stroke="black" stroke-width="1" fill="white" fill-opacity="1" />
<circle cx="0" cy="-97" r="4" stroke="black" stroke-width="1" fill="white" fill-opacity="1" />
</svg>