<?xml version="1.0" encoding="UTF-8"?>
<svg xmlns="http://www.w3.org/2000/svg" xmlns:xlink="http://www.w3.org/1999/xlink"
     width="250" height="250" viewBox="-125.0 -125.0 250 250">
<defs>
</defs>
<path d="M9.0,-0.0 L14.69031625532447,-3.395039598314083 L16.443440416537552,-4.233018793986826" fill-opacity="0" stroke="black" stroke-width="1" />
<path d="M9.0,-0.0 L14.69031625532447,3.395039598314083 L16.443440416537552,4.233018793986826" fill-opacity="0" stroke="black" stroke-width="1" />
<path d="M14.69031625532447,-3.395039598314083 L16.443440416537552,-4.233018793986826 L18.20753572470382,-8.379663810308157" fill-opacity="0" stroke="black" stroke-width="1" />
<path d="M14.69031625532447,3.395039598314083 L16.443440416537552,4.233018793986826 L18.20753572470382,8.379663810308157" fill-opacity="0" stroke="black" stroke-width="1" />
<path d="M16.443440416537552,-4.233018793986826 L18.20753572470382,-8.379663810308157 L20.412272980099683,-10.668320464380633" fill-opacity="0" stroke="black" stroke-width="1" />
<path d="M16.443440416537552,4.233018793986826 L18.20753572470382,8.379663810308157 L20.412272980099683,10.668320464380633" fill-opacity="0" stroke="black" stroke-width="1" />
<path d="M18.20753572470382,-8.379663810308157 L20.412272980099683,-10.668320464380633 L37.0,-0.0" fill-opacity="0" stroke="black" stroke-width="1" />
<path d="M18.20753572470382,8.379663810308157 L20.412272980099683,10.668320464380633 L37.0,-0.0" fill-opacity="0" stroke="black" stroke-width="1" />
<path d="M50.0,-20.0 L33.82273639760987,-20.6468508965237 L35.07048381437115,-20.72636487305772" fill-opacity="0" stroke="black" stroke-width="1" />
<path d="M50.0,20.0 L33.82273639760987,20.6468508965237 L35.07048381437115,20.72636487305772" fill-opacity="0" stroke="black" stroke-width="1" />
<path d="M33.82273639760987,-20.6468508965237 L35.07048381437115,-20.72636487305772 L43.23017768345355,-26.34614442571684" fill-opacity="0" stroke="black" stroke-width="1" />
<path d="M33.82273639760987,20.6468508965237 L35.07048381437115,20.72636487305772 L43.23017768345355,26.34614442571684" fill-opacity="0" stroke="black" stroke-width="1" />
<path d="M35.07048381437115,-20.72636487305772 L43.23017768345355,-26.34614442571684 L48.801158070823845,-31.019121077460966" fill-opacity="0" stroke="black" stroke-width="1" />
<path d="M35.07048381437115,20.72636487305772 L43.23017768345355,26.34614442571684 L48.801158070823845,31.019121077460966" fill-opacity="0" stroke="black" stroke-width="1" />
<path d="M43.23017768345355,-26.34614442571684 L48.801158070823845,-31.019121077460966 L50.0,-32.0" fill-opacity="0" stroke="black" stroke-width="1" />
<path d="M43.23017768345355,26.34614442571684 L48.801158070823845,31.019121077460966 L50.0,32.0" fill-opacity="0" stroke="black" stroke-width="1" />
<path d="M50.0,-32.0 L49.83335259115368,-40.422965870761075 L50.0,-46.0" fill-opacity="0" stroke="black" stroke-width="1" />
<path d="M50.0,32.0 L49.83335259115368,40.422965870761075 L50.0,46.0" fill-opacity="0" stroke="black" stroke-width="1" />
<path d="M50.0,50.0 L45.0,55.0 L26.0,74.0" fill-opacity="0" stroke="black" stroke-width="1" />
<path d="M50.0,-50.0 L45.0,-55.0 L26.0,-74.0" fill-opacity="0" stroke="black" stroke-width="1" />
<path d="M45.0,55.0 L26.0,74.0 L17.620223769393316,74.65913862067002" fill-opacity="0" stroke="black" stroke-width="1" />
<path d="M45.0,-55.0 L26.0,-74.0 L17.620223769393316,-74.65913862067002" fill-opacity="0" stroke="black" stroke-width="1" />
<path d="M26.0,-26.0 L25.340861379329983,-17.620223769393316 L22.382183490686558,-15.710923878687854" fill-opacity="0" stroke="black" stroke-width="1" />
<path d="M26.0,26.0 L25.340861379329983,17.620223769393316 L22.382183490686558,15.710923878687854" fill-opacity="0" stroke="black" stroke-width="1" />
<path d="M25.340861379329983,-17.620223769393316 L22.382183490686558,-15.710923878687854 L20.57168917177303,-13.321552461121735" fill-opacity="0" stroke="black" stroke-width="1" />
<path d="M25.340861379329983,17.620223769393316 L22.382183490686558,15.710923878687854 L20.57168917177303,13.321552461121735" fill-opacity="0" stroke="black" stroke-width="1" />
<path d="M22.382183490686558,-15.710923878687854 L20.57168917177303,-13.321552461121735 L10.564042823059022,-3.3641304058780617" fill-opacity="0" stroke="black" stroke-width="1" />
<path d="M22.382183490686558,15.710923878687854 L20.57168917177303,13.321552461121735 L10.564042823059022,3.3641304058780617" fill-opacity="0" stroke="black" stroke-width="1" />
<path d="M20.57168917177303,-13.321552461121735 L10.564042823059022,-3.3641304058780617 L1.112419755358074,-0.1605562050877699" fill-opacity="0" stroke="black" stroke-width="1" />
<path d="M20.57168917177303,13.321552461121735 L10.564042823059022,3.3641304058780617 L1.112419755358074,0.1605562050877699" fill-opacity="0" stroke="black" stroke-width="1" />
<path d="M10.564042823059022,-3.3641304058780617 L1.112419755358074,-0.1605562050877699 L1.0,-1.0" fill-opacity="0" stroke="black" stroke-width="1" />
<path d="M10.564042823059022,3.3641304058780617 L1.112419755358074,0.1605562050877699 L1.0,1.0" fill-opacity="0" stroke="black" stroke-width="1" />
<path d="M0.1605562050877699,98.88758024464192 L1.0,99.0 L0.0,100.0" fill-opacity="0" stroke="black" stroke-width="1" />
<path d="M0.1605562050877699,-98.88758024464192 L1.0,-99.0 L0.0,-100.0" fill-opacity="0" stroke="black" stroke-width="1" />
<path d="M-9.0,-0.0 L-14.69031625532447,-3.395039598314083 L-16.443440416537552,-4.233018793986826" fill-opacity="0" stroke="black" stroke-width="1" />
<path d="M-9.0,-0.0 L-14.69031625532447,3.395039598314083 L-16.443440416537552,4.233018793986826" fill-opacity="0" stroke="black" stroke-width="1" />
<path d="M-14.69031625532447,-3.395039598314083 L-16.443440416537552,-4.233018793986826 L-18.20753572470382,-8.379663810308157" fill-opacity="0" stroke="black" stroke-width="1" />
<path d="M-14.69031625532447,3.395039598314083 L-16.443440416537552,4.233018793986826 L-18.20753572470382,8.379663810308157" fill-opacity="0" stroke="black" stroke-width="1" />
<path d="M-16.443440416537552,-4.233018793986826 L-18.20753572470382,-8.379663810308157 L-20.412272980099683,-10.668320464380633" fill-opacity="0" stroke="black" stroke-width="1" />
<path d="M-16.443440416537552,4.233018793986826 L-18.20753572470382,8.379663810308157 L-20.412272980099683,10.668320464380633" fill-opacity="0" stroke="black" stroke-width="1" />
<path d="M-18.20753572470382,-8.379663810308157 L-20.412272980099683,-10.668320464380633 L-37.0,-0.0" fill-opacity="0" stroke="black" stroke-width="1" />
<path d="M-18.20753572470382,8.379663810308157 L-20.412272980099683,10.668320464380633 L-37.0,-0.0" fill-opacity="0" stroke="black" stroke-width="1" />
<path d="M-50.0,-20.0 L-33.82273639760987,-20.6468508965237 L-35.07048381437115,-20.72636487305772" fill-opacity="0" stroke="black" stroke-width="1" />
<path d="M-50.0,20.0 L-33.82273639760987,20.6468508965237 L-35.07048381437115,20.72636487305772" fill-opacity="0" stroke="black" stroke-width="1" />
<path d="M-33.82273639760987,-20.6468508965237 L-35.07048381437115,-20.72636487305772 L-43.23017768345355,-26.34614442571684" fill-opacity="0" stroke="black" stroke-width="1" />
<path d="M-33.82273639760987,20.6468508965237 L-35.07048381437115,20.72636487305772 L-43.23017768345355,26.34614442571684" fill-opacity="0" stroke="black" stroke-width="1" />
<path d="M-35.07048381437115,-20.72636487305772 L-43.23017768345355,-26.34614442571684 L-48.801158070823845,-31.019121077460966" fill-opacity="0" stroke="black" stroke-width="1" />
<path d="M-35.07048381437115,20.72636487305772 L-43.23017768345355,26.34614442571684 L-48.801158070823845,31.019121077460966" fill-opacity="0" stroke="black" stroke-width="1" />
<path d="M-43.23017768345355,-26.34614442571684 L-48.801158070823845,-31.019121077460966 L-50.0,-32.0" fill-opacity="0" stroke="black" stroke-width="1" />
<path d="M-43.23017768345355,26.34614442571684 L-48.801158070823845,31.019121077460966 L-50.0,32.0" fill-opacity="0" stroke="black" stroke-width="1" />
<path d="M-50.0,-32.0 L-49.83335259115368,-40.422965870761075 L-50.0,-46.0" fill-opacity="0" stroke="black" stroke-width="1" />
<path d="M-50.0,32.0 L-49.83335259115368,40.422965870761075 L-50.0,46.0" fill-opacity="0" stroke="black" stroke-width="1" />
<path d="M-50.0,50.0 L-45.0,55.0 L-26.0,74.0" fill-opacity="0" stroke="black" stroke-width="1" />
<path d="M-50.0,-50.0 L-45.0,-55.0 L-26.0,-74.0" fill-opacity="0" stroke="black" stroke-width="1" />
<path d="M-45.0,55.0 L-26.0,74.0 L-17.620223769393316,74.65913862067002" fill-opacity="0" stroke="black" stroke-width="1" />
<path d="M-45.0,-55.0 L-26.0,-74.0 L-17.620223769393316,-74.65913862067002" fill-opacity="0" stroke="black" stroke-width="1" />
<path d="M-26.0,-26.0 L-25.340861379329983,-17.620223769393316 L-22.382183490686558,-15.710923878687854" fill-opacity="0" stroke="black" stroke-width="1" />
<path d="M-26.0,26.0 L-25.340861379329983,17.620223769393316 L-22.382183490686558,15.710923878687854" fill-opacity="0" stroke="black" stroke-width="1" />
<path d="M-25.340861379329983,-17.620223769393316 L-22.382183490686558,-15.710923878687854 L-20.57168917177303,-13.321552461121735" fill-opacity="0" stroke="black" stroke-width="1" />
<path d="M-25.340861379329983,17.620223769393316 L-22.382183490686558,15.710923878687854 L-20.57168917177303,13.321552461121735" fill-opacity="0" stroke="black" stroke-width="1" />
<path d="M-22.382183490686558,-15.710923878687854 L-20.57168917177303,-13.321552461121735 L-10.564042823059022,-3.3641304058780617" fill-opacity="0" stroke="black" stroke-width="1" />
<path d="M-22.382183490686558,15.710923878687854 L-20.57168917177303,13.321552461121735 L-10.564042823059022,3.3641304058780617" fill-opacity="0" stroke="black" stroke-width="1" />
<path d="M-20.57168917177303,-13.321552461121735 L-10.564042823059022,-3.3641304058780617 L-1.112419755358074,-0.1605562050877699" fill-opacity="0" stroke="black" stroke-width="1" />
<path d="M-20.57168917177303,13.321552461121735 L-10.564042823059022,3.3641304058780617 L-1.112419755358074,0.1605562050877699" fill-opacity="0" stroke="black" stroke-width="1" />
<path d="M-10.564042823059022,-3.3641304058780617 L-1.112419755358074,-0.1605562050877699 L-1.0,-1.0" fill-opacity="0" stroke="black" stroke-width="1" />
<path d="M-10.564042823059022,3.3641304058780617 L-1.112419755358074,0.1605562050877699 L-1.0,1.0" fill-opacity="0" stroke="black" stroke-width="1" />
<path d="M-0.1605562050877699,98.88758024464192 L-1.0,99.0 L0.0,100.0" fill-opacity="0" stroke="black" stroke-width="1" />
<path d="M-0.1605562050877699,-98.88758024464192 L-1.0,-99.0 L0.0,-100.0" fill-opacity="0" stroke="black" stroke-width="1" />
<path d="M91.0,-0.0 L85.30968374467554,3.395039598314083 L83.55655958346244,4.233018793986826" fill-opacity="0" stroke="black" stroke-width="1" />
<path d="M91.0,-0.0 L85.30968374467554,-3.395039598314083 L83.55655958346244,-4.233018793986826" fill-opacity="0" stroke="black" stroke-width="1" />
<path d="M85.30968374467554,3.395039598314083 L83.55655958346244,4.233018793986826 L81.79246427529618,8.379663810308157" fill-opacity="0" stroke="black" stroke-width="1" />
<path d="M85.30968374467554,-3.395039598314083 L83.55655958346244,-4.233018793986826 L81.79246427529618,-8.379663810308157" fill-opacity="0" stroke="black" stroke-width="1" />
<path d="M83.55655958346244,4.233018793986826 L81.79246427529618,8.379663810308157 L79.58772701990031,10.668320464380633" fill-opacity="0" stroke="black" stroke-width="1" />
<path d="M83.55655958346244,-4.233018793986826 L81.79246427529618,-8.379663810308157 L79.58772701990031,-10.668320464380633" fill-opacity="0" stroke="black" stroke-width="1" />
<path d="M81.79246427529618,8.379663810308157 L79.58772701990031,10.668320464380633 L63.0,-0.0" fill-opacity="0" stroke="black" stroke-width="1" />
<path d="M81.79246427529618,-8.379663810308157 L79.58772701990031,-10.668320464380633 L63.0,-0.0" fill-opacity="0" stroke="black" stroke-width="1" />
<path d="M50.0,20.0 L66.17726360239013,20.6468508965237 L64.92951618562884,20.72636487305772" fill-opacity="0" stroke="black" stroke-width="1" />
<path d="M50.0,-20.0 L66.17726360239013,-20.6468508965237 L64.92951618562884,-20.72636487305772" fill-opacity="0" stroke="black" stroke-width="1" />
<path d="M66.17726360239013,20.6468508965237 L64.92951618562884,20.72636487305772 L56.76982231654645,26.34614442571684" fill-opacity="0" stroke="black" stroke-width="1" />
<path d="M66.17726360239013,-20.6468508965237 L64.92951618562884,-20.72636487305772 L56.76982231654645,-26.34614442571684" fill-opacity="0" stroke="black" stroke-width="1" />
<path d="M64.92951618562884,20.72636487305772 L56.76982231654645,26.34614442571684 L51.198841929176155,31.019121077460966" fill-opacity="0" stroke="black" stroke-width="1" />
<path d="M64.92951618562884,-20.72636487305772 L56.76982231654645,-26.34614442571684 L51.198841929176155,-31.019121077460966" fill-opacity="0" stroke="black" stroke-width="1" />
<path d="M56.76982231654645,26.34614442571684 L51.198841929176155,31.019121077460966 L50.0,32.0" fill-opacity="0" stroke="black" stroke-width="1" />
<path d="M56.76982231654645,-26.34614442571684 L51.198841929176155,-31.019121077460966 L50.0,-32.0" fill-opacity="0" stroke="black" stroke-width="1" />
<path d="M50.0,32.0 L50.16664740884632,40.422965870761075 L50.0,46.0" fill-opacity="0" stroke="black" stroke-width="1" />
<path d="M50.0,-32.0 L50.16664740884632,-40.422965870761075 L50.0,-46.0" fill-opacity="0" stroke="black" stroke-width="1" />
<path d="M50.0,50.0 L55.0,45.0 L74.0,26.0" fill-opacity="0" stroke="black" stroke-width="1" />
<path d="M50.0,-50.0 L55.0,-45.0 L74.0,-26.0" fill-opacity="0" stroke="black" stroke-width="1" />
<path d="M55.0,45.0 L74.0,26.0 L74.65913862067002,17.620223769393316" fill-opacity="0" stroke="black" stroke-width="1" />
<path d="M55.0,-45.0 L74.0,-26.0 L74.65913862067002,-17.620223769393316" fill-opacity="0" stroke="black" stroke-width="1" />
<path d="M74.0,26.0 L74.65913862067002,17.620223769393316 L77.61781650931344,15.710923878687854" fill-opacity="0" stroke="black" stroke-width="1" />
<path d="M74.0,-26.0 L74.65913862067002,-17.620223769393316 L77.61781650931344,-15.710923878687854" fill-opacity="0" stroke="black" stroke-width="1" />
<path d="M74.65913862067002,17.620223769393316 L77.61781650931344,15.710923878687854 L79.42831082822697,13.321552461121735" fill-opacity="0" stroke="black" stroke-width="1" />
<path d="M74.65913862067002,-17.620223769393316 L77.61781650931344,-15.710923878687854 L79.42831082822697,-13.321552461121735" fill-opacity="0" stroke="black" stroke-width="1" />
<path d="M77.61781650931344,15.710923878687854 L79.42831082822697,13.321552461121735 L89.43595717694097,3.3641304058780617" fill-opacity="0" stroke="black" stroke-width="1" />
<path d="M77.61781650931344,-15.710923878687854 L79.42831082822697,-13.321552461121735 L89.43595717694097,-3.3641304058780617" fill-opacity="0" stroke="black" stroke-width="1" />
<path d="M79.42831082822697,13.321552461121735 L89.43595717694097,3.3641304058780617 L98.88758024464192,0.1605562050877699" fill-opacity="0" stroke="black" stroke-width="1" />
<path d="M79.42831082822697,-13.321552461121735 L89.43595717694097,-3.3641304058780617 L98.88758024464192,-0.1605562050877699" fill-opacity="0" stroke="black" stroke-width="1" />
<path d="M89.43595717694097,3.3641304058780617 L98.88758024464192,0.1605562050877699 L99.0,1.0" fill-opacity="0" stroke="black" stroke-width="1" />
<path d="M89.43595717694097,-3.3641304058780617 L98.88758024464192,-0.1605562050877699 L99.0,-1.0" fill-opacity="0" stroke="black" stroke-width="1" />
<path d="M98.88758024464192,0.1605562050877699 L99.0,1.0 L100.0,-0.0" fill-opacity="0" stroke="black" stroke-width="1" />
<path d="M98.88758024464192,-0.1605562050877699 L99.0,-1.0 L100.0,-0.0" fill-opacity="0" stroke="black" stroke-width="1" />
<path d="M0.0,-9.0 L3.395039598314083,-14.69031625532447 L4.233018793986826,-16.443440416537552" fill-opacity="0" stroke="black" stroke-width="1" />
<path d="M0.0,9.0 L3.395039598314083,14.69031625532447 L4.233018793986826,16.443440416537552" fill-opacity="0" stroke="black" stroke-width="1" />
<path d="M0.0,91.0 L3.395039598314083,85.30968374467554 L4.233018793986826,83.55655958346244" fill-opacity="0" stroke="black" stroke-width="1" />
<path d="M0.0,-91.0 L3.395039598314083,-85.30968374467554 L4.233018793986826,-83.55655958346244" fill-opacity="0" stroke="black" stroke-width="1" />
<path d="M3.395039598314083,-14.69031625532447 L4.233018793986826,-16.443440416537552 L8.379663810308157,-18.20753572470382" fill-opacity="0" stroke="black" stroke-width="1" />
<path d="M3.395039598314083,14.69031625532447 L4.233018793986826,16.443440416537552 L8.379663810308157,18.20753572470382" fill-opacity="0" stroke="black" stroke-width="1" />
<path d="M3.395039598314083,85.30968374467554 L4.233018793986826,83.55655958346244 L8.379663810308157,81.79246427529618" fill-opacity="0" stroke="black" stroke-width="1" />
<path d="M3.395039598314083,-85.30968374467554 L4.233018793986826,-83.55655958346244 L8.379663810308157,-81.79246427529618" fill-opacity="0" stroke="black" stroke-width="1" />
<path d="M4.233018793986826,-16.443440416537552 L8.379663810308157,-18.20753572470382 L10.668320464380633,-20.412272980099683" fill-opacity="0" stroke="black" stroke-width="1" />
<path d="M4.233018793986826,16.443440416537552 L8.379663810308157,18.20753572470382 L10.668320464380633,20.412272980099683" fill-opacity="0" stroke="black" stroke-width="1" />
<path d="M4.233018793986826,83.55655958346244 L8.379663810308157,81.79246427529618 L10.668320464380633,79.58772701990031" fill-opacity="0" stroke="black" stroke-width="1" />
<path d="M4.233018793986826,-83.55655958346244 L8.379663810308157,-81.79246427529618 L10.668320464380633,-79.58772701990031" fill-opacity="0" stroke="black" stroke-width="1" />
<path d="M8.379663810308157,-18.20753572470382 L10.668320464380633,-20.412272980099683 L0.0,-37.0" fill-opacity="0" stroke="black" stroke-width="1" />
<path d="M8.379663810308157,18.20753572470382 L10.668320464380633,20.412272980099683 L0.0,37.0" fill-opacity="0" stroke="black" stroke-width="1" />
<path d="M8.379663810308157,81.79246427529618 L10.668320464380633,79.58772701990031 L0.0,63.0" fill-opacity="0" stroke="black" stroke-width="1" />
<path d="M8.379663810308157,-81.79246427529618 L10.668320464380633,-79.58772701990031 L0.0,-63.0" fill-opacity="0" stroke="black" stroke-width="1" />
<path d="M20.0,-50.0 L20.6468508965237,-33.82273639760987 L20.72636487305772,-35.07048381437115" fill-opacity="0" stroke="black" stroke-width="1" />
<path d="M20.0,50.0 L20.6468508965237,33.82273639760987 L20.72636487305772,35.07048381437115" fill-opacity="0" stroke="black" stroke-width="1" />
<path d="M20.0,50.0 L20.6468508965237,66.17726360239013 L20.72636487305772,64.92951618562884" fill-opacity="0" stroke="black" stroke-width="1" />
<path d="M20.0,-50.0 L20.6468508965237,-66.17726360239013 L20.72636487305772,-64.92951618562884" fill-opacity="0" stroke="black" stroke-width="1" />
<path d="M20.6468508965237,-33.82273639760987 L20.72636487305772,-35.07048381437115 L26.34614442571684,-43.23017768345355" fill-opacity="0" stroke="black" stroke-width="1" />
<path d="M20.6468508965237,33.82273639760987 L20.72636487305772,35.07048381437115 L26.34614442571684,43.23017768345355" fill-opacity="0" stroke="black" stroke-width="1" />
<path d="M20.6468508965237,66.17726360239013 L20.72636487305772,64.92951618562884 L26.34614442571684,56.76982231654645" fill-opacity="0" stroke="black" stroke-width="1" />
<path d="M20.6468508965237,-66.17726360239013 L20.72636487305772,-64.92951618562884 L26.34614442571684,-56.76982231654645" fill-opacity="0" stroke="black" stroke-width="1" />
<path d="M20.72636487305772,-35.07048381437115 L26.34614442571684,-43.23017768345355 L31.019121077460966,-48.801158070823845" fill-opacity="0" stroke="black" stroke-width="1" />
<path d="M20.72636487305772,35.07048381437115 L26.34614442571684,43.23017768345355 L31.019121077460966,48.801158070823845" fill-opacity="0" stroke="black" stroke-width="1" />
<path d="M20.72636487305772,64.92951618562884 L26.34614442571684,56.76982231654645 L31.019121077460966,51.198841929176155" fill-opacity="0" stroke="black" stroke-width="1" />
<path d="M20.72636487305772,-64.92951618562884 L26.34614442571684,-56.76982231654645 L31.019121077460966,-51.198841929176155" fill-opacity="0" stroke="black" stroke-width="1" />
<path d="M26.34614442571684,-43.23017768345355 L31.019121077460966,-48.801158070823845 L32.0,-50.0" fill-opacity="0" stroke="black" stroke-width="1" />
<path d="M26.34614442571684,43.23017768345355 L31.019121077460966,48.801158070823845 L32.0,50.0" fill-opacity="0" stroke="black" stroke-width="1" />
<path d="M26.34614442571684,56.76982231654645 L31.019121077460966,51.198841929176155 L32.0,50.0" fill-opacity="0" stroke="black" stroke-width="1" />
<path d="M26.34614442571684,-56.76982231654645 L31.019121077460966,-51.198841929176155 L32.0,-50.0" fill-opacity="0" stroke="black" stroke-width="1" />
<path d="M32.0,-50.0 L40.422965870761075,-49.83335259115368 L46.0,-50.0" fill-opacity="0" stroke="black" stroke-width="1" />
<path d="M32.0,50.0 L40.422965870761075,49.83335259115368 L46.0,50.0" fill-opacity="0" stroke="black" stroke-width="1" />
<path d="M32.0,50.0 L40.422965870761075,50.16664740884632 L46.0,50.0" fill-opacity="0" stroke="black" stroke-width="1" />
<path d="M32.0,-50.0 L40.422965870761075,-50.16664740884632 L46.0,-50.0" fill-opacity="0" stroke="black" stroke-width="1" />
<path d="M26.0,-26.0 L17.620223769393316,-25.340861379329983 L15.710923878687854,-22.382183490686558" fill-opacity="0" stroke="black" stroke-width="1" />
<path d="M26.0,26.0 L17.620223769393316,25.340861379329983 L15.710923878687854,22.382183490686558" fill-opacity="0" stroke="black" stroke-width="1" />
<path d="M26.0,74.0 L17.620223769393316,74.65913862067002 L15.710923878687854,77.61781650931344" fill-opacity="0" stroke="black" stroke-width="1" />
<path d="M26.0,-74.0 L17.620223769393316,-74.65913862067002 L15.710923878687854,-77.61781650931344" fill-opacity="0" stroke="black" stroke-width="1" />
<path d="M17.620223769393316,-25.340861379329983 L15.710923878687854,-22.382183490686558 L13.321552461121735,-20.57168917177303" fill-opacity="0" stroke="black" stroke-width="1" />
<path d="M17.620223769393316,25.340861379329983 L15.710923878687854,22.382183490686558 L13.321552461121735,20.57168917177303" fill-opacity="0" stroke="black" stroke-width="1" />
<path d="M17.620223769393316,74.65913862067002 L15.710923878687854,77.61781650931344 L13.321552461121735,79.42831082822697" fill-opacity="0" stroke="black" stroke-width="1" />
<path d="M17.620223769393316,-74.65913862067002 L15.710923878687854,-77.61781650931344 L13.321552461121735,-79.42831082822697" fill-opacity="0" stroke="black" stroke-width="1" />
<path d="M15.710923878687854,-22.382183490686558 L13.321552461121735,-20.57168917177303 L3.3641304058780617,-10.564042823059022" fill-opacity="0" stroke="black" stroke-width="1" />
<path d="M15.710923878687854,22.382183490686558 L13.321552461121735,20.57168917177303 L3.3641304058780617,10.564042823059022" fill-opacity="0" stroke="black" stroke-width="1" />
<path d="M15.710923878687854,77.61781650931344 L13.321552461121735,79.42831082822697 L3.3641304058780617,89.43595717694097" fill-opacity="0" stroke="black" stroke-width="1" />
<path d="M15.710923878687854,-77.61781650931344 L13.321552461121735,-79.42831082822697 L3.3641304058780617,-89.43595717694097" fill-opacity="0" stroke="black" stroke-width="1" />
<path d="M13.321552461121735,-20.57168917177303 L3.3641304058780617,-10.564042823059022 L0.1605562050877699,-1.112419755358074" fill-opacity="0" stroke="black" stroke-width="1" />
<path d="M13.321552461121735,20.57168917177303 L3.3641304058780617,10.564042823059022 L0.1605562050877699,1.112419755358074" fill-opacity="0" stroke="black" stroke-width="1" />
<path d="M13.321552461121735,79.42831082822697 L3.3641304058780617,89.43595717694097 L0.1605562050877699,98.88758024464192" fill-opacity="0" stroke="black" stroke-width="1" />
<path d="M13.321552461121735,-79.42831082822697 L3.3641304058780617,-89.43595717694097 L0.1605562050877699,-98.88758024464192" fill-opacity="0" stroke="black" stroke-width="1" />
<path d="M3.3641304058780617,-10.564042823059022 L0.1605562050877699,-1.112419755358074 L1.0,-1.0" fill-opacity="0" stroke="black" stroke-width="1" />
<path d="M3.3641304058780617,10.564042823059022 L0.1605562050877699,1.112419755358074 L1.0,1.0" fill-opacity="0" stroke="black" stroke-width="1" />
<path d="M3.3641304058780617,89.43595717694097 L0.1605562050877699,98.88758024464192 L1.0,99.0" fill-opacity="0" stroke="black" stroke-width="1" />
<path d="M3.3641304058780617,-89.43595717694097 L0.1605562050877699,-98.88758024464192 L1.0,-99.0" fill-opacity="0" stroke="black" stroke-width="1" />
<path d="M0.0,91.0 L-3.395039598314083,85.30968374467552 L-4.233018793986826,83.55655958346244" fill-opacity="0" stroke="black" stroke-width="1" />
<path d="M0.0,-9.0 L-3.395039598314083,-14.69031625532447 L-4.233018793986826,-16.443440416537552" fill-opacity="0" stroke="black" stroke-width="1" />
<path d="M0.0,9.0 L-3.395039598314083,14.690316255324475 L-4.233018793986826,16.443440416537555" fill-opacity="0" stroke="black" stroke-width="1" />
<path d="M0.0,-91.0 L-3.395039598314083,-85.30968374467554 L-4.233018793986826,-83.55655958346244" fill-opacity="0" stroke="black" stroke-width="1" />
<path d="M-3.395039598314083,85.30968374467552 L-4.233018793986826,83.55655958346244 L-8.379663810308157,81.79246427529618" fill-opacity="0" stroke="black" stroke-width="1" />
<path d="M-3.395039598314083,-14.69031625532447 L-4.233018793986826,-16.443440416537552 L-8.379663810308157,-18.20753572470382" fill-opacity="0" stroke="black" stroke-width="1" />
<path d="M-3.395039598314083,14.690316255324475 L-4.233018793986826,16.443440416537555 L-8.379663810308157,18.207535724703817" fill-opacity="0" stroke="black" stroke-width="1" />
<path d="M-3.395039598314083,-85.30968374467554 L-4.233018793986826,-83.55655958346244 L-8.379663810308157,-81.79246427529618" fill-opacity="0" stroke="black" stroke-width="1" />
<path d="M-4.233018793986826,83.55655958346244 L-8.379663810308157,81.79246427529618 L-10.668320464380633,79.58772701990031" fill-opacity="0" stroke="black" stroke-width="1" />
<path d="M-4.233018793986826,-16.443440416537552 L-8.379663810308157,-18.20753572470382 L-10.668320464380633,-20.412272980099683" fill-opacity="0" stroke="black" stroke-width="1" />
<path d="M-4.233018793986826,16.443440416537555 L-8.379663810308157,18.207535724703817 L-10.668320464380633,20.412272980099686" fill-opacity="0" stroke="black" stroke-width="1" />
<path d="M-4.233018793986826,-83.55655958346244 L-8.379663810308157,-81.79246427529618 L-10.668320464380633,-79.58772701990031" fill-opacity="0" stroke="black" stroke-width="1" />
<path d="M-8.379663810308157,81.79246427529618 L-10.668320464380633,79.58772701990031 L0.0,63.0" fill-opacity="0" stroke="black" stroke-width="1" />
<path d="M-8.379663810308157,-18.20753572470382 L-10.668320464380633,-20.412272980099683 L0.0,-37.0" fill-opacity="0" stroke="black" stroke-width="1" />
<path d="M-8.379663810308157,18.207535724703817 L-10.668320464380633,20.412272980099686 L0.0,37.0" fill-opacity="0" stroke="black" stroke-width="1" />
<path d="M-8.379663810308157,-81.79246427529618 L-10.668320464380633,-79.58772701990031 L0.0,-63.0" fill-opacity="0" stroke="black" stroke-width="1" />
<path d="M-20.0,50.0 L-20.6468508965237,66.17726360239013 L-20.72636487305772,64.92951618562884" fill-opacity="0" stroke="black" stroke-width="1" />
<path d="M-20.0,-50.0 L-20.6468508965237,-33.82273639760987 L-20.72636487305772,-35.07048381437115" fill-opacity="0" stroke="black" stroke-width="1" />
<path d="M-20.0,50.0 L-20.6468508965237,33.82273639760987 L-20.72636487305772,35.07048381437116" fill-opacity="0" stroke="black" stroke-width="1" />
<path d="M-20.0,-50.0 L-20.6468508965237,-66.17726360239013 L-20.72636487305772,-64.92951618562884" fill-opacity="0" stroke="black" stroke-width="1" />
<path d="M-20.6468508965237,66.17726360239013 L-20.72636487305772,64.92951618562884 L-26.34614442571684,56.76982231654645" fill-opacity="0" stroke="black" stroke-width="1" />
<path d="M-20.6468508965237,-33.82273639760987 L-20.72636487305772,-35.07048381437115 L-26.34614442571684,-43.23017768345355" fill-opacity="0" stroke="black" stroke-width="1" />
<path d="M-20.6468508965237,33.82273639760987 L-20.72636487305772,35.07048381437116 L-26.34614442571684,43.23017768345355" fill-opacity="0" stroke="black" stroke-width="1" />
<path d="M-20.6468508965237,-66.17726360239013 L-20.72636487305772,-64.92951618562884 L-26.34614442571684,-56.76982231654645" fill-opacity="0" stroke="black" stroke-width="1" />
<path d="M-20.72636487305772,64.92951618562884 L-26.34614442571684,56.76982231654645 L-31.019121077460966,51.198841929176155" fill-opacity="0" stroke="black" stroke-width="1" />
<path d="M-20.72636487305772,-35.07048381437115 L-26.34614442571684,-43.23017768345355 L-31.019121077460966,-48.801158070823845" fill-opacity="0" stroke="black" stroke-width="1" />
<path d="M-20.72636487305772,35.07048381437116 L-26.34614442571684,43.23017768345355 L-31.019121077460966,48.801158070823845" fill-opacity="0" stroke="black" stroke-width="1" />
<path d="M-20.72636487305772,-64.92951618562884 L-26.34614442571684,-56.76982231654645 L-31.019121077460966,-51.198841929176155" fill-opacity="0" stroke="black" stroke-width="1" />
<path d="M-26.34614442571684,56.76982231654645 L-31.019121077460966,51.198841929176155 L-32.0,50.0" fill-opacity="0" stroke="black" stroke-width="1" />
<path d="M-26.34614442571684,-43.23017768345355 L-31.019121077460966,-48.801158070823845 L-32.0,-50.0" fill-opacity="0" stroke="black" stroke-width="1" />
<path d="M-26.34614442571684,43.23017768345355 L-31.019121077460966,48.801158070823845 L-32.0,50.0" fill-opacity="0" stroke="black" stroke-width="1" />
<path d="M-26.34614442571684,-56.76982231654645 L-31.019121077460966,-51.198841929176155 L-32.0,-50.0" fill-opacity="0" stroke="black" stroke-width="1" />
<path d="M-32.0,50.0 L-40.422965870761075,50.16664740884632 L-46.0,50.0" fill-opacity="0" stroke="black" stroke-width="1" />
<path d="M-32.0,-50.0 L-40.422965870761075,-49.83335259115368 L-46.0,-50.0" fill-opacity="0" stroke="black" stroke-width="1" />
<path d="M-32.0,50.0 L-40.422965870761075,49.83335259115368 L-46.0,50.0" fill-opacity="0" stroke="black" stroke-width="1" />
<path d="M-32.0,-50.0 L-40.422965870761075,-50.16664740884632 L-46.0,-50.0" fill-opacity="0" stroke="black" stroke-width="1" />
<path d="M-26.0,74.0 L-17.620223769393316,74.65913862067002 L-15.710923878687854,77.61781650931344" fill-opacity="0" stroke="black" stroke-width="1" />
<path d="M-26.0,-26.0 L-17.620223769393316,-25.340861379329983 L-15.710923878687854,-22.382183490686558" fill-opacity="0" stroke="black" stroke-width="1" />
<path d="M-26.0,26.0 L-17.620223769393316,25.34086137932998 L-15.710923878687854,22.382183490686558" fill-opacity="0" stroke="black" stroke-width="1" />
<path d="M-26.0,-74.0 L-17.620223769393316,-74.65913862067002 L-15.710923878687854,-77.61781650931344" fill-opacity="0" stroke="black" stroke-width="1" />
<path d="M-17.620223769393316,74.65913862067002 L-15.710923878687854,77.61781650931344 L-13.321552461121735,79.42831082822697" fill-opacity="0" stroke="black" stroke-width="1" />
<path d="M-17.620223769393316,-25.340861379329983 L-15.710923878687854,-22.382183490686558 L-13.321552461121735,-20.57168917177303" fill-opacity="0" stroke="black" stroke-width="1" />
<path d="M-17.620223769393316,25.34086137932998 L-15.710923878687854,22.382183490686558 L-13.321552461121735,20.57168917177303" fill-opacity="0" stroke="black" stroke-width="1" />
<path d="M-17.620223769393316,-74.65913862067002 L-15.710923878687854,-77.61781650931344 L-13.321552461121735,-79.42831082822697" fill-opacity="0" stroke="black" stroke-width="1" />
<path d="M-15.710923878687854,77.61781650931344 L-13.321552461121735,79.42831082822697 L-3.3641304058780617,89.43595717694097" fill-opacity="0" stroke="black" stroke-width="1" />
<path d="M-15.710923878687854,-22.382183490686558 L-13.321552461121735,-20.57168917177303 L-3.3641304058780617,-10.564042823059022" fill-opacity="0" stroke="black" stroke-width="1" />
<path d="M-15.710923878687854,22.382183490686558 L-13.321552461121735,20.57168917177303 L-3.3641304058780617,10.564042823059026" fill-opacity="0" stroke="black" stroke-width="1" />
<path d="M-15.710923878687854,-77.61781650931344 L-13.321552461121735,-79.42831082822697 L-3.3641304058780617,-89.43595717694097" fill-opacity="0" stroke="black" stroke-width="1" />
<path d="M-13.321552461121735,79.42831082822697 L-3.3641304058780617,89.43595717694097 L-0.1605562050877699,98.88758024464192" fill-opacity="0" stroke="black" stroke-width="1" />
<path d="M-13.321552461121735,-20.57168917177303 L-3.3641304058780617,-10.564042823059022 L-0.1605562050877699,-1.112419755358074" fill-opacity="0" stroke="black" stroke-width="1" />
<path d="M-13.321552461121735,20.57168917177303 L-3.3641304058780617,10.564042823059026 L-0.1605562050877699,1.1124197553580757" fill-opacity="0" stroke="black" stroke-width="1" />
<path d="M-13.321552461121735,-79.42831082822697 L-3.3641304058780617,-89.43595717694097 L-0.1605562050877699,-98.88758024464192" fill-opacity="0" stroke="black" stroke-width="1" />
<path d="M-3.3641304058780617,89.43595717694097 L-0.1605562050877699,98.88758024464192 L-1.0,99.0" fill-opacity="0" stroke="black" stroke-width="1" />
<path d="M-3.3641304058780617,-10.564042823059022 L-0.1605562050877699,-1.112419755358074 L-1.0,-1.0" fill-opacity="0" stroke="black" stroke-width="1" />
<path d="M-3.3641304058780617,10.564042823059026 L-0.1605562050877699,1.1124197553580757 L-1.0,1.0" fill-opacity="0" stroke="black" stroke-width="1" />
<path d="M-3.3641304058780617,-89.43595717694097 L-0.1605562050877699,-98.88758024464192 L-1.0,-99.0" fill-opacity="0" stroke="black" stroke-width="1" />
<path d="M-91.0,-0.0 L-85.30968374467554,-3.395039598314083 L-83.55655958346244,-4.233018793986826" fill-opacity="0" stroke="black" stroke-width="1" />
<path d="M-91.0,-0.0 L-85.30968374467554,3.395039598314083 L-83.55655958346244,4.233018793986826" fill-opacity="0" stroke="black" stroke-width="1" />
<path d="M-85.30968374467554,-3.395039598314083 L-83.55655958346244,-4.233018793986826 L-81.79246427529618,-8.379663810308157" fill-opacity="0" stroke="black" stroke-width="1" />
<path d="M-85.30968374467554,3.395039598314083 L-83.55655958346244,4.233018793986826 L-81.79246427529618,8.379663810308157" fill-opacity="0" stroke="black" stroke-width="1" />
<path d="M-83.55655958346244,-4.233018793986826 L-81.79246427529618,-8.379663810308157 L-79.58772701990031,-10.668320464380633" fill-opacity="0" stroke="black" stroke-width="1" />
<path d="M-83.55655958346244,4.233018793986826 L-81.79246427529618,8.379663810308157 L-79.58772701990031,10.668320464380633" fill-opacity="0" stroke="black" stroke-width="1" />
<path d="M-81.79246427529618,-8.379663810308157 L-79.58772701990031,-10.668320464380633 L-63.0,-0.0" fill-opacity="0" stroke="black" stroke-width="1" />
<path d="M-81.79246427529618,8.379663810308157 L-79.58772701990031,10.668320464380633 L-63.0,-0.0" fill-opacity="0" stroke="black" stroke-width="1" />
<path d="M-50.0,-20.0 L-66.17726360239013,-20.6468508965237 L-64.92951618562884,-20.72636487305772" fill-opacity="0" stroke="black" stroke-width="1" />
<path d="M-50.0,20.0 L-66.17726360239013,20.6468508965237 L-64.92951618562884,20.72636487305772" fill-opacity="0" stroke="black" stroke-width="1" />
<path d="M-66.17726360239013,-20.6468508965237 L-64.92951618562884,-20.72636487305772 L-56.76982231654645,-26.34614442571684" fill-opacity="0" stroke="black" stroke-width="1" />
<path d="M-66.17726360239013,20.6468508965237 L-64.92951618562884,20.72636487305772 L-56.76982231654645,26.34614442571684" fill-opacity="0" stroke="black" stroke-width="1" />
<path d="M-64.92951618562884,-20.72636487305772 L-56.76982231654645,-26.34614442571684 L-51.198841929176155,-31.019121077460966" fill-opacity="0" stroke="black" stroke-width="1" />
<path d="M-64.92951618562884,20.72636487305772 L-56.76982231654645,26.34614442571684 L-51.198841929176155,31.019121077460966" fill-opacity="0" stroke="black" stroke-width="1" />
<path d="M-56.76982231654645,-26.34614442571684 L-51.198841929176155,-31.019121077460966 L-50.0,-32.0" fill-opacity="0" stroke="black" stroke-width="1" />
<path d="M-56.76982231654645,26.34614442571684 L-51.198841929176155,31.019121077460966 L-50.0,32.0" fill-opacity="0" stroke="black" stroke-width="1" />
<path d="M-50.0,-32.0 L-50.16664740884632,-40.422965870761075 L-50.0,-46.0" fill-opacity="0" stroke="black" stroke-width="1" />
<path d="M-50.0,32.0 L-50.16664740884632,40.422965870761075 L-50.0,46.0" fill-opacity="0" stroke="black" stroke-width="1" />
<path d="M-50.0,-50.0 L-55.0,-45.0 L-74.0,-26.0" fill-opacity="0" stroke="black" stroke-width="1" />
<path d="M-50.0,50.0 L-55.0,45.0 L-74.0,26.0" fill-opacity="0" stroke="black" stroke-width="1" />
<path d="M-55.0,-45.0 L-74.0,-26.0 L-74.65913862067002,-17.620223769393316" fill-opacity="0" stroke="black" stroke-width="1" />
<path d="M-55.0,45.0 L-74.0,26.0 L-74.65913862067002,17.620223769393316" fill-opacity="0" stroke="black" stroke-width="1" />
<path d="M-74.0,-26.0 L-74.65913862067002,-17.620223769393316 L-77.61781650931344,-15.710923878687854" fill-opacity="0" stroke="black" stroke-width="1" />
<path d="M-74.0,26.0 L-74.65913862067002,17.620223769393316 L-77.61781650931344,15.710923878687854" fill-opacity="0" stroke="black" stroke-width="1" />
<path d="M-74.65913862067002,-17.620223769393316 L-77.61781650931344,-15.710923878687854 L-79.42831082822697,-13.321552461121735" fill-opacity="0" stroke="black" stroke-width="1" />
<path d="M-74.65913862067002,17.620223769393316 L-77.61781650931344,15.710923878687854 L-79.42831082822697,13.321552461121735" fill-opacity="0" stroke="black" stroke-width="1" />
<path d="M-77.61781650931344,-15.710923878687854 L-79.42831082822697,-13.321552461121735 L-89.43595717694097,-3.3641304058780617" fill-opacity="0" stroke="black" stroke-width="1" />
<path d="M-77.61781650931344,15.710923878687854 L-79.42831082822697,13.321552461121735 L-89.43595717694097,3.3641304058780617" fill-opacity="0" stroke="black" stroke-width="1" />
<path d="M-79.42831082822697,-13.321552461121735 L-89.43595717694097,-3.3641304058780617 L-98.88758024464192,-0.1605562050877699" fill-opacity="0" stroke="black" stroke-width="1" />
<path d="M-79.42831082822697,13.321552461121735 L-89.43595717694097,3.3641304058780617 L-98.88758024464192,0.1605562050877699" fill-opacity="0" stroke="black" stroke-width="1" />
<path d="M-89.43595717694097,-3.3641304058780617 L-98.88758024464192,-0.1605562050877699 L-99.0,-1.0" fill-opacity="0" stroke="black" stroke-width="1" />
<path d="M-89.43595717694097,3.3641304058780617 L-98.88758024464192,0.1605562050877699 L-99.0,1.0" fill-opacity="0" stroke="black" stroke-width="1" />
<path d="M-98.88758024464192,-0.1605562050877699 L-99.0,-1.0 L-100.0,-0.0" fill-opacity="0" stroke="black" stroke-width="1" />
<path d="M-98.88758024464192,0.1605562050877699 L-99.0,1.0 L-100.0,-0.0" fill-opacity="0" stroke="black" stroke-width="1" />
<circle cx="0" cy="-97" r="8" stroke-dasharray="39.653880605311166 10.611601852125524" stroke-dashoffset="-17.59291886010284" stroke="black" stroke-width="1" fill="white" fill-opacity="1" />
<circle cx="0" cy="-97" r="4" stroke="black" stroke-width="1" fill="white" fill-opacity="1" />
</svg>