<?xml version="1.0" encoding="UTF-8"?>
<svg xmlns="http://www.w3.org/2000/svg" xmlns:xlink="http://www.w3.org/1999/xlink"
     width="250" height="250" viewBox="-125.0 -125.0 250 250">
<defs>
</defs>
<path d="M12.0,-0.0 L14.296015144040247,-4.181702768589815 L15.871134628748285,-5.389055827824609" fill="black" fill-opacity="0.6" stroke="black" stroke-width="1" />
<path d="M12.0,-0.0 L14.296015144040247,4.181702768589815 L15.871134628748285,5.389055827824609" fill="purple" fill-opacity="0.6" stroke="black" stroke-width="1" />
<path d="M14.296015144040247,-4.181702768589815 L15.871134628748285,-5.389055827824609 L25.249775646731564,-11.694662290803992" fill="green" fill-opacity="0.6" stroke="black" stroke-width="1" />
<path d="M14.296015144040247,4.181702768589815 L15.871134628748285,5.389055827824609 L25.249775646731564,11.694662290803992" fill="red" fill-opacity="0.6" stroke="black" stroke-width="1" />
<path d="M15.871134628748285,-5.389055827824609 L25.249775646731564,-11.694662290803992 L26.845925800339643,-12.998905359454596" fill="blue" fill-opacity="0.6" stroke="black" stroke-width="1" />
<path d="M15.871134628748285,5.389055827824609 L25.249775646731564,11.694662290803992 L26.845925800339643,12.998905359454596" fill="red" fill-opacity="0.6" stroke="black" stroke-width="1" />
<path d="M25.249775646731564,-11.694662290803992 L26.845925800339643,-12.998905359454596 L28.0,-0.0" fill="black" fill-opacity="0.6" stroke="black" stroke-width="1" />
<path d="M25.249775646731564,11.694662290803992 L26.845925800339643,12.998905359454596 L28.0,-0.0" fill="pink" fill-opacity="0.6" stroke="black" stroke-width="1" />
<path d="M50.0,-8.0 L40.35301541833166,-13.883005386657482 L44.689027726322685,-24.47717982305287" fill="brown" fill-opacity="0.6" stroke="black" stroke-width="1" />
<path d="M50.0,8.0 L40.35301541833166,13.883005386657482 L44.689027726322685,24.47717982305287" fill="blue" fill-opacity="0.6" stroke="black" stroke-width="1" />
<path d="M40.35301541833166,-13.883005386657482 L44.689027726322685,-24.47717982305287 L50.0,-31.0" fill="pink" fill-opacity="0.6" stroke="black" stroke-width="1" />
<path d="M40.35301541833166,13.883005386657482 L44.689027726322685,24.47717982305287 L50.0,31.0" fill="brown" fill-opacity="0.6" stroke="black" stroke-width="1" />
<path d="M50.0,50.0 L21.0,79.0 L19.0,81.0" fill="orange" fill-opacity="0.6" stroke="black" stroke-width="1" />
<path d="M50.0,-50.0 L21.0,-79.0 L19.0,-81.0" fill="black" fill-opacity="0.6" stroke="black" stroke-width="1" />
<path d="M21.0,79.0 L19.0,81.0 L15.0,85.0" fill="purple" fill-opacity="0.6" stroke="black" stroke-width="1" />
<path d="M21.0,-79.0 L19.0,-81.0 L15.0,-85.0" fill="brown" fill-opacity="0.6" stroke="black" stroke-width="1" />
<path d="M19.0,81.0 L15.0,85.0 L3.6188075771776824,88.87163008198178" fill="brown" fill-opacity="0.6" stroke="black" stroke-width="1" />
<path d="M19.0,-81.0 L15.0,-85.0 L3.6188075771776824,-88.87163008198178" fill="blue" fill-opacity="0.6" stroke="black" stroke-width="1" />
<path d="M15.0,-15.0 L11.128369918018228,-3.6188075771776824 L10.336437716322138,-2.8251742927308907" fill="red" fill-opacity="0.6" stroke="black" stroke-width="1" />
<path d="M15.0,15.0 L11.128369918018228,3.6188075771776824 L10.336437716322138,2.8251742927308907" fill="blue" fill-opacity="0.6" stroke="black" stroke-width="1" />
<path d="M11.128369918018228,-3.6188075771776824 L10.336437716322138,-2.8251742927308907 L10.0,-10.0" fill="orange" fill-opacity="0.6" stroke="black" stroke-width="1" />
<path d="M11.128369918018228,3.6188075771776824 L10.336437716322138,2.8251742927308907 L10.0,10.0" fill="brown" fill-opacity="0.6" stroke="black" stroke-width="1" />
<path d="M2.8251742927308907,89.66356228367786 L10.0,90.0 L2.563482529232956,92.40278804095665" fill="purple" fill-opacity="0.6" stroke="black" stroke-width="1" />
<path d="M2.8251742927308907,-89.66356228367786 L10.0,-90.0 L2.563482529232956,-92.40278804095665" fill="pink" fill-opacity="0.6" stroke="black" stroke-width="1" />
<path d="M10.0,-10.0 L7.597211959043348,-2.563482529232956 L7.1793511111992725,-1.913466385434115" fill="orange" fill-opacity="0.6" stroke="black" stroke-width="1" />
<path d="M10.0,10.0 L7.597211959043348,2.563482529232956 L7.1793511111992725,1.913466385434115" fill="blue" fill-opacity="0.6" stroke="black" stroke-width="1" />
<path d="M7.597211959043348,-2.563482529232956 L7.1793511111992725,-1.913466385434115 L6.0,-6.0" fill="green" fill-opacity="0.6" stroke="black" stroke-width="1" />
<path d="M7.597211959043348,2.563482529232956 L7.1793511111992725,1.913466385434115 L6.0,6.0" fill="blue" fill-opacity="0.6" stroke="black" stroke-width="1" />
<path d="M1.913466385434115,92.82064888880072 L6.0,94.0 L1.3943660456518958,95.06717683602608" fill="yellow" fill-opacity="0.6" stroke="black" stroke-width="1" />
<path d="M1.913466385434115,-92.82064888880072 L6.0,-94.0 L1.3943660456518958,-95.06717683602608" fill="green" fill-opacity="0.6" stroke="black" stroke-width="1" />
<path d="M6.0,-6.0 L4.932823163973915,-1.3943660456518958 L3.021892747970556,-0.9691956239353612" fill="purple" fill-opacity="0.6" stroke="black" stroke-width="1" />
<path d="M6.0,6.0 L4.932823163973915,1.3943660456518958 L3.021892747970556,0.9691956239353612" fill="brown" fill-opacity="0.6" stroke="black" stroke-width="1" />
<path d="M4.932823163973915,-1.3943660456518958 L3.021892747970556,-0.9691956239353612 L2.322348894011206,-0.8448581620254004" fill="red" fill-opacity="0.6" stroke="black" stroke-width="1" />
<path d="M4.932823163973915,1.3943660456518958 L3.021892747970556,0.9691956239353612 L2.322348894011206,0.8448581620254004" fill="red" fill-opacity="0.6" stroke="black" stroke-width="1" />
<path d="M3.021892747970556,-0.9691956239353612 L2.322348894011206,-0.8448581620254004 L1.756747624437538,-0.7550774883861334" fill="purple" fill-opacity="0.6" stroke="black" stroke-width="1" />
<path d="M3.021892747970556,0.9691956239353612 L2.322348894011206,0.8448581620254004 L1.756747624437538,0.7550774883861334" fill="blue" fill-opacity="0.6" stroke="black" stroke-width="1" />
<path d="M2.322348894011206,-0.8448581620254004 L1.756747624437538,-0.7550774883861334 L0.0,-0.0" fill="blue" fill-opacity="0.6" stroke="black" stroke-width="1" />
<path d="M2.322348894011206,0.8448581620254004 L1.756747624437538,0.7550774883861334 L0.0,-0.0" fill="pink" fill-opacity="0.6" stroke="black" stroke-width="1" />
<path d="M-12.0,-0.0 L-14.296015144040247,-4.181702768589815 L-15.871134628748285,-5.389055827824609" fill="blue" fill-opacity="0.6" stroke="black" stroke-width="1" />
<path d="M-12.0,-0.0 L-14.296015144040247,4.181702768589815 L-15.871134628748285,5.389055827824609" fill="blue" fill-opacity="0.6" stroke="black" stroke-width="1" />
<path d="M-14.296015144040247,-4.181702768589815 L-15.871134628748285,-5.389055827824609 L-25.249775646731564,-11.694662290803992" fill="green" fill-opacity="0.6" stroke="black" stroke-width="1" />
<path d="M-14.296015144040247,4.181702768589815 L-15.871134628748285,5.389055827824609 L-25.249775646731564,11.694662290803992" fill="green" fill-opacity="0.6" stroke="black" stroke-width="1" />
<path d="M-15.871134628748285,-5.389055827824609 L-25.249775646731564,-11.694662290803992 L-26.845925800339643,-12.998905359454596" fill="green" fill-opacity="0.6" stroke="black" stroke-width="1" />
<path d="M-15.871134628748285,5.389055827824609 L-25.249775646731564,11.694662290803992 L-26.845925800339643,12.998905359454596" fill="yellow" fill-opacity="0.6" stroke="black" stroke-width="1" />
<path d="M-25.249775646731564,-11.694662290803992 L-26.845925800339643,-12.998905359454596 L-28.0,-0.0" fill="red" fill-opacity="0.6" stroke="black" stroke-width="1" />
<path d="M-25.249775646731564,11.694662290803992 L-26.845925800339643,12.998905359454596 L-28.0,-0.0" fill="red" fill-opacity="0.6" stroke="black" stroke-width="1" />
<path d="M-50.0,-8.0 L-40.35301541833166,-13.883005386657482 L-44.689027726322685,-24.47717982305287" fill="orange" fill-opacity="0.6" stroke="black" stroke-width="1" />
<path d="M-50.0,8.0 L-40.35301541833166,13.883005386657482 L-44.689027726322685,24.47717982305287" fill="blue" fill-opacity="0.6" stroke="black" stroke-width="1" />
<path d="M-40.35301541833166,-13.883005386657482 L-44.689027726322685,-24.47717982305287 L-50.0,-31.0" fill="pink" fill-opacity="0.6" stroke="black" stroke-width="1" />
<path d="M-40.35301541833166,13.883005386657482 L-44.689027726322685,24.47717982305287 L-50.0,31.0" fill="orange" fill-opacity="0.6" stroke="black" stroke-width="1" />
<path d="M-50.0,50.0 L-21.0,79.0 L-19.0,81.0" fill="purple" fill-opacity="0.6" stroke="black" stroke-width="1" />
<path d="M-50.0,-50.0 L-21.0,-79.0 L-19.0,-81.0" fill="red" fill-opacity="0.6" stroke="black" stroke-width="1" />
<path d="M-21.0,79.0 L-19.0,81.0 L-15.0,85.0" fill="pink" fill-opacity="0.6" stroke="black" stroke-width="1" />
<path d="M-21.0,-79.0 L-19.0,-81.0 L-15.0,-85.0" fill="orange" fill-opacity="0.6" stroke="black" stroke-width="1" />
<path d="M-19.0,81.0 L-15.0,85.0 L-3.6188075771776824,88.87163008198178" fill="brown" fill-opacity="0.6" stroke="black" stroke-width="1" />
<path d="M-19.0,-81.0 L-15.0,-85.0 L-3.6188075771776824,-88.87163008198178" fill="pink" fill-opacity="0.6" stroke="black" stroke-width="1" />
<path d="M-15.0,-15.0 L-11.128369918018228,-3.6188075771776824 L-10.336437716322138,-2.8251742927308907" fill="purple" fill-opacity="0.6" stroke="black" stroke-width="1" />
<path d="M-15.0,15.0 L-11.128369918018228,3.6188075771776824 L-10.336437716322138,2.8251742927308907" fill="orange" fill-opacity="0.6" stroke="black" stroke-width="1" />
<path d="M-11.128369918018228,-3.6188075771776824 L-10.336437716322138,-2.8251742927308907 L-10.0,-10.0" fill="yellow" fill-opacity="0.6" stroke="black" stroke-width="1" />
<path d="M-11.128369918018228,3.6188075771776824 L-10.336437716322138,2.8251742927308907 L-10.0,10.0" fill="brown" fill-opacity="0.6" stroke="black" stroke-width="1" />
<path d="M-2.8251742927308907,89.66356228367786 L-10.0,90.0 L-2.563482529232956,92.40278804095665" fill="black" fill-opacity="0.6" stroke="black" stroke-width="1" />
<path d="M-2.8251742927308907,-89.66356228367786 L-10.0,-90.0 L-2.563482529232956,-92.40278804095665" fill="green" fill-opacity="0.6" stroke="black" stroke-width="1" />
<path d="M-10.0,-10.0 L-7.597211959043348,-2.563482529232956 L-7.1793511111992725,-1.913466385434115" fill="pink" fill-opacity="0.6" stroke="black" stroke-width="1" />
<path d="M-10.0,10.0 L-7.597211959043348,2.563482529232956 L-7.1793511111992725,1.913466385434115" fill="blue" fill-opacity="0.6" stroke="black" stroke-width="1" />
<path d="M-7.597211959043348,-2.563482529232956 L-7.1793511111992725,-1.913466385434115 L-6.0,-6.0" fill="orange" fill-opacity="0.6" stroke="black" stroke-width="1" />
<path d="M-7.597211959043348,2.563482529232956 L-7.1793511111992725,1.913466385434115 L-6.0,6.0" fill="yellow" fill-opacity="0.6" stroke="black" stroke-width="1" />
<path d="M-1.913466385434115,92.82064888880073 L-6.0,94.0 L-1.3943660456518958,95.06717683602608" fill="purple" fill-opacity="0.6" stroke="black" stroke-width="1" />
<path d="M-1.913466385434115,-92.82064888880072 L-6.0,-94.0 L-1.3943660456518958,-95.06717683602608" fill="red" fill-opacity="0.6" stroke="black" stroke-width="1" />
<path d="M-6.0,-6.0 L-4.932823163973915,-1.3943660456518958 L-3.021892747970556,-0.9691956239353612" fill="brown" fill-opacity="0.6" stroke="black" stroke-width="1" />
<path d="M-6.0,6.0 L-4.932823163973915,1.3943660456518958 L-3.021892747970556,0.9691956239353612" fill="red" fill-opacity="0.6" stroke="black" stroke-width="1" />
<path d="M-4.932823163973915,-1.3943660456518958 L-3.021892747970556,-0.9691956239353612 L-2.322348894011206,-0.8448581620254004" fill="blue" fill-opacity="0.6" stroke="black" stroke-width="1" />
<path d="M-4.932823163973915,1.3943660456518958 L-3.021892747970556,0.9691956239353612 L-2.322348894011206,0.8448581620254004" fill="green" fill-opacity="0.6" stroke="black" stroke-width="1" />
<path d="M-3.021892747970556,-0.9691956239353612 L-2.322348894011206,-0.8448581620254004 L-1.756747624437538,-0.7550774883861334" fill="black" fill-opacity="0.6" stroke="black" stroke-width="1" />
<path d="M-3.021892747970556,0.9691956239353612 L-2.322348894011206,0.8448581620254004 L-1.756747624437538,0.7550774883861334" fill="blue" fill-opacity="0.6" stroke="black" stroke-width="1" />
<path d="M-2.322348894011206,-0.8448581620254004 L-1.756747624437538,-0.7550774883861334 L0.0,-0.0" fill="blue" fill-opacity="0.6" stroke="black" stroke-width="1" />
<path d="M-2.322348894011206,0.8448581620254004 L-1.756747624437538,0.7550774883861334 L0.0,-0.0" fill="orange" fill-opacity="0.6" stroke="black" stroke-width="1" />
<path d="M88.0,-0.0 L85.70398485595976,4.181702768589815 L84.12886537125172,5.389055827824609" fill="green" fill-opacity="0.6" stroke="black" stroke-width="1" />
<path d="M88.0,-0.0 L85.70398485595976,-4.181702768589815 L84.12886537125172,-5.389055827824609" fill="purple" fill-opacity="0.6" stroke="black" stroke-width="1" />
<path d="M85.70398485595976,4.181702768589815 L84.12886537125172,5.389055827824609 L74.75022435326844,11.694662290803992" fill="purple" fill-opacity="0.6" stroke="black" stroke-width="1" />
<path d="M85.70398485595976,-4.181702768589815 L84.12886537125172,-5.389055827824609 L74.75022435326844,-11.694662290803992" fill="black" fill-opacity="0.6" stroke="black" stroke-width="1" />
<path d="M84.12886537125172,5.389055827824609 L74.75022435326844,11.694662290803992 L73.15407419966036,12.998905359454596" fill="brown" fill-opacity="0.6" stroke="black" stroke-width="1" />
<path d="M84.12886537125172,-5.389055827824609 L74.75022435326844,-11.694662290803992 L73.15407419966036,-12.998905359454596" fill="yellow" fill-opacity="0.6" stroke="black" stroke-width="1" />
<path d="M74.75022435326844,11.694662290803992 L73.15407419966036,12.998905359454596 L72.0,-0.0" fill="black" fill-opacity="0.6" stroke="black" stroke-width="1" />
<path d="M74.75022435326844,-11.694662290803992 L73.15407419966036,-12.998905359454596 L72.0,-0.0" fill="red" fill-opacity="0.6" stroke="black" stroke-width="1" />
<path d="M50.0,8.0 L59.64698458166834,13.883005386657482 L55.310972273677315,24.47717982305287" fill="brown" fill-opacity="0.6" stroke="black" stroke-width="1" />
<path d="M50.0,-8.0 L59.64698458166834,-13.883005386657482 L55.310972273677315,-24.47717982305287" fill="black" fill-opacity="0.6" stroke="black" stroke-width="1" />
<path d="M59.64698458166834,13.883005386657482 L55.310972273677315,24.47717982305287 L50.0,31.0" fill="brown" fill-opacity="0.6" stroke="black" stroke-width="1" />
<path d="M59.64698458166834,-13.883005386657482 L55.310972273677315,-24.47717982305287 L50.0,-31.0" fill="blue" fill-opacity="0.6" stroke="black" stroke-width="1" />
<path d="M50.0,50.0 L79.0,21.0 L81.0,19.0" fill="black" fill-opacity="0.6" stroke="black" stroke-width="1" />
<path d="M50.0,-50.0 L79.0,-21.0 L81.0,-19.0" fill="pink" fill-opacity="0.6" stroke="black" stroke-width="1" />
<path d="M79.0,21.0 L81.0,19.0 L85.0,15.0" fill="pink" fill-opacity="0.6" stroke="black" stroke-width="1" />
<path d="M79.0,-21.0 L81.0,-19.0 L85.0,-15.0" fill="black" fill-opacity="0.6" stroke="black" stroke-width="1" />
<path d="M81.0,19.0 L85.0,15.0 L88.87163008198178,3.6188075771776824" fill="black" fill-opacity="0.6" stroke="black" stroke-width="1" />
<path d="M81.0,-19.0 L85.0,-15.0 L88.87163008198178,-3.6188075771776824" fill="blue" fill-opacity="0.6" stroke="black" stroke-width="1" />
<path d="M85.0,15.0 L88.87163008198178,3.6188075771776824 L89.66356228367786,2.8251742927308907" fill="purple" fill-opacity="0.6" stroke="black" stroke-width="1" />
<path d="M85.0,-15.0 L88.87163008198178,-3.6188075771776824 L89.66356228367786,-2.8251742927308907" fill="orange" fill-opacity="0.6" stroke="black" stroke-width="1" />
<path d="M88.87163008198178,3.6188075771776824 L89.66356228367786,2.8251742927308907 L90.0,10.0" fill="brown" fill-opacity="0.6" stroke="black" stroke-width="1" />
<path d="M88.87163008198178,-3.6188075771776824 L89.66356228367786,-2.8251742927308907 L90.0,-10.0" fill="blue" fill-opacity="0.6" stroke="black" stroke-width="1" />
<path d="M89.66356228367786,2.8251742927308907 L90.0,10.0 L92.40278804095665,2.563482529232956" fill="purple" fill-opacity="0.6" stroke="black" stroke-width="1" />
<path d="M89.66356228367786,-2.8251742927308907 L90.0,-10.0 L92.40278804095665,-2.563482529232956" fill="purple" fill-opacity="0.6" stroke="black" stroke-width="1" />
<path d="M90.0,10.0 L92.40278804095665,2.563482529232956 L92.82064888880072,1.913466385434115" fill="black" fill-opacity="0.6" stroke="black" stroke-width="1" />
<path d="M90.0,-10.0 L92.40278804095665,-2.563482529232956 L92.82064888880072,-1.913466385434115" fill="brown" fill-opacity="0.6" stroke="black" stroke-width="1" />
<path d="M92.40278804095665,2.563482529232956 L92.82064888880072,1.913466385434115 L94.0,6.0" fill="red" fill-opacity="0.6" stroke="black" stroke-width="1" />
<path d="M92.40278804095665,-2.563482529232956 L92.82064888880072,-1.913466385434115 L94.0,-6.0" fill="pink" fill-opacity="0.6" stroke="black" stroke-width="1" />
<path d="M92.82064888880072,1.913466385434115 L94.0,6.0 L95.06717683602608,1.3943660456518958" fill="black" fill-opacity="0.6" stroke="black" stroke-width="1" />
<path d="M92.82064888880072,-1.913466385434115 L94.0,-6.0 L95.06717683602608,-1.3943660456518958" fill="purple" fill-opacity="0.6" stroke="black" stroke-width="1" />
<path d="M94.0,6.0 L95.06717683602608,1.3943660456518958 L96.97810725202945,0.9691956239353612" fill="blue" fill-opacity="0.6" stroke="black" stroke-width="1" />
<path d="M94.0,-6.0 L95.06717683602608,-1.3943660456518958 L96.97810725202945,-0.9691956239353612" fill="orange" fill-opacity="0.6" stroke="black" stroke-width="1" />
<path d="M95.06717683602608,1.3943660456518958 L96.97810725202945,0.9691956239353612 L97.67765110598879,0.8448581620254004" fill="orange" fill-opacity="0.6" stroke="black" stroke-width="1" />
<path d="M95.06717683602608,-1.3943660456518958 L96.97810725202945,-0.9691956239353612 L97.67765110598879,-0.8448581620254004" fill="red" fill-opacity="0.6" stroke="black" stroke-width="1" />
<path d="M96.97810725202945,0.9691956239353612 L97.67765110598879,0.8448581620254004 L98.24325237556246,0.7550774883861334" fill="brown" fill-opacity="0.6" stroke="black" stroke-width="1" />
<path d="M96.97810725202945,-0.9691956239353612 L97.67765110598879,-0.8448581620254004 L98.24325237556246,-0.7550774883861334" fill="yellow" fill-opacity="0.6" stroke="black" stroke-width="1" />
<path d="M97.67765110598879,0.8448581620254004 L98.24325237556246,0.7550774883861334 L100.0,-0.0" fill="orange" fill-opacity="0.6" stroke="black" stroke-width="1" />
<path d="M97.67765110598879,-0.8448581620254004 L98.24325237556246,-0.7550774883861334 L100.0,-0.0" fill="orange" fill-opacity="0.6" stroke="black" stroke-width="1" />
<path d="M0.0,-12.0 L4.181702768589815,-14.296015144040247 L5.389055827824609,-15.871134628748285" fill="red" fill-opacity="0.6" stroke="black" stroke-width="1" />
<path d="M0.0,12.0 L4.181702768589815,14.296015144040247 L5.389055827824609,15.871134628748285" fill="brown" fill-opacity="0.6" stroke="black" stroke-width="1" />
<path d="M0.0,88.0 L4.181702768589815,85.70398485595976 L5.389055827824609,84.12886537125172" fill="red" fill-opacity="0.6" stroke="black" stroke-width="1" />
<path d="M0.0,-88.0 L4.181702768589815,-85.70398485595976 L5.389055827824609,-84.12886537125172" fill="brown" fill-opacity="0.6" stroke="black" stroke-width="1" />
<path d="M4.181702768589815,-14.296015144040247 L5.389055827824609,-15.871134628748285 L11.694662290803992,-25.249775646731564" fill="green" fill-opacity="0.6" stroke="black" stroke-width="1" />
<path d="M4.181702768589815,14.296015144040247 L5.389055827824609,15.871134628748285 L11.694662290803992,25.249775646731564" fill="purple" fill-opacity="0.6" stroke="black" stroke-width="1" />
<path d="M4.181702768589815,85.70398485595976 L5.389055827824609,84.12886537125172 L11.694662290803992,74.75022435326844" fill="brown" fill-opacity="0.6" stroke="black" stroke-width="1" />
<path d="M4.181702768589815,-85.70398485595976 L5.389055827824609,-84.12886537125172 L11.694662290803992,-74.75022435326844" fill="purple" fill-opacity="0.6" stroke="black" stroke-width="1" />
<path d="M5.389055827824609,-15.871134628748285 L11.694662290803992,-25.249775646731564 L12.998905359454596,-26.845925800339643" fill="orange" fill-opacity="0.6" stroke="black" stroke-width="1" />
<path d="M5.389055827824609,15.871134628748285 L11.694662290803992,25.249775646731564 L12.998905359454596,26.845925800339643" fill="black" fill-opacity="0.6" stroke="black" stroke-width="1" />
<path d="M5.389055827824609,84.12886537125172 L11.694662290803992,74.75022435326844 L12.998905359454596,73.15407419966036" fill="black" fill-opacity="0.6" stroke="black" stroke-width="1" />
<path d="M5.389055827824609,-84.12886537125172 L11.694662290803992,-74.75022435326844 L12.998905359454596,-73.15407419966036" fill="black" fill-opacity="0.6" stroke="black" stroke-width="1" />
<path d="M11.694662290803992,-25.249775646731564 L12.998905359454596,-26.845925800339643 L0.0,-28.0" fill="purple" fill-opacity="0.6" stroke="black" stroke-width="1" />
<path d="M11.694662290803992,25.249775646731564 L12.998905359454596,26.845925800339643 L0.0,28.0" fill="blue" fill-opacity="0.6" stroke="black" stroke-width="1" />
<path d="M11.694662290803992,74.75022435326844 L12.998905359454596,73.15407419966036 L0.0,72.0" fill="yellow" fill-opacity="0.6" stroke="black" stroke-width="1" />
<path d="M11.694662290803992,-74.75022435326844 L12.998905359454596,-73.15407419966036 L0.0,-72.0" fill="red" fill-opacity="0.6" stroke="black" stroke-width="1" />
<path d="M8.0,-50.0 L13.883005386657482,-40.35301541833166 L24.47717982305287,-44.689027726322685" fill="purple" fill-opacity="0.6" stroke="black" stroke-width="1" />
<path d="M8.0,50.0 L13.883005386657482,40.35301541833166 L24.47717982305287,44.689027726322685" fill="pink" fill-opacity="0.6" stroke="black" stroke-width="1" />
<path d="M8.0,50.0 L13.883005386657482,59.64698458166834 L24.47717982305287,55.310972273677315" fill="blue" fill-opacity="0.6" stroke="black" stroke-width="1" />
<path d="M8.0,-50.0 L13.883005386657482,-59.64698458166834 L24.47717982305287,-55.310972273677315" fill="red" fill-opacity="0.6" stroke="black" stroke-width="1" />
<path d="M13.883005386657482,-40.35301541833166 L24.47717982305287,-44.689027726322685 L31.0,-50.0" fill="brown" fill-opacity="0.6" stroke="black" stroke-width="1" />
<path d="M13.883005386657482,40.35301541833166 L24.47717982305287,44.689027726322685 L31.0,50.0" fill="brown" fill-opacity="0.6" stroke="black" stroke-width="1" />
<path d="M13.883005386657482,59.64698458166834 L24.47717982305287,55.310972273677315 L31.0,50.0" fill="black" fill-opacity="0.6" stroke="black" stroke-width="1" />
<path d="M13.883005386657482,-59.64698458166834 L24.47717982305287,-55.310972273677315 L31.0,-50.0" fill="brown" fill-opacity="0.6" stroke="black" stroke-width="1" />
<path d="M15.0,-15.0 L3.6188075771776824,-11.128369918018228 L2.8251742927308907,-10.336437716322138" fill="red" fill-opacity="0.6" stroke="black" stroke-width="1" />
<path d="M15.0,15.0 L3.6188075771776824,11.128369918018228 L2.8251742927308907,10.336437716322138" fill="black" fill-opacity="0.6" stroke="black" stroke-width="1" />
<path d="M15.0,85.0 L3.6188075771776824,88.87163008198178 L2.8251742927308907,89.66356228367786" fill="brown" fill-opacity="0.6" stroke="black" stroke-width="1" />
<path d="M15.0,-85.0 L3.6188075771776824,-88.87163008198178 L2.8251742927308907,-89.66356228367786" fill="orange" fill-opacity="0.6" stroke="black" stroke-width="1" />
<path d="M3.6188075771776824,-11.128369918018228 L2.8251742927308907,-10.336437716322138 L10.0,-10.0" fill="pink" fill-opacity="0.6" stroke="black" stroke-width="1" />
<path d="M3.6188075771776824,11.128369918018228 L2.8251742927308907,10.336437716322138 L10.0,10.0" fill="brown" fill-opacity="0.6" stroke="black" stroke-width="1" />
<path d="M3.6188075771776824,88.87163008198178 L2.8251742927308907,89.66356228367786 L10.0,90.0" fill="pink" fill-opacity="0.6" stroke="black" stroke-width="1" />
<path d="M3.6188075771776824,-88.87163008198178 L2.8251742927308907,-89.66356228367786 L10.0,-90.0" fill="red" fill-opacity="0.6" stroke="black" stroke-width="1" />
<path d="M10.0,-10.0 L2.563482529232956,-7.597211959043348 L1.913466385434115,-7.1793511111992725" fill="green" fill-opacity="0.6" stroke="black" stroke-width="1" />
<path d="M10.0,10.0 L2.563482529232956,7.597211959043348 L1.913466385434115,7.1793511111992725" fill="brown" fill-opacity="0.6" stroke="black" stroke-width="1" />
<path d="M10.0,90.0 L2.563482529232956,92.40278804095665 L1.913466385434115,92.82064888880072" fill="brown" fill-opacity="0.6" stroke="black" stroke-width="1" />
<path d="M10.0,-90.0 L2.563482529232956,-92.40278804095665 L1.913466385434115,-92.82064888880072" fill="green" fill-opacity="0.6" stroke="black" stroke-width="1" />
<path d="M2.563482529232956,-7.597211959043348 L1.913466385434115,-7.1793511111992725 L6.0,-6.0" fill="yellow" fill-opacity="0.6" stroke="black" stroke-width="1" />
<path d="M2.563482529232956,7.597211959043348 L1.913466385434115,7.1793511111992725 L6.0,6.0" fill="red" fill-opacity="0.6" stroke="black" stroke-width="1" />
<path d="M2.563482529232956,92.40278804095665 L1.913466385434115,92.82064888880072 L6.0,94.0" fill="yellow" fill-opacity="0.6" stroke="black" stroke-width="1" />
<path d="M2.563482529232956,-92.40278804095665 L1.913466385434115,-92.82064888880072 L6.0,-94.0" fill="yellow" fill-opacity="0.6" stroke="black" stroke-width="1" />
<path d="M6.0,-6.0 L1.3943660456518958,-4.932823163973915 L0.9691956239353612,-3.021892747970556" fill="pink" fill-opacity="0.6" stroke="black" stroke-width="1" />
<path d="M6.0,6.0 L1.3943660456518958,4.932823163973915 L0.9691956239353612,3.021892747970556" fill="blue" fill-opacity="0.6" stroke="black" stroke-width="1" />
<path d="M6.0,94.0 L1.3943660456518958,95.06717683602608 L0.9691956239353612,96.97810725202945" fill="pink" fill-opacity="0.6" stroke="black" stroke-width="1" />
<path d="M6.0,-94.0 L1.3943660456518958,-95.06717683602608 L0.9691956239353612,-96.97810725202945" fill="yellow" fill-opacity="0.6" stroke="black" stroke-width="1" />
<path d="M1.3943660456518958,-4.932823163973915 L0.9691956239353612,-3.021892747970556 L0.8448581620254004,-2.322348894011206" fill="red" fill-opacity="0.6" stroke="black" stroke-width="1" />
<path d="M1.3943660456518958,4.932823163973915 L0.9691956239353612,3.021892747970556 L0.8448581620254004,2.322348894011206" fill="green" fill-opacity="0.6" stroke="black" stroke-width="1" />
<path d="M1.3943660456518958,95.06717683602608 L0.9691956239353612,96.97810725202945 L0.8448581620254004,97.67765110598879" fill="black" fill-opacity="0.6" stroke="black" stroke-width="1" />
<path d="M1.3943660456518958,-95.06717683602608 L0.9691956239353612,-96.97810725202945 L0.8448581620254004,-97.67765110598879" fill="purple" fill-opacity="0.6" stroke="black" stroke-width="1" />
<path d="M0.9691956239353612,-3.021892747970556 L0.8448581620254004,-2.322348894011206 L0.7550774883861334,-1.756747624437538" fill="red" fill-opacity="0.6" stroke="black" stroke-width="1" />
<path d="M0.9691956239353612,3.021892747970556 L0.8448581620254004,2.322348894011206 L0.7550774883861334,1.756747624437538" fill="pink" fill-opacity="0.6" stroke="black" stroke-width="1" />
<path d="M0.9691956239353612,96.97810725202945 L0.8448581620254004,97.67765110598879 L0.7550774883861334,98.24325237556246" fill="green" fill-opacity="0.6" stroke="black" stroke-width="1" />
<path d="M0.9691956239353612,-96.97810725202945 L0.8448581620254004,-97.67765110598879 L0.7550774883861334,-98.24325237556246" fill="blue" fill-opacity="0.6" stroke="black" stroke-width="1" />
<path d="M0.8448581620254004,-2.322348894011206 L0.7550774883861334,-1.756747624437538 L0.0,-0.0" fill="green" fill-opacity="0.6" stroke="black" stroke-width="1" />
<path d="M0.8448581620254004,2.322348894011206 L0.7550774883861334,1.756747624437538 L0.0,-0.0" fill="brown" fill-opacity="0.6" stroke="black" stroke-width="1" />
<path d="M0.8448581620254004,97.67765110598879 L0.7550774883861334,98.24325237556246 L0.0,100.0" fill="brown" fill-opacity="0.6" stroke="black" stroke-width="1" />
<path d="M0.8448581620254004,-97.67765110598879 L0.7550774883861334,-98.24325237556246 L0.0,-100.0" fill="pink" fill-opacity="0.6" stroke="black" stroke-width="1" />
<path d="M0.0,88.0 L-4.181702768589815,85.70398485595976 L-5.389055827824609,84.12886537125172" fill="brown" fill-opacity="0.6" stroke="black" stroke-width="1" />
<path d="M0.0,-12.0 L-4.181702768589815,-14.296015144040247 L-5.389055827824609,-15.871134628748285" fill="orange" fill-opacity="0.6" stroke="black" stroke-width="1" />
<path d="M0.0,12.0 L-4.181702768589815,14.29601514404024 L-5.389055827824609,15.87113462874828" fill="blue" fill-opacity="0.6" stroke="black" stroke-width="1" />
<path d="M0.0,-88.0 L-4.181702768589815,-85.70398485595976 L-5.389055827824609,-84.12886537125172" fill="black" fill-opacity="0.6" stroke="black" stroke-width="1" />
<path d="M-4.181702768589815,85.70398485595976 L-5.389055827824609,84.12886537125172 L-11.694662290803992,74.75022435326844" fill="purple" fill-opacity="0.6" stroke="black" stroke-width="1" />
<path d="M-4.181702768589815,-14.296015144040247 L-5.389055827824609,-15.871134628748285 L-11.694662290803992,-25.249775646731564" fill="orange" fill-opacity="0.6" stroke="black" stroke-width="1" />
<path d="M-4.181702768589815,14.29601514404024 L-5.389055827824609,15.87113462874828 L-11.694662290803992,25.249775646731564" fill="orange" fill-opacity="0.6" stroke="black" stroke-width="1" />
<path d="M-4.181702768589815,-85.70398485595976 L-5.389055827824609,-84.12886537125172 L-11.694662290803992,-74.75022435326844" fill="black" fill-opacity="0.6" stroke="black" stroke-width="1" />
<path d="M-5.389055827824609,84.12886537125172 L-11.694662290803992,74.75022435326844 L-12.998905359454596,73.15407419966036" fill="black" fill-opacity="0.6" stroke="black" stroke-width="1" />
<path d="M-5.389055827824609,-15.871134628748285 L-11.694662290803992,-25.249775646731564 L-12.998905359454596,-26.845925800339643" fill="pink" fill-opacity="0.6" stroke="black" stroke-width="1" />
<path d="M-5.389055827824609,15.87113462874828 L-11.694662290803992,25.249775646731564 L-12.998905359454596,26.845925800339643" fill="yellow" fill-opacity="0.6" stroke="black" stroke-width="1" />
<path d="M-5.389055827824609,-84.12886537125172 L-11.694662290803992,-74.75022435326844 L-12.998905359454596,-73.15407419966036" fill="pink" fill-opacity="0.6" stroke="black" stroke-width="1" />
<path d="M-11.694662290803992,74.75022435326844 L-12.998905359454596,73.15407419966036 L0.0,72.0" fill="green" fill-opacity="0.6" stroke="black" stroke-width="1" />
<path d="M-11.694662290803992,-25.249775646731564 L-12.998905359454596,-26.845925800339643 L0.0,-28.0" fill="brown" fill-opacity="0.6" stroke="black" stroke-width="1" />
<path d="M-11.694662290803992,25.249775646731564 L-12.998905359454596,26.845925800339643 L0.0,28.0" fill="pink" fill-opacity="0.6" stroke="black" stroke-width="1" />
<path d="M-11.694662290803992,-74.75022435326844 L-12.998905359454596,-73.15407419966036 L0.0,-72.0" fill="pink" fill-opacity="0.6" stroke="black" stroke-width="1" />
<path d="M-8.0,50.0 L-13.883005386657482,59.64698458166834 L-24.47717982305287,55.310972273677315" fill="black" fill-opacity="0.6" stroke="black" stroke-width="1" />
<path d="M-8.0,-50.0 L-13.883005386657482,-40.35301541833166 L-24.47717982305287,-44.689027726322685" fill="black" fill-opacity="0.6" stroke="black" stroke-width="1" />
<path d="M-8.0,50.0 L-13.883005386657482,40.35301541833166 L-24.47717982305287,44.689027726322685" fill="yellow" fill-opacity="0.6" stroke="black" stroke-width="1" />
<path d="M-8.0,-50.0 L-13.883005386657482,-59.64698458166834 L-24.47717982305287,-55.310972273677315" fill="pink" fill-opacity="0.6" stroke="black" stroke-width="1" />
<path d="M-13.883005386657482,59.64698458166834 L-24.47717982305287,55.310972273677315 L-31.0,50.0" fill="orange" fill-opacity="0.6" stroke="black" stroke-width="1" />
<path d="M-13.883005386657482,-40.35301541833166 L-24.47717982305287,-44.689027726322685 L-31.0,-50.0" fill="pink" fill-opacity="0.6" stroke="black" stroke-width="1" />
<path d="M-13.883005386657482,40.35301541833166 L-24.47717982305287,44.689027726322685 L-31.0,50.0" fill="red" fill-opacity="0.6" stroke="black" stroke-width="1" />
<path d="M-13.883005386657482,-59.64698458166834 L-24.47717982305287,-55.310972273677315 L-31.0,-50.0" fill="black" fill-opacity="0.6" stroke="black" stroke-width="1" />
<path d="M-15.0,85.0 L-3.6188075771776824,88.87163008198178 L-2.8251742927308907,89.66356228367786" fill="black" fill-opacity="0.6" stroke="black" stroke-width="1" />
<path d="M-15.0,-15.0 L-3.6188075771776824,-11.128369918018228 L-2.8251742927308907,-10.336437716322138" fill="black" fill-opacity="0.6" stroke="black" stroke-width="1" />
<path d="M-15.0,15.0 L-3.6188075771776824,11.128369918018223 L-2.8251742927308907,10.336437716322138" fill="blue" fill-opacity="0.6" stroke="black" stroke-width="1" />
<path d="M-15.0,-85.0 L-3.6188075771776824,-88.87163008198178 L-2.8251742927308907,-89.66356228367786" fill="yellow" fill-opacity="0.6" stroke="black" stroke-width="1" />
<path d="M-3.6188075771776824,88.87163008198178 L-2.8251742927308907,89.66356228367786 L-10.0,90.0" fill="black" fill-opacity="0.6" stroke="black" stroke-width="1" />
<path d="M-3.6188075771776824,-11.128369918018228 L-2.8251742927308907,-10.336437716322138 L-10.0,-10.0" fill="black" fill-opacity="0.6" stroke="black" stroke-width="1" />
<path d="M-3.6188075771776824,11.128369918018223 L-2.8251742927308907,10.336437716322138 L-10.0,10.0" fill="green" fill-opacity="0.6" stroke="black" stroke-width="1" />
<path d="M-3.6188075771776824,-88.87163008198178 L-2.8251742927308907,-89.66356228367786 L-10.0,-90.0" fill="black" fill-opacity="0.6" stroke="black" stroke-width="1" />
<path d="M-10.0,90.0 L-2.563482529232956,92.40278804095665 L-1.913466385434115,92.82064888880073" fill="brown" fill-opacity="0.6" stroke="black" stroke-width="1" />
<path d="M-10.0,-10.0 L-2.563482529232956,-7.597211959043348 L-1.913466385434115,-7.1793511111992725" fill="red" fill-opacity="0.6" stroke="black" stroke-width="1" />
<path d="M-10.0,10.0 L-2.563482529232956,7.597211959043349 L-1.913466385434115,7.179351111199267" fill="green" fill-opacity="0.6" stroke="black" stroke-width="1" />
<path d="M-10.0,-90.0 L-2.563482529232956,-92.40278804095665 L-1.913466385434115,-92.82064888880072" fill="pink" fill-opacity="0.6" stroke="black" stroke-width="1" />
<path d="M-2.563482529232956,92.40278804095665 L-1.913466385434115,92.82064888880073 L-6.0,94.0" fill="red" fill-opacity="0.6" stroke="black" stroke-width="1" />
<path d="M-2.563482529232956,-7.597211959043348 L-1.913466385434115,-7.1793511111992725 L-6.0,-6.0" fill="blue" fill-opacity="0.6" stroke="black" stroke-width="1" />
<path d="M-2.563482529232956,7.597211959043349 L-1.913466385434115,7.179351111199267 L-6.0,6.0" fill="orange" fill-opacity="0.6" stroke="black" stroke-width="1" />
<path d="M-2.563482529232956,-92.40278804095665 L-1.913466385434115,-92.82064888880072 L-6.0,-94.0" fill="purple" fill-opacity="0.6" stroke="black" stroke-width="1" />
<path d="M-6.0,94.0 L-1.3943660456518958,95.06717683602608 L-0.9691956239353612,96.97810725202945" fill="red" fill-opacity="0.6" stroke="black" stroke-width="1" />
<path d="M-6.0,-6.0 L-1.3943660456518958,-4.932823163973915 L-0.9691956239353612,-3.021892747970556" fill="black" fill-opacity="0.6" stroke="black" stroke-width="1" />
<path d="M-6.0,6.0 L-1.3943660456518958,4.9328231639739215 L-0.9691956239353612,3.021892747970554" fill="brown" fill-opacity="0.6" stroke="black" stroke-width="1" />
<path d="M-6.0,-94.0 L-1.3943660456518958,-95.06717683602608 L-0.9691956239353612,-96.97810725202945" fill="purple" fill-opacity="0.6" stroke="black" stroke-width="1" />
<path d="M-1.3943660456518958,95.06717683602608 L-0.9691956239353612,96.97810725202945 L-0.8448581620254004,97.6776511059888" fill="brown" fill-opacity="0.6" stroke="black" stroke-width="1" />
<path d="M-1.3943660456518958,-4.932823163973915 L-0.9691956239353612,-3.021892747970556 L-0.8448581620254004,-2.322348894011206" fill="purple" fill-opacity="0.6" stroke="black" stroke-width="1" />
<path d="M-1.3943660456518958,4.9328231639739215 L-0.9691956239353612,3.021892747970554 L-0.8448581620254004,2.322348894011199" fill="red" fill-opacity="0.6" stroke="black" stroke-width="1" />
<path d="M-1.3943660456518958,-95.06717683602608 L-0.9691956239353612,-96.97810725202945 L-0.8448581620254004,-97.67765110598879" fill="green" fill-opacity="0.6" stroke="black" stroke-width="1" />
<path d="M-0.9691956239353612,96.97810725202945 L-0.8448581620254004,97.6776511059888 L-0.7550774883861334,98.24325237556246" fill="red" fill-opacity="0.6" stroke="black" stroke-width="1" />
<path d="M-0.9691956239353612,-3.021892747970556 L-0.8448581620254004,-2.322348894011206 L-0.7550774883861334,-1.756747624437538" fill="purple" fill-opacity="0.6" stroke="black" stroke-width="1" />
<path d="M-0.9691956239353612,3.021892747970554 L-0.8448581620254004,2.322348894011199 L-0.7550774883861334,1.756747624437537" fill="brown" fill-opacity="0.6" stroke="black" stroke-width="1" />
<path d="M-0.9691956239353612,-96.97810725202945 L-0.8448581620254004,-97.67765110598879 L-0.7550774883861334,-98.24325237556246" fill="purple" fill-opacity="0.6" stroke="black" stroke-width="1" />
<path d="M-0.8448581620254004,97.6776511059888 L-0.7550774883861334,98.24325237556246 L0.0,100.0" fill="yellow" fill-opacity="0.6" stroke="black" stroke-width="1" />
<path d="M-0.8448581620254004,-2.322348894011206 L-0.7550774883861334,-1.756747624437538 L0.0,-0.0" fill="green" fill-opacity="0.6" stroke="black" stroke-width="1" />
<path d="M-0.8448581620254004,2.322348894011199 L-0.7550774883861334,1.756747624437537 L0.0,-0.0" fill="orange" fill-opacity="0.6" stroke="black" stroke-width="1" />
<path d="M-0.8448581620254004,-97.67765110598879 L-0.7550774883861334,-98.24325237556246 L0.0,-100.0" fill="red" fill-opacity="0.6" stroke="black" stroke-width="1" />
<path d="M-88.0,-0.0 L-85.70398485595976,-4.181702768589815 L-84.12886537125172,-5.389055827824609" fill="orange" fill-opacity="0.6" stroke="black" stroke-width="1" />
<path d="M-88.0,-0.0 L-85.70398485595976,4.181702768589815 L-84.12886537125172,5.389055827824609" fill="brown" fill-opacity="0.6" stroke="black" stroke-width="1" />
<path d="M-85.70398485595976,-4.181702768589815 L-84.12886537125172,-5.389055827824609 L-74.75022435326844,-11.694662290803992" fill="pink" fill-opacity="0.6" stroke="black" stroke-width="1" />
<path d="M-85.70398485595976,4.181702768589815 L-84.12886537125172,5.389055827824609 L-74.75022435326844,11.694662290803992" fill="blue" fill-opacity="0.6" stroke="black" stroke-width="1" />
<path d="M-84.12886537125172,-5.389055827824609 L-74.75022435326844,-11.694662290803992 L-73.15407419966036,-12.998905359454596" fill="green" fill-opacity="0.6" stroke="black" stroke-width="1" />
<path d="M-84.12886537125172,5.389055827824609 L-74.75022435326844,11.694662290803992 L-73.15407419966036,12.998905359454596" fill="brown" fill-opacity="0.6" stroke="black" stroke-width="1" />
<path d="M-74.75022435326844,-11.694662290803992 L-73.15407419966036,-12.998905359454596 L-72.0,-0.0" fill="red" fill-opacity="0.6" stroke="black" stroke-width="1" />
<path d="M-74.75022435326844,11.694662290803992 L-73.15407419966036,12.998905359454596 L-72.0,-0.0" fill="red" fill-opacity="0.6" stroke="black" stroke-width="1" />
<path d="M-50.0,-8.0 L-59.64698458166834,-13.883005386657482 L-55.310972273677315,-24.47717982305287" fill="black" fill-opacity="0.6" stroke="black" stroke-width="1" />
<path d="M-50.0,8.0 L-59.64698458166834,13.883005386657482 L-55.310972273677315,24.47717982305287" fill="green" fill-opacity="0.6" stroke="black" stroke-width="1" />
<path d="M-59.64698458166834,-13.883005386657482 L-55.310972273677315,-24.47717982305287 L-50.0,-31.0" fill="purple" fill-opacity="0.6" stroke="black" stroke-width="1" />
<path d="M-59.64698458166834,13.883005386657482 L-55.310972273677315,24.47717982305287 L-50.0,31.0" fill="yellow" fill-opacity="0.6" stroke="black" stroke-width="1" />
<path d="M-50.0,-50.0 L-79.0,-21.0 L-81.0,-19.0" fill="yellow" fill-opacity="0.6" stroke="black" stroke-width="1" />
<path d="M-50.0,50.0 L-79.0,21.0 L-81.0,19.0" fill="blue" fill-opacity="0.6" stroke="black" stroke-width="1" />
<path d="M-79.0,-21.0 L-81.0,-19.0 L-85.0,-15.0" fill="pink" fill-opacity="0.6" stroke="black" stroke-width="1" />
<path d="M-79.0,21.0 L-81.0,19.0 L-85.0,15.0" fill="yellow" fill-opacity="0.6" stroke="black" stroke-width="1" />
<path d="M-81.0,-19.0 L-85.0,-15.0 L-88.87163008198178,-3.6188075771776824" fill="red" fill-opacity="0.6" stroke="black" stroke-width="1" />
<path d="M-81.0,19.0 L-85.0,15.0 L-88.87163008198178,3.6188075771776824" fill="pink" fill-opacity="0.6" stroke="black" stroke-width="1" />
<path d="M-85.0,-15.0 L-88.87163008198178,-3.6188075771776824 L-89.66356228367786,-2.8251742927308907" fill="red" fill-opacity="0.6" stroke="black" stroke-width="1" />
<path d="M-85.0,15.0 L-88.87163008198178,3.6188075771776824 L-89.66356228367786,2.8251742927308907" fill="blue" fill-opacity="0.6" stroke="black" stroke-width="1" />
<path d="M-88.87163008198178,-3.6188075771776824 L-89.66356228367786,-2.8251742927308907 L-90.0,-10.0" fill="pink" fill-opacity="0.6" stroke="black" stroke-width="1" />
<path d="M-88.87163008198178,3.6188075771776824 L-89.66356228367786,2.8251742927308907 L-90.0,10.0" fill="yellow" fill-opacity="0.6" stroke="black" stroke-width="1" />
<path d="M-89.66356228367786,-2.8251742927308907 L-90.0,-10.0 L-92.40278804095665,-2.563482529232956" fill="green" fill-opacity="0.6" stroke="black" stroke-width="1" />
<path d="M-89.66356228367786,2.8251742927308907 L-90.0,10.0 L-92.40278804095665,2.563482529232956" fill="purple" fill-opacity="0.6" stroke="black" stroke-width="1" />
<path d="M-90.0,-10.0 L-92.40278804095665,-2.563482529232956 L-92.82064888880072,-1.913466385434115" fill="red" fill-opacity="0.6" stroke="black" stroke-width="1" />
<path d="M-90.0,10.0 L-92.40278804095665,2.563482529232956 L-92.82064888880072,1.913466385434115" fill="purple" fill-opacity="0.6" stroke="black" stroke-width="1" />
<path d="M-92.40278804095665,-2.563482529232956 L-92.82064888880072,-1.913466385434115 L-94.0,-6.0" fill="yellow" fill-opacity="0.6" stroke="black" stroke-width="1" />
<path d="M-92.40278804095665,2.563482529232956 L-92.82064888880072,1.913466385434115 L-94.0,6.0" fill="black" fill-opacity="0.6" stroke="black" stroke-width="1" />
<path d="M-92.82064888880072,-1.913466385434115 L-94.0,-6.0 L-95.06717683602608,-1.3943660456518958" fill="green" fill-opacity="0.6" stroke="black" stroke-width="1" />
<path d="M-92.82064888880072,1.913466385434115 L-94.0,6.0 L-95.06717683602608,1.3943660456518958" fill="blue" fill-opacity="0.6" stroke="black" stroke-width="1" />
<path d="M-94.0,-6.0 L-95.06717683602608,-1.3943660456518958 L-96.97810725202945,-0.9691956239353612" fill="black" fill-opacity="0.6" stroke="black" stroke-width="1" />
<path d="M-94.0,6.0 L-95.06717683602608,1.3943660456518958 L-96.97810725202945,0.9691956239353612" fill="blue" fill-opacity="0.6" stroke="black" stroke-width="1" />
<path d="M-95.06717683602608,-1.3943660456518958 L-96.97810725202945,-0.9691956239353612 L-97.67765110598879,-0.8448581620254004" fill="purple" fill-opacity="0.6" stroke="black" stroke-width="1" />
<path d="M-95.06717683602608,1.3943660456518958 L-96.97810725202945,0.9691956239353612 L-97.67765110598879,0.8448581620254004" fill="red" fill-opacity="0.6" stroke="black" stroke-width="1" />
<path d="M-96.97810725202945,-0.9691956239353612 L-97.67765110598879,-0.8448581620254004 L-98.24325237556246,-0.7550774883861334" fill="yellow" fill-opacity="0.6" stroke="black" stroke-width="1" />
<path d="M-96.97810725202945,0.9691956239353612 L-97.67765110598879,0.8448581620254004 L-98.24325237556246,0.7550774883861334" fill="purple" fill-opacity="0.6" stroke="black" stroke-width="1" />
<path d="M-97.67765110598879,-0.8448581620254004 L-98.24325237556246,-0.7550774883861334 L-100.0,-0.0" fill="orange" fill-opacity="0.6" stroke="black" stroke-width="1" />
<path d="M-97.67765110598879,0.8448581620254004 L-98.24325237556246,0.7550774883861334 L-100.0,-0.0" fill="pink" fill-opacity="0.6" stroke="black" stroke-width="1" />
</svg>