<?xml version="1.0" encoding="UTF-8"?>
<svg xmlns="http://www.w3.org/2000/svg" xmlns:xlink="http://www.w3.org/1999/xlink"
     width="250" height="250" viewBox="-125.0 -125.0 250 250">
<defs>
</defs>
<path d="M50.0,-14.0 L35.20315677042478,-15.218101667749847 L38.810160593297745,-20.47103181730201" fill-opacity="0" stroke="black" stroke-width="1" />
<path d="M50.0,14.0 L35.20315677042478,15.218101667749847 L38.810160593297745,20.47103181730201" fill-opacity="0" stroke="black" stroke-width="1" />
<path d="M35.20315677042478,-15.218101667749847 L38.810160593297745,-20.47103181730201 L40.48341684324077,-24.726815299382103" fill-opacity="0" stroke="black" stroke-width="1" />
<path d="M35.20315677042478,15.218101667749847 L38.810160593297745,20.47103181730201 L40.48341684324077,24.726815299382103" fill-opacity="0" stroke="black" stroke-width="1" />
<path d="M38.810160593297745,-20.47103181730201 L40.48341684324077,-24.726815299382103 L50.0,-34.0" fill-opacity="0" stroke="black" stroke-width="1" />
<path d="M38.810160593297745,20.47103181730201 L40.48341684324077,24.726815299382103 L50.0,34.0" fill-opacity="0" stroke="black" stroke-width="1" />
<path d="M50.0,-36.0 L46.46119370021075,-37.35156372541451 L50.0,-42.0" fill-opacity="0" stroke="black" stroke-width="1" />
<path d="M50.0,36.0 L46.46119370021075,37.35156372541451 L50.0,42.0" fill-opacity="0" stroke="black" stroke-width="1" />
<path d="M50.0,50.0 L34.0,66.0 L28.0,72.0" fill-opacity="0" stroke="black" stroke-width="1" />
<path d="M50.0,-50.0 L34.0,-66.0 L28.0,-72.0" fill-opacity="0" stroke="black" stroke-width="1" />
<path d="M34.0,66.0 L28.0,72.0 L14.607470836125808,81.79523167525151" fill-opacity="0" stroke="black" stroke-width="1" />
<path d="M34.0,-66.0 L28.0,-72.0 L14.607470836125808,-81.79523167525151" fill-opacity="0" stroke="black" stroke-width="1" />
<path d="M28.0,-28.0 L18.204768324748485,-14.607470836125808 L13.0,-13.0" fill-opacity="0" stroke="black" stroke-width="1" />
<path d="M28.0,28.0 L18.204768324748485,14.607470836125808 L13.0,13.0" fill-opacity="0" stroke="black" stroke-width="1" />
<path d="M14.607470836125808,81.79523167525151 L13.0,87.0 L7.733237760584252,88.1355489362679" fill-opacity="0" stroke="black" stroke-width="1" />
<path d="M14.607470836125808,-81.79523167525151 L13.0,-87.0 L7.733237760584252,-88.1355489362679" fill-opacity="0" stroke="black" stroke-width="1" />
<path d="M13.0,-13.0 L11.864451063732096,-7.733237760584252 L7.0,-7.0" fill-opacity="0" stroke="black" stroke-width="1" />
<path d="M13.0,13.0 L11.864451063732096,7.733237760584252 L7.0,7.0" fill-opacity="0" stroke="black" stroke-width="1" />
<path d="M7.733237760584252,88.1355489362679 L7.0,93.0 L1.440968448900194,95.46812147204795" fill-opacity="0" stroke="black" stroke-width="1" />
<path d="M7.733237760584252,-88.1355489362679 L7.0,-93.0 L1.440968448900194,-95.46812147204795" fill-opacity="0" stroke="black" stroke-width="1" />
<path d="M7.0,-7.0 L4.531878527952044,-1.440968448900194 L0.0,-0.0" fill-opacity="0" stroke="black" stroke-width="1" />
<path d="M7.0,7.0 L4.531878527952044,1.440968448900194 L0.0,-0.0" fill-opacity="0" stroke="black" stroke-width="1" />
<path d="M-50.0,-14.0 L-35.20315677042478,-15.218101667749847 L-38.810160593297745,-20.47103181730201" fill-opacity="0" stroke="black" stroke-width="1" />
<path d="M-50.0,14.0 L-35.20315677042478,15.218101667749847 L-38.810160593297745,20.47103181730201" fill-opacity="0" stroke="black" stroke-width="1" />
<path d="M-35.20315677042478,-15.218101667749847 L-38.810160593297745,-20.47103181730201 L-40.48341684324077,-24.726815299382103" fill-opacity="0" stroke="black" stroke-width="1" />
<path d="M-35.20315677042478,15.218101667749847 L-38.810160593297745,20.47103181730201 L-40.48341684324077,24.726815299382103" fill-opacity="0" stroke="black" stroke-width="1" />
<path d="M-38.810160593297745,-20.47103181730201 L-40.48341684324077,-24.726815299382103 L-50.0,-34.0" fill-opacity="0" stroke="black" stroke-width="1" />
<path d="M-38.810160593297745,20.47103181730201 L-40.48341684324077,24.726815299382103 L-50.0,34.0" fill-opacity="0" stroke="black" stroke-width="1" />
<path d="M-50.0,-36.0 L-46.46119370021075,-37.35156372541451 L-50.0,-42.0" fill-opacity="0" stroke="black" stroke-width="1" />
<path d="M-50.0,36.0 L-46.46119370021075,37.35156372541451 L-50.0,42.0" fill-opacity="0" stroke="black" stroke-width="1" />
<path d="M-50.0,50.0 L-34.0,66.0 L-28.0,72.0" fill-opacity="0" stroke="black" stroke-width="1" />
<path d="M-50.0,-50.0 L-34.0,-66.0 L-28.0,-72.0" fill-opacity="0" stroke="black" stroke-width="1" />
<path d="M-34.0,66.0 L-28.0,72.0 L-14.607470836125808,81.79523167525151" fill-opacity="0" stroke="black" stroke-width="1" />
<path d="M-34.0,-66.0 L-28.0,-72.0 L-14.607470836125808,-81.79523167525151" fill-opacity="0" stroke="black" stroke-width="1" />
<path d="M-28.0,-28.0 L-18.204768324748485,-14.607470836125808 L-13.0,-13.0" fill-opacity="0" stroke="black" stroke-width="1" />
<path d="M-28.0,28.0 L-18.204768324748485,14.607470836125808 L-13.0,13.0" fill-opacity="0" stroke="black" stroke-width="1" />
<path d="M-14.607470836125808,81.79523167525151 L-13.0,87.0 L-7.733237760584252,88.13554893626791" fill-opacity="0" stroke="black" stroke-width="1" />
<path d="M-14.607470836125808,-81.79523167525151 L-13.0,-87.0 L-7.733237760584252,-88.1355489362679" fill-opacity="0" stroke="black" stroke-width="1" />
<path d="M-13.0,-13.0 L-11.864451063732096,-7.733237760584252 L-7.0,-7.0" fill-opacity="0" stroke="black" stroke-width="1" />
<path d="M-13.0,13.0 L-11.864451063732096,7.733237760584252 L-7.0,7.0" fill-opacity="0" stroke="black" stroke-width="1" />
<path d="M-7.733237760584252,88.13554893626791 L-7.0,93.0 L-1.440968448900194,95.46812147204795" fill-opacity="0" stroke="black" stroke-width="1" />
<path d="M-7.733237760584252,-88.1355489362679 L-7.0,-93.0 L-1.440968448900194,-95.46812147204795" fill-opacity="0" stroke="black" stroke-width="1" />
<path d="M-7.0,-7.0 L-4.531878527952044,-1.440968448900194 L0.0,-0.0" fill-opacity="0" stroke="black" stroke-width="1" />
<path d="M-7.0,7.0 L-4.531878527952044,1.440968448900194 L0.0,-0.0" fill-opacity="0" stroke="black" stroke-width="1" />
<path d="M50.0,14.0 L64.79684322957522,15.218101667749847 L61.189839406702255,20.47103181730201" fill-opacity="0" stroke="black" stroke-width="1" />
<path d="M50.0,-14.0 L64.79684322957522,-15.218101667749847 L61.189839406702255,-20.47103181730201" fill-opacity="0" stroke="black" stroke-width="1" />
<path d="M64.79684322957522,15.218101667749847 L61.189839406702255,20.47103181730201 L59.51658315675923,24.726815299382103" fill-opacity="0" stroke="black" stroke-width="1" />
<path d="M64.79684322957522,-15.218101667749847 L61.189839406702255,-20.47103181730201 L59.51658315675923,-24.726815299382103" fill-opacity="0" stroke="black" stroke-width="1" />
<path d="M61.189839406702255,20.47103181730201 L59.51658315675923,24.726815299382103 L50.0,34.0" fill-opacity="0" stroke="black" stroke-width="1" />
<path d="M61.189839406702255,-20.47103181730201 L59.51658315675923,-24.726815299382103 L50.0,-34.0" fill-opacity="0" stroke="black" stroke-width="1" />
<path d="M50.0,36.0 L53.53880629978925,37.35156372541451 L50.0,42.0" fill-opacity="0" stroke="black" stroke-width="1" />
<path d="M50.0,-36.0 L53.53880629978925,-37.35156372541451 L50.0,-42.0" fill-opacity="0" stroke="black" stroke-width="1" />
<path d="M50.0,50.0 L66.0,34.0 L72.0,28.0" fill-opacity="0" stroke="black" stroke-width="1" />
<path d="M50.0,-50.0 L66.0,-34.0 L72.0,-28.0" fill-opacity="0" stroke="black" stroke-width="1" />
<path d="M66.0,34.0 L72.0,28.0 L81.79523167525151,14.607470836125808" fill-opacity="0" stroke="black" stroke-width="1" />
<path d="M66.0,-34.0 L72.0,-28.0 L81.79523167525151,-14.607470836125808" fill-opacity="0" stroke="black" stroke-width="1" />
<path d="M72.0,28.0 L81.79523167525151,14.607470836125808 L87.0,13.0" fill-opacity="0" stroke="black" stroke-width="1" />
<path d="M72.0,-28.0 L81.79523167525151,-14.607470836125808 L87.0,-13.0" fill-opacity="0" stroke="black" stroke-width="1" />
<path d="M81.79523167525151,14.607470836125808 L87.0,13.0 L88.1355489362679,7.733237760584252" fill-opacity="0" stroke="black" stroke-width="1" />
<path d="M81.79523167525151,-14.607470836125808 L87.0,-13.0 L88.1355489362679,-7.733237760584252" fill-opacity="0" stroke="black" stroke-width="1" />
<path d="M87.0,13.0 L88.1355489362679,7.733237760584252 L93.0,7.0" fill-opacity="0" stroke="black" stroke-width="1" />
<path d="M87.0,-13.0 L88.1355489362679,-7.733237760584252 L93.0,-7.0" fill-opacity="0" stroke="black" stroke-width="1" />
<path d="M88.1355489362679,7.733237760584252 L93.0,7.0 L95.46812147204795,1.440968448900194" fill-opacity="0" stroke="black" stroke-width="1" />
<path d="M88.1355489362679,-7.733237760584252 L93.0,-7.0 L95.46812147204795,-1.440968448900194" fill-opacity="0" stroke="black" stroke-width="1" />
<path d="M93.0,7.0 L95.46812147204795,1.440968448900194 L100.0,-0.0" fill-opacity="0" stroke="black" stroke-width="1" />
<path d="M93.0,-7.0 L95.46812147204795,-1.440968448900194 L100.0,-0.0" fill-opacity="0" stroke="black" stroke-width="1" />
<path d="M14.0,-50.0 L15.218101667749847,-35.20315677042478 L20.47103181730201,-38.810160593297745" fill-opacity="0" stroke="black" stroke-width="1" />
<path d="M14.0,50.0 L15.218101667749847,35.20315677042478 L20.47103181730201,38.810160593297745" fill-opacity="0" stroke="black" stroke-width="1" />
<path d="M14.0,50.0 L15.218101667749847,64.79684322957522 L20.47103181730201,61.189839406702255" fill-opacity="0" stroke="black" stroke-width="1" />
<path d="M14.0,-50.0 L15.218101667749847,-64.79684322957522 L20.47103181730201,-61.189839406702255" fill-opacity="0" stroke="black" stroke-width="1" />
<path d="M15.218101667749847,-35.20315677042478 L20.47103181730201,-38.810160593297745 L24.726815299382103,-40.48341684324077" fill-opacity="0" stroke="black" stroke-width="1" />
<path d="M15.218101667749847,35.20315677042478 L20.47103181730201,38.810160593297745 L24.726815299382103,40.48341684324077" fill-opacity="0" stroke="black" stroke-width="1" />
<path d="M15.218101667749847,64.79684322957522 L20.47103181730201,61.189839406702255 L24.726815299382103,59.51658315675923" fill-opacity="0" stroke="black" stroke-width="1" />
<path d="M15.218101667749847,-64.79684322957522 L20.47103181730201,-61.189839406702255 L24.726815299382103,-59.51658315675923" fill-opacity="0" stroke="black" stroke-width="1" />
<path d="M20.47103181730201,-38.810160593297745 L24.726815299382103,-40.48341684324077 L34.0,-50.0" fill-opacity="0" stroke="black" stroke-width="1" />
<path d="M20.47103181730201,38.810160593297745 L24.726815299382103,40.48341684324077 L34.0,50.0" fill-opacity="0" stroke="black" stroke-width="1" />
<path d="M20.47103181730201,61.189839406702255 L24.726815299382103,59.51658315675923 L34.0,50.0" fill-opacity="0" stroke="black" stroke-width="1" />
<path d="M20.47103181730201,-61.189839406702255 L24.726815299382103,-59.51658315675923 L34.0,-50.0" fill-opacity="0" stroke="black" stroke-width="1" />
<path d="M36.0,-50.0 L37.35156372541451,-46.46119370021075 L42.0,-50.0" fill-opacity="0" stroke="black" stroke-width="1" />
<path d="M36.0,50.0 L37.35156372541451,46.46119370021075 L42.0,50.0" fill-opacity="0" stroke="black" stroke-width="1" />
<path d="M36.0,50.0 L37.35156372541451,53.53880629978925 L42.0,50.0" fill-opacity="0" stroke="black" stroke-width="1" />
<path d="M36.0,-50.0 L37.35156372541451,-53.53880629978925 L42.0,-50.0" fill-opacity="0" stroke="black" stroke-width="1" />
<path d="M28.0,-28.0 L14.607470836125808,-18.204768324748485 L13.0,-13.0" fill-opacity="0" stroke="black" stroke-width="1" />
<path d="M28.0,28.0 L14.607470836125808,18.204768324748485 L13.0,13.0" fill-opacity="0" stroke="black" stroke-width="1" />
<path d="M28.0,72.0 L14.607470836125808,81.79523167525151 L13.0,87.0" fill-opacity="0" stroke="black" stroke-width="1" />
<path d="M28.0,-72.0 L14.607470836125808,-81.79523167525151 L13.0,-87.0" fill-opacity="0" stroke="black" stroke-width="1" />
<path d="M13.0,-13.0 L7.733237760584252,-11.864451063732096 L7.0,-7.0" fill-opacity="0" stroke="black" stroke-width="1" />
<path d="M13.0,13.0 L7.733237760584252,11.864451063732096 L7.0,7.0" fill-opacity="0" stroke="black" stroke-width="1" />
<path d="M13.0,87.0 L7.733237760584252,88.1355489362679 L7.0,93.0" fill-opacity="0" stroke="black" stroke-width="1" />
<path d="M13.0,-87.0 L7.733237760584252,-88.1355489362679 L7.0,-93.0" fill-opacity="0" stroke="black" stroke-width="1" />
<path d="M7.0,-7.0 L1.440968448900194,-4.531878527952044 L0.0,-0.0" fill-opacity="0" stroke="black" stroke-width="1" />
<path d="M7.0,7.0 L1.440968448900194,4.531878527952044 L0.0,-0.0" fill-opacity="0" stroke="black" stroke-width="1" />
<path d="M7.0,93.0 L1.440968448900194,95.46812147204795 L0.0,100.0" fill-opacity="0" stroke="black" stroke-width="1" />
<path d="M7.0,-93.0 L1.440968448900194,-95.46812147204795 L0.0,-100.0" fill-opacity="0" stroke="black" stroke-width="1" />
<path d="M-14.0,50.0 L-15.218101667749847,64.79684322957522 L-20.47103181730201,61.189839406702255" fill-opacity="0" stroke="black" stroke-width="1" />
<path d="M-14.0,-50.0 L-15.218101667749847,-35.20315677042478 L-20.47103181730201,-38.810160593297745" fill-opacity="0" stroke="black" stroke-width="1" />
<path d="M-14.0,50.0 L-15.218101667749847,35.20315677042478 L-20.47103181730201,38.810160593297745" fill-opacity="0" stroke="black" stroke-width="1" />
<path d="M-14.0,-50.0 L-15.218101667749847,-64.79684322957522 L-20.47103181730201,-61.189839406702255" fill-opacity="0" stroke="black" stroke-width="1" />
<path d="M-15.218101667749847,64.79684322957522 L-20.47103181730201,61.189839406702255 L-24.726815299382103,59.51658315675923" fill-opacity="0" stroke="black" stroke-width="1" />
<path d="M-15.218101667749847,-35.20315677042478 L-20.47103181730201,-38.810160593297745 L-24.726815299382103,-40.48341684324077" fill-opacity="0" stroke="black" stroke-width="1" />
<path d="M-15.218101667749847,35.20315677042478 L-20.47103181730201,38.810160593297745 L-24.726815299382103,40.48341684324077" fill-opacity="0" stroke="black" stroke-width="1" />
<path d="M-15.218101667749847,-64.79684322957522 L-20.47103181730201,-61.189839406702255 L-24.726815299382103,-59.51658315675923" fill-opacity="0" stroke="black" stroke-width="1" />
<path d="M-20.47103181730201,61.189839406702255 L-24.726815299382103,59.51658315675923 L-34.0,50.0" fill-opacity="0" stroke="black" stroke-width="1" />
<path d="M-20.47103181730201,-38.810160593297745 L-24.726815299382103,-40.48341684324077 L-34.0,-50.0" fill-opacity="0" stroke="black" stroke-width="1" />
<path d="M-20.47103181730201,38.810160593297745 L-24.726815299382103,40.48341684324077 L-34.0,50.0" fill-opacity="0" stroke="black" stroke-width="1" />
<path d="M-20.47103181730201,-61.189839406702255 L-24.726815299382103,-59.51658315675923 L-34.0,-50.0" fill-opacity="0" stroke="black" stroke-width="1" />
<path d="M-36.0,50.0 L-37.35156372541451,53.53880629978925 L-42.0,50.0" fill-opacity="0" stroke="black" stroke-width="1" />
<path d="M-36.0,-50.0 L-37.35156372541451,-46.46119370021075 L-42.0,-50.0" fill-opacity="0" stroke="black" stroke-width="1" />
<path d="M-36.0,50.0 L-37.35156372541451,46.46119370021075 L-42.0,50.0" fill-opacity="0" stroke="black" stroke-width="1" />
<path d="M-36.0,-50.0 L-37.35156372541451,-53.53880629978925 L-42.0,-50.0" fill-opacity="0" stroke="black" stroke-width="1" />
<path d="M-28.0,72.0 L-14.607470836125808,81.79523167525151 L-13.0,87.0" fill-opacity="0" stroke="black" stroke-width="1" />
<path d="M-28.0,-28.0 L-14.607470836125808,-18.204768324748485 L-13.0,-13.0" fill-opacity="0" stroke="black" stroke-width="1" />
<path d="M-28.0,28.0 L-14.607470836125808,18.204768324748485 L-13.0,13.0" fill-opacity="0" stroke="black" stroke-width="1" />
<path d="M-28.0,-72.0 L-14.607470836125808,-81.79523167525151 L-13.0,-87.0" fill-opacity="0" stroke="black" stroke-width="1" />
<path d="M-13.0,87.0 L-7.733237760584252,88.13554893626791 L-7.0,93.0" fill-opacity="0" stroke="black" stroke-width="1" />
<path d="M-13.0,-13.0 L-7.733237760584252,-11.864451063732096 L-7.0,-7.0" fill-opacity="0" stroke="black" stroke-width="1" />
<path d="M-13.0,13.0 L-7.733237760584252,11.86445106373209 L-7.0,7.0" fill-opacity="0" stroke="black" stroke-width="1" />
<path d="M-13.0,-87.0 L-7.733237760584252,-88.1355489362679 L-7.0,-93.0" fill-opacity="0" stroke="black" stroke-width="1" />
<path d="M-7.0,93.0 L-1.440968448900194,95.46812147204795 L0.0,100.0" fill-opacity="0" stroke="black" stroke-width="1" />
<path d="M-7.0,-7.0 L-1.440968448900194,-4.531878527952044 L0.0,-0.0" fill-opacity="0" stroke="black" stroke-width="1" />
<path d="M-7.0,7.0 L-1.440968448900194,4.5318785279520455 L0.0,-0.0" fill-opacity="0" stroke="black" stroke-width="1" />
<path d="M-7.0,-93.0 L-1.440968448900194,-95.46812147204795 L0.0,-100.0" fill-opacity="0" stroke="black" stroke-width="1" />
<path d="M-50.0,-14.0 L-64.79684322957522,-15.218101667749847 L-61.189839406702255,-20.47103181730201" fill-opacity="0" stroke="black" stroke-width="1" />
<path d="M-50.0,14.0 L-64.79684322957522,15.218101667749847 L-61.189839406702255,20.47103181730201" fill-opacity="0" stroke="black" stroke-width="1" />
<path d="M-64.79684322957522,-15.218101667749847 L-61.189839406702255,-20.47103181730201 L-59.51658315675923,-24.726815299382103" fill-opacity="0" stroke="black" stroke-width="1" />
<path d="M-64.79684322957522,15.218101667749847 L-61.189839406702255,20.47103181730201 L-59.51658315675923,24.726815299382103" fill-opacity="0" stroke="black" stroke-width="1" />
<path d="M-61.189839406702255,-20.47103181730201 L-59.51658315675923,-24.726815299382103 L-50.0,-34.0" fill-opacity="0" stroke="black" stroke-width="1" />
<path d="M-61.189839406702255,20.47103181730201 L-59.51658315675923,24.726815299382103 L-50.0,34.0" fill-opacity="0" stroke="black" stroke-width="1" />
<path d="M-50.0,-36.0 L-53.53880629978925,-37.35156372541451 L-50.0,-42.0" fill-opacity="0" stroke="black" stroke-width="1" />
<path d="M-50.0,36.0 L-53.53880629978925,37.35156372541451 L-50.0,42.0" fill-opacity="0" stroke="black" stroke-width="1" />
<path d="M-50.0,-50.0 L-66.0,-34.0 L-72.0,-28.0" fill-opacity="0" stroke="black" stroke-width="1" />
<path d="M-50.0,50.0 L-66.0,34.0 L-72.0,28.0" fill-opacity="0" stroke="black" stroke-width="1" />
<path d="M-66.0,-34.0 L-72.0,-28.0 L-81.79523167525151,-14.607470836125808" fill-opacity="0" stroke="black" stroke-width="1" />
<path d="M-66.0,34.0 L-72.0,28.0 L-81.79523167525151,14.607470836125808" fill-opacity="0" stroke="black" stroke-width="1" />
<path d="M-72.0,-28.0 L-81.79523167525151,-14.607470836125808 L-87.0,-13.0" fill-opacity="0" stroke="black" stroke-width="1" />
<path d="M-72.0,28.0 L-81.79523167525151,14.607470836125808 L-87.0,13.0" fill-opacity="0" stroke="black" stroke-width="1" />
<path d="M-81.79523167525151,-14.607470836125808 L-87.0,-13.0 L-88.1355489362679,-7.733237760584252" fill-opacity="0" stroke="black" stroke-width="1" />
<path d="M-81.79523167525151,14.607470836125808 L-87.0,13.0 L-88.1355489362679,7.733237760584252" fill-opacity="0" stroke="black" stroke-width="1" />
<path d="M-87.0,-13.0 L-88.1355489362679,-7.733237760584252 L-93.0,-7.0" fill-opacity="0" stroke="black" stroke-width="1" />
<path d="M-87.0,13.0 L-88.1355489362679,7.733237760584252 L-93.0,7.0" fill-opacity="0" stroke="black" stroke-width="1" />
<path d="M-88.1355489362679,-7.733237760584252 L-93.0,-7.0 L-95.46812147204795,-1.440968448900194" fill-opacity="0" stroke="black" stroke-width="1" />
<path d="M-88.1355489362679,7.733237760584252 L-93.0,7.0 L-95.46812147204795,1.440968448900194" fill-opacity="0" stroke="black" stroke-width="1" />
<path d="M-93.0,-7.0 L-95.46812147204795,-1.440968448900194 L-100.0,-0.0" fill-opacity="0" stroke="black" stroke-width="1" />
<path d="M-93.0,7.0 L-95.46812147204795,1.440968448900194 L-100.0,-0.0" fill-opacity="0" stroke="black" stroke-width="1" />
<circle cx="0" cy="-97" r="8" stroke-dasharray="39.653880605311166 10.611601852125524" stroke-dashoffset="-17.59291886010284" stroke="black" stroke-width="1" fill="white" fill-opacity="1" />
<circle cx="0" cy="-97" r="4" stroke="black" stroke-width="1" fill="white" fill-opacity="1" />
</svg>