<?xml version="1.0" encoding="UTF-8"?>
<svg xmlns="http://www.w3.org/2000/svg" xmlns:xlink="http://www.w3.org/1999/xlink"
     width="250" height="250" viewBox="-125.0 -125.0 250 250">
<defs>
</defs>
<path d="M0.0,-0.0 L10.959032263937274,-1.8981802333573592 L12.0,-0.0" fill="blue" fill-opacity="0.6" stroke="black" stroke-width="1" />
<path d="M0.0,-0.0 L10.959032263937274,1.8981802333573592 L12.0,-0.0" fill="brown" fill-opacity="0.6" stroke="black" stroke-width="1" />
<path d="M12.0,-0.0 L13.972824288916208,-2.331698393261725 L15.33152199537981,-5.473870751588617" fill="brown" fill-opacity="0.6" stroke="black" stroke-width="1" />
<path d="M12.0,-0.0 L13.972824288916208,2.331698393261725 L15.33152199537981,5.473870751588617" fill="purple" fill-opacity="0.6" stroke="black" stroke-width="1" />
<path d="M13.972824288916208,-2.331698393261725 L15.33152199537981,-5.473870751588617 L16.862432596305986,-7.456683795865776" fill="blue" fill-opacity="0.6" stroke="black" stroke-width="1" />
<path d="M13.972824288916208,2.331698393261725 L15.33152199537981,5.473870751588617 L16.862432596305986,7.456683795865776" fill="purple" fill-opacity="0.6" stroke="black" stroke-width="1" />
<path d="M15.33152199537981,-5.473870751588617 L16.862432596305986,-7.456683795865776 L24.0,-0.0" fill="red" fill-opacity="0.6" stroke="black" stroke-width="1" />
<path d="M15.33152199537981,5.473870751588617 L16.862432596305986,7.456683795865776 L24.0,-0.0" fill="black" fill-opacity="0.6" stroke="black" stroke-width="1" />
<path d="M24.0,-0.0 L24.855880186657842,-8.572339939772498 L25.903285190754442,-13.448447247845454" fill="brown" fill-opacity="0.6" stroke="black" stroke-width="1" />
<path d="M24.0,-0.0 L24.855880186657842,8.572339939772498 L25.903285190754442,13.448447247845454" fill="pink" fill-opacity="0.6" stroke="black" stroke-width="1" />
<path d="M24.855880186657842,-8.572339939772498 L25.903285190754442,-13.448447247845454 L26.091697997433595,-15.046856887090755" fill="purple" fill-opacity="0.6" stroke="black" stroke-width="1" />
<path d="M24.855880186657842,8.572339939772498 L25.903285190754442,13.448447247845454 L26.091697997433595,15.046856887090755" fill="pink" fill-opacity="0.6" stroke="black" stroke-width="1" />
<path d="M25.903285190754442,-13.448447247845454 L26.091697997433595,-15.046856887090755 L28.0,-0.0" fill="brown" fill-opacity="0.6" stroke="black" stroke-width="1" />
<path d="M25.903285190754442,13.448447247845454 L26.091697997433595,15.046856887090755 L28.0,-0.0" fill="pink" fill-opacity="0.6" stroke="black" stroke-width="1" />
<path d="M40.0,60.0 L32.0,68.0 L30.0,70.0" fill="red" fill-opacity="0.6" stroke="black" stroke-width="1" />
<path d="M40.0,-60.0 L32.0,-68.0 L30.0,-70.0" fill="red" fill-opacity="0.6" stroke="black" stroke-width="1" />
<path d="M50.0,-3.0 L42.289925836615225,-22.691921532336746 L45.352326274917516,-29.818744298112996" fill="blue" fill-opacity="0.6" stroke="black" stroke-width="1" />
<path d="M50.0,3.0 L42.289925836615225,22.691921532336746 L45.352326274917516,29.818744298112996" fill="orange" fill-opacity="0.6" stroke="black" stroke-width="1" />
<path d="M42.289925836615225,-22.691921532336746 L45.352326274917516,-29.818744298112996 L46.19299708850326,-32.06116740871872" fill="red" fill-opacity="0.6" stroke="black" stroke-width="1" />
<path d="M42.289925836615225,22.691921532336746 L45.352326274917516,29.818744298112996 L46.19299708850326,32.06116740871872" fill="green" fill-opacity="0.6" stroke="black" stroke-width="1" />
<path d="M45.352326274917516,-29.818744298112996 L46.19299708850326,-32.06116740871872 L48.266022731449986,-32.66890429088748" fill="green" fill-opacity="0.6" stroke="black" stroke-width="1" />
<path d="M45.352326274917516,29.818744298112996 L46.19299708850326,32.06116740871872 L48.266022731449986,32.66890429088748" fill="orange" fill-opacity="0.6" stroke="black" stroke-width="1" />
<path d="M46.19299708850326,-32.06116740871872 L48.266022731449986,-32.66890429088748 L50.0,-42.0" fill="green" fill-opacity="0.6" stroke="black" stroke-width="1" />
<path d="M46.19299708850326,32.06116740871872 L48.266022731449986,32.66890429088748 L50.0,42.0" fill="red" fill-opacity="0.6" stroke="black" stroke-width="1" />
<path d="M50.0,50.0 L44.0,56.0 L40.0,60.0" fill="black" fill-opacity="0.6" stroke="black" stroke-width="1" />
<path d="M50.0,-50.0 L44.0,-56.0 L40.0,-60.0" fill="red" fill-opacity="0.6" stroke="black" stroke-width="1" />
<path d="M44.0,56.0 L40.0,60.0 L32.0,68.0" fill="purple" fill-opacity="0.6" stroke="black" stroke-width="1" />
<path d="M44.0,-56.0 L40.0,-60.0 L32.0,-68.0" fill="blue" fill-opacity="0.6" stroke="black" stroke-width="1" />
<path d="M32.0,68.0 L30.0,70.0 L0.8380579616612038,94.46891326684307" fill="blue" fill-opacity="0.6" stroke="black" stroke-width="1" />
<path d="M32.0,-68.0 L30.0,-70.0 L0.8380579616612038,-94.46891326684307" fill="green" fill-opacity="0.6" stroke="black" stroke-width="1" />
<path d="M30.0,-30.0 L5.531086733156926,-0.8380579616612038 L5.0,-5.0" fill="yellow" fill-opacity="0.6" stroke="black" stroke-width="1" />
<path d="M30.0,30.0 L5.531086733156926,0.8380579616612038 L5.0,5.0" fill="brown" fill-opacity="0.6" stroke="black" stroke-width="1" />
<path d="M0.8380579616612038,94.46891326684307 L5.0,95.0 L0.11427319396972732,99.6128189034225" fill="blue" fill-opacity="0.6" stroke="black" stroke-width="1" />
<path d="M0.8380579616612038,-94.46891326684307 L5.0,-95.0 L0.11427319396972732,-99.6128189034225" fill="black" fill-opacity="0.6" stroke="black" stroke-width="1" />
<path d="M5.0,-5.0 L0.38718109657750466,-0.11427319396972732 L0.38561791393671996,-0.08322005869126729" fill="yellow" fill-opacity="0.6" stroke="black" stroke-width="1" />
<path d="M5.0,5.0 L0.38718109657750466,0.11427319396972732 L0.38561791393671996,0.08322005869126729" fill="red" fill-opacity="0.6" stroke="black" stroke-width="1" />
<path d="M0.38718109657750466,-0.11427319396972732 L0.38561791393671996,-0.08322005869126729 L0.0,-0.0" fill="red" fill-opacity="0.6" stroke="black" stroke-width="1" />
<path d="M0.38718109657750466,0.11427319396972732 L0.38561791393671996,0.08322005869126729 L0.0,-0.0" fill="orange" fill-opacity="0.6" stroke="black" stroke-width="1" />
<path d="M0.0,-0.0 L-10.959032263937274,-1.8981802333573592 L-12.0,-0.0" fill="yellow" fill-opacity="0.6" stroke="black" stroke-width="1" />
<path d="M0.0,-0.0 L-10.959032263937274,1.8981802333573592 L-12.0,-0.0" fill="brown" fill-opacity="0.6" stroke="black" stroke-width="1" />
<path d="M-12.0,-0.0 L-13.972824288916208,-2.331698393261725 L-15.33152199537981,-5.473870751588617" fill="black" fill-opacity="0.6" stroke="black" stroke-width="1" />
<path d="M-12.0,-0.0 L-13.972824288916208,2.331698393261725 L-15.33152199537981,5.473870751588617" fill="red" fill-opacity="0.6" stroke="black" stroke-width="1" />
<path d="M-13.972824288916208,-2.331698393261725 L-15.33152199537981,-5.473870751588617 L-16.862432596305986,-7.456683795865776" fill="yellow" fill-opacity="0.6" stroke="black" stroke-width="1" />
<path d="M-13.972824288916208,2.331698393261725 L-15.33152199537981,5.473870751588617 L-16.862432596305986,7.456683795865776" fill="black" fill-opacity="0.6" stroke="black" stroke-width="1" />
<path d="M-15.33152199537981,-5.473870751588617 L-16.862432596305986,-7.456683795865776 L-24.0,-0.0" fill="brown" fill-opacity="0.6" stroke="black" stroke-width="1" />
<path d="M-15.33152199537981,5.473870751588617 L-16.862432596305986,7.456683795865776 L-24.0,-0.0" fill="blue" fill-opacity="0.6" stroke="black" stroke-width="1" />
<path d="M-24.0,-0.0 L-24.855880186657842,-8.572339939772498 L-25.903285190754442,-13.448447247845454" fill="black" fill-opacity="0.6" stroke="black" stroke-width="1" />
<path d="M-24.0,-0.0 L-24.855880186657842,8.572339939772498 L-25.903285190754442,13.448447247845454" fill="blue" fill-opacity="0.6" stroke="black" stroke-width="1" />
<path d="M-24.855880186657842,-8.572339939772498 L-25.903285190754442,-13.448447247845454 L-26.091697997433595,-15.046856887090755" fill="yellow" fill-opacity="0.6" stroke="black" stroke-width="1" />
<path d="M-24.855880186657842,8.572339939772498 L-25.903285190754442,13.448447247845454 L-26.091697997433595,15.046856887090755" fill="purple" fill-opacity="0.6" stroke="black" stroke-width="1" />
<path d="M-25.903285190754442,-13.448447247845454 L-26.091697997433595,-15.046856887090755 L-28.0,-0.0" fill="pink" fill-opacity="0.6" stroke="black" stroke-width="1" />
<path d="M-25.903285190754442,13.448447247845454 L-26.091697997433595,15.046856887090755 L-28.0,-0.0" fill="yellow" fill-opacity="0.6" stroke="black" stroke-width="1" />
<path d="M-40.0,60.0 L-32.0,68.0 L-30.0,70.0" fill="blue" fill-opacity="0.6" stroke="black" stroke-width="1" />
<path d="M-40.0,-60.0 L-32.0,-68.0 L-30.0,-70.0" fill="blue" fill-opacity="0.6" stroke="black" stroke-width="1" />
<path d="M-50.0,-3.0 L-42.289925836615225,-22.691921532336746 L-45.352326274917516,-29.818744298112996" fill="brown" fill-opacity="0.6" stroke="black" stroke-width="1" />
<path d="M-50.0,3.0 L-42.289925836615225,22.691921532336746 L-45.352326274917516,29.818744298112996" fill="green" fill-opacity="0.6" stroke="black" stroke-width="1" />
<path d="M-42.289925836615225,-22.691921532336746 L-45.352326274917516,-29.818744298112996 L-46.19299708850326,-32.06116740871872" fill="blue" fill-opacity="0.6" stroke="black" stroke-width="1" />
<path d="M-42.289925836615225,22.691921532336746 L-45.352326274917516,29.818744298112996 L-46.19299708850326,32.06116740871872" fill="yellow" fill-opacity="0.6" stroke="black" stroke-width="1" />
<path d="M-45.352326274917516,-29.818744298112996 L-46.19299708850326,-32.06116740871872 L-48.266022731449986,-32.66890429088748" fill="green" fill-opacity="0.6" stroke="black" stroke-width="1" />
<path d="M-45.352326274917516,29.818744298112996 L-46.19299708850326,32.06116740871872 L-48.266022731449986,32.66890429088748" fill="yellow" fill-opacity="0.6" stroke="black" stroke-width="1" />
<path d="M-46.19299708850326,-32.06116740871872 L-48.266022731449986,-32.66890429088748 L-50.0,-42.0" fill="black" fill-opacity="0.6" stroke="black" stroke-width="1" />
<path d="M-46.19299708850326,32.06116740871872 L-48.266022731449986,32.66890429088748 L-50.0,42.0" fill="red" fill-opacity="0.6" stroke="black" stroke-width="1" />
<path d="M-50.0,50.0 L-44.0,56.0 L-40.0,60.0" fill="yellow" fill-opacity="0.6" stroke="black" stroke-width="1" />
<path d="M-50.0,-50.0 L-44.0,-56.0 L-40.0,-60.0" fill="blue" fill-opacity="0.6" stroke="black" stroke-width="1" />
<path d="M-44.0,56.0 L-40.0,60.0 L-32.0,68.0" fill="orange" fill-opacity="0.6" stroke="black" stroke-width="1" />
<path d="M-44.0,-56.0 L-40.0,-60.0 L-32.0,-68.0" fill="yellow" fill-opacity="0.6" stroke="black" stroke-width="1" />
<path d="M-32.0,68.0 L-30.0,70.0 L-0.8380579616612038,94.46891326684307" fill="orange" fill-opacity="0.6" stroke="black" stroke-width="1" />
<path d="M-32.0,-68.0 L-30.0,-70.0 L-0.8380579616612038,-94.46891326684307" fill="red" fill-opacity="0.6" stroke="black" stroke-width="1" />
<path d="M-30.0,-30.0 L-5.531086733156926,-0.8380579616612038 L-5.0,-5.0" fill="blue" fill-opacity="0.6" stroke="black" stroke-width="1" />
<path d="M-30.0,30.0 L-5.531086733156926,0.8380579616612038 L-5.0,5.0" fill="orange" fill-opacity="0.6" stroke="black" stroke-width="1" />
<path d="M-0.8380579616612038,94.46891326684307 L-5.0,95.0 L-0.11427319396972732,99.6128189034225" fill="pink" fill-opacity="0.6" stroke="black" stroke-width="1" />
<path d="M-0.8380579616612038,-94.46891326684307 L-5.0,-95.0 L-0.11427319396972732,-99.6128189034225" fill="green" fill-opacity="0.6" stroke="black" stroke-width="1" />
<path d="M-5.0,-5.0 L-0.38718109657750466,-0.11427319396972732 L-0.38561791393671996,-0.08322005869126729" fill="black" fill-opacity="0.6" stroke="black" stroke-width="1" />
<path d="M-5.0,5.0 L-0.38718109657750466,0.11427319396972732 L-0.38561791393671996,0.08322005869126729" fill="pink" fill-opacity="0.6" stroke="black" stroke-width="1" />
<path d="M-0.38718109657750466,-0.11427319396972732 L-0.38561791393671996,-0.08322005869126729 L0.0,-0.0" fill="pink" fill-opacity="0.6" stroke="black" stroke-width="1" />
<path d="M-0.38718109657750466,0.11427319396972732 L-0.38561791393671996,0.08322005869126729 L0.0,-0.0" fill="black" fill-opacity="0.6" stroke="black" stroke-width="1" />
<path d="M100.0,-0.0 L89.04096773606273,1.8981802333573592 L88.0,-0.0" fill="red" fill-opacity="0.6" stroke="black" stroke-width="1" />
<path d="M100.0,-0.0 L89.04096773606273,-1.8981802333573592 L88.0,-0.0" fill="green" fill-opacity="0.6" stroke="black" stroke-width="1" />
<path d="M88.0,-0.0 L86.0271757110838,2.331698393261725 L84.6684780046202,5.473870751588617" fill="black" fill-opacity="0.6" stroke="black" stroke-width="1" />
<path d="M88.0,-0.0 L86.0271757110838,-2.331698393261725 L84.6684780046202,-5.473870751588617" fill="green" fill-opacity="0.6" stroke="black" stroke-width="1" />
<path d="M86.0271757110838,2.331698393261725 L84.6684780046202,5.473870751588617 L83.13756740369402,7.456683795865776" fill="blue" fill-opacity="0.6" stroke="black" stroke-width="1" />
<path d="M86.0271757110838,-2.331698393261725 L84.6684780046202,-5.473870751588617 L83.13756740369402,-7.456683795865776" fill="red" fill-opacity="0.6" stroke="black" stroke-width="1" />
<path d="M84.6684780046202,5.473870751588617 L83.13756740369402,7.456683795865776 L76.0,-0.0" fill="black" fill-opacity="0.6" stroke="black" stroke-width="1" />
<path d="M84.6684780046202,-5.473870751588617 L83.13756740369402,-7.456683795865776 L76.0,-0.0" fill="orange" fill-opacity="0.6" stroke="black" stroke-width="1" />
<path d="M76.0,-0.0 L75.14411981334216,8.572339939772498 L74.09671480924555,13.448447247845454" fill="purple" fill-opacity="0.6" stroke="black" stroke-width="1" />
<path d="M76.0,-0.0 L75.14411981334216,-8.572339939772498 L74.09671480924555,-13.448447247845454" fill="green" fill-opacity="0.6" stroke="black" stroke-width="1" />
<path d="M75.14411981334216,8.572339939772498 L74.09671480924555,13.448447247845454 L73.9083020025664,15.046856887090755" fill="yellow" fill-opacity="0.6" stroke="black" stroke-width="1" />
<path d="M75.14411981334216,-8.572339939772498 L74.09671480924555,-13.448447247845454 L73.9083020025664,-15.046856887090755" fill="black" fill-opacity="0.6" stroke="black" stroke-width="1" />
<path d="M74.09671480924555,13.448447247845454 L73.9083020025664,15.046856887090755 L72.0,-0.0" fill="purple" fill-opacity="0.6" stroke="black" stroke-width="1" />
<path d="M74.09671480924555,-13.448447247845454 L73.9083020025664,-15.046856887090755 L72.0,-0.0" fill="orange" fill-opacity="0.6" stroke="black" stroke-width="1" />
<path d="M60.0,40.0 L68.0,32.0 L70.0,30.0" fill="orange" fill-opacity="0.6" stroke="black" stroke-width="1" />
<path d="M60.0,-40.0 L68.0,-32.0 L70.0,-30.0" fill="pink" fill-opacity="0.6" stroke="black" stroke-width="1" />
<path d="M50.0,3.0 L57.710074163384775,22.691921532336746 L54.647673725082484,29.818744298112996" fill="brown" fill-opacity="0.6" stroke="black" stroke-width="1" />
<path d="M50.0,-3.0 L57.710074163384775,-22.691921532336746 L54.647673725082484,-29.818744298112996" fill="orange" fill-opacity="0.6" stroke="black" stroke-width="1" />
<path d="M57.710074163384775,22.691921532336746 L54.647673725082484,29.818744298112996 L53.80700291149674,32.06116740871872" fill="black" fill-opacity="0.6" stroke="black" stroke-width="1" />
<path d="M57.710074163384775,-22.691921532336746 L54.647673725082484,-29.818744298112996 L53.80700291149674,-32.06116740871872" fill="black" fill-opacity="0.6" stroke="black" stroke-width="1" />
<path d="M54.647673725082484,29.818744298112996 L53.80700291149674,32.06116740871872 L51.733977268550014,32.66890429088748" fill="red" fill-opacity="0.6" stroke="black" stroke-width="1" />
<path d="M54.647673725082484,-29.818744298112996 L53.80700291149674,-32.06116740871872 L51.733977268550014,-32.66890429088748" fill="purple" fill-opacity="0.6" stroke="black" stroke-width="1" />
<path d="M53.80700291149674,32.06116740871872 L51.733977268550014,32.66890429088748 L50.0,42.0" fill="yellow" fill-opacity="0.6" stroke="black" stroke-width="1" />
<path d="M53.80700291149674,-32.06116740871872 L51.733977268550014,-32.66890429088748 L50.0,-42.0" fill="pink" fill-opacity="0.6" stroke="black" stroke-width="1" />
<path d="M50.0,50.0 L56.0,44.0 L60.0,40.0" fill="purple" fill-opacity="0.6" stroke="black" stroke-width="1" />
<path d="M50.0,-50.0 L56.0,-44.0 L60.0,-40.0" fill="yellow" fill-opacity="0.6" stroke="black" stroke-width="1" />
<path d="M56.0,44.0 L60.0,40.0 L68.0,32.0" fill="red" fill-opacity="0.6" stroke="black" stroke-width="1" />
<path d="M56.0,-44.0 L60.0,-40.0 L68.0,-32.0" fill="black" fill-opacity="0.6" stroke="black" stroke-width="1" />
<path d="M68.0,32.0 L70.0,30.0 L94.46891326684307,0.8380579616612038" fill="black" fill-opacity="0.6" stroke="black" stroke-width="1" />
<path d="M68.0,-32.0 L70.0,-30.0 L94.46891326684307,-0.8380579616612038" fill="red" fill-opacity="0.6" stroke="black" stroke-width="1" />
<path d="M70.0,30.0 L94.46891326684307,0.8380579616612038 L95.0,5.0" fill="black" fill-opacity="0.6" stroke="black" stroke-width="1" />
<path d="M70.0,-30.0 L94.46891326684307,-0.8380579616612038 L95.0,-5.0" fill="brown" fill-opacity="0.6" stroke="black" stroke-width="1" />
<path d="M94.46891326684307,0.8380579616612038 L95.0,5.0 L99.6128189034225,0.11427319396972732" fill="yellow" fill-opacity="0.6" stroke="black" stroke-width="1" />
<path d="M94.46891326684307,-0.8380579616612038 L95.0,-5.0 L99.6128189034225,-0.11427319396972732" fill="purple" fill-opacity="0.6" stroke="black" stroke-width="1" />
<path d="M95.0,5.0 L99.6128189034225,0.11427319396972732 L99.61438208606327,0.08322005869126729" fill="pink" fill-opacity="0.6" stroke="black" stroke-width="1" />
<path d="M95.0,-5.0 L99.6128189034225,-0.11427319396972732 L99.61438208606327,-0.08322005869126729" fill="blue" fill-opacity="0.6" stroke="black" stroke-width="1" />
<path d="M99.6128189034225,0.11427319396972732 L99.61438208606327,0.08322005869126729 L100.0,-0.0" fill="red" fill-opacity="0.6" stroke="black" stroke-width="1" />
<path d="M99.6128189034225,-0.11427319396972732 L99.61438208606327,-0.08322005869126729 L100.0,-0.0" fill="orange" fill-opacity="0.6" stroke="black" stroke-width="1" />
<path d="M0.0,-0.0 L1.8981802333573592,-10.959032263937274 L0.0,-12.0" fill="purple" fill-opacity="0.6" stroke="black" stroke-width="1" />
<path d="M0.0,-0.0 L1.8981802333573592,10.959032263937274 L0.0,12.0" fill="purple" fill-opacity="0.6" stroke="black" stroke-width="1" />
<path d="M0.0,100.0 L1.8981802333573592,89.04096773606273 L0.0,88.0" fill="black" fill-opacity="0.6" stroke="black" stroke-width="1" />
<path d="M0.0,-100.0 L1.8981802333573592,-89.04096773606273 L0.0,-88.0" fill="brown" fill-opacity="0.6" stroke="black" stroke-width="1" />
<path d="M0.0,-12.0 L2.331698393261725,-13.972824288916208 L5.473870751588617,-15.33152199537981" fill="blue" fill-opacity="0.6" stroke="black" stroke-width="1" />
<path d="M0.0,12.0 L2.331698393261725,13.972824288916208 L5.473870751588617,15.33152199537981" fill="brown" fill-opacity="0.6" stroke="black" stroke-width="1" />
<path d="M0.0,88.0 L2.331698393261725,86.0271757110838 L5.473870751588617,84.6684780046202" fill="yellow" fill-opacity="0.6" stroke="black" stroke-width="1" />
<path d="M0.0,-88.0 L2.331698393261725,-86.0271757110838 L5.473870751588617,-84.6684780046202" fill="blue" fill-opacity="0.6" stroke="black" stroke-width="1" />
<path d="M2.331698393261725,-13.972824288916208 L5.473870751588617,-15.33152199537981 L7.456683795865776,-16.862432596305986" fill="pink" fill-opacity="0.6" stroke="black" stroke-width="1" />
<path d="M2.331698393261725,13.972824288916208 L5.473870751588617,15.33152199537981 L7.456683795865776,16.862432596305986" fill="orange" fill-opacity="0.6" stroke="black" stroke-width="1" />
<path d="M2.331698393261725,86.0271757110838 L5.473870751588617,84.6684780046202 L7.456683795865776,83.13756740369402" fill="red" fill-opacity="0.6" stroke="black" stroke-width="1" />
<path d="M2.331698393261725,-86.0271757110838 L5.473870751588617,-84.6684780046202 L7.456683795865776,-83.13756740369402" fill="pink" fill-opacity="0.6" stroke="black" stroke-width="1" />
<path d="M5.473870751588617,-15.33152199537981 L7.456683795865776,-16.862432596305986 L0.0,-24.0" fill="purple" fill-opacity="0.6" stroke="black" stroke-width="1" />
<path d="M5.473870751588617,15.33152199537981 L7.456683795865776,16.862432596305986 L0.0,24.0" fill="black" fill-opacity="0.6" stroke="black" stroke-width="1" />
<path d="M5.473870751588617,84.6684780046202 L7.456683795865776,83.13756740369402 L0.0,76.0" fill="pink" fill-opacity="0.6" stroke="black" stroke-width="1" />
<path d="M5.473870751588617,-84.6684780046202 L7.456683795865776,-83.13756740369402 L0.0,-76.0" fill="green" fill-opacity="0.6" stroke="black" stroke-width="1" />
<path d="M0.0,-24.0 L8.572339939772498,-24.855880186657842 L13.448447247845454,-25.903285190754442" fill="blue" fill-opacity="0.6" stroke="black" stroke-width="1" />
<path d="M0.0,24.0 L8.572339939772498,24.855880186657842 L13.448447247845454,25.903285190754442" fill="red" fill-opacity="0.6" stroke="black" stroke-width="1" />
<path d="M0.0,76.0 L8.572339939772498,75.14411981334216 L13.448447247845454,74.09671480924555" fill="orange" fill-opacity="0.6" stroke="black" stroke-width="1" />
<path d="M0.0,-76.0 L8.572339939772498,-75.14411981334216 L13.448447247845454,-74.09671480924555" fill="pink" fill-opacity="0.6" stroke="black" stroke-width="1" />
<path d="M8.572339939772498,-24.855880186657842 L13.448447247845454,-25.903285190754442 L15.046856887090755,-26.091697997433595" fill="brown" fill-opacity="0.6" stroke="black" stroke-width="1" />
<path d="M8.572339939772498,24.855880186657842 L13.448447247845454,25.903285190754442 L15.046856887090755,26.091697997433595" fill="red" fill-opacity="0.6" stroke="black" stroke-width="1" />
<path d="M8.572339939772498,75.14411981334216 L13.448447247845454,74.09671480924555 L15.046856887090755,73.9083020025664" fill="pink" fill-opacity="0.6" stroke="black" stroke-width="1" />
<path d="M8.572339939772498,-75.14411981334216 L13.448447247845454,-74.09671480924555 L15.046856887090755,-73.9083020025664" fill="blue" fill-opacity="0.6" stroke="black" stroke-width="1" />
<path d="M13.448447247845454,-25.903285190754442 L15.046856887090755,-26.091697997433595 L0.0,-28.0" fill="orange" fill-opacity="0.6" stroke="black" stroke-width="1" />
<path d="M13.448447247845454,25.903285190754442 L15.046856887090755,26.091697997433595 L0.0,28.0" fill="pink" fill-opacity="0.6" stroke="black" stroke-width="1" />
<path d="M13.448447247845454,74.09671480924555 L15.046856887090755,73.9083020025664 L0.0,72.0" fill="orange" fill-opacity="0.6" stroke="black" stroke-width="1" />
<path d="M13.448447247845454,-74.09671480924555 L15.046856887090755,-73.9083020025664 L0.0,-72.0" fill="brown" fill-opacity="0.6" stroke="black" stroke-width="1" />
<path d="M3.0,-50.0 L22.691921532336746,-42.289925836615225 L29.818744298112996,-45.352326274917516" fill="brown" fill-opacity="0.6" stroke="black" stroke-width="1" />
<path d="M3.0,50.0 L22.691921532336746,42.289925836615225 L29.818744298112996,45.352326274917516" fill="green" fill-opacity="0.6" stroke="black" stroke-width="1" />
<path d="M3.0,50.0 L22.691921532336746,57.710074163384775 L29.818744298112996,54.647673725082484" fill="orange" fill-opacity="0.6" stroke="black" stroke-width="1" />
<path d="M3.0,-50.0 L22.691921532336746,-57.710074163384775 L29.818744298112996,-54.647673725082484" fill="green" fill-opacity="0.6" stroke="black" stroke-width="1" />
<path d="M22.691921532336746,-42.289925836615225 L29.818744298112996,-45.352326274917516 L32.06116740871872,-46.19299708850326" fill="purple" fill-opacity="0.6" stroke="black" stroke-width="1" />
<path d="M22.691921532336746,42.289925836615225 L29.818744298112996,45.352326274917516 L32.06116740871872,46.19299708850326" fill="pink" fill-opacity="0.6" stroke="black" stroke-width="1" />
<path d="M22.691921532336746,57.710074163384775 L29.818744298112996,54.647673725082484 L32.06116740871872,53.80700291149674" fill="black" fill-opacity="0.6" stroke="black" stroke-width="1" />
<path d="M22.691921532336746,-57.710074163384775 L29.818744298112996,-54.647673725082484 L32.06116740871872,-53.80700291149674" fill="brown" fill-opacity="0.6" stroke="black" stroke-width="1" />
<path d="M29.818744298112996,-45.352326274917516 L32.06116740871872,-46.19299708850326 L32.66890429088748,-48.266022731449986" fill="red" fill-opacity="0.6" stroke="black" stroke-width="1" />
<path d="M29.818744298112996,45.352326274917516 L32.06116740871872,46.19299708850326 L32.66890429088748,48.266022731449986" fill="brown" fill-opacity="0.6" stroke="black" stroke-width="1" />
<path d="M29.818744298112996,54.647673725082484 L32.06116740871872,53.80700291149674 L32.66890429088748,51.733977268550014" fill="blue" fill-opacity="0.6" stroke="black" stroke-width="1" />
<path d="M29.818744298112996,-54.647673725082484 L32.06116740871872,-53.80700291149674 L32.66890429088748,-51.733977268550014" fill="green" fill-opacity="0.6" stroke="black" stroke-width="1" />
<path d="M32.06116740871872,-46.19299708850326 L32.66890429088748,-48.266022731449986 L42.0,-50.0" fill="red" fill-opacity="0.6" stroke="black" stroke-width="1" />
<path d="M32.06116740871872,46.19299708850326 L32.66890429088748,48.266022731449986 L42.0,50.0" fill="green" fill-opacity="0.6" stroke="black" stroke-width="1" />
<path d="M32.06116740871872,53.80700291149674 L32.66890429088748,51.733977268550014 L42.0,50.0" fill="pink" fill-opacity="0.6" stroke="black" stroke-width="1" />
<path d="M32.06116740871872,-53.80700291149674 L32.66890429088748,-51.733977268550014 L42.0,-50.0" fill="brown" fill-opacity="0.6" stroke="black" stroke-width="1" />
<path d="M30.0,-30.0 L0.8380579616612038,-5.531086733156926 L5.0,-5.0" fill="orange" fill-opacity="0.6" stroke="black" stroke-width="1" />
<path d="M30.0,30.0 L0.8380579616612038,5.531086733156926 L5.0,5.0" fill="purple" fill-opacity="0.6" stroke="black" stroke-width="1" />
<path d="M30.0,70.0 L0.8380579616612038,94.46891326684307 L5.0,95.0" fill="yellow" fill-opacity="0.6" stroke="black" stroke-width="1" />
<path d="M30.0,-70.0 L0.8380579616612038,-94.46891326684307 L5.0,-95.0" fill="orange" fill-opacity="0.6" stroke="black" stroke-width="1" />
<path d="M5.0,-5.0 L0.11427319396972732,-0.38718109657750466 L0.08322005869126729,-0.38561791393671996" fill="orange" fill-opacity="0.6" stroke="black" stroke-width="1" />
<path d="M5.0,5.0 L0.11427319396972732,0.38718109657750466 L0.08322005869126729,0.38561791393671996" fill="black" fill-opacity="0.6" stroke="black" stroke-width="1" />
<path d="M5.0,95.0 L0.11427319396972732,99.6128189034225 L0.08322005869126729,99.61438208606327" fill="pink" fill-opacity="0.6" stroke="black" stroke-width="1" />
<path d="M5.0,-95.0 L0.11427319396972732,-99.6128189034225 L0.08322005869126729,-99.61438208606327" fill="orange" fill-opacity="0.6" stroke="black" stroke-width="1" />
<path d="M0.11427319396972732,-0.38718109657750466 L0.08322005869126729,-0.38561791393671996 L0.0,-0.0" fill="red" fill-opacity="0.6" stroke="black" stroke-width="1" />
<path d="M0.11427319396972732,0.38718109657750466 L0.08322005869126729,0.38561791393671996 L0.0,-0.0" fill="orange" fill-opacity="0.6" stroke="black" stroke-width="1" />
<path d="M0.11427319396972732,99.6128189034225 L0.08322005869126729,99.61438208606327 L0.0,100.0" fill="orange" fill-opacity="0.6" stroke="black" stroke-width="1" />
<path d="M0.11427319396972732,-99.6128189034225 L0.08322005869126729,-99.61438208606327 L0.0,-100.0" fill="pink" fill-opacity="0.6" stroke="black" stroke-width="1" />
<path d="M0.0,100.0 L-1.8981802333573592,89.04096773606273 L0.0,88.0" fill="orange" fill-opacity="0.6" stroke="black" stroke-width="1" />
<path d="M0.0,-0.0 L-1.8981802333573592,-10.959032263937274 L0.0,-12.0" fill="black" fill-opacity="0.6" stroke="black" stroke-width="1" />
<path d="M0.0,-0.0 L-1.8981802333573592,10.959032263937274 L0.0,12.0" fill="green" fill-opacity="0.6" stroke="black" stroke-width="1" />
<path d="M0.0,-100.0 L-1.8981802333573592,-89.04096773606273 L0.0,-88.0" fill="green" fill-opacity="0.6" stroke="black" stroke-width="1" />
<path d="M0.0,88.0 L-2.331698393261725,86.0271757110838 L-5.473870751588617,84.6684780046202" fill="brown" fill-opacity="0.6" stroke="black" stroke-width="1" />
<path d="M0.0,-12.0 L-2.331698393261725,-13.972824288916208 L-5.473870751588617,-15.33152199537981" fill="yellow" fill-opacity="0.6" stroke="black" stroke-width="1" />
<path d="M0.0,12.0 L-2.331698393261725,13.9728242889162 L-5.473870751588617,15.331521995379802" fill="red" fill-opacity="0.6" stroke="black" stroke-width="1" />
<path d="M0.0,-88.0 L-2.331698393261725,-86.0271757110838 L-5.473870751588617,-84.6684780046202" fill="pink" fill-opacity="0.6" stroke="black" stroke-width="1" />
<path d="M-2.331698393261725,86.0271757110838 L-5.473870751588617,84.6684780046202 L-7.456683795865776,83.13756740369402" fill="black" fill-opacity="0.6" stroke="black" stroke-width="1" />
<path d="M-2.331698393261725,-13.972824288916208 L-5.473870751588617,-15.33152199537981 L-7.456683795865776,-16.862432596305986" fill="red" fill-opacity="0.6" stroke="black" stroke-width="1" />
<path d="M-2.331698393261725,13.9728242889162 L-5.473870751588617,15.331521995379802 L-7.456683795865776,16.86243259630598" fill="black" fill-opacity="0.6" stroke="black" stroke-width="1" />
<path d="M-2.331698393261725,-86.0271757110838 L-5.473870751588617,-84.6684780046202 L-7.456683795865776,-83.13756740369402" fill="yellow" fill-opacity="0.6" stroke="black" stroke-width="1" />
<path d="M-5.473870751588617,84.6684780046202 L-7.456683795865776,83.13756740369402 L0.0,76.0" fill="pink" fill-opacity="0.6" stroke="black" stroke-width="1" />
<path d="M-5.473870751588617,-15.33152199537981 L-7.456683795865776,-16.862432596305986 L0.0,-24.0" fill="orange" fill-opacity="0.6" stroke="black" stroke-width="1" />
<path d="M-5.473870751588617,15.331521995379802 L-7.456683795865776,16.86243259630598 L0.0,24.0" fill="orange" fill-opacity="0.6" stroke="black" stroke-width="1" />
<path d="M-5.473870751588617,-84.6684780046202 L-7.456683795865776,-83.13756740369402 L0.0,-76.0" fill="red" fill-opacity="0.6" stroke="black" stroke-width="1" />
<path d="M0.0,76.0 L-8.572339939772498,75.14411981334216 L-13.448447247845454,74.09671480924555" fill="green" fill-opacity="0.6" stroke="black" stroke-width="1" />
<path d="M0.0,-24.0 L-8.572339939772498,-24.855880186657842 L-13.448447247845454,-25.903285190754442" fill="black" fill-opacity="0.6" stroke="black" stroke-width="1" />
<path d="M0.0,24.0 L-8.572339939772498,24.855880186657842 L-13.448447247845454,25.903285190754445" fill="black" fill-opacity="0.6" stroke="black" stroke-width="1" />
<path d="M0.0,-76.0 L-8.572339939772498,-75.14411981334216 L-13.448447247845454,-74.09671480924555" fill="green" fill-opacity="0.6" stroke="black" stroke-width="1" />
<path d="M-8.572339939772498,75.14411981334216 L-13.448447247845454,74.09671480924555 L-15.046856887090755,73.9083020025664" fill="orange" fill-opacity="0.6" stroke="black" stroke-width="1" />
<path d="M-8.572339939772498,-24.855880186657842 L-13.448447247845454,-25.903285190754442 L-15.046856887090755,-26.091697997433595" fill="orange" fill-opacity="0.6" stroke="black" stroke-width="1" />
<path d="M-8.572339939772498,24.855880186657842 L-13.448447247845454,25.903285190754445 L-15.046856887090755,26.0916979974336" fill="green" fill-opacity="0.6" stroke="black" stroke-width="1" />
<path d="M-8.572339939772498,-75.14411981334216 L-13.448447247845454,-74.09671480924555 L-15.046856887090755,-73.9083020025664" fill="yellow" fill-opacity="0.6" stroke="black" stroke-width="1" />
<path d="M-13.448447247845454,74.09671480924555 L-15.046856887090755,73.9083020025664 L0.0,72.0" fill="brown" fill-opacity="0.6" stroke="black" stroke-width="1" />
<path d="M-13.448447247845454,-25.903285190754442 L-15.046856887090755,-26.091697997433595 L0.0,-28.0" fill="green" fill-opacity="0.6" stroke="black" stroke-width="1" />
<path d="M-13.448447247845454,25.903285190754445 L-15.046856887090755,26.0916979974336 L0.0,28.0" fill="orange" fill-opacity="0.6" stroke="black" stroke-width="1" />
<path d="M-13.448447247845454,-74.09671480924555 L-15.046856887090755,-73.9083020025664 L0.0,-72.0" fill="orange" fill-opacity="0.6" stroke="black" stroke-width="1" />
<path d="M-3.0,50.0 L-22.691921532336746,57.710074163384775 L-29.818744298112996,54.647673725082484" fill="green" fill-opacity="0.6" stroke="black" stroke-width="1" />
<path d="M-3.0,-50.0 L-22.691921532336746,-42.289925836615225 L-29.818744298112996,-45.352326274917516" fill="yellow" fill-opacity="0.6" stroke="black" stroke-width="1" />
<path d="M-3.0,50.0 L-22.691921532336746,42.289925836615225 L-29.818744298112996,45.352326274917516" fill="pink" fill-opacity="0.6" stroke="black" stroke-width="1" />
<path d="M-3.0,-50.0 L-22.691921532336746,-57.710074163384775 L-29.818744298112996,-54.647673725082484" fill="green" fill-opacity="0.6" stroke="black" stroke-width="1" />
<path d="M-22.691921532336746,57.710074163384775 L-29.818744298112996,54.647673725082484 L-32.06116740871872,53.80700291149674" fill="purple" fill-opacity="0.6" stroke="black" stroke-width="1" />
<path d="M-22.691921532336746,-42.289925836615225 L-29.818744298112996,-45.352326274917516 L-32.06116740871872,-46.19299708850326" fill="brown" fill-opacity="0.6" stroke="black" stroke-width="1" />
<path d="M-22.691921532336746,42.289925836615225 L-29.818744298112996,45.352326274917516 L-32.06116740871872,46.19299708850326" fill="red" fill-opacity="0.6" stroke="black" stroke-width="1" />
<path d="M-22.691921532336746,-57.710074163384775 L-29.818744298112996,-54.647673725082484 L-32.06116740871872,-53.80700291149674" fill="purple" fill-opacity="0.6" stroke="black" stroke-width="1" />
<path d="M-29.818744298112996,54.647673725082484 L-32.06116740871872,53.80700291149674 L-32.66890429088748,51.733977268550014" fill="blue" fill-opacity="0.6" stroke="black" stroke-width="1" />
<path d="M-29.818744298112996,-45.352326274917516 L-32.06116740871872,-46.19299708850326 L-32.66890429088748,-48.266022731449986" fill="pink" fill-opacity="0.6" stroke="black" stroke-width="1" />
<path d="M-29.818744298112996,45.352326274917516 L-32.06116740871872,46.19299708850326 L-32.66890429088748,48.266022731449986" fill="orange" fill-opacity="0.6" stroke="black" stroke-width="1" />
<path d="M-29.818744298112996,-54.647673725082484 L-32.06116740871872,-53.80700291149674 L-32.66890429088748,-51.733977268550014" fill="purple" fill-opacity="0.6" stroke="black" stroke-width="1" />
<path d="M-32.06116740871872,53.80700291149674 L-32.66890429088748,51.733977268550014 L-42.0,50.0" fill="green" fill-opacity="0.6" stroke="black" stroke-width="1" />
<path d="M-32.06116740871872,-46.19299708850326 L-32.66890429088748,-48.266022731449986 L-42.0,-50.0" fill="black" fill-opacity="0.6" stroke="black" stroke-width="1" />
<path d="M-32.06116740871872,46.19299708850326 L-32.66890429088748,48.266022731449986 L-42.0,50.0" fill="black" fill-opacity="0.6" stroke="black" stroke-width="1" />
<path d="M-32.06116740871872,-53.80700291149674 L-32.66890429088748,-51.733977268550014 L-42.0,-50.0" fill="purple" fill-opacity="0.6" stroke="black" stroke-width="1" />
<path d="M-30.0,70.0 L-0.8380579616612038,94.46891326684307 L-5.0,95.0" fill="brown" fill-opacity="0.6" stroke="black" stroke-width="1" />
<path d="M-30.0,-30.0 L-0.8380579616612038,-5.531086733156926 L-5.0,-5.0" fill="yellow" fill-opacity="0.6" stroke="black" stroke-width="1" />
<path d="M-30.0,30.0 L-0.8380579616612038,5.531086733156926 L-5.0,5.0" fill="pink" fill-opacity="0.6" stroke="black" stroke-width="1" />
<path d="M-30.0,-70.0 L-0.8380579616612038,-94.46891326684307 L-5.0,-95.0" fill="red" fill-opacity="0.6" stroke="black" stroke-width="1" />
<path d="M-5.0,95.0 L-0.11427319396972732,99.6128189034225 L-0.08322005869126729,99.61438208606327" fill="orange" fill-opacity="0.6" stroke="black" stroke-width="1" />
<path d="M-5.0,-5.0 L-0.11427319396972732,-0.38718109657750466 L-0.08322005869126729,-0.38561791393671996" fill="pink" fill-opacity="0.6" stroke="black" stroke-width="1" />
<path d="M-5.0,5.0 L-0.11427319396972732,0.3871810965775069 L-0.08322005869126729,0.38561791393672706" fill="orange" fill-opacity="0.6" stroke="black" stroke-width="1" />
<path d="M-5.0,-95.0 L-0.11427319396972732,-99.6128189034225 L-0.08322005869126729,-99.61438208606327" fill="green" fill-opacity="0.6" stroke="black" stroke-width="1" />
<path d="M-0.11427319396972732,99.6128189034225 L-0.08322005869126729,99.61438208606327 L0.0,100.0" fill="orange" fill-opacity="0.6" stroke="black" stroke-width="1" />
<path d="M-0.11427319396972732,-0.38718109657750466 L-0.08322005869126729,-0.38561791393671996 L0.0,-0.0" fill="green" fill-opacity="0.6" stroke="black" stroke-width="1" />
<path d="M-0.11427319396972732,0.3871810965775069 L-0.08322005869126729,0.38561791393672706 L0.0,-0.0" fill="green" fill-opacity="0.6" stroke="black" stroke-width="1" />
<path d="M-0.11427319396972732,-99.6128189034225 L-0.08322005869126729,-99.61438208606327 L0.0,-100.0" fill="purple" fill-opacity="0.6" stroke="black" stroke-width="1" />
<path d="M-100.0,-0.0 L-89.04096773606273,-1.8981802333573592 L-88.0,-0.0" fill="pink" fill-opacity="0.6" stroke="black" stroke-width="1" />
<path d="M-100.0,-0.0 L-89.04096773606273,1.8981802333573592 L-88.0,-0.0" fill="brown" fill-opacity="0.6" stroke="black" stroke-width="1" />
<path d="M-88.0,-0.0 L-86.0271757110838,-2.331698393261725 L-84.6684780046202,-5.473870751588617" fill="yellow" fill-opacity="0.6" stroke="black" stroke-width="1" />
<path d="M-88.0,-0.0 L-86.0271757110838,2.331698393261725 L-84.6684780046202,5.473870751588617" fill="green" fill-opacity="0.6" stroke="black" stroke-width="1" />
<path d="M-86.0271757110838,-2.331698393261725 L-84.6684780046202,-5.473870751588617 L-83.13756740369402,-7.456683795865776" fill="green" fill-opacity="0.6" stroke="black" stroke-width="1" />
<path d="M-86.0271757110838,2.331698393261725 L-84.6684780046202,5.473870751588617 L-83.13756740369402,7.456683795865776" fill="black" fill-opacity="0.6" stroke="black" stroke-width="1" />
<path d="M-84.6684780046202,-5.473870751588617 L-83.13756740369402,-7.456683795865776 L-76.0,-0.0" fill="black" fill-opacity="0.6" stroke="black" stroke-width="1" />
<path d="M-84.6684780046202,5.473870751588617 L-83.13756740369402,7.456683795865776 L-76.0,-0.0" fill="blue" fill-opacity="0.6" stroke="black" stroke-width="1" />
<path d="M-76.0,-0.0 L-75.14411981334216,-8.572339939772498 L-74.09671480924555,-13.448447247845454" fill="yellow" fill-opacity="0.6" stroke="black" stroke-width="1" />
<path d="M-76.0,-0.0 L-75.14411981334216,8.572339939772498 L-74.09671480924555,13.448447247845454" fill="blue" fill-opacity="0.6" stroke="black" stroke-width="1" />
<path d="M-75.14411981334216,-8.572339939772498 L-74.09671480924555,-13.448447247845454 L-73.9083020025664,-15.046856887090755" fill="red" fill-opacity="0.6" stroke="black" stroke-width="1" />
<path d="M-75.14411981334216,8.572339939772498 L-74.09671480924555,13.448447247845454 L-73.9083020025664,15.046856887090755" fill="red" fill-opacity="0.6" stroke="black" stroke-width="1" />
<path d="M-74.09671480924555,-13.448447247845454 L-73.9083020025664,-15.046856887090755 L-72.0,-0.0" fill="pink" fill-opacity="0.6" stroke="black" stroke-width="1" />
<path d="M-74.09671480924555,13.448447247845454 L-73.9083020025664,15.046856887090755 L-72.0,-0.0" fill="blue" fill-opacity="0.6" stroke="black" stroke-width="1" />
<path d="M-60.0,-40.0 L-68.0,-32.0 L-70.0,-30.0" fill="blue" fill-opacity="0.6" stroke="black" stroke-width="1" />
<path d="M-60.0,40.0 L-68.0,32.0 L-70.0,30.0" fill="blue" fill-opacity="0.6" stroke="black" stroke-width="1" />
<path d="M-50.0,-3.0 L-57.710074163384775,-22.691921532336746 L-54.647673725082484,-29.818744298112996" fill="brown" fill-opacity="0.6" stroke="black" stroke-width="1" />
<path d="M-50.0,3.0 L-57.710074163384775,22.691921532336746 L-54.647673725082484,29.818744298112996" fill="black" fill-opacity="0.6" stroke="black" stroke-width="1" />
<path d="M-57.710074163384775,-22.691921532336746 L-54.647673725082484,-29.818744298112996 L-53.80700291149674,-32.06116740871872" fill="black" fill-opacity="0.6" stroke="black" stroke-width="1" />
<path d="M-57.710074163384775,22.691921532336746 L-54.647673725082484,29.818744298112996 L-53.80700291149674,32.06116740871872" fill="green" fill-opacity="0.6" stroke="black" stroke-width="1" />
<path d="M-54.647673725082484,-29.818744298112996 L-53.80700291149674,-32.06116740871872 L-51.733977268550014,-32.66890429088748" fill="black" fill-opacity="0.6" stroke="black" stroke-width="1" />
<path d="M-54.647673725082484,29.818744298112996 L-53.80700291149674,32.06116740871872 L-51.733977268550014,32.66890429088748" fill="red" fill-opacity="0.6" stroke="black" stroke-width="1" />
<path d="M-53.80700291149674,-32.06116740871872 L-51.733977268550014,-32.66890429088748 L-50.0,-42.0" fill="orange" fill-opacity="0.6" stroke="black" stroke-width="1" />
<path d="M-53.80700291149674,32.06116740871872 L-51.733977268550014,32.66890429088748 L-50.0,42.0" fill="pink" fill-opacity="0.6" stroke="black" stroke-width="1" />
<path d="M-50.0,-50.0 L-56.0,-44.0 L-60.0,-40.0" fill="black" fill-opacity="0.6" stroke="black" stroke-width="1" />
<path d="M-50.0,50.0 L-56.0,44.0 L-60.0,40.0" fill="red" fill-opacity="0.6" stroke="black" stroke-width="1" />
<path d="M-56.0,-44.0 L-60.0,-40.0 L-68.0,-32.0" fill="blue" fill-opacity="0.6" stroke="black" stroke-width="1" />
<path d="M-56.0,44.0 L-60.0,40.0 L-68.0,32.0" fill="black" fill-opacity="0.6" stroke="black" stroke-width="1" />
<path d="M-68.0,-32.0 L-70.0,-30.0 L-94.46891326684307,-0.8380579616612038" fill="brown" fill-opacity="0.6" stroke="black" stroke-width="1" />
<path d="M-68.0,32.0 L-70.0,30.0 L-94.46891326684307,0.8380579616612038" fill="yellow" fill-opacity="0.6" stroke="black" stroke-width="1" />
<path d="M-70.0,-30.0 L-94.46891326684307,-0.8380579616612038 L-95.0,-5.0" fill="purple" fill-opacity="0.6" stroke="black" stroke-width="1" />
<path d="M-70.0,30.0 L-94.46891326684307,0.8380579616612038 L-95.0,5.0" fill="brown" fill-opacity="0.6" stroke="black" stroke-width="1" />
<path d="M-94.46891326684307,-0.8380579616612038 L-95.0,-5.0 L-99.6128189034225,-0.11427319396972732" fill="yellow" fill-opacity="0.6" stroke="black" stroke-width="1" />
<path d="M-94.46891326684307,0.8380579616612038 L-95.0,5.0 L-99.6128189034225,0.11427319396972732" fill="orange" fill-opacity="0.6" stroke="black" stroke-width="1" />
<path d="M-95.0,-5.0 L-99.6128189034225,-0.11427319396972732 L-99.61438208606327,-0.08322005869126729" fill="brown" fill-opacity="0.6" stroke="black" stroke-width="1" />
<path d="M-95.0,5.0 L-99.6128189034225,0.11427319396972732 L-99.61438208606327,0.08322005869126729" fill="blue" fill-opacity="0.6" stroke="black" stroke-width="1" />
<path d="M-99.6128189034225,-0.11427319396972732 L-99.61438208606327,-0.08322005869126729 L-100.0,-0.0" fill="yellow" fill-opacity="0.6" stroke="black" stroke-width="1" />
<path d="M-99.6128189034225,0.11427319396972732 L-99.61438208606327,0.08322005869126729 L-100.0,-0.0" fill="blue" fill-opacity="0.6" stroke="black" stroke-width="1" />
</svg>