<?xml version="1.0" encoding="UTF-8"?>
<svg xmlns="http://www.w3.org/2000/svg" xmlns:xlink="http://www.w3.org/1999/xlink"
     width="250" height="250" viewBox="-125.0 -125.0 250 250">
<defs>
</defs>
<path d="M10.0,-0.0 L15.626663026982285,-4.657473196691386 L17.0,-0.0" fill="purple" fill-opacity="0.6" stroke="black" stroke-width="1" />
<path d="M10.0,-0.0 L15.626663026982285,4.657473196691386 L17.0,-0.0" fill="blue" fill-opacity="0.6" stroke="black" stroke-width="1" />
<path d="M17.0,-0.0 L17.39643046308725,-4.851553184351552 L18.410633905857704,-6.137533666204289" fill="purple" fill-opacity="0.6" stroke="black" stroke-width="1" />
<path d="M17.0,-0.0 L17.39643046308725,4.851553184351552 L18.410633905857704,6.137533666204289" fill="green" fill-opacity="0.6" stroke="black" stroke-width="1" />
<path d="M17.39643046308725,-4.851553184351552 L18.410633905857704,-6.137533666204289 L18.884794022836413,-6.366070118249406" fill="blue" fill-opacity="0.6" stroke="black" stroke-width="1" />
<path d="M17.39643046308725,4.851553184351552 L18.410633905857704,6.137533666204289 L18.884794022836413,6.366070118249406" fill="purple" fill-opacity="0.6" stroke="black" stroke-width="1" />
<path d="M18.410633905857704,-6.137533666204289 L18.884794022836413,-6.366070118249406 L22.024328017891666,-9.399161317559386" fill="orange" fill-opacity="0.6" stroke="black" stroke-width="1" />
<path d="M18.410633905857704,6.137533666204289 L18.884794022836413,6.366070118249406 L22.024328017891666,9.399161317559386" fill="red" fill-opacity="0.6" stroke="black" stroke-width="1" />
<path d="M18.884794022836413,-6.366070118249406 L22.024328017891666,-9.399161317559386 L22.867474338330304,-10.883722047608615" fill="black" fill-opacity="0.6" stroke="black" stroke-width="1" />
<path d="M18.884794022836413,6.366070118249406 L22.024328017891666,9.399161317559386 L22.867474338330304,10.883722047608615" fill="black" fill-opacity="0.6" stroke="black" stroke-width="1" />
<path d="M22.024328017891666,-9.399161317559386 L22.867474338330304,-10.883722047608615 L25.593666244173907,-15.251089298896877" fill="purple" fill-opacity="0.6" stroke="black" stroke-width="1" />
<path d="M22.024328017891666,9.399161317559386 L22.867474338330304,10.883722047608615 L25.593666244173907,15.251089298896877" fill="purple" fill-opacity="0.6" stroke="black" stroke-width="1" />
<path d="M22.867474338330304,-10.883722047608615 L25.593666244173907,-15.251089298896877 L27.0,-0.0" fill="purple" fill-opacity="0.6" stroke="black" stroke-width="1" />
<path d="M22.867474338330304,10.883722047608615 L25.593666244173907,15.251089298896877 L27.0,-0.0" fill="orange" fill-opacity="0.6" stroke="black" stroke-width="1" />
<path d="M50.0,-12.0 L36.41316635468579,-20.602578617677874 L50.0,-23.0" fill="pink" fill-opacity="0.6" stroke="black" stroke-width="1" />
<path d="M50.0,12.0 L36.41316635468579,20.602578617677874 L50.0,23.0" fill="black" fill-opacity="0.6" stroke="black" stroke-width="1" />
<path d="M50.0,-23.0 L42.17188463276144,-24.363160928382232 L42.83337669264999,-30.176567692312666" fill="pink" fill-opacity="0.6" stroke="black" stroke-width="1" />
<path d="M50.0,23.0 L42.17188463276144,24.363160928382232 L42.83337669264999,30.176567692312666" fill="brown" fill-opacity="0.6" stroke="black" stroke-width="1" />
<path d="M42.17188463276144,-24.363160928382232 L42.83337669264999,-30.176567692312666 L50.0,-32.0" fill="red" fill-opacity="0.6" stroke="black" stroke-width="1" />
<path d="M42.17188463276144,24.363160928382232 L42.83337669264999,30.176567692312666 L50.0,32.0" fill="red" fill-opacity="0.6" stroke="black" stroke-width="1" />
<path d="M50.0,-33.0 L46.10882130507238,-36.995334104206954 L50.0,-38.0" fill="green" fill-opacity="0.6" stroke="black" stroke-width="1" />
<path d="M50.0,33.0 L46.10882130507238,36.995334104206954 L50.0,38.0" fill="blue" fill-opacity="0.6" stroke="black" stroke-width="1" />
<path d="M50.0,50.0 L44.0,56.0 L39.0,61.0" fill="purple" fill-opacity="0.6" stroke="black" stroke-width="1" />
<path d="M50.0,-50.0 L44.0,-56.0 L39.0,-61.0" fill="red" fill-opacity="0.6" stroke="black" stroke-width="1" />
<path d="M44.0,56.0 L39.0,61.0 L19.0,81.0" fill="pink" fill-opacity="0.6" stroke="black" stroke-width="1" />
<path d="M44.0,-56.0 L39.0,-61.0 L19.0,-81.0" fill="pink" fill-opacity="0.6" stroke="black" stroke-width="1" />
<path d="M39.0,61.0 L19.0,81.0 L14.0,86.0" fill="red" fill-opacity="0.6" stroke="black" stroke-width="1" />
<path d="M39.0,-61.0 L19.0,-81.0 L14.0,-86.0" fill="red" fill-opacity="0.6" stroke="black" stroke-width="1" />
<path d="M19.0,81.0 L14.0,86.0 L12.0,88.0" fill="blue" fill-opacity="0.6" stroke="black" stroke-width="1" />
<path d="M19.0,-81.0 L14.0,-86.0 L12.0,-88.0" fill="blue" fill-opacity="0.6" stroke="black" stroke-width="1" />
<path d="M14.0,86.0 L12.0,88.0 L3.4659784493693335,90.42917082197945" fill="green" fill-opacity="0.6" stroke="black" stroke-width="1" />
<path d="M14.0,-86.0 L12.0,-88.0 L3.4659784493693335,-90.42917082197945" fill="black" fill-opacity="0.6" stroke="black" stroke-width="1" />
<path d="M12.0,-12.0 L9.570829178020546,-3.4659784493693335 L7.965283300352477,-1.1699866885927401" fill="blue" fill-opacity="0.6" stroke="black" stroke-width="1" />
<path d="M12.0,12.0 L9.570829178020546,3.4659784493693335 L7.965283300352477,1.1699866885927401" fill="blue" fill-opacity="0.6" stroke="black" stroke-width="1" />
<path d="M9.570829178020546,-3.4659784493693335 L7.965283300352477,-1.1699866885927401 L4.0,-4.0" fill="green" fill-opacity="0.6" stroke="black" stroke-width="1" />
<path d="M9.570829178020546,3.4659784493693335 L7.965283300352477,1.1699866885927401 L4.0,4.0" fill="orange" fill-opacity="0.6" stroke="black" stroke-width="1" />
<path d="M1.1699866885927401,92.03471669964753 L4.0,96.0 L0.8198583351470751,98.07138654206156" fill="pink" fill-opacity="0.6" stroke="black" stroke-width="1" />
<path d="M1.1699866885927401,-92.03471669964753 L4.0,-96.0 L0.8198583351470751,-98.07138654206156" fill="brown" fill-opacity="0.6" stroke="black" stroke-width="1" />
<path d="M4.0,-4.0 L1.9286134579384382,-0.8198583351470751 L0.0,-0.0" fill="green" fill-opacity="0.6" stroke="black" stroke-width="1" />
<path d="M4.0,4.0 L1.9286134579384382,0.8198583351470751 L0.0,-0.0" fill="yellow" fill-opacity="0.6" stroke="black" stroke-width="1" />
<path d="M-10.0,-0.0 L-15.626663026982285,-4.657473196691386 L-17.0,-0.0" fill="black" fill-opacity="0.6" stroke="black" stroke-width="1" />
<path d="M-10.0,-0.0 L-15.626663026982285,4.657473196691386 L-17.0,-0.0" fill="orange" fill-opacity="0.6" stroke="black" stroke-width="1" />
<path d="M-17.0,-0.0 L-17.39643046308725,-4.851553184351552 L-18.410633905857704,-6.137533666204289" fill="purple" fill-opacity="0.6" stroke="black" stroke-width="1" />
<path d="M-17.0,-0.0 L-17.39643046308725,4.851553184351552 L-18.410633905857704,6.137533666204289" fill="pink" fill-opacity="0.6" stroke="black" stroke-width="1" />
<path d="M-17.39643046308725,-4.851553184351552 L-18.410633905857704,-6.137533666204289 L-18.884794022836413,-6.366070118249406" fill="green" fill-opacity="0.6" stroke="black" stroke-width="1" />
<path d="M-17.39643046308725,4.851553184351552 L-18.410633905857704,6.137533666204289 L-18.884794022836413,6.366070118249406" fill="blue" fill-opacity="0.6" stroke="black" stroke-width="1" />
<path d="M-18.410633905857704,-6.137533666204289 L-18.884794022836413,-6.366070118249406 L-22.024328017891666,-9.399161317559386" fill="red" fill-opacity="0.6" stroke="black" stroke-width="1" />
<path d="M-18.410633905857704,6.137533666204289 L-18.884794022836413,6.366070118249406 L-22.024328017891666,9.399161317559386" fill="black" fill-opacity="0.6" stroke="black" stroke-width="1" />
<path d="M-18.884794022836413,-6.366070118249406 L-22.024328017891666,-9.399161317559386 L-22.867474338330304,-10.883722047608615" fill="purple" fill-opacity="0.6" stroke="black" stroke-width="1" />
<path d="M-18.884794022836413,6.366070118249406 L-22.024328017891666,9.399161317559386 L-22.867474338330304,10.883722047608615" fill="yellow" fill-opacity="0.6" stroke="black" stroke-width="1" />
<path d="M-22.024328017891666,-9.399161317559386 L-22.867474338330304,-10.883722047608615 L-25.593666244173907,-15.251089298896877" fill="black" fill-opacity="0.6" stroke="black" stroke-width="1" />
<path d="M-22.024328017891666,9.399161317559386 L-22.867474338330304,10.883722047608615 L-25.593666244173907,15.251089298896877" fill="yellow" fill-opacity="0.6" stroke="black" stroke-width="1" />
<path d="M-22.867474338330304,-10.883722047608615 L-25.593666244173907,-15.251089298896877 L-27.0,-0.0" fill="pink" fill-opacity="0.6" stroke="black" stroke-width="1" />
<path d="M-22.867474338330304,10.883722047608615 L-25.593666244173907,15.251089298896877 L-27.0,-0.0" fill="green" fill-opacity="0.6" stroke="black" stroke-width="1" />
<path d="M-50.0,-12.0 L-36.41316635468579,-20.602578617677874 L-50.0,-23.0" fill="yellow" fill-opacity="0.6" stroke="black" stroke-width="1" />
<path d="M-50.0,12.0 L-36.41316635468579,20.602578617677874 L-50.0,23.0" fill="black" fill-opacity="0.6" stroke="black" stroke-width="1" />
<path d="M-50.0,-23.0 L-42.17188463276144,-24.363160928382232 L-42.83337669264999,-30.176567692312666" fill="black" fill-opacity="0.6" stroke="black" stroke-width="1" />
<path d="M-50.0,23.0 L-42.17188463276144,24.363160928382232 L-42.83337669264999,30.176567692312666" fill="pink" fill-opacity="0.6" stroke="black" stroke-width="1" />
<path d="M-42.17188463276144,-24.363160928382232 L-42.83337669264999,-30.176567692312666 L-50.0,-32.0" fill="purple" fill-opacity="0.6" stroke="black" stroke-width="1" />
<path d="M-42.17188463276144,24.363160928382232 L-42.83337669264999,30.176567692312666 L-50.0,32.0" fill="blue" fill-opacity="0.6" stroke="black" stroke-width="1" />
<path d="M-50.0,-33.0 L-46.10882130507238,-36.995334104206954 L-50.0,-38.0" fill="purple" fill-opacity="0.6" stroke="black" stroke-width="1" />
<path d="M-50.0,33.0 L-46.10882130507238,36.995334104206954 L-50.0,38.0" fill="yellow" fill-opacity="0.6" stroke="black" stroke-width="1" />
<path d="M-50.0,50.0 L-44.0,56.0 L-39.0,61.0" fill="orange" fill-opacity="0.6" stroke="black" stroke-width="1" />
<path d="M-50.0,-50.0 L-44.0,-56.0 L-39.0,-61.0" fill="red" fill-opacity="0.6" stroke="black" stroke-width="1" />
<path d="M-44.0,56.0 L-39.0,61.0 L-19.0,81.0" fill="orange" fill-opacity="0.6" stroke="black" stroke-width="1" />
<path d="M-44.0,-56.0 L-39.0,-61.0 L-19.0,-81.0" fill="yellow" fill-opacity="0.6" stroke="black" stroke-width="1" />
<path d="M-39.0,61.0 L-19.0,81.0 L-14.0,86.0" fill="yellow" fill-opacity="0.6" stroke="black" stroke-width="1" />
<path d="M-39.0,-61.0 L-19.0,-81.0 L-14.0,-86.0" fill="black" fill-opacity="0.6" stroke="black" stroke-width="1" />
<path d="M-19.0,81.0 L-14.0,86.0 L-12.0,88.0" fill="black" fill-opacity="0.6" stroke="black" stroke-width="1" />
<path d="M-19.0,-81.0 L-14.0,-86.0 L-12.0,-88.0" fill="black" fill-opacity="0.6" stroke="black" stroke-width="1" />
<path d="M-14.0,86.0 L-12.0,88.0 L-3.4659784493693335,90.42917082197945" fill="blue" fill-opacity="0.6" stroke="black" stroke-width="1" />
<path d="M-14.0,-86.0 L-12.0,-88.0 L-3.4659784493693335,-90.42917082197945" fill="red" fill-opacity="0.6" stroke="black" stroke-width="1" />
<path d="M-12.0,-12.0 L-9.570829178020546,-3.4659784493693335 L-7.965283300352477,-1.1699866885927401" fill="black" fill-opacity="0.6" stroke="black" stroke-width="1" />
<path d="M-12.0,12.0 L-9.570829178020546,3.4659784493693335 L-7.965283300352477,1.1699866885927401" fill="black" fill-opacity="0.6" stroke="black" stroke-width="1" />
<path d="M-9.570829178020546,-3.4659784493693335 L-7.965283300352477,-1.1699866885927401 L-4.0,-4.0" fill="black" fill-opacity="0.6" stroke="black" stroke-width="1" />
<path d="M-9.570829178020546,3.4659784493693335 L-7.965283300352477,1.1699866885927401 L-4.0,4.0" fill="yellow" fill-opacity="0.6" stroke="black" stroke-width="1" />
<path d="M-1.1699866885927401,92.03471669964752 L-4.0,96.0 L-0.8198583351470751,98.07138654206156" fill="red" fill-opacity="0.6" stroke="black" stroke-width="1" />
<path d="M-1.1699866885927401,-92.03471669964753 L-4.0,-96.0 L-0.8198583351470751,-98.07138654206156" fill="black" fill-opacity="0.6" stroke="black" stroke-width="1" />
<path d="M-4.0,-4.0 L-1.9286134579384382,-0.8198583351470751 L0.0,-0.0" fill="yellow" fill-opacity="0.6" stroke="black" stroke-width="1" />
<path d="M-4.0,4.0 L-1.9286134579384382,0.8198583351470751 L0.0,-0.0" fill="yellow" fill-opacity="0.6" stroke="black" stroke-width="1" />
<path d="M90.0,-0.0 L84.37333697301771,4.657473196691386 L83.0,-0.0" fill="blue" fill-opacity="0.6" stroke="black" stroke-width="1" />
<path d="M90.0,-0.0 L84.37333697301771,-4.657473196691386 L83.0,-0.0" fill="purple" fill-opacity="0.6" stroke="black" stroke-width="1" />
<path d="M83.0,-0.0 L82.60356953691274,4.851553184351552 L81.58936609414229,6.137533666204289" fill="green" fill-opacity="0.6" stroke="black" stroke-width="1" />
<path d="M83.0,-0.0 L82.60356953691274,-4.851553184351552 L81.58936609414229,-6.137533666204289" fill="pink" fill-opacity="0.6" stroke="black" stroke-width="1" />
<path d="M82.60356953691274,4.851553184351552 L81.58936609414229,6.137533666204289 L81.11520597716358,6.366070118249406" fill="brown" fill-opacity="0.6" stroke="black" stroke-width="1" />
<path d="M82.60356953691274,-4.851553184351552 L81.58936609414229,-6.137533666204289 L81.11520597716358,-6.366070118249406" fill="brown" fill-opacity="0.6" stroke="black" stroke-width="1" />
<path d="M81.58936609414229,6.137533666204289 L81.11520597716358,6.366070118249406 L77.97567198210834,9.399161317559386" fill="purple" fill-opacity="0.6" stroke="black" stroke-width="1" />
<path d="M81.58936609414229,-6.137533666204289 L81.11520597716358,-6.366070118249406 L77.97567198210834,-9.399161317559386" fill="black" fill-opacity="0.6" stroke="black" stroke-width="1" />
<path d="M81.11520597716358,6.366070118249406 L77.97567198210834,9.399161317559386 L77.13252566166969,10.883722047608615" fill="black" fill-opacity="0.6" stroke="black" stroke-width="1" />
<path d="M81.11520597716358,-6.366070118249406 L77.97567198210834,-9.399161317559386 L77.13252566166969,-10.883722047608615" fill="green" fill-opacity="0.6" stroke="black" stroke-width="1" />
<path d="M77.97567198210834,9.399161317559386 L77.13252566166969,10.883722047608615 L74.4063337558261,15.251089298896877" fill="pink" fill-opacity="0.6" stroke="black" stroke-width="1" />
<path d="M77.97567198210834,-9.399161317559386 L77.13252566166969,-10.883722047608615 L74.4063337558261,-15.251089298896877" fill="blue" fill-opacity="0.6" stroke="black" stroke-width="1" />
<path d="M77.13252566166969,10.883722047608615 L74.4063337558261,15.251089298896877 L73.0,-0.0" fill="purple" fill-opacity="0.6" stroke="black" stroke-width="1" />
<path d="M77.13252566166969,-10.883722047608615 L74.4063337558261,-15.251089298896877 L73.0,-0.0" fill="purple" fill-opacity="0.6" stroke="black" stroke-width="1" />
<path d="M50.0,12.0 L63.58683364531421,20.602578617677874 L50.0,23.0" fill="brown" fill-opacity="0.6" stroke="black" stroke-width="1" />
<path d="M50.0,-12.0 L63.58683364531421,-20.602578617677874 L50.0,-23.0" fill="black" fill-opacity="0.6" stroke="black" stroke-width="1" />
<path d="M50.0,23.0 L57.82811536723856,24.363160928382232 L57.16662330735001,30.176567692312666" fill="red" fill-opacity="0.6" stroke="black" stroke-width="1" />
<path d="M50.0,-23.0 L57.82811536723856,-24.363160928382232 L57.16662330735001,-30.176567692312666" fill="blue" fill-opacity="0.6" stroke="black" stroke-width="1" />
<path d="M57.82811536723856,24.363160928382232 L57.16662330735001,30.176567692312666 L50.0,32.0" fill="green" fill-opacity="0.6" stroke="black" stroke-width="1" />
<path d="M57.82811536723856,-24.363160928382232 L57.16662330735001,-30.176567692312666 L50.0,-32.0" fill="blue" fill-opacity="0.6" stroke="black" stroke-width="1" />
<path d="M50.0,33.0 L53.89117869492762,36.995334104206954 L50.0,38.0" fill="purple" fill-opacity="0.6" stroke="black" stroke-width="1" />
<path d="M50.0,-33.0 L53.89117869492762,-36.995334104206954 L50.0,-38.0" fill="black" fill-opacity="0.6" stroke="black" stroke-width="1" />
<path d="M50.0,50.0 L56.0,44.0 L61.0,39.0" fill="red" fill-opacity="0.6" stroke="black" stroke-width="1" />
<path d="M50.0,-50.0 L56.0,-44.0 L61.0,-39.0" fill="blue" fill-opacity="0.6" stroke="black" stroke-width="1" />
<path d="M56.0,44.0 L61.0,39.0 L81.0,19.0" fill="blue" fill-opacity="0.6" stroke="black" stroke-width="1" />
<path d="M56.0,-44.0 L61.0,-39.0 L81.0,-19.0" fill="brown" fill-opacity="0.6" stroke="black" stroke-width="1" />
<path d="M61.0,39.0 L81.0,19.0 L86.0,14.0" fill="purple" fill-opacity="0.6" stroke="black" stroke-width="1" />
<path d="M61.0,-39.0 L81.0,-19.0 L86.0,-14.0" fill="yellow" fill-opacity="0.6" stroke="black" stroke-width="1" />
<path d="M81.0,19.0 L86.0,14.0 L88.0,12.0" fill="orange" fill-opacity="0.6" stroke="black" stroke-width="1" />
<path d="M81.0,-19.0 L86.0,-14.0 L88.0,-12.0" fill="red" fill-opacity="0.6" stroke="black" stroke-width="1" />
<path d="M86.0,14.0 L88.0,12.0 L90.42917082197945,3.4659784493693335" fill="black" fill-opacity="0.6" stroke="black" stroke-width="1" />
<path d="M86.0,-14.0 L88.0,-12.0 L90.42917082197945,-3.4659784493693335" fill="brown" fill-opacity="0.6" stroke="black" stroke-width="1" />
<path d="M88.0,12.0 L90.42917082197945,3.4659784493693335 L92.03471669964753,1.1699866885927401" fill="pink" fill-opacity="0.6" stroke="black" stroke-width="1" />
<path d="M88.0,-12.0 L90.42917082197945,-3.4659784493693335 L92.03471669964753,-1.1699866885927401" fill="green" fill-opacity="0.6" stroke="black" stroke-width="1" />
<path d="M90.42917082197945,3.4659784493693335 L92.03471669964753,1.1699866885927401 L96.0,4.0" fill="yellow" fill-opacity="0.6" stroke="black" stroke-width="1" />
<path d="M90.42917082197945,-3.4659784493693335 L92.03471669964753,-1.1699866885927401 L96.0,-4.0" fill="orange" fill-opacity="0.6" stroke="black" stroke-width="1" />
<path d="M92.03471669964753,1.1699866885927401 L96.0,4.0 L98.07138654206156,0.8198583351470751" fill="yellow" fill-opacity="0.6" stroke="black" stroke-width="1" />
<path d="M92.03471669964753,-1.1699866885927401 L96.0,-4.0 L98.07138654206156,-0.8198583351470751" fill="red" fill-opacity="0.6" stroke="black" stroke-width="1" />
<path d="M96.0,4.0 L98.07138654206156,0.8198583351470751 L100.0,-0.0" fill="brown" fill-opacity="0.6" stroke="black" stroke-width="1" />
<path d="M96.0,-4.0 L98.07138654206156,-0.8198583351470751 L100.0,-0.0" fill="pink" fill-opacity="0.6" stroke="black" stroke-width="1" />
<path d="M0.0,-10.0 L4.657473196691386,-15.626663026982285 L0.0,-17.0" fill="green" fill-opacity="0.6" stroke="black" stroke-width="1" />
<path d="M0.0,10.0 L4.657473196691386,15.626663026982285 L0.0,17.0" fill="brown" fill-opacity="0.6" stroke="black" stroke-width="1" />
<path d="M0.0,90.0 L4.657473196691386,84.37333697301771 L0.0,83.0" fill="red" fill-opacity="0.6" stroke="black" stroke-width="1" />
<path d="M0.0,-90.0 L4.657473196691386,-84.37333697301771 L0.0,-83.0" fill="pink" fill-opacity="0.6" stroke="black" stroke-width="1" />
<path d="M0.0,-17.0 L4.851553184351552,-17.39643046308725 L6.137533666204289,-18.410633905857704" fill="pink" fill-opacity="0.6" stroke="black" stroke-width="1" />
<path d="M0.0,17.0 L4.851553184351552,17.39643046308725 L6.137533666204289,18.410633905857704" fill="green" fill-opacity="0.6" stroke="black" stroke-width="1" />
<path d="M0.0,83.0 L4.851553184351552,82.60356953691274 L6.137533666204289,81.58936609414229" fill="red" fill-opacity="0.6" stroke="black" stroke-width="1" />
<path d="M0.0,-83.0 L4.851553184351552,-82.60356953691274 L6.137533666204289,-81.58936609414229" fill="red" fill-opacity="0.6" stroke="black" stroke-width="1" />
<path d="M4.851553184351552,-17.39643046308725 L6.137533666204289,-18.410633905857704 L6.366070118249406,-18.884794022836413" fill="orange" fill-opacity="0.6" stroke="black" stroke-width="1" />
<path d="M4.851553184351552,17.39643046308725 L6.137533666204289,18.410633905857704 L6.366070118249406,18.884794022836413" fill="orange" fill-opacity="0.6" stroke="black" stroke-width="1" />
<path d="M4.851553184351552,82.60356953691274 L6.137533666204289,81.58936609414229 L6.366070118249406,81.11520597716358" fill="pink" fill-opacity="0.6" stroke="black" stroke-width="1" />
<path d="M4.851553184351552,-82.60356953691274 L6.137533666204289,-81.58936609414229 L6.366070118249406,-81.11520597716358" fill="blue" fill-opacity="0.6" stroke="black" stroke-width="1" />
<path d="M6.137533666204289,-18.410633905857704 L6.366070118249406,-18.884794022836413 L9.399161317559386,-22.024328017891666" fill="black" fill-opacity="0.6" stroke="black" stroke-width="1" />
<path d="M6.137533666204289,18.410633905857704 L6.366070118249406,18.884794022836413 L9.399161317559386,22.024328017891666" fill="blue" fill-opacity="0.6" stroke="black" stroke-width="1" />
<path d="M6.137533666204289,81.58936609414229 L6.366070118249406,81.11520597716358 L9.399161317559386,77.97567198210834" fill="yellow" fill-opacity="0.6" stroke="black" stroke-width="1" />
<path d="M6.137533666204289,-81.58936609414229 L6.366070118249406,-81.11520597716358 L9.399161317559386,-77.97567198210834" fill="green" fill-opacity="0.6" stroke="black" stroke-width="1" />
<path d="M6.366070118249406,-18.884794022836413 L9.399161317559386,-22.024328017891666 L10.883722047608615,-22.867474338330304" fill="green" fill-opacity="0.6" stroke="black" stroke-width="1" />
<path d="M6.366070118249406,18.884794022836413 L9.399161317559386,22.024328017891666 L10.883722047608615,22.867474338330304" fill="yellow" fill-opacity="0.6" stroke="black" stroke-width="1" />
<path d="M6.366070118249406,81.11520597716358 L9.399161317559386,77.97567198210834 L10.883722047608615,77.13252566166969" fill="green" fill-opacity="0.6" stroke="black" stroke-width="1" />
<path d="M6.366070118249406,-81.11520597716358 L9.399161317559386,-77.97567198210834 L10.883722047608615,-77.13252566166969" fill="blue" fill-opacity="0.6" stroke="black" stroke-width="1" />
<path d="M9.399161317559386,-22.024328017891666 L10.883722047608615,-22.867474338330304 L15.251089298896877,-25.593666244173907" fill="yellow" fill-opacity="0.6" stroke="black" stroke-width="1" />
<path d="M9.399161317559386,22.024328017891666 L10.883722047608615,22.867474338330304 L15.251089298896877,25.593666244173907" fill="brown" fill-opacity="0.6" stroke="black" stroke-width="1" />
<path d="M9.399161317559386,77.97567198210834 L10.883722047608615,77.13252566166969 L15.251089298896877,74.4063337558261" fill="yellow" fill-opacity="0.6" stroke="black" stroke-width="1" />
<path d="M9.399161317559386,-77.97567198210834 L10.883722047608615,-77.13252566166969 L15.251089298896877,-74.4063337558261" fill="purple" fill-opacity="0.6" stroke="black" stroke-width="1" />
<path d="M10.883722047608615,-22.867474338330304 L15.251089298896877,-25.593666244173907 L0.0,-27.0" fill="purple" fill-opacity="0.6" stroke="black" stroke-width="1" />
<path d="M10.883722047608615,22.867474338330304 L15.251089298896877,25.593666244173907 L0.0,27.0" fill="red" fill-opacity="0.6" stroke="black" stroke-width="1" />
<path d="M10.883722047608615,77.13252566166969 L15.251089298896877,74.4063337558261 L0.0,73.0" fill="brown" fill-opacity="0.6" stroke="black" stroke-width="1" />
<path d="M10.883722047608615,-77.13252566166969 L15.251089298896877,-74.4063337558261 L0.0,-73.0" fill="pink" fill-opacity="0.6" stroke="black" stroke-width="1" />
<path d="M12.0,-50.0 L20.602578617677874,-36.41316635468579 L23.0,-50.0" fill="green" fill-opacity="0.6" stroke="black" stroke-width="1" />
<path d="M12.0,50.0 L20.602578617677874,36.41316635468579 L23.0,50.0" fill="brown" fill-opacity="0.6" stroke="black" stroke-width="1" />
<path d="M12.0,50.0 L20.602578617677874,63.58683364531421 L23.0,50.0" fill="green" fill-opacity="0.6" stroke="black" stroke-width="1" />
<path d="M12.0,-50.0 L20.602578617677874,-63.58683364531421 L23.0,-50.0" fill="red" fill-opacity="0.6" stroke="black" stroke-width="1" />
<path d="M23.0,-50.0 L24.363160928382232,-42.17188463276144 L30.176567692312666,-42.83337669264999" fill="brown" fill-opacity="0.6" stroke="black" stroke-width="1" />
<path d="M23.0,50.0 L24.363160928382232,42.17188463276144 L30.176567692312666,42.83337669264999" fill="yellow" fill-opacity="0.6" stroke="black" stroke-width="1" />
<path d="M23.0,50.0 L24.363160928382232,57.82811536723856 L30.176567692312666,57.16662330735001" fill="yellow" fill-opacity="0.6" stroke="black" stroke-width="1" />
<path d="M23.0,-50.0 L24.363160928382232,-57.82811536723856 L30.176567692312666,-57.16662330735001" fill="green" fill-opacity="0.6" stroke="black" stroke-width="1" />
<path d="M24.363160928382232,-42.17188463276144 L30.176567692312666,-42.83337669264999 L32.0,-50.0" fill="yellow" fill-opacity="0.6" stroke="black" stroke-width="1" />
<path d="M24.363160928382232,42.17188463276144 L30.176567692312666,42.83337669264999 L32.0,50.0" fill="purple" fill-opacity="0.6" stroke="black" stroke-width="1" />
<path d="M24.363160928382232,57.82811536723856 L30.176567692312666,57.16662330735001 L32.0,50.0" fill="purple" fill-opacity="0.6" stroke="black" stroke-width="1" />
<path d="M24.363160928382232,-57.82811536723856 L30.176567692312666,-57.16662330735001 L32.0,-50.0" fill="orange" fill-opacity="0.6" stroke="black" stroke-width="1" />
<path d="M33.0,-50.0 L36.995334104206954,-46.10882130507238 L38.0,-50.0" fill="blue" fill-opacity="0.6" stroke="black" stroke-width="1" />
<path d="M33.0,50.0 L36.995334104206954,46.10882130507238 L38.0,50.0" fill="black" fill-opacity="0.6" stroke="black" stroke-width="1" />
<path d="M33.0,50.0 L36.995334104206954,53.89117869492762 L38.0,50.0" fill="brown" fill-opacity="0.6" stroke="black" stroke-width="1" />
<path d="M33.0,-50.0 L36.995334104206954,-53.89117869492762 L38.0,-50.0" fill="purple" fill-opacity="0.6" stroke="black" stroke-width="1" />
<path d="M12.0,-12.0 L3.4659784493693335,-9.570829178020546 L1.1699866885927401,-7.965283300352477" fill="pink" fill-opacity="0.6" stroke="black" stroke-width="1" />
<path d="M12.0,12.0 L3.4659784493693335,9.570829178020546 L1.1699866885927401,7.965283300352477" fill="blue" fill-opacity="0.6" stroke="black" stroke-width="1" />
<path d="M12.0,88.0 L3.4659784493693335,90.42917082197945 L1.1699866885927401,92.03471669964753" fill="brown" fill-opacity="0.6" stroke="black" stroke-width="1" />
<path d="M12.0,-88.0 L3.4659784493693335,-90.42917082197945 L1.1699866885927401,-92.03471669964753" fill="purple" fill-opacity="0.6" stroke="black" stroke-width="1" />
<path d="M3.4659784493693335,-9.570829178020546 L1.1699866885927401,-7.965283300352477 L4.0,-4.0" fill="brown" fill-opacity="0.6" stroke="black" stroke-width="1" />
<path d="M3.4659784493693335,9.570829178020546 L1.1699866885927401,7.965283300352477 L4.0,4.0" fill="orange" fill-opacity="0.6" stroke="black" stroke-width="1" />
<path d="M3.4659784493693335,90.42917082197945 L1.1699866885927401,92.03471669964753 L4.0,96.0" fill="yellow" fill-opacity="0.6" stroke="black" stroke-width="1" />
<path d="M3.4659784493693335,-90.42917082197945 L1.1699866885927401,-92.03471669964753 L4.0,-96.0" fill="blue" fill-opacity="0.6" stroke="black" stroke-width="1" />
<path d="M4.0,-4.0 L0.8198583351470751,-1.9286134579384382 L0.0,-0.0" fill="green" fill-opacity="0.6" stroke="black" stroke-width="1" />
<path d="M4.0,4.0 L0.8198583351470751,1.9286134579384382 L0.0,-0.0" fill="purple" fill-opacity="0.6" stroke="black" stroke-width="1" />
<path d="M4.0,96.0 L0.8198583351470751,98.07138654206156 L0.0,100.0" fill="blue" fill-opacity="0.6" stroke="black" stroke-width="1" />
<path d="M4.0,-96.0 L0.8198583351470751,-98.07138654206156 L0.0,-100.0" fill="pink" fill-opacity="0.6" stroke="black" stroke-width="1" />
<path d="M0.0,90.0 L-4.657473196691386,84.37333697301771 L0.0,83.0" fill="yellow" fill-opacity="0.6" stroke="black" stroke-width="1" />
<path d="M0.0,-10.0 L-4.657473196691386,-15.626663026982285 L0.0,-17.0" fill="blue" fill-opacity="0.6" stroke="black" stroke-width="1" />
<path d="M0.0,10.0 L-4.657473196691386,15.626663026982285 L0.0,17.0" fill="pink" fill-opacity="0.6" stroke="black" stroke-width="1" />
<path d="M0.0,-90.0 L-4.657473196691386,-84.37333697301771 L0.0,-83.0" fill="black" fill-opacity="0.6" stroke="black" stroke-width="1" />
<path d="M0.0,83.0 L-4.851553184351552,82.60356953691274 L-6.137533666204289,81.58936609414229" fill="black" fill-opacity="0.6" stroke="black" stroke-width="1" />
<path d="M0.0,-17.0 L-4.851553184351552,-17.39643046308725 L-6.137533666204289,-18.410633905857704" fill="pink" fill-opacity="0.6" stroke="black" stroke-width="1" />
<path d="M0.0,17.0 L-4.851553184351552,17.396430463087256 L-6.137533666204289,18.410633905857708" fill="blue" fill-opacity="0.6" stroke="black" stroke-width="1" />
<path d="M0.0,-83.0 L-4.851553184351552,-82.60356953691274 L-6.137533666204289,-81.58936609414229" fill="brown" fill-opacity="0.6" stroke="black" stroke-width="1" />
<path d="M-4.851553184351552,82.60356953691274 L-6.137533666204289,81.58936609414229 L-6.366070118249406,81.11520597716358" fill="red" fill-opacity="0.6" stroke="black" stroke-width="1" />
<path d="M-4.851553184351552,-17.39643046308725 L-6.137533666204289,-18.410633905857704 L-6.366070118249406,-18.884794022836413" fill="red" fill-opacity="0.6" stroke="black" stroke-width="1" />
<path d="M-4.851553184351552,17.396430463087256 L-6.137533666204289,18.410633905857708 L-6.366070118249406,18.884794022836417" fill="purple" fill-opacity="0.6" stroke="black" stroke-width="1" />
<path d="M-4.851553184351552,-82.60356953691274 L-6.137533666204289,-81.58936609414229 L-6.366070118249406,-81.11520597716358" fill="brown" fill-opacity="0.6" stroke="black" stroke-width="1" />
<path d="M-6.137533666204289,81.58936609414229 L-6.366070118249406,81.11520597716358 L-9.399161317559386,77.97567198210834" fill="red" fill-opacity="0.6" stroke="black" stroke-width="1" />
<path d="M-6.137533666204289,-18.410633905857704 L-6.366070118249406,-18.884794022836413 L-9.399161317559386,-22.024328017891666" fill="yellow" fill-opacity="0.6" stroke="black" stroke-width="1" />
<path d="M-6.137533666204289,18.410633905857708 L-6.366070118249406,18.884794022836417 L-9.399161317559386,22.024328017891662" fill="pink" fill-opacity="0.6" stroke="black" stroke-width="1" />
<path d="M-6.137533666204289,-81.58936609414229 L-6.366070118249406,-81.11520597716358 L-9.399161317559386,-77.97567198210834" fill="yellow" fill-opacity="0.6" stroke="black" stroke-width="1" />
<path d="M-6.366070118249406,81.11520597716358 L-9.399161317559386,77.97567198210834 L-10.883722047608615,77.13252566166969" fill="orange" fill-opacity="0.6" stroke="black" stroke-width="1" />
<path d="M-6.366070118249406,-18.884794022836413 L-9.399161317559386,-22.024328017891666 L-10.883722047608615,-22.867474338330304" fill="brown" fill-opacity="0.6" stroke="black" stroke-width="1" />
<path d="M-6.366070118249406,18.884794022836417 L-9.399161317559386,22.024328017891662 L-10.883722047608615,22.86747433833031" fill="brown" fill-opacity="0.6" stroke="black" stroke-width="1" />
<path d="M-6.366070118249406,-81.11520597716358 L-9.399161317559386,-77.97567198210834 L-10.883722047608615,-77.13252566166969" fill="green" fill-opacity="0.6" stroke="black" stroke-width="1" />
<path d="M-9.399161317559386,77.97567198210834 L-10.883722047608615,77.13252566166969 L-15.251089298896877,74.4063337558261" fill="brown" fill-opacity="0.6" stroke="black" stroke-width="1" />
<path d="M-9.399161317559386,-22.024328017891666 L-10.883722047608615,-22.867474338330304 L-15.251089298896877,-25.593666244173907" fill="red" fill-opacity="0.6" stroke="black" stroke-width="1" />
<path d="M-9.399161317559386,22.024328017891662 L-10.883722047608615,22.86747433833031 L-15.251089298896877,25.593666244173903" fill="black" fill-opacity="0.6" stroke="black" stroke-width="1" />
<path d="M-9.399161317559386,-77.97567198210834 L-10.883722047608615,-77.13252566166969 L-15.251089298896877,-74.4063337558261" fill="black" fill-opacity="0.6" stroke="black" stroke-width="1" />
<path d="M-10.883722047608615,77.13252566166969 L-15.251089298896877,74.4063337558261 L0.0,73.0" fill="blue" fill-opacity="0.6" stroke="black" stroke-width="1" />
<path d="M-10.883722047608615,-22.867474338330304 L-15.251089298896877,-25.593666244173907 L0.0,-27.0" fill="pink" fill-opacity="0.6" stroke="black" stroke-width="1" />
<path d="M-10.883722047608615,22.86747433833031 L-15.251089298896877,25.593666244173903 L0.0,27.0" fill="brown" fill-opacity="0.6" stroke="black" stroke-width="1" />
<path d="M-10.883722047608615,-77.13252566166969 L-15.251089298896877,-74.4063337558261 L0.0,-73.0" fill="red" fill-opacity="0.6" stroke="black" stroke-width="1" />
<path d="M-12.0,50.0 L-20.602578617677874,63.58683364531421 L-23.0,50.0" fill="yellow" fill-opacity="0.6" stroke="black" stroke-width="1" />
<path d="M-12.0,-50.0 L-20.602578617677874,-36.41316635468579 L-23.0,-50.0" fill="black" fill-opacity="0.6" stroke="black" stroke-width="1" />
<path d="M-12.0,50.0 L-20.602578617677874,36.41316635468579 L-23.0,50.0" fill="green" fill-opacity="0.6" stroke="black" stroke-width="1" />
<path d="M-12.0,-50.0 L-20.602578617677874,-63.58683364531421 L-23.0,-50.0" fill="purple" fill-opacity="0.6" stroke="black" stroke-width="1" />
<path d="M-23.0,50.0 L-24.363160928382232,57.82811536723856 L-30.176567692312666,57.16662330735001" fill="orange" fill-opacity="0.6" stroke="black" stroke-width="1" />
<path d="M-23.0,-50.0 L-24.363160928382232,-42.17188463276144 L-30.176567692312666,-42.83337669264999" fill="purple" fill-opacity="0.6" stroke="black" stroke-width="1" />
<path d="M-23.0,50.0 L-24.363160928382232,42.17188463276144 L-30.176567692312666,42.83337669264999" fill="purple" fill-opacity="0.6" stroke="black" stroke-width="1" />
<path d="M-23.0,-50.0 L-24.363160928382232,-57.82811536723856 L-30.176567692312666,-57.16662330735001" fill="green" fill-opacity="0.6" stroke="black" stroke-width="1" />
<path d="M-24.363160928382232,57.82811536723856 L-30.176567692312666,57.16662330735001 L-32.0,50.0" fill="purple" fill-opacity="0.6" stroke="black" stroke-width="1" />
<path d="M-24.363160928382232,-42.17188463276144 L-30.176567692312666,-42.83337669264999 L-32.0,-50.0" fill="yellow" fill-opacity="0.6" stroke="black" stroke-width="1" />
<path d="M-24.363160928382232,42.17188463276144 L-30.176567692312666,42.83337669264999 L-32.0,50.0" fill="blue" fill-opacity="0.6" stroke="black" stroke-width="1" />
<path d="M-24.363160928382232,-57.82811536723856 L-30.176567692312666,-57.16662330735001 L-32.0,-50.0" fill="black" fill-opacity="0.6" stroke="black" stroke-width="1" />
<path d="M-33.0,50.0 L-36.995334104206954,53.89117869492762 L-38.0,50.0" fill="red" fill-opacity="0.6" stroke="black" stroke-width="1" />
<path d="M-33.0,-50.0 L-36.995334104206954,-46.10882130507238 L-38.0,-50.0" fill="black" fill-opacity="0.6" stroke="black" stroke-width="1" />
<path d="M-33.0,50.0 L-36.995334104206954,46.10882130507238 L-38.0,50.0" fill="blue" fill-opacity="0.6" stroke="black" stroke-width="1" />
<path d="M-33.0,-50.0 L-36.995334104206954,-53.89117869492762 L-38.0,-50.0" fill="pink" fill-opacity="0.6" stroke="black" stroke-width="1" />
<path d="M-12.0,88.0 L-3.4659784493693335,90.42917082197945 L-1.1699866885927401,92.03471669964752" fill="purple" fill-opacity="0.6" stroke="black" stroke-width="1" />
<path d="M-12.0,-12.0 L-3.4659784493693335,-9.570829178020546 L-1.1699866885927401,-7.965283300352477" fill="orange" fill-opacity="0.6" stroke="black" stroke-width="1" />
<path d="M-12.0,12.0 L-3.4659784493693335,9.570829178020546 L-1.1699866885927401,7.965283300352482" fill="orange" fill-opacity="0.6" stroke="black" stroke-width="1" />
<path d="M-12.0,-88.0 L-3.4659784493693335,-90.42917082197945 L-1.1699866885927401,-92.03471669964753" fill="pink" fill-opacity="0.6" stroke="black" stroke-width="1" />
<path d="M-3.4659784493693335,90.42917082197945 L-1.1699866885927401,92.03471669964752 L-4.0,96.0" fill="purple" fill-opacity="0.6" stroke="black" stroke-width="1" />
<path d="M-3.4659784493693335,-9.570829178020546 L-1.1699866885927401,-7.965283300352477 L-4.0,-4.0" fill="brown" fill-opacity="0.6" stroke="black" stroke-width="1" />
<path d="M-3.4659784493693335,9.570829178020546 L-1.1699866885927401,7.965283300352482 L-4.0,4.0" fill="purple" fill-opacity="0.6" stroke="black" stroke-width="1" />
<path d="M-3.4659784493693335,-90.42917082197945 L-1.1699866885927401,-92.03471669964753 L-4.0,-96.0" fill="red" fill-opacity="0.6" stroke="black" stroke-width="1" />
<path d="M-4.0,96.0 L-0.8198583351470751,98.07138654206156 L0.0,100.0" fill="green" fill-opacity="0.6" stroke="black" stroke-width="1" />
<path d="M-4.0,-4.0 L-0.8198583351470751,-1.9286134579384382 L0.0,-0.0" fill="purple" fill-opacity="0.6" stroke="black" stroke-width="1" />
<path d="M-4.0,4.0 L-0.8198583351470751,1.9286134579384395 L0.0,-0.0" fill="red" fill-opacity="0.6" stroke="black" stroke-width="1" />
<path d="M-4.0,-96.0 L-0.8198583351470751,-98.07138654206156 L0.0,-100.0" fill="purple" fill-opacity="0.6" stroke="black" stroke-width="1" />
<path d="M-90.0,-0.0 L-84.37333697301771,-4.657473196691386 L-83.0,-0.0" fill="blue" fill-opacity="0.6" stroke="black" stroke-width="1" />
<path d="M-90.0,-0.0 L-84.37333697301771,4.657473196691386 L-83.0,-0.0" fill="green" fill-opacity="0.6" stroke="black" stroke-width="1" />
<path d="M-83.0,-0.0 L-82.60356953691274,-4.851553184351552 L-81.58936609414229,-6.137533666204289" fill="blue" fill-opacity="0.6" stroke="black" stroke-width="1" />
<path d="M-83.0,-0.0 L-82.60356953691274,4.851553184351552 L-81.58936609414229,6.137533666204289" fill="pink" fill-opacity="0.6" stroke="black" stroke-width="1" />
<path d="M-82.60356953691274,-4.851553184351552 L-81.58936609414229,-6.137533666204289 L-81.11520597716358,-6.366070118249406" fill="pink" fill-opacity="0.6" stroke="black" stroke-width="1" />
<path d="M-82.60356953691274,4.851553184351552 L-81.58936609414229,6.137533666204289 L-81.11520597716358,6.366070118249406" fill="orange" fill-opacity="0.6" stroke="black" stroke-width="1" />
<path d="M-81.58936609414229,-6.137533666204289 L-81.11520597716358,-6.366070118249406 L-77.97567198210834,-9.399161317559386" fill="black" fill-opacity="0.6" stroke="black" stroke-width="1" />
<path d="M-81.58936609414229,6.137533666204289 L-81.11520597716358,6.366070118249406 L-77.97567198210834,9.399161317559386" fill="black" fill-opacity="0.6" stroke="black" stroke-width="1" />
<path d="M-81.11520597716358,-6.366070118249406 L-77.97567198210834,-9.399161317559386 L-77.13252566166969,-10.883722047608615" fill="green" fill-opacity="0.6" stroke="black" stroke-width="1" />
<path d="M-81.11520597716358,6.366070118249406 L-77.97567198210834,9.399161317559386 L-77.13252566166969,10.883722047608615" fill="purple" fill-opacity="0.6" stroke="black" stroke-width="1" />
<path d="M-77.97567198210834,-9.399161317559386 L-77.13252566166969,-10.883722047608615 L-74.4063337558261,-15.251089298896877" fill="orange" fill-opacity="0.6" stroke="black" stroke-width="1" />
<path d="M-77.97567198210834,9.399161317559386 L-77.13252566166969,10.883722047608615 L-74.4063337558261,15.251089298896877" fill="purple" fill-opacity="0.6" stroke="black" stroke-width="1" />
<path d="M-77.13252566166969,-10.883722047608615 L-74.4063337558261,-15.251089298896877 L-73.0,-0.0" fill="yellow" fill-opacity="0.6" stroke="black" stroke-width="1" />
<path d="M-77.13252566166969,10.883722047608615 L-74.4063337558261,15.251089298896877 L-73.0,-0.0" fill="blue" fill-opacity="0.6" stroke="black" stroke-width="1" />
<path d="M-50.0,-12.0 L-63.58683364531421,-20.602578617677874 L-50.0,-23.0" fill="pink" fill-opacity="0.6" stroke="black" stroke-width="1" />
<path d="M-50.0,12.0 L-63.58683364531421,20.602578617677874 L-50.0,23.0" fill="green" fill-opacity="0.6" stroke="black" stroke-width="1" />
<path d="M-50.0,-23.0 L-57.82811536723856,-24.363160928382232 L-57.16662330735001,-30.176567692312666" fill="brown" fill-opacity="0.6" stroke="black" stroke-width="1" />
<path d="M-50.0,23.0 L-57.82811536723856,24.363160928382232 L-57.16662330735001,30.176567692312666" fill="green" fill-opacity="0.6" stroke="black" stroke-width="1" />
<path d="M-57.82811536723856,-24.363160928382232 L-57.16662330735001,-30.176567692312666 L-50.0,-32.0" fill="blue" fill-opacity="0.6" stroke="black" stroke-width="1" />
<path d="M-57.82811536723856,24.363160928382232 L-57.16662330735001,30.176567692312666 L-50.0,32.0" fill="black" fill-opacity="0.6" stroke="black" stroke-width="1" />
<path d="M-50.0,-33.0 L-53.89117869492762,-36.995334104206954 L-50.0,-38.0" fill="purple" fill-opacity="0.6" stroke="black" stroke-width="1" />
<path d="M-50.0,33.0 L-53.89117869492762,36.995334104206954 L-50.0,38.0" fill="orange" fill-opacity="0.6" stroke="black" stroke-width="1" />
<path d="M-50.0,-50.0 L-56.0,-44.0 L-61.0,-39.0" fill="purple" fill-opacity="0.6" stroke="black" stroke-width="1" />
<path d="M-50.0,50.0 L-56.0,44.0 L-61.0,39.0" fill="yellow" fill-opacity="0.6" stroke="black" stroke-width="1" />
<path d="M-56.0,-44.0 L-61.0,-39.0 L-81.0,-19.0" fill="red" fill-opacity="0.6" stroke="black" stroke-width="1" />
<path d="M-56.0,44.0 L-61.0,39.0 L-81.0,19.0" fill="green" fill-opacity="0.6" stroke="black" stroke-width="1" />
<path d="M-61.0,-39.0 L-81.0,-19.0 L-86.0,-14.0" fill="red" fill-opacity="0.6" stroke="black" stroke-width="1" />
<path d="M-61.0,39.0 L-81.0,19.0 L-86.0,14.0" fill="brown" fill-opacity="0.6" stroke="black" stroke-width="1" />
<path d="M-81.0,-19.0 L-86.0,-14.0 L-88.0,-12.0" fill="green" fill-opacity="0.6" stroke="black" stroke-width="1" />
<path d="M-81.0,19.0 L-86.0,14.0 L-88.0,12.0" fill="black" fill-opacity="0.6" stroke="black" stroke-width="1" />
<path d="M-86.0,-14.0 L-88.0,-12.0 L-90.42917082197945,-3.4659784493693335" fill="yellow" fill-opacity="0.6" stroke="black" stroke-width="1" />
<path d="M-86.0,14.0 L-88.0,12.0 L-90.42917082197945,3.4659784493693335" fill="yellow" fill-opacity="0.6" stroke="black" stroke-width="1" />
<path d="M-88.0,-12.0 L-90.42917082197945,-3.4659784493693335 L-92.03471669964753,-1.1699866885927401" fill="pink" fill-opacity="0.6" stroke="black" stroke-width="1" />
<path d="M-88.0,12.0 L-90.42917082197945,3.4659784493693335 L-92.03471669964753,1.1699866885927401" fill="red" fill-opacity="0.6" stroke="black" stroke-width="1" />
<path d="M-90.42917082197945,-3.4659784493693335 L-92.03471669964753,-1.1699866885927401 L-96.0,-4.0" fill="green" fill-opacity="0.6" stroke="black" stroke-width="1" />
<path d="M-90.42917082197945,3.4659784493693335 L-92.03471669964753,1.1699866885927401 L-96.0,4.0" fill="green" fill-opacity="0.6" stroke="black" stroke-width="1" />
<path d="M-92.03471669964753,-1.1699866885927401 L-96.0,-4.0 L-98.07138654206156,-0.8198583351470751" fill="orange" fill-opacity="0.6" stroke="black" stroke-width="1" />
<path d="M-92.03471669964753,1.1699866885927401 L-96.0,4.0 L-98.07138654206156,0.8198583351470751" fill="purple" fill-opacity="0.6" stroke="black" stroke-width="1" />
<path d="M-96.0,-4.0 L-98.07138654206156,-0.8198583351470751 L-100.0,-0.0" fill="pink" fill-opacity="0.6" stroke="black" stroke-width="1" />
<path d="M-96.0,4.0 L-98.07138654206156,0.8198583351470751 L-100.0,-0.0" fill="black" fill-opacity="0.6" stroke="black" stroke-width="1" />
</svg>