<?xml version="1.0" encoding="UTF-8"?>
<svg xmlns="http://www.w3.org/2000/svg" xmlns:xlink="http://www.w3.org/1999/xlink"
     width="250" height="250" viewBox="-125.0 -125.0 250 250">
<defs>
</defs>
<path d="M3.0,-0.0 L9.925931521968362,-0.9941242986059029 L14.0,-0.0" fill="green" fill-opacity="0.6" stroke="black" stroke-width="1" />
<path d="M3.0,-0.0 L9.925931521968362,0.9941242986059029 L14.0,-0.0" fill="pink" fill-opacity="0.6" stroke="black" stroke-width="1" />
<path d="M50.0,50.0 L33.0,67.0 L29.06880060574389,69.1184609458905" fill="purple" fill-opacity="0.6" stroke="black" stroke-width="1" />
<path d="M50.0,-50.0 L33.0,-67.0 L29.06880060574389,-69.1184609458905" fill="green" fill-opacity="0.6" stroke="black" stroke-width="1" />
<path d="M33.0,-33.0 L30.8815390541095,-29.06880060574389 L28.0,-28.0" fill="blue" fill-opacity="0.6" stroke="black" stroke-width="1" />
<path d="M33.0,33.0 L30.8815390541095,29.06880060574389 L28.0,28.0" fill="blue" fill-opacity="0.6" stroke="black" stroke-width="1" />
<path d="M29.06880060574389,69.1184609458905 L28.0,72.0 L26.0,74.0" fill="pink" fill-opacity="0.6" stroke="black" stroke-width="1" />
<path d="M29.06880060574389,-69.1184609458905 L28.0,-72.0 L26.0,-74.0" fill="purple" fill-opacity="0.6" stroke="black" stroke-width="1" />
<path d="M28.0,72.0 L26.0,74.0 L8.414834896220388,84.8782822421811" fill="blue" fill-opacity="0.6" stroke="black" stroke-width="1" />
<path d="M28.0,-72.0 L26.0,-74.0 L8.414834896220388,-84.8782822421811" fill="orange" fill-opacity="0.6" stroke="black" stroke-width="1" />
<path d="M26.0,-26.0 L15.121717757818903,-8.414834896220388 L2.7874553074827113,-0.7108513242441529" fill="purple" fill-opacity="0.6" stroke="black" stroke-width="1" />
<path d="M26.0,26.0 L15.121717757818903,8.414834896220388 L2.7874553074827113,0.7108513242441529" fill="red" fill-opacity="0.6" stroke="black" stroke-width="1" />
<path d="M15.121717757818903,-8.414834896220388 L2.7874553074827113,-0.7108513242441529 L2.0,-2.0" fill="brown" fill-opacity="0.6" stroke="black" stroke-width="1" />
<path d="M15.121717757818903,8.414834896220388 L2.7874553074827113,0.7108513242441529 L2.0,2.0" fill="red" fill-opacity="0.6" stroke="black" stroke-width="1" />
<path d="M0.7108513242441529,97.2125446925173 L2.0,98.0 L0.0,100.0" fill="orange" fill-opacity="0.6" stroke="black" stroke-width="1" />
<path d="M0.7108513242441529,-97.2125446925173 L2.0,-98.0 L0.0,-100.0" fill="yellow" fill-opacity="0.6" stroke="black" stroke-width="1" />
<path d="M-3.0,-0.0 L-9.925931521968362,-0.9941242986059029 L-14.0,-0.0" fill="red" fill-opacity="0.6" stroke="black" stroke-width="1" />
<path d="M-3.0,-0.0 L-9.925931521968362,0.9941242986059029 L-14.0,-0.0" fill="black" fill-opacity="0.6" stroke="black" stroke-width="1" />
<path d="M-50.0,50.0 L-33.0,67.0 L-29.06880060574389,69.1184609458905" fill="brown" fill-opacity="0.6" stroke="black" stroke-width="1" />
<path d="M-50.0,-50.0 L-33.0,-67.0 L-29.06880060574389,-69.1184609458905" fill="orange" fill-opacity="0.6" stroke="black" stroke-width="1" />
<path d="M-33.0,-33.0 L-30.8815390541095,-29.06880060574389 L-28.0,-28.0" fill="pink" fill-opacity="0.6" stroke="black" stroke-width="1" />
<path d="M-33.0,33.0 L-30.8815390541095,29.06880060574389 L-28.0,28.0" fill="yellow" fill-opacity="0.6" stroke="black" stroke-width="1" />
<path d="M-29.06880060574389,69.1184609458905 L-28.0,72.0 L-26.0,74.0" fill="blue" fill-opacity="0.6" stroke="black" stroke-width="1" />
<path d="M-29.06880060574389,-69.1184609458905 L-28.0,-72.0 L-26.0,-74.0" fill="black" fill-opacity="0.6" stroke="black" stroke-width="1" />
<path d="M-28.0,72.0 L-26.0,74.0 L-8.414834896220388,84.8782822421811" fill="pink" fill-opacity="0.6" stroke="black" stroke-width="1" />
<path d="M-28.0,-72.0 L-26.0,-74.0 L-8.414834896220388,-84.8782822421811" fill="red" fill-opacity="0.6" stroke="black" stroke-width="1" />
<path d="M-26.0,-26.0 L-15.121717757818903,-8.414834896220388 L-2.7874553074827113,-0.7108513242441529" fill="orange" fill-opacity="0.6" stroke="black" stroke-width="1" />
<path d="M-26.0,26.0 L-15.121717757818903,8.414834896220388 L-2.7874553074827113,0.7108513242441529" fill="black" fill-opacity="0.6" stroke="black" stroke-width="1" />
<path d="M-15.121717757818903,-8.414834896220388 L-2.7874553074827113,-0.7108513242441529 L-2.0,-2.0" fill="blue" fill-opacity="0.6" stroke="black" stroke-width="1" />
<path d="M-15.121717757818903,8.414834896220388 L-2.7874553074827113,0.7108513242441529 L-2.0,2.0" fill="black" fill-opacity="0.6" stroke="black" stroke-width="1" />
<path d="M-0.7108513242441529,97.21254469251728 L-2.0,98.0 L0.0,100.0" fill="red" fill-opacity="0.6" stroke="black" stroke-width="1" />
<path d="M-0.7108513242441529,-97.2125446925173 L-2.0,-98.0 L0.0,-100.0" fill="pink" fill-opacity="0.6" stroke="black" stroke-width="1" />
<path d="M97.0,-0.0 L90.07406847803163,0.9941242986059029 L86.0,-0.0" fill="brown" fill-opacity="0.6" stroke="black" stroke-width="1" />
<path d="M97.0,-0.0 L90.07406847803163,-0.9941242986059029 L86.0,-0.0" fill="black" fill-opacity="0.6" stroke="black" stroke-width="1" />
<path d="M50.0,50.0 L67.0,33.0 L69.1184609458905,29.06880060574389" fill="orange" fill-opacity="0.6" stroke="black" stroke-width="1" />
<path d="M50.0,-50.0 L67.0,-33.0 L69.1184609458905,-29.06880060574389" fill="brown" fill-opacity="0.6" stroke="black" stroke-width="1" />
<path d="M67.0,33.0 L69.1184609458905,29.06880060574389 L72.0,28.0" fill="purple" fill-opacity="0.6" stroke="black" stroke-width="1" />
<path d="M67.0,-33.0 L69.1184609458905,-29.06880060574389 L72.0,-28.0" fill="yellow" fill-opacity="0.6" stroke="black" stroke-width="1" />
<path d="M69.1184609458905,29.06880060574389 L72.0,28.0 L74.0,26.0" fill="black" fill-opacity="0.6" stroke="black" stroke-width="1" />
<path d="M69.1184609458905,-29.06880060574389 L72.0,-28.0 L74.0,-26.0" fill="brown" fill-opacity="0.6" stroke="black" stroke-width="1" />
<path d="M72.0,28.0 L74.0,26.0 L84.8782822421811,8.414834896220388" fill="orange" fill-opacity="0.6" stroke="black" stroke-width="1" />
<path d="M72.0,-28.0 L74.0,-26.0 L84.8782822421811,-8.414834896220388" fill="purple" fill-opacity="0.6" stroke="black" stroke-width="1" />
<path d="M74.0,26.0 L84.8782822421811,8.414834896220388 L97.2125446925173,0.7108513242441529" fill="purple" fill-opacity="0.6" stroke="black" stroke-width="1" />
<path d="M74.0,-26.0 L84.8782822421811,-8.414834896220388 L97.2125446925173,-0.7108513242441529" fill="yellow" fill-opacity="0.6" stroke="black" stroke-width="1" />
<path d="M84.8782822421811,8.414834896220388 L97.2125446925173,0.7108513242441529 L98.0,2.0" fill="yellow" fill-opacity="0.6" stroke="black" stroke-width="1" />
<path d="M84.8782822421811,-8.414834896220388 L97.2125446925173,-0.7108513242441529 L98.0,-2.0" fill="yellow" fill-opacity="0.6" stroke="black" stroke-width="1" />
<path d="M97.2125446925173,0.7108513242441529 L98.0,2.0 L100.0,-0.0" fill="purple" fill-opacity="0.6" stroke="black" stroke-width="1" />
<path d="M97.2125446925173,-0.7108513242441529 L98.0,-2.0 L100.0,-0.0" fill="black" fill-opacity="0.6" stroke="black" stroke-width="1" />
<path d="M0.0,-3.0 L0.9941242986059029,-9.925931521968362 L0.0,-14.0" fill="black" fill-opacity="0.6" stroke="black" stroke-width="1" />
<path d="M0.0,3.0 L0.9941242986059029,9.925931521968362 L0.0,14.0" fill="yellow" fill-opacity="0.6" stroke="black" stroke-width="1" />
<path d="M0.0,97.0 L0.9941242986059029,90.07406847803163 L0.0,86.0" fill="pink" fill-opacity="0.6" stroke="black" stroke-width="1" />
<path d="M0.0,-97.0 L0.9941242986059029,-90.07406847803163 L0.0,-86.0" fill="blue" fill-opacity="0.6" stroke="black" stroke-width="1" />
<path d="M33.0,-33.0 L29.06880060574389,-30.8815390541095 L28.0,-28.0" fill="green" fill-opacity="0.6" stroke="black" stroke-width="1" />
<path d="M33.0,33.0 L29.06880060574389,30.8815390541095 L28.0,28.0" fill="orange" fill-opacity="0.6" stroke="black" stroke-width="1" />
<path d="M33.0,67.0 L29.06880060574389,69.1184609458905 L28.0,72.0" fill="green" fill-opacity="0.6" stroke="black" stroke-width="1" />
<path d="M33.0,-67.0 L29.06880060574389,-69.1184609458905 L28.0,-72.0" fill="purple" fill-opacity="0.6" stroke="black" stroke-width="1" />
<path d="M26.0,-26.0 L8.414834896220388,-15.121717757818903 L0.7108513242441529,-2.7874553074827113" fill="brown" fill-opacity="0.6" stroke="black" stroke-width="1" />
<path d="M26.0,26.0 L8.414834896220388,15.121717757818903 L0.7108513242441529,2.7874553074827113" fill="pink" fill-opacity="0.6" stroke="black" stroke-width="1" />
<path d="M26.0,74.0 L8.414834896220388,84.8782822421811 L0.7108513242441529,97.2125446925173" fill="blue" fill-opacity="0.6" stroke="black" stroke-width="1" />
<path d="M26.0,-74.0 L8.414834896220388,-84.8782822421811 L0.7108513242441529,-97.2125446925173" fill="blue" fill-opacity="0.6" stroke="black" stroke-width="1" />
<path d="M8.414834896220388,-15.121717757818903 L0.7108513242441529,-2.7874553074827113 L2.0,-2.0" fill="pink" fill-opacity="0.6" stroke="black" stroke-width="1" />
<path d="M8.414834896220388,15.121717757818903 L0.7108513242441529,2.7874553074827113 L2.0,2.0" fill="blue" fill-opacity="0.6" stroke="black" stroke-width="1" />
<path d="M8.414834896220388,84.8782822421811 L0.7108513242441529,97.2125446925173 L2.0,98.0" fill="orange" fill-opacity="0.6" stroke="black" stroke-width="1" />
<path d="M8.414834896220388,-84.8782822421811 L0.7108513242441529,-97.2125446925173 L2.0,-98.0" fill="blue" fill-opacity="0.6" stroke="black" stroke-width="1" />
<path d="M0.0,97.0 L-0.9941242986059029,90.07406847803163 L0.0,86.0" fill="green" fill-opacity="0.6" stroke="black" stroke-width="1" />
<path d="M0.0,-3.0 L-0.9941242986059029,-9.925931521968362 L0.0,-14.0" fill="brown" fill-opacity="0.6" stroke="black" stroke-width="1" />
<path d="M0.0,3.0 L-0.9941242986059029,9.925931521968366 L0.0,14.0" fill="pink" fill-opacity="0.6" stroke="black" stroke-width="1" />
<path d="M0.0,-97.0 L-0.9941242986059029,-90.07406847803163 L0.0,-86.0" fill="blue" fill-opacity="0.6" stroke="black" stroke-width="1" />
<path d="M-33.0,67.0 L-29.06880060574389,69.1184609458905 L-28.0,72.0" fill="green" fill-opacity="0.6" stroke="black" stroke-width="1" />
<path d="M-33.0,-33.0 L-29.06880060574389,-30.8815390541095 L-28.0,-28.0" fill="brown" fill-opacity="0.6" stroke="black" stroke-width="1" />
<path d="M-33.0,33.0 L-29.06880060574389,30.881539054109496 L-28.0,28.0" fill="red" fill-opacity="0.6" stroke="black" stroke-width="1" />
<path d="M-33.0,-67.0 L-29.06880060574389,-69.1184609458905 L-28.0,-72.0" fill="brown" fill-opacity="0.6" stroke="black" stroke-width="1" />
<path d="M-26.0,74.0 L-8.414834896220388,84.8782822421811 L-0.7108513242441529,97.21254469251728" fill="pink" fill-opacity="0.6" stroke="black" stroke-width="1" />
<path d="M-26.0,-26.0 L-8.414834896220388,-15.121717757818903 L-0.7108513242441529,-2.7874553074827113" fill="green" fill-opacity="0.6" stroke="black" stroke-width="1" />
<path d="M-26.0,26.0 L-8.414834896220388,15.1217177578189 L-0.7108513242441529,2.787455307482716" fill="red" fill-opacity="0.6" stroke="black" stroke-width="1" />
<path d="M-26.0,-74.0 L-8.414834896220388,-84.8782822421811 L-0.7108513242441529,-97.2125446925173" fill="green" fill-opacity="0.6" stroke="black" stroke-width="1" />
<path d="M-8.414834896220388,84.8782822421811 L-0.7108513242441529,97.21254469251728 L-2.0,98.0" fill="green" fill-opacity="0.6" stroke="black" stroke-width="1" />
<path d="M-8.414834896220388,-15.121717757818903 L-0.7108513242441529,-2.7874553074827113 L-2.0,-2.0" fill="orange" fill-opacity="0.6" stroke="black" stroke-width="1" />
<path d="M-8.414834896220388,15.1217177578189 L-0.7108513242441529,2.787455307482716 L-2.0,2.0" fill="blue" fill-opacity="0.6" stroke="black" stroke-width="1" />
<path d="M-8.414834896220388,-84.8782822421811 L-0.7108513242441529,-97.2125446925173 L-2.0,-98.0" fill="red" fill-opacity="0.6" stroke="black" stroke-width="1" />
<path d="M-97.0,-0.0 L-90.07406847803163,-0.9941242986059029 L-86.0,-0.0" fill="purple" fill-opacity="0.6" stroke="black" stroke-width="1" />
<path d="M-97.0,-0.0 L-90.07406847803163,0.9941242986059029 L-86.0,-0.0" fill="purple" fill-opacity="0.6" stroke="black" stroke-width="1" />
<path d="M-50.0,-50.0 L-67.0,-33.0 L-69.1184609458905,-29.06880060574389" fill="brown" fill-opacity="0.6" stroke="black" stroke-width="1" />
<path d="M-50.0,50.0 L-67.0,33.0 L-69.1184609458905,29.06880060574389" fill="brown" fill-opacity="0.6" stroke="black" stroke-width="1" />
<path d="M-67.0,-33.0 L-69.1184609458905,-29.06880060574389 L-72.0,-28.0" fill="black" fill-opacity="0.6" stroke="black" stroke-width="1" />
<path d="M-67.0,33.0 L-69.1184609458905,29.06880060574389 L-72.0,28.0" fill="orange" fill-opacity="0.6" stroke="black" stroke-width="1" />
<path d="M-69.1184609458905,-29.06880060574389 L-72.0,-28.0 L-74.0,-26.0" fill="black" fill-opacity="0.6" stroke="black" stroke-width="1" />
<path d="M-69.1184609458905,29.06880060574389 L-72.0,28.0 L-74.0,26.0" fill="red" fill-opacity="0.6" stroke="black" stroke-width="1" />
<path d="M-72.0,-28.0 L-74.0,-26.0 L-84.8782822421811,-8.414834896220388" fill="orange" fill-opacity="0.6" stroke="black" stroke-width="1" />
<path d="M-72.0,28.0 L-74.0,26.0 L-84.8782822421811,8.414834896220388" fill="orange" fill-opacity="0.6" stroke="black" stroke-width="1" />
<path d="M-74.0,-26.0 L-84.8782822421811,-8.414834896220388 L-97.2125446925173,-0.7108513242441529" fill="red" fill-opacity="0.6" stroke="black" stroke-width="1" />
<path d="M-74.0,26.0 L-84.8782822421811,8.414834896220388 L-97.2125446925173,0.7108513242441529" fill="black" fill-opacity="0.6" stroke="black" stroke-width="1" />
<path d="M-84.8782822421811,-8.414834896220388 L-97.2125446925173,-0.7108513242441529 L-98.0,-2.0" fill="green" fill-opacity="0.6" stroke="black" stroke-width="1" />
<path d="M-84.8782822421811,8.414834896220388 L-97.2125446925173,0.7108513242441529 L-98.0,2.0" fill="red" fill-opacity="0.6" stroke="black" stroke-width="1" />
<path d="M-97.2125446925173,-0.7108513242441529 L-98.0,-2.0 L-100.0,-0.0" fill="blue" fill-opacity="0.6" stroke="black" stroke-width="1" />
<path d="M-97.2125446925173,0.7108513242441529 L-98.0,2.0 L-100.0,-0.0" fill="orange" fill-opacity="0.6" stroke="black" stroke-width="1" />
</svg>