<?xml version="1.0" encoding="UTF-8"?>
<svg xmlns="http://www.w3.org/2000/svg" xmlns:xlink="http://www.w3.org/1999/xlink"
     width="250" height="250" viewBox="-125.0 -125.0 250 250">
<defs>
</defs>
<path d="M10.0,-0.0 L13.551171450126102,-2.1853726715605717 L13.632191993096361,-5.058742467851175" fill-opacity="0" stroke="black" stroke-width="1" />
<path d="M10.0,-0.0 L13.551171450126102,2.1853726715605717 L13.632191993096361,5.058742467851175" fill-opacity="0" stroke="black" stroke-width="1" />
<path d="M13.551171450126102,-2.1853726715605717 L13.632191993096361,-5.058742467851175 L16.06137646898488,-5.528094749185445" fill-opacity="0" stroke="black" stroke-width="1" />
<path d="M13.551171450126102,2.1853726715605717 L13.632191993096361,5.058742467851175 L16.06137646898488,5.528094749185445" fill-opacity="0" stroke="black" stroke-width="1" />
<path d="M13.632191993096361,-5.058742467851175 L16.06137646898488,-5.528094749185445 L17.22566699151819,-6.30626023732502" fill-opacity="0" stroke="black" stroke-width="1" />
<path d="M13.632191993096361,5.058742467851175 L16.06137646898488,5.528094749185445 L17.22566699151819,6.30626023732502" fill-opacity="0" stroke="black" stroke-width="1" />
<path d="M16.06137646898488,-5.528094749185445 L17.22566699151819,-6.30626023732502 L19.98199047558448,-7.826352629817351" fill-opacity="0" stroke="black" stroke-width="1" />
<path d="M16.06137646898488,5.528094749185445 L17.22566699151819,6.30626023732502 L19.98199047558448,7.826352629817351" fill-opacity="0" stroke="black" stroke-width="1" />
<path d="M17.22566699151819,-6.30626023732502 L19.98199047558448,-7.826352629817351 L20.599381838618914,-10.245987196662204" fill-opacity="0" stroke="black" stroke-width="1" />
<path d="M17.22566699151819,6.30626023732502 L19.98199047558448,7.826352629817351 L20.599381838618914,10.245987196662204" fill-opacity="0" stroke="black" stroke-width="1" />
<path d="M19.98199047558448,-7.826352629817351 L20.599381838618914,-10.245987196662204 L22.603286343103044,-11.832950014471411" fill-opacity="0" stroke="black" stroke-width="1" />
<path d="M19.98199047558448,7.826352629817351 L20.599381838618914,10.245987196662204 L22.603286343103044,11.832950014471411" fill-opacity="0" stroke="black" stroke-width="1" />
<path d="M20.599381838618914,-10.245987196662204 L22.603286343103044,-11.832950014471411 L23.643766273132755,-12.297592141604804" fill-opacity="0" stroke="black" stroke-width="1" />
<path d="M20.599381838618914,10.245987196662204 L22.603286343103044,11.832950014471411 L23.643766273132755,12.297592141604804" fill-opacity="0" stroke="black" stroke-width="1" />
<path d="M22.603286343103044,-11.832950014471411 L23.643766273132755,-12.297592141604804 L24.468712348910557,-14.611872952691368" fill-opacity="0" stroke="black" stroke-width="1" />
<path d="M22.603286343103044,11.832950014471411 L23.643766273132755,12.297592141604804 L24.468712348910557,14.611872952691368" fill-opacity="0" stroke="black" stroke-width="1" />
<path d="M23.643766273132755,-12.297592141604804 L24.468712348910557,-14.611872952691368 L31.0,-0.0" fill-opacity="0" stroke="black" stroke-width="1" />
<path d="M23.643766273132755,12.297592141604804 L24.468712348910557,14.611872952691368 L31.0,-0.0" fill-opacity="0" stroke="black" stroke-width="1" />
<path d="M46.0,54.0 L31.0,69.0 L21.177235787047724,71.75084967807196" fill-opacity="0" stroke="black" stroke-width="1" />
<path d="M46.0,-54.0 L31.0,-69.0 L21.177235787047724,-71.75084967807196" fill-opacity="0" stroke="black" stroke-width="1" />
<path d="M50.0,50.0 L46.0,54.0 L31.0,69.0" fill-opacity="0" stroke="black" stroke-width="1" />
<path d="M50.0,-50.0 L46.0,-54.0 L31.0,-69.0" fill-opacity="0" stroke="black" stroke-width="1" />
<path d="M50.0,-22.0 L42.18302270829976,-26.3699990169437 L50.0,-33.0" fill-opacity="0" stroke="black" stroke-width="1" />
<path d="M50.0,22.0 L42.18302270829976,26.3699990169437 L50.0,33.0" fill-opacity="0" stroke="black" stroke-width="1" />
<path d="M31.0,-31.0 L28.24915032192804,-21.177235787047724 L26.0,-26.0" fill-opacity="0" stroke="black" stroke-width="1" />
<path d="M31.0,31.0 L28.24915032192804,21.177235787047724 L26.0,26.0" fill-opacity="0" stroke="black" stroke-width="1" />
<path d="M26.0,-26.0 L24.787436942634404,-17.44423509392623 L20.0,-20.0" fill-opacity="0" stroke="black" stroke-width="1" />
<path d="M26.0,26.0 L24.787436942634404,17.44423509392623 L20.0,20.0" fill-opacity="0" stroke="black" stroke-width="1" />
<path d="M17.44423509392623,75.2125630573656 L20.0,80.0 L11.0,89.0" fill-opacity="0" stroke="black" stroke-width="1" />
<path d="M17.44423509392623,-75.2125630573656 L20.0,-80.0 L11.0,-89.0" fill-opacity="0" stroke="black" stroke-width="1" />
<path d="M20.0,80.0 L11.0,89.0 L8.0,92.0" fill-opacity="0" stroke="black" stroke-width="1" />
<path d="M20.0,-80.0 L11.0,-89.0 L8.0,-92.0" fill-opacity="0" stroke="black" stroke-width="1" />
<path d="M11.0,89.0 L8.0,92.0 L6.0,94.0" fill-opacity="0" stroke="black" stroke-width="1" />
<path d="M11.0,-89.0 L8.0,-92.0 L6.0,-94.0" fill-opacity="0" stroke="black" stroke-width="1" />
<path d="M8.0,92.0 L6.0,94.0 L1.4430950828870637,96.56512271966764" fill-opacity="0" stroke="black" stroke-width="1" />
<path d="M8.0,-92.0 L6.0,-94.0 L1.4430950828870637,-96.56512271966764" fill-opacity="0" stroke="black" stroke-width="1" />
<path d="M6.0,-6.0 L3.4348772803323544,-1.4430950828870637 L1.8481464103724643,-0.4619027430107916" fill-opacity="0" stroke="black" stroke-width="1" />
<path d="M6.0,6.0 L3.4348772803323544,1.4430950828870637 L1.8481464103724643,0.4619027430107916" fill-opacity="0" stroke="black" stroke-width="1" />
<path d="M3.4348772803323544,-1.4430950828870637 L1.8481464103724643,-0.4619027430107916 L0.0,-0.0" fill-opacity="0" stroke="black" stroke-width="1" />
<path d="M3.4348772803323544,1.4430950828870637 L1.8481464103724643,0.4619027430107916 L0.0,-0.0" fill-opacity="0" stroke="black" stroke-width="1" />
<path d="M-10.0,-0.0 L-13.551171450126102,-2.1853726715605717 L-13.632191993096361,-5.058742467851175" fill-opacity="0" stroke="black" stroke-width="1" />
<path d="M-10.0,-0.0 L-13.551171450126102,2.1853726715605717 L-13.632191993096361,5.058742467851175" fill-opacity="0" stroke="black" stroke-width="1" />
<path d="M-13.551171450126102,-2.1853726715605717 L-13.632191993096361,-5.058742467851175 L-16.06137646898488,-5.528094749185445" fill-opacity="0" stroke="black" stroke-width="1" />
<path d="M-13.551171450126102,2.1853726715605717 L-13.632191993096361,5.058742467851175 L-16.06137646898488,5.528094749185445" fill-opacity="0" stroke="black" stroke-width="1" />
<path d="M-13.632191993096361,-5.058742467851175 L-16.06137646898488,-5.528094749185445 L-17.22566699151819,-6.30626023732502" fill-opacity="0" stroke="black" stroke-width="1" />
<path d="M-13.632191993096361,5.058742467851175 L-16.06137646898488,5.528094749185445 L-17.22566699151819,6.30626023732502" fill-opacity="0" stroke="black" stroke-width="1" />
<path d="M-16.06137646898488,-5.528094749185445 L-17.22566699151819,-6.30626023732502 L-19.98199047558448,-7.826352629817351" fill-opacity="0" stroke="black" stroke-width="1" />
<path d="M-16.06137646898488,5.528094749185445 L-17.22566699151819,6.30626023732502 L-19.98199047558448,7.826352629817351" fill-opacity="0" stroke="black" stroke-width="1" />
<path d="M-17.22566699151819,-6.30626023732502 L-19.98199047558448,-7.826352629817351 L-20.599381838618914,-10.245987196662204" fill-opacity="0" stroke="black" stroke-width="1" />
<path d="M-17.22566699151819,6.30626023732502 L-19.98199047558448,7.826352629817351 L-20.599381838618914,10.245987196662204" fill-opacity="0" stroke="black" stroke-width="1" />
<path d="M-19.98199047558448,-7.826352629817351 L-20.599381838618914,-10.245987196662204 L-22.603286343103044,-11.832950014471411" fill-opacity="0" stroke="black" stroke-width="1" />
<path d="M-19.98199047558448,7.826352629817351 L-20.599381838618914,10.245987196662204 L-22.603286343103044,11.832950014471411" fill-opacity="0" stroke="black" stroke-width="1" />
<path d="M-20.599381838618914,-10.245987196662204 L-22.603286343103044,-11.832950014471411 L-23.643766273132755,-12.297592141604804" fill-opacity="0" stroke="black" stroke-width="1" />
<path d="M-20.599381838618914,10.245987196662204 L-22.603286343103044,11.832950014471411 L-23.643766273132755,12.297592141604804" fill-opacity="0" stroke="black" stroke-width="1" />
<path d="M-22.603286343103044,-11.832950014471411 L-23.643766273132755,-12.297592141604804 L-24.468712348910557,-14.611872952691368" fill-opacity="0" stroke="black" stroke-width="1" />
<path d="M-22.603286343103044,11.832950014471411 L-23.643766273132755,12.297592141604804 L-24.468712348910557,14.611872952691368" fill-opacity="0" stroke="black" stroke-width="1" />
<path d="M-23.643766273132755,-12.297592141604804 L-24.468712348910557,-14.611872952691368 L-31.0,-0.0" fill-opacity="0" stroke="black" stroke-width="1" />
<path d="M-23.643766273132755,12.297592141604804 L-24.468712348910557,14.611872952691368 L-31.0,-0.0" fill-opacity="0" stroke="black" stroke-width="1" />
<path d="M-46.0,54.0 L-31.0,69.0 L-21.177235787047724,71.75084967807196" fill-opacity="0" stroke="black" stroke-width="1" />
<path d="M-46.0,-54.0 L-31.0,-69.0 L-21.177235787047724,-71.75084967807196" fill-opacity="0" stroke="black" stroke-width="1" />
<path d="M-50.0,50.0 L-46.0,54.0 L-31.0,69.0" fill-opacity="0" stroke="black" stroke-width="1" />
<path d="M-50.0,-50.0 L-46.0,-54.0 L-31.0,-69.0" fill-opacity="0" stroke="black" stroke-width="1" />
<path d="M-50.0,-22.0 L-42.18302270829976,-26.3699990169437 L-50.0,-33.0" fill-opacity="0" stroke="black" stroke-width="1" />
<path d="M-50.0,22.0 L-42.18302270829976,26.3699990169437 L-50.0,33.0" fill-opacity="0" stroke="black" stroke-width="1" />
<path d="M-31.0,-31.0 L-28.24915032192804,-21.177235787047724 L-26.0,-26.0" fill-opacity="0" stroke="black" stroke-width="1" />
<path d="M-31.0,31.0 L-28.24915032192804,21.177235787047724 L-26.0,26.0" fill-opacity="0" stroke="black" stroke-width="1" />
<path d="M-26.0,-26.0 L-24.787436942634404,-17.44423509392623 L-20.0,-20.0" fill-opacity="0" stroke="black" stroke-width="1" />
<path d="M-26.0,26.0 L-24.787436942634404,17.44423509392623 L-20.0,20.0" fill-opacity="0" stroke="black" stroke-width="1" />
<path d="M-17.44423509392623,75.2125630573656 L-20.0,80.0 L-11.0,89.0" fill-opacity="0" stroke="black" stroke-width="1" />
<path d="M-17.44423509392623,-75.2125630573656 L-20.0,-80.0 L-11.0,-89.0" fill-opacity="0" stroke="black" stroke-width="1" />
<path d="M-20.0,80.0 L-11.0,89.0 L-8.0,92.0" fill-opacity="0" stroke="black" stroke-width="1" />
<path d="M-20.0,-80.0 L-11.0,-89.0 L-8.0,-92.0" fill-opacity="0" stroke="black" stroke-width="1" />
<path d="M-11.0,89.0 L-8.0,92.0 L-6.0,94.0" fill-opacity="0" stroke="black" stroke-width="1" />
<path d="M-11.0,-89.0 L-8.0,-92.0 L-6.0,-94.0" fill-opacity="0" stroke="black" stroke-width="1" />
<path d="M-8.0,92.0 L-6.0,94.0 L-1.4430950828870637,96.56512271966764" fill-opacity="0" stroke="black" stroke-width="1" />
<path d="M-8.0,-92.0 L-6.0,-94.0 L-1.4430950828870637,-96.56512271966764" fill-opacity="0" stroke="black" stroke-width="1" />
<path d="M-6.0,-6.0 L-3.4348772803323544,-1.4430950828870637 L-1.8481464103724643,-0.4619027430107916" fill-opacity="0" stroke="black" stroke-width="1" />
<path d="M-6.0,6.0 L-3.4348772803323544,1.4430950828870637 L-1.8481464103724643,0.4619027430107916" fill-opacity="0" stroke="black" stroke-width="1" />
<path d="M-3.4348772803323544,-1.4430950828870637 L-1.8481464103724643,-0.4619027430107916 L0.0,-0.0" fill-opacity="0" stroke="black" stroke-width="1" />
<path d="M-3.4348772803323544,1.4430950828870637 L-1.8481464103724643,0.4619027430107916 L0.0,-0.0" fill-opacity="0" stroke="black" stroke-width="1" />
<path d="M90.0,-0.0 L86.4488285498739,2.1853726715605717 L86.36780800690363,5.058742467851175" fill-opacity="0" stroke="black" stroke-width="1" />
<path d="M90.0,-0.0 L86.4488285498739,-2.1853726715605717 L86.36780800690363,-5.058742467851175" fill-opacity="0" stroke="black" stroke-width="1" />
<path d="M86.4488285498739,2.1853726715605717 L86.36780800690363,5.058742467851175 L83.93862353101512,5.528094749185445" fill-opacity="0" stroke="black" stroke-width="1" />
<path d="M86.4488285498739,-2.1853726715605717 L86.36780800690363,-5.058742467851175 L83.93862353101512,-5.528094749185445" fill-opacity="0" stroke="black" stroke-width="1" />
<path d="M86.36780800690363,5.058742467851175 L83.93862353101512,5.528094749185445 L82.77433300848182,6.30626023732502" fill-opacity="0" stroke="black" stroke-width="1" />
<path d="M86.36780800690363,-5.058742467851175 L83.93862353101512,-5.528094749185445 L82.77433300848182,-6.30626023732502" fill-opacity="0" stroke="black" stroke-width="1" />
<path d="M83.93862353101512,5.528094749185445 L82.77433300848182,6.30626023732502 L80.01800952441552,7.826352629817351" fill-opacity="0" stroke="black" stroke-width="1" />
<path d="M83.93862353101512,-5.528094749185445 L82.77433300848182,-6.30626023732502 L80.01800952441552,-7.826352629817351" fill-opacity="0" stroke="black" stroke-width="1" />
<path d="M82.77433300848182,6.30626023732502 L80.01800952441552,7.826352629817351 L79.40061816138109,10.245987196662204" fill-opacity="0" stroke="black" stroke-width="1" />
<path d="M82.77433300848182,-6.30626023732502 L80.01800952441552,-7.826352629817351 L79.40061816138109,-10.245987196662204" fill-opacity="0" stroke="black" stroke-width="1" />
<path d="M80.01800952441552,7.826352629817351 L79.40061816138109,10.245987196662204 L77.39671365689696,11.832950014471411" fill-opacity="0" stroke="black" stroke-width="1" />
<path d="M80.01800952441552,-7.826352629817351 L79.40061816138109,-10.245987196662204 L77.39671365689696,-11.832950014471411" fill-opacity="0" stroke="black" stroke-width="1" />
<path d="M79.40061816138109,10.245987196662204 L77.39671365689696,11.832950014471411 L76.35623372686725,12.297592141604804" fill-opacity="0" stroke="black" stroke-width="1" />
<path d="M79.40061816138109,-10.245987196662204 L77.39671365689696,-11.832950014471411 L76.35623372686725,-12.297592141604804" fill-opacity="0" stroke="black" stroke-width="1" />
<path d="M77.39671365689696,11.832950014471411 L76.35623372686725,12.297592141604804 L75.53128765108944,14.611872952691368" fill-opacity="0" stroke="black" stroke-width="1" />
<path d="M77.39671365689696,-11.832950014471411 L76.35623372686725,-12.297592141604804 L75.53128765108944,-14.611872952691368" fill-opacity="0" stroke="black" stroke-width="1" />
<path d="M76.35623372686725,12.297592141604804 L75.53128765108944,14.611872952691368 L69.0,-0.0" fill-opacity="0" stroke="black" stroke-width="1" />
<path d="M76.35623372686725,-12.297592141604804 L75.53128765108944,-14.611872952691368 L69.0,-0.0" fill-opacity="0" stroke="black" stroke-width="1" />
<path d="M54.0,46.0 L69.0,31.0 L71.75084967807196,21.177235787047724" fill-opacity="0" stroke="black" stroke-width="1" />
<path d="M54.0,-46.0 L69.0,-31.0 L71.75084967807196,-21.177235787047724" fill-opacity="0" stroke="black" stroke-width="1" />
<path d="M50.0,50.0 L54.0,46.0 L69.0,31.0" fill-opacity="0" stroke="black" stroke-width="1" />
<path d="M50.0,-50.0 L54.0,-46.0 L69.0,-31.0" fill-opacity="0" stroke="black" stroke-width="1" />
<path d="M50.0,22.0 L57.81697729170024,26.3699990169437 L50.0,33.0" fill-opacity="0" stroke="black" stroke-width="1" />
<path d="M50.0,-22.0 L57.81697729170024,-26.3699990169437 L50.0,-33.0" fill-opacity="0" stroke="black" stroke-width="1" />
<path d="M69.0,31.0 L71.75084967807196,21.177235787047724 L74.0,26.0" fill-opacity="0" stroke="black" stroke-width="1" />
<path d="M69.0,-31.0 L71.75084967807196,-21.177235787047724 L74.0,-26.0" fill-opacity="0" stroke="black" stroke-width="1" />
<path d="M74.0,26.0 L75.2125630573656,17.44423509392623 L80.0,20.0" fill-opacity="0" stroke="black" stroke-width="1" />
<path d="M74.0,-26.0 L75.2125630573656,-17.44423509392623 L80.0,-20.0" fill-opacity="0" stroke="black" stroke-width="1" />
<path d="M75.2125630573656,17.44423509392623 L80.0,20.0 L89.0,11.0" fill-opacity="0" stroke="black" stroke-width="1" />
<path d="M75.2125630573656,-17.44423509392623 L80.0,-20.0 L89.0,-11.0" fill-opacity="0" stroke="black" stroke-width="1" />
<path d="M80.0,20.0 L89.0,11.0 L92.0,8.0" fill-opacity="0" stroke="black" stroke-width="1" />
<path d="M80.0,-20.0 L89.0,-11.0 L92.0,-8.0" fill-opacity="0" stroke="black" stroke-width="1" />
<path d="M89.0,11.0 L92.0,8.0 L94.0,6.0" fill-opacity="0" stroke="black" stroke-width="1" />
<path d="M89.0,-11.0 L92.0,-8.0 L94.0,-6.0" fill-opacity="0" stroke="black" stroke-width="1" />
<path d="M92.0,8.0 L94.0,6.0 L96.56512271966764,1.4430950828870637" fill-opacity="0" stroke="black" stroke-width="1" />
<path d="M92.0,-8.0 L94.0,-6.0 L96.56512271966764,-1.4430950828870637" fill-opacity="0" stroke="black" stroke-width="1" />
<path d="M94.0,6.0 L96.56512271966764,1.4430950828870637 L98.15185358962754,0.4619027430107916" fill-opacity="0" stroke="black" stroke-width="1" />
<path d="M94.0,-6.0 L96.56512271966764,-1.4430950828870637 L98.15185358962754,-0.4619027430107916" fill-opacity="0" stroke="black" stroke-width="1" />
<path d="M96.56512271966764,1.4430950828870637 L98.15185358962754,0.4619027430107916 L100.0,-0.0" fill-opacity="0" stroke="black" stroke-width="1" />
<path d="M96.56512271966764,-1.4430950828870637 L98.15185358962754,-0.4619027430107916 L100.0,-0.0" fill-opacity="0" stroke="black" stroke-width="1" />
<path d="M0.0,-10.0 L2.1853726715605717,-13.551171450126102 L5.058742467851175,-13.632191993096361" fill-opacity="0" stroke="black" stroke-width="1" />
<path d="M0.0,10.0 L2.1853726715605717,13.551171450126102 L5.058742467851175,13.632191993096361" fill-opacity="0" stroke="black" stroke-width="1" />
<path d="M0.0,90.0 L2.1853726715605717,86.4488285498739 L5.058742467851175,86.36780800690363" fill-opacity="0" stroke="black" stroke-width="1" />
<path d="M0.0,-90.0 L2.1853726715605717,-86.4488285498739 L5.058742467851175,-86.36780800690363" fill-opacity="0" stroke="black" stroke-width="1" />
<path d="M2.1853726715605717,-13.551171450126102 L5.058742467851175,-13.632191993096361 L5.528094749185445,-16.06137646898488" fill-opacity="0" stroke="black" stroke-width="1" />
<path d="M2.1853726715605717,13.551171450126102 L5.058742467851175,13.632191993096361 L5.528094749185445,16.06137646898488" fill-opacity="0" stroke="black" stroke-width="1" />
<path d="M2.1853726715605717,86.4488285498739 L5.058742467851175,86.36780800690363 L5.528094749185445,83.93862353101512" fill-opacity="0" stroke="black" stroke-width="1" />
<path d="M2.1853726715605717,-86.4488285498739 L5.058742467851175,-86.36780800690363 L5.528094749185445,-83.93862353101512" fill-opacity="0" stroke="black" stroke-width="1" />
<path d="M5.058742467851175,-13.632191993096361 L5.528094749185445,-16.06137646898488 L6.30626023732502,-17.22566699151819" fill-opacity="0" stroke="black" stroke-width="1" />
<path d="M5.058742467851175,13.632191993096361 L5.528094749185445,16.06137646898488 L6.30626023732502,17.22566699151819" fill-opacity="0" stroke="black" stroke-width="1" />
<path d="M5.058742467851175,86.36780800690363 L5.528094749185445,83.93862353101512 L6.30626023732502,82.77433300848182" fill-opacity="0" stroke="black" stroke-width="1" />
<path d="M5.058742467851175,-86.36780800690363 L5.528094749185445,-83.93862353101512 L6.30626023732502,-82.77433300848182" fill-opacity="0" stroke="black" stroke-width="1" />
<path d="M5.528094749185445,-16.06137646898488 L6.30626023732502,-17.22566699151819 L7.826352629817351,-19.98199047558448" fill-opacity="0" stroke="black" stroke-width="1" />
<path d="M5.528094749185445,16.06137646898488 L6.30626023732502,17.22566699151819 L7.826352629817351,19.98199047558448" fill-opacity="0" stroke="black" stroke-width="1" />
<path d="M5.528094749185445,83.93862353101512 L6.30626023732502,82.77433300848182 L7.826352629817351,80.01800952441552" fill-opacity="0" stroke="black" stroke-width="1" />
<path d="M5.528094749185445,-83.93862353101512 L6.30626023732502,-82.77433300848182 L7.826352629817351,-80.01800952441552" fill-opacity="0" stroke="black" stroke-width="1" />
<path d="M6.30626023732502,-17.22566699151819 L7.826352629817351,-19.98199047558448 L10.245987196662204,-20.599381838618914" fill-opacity="0" stroke="black" stroke-width="1" />
<path d="M6.30626023732502,17.22566699151819 L7.826352629817351,19.98199047558448 L10.245987196662204,20.599381838618914" fill-opacity="0" stroke="black" stroke-width="1" />
<path d="M6.30626023732502,82.77433300848182 L7.826352629817351,80.01800952441552 L10.245987196662204,79.40061816138109" fill-opacity="0" stroke="black" stroke-width="1" />
<path d="M6.30626023732502,-82.77433300848182 L7.826352629817351,-80.01800952441552 L10.245987196662204,-79.40061816138109" fill-opacity="0" stroke="black" stroke-width="1" />
<path d="M7.826352629817351,-19.98199047558448 L10.245987196662204,-20.599381838618914 L11.832950014471411,-22.603286343103044" fill-opacity="0" stroke="black" stroke-width="1" />
<path d="M7.826352629817351,19.98199047558448 L10.245987196662204,20.599381838618914 L11.832950014471411,22.603286343103044" fill-opacity="0" stroke="black" stroke-width="1" />
<path d="M7.826352629817351,80.01800952441552 L10.245987196662204,79.40061816138109 L11.832950014471411,77.39671365689696" fill-opacity="0" stroke="black" stroke-width="1" />
<path d="M7.826352629817351,-80.01800952441552 L10.245987196662204,-79.40061816138109 L11.832950014471411,-77.39671365689696" fill-opacity="0" stroke="black" stroke-width="1" />
<path d="M10.245987196662204,-20.599381838618914 L11.832950014471411,-22.603286343103044 L12.297592141604804,-23.643766273132755" fill-opacity="0" stroke="black" stroke-width="1" />
<path d="M10.245987196662204,20.599381838618914 L11.832950014471411,22.603286343103044 L12.297592141604804,23.643766273132755" fill-opacity="0" stroke="black" stroke-width="1" />
<path d="M10.245987196662204,79.40061816138109 L11.832950014471411,77.39671365689696 L12.297592141604804,76.35623372686725" fill-opacity="0" stroke="black" stroke-width="1" />
<path d="M10.245987196662204,-79.40061816138109 L11.832950014471411,-77.39671365689696 L12.297592141604804,-76.35623372686725" fill-opacity="0" stroke="black" stroke-width="1" />
<path d="M11.832950014471411,-22.603286343103044 L12.297592141604804,-23.643766273132755 L14.611872952691368,-24.468712348910557" fill-opacity="0" stroke="black" stroke-width="1" />
<path d="M11.832950014471411,22.603286343103044 L12.297592141604804,23.643766273132755 L14.611872952691368,24.468712348910557" fill-opacity="0" stroke="black" stroke-width="1" />
<path d="M11.832950014471411,77.39671365689696 L12.297592141604804,76.35623372686725 L14.611872952691368,75.53128765108944" fill-opacity="0" stroke="black" stroke-width="1" />
<path d="M11.832950014471411,-77.39671365689696 L12.297592141604804,-76.35623372686725 L14.611872952691368,-75.53128765108944" fill-opacity="0" stroke="black" stroke-width="1" />
<path d="M12.297592141604804,-23.643766273132755 L14.611872952691368,-24.468712348910557 L0.0,-31.0" fill-opacity="0" stroke="black" stroke-width="1" />
<path d="M12.297592141604804,23.643766273132755 L14.611872952691368,24.468712348910557 L0.0,31.0" fill-opacity="0" stroke="black" stroke-width="1" />
<path d="M12.297592141604804,76.35623372686725 L14.611872952691368,75.53128765108944 L0.0,69.0" fill-opacity="0" stroke="black" stroke-width="1" />
<path d="M12.297592141604804,-76.35623372686725 L14.611872952691368,-75.53128765108944 L0.0,-69.0" fill-opacity="0" stroke="black" stroke-width="1" />
<path d="M22.0,-50.0 L26.3699990169437,-42.18302270829976 L33.0,-50.0" fill-opacity="0" stroke="black" stroke-width="1" />
<path d="M22.0,50.0 L26.3699990169437,42.18302270829976 L33.0,50.0" fill-opacity="0" stroke="black" stroke-width="1" />
<path d="M22.0,50.0 L26.3699990169437,57.81697729170024 L33.0,50.0" fill-opacity="0" stroke="black" stroke-width="1" />
<path d="M22.0,-50.0 L26.3699990169437,-57.81697729170024 L33.0,-50.0" fill-opacity="0" stroke="black" stroke-width="1" />
<path d="M31.0,-31.0 L21.177235787047724,-28.24915032192804 L26.0,-26.0" fill-opacity="0" stroke="black" stroke-width="1" />
<path d="M31.0,31.0 L21.177235787047724,28.24915032192804 L26.0,26.0" fill-opacity="0" stroke="black" stroke-width="1" />
<path d="M31.0,69.0 L21.177235787047724,71.75084967807196 L26.0,74.0" fill-opacity="0" stroke="black" stroke-width="1" />
<path d="M31.0,-69.0 L21.177235787047724,-71.75084967807196 L26.0,-74.0" fill-opacity="0" stroke="black" stroke-width="1" />
<path d="M26.0,-26.0 L17.44423509392623,-24.787436942634404 L20.0,-20.0" fill-opacity="0" stroke="black" stroke-width="1" />
<path d="M26.0,26.0 L17.44423509392623,24.787436942634404 L20.0,20.0" fill-opacity="0" stroke="black" stroke-width="1" />
<path d="M26.0,74.0 L17.44423509392623,75.2125630573656 L20.0,80.0" fill-opacity="0" stroke="black" stroke-width="1" />
<path d="M26.0,-74.0 L17.44423509392623,-75.2125630573656 L20.0,-80.0" fill-opacity="0" stroke="black" stroke-width="1" />
<path d="M6.0,-6.0 L1.4430950828870637,-3.4348772803323544 L0.4619027430107916,-1.8481464103724643" fill-opacity="0" stroke="black" stroke-width="1" />
<path d="M6.0,6.0 L1.4430950828870637,3.4348772803323544 L0.4619027430107916,1.8481464103724643" fill-opacity="0" stroke="black" stroke-width="1" />
<path d="M6.0,94.0 L1.4430950828870637,96.56512271966764 L0.4619027430107916,98.15185358962754" fill-opacity="0" stroke="black" stroke-width="1" />
<path d="M6.0,-94.0 L1.4430950828870637,-96.56512271966764 L0.4619027430107916,-98.15185358962754" fill-opacity="0" stroke="black" stroke-width="1" />
<path d="M1.4430950828870637,-3.4348772803323544 L0.4619027430107916,-1.8481464103724643 L0.0,-0.0" fill-opacity="0" stroke="black" stroke-width="1" />
<path d="M1.4430950828870637,3.4348772803323544 L0.4619027430107916,1.8481464103724643 L0.0,-0.0" fill-opacity="0" stroke="black" stroke-width="1" />
<path d="M1.4430950828870637,96.56512271966764 L0.4619027430107916,98.15185358962754 L0.0,100.0" fill-opacity="0" stroke="black" stroke-width="1" />
<path d="M1.4430950828870637,-96.56512271966764 L0.4619027430107916,-98.15185358962754 L0.0,-100.0" fill-opacity="0" stroke="black" stroke-width="1" />
<path d="M0.0,90.0 L-2.1853726715605717,86.4488285498739 L-5.058742467851175,86.36780800690364" fill-opacity="0" stroke="black" stroke-width="1" />
<path d="M0.0,-10.0 L-2.1853726715605717,-13.551171450126102 L-5.058742467851175,-13.632191993096361" fill-opacity="0" stroke="black" stroke-width="1" />
<path d="M0.0,10.0 L-2.1853726715605717,13.551171450126105 L-5.058742467851175,13.632191993096356" fill-opacity="0" stroke="black" stroke-width="1" />
<path d="M0.0,-90.0 L-2.1853726715605717,-86.4488285498739 L-5.058742467851175,-86.36780800690363" fill-opacity="0" stroke="black" stroke-width="1" />
<path d="M-2.1853726715605717,86.4488285498739 L-5.058742467851175,86.36780800690364 L-5.528094749185445,83.93862353101512" fill-opacity="0" stroke="black" stroke-width="1" />
<path d="M-2.1853726715605717,-13.551171450126102 L-5.058742467851175,-13.632191993096361 L-5.528094749185445,-16.06137646898488" fill-opacity="0" stroke="black" stroke-width="1" />
<path d="M-2.1853726715605717,13.551171450126105 L-5.058742467851175,13.632191993096356 L-5.528094749185445,16.061376468984875" fill-opacity="0" stroke="black" stroke-width="1" />
<path d="M-2.1853726715605717,-86.4488285498739 L-5.058742467851175,-86.36780800690363 L-5.528094749185445,-83.93862353101512" fill-opacity="0" stroke="black" stroke-width="1" />
<path d="M-5.058742467851175,86.36780800690364 L-5.528094749185445,83.93862353101512 L-6.30626023732502,82.77433300848182" fill-opacity="0" stroke="black" stroke-width="1" />
<path d="M-5.058742467851175,-13.632191993096361 L-5.528094749185445,-16.06137646898488 L-6.30626023732502,-17.22566699151819" fill-opacity="0" stroke="black" stroke-width="1" />
<path d="M-5.058742467851175,13.632191993096356 L-5.528094749185445,16.061376468984875 L-6.30626023732502,17.22566699151818" fill-opacity="0" stroke="black" stroke-width="1" />
<path d="M-5.058742467851175,-86.36780800690363 L-5.528094749185445,-83.93862353101512 L-6.30626023732502,-82.77433300848182" fill-opacity="0" stroke="black" stroke-width="1" />
<path d="M-5.528094749185445,83.93862353101512 L-6.30626023732502,82.77433300848182 L-7.826352629817351,80.01800952441552" fill-opacity="0" stroke="black" stroke-width="1" />
<path d="M-5.528094749185445,-16.06137646898488 L-6.30626023732502,-17.22566699151819 L-7.826352629817351,-19.98199047558448" fill-opacity="0" stroke="black" stroke-width="1" />
<path d="M-5.528094749185445,16.061376468984875 L-6.30626023732502,17.22566699151818 L-7.826352629817351,19.98199047558448" fill-opacity="0" stroke="black" stroke-width="1" />
<path d="M-5.528094749185445,-83.93862353101512 L-6.30626023732502,-82.77433300848182 L-7.826352629817351,-80.01800952441552" fill-opacity="0" stroke="black" stroke-width="1" />
<path d="M-6.30626023732502,82.77433300848182 L-7.826352629817351,80.01800952441552 L-10.245987196662204,79.40061816138109" fill-opacity="0" stroke="black" stroke-width="1" />
<path d="M-6.30626023732502,-17.22566699151819 L-7.826352629817351,-19.98199047558448 L-10.245987196662204,-20.599381838618914" fill-opacity="0" stroke="black" stroke-width="1" />
<path d="M-6.30626023732502,17.22566699151818 L-7.826352629817351,19.98199047558448 L-10.245987196662204,20.59938183861891" fill-opacity="0" stroke="black" stroke-width="1" />
<path d="M-6.30626023732502,-82.77433300848182 L-7.826352629817351,-80.01800952441552 L-10.245987196662204,-79.40061816138109" fill-opacity="0" stroke="black" stroke-width="1" />
<path d="M-7.826352629817351,80.01800952441552 L-10.245987196662204,79.40061816138109 L-11.832950014471411,77.39671365689696" fill-opacity="0" stroke="black" stroke-width="1" />
<path d="M-7.826352629817351,-19.98199047558448 L-10.245987196662204,-20.599381838618914 L-11.832950014471411,-22.603286343103044" fill-opacity="0" stroke="black" stroke-width="1" />
<path d="M-7.826352629817351,19.98199047558448 L-10.245987196662204,20.59938183861891 L-11.832950014471411,22.603286343103036" fill-opacity="0" stroke="black" stroke-width="1" />
<path d="M-7.826352629817351,-80.01800952441552 L-10.245987196662204,-79.40061816138109 L-11.832950014471411,-77.39671365689696" fill-opacity="0" stroke="black" stroke-width="1" />
<path d="M-10.245987196662204,79.40061816138109 L-11.832950014471411,77.39671365689696 L-12.297592141604804,76.35623372686725" fill-opacity="0" stroke="black" stroke-width="1" />
<path d="M-10.245987196662204,-20.599381838618914 L-11.832950014471411,-22.603286343103044 L-12.297592141604804,-23.643766273132755" fill-opacity="0" stroke="black" stroke-width="1" />
<path d="M-10.245987196662204,20.59938183861891 L-11.832950014471411,22.603286343103036 L-12.297592141604804,23.643766273132755" fill-opacity="0" stroke="black" stroke-width="1" />
<path d="M-10.245987196662204,-79.40061816138109 L-11.832950014471411,-77.39671365689696 L-12.297592141604804,-76.35623372686725" fill-opacity="0" stroke="black" stroke-width="1" />
<path d="M-11.832950014471411,77.39671365689696 L-12.297592141604804,76.35623372686725 L-14.611872952691368,75.53128765108944" fill-opacity="0" stroke="black" stroke-width="1" />
<path d="M-11.832950014471411,-22.603286343103044 L-12.297592141604804,-23.643766273132755 L-14.611872952691368,-24.468712348910557" fill-opacity="0" stroke="black" stroke-width="1" />
<path d="M-11.832950014471411,22.603286343103036 L-12.297592141604804,23.643766273132755 L-14.611872952691368,24.468712348910557" fill-opacity="0" stroke="black" stroke-width="1" />
<path d="M-11.832950014471411,-77.39671365689696 L-12.297592141604804,-76.35623372686725 L-14.611872952691368,-75.53128765108944" fill-opacity="0" stroke="black" stroke-width="1" />
<path d="M-12.297592141604804,76.35623372686725 L-14.611872952691368,75.53128765108944 L0.0,69.0" fill-opacity="0" stroke="black" stroke-width="1" />
<path d="M-12.297592141604804,-23.643766273132755 L-14.611872952691368,-24.468712348910557 L0.0,-31.0" fill-opacity="0" stroke="black" stroke-width="1" />
<path d="M-12.297592141604804,23.643766273132755 L-14.611872952691368,24.468712348910557 L0.0,31.0" fill-opacity="0" stroke="black" stroke-width="1" />
<path d="M-12.297592141604804,-76.35623372686725 L-14.611872952691368,-75.53128765108944 L0.0,-69.0" fill-opacity="0" stroke="black" stroke-width="1" />
<path d="M-22.0,50.0 L-26.3699990169437,57.81697729170024 L-33.0,50.0" fill-opacity="0" stroke="black" stroke-width="1" />
<path d="M-22.0,-50.0 L-26.3699990169437,-42.18302270829976 L-33.0,-50.0" fill-opacity="0" stroke="black" stroke-width="1" />
<path d="M-22.0,50.0 L-26.3699990169437,42.18302270829976 L-33.0,50.0" fill-opacity="0" stroke="black" stroke-width="1" />
<path d="M-22.0,-50.0 L-26.3699990169437,-57.81697729170024 L-33.0,-50.0" fill-opacity="0" stroke="black" stroke-width="1" />
<path d="M-31.0,69.0 L-21.177235787047724,71.75084967807196 L-26.0,74.0" fill-opacity="0" stroke="black" stroke-width="1" />
<path d="M-31.0,-31.0 L-21.177235787047724,-28.24915032192804 L-26.0,-26.0" fill-opacity="0" stroke="black" stroke-width="1" />
<path d="M-31.0,31.0 L-21.177235787047724,28.24915032192804 L-26.0,26.0" fill-opacity="0" stroke="black" stroke-width="1" />
<path d="M-31.0,-69.0 L-21.177235787047724,-71.75084967807196 L-26.0,-74.0" fill-opacity="0" stroke="black" stroke-width="1" />
<path d="M-26.0,74.0 L-17.44423509392623,75.2125630573656 L-20.0,80.0" fill-opacity="0" stroke="black" stroke-width="1" />
<path d="M-26.0,-26.0 L-17.44423509392623,-24.787436942634404 L-20.0,-20.0" fill-opacity="0" stroke="black" stroke-width="1" />
<path d="M-26.0,26.0 L-17.44423509392623,24.7874369426344 L-20.0,20.0" fill-opacity="0" stroke="black" stroke-width="1" />
<path d="M-26.0,-74.0 L-17.44423509392623,-75.2125630573656 L-20.0,-80.0" fill-opacity="0" stroke="black" stroke-width="1" />
<path d="M-6.0,94.0 L-1.4430950828870637,96.56512271966764 L-0.4619027430107916,98.15185358962754" fill-opacity="0" stroke="black" stroke-width="1" />
<path d="M-6.0,-6.0 L-1.4430950828870637,-3.4348772803323544 L-0.4619027430107916,-1.8481464103724643" fill-opacity="0" stroke="black" stroke-width="1" />
<path d="M-6.0,6.0 L-1.4430950828870637,3.4348772803323584 L-0.4619027430107916,1.8481464103724647" fill-opacity="0" stroke="black" stroke-width="1" />
<path d="M-6.0,-94.0 L-1.4430950828870637,-96.56512271966764 L-0.4619027430107916,-98.15185358962754" fill-opacity="0" stroke="black" stroke-width="1" />
<path d="M-1.4430950828870637,96.56512271966764 L-0.4619027430107916,98.15185358962754 L0.0,100.0" fill-opacity="0" stroke="black" stroke-width="1" />
<path d="M-1.4430950828870637,-3.4348772803323544 L-0.4619027430107916,-1.8481464103724643 L0.0,-0.0" fill-opacity="0" stroke="black" stroke-width="1" />
<path d="M-1.4430950828870637,3.4348772803323584 L-0.4619027430107916,1.8481464103724647 L0.0,-0.0" fill-opacity="0" stroke="black" stroke-width="1" />
<path d="M-1.4430950828870637,-96.56512271966764 L-0.4619027430107916,-98.15185358962754 L0.0,-100.0" fill-opacity="0" stroke="black" stroke-width="1" />
<path d="M-90.0,-0.0 L-86.4488285498739,-2.1853726715605717 L-86.36780800690363,-5.058742467851175" fill-opacity="0" stroke="black" stroke-width="1" />
<path d="M-90.0,-0.0 L-86.4488285498739,2.1853726715605717 L-86.36780800690363,5.058742467851175" fill-opacity="0" stroke="black" stroke-width="1" />
<path d="M-86.4488285498739,-2.1853726715605717 L-86.36780800690363,-5.058742467851175 L-83.93862353101512,-5.528094749185445" fill-opacity="0" stroke="black" stroke-width="1" />
<path d="M-86.4488285498739,2.1853726715605717 L-86.36780800690363,5.058742467851175 L-83.93862353101512,5.528094749185445" fill-opacity="0" stroke="black" stroke-width="1" />
<path d="M-86.36780800690363,-5.058742467851175 L-83.93862353101512,-5.528094749185445 L-82.77433300848182,-6.30626023732502" fill-opacity="0" stroke="black" stroke-width="1" />
<path d="M-86.36780800690363,5.058742467851175 L-83.93862353101512,5.528094749185445 L-82.77433300848182,6.30626023732502" fill-opacity="0" stroke="black" stroke-width="1" />
<path d="M-83.93862353101512,-5.528094749185445 L-82.77433300848182,-6.30626023732502 L-80.01800952441552,-7.826352629817351" fill-opacity="0" stroke="black" stroke-width="1" />
<path d="M-83.93862353101512,5.528094749185445 L-82.77433300848182,6.30626023732502 L-80.01800952441552,7.826352629817351" fill-opacity="0" stroke="black" stroke-width="1" />
<path d="M-82.77433300848182,-6.30626023732502 L-80.01800952441552,-7.826352629817351 L-79.40061816138109,-10.245987196662204" fill-opacity="0" stroke="black" stroke-width="1" />
<path d="M-82.77433300848182,6.30626023732502 L-80.01800952441552,7.826352629817351 L-79.40061816138109,10.245987196662204" fill-opacity="0" stroke="black" stroke-width="1" />
<path d="M-80.01800952441552,-7.826352629817351 L-79.40061816138109,-10.245987196662204 L-77.39671365689696,-11.832950014471411" fill-opacity="0" stroke="black" stroke-width="1" />
<path d="M-80.01800952441552,7.826352629817351 L-79.40061816138109,10.245987196662204 L-77.39671365689696,11.832950014471411" fill-opacity="0" stroke="black" stroke-width="1" />
<path d="M-79.40061816138109,-10.245987196662204 L-77.39671365689696,-11.832950014471411 L-76.35623372686725,-12.297592141604804" fill-opacity="0" stroke="black" stroke-width="1" />
<path d="M-79.40061816138109,10.245987196662204 L-77.39671365689696,11.832950014471411 L-76.35623372686725,12.297592141604804" fill-opacity="0" stroke="black" stroke-width="1" />
<path d="M-77.39671365689696,-11.832950014471411 L-76.35623372686725,-12.297592141604804 L-75.53128765108944,-14.611872952691368" fill-opacity="0" stroke="black" stroke-width="1" />
<path d="M-77.39671365689696,11.832950014471411 L-76.35623372686725,12.297592141604804 L-75.53128765108944,14.611872952691368" fill-opacity="0" stroke="black" stroke-width="1" />
<path d="M-76.35623372686725,-12.297592141604804 L-75.53128765108944,-14.611872952691368 L-69.0,-0.0" fill-opacity="0" stroke="black" stroke-width="1" />
<path d="M-76.35623372686725,12.297592141604804 L-75.53128765108944,14.611872952691368 L-69.0,-0.0" fill-opacity="0" stroke="black" stroke-width="1" />
<path d="M-54.0,-46.0 L-69.0,-31.0 L-71.75084967807196,-21.177235787047724" fill-opacity="0" stroke="black" stroke-width="1" />
<path d="M-54.0,46.0 L-69.0,31.0 L-71.75084967807196,21.177235787047724" fill-opacity="0" stroke="black" stroke-width="1" />
<path d="M-50.0,-50.0 L-54.0,-46.0 L-69.0,-31.0" fill-opacity="0" stroke="black" stroke-width="1" />
<path d="M-50.0,50.0 L-54.0,46.0 L-69.0,31.0" fill-opacity="0" stroke="black" stroke-width="1" />
<path d="M-50.0,-22.0 L-57.81697729170024,-26.3699990169437 L-50.0,-33.0" fill-opacity="0" stroke="black" stroke-width="1" />
<path d="M-50.0,22.0 L-57.81697729170024,26.3699990169437 L-50.0,33.0" fill-opacity="0" stroke="black" stroke-width="1" />
<path d="M-69.0,-31.0 L-71.75084967807196,-21.177235787047724 L-74.0,-26.0" fill-opacity="0" stroke="black" stroke-width="1" />
<path d="M-69.0,31.0 L-71.75084967807196,21.177235787047724 L-74.0,26.0" fill-opacity="0" stroke="black" stroke-width="1" />
<path d="M-74.0,-26.0 L-75.2125630573656,-17.44423509392623 L-80.0,-20.0" fill-opacity="0" stroke="black" stroke-width="1" />
<path d="M-74.0,26.0 L-75.2125630573656,17.44423509392623 L-80.0,20.0" fill-opacity="0" stroke="black" stroke-width="1" />
<path d="M-75.2125630573656,-17.44423509392623 L-80.0,-20.0 L-89.0,-11.0" fill-opacity="0" stroke="black" stroke-width="1" />
<path d="M-75.2125630573656,17.44423509392623 L-80.0,20.0 L-89.0,11.0" fill-opacity="0" stroke="black" stroke-width="1" />
<path d="M-80.0,-20.0 L-89.0,-11.0 L-92.0,-8.0" fill-opacity="0" stroke="black" stroke-width="1" />
<path d="M-80.0,20.0 L-89.0,11.0 L-92.0,8.0" fill-opacity="0" stroke="black" stroke-width="1" />
<path d="M-89.0,-11.0 L-92.0,-8.0 L-94.0,-6.0" fill-opacity="0" stroke="black" stroke-width="1" />
<path d="M-89.0,11.0 L-92.0,8.0 L-94.0,6.0" fill-opacity="0" stroke="black" stroke-width="1" />
<path d="M-92.0,-8.0 L-94.0,-6.0 L-96.56512271966764,-1.4430950828870637" fill-opacity="0" stroke="black" stroke-width="1" />
<path d="M-92.0,8.0 L-94.0,6.0 L-96.56512271966764,1.4430950828870637" fill-opacity="0" stroke="black" stroke-width="1" />
<path d="M-94.0,-6.0 L-96.56512271966764,-1.4430950828870637 L-98.15185358962754,-0.4619027430107916" fill-opacity="0" stroke="black" stroke-width="1" />
<path d="M-94.0,6.0 L-96.56512271966764,1.4430950828870637 L-98.15185358962754,0.4619027430107916" fill-opacity="0" stroke="black" stroke-width="1" />
<path d="M-96.56512271966764,-1.4430950828870637 L-98.15185358962754,-0.4619027430107916 L-100.0,-0.0" fill-opacity="0" stroke="black" stroke-width="1" />
<path d="M-96.56512271966764,1.4430950828870637 L-98.15185358962754,0.4619027430107916 L-100.0,-0.0" fill-opacity="0" stroke="black" stroke-width="1" />
</svg>