<?xml version="1.0" encoding="UTF-8"?>
<svg xmlns="http://www.w3.org/2000/svg" xmlns:xlink="http://www.w3.org/1999/xlink"
     width="250" height="250" viewBox="-125.0 -125.0 250 250">
<defs>
</defs>
<path d="M50.0,-26.0 L47.19840632423853,-32.59115342926859 L50.0,-48.0" fill="pink" fill-opacity="0.6" stroke="black" stroke-width="1" />
<path d="M50.0,26.0 L47.19840632423853,32.59115342926859 L50.0,48.0" fill="green" fill-opacity="0.6" stroke="black" stroke-width="1" />
<path d="M48.0,50.0 L48.0,52.0 L47.0,53.0" fill="red" fill-opacity="0.6" stroke="black" stroke-width="1" />
<path d="M48.0,-50.0 L48.0,-52.0 L47.0,-53.0" fill="green" fill-opacity="0.6" stroke="black" stroke-width="1" />
<path d="M48.0,52.0 L47.0,53.0 L21.55558785123874,73.5431444033382" fill="purple" fill-opacity="0.6" stroke="black" stroke-width="1" />
<path d="M48.0,-52.0 L47.0,-53.0 L21.55558785123874,-73.5431444033382" fill="brown" fill-opacity="0.6" stroke="black" stroke-width="1" />
<path d="M47.0,-47.0 L26.456855596661793,-21.55558785123874 L26.0,-26.0" fill="blue" fill-opacity="0.6" stroke="black" stroke-width="1" />
<path d="M47.0,47.0 L26.456855596661793,21.55558785123874 L26.0,26.0" fill="blue" fill-opacity="0.6" stroke="black" stroke-width="1" />
<path d="M21.55558785123874,73.5431444033382 L26.0,74.0 L18.44631015632218,78.52859952313779" fill="black" fill-opacity="0.6" stroke="black" stroke-width="1" />
<path d="M21.55558785123874,-73.5431444033382 L26.0,-74.0 L18.44631015632218,-78.52859952313779" fill="yellow" fill-opacity="0.6" stroke="black" stroke-width="1" />
<path d="M26.0,-26.0 L21.47140047686222,-18.44631015632218 L19.769980330061635,-14.354877774791428" fill="brown" fill-opacity="0.6" stroke="black" stroke-width="1" />
<path d="M26.0,26.0 L21.47140047686222,18.44631015632218 L19.769980330061635,14.354877774791428" fill="brown" fill-opacity="0.6" stroke="black" stroke-width="1" />
<path d="M21.47140047686222,-18.44631015632218 L19.769980330061635,-14.354877774791428 L18.0,-18.0" fill="black" fill-opacity="0.6" stroke="black" stroke-width="1" />
<path d="M21.47140047686222,18.44631015632218 L19.769980330061635,14.354877774791428 L18.0,18.0" fill="yellow" fill-opacity="0.6" stroke="black" stroke-width="1" />
<path d="M14.354877774791428,80.23001966993837 L18.0,82.0 L16.0,84.0" fill="brown" fill-opacity="0.6" stroke="black" stroke-width="1" />
<path d="M14.354877774791428,-80.23001966993837 L18.0,-82.0 L16.0,-84.0" fill="red" fill-opacity="0.6" stroke="black" stroke-width="1" />
<path d="M18.0,82.0 L16.0,84.0 L12.0,88.0" fill="green" fill-opacity="0.6" stroke="black" stroke-width="1" />
<path d="M18.0,-82.0 L16.0,-84.0 L12.0,-88.0" fill="purple" fill-opacity="0.6" stroke="black" stroke-width="1" />
<path d="M16.0,84.0 L12.0,88.0 L3.047962708915141,96.73181172147711" fill="pink" fill-opacity="0.6" stroke="black" stroke-width="1" />
<path d="M16.0,-84.0 L12.0,-88.0 L3.047962708915141,-96.73181172147711" fill="pink" fill-opacity="0.6" stroke="black" stroke-width="1" />
<path d="M12.0,-12.0 L3.2681882785228877,-3.047962708915141 L1.608031182299369,-1.0679233007225735" fill="green" fill-opacity="0.6" stroke="black" stroke-width="1" />
<path d="M12.0,12.0 L3.2681882785228877,3.047962708915141 L1.608031182299369,1.0679233007225735" fill="brown" fill-opacity="0.6" stroke="black" stroke-width="1" />
<path d="M3.2681882785228877,-3.047962708915141 L1.608031182299369,-1.0679233007225735 L0.0,-0.0" fill="yellow" fill-opacity="0.6" stroke="black" stroke-width="1" />
<path d="M3.2681882785228877,3.047962708915141 L1.608031182299369,1.0679233007225735 L0.0,-0.0" fill="green" fill-opacity="0.6" stroke="black" stroke-width="1" />
<path d="M-50.0,-26.0 L-47.19840632423853,-32.59115342926859 L-50.0,-48.0" fill="black" fill-opacity="0.6" stroke="black" stroke-width="1" />
<path d="M-50.0,26.0 L-47.19840632423853,32.59115342926859 L-50.0,48.0" fill="purple" fill-opacity="0.6" stroke="black" stroke-width="1" />
<path d="M-48.0,50.0 L-48.0,52.0 L-47.0,53.0" fill="blue" fill-opacity="0.6" stroke="black" stroke-width="1" />
<path d="M-48.0,-50.0 L-48.0,-52.0 L-47.0,-53.0" fill="brown" fill-opacity="0.6" stroke="black" stroke-width="1" />
<path d="M-48.0,52.0 L-47.0,53.0 L-21.55558785123874,73.5431444033382" fill="purple" fill-opacity="0.6" stroke="black" stroke-width="1" />
<path d="M-48.0,-52.0 L-47.0,-53.0 L-21.55558785123874,-73.5431444033382" fill="green" fill-opacity="0.6" stroke="black" stroke-width="1" />
<path d="M-47.0,-47.0 L-26.456855596661793,-21.55558785123874 L-26.0,-26.0" fill="black" fill-opacity="0.6" stroke="black" stroke-width="1" />
<path d="M-47.0,47.0 L-26.456855596661793,21.55558785123874 L-26.0,26.0" fill="blue" fill-opacity="0.6" stroke="black" stroke-width="1" />
<path d="M-21.55558785123874,73.5431444033382 L-26.0,74.0 L-18.44631015632218,78.52859952313779" fill="pink" fill-opacity="0.6" stroke="black" stroke-width="1" />
<path d="M-21.55558785123874,-73.5431444033382 L-26.0,-74.0 L-18.44631015632218,-78.52859952313779" fill="purple" fill-opacity="0.6" stroke="black" stroke-width="1" />
<path d="M-26.0,-26.0 L-21.47140047686222,-18.44631015632218 L-19.769980330061635,-14.354877774791428" fill="yellow" fill-opacity="0.6" stroke="black" stroke-width="1" />
<path d="M-26.0,26.0 L-21.47140047686222,18.44631015632218 L-19.769980330061635,14.354877774791428" fill="brown" fill-opacity="0.6" stroke="black" stroke-width="1" />
<path d="M-21.47140047686222,-18.44631015632218 L-19.769980330061635,-14.354877774791428 L-18.0,-18.0" fill="black" fill-opacity="0.6" stroke="black" stroke-width="1" />
<path d="M-21.47140047686222,18.44631015632218 L-19.769980330061635,14.354877774791428 L-18.0,18.0" fill="green" fill-opacity="0.6" stroke="black" stroke-width="1" />
<path d="M-14.354877774791428,80.23001966993837 L-18.0,82.0 L-16.0,84.0" fill="red" fill-opacity="0.6" stroke="black" stroke-width="1" />
<path d="M-14.354877774791428,-80.23001966993837 L-18.0,-82.0 L-16.0,-84.0" fill="yellow" fill-opacity="0.6" stroke="black" stroke-width="1" />
<path d="M-18.0,82.0 L-16.0,84.0 L-12.0,88.0" fill="pink" fill-opacity="0.6" stroke="black" stroke-width="1" />
<path d="M-18.0,-82.0 L-16.0,-84.0 L-12.0,-88.0" fill="black" fill-opacity="0.6" stroke="black" stroke-width="1" />
<path d="M-16.0,84.0 L-12.0,88.0 L-3.047962708915141,96.73181172147711" fill="red" fill-opacity="0.6" stroke="black" stroke-width="1" />
<path d="M-16.0,-84.0 L-12.0,-88.0 L-3.047962708915141,-96.73181172147711" fill="brown" fill-opacity="0.6" stroke="black" stroke-width="1" />
<path d="M-12.0,-12.0 L-3.2681882785228877,-3.047962708915141 L-1.608031182299369,-1.0679233007225735" fill="blue" fill-opacity="0.6" stroke="black" stroke-width="1" />
<path d="M-12.0,12.0 L-3.2681882785228877,3.047962708915141 L-1.608031182299369,1.0679233007225735" fill="orange" fill-opacity="0.6" stroke="black" stroke-width="1" />
<path d="M-3.2681882785228877,-3.047962708915141 L-1.608031182299369,-1.0679233007225735 L0.0,-0.0" fill="red" fill-opacity="0.6" stroke="black" stroke-width="1" />
<path d="M-3.2681882785228877,3.047962708915141 L-1.608031182299369,1.0679233007225735 L0.0,-0.0" fill="orange" fill-opacity="0.6" stroke="black" stroke-width="1" />
<path d="M50.0,26.0 L52.80159367576147,32.59115342926859 L50.0,48.0" fill="pink" fill-opacity="0.6" stroke="black" stroke-width="1" />
<path d="M50.0,-26.0 L52.80159367576147,-32.59115342926859 L50.0,-48.0" fill="brown" fill-opacity="0.6" stroke="black" stroke-width="1" />
<path d="M50.0,48.0 L52.0,48.0 L53.0,47.0" fill="brown" fill-opacity="0.6" stroke="black" stroke-width="1" />
<path d="M50.0,-48.0 L52.0,-48.0 L53.0,-47.0" fill="black" fill-opacity="0.6" stroke="black" stroke-width="1" />
<path d="M52.0,48.0 L53.0,47.0 L73.5431444033382,21.55558785123874" fill="pink" fill-opacity="0.6" stroke="black" stroke-width="1" />
<path d="M52.0,-48.0 L53.0,-47.0 L73.5431444033382,-21.55558785123874" fill="pink" fill-opacity="0.6" stroke="black" stroke-width="1" />
<path d="M53.0,47.0 L73.5431444033382,21.55558785123874 L74.0,26.0" fill="pink" fill-opacity="0.6" stroke="black" stroke-width="1" />
<path d="M53.0,-47.0 L73.5431444033382,-21.55558785123874 L74.0,-26.0" fill="orange" fill-opacity="0.6" stroke="black" stroke-width="1" />
<path d="M73.5431444033382,21.55558785123874 L74.0,26.0 L78.52859952313779,18.44631015632218" fill="blue" fill-opacity="0.6" stroke="black" stroke-width="1" />
<path d="M73.5431444033382,-21.55558785123874 L74.0,-26.0 L78.52859952313779,-18.44631015632218" fill="purple" fill-opacity="0.6" stroke="black" stroke-width="1" />
<path d="M74.0,26.0 L78.52859952313779,18.44631015632218 L80.23001966993837,14.354877774791428" fill="red" fill-opacity="0.6" stroke="black" stroke-width="1" />
<path d="M74.0,-26.0 L78.52859952313779,-18.44631015632218 L80.23001966993837,-14.354877774791428" fill="brown" fill-opacity="0.6" stroke="black" stroke-width="1" />
<path d="M78.52859952313779,18.44631015632218 L80.23001966993837,14.354877774791428 L82.0,18.0" fill="green" fill-opacity="0.6" stroke="black" stroke-width="1" />
<path d="M78.52859952313779,-18.44631015632218 L80.23001966993837,-14.354877774791428 L82.0,-18.0" fill="brown" fill-opacity="0.6" stroke="black" stroke-width="1" />
<path d="M80.23001966993837,14.354877774791428 L82.0,18.0 L84.0,16.0" fill="purple" fill-opacity="0.6" stroke="black" stroke-width="1" />
<path d="M80.23001966993837,-14.354877774791428 L82.0,-18.0 L84.0,-16.0" fill="blue" fill-opacity="0.6" stroke="black" stroke-width="1" />
<path d="M82.0,18.0 L84.0,16.0 L88.0,12.0" fill="purple" fill-opacity="0.6" stroke="black" stroke-width="1" />
<path d="M82.0,-18.0 L84.0,-16.0 L88.0,-12.0" fill="brown" fill-opacity="0.6" stroke="black" stroke-width="1" />
<path d="M84.0,16.0 L88.0,12.0 L96.73181172147711,3.047962708915141" fill="pink" fill-opacity="0.6" stroke="black" stroke-width="1" />
<path d="M84.0,-16.0 L88.0,-12.0 L96.73181172147711,-3.047962708915141" fill="black" fill-opacity="0.6" stroke="black" stroke-width="1" />
<path d="M88.0,12.0 L96.73181172147711,3.047962708915141 L98.39196881770063,1.0679233007225735" fill="brown" fill-opacity="0.6" stroke="black" stroke-width="1" />
<path d="M88.0,-12.0 L96.73181172147711,-3.047962708915141 L98.39196881770063,-1.0679233007225735" fill="pink" fill-opacity="0.6" stroke="black" stroke-width="1" />
<path d="M96.73181172147711,3.047962708915141 L98.39196881770063,1.0679233007225735 L100.0,-0.0" fill="blue" fill-opacity="0.6" stroke="black" stroke-width="1" />
<path d="M96.73181172147711,-3.047962708915141 L98.39196881770063,-1.0679233007225735 L100.0,-0.0" fill="green" fill-opacity="0.6" stroke="black" stroke-width="1" />
<path d="M26.0,-50.0 L32.59115342926859,-47.19840632423853 L48.0,-50.0" fill="pink" fill-opacity="0.6" stroke="black" stroke-width="1" />
<path d="M26.0,50.0 L32.59115342926859,47.19840632423853 L48.0,50.0" fill="orange" fill-opacity="0.6" stroke="black" stroke-width="1" />
<path d="M26.0,50.0 L32.59115342926859,52.80159367576147 L48.0,50.0" fill="green" fill-opacity="0.6" stroke="black" stroke-width="1" />
<path d="M26.0,-50.0 L32.59115342926859,-52.80159367576147 L48.0,-50.0" fill="brown" fill-opacity="0.6" stroke="black" stroke-width="1" />
<path d="M47.0,-47.0 L21.55558785123874,-26.456855596661793 L26.0,-26.0" fill="brown" fill-opacity="0.6" stroke="black" stroke-width="1" />
<path d="M47.0,47.0 L21.55558785123874,26.456855596661793 L26.0,26.0" fill="yellow" fill-opacity="0.6" stroke="black" stroke-width="1" />
<path d="M47.0,53.0 L21.55558785123874,73.5431444033382 L26.0,74.0" fill="brown" fill-opacity="0.6" stroke="black" stroke-width="1" />
<path d="M47.0,-53.0 L21.55558785123874,-73.5431444033382 L26.0,-74.0" fill="yellow" fill-opacity="0.6" stroke="black" stroke-width="1" />
<path d="M26.0,-26.0 L18.44631015632218,-21.47140047686222 L14.354877774791428,-19.769980330061635" fill="black" fill-opacity="0.6" stroke="black" stroke-width="1" />
<path d="M26.0,26.0 L18.44631015632218,21.47140047686222 L14.354877774791428,19.769980330061635" fill="blue" fill-opacity="0.6" stroke="black" stroke-width="1" />
<path d="M26.0,74.0 L18.44631015632218,78.52859952313779 L14.354877774791428,80.23001966993837" fill="green" fill-opacity="0.6" stroke="black" stroke-width="1" />
<path d="M26.0,-74.0 L18.44631015632218,-78.52859952313779 L14.354877774791428,-80.23001966993837" fill="blue" fill-opacity="0.6" stroke="black" stroke-width="1" />
<path d="M18.44631015632218,-21.47140047686222 L14.354877774791428,-19.769980330061635 L18.0,-18.0" fill="blue" fill-opacity="0.6" stroke="black" stroke-width="1" />
<path d="M18.44631015632218,21.47140047686222 L14.354877774791428,19.769980330061635 L18.0,18.0" fill="yellow" fill-opacity="0.6" stroke="black" stroke-width="1" />
<path d="M18.44631015632218,78.52859952313779 L14.354877774791428,80.23001966993837 L18.0,82.0" fill="purple" fill-opacity="0.6" stroke="black" stroke-width="1" />
<path d="M18.44631015632218,-78.52859952313779 L14.354877774791428,-80.23001966993837 L18.0,-82.0" fill="pink" fill-opacity="0.6" stroke="black" stroke-width="1" />
<path d="M12.0,-12.0 L3.047962708915141,-3.2681882785228877 L1.0679233007225735,-1.608031182299369" fill="brown" fill-opacity="0.6" stroke="black" stroke-width="1" />
<path d="M12.0,12.0 L3.047962708915141,3.2681882785228877 L1.0679233007225735,1.608031182299369" fill="yellow" fill-opacity="0.6" stroke="black" stroke-width="1" />
<path d="M12.0,88.0 L3.047962708915141,96.73181172147711 L1.0679233007225735,98.39196881770063" fill="red" fill-opacity="0.6" stroke="black" stroke-width="1" />
<path d="M12.0,-88.0 L3.047962708915141,-96.73181172147711 L1.0679233007225735,-98.39196881770063" fill="orange" fill-opacity="0.6" stroke="black" stroke-width="1" />
<path d="M3.047962708915141,-3.2681882785228877 L1.0679233007225735,-1.608031182299369 L0.0,-0.0" fill="green" fill-opacity="0.6" stroke="black" stroke-width="1" />
<path d="M3.047962708915141,3.2681882785228877 L1.0679233007225735,1.608031182299369 L0.0,-0.0" fill="purple" fill-opacity="0.6" stroke="black" stroke-width="1" />
<path d="M3.047962708915141,96.73181172147711 L1.0679233007225735,98.39196881770063 L0.0,100.0" fill="green" fill-opacity="0.6" stroke="black" stroke-width="1" />
<path d="M3.047962708915141,-96.73181172147711 L1.0679233007225735,-98.39196881770063 L0.0,-100.0" fill="yellow" fill-opacity="0.6" stroke="black" stroke-width="1" />
<path d="M-26.0,50.0 L-32.59115342926859,52.80159367576147 L-48.0,50.0" fill="blue" fill-opacity="0.6" stroke="black" stroke-width="1" />
<path d="M-26.0,-50.0 L-32.59115342926859,-47.19840632423853 L-48.0,-50.0" fill="yellow" fill-opacity="0.6" stroke="black" stroke-width="1" />
<path d="M-26.0,50.0 L-32.59115342926859,47.19840632423853 L-48.0,50.0" fill="black" fill-opacity="0.6" stroke="black" stroke-width="1" />
<path d="M-26.0,-50.0 L-32.59115342926859,-52.80159367576147 L-48.0,-50.0" fill="orange" fill-opacity="0.6" stroke="black" stroke-width="1" />
<path d="M-47.0,53.0 L-21.55558785123874,73.5431444033382 L-26.0,74.0" fill="black" fill-opacity="0.6" stroke="black" stroke-width="1" />
<path d="M-47.0,-47.0 L-21.55558785123874,-26.456855596661793 L-26.0,-26.0" fill="black" fill-opacity="0.6" stroke="black" stroke-width="1" />
<path d="M-47.0,47.0 L-21.55558785123874,26.456855596661796 L-26.0,26.0" fill="brown" fill-opacity="0.6" stroke="black" stroke-width="1" />
<path d="M-47.0,-53.0 L-21.55558785123874,-73.5431444033382 L-26.0,-74.0" fill="yellow" fill-opacity="0.6" stroke="black" stroke-width="1" />
<path d="M-26.0,74.0 L-18.44631015632218,78.52859952313779 L-14.354877774791428,80.23001966993837" fill="green" fill-opacity="0.6" stroke="black" stroke-width="1" />
<path d="M-26.0,-26.0 L-18.44631015632218,-21.47140047686222 L-14.354877774791428,-19.769980330061635" fill="blue" fill-opacity="0.6" stroke="black" stroke-width="1" />
<path d="M-26.0,26.0 L-18.44631015632218,21.471400476862215 L-14.354877774791428,19.769980330061628" fill="pink" fill-opacity="0.6" stroke="black" stroke-width="1" />
<path d="M-26.0,-74.0 L-18.44631015632218,-78.52859952313779 L-14.354877774791428,-80.23001966993837" fill="blue" fill-opacity="0.6" stroke="black" stroke-width="1" />
<path d="M-18.44631015632218,78.52859952313779 L-14.354877774791428,80.23001966993837 L-18.0,82.0" fill="black" fill-opacity="0.6" stroke="black" stroke-width="1" />
<path d="M-18.44631015632218,-21.47140047686222 L-14.354877774791428,-19.769980330061635 L-18.0,-18.0" fill="brown" fill-opacity="0.6" stroke="black" stroke-width="1" />
<path d="M-18.44631015632218,21.471400476862215 L-14.354877774791428,19.769980330061628 L-18.0,18.0" fill="blue" fill-opacity="0.6" stroke="black" stroke-width="1" />
<path d="M-18.44631015632218,-78.52859952313779 L-14.354877774791428,-80.23001966993837 L-18.0,-82.0" fill="blue" fill-opacity="0.6" stroke="black" stroke-width="1" />
<path d="M-12.0,88.0 L-3.047962708915141,96.73181172147711 L-1.0679233007225735,98.39196881770063" fill="brown" fill-opacity="0.6" stroke="black" stroke-width="1" />
<path d="M-12.0,-12.0 L-3.047962708915141,-3.2681882785228877 L-1.0679233007225735,-1.608031182299369" fill="pink" fill-opacity="0.6" stroke="black" stroke-width="1" />
<path d="M-12.0,12.0 L-3.047962708915141,3.268188278522885 L-1.0679233007225735,1.6080311822993707" fill="red" fill-opacity="0.6" stroke="black" stroke-width="1" />
<path d="M-12.0,-88.0 L-3.047962708915141,-96.73181172147711 L-1.0679233007225735,-98.39196881770063" fill="orange" fill-opacity="0.6" stroke="black" stroke-width="1" />
<path d="M-3.047962708915141,96.73181172147711 L-1.0679233007225735,98.39196881770063 L0.0,100.0" fill="orange" fill-opacity="0.6" stroke="black" stroke-width="1" />
<path d="M-3.047962708915141,-3.2681882785228877 L-1.0679233007225735,-1.608031182299369 L0.0,-0.0" fill="red" fill-opacity="0.6" stroke="black" stroke-width="1" />
<path d="M-3.047962708915141,3.268188278522885 L-1.0679233007225735,1.6080311822993707 L0.0,-0.0" fill="black" fill-opacity="0.6" stroke="black" stroke-width="1" />
<path d="M-3.047962708915141,-96.73181172147711 L-1.0679233007225735,-98.39196881770063 L0.0,-100.0" fill="black" fill-opacity="0.6" stroke="black" stroke-width="1" />
<path d="M-50.0,-26.0 L-52.80159367576147,-32.59115342926859 L-50.0,-48.0" fill="black" fill-opacity="0.6" stroke="black" stroke-width="1" />
<path d="M-50.0,26.0 L-52.80159367576147,32.59115342926859 L-50.0,48.0" fill="black" fill-opacity="0.6" stroke="black" stroke-width="1" />
<path d="M-50.0,-48.0 L-52.0,-48.0 L-53.0,-47.0" fill="brown" fill-opacity="0.6" stroke="black" stroke-width="1" />
<path d="M-50.0,48.0 L-52.0,48.0 L-53.0,47.0" fill="purple" fill-opacity="0.6" stroke="black" stroke-width="1" />
<path d="M-52.0,-48.0 L-53.0,-47.0 L-73.5431444033382,-21.55558785123874" fill="purple" fill-opacity="0.6" stroke="black" stroke-width="1" />
<path d="M-52.0,48.0 L-53.0,47.0 L-73.5431444033382,21.55558785123874" fill="yellow" fill-opacity="0.6" stroke="black" stroke-width="1" />
<path d="M-53.0,-47.0 L-73.5431444033382,-21.55558785123874 L-74.0,-26.0" fill="yellow" fill-opacity="0.6" stroke="black" stroke-width="1" />
<path d="M-53.0,47.0 L-73.5431444033382,21.55558785123874 L-74.0,26.0" fill="purple" fill-opacity="0.6" stroke="black" stroke-width="1" />
<path d="M-73.5431444033382,-21.55558785123874 L-74.0,-26.0 L-78.52859952313779,-18.44631015632218" fill="blue" fill-opacity="0.6" stroke="black" stroke-width="1" />
<path d="M-73.5431444033382,21.55558785123874 L-74.0,26.0 L-78.52859952313779,18.44631015632218" fill="brown" fill-opacity="0.6" stroke="black" stroke-width="1" />
<path d="M-74.0,-26.0 L-78.52859952313779,-18.44631015632218 L-80.23001966993837,-14.354877774791428" fill="green" fill-opacity="0.6" stroke="black" stroke-width="1" />
<path d="M-74.0,26.0 L-78.52859952313779,18.44631015632218 L-80.23001966993837,14.354877774791428" fill="blue" fill-opacity="0.6" stroke="black" stroke-width="1" />
<path d="M-78.52859952313779,-18.44631015632218 L-80.23001966993837,-14.354877774791428 L-82.0,-18.0" fill="pink" fill-opacity="0.6" stroke="black" stroke-width="1" />
<path d="M-78.52859952313779,18.44631015632218 L-80.23001966993837,14.354877774791428 L-82.0,18.0" fill="blue" fill-opacity="0.6" stroke="black" stroke-width="1" />
<path d="M-80.23001966993837,-14.354877774791428 L-82.0,-18.0 L-84.0,-16.0" fill="orange" fill-opacity="0.6" stroke="black" stroke-width="1" />
<path d="M-80.23001966993837,14.354877774791428 L-82.0,18.0 L-84.0,16.0" fill="blue" fill-opacity="0.6" stroke="black" stroke-width="1" />
<path d="M-82.0,-18.0 L-84.0,-16.0 L-88.0,-12.0" fill="brown" fill-opacity="0.6" stroke="black" stroke-width="1" />
<path d="M-82.0,18.0 L-84.0,16.0 L-88.0,12.0" fill="black" fill-opacity="0.6" stroke="black" stroke-width="1" />
<path d="M-84.0,-16.0 L-88.0,-12.0 L-96.73181172147711,-3.047962708915141" fill="green" fill-opacity="0.6" stroke="black" stroke-width="1" />
<path d="M-84.0,16.0 L-88.0,12.0 L-96.73181172147711,3.047962708915141" fill="orange" fill-opacity="0.6" stroke="black" stroke-width="1" />
<path d="M-88.0,-12.0 L-96.73181172147711,-3.047962708915141 L-98.39196881770063,-1.0679233007225735" fill="brown" fill-opacity="0.6" stroke="black" stroke-width="1" />
<path d="M-88.0,12.0 L-96.73181172147711,3.047962708915141 L-98.39196881770063,1.0679233007225735" fill="orange" fill-opacity="0.6" stroke="black" stroke-width="1" />
<path d="M-96.73181172147711,-3.047962708915141 L-98.39196881770063,-1.0679233007225735 L-100.0,-0.0" fill="green" fill-opacity="0.6" stroke="black" stroke-width="1" />
<path d="M-96.73181172147711,3.047962708915141 L-98.39196881770063,1.0679233007225735 L-100.0,-0.0" fill="blue" fill-opacity="0.6" stroke="black" stroke-width="1" />
</svg>