<?xml version="1.0" encoding="UTF-8"?>
<svg xmlns="http://www.w3.org/2000/svg" xmlns:xlink="http://www.w3.org/1999/xlink"
     width="250" height="250" viewBox="-125.0 -125.0 250 250">
<defs>
</defs>
<path d="M0.0,-0.0 L21.74470564270956,-4.838928174176416 L22.07799862231462,-6.653223045545001" fill="pink" fill-opacity="0.6" stroke="black" stroke-width="1" />
<path d="M0.0,-0.0 L21.74470564270956,4.838928174176416 L22.07799862231462,6.653223045545001" fill="blue" fill-opacity="0.6" stroke="black" stroke-width="1" />
<path d="M21.74470564270956,-4.838928174176416 L22.07799862231462,-6.653223045545001 L24.061683199581875,-7.366641303591448" fill="yellow" fill-opacity="0.6" stroke="black" stroke-width="1" />
<path d="M21.74470564270956,4.838928174176416 L22.07799862231462,6.653223045545001 L24.061683199581875,7.366641303591448" fill="black" fill-opacity="0.6" stroke="black" stroke-width="1" />
<path d="M22.07799862231462,-6.653223045545001 L24.061683199581875,-7.366641303591448 L25.085781819317972,-7.594295471508169" fill="pink" fill-opacity="0.6" stroke="black" stroke-width="1" />
<path d="M22.07799862231462,6.653223045545001 L24.061683199581875,7.366641303591448 L25.085781819317972,7.594295471508169" fill="blue" fill-opacity="0.6" stroke="black" stroke-width="1" />
<path d="M24.061683199581875,-7.366641303591448 L25.085781819317972,-7.594295471508169 L25.24742113752415,-8.091035725686002" fill="red" fill-opacity="0.6" stroke="black" stroke-width="1" />
<path d="M24.061683199581875,7.366641303591448 L25.085781819317972,7.594295471508169 L25.24742113752415,8.091035725686002" fill="red" fill-opacity="0.6" stroke="black" stroke-width="1" />
<path d="M25.085781819317972,-7.594295471508169 L25.24742113752415,-8.091035725686002 L25.387746928950794,-10.244303508503648" fill="blue" fill-opacity="0.6" stroke="black" stroke-width="1" />
<path d="M25.085781819317972,7.594295471508169 L25.24742113752415,8.091035725686002 L25.387746928950794,10.244303508503648" fill="brown" fill-opacity="0.6" stroke="black" stroke-width="1" />
<path d="M25.24742113752415,-8.091035725686002 L25.387746928950794,-10.244303508503648 L26.588542351184284,-11.990779387453216" fill="blue" fill-opacity="0.6" stroke="black" stroke-width="1" />
<path d="M25.24742113752415,8.091035725686002 L25.387746928950794,10.244303508503648 L26.588542351184284,11.990779387453216" fill="purple" fill-opacity="0.6" stroke="black" stroke-width="1" />
<path d="M25.387746928950794,-10.244303508503648 L26.588542351184284,-11.990779387453216 L31.0,-0.0" fill="brown" fill-opacity="0.6" stroke="black" stroke-width="1" />
<path d="M25.387746928950794,10.244303508503648 L26.588542351184284,11.990779387453216 L31.0,-0.0" fill="blue" fill-opacity="0.6" stroke="black" stroke-width="1" />
<path d="M31.0,-0.0 L34.77174729368736,-12.401815451091128 L39.0,-0.0" fill="black" fill-opacity="0.6" stroke="black" stroke-width="1" />
<path d="M31.0,-0.0 L34.77174729368736,12.401815451091128 L39.0,-0.0" fill="purple" fill-opacity="0.6" stroke="black" stroke-width="1" />
<path d="M50.0,-12.0 L38.185065763050694,-15.188865109272706 L41.325430750414895,-17.276719482813135" fill="yellow" fill-opacity="0.6" stroke="black" stroke-width="1" />
<path d="M50.0,12.0 L38.185065763050694,15.188865109272706 L41.325430750414895,17.276719482813135" fill="blue" fill-opacity="0.6" stroke="black" stroke-width="1" />
<path d="M38.185065763050694,-15.188865109272706 L41.325430750414895,-17.276719482813135 L42.43997978652453,-18.20043191324909" fill="black" fill-opacity="0.6" stroke="black" stroke-width="1" />
<path d="M38.185065763050694,15.188865109272706 L41.325430750414895,17.276719482813135 L42.43997978652453,18.20043191324909" fill="black" fill-opacity="0.6" stroke="black" stroke-width="1" />
<path d="M41.325430750414895,-17.276719482813135 L42.43997978652453,-18.20043191324909 L42.777720861866065,-22.971592279629554" fill="red" fill-opacity="0.6" stroke="black" stroke-width="1" />
<path d="M41.325430750414895,17.276719482813135 L42.43997978652453,18.20043191324909 L42.777720861866065,22.971592279629554" fill="black" fill-opacity="0.6" stroke="black" stroke-width="1" />
<path d="M42.43997978652453,-18.20043191324909 L42.777720861866065,-22.971592279629554 L42.87030566115469,-24.217414468833155" fill="orange" fill-opacity="0.6" stroke="black" stroke-width="1" />
<path d="M42.43997978652453,18.20043191324909 L42.777720861866065,22.971592279629554 L42.87030566115469,24.217414468833155" fill="green" fill-opacity="0.6" stroke="black" stroke-width="1" />
<path d="M42.777720861866065,-22.971592279629554 L42.87030566115469,-24.217414468833155 L50.0,-25.0" fill="orange" fill-opacity="0.6" stroke="black" stroke-width="1" />
<path d="M42.777720861866065,22.971592279629554 L42.87030566115469,24.217414468833155 L50.0,25.0" fill="brown" fill-opacity="0.6" stroke="black" stroke-width="1" />
<path d="M50.0,-25.0 L49.3835971956299,-31.050838662385015 L50.0,-35.0" fill="red" fill-opacity="0.6" stroke="black" stroke-width="1" />
<path d="M50.0,25.0 L49.3835971956299,31.050838662385015 L50.0,35.0" fill="pink" fill-opacity="0.6" stroke="black" stroke-width="1" />
<path d="M41.0,50.0 L28.0,72.0 L13.0,87.0" fill="red" fill-opacity="0.6" stroke="black" stroke-width="1" />
<path d="M41.0,-50.0 L28.0,-72.0 L13.0,-87.0" fill="purple" fill-opacity="0.6" stroke="black" stroke-width="1" />
<path d="M28.0,72.0 L13.0,87.0 L4.419291817307033,94.69352600222825" fill="orange" fill-opacity="0.6" stroke="black" stroke-width="1" />
<path d="M28.0,-72.0 L13.0,-87.0 L4.419291817307033,-94.69352600222825" fill="pink" fill-opacity="0.6" stroke="black" stroke-width="1" />
<path d="M13.0,-13.0 L5.306473997771738,-4.419291817307033 L3.0,-3.0" fill="orange" fill-opacity="0.6" stroke="black" stroke-width="1" />
<path d="M13.0,13.0 L5.306473997771738,4.419291817307033 L3.0,3.0" fill="brown" fill-opacity="0.6" stroke="black" stroke-width="1" />
<path d="M3.0,-3.0 L2.6761466707273804,-0.5135079481275353 L1.6524381624196893,-0.36232796526497746" fill="brown" fill-opacity="0.6" stroke="black" stroke-width="1" />
<path d="M3.0,3.0 L2.6761466707273804,0.5135079481275353 L1.6524381624196893,0.36232796526497746" fill="purple" fill-opacity="0.6" stroke="black" stroke-width="1" />
<path d="M2.6761466707273804,-0.5135079481275353 L1.6524381624196893,-0.36232796526497746 L0.12740324386848467,-0.06306129602954777" fill="pink" fill-opacity="0.6" stroke="black" stroke-width="1" />
<path d="M2.6761466707273804,0.5135079481275353 L1.6524381624196893,0.36232796526497746 L0.12740324386848467,0.06306129602954777" fill="yellow" fill-opacity="0.6" stroke="black" stroke-width="1" />
<path d="M1.6524381624196893,-0.36232796526497746 L0.12740324386848467,-0.06306129602954777 L0.061839098693383665,-0.02251136034589409" fill="purple" fill-opacity="0.6" stroke="black" stroke-width="1" />
<path d="M1.6524381624196893,0.36232796526497746 L0.12740324386848467,0.06306129602954777 L0.061839098693383665,0.02251136034589409" fill="pink" fill-opacity="0.6" stroke="black" stroke-width="1" />
<path d="M0.12740324386848467,-0.06306129602954777 L0.061839098693383665,-0.02251136034589409 L0.0,-0.0" fill="yellow" fill-opacity="0.6" stroke="black" stroke-width="1" />
<path d="M0.12740324386848467,0.06306129602954777 L0.061839098693383665,0.02251136034589409 L0.0,-0.0" fill="red" fill-opacity="0.6" stroke="black" stroke-width="1" />
<path d="M0.0,-0.0 L-21.74470564270956,-4.838928174176416 L-22.07799862231462,-6.653223045545001" fill="purple" fill-opacity="0.6" stroke="black" stroke-width="1" />
<path d="M0.0,-0.0 L-21.74470564270956,4.838928174176416 L-22.07799862231462,6.653223045545001" fill="green" fill-opacity="0.6" stroke="black" stroke-width="1" />
<path d="M-21.74470564270956,-4.838928174176416 L-22.07799862231462,-6.653223045545001 L-24.061683199581875,-7.366641303591448" fill="green" fill-opacity="0.6" stroke="black" stroke-width="1" />
<path d="M-21.74470564270956,4.838928174176416 L-22.07799862231462,6.653223045545001 L-24.061683199581875,7.366641303591448" fill="brown" fill-opacity="0.6" stroke="black" stroke-width="1" />
<path d="M-22.07799862231462,-6.653223045545001 L-24.061683199581875,-7.366641303591448 L-25.085781819317972,-7.594295471508169" fill="purple" fill-opacity="0.6" stroke="black" stroke-width="1" />
<path d="M-22.07799862231462,6.653223045545001 L-24.061683199581875,7.366641303591448 L-25.085781819317972,7.594295471508169" fill="pink" fill-opacity="0.6" stroke="black" stroke-width="1" />
<path d="M-24.061683199581875,-7.366641303591448 L-25.085781819317972,-7.594295471508169 L-25.24742113752415,-8.091035725686002" fill="red" fill-opacity="0.6" stroke="black" stroke-width="1" />
<path d="M-24.061683199581875,7.366641303591448 L-25.085781819317972,7.594295471508169 L-25.24742113752415,8.091035725686002" fill="blue" fill-opacity="0.6" stroke="black" stroke-width="1" />
<path d="M-25.085781819317972,-7.594295471508169 L-25.24742113752415,-8.091035725686002 L-25.387746928950794,-10.244303508503648" fill="black" fill-opacity="0.6" stroke="black" stroke-width="1" />
<path d="M-25.085781819317972,7.594295471508169 L-25.24742113752415,8.091035725686002 L-25.387746928950794,10.244303508503648" fill="pink" fill-opacity="0.6" stroke="black" stroke-width="1" />
<path d="M-25.24742113752415,-8.091035725686002 L-25.387746928950794,-10.244303508503648 L-26.588542351184284,-11.990779387453216" fill="brown" fill-opacity="0.6" stroke="black" stroke-width="1" />
<path d="M-25.24742113752415,8.091035725686002 L-25.387746928950794,10.244303508503648 L-26.588542351184284,11.990779387453216" fill="brown" fill-opacity="0.6" stroke="black" stroke-width="1" />
<path d="M-25.387746928950794,-10.244303508503648 L-26.588542351184284,-11.990779387453216 L-31.0,-0.0" fill="black" fill-opacity="0.6" stroke="black" stroke-width="1" />
<path d="M-25.387746928950794,10.244303508503648 L-26.588542351184284,11.990779387453216 L-31.0,-0.0" fill="blue" fill-opacity="0.6" stroke="black" stroke-width="1" />
<path d="M-31.0,-0.0 L-34.77174729368736,-12.401815451091128 L-39.0,-0.0" fill="brown" fill-opacity="0.6" stroke="black" stroke-width="1" />
<path d="M-31.0,-0.0 L-34.77174729368736,12.401815451091128 L-39.0,-0.0" fill="blue" fill-opacity="0.6" stroke="black" stroke-width="1" />
<path d="M-50.0,-12.0 L-38.185065763050694,-15.188865109272706 L-41.325430750414895,-17.276719482813135" fill="orange" fill-opacity="0.6" stroke="black" stroke-width="1" />
<path d="M-50.0,12.0 L-38.185065763050694,15.188865109272706 L-41.325430750414895,17.276719482813135" fill="purple" fill-opacity="0.6" stroke="black" stroke-width="1" />
<path d="M-38.185065763050694,-15.188865109272706 L-41.325430750414895,-17.276719482813135 L-42.43997978652453,-18.20043191324909" fill="brown" fill-opacity="0.6" stroke="black" stroke-width="1" />
<path d="M-38.185065763050694,15.188865109272706 L-41.325430750414895,17.276719482813135 L-42.43997978652453,18.20043191324909" fill="blue" fill-opacity="0.6" stroke="black" stroke-width="1" />
<path d="M-41.325430750414895,-17.276719482813135 L-42.43997978652453,-18.20043191324909 L-42.777720861866065,-22.971592279629554" fill="orange" fill-opacity="0.6" stroke="black" stroke-width="1" />
<path d="M-41.325430750414895,17.276719482813135 L-42.43997978652453,18.20043191324909 L-42.777720861866065,22.971592279629554" fill="purple" fill-opacity="0.6" stroke="black" stroke-width="1" />
<path d="M-42.43997978652453,-18.20043191324909 L-42.777720861866065,-22.971592279629554 L-42.87030566115469,-24.217414468833155" fill="purple" fill-opacity="0.6" stroke="black" stroke-width="1" />
<path d="M-42.43997978652453,18.20043191324909 L-42.777720861866065,22.971592279629554 L-42.87030566115469,24.217414468833155" fill="pink" fill-opacity="0.6" stroke="black" stroke-width="1" />
<path d="M-42.777720861866065,-22.971592279629554 L-42.87030566115469,-24.217414468833155 L-50.0,-25.0" fill="blue" fill-opacity="0.6" stroke="black" stroke-width="1" />
<path d="M-42.777720861866065,22.971592279629554 L-42.87030566115469,24.217414468833155 L-50.0,25.0" fill="red" fill-opacity="0.6" stroke="black" stroke-width="1" />
<path d="M-50.0,-25.0 L-49.3835971956299,-31.050838662385015 L-50.0,-35.0" fill="orange" fill-opacity="0.6" stroke="black" stroke-width="1" />
<path d="M-50.0,25.0 L-49.3835971956299,31.050838662385015 L-50.0,35.0" fill="brown" fill-opacity="0.6" stroke="black" stroke-width="1" />
<path d="M-41.0,50.0 L-28.0,72.0 L-13.0,87.0" fill="brown" fill-opacity="0.6" stroke="black" stroke-width="1" />
<path d="M-41.0,-50.0 L-28.0,-72.0 L-13.0,-87.0" fill="blue" fill-opacity="0.6" stroke="black" stroke-width="1" />
<path d="M-28.0,72.0 L-13.0,87.0 L-4.419291817307033,94.69352600222827" fill="green" fill-opacity="0.6" stroke="black" stroke-width="1" />
<path d="M-28.0,-72.0 L-13.0,-87.0 L-4.419291817307033,-94.69352600222825" fill="green" fill-opacity="0.6" stroke="black" stroke-width="1" />
<path d="M-13.0,-13.0 L-5.306473997771738,-4.419291817307033 L-3.0,-3.0" fill="red" fill-opacity="0.6" stroke="black" stroke-width="1" />
<path d="M-13.0,13.0 L-5.306473997771738,4.419291817307033 L-3.0,3.0" fill="blue" fill-opacity="0.6" stroke="black" stroke-width="1" />
<path d="M-3.0,-3.0 L-2.6761466707273804,-0.5135079481275353 L-1.6524381624196893,-0.36232796526497746" fill="orange" fill-opacity="0.6" stroke="black" stroke-width="1" />
<path d="M-3.0,3.0 L-2.6761466707273804,0.5135079481275353 L-1.6524381624196893,0.36232796526497746" fill="yellow" fill-opacity="0.6" stroke="black" stroke-width="1" />
<path d="M-2.6761466707273804,-0.5135079481275353 L-1.6524381624196893,-0.36232796526497746 L-0.12740324386848467,-0.06306129602954777" fill="purple" fill-opacity="0.6" stroke="black" stroke-width="1" />
<path d="M-2.6761466707273804,0.5135079481275353 L-1.6524381624196893,0.36232796526497746 L-0.12740324386848467,0.06306129602954777" fill="orange" fill-opacity="0.6" stroke="black" stroke-width="1" />
<path d="M-1.6524381624196893,-0.36232796526497746 L-0.12740324386848467,-0.06306129602954777 L-0.061839098693383665,-0.02251136034589409" fill="pink" fill-opacity="0.6" stroke="black" stroke-width="1" />
<path d="M-1.6524381624196893,0.36232796526497746 L-0.12740324386848467,0.06306129602954777 L-0.061839098693383665,0.02251136034589409" fill="brown" fill-opacity="0.6" stroke="black" stroke-width="1" />
<path d="M-0.12740324386848467,-0.06306129602954777 L-0.061839098693383665,-0.02251136034589409 L0.0,-0.0" fill="purple" fill-opacity="0.6" stroke="black" stroke-width="1" />
<path d="M-0.12740324386848467,0.06306129602954777 L-0.061839098693383665,0.02251136034589409 L0.0,-0.0" fill="green" fill-opacity="0.6" stroke="black" stroke-width="1" />
<path d="M100.0,-0.0 L78.25529435729044,4.838928174176416 L77.92200137768538,6.653223045545001" fill="red" fill-opacity="0.6" stroke="black" stroke-width="1" />
<path d="M100.0,-0.0 L78.25529435729044,-4.838928174176416 L77.92200137768538,-6.653223045545001" fill="yellow" fill-opacity="0.6" stroke="black" stroke-width="1" />
<path d="M78.25529435729044,4.838928174176416 L77.92200137768538,6.653223045545001 L75.93831680041812,7.366641303591448" fill="pink" fill-opacity="0.6" stroke="black" stroke-width="1" />
<path d="M78.25529435729044,-4.838928174176416 L77.92200137768538,-6.653223045545001 L75.93831680041812,-7.366641303591448" fill="brown" fill-opacity="0.6" stroke="black" stroke-width="1" />
<path d="M77.92200137768538,6.653223045545001 L75.93831680041812,7.366641303591448 L74.91421818068203,7.594295471508169" fill="blue" fill-opacity="0.6" stroke="black" stroke-width="1" />
<path d="M77.92200137768538,-6.653223045545001 L75.93831680041812,-7.366641303591448 L74.91421818068203,-7.594295471508169" fill="purple" fill-opacity="0.6" stroke="black" stroke-width="1" />
<path d="M75.93831680041812,7.366641303591448 L74.91421818068203,7.594295471508169 L74.75257886247584,8.091035725686002" fill="orange" fill-opacity="0.6" stroke="black" stroke-width="1" />
<path d="M75.93831680041812,-7.366641303591448 L74.91421818068203,-7.594295471508169 L74.75257886247584,-8.091035725686002" fill="red" fill-opacity="0.6" stroke="black" stroke-width="1" />
<path d="M74.91421818068203,7.594295471508169 L74.75257886247584,8.091035725686002 L74.61225307104921,10.244303508503648" fill="orange" fill-opacity="0.6" stroke="black" stroke-width="1" />
<path d="M74.91421818068203,-7.594295471508169 L74.75257886247584,-8.091035725686002 L74.61225307104921,-10.244303508503648" fill="pink" fill-opacity="0.6" stroke="black" stroke-width="1" />
<path d="M74.75257886247584,8.091035725686002 L74.61225307104921,10.244303508503648 L73.41145764881571,11.990779387453216" fill="yellow" fill-opacity="0.6" stroke="black" stroke-width="1" />
<path d="M74.75257886247584,-8.091035725686002 L74.61225307104921,-10.244303508503648 L73.41145764881571,-11.990779387453216" fill="blue" fill-opacity="0.6" stroke="black" stroke-width="1" />
<path d="M74.61225307104921,10.244303508503648 L73.41145764881571,11.990779387453216 L69.0,-0.0" fill="blue" fill-opacity="0.6" stroke="black" stroke-width="1" />
<path d="M74.61225307104921,-10.244303508503648 L73.41145764881571,-11.990779387453216 L69.0,-0.0" fill="brown" fill-opacity="0.6" stroke="black" stroke-width="1" />
<path d="M69.0,-0.0 L65.22825270631265,12.401815451091128 L61.0,-0.0" fill="green" fill-opacity="0.6" stroke="black" stroke-width="1" />
<path d="M69.0,-0.0 L65.22825270631265,-12.401815451091128 L61.0,-0.0" fill="blue" fill-opacity="0.6" stroke="black" stroke-width="1" />
<path d="M50.0,12.0 L61.814934236949306,15.188865109272706 L58.674569249585105,17.276719482813135" fill="green" fill-opacity="0.6" stroke="black" stroke-width="1" />
<path d="M50.0,-12.0 L61.814934236949306,-15.188865109272706 L58.674569249585105,-17.276719482813135" fill="orange" fill-opacity="0.6" stroke="black" stroke-width="1" />
<path d="M61.814934236949306,15.188865109272706 L58.674569249585105,17.276719482813135 L57.56002021347547,18.20043191324909" fill="pink" fill-opacity="0.6" stroke="black" stroke-width="1" />
<path d="M61.814934236949306,-15.188865109272706 L58.674569249585105,-17.276719482813135 L57.56002021347547,-18.20043191324909" fill="green" fill-opacity="0.6" stroke="black" stroke-width="1" />
<path d="M58.674569249585105,17.276719482813135 L57.56002021347547,18.20043191324909 L57.222279138133935,22.971592279629554" fill="yellow" fill-opacity="0.6" stroke="black" stroke-width="1" />
<path d="M58.674569249585105,-17.276719482813135 L57.56002021347547,-18.20043191324909 L57.222279138133935,-22.971592279629554" fill="pink" fill-opacity="0.6" stroke="black" stroke-width="1" />
<path d="M57.56002021347547,18.20043191324909 L57.222279138133935,22.971592279629554 L57.12969433884531,24.217414468833155" fill="brown" fill-opacity="0.6" stroke="black" stroke-width="1" />
<path d="M57.56002021347547,-18.20043191324909 L57.222279138133935,-22.971592279629554 L57.12969433884531,-24.217414468833155" fill="brown" fill-opacity="0.6" stroke="black" stroke-width="1" />
<path d="M57.222279138133935,22.971592279629554 L57.12969433884531,24.217414468833155 L50.0,25.0" fill="black" fill-opacity="0.6" stroke="black" stroke-width="1" />
<path d="M57.222279138133935,-22.971592279629554 L57.12969433884531,-24.217414468833155 L50.0,-25.0" fill="orange" fill-opacity="0.6" stroke="black" stroke-width="1" />
<path d="M50.0,25.0 L50.6164028043701,31.050838662385015 L50.0,35.0" fill="red" fill-opacity="0.6" stroke="black" stroke-width="1" />
<path d="M50.0,-25.0 L50.6164028043701,-31.050838662385015 L50.0,-35.0" fill="brown" fill-opacity="0.6" stroke="black" stroke-width="1" />
<path d="M50.0,41.0 L72.0,28.0 L87.0,13.0" fill="black" fill-opacity="0.6" stroke="black" stroke-width="1" />
<path d="M50.0,-41.0 L72.0,-28.0 L87.0,-13.0" fill="purple" fill-opacity="0.6" stroke="black" stroke-width="1" />
<path d="M72.0,28.0 L87.0,13.0 L94.69352600222825,4.419291817307033" fill="brown" fill-opacity="0.6" stroke="black" stroke-width="1" />
<path d="M72.0,-28.0 L87.0,-13.0 L94.69352600222825,-4.419291817307033" fill="blue" fill-opacity="0.6" stroke="black" stroke-width="1" />
<path d="M87.0,13.0 L94.69352600222825,4.419291817307033 L97.0,3.0" fill="blue" fill-opacity="0.6" stroke="black" stroke-width="1" />
<path d="M87.0,-13.0 L94.69352600222825,-4.419291817307033 L97.0,-3.0" fill="blue" fill-opacity="0.6" stroke="black" stroke-width="1" />
<path d="M97.0,3.0 L97.32385332927262,0.5135079481275353 L98.34756183758032,0.36232796526497746" fill="red" fill-opacity="0.6" stroke="black" stroke-width="1" />
<path d="M97.0,-3.0 L97.32385332927262,-0.5135079481275353 L98.34756183758032,-0.36232796526497746" fill="red" fill-opacity="0.6" stroke="black" stroke-width="1" />
<path d="M97.32385332927262,0.5135079481275353 L98.34756183758032,0.36232796526497746 L99.87259675613151,0.06306129602954777" fill="black" fill-opacity="0.6" stroke="black" stroke-width="1" />
<path d="M97.32385332927262,-0.5135079481275353 L98.34756183758032,-0.36232796526497746 L99.87259675613151,-0.06306129602954777" fill="green" fill-opacity="0.6" stroke="black" stroke-width="1" />
<path d="M98.34756183758032,0.36232796526497746 L99.87259675613151,0.06306129602954777 L99.93816090130662,0.02251136034589409" fill="purple" fill-opacity="0.6" stroke="black" stroke-width="1" />
<path d="M98.34756183758032,-0.36232796526497746 L99.87259675613151,-0.06306129602954777 L99.93816090130662,-0.02251136034589409" fill="blue" fill-opacity="0.6" stroke="black" stroke-width="1" />
<path d="M99.87259675613151,0.06306129602954777 L99.93816090130662,0.02251136034589409 L100.0,-0.0" fill="green" fill-opacity="0.6" stroke="black" stroke-width="1" />
<path d="M99.87259675613151,-0.06306129602954777 L99.93816090130662,-0.02251136034589409 L100.0,-0.0" fill="black" fill-opacity="0.6" stroke="black" stroke-width="1" />
<path d="M0.0,-0.0 L4.838928174176416,-21.74470564270956 L6.653223045545001,-22.07799862231462" fill="red" fill-opacity="0.6" stroke="black" stroke-width="1" />
<path d="M0.0,-0.0 L4.838928174176416,21.74470564270956 L6.653223045545001,22.07799862231462" fill="brown" fill-opacity="0.6" stroke="black" stroke-width="1" />
<path d="M0.0,100.0 L4.838928174176416,78.25529435729044 L6.653223045545001,77.92200137768538" fill="red" fill-opacity="0.6" stroke="black" stroke-width="1" />
<path d="M0.0,-100.0 L4.838928174176416,-78.25529435729044 L6.653223045545001,-77.92200137768538" fill="pink" fill-opacity="0.6" stroke="black" stroke-width="1" />
<path d="M4.838928174176416,-21.74470564270956 L6.653223045545001,-22.07799862231462 L7.366641303591448,-24.061683199581875" fill="purple" fill-opacity="0.6" stroke="black" stroke-width="1" />
<path d="M4.838928174176416,21.74470564270956 L6.653223045545001,22.07799862231462 L7.366641303591448,24.061683199581875" fill="red" fill-opacity="0.6" stroke="black" stroke-width="1" />
<path d="M4.838928174176416,78.25529435729044 L6.653223045545001,77.92200137768538 L7.366641303591448,75.93831680041812" fill="black" fill-opacity="0.6" stroke="black" stroke-width="1" />
<path d="M4.838928174176416,-78.25529435729044 L6.653223045545001,-77.92200137768538 L7.366641303591448,-75.93831680041812" fill="orange" fill-opacity="0.6" stroke="black" stroke-width="1" />
<path d="M6.653223045545001,-22.07799862231462 L7.366641303591448,-24.061683199581875 L7.594295471508169,-25.085781819317972" fill="purple" fill-opacity="0.6" stroke="black" stroke-width="1" />
<path d="M6.653223045545001,22.07799862231462 L7.366641303591448,24.061683199581875 L7.594295471508169,25.085781819317972" fill="green" fill-opacity="0.6" stroke="black" stroke-width="1" />
<path d="M6.653223045545001,77.92200137768538 L7.366641303591448,75.93831680041812 L7.594295471508169,74.91421818068203" fill="purple" fill-opacity="0.6" stroke="black" stroke-width="1" />
<path d="M6.653223045545001,-77.92200137768538 L7.366641303591448,-75.93831680041812 L7.594295471508169,-74.91421818068203" fill="green" fill-opacity="0.6" stroke="black" stroke-width="1" />
<path d="M7.366641303591448,-24.061683199581875 L7.594295471508169,-25.085781819317972 L8.091035725686002,-25.24742113752415" fill="red" fill-opacity="0.6" stroke="black" stroke-width="1" />
<path d="M7.366641303591448,24.061683199581875 L7.594295471508169,25.085781819317972 L8.091035725686002,25.24742113752415" fill="orange" fill-opacity="0.6" stroke="black" stroke-width="1" />
<path d="M7.366641303591448,75.93831680041812 L7.594295471508169,74.91421818068203 L8.091035725686002,74.75257886247584" fill="pink" fill-opacity="0.6" stroke="black" stroke-width="1" />
<path d="M7.366641303591448,-75.93831680041812 L7.594295471508169,-74.91421818068203 L8.091035725686002,-74.75257886247584" fill="pink" fill-opacity="0.6" stroke="black" stroke-width="1" />
<path d="M7.594295471508169,-25.085781819317972 L8.091035725686002,-25.24742113752415 L10.244303508503648,-25.387746928950794" fill="brown" fill-opacity="0.6" stroke="black" stroke-width="1" />
<path d="M7.594295471508169,25.085781819317972 L8.091035725686002,25.24742113752415 L10.244303508503648,25.387746928950794" fill="red" fill-opacity="0.6" stroke="black" stroke-width="1" />
<path d="M7.594295471508169,74.91421818068203 L8.091035725686002,74.75257886247584 L10.244303508503648,74.61225307104921" fill="green" fill-opacity="0.6" stroke="black" stroke-width="1" />
<path d="M7.594295471508169,-74.91421818068203 L8.091035725686002,-74.75257886247584 L10.244303508503648,-74.61225307104921" fill="blue" fill-opacity="0.6" stroke="black" stroke-width="1" />
<path d="M8.091035725686002,-25.24742113752415 L10.244303508503648,-25.387746928950794 L11.990779387453216,-26.588542351184284" fill="orange" fill-opacity="0.6" stroke="black" stroke-width="1" />
<path d="M8.091035725686002,25.24742113752415 L10.244303508503648,25.387746928950794 L11.990779387453216,26.588542351184284" fill="green" fill-opacity="0.6" stroke="black" stroke-width="1" />
<path d="M8.091035725686002,74.75257886247584 L10.244303508503648,74.61225307104921 L11.990779387453216,73.41145764881571" fill="yellow" fill-opacity="0.6" stroke="black" stroke-width="1" />
<path d="M8.091035725686002,-74.75257886247584 L10.244303508503648,-74.61225307104921 L11.990779387453216,-73.41145764881571" fill="brown" fill-opacity="0.6" stroke="black" stroke-width="1" />
<path d="M10.244303508503648,-25.387746928950794 L11.990779387453216,-26.588542351184284 L0.0,-31.0" fill="yellow" fill-opacity="0.6" stroke="black" stroke-width="1" />
<path d="M10.244303508503648,25.387746928950794 L11.990779387453216,26.588542351184284 L0.0,31.0" fill="brown" fill-opacity="0.6" stroke="black" stroke-width="1" />
<path d="M10.244303508503648,74.61225307104921 L11.990779387453216,73.41145764881571 L0.0,69.0" fill="purple" fill-opacity="0.6" stroke="black" stroke-width="1" />
<path d="M10.244303508503648,-74.61225307104921 L11.990779387453216,-73.41145764881571 L0.0,-69.0" fill="black" fill-opacity="0.6" stroke="black" stroke-width="1" />
<path d="M0.0,-31.0 L12.401815451091128,-34.77174729368736 L0.0,-39.0" fill="green" fill-opacity="0.6" stroke="black" stroke-width="1" />
<path d="M0.0,31.0 L12.401815451091128,34.77174729368736 L0.0,39.0" fill="red" fill-opacity="0.6" stroke="black" stroke-width="1" />
<path d="M0.0,69.0 L12.401815451091128,65.22825270631265 L0.0,61.0" fill="blue" fill-opacity="0.6" stroke="black" stroke-width="1" />
<path d="M0.0,-69.0 L12.401815451091128,-65.22825270631265 L0.0,-61.0" fill="purple" fill-opacity="0.6" stroke="black" stroke-width="1" />
<path d="M12.0,-50.0 L15.188865109272706,-38.185065763050694 L17.276719482813135,-41.325430750414895" fill="black" fill-opacity="0.6" stroke="black" stroke-width="1" />
<path d="M12.0,50.0 L15.188865109272706,38.185065763050694 L17.276719482813135,41.325430750414895" fill="orange" fill-opacity="0.6" stroke="black" stroke-width="1" />
<path d="M12.0,50.0 L15.188865109272706,61.814934236949306 L17.276719482813135,58.674569249585105" fill="red" fill-opacity="0.6" stroke="black" stroke-width="1" />
<path d="M12.0,-50.0 L15.188865109272706,-61.814934236949306 L17.276719482813135,-58.674569249585105" fill="yellow" fill-opacity="0.6" stroke="black" stroke-width="1" />
<path d="M15.188865109272706,-38.185065763050694 L17.276719482813135,-41.325430750414895 L18.20043191324909,-42.43997978652453" fill="pink" fill-opacity="0.6" stroke="black" stroke-width="1" />
<path d="M15.188865109272706,38.185065763050694 L17.276719482813135,41.325430750414895 L18.20043191324909,42.43997978652453" fill="orange" fill-opacity="0.6" stroke="black" stroke-width="1" />
<path d="M15.188865109272706,61.814934236949306 L17.276719482813135,58.674569249585105 L18.20043191324909,57.56002021347547" fill="pink" fill-opacity="0.6" stroke="black" stroke-width="1" />
<path d="M15.188865109272706,-61.814934236949306 L17.276719482813135,-58.674569249585105 L18.20043191324909,-57.56002021347547" fill="pink" fill-opacity="0.6" stroke="black" stroke-width="1" />
<path d="M17.276719482813135,-41.325430750414895 L18.20043191324909,-42.43997978652453 L22.971592279629554,-42.777720861866065" fill="orange" fill-opacity="0.6" stroke="black" stroke-width="1" />
<path d="M17.276719482813135,41.325430750414895 L18.20043191324909,42.43997978652453 L22.971592279629554,42.777720861866065" fill="purple" fill-opacity="0.6" stroke="black" stroke-width="1" />
<path d="M17.276719482813135,58.674569249585105 L18.20043191324909,57.56002021347547 L22.971592279629554,57.222279138133935" fill="orange" fill-opacity="0.6" stroke="black" stroke-width="1" />
<path d="M17.276719482813135,-58.674569249585105 L18.20043191324909,-57.56002021347547 L22.971592279629554,-57.222279138133935" fill="orange" fill-opacity="0.6" stroke="black" stroke-width="1" />
<path d="M18.20043191324909,-42.43997978652453 L22.971592279629554,-42.777720861866065 L24.217414468833155,-42.87030566115469" fill="black" fill-opacity="0.6" stroke="black" stroke-width="1" />
<path d="M18.20043191324909,42.43997978652453 L22.971592279629554,42.777720861866065 L24.217414468833155,42.87030566115469" fill="brown" fill-opacity="0.6" stroke="black" stroke-width="1" />
<path d="M18.20043191324909,57.56002021347547 L22.971592279629554,57.222279138133935 L24.217414468833155,57.12969433884531" fill="yellow" fill-opacity="0.6" stroke="black" stroke-width="1" />
<path d="M18.20043191324909,-57.56002021347547 L22.971592279629554,-57.222279138133935 L24.217414468833155,-57.12969433884531" fill="black" fill-opacity="0.6" stroke="black" stroke-width="1" />
<path d="M22.971592279629554,-42.777720861866065 L24.217414468833155,-42.87030566115469 L25.0,-50.0" fill="red" fill-opacity="0.6" stroke="black" stroke-width="1" />
<path d="M22.971592279629554,42.777720861866065 L24.217414468833155,42.87030566115469 L25.0,50.0" fill="black" fill-opacity="0.6" stroke="black" stroke-width="1" />
<path d="M22.971592279629554,57.222279138133935 L24.217414468833155,57.12969433884531 L25.0,50.0" fill="green" fill-opacity="0.6" stroke="black" stroke-width="1" />
<path d="M22.971592279629554,-57.222279138133935 L24.217414468833155,-57.12969433884531 L25.0,-50.0" fill="orange" fill-opacity="0.6" stroke="black" stroke-width="1" />
<path d="M25.0,-50.0 L31.050838662385015,-49.3835971956299 L35.0,-50.0" fill="red" fill-opacity="0.6" stroke="black" stroke-width="1" />
<path d="M25.0,50.0 L31.050838662385015,49.3835971956299 L35.0,50.0" fill="green" fill-opacity="0.6" stroke="black" stroke-width="1" />
<path d="M25.0,50.0 L31.050838662385015,50.6164028043701 L35.0,50.0" fill="pink" fill-opacity="0.6" stroke="black" stroke-width="1" />
<path d="M25.0,-50.0 L31.050838662385015,-50.6164028043701 L35.0,-50.0" fill="pink" fill-opacity="0.6" stroke="black" stroke-width="1" />
<path d="M13.0,-13.0 L4.419291817307033,-5.306473997771738 L3.0,-3.0" fill="brown" fill-opacity="0.6" stroke="black" stroke-width="1" />
<path d="M13.0,13.0 L4.419291817307033,5.306473997771738 L3.0,3.0" fill="yellow" fill-opacity="0.6" stroke="black" stroke-width="1" />
<path d="M13.0,87.0 L4.419291817307033,94.69352600222825 L3.0,97.0" fill="orange" fill-opacity="0.6" stroke="black" stroke-width="1" />
<path d="M13.0,-87.0 L4.419291817307033,-94.69352600222825 L3.0,-97.0" fill="red" fill-opacity="0.6" stroke="black" stroke-width="1" />
<path d="M3.0,-3.0 L0.5135079481275353,-2.6761466707273804 L0.36232796526497746,-1.6524381624196893" fill="black" fill-opacity="0.6" stroke="black" stroke-width="1" />
<path d="M3.0,3.0 L0.5135079481275353,2.6761466707273804 L0.36232796526497746,1.6524381624196893" fill="purple" fill-opacity="0.6" stroke="black" stroke-width="1" />
<path d="M3.0,97.0 L0.5135079481275353,97.32385332927262 L0.36232796526497746,98.34756183758032" fill="pink" fill-opacity="0.6" stroke="black" stroke-width="1" />
<path d="M3.0,-97.0 L0.5135079481275353,-97.32385332927262 L0.36232796526497746,-98.34756183758032" fill="purple" fill-opacity="0.6" stroke="black" stroke-width="1" />
<path d="M0.5135079481275353,-2.6761466707273804 L0.36232796526497746,-1.6524381624196893 L0.06306129602954777,-0.12740324386848467" fill="orange" fill-opacity="0.6" stroke="black" stroke-width="1" />
<path d="M0.5135079481275353,2.6761466707273804 L0.36232796526497746,1.6524381624196893 L0.06306129602954777,0.12740324386848467" fill="green" fill-opacity="0.6" stroke="black" stroke-width="1" />
<path d="M0.5135079481275353,97.32385332927262 L0.36232796526497746,98.34756183758032 L0.06306129602954777,99.87259675613151" fill="black" fill-opacity="0.6" stroke="black" stroke-width="1" />
<path d="M0.5135079481275353,-97.32385332927262 L0.36232796526497746,-98.34756183758032 L0.06306129602954777,-99.87259675613151" fill="orange" fill-opacity="0.6" stroke="black" stroke-width="1" />
<path d="M0.36232796526497746,-1.6524381624196893 L0.06306129602954777,-0.12740324386848467 L0.02251136034589409,-0.061839098693383665" fill="brown" fill-opacity="0.6" stroke="black" stroke-width="1" />
<path d="M0.36232796526497746,1.6524381624196893 L0.06306129602954777,0.12740324386848467 L0.02251136034589409,0.061839098693383665" fill="yellow" fill-opacity="0.6" stroke="black" stroke-width="1" />
<path d="M0.36232796526497746,98.34756183758032 L0.06306129602954777,99.87259675613151 L0.02251136034589409,99.93816090130662" fill="green" fill-opacity="0.6" stroke="black" stroke-width="1" />
<path d="M0.36232796526497746,-98.34756183758032 L0.06306129602954777,-99.87259675613151 L0.02251136034589409,-99.93816090130662" fill="orange" fill-opacity="0.6" stroke="black" stroke-width="1" />
<path d="M0.06306129602954777,-0.12740324386848467 L0.02251136034589409,-0.061839098693383665 L0.0,-0.0" fill="pink" fill-opacity="0.6" stroke="black" stroke-width="1" />
<path d="M0.06306129602954777,0.12740324386848467 L0.02251136034589409,0.061839098693383665 L0.0,-0.0" fill="blue" fill-opacity="0.6" stroke="black" stroke-width="1" />
<path d="M0.06306129602954777,99.87259675613151 L0.02251136034589409,99.93816090130662 L0.0,100.0" fill="green" fill-opacity="0.6" stroke="black" stroke-width="1" />
<path d="M0.06306129602954777,-99.87259675613151 L0.02251136034589409,-99.93816090130662 L0.0,-100.0" fill="blue" fill-opacity="0.6" stroke="black" stroke-width="1" />
<path d="M0.0,100.0 L-4.838928174176416,78.25529435729044 L-6.653223045545001,77.92200137768538" fill="green" fill-opacity="0.6" stroke="black" stroke-width="1" />
<path d="M0.0,-0.0 L-4.838928174176416,-21.74470564270956 L-6.653223045545001,-22.07799862231462" fill="green" fill-opacity="0.6" stroke="black" stroke-width="1" />
<path d="M0.0,-0.0 L-4.838928174176416,21.74470564270956 L-6.653223045545001,22.077998622314624" fill="pink" fill-opacity="0.6" stroke="black" stroke-width="1" />
<path d="M0.0,-100.0 L-4.838928174176416,-78.25529435729044 L-6.653223045545001,-77.92200137768538" fill="blue" fill-opacity="0.6" stroke="black" stroke-width="1" />
<path d="M-4.838928174176416,78.25529435729044 L-6.653223045545001,77.92200137768538 L-7.366641303591448,75.93831680041812" fill="yellow" fill-opacity="0.6" stroke="black" stroke-width="1" />
<path d="M-4.838928174176416,-21.74470564270956 L-6.653223045545001,-22.07799862231462 L-7.366641303591448,-24.061683199581875" fill="blue" fill-opacity="0.6" stroke="black" stroke-width="1" />
<path d="M-4.838928174176416,21.74470564270956 L-6.653223045545001,22.077998622314624 L-7.366641303591448,24.06168319958188" fill="yellow" fill-opacity="0.6" stroke="black" stroke-width="1" />
<path d="M-4.838928174176416,-78.25529435729044 L-6.653223045545001,-77.92200137768538 L-7.366641303591448,-75.93831680041812" fill="blue" fill-opacity="0.6" stroke="black" stroke-width="1" />
<path d="M-6.653223045545001,77.92200137768538 L-7.366641303591448,75.93831680041812 L-7.594295471508169,74.91421818068203" fill="brown" fill-opacity="0.6" stroke="black" stroke-width="1" />
<path d="M-6.653223045545001,-22.07799862231462 L-7.366641303591448,-24.061683199581875 L-7.594295471508169,-25.085781819317972" fill="purple" fill-opacity="0.6" stroke="black" stroke-width="1" />
<path d="M-6.653223045545001,22.077998622314624 L-7.366641303591448,24.06168319958188 L-7.594295471508169,25.085781819317972" fill="pink" fill-opacity="0.6" stroke="black" stroke-width="1" />
<path d="M-6.653223045545001,-77.92200137768538 L-7.366641303591448,-75.93831680041812 L-7.594295471508169,-74.91421818068203" fill="blue" fill-opacity="0.6" stroke="black" stroke-width="1" />
<path d="M-7.366641303591448,75.93831680041812 L-7.594295471508169,74.91421818068203 L-8.091035725686002,74.75257886247584" fill="orange" fill-opacity="0.6" stroke="black" stroke-width="1" />
<path d="M-7.366641303591448,-24.061683199581875 L-7.594295471508169,-25.085781819317972 L-8.091035725686002,-25.24742113752415" fill="pink" fill-opacity="0.6" stroke="black" stroke-width="1" />
<path d="M-7.366641303591448,24.06168319958188 L-7.594295471508169,25.085781819317972 L-8.091035725686002,25.247421137524157" fill="yellow" fill-opacity="0.6" stroke="black" stroke-width="1" />
<path d="M-7.366641303591448,-75.93831680041812 L-7.594295471508169,-74.91421818068203 L-8.091035725686002,-74.75257886247584" fill="purple" fill-opacity="0.6" stroke="black" stroke-width="1" />
<path d="M-7.594295471508169,74.91421818068203 L-8.091035725686002,74.75257886247584 L-10.244303508503648,74.61225307104921" fill="brown" fill-opacity="0.6" stroke="black" stroke-width="1" />
<path d="M-7.594295471508169,-25.085781819317972 L-8.091035725686002,-25.24742113752415 L-10.244303508503648,-25.387746928950794" fill="blue" fill-opacity="0.6" stroke="black" stroke-width="1" />
<path d="M-7.594295471508169,25.085781819317972 L-8.091035725686002,25.247421137524157 L-10.244303508503648,25.38774692895079" fill="black" fill-opacity="0.6" stroke="black" stroke-width="1" />
<path d="M-7.594295471508169,-74.91421818068203 L-8.091035725686002,-74.75257886247584 L-10.244303508503648,-74.61225307104921" fill="black" fill-opacity="0.6" stroke="black" stroke-width="1" />
<path d="M-8.091035725686002,74.75257886247584 L-10.244303508503648,74.61225307104921 L-11.990779387453216,73.41145764881571" fill="brown" fill-opacity="0.6" stroke="black" stroke-width="1" />
<path d="M-8.091035725686002,-25.24742113752415 L-10.244303508503648,-25.387746928950794 L-11.990779387453216,-26.588542351184284" fill="red" fill-opacity="0.6" stroke="black" stroke-width="1" />
<path d="M-8.091035725686002,25.247421137524157 L-10.244303508503648,25.38774692895079 L-11.990779387453216,26.588542351184287" fill="purple" fill-opacity="0.6" stroke="black" stroke-width="1" />
<path d="M-8.091035725686002,-74.75257886247584 L-10.244303508503648,-74.61225307104921 L-11.990779387453216,-73.41145764881571" fill="black" fill-opacity="0.6" stroke="black" stroke-width="1" />
<path d="M-10.244303508503648,74.61225307104921 L-11.990779387453216,73.41145764881571 L0.0,69.0" fill="red" fill-opacity="0.6" stroke="black" stroke-width="1" />
<path d="M-10.244303508503648,-25.387746928950794 L-11.990779387453216,-26.588542351184284 L0.0,-31.0" fill="purple" fill-opacity="0.6" stroke="black" stroke-width="1" />
<path d="M-10.244303508503648,25.38774692895079 L-11.990779387453216,26.588542351184287 L0.0,31.0" fill="pink" fill-opacity="0.6" stroke="black" stroke-width="1" />
<path d="M-10.244303508503648,-74.61225307104921 L-11.990779387453216,-73.41145764881571 L0.0,-69.0" fill="pink" fill-opacity="0.6" stroke="black" stroke-width="1" />
<path d="M0.0,69.0 L-12.401815451091128,65.22825270631265 L0.0,61.0" fill="pink" fill-opacity="0.6" stroke="black" stroke-width="1" />
<path d="M0.0,-31.0 L-12.401815451091128,-34.77174729368736 L0.0,-39.0" fill="brown" fill-opacity="0.6" stroke="black" stroke-width="1" />
<path d="M0.0,31.0 L-12.401815451091128,34.771747293687355 L0.0,39.0" fill="blue" fill-opacity="0.6" stroke="black" stroke-width="1" />
<path d="M0.0,-69.0 L-12.401815451091128,-65.22825270631265 L0.0,-61.0" fill="red" fill-opacity="0.6" stroke="black" stroke-width="1" />
<path d="M-12.0,50.0 L-15.188865109272706,61.814934236949306 L-17.276719482813135,58.674569249585105" fill="blue" fill-opacity="0.6" stroke="black" stroke-width="1" />
<path d="M-12.0,-50.0 L-15.188865109272706,-38.185065763050694 L-17.276719482813135,-41.325430750414895" fill="purple" fill-opacity="0.6" stroke="black" stroke-width="1" />
<path d="M-12.0,50.0 L-15.188865109272706,38.185065763050694 L-17.276719482813135,41.325430750414895" fill="purple" fill-opacity="0.6" stroke="black" stroke-width="1" />
<path d="M-12.0,-50.0 L-15.188865109272706,-61.814934236949306 L-17.276719482813135,-58.674569249585105" fill="brown" fill-opacity="0.6" stroke="black" stroke-width="1" />
<path d="M-15.188865109272706,61.814934236949306 L-17.276719482813135,58.674569249585105 L-18.20043191324909,57.56002021347547" fill="purple" fill-opacity="0.6" stroke="black" stroke-width="1" />
<path d="M-15.188865109272706,-38.185065763050694 L-17.276719482813135,-41.325430750414895 L-18.20043191324909,-42.43997978652453" fill="purple" fill-opacity="0.6" stroke="black" stroke-width="1" />
<path d="M-15.188865109272706,38.185065763050694 L-17.276719482813135,41.325430750414895 L-18.20043191324909,42.43997978652453" fill="brown" fill-opacity="0.6" stroke="black" stroke-width="1" />
<path d="M-15.188865109272706,-61.814934236949306 L-17.276719482813135,-58.674569249585105 L-18.20043191324909,-57.56002021347547" fill="yellow" fill-opacity="0.6" stroke="black" stroke-width="1" />
<path d="M-17.276719482813135,58.674569249585105 L-18.20043191324909,57.56002021347547 L-22.971592279629554,57.222279138133935" fill="yellow" fill-opacity="0.6" stroke="black" stroke-width="1" />
<path d="M-17.276719482813135,-41.325430750414895 L-18.20043191324909,-42.43997978652453 L-22.971592279629554,-42.777720861866065" fill="pink" fill-opacity="0.6" stroke="black" stroke-width="1" />
<path d="M-17.276719482813135,41.325430750414895 L-18.20043191324909,42.43997978652453 L-22.971592279629554,42.777720861866065" fill="blue" fill-opacity="0.6" stroke="black" stroke-width="1" />
<path d="M-17.276719482813135,-58.674569249585105 L-18.20043191324909,-57.56002021347547 L-22.971592279629554,-57.222279138133935" fill="blue" fill-opacity="0.6" stroke="black" stroke-width="1" />
<path d="M-18.20043191324909,57.56002021347547 L-22.971592279629554,57.222279138133935 L-24.217414468833155,57.12969433884531" fill="green" fill-opacity="0.6" stroke="black" stroke-width="1" />
<path d="M-18.20043191324909,-42.43997978652453 L-22.971592279629554,-42.777720861866065 L-24.217414468833155,-42.87030566115469" fill="red" fill-opacity="0.6" stroke="black" stroke-width="1" />
<path d="M-18.20043191324909,42.43997978652453 L-22.971592279629554,42.777720861866065 L-24.217414468833155,42.87030566115469" fill="purple" fill-opacity="0.6" stroke="black" stroke-width="1" />
<path d="M-18.20043191324909,-57.56002021347547 L-22.971592279629554,-57.222279138133935 L-24.217414468833155,-57.12969433884531" fill="brown" fill-opacity="0.6" stroke="black" stroke-width="1" />
<path d="M-22.971592279629554,57.222279138133935 L-24.217414468833155,57.12969433884531 L-25.0,50.0" fill="green" fill-opacity="0.6" stroke="black" stroke-width="1" />
<path d="M-22.971592279629554,-42.777720861866065 L-24.217414468833155,-42.87030566115469 L-25.0,-50.0" fill="black" fill-opacity="0.6" stroke="black" stroke-width="1" />
<path d="M-22.971592279629554,42.777720861866065 L-24.217414468833155,42.87030566115469 L-25.0,50.0" fill="green" fill-opacity="0.6" stroke="black" stroke-width="1" />
<path d="M-22.971592279629554,-57.222279138133935 L-24.217414468833155,-57.12969433884531 L-25.0,-50.0" fill="pink" fill-opacity="0.6" stroke="black" stroke-width="1" />
<path d="M-25.0,50.0 L-31.050838662385015,50.6164028043701 L-35.0,50.0" fill="blue" fill-opacity="0.6" stroke="black" stroke-width="1" />
<path d="M-25.0,-50.0 L-31.050838662385015,-49.3835971956299 L-35.0,-50.0" fill="brown" fill-opacity="0.6" stroke="black" stroke-width="1" />
<path d="M-25.0,50.0 L-31.050838662385015,49.3835971956299 L-35.0,50.0" fill="blue" fill-opacity="0.6" stroke="black" stroke-width="1" />
<path d="M-25.0,-50.0 L-31.050838662385015,-50.6164028043701 L-35.0,-50.0" fill="pink" fill-opacity="0.6" stroke="black" stroke-width="1" />
<path d="M-13.0,87.0 L-4.419291817307033,94.69352600222827 L-3.0,97.0" fill="black" fill-opacity="0.6" stroke="black" stroke-width="1" />
<path d="M-13.0,-13.0 L-4.419291817307033,-5.306473997771738 L-3.0,-3.0" fill="red" fill-opacity="0.6" stroke="black" stroke-width="1" />
<path d="M-13.0,13.0 L-4.419291817307033,5.306473997771732 L-3.0,3.0" fill="pink" fill-opacity="0.6" stroke="black" stroke-width="1" />
<path d="M-13.0,-87.0 L-4.419291817307033,-94.69352600222825 L-3.0,-97.0" fill="purple" fill-opacity="0.6" stroke="black" stroke-width="1" />
<path d="M-3.0,97.0 L-0.5135079481275353,97.32385332927262 L-0.36232796526497746,98.34756183758032" fill="green" fill-opacity="0.6" stroke="black" stroke-width="1" />
<path d="M-3.0,-3.0 L-0.5135079481275353,-2.6761466707273804 L-0.36232796526497746,-1.6524381624196893" fill="yellow" fill-opacity="0.6" stroke="black" stroke-width="1" />
<path d="M-3.0,3.0 L-0.5135079481275353,2.676146670727377 L-0.36232796526497746,1.6524381624196849" fill="pink" fill-opacity="0.6" stroke="black" stroke-width="1" />
<path d="M-3.0,-97.0 L-0.5135079481275353,-97.32385332927262 L-0.36232796526497746,-98.34756183758032" fill="brown" fill-opacity="0.6" stroke="black" stroke-width="1" />
<path d="M-0.5135079481275353,97.32385332927262 L-0.36232796526497746,98.34756183758032 L-0.06306129602954777,99.87259675613151" fill="orange" fill-opacity="0.6" stroke="black" stroke-width="1" />
<path d="M-0.5135079481275353,-2.6761466707273804 L-0.36232796526497746,-1.6524381624196893 L-0.06306129602954777,-0.12740324386848467" fill="pink" fill-opacity="0.6" stroke="black" stroke-width="1" />
<path d="M-0.5135079481275353,2.676146670727377 L-0.36232796526497746,1.6524381624196849 L-0.06306129602954777,0.12740324386848556" fill="brown" fill-opacity="0.6" stroke="black" stroke-width="1" />
<path d="M-0.5135079481275353,-97.32385332927262 L-0.36232796526497746,-98.34756183758032 L-0.06306129602954777,-99.87259675613151" fill="purple" fill-opacity="0.6" stroke="black" stroke-width="1" />
<path d="M-0.36232796526497746,98.34756183758032 L-0.06306129602954777,99.87259675613151 L-0.02251136034589409,99.93816090130662" fill="brown" fill-opacity="0.6" stroke="black" stroke-width="1" />
<path d="M-0.36232796526497746,-1.6524381624196893 L-0.06306129602954777,-0.12740324386848467 L-0.02251136034589409,-0.061839098693383665" fill="green" fill-opacity="0.6" stroke="black" stroke-width="1" />
<path d="M-0.36232796526497746,1.6524381624196849 L-0.06306129602954777,0.12740324386848556 L-0.02251136034589409,0.06183909869338322" fill="pink" fill-opacity="0.6" stroke="black" stroke-width="1" />
<path d="M-0.36232796526497746,-98.34756183758032 L-0.06306129602954777,-99.87259675613151 L-0.02251136034589409,-99.93816090130662" fill="blue" fill-opacity="0.6" stroke="black" stroke-width="1" />
<path d="M-0.06306129602954777,99.87259675613151 L-0.02251136034589409,99.93816090130662 L0.0,100.0" fill="pink" fill-opacity="0.6" stroke="black" stroke-width="1" />
<path d="M-0.06306129602954777,-0.12740324386848467 L-0.02251136034589409,-0.061839098693383665 L0.0,-0.0" fill="blue" fill-opacity="0.6" stroke="black" stroke-width="1" />
<path d="M-0.06306129602954777,0.12740324386848556 L-0.02251136034589409,0.06183909869338322 L0.0,-0.0" fill="green" fill-opacity="0.6" stroke="black" stroke-width="1" />
<path d="M-0.06306129602954777,-99.87259675613151 L-0.02251136034589409,-99.93816090130662 L0.0,-100.0" fill="yellow" fill-opacity="0.6" stroke="black" stroke-width="1" />
<path d="M-100.0,-0.0 L-78.25529435729044,-4.838928174176416 L-77.92200137768538,-6.653223045545001" fill="pink" fill-opacity="0.6" stroke="black" stroke-width="1" />
<path d="M-100.0,-0.0 L-78.25529435729044,4.838928174176416 L-77.92200137768538,6.653223045545001" fill="pink" fill-opacity="0.6" stroke="black" stroke-width="1" />
<path d="M-78.25529435729044,-4.838928174176416 L-77.92200137768538,-6.653223045545001 L-75.93831680041812,-7.366641303591448" fill="green" fill-opacity="0.6" stroke="black" stroke-width="1" />
<path d="M-78.25529435729044,4.838928174176416 L-77.92200137768538,6.653223045545001 L-75.93831680041812,7.366641303591448" fill="brown" fill-opacity="0.6" stroke="black" stroke-width="1" />
<path d="M-77.92200137768538,-6.653223045545001 L-75.93831680041812,-7.366641303591448 L-74.91421818068203,-7.594295471508169" fill="blue" fill-opacity="0.6" stroke="black" stroke-width="1" />
<path d="M-77.92200137768538,6.653223045545001 L-75.93831680041812,7.366641303591448 L-74.91421818068203,7.594295471508169" fill="pink" fill-opacity="0.6" stroke="black" stroke-width="1" />
<path d="M-75.93831680041812,-7.366641303591448 L-74.91421818068203,-7.594295471508169 L-74.75257886247584,-8.091035725686002" fill="red" fill-opacity="0.6" stroke="black" stroke-width="1" />
<path d="M-75.93831680041812,7.366641303591448 L-74.91421818068203,7.594295471508169 L-74.75257886247584,8.091035725686002" fill="blue" fill-opacity="0.6" stroke="black" stroke-width="1" />
<path d="M-74.91421818068203,-7.594295471508169 L-74.75257886247584,-8.091035725686002 L-74.61225307104921,-10.244303508503648" fill="brown" fill-opacity="0.6" stroke="black" stroke-width="1" />
<path d="M-74.91421818068203,7.594295471508169 L-74.75257886247584,8.091035725686002 L-74.61225307104921,10.244303508503648" fill="black" fill-opacity="0.6" stroke="black" stroke-width="1" />
<path d="M-74.75257886247584,-8.091035725686002 L-74.61225307104921,-10.244303508503648 L-73.41145764881571,-11.990779387453216" fill="black" fill-opacity="0.6" stroke="black" stroke-width="1" />
<path d="M-74.75257886247584,8.091035725686002 L-74.61225307104921,10.244303508503648 L-73.41145764881571,11.990779387453216" fill="red" fill-opacity="0.6" stroke="black" stroke-width="1" />
<path d="M-74.61225307104921,-10.244303508503648 L-73.41145764881571,-11.990779387453216 L-69.0,-0.0" fill="pink" fill-opacity="0.6" stroke="black" stroke-width="1" />
<path d="M-74.61225307104921,10.244303508503648 L-73.41145764881571,11.990779387453216 L-69.0,-0.0" fill="brown" fill-opacity="0.6" stroke="black" stroke-width="1" />
<path d="M-69.0,-0.0 L-65.22825270631265,-12.401815451091128 L-61.0,-0.0" fill="green" fill-opacity="0.6" stroke="black" stroke-width="1" />
<path d="M-69.0,-0.0 L-65.22825270631265,12.401815451091128 L-61.0,-0.0" fill="orange" fill-opacity="0.6" stroke="black" stroke-width="1" />
<path d="M-50.0,-12.0 L-61.814934236949306,-15.188865109272706 L-58.674569249585105,-17.276719482813135" fill="orange" fill-opacity="0.6" stroke="black" stroke-width="1" />
<path d="M-50.0,12.0 L-61.814934236949306,15.188865109272706 L-58.674569249585105,17.276719482813135" fill="green" fill-opacity="0.6" stroke="black" stroke-width="1" />
<path d="M-61.814934236949306,-15.188865109272706 L-58.674569249585105,-17.276719482813135 L-57.56002021347547,-18.20043191324909" fill="blue" fill-opacity="0.6" stroke="black" stroke-width="1" />
<path d="M-61.814934236949306,15.188865109272706 L-58.674569249585105,17.276719482813135 L-57.56002021347547,18.20043191324909" fill="blue" fill-opacity="0.6" stroke="black" stroke-width="1" />
<path d="M-58.674569249585105,-17.276719482813135 L-57.56002021347547,-18.20043191324909 L-57.222279138133935,-22.971592279629554" fill="pink" fill-opacity="0.6" stroke="black" stroke-width="1" />
<path d="M-58.674569249585105,17.276719482813135 L-57.56002021347547,18.20043191324909 L-57.222279138133935,22.971592279629554" fill="black" fill-opacity="0.6" stroke="black" stroke-width="1" />
<path d="M-57.56002021347547,-18.20043191324909 L-57.222279138133935,-22.971592279629554 L-57.12969433884531,-24.217414468833155" fill="red" fill-opacity="0.6" stroke="black" stroke-width="1" />
<path d="M-57.56002021347547,18.20043191324909 L-57.222279138133935,22.971592279629554 L-57.12969433884531,24.217414468833155" fill="purple" fill-opacity="0.6" stroke="black" stroke-width="1" />
<path d="M-57.222279138133935,-22.971592279629554 L-57.12969433884531,-24.217414468833155 L-50.0,-25.0" fill="brown" fill-opacity="0.6" stroke="black" stroke-width="1" />
<path d="M-57.222279138133935,22.971592279629554 L-57.12969433884531,24.217414468833155 L-50.0,25.0" fill="blue" fill-opacity="0.6" stroke="black" stroke-width="1" />
<path d="M-50.0,-25.0 L-50.6164028043701,-31.050838662385015 L-50.0,-35.0" fill="yellow" fill-opacity="0.6" stroke="black" stroke-width="1" />
<path d="M-50.0,25.0 L-50.6164028043701,31.050838662385015 L-50.0,35.0" fill="pink" fill-opacity="0.6" stroke="black" stroke-width="1" />
<path d="M-50.0,-41.0 L-72.0,-28.0 L-87.0,-13.0" fill="blue" fill-opacity="0.6" stroke="black" stroke-width="1" />
<path d="M-50.0,41.0 L-72.0,28.0 L-87.0,13.0" fill="blue" fill-opacity="0.6" stroke="black" stroke-width="1" />
<path d="M-72.0,-28.0 L-87.0,-13.0 L-94.69352600222825,-4.419291817307033" fill="blue" fill-opacity="0.6" stroke="black" stroke-width="1" />
<path d="M-72.0,28.0 L-87.0,13.0 L-94.69352600222825,4.419291817307033" fill="pink" fill-opacity="0.6" stroke="black" stroke-width="1" />
<path d="M-87.0,-13.0 L-94.69352600222825,-4.419291817307033 L-97.0,-3.0" fill="orange" fill-opacity="0.6" stroke="black" stroke-width="1" />
<path d="M-87.0,13.0 L-94.69352600222825,4.419291817307033 L-97.0,3.0" fill="purple" fill-opacity="0.6" stroke="black" stroke-width="1" />
<path d="M-97.0,-3.0 L-97.32385332927262,-0.5135079481275353 L-98.34756183758032,-0.36232796526497746" fill="pink" fill-opacity="0.6" stroke="black" stroke-width="1" />
<path d="M-97.0,3.0 L-97.32385332927262,0.5135079481275353 L-98.34756183758032,0.36232796526497746" fill="green" fill-opacity="0.6" stroke="black" stroke-width="1" />
<path d="M-97.32385332927262,-0.5135079481275353 L-98.34756183758032,-0.36232796526497746 L-99.87259675613151,-0.06306129602954777" fill="pink" fill-opacity="0.6" stroke="black" stroke-width="1" />
<path d="M-97.32385332927262,0.5135079481275353 L-98.34756183758032,0.36232796526497746 L-99.87259675613151,0.06306129602954777" fill="orange" fill-opacity="0.6" stroke="black" stroke-width="1" />
<path d="M-98.34756183758032,-0.36232796526497746 L-99.87259675613151,-0.06306129602954777 L-99.93816090130662,-0.02251136034589409" fill="blue" fill-opacity="0.6" stroke="black" stroke-width="1" />
<path d="M-98.34756183758032,0.36232796526497746 L-99.87259675613151,0.06306129602954777 L-99.93816090130662,0.02251136034589409" fill="pink" fill-opacity="0.6" stroke="black" stroke-width="1" />
<path d="M-99.87259675613151,-0.06306129602954777 L-99.93816090130662,-0.02251136034589409 L-100.0,-0.0" fill="blue" fill-opacity="0.6" stroke="black" stroke-width="1" />
<path d="M-99.87259675613151,0.06306129602954777 L-99.93816090130662,0.02251136034589409 L-100.0,-0.0" fill="red" fill-opacity="0.6" stroke="black" stroke-width="1" />
</svg>