<?xml version="1.0" encoding="UTF-8"?>
<svg xmlns="http://www.w3.org/2000/svg" xmlns:xlink="http://www.w3.org/1999/xlink"
     width="250" height="250" viewBox="-125.0 -125.0 250 250">
<defs>
</defs>
<path d="M16.093044748057405,81.7363801227827 L12.0,88.0 L1.9517350382486778,95.61744203780091" fill-opacity="0" stroke="black" stroke-width="1" />
<path d="M16.093044748057405,-81.7363801227827 L12.0,-88.0 L1.9517350382486778,-95.61744203780091" fill-opacity="0" stroke="black" stroke-width="1" />
<path d="M12.0,-0.0 L16.219084505927967,-3.0312723299098954 L28.0,-0.0" fill-opacity="0" stroke="black" stroke-width="1" />
<path d="M12.0,-0.0 L16.219084505927967,3.0312723299098954 L28.0,-0.0" fill-opacity="0" stroke="black" stroke-width="1" />
<path d="M50.0,-19.0 L43.948127796412734,-22.258012512860724 L50.0,-26.0" fill-opacity="0" stroke="black" stroke-width="1" />
<path d="M50.0,19.0 L43.948127796412734,22.258012512860724 L50.0,26.0" fill-opacity="0" stroke="black" stroke-width="1" />
<path d="M50.0,50.0 L49.0,51.0 L35.0,65.0" fill-opacity="0" stroke="black" stroke-width="1" />
<path d="M50.0,-50.0 L49.0,-51.0 L35.0,-65.0" fill-opacity="0" stroke="black" stroke-width="1" />
<path d="M49.0,51.0 L35.0,65.0 L32.0,68.0" fill-opacity="0" stroke="black" stroke-width="1" />
<path d="M49.0,-51.0 L35.0,-65.0 L32.0,-68.0" fill-opacity="0" stroke="black" stroke-width="1" />
<path d="M35.0,65.0 L32.0,68.0 L21.834922669824593,75.86952147261238" fill-opacity="0" stroke="black" stroke-width="1" />
<path d="M35.0,-65.0 L32.0,-68.0 L21.834922669824593,-75.86952147261238" fill-opacity="0" stroke="black" stroke-width="1" />
<path d="M32.0,-32.0 L24.130478527387623,-21.834922669824593 L22.859631528623037,-20.87020934119493" fill-opacity="0" stroke="black" stroke-width="1" />
<path d="M32.0,32.0 L24.130478527387623,21.834922669824593 L22.859631528623037,20.87020934119493" fill-opacity="0" stroke="black" stroke-width="1" />
<path d="M24.130478527387623,-21.834922669824593 L22.859631528623037,-20.87020934119493 L22.71304393429033,-17.383448647335236" fill-opacity="0" stroke="black" stroke-width="1" />
<path d="M24.130478527387623,21.834922669824593 L22.859631528623037,20.87020934119493 L22.71304393429033,17.383448647335236" fill-opacity="0" stroke="black" stroke-width="1" />
<path d="M22.859631528623037,-20.87020934119493 L22.71304393429033,-17.383448647335236 L20.810597904377783,-16.90295965808253" fill-opacity="0" stroke="black" stroke-width="1" />
<path d="M22.859631528623037,20.87020934119493 L22.71304393429033,17.383448647335236 L20.810597904377783,16.90295965808253" fill-opacity="0" stroke="black" stroke-width="1" />
<path d="M22.71304393429033,-17.383448647335236 L20.810597904377783,-16.90295965808253 L18.263619877217295,-16.093044748057405" fill-opacity="0" stroke="black" stroke-width="1" />
<path d="M22.71304393429033,17.383448647335236 L20.810597904377783,16.90295965808253 L18.263619877217295,16.093044748057405" fill-opacity="0" stroke="black" stroke-width="1" />
<path d="M20.810597904377783,-16.90295965808253 L18.263619877217295,-16.093044748057405 L12.0,-12.0" fill-opacity="0" stroke="black" stroke-width="1" />
<path d="M20.810597904377783,16.90295965808253 L18.263619877217295,16.093044748057405 L12.0,12.0" fill-opacity="0" stroke="black" stroke-width="1" />
<path d="M12.0,-12.0 L4.38255796219909,-1.9517350382486778 L1.3216979740995671,-1.1826658248215565" fill-opacity="0" stroke="black" stroke-width="1" />
<path d="M12.0,12.0 L4.38255796219909,1.9517350382486778 L1.3216979740995671,1.1826658248215565" fill-opacity="0" stroke="black" stroke-width="1" />
<path d="M4.38255796219909,-1.9517350382486778 L1.3216979740995671,-1.1826658248215565 L0.30082756323325804,-0.2775733265019942" fill-opacity="0" stroke="black" stroke-width="1" />
<path d="M4.38255796219909,1.9517350382486778 L1.3216979740995671,1.1826658248215565 L0.30082756323325804,0.2775733265019942" fill-opacity="0" stroke="black" stroke-width="1" />
<path d="M1.3216979740995671,-1.1826658248215565 L0.30082756323325804,-0.2775733265019942 L0.0,-0.0" fill-opacity="0" stroke="black" stroke-width="1" />
<path d="M1.3216979740995671,1.1826658248215565 L0.30082756323325804,0.2775733265019942 L0.0,-0.0" fill-opacity="0" stroke="black" stroke-width="1" />
<path d="M-16.093044748057405,81.7363801227827 L-12.0,88.0 L-1.9517350382486778,95.61744203780091" fill-opacity="0" stroke="black" stroke-width="1" />
<path d="M-16.093044748057405,-81.7363801227827 L-12.0,-88.0 L-1.9517350382486778,-95.61744203780091" fill-opacity="0" stroke="black" stroke-width="1" />
<path d="M-12.0,-0.0 L-16.219084505927967,-3.0312723299098954 L-28.0,-0.0" fill-opacity="0" stroke="black" stroke-width="1" />
<path d="M-12.0,-0.0 L-16.219084505927967,3.0312723299098954 L-28.0,-0.0" fill-opacity="0" stroke="black" stroke-width="1" />
<path d="M-50.0,-19.0 L-43.948127796412734,-22.258012512860724 L-50.0,-26.0" fill-opacity="0" stroke="black" stroke-width="1" />
<path d="M-50.0,19.0 L-43.948127796412734,22.258012512860724 L-50.0,26.0" fill-opacity="0" stroke="black" stroke-width="1" />
<path d="M-50.0,50.0 L-49.0,51.0 L-35.0,65.0" fill-opacity="0" stroke="black" stroke-width="1" />
<path d="M-50.0,-50.0 L-49.0,-51.0 L-35.0,-65.0" fill-opacity="0" stroke="black" stroke-width="1" />
<path d="M-49.0,51.0 L-35.0,65.0 L-32.0,68.0" fill-opacity="0" stroke="black" stroke-width="1" />
<path d="M-49.0,-51.0 L-35.0,-65.0 L-32.0,-68.0" fill-opacity="0" stroke="black" stroke-width="1" />
<path d="M-35.0,65.0 L-32.0,68.0 L-21.834922669824593,75.86952147261238" fill-opacity="0" stroke="black" stroke-width="1" />
<path d="M-35.0,-65.0 L-32.0,-68.0 L-21.834922669824593,-75.86952147261238" fill-opacity="0" stroke="black" stroke-width="1" />
<path d="M-32.0,-32.0 L-24.130478527387623,-21.834922669824593 L-22.859631528623037,-20.87020934119493" fill-opacity="0" stroke="black" stroke-width="1" />
<path d="M-32.0,32.0 L-24.130478527387623,21.834922669824593 L-22.859631528623037,20.87020934119493" fill-opacity="0" stroke="black" stroke-width="1" />
<path d="M-24.130478527387623,-21.834922669824593 L-22.859631528623037,-20.87020934119493 L-22.71304393429033,-17.383448647335236" fill-opacity="0" stroke="black" stroke-width="1" />
<path d="M-24.130478527387623,21.834922669824593 L-22.859631528623037,20.87020934119493 L-22.71304393429033,17.383448647335236" fill-opacity="0" stroke="black" stroke-width="1" />
<path d="M-22.859631528623037,-20.87020934119493 L-22.71304393429033,-17.383448647335236 L-20.810597904377783,-16.90295965808253" fill-opacity="0" stroke="black" stroke-width="1" />
<path d="M-22.859631528623037,20.87020934119493 L-22.71304393429033,17.383448647335236 L-20.810597904377783,16.90295965808253" fill-opacity="0" stroke="black" stroke-width="1" />
<path d="M-22.71304393429033,-17.383448647335236 L-20.810597904377783,-16.90295965808253 L-18.263619877217295,-16.093044748057405" fill-opacity="0" stroke="black" stroke-width="1" />
<path d="M-22.71304393429033,17.383448647335236 L-20.810597904377783,16.90295965808253 L-18.263619877217295,16.093044748057405" fill-opacity="0" stroke="black" stroke-width="1" />
<path d="M-20.810597904377783,-16.90295965808253 L-18.263619877217295,-16.093044748057405 L-12.0,-12.0" fill-opacity="0" stroke="black" stroke-width="1" />
<path d="M-20.810597904377783,16.90295965808253 L-18.263619877217295,16.093044748057405 L-12.0,12.0" fill-opacity="0" stroke="black" stroke-width="1" />
<path d="M-12.0,-12.0 L-4.38255796219909,-1.9517350382486778 L-1.3216979740995671,-1.1826658248215565" fill-opacity="0" stroke="black" stroke-width="1" />
<path d="M-12.0,12.0 L-4.38255796219909,1.9517350382486778 L-1.3216979740995671,1.1826658248215565" fill-opacity="0" stroke="black" stroke-width="1" />
<path d="M-4.38255796219909,-1.9517350382486778 L-1.3216979740995671,-1.1826658248215565 L-0.30082756323325804,-0.2775733265019942" fill-opacity="0" stroke="black" stroke-width="1" />
<path d="M-4.38255796219909,1.9517350382486778 L-1.3216979740995671,1.1826658248215565 L-0.30082756323325804,0.2775733265019942" fill-opacity="0" stroke="black" stroke-width="1" />
<path d="M-1.3216979740995671,-1.1826658248215565 L-0.30082756323325804,-0.2775733265019942 L0.0,-0.0" fill-opacity="0" stroke="black" stroke-width="1" />
<path d="M-1.3216979740995671,1.1826658248215565 L-0.30082756323325804,0.2775733265019942 L0.0,-0.0" fill-opacity="0" stroke="black" stroke-width="1" />
<path d="M81.7363801227827,16.093044748057405 L88.0,12.0 L95.61744203780091,1.9517350382486778" fill-opacity="0" stroke="black" stroke-width="1" />
<path d="M81.7363801227827,-16.093044748057405 L88.0,-12.0 L95.61744203780091,-1.9517350382486778" fill-opacity="0" stroke="black" stroke-width="1" />
<path d="M88.0,-0.0 L83.78091549407203,3.0312723299098954 L72.0,-0.0" fill-opacity="0" stroke="black" stroke-width="1" />
<path d="M88.0,-0.0 L83.78091549407203,-3.0312723299098954 L72.0,-0.0" fill-opacity="0" stroke="black" stroke-width="1" />
<path d="M50.0,19.0 L56.051872203587266,22.258012512860724 L50.0,26.0" fill-opacity="0" stroke="black" stroke-width="1" />
<path d="M50.0,-19.0 L56.051872203587266,-22.258012512860724 L50.0,-26.0" fill-opacity="0" stroke="black" stroke-width="1" />
<path d="M50.0,50.0 L51.0,49.0 L65.0,35.0" fill-opacity="0" stroke="black" stroke-width="1" />
<path d="M50.0,-50.0 L51.0,-49.0 L65.0,-35.0" fill-opacity="0" stroke="black" stroke-width="1" />
<path d="M51.0,49.0 L65.0,35.0 L68.0,32.0" fill-opacity="0" stroke="black" stroke-width="1" />
<path d="M51.0,-49.0 L65.0,-35.0 L68.0,-32.0" fill-opacity="0" stroke="black" stroke-width="1" />
<path d="M65.0,35.0 L68.0,32.0 L75.86952147261238,21.834922669824593" fill-opacity="0" stroke="black" stroke-width="1" />
<path d="M65.0,-35.0 L68.0,-32.0 L75.86952147261238,-21.834922669824593" fill-opacity="0" stroke="black" stroke-width="1" />
<path d="M68.0,32.0 L75.86952147261238,21.834922669824593 L77.14036847137696,20.87020934119493" fill-opacity="0" stroke="black" stroke-width="1" />
<path d="M68.0,-32.0 L75.86952147261238,-21.834922669824593 L77.14036847137696,-20.87020934119493" fill-opacity="0" stroke="black" stroke-width="1" />
<path d="M75.86952147261238,21.834922669824593 L77.14036847137696,20.87020934119493 L77.28695606570967,17.383448647335236" fill-opacity="0" stroke="black" stroke-width="1" />
<path d="M75.86952147261238,-21.834922669824593 L77.14036847137696,-20.87020934119493 L77.28695606570967,-17.383448647335236" fill-opacity="0" stroke="black" stroke-width="1" />
<path d="M77.14036847137696,20.87020934119493 L77.28695606570967,17.383448647335236 L79.18940209562221,16.90295965808253" fill-opacity="0" stroke="black" stroke-width="1" />
<path d="M77.14036847137696,-20.87020934119493 L77.28695606570967,-17.383448647335236 L79.18940209562221,-16.90295965808253" fill-opacity="0" stroke="black" stroke-width="1" />
<path d="M77.28695606570967,17.383448647335236 L79.18940209562221,16.90295965808253 L81.7363801227827,16.093044748057405" fill-opacity="0" stroke="black" stroke-width="1" />
<path d="M77.28695606570967,-17.383448647335236 L79.18940209562221,-16.90295965808253 L81.7363801227827,-16.093044748057405" fill-opacity="0" stroke="black" stroke-width="1" />
<path d="M79.18940209562221,16.90295965808253 L81.7363801227827,16.093044748057405 L88.0,12.0" fill-opacity="0" stroke="black" stroke-width="1" />
<path d="M79.18940209562221,-16.90295965808253 L81.7363801227827,-16.093044748057405 L88.0,-12.0" fill-opacity="0" stroke="black" stroke-width="1" />
<path d="M88.0,12.0 L95.61744203780091,1.9517350382486778 L98.67830202590044,1.1826658248215565" fill-opacity="0" stroke="black" stroke-width="1" />
<path d="M88.0,-12.0 L95.61744203780091,-1.9517350382486778 L98.67830202590044,-1.1826658248215565" fill-opacity="0" stroke="black" stroke-width="1" />
<path d="M95.61744203780091,1.9517350382486778 L98.67830202590044,1.1826658248215565 L99.69917243676674,0.2775733265019942" fill-opacity="0" stroke="black" stroke-width="1" />
<path d="M95.61744203780091,-1.9517350382486778 L98.67830202590044,-1.1826658248215565 L99.69917243676674,-0.2775733265019942" fill-opacity="0" stroke="black" stroke-width="1" />
<path d="M98.67830202590044,1.1826658248215565 L99.69917243676674,0.2775733265019942 L100.0,-0.0" fill-opacity="0" stroke="black" stroke-width="1" />
<path d="M98.67830202590044,-1.1826658248215565 L99.69917243676674,-0.2775733265019942 L100.0,-0.0" fill-opacity="0" stroke="black" stroke-width="1" />
<path d="M0.0,-12.0 L3.0312723299098954,-16.219084505927967 L0.0,-28.0" fill-opacity="0" stroke="black" stroke-width="1" />
<path d="M0.0,12.0 L3.0312723299098954,16.219084505927967 L0.0,28.0" fill-opacity="0" stroke="black" stroke-width="1" />
<path d="M0.0,88.0 L3.0312723299098954,83.78091549407203 L0.0,72.0" fill-opacity="0" stroke="black" stroke-width="1" />
<path d="M0.0,-88.0 L3.0312723299098954,-83.78091549407203 L0.0,-72.0" fill-opacity="0" stroke="black" stroke-width="1" />
<path d="M19.0,-50.0 L22.258012512860724,-43.948127796412734 L26.0,-50.0" fill-opacity="0" stroke="black" stroke-width="1" />
<path d="M19.0,50.0 L22.258012512860724,43.948127796412734 L26.0,50.0" fill-opacity="0" stroke="black" stroke-width="1" />
<path d="M19.0,50.0 L22.258012512860724,56.051872203587266 L26.0,50.0" fill-opacity="0" stroke="black" stroke-width="1" />
<path d="M19.0,-50.0 L22.258012512860724,-56.051872203587266 L26.0,-50.0" fill-opacity="0" stroke="black" stroke-width="1" />
<path d="M32.0,-32.0 L21.834922669824593,-24.130478527387623 L20.87020934119493,-22.859631528623037" fill-opacity="0" stroke="black" stroke-width="1" />
<path d="M32.0,32.0 L21.834922669824593,24.130478527387623 L20.87020934119493,22.859631528623037" fill-opacity="0" stroke="black" stroke-width="1" />
<path d="M32.0,68.0 L21.834922669824593,75.86952147261238 L20.87020934119493,77.14036847137696" fill-opacity="0" stroke="black" stroke-width="1" />
<path d="M32.0,-68.0 L21.834922669824593,-75.86952147261238 L20.87020934119493,-77.14036847137696" fill-opacity="0" stroke="black" stroke-width="1" />
<path d="M21.834922669824593,-24.130478527387623 L20.87020934119493,-22.859631528623037 L17.383448647335236,-22.71304393429033" fill-opacity="0" stroke="black" stroke-width="1" />
<path d="M21.834922669824593,24.130478527387623 L20.87020934119493,22.859631528623037 L17.383448647335236,22.71304393429033" fill-opacity="0" stroke="black" stroke-width="1" />
<path d="M21.834922669824593,75.86952147261238 L20.87020934119493,77.14036847137696 L17.383448647335236,77.28695606570967" fill-opacity="0" stroke="black" stroke-width="1" />
<path d="M21.834922669824593,-75.86952147261238 L20.87020934119493,-77.14036847137696 L17.383448647335236,-77.28695606570967" fill-opacity="0" stroke="black" stroke-width="1" />
<path d="M20.87020934119493,-22.859631528623037 L17.383448647335236,-22.71304393429033 L16.90295965808253,-20.810597904377783" fill-opacity="0" stroke="black" stroke-width="1" />
<path d="M20.87020934119493,22.859631528623037 L17.383448647335236,22.71304393429033 L16.90295965808253,20.810597904377783" fill-opacity="0" stroke="black" stroke-width="1" />
<path d="M20.87020934119493,77.14036847137696 L17.383448647335236,77.28695606570967 L16.90295965808253,79.18940209562221" fill-opacity="0" stroke="black" stroke-width="1" />
<path d="M20.87020934119493,-77.14036847137696 L17.383448647335236,-77.28695606570967 L16.90295965808253,-79.18940209562221" fill-opacity="0" stroke="black" stroke-width="1" />
<path d="M17.383448647335236,-22.71304393429033 L16.90295965808253,-20.810597904377783 L16.093044748057405,-18.263619877217295" fill-opacity="0" stroke="black" stroke-width="1" />
<path d="M17.383448647335236,22.71304393429033 L16.90295965808253,20.810597904377783 L16.093044748057405,18.263619877217295" fill-opacity="0" stroke="black" stroke-width="1" />
<path d="M17.383448647335236,77.28695606570967 L16.90295965808253,79.18940209562221 L16.093044748057405,81.7363801227827" fill-opacity="0" stroke="black" stroke-width="1" />
<path d="M17.383448647335236,-77.28695606570967 L16.90295965808253,-79.18940209562221 L16.093044748057405,-81.7363801227827" fill-opacity="0" stroke="black" stroke-width="1" />
<path d="M16.90295965808253,-20.810597904377783 L16.093044748057405,-18.263619877217295 L12.0,-12.0" fill-opacity="0" stroke="black" stroke-width="1" />
<path d="M16.90295965808253,20.810597904377783 L16.093044748057405,18.263619877217295 L12.0,12.0" fill-opacity="0" stroke="black" stroke-width="1" />
<path d="M16.90295965808253,79.18940209562221 L16.093044748057405,81.7363801227827 L12.0,88.0" fill-opacity="0" stroke="black" stroke-width="1" />
<path d="M16.90295965808253,-79.18940209562221 L16.093044748057405,-81.7363801227827 L12.0,-88.0" fill-opacity="0" stroke="black" stroke-width="1" />
<path d="M12.0,-12.0 L1.9517350382486778,-4.38255796219909 L1.1826658248215565,-1.3216979740995671" fill-opacity="0" stroke="black" stroke-width="1" />
<path d="M12.0,12.0 L1.9517350382486778,4.38255796219909 L1.1826658248215565,1.3216979740995671" fill-opacity="0" stroke="black" stroke-width="1" />
<path d="M12.0,88.0 L1.9517350382486778,95.61744203780091 L1.1826658248215565,98.67830202590044" fill-opacity="0" stroke="black" stroke-width="1" />
<path d="M12.0,-88.0 L1.9517350382486778,-95.61744203780091 L1.1826658248215565,-98.67830202590044" fill-opacity="0" stroke="black" stroke-width="1" />
<path d="M1.9517350382486778,-4.38255796219909 L1.1826658248215565,-1.3216979740995671 L0.2775733265019942,-0.30082756323325804" fill-opacity="0" stroke="black" stroke-width="1" />
<path d="M1.9517350382486778,4.38255796219909 L1.1826658248215565,1.3216979740995671 L0.2775733265019942,0.30082756323325804" fill-opacity="0" stroke="black" stroke-width="1" />
<path d="M1.9517350382486778,95.61744203780091 L1.1826658248215565,98.67830202590044 L0.2775733265019942,99.69917243676674" fill-opacity="0" stroke="black" stroke-width="1" />
<path d="M1.9517350382486778,-95.61744203780091 L1.1826658248215565,-98.67830202590044 L0.2775733265019942,-99.69917243676674" fill-opacity="0" stroke="black" stroke-width="1" />
<path d="M1.1826658248215565,-1.3216979740995671 L0.2775733265019942,-0.30082756323325804 L0.0,-0.0" fill-opacity="0" stroke="black" stroke-width="1" />
<path d="M1.1826658248215565,1.3216979740995671 L0.2775733265019942,0.30082756323325804 L0.0,-0.0" fill-opacity="0" stroke="black" stroke-width="1" />
<path d="M1.1826658248215565,98.67830202590044 L0.2775733265019942,99.69917243676674 L0.0,100.0" fill-opacity="0" stroke="black" stroke-width="1" />
<path d="M1.1826658248215565,-98.67830202590044 L0.2775733265019942,-99.69917243676674 L0.0,-100.0" fill-opacity="0" stroke="black" stroke-width="1" />
<path d="M0.0,88.0 L-3.0312723299098954,83.78091549407203 L0.0,72.0" fill-opacity="0" stroke="black" stroke-width="1" />
<path d="M0.0,-12.0 L-3.0312723299098954,-16.219084505927967 L0.0,-28.0" fill-opacity="0" stroke="black" stroke-width="1" />
<path d="M0.0,12.0 L-3.0312723299098954,16.219084505927967 L0.0,28.0" fill-opacity="0" stroke="black" stroke-width="1" />
<path d="M0.0,-88.0 L-3.0312723299098954,-83.78091549407203 L0.0,-72.0" fill-opacity="0" stroke="black" stroke-width="1" />
<path d="M-19.0,50.0 L-22.258012512860724,56.051872203587266 L-26.0,50.0" fill-opacity="0" stroke="black" stroke-width="1" />
<path d="M-19.0,-50.0 L-22.258012512860724,-43.948127796412734 L-26.0,-50.0" fill-opacity="0" stroke="black" stroke-width="1" />
<path d="M-19.0,50.0 L-22.258012512860724,43.948127796412734 L-26.0,50.0" fill-opacity="0" stroke="black" stroke-width="1" />
<path d="M-19.0,-50.0 L-22.258012512860724,-56.051872203587266 L-26.0,-50.0" fill-opacity="0" stroke="black" stroke-width="1" />
<path d="M-32.0,68.0 L-21.834922669824593,75.86952147261238 L-20.87020934119493,77.14036847137696" fill-opacity="0" stroke="black" stroke-width="1" />
<path d="M-32.0,-32.0 L-21.834922669824593,-24.130478527387623 L-20.87020934119493,-22.859631528623037" fill-opacity="0" stroke="black" stroke-width="1" />
<path d="M-32.0,32.0 L-21.834922669824593,24.130478527387623 L-20.87020934119493,22.85963152862304" fill-opacity="0" stroke="black" stroke-width="1" />
<path d="M-32.0,-68.0 L-21.834922669824593,-75.86952147261238 L-20.87020934119493,-77.14036847137696" fill-opacity="0" stroke="black" stroke-width="1" />
<path d="M-21.834922669824593,75.86952147261238 L-20.87020934119493,77.14036847137696 L-17.383448647335236,77.28695606570967" fill-opacity="0" stroke="black" stroke-width="1" />
<path d="M-21.834922669824593,-24.130478527387623 L-20.87020934119493,-22.859631528623037 L-17.383448647335236,-22.71304393429033" fill-opacity="0" stroke="black" stroke-width="1" />
<path d="M-21.834922669824593,24.130478527387623 L-20.87020934119493,22.85963152862304 L-17.383448647335236,22.713043934290326" fill-opacity="0" stroke="black" stroke-width="1" />
<path d="M-21.834922669824593,-75.86952147261238 L-20.87020934119493,-77.14036847137696 L-17.383448647335236,-77.28695606570967" fill-opacity="0" stroke="black" stroke-width="1" />
<path d="M-20.87020934119493,77.14036847137696 L-17.383448647335236,77.28695606570967 L-16.90295965808253,79.18940209562221" fill-opacity="0" stroke="black" stroke-width="1" />
<path d="M-20.87020934119493,-22.859631528623037 L-17.383448647335236,-22.71304393429033 L-16.90295965808253,-20.810597904377783" fill-opacity="0" stroke="black" stroke-width="1" />
<path d="M-20.87020934119493,22.85963152862304 L-17.383448647335236,22.713043934290326 L-16.90295965808253,20.810597904377786" fill-opacity="0" stroke="black" stroke-width="1" />
<path d="M-20.87020934119493,-77.14036847137696 L-17.383448647335236,-77.28695606570967 L-16.90295965808253,-79.18940209562221" fill-opacity="0" stroke="black" stroke-width="1" />
<path d="M-17.383448647335236,77.28695606570967 L-16.90295965808253,79.18940209562221 L-16.093044748057405,81.7363801227827" fill-opacity="0" stroke="black" stroke-width="1" />
<path d="M-17.383448647335236,-22.71304393429033 L-16.90295965808253,-20.810597904377783 L-16.093044748057405,-18.263619877217295" fill-opacity="0" stroke="black" stroke-width="1" />
<path d="M-17.383448647335236,22.713043934290326 L-16.90295965808253,20.810597904377786 L-16.093044748057405,18.263619877217295" fill-opacity="0" stroke="black" stroke-width="1" />
<path d="M-17.383448647335236,-77.28695606570967 L-16.90295965808253,-79.18940209562221 L-16.093044748057405,-81.7363801227827" fill-opacity="0" stroke="black" stroke-width="1" />
<path d="M-16.90295965808253,79.18940209562221 L-16.093044748057405,81.7363801227827 L-12.0,88.0" fill-opacity="0" stroke="black" stroke-width="1" />
<path d="M-16.90295965808253,-20.810597904377783 L-16.093044748057405,-18.263619877217295 L-12.0,-12.0" fill-opacity="0" stroke="black" stroke-width="1" />
<path d="M-16.90295965808253,20.810597904377786 L-16.093044748057405,18.263619877217295 L-12.0,12.0" fill-opacity="0" stroke="black" stroke-width="1" />
<path d="M-16.90295965808253,-79.18940209562221 L-16.093044748057405,-81.7363801227827 L-12.0,-88.0" fill-opacity="0" stroke="black" stroke-width="1" />
<path d="M-12.0,88.0 L-1.9517350382486778,95.61744203780091 L-1.1826658248215565,98.67830202590044" fill-opacity="0" stroke="black" stroke-width="1" />
<path d="M-12.0,-12.0 L-1.9517350382486778,-4.38255796219909 L-1.1826658248215565,-1.3216979740995671" fill-opacity="0" stroke="black" stroke-width="1" />
<path d="M-12.0,12.0 L-1.9517350382486778,4.382557962199087 L-1.1826658248215565,1.321697974099564" fill-opacity="0" stroke="black" stroke-width="1" />
<path d="M-12.0,-88.0 L-1.9517350382486778,-95.61744203780091 L-1.1826658248215565,-98.67830202590044" fill-opacity="0" stroke="black" stroke-width="1" />
<path d="M-1.9517350382486778,95.61744203780091 L-1.1826658248215565,98.67830202590044 L-0.2775733265019942,99.69917243676674" fill-opacity="0" stroke="black" stroke-width="1" />
<path d="M-1.9517350382486778,-4.38255796219909 L-1.1826658248215565,-1.3216979740995671 L-0.2775733265019942,-0.30082756323325804" fill-opacity="0" stroke="black" stroke-width="1" />
<path d="M-1.9517350382486778,4.382557962199087 L-1.1826658248215565,1.321697974099564 L-0.2775733265019942,0.30082756323325555" fill-opacity="0" stroke="black" stroke-width="1" />
<path d="M-1.9517350382486778,-95.61744203780091 L-1.1826658248215565,-98.67830202590044 L-0.2775733265019942,-99.69917243676674" fill-opacity="0" stroke="black" stroke-width="1" />
<path d="M-1.1826658248215565,98.67830202590044 L-0.2775733265019942,99.69917243676674 L0.0,100.0" fill-opacity="0" stroke="black" stroke-width="1" />
<path d="M-1.1826658248215565,-1.3216979740995671 L-0.2775733265019942,-0.30082756323325804 L0.0,-0.0" fill-opacity="0" stroke="black" stroke-width="1" />
<path d="M-1.1826658248215565,1.321697974099564 L-0.2775733265019942,0.30082756323325555 L0.0,-0.0" fill-opacity="0" stroke="black" stroke-width="1" />
<path d="M-1.1826658248215565,-98.67830202590044 L-0.2775733265019942,-99.69917243676674 L0.0,-100.0" fill-opacity="0" stroke="black" stroke-width="1" />
<path d="M-81.7363801227827,-16.093044748057405 L-88.0,-12.0 L-95.61744203780091,-1.9517350382486778" fill-opacity="0" stroke="black" stroke-width="1" />
<path d="M-81.7363801227827,16.093044748057405 L-88.0,12.0 L-95.61744203780091,1.9517350382486778" fill-opacity="0" stroke="black" stroke-width="1" />
<path d="M-88.0,-0.0 L-83.78091549407203,-3.0312723299098954 L-72.0,-0.0" fill-opacity="0" stroke="black" stroke-width="1" />
<path d="M-88.0,-0.0 L-83.78091549407203,3.0312723299098954 L-72.0,-0.0" fill-opacity="0" stroke="black" stroke-width="1" />
<path d="M-50.0,-19.0 L-56.051872203587266,-22.258012512860724 L-50.0,-26.0" fill-opacity="0" stroke="black" stroke-width="1" />
<path d="M-50.0,19.0 L-56.051872203587266,22.258012512860724 L-50.0,26.0" fill-opacity="0" stroke="black" stroke-width="1" />
<path d="M-50.0,-50.0 L-51.0,-49.0 L-65.0,-35.0" fill-opacity="0" stroke="black" stroke-width="1" />
<path d="M-50.0,50.0 L-51.0,49.0 L-65.0,35.0" fill-opacity="0" stroke="black" stroke-width="1" />
<path d="M-51.0,-49.0 L-65.0,-35.0 L-68.0,-32.0" fill-opacity="0" stroke="black" stroke-width="1" />
<path d="M-51.0,49.0 L-65.0,35.0 L-68.0,32.0" fill-opacity="0" stroke="black" stroke-width="1" />
<path d="M-65.0,-35.0 L-68.0,-32.0 L-75.86952147261238,-21.834922669824593" fill-opacity="0" stroke="black" stroke-width="1" />
<path d="M-65.0,35.0 L-68.0,32.0 L-75.86952147261238,21.834922669824593" fill-opacity="0" stroke="black" stroke-width="1" />
<path d="M-68.0,-32.0 L-75.86952147261238,-21.834922669824593 L-77.14036847137696,-20.87020934119493" fill-opacity="0" stroke="black" stroke-width="1" />
<path d="M-68.0,32.0 L-75.86952147261238,21.834922669824593 L-77.14036847137696,20.87020934119493" fill-opacity="0" stroke="black" stroke-width="1" />
<path d="M-75.86952147261238,-21.834922669824593 L-77.14036847137696,-20.87020934119493 L-77.28695606570967,-17.383448647335236" fill-opacity="0" stroke="black" stroke-width="1" />
<path d="M-75.86952147261238,21.834922669824593 L-77.14036847137696,20.87020934119493 L-77.28695606570967,17.383448647335236" fill-opacity="0" stroke="black" stroke-width="1" />
<path d="M-77.14036847137696,-20.87020934119493 L-77.28695606570967,-17.383448647335236 L-79.18940209562221,-16.90295965808253" fill-opacity="0" stroke="black" stroke-width="1" />
<path d="M-77.14036847137696,20.87020934119493 L-77.28695606570967,17.383448647335236 L-79.18940209562221,16.90295965808253" fill-opacity="0" stroke="black" stroke-width="1" />
<path d="M-77.28695606570967,-17.383448647335236 L-79.18940209562221,-16.90295965808253 L-81.7363801227827,-16.093044748057405" fill-opacity="0" stroke="black" stroke-width="1" />
<path d="M-77.28695606570967,17.383448647335236 L-79.18940209562221,16.90295965808253 L-81.7363801227827,16.093044748057405" fill-opacity="0" stroke="black" stroke-width="1" />
<path d="M-79.18940209562221,-16.90295965808253 L-81.7363801227827,-16.093044748057405 L-88.0,-12.0" fill-opacity="0" stroke="black" stroke-width="1" />
<path d="M-79.18940209562221,16.90295965808253 L-81.7363801227827,16.093044748057405 L-88.0,12.0" fill-opacity="0" stroke="black" stroke-width="1" />
<path d="M-88.0,-12.0 L-95.61744203780091,-1.9517350382486778 L-98.67830202590044,-1.1826658248215565" fill-opacity="0" stroke="black" stroke-width="1" />
<path d="M-88.0,12.0 L-95.61744203780091,1.9517350382486778 L-98.67830202590044,1.1826658248215565" fill-opacity="0" stroke="black" stroke-width="1" />
<path d="M-95.61744203780091,-1.9517350382486778 L-98.67830202590044,-1.1826658248215565 L-99.69917243676674,-0.2775733265019942" fill-opacity="0" stroke="black" stroke-width="1" />
<path d="M-95.61744203780091,1.9517350382486778 L-98.67830202590044,1.1826658248215565 L-99.69917243676674,0.2775733265019942" fill-opacity="0" stroke="black" stroke-width="1" />
<path d="M-98.67830202590044,-1.1826658248215565 L-99.69917243676674,-0.2775733265019942 L-100.0,-0.0" fill-opacity="0" stroke="black" stroke-width="1" />
<path d="M-98.67830202590044,1.1826658248215565 L-99.69917243676674,0.2775733265019942 L-100.0,-0.0" fill-opacity="0" stroke="black" stroke-width="1" />
<circle cx="0" cy="-97" r="8" stroke-dasharray="39.653880605311166 10.611601852125524" stroke-dashoffset="-17.59291886010284" stroke="black" stroke-width="1" fill="white" fill-opacity="1" />
<circle cx="0" cy="-97" r="4" stroke="black" stroke-width="1" fill="white" fill-opacity="1" />
</svg>