<?xml version="1.0" encoding="UTF-8"?>
<svg xmlns="http://www.w3.org/2000/svg" xmlns:xlink="http://www.w3.org/1999/xlink"
     width="250" height="250" viewBox="-125.0 -125.0 250 250">
<defs>
</defs>
<path d="M46.0,54.0 L42.0,58.0 L32.0,68.0" fill-opacity="0" stroke="black" stroke-width="1" />
<path d="M46.0,-54.0 L42.0,-58.0 L32.0,-68.0" fill-opacity="0" stroke="black" stroke-width="1" />
<path d="M50.0,-23.0 L43.101921903423396,-23.191744860068308 L50.0,-27.0" fill-opacity="0" stroke="black" stroke-width="1" />
<path d="M50.0,23.0 L43.101921903423396,23.191744860068308 L50.0,27.0" fill-opacity="0" stroke="black" stroke-width="1" />
<path d="M50.0,-50.0 L48.582903476133,-43.18243478336515 L46.0,-46.0" fill-opacity="0" stroke="black" stroke-width="1" />
<path d="M50.0,50.0 L48.582903476133,43.18243478336515 L46.0,46.0" fill-opacity="0" stroke="black" stroke-width="1" />
<path d="M43.18243478336515,51.417096523867 L46.0,54.0 L42.0,58.0" fill-opacity="0" stroke="black" stroke-width="1" />
<path d="M43.18243478336515,-51.417096523867 L46.0,-54.0 L42.0,-58.0" fill-opacity="0" stroke="black" stroke-width="1" />
<path d="M42.0,58.0 L32.0,68.0 L22.0,78.0" fill-opacity="0" stroke="black" stroke-width="1" />
<path d="M42.0,-58.0 L32.0,-68.0 L22.0,-78.0" fill-opacity="0" stroke="black" stroke-width="1" />
<path d="M32.0,68.0 L22.0,78.0 L16.0,84.0" fill-opacity="0" stroke="black" stroke-width="1" />
<path d="M32.0,-68.0 L22.0,-78.0 L16.0,-84.0" fill-opacity="0" stroke="black" stroke-width="1" />
<path d="M22.0,78.0 L16.0,84.0 L14.923952692236234,84.4669703081116" fill-opacity="0" stroke="black" stroke-width="1" />
<path d="M22.0,-78.0 L16.0,-84.0 L14.923952692236234,-84.4669703081116" fill-opacity="0" stroke="black" stroke-width="1" />
<path d="M16.0,-16.0 L15.533029691888395,-14.923952692236234 L14.0,-14.0" fill-opacity="0" stroke="black" stroke-width="1" />
<path d="M16.0,16.0 L15.533029691888395,14.923952692236234 L14.0,14.0" fill-opacity="0" stroke="black" stroke-width="1" />
<path d="M14.923952692236234,84.4669703081116 L14.0,86.0 L6.0,94.0" fill-opacity="0" stroke="black" stroke-width="1" />
<path d="M14.923952692236234,-84.4669703081116 L14.0,-86.0 L6.0,-94.0" fill-opacity="0" stroke="black" stroke-width="1" />
<path d="M14.0,86.0 L6.0,94.0 L2.6031147224464153,95.51133827524265" fill-opacity="0" stroke="black" stroke-width="1" />
<path d="M14.0,-86.0 L6.0,-94.0 L2.6031147224464153,-95.51133827524265" fill-opacity="0" stroke="black" stroke-width="1" />
<path d="M6.0,-6.0 L4.488661724757353,-2.6031147224464153 L0.0,-0.0" fill-opacity="0" stroke="black" stroke-width="1" />
<path d="M6.0,6.0 L4.488661724757353,2.6031147224464153 L0.0,-0.0" fill-opacity="0" stroke="black" stroke-width="1" />
<path d="M-46.0,54.0 L-42.0,58.0 L-32.0,68.0" fill-opacity="0" stroke="black" stroke-width="1" />
<path d="M-46.0,-54.0 L-42.0,-58.0 L-32.0,-68.0" fill-opacity="0" stroke="black" stroke-width="1" />
<path d="M-50.0,-23.0 L-43.101921903423396,-23.191744860068308 L-50.0,-27.0" fill-opacity="0" stroke="black" stroke-width="1" />
<path d="M-50.0,23.0 L-43.101921903423396,23.191744860068308 L-50.0,27.0" fill-opacity="0" stroke="black" stroke-width="1" />
<path d="M-50.0,-50.0 L-48.582903476133,-43.18243478336515 L-46.0,-46.0" fill-opacity="0" stroke="black" stroke-width="1" />
<path d="M-50.0,50.0 L-48.582903476133,43.18243478336515 L-46.0,46.0" fill-opacity="0" stroke="black" stroke-width="1" />
<path d="M-43.18243478336515,51.417096523867 L-46.0,54.0 L-42.0,58.0" fill-opacity="0" stroke="black" stroke-width="1" />
<path d="M-43.18243478336515,-51.417096523867 L-46.0,-54.0 L-42.0,-58.0" fill-opacity="0" stroke="black" stroke-width="1" />
<path d="M-42.0,58.0 L-32.0,68.0 L-22.0,78.0" fill-opacity="0" stroke="black" stroke-width="1" />
<path d="M-42.0,-58.0 L-32.0,-68.0 L-22.0,-78.0" fill-opacity="0" stroke="black" stroke-width="1" />
<path d="M-32.0,68.0 L-22.0,78.0 L-16.0,84.0" fill-opacity="0" stroke="black" stroke-width="1" />
<path d="M-32.0,-68.0 L-22.0,-78.0 L-16.0,-84.0" fill-opacity="0" stroke="black" stroke-width="1" />
<path d="M-22.0,78.0 L-16.0,84.0 L-14.923952692236234,84.4669703081116" fill-opacity="0" stroke="black" stroke-width="1" />
<path d="M-22.0,-78.0 L-16.0,-84.0 L-14.923952692236234,-84.4669703081116" fill-opacity="0" stroke="black" stroke-width="1" />
<path d="M-16.0,-16.0 L-15.533029691888395,-14.923952692236234 L-14.0,-14.0" fill-opacity="0" stroke="black" stroke-width="1" />
<path d="M-16.0,16.0 L-15.533029691888395,14.923952692236234 L-14.0,14.0" fill-opacity="0" stroke="black" stroke-width="1" />
<path d="M-14.923952692236234,84.4669703081116 L-14.0,86.0 L-6.0,94.0" fill-opacity="0" stroke="black" stroke-width="1" />
<path d="M-14.923952692236234,-84.4669703081116 L-14.0,-86.0 L-6.0,-94.0" fill-opacity="0" stroke="black" stroke-width="1" />
<path d="M-14.0,86.0 L-6.0,94.0 L-2.6031147224464153,95.51133827524265" fill-opacity="0" stroke="black" stroke-width="1" />
<path d="M-14.0,-86.0 L-6.0,-94.0 L-2.6031147224464153,-95.51133827524265" fill-opacity="0" stroke="black" stroke-width="1" />
<path d="M-6.0,-6.0 L-4.488661724757353,-2.6031147224464153 L0.0,-0.0" fill-opacity="0" stroke="black" stroke-width="1" />
<path d="M-6.0,6.0 L-4.488661724757353,2.6031147224464153 L0.0,-0.0" fill-opacity="0" stroke="black" stroke-width="1" />
<path d="M54.0,46.0 L58.0,42.0 L68.0,32.0" fill-opacity="0" stroke="black" stroke-width="1" />
<path d="M54.0,-46.0 L58.0,-42.0 L68.0,-32.0" fill-opacity="0" stroke="black" stroke-width="1" />
<path d="M50.0,23.0 L56.898078096576604,23.191744860068308 L50.0,27.0" fill-opacity="0" stroke="black" stroke-width="1" />
<path d="M50.0,-23.0 L56.898078096576604,-23.191744860068308 L50.0,-27.0" fill-opacity="0" stroke="black" stroke-width="1" />
<path d="M50.0,50.0 L51.417096523867,43.18243478336515 L54.0,46.0" fill-opacity="0" stroke="black" stroke-width="1" />
<path d="M50.0,-50.0 L51.417096523867,-43.18243478336515 L54.0,-46.0" fill-opacity="0" stroke="black" stroke-width="1" />
<path d="M51.417096523867,43.18243478336515 L54.0,46.0 L58.0,42.0" fill-opacity="0" stroke="black" stroke-width="1" />
<path d="M51.417096523867,-43.18243478336515 L54.0,-46.0 L58.0,-42.0" fill-opacity="0" stroke="black" stroke-width="1" />
<path d="M58.0,42.0 L68.0,32.0 L78.0,22.0" fill-opacity="0" stroke="black" stroke-width="1" />
<path d="M58.0,-42.0 L68.0,-32.0 L78.0,-22.0" fill-opacity="0" stroke="black" stroke-width="1" />
<path d="M68.0,32.0 L78.0,22.0 L84.0,16.0" fill-opacity="0" stroke="black" stroke-width="1" />
<path d="M68.0,-32.0 L78.0,-22.0 L84.0,-16.0" fill-opacity="0" stroke="black" stroke-width="1" />
<path d="M78.0,22.0 L84.0,16.0 L84.4669703081116,14.923952692236234" fill-opacity="0" stroke="black" stroke-width="1" />
<path d="M78.0,-22.0 L84.0,-16.0 L84.4669703081116,-14.923952692236234" fill-opacity="0" stroke="black" stroke-width="1" />
<path d="M84.0,16.0 L84.4669703081116,14.923952692236234 L86.0,14.0" fill-opacity="0" stroke="black" stroke-width="1" />
<path d="M84.0,-16.0 L84.4669703081116,-14.923952692236234 L86.0,-14.0" fill-opacity="0" stroke="black" stroke-width="1" />
<path d="M84.4669703081116,14.923952692236234 L86.0,14.0 L94.0,6.0" fill-opacity="0" stroke="black" stroke-width="1" />
<path d="M84.4669703081116,-14.923952692236234 L86.0,-14.0 L94.0,-6.0" fill-opacity="0" stroke="black" stroke-width="1" />
<path d="M86.0,14.0 L94.0,6.0 L95.51133827524265,2.6031147224464153" fill-opacity="0" stroke="black" stroke-width="1" />
<path d="M86.0,-14.0 L94.0,-6.0 L95.51133827524265,-2.6031147224464153" fill-opacity="0" stroke="black" stroke-width="1" />
<path d="M94.0,6.0 L95.51133827524265,2.6031147224464153 L100.0,-0.0" fill-opacity="0" stroke="black" stroke-width="1" />
<path d="M94.0,-6.0 L95.51133827524265,-2.6031147224464153 L100.0,-0.0" fill-opacity="0" stroke="black" stroke-width="1" />
<path d="M23.0,-50.0 L23.191744860068308,-43.101921903423396 L27.0,-50.0" fill-opacity="0" stroke="black" stroke-width="1" />
<path d="M23.0,50.0 L23.191744860068308,43.101921903423396 L27.0,50.0" fill-opacity="0" stroke="black" stroke-width="1" />
<path d="M23.0,50.0 L23.191744860068308,56.898078096576604 L27.0,50.0" fill-opacity="0" stroke="black" stroke-width="1" />
<path d="M23.0,-50.0 L23.191744860068308,-56.898078096576604 L27.0,-50.0" fill-opacity="0" stroke="black" stroke-width="1" />
<path d="M50.0,-50.0 L43.18243478336515,-48.582903476133 L46.0,-46.0" fill-opacity="0" stroke="black" stroke-width="1" />
<path d="M50.0,50.0 L43.18243478336515,48.582903476133 L46.0,46.0" fill-opacity="0" stroke="black" stroke-width="1" />
<path d="M50.0,50.0 L43.18243478336515,51.417096523867 L46.0,54.0" fill-opacity="0" stroke="black" stroke-width="1" />
<path d="M50.0,-50.0 L43.18243478336515,-51.417096523867 L46.0,-54.0" fill-opacity="0" stroke="black" stroke-width="1" />
<path d="M16.0,-16.0 L14.923952692236234,-15.533029691888395 L14.0,-14.0" fill-opacity="0" stroke="black" stroke-width="1" />
<path d="M16.0,16.0 L14.923952692236234,15.533029691888395 L14.0,14.0" fill-opacity="0" stroke="black" stroke-width="1" />
<path d="M16.0,84.0 L14.923952692236234,84.4669703081116 L14.0,86.0" fill-opacity="0" stroke="black" stroke-width="1" />
<path d="M16.0,-84.0 L14.923952692236234,-84.4669703081116 L14.0,-86.0" fill-opacity="0" stroke="black" stroke-width="1" />
<path d="M6.0,-6.0 L2.6031147224464153,-4.488661724757353 L0.0,-0.0" fill-opacity="0" stroke="black" stroke-width="1" />
<path d="M6.0,6.0 L2.6031147224464153,4.488661724757353 L0.0,-0.0" fill-opacity="0" stroke="black" stroke-width="1" />
<path d="M6.0,94.0 L2.6031147224464153,95.51133827524265 L0.0,100.0" fill-opacity="0" stroke="black" stroke-width="1" />
<path d="M6.0,-94.0 L2.6031147224464153,-95.51133827524265 L0.0,-100.0" fill-opacity="0" stroke="black" stroke-width="1" />
<path d="M-23.0,50.0 L-23.191744860068308,56.898078096576604 L-27.0,50.0" fill-opacity="0" stroke="black" stroke-width="1" />
<path d="M-23.0,-50.0 L-23.191744860068308,-43.101921903423396 L-27.0,-50.0" fill-opacity="0" stroke="black" stroke-width="1" />
<path d="M-23.0,50.0 L-23.191744860068308,43.101921903423396 L-27.0,50.0" fill-opacity="0" stroke="black" stroke-width="1" />
<path d="M-23.0,-50.0 L-23.191744860068308,-56.898078096576604 L-27.0,-50.0" fill-opacity="0" stroke="black" stroke-width="1" />
<path d="M-50.0,50.0 L-43.18243478336515,51.417096523867 L-46.0,54.0" fill-opacity="0" stroke="black" stroke-width="1" />
<path d="M-50.0,-50.0 L-43.18243478336515,-48.582903476133 L-46.0,-46.0" fill-opacity="0" stroke="black" stroke-width="1" />
<path d="M-50.0,50.0 L-43.18243478336515,48.582903476133 L-46.0,46.0" fill-opacity="0" stroke="black" stroke-width="1" />
<path d="M-50.0,-50.0 L-43.18243478336515,-51.417096523867 L-46.0,-54.0" fill-opacity="0" stroke="black" stroke-width="1" />
<path d="M-16.0,84.0 L-14.923952692236234,84.4669703081116 L-14.0,86.0" fill-opacity="0" stroke="black" stroke-width="1" />
<path d="M-16.0,-16.0 L-14.923952692236234,-15.533029691888395 L-14.0,-14.0" fill-opacity="0" stroke="black" stroke-width="1" />
<path d="M-16.0,16.0 L-14.923952692236234,15.533029691888402 L-14.0,14.0" fill-opacity="0" stroke="black" stroke-width="1" />
<path d="M-16.0,-84.0 L-14.923952692236234,-84.4669703081116 L-14.0,-86.0" fill-opacity="0" stroke="black" stroke-width="1" />
<path d="M-6.0,94.0 L-2.6031147224464153,95.51133827524265 L0.0,100.0" fill-opacity="0" stroke="black" stroke-width="1" />
<path d="M-6.0,-6.0 L-2.6031147224464153,-4.488661724757353 L0.0,-0.0" fill-opacity="0" stroke="black" stroke-width="1" />
<path d="M-6.0,6.0 L-2.6031147224464153,4.48866172475735 L0.0,-0.0" fill-opacity="0" stroke="black" stroke-width="1" />
<path d="M-6.0,-94.0 L-2.6031147224464153,-95.51133827524265 L0.0,-100.0" fill-opacity="0" stroke="black" stroke-width="1" />
<path d="M-54.0,-46.0 L-58.0,-42.0 L-68.0,-32.0" fill-opacity="0" stroke="black" stroke-width="1" />
<path d="M-54.0,46.0 L-58.0,42.0 L-68.0,32.0" fill-opacity="0" stroke="black" stroke-width="1" />
<path d="M-50.0,-23.0 L-56.898078096576604,-23.191744860068308 L-50.0,-27.0" fill-opacity="0" stroke="black" stroke-width="1" />
<path d="M-50.0,23.0 L-56.898078096576604,23.191744860068308 L-50.0,27.0" fill-opacity="0" stroke="black" stroke-width="1" />
<path d="M-50.0,-50.0 L-51.417096523867,-43.18243478336515 L-54.0,-46.0" fill-opacity="0" stroke="black" stroke-width="1" />
<path d="M-50.0,50.0 L-51.417096523867,43.18243478336515 L-54.0,46.0" fill-opacity="0" stroke="black" stroke-width="1" />
<path d="M-51.417096523867,-43.18243478336515 L-54.0,-46.0 L-58.0,-42.0" fill-opacity="0" stroke="black" stroke-width="1" />
<path d="M-51.417096523867,43.18243478336515 L-54.0,46.0 L-58.0,42.0" fill-opacity="0" stroke="black" stroke-width="1" />
<path d="M-58.0,-42.0 L-68.0,-32.0 L-78.0,-22.0" fill-opacity="0" stroke="black" stroke-width="1" />
<path d="M-58.0,42.0 L-68.0,32.0 L-78.0,22.0" fill-opacity="0" stroke="black" stroke-width="1" />
<path d="M-68.0,-32.0 L-78.0,-22.0 L-84.0,-16.0" fill-opacity="0" stroke="black" stroke-width="1" />
<path d="M-68.0,32.0 L-78.0,22.0 L-84.0,16.0" fill-opacity="0" stroke="black" stroke-width="1" />
<path d="M-78.0,-22.0 L-84.0,-16.0 L-84.4669703081116,-14.923952692236234" fill-opacity="0" stroke="black" stroke-width="1" />
<path d="M-78.0,22.0 L-84.0,16.0 L-84.4669703081116,14.923952692236234" fill-opacity="0" stroke="black" stroke-width="1" />
<path d="M-84.0,-16.0 L-84.4669703081116,-14.923952692236234 L-86.0,-14.0" fill-opacity="0" stroke="black" stroke-width="1" />
<path d="M-84.0,16.0 L-84.4669703081116,14.923952692236234 L-86.0,14.0" fill-opacity="0" stroke="black" stroke-width="1" />
<path d="M-84.4669703081116,-14.923952692236234 L-86.0,-14.0 L-94.0,-6.0" fill-opacity="0" stroke="black" stroke-width="1" />
<path d="M-84.4669703081116,14.923952692236234 L-86.0,14.0 L-94.0,6.0" fill-opacity="0" stroke="black" stroke-width="1" />
<path d="M-86.0,-14.0 L-94.0,-6.0 L-95.51133827524265,-2.6031147224464153" fill-opacity="0" stroke="black" stroke-width="1" />
<path d="M-86.0,14.0 L-94.0,6.0 L-95.51133827524265,2.6031147224464153" fill-opacity="0" stroke="black" stroke-width="1" />
<path d="M-94.0,-6.0 L-95.51133827524265,-2.6031147224464153 L-100.0,-0.0" fill-opacity="0" stroke="black" stroke-width="1" />
<path d="M-94.0,6.0 L-95.51133827524265,2.6031147224464153 L-100.0,-0.0" fill-opacity="0" stroke="black" stroke-width="1" />
<circle cx="0" cy="-97" r="8" stroke-dasharray="39.653880605311166 10.611601852125524" stroke-dashoffset="-17.59291886010284" stroke="black" stroke-width="1" fill="white" fill-opacity="1" />
<circle cx="0" cy="-97" r="4" stroke="black" stroke-width="1" fill="white" fill-opacity="1" />
</svg>