<?xml version="1.0" encoding="UTF-8"?>
<svg xmlns="http://www.w3.org/2000/svg" xmlns:xlink="http://www.w3.org/1999/xlink"
     width="250" height="250" viewBox="-125.0 -125.0 250 250">
<defs>
</defs>
<path d="M11.0,-0.0 L11.401095960149938,-3.2765310873327578 L13.0,-0.0" fill="brown" fill-opacity="0.6" stroke="black" stroke-width="1" />
<path d="M11.0,-0.0 L11.401095960149938,3.2765310873327578 L13.0,-0.0" fill="green" fill-opacity="0.6" stroke="black" stroke-width="1" />
<path d="M13.0,-0.0 L19.764092793265874,-9.631824252574988 L50.0,-11.0" fill="yellow" fill-opacity="0.6" stroke="black" stroke-width="1" />
<path d="M13.0,-0.0 L19.764092793265874,9.631824252574988 L50.0,11.0" fill="pink" fill-opacity="0.6" stroke="black" stroke-width="1" />
<path d="M50.0,-32.0 L44.30608179532807,-36.039900465990144 L37.57937899206772,-33.699781300727686" fill="pink" fill-opacity="0.6" stroke="black" stroke-width="1" />
<path d="M50.0,32.0 L44.30608179532807,36.039900465990144 L37.57937899206772,33.699781300727686" fill="pink" fill-opacity="0.6" stroke="black" stroke-width="1" />
<path d="M44.30608179532807,-36.039900465990144 L37.57937899206772,-33.699781300727686 L36.0,-36.0" fill="pink" fill-opacity="0.6" stroke="black" stroke-width="1" />
<path d="M44.30608179532807,36.039900465990144 L37.57937899206772,33.699781300727686 L36.0,36.0" fill="purple" fill-opacity="0.6" stroke="black" stroke-width="1" />
<path d="M33.699781300727686,62.42062100793228 L36.0,64.0 L31.04512864576871,65.29802658953373" fill="pink" fill-opacity="0.6" stroke="black" stroke-width="1" />
<path d="M33.699781300727686,-62.42062100793228 L36.0,-64.0 L31.04512864576871,-65.29802658953373" fill="yellow" fill-opacity="0.6" stroke="black" stroke-width="1" />
<path d="M36.0,-36.0 L34.701973410466266,-31.04512864576871 L26.529981744726864,-19.15572956175873" fill="black" fill-opacity="0.6" stroke="black" stroke-width="1" />
<path d="M36.0,36.0 L34.701973410466266,31.04512864576871 L26.529981744726864,19.15572956175873" fill="black" fill-opacity="0.6" stroke="black" stroke-width="1" />
<path d="M34.701973410466266,-31.04512864576871 L26.529981744726864,-19.15572956175873 L21.0,-21.0" fill="orange" fill-opacity="0.6" stroke="black" stroke-width="1" />
<path d="M34.701973410466266,31.04512864576871 L26.529981744726864,19.15572956175873 L21.0,21.0" fill="yellow" fill-opacity="0.6" stroke="black" stroke-width="1" />
<path d="M19.15572956175873,73.47001825527313 L21.0,79.0 L12.0,88.0" fill="green" fill-opacity="0.6" stroke="black" stroke-width="1" />
<path d="M19.15572956175873,-73.47001825527313 L21.0,-79.0 L12.0,-88.0" fill="brown" fill-opacity="0.6" stroke="black" stroke-width="1" />
<path d="M21.0,79.0 L12.0,88.0 L3.9037299272855153,88.3060682675852" fill="black" fill-opacity="0.6" stroke="black" stroke-width="1" />
<path d="M21.0,-79.0 L12.0,-88.0 L3.9037299272855153,-88.3060682675852" fill="pink" fill-opacity="0.6" stroke="black" stroke-width="1" />
<path d="M12.0,-12.0 L11.693931732414804,-3.9037299272855153 L8.885449628351333,-1.9110356554065149" fill="pink" fill-opacity="0.6" stroke="black" stroke-width="1" />
<path d="M12.0,12.0 L11.693931732414804,3.9037299272855153 L8.885449628351333,1.9110356554065149" fill="yellow" fill-opacity="0.6" stroke="black" stroke-width="1" />
<path d="M11.693931732414804,-3.9037299272855153 L8.885449628351333,-1.9110356554065149 L4.223884770485814,-0.22917661144544005" fill="brown" fill-opacity="0.6" stroke="black" stroke-width="1" />
<path d="M11.693931732414804,3.9037299272855153 L8.885449628351333,1.9110356554065149 L4.223884770485814,0.22917661144544005" fill="orange" fill-opacity="0.6" stroke="black" stroke-width="1" />
<path d="M8.885449628351333,-1.9110356554065149 L4.223884770485814,-0.22917661144544005 L0.29069372723523057,-0.018829541560480556" fill="orange" fill-opacity="0.6" stroke="black" stroke-width="1" />
<path d="M8.885449628351333,1.9110356554065149 L4.223884770485814,0.22917661144544005 L0.29069372723523057,0.018829541560480556" fill="yellow" fill-opacity="0.6" stroke="black" stroke-width="1" />
<path d="M4.223884770485814,-0.22917661144544005 L0.29069372723523057,-0.018829541560480556 L0.0,-0.0" fill="yellow" fill-opacity="0.6" stroke="black" stroke-width="1" />
<path d="M4.223884770485814,0.22917661144544005 L0.29069372723523057,0.018829541560480556 L0.0,-0.0" fill="black" fill-opacity="0.6" stroke="black" stroke-width="1" />
<path d="M-11.0,-0.0 L-11.401095960149938,-3.2765310873327578 L-13.0,-0.0" fill="yellow" fill-opacity="0.6" stroke="black" stroke-width="1" />
<path d="M-11.0,-0.0 L-11.401095960149938,3.2765310873327578 L-13.0,-0.0" fill="orange" fill-opacity="0.6" stroke="black" stroke-width="1" />
<path d="M-13.0,-0.0 L-19.764092793265874,-9.631824252574988 L-50.0,-11.0" fill="purple" fill-opacity="0.6" stroke="black" stroke-width="1" />
<path d="M-13.0,-0.0 L-19.764092793265874,9.631824252574988 L-50.0,11.0" fill="brown" fill-opacity="0.6" stroke="black" stroke-width="1" />
<path d="M-50.0,-32.0 L-44.30608179532807,-36.039900465990144 L-37.57937899206772,-33.699781300727686" fill="blue" fill-opacity="0.6" stroke="black" stroke-width="1" />
<path d="M-50.0,32.0 L-44.30608179532807,36.039900465990144 L-37.57937899206772,33.699781300727686" fill="brown" fill-opacity="0.6" stroke="black" stroke-width="1" />
<path d="M-44.30608179532807,-36.039900465990144 L-37.57937899206772,-33.699781300727686 L-36.0,-36.0" fill="purple" fill-opacity="0.6" stroke="black" stroke-width="1" />
<path d="M-44.30608179532807,36.039900465990144 L-37.57937899206772,33.699781300727686 L-36.0,36.0" fill="blue" fill-opacity="0.6" stroke="black" stroke-width="1" />
<path d="M-33.699781300727686,62.42062100793228 L-36.0,64.0 L-31.04512864576871,65.29802658953373" fill="orange" fill-opacity="0.6" stroke="black" stroke-width="1" />
<path d="M-33.699781300727686,-62.42062100793228 L-36.0,-64.0 L-31.04512864576871,-65.29802658953373" fill="orange" fill-opacity="0.6" stroke="black" stroke-width="1" />
<path d="M-36.0,-36.0 L-34.701973410466266,-31.04512864576871 L-26.529981744726864,-19.15572956175873" fill="green" fill-opacity="0.6" stroke="black" stroke-width="1" />
<path d="M-36.0,36.0 L-34.701973410466266,31.04512864576871 L-26.529981744726864,19.15572956175873" fill="brown" fill-opacity="0.6" stroke="black" stroke-width="1" />
<path d="M-34.701973410466266,-31.04512864576871 L-26.529981744726864,-19.15572956175873 L-21.0,-21.0" fill="orange" fill-opacity="0.6" stroke="black" stroke-width="1" />
<path d="M-34.701973410466266,31.04512864576871 L-26.529981744726864,19.15572956175873 L-21.0,21.0" fill="black" fill-opacity="0.6" stroke="black" stroke-width="1" />
<path d="M-19.15572956175873,73.47001825527313 L-21.0,79.0 L-12.0,88.0" fill="blue" fill-opacity="0.6" stroke="black" stroke-width="1" />
<path d="M-19.15572956175873,-73.47001825527313 L-21.0,-79.0 L-12.0,-88.0" fill="green" fill-opacity="0.6" stroke="black" stroke-width="1" />
<path d="M-21.0,79.0 L-12.0,88.0 L-3.9037299272855153,88.3060682675852" fill="brown" fill-opacity="0.6" stroke="black" stroke-width="1" />
<path d="M-21.0,-79.0 L-12.0,-88.0 L-3.9037299272855153,-88.3060682675852" fill="pink" fill-opacity="0.6" stroke="black" stroke-width="1" />
<path d="M-12.0,-12.0 L-11.693931732414804,-3.9037299272855153 L-8.885449628351333,-1.9110356554065149" fill="green" fill-opacity="0.6" stroke="black" stroke-width="1" />
<path d="M-12.0,12.0 L-11.693931732414804,3.9037299272855153 L-8.885449628351333,1.9110356554065149" fill="blue" fill-opacity="0.6" stroke="black" stroke-width="1" />
<path d="M-11.693931732414804,-3.9037299272855153 L-8.885449628351333,-1.9110356554065149 L-4.223884770485814,-0.22917661144544005" fill="green" fill-opacity="0.6" stroke="black" stroke-width="1" />
<path d="M-11.693931732414804,3.9037299272855153 L-8.885449628351333,1.9110356554065149 L-4.223884770485814,0.22917661144544005" fill="red" fill-opacity="0.6" stroke="black" stroke-width="1" />
<path d="M-8.885449628351333,-1.9110356554065149 L-4.223884770485814,-0.22917661144544005 L-0.29069372723523057,-0.018829541560480556" fill="purple" fill-opacity="0.6" stroke="black" stroke-width="1" />
<path d="M-8.885449628351333,1.9110356554065149 L-4.223884770485814,0.22917661144544005 L-0.29069372723523057,0.018829541560480556" fill="pink" fill-opacity="0.6" stroke="black" stroke-width="1" />
<path d="M-4.223884770485814,-0.22917661144544005 L-0.29069372723523057,-0.018829541560480556 L0.0,-0.0" fill="green" fill-opacity="0.6" stroke="black" stroke-width="1" />
<path d="M-4.223884770485814,0.22917661144544005 L-0.29069372723523057,0.018829541560480556 L0.0,-0.0" fill="yellow" fill-opacity="0.6" stroke="black" stroke-width="1" />
<path d="M89.0,-0.0 L88.59890403985005,3.2765310873327578 L87.0,-0.0" fill="black" fill-opacity="0.6" stroke="black" stroke-width="1" />
<path d="M89.0,-0.0 L88.59890403985005,-3.2765310873327578 L87.0,-0.0" fill="orange" fill-opacity="0.6" stroke="black" stroke-width="1" />
<path d="M87.0,-0.0 L80.23590720673413,9.631824252574988 L50.0,11.0" fill="blue" fill-opacity="0.6" stroke="black" stroke-width="1" />
<path d="M87.0,-0.0 L80.23590720673413,-9.631824252574988 L50.0,-11.0" fill="brown" fill-opacity="0.6" stroke="black" stroke-width="1" />
<path d="M50.0,32.0 L55.69391820467193,36.039900465990144 L62.42062100793228,33.699781300727686" fill="green" fill-opacity="0.6" stroke="black" stroke-width="1" />
<path d="M50.0,-32.0 L55.69391820467193,-36.039900465990144 L62.42062100793228,-33.699781300727686" fill="purple" fill-opacity="0.6" stroke="black" stroke-width="1" />
<path d="M55.69391820467193,36.039900465990144 L62.42062100793228,33.699781300727686 L64.0,36.0" fill="orange" fill-opacity="0.6" stroke="black" stroke-width="1" />
<path d="M55.69391820467193,-36.039900465990144 L62.42062100793228,-33.699781300727686 L64.0,-36.0" fill="red" fill-opacity="0.6" stroke="black" stroke-width="1" />
<path d="M62.42062100793228,33.699781300727686 L64.0,36.0 L65.29802658953373,31.04512864576871" fill="orange" fill-opacity="0.6" stroke="black" stroke-width="1" />
<path d="M62.42062100793228,-33.699781300727686 L64.0,-36.0 L65.29802658953373,-31.04512864576871" fill="red" fill-opacity="0.6" stroke="black" stroke-width="1" />
<path d="M64.0,36.0 L65.29802658953373,31.04512864576871 L73.47001825527313,19.15572956175873" fill="pink" fill-opacity="0.6" stroke="black" stroke-width="1" />
<path d="M64.0,-36.0 L65.29802658953373,-31.04512864576871 L73.47001825527313,-19.15572956175873" fill="purple" fill-opacity="0.6" stroke="black" stroke-width="1" />
<path d="M65.29802658953373,31.04512864576871 L73.47001825527313,19.15572956175873 L79.0,21.0" fill="blue" fill-opacity="0.6" stroke="black" stroke-width="1" />
<path d="M65.29802658953373,-31.04512864576871 L73.47001825527313,-19.15572956175873 L79.0,-21.0" fill="purple" fill-opacity="0.6" stroke="black" stroke-width="1" />
<path d="M73.47001825527313,19.15572956175873 L79.0,21.0 L88.0,12.0" fill="green" fill-opacity="0.6" stroke="black" stroke-width="1" />
<path d="M73.47001825527313,-19.15572956175873 L79.0,-21.0 L88.0,-12.0" fill="blue" fill-opacity="0.6" stroke="black" stroke-width="1" />
<path d="M79.0,21.0 L88.0,12.0 L88.3060682675852,3.9037299272855153" fill="black" fill-opacity="0.6" stroke="black" stroke-width="1" />
<path d="M79.0,-21.0 L88.0,-12.0 L88.3060682675852,-3.9037299272855153" fill="red" fill-opacity="0.6" stroke="black" stroke-width="1" />
<path d="M88.0,12.0 L88.3060682675852,3.9037299272855153 L91.11455037164868,1.9110356554065149" fill="purple" fill-opacity="0.6" stroke="black" stroke-width="1" />
<path d="M88.0,-12.0 L88.3060682675852,-3.9037299272855153 L91.11455037164868,-1.9110356554065149" fill="blue" fill-opacity="0.6" stroke="black" stroke-width="1" />
<path d="M88.3060682675852,3.9037299272855153 L91.11455037164868,1.9110356554065149 L95.77611522951419,0.22917661144544005" fill="green" fill-opacity="0.6" stroke="black" stroke-width="1" />
<path d="M88.3060682675852,-3.9037299272855153 L91.11455037164868,-1.9110356554065149 L95.77611522951419,-0.22917661144544005" fill="yellow" fill-opacity="0.6" stroke="black" stroke-width="1" />
<path d="M91.11455037164868,1.9110356554065149 L95.77611522951419,0.22917661144544005 L99.70930627276476,0.018829541560480556" fill="purple" fill-opacity="0.6" stroke="black" stroke-width="1" />
<path d="M91.11455037164868,-1.9110356554065149 L95.77611522951419,-0.22917661144544005 L99.70930627276476,-0.018829541560480556" fill="pink" fill-opacity="0.6" stroke="black" stroke-width="1" />
<path d="M95.77611522951419,0.22917661144544005 L99.70930627276476,0.018829541560480556 L100.0,-0.0" fill="green" fill-opacity="0.6" stroke="black" stroke-width="1" />
<path d="M95.77611522951419,-0.22917661144544005 L99.70930627276476,-0.018829541560480556 L100.0,-0.0" fill="blue" fill-opacity="0.6" stroke="black" stroke-width="1" />
<path d="M0.0,-11.0 L3.2765310873327578,-11.401095960149938 L0.0,-13.0" fill="blue" fill-opacity="0.6" stroke="black" stroke-width="1" />
<path d="M0.0,11.0 L3.2765310873327578,11.401095960149938 L0.0,13.0" fill="pink" fill-opacity="0.6" stroke="black" stroke-width="1" />
<path d="M0.0,89.0 L3.2765310873327578,88.59890403985005 L0.0,87.0" fill="orange" fill-opacity="0.6" stroke="black" stroke-width="1" />
<path d="M0.0,-89.0 L3.2765310873327578,-88.59890403985005 L0.0,-87.0" fill="purple" fill-opacity="0.6" stroke="black" stroke-width="1" />
<path d="M0.0,-13.0 L9.631824252574988,-19.764092793265874 L11.0,-50.0" fill="purple" fill-opacity="0.6" stroke="black" stroke-width="1" />
<path d="M0.0,13.0 L9.631824252574988,19.764092793265874 L11.0,50.0" fill="purple" fill-opacity="0.6" stroke="black" stroke-width="1" />
<path d="M0.0,87.0 L9.631824252574988,80.23590720673413 L11.0,50.0" fill="blue" fill-opacity="0.6" stroke="black" stroke-width="1" />
<path d="M0.0,-87.0 L9.631824252574988,-80.23590720673413 L11.0,-50.0" fill="yellow" fill-opacity="0.6" stroke="black" stroke-width="1" />
<path d="M32.0,-50.0 L36.039900465990144,-44.30608179532807 L33.699781300727686,-37.57937899206772" fill="green" fill-opacity="0.6" stroke="black" stroke-width="1" />
<path d="M32.0,50.0 L36.039900465990144,44.30608179532807 L33.699781300727686,37.57937899206772" fill="blue" fill-opacity="0.6" stroke="black" stroke-width="1" />
<path d="M32.0,50.0 L36.039900465990144,55.69391820467193 L33.699781300727686,62.42062100793228" fill="blue" fill-opacity="0.6" stroke="black" stroke-width="1" />
<path d="M32.0,-50.0 L36.039900465990144,-55.69391820467193 L33.699781300727686,-62.42062100793228" fill="yellow" fill-opacity="0.6" stroke="black" stroke-width="1" />
<path d="M36.039900465990144,-44.30608179532807 L33.699781300727686,-37.57937899206772 L36.0,-36.0" fill="orange" fill-opacity="0.6" stroke="black" stroke-width="1" />
<path d="M36.039900465990144,44.30608179532807 L33.699781300727686,37.57937899206772 L36.0,36.0" fill="pink" fill-opacity="0.6" stroke="black" stroke-width="1" />
<path d="M36.039900465990144,55.69391820467193 L33.699781300727686,62.42062100793228 L36.0,64.0" fill="purple" fill-opacity="0.6" stroke="black" stroke-width="1" />
<path d="M36.039900465990144,-55.69391820467193 L33.699781300727686,-62.42062100793228 L36.0,-64.0" fill="brown" fill-opacity="0.6" stroke="black" stroke-width="1" />
<path d="M36.0,-36.0 L31.04512864576871,-34.701973410466266 L19.15572956175873,-26.529981744726864" fill="orange" fill-opacity="0.6" stroke="black" stroke-width="1" />
<path d="M36.0,36.0 L31.04512864576871,34.701973410466266 L19.15572956175873,26.529981744726864" fill="purple" fill-opacity="0.6" stroke="black" stroke-width="1" />
<path d="M36.0,64.0 L31.04512864576871,65.29802658953373 L19.15572956175873,73.47001825527313" fill="pink" fill-opacity="0.6" stroke="black" stroke-width="1" />
<path d="M36.0,-64.0 L31.04512864576871,-65.29802658953373 L19.15572956175873,-73.47001825527313" fill="orange" fill-opacity="0.6" stroke="black" stroke-width="1" />
<path d="M31.04512864576871,-34.701973410466266 L19.15572956175873,-26.529981744726864 L21.0,-21.0" fill="black" fill-opacity="0.6" stroke="black" stroke-width="1" />
<path d="M31.04512864576871,34.701973410466266 L19.15572956175873,26.529981744726864 L21.0,21.0" fill="brown" fill-opacity="0.6" stroke="black" stroke-width="1" />
<path d="M31.04512864576871,65.29802658953373 L19.15572956175873,73.47001825527313 L21.0,79.0" fill="yellow" fill-opacity="0.6" stroke="black" stroke-width="1" />
<path d="M31.04512864576871,-65.29802658953373 L19.15572956175873,-73.47001825527313 L21.0,-79.0" fill="purple" fill-opacity="0.6" stroke="black" stroke-width="1" />
<path d="M12.0,-12.0 L3.9037299272855153,-11.693931732414804 L1.9110356554065149,-8.885449628351333" fill="purple" fill-opacity="0.6" stroke="black" stroke-width="1" />
<path d="M12.0,12.0 L3.9037299272855153,11.693931732414804 L1.9110356554065149,8.885449628351333" fill="blue" fill-opacity="0.6" stroke="black" stroke-width="1" />
<path d="M12.0,88.0 L3.9037299272855153,88.3060682675852 L1.9110356554065149,91.11455037164868" fill="yellow" fill-opacity="0.6" stroke="black" stroke-width="1" />
<path d="M12.0,-88.0 L3.9037299272855153,-88.3060682675852 L1.9110356554065149,-91.11455037164868" fill="brown" fill-opacity="0.6" stroke="black" stroke-width="1" />
<path d="M3.9037299272855153,-11.693931732414804 L1.9110356554065149,-8.885449628351333 L0.22917661144544005,-4.223884770485814" fill="pink" fill-opacity="0.6" stroke="black" stroke-width="1" />
<path d="M3.9037299272855153,11.693931732414804 L1.9110356554065149,8.885449628351333 L0.22917661144544005,4.223884770485814" fill="purple" fill-opacity="0.6" stroke="black" stroke-width="1" />
<path d="M3.9037299272855153,88.3060682675852 L1.9110356554065149,91.11455037164868 L0.22917661144544005,95.77611522951419" fill="yellow" fill-opacity="0.6" stroke="black" stroke-width="1" />
<path d="M3.9037299272855153,-88.3060682675852 L1.9110356554065149,-91.11455037164868 L0.22917661144544005,-95.77611522951419" fill="purple" fill-opacity="0.6" stroke="black" stroke-width="1" />
<path d="M1.9110356554065149,-8.885449628351333 L0.22917661144544005,-4.223884770485814 L0.018829541560480556,-0.29069372723523057" fill="brown" fill-opacity="0.6" stroke="black" stroke-width="1" />
<path d="M1.9110356554065149,8.885449628351333 L0.22917661144544005,4.223884770485814 L0.018829541560480556,0.29069372723523057" fill="orange" fill-opacity="0.6" stroke="black" stroke-width="1" />
<path d="M1.9110356554065149,91.11455037164868 L0.22917661144544005,95.77611522951419 L0.018829541560480556,99.70930627276476" fill="orange" fill-opacity="0.6" stroke="black" stroke-width="1" />
<path d="M1.9110356554065149,-91.11455037164868 L0.22917661144544005,-95.77611522951419 L0.018829541560480556,-99.70930627276476" fill="purple" fill-opacity="0.6" stroke="black" stroke-width="1" />
<path d="M0.22917661144544005,-4.223884770485814 L0.018829541560480556,-0.29069372723523057 L0.0,-0.0" fill="orange" fill-opacity="0.6" stroke="black" stroke-width="1" />
<path d="M0.22917661144544005,4.223884770485814 L0.018829541560480556,0.29069372723523057 L0.0,-0.0" fill="purple" fill-opacity="0.6" stroke="black" stroke-width="1" />
<path d="M0.22917661144544005,95.77611522951419 L0.018829541560480556,99.70930627276476 L0.0,100.0" fill="orange" fill-opacity="0.6" stroke="black" stroke-width="1" />
<path d="M0.22917661144544005,-95.77611522951419 L0.018829541560480556,-99.70930627276476 L0.0,-100.0" fill="purple" fill-opacity="0.6" stroke="black" stroke-width="1" />
<path d="M0.0,89.0 L-3.2765310873327578,88.59890403985005 L0.0,87.0" fill="pink" fill-opacity="0.6" stroke="black" stroke-width="1" />
<path d="M0.0,-11.0 L-3.2765310873327578,-11.401095960149938 L0.0,-13.0" fill="green" fill-opacity="0.6" stroke="black" stroke-width="1" />
<path d="M0.0,11.0 L-3.2765310873327578,11.401095960149945 L0.0,13.0" fill="orange" fill-opacity="0.6" stroke="black" stroke-width="1" />
<path d="M0.0,-89.0 L-3.2765310873327578,-88.59890403985005 L0.0,-87.0" fill="blue" fill-opacity="0.6" stroke="black" stroke-width="1" />
<path d="M0.0,87.0 L-9.631824252574988,80.23590720673413 L-11.0,50.0" fill="black" fill-opacity="0.6" stroke="black" stroke-width="1" />
<path d="M0.0,-13.0 L-9.631824252574988,-19.764092793265874 L-11.0,-50.0" fill="purple" fill-opacity="0.6" stroke="black" stroke-width="1" />
<path d="M0.0,13.0 L-9.631824252574988,19.764092793265874 L-11.0,50.0" fill="red" fill-opacity="0.6" stroke="black" stroke-width="1" />
<path d="M0.0,-87.0 L-9.631824252574988,-80.23590720673413 L-11.0,-50.0" fill="blue" fill-opacity="0.6" stroke="black" stroke-width="1" />
<path d="M-32.0,50.0 L-36.039900465990144,55.69391820467193 L-33.699781300727686,62.42062100793228" fill="blue" fill-opacity="0.6" stroke="black" stroke-width="1" />
<path d="M-32.0,-50.0 L-36.039900465990144,-44.30608179532807 L-33.699781300727686,-37.57937899206772" fill="brown" fill-opacity="0.6" stroke="black" stroke-width="1" />
<path d="M-32.0,50.0 L-36.039900465990144,44.30608179532807 L-33.699781300727686,37.57937899206772" fill="orange" fill-opacity="0.6" stroke="black" stroke-width="1" />
<path d="M-32.0,-50.0 L-36.039900465990144,-55.69391820467193 L-33.699781300727686,-62.42062100793228" fill="brown" fill-opacity="0.6" stroke="black" stroke-width="1" />
<path d="M-36.039900465990144,55.69391820467193 L-33.699781300727686,62.42062100793228 L-36.0,64.0" fill="yellow" fill-opacity="0.6" stroke="black" stroke-width="1" />
<path d="M-36.039900465990144,-44.30608179532807 L-33.699781300727686,-37.57937899206772 L-36.0,-36.0" fill="green" fill-opacity="0.6" stroke="black" stroke-width="1" />
<path d="M-36.039900465990144,44.30608179532807 L-33.699781300727686,37.57937899206772 L-36.0,36.0" fill="red" fill-opacity="0.6" stroke="black" stroke-width="1" />
<path d="M-36.039900465990144,-55.69391820467193 L-33.699781300727686,-62.42062100793228 L-36.0,-64.0" fill="red" fill-opacity="0.6" stroke="black" stroke-width="1" />
<path d="M-36.0,64.0 L-31.04512864576871,65.29802658953373 L-19.15572956175873,73.47001825527313" fill="green" fill-opacity="0.6" stroke="black" stroke-width="1" />
<path d="M-36.0,-36.0 L-31.04512864576871,-34.701973410466266 L-19.15572956175873,-26.529981744726864" fill="red" fill-opacity="0.6" stroke="black" stroke-width="1" />
<path d="M-36.0,36.0 L-31.04512864576871,34.701973410466266 L-19.15572956175873,26.529981744726868" fill="pink" fill-opacity="0.6" stroke="black" stroke-width="1" />
<path d="M-36.0,-64.0 L-31.04512864576871,-65.29802658953373 L-19.15572956175873,-73.47001825527313" fill="pink" fill-opacity="0.6" stroke="black" stroke-width="1" />
<path d="M-31.04512864576871,65.29802658953373 L-19.15572956175873,73.47001825527313 L-21.0,79.0" fill="yellow" fill-opacity="0.6" stroke="black" stroke-width="1" />
<path d="M-31.04512864576871,-34.701973410466266 L-19.15572956175873,-26.529981744726864 L-21.0,-21.0" fill="purple" fill-opacity="0.6" stroke="black" stroke-width="1" />
<path d="M-31.04512864576871,34.701973410466266 L-19.15572956175873,26.529981744726868 L-21.0,21.0" fill="brown" fill-opacity="0.6" stroke="black" stroke-width="1" />
<path d="M-31.04512864576871,-65.29802658953373 L-19.15572956175873,-73.47001825527313 L-21.0,-79.0" fill="orange" fill-opacity="0.6" stroke="black" stroke-width="1" />
<path d="M-12.0,88.0 L-3.9037299272855153,88.3060682675852 L-1.9110356554065149,91.11455037164866" fill="blue" fill-opacity="0.6" stroke="black" stroke-width="1" />
<path d="M-12.0,-12.0 L-3.9037299272855153,-11.693931732414804 L-1.9110356554065149,-8.885449628351333" fill="pink" fill-opacity="0.6" stroke="black" stroke-width="1" />
<path d="M-12.0,12.0 L-3.9037299272855153,11.693931732414796 L-1.9110356554065149,8.885449628351338" fill="green" fill-opacity="0.6" stroke="black" stroke-width="1" />
<path d="M-12.0,-88.0 L-3.9037299272855153,-88.3060682675852 L-1.9110356554065149,-91.11455037164868" fill="purple" fill-opacity="0.6" stroke="black" stroke-width="1" />
<path d="M-3.9037299272855153,88.3060682675852 L-1.9110356554065149,91.11455037164866 L-0.22917661144544005,95.77611522951419" fill="black" fill-opacity="0.6" stroke="black" stroke-width="1" />
<path d="M-3.9037299272855153,-11.693931732414804 L-1.9110356554065149,-8.885449628351333 L-0.22917661144544005,-4.223884770485814" fill="green" fill-opacity="0.6" stroke="black" stroke-width="1" />
<path d="M-3.9037299272855153,11.693931732414796 L-1.9110356554065149,8.885449628351338 L-0.22917661144544005,4.22388477048581" fill="green" fill-opacity="0.6" stroke="black" stroke-width="1" />
<path d="M-3.9037299272855153,-88.3060682675852 L-1.9110356554065149,-91.11455037164868 L-0.22917661144544005,-95.77611522951419" fill="yellow" fill-opacity="0.6" stroke="black" stroke-width="1" />
<path d="M-1.9110356554065149,91.11455037164866 L-0.22917661144544005,95.77611522951419 L-0.018829541560480556,99.70930627276476" fill="pink" fill-opacity="0.6" stroke="black" stroke-width="1" />
<path d="M-1.9110356554065149,-8.885449628351333 L-0.22917661144544005,-4.223884770485814 L-0.018829541560480556,-0.29069372723523057" fill="orange" fill-opacity="0.6" stroke="black" stroke-width="1" />
<path d="M-1.9110356554065149,8.885449628351338 L-0.22917661144544005,4.22388477048581 L-0.018829541560480556,0.29069372723523657" fill="yellow" fill-opacity="0.6" stroke="black" stroke-width="1" />
<path d="M-1.9110356554065149,-91.11455037164868 L-0.22917661144544005,-95.77611522951419 L-0.018829541560480556,-99.70930627276476" fill="purple" fill-opacity="0.6" stroke="black" stroke-width="1" />
<path d="M-0.22917661144544005,95.77611522951419 L-0.018829541560480556,99.70930627276476 L0.0,100.0" fill="brown" fill-opacity="0.6" stroke="black" stroke-width="1" />
<path d="M-0.22917661144544005,-4.223884770485814 L-0.018829541560480556,-0.29069372723523057 L0.0,-0.0" fill="yellow" fill-opacity="0.6" stroke="black" stroke-width="1" />
<path d="M-0.22917661144544005,4.22388477048581 L-0.018829541560480556,0.29069372723523657 L0.0,-0.0" fill="green" fill-opacity="0.6" stroke="black" stroke-width="1" />
<path d="M-0.22917661144544005,-95.77611522951419 L-0.018829541560480556,-99.70930627276476 L0.0,-100.0" fill="orange" fill-opacity="0.6" stroke="black" stroke-width="1" />
<path d="M-89.0,-0.0 L-88.59890403985005,-3.2765310873327578 L-87.0,-0.0" fill="orange" fill-opacity="0.6" stroke="black" stroke-width="1" />
<path d="M-89.0,-0.0 L-88.59890403985005,3.2765310873327578 L-87.0,-0.0" fill="pink" fill-opacity="0.6" stroke="black" stroke-width="1" />
<path d="M-87.0,-0.0 L-80.23590720673413,-9.631824252574988 L-50.0,-11.0" fill="orange" fill-opacity="0.6" stroke="black" stroke-width="1" />
<path d="M-87.0,-0.0 L-80.23590720673413,9.631824252574988 L-50.0,11.0" fill="orange" fill-opacity="0.6" stroke="black" stroke-width="1" />
<path d="M-50.0,-32.0 L-55.69391820467193,-36.039900465990144 L-62.42062100793228,-33.699781300727686" fill="purple" fill-opacity="0.6" stroke="black" stroke-width="1" />
<path d="M-50.0,32.0 L-55.69391820467193,36.039900465990144 L-62.42062100793228,33.699781300727686" fill="yellow" fill-opacity="0.6" stroke="black" stroke-width="1" />
<path d="M-55.69391820467193,-36.039900465990144 L-62.42062100793228,-33.699781300727686 L-64.0,-36.0" fill="yellow" fill-opacity="0.6" stroke="black" stroke-width="1" />
<path d="M-55.69391820467193,36.039900465990144 L-62.42062100793228,33.699781300727686 L-64.0,36.0" fill="brown" fill-opacity="0.6" stroke="black" stroke-width="1" />
<path d="M-62.42062100793228,-33.699781300727686 L-64.0,-36.0 L-65.29802658953373,-31.04512864576871" fill="orange" fill-opacity="0.6" stroke="black" stroke-width="1" />
<path d="M-62.42062100793228,33.699781300727686 L-64.0,36.0 L-65.29802658953373,31.04512864576871" fill="blue" fill-opacity="0.6" stroke="black" stroke-width="1" />
<path d="M-64.0,-36.0 L-65.29802658953373,-31.04512864576871 L-73.47001825527313,-19.15572956175873" fill="pink" fill-opacity="0.6" stroke="black" stroke-width="1" />
<path d="M-64.0,36.0 L-65.29802658953373,31.04512864576871 L-73.47001825527313,19.15572956175873" fill="green" fill-opacity="0.6" stroke="black" stroke-width="1" />
<path d="M-65.29802658953373,-31.04512864576871 L-73.47001825527313,-19.15572956175873 L-79.0,-21.0" fill="brown" fill-opacity="0.6" stroke="black" stroke-width="1" />
<path d="M-65.29802658953373,31.04512864576871 L-73.47001825527313,19.15572956175873 L-79.0,21.0" fill="purple" fill-opacity="0.6" stroke="black" stroke-width="1" />
<path d="M-73.47001825527313,-19.15572956175873 L-79.0,-21.0 L-88.0,-12.0" fill="black" fill-opacity="0.6" stroke="black" stroke-width="1" />
<path d="M-73.47001825527313,19.15572956175873 L-79.0,21.0 L-88.0,12.0" fill="purple" fill-opacity="0.6" stroke="black" stroke-width="1" />
<path d="M-79.0,-21.0 L-88.0,-12.0 L-88.3060682675852,-3.9037299272855153" fill="pink" fill-opacity="0.6" stroke="black" stroke-width="1" />
<path d="M-79.0,21.0 L-88.0,12.0 L-88.3060682675852,3.9037299272855153" fill="brown" fill-opacity="0.6" stroke="black" stroke-width="1" />
<path d="M-88.0,-12.0 L-88.3060682675852,-3.9037299272855153 L-91.11455037164868,-1.9110356554065149" fill="blue" fill-opacity="0.6" stroke="black" stroke-width="1" />
<path d="M-88.0,12.0 L-88.3060682675852,3.9037299272855153 L-91.11455037164868,1.9110356554065149" fill="black" fill-opacity="0.6" stroke="black" stroke-width="1" />
<path d="M-88.3060682675852,-3.9037299272855153 L-91.11455037164868,-1.9110356554065149 L-95.77611522951419,-0.22917661144544005" fill="red" fill-opacity="0.6" stroke="black" stroke-width="1" />
<path d="M-88.3060682675852,3.9037299272855153 L-91.11455037164868,1.9110356554065149 L-95.77611522951419,0.22917661144544005" fill="green" fill-opacity="0.6" stroke="black" stroke-width="1" />
<path d="M-91.11455037164868,-1.9110356554065149 L-95.77611522951419,-0.22917661144544005 L-99.70930627276476,-0.018829541560480556" fill="pink" fill-opacity="0.6" stroke="black" stroke-width="1" />
<path d="M-91.11455037164868,1.9110356554065149 L-95.77611522951419,0.22917661144544005 L-99.70930627276476,0.018829541560480556" fill="blue" fill-opacity="0.6" stroke="black" stroke-width="1" />
<path d="M-95.77611522951419,-0.22917661144544005 L-99.70930627276476,-0.018829541560480556 L-100.0,-0.0" fill="red" fill-opacity="0.6" stroke="black" stroke-width="1" />
<path d="M-95.77611522951419,0.22917661144544005 L-99.70930627276476,0.018829541560480556 L-100.0,-0.0" fill="black" fill-opacity="0.6" stroke="black" stroke-width="1" />
</svg>