<?xml version="1.0" encoding="UTF-8"?>
<svg xmlns="http://www.w3.org/2000/svg" xmlns:xlink="http://www.w3.org/1999/xlink"
     width="250" height="250" viewBox="-125.0 -125.0 250 250">
<defs>
</defs>
<path d="M9.0,-0.0 L10.231922394303593,-2.1038051140833818 L14.43988204708322,-2.1626698401983893" fill-opacity="0" stroke="black" stroke-width="1" />
<path d="M9.0,-0.0 L10.231922394303593,2.1038051140833818 L14.43988204708322,2.1626698401983893" fill-opacity="0" stroke="black" stroke-width="1" />
<path d="M10.231922394303593,-2.1038051140833818 L14.43988204708322,-2.1626698401983893 L16.008757198640723,-2.835534073115187" fill-opacity="0" stroke="black" stroke-width="1" />
<path d="M10.231922394303593,2.1038051140833818 L14.43988204708322,2.1626698401983893 L16.008757198640723,2.835534073115187" fill-opacity="0" stroke="black" stroke-width="1" />
<path d="M14.43988204708322,-2.1626698401983893 L16.008757198640723,-2.835534073115187 L16.32971714230186,-3.48812877431339" fill-opacity="0" stroke="black" stroke-width="1" />
<path d="M14.43988204708322,2.1626698401983893 L16.008757198640723,2.835534073115187 L16.32971714230186,3.48812877431339" fill-opacity="0" stroke="black" stroke-width="1" />
<path d="M16.008757198640723,-2.835534073115187 L16.32971714230186,-3.48812877431339 L16.78966643157191,-5.513733352396095" fill-opacity="0" stroke="black" stroke-width="1" />
<path d="M16.008757198640723,2.835534073115187 L16.32971714230186,3.48812877431339 L16.78966643157191,5.513733352396095" fill-opacity="0" stroke="black" stroke-width="1" />
<path d="M16.32971714230186,-3.48812877431339 L16.78966643157191,-5.513733352396095 L19.53593897746258,-6.133264428926094" fill-opacity="0" stroke="black" stroke-width="1" />
<path d="M16.32971714230186,3.48812877431339 L16.78966643157191,5.513733352396095 L19.53593897746258,6.133264428926094" fill-opacity="0" stroke="black" stroke-width="1" />
<path d="M16.78966643157191,-5.513733352396095 L19.53593897746258,-6.133264428926094 L20.0,-0.0" fill-opacity="0" stroke="black" stroke-width="1" />
<path d="M16.78966643157191,5.513733352396095 L19.53593897746258,6.133264428926094 L20.0,-0.0" fill-opacity="0" stroke="black" stroke-width="1" />
<path d="M23.0,-0.0 L23.847263127658717,-9.577061639905212 L25.550634056306855,-10.054135963314579" fill-opacity="0" stroke="black" stroke-width="1" />
<path d="M23.0,-0.0 L23.847263127658717,9.577061639905212 L25.550634056306855,10.054135963314579" fill-opacity="0" stroke="black" stroke-width="1" />
<path d="M23.847263127658717,-9.577061639905212 L25.550634056306855,-10.054135963314579 L26.199708769155528,-10.489193588594853" fill-opacity="0" stroke="black" stroke-width="1" />
<path d="M23.847263127658717,9.577061639905212 L25.550634056306855,10.054135963314579 L26.199708769155528,10.489193588594853" fill-opacity="0" stroke="black" stroke-width="1" />
<path d="M25.550634056306855,-10.054135963314579 L26.199708769155528,-10.489193588594853 L26.59073112719252,-15.79361829117718" fill-opacity="0" stroke="black" stroke-width="1" />
<path d="M25.550634056306855,10.054135963314579 L26.199708769155528,10.489193588594853 L26.59073112719252,15.79361829117718" fill-opacity="0" stroke="black" stroke-width="1" />
<path d="M26.199708769155528,-10.489193588594853 L26.59073112719252,-15.79361829117718 L28.142939971312764,-16.14218215331475" fill-opacity="0" stroke="black" stroke-width="1" />
<path d="M26.199708769155528,10.489193588594853 L26.59073112719252,15.79361829117718 L28.142939971312764,16.14218215331475" fill-opacity="0" stroke="black" stroke-width="1" />
<path d="M26.59073112719252,-15.79361829117718 L28.142939971312764,-16.14218215331475 L36.0,-0.0" fill-opacity="0" stroke="black" stroke-width="1" />
<path d="M26.59073112719252,15.79361829117718 L28.142939971312764,16.14218215331475 L36.0,-0.0" fill-opacity="0" stroke="black" stroke-width="1" />
<path d="M50.0,-14.0 L35.54387163887814,-16.831097276699868 L39.679945814623395,-18.015315974911072" fill-opacity="0" stroke="black" stroke-width="1" />
<path d="M50.0,14.0 L35.54387163887814,16.831097276699868 L39.679945814623395,18.015315974911072" fill-opacity="0" stroke="black" stroke-width="1" />
<path d="M35.54387163887814,-16.831097276699868 L39.679945814623395,-18.015315974911072 L50.0,-21.0" fill-opacity="0" stroke="black" stroke-width="1" />
<path d="M35.54387163887814,16.831097276699868 L39.679945814623395,18.015315974911072 L50.0,21.0" fill-opacity="0" stroke="black" stroke-width="1" />
<path d="M50.0,-21.0 L44.71359942477334,-21.784755954563153 L50.0,-29.0" fill-opacity="0" stroke="black" stroke-width="1" />
<path d="M50.0,21.0 L44.71359942477334,21.784755954563153 L50.0,29.0" fill-opacity="0" stroke="black" stroke-width="1" />
<path d="M50.0,-29.0 L47.037473323030696,-33.589392938499394 L50.0,-37.0" fill-opacity="0" stroke="black" stroke-width="1" />
<path d="M50.0,29.0 L47.037473323030696,33.589392938499394 L50.0,37.0" fill-opacity="0" stroke="black" stroke-width="1" />
<path d="M50.0,-50.0 L48.174934034903,-42.219202890618654 L33.0,-33.0" fill-opacity="0" stroke="black" stroke-width="1" />
<path d="M50.0,50.0 L48.174934034903,42.219202890618654 L33.0,33.0" fill-opacity="0" stroke="black" stroke-width="1" />
<path d="M42.219202890618654,51.825065965097 L33.0,67.0 L31.0,69.0" fill-opacity="0" stroke="black" stroke-width="1" />
<path d="M42.219202890618654,-51.825065965097 L33.0,-67.0 L31.0,-69.0" fill-opacity="0" stroke="black" stroke-width="1" />
<path d="M33.0,67.0 L31.0,69.0 L24.0,76.0" fill-opacity="0" stroke="black" stroke-width="1" />
<path d="M33.0,-67.0 L31.0,-69.0 L24.0,-76.0" fill-opacity="0" stroke="black" stroke-width="1" />
<path d="M31.0,69.0 L24.0,76.0 L19.0,81.0" fill-opacity="0" stroke="black" stroke-width="1" />
<path d="M31.0,-69.0 L24.0,-76.0 L19.0,-81.0" fill-opacity="0" stroke="black" stroke-width="1" />
<path d="M24.0,76.0 L19.0,81.0 L13.0,87.0" fill-opacity="0" stroke="black" stroke-width="1" />
<path d="M24.0,-76.0 L19.0,-81.0 L13.0,-87.0" fill-opacity="0" stroke="black" stroke-width="1" />
<path d="M19.0,81.0 L13.0,87.0 L11.0,89.0" fill-opacity="0" stroke="black" stroke-width="1" />
<path d="M19.0,-81.0 L13.0,-87.0 L11.0,-89.0" fill-opacity="0" stroke="black" stroke-width="1" />
<path d="M13.0,87.0 L11.0,89.0 L10.0,90.0" fill-opacity="0" stroke="black" stroke-width="1" />
<path d="M13.0,-87.0 L11.0,-89.0 L10.0,-90.0" fill-opacity="0" stroke="black" stroke-width="1" />
<path d="M11.0,89.0 L10.0,90.0 L1.8290497784616888,93.81626896306216" fill-opacity="0" stroke="black" stroke-width="1" />
<path d="M11.0,-89.0 L10.0,-90.0 L1.8290497784616888,-93.81626896306216" fill-opacity="0" stroke="black" stroke-width="1" />
<path d="M10.0,-10.0 L6.183731036937834,-1.8290497784616888 L4.921381277306914,-1.0059215512752213" fill-opacity="0" stroke="black" stroke-width="1" />
<path d="M10.0,10.0 L6.183731036937834,1.8290497784616888 L4.921381277306914,1.0059215512752213" fill-opacity="0" stroke="black" stroke-width="1" />
<path d="M6.183731036937834,-1.8290497784616888 L4.921381277306914,-1.0059215512752213 L3.66014528509252,-0.7377169917524258" fill-opacity="0" stroke="black" stroke-width="1" />
<path d="M6.183731036937834,1.8290497784616888 L4.921381277306914,1.0059215512752213 L3.66014528509252,0.7377169917524258" fill-opacity="0" stroke="black" stroke-width="1" />
<path d="M4.921381277306914,-1.0059215512752213 L3.66014528509252,-0.7377169917524258 L0.0,-0.0" fill-opacity="0" stroke="black" stroke-width="1" />
<path d="M4.921381277306914,1.0059215512752213 L3.66014528509252,0.7377169917524258 L0.0,-0.0" fill-opacity="0" stroke="black" stroke-width="1" />
<path d="M-9.0,-0.0 L-10.231922394303593,-2.1038051140833818 L-14.43988204708322,-2.1626698401983893" fill-opacity="0" stroke="black" stroke-width="1" />
<path d="M-9.0,-0.0 L-10.231922394303593,2.1038051140833818 L-14.43988204708322,2.1626698401983893" fill-opacity="0" stroke="black" stroke-width="1" />
<path d="M-10.231922394303593,-2.1038051140833818 L-14.43988204708322,-2.1626698401983893 L-16.008757198640723,-2.835534073115187" fill-opacity="0" stroke="black" stroke-width="1" />
<path d="M-10.231922394303593,2.1038051140833818 L-14.43988204708322,2.1626698401983893 L-16.008757198640723,2.835534073115187" fill-opacity="0" stroke="black" stroke-width="1" />
<path d="M-14.43988204708322,-2.1626698401983893 L-16.008757198640723,-2.835534073115187 L-16.32971714230186,-3.48812877431339" fill-opacity="0" stroke="black" stroke-width="1" />
<path d="M-14.43988204708322,2.1626698401983893 L-16.008757198640723,2.835534073115187 L-16.32971714230186,3.48812877431339" fill-opacity="0" stroke="black" stroke-width="1" />
<path d="M-16.008757198640723,-2.835534073115187 L-16.32971714230186,-3.48812877431339 L-16.78966643157191,-5.513733352396095" fill-opacity="0" stroke="black" stroke-width="1" />
<path d="M-16.008757198640723,2.835534073115187 L-16.32971714230186,3.48812877431339 L-16.78966643157191,5.513733352396095" fill-opacity="0" stroke="black" stroke-width="1" />
<path d="M-16.32971714230186,-3.48812877431339 L-16.78966643157191,-5.513733352396095 L-19.53593897746258,-6.133264428926094" fill-opacity="0" stroke="black" stroke-width="1" />
<path d="M-16.32971714230186,3.48812877431339 L-16.78966643157191,5.513733352396095 L-19.53593897746258,6.133264428926094" fill-opacity="0" stroke="black" stroke-width="1" />
<path d="M-16.78966643157191,-5.513733352396095 L-19.53593897746258,-6.133264428926094 L-20.0,-0.0" fill-opacity="0" stroke="black" stroke-width="1" />
<path d="M-16.78966643157191,5.513733352396095 L-19.53593897746258,6.133264428926094 L-20.0,-0.0" fill-opacity="0" stroke="black" stroke-width="1" />
<path d="M-23.0,-0.0 L-23.847263127658717,-9.577061639905212 L-25.550634056306855,-10.054135963314579" fill-opacity="0" stroke="black" stroke-width="1" />
<path d="M-23.0,-0.0 L-23.847263127658717,9.577061639905212 L-25.550634056306855,10.054135963314579" fill-opacity="0" stroke="black" stroke-width="1" />
<path d="M-23.847263127658717,-9.577061639905212 L-25.550634056306855,-10.054135963314579 L-26.199708769155528,-10.489193588594853" fill-opacity="0" stroke="black" stroke-width="1" />
<path d="M-23.847263127658717,9.577061639905212 L-25.550634056306855,10.054135963314579 L-26.199708769155528,10.489193588594853" fill-opacity="0" stroke="black" stroke-width="1" />
<path d="M-25.550634056306855,-10.054135963314579 L-26.199708769155528,-10.489193588594853 L-26.59073112719252,-15.79361829117718" fill-opacity="0" stroke="black" stroke-width="1" />
<path d="M-25.550634056306855,10.054135963314579 L-26.199708769155528,10.489193588594853 L-26.59073112719252,15.79361829117718" fill-opacity="0" stroke="black" stroke-width="1" />
<path d="M-26.199708769155528,-10.489193588594853 L-26.59073112719252,-15.79361829117718 L-28.142939971312764,-16.14218215331475" fill-opacity="0" stroke="black" stroke-width="1" />
<path d="M-26.199708769155528,10.489193588594853 L-26.59073112719252,15.79361829117718 L-28.142939971312764,16.14218215331475" fill-opacity="0" stroke="black" stroke-width="1" />
<path d="M-26.59073112719252,-15.79361829117718 L-28.142939971312764,-16.14218215331475 L-36.0,-0.0" fill-opacity="0" stroke="black" stroke-width="1" />
<path d="M-26.59073112719252,15.79361829117718 L-28.142939971312764,16.14218215331475 L-36.0,-0.0" fill-opacity="0" stroke="black" stroke-width="1" />
<path d="M-50.0,-14.0 L-35.54387163887814,-16.831097276699868 L-39.679945814623395,-18.015315974911072" fill-opacity="0" stroke="black" stroke-width="1" />
<path d="M-50.0,14.0 L-35.54387163887814,16.831097276699868 L-39.679945814623395,18.015315974911072" fill-opacity="0" stroke="black" stroke-width="1" />
<path d="M-35.54387163887814,-16.831097276699868 L-39.679945814623395,-18.015315974911072 L-50.0,-21.0" fill-opacity="0" stroke="black" stroke-width="1" />
<path d="M-35.54387163887814,16.831097276699868 L-39.679945814623395,18.015315974911072 L-50.0,21.0" fill-opacity="0" stroke="black" stroke-width="1" />
<path d="M-50.0,-21.0 L-44.71359942477334,-21.784755954563153 L-50.0,-29.0" fill-opacity="0" stroke="black" stroke-width="1" />
<path d="M-50.0,21.0 L-44.71359942477334,21.784755954563153 L-50.0,29.0" fill-opacity="0" stroke="black" stroke-width="1" />
<path d="M-50.0,-29.0 L-47.037473323030696,-33.589392938499394 L-50.0,-37.0" fill-opacity="0" stroke="black" stroke-width="1" />
<path d="M-50.0,29.0 L-47.037473323030696,33.589392938499394 L-50.0,37.0" fill-opacity="0" stroke="black" stroke-width="1" />
<path d="M-50.0,-50.0 L-48.174934034903,-42.219202890618654 L-33.0,-33.0" fill-opacity="0" stroke="black" stroke-width="1" />
<path d="M-50.0,50.0 L-48.174934034903,42.219202890618654 L-33.0,33.0" fill-opacity="0" stroke="black" stroke-width="1" />
<path d="M-42.219202890618654,51.825065965097 L-33.0,67.0 L-31.0,69.0" fill-opacity="0" stroke="black" stroke-width="1" />
<path d="M-42.219202890618654,-51.825065965097 L-33.0,-67.0 L-31.0,-69.0" fill-opacity="0" stroke="black" stroke-width="1" />
<path d="M-33.0,67.0 L-31.0,69.0 L-24.0,76.0" fill-opacity="0" stroke="black" stroke-width="1" />
<path d="M-33.0,-67.0 L-31.0,-69.0 L-24.0,-76.0" fill-opacity="0" stroke="black" stroke-width="1" />
<path d="M-31.0,69.0 L-24.0,76.0 L-19.0,81.0" fill-opacity="0" stroke="black" stroke-width="1" />
<path d="M-31.0,-69.0 L-24.0,-76.0 L-19.0,-81.0" fill-opacity="0" stroke="black" stroke-width="1" />
<path d="M-24.0,76.0 L-19.0,81.0 L-13.0,87.0" fill-opacity="0" stroke="black" stroke-width="1" />
<path d="M-24.0,-76.0 L-19.0,-81.0 L-13.0,-87.0" fill-opacity="0" stroke="black" stroke-width="1" />
<path d="M-19.0,81.0 L-13.0,87.0 L-11.0,89.0" fill-opacity="0" stroke="black" stroke-width="1" />
<path d="M-19.0,-81.0 L-13.0,-87.0 L-11.0,-89.0" fill-opacity="0" stroke="black" stroke-width="1" />
<path d="M-13.0,87.0 L-11.0,89.0 L-10.0,90.0" fill-opacity="0" stroke="black" stroke-width="1" />
<path d="M-13.0,-87.0 L-11.0,-89.0 L-10.0,-90.0" fill-opacity="0" stroke="black" stroke-width="1" />
<path d="M-11.0,89.0 L-10.0,90.0 L-1.8290497784616888,93.81626896306217" fill-opacity="0" stroke="black" stroke-width="1" />
<path d="M-11.0,-89.0 L-10.0,-90.0 L-1.8290497784616888,-93.81626896306216" fill-opacity="0" stroke="black" stroke-width="1" />
<path d="M-10.0,-10.0 L-6.183731036937834,-1.8290497784616888 L-4.921381277306914,-1.0059215512752213" fill-opacity="0" stroke="black" stroke-width="1" />
<path d="M-10.0,10.0 L-6.183731036937834,1.8290497784616888 L-4.921381277306914,1.0059215512752213" fill-opacity="0" stroke="black" stroke-width="1" />
<path d="M-6.183731036937834,-1.8290497784616888 L-4.921381277306914,-1.0059215512752213 L-3.66014528509252,-0.7377169917524258" fill-opacity="0" stroke="black" stroke-width="1" />
<path d="M-6.183731036937834,1.8290497784616888 L-4.921381277306914,1.0059215512752213 L-3.66014528509252,0.7377169917524258" fill-opacity="0" stroke="black" stroke-width="1" />
<path d="M-4.921381277306914,-1.0059215512752213 L-3.66014528509252,-0.7377169917524258 L0.0,-0.0" fill-opacity="0" stroke="black" stroke-width="1" />
<path d="M-4.921381277306914,1.0059215512752213 L-3.66014528509252,0.7377169917524258 L0.0,-0.0" fill-opacity="0" stroke="black" stroke-width="1" />
<path d="M91.0,-0.0 L89.7680776056964,2.1038051140833818 L85.56011795291678,2.1626698401983893" fill-opacity="0" stroke="black" stroke-width="1" />
<path d="M91.0,-0.0 L89.7680776056964,-2.1038051140833818 L85.56011795291678,-2.1626698401983893" fill-opacity="0" stroke="black" stroke-width="1" />
<path d="M89.7680776056964,2.1038051140833818 L85.56011795291678,2.1626698401983893 L83.99124280135928,2.835534073115187" fill-opacity="0" stroke="black" stroke-width="1" />
<path d="M89.7680776056964,-2.1038051140833818 L85.56011795291678,-2.1626698401983893 L83.99124280135928,-2.835534073115187" fill-opacity="0" stroke="black" stroke-width="1" />
<path d="M85.56011795291678,2.1626698401983893 L83.99124280135928,2.835534073115187 L83.67028285769814,3.48812877431339" fill-opacity="0" stroke="black" stroke-width="1" />
<path d="M85.56011795291678,-2.1626698401983893 L83.99124280135928,-2.835534073115187 L83.67028285769814,-3.48812877431339" fill-opacity="0" stroke="black" stroke-width="1" />
<path d="M83.99124280135928,2.835534073115187 L83.67028285769814,3.48812877431339 L83.2103335684281,5.513733352396095" fill-opacity="0" stroke="black" stroke-width="1" />
<path d="M83.99124280135928,-2.835534073115187 L83.67028285769814,-3.48812877431339 L83.2103335684281,-5.513733352396095" fill-opacity="0" stroke="black" stroke-width="1" />
<path d="M83.67028285769814,3.48812877431339 L83.2103335684281,5.513733352396095 L80.46406102253742,6.133264428926094" fill-opacity="0" stroke="black" stroke-width="1" />
<path d="M83.67028285769814,-3.48812877431339 L83.2103335684281,-5.513733352396095 L80.46406102253742,-6.133264428926094" fill-opacity="0" stroke="black" stroke-width="1" />
<path d="M83.2103335684281,5.513733352396095 L80.46406102253742,6.133264428926094 L80.0,-0.0" fill-opacity="0" stroke="black" stroke-width="1" />
<path d="M83.2103335684281,-5.513733352396095 L80.46406102253742,-6.133264428926094 L80.0,-0.0" fill-opacity="0" stroke="black" stroke-width="1" />
<path d="M77.0,-0.0 L76.15273687234128,9.577061639905212 L74.44936594369315,10.054135963314579" fill-opacity="0" stroke="black" stroke-width="1" />
<path d="M77.0,-0.0 L76.15273687234128,-9.577061639905212 L74.44936594369315,-10.054135963314579" fill-opacity="0" stroke="black" stroke-width="1" />
<path d="M76.15273687234128,9.577061639905212 L74.44936594369315,10.054135963314579 L73.80029123084446,10.489193588594853" fill-opacity="0" stroke="black" stroke-width="1" />
<path d="M76.15273687234128,-9.577061639905212 L74.44936594369315,-10.054135963314579 L73.80029123084446,-10.489193588594853" fill-opacity="0" stroke="black" stroke-width="1" />
<path d="M74.44936594369315,10.054135963314579 L73.80029123084446,10.489193588594853 L73.40926887280747,15.79361829117718" fill-opacity="0" stroke="black" stroke-width="1" />
<path d="M74.44936594369315,-10.054135963314579 L73.80029123084446,-10.489193588594853 L73.40926887280747,-15.79361829117718" fill-opacity="0" stroke="black" stroke-width="1" />
<path d="M73.80029123084446,10.489193588594853 L73.40926887280747,15.79361829117718 L71.85706002868724,16.14218215331475" fill-opacity="0" stroke="black" stroke-width="1" />
<path d="M73.80029123084446,-10.489193588594853 L73.40926887280747,-15.79361829117718 L71.85706002868724,-16.14218215331475" fill-opacity="0" stroke="black" stroke-width="1" />
<path d="M73.40926887280747,15.79361829117718 L71.85706002868724,16.14218215331475 L64.0,-0.0" fill-opacity="0" stroke="black" stroke-width="1" />
<path d="M73.40926887280747,-15.79361829117718 L71.85706002868724,-16.14218215331475 L64.0,-0.0" fill-opacity="0" stroke="black" stroke-width="1" />
<path d="M50.0,14.0 L64.45612836112187,16.831097276699868 L60.320054185376605,18.015315974911072" fill-opacity="0" stroke="black" stroke-width="1" />
<path d="M50.0,-14.0 L64.45612836112187,-16.831097276699868 L60.320054185376605,-18.015315974911072" fill-opacity="0" stroke="black" stroke-width="1" />
<path d="M64.45612836112187,16.831097276699868 L60.320054185376605,18.015315974911072 L50.0,21.0" fill-opacity="0" stroke="black" stroke-width="1" />
<path d="M64.45612836112187,-16.831097276699868 L60.320054185376605,-18.015315974911072 L50.0,-21.0" fill-opacity="0" stroke="black" stroke-width="1" />
<path d="M50.0,21.0 L55.28640057522666,21.784755954563153 L50.0,29.0" fill-opacity="0" stroke="black" stroke-width="1" />
<path d="M50.0,-21.0 L55.28640057522666,-21.784755954563153 L50.0,-29.0" fill-opacity="0" stroke="black" stroke-width="1" />
<path d="M50.0,29.0 L52.962526676969304,33.589392938499394 L50.0,37.0" fill-opacity="0" stroke="black" stroke-width="1" />
<path d="M50.0,-29.0 L52.962526676969304,-33.589392938499394 L50.0,-37.0" fill-opacity="0" stroke="black" stroke-width="1" />
<path d="M50.0,50.0 L51.825065965097,42.219202890618654 L67.0,33.0" fill-opacity="0" stroke="black" stroke-width="1" />
<path d="M50.0,-50.0 L51.825065965097,-42.219202890618654 L67.0,-33.0" fill-opacity="0" stroke="black" stroke-width="1" />
<path d="M51.825065965097,42.219202890618654 L67.0,33.0 L69.0,31.0" fill-opacity="0" stroke="black" stroke-width="1" />
<path d="M51.825065965097,-42.219202890618654 L67.0,-33.0 L69.0,-31.0" fill-opacity="0" stroke="black" stroke-width="1" />
<path d="M67.0,33.0 L69.0,31.0 L76.0,24.0" fill-opacity="0" stroke="black" stroke-width="1" />
<path d="M67.0,-33.0 L69.0,-31.0 L76.0,-24.0" fill-opacity="0" stroke="black" stroke-width="1" />
<path d="M69.0,31.0 L76.0,24.0 L81.0,19.0" fill-opacity="0" stroke="black" stroke-width="1" />
<path d="M69.0,-31.0 L76.0,-24.0 L81.0,-19.0" fill-opacity="0" stroke="black" stroke-width="1" />
<path d="M76.0,24.0 L81.0,19.0 L87.0,13.0" fill-opacity="0" stroke="black" stroke-width="1" />
<path d="M76.0,-24.0 L81.0,-19.0 L87.0,-13.0" fill-opacity="0" stroke="black" stroke-width="1" />
<path d="M81.0,19.0 L87.0,13.0 L89.0,11.0" fill-opacity="0" stroke="black" stroke-width="1" />
<path d="M81.0,-19.0 L87.0,-13.0 L89.0,-11.0" fill-opacity="0" stroke="black" stroke-width="1" />
<path d="M87.0,13.0 L89.0,11.0 L90.0,10.0" fill-opacity="0" stroke="black" stroke-width="1" />
<path d="M87.0,-13.0 L89.0,-11.0 L90.0,-10.0" fill-opacity="0" stroke="black" stroke-width="1" />
<path d="M89.0,11.0 L90.0,10.0 L93.81626896306216,1.8290497784616888" fill-opacity="0" stroke="black" stroke-width="1" />
<path d="M89.0,-11.0 L90.0,-10.0 L93.81626896306216,-1.8290497784616888" fill-opacity="0" stroke="black" stroke-width="1" />
<path d="M90.0,10.0 L93.81626896306216,1.8290497784616888 L95.07861872269308,1.0059215512752213" fill-opacity="0" stroke="black" stroke-width="1" />
<path d="M90.0,-10.0 L93.81626896306216,-1.8290497784616888 L95.07861872269308,-1.0059215512752213" fill-opacity="0" stroke="black" stroke-width="1" />
<path d="M93.81626896306216,1.8290497784616888 L95.07861872269308,1.0059215512752213 L96.33985471490749,0.7377169917524258" fill-opacity="0" stroke="black" stroke-width="1" />
<path d="M93.81626896306216,-1.8290497784616888 L95.07861872269308,-1.0059215512752213 L96.33985471490749,-0.7377169917524258" fill-opacity="0" stroke="black" stroke-width="1" />
<path d="M95.07861872269308,1.0059215512752213 L96.33985471490749,0.7377169917524258 L100.0,-0.0" fill-opacity="0" stroke="black" stroke-width="1" />
<path d="M95.07861872269308,-1.0059215512752213 L96.33985471490749,-0.7377169917524258 L100.0,-0.0" fill-opacity="0" stroke="black" stroke-width="1" />
<path d="M0.0,-9.0 L2.1038051140833818,-10.231922394303593 L2.1626698401983893,-14.43988204708322" fill-opacity="0" stroke="black" stroke-width="1" />
<path d="M0.0,9.0 L2.1038051140833818,10.231922394303593 L2.1626698401983893,14.43988204708322" fill-opacity="0" stroke="black" stroke-width="1" />
<path d="M0.0,91.0 L2.1038051140833818,89.7680776056964 L2.1626698401983893,85.56011795291678" fill-opacity="0" stroke="black" stroke-width="1" />
<path d="M0.0,-91.0 L2.1038051140833818,-89.7680776056964 L2.1626698401983893,-85.56011795291678" fill-opacity="0" stroke="black" stroke-width="1" />
<path d="M2.1038051140833818,-10.231922394303593 L2.1626698401983893,-14.43988204708322 L2.835534073115187,-16.008757198640723" fill-opacity="0" stroke="black" stroke-width="1" />
<path d="M2.1038051140833818,10.231922394303593 L2.1626698401983893,14.43988204708322 L2.835534073115187,16.008757198640723" fill-opacity="0" stroke="black" stroke-width="1" />
<path d="M2.1038051140833818,89.7680776056964 L2.1626698401983893,85.56011795291678 L2.835534073115187,83.99124280135928" fill-opacity="0" stroke="black" stroke-width="1" />
<path d="M2.1038051140833818,-89.7680776056964 L2.1626698401983893,-85.56011795291678 L2.835534073115187,-83.99124280135928" fill-opacity="0" stroke="black" stroke-width="1" />
<path d="M2.1626698401983893,-14.43988204708322 L2.835534073115187,-16.008757198640723 L3.48812877431339,-16.32971714230186" fill-opacity="0" stroke="black" stroke-width="1" />
<path d="M2.1626698401983893,14.43988204708322 L2.835534073115187,16.008757198640723 L3.48812877431339,16.32971714230186" fill-opacity="0" stroke="black" stroke-width="1" />
<path d="M2.1626698401983893,85.56011795291678 L2.835534073115187,83.99124280135928 L3.48812877431339,83.67028285769814" fill-opacity="0" stroke="black" stroke-width="1" />
<path d="M2.1626698401983893,-85.56011795291678 L2.835534073115187,-83.99124280135928 L3.48812877431339,-83.67028285769814" fill-opacity="0" stroke="black" stroke-width="1" />
<path d="M2.835534073115187,-16.008757198640723 L3.48812877431339,-16.32971714230186 L5.513733352396095,-16.78966643157191" fill-opacity="0" stroke="black" stroke-width="1" />
<path d="M2.835534073115187,16.008757198640723 L3.48812877431339,16.32971714230186 L5.513733352396095,16.78966643157191" fill-opacity="0" stroke="black" stroke-width="1" />
<path d="M2.835534073115187,83.99124280135928 L3.48812877431339,83.67028285769814 L5.513733352396095,83.2103335684281" fill-opacity="0" stroke="black" stroke-width="1" />
<path d="M2.835534073115187,-83.99124280135928 L3.48812877431339,-83.67028285769814 L5.513733352396095,-83.2103335684281" fill-opacity="0" stroke="black" stroke-width="1" />
<path d="M3.48812877431339,-16.32971714230186 L5.513733352396095,-16.78966643157191 L6.133264428926094,-19.53593897746258" fill-opacity="0" stroke="black" stroke-width="1" />
<path d="M3.48812877431339,16.32971714230186 L5.513733352396095,16.78966643157191 L6.133264428926094,19.53593897746258" fill-opacity="0" stroke="black" stroke-width="1" />
<path d="M3.48812877431339,83.67028285769814 L5.513733352396095,83.2103335684281 L6.133264428926094,80.46406102253742" fill-opacity="0" stroke="black" stroke-width="1" />
<path d="M3.48812877431339,-83.67028285769814 L5.513733352396095,-83.2103335684281 L6.133264428926094,-80.46406102253742" fill-opacity="0" stroke="black" stroke-width="1" />
<path d="M5.513733352396095,-16.78966643157191 L6.133264428926094,-19.53593897746258 L0.0,-20.0" fill-opacity="0" stroke="black" stroke-width="1" />
<path d="M5.513733352396095,16.78966643157191 L6.133264428926094,19.53593897746258 L0.0,20.0" fill-opacity="0" stroke="black" stroke-width="1" />
<path d="M5.513733352396095,83.2103335684281 L6.133264428926094,80.46406102253742 L0.0,80.0" fill-opacity="0" stroke="black" stroke-width="1" />
<path d="M5.513733352396095,-83.2103335684281 L6.133264428926094,-80.46406102253742 L0.0,-80.0" fill-opacity="0" stroke="black" stroke-width="1" />
<path d="M0.0,-23.0 L9.577061639905212,-23.847263127658717 L10.054135963314579,-25.550634056306855" fill-opacity="0" stroke="black" stroke-width="1" />
<path d="M0.0,23.0 L9.577061639905212,23.847263127658717 L10.054135963314579,25.550634056306855" fill-opacity="0" stroke="black" stroke-width="1" />
<path d="M0.0,77.0 L9.577061639905212,76.15273687234128 L10.054135963314579,74.44936594369315" fill-opacity="0" stroke="black" stroke-width="1" />
<path d="M0.0,-77.0 L9.577061639905212,-76.15273687234128 L10.054135963314579,-74.44936594369315" fill-opacity="0" stroke="black" stroke-width="1" />
<path d="M9.577061639905212,-23.847263127658717 L10.054135963314579,-25.550634056306855 L10.489193588594853,-26.199708769155528" fill-opacity="0" stroke="black" stroke-width="1" />
<path d="M9.577061639905212,23.847263127658717 L10.054135963314579,25.550634056306855 L10.489193588594853,26.199708769155528" fill-opacity="0" stroke="black" stroke-width="1" />
<path d="M9.577061639905212,76.15273687234128 L10.054135963314579,74.44936594369315 L10.489193588594853,73.80029123084446" fill-opacity="0" stroke="black" stroke-width="1" />
<path d="M9.577061639905212,-76.15273687234128 L10.054135963314579,-74.44936594369315 L10.489193588594853,-73.80029123084446" fill-opacity="0" stroke="black" stroke-width="1" />
<path d="M10.054135963314579,-25.550634056306855 L10.489193588594853,-26.199708769155528 L15.79361829117718,-26.59073112719252" fill-opacity="0" stroke="black" stroke-width="1" />
<path d="M10.054135963314579,25.550634056306855 L10.489193588594853,26.199708769155528 L15.79361829117718,26.59073112719252" fill-opacity="0" stroke="black" stroke-width="1" />
<path d="M10.054135963314579,74.44936594369315 L10.489193588594853,73.80029123084446 L15.79361829117718,73.40926887280747" fill-opacity="0" stroke="black" stroke-width="1" />
<path d="M10.054135963314579,-74.44936594369315 L10.489193588594853,-73.80029123084446 L15.79361829117718,-73.40926887280747" fill-opacity="0" stroke="black" stroke-width="1" />
<path d="M10.489193588594853,-26.199708769155528 L15.79361829117718,-26.59073112719252 L16.14218215331475,-28.142939971312764" fill-opacity="0" stroke="black" stroke-width="1" />
<path d="M10.489193588594853,26.199708769155528 L15.79361829117718,26.59073112719252 L16.14218215331475,28.142939971312764" fill-opacity="0" stroke="black" stroke-width="1" />
<path d="M10.489193588594853,73.80029123084446 L15.79361829117718,73.40926887280747 L16.14218215331475,71.85706002868724" fill-opacity="0" stroke="black" stroke-width="1" />
<path d="M10.489193588594853,-73.80029123084446 L15.79361829117718,-73.40926887280747 L16.14218215331475,-71.85706002868724" fill-opacity="0" stroke="black" stroke-width="1" />
<path d="M15.79361829117718,-26.59073112719252 L16.14218215331475,-28.142939971312764 L0.0,-36.0" fill-opacity="0" stroke="black" stroke-width="1" />
<path d="M15.79361829117718,26.59073112719252 L16.14218215331475,28.142939971312764 L0.0,36.0" fill-opacity="0" stroke="black" stroke-width="1" />
<path d="M15.79361829117718,73.40926887280747 L16.14218215331475,71.85706002868724 L0.0,64.0" fill-opacity="0" stroke="black" stroke-width="1" />
<path d="M15.79361829117718,-73.40926887280747 L16.14218215331475,-71.85706002868724 L0.0,-64.0" fill-opacity="0" stroke="black" stroke-width="1" />
<path d="M14.0,-50.0 L16.831097276699868,-35.54387163887814 L18.015315974911072,-39.679945814623395" fill-opacity="0" stroke="black" stroke-width="1" />
<path d="M14.0,50.0 L16.831097276699868,35.54387163887814 L18.015315974911072,39.679945814623395" fill-opacity="0" stroke="black" stroke-width="1" />
<path d="M14.0,50.0 L16.831097276699868,64.45612836112187 L18.015315974911072,60.320054185376605" fill-opacity="0" stroke="black" stroke-width="1" />
<path d="M14.0,-50.0 L16.831097276699868,-64.45612836112187 L18.015315974911072,-60.320054185376605" fill-opacity="0" stroke="black" stroke-width="1" />
<path d="M16.831097276699868,-35.54387163887814 L18.015315974911072,-39.679945814623395 L21.0,-50.0" fill-opacity="0" stroke="black" stroke-width="1" />
<path d="M16.831097276699868,35.54387163887814 L18.015315974911072,39.679945814623395 L21.0,50.0" fill-opacity="0" stroke="black" stroke-width="1" />
<path d="M16.831097276699868,64.45612836112187 L18.015315974911072,60.320054185376605 L21.0,50.0" fill-opacity="0" stroke="black" stroke-width="1" />
<path d="M16.831097276699868,-64.45612836112187 L18.015315974911072,-60.320054185376605 L21.0,-50.0" fill-opacity="0" stroke="black" stroke-width="1" />
<path d="M21.0,-50.0 L21.784755954563153,-44.71359942477334 L29.0,-50.0" fill-opacity="0" stroke="black" stroke-width="1" />
<path d="M21.0,50.0 L21.784755954563153,44.71359942477334 L29.0,50.0" fill-opacity="0" stroke="black" stroke-width="1" />
<path d="M21.0,50.0 L21.784755954563153,55.28640057522666 L29.0,50.0" fill-opacity="0" stroke="black" stroke-width="1" />
<path d="M21.0,-50.0 L21.784755954563153,-55.28640057522666 L29.0,-50.0" fill-opacity="0" stroke="black" stroke-width="1" />
<path d="M29.0,-50.0 L33.589392938499394,-47.037473323030696 L37.0,-50.0" fill-opacity="0" stroke="black" stroke-width="1" />
<path d="M29.0,50.0 L33.589392938499394,47.037473323030696 L37.0,50.0" fill-opacity="0" stroke="black" stroke-width="1" />
<path d="M29.0,50.0 L33.589392938499394,52.962526676969304 L37.0,50.0" fill-opacity="0" stroke="black" stroke-width="1" />
<path d="M29.0,-50.0 L33.589392938499394,-52.962526676969304 L37.0,-50.0" fill-opacity="0" stroke="black" stroke-width="1" />
<path d="M50.0,-50.0 L42.219202890618654,-48.174934034903 L33.0,-33.0" fill-opacity="0" stroke="black" stroke-width="1" />
<path d="M50.0,50.0 L42.219202890618654,48.174934034903 L33.0,33.0" fill-opacity="0" stroke="black" stroke-width="1" />
<path d="M50.0,50.0 L42.219202890618654,51.825065965097 L33.0,67.0" fill-opacity="0" stroke="black" stroke-width="1" />
<path d="M50.0,-50.0 L42.219202890618654,-51.825065965097 L33.0,-67.0" fill-opacity="0" stroke="black" stroke-width="1" />
<path d="M10.0,-10.0 L1.8290497784616888,-6.183731036937834 L1.0059215512752213,-4.921381277306914" fill-opacity="0" stroke="black" stroke-width="1" />
<path d="M10.0,10.0 L1.8290497784616888,6.183731036937834 L1.0059215512752213,4.921381277306914" fill-opacity="0" stroke="black" stroke-width="1" />
<path d="M10.0,90.0 L1.8290497784616888,93.81626896306216 L1.0059215512752213,95.07861872269308" fill-opacity="0" stroke="black" stroke-width="1" />
<path d="M10.0,-90.0 L1.8290497784616888,-93.81626896306216 L1.0059215512752213,-95.07861872269308" fill-opacity="0" stroke="black" stroke-width="1" />
<path d="M1.8290497784616888,-6.183731036937834 L1.0059215512752213,-4.921381277306914 L0.7377169917524258,-3.66014528509252" fill-opacity="0" stroke="black" stroke-width="1" />
<path d="M1.8290497784616888,6.183731036937834 L1.0059215512752213,4.921381277306914 L0.7377169917524258,3.66014528509252" fill-opacity="0" stroke="black" stroke-width="1" />
<path d="M1.8290497784616888,93.81626896306216 L1.0059215512752213,95.07861872269308 L0.7377169917524258,96.33985471490749" fill-opacity="0" stroke="black" stroke-width="1" />
<path d="M1.8290497784616888,-93.81626896306216 L1.0059215512752213,-95.07861872269308 L0.7377169917524258,-96.33985471490749" fill-opacity="0" stroke="black" stroke-width="1" />
<path d="M1.0059215512752213,-4.921381277306914 L0.7377169917524258,-3.66014528509252 L0.0,-0.0" fill-opacity="0" stroke="black" stroke-width="1" />
<path d="M1.0059215512752213,4.921381277306914 L0.7377169917524258,3.66014528509252 L0.0,-0.0" fill-opacity="0" stroke="black" stroke-width="1" />
<path d="M1.0059215512752213,95.07861872269308 L0.7377169917524258,96.33985471490749 L0.0,100.0" fill-opacity="0" stroke="black" stroke-width="1" />
<path d="M1.0059215512752213,-95.07861872269308 L0.7377169917524258,-96.33985471490749 L0.0,-100.0" fill-opacity="0" stroke="black" stroke-width="1" />
<path d="M0.0,91.0 L-2.1038051140833818,89.7680776056964 L-2.1626698401983893,85.56011795291678" fill-opacity="0" stroke="black" stroke-width="1" />
<path d="M0.0,-9.0 L-2.1038051140833818,-10.231922394303593 L-2.1626698401983893,-14.43988204708322" fill-opacity="0" stroke="black" stroke-width="1" />
<path d="M0.0,9.0 L-2.1038051140833818,10.231922394303595 L-2.1626698401983893,14.439882047083216" fill-opacity="0" stroke="black" stroke-width="1" />
<path d="M0.0,-91.0 L-2.1038051140833818,-89.7680776056964 L-2.1626698401983893,-85.56011795291678" fill-opacity="0" stroke="black" stroke-width="1" />
<path d="M-2.1038051140833818,89.7680776056964 L-2.1626698401983893,85.56011795291678 L-2.835534073115187,83.99124280135928" fill-opacity="0" stroke="black" stroke-width="1" />
<path d="M-2.1038051140833818,-10.231922394303593 L-2.1626698401983893,-14.43988204708322 L-2.835534073115187,-16.008757198640723" fill-opacity="0" stroke="black" stroke-width="1" />
<path d="M-2.1038051140833818,10.231922394303595 L-2.1626698401983893,14.439882047083216 L-2.835534073115187,16.008757198640723" fill-opacity="0" stroke="black" stroke-width="1" />
<path d="M-2.1038051140833818,-89.7680776056964 L-2.1626698401983893,-85.56011795291678 L-2.835534073115187,-83.99124280135928" fill-opacity="0" stroke="black" stroke-width="1" />
<path d="M-2.1626698401983893,85.56011795291678 L-2.835534073115187,83.99124280135928 L-3.48812877431339,83.67028285769814" fill-opacity="0" stroke="black" stroke-width="1" />
<path d="M-2.1626698401983893,-14.43988204708322 L-2.835534073115187,-16.008757198640723 L-3.48812877431339,-16.32971714230186" fill-opacity="0" stroke="black" stroke-width="1" />
<path d="M-2.1626698401983893,14.439882047083216 L-2.835534073115187,16.008757198640723 L-3.48812877431339,16.32971714230186" fill-opacity="0" stroke="black" stroke-width="1" />
<path d="M-2.1626698401983893,-85.56011795291678 L-2.835534073115187,-83.99124280135928 L-3.48812877431339,-83.67028285769814" fill-opacity="0" stroke="black" stroke-width="1" />
<path d="M-2.835534073115187,83.99124280135928 L-3.48812877431339,83.67028285769814 L-5.513733352396095,83.2103335684281" fill-opacity="0" stroke="black" stroke-width="1" />
<path d="M-2.835534073115187,-16.008757198640723 L-3.48812877431339,-16.32971714230186 L-5.513733352396095,-16.78966643157191" fill-opacity="0" stroke="black" stroke-width="1" />
<path d="M-2.835534073115187,16.008757198640723 L-3.48812877431339,16.32971714230186 L-5.513733352396095,16.789666431571902" fill-opacity="0" stroke="black" stroke-width="1" />
<path d="M-2.835534073115187,-83.99124280135928 L-3.48812877431339,-83.67028285769814 L-5.513733352396095,-83.2103335684281" fill-opacity="0" stroke="black" stroke-width="1" />
<path d="M-3.48812877431339,83.67028285769814 L-5.513733352396095,83.2103335684281 L-6.133264428926094,80.46406102253742" fill-opacity="0" stroke="black" stroke-width="1" />
<path d="M-3.48812877431339,-16.32971714230186 L-5.513733352396095,-16.78966643157191 L-6.133264428926094,-19.53593897746258" fill-opacity="0" stroke="black" stroke-width="1" />
<path d="M-3.48812877431339,16.32971714230186 L-5.513733352396095,16.789666431571902 L-6.133264428926094,19.53593897746258" fill-opacity="0" stroke="black" stroke-width="1" />
<path d="M-3.48812877431339,-83.67028285769814 L-5.513733352396095,-83.2103335684281 L-6.133264428926094,-80.46406102253742" fill-opacity="0" stroke="black" stroke-width="1" />
<path d="M-5.513733352396095,83.2103335684281 L-6.133264428926094,80.46406102253742 L0.0,80.0" fill-opacity="0" stroke="black" stroke-width="1" />
<path d="M-5.513733352396095,-16.78966643157191 L-6.133264428926094,-19.53593897746258 L0.0,-20.0" fill-opacity="0" stroke="black" stroke-width="1" />
<path d="M-5.513733352396095,16.789666431571902 L-6.133264428926094,19.53593897746258 L0.0,20.0" fill-opacity="0" stroke="black" stroke-width="1" />
<path d="M-5.513733352396095,-83.2103335684281 L-6.133264428926094,-80.46406102253742 L0.0,-80.0" fill-opacity="0" stroke="black" stroke-width="1" />
<path d="M0.0,77.0 L-9.577061639905212,76.15273687234128 L-10.054135963314579,74.44936594369315" fill-opacity="0" stroke="black" stroke-width="1" />
<path d="M0.0,-23.0 L-9.577061639905212,-23.847263127658717 L-10.054135963314579,-25.550634056306855" fill-opacity="0" stroke="black" stroke-width="1" />
<path d="M0.0,23.0 L-9.577061639905212,23.84726312765872 L-10.054135963314579,25.550634056306848" fill-opacity="0" stroke="black" stroke-width="1" />
<path d="M0.0,-77.0 L-9.577061639905212,-76.15273687234128 L-10.054135963314579,-74.44936594369315" fill-opacity="0" stroke="black" stroke-width="1" />
<path d="M-9.577061639905212,76.15273687234128 L-10.054135963314579,74.44936594369315 L-10.489193588594853,73.80029123084446" fill-opacity="0" stroke="black" stroke-width="1" />
<path d="M-9.577061639905212,-23.847263127658717 L-10.054135963314579,-25.550634056306855 L-10.489193588594853,-26.199708769155528" fill-opacity="0" stroke="black" stroke-width="1" />
<path d="M-9.577061639905212,23.84726312765872 L-10.054135963314579,25.550634056306848 L-10.489193588594853,26.199708769155535" fill-opacity="0" stroke="black" stroke-width="1" />
<path d="M-9.577061639905212,-76.15273687234128 L-10.054135963314579,-74.44936594369315 L-10.489193588594853,-73.80029123084446" fill-opacity="0" stroke="black" stroke-width="1" />
<path d="M-10.054135963314579,74.44936594369315 L-10.489193588594853,73.80029123084446 L-15.79361829117718,73.40926887280747" fill-opacity="0" stroke="black" stroke-width="1" />
<path d="M-10.054135963314579,-25.550634056306855 L-10.489193588594853,-26.199708769155528 L-15.79361829117718,-26.59073112719252" fill-opacity="0" stroke="black" stroke-width="1" />
<path d="M-10.054135963314579,25.550634056306848 L-10.489193588594853,26.199708769155535 L-15.79361829117718,26.590731127192527" fill-opacity="0" stroke="black" stroke-width="1" />
<path d="M-10.054135963314579,-74.44936594369315 L-10.489193588594853,-73.80029123084446 L-15.79361829117718,-73.40926887280747" fill-opacity="0" stroke="black" stroke-width="1" />
<path d="M-10.489193588594853,73.80029123084446 L-15.79361829117718,73.40926887280747 L-16.14218215331475,71.85706002868724" fill-opacity="0" stroke="black" stroke-width="1" />
<path d="M-10.489193588594853,-26.199708769155528 L-15.79361829117718,-26.59073112719252 L-16.14218215331475,-28.142939971312764" fill-opacity="0" stroke="black" stroke-width="1" />
<path d="M-10.489193588594853,26.199708769155535 L-15.79361829117718,26.590731127192527 L-16.14218215331475,28.142939971312757" fill-opacity="0" stroke="black" stroke-width="1" />
<path d="M-10.489193588594853,-73.80029123084446 L-15.79361829117718,-73.40926887280747 L-16.14218215331475,-71.85706002868724" fill-opacity="0" stroke="black" stroke-width="1" />
<path d="M-15.79361829117718,73.40926887280747 L-16.14218215331475,71.85706002868724 L0.0,64.0" fill-opacity="0" stroke="black" stroke-width="1" />
<path d="M-15.79361829117718,-26.59073112719252 L-16.14218215331475,-28.142939971312764 L0.0,-36.0" fill-opacity="0" stroke="black" stroke-width="1" />
<path d="M-15.79361829117718,26.590731127192527 L-16.14218215331475,28.142939971312757 L0.0,36.0" fill-opacity="0" stroke="black" stroke-width="1" />
<path d="M-15.79361829117718,-73.40926887280747 L-16.14218215331475,-71.85706002868724 L0.0,-64.0" fill-opacity="0" stroke="black" stroke-width="1" />
<path d="M-14.0,50.0 L-16.831097276699868,64.45612836112187 L-18.015315974911072,60.320054185376605" fill-opacity="0" stroke="black" stroke-width="1" />
<path d="M-14.0,-50.0 L-16.831097276699868,-35.54387163887814 L-18.015315974911072,-39.679945814623395" fill-opacity="0" stroke="black" stroke-width="1" />
<path d="M-14.0,50.0 L-16.831097276699868,35.54387163887813 L-18.015315974911072,39.679945814623395" fill-opacity="0" stroke="black" stroke-width="1" />
<path d="M-14.0,-50.0 L-16.831097276699868,-64.45612836112187 L-18.015315974911072,-60.320054185376605" fill-opacity="0" stroke="black" stroke-width="1" />
<path d="M-16.831097276699868,64.45612836112187 L-18.015315974911072,60.320054185376605 L-21.0,50.0" fill-opacity="0" stroke="black" stroke-width="1" />
<path d="M-16.831097276699868,-35.54387163887814 L-18.015315974911072,-39.679945814623395 L-21.0,-50.0" fill-opacity="0" stroke="black" stroke-width="1" />
<path d="M-16.831097276699868,35.54387163887813 L-18.015315974911072,39.679945814623395 L-21.0,50.0" fill-opacity="0" stroke="black" stroke-width="1" />
<path d="M-16.831097276699868,-64.45612836112187 L-18.015315974911072,-60.320054185376605 L-21.0,-50.0" fill-opacity="0" stroke="black" stroke-width="1" />
<path d="M-21.0,50.0 L-21.784755954563153,55.28640057522666 L-29.0,50.0" fill-opacity="0" stroke="black" stroke-width="1" />
<path d="M-21.0,-50.0 L-21.784755954563153,-44.71359942477334 L-29.0,-50.0" fill-opacity="0" stroke="black" stroke-width="1" />
<path d="M-21.0,50.0 L-21.784755954563153,44.71359942477334 L-29.0,50.0" fill-opacity="0" stroke="black" stroke-width="1" />
<path d="M-21.0,-50.0 L-21.784755954563153,-55.28640057522666 L-29.0,-50.0" fill-opacity="0" stroke="black" stroke-width="1" />
<path d="M-29.0,50.0 L-33.589392938499394,52.962526676969304 L-37.0,50.0" fill-opacity="0" stroke="black" stroke-width="1" />
<path d="M-29.0,-50.0 L-33.589392938499394,-47.037473323030696 L-37.0,-50.0" fill-opacity="0" stroke="black" stroke-width="1" />
<path d="M-29.0,50.0 L-33.589392938499394,47.037473323030696 L-37.0,50.0" fill-opacity="0" stroke="black" stroke-width="1" />
<path d="M-29.0,-50.0 L-33.589392938499394,-52.962526676969304 L-37.0,-50.0" fill-opacity="0" stroke="black" stroke-width="1" />
<path d="M-50.0,50.0 L-42.219202890618654,51.825065965097 L-33.0,67.0" fill-opacity="0" stroke="black" stroke-width="1" />
<path d="M-50.0,-50.0 L-42.219202890618654,-48.174934034903 L-33.0,-33.0" fill-opacity="0" stroke="black" stroke-width="1" />
<path d="M-50.0,50.0 L-42.219202890618654,48.174934034903 L-33.0,33.0" fill-opacity="0" stroke="black" stroke-width="1" />
<path d="M-50.0,-50.0 L-42.219202890618654,-51.825065965097 L-33.0,-67.0" fill-opacity="0" stroke="black" stroke-width="1" />
<path d="M-10.0,90.0 L-1.8290497784616888,93.81626896306217 L-1.0059215512752213,95.07861872269308" fill-opacity="0" stroke="black" stroke-width="1" />
<path d="M-10.0,-10.0 L-1.8290497784616888,-6.183731036937834 L-1.0059215512752213,-4.921381277306914" fill-opacity="0" stroke="black" stroke-width="1" />
<path d="M-10.0,10.0 L-1.8290497784616888,6.183731036937829 L-1.0059215512752213,4.921381277306921" fill-opacity="0" stroke="black" stroke-width="1" />
<path d="M-10.0,-90.0 L-1.8290497784616888,-93.81626896306216 L-1.0059215512752213,-95.07861872269308" fill-opacity="0" stroke="black" stroke-width="1" />
<path d="M-1.8290497784616888,93.81626896306217 L-1.0059215512752213,95.07861872269308 L-0.7377169917524258,96.33985471490747" fill-opacity="0" stroke="black" stroke-width="1" />
<path d="M-1.8290497784616888,-6.183731036937834 L-1.0059215512752213,-4.921381277306914 L-0.7377169917524258,-3.66014528509252" fill-opacity="0" stroke="black" stroke-width="1" />
<path d="M-1.8290497784616888,6.183731036937829 L-1.0059215512752213,4.921381277306921 L-0.7377169917524258,3.6601452850925256" fill-opacity="0" stroke="black" stroke-width="1" />
<path d="M-1.8290497784616888,-93.81626896306216 L-1.0059215512752213,-95.07861872269308 L-0.7377169917524258,-96.33985471490749" fill-opacity="0" stroke="black" stroke-width="1" />
<path d="M-1.0059215512752213,95.07861872269308 L-0.7377169917524258,96.33985471490747 L0.0,100.0" fill-opacity="0" stroke="black" stroke-width="1" />
<path d="M-1.0059215512752213,-4.921381277306914 L-0.7377169917524258,-3.66014528509252 L0.0,-0.0" fill-opacity="0" stroke="black" stroke-width="1" />
<path d="M-1.0059215512752213,4.921381277306921 L-0.7377169917524258,3.6601452850925256 L0.0,-0.0" fill-opacity="0" stroke="black" stroke-width="1" />
<path d="M-1.0059215512752213,-95.07861872269308 L-0.7377169917524258,-96.33985471490749 L0.0,-100.0" fill-opacity="0" stroke="black" stroke-width="1" />
<path d="M-91.0,-0.0 L-89.7680776056964,-2.1038051140833818 L-85.56011795291678,-2.1626698401983893" fill-opacity="0" stroke="black" stroke-width="1" />
<path d="M-91.0,-0.0 L-89.7680776056964,2.1038051140833818 L-85.56011795291678,2.1626698401983893" fill-opacity="0" stroke="black" stroke-width="1" />
<path d="M-89.7680776056964,-2.1038051140833818 L-85.56011795291678,-2.1626698401983893 L-83.99124280135928,-2.835534073115187" fill-opacity="0" stroke="black" stroke-width="1" />
<path d="M-89.7680776056964,2.1038051140833818 L-85.56011795291678,2.1626698401983893 L-83.99124280135928,2.835534073115187" fill-opacity="0" stroke="black" stroke-width="1" />
<path d="M-85.56011795291678,-2.1626698401983893 L-83.99124280135928,-2.835534073115187 L-83.67028285769814,-3.48812877431339" fill-opacity="0" stroke="black" stroke-width="1" />
<path d="M-85.56011795291678,2.1626698401983893 L-83.99124280135928,2.835534073115187 L-83.67028285769814,3.48812877431339" fill-opacity="0" stroke="black" stroke-width="1" />
<path d="M-83.99124280135928,-2.835534073115187 L-83.67028285769814,-3.48812877431339 L-83.2103335684281,-5.513733352396095" fill-opacity="0" stroke="black" stroke-width="1" />
<path d="M-83.99124280135928,2.835534073115187 L-83.67028285769814,3.48812877431339 L-83.2103335684281,5.513733352396095" fill-opacity="0" stroke="black" stroke-width="1" />
<path d="M-83.67028285769814,-3.48812877431339 L-83.2103335684281,-5.513733352396095 L-80.46406102253742,-6.133264428926094" fill-opacity="0" stroke="black" stroke-width="1" />
<path d="M-83.67028285769814,3.48812877431339 L-83.2103335684281,5.513733352396095 L-80.46406102253742,6.133264428926094" fill-opacity="0" stroke="black" stroke-width="1" />
<path d="M-83.2103335684281,-5.513733352396095 L-80.46406102253742,-6.133264428926094 L-80.0,-0.0" fill-opacity="0" stroke="black" stroke-width="1" />
<path d="M-83.2103335684281,5.513733352396095 L-80.46406102253742,6.133264428926094 L-80.0,-0.0" fill-opacity="0" stroke="black" stroke-width="1" />
<path d="M-77.0,-0.0 L-76.15273687234128,-9.577061639905212 L-74.44936594369315,-10.054135963314579" fill-opacity="0" stroke="black" stroke-width="1" />
<path d="M-77.0,-0.0 L-76.15273687234128,9.577061639905212 L-74.44936594369315,10.054135963314579" fill-opacity="0" stroke="black" stroke-width="1" />
<path d="M-76.15273687234128,-9.577061639905212 L-74.44936594369315,-10.054135963314579 L-73.80029123084446,-10.489193588594853" fill-opacity="0" stroke="black" stroke-width="1" />
<path d="M-76.15273687234128,9.577061639905212 L-74.44936594369315,10.054135963314579 L-73.80029123084446,10.489193588594853" fill-opacity="0" stroke="black" stroke-width="1" />
<path d="M-74.44936594369315,-10.054135963314579 L-73.80029123084446,-10.489193588594853 L-73.40926887280747,-15.79361829117718" fill-opacity="0" stroke="black" stroke-width="1" />
<path d="M-74.44936594369315,10.054135963314579 L-73.80029123084446,10.489193588594853 L-73.40926887280747,15.79361829117718" fill-opacity="0" stroke="black" stroke-width="1" />
<path d="M-73.80029123084446,-10.489193588594853 L-73.40926887280747,-15.79361829117718 L-71.85706002868724,-16.14218215331475" fill-opacity="0" stroke="black" stroke-width="1" />
<path d="M-73.80029123084446,10.489193588594853 L-73.40926887280747,15.79361829117718 L-71.85706002868724,16.14218215331475" fill-opacity="0" stroke="black" stroke-width="1" />
<path d="M-73.40926887280747,-15.79361829117718 L-71.85706002868724,-16.14218215331475 L-64.0,-0.0" fill-opacity="0" stroke="black" stroke-width="1" />
<path d="M-73.40926887280747,15.79361829117718 L-71.85706002868724,16.14218215331475 L-64.0,-0.0" fill-opacity="0" stroke="black" stroke-width="1" />
<path d="M-50.0,-14.0 L-64.45612836112187,-16.831097276699868 L-60.320054185376605,-18.015315974911072" fill-opacity="0" stroke="black" stroke-width="1" />
<path d="M-50.0,14.0 L-64.45612836112187,16.831097276699868 L-60.320054185376605,18.015315974911072" fill-opacity="0" stroke="black" stroke-width="1" />
<path d="M-64.45612836112187,-16.831097276699868 L-60.320054185376605,-18.015315974911072 L-50.0,-21.0" fill-opacity="0" stroke="black" stroke-width="1" />
<path d="M-64.45612836112187,16.831097276699868 L-60.320054185376605,18.015315974911072 L-50.0,21.0" fill-opacity="0" stroke="black" stroke-width="1" />
<path d="M-50.0,-21.0 L-55.28640057522666,-21.784755954563153 L-50.0,-29.0" fill-opacity="0" stroke="black" stroke-width="1" />
<path d="M-50.0,21.0 L-55.28640057522666,21.784755954563153 L-50.0,29.0" fill-opacity="0" stroke="black" stroke-width="1" />
<path d="M-50.0,-29.0 L-52.962526676969304,-33.589392938499394 L-50.0,-37.0" fill-opacity="0" stroke="black" stroke-width="1" />
<path d="M-50.0,29.0 L-52.962526676969304,33.589392938499394 L-50.0,37.0" fill-opacity="0" stroke="black" stroke-width="1" />
<path d="M-50.0,-50.0 L-51.825065965097,-42.219202890618654 L-67.0,-33.0" fill-opacity="0" stroke="black" stroke-width="1" />
<path d="M-50.0,50.0 L-51.825065965097,42.219202890618654 L-67.0,33.0" fill-opacity="0" stroke="black" stroke-width="1" />
<path d="M-51.825065965097,-42.219202890618654 L-67.0,-33.0 L-69.0,-31.0" fill-opacity="0" stroke="black" stroke-width="1" />
<path d="M-51.825065965097,42.219202890618654 L-67.0,33.0 L-69.0,31.0" fill-opacity="0" stroke="black" stroke-width="1" />
<path d="M-67.0,-33.0 L-69.0,-31.0 L-76.0,-24.0" fill-opacity="0" stroke="black" stroke-width="1" />
<path d="M-67.0,33.0 L-69.0,31.0 L-76.0,24.0" fill-opacity="0" stroke="black" stroke-width="1" />
<path d="M-69.0,-31.0 L-76.0,-24.0 L-81.0,-19.0" fill-opacity="0" stroke="black" stroke-width="1" />
<path d="M-69.0,31.0 L-76.0,24.0 L-81.0,19.0" fill-opacity="0" stroke="black" stroke-width="1" />
<path d="M-76.0,-24.0 L-81.0,-19.0 L-87.0,-13.0" fill-opacity="0" stroke="black" stroke-width="1" />
<path d="M-76.0,24.0 L-81.0,19.0 L-87.0,13.0" fill-opacity="0" stroke="black" stroke-width="1" />
<path d="M-81.0,-19.0 L-87.0,-13.0 L-89.0,-11.0" fill-opacity="0" stroke="black" stroke-width="1" />
<path d="M-81.0,19.0 L-87.0,13.0 L-89.0,11.0" fill-opacity="0" stroke="black" stroke-width="1" />
<path d="M-87.0,-13.0 L-89.0,-11.0 L-90.0,-10.0" fill-opacity="0" stroke="black" stroke-width="1" />
<path d="M-87.0,13.0 L-89.0,11.0 L-90.0,10.0" fill-opacity="0" stroke="black" stroke-width="1" />
<path d="M-89.0,-11.0 L-90.0,-10.0 L-93.81626896306216,-1.8290497784616888" fill-opacity="0" stroke="black" stroke-width="1" />
<path d="M-89.0,11.0 L-90.0,10.0 L-93.81626896306216,1.8290497784616888" fill-opacity="0" stroke="black" stroke-width="1" />
<path d="M-90.0,-10.0 L-93.81626896306216,-1.8290497784616888 L-95.07861872269308,-1.0059215512752213" fill-opacity="0" stroke="black" stroke-width="1" />
<path d="M-90.0,10.0 L-93.81626896306216,1.8290497784616888 L-95.07861872269308,1.0059215512752213" fill-opacity="0" stroke="black" stroke-width="1" />
<path d="M-93.81626896306216,-1.8290497784616888 L-95.07861872269308,-1.0059215512752213 L-96.33985471490749,-0.7377169917524258" fill-opacity="0" stroke="black" stroke-width="1" />
<path d="M-93.81626896306216,1.8290497784616888 L-95.07861872269308,1.0059215512752213 L-96.33985471490749,0.7377169917524258" fill-opacity="0" stroke="black" stroke-width="1" />
<path d="M-95.07861872269308,-1.0059215512752213 L-96.33985471490749,-0.7377169917524258 L-100.0,-0.0" fill-opacity="0" stroke="black" stroke-width="1" />
<path d="M-95.07861872269308,1.0059215512752213 L-96.33985471490749,0.7377169917524258 L-100.0,-0.0" fill-opacity="0" stroke="black" stroke-width="1" />
</svg>