<?xml version="1.0" encoding="UTF-8"?>
<svg xmlns="http://www.w3.org/2000/svg" xmlns:xlink="http://www.w3.org/1999/xlink"
     width="250" height="250" viewBox="-125.0 -125.0 250 250">
<defs>
</defs>
<path d="M6.0,-0.0 L8.422724831258643,-0.1472932818461975 L10.0,-0.0" fill="blue" fill-opacity="0.6" stroke="black" stroke-width="1" />
<path d="M6.0,-0.0 L8.422724831258643,0.1472932818461975 L10.0,-0.0" fill="brown" fill-opacity="0.6" stroke="black" stroke-width="1" />
<path d="M12.0,-0.0 L17.897516106385062,-7.352025708017368 L19.0,-0.0" fill="pink" fill-opacity="0.6" stroke="black" stroke-width="1" />
<path d="M12.0,-0.0 L17.897516106385062,7.352025708017368 L19.0,-0.0" fill="blue" fill-opacity="0.6" stroke="black" stroke-width="1" />
<path d="M26.0,-0.0 L33.69048078898669,-13.832034827788759 L38.0,-0.0" fill="blue" fill-opacity="0.6" stroke="black" stroke-width="1" />
<path d="M26.0,-0.0 L33.69048078898669,13.832034827788759 L38.0,-0.0" fill="brown" fill-opacity="0.6" stroke="black" stroke-width="1" />
<path d="M50.0,-1.0 L33.88936601181343,-25.100944588309055 L50.0,-26.0" fill="blue" fill-opacity="0.6" stroke="black" stroke-width="1" />
<path d="M50.0,1.0 L33.88936601181343,25.100944588309055 L50.0,26.0" fill="pink" fill-opacity="0.6" stroke="black" stroke-width="1" />
<path d="M50.0,-36.0 L49.664049307667376,-37.11543130918662 L50.0,-42.0" fill="red" fill-opacity="0.6" stroke="black" stroke-width="1" />
<path d="M50.0,36.0 L49.664049307667376,37.11543130918662 L50.0,42.0" fill="brown" fill-opacity="0.6" stroke="black" stroke-width="1" />
<path d="M49.0,51.0 L43.0,57.0 L39.0,61.0" fill="purple" fill-opacity="0.6" stroke="black" stroke-width="1" />
<path d="M49.0,-51.0 L43.0,-57.0 L39.0,-61.0" fill="brown" fill-opacity="0.6" stroke="black" stroke-width="1" />
<path d="M43.0,57.0 L39.0,61.0 L30.0,70.0" fill="purple" fill-opacity="0.6" stroke="black" stroke-width="1" />
<path d="M43.0,-57.0 L39.0,-61.0 L30.0,-70.0" fill="blue" fill-opacity="0.6" stroke="black" stroke-width="1" />
<path d="M39.0,61.0 L30.0,70.0 L13.0,87.0" fill="blue" fill-opacity="0.6" stroke="black" stroke-width="1" />
<path d="M39.0,-61.0 L30.0,-70.0 L13.0,-87.0" fill="blue" fill-opacity="0.6" stroke="black" stroke-width="1" />
<path d="M30.0,70.0 L13.0,87.0 L3.7702334026375053,88.47996256510817" fill="yellow" fill-opacity="0.6" stroke="black" stroke-width="1" />
<path d="M30.0,-70.0 L13.0,-87.0 L3.7702334026375053,-88.47996256510817" fill="yellow" fill-opacity="0.6" stroke="black" stroke-width="1" />
<path d="M13.0,-13.0 L11.520037434891838,-3.7702334026375053 L7.0,-7.0" fill="red" fill-opacity="0.6" stroke="black" stroke-width="1" />
<path d="M13.0,13.0 L11.520037434891838,3.7702334026375053 L7.0,7.0" fill="yellow" fill-opacity="0.6" stroke="black" stroke-width="1" />
<path d="M3.7702334026375053,88.47996256510817 L7.0,93.0 L0.0,100.0" fill="yellow" fill-opacity="0.6" stroke="black" stroke-width="1" />
<path d="M3.7702334026375053,-88.47996256510817 L7.0,-93.0 L0.0,-100.0" fill="black" fill-opacity="0.6" stroke="black" stroke-width="1" />
<path d="M-6.0,-0.0 L-8.422724831258643,-0.1472932818461975 L-10.0,-0.0" fill="pink" fill-opacity="0.6" stroke="black" stroke-width="1" />
<path d="M-6.0,-0.0 L-8.422724831258643,0.1472932818461975 L-10.0,-0.0" fill="black" fill-opacity="0.6" stroke="black" stroke-width="1" />
<path d="M-12.0,-0.0 L-17.897516106385062,-7.352025708017368 L-19.0,-0.0" fill="blue" fill-opacity="0.6" stroke="black" stroke-width="1" />
<path d="M-12.0,-0.0 L-17.897516106385062,7.352025708017368 L-19.0,-0.0" fill="yellow" fill-opacity="0.6" stroke="black" stroke-width="1" />
<path d="M-26.0,-0.0 L-33.69048078898669,-13.832034827788759 L-38.0,-0.0" fill="blue" fill-opacity="0.6" stroke="black" stroke-width="1" />
<path d="M-26.0,-0.0 L-33.69048078898669,13.832034827788759 L-38.0,-0.0" fill="pink" fill-opacity="0.6" stroke="black" stroke-width="1" />
<path d="M-50.0,-1.0 L-33.88936601181343,-25.100944588309055 L-50.0,-26.0" fill="black" fill-opacity="0.6" stroke="black" stroke-width="1" />
<path d="M-50.0,1.0 L-33.88936601181343,25.100944588309055 L-50.0,26.0" fill="purple" fill-opacity="0.6" stroke="black" stroke-width="1" />
<path d="M-50.0,-36.0 L-49.664049307667376,-37.11543130918662 L-50.0,-42.0" fill="yellow" fill-opacity="0.6" stroke="black" stroke-width="1" />
<path d="M-50.0,36.0 L-49.664049307667376,37.11543130918662 L-50.0,42.0" fill="orange" fill-opacity="0.6" stroke="black" stroke-width="1" />
<path d="M-49.0,51.0 L-43.0,57.0 L-39.0,61.0" fill="purple" fill-opacity="0.6" stroke="black" stroke-width="1" />
<path d="M-49.0,-51.0 L-43.0,-57.0 L-39.0,-61.0" fill="blue" fill-opacity="0.6" stroke="black" stroke-width="1" />
<path d="M-43.0,57.0 L-39.0,61.0 L-30.0,70.0" fill="black" fill-opacity="0.6" stroke="black" stroke-width="1" />
<path d="M-43.0,-57.0 L-39.0,-61.0 L-30.0,-70.0" fill="black" fill-opacity="0.6" stroke="black" stroke-width="1" />
<path d="M-39.0,61.0 L-30.0,70.0 L-13.0,87.0" fill="green" fill-opacity="0.6" stroke="black" stroke-width="1" />
<path d="M-39.0,-61.0 L-30.0,-70.0 L-13.0,-87.0" fill="black" fill-opacity="0.6" stroke="black" stroke-width="1" />
<path d="M-30.0,70.0 L-13.0,87.0 L-3.7702334026375053,88.47996256510817" fill="black" fill-opacity="0.6" stroke="black" stroke-width="1" />
<path d="M-30.0,-70.0 L-13.0,-87.0 L-3.7702334026375053,-88.47996256510817" fill="yellow" fill-opacity="0.6" stroke="black" stroke-width="1" />
<path d="M-13.0,-13.0 L-11.520037434891838,-3.7702334026375053 L-7.0,-7.0" fill="black" fill-opacity="0.6" stroke="black" stroke-width="1" />
<path d="M-13.0,13.0 L-11.520037434891838,3.7702334026375053 L-7.0,7.0" fill="brown" fill-opacity="0.6" stroke="black" stroke-width="1" />
<path d="M-3.7702334026375053,88.47996256510817 L-7.0,93.0 L0.0,100.0" fill="blue" fill-opacity="0.6" stroke="black" stroke-width="1" />
<path d="M-3.7702334026375053,-88.47996256510817 L-7.0,-93.0 L0.0,-100.0" fill="blue" fill-opacity="0.6" stroke="black" stroke-width="1" />
<path d="M94.0,-0.0 L91.57727516874135,0.1472932818461975 L90.0,-0.0" fill="red" fill-opacity="0.6" stroke="black" stroke-width="1" />
<path d="M94.0,-0.0 L91.57727516874135,-0.1472932818461975 L90.0,-0.0" fill="brown" fill-opacity="0.6" stroke="black" stroke-width="1" />
<path d="M88.0,-0.0 L82.10248389361493,7.352025708017368 L81.0,-0.0" fill="yellow" fill-opacity="0.6" stroke="black" stroke-width="1" />
<path d="M88.0,-0.0 L82.10248389361493,-7.352025708017368 L81.0,-0.0" fill="blue" fill-opacity="0.6" stroke="black" stroke-width="1" />
<path d="M74.0,-0.0 L66.30951921101331,13.832034827788759 L62.0,-0.0" fill="purple" fill-opacity="0.6" stroke="black" stroke-width="1" />
<path d="M74.0,-0.0 L66.30951921101331,-13.832034827788759 L62.0,-0.0" fill="brown" fill-opacity="0.6" stroke="black" stroke-width="1" />
<path d="M50.0,1.0 L66.11063398818658,25.100944588309055 L50.0,26.0" fill="black" fill-opacity="0.6" stroke="black" stroke-width="1" />
<path d="M50.0,-1.0 L66.11063398818658,-25.100944588309055 L50.0,-26.0" fill="green" fill-opacity="0.6" stroke="black" stroke-width="1" />
<path d="M50.0,36.0 L50.335950692332624,37.11543130918662 L50.0,42.0" fill="green" fill-opacity="0.6" stroke="black" stroke-width="1" />
<path d="M50.0,-36.0 L50.335950692332624,-37.11543130918662 L50.0,-42.0" fill="brown" fill-opacity="0.6" stroke="black" stroke-width="1" />
<path d="M51.0,49.0 L57.0,43.0 L61.0,39.0" fill="brown" fill-opacity="0.6" stroke="black" stroke-width="1" />
<path d="M51.0,-49.0 L57.0,-43.0 L61.0,-39.0" fill="green" fill-opacity="0.6" stroke="black" stroke-width="1" />
<path d="M57.0,43.0 L61.0,39.0 L70.0,30.0" fill="yellow" fill-opacity="0.6" stroke="black" stroke-width="1" />
<path d="M57.0,-43.0 L61.0,-39.0 L70.0,-30.0" fill="yellow" fill-opacity="0.6" stroke="black" stroke-width="1" />
<path d="M61.0,39.0 L70.0,30.0 L87.0,13.0" fill="purple" fill-opacity="0.6" stroke="black" stroke-width="1" />
<path d="M61.0,-39.0 L70.0,-30.0 L87.0,-13.0" fill="yellow" fill-opacity="0.6" stroke="black" stroke-width="1" />
<path d="M70.0,30.0 L87.0,13.0 L88.47996256510817,3.7702334026375053" fill="purple" fill-opacity="0.6" stroke="black" stroke-width="1" />
<path d="M70.0,-30.0 L87.0,-13.0 L88.47996256510817,-3.7702334026375053" fill="blue" fill-opacity="0.6" stroke="black" stroke-width="1" />
<path d="M87.0,13.0 L88.47996256510817,3.7702334026375053 L93.0,7.0" fill="pink" fill-opacity="0.6" stroke="black" stroke-width="1" />
<path d="M87.0,-13.0 L88.47996256510817,-3.7702334026375053 L93.0,-7.0" fill="yellow" fill-opacity="0.6" stroke="black" stroke-width="1" />
<path d="M88.47996256510817,3.7702334026375053 L93.0,7.0 L100.0,-0.0" fill="pink" fill-opacity="0.6" stroke="black" stroke-width="1" />
<path d="M88.47996256510817,-3.7702334026375053 L93.0,-7.0 L100.0,-0.0" fill="yellow" fill-opacity="0.6" stroke="black" stroke-width="1" />
<path d="M0.0,-6.0 L0.1472932818461975,-8.422724831258643 L0.0,-10.0" fill="green" fill-opacity="0.6" stroke="black" stroke-width="1" />
<path d="M0.0,6.0 L0.1472932818461975,8.422724831258643 L0.0,10.0" fill="pink" fill-opacity="0.6" stroke="black" stroke-width="1" />
<path d="M0.0,94.0 L0.1472932818461975,91.57727516874135 L0.0,90.0" fill="pink" fill-opacity="0.6" stroke="black" stroke-width="1" />
<path d="M0.0,-94.0 L0.1472932818461975,-91.57727516874135 L0.0,-90.0" fill="orange" fill-opacity="0.6" stroke="black" stroke-width="1" />
<path d="M0.0,-12.0 L7.352025708017368,-17.897516106385062 L0.0,-19.0" fill="yellow" fill-opacity="0.6" stroke="black" stroke-width="1" />
<path d="M0.0,12.0 L7.352025708017368,17.897516106385062 L0.0,19.0" fill="orange" fill-opacity="0.6" stroke="black" stroke-width="1" />
<path d="M0.0,88.0 L7.352025708017368,82.10248389361493 L0.0,81.0" fill="purple" fill-opacity="0.6" stroke="black" stroke-width="1" />
<path d="M0.0,-88.0 L7.352025708017368,-82.10248389361493 L0.0,-81.0" fill="yellow" fill-opacity="0.6" stroke="black" stroke-width="1" />
<path d="M0.0,-26.0 L13.832034827788759,-33.69048078898669 L0.0,-38.0" fill="purple" fill-opacity="0.6" stroke="black" stroke-width="1" />
<path d="M0.0,26.0 L13.832034827788759,33.69048078898669 L0.0,38.0" fill="blue" fill-opacity="0.6" stroke="black" stroke-width="1" />
<path d="M0.0,74.0 L13.832034827788759,66.30951921101331 L0.0,62.0" fill="blue" fill-opacity="0.6" stroke="black" stroke-width="1" />
<path d="M0.0,-74.0 L13.832034827788759,-66.30951921101331 L0.0,-62.0" fill="pink" fill-opacity="0.6" stroke="black" stroke-width="1" />
<path d="M1.0,-50.0 L25.100944588309055,-33.88936601181343 L26.0,-50.0" fill="black" fill-opacity="0.6" stroke="black" stroke-width="1" />
<path d="M1.0,50.0 L25.100944588309055,33.88936601181343 L26.0,50.0" fill="blue" fill-opacity="0.6" stroke="black" stroke-width="1" />
<path d="M1.0,50.0 L25.100944588309055,66.11063398818658 L26.0,50.0" fill="orange" fill-opacity="0.6" stroke="black" stroke-width="1" />
<path d="M1.0,-50.0 L25.100944588309055,-66.11063398818658 L26.0,-50.0" fill="red" fill-opacity="0.6" stroke="black" stroke-width="1" />
<path d="M36.0,-50.0 L37.11543130918662,-49.664049307667376 L42.0,-50.0" fill="pink" fill-opacity="0.6" stroke="black" stroke-width="1" />
<path d="M36.0,50.0 L37.11543130918662,49.664049307667376 L42.0,50.0" fill="brown" fill-opacity="0.6" stroke="black" stroke-width="1" />
<path d="M36.0,50.0 L37.11543130918662,50.335950692332624 L42.0,50.0" fill="blue" fill-opacity="0.6" stroke="black" stroke-width="1" />
<path d="M36.0,-50.0 L37.11543130918662,-50.335950692332624 L42.0,-50.0" fill="pink" fill-opacity="0.6" stroke="black" stroke-width="1" />
<path d="M13.0,-13.0 L3.7702334026375053,-11.520037434891838 L7.0,-7.0" fill="black" fill-opacity="0.6" stroke="black" stroke-width="1" />
<path d="M13.0,13.0 L3.7702334026375053,11.520037434891838 L7.0,7.0" fill="yellow" fill-opacity="0.6" stroke="black" stroke-width="1" />
<path d="M13.0,87.0 L3.7702334026375053,88.47996256510817 L7.0,93.0" fill="brown" fill-opacity="0.6" stroke="black" stroke-width="1" />
<path d="M13.0,-87.0 L3.7702334026375053,-88.47996256510817 L7.0,-93.0" fill="orange" fill-opacity="0.6" stroke="black" stroke-width="1" />
<path d="M0.0,94.0 L-0.1472932818461975,91.57727516874135 L0.0,90.0" fill="pink" fill-opacity="0.6" stroke="black" stroke-width="1" />
<path d="M0.0,-6.0 L-0.1472932818461975,-8.422724831258643 L0.0,-10.0" fill="red" fill-opacity="0.6" stroke="black" stroke-width="1" />
<path d="M0.0,6.0 L-0.1472932818461975,8.422724831258648 L0.0,10.0" fill="red" fill-opacity="0.6" stroke="black" stroke-width="1" />
<path d="M0.0,-94.0 L-0.1472932818461975,-91.57727516874135 L0.0,-90.0" fill="yellow" fill-opacity="0.6" stroke="black" stroke-width="1" />
<path d="M0.0,88.0 L-7.352025708017368,82.10248389361493 L0.0,81.0" fill="orange" fill-opacity="0.6" stroke="black" stroke-width="1" />
<path d="M0.0,-12.0 L-7.352025708017368,-17.897516106385062 L0.0,-19.0" fill="green" fill-opacity="0.6" stroke="black" stroke-width="1" />
<path d="M0.0,12.0 L-7.352025708017368,17.89751610638507 L0.0,19.0" fill="yellow" fill-opacity="0.6" stroke="black" stroke-width="1" />
<path d="M0.0,-88.0 L-7.352025708017368,-82.10248389361493 L0.0,-81.0" fill="black" fill-opacity="0.6" stroke="black" stroke-width="1" />
<path d="M0.0,74.0 L-13.832034827788759,66.30951921101331 L0.0,62.0" fill="red" fill-opacity="0.6" stroke="black" stroke-width="1" />
<path d="M0.0,-26.0 L-13.832034827788759,-33.69048078898669 L0.0,-38.0" fill="yellow" fill-opacity="0.6" stroke="black" stroke-width="1" />
<path d="M0.0,26.0 L-13.832034827788759,33.69048078898669 L0.0,38.0" fill="red" fill-opacity="0.6" stroke="black" stroke-width="1" />
<path d="M0.0,-74.0 L-13.832034827788759,-66.30951921101331 L0.0,-62.0" fill="black" fill-opacity="0.6" stroke="black" stroke-width="1" />
<path d="M-1.0,50.0 L-25.100944588309055,66.11063398818658 L-26.0,50.0" fill="purple" fill-opacity="0.6" stroke="black" stroke-width="1" />
<path d="M-1.0,-50.0 L-25.100944588309055,-33.88936601181343 L-26.0,-50.0" fill="pink" fill-opacity="0.6" stroke="black" stroke-width="1" />
<path d="M-1.0,50.0 L-25.100944588309055,33.88936601181342 L-26.0,50.0" fill="orange" fill-opacity="0.6" stroke="black" stroke-width="1" />
<path d="M-1.0,-50.0 L-25.100944588309055,-66.11063398818658 L-26.0,-50.0" fill="red" fill-opacity="0.6" stroke="black" stroke-width="1" />
<path d="M-36.0,50.0 L-37.11543130918662,50.335950692332624 L-42.0,50.0" fill="pink" fill-opacity="0.6" stroke="black" stroke-width="1" />
<path d="M-36.0,-50.0 L-37.11543130918662,-49.664049307667376 L-42.0,-50.0" fill="brown" fill-opacity="0.6" stroke="black" stroke-width="1" />
<path d="M-36.0,50.0 L-37.11543130918662,49.664049307667376 L-42.0,50.0" fill="red" fill-opacity="0.6" stroke="black" stroke-width="1" />
<path d="M-36.0,-50.0 L-37.11543130918662,-50.335950692332624 L-42.0,-50.0" fill="green" fill-opacity="0.6" stroke="black" stroke-width="1" />
<path d="M-13.0,87.0 L-3.7702334026375053,88.47996256510817 L-7.0,93.0" fill="black" fill-opacity="0.6" stroke="black" stroke-width="1" />
<path d="M-13.0,-13.0 L-3.7702334026375053,-11.520037434891838 L-7.0,-7.0" fill="green" fill-opacity="0.6" stroke="black" stroke-width="1" />
<path d="M-13.0,13.0 L-3.7702334026375053,11.520037434891833 L-7.0,7.0" fill="red" fill-opacity="0.6" stroke="black" stroke-width="1" />
<path d="M-13.0,-87.0 L-3.7702334026375053,-88.47996256510817 L-7.0,-93.0" fill="blue" fill-opacity="0.6" stroke="black" stroke-width="1" />
<path d="M-94.0,-0.0 L-91.57727516874135,-0.1472932818461975 L-90.0,-0.0" fill="brown" fill-opacity="0.6" stroke="black" stroke-width="1" />
<path d="M-94.0,-0.0 L-91.57727516874135,0.1472932818461975 L-90.0,-0.0" fill="yellow" fill-opacity="0.6" stroke="black" stroke-width="1" />
<path d="M-88.0,-0.0 L-82.10248389361493,-7.352025708017368 L-81.0,-0.0" fill="orange" fill-opacity="0.6" stroke="black" stroke-width="1" />
<path d="M-88.0,-0.0 L-82.10248389361493,7.352025708017368 L-81.0,-0.0" fill="blue" fill-opacity="0.6" stroke="black" stroke-width="1" />
<path d="M-74.0,-0.0 L-66.30951921101331,-13.832034827788759 L-62.0,-0.0" fill="purple" fill-opacity="0.6" stroke="black" stroke-width="1" />
<path d="M-74.0,-0.0 L-66.30951921101331,13.832034827788759 L-62.0,-0.0" fill="yellow" fill-opacity="0.6" stroke="black" stroke-width="1" />
<path d="M-50.0,-1.0 L-66.11063398818658,-25.100944588309055 L-50.0,-26.0" fill="brown" fill-opacity="0.6" stroke="black" stroke-width="1" />
<path d="M-50.0,1.0 L-66.11063398818658,25.100944588309055 L-50.0,26.0" fill="green" fill-opacity="0.6" stroke="black" stroke-width="1" />
<path d="M-50.0,-36.0 L-50.335950692332624,-37.11543130918662 L-50.0,-42.0" fill="orange" fill-opacity="0.6" stroke="black" stroke-width="1" />
<path d="M-50.0,36.0 L-50.335950692332624,37.11543130918662 L-50.0,42.0" fill="purple" fill-opacity="0.6" stroke="black" stroke-width="1" />
<path d="M-51.0,-49.0 L-57.0,-43.0 L-61.0,-39.0" fill="pink" fill-opacity="0.6" stroke="black" stroke-width="1" />
<path d="M-51.0,49.0 L-57.0,43.0 L-61.0,39.0" fill="blue" fill-opacity="0.6" stroke="black" stroke-width="1" />
<path d="M-57.0,-43.0 L-61.0,-39.0 L-70.0,-30.0" fill="brown" fill-opacity="0.6" stroke="black" stroke-width="1" />
<path d="M-57.0,43.0 L-61.0,39.0 L-70.0,30.0" fill="green" fill-opacity="0.6" stroke="black" stroke-width="1" />
<path d="M-61.0,-39.0 L-70.0,-30.0 L-87.0,-13.0" fill="yellow" fill-opacity="0.6" stroke="black" stroke-width="1" />
<path d="M-61.0,39.0 L-70.0,30.0 L-87.0,13.0" fill="brown" fill-opacity="0.6" stroke="black" stroke-width="1" />
<path d="M-70.0,-30.0 L-87.0,-13.0 L-88.47996256510817,-3.7702334026375053" fill="green" fill-opacity="0.6" stroke="black" stroke-width="1" />
<path d="M-70.0,30.0 L-87.0,13.0 L-88.47996256510817,3.7702334026375053" fill="black" fill-opacity="0.6" stroke="black" stroke-width="1" />
<path d="M-87.0,-13.0 L-88.47996256510817,-3.7702334026375053 L-93.0,-7.0" fill="green" fill-opacity="0.6" stroke="black" stroke-width="1" />
<path d="M-87.0,13.0 L-88.47996256510817,3.7702334026375053 L-93.0,7.0" fill="orange" fill-opacity="0.6" stroke="black" stroke-width="1" />
<path d="M-88.47996256510817,-3.7702334026375053 L-93.0,-7.0 L-100.0,-0.0" fill="red" fill-opacity="0.6" stroke="black" stroke-width="1" />
<path d="M-88.47996256510817,3.7702334026375053 L-93.0,7.0 L-100.0,-0.0" fill="pink" fill-opacity="0.6" stroke="black" stroke-width="1" />
</svg>