<?xml version="1.0" encoding="UTF-8"?>
<svg xmlns="http://www.w3.org/2000/svg" xmlns:xlink="http://www.w3.org/1999/xlink"
     width="250" height="250" viewBox="-125.0 -125.0 250 250">
<defs>
</defs>
<path d="M5.0,-0.0 L21.07893974610563,-8.029349651417212 L23.35493546794944,-8.474988738317368" fill="purple" fill-opacity="0.6" stroke="black" stroke-width="1" />
<path d="M5.0,-0.0 L21.07893974610563,8.029349651417212 L23.35493546794944,8.474988738317368" fill="orange" fill-opacity="0.6" stroke="black" stroke-width="1" />
<path d="M21.07893974610563,-8.029349651417212 L23.35493546794944,-8.474988738317368 L24.0,-0.0" fill="blue" fill-opacity="0.6" stroke="black" stroke-width="1" />
<path d="M21.07893974610563,8.029349651417212 L23.35493546794944,8.474988738317368 L24.0,-0.0" fill="brown" fill-opacity="0.6" stroke="black" stroke-width="1" />
<path d="M24.0,-0.0 L26.218183461473092,-10.273081507338011 L26.882420539381663,-11.24694303037671" fill="green" fill-opacity="0.6" stroke="black" stroke-width="1" />
<path d="M24.0,-0.0 L26.218183461473092,10.273081507338011 L26.882420539381663,11.24694303037671" fill="brown" fill-opacity="0.6" stroke="black" stroke-width="1" />
<path d="M26.218183461473092,-10.273081507338011 L26.882420539381663,-11.24694303037671 L27.0,-0.0" fill="black" fill-opacity="0.6" stroke="black" stroke-width="1" />
<path d="M26.218183461473092,10.273081507338011 L26.882420539381663,11.24694303037671 L27.0,-0.0" fill="orange" fill-opacity="0.6" stroke="black" stroke-width="1" />
<path d="M30.0,-0.0 L34.40651076597173,-11.58904785139023 L50.0,-8.0" fill="orange" fill-opacity="0.6" stroke="black" stroke-width="1" />
<path d="M30.0,-0.0 L34.40651076597173,11.58904785139023 L50.0,8.0" fill="yellow" fill-opacity="0.6" stroke="black" stroke-width="1" />
<path d="M50.0,-18.0 L35.38853808539427,-22.610261979648534 L41.696202236009995,-23.548677500180787" fill="blue" fill-opacity="0.6" stroke="black" stroke-width="1" />
<path d="M50.0,18.0 L35.38853808539427,22.610261979648534 L41.696202236009995,23.548677500180787" fill="pink" fill-opacity="0.6" stroke="black" stroke-width="1" />
<path d="M35.38853808539427,-22.610261979648534 L41.696202236009995,-23.548677500180787 L43.85925244713866,-24.471652862072478" fill="green" fill-opacity="0.6" stroke="black" stroke-width="1" />
<path d="M35.38853808539427,22.610261979648534 L41.696202236009995,23.548677500180787 L43.85925244713866,24.471652862072478" fill="blue" fill-opacity="0.6" stroke="black" stroke-width="1" />
<path d="M41.696202236009995,-23.548677500180787 L43.85925244713866,-24.471652862072478 L44.20051763761916,-27.74166859048678" fill="orange" fill-opacity="0.6" stroke="black" stroke-width="1" />
<path d="M41.696202236009995,23.548677500180787 L43.85925244713866,24.471652862072478 L44.20051763761916,27.74166859048678" fill="green" fill-opacity="0.6" stroke="black" stroke-width="1" />
<path d="M43.85925244713866,-24.471652862072478 L44.20051763761916,-27.74166859048678 L46.06530711161174,-30.88757837327622" fill="green" fill-opacity="0.6" stroke="black" stroke-width="1" />
<path d="M43.85925244713866,24.471652862072478 L44.20051763761916,27.74166859048678 L46.06530711161174,30.88757837327622" fill="purple" fill-opacity="0.6" stroke="black" stroke-width="1" />
<path d="M44.20051763761916,-27.74166859048678 L46.06530711161174,-30.88757837327622 L47.0487414981894,-35.824227436581815" fill="pink" fill-opacity="0.6" stroke="black" stroke-width="1" />
<path d="M44.20051763761916,27.74166859048678 L46.06530711161174,30.88757837327622 L47.0487414981894,35.824227436581815" fill="brown" fill-opacity="0.6" stroke="black" stroke-width="1" />
<path d="M46.06530711161174,-30.88757837327622 L47.0487414981894,-35.824227436581815 L47.10943632988986,-36.317718667172386" fill="black" fill-opacity="0.6" stroke="black" stroke-width="1" />
<path d="M46.06530711161174,30.88757837327622 L47.0487414981894,35.824227436581815 L47.10943632988986,36.317718667172386" fill="black" fill-opacity="0.6" stroke="black" stroke-width="1" />
<path d="M47.0487414981894,-35.824227436581815 L47.10943632988986,-36.317718667172386 L50.0,-38.0" fill="purple" fill-opacity="0.6" stroke="black" stroke-width="1" />
<path d="M47.0487414981894,35.824227436581815 L47.10943632988986,36.317718667172386 L50.0,38.0" fill="yellow" fill-opacity="0.6" stroke="black" stroke-width="1" />
<path d="M50.0,-38.0 L48.97771591315283,-40.732163512732114 L49.0,-49.0" fill="blue" fill-opacity="0.6" stroke="black" stroke-width="1" />
<path d="M50.0,38.0 L48.97771591315283,40.732163512732114 L49.0,49.0" fill="pink" fill-opacity="0.6" stroke="black" stroke-width="1" />
<path d="M40.732163512732114,51.02228408684717 L49.0,51.0 L41.0,59.0" fill="yellow" fill-opacity="0.6" stroke="black" stroke-width="1" />
<path d="M40.732163512732114,-51.02228408684717 L49.0,-51.0 L41.0,-59.0" fill="yellow" fill-opacity="0.6" stroke="black" stroke-width="1" />
<path d="M49.0,51.0 L41.0,59.0 L37.0,63.0" fill="red" fill-opacity="0.6" stroke="black" stroke-width="1" />
<path d="M49.0,-51.0 L41.0,-59.0 L37.0,-63.0" fill="red" fill-opacity="0.6" stroke="black" stroke-width="1" />
<path d="M41.0,59.0 L37.0,63.0 L21.0,79.0" fill="yellow" fill-opacity="0.6" stroke="black" stroke-width="1" />
<path d="M41.0,-59.0 L37.0,-63.0 L21.0,-79.0" fill="green" fill-opacity="0.6" stroke="black" stroke-width="1" />
<path d="M37.0,63.0 L21.0,79.0 L6.740327148925685,88.98648687997759" fill="orange" fill-opacity="0.6" stroke="black" stroke-width="1" />
<path d="M37.0,-63.0 L21.0,-79.0 L6.740327148925685,-88.98648687997759" fill="green" fill-opacity="0.6" stroke="black" stroke-width="1" />
<path d="M21.0,-21.0 L11.013513120022406,-6.740327148925685 L8.19653845427586,-5.465585479707903" fill="red" fill-opacity="0.6" stroke="black" stroke-width="1" />
<path d="M21.0,21.0 L11.013513120022406,6.740327148925685 L8.19653845427586,5.465585479707903" fill="red" fill-opacity="0.6" stroke="black" stroke-width="1" />
<path d="M11.013513120022406,-6.740327148925685 L8.19653845427586,-5.465585479707903 L5.368820375522049,-5.0243634344571655" fill="brown" fill-opacity="0.6" stroke="black" stroke-width="1" />
<path d="M11.013513120022406,6.740327148925685 L8.19653845427586,5.465585479707903 L5.368820375522049,5.0243634344571655" fill="brown" fill-opacity="0.6" stroke="black" stroke-width="1" />
<path d="M8.19653845427586,-5.465585479707903 L5.368820375522049,-5.0243634344571655 L3.376610589381496,-1.1391980640208144" fill="black" fill-opacity="0.6" stroke="black" stroke-width="1" />
<path d="M8.19653845427586,5.465585479707903 L5.368820375522049,5.0243634344571655 L3.376610589381496,1.1391980640208144" fill="purple" fill-opacity="0.6" stroke="black" stroke-width="1" />
<path d="M5.368820375522049,-5.0243634344571655 L3.376610589381496,-1.1391980640208144 L3.3299093586601827,-1.102365167370042" fill="blue" fill-opacity="0.6" stroke="black" stroke-width="1" />
<path d="M5.368820375522049,5.0243634344571655 L3.376610589381496,1.1391980640208144 L3.3299093586601827,1.102365167370042" fill="blue" fill-opacity="0.6" stroke="black" stroke-width="1" />
<path d="M3.376610589381496,-1.1391980640208144 L3.3299093586601827,-1.102365167370042 L1.013250978703939,-0.36166549683146215" fill="red" fill-opacity="0.6" stroke="black" stroke-width="1" />
<path d="M3.376610589381496,1.1391980640208144 L3.3299093586601827,1.102365167370042 L1.013250978703939,0.36166549683146215" fill="brown" fill-opacity="0.6" stroke="black" stroke-width="1" />
<path d="M3.3299093586601827,-1.102365167370042 L1.013250978703939,-0.36166549683146215 L0.0,-0.0" fill="yellow" fill-opacity="0.6" stroke="black" stroke-width="1" />
<path d="M3.3299093586601827,1.102365167370042 L1.013250978703939,0.36166549683146215 L0.0,-0.0" fill="green" fill-opacity="0.6" stroke="black" stroke-width="1" />
<path d="M-5.0,-0.0 L-21.07893974610563,-8.029349651417212 L-23.35493546794944,-8.474988738317368" fill="purple" fill-opacity="0.6" stroke="black" stroke-width="1" />
<path d="M-5.0,-0.0 L-21.07893974610563,8.029349651417212 L-23.35493546794944,8.474988738317368" fill="red" fill-opacity="0.6" stroke="black" stroke-width="1" />
<path d="M-21.07893974610563,-8.029349651417212 L-23.35493546794944,-8.474988738317368 L-24.0,-0.0" fill="green" fill-opacity="0.6" stroke="black" stroke-width="1" />
<path d="M-21.07893974610563,8.029349651417212 L-23.35493546794944,8.474988738317368 L-24.0,-0.0" fill="green" fill-opacity="0.6" stroke="black" stroke-width="1" />
<path d="M-24.0,-0.0 L-26.218183461473092,-10.273081507338011 L-26.882420539381663,-11.24694303037671" fill="yellow" fill-opacity="0.6" stroke="black" stroke-width="1" />
<path d="M-24.0,-0.0 L-26.218183461473092,10.273081507338011 L-26.882420539381663,11.24694303037671" fill="black" fill-opacity="0.6" stroke="black" stroke-width="1" />
<path d="M-26.218183461473092,-10.273081507338011 L-26.882420539381663,-11.24694303037671 L-27.0,-0.0" fill="red" fill-opacity="0.6" stroke="black" stroke-width="1" />
<path d="M-26.218183461473092,10.273081507338011 L-26.882420539381663,11.24694303037671 L-27.0,-0.0" fill="yellow" fill-opacity="0.6" stroke="black" stroke-width="1" />
<path d="M-30.0,-0.0 L-34.40651076597173,-11.58904785139023 L-50.0,-8.0" fill="purple" fill-opacity="0.6" stroke="black" stroke-width="1" />
<path d="M-30.0,-0.0 L-34.40651076597173,11.58904785139023 L-50.0,8.0" fill="brown" fill-opacity="0.6" stroke="black" stroke-width="1" />
<path d="M-50.0,-18.0 L-35.38853808539427,-22.610261979648534 L-41.696202236009995,-23.548677500180787" fill="red" fill-opacity="0.6" stroke="black" stroke-width="1" />
<path d="M-50.0,18.0 L-35.38853808539427,22.610261979648534 L-41.696202236009995,23.548677500180787" fill="green" fill-opacity="0.6" stroke="black" stroke-width="1" />
<path d="M-35.38853808539427,-22.610261979648534 L-41.696202236009995,-23.548677500180787 L-43.85925244713866,-24.471652862072478" fill="orange" fill-opacity="0.6" stroke="black" stroke-width="1" />
<path d="M-35.38853808539427,22.610261979648534 L-41.696202236009995,23.548677500180787 L-43.85925244713866,24.471652862072478" fill="green" fill-opacity="0.6" stroke="black" stroke-width="1" />
<path d="M-41.696202236009995,-23.548677500180787 L-43.85925244713866,-24.471652862072478 L-44.20051763761916,-27.74166859048678" fill="black" fill-opacity="0.6" stroke="black" stroke-width="1" />
<path d="M-41.696202236009995,23.548677500180787 L-43.85925244713866,24.471652862072478 L-44.20051763761916,27.74166859048678" fill="green" fill-opacity="0.6" stroke="black" stroke-width="1" />
<path d="M-43.85925244713866,-24.471652862072478 L-44.20051763761916,-27.74166859048678 L-46.06530711161174,-30.88757837327622" fill="blue" fill-opacity="0.6" stroke="black" stroke-width="1" />
<path d="M-43.85925244713866,24.471652862072478 L-44.20051763761916,27.74166859048678 L-46.06530711161174,30.88757837327622" fill="yellow" fill-opacity="0.6" stroke="black" stroke-width="1" />
<path d="M-44.20051763761916,-27.74166859048678 L-46.06530711161174,-30.88757837327622 L-47.0487414981894,-35.824227436581815" fill="orange" fill-opacity="0.6" stroke="black" stroke-width="1" />
<path d="M-44.20051763761916,27.74166859048678 L-46.06530711161174,30.88757837327622 L-47.0487414981894,35.824227436581815" fill="blue" fill-opacity="0.6" stroke="black" stroke-width="1" />
<path d="M-46.06530711161174,-30.88757837327622 L-47.0487414981894,-35.824227436581815 L-47.10943632988986,-36.317718667172386" fill="blue" fill-opacity="0.6" stroke="black" stroke-width="1" />
<path d="M-46.06530711161174,30.88757837327622 L-47.0487414981894,35.824227436581815 L-47.10943632988986,36.317718667172386" fill="orange" fill-opacity="0.6" stroke="black" stroke-width="1" />
<path d="M-47.0487414981894,-35.824227436581815 L-47.10943632988986,-36.317718667172386 L-50.0,-38.0" fill="purple" fill-opacity="0.6" stroke="black" stroke-width="1" />
<path d="M-47.0487414981894,35.824227436581815 L-47.10943632988986,36.317718667172386 L-50.0,38.0" fill="brown" fill-opacity="0.6" stroke="black" stroke-width="1" />
<path d="M-50.0,-38.0 L-48.97771591315283,-40.732163512732114 L-49.0,-49.0" fill="green" fill-opacity="0.6" stroke="black" stroke-width="1" />
<path d="M-50.0,38.0 L-48.97771591315283,40.732163512732114 L-49.0,49.0" fill="purple" fill-opacity="0.6" stroke="black" stroke-width="1" />
<path d="M-40.732163512732114,51.02228408684717 L-49.0,51.0 L-41.0,59.0" fill="red" fill-opacity="0.6" stroke="black" stroke-width="1" />
<path d="M-40.732163512732114,-51.02228408684717 L-49.0,-51.0 L-41.0,-59.0" fill="orange" fill-opacity="0.6" stroke="black" stroke-width="1" />
<path d="M-49.0,51.0 L-41.0,59.0 L-37.0,63.0" fill="red" fill-opacity="0.6" stroke="black" stroke-width="1" />
<path d="M-49.0,-51.0 L-41.0,-59.0 L-37.0,-63.0" fill="orange" fill-opacity="0.6" stroke="black" stroke-width="1" />
<path d="M-41.0,59.0 L-37.0,63.0 L-21.0,79.0" fill="purple" fill-opacity="0.6" stroke="black" stroke-width="1" />
<path d="M-41.0,-59.0 L-37.0,-63.0 L-21.0,-79.0" fill="black" fill-opacity="0.6" stroke="black" stroke-width="1" />
<path d="M-37.0,63.0 L-21.0,79.0 L-6.740327148925685,88.98648687997759" fill="purple" fill-opacity="0.6" stroke="black" stroke-width="1" />
<path d="M-37.0,-63.0 L-21.0,-79.0 L-6.740327148925685,-88.98648687997759" fill="brown" fill-opacity="0.6" stroke="black" stroke-width="1" />
<path d="M-21.0,-21.0 L-11.013513120022406,-6.740327148925685 L-8.19653845427586,-5.465585479707903" fill="pink" fill-opacity="0.6" stroke="black" stroke-width="1" />
<path d="M-21.0,21.0 L-11.013513120022406,6.740327148925685 L-8.19653845427586,5.465585479707903" fill="yellow" fill-opacity="0.6" stroke="black" stroke-width="1" />
<path d="M-11.013513120022406,-6.740327148925685 L-8.19653845427586,-5.465585479707903 L-5.368820375522049,-5.0243634344571655" fill="green" fill-opacity="0.6" stroke="black" stroke-width="1" />
<path d="M-11.013513120022406,6.740327148925685 L-8.19653845427586,5.465585479707903 L-5.368820375522049,5.0243634344571655" fill="pink" fill-opacity="0.6" stroke="black" stroke-width="1" />
<path d="M-8.19653845427586,-5.465585479707903 L-5.368820375522049,-5.0243634344571655 L-3.376610589381496,-1.1391980640208144" fill="pink" fill-opacity="0.6" stroke="black" stroke-width="1" />
<path d="M-8.19653845427586,5.465585479707903 L-5.368820375522049,5.0243634344571655 L-3.376610589381496,1.1391980640208144" fill="brown" fill-opacity="0.6" stroke="black" stroke-width="1" />
<path d="M-5.368820375522049,-5.0243634344571655 L-3.376610589381496,-1.1391980640208144 L-3.3299093586601827,-1.102365167370042" fill="yellow" fill-opacity="0.6" stroke="black" stroke-width="1" />
<path d="M-5.368820375522049,5.0243634344571655 L-3.376610589381496,1.1391980640208144 L-3.3299093586601827,1.102365167370042" fill="yellow" fill-opacity="0.6" stroke="black" stroke-width="1" />
<path d="M-3.376610589381496,-1.1391980640208144 L-3.3299093586601827,-1.102365167370042 L-1.013250978703939,-0.36166549683146215" fill="orange" fill-opacity="0.6" stroke="black" stroke-width="1" />
<path d="M-3.376610589381496,1.1391980640208144 L-3.3299093586601827,1.102365167370042 L-1.013250978703939,0.36166549683146215" fill="blue" fill-opacity="0.6" stroke="black" stroke-width="1" />
<path d="M-3.3299093586601827,-1.102365167370042 L-1.013250978703939,-0.36166549683146215 L0.0,-0.0" fill="purple" fill-opacity="0.6" stroke="black" stroke-width="1" />
<path d="M-3.3299093586601827,1.102365167370042 L-1.013250978703939,0.36166549683146215 L0.0,-0.0" fill="green" fill-opacity="0.6" stroke="black" stroke-width="1" />
<path d="M95.0,-0.0 L78.92106025389437,8.029349651417212 L76.64506453205055,8.474988738317368" fill="brown" fill-opacity="0.6" stroke="black" stroke-width="1" />
<path d="M95.0,-0.0 L78.92106025389437,-8.029349651417212 L76.64506453205055,-8.474988738317368" fill="blue" fill-opacity="0.6" stroke="black" stroke-width="1" />
<path d="M78.92106025389437,8.029349651417212 L76.64506453205055,8.474988738317368 L76.0,-0.0" fill="brown" fill-opacity="0.6" stroke="black" stroke-width="1" />
<path d="M78.92106025389437,-8.029349651417212 L76.64506453205055,-8.474988738317368 L76.0,-0.0" fill="orange" fill-opacity="0.6" stroke="black" stroke-width="1" />
<path d="M76.0,-0.0 L73.78181653852691,10.273081507338011 L73.11757946061834,11.24694303037671" fill="brown" fill-opacity="0.6" stroke="black" stroke-width="1" />
<path d="M76.0,-0.0 L73.78181653852691,-10.273081507338011 L73.11757946061834,-11.24694303037671" fill="yellow" fill-opacity="0.6" stroke="black" stroke-width="1" />
<path d="M73.78181653852691,10.273081507338011 L73.11757946061834,11.24694303037671 L73.0,-0.0" fill="green" fill-opacity="0.6" stroke="black" stroke-width="1" />
<path d="M73.78181653852691,-10.273081507338011 L73.11757946061834,-11.24694303037671 L73.0,-0.0" fill="black" fill-opacity="0.6" stroke="black" stroke-width="1" />
<path d="M70.0,-0.0 L65.59348923402827,11.58904785139023 L50.0,8.0" fill="pink" fill-opacity="0.6" stroke="black" stroke-width="1" />
<path d="M70.0,-0.0 L65.59348923402827,-11.58904785139023 L50.0,-8.0" fill="black" fill-opacity="0.6" stroke="black" stroke-width="1" />
<path d="M50.0,18.0 L64.61146191460573,22.610261979648534 L58.303797763990005,23.548677500180787" fill="purple" fill-opacity="0.6" stroke="black" stroke-width="1" />
<path d="M50.0,-18.0 L64.61146191460573,-22.610261979648534 L58.303797763990005,-23.548677500180787" fill="green" fill-opacity="0.6" stroke="black" stroke-width="1" />
<path d="M64.61146191460573,22.610261979648534 L58.303797763990005,23.548677500180787 L56.14074755286134,24.471652862072478" fill="orange" fill-opacity="0.6" stroke="black" stroke-width="1" />
<path d="M64.61146191460573,-22.610261979648534 L58.303797763990005,-23.548677500180787 L56.14074755286134,-24.471652862072478" fill="black" fill-opacity="0.6" stroke="black" stroke-width="1" />
<path d="M58.303797763990005,23.548677500180787 L56.14074755286134,24.471652862072478 L55.79948236238084,27.74166859048678" fill="yellow" fill-opacity="0.6" stroke="black" stroke-width="1" />
<path d="M58.303797763990005,-23.548677500180787 L56.14074755286134,-24.471652862072478 L55.79948236238084,-27.74166859048678" fill="blue" fill-opacity="0.6" stroke="black" stroke-width="1" />
<path d="M56.14074755286134,24.471652862072478 L55.79948236238084,27.74166859048678 L53.93469288838826,30.88757837327622" fill="orange" fill-opacity="0.6" stroke="black" stroke-width="1" />
<path d="M56.14074755286134,-24.471652862072478 L55.79948236238084,-27.74166859048678 L53.93469288838826,-30.88757837327622" fill="blue" fill-opacity="0.6" stroke="black" stroke-width="1" />
<path d="M55.79948236238084,27.74166859048678 L53.93469288838826,30.88757837327622 L52.9512585018106,35.824227436581815" fill="black" fill-opacity="0.6" stroke="black" stroke-width="1" />
<path d="M55.79948236238084,-27.74166859048678 L53.93469288838826,-30.88757837327622 L52.9512585018106,-35.824227436581815" fill="brown" fill-opacity="0.6" stroke="black" stroke-width="1" />
<path d="M53.93469288838826,30.88757837327622 L52.9512585018106,35.824227436581815 L52.89056367011014,36.317718667172386" fill="orange" fill-opacity="0.6" stroke="black" stroke-width="1" />
<path d="M53.93469288838826,-30.88757837327622 L52.9512585018106,-35.824227436581815 L52.89056367011014,-36.317718667172386" fill="orange" fill-opacity="0.6" stroke="black" stroke-width="1" />
<path d="M52.9512585018106,35.824227436581815 L52.89056367011014,36.317718667172386 L50.0,38.0" fill="black" fill-opacity="0.6" stroke="black" stroke-width="1" />
<path d="M52.9512585018106,-35.824227436581815 L52.89056367011014,-36.317718667172386 L50.0,-38.0" fill="yellow" fill-opacity="0.6" stroke="black" stroke-width="1" />
<path d="M50.0,38.0 L51.02228408684717,40.732163512732114 L51.0,49.0" fill="black" fill-opacity="0.6" stroke="black" stroke-width="1" />
<path d="M50.0,-38.0 L51.02228408684717,-40.732163512732114 L51.0,-49.0" fill="brown" fill-opacity="0.6" stroke="black" stroke-width="1" />
<path d="M51.02228408684717,40.732163512732114 L51.0,49.0 L59.0,41.0" fill="green" fill-opacity="0.6" stroke="black" stroke-width="1" />
<path d="M51.02228408684717,-40.732163512732114 L51.0,-49.0 L59.0,-41.0" fill="orange" fill-opacity="0.6" stroke="black" stroke-width="1" />
<path d="M51.0,49.0 L59.0,41.0 L63.0,37.0" fill="green" fill-opacity="0.6" stroke="black" stroke-width="1" />
<path d="M51.0,-49.0 L59.0,-41.0 L63.0,-37.0" fill="pink" fill-opacity="0.6" stroke="black" stroke-width="1" />
<path d="M59.0,41.0 L63.0,37.0 L79.0,21.0" fill="pink" fill-opacity="0.6" stroke="black" stroke-width="1" />
<path d="M59.0,-41.0 L63.0,-37.0 L79.0,-21.0" fill="green" fill-opacity="0.6" stroke="black" stroke-width="1" />
<path d="M63.0,37.0 L79.0,21.0 L88.98648687997759,6.740327148925685" fill="purple" fill-opacity="0.6" stroke="black" stroke-width="1" />
<path d="M63.0,-37.0 L79.0,-21.0 L88.98648687997759,-6.740327148925685" fill="orange" fill-opacity="0.6" stroke="black" stroke-width="1" />
<path d="M79.0,21.0 L88.98648687997759,6.740327148925685 L91.80346154572413,5.465585479707903" fill="green" fill-opacity="0.6" stroke="black" stroke-width="1" />
<path d="M79.0,-21.0 L88.98648687997759,-6.740327148925685 L91.80346154572413,-5.465585479707903" fill="orange" fill-opacity="0.6" stroke="black" stroke-width="1" />
<path d="M88.98648687997759,6.740327148925685 L91.80346154572413,5.465585479707903 L94.63117962447795,5.0243634344571655" fill="pink" fill-opacity="0.6" stroke="black" stroke-width="1" />
<path d="M88.98648687997759,-6.740327148925685 L91.80346154572413,-5.465585479707903 L94.63117962447795,-5.0243634344571655" fill="purple" fill-opacity="0.6" stroke="black" stroke-width="1" />
<path d="M91.80346154572413,5.465585479707903 L94.63117962447795,5.0243634344571655 L96.6233894106185,1.1391980640208144" fill="orange" fill-opacity="0.6" stroke="black" stroke-width="1" />
<path d="M91.80346154572413,-5.465585479707903 L94.63117962447795,-5.0243634344571655 L96.6233894106185,-1.1391980640208144" fill="orange" fill-opacity="0.6" stroke="black" stroke-width="1" />
<path d="M94.63117962447795,5.0243634344571655 L96.6233894106185,1.1391980640208144 L96.67009064133981,1.102365167370042" fill="orange" fill-opacity="0.6" stroke="black" stroke-width="1" />
<path d="M94.63117962447795,-5.0243634344571655 L96.6233894106185,-1.1391980640208144 L96.67009064133981,-1.102365167370042" fill="blue" fill-opacity="0.6" stroke="black" stroke-width="1" />
<path d="M96.6233894106185,1.1391980640208144 L96.67009064133981,1.102365167370042 L98.98674902129606,0.36166549683146215" fill="blue" fill-opacity="0.6" stroke="black" stroke-width="1" />
<path d="M96.6233894106185,-1.1391980640208144 L96.67009064133981,-1.102365167370042 L98.98674902129606,-0.36166549683146215" fill="brown" fill-opacity="0.6" stroke="black" stroke-width="1" />
<path d="M96.67009064133981,1.102365167370042 L98.98674902129606,0.36166549683146215 L100.0,-0.0" fill="red" fill-opacity="0.6" stroke="black" stroke-width="1" />
<path d="M96.67009064133981,-1.102365167370042 L98.98674902129606,-0.36166549683146215 L100.0,-0.0" fill="purple" fill-opacity="0.6" stroke="black" stroke-width="1" />
<path d="M0.0,-5.0 L8.029349651417212,-21.07893974610563 L8.474988738317368,-23.35493546794944" fill="black" fill-opacity="0.6" stroke="black" stroke-width="1" />
<path d="M0.0,5.0 L8.029349651417212,21.07893974610563 L8.474988738317368,23.35493546794944" fill="purple" fill-opacity="0.6" stroke="black" stroke-width="1" />
<path d="M0.0,95.0 L8.029349651417212,78.92106025389437 L8.474988738317368,76.64506453205055" fill="green" fill-opacity="0.6" stroke="black" stroke-width="1" />
<path d="M0.0,-95.0 L8.029349651417212,-78.92106025389437 L8.474988738317368,-76.64506453205055" fill="yellow" fill-opacity="0.6" stroke="black" stroke-width="1" />
<path d="M8.029349651417212,-21.07893974610563 L8.474988738317368,-23.35493546794944 L0.0,-24.0" fill="brown" fill-opacity="0.6" stroke="black" stroke-width="1" />
<path d="M8.029349651417212,21.07893974610563 L8.474988738317368,23.35493546794944 L0.0,24.0" fill="red" fill-opacity="0.6" stroke="black" stroke-width="1" />
<path d="M8.029349651417212,78.92106025389437 L8.474988738317368,76.64506453205055 L0.0,76.0" fill="brown" fill-opacity="0.6" stroke="black" stroke-width="1" />
<path d="M8.029349651417212,-78.92106025389437 L8.474988738317368,-76.64506453205055 L0.0,-76.0" fill="yellow" fill-opacity="0.6" stroke="black" stroke-width="1" />
<path d="M0.0,-24.0 L10.273081507338011,-26.218183461473092 L11.24694303037671,-26.882420539381663" fill="purple" fill-opacity="0.6" stroke="black" stroke-width="1" />
<path d="M0.0,24.0 L10.273081507338011,26.218183461473092 L11.24694303037671,26.882420539381663" fill="purple" fill-opacity="0.6" stroke="black" stroke-width="1" />
<path d="M0.0,76.0 L10.273081507338011,73.78181653852691 L11.24694303037671,73.11757946061834" fill="red" fill-opacity="0.6" stroke="black" stroke-width="1" />
<path d="M0.0,-76.0 L10.273081507338011,-73.78181653852691 L11.24694303037671,-73.11757946061834" fill="yellow" fill-opacity="0.6" stroke="black" stroke-width="1" />
<path d="M10.273081507338011,-26.218183461473092 L11.24694303037671,-26.882420539381663 L0.0,-27.0" fill="black" fill-opacity="0.6" stroke="black" stroke-width="1" />
<path d="M10.273081507338011,26.218183461473092 L11.24694303037671,26.882420539381663 L0.0,27.0" fill="black" fill-opacity="0.6" stroke="black" stroke-width="1" />
<path d="M10.273081507338011,73.78181653852691 L11.24694303037671,73.11757946061834 L0.0,73.0" fill="red" fill-opacity="0.6" stroke="black" stroke-width="1" />
<path d="M10.273081507338011,-73.78181653852691 L11.24694303037671,-73.11757946061834 L0.0,-73.0" fill="blue" fill-opacity="0.6" stroke="black" stroke-width="1" />
<path d="M0.0,-30.0 L11.58904785139023,-34.40651076597173 L8.0,-50.0" fill="orange" fill-opacity="0.6" stroke="black" stroke-width="1" />
<path d="M0.0,30.0 L11.58904785139023,34.40651076597173 L8.0,50.0" fill="brown" fill-opacity="0.6" stroke="black" stroke-width="1" />
<path d="M0.0,70.0 L11.58904785139023,65.59348923402827 L8.0,50.0" fill="blue" fill-opacity="0.6" stroke="black" stroke-width="1" />
<path d="M0.0,-70.0 L11.58904785139023,-65.59348923402827 L8.0,-50.0" fill="orange" fill-opacity="0.6" stroke="black" stroke-width="1" />
<path d="M18.0,-50.0 L22.610261979648534,-35.38853808539427 L23.548677500180787,-41.696202236009995" fill="black" fill-opacity="0.6" stroke="black" stroke-width="1" />
<path d="M18.0,50.0 L22.610261979648534,35.38853808539427 L23.548677500180787,41.696202236009995" fill="yellow" fill-opacity="0.6" stroke="black" stroke-width="1" />
<path d="M18.0,50.0 L22.610261979648534,64.61146191460573 L23.548677500180787,58.303797763990005" fill="red" fill-opacity="0.6" stroke="black" stroke-width="1" />
<path d="M18.0,-50.0 L22.610261979648534,-64.61146191460573 L23.548677500180787,-58.303797763990005" fill="black" fill-opacity="0.6" stroke="black" stroke-width="1" />
<path d="M22.610261979648534,-35.38853808539427 L23.548677500180787,-41.696202236009995 L24.471652862072478,-43.85925244713866" fill="blue" fill-opacity="0.6" stroke="black" stroke-width="1" />
<path d="M22.610261979648534,35.38853808539427 L23.548677500180787,41.696202236009995 L24.471652862072478,43.85925244713866" fill="pink" fill-opacity="0.6" stroke="black" stroke-width="1" />
<path d="M22.610261979648534,64.61146191460573 L23.548677500180787,58.303797763990005 L24.471652862072478,56.14074755286134" fill="orange" fill-opacity="0.6" stroke="black" stroke-width="1" />
<path d="M22.610261979648534,-64.61146191460573 L23.548677500180787,-58.303797763990005 L24.471652862072478,-56.14074755286134" fill="pink" fill-opacity="0.6" stroke="black" stroke-width="1" />
<path d="M23.548677500180787,-41.696202236009995 L24.471652862072478,-43.85925244713866 L27.74166859048678,-44.20051763761916" fill="black" fill-opacity="0.6" stroke="black" stroke-width="1" />
<path d="M23.548677500180787,41.696202236009995 L24.471652862072478,43.85925244713866 L27.74166859048678,44.20051763761916" fill="blue" fill-opacity="0.6" stroke="black" stroke-width="1" />
<path d="M23.548677500180787,58.303797763990005 L24.471652862072478,56.14074755286134 L27.74166859048678,55.79948236238084" fill="yellow" fill-opacity="0.6" stroke="black" stroke-width="1" />
<path d="M23.548677500180787,-58.303797763990005 L24.471652862072478,-56.14074755286134 L27.74166859048678,-55.79948236238084" fill="green" fill-opacity="0.6" stroke="black" stroke-width="1" />
<path d="M24.471652862072478,-43.85925244713866 L27.74166859048678,-44.20051763761916 L30.88757837327622,-46.06530711161174" fill="black" fill-opacity="0.6" stroke="black" stroke-width="1" />
<path d="M24.471652862072478,43.85925244713866 L27.74166859048678,44.20051763761916 L30.88757837327622,46.06530711161174" fill="pink" fill-opacity="0.6" stroke="black" stroke-width="1" />
<path d="M24.471652862072478,56.14074755286134 L27.74166859048678,55.79948236238084 L30.88757837327622,53.93469288838826" fill="brown" fill-opacity="0.6" stroke="black" stroke-width="1" />
<path d="M24.471652862072478,-56.14074755286134 L27.74166859048678,-55.79948236238084 L30.88757837327622,-53.93469288838826" fill="pink" fill-opacity="0.6" stroke="black" stroke-width="1" />
<path d="M27.74166859048678,-44.20051763761916 L30.88757837327622,-46.06530711161174 L35.824227436581815,-47.0487414981894" fill="orange" fill-opacity="0.6" stroke="black" stroke-width="1" />
<path d="M27.74166859048678,44.20051763761916 L30.88757837327622,46.06530711161174 L35.824227436581815,47.0487414981894" fill="black" fill-opacity="0.6" stroke="black" stroke-width="1" />
<path d="M27.74166859048678,55.79948236238084 L30.88757837327622,53.93469288838826 L35.824227436581815,52.9512585018106" fill="brown" fill-opacity="0.6" stroke="black" stroke-width="1" />
<path d="M27.74166859048678,-55.79948236238084 L30.88757837327622,-53.93469288838826 L35.824227436581815,-52.9512585018106" fill="blue" fill-opacity="0.6" stroke="black" stroke-width="1" />
<path d="M30.88757837327622,-46.06530711161174 L35.824227436581815,-47.0487414981894 L36.317718667172386,-47.10943632988986" fill="brown" fill-opacity="0.6" stroke="black" stroke-width="1" />
<path d="M30.88757837327622,46.06530711161174 L35.824227436581815,47.0487414981894 L36.317718667172386,47.10943632988986" fill="yellow" fill-opacity="0.6" stroke="black" stroke-width="1" />
<path d="M30.88757837327622,53.93469288838826 L35.824227436581815,52.9512585018106 L36.317718667172386,52.89056367011014" fill="blue" fill-opacity="0.6" stroke="black" stroke-width="1" />
<path d="M30.88757837327622,-53.93469288838826 L35.824227436581815,-52.9512585018106 L36.317718667172386,-52.89056367011014" fill="purple" fill-opacity="0.6" stroke="black" stroke-width="1" />
<path d="M35.824227436581815,-47.0487414981894 L36.317718667172386,-47.10943632988986 L38.0,-50.0" fill="green" fill-opacity="0.6" stroke="black" stroke-width="1" />
<path d="M35.824227436581815,47.0487414981894 L36.317718667172386,47.10943632988986 L38.0,50.0" fill="red" fill-opacity="0.6" stroke="black" stroke-width="1" />
<path d="M35.824227436581815,52.9512585018106 L36.317718667172386,52.89056367011014 L38.0,50.0" fill="black" fill-opacity="0.6" stroke="black" stroke-width="1" />
<path d="M35.824227436581815,-52.9512585018106 L36.317718667172386,-52.89056367011014 L38.0,-50.0" fill="blue" fill-opacity="0.6" stroke="black" stroke-width="1" />
<path d="M38.0,-50.0 L40.732163512732114,-48.97771591315283 L49.0,-49.0" fill="black" fill-opacity="0.6" stroke="black" stroke-width="1" />
<path d="M38.0,50.0 L40.732163512732114,48.97771591315283 L49.0,49.0" fill="blue" fill-opacity="0.6" stroke="black" stroke-width="1" />
<path d="M38.0,50.0 L40.732163512732114,51.02228408684717 L49.0,51.0" fill="black" fill-opacity="0.6" stroke="black" stroke-width="1" />
<path d="M38.0,-50.0 L40.732163512732114,-51.02228408684717 L49.0,-51.0" fill="yellow" fill-opacity="0.6" stroke="black" stroke-width="1" />
<path d="M21.0,-21.0 L6.740327148925685,-11.013513120022406 L5.465585479707903,-8.19653845427586" fill="yellow" fill-opacity="0.6" stroke="black" stroke-width="1" />
<path d="M21.0,21.0 L6.740327148925685,11.013513120022406 L5.465585479707903,8.19653845427586" fill="red" fill-opacity="0.6" stroke="black" stroke-width="1" />
<path d="M21.0,79.0 L6.740327148925685,88.98648687997759 L5.465585479707903,91.80346154572413" fill="yellow" fill-opacity="0.6" stroke="black" stroke-width="1" />
<path d="M21.0,-79.0 L6.740327148925685,-88.98648687997759 L5.465585479707903,-91.80346154572413" fill="yellow" fill-opacity="0.6" stroke="black" stroke-width="1" />
<path d="M6.740327148925685,-11.013513120022406 L5.465585479707903,-8.19653845427586 L5.0243634344571655,-5.368820375522049" fill="yellow" fill-opacity="0.6" stroke="black" stroke-width="1" />
<path d="M6.740327148925685,11.013513120022406 L5.465585479707903,8.19653845427586 L5.0243634344571655,5.368820375522049" fill="orange" fill-opacity="0.6" stroke="black" stroke-width="1" />
<path d="M6.740327148925685,88.98648687997759 L5.465585479707903,91.80346154572413 L5.0243634344571655,94.63117962447795" fill="black" fill-opacity="0.6" stroke="black" stroke-width="1" />
<path d="M6.740327148925685,-88.98648687997759 L5.465585479707903,-91.80346154572413 L5.0243634344571655,-94.63117962447795" fill="green" fill-opacity="0.6" stroke="black" stroke-width="1" />
<path d="M5.465585479707903,-8.19653845427586 L5.0243634344571655,-5.368820375522049 L1.1391980640208144,-3.376610589381496" fill="yellow" fill-opacity="0.6" stroke="black" stroke-width="1" />
<path d="M5.465585479707903,8.19653845427586 L5.0243634344571655,5.368820375522049 L1.1391980640208144,3.376610589381496" fill="green" fill-opacity="0.6" stroke="black" stroke-width="1" />
<path d="M5.465585479707903,91.80346154572413 L5.0243634344571655,94.63117962447795 L1.1391980640208144,96.6233894106185" fill="red" fill-opacity="0.6" stroke="black" stroke-width="1" />
<path d="M5.465585479707903,-91.80346154572413 L5.0243634344571655,-94.63117962447795 L1.1391980640208144,-96.6233894106185" fill="black" fill-opacity="0.6" stroke="black" stroke-width="1" />
<path d="M5.0243634344571655,-5.368820375522049 L1.1391980640208144,-3.376610589381496 L1.102365167370042,-3.3299093586601827" fill="purple" fill-opacity="0.6" stroke="black" stroke-width="1" />
<path d="M5.0243634344571655,5.368820375522049 L1.1391980640208144,3.376610589381496 L1.102365167370042,3.3299093586601827" fill="green" fill-opacity="0.6" stroke="black" stroke-width="1" />
<path d="M5.0243634344571655,94.63117962447795 L1.1391980640208144,96.6233894106185 L1.102365167370042,96.67009064133981" fill="orange" fill-opacity="0.6" stroke="black" stroke-width="1" />
<path d="M5.0243634344571655,-94.63117962447795 L1.1391980640208144,-96.6233894106185 L1.102365167370042,-96.67009064133981" fill="orange" fill-opacity="0.6" stroke="black" stroke-width="1" />
<path d="M1.1391980640208144,-3.376610589381496 L1.102365167370042,-3.3299093586601827 L0.36166549683146215,-1.013250978703939" fill="pink" fill-opacity="0.6" stroke="black" stroke-width="1" />
<path d="M1.1391980640208144,3.376610589381496 L1.102365167370042,3.3299093586601827 L0.36166549683146215,1.013250978703939" fill="orange" fill-opacity="0.6" stroke="black" stroke-width="1" />
<path d="M1.1391980640208144,96.6233894106185 L1.102365167370042,96.67009064133981 L0.36166549683146215,98.98674902129606" fill="blue" fill-opacity="0.6" stroke="black" stroke-width="1" />
<path d="M1.1391980640208144,-96.6233894106185 L1.102365167370042,-96.67009064133981 L0.36166549683146215,-98.98674902129606" fill="brown" fill-opacity="0.6" stroke="black" stroke-width="1" />
<path d="M1.102365167370042,-3.3299093586601827 L0.36166549683146215,-1.013250978703939 L0.0,-0.0" fill="black" fill-opacity="0.6" stroke="black" stroke-width="1" />
<path d="M1.102365167370042,3.3299093586601827 L0.36166549683146215,1.013250978703939 L0.0,-0.0" fill="yellow" fill-opacity="0.6" stroke="black" stroke-width="1" />
<path d="M1.102365167370042,96.67009064133981 L0.36166549683146215,98.98674902129606 L0.0,100.0" fill="orange" fill-opacity="0.6" stroke="black" stroke-width="1" />
<path d="M1.102365167370042,-96.67009064133981 L0.36166549683146215,-98.98674902129606 L0.0,-100.0" fill="brown" fill-opacity="0.6" stroke="black" stroke-width="1" />
<path d="M0.0,95.0 L-8.029349651417212,78.92106025389437 L-8.474988738317368,76.64506453205055" fill="brown" fill-opacity="0.6" stroke="black" stroke-width="1" />
<path d="M0.0,-5.0 L-8.029349651417212,-21.07893974610563 L-8.474988738317368,-23.35493546794944" fill="pink" fill-opacity="0.6" stroke="black" stroke-width="1" />
<path d="M0.0,5.0 L-8.029349651417212,21.078939746105632 L-8.474988738317368,23.354935467949446" fill="green" fill-opacity="0.6" stroke="black" stroke-width="1" />
<path d="M0.0,-95.0 L-8.029349651417212,-78.92106025389437 L-8.474988738317368,-76.64506453205055" fill="pink" fill-opacity="0.6" stroke="black" stroke-width="1" />
<path d="M-8.029349651417212,78.92106025389437 L-8.474988738317368,76.64506453205055 L0.0,76.0" fill="brown" fill-opacity="0.6" stroke="black" stroke-width="1" />
<path d="M-8.029349651417212,-21.07893974610563 L-8.474988738317368,-23.35493546794944 L0.0,-24.0" fill="yellow" fill-opacity="0.6" stroke="black" stroke-width="1" />
<path d="M-8.029349651417212,21.078939746105632 L-8.474988738317368,23.354935467949446 L0.0,24.0" fill="yellow" fill-opacity="0.6" stroke="black" stroke-width="1" />
<path d="M-8.029349651417212,-78.92106025389437 L-8.474988738317368,-76.64506453205055 L0.0,-76.0" fill="purple" fill-opacity="0.6" stroke="black" stroke-width="1" />
<path d="M0.0,76.0 L-10.273081507338011,73.78181653852691 L-11.24694303037671,73.11757946061834" fill="black" fill-opacity="0.6" stroke="black" stroke-width="1" />
<path d="M0.0,-24.0 L-10.273081507338011,-26.218183461473092 L-11.24694303037671,-26.882420539381663" fill="pink" fill-opacity="0.6" stroke="black" stroke-width="1" />
<path d="M0.0,24.0 L-10.273081507338011,26.21818346147309 L-11.24694303037671,26.882420539381656" fill="brown" fill-opacity="0.6" stroke="black" stroke-width="1" />
<path d="M0.0,-76.0 L-10.273081507338011,-73.78181653852691 L-11.24694303037671,-73.11757946061834" fill="pink" fill-opacity="0.6" stroke="black" stroke-width="1" />
<path d="M-10.273081507338011,73.78181653852691 L-11.24694303037671,73.11757946061834 L0.0,73.0" fill="brown" fill-opacity="0.6" stroke="black" stroke-width="1" />
<path d="M-10.273081507338011,-26.218183461473092 L-11.24694303037671,-26.882420539381663 L0.0,-27.0" fill="brown" fill-opacity="0.6" stroke="black" stroke-width="1" />
<path d="M-10.273081507338011,26.21818346147309 L-11.24694303037671,26.882420539381656 L0.0,27.0" fill="green" fill-opacity="0.6" stroke="black" stroke-width="1" />
<path d="M-10.273081507338011,-73.78181653852691 L-11.24694303037671,-73.11757946061834 L0.0,-73.0" fill="blue" fill-opacity="0.6" stroke="black" stroke-width="1" />
<path d="M0.0,70.0 L-11.58904785139023,65.59348923402827 L-8.0,50.0" fill="red" fill-opacity="0.6" stroke="black" stroke-width="1" />
<path d="M0.0,-30.0 L-11.58904785139023,-34.40651076597173 L-8.0,-50.0" fill="purple" fill-opacity="0.6" stroke="black" stroke-width="1" />
<path d="M0.0,30.0 L-11.58904785139023,34.40651076597173 L-8.0,50.0" fill="green" fill-opacity="0.6" stroke="black" stroke-width="1" />
<path d="M0.0,-70.0 L-11.58904785139023,-65.59348923402827 L-8.0,-50.0" fill="green" fill-opacity="0.6" stroke="black" stroke-width="1" />
<path d="M-18.0,50.0 L-22.610261979648534,64.61146191460573 L-23.548677500180787,58.303797763990005" fill="orange" fill-opacity="0.6" stroke="black" stroke-width="1" />
<path d="M-18.0,-50.0 L-22.610261979648534,-35.38853808539427 L-23.548677500180787,-41.696202236009995" fill="yellow" fill-opacity="0.6" stroke="black" stroke-width="1" />
<path d="M-18.0,50.0 L-22.610261979648534,35.38853808539427 L-23.548677500180787,41.696202236009995" fill="blue" fill-opacity="0.6" stroke="black" stroke-width="1" />
<path d="M-18.0,-50.0 L-22.610261979648534,-64.61146191460573 L-23.548677500180787,-58.303797763990005" fill="red" fill-opacity="0.6" stroke="black" stroke-width="1" />
<path d="M-22.610261979648534,64.61146191460573 L-23.548677500180787,58.303797763990005 L-24.471652862072478,56.14074755286134" fill="red" fill-opacity="0.6" stroke="black" stroke-width="1" />
<path d="M-22.610261979648534,-35.38853808539427 L-23.548677500180787,-41.696202236009995 L-24.471652862072478,-43.85925244713866" fill="purple" fill-opacity="0.6" stroke="black" stroke-width="1" />
<path d="M-22.610261979648534,35.38853808539427 L-23.548677500180787,41.696202236009995 L-24.471652862072478,43.85925244713866" fill="brown" fill-opacity="0.6" stroke="black" stroke-width="1" />
<path d="M-22.610261979648534,-64.61146191460573 L-23.548677500180787,-58.303797763990005 L-24.471652862072478,-56.14074755286134" fill="blue" fill-opacity="0.6" stroke="black" stroke-width="1" />
<path d="M-23.548677500180787,58.303797763990005 L-24.471652862072478,56.14074755286134 L-27.74166859048678,55.79948236238084" fill="brown" fill-opacity="0.6" stroke="black" stroke-width="1" />
<path d="M-23.548677500180787,-41.696202236009995 L-24.471652862072478,-43.85925244713866 L-27.74166859048678,-44.20051763761916" fill="orange" fill-opacity="0.6" stroke="black" stroke-width="1" />
<path d="M-23.548677500180787,41.696202236009995 L-24.471652862072478,43.85925244713866 L-27.74166859048678,44.20051763761916" fill="green" fill-opacity="0.6" stroke="black" stroke-width="1" />
<path d="M-23.548677500180787,-58.303797763990005 L-24.471652862072478,-56.14074755286134 L-27.74166859048678,-55.79948236238084" fill="black" fill-opacity="0.6" stroke="black" stroke-width="1" />
<path d="M-24.471652862072478,56.14074755286134 L-27.74166859048678,55.79948236238084 L-30.88757837327622,53.93469288838826" fill="pink" fill-opacity="0.6" stroke="black" stroke-width="1" />
<path d="M-24.471652862072478,-43.85925244713866 L-27.74166859048678,-44.20051763761916 L-30.88757837327622,-46.06530711161174" fill="black" fill-opacity="0.6" stroke="black" stroke-width="1" />
<path d="M-24.471652862072478,43.85925244713866 L-27.74166859048678,44.20051763761916 L-30.88757837327622,46.06530711161174" fill="red" fill-opacity="0.6" stroke="black" stroke-width="1" />
<path d="M-24.471652862072478,-56.14074755286134 L-27.74166859048678,-55.79948236238084 L-30.88757837327622,-53.93469288838826" fill="blue" fill-opacity="0.6" stroke="black" stroke-width="1" />
<path d="M-27.74166859048678,55.79948236238084 L-30.88757837327622,53.93469288838826 L-35.824227436581815,52.9512585018106" fill="purple" fill-opacity="0.6" stroke="black" stroke-width="1" />
<path d="M-27.74166859048678,-44.20051763761916 L-30.88757837327622,-46.06530711161174 L-35.824227436581815,-47.0487414981894" fill="green" fill-opacity="0.6" stroke="black" stroke-width="1" />
<path d="M-27.74166859048678,44.20051763761916 L-30.88757837327622,46.06530711161174 L-35.824227436581815,47.0487414981894" fill="green" fill-opacity="0.6" stroke="black" stroke-width="1" />
<path d="M-27.74166859048678,-55.79948236238084 L-30.88757837327622,-53.93469288838826 L-35.824227436581815,-52.9512585018106" fill="yellow" fill-opacity="0.6" stroke="black" stroke-width="1" />
<path d="M-30.88757837327622,53.93469288838826 L-35.824227436581815,52.9512585018106 L-36.317718667172386,52.89056367011014" fill="green" fill-opacity="0.6" stroke="black" stroke-width="1" />
<path d="M-30.88757837327622,-46.06530711161174 L-35.824227436581815,-47.0487414981894 L-36.317718667172386,-47.10943632988986" fill="red" fill-opacity="0.6" stroke="black" stroke-width="1" />
<path d="M-30.88757837327622,46.06530711161174 L-35.824227436581815,47.0487414981894 L-36.317718667172386,47.10943632988986" fill="pink" fill-opacity="0.6" stroke="black" stroke-width="1" />
<path d="M-30.88757837327622,-53.93469288838826 L-35.824227436581815,-52.9512585018106 L-36.317718667172386,-52.89056367011014" fill="green" fill-opacity="0.6" stroke="black" stroke-width="1" />
<path d="M-35.824227436581815,52.9512585018106 L-36.317718667172386,52.89056367011014 L-38.0,50.0" fill="blue" fill-opacity="0.6" stroke="black" stroke-width="1" />
<path d="M-35.824227436581815,-47.0487414981894 L-36.317718667172386,-47.10943632988986 L-38.0,-50.0" fill="black" fill-opacity="0.6" stroke="black" stroke-width="1" />
<path d="M-35.824227436581815,47.0487414981894 L-36.317718667172386,47.10943632988986 L-38.0,50.0" fill="yellow" fill-opacity="0.6" stroke="black" stroke-width="1" />
<path d="M-35.824227436581815,-52.9512585018106 L-36.317718667172386,-52.89056367011014 L-38.0,-50.0" fill="orange" fill-opacity="0.6" stroke="black" stroke-width="1" />
<path d="M-38.0,50.0 L-40.732163512732114,51.02228408684717 L-49.0,51.0" fill="orange" fill-opacity="0.6" stroke="black" stroke-width="1" />
<path d="M-38.0,-50.0 L-40.732163512732114,-48.97771591315283 L-49.0,-49.0" fill="black" fill-opacity="0.6" stroke="black" stroke-width="1" />
<path d="M-38.0,50.0 L-40.732163512732114,48.97771591315283 L-49.0,49.0" fill="orange" fill-opacity="0.6" stroke="black" stroke-width="1" />
<path d="M-38.0,-50.0 L-40.732163512732114,-51.02228408684717 L-49.0,-51.0" fill="pink" fill-opacity="0.6" stroke="black" stroke-width="1" />
<path d="M-21.0,79.0 L-6.740327148925685,88.98648687997759 L-5.465585479707903,91.80346154572413" fill="red" fill-opacity="0.6" stroke="black" stroke-width="1" />
<path d="M-21.0,-21.0 L-6.740327148925685,-11.013513120022406 L-5.465585479707903,-8.19653845427586" fill="red" fill-opacity="0.6" stroke="black" stroke-width="1" />
<path d="M-21.0,21.0 L-6.740327148925685,11.01351312002241 L-5.465585479707903,8.196538454275867" fill="purple" fill-opacity="0.6" stroke="black" stroke-width="1" />
<path d="M-21.0,-79.0 L-6.740327148925685,-88.98648687997759 L-5.465585479707903,-91.80346154572413" fill="purple" fill-opacity="0.6" stroke="black" stroke-width="1" />
<path d="M-6.740327148925685,88.98648687997759 L-5.465585479707903,91.80346154572413 L-5.0243634344571655,94.63117962447795" fill="black" fill-opacity="0.6" stroke="black" stroke-width="1" />
<path d="M-6.740327148925685,-11.013513120022406 L-5.465585479707903,-8.19653845427586 L-5.0243634344571655,-5.368820375522049" fill="pink" fill-opacity="0.6" stroke="black" stroke-width="1" />
<path d="M-6.740327148925685,11.01351312002241 L-5.465585479707903,8.196538454275867 L-5.0243634344571655,5.3688203755220485" fill="red" fill-opacity="0.6" stroke="black" stroke-width="1" />
<path d="M-6.740327148925685,-88.98648687997759 L-5.465585479707903,-91.80346154572413 L-5.0243634344571655,-94.63117962447795" fill="brown" fill-opacity="0.6" stroke="black" stroke-width="1" />
<path d="M-5.465585479707903,91.80346154572413 L-5.0243634344571655,94.63117962447795 L-1.1391980640208144,96.6233894106185" fill="yellow" fill-opacity="0.6" stroke="black" stroke-width="1" />
<path d="M-5.465585479707903,-8.19653845427586 L-5.0243634344571655,-5.368820375522049 L-1.1391980640208144,-3.376610589381496" fill="blue" fill-opacity="0.6" stroke="black" stroke-width="1" />
<path d="M-5.465585479707903,8.196538454275867 L-5.0243634344571655,5.3688203755220485 L-1.1391980640208144,3.3766105893814995" fill="brown" fill-opacity="0.6" stroke="black" stroke-width="1" />
<path d="M-5.465585479707903,-91.80346154572413 L-5.0243634344571655,-94.63117962447795 L-1.1391980640208144,-96.6233894106185" fill="yellow" fill-opacity="0.6" stroke="black" stroke-width="1" />
<path d="M-5.0243634344571655,94.63117962447795 L-1.1391980640208144,96.6233894106185 L-1.102365167370042,96.67009064133981" fill="yellow" fill-opacity="0.6" stroke="black" stroke-width="1" />
<path d="M-5.0243634344571655,-5.368820375522049 L-1.1391980640208144,-3.376610589381496 L-1.102365167370042,-3.3299093586601827" fill="red" fill-opacity="0.6" stroke="black" stroke-width="1" />
<path d="M-5.0243634344571655,5.3688203755220485 L-1.1391980640208144,3.3766105893814995 L-1.102365167370042,3.3299093586601884" fill="purple" fill-opacity="0.6" stroke="black" stroke-width="1" />
<path d="M-5.0243634344571655,-94.63117962447795 L-1.1391980640208144,-96.6233894106185 L-1.102365167370042,-96.67009064133981" fill="yellow" fill-opacity="0.6" stroke="black" stroke-width="1" />
<path d="M-1.1391980640208144,96.6233894106185 L-1.102365167370042,96.67009064133981 L-0.36166549683146215,98.98674902129606" fill="brown" fill-opacity="0.6" stroke="black" stroke-width="1" />
<path d="M-1.1391980640208144,-3.376610589381496 L-1.102365167370042,-3.3299093586601827 L-0.36166549683146215,-1.013250978703939" fill="blue" fill-opacity="0.6" stroke="black" stroke-width="1" />
<path d="M-1.1391980640208144,3.3766105893814995 L-1.102365167370042,3.3299093586601884 L-0.36166549683146215,1.0132509787039368" fill="purple" fill-opacity="0.6" stroke="black" stroke-width="1" />
<path d="M-1.1391980640208144,-96.6233894106185 L-1.102365167370042,-96.67009064133981 L-0.36166549683146215,-98.98674902129606" fill="orange" fill-opacity="0.6" stroke="black" stroke-width="1" />
<path d="M-1.102365167370042,96.67009064133981 L-0.36166549683146215,98.98674902129606 L0.0,100.0" fill="green" fill-opacity="0.6" stroke="black" stroke-width="1" />
<path d="M-1.102365167370042,-3.3299093586601827 L-0.36166549683146215,-1.013250978703939 L0.0,-0.0" fill="brown" fill-opacity="0.6" stroke="black" stroke-width="1" />
<path d="M-1.102365167370042,3.3299093586601884 L-0.36166549683146215,1.0132509787039368 L0.0,-0.0" fill="green" fill-opacity="0.6" stroke="black" stroke-width="1" />
<path d="M-1.102365167370042,-96.67009064133981 L-0.36166549683146215,-98.98674902129606 L0.0,-100.0" fill="blue" fill-opacity="0.6" stroke="black" stroke-width="1" />
<path d="M-95.0,-0.0 L-78.92106025389437,-8.029349651417212 L-76.64506453205055,-8.474988738317368" fill="orange" fill-opacity="0.6" stroke="black" stroke-width="1" />
<path d="M-95.0,-0.0 L-78.92106025389437,8.029349651417212 L-76.64506453205055,8.474988738317368" fill="red" fill-opacity="0.6" stroke="black" stroke-width="1" />
<path d="M-78.92106025389437,-8.029349651417212 L-76.64506453205055,-8.474988738317368 L-76.0,-0.0" fill="purple" fill-opacity="0.6" stroke="black" stroke-width="1" />
<path d="M-78.92106025389437,8.029349651417212 L-76.64506453205055,8.474988738317368 L-76.0,-0.0" fill="brown" fill-opacity="0.6" stroke="black" stroke-width="1" />
<path d="M-76.0,-0.0 L-73.78181653852691,-10.273081507338011 L-73.11757946061834,-11.24694303037671" fill="purple" fill-opacity="0.6" stroke="black" stroke-width="1" />
<path d="M-76.0,-0.0 L-73.78181653852691,10.273081507338011 L-73.11757946061834,11.24694303037671" fill="purple" fill-opacity="0.6" stroke="black" stroke-width="1" />
<path d="M-73.78181653852691,-10.273081507338011 L-73.11757946061834,-11.24694303037671 L-73.0,-0.0" fill="green" fill-opacity="0.6" stroke="black" stroke-width="1" />
<path d="M-73.78181653852691,10.273081507338011 L-73.11757946061834,11.24694303037671 L-73.0,-0.0" fill="pink" fill-opacity="0.6" stroke="black" stroke-width="1" />
<path d="M-70.0,-0.0 L-65.59348923402827,-11.58904785139023 L-50.0,-8.0" fill="purple" fill-opacity="0.6" stroke="black" stroke-width="1" />
<path d="M-70.0,-0.0 L-65.59348923402827,11.58904785139023 L-50.0,8.0" fill="blue" fill-opacity="0.6" stroke="black" stroke-width="1" />
<path d="M-50.0,-18.0 L-64.61146191460573,-22.610261979648534 L-58.303797763990005,-23.548677500180787" fill="pink" fill-opacity="0.6" stroke="black" stroke-width="1" />
<path d="M-50.0,18.0 L-64.61146191460573,22.610261979648534 L-58.303797763990005,23.548677500180787" fill="purple" fill-opacity="0.6" stroke="black" stroke-width="1" />
<path d="M-64.61146191460573,-22.610261979648534 L-58.303797763990005,-23.548677500180787 L-56.14074755286134,-24.471652862072478" fill="brown" fill-opacity="0.6" stroke="black" stroke-width="1" />
<path d="M-64.61146191460573,22.610261979648534 L-58.303797763990005,23.548677500180787 L-56.14074755286134,24.471652862072478" fill="brown" fill-opacity="0.6" stroke="black" stroke-width="1" />
<path d="M-58.303797763990005,-23.548677500180787 L-56.14074755286134,-24.471652862072478 L-55.79948236238084,-27.74166859048678" fill="orange" fill-opacity="0.6" stroke="black" stroke-width="1" />
<path d="M-58.303797763990005,23.548677500180787 L-56.14074755286134,24.471652862072478 L-55.79948236238084,27.74166859048678" fill="green" fill-opacity="0.6" stroke="black" stroke-width="1" />
<path d="M-56.14074755286134,-24.471652862072478 L-55.79948236238084,-27.74166859048678 L-53.93469288838826,-30.88757837327622" fill="yellow" fill-opacity="0.6" stroke="black" stroke-width="1" />
<path d="M-56.14074755286134,24.471652862072478 L-55.79948236238084,27.74166859048678 L-53.93469288838826,30.88757837327622" fill="black" fill-opacity="0.6" stroke="black" stroke-width="1" />
<path d="M-55.79948236238084,-27.74166859048678 L-53.93469288838826,-30.88757837327622 L-52.9512585018106,-35.824227436581815" fill="red" fill-opacity="0.6" stroke="black" stroke-width="1" />
<path d="M-55.79948236238084,27.74166859048678 L-53.93469288838826,30.88757837327622 L-52.9512585018106,35.824227436581815" fill="blue" fill-opacity="0.6" stroke="black" stroke-width="1" />
<path d="M-53.93469288838826,-30.88757837327622 L-52.9512585018106,-35.824227436581815 L-52.89056367011014,-36.317718667172386" fill="black" fill-opacity="0.6" stroke="black" stroke-width="1" />
<path d="M-53.93469288838826,30.88757837327622 L-52.9512585018106,35.824227436581815 L-52.89056367011014,36.317718667172386" fill="yellow" fill-opacity="0.6" stroke="black" stroke-width="1" />
<path d="M-52.9512585018106,-35.824227436581815 L-52.89056367011014,-36.317718667172386 L-50.0,-38.0" fill="orange" fill-opacity="0.6" stroke="black" stroke-width="1" />
<path d="M-52.9512585018106,35.824227436581815 L-52.89056367011014,36.317718667172386 L-50.0,38.0" fill="black" fill-opacity="0.6" stroke="black" stroke-width="1" />
<path d="M-50.0,-38.0 L-51.02228408684717,-40.732163512732114 L-51.0,-49.0" fill="brown" fill-opacity="0.6" stroke="black" stroke-width="1" />
<path d="M-50.0,38.0 L-51.02228408684717,40.732163512732114 L-51.0,49.0" fill="orange" fill-opacity="0.6" stroke="black" stroke-width="1" />
<path d="M-51.02228408684717,-40.732163512732114 L-51.0,-49.0 L-59.0,-41.0" fill="blue" fill-opacity="0.6" stroke="black" stroke-width="1" />
<path d="M-51.02228408684717,40.732163512732114 L-51.0,49.0 L-59.0,41.0" fill="brown" fill-opacity="0.6" stroke="black" stroke-width="1" />
<path d="M-51.0,-49.0 L-59.0,-41.0 L-63.0,-37.0" fill="purple" fill-opacity="0.6" stroke="black" stroke-width="1" />
<path d="M-51.0,49.0 L-59.0,41.0 L-63.0,37.0" fill="brown" fill-opacity="0.6" stroke="black" stroke-width="1" />
<path d="M-59.0,-41.0 L-63.0,-37.0 L-79.0,-21.0" fill="pink" fill-opacity="0.6" stroke="black" stroke-width="1" />
<path d="M-59.0,41.0 L-63.0,37.0 L-79.0,21.0" fill="brown" fill-opacity="0.6" stroke="black" stroke-width="1" />
<path d="M-63.0,-37.0 L-79.0,-21.0 L-88.98648687997759,-6.740327148925685" fill="pink" fill-opacity="0.6" stroke="black" stroke-width="1" />
<path d="M-63.0,37.0 L-79.0,21.0 L-88.98648687997759,6.740327148925685" fill="yellow" fill-opacity="0.6" stroke="black" stroke-width="1" />
<path d="M-79.0,-21.0 L-88.98648687997759,-6.740327148925685 L-91.80346154572413,-5.465585479707903" fill="pink" fill-opacity="0.6" stroke="black" stroke-width="1" />
<path d="M-79.0,21.0 L-88.98648687997759,6.740327148925685 L-91.80346154572413,5.465585479707903" fill="orange" fill-opacity="0.6" stroke="black" stroke-width="1" />
<path d="M-88.98648687997759,-6.740327148925685 L-91.80346154572413,-5.465585479707903 L-94.63117962447795,-5.0243634344571655" fill="yellow" fill-opacity="0.6" stroke="black" stroke-width="1" />
<path d="M-88.98648687997759,6.740327148925685 L-91.80346154572413,5.465585479707903 L-94.63117962447795,5.0243634344571655" fill="green" fill-opacity="0.6" stroke="black" stroke-width="1" />
<path d="M-91.80346154572413,-5.465585479707903 L-94.63117962447795,-5.0243634344571655 L-96.6233894106185,-1.1391980640208144" fill="red" fill-opacity="0.6" stroke="black" stroke-width="1" />
<path d="M-91.80346154572413,5.465585479707903 L-94.63117962447795,5.0243634344571655 L-96.6233894106185,1.1391980640208144" fill="green" fill-opacity="0.6" stroke="black" stroke-width="1" />
<path d="M-94.63117962447795,-5.0243634344571655 L-96.6233894106185,-1.1391980640208144 L-96.67009064133981,-1.102365167370042" fill="yellow" fill-opacity="0.6" stroke="black" stroke-width="1" />
<path d="M-94.63117962447795,5.0243634344571655 L-96.6233894106185,1.1391980640208144 L-96.67009064133981,1.102365167370042" fill="red" fill-opacity="0.6" stroke="black" stroke-width="1" />
<path d="M-96.6233894106185,-1.1391980640208144 L-96.67009064133981,-1.102365167370042 L-98.98674902129606,-0.36166549683146215" fill="purple" fill-opacity="0.6" stroke="black" stroke-width="1" />
<path d="M-96.6233894106185,1.1391980640208144 L-96.67009064133981,1.102365167370042 L-98.98674902129606,0.36166549683146215" fill="green" fill-opacity="0.6" stroke="black" stroke-width="1" />
<path d="M-96.67009064133981,-1.102365167370042 L-98.98674902129606,-0.36166549683146215 L-100.0,-0.0" fill="yellow" fill-opacity="0.6" stroke="black" stroke-width="1" />
<path d="M-96.67009064133981,1.102365167370042 L-98.98674902129606,0.36166549683146215 L-100.0,-0.0" fill="black" fill-opacity="0.6" stroke="black" stroke-width="1" />
</svg>