<?xml version="1.0" encoding="UTF-8"?>
<svg xmlns="http://www.w3.org/2000/svg" xmlns:xlink="http://www.w3.org/1999/xlink"
     width="250" height="250" viewBox="-125.0 -125.0 250 250">
<defs>
</defs>
<path d="M9.0,-0.0 L10.579670478060898,-1.6403756182544915 L12.0,-0.0" fill="red" fill-opacity="0.6" stroke="black" stroke-width="1" />
<path d="M9.0,-0.0 L10.579670478060898,1.6403756182544915 L12.0,-0.0" fill="purple" fill-opacity="0.6" stroke="black" stroke-width="1" />
<path d="M12.0,-0.0 L13.113710869248091,-3.085586503759155 L13.674327844883166,-3.1445051730283002" fill="brown" fill-opacity="0.6" stroke="black" stroke-width="1" />
<path d="M12.0,-0.0 L13.113710869248091,3.085586503759155 L13.674327844883166,3.1445051730283002" fill="pink" fill-opacity="0.6" stroke="black" stroke-width="1" />
<path d="M13.113710869248091,-3.085586503759155 L13.674327844883166,-3.1445051730283002 L18.88158515063716,-4.1404244116481435" fill="blue" fill-opacity="0.6" stroke="black" stroke-width="1" />
<path d="M13.113710869248091,3.085586503759155 L13.674327844883166,3.1445051730283002 L18.88158515063716,4.1404244116481435" fill="purple" fill-opacity="0.6" stroke="black" stroke-width="1" />
<path d="M13.674327844883166,-3.1445051730283002 L18.88158515063716,-4.1404244116481435 L19.0,-0.0" fill="yellow" fill-opacity="0.6" stroke="black" stroke-width="1" />
<path d="M13.674327844883166,3.1445051730283002 L18.88158515063716,4.1404244116481435 L19.0,-0.0" fill="purple" fill-opacity="0.6" stroke="black" stroke-width="1" />
<path d="M19.0,-0.0 L20.41830728831733,-7.181556971612914 L21.006458077853253,-7.930017047519586" fill="yellow" fill-opacity="0.6" stroke="black" stroke-width="1" />
<path d="M19.0,-0.0 L20.41830728831733,7.181556971612914 L21.006458077853253,7.930017047519586" fill="black" fill-opacity="0.6" stroke="black" stroke-width="1" />
<path d="M20.41830728831733,-7.181556971612914 L21.006458077853253,-7.930017047519586 L21.914394809194786,-8.409465506557048" fill="green" fill-opacity="0.6" stroke="black" stroke-width="1" />
<path d="M20.41830728831733,7.181556971612914 L21.006458077853253,7.930017047519586 L21.914394809194786,8.409465506557048" fill="red" fill-opacity="0.6" stroke="black" stroke-width="1" />
<path d="M21.006458077853253,-7.930017047519586 L21.914394809194786,-8.409465506557048 L22.313111828590895,-10.628322883903271" fill="orange" fill-opacity="0.6" stroke="black" stroke-width="1" />
<path d="M21.006458077853253,7.930017047519586 L21.914394809194786,8.409465506557048 L22.313111828590895,10.628322883903271" fill="yellow" fill-opacity="0.6" stroke="black" stroke-width="1" />
<path d="M21.914394809194786,-8.409465506557048 L22.313111828590895,-10.628322883903271 L28.282149975089776,-11.187572204981109" fill="red" fill-opacity="0.6" stroke="black" stroke-width="1" />
<path d="M21.914394809194786,8.409465506557048 L22.313111828590895,10.628322883903271 L28.282149975089776,11.187572204981109" fill="purple" fill-opacity="0.6" stroke="black" stroke-width="1" />
<path d="M22.313111828590895,-10.628322883903271 L28.282149975089776,-11.187572204981109 L32.72339480893194,-13.649716827116071" fill="purple" fill-opacity="0.6" stroke="black" stroke-width="1" />
<path d="M22.313111828590895,10.628322883903271 L28.282149975089776,11.187572204981109 L32.72339480893194,13.649716827116071" fill="pink" fill-opacity="0.6" stroke="black" stroke-width="1" />
<path d="M28.282149975089776,-11.187572204981109 L32.72339480893194,-13.649716827116071 L46.0,-0.0" fill="orange" fill-opacity="0.6" stroke="black" stroke-width="1" />
<path d="M28.282149975089776,11.187572204981109 L32.72339480893194,13.649716827116071 L46.0,-0.0" fill="black" fill-opacity="0.6" stroke="black" stroke-width="1" />
<path d="M50.0,50.0 L46.0,54.0 L40.39891781918773,55.87098062381857" fill="yellow" fill-opacity="0.6" stroke="black" stroke-width="1" />
<path d="M50.0,-50.0 L46.0,-54.0 L40.39891781918773,-55.87098062381857" fill="orange" fill-opacity="0.6" stroke="black" stroke-width="1" />
<path d="M50.0,-8.0 L35.41257462175924,-15.929202756242267 L50.0,-16.0" fill="black" fill-opacity="0.6" stroke="black" stroke-width="1" />
<path d="M50.0,8.0 L35.41257462175924,15.929202756242267 L50.0,16.0" fill="green" fill-opacity="0.6" stroke="black" stroke-width="1" />
<path d="M50.0,-16.0 L35.78058805416951,-23.22623155463178 L50.0,-27.0" fill="green" fill-opacity="0.6" stroke="black" stroke-width="1" />
<path d="M50.0,16.0 L35.78058805416951,23.22623155463178 L50.0,27.0" fill="yellow" fill-opacity="0.6" stroke="black" stroke-width="1" />
<path d="M50.0,-27.0 L41.19508230336656,-27.662777746164828 L50.0,-32.0" fill="black" fill-opacity="0.6" stroke="black" stroke-width="1" />
<path d="M50.0,27.0 L41.19508230336656,27.662777746164828 L50.0,32.0" fill="green" fill-opacity="0.6" stroke="black" stroke-width="1" />
<path d="M50.0,-32.0 L43.79182907648567,-33.86145206149344 L50.0,-46.0" fill="blue" fill-opacity="0.6" stroke="black" stroke-width="1" />
<path d="M50.0,32.0 L43.79182907648567,33.86145206149344 L50.0,46.0" fill="red" fill-opacity="0.6" stroke="black" stroke-width="1" />
<path d="M46.0,-46.0 L44.12901937618143,-40.39891781918773 L32.0,-32.0" fill="pink" fill-opacity="0.6" stroke="black" stroke-width="1" />
<path d="M46.0,46.0 L44.12901937618143,40.39891781918773 L32.0,32.0" fill="green" fill-opacity="0.6" stroke="black" stroke-width="1" />
<path d="M40.39891781918773,55.87098062381857 L32.0,68.0 L31.0,69.0" fill="green" fill-opacity="0.6" stroke="black" stroke-width="1" />
<path d="M40.39891781918773,-55.87098062381857 L32.0,-68.0 L31.0,-69.0" fill="yellow" fill-opacity="0.6" stroke="black" stroke-width="1" />
<path d="M32.0,68.0 L31.0,69.0 L23.0,77.0" fill="blue" fill-opacity="0.6" stroke="black" stroke-width="1" />
<path d="M32.0,-68.0 L31.0,-69.0 L23.0,-77.0" fill="black" fill-opacity="0.6" stroke="black" stroke-width="1" />
<path d="M31.0,69.0 L23.0,77.0 L18.0,82.0" fill="brown" fill-opacity="0.6" stroke="black" stroke-width="1" />
<path d="M31.0,-69.0 L23.0,-77.0 L18.0,-82.0" fill="blue" fill-opacity="0.6" stroke="black" stroke-width="1" />
<path d="M23.0,77.0 L18.0,82.0 L1.2469921302193436,95.82900537614003" fill="green" fill-opacity="0.6" stroke="black" stroke-width="1" />
<path d="M23.0,-77.0 L18.0,-82.0 L1.2469921302193436,-95.82900537614003" fill="red" fill-opacity="0.6" stroke="black" stroke-width="1" />
<path d="M18.0,-18.0 L4.170994623859959,-1.2469921302193436 L1.7838185022729935,-0.682763443541507" fill="blue" fill-opacity="0.6" stroke="black" stroke-width="1" />
<path d="M18.0,18.0 L4.170994623859959,1.2469921302193436 L1.7838185022729935,0.682763443541507" fill="blue" fill-opacity="0.6" stroke="black" stroke-width="1" />
<path d="M4.170994623859959,-1.2469921302193436 L1.7838185022729935,-0.682763443541507 L0.7314337394215387,-0.46333449660452" fill="green" fill-opacity="0.6" stroke="black" stroke-width="1" />
<path d="M4.170994623859959,1.2469921302193436 L1.7838185022729935,0.682763443541507 L0.7314337394215387,0.46333449660452" fill="purple" fill-opacity="0.6" stroke="black" stroke-width="1" />
<path d="M1.7838185022729935,-0.682763443541507 L0.7314337394215387,-0.46333449660452 L0.2710654919595379,-0.18584037730057518" fill="blue" fill-opacity="0.6" stroke="black" stroke-width="1" />
<path d="M1.7838185022729935,0.682763443541507 L0.7314337394215387,0.46333449660452 L0.2710654919595379,0.18584037730057518" fill="green" fill-opacity="0.6" stroke="black" stroke-width="1" />
<path d="M0.7314337394215387,-0.46333449660452 L0.2710654919595379,-0.18584037730057518 L0.0,-0.0" fill="red" fill-opacity="0.6" stroke="black" stroke-width="1" />
<path d="M0.7314337394215387,0.46333449660452 L0.2710654919595379,0.18584037730057518 L0.0,-0.0" fill="orange" fill-opacity="0.6" stroke="black" stroke-width="1" />
<path d="M-9.0,-0.0 L-10.579670478060898,-1.6403756182544915 L-12.0,-0.0" fill="purple" fill-opacity="0.6" stroke="black" stroke-width="1" />
<path d="M-9.0,-0.0 L-10.579670478060898,1.6403756182544915 L-12.0,-0.0" fill="brown" fill-opacity="0.6" stroke="black" stroke-width="1" />
<path d="M-12.0,-0.0 L-13.113710869248091,-3.085586503759155 L-13.674327844883166,-3.1445051730283002" fill="purple" fill-opacity="0.6" stroke="black" stroke-width="1" />
<path d="M-12.0,-0.0 L-13.113710869248091,3.085586503759155 L-13.674327844883166,3.1445051730283002" fill="green" fill-opacity="0.6" stroke="black" stroke-width="1" />
<path d="M-13.113710869248091,-3.085586503759155 L-13.674327844883166,-3.1445051730283002 L-18.88158515063716,-4.1404244116481435" fill="green" fill-opacity="0.6" stroke="black" stroke-width="1" />
<path d="M-13.113710869248091,3.085586503759155 L-13.674327844883166,3.1445051730283002 L-18.88158515063716,4.1404244116481435" fill="yellow" fill-opacity="0.6" stroke="black" stroke-width="1" />
<path d="M-13.674327844883166,-3.1445051730283002 L-18.88158515063716,-4.1404244116481435 L-19.0,-0.0" fill="blue" fill-opacity="0.6" stroke="black" stroke-width="1" />
<path d="M-13.674327844883166,3.1445051730283002 L-18.88158515063716,4.1404244116481435 L-19.0,-0.0" fill="green" fill-opacity="0.6" stroke="black" stroke-width="1" />
<path d="M-19.0,-0.0 L-20.41830728831733,-7.181556971612914 L-21.006458077853253,-7.930017047519586" fill="brown" fill-opacity="0.6" stroke="black" stroke-width="1" />
<path d="M-19.0,-0.0 L-20.41830728831733,7.181556971612914 L-21.006458077853253,7.930017047519586" fill="pink" fill-opacity="0.6" stroke="black" stroke-width="1" />
<path d="M-20.41830728831733,-7.181556971612914 L-21.006458077853253,-7.930017047519586 L-21.914394809194786,-8.409465506557048" fill="brown" fill-opacity="0.6" stroke="black" stroke-width="1" />
<path d="M-20.41830728831733,7.181556971612914 L-21.006458077853253,7.930017047519586 L-21.914394809194786,8.409465506557048" fill="black" fill-opacity="0.6" stroke="black" stroke-width="1" />
<path d="M-21.006458077853253,-7.930017047519586 L-21.914394809194786,-8.409465506557048 L-22.313111828590895,-10.628322883903271" fill="green" fill-opacity="0.6" stroke="black" stroke-width="1" />
<path d="M-21.006458077853253,7.930017047519586 L-21.914394809194786,8.409465506557048 L-22.313111828590895,10.628322883903271" fill="green" fill-opacity="0.6" stroke="black" stroke-width="1" />
<path d="M-21.914394809194786,-8.409465506557048 L-22.313111828590895,-10.628322883903271 L-28.282149975089776,-11.187572204981109" fill="black" fill-opacity="0.6" stroke="black" stroke-width="1" />
<path d="M-21.914394809194786,8.409465506557048 L-22.313111828590895,10.628322883903271 L-28.282149975089776,11.187572204981109" fill="black" fill-opacity="0.6" stroke="black" stroke-width="1" />
<path d="M-22.313111828590895,-10.628322883903271 L-28.282149975089776,-11.187572204981109 L-32.72339480893194,-13.649716827116071" fill="purple" fill-opacity="0.6" stroke="black" stroke-width="1" />
<path d="M-22.313111828590895,10.628322883903271 L-28.282149975089776,11.187572204981109 L-32.72339480893194,13.649716827116071" fill="black" fill-opacity="0.6" stroke="black" stroke-width="1" />
<path d="M-28.282149975089776,-11.187572204981109 L-32.72339480893194,-13.649716827116071 L-46.0,-0.0" fill="orange" fill-opacity="0.6" stroke="black" stroke-width="1" />
<path d="M-28.282149975089776,11.187572204981109 L-32.72339480893194,13.649716827116071 L-46.0,-0.0" fill="orange" fill-opacity="0.6" stroke="black" stroke-width="1" />
<path d="M-50.0,50.0 L-46.0,54.0 L-40.39891781918773,55.87098062381857" fill="brown" fill-opacity="0.6" stroke="black" stroke-width="1" />
<path d="M-50.0,-50.0 L-46.0,-54.0 L-40.39891781918773,-55.87098062381857" fill="orange" fill-opacity="0.6" stroke="black" stroke-width="1" />
<path d="M-50.0,-8.0 L-35.41257462175924,-15.929202756242267 L-50.0,-16.0" fill="orange" fill-opacity="0.6" stroke="black" stroke-width="1" />
<path d="M-50.0,8.0 L-35.41257462175924,15.929202756242267 L-50.0,16.0" fill="yellow" fill-opacity="0.6" stroke="black" stroke-width="1" />
<path d="M-50.0,-16.0 L-35.78058805416951,-23.22623155463178 L-50.0,-27.0" fill="green" fill-opacity="0.6" stroke="black" stroke-width="1" />
<path d="M-50.0,16.0 L-35.78058805416951,23.22623155463178 L-50.0,27.0" fill="yellow" fill-opacity="0.6" stroke="black" stroke-width="1" />
<path d="M-50.0,-27.0 L-41.19508230336656,-27.662777746164828 L-50.0,-32.0" fill="purple" fill-opacity="0.6" stroke="black" stroke-width="1" />
<path d="M-50.0,27.0 L-41.19508230336656,27.662777746164828 L-50.0,32.0" fill="yellow" fill-opacity="0.6" stroke="black" stroke-width="1" />
<path d="M-50.0,-32.0 L-43.79182907648567,-33.86145206149344 L-50.0,-46.0" fill="orange" fill-opacity="0.6" stroke="black" stroke-width="1" />
<path d="M-50.0,32.0 L-43.79182907648567,33.86145206149344 L-50.0,46.0" fill="pink" fill-opacity="0.6" stroke="black" stroke-width="1" />
<path d="M-46.0,-46.0 L-44.12901937618143,-40.39891781918773 L-32.0,-32.0" fill="green" fill-opacity="0.6" stroke="black" stroke-width="1" />
<path d="M-46.0,46.0 L-44.12901937618143,40.39891781918773 L-32.0,32.0" fill="red" fill-opacity="0.6" stroke="black" stroke-width="1" />
<path d="M-40.39891781918773,55.87098062381857 L-32.0,68.0 L-31.0,69.0" fill="red" fill-opacity="0.6" stroke="black" stroke-width="1" />
<path d="M-40.39891781918773,-55.87098062381857 L-32.0,-68.0 L-31.0,-69.0" fill="green" fill-opacity="0.6" stroke="black" stroke-width="1" />
<path d="M-32.0,68.0 L-31.0,69.0 L-23.0,77.0" fill="yellow" fill-opacity="0.6" stroke="black" stroke-width="1" />
<path d="M-32.0,-68.0 L-31.0,-69.0 L-23.0,-77.0" fill="orange" fill-opacity="0.6" stroke="black" stroke-width="1" />
<path d="M-31.0,69.0 L-23.0,77.0 L-18.0,82.0" fill="blue" fill-opacity="0.6" stroke="black" stroke-width="1" />
<path d="M-31.0,-69.0 L-23.0,-77.0 L-18.0,-82.0" fill="black" fill-opacity="0.6" stroke="black" stroke-width="1" />
<path d="M-23.0,77.0 L-18.0,82.0 L-1.2469921302193436,95.82900537614005" fill="purple" fill-opacity="0.6" stroke="black" stroke-width="1" />
<path d="M-23.0,-77.0 L-18.0,-82.0 L-1.2469921302193436,-95.82900537614003" fill="red" fill-opacity="0.6" stroke="black" stroke-width="1" />
<path d="M-18.0,-18.0 L-4.170994623859959,-1.2469921302193436 L-1.7838185022729935,-0.682763443541507" fill="orange" fill-opacity="0.6" stroke="black" stroke-width="1" />
<path d="M-18.0,18.0 L-4.170994623859959,1.2469921302193436 L-1.7838185022729935,0.682763443541507" fill="brown" fill-opacity="0.6" stroke="black" stroke-width="1" />
<path d="M-4.170994623859959,-1.2469921302193436 L-1.7838185022729935,-0.682763443541507 L-0.7314337394215387,-0.46333449660452" fill="red" fill-opacity="0.6" stroke="black" stroke-width="1" />
<path d="M-4.170994623859959,1.2469921302193436 L-1.7838185022729935,0.682763443541507 L-0.7314337394215387,0.46333449660452" fill="brown" fill-opacity="0.6" stroke="black" stroke-width="1" />
<path d="M-1.7838185022729935,-0.682763443541507 L-0.7314337394215387,-0.46333449660452 L-0.2710654919595379,-0.18584037730057518" fill="orange" fill-opacity="0.6" stroke="black" stroke-width="1" />
<path d="M-1.7838185022729935,0.682763443541507 L-0.7314337394215387,0.46333449660452 L-0.2710654919595379,0.18584037730057518" fill="purple" fill-opacity="0.6" stroke="black" stroke-width="1" />
<path d="M-0.7314337394215387,-0.46333449660452 L-0.2710654919595379,-0.18584037730057518 L0.0,-0.0" fill="purple" fill-opacity="0.6" stroke="black" stroke-width="1" />
<path d="M-0.7314337394215387,0.46333449660452 L-0.2710654919595379,0.18584037730057518 L0.0,-0.0" fill="blue" fill-opacity="0.6" stroke="black" stroke-width="1" />
<path d="M91.0,-0.0 L89.4203295219391,1.6403756182544915 L88.0,-0.0" fill="yellow" fill-opacity="0.6" stroke="black" stroke-width="1" />
<path d="M91.0,-0.0 L89.4203295219391,-1.6403756182544915 L88.0,-0.0" fill="blue" fill-opacity="0.6" stroke="black" stroke-width="1" />
<path d="M88.0,-0.0 L86.8862891307519,3.085586503759155 L86.32567215511683,3.1445051730283002" fill="pink" fill-opacity="0.6" stroke="black" stroke-width="1" />
<path d="M88.0,-0.0 L86.8862891307519,-3.085586503759155 L86.32567215511683,-3.1445051730283002" fill="brown" fill-opacity="0.6" stroke="black" stroke-width="1" />
<path d="M86.8862891307519,3.085586503759155 L86.32567215511683,3.1445051730283002 L81.11841484936284,4.1404244116481435" fill="yellow" fill-opacity="0.6" stroke="black" stroke-width="1" />
<path d="M86.8862891307519,-3.085586503759155 L86.32567215511683,-3.1445051730283002 L81.11841484936284,-4.1404244116481435" fill="purple" fill-opacity="0.6" stroke="black" stroke-width="1" />
<path d="M86.32567215511683,3.1445051730283002 L81.11841484936284,4.1404244116481435 L81.0,-0.0" fill="brown" fill-opacity="0.6" stroke="black" stroke-width="1" />
<path d="M86.32567215511683,-3.1445051730283002 L81.11841484936284,-4.1404244116481435 L81.0,-0.0" fill="green" fill-opacity="0.6" stroke="black" stroke-width="1" />
<path d="M81.0,-0.0 L79.58169271168268,7.181556971612914 L78.99354192214675,7.930017047519586" fill="black" fill-opacity="0.6" stroke="black" stroke-width="1" />
<path d="M81.0,-0.0 L79.58169271168268,-7.181556971612914 L78.99354192214675,-7.930017047519586" fill="orange" fill-opacity="0.6" stroke="black" stroke-width="1" />
<path d="M79.58169271168268,7.181556971612914 L78.99354192214675,7.930017047519586 L78.08560519080521,8.409465506557048" fill="green" fill-opacity="0.6" stroke="black" stroke-width="1" />
<path d="M79.58169271168268,-7.181556971612914 L78.99354192214675,-7.930017047519586 L78.08560519080521,-8.409465506557048" fill="red" fill-opacity="0.6" stroke="black" stroke-width="1" />
<path d="M78.99354192214675,7.930017047519586 L78.08560519080521,8.409465506557048 L77.68688817140911,10.628322883903271" fill="blue" fill-opacity="0.6" stroke="black" stroke-width="1" />
<path d="M78.99354192214675,-7.930017047519586 L78.08560519080521,-8.409465506557048 L77.68688817140911,-10.628322883903271" fill="brown" fill-opacity="0.6" stroke="black" stroke-width="1" />
<path d="M78.08560519080521,8.409465506557048 L77.68688817140911,10.628322883903271 L71.71785002491022,11.187572204981109" fill="orange" fill-opacity="0.6" stroke="black" stroke-width="1" />
<path d="M78.08560519080521,-8.409465506557048 L77.68688817140911,-10.628322883903271 L71.71785002491022,-11.187572204981109" fill="orange" fill-opacity="0.6" stroke="black" stroke-width="1" />
<path d="M77.68688817140911,10.628322883903271 L71.71785002491022,11.187572204981109 L67.27660519106806,13.649716827116071" fill="purple" fill-opacity="0.6" stroke="black" stroke-width="1" />
<path d="M77.68688817140911,-10.628322883903271 L71.71785002491022,-11.187572204981109 L67.27660519106806,-13.649716827116071" fill="yellow" fill-opacity="0.6" stroke="black" stroke-width="1" />
<path d="M71.71785002491022,11.187572204981109 L67.27660519106806,13.649716827116071 L54.0,-0.0" fill="yellow" fill-opacity="0.6" stroke="black" stroke-width="1" />
<path d="M71.71785002491022,-11.187572204981109 L67.27660519106806,-13.649716827116071 L54.0,-0.0" fill="black" fill-opacity="0.6" stroke="black" stroke-width="1" />
<path d="M50.0,50.0 L54.0,46.0 L55.87098062381857,40.39891781918773" fill="green" fill-opacity="0.6" stroke="black" stroke-width="1" />
<path d="M50.0,-50.0 L54.0,-46.0 L55.87098062381857,-40.39891781918773" fill="green" fill-opacity="0.6" stroke="black" stroke-width="1" />
<path d="M50.0,8.0 L64.58742537824077,15.929202756242267 L50.0,16.0" fill="brown" fill-opacity="0.6" stroke="black" stroke-width="1" />
<path d="M50.0,-8.0 L64.58742537824077,-15.929202756242267 L50.0,-16.0" fill="pink" fill-opacity="0.6" stroke="black" stroke-width="1" />
<path d="M50.0,16.0 L64.21941194583049,23.22623155463178 L50.0,27.0" fill="pink" fill-opacity="0.6" stroke="black" stroke-width="1" />
<path d="M50.0,-16.0 L64.21941194583049,-23.22623155463178 L50.0,-27.0" fill="blue" fill-opacity="0.6" stroke="black" stroke-width="1" />
<path d="M50.0,27.0 L58.80491769663344,27.662777746164828 L50.0,32.0" fill="yellow" fill-opacity="0.6" stroke="black" stroke-width="1" />
<path d="M50.0,-27.0 L58.80491769663344,-27.662777746164828 L50.0,-32.0" fill="green" fill-opacity="0.6" stroke="black" stroke-width="1" />
<path d="M50.0,32.0 L56.20817092351433,33.86145206149344 L50.0,46.0" fill="brown" fill-opacity="0.6" stroke="black" stroke-width="1" />
<path d="M50.0,-32.0 L56.20817092351433,-33.86145206149344 L50.0,-46.0" fill="green" fill-opacity="0.6" stroke="black" stroke-width="1" />
<path d="M54.0,46.0 L55.87098062381857,40.39891781918773 L68.0,32.0" fill="purple" fill-opacity="0.6" stroke="black" stroke-width="1" />
<path d="M54.0,-46.0 L55.87098062381857,-40.39891781918773 L68.0,-32.0" fill="pink" fill-opacity="0.6" stroke="black" stroke-width="1" />
<path d="M55.87098062381857,40.39891781918773 L68.0,32.0 L69.0,31.0" fill="black" fill-opacity="0.6" stroke="black" stroke-width="1" />
<path d="M55.87098062381857,-40.39891781918773 L68.0,-32.0 L69.0,-31.0" fill="green" fill-opacity="0.6" stroke="black" stroke-width="1" />
<path d="M68.0,32.0 L69.0,31.0 L77.0,23.0" fill="pink" fill-opacity="0.6" stroke="black" stroke-width="1" />
<path d="M68.0,-32.0 L69.0,-31.0 L77.0,-23.0" fill="brown" fill-opacity="0.6" stroke="black" stroke-width="1" />
<path d="M69.0,31.0 L77.0,23.0 L82.0,18.0" fill="yellow" fill-opacity="0.6" stroke="black" stroke-width="1" />
<path d="M69.0,-31.0 L77.0,-23.0 L82.0,-18.0" fill="brown" fill-opacity="0.6" stroke="black" stroke-width="1" />
<path d="M77.0,23.0 L82.0,18.0 L95.82900537614003,1.2469921302193436" fill="pink" fill-opacity="0.6" stroke="black" stroke-width="1" />
<path d="M77.0,-23.0 L82.0,-18.0 L95.82900537614003,-1.2469921302193436" fill="brown" fill-opacity="0.6" stroke="black" stroke-width="1" />
<path d="M82.0,18.0 L95.82900537614003,1.2469921302193436 L98.216181497727,0.682763443541507" fill="blue" fill-opacity="0.6" stroke="black" stroke-width="1" />
<path d="M82.0,-18.0 L95.82900537614003,-1.2469921302193436 L98.216181497727,-0.682763443541507" fill="red" fill-opacity="0.6" stroke="black" stroke-width="1" />
<path d="M95.82900537614003,1.2469921302193436 L98.216181497727,0.682763443541507 L99.26856626057847,0.46333449660452" fill="blue" fill-opacity="0.6" stroke="black" stroke-width="1" />
<path d="M95.82900537614003,-1.2469921302193436 L98.216181497727,-0.682763443541507 L99.26856626057847,-0.46333449660452" fill="black" fill-opacity="0.6" stroke="black" stroke-width="1" />
<path d="M98.216181497727,0.682763443541507 L99.26856626057847,0.46333449660452 L99.72893450804045,0.18584037730057518" fill="purple" fill-opacity="0.6" stroke="black" stroke-width="1" />
<path d="M98.216181497727,-0.682763443541507 L99.26856626057847,-0.46333449660452 L99.72893450804045,-0.18584037730057518" fill="brown" fill-opacity="0.6" stroke="black" stroke-width="1" />
<path d="M99.26856626057847,0.46333449660452 L99.72893450804045,0.18584037730057518 L100.0,-0.0" fill="red" fill-opacity="0.6" stroke="black" stroke-width="1" />
<path d="M99.26856626057847,-0.46333449660452 L99.72893450804045,-0.18584037730057518 L100.0,-0.0" fill="yellow" fill-opacity="0.6" stroke="black" stroke-width="1" />
<path d="M0.0,-9.0 L1.6403756182544915,-10.579670478060898 L0.0,-12.0" fill="black" fill-opacity="0.6" stroke="black" stroke-width="1" />
<path d="M0.0,9.0 L1.6403756182544915,10.579670478060898 L0.0,12.0" fill="black" fill-opacity="0.6" stroke="black" stroke-width="1" />
<path d="M0.0,91.0 L1.6403756182544915,89.4203295219391 L0.0,88.0" fill="pink" fill-opacity="0.6" stroke="black" stroke-width="1" />
<path d="M0.0,-91.0 L1.6403756182544915,-89.4203295219391 L0.0,-88.0" fill="blue" fill-opacity="0.6" stroke="black" stroke-width="1" />
<path d="M0.0,-12.0 L3.085586503759155,-13.113710869248091 L3.1445051730283002,-13.674327844883166" fill="green" fill-opacity="0.6" stroke="black" stroke-width="1" />
<path d="M0.0,12.0 L3.085586503759155,13.113710869248091 L3.1445051730283002,13.674327844883166" fill="green" fill-opacity="0.6" stroke="black" stroke-width="1" />
<path d="M0.0,88.0 L3.085586503759155,86.8862891307519 L3.1445051730283002,86.32567215511683" fill="orange" fill-opacity="0.6" stroke="black" stroke-width="1" />
<path d="M0.0,-88.0 L3.085586503759155,-86.8862891307519 L3.1445051730283002,-86.32567215511683" fill="green" fill-opacity="0.6" stroke="black" stroke-width="1" />
<path d="M3.085586503759155,-13.113710869248091 L3.1445051730283002,-13.674327844883166 L4.1404244116481435,-18.88158515063716" fill="black" fill-opacity="0.6" stroke="black" stroke-width="1" />
<path d="M3.085586503759155,13.113710869248091 L3.1445051730283002,13.674327844883166 L4.1404244116481435,18.88158515063716" fill="green" fill-opacity="0.6" stroke="black" stroke-width="1" />
<path d="M3.085586503759155,86.8862891307519 L3.1445051730283002,86.32567215511683 L4.1404244116481435,81.11841484936284" fill="green" fill-opacity="0.6" stroke="black" stroke-width="1" />
<path d="M3.085586503759155,-86.8862891307519 L3.1445051730283002,-86.32567215511683 L4.1404244116481435,-81.11841484936284" fill="purple" fill-opacity="0.6" stroke="black" stroke-width="1" />
<path d="M3.1445051730283002,-13.674327844883166 L4.1404244116481435,-18.88158515063716 L0.0,-19.0" fill="pink" fill-opacity="0.6" stroke="black" stroke-width="1" />
<path d="M3.1445051730283002,13.674327844883166 L4.1404244116481435,18.88158515063716 L0.0,19.0" fill="yellow" fill-opacity="0.6" stroke="black" stroke-width="1" />
<path d="M3.1445051730283002,86.32567215511683 L4.1404244116481435,81.11841484936284 L0.0,81.0" fill="green" fill-opacity="0.6" stroke="black" stroke-width="1" />
<path d="M3.1445051730283002,-86.32567215511683 L4.1404244116481435,-81.11841484936284 L0.0,-81.0" fill="red" fill-opacity="0.6" stroke="black" stroke-width="1" />
<path d="M0.0,-19.0 L7.181556971612914,-20.41830728831733 L7.930017047519586,-21.006458077853253" fill="black" fill-opacity="0.6" stroke="black" stroke-width="1" />
<path d="M0.0,19.0 L7.181556971612914,20.41830728831733 L7.930017047519586,21.006458077853253" fill="purple" fill-opacity="0.6" stroke="black" stroke-width="1" />
<path d="M0.0,81.0 L7.181556971612914,79.58169271168268 L7.930017047519586,78.99354192214675" fill="purple" fill-opacity="0.6" stroke="black" stroke-width="1" />
<path d="M0.0,-81.0 L7.181556971612914,-79.58169271168268 L7.930017047519586,-78.99354192214675" fill="red" fill-opacity="0.6" stroke="black" stroke-width="1" />
<path d="M7.181556971612914,-20.41830728831733 L7.930017047519586,-21.006458077853253 L8.409465506557048,-21.914394809194786" fill="pink" fill-opacity="0.6" stroke="black" stroke-width="1" />
<path d="M7.181556971612914,20.41830728831733 L7.930017047519586,21.006458077853253 L8.409465506557048,21.914394809194786" fill="black" fill-opacity="0.6" stroke="black" stroke-width="1" />
<path d="M7.181556971612914,79.58169271168268 L7.930017047519586,78.99354192214675 L8.409465506557048,78.08560519080521" fill="pink" fill-opacity="0.6" stroke="black" stroke-width="1" />
<path d="M7.181556971612914,-79.58169271168268 L7.930017047519586,-78.99354192214675 L8.409465506557048,-78.08560519080521" fill="orange" fill-opacity="0.6" stroke="black" stroke-width="1" />
<path d="M7.930017047519586,-21.006458077853253 L8.409465506557048,-21.914394809194786 L10.628322883903271,-22.313111828590895" fill="purple" fill-opacity="0.6" stroke="black" stroke-width="1" />
<path d="M7.930017047519586,21.006458077853253 L8.409465506557048,21.914394809194786 L10.628322883903271,22.313111828590895" fill="brown" fill-opacity="0.6" stroke="black" stroke-width="1" />
<path d="M7.930017047519586,78.99354192214675 L8.409465506557048,78.08560519080521 L10.628322883903271,77.68688817140911" fill="red" fill-opacity="0.6" stroke="black" stroke-width="1" />
<path d="M7.930017047519586,-78.99354192214675 L8.409465506557048,-78.08560519080521 L10.628322883903271,-77.68688817140911" fill="purple" fill-opacity="0.6" stroke="black" stroke-width="1" />
<path d="M8.409465506557048,-21.914394809194786 L10.628322883903271,-22.313111828590895 L11.187572204981109,-28.282149975089776" fill="black" fill-opacity="0.6" stroke="black" stroke-width="1" />
<path d="M8.409465506557048,21.914394809194786 L10.628322883903271,22.313111828590895 L11.187572204981109,28.282149975089776" fill="purple" fill-opacity="0.6" stroke="black" stroke-width="1" />
<path d="M8.409465506557048,78.08560519080521 L10.628322883903271,77.68688817140911 L11.187572204981109,71.71785002491022" fill="green" fill-opacity="0.6" stroke="black" stroke-width="1" />
<path d="M8.409465506557048,-78.08560519080521 L10.628322883903271,-77.68688817140911 L11.187572204981109,-71.71785002491022" fill="orange" fill-opacity="0.6" stroke="black" stroke-width="1" />
<path d="M10.628322883903271,-22.313111828590895 L11.187572204981109,-28.282149975089776 L13.649716827116071,-32.72339480893194" fill="blue" fill-opacity="0.6" stroke="black" stroke-width="1" />
<path d="M10.628322883903271,22.313111828590895 L11.187572204981109,28.282149975089776 L13.649716827116071,32.72339480893194" fill="green" fill-opacity="0.6" stroke="black" stroke-width="1" />
<path d="M10.628322883903271,77.68688817140911 L11.187572204981109,71.71785002491022 L13.649716827116071,67.27660519106806" fill="purple" fill-opacity="0.6" stroke="black" stroke-width="1" />
<path d="M10.628322883903271,-77.68688817140911 L11.187572204981109,-71.71785002491022 L13.649716827116071,-67.27660519106806" fill="brown" fill-opacity="0.6" stroke="black" stroke-width="1" />
<path d="M11.187572204981109,-28.282149975089776 L13.649716827116071,-32.72339480893194 L0.0,-46.0" fill="black" fill-opacity="0.6" stroke="black" stroke-width="1" />
<path d="M11.187572204981109,28.282149975089776 L13.649716827116071,32.72339480893194 L0.0,46.0" fill="blue" fill-opacity="0.6" stroke="black" stroke-width="1" />
<path d="M11.187572204981109,71.71785002491022 L13.649716827116071,67.27660519106806 L0.0,54.0" fill="brown" fill-opacity="0.6" stroke="black" stroke-width="1" />
<path d="M11.187572204981109,-71.71785002491022 L13.649716827116071,-67.27660519106806 L0.0,-54.0" fill="pink" fill-opacity="0.6" stroke="black" stroke-width="1" />
<path d="M8.0,-50.0 L15.929202756242267,-35.41257462175924 L16.0,-50.0" fill="red" fill-opacity="0.6" stroke="black" stroke-width="1" />
<path d="M8.0,50.0 L15.929202756242267,35.41257462175924 L16.0,50.0" fill="orange" fill-opacity="0.6" stroke="black" stroke-width="1" />
<path d="M8.0,50.0 L15.929202756242267,64.58742537824077 L16.0,50.0" fill="purple" fill-opacity="0.6" stroke="black" stroke-width="1" />
<path d="M8.0,-50.0 L15.929202756242267,-64.58742537824077 L16.0,-50.0" fill="brown" fill-opacity="0.6" stroke="black" stroke-width="1" />
<path d="M16.0,-50.0 L23.22623155463178,-35.78058805416951 L27.0,-50.0" fill="purple" fill-opacity="0.6" stroke="black" stroke-width="1" />
<path d="M16.0,50.0 L23.22623155463178,35.78058805416951 L27.0,50.0" fill="orange" fill-opacity="0.6" stroke="black" stroke-width="1" />
<path d="M16.0,50.0 L23.22623155463178,64.21941194583049 L27.0,50.0" fill="blue" fill-opacity="0.6" stroke="black" stroke-width="1" />
<path d="M16.0,-50.0 L23.22623155463178,-64.21941194583049 L27.0,-50.0" fill="yellow" fill-opacity="0.6" stroke="black" stroke-width="1" />
<path d="M27.0,-50.0 L27.662777746164828,-41.19508230336656 L32.0,-50.0" fill="black" fill-opacity="0.6" stroke="black" stroke-width="1" />
<path d="M27.0,50.0 L27.662777746164828,41.19508230336656 L32.0,50.0" fill="yellow" fill-opacity="0.6" stroke="black" stroke-width="1" />
<path d="M27.0,50.0 L27.662777746164828,58.80491769663344 L32.0,50.0" fill="red" fill-opacity="0.6" stroke="black" stroke-width="1" />
<path d="M27.0,-50.0 L27.662777746164828,-58.80491769663344 L32.0,-50.0" fill="black" fill-opacity="0.6" stroke="black" stroke-width="1" />
<path d="M32.0,-50.0 L33.86145206149344,-43.79182907648567 L46.0,-50.0" fill="yellow" fill-opacity="0.6" stroke="black" stroke-width="1" />
<path d="M32.0,50.0 L33.86145206149344,43.79182907648567 L46.0,50.0" fill="pink" fill-opacity="0.6" stroke="black" stroke-width="1" />
<path d="M32.0,50.0 L33.86145206149344,56.20817092351433 L46.0,50.0" fill="black" fill-opacity="0.6" stroke="black" stroke-width="1" />
<path d="M32.0,-50.0 L33.86145206149344,-56.20817092351433 L46.0,-50.0" fill="green" fill-opacity="0.6" stroke="black" stroke-width="1" />
<path d="M46.0,-46.0 L40.39891781918773,-44.12901937618143 L32.0,-32.0" fill="yellow" fill-opacity="0.6" stroke="black" stroke-width="1" />
<path d="M46.0,46.0 L40.39891781918773,44.12901937618143 L32.0,32.0" fill="orange" fill-opacity="0.6" stroke="black" stroke-width="1" />
<path d="M46.0,54.0 L40.39891781918773,55.87098062381857 L32.0,68.0" fill="green" fill-opacity="0.6" stroke="black" stroke-width="1" />
<path d="M46.0,-54.0 L40.39891781918773,-55.87098062381857 L32.0,-68.0" fill="purple" fill-opacity="0.6" stroke="black" stroke-width="1" />
<path d="M18.0,-18.0 L1.2469921302193436,-4.170994623859959 L0.682763443541507,-1.7838185022729935" fill="brown" fill-opacity="0.6" stroke="black" stroke-width="1" />
<path d="M18.0,18.0 L1.2469921302193436,4.170994623859959 L0.682763443541507,1.7838185022729935" fill="black" fill-opacity="0.6" stroke="black" stroke-width="1" />
<path d="M18.0,82.0 L1.2469921302193436,95.82900537614003 L0.682763443541507,98.216181497727" fill="orange" fill-opacity="0.6" stroke="black" stroke-width="1" />
<path d="M18.0,-82.0 L1.2469921302193436,-95.82900537614003 L0.682763443541507,-98.216181497727" fill="green" fill-opacity="0.6" stroke="black" stroke-width="1" />
<path d="M1.2469921302193436,-4.170994623859959 L0.682763443541507,-1.7838185022729935 L0.46333449660452,-0.7314337394215387" fill="green" fill-opacity="0.6" stroke="black" stroke-width="1" />
<path d="M1.2469921302193436,4.170994623859959 L0.682763443541507,1.7838185022729935 L0.46333449660452,0.7314337394215387" fill="yellow" fill-opacity="0.6" stroke="black" stroke-width="1" />
<path d="M1.2469921302193436,95.82900537614003 L0.682763443541507,98.216181497727 L0.46333449660452,99.26856626057847" fill="black" fill-opacity="0.6" stroke="black" stroke-width="1" />
<path d="M1.2469921302193436,-95.82900537614003 L0.682763443541507,-98.216181497727 L0.46333449660452,-99.26856626057847" fill="black" fill-opacity="0.6" stroke="black" stroke-width="1" />
<path d="M0.682763443541507,-1.7838185022729935 L0.46333449660452,-0.7314337394215387 L0.18584037730057518,-0.2710654919595379" fill="brown" fill-opacity="0.6" stroke="black" stroke-width="1" />
<path d="M0.682763443541507,1.7838185022729935 L0.46333449660452,0.7314337394215387 L0.18584037730057518,0.2710654919595379" fill="pink" fill-opacity="0.6" stroke="black" stroke-width="1" />
<path d="M0.682763443541507,98.216181497727 L0.46333449660452,99.26856626057847 L0.18584037730057518,99.72893450804045" fill="green" fill-opacity="0.6" stroke="black" stroke-width="1" />
<path d="M0.682763443541507,-98.216181497727 L0.46333449660452,-99.26856626057847 L0.18584037730057518,-99.72893450804045" fill="pink" fill-opacity="0.6" stroke="black" stroke-width="1" />
<path d="M0.46333449660452,-0.7314337394215387 L0.18584037730057518,-0.2710654919595379 L0.0,-0.0" fill="brown" fill-opacity="0.6" stroke="black" stroke-width="1" />
<path d="M0.46333449660452,0.7314337394215387 L0.18584037730057518,0.2710654919595379 L0.0,-0.0" fill="orange" fill-opacity="0.6" stroke="black" stroke-width="1" />
<path d="M0.46333449660452,99.26856626057847 L0.18584037730057518,99.72893450804045 L0.0,100.0" fill="pink" fill-opacity="0.6" stroke="black" stroke-width="1" />
<path d="M0.46333449660452,-99.26856626057847 L0.18584037730057518,-99.72893450804045 L0.0,-100.0" fill="red" fill-opacity="0.6" stroke="black" stroke-width="1" />
<path d="M0.0,91.0 L-1.6403756182544915,89.4203295219391 L0.0,88.0" fill="purple" fill-opacity="0.6" stroke="black" stroke-width="1" />
<path d="M0.0,-9.0 L-1.6403756182544915,-10.579670478060898 L0.0,-12.0" fill="black" fill-opacity="0.6" stroke="black" stroke-width="1" />
<path d="M0.0,9.0 L-1.6403756182544915,10.579670478060905 L0.0,12.0" fill="blue" fill-opacity="0.6" stroke="black" stroke-width="1" />
<path d="M0.0,-91.0 L-1.6403756182544915,-89.4203295219391 L0.0,-88.0" fill="black" fill-opacity="0.6" stroke="black" stroke-width="1" />
<path d="M0.0,88.0 L-3.085586503759155,86.8862891307519 L-3.1445051730283002,86.32567215511683" fill="orange" fill-opacity="0.6" stroke="black" stroke-width="1" />
<path d="M0.0,-12.0 L-3.085586503759155,-13.113710869248091 L-3.1445051730283002,-13.674327844883166" fill="pink" fill-opacity="0.6" stroke="black" stroke-width="1" />
<path d="M0.0,12.0 L-3.085586503759155,13.113710869248095 L-3.1445051730283002,13.674327844883166" fill="pink" fill-opacity="0.6" stroke="black" stroke-width="1" />
<path d="M0.0,-88.0 L-3.085586503759155,-86.8862891307519 L-3.1445051730283002,-86.32567215511683" fill="purple" fill-opacity="0.6" stroke="black" stroke-width="1" />
<path d="M-3.085586503759155,86.8862891307519 L-3.1445051730283002,86.32567215511683 L-4.1404244116481435,81.11841484936284" fill="pink" fill-opacity="0.6" stroke="black" stroke-width="1" />
<path d="M-3.085586503759155,-13.113710869248091 L-3.1445051730283002,-13.674327844883166 L-4.1404244116481435,-18.88158515063716" fill="purple" fill-opacity="0.6" stroke="black" stroke-width="1" />
<path d="M-3.085586503759155,13.113710869248095 L-3.1445051730283002,13.674327844883166 L-4.1404244116481435,18.881585150637164" fill="orange" fill-opacity="0.6" stroke="black" stroke-width="1" />
<path d="M-3.085586503759155,-86.8862891307519 L-3.1445051730283002,-86.32567215511683 L-4.1404244116481435,-81.11841484936284" fill="black" fill-opacity="0.6" stroke="black" stroke-width="1" />
<path d="M-3.1445051730283002,86.32567215511683 L-4.1404244116481435,81.11841484936284 L0.0,81.0" fill="black" fill-opacity="0.6" stroke="black" stroke-width="1" />
<path d="M-3.1445051730283002,-13.674327844883166 L-4.1404244116481435,-18.88158515063716 L0.0,-19.0" fill="pink" fill-opacity="0.6" stroke="black" stroke-width="1" />
<path d="M-3.1445051730283002,13.674327844883166 L-4.1404244116481435,18.881585150637164 L0.0,19.0" fill="pink" fill-opacity="0.6" stroke="black" stroke-width="1" />
<path d="M-3.1445051730283002,-86.32567215511683 L-4.1404244116481435,-81.11841484936284 L0.0,-81.0" fill="green" fill-opacity="0.6" stroke="black" stroke-width="1" />
<path d="M0.0,81.0 L-7.181556971612914,79.58169271168268 L-7.930017047519586,78.99354192214675" fill="red" fill-opacity="0.6" stroke="black" stroke-width="1" />
<path d="M0.0,-19.0 L-7.181556971612914,-20.41830728831733 L-7.930017047519586,-21.006458077853253" fill="red" fill-opacity="0.6" stroke="black" stroke-width="1" />
<path d="M0.0,19.0 L-7.181556971612914,20.418307288317322 L-7.930017047519586,21.006458077853253" fill="yellow" fill-opacity="0.6" stroke="black" stroke-width="1" />
<path d="M0.0,-81.0 L-7.181556971612914,-79.58169271168268 L-7.930017047519586,-78.99354192214675" fill="red" fill-opacity="0.6" stroke="black" stroke-width="1" />
<path d="M-7.181556971612914,79.58169271168268 L-7.930017047519586,78.99354192214675 L-8.409465506557048,78.08560519080521" fill="purple" fill-opacity="0.6" stroke="black" stroke-width="1" />
<path d="M-7.181556971612914,-20.41830728831733 L-7.930017047519586,-21.006458077853253 L-8.409465506557048,-21.914394809194786" fill="yellow" fill-opacity="0.6" stroke="black" stroke-width="1" />
<path d="M-7.181556971612914,20.418307288317322 L-7.930017047519586,21.006458077853253 L-8.409465506557048,21.91439480919479" fill="pink" fill-opacity="0.6" stroke="black" stroke-width="1" />
<path d="M-7.181556971612914,-79.58169271168268 L-7.930017047519586,-78.99354192214675 L-8.409465506557048,-78.08560519080521" fill="black" fill-opacity="0.6" stroke="black" stroke-width="1" />
<path d="M-7.930017047519586,78.99354192214675 L-8.409465506557048,78.08560519080521 L-10.628322883903271,77.68688817140911" fill="orange" fill-opacity="0.6" stroke="black" stroke-width="1" />
<path d="M-7.930017047519586,-21.006458077853253 L-8.409465506557048,-21.914394809194786 L-10.628322883903271,-22.313111828590895" fill="pink" fill-opacity="0.6" stroke="black" stroke-width="1" />
<path d="M-7.930017047519586,21.006458077853253 L-8.409465506557048,21.91439480919479 L-10.628322883903271,22.31311182859089" fill="black" fill-opacity="0.6" stroke="black" stroke-width="1" />
<path d="M-7.930017047519586,-78.99354192214675 L-8.409465506557048,-78.08560519080521 L-10.628322883903271,-77.68688817140911" fill="green" fill-opacity="0.6" stroke="black" stroke-width="1" />
<path d="M-8.409465506557048,78.08560519080521 L-10.628322883903271,77.68688817140911 L-11.187572204981109,71.71785002491022" fill="purple" fill-opacity="0.6" stroke="black" stroke-width="1" />
<path d="M-8.409465506557048,-21.914394809194786 L-10.628322883903271,-22.313111828590895 L-11.187572204981109,-28.282149975089776" fill="red" fill-opacity="0.6" stroke="black" stroke-width="1" />
<path d="M-8.409465506557048,21.91439480919479 L-10.628322883903271,22.31311182859089 L-11.187572204981109,28.28214997508978" fill="black" fill-opacity="0.6" stroke="black" stroke-width="1" />
<path d="M-8.409465506557048,-78.08560519080521 L-10.628322883903271,-77.68688817140911 L-11.187572204981109,-71.71785002491022" fill="pink" fill-opacity="0.6" stroke="black" stroke-width="1" />
<path d="M-10.628322883903271,77.68688817140911 L-11.187572204981109,71.71785002491022 L-13.649716827116071,67.27660519106806" fill="orange" fill-opacity="0.6" stroke="black" stroke-width="1" />
<path d="M-10.628322883903271,-22.313111828590895 L-11.187572204981109,-28.282149975089776 L-13.649716827116071,-32.72339480893194" fill="pink" fill-opacity="0.6" stroke="black" stroke-width="1" />
<path d="M-10.628322883903271,22.31311182859089 L-11.187572204981109,28.28214997508978 L-13.649716827116071,32.72339480893194" fill="red" fill-opacity="0.6" stroke="black" stroke-width="1" />
<path d="M-10.628322883903271,-77.68688817140911 L-11.187572204981109,-71.71785002491022 L-13.649716827116071,-67.27660519106806" fill="red" fill-opacity="0.6" stroke="black" stroke-width="1" />
<path d="M-11.187572204981109,71.71785002491022 L-13.649716827116071,67.27660519106806 L0.0,54.0" fill="yellow" fill-opacity="0.6" stroke="black" stroke-width="1" />
<path d="M-11.187572204981109,-28.282149975089776 L-13.649716827116071,-32.72339480893194 L0.0,-46.0" fill="yellow" fill-opacity="0.6" stroke="black" stroke-width="1" />
<path d="M-11.187572204981109,28.28214997508978 L-13.649716827116071,32.72339480893194 L0.0,46.0" fill="green" fill-opacity="0.6" stroke="black" stroke-width="1" />
<path d="M-11.187572204981109,-71.71785002491022 L-13.649716827116071,-67.27660519106806 L0.0,-54.0" fill="purple" fill-opacity="0.6" stroke="black" stroke-width="1" />
<path d="M-8.0,50.0 L-15.929202756242267,64.58742537824077 L-16.0,50.0" fill="black" fill-opacity="0.6" stroke="black" stroke-width="1" />
<path d="M-8.0,-50.0 L-15.929202756242267,-35.41257462175924 L-16.0,-50.0" fill="purple" fill-opacity="0.6" stroke="black" stroke-width="1" />
<path d="M-8.0,50.0 L-15.929202756242267,35.412574621759234 L-16.0,50.0" fill="black" fill-opacity="0.6" stroke="black" stroke-width="1" />
<path d="M-8.0,-50.0 L-15.929202756242267,-64.58742537824077 L-16.0,-50.0" fill="red" fill-opacity="0.6" stroke="black" stroke-width="1" />
<path d="M-16.0,50.0 L-23.22623155463178,64.21941194583049 L-27.0,50.0" fill="orange" fill-opacity="0.6" stroke="black" stroke-width="1" />
<path d="M-16.0,-50.0 L-23.22623155463178,-35.78058805416951 L-27.0,-50.0" fill="green" fill-opacity="0.6" stroke="black" stroke-width="1" />
<path d="M-16.0,50.0 L-23.22623155463178,35.78058805416951 L-27.0,50.0" fill="orange" fill-opacity="0.6" stroke="black" stroke-width="1" />
<path d="M-16.0,-50.0 L-23.22623155463178,-64.21941194583049 L-27.0,-50.0" fill="brown" fill-opacity="0.6" stroke="black" stroke-width="1" />
<path d="M-27.0,50.0 L-27.662777746164828,58.80491769663344 L-32.0,50.0" fill="green" fill-opacity="0.6" stroke="black" stroke-width="1" />
<path d="M-27.0,-50.0 L-27.662777746164828,-41.19508230336656 L-32.0,-50.0" fill="pink" fill-opacity="0.6" stroke="black" stroke-width="1" />
<path d="M-27.0,50.0 L-27.662777746164828,41.19508230336656 L-32.0,50.0" fill="pink" fill-opacity="0.6" stroke="black" stroke-width="1" />
<path d="M-27.0,-50.0 L-27.662777746164828,-58.80491769663344 L-32.0,-50.0" fill="brown" fill-opacity="0.6" stroke="black" stroke-width="1" />
<path d="M-32.0,50.0 L-33.86145206149344,56.20817092351433 L-46.0,50.0" fill="yellow" fill-opacity="0.6" stroke="black" stroke-width="1" />
<path d="M-32.0,-50.0 L-33.86145206149344,-43.79182907648567 L-46.0,-50.0" fill="blue" fill-opacity="0.6" stroke="black" stroke-width="1" />
<path d="M-32.0,50.0 L-33.86145206149344,43.79182907648567 L-46.0,50.0" fill="pink" fill-opacity="0.6" stroke="black" stroke-width="1" />
<path d="M-32.0,-50.0 L-33.86145206149344,-56.20817092351433 L-46.0,-50.0" fill="brown" fill-opacity="0.6" stroke="black" stroke-width="1" />
<path d="M-46.0,54.0 L-40.39891781918773,55.87098062381857 L-32.0,68.0" fill="pink" fill-opacity="0.6" stroke="black" stroke-width="1" />
<path d="M-46.0,-46.0 L-40.39891781918773,-44.12901937618143 L-32.0,-32.0" fill="purple" fill-opacity="0.6" stroke="black" stroke-width="1" />
<path d="M-46.0,46.0 L-40.39891781918773,44.12901937618143 L-32.0,32.0" fill="brown" fill-opacity="0.6" stroke="black" stroke-width="1" />
<path d="M-46.0,-54.0 L-40.39891781918773,-55.87098062381857 L-32.0,-68.0" fill="purple" fill-opacity="0.6" stroke="black" stroke-width="1" />
<path d="M-18.0,82.0 L-1.2469921302193436,95.82900537614005 L-0.682763443541507,98.216181497727" fill="red" fill-opacity="0.6" stroke="black" stroke-width="1" />
<path d="M-18.0,-18.0 L-1.2469921302193436,-4.170994623859959 L-0.682763443541507,-1.7838185022729935" fill="black" fill-opacity="0.6" stroke="black" stroke-width="1" />
<path d="M-18.0,18.0 L-1.2469921302193436,4.170994623859954 L-0.682763443541507,1.783818502272993" fill="purple" fill-opacity="0.6" stroke="black" stroke-width="1" />
<path d="M-18.0,-82.0 L-1.2469921302193436,-95.82900537614003 L-0.682763443541507,-98.216181497727" fill="green" fill-opacity="0.6" stroke="black" stroke-width="1" />
<path d="M-1.2469921302193436,95.82900537614005 L-0.682763443541507,98.216181497727 L-0.46333449660452,99.26856626057847" fill="green" fill-opacity="0.6" stroke="black" stroke-width="1" />
<path d="M-1.2469921302193436,-4.170994623859959 L-0.682763443541507,-1.7838185022729935 L-0.46333449660452,-0.7314337394215387" fill="purple" fill-opacity="0.6" stroke="black" stroke-width="1" />
<path d="M-1.2469921302193436,4.170994623859954 L-0.682763443541507,1.783818502272993 L-0.46333449660452,0.7314337394215329" fill="yellow" fill-opacity="0.6" stroke="black" stroke-width="1" />
<path d="M-1.2469921302193436,-95.82900537614003 L-0.682763443541507,-98.216181497727 L-0.46333449660452,-99.26856626057847" fill="blue" fill-opacity="0.6" stroke="black" stroke-width="1" />
<path d="M-0.682763443541507,98.216181497727 L-0.46333449660452,99.26856626057847 L-0.18584037730057518,99.72893450804047" fill="purple" fill-opacity="0.6" stroke="black" stroke-width="1" />
<path d="M-0.682763443541507,-1.7838185022729935 L-0.46333449660452,-0.7314337394215387 L-0.18584037730057518,-0.2710654919595379" fill="orange" fill-opacity="0.6" stroke="black" stroke-width="1" />
<path d="M-0.682763443541507,1.783818502272993 L-0.46333449660452,0.7314337394215329 L-0.18584037730057518,0.2710654919595328" fill="green" fill-opacity="0.6" stroke="black" stroke-width="1" />
<path d="M-0.682763443541507,-98.216181497727 L-0.46333449660452,-99.26856626057847 L-0.18584037730057518,-99.72893450804045" fill="green" fill-opacity="0.6" stroke="black" stroke-width="1" />
<path d="M-0.46333449660452,99.26856626057847 L-0.18584037730057518,99.72893450804047 L0.0,100.0" fill="purple" fill-opacity="0.6" stroke="black" stroke-width="1" />
<path d="M-0.46333449660452,-0.7314337394215387 L-0.18584037730057518,-0.2710654919595379 L0.0,-0.0" fill="red" fill-opacity="0.6" stroke="black" stroke-width="1" />
<path d="M-0.46333449660452,0.7314337394215329 L-0.18584037730057518,0.2710654919595328 L0.0,-0.0" fill="blue" fill-opacity="0.6" stroke="black" stroke-width="1" />
<path d="M-0.46333449660452,-99.26856626057847 L-0.18584037730057518,-99.72893450804045 L0.0,-100.0" fill="pink" fill-opacity="0.6" stroke="black" stroke-width="1" />
<path d="M-91.0,-0.0 L-89.4203295219391,-1.6403756182544915 L-88.0,-0.0" fill="black" fill-opacity="0.6" stroke="black" stroke-width="1" />
<path d="M-91.0,-0.0 L-89.4203295219391,1.6403756182544915 L-88.0,-0.0" fill="green" fill-opacity="0.6" stroke="black" stroke-width="1" />
<path d="M-88.0,-0.0 L-86.8862891307519,-3.085586503759155 L-86.32567215511683,-3.1445051730283002" fill="purple" fill-opacity="0.6" stroke="black" stroke-width="1" />
<path d="M-88.0,-0.0 L-86.8862891307519,3.085586503759155 L-86.32567215511683,3.1445051730283002" fill="brown" fill-opacity="0.6" stroke="black" stroke-width="1" />
<path d="M-86.8862891307519,-3.085586503759155 L-86.32567215511683,-3.1445051730283002 L-81.11841484936284,-4.1404244116481435" fill="red" fill-opacity="0.6" stroke="black" stroke-width="1" />
<path d="M-86.8862891307519,3.085586503759155 L-86.32567215511683,3.1445051730283002 L-81.11841484936284,4.1404244116481435" fill="brown" fill-opacity="0.6" stroke="black" stroke-width="1" />
<path d="M-86.32567215511683,-3.1445051730283002 L-81.11841484936284,-4.1404244116481435 L-81.0,-0.0" fill="brown" fill-opacity="0.6" stroke="black" stroke-width="1" />
<path d="M-86.32567215511683,3.1445051730283002 L-81.11841484936284,4.1404244116481435 L-81.0,-0.0" fill="yellow" fill-opacity="0.6" stroke="black" stroke-width="1" />
<path d="M-81.0,-0.0 L-79.58169271168268,-7.181556971612914 L-78.99354192214675,-7.930017047519586" fill="black" fill-opacity="0.6" stroke="black" stroke-width="1" />
<path d="M-81.0,-0.0 L-79.58169271168268,7.181556971612914 L-78.99354192214675,7.930017047519586" fill="orange" fill-opacity="0.6" stroke="black" stroke-width="1" />
<path d="M-79.58169271168268,-7.181556971612914 L-78.99354192214675,-7.930017047519586 L-78.08560519080521,-8.409465506557048" fill="pink" fill-opacity="0.6" stroke="black" stroke-width="1" />
<path d="M-79.58169271168268,7.181556971612914 L-78.99354192214675,7.930017047519586 L-78.08560519080521,8.409465506557048" fill="orange" fill-opacity="0.6" stroke="black" stroke-width="1" />
<path d="M-78.99354192214675,-7.930017047519586 L-78.08560519080521,-8.409465506557048 L-77.68688817140911,-10.628322883903271" fill="brown" fill-opacity="0.6" stroke="black" stroke-width="1" />
<path d="M-78.99354192214675,7.930017047519586 L-78.08560519080521,8.409465506557048 L-77.68688817140911,10.628322883903271" fill="black" fill-opacity="0.6" stroke="black" stroke-width="1" />
<path d="M-78.08560519080521,-8.409465506557048 L-77.68688817140911,-10.628322883903271 L-71.71785002491022,-11.187572204981109" fill="black" fill-opacity="0.6" stroke="black" stroke-width="1" />
<path d="M-78.08560519080521,8.409465506557048 L-77.68688817140911,10.628322883903271 L-71.71785002491022,11.187572204981109" fill="black" fill-opacity="0.6" stroke="black" stroke-width="1" />
<path d="M-77.68688817140911,-10.628322883903271 L-71.71785002491022,-11.187572204981109 L-67.27660519106806,-13.649716827116071" fill="yellow" fill-opacity="0.6" stroke="black" stroke-width="1" />
<path d="M-77.68688817140911,10.628322883903271 L-71.71785002491022,11.187572204981109 L-67.27660519106806,13.649716827116071" fill="brown" fill-opacity="0.6" stroke="black" stroke-width="1" />
<path d="M-71.71785002491022,-11.187572204981109 L-67.27660519106806,-13.649716827116071 L-54.0,-0.0" fill="pink" fill-opacity="0.6" stroke="black" stroke-width="1" />
<path d="M-71.71785002491022,11.187572204981109 L-67.27660519106806,13.649716827116071 L-54.0,-0.0" fill="black" fill-opacity="0.6" stroke="black" stroke-width="1" />
<path d="M-50.0,-50.0 L-54.0,-46.0 L-55.87098062381857,-40.39891781918773" fill="blue" fill-opacity="0.6" stroke="black" stroke-width="1" />
<path d="M-50.0,50.0 L-54.0,46.0 L-55.87098062381857,40.39891781918773" fill="brown" fill-opacity="0.6" stroke="black" stroke-width="1" />
<path d="M-50.0,-8.0 L-64.58742537824077,-15.929202756242267 L-50.0,-16.0" fill="brown" fill-opacity="0.6" stroke="black" stroke-width="1" />
<path d="M-50.0,8.0 L-64.58742537824077,15.929202756242267 L-50.0,16.0" fill="blue" fill-opacity="0.6" stroke="black" stroke-width="1" />
<path d="M-50.0,-16.0 L-64.21941194583049,-23.22623155463178 L-50.0,-27.0" fill="pink" fill-opacity="0.6" stroke="black" stroke-width="1" />
<path d="M-50.0,16.0 L-64.21941194583049,23.22623155463178 L-50.0,27.0" fill="yellow" fill-opacity="0.6" stroke="black" stroke-width="1" />
<path d="M-50.0,-27.0 L-58.80491769663344,-27.662777746164828 L-50.0,-32.0" fill="orange" fill-opacity="0.6" stroke="black" stroke-width="1" />
<path d="M-50.0,27.0 L-58.80491769663344,27.662777746164828 L-50.0,32.0" fill="red" fill-opacity="0.6" stroke="black" stroke-width="1" />
<path d="M-50.0,-32.0 L-56.20817092351433,-33.86145206149344 L-50.0,-46.0" fill="yellow" fill-opacity="0.6" stroke="black" stroke-width="1" />
<path d="M-50.0,32.0 L-56.20817092351433,33.86145206149344 L-50.0,46.0" fill="red" fill-opacity="0.6" stroke="black" stroke-width="1" />
<path d="M-54.0,-46.0 L-55.87098062381857,-40.39891781918773 L-68.0,-32.0" fill="green" fill-opacity="0.6" stroke="black" stroke-width="1" />
<path d="M-54.0,46.0 L-55.87098062381857,40.39891781918773 L-68.0,32.0" fill="orange" fill-opacity="0.6" stroke="black" stroke-width="1" />
<path d="M-55.87098062381857,-40.39891781918773 L-68.0,-32.0 L-69.0,-31.0" fill="green" fill-opacity="0.6" stroke="black" stroke-width="1" />
<path d="M-55.87098062381857,40.39891781918773 L-68.0,32.0 L-69.0,31.0" fill="pink" fill-opacity="0.6" stroke="black" stroke-width="1" />
<path d="M-68.0,-32.0 L-69.0,-31.0 L-77.0,-23.0" fill="orange" fill-opacity="0.6" stroke="black" stroke-width="1" />
<path d="M-68.0,32.0 L-69.0,31.0 L-77.0,23.0" fill="black" fill-opacity="0.6" stroke="black" stroke-width="1" />
<path d="M-69.0,-31.0 L-77.0,-23.0 L-82.0,-18.0" fill="yellow" fill-opacity="0.6" stroke="black" stroke-width="1" />
<path d="M-69.0,31.0 L-77.0,23.0 L-82.0,18.0" fill="brown" fill-opacity="0.6" stroke="black" stroke-width="1" />
<path d="M-77.0,-23.0 L-82.0,-18.0 L-95.82900537614003,-1.2469921302193436" fill="purple" fill-opacity="0.6" stroke="black" stroke-width="1" />
<path d="M-77.0,23.0 L-82.0,18.0 L-95.82900537614003,1.2469921302193436" fill="pink" fill-opacity="0.6" stroke="black" stroke-width="1" />
<path d="M-82.0,-18.0 L-95.82900537614003,-1.2469921302193436 L-98.216181497727,-0.682763443541507" fill="orange" fill-opacity="0.6" stroke="black" stroke-width="1" />
<path d="M-82.0,18.0 L-95.82900537614003,1.2469921302193436 L-98.216181497727,0.682763443541507" fill="red" fill-opacity="0.6" stroke="black" stroke-width="1" />
<path d="M-95.82900537614003,-1.2469921302193436 L-98.216181497727,-0.682763443541507 L-99.26856626057847,-0.46333449660452" fill="yellow" fill-opacity="0.6" stroke="black" stroke-width="1" />
<path d="M-95.82900537614003,1.2469921302193436 L-98.216181497727,0.682763443541507 L-99.26856626057847,0.46333449660452" fill="purple" fill-opacity="0.6" stroke="black" stroke-width="1" />
<path d="M-98.216181497727,-0.682763443541507 L-99.26856626057847,-0.46333449660452 L-99.72893450804045,-0.18584037730057518" fill="yellow" fill-opacity="0.6" stroke="black" stroke-width="1" />
<path d="M-98.216181497727,0.682763443541507 L-99.26856626057847,0.46333449660452 L-99.72893450804045,0.18584037730057518" fill="orange" fill-opacity="0.6" stroke="black" stroke-width="1" />
<path d="M-99.26856626057847,-0.46333449660452 L-99.72893450804045,-0.18584037730057518 L-100.0,-0.0" fill="yellow" fill-opacity="0.6" stroke="black" stroke-width="1" />
<path d="M-99.26856626057847,0.46333449660452 L-99.72893450804045,0.18584037730057518 L-100.0,-0.0" fill="pink" fill-opacity="0.6" stroke="black" stroke-width="1" />
</svg>