<?xml version="1.0" encoding="UTF-8"?>
<svg xmlns="http://www.w3.org/2000/svg" xmlns:xlink="http://www.w3.org/1999/xlink"
     width="250" height="250" viewBox="-125.0 -125.0 250 250">
<defs>
</defs>
<path d="M9.0,91.0 L8.0,92.0 L0.0,100.0" fill="brown" fill-opacity="0.6" stroke="black" stroke-width="1" />
<path d="M9.0,-91.0 L8.0,-92.0 L0.0,-100.0" fill="purple" fill-opacity="0.6" stroke="black" stroke-width="1" />
<path d="M22.0,78.0 L10.0,90.0 L9.0,91.0" fill="green" fill-opacity="0.6" stroke="black" stroke-width="1" />
<path d="M22.0,-78.0 L10.0,-90.0 L9.0,-91.0" fill="yellow" fill-opacity="0.6" stroke="black" stroke-width="1" />
<path d="M23.0,77.0 L22.0,78.0 L10.0,90.0" fill="pink" fill-opacity="0.6" stroke="black" stroke-width="1" />
<path d="M23.0,-77.0 L22.0,-78.0 L10.0,-90.0" fill="orange" fill-opacity="0.6" stroke="black" stroke-width="1" />
<path d="M32.0,-0.0 L35.4177203330014,-5.1527644687787255 L38.0,-0.0" fill="brown" fill-opacity="0.6" stroke="black" stroke-width="1" />
<path d="M32.0,-0.0 L35.4177203330014,5.1527644687787255 L38.0,-0.0" fill="green" fill-opacity="0.6" stroke="black" stroke-width="1" />
<path d="M50.0,50.0 L46.0,54.0 L41.0,59.0" fill="blue" fill-opacity="0.6" stroke="black" stroke-width="1" />
<path d="M50.0,-50.0 L46.0,-54.0 L41.0,-59.0" fill="yellow" fill-opacity="0.6" stroke="black" stroke-width="1" />
<path d="M46.0,54.0 L41.0,59.0 L29.0,71.0" fill="orange" fill-opacity="0.6" stroke="black" stroke-width="1" />
<path d="M46.0,-54.0 L41.0,-59.0 L29.0,-71.0" fill="green" fill-opacity="0.6" stroke="black" stroke-width="1" />
<path d="M41.0,59.0 L29.0,71.0 L23.0,77.0" fill="yellow" fill-opacity="0.6" stroke="black" stroke-width="1" />
<path d="M41.0,-59.0 L29.0,-71.0 L23.0,-77.0" fill="yellow" fill-opacity="0.6" stroke="black" stroke-width="1" />
<path d="M29.0,71.0 L23.0,77.0 L22.0,78.0" fill="brown" fill-opacity="0.6" stroke="black" stroke-width="1" />
<path d="M29.0,-71.0 L23.0,-77.0 L22.0,-78.0" fill="yellow" fill-opacity="0.6" stroke="black" stroke-width="1" />
<path d="M10.0,90.0 L9.0,91.0 L8.0,92.0" fill="black" fill-opacity="0.6" stroke="black" stroke-width="1" />
<path d="M10.0,-90.0 L9.0,-91.0 L8.0,-92.0" fill="brown" fill-opacity="0.6" stroke="black" stroke-width="1" />
<path d="M-9.0,91.0 L-8.0,92.0 L0.0,100.0" fill="brown" fill-opacity="0.6" stroke="black" stroke-width="1" />
<path d="M-9.0,-91.0 L-8.0,-92.0 L0.0,-100.0" fill="orange" fill-opacity="0.6" stroke="black" stroke-width="1" />
<path d="M-22.0,78.0 L-10.0,90.0 L-9.0,91.0" fill="red" fill-opacity="0.6" stroke="black" stroke-width="1" />
<path d="M-22.0,-78.0 L-10.0,-90.0 L-9.0,-91.0" fill="red" fill-opacity="0.6" stroke="black" stroke-width="1" />
<path d="M-23.0,77.0 L-22.0,78.0 L-10.0,90.0" fill="red" fill-opacity="0.6" stroke="black" stroke-width="1" />
<path d="M-23.0,-77.0 L-22.0,-78.0 L-10.0,-90.0" fill="blue" fill-opacity="0.6" stroke="black" stroke-width="1" />
<path d="M-32.0,-0.0 L-35.4177203330014,-5.1527644687787255 L-38.0,-0.0" fill="blue" fill-opacity="0.6" stroke="black" stroke-width="1" />
<path d="M-32.0,-0.0 L-35.4177203330014,5.1527644687787255 L-38.0,-0.0" fill="black" fill-opacity="0.6" stroke="black" stroke-width="1" />
<path d="M-50.0,50.0 L-46.0,54.0 L-41.0,59.0" fill="green" fill-opacity="0.6" stroke="black" stroke-width="1" />
<path d="M-50.0,-50.0 L-46.0,-54.0 L-41.0,-59.0" fill="purple" fill-opacity="0.6" stroke="black" stroke-width="1" />
<path d="M-46.0,54.0 L-41.0,59.0 L-29.0,71.0" fill="yellow" fill-opacity="0.6" stroke="black" stroke-width="1" />
<path d="M-46.0,-54.0 L-41.0,-59.0 L-29.0,-71.0" fill="green" fill-opacity="0.6" stroke="black" stroke-width="1" />
<path d="M-41.0,59.0 L-29.0,71.0 L-23.0,77.0" fill="brown" fill-opacity="0.6" stroke="black" stroke-width="1" />
<path d="M-41.0,-59.0 L-29.0,-71.0 L-23.0,-77.0" fill="purple" fill-opacity="0.6" stroke="black" stroke-width="1" />
<path d="M-29.0,71.0 L-23.0,77.0 L-22.0,78.0" fill="orange" fill-opacity="0.6" stroke="black" stroke-width="1" />
<path d="M-29.0,-71.0 L-23.0,-77.0 L-22.0,-78.0" fill="brown" fill-opacity="0.6" stroke="black" stroke-width="1" />
<path d="M-10.0,90.0 L-9.0,91.0 L-8.0,92.0" fill="green" fill-opacity="0.6" stroke="black" stroke-width="1" />
<path d="M-10.0,-90.0 L-9.0,-91.0 L-8.0,-92.0" fill="orange" fill-opacity="0.6" stroke="black" stroke-width="1" />
<path d="M91.0,9.0 L92.0,8.0 L100.0,-0.0" fill="blue" fill-opacity="0.6" stroke="black" stroke-width="1" />
<path d="M91.0,-9.0 L92.0,-8.0 L100.0,-0.0" fill="black" fill-opacity="0.6" stroke="black" stroke-width="1" />
<path d="M78.0,22.0 L90.0,10.0 L91.0,9.0" fill="red" fill-opacity="0.6" stroke="black" stroke-width="1" />
<path d="M78.0,-22.0 L90.0,-10.0 L91.0,-9.0" fill="orange" fill-opacity="0.6" stroke="black" stroke-width="1" />
<path d="M77.0,23.0 L78.0,22.0 L90.0,10.0" fill="purple" fill-opacity="0.6" stroke="black" stroke-width="1" />
<path d="M77.0,-23.0 L78.0,-22.0 L90.0,-10.0" fill="brown" fill-opacity="0.6" stroke="black" stroke-width="1" />
<path d="M68.0,-0.0 L64.5822796669986,5.1527644687787255 L62.0,-0.0" fill="green" fill-opacity="0.6" stroke="black" stroke-width="1" />
<path d="M68.0,-0.0 L64.5822796669986,-5.1527644687787255 L62.0,-0.0" fill="pink" fill-opacity="0.6" stroke="black" stroke-width="1" />
<path d="M50.0,50.0 L54.0,46.0 L59.0,41.0" fill="purple" fill-opacity="0.6" stroke="black" stroke-width="1" />
<path d="M50.0,-50.0 L54.0,-46.0 L59.0,-41.0" fill="brown" fill-opacity="0.6" stroke="black" stroke-width="1" />
<path d="M54.0,46.0 L59.0,41.0 L71.0,29.0" fill="orange" fill-opacity="0.6" stroke="black" stroke-width="1" />
<path d="M54.0,-46.0 L59.0,-41.0 L71.0,-29.0" fill="yellow" fill-opacity="0.6" stroke="black" stroke-width="1" />
<path d="M59.0,41.0 L71.0,29.0 L77.0,23.0" fill="blue" fill-opacity="0.6" stroke="black" stroke-width="1" />
<path d="M59.0,-41.0 L71.0,-29.0 L77.0,-23.0" fill="brown" fill-opacity="0.6" stroke="black" stroke-width="1" />
<path d="M71.0,29.0 L77.0,23.0 L78.0,22.0" fill="red" fill-opacity="0.6" stroke="black" stroke-width="1" />
<path d="M71.0,-29.0 L77.0,-23.0 L78.0,-22.0" fill="black" fill-opacity="0.6" stroke="black" stroke-width="1" />
<path d="M90.0,10.0 L91.0,9.0 L92.0,8.0" fill="green" fill-opacity="0.6" stroke="black" stroke-width="1" />
<path d="M90.0,-10.0 L91.0,-9.0 L92.0,-8.0" fill="pink" fill-opacity="0.6" stroke="black" stroke-width="1" />
<path d="M0.0,-32.0 L5.1527644687787255,-35.4177203330014 L0.0,-38.0" fill="red" fill-opacity="0.6" stroke="black" stroke-width="1" />
<path d="M0.0,32.0 L5.1527644687787255,35.4177203330014 L0.0,38.0" fill="purple" fill-opacity="0.6" stroke="black" stroke-width="1" />
<path d="M0.0,68.0 L5.1527644687787255,64.5822796669986 L0.0,62.0" fill="yellow" fill-opacity="0.6" stroke="black" stroke-width="1" />
<path d="M0.0,-68.0 L5.1527644687787255,-64.5822796669986 L0.0,-62.0" fill="red" fill-opacity="0.6" stroke="black" stroke-width="1" />
<path d="M0.0,68.0 L-5.1527644687787255,64.5822796669986 L0.0,62.0" fill="purple" fill-opacity="0.6" stroke="black" stroke-width="1" />
<path d="M0.0,-32.0 L-5.1527644687787255,-35.4177203330014 L0.0,-38.0" fill="green" fill-opacity="0.6" stroke="black" stroke-width="1" />
<path d="M0.0,32.0 L-5.1527644687787255,35.4177203330014 L0.0,38.0" fill="orange" fill-opacity="0.6" stroke="black" stroke-width="1" />
<path d="M0.0,-68.0 L-5.1527644687787255,-64.5822796669986 L0.0,-62.0" fill="pink" fill-opacity="0.6" stroke="black" stroke-width="1" />
<path d="M-91.0,-9.0 L-92.0,-8.0 L-100.0,-0.0" fill="black" fill-opacity="0.6" stroke="black" stroke-width="1" />
<path d="M-91.0,9.0 L-92.0,8.0 L-100.0,-0.0" fill="blue" fill-opacity="0.6" stroke="black" stroke-width="1" />
<path d="M-78.0,-22.0 L-90.0,-10.0 L-91.0,-9.0" fill="red" fill-opacity="0.6" stroke="black" stroke-width="1" />
<path d="M-78.0,22.0 L-90.0,10.0 L-91.0,9.0" fill="yellow" fill-opacity="0.6" stroke="black" stroke-width="1" />
<path d="M-77.0,-23.0 L-78.0,-22.0 L-90.0,-10.0" fill="yellow" fill-opacity="0.6" stroke="black" stroke-width="1" />
<path d="M-77.0,23.0 L-78.0,22.0 L-90.0,10.0" fill="orange" fill-opacity="0.6" stroke="black" stroke-width="1" />
<path d="M-68.0,-0.0 L-64.5822796669986,-5.1527644687787255 L-62.0,-0.0" fill="red" fill-opacity="0.6" stroke="black" stroke-width="1" />
<path d="M-68.0,-0.0 L-64.5822796669986,5.1527644687787255 L-62.0,-0.0" fill="yellow" fill-opacity="0.6" stroke="black" stroke-width="1" />
<path d="M-50.0,-50.0 L-54.0,-46.0 L-59.0,-41.0" fill="blue" fill-opacity="0.6" stroke="black" stroke-width="1" />
<path d="M-50.0,50.0 L-54.0,46.0 L-59.0,41.0" fill="blue" fill-opacity="0.6" stroke="black" stroke-width="1" />
<path d="M-54.0,-46.0 L-59.0,-41.0 L-71.0,-29.0" fill="purple" fill-opacity="0.6" stroke="black" stroke-width="1" />
<path d="M-54.0,46.0 L-59.0,41.0 L-71.0,29.0" fill="pink" fill-opacity="0.6" stroke="black" stroke-width="1" />
<path d="M-59.0,-41.0 L-71.0,-29.0 L-77.0,-23.0" fill="purple" fill-opacity="0.6" stroke="black" stroke-width="1" />
<path d="M-59.0,41.0 L-71.0,29.0 L-77.0,23.0" fill="yellow" fill-opacity="0.6" stroke="black" stroke-width="1" />
<path d="M-71.0,-29.0 L-77.0,-23.0 L-78.0,-22.0" fill="yellow" fill-opacity="0.6" stroke="black" stroke-width="1" />
<path d="M-71.0,29.0 L-77.0,23.0 L-78.0,22.0" fill="green" fill-opacity="0.6" stroke="black" stroke-width="1" />
<path d="M-90.0,-10.0 L-91.0,-9.0 L-92.0,-8.0" fill="black" fill-opacity="0.6" stroke="black" stroke-width="1" />
<path d="M-90.0,10.0 L-91.0,9.0 L-92.0,8.0" fill="blue" fill-opacity="0.6" stroke="black" stroke-width="1" />
</svg>