<?xml version="1.0" encoding="UTF-8"?>
<svg xmlns="http://www.w3.org/2000/svg" xmlns:xlink="http://www.w3.org/1999/xlink"
     width="250" height="250" viewBox="-125.0 -125.0 250 250">
<defs>
</defs>
<path d="M13.0,-0.0 L22.785151164350914,-13.023652390196212 L29.62722411028266,-14.075382493681643" fill-opacity="0" stroke="black" stroke-width="1" />
<path d="M13.0,-0.0 L22.785151164350914,13.023652390196212 L29.62722411028266,14.075382493681643" fill-opacity="0" stroke="black" stroke-width="1" />
<path d="M22.785151164350914,-13.023652390196212 L29.62722411028266,-14.075382493681643 L43.0,-0.0" fill-opacity="0" stroke="black" stroke-width="1" />
<path d="M22.785151164350914,13.023652390196212 L29.62722411028266,14.075382493681643 L43.0,-0.0" fill-opacity="0" stroke="black" stroke-width="1" />
<path d="M50.0,-14.0 L41.03517874373424,-15.60505739110718 L45.80673776241861,-17.375096240075976" fill-opacity="0" stroke="black" stroke-width="1" />
<path d="M50.0,14.0 L41.03517874373424,15.60505739110718 L45.80673776241861,17.375096240075976" fill-opacity="0" stroke="black" stroke-width="1" />
<path d="M41.03517874373424,-15.60505739110718 L45.80673776241861,-17.375096240075976 L46.8496023684441,-18.120368369717593" fill-opacity="0" stroke="black" stroke-width="1" />
<path d="M41.03517874373424,15.60505739110718 L45.80673776241861,17.375096240075976 L46.8496023684441,18.120368369717593" fill-opacity="0" stroke="black" stroke-width="1" />
<path d="M45.80673776241861,-17.375096240075976 L46.8496023684441,-18.120368369717593 L50.0,-48.0" fill-opacity="0" stroke="black" stroke-width="1" />
<path d="M45.80673776241861,17.375096240075976 L46.8496023684441,18.120368369717593 L50.0,48.0" fill-opacity="0" stroke="black" stroke-width="1" />
<path d="M50.0,-48.0 L48.641366600511034,-45.18025906234927 L47.041813859540824,-40.0649588736003" fill-opacity="0" stroke="black" stroke-width="1" />
<path d="M50.0,48.0 L48.641366600511034,45.18025906234927 L47.041813859540824,40.0649588736003" fill-opacity="0" stroke="black" stroke-width="1" />
<path d="M48.641366600511034,-45.18025906234927 L47.041813859540824,-40.0649588736003 L39.0,-39.0" fill-opacity="0" stroke="black" stroke-width="1" />
<path d="M48.641366600511034,45.18025906234927 L47.041813859540824,40.0649588736003 L39.0,39.0" fill-opacity="0" stroke="black" stroke-width="1" />
<path d="M40.0649588736003,52.958186140459176 L39.0,61.0 L10.68865565840859,81.40384786923215" fill-opacity="0" stroke="black" stroke-width="1" />
<path d="M40.0649588736003,-52.958186140459176 L39.0,-61.0 L10.68865565840859,-81.40384786923215" fill-opacity="0" stroke="black" stroke-width="1" />
<path d="M39.0,-39.0 L18.596152130767855,-10.68865565840859 L17.0,-17.0" fill-opacity="0" stroke="black" stroke-width="1" />
<path d="M39.0,39.0 L18.596152130767855,10.68865565840859 L17.0,17.0" fill-opacity="0" stroke="black" stroke-width="1" />
<path d="M10.68865565840859,81.40384786923215 L17.0,83.0 L10.02410239486242,86.20316148148011" fill-opacity="0" stroke="black" stroke-width="1" />
<path d="M10.68865565840859,-81.40384786923215 L17.0,-83.0 L10.02410239486242,-86.20316148148011" fill-opacity="0" stroke="black" stroke-width="1" />
<path d="M17.0,-17.0 L13.796838518519893,-10.02410239486242 L11.239856991008747,-6.328783582744052" fill-opacity="0" stroke="black" stroke-width="1" />
<path d="M17.0,17.0 L13.796838518519893,10.02410239486242 L11.239856991008747,6.328783582744052" fill-opacity="0" stroke="black" stroke-width="1" />
<path d="M13.796838518519893,-10.02410239486242 L11.239856991008747,-6.328783582744052 L11.113224661313154,-5.801756210979252" fill-opacity="0" stroke="black" stroke-width="1" />
<path d="M13.796838518519893,10.02410239486242 L11.239856991008747,6.328783582744052 L11.113224661313154,5.801756210979252" fill-opacity="0" stroke="black" stroke-width="1" />
<path d="M11.239856991008747,-6.328783582744052 L11.113224661313154,-5.801756210979252 L8.162572978114012,-5.0691223874544" fill-opacity="0" stroke="black" stroke-width="1" />
<path d="M11.239856991008747,6.328783582744052 L11.113224661313154,5.801756210979252 L8.162572978114012,5.0691223874544" fill-opacity="0" stroke="black" stroke-width="1" />
<path d="M11.113224661313154,-5.801756210979252 L8.162572978114012,-5.0691223874544 L7.0,-7.0" fill-opacity="0" stroke="black" stroke-width="1" />
<path d="M11.113224661313154,5.801756210979252 L8.162572978114012,5.0691223874544 L7.0,7.0" fill-opacity="0" stroke="black" stroke-width="1" />
<path d="M5.0691223874544,91.83742702188599 L7.0,93.0 L3.570392048823174,94.16700886968488" fill-opacity="0" stroke="black" stroke-width="1" />
<path d="M5.0691223874544,-91.83742702188599 L7.0,-93.0 L3.570392048823174,-94.16700886968488" fill-opacity="0" stroke="black" stroke-width="1" />
<path d="M7.0,-7.0 L5.832991130315113,-3.570392048823174 L4.80864339356461,-1.2493641193882417" fill-opacity="0" stroke="black" stroke-width="1" />
<path d="M7.0,7.0 L5.832991130315113,3.570392048823174 L4.80864339356461,1.2493641193882417" fill-opacity="0" stroke="black" stroke-width="1" />
<path d="M5.832991130315113,-3.570392048823174 L4.80864339356461,-1.2493641193882417 L4.402296322594301,-0.10845244703090486" fill-opacity="0" stroke="black" stroke-width="1" />
<path d="M5.832991130315113,3.570392048823174 L4.80864339356461,1.2493641193882417 L4.402296322594301,0.10845244703090486" fill-opacity="0" stroke="black" stroke-width="1" />
<path d="M4.80864339356461,-1.2493641193882417 L4.402296322594301,-0.10845244703090486 L0.16026606301355328,-0.042220644438517585" fill-opacity="0" stroke="black" stroke-width="1" />
<path d="M4.80864339356461,1.2493641193882417 L4.402296322594301,0.10845244703090486 L0.16026606301355328,0.042220644438517585" fill-opacity="0" stroke="black" stroke-width="1" />
<path d="M4.402296322594301,-0.10845244703090486 L0.16026606301355328,-0.042220644438517585 L0.0,-0.0" fill-opacity="0" stroke="black" stroke-width="1" />
<path d="M4.402296322594301,0.10845244703090486 L0.16026606301355328,0.042220644438517585 L0.0,-0.0" fill-opacity="0" stroke="black" stroke-width="1" />
<path d="M-13.0,-0.0 L-22.785151164350914,-13.023652390196212 L-29.62722411028266,-14.075382493681643" fill-opacity="0" stroke="black" stroke-width="1" />
<path d="M-13.0,-0.0 L-22.785151164350914,13.023652390196212 L-29.62722411028266,14.075382493681643" fill-opacity="0" stroke="black" stroke-width="1" />
<path d="M-22.785151164350914,-13.023652390196212 L-29.62722411028266,-14.075382493681643 L-43.0,-0.0" fill-opacity="0" stroke="black" stroke-width="1" />
<path d="M-22.785151164350914,13.023652390196212 L-29.62722411028266,14.075382493681643 L-43.0,-0.0" fill-opacity="0" stroke="black" stroke-width="1" />
<path d="M-50.0,-14.0 L-41.03517874373424,-15.60505739110718 L-45.80673776241861,-17.375096240075976" fill-opacity="0" stroke="black" stroke-width="1" />
<path d="M-50.0,14.0 L-41.03517874373424,15.60505739110718 L-45.80673776241861,17.375096240075976" fill-opacity="0" stroke="black" stroke-width="1" />
<path d="M-41.03517874373424,-15.60505739110718 L-45.80673776241861,-17.375096240075976 L-46.8496023684441,-18.120368369717593" fill-opacity="0" stroke="black" stroke-width="1" />
<path d="M-41.03517874373424,15.60505739110718 L-45.80673776241861,17.375096240075976 L-46.8496023684441,18.120368369717593" fill-opacity="0" stroke="black" stroke-width="1" />
<path d="M-45.80673776241861,-17.375096240075976 L-46.8496023684441,-18.120368369717593 L-50.0,-48.0" fill-opacity="0" stroke="black" stroke-width="1" />
<path d="M-45.80673776241861,17.375096240075976 L-46.8496023684441,18.120368369717593 L-50.0,48.0" fill-opacity="0" stroke="black" stroke-width="1" />
<path d="M-50.0,-48.0 L-48.641366600511034,-45.18025906234927 L-47.041813859540824,-40.0649588736003" fill-opacity="0" stroke="black" stroke-width="1" />
<path d="M-50.0,48.0 L-48.641366600511034,45.18025906234927 L-47.041813859540824,40.0649588736003" fill-opacity="0" stroke="black" stroke-width="1" />
<path d="M-48.641366600511034,-45.18025906234927 L-47.041813859540824,-40.0649588736003 L-39.0,-39.0" fill-opacity="0" stroke="black" stroke-width="1" />
<path d="M-48.641366600511034,45.18025906234927 L-47.041813859540824,40.0649588736003 L-39.0,39.0" fill-opacity="0" stroke="black" stroke-width="1" />
<path d="M-40.0649588736003,52.958186140459176 L-39.0,61.0 L-10.68865565840859,81.40384786923215" fill-opacity="0" stroke="black" stroke-width="1" />
<path d="M-40.0649588736003,-52.958186140459176 L-39.0,-61.0 L-10.68865565840859,-81.40384786923215" fill-opacity="0" stroke="black" stroke-width="1" />
<path d="M-39.0,-39.0 L-18.596152130767855,-10.68865565840859 L-17.0,-17.0" fill-opacity="0" stroke="black" stroke-width="1" />
<path d="M-39.0,39.0 L-18.596152130767855,10.68865565840859 L-17.0,17.0" fill-opacity="0" stroke="black" stroke-width="1" />
<path d="M-10.68865565840859,81.40384786923215 L-17.0,83.0 L-10.02410239486242,86.20316148148011" fill-opacity="0" stroke="black" stroke-width="1" />
<path d="M-10.68865565840859,-81.40384786923215 L-17.0,-83.0 L-10.02410239486242,-86.20316148148011" fill-opacity="0" stroke="black" stroke-width="1" />
<path d="M-17.0,-17.0 L-13.796838518519893,-10.02410239486242 L-11.239856991008747,-6.328783582744052" fill-opacity="0" stroke="black" stroke-width="1" />
<path d="M-17.0,17.0 L-13.796838518519893,10.02410239486242 L-11.239856991008747,6.328783582744052" fill-opacity="0" stroke="black" stroke-width="1" />
<path d="M-13.796838518519893,-10.02410239486242 L-11.239856991008747,-6.328783582744052 L-11.113224661313154,-5.801756210979252" fill-opacity="0" stroke="black" stroke-width="1" />
<path d="M-13.796838518519893,10.02410239486242 L-11.239856991008747,6.328783582744052 L-11.113224661313154,5.801756210979252" fill-opacity="0" stroke="black" stroke-width="1" />
<path d="M-11.239856991008747,-6.328783582744052 L-11.113224661313154,-5.801756210979252 L-8.162572978114012,-5.0691223874544" fill-opacity="0" stroke="black" stroke-width="1" />
<path d="M-11.239856991008747,6.328783582744052 L-11.113224661313154,5.801756210979252 L-8.162572978114012,5.0691223874544" fill-opacity="0" stroke="black" stroke-width="1" />
<path d="M-11.113224661313154,-5.801756210979252 L-8.162572978114012,-5.0691223874544 L-7.0,-7.0" fill-opacity="0" stroke="black" stroke-width="1" />
<path d="M-11.113224661313154,5.801756210979252 L-8.162572978114012,5.0691223874544 L-7.0,7.0" fill-opacity="0" stroke="black" stroke-width="1" />
<path d="M-5.0691223874544,91.83742702188599 L-7.0,93.0 L-3.570392048823174,94.16700886968489" fill-opacity="0" stroke="black" stroke-width="1" />
<path d="M-5.0691223874544,-91.83742702188599 L-7.0,-93.0 L-3.570392048823174,-94.16700886968488" fill-opacity="0" stroke="black" stroke-width="1" />
<path d="M-7.0,-7.0 L-5.832991130315113,-3.570392048823174 L-4.80864339356461,-1.2493641193882417" fill-opacity="0" stroke="black" stroke-width="1" />
<path d="M-7.0,7.0 L-5.832991130315113,3.570392048823174 L-4.80864339356461,1.2493641193882417" fill-opacity="0" stroke="black" stroke-width="1" />
<path d="M-5.832991130315113,-3.570392048823174 L-4.80864339356461,-1.2493641193882417 L-4.402296322594301,-0.10845244703090486" fill-opacity="0" stroke="black" stroke-width="1" />
<path d="M-5.832991130315113,3.570392048823174 L-4.80864339356461,1.2493641193882417 L-4.402296322594301,0.10845244703090486" fill-opacity="0" stroke="black" stroke-width="1" />
<path d="M-4.80864339356461,-1.2493641193882417 L-4.402296322594301,-0.10845244703090486 L-0.16026606301355328,-0.042220644438517585" fill-opacity="0" stroke="black" stroke-width="1" />
<path d="M-4.80864339356461,1.2493641193882417 L-4.402296322594301,0.10845244703090486 L-0.16026606301355328,0.042220644438517585" fill-opacity="0" stroke="black" stroke-width="1" />
<path d="M-4.402296322594301,-0.10845244703090486 L-0.16026606301355328,-0.042220644438517585 L0.0,-0.0" fill-opacity="0" stroke="black" stroke-width="1" />
<path d="M-4.402296322594301,0.10845244703090486 L-0.16026606301355328,0.042220644438517585 L0.0,-0.0" fill-opacity="0" stroke="black" stroke-width="1" />
<path d="M87.0,-0.0 L77.2148488356491,13.023652390196212 L70.37277588971733,14.075382493681643" fill-opacity="0" stroke="black" stroke-width="1" />
<path d="M87.0,-0.0 L77.2148488356491,-13.023652390196212 L70.37277588971733,-14.075382493681643" fill-opacity="0" stroke="black" stroke-width="1" />
<path d="M77.2148488356491,13.023652390196212 L70.37277588971733,14.075382493681643 L57.0,-0.0" fill-opacity="0" stroke="black" stroke-width="1" />
<path d="M77.2148488356491,-13.023652390196212 L70.37277588971733,-14.075382493681643 L57.0,-0.0" fill-opacity="0" stroke="black" stroke-width="1" />
<path d="M50.0,14.0 L58.96482125626576,15.60505739110718 L54.19326223758139,17.375096240075976" fill-opacity="0" stroke="black" stroke-width="1" />
<path d="M50.0,-14.0 L58.96482125626576,-15.60505739110718 L54.19326223758139,-17.375096240075976" fill-opacity="0" stroke="black" stroke-width="1" />
<path d="M58.96482125626576,15.60505739110718 L54.19326223758139,17.375096240075976 L53.1503976315559,18.120368369717593" fill-opacity="0" stroke="black" stroke-width="1" />
<path d="M58.96482125626576,-15.60505739110718 L54.19326223758139,-17.375096240075976 L53.1503976315559,-18.120368369717593" fill-opacity="0" stroke="black" stroke-width="1" />
<path d="M54.19326223758139,17.375096240075976 L53.1503976315559,18.120368369717593 L50.0,48.0" fill-opacity="0" stroke="black" stroke-width="1" />
<path d="M54.19326223758139,-17.375096240075976 L53.1503976315559,-18.120368369717593 L50.0,-48.0" fill-opacity="0" stroke="black" stroke-width="1" />
<path d="M50.0,48.0 L51.358633399488966,45.18025906234927 L52.958186140459176,40.0649588736003" fill-opacity="0" stroke="black" stroke-width="1" />
<path d="M50.0,-48.0 L51.358633399488966,-45.18025906234927 L52.958186140459176,-40.0649588736003" fill-opacity="0" stroke="black" stroke-width="1" />
<path d="M51.358633399488966,45.18025906234927 L52.958186140459176,40.0649588736003 L61.0,39.0" fill-opacity="0" stroke="black" stroke-width="1" />
<path d="M51.358633399488966,-45.18025906234927 L52.958186140459176,-40.0649588736003 L61.0,-39.0" fill-opacity="0" stroke="black" stroke-width="1" />
<path d="M52.958186140459176,40.0649588736003 L61.0,39.0 L81.40384786923215,10.68865565840859" fill-opacity="0" stroke="black" stroke-width="1" />
<path d="M52.958186140459176,-40.0649588736003 L61.0,-39.0 L81.40384786923215,-10.68865565840859" fill-opacity="0" stroke="black" stroke-width="1" />
<path d="M61.0,39.0 L81.40384786923215,10.68865565840859 L83.0,17.0" fill-opacity="0" stroke="black" stroke-width="1" />
<path d="M61.0,-39.0 L81.40384786923215,-10.68865565840859 L83.0,-17.0" fill-opacity="0" stroke="black" stroke-width="1" />
<path d="M81.40384786923215,10.68865565840859 L83.0,17.0 L86.20316148148011,10.02410239486242" fill-opacity="0" stroke="black" stroke-width="1" />
<path d="M81.40384786923215,-10.68865565840859 L83.0,-17.0 L86.20316148148011,-10.02410239486242" fill-opacity="0" stroke="black" stroke-width="1" />
<path d="M83.0,17.0 L86.20316148148011,10.02410239486242 L88.76014300899125,6.328783582744052" fill-opacity="0" stroke="black" stroke-width="1" />
<path d="M83.0,-17.0 L86.20316148148011,-10.02410239486242 L88.76014300899125,-6.328783582744052" fill-opacity="0" stroke="black" stroke-width="1" />
<path d="M86.20316148148011,10.02410239486242 L88.76014300899125,6.328783582744052 L88.88677533868685,5.801756210979252" fill-opacity="0" stroke="black" stroke-width="1" />
<path d="M86.20316148148011,-10.02410239486242 L88.76014300899125,-6.328783582744052 L88.88677533868685,-5.801756210979252" fill-opacity="0" stroke="black" stroke-width="1" />
<path d="M88.76014300899125,6.328783582744052 L88.88677533868685,5.801756210979252 L91.83742702188599,5.0691223874544" fill-opacity="0" stroke="black" stroke-width="1" />
<path d="M88.76014300899125,-6.328783582744052 L88.88677533868685,-5.801756210979252 L91.83742702188599,-5.0691223874544" fill-opacity="0" stroke="black" stroke-width="1" />
<path d="M88.88677533868685,5.801756210979252 L91.83742702188599,5.0691223874544 L93.0,7.0" fill-opacity="0" stroke="black" stroke-width="1" />
<path d="M88.88677533868685,-5.801756210979252 L91.83742702188599,-5.0691223874544 L93.0,-7.0" fill-opacity="0" stroke="black" stroke-width="1" />
<path d="M91.83742702188599,5.0691223874544 L93.0,7.0 L94.16700886968488,3.570392048823174" fill-opacity="0" stroke="black" stroke-width="1" />
<path d="M91.83742702188599,-5.0691223874544 L93.0,-7.0 L94.16700886968488,-3.570392048823174" fill-opacity="0" stroke="black" stroke-width="1" />
<path d="M93.0,7.0 L94.16700886968488,3.570392048823174 L95.19135660643539,1.2493641193882417" fill-opacity="0" stroke="black" stroke-width="1" />
<path d="M93.0,-7.0 L94.16700886968488,-3.570392048823174 L95.19135660643539,-1.2493641193882417" fill-opacity="0" stroke="black" stroke-width="1" />
<path d="M94.16700886968488,3.570392048823174 L95.19135660643539,1.2493641193882417 L95.59770367740569,0.10845244703090486" fill-opacity="0" stroke="black" stroke-width="1" />
<path d="M94.16700886968488,-3.570392048823174 L95.19135660643539,-1.2493641193882417 L95.59770367740569,-0.10845244703090486" fill-opacity="0" stroke="black" stroke-width="1" />
<path d="M95.19135660643539,1.2493641193882417 L95.59770367740569,0.10845244703090486 L99.83973393698645,0.042220644438517585" fill-opacity="0" stroke="black" stroke-width="1" />
<path d="M95.19135660643539,-1.2493641193882417 L95.59770367740569,-0.10845244703090486 L99.83973393698645,-0.042220644438517585" fill-opacity="0" stroke="black" stroke-width="1" />
<path d="M95.59770367740569,0.10845244703090486 L99.83973393698645,0.042220644438517585 L100.0,-0.0" fill-opacity="0" stroke="black" stroke-width="1" />
<path d="M95.59770367740569,-0.10845244703090486 L99.83973393698645,-0.042220644438517585 L100.0,-0.0" fill-opacity="0" stroke="black" stroke-width="1" />
<path d="M0.0,-13.0 L13.023652390196212,-22.785151164350914 L14.075382493681643,-29.62722411028266" fill-opacity="0" stroke="black" stroke-width="1" />
<path d="M0.0,13.0 L13.023652390196212,22.785151164350914 L14.075382493681643,29.62722411028266" fill-opacity="0" stroke="black" stroke-width="1" />
<path d="M0.0,87.0 L13.023652390196212,77.2148488356491 L14.075382493681643,70.37277588971733" fill-opacity="0" stroke="black" stroke-width="1" />
<path d="M0.0,-87.0 L13.023652390196212,-77.2148488356491 L14.075382493681643,-70.37277588971733" fill-opacity="0" stroke="black" stroke-width="1" />
<path d="M13.023652390196212,-22.785151164350914 L14.075382493681643,-29.62722411028266 L0.0,-43.0" fill-opacity="0" stroke="black" stroke-width="1" />
<path d="M13.023652390196212,22.785151164350914 L14.075382493681643,29.62722411028266 L0.0,43.0" fill-opacity="0" stroke="black" stroke-width="1" />
<path d="M13.023652390196212,77.2148488356491 L14.075382493681643,70.37277588971733 L0.0,57.0" fill-opacity="0" stroke="black" stroke-width="1" />
<path d="M13.023652390196212,-77.2148488356491 L14.075382493681643,-70.37277588971733 L0.0,-57.0" fill-opacity="0" stroke="black" stroke-width="1" />
<path d="M14.0,-50.0 L15.60505739110718,-41.03517874373424 L17.375096240075976,-45.80673776241861" fill-opacity="0" stroke="black" stroke-width="1" />
<path d="M14.0,50.0 L15.60505739110718,41.03517874373424 L17.375096240075976,45.80673776241861" fill-opacity="0" stroke="black" stroke-width="1" />
<path d="M14.0,50.0 L15.60505739110718,58.96482125626576 L17.375096240075976,54.19326223758139" fill-opacity="0" stroke="black" stroke-width="1" />
<path d="M14.0,-50.0 L15.60505739110718,-58.96482125626576 L17.375096240075976,-54.19326223758139" fill-opacity="0" stroke="black" stroke-width="1" />
<path d="M15.60505739110718,-41.03517874373424 L17.375096240075976,-45.80673776241861 L18.120368369717593,-46.8496023684441" fill-opacity="0" stroke="black" stroke-width="1" />
<path d="M15.60505739110718,41.03517874373424 L17.375096240075976,45.80673776241861 L18.120368369717593,46.8496023684441" fill-opacity="0" stroke="black" stroke-width="1" />
<path d="M15.60505739110718,58.96482125626576 L17.375096240075976,54.19326223758139 L18.120368369717593,53.1503976315559" fill-opacity="0" stroke="black" stroke-width="1" />
<path d="M15.60505739110718,-58.96482125626576 L17.375096240075976,-54.19326223758139 L18.120368369717593,-53.1503976315559" fill-opacity="0" stroke="black" stroke-width="1" />
<path d="M17.375096240075976,-45.80673776241861 L18.120368369717593,-46.8496023684441 L48.0,-50.0" fill-opacity="0" stroke="black" stroke-width="1" />
<path d="M17.375096240075976,45.80673776241861 L18.120368369717593,46.8496023684441 L48.0,50.0" fill-opacity="0" stroke="black" stroke-width="1" />
<path d="M17.375096240075976,54.19326223758139 L18.120368369717593,53.1503976315559 L48.0,50.0" fill-opacity="0" stroke="black" stroke-width="1" />
<path d="M17.375096240075976,-54.19326223758139 L18.120368369717593,-53.1503976315559 L48.0,-50.0" fill-opacity="0" stroke="black" stroke-width="1" />
<path d="M48.0,-50.0 L45.18025906234927,-48.641366600511034 L40.0649588736003,-47.041813859540824" fill-opacity="0" stroke="black" stroke-width="1" />
<path d="M48.0,50.0 L45.18025906234927,48.641366600511034 L40.0649588736003,47.041813859540824" fill-opacity="0" stroke="black" stroke-width="1" />
<path d="M48.0,50.0 L45.18025906234927,51.358633399488966 L40.0649588736003,52.958186140459176" fill-opacity="0" stroke="black" stroke-width="1" />
<path d="M48.0,-50.0 L45.18025906234927,-51.358633399488966 L40.0649588736003,-52.958186140459176" fill-opacity="0" stroke="black" stroke-width="1" />
<path d="M45.18025906234927,-48.641366600511034 L40.0649588736003,-47.041813859540824 L39.0,-39.0" fill-opacity="0" stroke="black" stroke-width="1" />
<path d="M45.18025906234927,48.641366600511034 L40.0649588736003,47.041813859540824 L39.0,39.0" fill-opacity="0" stroke="black" stroke-width="1" />
<path d="M45.18025906234927,51.358633399488966 L40.0649588736003,52.958186140459176 L39.0,61.0" fill-opacity="0" stroke="black" stroke-width="1" />
<path d="M45.18025906234927,-51.358633399488966 L40.0649588736003,-52.958186140459176 L39.0,-61.0" fill-opacity="0" stroke="black" stroke-width="1" />
<path d="M39.0,-39.0 L10.68865565840859,-18.596152130767855 L17.0,-17.0" fill-opacity="0" stroke="black" stroke-width="1" />
<path d="M39.0,39.0 L10.68865565840859,18.596152130767855 L17.0,17.0" fill-opacity="0" stroke="black" stroke-width="1" />
<path d="M39.0,61.0 L10.68865565840859,81.40384786923215 L17.0,83.0" fill-opacity="0" stroke="black" stroke-width="1" />
<path d="M39.0,-61.0 L10.68865565840859,-81.40384786923215 L17.0,-83.0" fill-opacity="0" stroke="black" stroke-width="1" />
<path d="M17.0,-17.0 L10.02410239486242,-13.796838518519893 L6.328783582744052,-11.239856991008747" fill-opacity="0" stroke="black" stroke-width="1" />
<path d="M17.0,17.0 L10.02410239486242,13.796838518519893 L6.328783582744052,11.239856991008747" fill-opacity="0" stroke="black" stroke-width="1" />
<path d="M17.0,83.0 L10.02410239486242,86.20316148148011 L6.328783582744052,88.76014300899125" fill-opacity="0" stroke="black" stroke-width="1" />
<path d="M17.0,-83.0 L10.02410239486242,-86.20316148148011 L6.328783582744052,-88.76014300899125" fill-opacity="0" stroke="black" stroke-width="1" />
<path d="M10.02410239486242,-13.796838518519893 L6.328783582744052,-11.239856991008747 L5.801756210979252,-11.113224661313154" fill-opacity="0" stroke="black" stroke-width="1" />
<path d="M10.02410239486242,13.796838518519893 L6.328783582744052,11.239856991008747 L5.801756210979252,11.113224661313154" fill-opacity="0" stroke="black" stroke-width="1" />
<path d="M10.02410239486242,86.20316148148011 L6.328783582744052,88.76014300899125 L5.801756210979252,88.88677533868685" fill-opacity="0" stroke="black" stroke-width="1" />
<path d="M10.02410239486242,-86.20316148148011 L6.328783582744052,-88.76014300899125 L5.801756210979252,-88.88677533868685" fill-opacity="0" stroke="black" stroke-width="1" />
<path d="M6.328783582744052,-11.239856991008747 L5.801756210979252,-11.113224661313154 L5.0691223874544,-8.162572978114012" fill-opacity="0" stroke="black" stroke-width="1" />
<path d="M6.328783582744052,11.239856991008747 L5.801756210979252,11.113224661313154 L5.0691223874544,8.162572978114012" fill-opacity="0" stroke="black" stroke-width="1" />
<path d="M6.328783582744052,88.76014300899125 L5.801756210979252,88.88677533868685 L5.0691223874544,91.83742702188599" fill-opacity="0" stroke="black" stroke-width="1" />
<path d="M6.328783582744052,-88.76014300899125 L5.801756210979252,-88.88677533868685 L5.0691223874544,-91.83742702188599" fill-opacity="0" stroke="black" stroke-width="1" />
<path d="M5.801756210979252,-11.113224661313154 L5.0691223874544,-8.162572978114012 L7.0,-7.0" fill-opacity="0" stroke="black" stroke-width="1" />
<path d="M5.801756210979252,11.113224661313154 L5.0691223874544,8.162572978114012 L7.0,7.0" fill-opacity="0" stroke="black" stroke-width="1" />
<path d="M5.801756210979252,88.88677533868685 L5.0691223874544,91.83742702188599 L7.0,93.0" fill-opacity="0" stroke="black" stroke-width="1" />
<path d="M5.801756210979252,-88.88677533868685 L5.0691223874544,-91.83742702188599 L7.0,-93.0" fill-opacity="0" stroke="black" stroke-width="1" />
<path d="M7.0,-7.0 L3.570392048823174,-5.832991130315113 L1.2493641193882417,-4.80864339356461" fill-opacity="0" stroke="black" stroke-width="1" />
<path d="M7.0,7.0 L3.570392048823174,5.832991130315113 L1.2493641193882417,4.80864339356461" fill-opacity="0" stroke="black" stroke-width="1" />
<path d="M7.0,93.0 L3.570392048823174,94.16700886968488 L1.2493641193882417,95.19135660643539" fill-opacity="0" stroke="black" stroke-width="1" />
<path d="M7.0,-93.0 L3.570392048823174,-94.16700886968488 L1.2493641193882417,-95.19135660643539" fill-opacity="0" stroke="black" stroke-width="1" />
<path d="M3.570392048823174,-5.832991130315113 L1.2493641193882417,-4.80864339356461 L0.10845244703090486,-4.402296322594301" fill-opacity="0" stroke="black" stroke-width="1" />
<path d="M3.570392048823174,5.832991130315113 L1.2493641193882417,4.80864339356461 L0.10845244703090486,4.402296322594301" fill-opacity="0" stroke="black" stroke-width="1" />
<path d="M3.570392048823174,94.16700886968488 L1.2493641193882417,95.19135660643539 L0.10845244703090486,95.59770367740569" fill-opacity="0" stroke="black" stroke-width="1" />
<path d="M3.570392048823174,-94.16700886968488 L1.2493641193882417,-95.19135660643539 L0.10845244703090486,-95.59770367740569" fill-opacity="0" stroke="black" stroke-width="1" />
<path d="M1.2493641193882417,-4.80864339356461 L0.10845244703090486,-4.402296322594301 L0.042220644438517585,-0.16026606301355328" fill-opacity="0" stroke="black" stroke-width="1" />
<path d="M1.2493641193882417,4.80864339356461 L0.10845244703090486,4.402296322594301 L0.042220644438517585,0.16026606301355328" fill-opacity="0" stroke="black" stroke-width="1" />
<path d="M1.2493641193882417,95.19135660643539 L0.10845244703090486,95.59770367740569 L0.042220644438517585,99.83973393698645" fill-opacity="0" stroke="black" stroke-width="1" />
<path d="M1.2493641193882417,-95.19135660643539 L0.10845244703090486,-95.59770367740569 L0.042220644438517585,-99.83973393698645" fill-opacity="0" stroke="black" stroke-width="1" />
<path d="M0.10845244703090486,-4.402296322594301 L0.042220644438517585,-0.16026606301355328 L0.0,-0.0" fill-opacity="0" stroke="black" stroke-width="1" />
<path d="M0.10845244703090486,4.402296322594301 L0.042220644438517585,0.16026606301355328 L0.0,-0.0" fill-opacity="0" stroke="black" stroke-width="1" />
<path d="M0.10845244703090486,95.59770367740569 L0.042220644438517585,99.83973393698645 L0.0,100.0" fill-opacity="0" stroke="black" stroke-width="1" />
<path d="M0.10845244703090486,-95.59770367740569 L0.042220644438517585,-99.83973393698645 L0.0,-100.0" fill-opacity="0" stroke="black" stroke-width="1" />
<path d="M0.0,87.0 L-13.023652390196212,77.2148488356491 L-14.075382493681643,70.37277588971733" fill-opacity="0" stroke="black" stroke-width="1" />
<path d="M0.0,-13.0 L-13.023652390196212,-22.785151164350914 L-14.075382493681643,-29.62722411028266" fill-opacity="0" stroke="black" stroke-width="1" />
<path d="M0.0,13.0 L-13.023652390196212,22.785151164350907 L-14.075382493681643,29.62722411028267" fill-opacity="0" stroke="black" stroke-width="1" />
<path d="M0.0,-87.0 L-13.023652390196212,-77.2148488356491 L-14.075382493681643,-70.37277588971733" fill-opacity="0" stroke="black" stroke-width="1" />
<path d="M-13.023652390196212,77.2148488356491 L-14.075382493681643,70.37277588971733 L0.0,57.0" fill-opacity="0" stroke="black" stroke-width="1" />
<path d="M-13.023652390196212,-22.785151164350914 L-14.075382493681643,-29.62722411028266 L0.0,-43.0" fill-opacity="0" stroke="black" stroke-width="1" />
<path d="M-13.023652390196212,22.785151164350907 L-14.075382493681643,29.62722411028267 L0.0,43.0" fill-opacity="0" stroke="black" stroke-width="1" />
<path d="M-13.023652390196212,-77.2148488356491 L-14.075382493681643,-70.37277588971733 L0.0,-57.0" fill-opacity="0" stroke="black" stroke-width="1" />
<path d="M-14.0,50.0 L-15.60505739110718,58.96482125626576 L-17.375096240075976,54.19326223758139" fill-opacity="0" stroke="black" stroke-width="1" />
<path d="M-14.0,-50.0 L-15.60505739110718,-41.03517874373424 L-17.375096240075976,-45.80673776241861" fill-opacity="0" stroke="black" stroke-width="1" />
<path d="M-14.0,50.0 L-15.60505739110718,41.03517874373424 L-17.375096240075976,45.80673776241861" fill-opacity="0" stroke="black" stroke-width="1" />
<path d="M-14.0,-50.0 L-15.60505739110718,-58.96482125626576 L-17.375096240075976,-54.19326223758139" fill-opacity="0" stroke="black" stroke-width="1" />
<path d="M-15.60505739110718,58.96482125626576 L-17.375096240075976,54.19326223758139 L-18.120368369717593,53.1503976315559" fill-opacity="0" stroke="black" stroke-width="1" />
<path d="M-15.60505739110718,-41.03517874373424 L-17.375096240075976,-45.80673776241861 L-18.120368369717593,-46.8496023684441" fill-opacity="0" stroke="black" stroke-width="1" />
<path d="M-15.60505739110718,41.03517874373424 L-17.375096240075976,45.80673776241861 L-18.120368369717593,46.8496023684441" fill-opacity="0" stroke="black" stroke-width="1" />
<path d="M-15.60505739110718,-58.96482125626576 L-17.375096240075976,-54.19326223758139 L-18.120368369717593,-53.1503976315559" fill-opacity="0" stroke="black" stroke-width="1" />
<path d="M-17.375096240075976,54.19326223758139 L-18.120368369717593,53.1503976315559 L-48.0,50.0" fill-opacity="0" stroke="black" stroke-width="1" />
<path d="M-17.375096240075976,-45.80673776241861 L-18.120368369717593,-46.8496023684441 L-48.0,-50.0" fill-opacity="0" stroke="black" stroke-width="1" />
<path d="M-17.375096240075976,45.80673776241861 L-18.120368369717593,46.8496023684441 L-48.0,50.0" fill-opacity="0" stroke="black" stroke-width="1" />
<path d="M-17.375096240075976,-54.19326223758139 L-18.120368369717593,-53.1503976315559 L-48.0,-50.0" fill-opacity="0" stroke="black" stroke-width="1" />
<path d="M-48.0,50.0 L-45.18025906234927,51.358633399488966 L-40.0649588736003,52.958186140459176" fill-opacity="0" stroke="black" stroke-width="1" />
<path d="M-48.0,-50.0 L-45.18025906234927,-48.641366600511034 L-40.0649588736003,-47.041813859540824" fill-opacity="0" stroke="black" stroke-width="1" />
<path d="M-48.0,50.0 L-45.18025906234927,48.641366600511034 L-40.0649588736003,47.041813859540824" fill-opacity="0" stroke="black" stroke-width="1" />
<path d="M-48.0,-50.0 L-45.18025906234927,-51.358633399488966 L-40.0649588736003,-52.958186140459176" fill-opacity="0" stroke="black" stroke-width="1" />
<path d="M-45.18025906234927,51.358633399488966 L-40.0649588736003,52.958186140459176 L-39.0,61.0" fill-opacity="0" stroke="black" stroke-width="1" />
<path d="M-45.18025906234927,-48.641366600511034 L-40.0649588736003,-47.041813859540824 L-39.0,-39.0" fill-opacity="0" stroke="black" stroke-width="1" />
<path d="M-45.18025906234927,48.641366600511034 L-40.0649588736003,47.041813859540824 L-39.0,39.0" fill-opacity="0" stroke="black" stroke-width="1" />
<path d="M-45.18025906234927,-51.358633399488966 L-40.0649588736003,-52.958186140459176 L-39.0,-61.0" fill-opacity="0" stroke="black" stroke-width="1" />
<path d="M-39.0,61.0 L-10.68865565840859,81.40384786923215 L-17.0,83.0" fill-opacity="0" stroke="black" stroke-width="1" />
<path d="M-39.0,-39.0 L-10.68865565840859,-18.596152130767855 L-17.0,-17.0" fill-opacity="0" stroke="black" stroke-width="1" />
<path d="M-39.0,39.0 L-10.68865565840859,18.596152130767848 L-17.0,17.0" fill-opacity="0" stroke="black" stroke-width="1" />
<path d="M-39.0,-61.0 L-10.68865565840859,-81.40384786923215 L-17.0,-83.0" fill-opacity="0" stroke="black" stroke-width="1" />
<path d="M-17.0,83.0 L-10.02410239486242,86.20316148148011 L-6.328783582744052,88.76014300899125" fill-opacity="0" stroke="black" stroke-width="1" />
<path d="M-17.0,-17.0 L-10.02410239486242,-13.796838518519893 L-6.328783582744052,-11.239856991008747" fill-opacity="0" stroke="black" stroke-width="1" />
<path d="M-17.0,17.0 L-10.02410239486242,13.796838518519891 L-6.328783582744052,11.23985699100875" fill-opacity="0" stroke="black" stroke-width="1" />
<path d="M-17.0,-83.0 L-10.02410239486242,-86.20316148148011 L-6.328783582744052,-88.76014300899125" fill-opacity="0" stroke="black" stroke-width="1" />
<path d="M-10.02410239486242,86.20316148148011 L-6.328783582744052,88.76014300899125 L-5.801756210979252,88.88677533868685" fill-opacity="0" stroke="black" stroke-width="1" />
<path d="M-10.02410239486242,-13.796838518519893 L-6.328783582744052,-11.239856991008747 L-5.801756210979252,-11.113224661313154" fill-opacity="0" stroke="black" stroke-width="1" />
<path d="M-10.02410239486242,13.796838518519891 L-6.328783582744052,11.23985699100875 L-5.801756210979252,11.113224661313154" fill-opacity="0" stroke="black" stroke-width="1" />
<path d="M-10.02410239486242,-86.20316148148011 L-6.328783582744052,-88.76014300899125 L-5.801756210979252,-88.88677533868685" fill-opacity="0" stroke="black" stroke-width="1" />
<path d="M-6.328783582744052,88.76014300899125 L-5.801756210979252,88.88677533868685 L-5.0691223874544,91.83742702188599" fill-opacity="0" stroke="black" stroke-width="1" />
<path d="M-6.328783582744052,-11.239856991008747 L-5.801756210979252,-11.113224661313154 L-5.0691223874544,-8.162572978114012" fill-opacity="0" stroke="black" stroke-width="1" />
<path d="M-6.328783582744052,11.23985699100875 L-5.801756210979252,11.113224661313154 L-5.0691223874544,8.162572978114014" fill-opacity="0" stroke="black" stroke-width="1" />
<path d="M-6.328783582744052,-88.76014300899125 L-5.801756210979252,-88.88677533868685 L-5.0691223874544,-91.83742702188599" fill-opacity="0" stroke="black" stroke-width="1" />
<path d="M-5.801756210979252,88.88677533868685 L-5.0691223874544,91.83742702188599 L-7.0,93.0" fill-opacity="0" stroke="black" stroke-width="1" />
<path d="M-5.801756210979252,-11.113224661313154 L-5.0691223874544,-8.162572978114012 L-7.0,-7.0" fill-opacity="0" stroke="black" stroke-width="1" />
<path d="M-5.801756210979252,11.113224661313154 L-5.0691223874544,8.162572978114014 L-7.0,7.0" fill-opacity="0" stroke="black" stroke-width="1" />
<path d="M-5.801756210979252,-88.88677533868685 L-5.0691223874544,-91.83742702188599 L-7.0,-93.0" fill-opacity="0" stroke="black" stroke-width="1" />
<path d="M-7.0,93.0 L-3.570392048823174,94.16700886968489 L-1.2493641193882417,95.19135660643539" fill-opacity="0" stroke="black" stroke-width="1" />
<path d="M-7.0,-7.0 L-3.570392048823174,-5.832991130315113 L-1.2493641193882417,-4.80864339356461" fill-opacity="0" stroke="black" stroke-width="1" />
<path d="M-7.0,7.0 L-3.570392048823174,5.832991130315108 L-1.2493641193882417,4.8086433935646085" fill-opacity="0" stroke="black" stroke-width="1" />
<path d="M-7.0,-93.0 L-3.570392048823174,-94.16700886968488 L-1.2493641193882417,-95.19135660643539" fill-opacity="0" stroke="black" stroke-width="1" />
<path d="M-3.570392048823174,94.16700886968489 L-1.2493641193882417,95.19135660643539 L-0.10845244703090486,95.5977036774057" fill-opacity="0" stroke="black" stroke-width="1" />
<path d="M-3.570392048823174,-5.832991130315113 L-1.2493641193882417,-4.80864339356461 L-0.10845244703090486,-4.402296322594301" fill-opacity="0" stroke="black" stroke-width="1" />
<path d="M-3.570392048823174,5.832991130315108 L-1.2493641193882417,4.8086433935646085 L-0.10845244703090486,4.402296322594296" fill-opacity="0" stroke="black" stroke-width="1" />
<path d="M-3.570392048823174,-94.16700886968488 L-1.2493641193882417,-95.19135660643539 L-0.10845244703090486,-95.59770367740569" fill-opacity="0" stroke="black" stroke-width="1" />
<path d="M-1.2493641193882417,95.19135660643539 L-0.10845244703090486,95.5977036774057 L-0.042220644438517585,99.83973393698645" fill-opacity="0" stroke="black" stroke-width="1" />
<path d="M-1.2493641193882417,-4.80864339356461 L-0.10845244703090486,-4.402296322594301 L-0.042220644438517585,-0.16026606301355328" fill-opacity="0" stroke="black" stroke-width="1" />
<path d="M-1.2493641193882417,4.8086433935646085 L-0.10845244703090486,4.402296322594296 L-0.042220644438517585,0.16026606301355173" fill-opacity="0" stroke="black" stroke-width="1" />
<path d="M-1.2493641193882417,-95.19135660643539 L-0.10845244703090486,-95.59770367740569 L-0.042220644438517585,-99.83973393698645" fill-opacity="0" stroke="black" stroke-width="1" />
<path d="M-0.10845244703090486,95.5977036774057 L-0.042220644438517585,99.83973393698645 L0.0,100.0" fill-opacity="0" stroke="black" stroke-width="1" />
<path d="M-0.10845244703090486,-4.402296322594301 L-0.042220644438517585,-0.16026606301355328 L0.0,-0.0" fill-opacity="0" stroke="black" stroke-width="1" />
<path d="M-0.10845244703090486,4.402296322594296 L-0.042220644438517585,0.16026606301355173 L0.0,-0.0" fill-opacity="0" stroke="black" stroke-width="1" />
<path d="M-0.10845244703090486,-95.59770367740569 L-0.042220644438517585,-99.83973393698645 L0.0,-100.0" fill-opacity="0" stroke="black" stroke-width="1" />
<path d="M-87.0,-0.0 L-77.2148488356491,-13.023652390196212 L-70.37277588971733,-14.075382493681643" fill-opacity="0" stroke="black" stroke-width="1" />
<path d="M-87.0,-0.0 L-77.2148488356491,13.023652390196212 L-70.37277588971733,14.075382493681643" fill-opacity="0" stroke="black" stroke-width="1" />
<path d="M-77.2148488356491,-13.023652390196212 L-70.37277588971733,-14.075382493681643 L-57.0,-0.0" fill-opacity="0" stroke="black" stroke-width="1" />
<path d="M-77.2148488356491,13.023652390196212 L-70.37277588971733,14.075382493681643 L-57.0,-0.0" fill-opacity="0" stroke="black" stroke-width="1" />
<path d="M-50.0,-14.0 L-58.96482125626576,-15.60505739110718 L-54.19326223758139,-17.375096240075976" fill-opacity="0" stroke="black" stroke-width="1" />
<path d="M-50.0,14.0 L-58.96482125626576,15.60505739110718 L-54.19326223758139,17.375096240075976" fill-opacity="0" stroke="black" stroke-width="1" />
<path d="M-58.96482125626576,-15.60505739110718 L-54.19326223758139,-17.375096240075976 L-53.1503976315559,-18.120368369717593" fill-opacity="0" stroke="black" stroke-width="1" />
<path d="M-58.96482125626576,15.60505739110718 L-54.19326223758139,17.375096240075976 L-53.1503976315559,18.120368369717593" fill-opacity="0" stroke="black" stroke-width="1" />
<path d="M-54.19326223758139,-17.375096240075976 L-53.1503976315559,-18.120368369717593 L-50.0,-48.0" fill-opacity="0" stroke="black" stroke-width="1" />
<path d="M-54.19326223758139,17.375096240075976 L-53.1503976315559,18.120368369717593 L-50.0,48.0" fill-opacity="0" stroke="black" stroke-width="1" />
<path d="M-50.0,-48.0 L-51.358633399488966,-45.18025906234927 L-52.958186140459176,-40.0649588736003" fill-opacity="0" stroke="black" stroke-width="1" />
<path d="M-50.0,48.0 L-51.358633399488966,45.18025906234927 L-52.958186140459176,40.0649588736003" fill-opacity="0" stroke="black" stroke-width="1" />
<path d="M-51.358633399488966,-45.18025906234927 L-52.958186140459176,-40.0649588736003 L-61.0,-39.0" fill-opacity="0" stroke="black" stroke-width="1" />
<path d="M-51.358633399488966,45.18025906234927 L-52.958186140459176,40.0649588736003 L-61.0,39.0" fill-opacity="0" stroke="black" stroke-width="1" />
<path d="M-52.958186140459176,-40.0649588736003 L-61.0,-39.0 L-81.40384786923215,-10.68865565840859" fill-opacity="0" stroke="black" stroke-width="1" />
<path d="M-52.958186140459176,40.0649588736003 L-61.0,39.0 L-81.40384786923215,10.68865565840859" fill-opacity="0" stroke="black" stroke-width="1" />
<path d="M-61.0,-39.0 L-81.40384786923215,-10.68865565840859 L-83.0,-17.0" fill-opacity="0" stroke="black" stroke-width="1" />
<path d="M-61.0,39.0 L-81.40384786923215,10.68865565840859 L-83.0,17.0" fill-opacity="0" stroke="black" stroke-width="1" />
<path d="M-81.40384786923215,-10.68865565840859 L-83.0,-17.0 L-86.20316148148011,-10.02410239486242" fill-opacity="0" stroke="black" stroke-width="1" />
<path d="M-81.40384786923215,10.68865565840859 L-83.0,17.0 L-86.20316148148011,10.02410239486242" fill-opacity="0" stroke="black" stroke-width="1" />
<path d="M-83.0,-17.0 L-86.20316148148011,-10.02410239486242 L-88.76014300899125,-6.328783582744052" fill-opacity="0" stroke="black" stroke-width="1" />
<path d="M-83.0,17.0 L-86.20316148148011,10.02410239486242 L-88.76014300899125,6.328783582744052" fill-opacity="0" stroke="black" stroke-width="1" />
<path d="M-86.20316148148011,-10.02410239486242 L-88.76014300899125,-6.328783582744052 L-88.88677533868685,-5.801756210979252" fill-opacity="0" stroke="black" stroke-width="1" />
<path d="M-86.20316148148011,10.02410239486242 L-88.76014300899125,6.328783582744052 L-88.88677533868685,5.801756210979252" fill-opacity="0" stroke="black" stroke-width="1" />
<path d="M-88.76014300899125,-6.328783582744052 L-88.88677533868685,-5.801756210979252 L-91.83742702188599,-5.0691223874544" fill-opacity="0" stroke="black" stroke-width="1" />
<path d="M-88.76014300899125,6.328783582744052 L-88.88677533868685,5.801756210979252 L-91.83742702188599,5.0691223874544" fill-opacity="0" stroke="black" stroke-width="1" />
<path d="M-88.88677533868685,-5.801756210979252 L-91.83742702188599,-5.0691223874544 L-93.0,-7.0" fill-opacity="0" stroke="black" stroke-width="1" />
<path d="M-88.88677533868685,5.801756210979252 L-91.83742702188599,5.0691223874544 L-93.0,7.0" fill-opacity="0" stroke="black" stroke-width="1" />
<path d="M-91.83742702188599,-5.0691223874544 L-93.0,-7.0 L-94.16700886968488,-3.570392048823174" fill-opacity="0" stroke="black" stroke-width="1" />
<path d="M-91.83742702188599,5.0691223874544 L-93.0,7.0 L-94.16700886968488,3.570392048823174" fill-opacity="0" stroke="black" stroke-width="1" />
<path d="M-93.0,-7.0 L-94.16700886968488,-3.570392048823174 L-95.19135660643539,-1.2493641193882417" fill-opacity="0" stroke="black" stroke-width="1" />
<path d="M-93.0,7.0 L-94.16700886968488,3.570392048823174 L-95.19135660643539,1.2493641193882417" fill-opacity="0" stroke="black" stroke-width="1" />
<path d="M-94.16700886968488,-3.570392048823174 L-95.19135660643539,-1.2493641193882417 L-95.59770367740569,-0.10845244703090486" fill-opacity="0" stroke="black" stroke-width="1" />
<path d="M-94.16700886968488,3.570392048823174 L-95.19135660643539,1.2493641193882417 L-95.59770367740569,0.10845244703090486" fill-opacity="0" stroke="black" stroke-width="1" />
<path d="M-95.19135660643539,-1.2493641193882417 L-95.59770367740569,-0.10845244703090486 L-99.83973393698645,-0.042220644438517585" fill-opacity="0" stroke="black" stroke-width="1" />
<path d="M-95.19135660643539,1.2493641193882417 L-95.59770367740569,0.10845244703090486 L-99.83973393698645,0.042220644438517585" fill-opacity="0" stroke="black" stroke-width="1" />
<path d="M-95.59770367740569,-0.10845244703090486 L-99.83973393698645,-0.042220644438517585 L-100.0,-0.0" fill-opacity="0" stroke="black" stroke-width="1" />
<path d="M-95.59770367740569,0.10845244703090486 L-99.83973393698645,0.042220644438517585 L-100.0,-0.0" fill-opacity="0" stroke="black" stroke-width="1" />
<circle cx="0" cy="-97" r="8" stroke-dasharray="39.653880605311166 10.611601852125524" stroke-dashoffset="-17.59291886010284" stroke="black" stroke-width="1" fill="white" fill-opacity="1" />
<circle cx="0" cy="-97" r="4" stroke="black" stroke-width="1" fill="white" fill-opacity="1" />
</svg>