<?xml version="1.0" encoding="UTF-8"?>
<svg xmlns="http://www.w3.org/2000/svg" xmlns:xlink="http://www.w3.org/1999/xlink"
     width="250" height="250" viewBox="-125.0 -125.0 250 250">
<defs>
</defs>
<path d="M12.0,-0.0 L17.444658520592007,-2.663147613844136 L18.0,-0.0" fill="blue" fill-opacity="0.6" stroke="black" stroke-width="1" />
<path d="M12.0,-0.0 L17.444658520592007,2.663147613844136 L18.0,-0.0" fill="yellow" fill-opacity="0.6" stroke="black" stroke-width="1" />
<path d="M35.0,-0.0 L38.48299887150149,-3.1012221844330004 L41.0,-0.0" fill="red" fill-opacity="0.6" stroke="black" stroke-width="1" />
<path d="M35.0,-0.0 L38.48299887150149,3.1012221844330004 L41.0,-0.0" fill="black" fill-opacity="0.6" stroke="black" stroke-width="1" />
<path d="M50.0,-0.0 L48.89770068120776,-10.449141137235381 L50.0,-11.0" fill="black" fill-opacity="0.6" stroke="black" stroke-width="1" />
<path d="M50.0,-0.0 L48.89770068120776,10.449141137235381 L50.0,11.0" fill="purple" fill-opacity="0.6" stroke="black" stroke-width="1" />
<path d="M50.0,50.0 L36.0,64.0 L30.0,70.0" fill="purple" fill-opacity="0.6" stroke="black" stroke-width="1" />
<path d="M50.0,-50.0 L36.0,-64.0 L30.0,-70.0" fill="red" fill-opacity="0.6" stroke="black" stroke-width="1" />
<path d="M36.0,64.0 L30.0,70.0 L23.0,77.0" fill="yellow" fill-opacity="0.6" stroke="black" stroke-width="1" />
<path d="M36.0,-64.0 L30.0,-70.0 L23.0,-77.0" fill="purple" fill-opacity="0.6" stroke="black" stroke-width="1" />
<path d="M30.0,70.0 L23.0,77.0 L20.0,80.0" fill="orange" fill-opacity="0.6" stroke="black" stroke-width="1" />
<path d="M30.0,-70.0 L23.0,-77.0 L20.0,-80.0" fill="yellow" fill-opacity="0.6" stroke="black" stroke-width="1" />
<path d="M23.0,77.0 L20.0,80.0 L10.0,90.0" fill="pink" fill-opacity="0.6" stroke="black" stroke-width="1" />
<path d="M23.0,-77.0 L20.0,-80.0 L10.0,-90.0" fill="orange" fill-opacity="0.6" stroke="black" stroke-width="1" />
<path d="M20.0,80.0 L10.0,90.0 L4.0,96.0" fill="orange" fill-opacity="0.6" stroke="black" stroke-width="1" />
<path d="M20.0,-80.0 L10.0,-90.0 L4.0,-96.0" fill="red" fill-opacity="0.6" stroke="black" stroke-width="1" />
<path d="M10.0,90.0 L4.0,96.0 L0.0,100.0" fill="red" fill-opacity="0.6" stroke="black" stroke-width="1" />
<path d="M10.0,-90.0 L4.0,-96.0 L0.0,-100.0" fill="yellow" fill-opacity="0.6" stroke="black" stroke-width="1" />
<path d="M-12.0,-0.0 L-17.444658520592007,-2.663147613844136 L-18.0,-0.0" fill="yellow" fill-opacity="0.6" stroke="black" stroke-width="1" />
<path d="M-12.0,-0.0 L-17.444658520592007,2.663147613844136 L-18.0,-0.0" fill="yellow" fill-opacity="0.6" stroke="black" stroke-width="1" />
<path d="M-35.0,-0.0 L-38.48299887150149,-3.1012221844330004 L-41.0,-0.0" fill="purple" fill-opacity="0.6" stroke="black" stroke-width="1" />
<path d="M-35.0,-0.0 L-38.48299887150149,3.1012221844330004 L-41.0,-0.0" fill="red" fill-opacity="0.6" stroke="black" stroke-width="1" />
<path d="M-50.0,-0.0 L-48.89770068120776,-10.449141137235381 L-50.0,-11.0" fill="brown" fill-opacity="0.6" stroke="black" stroke-width="1" />
<path d="M-50.0,-0.0 L-48.89770068120776,10.449141137235381 L-50.0,11.0" fill="green" fill-opacity="0.6" stroke="black" stroke-width="1" />
<path d="M-50.0,50.0 L-36.0,64.0 L-30.0,70.0" fill="black" fill-opacity="0.6" stroke="black" stroke-width="1" />
<path d="M-50.0,-50.0 L-36.0,-64.0 L-30.0,-70.0" fill="red" fill-opacity="0.6" stroke="black" stroke-width="1" />
<path d="M-36.0,64.0 L-30.0,70.0 L-23.0,77.0" fill="brown" fill-opacity="0.6" stroke="black" stroke-width="1" />
<path d="M-36.0,-64.0 L-30.0,-70.0 L-23.0,-77.0" fill="green" fill-opacity="0.6" stroke="black" stroke-width="1" />
<path d="M-30.0,70.0 L-23.0,77.0 L-20.0,80.0" fill="blue" fill-opacity="0.6" stroke="black" stroke-width="1" />
<path d="M-30.0,-70.0 L-23.0,-77.0 L-20.0,-80.0" fill="black" fill-opacity="0.6" stroke="black" stroke-width="1" />
<path d="M-23.0,77.0 L-20.0,80.0 L-10.0,90.0" fill="black" fill-opacity="0.6" stroke="black" stroke-width="1" />
<path d="M-23.0,-77.0 L-20.0,-80.0 L-10.0,-90.0" fill="blue" fill-opacity="0.6" stroke="black" stroke-width="1" />
<path d="M-20.0,80.0 L-10.0,90.0 L-4.0,96.0" fill="blue" fill-opacity="0.6" stroke="black" stroke-width="1" />
<path d="M-20.0,-80.0 L-10.0,-90.0 L-4.0,-96.0" fill="brown" fill-opacity="0.6" stroke="black" stroke-width="1" />
<path d="M-10.0,90.0 L-4.0,96.0 L0.0,100.0" fill="black" fill-opacity="0.6" stroke="black" stroke-width="1" />
<path d="M-10.0,-90.0 L-4.0,-96.0 L0.0,-100.0" fill="pink" fill-opacity="0.6" stroke="black" stroke-width="1" />
<path d="M88.0,-0.0 L82.55534147940799,2.663147613844136 L82.0,-0.0" fill="pink" fill-opacity="0.6" stroke="black" stroke-width="1" />
<path d="M88.0,-0.0 L82.55534147940799,-2.663147613844136 L82.0,-0.0" fill="black" fill-opacity="0.6" stroke="black" stroke-width="1" />
<path d="M65.0,-0.0 L61.51700112849851,3.1012221844330004 L59.0,-0.0" fill="pink" fill-opacity="0.6" stroke="black" stroke-width="1" />
<path d="M65.0,-0.0 L61.51700112849851,-3.1012221844330004 L59.0,-0.0" fill="yellow" fill-opacity="0.6" stroke="black" stroke-width="1" />
<path d="M50.0,-0.0 L51.10229931879224,10.449141137235381 L50.0,11.0" fill="yellow" fill-opacity="0.6" stroke="black" stroke-width="1" />
<path d="M50.0,-0.0 L51.10229931879224,-10.449141137235381 L50.0,-11.0" fill="brown" fill-opacity="0.6" stroke="black" stroke-width="1" />
<path d="M50.0,50.0 L64.0,36.0 L70.0,30.0" fill="green" fill-opacity="0.6" stroke="black" stroke-width="1" />
<path d="M50.0,-50.0 L64.0,-36.0 L70.0,-30.0" fill="purple" fill-opacity="0.6" stroke="black" stroke-width="1" />
<path d="M64.0,36.0 L70.0,30.0 L77.0,23.0" fill="red" fill-opacity="0.6" stroke="black" stroke-width="1" />
<path d="M64.0,-36.0 L70.0,-30.0 L77.0,-23.0" fill="black" fill-opacity="0.6" stroke="black" stroke-width="1" />
<path d="M70.0,30.0 L77.0,23.0 L80.0,20.0" fill="red" fill-opacity="0.6" stroke="black" stroke-width="1" />
<path d="M70.0,-30.0 L77.0,-23.0 L80.0,-20.0" fill="orange" fill-opacity="0.6" stroke="black" stroke-width="1" />
<path d="M77.0,23.0 L80.0,20.0 L90.0,10.0" fill="yellow" fill-opacity="0.6" stroke="black" stroke-width="1" />
<path d="M77.0,-23.0 L80.0,-20.0 L90.0,-10.0" fill="brown" fill-opacity="0.6" stroke="black" stroke-width="1" />
<path d="M80.0,20.0 L90.0,10.0 L96.0,4.0" fill="purple" fill-opacity="0.6" stroke="black" stroke-width="1" />
<path d="M80.0,-20.0 L90.0,-10.0 L96.0,-4.0" fill="green" fill-opacity="0.6" stroke="black" stroke-width="1" />
<path d="M90.0,10.0 L96.0,4.0 L100.0,-0.0" fill="pink" fill-opacity="0.6" stroke="black" stroke-width="1" />
<path d="M90.0,-10.0 L96.0,-4.0 L100.0,-0.0" fill="black" fill-opacity="0.6" stroke="black" stroke-width="1" />
<path d="M0.0,-12.0 L2.663147613844136,-17.444658520592007 L0.0,-18.0" fill="blue" fill-opacity="0.6" stroke="black" stroke-width="1" />
<path d="M0.0,12.0 L2.663147613844136,17.444658520592007 L0.0,18.0" fill="purple" fill-opacity="0.6" stroke="black" stroke-width="1" />
<path d="M0.0,88.0 L2.663147613844136,82.55534147940799 L0.0,82.0" fill="brown" fill-opacity="0.6" stroke="black" stroke-width="1" />
<path d="M0.0,-88.0 L2.663147613844136,-82.55534147940799 L0.0,-82.0" fill="green" fill-opacity="0.6" stroke="black" stroke-width="1" />
<path d="M0.0,-35.0 L3.1012221844330004,-38.48299887150149 L0.0,-41.0" fill="purple" fill-opacity="0.6" stroke="black" stroke-width="1" />
<path d="M0.0,35.0 L3.1012221844330004,38.48299887150149 L0.0,41.0" fill="blue" fill-opacity="0.6" stroke="black" stroke-width="1" />
<path d="M0.0,65.0 L3.1012221844330004,61.51700112849851 L0.0,59.0" fill="blue" fill-opacity="0.6" stroke="black" stroke-width="1" />
<path d="M0.0,-65.0 L3.1012221844330004,-61.51700112849851 L0.0,-59.0" fill="red" fill-opacity="0.6" stroke="black" stroke-width="1" />
<path d="M0.0,-50.0 L10.449141137235381,-48.89770068120776 L11.0,-50.0" fill="yellow" fill-opacity="0.6" stroke="black" stroke-width="1" />
<path d="M0.0,50.0 L10.449141137235381,48.89770068120776 L11.0,50.0" fill="purple" fill-opacity="0.6" stroke="black" stroke-width="1" />
<path d="M0.0,50.0 L10.449141137235381,51.10229931879224 L11.0,50.0" fill="blue" fill-opacity="0.6" stroke="black" stroke-width="1" />
<path d="M0.0,-50.0 L10.449141137235381,-51.10229931879224 L11.0,-50.0" fill="blue" fill-opacity="0.6" stroke="black" stroke-width="1" />
<path d="M0.0,88.0 L-2.663147613844136,82.55534147940799 L0.0,82.0" fill="red" fill-opacity="0.6" stroke="black" stroke-width="1" />
<path d="M0.0,-12.0 L-2.663147613844136,-17.444658520592007 L0.0,-18.0" fill="blue" fill-opacity="0.6" stroke="black" stroke-width="1" />
<path d="M0.0,12.0 L-2.663147613844136,17.444658520592014 L0.0,18.0" fill="purple" fill-opacity="0.6" stroke="black" stroke-width="1" />
<path d="M0.0,-88.0 L-2.663147613844136,-82.55534147940799 L0.0,-82.0" fill="red" fill-opacity="0.6" stroke="black" stroke-width="1" />
<path d="M0.0,65.0 L-3.1012221844330004,61.51700112849851 L0.0,59.0" fill="orange" fill-opacity="0.6" stroke="black" stroke-width="1" />
<path d="M0.0,-35.0 L-3.1012221844330004,-38.48299887150149 L0.0,-41.0" fill="green" fill-opacity="0.6" stroke="black" stroke-width="1" />
<path d="M0.0,35.0 L-3.1012221844330004,38.48299887150149 L0.0,41.0" fill="black" fill-opacity="0.6" stroke="black" stroke-width="1" />
<path d="M0.0,-65.0 L-3.1012221844330004,-61.51700112849851 L0.0,-59.0" fill="black" fill-opacity="0.6" stroke="black" stroke-width="1" />
<path d="M0.0,50.0 L-10.449141137235381,51.10229931879224 L-11.0,50.0" fill="purple" fill-opacity="0.6" stroke="black" stroke-width="1" />
<path d="M0.0,-50.0 L-10.449141137235381,-48.89770068120776 L-11.0,-50.0" fill="red" fill-opacity="0.6" stroke="black" stroke-width="1" />
<path d="M0.0,50.0 L-10.449141137235381,48.89770068120776 L-11.0,50.0" fill="black" fill-opacity="0.6" stroke="black" stroke-width="1" />
<path d="M0.0,-50.0 L-10.449141137235381,-51.10229931879224 L-11.0,-50.0" fill="yellow" fill-opacity="0.6" stroke="black" stroke-width="1" />
<path d="M-88.0,-0.0 L-82.55534147940799,-2.663147613844136 L-82.0,-0.0" fill="red" fill-opacity="0.6" stroke="black" stroke-width="1" />
<path d="M-88.0,-0.0 L-82.55534147940799,2.663147613844136 L-82.0,-0.0" fill="green" fill-opacity="0.6" stroke="black" stroke-width="1" />
<path d="M-65.0,-0.0 L-61.51700112849851,-3.1012221844330004 L-59.0,-0.0" fill="pink" fill-opacity="0.6" stroke="black" stroke-width="1" />
<path d="M-65.0,-0.0 L-61.51700112849851,3.1012221844330004 L-59.0,-0.0" fill="yellow" fill-opacity="0.6" stroke="black" stroke-width="1" />
<path d="M-50.0,-0.0 L-51.10229931879224,-10.449141137235381 L-50.0,-11.0" fill="yellow" fill-opacity="0.6" stroke="black" stroke-width="1" />
<path d="M-50.0,-0.0 L-51.10229931879224,10.449141137235381 L-50.0,11.0" fill="brown" fill-opacity="0.6" stroke="black" stroke-width="1" />
<path d="M-50.0,-50.0 L-64.0,-36.0 L-70.0,-30.0" fill="pink" fill-opacity="0.6" stroke="black" stroke-width="1" />
<path d="M-50.0,50.0 L-64.0,36.0 L-70.0,30.0" fill="orange" fill-opacity="0.6" stroke="black" stroke-width="1" />
<path d="M-64.0,-36.0 L-70.0,-30.0 L-77.0,-23.0" fill="yellow" fill-opacity="0.6" stroke="black" stroke-width="1" />
<path d="M-64.0,36.0 L-70.0,30.0 L-77.0,23.0" fill="black" fill-opacity="0.6" stroke="black" stroke-width="1" />
<path d="M-70.0,-30.0 L-77.0,-23.0 L-80.0,-20.0" fill="green" fill-opacity="0.6" stroke="black" stroke-width="1" />
<path d="M-70.0,30.0 L-77.0,23.0 L-80.0,20.0" fill="black" fill-opacity="0.6" stroke="black" stroke-width="1" />
<path d="M-77.0,-23.0 L-80.0,-20.0 L-90.0,-10.0" fill="purple" fill-opacity="0.6" stroke="black" stroke-width="1" />
<path d="M-77.0,23.0 L-80.0,20.0 L-90.0,10.0" fill="red" fill-opacity="0.6" stroke="black" stroke-width="1" />
<path d="M-80.0,-20.0 L-90.0,-10.0 L-96.0,-4.0" fill="green" fill-opacity="0.6" stroke="black" stroke-width="1" />
<path d="M-80.0,20.0 L-90.0,10.0 L-96.0,4.0" fill="red" fill-opacity="0.6" stroke="black" stroke-width="1" />
<path d="M-90.0,-10.0 L-96.0,-4.0 L-100.0,-0.0" fill="blue" fill-opacity="0.6" stroke="black" stroke-width="1" />
<path d="M-90.0,10.0 L-96.0,4.0 L-100.0,-0.0" fill="red" fill-opacity="0.6" stroke="black" stroke-width="1" />
</svg>