<?xml version="1.0" encoding="UTF-8"?>
<svg xmlns="http://www.w3.org/2000/svg" xmlns:xlink="http://www.w3.org/1999/xlink"
     width="250" height="250" viewBox="-125.0 -125.0 250 250">
<defs>
</defs>
<path d="M0.0,-0.0 L10.450089436482079,-2.2638441411761914 L12.0,-0.0" fill-opacity="0" stroke="black" stroke-width="1" />
<path d="M0.0,-0.0 L10.450089436482079,2.2638441411761914 L12.0,-0.0" fill-opacity="0" stroke="black" stroke-width="1" />
<path d="M12.0,-0.0 L16.06336476257852,-2.604248094418072 L22.991410845768947,-3.53754814618773" fill-opacity="0" stroke="black" stroke-width="1" />
<path d="M12.0,-0.0 L16.06336476257852,2.604248094418072 L22.991410845768947,3.53754814618773" fill-opacity="0" stroke="black" stroke-width="1" />
<path d="M16.06336476257852,-2.604248094418072 L22.991410845768947,-3.53754814618773 L23.0,-0.0" fill-opacity="0" stroke="black" stroke-width="1" />
<path d="M16.06336476257852,2.604248094418072 L22.991410845768947,3.53754814618773 L23.0,-0.0" fill-opacity="0" stroke="black" stroke-width="1" />
<path d="M23.0,-0.0 L31.91260144751043,-9.283621327714876 L35.0,-0.0" fill-opacity="0" stroke="black" stroke-width="1" />
<path d="M23.0,-0.0 L31.91260144751043,9.283621327714876 L35.0,-0.0" fill-opacity="0" stroke="black" stroke-width="1" />
<path d="M50.0,-19.0 L32.89304071442738,-19.56018757431228 L44.5727311204942,-31.892099425757863" fill-opacity="0" stroke="black" stroke-width="1" />
<path d="M50.0,19.0 L32.89304071442738,19.56018757431228 L44.5727311204942,31.892099425757863" fill-opacity="0" stroke="black" stroke-width="1" />
<path d="M32.89304071442738,-19.56018757431228 L44.5727311204942,-31.892099425757863 L48.67360579110172,-32.55631643639606" fill-opacity="0" stroke="black" stroke-width="1" />
<path d="M32.89304071442738,19.56018757431228 L44.5727311204942,31.892099425757863 L48.67360579110172,32.55631643639606" fill-opacity="0" stroke="black" stroke-width="1" />
<path d="M44.5727311204942,-31.892099425757863 L48.67360579110172,-32.55631643639606 L49.37948277684163,-33.53841812716356" fill-opacity="0" stroke="black" stroke-width="1" />
<path d="M44.5727311204942,31.892099425757863 L48.67360579110172,32.55631643639606 L49.37948277684163,33.53841812716356" fill-opacity="0" stroke="black" stroke-width="1" />
<path d="M48.67360579110172,-32.55631643639606 L49.37948277684163,-33.53841812716356 L50.0,-37.0" fill-opacity="0" stroke="black" stroke-width="1" />
<path d="M48.67360579110172,32.55631643639606 L49.37948277684163,33.53841812716356 L50.0,37.0" fill-opacity="0" stroke="black" stroke-width="1" />
<path d="M50.0,-37.0 L35.06342869085745,-30.70346870871733 L34.0,-34.0" fill-opacity="0" stroke="black" stroke-width="1" />
<path d="M50.0,37.0 L35.06342869085745,30.70346870871733 L34.0,34.0" fill-opacity="0" stroke="black" stroke-width="1" />
<path d="M30.70346870871733,64.93657130914255 L34.0,66.0 L1.3423866011532886,92.35750055625549" fill-opacity="0" stroke="black" stroke-width="1" />
<path d="M30.70346870871733,-64.93657130914255 L34.0,-66.0 L1.3423866011532886,-92.35750055625549" fill-opacity="0" stroke="black" stroke-width="1" />
<path d="M34.0,-34.0 L7.642499443744516,-1.3423866011532886 L4.566939376280576,-1.0969185654068625" fill-opacity="0" stroke="black" stroke-width="1" />
<path d="M34.0,34.0 L7.642499443744516,1.3423866011532886 L4.566939376280576,1.0969185654068625" fill-opacity="0" stroke="black" stroke-width="1" />
<path d="M7.642499443744516,-1.3423866011532886 L4.566939376280576,-1.0969185654068625 L4.122810259141057,-0.8593946702427437" fill-opacity="0" stroke="black" stroke-width="1" />
<path d="M7.642499443744516,1.3423866011532886 L4.566939376280576,1.0969185654068625 L4.122810259141057,0.8593946702427437" fill-opacity="0" stroke="black" stroke-width="1" />
<path d="M4.566939376280576,-1.0969185654068625 L4.122810259141057,-0.8593946702427437 L4.0,-4.0" fill-opacity="0" stroke="black" stroke-width="1" />
<path d="M4.566939376280576,1.0969185654068625 L4.122810259141057,0.8593946702427437 L4.0,4.0" fill-opacity="0" stroke="black" stroke-width="1" />
<path d="M0.8593946702427437,95.87718974085894 L4.0,96.0 L3.0,97.0" fill-opacity="0" stroke="black" stroke-width="1" />
<path d="M0.8593946702427437,-95.87718974085894 L4.0,-96.0 L3.0,-97.0" fill-opacity="0" stroke="black" stroke-width="1" />
<path d="M4.0,96.0 L3.0,97.0 L2.0,98.0" fill-opacity="0" stroke="black" stroke-width="1" />
<path d="M4.0,-96.0 L3.0,-97.0 L2.0,-98.0" fill-opacity="0" stroke="black" stroke-width="1" />
<path d="M3.0,97.0 L2.0,98.0 L0.42863201491331604,98.91139721734615" fill-opacity="0" stroke="black" stroke-width="1" />
<path d="M3.0,-97.0 L2.0,-98.0 L0.42863201491331604,-98.91139721734615" fill-opacity="0" stroke="black" stroke-width="1" />
<path d="M2.0,-2.0 L1.088602782653847,-0.42863201491331604 L0.0,-0.0" fill-opacity="0" stroke="black" stroke-width="1" />
<path d="M2.0,2.0 L1.088602782653847,0.42863201491331604 L0.0,-0.0" fill-opacity="0" stroke="black" stroke-width="1" />
<path d="M0.0,-0.0 L-10.450089436482079,-2.2638441411761914 L-12.0,-0.0" fill-opacity="0" stroke="black" stroke-width="1" />
<path d="M0.0,-0.0 L-10.450089436482079,2.2638441411761914 L-12.0,-0.0" fill-opacity="0" stroke="black" stroke-width="1" />
<path d="M-12.0,-0.0 L-16.06336476257852,-2.604248094418072 L-22.991410845768947,-3.53754814618773" fill-opacity="0" stroke="black" stroke-width="1" />
<path d="M-12.0,-0.0 L-16.06336476257852,2.604248094418072 L-22.991410845768947,3.53754814618773" fill-opacity="0" stroke="black" stroke-width="1" />
<path d="M-16.06336476257852,-2.604248094418072 L-22.991410845768947,-3.53754814618773 L-23.0,-0.0" fill-opacity="0" stroke="black" stroke-width="1" />
<path d="M-16.06336476257852,2.604248094418072 L-22.991410845768947,3.53754814618773 L-23.0,-0.0" fill-opacity="0" stroke="black" stroke-width="1" />
<path d="M-23.0,-0.0 L-31.91260144751043,-9.283621327714876 L-35.0,-0.0" fill-opacity="0" stroke="black" stroke-width="1" />
<path d="M-23.0,-0.0 L-31.91260144751043,9.283621327714876 L-35.0,-0.0" fill-opacity="0" stroke="black" stroke-width="1" />
<path d="M-50.0,-19.0 L-32.89304071442738,-19.56018757431228 L-44.5727311204942,-31.892099425757863" fill-opacity="0" stroke="black" stroke-width="1" />
<path d="M-50.0,19.0 L-32.89304071442738,19.56018757431228 L-44.5727311204942,31.892099425757863" fill-opacity="0" stroke="black" stroke-width="1" />
<path d="M-32.89304071442738,-19.56018757431228 L-44.5727311204942,-31.892099425757863 L-48.67360579110172,-32.55631643639606" fill-opacity="0" stroke="black" stroke-width="1" />
<path d="M-32.89304071442738,19.56018757431228 L-44.5727311204942,31.892099425757863 L-48.67360579110172,32.55631643639606" fill-opacity="0" stroke="black" stroke-width="1" />
<path d="M-44.5727311204942,-31.892099425757863 L-48.67360579110172,-32.55631643639606 L-49.37948277684163,-33.53841812716356" fill-opacity="0" stroke="black" stroke-width="1" />
<path d="M-44.5727311204942,31.892099425757863 L-48.67360579110172,32.55631643639606 L-49.37948277684163,33.53841812716356" fill-opacity="0" stroke="black" stroke-width="1" />
<path d="M-48.67360579110172,-32.55631643639606 L-49.37948277684163,-33.53841812716356 L-50.0,-37.0" fill-opacity="0" stroke="black" stroke-width="1" />
<path d="M-48.67360579110172,32.55631643639606 L-49.37948277684163,33.53841812716356 L-50.0,37.0" fill-opacity="0" stroke="black" stroke-width="1" />
<path d="M-50.0,-37.0 L-35.06342869085745,-30.70346870871733 L-34.0,-34.0" fill-opacity="0" stroke="black" stroke-width="1" />
<path d="M-50.0,37.0 L-35.06342869085745,30.70346870871733 L-34.0,34.0" fill-opacity="0" stroke="black" stroke-width="1" />
<path d="M-30.70346870871733,64.93657130914255 L-34.0,66.0 L-1.3423866011532886,92.35750055625549" fill-opacity="0" stroke="black" stroke-width="1" />
<path d="M-30.70346870871733,-64.93657130914255 L-34.0,-66.0 L-1.3423866011532886,-92.35750055625549" fill-opacity="0" stroke="black" stroke-width="1" />
<path d="M-34.0,-34.0 L-7.642499443744516,-1.3423866011532886 L-4.566939376280576,-1.0969185654068625" fill-opacity="0" stroke="black" stroke-width="1" />
<path d="M-34.0,34.0 L-7.642499443744516,1.3423866011532886 L-4.566939376280576,1.0969185654068625" fill-opacity="0" stroke="black" stroke-width="1" />
<path d="M-7.642499443744516,-1.3423866011532886 L-4.566939376280576,-1.0969185654068625 L-4.122810259141057,-0.8593946702427437" fill-opacity="0" stroke="black" stroke-width="1" />
<path d="M-7.642499443744516,1.3423866011532886 L-4.566939376280576,1.0969185654068625 L-4.122810259141057,0.8593946702427437" fill-opacity="0" stroke="black" stroke-width="1" />
<path d="M-4.566939376280576,-1.0969185654068625 L-4.122810259141057,-0.8593946702427437 L-4.0,-4.0" fill-opacity="0" stroke="black" stroke-width="1" />
<path d="M-4.566939376280576,1.0969185654068625 L-4.122810259141057,0.8593946702427437 L-4.0,4.0" fill-opacity="0" stroke="black" stroke-width="1" />
<path d="M-0.8593946702427437,95.87718974085894 L-4.0,96.0 L-3.0,97.0" fill-opacity="0" stroke="black" stroke-width="1" />
<path d="M-0.8593946702427437,-95.87718974085894 L-4.0,-96.0 L-3.0,-97.0" fill-opacity="0" stroke="black" stroke-width="1" />
<path d="M-4.0,96.0 L-3.0,97.0 L-2.0,98.0" fill-opacity="0" stroke="black" stroke-width="1" />
<path d="M-4.0,-96.0 L-3.0,-97.0 L-2.0,-98.0" fill-opacity="0" stroke="black" stroke-width="1" />
<path d="M-3.0,97.0 L-2.0,98.0 L-0.42863201491331604,98.91139721734615" fill-opacity="0" stroke="black" stroke-width="1" />
<path d="M-3.0,-97.0 L-2.0,-98.0 L-0.42863201491331604,-98.91139721734615" fill-opacity="0" stroke="black" stroke-width="1" />
<path d="M-2.0,-2.0 L-1.088602782653847,-0.42863201491331604 L0.0,-0.0" fill-opacity="0" stroke="black" stroke-width="1" />
<path d="M-2.0,2.0 L-1.088602782653847,0.42863201491331604 L0.0,-0.0" fill-opacity="0" stroke="black" stroke-width="1" />
<path d="M100.0,-0.0 L89.54991056351793,2.2638441411761914 L88.0,-0.0" fill-opacity="0" stroke="black" stroke-width="1" />
<path d="M100.0,-0.0 L89.54991056351793,-2.2638441411761914 L88.0,-0.0" fill-opacity="0" stroke="black" stroke-width="1" />
<path d="M88.0,-0.0 L83.93663523742148,2.604248094418072 L77.00858915423106,3.53754814618773" fill-opacity="0" stroke="black" stroke-width="1" />
<path d="M88.0,-0.0 L83.93663523742148,-2.604248094418072 L77.00858915423106,-3.53754814618773" fill-opacity="0" stroke="black" stroke-width="1" />
<path d="M83.93663523742148,2.604248094418072 L77.00858915423106,3.53754814618773 L77.0,-0.0" fill-opacity="0" stroke="black" stroke-width="1" />
<path d="M83.93663523742148,-2.604248094418072 L77.00858915423106,-3.53754814618773 L77.0,-0.0" fill-opacity="0" stroke="black" stroke-width="1" />
<path d="M77.0,-0.0 L68.08739855248957,9.283621327714876 L65.0,-0.0" fill-opacity="0" stroke="black" stroke-width="1" />
<path d="M77.0,-0.0 L68.08739855248957,-9.283621327714876 L65.0,-0.0" fill-opacity="0" stroke="black" stroke-width="1" />
<path d="M50.0,19.0 L67.10695928557263,19.56018757431228 L55.4272688795058,31.892099425757863" fill-opacity="0" stroke="black" stroke-width="1" />
<path d="M50.0,-19.0 L67.10695928557263,-19.56018757431228 L55.4272688795058,-31.892099425757863" fill-opacity="0" stroke="black" stroke-width="1" />
<path d="M67.10695928557263,19.56018757431228 L55.4272688795058,31.892099425757863 L51.32639420889828,32.55631643639606" fill-opacity="0" stroke="black" stroke-width="1" />
<path d="M67.10695928557263,-19.56018757431228 L55.4272688795058,-31.892099425757863 L51.32639420889828,-32.55631643639606" fill-opacity="0" stroke="black" stroke-width="1" />
<path d="M55.4272688795058,31.892099425757863 L51.32639420889828,32.55631643639606 L50.62051722315837,33.53841812716356" fill-opacity="0" stroke="black" stroke-width="1" />
<path d="M55.4272688795058,-31.892099425757863 L51.32639420889828,-32.55631643639606 L50.62051722315837,-33.53841812716356" fill-opacity="0" stroke="black" stroke-width="1" />
<path d="M51.32639420889828,32.55631643639606 L50.62051722315837,33.53841812716356 L50.0,37.0" fill-opacity="0" stroke="black" stroke-width="1" />
<path d="M51.32639420889828,-32.55631643639606 L50.62051722315837,-33.53841812716356 L50.0,-37.0" fill-opacity="0" stroke="black" stroke-width="1" />
<path d="M50.0,37.0 L64.93657130914255,30.70346870871733 L66.0,34.0" fill-opacity="0" stroke="black" stroke-width="1" />
<path d="M50.0,-37.0 L64.93657130914255,-30.70346870871733 L66.0,-34.0" fill-opacity="0" stroke="black" stroke-width="1" />
<path d="M64.93657130914255,30.70346870871733 L66.0,34.0 L92.35750055625549,1.3423866011532886" fill-opacity="0" stroke="black" stroke-width="1" />
<path d="M64.93657130914255,-30.70346870871733 L66.0,-34.0 L92.35750055625549,-1.3423866011532886" fill-opacity="0" stroke="black" stroke-width="1" />
<path d="M66.0,34.0 L92.35750055625549,1.3423866011532886 L95.43306062371943,1.0969185654068625" fill-opacity="0" stroke="black" stroke-width="1" />
<path d="M66.0,-34.0 L92.35750055625549,-1.3423866011532886 L95.43306062371943,-1.0969185654068625" fill-opacity="0" stroke="black" stroke-width="1" />
<path d="M92.35750055625549,1.3423866011532886 L95.43306062371943,1.0969185654068625 L95.87718974085894,0.8593946702427437" fill-opacity="0" stroke="black" stroke-width="1" />
<path d="M92.35750055625549,-1.3423866011532886 L95.43306062371943,-1.0969185654068625 L95.87718974085894,-0.8593946702427437" fill-opacity="0" stroke="black" stroke-width="1" />
<path d="M95.43306062371943,1.0969185654068625 L95.87718974085894,0.8593946702427437 L96.0,4.0" fill-opacity="0" stroke="black" stroke-width="1" />
<path d="M95.43306062371943,-1.0969185654068625 L95.87718974085894,-0.8593946702427437 L96.0,-4.0" fill-opacity="0" stroke="black" stroke-width="1" />
<path d="M95.87718974085894,0.8593946702427437 L96.0,4.0 L97.0,3.0" fill-opacity="0" stroke="black" stroke-width="1" />
<path d="M95.87718974085894,-0.8593946702427437 L96.0,-4.0 L97.0,-3.0" fill-opacity="0" stroke="black" stroke-width="1" />
<path d="M96.0,4.0 L97.0,3.0 L98.0,2.0" fill-opacity="0" stroke="black" stroke-width="1" />
<path d="M96.0,-4.0 L97.0,-3.0 L98.0,-2.0" fill-opacity="0" stroke="black" stroke-width="1" />
<path d="M97.0,3.0 L98.0,2.0 L98.91139721734615,0.42863201491331604" fill-opacity="0" stroke="black" stroke-width="1" />
<path d="M97.0,-3.0 L98.0,-2.0 L98.91139721734615,-0.42863201491331604" fill-opacity="0" stroke="black" stroke-width="1" />
<path d="M98.0,2.0 L98.91139721734615,0.42863201491331604 L100.0,-0.0" fill-opacity="0" stroke="black" stroke-width="1" />
<path d="M98.0,-2.0 L98.91139721734615,-0.42863201491331604 L100.0,-0.0" fill-opacity="0" stroke="black" stroke-width="1" />
<path d="M0.0,-0.0 L2.2638441411761914,-10.450089436482079 L0.0,-12.0" fill-opacity="0" stroke="black" stroke-width="1" />
<path d="M0.0,-0.0 L2.2638441411761914,10.450089436482079 L0.0,12.0" fill-opacity="0" stroke="black" stroke-width="1" />
<path d="M0.0,100.0 L2.2638441411761914,89.54991056351793 L0.0,88.0" fill-opacity="0" stroke="black" stroke-width="1" />
<path d="M0.0,-100.0 L2.2638441411761914,-89.54991056351793 L0.0,-88.0" fill-opacity="0" stroke="black" stroke-width="1" />
<path d="M0.0,-12.0 L2.604248094418072,-16.06336476257852 L3.53754814618773,-22.991410845768947" fill-opacity="0" stroke="black" stroke-width="1" />
<path d="M0.0,12.0 L2.604248094418072,16.06336476257852 L3.53754814618773,22.991410845768947" fill-opacity="0" stroke="black" stroke-width="1" />
<path d="M0.0,88.0 L2.604248094418072,83.93663523742148 L3.53754814618773,77.00858915423106" fill-opacity="0" stroke="black" stroke-width="1" />
<path d="M0.0,-88.0 L2.604248094418072,-83.93663523742148 L3.53754814618773,-77.00858915423106" fill-opacity="0" stroke="black" stroke-width="1" />
<path d="M2.604248094418072,-16.06336476257852 L3.53754814618773,-22.991410845768947 L0.0,-23.0" fill-opacity="0" stroke="black" stroke-width="1" />
<path d="M2.604248094418072,16.06336476257852 L3.53754814618773,22.991410845768947 L0.0,23.0" fill-opacity="0" stroke="black" stroke-width="1" />
<path d="M2.604248094418072,83.93663523742148 L3.53754814618773,77.00858915423106 L0.0,77.0" fill-opacity="0" stroke="black" stroke-width="1" />
<path d="M2.604248094418072,-83.93663523742148 L3.53754814618773,-77.00858915423106 L0.0,-77.0" fill-opacity="0" stroke="black" stroke-width="1" />
<path d="M0.0,-23.0 L9.283621327714876,-31.91260144751043 L0.0,-35.0" fill-opacity="0" stroke="black" stroke-width="1" />
<path d="M0.0,23.0 L9.283621327714876,31.91260144751043 L0.0,35.0" fill-opacity="0" stroke="black" stroke-width="1" />
<path d="M0.0,77.0 L9.283621327714876,68.08739855248957 L0.0,65.0" fill-opacity="0" stroke="black" stroke-width="1" />
<path d="M0.0,-77.0 L9.283621327714876,-68.08739855248957 L0.0,-65.0" fill-opacity="0" stroke="black" stroke-width="1" />
<path d="M19.0,-50.0 L19.56018757431228,-32.89304071442738 L31.892099425757863,-44.5727311204942" fill-opacity="0" stroke="black" stroke-width="1" />
<path d="M19.0,50.0 L19.56018757431228,32.89304071442738 L31.892099425757863,44.5727311204942" fill-opacity="0" stroke="black" stroke-width="1" />
<path d="M19.0,50.0 L19.56018757431228,67.10695928557263 L31.892099425757863,55.4272688795058" fill-opacity="0" stroke="black" stroke-width="1" />
<path d="M19.0,-50.0 L19.56018757431228,-67.10695928557263 L31.892099425757863,-55.4272688795058" fill-opacity="0" stroke="black" stroke-width="1" />
<path d="M19.56018757431228,-32.89304071442738 L31.892099425757863,-44.5727311204942 L32.55631643639606,-48.67360579110172" fill-opacity="0" stroke="black" stroke-width="1" />
<path d="M19.56018757431228,32.89304071442738 L31.892099425757863,44.5727311204942 L32.55631643639606,48.67360579110172" fill-opacity="0" stroke="black" stroke-width="1" />
<path d="M19.56018757431228,67.10695928557263 L31.892099425757863,55.4272688795058 L32.55631643639606,51.32639420889828" fill-opacity="0" stroke="black" stroke-width="1" />
<path d="M19.56018757431228,-67.10695928557263 L31.892099425757863,-55.4272688795058 L32.55631643639606,-51.32639420889828" fill-opacity="0" stroke="black" stroke-width="1" />
<path d="M31.892099425757863,-44.5727311204942 L32.55631643639606,-48.67360579110172 L33.53841812716356,-49.37948277684163" fill-opacity="0" stroke="black" stroke-width="1" />
<path d="M31.892099425757863,44.5727311204942 L32.55631643639606,48.67360579110172 L33.53841812716356,49.37948277684163" fill-opacity="0" stroke="black" stroke-width="1" />
<path d="M31.892099425757863,55.4272688795058 L32.55631643639606,51.32639420889828 L33.53841812716356,50.62051722315837" fill-opacity="0" stroke="black" stroke-width="1" />
<path d="M31.892099425757863,-55.4272688795058 L32.55631643639606,-51.32639420889828 L33.53841812716356,-50.62051722315837" fill-opacity="0" stroke="black" stroke-width="1" />
<path d="M32.55631643639606,-48.67360579110172 L33.53841812716356,-49.37948277684163 L37.0,-50.0" fill-opacity="0" stroke="black" stroke-width="1" />
<path d="M32.55631643639606,48.67360579110172 L33.53841812716356,49.37948277684163 L37.0,50.0" fill-opacity="0" stroke="black" stroke-width="1" />
<path d="M32.55631643639606,51.32639420889828 L33.53841812716356,50.62051722315837 L37.0,50.0" fill-opacity="0" stroke="black" stroke-width="1" />
<path d="M32.55631643639606,-51.32639420889828 L33.53841812716356,-50.62051722315837 L37.0,-50.0" fill-opacity="0" stroke="black" stroke-width="1" />
<path d="M37.0,-50.0 L30.70346870871733,-35.06342869085745 L34.0,-34.0" fill-opacity="0" stroke="black" stroke-width="1" />
<path d="M37.0,50.0 L30.70346870871733,35.06342869085745 L34.0,34.0" fill-opacity="0" stroke="black" stroke-width="1" />
<path d="M37.0,50.0 L30.70346870871733,64.93657130914255 L34.0,66.0" fill-opacity="0" stroke="black" stroke-width="1" />
<path d="M37.0,-50.0 L30.70346870871733,-64.93657130914255 L34.0,-66.0" fill-opacity="0" stroke="black" stroke-width="1" />
<path d="M34.0,-34.0 L1.3423866011532886,-7.642499443744516 L1.0969185654068625,-4.566939376280576" fill-opacity="0" stroke="black" stroke-width="1" />
<path d="M34.0,34.0 L1.3423866011532886,7.642499443744516 L1.0969185654068625,4.566939376280576" fill-opacity="0" stroke="black" stroke-width="1" />
<path d="M34.0,66.0 L1.3423866011532886,92.35750055625549 L1.0969185654068625,95.43306062371943" fill-opacity="0" stroke="black" stroke-width="1" />
<path d="M34.0,-66.0 L1.3423866011532886,-92.35750055625549 L1.0969185654068625,-95.43306062371943" fill-opacity="0" stroke="black" stroke-width="1" />
<path d="M1.3423866011532886,-7.642499443744516 L1.0969185654068625,-4.566939376280576 L0.8593946702427437,-4.122810259141057" fill-opacity="0" stroke="black" stroke-width="1" />
<path d="M1.3423866011532886,7.642499443744516 L1.0969185654068625,4.566939376280576 L0.8593946702427437,4.122810259141057" fill-opacity="0" stroke="black" stroke-width="1" />
<path d="M1.3423866011532886,92.35750055625549 L1.0969185654068625,95.43306062371943 L0.8593946702427437,95.87718974085894" fill-opacity="0" stroke="black" stroke-width="1" />
<path d="M1.3423866011532886,-92.35750055625549 L1.0969185654068625,-95.43306062371943 L0.8593946702427437,-95.87718974085894" fill-opacity="0" stroke="black" stroke-width="1" />
<path d="M1.0969185654068625,-4.566939376280576 L0.8593946702427437,-4.122810259141057 L4.0,-4.0" fill-opacity="0" stroke="black" stroke-width="1" />
<path d="M1.0969185654068625,4.566939376280576 L0.8593946702427437,4.122810259141057 L4.0,4.0" fill-opacity="0" stroke="black" stroke-width="1" />
<path d="M1.0969185654068625,95.43306062371943 L0.8593946702427437,95.87718974085894 L4.0,96.0" fill-opacity="0" stroke="black" stroke-width="1" />
<path d="M1.0969185654068625,-95.43306062371943 L0.8593946702427437,-95.87718974085894 L4.0,-96.0" fill-opacity="0" stroke="black" stroke-width="1" />
<path d="M2.0,-2.0 L0.42863201491331604,-1.088602782653847 L0.0,-0.0" fill-opacity="0" stroke="black" stroke-width="1" />
<path d="M2.0,2.0 L0.42863201491331604,1.088602782653847 L0.0,-0.0" fill-opacity="0" stroke="black" stroke-width="1" />
<path d="M2.0,98.0 L0.42863201491331604,98.91139721734615 L0.0,100.0" fill-opacity="0" stroke="black" stroke-width="1" />
<path d="M2.0,-98.0 L0.42863201491331604,-98.91139721734615 L0.0,-100.0" fill-opacity="0" stroke="black" stroke-width="1" />
<path d="M0.0,100.0 L-2.2638441411761914,89.54991056351793 L0.0,88.0" fill-opacity="0" stroke="black" stroke-width="1" />
<path d="M0.0,-0.0 L-2.2638441411761914,-10.450089436482079 L0.0,-12.0" fill-opacity="0" stroke="black" stroke-width="1" />
<path d="M0.0,-0.0 L-2.2638441411761914,10.450089436482074 L0.0,12.0" fill-opacity="0" stroke="black" stroke-width="1" />
<path d="M0.0,-100.0 L-2.2638441411761914,-89.54991056351793 L0.0,-88.0" fill-opacity="0" stroke="black" stroke-width="1" />
<path d="M0.0,88.0 L-2.604248094418072,83.93663523742148 L-3.53754814618773,77.00858915423106" fill-opacity="0" stroke="black" stroke-width="1" />
<path d="M0.0,-12.0 L-2.604248094418072,-16.06336476257852 L-3.53754814618773,-22.991410845768947" fill-opacity="0" stroke="black" stroke-width="1" />
<path d="M0.0,12.0 L-2.604248094418072,16.063364762578516 L-3.53754814618773,22.99141084576894" fill-opacity="0" stroke="black" stroke-width="1" />
<path d="M0.0,-88.0 L-2.604248094418072,-83.93663523742148 L-3.53754814618773,-77.00858915423106" fill-opacity="0" stroke="black" stroke-width="1" />
<path d="M-2.604248094418072,83.93663523742148 L-3.53754814618773,77.00858915423106 L0.0,77.0" fill-opacity="0" stroke="black" stroke-width="1" />
<path d="M-2.604248094418072,-16.06336476257852 L-3.53754814618773,-22.991410845768947 L0.0,-23.0" fill-opacity="0" stroke="black" stroke-width="1" />
<path d="M-2.604248094418072,16.063364762578516 L-3.53754814618773,22.99141084576894 L0.0,23.0" fill-opacity="0" stroke="black" stroke-width="1" />
<path d="M-2.604248094418072,-83.93663523742148 L-3.53754814618773,-77.00858915423106 L0.0,-77.0" fill-opacity="0" stroke="black" stroke-width="1" />
<path d="M0.0,77.0 L-9.283621327714876,68.08739855248957 L0.0,65.0" fill-opacity="0" stroke="black" stroke-width="1" />
<path d="M0.0,-23.0 L-9.283621327714876,-31.91260144751043 L0.0,-35.0" fill-opacity="0" stroke="black" stroke-width="1" />
<path d="M0.0,23.0 L-9.283621327714876,31.912601447510426 L0.0,35.0" fill-opacity="0" stroke="black" stroke-width="1" />
<path d="M0.0,-77.0 L-9.283621327714876,-68.08739855248957 L0.0,-65.0" fill-opacity="0" stroke="black" stroke-width="1" />
<path d="M-19.0,50.0 L-19.56018757431228,67.10695928557263 L-31.892099425757863,55.4272688795058" fill-opacity="0" stroke="black" stroke-width="1" />
<path d="M-19.0,-50.0 L-19.56018757431228,-32.89304071442738 L-31.892099425757863,-44.5727311204942" fill-opacity="0" stroke="black" stroke-width="1" />
<path d="M-19.0,50.0 L-19.56018757431228,32.89304071442737 L-31.892099425757863,44.5727311204942" fill-opacity="0" stroke="black" stroke-width="1" />
<path d="M-19.0,-50.0 L-19.56018757431228,-67.10695928557263 L-31.892099425757863,-55.4272688795058" fill-opacity="0" stroke="black" stroke-width="1" />
<path d="M-19.56018757431228,67.10695928557263 L-31.892099425757863,55.4272688795058 L-32.55631643639606,51.32639420889828" fill-opacity="0" stroke="black" stroke-width="1" />
<path d="M-19.56018757431228,-32.89304071442738 L-31.892099425757863,-44.5727311204942 L-32.55631643639606,-48.67360579110172" fill-opacity="0" stroke="black" stroke-width="1" />
<path d="M-19.56018757431228,32.89304071442737 L-31.892099425757863,44.5727311204942 L-32.55631643639606,48.67360579110172" fill-opacity="0" stroke="black" stroke-width="1" />
<path d="M-19.56018757431228,-67.10695928557263 L-31.892099425757863,-55.4272688795058 L-32.55631643639606,-51.32639420889828" fill-opacity="0" stroke="black" stroke-width="1" />
<path d="M-31.892099425757863,55.4272688795058 L-32.55631643639606,51.32639420889828 L-33.53841812716356,50.62051722315837" fill-opacity="0" stroke="black" stroke-width="1" />
<path d="M-31.892099425757863,-44.5727311204942 L-32.55631643639606,-48.67360579110172 L-33.53841812716356,-49.37948277684163" fill-opacity="0" stroke="black" stroke-width="1" />
<path d="M-31.892099425757863,44.5727311204942 L-32.55631643639606,48.67360579110172 L-33.53841812716356,49.37948277684163" fill-opacity="0" stroke="black" stroke-width="1" />
<path d="M-31.892099425757863,-55.4272688795058 L-32.55631643639606,-51.32639420889828 L-33.53841812716356,-50.62051722315837" fill-opacity="0" stroke="black" stroke-width="1" />
<path d="M-32.55631643639606,51.32639420889828 L-33.53841812716356,50.62051722315837 L-37.0,50.0" fill-opacity="0" stroke="black" stroke-width="1" />
<path d="M-32.55631643639606,-48.67360579110172 L-33.53841812716356,-49.37948277684163 L-37.0,-50.0" fill-opacity="0" stroke="black" stroke-width="1" />
<path d="M-32.55631643639606,48.67360579110172 L-33.53841812716356,49.37948277684163 L-37.0,50.0" fill-opacity="0" stroke="black" stroke-width="1" />
<path d="M-32.55631643639606,-51.32639420889828 L-33.53841812716356,-50.62051722315837 L-37.0,-50.0" fill-opacity="0" stroke="black" stroke-width="1" />
<path d="M-37.0,50.0 L-30.70346870871733,64.93657130914255 L-34.0,66.0" fill-opacity="0" stroke="black" stroke-width="1" />
<path d="M-37.0,-50.0 L-30.70346870871733,-35.06342869085745 L-34.0,-34.0" fill-opacity="0" stroke="black" stroke-width="1" />
<path d="M-37.0,50.0 L-30.70346870871733,35.06342869085745 L-34.0,34.0" fill-opacity="0" stroke="black" stroke-width="1" />
<path d="M-37.0,-50.0 L-30.70346870871733,-64.93657130914255 L-34.0,-66.0" fill-opacity="0" stroke="black" stroke-width="1" />
<path d="M-34.0,66.0 L-1.3423866011532886,92.35750055625549 L-1.0969185654068625,95.43306062371943" fill-opacity="0" stroke="black" stroke-width="1" />
<path d="M-34.0,-34.0 L-1.3423866011532886,-7.642499443744516 L-1.0969185654068625,-4.566939376280576" fill-opacity="0" stroke="black" stroke-width="1" />
<path d="M-34.0,34.0 L-1.3423866011532886,7.642499443744512 L-1.0969185654068625,4.566939376280573" fill-opacity="0" stroke="black" stroke-width="1" />
<path d="M-34.0,-66.0 L-1.3423866011532886,-92.35750055625549 L-1.0969185654068625,-95.43306062371943" fill-opacity="0" stroke="black" stroke-width="1" />
<path d="M-1.3423866011532886,92.35750055625549 L-1.0969185654068625,95.43306062371943 L-0.8593946702427437,95.87718974085894" fill-opacity="0" stroke="black" stroke-width="1" />
<path d="M-1.3423866011532886,-7.642499443744516 L-1.0969185654068625,-4.566939376280576 L-0.8593946702427437,-4.122810259141057" fill-opacity="0" stroke="black" stroke-width="1" />
<path d="M-1.3423866011532886,7.642499443744512 L-1.0969185654068625,4.566939376280573 L-0.8593946702427437,4.122810259141062" fill-opacity="0" stroke="black" stroke-width="1" />
<path d="M-1.3423866011532886,-92.35750055625549 L-1.0969185654068625,-95.43306062371943 L-0.8593946702427437,-95.87718974085894" fill-opacity="0" stroke="black" stroke-width="1" />
<path d="M-1.0969185654068625,95.43306062371943 L-0.8593946702427437,95.87718974085894 L-4.0,96.0" fill-opacity="0" stroke="black" stroke-width="1" />
<path d="M-1.0969185654068625,-4.566939376280576 L-0.8593946702427437,-4.122810259141057 L-4.0,-4.0" fill-opacity="0" stroke="black" stroke-width="1" />
<path d="M-1.0969185654068625,4.566939376280573 L-0.8593946702427437,4.122810259141062 L-4.0,4.0" fill-opacity="0" stroke="black" stroke-width="1" />
<path d="M-1.0969185654068625,-95.43306062371943 L-0.8593946702427437,-95.87718974085894 L-4.0,-96.0" fill-opacity="0" stroke="black" stroke-width="1" />
<path d="M-2.0,98.0 L-0.42863201491331604,98.91139721734615 L0.0,100.0" fill-opacity="0" stroke="black" stroke-width="1" />
<path d="M-2.0,-2.0 L-0.42863201491331604,-1.088602782653847 L0.0,-0.0" fill-opacity="0" stroke="black" stroke-width="1" />
<path d="M-2.0,2.0 L-0.42863201491331604,1.088602782653851 L0.0,-0.0" fill-opacity="0" stroke="black" stroke-width="1" />
<path d="M-2.0,-98.0 L-0.42863201491331604,-98.91139721734615 L0.0,-100.0" fill-opacity="0" stroke="black" stroke-width="1" />
<path d="M-100.0,-0.0 L-89.54991056351793,-2.2638441411761914 L-88.0,-0.0" fill-opacity="0" stroke="black" stroke-width="1" />
<path d="M-100.0,-0.0 L-89.54991056351793,2.2638441411761914 L-88.0,-0.0" fill-opacity="0" stroke="black" stroke-width="1" />
<path d="M-88.0,-0.0 L-83.93663523742148,-2.604248094418072 L-77.00858915423106,-3.53754814618773" fill-opacity="0" stroke="black" stroke-width="1" />
<path d="M-88.0,-0.0 L-83.93663523742148,2.604248094418072 L-77.00858915423106,3.53754814618773" fill-opacity="0" stroke="black" stroke-width="1" />
<path d="M-83.93663523742148,-2.604248094418072 L-77.00858915423106,-3.53754814618773 L-77.0,-0.0" fill-opacity="0" stroke="black" stroke-width="1" />
<path d="M-83.93663523742148,2.604248094418072 L-77.00858915423106,3.53754814618773 L-77.0,-0.0" fill-opacity="0" stroke="black" stroke-width="1" />
<path d="M-77.0,-0.0 L-68.08739855248957,-9.283621327714876 L-65.0,-0.0" fill-opacity="0" stroke="black" stroke-width="1" />
<path d="M-77.0,-0.0 L-68.08739855248957,9.283621327714876 L-65.0,-0.0" fill-opacity="0" stroke="black" stroke-width="1" />
<path d="M-50.0,-19.0 L-67.10695928557263,-19.56018757431228 L-55.4272688795058,-31.892099425757863" fill-opacity="0" stroke="black" stroke-width="1" />
<path d="M-50.0,19.0 L-67.10695928557263,19.56018757431228 L-55.4272688795058,31.892099425757863" fill-opacity="0" stroke="black" stroke-width="1" />
<path d="M-67.10695928557263,-19.56018757431228 L-55.4272688795058,-31.892099425757863 L-51.32639420889828,-32.55631643639606" fill-opacity="0" stroke="black" stroke-width="1" />
<path d="M-67.10695928557263,19.56018757431228 L-55.4272688795058,31.892099425757863 L-51.32639420889828,32.55631643639606" fill-opacity="0" stroke="black" stroke-width="1" />
<path d="M-55.4272688795058,-31.892099425757863 L-51.32639420889828,-32.55631643639606 L-50.62051722315837,-33.53841812716356" fill-opacity="0" stroke="black" stroke-width="1" />
<path d="M-55.4272688795058,31.892099425757863 L-51.32639420889828,32.55631643639606 L-50.62051722315837,33.53841812716356" fill-opacity="0" stroke="black" stroke-width="1" />
<path d="M-51.32639420889828,-32.55631643639606 L-50.62051722315837,-33.53841812716356 L-50.0,-37.0" fill-opacity="0" stroke="black" stroke-width="1" />
<path d="M-51.32639420889828,32.55631643639606 L-50.62051722315837,33.53841812716356 L-50.0,37.0" fill-opacity="0" stroke="black" stroke-width="1" />
<path d="M-50.0,-37.0 L-64.93657130914255,-30.70346870871733 L-66.0,-34.0" fill-opacity="0" stroke="black" stroke-width="1" />
<path d="M-50.0,37.0 L-64.93657130914255,30.70346870871733 L-66.0,34.0" fill-opacity="0" stroke="black" stroke-width="1" />
<path d="M-64.93657130914255,-30.70346870871733 L-66.0,-34.0 L-92.35750055625549,-1.3423866011532886" fill-opacity="0" stroke="black" stroke-width="1" />
<path d="M-64.93657130914255,30.70346870871733 L-66.0,34.0 L-92.35750055625549,1.3423866011532886" fill-opacity="0" stroke="black" stroke-width="1" />
<path d="M-66.0,-34.0 L-92.35750055625549,-1.3423866011532886 L-95.43306062371943,-1.0969185654068625" fill-opacity="0" stroke="black" stroke-width="1" />
<path d="M-66.0,34.0 L-92.35750055625549,1.3423866011532886 L-95.43306062371943,1.0969185654068625" fill-opacity="0" stroke="black" stroke-width="1" />
<path d="M-92.35750055625549,-1.3423866011532886 L-95.43306062371943,-1.0969185654068625 L-95.87718974085894,-0.8593946702427437" fill-opacity="0" stroke="black" stroke-width="1" />
<path d="M-92.35750055625549,1.3423866011532886 L-95.43306062371943,1.0969185654068625 L-95.87718974085894,0.8593946702427437" fill-opacity="0" stroke="black" stroke-width="1" />
<path d="M-95.43306062371943,-1.0969185654068625 L-95.87718974085894,-0.8593946702427437 L-96.0,-4.0" fill-opacity="0" stroke="black" stroke-width="1" />
<path d="M-95.43306062371943,1.0969185654068625 L-95.87718974085894,0.8593946702427437 L-96.0,4.0" fill-opacity="0" stroke="black" stroke-width="1" />
<path d="M-95.87718974085894,-0.8593946702427437 L-96.0,-4.0 L-97.0,-3.0" fill-opacity="0" stroke="black" stroke-width="1" />
<path d="M-95.87718974085894,0.8593946702427437 L-96.0,4.0 L-97.0,3.0" fill-opacity="0" stroke="black" stroke-width="1" />
<path d="M-96.0,-4.0 L-97.0,-3.0 L-98.0,-2.0" fill-opacity="0" stroke="black" stroke-width="1" />
<path d="M-96.0,4.0 L-97.0,3.0 L-98.0,2.0" fill-opacity="0" stroke="black" stroke-width="1" />
<path d="M-97.0,-3.0 L-98.0,-2.0 L-98.91139721734615,-0.42863201491331604" fill-opacity="0" stroke="black" stroke-width="1" />
<path d="M-97.0,3.0 L-98.0,2.0 L-98.91139721734615,0.42863201491331604" fill-opacity="0" stroke="black" stroke-width="1" />
<path d="M-98.0,-2.0 L-98.91139721734615,-0.42863201491331604 L-100.0,-0.0" fill-opacity="0" stroke="black" stroke-width="1" />
<path d="M-98.0,2.0 L-98.91139721734615,0.42863201491331604 L-100.0,-0.0" fill-opacity="0" stroke="black" stroke-width="1" />
</svg>