<?xml version="1.0" encoding="UTF-8"?>
<svg xmlns="http://www.w3.org/2000/svg" xmlns:xlink="http://www.w3.org/1999/xlink"
     width="250" height="250" viewBox="-125.0 -125.0 250 250">
<defs>
</defs>
<path d="M37.0,50.0 L47.0,53.0 L46.0,54.0" fill-opacity="0" stroke="black" stroke-width="1" />
<path d="M37.0,-50.0 L47.0,-53.0 L46.0,-54.0" fill-opacity="0" stroke="black" stroke-width="1" />
<path d="M47.0,53.0 L46.0,54.0 L44.0,56.0" fill-opacity="0" stroke="black" stroke-width="1" />
<path d="M47.0,-53.0 L46.0,-54.0 L44.0,-56.0" fill-opacity="0" stroke="black" stroke-width="1" />
<path d="M46.0,54.0 L44.0,56.0 L24.0,76.0" fill-opacity="0" stroke="black" stroke-width="1" />
<path d="M46.0,-54.0 L44.0,-56.0 L24.0,-76.0" fill-opacity="0" stroke="black" stroke-width="1" />
<path d="M44.0,56.0 L24.0,76.0 L17.65706203626373,77.16468147539112" fill-opacity="0" stroke="black" stroke-width="1" />
<path d="M44.0,-56.0 L24.0,-76.0 L17.65706203626373,-77.16468147539112" fill-opacity="0" stroke="black" stroke-width="1" />
<path d="M24.0,-24.0 L22.835318524608873,-17.65706203626373 L0.0,-0.0" fill-opacity="0" stroke="black" stroke-width="1" />
<path d="M24.0,24.0 L22.835318524608873,17.65706203626373 L0.0,-0.0" fill-opacity="0" stroke="black" stroke-width="1" />
<path d="M-37.0,50.0 L-47.0,53.0 L-46.0,54.0" fill-opacity="0" stroke="black" stroke-width="1" />
<path d="M-37.0,-50.0 L-47.0,-53.0 L-46.0,-54.0" fill-opacity="0" stroke="black" stroke-width="1" />
<path d="M-47.0,53.0 L-46.0,54.0 L-44.0,56.0" fill-opacity="0" stroke="black" stroke-width="1" />
<path d="M-47.0,-53.0 L-46.0,-54.0 L-44.0,-56.0" fill-opacity="0" stroke="black" stroke-width="1" />
<path d="M-46.0,54.0 L-44.0,56.0 L-24.0,76.0" fill-opacity="0" stroke="black" stroke-width="1" />
<path d="M-46.0,-54.0 L-44.0,-56.0 L-24.0,-76.0" fill-opacity="0" stroke="black" stroke-width="1" />
<path d="M-44.0,56.0 L-24.0,76.0 L-17.65706203626373,77.16468147539112" fill-opacity="0" stroke="black" stroke-width="1" />
<path d="M-44.0,-56.0 L-24.0,-76.0 L-17.65706203626373,-77.16468147539112" fill-opacity="0" stroke="black" stroke-width="1" />
<path d="M-24.0,-24.0 L-22.835318524608873,-17.65706203626373 L0.0,-0.0" fill-opacity="0" stroke="black" stroke-width="1" />
<path d="M-24.0,24.0 L-22.835318524608873,17.65706203626373 L0.0,-0.0" fill-opacity="0" stroke="black" stroke-width="1" />
<path d="M50.0,37.0 L53.0,47.0 L54.0,46.0" fill-opacity="0" stroke="black" stroke-width="1" />
<path d="M50.0,-37.0 L53.0,-47.0 L54.0,-46.0" fill-opacity="0" stroke="black" stroke-width="1" />
<path d="M53.0,47.0 L54.0,46.0 L56.0,44.0" fill-opacity="0" stroke="black" stroke-width="1" />
<path d="M53.0,-47.0 L54.0,-46.0 L56.0,-44.0" fill-opacity="0" stroke="black" stroke-width="1" />
<path d="M54.0,46.0 L56.0,44.0 L76.0,24.0" fill-opacity="0" stroke="black" stroke-width="1" />
<path d="M54.0,-46.0 L56.0,-44.0 L76.0,-24.0" fill-opacity="0" stroke="black" stroke-width="1" />
<path d="M56.0,44.0 L76.0,24.0 L77.16468147539112,17.65706203626373" fill-opacity="0" stroke="black" stroke-width="1" />
<path d="M56.0,-44.0 L76.0,-24.0 L77.16468147539112,-17.65706203626373" fill-opacity="0" stroke="black" stroke-width="1" />
<path d="M76.0,24.0 L77.16468147539112,17.65706203626373 L100.0,-0.0" fill-opacity="0" stroke="black" stroke-width="1" />
<path d="M76.0,-24.0 L77.16468147539112,-17.65706203626373 L100.0,-0.0" fill-opacity="0" stroke="black" stroke-width="1" />
<path d="M24.0,-24.0 L17.65706203626373,-22.835318524608873 L0.0,-0.0" fill-opacity="0" stroke="black" stroke-width="1" />
<path d="M24.0,24.0 L17.65706203626373,22.835318524608873 L0.0,-0.0" fill-opacity="0" stroke="black" stroke-width="1" />
<path d="M24.0,76.0 L17.65706203626373,77.16468147539112 L0.0,100.0" fill-opacity="0" stroke="black" stroke-width="1" />
<path d="M24.0,-76.0 L17.65706203626373,-77.16468147539112 L0.0,-100.0" fill-opacity="0" stroke="black" stroke-width="1" />
<path d="M-24.0,76.0 L-17.65706203626373,77.16468147539112 L0.0,100.0" fill-opacity="0" stroke="black" stroke-width="1" />
<path d="M-24.0,-24.0 L-17.65706203626373,-22.835318524608873 L0.0,-0.0" fill-opacity="0" stroke="black" stroke-width="1" />
<path d="M-24.0,24.0 L-17.65706203626373,22.83531852460888 L0.0,-0.0" fill-opacity="0" stroke="black" stroke-width="1" />
<path d="M-24.0,-76.0 L-17.65706203626373,-77.16468147539112 L0.0,-100.0" fill-opacity="0" stroke="black" stroke-width="1" />
<path d="M-50.0,-37.0 L-53.0,-47.0 L-54.0,-46.0" fill-opacity="0" stroke="black" stroke-width="1" />
<path d="M-50.0,37.0 L-53.0,47.0 L-54.0,46.0" fill-opacity="0" stroke="black" stroke-width="1" />
<path d="M-53.0,-47.0 L-54.0,-46.0 L-56.0,-44.0" fill-opacity="0" stroke="black" stroke-width="1" />
<path d="M-53.0,47.0 L-54.0,46.0 L-56.0,44.0" fill-opacity="0" stroke="black" stroke-width="1" />
<path d="M-54.0,-46.0 L-56.0,-44.0 L-76.0,-24.0" fill-opacity="0" stroke="black" stroke-width="1" />
<path d="M-54.0,46.0 L-56.0,44.0 L-76.0,24.0" fill-opacity="0" stroke="black" stroke-width="1" />
<path d="M-56.0,-44.0 L-76.0,-24.0 L-77.16468147539112,-17.65706203626373" fill-opacity="0" stroke="black" stroke-width="1" />
<path d="M-56.0,44.0 L-76.0,24.0 L-77.16468147539112,17.65706203626373" fill-opacity="0" stroke="black" stroke-width="1" />
<path d="M-76.0,-24.0 L-77.16468147539112,-17.65706203626373 L-100.0,-0.0" fill-opacity="0" stroke="black" stroke-width="1" />
<path d="M-76.0,24.0 L-77.16468147539112,17.65706203626373 L-100.0,-0.0" fill-opacity="0" stroke="black" stroke-width="1" />
<circle cx="0" cy="-97" r="8" stroke-dasharray="39.653880605311166 10.611601852125524" stroke-dashoffset="-17.59291886010284" stroke="black" stroke-width="1" fill="white" fill-opacity="1" />
<circle cx="0" cy="-97" r="4" stroke="black" stroke-width="1" fill="white" fill-opacity="1" />
</svg>