<?xml version="1.0" encoding="UTF-8"?>
<svg xmlns="http://www.w3.org/2000/svg" xmlns:xlink="http://www.w3.org/1999/xlink"
     width="250" height="250" viewBox="-125.0 -125.0 250 250">
<defs>
</defs>
<path d="M19.0,-0.0 L22.349949256090937,-7.816079110171728 L23.0,-0.0" fill-opacity="0" stroke="black" stroke-width="1" />
<path d="M19.0,-0.0 L22.349949256090937,7.816079110171728 L23.0,-0.0" fill-opacity="0" stroke="black" stroke-width="1" />
<path d="M50.0,50.0 L37.0,63.0 L29.65954265964284,70.30313126023779" fill-opacity="0" stroke="black" stroke-width="1" />
<path d="M50.0,-50.0 L37.0,-63.0 L29.65954265964284,-70.30313126023779" fill-opacity="0" stroke="black" stroke-width="1" />
<path d="M37.0,-37.0 L29.696868739762213,-29.65954265964284 L29.0,-29.0" fill-opacity="0" stroke="black" stroke-width="1" />
<path d="M37.0,37.0 L29.696868739762213,29.65954265964284 L29.0,29.0" fill-opacity="0" stroke="black" stroke-width="1" />
<path d="M29.65954265964284,70.30313126023779 L29.0,71.0 L23.0,77.0" fill-opacity="0" stroke="black" stroke-width="1" />
<path d="M29.65954265964284,-70.30313126023779 L29.0,-71.0 L23.0,-77.0" fill-opacity="0" stroke="black" stroke-width="1" />
<path d="M23.0,77.0 L20.0,80.0 L6.112540353718576,88.29510559883016" fill-opacity="0" stroke="black" stroke-width="1" />
<path d="M23.0,-77.0 L20.0,-80.0 L6.112540353718576,-88.29510559883016" fill-opacity="0" stroke="black" stroke-width="1" />
<path d="M20.0,-20.0 L11.704894401169831,-6.112540353718576 L10.38759678953134,-5.762889328894332" fill-opacity="0" stroke="black" stroke-width="1" />
<path d="M20.0,20.0 L11.704894401169831,6.112540353718576 L10.38759678953134,5.762889328894332" fill-opacity="0" stroke="black" stroke-width="1" />
<path d="M11.704894401169831,-6.112540353718576 L10.38759678953134,-5.762889328894332 L8.0,-8.0" fill-opacity="0" stroke="black" stroke-width="1" />
<path d="M11.704894401169831,6.112540353718576 L10.38759678953134,5.762889328894332 L8.0,8.0" fill-opacity="0" stroke="black" stroke-width="1" />
<path d="M5.762889328894332,89.61240321046866 L8.0,92.0 L2.0,98.0" fill-opacity="0" stroke="black" stroke-width="1" />
<path d="M5.762889328894332,-89.61240321046866 L8.0,-92.0 L2.0,-98.0" fill-opacity="0" stroke="black" stroke-width="1" />
<path d="M8.0,92.0 L2.0,98.0 L0.0,100.0" fill-opacity="0" stroke="black" stroke-width="1" />
<path d="M8.0,-92.0 L2.0,-98.0 L0.0,-100.0" fill-opacity="0" stroke="black" stroke-width="1" />
<path d="M-19.0,-0.0 L-22.349949256090937,-7.816079110171728 L-23.0,-0.0" fill-opacity="0" stroke="black" stroke-width="1" />
<path d="M-19.0,-0.0 L-22.349949256090937,7.816079110171728 L-23.0,-0.0" fill-opacity="0" stroke="black" stroke-width="1" />
<path d="M-50.0,50.0 L-37.0,63.0 L-29.65954265964284,70.30313126023779" fill-opacity="0" stroke="black" stroke-width="1" />
<path d="M-50.0,-50.0 L-37.0,-63.0 L-29.65954265964284,-70.30313126023779" fill-opacity="0" stroke="black" stroke-width="1" />
<path d="M-37.0,-37.0 L-29.696868739762213,-29.65954265964284 L-29.0,-29.0" fill-opacity="0" stroke="black" stroke-width="1" />
<path d="M-37.0,37.0 L-29.696868739762213,29.65954265964284 L-29.0,29.0" fill-opacity="0" stroke="black" stroke-width="1" />
<path d="M-29.65954265964284,70.30313126023779 L-29.0,71.0 L-23.0,77.0" fill-opacity="0" stroke="black" stroke-width="1" />
<path d="M-29.65954265964284,-70.30313126023779 L-29.0,-71.0 L-23.0,-77.0" fill-opacity="0" stroke="black" stroke-width="1" />
<path d="M-23.0,77.0 L-20.0,80.0 L-6.112540353718576,88.29510559883016" fill-opacity="0" stroke="black" stroke-width="1" />
<path d="M-23.0,-77.0 L-20.0,-80.0 L-6.112540353718576,-88.29510559883016" fill-opacity="0" stroke="black" stroke-width="1" />
<path d="M-20.0,-20.0 L-11.704894401169831,-6.112540353718576 L-10.38759678953134,-5.762889328894332" fill-opacity="0" stroke="black" stroke-width="1" />
<path d="M-20.0,20.0 L-11.704894401169831,6.112540353718576 L-10.38759678953134,5.762889328894332" fill-opacity="0" stroke="black" stroke-width="1" />
<path d="M-11.704894401169831,-6.112540353718576 L-10.38759678953134,-5.762889328894332 L-8.0,-8.0" fill-opacity="0" stroke="black" stroke-width="1" />
<path d="M-11.704894401169831,6.112540353718576 L-10.38759678953134,5.762889328894332 L-8.0,8.0" fill-opacity="0" stroke="black" stroke-width="1" />
<path d="M-5.762889328894332,89.61240321046866 L-8.0,92.0 L-2.0,98.0" fill-opacity="0" stroke="black" stroke-width="1" />
<path d="M-5.762889328894332,-89.61240321046866 L-8.0,-92.0 L-2.0,-98.0" fill-opacity="0" stroke="black" stroke-width="1" />
<path d="M-8.0,92.0 L-2.0,98.0 L0.0,100.0" fill-opacity="0" stroke="black" stroke-width="1" />
<path d="M-8.0,-92.0 L-2.0,-98.0 L0.0,-100.0" fill-opacity="0" stroke="black" stroke-width="1" />
<path d="M81.0,-0.0 L77.65005074390906,7.816079110171728 L77.0,-0.0" fill-opacity="0" stroke="black" stroke-width="1" />
<path d="M81.0,-0.0 L77.65005074390906,-7.816079110171728 L77.0,-0.0" fill-opacity="0" stroke="black" stroke-width="1" />
<path d="M50.0,50.0 L63.0,37.0 L70.30313126023779,29.65954265964284" fill-opacity="0" stroke="black" stroke-width="1" />
<path d="M50.0,-50.0 L63.0,-37.0 L70.30313126023779,-29.65954265964284" fill-opacity="0" stroke="black" stroke-width="1" />
<path d="M63.0,37.0 L70.30313126023779,29.65954265964284 L71.0,29.0" fill-opacity="0" stroke="black" stroke-width="1" />
<path d="M63.0,-37.0 L70.30313126023779,-29.65954265964284 L71.0,-29.0" fill-opacity="0" stroke="black" stroke-width="1" />
<path d="M70.30313126023779,29.65954265964284 L71.0,29.0 L77.0,23.0" fill-opacity="0" stroke="black" stroke-width="1" />
<path d="M70.30313126023779,-29.65954265964284 L71.0,-29.0 L77.0,-23.0" fill-opacity="0" stroke="black" stroke-width="1" />
<path d="M77.0,23.0 L80.0,20.0 L88.29510559883016,6.112540353718576" fill-opacity="0" stroke="black" stroke-width="1" />
<path d="M77.0,-23.0 L80.0,-20.0 L88.29510559883016,-6.112540353718576" fill-opacity="0" stroke="black" stroke-width="1" />
<path d="M80.0,20.0 L88.29510559883016,6.112540353718576 L89.61240321046866,5.762889328894332" fill-opacity="0" stroke="black" stroke-width="1" />
<path d="M80.0,-20.0 L88.29510559883016,-6.112540353718576 L89.61240321046866,-5.762889328894332" fill-opacity="0" stroke="black" stroke-width="1" />
<path d="M88.29510559883016,6.112540353718576 L89.61240321046866,5.762889328894332 L92.0,8.0" fill-opacity="0" stroke="black" stroke-width="1" />
<path d="M88.29510559883016,-6.112540353718576 L89.61240321046866,-5.762889328894332 L92.0,-8.0" fill-opacity="0" stroke="black" stroke-width="1" />
<path d="M89.61240321046866,5.762889328894332 L92.0,8.0 L98.0,2.0" fill-opacity="0" stroke="black" stroke-width="1" />
<path d="M89.61240321046866,-5.762889328894332 L92.0,-8.0 L98.0,-2.0" fill-opacity="0" stroke="black" stroke-width="1" />
<path d="M92.0,8.0 L98.0,2.0 L100.0,-0.0" fill-opacity="0" stroke="black" stroke-width="1" />
<path d="M92.0,-8.0 L98.0,-2.0 L100.0,-0.0" fill-opacity="0" stroke="black" stroke-width="1" />
<path d="M0.0,-19.0 L7.816079110171728,-22.349949256090937 L0.0,-23.0" fill-opacity="0" stroke="black" stroke-width="1" />
<path d="M0.0,19.0 L7.816079110171728,22.349949256090937 L0.0,23.0" fill-opacity="0" stroke="black" stroke-width="1" />
<path d="M0.0,81.0 L7.816079110171728,77.65005074390906 L0.0,77.0" fill-opacity="0" stroke="black" stroke-width="1" />
<path d="M0.0,-81.0 L7.816079110171728,-77.65005074390906 L0.0,-77.0" fill-opacity="0" stroke="black" stroke-width="1" />
<path d="M37.0,-37.0 L29.65954265964284,-29.696868739762213 L29.0,-29.0" fill-opacity="0" stroke="black" stroke-width="1" />
<path d="M37.0,37.0 L29.65954265964284,29.696868739762213 L29.0,29.0" fill-opacity="0" stroke="black" stroke-width="1" />
<path d="M37.0,63.0 L29.65954265964284,70.30313126023779 L29.0,71.0" fill-opacity="0" stroke="black" stroke-width="1" />
<path d="M37.0,-63.0 L29.65954265964284,-70.30313126023779 L29.0,-71.0" fill-opacity="0" stroke="black" stroke-width="1" />
<path d="M20.0,-20.0 L6.112540353718576,-11.704894401169831 L5.762889328894332,-10.38759678953134" fill-opacity="0" stroke="black" stroke-width="1" />
<path d="M20.0,20.0 L6.112540353718576,11.704894401169831 L5.762889328894332,10.38759678953134" fill-opacity="0" stroke="black" stroke-width="1" />
<path d="M20.0,80.0 L6.112540353718576,88.29510559883016 L5.762889328894332,89.61240321046866" fill-opacity="0" stroke="black" stroke-width="1" />
<path d="M20.0,-80.0 L6.112540353718576,-88.29510559883016 L5.762889328894332,-89.61240321046866" fill-opacity="0" stroke="black" stroke-width="1" />
<path d="M6.112540353718576,-11.704894401169831 L5.762889328894332,-10.38759678953134 L8.0,-8.0" fill-opacity="0" stroke="black" stroke-width="1" />
<path d="M6.112540353718576,11.704894401169831 L5.762889328894332,10.38759678953134 L8.0,8.0" fill-opacity="0" stroke="black" stroke-width="1" />
<path d="M6.112540353718576,88.29510559883016 L5.762889328894332,89.61240321046866 L8.0,92.0" fill-opacity="0" stroke="black" stroke-width="1" />
<path d="M6.112540353718576,-88.29510559883016 L5.762889328894332,-89.61240321046866 L8.0,-92.0" fill-opacity="0" stroke="black" stroke-width="1" />
<path d="M0.0,81.0 L-7.816079110171728,77.65005074390906 L0.0,77.0" fill-opacity="0" stroke="black" stroke-width="1" />
<path d="M0.0,-19.0 L-7.816079110171728,-22.349949256090937 L0.0,-23.0" fill-opacity="0" stroke="black" stroke-width="1" />
<path d="M0.0,19.0 L-7.816079110171728,22.349949256090937 L0.0,23.0" fill-opacity="0" stroke="black" stroke-width="1" />
<path d="M0.0,-81.0 L-7.816079110171728,-77.65005074390906 L0.0,-77.0" fill-opacity="0" stroke="black" stroke-width="1" />
<path d="M-37.0,63.0 L-29.65954265964284,70.30313126023779 L-29.0,71.0" fill-opacity="0" stroke="black" stroke-width="1" />
<path d="M-37.0,-37.0 L-29.65954265964284,-29.696868739762213 L-29.0,-29.0" fill-opacity="0" stroke="black" stroke-width="1" />
<path d="M-37.0,37.0 L-29.65954265964284,29.69686873976221 L-29.0,29.0" fill-opacity="0" stroke="black" stroke-width="1" />
<path d="M-37.0,-63.0 L-29.65954265964284,-70.30313126023779 L-29.0,-71.0" fill-opacity="0" stroke="black" stroke-width="1" />
<path d="M-20.0,80.0 L-6.112540353718576,88.29510559883016 L-5.762889328894332,89.61240321046866" fill-opacity="0" stroke="black" stroke-width="1" />
<path d="M-20.0,-20.0 L-6.112540353718576,-11.704894401169831 L-5.762889328894332,-10.38759678953134" fill-opacity="0" stroke="black" stroke-width="1" />
<path d="M-20.0,20.0 L-6.112540353718576,11.704894401169838 L-5.762889328894332,10.387596789531344" fill-opacity="0" stroke="black" stroke-width="1" />
<path d="M-20.0,-80.0 L-6.112540353718576,-88.29510559883016 L-5.762889328894332,-89.61240321046866" fill-opacity="0" stroke="black" stroke-width="1" />
<path d="M-6.112540353718576,88.29510559883016 L-5.762889328894332,89.61240321046866 L-8.0,92.0" fill-opacity="0" stroke="black" stroke-width="1" />
<path d="M-6.112540353718576,-11.704894401169831 L-5.762889328894332,-10.38759678953134 L-8.0,-8.0" fill-opacity="0" stroke="black" stroke-width="1" />
<path d="M-6.112540353718576,11.704894401169838 L-5.762889328894332,10.387596789531344 L-8.0,8.0" fill-opacity="0" stroke="black" stroke-width="1" />
<path d="M-6.112540353718576,-88.29510559883016 L-5.762889328894332,-89.61240321046866 L-8.0,-92.0" fill-opacity="0" stroke="black" stroke-width="1" />
<path d="M-81.0,-0.0 L-77.65005074390906,-7.816079110171728 L-77.0,-0.0" fill-opacity="0" stroke="black" stroke-width="1" />
<path d="M-81.0,-0.0 L-77.65005074390906,7.816079110171728 L-77.0,-0.0" fill-opacity="0" stroke="black" stroke-width="1" />
<path d="M-50.0,-50.0 L-63.0,-37.0 L-70.30313126023779,-29.65954265964284" fill-opacity="0" stroke="black" stroke-width="1" />
<path d="M-50.0,50.0 L-63.0,37.0 L-70.30313126023779,29.65954265964284" fill-opacity="0" stroke="black" stroke-width="1" />
<path d="M-63.0,-37.0 L-70.30313126023779,-29.65954265964284 L-71.0,-29.0" fill-opacity="0" stroke="black" stroke-width="1" />
<path d="M-63.0,37.0 L-70.30313126023779,29.65954265964284 L-71.0,29.0" fill-opacity="0" stroke="black" stroke-width="1" />
<path d="M-70.30313126023779,-29.65954265964284 L-71.0,-29.0 L-77.0,-23.0" fill-opacity="0" stroke="black" stroke-width="1" />
<path d="M-70.30313126023779,29.65954265964284 L-71.0,29.0 L-77.0,23.0" fill-opacity="0" stroke="black" stroke-width="1" />
<path d="M-77.0,-23.0 L-80.0,-20.0 L-88.29510559883016,-6.112540353718576" fill-opacity="0" stroke="black" stroke-width="1" />
<path d="M-77.0,23.0 L-80.0,20.0 L-88.29510559883016,6.112540353718576" fill-opacity="0" stroke="black" stroke-width="1" />
<path d="M-80.0,-20.0 L-88.29510559883016,-6.112540353718576 L-89.61240321046866,-5.762889328894332" fill-opacity="0" stroke="black" stroke-width="1" />
<path d="M-80.0,20.0 L-88.29510559883016,6.112540353718576 L-89.61240321046866,5.762889328894332" fill-opacity="0" stroke="black" stroke-width="1" />
<path d="M-88.29510559883016,-6.112540353718576 L-89.61240321046866,-5.762889328894332 L-92.0,-8.0" fill-opacity="0" stroke="black" stroke-width="1" />
<path d="M-88.29510559883016,6.112540353718576 L-89.61240321046866,5.762889328894332 L-92.0,8.0" fill-opacity="0" stroke="black" stroke-width="1" />
<path d="M-89.61240321046866,-5.762889328894332 L-92.0,-8.0 L-98.0,-2.0" fill-opacity="0" stroke="black" stroke-width="1" />
<path d="M-89.61240321046866,5.762889328894332 L-92.0,8.0 L-98.0,2.0" fill-opacity="0" stroke="black" stroke-width="1" />
<path d="M-92.0,-8.0 L-98.0,-2.0 L-100.0,-0.0" fill-opacity="0" stroke="black" stroke-width="1" />
<path d="M-92.0,8.0 L-98.0,2.0 L-100.0,-0.0" fill-opacity="0" stroke="black" stroke-width="1" />
<circle cx="0" cy="-97" r="8" stroke-dasharray="39.653880605311166 10.611601852125524" stroke-dashoffset="-17.59291886010284" stroke="black" stroke-width="1" fill="white" fill-opacity="1" />
<circle cx="0" cy="-97" r="4" stroke="black" stroke-width="1" fill="white" fill-opacity="1" />
</svg>