<?xml version="1.0" encoding="UTF-8"?>
<svg xmlns="http://www.w3.org/2000/svg" xmlns:xlink="http://www.w3.org/1999/xlink"
     width="250" height="250" viewBox="-125.0 -125.0 250 250">
<defs>
</defs>
<path d="M6.0,-0.0 L18.65490819491422,-5.75598675266881 L19.004609876584848,-6.72532520493339" fill-opacity="0" stroke="black" stroke-width="1" />
<path d="M6.0,-0.0 L18.65490819491422,5.75598675266881 L19.004609876584848,6.72532520493339" fill-opacity="0" stroke="black" stroke-width="1" />
<path d="M18.65490819491422,-5.75598675266881 L19.004609876584848,-6.72532520493339 L19.099970579267467,-7.464478477332924" fill-opacity="0" stroke="black" stroke-width="1" />
<path d="M18.65490819491422,5.75598675266881 L19.004609876584848,6.72532520493339 L19.099970579267467,7.464478477332924" fill-opacity="0" stroke="black" stroke-width="1" />
<path d="M19.004609876584848,-6.72532520493339 L19.099970579267467,-7.464478477332924 L20.0,-0.0" fill-opacity="0" stroke="black" stroke-width="1" />
<path d="M19.004609876584848,6.72532520493339 L19.099970579267467,7.464478477332924 L20.0,-0.0" fill-opacity="0" stroke="black" stroke-width="1" />
<path d="M20.0,-0.0 L22.08935298450228,-9.961954580119286 L28.0,-0.0" fill-opacity="0" stroke="black" stroke-width="1" />
<path d="M20.0,-0.0 L22.08935298450228,9.961954580119286 L28.0,-0.0" fill-opacity="0" stroke="black" stroke-width="1" />
<path d="M28.0,-0.0 L28.942257175485036,-11.330747160049325 L29.78199469844985,-14.074598739245086" fill-opacity="0" stroke="black" stroke-width="1" />
<path d="M28.0,-0.0 L28.942257175485036,11.330747160049325 L29.78199469844985,14.074598739245086" fill-opacity="0" stroke="black" stroke-width="1" />
<path d="M28.942257175485036,-11.330747160049325 L29.78199469844985,-14.074598739245086 L34.0,-0.0" fill-opacity="0" stroke="black" stroke-width="1" />
<path d="M28.942257175485036,11.330747160049325 L29.78199469844985,14.074598739245086 L34.0,-0.0" fill-opacity="0" stroke="black" stroke-width="1" />
<path d="M50.0,-7.0 L37.19462697725146,-16.48841416205335 L41.617755211648245,-17.370390395404996" fill-opacity="0" stroke="black" stroke-width="1" />
<path d="M50.0,7.0 L37.19462697725146,16.48841416205335 L41.617755211648245,17.370390395404996" fill-opacity="0" stroke="black" stroke-width="1" />
<path d="M37.19462697725146,-16.48841416205335 L41.617755211648245,-17.370390395404996 L50.0,-22.0" fill-opacity="0" stroke="black" stroke-width="1" />
<path d="M37.19462697725146,16.48841416205335 L41.617755211648245,17.370390395404996 L50.0,22.0" fill-opacity="0" stroke="black" stroke-width="1" />
<path d="M50.0,-22.0 L43.06579719668442,-22.30160338541954 L43.92940812549115,-22.363506035810097" fill-opacity="0" stroke="black" stroke-width="1" />
<path d="M50.0,22.0 L43.06579719668442,22.30160338541954 L43.92940812549115,22.363506035810097" fill-opacity="0" stroke="black" stroke-width="1" />
<path d="M43.06579719668442,-22.30160338541954 L43.92940812549115,-22.363506035810097 L50.0,-23.0" fill-opacity="0" stroke="black" stroke-width="1" />
<path d="M43.06579719668442,22.30160338541954 L43.92940812549115,22.363506035810097 L50.0,23.0" fill-opacity="0" stroke="black" stroke-width="1" />
<path d="M50.0,-23.0 L45.51767706817062,-29.20818857448249 L50.0,-33.0" fill-opacity="0" stroke="black" stroke-width="1" />
<path d="M50.0,23.0 L45.51767706817062,29.20818857448249 L50.0,33.0" fill-opacity="0" stroke="black" stroke-width="1" />
<path d="M50.0,50.0 L43.0,57.0 L37.0,63.0" fill-opacity="0" stroke="black" stroke-width="1" />
<path d="M50.0,-50.0 L43.0,-57.0 L37.0,-63.0" fill-opacity="0" stroke="black" stroke-width="1" />
<path d="M43.0,57.0 L37.0,63.0 L24.0,76.0" fill-opacity="0" stroke="black" stroke-width="1" />
<path d="M43.0,-57.0 L37.0,-63.0 L24.0,-76.0" fill-opacity="0" stroke="black" stroke-width="1" />
<path d="M37.0,63.0 L24.0,76.0 L23.0,77.0" fill-opacity="0" stroke="black" stroke-width="1" />
<path d="M37.0,-63.0 L24.0,-76.0 L23.0,-77.0" fill-opacity="0" stroke="black" stroke-width="1" />
<path d="M24.0,76.0 L23.0,77.0 L19.0,81.0" fill-opacity="0" stroke="black" stroke-width="1" />
<path d="M24.0,-76.0 L23.0,-77.0 L19.0,-81.0" fill-opacity="0" stroke="black" stroke-width="1" />
<path d="M23.0,77.0 L19.0,81.0 L5.148746388054488,93.23696266920831" fill-opacity="0" stroke="black" stroke-width="1" />
<path d="M23.0,-77.0 L19.0,-81.0 L5.148746388054488,-93.23696266920831" fill-opacity="0" stroke="black" stroke-width="1" />
<path d="M19.0,-19.0 L6.763037330791694,-5.148746388054488 L5.299110751888869,-1.8223919815912815" fill-opacity="0" stroke="black" stroke-width="1" />
<path d="M19.0,19.0 L6.763037330791694,5.148746388054488 L5.299110751888869,1.8223919815912815" fill-opacity="0" stroke="black" stroke-width="1" />
<path d="M6.763037330791694,-5.148746388054488 L5.299110751888869,-1.8223919815912815 L0.0,-0.0" fill-opacity="0" stroke="black" stroke-width="1" />
<path d="M6.763037330791694,5.148746388054488 L5.299110751888869,1.8223919815912815 L0.0,-0.0" fill-opacity="0" stroke="black" stroke-width="1" />
<path d="M-6.0,-0.0 L-18.65490819491422,-5.75598675266881 L-19.004609876584848,-6.72532520493339" fill-opacity="0" stroke="black" stroke-width="1" />
<path d="M-6.0,-0.0 L-18.65490819491422,5.75598675266881 L-19.004609876584848,6.72532520493339" fill-opacity="0" stroke="black" stroke-width="1" />
<path d="M-18.65490819491422,-5.75598675266881 L-19.004609876584848,-6.72532520493339 L-19.099970579267467,-7.464478477332924" fill-opacity="0" stroke="black" stroke-width="1" />
<path d="M-18.65490819491422,5.75598675266881 L-19.004609876584848,6.72532520493339 L-19.099970579267467,7.464478477332924" fill-opacity="0" stroke="black" stroke-width="1" />
<path d="M-19.004609876584848,-6.72532520493339 L-19.099970579267467,-7.464478477332924 L-20.0,-0.0" fill-opacity="0" stroke="black" stroke-width="1" />
<path d="M-19.004609876584848,6.72532520493339 L-19.099970579267467,7.464478477332924 L-20.0,-0.0" fill-opacity="0" stroke="black" stroke-width="1" />
<path d="M-20.0,-0.0 L-22.08935298450228,-9.961954580119286 L-28.0,-0.0" fill-opacity="0" stroke="black" stroke-width="1" />
<path d="M-20.0,-0.0 L-22.08935298450228,9.961954580119286 L-28.0,-0.0" fill-opacity="0" stroke="black" stroke-width="1" />
<path d="M-28.0,-0.0 L-28.942257175485036,-11.330747160049325 L-29.78199469844985,-14.074598739245086" fill-opacity="0" stroke="black" stroke-width="1" />
<path d="M-28.0,-0.0 L-28.942257175485036,11.330747160049325 L-29.78199469844985,14.074598739245086" fill-opacity="0" stroke="black" stroke-width="1" />
<path d="M-28.942257175485036,-11.330747160049325 L-29.78199469844985,-14.074598739245086 L-34.0,-0.0" fill-opacity="0" stroke="black" stroke-width="1" />
<path d="M-28.942257175485036,11.330747160049325 L-29.78199469844985,14.074598739245086 L-34.0,-0.0" fill-opacity="0" stroke="black" stroke-width="1" />
<path d="M-50.0,-7.0 L-37.19462697725146,-16.48841416205335 L-41.617755211648245,-17.370390395404996" fill-opacity="0" stroke="black" stroke-width="1" />
<path d="M-50.0,7.0 L-37.19462697725146,16.48841416205335 L-41.617755211648245,17.370390395404996" fill-opacity="0" stroke="black" stroke-width="1" />
<path d="M-37.19462697725146,-16.48841416205335 L-41.617755211648245,-17.370390395404996 L-50.0,-22.0" fill-opacity="0" stroke="black" stroke-width="1" />
<path d="M-37.19462697725146,16.48841416205335 L-41.617755211648245,17.370390395404996 L-50.0,22.0" fill-opacity="0" stroke="black" stroke-width="1" />
<path d="M-50.0,-22.0 L-43.06579719668442,-22.30160338541954 L-43.92940812549115,-22.363506035810097" fill-opacity="0" stroke="black" stroke-width="1" />
<path d="M-50.0,22.0 L-43.06579719668442,22.30160338541954 L-43.92940812549115,22.363506035810097" fill-opacity="0" stroke="black" stroke-width="1" />
<path d="M-43.06579719668442,-22.30160338541954 L-43.92940812549115,-22.363506035810097 L-50.0,-23.0" fill-opacity="0" stroke="black" stroke-width="1" />
<path d="M-43.06579719668442,22.30160338541954 L-43.92940812549115,22.363506035810097 L-50.0,23.0" fill-opacity="0" stroke="black" stroke-width="1" />
<path d="M-50.0,-23.0 L-45.51767706817062,-29.20818857448249 L-50.0,-33.0" fill-opacity="0" stroke="black" stroke-width="1" />
<path d="M-50.0,23.0 L-45.51767706817062,29.20818857448249 L-50.0,33.0" fill-opacity="0" stroke="black" stroke-width="1" />
<path d="M-50.0,50.0 L-43.0,57.0 L-37.0,63.0" fill-opacity="0" stroke="black" stroke-width="1" />
<path d="M-50.0,-50.0 L-43.0,-57.0 L-37.0,-63.0" fill-opacity="0" stroke="black" stroke-width="1" />
<path d="M-43.0,57.0 L-37.0,63.0 L-24.0,76.0" fill-opacity="0" stroke="black" stroke-width="1" />
<path d="M-43.0,-57.0 L-37.0,-63.0 L-24.0,-76.0" fill-opacity="0" stroke="black" stroke-width="1" />
<path d="M-37.0,63.0 L-24.0,76.0 L-23.0,77.0" fill-opacity="0" stroke="black" stroke-width="1" />
<path d="M-37.0,-63.0 L-24.0,-76.0 L-23.0,-77.0" fill-opacity="0" stroke="black" stroke-width="1" />
<path d="M-24.0,76.0 L-23.0,77.0 L-19.0,81.0" fill-opacity="0" stroke="black" stroke-width="1" />
<path d="M-24.0,-76.0 L-23.0,-77.0 L-19.0,-81.0" fill-opacity="0" stroke="black" stroke-width="1" />
<path d="M-23.0,77.0 L-19.0,81.0 L-5.148746388054488,93.23696266920831" fill-opacity="0" stroke="black" stroke-width="1" />
<path d="M-23.0,-77.0 L-19.0,-81.0 L-5.148746388054488,-93.23696266920831" fill-opacity="0" stroke="black" stroke-width="1" />
<path d="M-19.0,-19.0 L-6.763037330791694,-5.148746388054488 L-5.299110751888869,-1.8223919815912815" fill-opacity="0" stroke="black" stroke-width="1" />
<path d="M-19.0,19.0 L-6.763037330791694,5.148746388054488 L-5.299110751888869,1.8223919815912815" fill-opacity="0" stroke="black" stroke-width="1" />
<path d="M-6.763037330791694,-5.148746388054488 L-5.299110751888869,-1.8223919815912815 L0.0,-0.0" fill-opacity="0" stroke="black" stroke-width="1" />
<path d="M-6.763037330791694,5.148746388054488 L-5.299110751888869,1.8223919815912815 L0.0,-0.0" fill-opacity="0" stroke="black" stroke-width="1" />
<path d="M94.0,-0.0 L81.34509180508579,5.75598675266881 L80.99539012341515,6.72532520493339" fill-opacity="0" stroke="black" stroke-width="1" />
<path d="M94.0,-0.0 L81.34509180508579,-5.75598675266881 L80.99539012341515,-6.72532520493339" fill-opacity="0" stroke="black" stroke-width="1" />
<path d="M81.34509180508579,5.75598675266881 L80.99539012341515,6.72532520493339 L80.90002942073254,7.464478477332924" fill-opacity="0" stroke="black" stroke-width="1" />
<path d="M81.34509180508579,-5.75598675266881 L80.99539012341515,-6.72532520493339 L80.90002942073254,-7.464478477332924" fill-opacity="0" stroke="black" stroke-width="1" />
<path d="M80.99539012341515,6.72532520493339 L80.90002942073254,7.464478477332924 L80.0,-0.0" fill-opacity="0" stroke="black" stroke-width="1" />
<path d="M80.99539012341515,-6.72532520493339 L80.90002942073254,-7.464478477332924 L80.0,-0.0" fill-opacity="0" stroke="black" stroke-width="1" />
<path d="M80.0,-0.0 L77.91064701549772,9.961954580119286 L72.0,-0.0" fill-opacity="0" stroke="black" stroke-width="1" />
<path d="M80.0,-0.0 L77.91064701549772,-9.961954580119286 L72.0,-0.0" fill-opacity="0" stroke="black" stroke-width="1" />
<path d="M72.0,-0.0 L71.05774282451496,11.330747160049325 L70.21800530155015,14.074598739245086" fill-opacity="0" stroke="black" stroke-width="1" />
<path d="M72.0,-0.0 L71.05774282451496,-11.330747160049325 L70.21800530155015,-14.074598739245086" fill-opacity="0" stroke="black" stroke-width="1" />
<path d="M71.05774282451496,11.330747160049325 L70.21800530155015,14.074598739245086 L66.0,-0.0" fill-opacity="0" stroke="black" stroke-width="1" />
<path d="M71.05774282451496,-11.330747160049325 L70.21800530155015,-14.074598739245086 L66.0,-0.0" fill-opacity="0" stroke="black" stroke-width="1" />
<path d="M50.0,7.0 L62.80537302274854,16.48841416205335 L58.382244788351755,17.370390395404996" fill-opacity="0" stroke="black" stroke-width="1" />
<path d="M50.0,-7.0 L62.80537302274854,-16.48841416205335 L58.382244788351755,-17.370390395404996" fill-opacity="0" stroke="black" stroke-width="1" />
<path d="M62.80537302274854,16.48841416205335 L58.382244788351755,17.370390395404996 L50.0,22.0" fill-opacity="0" stroke="black" stroke-width="1" />
<path d="M62.80537302274854,-16.48841416205335 L58.382244788351755,-17.370390395404996 L50.0,-22.0" fill-opacity="0" stroke="black" stroke-width="1" />
<path d="M50.0,22.0 L56.93420280331558,22.30160338541954 L56.07059187450885,22.363506035810097" fill-opacity="0" stroke="black" stroke-width="1" />
<path d="M50.0,-22.0 L56.93420280331558,-22.30160338541954 L56.07059187450885,-22.363506035810097" fill-opacity="0" stroke="black" stroke-width="1" />
<path d="M56.93420280331558,22.30160338541954 L56.07059187450885,22.363506035810097 L50.0,23.0" fill-opacity="0" stroke="black" stroke-width="1" />
<path d="M56.93420280331558,-22.30160338541954 L56.07059187450885,-22.363506035810097 L50.0,-23.0" fill-opacity="0" stroke="black" stroke-width="1" />
<path d="M50.0,23.0 L54.48232293182938,29.20818857448249 L50.0,33.0" fill-opacity="0" stroke="black" stroke-width="1" />
<path d="M50.0,-23.0 L54.48232293182938,-29.20818857448249 L50.0,-33.0" fill-opacity="0" stroke="black" stroke-width="1" />
<path d="M50.0,50.0 L57.0,43.0 L63.0,37.0" fill-opacity="0" stroke="black" stroke-width="1" />
<path d="M50.0,-50.0 L57.0,-43.0 L63.0,-37.0" fill-opacity="0" stroke="black" stroke-width="1" />
<path d="M57.0,43.0 L63.0,37.0 L76.0,24.0" fill-opacity="0" stroke="black" stroke-width="1" />
<path d="M57.0,-43.0 L63.0,-37.0 L76.0,-24.0" fill-opacity="0" stroke="black" stroke-width="1" />
<path d="M63.0,37.0 L76.0,24.0 L77.0,23.0" fill-opacity="0" stroke="black" stroke-width="1" />
<path d="M63.0,-37.0 L76.0,-24.0 L77.0,-23.0" fill-opacity="0" stroke="black" stroke-width="1" />
<path d="M76.0,24.0 L77.0,23.0 L81.0,19.0" fill-opacity="0" stroke="black" stroke-width="1" />
<path d="M76.0,-24.0 L77.0,-23.0 L81.0,-19.0" fill-opacity="0" stroke="black" stroke-width="1" />
<path d="M77.0,23.0 L81.0,19.0 L93.23696266920831,5.148746388054488" fill-opacity="0" stroke="black" stroke-width="1" />
<path d="M77.0,-23.0 L81.0,-19.0 L93.23696266920831,-5.148746388054488" fill-opacity="0" stroke="black" stroke-width="1" />
<path d="M81.0,19.0 L93.23696266920831,5.148746388054488 L94.70088924811114,1.8223919815912815" fill-opacity="0" stroke="black" stroke-width="1" />
<path d="M81.0,-19.0 L93.23696266920831,-5.148746388054488 L94.70088924811114,-1.8223919815912815" fill-opacity="0" stroke="black" stroke-width="1" />
<path d="M93.23696266920831,5.148746388054488 L94.70088924811114,1.8223919815912815 L100.0,-0.0" fill-opacity="0" stroke="black" stroke-width="1" />
<path d="M93.23696266920831,-5.148746388054488 L94.70088924811114,-1.8223919815912815 L100.0,-0.0" fill-opacity="0" stroke="black" stroke-width="1" />
<path d="M0.0,-6.0 L5.75598675266881,-18.65490819491422 L6.72532520493339,-19.004609876584848" fill-opacity="0" stroke="black" stroke-width="1" />
<path d="M0.0,6.0 L5.75598675266881,18.65490819491422 L6.72532520493339,19.004609876584848" fill-opacity="0" stroke="black" stroke-width="1" />
<path d="M0.0,94.0 L5.75598675266881,81.34509180508579 L6.72532520493339,80.99539012341515" fill-opacity="0" stroke="black" stroke-width="1" />
<path d="M0.0,-94.0 L5.75598675266881,-81.34509180508579 L6.72532520493339,-80.99539012341515" fill-opacity="0" stroke="black" stroke-width="1" />
<path d="M5.75598675266881,-18.65490819491422 L6.72532520493339,-19.004609876584848 L7.464478477332924,-19.099970579267467" fill-opacity="0" stroke="black" stroke-width="1" />
<path d="M5.75598675266881,18.65490819491422 L6.72532520493339,19.004609876584848 L7.464478477332924,19.099970579267467" fill-opacity="0" stroke="black" stroke-width="1" />
<path d="M5.75598675266881,81.34509180508579 L6.72532520493339,80.99539012341515 L7.464478477332924,80.90002942073254" fill-opacity="0" stroke="black" stroke-width="1" />
<path d="M5.75598675266881,-81.34509180508579 L6.72532520493339,-80.99539012341515 L7.464478477332924,-80.90002942073254" fill-opacity="0" stroke="black" stroke-width="1" />
<path d="M6.72532520493339,-19.004609876584848 L7.464478477332924,-19.099970579267467 L0.0,-20.0" fill-opacity="0" stroke="black" stroke-width="1" />
<path d="M6.72532520493339,19.004609876584848 L7.464478477332924,19.099970579267467 L0.0,20.0" fill-opacity="0" stroke="black" stroke-width="1" />
<path d="M6.72532520493339,80.99539012341515 L7.464478477332924,80.90002942073254 L0.0,80.0" fill-opacity="0" stroke="black" stroke-width="1" />
<path d="M6.72532520493339,-80.99539012341515 L7.464478477332924,-80.90002942073254 L0.0,-80.0" fill-opacity="0" stroke="black" stroke-width="1" />
<path d="M0.0,-20.0 L9.961954580119286,-22.08935298450228 L0.0,-28.0" fill-opacity="0" stroke="black" stroke-width="1" />
<path d="M0.0,20.0 L9.961954580119286,22.08935298450228 L0.0,28.0" fill-opacity="0" stroke="black" stroke-width="1" />
<path d="M0.0,80.0 L9.961954580119286,77.91064701549772 L0.0,72.0" fill-opacity="0" stroke="black" stroke-width="1" />
<path d="M0.0,-80.0 L9.961954580119286,-77.91064701549772 L0.0,-72.0" fill-opacity="0" stroke="black" stroke-width="1" />
<path d="M0.0,-28.0 L11.330747160049325,-28.942257175485036 L14.074598739245086,-29.78199469844985" fill-opacity="0" stroke="black" stroke-width="1" />
<path d="M0.0,28.0 L11.330747160049325,28.942257175485036 L14.074598739245086,29.78199469844985" fill-opacity="0" stroke="black" stroke-width="1" />
<path d="M0.0,72.0 L11.330747160049325,71.05774282451496 L14.074598739245086,70.21800530155015" fill-opacity="0" stroke="black" stroke-width="1" />
<path d="M0.0,-72.0 L11.330747160049325,-71.05774282451496 L14.074598739245086,-70.21800530155015" fill-opacity="0" stroke="black" stroke-width="1" />
<path d="M11.330747160049325,-28.942257175485036 L14.074598739245086,-29.78199469844985 L0.0,-34.0" fill-opacity="0" stroke="black" stroke-width="1" />
<path d="M11.330747160049325,28.942257175485036 L14.074598739245086,29.78199469844985 L0.0,34.0" fill-opacity="0" stroke="black" stroke-width="1" />
<path d="M11.330747160049325,71.05774282451496 L14.074598739245086,70.21800530155015 L0.0,66.0" fill-opacity="0" stroke="black" stroke-width="1" />
<path d="M11.330747160049325,-71.05774282451496 L14.074598739245086,-70.21800530155015 L0.0,-66.0" fill-opacity="0" stroke="black" stroke-width="1" />
<path d="M7.0,-50.0 L16.48841416205335,-37.19462697725146 L17.370390395404996,-41.617755211648245" fill-opacity="0" stroke="black" stroke-width="1" />
<path d="M7.0,50.0 L16.48841416205335,37.19462697725146 L17.370390395404996,41.617755211648245" fill-opacity="0" stroke="black" stroke-width="1" />
<path d="M7.0,50.0 L16.48841416205335,62.80537302274854 L17.370390395404996,58.382244788351755" fill-opacity="0" stroke="black" stroke-width="1" />
<path d="M7.0,-50.0 L16.48841416205335,-62.80537302274854 L17.370390395404996,-58.382244788351755" fill-opacity="0" stroke="black" stroke-width="1" />
<path d="M16.48841416205335,-37.19462697725146 L17.370390395404996,-41.617755211648245 L22.0,-50.0" fill-opacity="0" stroke="black" stroke-width="1" />
<path d="M16.48841416205335,37.19462697725146 L17.370390395404996,41.617755211648245 L22.0,50.0" fill-opacity="0" stroke="black" stroke-width="1" />
<path d="M16.48841416205335,62.80537302274854 L17.370390395404996,58.382244788351755 L22.0,50.0" fill-opacity="0" stroke="black" stroke-width="1" />
<path d="M16.48841416205335,-62.80537302274854 L17.370390395404996,-58.382244788351755 L22.0,-50.0" fill-opacity="0" stroke="black" stroke-width="1" />
<path d="M22.0,-50.0 L22.30160338541954,-43.06579719668442 L22.363506035810097,-43.92940812549115" fill-opacity="0" stroke="black" stroke-width="1" />
<path d="M22.0,50.0 L22.30160338541954,43.06579719668442 L22.363506035810097,43.92940812549115" fill-opacity="0" stroke="black" stroke-width="1" />
<path d="M22.0,50.0 L22.30160338541954,56.93420280331558 L22.363506035810097,56.07059187450885" fill-opacity="0" stroke="black" stroke-width="1" />
<path d="M22.0,-50.0 L22.30160338541954,-56.93420280331558 L22.363506035810097,-56.07059187450885" fill-opacity="0" stroke="black" stroke-width="1" />
<path d="M22.30160338541954,-43.06579719668442 L22.363506035810097,-43.92940812549115 L23.0,-50.0" fill-opacity="0" stroke="black" stroke-width="1" />
<path d="M22.30160338541954,43.06579719668442 L22.363506035810097,43.92940812549115 L23.0,50.0" fill-opacity="0" stroke="black" stroke-width="1" />
<path d="M22.30160338541954,56.93420280331558 L22.363506035810097,56.07059187450885 L23.0,50.0" fill-opacity="0" stroke="black" stroke-width="1" />
<path d="M22.30160338541954,-56.93420280331558 L22.363506035810097,-56.07059187450885 L23.0,-50.0" fill-opacity="0" stroke="black" stroke-width="1" />
<path d="M23.0,-50.0 L29.20818857448249,-45.51767706817062 L33.0,-50.0" fill-opacity="0" stroke="black" stroke-width="1" />
<path d="M23.0,50.0 L29.20818857448249,45.51767706817062 L33.0,50.0" fill-opacity="0" stroke="black" stroke-width="1" />
<path d="M23.0,50.0 L29.20818857448249,54.48232293182938 L33.0,50.0" fill-opacity="0" stroke="black" stroke-width="1" />
<path d="M23.0,-50.0 L29.20818857448249,-54.48232293182938 L33.0,-50.0" fill-opacity="0" stroke="black" stroke-width="1" />
<path d="M19.0,-19.0 L5.148746388054488,-6.763037330791694 L1.8223919815912815,-5.299110751888869" fill-opacity="0" stroke="black" stroke-width="1" />
<path d="M19.0,19.0 L5.148746388054488,6.763037330791694 L1.8223919815912815,5.299110751888869" fill-opacity="0" stroke="black" stroke-width="1" />
<path d="M19.0,81.0 L5.148746388054488,93.23696266920831 L1.8223919815912815,94.70088924811114" fill-opacity="0" stroke="black" stroke-width="1" />
<path d="M19.0,-81.0 L5.148746388054488,-93.23696266920831 L1.8223919815912815,-94.70088924811114" fill-opacity="0" stroke="black" stroke-width="1" />
<path d="M5.148746388054488,-6.763037330791694 L1.8223919815912815,-5.299110751888869 L0.0,-0.0" fill-opacity="0" stroke="black" stroke-width="1" />
<path d="M5.148746388054488,6.763037330791694 L1.8223919815912815,5.299110751888869 L0.0,-0.0" fill-opacity="0" stroke="black" stroke-width="1" />
<path d="M5.148746388054488,93.23696266920831 L1.8223919815912815,94.70088924811114 L0.0,100.0" fill-opacity="0" stroke="black" stroke-width="1" />
<path d="M5.148746388054488,-93.23696266920831 L1.8223919815912815,-94.70088924811114 L0.0,-100.0" fill-opacity="0" stroke="black" stroke-width="1" />
<path d="M0.0,94.0 L-5.75598675266881,81.34509180508579 L-6.72532520493339,80.99539012341515" fill-opacity="0" stroke="black" stroke-width="1" />
<path d="M0.0,-6.0 L-5.75598675266881,-18.65490819491422 L-6.72532520493339,-19.004609876584848" fill-opacity="0" stroke="black" stroke-width="1" />
<path d="M0.0,6.0 L-5.75598675266881,18.654908194914213 L-6.72532520493339,19.00460987658485" fill-opacity="0" stroke="black" stroke-width="1" />
<path d="M0.0,-94.0 L-5.75598675266881,-81.34509180508579 L-6.72532520493339,-80.99539012341515" fill-opacity="0" stroke="black" stroke-width="1" />
<path d="M-5.75598675266881,81.34509180508579 L-6.72532520493339,80.99539012341515 L-7.464478477332924,80.90002942073254" fill-opacity="0" stroke="black" stroke-width="1" />
<path d="M-5.75598675266881,-18.65490819491422 L-6.72532520493339,-19.004609876584848 L-7.464478477332924,-19.099970579267467" fill-opacity="0" stroke="black" stroke-width="1" />
<path d="M-5.75598675266881,18.654908194914213 L-6.72532520493339,19.00460987658485 L-7.464478477332924,19.099970579267463" fill-opacity="0" stroke="black" stroke-width="1" />
<path d="M-5.75598675266881,-81.34509180508579 L-6.72532520493339,-80.99539012341515 L-7.464478477332924,-80.90002942073254" fill-opacity="0" stroke="black" stroke-width="1" />
<path d="M-6.72532520493339,80.99539012341515 L-7.464478477332924,80.90002942073254 L0.0,80.0" fill-opacity="0" stroke="black" stroke-width="1" />
<path d="M-6.72532520493339,-19.004609876584848 L-7.464478477332924,-19.099970579267467 L0.0,-20.0" fill-opacity="0" stroke="black" stroke-width="1" />
<path d="M-6.72532520493339,19.00460987658485 L-7.464478477332924,19.099970579267463 L0.0,20.0" fill-opacity="0" stroke="black" stroke-width="1" />
<path d="M-6.72532520493339,-80.99539012341515 L-7.464478477332924,-80.90002942073254 L0.0,-80.0" fill-opacity="0" stroke="black" stroke-width="1" />
<path d="M0.0,80.0 L-9.961954580119286,77.91064701549772 L0.0,72.0" fill-opacity="0" stroke="black" stroke-width="1" />
<path d="M0.0,-20.0 L-9.961954580119286,-22.08935298450228 L0.0,-28.0" fill-opacity="0" stroke="black" stroke-width="1" />
<path d="M0.0,20.0 L-9.961954580119286,22.089352984502284 L0.0,28.0" fill-opacity="0" stroke="black" stroke-width="1" />
<path d="M0.0,-80.0 L-9.961954580119286,-77.91064701549772 L0.0,-72.0" fill-opacity="0" stroke="black" stroke-width="1" />
<path d="M0.0,72.0 L-11.330747160049325,71.05774282451496 L-14.074598739245086,70.21800530155015" fill-opacity="0" stroke="black" stroke-width="1" />
<path d="M0.0,-28.0 L-11.330747160049325,-28.942257175485036 L-14.074598739245086,-29.78199469844985" fill-opacity="0" stroke="black" stroke-width="1" />
<path d="M0.0,28.0 L-11.330747160049325,28.94225717548504 L-14.074598739245086,29.78199469844985" fill-opacity="0" stroke="black" stroke-width="1" />
<path d="M0.0,-72.0 L-11.330747160049325,-71.05774282451496 L-14.074598739245086,-70.21800530155015" fill-opacity="0" stroke="black" stroke-width="1" />
<path d="M-11.330747160049325,71.05774282451496 L-14.074598739245086,70.21800530155015 L0.0,66.0" fill-opacity="0" stroke="black" stroke-width="1" />
<path d="M-11.330747160049325,-28.942257175485036 L-14.074598739245086,-29.78199469844985 L0.0,-34.0" fill-opacity="0" stroke="black" stroke-width="1" />
<path d="M-11.330747160049325,28.94225717548504 L-14.074598739245086,29.78199469844985 L0.0,34.0" fill-opacity="0" stroke="black" stroke-width="1" />
<path d="M-11.330747160049325,-71.05774282451496 L-14.074598739245086,-70.21800530155015 L0.0,-66.0" fill-opacity="0" stroke="black" stroke-width="1" />
<path d="M-7.0,50.0 L-16.48841416205335,62.80537302274854 L-17.370390395404996,58.382244788351755" fill-opacity="0" stroke="black" stroke-width="1" />
<path d="M-7.0,-50.0 L-16.48841416205335,-37.19462697725146 L-17.370390395404996,-41.617755211648245" fill-opacity="0" stroke="black" stroke-width="1" />
<path d="M-7.0,50.0 L-16.48841416205335,37.19462697725146 L-17.370390395404996,41.617755211648245" fill-opacity="0" stroke="black" stroke-width="1" />
<path d="M-7.0,-50.0 L-16.48841416205335,-62.80537302274854 L-17.370390395404996,-58.382244788351755" fill-opacity="0" stroke="black" stroke-width="1" />
<path d="M-16.48841416205335,62.80537302274854 L-17.370390395404996,58.382244788351755 L-22.0,50.0" fill-opacity="0" stroke="black" stroke-width="1" />
<path d="M-16.48841416205335,-37.19462697725146 L-17.370390395404996,-41.617755211648245 L-22.0,-50.0" fill-opacity="0" stroke="black" stroke-width="1" />
<path d="M-16.48841416205335,37.19462697725146 L-17.370390395404996,41.617755211648245 L-22.0,50.0" fill-opacity="0" stroke="black" stroke-width="1" />
<path d="M-16.48841416205335,-62.80537302274854 L-17.370390395404996,-58.382244788351755 L-22.0,-50.0" fill-opacity="0" stroke="black" stroke-width="1" />
<path d="M-22.0,50.0 L-22.30160338541954,56.93420280331558 L-22.363506035810097,56.07059187450885" fill-opacity="0" stroke="black" stroke-width="1" />
<path d="M-22.0,-50.0 L-22.30160338541954,-43.06579719668442 L-22.363506035810097,-43.92940812549115" fill-opacity="0" stroke="black" stroke-width="1" />
<path d="M-22.0,50.0 L-22.30160338541954,43.06579719668442 L-22.363506035810097,43.92940812549115" fill-opacity="0" stroke="black" stroke-width="1" />
<path d="M-22.0,-50.0 L-22.30160338541954,-56.93420280331558 L-22.363506035810097,-56.07059187450885" fill-opacity="0" stroke="black" stroke-width="1" />
<path d="M-22.30160338541954,56.93420280331558 L-22.363506035810097,56.07059187450885 L-23.0,50.0" fill-opacity="0" stroke="black" stroke-width="1" />
<path d="M-22.30160338541954,-43.06579719668442 L-22.363506035810097,-43.92940812549115 L-23.0,-50.0" fill-opacity="0" stroke="black" stroke-width="1" />
<path d="M-22.30160338541954,43.06579719668442 L-22.363506035810097,43.92940812549115 L-23.0,50.0" fill-opacity="0" stroke="black" stroke-width="1" />
<path d="M-22.30160338541954,-56.93420280331558 L-22.363506035810097,-56.07059187450885 L-23.0,-50.0" fill-opacity="0" stroke="black" stroke-width="1" />
<path d="M-23.0,50.0 L-29.20818857448249,54.48232293182938 L-33.0,50.0" fill-opacity="0" stroke="black" stroke-width="1" />
<path d="M-23.0,-50.0 L-29.20818857448249,-45.51767706817062 L-33.0,-50.0" fill-opacity="0" stroke="black" stroke-width="1" />
<path d="M-23.0,50.0 L-29.20818857448249,45.51767706817062 L-33.0,50.0" fill-opacity="0" stroke="black" stroke-width="1" />
<path d="M-23.0,-50.0 L-29.20818857448249,-54.48232293182938 L-33.0,-50.0" fill-opacity="0" stroke="black" stroke-width="1" />
<path d="M-19.0,81.0 L-5.148746388054488,93.23696266920831 L-1.8223919815912815,94.70088924811112" fill-opacity="0" stroke="black" stroke-width="1" />
<path d="M-19.0,-19.0 L-5.148746388054488,-6.763037330791694 L-1.8223919815912815,-5.299110751888869" fill-opacity="0" stroke="black" stroke-width="1" />
<path d="M-19.0,19.0 L-5.148746388054488,6.76303733079169 L-1.8223919815912815,5.299110751888875" fill-opacity="0" stroke="black" stroke-width="1" />
<path d="M-19.0,-81.0 L-5.148746388054488,-93.23696266920831 L-1.8223919815912815,-94.70088924811114" fill-opacity="0" stroke="black" stroke-width="1" />
<path d="M-5.148746388054488,93.23696266920831 L-1.8223919815912815,94.70088924811112 L0.0,100.0" fill-opacity="0" stroke="black" stroke-width="1" />
<path d="M-5.148746388054488,-6.763037330791694 L-1.8223919815912815,-5.299110751888869 L0.0,-0.0" fill-opacity="0" stroke="black" stroke-width="1" />
<path d="M-5.148746388054488,6.76303733079169 L-1.8223919815912815,5.299110751888875 L0.0,-0.0" fill-opacity="0" stroke="black" stroke-width="1" />
<path d="M-5.148746388054488,-93.23696266920831 L-1.8223919815912815,-94.70088924811114 L0.0,-100.0" fill-opacity="0" stroke="black" stroke-width="1" />
<path d="M-94.0,-0.0 L-81.34509180508579,-5.75598675266881 L-80.99539012341515,-6.72532520493339" fill-opacity="0" stroke="black" stroke-width="1" />
<path d="M-94.0,-0.0 L-81.34509180508579,5.75598675266881 L-80.99539012341515,6.72532520493339" fill-opacity="0" stroke="black" stroke-width="1" />
<path d="M-81.34509180508579,-5.75598675266881 L-80.99539012341515,-6.72532520493339 L-80.90002942073254,-7.464478477332924" fill-opacity="0" stroke="black" stroke-width="1" />
<path d="M-81.34509180508579,5.75598675266881 L-80.99539012341515,6.72532520493339 L-80.90002942073254,7.464478477332924" fill-opacity="0" stroke="black" stroke-width="1" />
<path d="M-80.99539012341515,-6.72532520493339 L-80.90002942073254,-7.464478477332924 L-80.0,-0.0" fill-opacity="0" stroke="black" stroke-width="1" />
<path d="M-80.99539012341515,6.72532520493339 L-80.90002942073254,7.464478477332924 L-80.0,-0.0" fill-opacity="0" stroke="black" stroke-width="1" />
<path d="M-80.0,-0.0 L-77.91064701549772,-9.961954580119286 L-72.0,-0.0" fill-opacity="0" stroke="black" stroke-width="1" />
<path d="M-80.0,-0.0 L-77.91064701549772,9.961954580119286 L-72.0,-0.0" fill-opacity="0" stroke="black" stroke-width="1" />
<path d="M-72.0,-0.0 L-71.05774282451496,-11.330747160049325 L-70.21800530155015,-14.074598739245086" fill-opacity="0" stroke="black" stroke-width="1" />
<path d="M-72.0,-0.0 L-71.05774282451496,11.330747160049325 L-70.21800530155015,14.074598739245086" fill-opacity="0" stroke="black" stroke-width="1" />
<path d="M-71.05774282451496,-11.330747160049325 L-70.21800530155015,-14.074598739245086 L-66.0,-0.0" fill-opacity="0" stroke="black" stroke-width="1" />
<path d="M-71.05774282451496,11.330747160049325 L-70.21800530155015,14.074598739245086 L-66.0,-0.0" fill-opacity="0" stroke="black" stroke-width="1" />
<path d="M-50.0,-7.0 L-62.80537302274854,-16.48841416205335 L-58.382244788351755,-17.370390395404996" fill-opacity="0" stroke="black" stroke-width="1" />
<path d="M-50.0,7.0 L-62.80537302274854,16.48841416205335 L-58.382244788351755,17.370390395404996" fill-opacity="0" stroke="black" stroke-width="1" />
<path d="M-62.80537302274854,-16.48841416205335 L-58.382244788351755,-17.370390395404996 L-50.0,-22.0" fill-opacity="0" stroke="black" stroke-width="1" />
<path d="M-62.80537302274854,16.48841416205335 L-58.382244788351755,17.370390395404996 L-50.0,22.0" fill-opacity="0" stroke="black" stroke-width="1" />
<path d="M-50.0,-22.0 L-56.93420280331558,-22.30160338541954 L-56.07059187450885,-22.363506035810097" fill-opacity="0" stroke="black" stroke-width="1" />
<path d="M-50.0,22.0 L-56.93420280331558,22.30160338541954 L-56.07059187450885,22.363506035810097" fill-opacity="0" stroke="black" stroke-width="1" />
<path d="M-56.93420280331558,-22.30160338541954 L-56.07059187450885,-22.363506035810097 L-50.0,-23.0" fill-opacity="0" stroke="black" stroke-width="1" />
<path d="M-56.93420280331558,22.30160338541954 L-56.07059187450885,22.363506035810097 L-50.0,23.0" fill-opacity="0" stroke="black" stroke-width="1" />
<path d="M-50.0,-23.0 L-54.48232293182938,-29.20818857448249 L-50.0,-33.0" fill-opacity="0" stroke="black" stroke-width="1" />
<path d="M-50.0,23.0 L-54.48232293182938,29.20818857448249 L-50.0,33.0" fill-opacity="0" stroke="black" stroke-width="1" />
<path d="M-50.0,-50.0 L-57.0,-43.0 L-63.0,-37.0" fill-opacity="0" stroke="black" stroke-width="1" />
<path d="M-50.0,50.0 L-57.0,43.0 L-63.0,37.0" fill-opacity="0" stroke="black" stroke-width="1" />
<path d="M-57.0,-43.0 L-63.0,-37.0 L-76.0,-24.0" fill-opacity="0" stroke="black" stroke-width="1" />
<path d="M-57.0,43.0 L-63.0,37.0 L-76.0,24.0" fill-opacity="0" stroke="black" stroke-width="1" />
<path d="M-63.0,-37.0 L-76.0,-24.0 L-77.0,-23.0" fill-opacity="0" stroke="black" stroke-width="1" />
<path d="M-63.0,37.0 L-76.0,24.0 L-77.0,23.0" fill-opacity="0" stroke="black" stroke-width="1" />
<path d="M-76.0,-24.0 L-77.0,-23.0 L-81.0,-19.0" fill-opacity="0" stroke="black" stroke-width="1" />
<path d="M-76.0,24.0 L-77.0,23.0 L-81.0,19.0" fill-opacity="0" stroke="black" stroke-width="1" />
<path d="M-77.0,-23.0 L-81.0,-19.0 L-93.23696266920831,-5.148746388054488" fill-opacity="0" stroke="black" stroke-width="1" />
<path d="M-77.0,23.0 L-81.0,19.0 L-93.23696266920831,5.148746388054488" fill-opacity="0" stroke="black" stroke-width="1" />
<path d="M-81.0,-19.0 L-93.23696266920831,-5.148746388054488 L-94.70088924811114,-1.8223919815912815" fill-opacity="0" stroke="black" stroke-width="1" />
<path d="M-81.0,19.0 L-93.23696266920831,5.148746388054488 L-94.70088924811114,1.8223919815912815" fill-opacity="0" stroke="black" stroke-width="1" />
<path d="M-93.23696266920831,-5.148746388054488 L-94.70088924811114,-1.8223919815912815 L-100.0,-0.0" fill-opacity="0" stroke="black" stroke-width="1" />
<path d="M-93.23696266920831,5.148746388054488 L-94.70088924811114,1.8223919815912815 L-100.0,-0.0" fill-opacity="0" stroke="black" stroke-width="1" />
<circle cx="0" cy="-97" r="8" stroke-dasharray="39.653880605311166 10.611601852125524" stroke-dashoffset="-17.59291886010284" stroke="black" stroke-width="1" fill="white" fill-opacity="1" />
<circle cx="0" cy="-97" r="4" stroke="black" stroke-width="1" fill="white" fill-opacity="1" />
</svg>