<?xml version="1.0" encoding="UTF-8"?>
<svg xmlns="http://www.w3.org/2000/svg" xmlns:xlink="http://www.w3.org/1999/xlink"
     width="250" height="250" viewBox="-125.0 -125.0 250 250">
<defs>
</defs>
<path d="M11.0,-0.0 L11.532287109248724,-3.238599565677375 L11.825752347256929,-3.6120412570887774" fill-opacity="0" stroke="black" stroke-width="1" />
<path d="M11.0,-0.0 L11.532287109248724,3.238599565677375 L11.825752347256929,3.6120412570887774" fill-opacity="0" stroke="black" stroke-width="1" />
<path d="M11.532287109248724,-3.238599565677375 L11.825752347256929,-3.6120412570887774 L17.99859452005456,-9.951738168444134" fill-opacity="0" stroke="black" stroke-width="1" />
<path d="M11.532287109248724,3.238599565677375 L11.825752347256929,3.6120412570887774 L17.99859452005456,9.951738168444134" fill-opacity="0" stroke="black" stroke-width="1" />
<path d="M11.825752347256929,-3.6120412570887774 L17.99859452005456,-9.951738168444134 L25.184682673436136,-11.208681625521265" fill-opacity="0" stroke="black" stroke-width="1" />
<path d="M11.825752347256929,3.6120412570887774 L17.99859452005456,9.951738168444134 L25.184682673436136,11.208681625521265" fill-opacity="0" stroke="black" stroke-width="1" />
<path d="M17.99859452005456,-9.951738168444134 L25.184682673436136,-11.208681625521265 L28.056115872358735,-11.524929855096971" fill-opacity="0" stroke="black" stroke-width="1" />
<path d="M17.99859452005456,9.951738168444134 L25.184682673436136,11.208681625521265 L28.056115872358735,11.524929855096971" fill-opacity="0" stroke="black" stroke-width="1" />
<path d="M25.184682673436136,-11.208681625521265 L28.056115872358735,-11.524929855096971 L36.0,-0.0" fill-opacity="0" stroke="black" stroke-width="1" />
<path d="M25.184682673436136,11.208681625521265 L28.056115872358735,11.524929855096971 L36.0,-0.0" fill-opacity="0" stroke="black" stroke-width="1" />
<path d="M49.0,51.0 L44.0,56.0 L43.0,57.0" fill-opacity="0" stroke="black" stroke-width="1" />
<path d="M49.0,-51.0 L44.0,-56.0 L43.0,-57.0" fill-opacity="0" stroke="black" stroke-width="1" />
<path d="M50.0,-16.0 L39.26350339738145,-24.375169705206847 L50.0,-26.0" fill-opacity="0" stroke="black" stroke-width="1" />
<path d="M50.0,16.0 L39.26350339738145,24.375169705206847 L50.0,26.0" fill-opacity="0" stroke="black" stroke-width="1" />
<path d="M50.0,-27.0 L43.599563154549635,-32.39393576769345 L50.0,-47.0" fill-opacity="0" stroke="black" stroke-width="1" />
<path d="M50.0,27.0 L43.599563154549635,32.39393576769345 L50.0,47.0" fill-opacity="0" stroke="black" stroke-width="1" />
<path d="M47.0,50.0 L49.0,51.0 L44.0,56.0" fill-opacity="0" stroke="black" stroke-width="1" />
<path d="M47.0,-50.0 L49.0,-51.0 L44.0,-56.0" fill-opacity="0" stroke="black" stroke-width="1" />
<path d="M44.0,56.0 L43.0,57.0 L35.0,65.0" fill-opacity="0" stroke="black" stroke-width="1" />
<path d="M44.0,-56.0 L43.0,-57.0 L35.0,-65.0" fill-opacity="0" stroke="black" stroke-width="1" />
<path d="M43.0,57.0 L35.0,65.0 L19.0,81.0" fill-opacity="0" stroke="black" stroke-width="1" />
<path d="M43.0,-57.0 L35.0,-65.0 L19.0,-81.0" fill-opacity="0" stroke="black" stroke-width="1" />
<path d="M35.0,65.0 L19.0,81.0 L17.0,83.0" fill-opacity="0" stroke="black" stroke-width="1" />
<path d="M35.0,-65.0 L19.0,-81.0 L17.0,-83.0" fill-opacity="0" stroke="black" stroke-width="1" />
<path d="M19.0,81.0 L17.0,83.0 L9.69335051496209,87.6394902120698" fill-opacity="0" stroke="black" stroke-width="1" />
<path d="M19.0,-81.0 L17.0,-83.0 L9.69335051496209,-87.6394902120698" fill-opacity="0" stroke="black" stroke-width="1" />
<path d="M17.0,-17.0 L12.360509787930196,-9.69335051496209 L10.673386190895618,-3.183324273530318" fill-opacity="0" stroke="black" stroke-width="1" />
<path d="M17.0,17.0 L12.360509787930196,9.69335051496209 L10.673386190895618,3.183324273530318" fill-opacity="0" stroke="black" stroke-width="1" />
<path d="M12.360509787930196,-9.69335051496209 L10.673386190895618,-3.183324273530318 L4.601987341007546,-1.5976309814122431" fill-opacity="0" stroke="black" stroke-width="1" />
<path d="M12.360509787930196,9.69335051496209 L10.673386190895618,3.183324273530318 L4.601987341007546,1.5976309814122431" fill-opacity="0" stroke="black" stroke-width="1" />
<path d="M10.673386190895618,-3.183324273530318 L4.601987341007546,-1.5976309814122431 L1.092145305153369,-1.0518320659334743" fill-opacity="0" stroke="black" stroke-width="1" />
<path d="M10.673386190895618,3.183324273530318 L4.601987341007546,1.5976309814122431 L1.092145305153369,1.0518320659334743" fill-opacity="0" stroke="black" stroke-width="1" />
<path d="M4.601987341007546,-1.5976309814122431 L1.092145305153369,-1.0518320659334743 L0.0,-0.0" fill-opacity="0" stroke="black" stroke-width="1" />
<path d="M4.601987341007546,1.5976309814122431 L1.092145305153369,1.0518320659334743 L0.0,-0.0" fill-opacity="0" stroke="black" stroke-width="1" />
<path d="M-11.0,-0.0 L-11.532287109248724,-3.238599565677375 L-11.825752347256929,-3.6120412570887774" fill-opacity="0" stroke="black" stroke-width="1" />
<path d="M-11.0,-0.0 L-11.532287109248724,3.238599565677375 L-11.825752347256929,3.6120412570887774" fill-opacity="0" stroke="black" stroke-width="1" />
<path d="M-11.532287109248724,-3.238599565677375 L-11.825752347256929,-3.6120412570887774 L-17.99859452005456,-9.951738168444134" fill-opacity="0" stroke="black" stroke-width="1" />
<path d="M-11.532287109248724,3.238599565677375 L-11.825752347256929,3.6120412570887774 L-17.99859452005456,9.951738168444134" fill-opacity="0" stroke="black" stroke-width="1" />
<path d="M-11.825752347256929,-3.6120412570887774 L-17.99859452005456,-9.951738168444134 L-25.184682673436136,-11.208681625521265" fill-opacity="0" stroke="black" stroke-width="1" />
<path d="M-11.825752347256929,3.6120412570887774 L-17.99859452005456,9.951738168444134 L-25.184682673436136,11.208681625521265" fill-opacity="0" stroke="black" stroke-width="1" />
<path d="M-17.99859452005456,-9.951738168444134 L-25.184682673436136,-11.208681625521265 L-28.056115872358735,-11.524929855096971" fill-opacity="0" stroke="black" stroke-width="1" />
<path d="M-17.99859452005456,9.951738168444134 L-25.184682673436136,11.208681625521265 L-28.056115872358735,11.524929855096971" fill-opacity="0" stroke="black" stroke-width="1" />
<path d="M-25.184682673436136,-11.208681625521265 L-28.056115872358735,-11.524929855096971 L-36.0,-0.0" fill-opacity="0" stroke="black" stroke-width="1" />
<path d="M-25.184682673436136,11.208681625521265 L-28.056115872358735,11.524929855096971 L-36.0,-0.0" fill-opacity="0" stroke="black" stroke-width="1" />
<path d="M-49.0,51.0 L-44.0,56.0 L-43.0,57.0" fill-opacity="0" stroke="black" stroke-width="1" />
<path d="M-49.0,-51.0 L-44.0,-56.0 L-43.0,-57.0" fill-opacity="0" stroke="black" stroke-width="1" />
<path d="M-50.0,-16.0 L-39.26350339738145,-24.375169705206847 L-50.0,-26.0" fill-opacity="0" stroke="black" stroke-width="1" />
<path d="M-50.0,16.0 L-39.26350339738145,24.375169705206847 L-50.0,26.0" fill-opacity="0" stroke="black" stroke-width="1" />
<path d="M-50.0,-27.0 L-43.599563154549635,-32.39393576769345 L-50.0,-47.0" fill-opacity="0" stroke="black" stroke-width="1" />
<path d="M-50.0,27.0 L-43.599563154549635,32.39393576769345 L-50.0,47.0" fill-opacity="0" stroke="black" stroke-width="1" />
<path d="M-47.0,50.0 L-49.0,51.0 L-44.0,56.0" fill-opacity="0" stroke="black" stroke-width="1" />
<path d="M-47.0,-50.0 L-49.0,-51.0 L-44.0,-56.0" fill-opacity="0" stroke="black" stroke-width="1" />
<path d="M-44.0,56.0 L-43.0,57.0 L-35.0,65.0" fill-opacity="0" stroke="black" stroke-width="1" />
<path d="M-44.0,-56.0 L-43.0,-57.0 L-35.0,-65.0" fill-opacity="0" stroke="black" stroke-width="1" />
<path d="M-43.0,57.0 L-35.0,65.0 L-19.0,81.0" fill-opacity="0" stroke="black" stroke-width="1" />
<path d="M-43.0,-57.0 L-35.0,-65.0 L-19.0,-81.0" fill-opacity="0" stroke="black" stroke-width="1" />
<path d="M-35.0,65.0 L-19.0,81.0 L-17.0,83.0" fill-opacity="0" stroke="black" stroke-width="1" />
<path d="M-35.0,-65.0 L-19.0,-81.0 L-17.0,-83.0" fill-opacity="0" stroke="black" stroke-width="1" />
<path d="M-19.0,81.0 L-17.0,83.0 L-9.69335051496209,87.6394902120698" fill-opacity="0" stroke="black" stroke-width="1" />
<path d="M-19.0,-81.0 L-17.0,-83.0 L-9.69335051496209,-87.6394902120698" fill-opacity="0" stroke="black" stroke-width="1" />
<path d="M-17.0,-17.0 L-12.360509787930196,-9.69335051496209 L-10.673386190895618,-3.183324273530318" fill-opacity="0" stroke="black" stroke-width="1" />
<path d="M-17.0,17.0 L-12.360509787930196,9.69335051496209 L-10.673386190895618,3.183324273530318" fill-opacity="0" stroke="black" stroke-width="1" />
<path d="M-12.360509787930196,-9.69335051496209 L-10.673386190895618,-3.183324273530318 L-4.601987341007546,-1.5976309814122431" fill-opacity="0" stroke="black" stroke-width="1" />
<path d="M-12.360509787930196,9.69335051496209 L-10.673386190895618,3.183324273530318 L-4.601987341007546,1.5976309814122431" fill-opacity="0" stroke="black" stroke-width="1" />
<path d="M-10.673386190895618,-3.183324273530318 L-4.601987341007546,-1.5976309814122431 L-1.092145305153369,-1.0518320659334743" fill-opacity="0" stroke="black" stroke-width="1" />
<path d="M-10.673386190895618,3.183324273530318 L-4.601987341007546,1.5976309814122431 L-1.092145305153369,1.0518320659334743" fill-opacity="0" stroke="black" stroke-width="1" />
<path d="M-4.601987341007546,-1.5976309814122431 L-1.092145305153369,-1.0518320659334743 L0.0,-0.0" fill-opacity="0" stroke="black" stroke-width="1" />
<path d="M-4.601987341007546,1.5976309814122431 L-1.092145305153369,1.0518320659334743 L0.0,-0.0" fill-opacity="0" stroke="black" stroke-width="1" />
<path d="M89.0,-0.0 L88.46771289075127,3.238599565677375 L88.17424765274308,3.6120412570887774" fill-opacity="0" stroke="black" stroke-width="1" />
<path d="M89.0,-0.0 L88.46771289075127,-3.238599565677375 L88.17424765274308,-3.6120412570887774" fill-opacity="0" stroke="black" stroke-width="1" />
<path d="M88.46771289075127,3.238599565677375 L88.17424765274308,3.6120412570887774 L82.00140547994545,9.951738168444134" fill-opacity="0" stroke="black" stroke-width="1" />
<path d="M88.46771289075127,-3.238599565677375 L88.17424765274308,-3.6120412570887774 L82.00140547994545,-9.951738168444134" fill-opacity="0" stroke="black" stroke-width="1" />
<path d="M88.17424765274308,3.6120412570887774 L82.00140547994545,9.951738168444134 L74.81531732656387,11.208681625521265" fill-opacity="0" stroke="black" stroke-width="1" />
<path d="M88.17424765274308,-3.6120412570887774 L82.00140547994545,-9.951738168444134 L74.81531732656387,-11.208681625521265" fill-opacity="0" stroke="black" stroke-width="1" />
<path d="M82.00140547994545,9.951738168444134 L74.81531732656387,11.208681625521265 L71.94388412764127,11.524929855096971" fill-opacity="0" stroke="black" stroke-width="1" />
<path d="M82.00140547994545,-9.951738168444134 L74.81531732656387,-11.208681625521265 L71.94388412764127,-11.524929855096971" fill-opacity="0" stroke="black" stroke-width="1" />
<path d="M74.81531732656387,11.208681625521265 L71.94388412764127,11.524929855096971 L64.0,-0.0" fill-opacity="0" stroke="black" stroke-width="1" />
<path d="M74.81531732656387,-11.208681625521265 L71.94388412764127,-11.524929855096971 L64.0,-0.0" fill-opacity="0" stroke="black" stroke-width="1" />
<path d="M51.0,49.0 L56.0,44.0 L57.0,43.0" fill-opacity="0" stroke="black" stroke-width="1" />
<path d="M51.0,-49.0 L56.0,-44.0 L57.0,-43.0" fill-opacity="0" stroke="black" stroke-width="1" />
<path d="M50.0,16.0 L60.73649660261855,24.375169705206847 L50.0,26.0" fill-opacity="0" stroke="black" stroke-width="1" />
<path d="M50.0,-16.0 L60.73649660261855,-24.375169705206847 L50.0,-26.0" fill-opacity="0" stroke="black" stroke-width="1" />
<path d="M50.0,27.0 L56.400436845450365,32.39393576769345 L50.0,47.0" fill-opacity="0" stroke="black" stroke-width="1" />
<path d="M50.0,-27.0 L56.400436845450365,-32.39393576769345 L50.0,-47.0" fill-opacity="0" stroke="black" stroke-width="1" />
<path d="M50.0,47.0 L51.0,49.0 L56.0,44.0" fill-opacity="0" stroke="black" stroke-width="1" />
<path d="M50.0,-47.0 L51.0,-49.0 L56.0,-44.0" fill-opacity="0" stroke="black" stroke-width="1" />
<path d="M56.0,44.0 L57.0,43.0 L65.0,35.0" fill-opacity="0" stroke="black" stroke-width="1" />
<path d="M56.0,-44.0 L57.0,-43.0 L65.0,-35.0" fill-opacity="0" stroke="black" stroke-width="1" />
<path d="M57.0,43.0 L65.0,35.0 L81.0,19.0" fill-opacity="0" stroke="black" stroke-width="1" />
<path d="M57.0,-43.0 L65.0,-35.0 L81.0,-19.0" fill-opacity="0" stroke="black" stroke-width="1" />
<path d="M65.0,35.0 L81.0,19.0 L83.0,17.0" fill-opacity="0" stroke="black" stroke-width="1" />
<path d="M65.0,-35.0 L81.0,-19.0 L83.0,-17.0" fill-opacity="0" stroke="black" stroke-width="1" />
<path d="M81.0,19.0 L83.0,17.0 L87.6394902120698,9.69335051496209" fill-opacity="0" stroke="black" stroke-width="1" />
<path d="M81.0,-19.0 L83.0,-17.0 L87.6394902120698,-9.69335051496209" fill-opacity="0" stroke="black" stroke-width="1" />
<path d="M83.0,17.0 L87.6394902120698,9.69335051496209 L89.32661380910437,3.183324273530318" fill-opacity="0" stroke="black" stroke-width="1" />
<path d="M83.0,-17.0 L87.6394902120698,-9.69335051496209 L89.32661380910437,-3.183324273530318" fill-opacity="0" stroke="black" stroke-width="1" />
<path d="M87.6394902120698,9.69335051496209 L89.32661380910437,3.183324273530318 L95.39801265899246,1.5976309814122431" fill-opacity="0" stroke="black" stroke-width="1" />
<path d="M87.6394902120698,-9.69335051496209 L89.32661380910437,-3.183324273530318 L95.39801265899246,-1.5976309814122431" fill-opacity="0" stroke="black" stroke-width="1" />
<path d="M89.32661380910437,3.183324273530318 L95.39801265899246,1.5976309814122431 L98.90785469484663,1.0518320659334743" fill-opacity="0" stroke="black" stroke-width="1" />
<path d="M89.32661380910437,-3.183324273530318 L95.39801265899246,-1.5976309814122431 L98.90785469484663,-1.0518320659334743" fill-opacity="0" stroke="black" stroke-width="1" />
<path d="M95.39801265899246,1.5976309814122431 L98.90785469484663,1.0518320659334743 L100.0,-0.0" fill-opacity="0" stroke="black" stroke-width="1" />
<path d="M95.39801265899246,-1.5976309814122431 L98.90785469484663,-1.0518320659334743 L100.0,-0.0" fill-opacity="0" stroke="black" stroke-width="1" />
<path d="M0.0,-11.0 L3.238599565677375,-11.532287109248724 L3.6120412570887774,-11.825752347256929" fill-opacity="0" stroke="black" stroke-width="1" />
<path d="M0.0,11.0 L3.238599565677375,11.532287109248724 L3.6120412570887774,11.825752347256929" fill-opacity="0" stroke="black" stroke-width="1" />
<path d="M0.0,89.0 L3.238599565677375,88.46771289075127 L3.6120412570887774,88.17424765274308" fill-opacity="0" stroke="black" stroke-width="1" />
<path d="M0.0,-89.0 L3.238599565677375,-88.46771289075127 L3.6120412570887774,-88.17424765274308" fill-opacity="0" stroke="black" stroke-width="1" />
<path d="M3.238599565677375,-11.532287109248724 L3.6120412570887774,-11.825752347256929 L9.951738168444134,-17.99859452005456" fill-opacity="0" stroke="black" stroke-width="1" />
<path d="M3.238599565677375,11.532287109248724 L3.6120412570887774,11.825752347256929 L9.951738168444134,17.99859452005456" fill-opacity="0" stroke="black" stroke-width="1" />
<path d="M3.238599565677375,88.46771289075127 L3.6120412570887774,88.17424765274308 L9.951738168444134,82.00140547994545" fill-opacity="0" stroke="black" stroke-width="1" />
<path d="M3.238599565677375,-88.46771289075127 L3.6120412570887774,-88.17424765274308 L9.951738168444134,-82.00140547994545" fill-opacity="0" stroke="black" stroke-width="1" />
<path d="M3.6120412570887774,-11.825752347256929 L9.951738168444134,-17.99859452005456 L11.208681625521265,-25.184682673436136" fill-opacity="0" stroke="black" stroke-width="1" />
<path d="M3.6120412570887774,11.825752347256929 L9.951738168444134,17.99859452005456 L11.208681625521265,25.184682673436136" fill-opacity="0" stroke="black" stroke-width="1" />
<path d="M3.6120412570887774,88.17424765274308 L9.951738168444134,82.00140547994545 L11.208681625521265,74.81531732656387" fill-opacity="0" stroke="black" stroke-width="1" />
<path d="M3.6120412570887774,-88.17424765274308 L9.951738168444134,-82.00140547994545 L11.208681625521265,-74.81531732656387" fill-opacity="0" stroke="black" stroke-width="1" />
<path d="M9.951738168444134,-17.99859452005456 L11.208681625521265,-25.184682673436136 L11.524929855096971,-28.056115872358735" fill-opacity="0" stroke="black" stroke-width="1" />
<path d="M9.951738168444134,17.99859452005456 L11.208681625521265,25.184682673436136 L11.524929855096971,28.056115872358735" fill-opacity="0" stroke="black" stroke-width="1" />
<path d="M9.951738168444134,82.00140547994545 L11.208681625521265,74.81531732656387 L11.524929855096971,71.94388412764127" fill-opacity="0" stroke="black" stroke-width="1" />
<path d="M9.951738168444134,-82.00140547994545 L11.208681625521265,-74.81531732656387 L11.524929855096971,-71.94388412764127" fill-opacity="0" stroke="black" stroke-width="1" />
<path d="M11.208681625521265,-25.184682673436136 L11.524929855096971,-28.056115872358735 L0.0,-36.0" fill-opacity="0" stroke="black" stroke-width="1" />
<path d="M11.208681625521265,25.184682673436136 L11.524929855096971,28.056115872358735 L0.0,36.0" fill-opacity="0" stroke="black" stroke-width="1" />
<path d="M11.208681625521265,74.81531732656387 L11.524929855096971,71.94388412764127 L0.0,64.0" fill-opacity="0" stroke="black" stroke-width="1" />
<path d="M11.208681625521265,-74.81531732656387 L11.524929855096971,-71.94388412764127 L0.0,-64.0" fill-opacity="0" stroke="black" stroke-width="1" />
<path d="M16.0,-50.0 L24.375169705206847,-39.26350339738145 L26.0,-50.0" fill-opacity="0" stroke="black" stroke-width="1" />
<path d="M16.0,50.0 L24.375169705206847,39.26350339738145 L26.0,50.0" fill-opacity="0" stroke="black" stroke-width="1" />
<path d="M16.0,50.0 L24.375169705206847,60.73649660261855 L26.0,50.0" fill-opacity="0" stroke="black" stroke-width="1" />
<path d="M16.0,-50.0 L24.375169705206847,-60.73649660261855 L26.0,-50.0" fill-opacity="0" stroke="black" stroke-width="1" />
<path d="M27.0,-50.0 L32.39393576769345,-43.599563154549635 L47.0,-50.0" fill-opacity="0" stroke="black" stroke-width="1" />
<path d="M27.0,50.0 L32.39393576769345,43.599563154549635 L47.0,50.0" fill-opacity="0" stroke="black" stroke-width="1" />
<path d="M27.0,50.0 L32.39393576769345,56.400436845450365 L47.0,50.0" fill-opacity="0" stroke="black" stroke-width="1" />
<path d="M27.0,-50.0 L32.39393576769345,-56.400436845450365 L47.0,-50.0" fill-opacity="0" stroke="black" stroke-width="1" />
<path d="M17.0,-17.0 L9.69335051496209,-12.360509787930196 L3.183324273530318,-10.673386190895618" fill-opacity="0" stroke="black" stroke-width="1" />
<path d="M17.0,17.0 L9.69335051496209,12.360509787930196 L3.183324273530318,10.673386190895618" fill-opacity="0" stroke="black" stroke-width="1" />
<path d="M17.0,83.0 L9.69335051496209,87.6394902120698 L3.183324273530318,89.32661380910437" fill-opacity="0" stroke="black" stroke-width="1" />
<path d="M17.0,-83.0 L9.69335051496209,-87.6394902120698 L3.183324273530318,-89.32661380910437" fill-opacity="0" stroke="black" stroke-width="1" />
<path d="M9.69335051496209,-12.360509787930196 L3.183324273530318,-10.673386190895618 L1.5976309814122431,-4.601987341007546" fill-opacity="0" stroke="black" stroke-width="1" />
<path d="M9.69335051496209,12.360509787930196 L3.183324273530318,10.673386190895618 L1.5976309814122431,4.601987341007546" fill-opacity="0" stroke="black" stroke-width="1" />
<path d="M9.69335051496209,87.6394902120698 L3.183324273530318,89.32661380910437 L1.5976309814122431,95.39801265899246" fill-opacity="0" stroke="black" stroke-width="1" />
<path d="M9.69335051496209,-87.6394902120698 L3.183324273530318,-89.32661380910437 L1.5976309814122431,-95.39801265899246" fill-opacity="0" stroke="black" stroke-width="1" />
<path d="M3.183324273530318,-10.673386190895618 L1.5976309814122431,-4.601987341007546 L1.0518320659334743,-1.092145305153369" fill-opacity="0" stroke="black" stroke-width="1" />
<path d="M3.183324273530318,10.673386190895618 L1.5976309814122431,4.601987341007546 L1.0518320659334743,1.092145305153369" fill-opacity="0" stroke="black" stroke-width="1" />
<path d="M3.183324273530318,89.32661380910437 L1.5976309814122431,95.39801265899246 L1.0518320659334743,98.90785469484663" fill-opacity="0" stroke="black" stroke-width="1" />
<path d="M3.183324273530318,-89.32661380910437 L1.5976309814122431,-95.39801265899246 L1.0518320659334743,-98.90785469484663" fill-opacity="0" stroke="black" stroke-width="1" />
<path d="M1.5976309814122431,-4.601987341007546 L1.0518320659334743,-1.092145305153369 L0.0,-0.0" fill-opacity="0" stroke="black" stroke-width="1" />
<path d="M1.5976309814122431,4.601987341007546 L1.0518320659334743,1.092145305153369 L0.0,-0.0" fill-opacity="0" stroke="black" stroke-width="1" />
<path d="M1.5976309814122431,95.39801265899246 L1.0518320659334743,98.90785469484663 L0.0,100.0" fill-opacity="0" stroke="black" stroke-width="1" />
<path d="M1.5976309814122431,-95.39801265899246 L1.0518320659334743,-98.90785469484663 L0.0,-100.0" fill-opacity="0" stroke="black" stroke-width="1" />
<path d="M0.0,89.0 L-3.238599565677375,88.46771289075127 L-3.6120412570887774,88.17424765274308" fill-opacity="0" stroke="black" stroke-width="1" />
<path d="M0.0,-11.0 L-3.238599565677375,-11.532287109248724 L-3.6120412570887774,-11.825752347256929" fill-opacity="0" stroke="black" stroke-width="1" />
<path d="M0.0,11.0 L-3.238599565677375,11.532287109248728 L-3.6120412570887774,11.825752347256923" fill-opacity="0" stroke="black" stroke-width="1" />
<path d="M0.0,-89.0 L-3.238599565677375,-88.46771289075127 L-3.6120412570887774,-88.17424765274308" fill-opacity="0" stroke="black" stroke-width="1" />
<path d="M-3.238599565677375,88.46771289075127 L-3.6120412570887774,88.17424765274308 L-9.951738168444134,82.00140547994545" fill-opacity="0" stroke="black" stroke-width="1" />
<path d="M-3.238599565677375,-11.532287109248724 L-3.6120412570887774,-11.825752347256929 L-9.951738168444134,-17.99859452005456" fill-opacity="0" stroke="black" stroke-width="1" />
<path d="M-3.238599565677375,11.532287109248728 L-3.6120412570887774,11.825752347256923 L-9.951738168444134,17.998594520054553" fill-opacity="0" stroke="black" stroke-width="1" />
<path d="M-3.238599565677375,-88.46771289075127 L-3.6120412570887774,-88.17424765274308 L-9.951738168444134,-82.00140547994545" fill-opacity="0" stroke="black" stroke-width="1" />
<path d="M-3.6120412570887774,88.17424765274308 L-9.951738168444134,82.00140547994545 L-11.208681625521265,74.81531732656387" fill-opacity="0" stroke="black" stroke-width="1" />
<path d="M-3.6120412570887774,-11.825752347256929 L-9.951738168444134,-17.99859452005456 L-11.208681625521265,-25.184682673436136" fill-opacity="0" stroke="black" stroke-width="1" />
<path d="M-3.6120412570887774,11.825752347256923 L-9.951738168444134,17.998594520054553 L-11.208681625521265,25.18468267343613" fill-opacity="0" stroke="black" stroke-width="1" />
<path d="M-3.6120412570887774,-88.17424765274308 L-9.951738168444134,-82.00140547994545 L-11.208681625521265,-74.81531732656387" fill-opacity="0" stroke="black" stroke-width="1" />
<path d="M-9.951738168444134,82.00140547994545 L-11.208681625521265,74.81531732656387 L-11.524929855096971,71.94388412764127" fill-opacity="0" stroke="black" stroke-width="1" />
<path d="M-9.951738168444134,-17.99859452005456 L-11.208681625521265,-25.184682673436136 L-11.524929855096971,-28.056115872358735" fill-opacity="0" stroke="black" stroke-width="1" />
<path d="M-9.951738168444134,17.998594520054553 L-11.208681625521265,25.18468267343613 L-11.524929855096971,28.05611587235873" fill-opacity="0" stroke="black" stroke-width="1" />
<path d="M-9.951738168444134,-82.00140547994545 L-11.208681625521265,-74.81531732656387 L-11.524929855096971,-71.94388412764127" fill-opacity="0" stroke="black" stroke-width="1" />
<path d="M-11.208681625521265,74.81531732656387 L-11.524929855096971,71.94388412764127 L0.0,64.0" fill-opacity="0" stroke="black" stroke-width="1" />
<path d="M-11.208681625521265,-25.184682673436136 L-11.524929855096971,-28.056115872358735 L0.0,-36.0" fill-opacity="0" stroke="black" stroke-width="1" />
<path d="M-11.208681625521265,25.18468267343613 L-11.524929855096971,28.05611587235873 L0.0,36.0" fill-opacity="0" stroke="black" stroke-width="1" />
<path d="M-11.208681625521265,-74.81531732656387 L-11.524929855096971,-71.94388412764127 L0.0,-64.0" fill-opacity="0" stroke="black" stroke-width="1" />
<path d="M-16.0,50.0 L-24.375169705206847,60.73649660261855 L-26.0,50.0" fill-opacity="0" stroke="black" stroke-width="1" />
<path d="M-16.0,-50.0 L-24.375169705206847,-39.26350339738145 L-26.0,-50.0" fill-opacity="0" stroke="black" stroke-width="1" />
<path d="M-16.0,50.0 L-24.375169705206847,39.26350339738145 L-26.0,50.0" fill-opacity="0" stroke="black" stroke-width="1" />
<path d="M-16.0,-50.0 L-24.375169705206847,-60.73649660261855 L-26.0,-50.0" fill-opacity="0" stroke="black" stroke-width="1" />
<path d="M-27.0,50.0 L-32.39393576769345,56.400436845450365 L-47.0,50.0" fill-opacity="0" stroke="black" stroke-width="1" />
<path d="M-27.0,-50.0 L-32.39393576769345,-43.599563154549635 L-47.0,-50.0" fill-opacity="0" stroke="black" stroke-width="1" />
<path d="M-27.0,50.0 L-32.39393576769345,43.599563154549635 L-47.0,50.0" fill-opacity="0" stroke="black" stroke-width="1" />
<path d="M-27.0,-50.0 L-32.39393576769345,-56.400436845450365 L-47.0,-50.0" fill-opacity="0" stroke="black" stroke-width="1" />
<path d="M-17.0,83.0 L-9.69335051496209,87.6394902120698 L-3.183324273530318,89.32661380910439" fill-opacity="0" stroke="black" stroke-width="1" />
<path d="M-17.0,-17.0 L-9.69335051496209,-12.360509787930196 L-3.183324273530318,-10.673386190895618" fill-opacity="0" stroke="black" stroke-width="1" />
<path d="M-17.0,17.0 L-9.69335051496209,12.360509787930198 L-3.183324273530318,10.673386190895613" fill-opacity="0" stroke="black" stroke-width="1" />
<path d="M-17.0,-83.0 L-9.69335051496209,-87.6394902120698 L-3.183324273530318,-89.32661380910437" fill-opacity="0" stroke="black" stroke-width="1" />
<path d="M-9.69335051496209,87.6394902120698 L-3.183324273530318,89.32661380910439 L-1.5976309814122431,95.39801265899246" fill-opacity="0" stroke="black" stroke-width="1" />
<path d="M-9.69335051496209,-12.360509787930196 L-3.183324273530318,-10.673386190895618 L-1.5976309814122431,-4.601987341007546" fill-opacity="0" stroke="black" stroke-width="1" />
<path d="M-9.69335051496209,12.360509787930198 L-3.183324273530318,10.673386190895613 L-1.5976309814122431,4.601987341007543" fill-opacity="0" stroke="black" stroke-width="1" />
<path d="M-9.69335051496209,-87.6394902120698 L-3.183324273530318,-89.32661380910437 L-1.5976309814122431,-95.39801265899246" fill-opacity="0" stroke="black" stroke-width="1" />
<path d="M-3.183324273530318,89.32661380910439 L-1.5976309814122431,95.39801265899246 L-1.0518320659334743,98.90785469484663" fill-opacity="0" stroke="black" stroke-width="1" />
<path d="M-3.183324273530318,-10.673386190895618 L-1.5976309814122431,-4.601987341007546 L-1.0518320659334743,-1.092145305153369" fill-opacity="0" stroke="black" stroke-width="1" />
<path d="M-3.183324273530318,10.673386190895613 L-1.5976309814122431,4.601987341007543 L-1.0518320659334743,1.092145305153366" fill-opacity="0" stroke="black" stroke-width="1" />
<path d="M-3.183324273530318,-89.32661380910437 L-1.5976309814122431,-95.39801265899246 L-1.0518320659334743,-98.90785469484663" fill-opacity="0" stroke="black" stroke-width="1" />
<path d="M-1.5976309814122431,95.39801265899246 L-1.0518320659334743,98.90785469484663 L0.0,100.0" fill-opacity="0" stroke="black" stroke-width="1" />
<path d="M-1.5976309814122431,-4.601987341007546 L-1.0518320659334743,-1.092145305153369 L0.0,-0.0" fill-opacity="0" stroke="black" stroke-width="1" />
<path d="M-1.5976309814122431,4.601987341007543 L-1.0518320659334743,1.092145305153366 L0.0,-0.0" fill-opacity="0" stroke="black" stroke-width="1" />
<path d="M-1.5976309814122431,-95.39801265899246 L-1.0518320659334743,-98.90785469484663 L0.0,-100.0" fill-opacity="0" stroke="black" stroke-width="1" />
<path d="M-89.0,-0.0 L-88.46771289075127,-3.238599565677375 L-88.17424765274308,-3.6120412570887774" fill-opacity="0" stroke="black" stroke-width="1" />
<path d="M-89.0,-0.0 L-88.46771289075127,3.238599565677375 L-88.17424765274308,3.6120412570887774" fill-opacity="0" stroke="black" stroke-width="1" />
<path d="M-88.46771289075127,-3.238599565677375 L-88.17424765274308,-3.6120412570887774 L-82.00140547994545,-9.951738168444134" fill-opacity="0" stroke="black" stroke-width="1" />
<path d="M-88.46771289075127,3.238599565677375 L-88.17424765274308,3.6120412570887774 L-82.00140547994545,9.951738168444134" fill-opacity="0" stroke="black" stroke-width="1" />
<path d="M-88.17424765274308,-3.6120412570887774 L-82.00140547994545,-9.951738168444134 L-74.81531732656387,-11.208681625521265" fill-opacity="0" stroke="black" stroke-width="1" />
<path d="M-88.17424765274308,3.6120412570887774 L-82.00140547994545,9.951738168444134 L-74.81531732656387,11.208681625521265" fill-opacity="0" stroke="black" stroke-width="1" />
<path d="M-82.00140547994545,-9.951738168444134 L-74.81531732656387,-11.208681625521265 L-71.94388412764127,-11.524929855096971" fill-opacity="0" stroke="black" stroke-width="1" />
<path d="M-82.00140547994545,9.951738168444134 L-74.81531732656387,11.208681625521265 L-71.94388412764127,11.524929855096971" fill-opacity="0" stroke="black" stroke-width="1" />
<path d="M-74.81531732656387,-11.208681625521265 L-71.94388412764127,-11.524929855096971 L-64.0,-0.0" fill-opacity="0" stroke="black" stroke-width="1" />
<path d="M-74.81531732656387,11.208681625521265 L-71.94388412764127,11.524929855096971 L-64.0,-0.0" fill-opacity="0" stroke="black" stroke-width="1" />
<path d="M-51.0,-49.0 L-56.0,-44.0 L-57.0,-43.0" fill-opacity="0" stroke="black" stroke-width="1" />
<path d="M-51.0,49.0 L-56.0,44.0 L-57.0,43.0" fill-opacity="0" stroke="black" stroke-width="1" />
<path d="M-50.0,-16.0 L-60.73649660261855,-24.375169705206847 L-50.0,-26.0" fill-opacity="0" stroke="black" stroke-width="1" />
<path d="M-50.0,16.0 L-60.73649660261855,24.375169705206847 L-50.0,26.0" fill-opacity="0" stroke="black" stroke-width="1" />
<path d="M-50.0,-27.0 L-56.400436845450365,-32.39393576769345 L-50.0,-47.0" fill-opacity="0" stroke="black" stroke-width="1" />
<path d="M-50.0,27.0 L-56.400436845450365,32.39393576769345 L-50.0,47.0" fill-opacity="0" stroke="black" stroke-width="1" />
<path d="M-50.0,-47.0 L-51.0,-49.0 L-56.0,-44.0" fill-opacity="0" stroke="black" stroke-width="1" />
<path d="M-50.0,47.0 L-51.0,49.0 L-56.0,44.0" fill-opacity="0" stroke="black" stroke-width="1" />
<path d="M-56.0,-44.0 L-57.0,-43.0 L-65.0,-35.0" fill-opacity="0" stroke="black" stroke-width="1" />
<path d="M-56.0,44.0 L-57.0,43.0 L-65.0,35.0" fill-opacity="0" stroke="black" stroke-width="1" />
<path d="M-57.0,-43.0 L-65.0,-35.0 L-81.0,-19.0" fill-opacity="0" stroke="black" stroke-width="1" />
<path d="M-57.0,43.0 L-65.0,35.0 L-81.0,19.0" fill-opacity="0" stroke="black" stroke-width="1" />
<path d="M-65.0,-35.0 L-81.0,-19.0 L-83.0,-17.0" fill-opacity="0" stroke="black" stroke-width="1" />
<path d="M-65.0,35.0 L-81.0,19.0 L-83.0,17.0" fill-opacity="0" stroke="black" stroke-width="1" />
<path d="M-81.0,-19.0 L-83.0,-17.0 L-87.6394902120698,-9.69335051496209" fill-opacity="0" stroke="black" stroke-width="1" />
<path d="M-81.0,19.0 L-83.0,17.0 L-87.6394902120698,9.69335051496209" fill-opacity="0" stroke="black" stroke-width="1" />
<path d="M-83.0,-17.0 L-87.6394902120698,-9.69335051496209 L-89.32661380910437,-3.183324273530318" fill-opacity="0" stroke="black" stroke-width="1" />
<path d="M-83.0,17.0 L-87.6394902120698,9.69335051496209 L-89.32661380910437,3.183324273530318" fill-opacity="0" stroke="black" stroke-width="1" />
<path d="M-87.6394902120698,-9.69335051496209 L-89.32661380910437,-3.183324273530318 L-95.39801265899246,-1.5976309814122431" fill-opacity="0" stroke="black" stroke-width="1" />
<path d="M-87.6394902120698,9.69335051496209 L-89.32661380910437,3.183324273530318 L-95.39801265899246,1.5976309814122431" fill-opacity="0" stroke="black" stroke-width="1" />
<path d="M-89.32661380910437,-3.183324273530318 L-95.39801265899246,-1.5976309814122431 L-98.90785469484663,-1.0518320659334743" fill-opacity="0" stroke="black" stroke-width="1" />
<path d="M-89.32661380910437,3.183324273530318 L-95.39801265899246,1.5976309814122431 L-98.90785469484663,1.0518320659334743" fill-opacity="0" stroke="black" stroke-width="1" />
<path d="M-95.39801265899246,-1.5976309814122431 L-98.90785469484663,-1.0518320659334743 L-100.0,-0.0" fill-opacity="0" stroke="black" stroke-width="1" />
<path d="M-95.39801265899246,1.5976309814122431 L-98.90785469484663,1.0518320659334743 L-100.0,-0.0" fill-opacity="0" stroke="black" stroke-width="1" />
</svg>