<?xml version="1.0" encoding="UTF-8"?>
<svg xmlns="http://www.w3.org/2000/svg" xmlns:xlink="http://www.w3.org/1999/xlink"
     width="250" height="250" viewBox="-125.0 -125.0 250 250">
<defs>
</defs>
<path d="M23.0,-0.0 L30.09996954841334,-14.552620776763964 L50.0,-0.0" fill="purple" fill-opacity="0.6" stroke="black" stroke-width="1" />
<path d="M23.0,-0.0 L30.09996954841334,14.552620776763964 L50.0,-0.0" fill="blue" fill-opacity="0.6" stroke="black" stroke-width="1" />
<path d="M50.0,-6.0 L42.55468573991007,-17.57136435567772 L50.0,-19.0" fill="orange" fill-opacity="0.6" stroke="black" stroke-width="1" />
<path d="M50.0,6.0 L42.55468573991007,17.57136435567772 L50.0,19.0" fill="yellow" fill-opacity="0.6" stroke="black" stroke-width="1" />
<path d="M50.0,-19.0 L45.08543822951472,-19.990361851469896 L50.0,-30.0" fill="pink" fill-opacity="0.6" stroke="black" stroke-width="1" />
<path d="M50.0,19.0 L45.08543822951472,19.990361851469896 L50.0,30.0" fill="orange" fill-opacity="0.6" stroke="black" stroke-width="1" />
<path d="M50.0,-40.0 L49.36883451620385,-46.16751802293503 L47.0,-47.0" fill="brown" fill-opacity="0.6" stroke="black" stroke-width="1" />
<path d="M50.0,40.0 L49.36883451620385,46.16751802293503 L47.0,47.0" fill="brown" fill-opacity="0.6" stroke="black" stroke-width="1" />
<path d="M46.16751802293503,50.63116548379615 L47.0,53.0 L27.0,73.0" fill="orange" fill-opacity="0.6" stroke="black" stroke-width="1" />
<path d="M46.16751802293503,-50.63116548379615 L47.0,-53.0 L27.0,-73.0" fill="brown" fill-opacity="0.6" stroke="black" stroke-width="1" />
<path d="M47.0,53.0 L27.0,73.0 L24.0,76.0" fill="orange" fill-opacity="0.6" stroke="black" stroke-width="1" />
<path d="M47.0,-53.0 L27.0,-73.0 L24.0,-76.0" fill="orange" fill-opacity="0.6" stroke="black" stroke-width="1" />
<path d="M27.0,73.0 L24.0,76.0 L13.453745823653085,81.15448813335225" fill="yellow" fill-opacity="0.6" stroke="black" stroke-width="1" />
<path d="M27.0,-73.0 L24.0,-76.0 L13.453745823653085,-81.15448813335225" fill="orange" fill-opacity="0.6" stroke="black" stroke-width="1" />
<path d="M24.0,-24.0 L18.84551186664775,-13.453745823653085 L18.060000988511366,-11.75556022471516" fill="pink" fill-opacity="0.6" stroke="black" stroke-width="1" />
<path d="M24.0,24.0 L18.84551186664775,13.453745823653085 L18.060000988511366,11.75556022471516" fill="purple" fill-opacity="0.6" stroke="black" stroke-width="1" />
<path d="M18.84551186664775,-13.453745823653085 L18.060000988511366,-11.75556022471516 L17.998980903443407,-11.679286194799776" fill="green" fill-opacity="0.6" stroke="black" stroke-width="1" />
<path d="M18.84551186664775,13.453745823653085 L18.060000988511366,11.75556022471516 L17.998980903443407,11.679286194799776" fill="blue" fill-opacity="0.6" stroke="black" stroke-width="1" />
<path d="M18.060000988511366,-11.75556022471516 L17.998980903443407,-11.679286194799776 L15.0,-15.0" fill="pink" fill-opacity="0.6" stroke="black" stroke-width="1" />
<path d="M18.060000988511366,11.75556022471516 L17.998980903443407,11.679286194799776 L15.0,15.0" fill="pink" fill-opacity="0.6" stroke="black" stroke-width="1" />
<path d="M11.679286194799776,82.00101909655659 L15.0,85.0 L5.770806232313902,86.49796638465219" fill="brown" fill-opacity="0.6" stroke="black" stroke-width="1" />
<path d="M11.679286194799776,-82.00101909655659 L15.0,-85.0 L5.770806232313902,-86.49796638465219" fill="brown" fill-opacity="0.6" stroke="black" stroke-width="1" />
<path d="M15.0,-15.0 L13.502033615347814,-5.770806232313902 L11.965952837390615,-4.959218615671659" fill="orange" fill-opacity="0.6" stroke="black" stroke-width="1" />
<path d="M15.0,15.0 L13.502033615347814,5.770806232313902 L11.965952837390615,4.959218615671659" fill="yellow" fill-opacity="0.6" stroke="black" stroke-width="1" />
<path d="M13.502033615347814,-5.770806232313902 L11.965952837390615,-4.959218615671659 L9.319682037827576,-4.51539821698088" fill="pink" fill-opacity="0.6" stroke="black" stroke-width="1" />
<path d="M13.502033615347814,5.770806232313902 L11.965952837390615,4.959218615671659 L9.319682037827576,4.51539821698088" fill="yellow" fill-opacity="0.6" stroke="black" stroke-width="1" />
<path d="M11.965952837390615,-4.959218615671659 L9.319682037827576,-4.51539821698088 L9.311673611448345,-3.1441931203128757" fill="purple" fill-opacity="0.6" stroke="black" stroke-width="1" />
<path d="M11.965952837390615,4.959218615671659 L9.319682037827576,4.51539821698088 L9.311673611448345,3.1441931203128757" fill="black" fill-opacity="0.6" stroke="black" stroke-width="1" />
<path d="M9.319682037827576,-4.51539821698088 L9.311673611448345,-3.1441931203128757 L8.941351736713566,-3.0436515357170624" fill="black" fill-opacity="0.6" stroke="black" stroke-width="1" />
<path d="M9.319682037827576,4.51539821698088 L9.311673611448345,3.1441931203128757 L8.941351736713566,3.0436515357170624" fill="orange" fill-opacity="0.6" stroke="black" stroke-width="1" />
<path d="M9.311673611448345,-3.1441931203128757 L8.941351736713566,-3.0436515357170624 L7.373591680354425,-3.0035710471869494" fill="blue" fill-opacity="0.6" stroke="black" stroke-width="1" />
<path d="M9.311673611448345,3.1441931203128757 L8.941351736713566,3.0436515357170624 L7.373591680354425,3.0035710471869494" fill="brown" fill-opacity="0.6" stroke="black" stroke-width="1" />
<path d="M8.941351736713566,-3.0436515357170624 L7.373591680354425,-3.0035710471869494 L4.4951764192623145,-2.0444698603142077" fill="brown" fill-opacity="0.6" stroke="black" stroke-width="1" />
<path d="M8.941351736713566,3.0436515357170624 L7.373591680354425,3.0035710471869494 L4.4951764192623145,2.0444698603142077" fill="blue" fill-opacity="0.6" stroke="black" stroke-width="1" />
<path d="M7.373591680354425,-3.0035710471869494 L4.4951764192623145,-2.0444698603142077 L3.819585300766448,-0.8917827322002331" fill="orange" fill-opacity="0.6" stroke="black" stroke-width="1" />
<path d="M7.373591680354425,3.0035710471869494 L4.4951764192623145,2.0444698603142077 L3.819585300766448,0.8917827322002331" fill="blue" fill-opacity="0.6" stroke="black" stroke-width="1" />
<path d="M4.4951764192623145,-2.0444698603142077 L3.819585300766448,-0.8917827322002331 L3.1771993752739145,-0.14994878260440603" fill="black" fill-opacity="0.6" stroke="black" stroke-width="1" />
<path d="M4.4951764192623145,2.0444698603142077 L3.819585300766448,0.8917827322002331 L3.1771993752739145,0.14994878260440603" fill="red" fill-opacity="0.6" stroke="black" stroke-width="1" />
<path d="M3.819585300766448,-0.8917827322002331 L3.1771993752739145,-0.14994878260440603 L0.0,-0.0" fill="brown" fill-opacity="0.6" stroke="black" stroke-width="1" />
<path d="M3.819585300766448,0.8917827322002331 L3.1771993752739145,0.14994878260440603 L0.0,-0.0" fill="green" fill-opacity="0.6" stroke="black" stroke-width="1" />
<path d="M-23.0,-0.0 L-30.09996954841334,-14.552620776763964 L-50.0,-0.0" fill="purple" fill-opacity="0.6" stroke="black" stroke-width="1" />
<path d="M-23.0,-0.0 L-30.09996954841334,14.552620776763964 L-50.0,-0.0" fill="brown" fill-opacity="0.6" stroke="black" stroke-width="1" />
<path d="M-50.0,-6.0 L-42.55468573991007,-17.57136435567772 L-50.0,-19.0" fill="yellow" fill-opacity="0.6" stroke="black" stroke-width="1" />
<path d="M-50.0,6.0 L-42.55468573991007,17.57136435567772 L-50.0,19.0" fill="blue" fill-opacity="0.6" stroke="black" stroke-width="1" />
<path d="M-50.0,-19.0 L-45.08543822951472,-19.990361851469896 L-50.0,-30.0" fill="blue" fill-opacity="0.6" stroke="black" stroke-width="1" />
<path d="M-50.0,19.0 L-45.08543822951472,19.990361851469896 L-50.0,30.0" fill="red" fill-opacity="0.6" stroke="black" stroke-width="1" />
<path d="M-50.0,-40.0 L-49.36883451620385,-46.16751802293503 L-47.0,-47.0" fill="yellow" fill-opacity="0.6" stroke="black" stroke-width="1" />
<path d="M-50.0,40.0 L-49.36883451620385,46.16751802293503 L-47.0,47.0" fill="pink" fill-opacity="0.6" stroke="black" stroke-width="1" />
<path d="M-46.16751802293503,50.63116548379615 L-47.0,53.0 L-27.0,73.0" fill="blue" fill-opacity="0.6" stroke="black" stroke-width="1" />
<path d="M-46.16751802293503,-50.63116548379615 L-47.0,-53.0 L-27.0,-73.0" fill="red" fill-opacity="0.6" stroke="black" stroke-width="1" />
<path d="M-47.0,53.0 L-27.0,73.0 L-24.0,76.0" fill="pink" fill-opacity="0.6" stroke="black" stroke-width="1" />
<path d="M-47.0,-53.0 L-27.0,-73.0 L-24.0,-76.0" fill="orange" fill-opacity="0.6" stroke="black" stroke-width="1" />
<path d="M-27.0,73.0 L-24.0,76.0 L-13.453745823653085,81.15448813335225" fill="black" fill-opacity="0.6" stroke="black" stroke-width="1" />
<path d="M-27.0,-73.0 L-24.0,-76.0 L-13.453745823653085,-81.15448813335225" fill="brown" fill-opacity="0.6" stroke="black" stroke-width="1" />
<path d="M-24.0,-24.0 L-18.84551186664775,-13.453745823653085 L-18.060000988511366,-11.75556022471516" fill="orange" fill-opacity="0.6" stroke="black" stroke-width="1" />
<path d="M-24.0,24.0 L-18.84551186664775,13.453745823653085 L-18.060000988511366,11.75556022471516" fill="brown" fill-opacity="0.6" stroke="black" stroke-width="1" />
<path d="M-18.84551186664775,-13.453745823653085 L-18.060000988511366,-11.75556022471516 L-17.998980903443407,-11.679286194799776" fill="yellow" fill-opacity="0.6" stroke="black" stroke-width="1" />
<path d="M-18.84551186664775,13.453745823653085 L-18.060000988511366,11.75556022471516 L-17.998980903443407,11.679286194799776" fill="blue" fill-opacity="0.6" stroke="black" stroke-width="1" />
<path d="M-18.060000988511366,-11.75556022471516 L-17.998980903443407,-11.679286194799776 L-15.0,-15.0" fill="brown" fill-opacity="0.6" stroke="black" stroke-width="1" />
<path d="M-18.060000988511366,11.75556022471516 L-17.998980903443407,11.679286194799776 L-15.0,15.0" fill="red" fill-opacity="0.6" stroke="black" stroke-width="1" />
<path d="M-11.679286194799776,82.00101909655659 L-15.0,85.0 L-5.770806232313902,86.49796638465219" fill="brown" fill-opacity="0.6" stroke="black" stroke-width="1" />
<path d="M-11.679286194799776,-82.00101909655659 L-15.0,-85.0 L-5.770806232313902,-86.49796638465219" fill="black" fill-opacity="0.6" stroke="black" stroke-width="1" />
<path d="M-15.0,-15.0 L-13.502033615347814,-5.770806232313902 L-11.965952837390615,-4.959218615671659" fill="blue" fill-opacity="0.6" stroke="black" stroke-width="1" />
<path d="M-15.0,15.0 L-13.502033615347814,5.770806232313902 L-11.965952837390615,4.959218615671659" fill="pink" fill-opacity="0.6" stroke="black" stroke-width="1" />
<path d="M-13.502033615347814,-5.770806232313902 L-11.965952837390615,-4.959218615671659 L-9.319682037827576,-4.51539821698088" fill="yellow" fill-opacity="0.6" stroke="black" stroke-width="1" />
<path d="M-13.502033615347814,5.770806232313902 L-11.965952837390615,4.959218615671659 L-9.319682037827576,4.51539821698088" fill="blue" fill-opacity="0.6" stroke="black" stroke-width="1" />
<path d="M-11.965952837390615,-4.959218615671659 L-9.319682037827576,-4.51539821698088 L-9.311673611448345,-3.1441931203128757" fill="red" fill-opacity="0.6" stroke="black" stroke-width="1" />
<path d="M-11.965952837390615,4.959218615671659 L-9.319682037827576,4.51539821698088 L-9.311673611448345,3.1441931203128757" fill="orange" fill-opacity="0.6" stroke="black" stroke-width="1" />
<path d="M-9.319682037827576,-4.51539821698088 L-9.311673611448345,-3.1441931203128757 L-8.941351736713566,-3.0436515357170624" fill="purple" fill-opacity="0.6" stroke="black" stroke-width="1" />
<path d="M-9.319682037827576,4.51539821698088 L-9.311673611448345,3.1441931203128757 L-8.941351736713566,3.0436515357170624" fill="red" fill-opacity="0.6" stroke="black" stroke-width="1" />
<path d="M-9.311673611448345,-3.1441931203128757 L-8.941351736713566,-3.0436515357170624 L-7.373591680354425,-3.0035710471869494" fill="orange" fill-opacity="0.6" stroke="black" stroke-width="1" />
<path d="M-9.311673611448345,3.1441931203128757 L-8.941351736713566,3.0436515357170624 L-7.373591680354425,3.0035710471869494" fill="purple" fill-opacity="0.6" stroke="black" stroke-width="1" />
<path d="M-8.941351736713566,-3.0436515357170624 L-7.373591680354425,-3.0035710471869494 L-4.4951764192623145,-2.0444698603142077" fill="orange" fill-opacity="0.6" stroke="black" stroke-width="1" />
<path d="M-8.941351736713566,3.0436515357170624 L-7.373591680354425,3.0035710471869494 L-4.4951764192623145,2.0444698603142077" fill="orange" fill-opacity="0.6" stroke="black" stroke-width="1" />
<path d="M-7.373591680354425,-3.0035710471869494 L-4.4951764192623145,-2.0444698603142077 L-3.819585300766448,-0.8917827322002331" fill="pink" fill-opacity="0.6" stroke="black" stroke-width="1" />
<path d="M-7.373591680354425,3.0035710471869494 L-4.4951764192623145,2.0444698603142077 L-3.819585300766448,0.8917827322002331" fill="pink" fill-opacity="0.6" stroke="black" stroke-width="1" />
<path d="M-4.4951764192623145,-2.0444698603142077 L-3.819585300766448,-0.8917827322002331 L-3.1771993752739145,-0.14994878260440603" fill="yellow" fill-opacity="0.6" stroke="black" stroke-width="1" />
<path d="M-4.4951764192623145,2.0444698603142077 L-3.819585300766448,0.8917827322002331 L-3.1771993752739145,0.14994878260440603" fill="purple" fill-opacity="0.6" stroke="black" stroke-width="1" />
<path d="M-3.819585300766448,-0.8917827322002331 L-3.1771993752739145,-0.14994878260440603 L0.0,-0.0" fill="green" fill-opacity="0.6" stroke="black" stroke-width="1" />
<path d="M-3.819585300766448,0.8917827322002331 L-3.1771993752739145,0.14994878260440603 L0.0,-0.0" fill="yellow" fill-opacity="0.6" stroke="black" stroke-width="1" />
<path d="M77.0,-0.0 L69.90003045158666,14.552620776763964 L50.0,-0.0" fill="blue" fill-opacity="0.6" stroke="black" stroke-width="1" />
<path d="M77.0,-0.0 L69.90003045158666,-14.552620776763964 L50.0,-0.0" fill="brown" fill-opacity="0.6" stroke="black" stroke-width="1" />
<path d="M50.0,6.0 L57.44531426008993,17.57136435567772 L50.0,19.0" fill="purple" fill-opacity="0.6" stroke="black" stroke-width="1" />
<path d="M50.0,-6.0 L57.44531426008993,-17.57136435567772 L50.0,-19.0" fill="orange" fill-opacity="0.6" stroke="black" stroke-width="1" />
<path d="M50.0,19.0 L54.91456177048528,19.990361851469896 L50.0,30.0" fill="brown" fill-opacity="0.6" stroke="black" stroke-width="1" />
<path d="M50.0,-19.0 L54.91456177048528,-19.990361851469896 L50.0,-30.0" fill="yellow" fill-opacity="0.6" stroke="black" stroke-width="1" />
<path d="M50.0,40.0 L50.63116548379615,46.16751802293503 L53.0,47.0" fill="pink" fill-opacity="0.6" stroke="black" stroke-width="1" />
<path d="M50.0,-40.0 L50.63116548379615,-46.16751802293503 L53.0,-47.0" fill="pink" fill-opacity="0.6" stroke="black" stroke-width="1" />
<path d="M50.63116548379615,46.16751802293503 L53.0,47.0 L73.0,27.0" fill="pink" fill-opacity="0.6" stroke="black" stroke-width="1" />
<path d="M50.63116548379615,-46.16751802293503 L53.0,-47.0 L73.0,-27.0" fill="brown" fill-opacity="0.6" stroke="black" stroke-width="1" />
<path d="M53.0,47.0 L73.0,27.0 L76.0,24.0" fill="blue" fill-opacity="0.6" stroke="black" stroke-width="1" />
<path d="M53.0,-47.0 L73.0,-27.0 L76.0,-24.0" fill="green" fill-opacity="0.6" stroke="black" stroke-width="1" />
<path d="M73.0,27.0 L76.0,24.0 L81.15448813335225,13.453745823653085" fill="purple" fill-opacity="0.6" stroke="black" stroke-width="1" />
<path d="M73.0,-27.0 L76.0,-24.0 L81.15448813335225,-13.453745823653085" fill="blue" fill-opacity="0.6" stroke="black" stroke-width="1" />
<path d="M76.0,24.0 L81.15448813335225,13.453745823653085 L81.93999901148864,11.75556022471516" fill="yellow" fill-opacity="0.6" stroke="black" stroke-width="1" />
<path d="M76.0,-24.0 L81.15448813335225,-13.453745823653085 L81.93999901148864,-11.75556022471516" fill="green" fill-opacity="0.6" stroke="black" stroke-width="1" />
<path d="M81.15448813335225,13.453745823653085 L81.93999901148864,11.75556022471516 L82.00101909655659,11.679286194799776" fill="yellow" fill-opacity="0.6" stroke="black" stroke-width="1" />
<path d="M81.15448813335225,-13.453745823653085 L81.93999901148864,-11.75556022471516 L82.00101909655659,-11.679286194799776" fill="yellow" fill-opacity="0.6" stroke="black" stroke-width="1" />
<path d="M81.93999901148864,11.75556022471516 L82.00101909655659,11.679286194799776 L85.0,15.0" fill="black" fill-opacity="0.6" stroke="black" stroke-width="1" />
<path d="M81.93999901148864,-11.75556022471516 L82.00101909655659,-11.679286194799776 L85.0,-15.0" fill="yellow" fill-opacity="0.6" stroke="black" stroke-width="1" />
<path d="M82.00101909655659,11.679286194799776 L85.0,15.0 L86.49796638465219,5.770806232313902" fill="blue" fill-opacity="0.6" stroke="black" stroke-width="1" />
<path d="M82.00101909655659,-11.679286194799776 L85.0,-15.0 L86.49796638465219,-5.770806232313902" fill="red" fill-opacity="0.6" stroke="black" stroke-width="1" />
<path d="M85.0,15.0 L86.49796638465219,5.770806232313902 L88.03404716260938,4.959218615671659" fill="red" fill-opacity="0.6" stroke="black" stroke-width="1" />
<path d="M85.0,-15.0 L86.49796638465219,-5.770806232313902 L88.03404716260938,-4.959218615671659" fill="orange" fill-opacity="0.6" stroke="black" stroke-width="1" />
<path d="M86.49796638465219,5.770806232313902 L88.03404716260938,4.959218615671659 L90.68031796217242,4.51539821698088" fill="red" fill-opacity="0.6" stroke="black" stroke-width="1" />
<path d="M86.49796638465219,-5.770806232313902 L88.03404716260938,-4.959218615671659 L90.68031796217242,-4.51539821698088" fill="green" fill-opacity="0.6" stroke="black" stroke-width="1" />
<path d="M88.03404716260938,4.959218615671659 L90.68031796217242,4.51539821698088 L90.68832638855166,3.1441931203128757" fill="green" fill-opacity="0.6" stroke="black" stroke-width="1" />
<path d="M88.03404716260938,-4.959218615671659 L90.68031796217242,-4.51539821698088 L90.68832638855166,-3.1441931203128757" fill="brown" fill-opacity="0.6" stroke="black" stroke-width="1" />
<path d="M90.68031796217242,4.51539821698088 L90.68832638855166,3.1441931203128757 L91.05864826328644,3.0436515357170624" fill="green" fill-opacity="0.6" stroke="black" stroke-width="1" />
<path d="M90.68031796217242,-4.51539821698088 L90.68832638855166,-3.1441931203128757 L91.05864826328644,-3.0436515357170624" fill="green" fill-opacity="0.6" stroke="black" stroke-width="1" />
<path d="M90.68832638855166,3.1441931203128757 L91.05864826328644,3.0436515357170624 L92.62640831964558,3.0035710471869494" fill="yellow" fill-opacity="0.6" stroke="black" stroke-width="1" />
<path d="M90.68832638855166,-3.1441931203128757 L91.05864826328644,-3.0436515357170624 L92.62640831964558,-3.0035710471869494" fill="pink" fill-opacity="0.6" stroke="black" stroke-width="1" />
<path d="M91.05864826328644,3.0436515357170624 L92.62640831964558,3.0035710471869494 L95.50482358073768,2.0444698603142077" fill="orange" fill-opacity="0.6" stroke="black" stroke-width="1" />
<path d="M91.05864826328644,-3.0436515357170624 L92.62640831964558,-3.0035710471869494 L95.50482358073768,-2.0444698603142077" fill="green" fill-opacity="0.6" stroke="black" stroke-width="1" />
<path d="M92.62640831964558,3.0035710471869494 L95.50482358073768,2.0444698603142077 L96.18041469923355,0.8917827322002331" fill="purple" fill-opacity="0.6" stroke="black" stroke-width="1" />
<path d="M92.62640831964558,-3.0035710471869494 L95.50482358073768,-2.0444698603142077 L96.18041469923355,-0.8917827322002331" fill="black" fill-opacity="0.6" stroke="black" stroke-width="1" />
<path d="M95.50482358073768,2.0444698603142077 L96.18041469923355,0.8917827322002331 L96.82280062472609,0.14994878260440603" fill="green" fill-opacity="0.6" stroke="black" stroke-width="1" />
<path d="M95.50482358073768,-2.0444698603142077 L96.18041469923355,-0.8917827322002331 L96.82280062472609,-0.14994878260440603" fill="pink" fill-opacity="0.6" stroke="black" stroke-width="1" />
<path d="M96.18041469923355,0.8917827322002331 L96.82280062472609,0.14994878260440603 L100.0,-0.0" fill="red" fill-opacity="0.6" stroke="black" stroke-width="1" />
<path d="M96.18041469923355,-0.8917827322002331 L96.82280062472609,-0.14994878260440603 L100.0,-0.0" fill="purple" fill-opacity="0.6" stroke="black" stroke-width="1" />
<path d="M0.0,-23.0 L14.552620776763964,-30.09996954841334 L0.0,-50.0" fill="red" fill-opacity="0.6" stroke="black" stroke-width="1" />
<path d="M0.0,23.0 L14.552620776763964,30.09996954841334 L0.0,50.0" fill="orange" fill-opacity="0.6" stroke="black" stroke-width="1" />
<path d="M0.0,77.0 L14.552620776763964,69.90003045158666 L0.0,50.0" fill="yellow" fill-opacity="0.6" stroke="black" stroke-width="1" />
<path d="M0.0,-77.0 L14.552620776763964,-69.90003045158666 L0.0,-50.0" fill="pink" fill-opacity="0.6" stroke="black" stroke-width="1" />
<path d="M6.0,-50.0 L17.57136435567772,-42.55468573991007 L19.0,-50.0" fill="blue" fill-opacity="0.6" stroke="black" stroke-width="1" />
<path d="M6.0,50.0 L17.57136435567772,42.55468573991007 L19.0,50.0" fill="orange" fill-opacity="0.6" stroke="black" stroke-width="1" />
<path d="M6.0,50.0 L17.57136435567772,57.44531426008993 L19.0,50.0" fill="black" fill-opacity="0.6" stroke="black" stroke-width="1" />
<path d="M6.0,-50.0 L17.57136435567772,-57.44531426008993 L19.0,-50.0" fill="orange" fill-opacity="0.6" stroke="black" stroke-width="1" />
<path d="M19.0,-50.0 L19.990361851469896,-45.08543822951472 L30.0,-50.0" fill="black" fill-opacity="0.6" stroke="black" stroke-width="1" />
<path d="M19.0,50.0 L19.990361851469896,45.08543822951472 L30.0,50.0" fill="red" fill-opacity="0.6" stroke="black" stroke-width="1" />
<path d="M19.0,50.0 L19.990361851469896,54.91456177048528 L30.0,50.0" fill="orange" fill-opacity="0.6" stroke="black" stroke-width="1" />
<path d="M19.0,-50.0 L19.990361851469896,-54.91456177048528 L30.0,-50.0" fill="blue" fill-opacity="0.6" stroke="black" stroke-width="1" />
<path d="M40.0,-50.0 L46.16751802293503,-49.36883451620385 L47.0,-47.0" fill="black" fill-opacity="0.6" stroke="black" stroke-width="1" />
<path d="M40.0,50.0 L46.16751802293503,49.36883451620385 L47.0,47.0" fill="purple" fill-opacity="0.6" stroke="black" stroke-width="1" />
<path d="M40.0,50.0 L46.16751802293503,50.63116548379615 L47.0,53.0" fill="blue" fill-opacity="0.6" stroke="black" stroke-width="1" />
<path d="M40.0,-50.0 L46.16751802293503,-50.63116548379615 L47.0,-53.0" fill="blue" fill-opacity="0.6" stroke="black" stroke-width="1" />
<path d="M24.0,-24.0 L13.453745823653085,-18.84551186664775 L11.75556022471516,-18.060000988511366" fill="brown" fill-opacity="0.6" stroke="black" stroke-width="1" />
<path d="M24.0,24.0 L13.453745823653085,18.84551186664775 L11.75556022471516,18.060000988511366" fill="brown" fill-opacity="0.6" stroke="black" stroke-width="1" />
<path d="M24.0,76.0 L13.453745823653085,81.15448813335225 L11.75556022471516,81.93999901148864" fill="pink" fill-opacity="0.6" stroke="black" stroke-width="1" />
<path d="M24.0,-76.0 L13.453745823653085,-81.15448813335225 L11.75556022471516,-81.93999901148864" fill="orange" fill-opacity="0.6" stroke="black" stroke-width="1" />
<path d="M13.453745823653085,-18.84551186664775 L11.75556022471516,-18.060000988511366 L11.679286194799776,-17.998980903443407" fill="red" fill-opacity="0.6" stroke="black" stroke-width="1" />
<path d="M13.453745823653085,18.84551186664775 L11.75556022471516,18.060000988511366 L11.679286194799776,17.998980903443407" fill="red" fill-opacity="0.6" stroke="black" stroke-width="1" />
<path d="M13.453745823653085,81.15448813335225 L11.75556022471516,81.93999901148864 L11.679286194799776,82.00101909655659" fill="black" fill-opacity="0.6" stroke="black" stroke-width="1" />
<path d="M13.453745823653085,-81.15448813335225 L11.75556022471516,-81.93999901148864 L11.679286194799776,-82.00101909655659" fill="red" fill-opacity="0.6" stroke="black" stroke-width="1" />
<path d="M11.75556022471516,-18.060000988511366 L11.679286194799776,-17.998980903443407 L15.0,-15.0" fill="pink" fill-opacity="0.6" stroke="black" stroke-width="1" />
<path d="M11.75556022471516,18.060000988511366 L11.679286194799776,17.998980903443407 L15.0,15.0" fill="orange" fill-opacity="0.6" stroke="black" stroke-width="1" />
<path d="M11.75556022471516,81.93999901148864 L11.679286194799776,82.00101909655659 L15.0,85.0" fill="blue" fill-opacity="0.6" stroke="black" stroke-width="1" />
<path d="M11.75556022471516,-81.93999901148864 L11.679286194799776,-82.00101909655659 L15.0,-85.0" fill="black" fill-opacity="0.6" stroke="black" stroke-width="1" />
<path d="M15.0,-15.0 L5.770806232313902,-13.502033615347814 L4.959218615671659,-11.965952837390615" fill="yellow" fill-opacity="0.6" stroke="black" stroke-width="1" />
<path d="M15.0,15.0 L5.770806232313902,13.502033615347814 L4.959218615671659,11.965952837390615" fill="green" fill-opacity="0.6" stroke="black" stroke-width="1" />
<path d="M15.0,85.0 L5.770806232313902,86.49796638465219 L4.959218615671659,88.03404716260938" fill="yellow" fill-opacity="0.6" stroke="black" stroke-width="1" />
<path d="M15.0,-85.0 L5.770806232313902,-86.49796638465219 L4.959218615671659,-88.03404716260938" fill="black" fill-opacity="0.6" stroke="black" stroke-width="1" />
<path d="M5.770806232313902,-13.502033615347814 L4.959218615671659,-11.965952837390615 L4.51539821698088,-9.319682037827576" fill="black" fill-opacity="0.6" stroke="black" stroke-width="1" />
<path d="M5.770806232313902,13.502033615347814 L4.959218615671659,11.965952837390615 L4.51539821698088,9.319682037827576" fill="red" fill-opacity="0.6" stroke="black" stroke-width="1" />
<path d="M5.770806232313902,86.49796638465219 L4.959218615671659,88.03404716260938 L4.51539821698088,90.68031796217242" fill="black" fill-opacity="0.6" stroke="black" stroke-width="1" />
<path d="M5.770806232313902,-86.49796638465219 L4.959218615671659,-88.03404716260938 L4.51539821698088,-90.68031796217242" fill="yellow" fill-opacity="0.6" stroke="black" stroke-width="1" />
<path d="M4.959218615671659,-11.965952837390615 L4.51539821698088,-9.319682037827576 L3.1441931203128757,-9.311673611448345" fill="green" fill-opacity="0.6" stroke="black" stroke-width="1" />
<path d="M4.959218615671659,11.965952837390615 L4.51539821698088,9.319682037827576 L3.1441931203128757,9.311673611448345" fill="green" fill-opacity="0.6" stroke="black" stroke-width="1" />
<path d="M4.959218615671659,88.03404716260938 L4.51539821698088,90.68031796217242 L3.1441931203128757,90.68832638855166" fill="purple" fill-opacity="0.6" stroke="black" stroke-width="1" />
<path d="M4.959218615671659,-88.03404716260938 L4.51539821698088,-90.68031796217242 L3.1441931203128757,-90.68832638855166" fill="red" fill-opacity="0.6" stroke="black" stroke-width="1" />
<path d="M4.51539821698088,-9.319682037827576 L3.1441931203128757,-9.311673611448345 L3.0436515357170624,-8.941351736713566" fill="green" fill-opacity="0.6" stroke="black" stroke-width="1" />
<path d="M4.51539821698088,9.319682037827576 L3.1441931203128757,9.311673611448345 L3.0436515357170624,8.941351736713566" fill="red" fill-opacity="0.6" stroke="black" stroke-width="1" />
<path d="M4.51539821698088,90.68031796217242 L3.1441931203128757,90.68832638855166 L3.0436515357170624,91.05864826328644" fill="pink" fill-opacity="0.6" stroke="black" stroke-width="1" />
<path d="M4.51539821698088,-90.68031796217242 L3.1441931203128757,-90.68832638855166 L3.0436515357170624,-91.05864826328644" fill="green" fill-opacity="0.6" stroke="black" stroke-width="1" />
<path d="M3.1441931203128757,-9.311673611448345 L3.0436515357170624,-8.941351736713566 L3.0035710471869494,-7.373591680354425" fill="green" fill-opacity="0.6" stroke="black" stroke-width="1" />
<path d="M3.1441931203128757,9.311673611448345 L3.0436515357170624,8.941351736713566 L3.0035710471869494,7.373591680354425" fill="black" fill-opacity="0.6" stroke="black" stroke-width="1" />
<path d="M3.1441931203128757,90.68832638855166 L3.0436515357170624,91.05864826328644 L3.0035710471869494,92.62640831964558" fill="black" fill-opacity="0.6" stroke="black" stroke-width="1" />
<path d="M3.1441931203128757,-90.68832638855166 L3.0436515357170624,-91.05864826328644 L3.0035710471869494,-92.62640831964558" fill="red" fill-opacity="0.6" stroke="black" stroke-width="1" />
<path d="M3.0436515357170624,-8.941351736713566 L3.0035710471869494,-7.373591680354425 L2.0444698603142077,-4.4951764192623145" fill="black" fill-opacity="0.6" stroke="black" stroke-width="1" />
<path d="M3.0436515357170624,8.941351736713566 L3.0035710471869494,7.373591680354425 L2.0444698603142077,4.4951764192623145" fill="brown" fill-opacity="0.6" stroke="black" stroke-width="1" />
<path d="M3.0436515357170624,91.05864826328644 L3.0035710471869494,92.62640831964558 L2.0444698603142077,95.50482358073768" fill="orange" fill-opacity="0.6" stroke="black" stroke-width="1" />
<path d="M3.0436515357170624,-91.05864826328644 L3.0035710471869494,-92.62640831964558 L2.0444698603142077,-95.50482358073768" fill="blue" fill-opacity="0.6" stroke="black" stroke-width="1" />
<path d="M3.0035710471869494,-7.373591680354425 L2.0444698603142077,-4.4951764192623145 L0.8917827322002331,-3.819585300766448" fill="blue" fill-opacity="0.6" stroke="black" stroke-width="1" />
<path d="M3.0035710471869494,7.373591680354425 L2.0444698603142077,4.4951764192623145 L0.8917827322002331,3.819585300766448" fill="yellow" fill-opacity="0.6" stroke="black" stroke-width="1" />
<path d="M3.0035710471869494,92.62640831964558 L2.0444698603142077,95.50482358073768 L0.8917827322002331,96.18041469923355" fill="yellow" fill-opacity="0.6" stroke="black" stroke-width="1" />
<path d="M3.0035710471869494,-92.62640831964558 L2.0444698603142077,-95.50482358073768 L0.8917827322002331,-96.18041469923355" fill="yellow" fill-opacity="0.6" stroke="black" stroke-width="1" />
<path d="M2.0444698603142077,-4.4951764192623145 L0.8917827322002331,-3.819585300766448 L0.14994878260440603,-3.1771993752739145" fill="red" fill-opacity="0.6" stroke="black" stroke-width="1" />
<path d="M2.0444698603142077,4.4951764192623145 L0.8917827322002331,3.819585300766448 L0.14994878260440603,3.1771993752739145" fill="purple" fill-opacity="0.6" stroke="black" stroke-width="1" />
<path d="M2.0444698603142077,95.50482358073768 L0.8917827322002331,96.18041469923355 L0.14994878260440603,96.82280062472609" fill="black" fill-opacity="0.6" stroke="black" stroke-width="1" />
<path d="M2.0444698603142077,-95.50482358073768 L0.8917827322002331,-96.18041469923355 L0.14994878260440603,-96.82280062472609" fill="yellow" fill-opacity="0.6" stroke="black" stroke-width="1" />
<path d="M0.8917827322002331,-3.819585300766448 L0.14994878260440603,-3.1771993752739145 L0.0,-0.0" fill="yellow" fill-opacity="0.6" stroke="black" stroke-width="1" />
<path d="M0.8917827322002331,3.819585300766448 L0.14994878260440603,3.1771993752739145 L0.0,-0.0" fill="yellow" fill-opacity="0.6" stroke="black" stroke-width="1" />
<path d="M0.8917827322002331,96.18041469923355 L0.14994878260440603,96.82280062472609 L0.0,100.0" fill="orange" fill-opacity="0.6" stroke="black" stroke-width="1" />
<path d="M0.8917827322002331,-96.18041469923355 L0.14994878260440603,-96.82280062472609 L0.0,-100.0" fill="red" fill-opacity="0.6" stroke="black" stroke-width="1" />
<path d="M0.0,77.0 L-14.552620776763964,69.90003045158666 L0.0,50.0" fill="red" fill-opacity="0.6" stroke="black" stroke-width="1" />
<path d="M0.0,-23.0 L-14.552620776763964,-30.09996954841334 L0.0,-50.0" fill="pink" fill-opacity="0.6" stroke="black" stroke-width="1" />
<path d="M0.0,23.0 L-14.552620776763964,30.09996954841334 L0.0,50.0" fill="brown" fill-opacity="0.6" stroke="black" stroke-width="1" />
<path d="M0.0,-77.0 L-14.552620776763964,-69.90003045158666 L0.0,-50.0" fill="purple" fill-opacity="0.6" stroke="black" stroke-width="1" />
<path d="M-6.0,50.0 L-17.57136435567772,57.44531426008993 L-19.0,50.0" fill="blue" fill-opacity="0.6" stroke="black" stroke-width="1" />
<path d="M-6.0,-50.0 L-17.57136435567772,-42.55468573991007 L-19.0,-50.0" fill="green" fill-opacity="0.6" stroke="black" stroke-width="1" />
<path d="M-6.0,50.0 L-17.57136435567772,42.55468573991007 L-19.0,50.0" fill="brown" fill-opacity="0.6" stroke="black" stroke-width="1" />
<path d="M-6.0,-50.0 L-17.57136435567772,-57.44531426008993 L-19.0,-50.0" fill="green" fill-opacity="0.6" stroke="black" stroke-width="1" />
<path d="M-19.0,50.0 L-19.990361851469896,54.91456177048528 L-30.0,50.0" fill="purple" fill-opacity="0.6" stroke="black" stroke-width="1" />
<path d="M-19.0,-50.0 L-19.990361851469896,-45.08543822951472 L-30.0,-50.0" fill="yellow" fill-opacity="0.6" stroke="black" stroke-width="1" />
<path d="M-19.0,50.0 L-19.990361851469896,45.08543822951472 L-30.0,50.0" fill="brown" fill-opacity="0.6" stroke="black" stroke-width="1" />
<path d="M-19.0,-50.0 L-19.990361851469896,-54.91456177048528 L-30.0,-50.0" fill="red" fill-opacity="0.6" stroke="black" stroke-width="1" />
<path d="M-40.0,50.0 L-46.16751802293503,50.63116548379615 L-47.0,53.0" fill="pink" fill-opacity="0.6" stroke="black" stroke-width="1" />
<path d="M-40.0,-50.0 L-46.16751802293503,-49.36883451620385 L-47.0,-47.0" fill="green" fill-opacity="0.6" stroke="black" stroke-width="1" />
<path d="M-40.0,50.0 L-46.16751802293503,49.36883451620385 L-47.0,47.0" fill="pink" fill-opacity="0.6" stroke="black" stroke-width="1" />
<path d="M-40.0,-50.0 L-46.16751802293503,-50.63116548379615 L-47.0,-53.0" fill="yellow" fill-opacity="0.6" stroke="black" stroke-width="1" />
<path d="M-24.0,76.0 L-13.453745823653085,81.15448813335225 L-11.75556022471516,81.93999901148864" fill="yellow" fill-opacity="0.6" stroke="black" stroke-width="1" />
<path d="M-24.0,-24.0 L-13.453745823653085,-18.84551186664775 L-11.75556022471516,-18.060000988511366" fill="orange" fill-opacity="0.6" stroke="black" stroke-width="1" />
<path d="M-24.0,24.0 L-13.453745823653085,18.845511866647755 L-11.75556022471516,18.060000988511362" fill="black" fill-opacity="0.6" stroke="black" stroke-width="1" />
<path d="M-24.0,-76.0 L-13.453745823653085,-81.15448813335225 L-11.75556022471516,-81.93999901148864" fill="purple" fill-opacity="0.6" stroke="black" stroke-width="1" />
<path d="M-13.453745823653085,81.15448813335225 L-11.75556022471516,81.93999901148864 L-11.679286194799776,82.00101909655659" fill="blue" fill-opacity="0.6" stroke="black" stroke-width="1" />
<path d="M-13.453745823653085,-18.84551186664775 L-11.75556022471516,-18.060000988511366 L-11.679286194799776,-17.998980903443407" fill="orange" fill-opacity="0.6" stroke="black" stroke-width="1" />
<path d="M-13.453745823653085,18.845511866647755 L-11.75556022471516,18.060000988511362 L-11.679286194799776,17.99898090344341" fill="pink" fill-opacity="0.6" stroke="black" stroke-width="1" />
<path d="M-13.453745823653085,-81.15448813335225 L-11.75556022471516,-81.93999901148864 L-11.679286194799776,-82.00101909655659" fill="yellow" fill-opacity="0.6" stroke="black" stroke-width="1" />
<path d="M-11.75556022471516,81.93999901148864 L-11.679286194799776,82.00101909655659 L-15.0,85.0" fill="yellow" fill-opacity="0.6" stroke="black" stroke-width="1" />
<path d="M-11.75556022471516,-18.060000988511366 L-11.679286194799776,-17.998980903443407 L-15.0,-15.0" fill="blue" fill-opacity="0.6" stroke="black" stroke-width="1" />
<path d="M-11.75556022471516,18.060000988511362 L-11.679286194799776,17.99898090344341 L-15.0,15.0" fill="orange" fill-opacity="0.6" stroke="black" stroke-width="1" />
<path d="M-11.75556022471516,-81.93999901148864 L-11.679286194799776,-82.00101909655659 L-15.0,-85.0" fill="orange" fill-opacity="0.6" stroke="black" stroke-width="1" />
<path d="M-15.0,85.0 L-5.770806232313902,86.49796638465219 L-4.959218615671659,88.03404716260938" fill="brown" fill-opacity="0.6" stroke="black" stroke-width="1" />
<path d="M-15.0,-15.0 L-5.770806232313902,-13.502033615347814 L-4.959218615671659,-11.965952837390615" fill="pink" fill-opacity="0.6" stroke="black" stroke-width="1" />
<path d="M-15.0,15.0 L-5.770806232313902,13.502033615347813 L-4.959218615671659,11.965952837390617" fill="yellow" fill-opacity="0.6" stroke="black" stroke-width="1" />
<path d="M-15.0,-85.0 L-5.770806232313902,-86.49796638465219 L-4.959218615671659,-88.03404716260938" fill="pink" fill-opacity="0.6" stroke="black" stroke-width="1" />
<path d="M-5.770806232313902,86.49796638465219 L-4.959218615671659,88.03404716260938 L-4.51539821698088,90.68031796217242" fill="pink" fill-opacity="0.6" stroke="black" stroke-width="1" />
<path d="M-5.770806232313902,-13.502033615347814 L-4.959218615671659,-11.965952837390615 L-4.51539821698088,-9.319682037827576" fill="red" fill-opacity="0.6" stroke="black" stroke-width="1" />
<path d="M-5.770806232313902,13.502033615347813 L-4.959218615671659,11.965952837390617 L-4.51539821698088,9.319682037827576" fill="orange" fill-opacity="0.6" stroke="black" stroke-width="1" />
<path d="M-5.770806232313902,-86.49796638465219 L-4.959218615671659,-88.03404716260938 L-4.51539821698088,-90.68031796217242" fill="green" fill-opacity="0.6" stroke="black" stroke-width="1" />
<path d="M-4.959218615671659,88.03404716260938 L-4.51539821698088,90.68031796217242 L-3.1441931203128757,90.68832638855166" fill="red" fill-opacity="0.6" stroke="black" stroke-width="1" />
<path d="M-4.959218615671659,-11.965952837390615 L-4.51539821698088,-9.319682037827576 L-3.1441931203128757,-9.311673611448345" fill="pink" fill-opacity="0.6" stroke="black" stroke-width="1" />
<path d="M-4.959218615671659,11.965952837390617 L-4.51539821698088,9.319682037827576 L-3.1441931203128757,9.311673611448342" fill="blue" fill-opacity="0.6" stroke="black" stroke-width="1" />
<path d="M-4.959218615671659,-88.03404716260938 L-4.51539821698088,-90.68031796217242 L-3.1441931203128757,-90.68832638855166" fill="brown" fill-opacity="0.6" stroke="black" stroke-width="1" />
<path d="M-4.51539821698088,90.68031796217242 L-3.1441931203128757,90.68832638855166 L-3.0436515357170624,91.05864826328643" fill="black" fill-opacity="0.6" stroke="black" stroke-width="1" />
<path d="M-4.51539821698088,-9.319682037827576 L-3.1441931203128757,-9.311673611448345 L-3.0436515357170624,-8.941351736713566" fill="pink" fill-opacity="0.6" stroke="black" stroke-width="1" />
<path d="M-4.51539821698088,9.319682037827576 L-3.1441931203128757,9.311673611448342 L-3.0436515357170624,8.941351736713571" fill="black" fill-opacity="0.6" stroke="black" stroke-width="1" />
<path d="M-4.51539821698088,-90.68031796217242 L-3.1441931203128757,-90.68832638855166 L-3.0436515357170624,-91.05864826328644" fill="pink" fill-opacity="0.6" stroke="black" stroke-width="1" />
<path d="M-3.1441931203128757,90.68832638855166 L-3.0436515357170624,91.05864826328643 L-3.0035710471869494,92.62640831964558" fill="blue" fill-opacity="0.6" stroke="black" stroke-width="1" />
<path d="M-3.1441931203128757,-9.311673611448345 L-3.0436515357170624,-8.941351736713566 L-3.0035710471869494,-7.373591680354425" fill="orange" fill-opacity="0.6" stroke="black" stroke-width="1" />
<path d="M-3.1441931203128757,9.311673611448342 L-3.0436515357170624,8.941351736713571 L-3.0035710471869494,7.373591680354423" fill="green" fill-opacity="0.6" stroke="black" stroke-width="1" />
<path d="M-3.1441931203128757,-90.68832638855166 L-3.0436515357170624,-91.05864826328644 L-3.0035710471869494,-92.62640831964558" fill="black" fill-opacity="0.6" stroke="black" stroke-width="1" />
<path d="M-3.0436515357170624,91.05864826328643 L-3.0035710471869494,92.62640831964558 L-2.0444698603142077,95.50482358073768" fill="blue" fill-opacity="0.6" stroke="black" stroke-width="1" />
<path d="M-3.0436515357170624,-8.941351736713566 L-3.0035710471869494,-7.373591680354425 L-2.0444698603142077,-4.4951764192623145" fill="brown" fill-opacity="0.6" stroke="black" stroke-width="1" />
<path d="M-3.0436515357170624,8.941351736713571 L-3.0035710471869494,7.373591680354423 L-2.0444698603142077,4.495176419262322" fill="yellow" fill-opacity="0.6" stroke="black" stroke-width="1" />
<path d="M-3.0436515357170624,-91.05864826328644 L-3.0035710471869494,-92.62640831964558 L-2.0444698603142077,-95.50482358073768" fill="purple" fill-opacity="0.6" stroke="black" stroke-width="1" />
<path d="M-3.0035710471869494,92.62640831964558 L-2.0444698603142077,95.50482358073768 L-0.8917827322002331,96.18041469923355" fill="blue" fill-opacity="0.6" stroke="black" stroke-width="1" />
<path d="M-3.0035710471869494,-7.373591680354425 L-2.0444698603142077,-4.4951764192623145 L-0.8917827322002331,-3.819585300766448" fill="pink" fill-opacity="0.6" stroke="black" stroke-width="1" />
<path d="M-3.0035710471869494,7.373591680354423 L-2.0444698603142077,4.495176419262322 L-0.8917827322002331,3.819585300766448" fill="orange" fill-opacity="0.6" stroke="black" stroke-width="1" />
<path d="M-3.0035710471869494,-92.62640831964558 L-2.0444698603142077,-95.50482358073768 L-0.8917827322002331,-96.18041469923355" fill="brown" fill-opacity="0.6" stroke="black" stroke-width="1" />
<path d="M-2.0444698603142077,95.50482358073768 L-0.8917827322002331,96.18041469923355 L-0.14994878260440603,96.82280062472609" fill="blue" fill-opacity="0.6" stroke="black" stroke-width="1" />
<path d="M-2.0444698603142077,-4.4951764192623145 L-0.8917827322002331,-3.819585300766448 L-0.14994878260440603,-3.1771993752739145" fill="orange" fill-opacity="0.6" stroke="black" stroke-width="1" />
<path d="M-2.0444698603142077,4.495176419262322 L-0.8917827322002331,3.819585300766448 L-0.14994878260440603,3.177199375273915" fill="blue" fill-opacity="0.6" stroke="black" stroke-width="1" />
<path d="M-2.0444698603142077,-95.50482358073768 L-0.8917827322002331,-96.18041469923355 L-0.14994878260440603,-96.82280062472609" fill="purple" fill-opacity="0.6" stroke="black" stroke-width="1" />
<path d="M-0.8917827322002331,96.18041469923355 L-0.14994878260440603,96.82280062472609 L0.0,100.0" fill="orange" fill-opacity="0.6" stroke="black" stroke-width="1" />
<path d="M-0.8917827322002331,-3.819585300766448 L-0.14994878260440603,-3.1771993752739145 L0.0,-0.0" fill="red" fill-opacity="0.6" stroke="black" stroke-width="1" />
<path d="M-0.8917827322002331,3.819585300766448 L-0.14994878260440603,3.177199375273915 L0.0,-0.0" fill="black" fill-opacity="0.6" stroke="black" stroke-width="1" />
<path d="M-0.8917827322002331,-96.18041469923355 L-0.14994878260440603,-96.82280062472609 L0.0,-100.0" fill="brown" fill-opacity="0.6" stroke="black" stroke-width="1" />
<path d="M-77.0,-0.0 L-69.90003045158666,-14.552620776763964 L-50.0,-0.0" fill="blue" fill-opacity="0.6" stroke="black" stroke-width="1" />
<path d="M-77.0,-0.0 L-69.90003045158666,14.552620776763964 L-50.0,-0.0" fill="orange" fill-opacity="0.6" stroke="black" stroke-width="1" />
<path d="M-50.0,-6.0 L-57.44531426008993,-17.57136435567772 L-50.0,-19.0" fill="green" fill-opacity="0.6" stroke="black" stroke-width="1" />
<path d="M-50.0,6.0 L-57.44531426008993,17.57136435567772 L-50.0,19.0" fill="red" fill-opacity="0.6" stroke="black" stroke-width="1" />
<path d="M-50.0,-19.0 L-54.91456177048528,-19.990361851469896 L-50.0,-30.0" fill="brown" fill-opacity="0.6" stroke="black" stroke-width="1" />
<path d="M-50.0,19.0 L-54.91456177048528,19.990361851469896 L-50.0,30.0" fill="brown" fill-opacity="0.6" stroke="black" stroke-width="1" />
<path d="M-50.0,-40.0 L-50.63116548379615,-46.16751802293503 L-53.0,-47.0" fill="green" fill-opacity="0.6" stroke="black" stroke-width="1" />
<path d="M-50.0,40.0 L-50.63116548379615,46.16751802293503 L-53.0,47.0" fill="red" fill-opacity="0.6" stroke="black" stroke-width="1" />
<path d="M-50.63116548379615,-46.16751802293503 L-53.0,-47.0 L-73.0,-27.0" fill="red" fill-opacity="0.6" stroke="black" stroke-width="1" />
<path d="M-50.63116548379615,46.16751802293503 L-53.0,47.0 L-73.0,27.0" fill="black" fill-opacity="0.6" stroke="black" stroke-width="1" />
<path d="M-53.0,-47.0 L-73.0,-27.0 L-76.0,-24.0" fill="orange" fill-opacity="0.6" stroke="black" stroke-width="1" />
<path d="M-53.0,47.0 L-73.0,27.0 L-76.0,24.0" fill="orange" fill-opacity="0.6" stroke="black" stroke-width="1" />
<path d="M-73.0,-27.0 L-76.0,-24.0 L-81.15448813335225,-13.453745823653085" fill="pink" fill-opacity="0.6" stroke="black" stroke-width="1" />
<path d="M-73.0,27.0 L-76.0,24.0 L-81.15448813335225,13.453745823653085" fill="red" fill-opacity="0.6" stroke="black" stroke-width="1" />
<path d="M-76.0,-24.0 L-81.15448813335225,-13.453745823653085 L-81.93999901148864,-11.75556022471516" fill="purple" fill-opacity="0.6" stroke="black" stroke-width="1" />
<path d="M-76.0,24.0 L-81.15448813335225,13.453745823653085 L-81.93999901148864,11.75556022471516" fill="green" fill-opacity="0.6" stroke="black" stroke-width="1" />
<path d="M-81.15448813335225,-13.453745823653085 L-81.93999901148864,-11.75556022471516 L-82.00101909655659,-11.679286194799776" fill="blue" fill-opacity="0.6" stroke="black" stroke-width="1" />
<path d="M-81.15448813335225,13.453745823653085 L-81.93999901148864,11.75556022471516 L-82.00101909655659,11.679286194799776" fill="orange" fill-opacity="0.6" stroke="black" stroke-width="1" />
<path d="M-81.93999901148864,-11.75556022471516 L-82.00101909655659,-11.679286194799776 L-85.0,-15.0" fill="purple" fill-opacity="0.6" stroke="black" stroke-width="1" />
<path d="M-81.93999901148864,11.75556022471516 L-82.00101909655659,11.679286194799776 L-85.0,15.0" fill="brown" fill-opacity="0.6" stroke="black" stroke-width="1" />
<path d="M-82.00101909655659,-11.679286194799776 L-85.0,-15.0 L-86.49796638465219,-5.770806232313902" fill="brown" fill-opacity="0.6" stroke="black" stroke-width="1" />
<path d="M-82.00101909655659,11.679286194799776 L-85.0,15.0 L-86.49796638465219,5.770806232313902" fill="black" fill-opacity="0.6" stroke="black" stroke-width="1" />
<path d="M-85.0,-15.0 L-86.49796638465219,-5.770806232313902 L-88.03404716260938,-4.959218615671659" fill="yellow" fill-opacity="0.6" stroke="black" stroke-width="1" />
<path d="M-85.0,15.0 L-86.49796638465219,5.770806232313902 L-88.03404716260938,4.959218615671659" fill="black" fill-opacity="0.6" stroke="black" stroke-width="1" />
<path d="M-86.49796638465219,-5.770806232313902 L-88.03404716260938,-4.959218615671659 L-90.68031796217242,-4.51539821698088" fill="brown" fill-opacity="0.6" stroke="black" stroke-width="1" />
<path d="M-86.49796638465219,5.770806232313902 L-88.03404716260938,4.959218615671659 L-90.68031796217242,4.51539821698088" fill="pink" fill-opacity="0.6" stroke="black" stroke-width="1" />
<path d="M-88.03404716260938,-4.959218615671659 L-90.68031796217242,-4.51539821698088 L-90.68832638855166,-3.1441931203128757" fill="yellow" fill-opacity="0.6" stroke="black" stroke-width="1" />
<path d="M-88.03404716260938,4.959218615671659 L-90.68031796217242,4.51539821698088 L-90.68832638855166,3.1441931203128757" fill="orange" fill-opacity="0.6" stroke="black" stroke-width="1" />
<path d="M-90.68031796217242,-4.51539821698088 L-90.68832638855166,-3.1441931203128757 L-91.05864826328644,-3.0436515357170624" fill="black" fill-opacity="0.6" stroke="black" stroke-width="1" />
<path d="M-90.68031796217242,4.51539821698088 L-90.68832638855166,3.1441931203128757 L-91.05864826328644,3.0436515357170624" fill="orange" fill-opacity="0.6" stroke="black" stroke-width="1" />
<path d="M-90.68832638855166,-3.1441931203128757 L-91.05864826328644,-3.0436515357170624 L-92.62640831964558,-3.0035710471869494" fill="green" fill-opacity="0.6" stroke="black" stroke-width="1" />
<path d="M-90.68832638855166,3.1441931203128757 L-91.05864826328644,3.0436515357170624 L-92.62640831964558,3.0035710471869494" fill="yellow" fill-opacity="0.6" stroke="black" stroke-width="1" />
<path d="M-91.05864826328644,-3.0436515357170624 L-92.62640831964558,-3.0035710471869494 L-95.50482358073768,-2.0444698603142077" fill="orange" fill-opacity="0.6" stroke="black" stroke-width="1" />
<path d="M-91.05864826328644,3.0436515357170624 L-92.62640831964558,3.0035710471869494 L-95.50482358073768,2.0444698603142077" fill="pink" fill-opacity="0.6" stroke="black" stroke-width="1" />
<path d="M-92.62640831964558,-3.0035710471869494 L-95.50482358073768,-2.0444698603142077 L-96.18041469923355,-0.8917827322002331" fill="black" fill-opacity="0.6" stroke="black" stroke-width="1" />
<path d="M-92.62640831964558,3.0035710471869494 L-95.50482358073768,2.0444698603142077 L-96.18041469923355,0.8917827322002331" fill="orange" fill-opacity="0.6" stroke="black" stroke-width="1" />
<path d="M-95.50482358073768,-2.0444698603142077 L-96.18041469923355,-0.8917827322002331 L-96.82280062472609,-0.14994878260440603" fill="yellow" fill-opacity="0.6" stroke="black" stroke-width="1" />
<path d="M-95.50482358073768,2.0444698603142077 L-96.18041469923355,0.8917827322002331 L-96.82280062472609,0.14994878260440603" fill="blue" fill-opacity="0.6" stroke="black" stroke-width="1" />
<path d="M-96.18041469923355,-0.8917827322002331 L-96.82280062472609,-0.14994878260440603 L-100.0,-0.0" fill="black" fill-opacity="0.6" stroke="black" stroke-width="1" />
<path d="M-96.18041469923355,0.8917827322002331 L-96.82280062472609,0.14994878260440603 L-100.0,-0.0" fill="black" fill-opacity="0.6" stroke="black" stroke-width="1" />
</svg>