<?xml version="1.0" encoding="UTF-8"?>
<svg xmlns="http://www.w3.org/2000/svg" xmlns:xlink="http://www.w3.org/1999/xlink"
     width="250" height="250" viewBox="-125.0 -125.0 250 250">
<defs>
</defs>
<path d="M45.0,55.0 L30.0,70.0 L26.924188090216372,70.34837498624094" fill="black" fill-opacity="0.6" stroke="black" stroke-width="1" />
<path d="M45.0,-55.0 L30.0,-70.0 L26.924188090216372,-70.34837498624094" fill="pink" fill-opacity="0.6" stroke="black" stroke-width="1" />
<path d="M50.0,-34.0 L47.26632738791414,-35.04420194900102 L50.0,-47.0" fill="brown" fill-opacity="0.6" stroke="black" stroke-width="1" />
<path d="M50.0,34.0 L47.26632738791414,35.04420194900102 L50.0,47.0" fill="brown" fill-opacity="0.6" stroke="black" stroke-width="1" />
<path d="M50.0,50.0 L47.0,53.0 L45.0,55.0" fill="black" fill-opacity="0.6" stroke="black" stroke-width="1" />
<path d="M50.0,-50.0 L47.0,-53.0 L45.0,-55.0" fill="pink" fill-opacity="0.6" stroke="black" stroke-width="1" />
<path d="M47.0,53.0 L45.0,55.0 L30.0,70.0" fill="green" fill-opacity="0.6" stroke="black" stroke-width="1" />
<path d="M47.0,-53.0 L45.0,-55.0 L30.0,-70.0" fill="black" fill-opacity="0.6" stroke="black" stroke-width="1" />
<path d="M30.0,-30.0 L29.651625013759052,-26.924188090216372 L28.0,-28.0" fill="pink" fill-opacity="0.6" stroke="black" stroke-width="1" />
<path d="M30.0,30.0 L29.651625013759052,26.924188090216372 L28.0,28.0" fill="blue" fill-opacity="0.6" stroke="black" stroke-width="1" />
<path d="M26.924188090216372,70.34837498624094 L28.0,72.0 L20.0,80.0" fill="green" fill-opacity="0.6" stroke="black" stroke-width="1" />
<path d="M26.924188090216372,-70.34837498624094 L28.0,-72.0 L20.0,-80.0" fill="blue" fill-opacity="0.6" stroke="black" stroke-width="1" />
<path d="M28.0,72.0 L20.0,80.0 L17.09191238900661,82.78573351421231" fill="purple" fill-opacity="0.6" stroke="black" stroke-width="1" />
<path d="M28.0,-72.0 L20.0,-80.0 L17.09191238900661,-82.78573351421231" fill="orange" fill-opacity="0.6" stroke="black" stroke-width="1" />
<path d="M20.0,-20.0 L17.214266485787693,-17.09191238900661 L5.646701081691363,-3.5334178187342897" fill="green" fill-opacity="0.6" stroke="black" stroke-width="1" />
<path d="M20.0,20.0 L17.214266485787693,17.09191238900661 L5.646701081691363,3.5334178187342897" fill="purple" fill-opacity="0.6" stroke="black" stroke-width="1" />
<path d="M17.214266485787693,-17.09191238900661 L5.646701081691363,-3.5334178187342897 L2.4031633313919,-1.2933918050457889" fill="yellow" fill-opacity="0.6" stroke="black" stroke-width="1" />
<path d="M17.214266485787693,17.09191238900661 L5.646701081691363,3.5334178187342897 L2.4031633313919,1.2933918050457889" fill="yellow" fill-opacity="0.6" stroke="black" stroke-width="1" />
<path d="M5.646701081691363,-3.5334178187342897 L2.4031633313919,-1.2933918050457889 L0.32823400880656606,-0.19839482364406674" fill="yellow" fill-opacity="0.6" stroke="black" stroke-width="1" />
<path d="M5.646701081691363,3.5334178187342897 L2.4031633313919,1.2933918050457889 L0.32823400880656606,0.19839482364406674" fill="orange" fill-opacity="0.6" stroke="black" stroke-width="1" />
<path d="M2.4031633313919,-1.2933918050457889 L0.32823400880656606,-0.19839482364406674 L0.0,-0.0" fill="pink" fill-opacity="0.6" stroke="black" stroke-width="1" />
<path d="M2.4031633313919,1.2933918050457889 L0.32823400880656606,0.19839482364406674 L0.0,-0.0" fill="green" fill-opacity="0.6" stroke="black" stroke-width="1" />
<path d="M-45.0,55.0 L-30.0,70.0 L-26.924188090216372,70.34837498624094" fill="black" fill-opacity="0.6" stroke="black" stroke-width="1" />
<path d="M-45.0,-55.0 L-30.0,-70.0 L-26.924188090216372,-70.34837498624094" fill="black" fill-opacity="0.6" stroke="black" stroke-width="1" />
<path d="M-50.0,-34.0 L-47.26632738791414,-35.04420194900102 L-50.0,-47.0" fill="blue" fill-opacity="0.6" stroke="black" stroke-width="1" />
<path d="M-50.0,34.0 L-47.26632738791414,35.04420194900102 L-50.0,47.0" fill="brown" fill-opacity="0.6" stroke="black" stroke-width="1" />
<path d="M-50.0,50.0 L-47.0,53.0 L-45.0,55.0" fill="blue" fill-opacity="0.6" stroke="black" stroke-width="1" />
<path d="M-50.0,-50.0 L-47.0,-53.0 L-45.0,-55.0" fill="yellow" fill-opacity="0.6" stroke="black" stroke-width="1" />
<path d="M-47.0,53.0 L-45.0,55.0 L-30.0,70.0" fill="brown" fill-opacity="0.6" stroke="black" stroke-width="1" />
<path d="M-47.0,-53.0 L-45.0,-55.0 L-30.0,-70.0" fill="black" fill-opacity="0.6" stroke="black" stroke-width="1" />
<path d="M-30.0,-30.0 L-29.651625013759052,-26.924188090216372 L-28.0,-28.0" fill="green" fill-opacity="0.6" stroke="black" stroke-width="1" />
<path d="M-30.0,30.0 L-29.651625013759052,26.924188090216372 L-28.0,28.0" fill="red" fill-opacity="0.6" stroke="black" stroke-width="1" />
<path d="M-26.924188090216372,70.34837498624094 L-28.0,72.0 L-20.0,80.0" fill="blue" fill-opacity="0.6" stroke="black" stroke-width="1" />
<path d="M-26.924188090216372,-70.34837498624094 L-28.0,-72.0 L-20.0,-80.0" fill="pink" fill-opacity="0.6" stroke="black" stroke-width="1" />
<path d="M-28.0,72.0 L-20.0,80.0 L-17.09191238900661,82.78573351421231" fill="black" fill-opacity="0.6" stroke="black" stroke-width="1" />
<path d="M-28.0,-72.0 L-20.0,-80.0 L-17.09191238900661,-82.78573351421231" fill="black" fill-opacity="0.6" stroke="black" stroke-width="1" />
<path d="M-20.0,-20.0 L-17.214266485787693,-17.09191238900661 L-5.646701081691363,-3.5334178187342897" fill="green" fill-opacity="0.6" stroke="black" stroke-width="1" />
<path d="M-20.0,20.0 L-17.214266485787693,17.09191238900661 L-5.646701081691363,3.5334178187342897" fill="purple" fill-opacity="0.6" stroke="black" stroke-width="1" />
<path d="M-17.214266485787693,-17.09191238900661 L-5.646701081691363,-3.5334178187342897 L-2.4031633313919,-1.2933918050457889" fill="green" fill-opacity="0.6" stroke="black" stroke-width="1" />
<path d="M-17.214266485787693,17.09191238900661 L-5.646701081691363,3.5334178187342897 L-2.4031633313919,1.2933918050457889" fill="orange" fill-opacity="0.6" stroke="black" stroke-width="1" />
<path d="M-5.646701081691363,-3.5334178187342897 L-2.4031633313919,-1.2933918050457889 L-0.32823400880656606,-0.19839482364406674" fill="red" fill-opacity="0.6" stroke="black" stroke-width="1" />
<path d="M-5.646701081691363,3.5334178187342897 L-2.4031633313919,1.2933918050457889 L-0.32823400880656606,0.19839482364406674" fill="brown" fill-opacity="0.6" stroke="black" stroke-width="1" />
<path d="M-2.4031633313919,-1.2933918050457889 L-0.32823400880656606,-0.19839482364406674 L0.0,-0.0" fill="black" fill-opacity="0.6" stroke="black" stroke-width="1" />
<path d="M-2.4031633313919,1.2933918050457889 L-0.32823400880656606,0.19839482364406674 L0.0,-0.0" fill="brown" fill-opacity="0.6" stroke="black" stroke-width="1" />
<path d="M55.0,45.0 L70.0,30.0 L70.34837498624094,26.924188090216372" fill="red" fill-opacity="0.6" stroke="black" stroke-width="1" />
<path d="M55.0,-45.0 L70.0,-30.0 L70.34837498624094,-26.924188090216372" fill="red" fill-opacity="0.6" stroke="black" stroke-width="1" />
<path d="M50.0,34.0 L52.73367261208586,35.04420194900102 L50.0,47.0" fill="pink" fill-opacity="0.6" stroke="black" stroke-width="1" />
<path d="M50.0,-34.0 L52.73367261208586,-35.04420194900102 L50.0,-47.0" fill="blue" fill-opacity="0.6" stroke="black" stroke-width="1" />
<path d="M50.0,50.0 L53.0,47.0 L55.0,45.0" fill="brown" fill-opacity="0.6" stroke="black" stroke-width="1" />
<path d="M50.0,-50.0 L53.0,-47.0 L55.0,-45.0" fill="red" fill-opacity="0.6" stroke="black" stroke-width="1" />
<path d="M53.0,47.0 L55.0,45.0 L70.0,30.0" fill="blue" fill-opacity="0.6" stroke="black" stroke-width="1" />
<path d="M53.0,-47.0 L55.0,-45.0 L70.0,-30.0" fill="red" fill-opacity="0.6" stroke="black" stroke-width="1" />
<path d="M70.0,30.0 L70.34837498624094,26.924188090216372 L72.0,28.0" fill="red" fill-opacity="0.6" stroke="black" stroke-width="1" />
<path d="M70.0,-30.0 L70.34837498624094,-26.924188090216372 L72.0,-28.0" fill="brown" fill-opacity="0.6" stroke="black" stroke-width="1" />
<path d="M70.34837498624094,26.924188090216372 L72.0,28.0 L80.0,20.0" fill="purple" fill-opacity="0.6" stroke="black" stroke-width="1" />
<path d="M70.34837498624094,-26.924188090216372 L72.0,-28.0 L80.0,-20.0" fill="orange" fill-opacity="0.6" stroke="black" stroke-width="1" />
<path d="M72.0,28.0 L80.0,20.0 L82.78573351421231,17.09191238900661" fill="orange" fill-opacity="0.6" stroke="black" stroke-width="1" />
<path d="M72.0,-28.0 L80.0,-20.0 L82.78573351421231,-17.09191238900661" fill="brown" fill-opacity="0.6" stroke="black" stroke-width="1" />
<path d="M80.0,20.0 L82.78573351421231,17.09191238900661 L94.35329891830864,3.5334178187342897" fill="red" fill-opacity="0.6" stroke="black" stroke-width="1" />
<path d="M80.0,-20.0 L82.78573351421231,-17.09191238900661 L94.35329891830864,-3.5334178187342897" fill="green" fill-opacity="0.6" stroke="black" stroke-width="1" />
<path d="M82.78573351421231,17.09191238900661 L94.35329891830864,3.5334178187342897 L97.59683666860809,1.2933918050457889" fill="yellow" fill-opacity="0.6" stroke="black" stroke-width="1" />
<path d="M82.78573351421231,-17.09191238900661 L94.35329891830864,-3.5334178187342897 L97.59683666860809,-1.2933918050457889" fill="green" fill-opacity="0.6" stroke="black" stroke-width="1" />
<path d="M94.35329891830864,3.5334178187342897 L97.59683666860809,1.2933918050457889 L99.67176599119344,0.19839482364406674" fill="black" fill-opacity="0.6" stroke="black" stroke-width="1" />
<path d="M94.35329891830864,-3.5334178187342897 L97.59683666860809,-1.2933918050457889 L99.67176599119344,-0.19839482364406674" fill="yellow" fill-opacity="0.6" stroke="black" stroke-width="1" />
<path d="M97.59683666860809,1.2933918050457889 L99.67176599119344,0.19839482364406674 L100.0,-0.0" fill="yellow" fill-opacity="0.6" stroke="black" stroke-width="1" />
<path d="M97.59683666860809,-1.2933918050457889 L99.67176599119344,-0.19839482364406674 L100.0,-0.0" fill="green" fill-opacity="0.6" stroke="black" stroke-width="1" />
<path d="M34.0,-50.0 L35.04420194900102,-47.26632738791414 L47.0,-50.0" fill="yellow" fill-opacity="0.6" stroke="black" stroke-width="1" />
<path d="M34.0,50.0 L35.04420194900102,47.26632738791414 L47.0,50.0" fill="pink" fill-opacity="0.6" stroke="black" stroke-width="1" />
<path d="M34.0,50.0 L35.04420194900102,52.73367261208586 L47.0,50.0" fill="blue" fill-opacity="0.6" stroke="black" stroke-width="1" />
<path d="M34.0,-50.0 L35.04420194900102,-52.73367261208586 L47.0,-50.0" fill="green" fill-opacity="0.6" stroke="black" stroke-width="1" />
<path d="M30.0,-30.0 L26.924188090216372,-29.651625013759052 L28.0,-28.0" fill="green" fill-opacity="0.6" stroke="black" stroke-width="1" />
<path d="M30.0,30.0 L26.924188090216372,29.651625013759052 L28.0,28.0" fill="purple" fill-opacity="0.6" stroke="black" stroke-width="1" />
<path d="M30.0,70.0 L26.924188090216372,70.34837498624094 L28.0,72.0" fill="brown" fill-opacity="0.6" stroke="black" stroke-width="1" />
<path d="M30.0,-70.0 L26.924188090216372,-70.34837498624094 L28.0,-72.0" fill="orange" fill-opacity="0.6" stroke="black" stroke-width="1" />
<path d="M20.0,-20.0 L17.09191238900661,-17.214266485787693 L3.5334178187342897,-5.646701081691363" fill="brown" fill-opacity="0.6" stroke="black" stroke-width="1" />
<path d="M20.0,20.0 L17.09191238900661,17.214266485787693 L3.5334178187342897,5.646701081691363" fill="brown" fill-opacity="0.6" stroke="black" stroke-width="1" />
<path d="M20.0,80.0 L17.09191238900661,82.78573351421231 L3.5334178187342897,94.35329891830864" fill="red" fill-opacity="0.6" stroke="black" stroke-width="1" />
<path d="M20.0,-80.0 L17.09191238900661,-82.78573351421231 L3.5334178187342897,-94.35329891830864" fill="blue" fill-opacity="0.6" stroke="black" stroke-width="1" />
<path d="M17.09191238900661,-17.214266485787693 L3.5334178187342897,-5.646701081691363 L1.2933918050457889,-2.4031633313919" fill="red" fill-opacity="0.6" stroke="black" stroke-width="1" />
<path d="M17.09191238900661,17.214266485787693 L3.5334178187342897,5.646701081691363 L1.2933918050457889,2.4031633313919" fill="pink" fill-opacity="0.6" stroke="black" stroke-width="1" />
<path d="M17.09191238900661,82.78573351421231 L3.5334178187342897,94.35329891830864 L1.2933918050457889,97.59683666860809" fill="pink" fill-opacity="0.6" stroke="black" stroke-width="1" />
<path d="M17.09191238900661,-82.78573351421231 L3.5334178187342897,-94.35329891830864 L1.2933918050457889,-97.59683666860809" fill="orange" fill-opacity="0.6" stroke="black" stroke-width="1" />
<path d="M3.5334178187342897,-5.646701081691363 L1.2933918050457889,-2.4031633313919 L0.19839482364406674,-0.32823400880656606" fill="purple" fill-opacity="0.6" stroke="black" stroke-width="1" />
<path d="M3.5334178187342897,5.646701081691363 L1.2933918050457889,2.4031633313919 L0.19839482364406674,0.32823400880656606" fill="yellow" fill-opacity="0.6" stroke="black" stroke-width="1" />
<path d="M3.5334178187342897,94.35329891830864 L1.2933918050457889,97.59683666860809 L0.19839482364406674,99.67176599119344" fill="black" fill-opacity="0.6" stroke="black" stroke-width="1" />
<path d="M3.5334178187342897,-94.35329891830864 L1.2933918050457889,-97.59683666860809 L0.19839482364406674,-99.67176599119344" fill="red" fill-opacity="0.6" stroke="black" stroke-width="1" />
<path d="M1.2933918050457889,-2.4031633313919 L0.19839482364406674,-0.32823400880656606 L0.0,-0.0" fill="green" fill-opacity="0.6" stroke="black" stroke-width="1" />
<path d="M1.2933918050457889,2.4031633313919 L0.19839482364406674,0.32823400880656606 L0.0,-0.0" fill="orange" fill-opacity="0.6" stroke="black" stroke-width="1" />
<path d="M1.2933918050457889,97.59683666860809 L0.19839482364406674,99.67176599119344 L0.0,100.0" fill="brown" fill-opacity="0.6" stroke="black" stroke-width="1" />
<path d="M1.2933918050457889,-97.59683666860809 L0.19839482364406674,-99.67176599119344 L0.0,-100.0" fill="brown" fill-opacity="0.6" stroke="black" stroke-width="1" />
<path d="M-34.0,50.0 L-35.04420194900102,52.73367261208586 L-47.0,50.0" fill="yellow" fill-opacity="0.6" stroke="black" stroke-width="1" />
<path d="M-34.0,-50.0 L-35.04420194900102,-47.26632738791414 L-47.0,-50.0" fill="purple" fill-opacity="0.6" stroke="black" stroke-width="1" />
<path d="M-34.0,50.0 L-35.04420194900102,47.26632738791414 L-47.0,50.0" fill="purple" fill-opacity="0.6" stroke="black" stroke-width="1" />
<path d="M-34.0,-50.0 L-35.04420194900102,-52.73367261208586 L-47.0,-50.0" fill="black" fill-opacity="0.6" stroke="black" stroke-width="1" />
<path d="M-30.0,70.0 L-26.924188090216372,70.34837498624094 L-28.0,72.0" fill="green" fill-opacity="0.6" stroke="black" stroke-width="1" />
<path d="M-30.0,-30.0 L-26.924188090216372,-29.651625013759052 L-28.0,-28.0" fill="red" fill-opacity="0.6" stroke="black" stroke-width="1" />
<path d="M-30.0,30.0 L-26.924188090216372,29.65162501375906 L-28.0,28.0" fill="yellow" fill-opacity="0.6" stroke="black" stroke-width="1" />
<path d="M-30.0,-70.0 L-26.924188090216372,-70.34837498624094 L-28.0,-72.0" fill="brown" fill-opacity="0.6" stroke="black" stroke-width="1" />
<path d="M-20.0,80.0 L-17.09191238900661,82.78573351421231 L-3.5334178187342897,94.35329891830864" fill="orange" fill-opacity="0.6" stroke="black" stroke-width="1" />
<path d="M-20.0,-20.0 L-17.09191238900661,-17.214266485787693 L-3.5334178187342897,-5.646701081691363" fill="blue" fill-opacity="0.6" stroke="black" stroke-width="1" />
<path d="M-20.0,20.0 L-17.09191238900661,17.21426648578769 L-3.5334178187342897,5.646701081691361" fill="red" fill-opacity="0.6" stroke="black" stroke-width="1" />
<path d="M-20.0,-80.0 L-17.09191238900661,-82.78573351421231 L-3.5334178187342897,-94.35329891830864" fill="blue" fill-opacity="0.6" stroke="black" stroke-width="1" />
<path d="M-17.09191238900661,82.78573351421231 L-3.5334178187342897,94.35329891830864 L-1.2933918050457889,97.5968366686081" fill="green" fill-opacity="0.6" stroke="black" stroke-width="1" />
<path d="M-17.09191238900661,-17.214266485787693 L-3.5334178187342897,-5.646701081691363 L-1.2933918050457889,-2.4031633313919" fill="pink" fill-opacity="0.6" stroke="black" stroke-width="1" />
<path d="M-17.09191238900661,17.21426648578769 L-3.5334178187342897,5.646701081691361 L-1.2933918050457889,2.4031633313918945" fill="red" fill-opacity="0.6" stroke="black" stroke-width="1" />
<path d="M-17.09191238900661,-82.78573351421231 L-3.5334178187342897,-94.35329891830864 L-1.2933918050457889,-97.59683666860809" fill="green" fill-opacity="0.6" stroke="black" stroke-width="1" />
<path d="M-3.5334178187342897,94.35329891830864 L-1.2933918050457889,97.5968366686081 L-0.19839482364406674,99.67176599119344" fill="purple" fill-opacity="0.6" stroke="black" stroke-width="1" />
<path d="M-3.5334178187342897,-5.646701081691363 L-1.2933918050457889,-2.4031633313919 L-0.19839482364406674,-0.32823400880656606" fill="yellow" fill-opacity="0.6" stroke="black" stroke-width="1" />
<path d="M-3.5334178187342897,5.646701081691361 L-1.2933918050457889,2.4031633313918945 L-0.19839482364406674,0.32823400880656095" fill="yellow" fill-opacity="0.6" stroke="black" stroke-width="1" />
<path d="M-3.5334178187342897,-94.35329891830864 L-1.2933918050457889,-97.59683666860809 L-0.19839482364406674,-99.67176599119344" fill="orange" fill-opacity="0.6" stroke="black" stroke-width="1" />
<path d="M-1.2933918050457889,97.5968366686081 L-0.19839482364406674,99.67176599119344 L0.0,100.0" fill="brown" fill-opacity="0.6" stroke="black" stroke-width="1" />
<path d="M-1.2933918050457889,-2.4031633313919 L-0.19839482364406674,-0.32823400880656606 L0.0,-0.0" fill="brown" fill-opacity="0.6" stroke="black" stroke-width="1" />
<path d="M-1.2933918050457889,2.4031633313918945 L-0.19839482364406674,0.32823400880656095 L0.0,-0.0" fill="pink" fill-opacity="0.6" stroke="black" stroke-width="1" />
<path d="M-1.2933918050457889,-97.59683666860809 L-0.19839482364406674,-99.67176599119344 L0.0,-100.0" fill="black" fill-opacity="0.6" stroke="black" stroke-width="1" />
<path d="M-55.0,-45.0 L-70.0,-30.0 L-70.34837498624094,-26.924188090216372" fill="green" fill-opacity="0.6" stroke="black" stroke-width="1" />
<path d="M-55.0,45.0 L-70.0,30.0 L-70.34837498624094,26.924188090216372" fill="black" fill-opacity="0.6" stroke="black" stroke-width="1" />
<path d="M-50.0,-34.0 L-52.73367261208586,-35.04420194900102 L-50.0,-47.0" fill="yellow" fill-opacity="0.6" stroke="black" stroke-width="1" />
<path d="M-50.0,34.0 L-52.73367261208586,35.04420194900102 L-50.0,47.0" fill="yellow" fill-opacity="0.6" stroke="black" stroke-width="1" />
<path d="M-50.0,-50.0 L-53.0,-47.0 L-55.0,-45.0" fill="purple" fill-opacity="0.6" stroke="black" stroke-width="1" />
<path d="M-50.0,50.0 L-53.0,47.0 L-55.0,45.0" fill="yellow" fill-opacity="0.6" stroke="black" stroke-width="1" />
<path d="M-53.0,-47.0 L-55.0,-45.0 L-70.0,-30.0" fill="blue" fill-opacity="0.6" stroke="black" stroke-width="1" />
<path d="M-53.0,47.0 L-55.0,45.0 L-70.0,30.0" fill="red" fill-opacity="0.6" stroke="black" stroke-width="1" />
<path d="M-70.0,-30.0 L-70.34837498624094,-26.924188090216372 L-72.0,-28.0" fill="pink" fill-opacity="0.6" stroke="black" stroke-width="1" />
<path d="M-70.0,30.0 L-70.34837498624094,26.924188090216372 L-72.0,28.0" fill="red" fill-opacity="0.6" stroke="black" stroke-width="1" />
<path d="M-70.34837498624094,-26.924188090216372 L-72.0,-28.0 L-80.0,-20.0" fill="blue" fill-opacity="0.6" stroke="black" stroke-width="1" />
<path d="M-70.34837498624094,26.924188090216372 L-72.0,28.0 L-80.0,20.0" fill="green" fill-opacity="0.6" stroke="black" stroke-width="1" />
<path d="M-72.0,-28.0 L-80.0,-20.0 L-82.78573351421231,-17.09191238900661" fill="green" fill-opacity="0.6" stroke="black" stroke-width="1" />
<path d="M-72.0,28.0 L-80.0,20.0 L-82.78573351421231,17.09191238900661" fill="green" fill-opacity="0.6" stroke="black" stroke-width="1" />
<path d="M-80.0,-20.0 L-82.78573351421231,-17.09191238900661 L-94.35329891830864,-3.5334178187342897" fill="purple" fill-opacity="0.6" stroke="black" stroke-width="1" />
<path d="M-80.0,20.0 L-82.78573351421231,17.09191238900661 L-94.35329891830864,3.5334178187342897" fill="yellow" fill-opacity="0.6" stroke="black" stroke-width="1" />
<path d="M-82.78573351421231,-17.09191238900661 L-94.35329891830864,-3.5334178187342897 L-97.59683666860809,-1.2933918050457889" fill="green" fill-opacity="0.6" stroke="black" stroke-width="1" />
<path d="M-82.78573351421231,17.09191238900661 L-94.35329891830864,3.5334178187342897 L-97.59683666860809,1.2933918050457889" fill="purple" fill-opacity="0.6" stroke="black" stroke-width="1" />
<path d="M-94.35329891830864,-3.5334178187342897 L-97.59683666860809,-1.2933918050457889 L-99.67176599119344,-0.19839482364406674" fill="brown" fill-opacity="0.6" stroke="black" stroke-width="1" />
<path d="M-94.35329891830864,3.5334178187342897 L-97.59683666860809,1.2933918050457889 L-99.67176599119344,0.19839482364406674" fill="orange" fill-opacity="0.6" stroke="black" stroke-width="1" />
<path d="M-97.59683666860809,-1.2933918050457889 L-99.67176599119344,-0.19839482364406674 L-100.0,-0.0" fill="brown" fill-opacity="0.6" stroke="black" stroke-width="1" />
<path d="M-97.59683666860809,1.2933918050457889 L-99.67176599119344,0.19839482364406674 L-100.0,-0.0" fill="blue" fill-opacity="0.6" stroke="black" stroke-width="1" />
</svg>