<?xml version="1.0" encoding="UTF-8"?>
<svg xmlns="http://www.w3.org/2000/svg" xmlns:xlink="http://www.w3.org/1999/xlink"
     width="250" height="250" viewBox="-125.0 -125.0 250 250">
<defs>
</defs>
<path d="M47.0,50.0 L38.0,62.0 L23.0,77.0" fill-opacity="0" stroke="black" stroke-width="1" />
<path d="M47.0,-50.0 L38.0,-62.0 L23.0,-77.0" fill-opacity="0" stroke="black" stroke-width="1" />
<path d="M50.0,-13.0 L37.39374991914656,-18.773417724254582 L50.0,-41.0" fill-opacity="0" stroke="black" stroke-width="1" />
<path d="M50.0,13.0 L37.39374991914656,18.773417724254582 L50.0,41.0" fill-opacity="0" stroke="black" stroke-width="1" />
<path d="M38.0,62.0 L23.0,77.0 L22.0,78.0" fill-opacity="0" stroke="black" stroke-width="1" />
<path d="M38.0,-62.0 L23.0,-77.0 L22.0,-78.0" fill-opacity="0" stroke="black" stroke-width="1" />
<path d="M23.0,77.0 L22.0,78.0 L12.0,88.0" fill-opacity="0" stroke="black" stroke-width="1" />
<path d="M23.0,-77.0 L22.0,-78.0 L12.0,-88.0" fill-opacity="0" stroke="black" stroke-width="1" />
<path d="M22.0,78.0 L12.0,88.0 L4.0,96.0" fill-opacity="0" stroke="black" stroke-width="1" />
<path d="M22.0,-78.0 L12.0,-88.0 L4.0,-96.0" fill-opacity="0" stroke="black" stroke-width="1" />
<path d="M12.0,88.0 L4.0,96.0 L0.0,100.0" fill-opacity="0" stroke="black" stroke-width="1" />
<path d="M12.0,-88.0 L4.0,-96.0 L0.0,-100.0" fill-opacity="0" stroke="black" stroke-width="1" />
<path d="M-47.0,50.0 L-38.0,62.0 L-23.0,77.0" fill-opacity="0" stroke="black" stroke-width="1" />
<path d="M-47.0,-50.0 L-38.0,-62.0 L-23.0,-77.0" fill-opacity="0" stroke="black" stroke-width="1" />
<path d="M-50.0,-13.0 L-37.39374991914656,-18.773417724254582 L-50.0,-41.0" fill-opacity="0" stroke="black" stroke-width="1" />
<path d="M-50.0,13.0 L-37.39374991914656,18.773417724254582 L-50.0,41.0" fill-opacity="0" stroke="black" stroke-width="1" />
<path d="M-38.0,62.0 L-23.0,77.0 L-22.0,78.0" fill-opacity="0" stroke="black" stroke-width="1" />
<path d="M-38.0,-62.0 L-23.0,-77.0 L-22.0,-78.0" fill-opacity="0" stroke="black" stroke-width="1" />
<path d="M-23.0,77.0 L-22.0,78.0 L-12.0,88.0" fill-opacity="0" stroke="black" stroke-width="1" />
<path d="M-23.0,-77.0 L-22.0,-78.0 L-12.0,-88.0" fill-opacity="0" stroke="black" stroke-width="1" />
<path d="M-22.0,78.0 L-12.0,88.0 L-4.0,96.0" fill-opacity="0" stroke="black" stroke-width="1" />
<path d="M-22.0,-78.0 L-12.0,-88.0 L-4.0,-96.0" fill-opacity="0" stroke="black" stroke-width="1" />
<path d="M-12.0,88.0 L-4.0,96.0 L0.0,100.0" fill-opacity="0" stroke="black" stroke-width="1" />
<path d="M-12.0,-88.0 L-4.0,-96.0 L0.0,-100.0" fill-opacity="0" stroke="black" stroke-width="1" />
<path d="M50.0,47.0 L62.0,38.0 L77.0,23.0" fill-opacity="0" stroke="black" stroke-width="1" />
<path d="M50.0,-47.0 L62.0,-38.0 L77.0,-23.0" fill-opacity="0" stroke="black" stroke-width="1" />
<path d="M50.0,13.0 L62.60625008085344,18.773417724254582 L50.0,41.0" fill-opacity="0" stroke="black" stroke-width="1" />
<path d="M50.0,-13.0 L62.60625008085344,-18.773417724254582 L50.0,-41.0" fill-opacity="0" stroke="black" stroke-width="1" />
<path d="M62.0,38.0 L77.0,23.0 L78.0,22.0" fill-opacity="0" stroke="black" stroke-width="1" />
<path d="M62.0,-38.0 L77.0,-23.0 L78.0,-22.0" fill-opacity="0" stroke="black" stroke-width="1" />
<path d="M77.0,23.0 L78.0,22.0 L88.0,12.0" fill-opacity="0" stroke="black" stroke-width="1" />
<path d="M77.0,-23.0 L78.0,-22.0 L88.0,-12.0" fill-opacity="0" stroke="black" stroke-width="1" />
<path d="M78.0,22.0 L88.0,12.0 L96.0,4.0" fill-opacity="0" stroke="black" stroke-width="1" />
<path d="M78.0,-22.0 L88.0,-12.0 L96.0,-4.0" fill-opacity="0" stroke="black" stroke-width="1" />
<path d="M88.0,12.0 L96.0,4.0 L100.0,-0.0" fill-opacity="0" stroke="black" stroke-width="1" />
<path d="M88.0,-12.0 L96.0,-4.0 L100.0,-0.0" fill-opacity="0" stroke="black" stroke-width="1" />
<path d="M13.0,-50.0 L18.773417724254582,-37.39374991914656 L41.0,-50.0" fill-opacity="0" stroke="black" stroke-width="1" />
<path d="M13.0,50.0 L18.773417724254582,37.39374991914656 L41.0,50.0" fill-opacity="0" stroke="black" stroke-width="1" />
<path d="M13.0,50.0 L18.773417724254582,62.60625008085344 L41.0,50.0" fill-opacity="0" stroke="black" stroke-width="1" />
<path d="M13.0,-50.0 L18.773417724254582,-62.60625008085344 L41.0,-50.0" fill-opacity="0" stroke="black" stroke-width="1" />
<path d="M-13.0,50.0 L-18.773417724254582,62.60625008085344 L-41.0,50.0" fill-opacity="0" stroke="black" stroke-width="1" />
<path d="M-13.0,-50.0 L-18.773417724254582,-37.39374991914656 L-41.0,-50.0" fill-opacity="0" stroke="black" stroke-width="1" />
<path d="M-13.0,50.0 L-18.773417724254582,37.39374991914656 L-41.0,50.0" fill-opacity="0" stroke="black" stroke-width="1" />
<path d="M-13.0,-50.0 L-18.773417724254582,-62.60625008085344 L-41.0,-50.0" fill-opacity="0" stroke="black" stroke-width="1" />
<path d="M-50.0,-47.0 L-62.0,-38.0 L-77.0,-23.0" fill-opacity="0" stroke="black" stroke-width="1" />
<path d="M-50.0,47.0 L-62.0,38.0 L-77.0,23.0" fill-opacity="0" stroke="black" stroke-width="1" />
<path d="M-50.0,-13.0 L-62.60625008085344,-18.773417724254582 L-50.0,-41.0" fill-opacity="0" stroke="black" stroke-width="1" />
<path d="M-50.0,13.0 L-62.60625008085344,18.773417724254582 L-50.0,41.0" fill-opacity="0" stroke="black" stroke-width="1" />
<path d="M-62.0,-38.0 L-77.0,-23.0 L-78.0,-22.0" fill-opacity="0" stroke="black" stroke-width="1" />
<path d="M-62.0,38.0 L-77.0,23.0 L-78.0,22.0" fill-opacity="0" stroke="black" stroke-width="1" />
<path d="M-77.0,-23.0 L-78.0,-22.0 L-88.0,-12.0" fill-opacity="0" stroke="black" stroke-width="1" />
<path d="M-77.0,23.0 L-78.0,22.0 L-88.0,12.0" fill-opacity="0" stroke="black" stroke-width="1" />
<path d="M-78.0,-22.0 L-88.0,-12.0 L-96.0,-4.0" fill-opacity="0" stroke="black" stroke-width="1" />
<path d="M-78.0,22.0 L-88.0,12.0 L-96.0,4.0" fill-opacity="0" stroke="black" stroke-width="1" />
<path d="M-88.0,-12.0 L-96.0,-4.0 L-100.0,-0.0" fill-opacity="0" stroke="black" stroke-width="1" />
<path d="M-88.0,12.0 L-96.0,4.0 L-100.0,-0.0" fill-opacity="0" stroke="black" stroke-width="1" />
<circle cx="0" cy="-97" r="8" stroke-dasharray="39.653880605311166 10.611601852125524" stroke-dashoffset="-17.59291886010284" stroke="black" stroke-width="1" fill="white" fill-opacity="1" />
<circle cx="0" cy="-97" r="4" stroke="black" stroke-width="1" fill="white" fill-opacity="1" />
</svg>