<?xml version="1.0" encoding="UTF-8"?>
<svg xmlns="http://www.w3.org/2000/svg" xmlns:xlink="http://www.w3.org/1999/xlink"
     width="250" height="250" viewBox="-125.0 -125.0 250 250">
<defs>
</defs>
<path d="M23.0,-0.0 L28.62088248993949,-17.66516300537909 L42.0,-0.0" fill-opacity="0" stroke="black" stroke-width="1" />
<path d="M23.0,-0.0 L28.62088248993949,17.66516300537909 L42.0,-0.0" fill-opacity="0" stroke="black" stroke-width="1" />
<path d="M50.0,-9.0 L47.27900283026917,-18.92593498075733 L50.0,-29.0" fill-opacity="0" stroke="black" stroke-width="1" />
<path d="M50.0,9.0 L47.27900283026917,18.92593498075733 L50.0,29.0" fill-opacity="0" stroke="black" stroke-width="1" />
<path d="M48.0,50.0 L45.0,55.0 L33.0,67.0" fill-opacity="0" stroke="black" stroke-width="1" />
<path d="M48.0,-50.0 L45.0,-55.0 L33.0,-67.0" fill-opacity="0" stroke="black" stroke-width="1" />
<path d="M45.0,55.0 L33.0,67.0 L22.0,78.0" fill-opacity="0" stroke="black" stroke-width="1" />
<path d="M45.0,-55.0 L33.0,-67.0 L22.0,-78.0" fill-opacity="0" stroke="black" stroke-width="1" />
<path d="M33.0,67.0 L22.0,78.0 L14.156980754792755,81.37816088783029" fill-opacity="0" stroke="black" stroke-width="1" />
<path d="M33.0,-67.0 L22.0,-78.0 L14.156980754792755,-81.37816088783029" fill-opacity="0" stroke="black" stroke-width="1" />
<path d="M22.0,-22.0 L18.621839112169702,-14.156980754792755 L14.672729036718126,-7.698849977620926" fill-opacity="0" stroke="black" stroke-width="1" />
<path d="M22.0,22.0 L18.621839112169702,14.156980754792755 L14.672729036718126,7.698849977620926" fill-opacity="0" stroke="black" stroke-width="1" />
<path d="M18.621839112169702,-14.156980754792755 L14.672729036718126,-7.698849977620926 L12.191352652956228,-4.855003849723912" fill-opacity="0" stroke="black" stroke-width="1" />
<path d="M18.621839112169702,14.156980754792755 L14.672729036718126,7.698849977620926 L12.191352652956228,4.855003849723912" fill-opacity="0" stroke="black" stroke-width="1" />
<path d="M14.672729036718126,-7.698849977620926 L12.191352652956228,-4.855003849723912 L11.0,-11.0" fill-opacity="0" stroke="black" stroke-width="1" />
<path d="M14.672729036718126,7.698849977620926 L12.191352652956228,4.855003849723912 L11.0,11.0" fill-opacity="0" stroke="black" stroke-width="1" />
<path d="M4.855003849723912,87.80864734704377 L11.0,89.0 L4.653959074713444,89.78826224782026" fill-opacity="0" stroke="black" stroke-width="1" />
<path d="M4.855003849723912,-87.80864734704377 L11.0,-89.0 L4.653959074713444,-89.78826224782026" fill-opacity="0" stroke="black" stroke-width="1" />
<path d="M11.0,-11.0 L10.21173775217974,-4.653959074713444 L5.801364183211044,-3.674162469509966" fill-opacity="0" stroke="black" stroke-width="1" />
<path d="M11.0,11.0 L10.21173775217974,4.653959074713444 L5.801364183211044,3.674162469509966" fill-opacity="0" stroke="black" stroke-width="1" />
<path d="M10.21173775217974,-4.653959074713444 L5.801364183211044,-3.674162469509966 L3.0,-3.0" fill-opacity="0" stroke="black" stroke-width="1" />
<path d="M10.21173775217974,4.653959074713444 L5.801364183211044,3.674162469509966 L3.0,3.0" fill-opacity="0" stroke="black" stroke-width="1" />
<path d="M3.674162469509966,94.19863581678896 L3.0,97.0 L1.0,99.0" fill-opacity="0" stroke="black" stroke-width="1" />
<path d="M3.674162469509966,-94.19863581678896 L3.0,-97.0 L1.0,-99.0" fill-opacity="0" stroke="black" stroke-width="1" />
<path d="M3.0,97.0 L1.0,99.0 L0.3549448545977439,99.01051723452088" fill-opacity="0" stroke="black" stroke-width="1" />
<path d="M3.0,-97.0 L1.0,-99.0 L0.3549448545977439,-99.01051723452088" fill-opacity="0" stroke="black" stroke-width="1" />
<path d="M1.0,-1.0 L0.9894827654791216,-0.3549448545977439 L0.0,-0.0" fill-opacity="0" stroke="black" stroke-width="1" />
<path d="M1.0,1.0 L0.9894827654791216,0.3549448545977439 L0.0,-0.0" fill-opacity="0" stroke="black" stroke-width="1" />
<path d="M-23.0,-0.0 L-28.62088248993949,-17.66516300537909 L-42.0,-0.0" fill-opacity="0" stroke="black" stroke-width="1" />
<path d="M-23.0,-0.0 L-28.62088248993949,17.66516300537909 L-42.0,-0.0" fill-opacity="0" stroke="black" stroke-width="1" />
<path d="M-50.0,-9.0 L-47.27900283026917,-18.92593498075733 L-50.0,-29.0" fill-opacity="0" stroke="black" stroke-width="1" />
<path d="M-50.0,9.0 L-47.27900283026917,18.92593498075733 L-50.0,29.0" fill-opacity="0" stroke="black" stroke-width="1" />
<path d="M-48.0,50.0 L-45.0,55.0 L-33.0,67.0" fill-opacity="0" stroke="black" stroke-width="1" />
<path d="M-48.0,-50.0 L-45.0,-55.0 L-33.0,-67.0" fill-opacity="0" stroke="black" stroke-width="1" />
<path d="M-45.0,55.0 L-33.0,67.0 L-22.0,78.0" fill-opacity="0" stroke="black" stroke-width="1" />
<path d="M-45.0,-55.0 L-33.0,-67.0 L-22.0,-78.0" fill-opacity="0" stroke="black" stroke-width="1" />
<path d="M-33.0,67.0 L-22.0,78.0 L-14.156980754792755,81.37816088783029" fill-opacity="0" stroke="black" stroke-width="1" />
<path d="M-33.0,-67.0 L-22.0,-78.0 L-14.156980754792755,-81.37816088783029" fill-opacity="0" stroke="black" stroke-width="1" />
<path d="M-22.0,-22.0 L-18.621839112169702,-14.156980754792755 L-14.672729036718126,-7.698849977620926" fill-opacity="0" stroke="black" stroke-width="1" />
<path d="M-22.0,22.0 L-18.621839112169702,14.156980754792755 L-14.672729036718126,7.698849977620926" fill-opacity="0" stroke="black" stroke-width="1" />
<path d="M-18.621839112169702,-14.156980754792755 L-14.672729036718126,-7.698849977620926 L-12.191352652956228,-4.855003849723912" fill-opacity="0" stroke="black" stroke-width="1" />
<path d="M-18.621839112169702,14.156980754792755 L-14.672729036718126,7.698849977620926 L-12.191352652956228,4.855003849723912" fill-opacity="0" stroke="black" stroke-width="1" />
<path d="M-14.672729036718126,-7.698849977620926 L-12.191352652956228,-4.855003849723912 L-11.0,-11.0" fill-opacity="0" stroke="black" stroke-width="1" />
<path d="M-14.672729036718126,7.698849977620926 L-12.191352652956228,4.855003849723912 L-11.0,11.0" fill-opacity="0" stroke="black" stroke-width="1" />
<path d="M-4.855003849723912,87.80864734704377 L-11.0,89.0 L-4.653959074713444,89.78826224782026" fill-opacity="0" stroke="black" stroke-width="1" />
<path d="M-4.855003849723912,-87.80864734704377 L-11.0,-89.0 L-4.653959074713444,-89.78826224782026" fill-opacity="0" stroke="black" stroke-width="1" />
<path d="M-11.0,-11.0 L-10.21173775217974,-4.653959074713444 L-5.801364183211044,-3.674162469509966" fill-opacity="0" stroke="black" stroke-width="1" />
<path d="M-11.0,11.0 L-10.21173775217974,4.653959074713444 L-5.801364183211044,3.674162469509966" fill-opacity="0" stroke="black" stroke-width="1" />
<path d="M-10.21173775217974,-4.653959074713444 L-5.801364183211044,-3.674162469509966 L-3.0,-3.0" fill-opacity="0" stroke="black" stroke-width="1" />
<path d="M-10.21173775217974,4.653959074713444 L-5.801364183211044,3.674162469509966 L-3.0,3.0" fill-opacity="0" stroke="black" stroke-width="1" />
<path d="M-3.674162469509966,94.19863581678895 L-3.0,97.0 L-1.0,99.0" fill-opacity="0" stroke="black" stroke-width="1" />
<path d="M-3.674162469509966,-94.19863581678896 L-3.0,-97.0 L-1.0,-99.0" fill-opacity="0" stroke="black" stroke-width="1" />
<path d="M-3.0,97.0 L-1.0,99.0 L-0.3549448545977439,99.01051723452088" fill-opacity="0" stroke="black" stroke-width="1" />
<path d="M-3.0,-97.0 L-1.0,-99.0 L-0.3549448545977439,-99.01051723452088" fill-opacity="0" stroke="black" stroke-width="1" />
<path d="M-1.0,-1.0 L-0.9894827654791216,-0.3549448545977439 L0.0,-0.0" fill-opacity="0" stroke="black" stroke-width="1" />
<path d="M-1.0,1.0 L-0.9894827654791216,0.3549448545977439 L0.0,-0.0" fill-opacity="0" stroke="black" stroke-width="1" />
<path d="M77.0,-0.0 L71.37911751006051,17.66516300537909 L58.0,-0.0" fill-opacity="0" stroke="black" stroke-width="1" />
<path d="M77.0,-0.0 L71.37911751006051,-17.66516300537909 L58.0,-0.0" fill-opacity="0" stroke="black" stroke-width="1" />
<path d="M50.0,9.0 L52.72099716973083,18.92593498075733 L50.0,29.0" fill-opacity="0" stroke="black" stroke-width="1" />
<path d="M50.0,-9.0 L52.72099716973083,-18.92593498075733 L50.0,-29.0" fill-opacity="0" stroke="black" stroke-width="1" />
<path d="M50.0,48.0 L55.0,45.0 L67.0,33.0" fill-opacity="0" stroke="black" stroke-width="1" />
<path d="M50.0,-48.0 L55.0,-45.0 L67.0,-33.0" fill-opacity="0" stroke="black" stroke-width="1" />
<path d="M55.0,45.0 L67.0,33.0 L78.0,22.0" fill-opacity="0" stroke="black" stroke-width="1" />
<path d="M55.0,-45.0 L67.0,-33.0 L78.0,-22.0" fill-opacity="0" stroke="black" stroke-width="1" />
<path d="M67.0,33.0 L78.0,22.0 L81.37816088783029,14.156980754792755" fill-opacity="0" stroke="black" stroke-width="1" />
<path d="M67.0,-33.0 L78.0,-22.0 L81.37816088783029,-14.156980754792755" fill-opacity="0" stroke="black" stroke-width="1" />
<path d="M78.0,22.0 L81.37816088783029,14.156980754792755 L85.32727096328188,7.698849977620926" fill-opacity="0" stroke="black" stroke-width="1" />
<path d="M78.0,-22.0 L81.37816088783029,-14.156980754792755 L85.32727096328188,-7.698849977620926" fill-opacity="0" stroke="black" stroke-width="1" />
<path d="M81.37816088783029,14.156980754792755 L85.32727096328188,7.698849977620926 L87.80864734704377,4.855003849723912" fill-opacity="0" stroke="black" stroke-width="1" />
<path d="M81.37816088783029,-14.156980754792755 L85.32727096328188,-7.698849977620926 L87.80864734704377,-4.855003849723912" fill-opacity="0" stroke="black" stroke-width="1" />
<path d="M85.32727096328188,7.698849977620926 L87.80864734704377,4.855003849723912 L89.0,11.0" fill-opacity="0" stroke="black" stroke-width="1" />
<path d="M85.32727096328188,-7.698849977620926 L87.80864734704377,-4.855003849723912 L89.0,-11.0" fill-opacity="0" stroke="black" stroke-width="1" />
<path d="M87.80864734704377,4.855003849723912 L89.0,11.0 L89.78826224782026,4.653959074713444" fill-opacity="0" stroke="black" stroke-width="1" />
<path d="M87.80864734704377,-4.855003849723912 L89.0,-11.0 L89.78826224782026,-4.653959074713444" fill-opacity="0" stroke="black" stroke-width="1" />
<path d="M89.0,11.0 L89.78826224782026,4.653959074713444 L94.19863581678896,3.674162469509966" fill-opacity="0" stroke="black" stroke-width="1" />
<path d="M89.0,-11.0 L89.78826224782026,-4.653959074713444 L94.19863581678896,-3.674162469509966" fill-opacity="0" stroke="black" stroke-width="1" />
<path d="M89.78826224782026,4.653959074713444 L94.19863581678896,3.674162469509966 L97.0,3.0" fill-opacity="0" stroke="black" stroke-width="1" />
<path d="M89.78826224782026,-4.653959074713444 L94.19863581678896,-3.674162469509966 L97.0,-3.0" fill-opacity="0" stroke="black" stroke-width="1" />
<path d="M94.19863581678896,3.674162469509966 L97.0,3.0 L99.0,1.0" fill-opacity="0" stroke="black" stroke-width="1" />
<path d="M94.19863581678896,-3.674162469509966 L97.0,-3.0 L99.0,-1.0" fill-opacity="0" stroke="black" stroke-width="1" />
<path d="M97.0,3.0 L99.0,1.0 L99.01051723452088,0.3549448545977439" fill-opacity="0" stroke="black" stroke-width="1" />
<path d="M97.0,-3.0 L99.0,-1.0 L99.01051723452088,-0.3549448545977439" fill-opacity="0" stroke="black" stroke-width="1" />
<path d="M99.0,1.0 L99.01051723452088,0.3549448545977439 L100.0,-0.0" fill-opacity="0" stroke="black" stroke-width="1" />
<path d="M99.0,-1.0 L99.01051723452088,-0.3549448545977439 L100.0,-0.0" fill-opacity="0" stroke="black" stroke-width="1" />
<path d="M0.0,-23.0 L17.66516300537909,-28.62088248993949 L0.0,-42.0" fill-opacity="0" stroke="black" stroke-width="1" />
<path d="M0.0,23.0 L17.66516300537909,28.62088248993949 L0.0,42.0" fill-opacity="0" stroke="black" stroke-width="1" />
<path d="M0.0,77.0 L17.66516300537909,71.37911751006051 L0.0,58.0" fill-opacity="0" stroke="black" stroke-width="1" />
<path d="M0.0,-77.0 L17.66516300537909,-71.37911751006051 L0.0,-58.0" fill-opacity="0" stroke="black" stroke-width="1" />
<path d="M9.0,-50.0 L18.92593498075733,-47.27900283026917 L29.0,-50.0" fill-opacity="0" stroke="black" stroke-width="1" />
<path d="M9.0,50.0 L18.92593498075733,47.27900283026917 L29.0,50.0" fill-opacity="0" stroke="black" stroke-width="1" />
<path d="M9.0,50.0 L18.92593498075733,52.72099716973083 L29.0,50.0" fill-opacity="0" stroke="black" stroke-width="1" />
<path d="M9.0,-50.0 L18.92593498075733,-52.72099716973083 L29.0,-50.0" fill-opacity="0" stroke="black" stroke-width="1" />
<path d="M22.0,-22.0 L14.156980754792755,-18.621839112169702 L7.698849977620926,-14.672729036718126" fill-opacity="0" stroke="black" stroke-width="1" />
<path d="M22.0,22.0 L14.156980754792755,18.621839112169702 L7.698849977620926,14.672729036718126" fill-opacity="0" stroke="black" stroke-width="1" />
<path d="M22.0,78.0 L14.156980754792755,81.37816088783029 L7.698849977620926,85.32727096328188" fill-opacity="0" stroke="black" stroke-width="1" />
<path d="M22.0,-78.0 L14.156980754792755,-81.37816088783029 L7.698849977620926,-85.32727096328188" fill-opacity="0" stroke="black" stroke-width="1" />
<path d="M14.156980754792755,-18.621839112169702 L7.698849977620926,-14.672729036718126 L4.855003849723912,-12.191352652956228" fill-opacity="0" stroke="black" stroke-width="1" />
<path d="M14.156980754792755,18.621839112169702 L7.698849977620926,14.672729036718126 L4.855003849723912,12.191352652956228" fill-opacity="0" stroke="black" stroke-width="1" />
<path d="M14.156980754792755,81.37816088783029 L7.698849977620926,85.32727096328188 L4.855003849723912,87.80864734704377" fill-opacity="0" stroke="black" stroke-width="1" />
<path d="M14.156980754792755,-81.37816088783029 L7.698849977620926,-85.32727096328188 L4.855003849723912,-87.80864734704377" fill-opacity="0" stroke="black" stroke-width="1" />
<path d="M7.698849977620926,-14.672729036718126 L4.855003849723912,-12.191352652956228 L11.0,-11.0" fill-opacity="0" stroke="black" stroke-width="1" />
<path d="M7.698849977620926,14.672729036718126 L4.855003849723912,12.191352652956228 L11.0,11.0" fill-opacity="0" stroke="black" stroke-width="1" />
<path d="M7.698849977620926,85.32727096328188 L4.855003849723912,87.80864734704377 L11.0,89.0" fill-opacity="0" stroke="black" stroke-width="1" />
<path d="M7.698849977620926,-85.32727096328188 L4.855003849723912,-87.80864734704377 L11.0,-89.0" fill-opacity="0" stroke="black" stroke-width="1" />
<path d="M11.0,-11.0 L4.653959074713444,-10.21173775217974 L3.674162469509966,-5.801364183211044" fill-opacity="0" stroke="black" stroke-width="1" />
<path d="M11.0,11.0 L4.653959074713444,10.21173775217974 L3.674162469509966,5.801364183211044" fill-opacity="0" stroke="black" stroke-width="1" />
<path d="M11.0,89.0 L4.653959074713444,89.78826224782026 L3.674162469509966,94.19863581678896" fill-opacity="0" stroke="black" stroke-width="1" />
<path d="M11.0,-89.0 L4.653959074713444,-89.78826224782026 L3.674162469509966,-94.19863581678896" fill-opacity="0" stroke="black" stroke-width="1" />
<path d="M4.653959074713444,-10.21173775217974 L3.674162469509966,-5.801364183211044 L3.0,-3.0" fill-opacity="0" stroke="black" stroke-width="1" />
<path d="M4.653959074713444,10.21173775217974 L3.674162469509966,5.801364183211044 L3.0,3.0" fill-opacity="0" stroke="black" stroke-width="1" />
<path d="M4.653959074713444,89.78826224782026 L3.674162469509966,94.19863581678896 L3.0,97.0" fill-opacity="0" stroke="black" stroke-width="1" />
<path d="M4.653959074713444,-89.78826224782026 L3.674162469509966,-94.19863581678896 L3.0,-97.0" fill-opacity="0" stroke="black" stroke-width="1" />
<path d="M1.0,-1.0 L0.3549448545977439,-0.9894827654791216 L0.0,-0.0" fill-opacity="0" stroke="black" stroke-width="1" />
<path d="M1.0,1.0 L0.3549448545977439,0.9894827654791216 L0.0,-0.0" fill-opacity="0" stroke="black" stroke-width="1" />
<path d="M1.0,99.0 L0.3549448545977439,99.01051723452088 L0.0,100.0" fill-opacity="0" stroke="black" stroke-width="1" />
<path d="M1.0,-99.0 L0.3549448545977439,-99.01051723452088 L0.0,-100.0" fill-opacity="0" stroke="black" stroke-width="1" />
<path d="M0.0,77.0 L-17.66516300537909,71.37911751006051 L0.0,58.0" fill-opacity="0" stroke="black" stroke-width="1" />
<path d="M0.0,-23.0 L-17.66516300537909,-28.62088248993949 L0.0,-42.0" fill-opacity="0" stroke="black" stroke-width="1" />
<path d="M0.0,23.0 L-17.66516300537909,28.62088248993949 L0.0,42.0" fill-opacity="0" stroke="black" stroke-width="1" />
<path d="M0.0,-77.0 L-17.66516300537909,-71.37911751006051 L0.0,-58.0" fill-opacity="0" stroke="black" stroke-width="1" />
<path d="M-9.0,50.0 L-18.92593498075733,52.72099716973083 L-29.0,50.0" fill-opacity="0" stroke="black" stroke-width="1" />
<path d="M-9.0,-50.0 L-18.92593498075733,-47.27900283026917 L-29.0,-50.0" fill-opacity="0" stroke="black" stroke-width="1" />
<path d="M-9.0,50.0 L-18.92593498075733,47.27900283026917 L-29.0,50.0" fill-opacity="0" stroke="black" stroke-width="1" />
<path d="M-9.0,-50.0 L-18.92593498075733,-52.72099716973083 L-29.0,-50.0" fill-opacity="0" stroke="black" stroke-width="1" />
<path d="M-22.0,78.0 L-14.156980754792755,81.37816088783029 L-7.698849977620926,85.32727096328188" fill-opacity="0" stroke="black" stroke-width="1" />
<path d="M-22.0,-22.0 L-14.156980754792755,-18.621839112169702 L-7.698849977620926,-14.672729036718126" fill-opacity="0" stroke="black" stroke-width="1" />
<path d="M-22.0,22.0 L-14.156980754792755,18.62183911216971 L-7.698849977620926,14.672729036718124" fill-opacity="0" stroke="black" stroke-width="1" />
<path d="M-22.0,-78.0 L-14.156980754792755,-81.37816088783029 L-7.698849977620926,-85.32727096328188" fill-opacity="0" stroke="black" stroke-width="1" />
<path d="M-14.156980754792755,81.37816088783029 L-7.698849977620926,85.32727096328188 L-4.855003849723912,87.80864734704377" fill-opacity="0" stroke="black" stroke-width="1" />
<path d="M-14.156980754792755,-18.621839112169702 L-7.698849977620926,-14.672729036718126 L-4.855003849723912,-12.191352652956228" fill-opacity="0" stroke="black" stroke-width="1" />
<path d="M-14.156980754792755,18.62183911216971 L-7.698849977620926,14.672729036718124 L-4.855003849723912,12.191352652956226" fill-opacity="0" stroke="black" stroke-width="1" />
<path d="M-14.156980754792755,-81.37816088783029 L-7.698849977620926,-85.32727096328188 L-4.855003849723912,-87.80864734704377" fill-opacity="0" stroke="black" stroke-width="1" />
<path d="M-7.698849977620926,85.32727096328188 L-4.855003849723912,87.80864734704377 L-11.0,89.0" fill-opacity="0" stroke="black" stroke-width="1" />
<path d="M-7.698849977620926,-14.672729036718126 L-4.855003849723912,-12.191352652956228 L-11.0,-11.0" fill-opacity="0" stroke="black" stroke-width="1" />
<path d="M-7.698849977620926,14.672729036718124 L-4.855003849723912,12.191352652956226 L-11.0,11.0" fill-opacity="0" stroke="black" stroke-width="1" />
<path d="M-7.698849977620926,-85.32727096328188 L-4.855003849723912,-87.80864734704377 L-11.0,-89.0" fill-opacity="0" stroke="black" stroke-width="1" />
<path d="M-11.0,89.0 L-4.653959074713444,89.78826224782026 L-3.674162469509966,94.19863581678895" fill-opacity="0" stroke="black" stroke-width="1" />
<path d="M-11.0,-11.0 L-4.653959074713444,-10.21173775217974 L-3.674162469509966,-5.801364183211044" fill-opacity="0" stroke="black" stroke-width="1" />
<path d="M-11.0,11.0 L-4.653959074713444,10.211737752179744 L-3.674162469509966,5.801364183211049" fill-opacity="0" stroke="black" stroke-width="1" />
<path d="M-11.0,-89.0 L-4.653959074713444,-89.78826224782026 L-3.674162469509966,-94.19863581678896" fill-opacity="0" stroke="black" stroke-width="1" />
<path d="M-4.653959074713444,89.78826224782026 L-3.674162469509966,94.19863581678895 L-3.0,97.0" fill-opacity="0" stroke="black" stroke-width="1" />
<path d="M-4.653959074713444,-10.21173775217974 L-3.674162469509966,-5.801364183211044 L-3.0,-3.0" fill-opacity="0" stroke="black" stroke-width="1" />
<path d="M-4.653959074713444,10.211737752179744 L-3.674162469509966,5.801364183211049 L-3.0,3.0" fill-opacity="0" stroke="black" stroke-width="1" />
<path d="M-4.653959074713444,-89.78826224782026 L-3.674162469509966,-94.19863581678896 L-3.0,-97.0" fill-opacity="0" stroke="black" stroke-width="1" />
<path d="M-1.0,99.0 L-0.3549448545977439,99.01051723452088 L0.0,100.0" fill-opacity="0" stroke="black" stroke-width="1" />
<path d="M-1.0,-1.0 L-0.3549448545977439,-0.9894827654791216 L0.0,-0.0" fill-opacity="0" stroke="black" stroke-width="1" />
<path d="M-1.0,1.0 L-0.3549448545977439,0.9894827654791243 L0.0,-0.0" fill-opacity="0" stroke="black" stroke-width="1" />
<path d="M-1.0,-99.0 L-0.3549448545977439,-99.01051723452088 L0.0,-100.0" fill-opacity="0" stroke="black" stroke-width="1" />
<path d="M-77.0,-0.0 L-71.37911751006051,-17.66516300537909 L-58.0,-0.0" fill-opacity="0" stroke="black" stroke-width="1" />
<path d="M-77.0,-0.0 L-71.37911751006051,17.66516300537909 L-58.0,-0.0" fill-opacity="0" stroke="black" stroke-width="1" />
<path d="M-50.0,-9.0 L-52.72099716973083,-18.92593498075733 L-50.0,-29.0" fill-opacity="0" stroke="black" stroke-width="1" />
<path d="M-50.0,9.0 L-52.72099716973083,18.92593498075733 L-50.0,29.0" fill-opacity="0" stroke="black" stroke-width="1" />
<path d="M-50.0,-48.0 L-55.0,-45.0 L-67.0,-33.0" fill-opacity="0" stroke="black" stroke-width="1" />
<path d="M-50.0,48.0 L-55.0,45.0 L-67.0,33.0" fill-opacity="0" stroke="black" stroke-width="1" />
<path d="M-55.0,-45.0 L-67.0,-33.0 L-78.0,-22.0" fill-opacity="0" stroke="black" stroke-width="1" />
<path d="M-55.0,45.0 L-67.0,33.0 L-78.0,22.0" fill-opacity="0" stroke="black" stroke-width="1" />
<path d="M-67.0,-33.0 L-78.0,-22.0 L-81.37816088783029,-14.156980754792755" fill-opacity="0" stroke="black" stroke-width="1" />
<path d="M-67.0,33.0 L-78.0,22.0 L-81.37816088783029,14.156980754792755" fill-opacity="0" stroke="black" stroke-width="1" />
<path d="M-78.0,-22.0 L-81.37816088783029,-14.156980754792755 L-85.32727096328188,-7.698849977620926" fill-opacity="0" stroke="black" stroke-width="1" />
<path d="M-78.0,22.0 L-81.37816088783029,14.156980754792755 L-85.32727096328188,7.698849977620926" fill-opacity="0" stroke="black" stroke-width="1" />
<path d="M-81.37816088783029,-14.156980754792755 L-85.32727096328188,-7.698849977620926 L-87.80864734704377,-4.855003849723912" fill-opacity="0" stroke="black" stroke-width="1" />
<path d="M-81.37816088783029,14.156980754792755 L-85.32727096328188,7.698849977620926 L-87.80864734704377,4.855003849723912" fill-opacity="0" stroke="black" stroke-width="1" />
<path d="M-85.32727096328188,-7.698849977620926 L-87.80864734704377,-4.855003849723912 L-89.0,-11.0" fill-opacity="0" stroke="black" stroke-width="1" />
<path d="M-85.32727096328188,7.698849977620926 L-87.80864734704377,4.855003849723912 L-89.0,11.0" fill-opacity="0" stroke="black" stroke-width="1" />
<path d="M-87.80864734704377,-4.855003849723912 L-89.0,-11.0 L-89.78826224782026,-4.653959074713444" fill-opacity="0" stroke="black" stroke-width="1" />
<path d="M-87.80864734704377,4.855003849723912 L-89.0,11.0 L-89.78826224782026,4.653959074713444" fill-opacity="0" stroke="black" stroke-width="1" />
<path d="M-89.0,-11.0 L-89.78826224782026,-4.653959074713444 L-94.19863581678896,-3.674162469509966" fill-opacity="0" stroke="black" stroke-width="1" />
<path d="M-89.0,11.0 L-89.78826224782026,4.653959074713444 L-94.19863581678896,3.674162469509966" fill-opacity="0" stroke="black" stroke-width="1" />
<path d="M-89.78826224782026,-4.653959074713444 L-94.19863581678896,-3.674162469509966 L-97.0,-3.0" fill-opacity="0" stroke="black" stroke-width="1" />
<path d="M-89.78826224782026,4.653959074713444 L-94.19863581678896,3.674162469509966 L-97.0,3.0" fill-opacity="0" stroke="black" stroke-width="1" />
<path d="M-94.19863581678896,-3.674162469509966 L-97.0,-3.0 L-99.0,-1.0" fill-opacity="0" stroke="black" stroke-width="1" />
<path d="M-94.19863581678896,3.674162469509966 L-97.0,3.0 L-99.0,1.0" fill-opacity="0" stroke="black" stroke-width="1" />
<path d="M-97.0,-3.0 L-99.0,-1.0 L-99.01051723452088,-0.3549448545977439" fill-opacity="0" stroke="black" stroke-width="1" />
<path d="M-97.0,3.0 L-99.0,1.0 L-99.01051723452088,0.3549448545977439" fill-opacity="0" stroke="black" stroke-width="1" />
<path d="M-99.0,-1.0 L-99.01051723452088,-0.3549448545977439 L-100.0,-0.0" fill-opacity="0" stroke="black" stroke-width="1" />
<path d="M-99.0,1.0 L-99.01051723452088,0.3549448545977439 L-100.0,-0.0" fill-opacity="0" stroke="black" stroke-width="1" />
</svg>