<?xml version="1.0" encoding="UTF-8"?>
<svg xmlns="http://www.w3.org/2000/svg" xmlns:xlink="http://www.w3.org/1999/xlink"
     width="250" height="250" viewBox="-125.0 -125.0 250 250">
<defs>
</defs>
<path d="M0.0,-0.0 L10.058006983737911,-1.1552435750838363 L15.816338866587625,-3.8146541777190985" fill-opacity="0" stroke="black" stroke-width="1" />
<path d="M0.0,-0.0 L10.058006983737911,1.1552435750838363 L15.816338866587625,3.8146541777190985" fill-opacity="0" stroke="black" stroke-width="1" />
<path d="M10.058006983737911,-1.1552435750838363 L15.816338866587625,-3.8146541777190985 L16.0,-0.0" fill-opacity="0" stroke="black" stroke-width="1" />
<path d="M10.058006983737911,1.1552435750838363 L15.816338866587625,3.8146541777190985 L16.0,-0.0" fill-opacity="0" stroke="black" stroke-width="1" />
<path d="M16.0,-0.0 L19.74916863935446,-4.235434129936725 L29.0,-0.0" fill-opacity="0" stroke="black" stroke-width="1" />
<path d="M16.0,-0.0 L19.74916863935446,4.235434129936725 L29.0,-0.0" fill-opacity="0" stroke="black" stroke-width="1" />
<path d="M29.0,-0.0 L29.7453830320233,-19.08630698477654 L41.0,-0.0" fill-opacity="0" stroke="black" stroke-width="1" />
<path d="M29.0,-0.0 L29.7453830320233,19.08630698477654 L41.0,-0.0" fill-opacity="0" stroke="black" stroke-width="1" />
<path d="M50.0,-0.0 L34.52463427026114,-22.96406483074695 L42.43897956564212,-25.39241744404423" fill-opacity="0" stroke="black" stroke-width="1" />
<path d="M50.0,-0.0 L34.52463427026114,22.96406483074695 L42.43897956564212,25.39241744404423" fill-opacity="0" stroke="black" stroke-width="1" />
<path d="M34.52463427026114,-22.96406483074695 L42.43897956564212,-25.39241744404423 L45.319784713294666,-27.92669565638459" fill-opacity="0" stroke="black" stroke-width="1" />
<path d="M34.52463427026114,22.96406483074695 L42.43897956564212,25.39241744404423 L45.319784713294666,27.92669565638459" fill-opacity="0" stroke="black" stroke-width="1" />
<path d="M42.43897956564212,-25.39241744404423 L45.319784713294666,-27.92669565638459 L48.4103746991681,-30.3693645512947" fill-opacity="0" stroke="black" stroke-width="1" />
<path d="M42.43897956564212,25.39241744404423 L45.319784713294666,27.92669565638459 L48.4103746991681,30.3693645512947" fill-opacity="0" stroke="black" stroke-width="1" />
<path d="M45.319784713294666,-27.92669565638459 L48.4103746991681,-30.3693645512947 L50.0,-31.0" fill-opacity="0" stroke="black" stroke-width="1" />
<path d="M45.319784713294666,27.92669565638459 L48.4103746991681,30.3693645512947 L50.0,31.0" fill-opacity="0" stroke="black" stroke-width="1" />
<path d="M50.0,-50.0 L48.998547351281196,-42.57589784310031 L30.0,-30.0" fill-opacity="0" stroke="black" stroke-width="1" />
<path d="M50.0,50.0 L48.998547351281196,42.57589784310031 L30.0,30.0" fill-opacity="0" stroke="black" stroke-width="1" />
<path d="M42.57589784310031,51.001452648718804 L30.0,70.0 L18.918948688579395,73.99054655726546" fill-opacity="0" stroke="black" stroke-width="1" />
<path d="M42.57589784310031,-51.001452648718804 L30.0,-70.0 L18.918948688579395,-73.99054655726546" fill-opacity="0" stroke="black" stroke-width="1" />
<path d="M30.0,-30.0 L26.00945344273454,-18.918948688579395 L25.0,-25.0" fill-opacity="0" stroke="black" stroke-width="1" />
<path d="M30.0,30.0 L26.00945344273454,18.918948688579395 L25.0,25.0" fill-opacity="0" stroke="black" stroke-width="1" />
<path d="M18.918948688579395,73.99054655726546 L25.0,75.0 L16.84212152193564,79.40159077199003" fill-opacity="0" stroke="black" stroke-width="1" />
<path d="M18.918948688579395,-73.99054655726546 L25.0,-75.0 L16.84212152193564,-79.40159077199003" fill-opacity="0" stroke="black" stroke-width="1" />
<path d="M25.0,-25.0 L20.598409228009974,-16.84212152193564 L19.88803673242797,-12.66696369991402" fill-opacity="0" stroke="black" stroke-width="1" />
<path d="M25.0,25.0 L20.598409228009974,16.84212152193564 L19.88803673242797,12.66696369991402" fill-opacity="0" stroke="black" stroke-width="1" />
<path d="M20.598409228009974,-16.84212152193564 L19.88803673242797,-12.66696369991402 L19.0,-19.0" fill-opacity="0" stroke="black" stroke-width="1" />
<path d="M20.598409228009974,16.84212152193564 L19.88803673242797,12.66696369991402 L19.0,19.0" fill-opacity="0" stroke="black" stroke-width="1" />
<path d="M12.66696369991402,80.11196326757204 L19.0,81.0 L3.2828190619112614,88.7657278627868" fill-opacity="0" stroke="black" stroke-width="1" />
<path d="M12.66696369991402,-80.11196326757204 L19.0,-81.0 L3.2828190619112614,-88.7657278627868" fill-opacity="0" stroke="black" stroke-width="1" />
<path d="M19.0,-19.0 L11.23427213721319,-3.2828190619112614 L4.966590542613919,-0.2991934910217653" fill-opacity="0" stroke="black" stroke-width="1" />
<path d="M19.0,19.0 L11.23427213721319,3.2828190619112614 L4.966590542613919,0.2991934910217653" fill-opacity="0" stroke="black" stroke-width="1" />
<path d="M11.23427213721319,-3.2828190619112614 L4.966590542613919,-0.2991934910217653 L0.0,-0.0" fill-opacity="0" stroke="black" stroke-width="1" />
<path d="M11.23427213721319,3.2828190619112614 L4.966590542613919,0.2991934910217653 L0.0,-0.0" fill-opacity="0" stroke="black" stroke-width="1" />
<path d="M0.0,-0.0 L-10.058006983737911,-1.1552435750838363 L-15.816338866587625,-3.8146541777190985" fill-opacity="0" stroke="black" stroke-width="1" />
<path d="M0.0,-0.0 L-10.058006983737911,1.1552435750838363 L-15.816338866587625,3.8146541777190985" fill-opacity="0" stroke="black" stroke-width="1" />
<path d="M-10.058006983737911,-1.1552435750838363 L-15.816338866587625,-3.8146541777190985 L-16.0,-0.0" fill-opacity="0" stroke="black" stroke-width="1" />
<path d="M-10.058006983737911,1.1552435750838363 L-15.816338866587625,3.8146541777190985 L-16.0,-0.0" fill-opacity="0" stroke="black" stroke-width="1" />
<path d="M-16.0,-0.0 L-19.74916863935446,-4.235434129936725 L-29.0,-0.0" fill-opacity="0" stroke="black" stroke-width="1" />
<path d="M-16.0,-0.0 L-19.74916863935446,4.235434129936725 L-29.0,-0.0" fill-opacity="0" stroke="black" stroke-width="1" />
<path d="M-29.0,-0.0 L-29.7453830320233,-19.08630698477654 L-41.0,-0.0" fill-opacity="0" stroke="black" stroke-width="1" />
<path d="M-29.0,-0.0 L-29.7453830320233,19.08630698477654 L-41.0,-0.0" fill-opacity="0" stroke="black" stroke-width="1" />
<path d="M-50.0,-0.0 L-34.52463427026114,-22.96406483074695 L-42.43897956564212,-25.39241744404423" fill-opacity="0" stroke="black" stroke-width="1" />
<path d="M-50.0,-0.0 L-34.52463427026114,22.96406483074695 L-42.43897956564212,25.39241744404423" fill-opacity="0" stroke="black" stroke-width="1" />
<path d="M-34.52463427026114,-22.96406483074695 L-42.43897956564212,-25.39241744404423 L-45.319784713294666,-27.92669565638459" fill-opacity="0" stroke="black" stroke-width="1" />
<path d="M-34.52463427026114,22.96406483074695 L-42.43897956564212,25.39241744404423 L-45.319784713294666,27.92669565638459" fill-opacity="0" stroke="black" stroke-width="1" />
<path d="M-42.43897956564212,-25.39241744404423 L-45.319784713294666,-27.92669565638459 L-48.4103746991681,-30.3693645512947" fill-opacity="0" stroke="black" stroke-width="1" />
<path d="M-42.43897956564212,25.39241744404423 L-45.319784713294666,27.92669565638459 L-48.4103746991681,30.3693645512947" fill-opacity="0" stroke="black" stroke-width="1" />
<path d="M-45.319784713294666,-27.92669565638459 L-48.4103746991681,-30.3693645512947 L-50.0,-31.0" fill-opacity="0" stroke="black" stroke-width="1" />
<path d="M-45.319784713294666,27.92669565638459 L-48.4103746991681,30.3693645512947 L-50.0,31.0" fill-opacity="0" stroke="black" stroke-width="1" />
<path d="M-50.0,-50.0 L-48.998547351281196,-42.57589784310031 L-30.0,-30.0" fill-opacity="0" stroke="black" stroke-width="1" />
<path d="M-50.0,50.0 L-48.998547351281196,42.57589784310031 L-30.0,30.0" fill-opacity="0" stroke="black" stroke-width="1" />
<path d="M-42.57589784310031,51.001452648718804 L-30.0,70.0 L-18.918948688579395,73.99054655726546" fill-opacity="0" stroke="black" stroke-width="1" />
<path d="M-42.57589784310031,-51.001452648718804 L-30.0,-70.0 L-18.918948688579395,-73.99054655726546" fill-opacity="0" stroke="black" stroke-width="1" />
<path d="M-30.0,-30.0 L-26.00945344273454,-18.918948688579395 L-25.0,-25.0" fill-opacity="0" stroke="black" stroke-width="1" />
<path d="M-30.0,30.0 L-26.00945344273454,18.918948688579395 L-25.0,25.0" fill-opacity="0" stroke="black" stroke-width="1" />
<path d="M-18.918948688579395,73.99054655726546 L-25.0,75.0 L-16.84212152193564,79.40159077199003" fill-opacity="0" stroke="black" stroke-width="1" />
<path d="M-18.918948688579395,-73.99054655726546 L-25.0,-75.0 L-16.84212152193564,-79.40159077199003" fill-opacity="0" stroke="black" stroke-width="1" />
<path d="M-25.0,-25.0 L-20.598409228009974,-16.84212152193564 L-19.88803673242797,-12.66696369991402" fill-opacity="0" stroke="black" stroke-width="1" />
<path d="M-25.0,25.0 L-20.598409228009974,16.84212152193564 L-19.88803673242797,12.66696369991402" fill-opacity="0" stroke="black" stroke-width="1" />
<path d="M-20.598409228009974,-16.84212152193564 L-19.88803673242797,-12.66696369991402 L-19.0,-19.0" fill-opacity="0" stroke="black" stroke-width="1" />
<path d="M-20.598409228009974,16.84212152193564 L-19.88803673242797,12.66696369991402 L-19.0,19.0" fill-opacity="0" stroke="black" stroke-width="1" />
<path d="M-12.66696369991402,80.11196326757204 L-19.0,81.0 L-3.2828190619112614,88.7657278627868" fill-opacity="0" stroke="black" stroke-width="1" />
<path d="M-12.66696369991402,-80.11196326757204 L-19.0,-81.0 L-3.2828190619112614,-88.7657278627868" fill-opacity="0" stroke="black" stroke-width="1" />
<path d="M-19.0,-19.0 L-11.23427213721319,-3.2828190619112614 L-4.966590542613919,-0.2991934910217653" fill-opacity="0" stroke="black" stroke-width="1" />
<path d="M-19.0,19.0 L-11.23427213721319,3.2828190619112614 L-4.966590542613919,0.2991934910217653" fill-opacity="0" stroke="black" stroke-width="1" />
<path d="M-11.23427213721319,-3.2828190619112614 L-4.966590542613919,-0.2991934910217653 L0.0,-0.0" fill-opacity="0" stroke="black" stroke-width="1" />
<path d="M-11.23427213721319,3.2828190619112614 L-4.966590542613919,0.2991934910217653 L0.0,-0.0" fill-opacity="0" stroke="black" stroke-width="1" />
<path d="M100.0,-0.0 L89.94199301626209,1.1552435750838363 L84.18366113341237,3.8146541777190985" fill-opacity="0" stroke="black" stroke-width="1" />
<path d="M100.0,-0.0 L89.94199301626209,-1.1552435750838363 L84.18366113341237,-3.8146541777190985" fill-opacity="0" stroke="black" stroke-width="1" />
<path d="M89.94199301626209,1.1552435750838363 L84.18366113341237,3.8146541777190985 L84.0,-0.0" fill-opacity="0" stroke="black" stroke-width="1" />
<path d="M89.94199301626209,-1.1552435750838363 L84.18366113341237,-3.8146541777190985 L84.0,-0.0" fill-opacity="0" stroke="black" stroke-width="1" />
<path d="M84.0,-0.0 L80.25083136064555,4.235434129936725 L71.0,-0.0" fill-opacity="0" stroke="black" stroke-width="1" />
<path d="M84.0,-0.0 L80.25083136064555,-4.235434129936725 L71.0,-0.0" fill-opacity="0" stroke="black" stroke-width="1" />
<path d="M71.0,-0.0 L70.2546169679767,19.08630698477654 L59.0,-0.0" fill-opacity="0" stroke="black" stroke-width="1" />
<path d="M71.0,-0.0 L70.2546169679767,-19.08630698477654 L59.0,-0.0" fill-opacity="0" stroke="black" stroke-width="1" />
<path d="M50.0,-0.0 L65.47536572973885,22.96406483074695 L57.56102043435788,25.39241744404423" fill-opacity="0" stroke="black" stroke-width="1" />
<path d="M50.0,-0.0 L65.47536572973885,-22.96406483074695 L57.56102043435788,-25.39241744404423" fill-opacity="0" stroke="black" stroke-width="1" />
<path d="M65.47536572973885,22.96406483074695 L57.56102043435788,25.39241744404423 L54.680215286705334,27.92669565638459" fill-opacity="0" stroke="black" stroke-width="1" />
<path d="M65.47536572973885,-22.96406483074695 L57.56102043435788,-25.39241744404423 L54.680215286705334,-27.92669565638459" fill-opacity="0" stroke="black" stroke-width="1" />
<path d="M57.56102043435788,25.39241744404423 L54.680215286705334,27.92669565638459 L51.5896253008319,30.3693645512947" fill-opacity="0" stroke="black" stroke-width="1" />
<path d="M57.56102043435788,-25.39241744404423 L54.680215286705334,-27.92669565638459 L51.5896253008319,-30.3693645512947" fill-opacity="0" stroke="black" stroke-width="1" />
<path d="M54.680215286705334,27.92669565638459 L51.5896253008319,30.3693645512947 L50.0,31.0" fill-opacity="0" stroke="black" stroke-width="1" />
<path d="M54.680215286705334,-27.92669565638459 L51.5896253008319,-30.3693645512947 L50.0,-31.0" fill-opacity="0" stroke="black" stroke-width="1" />
<path d="M50.0,50.0 L51.001452648718804,42.57589784310031 L70.0,30.0" fill-opacity="0" stroke="black" stroke-width="1" />
<path d="M50.0,-50.0 L51.001452648718804,-42.57589784310031 L70.0,-30.0" fill-opacity="0" stroke="black" stroke-width="1" />
<path d="M51.001452648718804,42.57589784310031 L70.0,30.0 L73.99054655726546,18.918948688579395" fill-opacity="0" stroke="black" stroke-width="1" />
<path d="M51.001452648718804,-42.57589784310031 L70.0,-30.0 L73.99054655726546,-18.918948688579395" fill-opacity="0" stroke="black" stroke-width="1" />
<path d="M70.0,30.0 L73.99054655726546,18.918948688579395 L75.0,25.0" fill-opacity="0" stroke="black" stroke-width="1" />
<path d="M70.0,-30.0 L73.99054655726546,-18.918948688579395 L75.0,-25.0" fill-opacity="0" stroke="black" stroke-width="1" />
<path d="M73.99054655726546,18.918948688579395 L75.0,25.0 L79.40159077199003,16.84212152193564" fill-opacity="0" stroke="black" stroke-width="1" />
<path d="M73.99054655726546,-18.918948688579395 L75.0,-25.0 L79.40159077199003,-16.84212152193564" fill-opacity="0" stroke="black" stroke-width="1" />
<path d="M75.0,25.0 L79.40159077199003,16.84212152193564 L80.11196326757204,12.66696369991402" fill-opacity="0" stroke="black" stroke-width="1" />
<path d="M75.0,-25.0 L79.40159077199003,-16.84212152193564 L80.11196326757204,-12.66696369991402" fill-opacity="0" stroke="black" stroke-width="1" />
<path d="M79.40159077199003,16.84212152193564 L80.11196326757204,12.66696369991402 L81.0,19.0" fill-opacity="0" stroke="black" stroke-width="1" />
<path d="M79.40159077199003,-16.84212152193564 L80.11196326757204,-12.66696369991402 L81.0,-19.0" fill-opacity="0" stroke="black" stroke-width="1" />
<path d="M80.11196326757204,12.66696369991402 L81.0,19.0 L88.7657278627868,3.2828190619112614" fill-opacity="0" stroke="black" stroke-width="1" />
<path d="M80.11196326757204,-12.66696369991402 L81.0,-19.0 L88.7657278627868,-3.2828190619112614" fill-opacity="0" stroke="black" stroke-width="1" />
<path d="M81.0,19.0 L88.7657278627868,3.2828190619112614 L95.03340945738609,0.2991934910217653" fill-opacity="0" stroke="black" stroke-width="1" />
<path d="M81.0,-19.0 L88.7657278627868,-3.2828190619112614 L95.03340945738609,-0.2991934910217653" fill-opacity="0" stroke="black" stroke-width="1" />
<path d="M88.7657278627868,3.2828190619112614 L95.03340945738609,0.2991934910217653 L100.0,-0.0" fill-opacity="0" stroke="black" stroke-width="1" />
<path d="M88.7657278627868,-3.2828190619112614 L95.03340945738609,-0.2991934910217653 L100.0,-0.0" fill-opacity="0" stroke="black" stroke-width="1" />
<path d="M0.0,-0.0 L1.1552435750838363,-10.058006983737911 L3.8146541777190985,-15.816338866587625" fill-opacity="0" stroke="black" stroke-width="1" />
<path d="M0.0,-0.0 L1.1552435750838363,10.058006983737911 L3.8146541777190985,15.816338866587625" fill-opacity="0" stroke="black" stroke-width="1" />
<path d="M0.0,100.0 L1.1552435750838363,89.94199301626209 L3.8146541777190985,84.18366113341237" fill-opacity="0" stroke="black" stroke-width="1" />
<path d="M0.0,-100.0 L1.1552435750838363,-89.94199301626209 L3.8146541777190985,-84.18366113341237" fill-opacity="0" stroke="black" stroke-width="1" />
<path d="M1.1552435750838363,-10.058006983737911 L3.8146541777190985,-15.816338866587625 L0.0,-16.0" fill-opacity="0" stroke="black" stroke-width="1" />
<path d="M1.1552435750838363,10.058006983737911 L3.8146541777190985,15.816338866587625 L0.0,16.0" fill-opacity="0" stroke="black" stroke-width="1" />
<path d="M1.1552435750838363,89.94199301626209 L3.8146541777190985,84.18366113341237 L0.0,84.0" fill-opacity="0" stroke="black" stroke-width="1" />
<path d="M1.1552435750838363,-89.94199301626209 L3.8146541777190985,-84.18366113341237 L0.0,-84.0" fill-opacity="0" stroke="black" stroke-width="1" />
<path d="M0.0,-16.0 L4.235434129936725,-19.74916863935446 L0.0,-29.0" fill-opacity="0" stroke="black" stroke-width="1" />
<path d="M0.0,16.0 L4.235434129936725,19.74916863935446 L0.0,29.0" fill-opacity="0" stroke="black" stroke-width="1" />
<path d="M0.0,84.0 L4.235434129936725,80.25083136064555 L0.0,71.0" fill-opacity="0" stroke="black" stroke-width="1" />
<path d="M0.0,-84.0 L4.235434129936725,-80.25083136064555 L0.0,-71.0" fill-opacity="0" stroke="black" stroke-width="1" />
<path d="M0.0,-29.0 L19.08630698477654,-29.7453830320233 L0.0,-41.0" fill-opacity="0" stroke="black" stroke-width="1" />
<path d="M0.0,29.0 L19.08630698477654,29.7453830320233 L0.0,41.0" fill-opacity="0" stroke="black" stroke-width="1" />
<path d="M0.0,71.0 L19.08630698477654,70.2546169679767 L0.0,59.0" fill-opacity="0" stroke="black" stroke-width="1" />
<path d="M0.0,-71.0 L19.08630698477654,-70.2546169679767 L0.0,-59.0" fill-opacity="0" stroke="black" stroke-width="1" />
<path d="M0.0,-50.0 L22.96406483074695,-34.52463427026114 L25.39241744404423,-42.43897956564212" fill-opacity="0" stroke="black" stroke-width="1" />
<path d="M0.0,50.0 L22.96406483074695,34.52463427026114 L25.39241744404423,42.43897956564212" fill-opacity="0" stroke="black" stroke-width="1" />
<path d="M0.0,50.0 L22.96406483074695,65.47536572973885 L25.39241744404423,57.56102043435788" fill-opacity="0" stroke="black" stroke-width="1" />
<path d="M0.0,-50.0 L22.96406483074695,-65.47536572973885 L25.39241744404423,-57.56102043435788" fill-opacity="0" stroke="black" stroke-width="1" />
<path d="M22.96406483074695,-34.52463427026114 L25.39241744404423,-42.43897956564212 L27.92669565638459,-45.319784713294666" fill-opacity="0" stroke="black" stroke-width="1" />
<path d="M22.96406483074695,34.52463427026114 L25.39241744404423,42.43897956564212 L27.92669565638459,45.319784713294666" fill-opacity="0" stroke="black" stroke-width="1" />
<path d="M22.96406483074695,65.47536572973885 L25.39241744404423,57.56102043435788 L27.92669565638459,54.680215286705334" fill-opacity="0" stroke="black" stroke-width="1" />
<path d="M22.96406483074695,-65.47536572973885 L25.39241744404423,-57.56102043435788 L27.92669565638459,-54.680215286705334" fill-opacity="0" stroke="black" stroke-width="1" />
<path d="M25.39241744404423,-42.43897956564212 L27.92669565638459,-45.319784713294666 L30.3693645512947,-48.4103746991681" fill-opacity="0" stroke="black" stroke-width="1" />
<path d="M25.39241744404423,42.43897956564212 L27.92669565638459,45.319784713294666 L30.3693645512947,48.4103746991681" fill-opacity="0" stroke="black" stroke-width="1" />
<path d="M25.39241744404423,57.56102043435788 L27.92669565638459,54.680215286705334 L30.3693645512947,51.5896253008319" fill-opacity="0" stroke="black" stroke-width="1" />
<path d="M25.39241744404423,-57.56102043435788 L27.92669565638459,-54.680215286705334 L30.3693645512947,-51.5896253008319" fill-opacity="0" stroke="black" stroke-width="1" />
<path d="M27.92669565638459,-45.319784713294666 L30.3693645512947,-48.4103746991681 L31.0,-50.0" fill-opacity="0" stroke="black" stroke-width="1" />
<path d="M27.92669565638459,45.319784713294666 L30.3693645512947,48.4103746991681 L31.0,50.0" fill-opacity="0" stroke="black" stroke-width="1" />
<path d="M27.92669565638459,54.680215286705334 L30.3693645512947,51.5896253008319 L31.0,50.0" fill-opacity="0" stroke="black" stroke-width="1" />
<path d="M27.92669565638459,-54.680215286705334 L30.3693645512947,-51.5896253008319 L31.0,-50.0" fill-opacity="0" stroke="black" stroke-width="1" />
<path d="M50.0,-50.0 L42.57589784310031,-48.998547351281196 L30.0,-30.0" fill-opacity="0" stroke="black" stroke-width="1" />
<path d="M50.0,50.0 L42.57589784310031,48.998547351281196 L30.0,30.0" fill-opacity="0" stroke="black" stroke-width="1" />
<path d="M50.0,50.0 L42.57589784310031,51.001452648718804 L30.0,70.0" fill-opacity="0" stroke="black" stroke-width="1" />
<path d="M50.0,-50.0 L42.57589784310031,-51.001452648718804 L30.0,-70.0" fill-opacity="0" stroke="black" stroke-width="1" />
<path d="M30.0,-30.0 L18.918948688579395,-26.00945344273454 L25.0,-25.0" fill-opacity="0" stroke="black" stroke-width="1" />
<path d="M30.0,30.0 L18.918948688579395,26.00945344273454 L25.0,25.0" fill-opacity="0" stroke="black" stroke-width="1" />
<path d="M30.0,70.0 L18.918948688579395,73.99054655726546 L25.0,75.0" fill-opacity="0" stroke="black" stroke-width="1" />
<path d="M30.0,-70.0 L18.918948688579395,-73.99054655726546 L25.0,-75.0" fill-opacity="0" stroke="black" stroke-width="1" />
<path d="M25.0,-25.0 L16.84212152193564,-20.598409228009974 L12.66696369991402,-19.88803673242797" fill-opacity="0" stroke="black" stroke-width="1" />
<path d="M25.0,25.0 L16.84212152193564,20.598409228009974 L12.66696369991402,19.88803673242797" fill-opacity="0" stroke="black" stroke-width="1" />
<path d="M25.0,75.0 L16.84212152193564,79.40159077199003 L12.66696369991402,80.11196326757204" fill-opacity="0" stroke="black" stroke-width="1" />
<path d="M25.0,-75.0 L16.84212152193564,-79.40159077199003 L12.66696369991402,-80.11196326757204" fill-opacity="0" stroke="black" stroke-width="1" />
<path d="M16.84212152193564,-20.598409228009974 L12.66696369991402,-19.88803673242797 L19.0,-19.0" fill-opacity="0" stroke="black" stroke-width="1" />
<path d="M16.84212152193564,20.598409228009974 L12.66696369991402,19.88803673242797 L19.0,19.0" fill-opacity="0" stroke="black" stroke-width="1" />
<path d="M16.84212152193564,79.40159077199003 L12.66696369991402,80.11196326757204 L19.0,81.0" fill-opacity="0" stroke="black" stroke-width="1" />
<path d="M16.84212152193564,-79.40159077199003 L12.66696369991402,-80.11196326757204 L19.0,-81.0" fill-opacity="0" stroke="black" stroke-width="1" />
<path d="M19.0,-19.0 L3.2828190619112614,-11.23427213721319 L0.2991934910217653,-4.966590542613919" fill-opacity="0" stroke="black" stroke-width="1" />
<path d="M19.0,19.0 L3.2828190619112614,11.23427213721319 L0.2991934910217653,4.966590542613919" fill-opacity="0" stroke="black" stroke-width="1" />
<path d="M19.0,81.0 L3.2828190619112614,88.7657278627868 L0.2991934910217653,95.03340945738609" fill-opacity="0" stroke="black" stroke-width="1" />
<path d="M19.0,-81.0 L3.2828190619112614,-88.7657278627868 L0.2991934910217653,-95.03340945738609" fill-opacity="0" stroke="black" stroke-width="1" />
<path d="M3.2828190619112614,-11.23427213721319 L0.2991934910217653,-4.966590542613919 L0.0,-0.0" fill-opacity="0" stroke="black" stroke-width="1" />
<path d="M3.2828190619112614,11.23427213721319 L0.2991934910217653,4.966590542613919 L0.0,-0.0" fill-opacity="0" stroke="black" stroke-width="1" />
<path d="M3.2828190619112614,88.7657278627868 L0.2991934910217653,95.03340945738609 L0.0,100.0" fill-opacity="0" stroke="black" stroke-width="1" />
<path d="M3.2828190619112614,-88.7657278627868 L0.2991934910217653,-95.03340945738609 L0.0,-100.0" fill-opacity="0" stroke="black" stroke-width="1" />
<path d="M0.0,100.0 L-1.1552435750838363,89.94199301626209 L-3.8146541777190985,84.18366113341237" fill-opacity="0" stroke="black" stroke-width="1" />
<path d="M0.0,-0.0 L-1.1552435750838363,-10.058006983737911 L-3.8146541777190985,-15.816338866587625" fill-opacity="0" stroke="black" stroke-width="1" />
<path d="M0.0,-0.0 L-1.1552435750838363,10.058006983737911 L-3.8146541777190985,15.816338866587628" fill-opacity="0" stroke="black" stroke-width="1" />
<path d="M0.0,-100.0 L-1.1552435750838363,-89.94199301626209 L-3.8146541777190985,-84.18366113341237" fill-opacity="0" stroke="black" stroke-width="1" />
<path d="M-1.1552435750838363,89.94199301626209 L-3.8146541777190985,84.18366113341237 L0.0,84.0" fill-opacity="0" stroke="black" stroke-width="1" />
<path d="M-1.1552435750838363,-10.058006983737911 L-3.8146541777190985,-15.816338866587625 L0.0,-16.0" fill-opacity="0" stroke="black" stroke-width="1" />
<path d="M-1.1552435750838363,10.058006983737911 L-3.8146541777190985,15.816338866587628 L0.0,16.0" fill-opacity="0" stroke="black" stroke-width="1" />
<path d="M-1.1552435750838363,-89.94199301626209 L-3.8146541777190985,-84.18366113341237 L0.0,-84.0" fill-opacity="0" stroke="black" stroke-width="1" />
<path d="M0.0,84.0 L-4.235434129936725,80.25083136064555 L0.0,71.0" fill-opacity="0" stroke="black" stroke-width="1" />
<path d="M0.0,-16.0 L-4.235434129936725,-19.74916863935446 L0.0,-29.0" fill-opacity="0" stroke="black" stroke-width="1" />
<path d="M0.0,16.0 L-4.235434129936725,19.74916863935445 L0.0,29.0" fill-opacity="0" stroke="black" stroke-width="1" />
<path d="M0.0,-84.0 L-4.235434129936725,-80.25083136064555 L0.0,-71.0" fill-opacity="0" stroke="black" stroke-width="1" />
<path d="M0.0,71.0 L-19.08630698477654,70.2546169679767 L0.0,59.0" fill-opacity="0" stroke="black" stroke-width="1" />
<path d="M0.0,-29.0 L-19.08630698477654,-29.7453830320233 L0.0,-41.0" fill-opacity="0" stroke="black" stroke-width="1" />
<path d="M0.0,29.0 L-19.08630698477654,29.745383032023298 L0.0,41.0" fill-opacity="0" stroke="black" stroke-width="1" />
<path d="M0.0,-71.0 L-19.08630698477654,-70.2546169679767 L0.0,-59.0" fill-opacity="0" stroke="black" stroke-width="1" />
<path d="M0.0,50.0 L-22.96406483074695,65.47536572973885 L-25.39241744404423,57.56102043435788" fill-opacity="0" stroke="black" stroke-width="1" />
<path d="M0.0,-50.0 L-22.96406483074695,-34.52463427026114 L-25.39241744404423,-42.43897956564212" fill-opacity="0" stroke="black" stroke-width="1" />
<path d="M0.0,50.0 L-22.96406483074695,34.524634270261146 L-25.39241744404423,42.43897956564212" fill-opacity="0" stroke="black" stroke-width="1" />
<path d="M0.0,-50.0 L-22.96406483074695,-65.47536572973885 L-25.39241744404423,-57.56102043435788" fill-opacity="0" stroke="black" stroke-width="1" />
<path d="M-22.96406483074695,65.47536572973885 L-25.39241744404423,57.56102043435788 L-27.92669565638459,54.680215286705334" fill-opacity="0" stroke="black" stroke-width="1" />
<path d="M-22.96406483074695,-34.52463427026114 L-25.39241744404423,-42.43897956564212 L-27.92669565638459,-45.319784713294666" fill-opacity="0" stroke="black" stroke-width="1" />
<path d="M-22.96406483074695,34.524634270261146 L-25.39241744404423,42.43897956564212 L-27.92669565638459,45.319784713294666" fill-opacity="0" stroke="black" stroke-width="1" />
<path d="M-22.96406483074695,-65.47536572973885 L-25.39241744404423,-57.56102043435788 L-27.92669565638459,-54.680215286705334" fill-opacity="0" stroke="black" stroke-width="1" />
<path d="M-25.39241744404423,57.56102043435788 L-27.92669565638459,54.680215286705334 L-30.3693645512947,51.5896253008319" fill-opacity="0" stroke="black" stroke-width="1" />
<path d="M-25.39241744404423,-42.43897956564212 L-27.92669565638459,-45.319784713294666 L-30.3693645512947,-48.4103746991681" fill-opacity="0" stroke="black" stroke-width="1" />
<path d="M-25.39241744404423,42.43897956564212 L-27.92669565638459,45.319784713294666 L-30.3693645512947,48.4103746991681" fill-opacity="0" stroke="black" stroke-width="1" />
<path d="M-25.39241744404423,-57.56102043435788 L-27.92669565638459,-54.680215286705334 L-30.3693645512947,-51.5896253008319" fill-opacity="0" stroke="black" stroke-width="1" />
<path d="M-27.92669565638459,54.680215286705334 L-30.3693645512947,51.5896253008319 L-31.0,50.0" fill-opacity="0" stroke="black" stroke-width="1" />
<path d="M-27.92669565638459,-45.319784713294666 L-30.3693645512947,-48.4103746991681 L-31.0,-50.0" fill-opacity="0" stroke="black" stroke-width="1" />
<path d="M-27.92669565638459,45.319784713294666 L-30.3693645512947,48.4103746991681 L-31.0,50.0" fill-opacity="0" stroke="black" stroke-width="1" />
<path d="M-27.92669565638459,-54.680215286705334 L-30.3693645512947,-51.5896253008319 L-31.0,-50.0" fill-opacity="0" stroke="black" stroke-width="1" />
<path d="M-50.0,50.0 L-42.57589784310031,51.001452648718804 L-30.0,70.0" fill-opacity="0" stroke="black" stroke-width="1" />
<path d="M-50.0,-50.0 L-42.57589784310031,-48.998547351281196 L-30.0,-30.0" fill-opacity="0" stroke="black" stroke-width="1" />
<path d="M-50.0,50.0 L-42.57589784310031,48.998547351281196 L-30.0,30.0" fill-opacity="0" stroke="black" stroke-width="1" />
<path d="M-50.0,-50.0 L-42.57589784310031,-51.001452648718804 L-30.0,-70.0" fill-opacity="0" stroke="black" stroke-width="1" />
<path d="M-30.0,70.0 L-18.918948688579395,73.99054655726546 L-25.0,75.0" fill-opacity="0" stroke="black" stroke-width="1" />
<path d="M-30.0,-30.0 L-18.918948688579395,-26.00945344273454 L-25.0,-25.0" fill-opacity="0" stroke="black" stroke-width="1" />
<path d="M-30.0,30.0 L-18.918948688579395,26.00945344273454 L-25.0,25.0" fill-opacity="0" stroke="black" stroke-width="1" />
<path d="M-30.0,-70.0 L-18.918948688579395,-73.99054655726546 L-25.0,-75.0" fill-opacity="0" stroke="black" stroke-width="1" />
<path d="M-25.0,75.0 L-16.84212152193564,79.40159077199003 L-12.66696369991402,80.11196326757204" fill-opacity="0" stroke="black" stroke-width="1" />
<path d="M-25.0,-25.0 L-16.84212152193564,-20.598409228009974 L-12.66696369991402,-19.88803673242797" fill-opacity="0" stroke="black" stroke-width="1" />
<path d="M-25.0,25.0 L-16.84212152193564,20.59840922800997 L-12.66696369991402,19.888036732427963" fill-opacity="0" stroke="black" stroke-width="1" />
<path d="M-25.0,-75.0 L-16.84212152193564,-79.40159077199003 L-12.66696369991402,-80.11196326757204" fill-opacity="0" stroke="black" stroke-width="1" />
<path d="M-16.84212152193564,79.40159077199003 L-12.66696369991402,80.11196326757204 L-19.0,81.0" fill-opacity="0" stroke="black" stroke-width="1" />
<path d="M-16.84212152193564,-20.598409228009974 L-12.66696369991402,-19.88803673242797 L-19.0,-19.0" fill-opacity="0" stroke="black" stroke-width="1" />
<path d="M-16.84212152193564,20.59840922800997 L-12.66696369991402,19.888036732427963 L-19.0,19.0" fill-opacity="0" stroke="black" stroke-width="1" />
<path d="M-16.84212152193564,-79.40159077199003 L-12.66696369991402,-80.11196326757204 L-19.0,-81.0" fill-opacity="0" stroke="black" stroke-width="1" />
<path d="M-19.0,81.0 L-3.2828190619112614,88.7657278627868 L-0.2991934910217653,95.03340945738609" fill-opacity="0" stroke="black" stroke-width="1" />
<path d="M-19.0,-19.0 L-3.2828190619112614,-11.23427213721319 L-0.2991934910217653,-4.966590542613919" fill-opacity="0" stroke="black" stroke-width="1" />
<path d="M-19.0,19.0 L-3.2828190619112614,11.234272137213196 L-0.2991934910217653,4.966590542613915" fill-opacity="0" stroke="black" stroke-width="1" />
<path d="M-19.0,-81.0 L-3.2828190619112614,-88.7657278627868 L-0.2991934910217653,-95.03340945738609" fill-opacity="0" stroke="black" stroke-width="1" />
<path d="M-3.2828190619112614,88.7657278627868 L-0.2991934910217653,95.03340945738609 L0.0,100.0" fill-opacity="0" stroke="black" stroke-width="1" />
<path d="M-3.2828190619112614,-11.23427213721319 L-0.2991934910217653,-4.966590542613919 L0.0,-0.0" fill-opacity="0" stroke="black" stroke-width="1" />
<path d="M-3.2828190619112614,11.234272137213196 L-0.2991934910217653,4.966590542613915 L0.0,-0.0" fill-opacity="0" stroke="black" stroke-width="1" />
<path d="M-3.2828190619112614,-88.7657278627868 L-0.2991934910217653,-95.03340945738609 L0.0,-100.0" fill-opacity="0" stroke="black" stroke-width="1" />
<path d="M-100.0,-0.0 L-89.94199301626209,-1.1552435750838363 L-84.18366113341237,-3.8146541777190985" fill-opacity="0" stroke="black" stroke-width="1" />
<path d="M-100.0,-0.0 L-89.94199301626209,1.1552435750838363 L-84.18366113341237,3.8146541777190985" fill-opacity="0" stroke="black" stroke-width="1" />
<path d="M-89.94199301626209,-1.1552435750838363 L-84.18366113341237,-3.8146541777190985 L-84.0,-0.0" fill-opacity="0" stroke="black" stroke-width="1" />
<path d="M-89.94199301626209,1.1552435750838363 L-84.18366113341237,3.8146541777190985 L-84.0,-0.0" fill-opacity="0" stroke="black" stroke-width="1" />
<path d="M-84.0,-0.0 L-80.25083136064555,-4.235434129936725 L-71.0,-0.0" fill-opacity="0" stroke="black" stroke-width="1" />
<path d="M-84.0,-0.0 L-80.25083136064555,4.235434129936725 L-71.0,-0.0" fill-opacity="0" stroke="black" stroke-width="1" />
<path d="M-71.0,-0.0 L-70.2546169679767,-19.08630698477654 L-59.0,-0.0" fill-opacity="0" stroke="black" stroke-width="1" />
<path d="M-71.0,-0.0 L-70.2546169679767,19.08630698477654 L-59.0,-0.0" fill-opacity="0" stroke="black" stroke-width="1" />
<path d="M-50.0,-0.0 L-65.47536572973885,-22.96406483074695 L-57.56102043435788,-25.39241744404423" fill-opacity="0" stroke="black" stroke-width="1" />
<path d="M-50.0,-0.0 L-65.47536572973885,22.96406483074695 L-57.56102043435788,25.39241744404423" fill-opacity="0" stroke="black" stroke-width="1" />
<path d="M-65.47536572973885,-22.96406483074695 L-57.56102043435788,-25.39241744404423 L-54.680215286705334,-27.92669565638459" fill-opacity="0" stroke="black" stroke-width="1" />
<path d="M-65.47536572973885,22.96406483074695 L-57.56102043435788,25.39241744404423 L-54.680215286705334,27.92669565638459" fill-opacity="0" stroke="black" stroke-width="1" />
<path d="M-57.56102043435788,-25.39241744404423 L-54.680215286705334,-27.92669565638459 L-51.5896253008319,-30.3693645512947" fill-opacity="0" stroke="black" stroke-width="1" />
<path d="M-57.56102043435788,25.39241744404423 L-54.680215286705334,27.92669565638459 L-51.5896253008319,30.3693645512947" fill-opacity="0" stroke="black" stroke-width="1" />
<path d="M-54.680215286705334,-27.92669565638459 L-51.5896253008319,-30.3693645512947 L-50.0,-31.0" fill-opacity="0" stroke="black" stroke-width="1" />
<path d="M-54.680215286705334,27.92669565638459 L-51.5896253008319,30.3693645512947 L-50.0,31.0" fill-opacity="0" stroke="black" stroke-width="1" />
<path d="M-50.0,-50.0 L-51.001452648718804,-42.57589784310031 L-70.0,-30.0" fill-opacity="0" stroke="black" stroke-width="1" />
<path d="M-50.0,50.0 L-51.001452648718804,42.57589784310031 L-70.0,30.0" fill-opacity="0" stroke="black" stroke-width="1" />
<path d="M-51.001452648718804,-42.57589784310031 L-70.0,-30.0 L-73.99054655726546,-18.918948688579395" fill-opacity="0" stroke="black" stroke-width="1" />
<path d="M-51.001452648718804,42.57589784310031 L-70.0,30.0 L-73.99054655726546,18.918948688579395" fill-opacity="0" stroke="black" stroke-width="1" />
<path d="M-70.0,-30.0 L-73.99054655726546,-18.918948688579395 L-75.0,-25.0" fill-opacity="0" stroke="black" stroke-width="1" />
<path d="M-70.0,30.0 L-73.99054655726546,18.918948688579395 L-75.0,25.0" fill-opacity="0" stroke="black" stroke-width="1" />
<path d="M-73.99054655726546,-18.918948688579395 L-75.0,-25.0 L-79.40159077199003,-16.84212152193564" fill-opacity="0" stroke="black" stroke-width="1" />
<path d="M-73.99054655726546,18.918948688579395 L-75.0,25.0 L-79.40159077199003,16.84212152193564" fill-opacity="0" stroke="black" stroke-width="1" />
<path d="M-75.0,-25.0 L-79.40159077199003,-16.84212152193564 L-80.11196326757204,-12.66696369991402" fill-opacity="0" stroke="black" stroke-width="1" />
<path d="M-75.0,25.0 L-79.40159077199003,16.84212152193564 L-80.11196326757204,12.66696369991402" fill-opacity="0" stroke="black" stroke-width="1" />
<path d="M-79.40159077199003,-16.84212152193564 L-80.11196326757204,-12.66696369991402 L-81.0,-19.0" fill-opacity="0" stroke="black" stroke-width="1" />
<path d="M-79.40159077199003,16.84212152193564 L-80.11196326757204,12.66696369991402 L-81.0,19.0" fill-opacity="0" stroke="black" stroke-width="1" />
<path d="M-80.11196326757204,-12.66696369991402 L-81.0,-19.0 L-88.7657278627868,-3.2828190619112614" fill-opacity="0" stroke="black" stroke-width="1" />
<path d="M-80.11196326757204,12.66696369991402 L-81.0,19.0 L-88.7657278627868,3.2828190619112614" fill-opacity="0" stroke="black" stroke-width="1" />
<path d="M-81.0,-19.0 L-88.7657278627868,-3.2828190619112614 L-95.03340945738609,-0.2991934910217653" fill-opacity="0" stroke="black" stroke-width="1" />
<path d="M-81.0,19.0 L-88.7657278627868,3.2828190619112614 L-95.03340945738609,0.2991934910217653" fill-opacity="0" stroke="black" stroke-width="1" />
<path d="M-88.7657278627868,-3.2828190619112614 L-95.03340945738609,-0.2991934910217653 L-100.0,-0.0" fill-opacity="0" stroke="black" stroke-width="1" />
<path d="M-88.7657278627868,3.2828190619112614 L-95.03340945738609,0.2991934910217653 L-100.0,-0.0" fill-opacity="0" stroke="black" stroke-width="1" />
<circle cx="0" cy="-97" r="8" stroke-dasharray="39.653880605311166 10.611601852125524" stroke-dashoffset="-17.59291886010284" stroke="black" stroke-width="1" fill="white" fill-opacity="1" />
<circle cx="0" cy="-97" r="4" stroke="black" stroke-width="1" fill="white" fill-opacity="1" />
</svg>