<?xml version="1.0" encoding="UTF-8"?>
<svg xmlns="http://www.w3.org/2000/svg" xmlns:xlink="http://www.w3.org/1999/xlink"
     width="250" height="250" viewBox="-125.0 -125.0 250 250">
<defs>
</defs>
<path d="M15.0,-0.0 L22.382517328623315,-5.75606424818256 L26.70310535170787,-8.786833796712088" fill="brown" fill-opacity="0.6" stroke="black" stroke-width="1" />
<path d="M15.0,-0.0 L22.382517328623315,5.75606424818256 L26.70310535170787,8.786833796712088" fill="yellow" fill-opacity="0.6" stroke="black" stroke-width="1" />
<path d="M22.382517328623315,-5.75606424818256 L26.70310535170787,-8.786833796712088 L29.0,-0.0" fill="green" fill-opacity="0.6" stroke="black" stroke-width="1" />
<path d="M22.382517328623315,5.75606424818256 L26.70310535170787,8.786833796712088 L29.0,-0.0" fill="brown" fill-opacity="0.6" stroke="black" stroke-width="1" />
<path d="M50.0,-27.0 L42.06919868100631,-27.596678452258487 L50.0,-28.0" fill="brown" fill-opacity="0.6" stroke="black" stroke-width="1" />
<path d="M50.0,27.0 L42.06919868100631,27.596678452258487 L50.0,28.0" fill="black" fill-opacity="0.6" stroke="black" stroke-width="1" />
<path d="M38.0,50.0 L46.0,54.0 L34.0,66.0" fill="pink" fill-opacity="0.6" stroke="black" stroke-width="1" />
<path d="M38.0,-50.0 L46.0,-54.0 L34.0,-66.0" fill="red" fill-opacity="0.6" stroke="black" stroke-width="1" />
<path d="M46.0,54.0 L34.0,66.0 L24.0,76.0" fill="pink" fill-opacity="0.6" stroke="black" stroke-width="1" />
<path d="M46.0,-54.0 L34.0,-66.0 L24.0,-76.0" fill="blue" fill-opacity="0.6" stroke="black" stroke-width="1" />
<path d="M34.0,66.0 L24.0,76.0 L22.0,78.0" fill="green" fill-opacity="0.6" stroke="black" stroke-width="1" />
<path d="M34.0,-66.0 L24.0,-76.0 L22.0,-78.0" fill="green" fill-opacity="0.6" stroke="black" stroke-width="1" />
<path d="M24.0,76.0 L22.0,78.0 L21.0,79.0" fill="red" fill-opacity="0.6" stroke="black" stroke-width="1" />
<path d="M24.0,-76.0 L22.0,-78.0 L21.0,-79.0" fill="green" fill-opacity="0.6" stroke="black" stroke-width="1" />
<path d="M22.0,78.0 L21.0,79.0 L9.0,91.0" fill="green" fill-opacity="0.6" stroke="black" stroke-width="1" />
<path d="M22.0,-78.0 L21.0,-79.0 L9.0,-91.0" fill="brown" fill-opacity="0.6" stroke="black" stroke-width="1" />
<path d="M21.0,79.0 L9.0,91.0 L7.0,93.0" fill="purple" fill-opacity="0.6" stroke="black" stroke-width="1" />
<path d="M21.0,-79.0 L9.0,-91.0 L7.0,-93.0" fill="orange" fill-opacity="0.6" stroke="black" stroke-width="1" />
<path d="M9.0,91.0 L7.0,93.0 L1.889810842341252,94.11468736572905" fill="black" fill-opacity="0.6" stroke="black" stroke-width="1" />
<path d="M9.0,-91.0 L7.0,-93.0 L1.889810842341252,-94.11468736572905" fill="black" fill-opacity="0.6" stroke="black" stroke-width="1" />
<path d="M7.0,-7.0 L5.885312634270945,-1.889810842341252 L2.514762638941531,-1.2569301776763437" fill="yellow" fill-opacity="0.6" stroke="black" stroke-width="1" />
<path d="M7.0,7.0 L5.885312634270945,1.889810842341252 L2.514762638941531,1.2569301776763437" fill="green" fill-opacity="0.6" stroke="black" stroke-width="1" />
<path d="M5.885312634270945,-1.889810842341252 L2.514762638941531,-1.2569301776763437 L1.889958951689863,-0.6754656633946212" fill="red" fill-opacity="0.6" stroke="black" stroke-width="1" />
<path d="M5.885312634270945,1.889810842341252 L2.514762638941531,1.2569301776763437 L1.889958951689863,0.6754656633946212" fill="blue" fill-opacity="0.6" stroke="black" stroke-width="1" />
<path d="M2.514762638941531,-1.2569301776763437 L1.889958951689863,-0.6754656633946212 L1.0,-1.0" fill="purple" fill-opacity="0.6" stroke="black" stroke-width="1" />
<path d="M2.514762638941531,1.2569301776763437 L1.889958951689863,0.6754656633946212 L1.0,1.0" fill="brown" fill-opacity="0.6" stroke="black" stroke-width="1" />
<path d="M0.6754656633946212,98.11004104831014 L1.0,99.0 L0.0,100.0" fill="yellow" fill-opacity="0.6" stroke="black" stroke-width="1" />
<path d="M0.6754656633946212,-98.11004104831014 L1.0,-99.0 L0.0,-100.0" fill="black" fill-opacity="0.6" stroke="black" stroke-width="1" />
<path d="M-15.0,-0.0 L-22.382517328623315,-5.75606424818256 L-26.70310535170787,-8.786833796712088" fill="purple" fill-opacity="0.6" stroke="black" stroke-width="1" />
<path d="M-15.0,-0.0 L-22.382517328623315,5.75606424818256 L-26.70310535170787,8.786833796712088" fill="black" fill-opacity="0.6" stroke="black" stroke-width="1" />
<path d="M-22.382517328623315,-5.75606424818256 L-26.70310535170787,-8.786833796712088 L-29.0,-0.0" fill="brown" fill-opacity="0.6" stroke="black" stroke-width="1" />
<path d="M-22.382517328623315,5.75606424818256 L-26.70310535170787,8.786833796712088 L-29.0,-0.0" fill="brown" fill-opacity="0.6" stroke="black" stroke-width="1" />
<path d="M-50.0,-27.0 L-42.06919868100631,-27.596678452258487 L-50.0,-28.0" fill="blue" fill-opacity="0.6" stroke="black" stroke-width="1" />
<path d="M-50.0,27.0 L-42.06919868100631,27.596678452258487 L-50.0,28.0" fill="pink" fill-opacity="0.6" stroke="black" stroke-width="1" />
<path d="M-38.0,50.0 L-46.0,54.0 L-34.0,66.0" fill="red" fill-opacity="0.6" stroke="black" stroke-width="1" />
<path d="M-38.0,-50.0 L-46.0,-54.0 L-34.0,-66.0" fill="yellow" fill-opacity="0.6" stroke="black" stroke-width="1" />
<path d="M-46.0,54.0 L-34.0,66.0 L-24.0,76.0" fill="red" fill-opacity="0.6" stroke="black" stroke-width="1" />
<path d="M-46.0,-54.0 L-34.0,-66.0 L-24.0,-76.0" fill="pink" fill-opacity="0.6" stroke="black" stroke-width="1" />
<path d="M-34.0,66.0 L-24.0,76.0 L-22.0,78.0" fill="pink" fill-opacity="0.6" stroke="black" stroke-width="1" />
<path d="M-34.0,-66.0 L-24.0,-76.0 L-22.0,-78.0" fill="pink" fill-opacity="0.6" stroke="black" stroke-width="1" />
<path d="M-24.0,76.0 L-22.0,78.0 L-21.0,79.0" fill="blue" fill-opacity="0.6" stroke="black" stroke-width="1" />
<path d="M-24.0,-76.0 L-22.0,-78.0 L-21.0,-79.0" fill="red" fill-opacity="0.6" stroke="black" stroke-width="1" />
<path d="M-22.0,78.0 L-21.0,79.0 L-9.0,91.0" fill="blue" fill-opacity="0.6" stroke="black" stroke-width="1" />
<path d="M-22.0,-78.0 L-21.0,-79.0 L-9.0,-91.0" fill="orange" fill-opacity="0.6" stroke="black" stroke-width="1" />
<path d="M-21.0,79.0 L-9.0,91.0 L-7.0,93.0" fill="black" fill-opacity="0.6" stroke="black" stroke-width="1" />
<path d="M-21.0,-79.0 L-9.0,-91.0 L-7.0,-93.0" fill="black" fill-opacity="0.6" stroke="black" stroke-width="1" />
<path d="M-9.0,91.0 L-7.0,93.0 L-1.889810842341252,94.11468736572905" fill="purple" fill-opacity="0.6" stroke="black" stroke-width="1" />
<path d="M-9.0,-91.0 L-7.0,-93.0 L-1.889810842341252,-94.11468736572905" fill="orange" fill-opacity="0.6" stroke="black" stroke-width="1" />
<path d="M-7.0,-7.0 L-5.885312634270945,-1.889810842341252 L-2.514762638941531,-1.2569301776763437" fill="brown" fill-opacity="0.6" stroke="black" stroke-width="1" />
<path d="M-7.0,7.0 L-5.885312634270945,1.889810842341252 L-2.514762638941531,1.2569301776763437" fill="red" fill-opacity="0.6" stroke="black" stroke-width="1" />
<path d="M-5.885312634270945,-1.889810842341252 L-2.514762638941531,-1.2569301776763437 L-1.889958951689863,-0.6754656633946212" fill="purple" fill-opacity="0.6" stroke="black" stroke-width="1" />
<path d="M-5.885312634270945,1.889810842341252 L-2.514762638941531,1.2569301776763437 L-1.889958951689863,0.6754656633946212" fill="orange" fill-opacity="0.6" stroke="black" stroke-width="1" />
<path d="M-2.514762638941531,-1.2569301776763437 L-1.889958951689863,-0.6754656633946212 L-1.0,-1.0" fill="green" fill-opacity="0.6" stroke="black" stroke-width="1" />
<path d="M-2.514762638941531,1.2569301776763437 L-1.889958951689863,0.6754656633946212 L-1.0,1.0" fill="blue" fill-opacity="0.6" stroke="black" stroke-width="1" />
<path d="M-0.6754656633946212,98.11004104831014 L-1.0,99.0 L0.0,100.0" fill="orange" fill-opacity="0.6" stroke="black" stroke-width="1" />
<path d="M-0.6754656633946212,-98.11004104831014 L-1.0,-99.0 L0.0,-100.0" fill="brown" fill-opacity="0.6" stroke="black" stroke-width="1" />
<path d="M85.0,-0.0 L77.61748267137668,5.75606424818256 L73.29689464829212,8.786833796712088" fill="red" fill-opacity="0.6" stroke="black" stroke-width="1" />
<path d="M85.0,-0.0 L77.61748267137668,-5.75606424818256 L73.29689464829212,-8.786833796712088" fill="purple" fill-opacity="0.6" stroke="black" stroke-width="1" />
<path d="M77.61748267137668,5.75606424818256 L73.29689464829212,8.786833796712088 L71.0,-0.0" fill="purple" fill-opacity="0.6" stroke="black" stroke-width="1" />
<path d="M77.61748267137668,-5.75606424818256 L73.29689464829212,-8.786833796712088 L71.0,-0.0" fill="yellow" fill-opacity="0.6" stroke="black" stroke-width="1" />
<path d="M50.0,27.0 L57.93080131899369,27.596678452258487 L50.0,28.0" fill="pink" fill-opacity="0.6" stroke="black" stroke-width="1" />
<path d="M50.0,-27.0 L57.93080131899369,-27.596678452258487 L50.0,-28.0" fill="purple" fill-opacity="0.6" stroke="black" stroke-width="1" />
<path d="M50.0,38.0 L54.0,46.0 L66.0,34.0" fill="brown" fill-opacity="0.6" stroke="black" stroke-width="1" />
<path d="M50.0,-38.0 L54.0,-46.0 L66.0,-34.0" fill="orange" fill-opacity="0.6" stroke="black" stroke-width="1" />
<path d="M54.0,46.0 L66.0,34.0 L76.0,24.0" fill="yellow" fill-opacity="0.6" stroke="black" stroke-width="1" />
<path d="M54.0,-46.0 L66.0,-34.0 L76.0,-24.0" fill="green" fill-opacity="0.6" stroke="black" stroke-width="1" />
<path d="M66.0,34.0 L76.0,24.0 L78.0,22.0" fill="brown" fill-opacity="0.6" stroke="black" stroke-width="1" />
<path d="M66.0,-34.0 L76.0,-24.0 L78.0,-22.0" fill="blue" fill-opacity="0.6" stroke="black" stroke-width="1" />
<path d="M76.0,24.0 L78.0,22.0 L79.0,21.0" fill="brown" fill-opacity="0.6" stroke="black" stroke-width="1" />
<path d="M76.0,-24.0 L78.0,-22.0 L79.0,-21.0" fill="orange" fill-opacity="0.6" stroke="black" stroke-width="1" />
<path d="M78.0,22.0 L79.0,21.0 L91.0,9.0" fill="orange" fill-opacity="0.6" stroke="black" stroke-width="1" />
<path d="M78.0,-22.0 L79.0,-21.0 L91.0,-9.0" fill="blue" fill-opacity="0.6" stroke="black" stroke-width="1" />
<path d="M79.0,21.0 L91.0,9.0 L93.0,7.0" fill="green" fill-opacity="0.6" stroke="black" stroke-width="1" />
<path d="M79.0,-21.0 L91.0,-9.0 L93.0,-7.0" fill="orange" fill-opacity="0.6" stroke="black" stroke-width="1" />
<path d="M91.0,9.0 L93.0,7.0 L94.11468736572905,1.889810842341252" fill="blue" fill-opacity="0.6" stroke="black" stroke-width="1" />
<path d="M91.0,-9.0 L93.0,-7.0 L94.11468736572905,-1.889810842341252" fill="brown" fill-opacity="0.6" stroke="black" stroke-width="1" />
<path d="M93.0,7.0 L94.11468736572905,1.889810842341252 L97.48523736105847,1.2569301776763437" fill="blue" fill-opacity="0.6" stroke="black" stroke-width="1" />
<path d="M93.0,-7.0 L94.11468736572905,-1.889810842341252 L97.48523736105847,-1.2569301776763437" fill="black" fill-opacity="0.6" stroke="black" stroke-width="1" />
<path d="M94.11468736572905,1.889810842341252 L97.48523736105847,1.2569301776763437 L98.11004104831014,0.6754656633946212" fill="brown" fill-opacity="0.6" stroke="black" stroke-width="1" />
<path d="M94.11468736572905,-1.889810842341252 L97.48523736105847,-1.2569301776763437 L98.11004104831014,-0.6754656633946212" fill="red" fill-opacity="0.6" stroke="black" stroke-width="1" />
<path d="M97.48523736105847,1.2569301776763437 L98.11004104831014,0.6754656633946212 L99.0,1.0" fill="black" fill-opacity="0.6" stroke="black" stroke-width="1" />
<path d="M97.48523736105847,-1.2569301776763437 L98.11004104831014,-0.6754656633946212 L99.0,-1.0" fill="yellow" fill-opacity="0.6" stroke="black" stroke-width="1" />
<path d="M98.11004104831014,0.6754656633946212 L99.0,1.0 L100.0,-0.0" fill="red" fill-opacity="0.6" stroke="black" stroke-width="1" />
<path d="M98.11004104831014,-0.6754656633946212 L99.0,-1.0 L100.0,-0.0" fill="blue" fill-opacity="0.6" stroke="black" stroke-width="1" />
<path d="M0.0,-15.0 L5.75606424818256,-22.382517328623315 L8.786833796712088,-26.70310535170787" fill="green" fill-opacity="0.6" stroke="black" stroke-width="1" />
<path d="M0.0,15.0 L5.75606424818256,22.382517328623315 L8.786833796712088,26.70310535170787" fill="brown" fill-opacity="0.6" stroke="black" stroke-width="1" />
<path d="M0.0,85.0 L5.75606424818256,77.61748267137668 L8.786833796712088,73.29689464829212" fill="yellow" fill-opacity="0.6" stroke="black" stroke-width="1" />
<path d="M0.0,-85.0 L5.75606424818256,-77.61748267137668 L8.786833796712088,-73.29689464829212" fill="yellow" fill-opacity="0.6" stroke="black" stroke-width="1" />
<path d="M5.75606424818256,-22.382517328623315 L8.786833796712088,-26.70310535170787 L0.0,-29.0" fill="green" fill-opacity="0.6" stroke="black" stroke-width="1" />
<path d="M5.75606424818256,22.382517328623315 L8.786833796712088,26.70310535170787 L0.0,29.0" fill="green" fill-opacity="0.6" stroke="black" stroke-width="1" />
<path d="M5.75606424818256,77.61748267137668 L8.786833796712088,73.29689464829212 L0.0,71.0" fill="black" fill-opacity="0.6" stroke="black" stroke-width="1" />
<path d="M5.75606424818256,-77.61748267137668 L8.786833796712088,-73.29689464829212 L0.0,-71.0" fill="yellow" fill-opacity="0.6" stroke="black" stroke-width="1" />
<path d="M27.0,-50.0 L27.596678452258487,-42.06919868100631 L28.0,-50.0" fill="green" fill-opacity="0.6" stroke="black" stroke-width="1" />
<path d="M27.0,50.0 L27.596678452258487,42.06919868100631 L28.0,50.0" fill="red" fill-opacity="0.6" stroke="black" stroke-width="1" />
<path d="M27.0,50.0 L27.596678452258487,57.93080131899369 L28.0,50.0" fill="brown" fill-opacity="0.6" stroke="black" stroke-width="1" />
<path d="M27.0,-50.0 L27.596678452258487,-57.93080131899369 L28.0,-50.0" fill="blue" fill-opacity="0.6" stroke="black" stroke-width="1" />
<path d="M7.0,-7.0 L1.889810842341252,-5.885312634270945 L1.2569301776763437,-2.514762638941531" fill="blue" fill-opacity="0.6" stroke="black" stroke-width="1" />
<path d="M7.0,7.0 L1.889810842341252,5.885312634270945 L1.2569301776763437,2.514762638941531" fill="black" fill-opacity="0.6" stroke="black" stroke-width="1" />
<path d="M7.0,93.0 L1.889810842341252,94.11468736572905 L1.2569301776763437,97.48523736105847" fill="black" fill-opacity="0.6" stroke="black" stroke-width="1" />
<path d="M7.0,-93.0 L1.889810842341252,-94.11468736572905 L1.2569301776763437,-97.48523736105847" fill="blue" fill-opacity="0.6" stroke="black" stroke-width="1" />
<path d="M1.889810842341252,-5.885312634270945 L1.2569301776763437,-2.514762638941531 L0.6754656633946212,-1.889958951689863" fill="pink" fill-opacity="0.6" stroke="black" stroke-width="1" />
<path d="M1.889810842341252,5.885312634270945 L1.2569301776763437,2.514762638941531 L0.6754656633946212,1.889958951689863" fill="purple" fill-opacity="0.6" stroke="black" stroke-width="1" />
<path d="M1.889810842341252,94.11468736572905 L1.2569301776763437,97.48523736105847 L0.6754656633946212,98.11004104831014" fill="green" fill-opacity="0.6" stroke="black" stroke-width="1" />
<path d="M1.889810842341252,-94.11468736572905 L1.2569301776763437,-97.48523736105847 L0.6754656633946212,-98.11004104831014" fill="orange" fill-opacity="0.6" stroke="black" stroke-width="1" />
<path d="M1.2569301776763437,-2.514762638941531 L0.6754656633946212,-1.889958951689863 L1.0,-1.0" fill="yellow" fill-opacity="0.6" stroke="black" stroke-width="1" />
<path d="M1.2569301776763437,2.514762638941531 L0.6754656633946212,1.889958951689863 L1.0,1.0" fill="blue" fill-opacity="0.6" stroke="black" stroke-width="1" />
<path d="M1.2569301776763437,97.48523736105847 L0.6754656633946212,98.11004104831014 L1.0,99.0" fill="red" fill-opacity="0.6" stroke="black" stroke-width="1" />
<path d="M1.2569301776763437,-97.48523736105847 L0.6754656633946212,-98.11004104831014 L1.0,-99.0" fill="orange" fill-opacity="0.6" stroke="black" stroke-width="1" />
<path d="M0.0,85.0 L-5.75606424818256,77.61748267137668 L-8.786833796712088,73.29689464829212" fill="yellow" fill-opacity="0.6" stroke="black" stroke-width="1" />
<path d="M0.0,-15.0 L-5.75606424818256,-22.382517328623315 L-8.786833796712088,-26.70310535170787" fill="red" fill-opacity="0.6" stroke="black" stroke-width="1" />
<path d="M0.0,15.0 L-5.75606424818256,22.382517328623322 L-8.786833796712088,26.703105351707876" fill="brown" fill-opacity="0.6" stroke="black" stroke-width="1" />
<path d="M0.0,-85.0 L-5.75606424818256,-77.61748267137668 L-8.786833796712088,-73.29689464829212" fill="pink" fill-opacity="0.6" stroke="black" stroke-width="1" />
<path d="M-5.75606424818256,77.61748267137668 L-8.786833796712088,73.29689464829212 L0.0,71.0" fill="brown" fill-opacity="0.6" stroke="black" stroke-width="1" />
<path d="M-5.75606424818256,-22.382517328623315 L-8.786833796712088,-26.70310535170787 L0.0,-29.0" fill="red" fill-opacity="0.6" stroke="black" stroke-width="1" />
<path d="M-5.75606424818256,22.382517328623322 L-8.786833796712088,26.703105351707876 L0.0,29.0" fill="orange" fill-opacity="0.6" stroke="black" stroke-width="1" />
<path d="M-5.75606424818256,-77.61748267137668 L-8.786833796712088,-73.29689464829212 L0.0,-71.0" fill="blue" fill-opacity="0.6" stroke="black" stroke-width="1" />
<path d="M-27.0,50.0 L-27.596678452258487,57.93080131899369 L-28.0,50.0" fill="blue" fill-opacity="0.6" stroke="black" stroke-width="1" />
<path d="M-27.0,-50.0 L-27.596678452258487,-42.06919868100631 L-28.0,-50.0" fill="orange" fill-opacity="0.6" stroke="black" stroke-width="1" />
<path d="M-27.0,50.0 L-27.596678452258487,42.06919868100631 L-28.0,50.0" fill="blue" fill-opacity="0.6" stroke="black" stroke-width="1" />
<path d="M-27.0,-50.0 L-27.596678452258487,-57.93080131899369 L-28.0,-50.0" fill="brown" fill-opacity="0.6" stroke="black" stroke-width="1" />
<path d="M-7.0,93.0 L-1.889810842341252,94.11468736572905 L-1.2569301776763437,97.48523736105847" fill="blue" fill-opacity="0.6" stroke="black" stroke-width="1" />
<path d="M-7.0,-7.0 L-1.889810842341252,-5.885312634270945 L-1.2569301776763437,-2.514762638941531" fill="green" fill-opacity="0.6" stroke="black" stroke-width="1" />
<path d="M-7.0,7.0 L-1.889810842341252,5.885312634270946 L-1.2569301776763437,2.5147626389415336" fill="green" fill-opacity="0.6" stroke="black" stroke-width="1" />
<path d="M-7.0,-93.0 L-1.889810842341252,-94.11468736572905 L-1.2569301776763437,-97.48523736105847" fill="green" fill-opacity="0.6" stroke="black" stroke-width="1" />
<path d="M-1.889810842341252,94.11468736572905 L-1.2569301776763437,97.48523736105847 L-0.6754656633946212,98.11004104831014" fill="pink" fill-opacity="0.6" stroke="black" stroke-width="1" />
<path d="M-1.889810842341252,-5.885312634270945 L-1.2569301776763437,-2.514762638941531 L-0.6754656633946212,-1.889958951689863" fill="black" fill-opacity="0.6" stroke="black" stroke-width="1" />
<path d="M-1.889810842341252,5.885312634270946 L-1.2569301776763437,2.5147626389415336 L-0.6754656633946212,1.889958951689863" fill="orange" fill-opacity="0.6" stroke="black" stroke-width="1" />
<path d="M-1.889810842341252,-94.11468736572905 L-1.2569301776763437,-97.48523736105847 L-0.6754656633946212,-98.11004104831014" fill="black" fill-opacity="0.6" stroke="black" stroke-width="1" />
<path d="M-1.2569301776763437,97.48523736105847 L-0.6754656633946212,98.11004104831014 L-1.0,99.0" fill="red" fill-opacity="0.6" stroke="black" stroke-width="1" />
<path d="M-1.2569301776763437,-2.514762638941531 L-0.6754656633946212,-1.889958951689863 L-1.0,-1.0" fill="brown" fill-opacity="0.6" stroke="black" stroke-width="1" />
<path d="M-1.2569301776763437,2.5147626389415336 L-0.6754656633946212,1.889958951689863 L-1.0,1.0" fill="orange" fill-opacity="0.6" stroke="black" stroke-width="1" />
<path d="M-1.2569301776763437,-97.48523736105847 L-0.6754656633946212,-98.11004104831014 L-1.0,-99.0" fill="orange" fill-opacity="0.6" stroke="black" stroke-width="1" />
<path d="M-85.0,-0.0 L-77.61748267137668,-5.75606424818256 L-73.29689464829212,-8.786833796712088" fill="black" fill-opacity="0.6" stroke="black" stroke-width="1" />
<path d="M-85.0,-0.0 L-77.61748267137668,5.75606424818256 L-73.29689464829212,8.786833796712088" fill="blue" fill-opacity="0.6" stroke="black" stroke-width="1" />
<path d="M-77.61748267137668,-5.75606424818256 L-73.29689464829212,-8.786833796712088 L-71.0,-0.0" fill="yellow" fill-opacity="0.6" stroke="black" stroke-width="1" />
<path d="M-77.61748267137668,5.75606424818256 L-73.29689464829212,8.786833796712088 L-71.0,-0.0" fill="orange" fill-opacity="0.6" stroke="black" stroke-width="1" />
<path d="M-50.0,-27.0 L-57.93080131899369,-27.596678452258487 L-50.0,-28.0" fill="red" fill-opacity="0.6" stroke="black" stroke-width="1" />
<path d="M-50.0,27.0 L-57.93080131899369,27.596678452258487 L-50.0,28.0" fill="pink" fill-opacity="0.6" stroke="black" stroke-width="1" />
<path d="M-50.0,-38.0 L-54.0,-46.0 L-66.0,-34.0" fill="black" fill-opacity="0.6" stroke="black" stroke-width="1" />
<path d="M-50.0,38.0 L-54.0,46.0 L-66.0,34.0" fill="purple" fill-opacity="0.6" stroke="black" stroke-width="1" />
<path d="M-54.0,-46.0 L-66.0,-34.0 L-76.0,-24.0" fill="pink" fill-opacity="0.6" stroke="black" stroke-width="1" />
<path d="M-54.0,46.0 L-66.0,34.0 L-76.0,24.0" fill="black" fill-opacity="0.6" stroke="black" stroke-width="1" />
<path d="M-66.0,-34.0 L-76.0,-24.0 L-78.0,-22.0" fill="pink" fill-opacity="0.6" stroke="black" stroke-width="1" />
<path d="M-66.0,34.0 L-76.0,24.0 L-78.0,22.0" fill="yellow" fill-opacity="0.6" stroke="black" stroke-width="1" />
<path d="M-76.0,-24.0 L-78.0,-22.0 L-79.0,-21.0" fill="orange" fill-opacity="0.6" stroke="black" stroke-width="1" />
<path d="M-76.0,24.0 L-78.0,22.0 L-79.0,21.0" fill="red" fill-opacity="0.6" stroke="black" stroke-width="1" />
<path d="M-78.0,-22.0 L-79.0,-21.0 L-91.0,-9.0" fill="green" fill-opacity="0.6" stroke="black" stroke-width="1" />
<path d="M-78.0,22.0 L-79.0,21.0 L-91.0,9.0" fill="black" fill-opacity="0.6" stroke="black" stroke-width="1" />
<path d="M-79.0,-21.0 L-91.0,-9.0 L-93.0,-7.0" fill="yellow" fill-opacity="0.6" stroke="black" stroke-width="1" />
<path d="M-79.0,21.0 L-91.0,9.0 L-93.0,7.0" fill="purple" fill-opacity="0.6" stroke="black" stroke-width="1" />
<path d="M-91.0,-9.0 L-93.0,-7.0 L-94.11468736572905,-1.889810842341252" fill="orange" fill-opacity="0.6" stroke="black" stroke-width="1" />
<path d="M-91.0,9.0 L-93.0,7.0 L-94.11468736572905,1.889810842341252" fill="green" fill-opacity="0.6" stroke="black" stroke-width="1" />
<path d="M-93.0,-7.0 L-94.11468736572905,-1.889810842341252 L-97.48523736105847,-1.2569301776763437" fill="black" fill-opacity="0.6" stroke="black" stroke-width="1" />
<path d="M-93.0,7.0 L-94.11468736572905,1.889810842341252 L-97.48523736105847,1.2569301776763437" fill="orange" fill-opacity="0.6" stroke="black" stroke-width="1" />
<path d="M-94.11468736572905,-1.889810842341252 L-97.48523736105847,-1.2569301776763437 L-98.11004104831014,-0.6754656633946212" fill="purple" fill-opacity="0.6" stroke="black" stroke-width="1" />
<path d="M-94.11468736572905,1.889810842341252 L-97.48523736105847,1.2569301776763437 L-98.11004104831014,0.6754656633946212" fill="blue" fill-opacity="0.6" stroke="black" stroke-width="1" />
<path d="M-97.48523736105847,-1.2569301776763437 L-98.11004104831014,-0.6754656633946212 L-99.0,-1.0" fill="black" fill-opacity="0.6" stroke="black" stroke-width="1" />
<path d="M-97.48523736105847,1.2569301776763437 L-98.11004104831014,0.6754656633946212 L-99.0,1.0" fill="blue" fill-opacity="0.6" stroke="black" stroke-width="1" />
<path d="M-98.11004104831014,-0.6754656633946212 L-99.0,-1.0 L-100.0,-0.0" fill="red" fill-opacity="0.6" stroke="black" stroke-width="1" />
<path d="M-98.11004104831014,0.6754656633946212 L-99.0,1.0 L-100.0,-0.0" fill="red" fill-opacity="0.6" stroke="black" stroke-width="1" />
</svg>