<?xml version="1.0" encoding="UTF-8"?>
<svg xmlns="http://www.w3.org/2000/svg" xmlns:xlink="http://www.w3.org/1999/xlink"
     width="250" height="250" viewBox="-125.0 -125.0 250 250">
<defs>
</defs>
<path d="M11.0,-0.0 L12.467307801357196,-4.234413747967347 L15.078735069802018,-5.696630755877703" fill-opacity="0" stroke="black" stroke-width="1" />
<path d="M11.0,-0.0 L12.467307801357196,4.234413747967347 L15.078735069802018,5.696630755877703" fill-opacity="0" stroke="black" stroke-width="1" />
<path d="M12.467307801357196,-4.234413747967347 L15.078735069802018,-5.696630755877703 L23.0,-0.0" fill-opacity="0" stroke="black" stroke-width="1" />
<path d="M12.467307801357196,4.234413747967347 L15.078735069802018,5.696630755877703 L23.0,-0.0" fill-opacity="0" stroke="black" stroke-width="1" />
<path d="M23.0,-0.0 L23.467261497252757,-9.274195389444875 L27.19361137080513,-12.215371948727102" fill-opacity="0" stroke="black" stroke-width="1" />
<path d="M23.0,-0.0 L23.467261497252757,9.274195389444875 L27.19361137080513,12.215371948727102" fill-opacity="0" stroke="black" stroke-width="1" />
<path d="M23.467261497252757,-9.274195389444875 L27.19361137080513,-12.215371948727102 L34.0,-0.0" fill-opacity="0" stroke="black" stroke-width="1" />
<path d="M23.467261497252757,9.274195389444875 L27.19361137080513,12.215371948727102 L34.0,-0.0" fill-opacity="0" stroke="black" stroke-width="1" />
<path d="M50.0,-13.0 L37.02173747924987,-28.329508819788828 L50.0,-30.0" fill-opacity="0" stroke="black" stroke-width="1" />
<path d="M50.0,13.0 L37.02173747924987,28.329508819788828 L50.0,30.0" fill-opacity="0" stroke="black" stroke-width="1" />
<path d="M50.0,-35.0 L44.7332320856428,-35.74271305411718 L50.0,-42.0" fill-opacity="0" stroke="black" stroke-width="1" />
<path d="M50.0,35.0 L44.7332320856428,35.74271305411718 L50.0,42.0" fill-opacity="0" stroke="black" stroke-width="1" />
<path d="M50.0,50.0 L41.0,59.0 L34.586130448866875,61.02286595549188" fill-opacity="0" stroke="black" stroke-width="1" />
<path d="M50.0,-50.0 L41.0,-59.0 L34.586130448866875,-61.02286595549188" fill-opacity="0" stroke="black" stroke-width="1" />
<path d="M41.0,-41.0 L38.97713404450812,-34.586130448866875 L37.53932440351487,-29.57492399896878" fill-opacity="0" stroke="black" stroke-width="1" />
<path d="M41.0,41.0 L38.97713404450812,34.586130448866875 L37.53932440351487,29.57492399896878" fill-opacity="0" stroke="black" stroke-width="1" />
<path d="M38.97713404450812,-34.586130448866875 L37.53932440351487,-29.57492399896878 L31.0,-31.0" fill-opacity="0" stroke="black" stroke-width="1" />
<path d="M38.97713404450812,34.586130448866875 L37.53932440351487,29.57492399896878 L31.0,31.0" fill-opacity="0" stroke="black" stroke-width="1" />
<path d="M29.57492399896878,62.46067559648513 L31.0,69.0 L16.0,84.0" fill-opacity="0" stroke="black" stroke-width="1" />
<path d="M29.57492399896878,-62.46067559648513 L31.0,-69.0 L16.0,-84.0" fill-opacity="0" stroke="black" stroke-width="1" />
<path d="M31.0,69.0 L16.0,84.0 L1.9524038603361076,90.58097930446803" fill-opacity="0" stroke="black" stroke-width="1" />
<path d="M31.0,-69.0 L16.0,-84.0 L1.9524038603361076,-90.58097930446803" fill-opacity="0" stroke="black" stroke-width="1" />
<path d="M16.0,-16.0 L9.419020695531971,-1.9524038603361076 L9.0,-9.0" fill-opacity="0" stroke="black" stroke-width="1" />
<path d="M16.0,16.0 L9.419020695531971,1.9524038603361076 L9.0,9.0" fill-opacity="0" stroke="black" stroke-width="1" />
<path d="M1.9524038603361076,90.58097930446803 L9.0,91.0 L1.6541333309481054,92.13919234579164" fill-opacity="0" stroke="black" stroke-width="1" />
<path d="M1.9524038603361076,-90.58097930446803 L9.0,-91.0 L1.6541333309481054,-92.13919234579164" fill-opacity="0" stroke="black" stroke-width="1" />
<path d="M9.0,-9.0 L7.860807654208358,-1.6541333309481054 L5.0,-5.0" fill-opacity="0" stroke="black" stroke-width="1" />
<path d="M9.0,9.0 L7.860807654208358,1.6541333309481054 L5.0,5.0" fill-opacity="0" stroke="black" stroke-width="1" />
<path d="M1.6541333309481054,92.13919234579164 L5.0,95.0 L1.3080030349958096,96.56555215638396" fill-opacity="0" stroke="black" stroke-width="1" />
<path d="M1.6541333309481054,-92.13919234579164 L5.0,-95.0 L1.3080030349958096,-96.56555215638396" fill-opacity="0" stroke="black" stroke-width="1" />
<path d="M5.0,-5.0 L3.4344478436160397,-1.3080030349958096 L3.0,-3.0" fill-opacity="0" stroke="black" stroke-width="1" />
<path d="M5.0,5.0 L3.4344478436160397,1.3080030349958096 L3.0,3.0" fill-opacity="0" stroke="black" stroke-width="1" />
<path d="M1.3080030349958096,96.56555215638396 L3.0,97.0 L2.0,98.0" fill-opacity="0" stroke="black" stroke-width="1" />
<path d="M1.3080030349958096,-96.56555215638396 L3.0,-97.0 L2.0,-98.0" fill-opacity="0" stroke="black" stroke-width="1" />
<path d="M3.0,97.0 L2.0,98.0 L0.9124135005192533,99.00476594058878" fill-opacity="0" stroke="black" stroke-width="1" />
<path d="M3.0,-97.0 L2.0,-98.0 L0.9124135005192533,-99.00476594058878" fill-opacity="0" stroke="black" stroke-width="1" />
<path d="M2.0,-2.0 L0.9952340594112098,-0.9124135005192533 L0.0,-0.0" fill-opacity="0" stroke="black" stroke-width="1" />
<path d="M2.0,2.0 L0.9952340594112098,0.9124135005192533 L0.0,-0.0" fill-opacity="0" stroke="black" stroke-width="1" />
<path d="M-11.0,-0.0 L-12.467307801357196,-4.234413747967347 L-15.078735069802018,-5.696630755877703" fill-opacity="0" stroke="black" stroke-width="1" />
<path d="M-11.0,-0.0 L-12.467307801357196,4.234413747967347 L-15.078735069802018,5.696630755877703" fill-opacity="0" stroke="black" stroke-width="1" />
<path d="M-12.467307801357196,-4.234413747967347 L-15.078735069802018,-5.696630755877703 L-23.0,-0.0" fill-opacity="0" stroke="black" stroke-width="1" />
<path d="M-12.467307801357196,4.234413747967347 L-15.078735069802018,5.696630755877703 L-23.0,-0.0" fill-opacity="0" stroke="black" stroke-width="1" />
<path d="M-23.0,-0.0 L-23.467261497252757,-9.274195389444875 L-27.19361137080513,-12.215371948727102" fill-opacity="0" stroke="black" stroke-width="1" />
<path d="M-23.0,-0.0 L-23.467261497252757,9.274195389444875 L-27.19361137080513,12.215371948727102" fill-opacity="0" stroke="black" stroke-width="1" />
<path d="M-23.467261497252757,-9.274195389444875 L-27.19361137080513,-12.215371948727102 L-34.0,-0.0" fill-opacity="0" stroke="black" stroke-width="1" />
<path d="M-23.467261497252757,9.274195389444875 L-27.19361137080513,12.215371948727102 L-34.0,-0.0" fill-opacity="0" stroke="black" stroke-width="1" />
<path d="M-50.0,-13.0 L-37.02173747924987,-28.329508819788828 L-50.0,-30.0" fill-opacity="0" stroke="black" stroke-width="1" />
<path d="M-50.0,13.0 L-37.02173747924987,28.329508819788828 L-50.0,30.0" fill-opacity="0" stroke="black" stroke-width="1" />
<path d="M-50.0,-35.0 L-44.7332320856428,-35.74271305411718 L-50.0,-42.0" fill-opacity="0" stroke="black" stroke-width="1" />
<path d="M-50.0,35.0 L-44.7332320856428,35.74271305411718 L-50.0,42.0" fill-opacity="0" stroke="black" stroke-width="1" />
<path d="M-50.0,50.0 L-41.0,59.0 L-34.586130448866875,61.02286595549188" fill-opacity="0" stroke="black" stroke-width="1" />
<path d="M-50.0,-50.0 L-41.0,-59.0 L-34.586130448866875,-61.02286595549188" fill-opacity="0" stroke="black" stroke-width="1" />
<path d="M-41.0,-41.0 L-38.97713404450812,-34.586130448866875 L-37.53932440351487,-29.57492399896878" fill-opacity="0" stroke="black" stroke-width="1" />
<path d="M-41.0,41.0 L-38.97713404450812,34.586130448866875 L-37.53932440351487,29.57492399896878" fill-opacity="0" stroke="black" stroke-width="1" />
<path d="M-38.97713404450812,-34.586130448866875 L-37.53932440351487,-29.57492399896878 L-31.0,-31.0" fill-opacity="0" stroke="black" stroke-width="1" />
<path d="M-38.97713404450812,34.586130448866875 L-37.53932440351487,29.57492399896878 L-31.0,31.0" fill-opacity="0" stroke="black" stroke-width="1" />
<path d="M-29.57492399896878,62.46067559648513 L-31.0,69.0 L-16.0,84.0" fill-opacity="0" stroke="black" stroke-width="1" />
<path d="M-29.57492399896878,-62.46067559648513 L-31.0,-69.0 L-16.0,-84.0" fill-opacity="0" stroke="black" stroke-width="1" />
<path d="M-31.0,69.0 L-16.0,84.0 L-1.9524038603361076,90.58097930446803" fill-opacity="0" stroke="black" stroke-width="1" />
<path d="M-31.0,-69.0 L-16.0,-84.0 L-1.9524038603361076,-90.58097930446803" fill-opacity="0" stroke="black" stroke-width="1" />
<path d="M-16.0,-16.0 L-9.419020695531971,-1.9524038603361076 L-9.0,-9.0" fill-opacity="0" stroke="black" stroke-width="1" />
<path d="M-16.0,16.0 L-9.419020695531971,1.9524038603361076 L-9.0,9.0" fill-opacity="0" stroke="black" stroke-width="1" />
<path d="M-1.9524038603361076,90.58097930446803 L-9.0,91.0 L-1.6541333309481054,92.13919234579164" fill-opacity="0" stroke="black" stroke-width="1" />
<path d="M-1.9524038603361076,-90.58097930446803 L-9.0,-91.0 L-1.6541333309481054,-92.13919234579164" fill-opacity="0" stroke="black" stroke-width="1" />
<path d="M-9.0,-9.0 L-7.860807654208358,-1.6541333309481054 L-5.0,-5.0" fill-opacity="0" stroke="black" stroke-width="1" />
<path d="M-9.0,9.0 L-7.860807654208358,1.6541333309481054 L-5.0,5.0" fill-opacity="0" stroke="black" stroke-width="1" />
<path d="M-1.6541333309481054,92.13919234579164 L-5.0,95.0 L-1.3080030349958096,96.56555215638396" fill-opacity="0" stroke="black" stroke-width="1" />
<path d="M-1.6541333309481054,-92.13919234579164 L-5.0,-95.0 L-1.3080030349958096,-96.56555215638396" fill-opacity="0" stroke="black" stroke-width="1" />
<path d="M-5.0,-5.0 L-3.4344478436160397,-1.3080030349958096 L-3.0,-3.0" fill-opacity="0" stroke="black" stroke-width="1" />
<path d="M-5.0,5.0 L-3.4344478436160397,1.3080030349958096 L-3.0,3.0" fill-opacity="0" stroke="black" stroke-width="1" />
<path d="M-1.3080030349958096,96.56555215638396 L-3.0,97.0 L-2.0,98.0" fill-opacity="0" stroke="black" stroke-width="1" />
<path d="M-1.3080030349958096,-96.56555215638396 L-3.0,-97.0 L-2.0,-98.0" fill-opacity="0" stroke="black" stroke-width="1" />
<path d="M-3.0,97.0 L-2.0,98.0 L-0.9124135005192533,99.0047659405888" fill-opacity="0" stroke="black" stroke-width="1" />
<path d="M-3.0,-97.0 L-2.0,-98.0 L-0.9124135005192533,-99.00476594058878" fill-opacity="0" stroke="black" stroke-width="1" />
<path d="M-2.0,-2.0 L-0.9952340594112098,-0.9124135005192533 L0.0,-0.0" fill-opacity="0" stroke="black" stroke-width="1" />
<path d="M-2.0,2.0 L-0.9952340594112098,0.9124135005192533 L0.0,-0.0" fill-opacity="0" stroke="black" stroke-width="1" />
<path d="M89.0,-0.0 L87.5326921986428,4.234413747967347 L84.92126493019798,5.696630755877703" fill-opacity="0" stroke="black" stroke-width="1" />
<path d="M89.0,-0.0 L87.5326921986428,-4.234413747967347 L84.92126493019798,-5.696630755877703" fill-opacity="0" stroke="black" stroke-width="1" />
<path d="M87.5326921986428,4.234413747967347 L84.92126493019798,5.696630755877703 L77.0,-0.0" fill-opacity="0" stroke="black" stroke-width="1" />
<path d="M87.5326921986428,-4.234413747967347 L84.92126493019798,-5.696630755877703 L77.0,-0.0" fill-opacity="0" stroke="black" stroke-width="1" />
<path d="M77.0,-0.0 L76.53273850274724,9.274195389444875 L72.80638862919487,12.215371948727102" fill-opacity="0" stroke="black" stroke-width="1" />
<path d="M77.0,-0.0 L76.53273850274724,-9.274195389444875 L72.80638862919487,-12.215371948727102" fill-opacity="0" stroke="black" stroke-width="1" />
<path d="M76.53273850274724,9.274195389444875 L72.80638862919487,12.215371948727102 L66.0,-0.0" fill-opacity="0" stroke="black" stroke-width="1" />
<path d="M76.53273850274724,-9.274195389444875 L72.80638862919487,-12.215371948727102 L66.0,-0.0" fill-opacity="0" stroke="black" stroke-width="1" />
<path d="M50.0,13.0 L62.97826252075013,28.329508819788828 L50.0,30.0" fill-opacity="0" stroke="black" stroke-width="1" />
<path d="M50.0,-13.0 L62.97826252075013,-28.329508819788828 L50.0,-30.0" fill-opacity="0" stroke="black" stroke-width="1" />
<path d="M50.0,35.0 L55.2667679143572,35.74271305411718 L50.0,42.0" fill-opacity="0" stroke="black" stroke-width="1" />
<path d="M50.0,-35.0 L55.2667679143572,-35.74271305411718 L50.0,-42.0" fill-opacity="0" stroke="black" stroke-width="1" />
<path d="M50.0,50.0 L59.0,41.0 L61.02286595549188,34.586130448866875" fill-opacity="0" stroke="black" stroke-width="1" />
<path d="M50.0,-50.0 L59.0,-41.0 L61.02286595549188,-34.586130448866875" fill-opacity="0" stroke="black" stroke-width="1" />
<path d="M59.0,41.0 L61.02286595549188,34.586130448866875 L62.46067559648513,29.57492399896878" fill-opacity="0" stroke="black" stroke-width="1" />
<path d="M59.0,-41.0 L61.02286595549188,-34.586130448866875 L62.46067559648513,-29.57492399896878" fill-opacity="0" stroke="black" stroke-width="1" />
<path d="M61.02286595549188,34.586130448866875 L62.46067559648513,29.57492399896878 L69.0,31.0" fill-opacity="0" stroke="black" stroke-width="1" />
<path d="M61.02286595549188,-34.586130448866875 L62.46067559648513,-29.57492399896878 L69.0,-31.0" fill-opacity="0" stroke="black" stroke-width="1" />
<path d="M62.46067559648513,29.57492399896878 L69.0,31.0 L84.0,16.0" fill-opacity="0" stroke="black" stroke-width="1" />
<path d="M62.46067559648513,-29.57492399896878 L69.0,-31.0 L84.0,-16.0" fill-opacity="0" stroke="black" stroke-width="1" />
<path d="M69.0,31.0 L84.0,16.0 L90.58097930446803,1.9524038603361076" fill-opacity="0" stroke="black" stroke-width="1" />
<path d="M69.0,-31.0 L84.0,-16.0 L90.58097930446803,-1.9524038603361076" fill-opacity="0" stroke="black" stroke-width="1" />
<path d="M84.0,16.0 L90.58097930446803,1.9524038603361076 L91.0,9.0" fill-opacity="0" stroke="black" stroke-width="1" />
<path d="M84.0,-16.0 L90.58097930446803,-1.9524038603361076 L91.0,-9.0" fill-opacity="0" stroke="black" stroke-width="1" />
<path d="M90.58097930446803,1.9524038603361076 L91.0,9.0 L92.13919234579164,1.6541333309481054" fill-opacity="0" stroke="black" stroke-width="1" />
<path d="M90.58097930446803,-1.9524038603361076 L91.0,-9.0 L92.13919234579164,-1.6541333309481054" fill-opacity="0" stroke="black" stroke-width="1" />
<path d="M91.0,9.0 L92.13919234579164,1.6541333309481054 L95.0,5.0" fill-opacity="0" stroke="black" stroke-width="1" />
<path d="M91.0,-9.0 L92.13919234579164,-1.6541333309481054 L95.0,-5.0" fill-opacity="0" stroke="black" stroke-width="1" />
<path d="M92.13919234579164,1.6541333309481054 L95.0,5.0 L96.56555215638396,1.3080030349958096" fill-opacity="0" stroke="black" stroke-width="1" />
<path d="M92.13919234579164,-1.6541333309481054 L95.0,-5.0 L96.56555215638396,-1.3080030349958096" fill-opacity="0" stroke="black" stroke-width="1" />
<path d="M95.0,5.0 L96.56555215638396,1.3080030349958096 L97.0,3.0" fill-opacity="0" stroke="black" stroke-width="1" />
<path d="M95.0,-5.0 L96.56555215638396,-1.3080030349958096 L97.0,-3.0" fill-opacity="0" stroke="black" stroke-width="1" />
<path d="M96.56555215638396,1.3080030349958096 L97.0,3.0 L98.0,2.0" fill-opacity="0" stroke="black" stroke-width="1" />
<path d="M96.56555215638396,-1.3080030349958096 L97.0,-3.0 L98.0,-2.0" fill-opacity="0" stroke="black" stroke-width="1" />
<path d="M97.0,3.0 L98.0,2.0 L99.00476594058878,0.9124135005192533" fill-opacity="0" stroke="black" stroke-width="1" />
<path d="M97.0,-3.0 L98.0,-2.0 L99.00476594058878,-0.9124135005192533" fill-opacity="0" stroke="black" stroke-width="1" />
<path d="M98.0,2.0 L99.00476594058878,0.9124135005192533 L100.0,-0.0" fill-opacity="0" stroke="black" stroke-width="1" />
<path d="M98.0,-2.0 L99.00476594058878,-0.9124135005192533 L100.0,-0.0" fill-opacity="0" stroke="black" stroke-width="1" />
<path d="M0.0,-11.0 L4.234413747967347,-12.467307801357196 L5.696630755877703,-15.078735069802018" fill-opacity="0" stroke="black" stroke-width="1" />
<path d="M0.0,11.0 L4.234413747967347,12.467307801357196 L5.696630755877703,15.078735069802018" fill-opacity="0" stroke="black" stroke-width="1" />
<path d="M0.0,89.0 L4.234413747967347,87.5326921986428 L5.696630755877703,84.92126493019798" fill-opacity="0" stroke="black" stroke-width="1" />
<path d="M0.0,-89.0 L4.234413747967347,-87.5326921986428 L5.696630755877703,-84.92126493019798" fill-opacity="0" stroke="black" stroke-width="1" />
<path d="M4.234413747967347,-12.467307801357196 L5.696630755877703,-15.078735069802018 L0.0,-23.0" fill-opacity="0" stroke="black" stroke-width="1" />
<path d="M4.234413747967347,12.467307801357196 L5.696630755877703,15.078735069802018 L0.0,23.0" fill-opacity="0" stroke="black" stroke-width="1" />
<path d="M4.234413747967347,87.5326921986428 L5.696630755877703,84.92126493019798 L0.0,77.0" fill-opacity="0" stroke="black" stroke-width="1" />
<path d="M4.234413747967347,-87.5326921986428 L5.696630755877703,-84.92126493019798 L0.0,-77.0" fill-opacity="0" stroke="black" stroke-width="1" />
<path d="M0.0,-23.0 L9.274195389444875,-23.467261497252757 L12.215371948727102,-27.19361137080513" fill-opacity="0" stroke="black" stroke-width="1" />
<path d="M0.0,23.0 L9.274195389444875,23.467261497252757 L12.215371948727102,27.19361137080513" fill-opacity="0" stroke="black" stroke-width="1" />
<path d="M0.0,77.0 L9.274195389444875,76.53273850274724 L12.215371948727102,72.80638862919487" fill-opacity="0" stroke="black" stroke-width="1" />
<path d="M0.0,-77.0 L9.274195389444875,-76.53273850274724 L12.215371948727102,-72.80638862919487" fill-opacity="0" stroke="black" stroke-width="1" />
<path d="M9.274195389444875,-23.467261497252757 L12.215371948727102,-27.19361137080513 L0.0,-34.0" fill-opacity="0" stroke="black" stroke-width="1" />
<path d="M9.274195389444875,23.467261497252757 L12.215371948727102,27.19361137080513 L0.0,34.0" fill-opacity="0" stroke="black" stroke-width="1" />
<path d="M9.274195389444875,76.53273850274724 L12.215371948727102,72.80638862919487 L0.0,66.0" fill-opacity="0" stroke="black" stroke-width="1" />
<path d="M9.274195389444875,-76.53273850274724 L12.215371948727102,-72.80638862919487 L0.0,-66.0" fill-opacity="0" stroke="black" stroke-width="1" />
<path d="M13.0,-50.0 L28.329508819788828,-37.02173747924987 L30.0,-50.0" fill-opacity="0" stroke="black" stroke-width="1" />
<path d="M13.0,50.0 L28.329508819788828,37.02173747924987 L30.0,50.0" fill-opacity="0" stroke="black" stroke-width="1" />
<path d="M13.0,50.0 L28.329508819788828,62.97826252075013 L30.0,50.0" fill-opacity="0" stroke="black" stroke-width="1" />
<path d="M13.0,-50.0 L28.329508819788828,-62.97826252075013 L30.0,-50.0" fill-opacity="0" stroke="black" stroke-width="1" />
<path d="M35.0,-50.0 L35.74271305411718,-44.7332320856428 L42.0,-50.0" fill-opacity="0" stroke="black" stroke-width="1" />
<path d="M35.0,50.0 L35.74271305411718,44.7332320856428 L42.0,50.0" fill-opacity="0" stroke="black" stroke-width="1" />
<path d="M35.0,50.0 L35.74271305411718,55.2667679143572 L42.0,50.0" fill-opacity="0" stroke="black" stroke-width="1" />
<path d="M35.0,-50.0 L35.74271305411718,-55.2667679143572 L42.0,-50.0" fill-opacity="0" stroke="black" stroke-width="1" />
<path d="M41.0,-41.0 L34.586130448866875,-38.97713404450812 L29.57492399896878,-37.53932440351487" fill-opacity="0" stroke="black" stroke-width="1" />
<path d="M41.0,41.0 L34.586130448866875,38.97713404450812 L29.57492399896878,37.53932440351487" fill-opacity="0" stroke="black" stroke-width="1" />
<path d="M41.0,59.0 L34.586130448866875,61.02286595549188 L29.57492399896878,62.46067559648513" fill-opacity="0" stroke="black" stroke-width="1" />
<path d="M41.0,-59.0 L34.586130448866875,-61.02286595549188 L29.57492399896878,-62.46067559648513" fill-opacity="0" stroke="black" stroke-width="1" />
<path d="M34.586130448866875,-38.97713404450812 L29.57492399896878,-37.53932440351487 L31.0,-31.0" fill-opacity="0" stroke="black" stroke-width="1" />
<path d="M34.586130448866875,38.97713404450812 L29.57492399896878,37.53932440351487 L31.0,31.0" fill-opacity="0" stroke="black" stroke-width="1" />
<path d="M34.586130448866875,61.02286595549188 L29.57492399896878,62.46067559648513 L31.0,69.0" fill-opacity="0" stroke="black" stroke-width="1" />
<path d="M34.586130448866875,-61.02286595549188 L29.57492399896878,-62.46067559648513 L31.0,-69.0" fill-opacity="0" stroke="black" stroke-width="1" />
<path d="M16.0,-16.0 L1.9524038603361076,-9.419020695531971 L9.0,-9.0" fill-opacity="0" stroke="black" stroke-width="1" />
<path d="M16.0,16.0 L1.9524038603361076,9.419020695531971 L9.0,9.0" fill-opacity="0" stroke="black" stroke-width="1" />
<path d="M16.0,84.0 L1.9524038603361076,90.58097930446803 L9.0,91.0" fill-opacity="0" stroke="black" stroke-width="1" />
<path d="M16.0,-84.0 L1.9524038603361076,-90.58097930446803 L9.0,-91.0" fill-opacity="0" stroke="black" stroke-width="1" />
<path d="M9.0,-9.0 L1.6541333309481054,-7.860807654208358 L5.0,-5.0" fill-opacity="0" stroke="black" stroke-width="1" />
<path d="M9.0,9.0 L1.6541333309481054,7.860807654208358 L5.0,5.0" fill-opacity="0" stroke="black" stroke-width="1" />
<path d="M9.0,91.0 L1.6541333309481054,92.13919234579164 L5.0,95.0" fill-opacity="0" stroke="black" stroke-width="1" />
<path d="M9.0,-91.0 L1.6541333309481054,-92.13919234579164 L5.0,-95.0" fill-opacity="0" stroke="black" stroke-width="1" />
<path d="M5.0,-5.0 L1.3080030349958096,-3.4344478436160397 L3.0,-3.0" fill-opacity="0" stroke="black" stroke-width="1" />
<path d="M5.0,5.0 L1.3080030349958096,3.4344478436160397 L3.0,3.0" fill-opacity="0" stroke="black" stroke-width="1" />
<path d="M5.0,95.0 L1.3080030349958096,96.56555215638396 L3.0,97.0" fill-opacity="0" stroke="black" stroke-width="1" />
<path d="M5.0,-95.0 L1.3080030349958096,-96.56555215638396 L3.0,-97.0" fill-opacity="0" stroke="black" stroke-width="1" />
<path d="M2.0,-2.0 L0.9124135005192533,-0.9952340594112098 L0.0,-0.0" fill-opacity="0" stroke="black" stroke-width="1" />
<path d="M2.0,2.0 L0.9124135005192533,0.9952340594112098 L0.0,-0.0" fill-opacity="0" stroke="black" stroke-width="1" />
<path d="M2.0,98.0 L0.9124135005192533,99.00476594058878 L0.0,100.0" fill-opacity="0" stroke="black" stroke-width="1" />
<path d="M2.0,-98.0 L0.9124135005192533,-99.00476594058878 L0.0,-100.0" fill-opacity="0" stroke="black" stroke-width="1" />
<path d="M0.0,89.0 L-4.234413747967347,87.5326921986428 L-5.696630755877703,84.92126493019798" fill-opacity="0" stroke="black" stroke-width="1" />
<path d="M0.0,-11.0 L-4.234413747967347,-12.467307801357196 L-5.696630755877703,-15.078735069802018" fill-opacity="0" stroke="black" stroke-width="1" />
<path d="M0.0,11.0 L-4.234413747967347,12.467307801357194 L-5.696630755877703,15.078735069802022" fill-opacity="0" stroke="black" stroke-width="1" />
<path d="M0.0,-89.0 L-4.234413747967347,-87.5326921986428 L-5.696630755877703,-84.92126493019798" fill-opacity="0" stroke="black" stroke-width="1" />
<path d="M-4.234413747967347,87.5326921986428 L-5.696630755877703,84.92126493019798 L0.0,77.0" fill-opacity="0" stroke="black" stroke-width="1" />
<path d="M-4.234413747967347,-12.467307801357196 L-5.696630755877703,-15.078735069802018 L0.0,-23.0" fill-opacity="0" stroke="black" stroke-width="1" />
<path d="M-4.234413747967347,12.467307801357194 L-5.696630755877703,15.078735069802022 L0.0,23.0" fill-opacity="0" stroke="black" stroke-width="1" />
<path d="M-4.234413747967347,-87.5326921986428 L-5.696630755877703,-84.92126493019798 L0.0,-77.0" fill-opacity="0" stroke="black" stroke-width="1" />
<path d="M0.0,77.0 L-9.274195389444875,76.53273850274724 L-12.215371948727102,72.80638862919487" fill-opacity="0" stroke="black" stroke-width="1" />
<path d="M0.0,-23.0 L-9.274195389444875,-23.467261497252757 L-12.215371948727102,-27.19361137080513" fill-opacity="0" stroke="black" stroke-width="1" />
<path d="M0.0,23.0 L-9.274195389444875,23.467261497252764 L-12.215371948727102,27.19361137080513" fill-opacity="0" stroke="black" stroke-width="1" />
<path d="M0.0,-77.0 L-9.274195389444875,-76.53273850274724 L-12.215371948727102,-72.80638862919487" fill-opacity="0" stroke="black" stroke-width="1" />
<path d="M-9.274195389444875,76.53273850274724 L-12.215371948727102,72.80638862919487 L0.0,66.0" fill-opacity="0" stroke="black" stroke-width="1" />
<path d="M-9.274195389444875,-23.467261497252757 L-12.215371948727102,-27.19361137080513 L0.0,-34.0" fill-opacity="0" stroke="black" stroke-width="1" />
<path d="M-9.274195389444875,23.467261497252764 L-12.215371948727102,27.19361137080513 L0.0,34.0" fill-opacity="0" stroke="black" stroke-width="1" />
<path d="M-9.274195389444875,-76.53273850274724 L-12.215371948727102,-72.80638862919487 L0.0,-66.0" fill-opacity="0" stroke="black" stroke-width="1" />
<path d="M-13.0,50.0 L-28.329508819788828,62.97826252075013 L-30.0,50.0" fill-opacity="0" stroke="black" stroke-width="1" />
<path d="M-13.0,-50.0 L-28.329508819788828,-37.02173747924987 L-30.0,-50.0" fill-opacity="0" stroke="black" stroke-width="1" />
<path d="M-13.0,50.0 L-28.329508819788828,37.02173747924987 L-30.0,50.0" fill-opacity="0" stroke="black" stroke-width="1" />
<path d="M-13.0,-50.0 L-28.329508819788828,-62.97826252075013 L-30.0,-50.0" fill-opacity="0" stroke="black" stroke-width="1" />
<path d="M-35.0,50.0 L-35.74271305411718,55.2667679143572 L-42.0,50.0" fill-opacity="0" stroke="black" stroke-width="1" />
<path d="M-35.0,-50.0 L-35.74271305411718,-44.7332320856428 L-42.0,-50.0" fill-opacity="0" stroke="black" stroke-width="1" />
<path d="M-35.0,50.0 L-35.74271305411718,44.7332320856428 L-42.0,50.0" fill-opacity="0" stroke="black" stroke-width="1" />
<path d="M-35.0,-50.0 L-35.74271305411718,-55.2667679143572 L-42.0,-50.0" fill-opacity="0" stroke="black" stroke-width="1" />
<path d="M-41.0,59.0 L-34.586130448866875,61.02286595549188 L-29.57492399896878,62.46067559648513" fill-opacity="0" stroke="black" stroke-width="1" />
<path d="M-41.0,-41.0 L-34.586130448866875,-38.97713404450812 L-29.57492399896878,-37.53932440351487" fill-opacity="0" stroke="black" stroke-width="1" />
<path d="M-41.0,41.0 L-34.586130448866875,38.97713404450812 L-29.57492399896878,37.53932440351487" fill-opacity="0" stroke="black" stroke-width="1" />
<path d="M-41.0,-59.0 L-34.586130448866875,-61.02286595549188 L-29.57492399896878,-62.46067559648513" fill-opacity="0" stroke="black" stroke-width="1" />
<path d="M-34.586130448866875,61.02286595549188 L-29.57492399896878,62.46067559648513 L-31.0,69.0" fill-opacity="0" stroke="black" stroke-width="1" />
<path d="M-34.586130448866875,-38.97713404450812 L-29.57492399896878,-37.53932440351487 L-31.0,-31.0" fill-opacity="0" stroke="black" stroke-width="1" />
<path d="M-34.586130448866875,38.97713404450812 L-29.57492399896878,37.53932440351487 L-31.0,31.0" fill-opacity="0" stroke="black" stroke-width="1" />
<path d="M-34.586130448866875,-61.02286595549188 L-29.57492399896878,-62.46067559648513 L-31.0,-69.0" fill-opacity="0" stroke="black" stroke-width="1" />
<path d="M-16.0,84.0 L-1.9524038603361076,90.58097930446803 L-9.0,91.0" fill-opacity="0" stroke="black" stroke-width="1" />
<path d="M-16.0,-16.0 L-1.9524038603361076,-9.419020695531971 L-9.0,-9.0" fill-opacity="0" stroke="black" stroke-width="1" />
<path d="M-16.0,16.0 L-1.9524038603361076,9.41902069553197 L-9.0,9.0" fill-opacity="0" stroke="black" stroke-width="1" />
<path d="M-16.0,-84.0 L-1.9524038603361076,-90.58097930446803 L-9.0,-91.0" fill-opacity="0" stroke="black" stroke-width="1" />
<path d="M-9.0,91.0 L-1.6541333309481054,92.13919234579164 L-5.0,95.0" fill-opacity="0" stroke="black" stroke-width="1" />
<path d="M-9.0,-9.0 L-1.6541333309481054,-7.860807654208358 L-5.0,-5.0" fill-opacity="0" stroke="black" stroke-width="1" />
<path d="M-9.0,9.0 L-1.6541333309481054,7.860807654208358 L-5.0,5.0" fill-opacity="0" stroke="black" stroke-width="1" />
<path d="M-9.0,-91.0 L-1.6541333309481054,-92.13919234579164 L-5.0,-95.0" fill-opacity="0" stroke="black" stroke-width="1" />
<path d="M-5.0,95.0 L-1.3080030349958096,96.56555215638396 L-3.0,97.0" fill-opacity="0" stroke="black" stroke-width="1" />
<path d="M-5.0,-5.0 L-1.3080030349958096,-3.4344478436160397 L-3.0,-3.0" fill-opacity="0" stroke="black" stroke-width="1" />
<path d="M-5.0,5.0 L-1.3080030349958096,3.4344478436160415 L-3.0,3.0" fill-opacity="0" stroke="black" stroke-width="1" />
<path d="M-5.0,-95.0 L-1.3080030349958096,-96.56555215638396 L-3.0,-97.0" fill-opacity="0" stroke="black" stroke-width="1" />
<path d="M-2.0,98.0 L-0.9124135005192533,99.0047659405888 L0.0,100.0" fill-opacity="0" stroke="black" stroke-width="1" />
<path d="M-2.0,-2.0 L-0.9124135005192533,-0.9952340594112098 L0.0,-0.0" fill-opacity="0" stroke="black" stroke-width="1" />
<path d="M-2.0,2.0 L-0.9124135005192533,0.995234059411203 L0.0,-0.0" fill-opacity="0" stroke="black" stroke-width="1" />
<path d="M-2.0,-98.0 L-0.9124135005192533,-99.00476594058878 L0.0,-100.0" fill-opacity="0" stroke="black" stroke-width="1" />
<path d="M-89.0,-0.0 L-87.5326921986428,-4.234413747967347 L-84.92126493019798,-5.696630755877703" fill-opacity="0" stroke="black" stroke-width="1" />
<path d="M-89.0,-0.0 L-87.5326921986428,4.234413747967347 L-84.92126493019798,5.696630755877703" fill-opacity="0" stroke="black" stroke-width="1" />
<path d="M-87.5326921986428,-4.234413747967347 L-84.92126493019798,-5.696630755877703 L-77.0,-0.0" fill-opacity="0" stroke="black" stroke-width="1" />
<path d="M-87.5326921986428,4.234413747967347 L-84.92126493019798,5.696630755877703 L-77.0,-0.0" fill-opacity="0" stroke="black" stroke-width="1" />
<path d="M-77.0,-0.0 L-76.53273850274724,-9.274195389444875 L-72.80638862919487,-12.215371948727102" fill-opacity="0" stroke="black" stroke-width="1" />
<path d="M-77.0,-0.0 L-76.53273850274724,9.274195389444875 L-72.80638862919487,12.215371948727102" fill-opacity="0" stroke="black" stroke-width="1" />
<path d="M-76.53273850274724,-9.274195389444875 L-72.80638862919487,-12.215371948727102 L-66.0,-0.0" fill-opacity="0" stroke="black" stroke-width="1" />
<path d="M-76.53273850274724,9.274195389444875 L-72.80638862919487,12.215371948727102 L-66.0,-0.0" fill-opacity="0" stroke="black" stroke-width="1" />
<path d="M-50.0,-13.0 L-62.97826252075013,-28.329508819788828 L-50.0,-30.0" fill-opacity="0" stroke="black" stroke-width="1" />
<path d="M-50.0,13.0 L-62.97826252075013,28.329508819788828 L-50.0,30.0" fill-opacity="0" stroke="black" stroke-width="1" />
<path d="M-50.0,-35.0 L-55.2667679143572,-35.74271305411718 L-50.0,-42.0" fill-opacity="0" stroke="black" stroke-width="1" />
<path d="M-50.0,35.0 L-55.2667679143572,35.74271305411718 L-50.0,42.0" fill-opacity="0" stroke="black" stroke-width="1" />
<path d="M-50.0,-50.0 L-59.0,-41.0 L-61.02286595549188,-34.586130448866875" fill-opacity="0" stroke="black" stroke-width="1" />
<path d="M-50.0,50.0 L-59.0,41.0 L-61.02286595549188,34.586130448866875" fill-opacity="0" stroke="black" stroke-width="1" />
<path d="M-59.0,-41.0 L-61.02286595549188,-34.586130448866875 L-62.46067559648513,-29.57492399896878" fill-opacity="0" stroke="black" stroke-width="1" />
<path d="M-59.0,41.0 L-61.02286595549188,34.586130448866875 L-62.46067559648513,29.57492399896878" fill-opacity="0" stroke="black" stroke-width="1" />
<path d="M-61.02286595549188,-34.586130448866875 L-62.46067559648513,-29.57492399896878 L-69.0,-31.0" fill-opacity="0" stroke="black" stroke-width="1" />
<path d="M-61.02286595549188,34.586130448866875 L-62.46067559648513,29.57492399896878 L-69.0,31.0" fill-opacity="0" stroke="black" stroke-width="1" />
<path d="M-62.46067559648513,-29.57492399896878 L-69.0,-31.0 L-84.0,-16.0" fill-opacity="0" stroke="black" stroke-width="1" />
<path d="M-62.46067559648513,29.57492399896878 L-69.0,31.0 L-84.0,16.0" fill-opacity="0" stroke="black" stroke-width="1" />
<path d="M-69.0,-31.0 L-84.0,-16.0 L-90.58097930446803,-1.9524038603361076" fill-opacity="0" stroke="black" stroke-width="1" />
<path d="M-69.0,31.0 L-84.0,16.0 L-90.58097930446803,1.9524038603361076" fill-opacity="0" stroke="black" stroke-width="1" />
<path d="M-84.0,-16.0 L-90.58097930446803,-1.9524038603361076 L-91.0,-9.0" fill-opacity="0" stroke="black" stroke-width="1" />
<path d="M-84.0,16.0 L-90.58097930446803,1.9524038603361076 L-91.0,9.0" fill-opacity="0" stroke="black" stroke-width="1" />
<path d="M-90.58097930446803,-1.9524038603361076 L-91.0,-9.0 L-92.13919234579164,-1.6541333309481054" fill-opacity="0" stroke="black" stroke-width="1" />
<path d="M-90.58097930446803,1.9524038603361076 L-91.0,9.0 L-92.13919234579164,1.6541333309481054" fill-opacity="0" stroke="black" stroke-width="1" />
<path d="M-91.0,-9.0 L-92.13919234579164,-1.6541333309481054 L-95.0,-5.0" fill-opacity="0" stroke="black" stroke-width="1" />
<path d="M-91.0,9.0 L-92.13919234579164,1.6541333309481054 L-95.0,5.0" fill-opacity="0" stroke="black" stroke-width="1" />
<path d="M-92.13919234579164,-1.6541333309481054 L-95.0,-5.0 L-96.56555215638396,-1.3080030349958096" fill-opacity="0" stroke="black" stroke-width="1" />
<path d="M-92.13919234579164,1.6541333309481054 L-95.0,5.0 L-96.56555215638396,1.3080030349958096" fill-opacity="0" stroke="black" stroke-width="1" />
<path d="M-95.0,-5.0 L-96.56555215638396,-1.3080030349958096 L-97.0,-3.0" fill-opacity="0" stroke="black" stroke-width="1" />
<path d="M-95.0,5.0 L-96.56555215638396,1.3080030349958096 L-97.0,3.0" fill-opacity="0" stroke="black" stroke-width="1" />
<path d="M-96.56555215638396,-1.3080030349958096 L-97.0,-3.0 L-98.0,-2.0" fill-opacity="0" stroke="black" stroke-width="1" />
<path d="M-96.56555215638396,1.3080030349958096 L-97.0,3.0 L-98.0,2.0" fill-opacity="0" stroke="black" stroke-width="1" />
<path d="M-97.0,-3.0 L-98.0,-2.0 L-99.00476594058878,-0.9124135005192533" fill-opacity="0" stroke="black" stroke-width="1" />
<path d="M-97.0,3.0 L-98.0,2.0 L-99.00476594058878,0.9124135005192533" fill-opacity="0" stroke="black" stroke-width="1" />
<path d="M-98.0,-2.0 L-99.00476594058878,-0.9124135005192533 L-100.0,-0.0" fill-opacity="0" stroke="black" stroke-width="1" />
<path d="M-98.0,2.0 L-99.00476594058878,0.9124135005192533 L-100.0,-0.0" fill-opacity="0" stroke="black" stroke-width="1" />
<circle cx="0" cy="-97" r="8" stroke-dasharray="39.653880605311166 10.611601852125524" stroke-dashoffset="-17.59291886010284" stroke="black" stroke-width="1" fill="white" fill-opacity="1" />
<circle cx="0" cy="-97" r="4" stroke="black" stroke-width="1" fill="white" fill-opacity="1" />
</svg>