<?xml version="1.0" encoding="UTF-8"?>
<svg xmlns="http://www.w3.org/2000/svg" xmlns:xlink="http://www.w3.org/1999/xlink"
     width="250" height="250" viewBox="-125.0 -125.0 250 250">
<defs>
</defs>
<path d="M7.0,-0.0 L12.246254639613724,-1.55841153998873 L14.772070300081662,-3.0384223715793666" fill-opacity="0" stroke="black" stroke-width="1" />
<path d="M7.0,-0.0 L12.246254639613724,1.55841153998873 L14.772070300081662,3.0384223715793666" fill-opacity="0" stroke="black" stroke-width="1" />
<path d="M12.246254639613724,-1.55841153998873 L14.772070300081662,-3.0384223715793666 L16.991789864843,-4.964317349120835" fill-opacity="0" stroke="black" stroke-width="1" />
<path d="M12.246254639613724,1.55841153998873 L14.772070300081662,3.0384223715793666 L16.991789864843,4.964317349120835" fill-opacity="0" stroke="black" stroke-width="1" />
<path d="M14.772070300081662,-3.0384223715793666 L16.991789864843,-4.964317349120835 L17.726085677626713,-5.349527786732609" fill-opacity="0" stroke="black" stroke-width="1" />
<path d="M14.772070300081662,3.0384223715793666 L16.991789864843,4.964317349120835 L17.726085677626713,5.349527786732609" fill-opacity="0" stroke="black" stroke-width="1" />
<path d="M16.991789864843,-4.964317349120835 L17.726085677626713,-5.349527786732609 L24.7192867460248,-5.941556381432806" fill-opacity="0" stroke="black" stroke-width="1" />
<path d="M16.991789864843,4.964317349120835 L17.726085677626713,5.349527786732609 L24.7192867460248,5.941556381432806" fill-opacity="0" stroke="black" stroke-width="1" />
<path d="M17.726085677626713,-5.349527786732609 L24.7192867460248,-5.941556381432806 L27.0,-0.0" fill-opacity="0" stroke="black" stroke-width="1" />
<path d="M17.726085677626713,5.349527786732609 L24.7192867460248,5.941556381432806 L27.0,-0.0" fill-opacity="0" stroke="black" stroke-width="1" />
<path d="M27.0,-0.0 L27.702802966553868,-14.89408369855078 L28.14812053139411,-19.06870090159837" fill-opacity="0" stroke="black" stroke-width="1" />
<path d="M27.0,-0.0 L27.702802966553868,14.89408369855078 L28.14812053139411,19.06870090159837" fill-opacity="0" stroke="black" stroke-width="1" />
<path d="M27.702802966553868,-14.89408369855078 L28.14812053139411,-19.06870090159837 L30.30040270228039,-19.568973421064623" fill-opacity="0" stroke="black" stroke-width="1" />
<path d="M27.702802966553868,14.89408369855078 L28.14812053139411,19.06870090159837 L30.30040270228039,19.568973421064623" fill-opacity="0" stroke="black" stroke-width="1" />
<path d="M28.14812053139411,-19.06870090159837 L30.30040270228039,-19.568973421064623 L32.0,-0.0" fill-opacity="0" stroke="black" stroke-width="1" />
<path d="M28.14812053139411,19.06870090159837 L30.30040270228039,19.568973421064623 L32.0,-0.0" fill-opacity="0" stroke="black" stroke-width="1" />
<path d="M50.0,50.0 L42.0,58.0 L40.0,60.0" fill-opacity="0" stroke="black" stroke-width="1" />
<path d="M50.0,-50.0 L42.0,-58.0 L40.0,-60.0" fill-opacity="0" stroke="black" stroke-width="1" />
<path d="M50.0,-21.0 L30.970041222135286,-22.811211602006807 L38.65895504705161,-27.729087085133692" fill-opacity="0" stroke="black" stroke-width="1" />
<path d="M50.0,21.0 L30.970041222135286,22.811211602006807 L38.65895504705161,27.729087085133692" fill-opacity="0" stroke="black" stroke-width="1" />
<path d="M30.970041222135286,-22.811211602006807 L38.65895504705161,-27.729087085133692 L44.05931380440275,-28.576167092290994" fill-opacity="0" stroke="black" stroke-width="1" />
<path d="M30.970041222135286,22.811211602006807 L38.65895504705161,27.729087085133692 L44.05931380440275,28.576167092290994" fill-opacity="0" stroke="black" stroke-width="1" />
<path d="M38.65895504705161,-27.729087085133692 L44.05931380440275,-28.576167092290994 L44.45190647021011,-31.45588482910981" fill-opacity="0" stroke="black" stroke-width="1" />
<path d="M38.65895504705161,27.729087085133692 L44.05931380440275,28.576167092290994 L44.45190647021011,31.45588482910981" fill-opacity="0" stroke="black" stroke-width="1" />
<path d="M44.05931380440275,-28.576167092290994 L44.45190647021011,-31.45588482910981 L50.0,-32.0" fill-opacity="0" stroke="black" stroke-width="1" />
<path d="M44.05931380440275,28.576167092290994 L44.45190647021011,31.45588482910981 L50.0,32.0" fill-opacity="0" stroke="black" stroke-width="1" />
<path d="M50.0,-35.0 L49.23145691745913,-36.564464949807466 L50.0,-50.0" fill-opacity="0" stroke="black" stroke-width="1" />
<path d="M50.0,35.0 L49.23145691745913,36.564464949807466 L50.0,50.0" fill-opacity="0" stroke="black" stroke-width="1" />
<path d="M42.0,58.0 L40.0,60.0 L24.0,76.0" fill-opacity="0" stroke="black" stroke-width="1" />
<path d="M42.0,-58.0 L40.0,-60.0 L24.0,-76.0" fill-opacity="0" stroke="black" stroke-width="1" />
<path d="M40.0,60.0 L24.0,76.0 L0.8189416758153725,92.75538419135339" fill-opacity="0" stroke="black" stroke-width="1" />
<path d="M40.0,-60.0 L24.0,-76.0 L0.8189416758153725,-92.75538419135339" fill-opacity="0" stroke="black" stroke-width="1" />
<path d="M24.0,-24.0 L7.244615808646615,-0.8189416758153725 L6.0,-6.0" fill-opacity="0" stroke="black" stroke-width="1" />
<path d="M24.0,24.0 L7.244615808646615,0.8189416758153725 L6.0,6.0" fill-opacity="0" stroke="black" stroke-width="1" />
<path d="M0.8189416758153725,92.75538419135339 L6.0,94.0 L0.6792330711674455,94.74707485928067" fill-opacity="0" stroke="black" stroke-width="1" />
<path d="M0.8189416758153725,-92.75538419135339 L6.0,-94.0 L0.6792330711674455,-94.74707485928067" fill-opacity="0" stroke="black" stroke-width="1" />
<path d="M6.0,-6.0 L5.252925140719333,-0.6792330711674455 L5.0,-5.0" fill-opacity="0" stroke="black" stroke-width="1" />
<path d="M6.0,6.0 L5.252925140719333,0.6792330711674455 L5.0,5.0" fill-opacity="0" stroke="black" stroke-width="1" />
<path d="M0.6792330711674455,94.74707485928067 L5.0,95.0 L0.24932786363794046,99.34220680384263" fill-opacity="0" stroke="black" stroke-width="1" />
<path d="M0.6792330711674455,-94.74707485928067 L5.0,-95.0 L0.24932786363794046,-99.34220680384263" fill-opacity="0" stroke="black" stroke-width="1" />
<path d="M5.0,-5.0 L0.6577931961573746,-0.24932786363794046 L0.5930279954525441,-0.219667852987063" fill-opacity="0" stroke="black" stroke-width="1" />
<path d="M5.0,5.0 L0.6577931961573746,0.24932786363794046 L0.5930279954525441,0.219667852987063" fill-opacity="0" stroke="black" stroke-width="1" />
<path d="M0.6577931961573746,-0.24932786363794046 L0.5930279954525441,-0.219667852987063 L0.023332418239702113,-0.013310529088989245" fill-opacity="0" stroke="black" stroke-width="1" />
<path d="M0.6577931961573746,0.24932786363794046 L0.5930279954525441,0.219667852987063 L0.023332418239702113,0.013310529088989245" fill-opacity="0" stroke="black" stroke-width="1" />
<path d="M0.5930279954525441,-0.219667852987063 L0.023332418239702113,-0.013310529088989245 L0.0,-0.0" fill-opacity="0" stroke="black" stroke-width="1" />
<path d="M0.5930279954525441,0.219667852987063 L0.023332418239702113,0.013310529088989245 L0.0,-0.0" fill-opacity="0" stroke="black" stroke-width="1" />
<path d="M-7.0,-0.0 L-12.246254639613724,-1.55841153998873 L-14.772070300081662,-3.0384223715793666" fill-opacity="0" stroke="black" stroke-width="1" />
<path d="M-7.0,-0.0 L-12.246254639613724,1.55841153998873 L-14.772070300081662,3.0384223715793666" fill-opacity="0" stroke="black" stroke-width="1" />
<path d="M-12.246254639613724,-1.55841153998873 L-14.772070300081662,-3.0384223715793666 L-16.991789864843,-4.964317349120835" fill-opacity="0" stroke="black" stroke-width="1" />
<path d="M-12.246254639613724,1.55841153998873 L-14.772070300081662,3.0384223715793666 L-16.991789864843,4.964317349120835" fill-opacity="0" stroke="black" stroke-width="1" />
<path d="M-14.772070300081662,-3.0384223715793666 L-16.991789864843,-4.964317349120835 L-17.726085677626713,-5.349527786732609" fill-opacity="0" stroke="black" stroke-width="1" />
<path d="M-14.772070300081662,3.0384223715793666 L-16.991789864843,4.964317349120835 L-17.726085677626713,5.349527786732609" fill-opacity="0" stroke="black" stroke-width="1" />
<path d="M-16.991789864843,-4.964317349120835 L-17.726085677626713,-5.349527786732609 L-24.7192867460248,-5.941556381432806" fill-opacity="0" stroke="black" stroke-width="1" />
<path d="M-16.991789864843,4.964317349120835 L-17.726085677626713,5.349527786732609 L-24.7192867460248,5.941556381432806" fill-opacity="0" stroke="black" stroke-width="1" />
<path d="M-17.726085677626713,-5.349527786732609 L-24.7192867460248,-5.941556381432806 L-27.0,-0.0" fill-opacity="0" stroke="black" stroke-width="1" />
<path d="M-17.726085677626713,5.349527786732609 L-24.7192867460248,5.941556381432806 L-27.0,-0.0" fill-opacity="0" stroke="black" stroke-width="1" />
<path d="M-27.0,-0.0 L-27.702802966553868,-14.89408369855078 L-28.14812053139411,-19.06870090159837" fill-opacity="0" stroke="black" stroke-width="1" />
<path d="M-27.0,-0.0 L-27.702802966553868,14.89408369855078 L-28.14812053139411,19.06870090159837" fill-opacity="0" stroke="black" stroke-width="1" />
<path d="M-27.702802966553868,-14.89408369855078 L-28.14812053139411,-19.06870090159837 L-30.30040270228039,-19.568973421064623" fill-opacity="0" stroke="black" stroke-width="1" />
<path d="M-27.702802966553868,14.89408369855078 L-28.14812053139411,19.06870090159837 L-30.30040270228039,19.568973421064623" fill-opacity="0" stroke="black" stroke-width="1" />
<path d="M-28.14812053139411,-19.06870090159837 L-30.30040270228039,-19.568973421064623 L-32.0,-0.0" fill-opacity="0" stroke="black" stroke-width="1" />
<path d="M-28.14812053139411,19.06870090159837 L-30.30040270228039,19.568973421064623 L-32.0,-0.0" fill-opacity="0" stroke="black" stroke-width="1" />
<path d="M-50.0,50.0 L-42.0,58.0 L-40.0,60.0" fill-opacity="0" stroke="black" stroke-width="1" />
<path d="M-50.0,-50.0 L-42.0,-58.0 L-40.0,-60.0" fill-opacity="0" stroke="black" stroke-width="1" />
<path d="M-50.0,-21.0 L-30.970041222135286,-22.811211602006807 L-38.65895504705161,-27.729087085133692" fill-opacity="0" stroke="black" stroke-width="1" />
<path d="M-50.0,21.0 L-30.970041222135286,22.811211602006807 L-38.65895504705161,27.729087085133692" fill-opacity="0" stroke="black" stroke-width="1" />
<path d="M-30.970041222135286,-22.811211602006807 L-38.65895504705161,-27.729087085133692 L-44.05931380440275,-28.576167092290994" fill-opacity="0" stroke="black" stroke-width="1" />
<path d="M-30.970041222135286,22.811211602006807 L-38.65895504705161,27.729087085133692 L-44.05931380440275,28.576167092290994" fill-opacity="0" stroke="black" stroke-width="1" />
<path d="M-38.65895504705161,-27.729087085133692 L-44.05931380440275,-28.576167092290994 L-44.45190647021011,-31.45588482910981" fill-opacity="0" stroke="black" stroke-width="1" />
<path d="M-38.65895504705161,27.729087085133692 L-44.05931380440275,28.576167092290994 L-44.45190647021011,31.45588482910981" fill-opacity="0" stroke="black" stroke-width="1" />
<path d="M-44.05931380440275,-28.576167092290994 L-44.45190647021011,-31.45588482910981 L-50.0,-32.0" fill-opacity="0" stroke="black" stroke-width="1" />
<path d="M-44.05931380440275,28.576167092290994 L-44.45190647021011,31.45588482910981 L-50.0,32.0" fill-opacity="0" stroke="black" stroke-width="1" />
<path d="M-50.0,-35.0 L-49.23145691745913,-36.564464949807466 L-50.0,-50.0" fill-opacity="0" stroke="black" stroke-width="1" />
<path d="M-50.0,35.0 L-49.23145691745913,36.564464949807466 L-50.0,50.0" fill-opacity="0" stroke="black" stroke-width="1" />
<path d="M-42.0,58.0 L-40.0,60.0 L-24.0,76.0" fill-opacity="0" stroke="black" stroke-width="1" />
<path d="M-42.0,-58.0 L-40.0,-60.0 L-24.0,-76.0" fill-opacity="0" stroke="black" stroke-width="1" />
<path d="M-40.0,60.0 L-24.0,76.0 L-0.8189416758153725,92.75538419135339" fill-opacity="0" stroke="black" stroke-width="1" />
<path d="M-40.0,-60.0 L-24.0,-76.0 L-0.8189416758153725,-92.75538419135339" fill-opacity="0" stroke="black" stroke-width="1" />
<path d="M-24.0,-24.0 L-7.244615808646615,-0.8189416758153725 L-6.0,-6.0" fill-opacity="0" stroke="black" stroke-width="1" />
<path d="M-24.0,24.0 L-7.244615808646615,0.8189416758153725 L-6.0,6.0" fill-opacity="0" stroke="black" stroke-width="1" />
<path d="M-0.8189416758153725,92.75538419135339 L-6.0,94.0 L-0.6792330711674455,94.74707485928067" fill-opacity="0" stroke="black" stroke-width="1" />
<path d="M-0.8189416758153725,-92.75538419135339 L-6.0,-94.0 L-0.6792330711674455,-94.74707485928067" fill-opacity="0" stroke="black" stroke-width="1" />
<path d="M-6.0,-6.0 L-5.252925140719333,-0.6792330711674455 L-5.0,-5.0" fill-opacity="0" stroke="black" stroke-width="1" />
<path d="M-6.0,6.0 L-5.252925140719333,0.6792330711674455 L-5.0,5.0" fill-opacity="0" stroke="black" stroke-width="1" />
<path d="M-0.6792330711674455,94.74707485928067 L-5.0,95.0 L-0.24932786363794046,99.34220680384263" fill-opacity="0" stroke="black" stroke-width="1" />
<path d="M-0.6792330711674455,-94.74707485928067 L-5.0,-95.0 L-0.24932786363794046,-99.34220680384263" fill-opacity="0" stroke="black" stroke-width="1" />
<path d="M-5.0,-5.0 L-0.6577931961573746,-0.24932786363794046 L-0.5930279954525441,-0.219667852987063" fill-opacity="0" stroke="black" stroke-width="1" />
<path d="M-5.0,5.0 L-0.6577931961573746,0.24932786363794046 L-0.5930279954525441,0.219667852987063" fill-opacity="0" stroke="black" stroke-width="1" />
<path d="M-0.6577931961573746,-0.24932786363794046 L-0.5930279954525441,-0.219667852987063 L-0.023332418239702113,-0.013310529088989245" fill-opacity="0" stroke="black" stroke-width="1" />
<path d="M-0.6577931961573746,0.24932786363794046 L-0.5930279954525441,0.219667852987063 L-0.023332418239702113,0.013310529088989245" fill-opacity="0" stroke="black" stroke-width="1" />
<path d="M-0.5930279954525441,-0.219667852987063 L-0.023332418239702113,-0.013310529088989245 L0.0,-0.0" fill-opacity="0" stroke="black" stroke-width="1" />
<path d="M-0.5930279954525441,0.219667852987063 L-0.023332418239702113,0.013310529088989245 L0.0,-0.0" fill-opacity="0" stroke="black" stroke-width="1" />
<path d="M93.0,-0.0 L87.75374536038628,1.55841153998873 L85.22792969991833,3.0384223715793666" fill-opacity="0" stroke="black" stroke-width="1" />
<path d="M93.0,-0.0 L87.75374536038628,-1.55841153998873 L85.22792969991833,-3.0384223715793666" fill-opacity="0" stroke="black" stroke-width="1" />
<path d="M87.75374536038628,1.55841153998873 L85.22792969991833,3.0384223715793666 L83.008210135157,4.964317349120835" fill-opacity="0" stroke="black" stroke-width="1" />
<path d="M87.75374536038628,-1.55841153998873 L85.22792969991833,-3.0384223715793666 L83.008210135157,-4.964317349120835" fill-opacity="0" stroke="black" stroke-width="1" />
<path d="M85.22792969991833,3.0384223715793666 L83.008210135157,4.964317349120835 L82.27391432237329,5.349527786732609" fill-opacity="0" stroke="black" stroke-width="1" />
<path d="M85.22792969991833,-3.0384223715793666 L83.008210135157,-4.964317349120835 L82.27391432237329,-5.349527786732609" fill-opacity="0" stroke="black" stroke-width="1" />
<path d="M83.008210135157,4.964317349120835 L82.27391432237329,5.349527786732609 L75.2807132539752,5.941556381432806" fill-opacity="0" stroke="black" stroke-width="1" />
<path d="M83.008210135157,-4.964317349120835 L82.27391432237329,-5.349527786732609 L75.2807132539752,-5.941556381432806" fill-opacity="0" stroke="black" stroke-width="1" />
<path d="M82.27391432237329,5.349527786732609 L75.2807132539752,5.941556381432806 L73.0,-0.0" fill-opacity="0" stroke="black" stroke-width="1" />
<path d="M82.27391432237329,-5.349527786732609 L75.2807132539752,-5.941556381432806 L73.0,-0.0" fill-opacity="0" stroke="black" stroke-width="1" />
<path d="M73.0,-0.0 L72.29719703344614,14.89408369855078 L71.85187946860589,19.06870090159837" fill-opacity="0" stroke="black" stroke-width="1" />
<path d="M73.0,-0.0 L72.29719703344614,-14.89408369855078 L71.85187946860589,-19.06870090159837" fill-opacity="0" stroke="black" stroke-width="1" />
<path d="M72.29719703344614,14.89408369855078 L71.85187946860589,19.06870090159837 L69.6995972977196,19.568973421064623" fill-opacity="0" stroke="black" stroke-width="1" />
<path d="M72.29719703344614,-14.89408369855078 L71.85187946860589,-19.06870090159837 L69.6995972977196,-19.568973421064623" fill-opacity="0" stroke="black" stroke-width="1" />
<path d="M71.85187946860589,19.06870090159837 L69.6995972977196,19.568973421064623 L68.0,-0.0" fill-opacity="0" stroke="black" stroke-width="1" />
<path d="M71.85187946860589,-19.06870090159837 L69.6995972977196,-19.568973421064623 L68.0,-0.0" fill-opacity="0" stroke="black" stroke-width="1" />
<path d="M50.0,50.0 L58.0,42.0 L60.0,40.0" fill-opacity="0" stroke="black" stroke-width="1" />
<path d="M50.0,-50.0 L58.0,-42.0 L60.0,-40.0" fill-opacity="0" stroke="black" stroke-width="1" />
<path d="M50.0,21.0 L69.02995877786472,22.811211602006807 L61.34104495294839,27.729087085133692" fill-opacity="0" stroke="black" stroke-width="1" />
<path d="M50.0,-21.0 L69.02995877786472,-22.811211602006807 L61.34104495294839,-27.729087085133692" fill-opacity="0" stroke="black" stroke-width="1" />
<path d="M69.02995877786472,22.811211602006807 L61.34104495294839,27.729087085133692 L55.94068619559725,28.576167092290994" fill-opacity="0" stroke="black" stroke-width="1" />
<path d="M69.02995877786472,-22.811211602006807 L61.34104495294839,-27.729087085133692 L55.94068619559725,-28.576167092290994" fill-opacity="0" stroke="black" stroke-width="1" />
<path d="M61.34104495294839,27.729087085133692 L55.94068619559725,28.576167092290994 L55.54809352978989,31.45588482910981" fill-opacity="0" stroke="black" stroke-width="1" />
<path d="M61.34104495294839,-27.729087085133692 L55.94068619559725,-28.576167092290994 L55.54809352978989,-31.45588482910981" fill-opacity="0" stroke="black" stroke-width="1" />
<path d="M55.94068619559725,28.576167092290994 L55.54809352978989,31.45588482910981 L50.0,32.0" fill-opacity="0" stroke="black" stroke-width="1" />
<path d="M55.94068619559725,-28.576167092290994 L55.54809352978989,-31.45588482910981 L50.0,-32.0" fill-opacity="0" stroke="black" stroke-width="1" />
<path d="M50.0,35.0 L50.76854308254087,36.564464949807466 L50.0,50.0" fill-opacity="0" stroke="black" stroke-width="1" />
<path d="M50.0,-35.0 L50.76854308254087,-36.564464949807466 L50.0,-50.0" fill-opacity="0" stroke="black" stroke-width="1" />
<path d="M58.0,42.0 L60.0,40.0 L76.0,24.0" fill-opacity="0" stroke="black" stroke-width="1" />
<path d="M58.0,-42.0 L60.0,-40.0 L76.0,-24.0" fill-opacity="0" stroke="black" stroke-width="1" />
<path d="M60.0,40.0 L76.0,24.0 L92.75538419135339,0.8189416758153725" fill-opacity="0" stroke="black" stroke-width="1" />
<path d="M60.0,-40.0 L76.0,-24.0 L92.75538419135339,-0.8189416758153725" fill-opacity="0" stroke="black" stroke-width="1" />
<path d="M76.0,24.0 L92.75538419135339,0.8189416758153725 L94.0,6.0" fill-opacity="0" stroke="black" stroke-width="1" />
<path d="M76.0,-24.0 L92.75538419135339,-0.8189416758153725 L94.0,-6.0" fill-opacity="0" stroke="black" stroke-width="1" />
<path d="M92.75538419135339,0.8189416758153725 L94.0,6.0 L94.74707485928067,0.6792330711674455" fill-opacity="0" stroke="black" stroke-width="1" />
<path d="M92.75538419135339,-0.8189416758153725 L94.0,-6.0 L94.74707485928067,-0.6792330711674455" fill-opacity="0" stroke="black" stroke-width="1" />
<path d="M94.0,6.0 L94.74707485928067,0.6792330711674455 L95.0,5.0" fill-opacity="0" stroke="black" stroke-width="1" />
<path d="M94.0,-6.0 L94.74707485928067,-0.6792330711674455 L95.0,-5.0" fill-opacity="0" stroke="black" stroke-width="1" />
<path d="M94.74707485928067,0.6792330711674455 L95.0,5.0 L99.34220680384263,0.24932786363794046" fill-opacity="0" stroke="black" stroke-width="1" />
<path d="M94.74707485928067,-0.6792330711674455 L95.0,-5.0 L99.34220680384263,-0.24932786363794046" fill-opacity="0" stroke="black" stroke-width="1" />
<path d="M95.0,5.0 L99.34220680384263,0.24932786363794046 L99.40697200454746,0.219667852987063" fill-opacity="0" stroke="black" stroke-width="1" />
<path d="M95.0,-5.0 L99.34220680384263,-0.24932786363794046 L99.40697200454746,-0.219667852987063" fill-opacity="0" stroke="black" stroke-width="1" />
<path d="M99.34220680384263,0.24932786363794046 L99.40697200454746,0.219667852987063 L99.9766675817603,0.013310529088989245" fill-opacity="0" stroke="black" stroke-width="1" />
<path d="M99.34220680384263,-0.24932786363794046 L99.40697200454746,-0.219667852987063 L99.9766675817603,-0.013310529088989245" fill-opacity="0" stroke="black" stroke-width="1" />
<path d="M99.40697200454746,0.219667852987063 L99.9766675817603,0.013310529088989245 L100.0,-0.0" fill-opacity="0" stroke="black" stroke-width="1" />
<path d="M99.40697200454746,-0.219667852987063 L99.9766675817603,-0.013310529088989245 L100.0,-0.0" fill-opacity="0" stroke="black" stroke-width="1" />
<path d="M0.0,-7.0 L1.55841153998873,-12.246254639613724 L3.0384223715793666,-14.772070300081662" fill-opacity="0" stroke="black" stroke-width="1" />
<path d="M0.0,7.0 L1.55841153998873,12.246254639613724 L3.0384223715793666,14.772070300081662" fill-opacity="0" stroke="black" stroke-width="1" />
<path d="M0.0,93.0 L1.55841153998873,87.75374536038628 L3.0384223715793666,85.22792969991833" fill-opacity="0" stroke="black" stroke-width="1" />
<path d="M0.0,-93.0 L1.55841153998873,-87.75374536038628 L3.0384223715793666,-85.22792969991833" fill-opacity="0" stroke="black" stroke-width="1" />
<path d="M1.55841153998873,-12.246254639613724 L3.0384223715793666,-14.772070300081662 L4.964317349120835,-16.991789864843" fill-opacity="0" stroke="black" stroke-width="1" />
<path d="M1.55841153998873,12.246254639613724 L3.0384223715793666,14.772070300081662 L4.964317349120835,16.991789864843" fill-opacity="0" stroke="black" stroke-width="1" />
<path d="M1.55841153998873,87.75374536038628 L3.0384223715793666,85.22792969991833 L4.964317349120835,83.008210135157" fill-opacity="0" stroke="black" stroke-width="1" />
<path d="M1.55841153998873,-87.75374536038628 L3.0384223715793666,-85.22792969991833 L4.964317349120835,-83.008210135157" fill-opacity="0" stroke="black" stroke-width="1" />
<path d="M3.0384223715793666,-14.772070300081662 L4.964317349120835,-16.991789864843 L5.349527786732609,-17.726085677626713" fill-opacity="0" stroke="black" stroke-width="1" />
<path d="M3.0384223715793666,14.772070300081662 L4.964317349120835,16.991789864843 L5.349527786732609,17.726085677626713" fill-opacity="0" stroke="black" stroke-width="1" />
<path d="M3.0384223715793666,85.22792969991833 L4.964317349120835,83.008210135157 L5.349527786732609,82.27391432237329" fill-opacity="0" stroke="black" stroke-width="1" />
<path d="M3.0384223715793666,-85.22792969991833 L4.964317349120835,-83.008210135157 L5.349527786732609,-82.27391432237329" fill-opacity="0" stroke="black" stroke-width="1" />
<path d="M4.964317349120835,-16.991789864843 L5.349527786732609,-17.726085677626713 L5.941556381432806,-24.7192867460248" fill-opacity="0" stroke="black" stroke-width="1" />
<path d="M4.964317349120835,16.991789864843 L5.349527786732609,17.726085677626713 L5.941556381432806,24.7192867460248" fill-opacity="0" stroke="black" stroke-width="1" />
<path d="M4.964317349120835,83.008210135157 L5.349527786732609,82.27391432237329 L5.941556381432806,75.2807132539752" fill-opacity="0" stroke="black" stroke-width="1" />
<path d="M4.964317349120835,-83.008210135157 L5.349527786732609,-82.27391432237329 L5.941556381432806,-75.2807132539752" fill-opacity="0" stroke="black" stroke-width="1" />
<path d="M5.349527786732609,-17.726085677626713 L5.941556381432806,-24.7192867460248 L0.0,-27.0" fill-opacity="0" stroke="black" stroke-width="1" />
<path d="M5.349527786732609,17.726085677626713 L5.941556381432806,24.7192867460248 L0.0,27.0" fill-opacity="0" stroke="black" stroke-width="1" />
<path d="M5.349527786732609,82.27391432237329 L5.941556381432806,75.2807132539752 L0.0,73.0" fill-opacity="0" stroke="black" stroke-width="1" />
<path d="M5.349527786732609,-82.27391432237329 L5.941556381432806,-75.2807132539752 L0.0,-73.0" fill-opacity="0" stroke="black" stroke-width="1" />
<path d="M0.0,-27.0 L14.89408369855078,-27.702802966553868 L19.06870090159837,-28.14812053139411" fill-opacity="0" stroke="black" stroke-width="1" />
<path d="M0.0,27.0 L14.89408369855078,27.702802966553868 L19.06870090159837,28.14812053139411" fill-opacity="0" stroke="black" stroke-width="1" />
<path d="M0.0,73.0 L14.89408369855078,72.29719703344614 L19.06870090159837,71.85187946860589" fill-opacity="0" stroke="black" stroke-width="1" />
<path d="M0.0,-73.0 L14.89408369855078,-72.29719703344614 L19.06870090159837,-71.85187946860589" fill-opacity="0" stroke="black" stroke-width="1" />
<path d="M14.89408369855078,-27.702802966553868 L19.06870090159837,-28.14812053139411 L19.568973421064623,-30.30040270228039" fill-opacity="0" stroke="black" stroke-width="1" />
<path d="M14.89408369855078,27.702802966553868 L19.06870090159837,28.14812053139411 L19.568973421064623,30.30040270228039" fill-opacity="0" stroke="black" stroke-width="1" />
<path d="M14.89408369855078,72.29719703344614 L19.06870090159837,71.85187946860589 L19.568973421064623,69.6995972977196" fill-opacity="0" stroke="black" stroke-width="1" />
<path d="M14.89408369855078,-72.29719703344614 L19.06870090159837,-71.85187946860589 L19.568973421064623,-69.6995972977196" fill-opacity="0" stroke="black" stroke-width="1" />
<path d="M19.06870090159837,-28.14812053139411 L19.568973421064623,-30.30040270228039 L0.0,-32.0" fill-opacity="0" stroke="black" stroke-width="1" />
<path d="M19.06870090159837,28.14812053139411 L19.568973421064623,30.30040270228039 L0.0,32.0" fill-opacity="0" stroke="black" stroke-width="1" />
<path d="M19.06870090159837,71.85187946860589 L19.568973421064623,69.6995972977196 L0.0,68.0" fill-opacity="0" stroke="black" stroke-width="1" />
<path d="M19.06870090159837,-71.85187946860589 L19.568973421064623,-69.6995972977196 L0.0,-68.0" fill-opacity="0" stroke="black" stroke-width="1" />
<path d="M21.0,-50.0 L22.811211602006807,-30.970041222135286 L27.729087085133692,-38.65895504705161" fill-opacity="0" stroke="black" stroke-width="1" />
<path d="M21.0,50.0 L22.811211602006807,30.970041222135286 L27.729087085133692,38.65895504705161" fill-opacity="0" stroke="black" stroke-width="1" />
<path d="M21.0,50.0 L22.811211602006807,69.02995877786472 L27.729087085133692,61.34104495294839" fill-opacity="0" stroke="black" stroke-width="1" />
<path d="M21.0,-50.0 L22.811211602006807,-69.02995877786472 L27.729087085133692,-61.34104495294839" fill-opacity="0" stroke="black" stroke-width="1" />
<path d="M22.811211602006807,-30.970041222135286 L27.729087085133692,-38.65895504705161 L28.576167092290994,-44.05931380440275" fill-opacity="0" stroke="black" stroke-width="1" />
<path d="M22.811211602006807,30.970041222135286 L27.729087085133692,38.65895504705161 L28.576167092290994,44.05931380440275" fill-opacity="0" stroke="black" stroke-width="1" />
<path d="M22.811211602006807,69.02995877786472 L27.729087085133692,61.34104495294839 L28.576167092290994,55.94068619559725" fill-opacity="0" stroke="black" stroke-width="1" />
<path d="M22.811211602006807,-69.02995877786472 L27.729087085133692,-61.34104495294839 L28.576167092290994,-55.94068619559725" fill-opacity="0" stroke="black" stroke-width="1" />
<path d="M27.729087085133692,-38.65895504705161 L28.576167092290994,-44.05931380440275 L31.45588482910981,-44.45190647021011" fill-opacity="0" stroke="black" stroke-width="1" />
<path d="M27.729087085133692,38.65895504705161 L28.576167092290994,44.05931380440275 L31.45588482910981,44.45190647021011" fill-opacity="0" stroke="black" stroke-width="1" />
<path d="M27.729087085133692,61.34104495294839 L28.576167092290994,55.94068619559725 L31.45588482910981,55.54809352978989" fill-opacity="0" stroke="black" stroke-width="1" />
<path d="M27.729087085133692,-61.34104495294839 L28.576167092290994,-55.94068619559725 L31.45588482910981,-55.54809352978989" fill-opacity="0" stroke="black" stroke-width="1" />
<path d="M28.576167092290994,-44.05931380440275 L31.45588482910981,-44.45190647021011 L32.0,-50.0" fill-opacity="0" stroke="black" stroke-width="1" />
<path d="M28.576167092290994,44.05931380440275 L31.45588482910981,44.45190647021011 L32.0,50.0" fill-opacity="0" stroke="black" stroke-width="1" />
<path d="M28.576167092290994,55.94068619559725 L31.45588482910981,55.54809352978989 L32.0,50.0" fill-opacity="0" stroke="black" stroke-width="1" />
<path d="M28.576167092290994,-55.94068619559725 L31.45588482910981,-55.54809352978989 L32.0,-50.0" fill-opacity="0" stroke="black" stroke-width="1" />
<path d="M35.0,-50.0 L36.564464949807466,-49.23145691745913 L50.0,-50.0" fill-opacity="0" stroke="black" stroke-width="1" />
<path d="M35.0,50.0 L36.564464949807466,49.23145691745913 L50.0,50.0" fill-opacity="0" stroke="black" stroke-width="1" />
<path d="M35.0,50.0 L36.564464949807466,50.76854308254087 L50.0,50.0" fill-opacity="0" stroke="black" stroke-width="1" />
<path d="M35.0,-50.0 L36.564464949807466,-50.76854308254087 L50.0,-50.0" fill-opacity="0" stroke="black" stroke-width="1" />
<path d="M24.0,-24.0 L0.8189416758153725,-7.244615808646615 L6.0,-6.0" fill-opacity="0" stroke="black" stroke-width="1" />
<path d="M24.0,24.0 L0.8189416758153725,7.244615808646615 L6.0,6.0" fill-opacity="0" stroke="black" stroke-width="1" />
<path d="M24.0,76.0 L0.8189416758153725,92.75538419135339 L6.0,94.0" fill-opacity="0" stroke="black" stroke-width="1" />
<path d="M24.0,-76.0 L0.8189416758153725,-92.75538419135339 L6.0,-94.0" fill-opacity="0" stroke="black" stroke-width="1" />
<path d="M6.0,-6.0 L0.6792330711674455,-5.252925140719333 L5.0,-5.0" fill-opacity="0" stroke="black" stroke-width="1" />
<path d="M6.0,6.0 L0.6792330711674455,5.252925140719333 L5.0,5.0" fill-opacity="0" stroke="black" stroke-width="1" />
<path d="M6.0,94.0 L0.6792330711674455,94.74707485928067 L5.0,95.0" fill-opacity="0" stroke="black" stroke-width="1" />
<path d="M6.0,-94.0 L0.6792330711674455,-94.74707485928067 L5.0,-95.0" fill-opacity="0" stroke="black" stroke-width="1" />
<path d="M5.0,-5.0 L0.24932786363794046,-0.6577931961573746 L0.219667852987063,-0.5930279954525441" fill-opacity="0" stroke="black" stroke-width="1" />
<path d="M5.0,5.0 L0.24932786363794046,0.6577931961573746 L0.219667852987063,0.5930279954525441" fill-opacity="0" stroke="black" stroke-width="1" />
<path d="M5.0,95.0 L0.24932786363794046,99.34220680384263 L0.219667852987063,99.40697200454746" fill-opacity="0" stroke="black" stroke-width="1" />
<path d="M5.0,-95.0 L0.24932786363794046,-99.34220680384263 L0.219667852987063,-99.40697200454746" fill-opacity="0" stroke="black" stroke-width="1" />
<path d="M0.24932786363794046,-0.6577931961573746 L0.219667852987063,-0.5930279954525441 L0.013310529088989245,-0.023332418239702113" fill-opacity="0" stroke="black" stroke-width="1" />
<path d="M0.24932786363794046,0.6577931961573746 L0.219667852987063,0.5930279954525441 L0.013310529088989245,0.023332418239702113" fill-opacity="0" stroke="black" stroke-width="1" />
<path d="M0.24932786363794046,99.34220680384263 L0.219667852987063,99.40697200454746 L0.013310529088989245,99.9766675817603" fill-opacity="0" stroke="black" stroke-width="1" />
<path d="M0.24932786363794046,-99.34220680384263 L0.219667852987063,-99.40697200454746 L0.013310529088989245,-99.9766675817603" fill-opacity="0" stroke="black" stroke-width="1" />
<path d="M0.219667852987063,-0.5930279954525441 L0.013310529088989245,-0.023332418239702113 L0.0,-0.0" fill-opacity="0" stroke="black" stroke-width="1" />
<path d="M0.219667852987063,0.5930279954525441 L0.013310529088989245,0.023332418239702113 L0.0,-0.0" fill-opacity="0" stroke="black" stroke-width="1" />
<path d="M0.219667852987063,99.40697200454746 L0.013310529088989245,99.9766675817603 L0.0,100.0" fill-opacity="0" stroke="black" stroke-width="1" />
<path d="M0.219667852987063,-99.40697200454746 L0.013310529088989245,-99.9766675817603 L0.0,-100.0" fill-opacity="0" stroke="black" stroke-width="1" />
<path d="M0.0,93.0 L-1.55841153998873,87.75374536038628 L-3.0384223715793666,85.22792969991833" fill-opacity="0" stroke="black" stroke-width="1" />
<path d="M0.0,-7.0 L-1.55841153998873,-12.246254639613724 L-3.0384223715793666,-14.772070300081662" fill-opacity="0" stroke="black" stroke-width="1" />
<path d="M0.0,7.0 L-1.55841153998873,12.246254639613724 L-3.0384223715793666,14.772070300081666" fill-opacity="0" stroke="black" stroke-width="1" />
<path d="M0.0,-93.0 L-1.55841153998873,-87.75374536038628 L-3.0384223715793666,-85.22792969991833" fill-opacity="0" stroke="black" stroke-width="1" />
<path d="M-1.55841153998873,87.75374536038628 L-3.0384223715793666,85.22792969991833 L-4.964317349120835,83.008210135157" fill-opacity="0" stroke="black" stroke-width="1" />
<path d="M-1.55841153998873,-12.246254639613724 L-3.0384223715793666,-14.772070300081662 L-4.964317349120835,-16.991789864843" fill-opacity="0" stroke="black" stroke-width="1" />
<path d="M-1.55841153998873,12.246254639613724 L-3.0384223715793666,14.772070300081666 L-4.964317349120835,16.991789864843" fill-opacity="0" stroke="black" stroke-width="1" />
<path d="M-1.55841153998873,-87.75374536038628 L-3.0384223715793666,-85.22792969991833 L-4.964317349120835,-83.008210135157" fill-opacity="0" stroke="black" stroke-width="1" />
<path d="M-3.0384223715793666,85.22792969991833 L-4.964317349120835,83.008210135157 L-5.349527786732609,82.27391432237329" fill-opacity="0" stroke="black" stroke-width="1" />
<path d="M-3.0384223715793666,-14.772070300081662 L-4.964317349120835,-16.991789864843 L-5.349527786732609,-17.726085677626713" fill-opacity="0" stroke="black" stroke-width="1" />
<path d="M-3.0384223715793666,14.772070300081666 L-4.964317349120835,16.991789864843 L-5.349527786732609,17.726085677626713" fill-opacity="0" stroke="black" stroke-width="1" />
<path d="M-3.0384223715793666,-85.22792969991833 L-4.964317349120835,-83.008210135157 L-5.349527786732609,-82.27391432237329" fill-opacity="0" stroke="black" stroke-width="1" />
<path d="M-4.964317349120835,83.008210135157 L-5.349527786732609,82.27391432237329 L-5.941556381432806,75.2807132539752" fill-opacity="0" stroke="black" stroke-width="1" />
<path d="M-4.964317349120835,-16.991789864843 L-5.349527786732609,-17.726085677626713 L-5.941556381432806,-24.7192867460248" fill-opacity="0" stroke="black" stroke-width="1" />
<path d="M-4.964317349120835,16.991789864843 L-5.349527786732609,17.726085677626713 L-5.941556381432806,24.719286746024807" fill-opacity="0" stroke="black" stroke-width="1" />
<path d="M-4.964317349120835,-83.008210135157 L-5.349527786732609,-82.27391432237329 L-5.941556381432806,-75.2807132539752" fill-opacity="0" stroke="black" stroke-width="1" />
<path d="M-5.349527786732609,82.27391432237329 L-5.941556381432806,75.2807132539752 L0.0,73.0" fill-opacity="0" stroke="black" stroke-width="1" />
<path d="M-5.349527786732609,-17.726085677626713 L-5.941556381432806,-24.7192867460248 L0.0,-27.0" fill-opacity="0" stroke="black" stroke-width="1" />
<path d="M-5.349527786732609,17.726085677626713 L-5.941556381432806,24.719286746024807 L0.0,27.0" fill-opacity="0" stroke="black" stroke-width="1" />
<path d="M-5.349527786732609,-82.27391432237329 L-5.941556381432806,-75.2807132539752 L0.0,-73.0" fill-opacity="0" stroke="black" stroke-width="1" />
<path d="M0.0,73.0 L-14.89408369855078,72.29719703344614 L-19.06870090159837,71.85187946860589" fill-opacity="0" stroke="black" stroke-width="1" />
<path d="M0.0,-27.0 L-14.89408369855078,-27.702802966553868 L-19.06870090159837,-28.14812053139411" fill-opacity="0" stroke="black" stroke-width="1" />
<path d="M0.0,27.0 L-14.89408369855078,27.70280296655386 L-19.06870090159837,28.148120531394113" fill-opacity="0" stroke="black" stroke-width="1" />
<path d="M0.0,-73.0 L-14.89408369855078,-72.29719703344614 L-19.06870090159837,-71.85187946860589" fill-opacity="0" stroke="black" stroke-width="1" />
<path d="M-14.89408369855078,72.29719703344614 L-19.06870090159837,71.85187946860589 L-19.568973421064623,69.6995972977196" fill-opacity="0" stroke="black" stroke-width="1" />
<path d="M-14.89408369855078,-27.702802966553868 L-19.06870090159837,-28.14812053139411 L-19.568973421064623,-30.30040270228039" fill-opacity="0" stroke="black" stroke-width="1" />
<path d="M-14.89408369855078,27.70280296655386 L-19.06870090159837,28.148120531394113 L-19.568973421064623,30.300402702280394" fill-opacity="0" stroke="black" stroke-width="1" />
<path d="M-14.89408369855078,-72.29719703344614 L-19.06870090159837,-71.85187946860589 L-19.568973421064623,-69.6995972977196" fill-opacity="0" stroke="black" stroke-width="1" />
<path d="M-19.06870090159837,71.85187946860589 L-19.568973421064623,69.6995972977196 L0.0,68.0" fill-opacity="0" stroke="black" stroke-width="1" />
<path d="M-19.06870090159837,-28.14812053139411 L-19.568973421064623,-30.30040270228039 L0.0,-32.0" fill-opacity="0" stroke="black" stroke-width="1" />
<path d="M-19.06870090159837,28.148120531394113 L-19.568973421064623,30.300402702280394 L0.0,32.0" fill-opacity="0" stroke="black" stroke-width="1" />
<path d="M-19.06870090159837,-71.85187946860589 L-19.568973421064623,-69.6995972977196 L0.0,-68.0" fill-opacity="0" stroke="black" stroke-width="1" />
<path d="M-21.0,50.0 L-22.811211602006807,69.02995877786472 L-27.729087085133692,61.34104495294839" fill-opacity="0" stroke="black" stroke-width="1" />
<path d="M-21.0,-50.0 L-22.811211602006807,-30.970041222135286 L-27.729087085133692,-38.65895504705161" fill-opacity="0" stroke="black" stroke-width="1" />
<path d="M-21.0,50.0 L-22.811211602006807,30.97004122213528 L-27.729087085133692,38.65895504705161" fill-opacity="0" stroke="black" stroke-width="1" />
<path d="M-21.0,-50.0 L-22.811211602006807,-69.02995877786472 L-27.729087085133692,-61.34104495294839" fill-opacity="0" stroke="black" stroke-width="1" />
<path d="M-22.811211602006807,69.02995877786472 L-27.729087085133692,61.34104495294839 L-28.576167092290994,55.94068619559725" fill-opacity="0" stroke="black" stroke-width="1" />
<path d="M-22.811211602006807,-30.970041222135286 L-27.729087085133692,-38.65895504705161 L-28.576167092290994,-44.05931380440275" fill-opacity="0" stroke="black" stroke-width="1" />
<path d="M-22.811211602006807,30.97004122213528 L-27.729087085133692,38.65895504705161 L-28.576167092290994,44.05931380440275" fill-opacity="0" stroke="black" stroke-width="1" />
<path d="M-22.811211602006807,-69.02995877786472 L-27.729087085133692,-61.34104495294839 L-28.576167092290994,-55.94068619559725" fill-opacity="0" stroke="black" stroke-width="1" />
<path d="M-27.729087085133692,61.34104495294839 L-28.576167092290994,55.94068619559725 L-31.45588482910981,55.54809352978989" fill-opacity="0" stroke="black" stroke-width="1" />
<path d="M-27.729087085133692,-38.65895504705161 L-28.576167092290994,-44.05931380440275 L-31.45588482910981,-44.45190647021011" fill-opacity="0" stroke="black" stroke-width="1" />
<path d="M-27.729087085133692,38.65895504705161 L-28.576167092290994,44.05931380440275 L-31.45588482910981,44.45190647021011" fill-opacity="0" stroke="black" stroke-width="1" />
<path d="M-27.729087085133692,-61.34104495294839 L-28.576167092290994,-55.94068619559725 L-31.45588482910981,-55.54809352978989" fill-opacity="0" stroke="black" stroke-width="1" />
<path d="M-28.576167092290994,55.94068619559725 L-31.45588482910981,55.54809352978989 L-32.0,50.0" fill-opacity="0" stroke="black" stroke-width="1" />
<path d="M-28.576167092290994,-44.05931380440275 L-31.45588482910981,-44.45190647021011 L-32.0,-50.0" fill-opacity="0" stroke="black" stroke-width="1" />
<path d="M-28.576167092290994,44.05931380440275 L-31.45588482910981,44.45190647021011 L-32.0,50.0" fill-opacity="0" stroke="black" stroke-width="1" />
<path d="M-28.576167092290994,-55.94068619559725 L-31.45588482910981,-55.54809352978989 L-32.0,-50.0" fill-opacity="0" stroke="black" stroke-width="1" />
<path d="M-35.0,50.0 L-36.564464949807466,50.76854308254087 L-50.0,50.0" fill-opacity="0" stroke="black" stroke-width="1" />
<path d="M-35.0,-50.0 L-36.564464949807466,-49.23145691745913 L-50.0,-50.0" fill-opacity="0" stroke="black" stroke-width="1" />
<path d="M-35.0,50.0 L-36.564464949807466,49.23145691745913 L-50.0,50.0" fill-opacity="0" stroke="black" stroke-width="1" />
<path d="M-35.0,-50.0 L-36.564464949807466,-50.76854308254087 L-50.0,-50.0" fill-opacity="0" stroke="black" stroke-width="1" />
<path d="M-24.0,76.0 L-0.8189416758153725,92.75538419135339 L-6.0,94.0" fill-opacity="0" stroke="black" stroke-width="1" />
<path d="M-24.0,-24.0 L-0.8189416758153725,-7.244615808646615 L-6.0,-6.0" fill-opacity="0" stroke="black" stroke-width="1" />
<path d="M-24.0,24.0 L-0.8189416758153725,7.244615808646614 L-6.0,6.0" fill-opacity="0" stroke="black" stroke-width="1" />
<path d="M-24.0,-76.0 L-0.8189416758153725,-92.75538419135339 L-6.0,-94.0" fill-opacity="0" stroke="black" stroke-width="1" />
<path d="M-6.0,94.0 L-0.6792330711674455,94.74707485928067 L-5.0,95.0" fill-opacity="0" stroke="black" stroke-width="1" />
<path d="M-6.0,-6.0 L-0.6792330711674455,-5.252925140719333 L-5.0,-5.0" fill-opacity="0" stroke="black" stroke-width="1" />
<path d="M-6.0,6.0 L-0.6792330711674455,5.252925140719327 L-5.0,5.0" fill-opacity="0" stroke="black" stroke-width="1" />
<path d="M-6.0,-94.0 L-0.6792330711674455,-94.74707485928067 L-5.0,-95.0" fill-opacity="0" stroke="black" stroke-width="1" />
<path d="M-5.0,95.0 L-0.24932786363794046,99.34220680384263 L-0.219667852987063,99.40697200454746" fill-opacity="0" stroke="black" stroke-width="1" />
<path d="M-5.0,-5.0 L-0.24932786363794046,-0.6577931961573746 L-0.219667852987063,-0.5930279954525441" fill-opacity="0" stroke="black" stroke-width="1" />
<path d="M-5.0,5.0 L-0.24932786363794046,0.6577931961573711 L-0.219667852987063,0.5930279954525446" fill-opacity="0" stroke="black" stroke-width="1" />
<path d="M-5.0,-95.0 L-0.24932786363794046,-99.34220680384263 L-0.219667852987063,-99.40697200454746" fill-opacity="0" stroke="black" stroke-width="1" />
<path d="M-0.24932786363794046,99.34220680384263 L-0.219667852987063,99.40697200454746 L-0.013310529088989245,99.9766675817603" fill-opacity="0" stroke="black" stroke-width="1" />
<path d="M-0.24932786363794046,-0.6577931961573746 L-0.219667852987063,-0.5930279954525441 L-0.013310529088989245,-0.023332418239702113" fill-opacity="0" stroke="black" stroke-width="1" />
<path d="M-0.24932786363794046,0.6577931961573711 L-0.219667852987063,0.5930279954525446 L-0.013310529088989245,0.02333241823970411" fill-opacity="0" stroke="black" stroke-width="1" />
<path d="M-0.24932786363794046,-99.34220680384263 L-0.219667852987063,-99.40697200454746 L-0.013310529088989245,-99.9766675817603" fill-opacity="0" stroke="black" stroke-width="1" />
<path d="M-0.219667852987063,99.40697200454746 L-0.013310529088989245,99.9766675817603 L0.0,100.0" fill-opacity="0" stroke="black" stroke-width="1" />
<path d="M-0.219667852987063,-0.5930279954525441 L-0.013310529088989245,-0.023332418239702113 L0.0,-0.0" fill-opacity="0" stroke="black" stroke-width="1" />
<path d="M-0.219667852987063,0.5930279954525446 L-0.013310529088989245,0.02333241823970411 L0.0,-0.0" fill-opacity="0" stroke="black" stroke-width="1" />
<path d="M-0.219667852987063,-99.40697200454746 L-0.013310529088989245,-99.9766675817603 L0.0,-100.0" fill-opacity="0" stroke="black" stroke-width="1" />
<path d="M-93.0,-0.0 L-87.75374536038628,-1.55841153998873 L-85.22792969991833,-3.0384223715793666" fill-opacity="0" stroke="black" stroke-width="1" />
<path d="M-93.0,-0.0 L-87.75374536038628,1.55841153998873 L-85.22792969991833,3.0384223715793666" fill-opacity="0" stroke="black" stroke-width="1" />
<path d="M-87.75374536038628,-1.55841153998873 L-85.22792969991833,-3.0384223715793666 L-83.008210135157,-4.964317349120835" fill-opacity="0" stroke="black" stroke-width="1" />
<path d="M-87.75374536038628,1.55841153998873 L-85.22792969991833,3.0384223715793666 L-83.008210135157,4.964317349120835" fill-opacity="0" stroke="black" stroke-width="1" />
<path d="M-85.22792969991833,-3.0384223715793666 L-83.008210135157,-4.964317349120835 L-82.27391432237329,-5.349527786732609" fill-opacity="0" stroke="black" stroke-width="1" />
<path d="M-85.22792969991833,3.0384223715793666 L-83.008210135157,4.964317349120835 L-82.27391432237329,5.349527786732609" fill-opacity="0" stroke="black" stroke-width="1" />
<path d="M-83.008210135157,-4.964317349120835 L-82.27391432237329,-5.349527786732609 L-75.2807132539752,-5.941556381432806" fill-opacity="0" stroke="black" stroke-width="1" />
<path d="M-83.008210135157,4.964317349120835 L-82.27391432237329,5.349527786732609 L-75.2807132539752,5.941556381432806" fill-opacity="0" stroke="black" stroke-width="1" />
<path d="M-82.27391432237329,-5.349527786732609 L-75.2807132539752,-5.941556381432806 L-73.0,-0.0" fill-opacity="0" stroke="black" stroke-width="1" />
<path d="M-82.27391432237329,5.349527786732609 L-75.2807132539752,5.941556381432806 L-73.0,-0.0" fill-opacity="0" stroke="black" stroke-width="1" />
<path d="M-73.0,-0.0 L-72.29719703344614,-14.89408369855078 L-71.85187946860589,-19.06870090159837" fill-opacity="0" stroke="black" stroke-width="1" />
<path d="M-73.0,-0.0 L-72.29719703344614,14.89408369855078 L-71.85187946860589,19.06870090159837" fill-opacity="0" stroke="black" stroke-width="1" />
<path d="M-72.29719703344614,-14.89408369855078 L-71.85187946860589,-19.06870090159837 L-69.6995972977196,-19.568973421064623" fill-opacity="0" stroke="black" stroke-width="1" />
<path d="M-72.29719703344614,14.89408369855078 L-71.85187946860589,19.06870090159837 L-69.6995972977196,19.568973421064623" fill-opacity="0" stroke="black" stroke-width="1" />
<path d="M-71.85187946860589,-19.06870090159837 L-69.6995972977196,-19.568973421064623 L-68.0,-0.0" fill-opacity="0" stroke="black" stroke-width="1" />
<path d="M-71.85187946860589,19.06870090159837 L-69.6995972977196,19.568973421064623 L-68.0,-0.0" fill-opacity="0" stroke="black" stroke-width="1" />
<path d="M-50.0,-50.0 L-58.0,-42.0 L-60.0,-40.0" fill-opacity="0" stroke="black" stroke-width="1" />
<path d="M-50.0,50.0 L-58.0,42.0 L-60.0,40.0" fill-opacity="0" stroke="black" stroke-width="1" />
<path d="M-50.0,-21.0 L-69.02995877786472,-22.811211602006807 L-61.34104495294839,-27.729087085133692" fill-opacity="0" stroke="black" stroke-width="1" />
<path d="M-50.0,21.0 L-69.02995877786472,22.811211602006807 L-61.34104495294839,27.729087085133692" fill-opacity="0" stroke="black" stroke-width="1" />
<path d="M-69.02995877786472,-22.811211602006807 L-61.34104495294839,-27.729087085133692 L-55.94068619559725,-28.576167092290994" fill-opacity="0" stroke="black" stroke-width="1" />
<path d="M-69.02995877786472,22.811211602006807 L-61.34104495294839,27.729087085133692 L-55.94068619559725,28.576167092290994" fill-opacity="0" stroke="black" stroke-width="1" />
<path d="M-61.34104495294839,-27.729087085133692 L-55.94068619559725,-28.576167092290994 L-55.54809352978989,-31.45588482910981" fill-opacity="0" stroke="black" stroke-width="1" />
<path d="M-61.34104495294839,27.729087085133692 L-55.94068619559725,28.576167092290994 L-55.54809352978989,31.45588482910981" fill-opacity="0" stroke="black" stroke-width="1" />
<path d="M-55.94068619559725,-28.576167092290994 L-55.54809352978989,-31.45588482910981 L-50.0,-32.0" fill-opacity="0" stroke="black" stroke-width="1" />
<path d="M-55.94068619559725,28.576167092290994 L-55.54809352978989,31.45588482910981 L-50.0,32.0" fill-opacity="0" stroke="black" stroke-width="1" />
<path d="M-50.0,-35.0 L-50.76854308254087,-36.564464949807466 L-50.0,-50.0" fill-opacity="0" stroke="black" stroke-width="1" />
<path d="M-50.0,35.0 L-50.76854308254087,36.564464949807466 L-50.0,50.0" fill-opacity="0" stroke="black" stroke-width="1" />
<path d="M-58.0,-42.0 L-60.0,-40.0 L-76.0,-24.0" fill-opacity="0" stroke="black" stroke-width="1" />
<path d="M-58.0,42.0 L-60.0,40.0 L-76.0,24.0" fill-opacity="0" stroke="black" stroke-width="1" />
<path d="M-60.0,-40.0 L-76.0,-24.0 L-92.75538419135339,-0.8189416758153725" fill-opacity="0" stroke="black" stroke-width="1" />
<path d="M-60.0,40.0 L-76.0,24.0 L-92.75538419135339,0.8189416758153725" fill-opacity="0" stroke="black" stroke-width="1" />
<path d="M-76.0,-24.0 L-92.75538419135339,-0.8189416758153725 L-94.0,-6.0" fill-opacity="0" stroke="black" stroke-width="1" />
<path d="M-76.0,24.0 L-92.75538419135339,0.8189416758153725 L-94.0,6.0" fill-opacity="0" stroke="black" stroke-width="1" />
<path d="M-92.75538419135339,-0.8189416758153725 L-94.0,-6.0 L-94.74707485928067,-0.6792330711674455" fill-opacity="0" stroke="black" stroke-width="1" />
<path d="M-92.75538419135339,0.8189416758153725 L-94.0,6.0 L-94.74707485928067,0.6792330711674455" fill-opacity="0" stroke="black" stroke-width="1" />
<path d="M-94.0,-6.0 L-94.74707485928067,-0.6792330711674455 L-95.0,-5.0" fill-opacity="0" stroke="black" stroke-width="1" />
<path d="M-94.0,6.0 L-94.74707485928067,0.6792330711674455 L-95.0,5.0" fill-opacity="0" stroke="black" stroke-width="1" />
<path d="M-94.74707485928067,-0.6792330711674455 L-95.0,-5.0 L-99.34220680384263,-0.24932786363794046" fill-opacity="0" stroke="black" stroke-width="1" />
<path d="M-94.74707485928067,0.6792330711674455 L-95.0,5.0 L-99.34220680384263,0.24932786363794046" fill-opacity="0" stroke="black" stroke-width="1" />
<path d="M-95.0,-5.0 L-99.34220680384263,-0.24932786363794046 L-99.40697200454746,-0.219667852987063" fill-opacity="0" stroke="black" stroke-width="1" />
<path d="M-95.0,5.0 L-99.34220680384263,0.24932786363794046 L-99.40697200454746,0.219667852987063" fill-opacity="0" stroke="black" stroke-width="1" />
<path d="M-99.34220680384263,-0.24932786363794046 L-99.40697200454746,-0.219667852987063 L-99.9766675817603,-0.013310529088989245" fill-opacity="0" stroke="black" stroke-width="1" />
<path d="M-99.34220680384263,0.24932786363794046 L-99.40697200454746,0.219667852987063 L-99.9766675817603,0.013310529088989245" fill-opacity="0" stroke="black" stroke-width="1" />
<path d="M-99.40697200454746,-0.219667852987063 L-99.9766675817603,-0.013310529088989245 L-100.0,-0.0" fill-opacity="0" stroke="black" stroke-width="1" />
<path d="M-99.40697200454746,0.219667852987063 L-99.9766675817603,0.013310529088989245 L-100.0,-0.0" fill-opacity="0" stroke="black" stroke-width="1" />
<circle cx="0" cy="-97" r="8" stroke-dasharray="39.653880605311166 10.611601852125524" stroke-dashoffset="-17.59291886010284" stroke="black" stroke-width="1" fill="white" fill-opacity="1" />
<circle cx="0" cy="-97" r="4" stroke="black" stroke-width="1" fill="white" fill-opacity="1" />
</svg>