<?xml version="1.0" encoding="UTF-8"?>
<svg xmlns="http://www.w3.org/2000/svg" xmlns:xlink="http://www.w3.org/1999/xlink"
     width="250" height="250" viewBox="-125.0 -125.0 250 250">
<defs>
</defs>
<path d="M17.0,-0.0 L20.681587588307025,-12.295159268721276 L23.0,-0.0" fill="blue" fill-opacity="0.6" stroke="black" stroke-width="1" />
<path d="M17.0,-0.0 L20.681587588307025,12.295159268721276 L23.0,-0.0" fill="red" fill-opacity="0.6" stroke="black" stroke-width="1" />
<path d="M50.0,-50.0 L40.65908767242656,-37.3423480228174 L35.0,-35.0" fill="orange" fill-opacity="0.6" stroke="black" stroke-width="1" />
<path d="M50.0,50.0 L40.65908767242656,37.3423480228174 L35.0,35.0" fill="pink" fill-opacity="0.6" stroke="black" stroke-width="1" />
<path d="M37.3423480228174,59.34091232757344 L35.0,65.0 L34.0,66.0" fill="black" fill-opacity="0.6" stroke="black" stroke-width="1" />
<path d="M37.3423480228174,-59.34091232757344 L35.0,-65.0 L34.0,-66.0" fill="orange" fill-opacity="0.6" stroke="black" stroke-width="1" />
<path d="M35.0,65.0 L34.0,66.0 L22.0,78.0" fill="purple" fill-opacity="0.6" stroke="black" stroke-width="1" />
<path d="M35.0,-65.0 L34.0,-66.0 L22.0,-78.0" fill="yellow" fill-opacity="0.6" stroke="black" stroke-width="1" />
<path d="M34.0,66.0 L22.0,78.0 L20.0,80.0" fill="orange" fill-opacity="0.6" stroke="black" stroke-width="1" />
<path d="M34.0,-66.0 L22.0,-78.0 L20.0,-80.0" fill="red" fill-opacity="0.6" stroke="black" stroke-width="1" />
<path d="M22.0,78.0 L20.0,80.0 L7.122454972857567,85.54728287972192" fill="pink" fill-opacity="0.6" stroke="black" stroke-width="1" />
<path d="M22.0,-78.0 L20.0,-80.0 L7.122454972857567,-85.54728287972192" fill="purple" fill-opacity="0.6" stroke="black" stroke-width="1" />
<path d="M20.0,-20.0 L14.45271712027808,-7.122454972857567 L13.241471139641874,-6.407913369404769" fill="brown" fill-opacity="0.6" stroke="black" stroke-width="1" />
<path d="M20.0,20.0 L14.45271712027808,7.122454972857567 L13.241471139641874,6.407913369404769" fill="yellow" fill-opacity="0.6" stroke="black" stroke-width="1" />
<path d="M14.45271712027808,-7.122454972857567 L13.241471139641874,-6.407913369404769 L1.9149123213512642,-0.22768141188611105" fill="brown" fill-opacity="0.6" stroke="black" stroke-width="1" />
<path d="M14.45271712027808,7.122454972857567 L13.241471139641874,6.407913369404769 L1.9149123213512642,0.22768141188611105" fill="green" fill-opacity="0.6" stroke="black" stroke-width="1" />
<path d="M13.241471139641874,-6.407913369404769 L1.9149123213512642,-0.22768141188611105 L0.0,-0.0" fill="green" fill-opacity="0.6" stroke="black" stroke-width="1" />
<path d="M13.241471139641874,6.407913369404769 L1.9149123213512642,0.22768141188611105 L0.0,-0.0" fill="yellow" fill-opacity="0.6" stroke="black" stroke-width="1" />
<path d="M-17.0,-0.0 L-20.681587588307025,-12.295159268721276 L-23.0,-0.0" fill="brown" fill-opacity="0.6" stroke="black" stroke-width="1" />
<path d="M-17.0,-0.0 L-20.681587588307025,12.295159268721276 L-23.0,-0.0" fill="green" fill-opacity="0.6" stroke="black" stroke-width="1" />
<path d="M-50.0,-50.0 L-40.65908767242656,-37.3423480228174 L-35.0,-35.0" fill="yellow" fill-opacity="0.6" stroke="black" stroke-width="1" />
<path d="M-50.0,50.0 L-40.65908767242656,37.3423480228174 L-35.0,35.0" fill="purple" fill-opacity="0.6" stroke="black" stroke-width="1" />
<path d="M-37.3423480228174,59.34091232757344 L-35.0,65.0 L-34.0,66.0" fill="brown" fill-opacity="0.6" stroke="black" stroke-width="1" />
<path d="M-37.3423480228174,-59.34091232757344 L-35.0,-65.0 L-34.0,-66.0" fill="yellow" fill-opacity="0.6" stroke="black" stroke-width="1" />
<path d="M-35.0,65.0 L-34.0,66.0 L-22.0,78.0" fill="green" fill-opacity="0.6" stroke="black" stroke-width="1" />
<path d="M-35.0,-65.0 L-34.0,-66.0 L-22.0,-78.0" fill="blue" fill-opacity="0.6" stroke="black" stroke-width="1" />
<path d="M-34.0,66.0 L-22.0,78.0 L-20.0,80.0" fill="orange" fill-opacity="0.6" stroke="black" stroke-width="1" />
<path d="M-34.0,-66.0 L-22.0,-78.0 L-20.0,-80.0" fill="brown" fill-opacity="0.6" stroke="black" stroke-width="1" />
<path d="M-22.0,78.0 L-20.0,80.0 L-7.122454972857567,85.54728287972192" fill="purple" fill-opacity="0.6" stroke="black" stroke-width="1" />
<path d="M-22.0,-78.0 L-20.0,-80.0 L-7.122454972857567,-85.54728287972192" fill="red" fill-opacity="0.6" stroke="black" stroke-width="1" />
<path d="M-20.0,-20.0 L-14.45271712027808,-7.122454972857567 L-13.241471139641874,-6.407913369404769" fill="orange" fill-opacity="0.6" stroke="black" stroke-width="1" />
<path d="M-20.0,20.0 L-14.45271712027808,7.122454972857567 L-13.241471139641874,6.407913369404769" fill="blue" fill-opacity="0.6" stroke="black" stroke-width="1" />
<path d="M-14.45271712027808,-7.122454972857567 L-13.241471139641874,-6.407913369404769 L-1.9149123213512642,-0.22768141188611105" fill="pink" fill-opacity="0.6" stroke="black" stroke-width="1" />
<path d="M-14.45271712027808,7.122454972857567 L-13.241471139641874,6.407913369404769 L-1.9149123213512642,0.22768141188611105" fill="blue" fill-opacity="0.6" stroke="black" stroke-width="1" />
<path d="M-13.241471139641874,-6.407913369404769 L-1.9149123213512642,-0.22768141188611105 L0.0,-0.0" fill="brown" fill-opacity="0.6" stroke="black" stroke-width="1" />
<path d="M-13.241471139641874,6.407913369404769 L-1.9149123213512642,0.22768141188611105 L0.0,-0.0" fill="orange" fill-opacity="0.6" stroke="black" stroke-width="1" />
<path d="M83.0,-0.0 L79.31841241169298,12.295159268721276 L77.0,-0.0" fill="brown" fill-opacity="0.6" stroke="black" stroke-width="1" />
<path d="M83.0,-0.0 L79.31841241169298,-12.295159268721276 L77.0,-0.0" fill="pink" fill-opacity="0.6" stroke="black" stroke-width="1" />
<path d="M50.0,50.0 L59.34091232757344,37.3423480228174 L65.0,35.0" fill="yellow" fill-opacity="0.6" stroke="black" stroke-width="1" />
<path d="M50.0,-50.0 L59.34091232757344,-37.3423480228174 L65.0,-35.0" fill="yellow" fill-opacity="0.6" stroke="black" stroke-width="1" />
<path d="M59.34091232757344,37.3423480228174 L65.0,35.0 L66.0,34.0" fill="blue" fill-opacity="0.6" stroke="black" stroke-width="1" />
<path d="M59.34091232757344,-37.3423480228174 L65.0,-35.0 L66.0,-34.0" fill="black" fill-opacity="0.6" stroke="black" stroke-width="1" />
<path d="M65.0,35.0 L66.0,34.0 L78.0,22.0" fill="brown" fill-opacity="0.6" stroke="black" stroke-width="1" />
<path d="M65.0,-35.0 L66.0,-34.0 L78.0,-22.0" fill="pink" fill-opacity="0.6" stroke="black" stroke-width="1" />
<path d="M66.0,34.0 L78.0,22.0 L80.0,20.0" fill="green" fill-opacity="0.6" stroke="black" stroke-width="1" />
<path d="M66.0,-34.0 L78.0,-22.0 L80.0,-20.0" fill="red" fill-opacity="0.6" stroke="black" stroke-width="1" />
<path d="M78.0,22.0 L80.0,20.0 L85.54728287972192,7.122454972857567" fill="green" fill-opacity="0.6" stroke="black" stroke-width="1" />
<path d="M78.0,-22.0 L80.0,-20.0 L85.54728287972192,-7.122454972857567" fill="yellow" fill-opacity="0.6" stroke="black" stroke-width="1" />
<path d="M80.0,20.0 L85.54728287972192,7.122454972857567 L86.75852886035813,6.407913369404769" fill="purple" fill-opacity="0.6" stroke="black" stroke-width="1" />
<path d="M80.0,-20.0 L85.54728287972192,-7.122454972857567 L86.75852886035813,-6.407913369404769" fill="orange" fill-opacity="0.6" stroke="black" stroke-width="1" />
<path d="M85.54728287972192,7.122454972857567 L86.75852886035813,6.407913369404769 L98.08508767864873,0.22768141188611105" fill="green" fill-opacity="0.6" stroke="black" stroke-width="1" />
<path d="M85.54728287972192,-7.122454972857567 L86.75852886035813,-6.407913369404769 L98.08508767864873,-0.22768141188611105" fill="pink" fill-opacity="0.6" stroke="black" stroke-width="1" />
<path d="M86.75852886035813,6.407913369404769 L98.08508767864873,0.22768141188611105 L100.0,-0.0" fill="orange" fill-opacity="0.6" stroke="black" stroke-width="1" />
<path d="M86.75852886035813,-6.407913369404769 L98.08508767864873,-0.22768141188611105 L100.0,-0.0" fill="red" fill-opacity="0.6" stroke="black" stroke-width="1" />
<path d="M0.0,-17.0 L12.295159268721276,-20.681587588307025 L0.0,-23.0" fill="purple" fill-opacity="0.6" stroke="black" stroke-width="1" />
<path d="M0.0,17.0 L12.295159268721276,20.681587588307025 L0.0,23.0" fill="yellow" fill-opacity="0.6" stroke="black" stroke-width="1" />
<path d="M0.0,83.0 L12.295159268721276,79.31841241169298 L0.0,77.0" fill="red" fill-opacity="0.6" stroke="black" stroke-width="1" />
<path d="M0.0,-83.0 L12.295159268721276,-79.31841241169298 L0.0,-77.0" fill="pink" fill-opacity="0.6" stroke="black" stroke-width="1" />
<path d="M50.0,-50.0 L37.3423480228174,-40.65908767242656 L35.0,-35.0" fill="pink" fill-opacity="0.6" stroke="black" stroke-width="1" />
<path d="M50.0,50.0 L37.3423480228174,40.65908767242656 L35.0,35.0" fill="blue" fill-opacity="0.6" stroke="black" stroke-width="1" />
<path d="M50.0,50.0 L37.3423480228174,59.34091232757344 L35.0,65.0" fill="black" fill-opacity="0.6" stroke="black" stroke-width="1" />
<path d="M50.0,-50.0 L37.3423480228174,-59.34091232757344 L35.0,-65.0" fill="red" fill-opacity="0.6" stroke="black" stroke-width="1" />
<path d="M20.0,-20.0 L7.122454972857567,-14.45271712027808 L6.407913369404769,-13.241471139641874" fill="brown" fill-opacity="0.6" stroke="black" stroke-width="1" />
<path d="M20.0,20.0 L7.122454972857567,14.45271712027808 L6.407913369404769,13.241471139641874" fill="green" fill-opacity="0.6" stroke="black" stroke-width="1" />
<path d="M20.0,80.0 L7.122454972857567,85.54728287972192 L6.407913369404769,86.75852886035813" fill="green" fill-opacity="0.6" stroke="black" stroke-width="1" />
<path d="M20.0,-80.0 L7.122454972857567,-85.54728287972192 L6.407913369404769,-86.75852886035813" fill="brown" fill-opacity="0.6" stroke="black" stroke-width="1" />
<path d="M7.122454972857567,-14.45271712027808 L6.407913369404769,-13.241471139641874 L0.22768141188611105,-1.9149123213512642" fill="blue" fill-opacity="0.6" stroke="black" stroke-width="1" />
<path d="M7.122454972857567,14.45271712027808 L6.407913369404769,13.241471139641874 L0.22768141188611105,1.9149123213512642" fill="pink" fill-opacity="0.6" stroke="black" stroke-width="1" />
<path d="M7.122454972857567,85.54728287972192 L6.407913369404769,86.75852886035813 L0.22768141188611105,98.08508767864873" fill="yellow" fill-opacity="0.6" stroke="black" stroke-width="1" />
<path d="M7.122454972857567,-85.54728287972192 L6.407913369404769,-86.75852886035813 L0.22768141188611105,-98.08508767864873" fill="yellow" fill-opacity="0.6" stroke="black" stroke-width="1" />
<path d="M6.407913369404769,-13.241471139641874 L0.22768141188611105,-1.9149123213512642 L0.0,-0.0" fill="green" fill-opacity="0.6" stroke="black" stroke-width="1" />
<path d="M6.407913369404769,13.241471139641874 L0.22768141188611105,1.9149123213512642 L0.0,-0.0" fill="yellow" fill-opacity="0.6" stroke="black" stroke-width="1" />
<path d="M6.407913369404769,86.75852886035813 L0.22768141188611105,98.08508767864873 L0.0,100.0" fill="blue" fill-opacity="0.6" stroke="black" stroke-width="1" />
<path d="M6.407913369404769,-86.75852886035813 L0.22768141188611105,-98.08508767864873 L0.0,-100.0" fill="green" fill-opacity="0.6" stroke="black" stroke-width="1" />
<path d="M0.0,83.0 L-12.295159268721276,79.31841241169298 L0.0,77.0" fill="orange" fill-opacity="0.6" stroke="black" stroke-width="1" />
<path d="M0.0,-17.0 L-12.295159268721276,-20.681587588307025 L0.0,-23.0" fill="black" fill-opacity="0.6" stroke="black" stroke-width="1" />
<path d="M0.0,17.0 L-12.295159268721276,20.681587588307025 L0.0,23.0" fill="yellow" fill-opacity="0.6" stroke="black" stroke-width="1" />
<path d="M0.0,-83.0 L-12.295159268721276,-79.31841241169298 L0.0,-77.0" fill="red" fill-opacity="0.6" stroke="black" stroke-width="1" />
<path d="M-50.0,50.0 L-37.3423480228174,59.34091232757344 L-35.0,65.0" fill="yellow" fill-opacity="0.6" stroke="black" stroke-width="1" />
<path d="M-50.0,-50.0 L-37.3423480228174,-40.65908767242656 L-35.0,-35.0" fill="black" fill-opacity="0.6" stroke="black" stroke-width="1" />
<path d="M-50.0,50.0 L-37.3423480228174,40.65908767242656 L-35.0,35.0" fill="brown" fill-opacity="0.6" stroke="black" stroke-width="1" />
<path d="M-50.0,-50.0 L-37.3423480228174,-59.34091232757344 L-35.0,-65.0" fill="orange" fill-opacity="0.6" stroke="black" stroke-width="1" />
<path d="M-20.0,80.0 L-7.122454972857567,85.54728287972192 L-6.407913369404769,86.75852886035813" fill="purple" fill-opacity="0.6" stroke="black" stroke-width="1" />
<path d="M-20.0,-20.0 L-7.122454972857567,-14.45271712027808 L-6.407913369404769,-13.241471139641874" fill="blue" fill-opacity="0.6" stroke="black" stroke-width="1" />
<path d="M-20.0,20.0 L-7.122454972857567,14.45271712027808 L-6.407913369404769,13.241471139641874" fill="brown" fill-opacity="0.6" stroke="black" stroke-width="1" />
<path d="M-20.0,-80.0 L-7.122454972857567,-85.54728287972192 L-6.407913369404769,-86.75852886035813" fill="pink" fill-opacity="0.6" stroke="black" stroke-width="1" />
<path d="M-7.122454972857567,85.54728287972192 L-6.407913369404769,86.75852886035813 L-0.22768141188611105,98.08508767864873" fill="purple" fill-opacity="0.6" stroke="black" stroke-width="1" />
<path d="M-7.122454972857567,-14.45271712027808 L-6.407913369404769,-13.241471139641874 L-0.22768141188611105,-1.9149123213512642" fill="pink" fill-opacity="0.6" stroke="black" stroke-width="1" />
<path d="M-7.122454972857567,14.45271712027808 L-6.407913369404769,13.241471139641874 L-0.22768141188611105,1.9149123213512667" fill="red" fill-opacity="0.6" stroke="black" stroke-width="1" />
<path d="M-7.122454972857567,-85.54728287972192 L-6.407913369404769,-86.75852886035813 L-0.22768141188611105,-98.08508767864873" fill="yellow" fill-opacity="0.6" stroke="black" stroke-width="1" />
<path d="M-6.407913369404769,86.75852886035813 L-0.22768141188611105,98.08508767864873 L0.0,100.0" fill="pink" fill-opacity="0.6" stroke="black" stroke-width="1" />
<path d="M-6.407913369404769,-13.241471139641874 L-0.22768141188611105,-1.9149123213512642 L0.0,-0.0" fill="pink" fill-opacity="0.6" stroke="black" stroke-width="1" />
<path d="M-6.407913369404769,13.241471139641874 L-0.22768141188611105,1.9149123213512667 L0.0,-0.0" fill="brown" fill-opacity="0.6" stroke="black" stroke-width="1" />
<path d="M-6.407913369404769,-86.75852886035813 L-0.22768141188611105,-98.08508767864873 L0.0,-100.0" fill="brown" fill-opacity="0.6" stroke="black" stroke-width="1" />
<path d="M-83.0,-0.0 L-79.31841241169298,-12.295159268721276 L-77.0,-0.0" fill="orange" fill-opacity="0.6" stroke="black" stroke-width="1" />
<path d="M-83.0,-0.0 L-79.31841241169298,12.295159268721276 L-77.0,-0.0" fill="purple" fill-opacity="0.6" stroke="black" stroke-width="1" />
<path d="M-50.0,-50.0 L-59.34091232757344,-37.3423480228174 L-65.0,-35.0" fill="orange" fill-opacity="0.6" stroke="black" stroke-width="1" />
<path d="M-50.0,50.0 L-59.34091232757344,37.3423480228174 L-65.0,35.0" fill="black" fill-opacity="0.6" stroke="black" stroke-width="1" />
<path d="M-59.34091232757344,-37.3423480228174 L-65.0,-35.0 L-66.0,-34.0" fill="green" fill-opacity="0.6" stroke="black" stroke-width="1" />
<path d="M-59.34091232757344,37.3423480228174 L-65.0,35.0 L-66.0,34.0" fill="black" fill-opacity="0.6" stroke="black" stroke-width="1" />
<path d="M-65.0,-35.0 L-66.0,-34.0 L-78.0,-22.0" fill="green" fill-opacity="0.6" stroke="black" stroke-width="1" />
<path d="M-65.0,35.0 L-66.0,34.0 L-78.0,22.0" fill="brown" fill-opacity="0.6" stroke="black" stroke-width="1" />
<path d="M-66.0,-34.0 L-78.0,-22.0 L-80.0,-20.0" fill="purple" fill-opacity="0.6" stroke="black" stroke-width="1" />
<path d="M-66.0,34.0 L-78.0,22.0 L-80.0,20.0" fill="blue" fill-opacity="0.6" stroke="black" stroke-width="1" />
<path d="M-78.0,-22.0 L-80.0,-20.0 L-85.54728287972192,-7.122454972857567" fill="brown" fill-opacity="0.6" stroke="black" stroke-width="1" />
<path d="M-78.0,22.0 L-80.0,20.0 L-85.54728287972192,7.122454972857567" fill="black" fill-opacity="0.6" stroke="black" stroke-width="1" />
<path d="M-80.0,-20.0 L-85.54728287972192,-7.122454972857567 L-86.75852886035813,-6.407913369404769" fill="orange" fill-opacity="0.6" stroke="black" stroke-width="1" />
<path d="M-80.0,20.0 L-85.54728287972192,7.122454972857567 L-86.75852886035813,6.407913369404769" fill="orange" fill-opacity="0.6" stroke="black" stroke-width="1" />
<path d="M-85.54728287972192,-7.122454972857567 L-86.75852886035813,-6.407913369404769 L-98.08508767864873,-0.22768141188611105" fill="purple" fill-opacity="0.6" stroke="black" stroke-width="1" />
<path d="M-85.54728287972192,7.122454972857567 L-86.75852886035813,6.407913369404769 L-98.08508767864873,0.22768141188611105" fill="pink" fill-opacity="0.6" stroke="black" stroke-width="1" />
<path d="M-86.75852886035813,-6.407913369404769 L-98.08508767864873,-0.22768141188611105 L-100.0,-0.0" fill="green" fill-opacity="0.6" stroke="black" stroke-width="1" />
<path d="M-86.75852886035813,6.407913369404769 L-98.08508767864873,0.22768141188611105 L-100.0,-0.0" fill="green" fill-opacity="0.6" stroke="black" stroke-width="1" />
</svg>