<?xml version="1.0" encoding="UTF-8"?>
<svg xmlns="http://www.w3.org/2000/svg" xmlns:xlink="http://www.w3.org/1999/xlink"
     width="250" height="250" viewBox="-125.0 -125.0 250 250">
<defs>
</defs>
<path d="M0.0,-0.0 L11.060914290360007,-0.3505358222994859 L19.87222952305646,-0.6655452556891595" fill="purple" fill-opacity="0.6" stroke="black" stroke-width="1" />
<path d="M0.0,-0.0 L11.060914290360007,0.3505358222994859 L19.87222952305646,0.6655452556891595" fill="blue" fill-opacity="0.6" stroke="black" stroke-width="1" />
<path d="M11.060914290360007,-0.3505358222994859 L19.87222952305646,-0.6655452556891595 L21.24830154820799,-8.76247456095252" fill="orange" fill-opacity="0.6" stroke="black" stroke-width="1" />
<path d="M11.060914290360007,0.3505358222994859 L19.87222952305646,0.6655452556891595 L21.24830154820799,8.76247456095252" fill="brown" fill-opacity="0.6" stroke="black" stroke-width="1" />
<path d="M19.87222952305646,-0.6655452556891595 L21.24830154820799,-8.76247456095252 L24.0,-0.0" fill="green" fill-opacity="0.6" stroke="black" stroke-width="1" />
<path d="M19.87222952305646,0.6655452556891595 L21.24830154820799,8.76247456095252 L24.0,-0.0" fill="green" fill-opacity="0.6" stroke="black" stroke-width="1" />
<path d="M30.0,70.0 L27.0,73.0 L19.868746491916234,74.81336875157479" fill="blue" fill-opacity="0.6" stroke="black" stroke-width="1" />
<path d="M30.0,-70.0 L27.0,-73.0 L19.868746491916234,-74.81336875157479" fill="blue" fill-opacity="0.6" stroke="black" stroke-width="1" />
<path d="M50.0,-13.0 L34.349811091711835,-21.60208213317622 L50.0,-23.0" fill="blue" fill-opacity="0.6" stroke="black" stroke-width="1" />
<path d="M50.0,13.0 L34.349811091711835,21.60208213317622 L50.0,23.0" fill="brown" fill-opacity="0.6" stroke="black" stroke-width="1" />
<path d="M50.0,-23.0 L47.27177745607723,-36.52696756171777 L50.0,-50.0" fill="yellow" fill-opacity="0.6" stroke="black" stroke-width="1" />
<path d="M50.0,23.0 L47.27177745607723,36.52696756171777 L50.0,50.0" fill="black" fill-opacity="0.6" stroke="black" stroke-width="1" />
<path d="M50.0,-50.0 L48.534220156344,-42.579387170181185 L37.983687345662936,-33.05875710580476" fill="green" fill-opacity="0.6" stroke="black" stroke-width="1" />
<path d="M50.0,50.0 L48.534220156344,42.579387170181185 L37.983687345662936,33.05875710580476" fill="brown" fill-opacity="0.6" stroke="black" stroke-width="1" />
<path d="M48.534220156344,-42.579387170181185 L37.983687345662936,-33.05875710580476 L37.838395625993456,-31.17260024818458" fill="black" fill-opacity="0.6" stroke="black" stroke-width="1" />
<path d="M48.534220156344,42.579387170181185 L37.983687345662936,33.05875710580476 L37.838395625993456,31.17260024818458" fill="green" fill-opacity="0.6" stroke="black" stroke-width="1" />
<path d="M37.983687345662936,-33.05875710580476 L37.838395625993456,-31.17260024818458 L36.463802017279704,-31.13190577578217" fill="orange" fill-opacity="0.6" stroke="black" stroke-width="1" />
<path d="M37.983687345662936,33.05875710580476 L37.838395625993456,31.17260024818458 L36.463802017279704,31.13190577578217" fill="yellow" fill-opacity="0.6" stroke="black" stroke-width="1" />
<path d="M37.838395625993456,-31.17260024818458 L36.463802017279704,-31.13190577578217 L33.0,-33.0" fill="brown" fill-opacity="0.6" stroke="black" stroke-width="1" />
<path d="M37.838395625993456,31.17260024818458 L36.463802017279704,31.13190577578217 L33.0,33.0" fill="brown" fill-opacity="0.6" stroke="black" stroke-width="1" />
<path d="M31.13190577578217,63.536197982720296 L33.0,67.0 L30.0,70.0" fill="red" fill-opacity="0.6" stroke="black" stroke-width="1" />
<path d="M31.13190577578217,-63.536197982720296 L33.0,-67.0 L30.0,-70.0" fill="red" fill-opacity="0.6" stroke="black" stroke-width="1" />
<path d="M33.0,67.0 L30.0,70.0 L27.0,73.0" fill="red" fill-opacity="0.6" stroke="black" stroke-width="1" />
<path d="M33.0,-67.0 L30.0,-70.0 L27.0,-73.0" fill="pink" fill-opacity="0.6" stroke="black" stroke-width="1" />
<path d="M27.0,-27.0 L25.186631248425208,-19.868746491916234 L23.017998640575374,-18.202922392707954" fill="green" fill-opacity="0.6" stroke="black" stroke-width="1" />
<path d="M27.0,27.0 L25.186631248425208,19.868746491916234 L23.017998640575374,18.202922392707954" fill="red" fill-opacity="0.6" stroke="black" stroke-width="1" />
<path d="M25.186631248425208,-19.868746491916234 L23.017998640575374,-18.202922392707954 L2.0,-2.0" fill="yellow" fill-opacity="0.6" stroke="black" stroke-width="1" />
<path d="M25.186631248425208,19.868746491916234 L23.017998640575374,18.202922392707954 L2.0,2.0" fill="blue" fill-opacity="0.6" stroke="black" stroke-width="1" />
<path d="M18.202922392707954,76.98200135942463 L2.0,98.0 L0.0,100.0" fill="red" fill-opacity="0.6" stroke="black" stroke-width="1" />
<path d="M18.202922392707954,-76.98200135942463 L2.0,-98.0 L0.0,-100.0" fill="red" fill-opacity="0.6" stroke="black" stroke-width="1" />
<path d="M0.0,-0.0 L-11.060914290360007,-0.3505358222994859 L-19.87222952305646,-0.6655452556891595" fill="yellow" fill-opacity="0.6" stroke="black" stroke-width="1" />
<path d="M0.0,-0.0 L-11.060914290360007,0.3505358222994859 L-19.87222952305646,0.6655452556891595" fill="orange" fill-opacity="0.6" stroke="black" stroke-width="1" />
<path d="M-11.060914290360007,-0.3505358222994859 L-19.87222952305646,-0.6655452556891595 L-21.24830154820799,-8.76247456095252" fill="black" fill-opacity="0.6" stroke="black" stroke-width="1" />
<path d="M-11.060914290360007,0.3505358222994859 L-19.87222952305646,0.6655452556891595 L-21.24830154820799,8.76247456095252" fill="red" fill-opacity="0.6" stroke="black" stroke-width="1" />
<path d="M-19.87222952305646,-0.6655452556891595 L-21.24830154820799,-8.76247456095252 L-24.0,-0.0" fill="purple" fill-opacity="0.6" stroke="black" stroke-width="1" />
<path d="M-19.87222952305646,0.6655452556891595 L-21.24830154820799,8.76247456095252 L-24.0,-0.0" fill="orange" fill-opacity="0.6" stroke="black" stroke-width="1" />
<path d="M-30.0,70.0 L-27.0,73.0 L-19.868746491916234,74.81336875157479" fill="green" fill-opacity="0.6" stroke="black" stroke-width="1" />
<path d="M-30.0,-70.0 L-27.0,-73.0 L-19.868746491916234,-74.81336875157479" fill="pink" fill-opacity="0.6" stroke="black" stroke-width="1" />
<path d="M-50.0,-13.0 L-34.349811091711835,-21.60208213317622 L-50.0,-23.0" fill="brown" fill-opacity="0.6" stroke="black" stroke-width="1" />
<path d="M-50.0,13.0 L-34.349811091711835,21.60208213317622 L-50.0,23.0" fill="pink" fill-opacity="0.6" stroke="black" stroke-width="1" />
<path d="M-50.0,-23.0 L-47.27177745607723,-36.52696756171777 L-50.0,-50.0" fill="brown" fill-opacity="0.6" stroke="black" stroke-width="1" />
<path d="M-50.0,23.0 L-47.27177745607723,36.52696756171777 L-50.0,50.0" fill="orange" fill-opacity="0.6" stroke="black" stroke-width="1" />
<path d="M-50.0,-50.0 L-48.534220156344,-42.579387170181185 L-37.983687345662936,-33.05875710580476" fill="blue" fill-opacity="0.6" stroke="black" stroke-width="1" />
<path d="M-50.0,50.0 L-48.534220156344,42.579387170181185 L-37.983687345662936,33.05875710580476" fill="purple" fill-opacity="0.6" stroke="black" stroke-width="1" />
<path d="M-48.534220156344,-42.579387170181185 L-37.983687345662936,-33.05875710580476 L-37.838395625993456,-31.17260024818458" fill="brown" fill-opacity="0.6" stroke="black" stroke-width="1" />
<path d="M-48.534220156344,42.579387170181185 L-37.983687345662936,33.05875710580476 L-37.838395625993456,31.17260024818458" fill="red" fill-opacity="0.6" stroke="black" stroke-width="1" />
<path d="M-37.983687345662936,-33.05875710580476 L-37.838395625993456,-31.17260024818458 L-36.463802017279704,-31.13190577578217" fill="red" fill-opacity="0.6" stroke="black" stroke-width="1" />
<path d="M-37.983687345662936,33.05875710580476 L-37.838395625993456,31.17260024818458 L-36.463802017279704,31.13190577578217" fill="purple" fill-opacity="0.6" stroke="black" stroke-width="1" />
<path d="M-37.838395625993456,-31.17260024818458 L-36.463802017279704,-31.13190577578217 L-33.0,-33.0" fill="blue" fill-opacity="0.6" stroke="black" stroke-width="1" />
<path d="M-37.838395625993456,31.17260024818458 L-36.463802017279704,31.13190577578217 L-33.0,33.0" fill="red" fill-opacity="0.6" stroke="black" stroke-width="1" />
<path d="M-31.13190577578217,63.536197982720296 L-33.0,67.0 L-30.0,70.0" fill="orange" fill-opacity="0.6" stroke="black" stroke-width="1" />
<path d="M-31.13190577578217,-63.536197982720296 L-33.0,-67.0 L-30.0,-70.0" fill="blue" fill-opacity="0.6" stroke="black" stroke-width="1" />
<path d="M-33.0,67.0 L-30.0,70.0 L-27.0,73.0" fill="pink" fill-opacity="0.6" stroke="black" stroke-width="1" />
<path d="M-33.0,-67.0 L-30.0,-70.0 L-27.0,-73.0" fill="pink" fill-opacity="0.6" stroke="black" stroke-width="1" />
<path d="M-27.0,-27.0 L-25.186631248425208,-19.868746491916234 L-23.017998640575374,-18.202922392707954" fill="red" fill-opacity="0.6" stroke="black" stroke-width="1" />
<path d="M-27.0,27.0 L-25.186631248425208,19.868746491916234 L-23.017998640575374,18.202922392707954" fill="green" fill-opacity="0.6" stroke="black" stroke-width="1" />
<path d="M-25.186631248425208,-19.868746491916234 L-23.017998640575374,-18.202922392707954 L-2.0,-2.0" fill="green" fill-opacity="0.6" stroke="black" stroke-width="1" />
<path d="M-25.186631248425208,19.868746491916234 L-23.017998640575374,18.202922392707954 L-2.0,2.0" fill="brown" fill-opacity="0.6" stroke="black" stroke-width="1" />
<path d="M-18.202922392707954,76.98200135942463 L-2.0,98.0 L0.0,100.0" fill="red" fill-opacity="0.6" stroke="black" stroke-width="1" />
<path d="M-18.202922392707954,-76.98200135942463 L-2.0,-98.0 L0.0,-100.0" fill="pink" fill-opacity="0.6" stroke="black" stroke-width="1" />
<path d="M100.0,-0.0 L88.93908570964,0.3505358222994859 L80.12777047694354,0.6655452556891595" fill="red" fill-opacity="0.6" stroke="black" stroke-width="1" />
<path d="M100.0,-0.0 L88.93908570964,-0.3505358222994859 L80.12777047694354,-0.6655452556891595" fill="black" fill-opacity="0.6" stroke="black" stroke-width="1" />
<path d="M88.93908570964,0.3505358222994859 L80.12777047694354,0.6655452556891595 L78.75169845179201,8.76247456095252" fill="yellow" fill-opacity="0.6" stroke="black" stroke-width="1" />
<path d="M88.93908570964,-0.3505358222994859 L80.12777047694354,-0.6655452556891595 L78.75169845179201,-8.76247456095252" fill="brown" fill-opacity="0.6" stroke="black" stroke-width="1" />
<path d="M80.12777047694354,0.6655452556891595 L78.75169845179201,8.76247456095252 L76.0,-0.0" fill="purple" fill-opacity="0.6" stroke="black" stroke-width="1" />
<path d="M80.12777047694354,-0.6655452556891595 L78.75169845179201,-8.76247456095252 L76.0,-0.0" fill="yellow" fill-opacity="0.6" stroke="black" stroke-width="1" />
<path d="M70.0,30.0 L73.0,27.0 L74.81336875157479,19.868746491916234" fill="red" fill-opacity="0.6" stroke="black" stroke-width="1" />
<path d="M70.0,-30.0 L73.0,-27.0 L74.81336875157479,-19.868746491916234" fill="orange" fill-opacity="0.6" stroke="black" stroke-width="1" />
<path d="M50.0,13.0 L65.65018890828816,21.60208213317622 L50.0,23.0" fill="pink" fill-opacity="0.6" stroke="black" stroke-width="1" />
<path d="M50.0,-13.0 L65.65018890828816,-21.60208213317622 L50.0,-23.0" fill="blue" fill-opacity="0.6" stroke="black" stroke-width="1" />
<path d="M50.0,23.0 L52.72822254392277,36.52696756171777 L50.0,50.0" fill="red" fill-opacity="0.6" stroke="black" stroke-width="1" />
<path d="M50.0,-23.0 L52.72822254392277,-36.52696756171777 L50.0,-50.0" fill="black" fill-opacity="0.6" stroke="black" stroke-width="1" />
<path d="M50.0,50.0 L51.465779843656,42.579387170181185 L62.016312654337064,33.05875710580476" fill="orange" fill-opacity="0.6" stroke="black" stroke-width="1" />
<path d="M50.0,-50.0 L51.465779843656,-42.579387170181185 L62.016312654337064,-33.05875710580476" fill="yellow" fill-opacity="0.6" stroke="black" stroke-width="1" />
<path d="M51.465779843656,42.579387170181185 L62.016312654337064,33.05875710580476 L62.161604374006544,31.17260024818458" fill="yellow" fill-opacity="0.6" stroke="black" stroke-width="1" />
<path d="M51.465779843656,-42.579387170181185 L62.016312654337064,-33.05875710580476 L62.161604374006544,-31.17260024818458" fill="red" fill-opacity="0.6" stroke="black" stroke-width="1" />
<path d="M62.016312654337064,33.05875710580476 L62.161604374006544,31.17260024818458 L63.536197982720296,31.13190577578217" fill="orange" fill-opacity="0.6" stroke="black" stroke-width="1" />
<path d="M62.016312654337064,-33.05875710580476 L62.161604374006544,-31.17260024818458 L63.536197982720296,-31.13190577578217" fill="red" fill-opacity="0.6" stroke="black" stroke-width="1" />
<path d="M62.161604374006544,31.17260024818458 L63.536197982720296,31.13190577578217 L67.0,33.0" fill="orange" fill-opacity="0.6" stroke="black" stroke-width="1" />
<path d="M62.161604374006544,-31.17260024818458 L63.536197982720296,-31.13190577578217 L67.0,-33.0" fill="orange" fill-opacity="0.6" stroke="black" stroke-width="1" />
<path d="M63.536197982720296,31.13190577578217 L67.0,33.0 L70.0,30.0" fill="brown" fill-opacity="0.6" stroke="black" stroke-width="1" />
<path d="M63.536197982720296,-31.13190577578217 L67.0,-33.0 L70.0,-30.0" fill="yellow" fill-opacity="0.6" stroke="black" stroke-width="1" />
<path d="M67.0,33.0 L70.0,30.0 L73.0,27.0" fill="purple" fill-opacity="0.6" stroke="black" stroke-width="1" />
<path d="M67.0,-33.0 L70.0,-30.0 L73.0,-27.0" fill="brown" fill-opacity="0.6" stroke="black" stroke-width="1" />
<path d="M73.0,27.0 L74.81336875157479,19.868746491916234 L76.98200135942463,18.202922392707954" fill="pink" fill-opacity="0.6" stroke="black" stroke-width="1" />
<path d="M73.0,-27.0 L74.81336875157479,-19.868746491916234 L76.98200135942463,-18.202922392707954" fill="pink" fill-opacity="0.6" stroke="black" stroke-width="1" />
<path d="M74.81336875157479,19.868746491916234 L76.98200135942463,18.202922392707954 L98.0,2.0" fill="red" fill-opacity="0.6" stroke="black" stroke-width="1" />
<path d="M74.81336875157479,-19.868746491916234 L76.98200135942463,-18.202922392707954 L98.0,-2.0" fill="pink" fill-opacity="0.6" stroke="black" stroke-width="1" />
<path d="M76.98200135942463,18.202922392707954 L98.0,2.0 L100.0,-0.0" fill="brown" fill-opacity="0.6" stroke="black" stroke-width="1" />
<path d="M76.98200135942463,-18.202922392707954 L98.0,-2.0 L100.0,-0.0" fill="purple" fill-opacity="0.6" stroke="black" stroke-width="1" />
<path d="M0.0,-0.0 L0.3505358222994859,-11.060914290360007 L0.6655452556891595,-19.87222952305646" fill="pink" fill-opacity="0.6" stroke="black" stroke-width="1" />
<path d="M0.0,-0.0 L0.3505358222994859,11.060914290360007 L0.6655452556891595,19.87222952305646" fill="pink" fill-opacity="0.6" stroke="black" stroke-width="1" />
<path d="M0.0,100.0 L0.3505358222994859,88.93908570964 L0.6655452556891595,80.12777047694354" fill="black" fill-opacity="0.6" stroke="black" stroke-width="1" />
<path d="M0.0,-100.0 L0.3505358222994859,-88.93908570964 L0.6655452556891595,-80.12777047694354" fill="blue" fill-opacity="0.6" stroke="black" stroke-width="1" />
<path d="M0.3505358222994859,-11.060914290360007 L0.6655452556891595,-19.87222952305646 L8.76247456095252,-21.24830154820799" fill="pink" fill-opacity="0.6" stroke="black" stroke-width="1" />
<path d="M0.3505358222994859,11.060914290360007 L0.6655452556891595,19.87222952305646 L8.76247456095252,21.24830154820799" fill="yellow" fill-opacity="0.6" stroke="black" stroke-width="1" />
<path d="M0.3505358222994859,88.93908570964 L0.6655452556891595,80.12777047694354 L8.76247456095252,78.75169845179201" fill="blue" fill-opacity="0.6" stroke="black" stroke-width="1" />
<path d="M0.3505358222994859,-88.93908570964 L0.6655452556891595,-80.12777047694354 L8.76247456095252,-78.75169845179201" fill="blue" fill-opacity="0.6" stroke="black" stroke-width="1" />
<path d="M0.6655452556891595,-19.87222952305646 L8.76247456095252,-21.24830154820799 L0.0,-24.0" fill="red" fill-opacity="0.6" stroke="black" stroke-width="1" />
<path d="M0.6655452556891595,19.87222952305646 L8.76247456095252,21.24830154820799 L0.0,24.0" fill="blue" fill-opacity="0.6" stroke="black" stroke-width="1" />
<path d="M0.6655452556891595,80.12777047694354 L8.76247456095252,78.75169845179201 L0.0,76.0" fill="black" fill-opacity="0.6" stroke="black" stroke-width="1" />
<path d="M0.6655452556891595,-80.12777047694354 L8.76247456095252,-78.75169845179201 L0.0,-76.0" fill="purple" fill-opacity="0.6" stroke="black" stroke-width="1" />
<path d="M13.0,-50.0 L21.60208213317622,-34.349811091711835 L23.0,-50.0" fill="black" fill-opacity="0.6" stroke="black" stroke-width="1" />
<path d="M13.0,50.0 L21.60208213317622,34.349811091711835 L23.0,50.0" fill="green" fill-opacity="0.6" stroke="black" stroke-width="1" />
<path d="M13.0,50.0 L21.60208213317622,65.65018890828816 L23.0,50.0" fill="blue" fill-opacity="0.6" stroke="black" stroke-width="1" />
<path d="M13.0,-50.0 L21.60208213317622,-65.65018890828816 L23.0,-50.0" fill="brown" fill-opacity="0.6" stroke="black" stroke-width="1" />
<path d="M23.0,-50.0 L36.52696756171777,-47.27177745607723 L50.0,-50.0" fill="red" fill-opacity="0.6" stroke="black" stroke-width="1" />
<path d="M23.0,50.0 L36.52696756171777,47.27177745607723 L50.0,50.0" fill="red" fill-opacity="0.6" stroke="black" stroke-width="1" />
<path d="M23.0,50.0 L36.52696756171777,52.72822254392277 L50.0,50.0" fill="purple" fill-opacity="0.6" stroke="black" stroke-width="1" />
<path d="M23.0,-50.0 L36.52696756171777,-52.72822254392277 L50.0,-50.0" fill="green" fill-opacity="0.6" stroke="black" stroke-width="1" />
<path d="M50.0,-50.0 L42.579387170181185,-48.534220156344 L33.05875710580476,-37.983687345662936" fill="brown" fill-opacity="0.6" stroke="black" stroke-width="1" />
<path d="M50.0,50.0 L42.579387170181185,48.534220156344 L33.05875710580476,37.983687345662936" fill="orange" fill-opacity="0.6" stroke="black" stroke-width="1" />
<path d="M50.0,50.0 L42.579387170181185,51.465779843656 L33.05875710580476,62.016312654337064" fill="blue" fill-opacity="0.6" stroke="black" stroke-width="1" />
<path d="M50.0,-50.0 L42.579387170181185,-51.465779843656 L33.05875710580476,-62.016312654337064" fill="black" fill-opacity="0.6" stroke="black" stroke-width="1" />
<path d="M42.579387170181185,-48.534220156344 L33.05875710580476,-37.983687345662936 L31.17260024818458,-37.838395625993456" fill="green" fill-opacity="0.6" stroke="black" stroke-width="1" />
<path d="M42.579387170181185,48.534220156344 L33.05875710580476,37.983687345662936 L31.17260024818458,37.838395625993456" fill="red" fill-opacity="0.6" stroke="black" stroke-width="1" />
<path d="M42.579387170181185,51.465779843656 L33.05875710580476,62.016312654337064 L31.17260024818458,62.161604374006544" fill="purple" fill-opacity="0.6" stroke="black" stroke-width="1" />
<path d="M42.579387170181185,-51.465779843656 L33.05875710580476,-62.016312654337064 L31.17260024818458,-62.161604374006544" fill="green" fill-opacity="0.6" stroke="black" stroke-width="1" />
<path d="M33.05875710580476,-37.983687345662936 L31.17260024818458,-37.838395625993456 L31.13190577578217,-36.463802017279704" fill="red" fill-opacity="0.6" stroke="black" stroke-width="1" />
<path d="M33.05875710580476,37.983687345662936 L31.17260024818458,37.838395625993456 L31.13190577578217,36.463802017279704" fill="brown" fill-opacity="0.6" stroke="black" stroke-width="1" />
<path d="M33.05875710580476,62.016312654337064 L31.17260024818458,62.161604374006544 L31.13190577578217,63.536197982720296" fill="black" fill-opacity="0.6" stroke="black" stroke-width="1" />
<path d="M33.05875710580476,-62.016312654337064 L31.17260024818458,-62.161604374006544 L31.13190577578217,-63.536197982720296" fill="brown" fill-opacity="0.6" stroke="black" stroke-width="1" />
<path d="M31.17260024818458,-37.838395625993456 L31.13190577578217,-36.463802017279704 L33.0,-33.0" fill="orange" fill-opacity="0.6" stroke="black" stroke-width="1" />
<path d="M31.17260024818458,37.838395625993456 L31.13190577578217,36.463802017279704 L33.0,33.0" fill="purple" fill-opacity="0.6" stroke="black" stroke-width="1" />
<path d="M31.17260024818458,62.161604374006544 L31.13190577578217,63.536197982720296 L33.0,67.0" fill="brown" fill-opacity="0.6" stroke="black" stroke-width="1" />
<path d="M31.17260024818458,-62.161604374006544 L31.13190577578217,-63.536197982720296 L33.0,-67.0" fill="blue" fill-opacity="0.6" stroke="black" stroke-width="1" />
<path d="M27.0,-27.0 L19.868746491916234,-25.186631248425208 L18.202922392707954,-23.017998640575374" fill="purple" fill-opacity="0.6" stroke="black" stroke-width="1" />
<path d="M27.0,27.0 L19.868746491916234,25.186631248425208 L18.202922392707954,23.017998640575374" fill="blue" fill-opacity="0.6" stroke="black" stroke-width="1" />
<path d="M27.0,73.0 L19.868746491916234,74.81336875157479 L18.202922392707954,76.98200135942463" fill="pink" fill-opacity="0.6" stroke="black" stroke-width="1" />
<path d="M27.0,-73.0 L19.868746491916234,-74.81336875157479 L18.202922392707954,-76.98200135942463" fill="black" fill-opacity="0.6" stroke="black" stroke-width="1" />
<path d="M19.868746491916234,-25.186631248425208 L18.202922392707954,-23.017998640575374 L2.0,-2.0" fill="blue" fill-opacity="0.6" stroke="black" stroke-width="1" />
<path d="M19.868746491916234,25.186631248425208 L18.202922392707954,23.017998640575374 L2.0,2.0" fill="orange" fill-opacity="0.6" stroke="black" stroke-width="1" />
<path d="M19.868746491916234,74.81336875157479 L18.202922392707954,76.98200135942463 L2.0,98.0" fill="yellow" fill-opacity="0.6" stroke="black" stroke-width="1" />
<path d="M19.868746491916234,-74.81336875157479 L18.202922392707954,-76.98200135942463 L2.0,-98.0" fill="yellow" fill-opacity="0.6" stroke="black" stroke-width="1" />
<path d="M0.0,100.0 L-0.3505358222994859,88.93908570964 L-0.6655452556891595,80.12777047694354" fill="yellow" fill-opacity="0.6" stroke="black" stroke-width="1" />
<path d="M0.0,-0.0 L-0.3505358222994859,-11.060914290360007 L-0.6655452556891595,-19.87222952305646" fill="purple" fill-opacity="0.6" stroke="black" stroke-width="1" />
<path d="M0.0,-0.0 L-0.3505358222994859,11.060914290360003 L-0.6655452556891595,19.87222952305646" fill="pink" fill-opacity="0.6" stroke="black" stroke-width="1" />
<path d="M0.0,-100.0 L-0.3505358222994859,-88.93908570964 L-0.6655452556891595,-80.12777047694354" fill="red" fill-opacity="0.6" stroke="black" stroke-width="1" />
<path d="M-0.3505358222994859,88.93908570964 L-0.6655452556891595,80.12777047694354 L-8.76247456095252,78.75169845179201" fill="black" fill-opacity="0.6" stroke="black" stroke-width="1" />
<path d="M-0.3505358222994859,-11.060914290360007 L-0.6655452556891595,-19.87222952305646 L-8.76247456095252,-21.24830154820799" fill="yellow" fill-opacity="0.6" stroke="black" stroke-width="1" />
<path d="M-0.3505358222994859,11.060914290360003 L-0.6655452556891595,19.87222952305646 L-8.76247456095252,21.24830154820799" fill="orange" fill-opacity="0.6" stroke="black" stroke-width="1" />
<path d="M-0.3505358222994859,-88.93908570964 L-0.6655452556891595,-80.12777047694354 L-8.76247456095252,-78.75169845179201" fill="green" fill-opacity="0.6" stroke="black" stroke-width="1" />
<path d="M-0.6655452556891595,80.12777047694354 L-8.76247456095252,78.75169845179201 L0.0,76.0" fill="blue" fill-opacity="0.6" stroke="black" stroke-width="1" />
<path d="M-0.6655452556891595,-19.87222952305646 L-8.76247456095252,-21.24830154820799 L0.0,-24.0" fill="red" fill-opacity="0.6" stroke="black" stroke-width="1" />
<path d="M-0.6655452556891595,19.87222952305646 L-8.76247456095252,21.24830154820799 L0.0,24.0" fill="purple" fill-opacity="0.6" stroke="black" stroke-width="1" />
<path d="M-0.6655452556891595,-80.12777047694354 L-8.76247456095252,-78.75169845179201 L0.0,-76.0" fill="pink" fill-opacity="0.6" stroke="black" stroke-width="1" />
<path d="M-13.0,50.0 L-21.60208213317622,65.65018890828816 L-23.0,50.0" fill="purple" fill-opacity="0.6" stroke="black" stroke-width="1" />
<path d="M-13.0,-50.0 L-21.60208213317622,-34.349811091711835 L-23.0,-50.0" fill="green" fill-opacity="0.6" stroke="black" stroke-width="1" />
<path d="M-13.0,50.0 L-21.60208213317622,34.34981109171184 L-23.0,50.0" fill="black" fill-opacity="0.6" stroke="black" stroke-width="1" />
<path d="M-13.0,-50.0 L-21.60208213317622,-65.65018890828816 L-23.0,-50.0" fill="green" fill-opacity="0.6" stroke="black" stroke-width="1" />
<path d="M-23.0,50.0 L-36.52696756171777,52.72822254392277 L-50.0,50.0" fill="red" fill-opacity="0.6" stroke="black" stroke-width="1" />
<path d="M-23.0,-50.0 L-36.52696756171777,-47.27177745607723 L-50.0,-50.0" fill="yellow" fill-opacity="0.6" stroke="black" stroke-width="1" />
<path d="M-23.0,50.0 L-36.52696756171777,47.27177745607723 L-50.0,50.0" fill="purple" fill-opacity="0.6" stroke="black" stroke-width="1" />
<path d="M-23.0,-50.0 L-36.52696756171777,-52.72822254392277 L-50.0,-50.0" fill="red" fill-opacity="0.6" stroke="black" stroke-width="1" />
<path d="M-50.0,50.0 L-42.579387170181185,51.465779843656 L-33.05875710580476,62.016312654337064" fill="red" fill-opacity="0.6" stroke="black" stroke-width="1" />
<path d="M-50.0,-50.0 L-42.579387170181185,-48.534220156344 L-33.05875710580476,-37.983687345662936" fill="yellow" fill-opacity="0.6" stroke="black" stroke-width="1" />
<path d="M-50.0,50.0 L-42.579387170181185,48.534220156344 L-33.05875710580476,37.983687345662936" fill="green" fill-opacity="0.6" stroke="black" stroke-width="1" />
<path d="M-50.0,-50.0 L-42.579387170181185,-51.465779843656 L-33.05875710580476,-62.016312654337064" fill="orange" fill-opacity="0.6" stroke="black" stroke-width="1" />
<path d="M-42.579387170181185,51.465779843656 L-33.05875710580476,62.016312654337064 L-31.17260024818458,62.161604374006544" fill="orange" fill-opacity="0.6" stroke="black" stroke-width="1" />
<path d="M-42.579387170181185,-48.534220156344 L-33.05875710580476,-37.983687345662936 L-31.17260024818458,-37.838395625993456" fill="blue" fill-opacity="0.6" stroke="black" stroke-width="1" />
<path d="M-42.579387170181185,48.534220156344 L-33.05875710580476,37.983687345662936 L-31.17260024818458,37.838395625993456" fill="black" fill-opacity="0.6" stroke="black" stroke-width="1" />
<path d="M-42.579387170181185,-51.465779843656 L-33.05875710580476,-62.016312654337064 L-31.17260024818458,-62.161604374006544" fill="green" fill-opacity="0.6" stroke="black" stroke-width="1" />
<path d="M-33.05875710580476,62.016312654337064 L-31.17260024818458,62.161604374006544 L-31.13190577578217,63.536197982720296" fill="green" fill-opacity="0.6" stroke="black" stroke-width="1" />
<path d="M-33.05875710580476,-37.983687345662936 L-31.17260024818458,-37.838395625993456 L-31.13190577578217,-36.463802017279704" fill="blue" fill-opacity="0.6" stroke="black" stroke-width="1" />
<path d="M-33.05875710580476,37.983687345662936 L-31.17260024818458,37.838395625993456 L-31.13190577578217,36.463802017279704" fill="pink" fill-opacity="0.6" stroke="black" stroke-width="1" />
<path d="M-33.05875710580476,-62.016312654337064 L-31.17260024818458,-62.161604374006544 L-31.13190577578217,-63.536197982720296" fill="brown" fill-opacity="0.6" stroke="black" stroke-width="1" />
<path d="M-31.17260024818458,62.161604374006544 L-31.13190577578217,63.536197982720296 L-33.0,67.0" fill="yellow" fill-opacity="0.6" stroke="black" stroke-width="1" />
<path d="M-31.17260024818458,-37.838395625993456 L-31.13190577578217,-36.463802017279704 L-33.0,-33.0" fill="black" fill-opacity="0.6" stroke="black" stroke-width="1" />
<path d="M-31.17260024818458,37.838395625993456 L-31.13190577578217,36.463802017279704 L-33.0,33.0" fill="orange" fill-opacity="0.6" stroke="black" stroke-width="1" />
<path d="M-31.17260024818458,-62.161604374006544 L-31.13190577578217,-63.536197982720296 L-33.0,-67.0" fill="green" fill-opacity="0.6" stroke="black" stroke-width="1" />
<path d="M-27.0,73.0 L-19.868746491916234,74.81336875157479 L-18.202922392707954,76.98200135942463" fill="yellow" fill-opacity="0.6" stroke="black" stroke-width="1" />
<path d="M-27.0,-27.0 L-19.868746491916234,-25.186631248425208 L-18.202922392707954,-23.017998640575374" fill="orange" fill-opacity="0.6" stroke="black" stroke-width="1" />
<path d="M-27.0,27.0 L-19.868746491916234,25.186631248425215 L-18.202922392707954,23.01799864057537" fill="purple" fill-opacity="0.6" stroke="black" stroke-width="1" />
<path d="M-27.0,-73.0 L-19.868746491916234,-74.81336875157479 L-18.202922392707954,-76.98200135942463" fill="brown" fill-opacity="0.6" stroke="black" stroke-width="1" />
<path d="M-19.868746491916234,74.81336875157479 L-18.202922392707954,76.98200135942463 L-2.0,98.0" fill="brown" fill-opacity="0.6" stroke="black" stroke-width="1" />
<path d="M-19.868746491916234,-25.186631248425208 L-18.202922392707954,-23.017998640575374 L-2.0,-2.0" fill="pink" fill-opacity="0.6" stroke="black" stroke-width="1" />
<path d="M-19.868746491916234,25.186631248425215 L-18.202922392707954,23.01799864057537 L-2.0,2.0" fill="green" fill-opacity="0.6" stroke="black" stroke-width="1" />
<path d="M-19.868746491916234,-74.81336875157479 L-18.202922392707954,-76.98200135942463 L-2.0,-98.0" fill="red" fill-opacity="0.6" stroke="black" stroke-width="1" />
<path d="M-100.0,-0.0 L-88.93908570964,-0.3505358222994859 L-80.12777047694354,-0.6655452556891595" fill="black" fill-opacity="0.6" stroke="black" stroke-width="1" />
<path d="M-100.0,-0.0 L-88.93908570964,0.3505358222994859 L-80.12777047694354,0.6655452556891595" fill="brown" fill-opacity="0.6" stroke="black" stroke-width="1" />
<path d="M-88.93908570964,-0.3505358222994859 L-80.12777047694354,-0.6655452556891595 L-78.75169845179201,-8.76247456095252" fill="green" fill-opacity="0.6" stroke="black" stroke-width="1" />
<path d="M-88.93908570964,0.3505358222994859 L-80.12777047694354,0.6655452556891595 L-78.75169845179201,8.76247456095252" fill="orange" fill-opacity="0.6" stroke="black" stroke-width="1" />
<path d="M-80.12777047694354,-0.6655452556891595 L-78.75169845179201,-8.76247456095252 L-76.0,-0.0" fill="black" fill-opacity="0.6" stroke="black" stroke-width="1" />
<path d="M-80.12777047694354,0.6655452556891595 L-78.75169845179201,8.76247456095252 L-76.0,-0.0" fill="blue" fill-opacity="0.6" stroke="black" stroke-width="1" />
<path d="M-70.0,-30.0 L-73.0,-27.0 L-74.81336875157479,-19.868746491916234" fill="orange" fill-opacity="0.6" stroke="black" stroke-width="1" />
<path d="M-70.0,30.0 L-73.0,27.0 L-74.81336875157479,19.868746491916234" fill="blue" fill-opacity="0.6" stroke="black" stroke-width="1" />
<path d="M-50.0,-13.0 L-65.65018890828816,-21.60208213317622 L-50.0,-23.0" fill="red" fill-opacity="0.6" stroke="black" stroke-width="1" />
<path d="M-50.0,13.0 L-65.65018890828816,21.60208213317622 L-50.0,23.0" fill="red" fill-opacity="0.6" stroke="black" stroke-width="1" />
<path d="M-50.0,-23.0 L-52.72822254392277,-36.52696756171777 L-50.0,-50.0" fill="brown" fill-opacity="0.6" stroke="black" stroke-width="1" />
<path d="M-50.0,23.0 L-52.72822254392277,36.52696756171777 L-50.0,50.0" fill="yellow" fill-opacity="0.6" stroke="black" stroke-width="1" />
<path d="M-50.0,-50.0 L-51.465779843656,-42.579387170181185 L-62.016312654337064,-33.05875710580476" fill="red" fill-opacity="0.6" stroke="black" stroke-width="1" />
<path d="M-50.0,50.0 L-51.465779843656,42.579387170181185 L-62.016312654337064,33.05875710580476" fill="black" fill-opacity="0.6" stroke="black" stroke-width="1" />
<path d="M-51.465779843656,-42.579387170181185 L-62.016312654337064,-33.05875710580476 L-62.161604374006544,-31.17260024818458" fill="purple" fill-opacity="0.6" stroke="black" stroke-width="1" />
<path d="M-51.465779843656,42.579387170181185 L-62.016312654337064,33.05875710580476 L-62.161604374006544,31.17260024818458" fill="blue" fill-opacity="0.6" stroke="black" stroke-width="1" />
<path d="M-62.016312654337064,-33.05875710580476 L-62.161604374006544,-31.17260024818458 L-63.536197982720296,-31.13190577578217" fill="pink" fill-opacity="0.6" stroke="black" stroke-width="1" />
<path d="M-62.016312654337064,33.05875710580476 L-62.161604374006544,31.17260024818458 L-63.536197982720296,31.13190577578217" fill="orange" fill-opacity="0.6" stroke="black" stroke-width="1" />
<path d="M-62.161604374006544,-31.17260024818458 L-63.536197982720296,-31.13190577578217 L-67.0,-33.0" fill="orange" fill-opacity="0.6" stroke="black" stroke-width="1" />
<path d="M-62.161604374006544,31.17260024818458 L-63.536197982720296,31.13190577578217 L-67.0,33.0" fill="yellow" fill-opacity="0.6" stroke="black" stroke-width="1" />
<path d="M-63.536197982720296,-31.13190577578217 L-67.0,-33.0 L-70.0,-30.0" fill="yellow" fill-opacity="0.6" stroke="black" stroke-width="1" />
<path d="M-63.536197982720296,31.13190577578217 L-67.0,33.0 L-70.0,30.0" fill="green" fill-opacity="0.6" stroke="black" stroke-width="1" />
<path d="M-67.0,-33.0 L-70.0,-30.0 L-73.0,-27.0" fill="brown" fill-opacity="0.6" stroke="black" stroke-width="1" />
<path d="M-67.0,33.0 L-70.0,30.0 L-73.0,27.0" fill="green" fill-opacity="0.6" stroke="black" stroke-width="1" />
<path d="M-73.0,-27.0 L-74.81336875157479,-19.868746491916234 L-76.98200135942463,-18.202922392707954" fill="pink" fill-opacity="0.6" stroke="black" stroke-width="1" />
<path d="M-73.0,27.0 L-74.81336875157479,19.868746491916234 L-76.98200135942463,18.202922392707954" fill="orange" fill-opacity="0.6" stroke="black" stroke-width="1" />
<path d="M-74.81336875157479,-19.868746491916234 L-76.98200135942463,-18.202922392707954 L-98.0,-2.0" fill="brown" fill-opacity="0.6" stroke="black" stroke-width="1" />
<path d="M-74.81336875157479,19.868746491916234 L-76.98200135942463,18.202922392707954 L-98.0,2.0" fill="purple" fill-opacity="0.6" stroke="black" stroke-width="1" />
<path d="M-76.98200135942463,-18.202922392707954 L-98.0,-2.0 L-100.0,-0.0" fill="yellow" fill-opacity="0.6" stroke="black" stroke-width="1" />
<path d="M-76.98200135942463,18.202922392707954 L-98.0,2.0 L-100.0,-0.0" fill="red" fill-opacity="0.6" stroke="black" stroke-width="1" />
</svg>