<?xml version="1.0" encoding="UTF-8"?>
<svg xmlns="http://www.w3.org/2000/svg" xmlns:xlink="http://www.w3.org/1999/xlink"
     width="250" height="250" viewBox="-125.0 -125.0 250 250">
<defs>
</defs>
<path d="M9.0,-0.0 L10.64842265022345,-1.3300575914178991 L13.161352016056144,-1.9510192849532537" fill-opacity="0" stroke="black" stroke-width="1" />
<path d="M9.0,-0.0 L10.64842265022345,1.3300575914178991 L13.161352016056144,1.9510192849532537" fill-opacity="0" stroke="black" stroke-width="1" />
<path d="M10.64842265022345,-1.3300575914178991 L13.161352016056144,-1.9510192849532537 L16.770814875451133,-3.092094342061713" fill-opacity="0" stroke="black" stroke-width="1" />
<path d="M10.64842265022345,1.3300575914178991 L13.161352016056144,1.9510192849532537 L16.770814875451133,3.092094342061713" fill-opacity="0" stroke="black" stroke-width="1" />
<path d="M13.161352016056144,-1.9510192849532537 L16.770814875451133,-3.092094342061713 L17.902195428064545,-4.8020131598601274" fill-opacity="0" stroke="black" stroke-width="1" />
<path d="M13.161352016056144,1.9510192849532537 L16.770814875451133,3.092094342061713 L17.902195428064545,4.8020131598601274" fill-opacity="0" stroke="black" stroke-width="1" />
<path d="M16.770814875451133,-3.092094342061713 L17.902195428064545,-4.8020131598601274 L19.185960734454227,-9.910293894653927" fill-opacity="0" stroke="black" stroke-width="1" />
<path d="M16.770814875451133,3.092094342061713 L17.902195428064545,4.8020131598601274 L19.185960734454227,9.910293894653927" fill-opacity="0" stroke="black" stroke-width="1" />
<path d="M17.902195428064545,-4.8020131598601274 L19.185960734454227,-9.910293894653927 L26.0,-0.0" fill-opacity="0" stroke="black" stroke-width="1" />
<path d="M17.902195428064545,4.8020131598601274 L19.185960734454227,9.910293894653927 L26.0,-0.0" fill-opacity="0" stroke="black" stroke-width="1" />
<path d="M27.0,-0.0 L27.1081848395022,-16.13237167729194 L28.424202760403638,-19.895449207007136" fill-opacity="0" stroke="black" stroke-width="1" />
<path d="M27.0,-0.0 L27.1081848395022,16.13237167729194 L28.424202760403638,19.895449207007136" fill-opacity="0" stroke="black" stroke-width="1" />
<path d="M27.1081848395022,-16.13237167729194 L28.424202760403638,-19.895449207007136 L34.0,-0.0" fill-opacity="0" stroke="black" stroke-width="1" />
<path d="M27.1081848395022,16.13237167729194 L28.424202760403638,19.895449207007136 L34.0,-0.0" fill-opacity="0" stroke="black" stroke-width="1" />
<path d="M36.0,64.0 L34.0,66.0 L15.87200643510594,76.47283631411739" fill-opacity="0" stroke="black" stroke-width="1" />
<path d="M36.0,-64.0 L34.0,-66.0 L15.87200643510594,-76.47283631411739" fill-opacity="0" stroke="black" stroke-width="1" />
<path d="M50.0,-50.0 L48.07420508513645,-42.23683469178546 L42.48970926203131,-42.19101686818424" fill-opacity="0" stroke="black" stroke-width="1" />
<path d="M50.0,50.0 L48.07420508513645,42.23683469178546 L42.48970926203131,42.19101686818424" fill-opacity="0" stroke="black" stroke-width="1" />
<path d="M48.07420508513645,-42.23683469178546 L42.48970926203131,-42.19101686818424 L40.791182577825225,-38.55918775198117" fill-opacity="0" stroke="black" stroke-width="1" />
<path d="M48.07420508513645,42.23683469178546 L42.48970926203131,42.19101686818424 L40.791182577825225,38.55918775198117" fill-opacity="0" stroke="black" stroke-width="1" />
<path d="M42.48970926203131,-42.19101686818424 L40.791182577825225,-38.55918775198117 L36.0,-36.0" fill-opacity="0" stroke="black" stroke-width="1" />
<path d="M42.48970926203131,42.19101686818424 L40.791182577825225,38.55918775198117 L36.0,36.0" fill-opacity="0" stroke="black" stroke-width="1" />
<path d="M38.55918775198117,59.208817422174775 L36.0,64.0 L34.0,66.0" fill-opacity="0" stroke="black" stroke-width="1" />
<path d="M38.55918775198117,-59.208817422174775 L36.0,-64.0 L34.0,-66.0" fill-opacity="0" stroke="black" stroke-width="1" />
<path d="M34.0,-34.0 L23.527163685882606,-15.87200643510594 L21.875600884280207,-14.774991425679392" fill-opacity="0" stroke="black" stroke-width="1" />
<path d="M34.0,34.0 L23.527163685882606,15.87200643510594 L21.875600884280207,14.774991425679392" fill-opacity="0" stroke="black" stroke-width="1" />
<path d="M23.527163685882606,-15.87200643510594 L21.875600884280207,-14.774991425679392 L19.0,-19.0" fill-opacity="0" stroke="black" stroke-width="1" />
<path d="M23.527163685882606,15.87200643510594 L21.875600884280207,14.774991425679392 L19.0,19.0" fill-opacity="0" stroke="black" stroke-width="1" />
<path d="M14.774991425679392,78.1243991157198 L19.0,81.0 L12.0,88.0" fill-opacity="0" stroke="black" stroke-width="1" />
<path d="M14.774991425679392,-78.1243991157198 L19.0,-81.0 L12.0,-88.0" fill-opacity="0" stroke="black" stroke-width="1" />
<path d="M19.0,81.0 L12.0,88.0 L10.0,90.0" fill-opacity="0" stroke="black" stroke-width="1" />
<path d="M19.0,-81.0 L12.0,-88.0 L10.0,-90.0" fill-opacity="0" stroke="black" stroke-width="1" />
<path d="M12.0,88.0 L10.0,90.0 L1.2355858911700879,91.28149905927387" fill-opacity="0" stroke="black" stroke-width="1" />
<path d="M12.0,-88.0 L10.0,-90.0 L1.2355858911700879,-91.28149905927387" fill-opacity="0" stroke="black" stroke-width="1" />
<path d="M10.0,-10.0 L8.718500940726127,-1.2355858911700879 L5.145055326304471,-1.084516299476967" fill-opacity="0" stroke="black" stroke-width="1" />
<path d="M10.0,10.0 L8.718500940726127,1.2355858911700879 L5.145055326304471,1.084516299476967" fill-opacity="0" stroke="black" stroke-width="1" />
<path d="M8.718500940726127,-1.2355858911700879 L5.145055326304471,-1.084516299476967 L4.0,-4.0" fill-opacity="0" stroke="black" stroke-width="1" />
<path d="M8.718500940726127,1.2355858911700879 L5.145055326304471,1.084516299476967 L4.0,4.0" fill-opacity="0" stroke="black" stroke-width="1" />
<path d="M1.084516299476967,94.85494467369553 L4.0,96.0 L0.7401959916766343,96.75785101645148" fill-opacity="0" stroke="black" stroke-width="1" />
<path d="M1.084516299476967,-94.85494467369553 L4.0,-96.0 L0.7401959916766343,-96.75785101645148" fill-opacity="0" stroke="black" stroke-width="1" />
<path d="M4.0,-4.0 L3.242148983548515,-0.7401959916766343 L2.38093567440259,-0.6495155609546999" fill-opacity="0" stroke="black" stroke-width="1" />
<path d="M4.0,4.0 L3.242148983548515,0.7401959916766343 L2.38093567440259,0.6495155609546999" fill-opacity="0" stroke="black" stroke-width="1" />
<path d="M3.242148983548515,-0.7401959916766343 L2.38093567440259,-0.6495155609546999 L1.5621499377717063,-0.37722610448565186" fill-opacity="0" stroke="black" stroke-width="1" />
<path d="M3.242148983548515,0.7401959916766343 L2.38093567440259,0.6495155609546999 L1.5621499377717063,0.37722610448565186" fill-opacity="0" stroke="black" stroke-width="1" />
<path d="M2.38093567440259,-0.6495155609546999 L1.5621499377717063,-0.37722610448565186 L0.25520712686787905,-0.14469110912608651" fill-opacity="0" stroke="black" stroke-width="1" />
<path d="M2.38093567440259,0.6495155609546999 L1.5621499377717063,0.37722610448565186 L0.25520712686787905,0.14469110912608651" fill-opacity="0" stroke="black" stroke-width="1" />
<path d="M1.5621499377717063,-0.37722610448565186 L0.25520712686787905,-0.14469110912608651 L0.0,-0.0" fill-opacity="0" stroke="black" stroke-width="1" />
<path d="M1.5621499377717063,0.37722610448565186 L0.25520712686787905,0.14469110912608651 L0.0,-0.0" fill-opacity="0" stroke="black" stroke-width="1" />
<path d="M-9.0,-0.0 L-10.64842265022345,-1.3300575914178991 L-13.161352016056144,-1.9510192849532537" fill-opacity="0" stroke="black" stroke-width="1" />
<path d="M-9.0,-0.0 L-10.64842265022345,1.3300575914178991 L-13.161352016056144,1.9510192849532537" fill-opacity="0" stroke="black" stroke-width="1" />
<path d="M-10.64842265022345,-1.3300575914178991 L-13.161352016056144,-1.9510192849532537 L-16.770814875451133,-3.092094342061713" fill-opacity="0" stroke="black" stroke-width="1" />
<path d="M-10.64842265022345,1.3300575914178991 L-13.161352016056144,1.9510192849532537 L-16.770814875451133,3.092094342061713" fill-opacity="0" stroke="black" stroke-width="1" />
<path d="M-13.161352016056144,-1.9510192849532537 L-16.770814875451133,-3.092094342061713 L-17.902195428064545,-4.8020131598601274" fill-opacity="0" stroke="black" stroke-width="1" />
<path d="M-13.161352016056144,1.9510192849532537 L-16.770814875451133,3.092094342061713 L-17.902195428064545,4.8020131598601274" fill-opacity="0" stroke="black" stroke-width="1" />
<path d="M-16.770814875451133,-3.092094342061713 L-17.902195428064545,-4.8020131598601274 L-19.185960734454227,-9.910293894653927" fill-opacity="0" stroke="black" stroke-width="1" />
<path d="M-16.770814875451133,3.092094342061713 L-17.902195428064545,4.8020131598601274 L-19.185960734454227,9.910293894653927" fill-opacity="0" stroke="black" stroke-width="1" />
<path d="M-17.902195428064545,-4.8020131598601274 L-19.185960734454227,-9.910293894653927 L-26.0,-0.0" fill-opacity="0" stroke="black" stroke-width="1" />
<path d="M-17.902195428064545,4.8020131598601274 L-19.185960734454227,9.910293894653927 L-26.0,-0.0" fill-opacity="0" stroke="black" stroke-width="1" />
<path d="M-27.0,-0.0 L-27.1081848395022,-16.13237167729194 L-28.424202760403638,-19.895449207007136" fill-opacity="0" stroke="black" stroke-width="1" />
<path d="M-27.0,-0.0 L-27.1081848395022,16.13237167729194 L-28.424202760403638,19.895449207007136" fill-opacity="0" stroke="black" stroke-width="1" />
<path d="M-27.1081848395022,-16.13237167729194 L-28.424202760403638,-19.895449207007136 L-34.0,-0.0" fill-opacity="0" stroke="black" stroke-width="1" />
<path d="M-27.1081848395022,16.13237167729194 L-28.424202760403638,19.895449207007136 L-34.0,-0.0" fill-opacity="0" stroke="black" stroke-width="1" />
<path d="M-36.0,64.0 L-34.0,66.0 L-15.87200643510594,76.47283631411739" fill-opacity="0" stroke="black" stroke-width="1" />
<path d="M-36.0,-64.0 L-34.0,-66.0 L-15.87200643510594,-76.47283631411739" fill-opacity="0" stroke="black" stroke-width="1" />
<path d="M-50.0,-50.0 L-48.07420508513645,-42.23683469178546 L-42.48970926203131,-42.19101686818424" fill-opacity="0" stroke="black" stroke-width="1" />
<path d="M-50.0,50.0 L-48.07420508513645,42.23683469178546 L-42.48970926203131,42.19101686818424" fill-opacity="0" stroke="black" stroke-width="1" />
<path d="M-48.07420508513645,-42.23683469178546 L-42.48970926203131,-42.19101686818424 L-40.791182577825225,-38.55918775198117" fill-opacity="0" stroke="black" stroke-width="1" />
<path d="M-48.07420508513645,42.23683469178546 L-42.48970926203131,42.19101686818424 L-40.791182577825225,38.55918775198117" fill-opacity="0" stroke="black" stroke-width="1" />
<path d="M-42.48970926203131,-42.19101686818424 L-40.791182577825225,-38.55918775198117 L-36.0,-36.0" fill-opacity="0" stroke="black" stroke-width="1" />
<path d="M-42.48970926203131,42.19101686818424 L-40.791182577825225,38.55918775198117 L-36.0,36.0" fill-opacity="0" stroke="black" stroke-width="1" />
<path d="M-38.55918775198117,59.208817422174775 L-36.0,64.0 L-34.0,66.0" fill-opacity="0" stroke="black" stroke-width="1" />
<path d="M-38.55918775198117,-59.208817422174775 L-36.0,-64.0 L-34.0,-66.0" fill-opacity="0" stroke="black" stroke-width="1" />
<path d="M-34.0,-34.0 L-23.527163685882606,-15.87200643510594 L-21.875600884280207,-14.774991425679392" fill-opacity="0" stroke="black" stroke-width="1" />
<path d="M-34.0,34.0 L-23.527163685882606,15.87200643510594 L-21.875600884280207,14.774991425679392" fill-opacity="0" stroke="black" stroke-width="1" />
<path d="M-23.527163685882606,-15.87200643510594 L-21.875600884280207,-14.774991425679392 L-19.0,-19.0" fill-opacity="0" stroke="black" stroke-width="1" />
<path d="M-23.527163685882606,15.87200643510594 L-21.875600884280207,14.774991425679392 L-19.0,19.0" fill-opacity="0" stroke="black" stroke-width="1" />
<path d="M-14.774991425679392,78.1243991157198 L-19.0,81.0 L-12.0,88.0" fill-opacity="0" stroke="black" stroke-width="1" />
<path d="M-14.774991425679392,-78.1243991157198 L-19.0,-81.0 L-12.0,-88.0" fill-opacity="0" stroke="black" stroke-width="1" />
<path d="M-19.0,81.0 L-12.0,88.0 L-10.0,90.0" fill-opacity="0" stroke="black" stroke-width="1" />
<path d="M-19.0,-81.0 L-12.0,-88.0 L-10.0,-90.0" fill-opacity="0" stroke="black" stroke-width="1" />
<path d="M-12.0,88.0 L-10.0,90.0 L-1.2355858911700879,91.28149905927387" fill-opacity="0" stroke="black" stroke-width="1" />
<path d="M-12.0,-88.0 L-10.0,-90.0 L-1.2355858911700879,-91.28149905927387" fill-opacity="0" stroke="black" stroke-width="1" />
<path d="M-10.0,-10.0 L-8.718500940726127,-1.2355858911700879 L-5.145055326304471,-1.084516299476967" fill-opacity="0" stroke="black" stroke-width="1" />
<path d="M-10.0,10.0 L-8.718500940726127,1.2355858911700879 L-5.145055326304471,1.084516299476967" fill-opacity="0" stroke="black" stroke-width="1" />
<path d="M-8.718500940726127,-1.2355858911700879 L-5.145055326304471,-1.084516299476967 L-4.0,-4.0" fill-opacity="0" stroke="black" stroke-width="1" />
<path d="M-8.718500940726127,1.2355858911700879 L-5.145055326304471,1.084516299476967 L-4.0,4.0" fill-opacity="0" stroke="black" stroke-width="1" />
<path d="M-1.084516299476967,94.85494467369553 L-4.0,96.0 L-0.7401959916766343,96.75785101645148" fill-opacity="0" stroke="black" stroke-width="1" />
<path d="M-1.084516299476967,-94.85494467369553 L-4.0,-96.0 L-0.7401959916766343,-96.75785101645148" fill-opacity="0" stroke="black" stroke-width="1" />
<path d="M-4.0,-4.0 L-3.242148983548515,-0.7401959916766343 L-2.38093567440259,-0.6495155609546999" fill-opacity="0" stroke="black" stroke-width="1" />
<path d="M-4.0,4.0 L-3.242148983548515,0.7401959916766343 L-2.38093567440259,0.6495155609546999" fill-opacity="0" stroke="black" stroke-width="1" />
<path d="M-3.242148983548515,-0.7401959916766343 L-2.38093567440259,-0.6495155609546999 L-1.5621499377717063,-0.37722610448565186" fill-opacity="0" stroke="black" stroke-width="1" />
<path d="M-3.242148983548515,0.7401959916766343 L-2.38093567440259,0.6495155609546999 L-1.5621499377717063,0.37722610448565186" fill-opacity="0" stroke="black" stroke-width="1" />
<path d="M-2.38093567440259,-0.6495155609546999 L-1.5621499377717063,-0.37722610448565186 L-0.25520712686787905,-0.14469110912608651" fill-opacity="0" stroke="black" stroke-width="1" />
<path d="M-2.38093567440259,0.6495155609546999 L-1.5621499377717063,0.37722610448565186 L-0.25520712686787905,0.14469110912608651" fill-opacity="0" stroke="black" stroke-width="1" />
<path d="M-1.5621499377717063,-0.37722610448565186 L-0.25520712686787905,-0.14469110912608651 L0.0,-0.0" fill-opacity="0" stroke="black" stroke-width="1" />
<path d="M-1.5621499377717063,0.37722610448565186 L-0.25520712686787905,0.14469110912608651 L0.0,-0.0" fill-opacity="0" stroke="black" stroke-width="1" />
<path d="M91.0,-0.0 L89.35157734977655,1.3300575914178991 L86.83864798394386,1.9510192849532537" fill-opacity="0" stroke="black" stroke-width="1" />
<path d="M91.0,-0.0 L89.35157734977655,-1.3300575914178991 L86.83864798394386,-1.9510192849532537" fill-opacity="0" stroke="black" stroke-width="1" />
<path d="M89.35157734977655,1.3300575914178991 L86.83864798394386,1.9510192849532537 L83.22918512454886,3.092094342061713" fill-opacity="0" stroke="black" stroke-width="1" />
<path d="M89.35157734977655,-1.3300575914178991 L86.83864798394386,-1.9510192849532537 L83.22918512454886,-3.092094342061713" fill-opacity="0" stroke="black" stroke-width="1" />
<path d="M86.83864798394386,1.9510192849532537 L83.22918512454886,3.092094342061713 L82.09780457193546,4.8020131598601274" fill-opacity="0" stroke="black" stroke-width="1" />
<path d="M86.83864798394386,-1.9510192849532537 L83.22918512454886,-3.092094342061713 L82.09780457193546,-4.8020131598601274" fill-opacity="0" stroke="black" stroke-width="1" />
<path d="M83.22918512454886,3.092094342061713 L82.09780457193546,4.8020131598601274 L80.81403926554577,9.910293894653927" fill-opacity="0" stroke="black" stroke-width="1" />
<path d="M83.22918512454886,-3.092094342061713 L82.09780457193546,-4.8020131598601274 L80.81403926554577,-9.910293894653927" fill-opacity="0" stroke="black" stroke-width="1" />
<path d="M82.09780457193546,4.8020131598601274 L80.81403926554577,9.910293894653927 L74.0,-0.0" fill-opacity="0" stroke="black" stroke-width="1" />
<path d="M82.09780457193546,-4.8020131598601274 L80.81403926554577,-9.910293894653927 L74.0,-0.0" fill-opacity="0" stroke="black" stroke-width="1" />
<path d="M73.0,-0.0 L72.8918151604978,16.13237167729194 L71.57579723959637,19.895449207007136" fill-opacity="0" stroke="black" stroke-width="1" />
<path d="M73.0,-0.0 L72.8918151604978,-16.13237167729194 L71.57579723959637,-19.895449207007136" fill-opacity="0" stroke="black" stroke-width="1" />
<path d="M72.8918151604978,16.13237167729194 L71.57579723959637,19.895449207007136 L66.0,-0.0" fill-opacity="0" stroke="black" stroke-width="1" />
<path d="M72.8918151604978,-16.13237167729194 L71.57579723959637,-19.895449207007136 L66.0,-0.0" fill-opacity="0" stroke="black" stroke-width="1" />
<path d="M64.0,36.0 L66.0,34.0 L76.47283631411739,15.87200643510594" fill-opacity="0" stroke="black" stroke-width="1" />
<path d="M64.0,-36.0 L66.0,-34.0 L76.47283631411739,-15.87200643510594" fill-opacity="0" stroke="black" stroke-width="1" />
<path d="M50.0,50.0 L51.92579491486355,42.23683469178546 L57.51029073796869,42.19101686818424" fill-opacity="0" stroke="black" stroke-width="1" />
<path d="M50.0,-50.0 L51.92579491486355,-42.23683469178546 L57.51029073796869,-42.19101686818424" fill-opacity="0" stroke="black" stroke-width="1" />
<path d="M51.92579491486355,42.23683469178546 L57.51029073796869,42.19101686818424 L59.208817422174775,38.55918775198117" fill-opacity="0" stroke="black" stroke-width="1" />
<path d="M51.92579491486355,-42.23683469178546 L57.51029073796869,-42.19101686818424 L59.208817422174775,-38.55918775198117" fill-opacity="0" stroke="black" stroke-width="1" />
<path d="M57.51029073796869,42.19101686818424 L59.208817422174775,38.55918775198117 L64.0,36.0" fill-opacity="0" stroke="black" stroke-width="1" />
<path d="M57.51029073796869,-42.19101686818424 L59.208817422174775,-38.55918775198117 L64.0,-36.0" fill-opacity="0" stroke="black" stroke-width="1" />
<path d="M59.208817422174775,38.55918775198117 L64.0,36.0 L66.0,34.0" fill-opacity="0" stroke="black" stroke-width="1" />
<path d="M59.208817422174775,-38.55918775198117 L64.0,-36.0 L66.0,-34.0" fill-opacity="0" stroke="black" stroke-width="1" />
<path d="M66.0,34.0 L76.47283631411739,15.87200643510594 L78.1243991157198,14.774991425679392" fill-opacity="0" stroke="black" stroke-width="1" />
<path d="M66.0,-34.0 L76.47283631411739,-15.87200643510594 L78.1243991157198,-14.774991425679392" fill-opacity="0" stroke="black" stroke-width="1" />
<path d="M76.47283631411739,15.87200643510594 L78.1243991157198,14.774991425679392 L81.0,19.0" fill-opacity="0" stroke="black" stroke-width="1" />
<path d="M76.47283631411739,-15.87200643510594 L78.1243991157198,-14.774991425679392 L81.0,-19.0" fill-opacity="0" stroke="black" stroke-width="1" />
<path d="M78.1243991157198,14.774991425679392 L81.0,19.0 L88.0,12.0" fill-opacity="0" stroke="black" stroke-width="1" />
<path d="M78.1243991157198,-14.774991425679392 L81.0,-19.0 L88.0,-12.0" fill-opacity="0" stroke="black" stroke-width="1" />
<path d="M81.0,19.0 L88.0,12.0 L90.0,10.0" fill-opacity="0" stroke="black" stroke-width="1" />
<path d="M81.0,-19.0 L88.0,-12.0 L90.0,-10.0" fill-opacity="0" stroke="black" stroke-width="1" />
<path d="M88.0,12.0 L90.0,10.0 L91.28149905927387,1.2355858911700879" fill-opacity="0" stroke="black" stroke-width="1" />
<path d="M88.0,-12.0 L90.0,-10.0 L91.28149905927387,-1.2355858911700879" fill-opacity="0" stroke="black" stroke-width="1" />
<path d="M90.0,10.0 L91.28149905927387,1.2355858911700879 L94.85494467369553,1.084516299476967" fill-opacity="0" stroke="black" stroke-width="1" />
<path d="M90.0,-10.0 L91.28149905927387,-1.2355858911700879 L94.85494467369553,-1.084516299476967" fill-opacity="0" stroke="black" stroke-width="1" />
<path d="M91.28149905927387,1.2355858911700879 L94.85494467369553,1.084516299476967 L96.0,4.0" fill-opacity="0" stroke="black" stroke-width="1" />
<path d="M91.28149905927387,-1.2355858911700879 L94.85494467369553,-1.084516299476967 L96.0,-4.0" fill-opacity="0" stroke="black" stroke-width="1" />
<path d="M94.85494467369553,1.084516299476967 L96.0,4.0 L96.75785101645148,0.7401959916766343" fill-opacity="0" stroke="black" stroke-width="1" />
<path d="M94.85494467369553,-1.084516299476967 L96.0,-4.0 L96.75785101645148,-0.7401959916766343" fill-opacity="0" stroke="black" stroke-width="1" />
<path d="M96.0,4.0 L96.75785101645148,0.7401959916766343 L97.6190643255974,0.6495155609546999" fill-opacity="0" stroke="black" stroke-width="1" />
<path d="M96.0,-4.0 L96.75785101645148,-0.7401959916766343 L97.6190643255974,-0.6495155609546999" fill-opacity="0" stroke="black" stroke-width="1" />
<path d="M96.75785101645148,0.7401959916766343 L97.6190643255974,0.6495155609546999 L98.43785006222829,0.37722610448565186" fill-opacity="0" stroke="black" stroke-width="1" />
<path d="M96.75785101645148,-0.7401959916766343 L97.6190643255974,-0.6495155609546999 L98.43785006222829,-0.37722610448565186" fill-opacity="0" stroke="black" stroke-width="1" />
<path d="M97.6190643255974,0.6495155609546999 L98.43785006222829,0.37722610448565186 L99.74479287313213,0.14469110912608651" fill-opacity="0" stroke="black" stroke-width="1" />
<path d="M97.6190643255974,-0.6495155609546999 L98.43785006222829,-0.37722610448565186 L99.74479287313213,-0.14469110912608651" fill-opacity="0" stroke="black" stroke-width="1" />
<path d="M98.43785006222829,0.37722610448565186 L99.74479287313213,0.14469110912608651 L100.0,-0.0" fill-opacity="0" stroke="black" stroke-width="1" />
<path d="M98.43785006222829,-0.37722610448565186 L99.74479287313213,-0.14469110912608651 L100.0,-0.0" fill-opacity="0" stroke="black" stroke-width="1" />
<path d="M0.0,-9.0 L1.3300575914178991,-10.64842265022345 L1.9510192849532537,-13.161352016056144" fill-opacity="0" stroke="black" stroke-width="1" />
<path d="M0.0,9.0 L1.3300575914178991,10.64842265022345 L1.9510192849532537,13.161352016056144" fill-opacity="0" stroke="black" stroke-width="1" />
<path d="M0.0,91.0 L1.3300575914178991,89.35157734977655 L1.9510192849532537,86.83864798394386" fill-opacity="0" stroke="black" stroke-width="1" />
<path d="M0.0,-91.0 L1.3300575914178991,-89.35157734977655 L1.9510192849532537,-86.83864798394386" fill-opacity="0" stroke="black" stroke-width="1" />
<path d="M1.3300575914178991,-10.64842265022345 L1.9510192849532537,-13.161352016056144 L3.092094342061713,-16.770814875451133" fill-opacity="0" stroke="black" stroke-width="1" />
<path d="M1.3300575914178991,10.64842265022345 L1.9510192849532537,13.161352016056144 L3.092094342061713,16.770814875451133" fill-opacity="0" stroke="black" stroke-width="1" />
<path d="M1.3300575914178991,89.35157734977655 L1.9510192849532537,86.83864798394386 L3.092094342061713,83.22918512454886" fill-opacity="0" stroke="black" stroke-width="1" />
<path d="M1.3300575914178991,-89.35157734977655 L1.9510192849532537,-86.83864798394386 L3.092094342061713,-83.22918512454886" fill-opacity="0" stroke="black" stroke-width="1" />
<path d="M1.9510192849532537,-13.161352016056144 L3.092094342061713,-16.770814875451133 L4.8020131598601274,-17.902195428064545" fill-opacity="0" stroke="black" stroke-width="1" />
<path d="M1.9510192849532537,13.161352016056144 L3.092094342061713,16.770814875451133 L4.8020131598601274,17.902195428064545" fill-opacity="0" stroke="black" stroke-width="1" />
<path d="M1.9510192849532537,86.83864798394386 L3.092094342061713,83.22918512454886 L4.8020131598601274,82.09780457193546" fill-opacity="0" stroke="black" stroke-width="1" />
<path d="M1.9510192849532537,-86.83864798394386 L3.092094342061713,-83.22918512454886 L4.8020131598601274,-82.09780457193546" fill-opacity="0" stroke="black" stroke-width="1" />
<path d="M3.092094342061713,-16.770814875451133 L4.8020131598601274,-17.902195428064545 L9.910293894653927,-19.185960734454227" fill-opacity="0" stroke="black" stroke-width="1" />
<path d="M3.092094342061713,16.770814875451133 L4.8020131598601274,17.902195428064545 L9.910293894653927,19.185960734454227" fill-opacity="0" stroke="black" stroke-width="1" />
<path d="M3.092094342061713,83.22918512454886 L4.8020131598601274,82.09780457193546 L9.910293894653927,80.81403926554577" fill-opacity="0" stroke="black" stroke-width="1" />
<path d="M3.092094342061713,-83.22918512454886 L4.8020131598601274,-82.09780457193546 L9.910293894653927,-80.81403926554577" fill-opacity="0" stroke="black" stroke-width="1" />
<path d="M4.8020131598601274,-17.902195428064545 L9.910293894653927,-19.185960734454227 L0.0,-26.0" fill-opacity="0" stroke="black" stroke-width="1" />
<path d="M4.8020131598601274,17.902195428064545 L9.910293894653927,19.185960734454227 L0.0,26.0" fill-opacity="0" stroke="black" stroke-width="1" />
<path d="M4.8020131598601274,82.09780457193546 L9.910293894653927,80.81403926554577 L0.0,74.0" fill-opacity="0" stroke="black" stroke-width="1" />
<path d="M4.8020131598601274,-82.09780457193546 L9.910293894653927,-80.81403926554577 L0.0,-74.0" fill-opacity="0" stroke="black" stroke-width="1" />
<path d="M0.0,-27.0 L16.13237167729194,-27.1081848395022 L19.895449207007136,-28.424202760403638" fill-opacity="0" stroke="black" stroke-width="1" />
<path d="M0.0,27.0 L16.13237167729194,27.1081848395022 L19.895449207007136,28.424202760403638" fill-opacity="0" stroke="black" stroke-width="1" />
<path d="M0.0,73.0 L16.13237167729194,72.8918151604978 L19.895449207007136,71.57579723959637" fill-opacity="0" stroke="black" stroke-width="1" />
<path d="M0.0,-73.0 L16.13237167729194,-72.8918151604978 L19.895449207007136,-71.57579723959637" fill-opacity="0" stroke="black" stroke-width="1" />
<path d="M16.13237167729194,-27.1081848395022 L19.895449207007136,-28.424202760403638 L0.0,-34.0" fill-opacity="0" stroke="black" stroke-width="1" />
<path d="M16.13237167729194,27.1081848395022 L19.895449207007136,28.424202760403638 L0.0,34.0" fill-opacity="0" stroke="black" stroke-width="1" />
<path d="M16.13237167729194,72.8918151604978 L19.895449207007136,71.57579723959637 L0.0,66.0" fill-opacity="0" stroke="black" stroke-width="1" />
<path d="M16.13237167729194,-72.8918151604978 L19.895449207007136,-71.57579723959637 L0.0,-66.0" fill-opacity="0" stroke="black" stroke-width="1" />
<path d="M50.0,-50.0 L42.23683469178546,-48.07420508513645 L42.19101686818424,-42.48970926203131" fill-opacity="0" stroke="black" stroke-width="1" />
<path d="M50.0,50.0 L42.23683469178546,48.07420508513645 L42.19101686818424,42.48970926203131" fill-opacity="0" stroke="black" stroke-width="1" />
<path d="M50.0,50.0 L42.23683469178546,51.92579491486355 L42.19101686818424,57.51029073796869" fill-opacity="0" stroke="black" stroke-width="1" />
<path d="M50.0,-50.0 L42.23683469178546,-51.92579491486355 L42.19101686818424,-57.51029073796869" fill-opacity="0" stroke="black" stroke-width="1" />
<path d="M42.23683469178546,-48.07420508513645 L42.19101686818424,-42.48970926203131 L38.55918775198117,-40.791182577825225" fill-opacity="0" stroke="black" stroke-width="1" />
<path d="M42.23683469178546,48.07420508513645 L42.19101686818424,42.48970926203131 L38.55918775198117,40.791182577825225" fill-opacity="0" stroke="black" stroke-width="1" />
<path d="M42.23683469178546,51.92579491486355 L42.19101686818424,57.51029073796869 L38.55918775198117,59.208817422174775" fill-opacity="0" stroke="black" stroke-width="1" />
<path d="M42.23683469178546,-51.92579491486355 L42.19101686818424,-57.51029073796869 L38.55918775198117,-59.208817422174775" fill-opacity="0" stroke="black" stroke-width="1" />
<path d="M42.19101686818424,-42.48970926203131 L38.55918775198117,-40.791182577825225 L36.0,-36.0" fill-opacity="0" stroke="black" stroke-width="1" />
<path d="M42.19101686818424,42.48970926203131 L38.55918775198117,40.791182577825225 L36.0,36.0" fill-opacity="0" stroke="black" stroke-width="1" />
<path d="M42.19101686818424,57.51029073796869 L38.55918775198117,59.208817422174775 L36.0,64.0" fill-opacity="0" stroke="black" stroke-width="1" />
<path d="M42.19101686818424,-57.51029073796869 L38.55918775198117,-59.208817422174775 L36.0,-64.0" fill-opacity="0" stroke="black" stroke-width="1" />
<path d="M34.0,-34.0 L15.87200643510594,-23.527163685882606 L14.774991425679392,-21.875600884280207" fill-opacity="0" stroke="black" stroke-width="1" />
<path d="M34.0,34.0 L15.87200643510594,23.527163685882606 L14.774991425679392,21.875600884280207" fill-opacity="0" stroke="black" stroke-width="1" />
<path d="M34.0,66.0 L15.87200643510594,76.47283631411739 L14.774991425679392,78.1243991157198" fill-opacity="0" stroke="black" stroke-width="1" />
<path d="M34.0,-66.0 L15.87200643510594,-76.47283631411739 L14.774991425679392,-78.1243991157198" fill-opacity="0" stroke="black" stroke-width="1" />
<path d="M15.87200643510594,-23.527163685882606 L14.774991425679392,-21.875600884280207 L19.0,-19.0" fill-opacity="0" stroke="black" stroke-width="1" />
<path d="M15.87200643510594,23.527163685882606 L14.774991425679392,21.875600884280207 L19.0,19.0" fill-opacity="0" stroke="black" stroke-width="1" />
<path d="M15.87200643510594,76.47283631411739 L14.774991425679392,78.1243991157198 L19.0,81.0" fill-opacity="0" stroke="black" stroke-width="1" />
<path d="M15.87200643510594,-76.47283631411739 L14.774991425679392,-78.1243991157198 L19.0,-81.0" fill-opacity="0" stroke="black" stroke-width="1" />
<path d="M10.0,-10.0 L1.2355858911700879,-8.718500940726127 L1.084516299476967,-5.145055326304471" fill-opacity="0" stroke="black" stroke-width="1" />
<path d="M10.0,10.0 L1.2355858911700879,8.718500940726127 L1.084516299476967,5.145055326304471" fill-opacity="0" stroke="black" stroke-width="1" />
<path d="M10.0,90.0 L1.2355858911700879,91.28149905927387 L1.084516299476967,94.85494467369553" fill-opacity="0" stroke="black" stroke-width="1" />
<path d="M10.0,-90.0 L1.2355858911700879,-91.28149905927387 L1.084516299476967,-94.85494467369553" fill-opacity="0" stroke="black" stroke-width="1" />
<path d="M1.2355858911700879,-8.718500940726127 L1.084516299476967,-5.145055326304471 L4.0,-4.0" fill-opacity="0" stroke="black" stroke-width="1" />
<path d="M1.2355858911700879,8.718500940726127 L1.084516299476967,5.145055326304471 L4.0,4.0" fill-opacity="0" stroke="black" stroke-width="1" />
<path d="M1.2355858911700879,91.28149905927387 L1.084516299476967,94.85494467369553 L4.0,96.0" fill-opacity="0" stroke="black" stroke-width="1" />
<path d="M1.2355858911700879,-91.28149905927387 L1.084516299476967,-94.85494467369553 L4.0,-96.0" fill-opacity="0" stroke="black" stroke-width="1" />
<path d="M4.0,-4.0 L0.7401959916766343,-3.242148983548515 L0.6495155609546999,-2.38093567440259" fill-opacity="0" stroke="black" stroke-width="1" />
<path d="M4.0,4.0 L0.7401959916766343,3.242148983548515 L0.6495155609546999,2.38093567440259" fill-opacity="0" stroke="black" stroke-width="1" />
<path d="M4.0,96.0 L0.7401959916766343,96.75785101645148 L0.6495155609546999,97.6190643255974" fill-opacity="0" stroke="black" stroke-width="1" />
<path d="M4.0,-96.0 L0.7401959916766343,-96.75785101645148 L0.6495155609546999,-97.6190643255974" fill-opacity="0" stroke="black" stroke-width="1" />
<path d="M0.7401959916766343,-3.242148983548515 L0.6495155609546999,-2.38093567440259 L0.37722610448565186,-1.5621499377717063" fill-opacity="0" stroke="black" stroke-width="1" />
<path d="M0.7401959916766343,3.242148983548515 L0.6495155609546999,2.38093567440259 L0.37722610448565186,1.5621499377717063" fill-opacity="0" stroke="black" stroke-width="1" />
<path d="M0.7401959916766343,96.75785101645148 L0.6495155609546999,97.6190643255974 L0.37722610448565186,98.43785006222829" fill-opacity="0" stroke="black" stroke-width="1" />
<path d="M0.7401959916766343,-96.75785101645148 L0.6495155609546999,-97.6190643255974 L0.37722610448565186,-98.43785006222829" fill-opacity="0" stroke="black" stroke-width="1" />
<path d="M0.6495155609546999,-2.38093567440259 L0.37722610448565186,-1.5621499377717063 L0.14469110912608651,-0.25520712686787905" fill-opacity="0" stroke="black" stroke-width="1" />
<path d="M0.6495155609546999,2.38093567440259 L0.37722610448565186,1.5621499377717063 L0.14469110912608651,0.25520712686787905" fill-opacity="0" stroke="black" stroke-width="1" />
<path d="M0.6495155609546999,97.6190643255974 L0.37722610448565186,98.43785006222829 L0.14469110912608651,99.74479287313213" fill-opacity="0" stroke="black" stroke-width="1" />
<path d="M0.6495155609546999,-97.6190643255974 L0.37722610448565186,-98.43785006222829 L0.14469110912608651,-99.74479287313213" fill-opacity="0" stroke="black" stroke-width="1" />
<path d="M0.37722610448565186,-1.5621499377717063 L0.14469110912608651,-0.25520712686787905 L0.0,-0.0" fill-opacity="0" stroke="black" stroke-width="1" />
<path d="M0.37722610448565186,1.5621499377717063 L0.14469110912608651,0.25520712686787905 L0.0,-0.0" fill-opacity="0" stroke="black" stroke-width="1" />
<path d="M0.37722610448565186,98.43785006222829 L0.14469110912608651,99.74479287313213 L0.0,100.0" fill-opacity="0" stroke="black" stroke-width="1" />
<path d="M0.37722610448565186,-98.43785006222829 L0.14469110912608651,-99.74479287313213 L0.0,-100.0" fill-opacity="0" stroke="black" stroke-width="1" />
<path d="M0.0,91.0 L-1.3300575914178991,89.35157734977655 L-1.9510192849532537,86.83864798394386" fill-opacity="0" stroke="black" stroke-width="1" />
<path d="M0.0,-9.0 L-1.3300575914178991,-10.64842265022345 L-1.9510192849532537,-13.161352016056144" fill-opacity="0" stroke="black" stroke-width="1" />
<path d="M0.0,9.0 L-1.3300575914178991,10.648422650223452 L-1.9510192849532537,13.161352016056142" fill-opacity="0" stroke="black" stroke-width="1" />
<path d="M0.0,-91.0 L-1.3300575914178991,-89.35157734977655 L-1.9510192849532537,-86.83864798394386" fill-opacity="0" stroke="black" stroke-width="1" />
<path d="M-1.3300575914178991,89.35157734977655 L-1.9510192849532537,86.83864798394386 L-3.092094342061713,83.22918512454886" fill-opacity="0" stroke="black" stroke-width="1" />
<path d="M-1.3300575914178991,-10.64842265022345 L-1.9510192849532537,-13.161352016056144 L-3.092094342061713,-16.770814875451133" fill-opacity="0" stroke="black" stroke-width="1" />
<path d="M-1.3300575914178991,10.648422650223452 L-1.9510192849532537,13.161352016056142 L-3.092094342061713,16.770814875451137" fill-opacity="0" stroke="black" stroke-width="1" />
<path d="M-1.3300575914178991,-89.35157734977655 L-1.9510192849532537,-86.83864798394386 L-3.092094342061713,-83.22918512454886" fill-opacity="0" stroke="black" stroke-width="1" />
<path d="M-1.9510192849532537,86.83864798394386 L-3.092094342061713,83.22918512454886 L-4.8020131598601274,82.09780457193546" fill-opacity="0" stroke="black" stroke-width="1" />
<path d="M-1.9510192849532537,-13.161352016056144 L-3.092094342061713,-16.770814875451133 L-4.8020131598601274,-17.902195428064545" fill-opacity="0" stroke="black" stroke-width="1" />
<path d="M-1.9510192849532537,13.161352016056142 L-3.092094342061713,16.770814875451137 L-4.8020131598601274,17.902195428064545" fill-opacity="0" stroke="black" stroke-width="1" />
<path d="M-1.9510192849532537,-86.83864798394386 L-3.092094342061713,-83.22918512454886 L-4.8020131598601274,-82.09780457193546" fill-opacity="0" stroke="black" stroke-width="1" />
<path d="M-3.092094342061713,83.22918512454886 L-4.8020131598601274,82.09780457193546 L-9.910293894653927,80.81403926554577" fill-opacity="0" stroke="black" stroke-width="1" />
<path d="M-3.092094342061713,-16.770814875451133 L-4.8020131598601274,-17.902195428064545 L-9.910293894653927,-19.185960734454227" fill-opacity="0" stroke="black" stroke-width="1" />
<path d="M-3.092094342061713,16.770814875451137 L-4.8020131598601274,17.902195428064545 L-9.910293894653927,19.185960734454227" fill-opacity="0" stroke="black" stroke-width="1" />
<path d="M-3.092094342061713,-83.22918512454886 L-4.8020131598601274,-82.09780457193546 L-9.910293894653927,-80.81403926554577" fill-opacity="0" stroke="black" stroke-width="1" />
<path d="M-4.8020131598601274,82.09780457193546 L-9.910293894653927,80.81403926554577 L0.0,74.0" fill-opacity="0" stroke="black" stroke-width="1" />
<path d="M-4.8020131598601274,-17.902195428064545 L-9.910293894653927,-19.185960734454227 L0.0,-26.0" fill-opacity="0" stroke="black" stroke-width="1" />
<path d="M-4.8020131598601274,17.902195428064545 L-9.910293894653927,19.185960734454227 L0.0,26.0" fill-opacity="0" stroke="black" stroke-width="1" />
<path d="M-4.8020131598601274,-82.09780457193546 L-9.910293894653927,-80.81403926554577 L0.0,-74.0" fill-opacity="0" stroke="black" stroke-width="1" />
<path d="M0.0,73.0 L-16.13237167729194,72.8918151604978 L-19.895449207007136,71.57579723959637" fill-opacity="0" stroke="black" stroke-width="1" />
<path d="M0.0,-27.0 L-16.13237167729194,-27.1081848395022 L-19.895449207007136,-28.424202760403638" fill-opacity="0" stroke="black" stroke-width="1" />
<path d="M0.0,27.0 L-16.13237167729194,27.1081848395022 L-19.895449207007136,28.42420276040363" fill-opacity="0" stroke="black" stroke-width="1" />
<path d="M0.0,-73.0 L-16.13237167729194,-72.8918151604978 L-19.895449207007136,-71.57579723959637" fill-opacity="0" stroke="black" stroke-width="1" />
<path d="M-16.13237167729194,72.8918151604978 L-19.895449207007136,71.57579723959637 L0.0,66.0" fill-opacity="0" stroke="black" stroke-width="1" />
<path d="M-16.13237167729194,-27.1081848395022 L-19.895449207007136,-28.424202760403638 L0.0,-34.0" fill-opacity="0" stroke="black" stroke-width="1" />
<path d="M-16.13237167729194,27.1081848395022 L-19.895449207007136,28.42420276040363 L0.0,34.0" fill-opacity="0" stroke="black" stroke-width="1" />
<path d="M-16.13237167729194,-72.8918151604978 L-19.895449207007136,-71.57579723959637 L0.0,-66.0" fill-opacity="0" stroke="black" stroke-width="1" />
<path d="M-50.0,50.0 L-42.23683469178546,51.92579491486355 L-42.19101686818424,57.51029073796869" fill-opacity="0" stroke="black" stroke-width="1" />
<path d="M-50.0,-50.0 L-42.23683469178546,-48.07420508513645 L-42.19101686818424,-42.48970926203131" fill-opacity="0" stroke="black" stroke-width="1" />
<path d="M-50.0,50.0 L-42.23683469178546,48.07420508513645 L-42.19101686818424,42.48970926203131" fill-opacity="0" stroke="black" stroke-width="1" />
<path d="M-50.0,-50.0 L-42.23683469178546,-51.92579491486355 L-42.19101686818424,-57.51029073796869" fill-opacity="0" stroke="black" stroke-width="1" />
<path d="M-42.23683469178546,51.92579491486355 L-42.19101686818424,57.51029073796869 L-38.55918775198117,59.208817422174775" fill-opacity="0" stroke="black" stroke-width="1" />
<path d="M-42.23683469178546,-48.07420508513645 L-42.19101686818424,-42.48970926203131 L-38.55918775198117,-40.791182577825225" fill-opacity="0" stroke="black" stroke-width="1" />
<path d="M-42.23683469178546,48.07420508513645 L-42.19101686818424,42.48970926203131 L-38.55918775198117,40.791182577825225" fill-opacity="0" stroke="black" stroke-width="1" />
<path d="M-42.23683469178546,-51.92579491486355 L-42.19101686818424,-57.51029073796869 L-38.55918775198117,-59.208817422174775" fill-opacity="0" stroke="black" stroke-width="1" />
<path d="M-42.19101686818424,57.51029073796869 L-38.55918775198117,59.208817422174775 L-36.0,64.0" fill-opacity="0" stroke="black" stroke-width="1" />
<path d="M-42.19101686818424,-42.48970926203131 L-38.55918775198117,-40.791182577825225 L-36.0,-36.0" fill-opacity="0" stroke="black" stroke-width="1" />
<path d="M-42.19101686818424,42.48970926203131 L-38.55918775198117,40.791182577825225 L-36.0,36.0" fill-opacity="0" stroke="black" stroke-width="1" />
<path d="M-42.19101686818424,-57.51029073796869 L-38.55918775198117,-59.208817422174775 L-36.0,-64.0" fill-opacity="0" stroke="black" stroke-width="1" />
<path d="M-34.0,66.0 L-15.87200643510594,76.47283631411739 L-14.774991425679392,78.1243991157198" fill-opacity="0" stroke="black" stroke-width="1" />
<path d="M-34.0,-34.0 L-15.87200643510594,-23.527163685882606 L-14.774991425679392,-21.875600884280207" fill-opacity="0" stroke="black" stroke-width="1" />
<path d="M-34.0,34.0 L-15.87200643510594,23.527163685882613 L-14.774991425679392,21.875600884280203" fill-opacity="0" stroke="black" stroke-width="1" />
<path d="M-34.0,-66.0 L-15.87200643510594,-76.47283631411739 L-14.774991425679392,-78.1243991157198" fill-opacity="0" stroke="black" stroke-width="1" />
<path d="M-15.87200643510594,76.47283631411739 L-14.774991425679392,78.1243991157198 L-19.0,81.0" fill-opacity="0" stroke="black" stroke-width="1" />
<path d="M-15.87200643510594,-23.527163685882606 L-14.774991425679392,-21.875600884280207 L-19.0,-19.0" fill-opacity="0" stroke="black" stroke-width="1" />
<path d="M-15.87200643510594,23.527163685882613 L-14.774991425679392,21.875600884280203 L-19.0,19.0" fill-opacity="0" stroke="black" stroke-width="1" />
<path d="M-15.87200643510594,-76.47283631411739 L-14.774991425679392,-78.1243991157198 L-19.0,-81.0" fill-opacity="0" stroke="black" stroke-width="1" />
<path d="M-10.0,90.0 L-1.2355858911700879,91.28149905927387 L-1.084516299476967,94.85494467369553" fill-opacity="0" stroke="black" stroke-width="1" />
<path d="M-10.0,-10.0 L-1.2355858911700879,-8.718500940726127 L-1.084516299476967,-5.145055326304471" fill-opacity="0" stroke="black" stroke-width="1" />
<path d="M-10.0,10.0 L-1.2355858911700879,8.71850094072613 L-1.084516299476967,5.1450553263044725" fill-opacity="0" stroke="black" stroke-width="1" />
<path d="M-10.0,-90.0 L-1.2355858911700879,-91.28149905927387 L-1.084516299476967,-94.85494467369553" fill-opacity="0" stroke="black" stroke-width="1" />
<path d="M-1.2355858911700879,91.28149905927387 L-1.084516299476967,94.85494467369553 L-4.0,96.0" fill-opacity="0" stroke="black" stroke-width="1" />
<path d="M-1.2355858911700879,-8.718500940726127 L-1.084516299476967,-5.145055326304471 L-4.0,-4.0" fill-opacity="0" stroke="black" stroke-width="1" />
<path d="M-1.2355858911700879,8.71850094072613 L-1.084516299476967,5.1450553263044725 L-4.0,4.0" fill-opacity="0" stroke="black" stroke-width="1" />
<path d="M-1.2355858911700879,-91.28149905927387 L-1.084516299476967,-94.85494467369553 L-4.0,-96.0" fill-opacity="0" stroke="black" stroke-width="1" />
<path d="M-4.0,96.0 L-0.7401959916766343,96.75785101645148 L-0.6495155609546999,97.6190643255974" fill-opacity="0" stroke="black" stroke-width="1" />
<path d="M-4.0,-4.0 L-0.7401959916766343,-3.242148983548515 L-0.6495155609546999,-2.38093567440259" fill-opacity="0" stroke="black" stroke-width="1" />
<path d="M-4.0,4.0 L-0.7401959916766343,3.2421489835485175 L-0.6495155609546999,2.3809356744025933" fill-opacity="0" stroke="black" stroke-width="1" />
<path d="M-4.0,-96.0 L-0.7401959916766343,-96.75785101645148 L-0.6495155609546999,-97.6190643255974" fill-opacity="0" stroke="black" stroke-width="1" />
<path d="M-0.7401959916766343,96.75785101645148 L-0.6495155609546999,97.6190643255974 L-0.37722610448565186,98.43785006222829" fill-opacity="0" stroke="black" stroke-width="1" />
<path d="M-0.7401959916766343,-3.242148983548515 L-0.6495155609546999,-2.38093567440259 L-0.37722610448565186,-1.5621499377717063" fill-opacity="0" stroke="black" stroke-width="1" />
<path d="M-0.7401959916766343,3.2421489835485175 L-0.6495155609546999,2.3809356744025933 L-0.37722610448565186,1.5621499377717072" fill-opacity="0" stroke="black" stroke-width="1" />
<path d="M-0.7401959916766343,-96.75785101645148 L-0.6495155609546999,-97.6190643255974 L-0.37722610448565186,-98.43785006222829" fill-opacity="0" stroke="black" stroke-width="1" />
<path d="M-0.6495155609546999,97.6190643255974 L-0.37722610448565186,98.43785006222829 L-0.14469110912608651,99.74479287313213" fill-opacity="0" stroke="black" stroke-width="1" />
<path d="M-0.6495155609546999,-2.38093567440259 L-0.37722610448565186,-1.5621499377717063 L-0.14469110912608651,-0.25520712686787905" fill-opacity="0" stroke="black" stroke-width="1" />
<path d="M-0.6495155609546999,2.3809356744025933 L-0.37722610448565186,1.5621499377717072 L-0.14469110912608651,0.25520712686787306" fill-opacity="0" stroke="black" stroke-width="1" />
<path d="M-0.6495155609546999,-97.6190643255974 L-0.37722610448565186,-98.43785006222829 L-0.14469110912608651,-99.74479287313213" fill-opacity="0" stroke="black" stroke-width="1" />
<path d="M-0.37722610448565186,98.43785006222829 L-0.14469110912608651,99.74479287313213 L0.0,100.0" fill-opacity="0" stroke="black" stroke-width="1" />
<path d="M-0.37722610448565186,-1.5621499377717063 L-0.14469110912608651,-0.25520712686787905 L0.0,-0.0" fill-opacity="0" stroke="black" stroke-width="1" />
<path d="M-0.37722610448565186,1.5621499377717072 L-0.14469110912608651,0.25520712686787306 L0.0,-0.0" fill-opacity="0" stroke="black" stroke-width="1" />
<path d="M-0.37722610448565186,-98.43785006222829 L-0.14469110912608651,-99.74479287313213 L0.0,-100.0" fill-opacity="0" stroke="black" stroke-width="1" />
<path d="M-91.0,-0.0 L-89.35157734977655,-1.3300575914178991 L-86.83864798394386,-1.9510192849532537" fill-opacity="0" stroke="black" stroke-width="1" />
<path d="M-91.0,-0.0 L-89.35157734977655,1.3300575914178991 L-86.83864798394386,1.9510192849532537" fill-opacity="0" stroke="black" stroke-width="1" />
<path d="M-89.35157734977655,-1.3300575914178991 L-86.83864798394386,-1.9510192849532537 L-83.22918512454886,-3.092094342061713" fill-opacity="0" stroke="black" stroke-width="1" />
<path d="M-89.35157734977655,1.3300575914178991 L-86.83864798394386,1.9510192849532537 L-83.22918512454886,3.092094342061713" fill-opacity="0" stroke="black" stroke-width="1" />
<path d="M-86.83864798394386,-1.9510192849532537 L-83.22918512454886,-3.092094342061713 L-82.09780457193546,-4.8020131598601274" fill-opacity="0" stroke="black" stroke-width="1" />
<path d="M-86.83864798394386,1.9510192849532537 L-83.22918512454886,3.092094342061713 L-82.09780457193546,4.8020131598601274" fill-opacity="0" stroke="black" stroke-width="1" />
<path d="M-83.22918512454886,-3.092094342061713 L-82.09780457193546,-4.8020131598601274 L-80.81403926554577,-9.910293894653927" fill-opacity="0" stroke="black" stroke-width="1" />
<path d="M-83.22918512454886,3.092094342061713 L-82.09780457193546,4.8020131598601274 L-80.81403926554577,9.910293894653927" fill-opacity="0" stroke="black" stroke-width="1" />
<path d="M-82.09780457193546,-4.8020131598601274 L-80.81403926554577,-9.910293894653927 L-74.0,-0.0" fill-opacity="0" stroke="black" stroke-width="1" />
<path d="M-82.09780457193546,4.8020131598601274 L-80.81403926554577,9.910293894653927 L-74.0,-0.0" fill-opacity="0" stroke="black" stroke-width="1" />
<path d="M-73.0,-0.0 L-72.8918151604978,-16.13237167729194 L-71.57579723959637,-19.895449207007136" fill-opacity="0" stroke="black" stroke-width="1" />
<path d="M-73.0,-0.0 L-72.8918151604978,16.13237167729194 L-71.57579723959637,19.895449207007136" fill-opacity="0" stroke="black" stroke-width="1" />
<path d="M-72.8918151604978,-16.13237167729194 L-71.57579723959637,-19.895449207007136 L-66.0,-0.0" fill-opacity="0" stroke="black" stroke-width="1" />
<path d="M-72.8918151604978,16.13237167729194 L-71.57579723959637,19.895449207007136 L-66.0,-0.0" fill-opacity="0" stroke="black" stroke-width="1" />
<path d="M-64.0,-36.0 L-66.0,-34.0 L-76.47283631411739,-15.87200643510594" fill-opacity="0" stroke="black" stroke-width="1" />
<path d="M-64.0,36.0 L-66.0,34.0 L-76.47283631411739,15.87200643510594" fill-opacity="0" stroke="black" stroke-width="1" />
<path d="M-50.0,-50.0 L-51.92579491486355,-42.23683469178546 L-57.51029073796869,-42.19101686818424" fill-opacity="0" stroke="black" stroke-width="1" />
<path d="M-50.0,50.0 L-51.92579491486355,42.23683469178546 L-57.51029073796869,42.19101686818424" fill-opacity="0" stroke="black" stroke-width="1" />
<path d="M-51.92579491486355,-42.23683469178546 L-57.51029073796869,-42.19101686818424 L-59.208817422174775,-38.55918775198117" fill-opacity="0" stroke="black" stroke-width="1" />
<path d="M-51.92579491486355,42.23683469178546 L-57.51029073796869,42.19101686818424 L-59.208817422174775,38.55918775198117" fill-opacity="0" stroke="black" stroke-width="1" />
<path d="M-57.51029073796869,-42.19101686818424 L-59.208817422174775,-38.55918775198117 L-64.0,-36.0" fill-opacity="0" stroke="black" stroke-width="1" />
<path d="M-57.51029073796869,42.19101686818424 L-59.208817422174775,38.55918775198117 L-64.0,36.0" fill-opacity="0" stroke="black" stroke-width="1" />
<path d="M-59.208817422174775,-38.55918775198117 L-64.0,-36.0 L-66.0,-34.0" fill-opacity="0" stroke="black" stroke-width="1" />
<path d="M-59.208817422174775,38.55918775198117 L-64.0,36.0 L-66.0,34.0" fill-opacity="0" stroke="black" stroke-width="1" />
<path d="M-66.0,-34.0 L-76.47283631411739,-15.87200643510594 L-78.1243991157198,-14.774991425679392" fill-opacity="0" stroke="black" stroke-width="1" />
<path d="M-66.0,34.0 L-76.47283631411739,15.87200643510594 L-78.1243991157198,14.774991425679392" fill-opacity="0" stroke="black" stroke-width="1" />
<path d="M-76.47283631411739,-15.87200643510594 L-78.1243991157198,-14.774991425679392 L-81.0,-19.0" fill-opacity="0" stroke="black" stroke-width="1" />
<path d="M-76.47283631411739,15.87200643510594 L-78.1243991157198,14.774991425679392 L-81.0,19.0" fill-opacity="0" stroke="black" stroke-width="1" />
<path d="M-78.1243991157198,-14.774991425679392 L-81.0,-19.0 L-88.0,-12.0" fill-opacity="0" stroke="black" stroke-width="1" />
<path d="M-78.1243991157198,14.774991425679392 L-81.0,19.0 L-88.0,12.0" fill-opacity="0" stroke="black" stroke-width="1" />
<path d="M-81.0,-19.0 L-88.0,-12.0 L-90.0,-10.0" fill-opacity="0" stroke="black" stroke-width="1" />
<path d="M-81.0,19.0 L-88.0,12.0 L-90.0,10.0" fill-opacity="0" stroke="black" stroke-width="1" />
<path d="M-88.0,-12.0 L-90.0,-10.0 L-91.28149905927387,-1.2355858911700879" fill-opacity="0" stroke="black" stroke-width="1" />
<path d="M-88.0,12.0 L-90.0,10.0 L-91.28149905927387,1.2355858911700879" fill-opacity="0" stroke="black" stroke-width="1" />
<path d="M-90.0,-10.0 L-91.28149905927387,-1.2355858911700879 L-94.85494467369553,-1.084516299476967" fill-opacity="0" stroke="black" stroke-width="1" />
<path d="M-90.0,10.0 L-91.28149905927387,1.2355858911700879 L-94.85494467369553,1.084516299476967" fill-opacity="0" stroke="black" stroke-width="1" />
<path d="M-91.28149905927387,-1.2355858911700879 L-94.85494467369553,-1.084516299476967 L-96.0,-4.0" fill-opacity="0" stroke="black" stroke-width="1" />
<path d="M-91.28149905927387,1.2355858911700879 L-94.85494467369553,1.084516299476967 L-96.0,4.0" fill-opacity="0" stroke="black" stroke-width="1" />
<path d="M-94.85494467369553,-1.084516299476967 L-96.0,-4.0 L-96.75785101645148,-0.7401959916766343" fill-opacity="0" stroke="black" stroke-width="1" />
<path d="M-94.85494467369553,1.084516299476967 L-96.0,4.0 L-96.75785101645148,0.7401959916766343" fill-opacity="0" stroke="black" stroke-width="1" />
<path d="M-96.0,-4.0 L-96.75785101645148,-0.7401959916766343 L-97.6190643255974,-0.6495155609546999" fill-opacity="0" stroke="black" stroke-width="1" />
<path d="M-96.0,4.0 L-96.75785101645148,0.7401959916766343 L-97.6190643255974,0.6495155609546999" fill-opacity="0" stroke="black" stroke-width="1" />
<path d="M-96.75785101645148,-0.7401959916766343 L-97.6190643255974,-0.6495155609546999 L-98.43785006222829,-0.37722610448565186" fill-opacity="0" stroke="black" stroke-width="1" />
<path d="M-96.75785101645148,0.7401959916766343 L-97.6190643255974,0.6495155609546999 L-98.43785006222829,0.37722610448565186" fill-opacity="0" stroke="black" stroke-width="1" />
<path d="M-97.6190643255974,-0.6495155609546999 L-98.43785006222829,-0.37722610448565186 L-99.74479287313213,-0.14469110912608651" fill-opacity="0" stroke="black" stroke-width="1" />
<path d="M-97.6190643255974,0.6495155609546999 L-98.43785006222829,0.37722610448565186 L-99.74479287313213,0.14469110912608651" fill-opacity="0" stroke="black" stroke-width="1" />
<path d="M-98.43785006222829,-0.37722610448565186 L-99.74479287313213,-0.14469110912608651 L-100.0,-0.0" fill-opacity="0" stroke="black" stroke-width="1" />
<path d="M-98.43785006222829,0.37722610448565186 L-99.74479287313213,0.14469110912608651 L-100.0,-0.0" fill-opacity="0" stroke="black" stroke-width="1" />
<circle cx="0" cy="-97" r="8" stroke-dasharray="39.653880605311166 10.611601852125524" stroke-dashoffset="-17.59291886010284" stroke="black" stroke-width="1" fill="white" fill-opacity="1" />
<circle cx="0" cy="-97" r="4" stroke="black" stroke-width="1" fill="white" fill-opacity="1" />
</svg>