<?xml version="1.0" encoding="UTF-8"?>
<svg xmlns="http://www.w3.org/2000/svg" xmlns:xlink="http://www.w3.org/1999/xlink"
     width="250" height="250" viewBox="-125.0 -125.0 250 250">
<defs>
</defs>
<path d="M35.0,65.0 L26.0,74.0 L24.0,76.0" fill="orange" fill-opacity="0.6" stroke="black" stroke-width="1" />
<path d="M35.0,-65.0 L26.0,-74.0 L24.0,-76.0" fill="orange" fill-opacity="0.6" stroke="black" stroke-width="1" />
<path d="M50.0,-50.0 L47.11781299692742,-39.74747285835162 L46.0,-46.0" fill="orange" fill-opacity="0.6" stroke="black" stroke-width="1" />
<path d="M50.0,50.0 L47.11781299692742,39.74747285835162 L46.0,46.0" fill="yellow" fill-opacity="0.6" stroke="black" stroke-width="1" />
<path d="M39.74747285835162,52.88218700307258 L46.0,54.0 L45.0,55.0" fill="brown" fill-opacity="0.6" stroke="black" stroke-width="1" />
<path d="M39.74747285835162,-52.88218700307258 L46.0,-54.0 L45.0,-55.0" fill="blue" fill-opacity="0.6" stroke="black" stroke-width="1" />
<path d="M46.0,54.0 L45.0,55.0 L35.23092755931484,58.197604275548414" fill="green" fill-opacity="0.6" stroke="black" stroke-width="1" />
<path d="M46.0,-54.0 L45.0,-55.0 L35.23092755931484,-58.197604275548414" fill="blue" fill-opacity="0.6" stroke="black" stroke-width="1" />
<path d="M45.0,-45.0 L41.802395724451586,-35.23092755931484 L35.0,-35.0" fill="pink" fill-opacity="0.6" stroke="black" stroke-width="1" />
<path d="M45.0,45.0 L41.802395724451586,35.23092755931484 L35.0,35.0" fill="red" fill-opacity="0.6" stroke="black" stroke-width="1" />
<path d="M35.23092755931484,58.197604275548414 L35.0,65.0 L26.0,74.0" fill="red" fill-opacity="0.6" stroke="black" stroke-width="1" />
<path d="M35.23092755931484,-58.197604275548414 L35.0,-65.0 L26.0,-74.0" fill="black" fill-opacity="0.6" stroke="black" stroke-width="1" />
<path d="M26.0,74.0 L24.0,76.0 L11.0,89.0" fill="purple" fill-opacity="0.6" stroke="black" stroke-width="1" />
<path d="M26.0,-74.0 L24.0,-76.0 L11.0,-89.0" fill="yellow" fill-opacity="0.6" stroke="black" stroke-width="1" />
<path d="M24.0,76.0 L11.0,89.0 L6.0,94.0" fill="yellow" fill-opacity="0.6" stroke="black" stroke-width="1" />
<path d="M24.0,-76.0 L11.0,-89.0 L6.0,-94.0" fill="pink" fill-opacity="0.6" stroke="black" stroke-width="1" />
<path d="M11.0,89.0 L6.0,94.0 L0.5509970251156436,98.79790817427504" fill="orange" fill-opacity="0.6" stroke="black" stroke-width="1" />
<path d="M11.0,-89.0 L6.0,-94.0 L0.5509970251156436,-98.79790817427504" fill="blue" fill-opacity="0.6" stroke="black" stroke-width="1" />
<path d="M6.0,-6.0 L1.2020918257249602,-0.5509970251156436 L0.0,-0.0" fill="green" fill-opacity="0.6" stroke="black" stroke-width="1" />
<path d="M6.0,6.0 L1.2020918257249602,0.5509970251156436 L0.0,-0.0" fill="orange" fill-opacity="0.6" stroke="black" stroke-width="1" />
<path d="M-35.0,65.0 L-26.0,74.0 L-24.0,76.0" fill="purple" fill-opacity="0.6" stroke="black" stroke-width="1" />
<path d="M-35.0,-65.0 L-26.0,-74.0 L-24.0,-76.0" fill="red" fill-opacity="0.6" stroke="black" stroke-width="1" />
<path d="M-50.0,-50.0 L-47.11781299692742,-39.74747285835162 L-46.0,-46.0" fill="blue" fill-opacity="0.6" stroke="black" stroke-width="1" />
<path d="M-50.0,50.0 L-47.11781299692742,39.74747285835162 L-46.0,46.0" fill="green" fill-opacity="0.6" stroke="black" stroke-width="1" />
<path d="M-39.74747285835162,52.88218700307258 L-46.0,54.0 L-45.0,55.0" fill="purple" fill-opacity="0.6" stroke="black" stroke-width="1" />
<path d="M-39.74747285835162,-52.88218700307258 L-46.0,-54.0 L-45.0,-55.0" fill="black" fill-opacity="0.6" stroke="black" stroke-width="1" />
<path d="M-46.0,54.0 L-45.0,55.0 L-35.23092755931484,58.197604275548414" fill="brown" fill-opacity="0.6" stroke="black" stroke-width="1" />
<path d="M-46.0,-54.0 L-45.0,-55.0 L-35.23092755931484,-58.197604275548414" fill="red" fill-opacity="0.6" stroke="black" stroke-width="1" />
<path d="M-45.0,-45.0 L-41.802395724451586,-35.23092755931484 L-35.0,-35.0" fill="yellow" fill-opacity="0.6" stroke="black" stroke-width="1" />
<path d="M-45.0,45.0 L-41.802395724451586,35.23092755931484 L-35.0,35.0" fill="brown" fill-opacity="0.6" stroke="black" stroke-width="1" />
<path d="M-35.23092755931484,58.197604275548414 L-35.0,65.0 L-26.0,74.0" fill="green" fill-opacity="0.6" stroke="black" stroke-width="1" />
<path d="M-35.23092755931484,-58.197604275548414 L-35.0,-65.0 L-26.0,-74.0" fill="brown" fill-opacity="0.6" stroke="black" stroke-width="1" />
<path d="M-26.0,74.0 L-24.0,76.0 L-11.0,89.0" fill="green" fill-opacity="0.6" stroke="black" stroke-width="1" />
<path d="M-26.0,-74.0 L-24.0,-76.0 L-11.0,-89.0" fill="orange" fill-opacity="0.6" stroke="black" stroke-width="1" />
<path d="M-24.0,76.0 L-11.0,89.0 L-6.0,94.0" fill="green" fill-opacity="0.6" stroke="black" stroke-width="1" />
<path d="M-24.0,-76.0 L-11.0,-89.0 L-6.0,-94.0" fill="orange" fill-opacity="0.6" stroke="black" stroke-width="1" />
<path d="M-11.0,89.0 L-6.0,94.0 L-0.5509970251156436,98.79790817427504" fill="red" fill-opacity="0.6" stroke="black" stroke-width="1" />
<path d="M-11.0,-89.0 L-6.0,-94.0 L-0.5509970251156436,-98.79790817427504" fill="orange" fill-opacity="0.6" stroke="black" stroke-width="1" />
<path d="M-6.0,-6.0 L-1.2020918257249602,-0.5509970251156436 L0.0,-0.0" fill="purple" fill-opacity="0.6" stroke="black" stroke-width="1" />
<path d="M-6.0,6.0 L-1.2020918257249602,0.5509970251156436 L0.0,-0.0" fill="blue" fill-opacity="0.6" stroke="black" stroke-width="1" />
<path d="M65.0,35.0 L74.0,26.0 L76.0,24.0" fill="green" fill-opacity="0.6" stroke="black" stroke-width="1" />
<path d="M65.0,-35.0 L74.0,-26.0 L76.0,-24.0" fill="orange" fill-opacity="0.6" stroke="black" stroke-width="1" />
<path d="M50.0,50.0 L52.88218700307258,39.74747285835162 L54.0,46.0" fill="yellow" fill-opacity="0.6" stroke="black" stroke-width="1" />
<path d="M50.0,-50.0 L52.88218700307258,-39.74747285835162 L54.0,-46.0" fill="brown" fill-opacity="0.6" stroke="black" stroke-width="1" />
<path d="M52.88218700307258,39.74747285835162 L54.0,46.0 L55.0,45.0" fill="brown" fill-opacity="0.6" stroke="black" stroke-width="1" />
<path d="M52.88218700307258,-39.74747285835162 L54.0,-46.0 L55.0,-45.0" fill="black" fill-opacity="0.6" stroke="black" stroke-width="1" />
<path d="M54.0,46.0 L55.0,45.0 L58.197604275548414,35.23092755931484" fill="brown" fill-opacity="0.6" stroke="black" stroke-width="1" />
<path d="M54.0,-46.0 L55.0,-45.0 L58.197604275548414,-35.23092755931484" fill="red" fill-opacity="0.6" stroke="black" stroke-width="1" />
<path d="M55.0,45.0 L58.197604275548414,35.23092755931484 L65.0,35.0" fill="purple" fill-opacity="0.6" stroke="black" stroke-width="1" />
<path d="M55.0,-45.0 L58.197604275548414,-35.23092755931484 L65.0,-35.0" fill="black" fill-opacity="0.6" stroke="black" stroke-width="1" />
<path d="M58.197604275548414,35.23092755931484 L65.0,35.0 L74.0,26.0" fill="orange" fill-opacity="0.6" stroke="black" stroke-width="1" />
<path d="M58.197604275548414,-35.23092755931484 L65.0,-35.0 L74.0,-26.0" fill="yellow" fill-opacity="0.6" stroke="black" stroke-width="1" />
<path d="M74.0,26.0 L76.0,24.0 L89.0,11.0" fill="pink" fill-opacity="0.6" stroke="black" stroke-width="1" />
<path d="M74.0,-26.0 L76.0,-24.0 L89.0,-11.0" fill="orange" fill-opacity="0.6" stroke="black" stroke-width="1" />
<path d="M76.0,24.0 L89.0,11.0 L94.0,6.0" fill="blue" fill-opacity="0.6" stroke="black" stroke-width="1" />
<path d="M76.0,-24.0 L89.0,-11.0 L94.0,-6.0" fill="purple" fill-opacity="0.6" stroke="black" stroke-width="1" />
<path d="M89.0,11.0 L94.0,6.0 L98.79790817427504,0.5509970251156436" fill="purple" fill-opacity="0.6" stroke="black" stroke-width="1" />
<path d="M89.0,-11.0 L94.0,-6.0 L98.79790817427504,-0.5509970251156436" fill="brown" fill-opacity="0.6" stroke="black" stroke-width="1" />
<path d="M94.0,6.0 L98.79790817427504,0.5509970251156436 L100.0,-0.0" fill="purple" fill-opacity="0.6" stroke="black" stroke-width="1" />
<path d="M94.0,-6.0 L98.79790817427504,-0.5509970251156436 L100.0,-0.0" fill="orange" fill-opacity="0.6" stroke="black" stroke-width="1" />
<path d="M50.0,-50.0 L39.74747285835162,-47.11781299692742 L46.0,-46.0" fill="brown" fill-opacity="0.6" stroke="black" stroke-width="1" />
<path d="M50.0,50.0 L39.74747285835162,47.11781299692742 L46.0,46.0" fill="orange" fill-opacity="0.6" stroke="black" stroke-width="1" />
<path d="M50.0,50.0 L39.74747285835162,52.88218700307258 L46.0,54.0" fill="pink" fill-opacity="0.6" stroke="black" stroke-width="1" />
<path d="M50.0,-50.0 L39.74747285835162,-52.88218700307258 L46.0,-54.0" fill="red" fill-opacity="0.6" stroke="black" stroke-width="1" />
<path d="M45.0,-45.0 L35.23092755931484,-41.802395724451586 L35.0,-35.0" fill="black" fill-opacity="0.6" stroke="black" stroke-width="1" />
<path d="M45.0,45.0 L35.23092755931484,41.802395724451586 L35.0,35.0" fill="yellow" fill-opacity="0.6" stroke="black" stroke-width="1" />
<path d="M45.0,55.0 L35.23092755931484,58.197604275548414 L35.0,65.0" fill="yellow" fill-opacity="0.6" stroke="black" stroke-width="1" />
<path d="M45.0,-55.0 L35.23092755931484,-58.197604275548414 L35.0,-65.0" fill="red" fill-opacity="0.6" stroke="black" stroke-width="1" />
<path d="M6.0,-6.0 L0.5509970251156436,-1.2020918257249602 L0.0,-0.0" fill="pink" fill-opacity="0.6" stroke="black" stroke-width="1" />
<path d="M6.0,6.0 L0.5509970251156436,1.2020918257249602 L0.0,-0.0" fill="black" fill-opacity="0.6" stroke="black" stroke-width="1" />
<path d="M6.0,94.0 L0.5509970251156436,98.79790817427504 L0.0,100.0" fill="red" fill-opacity="0.6" stroke="black" stroke-width="1" />
<path d="M6.0,-94.0 L0.5509970251156436,-98.79790817427504 L0.0,-100.0" fill="pink" fill-opacity="0.6" stroke="black" stroke-width="1" />
<path d="M-50.0,50.0 L-39.74747285835162,52.88218700307258 L-46.0,54.0" fill="black" fill-opacity="0.6" stroke="black" stroke-width="1" />
<path d="M-50.0,-50.0 L-39.74747285835162,-47.11781299692742 L-46.0,-46.0" fill="yellow" fill-opacity="0.6" stroke="black" stroke-width="1" />
<path d="M-50.0,50.0 L-39.74747285835162,47.11781299692742 L-46.0,46.0" fill="red" fill-opacity="0.6" stroke="black" stroke-width="1" />
<path d="M-50.0,-50.0 L-39.74747285835162,-52.88218700307258 L-46.0,-54.0" fill="brown" fill-opacity="0.6" stroke="black" stroke-width="1" />
<path d="M-45.0,55.0 L-35.23092755931484,58.197604275548414 L-35.0,65.0" fill="yellow" fill-opacity="0.6" stroke="black" stroke-width="1" />
<path d="M-45.0,-45.0 L-35.23092755931484,-41.802395724451586 L-35.0,-35.0" fill="blue" fill-opacity="0.6" stroke="black" stroke-width="1" />
<path d="M-45.0,45.0 L-35.23092755931484,41.802395724451586 L-35.0,35.0" fill="yellow" fill-opacity="0.6" stroke="black" stroke-width="1" />
<path d="M-45.0,-55.0 L-35.23092755931484,-58.197604275548414 L-35.0,-65.0" fill="blue" fill-opacity="0.6" stroke="black" stroke-width="1" />
<path d="M-6.0,94.0 L-0.5509970251156436,98.79790817427504 L0.0,100.0" fill="brown" fill-opacity="0.6" stroke="black" stroke-width="1" />
<path d="M-6.0,-6.0 L-0.5509970251156436,-1.2020918257249602 L0.0,-0.0" fill="purple" fill-opacity="0.6" stroke="black" stroke-width="1" />
<path d="M-6.0,6.0 L-0.5509970251156436,1.2020918257249633 L0.0,-0.0" fill="brown" fill-opacity="0.6" stroke="black" stroke-width="1" />
<path d="M-6.0,-94.0 L-0.5509970251156436,-98.79790817427504 L0.0,-100.0" fill="blue" fill-opacity="0.6" stroke="black" stroke-width="1" />
<path d="M-65.0,-35.0 L-74.0,-26.0 L-76.0,-24.0" fill="red" fill-opacity="0.6" stroke="black" stroke-width="1" />
<path d="M-65.0,35.0 L-74.0,26.0 L-76.0,24.0" fill="pink" fill-opacity="0.6" stroke="black" stroke-width="1" />
<path d="M-50.0,-50.0 L-52.88218700307258,-39.74747285835162 L-54.0,-46.0" fill="brown" fill-opacity="0.6" stroke="black" stroke-width="1" />
<path d="M-50.0,50.0 L-52.88218700307258,39.74747285835162 L-54.0,46.0" fill="green" fill-opacity="0.6" stroke="black" stroke-width="1" />
<path d="M-52.88218700307258,-39.74747285835162 L-54.0,-46.0 L-55.0,-45.0" fill="green" fill-opacity="0.6" stroke="black" stroke-width="1" />
<path d="M-52.88218700307258,39.74747285835162 L-54.0,46.0 L-55.0,45.0" fill="red" fill-opacity="0.6" stroke="black" stroke-width="1" />
<path d="M-54.0,-46.0 L-55.0,-45.0 L-58.197604275548414,-35.23092755931484" fill="blue" fill-opacity="0.6" stroke="black" stroke-width="1" />
<path d="M-54.0,46.0 L-55.0,45.0 L-58.197604275548414,35.23092755931484" fill="yellow" fill-opacity="0.6" stroke="black" stroke-width="1" />
<path d="M-55.0,-45.0 L-58.197604275548414,-35.23092755931484 L-65.0,-35.0" fill="green" fill-opacity="0.6" stroke="black" stroke-width="1" />
<path d="M-55.0,45.0 L-58.197604275548414,35.23092755931484 L-65.0,35.0" fill="purple" fill-opacity="0.6" stroke="black" stroke-width="1" />
<path d="M-58.197604275548414,-35.23092755931484 L-65.0,-35.0 L-74.0,-26.0" fill="black" fill-opacity="0.6" stroke="black" stroke-width="1" />
<path d="M-58.197604275548414,35.23092755931484 L-65.0,35.0 L-74.0,26.0" fill="blue" fill-opacity="0.6" stroke="black" stroke-width="1" />
<path d="M-74.0,-26.0 L-76.0,-24.0 L-89.0,-11.0" fill="pink" fill-opacity="0.6" stroke="black" stroke-width="1" />
<path d="M-74.0,26.0 L-76.0,24.0 L-89.0,11.0" fill="yellow" fill-opacity="0.6" stroke="black" stroke-width="1" />
<path d="M-76.0,-24.0 L-89.0,-11.0 L-94.0,-6.0" fill="black" fill-opacity="0.6" stroke="black" stroke-width="1" />
<path d="M-76.0,24.0 L-89.0,11.0 L-94.0,6.0" fill="brown" fill-opacity="0.6" stroke="black" stroke-width="1" />
<path d="M-89.0,-11.0 L-94.0,-6.0 L-98.79790817427504,-0.5509970251156436" fill="pink" fill-opacity="0.6" stroke="black" stroke-width="1" />
<path d="M-89.0,11.0 L-94.0,6.0 L-98.79790817427504,0.5509970251156436" fill="yellow" fill-opacity="0.6" stroke="black" stroke-width="1" />
<path d="M-94.0,-6.0 L-98.79790817427504,-0.5509970251156436 L-100.0,-0.0" fill="green" fill-opacity="0.6" stroke="black" stroke-width="1" />
<path d="M-94.0,6.0 L-98.79790817427504,0.5509970251156436 L-100.0,-0.0" fill="green" fill-opacity="0.6" stroke="black" stroke-width="1" />
</svg>