<?xml version="1.0" encoding="UTF-8"?>
<svg xmlns="http://www.w3.org/2000/svg" xmlns:xlink="http://www.w3.org/1999/xlink"
     width="250" height="250" viewBox="-125.0 -125.0 250 250">
<defs>
</defs>
<path d="M5.0,95.0 L2.0,98.0 L0.0,100.0" fill="pink" fill-opacity="0.6" stroke="black" stroke-width="1" />
<path d="M5.0,-95.0 L2.0,-98.0 L0.0,-100.0" fill="brown" fill-opacity="0.6" stroke="black" stroke-width="1" />
<path d="M13.0,-0.0 L15.640727791243993,-1.6006861621905122 L16.0,-0.0" fill="black" fill-opacity="0.6" stroke="black" stroke-width="1" />
<path d="M13.0,-0.0 L15.640727791243993,1.6006861621905122 L16.0,-0.0" fill="brown" fill-opacity="0.6" stroke="black" stroke-width="1" />
<path d="M17.0,-0.0 L18.961896848235448,-4.129078928131527 L20.0,-0.0" fill="green" fill-opacity="0.6" stroke="black" stroke-width="1" />
<path d="M17.0,-0.0 L18.961896848235448,4.129078928131527 L20.0,-0.0" fill="pink" fill-opacity="0.6" stroke="black" stroke-width="1" />
<path d="M20.0,-0.0 L28.95665401490496,-4.389317701815071 L32.37442422391507,-10.107812464180574" fill="green" fill-opacity="0.6" stroke="black" stroke-width="1" />
<path d="M20.0,-0.0 L28.95665401490496,4.389317701815071 L32.37442422391507,10.107812464180574" fill="brown" fill-opacity="0.6" stroke="black" stroke-width="1" />
<path d="M28.95665401490496,-4.389317701815071 L32.37442422391507,-10.107812464180574 L37.0,-0.0" fill="blue" fill-opacity="0.6" stroke="black" stroke-width="1" />
<path d="M28.95665401490496,4.389317701815071 L32.37442422391507,10.107812464180574 L37.0,-0.0" fill="purple" fill-opacity="0.6" stroke="black" stroke-width="1" />
<path d="M50.0,-29.0 L44.150928617675554,-34.96438883942623 L50.0,-37.0" fill="blue" fill-opacity="0.6" stroke="black" stroke-width="1" />
<path d="M50.0,29.0 L44.150928617675554,34.96438883942623 L50.0,37.0" fill="black" fill-opacity="0.6" stroke="black" stroke-width="1" />
<path d="M50.0,-37.0 L49.72623051428349,-38.56357645244559 L50.0,-40.0" fill="brown" fill-opacity="0.6" stroke="black" stroke-width="1" />
<path d="M50.0,37.0 L49.72623051428349,38.56357645244559 L50.0,40.0" fill="red" fill-opacity="0.6" stroke="black" stroke-width="1" />
<path d="M50.0,50.0 L38.0,62.0 L33.91916760418597,64.59738340397134" fill="green" fill-opacity="0.6" stroke="black" stroke-width="1" />
<path d="M50.0,-50.0 L38.0,-62.0 L33.91916760418597,-64.59738340397134" fill="blue" fill-opacity="0.6" stroke="black" stroke-width="1" />
<path d="M38.0,-38.0 L35.402616596028665,-33.91916760418597 L35.0,-35.0" fill="purple" fill-opacity="0.6" stroke="black" stroke-width="1" />
<path d="M38.0,38.0 L35.402616596028665,33.91916760418597 L35.0,35.0" fill="orange" fill-opacity="0.6" stroke="black" stroke-width="1" />
<path d="M33.91916760418597,64.59738340397134 L35.0,65.0 L24.0,76.0" fill="purple" fill-opacity="0.6" stroke="black" stroke-width="1" />
<path d="M33.91916760418597,-64.59738340397134 L35.0,-65.0 L24.0,-76.0" fill="black" fill-opacity="0.6" stroke="black" stroke-width="1" />
<path d="M35.0,65.0 L24.0,76.0 L19.0,81.0" fill="yellow" fill-opacity="0.6" stroke="black" stroke-width="1" />
<path d="M35.0,-65.0 L24.0,-76.0 L19.0,-81.0" fill="black" fill-opacity="0.6" stroke="black" stroke-width="1" />
<path d="M24.0,76.0 L19.0,81.0 L14.0,86.0" fill="blue" fill-opacity="0.6" stroke="black" stroke-width="1" />
<path d="M24.0,-76.0 L19.0,-81.0 L14.0,-86.0" fill="orange" fill-opacity="0.6" stroke="black" stroke-width="1" />
<path d="M19.0,81.0 L14.0,86.0 L5.0,95.0" fill="green" fill-opacity="0.6" stroke="black" stroke-width="1" />
<path d="M19.0,-81.0 L14.0,-86.0 L5.0,-95.0" fill="purple" fill-opacity="0.6" stroke="black" stroke-width="1" />
<path d="M14.0,86.0 L5.0,95.0 L2.0,98.0" fill="blue" fill-opacity="0.6" stroke="black" stroke-width="1" />
<path d="M14.0,-86.0 L5.0,-95.0 L2.0,-98.0" fill="yellow" fill-opacity="0.6" stroke="black" stroke-width="1" />
<path d="M-5.0,95.0 L-2.0,98.0 L0.0,100.0" fill="yellow" fill-opacity="0.6" stroke="black" stroke-width="1" />
<path d="M-5.0,-95.0 L-2.0,-98.0 L0.0,-100.0" fill="black" fill-opacity="0.6" stroke="black" stroke-width="1" />
<path d="M-13.0,-0.0 L-15.640727791243993,-1.6006861621905122 L-16.0,-0.0" fill="yellow" fill-opacity="0.6" stroke="black" stroke-width="1" />
<path d="M-13.0,-0.0 L-15.640727791243993,1.6006861621905122 L-16.0,-0.0" fill="brown" fill-opacity="0.6" stroke="black" stroke-width="1" />
<path d="M-17.0,-0.0 L-18.961896848235448,-4.129078928131527 L-20.0,-0.0" fill="brown" fill-opacity="0.6" stroke="black" stroke-width="1" />
<path d="M-17.0,-0.0 L-18.961896848235448,4.129078928131527 L-20.0,-0.0" fill="blue" fill-opacity="0.6" stroke="black" stroke-width="1" />
<path d="M-20.0,-0.0 L-28.95665401490496,-4.389317701815071 L-32.37442422391507,-10.107812464180574" fill="brown" fill-opacity="0.6" stroke="black" stroke-width="1" />
<path d="M-20.0,-0.0 L-28.95665401490496,4.389317701815071 L-32.37442422391507,10.107812464180574" fill="orange" fill-opacity="0.6" stroke="black" stroke-width="1" />
<path d="M-28.95665401490496,-4.389317701815071 L-32.37442422391507,-10.107812464180574 L-37.0,-0.0" fill="purple" fill-opacity="0.6" stroke="black" stroke-width="1" />
<path d="M-28.95665401490496,4.389317701815071 L-32.37442422391507,10.107812464180574 L-37.0,-0.0" fill="black" fill-opacity="0.6" stroke="black" stroke-width="1" />
<path d="M-50.0,-29.0 L-44.150928617675554,-34.96438883942623 L-50.0,-37.0" fill="purple" fill-opacity="0.6" stroke="black" stroke-width="1" />
<path d="M-50.0,29.0 L-44.150928617675554,34.96438883942623 L-50.0,37.0" fill="yellow" fill-opacity="0.6" stroke="black" stroke-width="1" />
<path d="M-50.0,-37.0 L-49.72623051428349,-38.56357645244559 L-50.0,-40.0" fill="purple" fill-opacity="0.6" stroke="black" stroke-width="1" />
<path d="M-50.0,37.0 L-49.72623051428349,38.56357645244559 L-50.0,40.0" fill="blue" fill-opacity="0.6" stroke="black" stroke-width="1" />
<path d="M-50.0,50.0 L-38.0,62.0 L-33.91916760418597,64.59738340397134" fill="orange" fill-opacity="0.6" stroke="black" stroke-width="1" />
<path d="M-50.0,-50.0 L-38.0,-62.0 L-33.91916760418597,-64.59738340397134" fill="red" fill-opacity="0.6" stroke="black" stroke-width="1" />
<path d="M-38.0,-38.0 L-35.402616596028665,-33.91916760418597 L-35.0,-35.0" fill="orange" fill-opacity="0.6" stroke="black" stroke-width="1" />
<path d="M-38.0,38.0 L-35.402616596028665,33.91916760418597 L-35.0,35.0" fill="green" fill-opacity="0.6" stroke="black" stroke-width="1" />
<path d="M-33.91916760418597,64.59738340397134 L-35.0,65.0 L-24.0,76.0" fill="pink" fill-opacity="0.6" stroke="black" stroke-width="1" />
<path d="M-33.91916760418597,-64.59738340397134 L-35.0,-65.0 L-24.0,-76.0" fill="yellow" fill-opacity="0.6" stroke="black" stroke-width="1" />
<path d="M-35.0,65.0 L-24.0,76.0 L-19.0,81.0" fill="black" fill-opacity="0.6" stroke="black" stroke-width="1" />
<path d="M-35.0,-65.0 L-24.0,-76.0 L-19.0,-81.0" fill="blue" fill-opacity="0.6" stroke="black" stroke-width="1" />
<path d="M-24.0,76.0 L-19.0,81.0 L-14.0,86.0" fill="red" fill-opacity="0.6" stroke="black" stroke-width="1" />
<path d="M-24.0,-76.0 L-19.0,-81.0 L-14.0,-86.0" fill="yellow" fill-opacity="0.6" stroke="black" stroke-width="1" />
<path d="M-19.0,81.0 L-14.0,86.0 L-5.0,95.0" fill="blue" fill-opacity="0.6" stroke="black" stroke-width="1" />
<path d="M-19.0,-81.0 L-14.0,-86.0 L-5.0,-95.0" fill="pink" fill-opacity="0.6" stroke="black" stroke-width="1" />
<path d="M-14.0,86.0 L-5.0,95.0 L-2.0,98.0" fill="green" fill-opacity="0.6" stroke="black" stroke-width="1" />
<path d="M-14.0,-86.0 L-5.0,-95.0 L-2.0,-98.0" fill="red" fill-opacity="0.6" stroke="black" stroke-width="1" />
<path d="M95.0,5.0 L98.0,2.0 L100.0,-0.0" fill="red" fill-opacity="0.6" stroke="black" stroke-width="1" />
<path d="M95.0,-5.0 L98.0,-2.0 L100.0,-0.0" fill="pink" fill-opacity="0.6" stroke="black" stroke-width="1" />
<path d="M87.0,-0.0 L84.35927220875601,1.6006861621905122 L84.0,-0.0" fill="orange" fill-opacity="0.6" stroke="black" stroke-width="1" />
<path d="M87.0,-0.0 L84.35927220875601,-1.6006861621905122 L84.0,-0.0" fill="green" fill-opacity="0.6" stroke="black" stroke-width="1" />
<path d="M83.0,-0.0 L81.03810315176455,4.129078928131527 L80.0,-0.0" fill="blue" fill-opacity="0.6" stroke="black" stroke-width="1" />
<path d="M83.0,-0.0 L81.03810315176455,-4.129078928131527 L80.0,-0.0" fill="red" fill-opacity="0.6" stroke="black" stroke-width="1" />
<path d="M80.0,-0.0 L71.04334598509504,4.389317701815071 L67.62557577608493,10.107812464180574" fill="purple" fill-opacity="0.6" stroke="black" stroke-width="1" />
<path d="M80.0,-0.0 L71.04334598509504,-4.389317701815071 L67.62557577608493,-10.107812464180574" fill="purple" fill-opacity="0.6" stroke="black" stroke-width="1" />
<path d="M71.04334598509504,4.389317701815071 L67.62557577608493,10.107812464180574 L63.0,-0.0" fill="pink" fill-opacity="0.6" stroke="black" stroke-width="1" />
<path d="M71.04334598509504,-4.389317701815071 L67.62557577608493,-10.107812464180574 L63.0,-0.0" fill="orange" fill-opacity="0.6" stroke="black" stroke-width="1" />
<path d="M50.0,29.0 L55.849071382324446,34.96438883942623 L50.0,37.0" fill="orange" fill-opacity="0.6" stroke="black" stroke-width="1" />
<path d="M50.0,-29.0 L55.849071382324446,-34.96438883942623 L50.0,-37.0" fill="black" fill-opacity="0.6" stroke="black" stroke-width="1" />
<path d="M50.0,37.0 L50.27376948571651,38.56357645244559 L50.0,40.0" fill="pink" fill-opacity="0.6" stroke="black" stroke-width="1" />
<path d="M50.0,-37.0 L50.27376948571651,-38.56357645244559 L50.0,-40.0" fill="purple" fill-opacity="0.6" stroke="black" stroke-width="1" />
<path d="M50.0,50.0 L62.0,38.0 L64.59738340397134,33.91916760418597" fill="red" fill-opacity="0.6" stroke="black" stroke-width="1" />
<path d="M50.0,-50.0 L62.0,-38.0 L64.59738340397134,-33.91916760418597" fill="purple" fill-opacity="0.6" stroke="black" stroke-width="1" />
<path d="M62.0,38.0 L64.59738340397134,33.91916760418597 L65.0,35.0" fill="brown" fill-opacity="0.6" stroke="black" stroke-width="1" />
<path d="M62.0,-38.0 L64.59738340397134,-33.91916760418597 L65.0,-35.0" fill="yellow" fill-opacity="0.6" stroke="black" stroke-width="1" />
<path d="M64.59738340397134,33.91916760418597 L65.0,35.0 L76.0,24.0" fill="blue" fill-opacity="0.6" stroke="black" stroke-width="1" />
<path d="M64.59738340397134,-33.91916760418597 L65.0,-35.0 L76.0,-24.0" fill="orange" fill-opacity="0.6" stroke="black" stroke-width="1" />
<path d="M65.0,35.0 L76.0,24.0 L81.0,19.0" fill="yellow" fill-opacity="0.6" stroke="black" stroke-width="1" />
<path d="M65.0,-35.0 L76.0,-24.0 L81.0,-19.0" fill="black" fill-opacity="0.6" stroke="black" stroke-width="1" />
<path d="M76.0,24.0 L81.0,19.0 L86.0,14.0" fill="orange" fill-opacity="0.6" stroke="black" stroke-width="1" />
<path d="M76.0,-24.0 L81.0,-19.0 L86.0,-14.0" fill="purple" fill-opacity="0.6" stroke="black" stroke-width="1" />
<path d="M81.0,19.0 L86.0,14.0 L95.0,5.0" fill="yellow" fill-opacity="0.6" stroke="black" stroke-width="1" />
<path d="M81.0,-19.0 L86.0,-14.0 L95.0,-5.0" fill="orange" fill-opacity="0.6" stroke="black" stroke-width="1" />
<path d="M86.0,14.0 L95.0,5.0 L98.0,2.0" fill="brown" fill-opacity="0.6" stroke="black" stroke-width="1" />
<path d="M86.0,-14.0 L95.0,-5.0 L98.0,-2.0" fill="black" fill-opacity="0.6" stroke="black" stroke-width="1" />
<path d="M0.0,-13.0 L1.6006861621905122,-15.640727791243993 L0.0,-16.0" fill="brown" fill-opacity="0.6" stroke="black" stroke-width="1" />
<path d="M0.0,13.0 L1.6006861621905122,15.640727791243993 L0.0,16.0" fill="brown" fill-opacity="0.6" stroke="black" stroke-width="1" />
<path d="M0.0,87.0 L1.6006861621905122,84.35927220875601 L0.0,84.0" fill="pink" fill-opacity="0.6" stroke="black" stroke-width="1" />
<path d="M0.0,-87.0 L1.6006861621905122,-84.35927220875601 L0.0,-84.0" fill="black" fill-opacity="0.6" stroke="black" stroke-width="1" />
<path d="M0.0,-17.0 L4.129078928131527,-18.961896848235448 L0.0,-20.0" fill="green" fill-opacity="0.6" stroke="black" stroke-width="1" />
<path d="M0.0,17.0 L4.129078928131527,18.961896848235448 L0.0,20.0" fill="blue" fill-opacity="0.6" stroke="black" stroke-width="1" />
<path d="M0.0,83.0 L4.129078928131527,81.03810315176455 L0.0,80.0" fill="brown" fill-opacity="0.6" stroke="black" stroke-width="1" />
<path d="M0.0,-83.0 L4.129078928131527,-81.03810315176455 L0.0,-80.0" fill="blue" fill-opacity="0.6" stroke="black" stroke-width="1" />
<path d="M0.0,-20.0 L4.389317701815071,-28.95665401490496 L10.107812464180574,-32.37442422391507" fill="brown" fill-opacity="0.6" stroke="black" stroke-width="1" />
<path d="M0.0,20.0 L4.389317701815071,28.95665401490496 L10.107812464180574,32.37442422391507" fill="green" fill-opacity="0.6" stroke="black" stroke-width="1" />
<path d="M0.0,80.0 L4.389317701815071,71.04334598509504 L10.107812464180574,67.62557577608493" fill="blue" fill-opacity="0.6" stroke="black" stroke-width="1" />
<path d="M0.0,-80.0 L4.389317701815071,-71.04334598509504 L10.107812464180574,-67.62557577608493" fill="orange" fill-opacity="0.6" stroke="black" stroke-width="1" />
<path d="M4.389317701815071,-28.95665401490496 L10.107812464180574,-32.37442422391507 L0.0,-37.0" fill="black" fill-opacity="0.6" stroke="black" stroke-width="1" />
<path d="M4.389317701815071,28.95665401490496 L10.107812464180574,32.37442422391507 L0.0,37.0" fill="blue" fill-opacity="0.6" stroke="black" stroke-width="1" />
<path d="M4.389317701815071,71.04334598509504 L10.107812464180574,67.62557577608493 L0.0,63.0" fill="pink" fill-opacity="0.6" stroke="black" stroke-width="1" />
<path d="M4.389317701815071,-71.04334598509504 L10.107812464180574,-67.62557577608493 L0.0,-63.0" fill="orange" fill-opacity="0.6" stroke="black" stroke-width="1" />
<path d="M29.0,-50.0 L34.96438883942623,-44.150928617675554 L37.0,-50.0" fill="green" fill-opacity="0.6" stroke="black" stroke-width="1" />
<path d="M29.0,50.0 L34.96438883942623,44.150928617675554 L37.0,50.0" fill="yellow" fill-opacity="0.6" stroke="black" stroke-width="1" />
<path d="M29.0,50.0 L34.96438883942623,55.849071382324446 L37.0,50.0" fill="black" fill-opacity="0.6" stroke="black" stroke-width="1" />
<path d="M29.0,-50.0 L34.96438883942623,-55.849071382324446 L37.0,-50.0" fill="pink" fill-opacity="0.6" stroke="black" stroke-width="1" />
<path d="M37.0,-50.0 L38.56357645244559,-49.72623051428349 L40.0,-50.0" fill="black" fill-opacity="0.6" stroke="black" stroke-width="1" />
<path d="M37.0,50.0 L38.56357645244559,49.72623051428349 L40.0,50.0" fill="blue" fill-opacity="0.6" stroke="black" stroke-width="1" />
<path d="M37.0,50.0 L38.56357645244559,50.27376948571651 L40.0,50.0" fill="green" fill-opacity="0.6" stroke="black" stroke-width="1" />
<path d="M37.0,-50.0 L38.56357645244559,-50.27376948571651 L40.0,-50.0" fill="black" fill-opacity="0.6" stroke="black" stroke-width="1" />
<path d="M38.0,-38.0 L33.91916760418597,-35.402616596028665 L35.0,-35.0" fill="pink" fill-opacity="0.6" stroke="black" stroke-width="1" />
<path d="M38.0,38.0 L33.91916760418597,35.402616596028665 L35.0,35.0" fill="black" fill-opacity="0.6" stroke="black" stroke-width="1" />
<path d="M38.0,62.0 L33.91916760418597,64.59738340397134 L35.0,65.0" fill="orange" fill-opacity="0.6" stroke="black" stroke-width="1" />
<path d="M38.0,-62.0 L33.91916760418597,-64.59738340397134 L35.0,-65.0" fill="brown" fill-opacity="0.6" stroke="black" stroke-width="1" />
<path d="M0.0,87.0 L-1.6006861621905122,84.35927220875601 L0.0,84.0" fill="pink" fill-opacity="0.6" stroke="black" stroke-width="1" />
<path d="M0.0,-13.0 L-1.6006861621905122,-15.640727791243993 L0.0,-16.0" fill="blue" fill-opacity="0.6" stroke="black" stroke-width="1" />
<path d="M0.0,13.0 L-1.6006861621905122,15.64072779124399 L0.0,16.0" fill="brown" fill-opacity="0.6" stroke="black" stroke-width="1" />
<path d="M0.0,-87.0 L-1.6006861621905122,-84.35927220875601 L0.0,-84.0" fill="brown" fill-opacity="0.6" stroke="black" stroke-width="1" />
<path d="M0.0,83.0 L-4.129078928131527,81.03810315176455 L0.0,80.0" fill="pink" fill-opacity="0.6" stroke="black" stroke-width="1" />
<path d="M0.0,-17.0 L-4.129078928131527,-18.961896848235448 L0.0,-20.0" fill="black" fill-opacity="0.6" stroke="black" stroke-width="1" />
<path d="M0.0,17.0 L-4.129078928131527,18.961896848235455 L0.0,20.0" fill="pink" fill-opacity="0.6" stroke="black" stroke-width="1" />
<path d="M0.0,-83.0 L-4.129078928131527,-81.03810315176455 L0.0,-80.0" fill="yellow" fill-opacity="0.6" stroke="black" stroke-width="1" />
<path d="M0.0,80.0 L-4.389317701815071,71.04334598509504 L-10.107812464180574,67.62557577608493" fill="red" fill-opacity="0.6" stroke="black" stroke-width="1" />
<path d="M0.0,-20.0 L-4.389317701815071,-28.95665401490496 L-10.107812464180574,-32.37442422391507" fill="black" fill-opacity="0.6" stroke="black" stroke-width="1" />
<path d="M0.0,20.0 L-4.389317701815071,28.956654014904956 L-10.107812464180574,32.37442422391507" fill="green" fill-opacity="0.6" stroke="black" stroke-width="1" />
<path d="M0.0,-80.0 L-4.389317701815071,-71.04334598509504 L-10.107812464180574,-67.62557577608493" fill="green" fill-opacity="0.6" stroke="black" stroke-width="1" />
<path d="M-4.389317701815071,71.04334598509504 L-10.107812464180574,67.62557577608493 L0.0,63.0" fill="purple" fill-opacity="0.6" stroke="black" stroke-width="1" />
<path d="M-4.389317701815071,-28.95665401490496 L-10.107812464180574,-32.37442422391507 L0.0,-37.0" fill="pink" fill-opacity="0.6" stroke="black" stroke-width="1" />
<path d="M-4.389317701815071,28.956654014904956 L-10.107812464180574,32.37442422391507 L0.0,37.0" fill="black" fill-opacity="0.6" stroke="black" stroke-width="1" />
<path d="M-4.389317701815071,-71.04334598509504 L-10.107812464180574,-67.62557577608493 L0.0,-63.0" fill="pink" fill-opacity="0.6" stroke="black" stroke-width="1" />
<path d="M-29.0,50.0 L-34.96438883942623,55.849071382324446 L-37.0,50.0" fill="blue" fill-opacity="0.6" stroke="black" stroke-width="1" />
<path d="M-29.0,-50.0 L-34.96438883942623,-44.150928617675554 L-37.0,-50.0" fill="blue" fill-opacity="0.6" stroke="black" stroke-width="1" />
<path d="M-29.0,50.0 L-34.96438883942623,44.150928617675554 L-37.0,50.0" fill="orange" fill-opacity="0.6" stroke="black" stroke-width="1" />
<path d="M-29.0,-50.0 L-34.96438883942623,-55.849071382324446 L-37.0,-50.0" fill="pink" fill-opacity="0.6" stroke="black" stroke-width="1" />
<path d="M-37.0,50.0 L-38.56357645244559,50.27376948571651 L-40.0,50.0" fill="purple" fill-opacity="0.6" stroke="black" stroke-width="1" />
<path d="M-37.0,-50.0 L-38.56357645244559,-49.72623051428349 L-40.0,-50.0" fill="orange" fill-opacity="0.6" stroke="black" stroke-width="1" />
<path d="M-37.0,50.0 L-38.56357645244559,49.72623051428349 L-40.0,50.0" fill="blue" fill-opacity="0.6" stroke="black" stroke-width="1" />
<path d="M-37.0,-50.0 L-38.56357645244559,-50.27376948571651 L-40.0,-50.0" fill="orange" fill-opacity="0.6" stroke="black" stroke-width="1" />
<path d="M-38.0,62.0 L-33.91916760418597,64.59738340397134 L-35.0,65.0" fill="yellow" fill-opacity="0.6" stroke="black" stroke-width="1" />
<path d="M-38.0,-38.0 L-33.91916760418597,-35.402616596028665 L-35.0,-35.0" fill="blue" fill-opacity="0.6" stroke="black" stroke-width="1" />
<path d="M-38.0,38.0 L-33.91916760418597,35.402616596028665 L-35.0,35.0" fill="green" fill-opacity="0.6" stroke="black" stroke-width="1" />
<path d="M-38.0,-62.0 L-33.91916760418597,-64.59738340397134 L-35.0,-65.0" fill="yellow" fill-opacity="0.6" stroke="black" stroke-width="1" />
<path d="M-95.0,-5.0 L-98.0,-2.0 L-100.0,-0.0" fill="brown" fill-opacity="0.6" stroke="black" stroke-width="1" />
<path d="M-95.0,5.0 L-98.0,2.0 L-100.0,-0.0" fill="black" fill-opacity="0.6" stroke="black" stroke-width="1" />
<path d="M-87.0,-0.0 L-84.35927220875601,-1.6006861621905122 L-84.0,-0.0" fill="green" fill-opacity="0.6" stroke="black" stroke-width="1" />
<path d="M-87.0,-0.0 L-84.35927220875601,1.6006861621905122 L-84.0,-0.0" fill="brown" fill-opacity="0.6" stroke="black" stroke-width="1" />
<path d="M-83.0,-0.0 L-81.03810315176455,-4.129078928131527 L-80.0,-0.0" fill="pink" fill-opacity="0.6" stroke="black" stroke-width="1" />
<path d="M-83.0,-0.0 L-81.03810315176455,4.129078928131527 L-80.0,-0.0" fill="yellow" fill-opacity="0.6" stroke="black" stroke-width="1" />
<path d="M-80.0,-0.0 L-71.04334598509504,-4.389317701815071 L-67.62557577608493,-10.107812464180574" fill="pink" fill-opacity="0.6" stroke="black" stroke-width="1" />
<path d="M-80.0,-0.0 L-71.04334598509504,4.389317701815071 L-67.62557577608493,10.107812464180574" fill="green" fill-opacity="0.6" stroke="black" stroke-width="1" />
<path d="M-71.04334598509504,-4.389317701815071 L-67.62557577608493,-10.107812464180574 L-63.0,-0.0" fill="pink" fill-opacity="0.6" stroke="black" stroke-width="1" />
<path d="M-71.04334598509504,4.389317701815071 L-67.62557577608493,10.107812464180574 L-63.0,-0.0" fill="orange" fill-opacity="0.6" stroke="black" stroke-width="1" />
<path d="M-50.0,-29.0 L-55.849071382324446,-34.96438883942623 L-50.0,-37.0" fill="red" fill-opacity="0.6" stroke="black" stroke-width="1" />
<path d="M-50.0,29.0 L-55.849071382324446,34.96438883942623 L-50.0,37.0" fill="blue" fill-opacity="0.6" stroke="black" stroke-width="1" />
<path d="M-50.0,-37.0 L-50.27376948571651,-38.56357645244559 L-50.0,-40.0" fill="yellow" fill-opacity="0.6" stroke="black" stroke-width="1" />
<path d="M-50.0,37.0 L-50.27376948571651,38.56357645244559 L-50.0,40.0" fill="red" fill-opacity="0.6" stroke="black" stroke-width="1" />
<path d="M-50.0,-50.0 L-62.0,-38.0 L-64.59738340397134,-33.91916760418597" fill="yellow" fill-opacity="0.6" stroke="black" stroke-width="1" />
<path d="M-50.0,50.0 L-62.0,38.0 L-64.59738340397134,33.91916760418597" fill="black" fill-opacity="0.6" stroke="black" stroke-width="1" />
<path d="M-62.0,-38.0 L-64.59738340397134,-33.91916760418597 L-65.0,-35.0" fill="purple" fill-opacity="0.6" stroke="black" stroke-width="1" />
<path d="M-62.0,38.0 L-64.59738340397134,33.91916760418597 L-65.0,35.0" fill="red" fill-opacity="0.6" stroke="black" stroke-width="1" />
<path d="M-64.59738340397134,-33.91916760418597 L-65.0,-35.0 L-76.0,-24.0" fill="pink" fill-opacity="0.6" stroke="black" stroke-width="1" />
<path d="M-64.59738340397134,33.91916760418597 L-65.0,35.0 L-76.0,24.0" fill="green" fill-opacity="0.6" stroke="black" stroke-width="1" />
<path d="M-65.0,-35.0 L-76.0,-24.0 L-81.0,-19.0" fill="yellow" fill-opacity="0.6" stroke="black" stroke-width="1" />
<path d="M-65.0,35.0 L-76.0,24.0 L-81.0,19.0" fill="black" fill-opacity="0.6" stroke="black" stroke-width="1" />
<path d="M-76.0,-24.0 L-81.0,-19.0 L-86.0,-14.0" fill="purple" fill-opacity="0.6" stroke="black" stroke-width="1" />
<path d="M-76.0,24.0 L-81.0,19.0 L-86.0,14.0" fill="blue" fill-opacity="0.6" stroke="black" stroke-width="1" />
<path d="M-81.0,-19.0 L-86.0,-14.0 L-95.0,-5.0" fill="green" fill-opacity="0.6" stroke="black" stroke-width="1" />
<path d="M-81.0,19.0 L-86.0,14.0 L-95.0,5.0" fill="yellow" fill-opacity="0.6" stroke="black" stroke-width="1" />
<path d="M-86.0,-14.0 L-95.0,-5.0 L-98.0,-2.0" fill="red" fill-opacity="0.6" stroke="black" stroke-width="1" />
<path d="M-86.0,14.0 L-95.0,5.0 L-98.0,2.0" fill="orange" fill-opacity="0.6" stroke="black" stroke-width="1" />
</svg>