<?xml version="1.0" encoding="UTF-8"?>
<svg xmlns="http://www.w3.org/2000/svg" xmlns:xlink="http://www.w3.org/1999/xlink"
     width="250" height="250" viewBox="-125.0 -125.0 250 250">
<defs>
</defs>
<path d="M0.0,-0.0 L10.60793582764506,-1.926437671908296 L16.96790109174277,-2.572312288156818" fill="pink" fill-opacity="0.6" stroke="black" stroke-width="1" />
<path d="M0.0,-0.0 L10.60793582764506,1.926437671908296 L16.96790109174277,2.572312288156818" fill="orange" fill-opacity="0.6" stroke="black" stroke-width="1" />
<path d="M10.60793582764506,-1.926437671908296 L16.96790109174277,-2.572312288156818 L25.0,-0.0" fill="blue" fill-opacity="0.6" stroke="black" stroke-width="1" />
<path d="M10.60793582764506,1.926437671908296 L16.96790109174277,2.572312288156818 L25.0,-0.0" fill="blue" fill-opacity="0.6" stroke="black" stroke-width="1" />
<path d="M25.0,-0.0 L25.39508863310911,-10.882367099235053 L27.0,-0.0" fill="pink" fill-opacity="0.6" stroke="black" stroke-width="1" />
<path d="M25.0,-0.0 L25.39508863310911,10.882367099235053 L27.0,-0.0" fill="blue" fill-opacity="0.6" stroke="black" stroke-width="1" />
<path d="M50.0,-21.0 L46.59857279194951,-23.452881991244958 L50.0,-26.0" fill="green" fill-opacity="0.6" stroke="black" stroke-width="1" />
<path d="M50.0,21.0 L46.59857279194951,23.452881991244958 L50.0,26.0" fill="purple" fill-opacity="0.6" stroke="black" stroke-width="1" />
<path d="M50.0,-26.0 L46.739161711872,-30.606935855500105 L50.0,-36.0" fill="red" fill-opacity="0.6" stroke="black" stroke-width="1" />
<path d="M50.0,26.0 L46.739161711872,30.606935855500105 L50.0,36.0" fill="purple" fill-opacity="0.6" stroke="black" stroke-width="1" />
<path d="M50.0,50.0 L44.0,56.0 L21.0,79.0" fill="red" fill-opacity="0.6" stroke="black" stroke-width="1" />
<path d="M50.0,-50.0 L44.0,-56.0 L21.0,-79.0" fill="black" fill-opacity="0.6" stroke="black" stroke-width="1" />
<path d="M44.0,56.0 L21.0,79.0 L19.0,81.0" fill="pink" fill-opacity="0.6" stroke="black" stroke-width="1" />
<path d="M44.0,-56.0 L21.0,-79.0 L19.0,-81.0" fill="brown" fill-opacity="0.6" stroke="black" stroke-width="1" />
<path d="M21.0,79.0 L19.0,81.0 L13.0,87.0" fill="blue" fill-opacity="0.6" stroke="black" stroke-width="1" />
<path d="M21.0,-79.0 L19.0,-81.0 L13.0,-87.0" fill="black" fill-opacity="0.6" stroke="black" stroke-width="1" />
<path d="M19.0,81.0 L13.0,87.0 L0.18646398599676106,99.72362617325453" fill="green" fill-opacity="0.6" stroke="black" stroke-width="1" />
<path d="M19.0,-81.0 L13.0,-87.0 L0.18646398599676106,-99.72362617325453" fill="purple" fill-opacity="0.6" stroke="black" stroke-width="1" />
<path d="M13.0,-13.0 L0.2763738267454796,-0.18646398599676106 L0.0,-0.0" fill="blue" fill-opacity="0.6" stroke="black" stroke-width="1" />
<path d="M13.0,13.0 L0.2763738267454796,0.18646398599676106 L0.0,-0.0" fill="orange" fill-opacity="0.6" stroke="black" stroke-width="1" />
<path d="M0.0,-0.0 L-10.60793582764506,-1.926437671908296 L-16.96790109174277,-2.572312288156818" fill="yellow" fill-opacity="0.6" stroke="black" stroke-width="1" />
<path d="M0.0,-0.0 L-10.60793582764506,1.926437671908296 L-16.96790109174277,2.572312288156818" fill="yellow" fill-opacity="0.6" stroke="black" stroke-width="1" />
<path d="M-10.60793582764506,-1.926437671908296 L-16.96790109174277,-2.572312288156818 L-25.0,-0.0" fill="purple" fill-opacity="0.6" stroke="black" stroke-width="1" />
<path d="M-10.60793582764506,1.926437671908296 L-16.96790109174277,2.572312288156818 L-25.0,-0.0" fill="green" fill-opacity="0.6" stroke="black" stroke-width="1" />
<path d="M-25.0,-0.0 L-25.39508863310911,-10.882367099235053 L-27.0,-0.0" fill="red" fill-opacity="0.6" stroke="black" stroke-width="1" />
<path d="M-25.0,-0.0 L-25.39508863310911,10.882367099235053 L-27.0,-0.0" fill="red" fill-opacity="0.6" stroke="black" stroke-width="1" />
<path d="M-50.0,-21.0 L-46.59857279194951,-23.452881991244958 L-50.0,-26.0" fill="orange" fill-opacity="0.6" stroke="black" stroke-width="1" />
<path d="M-50.0,21.0 L-46.59857279194951,23.452881991244958 L-50.0,26.0" fill="blue" fill-opacity="0.6" stroke="black" stroke-width="1" />
<path d="M-50.0,-26.0 L-46.739161711872,-30.606935855500105 L-50.0,-36.0" fill="black" fill-opacity="0.6" stroke="black" stroke-width="1" />
<path d="M-50.0,26.0 L-46.739161711872,30.606935855500105 L-50.0,36.0" fill="red" fill-opacity="0.6" stroke="black" stroke-width="1" />
<path d="M-50.0,50.0 L-44.0,56.0 L-21.0,79.0" fill="black" fill-opacity="0.6" stroke="black" stroke-width="1" />
<path d="M-50.0,-50.0 L-44.0,-56.0 L-21.0,-79.0" fill="blue" fill-opacity="0.6" stroke="black" stroke-width="1" />
<path d="M-44.0,56.0 L-21.0,79.0 L-19.0,81.0" fill="black" fill-opacity="0.6" stroke="black" stroke-width="1" />
<path d="M-44.0,-56.0 L-21.0,-79.0 L-19.0,-81.0" fill="black" fill-opacity="0.6" stroke="black" stroke-width="1" />
<path d="M-21.0,79.0 L-19.0,81.0 L-13.0,87.0" fill="blue" fill-opacity="0.6" stroke="black" stroke-width="1" />
<path d="M-21.0,-79.0 L-19.0,-81.0 L-13.0,-87.0" fill="yellow" fill-opacity="0.6" stroke="black" stroke-width="1" />
<path d="M-19.0,81.0 L-13.0,87.0 L-0.18646398599676106,99.72362617325452" fill="red" fill-opacity="0.6" stroke="black" stroke-width="1" />
<path d="M-19.0,-81.0 L-13.0,-87.0 L-0.18646398599676106,-99.72362617325453" fill="brown" fill-opacity="0.6" stroke="black" stroke-width="1" />
<path d="M-13.0,-13.0 L-0.2763738267454796,-0.18646398599676106 L0.0,-0.0" fill="brown" fill-opacity="0.6" stroke="black" stroke-width="1" />
<path d="M-13.0,13.0 L-0.2763738267454796,0.18646398599676106 L0.0,-0.0" fill="yellow" fill-opacity="0.6" stroke="black" stroke-width="1" />
<path d="M100.0,-0.0 L89.39206417235494,1.926437671908296 L83.03209890825723,2.572312288156818" fill="green" fill-opacity="0.6" stroke="black" stroke-width="1" />
<path d="M100.0,-0.0 L89.39206417235494,-1.926437671908296 L83.03209890825723,-2.572312288156818" fill="orange" fill-opacity="0.6" stroke="black" stroke-width="1" />
<path d="M89.39206417235494,1.926437671908296 L83.03209890825723,2.572312288156818 L75.0,-0.0" fill="brown" fill-opacity="0.6" stroke="black" stroke-width="1" />
<path d="M89.39206417235494,-1.926437671908296 L83.03209890825723,-2.572312288156818 L75.0,-0.0" fill="red" fill-opacity="0.6" stroke="black" stroke-width="1" />
<path d="M75.0,-0.0 L74.60491136689089,10.882367099235053 L73.0,-0.0" fill="blue" fill-opacity="0.6" stroke="black" stroke-width="1" />
<path d="M75.0,-0.0 L74.60491136689089,-10.882367099235053 L73.0,-0.0" fill="yellow" fill-opacity="0.6" stroke="black" stroke-width="1" />
<path d="M50.0,21.0 L53.40142720805049,23.452881991244958 L50.0,26.0" fill="brown" fill-opacity="0.6" stroke="black" stroke-width="1" />
<path d="M50.0,-21.0 L53.40142720805049,-23.452881991244958 L50.0,-26.0" fill="orange" fill-opacity="0.6" stroke="black" stroke-width="1" />
<path d="M50.0,26.0 L53.260838288128,30.606935855500105 L50.0,36.0" fill="blue" fill-opacity="0.6" stroke="black" stroke-width="1" />
<path d="M50.0,-26.0 L53.260838288128,-30.606935855500105 L50.0,-36.0" fill="yellow" fill-opacity="0.6" stroke="black" stroke-width="1" />
<path d="M50.0,50.0 L56.0,44.0 L79.0,21.0" fill="brown" fill-opacity="0.6" stroke="black" stroke-width="1" />
<path d="M50.0,-50.0 L56.0,-44.0 L79.0,-21.0" fill="black" fill-opacity="0.6" stroke="black" stroke-width="1" />
<path d="M56.0,44.0 L79.0,21.0 L81.0,19.0" fill="purple" fill-opacity="0.6" stroke="black" stroke-width="1" />
<path d="M56.0,-44.0 L79.0,-21.0 L81.0,-19.0" fill="brown" fill-opacity="0.6" stroke="black" stroke-width="1" />
<path d="M79.0,21.0 L81.0,19.0 L87.0,13.0" fill="red" fill-opacity="0.6" stroke="black" stroke-width="1" />
<path d="M79.0,-21.0 L81.0,-19.0 L87.0,-13.0" fill="yellow" fill-opacity="0.6" stroke="black" stroke-width="1" />
<path d="M81.0,19.0 L87.0,13.0 L99.72362617325453,0.18646398599676106" fill="black" fill-opacity="0.6" stroke="black" stroke-width="1" />
<path d="M81.0,-19.0 L87.0,-13.0 L99.72362617325453,-0.18646398599676106" fill="green" fill-opacity="0.6" stroke="black" stroke-width="1" />
<path d="M87.0,13.0 L99.72362617325453,0.18646398599676106 L100.0,-0.0" fill="orange" fill-opacity="0.6" stroke="black" stroke-width="1" />
<path d="M87.0,-13.0 L99.72362617325453,-0.18646398599676106 L100.0,-0.0" fill="black" fill-opacity="0.6" stroke="black" stroke-width="1" />
<path d="M0.0,-0.0 L1.926437671908296,-10.60793582764506 L2.572312288156818,-16.96790109174277" fill="orange" fill-opacity="0.6" stroke="black" stroke-width="1" />
<path d="M0.0,-0.0 L1.926437671908296,10.60793582764506 L2.572312288156818,16.96790109174277" fill="green" fill-opacity="0.6" stroke="black" stroke-width="1" />
<path d="M0.0,100.0 L1.926437671908296,89.39206417235494 L2.572312288156818,83.03209890825723" fill="yellow" fill-opacity="0.6" stroke="black" stroke-width="1" />
<path d="M0.0,-100.0 L1.926437671908296,-89.39206417235494 L2.572312288156818,-83.03209890825723" fill="brown" fill-opacity="0.6" stroke="black" stroke-width="1" />
<path d="M1.926437671908296,-10.60793582764506 L2.572312288156818,-16.96790109174277 L0.0,-25.0" fill="yellow" fill-opacity="0.6" stroke="black" stroke-width="1" />
<path d="M1.926437671908296,10.60793582764506 L2.572312288156818,16.96790109174277 L0.0,25.0" fill="yellow" fill-opacity="0.6" stroke="black" stroke-width="1" />
<path d="M1.926437671908296,89.39206417235494 L2.572312288156818,83.03209890825723 L0.0,75.0" fill="purple" fill-opacity="0.6" stroke="black" stroke-width="1" />
<path d="M1.926437671908296,-89.39206417235494 L2.572312288156818,-83.03209890825723 L0.0,-75.0" fill="purple" fill-opacity="0.6" stroke="black" stroke-width="1" />
<path d="M0.0,-25.0 L10.882367099235053,-25.39508863310911 L0.0,-27.0" fill="pink" fill-opacity="0.6" stroke="black" stroke-width="1" />
<path d="M0.0,25.0 L10.882367099235053,25.39508863310911 L0.0,27.0" fill="black" fill-opacity="0.6" stroke="black" stroke-width="1" />
<path d="M0.0,75.0 L10.882367099235053,74.60491136689089 L0.0,73.0" fill="pink" fill-opacity="0.6" stroke="black" stroke-width="1" />
<path d="M0.0,-75.0 L10.882367099235053,-74.60491136689089 L0.0,-73.0" fill="green" fill-opacity="0.6" stroke="black" stroke-width="1" />
<path d="M21.0,-50.0 L23.452881991244958,-46.59857279194951 L26.0,-50.0" fill="purple" fill-opacity="0.6" stroke="black" stroke-width="1" />
<path d="M21.0,50.0 L23.452881991244958,46.59857279194951 L26.0,50.0" fill="black" fill-opacity="0.6" stroke="black" stroke-width="1" />
<path d="M21.0,50.0 L23.452881991244958,53.40142720805049 L26.0,50.0" fill="blue" fill-opacity="0.6" stroke="black" stroke-width="1" />
<path d="M21.0,-50.0 L23.452881991244958,-53.40142720805049 L26.0,-50.0" fill="blue" fill-opacity="0.6" stroke="black" stroke-width="1" />
<path d="M26.0,-50.0 L30.606935855500105,-46.739161711872 L36.0,-50.0" fill="pink" fill-opacity="0.6" stroke="black" stroke-width="1" />
<path d="M26.0,50.0 L30.606935855500105,46.739161711872 L36.0,50.0" fill="pink" fill-opacity="0.6" stroke="black" stroke-width="1" />
<path d="M26.0,50.0 L30.606935855500105,53.260838288128 L36.0,50.0" fill="green" fill-opacity="0.6" stroke="black" stroke-width="1" />
<path d="M26.0,-50.0 L30.606935855500105,-53.260838288128 L36.0,-50.0" fill="brown" fill-opacity="0.6" stroke="black" stroke-width="1" />
<path d="M13.0,-13.0 L0.18646398599676106,-0.2763738267454796 L0.0,-0.0" fill="black" fill-opacity="0.6" stroke="black" stroke-width="1" />
<path d="M13.0,13.0 L0.18646398599676106,0.2763738267454796 L0.0,-0.0" fill="black" fill-opacity="0.6" stroke="black" stroke-width="1" />
<path d="M13.0,87.0 L0.18646398599676106,99.72362617325453 L0.0,100.0" fill="brown" fill-opacity="0.6" stroke="black" stroke-width="1" />
<path d="M13.0,-87.0 L0.18646398599676106,-99.72362617325453 L0.0,-100.0" fill="green" fill-opacity="0.6" stroke="black" stroke-width="1" />
<path d="M0.0,100.0 L-1.926437671908296,89.39206417235494 L-2.572312288156818,83.03209890825723" fill="black" fill-opacity="0.6" stroke="black" stroke-width="1" />
<path d="M0.0,-0.0 L-1.926437671908296,-10.60793582764506 L-2.572312288156818,-16.96790109174277" fill="yellow" fill-opacity="0.6" stroke="black" stroke-width="1" />
<path d="M0.0,-0.0 L-1.926437671908296,10.607935827645065 L-2.572312288156818,16.967901091742775" fill="orange" fill-opacity="0.6" stroke="black" stroke-width="1" />
<path d="M0.0,-100.0 L-1.926437671908296,-89.39206417235494 L-2.572312288156818,-83.03209890825723" fill="blue" fill-opacity="0.6" stroke="black" stroke-width="1" />
<path d="M-1.926437671908296,89.39206417235494 L-2.572312288156818,83.03209890825723 L0.0,75.0" fill="red" fill-opacity="0.6" stroke="black" stroke-width="1" />
<path d="M-1.926437671908296,-10.60793582764506 L-2.572312288156818,-16.96790109174277 L0.0,-25.0" fill="green" fill-opacity="0.6" stroke="black" stroke-width="1" />
<path d="M-1.926437671908296,10.607935827645065 L-2.572312288156818,16.967901091742775 L0.0,25.0" fill="blue" fill-opacity="0.6" stroke="black" stroke-width="1" />
<path d="M-1.926437671908296,-89.39206417235494 L-2.572312288156818,-83.03209890825723 L0.0,-75.0" fill="green" fill-opacity="0.6" stroke="black" stroke-width="1" />
<path d="M0.0,75.0 L-10.882367099235053,74.60491136689089 L0.0,73.0" fill="black" fill-opacity="0.6" stroke="black" stroke-width="1" />
<path d="M0.0,-25.0 L-10.882367099235053,-25.39508863310911 L0.0,-27.0" fill="blue" fill-opacity="0.6" stroke="black" stroke-width="1" />
<path d="M0.0,25.0 L-10.882367099235053,25.39508863310911 L0.0,27.0" fill="pink" fill-opacity="0.6" stroke="black" stroke-width="1" />
<path d="M0.0,-75.0 L-10.882367099235053,-74.60491136689089 L0.0,-73.0" fill="pink" fill-opacity="0.6" stroke="black" stroke-width="1" />
<path d="M-21.0,50.0 L-23.452881991244958,53.40142720805049 L-26.0,50.0" fill="yellow" fill-opacity="0.6" stroke="black" stroke-width="1" />
<path d="M-21.0,-50.0 L-23.452881991244958,-46.59857279194951 L-26.0,-50.0" fill="purple" fill-opacity="0.6" stroke="black" stroke-width="1" />
<path d="M-21.0,50.0 L-23.452881991244958,46.59857279194951 L-26.0,50.0" fill="green" fill-opacity="0.6" stroke="black" stroke-width="1" />
<path d="M-21.0,-50.0 L-23.452881991244958,-53.40142720805049 L-26.0,-50.0" fill="red" fill-opacity="0.6" stroke="black" stroke-width="1" />
<path d="M-26.0,50.0 L-30.606935855500105,53.260838288128 L-36.0,50.0" fill="black" fill-opacity="0.6" stroke="black" stroke-width="1" />
<path d="M-26.0,-50.0 L-30.606935855500105,-46.739161711872 L-36.0,-50.0" fill="pink" fill-opacity="0.6" stroke="black" stroke-width="1" />
<path d="M-26.0,50.0 L-30.606935855500105,46.739161711872 L-36.0,50.0" fill="red" fill-opacity="0.6" stroke="black" stroke-width="1" />
<path d="M-26.0,-50.0 L-30.606935855500105,-53.260838288128 L-36.0,-50.0" fill="orange" fill-opacity="0.6" stroke="black" stroke-width="1" />
<path d="M-13.0,87.0 L-0.18646398599676106,99.72362617325452 L0.0,100.0" fill="blue" fill-opacity="0.6" stroke="black" stroke-width="1" />
<path d="M-13.0,-13.0 L-0.18646398599676106,-0.2763738267454796 L0.0,-0.0" fill="pink" fill-opacity="0.6" stroke="black" stroke-width="1" />
<path d="M-13.0,13.0 L-0.18646398599676106,0.27637382674548405 L0.0,-0.0" fill="orange" fill-opacity="0.6" stroke="black" stroke-width="1" />
<path d="M-13.0,-87.0 L-0.18646398599676106,-99.72362617325453 L0.0,-100.0" fill="green" fill-opacity="0.6" stroke="black" stroke-width="1" />
<path d="M-100.0,-0.0 L-89.39206417235494,-1.926437671908296 L-83.03209890825723,-2.572312288156818" fill="red" fill-opacity="0.6" stroke="black" stroke-width="1" />
<path d="M-100.0,-0.0 L-89.39206417235494,1.926437671908296 L-83.03209890825723,2.572312288156818" fill="brown" fill-opacity="0.6" stroke="black" stroke-width="1" />
<path d="M-89.39206417235494,-1.926437671908296 L-83.03209890825723,-2.572312288156818 L-75.0,-0.0" fill="blue" fill-opacity="0.6" stroke="black" stroke-width="1" />
<path d="M-89.39206417235494,1.926437671908296 L-83.03209890825723,2.572312288156818 L-75.0,-0.0" fill="yellow" fill-opacity="0.6" stroke="black" stroke-width="1" />
<path d="M-75.0,-0.0 L-74.60491136689089,-10.882367099235053 L-73.0,-0.0" fill="purple" fill-opacity="0.6" stroke="black" stroke-width="1" />
<path d="M-75.0,-0.0 L-74.60491136689089,10.882367099235053 L-73.0,-0.0" fill="pink" fill-opacity="0.6" stroke="black" stroke-width="1" />
<path d="M-50.0,-21.0 L-53.40142720805049,-23.452881991244958 L-50.0,-26.0" fill="blue" fill-opacity="0.6" stroke="black" stroke-width="1" />
<path d="M-50.0,21.0 L-53.40142720805049,23.452881991244958 L-50.0,26.0" fill="green" fill-opacity="0.6" stroke="black" stroke-width="1" />
<path d="M-50.0,-26.0 L-53.260838288128,-30.606935855500105 L-50.0,-36.0" fill="green" fill-opacity="0.6" stroke="black" stroke-width="1" />
<path d="M-50.0,26.0 L-53.260838288128,30.606935855500105 L-50.0,36.0" fill="brown" fill-opacity="0.6" stroke="black" stroke-width="1" />
<path d="M-50.0,-50.0 L-56.0,-44.0 L-79.0,-21.0" fill="red" fill-opacity="0.6" stroke="black" stroke-width="1" />
<path d="M-50.0,50.0 L-56.0,44.0 L-79.0,21.0" fill="pink" fill-opacity="0.6" stroke="black" stroke-width="1" />
<path d="M-56.0,-44.0 L-79.0,-21.0 L-81.0,-19.0" fill="orange" fill-opacity="0.6" stroke="black" stroke-width="1" />
<path d="M-56.0,44.0 L-79.0,21.0 L-81.0,19.0" fill="brown" fill-opacity="0.6" stroke="black" stroke-width="1" />
<path d="M-79.0,-21.0 L-81.0,-19.0 L-87.0,-13.0" fill="blue" fill-opacity="0.6" stroke="black" stroke-width="1" />
<path d="M-79.0,21.0 L-81.0,19.0 L-87.0,13.0" fill="orange" fill-opacity="0.6" stroke="black" stroke-width="1" />
<path d="M-81.0,-19.0 L-87.0,-13.0 L-99.72362617325453,-0.18646398599676106" fill="red" fill-opacity="0.6" stroke="black" stroke-width="1" />
<path d="M-81.0,19.0 L-87.0,13.0 L-99.72362617325453,0.18646398599676106" fill="pink" fill-opacity="0.6" stroke="black" stroke-width="1" />
<path d="M-87.0,-13.0 L-99.72362617325453,-0.18646398599676106 L-100.0,-0.0" fill="green" fill-opacity="0.6" stroke="black" stroke-width="1" />
<path d="M-87.0,13.0 L-99.72362617325453,0.18646398599676106 L-100.0,-0.0" fill="purple" fill-opacity="0.6" stroke="black" stroke-width="1" />
</svg>