<?xml version="1.0" encoding="UTF-8"?>
<svg xmlns="http://www.w3.org/2000/svg" xmlns:xlink="http://www.w3.org/1999/xlink"
     width="250" height="250" viewBox="-125.0 -125.0 250 250">
<defs>
</defs>
<path d="M4.0,-0.0 L21.132961147631356,-11.087525719933957 L21.73075949064598,-11.3604804866182" fill-opacity="0" stroke="black" stroke-width="1" />
<path d="M4.0,-0.0 L21.132961147631356,11.087525719933957 L21.73075949064598,11.3604804866182" fill-opacity="0" stroke="black" stroke-width="1" />
<path d="M21.132961147631356,-11.087525719933957 L21.73075949064598,-11.3604804866182 L24.214929472155127,-11.528044098152579" fill-opacity="0" stroke="black" stroke-width="1" />
<path d="M21.132961147631356,11.087525719933957 L21.73075949064598,11.3604804866182 L24.214929472155127,11.528044098152579" fill-opacity="0" stroke="black" stroke-width="1" />
<path d="M21.73075949064598,-11.3604804866182 L24.214929472155127,-11.528044098152579 L31.0,-0.0" fill-opacity="0" stroke="black" stroke-width="1" />
<path d="M21.73075949064598,11.3604804866182 L24.214929472155127,11.528044098152579 L31.0,-0.0" fill-opacity="0" stroke="black" stroke-width="1" />
<path d="M31.0,-0.0 L33.22096939469076,-12.386361237158416 L35.30300894271722,-12.530906999265573" fill-opacity="0" stroke="black" stroke-width="1" />
<path d="M31.0,-0.0 L33.22096939469076,12.386361237158416 L35.30300894271722,12.530906999265573" fill-opacity="0" stroke="black" stroke-width="1" />
<path d="M33.22096939469076,-12.386361237158416 L35.30300894271722,-12.530906999265573 L47.0,-0.0" fill-opacity="0" stroke="black" stroke-width="1" />
<path d="M33.22096939469076,12.386361237158416 L35.30300894271722,12.530906999265573 L47.0,-0.0" fill-opacity="0" stroke="black" stroke-width="1" />
<path d="M50.0,-22.0 L41.31591444266121,-23.34528112387439 L50.0,-27.0" fill-opacity="0" stroke="black" stroke-width="1" />
<path d="M50.0,22.0 L41.31591444266121,23.34528112387439 L50.0,27.0" fill-opacity="0" stroke="black" stroke-width="1" />
<path d="M50.0,-27.0 L42.729425597670144,-28.73751007993951 L43.53738305631919,-31.257701590102073" fill-opacity="0" stroke="black" stroke-width="1" />
<path d="M50.0,27.0 L42.729425597670144,28.73751007993951 L43.53738305631919,31.257701590102073" fill-opacity="0" stroke="black" stroke-width="1" />
<path d="M42.729425597670144,-28.73751007993951 L43.53738305631919,-31.257701590102073 L46.14723583293927,-31.468604209489005" fill-opacity="0" stroke="black" stroke-width="1" />
<path d="M42.729425597670144,28.73751007993951 L43.53738305631919,31.257701590102073 L46.14723583293927,31.468604209489005" fill-opacity="0" stroke="black" stroke-width="1" />
<path d="M43.53738305631919,-31.257701590102073 L46.14723583293927,-31.468604209489005 L49.05409328509707,-34.45423406644083" fill-opacity="0" stroke="black" stroke-width="1" />
<path d="M43.53738305631919,31.257701590102073 L46.14723583293927,31.468604209489005 L49.05409328509707,34.45423406644083" fill-opacity="0" stroke="black" stroke-width="1" />
<path d="M46.14723583293927,-31.468604209489005 L49.05409328509707,-34.45423406644083 L50.0,-49.0" fill-opacity="0" stroke="black" stroke-width="1" />
<path d="M46.14723583293927,31.468604209489005 L49.05409328509707,34.45423406644083 L50.0,49.0" fill-opacity="0" stroke="black" stroke-width="1" />
<path d="M50.0,50.0 L49.0,51.0 L20.0,80.0" fill-opacity="0" stroke="black" stroke-width="1" />
<path d="M50.0,-50.0 L49.0,-51.0 L20.0,-80.0" fill-opacity="0" stroke="black" stroke-width="1" />
<path d="M49.0,51.0 L20.0,80.0 L9.174430926098557,84.19327437612131" fill-opacity="0" stroke="black" stroke-width="1" />
<path d="M49.0,-51.0 L20.0,-80.0 L9.174430926098557,-84.19327437612131" fill-opacity="0" stroke="black" stroke-width="1" />
<path d="M20.0,-20.0 L15.806725623878688,-9.174430926098557 L14.014171261801234,-7.928133391139427" fill-opacity="0" stroke="black" stroke-width="1" />
<path d="M20.0,20.0 L15.806725623878688,9.174430926098557 L14.014171261801234,7.928133391139427" fill-opacity="0" stroke="black" stroke-width="1" />
<path d="M15.806725623878688,-9.174430926098557 L14.014171261801234,-7.928133391139427 L5.681808205384036,-0.8967953359557613" fill-opacity="0" stroke="black" stroke-width="1" />
<path d="M15.806725623878688,9.174430926098557 L14.014171261801234,7.928133391139427 L5.681808205384036,0.8967953359557613" fill-opacity="0" stroke="black" stroke-width="1" />
<path d="M14.014171261801234,-7.928133391139427 L5.681808205384036,-0.8967953359557613 L4.273045976736395,-0.12705850463217497" fill-opacity="0" stroke="black" stroke-width="1" />
<path d="M14.014171261801234,7.928133391139427 L5.681808205384036,0.8967953359557613 L4.273045976736395,0.12705850463217497" fill-opacity="0" stroke="black" stroke-width="1" />
<path d="M5.681808205384036,-0.8967953359557613 L4.273045976736395,-0.12705850463217497 L2.0,-2.0" fill-opacity="0" stroke="black" stroke-width="1" />
<path d="M5.681808205384036,0.8967953359557613 L4.273045976736395,0.12705850463217497 L2.0,2.0" fill-opacity="0" stroke="black" stroke-width="1" />
<path d="M0.12705850463217497,95.7269540232636 L2.0,98.0 L0.019202494916238214,99.95256197467953" fill-opacity="0" stroke="black" stroke-width="1" />
<path d="M0.12705850463217497,-95.7269540232636 L2.0,-98.0 L0.019202494916238214,-99.95256197467953" fill-opacity="0" stroke="black" stroke-width="1" />
<path d="M2.0,-2.0 L0.047438025320484245,-0.019202494916238214 L0.0,-0.0" fill-opacity="0" stroke="black" stroke-width="1" />
<path d="M2.0,2.0 L0.047438025320484245,0.019202494916238214 L0.0,-0.0" fill-opacity="0" stroke="black" stroke-width="1" />
<path d="M-4.0,-0.0 L-21.132961147631356,-11.087525719933957 L-21.73075949064598,-11.3604804866182" fill-opacity="0" stroke="black" stroke-width="1" />
<path d="M-4.0,-0.0 L-21.132961147631356,11.087525719933957 L-21.73075949064598,11.3604804866182" fill-opacity="0" stroke="black" stroke-width="1" />
<path d="M-21.132961147631356,-11.087525719933957 L-21.73075949064598,-11.3604804866182 L-24.214929472155127,-11.528044098152579" fill-opacity="0" stroke="black" stroke-width="1" />
<path d="M-21.132961147631356,11.087525719933957 L-21.73075949064598,11.3604804866182 L-24.214929472155127,11.528044098152579" fill-opacity="0" stroke="black" stroke-width="1" />
<path d="M-21.73075949064598,-11.3604804866182 L-24.214929472155127,-11.528044098152579 L-31.0,-0.0" fill-opacity="0" stroke="black" stroke-width="1" />
<path d="M-21.73075949064598,11.3604804866182 L-24.214929472155127,11.528044098152579 L-31.0,-0.0" fill-opacity="0" stroke="black" stroke-width="1" />
<path d="M-31.0,-0.0 L-33.22096939469076,-12.386361237158416 L-35.30300894271722,-12.530906999265573" fill-opacity="0" stroke="black" stroke-width="1" />
<path d="M-31.0,-0.0 L-33.22096939469076,12.386361237158416 L-35.30300894271722,12.530906999265573" fill-opacity="0" stroke="black" stroke-width="1" />
<path d="M-33.22096939469076,-12.386361237158416 L-35.30300894271722,-12.530906999265573 L-47.0,-0.0" fill-opacity="0" stroke="black" stroke-width="1" />
<path d="M-33.22096939469076,12.386361237158416 L-35.30300894271722,12.530906999265573 L-47.0,-0.0" fill-opacity="0" stroke="black" stroke-width="1" />
<path d="M-50.0,-22.0 L-41.31591444266121,-23.34528112387439 L-50.0,-27.0" fill-opacity="0" stroke="black" stroke-width="1" />
<path d="M-50.0,22.0 L-41.31591444266121,23.34528112387439 L-50.0,27.0" fill-opacity="0" stroke="black" stroke-width="1" />
<path d="M-50.0,-27.0 L-42.729425597670144,-28.73751007993951 L-43.53738305631919,-31.257701590102073" fill-opacity="0" stroke="black" stroke-width="1" />
<path d="M-50.0,27.0 L-42.729425597670144,28.73751007993951 L-43.53738305631919,31.257701590102073" fill-opacity="0" stroke="black" stroke-width="1" />
<path d="M-42.729425597670144,-28.73751007993951 L-43.53738305631919,-31.257701590102073 L-46.14723583293927,-31.468604209489005" fill-opacity="0" stroke="black" stroke-width="1" />
<path d="M-42.729425597670144,28.73751007993951 L-43.53738305631919,31.257701590102073 L-46.14723583293927,31.468604209489005" fill-opacity="0" stroke="black" stroke-width="1" />
<path d="M-43.53738305631919,-31.257701590102073 L-46.14723583293927,-31.468604209489005 L-49.05409328509707,-34.45423406644083" fill-opacity="0" stroke="black" stroke-width="1" />
<path d="M-43.53738305631919,31.257701590102073 L-46.14723583293927,31.468604209489005 L-49.05409328509707,34.45423406644083" fill-opacity="0" stroke="black" stroke-width="1" />
<path d="M-46.14723583293927,-31.468604209489005 L-49.05409328509707,-34.45423406644083 L-50.0,-49.0" fill-opacity="0" stroke="black" stroke-width="1" />
<path d="M-46.14723583293927,31.468604209489005 L-49.05409328509707,34.45423406644083 L-50.0,49.0" fill-opacity="0" stroke="black" stroke-width="1" />
<path d="M-50.0,50.0 L-49.0,51.0 L-20.0,80.0" fill-opacity="0" stroke="black" stroke-width="1" />
<path d="M-50.0,-50.0 L-49.0,-51.0 L-20.0,-80.0" fill-opacity="0" stroke="black" stroke-width="1" />
<path d="M-49.0,51.0 L-20.0,80.0 L-9.174430926098557,84.19327437612131" fill-opacity="0" stroke="black" stroke-width="1" />
<path d="M-49.0,-51.0 L-20.0,-80.0 L-9.174430926098557,-84.19327437612131" fill-opacity="0" stroke="black" stroke-width="1" />
<path d="M-20.0,-20.0 L-15.806725623878688,-9.174430926098557 L-14.014171261801234,-7.928133391139427" fill-opacity="0" stroke="black" stroke-width="1" />
<path d="M-20.0,20.0 L-15.806725623878688,9.174430926098557 L-14.014171261801234,7.928133391139427" fill-opacity="0" stroke="black" stroke-width="1" />
<path d="M-15.806725623878688,-9.174430926098557 L-14.014171261801234,-7.928133391139427 L-5.681808205384036,-0.8967953359557613" fill-opacity="0" stroke="black" stroke-width="1" />
<path d="M-15.806725623878688,9.174430926098557 L-14.014171261801234,7.928133391139427 L-5.681808205384036,0.8967953359557613" fill-opacity="0" stroke="black" stroke-width="1" />
<path d="M-14.014171261801234,-7.928133391139427 L-5.681808205384036,-0.8967953359557613 L-4.273045976736395,-0.12705850463217497" fill-opacity="0" stroke="black" stroke-width="1" />
<path d="M-14.014171261801234,7.928133391139427 L-5.681808205384036,0.8967953359557613 L-4.273045976736395,0.12705850463217497" fill-opacity="0" stroke="black" stroke-width="1" />
<path d="M-5.681808205384036,-0.8967953359557613 L-4.273045976736395,-0.12705850463217497 L-2.0,-2.0" fill-opacity="0" stroke="black" stroke-width="1" />
<path d="M-5.681808205384036,0.8967953359557613 L-4.273045976736395,0.12705850463217497 L-2.0,2.0" fill-opacity="0" stroke="black" stroke-width="1" />
<path d="M-0.12705850463217497,95.7269540232636 L-2.0,98.0 L-0.019202494916238214,99.95256197467951" fill-opacity="0" stroke="black" stroke-width="1" />
<path d="M-0.12705850463217497,-95.7269540232636 L-2.0,-98.0 L-0.019202494916238214,-99.95256197467953" fill-opacity="0" stroke="black" stroke-width="1" />
<path d="M-2.0,-2.0 L-0.047438025320484245,-0.019202494916238214 L0.0,-0.0" fill-opacity="0" stroke="black" stroke-width="1" />
<path d="M-2.0,2.0 L-0.047438025320484245,0.019202494916238214 L0.0,-0.0" fill-opacity="0" stroke="black" stroke-width="1" />
<path d="M96.0,-0.0 L78.86703885236864,11.087525719933957 L78.26924050935402,11.3604804866182" fill-opacity="0" stroke="black" stroke-width="1" />
<path d="M96.0,-0.0 L78.86703885236864,-11.087525719933957 L78.26924050935402,-11.3604804866182" fill-opacity="0" stroke="black" stroke-width="1" />
<path d="M78.86703885236864,11.087525719933957 L78.26924050935402,11.3604804866182 L75.78507052784488,11.528044098152579" fill-opacity="0" stroke="black" stroke-width="1" />
<path d="M78.86703885236864,-11.087525719933957 L78.26924050935402,-11.3604804866182 L75.78507052784488,-11.528044098152579" fill-opacity="0" stroke="black" stroke-width="1" />
<path d="M78.26924050935402,11.3604804866182 L75.78507052784488,11.528044098152579 L69.0,-0.0" fill-opacity="0" stroke="black" stroke-width="1" />
<path d="M78.26924050935402,-11.3604804866182 L75.78507052784488,-11.528044098152579 L69.0,-0.0" fill-opacity="0" stroke="black" stroke-width="1" />
<path d="M69.0,-0.0 L66.77903060530923,12.386361237158416 L64.69699105728279,12.530906999265573" fill-opacity="0" stroke="black" stroke-width="1" />
<path d="M69.0,-0.0 L66.77903060530923,-12.386361237158416 L64.69699105728279,-12.530906999265573" fill-opacity="0" stroke="black" stroke-width="1" />
<path d="M66.77903060530923,12.386361237158416 L64.69699105728279,12.530906999265573 L53.0,-0.0" fill-opacity="0" stroke="black" stroke-width="1" />
<path d="M66.77903060530923,-12.386361237158416 L64.69699105728279,-12.530906999265573 L53.0,-0.0" fill-opacity="0" stroke="black" stroke-width="1" />
<path d="M50.0,22.0 L58.68408555733879,23.34528112387439 L50.0,27.0" fill-opacity="0" stroke="black" stroke-width="1" />
<path d="M50.0,-22.0 L58.68408555733879,-23.34528112387439 L50.0,-27.0" fill-opacity="0" stroke="black" stroke-width="1" />
<path d="M50.0,27.0 L57.270574402329856,28.73751007993951 L56.46261694368081,31.257701590102073" fill-opacity="0" stroke="black" stroke-width="1" />
<path d="M50.0,-27.0 L57.270574402329856,-28.73751007993951 L56.46261694368081,-31.257701590102073" fill-opacity="0" stroke="black" stroke-width="1" />
<path d="M57.270574402329856,28.73751007993951 L56.46261694368081,31.257701590102073 L53.85276416706073,31.468604209489005" fill-opacity="0" stroke="black" stroke-width="1" />
<path d="M57.270574402329856,-28.73751007993951 L56.46261694368081,-31.257701590102073 L53.85276416706073,-31.468604209489005" fill-opacity="0" stroke="black" stroke-width="1" />
<path d="M56.46261694368081,31.257701590102073 L53.85276416706073,31.468604209489005 L50.94590671490293,34.45423406644083" fill-opacity="0" stroke="black" stroke-width="1" />
<path d="M56.46261694368081,-31.257701590102073 L53.85276416706073,-31.468604209489005 L50.94590671490293,-34.45423406644083" fill-opacity="0" stroke="black" stroke-width="1" />
<path d="M53.85276416706073,31.468604209489005 L50.94590671490293,34.45423406644083 L50.0,49.0" fill-opacity="0" stroke="black" stroke-width="1" />
<path d="M53.85276416706073,-31.468604209489005 L50.94590671490293,-34.45423406644083 L50.0,-49.0" fill-opacity="0" stroke="black" stroke-width="1" />
<path d="M50.0,50.0 L51.0,49.0 L80.0,20.0" fill-opacity="0" stroke="black" stroke-width="1" />
<path d="M50.0,-50.0 L51.0,-49.0 L80.0,-20.0" fill-opacity="0" stroke="black" stroke-width="1" />
<path d="M51.0,49.0 L80.0,20.0 L84.19327437612131,9.174430926098557" fill-opacity="0" stroke="black" stroke-width="1" />
<path d="M51.0,-49.0 L80.0,-20.0 L84.19327437612131,-9.174430926098557" fill-opacity="0" stroke="black" stroke-width="1" />
<path d="M80.0,20.0 L84.19327437612131,9.174430926098557 L85.98582873819876,7.928133391139427" fill-opacity="0" stroke="black" stroke-width="1" />
<path d="M80.0,-20.0 L84.19327437612131,-9.174430926098557 L85.98582873819876,-7.928133391139427" fill-opacity="0" stroke="black" stroke-width="1" />
<path d="M84.19327437612131,9.174430926098557 L85.98582873819876,7.928133391139427 L94.31819179461596,0.8967953359557613" fill-opacity="0" stroke="black" stroke-width="1" />
<path d="M84.19327437612131,-9.174430926098557 L85.98582873819876,-7.928133391139427 L94.31819179461596,-0.8967953359557613" fill-opacity="0" stroke="black" stroke-width="1" />
<path d="M85.98582873819876,7.928133391139427 L94.31819179461596,0.8967953359557613 L95.7269540232636,0.12705850463217497" fill-opacity="0" stroke="black" stroke-width="1" />
<path d="M85.98582873819876,-7.928133391139427 L94.31819179461596,-0.8967953359557613 L95.7269540232636,-0.12705850463217497" fill-opacity="0" stroke="black" stroke-width="1" />
<path d="M94.31819179461596,0.8967953359557613 L95.7269540232636,0.12705850463217497 L98.0,2.0" fill-opacity="0" stroke="black" stroke-width="1" />
<path d="M94.31819179461596,-0.8967953359557613 L95.7269540232636,-0.12705850463217497 L98.0,-2.0" fill-opacity="0" stroke="black" stroke-width="1" />
<path d="M95.7269540232636,0.12705850463217497 L98.0,2.0 L99.95256197467953,0.019202494916238214" fill-opacity="0" stroke="black" stroke-width="1" />
<path d="M95.7269540232636,-0.12705850463217497 L98.0,-2.0 L99.95256197467953,-0.019202494916238214" fill-opacity="0" stroke="black" stroke-width="1" />
<path d="M98.0,2.0 L99.95256197467953,0.019202494916238214 L100.0,-0.0" fill-opacity="0" stroke="black" stroke-width="1" />
<path d="M98.0,-2.0 L99.95256197467953,-0.019202494916238214 L100.0,-0.0" fill-opacity="0" stroke="black" stroke-width="1" />
<path d="M0.0,-4.0 L11.087525719933957,-21.132961147631356 L11.3604804866182,-21.73075949064598" fill-opacity="0" stroke="black" stroke-width="1" />
<path d="M0.0,4.0 L11.087525719933957,21.132961147631356 L11.3604804866182,21.73075949064598" fill-opacity="0" stroke="black" stroke-width="1" />
<path d="M0.0,96.0 L11.087525719933957,78.86703885236864 L11.3604804866182,78.26924050935402" fill-opacity="0" stroke="black" stroke-width="1" />
<path d="M0.0,-96.0 L11.087525719933957,-78.86703885236864 L11.3604804866182,-78.26924050935402" fill-opacity="0" stroke="black" stroke-width="1" />
<path d="M11.087525719933957,-21.132961147631356 L11.3604804866182,-21.73075949064598 L11.528044098152579,-24.214929472155127" fill-opacity="0" stroke="black" stroke-width="1" />
<path d="M11.087525719933957,21.132961147631356 L11.3604804866182,21.73075949064598 L11.528044098152579,24.214929472155127" fill-opacity="0" stroke="black" stroke-width="1" />
<path d="M11.087525719933957,78.86703885236864 L11.3604804866182,78.26924050935402 L11.528044098152579,75.78507052784488" fill-opacity="0" stroke="black" stroke-width="1" />
<path d="M11.087525719933957,-78.86703885236864 L11.3604804866182,-78.26924050935402 L11.528044098152579,-75.78507052784488" fill-opacity="0" stroke="black" stroke-width="1" />
<path d="M11.3604804866182,-21.73075949064598 L11.528044098152579,-24.214929472155127 L0.0,-31.0" fill-opacity="0" stroke="black" stroke-width="1" />
<path d="M11.3604804866182,21.73075949064598 L11.528044098152579,24.214929472155127 L0.0,31.0" fill-opacity="0" stroke="black" stroke-width="1" />
<path d="M11.3604804866182,78.26924050935402 L11.528044098152579,75.78507052784488 L0.0,69.0" fill-opacity="0" stroke="black" stroke-width="1" />
<path d="M11.3604804866182,-78.26924050935402 L11.528044098152579,-75.78507052784488 L0.0,-69.0" fill-opacity="0" stroke="black" stroke-width="1" />
<path d="M0.0,-31.0 L12.386361237158416,-33.22096939469076 L12.530906999265573,-35.30300894271722" fill-opacity="0" stroke="black" stroke-width="1" />
<path d="M0.0,31.0 L12.386361237158416,33.22096939469076 L12.530906999265573,35.30300894271722" fill-opacity="0" stroke="black" stroke-width="1" />
<path d="M0.0,69.0 L12.386361237158416,66.77903060530923 L12.530906999265573,64.69699105728279" fill-opacity="0" stroke="black" stroke-width="1" />
<path d="M0.0,-69.0 L12.386361237158416,-66.77903060530923 L12.530906999265573,-64.69699105728279" fill-opacity="0" stroke="black" stroke-width="1" />
<path d="M12.386361237158416,-33.22096939469076 L12.530906999265573,-35.30300894271722 L0.0,-47.0" fill-opacity="0" stroke="black" stroke-width="1" />
<path d="M12.386361237158416,33.22096939469076 L12.530906999265573,35.30300894271722 L0.0,47.0" fill-opacity="0" stroke="black" stroke-width="1" />
<path d="M12.386361237158416,66.77903060530923 L12.530906999265573,64.69699105728279 L0.0,53.0" fill-opacity="0" stroke="black" stroke-width="1" />
<path d="M12.386361237158416,-66.77903060530923 L12.530906999265573,-64.69699105728279 L0.0,-53.0" fill-opacity="0" stroke="black" stroke-width="1" />
<path d="M22.0,-50.0 L23.34528112387439,-41.31591444266121 L27.0,-50.0" fill-opacity="0" stroke="black" stroke-width="1" />
<path d="M22.0,50.0 L23.34528112387439,41.31591444266121 L27.0,50.0" fill-opacity="0" stroke="black" stroke-width="1" />
<path d="M22.0,50.0 L23.34528112387439,58.68408555733879 L27.0,50.0" fill-opacity="0" stroke="black" stroke-width="1" />
<path d="M22.0,-50.0 L23.34528112387439,-58.68408555733879 L27.0,-50.0" fill-opacity="0" stroke="black" stroke-width="1" />
<path d="M27.0,-50.0 L28.73751007993951,-42.729425597670144 L31.257701590102073,-43.53738305631919" fill-opacity="0" stroke="black" stroke-width="1" />
<path d="M27.0,50.0 L28.73751007993951,42.729425597670144 L31.257701590102073,43.53738305631919" fill-opacity="0" stroke="black" stroke-width="1" />
<path d="M27.0,50.0 L28.73751007993951,57.270574402329856 L31.257701590102073,56.46261694368081" fill-opacity="0" stroke="black" stroke-width="1" />
<path d="M27.0,-50.0 L28.73751007993951,-57.270574402329856 L31.257701590102073,-56.46261694368081" fill-opacity="0" stroke="black" stroke-width="1" />
<path d="M28.73751007993951,-42.729425597670144 L31.257701590102073,-43.53738305631919 L31.468604209489005,-46.14723583293927" fill-opacity="0" stroke="black" stroke-width="1" />
<path d="M28.73751007993951,42.729425597670144 L31.257701590102073,43.53738305631919 L31.468604209489005,46.14723583293927" fill-opacity="0" stroke="black" stroke-width="1" />
<path d="M28.73751007993951,57.270574402329856 L31.257701590102073,56.46261694368081 L31.468604209489005,53.85276416706073" fill-opacity="0" stroke="black" stroke-width="1" />
<path d="M28.73751007993951,-57.270574402329856 L31.257701590102073,-56.46261694368081 L31.468604209489005,-53.85276416706073" fill-opacity="0" stroke="black" stroke-width="1" />
<path d="M31.257701590102073,-43.53738305631919 L31.468604209489005,-46.14723583293927 L34.45423406644083,-49.05409328509707" fill-opacity="0" stroke="black" stroke-width="1" />
<path d="M31.257701590102073,43.53738305631919 L31.468604209489005,46.14723583293927 L34.45423406644083,49.05409328509707" fill-opacity="0" stroke="black" stroke-width="1" />
<path d="M31.257701590102073,56.46261694368081 L31.468604209489005,53.85276416706073 L34.45423406644083,50.94590671490293" fill-opacity="0" stroke="black" stroke-width="1" />
<path d="M31.257701590102073,-56.46261694368081 L31.468604209489005,-53.85276416706073 L34.45423406644083,-50.94590671490293" fill-opacity="0" stroke="black" stroke-width="1" />
<path d="M31.468604209489005,-46.14723583293927 L34.45423406644083,-49.05409328509707 L49.0,-50.0" fill-opacity="0" stroke="black" stroke-width="1" />
<path d="M31.468604209489005,46.14723583293927 L34.45423406644083,49.05409328509707 L49.0,50.0" fill-opacity="0" stroke="black" stroke-width="1" />
<path d="M31.468604209489005,53.85276416706073 L34.45423406644083,50.94590671490293 L49.0,50.0" fill-opacity="0" stroke="black" stroke-width="1" />
<path d="M31.468604209489005,-53.85276416706073 L34.45423406644083,-50.94590671490293 L49.0,-50.0" fill-opacity="0" stroke="black" stroke-width="1" />
<path d="M20.0,-20.0 L9.174430926098557,-15.806725623878688 L7.928133391139427,-14.014171261801234" fill-opacity="0" stroke="black" stroke-width="1" />
<path d="M20.0,20.0 L9.174430926098557,15.806725623878688 L7.928133391139427,14.014171261801234" fill-opacity="0" stroke="black" stroke-width="1" />
<path d="M20.0,80.0 L9.174430926098557,84.19327437612131 L7.928133391139427,85.98582873819876" fill-opacity="0" stroke="black" stroke-width="1" />
<path d="M20.0,-80.0 L9.174430926098557,-84.19327437612131 L7.928133391139427,-85.98582873819876" fill-opacity="0" stroke="black" stroke-width="1" />
<path d="M9.174430926098557,-15.806725623878688 L7.928133391139427,-14.014171261801234 L0.8967953359557613,-5.681808205384036" fill-opacity="0" stroke="black" stroke-width="1" />
<path d="M9.174430926098557,15.806725623878688 L7.928133391139427,14.014171261801234 L0.8967953359557613,5.681808205384036" fill-opacity="0" stroke="black" stroke-width="1" />
<path d="M9.174430926098557,84.19327437612131 L7.928133391139427,85.98582873819876 L0.8967953359557613,94.31819179461596" fill-opacity="0" stroke="black" stroke-width="1" />
<path d="M9.174430926098557,-84.19327437612131 L7.928133391139427,-85.98582873819876 L0.8967953359557613,-94.31819179461596" fill-opacity="0" stroke="black" stroke-width="1" />
<path d="M7.928133391139427,-14.014171261801234 L0.8967953359557613,-5.681808205384036 L0.12705850463217497,-4.273045976736395" fill-opacity="0" stroke="black" stroke-width="1" />
<path d="M7.928133391139427,14.014171261801234 L0.8967953359557613,5.681808205384036 L0.12705850463217497,4.273045976736395" fill-opacity="0" stroke="black" stroke-width="1" />
<path d="M7.928133391139427,85.98582873819876 L0.8967953359557613,94.31819179461596 L0.12705850463217497,95.7269540232636" fill-opacity="0" stroke="black" stroke-width="1" />
<path d="M7.928133391139427,-85.98582873819876 L0.8967953359557613,-94.31819179461596 L0.12705850463217497,-95.7269540232636" fill-opacity="0" stroke="black" stroke-width="1" />
<path d="M0.8967953359557613,-5.681808205384036 L0.12705850463217497,-4.273045976736395 L2.0,-2.0" fill-opacity="0" stroke="black" stroke-width="1" />
<path d="M0.8967953359557613,5.681808205384036 L0.12705850463217497,4.273045976736395 L2.0,2.0" fill-opacity="0" stroke="black" stroke-width="1" />
<path d="M0.8967953359557613,94.31819179461596 L0.12705850463217497,95.7269540232636 L2.0,98.0" fill-opacity="0" stroke="black" stroke-width="1" />
<path d="M0.8967953359557613,-94.31819179461596 L0.12705850463217497,-95.7269540232636 L2.0,-98.0" fill-opacity="0" stroke="black" stroke-width="1" />
<path d="M2.0,-2.0 L0.019202494916238214,-0.047438025320484245 L0.0,-0.0" fill-opacity="0" stroke="black" stroke-width="1" />
<path d="M2.0,2.0 L0.019202494916238214,0.047438025320484245 L0.0,-0.0" fill-opacity="0" stroke="black" stroke-width="1" />
<path d="M2.0,98.0 L0.019202494916238214,99.95256197467953 L0.0,100.0" fill-opacity="0" stroke="black" stroke-width="1" />
<path d="M2.0,-98.0 L0.019202494916238214,-99.95256197467953 L0.0,-100.0" fill-opacity="0" stroke="black" stroke-width="1" />
<path d="M0.0,96.0 L-11.087525719933957,78.86703885236864 L-11.3604804866182,78.26924050935402" fill-opacity="0" stroke="black" stroke-width="1" />
<path d="M0.0,-4.0 L-11.087525719933957,-21.132961147631356 L-11.3604804866182,-21.73075949064598" fill-opacity="0" stroke="black" stroke-width="1" />
<path d="M0.0,4.0 L-11.087525719933957,21.132961147631363 L-11.3604804866182,21.73075949064598" fill-opacity="0" stroke="black" stroke-width="1" />
<path d="M0.0,-96.0 L-11.087525719933957,-78.86703885236864 L-11.3604804866182,-78.26924050935402" fill-opacity="0" stroke="black" stroke-width="1" />
<path d="M-11.087525719933957,78.86703885236864 L-11.3604804866182,78.26924050935402 L-11.528044098152579,75.78507052784488" fill-opacity="0" stroke="black" stroke-width="1" />
<path d="M-11.087525719933957,-21.132961147631356 L-11.3604804866182,-21.73075949064598 L-11.528044098152579,-24.214929472155127" fill-opacity="0" stroke="black" stroke-width="1" />
<path d="M-11.087525719933957,21.132961147631363 L-11.3604804866182,21.73075949064598 L-11.528044098152579,24.21492947215512" fill-opacity="0" stroke="black" stroke-width="1" />
<path d="M-11.087525719933957,-78.86703885236864 L-11.3604804866182,-78.26924050935402 L-11.528044098152579,-75.78507052784488" fill-opacity="0" stroke="black" stroke-width="1" />
<path d="M-11.3604804866182,78.26924050935402 L-11.528044098152579,75.78507052784488 L0.0,69.0" fill-opacity="0" stroke="black" stroke-width="1" />
<path d="M-11.3604804866182,-21.73075949064598 L-11.528044098152579,-24.214929472155127 L0.0,-31.0" fill-opacity="0" stroke="black" stroke-width="1" />
<path d="M-11.3604804866182,21.73075949064598 L-11.528044098152579,24.21492947215512 L0.0,31.0" fill-opacity="0" stroke="black" stroke-width="1" />
<path d="M-11.3604804866182,-78.26924050935402 L-11.528044098152579,-75.78507052784488 L0.0,-69.0" fill-opacity="0" stroke="black" stroke-width="1" />
<path d="M0.0,69.0 L-12.386361237158416,66.77903060530923 L-12.530906999265573,64.69699105728279" fill-opacity="0" stroke="black" stroke-width="1" />
<path d="M0.0,-31.0 L-12.386361237158416,-33.22096939469076 L-12.530906999265573,-35.30300894271722" fill-opacity="0" stroke="black" stroke-width="1" />
<path d="M0.0,31.0 L-12.386361237158416,33.22096939469077 L-12.530906999265573,35.30300894271721" fill-opacity="0" stroke="black" stroke-width="1" />
<path d="M0.0,-69.0 L-12.386361237158416,-66.77903060530923 L-12.530906999265573,-64.69699105728279" fill-opacity="0" stroke="black" stroke-width="1" />
<path d="M-12.386361237158416,66.77903060530923 L-12.530906999265573,64.69699105728279 L0.0,53.0" fill-opacity="0" stroke="black" stroke-width="1" />
<path d="M-12.386361237158416,-33.22096939469076 L-12.530906999265573,-35.30300894271722 L0.0,-47.0" fill-opacity="0" stroke="black" stroke-width="1" />
<path d="M-12.386361237158416,33.22096939469077 L-12.530906999265573,35.30300894271721 L0.0,47.0" fill-opacity="0" stroke="black" stroke-width="1" />
<path d="M-12.386361237158416,-66.77903060530923 L-12.530906999265573,-64.69699105728279 L0.0,-53.0" fill-opacity="0" stroke="black" stroke-width="1" />
<path d="M-22.0,50.0 L-23.34528112387439,58.68408555733879 L-27.0,50.0" fill-opacity="0" stroke="black" stroke-width="1" />
<path d="M-22.0,-50.0 L-23.34528112387439,-41.31591444266121 L-27.0,-50.0" fill-opacity="0" stroke="black" stroke-width="1" />
<path d="M-22.0,50.0 L-23.34528112387439,41.31591444266121 L-27.0,50.0" fill-opacity="0" stroke="black" stroke-width="1" />
<path d="M-22.0,-50.0 L-23.34528112387439,-58.68408555733879 L-27.0,-50.0" fill-opacity="0" stroke="black" stroke-width="1" />
<path d="M-27.0,50.0 L-28.73751007993951,57.270574402329856 L-31.257701590102073,56.46261694368081" fill-opacity="0" stroke="black" stroke-width="1" />
<path d="M-27.0,-50.0 L-28.73751007993951,-42.729425597670144 L-31.257701590102073,-43.53738305631919" fill-opacity="0" stroke="black" stroke-width="1" />
<path d="M-27.0,50.0 L-28.73751007993951,42.729425597670144 L-31.257701590102073,43.53738305631919" fill-opacity="0" stroke="black" stroke-width="1" />
<path d="M-27.0,-50.0 L-28.73751007993951,-57.270574402329856 L-31.257701590102073,-56.46261694368081" fill-opacity="0" stroke="black" stroke-width="1" />
<path d="M-28.73751007993951,57.270574402329856 L-31.257701590102073,56.46261694368081 L-31.468604209489005,53.85276416706073" fill-opacity="0" stroke="black" stroke-width="1" />
<path d="M-28.73751007993951,-42.729425597670144 L-31.257701590102073,-43.53738305631919 L-31.468604209489005,-46.14723583293927" fill-opacity="0" stroke="black" stroke-width="1" />
<path d="M-28.73751007993951,42.729425597670144 L-31.257701590102073,43.53738305631919 L-31.468604209489005,46.14723583293927" fill-opacity="0" stroke="black" stroke-width="1" />
<path d="M-28.73751007993951,-57.270574402329856 L-31.257701590102073,-56.46261694368081 L-31.468604209489005,-53.85276416706073" fill-opacity="0" stroke="black" stroke-width="1" />
<path d="M-31.257701590102073,56.46261694368081 L-31.468604209489005,53.85276416706073 L-34.45423406644083,50.94590671490293" fill-opacity="0" stroke="black" stroke-width="1" />
<path d="M-31.257701590102073,-43.53738305631919 L-31.468604209489005,-46.14723583293927 L-34.45423406644083,-49.05409328509707" fill-opacity="0" stroke="black" stroke-width="1" />
<path d="M-31.257701590102073,43.53738305631919 L-31.468604209489005,46.14723583293927 L-34.45423406644083,49.05409328509707" fill-opacity="0" stroke="black" stroke-width="1" />
<path d="M-31.257701590102073,-56.46261694368081 L-31.468604209489005,-53.85276416706073 L-34.45423406644083,-50.94590671490293" fill-opacity="0" stroke="black" stroke-width="1" />
<path d="M-31.468604209489005,53.85276416706073 L-34.45423406644083,50.94590671490293 L-49.0,50.0" fill-opacity="0" stroke="black" stroke-width="1" />
<path d="M-31.468604209489005,-46.14723583293927 L-34.45423406644083,-49.05409328509707 L-49.0,-50.0" fill-opacity="0" stroke="black" stroke-width="1" />
<path d="M-31.468604209489005,46.14723583293927 L-34.45423406644083,49.05409328509707 L-49.0,50.0" fill-opacity="0" stroke="black" stroke-width="1" />
<path d="M-31.468604209489005,-53.85276416706073 L-34.45423406644083,-50.94590671490293 L-49.0,-50.0" fill-opacity="0" stroke="black" stroke-width="1" />
<path d="M-20.0,80.0 L-9.174430926098557,84.19327437612131 L-7.928133391139427,85.98582873819876" fill-opacity="0" stroke="black" stroke-width="1" />
<path d="M-20.0,-20.0 L-9.174430926098557,-15.806725623878688 L-7.928133391139427,-14.014171261801234" fill-opacity="0" stroke="black" stroke-width="1" />
<path d="M-20.0,20.0 L-9.174430926098557,15.806725623878691 L-7.928133391139427,14.014171261801238" fill-opacity="0" stroke="black" stroke-width="1" />
<path d="M-20.0,-80.0 L-9.174430926098557,-84.19327437612131 L-7.928133391139427,-85.98582873819876" fill-opacity="0" stroke="black" stroke-width="1" />
<path d="M-9.174430926098557,84.19327437612131 L-7.928133391139427,85.98582873819876 L-0.8967953359557613,94.31819179461597" fill-opacity="0" stroke="black" stroke-width="1" />
<path d="M-9.174430926098557,-15.806725623878688 L-7.928133391139427,-14.014171261801234 L-0.8967953359557613,-5.681808205384036" fill-opacity="0" stroke="black" stroke-width="1" />
<path d="M-9.174430926098557,15.806725623878691 L-7.928133391139427,14.014171261801238 L-0.8967953359557613,5.68180820538403" fill-opacity="0" stroke="black" stroke-width="1" />
<path d="M-9.174430926098557,-84.19327437612131 L-7.928133391139427,-85.98582873819876 L-0.8967953359557613,-94.31819179461596" fill-opacity="0" stroke="black" stroke-width="1" />
<path d="M-7.928133391139427,85.98582873819876 L-0.8967953359557613,94.31819179461597 L-0.12705850463217497,95.7269540232636" fill-opacity="0" stroke="black" stroke-width="1" />
<path d="M-7.928133391139427,-14.014171261801234 L-0.8967953359557613,-5.681808205384036 L-0.12705850463217497,-4.273045976736395" fill-opacity="0" stroke="black" stroke-width="1" />
<path d="M-7.928133391139427,14.014171261801238 L-0.8967953359557613,5.68180820538403 L-0.12705850463217497,4.273045976736398" fill-opacity="0" stroke="black" stroke-width="1" />
<path d="M-7.928133391139427,-85.98582873819876 L-0.8967953359557613,-94.31819179461596 L-0.12705850463217497,-95.7269540232636" fill-opacity="0" stroke="black" stroke-width="1" />
<path d="M-0.8967953359557613,94.31819179461597 L-0.12705850463217497,95.7269540232636 L-2.0,98.0" fill-opacity="0" stroke="black" stroke-width="1" />
<path d="M-0.8967953359557613,-5.681808205384036 L-0.12705850463217497,-4.273045976736395 L-2.0,-2.0" fill-opacity="0" stroke="black" stroke-width="1" />
<path d="M-0.8967953359557613,5.68180820538403 L-0.12705850463217497,4.273045976736398 L-2.0,2.0" fill-opacity="0" stroke="black" stroke-width="1" />
<path d="M-0.8967953359557613,-94.31819179461596 L-0.12705850463217497,-95.7269540232636 L-2.0,-98.0" fill-opacity="0" stroke="black" stroke-width="1" />
<path d="M-2.0,98.0 L-0.019202494916238214,99.95256197467951 L0.0,100.0" fill-opacity="0" stroke="black" stroke-width="1" />
<path d="M-2.0,-2.0 L-0.019202494916238214,-0.047438025320484245 L0.0,-0.0" fill-opacity="0" stroke="black" stroke-width="1" />
<path d="M-2.0,2.0 L-0.019202494916238214,0.047438025320488464 L0.0,-0.0" fill-opacity="0" stroke="black" stroke-width="1" />
<path d="M-2.0,-98.0 L-0.019202494916238214,-99.95256197467953 L0.0,-100.0" fill-opacity="0" stroke="black" stroke-width="1" />
<path d="M-96.0,-0.0 L-78.86703885236864,-11.087525719933957 L-78.26924050935402,-11.3604804866182" fill-opacity="0" stroke="black" stroke-width="1" />
<path d="M-96.0,-0.0 L-78.86703885236864,11.087525719933957 L-78.26924050935402,11.3604804866182" fill-opacity="0" stroke="black" stroke-width="1" />
<path d="M-78.86703885236864,-11.087525719933957 L-78.26924050935402,-11.3604804866182 L-75.78507052784488,-11.528044098152579" fill-opacity="0" stroke="black" stroke-width="1" />
<path d="M-78.86703885236864,11.087525719933957 L-78.26924050935402,11.3604804866182 L-75.78507052784488,11.528044098152579" fill-opacity="0" stroke="black" stroke-width="1" />
<path d="M-78.26924050935402,-11.3604804866182 L-75.78507052784488,-11.528044098152579 L-69.0,-0.0" fill-opacity="0" stroke="black" stroke-width="1" />
<path d="M-78.26924050935402,11.3604804866182 L-75.78507052784488,11.528044098152579 L-69.0,-0.0" fill-opacity="0" stroke="black" stroke-width="1" />
<path d="M-69.0,-0.0 L-66.77903060530923,-12.386361237158416 L-64.69699105728279,-12.530906999265573" fill-opacity="0" stroke="black" stroke-width="1" />
<path d="M-69.0,-0.0 L-66.77903060530923,12.386361237158416 L-64.69699105728279,12.530906999265573" fill-opacity="0" stroke="black" stroke-width="1" />
<path d="M-66.77903060530923,-12.386361237158416 L-64.69699105728279,-12.530906999265573 L-53.0,-0.0" fill-opacity="0" stroke="black" stroke-width="1" />
<path d="M-66.77903060530923,12.386361237158416 L-64.69699105728279,12.530906999265573 L-53.0,-0.0" fill-opacity="0" stroke="black" stroke-width="1" />
<path d="M-50.0,-22.0 L-58.68408555733879,-23.34528112387439 L-50.0,-27.0" fill-opacity="0" stroke="black" stroke-width="1" />
<path d="M-50.0,22.0 L-58.68408555733879,23.34528112387439 L-50.0,27.0" fill-opacity="0" stroke="black" stroke-width="1" />
<path d="M-50.0,-27.0 L-57.270574402329856,-28.73751007993951 L-56.46261694368081,-31.257701590102073" fill-opacity="0" stroke="black" stroke-width="1" />
<path d="M-50.0,27.0 L-57.270574402329856,28.73751007993951 L-56.46261694368081,31.257701590102073" fill-opacity="0" stroke="black" stroke-width="1" />
<path d="M-57.270574402329856,-28.73751007993951 L-56.46261694368081,-31.257701590102073 L-53.85276416706073,-31.468604209489005" fill-opacity="0" stroke="black" stroke-width="1" />
<path d="M-57.270574402329856,28.73751007993951 L-56.46261694368081,31.257701590102073 L-53.85276416706073,31.468604209489005" fill-opacity="0" stroke="black" stroke-width="1" />
<path d="M-56.46261694368081,-31.257701590102073 L-53.85276416706073,-31.468604209489005 L-50.94590671490293,-34.45423406644083" fill-opacity="0" stroke="black" stroke-width="1" />
<path d="M-56.46261694368081,31.257701590102073 L-53.85276416706073,31.468604209489005 L-50.94590671490293,34.45423406644083" fill-opacity="0" stroke="black" stroke-width="1" />
<path d="M-53.85276416706073,-31.468604209489005 L-50.94590671490293,-34.45423406644083 L-50.0,-49.0" fill-opacity="0" stroke="black" stroke-width="1" />
<path d="M-53.85276416706073,31.468604209489005 L-50.94590671490293,34.45423406644083 L-50.0,49.0" fill-opacity="0" stroke="black" stroke-width="1" />
<path d="M-50.0,-50.0 L-51.0,-49.0 L-80.0,-20.0" fill-opacity="0" stroke="black" stroke-width="1" />
<path d="M-50.0,50.0 L-51.0,49.0 L-80.0,20.0" fill-opacity="0" stroke="black" stroke-width="1" />
<path d="M-51.0,-49.0 L-80.0,-20.0 L-84.19327437612131,-9.174430926098557" fill-opacity="0" stroke="black" stroke-width="1" />
<path d="M-51.0,49.0 L-80.0,20.0 L-84.19327437612131,9.174430926098557" fill-opacity="0" stroke="black" stroke-width="1" />
<path d="M-80.0,-20.0 L-84.19327437612131,-9.174430926098557 L-85.98582873819876,-7.928133391139427" fill-opacity="0" stroke="black" stroke-width="1" />
<path d="M-80.0,20.0 L-84.19327437612131,9.174430926098557 L-85.98582873819876,7.928133391139427" fill-opacity="0" stroke="black" stroke-width="1" />
<path d="M-84.19327437612131,-9.174430926098557 L-85.98582873819876,-7.928133391139427 L-94.31819179461596,-0.8967953359557613" fill-opacity="0" stroke="black" stroke-width="1" />
<path d="M-84.19327437612131,9.174430926098557 L-85.98582873819876,7.928133391139427 L-94.31819179461596,0.8967953359557613" fill-opacity="0" stroke="black" stroke-width="1" />
<path d="M-85.98582873819876,-7.928133391139427 L-94.31819179461596,-0.8967953359557613 L-95.7269540232636,-0.12705850463217497" fill-opacity="0" stroke="black" stroke-width="1" />
<path d="M-85.98582873819876,7.928133391139427 L-94.31819179461596,0.8967953359557613 L-95.7269540232636,0.12705850463217497" fill-opacity="0" stroke="black" stroke-width="1" />
<path d="M-94.31819179461596,-0.8967953359557613 L-95.7269540232636,-0.12705850463217497 L-98.0,-2.0" fill-opacity="0" stroke="black" stroke-width="1" />
<path d="M-94.31819179461596,0.8967953359557613 L-95.7269540232636,0.12705850463217497 L-98.0,2.0" fill-opacity="0" stroke="black" stroke-width="1" />
<path d="M-95.7269540232636,-0.12705850463217497 L-98.0,-2.0 L-99.95256197467953,-0.019202494916238214" fill-opacity="0" stroke="black" stroke-width="1" />
<path d="M-95.7269540232636,0.12705850463217497 L-98.0,2.0 L-99.95256197467953,0.019202494916238214" fill-opacity="0" stroke="black" stroke-width="1" />
<path d="M-98.0,-2.0 L-99.95256197467953,-0.019202494916238214 L-100.0,-0.0" fill-opacity="0" stroke="black" stroke-width="1" />
<path d="M-98.0,2.0 L-99.95256197467953,0.019202494916238214 L-100.0,-0.0" fill-opacity="0" stroke="black" stroke-width="1" />
</svg>