<?xml version="1.0" encoding="UTF-8"?>
<svg xmlns="http://www.w3.org/2000/svg" xmlns:xlink="http://www.w3.org/1999/xlink"
     width="250" height="250" viewBox="-125.0 -125.0 250 250">
<defs>
</defs>
<path d="M0.6152403519005157,98.72353923728974 L1.0,99.0 L0.0,100.0" fill-opacity="0" stroke="black" stroke-width="1" />
<path d="M0.6152403519005157,-98.72353923728974 L1.0,-99.0 L0.0,-100.0" fill-opacity="0" stroke="black" stroke-width="1" />
<path d="M16.0,-0.0 L16.01984644571764,-2.3160643761058806 L17.0,-0.0" fill-opacity="0" stroke="black" stroke-width="1" />
<path d="M16.0,-0.0 L16.01984644571764,2.3160643761058806 L17.0,-0.0" fill-opacity="0" stroke="black" stroke-width="1" />
<path d="M17.0,-0.0 L19.184115269509867,-4.71674789315133 L21.361235719691543,-5.1977251832321105" fill-opacity="0" stroke="black" stroke-width="1" />
<path d="M17.0,-0.0 L19.184115269509867,4.71674789315133 L21.361235719691543,5.1977251832321105" fill-opacity="0" stroke="black" stroke-width="1" />
<path d="M19.184115269509867,-4.71674789315133 L21.361235719691543,-5.1977251832321105 L23.24415781078096,-8.569470287397445" fill-opacity="0" stroke="black" stroke-width="1" />
<path d="M19.184115269509867,4.71674789315133 L21.361235719691543,5.1977251832321105 L23.24415781078096,8.569470287397445" fill-opacity="0" stroke="black" stroke-width="1" />
<path d="M21.361235719691543,-5.1977251832321105 L23.24415781078096,-8.569470287397445 L23.989271970371618,-9.451869106906072" fill-opacity="0" stroke="black" stroke-width="1" />
<path d="M21.361235719691543,5.1977251832321105 L23.24415781078096,8.569470287397445 L23.989271970371618,9.451869106906072" fill-opacity="0" stroke="black" stroke-width="1" />
<path d="M23.24415781078096,-8.569470287397445 L23.989271970371618,-9.451869106906072 L24.0,-0.0" fill-opacity="0" stroke="black" stroke-width="1" />
<path d="M23.24415781078096,8.569470287397445 L23.989271970371618,9.451869106906072 L24.0,-0.0" fill-opacity="0" stroke="black" stroke-width="1" />
<path d="M24.0,-0.0 L25.830205343949523,-11.32965071762166 L26.07617128963208,-14.688327963628506" fill-opacity="0" stroke="black" stroke-width="1" />
<path d="M24.0,-0.0 L25.830205343949523,11.32965071762166 L26.07617128963208,14.688327963628506" fill-opacity="0" stroke="black" stroke-width="1" />
<path d="M25.830205343949523,-11.32965071762166 L26.07617128963208,-14.688327963628506 L32.3060834890185,-15.571320272220774" fill-opacity="0" stroke="black" stroke-width="1" />
<path d="M25.830205343949523,11.32965071762166 L26.07617128963208,14.688327963628506 L32.3060834890185,15.571320272220774" fill-opacity="0" stroke="black" stroke-width="1" />
<path d="M26.07617128963208,-14.688327963628506 L32.3060834890185,-15.571320272220774 L33.0,-0.0" fill-opacity="0" stroke="black" stroke-width="1" />
<path d="M26.07617128963208,14.688327963628506 L32.3060834890185,15.571320272220774 L33.0,-0.0" fill-opacity="0" stroke="black" stroke-width="1" />
<path d="M50.0,-2.0 L33.40138610952014,-19.00593514557436 L43.00960696711199,-25.70166489195386" fill-opacity="0" stroke="black" stroke-width="1" />
<path d="M50.0,2.0 L33.40138610952014,19.00593514557436 L43.00960696711199,25.70166489195386" fill-opacity="0" stroke="black" stroke-width="1" />
<path d="M33.40138610952014,-19.00593514557436 L43.00960696711199,-25.70166489195386 L50.0,-28.0" fill-opacity="0" stroke="black" stroke-width="1" />
<path d="M33.40138610952014,19.00593514557436 L43.00960696711199,25.70166489195386 L50.0,28.0" fill-opacity="0" stroke="black" stroke-width="1" />
<path d="M45.0,50.0 L46.0,54.0 L42.768195674941865,54.746172709241975" fill-opacity="0" stroke="black" stroke-width="1" />
<path d="M45.0,-50.0 L46.0,-54.0 L42.768195674941865,-54.746172709241975" fill-opacity="0" stroke="black" stroke-width="1" />
<path d="M46.0,-46.0 L45.253827290758025,-42.768195674941865 L31.0,-31.0" fill-opacity="0" stroke="black" stroke-width="1" />
<path d="M46.0,46.0 L45.253827290758025,42.768195674941865 L31.0,31.0" fill-opacity="0" stroke="black" stroke-width="1" />
<path d="M42.768195674941865,54.746172709241975 L31.0,69.0 L28.0,72.0" fill-opacity="0" stroke="black" stroke-width="1" />
<path d="M42.768195674941865,-54.746172709241975 L31.0,-69.0 L28.0,-72.0" fill-opacity="0" stroke="black" stroke-width="1" />
<path d="M31.0,69.0 L28.0,72.0 L7.0,93.0" fill-opacity="0" stroke="black" stroke-width="1" />
<path d="M31.0,-69.0 L28.0,-72.0 L7.0,-93.0" fill-opacity="0" stroke="black" stroke-width="1" />
<path d="M28.0,72.0 L7.0,93.0 L6.0,94.0" fill-opacity="0" stroke="black" stroke-width="1" />
<path d="M28.0,-72.0 L7.0,-93.0 L6.0,-94.0" fill-opacity="0" stroke="black" stroke-width="1" />
<path d="M7.0,93.0 L6.0,94.0 L5.0,95.0" fill-opacity="0" stroke="black" stroke-width="1" />
<path d="M7.0,-93.0 L6.0,-94.0 L5.0,-95.0" fill-opacity="0" stroke="black" stroke-width="1" />
<path d="M6.0,94.0 L5.0,95.0 L0.6152403519005157,98.72353923728974" fill-opacity="0" stroke="black" stroke-width="1" />
<path d="M6.0,-94.0 L5.0,-95.0 L0.6152403519005157,-98.72353923728974" fill-opacity="0" stroke="black" stroke-width="1" />
<path d="M5.0,-5.0 L1.2764607627102575,-0.6152403519005157 L1.0,-1.0" fill-opacity="0" stroke="black" stroke-width="1" />
<path d="M5.0,5.0 L1.2764607627102575,0.6152403519005157 L1.0,1.0" fill-opacity="0" stroke="black" stroke-width="1" />
<path d="M-0.6152403519005157,98.72353923728974 L-1.0,99.0 L0.0,100.0" fill-opacity="0" stroke="black" stroke-width="1" />
<path d="M-0.6152403519005157,-98.72353923728974 L-1.0,-99.0 L0.0,-100.0" fill-opacity="0" stroke="black" stroke-width="1" />
<path d="M-16.0,-0.0 L-16.01984644571764,-2.3160643761058806 L-17.0,-0.0" fill-opacity="0" stroke="black" stroke-width="1" />
<path d="M-16.0,-0.0 L-16.01984644571764,2.3160643761058806 L-17.0,-0.0" fill-opacity="0" stroke="black" stroke-width="1" />
<path d="M-17.0,-0.0 L-19.184115269509867,-4.71674789315133 L-21.361235719691543,-5.1977251832321105" fill-opacity="0" stroke="black" stroke-width="1" />
<path d="M-17.0,-0.0 L-19.184115269509867,4.71674789315133 L-21.361235719691543,5.1977251832321105" fill-opacity="0" stroke="black" stroke-width="1" />
<path d="M-19.184115269509867,-4.71674789315133 L-21.361235719691543,-5.1977251832321105 L-23.24415781078096,-8.569470287397445" fill-opacity="0" stroke="black" stroke-width="1" />
<path d="M-19.184115269509867,4.71674789315133 L-21.361235719691543,5.1977251832321105 L-23.24415781078096,8.569470287397445" fill-opacity="0" stroke="black" stroke-width="1" />
<path d="M-21.361235719691543,-5.1977251832321105 L-23.24415781078096,-8.569470287397445 L-23.989271970371618,-9.451869106906072" fill-opacity="0" stroke="black" stroke-width="1" />
<path d="M-21.361235719691543,5.1977251832321105 L-23.24415781078096,8.569470287397445 L-23.989271970371618,9.451869106906072" fill-opacity="0" stroke="black" stroke-width="1" />
<path d="M-23.24415781078096,-8.569470287397445 L-23.989271970371618,-9.451869106906072 L-24.0,-0.0" fill-opacity="0" stroke="black" stroke-width="1" />
<path d="M-23.24415781078096,8.569470287397445 L-23.989271970371618,9.451869106906072 L-24.0,-0.0" fill-opacity="0" stroke="black" stroke-width="1" />
<path d="M-24.0,-0.0 L-25.830205343949523,-11.32965071762166 L-26.07617128963208,-14.688327963628506" fill-opacity="0" stroke="black" stroke-width="1" />
<path d="M-24.0,-0.0 L-25.830205343949523,11.32965071762166 L-26.07617128963208,14.688327963628506" fill-opacity="0" stroke="black" stroke-width="1" />
<path d="M-25.830205343949523,-11.32965071762166 L-26.07617128963208,-14.688327963628506 L-32.3060834890185,-15.571320272220774" fill-opacity="0" stroke="black" stroke-width="1" />
<path d="M-25.830205343949523,11.32965071762166 L-26.07617128963208,14.688327963628506 L-32.3060834890185,15.571320272220774" fill-opacity="0" stroke="black" stroke-width="1" />
<path d="M-26.07617128963208,-14.688327963628506 L-32.3060834890185,-15.571320272220774 L-33.0,-0.0" fill-opacity="0" stroke="black" stroke-width="1" />
<path d="M-26.07617128963208,14.688327963628506 L-32.3060834890185,15.571320272220774 L-33.0,-0.0" fill-opacity="0" stroke="black" stroke-width="1" />
<path d="M-50.0,-2.0 L-33.40138610952014,-19.00593514557436 L-43.00960696711199,-25.70166489195386" fill-opacity="0" stroke="black" stroke-width="1" />
<path d="M-50.0,2.0 L-33.40138610952014,19.00593514557436 L-43.00960696711199,25.70166489195386" fill-opacity="0" stroke="black" stroke-width="1" />
<path d="M-33.40138610952014,-19.00593514557436 L-43.00960696711199,-25.70166489195386 L-50.0,-28.0" fill-opacity="0" stroke="black" stroke-width="1" />
<path d="M-33.40138610952014,19.00593514557436 L-43.00960696711199,25.70166489195386 L-50.0,28.0" fill-opacity="0" stroke="black" stroke-width="1" />
<path d="M-45.0,50.0 L-46.0,54.0 L-42.768195674941865,54.746172709241975" fill-opacity="0" stroke="black" stroke-width="1" />
<path d="M-45.0,-50.0 L-46.0,-54.0 L-42.768195674941865,-54.746172709241975" fill-opacity="0" stroke="black" stroke-width="1" />
<path d="M-46.0,-46.0 L-45.253827290758025,-42.768195674941865 L-31.0,-31.0" fill-opacity="0" stroke="black" stroke-width="1" />
<path d="M-46.0,46.0 L-45.253827290758025,42.768195674941865 L-31.0,31.0" fill-opacity="0" stroke="black" stroke-width="1" />
<path d="M-42.768195674941865,54.746172709241975 L-31.0,69.0 L-28.0,72.0" fill-opacity="0" stroke="black" stroke-width="1" />
<path d="M-42.768195674941865,-54.746172709241975 L-31.0,-69.0 L-28.0,-72.0" fill-opacity="0" stroke="black" stroke-width="1" />
<path d="M-31.0,69.0 L-28.0,72.0 L-7.0,93.0" fill-opacity="0" stroke="black" stroke-width="1" />
<path d="M-31.0,-69.0 L-28.0,-72.0 L-7.0,-93.0" fill-opacity="0" stroke="black" stroke-width="1" />
<path d="M-28.0,72.0 L-7.0,93.0 L-6.0,94.0" fill-opacity="0" stroke="black" stroke-width="1" />
<path d="M-28.0,-72.0 L-7.0,-93.0 L-6.0,-94.0" fill-opacity="0" stroke="black" stroke-width="1" />
<path d="M-7.0,93.0 L-6.0,94.0 L-5.0,95.0" fill-opacity="0" stroke="black" stroke-width="1" />
<path d="M-7.0,-93.0 L-6.0,-94.0 L-5.0,-95.0" fill-opacity="0" stroke="black" stroke-width="1" />
<path d="M-6.0,94.0 L-5.0,95.0 L-0.6152403519005157,98.72353923728974" fill-opacity="0" stroke="black" stroke-width="1" />
<path d="M-6.0,-94.0 L-5.0,-95.0 L-0.6152403519005157,-98.72353923728974" fill-opacity="0" stroke="black" stroke-width="1" />
<path d="M-5.0,-5.0 L-1.2764607627102575,-0.6152403519005157 L-1.0,-1.0" fill-opacity="0" stroke="black" stroke-width="1" />
<path d="M-5.0,5.0 L-1.2764607627102575,0.6152403519005157 L-1.0,1.0" fill-opacity="0" stroke="black" stroke-width="1" />
<path d="M98.72353923728974,0.6152403519005157 L99.0,1.0 L100.0,-0.0" fill-opacity="0" stroke="black" stroke-width="1" />
<path d="M98.72353923728974,-0.6152403519005157 L99.0,-1.0 L100.0,-0.0" fill-opacity="0" stroke="black" stroke-width="1" />
<path d="M84.0,-0.0 L83.98015355428237,2.3160643761058806 L83.0,-0.0" fill-opacity="0" stroke="black" stroke-width="1" />
<path d="M84.0,-0.0 L83.98015355428237,-2.3160643761058806 L83.0,-0.0" fill-opacity="0" stroke="black" stroke-width="1" />
<path d="M83.0,-0.0 L80.81588473049013,4.71674789315133 L78.63876428030846,5.1977251832321105" fill-opacity="0" stroke="black" stroke-width="1" />
<path d="M83.0,-0.0 L80.81588473049013,-4.71674789315133 L78.63876428030846,-5.1977251832321105" fill-opacity="0" stroke="black" stroke-width="1" />
<path d="M80.81588473049013,4.71674789315133 L78.63876428030846,5.1977251832321105 L76.75584218921904,8.569470287397445" fill-opacity="0" stroke="black" stroke-width="1" />
<path d="M80.81588473049013,-4.71674789315133 L78.63876428030846,-5.1977251832321105 L76.75584218921904,-8.569470287397445" fill-opacity="0" stroke="black" stroke-width="1" />
<path d="M78.63876428030846,5.1977251832321105 L76.75584218921904,8.569470287397445 L76.01072802962838,9.451869106906072" fill-opacity="0" stroke="black" stroke-width="1" />
<path d="M78.63876428030846,-5.1977251832321105 L76.75584218921904,-8.569470287397445 L76.01072802962838,-9.451869106906072" fill-opacity="0" stroke="black" stroke-width="1" />
<path d="M76.75584218921904,8.569470287397445 L76.01072802962838,9.451869106906072 L76.0,-0.0" fill-opacity="0" stroke="black" stroke-width="1" />
<path d="M76.75584218921904,-8.569470287397445 L76.01072802962838,-9.451869106906072 L76.0,-0.0" fill-opacity="0" stroke="black" stroke-width="1" />
<path d="M76.0,-0.0 L74.16979465605047,11.32965071762166 L73.92382871036793,14.688327963628506" fill-opacity="0" stroke="black" stroke-width="1" />
<path d="M76.0,-0.0 L74.16979465605047,-11.32965071762166 L73.92382871036793,-14.688327963628506" fill-opacity="0" stroke="black" stroke-width="1" />
<path d="M74.16979465605047,11.32965071762166 L73.92382871036793,14.688327963628506 L67.6939165109815,15.571320272220774" fill-opacity="0" stroke="black" stroke-width="1" />
<path d="M74.16979465605047,-11.32965071762166 L73.92382871036793,-14.688327963628506 L67.6939165109815,-15.571320272220774" fill-opacity="0" stroke="black" stroke-width="1" />
<path d="M73.92382871036793,14.688327963628506 L67.6939165109815,15.571320272220774 L67.0,-0.0" fill-opacity="0" stroke="black" stroke-width="1" />
<path d="M73.92382871036793,-14.688327963628506 L67.6939165109815,-15.571320272220774 L67.0,-0.0" fill-opacity="0" stroke="black" stroke-width="1" />
<path d="M50.0,2.0 L66.59861389047987,19.00593514557436 L56.99039303288801,25.70166489195386" fill-opacity="0" stroke="black" stroke-width="1" />
<path d="M50.0,-2.0 L66.59861389047987,-19.00593514557436 L56.99039303288801,-25.70166489195386" fill-opacity="0" stroke="black" stroke-width="1" />
<path d="M66.59861389047987,19.00593514557436 L56.99039303288801,25.70166489195386 L50.0,28.0" fill-opacity="0" stroke="black" stroke-width="1" />
<path d="M66.59861389047987,-19.00593514557436 L56.99039303288801,-25.70166489195386 L50.0,-28.0" fill-opacity="0" stroke="black" stroke-width="1" />
<path d="M50.0,45.0 L54.0,46.0 L54.746172709241975,42.768195674941865" fill-opacity="0" stroke="black" stroke-width="1" />
<path d="M50.0,-45.0 L54.0,-46.0 L54.746172709241975,-42.768195674941865" fill-opacity="0" stroke="black" stroke-width="1" />
<path d="M54.0,46.0 L54.746172709241975,42.768195674941865 L69.0,31.0" fill-opacity="0" stroke="black" stroke-width="1" />
<path d="M54.0,-46.0 L54.746172709241975,-42.768195674941865 L69.0,-31.0" fill-opacity="0" stroke="black" stroke-width="1" />
<path d="M54.746172709241975,42.768195674941865 L69.0,31.0 L72.0,28.0" fill-opacity="0" stroke="black" stroke-width="1" />
<path d="M54.746172709241975,-42.768195674941865 L69.0,-31.0 L72.0,-28.0" fill-opacity="0" stroke="black" stroke-width="1" />
<path d="M69.0,31.0 L72.0,28.0 L93.0,7.0" fill-opacity="0" stroke="black" stroke-width="1" />
<path d="M69.0,-31.0 L72.0,-28.0 L93.0,-7.0" fill-opacity="0" stroke="black" stroke-width="1" />
<path d="M72.0,28.0 L93.0,7.0 L94.0,6.0" fill-opacity="0" stroke="black" stroke-width="1" />
<path d="M72.0,-28.0 L93.0,-7.0 L94.0,-6.0" fill-opacity="0" stroke="black" stroke-width="1" />
<path d="M93.0,7.0 L94.0,6.0 L95.0,5.0" fill-opacity="0" stroke="black" stroke-width="1" />
<path d="M93.0,-7.0 L94.0,-6.0 L95.0,-5.0" fill-opacity="0" stroke="black" stroke-width="1" />
<path d="M94.0,6.0 L95.0,5.0 L98.72353923728974,0.6152403519005157" fill-opacity="0" stroke="black" stroke-width="1" />
<path d="M94.0,-6.0 L95.0,-5.0 L98.72353923728974,-0.6152403519005157" fill-opacity="0" stroke="black" stroke-width="1" />
<path d="M95.0,5.0 L98.72353923728974,0.6152403519005157 L99.0,1.0" fill-opacity="0" stroke="black" stroke-width="1" />
<path d="M95.0,-5.0 L98.72353923728974,-0.6152403519005157 L99.0,-1.0" fill-opacity="0" stroke="black" stroke-width="1" />
<path d="M0.0,-16.0 L2.3160643761058806,-16.01984644571764 L0.0,-17.0" fill-opacity="0" stroke="black" stroke-width="1" />
<path d="M0.0,16.0 L2.3160643761058806,16.01984644571764 L0.0,17.0" fill-opacity="0" stroke="black" stroke-width="1" />
<path d="M0.0,84.0 L2.3160643761058806,83.98015355428237 L0.0,83.0" fill-opacity="0" stroke="black" stroke-width="1" />
<path d="M0.0,-84.0 L2.3160643761058806,-83.98015355428237 L0.0,-83.0" fill-opacity="0" stroke="black" stroke-width="1" />
<path d="M0.0,-17.0 L4.71674789315133,-19.184115269509867 L5.1977251832321105,-21.361235719691543" fill-opacity="0" stroke="black" stroke-width="1" />
<path d="M0.0,17.0 L4.71674789315133,19.184115269509867 L5.1977251832321105,21.361235719691543" fill-opacity="0" stroke="black" stroke-width="1" />
<path d="M0.0,83.0 L4.71674789315133,80.81588473049013 L5.1977251832321105,78.63876428030846" fill-opacity="0" stroke="black" stroke-width="1" />
<path d="M0.0,-83.0 L4.71674789315133,-80.81588473049013 L5.1977251832321105,-78.63876428030846" fill-opacity="0" stroke="black" stroke-width="1" />
<path d="M4.71674789315133,-19.184115269509867 L5.1977251832321105,-21.361235719691543 L8.569470287397445,-23.24415781078096" fill-opacity="0" stroke="black" stroke-width="1" />
<path d="M4.71674789315133,19.184115269509867 L5.1977251832321105,21.361235719691543 L8.569470287397445,23.24415781078096" fill-opacity="0" stroke="black" stroke-width="1" />
<path d="M4.71674789315133,80.81588473049013 L5.1977251832321105,78.63876428030846 L8.569470287397445,76.75584218921904" fill-opacity="0" stroke="black" stroke-width="1" />
<path d="M4.71674789315133,-80.81588473049013 L5.1977251832321105,-78.63876428030846 L8.569470287397445,-76.75584218921904" fill-opacity="0" stroke="black" stroke-width="1" />
<path d="M5.1977251832321105,-21.361235719691543 L8.569470287397445,-23.24415781078096 L9.451869106906072,-23.989271970371618" fill-opacity="0" stroke="black" stroke-width="1" />
<path d="M5.1977251832321105,21.361235719691543 L8.569470287397445,23.24415781078096 L9.451869106906072,23.989271970371618" fill-opacity="0" stroke="black" stroke-width="1" />
<path d="M5.1977251832321105,78.63876428030846 L8.569470287397445,76.75584218921904 L9.451869106906072,76.01072802962838" fill-opacity="0" stroke="black" stroke-width="1" />
<path d="M5.1977251832321105,-78.63876428030846 L8.569470287397445,-76.75584218921904 L9.451869106906072,-76.01072802962838" fill-opacity="0" stroke="black" stroke-width="1" />
<path d="M8.569470287397445,-23.24415781078096 L9.451869106906072,-23.989271970371618 L0.0,-24.0" fill-opacity="0" stroke="black" stroke-width="1" />
<path d="M8.569470287397445,23.24415781078096 L9.451869106906072,23.989271970371618 L0.0,24.0" fill-opacity="0" stroke="black" stroke-width="1" />
<path d="M8.569470287397445,76.75584218921904 L9.451869106906072,76.01072802962838 L0.0,76.0" fill-opacity="0" stroke="black" stroke-width="1" />
<path d="M8.569470287397445,-76.75584218921904 L9.451869106906072,-76.01072802962838 L0.0,-76.0" fill-opacity="0" stroke="black" stroke-width="1" />
<path d="M0.0,-24.0 L11.32965071762166,-25.830205343949523 L14.688327963628506,-26.07617128963208" fill-opacity="0" stroke="black" stroke-width="1" />
<path d="M0.0,24.0 L11.32965071762166,25.830205343949523 L14.688327963628506,26.07617128963208" fill-opacity="0" stroke="black" stroke-width="1" />
<path d="M0.0,76.0 L11.32965071762166,74.16979465605047 L14.688327963628506,73.92382871036793" fill-opacity="0" stroke="black" stroke-width="1" />
<path d="M0.0,-76.0 L11.32965071762166,-74.16979465605047 L14.688327963628506,-73.92382871036793" fill-opacity="0" stroke="black" stroke-width="1" />
<path d="M11.32965071762166,-25.830205343949523 L14.688327963628506,-26.07617128963208 L15.571320272220774,-32.3060834890185" fill-opacity="0" stroke="black" stroke-width="1" />
<path d="M11.32965071762166,25.830205343949523 L14.688327963628506,26.07617128963208 L15.571320272220774,32.3060834890185" fill-opacity="0" stroke="black" stroke-width="1" />
<path d="M11.32965071762166,74.16979465605047 L14.688327963628506,73.92382871036793 L15.571320272220774,67.6939165109815" fill-opacity="0" stroke="black" stroke-width="1" />
<path d="M11.32965071762166,-74.16979465605047 L14.688327963628506,-73.92382871036793 L15.571320272220774,-67.6939165109815" fill-opacity="0" stroke="black" stroke-width="1" />
<path d="M14.688327963628506,-26.07617128963208 L15.571320272220774,-32.3060834890185 L0.0,-33.0" fill-opacity="0" stroke="black" stroke-width="1" />
<path d="M14.688327963628506,26.07617128963208 L15.571320272220774,32.3060834890185 L0.0,33.0" fill-opacity="0" stroke="black" stroke-width="1" />
<path d="M14.688327963628506,73.92382871036793 L15.571320272220774,67.6939165109815 L0.0,67.0" fill-opacity="0" stroke="black" stroke-width="1" />
<path d="M14.688327963628506,-73.92382871036793 L15.571320272220774,-67.6939165109815 L0.0,-67.0" fill-opacity="0" stroke="black" stroke-width="1" />
<path d="M2.0,-50.0 L19.00593514557436,-33.40138610952014 L25.70166489195386,-43.00960696711199" fill-opacity="0" stroke="black" stroke-width="1" />
<path d="M2.0,50.0 L19.00593514557436,33.40138610952014 L25.70166489195386,43.00960696711199" fill-opacity="0" stroke="black" stroke-width="1" />
<path d="M2.0,50.0 L19.00593514557436,66.59861389047987 L25.70166489195386,56.99039303288801" fill-opacity="0" stroke="black" stroke-width="1" />
<path d="M2.0,-50.0 L19.00593514557436,-66.59861389047987 L25.70166489195386,-56.99039303288801" fill-opacity="0" stroke="black" stroke-width="1" />
<path d="M19.00593514557436,-33.40138610952014 L25.70166489195386,-43.00960696711199 L28.0,-50.0" fill-opacity="0" stroke="black" stroke-width="1" />
<path d="M19.00593514557436,33.40138610952014 L25.70166489195386,43.00960696711199 L28.0,50.0" fill-opacity="0" stroke="black" stroke-width="1" />
<path d="M19.00593514557436,66.59861389047987 L25.70166489195386,56.99039303288801 L28.0,50.0" fill-opacity="0" stroke="black" stroke-width="1" />
<path d="M19.00593514557436,-66.59861389047987 L25.70166489195386,-56.99039303288801 L28.0,-50.0" fill-opacity="0" stroke="black" stroke-width="1" />
<path d="M46.0,-46.0 L42.768195674941865,-45.253827290758025 L31.0,-31.0" fill-opacity="0" stroke="black" stroke-width="1" />
<path d="M46.0,46.0 L42.768195674941865,45.253827290758025 L31.0,31.0" fill-opacity="0" stroke="black" stroke-width="1" />
<path d="M46.0,54.0 L42.768195674941865,54.746172709241975 L31.0,69.0" fill-opacity="0" stroke="black" stroke-width="1" />
<path d="M46.0,-54.0 L42.768195674941865,-54.746172709241975 L31.0,-69.0" fill-opacity="0" stroke="black" stroke-width="1" />
<path d="M5.0,-5.0 L0.6152403519005157,-1.2764607627102575 L1.0,-1.0" fill-opacity="0" stroke="black" stroke-width="1" />
<path d="M5.0,5.0 L0.6152403519005157,1.2764607627102575 L1.0,1.0" fill-opacity="0" stroke="black" stroke-width="1" />
<path d="M5.0,95.0 L0.6152403519005157,98.72353923728974 L1.0,99.0" fill-opacity="0" stroke="black" stroke-width="1" />
<path d="M5.0,-95.0 L0.6152403519005157,-98.72353923728974 L1.0,-99.0" fill-opacity="0" stroke="black" stroke-width="1" />
<path d="M0.0,84.0 L-2.3160643761058806,83.98015355428237 L0.0,83.0" fill-opacity="0" stroke="black" stroke-width="1" />
<path d="M0.0,-16.0 L-2.3160643761058806,-16.01984644571764 L0.0,-17.0" fill-opacity="0" stroke="black" stroke-width="1" />
<path d="M0.0,16.0 L-2.3160643761058806,16.019846445717633 L0.0,17.0" fill-opacity="0" stroke="black" stroke-width="1" />
<path d="M0.0,-84.0 L-2.3160643761058806,-83.98015355428237 L0.0,-83.0" fill-opacity="0" stroke="black" stroke-width="1" />
<path d="M0.0,83.0 L-4.71674789315133,80.81588473049013 L-5.1977251832321105,78.63876428030846" fill-opacity="0" stroke="black" stroke-width="1" />
<path d="M0.0,-17.0 L-4.71674789315133,-19.184115269509867 L-5.1977251832321105,-21.361235719691543" fill-opacity="0" stroke="black" stroke-width="1" />
<path d="M0.0,17.0 L-4.71674789315133,19.184115269509874 L-5.1977251832321105,21.361235719691535" fill-opacity="0" stroke="black" stroke-width="1" />
<path d="M0.0,-83.0 L-4.71674789315133,-80.81588473049013 L-5.1977251832321105,-78.63876428030846" fill-opacity="0" stroke="black" stroke-width="1" />
<path d="M-4.71674789315133,80.81588473049013 L-5.1977251832321105,78.63876428030846 L-8.569470287397445,76.75584218921904" fill-opacity="0" stroke="black" stroke-width="1" />
<path d="M-4.71674789315133,-19.184115269509867 L-5.1977251832321105,-21.361235719691543 L-8.569470287397445,-23.24415781078096" fill-opacity="0" stroke="black" stroke-width="1" />
<path d="M-4.71674789315133,19.184115269509874 L-5.1977251832321105,21.361235719691535 L-8.569470287397445,23.244157810780962" fill-opacity="0" stroke="black" stroke-width="1" />
<path d="M-4.71674789315133,-80.81588473049013 L-5.1977251832321105,-78.63876428030846 L-8.569470287397445,-76.75584218921904" fill-opacity="0" stroke="black" stroke-width="1" />
<path d="M-5.1977251832321105,78.63876428030846 L-8.569470287397445,76.75584218921904 L-9.451869106906072,76.01072802962838" fill-opacity="0" stroke="black" stroke-width="1" />
<path d="M-5.1977251832321105,-21.361235719691543 L-8.569470287397445,-23.24415781078096 L-9.451869106906072,-23.989271970371618" fill-opacity="0" stroke="black" stroke-width="1" />
<path d="M-5.1977251832321105,21.361235719691535 L-8.569470287397445,23.244157810780962 L-9.451869106906072,23.989271970371618" fill-opacity="0" stroke="black" stroke-width="1" />
<path d="M-5.1977251832321105,-78.63876428030846 L-8.569470287397445,-76.75584218921904 L-9.451869106906072,-76.01072802962838" fill-opacity="0" stroke="black" stroke-width="1" />
<path d="M-8.569470287397445,76.75584218921904 L-9.451869106906072,76.01072802962838 L0.0,76.0" fill-opacity="0" stroke="black" stroke-width="1" />
<path d="M-8.569470287397445,-23.24415781078096 L-9.451869106906072,-23.989271970371618 L0.0,-24.0" fill-opacity="0" stroke="black" stroke-width="1" />
<path d="M-8.569470287397445,23.244157810780962 L-9.451869106906072,23.989271970371618 L0.0,24.0" fill-opacity="0" stroke="black" stroke-width="1" />
<path d="M-8.569470287397445,-76.75584218921904 L-9.451869106906072,-76.01072802962838 L0.0,-76.0" fill-opacity="0" stroke="black" stroke-width="1" />
<path d="M0.0,76.0 L-11.32965071762166,74.16979465605047 L-14.688327963628506,73.92382871036793" fill-opacity="0" stroke="black" stroke-width="1" />
<path d="M0.0,-24.0 L-11.32965071762166,-25.830205343949523 L-14.688327963628506,-26.07617128963208" fill-opacity="0" stroke="black" stroke-width="1" />
<path d="M0.0,24.0 L-11.32965071762166,25.83020534394953 L-14.688327963628506,26.07617128963207" fill-opacity="0" stroke="black" stroke-width="1" />
<path d="M0.0,-76.0 L-11.32965071762166,-74.16979465605047 L-14.688327963628506,-73.92382871036793" fill-opacity="0" stroke="black" stroke-width="1" />
<path d="M-11.32965071762166,74.16979465605047 L-14.688327963628506,73.92382871036793 L-15.571320272220774,67.6939165109815" fill-opacity="0" stroke="black" stroke-width="1" />
<path d="M-11.32965071762166,-25.830205343949523 L-14.688327963628506,-26.07617128963208 L-15.571320272220774,-32.3060834890185" fill-opacity="0" stroke="black" stroke-width="1" />
<path d="M-11.32965071762166,25.83020534394953 L-14.688327963628506,26.07617128963207 L-15.571320272220774,32.306083489018505" fill-opacity="0" stroke="black" stroke-width="1" />
<path d="M-11.32965071762166,-74.16979465605047 L-14.688327963628506,-73.92382871036793 L-15.571320272220774,-67.6939165109815" fill-opacity="0" stroke="black" stroke-width="1" />
<path d="M-14.688327963628506,73.92382871036793 L-15.571320272220774,67.6939165109815 L0.0,67.0" fill-opacity="0" stroke="black" stroke-width="1" />
<path d="M-14.688327963628506,-26.07617128963208 L-15.571320272220774,-32.3060834890185 L0.0,-33.0" fill-opacity="0" stroke="black" stroke-width="1" />
<path d="M-14.688327963628506,26.07617128963207 L-15.571320272220774,32.306083489018505 L0.0,33.0" fill-opacity="0" stroke="black" stroke-width="1" />
<path d="M-14.688327963628506,-73.92382871036793 L-15.571320272220774,-67.6939165109815 L0.0,-67.0" fill-opacity="0" stroke="black" stroke-width="1" />
<path d="M-2.0,50.0 L-19.00593514557436,66.59861389047987 L-25.70166489195386,56.99039303288801" fill-opacity="0" stroke="black" stroke-width="1" />
<path d="M-2.0,-50.0 L-19.00593514557436,-33.40138610952014 L-25.70166489195386,-43.00960696711199" fill-opacity="0" stroke="black" stroke-width="1" />
<path d="M-2.0,50.0 L-19.00593514557436,33.40138610952013 L-25.70166489195386,43.00960696711199" fill-opacity="0" stroke="black" stroke-width="1" />
<path d="M-2.0,-50.0 L-19.00593514557436,-66.59861389047987 L-25.70166489195386,-56.99039303288801" fill-opacity="0" stroke="black" stroke-width="1" />
<path d="M-19.00593514557436,66.59861389047987 L-25.70166489195386,56.99039303288801 L-28.0,50.0" fill-opacity="0" stroke="black" stroke-width="1" />
<path d="M-19.00593514557436,-33.40138610952014 L-25.70166489195386,-43.00960696711199 L-28.0,-50.0" fill-opacity="0" stroke="black" stroke-width="1" />
<path d="M-19.00593514557436,33.40138610952013 L-25.70166489195386,43.00960696711199 L-28.0,50.0" fill-opacity="0" stroke="black" stroke-width="1" />
<path d="M-19.00593514557436,-66.59861389047987 L-25.70166489195386,-56.99039303288801 L-28.0,-50.0" fill-opacity="0" stroke="black" stroke-width="1" />
<path d="M-46.0,54.0 L-42.768195674941865,54.746172709241975 L-31.0,69.0" fill-opacity="0" stroke="black" stroke-width="1" />
<path d="M-46.0,-46.0 L-42.768195674941865,-45.253827290758025 L-31.0,-31.0" fill-opacity="0" stroke="black" stroke-width="1" />
<path d="M-46.0,46.0 L-42.768195674941865,45.253827290758025 L-31.0,31.0" fill-opacity="0" stroke="black" stroke-width="1" />
<path d="M-46.0,-54.0 L-42.768195674941865,-54.746172709241975 L-31.0,-69.0" fill-opacity="0" stroke="black" stroke-width="1" />
<path d="M-5.0,95.0 L-0.6152403519005157,98.72353923728974 L-1.0,99.0" fill-opacity="0" stroke="black" stroke-width="1" />
<path d="M-5.0,-5.0 L-0.6152403519005157,-1.2764607627102575 L-1.0,-1.0" fill-opacity="0" stroke="black" stroke-width="1" />
<path d="M-5.0,5.0 L-0.6152403519005157,1.2764607627102578 L-1.0,1.0" fill-opacity="0" stroke="black" stroke-width="1" />
<path d="M-5.0,-95.0 L-0.6152403519005157,-98.72353923728974 L-1.0,-99.0" fill-opacity="0" stroke="black" stroke-width="1" />
<path d="M-98.72353923728974,-0.6152403519005157 L-99.0,-1.0 L-100.0,-0.0" fill-opacity="0" stroke="black" stroke-width="1" />
<path d="M-98.72353923728974,0.6152403519005157 L-99.0,1.0 L-100.0,-0.0" fill-opacity="0" stroke="black" stroke-width="1" />
<path d="M-84.0,-0.0 L-83.98015355428237,-2.3160643761058806 L-83.0,-0.0" fill-opacity="0" stroke="black" stroke-width="1" />
<path d="M-84.0,-0.0 L-83.98015355428237,2.3160643761058806 L-83.0,-0.0" fill-opacity="0" stroke="black" stroke-width="1" />
<path d="M-83.0,-0.0 L-80.81588473049013,-4.71674789315133 L-78.63876428030846,-5.1977251832321105" fill-opacity="0" stroke="black" stroke-width="1" />
<path d="M-83.0,-0.0 L-80.81588473049013,4.71674789315133 L-78.63876428030846,5.1977251832321105" fill-opacity="0" stroke="black" stroke-width="1" />
<path d="M-80.81588473049013,-4.71674789315133 L-78.63876428030846,-5.1977251832321105 L-76.75584218921904,-8.569470287397445" fill-opacity="0" stroke="black" stroke-width="1" />
<path d="M-80.81588473049013,4.71674789315133 L-78.63876428030846,5.1977251832321105 L-76.75584218921904,8.569470287397445" fill-opacity="0" stroke="black" stroke-width="1" />
<path d="M-78.63876428030846,-5.1977251832321105 L-76.75584218921904,-8.569470287397445 L-76.01072802962838,-9.451869106906072" fill-opacity="0" stroke="black" stroke-width="1" />
<path d="M-78.63876428030846,5.1977251832321105 L-76.75584218921904,8.569470287397445 L-76.01072802962838,9.451869106906072" fill-opacity="0" stroke="black" stroke-width="1" />
<path d="M-76.75584218921904,-8.569470287397445 L-76.01072802962838,-9.451869106906072 L-76.0,-0.0" fill-opacity="0" stroke="black" stroke-width="1" />
<path d="M-76.75584218921904,8.569470287397445 L-76.01072802962838,9.451869106906072 L-76.0,-0.0" fill-opacity="0" stroke="black" stroke-width="1" />
<path d="M-76.0,-0.0 L-74.16979465605047,-11.32965071762166 L-73.92382871036793,-14.688327963628506" fill-opacity="0" stroke="black" stroke-width="1" />
<path d="M-76.0,-0.0 L-74.16979465605047,11.32965071762166 L-73.92382871036793,14.688327963628506" fill-opacity="0" stroke="black" stroke-width="1" />
<path d="M-74.16979465605047,-11.32965071762166 L-73.92382871036793,-14.688327963628506 L-67.6939165109815,-15.571320272220774" fill-opacity="0" stroke="black" stroke-width="1" />
<path d="M-74.16979465605047,11.32965071762166 L-73.92382871036793,14.688327963628506 L-67.6939165109815,15.571320272220774" fill-opacity="0" stroke="black" stroke-width="1" />
<path d="M-73.92382871036793,-14.688327963628506 L-67.6939165109815,-15.571320272220774 L-67.0,-0.0" fill-opacity="0" stroke="black" stroke-width="1" />
<path d="M-73.92382871036793,14.688327963628506 L-67.6939165109815,15.571320272220774 L-67.0,-0.0" fill-opacity="0" stroke="black" stroke-width="1" />
<path d="M-50.0,-2.0 L-66.59861389047987,-19.00593514557436 L-56.99039303288801,-25.70166489195386" fill-opacity="0" stroke="black" stroke-width="1" />
<path d="M-50.0,2.0 L-66.59861389047987,19.00593514557436 L-56.99039303288801,25.70166489195386" fill-opacity="0" stroke="black" stroke-width="1" />
<path d="M-66.59861389047987,-19.00593514557436 L-56.99039303288801,-25.70166489195386 L-50.0,-28.0" fill-opacity="0" stroke="black" stroke-width="1" />
<path d="M-66.59861389047987,19.00593514557436 L-56.99039303288801,25.70166489195386 L-50.0,28.0" fill-opacity="0" stroke="black" stroke-width="1" />
<path d="M-50.0,-45.0 L-54.0,-46.0 L-54.746172709241975,-42.768195674941865" fill-opacity="0" stroke="black" stroke-width="1" />
<path d="M-50.0,45.0 L-54.0,46.0 L-54.746172709241975,42.768195674941865" fill-opacity="0" stroke="black" stroke-width="1" />
<path d="M-54.0,-46.0 L-54.746172709241975,-42.768195674941865 L-69.0,-31.0" fill-opacity="0" stroke="black" stroke-width="1" />
<path d="M-54.0,46.0 L-54.746172709241975,42.768195674941865 L-69.0,31.0" fill-opacity="0" stroke="black" stroke-width="1" />
<path d="M-54.746172709241975,-42.768195674941865 L-69.0,-31.0 L-72.0,-28.0" fill-opacity="0" stroke="black" stroke-width="1" />
<path d="M-54.746172709241975,42.768195674941865 L-69.0,31.0 L-72.0,28.0" fill-opacity="0" stroke="black" stroke-width="1" />
<path d="M-69.0,-31.0 L-72.0,-28.0 L-93.0,-7.0" fill-opacity="0" stroke="black" stroke-width="1" />
<path d="M-69.0,31.0 L-72.0,28.0 L-93.0,7.0" fill-opacity="0" stroke="black" stroke-width="1" />
<path d="M-72.0,-28.0 L-93.0,-7.0 L-94.0,-6.0" fill-opacity="0" stroke="black" stroke-width="1" />
<path d="M-72.0,28.0 L-93.0,7.0 L-94.0,6.0" fill-opacity="0" stroke="black" stroke-width="1" />
<path d="M-93.0,-7.0 L-94.0,-6.0 L-95.0,-5.0" fill-opacity="0" stroke="black" stroke-width="1" />
<path d="M-93.0,7.0 L-94.0,6.0 L-95.0,5.0" fill-opacity="0" stroke="black" stroke-width="1" />
<path d="M-94.0,-6.0 L-95.0,-5.0 L-98.72353923728974,-0.6152403519005157" fill-opacity="0" stroke="black" stroke-width="1" />
<path d="M-94.0,6.0 L-95.0,5.0 L-98.72353923728974,0.6152403519005157" fill-opacity="0" stroke="black" stroke-width="1" />
<path d="M-95.0,-5.0 L-98.72353923728974,-0.6152403519005157 L-99.0,-1.0" fill-opacity="0" stroke="black" stroke-width="1" />
<path d="M-95.0,5.0 L-98.72353923728974,0.6152403519005157 L-99.0,1.0" fill-opacity="0" stroke="black" stroke-width="1" />
<circle cx="0" cy="-97" r="8" stroke-dasharray="39.653880605311166 10.611601852125524" stroke-dashoffset="-17.59291886010284" stroke="black" stroke-width="1" fill="white" fill-opacity="1" />
<circle cx="0" cy="-97" r="4" stroke="black" stroke-width="1" fill="white" fill-opacity="1" />
</svg>