<?xml version="1.0" encoding="UTF-8"?>
<svg xmlns="http://www.w3.org/2000/svg" xmlns:xlink="http://www.w3.org/1999/xlink"
     width="250" height="250" viewBox="-125.0 -125.0 250 250">
<defs>
</defs>
<path d="M45.0,55.0 L23.0,77.0 L17.0,83.0" fill-opacity="0" stroke="black" stroke-width="1" />
<path d="M45.0,-55.0 L23.0,-77.0 L17.0,-83.0" fill-opacity="0" stroke="black" stroke-width="1" />
<path d="M50.0,-14.0 L47.20174690536504,-18.97397365068333 L50.0,-23.0" fill-opacity="0" stroke="black" stroke-width="1" />
<path d="M50.0,14.0 L47.20174690536504,18.97397365068333 L50.0,23.0" fill-opacity="0" stroke="black" stroke-width="1" />
<path d="M50.0,50.0 L49.0,51.0 L48.0,52.0" fill-opacity="0" stroke="black" stroke-width="1" />
<path d="M50.0,-50.0 L49.0,-51.0 L48.0,-52.0" fill-opacity="0" stroke="black" stroke-width="1" />
<path d="M49.0,51.0 L48.0,52.0 L45.0,55.0" fill-opacity="0" stroke="black" stroke-width="1" />
<path d="M49.0,-51.0 L48.0,-52.0 L45.0,-55.0" fill-opacity="0" stroke="black" stroke-width="1" />
<path d="M48.0,52.0 L45.0,55.0 L23.0,77.0" fill-opacity="0" stroke="black" stroke-width="1" />
<path d="M48.0,-52.0 L45.0,-55.0 L23.0,-77.0" fill-opacity="0" stroke="black" stroke-width="1" />
<path d="M23.0,77.0 L17.0,83.0 L0.0,100.0" fill-opacity="0" stroke="black" stroke-width="1" />
<path d="M23.0,-77.0 L17.0,-83.0 L0.0,-100.0" fill-opacity="0" stroke="black" stroke-width="1" />
<path d="M-45.0,55.0 L-23.0,77.0 L-17.0,83.0" fill-opacity="0" stroke="black" stroke-width="1" />
<path d="M-45.0,-55.0 L-23.0,-77.0 L-17.0,-83.0" fill-opacity="0" stroke="black" stroke-width="1" />
<path d="M-50.0,-14.0 L-47.20174690536504,-18.97397365068333 L-50.0,-23.0" fill-opacity="0" stroke="black" stroke-width="1" />
<path d="M-50.0,14.0 L-47.20174690536504,18.97397365068333 L-50.0,23.0" fill-opacity="0" stroke="black" stroke-width="1" />
<path d="M-50.0,50.0 L-49.0,51.0 L-48.0,52.0" fill-opacity="0" stroke="black" stroke-width="1" />
<path d="M-50.0,-50.0 L-49.0,-51.0 L-48.0,-52.0" fill-opacity="0" stroke="black" stroke-width="1" />
<path d="M-49.0,51.0 L-48.0,52.0 L-45.0,55.0" fill-opacity="0" stroke="black" stroke-width="1" />
<path d="M-49.0,-51.0 L-48.0,-52.0 L-45.0,-55.0" fill-opacity="0" stroke="black" stroke-width="1" />
<path d="M-48.0,52.0 L-45.0,55.0 L-23.0,77.0" fill-opacity="0" stroke="black" stroke-width="1" />
<path d="M-48.0,-52.0 L-45.0,-55.0 L-23.0,-77.0" fill-opacity="0" stroke="black" stroke-width="1" />
<path d="M-23.0,77.0 L-17.0,83.0 L0.0,100.0" fill-opacity="0" stroke="black" stroke-width="1" />
<path d="M-23.0,-77.0 L-17.0,-83.0 L0.0,-100.0" fill-opacity="0" stroke="black" stroke-width="1" />
<path d="M55.0,45.0 L77.0,23.0 L83.0,17.0" fill-opacity="0" stroke="black" stroke-width="1" />
<path d="M55.0,-45.0 L77.0,-23.0 L83.0,-17.0" fill-opacity="0" stroke="black" stroke-width="1" />
<path d="M50.0,14.0 L52.79825309463496,18.97397365068333 L50.0,23.0" fill-opacity="0" stroke="black" stroke-width="1" />
<path d="M50.0,-14.0 L52.79825309463496,-18.97397365068333 L50.0,-23.0" fill-opacity="0" stroke="black" stroke-width="1" />
<path d="M50.0,50.0 L51.0,49.0 L52.0,48.0" fill-opacity="0" stroke="black" stroke-width="1" />
<path d="M50.0,-50.0 L51.0,-49.0 L52.0,-48.0" fill-opacity="0" stroke="black" stroke-width="1" />
<path d="M51.0,49.0 L52.0,48.0 L55.0,45.0" fill-opacity="0" stroke="black" stroke-width="1" />
<path d="M51.0,-49.0 L52.0,-48.0 L55.0,-45.0" fill-opacity="0" stroke="black" stroke-width="1" />
<path d="M52.0,48.0 L55.0,45.0 L77.0,23.0" fill-opacity="0" stroke="black" stroke-width="1" />
<path d="M52.0,-48.0 L55.0,-45.0 L77.0,-23.0" fill-opacity="0" stroke="black" stroke-width="1" />
<path d="M77.0,23.0 L83.0,17.0 L100.0,-0.0" fill-opacity="0" stroke="black" stroke-width="1" />
<path d="M77.0,-23.0 L83.0,-17.0 L100.0,-0.0" fill-opacity="0" stroke="black" stroke-width="1" />
<path d="M14.0,-50.0 L18.97397365068333,-47.20174690536504 L23.0,-50.0" fill-opacity="0" stroke="black" stroke-width="1" />
<path d="M14.0,50.0 L18.97397365068333,47.20174690536504 L23.0,50.0" fill-opacity="0" stroke="black" stroke-width="1" />
<path d="M14.0,50.0 L18.97397365068333,52.79825309463496 L23.0,50.0" fill-opacity="0" stroke="black" stroke-width="1" />
<path d="M14.0,-50.0 L18.97397365068333,-52.79825309463496 L23.0,-50.0" fill-opacity="0" stroke="black" stroke-width="1" />
<path d="M-14.0,50.0 L-18.97397365068333,52.79825309463496 L-23.0,50.0" fill-opacity="0" stroke="black" stroke-width="1" />
<path d="M-14.0,-50.0 L-18.97397365068333,-47.20174690536504 L-23.0,-50.0" fill-opacity="0" stroke="black" stroke-width="1" />
<path d="M-14.0,50.0 L-18.97397365068333,47.20174690536504 L-23.0,50.0" fill-opacity="0" stroke="black" stroke-width="1" />
<path d="M-14.0,-50.0 L-18.97397365068333,-52.79825309463496 L-23.0,-50.0" fill-opacity="0" stroke="black" stroke-width="1" />
<path d="M-55.0,-45.0 L-77.0,-23.0 L-83.0,-17.0" fill-opacity="0" stroke="black" stroke-width="1" />
<path d="M-55.0,45.0 L-77.0,23.0 L-83.0,17.0" fill-opacity="0" stroke="black" stroke-width="1" />
<path d="M-50.0,-14.0 L-52.79825309463496,-18.97397365068333 L-50.0,-23.0" fill-opacity="0" stroke="black" stroke-width="1" />
<path d="M-50.0,14.0 L-52.79825309463496,18.97397365068333 L-50.0,23.0" fill-opacity="0" stroke="black" stroke-width="1" />
<path d="M-50.0,-50.0 L-51.0,-49.0 L-52.0,-48.0" fill-opacity="0" stroke="black" stroke-width="1" />
<path d="M-50.0,50.0 L-51.0,49.0 L-52.0,48.0" fill-opacity="0" stroke="black" stroke-width="1" />
<path d="M-51.0,-49.0 L-52.0,-48.0 L-55.0,-45.0" fill-opacity="0" stroke="black" stroke-width="1" />
<path d="M-51.0,49.0 L-52.0,48.0 L-55.0,45.0" fill-opacity="0" stroke="black" stroke-width="1" />
<path d="M-52.0,-48.0 L-55.0,-45.0 L-77.0,-23.0" fill-opacity="0" stroke="black" stroke-width="1" />
<path d="M-52.0,48.0 L-55.0,45.0 L-77.0,23.0" fill-opacity="0" stroke="black" stroke-width="1" />
<path d="M-77.0,-23.0 L-83.0,-17.0 L-100.0,-0.0" fill-opacity="0" stroke="black" stroke-width="1" />
<path d="M-77.0,23.0 L-83.0,17.0 L-100.0,-0.0" fill-opacity="0" stroke="black" stroke-width="1" />
<circle cx="0" cy="-97" r="8" stroke-dasharray="39.653880605311166 10.611601852125524" stroke-dashoffset="-17.59291886010284" stroke="black" stroke-width="1" fill="white" fill-opacity="1" />
<circle cx="0" cy="-97" r="4" stroke="black" stroke-width="1" fill="white" fill-opacity="1" />
</svg>