<?xml version="1.0" encoding="UTF-8"?>
<svg xmlns="http://www.w3.org/2000/svg" xmlns:xlink="http://www.w3.org/1999/xlink"
     width="250" height="250" viewBox="-125.0 -125.0 250 250">
<defs>
</defs>
<path d="M16.0,84.0 L14.0,86.0 L6.917998186093199,86.71970987016475" fill-opacity="0" stroke="black" stroke-width="1" />
<path d="M16.0,-84.0 L14.0,-86.0 L6.917998186093199,-86.71970987016475" fill-opacity="0" stroke="black" stroke-width="1" />
<path d="M35.0,65.0 L23.0,77.0 L11.798497072499408,80.31901539891089" fill-opacity="0" stroke="black" stroke-width="1" />
<path d="M35.0,-65.0 L23.0,-77.0 L11.798497072499408,-80.31901539891089" fill-opacity="0" stroke="black" stroke-width="1" />
<path d="M26.0,-0.0 L28.208571580751684,-12.71652133959086 L29.04701809948291,-12.97020399612227" fill-opacity="0" stroke="black" stroke-width="1" />
<path d="M26.0,-0.0 L28.208571580751684,12.71652133959086 L29.04701809948291,12.97020399612227" fill-opacity="0" stroke="black" stroke-width="1" />
<path d="M28.208571580751684,-12.71652133959086 L29.04701809948291,-12.97020399612227 L32.507494689467634,-12.986280700167384" fill-opacity="0" stroke="black" stroke-width="1" />
<path d="M28.208571580751684,12.71652133959086 L29.04701809948291,12.97020399612227 L32.507494689467634,12.986280700167384" fill-opacity="0" stroke="black" stroke-width="1" />
<path d="M29.04701809948291,-12.97020399612227 L32.507494689467634,-12.986280700167384 L33.0,-0.0" fill-opacity="0" stroke="black" stroke-width="1" />
<path d="M29.04701809948291,12.97020399612227 L32.507494689467634,12.986280700167384 L33.0,-0.0" fill-opacity="0" stroke="black" stroke-width="1" />
<path d="M50.0,-15.0 L33.13132958899856,-16.955813145253863 L36.12564254215361,-17.3057500040274" fill-opacity="0" stroke="black" stroke-width="1" />
<path d="M50.0,15.0 L33.13132958899856,16.955813145253863 L36.12564254215361,17.3057500040274" fill-opacity="0" stroke="black" stroke-width="1" />
<path d="M33.13132958899856,-16.955813145253863 L36.12564254215361,-17.3057500040274 L50.0,-19.0" fill-opacity="0" stroke="black" stroke-width="1" />
<path d="M33.13132958899856,16.955813145253863 L36.12564254215361,17.3057500040274 L50.0,19.0" fill-opacity="0" stroke="black" stroke-width="1" />
<path d="M50.0,-19.0 L37.26426973180532,-20.58429578210692 L39.27960746184338,-22.252225782530527" fill-opacity="0" stroke="black" stroke-width="1" />
<path d="M50.0,19.0 L37.26426973180532,20.58429578210692 L39.27960746184338,22.252225782530527" fill-opacity="0" stroke="black" stroke-width="1" />
<path d="M37.26426973180532,-20.58429578210692 L39.27960746184338,-22.252225782530527 L50.0,-23.0" fill-opacity="0" stroke="black" stroke-width="1" />
<path d="M37.26426973180532,20.58429578210692 L39.27960746184338,22.252225782530527 L50.0,23.0" fill-opacity="0" stroke="black" stroke-width="1" />
<path d="M50.0,-23.0 L46.41011159668194,-23.002652854135476 L47.776879837108396,-23.835650424257167" fill-opacity="0" stroke="black" stroke-width="1" />
<path d="M50.0,23.0 L46.41011159668194,23.002652854135476 L47.776879837108396,23.835650424257167" fill-opacity="0" stroke="black" stroke-width="1" />
<path d="M46.41011159668194,-23.002652854135476 L47.776879837108396,-23.835650424257167 L50.0,-37.0" fill-opacity="0" stroke="black" stroke-width="1" />
<path d="M46.41011159668194,23.002652854135476 L47.776879837108396,23.835650424257167 L50.0,37.0" fill-opacity="0" stroke="black" stroke-width="1" />
<path d="M50.0,-37.0 L49.8424674918331,-38.551632560614166 L50.0,-41.0" fill-opacity="0" stroke="black" stroke-width="1" />
<path d="M50.0,37.0 L49.8424674918331,38.551632560614166 L50.0,41.0" fill-opacity="0" stroke="black" stroke-width="1" />
<path d="M50.0,50.0 L49.0,51.0 L44.0,56.0" fill-opacity="0" stroke="black" stroke-width="1" />
<path d="M50.0,-50.0 L49.0,-51.0 L44.0,-56.0" fill-opacity="0" stroke="black" stroke-width="1" />
<path d="M49.0,51.0 L44.0,56.0 L35.0,65.0" fill-opacity="0" stroke="black" stroke-width="1" />
<path d="M49.0,-51.0 L44.0,-56.0 L35.0,-65.0" fill-opacity="0" stroke="black" stroke-width="1" />
<path d="M44.0,56.0 L35.0,65.0 L23.0,77.0" fill-opacity="0" stroke="black" stroke-width="1" />
<path d="M44.0,-56.0 L35.0,-65.0 L23.0,-77.0" fill-opacity="0" stroke="black" stroke-width="1" />
<path d="M23.0,-23.0 L19.6809846010891,-11.798497072499408 L16.0,-16.0" fill-opacity="0" stroke="black" stroke-width="1" />
<path d="M23.0,23.0 L19.6809846010891,11.798497072499408 L16.0,16.0" fill-opacity="0" stroke="black" stroke-width="1" />
<path d="M11.798497072499408,80.31901539891089 L16.0,84.0 L14.0,86.0" fill-opacity="0" stroke="black" stroke-width="1" />
<path d="M11.798497072499408,-80.31901539891089 L16.0,-84.0 L14.0,-86.0" fill-opacity="0" stroke="black" stroke-width="1" />
<path d="M14.0,-14.0 L13.280290129835247,-6.917998186093199 L8.134037817649691,-6.22205738437703" fill-opacity="0" stroke="black" stroke-width="1" />
<path d="M14.0,14.0 L13.280290129835247,6.917998186093199 L8.134037817649691,6.22205738437703" fill-opacity="0" stroke="black" stroke-width="1" />
<path d="M13.280290129835247,-6.917998186093199 L8.134037817649691,-6.22205738437703 L5.226982229012645,-1.0281017464353934" fill-opacity="0" stroke="black" stroke-width="1" />
<path d="M13.280290129835247,6.917998186093199 L8.134037817649691,6.22205738437703 L5.226982229012645,1.0281017464353934" fill-opacity="0" stroke="black" stroke-width="1" />
<path d="M8.134037817649691,-6.22205738437703 L5.226982229012645,-1.0281017464353934 L4.0,-4.0" fill-opacity="0" stroke="black" stroke-width="1" />
<path d="M8.134037817649691,6.22205738437703 L5.226982229012645,1.0281017464353934 L4.0,4.0" fill-opacity="0" stroke="black" stroke-width="1" />
<path d="M1.0281017464353934,94.77301777098735 L4.0,96.0 L0.6183855296043724,97.33227338356986" fill-opacity="0" stroke="black" stroke-width="1" />
<path d="M1.0281017464353934,-94.77301777098735 L4.0,-96.0 L0.6183855296043724,-97.33227338356986" fill-opacity="0" stroke="black" stroke-width="1" />
<path d="M4.0,-4.0 L2.667726616430144,-0.6183855296043724 L2.44387895738058,-0.39502806161761317" fill-opacity="0" stroke="black" stroke-width="1" />
<path d="M4.0,4.0 L2.667726616430144,0.6183855296043724 L2.44387895738058,0.39502806161761317" fill-opacity="0" stroke="black" stroke-width="1" />
<path d="M2.667726616430144,-0.6183855296043724 L2.44387895738058,-0.39502806161761317 L2.1711757886595793,-0.39106611016718784" fill-opacity="0" stroke="black" stroke-width="1" />
<path d="M2.667726616430144,0.6183855296043724 L2.44387895738058,0.39502806161761317 L2.1711757886595793,0.39106611016718784" fill-opacity="0" stroke="black" stroke-width="1" />
<path d="M2.44387895738058,-0.39502806161761317 L2.1711757886595793,-0.39106611016718784 L1.5452550722051817,-0.28946083294706315" fill-opacity="0" stroke="black" stroke-width="1" />
<path d="M2.44387895738058,0.39502806161761317 L2.1711757886595793,0.39106611016718784 L1.5452550722051817,0.28946083294706315" fill-opacity="0" stroke="black" stroke-width="1" />
<path d="M2.1711757886595793,-0.39106611016718784 L1.5452550722051817,-0.28946083294706315 L1.3995000672916869,-0.10882572311744551" fill-opacity="0" stroke="black" stroke-width="1" />
<path d="M2.1711757886595793,0.39106611016718784 L1.5452550722051817,0.28946083294706315 L1.3995000672916869,0.10882572311744551" fill-opacity="0" stroke="black" stroke-width="1" />
<path d="M1.5452550722051817,-0.28946083294706315 L1.3995000672916869,-0.10882572311744551 L1.0,-1.0" fill-opacity="0" stroke="black" stroke-width="1" />
<path d="M1.5452550722051817,0.28946083294706315 L1.3995000672916869,0.10882572311744551 L1.0,1.0" fill-opacity="0" stroke="black" stroke-width="1" />
<path d="M0.10882572311744551,98.60049993270832 L1.0,99.0 L0.0,100.0" fill-opacity="0" stroke="black" stroke-width="1" />
<path d="M0.10882572311744551,-98.60049993270832 L1.0,-99.0 L0.0,-100.0" fill-opacity="0" stroke="black" stroke-width="1" />
<path d="M-16.0,84.0 L-14.0,86.0 L-6.917998186093199,86.71970987016475" fill-opacity="0" stroke="black" stroke-width="1" />
<path d="M-16.0,-84.0 L-14.0,-86.0 L-6.917998186093199,-86.71970987016475" fill-opacity="0" stroke="black" stroke-width="1" />
<path d="M-35.0,65.0 L-23.0,77.0 L-11.798497072499408,80.31901539891089" fill-opacity="0" stroke="black" stroke-width="1" />
<path d="M-35.0,-65.0 L-23.0,-77.0 L-11.798497072499408,-80.31901539891089" fill-opacity="0" stroke="black" stroke-width="1" />
<path d="M-26.0,-0.0 L-28.208571580751684,-12.71652133959086 L-29.04701809948291,-12.97020399612227" fill-opacity="0" stroke="black" stroke-width="1" />
<path d="M-26.0,-0.0 L-28.208571580751684,12.71652133959086 L-29.04701809948291,12.97020399612227" fill-opacity="0" stroke="black" stroke-width="1" />
<path d="M-28.208571580751684,-12.71652133959086 L-29.04701809948291,-12.97020399612227 L-32.507494689467634,-12.986280700167384" fill-opacity="0" stroke="black" stroke-width="1" />
<path d="M-28.208571580751684,12.71652133959086 L-29.04701809948291,12.97020399612227 L-32.507494689467634,12.986280700167384" fill-opacity="0" stroke="black" stroke-width="1" />
<path d="M-29.04701809948291,-12.97020399612227 L-32.507494689467634,-12.986280700167384 L-33.0,-0.0" fill-opacity="0" stroke="black" stroke-width="1" />
<path d="M-29.04701809948291,12.97020399612227 L-32.507494689467634,12.986280700167384 L-33.0,-0.0" fill-opacity="0" stroke="black" stroke-width="1" />
<path d="M-50.0,-15.0 L-33.13132958899856,-16.955813145253863 L-36.12564254215361,-17.3057500040274" fill-opacity="0" stroke="black" stroke-width="1" />
<path d="M-50.0,15.0 L-33.13132958899856,16.955813145253863 L-36.12564254215361,17.3057500040274" fill-opacity="0" stroke="black" stroke-width="1" />
<path d="M-33.13132958899856,-16.955813145253863 L-36.12564254215361,-17.3057500040274 L-50.0,-19.0" fill-opacity="0" stroke="black" stroke-width="1" />
<path d="M-33.13132958899856,16.955813145253863 L-36.12564254215361,17.3057500040274 L-50.0,19.0" fill-opacity="0" stroke="black" stroke-width="1" />
<path d="M-50.0,-19.0 L-37.26426973180532,-20.58429578210692 L-39.27960746184338,-22.252225782530527" fill-opacity="0" stroke="black" stroke-width="1" />
<path d="M-50.0,19.0 L-37.26426973180532,20.58429578210692 L-39.27960746184338,22.252225782530527" fill-opacity="0" stroke="black" stroke-width="1" />
<path d="M-37.26426973180532,-20.58429578210692 L-39.27960746184338,-22.252225782530527 L-50.0,-23.0" fill-opacity="0" stroke="black" stroke-width="1" />
<path d="M-37.26426973180532,20.58429578210692 L-39.27960746184338,22.252225782530527 L-50.0,23.0" fill-opacity="0" stroke="black" stroke-width="1" />
<path d="M-50.0,-23.0 L-46.41011159668194,-23.002652854135476 L-47.776879837108396,-23.835650424257167" fill-opacity="0" stroke="black" stroke-width="1" />
<path d="M-50.0,23.0 L-46.41011159668194,23.002652854135476 L-47.776879837108396,23.835650424257167" fill-opacity="0" stroke="black" stroke-width="1" />
<path d="M-46.41011159668194,-23.002652854135476 L-47.776879837108396,-23.835650424257167 L-50.0,-37.0" fill-opacity="0" stroke="black" stroke-width="1" />
<path d="M-46.41011159668194,23.002652854135476 L-47.776879837108396,23.835650424257167 L-50.0,37.0" fill-opacity="0" stroke="black" stroke-width="1" />
<path d="M-50.0,-37.0 L-49.8424674918331,-38.551632560614166 L-50.0,-41.0" fill-opacity="0" stroke="black" stroke-width="1" />
<path d="M-50.0,37.0 L-49.8424674918331,38.551632560614166 L-50.0,41.0" fill-opacity="0" stroke="black" stroke-width="1" />
<path d="M-50.0,50.0 L-49.0,51.0 L-44.0,56.0" fill-opacity="0" stroke="black" stroke-width="1" />
<path d="M-50.0,-50.0 L-49.0,-51.0 L-44.0,-56.0" fill-opacity="0" stroke="black" stroke-width="1" />
<path d="M-49.0,51.0 L-44.0,56.0 L-35.0,65.0" fill-opacity="0" stroke="black" stroke-width="1" />
<path d="M-49.0,-51.0 L-44.0,-56.0 L-35.0,-65.0" fill-opacity="0" stroke="black" stroke-width="1" />
<path d="M-44.0,56.0 L-35.0,65.0 L-23.0,77.0" fill-opacity="0" stroke="black" stroke-width="1" />
<path d="M-44.0,-56.0 L-35.0,-65.0 L-23.0,-77.0" fill-opacity="0" stroke="black" stroke-width="1" />
<path d="M-23.0,-23.0 L-19.6809846010891,-11.798497072499408 L-16.0,-16.0" fill-opacity="0" stroke="black" stroke-width="1" />
<path d="M-23.0,23.0 L-19.6809846010891,11.798497072499408 L-16.0,16.0" fill-opacity="0" stroke="black" stroke-width="1" />
<path d="M-11.798497072499408,80.31901539891089 L-16.0,84.0 L-14.0,86.0" fill-opacity="0" stroke="black" stroke-width="1" />
<path d="M-11.798497072499408,-80.31901539891089 L-16.0,-84.0 L-14.0,-86.0" fill-opacity="0" stroke="black" stroke-width="1" />
<path d="M-14.0,-14.0 L-13.280290129835247,-6.917998186093199 L-8.134037817649691,-6.22205738437703" fill-opacity="0" stroke="black" stroke-width="1" />
<path d="M-14.0,14.0 L-13.280290129835247,6.917998186093199 L-8.134037817649691,6.22205738437703" fill-opacity="0" stroke="black" stroke-width="1" />
<path d="M-13.280290129835247,-6.917998186093199 L-8.134037817649691,-6.22205738437703 L-5.226982229012645,-1.0281017464353934" fill-opacity="0" stroke="black" stroke-width="1" />
<path d="M-13.280290129835247,6.917998186093199 L-8.134037817649691,6.22205738437703 L-5.226982229012645,1.0281017464353934" fill-opacity="0" stroke="black" stroke-width="1" />
<path d="M-8.134037817649691,-6.22205738437703 L-5.226982229012645,-1.0281017464353934 L-4.0,-4.0" fill-opacity="0" stroke="black" stroke-width="1" />
<path d="M-8.134037817649691,6.22205738437703 L-5.226982229012645,1.0281017464353934 L-4.0,4.0" fill-opacity="0" stroke="black" stroke-width="1" />
<path d="M-1.0281017464353934,94.77301777098735 L-4.0,96.0 L-0.6183855296043724,97.33227338356986" fill-opacity="0" stroke="black" stroke-width="1" />
<path d="M-1.0281017464353934,-94.77301777098735 L-4.0,-96.0 L-0.6183855296043724,-97.33227338356986" fill-opacity="0" stroke="black" stroke-width="1" />
<path d="M-4.0,-4.0 L-2.667726616430144,-0.6183855296043724 L-2.44387895738058,-0.39502806161761317" fill-opacity="0" stroke="black" stroke-width="1" />
<path d="M-4.0,4.0 L-2.667726616430144,0.6183855296043724 L-2.44387895738058,0.39502806161761317" fill-opacity="0" stroke="black" stroke-width="1" />
<path d="M-2.667726616430144,-0.6183855296043724 L-2.44387895738058,-0.39502806161761317 L-2.1711757886595793,-0.39106611016718784" fill-opacity="0" stroke="black" stroke-width="1" />
<path d="M-2.667726616430144,0.6183855296043724 L-2.44387895738058,0.39502806161761317 L-2.1711757886595793,0.39106611016718784" fill-opacity="0" stroke="black" stroke-width="1" />
<path d="M-2.44387895738058,-0.39502806161761317 L-2.1711757886595793,-0.39106611016718784 L-1.5452550722051817,-0.28946083294706315" fill-opacity="0" stroke="black" stroke-width="1" />
<path d="M-2.44387895738058,0.39502806161761317 L-2.1711757886595793,0.39106611016718784 L-1.5452550722051817,0.28946083294706315" fill-opacity="0" stroke="black" stroke-width="1" />
<path d="M-2.1711757886595793,-0.39106611016718784 L-1.5452550722051817,-0.28946083294706315 L-1.3995000672916869,-0.10882572311744551" fill-opacity="0" stroke="black" stroke-width="1" />
<path d="M-2.1711757886595793,0.39106611016718784 L-1.5452550722051817,0.28946083294706315 L-1.3995000672916869,0.10882572311744551" fill-opacity="0" stroke="black" stroke-width="1" />
<path d="M-1.5452550722051817,-0.28946083294706315 L-1.3995000672916869,-0.10882572311744551 L-1.0,-1.0" fill-opacity="0" stroke="black" stroke-width="1" />
<path d="M-1.5452550722051817,0.28946083294706315 L-1.3995000672916869,0.10882572311744551 L-1.0,1.0" fill-opacity="0" stroke="black" stroke-width="1" />
<path d="M-0.10882572311744551,98.60049993270832 L-1.0,99.0 L0.0,100.0" fill-opacity="0" stroke="black" stroke-width="1" />
<path d="M-0.10882572311744551,-98.60049993270832 L-1.0,-99.0 L0.0,-100.0" fill-opacity="0" stroke="black" stroke-width="1" />
<path d="M84.0,16.0 L86.0,14.0 L86.71970987016475,6.917998186093199" fill-opacity="0" stroke="black" stroke-width="1" />
<path d="M84.0,-16.0 L86.0,-14.0 L86.71970987016475,-6.917998186093199" fill-opacity="0" stroke="black" stroke-width="1" />
<path d="M65.0,35.0 L77.0,23.0 L80.31901539891089,11.798497072499408" fill-opacity="0" stroke="black" stroke-width="1" />
<path d="M65.0,-35.0 L77.0,-23.0 L80.31901539891089,-11.798497072499408" fill-opacity="0" stroke="black" stroke-width="1" />
<path d="M74.0,-0.0 L71.79142841924832,12.71652133959086 L70.95298190051709,12.97020399612227" fill-opacity="0" stroke="black" stroke-width="1" />
<path d="M74.0,-0.0 L71.79142841924832,-12.71652133959086 L70.95298190051709,-12.97020399612227" fill-opacity="0" stroke="black" stroke-width="1" />
<path d="M71.79142841924832,12.71652133959086 L70.95298190051709,12.97020399612227 L67.49250531053237,12.986280700167384" fill-opacity="0" stroke="black" stroke-width="1" />
<path d="M71.79142841924832,-12.71652133959086 L70.95298190051709,-12.97020399612227 L67.49250531053237,-12.986280700167384" fill-opacity="0" stroke="black" stroke-width="1" />
<path d="M70.95298190051709,12.97020399612227 L67.49250531053237,12.986280700167384 L67.0,-0.0" fill-opacity="0" stroke="black" stroke-width="1" />
<path d="M70.95298190051709,-12.97020399612227 L67.49250531053237,-12.986280700167384 L67.0,-0.0" fill-opacity="0" stroke="black" stroke-width="1" />
<path d="M50.0,15.0 L66.86867041100143,16.955813145253863 L63.87435745784639,17.3057500040274" fill-opacity="0" stroke="black" stroke-width="1" />
<path d="M50.0,-15.0 L66.86867041100143,-16.955813145253863 L63.87435745784639,-17.3057500040274" fill-opacity="0" stroke="black" stroke-width="1" />
<path d="M66.86867041100143,16.955813145253863 L63.87435745784639,17.3057500040274 L50.0,19.0" fill-opacity="0" stroke="black" stroke-width="1" />
<path d="M66.86867041100143,-16.955813145253863 L63.87435745784639,-17.3057500040274 L50.0,-19.0" fill-opacity="0" stroke="black" stroke-width="1" />
<path d="M50.0,19.0 L62.73573026819468,20.58429578210692 L60.72039253815662,22.252225782530527" fill-opacity="0" stroke="black" stroke-width="1" />
<path d="M50.0,-19.0 L62.73573026819468,-20.58429578210692 L60.72039253815662,-22.252225782530527" fill-opacity="0" stroke="black" stroke-width="1" />
<path d="M62.73573026819468,20.58429578210692 L60.72039253815662,22.252225782530527 L50.0,23.0" fill-opacity="0" stroke="black" stroke-width="1" />
<path d="M62.73573026819468,-20.58429578210692 L60.72039253815662,-22.252225782530527 L50.0,-23.0" fill-opacity="0" stroke="black" stroke-width="1" />
<path d="M50.0,23.0 L53.58988840331806,23.002652854135476 L52.223120162891604,23.835650424257167" fill-opacity="0" stroke="black" stroke-width="1" />
<path d="M50.0,-23.0 L53.58988840331806,-23.002652854135476 L52.223120162891604,-23.835650424257167" fill-opacity="0" stroke="black" stroke-width="1" />
<path d="M53.58988840331806,23.002652854135476 L52.223120162891604,23.835650424257167 L50.0,37.0" fill-opacity="0" stroke="black" stroke-width="1" />
<path d="M53.58988840331806,-23.002652854135476 L52.223120162891604,-23.835650424257167 L50.0,-37.0" fill-opacity="0" stroke="black" stroke-width="1" />
<path d="M50.0,37.0 L50.1575325081669,38.551632560614166 L50.0,41.0" fill-opacity="0" stroke="black" stroke-width="1" />
<path d="M50.0,-37.0 L50.1575325081669,-38.551632560614166 L50.0,-41.0" fill-opacity="0" stroke="black" stroke-width="1" />
<path d="M50.0,50.0 L51.0,49.0 L56.0,44.0" fill-opacity="0" stroke="black" stroke-width="1" />
<path d="M50.0,-50.0 L51.0,-49.0 L56.0,-44.0" fill-opacity="0" stroke="black" stroke-width="1" />
<path d="M51.0,49.0 L56.0,44.0 L65.0,35.0" fill-opacity="0" stroke="black" stroke-width="1" />
<path d="M51.0,-49.0 L56.0,-44.0 L65.0,-35.0" fill-opacity="0" stroke="black" stroke-width="1" />
<path d="M56.0,44.0 L65.0,35.0 L77.0,23.0" fill-opacity="0" stroke="black" stroke-width="1" />
<path d="M56.0,-44.0 L65.0,-35.0 L77.0,-23.0" fill-opacity="0" stroke="black" stroke-width="1" />
<path d="M77.0,23.0 L80.31901539891089,11.798497072499408 L84.0,16.0" fill-opacity="0" stroke="black" stroke-width="1" />
<path d="M77.0,-23.0 L80.31901539891089,-11.798497072499408 L84.0,-16.0" fill-opacity="0" stroke="black" stroke-width="1" />
<path d="M80.31901539891089,11.798497072499408 L84.0,16.0 L86.0,14.0" fill-opacity="0" stroke="black" stroke-width="1" />
<path d="M80.31901539891089,-11.798497072499408 L84.0,-16.0 L86.0,-14.0" fill-opacity="0" stroke="black" stroke-width="1" />
<path d="M86.0,14.0 L86.71970987016475,6.917998186093199 L91.8659621823503,6.22205738437703" fill-opacity="0" stroke="black" stroke-width="1" />
<path d="M86.0,-14.0 L86.71970987016475,-6.917998186093199 L91.8659621823503,-6.22205738437703" fill-opacity="0" stroke="black" stroke-width="1" />
<path d="M86.71970987016475,6.917998186093199 L91.8659621823503,6.22205738437703 L94.77301777098735,1.0281017464353934" fill-opacity="0" stroke="black" stroke-width="1" />
<path d="M86.71970987016475,-6.917998186093199 L91.8659621823503,-6.22205738437703 L94.77301777098735,-1.0281017464353934" fill-opacity="0" stroke="black" stroke-width="1" />
<path d="M91.8659621823503,6.22205738437703 L94.77301777098735,1.0281017464353934 L96.0,4.0" fill-opacity="0" stroke="black" stroke-width="1" />
<path d="M91.8659621823503,-6.22205738437703 L94.77301777098735,-1.0281017464353934 L96.0,-4.0" fill-opacity="0" stroke="black" stroke-width="1" />
<path d="M94.77301777098735,1.0281017464353934 L96.0,4.0 L97.33227338356986,0.6183855296043724" fill-opacity="0" stroke="black" stroke-width="1" />
<path d="M94.77301777098735,-1.0281017464353934 L96.0,-4.0 L97.33227338356986,-0.6183855296043724" fill-opacity="0" stroke="black" stroke-width="1" />
<path d="M96.0,4.0 L97.33227338356986,0.6183855296043724 L97.55612104261942,0.39502806161761317" fill-opacity="0" stroke="black" stroke-width="1" />
<path d="M96.0,-4.0 L97.33227338356986,-0.6183855296043724 L97.55612104261942,-0.39502806161761317" fill-opacity="0" stroke="black" stroke-width="1" />
<path d="M97.33227338356986,0.6183855296043724 L97.55612104261942,0.39502806161761317 L97.82882421134042,0.39106611016718784" fill-opacity="0" stroke="black" stroke-width="1" />
<path d="M97.33227338356986,-0.6183855296043724 L97.55612104261942,-0.39502806161761317 L97.82882421134042,-0.39106611016718784" fill-opacity="0" stroke="black" stroke-width="1" />
<path d="M97.55612104261942,0.39502806161761317 L97.82882421134042,0.39106611016718784 L98.45474492779482,0.28946083294706315" fill-opacity="0" stroke="black" stroke-width="1" />
<path d="M97.55612104261942,-0.39502806161761317 L97.82882421134042,-0.39106611016718784 L98.45474492779482,-0.28946083294706315" fill-opacity="0" stroke="black" stroke-width="1" />
<path d="M97.82882421134042,0.39106611016718784 L98.45474492779482,0.28946083294706315 L98.60049993270832,0.10882572311744551" fill-opacity="0" stroke="black" stroke-width="1" />
<path d="M97.82882421134042,-0.39106611016718784 L98.45474492779482,-0.28946083294706315 L98.60049993270832,-0.10882572311744551" fill-opacity="0" stroke="black" stroke-width="1" />
<path d="M98.45474492779482,0.28946083294706315 L98.60049993270832,0.10882572311744551 L99.0,1.0" fill-opacity="0" stroke="black" stroke-width="1" />
<path d="M98.45474492779482,-0.28946083294706315 L98.60049993270832,-0.10882572311744551 L99.0,-1.0" fill-opacity="0" stroke="black" stroke-width="1" />
<path d="M98.60049993270832,0.10882572311744551 L99.0,1.0 L100.0,-0.0" fill-opacity="0" stroke="black" stroke-width="1" />
<path d="M98.60049993270832,-0.10882572311744551 L99.0,-1.0 L100.0,-0.0" fill-opacity="0" stroke="black" stroke-width="1" />
<path d="M0.0,-26.0 L12.71652133959086,-28.208571580751684 L12.97020399612227,-29.04701809948291" fill-opacity="0" stroke="black" stroke-width="1" />
<path d="M0.0,26.0 L12.71652133959086,28.208571580751684 L12.97020399612227,29.04701809948291" fill-opacity="0" stroke="black" stroke-width="1" />
<path d="M0.0,74.0 L12.71652133959086,71.79142841924832 L12.97020399612227,70.95298190051709" fill-opacity="0" stroke="black" stroke-width="1" />
<path d="M0.0,-74.0 L12.71652133959086,-71.79142841924832 L12.97020399612227,-70.95298190051709" fill-opacity="0" stroke="black" stroke-width="1" />
<path d="M12.71652133959086,-28.208571580751684 L12.97020399612227,-29.04701809948291 L12.986280700167384,-32.507494689467634" fill-opacity="0" stroke="black" stroke-width="1" />
<path d="M12.71652133959086,28.208571580751684 L12.97020399612227,29.04701809948291 L12.986280700167384,32.507494689467634" fill-opacity="0" stroke="black" stroke-width="1" />
<path d="M12.71652133959086,71.79142841924832 L12.97020399612227,70.95298190051709 L12.986280700167384,67.49250531053237" fill-opacity="0" stroke="black" stroke-width="1" />
<path d="M12.71652133959086,-71.79142841924832 L12.97020399612227,-70.95298190051709 L12.986280700167384,-67.49250531053237" fill-opacity="0" stroke="black" stroke-width="1" />
<path d="M12.97020399612227,-29.04701809948291 L12.986280700167384,-32.507494689467634 L0.0,-33.0" fill-opacity="0" stroke="black" stroke-width="1" />
<path d="M12.97020399612227,29.04701809948291 L12.986280700167384,32.507494689467634 L0.0,33.0" fill-opacity="0" stroke="black" stroke-width="1" />
<path d="M12.97020399612227,70.95298190051709 L12.986280700167384,67.49250531053237 L0.0,67.0" fill-opacity="0" stroke="black" stroke-width="1" />
<path d="M12.97020399612227,-70.95298190051709 L12.986280700167384,-67.49250531053237 L0.0,-67.0" fill-opacity="0" stroke="black" stroke-width="1" />
<path d="M15.0,-50.0 L16.955813145253863,-33.13132958899856 L17.3057500040274,-36.12564254215361" fill-opacity="0" stroke="black" stroke-width="1" />
<path d="M15.0,50.0 L16.955813145253863,33.13132958899856 L17.3057500040274,36.12564254215361" fill-opacity="0" stroke="black" stroke-width="1" />
<path d="M15.0,50.0 L16.955813145253863,66.86867041100143 L17.3057500040274,63.87435745784639" fill-opacity="0" stroke="black" stroke-width="1" />
<path d="M15.0,-50.0 L16.955813145253863,-66.86867041100143 L17.3057500040274,-63.87435745784639" fill-opacity="0" stroke="black" stroke-width="1" />
<path d="M16.955813145253863,-33.13132958899856 L17.3057500040274,-36.12564254215361 L19.0,-50.0" fill-opacity="0" stroke="black" stroke-width="1" />
<path d="M16.955813145253863,33.13132958899856 L17.3057500040274,36.12564254215361 L19.0,50.0" fill-opacity="0" stroke="black" stroke-width="1" />
<path d="M16.955813145253863,66.86867041100143 L17.3057500040274,63.87435745784639 L19.0,50.0" fill-opacity="0" stroke="black" stroke-width="1" />
<path d="M16.955813145253863,-66.86867041100143 L17.3057500040274,-63.87435745784639 L19.0,-50.0" fill-opacity="0" stroke="black" stroke-width="1" />
<path d="M19.0,-50.0 L20.58429578210692,-37.26426973180532 L22.252225782530527,-39.27960746184338" fill-opacity="0" stroke="black" stroke-width="1" />
<path d="M19.0,50.0 L20.58429578210692,37.26426973180532 L22.252225782530527,39.27960746184338" fill-opacity="0" stroke="black" stroke-width="1" />
<path d="M19.0,50.0 L20.58429578210692,62.73573026819468 L22.252225782530527,60.72039253815662" fill-opacity="0" stroke="black" stroke-width="1" />
<path d="M19.0,-50.0 L20.58429578210692,-62.73573026819468 L22.252225782530527,-60.72039253815662" fill-opacity="0" stroke="black" stroke-width="1" />
<path d="M20.58429578210692,-37.26426973180532 L22.252225782530527,-39.27960746184338 L23.0,-50.0" fill-opacity="0" stroke="black" stroke-width="1" />
<path d="M20.58429578210692,37.26426973180532 L22.252225782530527,39.27960746184338 L23.0,50.0" fill-opacity="0" stroke="black" stroke-width="1" />
<path d="M20.58429578210692,62.73573026819468 L22.252225782530527,60.72039253815662 L23.0,50.0" fill-opacity="0" stroke="black" stroke-width="1" />
<path d="M20.58429578210692,-62.73573026819468 L22.252225782530527,-60.72039253815662 L23.0,-50.0" fill-opacity="0" stroke="black" stroke-width="1" />
<path d="M23.0,-50.0 L23.002652854135476,-46.41011159668194 L23.835650424257167,-47.776879837108396" fill-opacity="0" stroke="black" stroke-width="1" />
<path d="M23.0,50.0 L23.002652854135476,46.41011159668194 L23.835650424257167,47.776879837108396" fill-opacity="0" stroke="black" stroke-width="1" />
<path d="M23.0,50.0 L23.002652854135476,53.58988840331806 L23.835650424257167,52.223120162891604" fill-opacity="0" stroke="black" stroke-width="1" />
<path d="M23.0,-50.0 L23.002652854135476,-53.58988840331806 L23.835650424257167,-52.223120162891604" fill-opacity="0" stroke="black" stroke-width="1" />
<path d="M23.002652854135476,-46.41011159668194 L23.835650424257167,-47.776879837108396 L37.0,-50.0" fill-opacity="0" stroke="black" stroke-width="1" />
<path d="M23.002652854135476,46.41011159668194 L23.835650424257167,47.776879837108396 L37.0,50.0" fill-opacity="0" stroke="black" stroke-width="1" />
<path d="M23.002652854135476,53.58988840331806 L23.835650424257167,52.223120162891604 L37.0,50.0" fill-opacity="0" stroke="black" stroke-width="1" />
<path d="M23.002652854135476,-53.58988840331806 L23.835650424257167,-52.223120162891604 L37.0,-50.0" fill-opacity="0" stroke="black" stroke-width="1" />
<path d="M37.0,-50.0 L38.551632560614166,-49.8424674918331 L41.0,-50.0" fill-opacity="0" stroke="black" stroke-width="1" />
<path d="M37.0,50.0 L38.551632560614166,49.8424674918331 L41.0,50.0" fill-opacity="0" stroke="black" stroke-width="1" />
<path d="M37.0,50.0 L38.551632560614166,50.1575325081669 L41.0,50.0" fill-opacity="0" stroke="black" stroke-width="1" />
<path d="M37.0,-50.0 L38.551632560614166,-50.1575325081669 L41.0,-50.0" fill-opacity="0" stroke="black" stroke-width="1" />
<path d="M23.0,-23.0 L11.798497072499408,-19.6809846010891 L16.0,-16.0" fill-opacity="0" stroke="black" stroke-width="1" />
<path d="M23.0,23.0 L11.798497072499408,19.6809846010891 L16.0,16.0" fill-opacity="0" stroke="black" stroke-width="1" />
<path d="M23.0,77.0 L11.798497072499408,80.31901539891089 L16.0,84.0" fill-opacity="0" stroke="black" stroke-width="1" />
<path d="M23.0,-77.0 L11.798497072499408,-80.31901539891089 L16.0,-84.0" fill-opacity="0" stroke="black" stroke-width="1" />
<path d="M14.0,-14.0 L6.917998186093199,-13.280290129835247 L6.22205738437703,-8.134037817649691" fill-opacity="0" stroke="black" stroke-width="1" />
<path d="M14.0,14.0 L6.917998186093199,13.280290129835247 L6.22205738437703,8.134037817649691" fill-opacity="0" stroke="black" stroke-width="1" />
<path d="M14.0,86.0 L6.917998186093199,86.71970987016475 L6.22205738437703,91.8659621823503" fill-opacity="0" stroke="black" stroke-width="1" />
<path d="M14.0,-86.0 L6.917998186093199,-86.71970987016475 L6.22205738437703,-91.8659621823503" fill-opacity="0" stroke="black" stroke-width="1" />
<path d="M6.917998186093199,-13.280290129835247 L6.22205738437703,-8.134037817649691 L1.0281017464353934,-5.226982229012645" fill-opacity="0" stroke="black" stroke-width="1" />
<path d="M6.917998186093199,13.280290129835247 L6.22205738437703,8.134037817649691 L1.0281017464353934,5.226982229012645" fill-opacity="0" stroke="black" stroke-width="1" />
<path d="M6.917998186093199,86.71970987016475 L6.22205738437703,91.8659621823503 L1.0281017464353934,94.77301777098735" fill-opacity="0" stroke="black" stroke-width="1" />
<path d="M6.917998186093199,-86.71970987016475 L6.22205738437703,-91.8659621823503 L1.0281017464353934,-94.77301777098735" fill-opacity="0" stroke="black" stroke-width="1" />
<path d="M6.22205738437703,-8.134037817649691 L1.0281017464353934,-5.226982229012645 L4.0,-4.0" fill-opacity="0" stroke="black" stroke-width="1" />
<path d="M6.22205738437703,8.134037817649691 L1.0281017464353934,5.226982229012645 L4.0,4.0" fill-opacity="0" stroke="black" stroke-width="1" />
<path d="M6.22205738437703,91.8659621823503 L1.0281017464353934,94.77301777098735 L4.0,96.0" fill-opacity="0" stroke="black" stroke-width="1" />
<path d="M6.22205738437703,-91.8659621823503 L1.0281017464353934,-94.77301777098735 L4.0,-96.0" fill-opacity="0" stroke="black" stroke-width="1" />
<path d="M4.0,-4.0 L0.6183855296043724,-2.667726616430144 L0.39502806161761317,-2.44387895738058" fill-opacity="0" stroke="black" stroke-width="1" />
<path d="M4.0,4.0 L0.6183855296043724,2.667726616430144 L0.39502806161761317,2.44387895738058" fill-opacity="0" stroke="black" stroke-width="1" />
<path d="M4.0,96.0 L0.6183855296043724,97.33227338356986 L0.39502806161761317,97.55612104261942" fill-opacity="0" stroke="black" stroke-width="1" />
<path d="M4.0,-96.0 L0.6183855296043724,-97.33227338356986 L0.39502806161761317,-97.55612104261942" fill-opacity="0" stroke="black" stroke-width="1" />
<path d="M0.6183855296043724,-2.667726616430144 L0.39502806161761317,-2.44387895738058 L0.39106611016718784,-2.1711757886595793" fill-opacity="0" stroke="black" stroke-width="1" />
<path d="M0.6183855296043724,2.667726616430144 L0.39502806161761317,2.44387895738058 L0.39106611016718784,2.1711757886595793" fill-opacity="0" stroke="black" stroke-width="1" />
<path d="M0.6183855296043724,97.33227338356986 L0.39502806161761317,97.55612104261942 L0.39106611016718784,97.82882421134042" fill-opacity="0" stroke="black" stroke-width="1" />
<path d="M0.6183855296043724,-97.33227338356986 L0.39502806161761317,-97.55612104261942 L0.39106611016718784,-97.82882421134042" fill-opacity="0" stroke="black" stroke-width="1" />
<path d="M0.39502806161761317,-2.44387895738058 L0.39106611016718784,-2.1711757886595793 L0.28946083294706315,-1.5452550722051817" fill-opacity="0" stroke="black" stroke-width="1" />
<path d="M0.39502806161761317,2.44387895738058 L0.39106611016718784,2.1711757886595793 L0.28946083294706315,1.5452550722051817" fill-opacity="0" stroke="black" stroke-width="1" />
<path d="M0.39502806161761317,97.55612104261942 L0.39106611016718784,97.82882421134042 L0.28946083294706315,98.45474492779482" fill-opacity="0" stroke="black" stroke-width="1" />
<path d="M0.39502806161761317,-97.55612104261942 L0.39106611016718784,-97.82882421134042 L0.28946083294706315,-98.45474492779482" fill-opacity="0" stroke="black" stroke-width="1" />
<path d="M0.39106611016718784,-2.1711757886595793 L0.28946083294706315,-1.5452550722051817 L0.10882572311744551,-1.3995000672916869" fill-opacity="0" stroke="black" stroke-width="1" />
<path d="M0.39106611016718784,2.1711757886595793 L0.28946083294706315,1.5452550722051817 L0.10882572311744551,1.3995000672916869" fill-opacity="0" stroke="black" stroke-width="1" />
<path d="M0.39106611016718784,97.82882421134042 L0.28946083294706315,98.45474492779482 L0.10882572311744551,98.60049993270832" fill-opacity="0" stroke="black" stroke-width="1" />
<path d="M0.39106611016718784,-97.82882421134042 L0.28946083294706315,-98.45474492779482 L0.10882572311744551,-98.60049993270832" fill-opacity="0" stroke="black" stroke-width="1" />
<path d="M0.28946083294706315,-1.5452550722051817 L0.10882572311744551,-1.3995000672916869 L1.0,-1.0" fill-opacity="0" stroke="black" stroke-width="1" />
<path d="M0.28946083294706315,1.5452550722051817 L0.10882572311744551,1.3995000672916869 L1.0,1.0" fill-opacity="0" stroke="black" stroke-width="1" />
<path d="M0.28946083294706315,98.45474492779482 L0.10882572311744551,98.60049993270832 L1.0,99.0" fill-opacity="0" stroke="black" stroke-width="1" />
<path d="M0.28946083294706315,-98.45474492779482 L0.10882572311744551,-98.60049993270832 L1.0,-99.0" fill-opacity="0" stroke="black" stroke-width="1" />
<path d="M0.0,74.0 L-12.71652133959086,71.79142841924832 L-12.97020399612227,70.95298190051709" fill-opacity="0" stroke="black" stroke-width="1" />
<path d="M0.0,-26.0 L-12.71652133959086,-28.208571580751684 L-12.97020399612227,-29.04701809948291" fill-opacity="0" stroke="black" stroke-width="1" />
<path d="M0.0,26.0 L-12.71652133959086,28.20857158075168 L-12.97020399612227,29.047018099482912" fill-opacity="0" stroke="black" stroke-width="1" />
<path d="M0.0,-74.0 L-12.71652133959086,-71.79142841924832 L-12.97020399612227,-70.95298190051709" fill-opacity="0" stroke="black" stroke-width="1" />
<path d="M-12.71652133959086,71.79142841924832 L-12.97020399612227,70.95298190051709 L-12.986280700167384,67.49250531053237" fill-opacity="0" stroke="black" stroke-width="1" />
<path d="M-12.71652133959086,-28.208571580751684 L-12.97020399612227,-29.04701809948291 L-12.986280700167384,-32.507494689467634" fill-opacity="0" stroke="black" stroke-width="1" />
<path d="M-12.71652133959086,28.20857158075168 L-12.97020399612227,29.047018099482912 L-12.986280700167384,32.507494689467634" fill-opacity="0" stroke="black" stroke-width="1" />
<path d="M-12.71652133959086,-71.79142841924832 L-12.97020399612227,-70.95298190051709 L-12.986280700167384,-67.49250531053237" fill-opacity="0" stroke="black" stroke-width="1" />
<path d="M-12.97020399612227,70.95298190051709 L-12.986280700167384,67.49250531053237 L0.0,67.0" fill-opacity="0" stroke="black" stroke-width="1" />
<path d="M-12.97020399612227,-29.04701809948291 L-12.986280700167384,-32.507494689467634 L0.0,-33.0" fill-opacity="0" stroke="black" stroke-width="1" />
<path d="M-12.97020399612227,29.047018099482912 L-12.986280700167384,32.507494689467634 L0.0,33.0" fill-opacity="0" stroke="black" stroke-width="1" />
<path d="M-12.97020399612227,-70.95298190051709 L-12.986280700167384,-67.49250531053237 L0.0,-67.0" fill-opacity="0" stroke="black" stroke-width="1" />
<path d="M-15.0,50.0 L-16.955813145253863,66.86867041100143 L-17.3057500040274,63.87435745784639" fill-opacity="0" stroke="black" stroke-width="1" />
<path d="M-15.0,-50.0 L-16.955813145253863,-33.13132958899856 L-17.3057500040274,-36.12564254215361" fill-opacity="0" stroke="black" stroke-width="1" />
<path d="M-15.0,50.0 L-16.955813145253863,33.13132958899857 L-17.3057500040274,36.12564254215361" fill-opacity="0" stroke="black" stroke-width="1" />
<path d="M-15.0,-50.0 L-16.955813145253863,-66.86867041100143 L-17.3057500040274,-63.87435745784639" fill-opacity="0" stroke="black" stroke-width="1" />
<path d="M-16.955813145253863,66.86867041100143 L-17.3057500040274,63.87435745784639 L-19.0,50.0" fill-opacity="0" stroke="black" stroke-width="1" />
<path d="M-16.955813145253863,-33.13132958899856 L-17.3057500040274,-36.12564254215361 L-19.0,-50.0" fill-opacity="0" stroke="black" stroke-width="1" />
<path d="M-16.955813145253863,33.13132958899857 L-17.3057500040274,36.12564254215361 L-19.0,50.0" fill-opacity="0" stroke="black" stroke-width="1" />
<path d="M-16.955813145253863,-66.86867041100143 L-17.3057500040274,-63.87435745784639 L-19.0,-50.0" fill-opacity="0" stroke="black" stroke-width="1" />
<path d="M-19.0,50.0 L-20.58429578210692,62.73573026819468 L-22.252225782530527,60.72039253815662" fill-opacity="0" stroke="black" stroke-width="1" />
<path d="M-19.0,-50.0 L-20.58429578210692,-37.26426973180532 L-22.252225782530527,-39.27960746184338" fill-opacity="0" stroke="black" stroke-width="1" />
<path d="M-19.0,50.0 L-20.58429578210692,37.26426973180532 L-22.252225782530527,39.27960746184338" fill-opacity="0" stroke="black" stroke-width="1" />
<path d="M-19.0,-50.0 L-20.58429578210692,-62.73573026819468 L-22.252225782530527,-60.72039253815662" fill-opacity="0" stroke="black" stroke-width="1" />
<path d="M-20.58429578210692,62.73573026819468 L-22.252225782530527,60.72039253815662 L-23.0,50.0" fill-opacity="0" stroke="black" stroke-width="1" />
<path d="M-20.58429578210692,-37.26426973180532 L-22.252225782530527,-39.27960746184338 L-23.0,-50.0" fill-opacity="0" stroke="black" stroke-width="1" />
<path d="M-20.58429578210692,37.26426973180532 L-22.252225782530527,39.27960746184338 L-23.0,50.0" fill-opacity="0" stroke="black" stroke-width="1" />
<path d="M-20.58429578210692,-62.73573026819468 L-22.252225782530527,-60.72039253815662 L-23.0,-50.0" fill-opacity="0" stroke="black" stroke-width="1" />
<path d="M-23.0,50.0 L-23.002652854135476,53.58988840331806 L-23.835650424257167,52.223120162891604" fill-opacity="0" stroke="black" stroke-width="1" />
<path d="M-23.0,-50.0 L-23.002652854135476,-46.41011159668194 L-23.835650424257167,-47.776879837108396" fill-opacity="0" stroke="black" stroke-width="1" />
<path d="M-23.0,50.0 L-23.002652854135476,46.41011159668194 L-23.835650424257167,47.776879837108396" fill-opacity="0" stroke="black" stroke-width="1" />
<path d="M-23.0,-50.0 L-23.002652854135476,-53.58988840331806 L-23.835650424257167,-52.223120162891604" fill-opacity="0" stroke="black" stroke-width="1" />
<path d="M-23.002652854135476,53.58988840331806 L-23.835650424257167,52.223120162891604 L-37.0,50.0" fill-opacity="0" stroke="black" stroke-width="1" />
<path d="M-23.002652854135476,-46.41011159668194 L-23.835650424257167,-47.776879837108396 L-37.0,-50.0" fill-opacity="0" stroke="black" stroke-width="1" />
<path d="M-23.002652854135476,46.41011159668194 L-23.835650424257167,47.776879837108396 L-37.0,50.0" fill-opacity="0" stroke="black" stroke-width="1" />
<path d="M-23.002652854135476,-53.58988840331806 L-23.835650424257167,-52.223120162891604 L-37.0,-50.0" fill-opacity="0" stroke="black" stroke-width="1" />
<path d="M-37.0,50.0 L-38.551632560614166,50.1575325081669 L-41.0,50.0" fill-opacity="0" stroke="black" stroke-width="1" />
<path d="M-37.0,-50.0 L-38.551632560614166,-49.8424674918331 L-41.0,-50.0" fill-opacity="0" stroke="black" stroke-width="1" />
<path d="M-37.0,50.0 L-38.551632560614166,49.8424674918331 L-41.0,50.0" fill-opacity="0" stroke="black" stroke-width="1" />
<path d="M-37.0,-50.0 L-38.551632560614166,-50.1575325081669 L-41.0,-50.0" fill-opacity="0" stroke="black" stroke-width="1" />
<path d="M-23.0,77.0 L-11.798497072499408,80.31901539891089 L-16.0,84.0" fill-opacity="0" stroke="black" stroke-width="1" />
<path d="M-23.0,-23.0 L-11.798497072499408,-19.6809846010891 L-16.0,-16.0" fill-opacity="0" stroke="black" stroke-width="1" />
<path d="M-23.0,23.0 L-11.798497072499408,19.680984601089108 L-16.0,16.0" fill-opacity="0" stroke="black" stroke-width="1" />
<path d="M-23.0,-77.0 L-11.798497072499408,-80.31901539891089 L-16.0,-84.0" fill-opacity="0" stroke="black" stroke-width="1" />
<path d="M-14.0,86.0 L-6.917998186093199,86.71970987016475 L-6.22205738437703,91.8659621823503" fill-opacity="0" stroke="black" stroke-width="1" />
<path d="M-14.0,-14.0 L-6.917998186093199,-13.280290129835247 L-6.22205738437703,-8.134037817649691" fill-opacity="0" stroke="black" stroke-width="1" />
<path d="M-14.0,14.0 L-6.917998186093199,13.280290129835251 L-6.22205738437703,8.134037817649698" fill-opacity="0" stroke="black" stroke-width="1" />
<path d="M-14.0,-86.0 L-6.917998186093199,-86.71970987016475 L-6.22205738437703,-91.8659621823503" fill-opacity="0" stroke="black" stroke-width="1" />
<path d="M-6.917998186093199,86.71970987016475 L-6.22205738437703,91.8659621823503 L-1.0281017464353934,94.77301777098735" fill-opacity="0" stroke="black" stroke-width="1" />
<path d="M-6.917998186093199,-13.280290129835247 L-6.22205738437703,-8.134037817649691 L-1.0281017464353934,-5.226982229012645" fill-opacity="0" stroke="black" stroke-width="1" />
<path d="M-6.917998186093199,13.280290129835251 L-6.22205738437703,8.134037817649698 L-1.0281017464353934,5.226982229012648" fill-opacity="0" stroke="black" stroke-width="1" />
<path d="M-6.917998186093199,-86.71970987016475 L-6.22205738437703,-91.8659621823503 L-1.0281017464353934,-94.77301777098735" fill-opacity="0" stroke="black" stroke-width="1" />
<path d="M-6.22205738437703,91.8659621823503 L-1.0281017464353934,94.77301777098735 L-4.0,96.0" fill-opacity="0" stroke="black" stroke-width="1" />
<path d="M-6.22205738437703,-8.134037817649691 L-1.0281017464353934,-5.226982229012645 L-4.0,-4.0" fill-opacity="0" stroke="black" stroke-width="1" />
<path d="M-6.22205738437703,8.134037817649698 L-1.0281017464353934,5.226982229012648 L-4.0,4.0" fill-opacity="0" stroke="black" stroke-width="1" />
<path d="M-6.22205738437703,-91.8659621823503 L-1.0281017464353934,-94.77301777098735 L-4.0,-96.0" fill-opacity="0" stroke="black" stroke-width="1" />
<path d="M-4.0,96.0 L-0.6183855296043724,97.33227338356986 L-0.39502806161761317,97.55612104261942" fill-opacity="0" stroke="black" stroke-width="1" />
<path d="M-4.0,-4.0 L-0.6183855296043724,-2.667726616430144 L-0.39502806161761317,-2.44387895738058" fill-opacity="0" stroke="black" stroke-width="1" />
<path d="M-4.0,4.0 L-0.6183855296043724,2.6677266164301443 L-0.39502806161761317,2.4438789573805764" fill-opacity="0" stroke="black" stroke-width="1" />
<path d="M-4.0,-96.0 L-0.6183855296043724,-97.33227338356986 L-0.39502806161761317,-97.55612104261942" fill-opacity="0" stroke="black" stroke-width="1" />
<path d="M-0.6183855296043724,97.33227338356986 L-0.39502806161761317,97.55612104261942 L-0.39106611016718784,97.82882421134042" fill-opacity="0" stroke="black" stroke-width="1" />
<path d="M-0.6183855296043724,-2.667726616430144 L-0.39502806161761317,-2.44387895738058 L-0.39106611016718784,-2.1711757886595793" fill-opacity="0" stroke="black" stroke-width="1" />
<path d="M-0.6183855296043724,2.6677266164301443 L-0.39502806161761317,2.4438789573805764 L-0.39106611016718784,2.171175788659582" fill-opacity="0" stroke="black" stroke-width="1" />
<path d="M-0.6183855296043724,-97.33227338356986 L-0.39502806161761317,-97.55612104261942 L-0.39106611016718784,-97.82882421134042" fill-opacity="0" stroke="black" stroke-width="1" />
<path d="M-0.39502806161761317,97.55612104261942 L-0.39106611016718784,97.82882421134042 L-0.28946083294706315,98.45474492779482" fill-opacity="0" stroke="black" stroke-width="1" />
<path d="M-0.39502806161761317,-2.44387895738058 L-0.39106611016718784,-2.1711757886595793 L-0.28946083294706315,-1.5452550722051817" fill-opacity="0" stroke="black" stroke-width="1" />
<path d="M-0.39502806161761317,2.4438789573805764 L-0.39106611016718784,2.171175788659582 L-0.28946083294706315,1.5452550722051797" fill-opacity="0" stroke="black" stroke-width="1" />
<path d="M-0.39502806161761317,-97.55612104261942 L-0.39106611016718784,-97.82882421134042 L-0.28946083294706315,-98.45474492779482" fill-opacity="0" stroke="black" stroke-width="1" />
<path d="M-0.39106611016718784,97.82882421134042 L-0.28946083294706315,98.45474492779482 L-0.10882572311744551,98.60049993270832" fill-opacity="0" stroke="black" stroke-width="1" />
<path d="M-0.39106611016718784,-2.1711757886595793 L-0.28946083294706315,-1.5452550722051817 L-0.10882572311744551,-1.3995000672916869" fill-opacity="0" stroke="black" stroke-width="1" />
<path d="M-0.39106611016718784,2.171175788659582 L-0.28946083294706315,1.5452550722051797 L-0.10882572311744551,1.399500067291683" fill-opacity="0" stroke="black" stroke-width="1" />
<path d="M-0.39106611016718784,-97.82882421134042 L-0.28946083294706315,-98.45474492779482 L-0.10882572311744551,-98.60049993270832" fill-opacity="0" stroke="black" stroke-width="1" />
<path d="M-0.28946083294706315,98.45474492779482 L-0.10882572311744551,98.60049993270832 L-1.0,99.0" fill-opacity="0" stroke="black" stroke-width="1" />
<path d="M-0.28946083294706315,-1.5452550722051817 L-0.10882572311744551,-1.3995000672916869 L-1.0,-1.0" fill-opacity="0" stroke="black" stroke-width="1" />
<path d="M-0.28946083294706315,1.5452550722051797 L-0.10882572311744551,1.399500067291683 L-1.0,1.0" fill-opacity="0" stroke="black" stroke-width="1" />
<path d="M-0.28946083294706315,-98.45474492779482 L-0.10882572311744551,-98.60049993270832 L-1.0,-99.0" fill-opacity="0" stroke="black" stroke-width="1" />
<path d="M-84.0,-16.0 L-86.0,-14.0 L-86.71970987016475,-6.917998186093199" fill-opacity="0" stroke="black" stroke-width="1" />
<path d="M-84.0,16.0 L-86.0,14.0 L-86.71970987016475,6.917998186093199" fill-opacity="0" stroke="black" stroke-width="1" />
<path d="M-65.0,-35.0 L-77.0,-23.0 L-80.31901539891089,-11.798497072499408" fill-opacity="0" stroke="black" stroke-width="1" />
<path d="M-65.0,35.0 L-77.0,23.0 L-80.31901539891089,11.798497072499408" fill-opacity="0" stroke="black" stroke-width="1" />
<path d="M-74.0,-0.0 L-71.79142841924832,-12.71652133959086 L-70.95298190051709,-12.97020399612227" fill-opacity="0" stroke="black" stroke-width="1" />
<path d="M-74.0,-0.0 L-71.79142841924832,12.71652133959086 L-70.95298190051709,12.97020399612227" fill-opacity="0" stroke="black" stroke-width="1" />
<path d="M-71.79142841924832,-12.71652133959086 L-70.95298190051709,-12.97020399612227 L-67.49250531053237,-12.986280700167384" fill-opacity="0" stroke="black" stroke-width="1" />
<path d="M-71.79142841924832,12.71652133959086 L-70.95298190051709,12.97020399612227 L-67.49250531053237,12.986280700167384" fill-opacity="0" stroke="black" stroke-width="1" />
<path d="M-70.95298190051709,-12.97020399612227 L-67.49250531053237,-12.986280700167384 L-67.0,-0.0" fill-opacity="0" stroke="black" stroke-width="1" />
<path d="M-70.95298190051709,12.97020399612227 L-67.49250531053237,12.986280700167384 L-67.0,-0.0" fill-opacity="0" stroke="black" stroke-width="1" />
<path d="M-50.0,-15.0 L-66.86867041100143,-16.955813145253863 L-63.87435745784639,-17.3057500040274" fill-opacity="0" stroke="black" stroke-width="1" />
<path d="M-50.0,15.0 L-66.86867041100143,16.955813145253863 L-63.87435745784639,17.3057500040274" fill-opacity="0" stroke="black" stroke-width="1" />
<path d="M-66.86867041100143,-16.955813145253863 L-63.87435745784639,-17.3057500040274 L-50.0,-19.0" fill-opacity="0" stroke="black" stroke-width="1" />
<path d="M-66.86867041100143,16.955813145253863 L-63.87435745784639,17.3057500040274 L-50.0,19.0" fill-opacity="0" stroke="black" stroke-width="1" />
<path d="M-50.0,-19.0 L-62.73573026819468,-20.58429578210692 L-60.72039253815662,-22.252225782530527" fill-opacity="0" stroke="black" stroke-width="1" />
<path d="M-50.0,19.0 L-62.73573026819468,20.58429578210692 L-60.72039253815662,22.252225782530527" fill-opacity="0" stroke="black" stroke-width="1" />
<path d="M-62.73573026819468,-20.58429578210692 L-60.72039253815662,-22.252225782530527 L-50.0,-23.0" fill-opacity="0" stroke="black" stroke-width="1" />
<path d="M-62.73573026819468,20.58429578210692 L-60.72039253815662,22.252225782530527 L-50.0,23.0" fill-opacity="0" stroke="black" stroke-width="1" />
<path d="M-50.0,-23.0 L-53.58988840331806,-23.002652854135476 L-52.223120162891604,-23.835650424257167" fill-opacity="0" stroke="black" stroke-width="1" />
<path d="M-50.0,23.0 L-53.58988840331806,23.002652854135476 L-52.223120162891604,23.835650424257167" fill-opacity="0" stroke="black" stroke-width="1" />
<path d="M-53.58988840331806,-23.002652854135476 L-52.223120162891604,-23.835650424257167 L-50.0,-37.0" fill-opacity="0" stroke="black" stroke-width="1" />
<path d="M-53.58988840331806,23.002652854135476 L-52.223120162891604,23.835650424257167 L-50.0,37.0" fill-opacity="0" stroke="black" stroke-width="1" />
<path d="M-50.0,-37.0 L-50.1575325081669,-38.551632560614166 L-50.0,-41.0" fill-opacity="0" stroke="black" stroke-width="1" />
<path d="M-50.0,37.0 L-50.1575325081669,38.551632560614166 L-50.0,41.0" fill-opacity="0" stroke="black" stroke-width="1" />
<path d="M-50.0,-50.0 L-51.0,-49.0 L-56.0,-44.0" fill-opacity="0" stroke="black" stroke-width="1" />
<path d="M-50.0,50.0 L-51.0,49.0 L-56.0,44.0" fill-opacity="0" stroke="black" stroke-width="1" />
<path d="M-51.0,-49.0 L-56.0,-44.0 L-65.0,-35.0" fill-opacity="0" stroke="black" stroke-width="1" />
<path d="M-51.0,49.0 L-56.0,44.0 L-65.0,35.0" fill-opacity="0" stroke="black" stroke-width="1" />
<path d="M-56.0,-44.0 L-65.0,-35.0 L-77.0,-23.0" fill-opacity="0" stroke="black" stroke-width="1" />
<path d="M-56.0,44.0 L-65.0,35.0 L-77.0,23.0" fill-opacity="0" stroke="black" stroke-width="1" />
<path d="M-77.0,-23.0 L-80.31901539891089,-11.798497072499408 L-84.0,-16.0" fill-opacity="0" stroke="black" stroke-width="1" />
<path d="M-77.0,23.0 L-80.31901539891089,11.798497072499408 L-84.0,16.0" fill-opacity="0" stroke="black" stroke-width="1" />
<path d="M-80.31901539891089,-11.798497072499408 L-84.0,-16.0 L-86.0,-14.0" fill-opacity="0" stroke="black" stroke-width="1" />
<path d="M-80.31901539891089,11.798497072499408 L-84.0,16.0 L-86.0,14.0" fill-opacity="0" stroke="black" stroke-width="1" />
<path d="M-86.0,-14.0 L-86.71970987016475,-6.917998186093199 L-91.8659621823503,-6.22205738437703" fill-opacity="0" stroke="black" stroke-width="1" />
<path d="M-86.0,14.0 L-86.71970987016475,6.917998186093199 L-91.8659621823503,6.22205738437703" fill-opacity="0" stroke="black" stroke-width="1" />
<path d="M-86.71970987016475,-6.917998186093199 L-91.8659621823503,-6.22205738437703 L-94.77301777098735,-1.0281017464353934" fill-opacity="0" stroke="black" stroke-width="1" />
<path d="M-86.71970987016475,6.917998186093199 L-91.8659621823503,6.22205738437703 L-94.77301777098735,1.0281017464353934" fill-opacity="0" stroke="black" stroke-width="1" />
<path d="M-91.8659621823503,-6.22205738437703 L-94.77301777098735,-1.0281017464353934 L-96.0,-4.0" fill-opacity="0" stroke="black" stroke-width="1" />
<path d="M-91.8659621823503,6.22205738437703 L-94.77301777098735,1.0281017464353934 L-96.0,4.0" fill-opacity="0" stroke="black" stroke-width="1" />
<path d="M-94.77301777098735,-1.0281017464353934 L-96.0,-4.0 L-97.33227338356986,-0.6183855296043724" fill-opacity="0" stroke="black" stroke-width="1" />
<path d="M-94.77301777098735,1.0281017464353934 L-96.0,4.0 L-97.33227338356986,0.6183855296043724" fill-opacity="0" stroke="black" stroke-width="1" />
<path d="M-96.0,-4.0 L-97.33227338356986,-0.6183855296043724 L-97.55612104261942,-0.39502806161761317" fill-opacity="0" stroke="black" stroke-width="1" />
<path d="M-96.0,4.0 L-97.33227338356986,0.6183855296043724 L-97.55612104261942,0.39502806161761317" fill-opacity="0" stroke="black" stroke-width="1" />
<path d="M-97.33227338356986,-0.6183855296043724 L-97.55612104261942,-0.39502806161761317 L-97.82882421134042,-0.39106611016718784" fill-opacity="0" stroke="black" stroke-width="1" />
<path d="M-97.33227338356986,0.6183855296043724 L-97.55612104261942,0.39502806161761317 L-97.82882421134042,0.39106611016718784" fill-opacity="0" stroke="black" stroke-width="1" />
<path d="M-97.55612104261942,-0.39502806161761317 L-97.82882421134042,-0.39106611016718784 L-98.45474492779482,-0.28946083294706315" fill-opacity="0" stroke="black" stroke-width="1" />
<path d="M-97.55612104261942,0.39502806161761317 L-97.82882421134042,0.39106611016718784 L-98.45474492779482,0.28946083294706315" fill-opacity="0" stroke="black" stroke-width="1" />
<path d="M-97.82882421134042,-0.39106611016718784 L-98.45474492779482,-0.28946083294706315 L-98.60049993270832,-0.10882572311744551" fill-opacity="0" stroke="black" stroke-width="1" />
<path d="M-97.82882421134042,0.39106611016718784 L-98.45474492779482,0.28946083294706315 L-98.60049993270832,0.10882572311744551" fill-opacity="0" stroke="black" stroke-width="1" />
<path d="M-98.45474492779482,-0.28946083294706315 L-98.60049993270832,-0.10882572311744551 L-99.0,-1.0" fill-opacity="0" stroke="black" stroke-width="1" />
<path d="M-98.45474492779482,0.28946083294706315 L-98.60049993270832,0.10882572311744551 L-99.0,1.0" fill-opacity="0" stroke="black" stroke-width="1" />
<path d="M-98.60049993270832,-0.10882572311744551 L-99.0,-1.0 L-100.0,-0.0" fill-opacity="0" stroke="black" stroke-width="1" />
<path d="M-98.60049993270832,0.10882572311744551 L-99.0,1.0 L-100.0,-0.0" fill-opacity="0" stroke="black" stroke-width="1" />
</svg>