<?xml version="1.0" encoding="UTF-8"?>
<svg xmlns="http://www.w3.org/2000/svg" xmlns:xlink="http://www.w3.org/1999/xlink"
     width="250" height="250" viewBox="-125.0 -125.0 250 250">
<defs>
</defs>
<path d="M0.0,-0.0 L13.18798654950975,-2.1132670362387267 L14.0,-0.0" fill="blue" fill-opacity="0.6" stroke="black" stroke-width="1" />
<path d="M0.0,-0.0 L13.18798654950975,2.1132670362387267 L14.0,-0.0" fill="red" fill-opacity="0.6" stroke="black" stroke-width="1" />
<path d="M14.0,-0.0 L14.887306642165731,-2.1692089013615634 L17.91015675774886,-2.586187388186658" fill="black" fill-opacity="0.6" stroke="black" stroke-width="1" />
<path d="M14.0,-0.0 L14.887306642165731,2.1692089013615634 L17.91015675774886,2.586187388186658" fill="orange" fill-opacity="0.6" stroke="black" stroke-width="1" />
<path d="M14.887306642165731,-2.1692089013615634 L17.91015675774886,-2.586187388186658 L18.028248874954343,-2.640493339427072" fill="black" fill-opacity="0.6" stroke="black" stroke-width="1" />
<path d="M14.887306642165731,2.1692089013615634 L17.91015675774886,2.586187388186658 L18.028248874954343,2.640493339427072" fill="orange" fill-opacity="0.6" stroke="black" stroke-width="1" />
<path d="M17.91015675774886,-2.586187388186658 L18.028248874954343,-2.640493339427072 L18.338169899895814,-4.356482353183832" fill="brown" fill-opacity="0.6" stroke="black" stroke-width="1" />
<path d="M17.91015675774886,2.586187388186658 L18.028248874954343,2.640493339427072 L18.338169899895814,4.356482353183832" fill="black" fill-opacity="0.6" stroke="black" stroke-width="1" />
<path d="M18.028248874954343,-2.640493339427072 L18.338169899895814,-4.356482353183832 L18.75492015888624,-5.921949536692557" fill="blue" fill-opacity="0.6" stroke="black" stroke-width="1" />
<path d="M18.028248874954343,2.640493339427072 L18.338169899895814,4.356482353183832 L18.75492015888624,5.921949536692557" fill="purple" fill-opacity="0.6" stroke="black" stroke-width="1" />
<path d="M18.338169899895814,-4.356482353183832 L18.75492015888624,-5.921949536692557 L18.841662778985338,-8.964760580784551" fill="yellow" fill-opacity="0.6" stroke="black" stroke-width="1" />
<path d="M18.338169899895814,4.356482353183832 L18.75492015888624,5.921949536692557 L18.841662778985338,8.964760580784551" fill="orange" fill-opacity="0.6" stroke="black" stroke-width="1" />
<path d="M18.75492015888624,-5.921949536692557 L18.841662778985338,-8.964760580784551 L27.609087608537614,-10.553976916063752" fill="pink" fill-opacity="0.6" stroke="black" stroke-width="1" />
<path d="M18.75492015888624,5.921949536692557 L18.841662778985338,8.964760580784551 L27.609087608537614,10.553976916063752" fill="black" fill-opacity="0.6" stroke="black" stroke-width="1" />
<path d="M18.841662778985338,-8.964760580784551 L27.609087608537614,-10.553976916063752 L28.0,-0.0" fill="red" fill-opacity="0.6" stroke="black" stroke-width="1" />
<path d="M18.841662778985338,8.964760580784551 L27.609087608537614,10.553976916063752 L28.0,-0.0" fill="orange" fill-opacity="0.6" stroke="black" stroke-width="1" />
<path d="M28.0,-0.0 L28.617402434623664,-14.337508391801675 L31.0,-0.0" fill="blue" fill-opacity="0.6" stroke="black" stroke-width="1" />
<path d="M28.0,-0.0 L28.617402434623664,14.337508391801675 L31.0,-0.0" fill="blue" fill-opacity="0.6" stroke="black" stroke-width="1" />
<path d="M50.0,-23.0 L40.37895201084715,-25.81455136033562 L50.0,-28.0" fill="blue" fill-opacity="0.6" stroke="black" stroke-width="1" />
<path d="M50.0,23.0 L40.37895201084715,25.81455136033562 L50.0,28.0" fill="green" fill-opacity="0.6" stroke="black" stroke-width="1" />
<path d="M50.0,-28.0 L44.63817576681059,-31.625665672226745 L45.580458641456886,-31.72216997606428" fill="orange" fill-opacity="0.6" stroke="black" stroke-width="1" />
<path d="M50.0,28.0 L44.63817576681059,31.625665672226745 L45.580458641456886,31.72216997606428" fill="yellow" fill-opacity="0.6" stroke="black" stroke-width="1" />
<path d="M44.63817576681059,-31.625665672226745 L45.580458641456886,-31.72216997606428 L45.66778258311063,-34.66729028932701" fill="black" fill-opacity="0.6" stroke="black" stroke-width="1" />
<path d="M44.63817576681059,31.625665672226745 L45.580458641456886,31.72216997606428 L45.66778258311063,34.66729028932701" fill="purple" fill-opacity="0.6" stroke="black" stroke-width="1" />
<path d="M45.580458641456886,-31.72216997606428 L45.66778258311063,-34.66729028932701 L46.46016796806167,-37.20573324598904" fill="purple" fill-opacity="0.6" stroke="black" stroke-width="1" />
<path d="M45.580458641456886,31.72216997606428 L45.66778258311063,34.66729028932701 L46.46016796806167,37.20573324598904" fill="black" fill-opacity="0.6" stroke="black" stroke-width="1" />
<path d="M45.66778258311063,-34.66729028932701 L46.46016796806167,-37.20573324598904 L50.0,-41.0" fill="purple" fill-opacity="0.6" stroke="black" stroke-width="1" />
<path d="M45.66778258311063,34.66729028932701 L46.46016796806167,37.20573324598904 L50.0,41.0" fill="red" fill-opacity="0.6" stroke="black" stroke-width="1" />
<path d="M50.0,-50.0 L46.47404014798335,-40.719423968673304 L45.0,-45.0" fill="brown" fill-opacity="0.6" stroke="black" stroke-width="1" />
<path d="M50.0,50.0 L46.47404014798335,40.719423968673304 L45.0,45.0" fill="green" fill-opacity="0.6" stroke="black" stroke-width="1" />
<path d="M40.719423968673304,53.52595985201665 L45.0,55.0 L41.0,59.0" fill="black" fill-opacity="0.6" stroke="black" stroke-width="1" />
<path d="M40.719423968673304,-53.52595985201665 L45.0,-55.0 L41.0,-59.0" fill="purple" fill-opacity="0.6" stroke="black" stroke-width="1" />
<path d="M45.0,55.0 L41.0,59.0 L35.0,65.0" fill="pink" fill-opacity="0.6" stroke="black" stroke-width="1" />
<path d="M45.0,-55.0 L41.0,-59.0 L35.0,-65.0" fill="red" fill-opacity="0.6" stroke="black" stroke-width="1" />
<path d="M41.0,59.0 L35.0,65.0 L13.0,87.0" fill="brown" fill-opacity="0.6" stroke="black" stroke-width="1" />
<path d="M41.0,-59.0 L35.0,-65.0 L13.0,-87.0" fill="brown" fill-opacity="0.6" stroke="black" stroke-width="1" />
<path d="M35.0,65.0 L13.0,87.0 L1.9926086291592415,95.00644666645385" fill="purple" fill-opacity="0.6" stroke="black" stroke-width="1" />
<path d="M35.0,-65.0 L13.0,-87.0 L1.9926086291592415,-95.00644666645385" fill="red" fill-opacity="0.6" stroke="black" stroke-width="1" />
<path d="M13.0,-13.0 L4.993553333546141,-1.9926086291592415 L4.0,-4.0" fill="brown" fill-opacity="0.6" stroke="black" stroke-width="1" />
<path d="M13.0,13.0 L4.993553333546141,1.9926086291592415 L4.0,4.0" fill="blue" fill-opacity="0.6" stroke="black" stroke-width="1" />
<path d="M1.9926086291592415,95.00644666645385 L4.0,96.0 L1.6883732012214658,96.8347660139393" fill="red" fill-opacity="0.6" stroke="black" stroke-width="1" />
<path d="M1.9926086291592415,-95.00644666645385 L4.0,-96.0 L1.6883732012214658,-96.8347660139393" fill="red" fill-opacity="0.6" stroke="black" stroke-width="1" />
<path d="M4.0,-4.0 L3.1652339860607004,-1.6883732012214658 L2.637760804162703,-1.5896883055941953" fill="blue" fill-opacity="0.6" stroke="black" stroke-width="1" />
<path d="M4.0,4.0 L3.1652339860607004,1.6883732012214658 L2.637760804162703,1.5896883055941953" fill="black" fill-opacity="0.6" stroke="black" stroke-width="1" />
<path d="M3.1652339860607004,-1.6883732012214658 L2.637760804162703,-1.5896883055941953 L2.1565433198395825,-0.603720946831604" fill="brown" fill-opacity="0.6" stroke="black" stroke-width="1" />
<path d="M3.1652339860607004,1.6883732012214658 L2.637760804162703,1.5896883055941953 L2.1565433198395825,0.603720946831604" fill="orange" fill-opacity="0.6" stroke="black" stroke-width="1" />
<path d="M2.637760804162703,-1.5896883055941953 L2.1565433198395825,-0.603720946831604 L0.0,-0.0" fill="blue" fill-opacity="0.6" stroke="black" stroke-width="1" />
<path d="M2.637760804162703,1.5896883055941953 L2.1565433198395825,0.603720946831604 L0.0,-0.0" fill="brown" fill-opacity="0.6" stroke="black" stroke-width="1" />
<path d="M0.0,-0.0 L-13.18798654950975,-2.1132670362387267 L-14.0,-0.0" fill="yellow" fill-opacity="0.6" stroke="black" stroke-width="1" />
<path d="M0.0,-0.0 L-13.18798654950975,2.1132670362387267 L-14.0,-0.0" fill="pink" fill-opacity="0.6" stroke="black" stroke-width="1" />
<path d="M-14.0,-0.0 L-14.887306642165731,-2.1692089013615634 L-17.91015675774886,-2.586187388186658" fill="purple" fill-opacity="0.6" stroke="black" stroke-width="1" />
<path d="M-14.0,-0.0 L-14.887306642165731,2.1692089013615634 L-17.91015675774886,2.586187388186658" fill="orange" fill-opacity="0.6" stroke="black" stroke-width="1" />
<path d="M-14.887306642165731,-2.1692089013615634 L-17.91015675774886,-2.586187388186658 L-18.028248874954343,-2.640493339427072" fill="yellow" fill-opacity="0.6" stroke="black" stroke-width="1" />
<path d="M-14.887306642165731,2.1692089013615634 L-17.91015675774886,2.586187388186658 L-18.028248874954343,2.640493339427072" fill="pink" fill-opacity="0.6" stroke="black" stroke-width="1" />
<path d="M-17.91015675774886,-2.586187388186658 L-18.028248874954343,-2.640493339427072 L-18.338169899895814,-4.356482353183832" fill="orange" fill-opacity="0.6" stroke="black" stroke-width="1" />
<path d="M-17.91015675774886,2.586187388186658 L-18.028248874954343,2.640493339427072 L-18.338169899895814,4.356482353183832" fill="yellow" fill-opacity="0.6" stroke="black" stroke-width="1" />
<path d="M-18.028248874954343,-2.640493339427072 L-18.338169899895814,-4.356482353183832 L-18.75492015888624,-5.921949536692557" fill="pink" fill-opacity="0.6" stroke="black" stroke-width="1" />
<path d="M-18.028248874954343,2.640493339427072 L-18.338169899895814,4.356482353183832 L-18.75492015888624,5.921949536692557" fill="brown" fill-opacity="0.6" stroke="black" stroke-width="1" />
<path d="M-18.338169899895814,-4.356482353183832 L-18.75492015888624,-5.921949536692557 L-18.841662778985338,-8.964760580784551" fill="green" fill-opacity="0.6" stroke="black" stroke-width="1" />
<path d="M-18.338169899895814,4.356482353183832 L-18.75492015888624,5.921949536692557 L-18.841662778985338,8.964760580784551" fill="purple" fill-opacity="0.6" stroke="black" stroke-width="1" />
<path d="M-18.75492015888624,-5.921949536692557 L-18.841662778985338,-8.964760580784551 L-27.609087608537614,-10.553976916063752" fill="black" fill-opacity="0.6" stroke="black" stroke-width="1" />
<path d="M-18.75492015888624,5.921949536692557 L-18.841662778985338,8.964760580784551 L-27.609087608537614,10.553976916063752" fill="brown" fill-opacity="0.6" stroke="black" stroke-width="1" />
<path d="M-18.841662778985338,-8.964760580784551 L-27.609087608537614,-10.553976916063752 L-28.0,-0.0" fill="green" fill-opacity="0.6" stroke="black" stroke-width="1" />
<path d="M-18.841662778985338,8.964760580784551 L-27.609087608537614,10.553976916063752 L-28.0,-0.0" fill="purple" fill-opacity="0.6" stroke="black" stroke-width="1" />
<path d="M-28.0,-0.0 L-28.617402434623664,-14.337508391801675 L-31.0,-0.0" fill="yellow" fill-opacity="0.6" stroke="black" stroke-width="1" />
<path d="M-28.0,-0.0 L-28.617402434623664,14.337508391801675 L-31.0,-0.0" fill="yellow" fill-opacity="0.6" stroke="black" stroke-width="1" />
<path d="M-50.0,-23.0 L-40.37895201084715,-25.81455136033562 L-50.0,-28.0" fill="red" fill-opacity="0.6" stroke="black" stroke-width="1" />
<path d="M-50.0,23.0 L-40.37895201084715,25.81455136033562 L-50.0,28.0" fill="red" fill-opacity="0.6" stroke="black" stroke-width="1" />
<path d="M-50.0,-28.0 L-44.63817576681059,-31.625665672226745 L-45.580458641456886,-31.72216997606428" fill="red" fill-opacity="0.6" stroke="black" stroke-width="1" />
<path d="M-50.0,28.0 L-44.63817576681059,31.625665672226745 L-45.580458641456886,31.72216997606428" fill="brown" fill-opacity="0.6" stroke="black" stroke-width="1" />
<path d="M-44.63817576681059,-31.625665672226745 L-45.580458641456886,-31.72216997606428 L-45.66778258311063,-34.66729028932701" fill="red" fill-opacity="0.6" stroke="black" stroke-width="1" />
<path d="M-44.63817576681059,31.625665672226745 L-45.580458641456886,31.72216997606428 L-45.66778258311063,34.66729028932701" fill="yellow" fill-opacity="0.6" stroke="black" stroke-width="1" />
<path d="M-45.580458641456886,-31.72216997606428 L-45.66778258311063,-34.66729028932701 L-46.46016796806167,-37.20573324598904" fill="red" fill-opacity="0.6" stroke="black" stroke-width="1" />
<path d="M-45.580458641456886,31.72216997606428 L-45.66778258311063,34.66729028932701 L-46.46016796806167,37.20573324598904" fill="black" fill-opacity="0.6" stroke="black" stroke-width="1" />
<path d="M-45.66778258311063,-34.66729028932701 L-46.46016796806167,-37.20573324598904 L-50.0,-41.0" fill="yellow" fill-opacity="0.6" stroke="black" stroke-width="1" />
<path d="M-45.66778258311063,34.66729028932701 L-46.46016796806167,37.20573324598904 L-50.0,41.0" fill="green" fill-opacity="0.6" stroke="black" stroke-width="1" />
<path d="M-50.0,-50.0 L-46.47404014798335,-40.719423968673304 L-45.0,-45.0" fill="green" fill-opacity="0.6" stroke="black" stroke-width="1" />
<path d="M-50.0,50.0 L-46.47404014798335,40.719423968673304 L-45.0,45.0" fill="brown" fill-opacity="0.6" stroke="black" stroke-width="1" />
<path d="M-40.719423968673304,53.52595985201665 L-45.0,55.0 L-41.0,59.0" fill="orange" fill-opacity="0.6" stroke="black" stroke-width="1" />
<path d="M-40.719423968673304,-53.52595985201665 L-45.0,-55.0 L-41.0,-59.0" fill="orange" fill-opacity="0.6" stroke="black" stroke-width="1" />
<path d="M-45.0,55.0 L-41.0,59.0 L-35.0,65.0" fill="red" fill-opacity="0.6" stroke="black" stroke-width="1" />
<path d="M-45.0,-55.0 L-41.0,-59.0 L-35.0,-65.0" fill="brown" fill-opacity="0.6" stroke="black" stroke-width="1" />
<path d="M-41.0,59.0 L-35.0,65.0 L-13.0,87.0" fill="yellow" fill-opacity="0.6" stroke="black" stroke-width="1" />
<path d="M-41.0,-59.0 L-35.0,-65.0 L-13.0,-87.0" fill="blue" fill-opacity="0.6" stroke="black" stroke-width="1" />
<path d="M-35.0,65.0 L-13.0,87.0 L-1.9926086291592415,95.00644666645385" fill="yellow" fill-opacity="0.6" stroke="black" stroke-width="1" />
<path d="M-35.0,-65.0 L-13.0,-87.0 L-1.9926086291592415,-95.00644666645385" fill="yellow" fill-opacity="0.6" stroke="black" stroke-width="1" />
<path d="M-13.0,-13.0 L-4.993553333546141,-1.9926086291592415 L-4.0,-4.0" fill="purple" fill-opacity="0.6" stroke="black" stroke-width="1" />
<path d="M-13.0,13.0 L-4.993553333546141,1.9926086291592415 L-4.0,4.0" fill="brown" fill-opacity="0.6" stroke="black" stroke-width="1" />
<path d="M-1.9926086291592415,95.00644666645385 L-4.0,96.0 L-1.6883732012214658,96.8347660139393" fill="pink" fill-opacity="0.6" stroke="black" stroke-width="1" />
<path d="M-1.9926086291592415,-95.00644666645385 L-4.0,-96.0 L-1.6883732012214658,-96.8347660139393" fill="blue" fill-opacity="0.6" stroke="black" stroke-width="1" />
<path d="M-4.0,-4.0 L-3.1652339860607004,-1.6883732012214658 L-2.637760804162703,-1.5896883055941953" fill="pink" fill-opacity="0.6" stroke="black" stroke-width="1" />
<path d="M-4.0,4.0 L-3.1652339860607004,1.6883732012214658 L-2.637760804162703,1.5896883055941953" fill="blue" fill-opacity="0.6" stroke="black" stroke-width="1" />
<path d="M-3.1652339860607004,-1.6883732012214658 L-2.637760804162703,-1.5896883055941953 L-2.1565433198395825,-0.603720946831604" fill="blue" fill-opacity="0.6" stroke="black" stroke-width="1" />
<path d="M-3.1652339860607004,1.6883732012214658 L-2.637760804162703,1.5896883055941953 L-2.1565433198395825,0.603720946831604" fill="red" fill-opacity="0.6" stroke="black" stroke-width="1" />
<path d="M-2.637760804162703,-1.5896883055941953 L-2.1565433198395825,-0.603720946831604 L0.0,-0.0" fill="orange" fill-opacity="0.6" stroke="black" stroke-width="1" />
<path d="M-2.637760804162703,1.5896883055941953 L-2.1565433198395825,0.603720946831604 L0.0,-0.0" fill="blue" fill-opacity="0.6" stroke="black" stroke-width="1" />
<path d="M100.0,-0.0 L86.81201345049024,2.1132670362387267 L86.0,-0.0" fill="yellow" fill-opacity="0.6" stroke="black" stroke-width="1" />
<path d="M100.0,-0.0 L86.81201345049024,-2.1132670362387267 L86.0,-0.0" fill="purple" fill-opacity="0.6" stroke="black" stroke-width="1" />
<path d="M86.0,-0.0 L85.11269335783427,2.1692089013615634 L82.08984324225113,2.586187388186658" fill="brown" fill-opacity="0.6" stroke="black" stroke-width="1" />
<path d="M86.0,-0.0 L85.11269335783427,-2.1692089013615634 L82.08984324225113,-2.586187388186658" fill="red" fill-opacity="0.6" stroke="black" stroke-width="1" />
<path d="M85.11269335783427,2.1692089013615634 L82.08984324225113,2.586187388186658 L81.97175112504566,2.640493339427072" fill="orange" fill-opacity="0.6" stroke="black" stroke-width="1" />
<path d="M85.11269335783427,-2.1692089013615634 L82.08984324225113,-2.586187388186658 L81.97175112504566,-2.640493339427072" fill="brown" fill-opacity="0.6" stroke="black" stroke-width="1" />
<path d="M82.08984324225113,2.586187388186658 L81.97175112504566,2.640493339427072 L81.66183010010418,4.356482353183832" fill="red" fill-opacity="0.6" stroke="black" stroke-width="1" />
<path d="M82.08984324225113,-2.586187388186658 L81.97175112504566,-2.640493339427072 L81.66183010010418,-4.356482353183832" fill="orange" fill-opacity="0.6" stroke="black" stroke-width="1" />
<path d="M81.97175112504566,2.640493339427072 L81.66183010010418,4.356482353183832 L81.24507984111376,5.921949536692557" fill="pink" fill-opacity="0.6" stroke="black" stroke-width="1" />
<path d="M81.97175112504566,-2.640493339427072 L81.66183010010418,-4.356482353183832 L81.24507984111376,-5.921949536692557" fill="red" fill-opacity="0.6" stroke="black" stroke-width="1" />
<path d="M81.66183010010418,4.356482353183832 L81.24507984111376,5.921949536692557 L81.15833722101466,8.964760580784551" fill="orange" fill-opacity="0.6" stroke="black" stroke-width="1" />
<path d="M81.66183010010418,-4.356482353183832 L81.24507984111376,-5.921949536692557 L81.15833722101466,-8.964760580784551" fill="green" fill-opacity="0.6" stroke="black" stroke-width="1" />
<path d="M81.24507984111376,5.921949536692557 L81.15833722101466,8.964760580784551 L72.3909123914624,10.553976916063752" fill="green" fill-opacity="0.6" stroke="black" stroke-width="1" />
<path d="M81.24507984111376,-5.921949536692557 L81.15833722101466,-8.964760580784551 L72.3909123914624,-10.553976916063752" fill="orange" fill-opacity="0.6" stroke="black" stroke-width="1" />
<path d="M81.15833722101466,8.964760580784551 L72.3909123914624,10.553976916063752 L72.0,-0.0" fill="orange" fill-opacity="0.6" stroke="black" stroke-width="1" />
<path d="M81.15833722101466,-8.964760580784551 L72.3909123914624,-10.553976916063752 L72.0,-0.0" fill="blue" fill-opacity="0.6" stroke="black" stroke-width="1" />
<path d="M72.0,-0.0 L71.38259756537633,14.337508391801675 L69.0,-0.0" fill="pink" fill-opacity="0.6" stroke="black" stroke-width="1" />
<path d="M72.0,-0.0 L71.38259756537633,-14.337508391801675 L69.0,-0.0" fill="green" fill-opacity="0.6" stroke="black" stroke-width="1" />
<path d="M50.0,23.0 L59.62104798915285,25.81455136033562 L50.0,28.0" fill="black" fill-opacity="0.6" stroke="black" stroke-width="1" />
<path d="M50.0,-23.0 L59.62104798915285,-25.81455136033562 L50.0,-28.0" fill="orange" fill-opacity="0.6" stroke="black" stroke-width="1" />
<path d="M50.0,28.0 L55.36182423318941,31.625665672226745 L54.419541358543114,31.72216997606428" fill="purple" fill-opacity="0.6" stroke="black" stroke-width="1" />
<path d="M50.0,-28.0 L55.36182423318941,-31.625665672226745 L54.419541358543114,-31.72216997606428" fill="purple" fill-opacity="0.6" stroke="black" stroke-width="1" />
<path d="M55.36182423318941,31.625665672226745 L54.419541358543114,31.72216997606428 L54.33221741688937,34.66729028932701" fill="red" fill-opacity="0.6" stroke="black" stroke-width="1" />
<path d="M55.36182423318941,-31.625665672226745 L54.419541358543114,-31.72216997606428 L54.33221741688937,-34.66729028932701" fill="brown" fill-opacity="0.6" stroke="black" stroke-width="1" />
<path d="M54.419541358543114,31.72216997606428 L54.33221741688937,34.66729028932701 L53.53983203193833,37.20573324598904" fill="brown" fill-opacity="0.6" stroke="black" stroke-width="1" />
<path d="M54.419541358543114,-31.72216997606428 L54.33221741688937,-34.66729028932701 L53.53983203193833,-37.20573324598904" fill="pink" fill-opacity="0.6" stroke="black" stroke-width="1" />
<path d="M54.33221741688937,34.66729028932701 L53.53983203193833,37.20573324598904 L50.0,41.0" fill="purple" fill-opacity="0.6" stroke="black" stroke-width="1" />
<path d="M54.33221741688937,-34.66729028932701 L53.53983203193833,-37.20573324598904 L50.0,-41.0" fill="blue" fill-opacity="0.6" stroke="black" stroke-width="1" />
<path d="M50.0,50.0 L53.52595985201665,40.719423968673304 L55.0,45.0" fill="blue" fill-opacity="0.6" stroke="black" stroke-width="1" />
<path d="M50.0,-50.0 L53.52595985201665,-40.719423968673304 L55.0,-45.0" fill="blue" fill-opacity="0.6" stroke="black" stroke-width="1" />
<path d="M53.52595985201665,40.719423968673304 L55.0,45.0 L59.0,41.0" fill="purple" fill-opacity="0.6" stroke="black" stroke-width="1" />
<path d="M53.52595985201665,-40.719423968673304 L55.0,-45.0 L59.0,-41.0" fill="green" fill-opacity="0.6" stroke="black" stroke-width="1" />
<path d="M55.0,45.0 L59.0,41.0 L65.0,35.0" fill="green" fill-opacity="0.6" stroke="black" stroke-width="1" />
<path d="M55.0,-45.0 L59.0,-41.0 L65.0,-35.0" fill="green" fill-opacity="0.6" stroke="black" stroke-width="1" />
<path d="M59.0,41.0 L65.0,35.0 L87.0,13.0" fill="orange" fill-opacity="0.6" stroke="black" stroke-width="1" />
<path d="M59.0,-41.0 L65.0,-35.0 L87.0,-13.0" fill="brown" fill-opacity="0.6" stroke="black" stroke-width="1" />
<path d="M65.0,35.0 L87.0,13.0 L95.00644666645385,1.9926086291592415" fill="orange" fill-opacity="0.6" stroke="black" stroke-width="1" />
<path d="M65.0,-35.0 L87.0,-13.0 L95.00644666645385,-1.9926086291592415" fill="brown" fill-opacity="0.6" stroke="black" stroke-width="1" />
<path d="M87.0,13.0 L95.00644666645385,1.9926086291592415 L96.0,4.0" fill="black" fill-opacity="0.6" stroke="black" stroke-width="1" />
<path d="M87.0,-13.0 L95.00644666645385,-1.9926086291592415 L96.0,-4.0" fill="red" fill-opacity="0.6" stroke="black" stroke-width="1" />
<path d="M95.00644666645385,1.9926086291592415 L96.0,4.0 L96.8347660139393,1.6883732012214658" fill="green" fill-opacity="0.6" stroke="black" stroke-width="1" />
<path d="M95.00644666645385,-1.9926086291592415 L96.0,-4.0 L96.8347660139393,-1.6883732012214658" fill="yellow" fill-opacity="0.6" stroke="black" stroke-width="1" />
<path d="M96.0,4.0 L96.8347660139393,1.6883732012214658 L97.3622391958373,1.5896883055941953" fill="black" fill-opacity="0.6" stroke="black" stroke-width="1" />
<path d="M96.0,-4.0 L96.8347660139393,-1.6883732012214658 L97.3622391958373,-1.5896883055941953" fill="green" fill-opacity="0.6" stroke="black" stroke-width="1" />
<path d="M96.8347660139393,1.6883732012214658 L97.3622391958373,1.5896883055941953 L97.84345668016041,0.603720946831604" fill="black" fill-opacity="0.6" stroke="black" stroke-width="1" />
<path d="M96.8347660139393,-1.6883732012214658 L97.3622391958373,-1.5896883055941953 L97.84345668016041,-0.603720946831604" fill="green" fill-opacity="0.6" stroke="black" stroke-width="1" />
<path d="M97.3622391958373,1.5896883055941953 L97.84345668016041,0.603720946831604 L100.0,-0.0" fill="brown" fill-opacity="0.6" stroke="black" stroke-width="1" />
<path d="M97.3622391958373,-1.5896883055941953 L97.84345668016041,-0.603720946831604 L100.0,-0.0" fill="purple" fill-opacity="0.6" stroke="black" stroke-width="1" />
<path d="M0.0,-0.0 L2.1132670362387267,-13.18798654950975 L0.0,-14.0" fill="green" fill-opacity="0.6" stroke="black" stroke-width="1" />
<path d="M0.0,-0.0 L2.1132670362387267,13.18798654950975 L0.0,14.0" fill="yellow" fill-opacity="0.6" stroke="black" stroke-width="1" />
<path d="M0.0,100.0 L2.1132670362387267,86.81201345049024 L0.0,86.0" fill="orange" fill-opacity="0.6" stroke="black" stroke-width="1" />
<path d="M0.0,-100.0 L2.1132670362387267,-86.81201345049024 L0.0,-86.0" fill="green" fill-opacity="0.6" stroke="black" stroke-width="1" />
<path d="M0.0,-14.0 L2.1692089013615634,-14.887306642165731 L2.586187388186658,-17.91015675774886" fill="red" fill-opacity="0.6" stroke="black" stroke-width="1" />
<path d="M0.0,14.0 L2.1692089013615634,14.887306642165731 L2.586187388186658,17.91015675774886" fill="pink" fill-opacity="0.6" stroke="black" stroke-width="1" />
<path d="M0.0,86.0 L2.1692089013615634,85.11269335783427 L2.586187388186658,82.08984324225113" fill="black" fill-opacity="0.6" stroke="black" stroke-width="1" />
<path d="M0.0,-86.0 L2.1692089013615634,-85.11269335783427 L2.586187388186658,-82.08984324225113" fill="brown" fill-opacity="0.6" stroke="black" stroke-width="1" />
<path d="M2.1692089013615634,-14.887306642165731 L2.586187388186658,-17.91015675774886 L2.640493339427072,-18.028248874954343" fill="black" fill-opacity="0.6" stroke="black" stroke-width="1" />
<path d="M2.1692089013615634,14.887306642165731 L2.586187388186658,17.91015675774886 L2.640493339427072,18.028248874954343" fill="red" fill-opacity="0.6" stroke="black" stroke-width="1" />
<path d="M2.1692089013615634,85.11269335783427 L2.586187388186658,82.08984324225113 L2.640493339427072,81.97175112504566" fill="pink" fill-opacity="0.6" stroke="black" stroke-width="1" />
<path d="M2.1692089013615634,-85.11269335783427 L2.586187388186658,-82.08984324225113 L2.640493339427072,-81.97175112504566" fill="orange" fill-opacity="0.6" stroke="black" stroke-width="1" />
<path d="M2.586187388186658,-17.91015675774886 L2.640493339427072,-18.028248874954343 L4.356482353183832,-18.338169899895814" fill="pink" fill-opacity="0.6" stroke="black" stroke-width="1" />
<path d="M2.586187388186658,17.91015675774886 L2.640493339427072,18.028248874954343 L4.356482353183832,18.338169899895814" fill="green" fill-opacity="0.6" stroke="black" stroke-width="1" />
<path d="M2.586187388186658,82.08984324225113 L2.640493339427072,81.97175112504566 L4.356482353183832,81.66183010010418" fill="green" fill-opacity="0.6" stroke="black" stroke-width="1" />
<path d="M2.586187388186658,-82.08984324225113 L2.640493339427072,-81.97175112504566 L4.356482353183832,-81.66183010010418" fill="pink" fill-opacity="0.6" stroke="black" stroke-width="1" />
<path d="M2.640493339427072,-18.028248874954343 L4.356482353183832,-18.338169899895814 L5.921949536692557,-18.75492015888624" fill="blue" fill-opacity="0.6" stroke="black" stroke-width="1" />
<path d="M2.640493339427072,18.028248874954343 L4.356482353183832,18.338169899895814 L5.921949536692557,18.75492015888624" fill="yellow" fill-opacity="0.6" stroke="black" stroke-width="1" />
<path d="M2.640493339427072,81.97175112504566 L4.356482353183832,81.66183010010418 L5.921949536692557,81.24507984111376" fill="brown" fill-opacity="0.6" stroke="black" stroke-width="1" />
<path d="M2.640493339427072,-81.97175112504566 L4.356482353183832,-81.66183010010418 L5.921949536692557,-81.24507984111376" fill="yellow" fill-opacity="0.6" stroke="black" stroke-width="1" />
<path d="M4.356482353183832,-18.338169899895814 L5.921949536692557,-18.75492015888624 L8.964760580784551,-18.841662778985338" fill="red" fill-opacity="0.6" stroke="black" stroke-width="1" />
<path d="M4.356482353183832,18.338169899895814 L5.921949536692557,18.75492015888624 L8.964760580784551,18.841662778985338" fill="red" fill-opacity="0.6" stroke="black" stroke-width="1" />
<path d="M4.356482353183832,81.66183010010418 L5.921949536692557,81.24507984111376 L8.964760580784551,81.15833722101466" fill="blue" fill-opacity="0.6" stroke="black" stroke-width="1" />
<path d="M4.356482353183832,-81.66183010010418 L5.921949536692557,-81.24507984111376 L8.964760580784551,-81.15833722101466" fill="red" fill-opacity="0.6" stroke="black" stroke-width="1" />
<path d="M5.921949536692557,-18.75492015888624 L8.964760580784551,-18.841662778985338 L10.553976916063752,-27.609087608537614" fill="purple" fill-opacity="0.6" stroke="black" stroke-width="1" />
<path d="M5.921949536692557,18.75492015888624 L8.964760580784551,18.841662778985338 L10.553976916063752,27.609087608537614" fill="brown" fill-opacity="0.6" stroke="black" stroke-width="1" />
<path d="M5.921949536692557,81.24507984111376 L8.964760580784551,81.15833722101466 L10.553976916063752,72.3909123914624" fill="blue" fill-opacity="0.6" stroke="black" stroke-width="1" />
<path d="M5.921949536692557,-81.24507984111376 L8.964760580784551,-81.15833722101466 L10.553976916063752,-72.3909123914624" fill="purple" fill-opacity="0.6" stroke="black" stroke-width="1" />
<path d="M8.964760580784551,-18.841662778985338 L10.553976916063752,-27.609087608537614 L0.0,-28.0" fill="green" fill-opacity="0.6" stroke="black" stroke-width="1" />
<path d="M8.964760580784551,18.841662778985338 L10.553976916063752,27.609087608537614 L0.0,28.0" fill="blue" fill-opacity="0.6" stroke="black" stroke-width="1" />
<path d="M8.964760580784551,81.15833722101466 L10.553976916063752,72.3909123914624 L0.0,72.0" fill="orange" fill-opacity="0.6" stroke="black" stroke-width="1" />
<path d="M8.964760580784551,-81.15833722101466 L10.553976916063752,-72.3909123914624 L0.0,-72.0" fill="red" fill-opacity="0.6" stroke="black" stroke-width="1" />
<path d="M0.0,-28.0 L14.337508391801675,-28.617402434623664 L0.0,-31.0" fill="brown" fill-opacity="0.6" stroke="black" stroke-width="1" />
<path d="M0.0,28.0 L14.337508391801675,28.617402434623664 L0.0,31.0" fill="purple" fill-opacity="0.6" stroke="black" stroke-width="1" />
<path d="M0.0,72.0 L14.337508391801675,71.38259756537633 L0.0,69.0" fill="black" fill-opacity="0.6" stroke="black" stroke-width="1" />
<path d="M0.0,-72.0 L14.337508391801675,-71.38259756537633 L0.0,-69.0" fill="pink" fill-opacity="0.6" stroke="black" stroke-width="1" />
<path d="M23.0,-50.0 L25.81455136033562,-40.37895201084715 L28.0,-50.0" fill="red" fill-opacity="0.6" stroke="black" stroke-width="1" />
<path d="M23.0,50.0 L25.81455136033562,40.37895201084715 L28.0,50.0" fill="black" fill-opacity="0.6" stroke="black" stroke-width="1" />
<path d="M23.0,50.0 L25.81455136033562,59.62104798915285 L28.0,50.0" fill="yellow" fill-opacity="0.6" stroke="black" stroke-width="1" />
<path d="M23.0,-50.0 L25.81455136033562,-59.62104798915285 L28.0,-50.0" fill="pink" fill-opacity="0.6" stroke="black" stroke-width="1" />
<path d="M28.0,-50.0 L31.625665672226745,-44.63817576681059 L31.72216997606428,-45.580458641456886" fill="orange" fill-opacity="0.6" stroke="black" stroke-width="1" />
<path d="M28.0,50.0 L31.625665672226745,44.63817576681059 L31.72216997606428,45.580458641456886" fill="yellow" fill-opacity="0.6" stroke="black" stroke-width="1" />
<path d="M28.0,50.0 L31.625665672226745,55.36182423318941 L31.72216997606428,54.419541358543114" fill="yellow" fill-opacity="0.6" stroke="black" stroke-width="1" />
<path d="M28.0,-50.0 L31.625665672226745,-55.36182423318941 L31.72216997606428,-54.419541358543114" fill="black" fill-opacity="0.6" stroke="black" stroke-width="1" />
<path d="M31.625665672226745,-44.63817576681059 L31.72216997606428,-45.580458641456886 L34.66729028932701,-45.66778258311063" fill="purple" fill-opacity="0.6" stroke="black" stroke-width="1" />
<path d="M31.625665672226745,44.63817576681059 L31.72216997606428,45.580458641456886 L34.66729028932701,45.66778258311063" fill="pink" fill-opacity="0.6" stroke="black" stroke-width="1" />
<path d="M31.625665672226745,55.36182423318941 L31.72216997606428,54.419541358543114 L34.66729028932701,54.33221741688937" fill="brown" fill-opacity="0.6" stroke="black" stroke-width="1" />
<path d="M31.625665672226745,-55.36182423318941 L31.72216997606428,-54.419541358543114 L34.66729028932701,-54.33221741688937" fill="brown" fill-opacity="0.6" stroke="black" stroke-width="1" />
<path d="M31.72216997606428,-45.580458641456886 L34.66729028932701,-45.66778258311063 L37.20573324598904,-46.46016796806167" fill="red" fill-opacity="0.6" stroke="black" stroke-width="1" />
<path d="M31.72216997606428,45.580458641456886 L34.66729028932701,45.66778258311063 L37.20573324598904,46.46016796806167" fill="black" fill-opacity="0.6" stroke="black" stroke-width="1" />
<path d="M31.72216997606428,54.419541358543114 L34.66729028932701,54.33221741688937 L37.20573324598904,53.53983203193833" fill="orange" fill-opacity="0.6" stroke="black" stroke-width="1" />
<path d="M31.72216997606428,-54.419541358543114 L34.66729028932701,-54.33221741688937 L37.20573324598904,-53.53983203193833" fill="red" fill-opacity="0.6" stroke="black" stroke-width="1" />
<path d="M34.66729028932701,-45.66778258311063 L37.20573324598904,-46.46016796806167 L41.0,-50.0" fill="green" fill-opacity="0.6" stroke="black" stroke-width="1" />
<path d="M34.66729028932701,45.66778258311063 L37.20573324598904,46.46016796806167 L41.0,50.0" fill="brown" fill-opacity="0.6" stroke="black" stroke-width="1" />
<path d="M34.66729028932701,54.33221741688937 L37.20573324598904,53.53983203193833 L41.0,50.0" fill="blue" fill-opacity="0.6" stroke="black" stroke-width="1" />
<path d="M34.66729028932701,-54.33221741688937 L37.20573324598904,-53.53983203193833 L41.0,-50.0" fill="yellow" fill-opacity="0.6" stroke="black" stroke-width="1" />
<path d="M50.0,-50.0 L40.719423968673304,-46.47404014798335 L45.0,-45.0" fill="red" fill-opacity="0.6" stroke="black" stroke-width="1" />
<path d="M50.0,50.0 L40.719423968673304,46.47404014798335 L45.0,45.0" fill="pink" fill-opacity="0.6" stroke="black" stroke-width="1" />
<path d="M50.0,50.0 L40.719423968673304,53.52595985201665 L45.0,55.0" fill="red" fill-opacity="0.6" stroke="black" stroke-width="1" />
<path d="M50.0,-50.0 L40.719423968673304,-53.52595985201665 L45.0,-55.0" fill="orange" fill-opacity="0.6" stroke="black" stroke-width="1" />
<path d="M13.0,-13.0 L1.9926086291592415,-4.993553333546141 L4.0,-4.0" fill="black" fill-opacity="0.6" stroke="black" stroke-width="1" />
<path d="M13.0,13.0 L1.9926086291592415,4.993553333546141 L4.0,4.0" fill="yellow" fill-opacity="0.6" stroke="black" stroke-width="1" />
<path d="M13.0,87.0 L1.9926086291592415,95.00644666645385 L4.0,96.0" fill="purple" fill-opacity="0.6" stroke="black" stroke-width="1" />
<path d="M13.0,-87.0 L1.9926086291592415,-95.00644666645385 L4.0,-96.0" fill="red" fill-opacity="0.6" stroke="black" stroke-width="1" />
<path d="M4.0,-4.0 L1.6883732012214658,-3.1652339860607004 L1.5896883055941953,-2.637760804162703" fill="orange" fill-opacity="0.6" stroke="black" stroke-width="1" />
<path d="M4.0,4.0 L1.6883732012214658,3.1652339860607004 L1.5896883055941953,2.637760804162703" fill="pink" fill-opacity="0.6" stroke="black" stroke-width="1" />
<path d="M4.0,96.0 L1.6883732012214658,96.8347660139393 L1.5896883055941953,97.3622391958373" fill="blue" fill-opacity="0.6" stroke="black" stroke-width="1" />
<path d="M4.0,-96.0 L1.6883732012214658,-96.8347660139393 L1.5896883055941953,-97.3622391958373" fill="green" fill-opacity="0.6" stroke="black" stroke-width="1" />
<path d="M1.6883732012214658,-3.1652339860607004 L1.5896883055941953,-2.637760804162703 L0.603720946831604,-2.1565433198395825" fill="brown" fill-opacity="0.6" stroke="black" stroke-width="1" />
<path d="M1.6883732012214658,3.1652339860607004 L1.5896883055941953,2.637760804162703 L0.603720946831604,2.1565433198395825" fill="green" fill-opacity="0.6" stroke="black" stroke-width="1" />
<path d="M1.6883732012214658,96.8347660139393 L1.5896883055941953,97.3622391958373 L0.603720946831604,97.84345668016041" fill="blue" fill-opacity="0.6" stroke="black" stroke-width="1" />
<path d="M1.6883732012214658,-96.8347660139393 L1.5896883055941953,-97.3622391958373 L0.603720946831604,-97.84345668016041" fill="green" fill-opacity="0.6" stroke="black" stroke-width="1" />
<path d="M1.5896883055941953,-2.637760804162703 L0.603720946831604,-2.1565433198395825 L0.0,-0.0" fill="orange" fill-opacity="0.6" stroke="black" stroke-width="1" />
<path d="M1.5896883055941953,2.637760804162703 L0.603720946831604,2.1565433198395825 L0.0,-0.0" fill="pink" fill-opacity="0.6" stroke="black" stroke-width="1" />
<path d="M1.5896883055941953,97.3622391958373 L0.603720946831604,97.84345668016041 L0.0,100.0" fill="orange" fill-opacity="0.6" stroke="black" stroke-width="1" />
<path d="M1.5896883055941953,-97.3622391958373 L0.603720946831604,-97.84345668016041 L0.0,-100.0" fill="purple" fill-opacity="0.6" stroke="black" stroke-width="1" />
<path d="M0.0,100.0 L-2.1132670362387267,86.81201345049026 L0.0,86.0" fill="purple" fill-opacity="0.6" stroke="black" stroke-width="1" />
<path d="M0.0,-0.0 L-2.1132670362387267,-13.18798654950975 L0.0,-14.0" fill="black" fill-opacity="0.6" stroke="black" stroke-width="1" />
<path d="M0.0,-0.0 L-2.1132670362387267,13.187986549509745 L0.0,14.0" fill="black" fill-opacity="0.6" stroke="black" stroke-width="1" />
<path d="M0.0,-100.0 L-2.1132670362387267,-86.81201345049024 L0.0,-86.0" fill="orange" fill-opacity="0.6" stroke="black" stroke-width="1" />
<path d="M0.0,86.0 L-2.1692089013615634,85.11269335783427 L-2.586187388186658,82.08984324225113" fill="orange" fill-opacity="0.6" stroke="black" stroke-width="1" />
<path d="M0.0,-14.0 L-2.1692089013615634,-14.887306642165731 L-2.586187388186658,-17.91015675774886" fill="yellow" fill-opacity="0.6" stroke="black" stroke-width="1" />
<path d="M0.0,14.0 L-2.1692089013615634,14.887306642165726 L-2.586187388186658,17.910156757748865" fill="black" fill-opacity="0.6" stroke="black" stroke-width="1" />
<path d="M0.0,-86.0 L-2.1692089013615634,-85.11269335783427 L-2.586187388186658,-82.08984324225113" fill="blue" fill-opacity="0.6" stroke="black" stroke-width="1" />
<path d="M-2.1692089013615634,85.11269335783427 L-2.586187388186658,82.08984324225113 L-2.640493339427072,81.97175112504566" fill="black" fill-opacity="0.6" stroke="black" stroke-width="1" />
<path d="M-2.1692089013615634,-14.887306642165731 L-2.586187388186658,-17.91015675774886 L-2.640493339427072,-18.028248874954343" fill="blue" fill-opacity="0.6" stroke="black" stroke-width="1" />
<path d="M-2.1692089013615634,14.887306642165726 L-2.586187388186658,17.910156757748865 L-2.640493339427072,18.028248874954343" fill="blue" fill-opacity="0.6" stroke="black" stroke-width="1" />
<path d="M-2.1692089013615634,-85.11269335783427 L-2.586187388186658,-82.08984324225113 L-2.640493339427072,-81.97175112504566" fill="brown" fill-opacity="0.6" stroke="black" stroke-width="1" />
<path d="M-2.586187388186658,82.08984324225113 L-2.640493339427072,81.97175112504566 L-4.356482353183832,81.66183010010418" fill="brown" fill-opacity="0.6" stroke="black" stroke-width="1" />
<path d="M-2.586187388186658,-17.91015675774886 L-2.640493339427072,-18.028248874954343 L-4.356482353183832,-18.338169899895814" fill="orange" fill-opacity="0.6" stroke="black" stroke-width="1" />
<path d="M-2.586187388186658,17.910156757748865 L-2.640493339427072,18.028248874954343 L-4.356482353183832,18.338169899895817" fill="brown" fill-opacity="0.6" stroke="black" stroke-width="1" />
<path d="M-2.586187388186658,-82.08984324225113 L-2.640493339427072,-81.97175112504566 L-4.356482353183832,-81.66183010010418" fill="blue" fill-opacity="0.6" stroke="black" stroke-width="1" />
<path d="M-2.640493339427072,81.97175112504566 L-4.356482353183832,81.66183010010418 L-5.921949536692557,81.24507984111376" fill="black" fill-opacity="0.6" stroke="black" stroke-width="1" />
<path d="M-2.640493339427072,-18.028248874954343 L-4.356482353183832,-18.338169899895814 L-5.921949536692557,-18.75492015888624" fill="purple" fill-opacity="0.6" stroke="black" stroke-width="1" />
<path d="M-2.640493339427072,18.028248874954343 L-4.356482353183832,18.338169899895817 L-5.921949536692557,18.754920158886236" fill="brown" fill-opacity="0.6" stroke="black" stroke-width="1" />
<path d="M-2.640493339427072,-81.97175112504566 L-4.356482353183832,-81.66183010010418 L-5.921949536692557,-81.24507984111376" fill="orange" fill-opacity="0.6" stroke="black" stroke-width="1" />
<path d="M-4.356482353183832,81.66183010010418 L-5.921949536692557,81.24507984111376 L-8.964760580784551,81.15833722101466" fill="blue" fill-opacity="0.6" stroke="black" stroke-width="1" />
<path d="M-4.356482353183832,-18.338169899895814 L-5.921949536692557,-18.75492015888624 L-8.964760580784551,-18.841662778985338" fill="black" fill-opacity="0.6" stroke="black" stroke-width="1" />
<path d="M-4.356482353183832,18.338169899895817 L-5.921949536692557,18.754920158886236 L-8.964760580784551,18.841662778985338" fill="brown" fill-opacity="0.6" stroke="black" stroke-width="1" />
<path d="M-4.356482353183832,-81.66183010010418 L-5.921949536692557,-81.24507984111376 L-8.964760580784551,-81.15833722101466" fill="blue" fill-opacity="0.6" stroke="black" stroke-width="1" />
<path d="M-5.921949536692557,81.24507984111376 L-8.964760580784551,81.15833722101466 L-10.553976916063752,72.3909123914624" fill="black" fill-opacity="0.6" stroke="black" stroke-width="1" />
<path d="M-5.921949536692557,-18.75492015888624 L-8.964760580784551,-18.841662778985338 L-10.553976916063752,-27.609087608537614" fill="brown" fill-opacity="0.6" stroke="black" stroke-width="1" />
<path d="M-5.921949536692557,18.754920158886236 L-8.964760580784551,18.841662778985338 L-10.553976916063752,27.609087608537607" fill="green" fill-opacity="0.6" stroke="black" stroke-width="1" />
<path d="M-5.921949536692557,-81.24507984111376 L-8.964760580784551,-81.15833722101466 L-10.553976916063752,-72.3909123914624" fill="blue" fill-opacity="0.6" stroke="black" stroke-width="1" />
<path d="M-8.964760580784551,81.15833722101466 L-10.553976916063752,72.3909123914624 L0.0,72.0" fill="blue" fill-opacity="0.6" stroke="black" stroke-width="1" />
<path d="M-8.964760580784551,-18.841662778985338 L-10.553976916063752,-27.609087608537614 L0.0,-28.0" fill="green" fill-opacity="0.6" stroke="black" stroke-width="1" />
<path d="M-8.964760580784551,18.841662778985338 L-10.553976916063752,27.609087608537607 L0.0,28.0" fill="orange" fill-opacity="0.6" stroke="black" stroke-width="1" />
<path d="M-8.964760580784551,-81.15833722101466 L-10.553976916063752,-72.3909123914624 L0.0,-72.0" fill="red" fill-opacity="0.6" stroke="black" stroke-width="1" />
<path d="M0.0,72.0 L-14.337508391801675,71.38259756537633 L0.0,69.0" fill="black" fill-opacity="0.6" stroke="black" stroke-width="1" />
<path d="M0.0,-28.0 L-14.337508391801675,-28.617402434623664 L0.0,-31.0" fill="red" fill-opacity="0.6" stroke="black" stroke-width="1" />
<path d="M0.0,28.0 L-14.337508391801675,28.61740243462367 L0.0,31.0" fill="orange" fill-opacity="0.6" stroke="black" stroke-width="1" />
<path d="M0.0,-72.0 L-14.337508391801675,-71.38259756537633 L0.0,-69.0" fill="blue" fill-opacity="0.6" stroke="black" stroke-width="1" />
<path d="M-23.0,50.0 L-25.81455136033562,59.62104798915285 L-28.0,50.0" fill="brown" fill-opacity="0.6" stroke="black" stroke-width="1" />
<path d="M-23.0,-50.0 L-25.81455136033562,-40.37895201084715 L-28.0,-50.0" fill="green" fill-opacity="0.6" stroke="black" stroke-width="1" />
<path d="M-23.0,50.0 L-25.81455136033562,40.37895201084715 L-28.0,50.0" fill="purple" fill-opacity="0.6" stroke="black" stroke-width="1" />
<path d="M-23.0,-50.0 L-25.81455136033562,-59.62104798915285 L-28.0,-50.0" fill="orange" fill-opacity="0.6" stroke="black" stroke-width="1" />
<path d="M-28.0,50.0 L-31.625665672226745,55.36182423318941 L-31.72216997606428,54.419541358543114" fill="brown" fill-opacity="0.6" stroke="black" stroke-width="1" />
<path d="M-28.0,-50.0 L-31.625665672226745,-44.63817576681059 L-31.72216997606428,-45.580458641456886" fill="blue" fill-opacity="0.6" stroke="black" stroke-width="1" />
<path d="M-28.0,50.0 L-31.625665672226745,44.63817576681059 L-31.72216997606428,45.580458641456886" fill="black" fill-opacity="0.6" stroke="black" stroke-width="1" />
<path d="M-28.0,-50.0 L-31.625665672226745,-55.36182423318941 L-31.72216997606428,-54.419541358543114" fill="orange" fill-opacity="0.6" stroke="black" stroke-width="1" />
<path d="M-31.625665672226745,55.36182423318941 L-31.72216997606428,54.419541358543114 L-34.66729028932701,54.33221741688937" fill="yellow" fill-opacity="0.6" stroke="black" stroke-width="1" />
<path d="M-31.625665672226745,-44.63817576681059 L-31.72216997606428,-45.580458641456886 L-34.66729028932701,-45.66778258311063" fill="black" fill-opacity="0.6" stroke="black" stroke-width="1" />
<path d="M-31.625665672226745,44.63817576681059 L-31.72216997606428,45.580458641456886 L-34.66729028932701,45.66778258311063" fill="brown" fill-opacity="0.6" stroke="black" stroke-width="1" />
<path d="M-31.625665672226745,-55.36182423318941 L-31.72216997606428,-54.419541358543114 L-34.66729028932701,-54.33221741688937" fill="green" fill-opacity="0.6" stroke="black" stroke-width="1" />
<path d="M-31.72216997606428,54.419541358543114 L-34.66729028932701,54.33221741688937 L-37.20573324598904,53.53983203193833" fill="yellow" fill-opacity="0.6" stroke="black" stroke-width="1" />
<path d="M-31.72216997606428,-45.580458641456886 L-34.66729028932701,-45.66778258311063 L-37.20573324598904,-46.46016796806167" fill="red" fill-opacity="0.6" stroke="black" stroke-width="1" />
<path d="M-31.72216997606428,45.580458641456886 L-34.66729028932701,45.66778258311063 L-37.20573324598904,46.46016796806167" fill="green" fill-opacity="0.6" stroke="black" stroke-width="1" />
<path d="M-31.72216997606428,-54.419541358543114 L-34.66729028932701,-54.33221741688937 L-37.20573324598904,-53.53983203193833" fill="purple" fill-opacity="0.6" stroke="black" stroke-width="1" />
<path d="M-34.66729028932701,54.33221741688937 L-37.20573324598904,53.53983203193833 L-41.0,50.0" fill="yellow" fill-opacity="0.6" stroke="black" stroke-width="1" />
<path d="M-34.66729028932701,-45.66778258311063 L-37.20573324598904,-46.46016796806167 L-41.0,-50.0" fill="blue" fill-opacity="0.6" stroke="black" stroke-width="1" />
<path d="M-34.66729028932701,45.66778258311063 L-37.20573324598904,46.46016796806167 L-41.0,50.0" fill="green" fill-opacity="0.6" stroke="black" stroke-width="1" />
<path d="M-34.66729028932701,-54.33221741688937 L-37.20573324598904,-53.53983203193833 L-41.0,-50.0" fill="pink" fill-opacity="0.6" stroke="black" stroke-width="1" />
<path d="M-50.0,50.0 L-40.719423968673304,53.52595985201665 L-45.0,55.0" fill="red" fill-opacity="0.6" stroke="black" stroke-width="1" />
<path d="M-50.0,-50.0 L-40.719423968673304,-46.47404014798335 L-45.0,-45.0" fill="orange" fill-opacity="0.6" stroke="black" stroke-width="1" />
<path d="M-50.0,50.0 L-40.719423968673304,46.47404014798335 L-45.0,45.0" fill="brown" fill-opacity="0.6" stroke="black" stroke-width="1" />
<path d="M-50.0,-50.0 L-40.719423968673304,-53.52595985201665 L-45.0,-55.0" fill="blue" fill-opacity="0.6" stroke="black" stroke-width="1" />
<path d="M-13.0,87.0 L-1.9926086291592415,95.00644666645385 L-4.0,96.0" fill="green" fill-opacity="0.6" stroke="black" stroke-width="1" />
<path d="M-13.0,-13.0 L-1.9926086291592415,-4.993553333546141 L-4.0,-4.0" fill="pink" fill-opacity="0.6" stroke="black" stroke-width="1" />
<path d="M-13.0,13.0 L-1.9926086291592415,4.993553333546146 L-4.0,4.0" fill="blue" fill-opacity="0.6" stroke="black" stroke-width="1" />
<path d="M-13.0,-87.0 L-1.9926086291592415,-95.00644666645385 L-4.0,-96.0" fill="black" fill-opacity="0.6" stroke="black" stroke-width="1" />
<path d="M-4.0,96.0 L-1.6883732012214658,96.8347660139393 L-1.5896883055941953,97.36223919583729" fill="purple" fill-opacity="0.6" stroke="black" stroke-width="1" />
<path d="M-4.0,-4.0 L-1.6883732012214658,-3.1652339860607004 L-1.5896883055941953,-2.637760804162703" fill="yellow" fill-opacity="0.6" stroke="black" stroke-width="1" />
<path d="M-4.0,4.0 L-1.6883732012214658,3.1652339860606986 L-1.5896883055941953,2.63776080416271" fill="red" fill-opacity="0.6" stroke="black" stroke-width="1" />
<path d="M-4.0,-96.0 L-1.6883732012214658,-96.8347660139393 L-1.5896883055941953,-97.3622391958373" fill="black" fill-opacity="0.6" stroke="black" stroke-width="1" />
<path d="M-1.6883732012214658,96.8347660139393 L-1.5896883055941953,97.36223919583729 L-0.603720946831604,97.84345668016041" fill="green" fill-opacity="0.6" stroke="black" stroke-width="1" />
<path d="M-1.6883732012214658,-3.1652339860607004 L-1.5896883055941953,-2.637760804162703 L-0.603720946831604,-2.1565433198395825" fill="black" fill-opacity="0.6" stroke="black" stroke-width="1" />
<path d="M-1.6883732012214658,3.1652339860606986 L-1.5896883055941953,2.63776080416271 L-0.603720946831604,2.156543319839585" fill="red" fill-opacity="0.6" stroke="black" stroke-width="1" />
<path d="M-1.6883732012214658,-96.8347660139393 L-1.5896883055941953,-97.3622391958373 L-0.603720946831604,-97.84345668016041" fill="black" fill-opacity="0.6" stroke="black" stroke-width="1" />
<path d="M-1.5896883055941953,97.36223919583729 L-0.603720946831604,97.84345668016041 L0.0,100.0" fill="pink" fill-opacity="0.6" stroke="black" stroke-width="1" />
<path d="M-1.5896883055941953,-2.637760804162703 L-0.603720946831604,-2.1565433198395825 L0.0,-0.0" fill="green" fill-opacity="0.6" stroke="black" stroke-width="1" />
<path d="M-1.5896883055941953,2.63776080416271 L-0.603720946831604,2.156543319839585 L0.0,-0.0" fill="pink" fill-opacity="0.6" stroke="black" stroke-width="1" />
<path d="M-1.5896883055941953,-97.3622391958373 L-0.603720946831604,-97.84345668016041 L0.0,-100.0" fill="red" fill-opacity="0.6" stroke="black" stroke-width="1" />
<path d="M-100.0,-0.0 L-86.81201345049024,-2.1132670362387267 L-86.0,-0.0" fill="green" fill-opacity="0.6" stroke="black" stroke-width="1" />
<path d="M-100.0,-0.0 L-86.81201345049024,2.1132670362387267 L-86.0,-0.0" fill="black" fill-opacity="0.6" stroke="black" stroke-width="1" />
<path d="M-86.0,-0.0 L-85.11269335783427,-2.1692089013615634 L-82.08984324225113,-2.586187388186658" fill="green" fill-opacity="0.6" stroke="black" stroke-width="1" />
<path d="M-86.0,-0.0 L-85.11269335783427,2.1692089013615634 L-82.08984324225113,2.586187388186658" fill="purple" fill-opacity="0.6" stroke="black" stroke-width="1" />
<path d="M-85.11269335783427,-2.1692089013615634 L-82.08984324225113,-2.586187388186658 L-81.97175112504566,-2.640493339427072" fill="black" fill-opacity="0.6" stroke="black" stroke-width="1" />
<path d="M-85.11269335783427,2.1692089013615634 L-82.08984324225113,2.586187388186658 L-81.97175112504566,2.640493339427072" fill="purple" fill-opacity="0.6" stroke="black" stroke-width="1" />
<path d="M-82.08984324225113,-2.586187388186658 L-81.97175112504566,-2.640493339427072 L-81.66183010010418,-4.356482353183832" fill="orange" fill-opacity="0.6" stroke="black" stroke-width="1" />
<path d="M-82.08984324225113,2.586187388186658 L-81.97175112504566,2.640493339427072 L-81.66183010010418,4.356482353183832" fill="yellow" fill-opacity="0.6" stroke="black" stroke-width="1" />
<path d="M-81.97175112504566,-2.640493339427072 L-81.66183010010418,-4.356482353183832 L-81.24507984111376,-5.921949536692557" fill="green" fill-opacity="0.6" stroke="black" stroke-width="1" />
<path d="M-81.97175112504566,2.640493339427072 L-81.66183010010418,4.356482353183832 L-81.24507984111376,5.921949536692557" fill="pink" fill-opacity="0.6" stroke="black" stroke-width="1" />
<path d="M-81.66183010010418,-4.356482353183832 L-81.24507984111376,-5.921949536692557 L-81.15833722101466,-8.964760580784551" fill="blue" fill-opacity="0.6" stroke="black" stroke-width="1" />
<path d="M-81.66183010010418,4.356482353183832 L-81.24507984111376,5.921949536692557 L-81.15833722101466,8.964760580784551" fill="yellow" fill-opacity="0.6" stroke="black" stroke-width="1" />
<path d="M-81.24507984111376,-5.921949536692557 L-81.15833722101466,-8.964760580784551 L-72.3909123914624,-10.553976916063752" fill="yellow" fill-opacity="0.6" stroke="black" stroke-width="1" />
<path d="M-81.24507984111376,5.921949536692557 L-81.15833722101466,8.964760580784551 L-72.3909123914624,10.553976916063752" fill="pink" fill-opacity="0.6" stroke="black" stroke-width="1" />
<path d="M-81.15833722101466,-8.964760580784551 L-72.3909123914624,-10.553976916063752 L-72.0,-0.0" fill="purple" fill-opacity="0.6" stroke="black" stroke-width="1" />
<path d="M-81.15833722101466,8.964760580784551 L-72.3909123914624,10.553976916063752 L-72.0,-0.0" fill="black" fill-opacity="0.6" stroke="black" stroke-width="1" />
<path d="M-72.0,-0.0 L-71.38259756537633,-14.337508391801675 L-69.0,-0.0" fill="brown" fill-opacity="0.6" stroke="black" stroke-width="1" />
<path d="M-72.0,-0.0 L-71.38259756537633,14.337508391801675 L-69.0,-0.0" fill="orange" fill-opacity="0.6" stroke="black" stroke-width="1" />
<path d="M-50.0,-23.0 L-59.62104798915285,-25.81455136033562 L-50.0,-28.0" fill="purple" fill-opacity="0.6" stroke="black" stroke-width="1" />
<path d="M-50.0,23.0 L-59.62104798915285,25.81455136033562 L-50.0,28.0" fill="green" fill-opacity="0.6" stroke="black" stroke-width="1" />
<path d="M-50.0,-28.0 L-55.36182423318941,-31.625665672226745 L-54.419541358543114,-31.72216997606428" fill="yellow" fill-opacity="0.6" stroke="black" stroke-width="1" />
<path d="M-50.0,28.0 L-55.36182423318941,31.625665672226745 L-54.419541358543114,31.72216997606428" fill="green" fill-opacity="0.6" stroke="black" stroke-width="1" />
<path d="M-55.36182423318941,-31.625665672226745 L-54.419541358543114,-31.72216997606428 L-54.33221741688937,-34.66729028932701" fill="yellow" fill-opacity="0.6" stroke="black" stroke-width="1" />
<path d="M-55.36182423318941,31.625665672226745 L-54.419541358543114,31.72216997606428 L-54.33221741688937,34.66729028932701" fill="green" fill-opacity="0.6" stroke="black" stroke-width="1" />
<path d="M-54.419541358543114,-31.72216997606428 L-54.33221741688937,-34.66729028932701 L-53.53983203193833,-37.20573324598904" fill="blue" fill-opacity="0.6" stroke="black" stroke-width="1" />
<path d="M-54.419541358543114,31.72216997606428 L-54.33221741688937,34.66729028932701 L-53.53983203193833,37.20573324598904" fill="orange" fill-opacity="0.6" stroke="black" stroke-width="1" />
<path d="M-54.33221741688937,-34.66729028932701 L-53.53983203193833,-37.20573324598904 L-50.0,-41.0" fill="blue" fill-opacity="0.6" stroke="black" stroke-width="1" />
<path d="M-54.33221741688937,34.66729028932701 L-53.53983203193833,37.20573324598904 L-50.0,41.0" fill="black" fill-opacity="0.6" stroke="black" stroke-width="1" />
<path d="M-50.0,-50.0 L-53.52595985201665,-40.719423968673304 L-55.0,-45.0" fill="purple" fill-opacity="0.6" stroke="black" stroke-width="1" />
<path d="M-50.0,50.0 L-53.52595985201665,40.719423968673304 L-55.0,45.0" fill="orange" fill-opacity="0.6" stroke="black" stroke-width="1" />
<path d="M-53.52595985201665,-40.719423968673304 L-55.0,-45.0 L-59.0,-41.0" fill="blue" fill-opacity="0.6" stroke="black" stroke-width="1" />
<path d="M-53.52595985201665,40.719423968673304 L-55.0,45.0 L-59.0,41.0" fill="yellow" fill-opacity="0.6" stroke="black" stroke-width="1" />
<path d="M-55.0,-45.0 L-59.0,-41.0 L-65.0,-35.0" fill="brown" fill-opacity="0.6" stroke="black" stroke-width="1" />
<path d="M-55.0,45.0 L-59.0,41.0 L-65.0,35.0" fill="pink" fill-opacity="0.6" stroke="black" stroke-width="1" />
<path d="M-59.0,-41.0 L-65.0,-35.0 L-87.0,-13.0" fill="pink" fill-opacity="0.6" stroke="black" stroke-width="1" />
<path d="M-59.0,41.0 L-65.0,35.0 L-87.0,13.0" fill="brown" fill-opacity="0.6" stroke="black" stroke-width="1" />
<path d="M-65.0,-35.0 L-87.0,-13.0 L-95.00644666645385,-1.9926086291592415" fill="red" fill-opacity="0.6" stroke="black" stroke-width="1" />
<path d="M-65.0,35.0 L-87.0,13.0 L-95.00644666645385,1.9926086291592415" fill="purple" fill-opacity="0.6" stroke="black" stroke-width="1" />
<path d="M-87.0,-13.0 L-95.00644666645385,-1.9926086291592415 L-96.0,-4.0" fill="purple" fill-opacity="0.6" stroke="black" stroke-width="1" />
<path d="M-87.0,13.0 L-95.00644666645385,1.9926086291592415 L-96.0,4.0" fill="green" fill-opacity="0.6" stroke="black" stroke-width="1" />
<path d="M-95.00644666645385,-1.9926086291592415 L-96.0,-4.0 L-96.8347660139393,-1.6883732012214658" fill="pink" fill-opacity="0.6" stroke="black" stroke-width="1" />
<path d="M-95.00644666645385,1.9926086291592415 L-96.0,4.0 L-96.8347660139393,1.6883732012214658" fill="orange" fill-opacity="0.6" stroke="black" stroke-width="1" />
<path d="M-96.0,-4.0 L-96.8347660139393,-1.6883732012214658 L-97.3622391958373,-1.5896883055941953" fill="green" fill-opacity="0.6" stroke="black" stroke-width="1" />
<path d="M-96.0,4.0 L-96.8347660139393,1.6883732012214658 L-97.3622391958373,1.5896883055941953" fill="green" fill-opacity="0.6" stroke="black" stroke-width="1" />
<path d="M-96.8347660139393,-1.6883732012214658 L-97.3622391958373,-1.5896883055941953 L-97.84345668016041,-0.603720946831604" fill="pink" fill-opacity="0.6" stroke="black" stroke-width="1" />
<path d="M-96.8347660139393,1.6883732012214658 L-97.3622391958373,1.5896883055941953 L-97.84345668016041,0.603720946831604" fill="brown" fill-opacity="0.6" stroke="black" stroke-width="1" />
<path d="M-97.3622391958373,-1.5896883055941953 L-97.84345668016041,-0.603720946831604 L-100.0,-0.0" fill="red" fill-opacity="0.6" stroke="black" stroke-width="1" />
<path d="M-97.3622391958373,1.5896883055941953 L-97.84345668016041,0.603720946831604 L-100.0,-0.0" fill="black" fill-opacity="0.6" stroke="black" stroke-width="1" />
</svg>