<?xml version="1.0" encoding="UTF-8"?>
<svg xmlns="http://www.w3.org/2000/svg" xmlns:xlink="http://www.w3.org/1999/xlink"
     width="250" height="250" viewBox="-125.0 -125.0 250 250">
<defs>
</defs>
<path d="M1.0,-0.0 L14.89932231440962,-0.7606824662551585 L16.414073281256403,-0.9663393440275864" fill-opacity="0" stroke="black" stroke-width="1" />
<path d="M1.0,-0.0 L14.89932231440962,0.7606824662551585 L16.414073281256403,0.9663393440275864" fill-opacity="0" stroke="black" stroke-width="1" />
<path d="M14.89932231440962,-0.7606824662551585 L16.414073281256403,-0.9663393440275864 L17.0,-0.0" fill-opacity="0" stroke="black" stroke-width="1" />
<path d="M14.89932231440962,0.7606824662551585 L16.414073281256403,0.9663393440275864 L17.0,-0.0" fill-opacity="0" stroke="black" stroke-width="1" />
<path d="M17.0,-0.0 L17.085386382285822,-3.1248442205893596 L24.0,-0.0" fill-opacity="0" stroke="black" stroke-width="1" />
<path d="M17.0,-0.0 L17.085386382285822,3.1248442205893596 L24.0,-0.0" fill-opacity="0" stroke="black" stroke-width="1" />
<path d="M24.0,-0.0 L27.421304784492182,-12.475922807371365 L29.276639045879588,-12.701963208369548" fill-opacity="0" stroke="black" stroke-width="1" />
<path d="M24.0,-0.0 L27.421304784492182,12.475922807371365 L29.276639045879588,12.701963208369548" fill-opacity="0" stroke="black" stroke-width="1" />
<path d="M27.421304784492182,-12.475922807371365 L29.276639045879588,-12.701963208369548 L30.16352084947545,-13.867922812490669" fill-opacity="0" stroke="black" stroke-width="1" />
<path d="M27.421304784492182,12.475922807371365 L29.276639045879588,12.701963208369548 L30.16352084947545,13.867922812490669" fill-opacity="0" stroke="black" stroke-width="1" />
<path d="M29.276639045879588,-12.701963208369548 L30.16352084947545,-13.867922812490669 L31.030763927224314,-15.69066719754339" fill-opacity="0" stroke="black" stroke-width="1" />
<path d="M29.276639045879588,12.701963208369548 L30.16352084947545,13.867922812490669 L31.030763927224314,15.69066719754339" fill-opacity="0" stroke="black" stroke-width="1" />
<path d="M30.16352084947545,-13.867922812490669 L31.030763927224314,-15.69066719754339 L32.62540174229426,-16.591710134553132" fill-opacity="0" stroke="black" stroke-width="1" />
<path d="M30.16352084947545,13.867922812490669 L31.030763927224314,15.69066719754339 L32.62540174229426,16.591710134553132" fill-opacity="0" stroke="black" stroke-width="1" />
<path d="M31.030763927224314,-15.69066719754339 L32.62540174229426,-16.591710134553132 L34.0,-0.0" fill-opacity="0" stroke="black" stroke-width="1" />
<path d="M31.030763927224314,15.69066719754339 L32.62540174229426,16.591710134553132 L34.0,-0.0" fill-opacity="0" stroke="black" stroke-width="1" />
<path d="M43.0,57.0 L35.0,65.0 L28.244274113874845,65.62078533477909" fill-opacity="0" stroke="black" stroke-width="1" />
<path d="M43.0,-57.0 L35.0,-65.0 L28.244274113874845,-65.62078533477909" fill-opacity="0" stroke="black" stroke-width="1" />
<path d="M48.0,50.0 L48.0,52.0 L41.113363352601446,54.39342256480509" fill-opacity="0" stroke="black" stroke-width="1" />
<path d="M48.0,-50.0 L48.0,-52.0 L41.113363352601446,-54.39342256480509" fill-opacity="0" stroke="black" stroke-width="1" />
<path d="M50.0,-23.0 L34.162340187195774,-24.694108887796958 L44.69022372728043,-30.576474473174365" fill-opacity="0" stroke="black" stroke-width="1" />
<path d="M50.0,23.0 L34.162340187195774,24.694108887796958 L44.69022372728043,30.576474473174365" fill-opacity="0" stroke="black" stroke-width="1" />
<path d="M34.162340187195774,-24.694108887796958 L44.69022372728043,-30.576474473174365 L50.0,-31.0" fill-opacity="0" stroke="black" stroke-width="1" />
<path d="M34.162340187195774,24.694108887796958 L44.69022372728043,30.576474473174365 L50.0,31.0" fill-opacity="0" stroke="black" stroke-width="1" />
<path d="M48.0,-48.0 L45.60657743519491,-41.113363352601446 L43.0,-43.0" fill-opacity="0" stroke="black" stroke-width="1" />
<path d="M48.0,48.0 L45.60657743519491,41.113363352601446 L43.0,43.0" fill-opacity="0" stroke="black" stroke-width="1" />
<path d="M41.113363352601446,54.39342256480509 L43.0,57.0 L35.0,65.0" fill-opacity="0" stroke="black" stroke-width="1" />
<path d="M41.113363352601446,-54.39342256480509 L43.0,-57.0 L35.0,-65.0" fill-opacity="0" stroke="black" stroke-width="1" />
<path d="M35.0,-35.0 L34.379214665220914,-28.244274113874845 L33.0,-33.0" fill-opacity="0" stroke="black" stroke-width="1" />
<path d="M35.0,35.0 L34.379214665220914,28.244274113874845 L33.0,33.0" fill-opacity="0" stroke="black" stroke-width="1" />
<path d="M28.244274113874845,65.62078533477909 L33.0,67.0 L25.0,75.0" fill-opacity="0" stroke="black" stroke-width="1" />
<path d="M28.244274113874845,-65.62078533477909 L33.0,-67.0 L25.0,-75.0" fill-opacity="0" stroke="black" stroke-width="1" />
<path d="M33.0,67.0 L25.0,75.0 L19.0,81.0" fill-opacity="0" stroke="black" stroke-width="1" />
<path d="M33.0,-67.0 L25.0,-75.0 L19.0,-81.0" fill-opacity="0" stroke="black" stroke-width="1" />
<path d="M25.0,75.0 L19.0,81.0 L18.0,82.0" fill-opacity="0" stroke="black" stroke-width="1" />
<path d="M25.0,-75.0 L19.0,-81.0 L18.0,-82.0" fill-opacity="0" stroke="black" stroke-width="1" />
<path d="M19.0,81.0 L18.0,82.0 L12.121200038644414,82.15443736305406" fill-opacity="0" stroke="black" stroke-width="1" />
<path d="M19.0,-81.0 L18.0,-82.0 L12.121200038644414,-82.15443736305406" fill-opacity="0" stroke="black" stroke-width="1" />
<path d="M18.0,-18.0 L17.84556263694594,-12.121200038644414 L17.759276244691172,-11.592298068447136" fill-opacity="0" stroke="black" stroke-width="1" />
<path d="M18.0,18.0 L17.84556263694594,12.121200038644414 L17.759276244691172,11.592298068447136" fill-opacity="0" stroke="black" stroke-width="1" />
<path d="M17.84556263694594,-12.121200038644414 L17.759276244691172,-11.592298068447136 L8.0,-8.0" fill-opacity="0" stroke="black" stroke-width="1" />
<path d="M17.84556263694594,12.121200038644414 L17.759276244691172,11.592298068447136 L8.0,8.0" fill-opacity="0" stroke="black" stroke-width="1" />
<path d="M11.592298068447136,82.24072375530884 L8.0,92.0 L0.5882932602267122,96.17955491713703" fill-opacity="0" stroke="black" stroke-width="1" />
<path d="M11.592298068447136,-82.24072375530884 L8.0,-92.0 L0.5882932602267122,-96.17955491713703" fill-opacity="0" stroke="black" stroke-width="1" />
<path d="M8.0,-8.0 L3.8204450828629777,-0.5882932602267122 L2.09861534104816,-0.3804684531604485" fill-opacity="0" stroke="black" stroke-width="1" />
<path d="M8.0,8.0 L3.8204450828629777,0.5882932602267122 L2.09861534104816,0.3804684531604485" fill-opacity="0" stroke="black" stroke-width="1" />
<path d="M3.8204450828629777,-0.5882932602267122 L2.09861534104816,-0.3804684531604485 L1.3619015451685257,-0.10091794321631792" fill-opacity="0" stroke="black" stroke-width="1" />
<path d="M3.8204450828629777,0.5882932602267122 L2.09861534104816,0.3804684531604485 L1.3619015451685257,0.10091794321631792" fill-opacity="0" stroke="black" stroke-width="1" />
<path d="M2.09861534104816,-0.3804684531604485 L1.3619015451685257,-0.10091794321631792 L0.0,-0.0" fill-opacity="0" stroke="black" stroke-width="1" />
<path d="M2.09861534104816,0.3804684531604485 L1.3619015451685257,0.10091794321631792 L0.0,-0.0" fill-opacity="0" stroke="black" stroke-width="1" />
<path d="M-1.0,-0.0 L-14.89932231440962,-0.7606824662551585 L-16.414073281256403,-0.9663393440275864" fill-opacity="0" stroke="black" stroke-width="1" />
<path d="M-1.0,-0.0 L-14.89932231440962,0.7606824662551585 L-16.414073281256403,0.9663393440275864" fill-opacity="0" stroke="black" stroke-width="1" />
<path d="M-14.89932231440962,-0.7606824662551585 L-16.414073281256403,-0.9663393440275864 L-17.0,-0.0" fill-opacity="0" stroke="black" stroke-width="1" />
<path d="M-14.89932231440962,0.7606824662551585 L-16.414073281256403,0.9663393440275864 L-17.0,-0.0" fill-opacity="0" stroke="black" stroke-width="1" />
<path d="M-17.0,-0.0 L-17.085386382285822,-3.1248442205893596 L-24.0,-0.0" fill-opacity="0" stroke="black" stroke-width="1" />
<path d="M-17.0,-0.0 L-17.085386382285822,3.1248442205893596 L-24.0,-0.0" fill-opacity="0" stroke="black" stroke-width="1" />
<path d="M-24.0,-0.0 L-27.421304784492182,-12.475922807371365 L-29.276639045879588,-12.701963208369548" fill-opacity="0" stroke="black" stroke-width="1" />
<path d="M-24.0,-0.0 L-27.421304784492182,12.475922807371365 L-29.276639045879588,12.701963208369548" fill-opacity="0" stroke="black" stroke-width="1" />
<path d="M-27.421304784492182,-12.475922807371365 L-29.276639045879588,-12.701963208369548 L-30.16352084947545,-13.867922812490669" fill-opacity="0" stroke="black" stroke-width="1" />
<path d="M-27.421304784492182,12.475922807371365 L-29.276639045879588,12.701963208369548 L-30.16352084947545,13.867922812490669" fill-opacity="0" stroke="black" stroke-width="1" />
<path d="M-29.276639045879588,-12.701963208369548 L-30.16352084947545,-13.867922812490669 L-31.030763927224314,-15.69066719754339" fill-opacity="0" stroke="black" stroke-width="1" />
<path d="M-29.276639045879588,12.701963208369548 L-30.16352084947545,13.867922812490669 L-31.030763927224314,15.69066719754339" fill-opacity="0" stroke="black" stroke-width="1" />
<path d="M-30.16352084947545,-13.867922812490669 L-31.030763927224314,-15.69066719754339 L-32.62540174229426,-16.591710134553132" fill-opacity="0" stroke="black" stroke-width="1" />
<path d="M-30.16352084947545,13.867922812490669 L-31.030763927224314,15.69066719754339 L-32.62540174229426,16.591710134553132" fill-opacity="0" stroke="black" stroke-width="1" />
<path d="M-31.030763927224314,-15.69066719754339 L-32.62540174229426,-16.591710134553132 L-34.0,-0.0" fill-opacity="0" stroke="black" stroke-width="1" />
<path d="M-31.030763927224314,15.69066719754339 L-32.62540174229426,16.591710134553132 L-34.0,-0.0" fill-opacity="0" stroke="black" stroke-width="1" />
<path d="M-43.0,57.0 L-35.0,65.0 L-28.244274113874845,65.62078533477909" fill-opacity="0" stroke="black" stroke-width="1" />
<path d="M-43.0,-57.0 L-35.0,-65.0 L-28.244274113874845,-65.62078533477909" fill-opacity="0" stroke="black" stroke-width="1" />
<path d="M-48.0,50.0 L-48.0,52.0 L-41.113363352601446,54.39342256480509" fill-opacity="0" stroke="black" stroke-width="1" />
<path d="M-48.0,-50.0 L-48.0,-52.0 L-41.113363352601446,-54.39342256480509" fill-opacity="0" stroke="black" stroke-width="1" />
<path d="M-50.0,-23.0 L-34.162340187195774,-24.694108887796958 L-44.69022372728043,-30.576474473174365" fill-opacity="0" stroke="black" stroke-width="1" />
<path d="M-50.0,23.0 L-34.162340187195774,24.694108887796958 L-44.69022372728043,30.576474473174365" fill-opacity="0" stroke="black" stroke-width="1" />
<path d="M-34.162340187195774,-24.694108887796958 L-44.69022372728043,-30.576474473174365 L-50.0,-31.0" fill-opacity="0" stroke="black" stroke-width="1" />
<path d="M-34.162340187195774,24.694108887796958 L-44.69022372728043,30.576474473174365 L-50.0,31.0" fill-opacity="0" stroke="black" stroke-width="1" />
<path d="M-48.0,-48.0 L-45.60657743519491,-41.113363352601446 L-43.0,-43.0" fill-opacity="0" stroke="black" stroke-width="1" />
<path d="M-48.0,48.0 L-45.60657743519491,41.113363352601446 L-43.0,43.0" fill-opacity="0" stroke="black" stroke-width="1" />
<path d="M-41.113363352601446,54.39342256480509 L-43.0,57.0 L-35.0,65.0" fill-opacity="0" stroke="black" stroke-width="1" />
<path d="M-41.113363352601446,-54.39342256480509 L-43.0,-57.0 L-35.0,-65.0" fill-opacity="0" stroke="black" stroke-width="1" />
<path d="M-35.0,-35.0 L-34.379214665220914,-28.244274113874845 L-33.0,-33.0" fill-opacity="0" stroke="black" stroke-width="1" />
<path d="M-35.0,35.0 L-34.379214665220914,28.244274113874845 L-33.0,33.0" fill-opacity="0" stroke="black" stroke-width="1" />
<path d="M-28.244274113874845,65.62078533477909 L-33.0,67.0 L-25.0,75.0" fill-opacity="0" stroke="black" stroke-width="1" />
<path d="M-28.244274113874845,-65.62078533477909 L-33.0,-67.0 L-25.0,-75.0" fill-opacity="0" stroke="black" stroke-width="1" />
<path d="M-33.0,67.0 L-25.0,75.0 L-19.0,81.0" fill-opacity="0" stroke="black" stroke-width="1" />
<path d="M-33.0,-67.0 L-25.0,-75.0 L-19.0,-81.0" fill-opacity="0" stroke="black" stroke-width="1" />
<path d="M-25.0,75.0 L-19.0,81.0 L-18.0,82.0" fill-opacity="0" stroke="black" stroke-width="1" />
<path d="M-25.0,-75.0 L-19.0,-81.0 L-18.0,-82.0" fill-opacity="0" stroke="black" stroke-width="1" />
<path d="M-19.0,81.0 L-18.0,82.0 L-12.121200038644414,82.15443736305406" fill-opacity="0" stroke="black" stroke-width="1" />
<path d="M-19.0,-81.0 L-18.0,-82.0 L-12.121200038644414,-82.15443736305406" fill-opacity="0" stroke="black" stroke-width="1" />
<path d="M-18.0,-18.0 L-17.84556263694594,-12.121200038644414 L-17.759276244691172,-11.592298068447136" fill-opacity="0" stroke="black" stroke-width="1" />
<path d="M-18.0,18.0 L-17.84556263694594,12.121200038644414 L-17.759276244691172,11.592298068447136" fill-opacity="0" stroke="black" stroke-width="1" />
<path d="M-17.84556263694594,-12.121200038644414 L-17.759276244691172,-11.592298068447136 L-8.0,-8.0" fill-opacity="0" stroke="black" stroke-width="1" />
<path d="M-17.84556263694594,12.121200038644414 L-17.759276244691172,11.592298068447136 L-8.0,8.0" fill-opacity="0" stroke="black" stroke-width="1" />
<path d="M-11.592298068447136,82.24072375530884 L-8.0,92.0 L-0.5882932602267122,96.17955491713703" fill-opacity="0" stroke="black" stroke-width="1" />
<path d="M-11.592298068447136,-82.24072375530884 L-8.0,-92.0 L-0.5882932602267122,-96.17955491713703" fill-opacity="0" stroke="black" stroke-width="1" />
<path d="M-8.0,-8.0 L-3.8204450828629777,-0.5882932602267122 L-2.09861534104816,-0.3804684531604485" fill-opacity="0" stroke="black" stroke-width="1" />
<path d="M-8.0,8.0 L-3.8204450828629777,0.5882932602267122 L-2.09861534104816,0.3804684531604485" fill-opacity="0" stroke="black" stroke-width="1" />
<path d="M-3.8204450828629777,-0.5882932602267122 L-2.09861534104816,-0.3804684531604485 L-1.3619015451685257,-0.10091794321631792" fill-opacity="0" stroke="black" stroke-width="1" />
<path d="M-3.8204450828629777,0.5882932602267122 L-2.09861534104816,0.3804684531604485 L-1.3619015451685257,0.10091794321631792" fill-opacity="0" stroke="black" stroke-width="1" />
<path d="M-2.09861534104816,-0.3804684531604485 L-1.3619015451685257,-0.10091794321631792 L0.0,-0.0" fill-opacity="0" stroke="black" stroke-width="1" />
<path d="M-2.09861534104816,0.3804684531604485 L-1.3619015451685257,0.10091794321631792 L0.0,-0.0" fill-opacity="0" stroke="black" stroke-width="1" />
<path d="M99.0,-0.0 L85.10067768559038,0.7606824662551585 L83.5859267187436,0.9663393440275864" fill-opacity="0" stroke="black" stroke-width="1" />
<path d="M99.0,-0.0 L85.10067768559038,-0.7606824662551585 L83.5859267187436,-0.9663393440275864" fill-opacity="0" stroke="black" stroke-width="1" />
<path d="M85.10067768559038,0.7606824662551585 L83.5859267187436,0.9663393440275864 L83.0,-0.0" fill-opacity="0" stroke="black" stroke-width="1" />
<path d="M85.10067768559038,-0.7606824662551585 L83.5859267187436,-0.9663393440275864 L83.0,-0.0" fill-opacity="0" stroke="black" stroke-width="1" />
<path d="M83.0,-0.0 L82.91461361771418,3.1248442205893596 L76.0,-0.0" fill-opacity="0" stroke="black" stroke-width="1" />
<path d="M83.0,-0.0 L82.91461361771418,-3.1248442205893596 L76.0,-0.0" fill-opacity="0" stroke="black" stroke-width="1" />
<path d="M76.0,-0.0 L72.57869521550782,12.475922807371365 L70.72336095412041,12.701963208369548" fill-opacity="0" stroke="black" stroke-width="1" />
<path d="M76.0,-0.0 L72.57869521550782,-12.475922807371365 L70.72336095412041,-12.701963208369548" fill-opacity="0" stroke="black" stroke-width="1" />
<path d="M72.57869521550782,12.475922807371365 L70.72336095412041,12.701963208369548 L69.83647915052455,13.867922812490669" fill-opacity="0" stroke="black" stroke-width="1" />
<path d="M72.57869521550782,-12.475922807371365 L70.72336095412041,-12.701963208369548 L69.83647915052455,-13.867922812490669" fill-opacity="0" stroke="black" stroke-width="1" />
<path d="M70.72336095412041,12.701963208369548 L69.83647915052455,13.867922812490669 L68.96923607277569,15.69066719754339" fill-opacity="0" stroke="black" stroke-width="1" />
<path d="M70.72336095412041,-12.701963208369548 L69.83647915052455,-13.867922812490669 L68.96923607277569,-15.69066719754339" fill-opacity="0" stroke="black" stroke-width="1" />
<path d="M69.83647915052455,13.867922812490669 L68.96923607277569,15.69066719754339 L67.37459825770574,16.591710134553132" fill-opacity="0" stroke="black" stroke-width="1" />
<path d="M69.83647915052455,-13.867922812490669 L68.96923607277569,-15.69066719754339 L67.37459825770574,-16.591710134553132" fill-opacity="0" stroke="black" stroke-width="1" />
<path d="M68.96923607277569,15.69066719754339 L67.37459825770574,16.591710134553132 L66.0,-0.0" fill-opacity="0" stroke="black" stroke-width="1" />
<path d="M68.96923607277569,-15.69066719754339 L67.37459825770574,-16.591710134553132 L66.0,-0.0" fill-opacity="0" stroke="black" stroke-width="1" />
<path d="M57.0,43.0 L65.0,35.0 L65.62078533477909,28.244274113874845" fill-opacity="0" stroke="black" stroke-width="1" />
<path d="M57.0,-43.0 L65.0,-35.0 L65.62078533477909,-28.244274113874845" fill-opacity="0" stroke="black" stroke-width="1" />
<path d="M50.0,48.0 L52.0,48.0 L54.39342256480509,41.113363352601446" fill-opacity="0" stroke="black" stroke-width="1" />
<path d="M50.0,-48.0 L52.0,-48.0 L54.39342256480509,-41.113363352601446" fill-opacity="0" stroke="black" stroke-width="1" />
<path d="M50.0,23.0 L65.83765981280422,24.694108887796958 L55.30977627271957,30.576474473174365" fill-opacity="0" stroke="black" stroke-width="1" />
<path d="M50.0,-23.0 L65.83765981280422,-24.694108887796958 L55.30977627271957,-30.576474473174365" fill-opacity="0" stroke="black" stroke-width="1" />
<path d="M65.83765981280422,24.694108887796958 L55.30977627271957,30.576474473174365 L50.0,31.0" fill-opacity="0" stroke="black" stroke-width="1" />
<path d="M65.83765981280422,-24.694108887796958 L55.30977627271957,-30.576474473174365 L50.0,-31.0" fill-opacity="0" stroke="black" stroke-width="1" />
<path d="M52.0,48.0 L54.39342256480509,41.113363352601446 L57.0,43.0" fill-opacity="0" stroke="black" stroke-width="1" />
<path d="M52.0,-48.0 L54.39342256480509,-41.113363352601446 L57.0,-43.0" fill-opacity="0" stroke="black" stroke-width="1" />
<path d="M54.39342256480509,41.113363352601446 L57.0,43.0 L65.0,35.0" fill-opacity="0" stroke="black" stroke-width="1" />
<path d="M54.39342256480509,-41.113363352601446 L57.0,-43.0 L65.0,-35.0" fill-opacity="0" stroke="black" stroke-width="1" />
<path d="M65.0,35.0 L65.62078533477909,28.244274113874845 L67.0,33.0" fill-opacity="0" stroke="black" stroke-width="1" />
<path d="M65.0,-35.0 L65.62078533477909,-28.244274113874845 L67.0,-33.0" fill-opacity="0" stroke="black" stroke-width="1" />
<path d="M65.62078533477909,28.244274113874845 L67.0,33.0 L75.0,25.0" fill-opacity="0" stroke="black" stroke-width="1" />
<path d="M65.62078533477909,-28.244274113874845 L67.0,-33.0 L75.0,-25.0" fill-opacity="0" stroke="black" stroke-width="1" />
<path d="M67.0,33.0 L75.0,25.0 L81.0,19.0" fill-opacity="0" stroke="black" stroke-width="1" />
<path d="M67.0,-33.0 L75.0,-25.0 L81.0,-19.0" fill-opacity="0" stroke="black" stroke-width="1" />
<path d="M75.0,25.0 L81.0,19.0 L82.0,18.0" fill-opacity="0" stroke="black" stroke-width="1" />
<path d="M75.0,-25.0 L81.0,-19.0 L82.0,-18.0" fill-opacity="0" stroke="black" stroke-width="1" />
<path d="M81.0,19.0 L82.0,18.0 L82.15443736305406,12.121200038644414" fill-opacity="0" stroke="black" stroke-width="1" />
<path d="M81.0,-19.0 L82.0,-18.0 L82.15443736305406,-12.121200038644414" fill-opacity="0" stroke="black" stroke-width="1" />
<path d="M82.0,18.0 L82.15443736305406,12.121200038644414 L82.24072375530884,11.592298068447136" fill-opacity="0" stroke="black" stroke-width="1" />
<path d="M82.0,-18.0 L82.15443736305406,-12.121200038644414 L82.24072375530884,-11.592298068447136" fill-opacity="0" stroke="black" stroke-width="1" />
<path d="M82.15443736305406,12.121200038644414 L82.24072375530884,11.592298068447136 L92.0,8.0" fill-opacity="0" stroke="black" stroke-width="1" />
<path d="M82.15443736305406,-12.121200038644414 L82.24072375530884,-11.592298068447136 L92.0,-8.0" fill-opacity="0" stroke="black" stroke-width="1" />
<path d="M82.24072375530884,11.592298068447136 L92.0,8.0 L96.17955491713703,0.5882932602267122" fill-opacity="0" stroke="black" stroke-width="1" />
<path d="M82.24072375530884,-11.592298068447136 L92.0,-8.0 L96.17955491713703,-0.5882932602267122" fill-opacity="0" stroke="black" stroke-width="1" />
<path d="M92.0,8.0 L96.17955491713703,0.5882932602267122 L97.90138465895184,0.3804684531604485" fill-opacity="0" stroke="black" stroke-width="1" />
<path d="M92.0,-8.0 L96.17955491713703,-0.5882932602267122 L97.90138465895184,-0.3804684531604485" fill-opacity="0" stroke="black" stroke-width="1" />
<path d="M96.17955491713703,0.5882932602267122 L97.90138465895184,0.3804684531604485 L98.63809845483146,0.10091794321631792" fill-opacity="0" stroke="black" stroke-width="1" />
<path d="M96.17955491713703,-0.5882932602267122 L97.90138465895184,-0.3804684531604485 L98.63809845483146,-0.10091794321631792" fill-opacity="0" stroke="black" stroke-width="1" />
<path d="M97.90138465895184,0.3804684531604485 L98.63809845483146,0.10091794321631792 L100.0,-0.0" fill-opacity="0" stroke="black" stroke-width="1" />
<path d="M97.90138465895184,-0.3804684531604485 L98.63809845483146,-0.10091794321631792 L100.0,-0.0" fill-opacity="0" stroke="black" stroke-width="1" />
<path d="M0.0,-1.0 L0.7606824662551585,-14.89932231440962 L0.9663393440275864,-16.414073281256403" fill-opacity="0" stroke="black" stroke-width="1" />
<path d="M0.0,1.0 L0.7606824662551585,14.89932231440962 L0.9663393440275864,16.414073281256403" fill-opacity="0" stroke="black" stroke-width="1" />
<path d="M0.0,99.0 L0.7606824662551585,85.10067768559038 L0.9663393440275864,83.5859267187436" fill-opacity="0" stroke="black" stroke-width="1" />
<path d="M0.0,-99.0 L0.7606824662551585,-85.10067768559038 L0.9663393440275864,-83.5859267187436" fill-opacity="0" stroke="black" stroke-width="1" />
<path d="M0.7606824662551585,-14.89932231440962 L0.9663393440275864,-16.414073281256403 L0.0,-17.0" fill-opacity="0" stroke="black" stroke-width="1" />
<path d="M0.7606824662551585,14.89932231440962 L0.9663393440275864,16.414073281256403 L0.0,17.0" fill-opacity="0" stroke="black" stroke-width="1" />
<path d="M0.7606824662551585,85.10067768559038 L0.9663393440275864,83.5859267187436 L0.0,83.0" fill-opacity="0" stroke="black" stroke-width="1" />
<path d="M0.7606824662551585,-85.10067768559038 L0.9663393440275864,-83.5859267187436 L0.0,-83.0" fill-opacity="0" stroke="black" stroke-width="1" />
<path d="M0.0,-17.0 L3.1248442205893596,-17.085386382285822 L0.0,-24.0" fill-opacity="0" stroke="black" stroke-width="1" />
<path d="M0.0,17.0 L3.1248442205893596,17.085386382285822 L0.0,24.0" fill-opacity="0" stroke="black" stroke-width="1" />
<path d="M0.0,83.0 L3.1248442205893596,82.91461361771418 L0.0,76.0" fill-opacity="0" stroke="black" stroke-width="1" />
<path d="M0.0,-83.0 L3.1248442205893596,-82.91461361771418 L0.0,-76.0" fill-opacity="0" stroke="black" stroke-width="1" />
<path d="M0.0,-24.0 L12.475922807371365,-27.421304784492182 L12.701963208369548,-29.276639045879588" fill-opacity="0" stroke="black" stroke-width="1" />
<path d="M0.0,24.0 L12.475922807371365,27.421304784492182 L12.701963208369548,29.276639045879588" fill-opacity="0" stroke="black" stroke-width="1" />
<path d="M0.0,76.0 L12.475922807371365,72.57869521550782 L12.701963208369548,70.72336095412041" fill-opacity="0" stroke="black" stroke-width="1" />
<path d="M0.0,-76.0 L12.475922807371365,-72.57869521550782 L12.701963208369548,-70.72336095412041" fill-opacity="0" stroke="black" stroke-width="1" />
<path d="M12.475922807371365,-27.421304784492182 L12.701963208369548,-29.276639045879588 L13.867922812490669,-30.16352084947545" fill-opacity="0" stroke="black" stroke-width="1" />
<path d="M12.475922807371365,27.421304784492182 L12.701963208369548,29.276639045879588 L13.867922812490669,30.16352084947545" fill-opacity="0" stroke="black" stroke-width="1" />
<path d="M12.475922807371365,72.57869521550782 L12.701963208369548,70.72336095412041 L13.867922812490669,69.83647915052455" fill-opacity="0" stroke="black" stroke-width="1" />
<path d="M12.475922807371365,-72.57869521550782 L12.701963208369548,-70.72336095412041 L13.867922812490669,-69.83647915052455" fill-opacity="0" stroke="black" stroke-width="1" />
<path d="M12.701963208369548,-29.276639045879588 L13.867922812490669,-30.16352084947545 L15.69066719754339,-31.030763927224314" fill-opacity="0" stroke="black" stroke-width="1" />
<path d="M12.701963208369548,29.276639045879588 L13.867922812490669,30.16352084947545 L15.69066719754339,31.030763927224314" fill-opacity="0" stroke="black" stroke-width="1" />
<path d="M12.701963208369548,70.72336095412041 L13.867922812490669,69.83647915052455 L15.69066719754339,68.96923607277569" fill-opacity="0" stroke="black" stroke-width="1" />
<path d="M12.701963208369548,-70.72336095412041 L13.867922812490669,-69.83647915052455 L15.69066719754339,-68.96923607277569" fill-opacity="0" stroke="black" stroke-width="1" />
<path d="M13.867922812490669,-30.16352084947545 L15.69066719754339,-31.030763927224314 L16.591710134553132,-32.62540174229426" fill-opacity="0" stroke="black" stroke-width="1" />
<path d="M13.867922812490669,30.16352084947545 L15.69066719754339,31.030763927224314 L16.591710134553132,32.62540174229426" fill-opacity="0" stroke="black" stroke-width="1" />
<path d="M13.867922812490669,69.83647915052455 L15.69066719754339,68.96923607277569 L16.591710134553132,67.37459825770574" fill-opacity="0" stroke="black" stroke-width="1" />
<path d="M13.867922812490669,-69.83647915052455 L15.69066719754339,-68.96923607277569 L16.591710134553132,-67.37459825770574" fill-opacity="0" stroke="black" stroke-width="1" />
<path d="M15.69066719754339,-31.030763927224314 L16.591710134553132,-32.62540174229426 L0.0,-34.0" fill-opacity="0" stroke="black" stroke-width="1" />
<path d="M15.69066719754339,31.030763927224314 L16.591710134553132,32.62540174229426 L0.0,34.0" fill-opacity="0" stroke="black" stroke-width="1" />
<path d="M15.69066719754339,68.96923607277569 L16.591710134553132,67.37459825770574 L0.0,66.0" fill-opacity="0" stroke="black" stroke-width="1" />
<path d="M15.69066719754339,-68.96923607277569 L16.591710134553132,-67.37459825770574 L0.0,-66.0" fill-opacity="0" stroke="black" stroke-width="1" />
<path d="M23.0,-50.0 L24.694108887796958,-34.162340187195774 L30.576474473174365,-44.69022372728043" fill-opacity="0" stroke="black" stroke-width="1" />
<path d="M23.0,50.0 L24.694108887796958,34.162340187195774 L30.576474473174365,44.69022372728043" fill-opacity="0" stroke="black" stroke-width="1" />
<path d="M23.0,50.0 L24.694108887796958,65.83765981280422 L30.576474473174365,55.30977627271957" fill-opacity="0" stroke="black" stroke-width="1" />
<path d="M23.0,-50.0 L24.694108887796958,-65.83765981280422 L30.576474473174365,-55.30977627271957" fill-opacity="0" stroke="black" stroke-width="1" />
<path d="M24.694108887796958,-34.162340187195774 L30.576474473174365,-44.69022372728043 L31.0,-50.0" fill-opacity="0" stroke="black" stroke-width="1" />
<path d="M24.694108887796958,34.162340187195774 L30.576474473174365,44.69022372728043 L31.0,50.0" fill-opacity="0" stroke="black" stroke-width="1" />
<path d="M24.694108887796958,65.83765981280422 L30.576474473174365,55.30977627271957 L31.0,50.0" fill-opacity="0" stroke="black" stroke-width="1" />
<path d="M24.694108887796958,-65.83765981280422 L30.576474473174365,-55.30977627271957 L31.0,-50.0" fill-opacity="0" stroke="black" stroke-width="1" />
<path d="M48.0,-48.0 L41.113363352601446,-45.60657743519491 L43.0,-43.0" fill-opacity="0" stroke="black" stroke-width="1" />
<path d="M48.0,48.0 L41.113363352601446,45.60657743519491 L43.0,43.0" fill-opacity="0" stroke="black" stroke-width="1" />
<path d="M48.0,52.0 L41.113363352601446,54.39342256480509 L43.0,57.0" fill-opacity="0" stroke="black" stroke-width="1" />
<path d="M48.0,-52.0 L41.113363352601446,-54.39342256480509 L43.0,-57.0" fill-opacity="0" stroke="black" stroke-width="1" />
<path d="M35.0,-35.0 L28.244274113874845,-34.379214665220914 L33.0,-33.0" fill-opacity="0" stroke="black" stroke-width="1" />
<path d="M35.0,35.0 L28.244274113874845,34.379214665220914 L33.0,33.0" fill-opacity="0" stroke="black" stroke-width="1" />
<path d="M35.0,65.0 L28.244274113874845,65.62078533477909 L33.0,67.0" fill-opacity="0" stroke="black" stroke-width="1" />
<path d="M35.0,-65.0 L28.244274113874845,-65.62078533477909 L33.0,-67.0" fill-opacity="0" stroke="black" stroke-width="1" />
<path d="M18.0,-18.0 L12.121200038644414,-17.84556263694594 L11.592298068447136,-17.759276244691172" fill-opacity="0" stroke="black" stroke-width="1" />
<path d="M18.0,18.0 L12.121200038644414,17.84556263694594 L11.592298068447136,17.759276244691172" fill-opacity="0" stroke="black" stroke-width="1" />
<path d="M18.0,82.0 L12.121200038644414,82.15443736305406 L11.592298068447136,82.24072375530884" fill-opacity="0" stroke="black" stroke-width="1" />
<path d="M18.0,-82.0 L12.121200038644414,-82.15443736305406 L11.592298068447136,-82.24072375530884" fill-opacity="0" stroke="black" stroke-width="1" />
<path d="M12.121200038644414,-17.84556263694594 L11.592298068447136,-17.759276244691172 L8.0,-8.0" fill-opacity="0" stroke="black" stroke-width="1" />
<path d="M12.121200038644414,17.84556263694594 L11.592298068447136,17.759276244691172 L8.0,8.0" fill-opacity="0" stroke="black" stroke-width="1" />
<path d="M12.121200038644414,82.15443736305406 L11.592298068447136,82.24072375530884 L8.0,92.0" fill-opacity="0" stroke="black" stroke-width="1" />
<path d="M12.121200038644414,-82.15443736305406 L11.592298068447136,-82.24072375530884 L8.0,-92.0" fill-opacity="0" stroke="black" stroke-width="1" />
<path d="M8.0,-8.0 L0.5882932602267122,-3.8204450828629777 L0.3804684531604485,-2.09861534104816" fill-opacity="0" stroke="black" stroke-width="1" />
<path d="M8.0,8.0 L0.5882932602267122,3.8204450828629777 L0.3804684531604485,2.09861534104816" fill-opacity="0" stroke="black" stroke-width="1" />
<path d="M8.0,92.0 L0.5882932602267122,96.17955491713703 L0.3804684531604485,97.90138465895184" fill-opacity="0" stroke="black" stroke-width="1" />
<path d="M8.0,-92.0 L0.5882932602267122,-96.17955491713703 L0.3804684531604485,-97.90138465895184" fill-opacity="0" stroke="black" stroke-width="1" />
<path d="M0.5882932602267122,-3.8204450828629777 L0.3804684531604485,-2.09861534104816 L0.10091794321631792,-1.3619015451685257" fill-opacity="0" stroke="black" stroke-width="1" />
<path d="M0.5882932602267122,3.8204450828629777 L0.3804684531604485,2.09861534104816 L0.10091794321631792,1.3619015451685257" fill-opacity="0" stroke="black" stroke-width="1" />
<path d="M0.5882932602267122,96.17955491713703 L0.3804684531604485,97.90138465895184 L0.10091794321631792,98.63809845483146" fill-opacity="0" stroke="black" stroke-width="1" />
<path d="M0.5882932602267122,-96.17955491713703 L0.3804684531604485,-97.90138465895184 L0.10091794321631792,-98.63809845483146" fill-opacity="0" stroke="black" stroke-width="1" />
<path d="M0.3804684531604485,-2.09861534104816 L0.10091794321631792,-1.3619015451685257 L0.0,-0.0" fill-opacity="0" stroke="black" stroke-width="1" />
<path d="M0.3804684531604485,2.09861534104816 L0.10091794321631792,1.3619015451685257 L0.0,-0.0" fill-opacity="0" stroke="black" stroke-width="1" />
<path d="M0.3804684531604485,97.90138465895184 L0.10091794321631792,98.63809845483146 L0.0,100.0" fill-opacity="0" stroke="black" stroke-width="1" />
<path d="M0.3804684531604485,-97.90138465895184 L0.10091794321631792,-98.63809845483146 L0.0,-100.0" fill-opacity="0" stroke="black" stroke-width="1" />
<path d="M0.0,99.0 L-0.7606824662551585,85.10067768559038 L-0.9663393440275864,83.5859267187436" fill-opacity="0" stroke="black" stroke-width="1" />
<path d="M0.0,-1.0 L-0.7606824662551585,-14.89932231440962 L-0.9663393440275864,-16.414073281256403" fill-opacity="0" stroke="black" stroke-width="1" />
<path d="M0.0,1.0 L-0.7606824662551585,14.899322314409616 L-0.9663393440275864,16.414073281256407" fill-opacity="0" stroke="black" stroke-width="1" />
<path d="M0.0,-99.0 L-0.7606824662551585,-85.10067768559038 L-0.9663393440275864,-83.5859267187436" fill-opacity="0" stroke="black" stroke-width="1" />
<path d="M-0.7606824662551585,85.10067768559038 L-0.9663393440275864,83.5859267187436 L0.0,83.0" fill-opacity="0" stroke="black" stroke-width="1" />
<path d="M-0.7606824662551585,-14.89932231440962 L-0.9663393440275864,-16.414073281256403 L0.0,-17.0" fill-opacity="0" stroke="black" stroke-width="1" />
<path d="M-0.7606824662551585,14.899322314409616 L-0.9663393440275864,16.414073281256407 L0.0,17.0" fill-opacity="0" stroke="black" stroke-width="1" />
<path d="M-0.7606824662551585,-85.10067768559038 L-0.9663393440275864,-83.5859267187436 L0.0,-83.0" fill-opacity="0" stroke="black" stroke-width="1" />
<path d="M0.0,83.0 L-3.1248442205893596,82.91461361771418 L0.0,76.0" fill-opacity="0" stroke="black" stroke-width="1" />
<path d="M0.0,-17.0 L-3.1248442205893596,-17.085386382285822 L0.0,-24.0" fill-opacity="0" stroke="black" stroke-width="1" />
<path d="M0.0,17.0 L-3.1248442205893596,17.08538638228582 L0.0,24.0" fill-opacity="0" stroke="black" stroke-width="1" />
<path d="M0.0,-83.0 L-3.1248442205893596,-82.91461361771418 L0.0,-76.0" fill-opacity="0" stroke="black" stroke-width="1" />
<path d="M0.0,76.0 L-12.475922807371365,72.57869521550782 L-12.701963208369548,70.72336095412041" fill-opacity="0" stroke="black" stroke-width="1" />
<path d="M0.0,-24.0 L-12.475922807371365,-27.421304784492182 L-12.701963208369548,-29.276639045879588" fill-opacity="0" stroke="black" stroke-width="1" />
<path d="M0.0,24.0 L-12.475922807371365,27.42130478449218 L-12.701963208369548,29.27663904587959" fill-opacity="0" stroke="black" stroke-width="1" />
<path d="M0.0,-76.0 L-12.475922807371365,-72.57869521550782 L-12.701963208369548,-70.72336095412041" fill-opacity="0" stroke="black" stroke-width="1" />
<path d="M-12.475922807371365,72.57869521550782 L-12.701963208369548,70.72336095412041 L-13.867922812490669,69.83647915052455" fill-opacity="0" stroke="black" stroke-width="1" />
<path d="M-12.475922807371365,-27.421304784492182 L-12.701963208369548,-29.276639045879588 L-13.867922812490669,-30.16352084947545" fill-opacity="0" stroke="black" stroke-width="1" />
<path d="M-12.475922807371365,27.42130478449218 L-12.701963208369548,29.27663904587959 L-13.867922812490669,30.163520849475447" fill-opacity="0" stroke="black" stroke-width="1" />
<path d="M-12.475922807371365,-72.57869521550782 L-12.701963208369548,-70.72336095412041 L-13.867922812490669,-69.83647915052455" fill-opacity="0" stroke="black" stroke-width="1" />
<path d="M-12.701963208369548,70.72336095412041 L-13.867922812490669,69.83647915052455 L-15.69066719754339,68.96923607277569" fill-opacity="0" stroke="black" stroke-width="1" />
<path d="M-12.701963208369548,-29.276639045879588 L-13.867922812490669,-30.16352084947545 L-15.69066719754339,-31.030763927224314" fill-opacity="0" stroke="black" stroke-width="1" />
<path d="M-12.701963208369548,29.27663904587959 L-13.867922812490669,30.163520849475447 L-15.69066719754339,31.030763927224314" fill-opacity="0" stroke="black" stroke-width="1" />
<path d="M-12.701963208369548,-70.72336095412041 L-13.867922812490669,-69.83647915052455 L-15.69066719754339,-68.96923607277569" fill-opacity="0" stroke="black" stroke-width="1" />
<path d="M-13.867922812490669,69.83647915052455 L-15.69066719754339,68.96923607277569 L-16.591710134553132,67.37459825770574" fill-opacity="0" stroke="black" stroke-width="1" />
<path d="M-13.867922812490669,-30.16352084947545 L-15.69066719754339,-31.030763927224314 L-16.591710134553132,-32.62540174229426" fill-opacity="0" stroke="black" stroke-width="1" />
<path d="M-13.867922812490669,30.163520849475447 L-15.69066719754339,31.030763927224314 L-16.591710134553132,32.62540174229426" fill-opacity="0" stroke="black" stroke-width="1" />
<path d="M-13.867922812490669,-69.83647915052455 L-15.69066719754339,-68.96923607277569 L-16.591710134553132,-67.37459825770574" fill-opacity="0" stroke="black" stroke-width="1" />
<path d="M-15.69066719754339,68.96923607277569 L-16.591710134553132,67.37459825770574 L0.0,66.0" fill-opacity="0" stroke="black" stroke-width="1" />
<path d="M-15.69066719754339,-31.030763927224314 L-16.591710134553132,-32.62540174229426 L0.0,-34.0" fill-opacity="0" stroke="black" stroke-width="1" />
<path d="M-15.69066719754339,31.030763927224314 L-16.591710134553132,32.62540174229426 L0.0,34.0" fill-opacity="0" stroke="black" stroke-width="1" />
<path d="M-15.69066719754339,-68.96923607277569 L-16.591710134553132,-67.37459825770574 L0.0,-66.0" fill-opacity="0" stroke="black" stroke-width="1" />
<path d="M-23.0,50.0 L-24.694108887796958,65.83765981280422 L-30.576474473174365,55.30977627271957" fill-opacity="0" stroke="black" stroke-width="1" />
<path d="M-23.0,-50.0 L-24.694108887796958,-34.162340187195774 L-30.576474473174365,-44.69022372728043" fill-opacity="0" stroke="black" stroke-width="1" />
<path d="M-23.0,50.0 L-24.694108887796958,34.16234018719578 L-30.576474473174365,44.69022372728043" fill-opacity="0" stroke="black" stroke-width="1" />
<path d="M-23.0,-50.0 L-24.694108887796958,-65.83765981280422 L-30.576474473174365,-55.30977627271957" fill-opacity="0" stroke="black" stroke-width="1" />
<path d="M-24.694108887796958,65.83765981280422 L-30.576474473174365,55.30977627271957 L-31.0,50.0" fill-opacity="0" stroke="black" stroke-width="1" />
<path d="M-24.694108887796958,-34.162340187195774 L-30.576474473174365,-44.69022372728043 L-31.0,-50.0" fill-opacity="0" stroke="black" stroke-width="1" />
<path d="M-24.694108887796958,34.16234018719578 L-30.576474473174365,44.69022372728043 L-31.0,50.0" fill-opacity="0" stroke="black" stroke-width="1" />
<path d="M-24.694108887796958,-65.83765981280422 L-30.576474473174365,-55.30977627271957 L-31.0,-50.0" fill-opacity="0" stroke="black" stroke-width="1" />
<path d="M-48.0,52.0 L-41.113363352601446,54.39342256480509 L-43.0,57.0" fill-opacity="0" stroke="black" stroke-width="1" />
<path d="M-48.0,-48.0 L-41.113363352601446,-45.60657743519491 L-43.0,-43.0" fill-opacity="0" stroke="black" stroke-width="1" />
<path d="M-48.0,48.0 L-41.113363352601446,45.60657743519491 L-43.0,43.0" fill-opacity="0" stroke="black" stroke-width="1" />
<path d="M-48.0,-52.0 L-41.113363352601446,-54.39342256480509 L-43.0,-57.0" fill-opacity="0" stroke="black" stroke-width="1" />
<path d="M-35.0,65.0 L-28.244274113874845,65.62078533477909 L-33.0,67.0" fill-opacity="0" stroke="black" stroke-width="1" />
<path d="M-35.0,-35.0 L-28.244274113874845,-34.379214665220914 L-33.0,-33.0" fill-opacity="0" stroke="black" stroke-width="1" />
<path d="M-35.0,35.0 L-28.244274113874845,34.379214665220914 L-33.0,33.0" fill-opacity="0" stroke="black" stroke-width="1" />
<path d="M-35.0,-65.0 L-28.244274113874845,-65.62078533477909 L-33.0,-67.0" fill-opacity="0" stroke="black" stroke-width="1" />
<path d="M-18.0,82.0 L-12.121200038644414,82.15443736305406 L-11.592298068447136,82.24072375530884" fill-opacity="0" stroke="black" stroke-width="1" />
<path d="M-18.0,-18.0 L-12.121200038644414,-17.84556263694594 L-11.592298068447136,-17.759276244691172" fill-opacity="0" stroke="black" stroke-width="1" />
<path d="M-18.0,18.0 L-12.121200038644414,17.845562636945942 L-11.592298068447136,17.759276244691165" fill-opacity="0" stroke="black" stroke-width="1" />
<path d="M-18.0,-82.0 L-12.121200038644414,-82.15443736305406 L-11.592298068447136,-82.24072375530884" fill-opacity="0" stroke="black" stroke-width="1" />
<path d="M-12.121200038644414,82.15443736305406 L-11.592298068447136,82.24072375530884 L-8.0,92.0" fill-opacity="0" stroke="black" stroke-width="1" />
<path d="M-12.121200038644414,-17.84556263694594 L-11.592298068447136,-17.759276244691172 L-8.0,-8.0" fill-opacity="0" stroke="black" stroke-width="1" />
<path d="M-12.121200038644414,17.845562636945942 L-11.592298068447136,17.759276244691165 L-8.0,8.0" fill-opacity="0" stroke="black" stroke-width="1" />
<path d="M-12.121200038644414,-82.15443736305406 L-11.592298068447136,-82.24072375530884 L-8.0,-92.0" fill-opacity="0" stroke="black" stroke-width="1" />
<path d="M-8.0,92.0 L-0.5882932602267122,96.17955491713703 L-0.3804684531604485,97.90138465895184" fill-opacity="0" stroke="black" stroke-width="1" />
<path d="M-8.0,-8.0 L-0.5882932602267122,-3.8204450828629777 L-0.3804684531604485,-2.09861534104816" fill-opacity="0" stroke="black" stroke-width="1" />
<path d="M-8.0,8.0 L-0.5882932602267122,3.8204450828629746 L-0.3804684531604485,2.098615341048159" fill-opacity="0" stroke="black" stroke-width="1" />
<path d="M-8.0,-92.0 L-0.5882932602267122,-96.17955491713703 L-0.3804684531604485,-97.90138465895184" fill-opacity="0" stroke="black" stroke-width="1" />
<path d="M-0.5882932602267122,96.17955491713703 L-0.3804684531604485,97.90138465895184 L-0.10091794321631792,98.63809845483148" fill-opacity="0" stroke="black" stroke-width="1" />
<path d="M-0.5882932602267122,-3.8204450828629777 L-0.3804684531604485,-2.09861534104816 L-0.10091794321631792,-1.3619015451685257" fill-opacity="0" stroke="black" stroke-width="1" />
<path d="M-0.5882932602267122,3.8204450828629746 L-0.3804684531604485,2.098615341048159 L-0.10091794321631792,1.3619015451685215" fill-opacity="0" stroke="black" stroke-width="1" />
<path d="M-0.5882932602267122,-96.17955491713703 L-0.3804684531604485,-97.90138465895184 L-0.10091794321631792,-98.63809845483146" fill-opacity="0" stroke="black" stroke-width="1" />
<path d="M-0.3804684531604485,97.90138465895184 L-0.10091794321631792,98.63809845483148 L0.0,100.0" fill-opacity="0" stroke="black" stroke-width="1" />
<path d="M-0.3804684531604485,-2.09861534104816 L-0.10091794321631792,-1.3619015451685257 L0.0,-0.0" fill-opacity="0" stroke="black" stroke-width="1" />
<path d="M-0.3804684531604485,2.098615341048159 L-0.10091794321631792,1.3619015451685215 L0.0,-0.0" fill-opacity="0" stroke="black" stroke-width="1" />
<path d="M-0.3804684531604485,-97.90138465895184 L-0.10091794321631792,-98.63809845483146 L0.0,-100.0" fill-opacity="0" stroke="black" stroke-width="1" />
<path d="M-99.0,-0.0 L-85.10067768559038,-0.7606824662551585 L-83.5859267187436,-0.9663393440275864" fill-opacity="0" stroke="black" stroke-width="1" />
<path d="M-99.0,-0.0 L-85.10067768559038,0.7606824662551585 L-83.5859267187436,0.9663393440275864" fill-opacity="0" stroke="black" stroke-width="1" />
<path d="M-85.10067768559038,-0.7606824662551585 L-83.5859267187436,-0.9663393440275864 L-83.0,-0.0" fill-opacity="0" stroke="black" stroke-width="1" />
<path d="M-85.10067768559038,0.7606824662551585 L-83.5859267187436,0.9663393440275864 L-83.0,-0.0" fill-opacity="0" stroke="black" stroke-width="1" />
<path d="M-83.0,-0.0 L-82.91461361771418,-3.1248442205893596 L-76.0,-0.0" fill-opacity="0" stroke="black" stroke-width="1" />
<path d="M-83.0,-0.0 L-82.91461361771418,3.1248442205893596 L-76.0,-0.0" fill-opacity="0" stroke="black" stroke-width="1" />
<path d="M-76.0,-0.0 L-72.57869521550782,-12.475922807371365 L-70.72336095412041,-12.701963208369548" fill-opacity="0" stroke="black" stroke-width="1" />
<path d="M-76.0,-0.0 L-72.57869521550782,12.475922807371365 L-70.72336095412041,12.701963208369548" fill-opacity="0" stroke="black" stroke-width="1" />
<path d="M-72.57869521550782,-12.475922807371365 L-70.72336095412041,-12.701963208369548 L-69.83647915052455,-13.867922812490669" fill-opacity="0" stroke="black" stroke-width="1" />
<path d="M-72.57869521550782,12.475922807371365 L-70.72336095412041,12.701963208369548 L-69.83647915052455,13.867922812490669" fill-opacity="0" stroke="black" stroke-width="1" />
<path d="M-70.72336095412041,-12.701963208369548 L-69.83647915052455,-13.867922812490669 L-68.96923607277569,-15.69066719754339" fill-opacity="0" stroke="black" stroke-width="1" />
<path d="M-70.72336095412041,12.701963208369548 L-69.83647915052455,13.867922812490669 L-68.96923607277569,15.69066719754339" fill-opacity="0" stroke="black" stroke-width="1" />
<path d="M-69.83647915052455,-13.867922812490669 L-68.96923607277569,-15.69066719754339 L-67.37459825770574,-16.591710134553132" fill-opacity="0" stroke="black" stroke-width="1" />
<path d="M-69.83647915052455,13.867922812490669 L-68.96923607277569,15.69066719754339 L-67.37459825770574,16.591710134553132" fill-opacity="0" stroke="black" stroke-width="1" />
<path d="M-68.96923607277569,-15.69066719754339 L-67.37459825770574,-16.591710134553132 L-66.0,-0.0" fill-opacity="0" stroke="black" stroke-width="1" />
<path d="M-68.96923607277569,15.69066719754339 L-67.37459825770574,16.591710134553132 L-66.0,-0.0" fill-opacity="0" stroke="black" stroke-width="1" />
<path d="M-57.0,-43.0 L-65.0,-35.0 L-65.62078533477909,-28.244274113874845" fill-opacity="0" stroke="black" stroke-width="1" />
<path d="M-57.0,43.0 L-65.0,35.0 L-65.62078533477909,28.244274113874845" fill-opacity="0" stroke="black" stroke-width="1" />
<path d="M-50.0,-48.0 L-52.0,-48.0 L-54.39342256480509,-41.113363352601446" fill-opacity="0" stroke="black" stroke-width="1" />
<path d="M-50.0,48.0 L-52.0,48.0 L-54.39342256480509,41.113363352601446" fill-opacity="0" stroke="black" stroke-width="1" />
<path d="M-50.0,-23.0 L-65.83765981280422,-24.694108887796958 L-55.30977627271957,-30.576474473174365" fill-opacity="0" stroke="black" stroke-width="1" />
<path d="M-50.0,23.0 L-65.83765981280422,24.694108887796958 L-55.30977627271957,30.576474473174365" fill-opacity="0" stroke="black" stroke-width="1" />
<path d="M-65.83765981280422,-24.694108887796958 L-55.30977627271957,-30.576474473174365 L-50.0,-31.0" fill-opacity="0" stroke="black" stroke-width="1" />
<path d="M-65.83765981280422,24.694108887796958 L-55.30977627271957,30.576474473174365 L-50.0,31.0" fill-opacity="0" stroke="black" stroke-width="1" />
<path d="M-52.0,-48.0 L-54.39342256480509,-41.113363352601446 L-57.0,-43.0" fill-opacity="0" stroke="black" stroke-width="1" />
<path d="M-52.0,48.0 L-54.39342256480509,41.113363352601446 L-57.0,43.0" fill-opacity="0" stroke="black" stroke-width="1" />
<path d="M-54.39342256480509,-41.113363352601446 L-57.0,-43.0 L-65.0,-35.0" fill-opacity="0" stroke="black" stroke-width="1" />
<path d="M-54.39342256480509,41.113363352601446 L-57.0,43.0 L-65.0,35.0" fill-opacity="0" stroke="black" stroke-width="1" />
<path d="M-65.0,-35.0 L-65.62078533477909,-28.244274113874845 L-67.0,-33.0" fill-opacity="0" stroke="black" stroke-width="1" />
<path d="M-65.0,35.0 L-65.62078533477909,28.244274113874845 L-67.0,33.0" fill-opacity="0" stroke="black" stroke-width="1" />
<path d="M-65.62078533477909,-28.244274113874845 L-67.0,-33.0 L-75.0,-25.0" fill-opacity="0" stroke="black" stroke-width="1" />
<path d="M-65.62078533477909,28.244274113874845 L-67.0,33.0 L-75.0,25.0" fill-opacity="0" stroke="black" stroke-width="1" />
<path d="M-67.0,-33.0 L-75.0,-25.0 L-81.0,-19.0" fill-opacity="0" stroke="black" stroke-width="1" />
<path d="M-67.0,33.0 L-75.0,25.0 L-81.0,19.0" fill-opacity="0" stroke="black" stroke-width="1" />
<path d="M-75.0,-25.0 L-81.0,-19.0 L-82.0,-18.0" fill-opacity="0" stroke="black" stroke-width="1" />
<path d="M-75.0,25.0 L-81.0,19.0 L-82.0,18.0" fill-opacity="0" stroke="black" stroke-width="1" />
<path d="M-81.0,-19.0 L-82.0,-18.0 L-82.15443736305406,-12.121200038644414" fill-opacity="0" stroke="black" stroke-width="1" />
<path d="M-81.0,19.0 L-82.0,18.0 L-82.15443736305406,12.121200038644414" fill-opacity="0" stroke="black" stroke-width="1" />
<path d="M-82.0,-18.0 L-82.15443736305406,-12.121200038644414 L-82.24072375530884,-11.592298068447136" fill-opacity="0" stroke="black" stroke-width="1" />
<path d="M-82.0,18.0 L-82.15443736305406,12.121200038644414 L-82.24072375530884,11.592298068447136" fill-opacity="0" stroke="black" stroke-width="1" />
<path d="M-82.15443736305406,-12.121200038644414 L-82.24072375530884,-11.592298068447136 L-92.0,-8.0" fill-opacity="0" stroke="black" stroke-width="1" />
<path d="M-82.15443736305406,12.121200038644414 L-82.24072375530884,11.592298068447136 L-92.0,8.0" fill-opacity="0" stroke="black" stroke-width="1" />
<path d="M-82.24072375530884,-11.592298068447136 L-92.0,-8.0 L-96.17955491713703,-0.5882932602267122" fill-opacity="0" stroke="black" stroke-width="1" />
<path d="M-82.24072375530884,11.592298068447136 L-92.0,8.0 L-96.17955491713703,0.5882932602267122" fill-opacity="0" stroke="black" stroke-width="1" />
<path d="M-92.0,-8.0 L-96.17955491713703,-0.5882932602267122 L-97.90138465895184,-0.3804684531604485" fill-opacity="0" stroke="black" stroke-width="1" />
<path d="M-92.0,8.0 L-96.17955491713703,0.5882932602267122 L-97.90138465895184,0.3804684531604485" fill-opacity="0" stroke="black" stroke-width="1" />
<path d="M-96.17955491713703,-0.5882932602267122 L-97.90138465895184,-0.3804684531604485 L-98.63809845483146,-0.10091794321631792" fill-opacity="0" stroke="black" stroke-width="1" />
<path d="M-96.17955491713703,0.5882932602267122 L-97.90138465895184,0.3804684531604485 L-98.63809845483146,0.10091794321631792" fill-opacity="0" stroke="black" stroke-width="1" />
<path d="M-97.90138465895184,-0.3804684531604485 L-98.63809845483146,-0.10091794321631792 L-100.0,-0.0" fill-opacity="0" stroke="black" stroke-width="1" />
<path d="M-97.90138465895184,0.3804684531604485 L-98.63809845483146,0.10091794321631792 L-100.0,-0.0" fill-opacity="0" stroke="black" stroke-width="1" />
<circle cx="0" cy="-97" r="8" stroke-dasharray="39.653880605311166 10.611601852125524" stroke-dashoffset="-17.59291886010284" stroke="black" stroke-width="1" fill="white" fill-opacity="1" />
<circle cx="0" cy="-97" r="4" stroke="black" stroke-width="1" fill="white" fill-opacity="1" />
</svg>