<?xml version="1.0" encoding="UTF-8"?>
<svg xmlns="http://www.w3.org/2000/svg" xmlns:xlink="http://www.w3.org/1999/xlink"
     width="250" height="250" viewBox="-125.0 -125.0 250 250">
<defs>
</defs>
<path d="M14.0,-0.0 L16.002634217422216,-2.8435665622502104 L19.38442642354259,-3.3177580651457483" fill="red" fill-opacity="0.6" stroke="black" stroke-width="1" />
<path d="M14.0,-0.0 L16.002634217422216,2.8435665622502104 L19.38442642354259,3.3177580651457483" fill="brown" fill-opacity="0.6" stroke="black" stroke-width="1" />
<path d="M16.002634217422216,-2.8435665622502104 L19.38442642354259,-3.3177580651457483 L20.393239728539694,-3.5166780274322242" fill="red" fill-opacity="0.6" stroke="black" stroke-width="1" />
<path d="M16.002634217422216,2.8435665622502104 L19.38442642354259,3.3177580651457483 L20.393239728539694,3.5166780274322242" fill="blue" fill-opacity="0.6" stroke="black" stroke-width="1" />
<path d="M19.38442642354259,-3.3177580651457483 L20.393239728539694,-3.5166780274322242 L23.96996306080322,-3.7051031295409627" fill="orange" fill-opacity="0.6" stroke="black" stroke-width="1" />
<path d="M19.38442642354259,3.3177580651457483 L20.393239728539694,3.5166780274322242 L23.96996306080322,3.7051031295409627" fill="brown" fill-opacity="0.6" stroke="black" stroke-width="1" />
<path d="M20.393239728539694,-3.5166780274322242 L23.96996306080322,-3.7051031295409627 L25.64215082769144,-5.051403071097199" fill="blue" fill-opacity="0.6" stroke="black" stroke-width="1" />
<path d="M20.393239728539694,3.5166780274322242 L23.96996306080322,3.7051031295409627 L25.64215082769144,5.051403071097199" fill="pink" fill-opacity="0.6" stroke="black" stroke-width="1" />
<path d="M23.96996306080322,-3.7051031295409627 L25.64215082769144,-5.051403071097199 L27.01428628734847,-13.01646790200896" fill="black" fill-opacity="0.6" stroke="black" stroke-width="1" />
<path d="M23.96996306080322,3.7051031295409627 L25.64215082769144,5.051403071097199 L27.01428628734847,13.01646790200896" fill="blue" fill-opacity="0.6" stroke="black" stroke-width="1" />
<path d="M25.64215082769144,-5.051403071097199 L27.01428628734847,-13.01646790200896 L35.0,-0.0" fill="pink" fill-opacity="0.6" stroke="black" stroke-width="1" />
<path d="M25.64215082769144,5.051403071097199 L27.01428628734847,13.01646790200896 L35.0,-0.0" fill="orange" fill-opacity="0.6" stroke="black" stroke-width="1" />
<path d="M35.0,-0.0 L33.136747995012676,-19.247119063568473 L47.38114968178942,-29.074844272909427" fill="brown" fill-opacity="0.6" stroke="black" stroke-width="1" />
<path d="M35.0,-0.0 L33.136747995012676,19.247119063568473 L47.38114968178942,29.074844272909427" fill="blue" fill-opacity="0.6" stroke="black" stroke-width="1" />
<path d="M33.136747995012676,-19.247119063568473 L47.38114968178942,-29.074844272909427 L50.0,-31.0" fill="pink" fill-opacity="0.6" stroke="black" stroke-width="1" />
<path d="M33.136747995012676,19.247119063568473 L47.38114968178942,29.074844272909427 L50.0,31.0" fill="orange" fill-opacity="0.6" stroke="black" stroke-width="1" />
<path d="M50.0,50.0 L44.0,56.0 L39.0,61.0" fill="black" fill-opacity="0.6" stroke="black" stroke-width="1" />
<path d="M50.0,-50.0 L44.0,-56.0 L39.0,-61.0" fill="green" fill-opacity="0.6" stroke="black" stroke-width="1" />
<path d="M44.0,56.0 L39.0,61.0 L9.0,91.0" fill="yellow" fill-opacity="0.6" stroke="black" stroke-width="1" />
<path d="M44.0,-56.0 L39.0,-61.0 L9.0,-91.0" fill="orange" fill-opacity="0.6" stroke="black" stroke-width="1" />
<path d="M39.0,61.0 L9.0,91.0 L2.4489873062683047,92.16088901481876" fill="orange" fill-opacity="0.6" stroke="black" stroke-width="1" />
<path d="M39.0,-61.0 L9.0,-91.0 L2.4489873062683047,-92.16088901481876" fill="purple" fill-opacity="0.6" stroke="black" stroke-width="1" />
<path d="M9.0,-9.0 L7.839110985181241,-2.4489873062683047 L4.272353510477394,-0.9932250365578356" fill="brown" fill-opacity="0.6" stroke="black" stroke-width="1" />
<path d="M9.0,9.0 L7.839110985181241,2.4489873062683047 L4.272353510477394,0.9932250365578356" fill="pink" fill-opacity="0.6" stroke="black" stroke-width="1" />
<path d="M7.839110985181241,-2.4489873062683047 L4.272353510477394,-0.9932250365578356 L0.0,-0.0" fill="black" fill-opacity="0.6" stroke="black" stroke-width="1" />
<path d="M7.839110985181241,2.4489873062683047 L4.272353510477394,0.9932250365578356 L0.0,-0.0" fill="purple" fill-opacity="0.6" stroke="black" stroke-width="1" />
<path d="M-14.0,-0.0 L-16.002634217422216,-2.8435665622502104 L-19.38442642354259,-3.3177580651457483" fill="blue" fill-opacity="0.6" stroke="black" stroke-width="1" />
<path d="M-14.0,-0.0 L-16.002634217422216,2.8435665622502104 L-19.38442642354259,3.3177580651457483" fill="red" fill-opacity="0.6" stroke="black" stroke-width="1" />
<path d="M-16.002634217422216,-2.8435665622502104 L-19.38442642354259,-3.3177580651457483 L-20.393239728539694,-3.5166780274322242" fill="green" fill-opacity="0.6" stroke="black" stroke-width="1" />
<path d="M-16.002634217422216,2.8435665622502104 L-19.38442642354259,3.3177580651457483 L-20.393239728539694,3.5166780274322242" fill="green" fill-opacity="0.6" stroke="black" stroke-width="1" />
<path d="M-19.38442642354259,-3.3177580651457483 L-20.393239728539694,-3.5166780274322242 L-23.96996306080322,-3.7051031295409627" fill="green" fill-opacity="0.6" stroke="black" stroke-width="1" />
<path d="M-19.38442642354259,3.3177580651457483 L-20.393239728539694,3.5166780274322242 L-23.96996306080322,3.7051031295409627" fill="brown" fill-opacity="0.6" stroke="black" stroke-width="1" />
<path d="M-20.393239728539694,-3.5166780274322242 L-23.96996306080322,-3.7051031295409627 L-25.64215082769144,-5.051403071097199" fill="purple" fill-opacity="0.6" stroke="black" stroke-width="1" />
<path d="M-20.393239728539694,3.5166780274322242 L-23.96996306080322,3.7051031295409627 L-25.64215082769144,5.051403071097199" fill="yellow" fill-opacity="0.6" stroke="black" stroke-width="1" />
<path d="M-23.96996306080322,-3.7051031295409627 L-25.64215082769144,-5.051403071097199 L-27.01428628734847,-13.01646790200896" fill="pink" fill-opacity="0.6" stroke="black" stroke-width="1" />
<path d="M-23.96996306080322,3.7051031295409627 L-25.64215082769144,5.051403071097199 L-27.01428628734847,13.01646790200896" fill="yellow" fill-opacity="0.6" stroke="black" stroke-width="1" />
<path d="M-25.64215082769144,-5.051403071097199 L-27.01428628734847,-13.01646790200896 L-35.0,-0.0" fill="purple" fill-opacity="0.6" stroke="black" stroke-width="1" />
<path d="M-25.64215082769144,5.051403071097199 L-27.01428628734847,13.01646790200896 L-35.0,-0.0" fill="pink" fill-opacity="0.6" stroke="black" stroke-width="1" />
<path d="M-35.0,-0.0 L-33.136747995012676,-19.247119063568473 L-47.38114968178942,-29.074844272909427" fill="purple" fill-opacity="0.6" stroke="black" stroke-width="1" />
<path d="M-35.0,-0.0 L-33.136747995012676,19.247119063568473 L-47.38114968178942,29.074844272909427" fill="purple" fill-opacity="0.6" stroke="black" stroke-width="1" />
<path d="M-33.136747995012676,-19.247119063568473 L-47.38114968178942,-29.074844272909427 L-50.0,-31.0" fill="brown" fill-opacity="0.6" stroke="black" stroke-width="1" />
<path d="M-33.136747995012676,19.247119063568473 L-47.38114968178942,29.074844272909427 L-50.0,31.0" fill="brown" fill-opacity="0.6" stroke="black" stroke-width="1" />
<path d="M-50.0,50.0 L-44.0,56.0 L-39.0,61.0" fill="yellow" fill-opacity="0.6" stroke="black" stroke-width="1" />
<path d="M-50.0,-50.0 L-44.0,-56.0 L-39.0,-61.0" fill="black" fill-opacity="0.6" stroke="black" stroke-width="1" />
<path d="M-44.0,56.0 L-39.0,61.0 L-9.0,91.0" fill="brown" fill-opacity="0.6" stroke="black" stroke-width="1" />
<path d="M-44.0,-56.0 L-39.0,-61.0 L-9.0,-91.0" fill="orange" fill-opacity="0.6" stroke="black" stroke-width="1" />
<path d="M-39.0,61.0 L-9.0,91.0 L-2.4489873062683047,92.16088901481876" fill="yellow" fill-opacity="0.6" stroke="black" stroke-width="1" />
<path d="M-39.0,-61.0 L-9.0,-91.0 L-2.4489873062683047,-92.16088901481876" fill="blue" fill-opacity="0.6" stroke="black" stroke-width="1" />
<path d="M-9.0,-9.0 L-7.839110985181241,-2.4489873062683047 L-4.272353510477394,-0.9932250365578356" fill="pink" fill-opacity="0.6" stroke="black" stroke-width="1" />
<path d="M-9.0,9.0 L-7.839110985181241,2.4489873062683047 L-4.272353510477394,0.9932250365578356" fill="brown" fill-opacity="0.6" stroke="black" stroke-width="1" />
<path d="M-7.839110985181241,-2.4489873062683047 L-4.272353510477394,-0.9932250365578356 L0.0,-0.0" fill="purple" fill-opacity="0.6" stroke="black" stroke-width="1" />
<path d="M-7.839110985181241,2.4489873062683047 L-4.272353510477394,0.9932250365578356 L0.0,-0.0" fill="red" fill-opacity="0.6" stroke="black" stroke-width="1" />
<path d="M86.0,-0.0 L83.99736578257779,2.8435665622502104 L80.61557357645741,3.3177580651457483" fill="black" fill-opacity="0.6" stroke="black" stroke-width="1" />
<path d="M86.0,-0.0 L83.99736578257779,-2.8435665622502104 L80.61557357645741,-3.3177580651457483" fill="black" fill-opacity="0.6" stroke="black" stroke-width="1" />
<path d="M83.99736578257779,2.8435665622502104 L80.61557357645741,3.3177580651457483 L79.6067602714603,3.5166780274322242" fill="blue" fill-opacity="0.6" stroke="black" stroke-width="1" />
<path d="M83.99736578257779,-2.8435665622502104 L80.61557357645741,-3.3177580651457483 L79.6067602714603,-3.5166780274322242" fill="black" fill-opacity="0.6" stroke="black" stroke-width="1" />
<path d="M80.61557357645741,3.3177580651457483 L79.6067602714603,3.5166780274322242 L76.03003693919678,3.7051031295409627" fill="red" fill-opacity="0.6" stroke="black" stroke-width="1" />
<path d="M80.61557357645741,-3.3177580651457483 L79.6067602714603,-3.5166780274322242 L76.03003693919678,-3.7051031295409627" fill="yellow" fill-opacity="0.6" stroke="black" stroke-width="1" />
<path d="M79.6067602714603,3.5166780274322242 L76.03003693919678,3.7051031295409627 L74.35784917230856,5.051403071097199" fill="blue" fill-opacity="0.6" stroke="black" stroke-width="1" />
<path d="M79.6067602714603,-3.5166780274322242 L76.03003693919678,-3.7051031295409627 L74.35784917230856,-5.051403071097199" fill="green" fill-opacity="0.6" stroke="black" stroke-width="1" />
<path d="M76.03003693919678,3.7051031295409627 L74.35784917230856,5.051403071097199 L72.98571371265153,13.01646790200896" fill="blue" fill-opacity="0.6" stroke="black" stroke-width="1" />
<path d="M76.03003693919678,-3.7051031295409627 L74.35784917230856,-5.051403071097199 L72.98571371265153,-13.01646790200896" fill="orange" fill-opacity="0.6" stroke="black" stroke-width="1" />
<path d="M74.35784917230856,5.051403071097199 L72.98571371265153,13.01646790200896 L65.0,-0.0" fill="red" fill-opacity="0.6" stroke="black" stroke-width="1" />
<path d="M74.35784917230856,-5.051403071097199 L72.98571371265153,-13.01646790200896 L65.0,-0.0" fill="brown" fill-opacity="0.6" stroke="black" stroke-width="1" />
<path d="M65.0,-0.0 L66.86325200498732,19.247119063568473 L52.61885031821058,29.074844272909427" fill="black" fill-opacity="0.6" stroke="black" stroke-width="1" />
<path d="M65.0,-0.0 L66.86325200498732,-19.247119063568473 L52.61885031821058,-29.074844272909427" fill="orange" fill-opacity="0.6" stroke="black" stroke-width="1" />
<path d="M66.86325200498732,19.247119063568473 L52.61885031821058,29.074844272909427 L50.0,31.0" fill="red" fill-opacity="0.6" stroke="black" stroke-width="1" />
<path d="M66.86325200498732,-19.247119063568473 L52.61885031821058,-29.074844272909427 L50.0,-31.0" fill="black" fill-opacity="0.6" stroke="black" stroke-width="1" />
<path d="M50.0,50.0 L56.0,44.0 L61.0,39.0" fill="yellow" fill-opacity="0.6" stroke="black" stroke-width="1" />
<path d="M50.0,-50.0 L56.0,-44.0 L61.0,-39.0" fill="pink" fill-opacity="0.6" stroke="black" stroke-width="1" />
<path d="M56.0,44.0 L61.0,39.0 L91.0,9.0" fill="pink" fill-opacity="0.6" stroke="black" stroke-width="1" />
<path d="M56.0,-44.0 L61.0,-39.0 L91.0,-9.0" fill="black" fill-opacity="0.6" stroke="black" stroke-width="1" />
<path d="M61.0,39.0 L91.0,9.0 L92.16088901481876,2.4489873062683047" fill="red" fill-opacity="0.6" stroke="black" stroke-width="1" />
<path d="M61.0,-39.0 L91.0,-9.0 L92.16088901481876,-2.4489873062683047" fill="yellow" fill-opacity="0.6" stroke="black" stroke-width="1" />
<path d="M91.0,9.0 L92.16088901481876,2.4489873062683047 L95.72764648952261,0.9932250365578356" fill="black" fill-opacity="0.6" stroke="black" stroke-width="1" />
<path d="M91.0,-9.0 L92.16088901481876,-2.4489873062683047 L95.72764648952261,-0.9932250365578356" fill="green" fill-opacity="0.6" stroke="black" stroke-width="1" />
<path d="M92.16088901481876,2.4489873062683047 L95.72764648952261,0.9932250365578356 L100.0,-0.0" fill="brown" fill-opacity="0.6" stroke="black" stroke-width="1" />
<path d="M92.16088901481876,-2.4489873062683047 L95.72764648952261,-0.9932250365578356 L100.0,-0.0" fill="brown" fill-opacity="0.6" stroke="black" stroke-width="1" />
<path d="M0.0,-14.0 L2.8435665622502104,-16.002634217422216 L3.3177580651457483,-19.38442642354259" fill="yellow" fill-opacity="0.6" stroke="black" stroke-width="1" />
<path d="M0.0,14.0 L2.8435665622502104,16.002634217422216 L3.3177580651457483,19.38442642354259" fill="green" fill-opacity="0.6" stroke="black" stroke-width="1" />
<path d="M0.0,86.0 L2.8435665622502104,83.99736578257779 L3.3177580651457483,80.61557357645741" fill="green" fill-opacity="0.6" stroke="black" stroke-width="1" />
<path d="M0.0,-86.0 L2.8435665622502104,-83.99736578257779 L3.3177580651457483,-80.61557357645741" fill="black" fill-opacity="0.6" stroke="black" stroke-width="1" />
<path d="M2.8435665622502104,-16.002634217422216 L3.3177580651457483,-19.38442642354259 L3.5166780274322242,-20.393239728539694" fill="yellow" fill-opacity="0.6" stroke="black" stroke-width="1" />
<path d="M2.8435665622502104,16.002634217422216 L3.3177580651457483,19.38442642354259 L3.5166780274322242,20.393239728539694" fill="purple" fill-opacity="0.6" stroke="black" stroke-width="1" />
<path d="M2.8435665622502104,83.99736578257779 L3.3177580651457483,80.61557357645741 L3.5166780274322242,79.6067602714603" fill="green" fill-opacity="0.6" stroke="black" stroke-width="1" />
<path d="M2.8435665622502104,-83.99736578257779 L3.3177580651457483,-80.61557357645741 L3.5166780274322242,-79.6067602714603" fill="pink" fill-opacity="0.6" stroke="black" stroke-width="1" />
<path d="M3.3177580651457483,-19.38442642354259 L3.5166780274322242,-20.393239728539694 L3.7051031295409627,-23.96996306080322" fill="orange" fill-opacity="0.6" stroke="black" stroke-width="1" />
<path d="M3.3177580651457483,19.38442642354259 L3.5166780274322242,20.393239728539694 L3.7051031295409627,23.96996306080322" fill="purple" fill-opacity="0.6" stroke="black" stroke-width="1" />
<path d="M3.3177580651457483,80.61557357645741 L3.5166780274322242,79.6067602714603 L3.7051031295409627,76.03003693919678" fill="red" fill-opacity="0.6" stroke="black" stroke-width="1" />
<path d="M3.3177580651457483,-80.61557357645741 L3.5166780274322242,-79.6067602714603 L3.7051031295409627,-76.03003693919678" fill="red" fill-opacity="0.6" stroke="black" stroke-width="1" />
<path d="M3.5166780274322242,-20.393239728539694 L3.7051031295409627,-23.96996306080322 L5.051403071097199,-25.64215082769144" fill="purple" fill-opacity="0.6" stroke="black" stroke-width="1" />
<path d="M3.5166780274322242,20.393239728539694 L3.7051031295409627,23.96996306080322 L5.051403071097199,25.64215082769144" fill="brown" fill-opacity="0.6" stroke="black" stroke-width="1" />
<path d="M3.5166780274322242,79.6067602714603 L3.7051031295409627,76.03003693919678 L5.051403071097199,74.35784917230856" fill="orange" fill-opacity="0.6" stroke="black" stroke-width="1" />
<path d="M3.5166780274322242,-79.6067602714603 L3.7051031295409627,-76.03003693919678 L5.051403071097199,-74.35784917230856" fill="green" fill-opacity="0.6" stroke="black" stroke-width="1" />
<path d="M3.7051031295409627,-23.96996306080322 L5.051403071097199,-25.64215082769144 L13.01646790200896,-27.01428628734847" fill="blue" fill-opacity="0.6" stroke="black" stroke-width="1" />
<path d="M3.7051031295409627,23.96996306080322 L5.051403071097199,25.64215082769144 L13.01646790200896,27.01428628734847" fill="blue" fill-opacity="0.6" stroke="black" stroke-width="1" />
<path d="M3.7051031295409627,76.03003693919678 L5.051403071097199,74.35784917230856 L13.01646790200896,72.98571371265153" fill="black" fill-opacity="0.6" stroke="black" stroke-width="1" />
<path d="M3.7051031295409627,-76.03003693919678 L5.051403071097199,-74.35784917230856 L13.01646790200896,-72.98571371265153" fill="orange" fill-opacity="0.6" stroke="black" stroke-width="1" />
<path d="M5.051403071097199,-25.64215082769144 L13.01646790200896,-27.01428628734847 L0.0,-35.0" fill="yellow" fill-opacity="0.6" stroke="black" stroke-width="1" />
<path d="M5.051403071097199,25.64215082769144 L13.01646790200896,27.01428628734847 L0.0,35.0" fill="black" fill-opacity="0.6" stroke="black" stroke-width="1" />
<path d="M5.051403071097199,74.35784917230856 L13.01646790200896,72.98571371265153 L0.0,65.0" fill="brown" fill-opacity="0.6" stroke="black" stroke-width="1" />
<path d="M5.051403071097199,-74.35784917230856 L13.01646790200896,-72.98571371265153 L0.0,-65.0" fill="blue" fill-opacity="0.6" stroke="black" stroke-width="1" />
<path d="M0.0,-35.0 L19.247119063568473,-33.136747995012676 L29.074844272909427,-47.38114968178942" fill="brown" fill-opacity="0.6" stroke="black" stroke-width="1" />
<path d="M0.0,35.0 L19.247119063568473,33.136747995012676 L29.074844272909427,47.38114968178942" fill="purple" fill-opacity="0.6" stroke="black" stroke-width="1" />
<path d="M0.0,65.0 L19.247119063568473,66.86325200498732 L29.074844272909427,52.61885031821058" fill="pink" fill-opacity="0.6" stroke="black" stroke-width="1" />
<path d="M0.0,-65.0 L19.247119063568473,-66.86325200498732 L29.074844272909427,-52.61885031821058" fill="pink" fill-opacity="0.6" stroke="black" stroke-width="1" />
<path d="M19.247119063568473,-33.136747995012676 L29.074844272909427,-47.38114968178942 L31.0,-50.0" fill="red" fill-opacity="0.6" stroke="black" stroke-width="1" />
<path d="M19.247119063568473,33.136747995012676 L29.074844272909427,47.38114968178942 L31.0,50.0" fill="pink" fill-opacity="0.6" stroke="black" stroke-width="1" />
<path d="M19.247119063568473,66.86325200498732 L29.074844272909427,52.61885031821058 L31.0,50.0" fill="pink" fill-opacity="0.6" stroke="black" stroke-width="1" />
<path d="M19.247119063568473,-66.86325200498732 L29.074844272909427,-52.61885031821058 L31.0,-50.0" fill="black" fill-opacity="0.6" stroke="black" stroke-width="1" />
<path d="M9.0,-9.0 L2.4489873062683047,-7.839110985181241 L0.9932250365578356,-4.272353510477394" fill="orange" fill-opacity="0.6" stroke="black" stroke-width="1" />
<path d="M9.0,9.0 L2.4489873062683047,7.839110985181241 L0.9932250365578356,4.272353510477394" fill="orange" fill-opacity="0.6" stroke="black" stroke-width="1" />
<path d="M9.0,91.0 L2.4489873062683047,92.16088901481876 L0.9932250365578356,95.72764648952261" fill="purple" fill-opacity="0.6" stroke="black" stroke-width="1" />
<path d="M9.0,-91.0 L2.4489873062683047,-92.16088901481876 L0.9932250365578356,-95.72764648952261" fill="pink" fill-opacity="0.6" stroke="black" stroke-width="1" />
<path d="M2.4489873062683047,-7.839110985181241 L0.9932250365578356,-4.272353510477394 L0.0,-0.0" fill="brown" fill-opacity="0.6" stroke="black" stroke-width="1" />
<path d="M2.4489873062683047,7.839110985181241 L0.9932250365578356,4.272353510477394 L0.0,-0.0" fill="black" fill-opacity="0.6" stroke="black" stroke-width="1" />
<path d="M2.4489873062683047,92.16088901481876 L0.9932250365578356,95.72764648952261 L0.0,100.0" fill="orange" fill-opacity="0.6" stroke="black" stroke-width="1" />
<path d="M2.4489873062683047,-92.16088901481876 L0.9932250365578356,-95.72764648952261 L0.0,-100.0" fill="brown" fill-opacity="0.6" stroke="black" stroke-width="1" />
<path d="M0.0,86.0 L-2.8435665622502104,83.99736578257779 L-3.3177580651457483,80.61557357645741" fill="brown" fill-opacity="0.6" stroke="black" stroke-width="1" />
<path d="M0.0,-14.0 L-2.8435665622502104,-16.002634217422216 L-3.3177580651457483,-19.38442642354259" fill="red" fill-opacity="0.6" stroke="black" stroke-width="1" />
<path d="M0.0,14.0 L-2.8435665622502104,16.002634217422212 L-3.3177580651457483,19.384426423542592" fill="blue" fill-opacity="0.6" stroke="black" stroke-width="1" />
<path d="M0.0,-86.0 L-2.8435665622502104,-83.99736578257779 L-3.3177580651457483,-80.61557357645741" fill="brown" fill-opacity="0.6" stroke="black" stroke-width="1" />
<path d="M-2.8435665622502104,83.99736578257779 L-3.3177580651457483,80.61557357645741 L-3.5166780274322242,79.6067602714603" fill="green" fill-opacity="0.6" stroke="black" stroke-width="1" />
<path d="M-2.8435665622502104,-16.002634217422216 L-3.3177580651457483,-19.38442642354259 L-3.5166780274322242,-20.393239728539694" fill="purple" fill-opacity="0.6" stroke="black" stroke-width="1" />
<path d="M-2.8435665622502104,16.002634217422212 L-3.3177580651457483,19.384426423542592 L-3.5166780274322242,20.393239728539697" fill="brown" fill-opacity="0.6" stroke="black" stroke-width="1" />
<path d="M-2.8435665622502104,-83.99736578257779 L-3.3177580651457483,-80.61557357645741 L-3.5166780274322242,-79.6067602714603" fill="pink" fill-opacity="0.6" stroke="black" stroke-width="1" />
<path d="M-3.3177580651457483,80.61557357645741 L-3.5166780274322242,79.6067602714603 L-3.7051031295409627,76.03003693919678" fill="blue" fill-opacity="0.6" stroke="black" stroke-width="1" />
<path d="M-3.3177580651457483,-19.38442642354259 L-3.5166780274322242,-20.393239728539694 L-3.7051031295409627,-23.96996306080322" fill="red" fill-opacity="0.6" stroke="black" stroke-width="1" />
<path d="M-3.3177580651457483,19.384426423542592 L-3.5166780274322242,20.393239728539697 L-3.7051031295409627,23.969963060803224" fill="yellow" fill-opacity="0.6" stroke="black" stroke-width="1" />
<path d="M-3.3177580651457483,-80.61557357645741 L-3.5166780274322242,-79.6067602714603 L-3.7051031295409627,-76.03003693919678" fill="blue" fill-opacity="0.6" stroke="black" stroke-width="1" />
<path d="M-3.5166780274322242,79.6067602714603 L-3.7051031295409627,76.03003693919678 L-5.051403071097199,74.35784917230856" fill="pink" fill-opacity="0.6" stroke="black" stroke-width="1" />
<path d="M-3.5166780274322242,-20.393239728539694 L-3.7051031295409627,-23.96996306080322 L-5.051403071097199,-25.64215082769144" fill="yellow" fill-opacity="0.6" stroke="black" stroke-width="1" />
<path d="M-3.5166780274322242,20.393239728539697 L-3.7051031295409627,23.969963060803224 L-5.051403071097199,25.642150827691438" fill="brown" fill-opacity="0.6" stroke="black" stroke-width="1" />
<path d="M-3.5166780274322242,-79.6067602714603 L-3.7051031295409627,-76.03003693919678 L-5.051403071097199,-74.35784917230856" fill="blue" fill-opacity="0.6" stroke="black" stroke-width="1" />
<path d="M-3.7051031295409627,76.03003693919678 L-5.051403071097199,74.35784917230856 L-13.01646790200896,72.98571371265153" fill="red" fill-opacity="0.6" stroke="black" stroke-width="1" />
<path d="M-3.7051031295409627,-23.96996306080322 L-5.051403071097199,-25.64215082769144 L-13.01646790200896,-27.01428628734847" fill="blue" fill-opacity="0.6" stroke="black" stroke-width="1" />
<path d="M-3.7051031295409627,23.969963060803224 L-5.051403071097199,25.642150827691438 L-13.01646790200896,27.01428628734847" fill="red" fill-opacity="0.6" stroke="black" stroke-width="1" />
<path d="M-3.7051031295409627,-76.03003693919678 L-5.051403071097199,-74.35784917230856 L-13.01646790200896,-72.98571371265153" fill="red" fill-opacity="0.6" stroke="black" stroke-width="1" />
<path d="M-5.051403071097199,74.35784917230856 L-13.01646790200896,72.98571371265153 L0.0,65.0" fill="orange" fill-opacity="0.6" stroke="black" stroke-width="1" />
<path d="M-5.051403071097199,-25.64215082769144 L-13.01646790200896,-27.01428628734847 L0.0,-35.0" fill="black" fill-opacity="0.6" stroke="black" stroke-width="1" />
<path d="M-5.051403071097199,25.642150827691438 L-13.01646790200896,27.01428628734847 L0.0,35.0" fill="red" fill-opacity="0.6" stroke="black" stroke-width="1" />
<path d="M-5.051403071097199,-74.35784917230856 L-13.01646790200896,-72.98571371265153 L0.0,-65.0" fill="orange" fill-opacity="0.6" stroke="black" stroke-width="1" />
<path d="M0.0,65.0 L-19.247119063568473,66.86325200498732 L-29.074844272909427,52.61885031821058" fill="purple" fill-opacity="0.6" stroke="black" stroke-width="1" />
<path d="M0.0,-35.0 L-19.247119063568473,-33.136747995012676 L-29.074844272909427,-47.38114968178942" fill="brown" fill-opacity="0.6" stroke="black" stroke-width="1" />
<path d="M0.0,35.0 L-19.247119063568473,33.13674799501268 L-29.074844272909427,47.38114968178942" fill="brown" fill-opacity="0.6" stroke="black" stroke-width="1" />
<path d="M0.0,-65.0 L-19.247119063568473,-66.86325200498732 L-29.074844272909427,-52.61885031821058" fill="blue" fill-opacity="0.6" stroke="black" stroke-width="1" />
<path d="M-19.247119063568473,66.86325200498732 L-29.074844272909427,52.61885031821058 L-31.0,50.0" fill="blue" fill-opacity="0.6" stroke="black" stroke-width="1" />
<path d="M-19.247119063568473,-33.136747995012676 L-29.074844272909427,-47.38114968178942 L-31.0,-50.0" fill="purple" fill-opacity="0.6" stroke="black" stroke-width="1" />
<path d="M-19.247119063568473,33.13674799501268 L-29.074844272909427,47.38114968178942 L-31.0,50.0" fill="blue" fill-opacity="0.6" stroke="black" stroke-width="1" />
<path d="M-19.247119063568473,-66.86325200498732 L-29.074844272909427,-52.61885031821058 L-31.0,-50.0" fill="green" fill-opacity="0.6" stroke="black" stroke-width="1" />
<path d="M-9.0,91.0 L-2.4489873062683047,92.16088901481876 L-0.9932250365578356,95.72764648952261" fill="pink" fill-opacity="0.6" stroke="black" stroke-width="1" />
<path d="M-9.0,-9.0 L-2.4489873062683047,-7.839110985181241 L-0.9932250365578356,-4.272353510477394" fill="blue" fill-opacity="0.6" stroke="black" stroke-width="1" />
<path d="M-9.0,9.0 L-2.4489873062683047,7.839110985181236 L-0.9932250365578356,4.272353510477387" fill="green" fill-opacity="0.6" stroke="black" stroke-width="1" />
<path d="M-9.0,-91.0 L-2.4489873062683047,-92.16088901481876 L-0.9932250365578356,-95.72764648952261" fill="pink" fill-opacity="0.6" stroke="black" stroke-width="1" />
<path d="M-2.4489873062683047,92.16088901481876 L-0.9932250365578356,95.72764648952261 L0.0,100.0" fill="black" fill-opacity="0.6" stroke="black" stroke-width="1" />
<path d="M-2.4489873062683047,-7.839110985181241 L-0.9932250365578356,-4.272353510477394 L0.0,-0.0" fill="pink" fill-opacity="0.6" stroke="black" stroke-width="1" />
<path d="M-2.4489873062683047,7.839110985181236 L-0.9932250365578356,4.272353510477387 L0.0,-0.0" fill="red" fill-opacity="0.6" stroke="black" stroke-width="1" />
<path d="M-2.4489873062683047,-92.16088901481876 L-0.9932250365578356,-95.72764648952261 L0.0,-100.0" fill="brown" fill-opacity="0.6" stroke="black" stroke-width="1" />
<path d="M-86.0,-0.0 L-83.99736578257779,-2.8435665622502104 L-80.61557357645741,-3.3177580651457483" fill="blue" fill-opacity="0.6" stroke="black" stroke-width="1" />
<path d="M-86.0,-0.0 L-83.99736578257779,2.8435665622502104 L-80.61557357645741,3.3177580651457483" fill="yellow" fill-opacity="0.6" stroke="black" stroke-width="1" />
<path d="M-83.99736578257779,-2.8435665622502104 L-80.61557357645741,-3.3177580651457483 L-79.6067602714603,-3.5166780274322242" fill="pink" fill-opacity="0.6" stroke="black" stroke-width="1" />
<path d="M-83.99736578257779,2.8435665622502104 L-80.61557357645741,3.3177580651457483 L-79.6067602714603,3.5166780274322242" fill="pink" fill-opacity="0.6" stroke="black" stroke-width="1" />
<path d="M-80.61557357645741,-3.3177580651457483 L-79.6067602714603,-3.5166780274322242 L-76.03003693919678,-3.7051031295409627" fill="pink" fill-opacity="0.6" stroke="black" stroke-width="1" />
<path d="M-80.61557357645741,3.3177580651457483 L-79.6067602714603,3.5166780274322242 L-76.03003693919678,3.7051031295409627" fill="orange" fill-opacity="0.6" stroke="black" stroke-width="1" />
<path d="M-79.6067602714603,-3.5166780274322242 L-76.03003693919678,-3.7051031295409627 L-74.35784917230856,-5.051403071097199" fill="yellow" fill-opacity="0.6" stroke="black" stroke-width="1" />
<path d="M-79.6067602714603,3.5166780274322242 L-76.03003693919678,3.7051031295409627 L-74.35784917230856,5.051403071097199" fill="orange" fill-opacity="0.6" stroke="black" stroke-width="1" />
<path d="M-76.03003693919678,-3.7051031295409627 L-74.35784917230856,-5.051403071097199 L-72.98571371265153,-13.01646790200896" fill="pink" fill-opacity="0.6" stroke="black" stroke-width="1" />
<path d="M-76.03003693919678,3.7051031295409627 L-74.35784917230856,5.051403071097199 L-72.98571371265153,13.01646790200896" fill="pink" fill-opacity="0.6" stroke="black" stroke-width="1" />
<path d="M-74.35784917230856,-5.051403071097199 L-72.98571371265153,-13.01646790200896 L-65.0,-0.0" fill="blue" fill-opacity="0.6" stroke="black" stroke-width="1" />
<path d="M-74.35784917230856,5.051403071097199 L-72.98571371265153,13.01646790200896 L-65.0,-0.0" fill="purple" fill-opacity="0.6" stroke="black" stroke-width="1" />
<path d="M-65.0,-0.0 L-66.86325200498732,-19.247119063568473 L-52.61885031821058,-29.074844272909427" fill="red" fill-opacity="0.6" stroke="black" stroke-width="1" />
<path d="M-65.0,-0.0 L-66.86325200498732,19.247119063568473 L-52.61885031821058,29.074844272909427" fill="brown" fill-opacity="0.6" stroke="black" stroke-width="1" />
<path d="M-66.86325200498732,-19.247119063568473 L-52.61885031821058,-29.074844272909427 L-50.0,-31.0" fill="black" fill-opacity="0.6" stroke="black" stroke-width="1" />
<path d="M-66.86325200498732,19.247119063568473 L-52.61885031821058,29.074844272909427 L-50.0,31.0" fill="yellow" fill-opacity="0.6" stroke="black" stroke-width="1" />
<path d="M-50.0,-50.0 L-56.0,-44.0 L-61.0,-39.0" fill="yellow" fill-opacity="0.6" stroke="black" stroke-width="1" />
<path d="M-50.0,50.0 L-56.0,44.0 L-61.0,39.0" fill="pink" fill-opacity="0.6" stroke="black" stroke-width="1" />
<path d="M-56.0,-44.0 L-61.0,-39.0 L-91.0,-9.0" fill="brown" fill-opacity="0.6" stroke="black" stroke-width="1" />
<path d="M-56.0,44.0 L-61.0,39.0 L-91.0,9.0" fill="green" fill-opacity="0.6" stroke="black" stroke-width="1" />
<path d="M-61.0,-39.0 L-91.0,-9.0 L-92.16088901481876,-2.4489873062683047" fill="brown" fill-opacity="0.6" stroke="black" stroke-width="1" />
<path d="M-61.0,39.0 L-91.0,9.0 L-92.16088901481876,2.4489873062683047" fill="orange" fill-opacity="0.6" stroke="black" stroke-width="1" />
<path d="M-91.0,-9.0 L-92.16088901481876,-2.4489873062683047 L-95.72764648952261,-0.9932250365578356" fill="green" fill-opacity="0.6" stroke="black" stroke-width="1" />
<path d="M-91.0,9.0 L-92.16088901481876,2.4489873062683047 L-95.72764648952261,0.9932250365578356" fill="orange" fill-opacity="0.6" stroke="black" stroke-width="1" />
<path d="M-92.16088901481876,-2.4489873062683047 L-95.72764648952261,-0.9932250365578356 L-100.0,-0.0" fill="brown" fill-opacity="0.6" stroke="black" stroke-width="1" />
<path d="M-92.16088901481876,2.4489873062683047 L-95.72764648952261,0.9932250365578356 L-100.0,-0.0" fill="green" fill-opacity="0.6" stroke="black" stroke-width="1" />
</svg>