<?xml version="1.0" encoding="UTF-8"?>
<svg xmlns="http://www.w3.org/2000/svg" xmlns:xlink="http://www.w3.org/1999/xlink"
     width="250" height="250" viewBox="-125.0 -125.0 250 250">
<defs>
</defs>
<path d="M10.0,-0.0 L14.714087088299806,-3.1855557049335403 L15.38630458383316,-4.5557938532352695" fill="black" fill-opacity="0.6" stroke="black" stroke-width="1" />
<path d="M10.0,-0.0 L14.714087088299806,3.1855557049335403 L15.38630458383316,4.5557938532352695" fill="brown" fill-opacity="0.6" stroke="black" stroke-width="1" />
<path d="M14.714087088299806,-3.1855557049335403 L15.38630458383316,-4.5557938532352695 L15.975948249581435,-6.870249551528146" fill="black" fill-opacity="0.6" stroke="black" stroke-width="1" />
<path d="M14.714087088299806,3.1855557049335403 L15.38630458383316,4.5557938532352695 L15.975948249581435,6.870249551528146" fill="red" fill-opacity="0.6" stroke="black" stroke-width="1" />
<path d="M15.38630458383316,-4.5557938532352695 L15.975948249581435,-6.870249551528146 L17.354088019633895,-7.0349423584060595" fill="yellow" fill-opacity="0.6" stroke="black" stroke-width="1" />
<path d="M15.38630458383316,4.5557938532352695 L15.975948249581435,6.870249551528146 L17.354088019633895,7.0349423584060595" fill="blue" fill-opacity="0.6" stroke="black" stroke-width="1" />
<path d="M15.975948249581435,-6.870249551528146 L17.354088019633895,-7.0349423584060595 L18.508453445617803,-7.833232052125879" fill="purple" fill-opacity="0.6" stroke="black" stroke-width="1" />
<path d="M15.975948249581435,6.870249551528146 L17.354088019633895,7.0349423584060595 L18.508453445617803,7.833232052125879" fill="black" fill-opacity="0.6" stroke="black" stroke-width="1" />
<path d="M17.354088019633895,-7.0349423584060595 L18.508453445617803,-7.833232052125879 L21.03325245282252,-8.902558610284872" fill="red" fill-opacity="0.6" stroke="black" stroke-width="1" />
<path d="M17.354088019633895,7.0349423584060595 L18.508453445617803,7.833232052125879 L21.03325245282252,8.902558610284872" fill="red" fill-opacity="0.6" stroke="black" stroke-width="1" />
<path d="M18.508453445617803,-7.833232052125879 L21.03325245282252,-8.902558610284872 L23.0,-0.0" fill="red" fill-opacity="0.6" stroke="black" stroke-width="1" />
<path d="M18.508453445617803,7.833232052125879 L21.03325245282252,8.902558610284872 L23.0,-0.0" fill="green" fill-opacity="0.6" stroke="black" stroke-width="1" />
<path d="M23.0,-0.0 L23.04902679326402,-9.622705247321393 L23.89994105709201,-12.13481601388645" fill="yellow" fill-opacity="0.6" stroke="black" stroke-width="1" />
<path d="M23.0,-0.0 L23.04902679326402,9.622705247321393 L23.89994105709201,12.13481601388645" fill="orange" fill-opacity="0.6" stroke="black" stroke-width="1" />
<path d="M23.04902679326402,-9.622705247321393 L23.89994105709201,-12.13481601388645 L27.026570356839706,-14.443122161695774" fill="black" fill-opacity="0.6" stroke="black" stroke-width="1" />
<path d="M23.04902679326402,9.622705247321393 L23.89994105709201,12.13481601388645 L27.026570356839706,14.443122161695774" fill="yellow" fill-opacity="0.6" stroke="black" stroke-width="1" />
<path d="M23.89994105709201,-12.13481601388645 L27.026570356839706,-14.443122161695774 L29.662447384724054,-15.671711452997503" fill="brown" fill-opacity="0.6" stroke="black" stroke-width="1" />
<path d="M23.89994105709201,12.13481601388645 L27.026570356839706,14.443122161695774 L29.662447384724054,15.671711452997503" fill="yellow" fill-opacity="0.6" stroke="black" stroke-width="1" />
<path d="M27.026570356839706,-14.443122161695774 L29.662447384724054,-15.671711452997503 L30.64567723957445,-18.802170886562436" fill="pink" fill-opacity="0.6" stroke="black" stroke-width="1" />
<path d="M27.026570356839706,14.443122161695774 L29.662447384724054,15.671711452997503 L30.64567723957445,18.802170886562436" fill="green" fill-opacity="0.6" stroke="black" stroke-width="1" />
<path d="M29.662447384724054,-15.671711452997503 L30.64567723957445,-18.802170886562436 L43.0,-0.0" fill="blue" fill-opacity="0.6" stroke="black" stroke-width="1" />
<path d="M29.662447384724054,15.671711452997503 L30.64567723957445,18.802170886562436 L43.0,-0.0" fill="green" fill-opacity="0.6" stroke="black" stroke-width="1" />
<path d="M49.0,-0.0 L36.18251973066838,-20.61867185657143 L38.26969655703613,-20.902340159915084" fill="red" fill-opacity="0.6" stroke="black" stroke-width="1" />
<path d="M49.0,-0.0 L36.18251973066838,20.61867185657143 L38.26969655703613,20.902340159915084" fill="pink" fill-opacity="0.6" stroke="black" stroke-width="1" />
<path d="M36.18251973066838,-20.61867185657143 L38.26969655703613,-20.902340159915084 L50.0,-25.0" fill="black" fill-opacity="0.6" stroke="black" stroke-width="1" />
<path d="M36.18251973066838,20.61867185657143 L38.26969655703613,20.902340159915084 L50.0,25.0" fill="pink" fill-opacity="0.6" stroke="black" stroke-width="1" />
<path d="M50.0,-25.0 L43.64330512116743,-29.292921598667967 L45.750489379588046,-30.471618722536668" fill="purple" fill-opacity="0.6" stroke="black" stroke-width="1" />
<path d="M50.0,25.0 L43.64330512116743,29.292921598667967 L45.750489379588046,30.471618722536668" fill="blue" fill-opacity="0.6" stroke="black" stroke-width="1" />
<path d="M43.64330512116743,-29.292921598667967 L45.750489379588046,-30.471618722536668 L48.001820281103775,-31.967917506960468" fill="pink" fill-opacity="0.6" stroke="black" stroke-width="1" />
<path d="M43.64330512116743,29.292921598667967 L45.750489379588046,30.471618722536668 L48.001820281103775,31.967917506960468" fill="brown" fill-opacity="0.6" stroke="black" stroke-width="1" />
<path d="M45.750489379588046,-30.471618722536668 L48.001820281103775,-31.967917506960468 L50.0,-39.0" fill="yellow" fill-opacity="0.6" stroke="black" stroke-width="1" />
<path d="M45.750489379588046,30.471618722536668 L48.001820281103775,31.967917506960468 L50.0,39.0" fill="purple" fill-opacity="0.6" stroke="black" stroke-width="1" />
<path d="M50.0,-47.0 L48.43456785977341,-44.007290699225535 L45.0,-45.0" fill="black" fill-opacity="0.6" stroke="black" stroke-width="1" />
<path d="M50.0,47.0 L48.43456785977341,44.007290699225535 L45.0,45.0" fill="yellow" fill-opacity="0.6" stroke="black" stroke-width="1" />
<path d="M44.007290699225535,51.56543214022659 L45.0,55.0 L40.0,60.0" fill="purple" fill-opacity="0.6" stroke="black" stroke-width="1" />
<path d="M44.007290699225535,-51.56543214022659 L45.0,-55.0 L40.0,-60.0" fill="blue" fill-opacity="0.6" stroke="black" stroke-width="1" />
<path d="M45.0,55.0 L40.0,60.0 L39.0,61.0" fill="black" fill-opacity="0.6" stroke="black" stroke-width="1" />
<path d="M45.0,-55.0 L40.0,-60.0 L39.0,-61.0" fill="brown" fill-opacity="0.6" stroke="black" stroke-width="1" />
<path d="M40.0,60.0 L39.0,61.0 L38.0,62.0" fill="green" fill-opacity="0.6" stroke="black" stroke-width="1" />
<path d="M40.0,-60.0 L39.0,-61.0 L38.0,-62.0" fill="purple" fill-opacity="0.6" stroke="black" stroke-width="1" />
<path d="M39.0,61.0 L38.0,62.0 L27.0,73.0" fill="red" fill-opacity="0.6" stroke="black" stroke-width="1" />
<path d="M39.0,-61.0 L38.0,-62.0 L27.0,-73.0" fill="purple" fill-opacity="0.6" stroke="black" stroke-width="1" />
<path d="M38.0,62.0 L27.0,73.0 L2.7690879656608507,91.36774992507479" fill="green" fill-opacity="0.6" stroke="black" stroke-width="1" />
<path d="M38.0,-62.0 L27.0,-73.0 L2.7690879656608507,-91.36774992507479" fill="green" fill-opacity="0.6" stroke="black" stroke-width="1" />
<path d="M27.0,-27.0 L8.632250074925208,-2.7690879656608507 L3.343550990203065,-0.7038496629726567" fill="brown" fill-opacity="0.6" stroke="black" stroke-width="1" />
<path d="M27.0,27.0 L8.632250074925208,2.7690879656608507 L3.343550990203065,0.7038496629726567" fill="orange" fill-opacity="0.6" stroke="black" stroke-width="1" />
<path d="M8.632250074925208,-2.7690879656608507 L3.343550990203065,-0.7038496629726567 L1.8025704887787097,-0.09763768037571452" fill="yellow" fill-opacity="0.6" stroke="black" stroke-width="1" />
<path d="M8.632250074925208,2.7690879656608507 L3.343550990203065,0.7038496629726567 L1.8025704887787097,0.09763768037571452" fill="pink" fill-opacity="0.6" stroke="black" stroke-width="1" />
<path d="M3.343550990203065,-0.7038496629726567 L1.8025704887787097,-0.09763768037571452 L0.0,-0.0" fill="brown" fill-opacity="0.6" stroke="black" stroke-width="1" />
<path d="M3.343550990203065,0.7038496629726567 L1.8025704887787097,0.09763768037571452 L0.0,-0.0" fill="purple" fill-opacity="0.6" stroke="black" stroke-width="1" />
<path d="M-10.0,-0.0 L-14.714087088299806,-3.1855557049335403 L-15.38630458383316,-4.5557938532352695" fill="orange" fill-opacity="0.6" stroke="black" stroke-width="1" />
<path d="M-10.0,-0.0 L-14.714087088299806,3.1855557049335403 L-15.38630458383316,4.5557938532352695" fill="orange" fill-opacity="0.6" stroke="black" stroke-width="1" />
<path d="M-14.714087088299806,-3.1855557049335403 L-15.38630458383316,-4.5557938532352695 L-15.975948249581435,-6.870249551528146" fill="red" fill-opacity="0.6" stroke="black" stroke-width="1" />
<path d="M-14.714087088299806,3.1855557049335403 L-15.38630458383316,4.5557938532352695 L-15.975948249581435,6.870249551528146" fill="green" fill-opacity="0.6" stroke="black" stroke-width="1" />
<path d="M-15.38630458383316,-4.5557938532352695 L-15.975948249581435,-6.870249551528146 L-17.354088019633895,-7.0349423584060595" fill="red" fill-opacity="0.6" stroke="black" stroke-width="1" />
<path d="M-15.38630458383316,4.5557938532352695 L-15.975948249581435,6.870249551528146 L-17.354088019633895,7.0349423584060595" fill="brown" fill-opacity="0.6" stroke="black" stroke-width="1" />
<path d="M-15.975948249581435,-6.870249551528146 L-17.354088019633895,-7.0349423584060595 L-18.508453445617803,-7.833232052125879" fill="yellow" fill-opacity="0.6" stroke="black" stroke-width="1" />
<path d="M-15.975948249581435,6.870249551528146 L-17.354088019633895,7.0349423584060595 L-18.508453445617803,7.833232052125879" fill="green" fill-opacity="0.6" stroke="black" stroke-width="1" />
<path d="M-17.354088019633895,-7.0349423584060595 L-18.508453445617803,-7.833232052125879 L-21.03325245282252,-8.902558610284872" fill="black" fill-opacity="0.6" stroke="black" stroke-width="1" />
<path d="M-17.354088019633895,7.0349423584060595 L-18.508453445617803,7.833232052125879 L-21.03325245282252,8.902558610284872" fill="red" fill-opacity="0.6" stroke="black" stroke-width="1" />
<path d="M-18.508453445617803,-7.833232052125879 L-21.03325245282252,-8.902558610284872 L-23.0,-0.0" fill="yellow" fill-opacity="0.6" stroke="black" stroke-width="1" />
<path d="M-18.508453445617803,7.833232052125879 L-21.03325245282252,8.902558610284872 L-23.0,-0.0" fill="orange" fill-opacity="0.6" stroke="black" stroke-width="1" />
<path d="M-23.0,-0.0 L-23.04902679326402,-9.622705247321393 L-23.89994105709201,-12.13481601388645" fill="yellow" fill-opacity="0.6" stroke="black" stroke-width="1" />
<path d="M-23.0,-0.0 L-23.04902679326402,9.622705247321393 L-23.89994105709201,12.13481601388645" fill="pink" fill-opacity="0.6" stroke="black" stroke-width="1" />
<path d="M-23.04902679326402,-9.622705247321393 L-23.89994105709201,-12.13481601388645 L-27.026570356839706,-14.443122161695774" fill="yellow" fill-opacity="0.6" stroke="black" stroke-width="1" />
<path d="M-23.04902679326402,9.622705247321393 L-23.89994105709201,12.13481601388645 L-27.026570356839706,14.443122161695774" fill="brown" fill-opacity="0.6" stroke="black" stroke-width="1" />
<path d="M-23.89994105709201,-12.13481601388645 L-27.026570356839706,-14.443122161695774 L-29.662447384724054,-15.671711452997503" fill="yellow" fill-opacity="0.6" stroke="black" stroke-width="1" />
<path d="M-23.89994105709201,12.13481601388645 L-27.026570356839706,14.443122161695774 L-29.662447384724054,15.671711452997503" fill="brown" fill-opacity="0.6" stroke="black" stroke-width="1" />
<path d="M-27.026570356839706,-14.443122161695774 L-29.662447384724054,-15.671711452997503 L-30.64567723957445,-18.802170886562436" fill="red" fill-opacity="0.6" stroke="black" stroke-width="1" />
<path d="M-27.026570356839706,14.443122161695774 L-29.662447384724054,15.671711452997503 L-30.64567723957445,18.802170886562436" fill="red" fill-opacity="0.6" stroke="black" stroke-width="1" />
<path d="M-29.662447384724054,-15.671711452997503 L-30.64567723957445,-18.802170886562436 L-43.0,-0.0" fill="pink" fill-opacity="0.6" stroke="black" stroke-width="1" />
<path d="M-29.662447384724054,15.671711452997503 L-30.64567723957445,18.802170886562436 L-43.0,-0.0" fill="red" fill-opacity="0.6" stroke="black" stroke-width="1" />
<path d="M-49.0,-0.0 L-36.18251973066838,-20.61867185657143 L-38.26969655703613,-20.902340159915084" fill="yellow" fill-opacity="0.6" stroke="black" stroke-width="1" />
<path d="M-49.0,-0.0 L-36.18251973066838,20.61867185657143 L-38.26969655703613,20.902340159915084" fill="yellow" fill-opacity="0.6" stroke="black" stroke-width="1" />
<path d="M-36.18251973066838,-20.61867185657143 L-38.26969655703613,-20.902340159915084 L-50.0,-25.0" fill="pink" fill-opacity="0.6" stroke="black" stroke-width="1" />
<path d="M-36.18251973066838,20.61867185657143 L-38.26969655703613,20.902340159915084 L-50.0,25.0" fill="green" fill-opacity="0.6" stroke="black" stroke-width="1" />
<path d="M-50.0,-25.0 L-43.64330512116743,-29.292921598667967 L-45.750489379588046,-30.471618722536668" fill="pink" fill-opacity="0.6" stroke="black" stroke-width="1" />
<path d="M-50.0,25.0 L-43.64330512116743,29.292921598667967 L-45.750489379588046,30.471618722536668" fill="red" fill-opacity="0.6" stroke="black" stroke-width="1" />
<path d="M-43.64330512116743,-29.292921598667967 L-45.750489379588046,-30.471618722536668 L-48.001820281103775,-31.967917506960468" fill="blue" fill-opacity="0.6" stroke="black" stroke-width="1" />
<path d="M-43.64330512116743,29.292921598667967 L-45.750489379588046,30.471618722536668 L-48.001820281103775,31.967917506960468" fill="black" fill-opacity="0.6" stroke="black" stroke-width="1" />
<path d="M-45.750489379588046,-30.471618722536668 L-48.001820281103775,-31.967917506960468 L-50.0,-39.0" fill="red" fill-opacity="0.6" stroke="black" stroke-width="1" />
<path d="M-45.750489379588046,30.471618722536668 L-48.001820281103775,31.967917506960468 L-50.0,39.0" fill="green" fill-opacity="0.6" stroke="black" stroke-width="1" />
<path d="M-50.0,-47.0 L-48.43456785977341,-44.007290699225535 L-45.0,-45.0" fill="red" fill-opacity="0.6" stroke="black" stroke-width="1" />
<path d="M-50.0,47.0 L-48.43456785977341,44.007290699225535 L-45.0,45.0" fill="blue" fill-opacity="0.6" stroke="black" stroke-width="1" />
<path d="M-44.007290699225535,51.56543214022659 L-45.0,55.0 L-40.0,60.0" fill="purple" fill-opacity="0.6" stroke="black" stroke-width="1" />
<path d="M-44.007290699225535,-51.56543214022659 L-45.0,-55.0 L-40.0,-60.0" fill="green" fill-opacity="0.6" stroke="black" stroke-width="1" />
<path d="M-45.0,55.0 L-40.0,60.0 L-39.0,61.0" fill="blue" fill-opacity="0.6" stroke="black" stroke-width="1" />
<path d="M-45.0,-55.0 L-40.0,-60.0 L-39.0,-61.0" fill="pink" fill-opacity="0.6" stroke="black" stroke-width="1" />
<path d="M-40.0,60.0 L-39.0,61.0 L-38.0,62.0" fill="purple" fill-opacity="0.6" stroke="black" stroke-width="1" />
<path d="M-40.0,-60.0 L-39.0,-61.0 L-38.0,-62.0" fill="red" fill-opacity="0.6" stroke="black" stroke-width="1" />
<path d="M-39.0,61.0 L-38.0,62.0 L-27.0,73.0" fill="yellow" fill-opacity="0.6" stroke="black" stroke-width="1" />
<path d="M-39.0,-61.0 L-38.0,-62.0 L-27.0,-73.0" fill="brown" fill-opacity="0.6" stroke="black" stroke-width="1" />
<path d="M-38.0,62.0 L-27.0,73.0 L-2.7690879656608507,91.36774992507479" fill="brown" fill-opacity="0.6" stroke="black" stroke-width="1" />
<path d="M-38.0,-62.0 L-27.0,-73.0 L-2.7690879656608507,-91.36774992507479" fill="green" fill-opacity="0.6" stroke="black" stroke-width="1" />
<path d="M-27.0,-27.0 L-8.632250074925208,-2.7690879656608507 L-3.343550990203065,-0.7038496629726567" fill="pink" fill-opacity="0.6" stroke="black" stroke-width="1" />
<path d="M-27.0,27.0 L-8.632250074925208,2.7690879656608507 L-3.343550990203065,0.7038496629726567" fill="black" fill-opacity="0.6" stroke="black" stroke-width="1" />
<path d="M-8.632250074925208,-2.7690879656608507 L-3.343550990203065,-0.7038496629726567 L-1.8025704887787097,-0.09763768037571452" fill="pink" fill-opacity="0.6" stroke="black" stroke-width="1" />
<path d="M-8.632250074925208,2.7690879656608507 L-3.343550990203065,0.7038496629726567 L-1.8025704887787097,0.09763768037571452" fill="blue" fill-opacity="0.6" stroke="black" stroke-width="1" />
<path d="M-3.343550990203065,-0.7038496629726567 L-1.8025704887787097,-0.09763768037571452 L0.0,-0.0" fill="red" fill-opacity="0.6" stroke="black" stroke-width="1" />
<path d="M-3.343550990203065,0.7038496629726567 L-1.8025704887787097,0.09763768037571452 L0.0,-0.0" fill="purple" fill-opacity="0.6" stroke="black" stroke-width="1" />
<path d="M90.0,-0.0 L85.2859129117002,3.1855557049335403 L84.61369541616685,4.5557938532352695" fill="green" fill-opacity="0.6" stroke="black" stroke-width="1" />
<path d="M90.0,-0.0 L85.2859129117002,-3.1855557049335403 L84.61369541616685,-4.5557938532352695" fill="pink" fill-opacity="0.6" stroke="black" stroke-width="1" />
<path d="M85.2859129117002,3.1855557049335403 L84.61369541616685,4.5557938532352695 L84.02405175041856,6.870249551528146" fill="orange" fill-opacity="0.6" stroke="black" stroke-width="1" />
<path d="M85.2859129117002,-3.1855557049335403 L84.61369541616685,-4.5557938532352695 L84.02405175041856,-6.870249551528146" fill="blue" fill-opacity="0.6" stroke="black" stroke-width="1" />
<path d="M84.61369541616685,4.5557938532352695 L84.02405175041856,6.870249551528146 L82.64591198036611,7.0349423584060595" fill="pink" fill-opacity="0.6" stroke="black" stroke-width="1" />
<path d="M84.61369541616685,-4.5557938532352695 L84.02405175041856,-6.870249551528146 L82.64591198036611,-7.0349423584060595" fill="orange" fill-opacity="0.6" stroke="black" stroke-width="1" />
<path d="M84.02405175041856,6.870249551528146 L82.64591198036611,7.0349423584060595 L81.4915465543822,7.833232052125879" fill="brown" fill-opacity="0.6" stroke="black" stroke-width="1" />
<path d="M84.02405175041856,-6.870249551528146 L82.64591198036611,-7.0349423584060595 L81.4915465543822,-7.833232052125879" fill="black" fill-opacity="0.6" stroke="black" stroke-width="1" />
<path d="M82.64591198036611,7.0349423584060595 L81.4915465543822,7.833232052125879 L78.96674754717748,8.902558610284872" fill="green" fill-opacity="0.6" stroke="black" stroke-width="1" />
<path d="M82.64591198036611,-7.0349423584060595 L81.4915465543822,-7.833232052125879 L78.96674754717748,-8.902558610284872" fill="red" fill-opacity="0.6" stroke="black" stroke-width="1" />
<path d="M81.4915465543822,7.833232052125879 L78.96674754717748,8.902558610284872 L77.0,-0.0" fill="brown" fill-opacity="0.6" stroke="black" stroke-width="1" />
<path d="M81.4915465543822,-7.833232052125879 L78.96674754717748,-8.902558610284872 L77.0,-0.0" fill="black" fill-opacity="0.6" stroke="black" stroke-width="1" />
<path d="M77.0,-0.0 L76.95097320673598,9.622705247321393 L76.10005894290799,12.13481601388645" fill="purple" fill-opacity="0.6" stroke="black" stroke-width="1" />
<path d="M77.0,-0.0 L76.95097320673598,-9.622705247321393 L76.10005894290799,-12.13481601388645" fill="black" fill-opacity="0.6" stroke="black" stroke-width="1" />
<path d="M76.95097320673598,9.622705247321393 L76.10005894290799,12.13481601388645 L72.9734296431603,14.443122161695774" fill="purple" fill-opacity="0.6" stroke="black" stroke-width="1" />
<path d="M76.95097320673598,-9.622705247321393 L76.10005894290799,-12.13481601388645 L72.9734296431603,-14.443122161695774" fill="orange" fill-opacity="0.6" stroke="black" stroke-width="1" />
<path d="M76.10005894290799,12.13481601388645 L72.9734296431603,14.443122161695774 L70.33755261527594,15.671711452997503" fill="brown" fill-opacity="0.6" stroke="black" stroke-width="1" />
<path d="M76.10005894290799,-12.13481601388645 L72.9734296431603,-14.443122161695774 L70.33755261527594,-15.671711452997503" fill="blue" fill-opacity="0.6" stroke="black" stroke-width="1" />
<path d="M72.9734296431603,14.443122161695774 L70.33755261527594,15.671711452997503 L69.35432276042555,18.802170886562436" fill="brown" fill-opacity="0.6" stroke="black" stroke-width="1" />
<path d="M72.9734296431603,-14.443122161695774 L70.33755261527594,-15.671711452997503 L69.35432276042555,-18.802170886562436" fill="orange" fill-opacity="0.6" stroke="black" stroke-width="1" />
<path d="M70.33755261527594,15.671711452997503 L69.35432276042555,18.802170886562436 L57.0,-0.0" fill="green" fill-opacity="0.6" stroke="black" stroke-width="1" />
<path d="M70.33755261527594,-15.671711452997503 L69.35432276042555,-18.802170886562436 L57.0,-0.0" fill="red" fill-opacity="0.6" stroke="black" stroke-width="1" />
<path d="M51.0,-0.0 L63.81748026933162,20.61867185657143 L61.73030344296387,20.902340159915084" fill="red" fill-opacity="0.6" stroke="black" stroke-width="1" />
<path d="M51.0,-0.0 L63.81748026933162,-20.61867185657143 L61.73030344296387,-20.902340159915084" fill="brown" fill-opacity="0.6" stroke="black" stroke-width="1" />
<path d="M63.81748026933162,20.61867185657143 L61.73030344296387,20.902340159915084 L50.0,25.0" fill="brown" fill-opacity="0.6" stroke="black" stroke-width="1" />
<path d="M63.81748026933162,-20.61867185657143 L61.73030344296387,-20.902340159915084 L50.0,-25.0" fill="green" fill-opacity="0.6" stroke="black" stroke-width="1" />
<path d="M50.0,25.0 L56.35669487883257,29.292921598667967 L54.249510620411954,30.471618722536668" fill="orange" fill-opacity="0.6" stroke="black" stroke-width="1" />
<path d="M50.0,-25.0 L56.35669487883257,-29.292921598667967 L54.249510620411954,-30.471618722536668" fill="blue" fill-opacity="0.6" stroke="black" stroke-width="1" />
<path d="M56.35669487883257,29.292921598667967 L54.249510620411954,30.471618722536668 L51.998179718896225,31.967917506960468" fill="orange" fill-opacity="0.6" stroke="black" stroke-width="1" />
<path d="M56.35669487883257,-29.292921598667967 L54.249510620411954,-30.471618722536668 L51.998179718896225,-31.967917506960468" fill="yellow" fill-opacity="0.6" stroke="black" stroke-width="1" />
<path d="M54.249510620411954,30.471618722536668 L51.998179718896225,31.967917506960468 L50.0,39.0" fill="green" fill-opacity="0.6" stroke="black" stroke-width="1" />
<path d="M54.249510620411954,-30.471618722536668 L51.998179718896225,-31.967917506960468 L50.0,-39.0" fill="black" fill-opacity="0.6" stroke="black" stroke-width="1" />
<path d="M50.0,47.0 L51.56543214022659,44.007290699225535 L55.0,45.0" fill="blue" fill-opacity="0.6" stroke="black" stroke-width="1" />
<path d="M50.0,-47.0 L51.56543214022659,-44.007290699225535 L55.0,-45.0" fill="purple" fill-opacity="0.6" stroke="black" stroke-width="1" />
<path d="M51.56543214022659,44.007290699225535 L55.0,45.0 L60.0,40.0" fill="purple" fill-opacity="0.6" stroke="black" stroke-width="1" />
<path d="M51.56543214022659,-44.007290699225535 L55.0,-45.0 L60.0,-40.0" fill="black" fill-opacity="0.6" stroke="black" stroke-width="1" />
<path d="M55.0,45.0 L60.0,40.0 L61.0,39.0" fill="purple" fill-opacity="0.6" stroke="black" stroke-width="1" />
<path d="M55.0,-45.0 L60.0,-40.0 L61.0,-39.0" fill="green" fill-opacity="0.6" stroke="black" stroke-width="1" />
<path d="M60.0,40.0 L61.0,39.0 L62.0,38.0" fill="red" fill-opacity="0.6" stroke="black" stroke-width="1" />
<path d="M60.0,-40.0 L61.0,-39.0 L62.0,-38.0" fill="brown" fill-opacity="0.6" stroke="black" stroke-width="1" />
<path d="M61.0,39.0 L62.0,38.0 L73.0,27.0" fill="orange" fill-opacity="0.6" stroke="black" stroke-width="1" />
<path d="M61.0,-39.0 L62.0,-38.0 L73.0,-27.0" fill="blue" fill-opacity="0.6" stroke="black" stroke-width="1" />
<path d="M62.0,38.0 L73.0,27.0 L91.36774992507479,2.7690879656608507" fill="yellow" fill-opacity="0.6" stroke="black" stroke-width="1" />
<path d="M62.0,-38.0 L73.0,-27.0 L91.36774992507479,-2.7690879656608507" fill="purple" fill-opacity="0.6" stroke="black" stroke-width="1" />
<path d="M73.0,27.0 L91.36774992507479,2.7690879656608507 L96.65644900979694,0.7038496629726567" fill="red" fill-opacity="0.6" stroke="black" stroke-width="1" />
<path d="M73.0,-27.0 L91.36774992507479,-2.7690879656608507 L96.65644900979694,-0.7038496629726567" fill="orange" fill-opacity="0.6" stroke="black" stroke-width="1" />
<path d="M91.36774992507479,2.7690879656608507 L96.65644900979694,0.7038496629726567 L98.19742951122129,0.09763768037571452" fill="pink" fill-opacity="0.6" stroke="black" stroke-width="1" />
<path d="M91.36774992507479,-2.7690879656608507 L96.65644900979694,-0.7038496629726567 L98.19742951122129,-0.09763768037571452" fill="yellow" fill-opacity="0.6" stroke="black" stroke-width="1" />
<path d="M96.65644900979694,0.7038496629726567 L98.19742951122129,0.09763768037571452 L100.0,-0.0" fill="yellow" fill-opacity="0.6" stroke="black" stroke-width="1" />
<path d="M96.65644900979694,-0.7038496629726567 L98.19742951122129,-0.09763768037571452 L100.0,-0.0" fill="green" fill-opacity="0.6" stroke="black" stroke-width="1" />
<path d="M0.0,-10.0 L3.1855557049335403,-14.714087088299806 L4.5557938532352695,-15.38630458383316" fill="brown" fill-opacity="0.6" stroke="black" stroke-width="1" />
<path d="M0.0,10.0 L3.1855557049335403,14.714087088299806 L4.5557938532352695,15.38630458383316" fill="purple" fill-opacity="0.6" stroke="black" stroke-width="1" />
<path d="M0.0,90.0 L3.1855557049335403,85.2859129117002 L4.5557938532352695,84.61369541616685" fill="yellow" fill-opacity="0.6" stroke="black" stroke-width="1" />
<path d="M0.0,-90.0 L3.1855557049335403,-85.2859129117002 L4.5557938532352695,-84.61369541616685" fill="green" fill-opacity="0.6" stroke="black" stroke-width="1" />
<path d="M3.1855557049335403,-14.714087088299806 L4.5557938532352695,-15.38630458383316 L6.870249551528146,-15.975948249581435" fill="black" fill-opacity="0.6" stroke="black" stroke-width="1" />
<path d="M3.1855557049335403,14.714087088299806 L4.5557938532352695,15.38630458383316 L6.870249551528146,15.975948249581435" fill="blue" fill-opacity="0.6" stroke="black" stroke-width="1" />
<path d="M3.1855557049335403,85.2859129117002 L4.5557938532352695,84.61369541616685 L6.870249551528146,84.02405175041856" fill="green" fill-opacity="0.6" stroke="black" stroke-width="1" />
<path d="M3.1855557049335403,-85.2859129117002 L4.5557938532352695,-84.61369541616685 L6.870249551528146,-84.02405175041856" fill="pink" fill-opacity="0.6" stroke="black" stroke-width="1" />
<path d="M4.5557938532352695,-15.38630458383316 L6.870249551528146,-15.975948249581435 L7.0349423584060595,-17.354088019633895" fill="brown" fill-opacity="0.6" stroke="black" stroke-width="1" />
<path d="M4.5557938532352695,15.38630458383316 L6.870249551528146,15.975948249581435 L7.0349423584060595,17.354088019633895" fill="purple" fill-opacity="0.6" stroke="black" stroke-width="1" />
<path d="M4.5557938532352695,84.61369541616685 L6.870249551528146,84.02405175041856 L7.0349423584060595,82.64591198036611" fill="orange" fill-opacity="0.6" stroke="black" stroke-width="1" />
<path d="M4.5557938532352695,-84.61369541616685 L6.870249551528146,-84.02405175041856 L7.0349423584060595,-82.64591198036611" fill="black" fill-opacity="0.6" stroke="black" stroke-width="1" />
<path d="M6.870249551528146,-15.975948249581435 L7.0349423584060595,-17.354088019633895 L7.833232052125879,-18.508453445617803" fill="brown" fill-opacity="0.6" stroke="black" stroke-width="1" />
<path d="M6.870249551528146,15.975948249581435 L7.0349423584060595,17.354088019633895 L7.833232052125879,18.508453445617803" fill="orange" fill-opacity="0.6" stroke="black" stroke-width="1" />
<path d="M6.870249551528146,84.02405175041856 L7.0349423584060595,82.64591198036611 L7.833232052125879,81.4915465543822" fill="blue" fill-opacity="0.6" stroke="black" stroke-width="1" />
<path d="M6.870249551528146,-84.02405175041856 L7.0349423584060595,-82.64591198036611 L7.833232052125879,-81.4915465543822" fill="yellow" fill-opacity="0.6" stroke="black" stroke-width="1" />
<path d="M7.0349423584060595,-17.354088019633895 L7.833232052125879,-18.508453445617803 L8.902558610284872,-21.03325245282252" fill="green" fill-opacity="0.6" stroke="black" stroke-width="1" />
<path d="M7.0349423584060595,17.354088019633895 L7.833232052125879,18.508453445617803 L8.902558610284872,21.03325245282252" fill="green" fill-opacity="0.6" stroke="black" stroke-width="1" />
<path d="M7.0349423584060595,82.64591198036611 L7.833232052125879,81.4915465543822 L8.902558610284872,78.96674754717748" fill="black" fill-opacity="0.6" stroke="black" stroke-width="1" />
<path d="M7.0349423584060595,-82.64591198036611 L7.833232052125879,-81.4915465543822 L8.902558610284872,-78.96674754717748" fill="yellow" fill-opacity="0.6" stroke="black" stroke-width="1" />
<path d="M7.833232052125879,-18.508453445617803 L8.902558610284872,-21.03325245282252 L0.0,-23.0" fill="orange" fill-opacity="0.6" stroke="black" stroke-width="1" />
<path d="M7.833232052125879,18.508453445617803 L8.902558610284872,21.03325245282252 L0.0,23.0" fill="blue" fill-opacity="0.6" stroke="black" stroke-width="1" />
<path d="M7.833232052125879,81.4915465543822 L8.902558610284872,78.96674754717748 L0.0,77.0" fill="orange" fill-opacity="0.6" stroke="black" stroke-width="1" />
<path d="M7.833232052125879,-81.4915465543822 L8.902558610284872,-78.96674754717748 L0.0,-77.0" fill="blue" fill-opacity="0.6" stroke="black" stroke-width="1" />
<path d="M0.0,-23.0 L9.622705247321393,-23.04902679326402 L12.13481601388645,-23.89994105709201" fill="orange" fill-opacity="0.6" stroke="black" stroke-width="1" />
<path d="M0.0,23.0 L9.622705247321393,23.04902679326402 L12.13481601388645,23.89994105709201" fill="purple" fill-opacity="0.6" stroke="black" stroke-width="1" />
<path d="M0.0,77.0 L9.622705247321393,76.95097320673598 L12.13481601388645,76.10005894290799" fill="orange" fill-opacity="0.6" stroke="black" stroke-width="1" />
<path d="M0.0,-77.0 L9.622705247321393,-76.95097320673598 L12.13481601388645,-76.10005894290799" fill="brown" fill-opacity="0.6" stroke="black" stroke-width="1" />
<path d="M9.622705247321393,-23.04902679326402 L12.13481601388645,-23.89994105709201 L14.443122161695774,-27.026570356839706" fill="blue" fill-opacity="0.6" stroke="black" stroke-width="1" />
<path d="M9.622705247321393,23.04902679326402 L12.13481601388645,23.89994105709201 L14.443122161695774,27.026570356839706" fill="green" fill-opacity="0.6" stroke="black" stroke-width="1" />
<path d="M9.622705247321393,76.95097320673598 L12.13481601388645,76.10005894290799 L14.443122161695774,72.9734296431603" fill="red" fill-opacity="0.6" stroke="black" stroke-width="1" />
<path d="M9.622705247321393,-76.95097320673598 L12.13481601388645,-76.10005894290799 L14.443122161695774,-72.9734296431603" fill="black" fill-opacity="0.6" stroke="black" stroke-width="1" />
<path d="M12.13481601388645,-23.89994105709201 L14.443122161695774,-27.026570356839706 L15.671711452997503,-29.662447384724054" fill="black" fill-opacity="0.6" stroke="black" stroke-width="1" />
<path d="M12.13481601388645,23.89994105709201 L14.443122161695774,27.026570356839706 L15.671711452997503,29.662447384724054" fill="green" fill-opacity="0.6" stroke="black" stroke-width="1" />
<path d="M12.13481601388645,76.10005894290799 L14.443122161695774,72.9734296431603 L15.671711452997503,70.33755261527594" fill="brown" fill-opacity="0.6" stroke="black" stroke-width="1" />
<path d="M12.13481601388645,-76.10005894290799 L14.443122161695774,-72.9734296431603 L15.671711452997503,-70.33755261527594" fill="black" fill-opacity="0.6" stroke="black" stroke-width="1" />
<path d="M14.443122161695774,-27.026570356839706 L15.671711452997503,-29.662447384724054 L18.802170886562436,-30.64567723957445" fill="green" fill-opacity="0.6" stroke="black" stroke-width="1" />
<path d="M14.443122161695774,27.026570356839706 L15.671711452997503,29.662447384724054 L18.802170886562436,30.64567723957445" fill="black" fill-opacity="0.6" stroke="black" stroke-width="1" />
<path d="M14.443122161695774,72.9734296431603 L15.671711452997503,70.33755261527594 L18.802170886562436,69.35432276042555" fill="pink" fill-opacity="0.6" stroke="black" stroke-width="1" />
<path d="M14.443122161695774,-72.9734296431603 L15.671711452997503,-70.33755261527594 L18.802170886562436,-69.35432276042555" fill="brown" fill-opacity="0.6" stroke="black" stroke-width="1" />
<path d="M15.671711452997503,-29.662447384724054 L18.802170886562436,-30.64567723957445 L0.0,-43.0" fill="brown" fill-opacity="0.6" stroke="black" stroke-width="1" />
<path d="M15.671711452997503,29.662447384724054 L18.802170886562436,30.64567723957445 L0.0,43.0" fill="black" fill-opacity="0.6" stroke="black" stroke-width="1" />
<path d="M15.671711452997503,70.33755261527594 L18.802170886562436,69.35432276042555 L0.0,57.0" fill="yellow" fill-opacity="0.6" stroke="black" stroke-width="1" />
<path d="M15.671711452997503,-70.33755261527594 L18.802170886562436,-69.35432276042555 L0.0,-57.0" fill="brown" fill-opacity="0.6" stroke="black" stroke-width="1" />
<path d="M0.0,-49.0 L20.61867185657143,-36.18251973066838 L20.902340159915084,-38.26969655703613" fill="blue" fill-opacity="0.6" stroke="black" stroke-width="1" />
<path d="M0.0,49.0 L20.61867185657143,36.18251973066838 L20.902340159915084,38.26969655703613" fill="yellow" fill-opacity="0.6" stroke="black" stroke-width="1" />
<path d="M0.0,51.0 L20.61867185657143,63.81748026933162 L20.902340159915084,61.73030344296387" fill="purple" fill-opacity="0.6" stroke="black" stroke-width="1" />
<path d="M0.0,-51.0 L20.61867185657143,-63.81748026933162 L20.902340159915084,-61.73030344296387" fill="red" fill-opacity="0.6" stroke="black" stroke-width="1" />
<path d="M20.61867185657143,-36.18251973066838 L20.902340159915084,-38.26969655703613 L25.0,-50.0" fill="pink" fill-opacity="0.6" stroke="black" stroke-width="1" />
<path d="M20.61867185657143,36.18251973066838 L20.902340159915084,38.26969655703613 L25.0,50.0" fill="purple" fill-opacity="0.6" stroke="black" stroke-width="1" />
<path d="M20.61867185657143,63.81748026933162 L20.902340159915084,61.73030344296387 L25.0,50.0" fill="purple" fill-opacity="0.6" stroke="black" stroke-width="1" />
<path d="M20.61867185657143,-63.81748026933162 L20.902340159915084,-61.73030344296387 L25.0,-50.0" fill="green" fill-opacity="0.6" stroke="black" stroke-width="1" />
<path d="M25.0,-50.0 L29.292921598667967,-43.64330512116743 L30.471618722536668,-45.750489379588046" fill="black" fill-opacity="0.6" stroke="black" stroke-width="1" />
<path d="M25.0,50.0 L29.292921598667967,43.64330512116743 L30.471618722536668,45.750489379588046" fill="orange" fill-opacity="0.6" stroke="black" stroke-width="1" />
<path d="M25.0,50.0 L29.292921598667967,56.35669487883257 L30.471618722536668,54.249510620411954" fill="yellow" fill-opacity="0.6" stroke="black" stroke-width="1" />
<path d="M25.0,-50.0 L29.292921598667967,-56.35669487883257 L30.471618722536668,-54.249510620411954" fill="green" fill-opacity="0.6" stroke="black" stroke-width="1" />
<path d="M29.292921598667967,-43.64330512116743 L30.471618722536668,-45.750489379588046 L31.967917506960468,-48.001820281103775" fill="black" fill-opacity="0.6" stroke="black" stroke-width="1" />
<path d="M29.292921598667967,43.64330512116743 L30.471618722536668,45.750489379588046 L31.967917506960468,48.001820281103775" fill="red" fill-opacity="0.6" stroke="black" stroke-width="1" />
<path d="M29.292921598667967,56.35669487883257 L30.471618722536668,54.249510620411954 L31.967917506960468,51.998179718896225" fill="brown" fill-opacity="0.6" stroke="black" stroke-width="1" />
<path d="M29.292921598667967,-56.35669487883257 L30.471618722536668,-54.249510620411954 L31.967917506960468,-51.998179718896225" fill="black" fill-opacity="0.6" stroke="black" stroke-width="1" />
<path d="M30.471618722536668,-45.750489379588046 L31.967917506960468,-48.001820281103775 L39.0,-50.0" fill="brown" fill-opacity="0.6" stroke="black" stroke-width="1" />
<path d="M30.471618722536668,45.750489379588046 L31.967917506960468,48.001820281103775 L39.0,50.0" fill="blue" fill-opacity="0.6" stroke="black" stroke-width="1" />
<path d="M30.471618722536668,54.249510620411954 L31.967917506960468,51.998179718896225 L39.0,50.0" fill="pink" fill-opacity="0.6" stroke="black" stroke-width="1" />
<path d="M30.471618722536668,-54.249510620411954 L31.967917506960468,-51.998179718896225 L39.0,-50.0" fill="pink" fill-opacity="0.6" stroke="black" stroke-width="1" />
<path d="M47.0,-50.0 L44.007290699225535,-48.43456785977341 L45.0,-45.0" fill="green" fill-opacity="0.6" stroke="black" stroke-width="1" />
<path d="M47.0,50.0 L44.007290699225535,48.43456785977341 L45.0,45.0" fill="brown" fill-opacity="0.6" stroke="black" stroke-width="1" />
<path d="M47.0,50.0 L44.007290699225535,51.56543214022659 L45.0,55.0" fill="yellow" fill-opacity="0.6" stroke="black" stroke-width="1" />
<path d="M47.0,-50.0 L44.007290699225535,-51.56543214022659 L45.0,-55.0" fill="orange" fill-opacity="0.6" stroke="black" stroke-width="1" />
<path d="M27.0,-27.0 L2.7690879656608507,-8.632250074925208 L0.7038496629726567,-3.343550990203065" fill="black" fill-opacity="0.6" stroke="black" stroke-width="1" />
<path d="M27.0,27.0 L2.7690879656608507,8.632250074925208 L0.7038496629726567,3.343550990203065" fill="brown" fill-opacity="0.6" stroke="black" stroke-width="1" />
<path d="M27.0,73.0 L2.7690879656608507,91.36774992507479 L0.7038496629726567,96.65644900979694" fill="purple" fill-opacity="0.6" stroke="black" stroke-width="1" />
<path d="M27.0,-73.0 L2.7690879656608507,-91.36774992507479 L0.7038496629726567,-96.65644900979694" fill="blue" fill-opacity="0.6" stroke="black" stroke-width="1" />
<path d="M2.7690879656608507,-8.632250074925208 L0.7038496629726567,-3.343550990203065 L0.09763768037571452,-1.8025704887787097" fill="brown" fill-opacity="0.6" stroke="black" stroke-width="1" />
<path d="M2.7690879656608507,8.632250074925208 L0.7038496629726567,3.343550990203065 L0.09763768037571452,1.8025704887787097" fill="yellow" fill-opacity="0.6" stroke="black" stroke-width="1" />
<path d="M2.7690879656608507,91.36774992507479 L0.7038496629726567,96.65644900979694 L0.09763768037571452,98.19742951122129" fill="black" fill-opacity="0.6" stroke="black" stroke-width="1" />
<path d="M2.7690879656608507,-91.36774992507479 L0.7038496629726567,-96.65644900979694 L0.09763768037571452,-98.19742951122129" fill="purple" fill-opacity="0.6" stroke="black" stroke-width="1" />
<path d="M0.7038496629726567,-3.343550990203065 L0.09763768037571452,-1.8025704887787097 L0.0,-0.0" fill="green" fill-opacity="0.6" stroke="black" stroke-width="1" />
<path d="M0.7038496629726567,3.343550990203065 L0.09763768037571452,1.8025704887787097 L0.0,-0.0" fill="orange" fill-opacity="0.6" stroke="black" stroke-width="1" />
<path d="M0.7038496629726567,96.65644900979694 L0.09763768037571452,98.19742951122129 L0.0,100.0" fill="red" fill-opacity="0.6" stroke="black" stroke-width="1" />
<path d="M0.7038496629726567,-96.65644900979694 L0.09763768037571452,-98.19742951122129 L0.0,-100.0" fill="purple" fill-opacity="0.6" stroke="black" stroke-width="1" />
<path d="M0.0,90.0 L-3.1855557049335403,85.2859129117002 L-4.5557938532352695,84.61369541616683" fill="orange" fill-opacity="0.6" stroke="black" stroke-width="1" />
<path d="M0.0,-10.0 L-3.1855557049335403,-14.714087088299806 L-4.5557938532352695,-15.38630458383316" fill="blue" fill-opacity="0.6" stroke="black" stroke-width="1" />
<path d="M0.0,10.0 L-3.1855557049335403,14.714087088299806 L-4.5557938532352695,15.386304583833166" fill="pink" fill-opacity="0.6" stroke="black" stroke-width="1" />
<path d="M0.0,-90.0 L-3.1855557049335403,-85.2859129117002 L-4.5557938532352695,-84.61369541616685" fill="blue" fill-opacity="0.6" stroke="black" stroke-width="1" />
<path d="M-3.1855557049335403,85.2859129117002 L-4.5557938532352695,84.61369541616683 L-6.870249551528146,84.02405175041856" fill="black" fill-opacity="0.6" stroke="black" stroke-width="1" />
<path d="M-3.1855557049335403,-14.714087088299806 L-4.5557938532352695,-15.38630458383316 L-6.870249551528146,-15.975948249581435" fill="yellow" fill-opacity="0.6" stroke="black" stroke-width="1" />
<path d="M-3.1855557049335403,14.714087088299806 L-4.5557938532352695,15.386304583833166 L-6.870249551528146,15.975948249581435" fill="black" fill-opacity="0.6" stroke="black" stroke-width="1" />
<path d="M-3.1855557049335403,-85.2859129117002 L-4.5557938532352695,-84.61369541616685 L-6.870249551528146,-84.02405175041856" fill="black" fill-opacity="0.6" stroke="black" stroke-width="1" />
<path d="M-4.5557938532352695,84.61369541616683 L-6.870249551528146,84.02405175041856 L-7.0349423584060595,82.64591198036611" fill="yellow" fill-opacity="0.6" stroke="black" stroke-width="1" />
<path d="M-4.5557938532352695,-15.38630458383316 L-6.870249551528146,-15.975948249581435 L-7.0349423584060595,-17.354088019633895" fill="brown" fill-opacity="0.6" stroke="black" stroke-width="1" />
<path d="M-4.5557938532352695,15.386304583833166 L-6.870249551528146,15.975948249581435 L-7.0349423584060595,17.354088019633892" fill="purple" fill-opacity="0.6" stroke="black" stroke-width="1" />
<path d="M-4.5557938532352695,-84.61369541616685 L-6.870249551528146,-84.02405175041856 L-7.0349423584060595,-82.64591198036611" fill="brown" fill-opacity="0.6" stroke="black" stroke-width="1" />
<path d="M-6.870249551528146,84.02405175041856 L-7.0349423584060595,82.64591198036611 L-7.833232052125879,81.4915465543822" fill="yellow" fill-opacity="0.6" stroke="black" stroke-width="1" />
<path d="M-6.870249551528146,-15.975948249581435 L-7.0349423584060595,-17.354088019633895 L-7.833232052125879,-18.508453445617803" fill="red" fill-opacity="0.6" stroke="black" stroke-width="1" />
<path d="M-6.870249551528146,15.975948249581435 L-7.0349423584060595,17.354088019633892 L-7.833232052125879,18.508453445617803" fill="pink" fill-opacity="0.6" stroke="black" stroke-width="1" />
<path d="M-6.870249551528146,-84.02405175041856 L-7.0349423584060595,-82.64591198036611 L-7.833232052125879,-81.4915465543822" fill="pink" fill-opacity="0.6" stroke="black" stroke-width="1" />
<path d="M-7.0349423584060595,82.64591198036611 L-7.833232052125879,81.4915465543822 L-8.902558610284872,78.96674754717748" fill="blue" fill-opacity="0.6" stroke="black" stroke-width="1" />
<path d="M-7.0349423584060595,-17.354088019633895 L-7.833232052125879,-18.508453445617803 L-8.902558610284872,-21.03325245282252" fill="yellow" fill-opacity="0.6" stroke="black" stroke-width="1" />
<path d="M-7.0349423584060595,17.354088019633892 L-7.833232052125879,18.508453445617803 L-8.902558610284872,21.033252452822524" fill="pink" fill-opacity="0.6" stroke="black" stroke-width="1" />
<path d="M-7.0349423584060595,-82.64591198036611 L-7.833232052125879,-81.4915465543822 L-8.902558610284872,-78.96674754717748" fill="blue" fill-opacity="0.6" stroke="black" stroke-width="1" />
<path d="M-7.833232052125879,81.4915465543822 L-8.902558610284872,78.96674754717748 L0.0,77.0" fill="blue" fill-opacity="0.6" stroke="black" stroke-width="1" />
<path d="M-7.833232052125879,-18.508453445617803 L-8.902558610284872,-21.03325245282252 L0.0,-23.0" fill="yellow" fill-opacity="0.6" stroke="black" stroke-width="1" />
<path d="M-7.833232052125879,18.508453445617803 L-8.902558610284872,21.033252452822524 L0.0,23.0" fill="yellow" fill-opacity="0.6" stroke="black" stroke-width="1" />
<path d="M-7.833232052125879,-81.4915465543822 L-8.902558610284872,-78.96674754717748 L0.0,-77.0" fill="orange" fill-opacity="0.6" stroke="black" stroke-width="1" />
<path d="M0.0,77.0 L-9.622705247321393,76.95097320673598 L-12.13481601388645,76.10005894290799" fill="black" fill-opacity="0.6" stroke="black" stroke-width="1" />
<path d="M0.0,-23.0 L-9.622705247321393,-23.04902679326402 L-12.13481601388645,-23.89994105709201" fill="pink" fill-opacity="0.6" stroke="black" stroke-width="1" />
<path d="M0.0,23.0 L-9.622705247321393,23.04902679326402 L-12.13481601388645,23.899941057092008" fill="yellow" fill-opacity="0.6" stroke="black" stroke-width="1" />
<path d="M0.0,-77.0 L-9.622705247321393,-76.95097320673598 L-12.13481601388645,-76.10005894290799" fill="blue" fill-opacity="0.6" stroke="black" stroke-width="1" />
<path d="M-9.622705247321393,76.95097320673598 L-12.13481601388645,76.10005894290799 L-14.443122161695774,72.9734296431603" fill="pink" fill-opacity="0.6" stroke="black" stroke-width="1" />
<path d="M-9.622705247321393,-23.04902679326402 L-12.13481601388645,-23.89994105709201 L-14.443122161695774,-27.026570356839706" fill="black" fill-opacity="0.6" stroke="black" stroke-width="1" />
<path d="M-9.622705247321393,23.04902679326402 L-12.13481601388645,23.899941057092008 L-14.443122161695774,27.0265703568397" fill="yellow" fill-opacity="0.6" stroke="black" stroke-width="1" />
<path d="M-9.622705247321393,-76.95097320673598 L-12.13481601388645,-76.10005894290799 L-14.443122161695774,-72.9734296431603" fill="red" fill-opacity="0.6" stroke="black" stroke-width="1" />
<path d="M-12.13481601388645,76.10005894290799 L-14.443122161695774,72.9734296431603 L-15.671711452997503,70.33755261527594" fill="green" fill-opacity="0.6" stroke="black" stroke-width="1" />
<path d="M-12.13481601388645,-23.89994105709201 L-14.443122161695774,-27.026570356839706 L-15.671711452997503,-29.662447384724054" fill="blue" fill-opacity="0.6" stroke="black" stroke-width="1" />
<path d="M-12.13481601388645,23.899941057092008 L-14.443122161695774,27.0265703568397 L-15.671711452997503,29.66244738472406" fill="green" fill-opacity="0.6" stroke="black" stroke-width="1" />
<path d="M-12.13481601388645,-76.10005894290799 L-14.443122161695774,-72.9734296431603 L-15.671711452997503,-70.33755261527594" fill="red" fill-opacity="0.6" stroke="black" stroke-width="1" />
<path d="M-14.443122161695774,72.9734296431603 L-15.671711452997503,70.33755261527594 L-18.802170886562436,69.35432276042555" fill="yellow" fill-opacity="0.6" stroke="black" stroke-width="1" />
<path d="M-14.443122161695774,-27.026570356839706 L-15.671711452997503,-29.662447384724054 L-18.802170886562436,-30.64567723957445" fill="red" fill-opacity="0.6" stroke="black" stroke-width="1" />
<path d="M-14.443122161695774,27.0265703568397 L-15.671711452997503,29.66244738472406 L-18.802170886562436,30.645677239574454" fill="orange" fill-opacity="0.6" stroke="black" stroke-width="1" />
<path d="M-14.443122161695774,-72.9734296431603 L-15.671711452997503,-70.33755261527594 L-18.802170886562436,-69.35432276042555" fill="blue" fill-opacity="0.6" stroke="black" stroke-width="1" />
<path d="M-15.671711452997503,70.33755261527594 L-18.802170886562436,69.35432276042555 L0.0,57.0" fill="orange" fill-opacity="0.6" stroke="black" stroke-width="1" />
<path d="M-15.671711452997503,-29.662447384724054 L-18.802170886562436,-30.64567723957445 L0.0,-43.0" fill="red" fill-opacity="0.6" stroke="black" stroke-width="1" />
<path d="M-15.671711452997503,29.66244738472406 L-18.802170886562436,30.645677239574454 L0.0,43.0" fill="pink" fill-opacity="0.6" stroke="black" stroke-width="1" />
<path d="M-15.671711452997503,-70.33755261527594 L-18.802170886562436,-69.35432276042555 L0.0,-57.0" fill="orange" fill-opacity="0.6" stroke="black" stroke-width="1" />
<path d="M0.0,51.0 L-20.61867185657143,63.81748026933162 L-20.902340159915084,61.73030344296387" fill="brown" fill-opacity="0.6" stroke="black" stroke-width="1" />
<path d="M0.0,-49.0 L-20.61867185657143,-36.18251973066838 L-20.902340159915084,-38.26969655703613" fill="blue" fill-opacity="0.6" stroke="black" stroke-width="1" />
<path d="M0.0,49.0 L-20.61867185657143,36.18251973066838 L-20.902340159915084,38.26969655703613" fill="yellow" fill-opacity="0.6" stroke="black" stroke-width="1" />
<path d="M0.0,-51.0 L-20.61867185657143,-63.81748026933162 L-20.902340159915084,-61.73030344296387" fill="purple" fill-opacity="0.6" stroke="black" stroke-width="1" />
<path d="M-20.61867185657143,63.81748026933162 L-20.902340159915084,61.73030344296387 L-25.0,50.0" fill="red" fill-opacity="0.6" stroke="black" stroke-width="1" />
<path d="M-20.61867185657143,-36.18251973066838 L-20.902340159915084,-38.26969655703613 L-25.0,-50.0" fill="pink" fill-opacity="0.6" stroke="black" stroke-width="1" />
<path d="M-20.61867185657143,36.18251973066838 L-20.902340159915084,38.26969655703613 L-25.0,50.0" fill="orange" fill-opacity="0.6" stroke="black" stroke-width="1" />
<path d="M-20.61867185657143,-63.81748026933162 L-20.902340159915084,-61.73030344296387 L-25.0,-50.0" fill="yellow" fill-opacity="0.6" stroke="black" stroke-width="1" />
<path d="M-25.0,50.0 L-29.292921598667967,56.35669487883257 L-30.471618722536668,54.249510620411954" fill="pink" fill-opacity="0.6" stroke="black" stroke-width="1" />
<path d="M-25.0,-50.0 L-29.292921598667967,-43.64330512116743 L-30.471618722536668,-45.750489379588046" fill="yellow" fill-opacity="0.6" stroke="black" stroke-width="1" />
<path d="M-25.0,50.0 L-29.292921598667967,43.64330512116743 L-30.471618722536668,45.750489379588046" fill="green" fill-opacity="0.6" stroke="black" stroke-width="1" />
<path d="M-25.0,-50.0 L-29.292921598667967,-56.35669487883257 L-30.471618722536668,-54.249510620411954" fill="green" fill-opacity="0.6" stroke="black" stroke-width="1" />
<path d="M-29.292921598667967,56.35669487883257 L-30.471618722536668,54.249510620411954 L-31.967917506960468,51.998179718896225" fill="blue" fill-opacity="0.6" stroke="black" stroke-width="1" />
<path d="M-29.292921598667967,-43.64330512116743 L-30.471618722536668,-45.750489379588046 L-31.967917506960468,-48.001820281103775" fill="blue" fill-opacity="0.6" stroke="black" stroke-width="1" />
<path d="M-29.292921598667967,43.64330512116743 L-30.471618722536668,45.750489379588046 L-31.967917506960468,48.001820281103775" fill="green" fill-opacity="0.6" stroke="black" stroke-width="1" />
<path d="M-29.292921598667967,-56.35669487883257 L-30.471618722536668,-54.249510620411954 L-31.967917506960468,-51.998179718896225" fill="green" fill-opacity="0.6" stroke="black" stroke-width="1" />
<path d="M-30.471618722536668,54.249510620411954 L-31.967917506960468,51.998179718896225 L-39.0,50.0" fill="orange" fill-opacity="0.6" stroke="black" stroke-width="1" />
<path d="M-30.471618722536668,-45.750489379588046 L-31.967917506960468,-48.001820281103775 L-39.0,-50.0" fill="purple" fill-opacity="0.6" stroke="black" stroke-width="1" />
<path d="M-30.471618722536668,45.750489379588046 L-31.967917506960468,48.001820281103775 L-39.0,50.0" fill="orange" fill-opacity="0.6" stroke="black" stroke-width="1" />
<path d="M-30.471618722536668,-54.249510620411954 L-31.967917506960468,-51.998179718896225 L-39.0,-50.0" fill="black" fill-opacity="0.6" stroke="black" stroke-width="1" />
<path d="M-47.0,50.0 L-44.007290699225535,51.56543214022659 L-45.0,55.0" fill="yellow" fill-opacity="0.6" stroke="black" stroke-width="1" />
<path d="M-47.0,-50.0 L-44.007290699225535,-48.43456785977341 L-45.0,-45.0" fill="pink" fill-opacity="0.6" stroke="black" stroke-width="1" />
<path d="M-47.0,50.0 L-44.007290699225535,48.43456785977341 L-45.0,45.0" fill="blue" fill-opacity="0.6" stroke="black" stroke-width="1" />
<path d="M-47.0,-50.0 L-44.007290699225535,-51.56543214022659 L-45.0,-55.0" fill="brown" fill-opacity="0.6" stroke="black" stroke-width="1" />
<path d="M-27.0,73.0 L-2.7690879656608507,91.36774992507479 L-0.7038496629726567,96.65644900979693" fill="yellow" fill-opacity="0.6" stroke="black" stroke-width="1" />
<path d="M-27.0,-27.0 L-2.7690879656608507,-8.632250074925208 L-0.7038496629726567,-3.343550990203065" fill="blue" fill-opacity="0.6" stroke="black" stroke-width="1" />
<path d="M-27.0,27.0 L-2.7690879656608507,8.63225007492521 L-0.7038496629726567,3.3435509902030702" fill="purple" fill-opacity="0.6" stroke="black" stroke-width="1" />
<path d="M-27.0,-73.0 L-2.7690879656608507,-91.36774992507479 L-0.7038496629726567,-96.65644900979694" fill="black" fill-opacity="0.6" stroke="black" stroke-width="1" />
<path d="M-2.7690879656608507,91.36774992507479 L-0.7038496629726567,96.65644900979693 L-0.09763768037571452,98.19742951122129" fill="red" fill-opacity="0.6" stroke="black" stroke-width="1" />
<path d="M-2.7690879656608507,-8.632250074925208 L-0.7038496629726567,-3.343550990203065 L-0.09763768037571452,-1.8025704887787097" fill="pink" fill-opacity="0.6" stroke="black" stroke-width="1" />
<path d="M-2.7690879656608507,8.63225007492521 L-0.7038496629726567,3.3435509902030702 L-0.09763768037571452,1.8025704887787128" fill="pink" fill-opacity="0.6" stroke="black" stroke-width="1" />
<path d="M-2.7690879656608507,-91.36774992507479 L-0.7038496629726567,-96.65644900979694 L-0.09763768037571452,-98.19742951122129" fill="black" fill-opacity="0.6" stroke="black" stroke-width="1" />
<path d="M-0.7038496629726567,96.65644900979693 L-0.09763768037571452,98.19742951122129 L0.0,100.0" fill="red" fill-opacity="0.6" stroke="black" stroke-width="1" />
<path d="M-0.7038496629726567,-3.343550990203065 L-0.09763768037571452,-1.8025704887787097 L0.0,-0.0" fill="red" fill-opacity="0.6" stroke="black" stroke-width="1" />
<path d="M-0.7038496629726567,3.3435509902030702 L-0.09763768037571452,1.8025704887787128 L0.0,-0.0" fill="pink" fill-opacity="0.6" stroke="black" stroke-width="1" />
<path d="M-0.7038496629726567,-96.65644900979694 L-0.09763768037571452,-98.19742951122129 L0.0,-100.0" fill="red" fill-opacity="0.6" stroke="black" stroke-width="1" />
<path d="M-90.0,-0.0 L-85.2859129117002,-3.1855557049335403 L-84.61369541616685,-4.5557938532352695" fill="green" fill-opacity="0.6" stroke="black" stroke-width="1" />
<path d="M-90.0,-0.0 L-85.2859129117002,3.1855557049335403 L-84.61369541616685,4.5557938532352695" fill="orange" fill-opacity="0.6" stroke="black" stroke-width="1" />
<path d="M-85.2859129117002,-3.1855557049335403 L-84.61369541616685,-4.5557938532352695 L-84.02405175041856,-6.870249551528146" fill="black" fill-opacity="0.6" stroke="black" stroke-width="1" />
<path d="M-85.2859129117002,3.1855557049335403 L-84.61369541616685,4.5557938532352695 L-84.02405175041856,6.870249551528146" fill="pink" fill-opacity="0.6" stroke="black" stroke-width="1" />
<path d="M-84.61369541616685,-4.5557938532352695 L-84.02405175041856,-6.870249551528146 L-82.64591198036611,-7.0349423584060595" fill="yellow" fill-opacity="0.6" stroke="black" stroke-width="1" />
<path d="M-84.61369541616685,4.5557938532352695 L-84.02405175041856,6.870249551528146 L-82.64591198036611,7.0349423584060595" fill="black" fill-opacity="0.6" stroke="black" stroke-width="1" />
<path d="M-84.02405175041856,-6.870249551528146 L-82.64591198036611,-7.0349423584060595 L-81.4915465543822,-7.833232052125879" fill="pink" fill-opacity="0.6" stroke="black" stroke-width="1" />
<path d="M-84.02405175041856,6.870249551528146 L-82.64591198036611,7.0349423584060595 L-81.4915465543822,7.833232052125879" fill="purple" fill-opacity="0.6" stroke="black" stroke-width="1" />
<path d="M-82.64591198036611,-7.0349423584060595 L-81.4915465543822,-7.833232052125879 L-78.96674754717748,-8.902558610284872" fill="yellow" fill-opacity="0.6" stroke="black" stroke-width="1" />
<path d="M-82.64591198036611,7.0349423584060595 L-81.4915465543822,7.833232052125879 L-78.96674754717748,8.902558610284872" fill="red" fill-opacity="0.6" stroke="black" stroke-width="1" />
<path d="M-81.4915465543822,-7.833232052125879 L-78.96674754717748,-8.902558610284872 L-77.0,-0.0" fill="purple" fill-opacity="0.6" stroke="black" stroke-width="1" />
<path d="M-81.4915465543822,7.833232052125879 L-78.96674754717748,8.902558610284872 L-77.0,-0.0" fill="purple" fill-opacity="0.6" stroke="black" stroke-width="1" />
<path d="M-77.0,-0.0 L-76.95097320673598,-9.622705247321393 L-76.10005894290799,-12.13481601388645" fill="pink" fill-opacity="0.6" stroke="black" stroke-width="1" />
<path d="M-77.0,-0.0 L-76.95097320673598,9.622705247321393 L-76.10005894290799,12.13481601388645" fill="blue" fill-opacity="0.6" stroke="black" stroke-width="1" />
<path d="M-76.95097320673598,-9.622705247321393 L-76.10005894290799,-12.13481601388645 L-72.9734296431603,-14.443122161695774" fill="brown" fill-opacity="0.6" stroke="black" stroke-width="1" />
<path d="M-76.95097320673598,9.622705247321393 L-76.10005894290799,12.13481601388645 L-72.9734296431603,14.443122161695774" fill="pink" fill-opacity="0.6" stroke="black" stroke-width="1" />
<path d="M-76.10005894290799,-12.13481601388645 L-72.9734296431603,-14.443122161695774 L-70.33755261527594,-15.671711452997503" fill="blue" fill-opacity="0.6" stroke="black" stroke-width="1" />
<path d="M-76.10005894290799,12.13481601388645 L-72.9734296431603,14.443122161695774 L-70.33755261527594,15.671711452997503" fill="purple" fill-opacity="0.6" stroke="black" stroke-width="1" />
<path d="M-72.9734296431603,-14.443122161695774 L-70.33755261527594,-15.671711452997503 L-69.35432276042555,-18.802170886562436" fill="purple" fill-opacity="0.6" stroke="black" stroke-width="1" />
<path d="M-72.9734296431603,14.443122161695774 L-70.33755261527594,15.671711452997503 L-69.35432276042555,18.802170886562436" fill="red" fill-opacity="0.6" stroke="black" stroke-width="1" />
<path d="M-70.33755261527594,-15.671711452997503 L-69.35432276042555,-18.802170886562436 L-57.0,-0.0" fill="red" fill-opacity="0.6" stroke="black" stroke-width="1" />
<path d="M-70.33755261527594,15.671711452997503 L-69.35432276042555,18.802170886562436 L-57.0,-0.0" fill="orange" fill-opacity="0.6" stroke="black" stroke-width="1" />
<path d="M-51.0,-0.0 L-63.81748026933162,-20.61867185657143 L-61.73030344296387,-20.902340159915084" fill="green" fill-opacity="0.6" stroke="black" stroke-width="1" />
<path d="M-51.0,-0.0 L-63.81748026933162,20.61867185657143 L-61.73030344296387,20.902340159915084" fill="pink" fill-opacity="0.6" stroke="black" stroke-width="1" />
<path d="M-63.81748026933162,-20.61867185657143 L-61.73030344296387,-20.902340159915084 L-50.0,-25.0" fill="pink" fill-opacity="0.6" stroke="black" stroke-width="1" />
<path d="M-63.81748026933162,20.61867185657143 L-61.73030344296387,20.902340159915084 L-50.0,25.0" fill="green" fill-opacity="0.6" stroke="black" stroke-width="1" />
<path d="M-50.0,-25.0 L-56.35669487883257,-29.292921598667967 L-54.249510620411954,-30.471618722536668" fill="pink" fill-opacity="0.6" stroke="black" stroke-width="1" />
<path d="M-50.0,25.0 L-56.35669487883257,29.292921598667967 L-54.249510620411954,30.471618722536668" fill="purple" fill-opacity="0.6" stroke="black" stroke-width="1" />
<path d="M-56.35669487883257,-29.292921598667967 L-54.249510620411954,-30.471618722536668 L-51.998179718896225,-31.967917506960468" fill="black" fill-opacity="0.6" stroke="black" stroke-width="1" />
<path d="M-56.35669487883257,29.292921598667967 L-54.249510620411954,30.471618722536668 L-51.998179718896225,31.967917506960468" fill="orange" fill-opacity="0.6" stroke="black" stroke-width="1" />
<path d="M-54.249510620411954,-30.471618722536668 L-51.998179718896225,-31.967917506960468 L-50.0,-39.0" fill="orange" fill-opacity="0.6" stroke="black" stroke-width="1" />
<path d="M-54.249510620411954,30.471618722536668 L-51.998179718896225,31.967917506960468 L-50.0,39.0" fill="orange" fill-opacity="0.6" stroke="black" stroke-width="1" />
<path d="M-50.0,-47.0 L-51.56543214022659,-44.007290699225535 L-55.0,-45.0" fill="pink" fill-opacity="0.6" stroke="black" stroke-width="1" />
<path d="M-50.0,47.0 L-51.56543214022659,44.007290699225535 L-55.0,45.0" fill="pink" fill-opacity="0.6" stroke="black" stroke-width="1" />
<path d="M-51.56543214022659,-44.007290699225535 L-55.0,-45.0 L-60.0,-40.0" fill="pink" fill-opacity="0.6" stroke="black" stroke-width="1" />
<path d="M-51.56543214022659,44.007290699225535 L-55.0,45.0 L-60.0,40.0" fill="brown" fill-opacity="0.6" stroke="black" stroke-width="1" />
<path d="M-55.0,-45.0 L-60.0,-40.0 L-61.0,-39.0" fill="brown" fill-opacity="0.6" stroke="black" stroke-width="1" />
<path d="M-55.0,45.0 L-60.0,40.0 L-61.0,39.0" fill="yellow" fill-opacity="0.6" stroke="black" stroke-width="1" />
<path d="M-60.0,-40.0 L-61.0,-39.0 L-62.0,-38.0" fill="blue" fill-opacity="0.6" stroke="black" stroke-width="1" />
<path d="M-60.0,40.0 L-61.0,39.0 L-62.0,38.0" fill="black" fill-opacity="0.6" stroke="black" stroke-width="1" />
<path d="M-61.0,-39.0 L-62.0,-38.0 L-73.0,-27.0" fill="orange" fill-opacity="0.6" stroke="black" stroke-width="1" />
<path d="M-61.0,39.0 L-62.0,38.0 L-73.0,27.0" fill="pink" fill-opacity="0.6" stroke="black" stroke-width="1" />
<path d="M-62.0,-38.0 L-73.0,-27.0 L-91.36774992507479,-2.7690879656608507" fill="green" fill-opacity="0.6" stroke="black" stroke-width="1" />
<path d="M-62.0,38.0 L-73.0,27.0 L-91.36774992507479,2.7690879656608507" fill="black" fill-opacity="0.6" stroke="black" stroke-width="1" />
<path d="M-73.0,-27.0 L-91.36774992507479,-2.7690879656608507 L-96.65644900979694,-0.7038496629726567" fill="yellow" fill-opacity="0.6" stroke="black" stroke-width="1" />
<path d="M-73.0,27.0 L-91.36774992507479,2.7690879656608507 L-96.65644900979694,0.7038496629726567" fill="green" fill-opacity="0.6" stroke="black" stroke-width="1" />
<path d="M-91.36774992507479,-2.7690879656608507 L-96.65644900979694,-0.7038496629726567 L-98.19742951122129,-0.09763768037571452" fill="red" fill-opacity="0.6" stroke="black" stroke-width="1" />
<path d="M-91.36774992507479,2.7690879656608507 L-96.65644900979694,0.7038496629726567 L-98.19742951122129,0.09763768037571452" fill="orange" fill-opacity="0.6" stroke="black" stroke-width="1" />
<path d="M-96.65644900979694,-0.7038496629726567 L-98.19742951122129,-0.09763768037571452 L-100.0,-0.0" fill="red" fill-opacity="0.6" stroke="black" stroke-width="1" />
<path d="M-96.65644900979694,0.7038496629726567 L-98.19742951122129,0.09763768037571452 L-100.0,-0.0" fill="orange" fill-opacity="0.6" stroke="black" stroke-width="1" />
</svg>