<?xml version="1.0" encoding="UTF-8"?>
<svg xmlns="http://www.w3.org/2000/svg" xmlns:xlink="http://www.w3.org/1999/xlink"
     width="250" height="250" viewBox="-125.0 -125.0 250 250">
<defs>
</defs>
<path d="M0.0,-0.0 L11.625933082566021,-3.1563138714413173 L15.712385804204331,-3.953284809446049" fill="brown" fill-opacity="0.6" stroke="black" stroke-width="1" />
<path d="M0.0,-0.0 L11.625933082566021,3.1563138714413173 L15.712385804204331,3.953284809446049" fill="brown" fill-opacity="0.6" stroke="black" stroke-width="1" />
<path d="M11.625933082566021,-3.1563138714413173 L15.712385804204331,-3.953284809446049 L17.82394315841223,-5.345838311653852" fill="pink" fill-opacity="0.6" stroke="black" stroke-width="1" />
<path d="M11.625933082566021,3.1563138714413173 L15.712385804204331,3.953284809446049 L17.82394315841223,5.345838311653852" fill="purple" fill-opacity="0.6" stroke="black" stroke-width="1" />
<path d="M15.712385804204331,-3.953284809446049 L17.82394315841223,-5.345838311653852 L18.93029627859962,-9.285228064942832" fill="green" fill-opacity="0.6" stroke="black" stroke-width="1" />
<path d="M15.712385804204331,3.953284809446049 L17.82394315841223,5.345838311653852 L18.93029627859962,9.285228064942832" fill="brown" fill-opacity="0.6" stroke="black" stroke-width="1" />
<path d="M17.82394315841223,-5.345838311653852 L18.93029627859962,-9.285228064942832 L20.0,-0.0" fill="yellow" fill-opacity="0.6" stroke="black" stroke-width="1" />
<path d="M17.82394315841223,5.345838311653852 L18.93029627859962,9.285228064942832 L20.0,-0.0" fill="purple" fill-opacity="0.6" stroke="black" stroke-width="1" />
<path d="M20.0,-0.0 L22.12566882023893,-9.827678586653002 L26.2622581814403,-11.819404559355151" fill="brown" fill-opacity="0.6" stroke="black" stroke-width="1" />
<path d="M20.0,-0.0 L22.12566882023893,9.827678586653002 L26.2622581814403,11.819404559355151" fill="red" fill-opacity="0.6" stroke="black" stroke-width="1" />
<path d="M22.12566882023893,-9.827678586653002 L26.2622581814403,-11.819404559355151 L27.0,-0.0" fill="blue" fill-opacity="0.6" stroke="black" stroke-width="1" />
<path d="M22.12566882023893,9.827678586653002 L26.2622581814403,11.819404559355151 L27.0,-0.0" fill="orange" fill-opacity="0.6" stroke="black" stroke-width="1" />
<path d="M27.0,-0.0 L32.7481997355622,-11.967114994037587 L40.0,-0.0" fill="pink" fill-opacity="0.6" stroke="black" stroke-width="1" />
<path d="M27.0,-0.0 L32.7481997355622,11.967114994037587 L40.0,-0.0" fill="orange" fill-opacity="0.6" stroke="black" stroke-width="1" />
<path d="M45.0,55.0 L40.0,60.0 L34.0,66.0" fill="green" fill-opacity="0.6" stroke="black" stroke-width="1" />
<path d="M45.0,-55.0 L40.0,-60.0 L34.0,-66.0" fill="blue" fill-opacity="0.6" stroke="black" stroke-width="1" />
<path d="M50.0,-9.0 L33.21753451838529,-20.515686167197284 L44.20004657710556,-32.717529026089124" fill="brown" fill-opacity="0.6" stroke="black" stroke-width="1" />
<path d="M50.0,9.0 L33.21753451838529,20.515686167197284 L44.20004657710556,32.717529026089124" fill="yellow" fill-opacity="0.6" stroke="black" stroke-width="1" />
<path d="M33.21753451838529,-20.515686167197284 L44.20004657710556,-32.717529026089124 L50.0,-35.0" fill="brown" fill-opacity="0.6" stroke="black" stroke-width="1" />
<path d="M33.21753451838529,20.515686167197284 L44.20004657710556,32.717529026089124 L50.0,35.0" fill="purple" fill-opacity="0.6" stroke="black" stroke-width="1" />
<path d="M50.0,-37.0 L48.48402020878258,-42.685826390903664 L45.0,-45.0" fill="brown" fill-opacity="0.6" stroke="black" stroke-width="1" />
<path d="M50.0,37.0 L48.48402020878258,42.685826390903664 L45.0,45.0" fill="pink" fill-opacity="0.6" stroke="black" stroke-width="1" />
<path d="M42.685826390903664,51.51597979121742 L45.0,55.0 L40.0,60.0" fill="yellow" fill-opacity="0.6" stroke="black" stroke-width="1" />
<path d="M42.685826390903664,-51.51597979121742 L45.0,-55.0 L40.0,-60.0" fill="orange" fill-opacity="0.6" stroke="black" stroke-width="1" />
<path d="M40.0,60.0 L34.0,66.0 L2.7034978093546416,89.86636206243641" fill="black" fill-opacity="0.6" stroke="black" stroke-width="1" />
<path d="M40.0,-60.0 L34.0,-66.0 L2.7034978093546416,-89.86636206243641" fill="pink" fill-opacity="0.6" stroke="black" stroke-width="1" />
<path d="M34.0,-34.0 L10.133637937563588,-2.7034978093546416 L8.209247421733018,-1.536971219994543" fill="blue" fill-opacity="0.6" stroke="black" stroke-width="1" />
<path d="M34.0,34.0 L10.133637937563588,2.7034978093546416 L8.209247421733018,1.536971219994543" fill="black" fill-opacity="0.6" stroke="black" stroke-width="1" />
<path d="M10.133637937563588,-2.7034978093546416 L8.209247421733018,-1.536971219994543 L7.942253264140053,-1.4357663977185298" fill="pink" fill-opacity="0.6" stroke="black" stroke-width="1" />
<path d="M10.133637937563588,2.7034978093546416 L8.209247421733018,1.536971219994543 L7.942253264140053,1.4357663977185298" fill="purple" fill-opacity="0.6" stroke="black" stroke-width="1" />
<path d="M8.209247421733018,-1.536971219994543 L7.942253264140053,-1.4357663977185298 L7.0,-7.0" fill="red" fill-opacity="0.6" stroke="black" stroke-width="1" />
<path d="M8.209247421733018,1.536971219994543 L7.942253264140053,1.4357663977185298 L7.0,7.0" fill="green" fill-opacity="0.6" stroke="black" stroke-width="1" />
<path d="M1.4357663977185298,92.05774673585995 L7.0,93.0 L5.0,95.0" fill="yellow" fill-opacity="0.6" stroke="black" stroke-width="1" />
<path d="M1.4357663977185298,-92.05774673585995 L7.0,-93.0 L5.0,-95.0" fill="green" fill-opacity="0.6" stroke="black" stroke-width="1" />
<path d="M7.0,93.0 L5.0,95.0 L0.5803039417185296,95.04928507062178" fill="purple" fill-opacity="0.6" stroke="black" stroke-width="1" />
<path d="M7.0,-93.0 L5.0,-95.0 L0.5803039417185296,-95.04928507062178" fill="black" fill-opacity="0.6" stroke="black" stroke-width="1" />
<path d="M5.0,-5.0 L4.9507149293782255,-0.5803039417185296 L0.0,-0.0" fill="purple" fill-opacity="0.6" stroke="black" stroke-width="1" />
<path d="M5.0,5.0 L4.9507149293782255,0.5803039417185296 L0.0,-0.0" fill="blue" fill-opacity="0.6" stroke="black" stroke-width="1" />
<path d="M0.0,-0.0 L-11.625933082566021,-3.1563138714413173 L-15.712385804204331,-3.953284809446049" fill="black" fill-opacity="0.6" stroke="black" stroke-width="1" />
<path d="M0.0,-0.0 L-11.625933082566021,3.1563138714413173 L-15.712385804204331,3.953284809446049" fill="blue" fill-opacity="0.6" stroke="black" stroke-width="1" />
<path d="M-11.625933082566021,-3.1563138714413173 L-15.712385804204331,-3.953284809446049 L-17.82394315841223,-5.345838311653852" fill="brown" fill-opacity="0.6" stroke="black" stroke-width="1" />
<path d="M-11.625933082566021,3.1563138714413173 L-15.712385804204331,3.953284809446049 L-17.82394315841223,5.345838311653852" fill="pink" fill-opacity="0.6" stroke="black" stroke-width="1" />
<path d="M-15.712385804204331,-3.953284809446049 L-17.82394315841223,-5.345838311653852 L-18.93029627859962,-9.285228064942832" fill="red" fill-opacity="0.6" stroke="black" stroke-width="1" />
<path d="M-15.712385804204331,3.953284809446049 L-17.82394315841223,5.345838311653852 L-18.93029627859962,9.285228064942832" fill="yellow" fill-opacity="0.6" stroke="black" stroke-width="1" />
<path d="M-17.82394315841223,-5.345838311653852 L-18.93029627859962,-9.285228064942832 L-20.0,-0.0" fill="yellow" fill-opacity="0.6" stroke="black" stroke-width="1" />
<path d="M-17.82394315841223,5.345838311653852 L-18.93029627859962,9.285228064942832 L-20.0,-0.0" fill="brown" fill-opacity="0.6" stroke="black" stroke-width="1" />
<path d="M-20.0,-0.0 L-22.12566882023893,-9.827678586653002 L-26.2622581814403,-11.819404559355151" fill="orange" fill-opacity="0.6" stroke="black" stroke-width="1" />
<path d="M-20.0,-0.0 L-22.12566882023893,9.827678586653002 L-26.2622581814403,11.819404559355151" fill="pink" fill-opacity="0.6" stroke="black" stroke-width="1" />
<path d="M-22.12566882023893,-9.827678586653002 L-26.2622581814403,-11.819404559355151 L-27.0,-0.0" fill="yellow" fill-opacity="0.6" stroke="black" stroke-width="1" />
<path d="M-22.12566882023893,9.827678586653002 L-26.2622581814403,11.819404559355151 L-27.0,-0.0" fill="black" fill-opacity="0.6" stroke="black" stroke-width="1" />
<path d="M-27.0,-0.0 L-32.7481997355622,-11.967114994037587 L-40.0,-0.0" fill="green" fill-opacity="0.6" stroke="black" stroke-width="1" />
<path d="M-27.0,-0.0 L-32.7481997355622,11.967114994037587 L-40.0,-0.0" fill="brown" fill-opacity="0.6" stroke="black" stroke-width="1" />
<path d="M-45.0,55.0 L-40.0,60.0 L-34.0,66.0" fill="red" fill-opacity="0.6" stroke="black" stroke-width="1" />
<path d="M-45.0,-55.0 L-40.0,-60.0 L-34.0,-66.0" fill="green" fill-opacity="0.6" stroke="black" stroke-width="1" />
<path d="M-50.0,-9.0 L-33.21753451838529,-20.515686167197284 L-44.20004657710556,-32.717529026089124" fill="orange" fill-opacity="0.6" stroke="black" stroke-width="1" />
<path d="M-50.0,9.0 L-33.21753451838529,20.515686167197284 L-44.20004657710556,32.717529026089124" fill="brown" fill-opacity="0.6" stroke="black" stroke-width="1" />
<path d="M-33.21753451838529,-20.515686167197284 L-44.20004657710556,-32.717529026089124 L-50.0,-35.0" fill="pink" fill-opacity="0.6" stroke="black" stroke-width="1" />
<path d="M-33.21753451838529,20.515686167197284 L-44.20004657710556,32.717529026089124 L-50.0,35.0" fill="black" fill-opacity="0.6" stroke="black" stroke-width="1" />
<path d="M-50.0,-37.0 L-48.48402020878258,-42.685826390903664 L-45.0,-45.0" fill="yellow" fill-opacity="0.6" stroke="black" stroke-width="1" />
<path d="M-50.0,37.0 L-48.48402020878258,42.685826390903664 L-45.0,45.0" fill="orange" fill-opacity="0.6" stroke="black" stroke-width="1" />
<path d="M-42.685826390903664,51.51597979121742 L-45.0,55.0 L-40.0,60.0" fill="green" fill-opacity="0.6" stroke="black" stroke-width="1" />
<path d="M-42.685826390903664,-51.51597979121742 L-45.0,-55.0 L-40.0,-60.0" fill="red" fill-opacity="0.6" stroke="black" stroke-width="1" />
<path d="M-40.0,60.0 L-34.0,66.0 L-2.7034978093546416,89.86636206243641" fill="purple" fill-opacity="0.6" stroke="black" stroke-width="1" />
<path d="M-40.0,-60.0 L-34.0,-66.0 L-2.7034978093546416,-89.86636206243641" fill="red" fill-opacity="0.6" stroke="black" stroke-width="1" />
<path d="M-34.0,-34.0 L-10.133637937563588,-2.7034978093546416 L-8.209247421733018,-1.536971219994543" fill="pink" fill-opacity="0.6" stroke="black" stroke-width="1" />
<path d="M-34.0,34.0 L-10.133637937563588,2.7034978093546416 L-8.209247421733018,1.536971219994543" fill="purple" fill-opacity="0.6" stroke="black" stroke-width="1" />
<path d="M-10.133637937563588,-2.7034978093546416 L-8.209247421733018,-1.536971219994543 L-7.942253264140053,-1.4357663977185298" fill="purple" fill-opacity="0.6" stroke="black" stroke-width="1" />
<path d="M-10.133637937563588,2.7034978093546416 L-8.209247421733018,1.536971219994543 L-7.942253264140053,1.4357663977185298" fill="pink" fill-opacity="0.6" stroke="black" stroke-width="1" />
<path d="M-8.209247421733018,-1.536971219994543 L-7.942253264140053,-1.4357663977185298 L-7.0,-7.0" fill="purple" fill-opacity="0.6" stroke="black" stroke-width="1" />
<path d="M-8.209247421733018,1.536971219994543 L-7.942253264140053,1.4357663977185298 L-7.0,7.0" fill="brown" fill-opacity="0.6" stroke="black" stroke-width="1" />
<path d="M-1.4357663977185298,92.05774673585995 L-7.0,93.0 L-5.0,95.0" fill="orange" fill-opacity="0.6" stroke="black" stroke-width="1" />
<path d="M-1.4357663977185298,-92.05774673585995 L-7.0,-93.0 L-5.0,-95.0" fill="green" fill-opacity="0.6" stroke="black" stroke-width="1" />
<path d="M-7.0,93.0 L-5.0,95.0 L-0.5803039417185296,95.04928507062178" fill="blue" fill-opacity="0.6" stroke="black" stroke-width="1" />
<path d="M-7.0,-93.0 L-5.0,-95.0 L-0.5803039417185296,-95.04928507062178" fill="yellow" fill-opacity="0.6" stroke="black" stroke-width="1" />
<path d="M-5.0,-5.0 L-4.9507149293782255,-0.5803039417185296 L0.0,-0.0" fill="red" fill-opacity="0.6" stroke="black" stroke-width="1" />
<path d="M-5.0,5.0 L-4.9507149293782255,0.5803039417185296 L0.0,-0.0" fill="yellow" fill-opacity="0.6" stroke="black" stroke-width="1" />
<path d="M100.0,-0.0 L88.37406691743398,3.1563138714413173 L84.28761419579567,3.953284809446049" fill="yellow" fill-opacity="0.6" stroke="black" stroke-width="1" />
<path d="M100.0,-0.0 L88.37406691743398,-3.1563138714413173 L84.28761419579567,-3.953284809446049" fill="purple" fill-opacity="0.6" stroke="black" stroke-width="1" />
<path d="M88.37406691743398,3.1563138714413173 L84.28761419579567,3.953284809446049 L82.17605684158777,5.345838311653852" fill="yellow" fill-opacity="0.6" stroke="black" stroke-width="1" />
<path d="M88.37406691743398,-3.1563138714413173 L84.28761419579567,-3.953284809446049 L82.17605684158777,-5.345838311653852" fill="blue" fill-opacity="0.6" stroke="black" stroke-width="1" />
<path d="M84.28761419579567,3.953284809446049 L82.17605684158777,5.345838311653852 L81.06970372140037,9.285228064942832" fill="yellow" fill-opacity="0.6" stroke="black" stroke-width="1" />
<path d="M84.28761419579567,-3.953284809446049 L82.17605684158777,-5.345838311653852 L81.06970372140037,-9.285228064942832" fill="yellow" fill-opacity="0.6" stroke="black" stroke-width="1" />
<path d="M82.17605684158777,5.345838311653852 L81.06970372140037,9.285228064942832 L80.0,-0.0" fill="orange" fill-opacity="0.6" stroke="black" stroke-width="1" />
<path d="M82.17605684158777,-5.345838311653852 L81.06970372140037,-9.285228064942832 L80.0,-0.0" fill="pink" fill-opacity="0.6" stroke="black" stroke-width="1" />
<path d="M80.0,-0.0 L77.87433117976107,9.827678586653002 L73.7377418185597,11.819404559355151" fill="blue" fill-opacity="0.6" stroke="black" stroke-width="1" />
<path d="M80.0,-0.0 L77.87433117976107,-9.827678586653002 L73.7377418185597,-11.819404559355151" fill="orange" fill-opacity="0.6" stroke="black" stroke-width="1" />
<path d="M77.87433117976107,9.827678586653002 L73.7377418185597,11.819404559355151 L73.0,-0.0" fill="brown" fill-opacity="0.6" stroke="black" stroke-width="1" />
<path d="M77.87433117976107,-9.827678586653002 L73.7377418185597,-11.819404559355151 L73.0,-0.0" fill="black" fill-opacity="0.6" stroke="black" stroke-width="1" />
<path d="M73.0,-0.0 L67.2518002644378,11.967114994037587 L60.0,-0.0" fill="pink" fill-opacity="0.6" stroke="black" stroke-width="1" />
<path d="M73.0,-0.0 L67.2518002644378,-11.967114994037587 L60.0,-0.0" fill="green" fill-opacity="0.6" stroke="black" stroke-width="1" />
<path d="M55.0,45.0 L60.0,40.0 L66.0,34.0" fill="orange" fill-opacity="0.6" stroke="black" stroke-width="1" />
<path d="M55.0,-45.0 L60.0,-40.0 L66.0,-34.0" fill="purple" fill-opacity="0.6" stroke="black" stroke-width="1" />
<path d="M50.0,9.0 L66.78246548161471,20.515686167197284 L55.79995342289444,32.717529026089124" fill="blue" fill-opacity="0.6" stroke="black" stroke-width="1" />
<path d="M50.0,-9.0 L66.78246548161471,-20.515686167197284 L55.79995342289444,-32.717529026089124" fill="black" fill-opacity="0.6" stroke="black" stroke-width="1" />
<path d="M66.78246548161471,20.515686167197284 L55.79995342289444,32.717529026089124 L50.0,35.0" fill="yellow" fill-opacity="0.6" stroke="black" stroke-width="1" />
<path d="M66.78246548161471,-20.515686167197284 L55.79995342289444,-32.717529026089124 L50.0,-35.0" fill="green" fill-opacity="0.6" stroke="black" stroke-width="1" />
<path d="M50.0,37.0 L51.51597979121742,42.685826390903664 L55.0,45.0" fill="black" fill-opacity="0.6" stroke="black" stroke-width="1" />
<path d="M50.0,-37.0 L51.51597979121742,-42.685826390903664 L55.0,-45.0" fill="yellow" fill-opacity="0.6" stroke="black" stroke-width="1" />
<path d="M51.51597979121742,42.685826390903664 L55.0,45.0 L60.0,40.0" fill="orange" fill-opacity="0.6" stroke="black" stroke-width="1" />
<path d="M51.51597979121742,-42.685826390903664 L55.0,-45.0 L60.0,-40.0" fill="brown" fill-opacity="0.6" stroke="black" stroke-width="1" />
<path d="M60.0,40.0 L66.0,34.0 L89.86636206243641,2.7034978093546416" fill="blue" fill-opacity="0.6" stroke="black" stroke-width="1" />
<path d="M60.0,-40.0 L66.0,-34.0 L89.86636206243641,-2.7034978093546416" fill="yellow" fill-opacity="0.6" stroke="black" stroke-width="1" />
<path d="M66.0,34.0 L89.86636206243641,2.7034978093546416 L91.79075257826699,1.536971219994543" fill="green" fill-opacity="0.6" stroke="black" stroke-width="1" />
<path d="M66.0,-34.0 L89.86636206243641,-2.7034978093546416 L91.79075257826699,-1.536971219994543" fill="red" fill-opacity="0.6" stroke="black" stroke-width="1" />
<path d="M89.86636206243641,2.7034978093546416 L91.79075257826699,1.536971219994543 L92.05774673585995,1.4357663977185298" fill="black" fill-opacity="0.6" stroke="black" stroke-width="1" />
<path d="M89.86636206243641,-2.7034978093546416 L91.79075257826699,-1.536971219994543 L92.05774673585995,-1.4357663977185298" fill="green" fill-opacity="0.6" stroke="black" stroke-width="1" />
<path d="M91.79075257826699,1.536971219994543 L92.05774673585995,1.4357663977185298 L93.0,7.0" fill="black" fill-opacity="0.6" stroke="black" stroke-width="1" />
<path d="M91.79075257826699,-1.536971219994543 L92.05774673585995,-1.4357663977185298 L93.0,-7.0" fill="brown" fill-opacity="0.6" stroke="black" stroke-width="1" />
<path d="M92.05774673585995,1.4357663977185298 L93.0,7.0 L95.0,5.0" fill="blue" fill-opacity="0.6" stroke="black" stroke-width="1" />
<path d="M92.05774673585995,-1.4357663977185298 L93.0,-7.0 L95.0,-5.0" fill="orange" fill-opacity="0.6" stroke="black" stroke-width="1" />
<path d="M93.0,7.0 L95.0,5.0 L95.04928507062178,0.5803039417185296" fill="pink" fill-opacity="0.6" stroke="black" stroke-width="1" />
<path d="M93.0,-7.0 L95.0,-5.0 L95.04928507062178,-0.5803039417185296" fill="purple" fill-opacity="0.6" stroke="black" stroke-width="1" />
<path d="M95.0,5.0 L95.04928507062178,0.5803039417185296 L100.0,-0.0" fill="purple" fill-opacity="0.6" stroke="black" stroke-width="1" />
<path d="M95.0,-5.0 L95.04928507062178,-0.5803039417185296 L100.0,-0.0" fill="pink" fill-opacity="0.6" stroke="black" stroke-width="1" />
<path d="M0.0,-0.0 L3.1563138714413173,-11.625933082566021 L3.953284809446049,-15.712385804204331" fill="yellow" fill-opacity="0.6" stroke="black" stroke-width="1" />
<path d="M0.0,-0.0 L3.1563138714413173,11.625933082566021 L3.953284809446049,15.712385804204331" fill="yellow" fill-opacity="0.6" stroke="black" stroke-width="1" />
<path d="M0.0,100.0 L3.1563138714413173,88.37406691743398 L3.953284809446049,84.28761419579567" fill="purple" fill-opacity="0.6" stroke="black" stroke-width="1" />
<path d="M0.0,-100.0 L3.1563138714413173,-88.37406691743398 L3.953284809446049,-84.28761419579567" fill="green" fill-opacity="0.6" stroke="black" stroke-width="1" />
<path d="M3.1563138714413173,-11.625933082566021 L3.953284809446049,-15.712385804204331 L5.345838311653852,-17.82394315841223" fill="red" fill-opacity="0.6" stroke="black" stroke-width="1" />
<path d="M3.1563138714413173,11.625933082566021 L3.953284809446049,15.712385804204331 L5.345838311653852,17.82394315841223" fill="orange" fill-opacity="0.6" stroke="black" stroke-width="1" />
<path d="M3.1563138714413173,88.37406691743398 L3.953284809446049,84.28761419579567 L5.345838311653852,82.17605684158777" fill="red" fill-opacity="0.6" stroke="black" stroke-width="1" />
<path d="M3.1563138714413173,-88.37406691743398 L3.953284809446049,-84.28761419579567 L5.345838311653852,-82.17605684158777" fill="purple" fill-opacity="0.6" stroke="black" stroke-width="1" />
<path d="M3.953284809446049,-15.712385804204331 L5.345838311653852,-17.82394315841223 L9.285228064942832,-18.93029627859962" fill="red" fill-opacity="0.6" stroke="black" stroke-width="1" />
<path d="M3.953284809446049,15.712385804204331 L5.345838311653852,17.82394315841223 L9.285228064942832,18.93029627859962" fill="yellow" fill-opacity="0.6" stroke="black" stroke-width="1" />
<path d="M3.953284809446049,84.28761419579567 L5.345838311653852,82.17605684158777 L9.285228064942832,81.06970372140037" fill="pink" fill-opacity="0.6" stroke="black" stroke-width="1" />
<path d="M3.953284809446049,-84.28761419579567 L5.345838311653852,-82.17605684158777 L9.285228064942832,-81.06970372140037" fill="black" fill-opacity="0.6" stroke="black" stroke-width="1" />
<path d="M5.345838311653852,-17.82394315841223 L9.285228064942832,-18.93029627859962 L0.0,-20.0" fill="purple" fill-opacity="0.6" stroke="black" stroke-width="1" />
<path d="M5.345838311653852,17.82394315841223 L9.285228064942832,18.93029627859962 L0.0,20.0" fill="green" fill-opacity="0.6" stroke="black" stroke-width="1" />
<path d="M5.345838311653852,82.17605684158777 L9.285228064942832,81.06970372140037 L0.0,80.0" fill="purple" fill-opacity="0.6" stroke="black" stroke-width="1" />
<path d="M5.345838311653852,-82.17605684158777 L9.285228064942832,-81.06970372140037 L0.0,-80.0" fill="black" fill-opacity="0.6" stroke="black" stroke-width="1" />
<path d="M0.0,-20.0 L9.827678586653002,-22.12566882023893 L11.819404559355151,-26.2622581814403" fill="blue" fill-opacity="0.6" stroke="black" stroke-width="1" />
<path d="M0.0,20.0 L9.827678586653002,22.12566882023893 L11.819404559355151,26.2622581814403" fill="purple" fill-opacity="0.6" stroke="black" stroke-width="1" />
<path d="M0.0,80.0 L9.827678586653002,77.87433117976107 L11.819404559355151,73.7377418185597" fill="brown" fill-opacity="0.6" stroke="black" stroke-width="1" />
<path d="M0.0,-80.0 L9.827678586653002,-77.87433117976107 L11.819404559355151,-73.7377418185597" fill="red" fill-opacity="0.6" stroke="black" stroke-width="1" />
<path d="M9.827678586653002,-22.12566882023893 L11.819404559355151,-26.2622581814403 L0.0,-27.0" fill="yellow" fill-opacity="0.6" stroke="black" stroke-width="1" />
<path d="M9.827678586653002,22.12566882023893 L11.819404559355151,26.2622581814403 L0.0,27.0" fill="pink" fill-opacity="0.6" stroke="black" stroke-width="1" />
<path d="M9.827678586653002,77.87433117976107 L11.819404559355151,73.7377418185597 L0.0,73.0" fill="purple" fill-opacity="0.6" stroke="black" stroke-width="1" />
<path d="M9.827678586653002,-77.87433117976107 L11.819404559355151,-73.7377418185597 L0.0,-73.0" fill="pink" fill-opacity="0.6" stroke="black" stroke-width="1" />
<path d="M0.0,-27.0 L11.967114994037587,-32.7481997355622 L0.0,-40.0" fill="black" fill-opacity="0.6" stroke="black" stroke-width="1" />
<path d="M0.0,27.0 L11.967114994037587,32.7481997355622 L0.0,40.0" fill="black" fill-opacity="0.6" stroke="black" stroke-width="1" />
<path d="M0.0,73.0 L11.967114994037587,67.2518002644378 L0.0,60.0" fill="red" fill-opacity="0.6" stroke="black" stroke-width="1" />
<path d="M0.0,-73.0 L11.967114994037587,-67.2518002644378 L0.0,-60.0" fill="purple" fill-opacity="0.6" stroke="black" stroke-width="1" />
<path d="M9.0,-50.0 L20.515686167197284,-33.21753451838529 L32.717529026089124,-44.20004657710556" fill="pink" fill-opacity="0.6" stroke="black" stroke-width="1" />
<path d="M9.0,50.0 L20.515686167197284,33.21753451838529 L32.717529026089124,44.20004657710556" fill="brown" fill-opacity="0.6" stroke="black" stroke-width="1" />
<path d="M9.0,50.0 L20.515686167197284,66.78246548161471 L32.717529026089124,55.79995342289444" fill="blue" fill-opacity="0.6" stroke="black" stroke-width="1" />
<path d="M9.0,-50.0 L20.515686167197284,-66.78246548161471 L32.717529026089124,-55.79995342289444" fill="black" fill-opacity="0.6" stroke="black" stroke-width="1" />
<path d="M20.515686167197284,-33.21753451838529 L32.717529026089124,-44.20004657710556 L35.0,-50.0" fill="brown" fill-opacity="0.6" stroke="black" stroke-width="1" />
<path d="M20.515686167197284,33.21753451838529 L32.717529026089124,44.20004657710556 L35.0,50.0" fill="yellow" fill-opacity="0.6" stroke="black" stroke-width="1" />
<path d="M20.515686167197284,66.78246548161471 L32.717529026089124,55.79995342289444 L35.0,50.0" fill="brown" fill-opacity="0.6" stroke="black" stroke-width="1" />
<path d="M20.515686167197284,-66.78246548161471 L32.717529026089124,-55.79995342289444 L35.0,-50.0" fill="black" fill-opacity="0.6" stroke="black" stroke-width="1" />
<path d="M37.0,-50.0 L42.685826390903664,-48.48402020878258 L45.0,-45.0" fill="pink" fill-opacity="0.6" stroke="black" stroke-width="1" />
<path d="M37.0,50.0 L42.685826390903664,48.48402020878258 L45.0,45.0" fill="purple" fill-opacity="0.6" stroke="black" stroke-width="1" />
<path d="M37.0,50.0 L42.685826390903664,51.51597979121742 L45.0,55.0" fill="blue" fill-opacity="0.6" stroke="black" stroke-width="1" />
<path d="M37.0,-50.0 L42.685826390903664,-51.51597979121742 L45.0,-55.0" fill="blue" fill-opacity="0.6" stroke="black" stroke-width="1" />
<path d="M34.0,-34.0 L2.7034978093546416,-10.133637937563588 L1.536971219994543,-8.209247421733018" fill="orange" fill-opacity="0.6" stroke="black" stroke-width="1" />
<path d="M34.0,34.0 L2.7034978093546416,10.133637937563588 L1.536971219994543,8.209247421733018" fill="brown" fill-opacity="0.6" stroke="black" stroke-width="1" />
<path d="M34.0,66.0 L2.7034978093546416,89.86636206243641 L1.536971219994543,91.79075257826699" fill="blue" fill-opacity="0.6" stroke="black" stroke-width="1" />
<path d="M34.0,-66.0 L2.7034978093546416,-89.86636206243641 L1.536971219994543,-91.79075257826699" fill="green" fill-opacity="0.6" stroke="black" stroke-width="1" />
<path d="M2.7034978093546416,-10.133637937563588 L1.536971219994543,-8.209247421733018 L1.4357663977185298,-7.942253264140053" fill="blue" fill-opacity="0.6" stroke="black" stroke-width="1" />
<path d="M2.7034978093546416,10.133637937563588 L1.536971219994543,8.209247421733018 L1.4357663977185298,7.942253264140053" fill="black" fill-opacity="0.6" stroke="black" stroke-width="1" />
<path d="M2.7034978093546416,89.86636206243641 L1.536971219994543,91.79075257826699 L1.4357663977185298,92.05774673585995" fill="blue" fill-opacity="0.6" stroke="black" stroke-width="1" />
<path d="M2.7034978093546416,-89.86636206243641 L1.536971219994543,-91.79075257826699 L1.4357663977185298,-92.05774673585995" fill="blue" fill-opacity="0.6" stroke="black" stroke-width="1" />
<path d="M1.536971219994543,-8.209247421733018 L1.4357663977185298,-7.942253264140053 L7.0,-7.0" fill="black" fill-opacity="0.6" stroke="black" stroke-width="1" />
<path d="M1.536971219994543,8.209247421733018 L1.4357663977185298,7.942253264140053 L7.0,7.0" fill="orange" fill-opacity="0.6" stroke="black" stroke-width="1" />
<path d="M1.536971219994543,91.79075257826699 L1.4357663977185298,92.05774673585995 L7.0,93.0" fill="green" fill-opacity="0.6" stroke="black" stroke-width="1" />
<path d="M1.536971219994543,-91.79075257826699 L1.4357663977185298,-92.05774673585995 L7.0,-93.0" fill="red" fill-opacity="0.6" stroke="black" stroke-width="1" />
<path d="M5.0,-5.0 L0.5803039417185296,-4.9507149293782255 L0.0,-0.0" fill="yellow" fill-opacity="0.6" stroke="black" stroke-width="1" />
<path d="M5.0,5.0 L0.5803039417185296,4.9507149293782255 L0.0,-0.0" fill="purple" fill-opacity="0.6" stroke="black" stroke-width="1" />
<path d="M5.0,95.0 L0.5803039417185296,95.04928507062178 L0.0,100.0" fill="red" fill-opacity="0.6" stroke="black" stroke-width="1" />
<path d="M5.0,-95.0 L0.5803039417185296,-95.04928507062178 L0.0,-100.0" fill="green" fill-opacity="0.6" stroke="black" stroke-width="1" />
<path d="M0.0,100.0 L-3.1563138714413173,88.37406691743398 L-3.953284809446049,84.28761419579567" fill="blue" fill-opacity="0.6" stroke="black" stroke-width="1" />
<path d="M0.0,-0.0 L-3.1563138714413173,-11.625933082566021 L-3.953284809446049,-15.712385804204331" fill="yellow" fill-opacity="0.6" stroke="black" stroke-width="1" />
<path d="M0.0,-0.0 L-3.1563138714413173,11.625933082566021 L-3.953284809446049,15.712385804204331" fill="purple" fill-opacity="0.6" stroke="black" stroke-width="1" />
<path d="M0.0,-100.0 L-3.1563138714413173,-88.37406691743398 L-3.953284809446049,-84.28761419579567" fill="red" fill-opacity="0.6" stroke="black" stroke-width="1" />
<path d="M-3.1563138714413173,88.37406691743398 L-3.953284809446049,84.28761419579567 L-5.345838311653852,82.17605684158777" fill="orange" fill-opacity="0.6" stroke="black" stroke-width="1" />
<path d="M-3.1563138714413173,-11.625933082566021 L-3.953284809446049,-15.712385804204331 L-5.345838311653852,-17.82394315841223" fill="green" fill-opacity="0.6" stroke="black" stroke-width="1" />
<path d="M-3.1563138714413173,11.625933082566021 L-3.953284809446049,15.712385804204331 L-5.345838311653852,17.823943158412234" fill="orange" fill-opacity="0.6" stroke="black" stroke-width="1" />
<path d="M-3.1563138714413173,-88.37406691743398 L-3.953284809446049,-84.28761419579567 L-5.345838311653852,-82.17605684158777" fill="orange" fill-opacity="0.6" stroke="black" stroke-width="1" />
<path d="M-3.953284809446049,84.28761419579567 L-5.345838311653852,82.17605684158777 L-9.285228064942832,81.06970372140037" fill="black" fill-opacity="0.6" stroke="black" stroke-width="1" />
<path d="M-3.953284809446049,-15.712385804204331 L-5.345838311653852,-17.82394315841223 L-9.285228064942832,-18.93029627859962" fill="blue" fill-opacity="0.6" stroke="black" stroke-width="1" />
<path d="M-3.953284809446049,15.712385804204331 L-5.345838311653852,17.823943158412234 L-9.285228064942832,18.930296278599627" fill="orange" fill-opacity="0.6" stroke="black" stroke-width="1" />
<path d="M-3.953284809446049,-84.28761419579567 L-5.345838311653852,-82.17605684158777 L-9.285228064942832,-81.06970372140037" fill="pink" fill-opacity="0.6" stroke="black" stroke-width="1" />
<path d="M-5.345838311653852,82.17605684158777 L-9.285228064942832,81.06970372140037 L0.0,80.0" fill="yellow" fill-opacity="0.6" stroke="black" stroke-width="1" />
<path d="M-5.345838311653852,-17.82394315841223 L-9.285228064942832,-18.93029627859962 L0.0,-20.0" fill="black" fill-opacity="0.6" stroke="black" stroke-width="1" />
<path d="M-5.345838311653852,17.823943158412234 L-9.285228064942832,18.930296278599627 L0.0,20.0" fill="blue" fill-opacity="0.6" stroke="black" stroke-width="1" />
<path d="M-5.345838311653852,-82.17605684158777 L-9.285228064942832,-81.06970372140037 L0.0,-80.0" fill="blue" fill-opacity="0.6" stroke="black" stroke-width="1" />
<path d="M0.0,80.0 L-9.827678586653002,77.87433117976107 L-11.819404559355151,73.7377418185597" fill="orange" fill-opacity="0.6" stroke="black" stroke-width="1" />
<path d="M0.0,-20.0 L-9.827678586653002,-22.12566882023893 L-11.819404559355151,-26.2622581814403" fill="blue" fill-opacity="0.6" stroke="black" stroke-width="1" />
<path d="M0.0,20.0 L-9.827678586653002,22.12566882023893 L-11.819404559355151,26.262258181440302" fill="purple" fill-opacity="0.6" stroke="black" stroke-width="1" />
<path d="M0.0,-80.0 L-9.827678586653002,-77.87433117976107 L-11.819404559355151,-73.7377418185597" fill="green" fill-opacity="0.6" stroke="black" stroke-width="1" />
<path d="M-9.827678586653002,77.87433117976107 L-11.819404559355151,73.7377418185597 L0.0,73.0" fill="orange" fill-opacity="0.6" stroke="black" stroke-width="1" />
<path d="M-9.827678586653002,-22.12566882023893 L-11.819404559355151,-26.2622581814403 L0.0,-27.0" fill="yellow" fill-opacity="0.6" stroke="black" stroke-width="1" />
<path d="M-9.827678586653002,22.12566882023893 L-11.819404559355151,26.262258181440302 L0.0,27.0" fill="purple" fill-opacity="0.6" stroke="black" stroke-width="1" />
<path d="M-9.827678586653002,-77.87433117976107 L-11.819404559355151,-73.7377418185597 L0.0,-73.0" fill="orange" fill-opacity="0.6" stroke="black" stroke-width="1" />
<path d="M0.0,73.0 L-11.967114994037587,67.2518002644378 L0.0,60.0" fill="brown" fill-opacity="0.6" stroke="black" stroke-width="1" />
<path d="M0.0,-27.0 L-11.967114994037587,-32.7481997355622 L0.0,-40.0" fill="orange" fill-opacity="0.6" stroke="black" stroke-width="1" />
<path d="M0.0,27.0 L-11.967114994037587,32.748199735562196 L0.0,40.0" fill="green" fill-opacity="0.6" stroke="black" stroke-width="1" />
<path d="M0.0,-73.0 L-11.967114994037587,-67.2518002644378 L0.0,-60.0" fill="yellow" fill-opacity="0.6" stroke="black" stroke-width="1" />
<path d="M-9.0,50.0 L-20.515686167197284,66.78246548161471 L-32.717529026089124,55.79995342289444" fill="red" fill-opacity="0.6" stroke="black" stroke-width="1" />
<path d="M-9.0,-50.0 L-20.515686167197284,-33.21753451838529 L-32.717529026089124,-44.20004657710556" fill="pink" fill-opacity="0.6" stroke="black" stroke-width="1" />
<path d="M-9.0,50.0 L-20.515686167197284,33.21753451838529 L-32.717529026089124,44.20004657710556" fill="red" fill-opacity="0.6" stroke="black" stroke-width="1" />
<path d="M-9.0,-50.0 L-20.515686167197284,-66.78246548161471 L-32.717529026089124,-55.79995342289444" fill="red" fill-opacity="0.6" stroke="black" stroke-width="1" />
<path d="M-20.515686167197284,66.78246548161471 L-32.717529026089124,55.79995342289444 L-35.0,50.0" fill="blue" fill-opacity="0.6" stroke="black" stroke-width="1" />
<path d="M-20.515686167197284,-33.21753451838529 L-32.717529026089124,-44.20004657710556 L-35.0,-50.0" fill="blue" fill-opacity="0.6" stroke="black" stroke-width="1" />
<path d="M-20.515686167197284,33.21753451838529 L-32.717529026089124,44.20004657710556 L-35.0,50.0" fill="yellow" fill-opacity="0.6" stroke="black" stroke-width="1" />
<path d="M-20.515686167197284,-66.78246548161471 L-32.717529026089124,-55.79995342289444 L-35.0,-50.0" fill="yellow" fill-opacity="0.6" stroke="black" stroke-width="1" />
<path d="M-37.0,50.0 L-42.685826390903664,51.51597979121742 L-45.0,55.0" fill="brown" fill-opacity="0.6" stroke="black" stroke-width="1" />
<path d="M-37.0,-50.0 L-42.685826390903664,-48.48402020878258 L-45.0,-45.0" fill="purple" fill-opacity="0.6" stroke="black" stroke-width="1" />
<path d="M-37.0,50.0 L-42.685826390903664,48.48402020878258 L-45.0,45.0" fill="purple" fill-opacity="0.6" stroke="black" stroke-width="1" />
<path d="M-37.0,-50.0 L-42.685826390903664,-51.51597979121742 L-45.0,-55.0" fill="pink" fill-opacity="0.6" stroke="black" stroke-width="1" />
<path d="M-34.0,66.0 L-2.7034978093546416,89.86636206243641 L-1.536971219994543,91.79075257826699" fill="black" fill-opacity="0.6" stroke="black" stroke-width="1" />
<path d="M-34.0,-34.0 L-2.7034978093546416,-10.133637937563588 L-1.536971219994543,-8.209247421733018" fill="blue" fill-opacity="0.6" stroke="black" stroke-width="1" />
<path d="M-34.0,34.0 L-2.7034978093546416,10.133637937563591 L-1.536971219994543,8.20924742173301" fill="blue" fill-opacity="0.6" stroke="black" stroke-width="1" />
<path d="M-34.0,-66.0 L-2.7034978093546416,-89.86636206243641 L-1.536971219994543,-91.79075257826699" fill="yellow" fill-opacity="0.6" stroke="black" stroke-width="1" />
<path d="M-2.7034978093546416,89.86636206243641 L-1.536971219994543,91.79075257826699 L-1.4357663977185298,92.05774673585995" fill="purple" fill-opacity="0.6" stroke="black" stroke-width="1" />
<path d="M-2.7034978093546416,-10.133637937563588 L-1.536971219994543,-8.209247421733018 L-1.4357663977185298,-7.942253264140053" fill="orange" fill-opacity="0.6" stroke="black" stroke-width="1" />
<path d="M-2.7034978093546416,10.133637937563591 L-1.536971219994543,8.20924742173301 L-1.4357663977185298,7.942253264140049" fill="brown" fill-opacity="0.6" stroke="black" stroke-width="1" />
<path d="M-2.7034978093546416,-89.86636206243641 L-1.536971219994543,-91.79075257826699 L-1.4357663977185298,-92.05774673585995" fill="black" fill-opacity="0.6" stroke="black" stroke-width="1" />
<path d="M-1.536971219994543,91.79075257826699 L-1.4357663977185298,92.05774673585995 L-7.0,93.0" fill="blue" fill-opacity="0.6" stroke="black" stroke-width="1" />
<path d="M-1.536971219994543,-8.209247421733018 L-1.4357663977185298,-7.942253264140053 L-7.0,-7.0" fill="pink" fill-opacity="0.6" stroke="black" stroke-width="1" />
<path d="M-1.536971219994543,8.20924742173301 L-1.4357663977185298,7.942253264140049 L-7.0,7.0" fill="blue" fill-opacity="0.6" stroke="black" stroke-width="1" />
<path d="M-1.536971219994543,-91.79075257826699 L-1.4357663977185298,-92.05774673585995 L-7.0,-93.0" fill="yellow" fill-opacity="0.6" stroke="black" stroke-width="1" />
<path d="M-5.0,95.0 L-0.5803039417185296,95.04928507062178 L0.0,100.0" fill="red" fill-opacity="0.6" stroke="black" stroke-width="1" />
<path d="M-5.0,-5.0 L-0.5803039417185296,-4.9507149293782255 L0.0,-0.0" fill="brown" fill-opacity="0.6" stroke="black" stroke-width="1" />
<path d="M-5.0,5.0 L-0.5803039417185296,4.950714929378222 L0.0,-0.0" fill="brown" fill-opacity="0.6" stroke="black" stroke-width="1" />
<path d="M-5.0,-95.0 L-0.5803039417185296,-95.04928507062178 L0.0,-100.0" fill="black" fill-opacity="0.6" stroke="black" stroke-width="1" />
<path d="M-100.0,-0.0 L-88.37406691743398,-3.1563138714413173 L-84.28761419579567,-3.953284809446049" fill="pink" fill-opacity="0.6" stroke="black" stroke-width="1" />
<path d="M-100.0,-0.0 L-88.37406691743398,3.1563138714413173 L-84.28761419579567,3.953284809446049" fill="brown" fill-opacity="0.6" stroke="black" stroke-width="1" />
<path d="M-88.37406691743398,-3.1563138714413173 L-84.28761419579567,-3.953284809446049 L-82.17605684158777,-5.345838311653852" fill="pink" fill-opacity="0.6" stroke="black" stroke-width="1" />
<path d="M-88.37406691743398,3.1563138714413173 L-84.28761419579567,3.953284809446049 L-82.17605684158777,5.345838311653852" fill="blue" fill-opacity="0.6" stroke="black" stroke-width="1" />
<path d="M-84.28761419579567,-3.953284809446049 L-82.17605684158777,-5.345838311653852 L-81.06970372140037,-9.285228064942832" fill="red" fill-opacity="0.6" stroke="black" stroke-width="1" />
<path d="M-84.28761419579567,3.953284809446049 L-82.17605684158777,5.345838311653852 L-81.06970372140037,9.285228064942832" fill="black" fill-opacity="0.6" stroke="black" stroke-width="1" />
<path d="M-82.17605684158777,-5.345838311653852 L-81.06970372140037,-9.285228064942832 L-80.0,-0.0" fill="yellow" fill-opacity="0.6" stroke="black" stroke-width="1" />
<path d="M-82.17605684158777,5.345838311653852 L-81.06970372140037,9.285228064942832 L-80.0,-0.0" fill="yellow" fill-opacity="0.6" stroke="black" stroke-width="1" />
<path d="M-80.0,-0.0 L-77.87433117976107,-9.827678586653002 L-73.7377418185597,-11.819404559355151" fill="pink" fill-opacity="0.6" stroke="black" stroke-width="1" />
<path d="M-80.0,-0.0 L-77.87433117976107,9.827678586653002 L-73.7377418185597,11.819404559355151" fill="brown" fill-opacity="0.6" stroke="black" stroke-width="1" />
<path d="M-77.87433117976107,-9.827678586653002 L-73.7377418185597,-11.819404559355151 L-73.0,-0.0" fill="yellow" fill-opacity="0.6" stroke="black" stroke-width="1" />
<path d="M-77.87433117976107,9.827678586653002 L-73.7377418185597,11.819404559355151 L-73.0,-0.0" fill="brown" fill-opacity="0.6" stroke="black" stroke-width="1" />
<path d="M-73.0,-0.0 L-67.2518002644378,-11.967114994037587 L-60.0,-0.0" fill="pink" fill-opacity="0.6" stroke="black" stroke-width="1" />
<path d="M-73.0,-0.0 L-67.2518002644378,11.967114994037587 L-60.0,-0.0" fill="pink" fill-opacity="0.6" stroke="black" stroke-width="1" />
<path d="M-55.0,-45.0 L-60.0,-40.0 L-66.0,-34.0" fill="yellow" fill-opacity="0.6" stroke="black" stroke-width="1" />
<path d="M-55.0,45.0 L-60.0,40.0 L-66.0,34.0" fill="black" fill-opacity="0.6" stroke="black" stroke-width="1" />
<path d="M-50.0,-9.0 L-66.78246548161471,-20.515686167197284 L-55.79995342289444,-32.717529026089124" fill="yellow" fill-opacity="0.6" stroke="black" stroke-width="1" />
<path d="M-50.0,9.0 L-66.78246548161471,20.515686167197284 L-55.79995342289444,32.717529026089124" fill="orange" fill-opacity="0.6" stroke="black" stroke-width="1" />
<path d="M-66.78246548161471,-20.515686167197284 L-55.79995342289444,-32.717529026089124 L-50.0,-35.0" fill="orange" fill-opacity="0.6" stroke="black" stroke-width="1" />
<path d="M-66.78246548161471,20.515686167197284 L-55.79995342289444,32.717529026089124 L-50.0,35.0" fill="purple" fill-opacity="0.6" stroke="black" stroke-width="1" />
<path d="M-50.0,-37.0 L-51.51597979121742,-42.685826390903664 L-55.0,-45.0" fill="orange" fill-opacity="0.6" stroke="black" stroke-width="1" />
<path d="M-50.0,37.0 L-51.51597979121742,42.685826390903664 L-55.0,45.0" fill="yellow" fill-opacity="0.6" stroke="black" stroke-width="1" />
<path d="M-51.51597979121742,-42.685826390903664 L-55.0,-45.0 L-60.0,-40.0" fill="blue" fill-opacity="0.6" stroke="black" stroke-width="1" />
<path d="M-51.51597979121742,42.685826390903664 L-55.0,45.0 L-60.0,40.0" fill="pink" fill-opacity="0.6" stroke="black" stroke-width="1" />
<path d="M-60.0,-40.0 L-66.0,-34.0 L-89.86636206243641,-2.7034978093546416" fill="yellow" fill-opacity="0.6" stroke="black" stroke-width="1" />
<path d="M-60.0,40.0 L-66.0,34.0 L-89.86636206243641,2.7034978093546416" fill="black" fill-opacity="0.6" stroke="black" stroke-width="1" />
<path d="M-66.0,-34.0 L-89.86636206243641,-2.7034978093546416 L-91.79075257826699,-1.536971219994543" fill="pink" fill-opacity="0.6" stroke="black" stroke-width="1" />
<path d="M-66.0,34.0 L-89.86636206243641,2.7034978093546416 L-91.79075257826699,1.536971219994543" fill="brown" fill-opacity="0.6" stroke="black" stroke-width="1" />
<path d="M-89.86636206243641,-2.7034978093546416 L-91.79075257826699,-1.536971219994543 L-92.05774673585995,-1.4357663977185298" fill="pink" fill-opacity="0.6" stroke="black" stroke-width="1" />
<path d="M-89.86636206243641,2.7034978093546416 L-91.79075257826699,1.536971219994543 L-92.05774673585995,1.4357663977185298" fill="orange" fill-opacity="0.6" stroke="black" stroke-width="1" />
<path d="M-91.79075257826699,-1.536971219994543 L-92.05774673585995,-1.4357663977185298 L-93.0,-7.0" fill="purple" fill-opacity="0.6" stroke="black" stroke-width="1" />
<path d="M-91.79075257826699,1.536971219994543 L-92.05774673585995,1.4357663977185298 L-93.0,7.0" fill="purple" fill-opacity="0.6" stroke="black" stroke-width="1" />
<path d="M-92.05774673585995,-1.4357663977185298 L-93.0,-7.0 L-95.0,-5.0" fill="black" fill-opacity="0.6" stroke="black" stroke-width="1" />
<path d="M-92.05774673585995,1.4357663977185298 L-93.0,7.0 L-95.0,5.0" fill="pink" fill-opacity="0.6" stroke="black" stroke-width="1" />
<path d="M-93.0,-7.0 L-95.0,-5.0 L-95.04928507062178,-0.5803039417185296" fill="black" fill-opacity="0.6" stroke="black" stroke-width="1" />
<path d="M-93.0,7.0 L-95.0,5.0 L-95.04928507062178,0.5803039417185296" fill="red" fill-opacity="0.6" stroke="black" stroke-width="1" />
<path d="M-95.0,-5.0 L-95.04928507062178,-0.5803039417185296 L-100.0,-0.0" fill="orange" fill-opacity="0.6" stroke="black" stroke-width="1" />
<path d="M-95.0,5.0 L-95.04928507062178,0.5803039417185296 L-100.0,-0.0" fill="blue" fill-opacity="0.6" stroke="black" stroke-width="1" />
</svg>