<?xml version="1.0" encoding="UTF-8"?>
<svg xmlns="http://www.w3.org/2000/svg" xmlns:xlink="http://www.w3.org/1999/xlink"
     width="250" height="250" viewBox="-125.0 -125.0 250 250">
<defs>
</defs>
<path d="M0.0,-0.0 L14.996149933977726,-2.0708760338758485 L17.06486722514116,-2.5390199126730324" fill-opacity="0" stroke="black" stroke-width="1" />
<path d="M0.0,-0.0 L14.996149933977726,2.0708760338758485 L17.06486722514116,2.5390199126730324" fill-opacity="0" stroke="black" stroke-width="1" />
<path d="M14.996149933977726,-2.0708760338758485 L17.06486722514116,-2.5390199126730324 L22.0,-0.0" fill-opacity="0" stroke="black" stroke-width="1" />
<path d="M14.996149933977726,2.0708760338758485 L17.06486722514116,2.5390199126730324 L22.0,-0.0" fill-opacity="0" stroke="black" stroke-width="1" />
<path d="M22.0,-0.0 L22.2709605476546,-2.7748336274115104 L24.34391610747383,-3.8965130692220793" fill-opacity="0" stroke="black" stroke-width="1" />
<path d="M22.0,-0.0 L22.2709605476546,2.7748336274115104 L24.34391610747383,3.8965130692220793" fill-opacity="0" stroke="black" stroke-width="1" />
<path d="M22.2709605476546,-2.7748336274115104 L24.34391610747383,-3.8965130692220793 L25.33503523510479,-6.433647692833118" fill-opacity="0" stroke="black" stroke-width="1" />
<path d="M22.2709605476546,2.7748336274115104 L24.34391610747383,3.8965130692220793 L25.33503523510479,6.433647692833118" fill-opacity="0" stroke="black" stroke-width="1" />
<path d="M24.34391610747383,-3.8965130692220793 L25.33503523510479,-6.433647692833118 L37.81198809834101,-7.847115597381822" fill-opacity="0" stroke="black" stroke-width="1" />
<path d="M24.34391610747383,3.8965130692220793 L25.33503523510479,6.433647692833118 L37.81198809834101,7.847115597381822" fill-opacity="0" stroke="black" stroke-width="1" />
<path d="M25.33503523510479,-6.433647692833118 L37.81198809834101,-7.847115597381822 L45.0,-0.0" fill-opacity="0" stroke="black" stroke-width="1" />
<path d="M25.33503523510479,6.433647692833118 L37.81198809834101,7.847115597381822 L45.0,-0.0" fill-opacity="0" stroke="black" stroke-width="1" />
<path d="M50.0,-3.0 L44.46487244168809,-9.282763846854753 L44.744451073508344,-18.94398929862302" fill-opacity="0" stroke="black" stroke-width="1" />
<path d="M50.0,3.0 L44.46487244168809,9.282763846854753 L44.744451073508344,18.94398929862302" fill-opacity="0" stroke="black" stroke-width="1" />
<path d="M44.46487244168809,-9.282763846854753 L44.744451073508344,-18.94398929862302 L50.0,-20.0" fill-opacity="0" stroke="black" stroke-width="1" />
<path d="M44.46487244168809,9.282763846854753 L44.744451073508344,18.94398929862302 L50.0,20.0" fill-opacity="0" stroke="black" stroke-width="1" />
<path d="M50.0,-20.0 L48.414260473440606,-21.408180674403095 L49.42298788054483,-23.418546847145556" fill-opacity="0" stroke="black" stroke-width="1" />
<path d="M50.0,20.0 L48.414260473440606,21.408180674403095 L49.42298788054483,23.418546847145556" fill-opacity="0" stroke="black" stroke-width="1" />
<path d="M48.414260473440606,-21.408180674403095 L49.42298788054483,-23.418546847145556 L49.54563196207779,-29.899400668931424" fill-opacity="0" stroke="black" stroke-width="1" />
<path d="M48.414260473440606,21.408180674403095 L49.42298788054483,23.418546847145556 L49.54563196207779,29.899400668931424" fill-opacity="0" stroke="black" stroke-width="1" />
<path d="M49.42298788054483,-23.418546847145556 L49.54563196207779,-29.899400668931424 L50.0,-32.0" fill-opacity="0" stroke="black" stroke-width="1" />
<path d="M49.42298788054483,23.418546847145556 L49.54563196207779,29.899400668931424 L50.0,32.0" fill-opacity="0" stroke="black" stroke-width="1" />
<path d="M50.0,-50.0 L49.76029230922221,-45.622263562650225 L21.0,-21.0" fill-opacity="0" stroke="black" stroke-width="1" />
<path d="M50.0,50.0 L49.76029230922221,45.622263562650225 L21.0,21.0" fill-opacity="0" stroke="black" stroke-width="1" />
<path d="M45.622263562650225,50.23970769077779 L21.0,79.0 L9.0,91.0" fill-opacity="0" stroke="black" stroke-width="1" />
<path d="M45.622263562650225,-50.23970769077779 L21.0,-79.0 L9.0,-91.0" fill-opacity="0" stroke="black" stroke-width="1" />
<path d="M21.0,79.0 L9.0,91.0 L1.873099317950718,91.93194551715736" fill-opacity="0" stroke="black" stroke-width="1" />
<path d="M21.0,-79.0 L9.0,-91.0 L1.873099317950718,-91.93194551715736" fill-opacity="0" stroke="black" stroke-width="1" />
<path d="M9.0,-9.0 L8.06805448284264,-1.873099317950718 L6.565631599518823,-1.8621730547861648" fill-opacity="0" stroke="black" stroke-width="1" />
<path d="M9.0,9.0 L8.06805448284264,1.873099317950718 L6.565631599518823,1.8621730547861648" fill-opacity="0" stroke="black" stroke-width="1" />
<path d="M8.06805448284264,-1.873099317950718 L6.565631599518823,-1.8621730547861648 L5.923984810430777,-1.171415648484308" fill-opacity="0" stroke="black" stroke-width="1" />
<path d="M8.06805448284264,1.873099317950718 L6.565631599518823,1.8621730547861648 L5.923984810430777,1.171415648484308" fill-opacity="0" stroke="black" stroke-width="1" />
<path d="M6.565631599518823,-1.8621730547861648 L5.923984810430777,-1.171415648484308 L5.0,-5.0" fill-opacity="0" stroke="black" stroke-width="1" />
<path d="M6.565631599518823,1.8621730547861648 L5.923984810430777,1.171415648484308 L5.0,5.0" fill-opacity="0" stroke="black" stroke-width="1" />
<path d="M1.171415648484308,94.07601518956923 L5.0,95.0 L1.0524140347874305,97.52745407635692" fill-opacity="0" stroke="black" stroke-width="1" />
<path d="M1.171415648484308,-94.07601518956923 L5.0,-95.0 L1.0524140347874305,-97.52745407635692" fill-opacity="0" stroke="black" stroke-width="1" />
<path d="M5.0,-5.0 L2.472545923643088,-1.0524140347874305 L1.255927208725377,-0.40869052155942354" fill-opacity="0" stroke="black" stroke-width="1" />
<path d="M5.0,5.0 L2.472545923643088,1.0524140347874305 L1.255927208725377,0.40869052155942354" fill-opacity="0" stroke="black" stroke-width="1" />
<path d="M2.472545923643088,-1.0524140347874305 L1.255927208725377,-0.40869052155942354 L0.0,-0.0" fill-opacity="0" stroke="black" stroke-width="1" />
<path d="M2.472545923643088,1.0524140347874305 L1.255927208725377,0.40869052155942354 L0.0,-0.0" fill-opacity="0" stroke="black" stroke-width="1" />
<path d="M0.0,-0.0 L-14.996149933977726,-2.0708760338758485 L-17.06486722514116,-2.5390199126730324" fill-opacity="0" stroke="black" stroke-width="1" />
<path d="M0.0,-0.0 L-14.996149933977726,2.0708760338758485 L-17.06486722514116,2.5390199126730324" fill-opacity="0" stroke="black" stroke-width="1" />
<path d="M-14.996149933977726,-2.0708760338758485 L-17.06486722514116,-2.5390199126730324 L-22.0,-0.0" fill-opacity="0" stroke="black" stroke-width="1" />
<path d="M-14.996149933977726,2.0708760338758485 L-17.06486722514116,2.5390199126730324 L-22.0,-0.0" fill-opacity="0" stroke="black" stroke-width="1" />
<path d="M-22.0,-0.0 L-22.2709605476546,-2.7748336274115104 L-24.34391610747383,-3.8965130692220793" fill-opacity="0" stroke="black" stroke-width="1" />
<path d="M-22.0,-0.0 L-22.2709605476546,2.7748336274115104 L-24.34391610747383,3.8965130692220793" fill-opacity="0" stroke="black" stroke-width="1" />
<path d="M-22.2709605476546,-2.7748336274115104 L-24.34391610747383,-3.8965130692220793 L-25.33503523510479,-6.433647692833118" fill-opacity="0" stroke="black" stroke-width="1" />
<path d="M-22.2709605476546,2.7748336274115104 L-24.34391610747383,3.8965130692220793 L-25.33503523510479,6.433647692833118" fill-opacity="0" stroke="black" stroke-width="1" />
<path d="M-24.34391610747383,-3.8965130692220793 L-25.33503523510479,-6.433647692833118 L-37.81198809834101,-7.847115597381822" fill-opacity="0" stroke="black" stroke-width="1" />
<path d="M-24.34391610747383,3.8965130692220793 L-25.33503523510479,6.433647692833118 L-37.81198809834101,7.847115597381822" fill-opacity="0" stroke="black" stroke-width="1" />
<path d="M-25.33503523510479,-6.433647692833118 L-37.81198809834101,-7.847115597381822 L-45.0,-0.0" fill-opacity="0" stroke="black" stroke-width="1" />
<path d="M-25.33503523510479,6.433647692833118 L-37.81198809834101,7.847115597381822 L-45.0,-0.0" fill-opacity="0" stroke="black" stroke-width="1" />
<path d="M-50.0,-3.0 L-44.46487244168809,-9.282763846854753 L-44.744451073508344,-18.94398929862302" fill-opacity="0" stroke="black" stroke-width="1" />
<path d="M-50.0,3.0 L-44.46487244168809,9.282763846854753 L-44.744451073508344,18.94398929862302" fill-opacity="0" stroke="black" stroke-width="1" />
<path d="M-44.46487244168809,-9.282763846854753 L-44.744451073508344,-18.94398929862302 L-50.0,-20.0" fill-opacity="0" stroke="black" stroke-width="1" />
<path d="M-44.46487244168809,9.282763846854753 L-44.744451073508344,18.94398929862302 L-50.0,20.0" fill-opacity="0" stroke="black" stroke-width="1" />
<path d="M-50.0,-20.0 L-48.414260473440606,-21.408180674403095 L-49.42298788054483,-23.418546847145556" fill-opacity="0" stroke="black" stroke-width="1" />
<path d="M-50.0,20.0 L-48.414260473440606,21.408180674403095 L-49.42298788054483,23.418546847145556" fill-opacity="0" stroke="black" stroke-width="1" />
<path d="M-48.414260473440606,-21.408180674403095 L-49.42298788054483,-23.418546847145556 L-49.54563196207779,-29.899400668931424" fill-opacity="0" stroke="black" stroke-width="1" />
<path d="M-48.414260473440606,21.408180674403095 L-49.42298788054483,23.418546847145556 L-49.54563196207779,29.899400668931424" fill-opacity="0" stroke="black" stroke-width="1" />
<path d="M-49.42298788054483,-23.418546847145556 L-49.54563196207779,-29.899400668931424 L-50.0,-32.0" fill-opacity="0" stroke="black" stroke-width="1" />
<path d="M-49.42298788054483,23.418546847145556 L-49.54563196207779,29.899400668931424 L-50.0,32.0" fill-opacity="0" stroke="black" stroke-width="1" />
<path d="M-50.0,-50.0 L-49.76029230922221,-45.622263562650225 L-21.0,-21.0" fill-opacity="0" stroke="black" stroke-width="1" />
<path d="M-50.0,50.0 L-49.76029230922221,45.622263562650225 L-21.0,21.0" fill-opacity="0" stroke="black" stroke-width="1" />
<path d="M-45.622263562650225,50.23970769077779 L-21.0,79.0 L-9.0,91.0" fill-opacity="0" stroke="black" stroke-width="1" />
<path d="M-45.622263562650225,-50.23970769077779 L-21.0,-79.0 L-9.0,-91.0" fill-opacity="0" stroke="black" stroke-width="1" />
<path d="M-21.0,79.0 L-9.0,91.0 L-1.873099317950718,91.93194551715736" fill-opacity="0" stroke="black" stroke-width="1" />
<path d="M-21.0,-79.0 L-9.0,-91.0 L-1.873099317950718,-91.93194551715736" fill-opacity="0" stroke="black" stroke-width="1" />
<path d="M-9.0,-9.0 L-8.06805448284264,-1.873099317950718 L-6.565631599518823,-1.8621730547861648" fill-opacity="0" stroke="black" stroke-width="1" />
<path d="M-9.0,9.0 L-8.06805448284264,1.873099317950718 L-6.565631599518823,1.8621730547861648" fill-opacity="0" stroke="black" stroke-width="1" />
<path d="M-8.06805448284264,-1.873099317950718 L-6.565631599518823,-1.8621730547861648 L-5.923984810430777,-1.171415648484308" fill-opacity="0" stroke="black" stroke-width="1" />
<path d="M-8.06805448284264,1.873099317950718 L-6.565631599518823,1.8621730547861648 L-5.923984810430777,1.171415648484308" fill-opacity="0" stroke="black" stroke-width="1" />
<path d="M-6.565631599518823,-1.8621730547861648 L-5.923984810430777,-1.171415648484308 L-5.0,-5.0" fill-opacity="0" stroke="black" stroke-width="1" />
<path d="M-6.565631599518823,1.8621730547861648 L-5.923984810430777,1.171415648484308 L-5.0,5.0" fill-opacity="0" stroke="black" stroke-width="1" />
<path d="M-1.171415648484308,94.07601518956922 L-5.0,95.0 L-1.0524140347874305,97.52745407635692" fill-opacity="0" stroke="black" stroke-width="1" />
<path d="M-1.171415648484308,-94.07601518956923 L-5.0,-95.0 L-1.0524140347874305,-97.52745407635692" fill-opacity="0" stroke="black" stroke-width="1" />
<path d="M-5.0,-5.0 L-2.472545923643088,-1.0524140347874305 L-1.255927208725377,-0.40869052155942354" fill-opacity="0" stroke="black" stroke-width="1" />
<path d="M-5.0,5.0 L-2.472545923643088,1.0524140347874305 L-1.255927208725377,0.40869052155942354" fill-opacity="0" stroke="black" stroke-width="1" />
<path d="M-2.472545923643088,-1.0524140347874305 L-1.255927208725377,-0.40869052155942354 L0.0,-0.0" fill-opacity="0" stroke="black" stroke-width="1" />
<path d="M-2.472545923643088,1.0524140347874305 L-1.255927208725377,0.40869052155942354 L0.0,-0.0" fill-opacity="0" stroke="black" stroke-width="1" />
<path d="M100.0,-0.0 L85.00385006602227,2.0708760338758485 L82.93513277485884,2.5390199126730324" fill-opacity="0" stroke="black" stroke-width="1" />
<path d="M100.0,-0.0 L85.00385006602227,-2.0708760338758485 L82.93513277485884,-2.5390199126730324" fill-opacity="0" stroke="black" stroke-width="1" />
<path d="M85.00385006602227,2.0708760338758485 L82.93513277485884,2.5390199126730324 L78.0,-0.0" fill-opacity="0" stroke="black" stroke-width="1" />
<path d="M85.00385006602227,-2.0708760338758485 L82.93513277485884,-2.5390199126730324 L78.0,-0.0" fill-opacity="0" stroke="black" stroke-width="1" />
<path d="M78.0,-0.0 L77.7290394523454,2.7748336274115104 L75.65608389252617,3.8965130692220793" fill-opacity="0" stroke="black" stroke-width="1" />
<path d="M78.0,-0.0 L77.7290394523454,-2.7748336274115104 L75.65608389252617,-3.8965130692220793" fill-opacity="0" stroke="black" stroke-width="1" />
<path d="M77.7290394523454,2.7748336274115104 L75.65608389252617,3.8965130692220793 L74.66496476489522,6.433647692833118" fill-opacity="0" stroke="black" stroke-width="1" />
<path d="M77.7290394523454,-2.7748336274115104 L75.65608389252617,-3.8965130692220793 L74.66496476489522,-6.433647692833118" fill-opacity="0" stroke="black" stroke-width="1" />
<path d="M75.65608389252617,3.8965130692220793 L74.66496476489522,6.433647692833118 L62.18801190165899,7.847115597381822" fill-opacity="0" stroke="black" stroke-width="1" />
<path d="M75.65608389252617,-3.8965130692220793 L74.66496476489522,-6.433647692833118 L62.18801190165899,-7.847115597381822" fill-opacity="0" stroke="black" stroke-width="1" />
<path d="M74.66496476489522,6.433647692833118 L62.18801190165899,7.847115597381822 L55.0,-0.0" fill-opacity="0" stroke="black" stroke-width="1" />
<path d="M74.66496476489522,-6.433647692833118 L62.18801190165899,-7.847115597381822 L55.0,-0.0" fill-opacity="0" stroke="black" stroke-width="1" />
<path d="M50.0,3.0 L55.53512755831191,9.282763846854753 L55.255548926491656,18.94398929862302" fill-opacity="0" stroke="black" stroke-width="1" />
<path d="M50.0,-3.0 L55.53512755831191,-9.282763846854753 L55.255548926491656,-18.94398929862302" fill-opacity="0" stroke="black" stroke-width="1" />
<path d="M55.53512755831191,9.282763846854753 L55.255548926491656,18.94398929862302 L50.0,20.0" fill-opacity="0" stroke="black" stroke-width="1" />
<path d="M55.53512755831191,-9.282763846854753 L55.255548926491656,-18.94398929862302 L50.0,-20.0" fill-opacity="0" stroke="black" stroke-width="1" />
<path d="M50.0,20.0 L51.585739526559394,21.408180674403095 L50.57701211945517,23.418546847145556" fill-opacity="0" stroke="black" stroke-width="1" />
<path d="M50.0,-20.0 L51.585739526559394,-21.408180674403095 L50.57701211945517,-23.418546847145556" fill-opacity="0" stroke="black" stroke-width="1" />
<path d="M51.585739526559394,21.408180674403095 L50.57701211945517,23.418546847145556 L50.45436803792221,29.899400668931424" fill-opacity="0" stroke="black" stroke-width="1" />
<path d="M51.585739526559394,-21.408180674403095 L50.57701211945517,-23.418546847145556 L50.45436803792221,-29.899400668931424" fill-opacity="0" stroke="black" stroke-width="1" />
<path d="M50.57701211945517,23.418546847145556 L50.45436803792221,29.899400668931424 L50.0,32.0" fill-opacity="0" stroke="black" stroke-width="1" />
<path d="M50.57701211945517,-23.418546847145556 L50.45436803792221,-29.899400668931424 L50.0,-32.0" fill-opacity="0" stroke="black" stroke-width="1" />
<path d="M50.0,50.0 L50.23970769077779,45.622263562650225 L79.0,21.0" fill-opacity="0" stroke="black" stroke-width="1" />
<path d="M50.0,-50.0 L50.23970769077779,-45.622263562650225 L79.0,-21.0" fill-opacity="0" stroke="black" stroke-width="1" />
<path d="M50.23970769077779,45.622263562650225 L79.0,21.0 L91.0,9.0" fill-opacity="0" stroke="black" stroke-width="1" />
<path d="M50.23970769077779,-45.622263562650225 L79.0,-21.0 L91.0,-9.0" fill-opacity="0" stroke="black" stroke-width="1" />
<path d="M79.0,21.0 L91.0,9.0 L91.93194551715736,1.873099317950718" fill-opacity="0" stroke="black" stroke-width="1" />
<path d="M79.0,-21.0 L91.0,-9.0 L91.93194551715736,-1.873099317950718" fill-opacity="0" stroke="black" stroke-width="1" />
<path d="M91.0,9.0 L91.93194551715736,1.873099317950718 L93.43436840048118,1.8621730547861648" fill-opacity="0" stroke="black" stroke-width="1" />
<path d="M91.0,-9.0 L91.93194551715736,-1.873099317950718 L93.43436840048118,-1.8621730547861648" fill-opacity="0" stroke="black" stroke-width="1" />
<path d="M91.93194551715736,1.873099317950718 L93.43436840048118,1.8621730547861648 L94.07601518956923,1.171415648484308" fill-opacity="0" stroke="black" stroke-width="1" />
<path d="M91.93194551715736,-1.873099317950718 L93.43436840048118,-1.8621730547861648 L94.07601518956923,-1.171415648484308" fill-opacity="0" stroke="black" stroke-width="1" />
<path d="M93.43436840048118,1.8621730547861648 L94.07601518956923,1.171415648484308 L95.0,5.0" fill-opacity="0" stroke="black" stroke-width="1" />
<path d="M93.43436840048118,-1.8621730547861648 L94.07601518956923,-1.171415648484308 L95.0,-5.0" fill-opacity="0" stroke="black" stroke-width="1" />
<path d="M94.07601518956923,1.171415648484308 L95.0,5.0 L97.52745407635692,1.0524140347874305" fill-opacity="0" stroke="black" stroke-width="1" />
<path d="M94.07601518956923,-1.171415648484308 L95.0,-5.0 L97.52745407635692,-1.0524140347874305" fill-opacity="0" stroke="black" stroke-width="1" />
<path d="M95.0,5.0 L97.52745407635692,1.0524140347874305 L98.74407279127462,0.40869052155942354" fill-opacity="0" stroke="black" stroke-width="1" />
<path d="M95.0,-5.0 L97.52745407635692,-1.0524140347874305 L98.74407279127462,-0.40869052155942354" fill-opacity="0" stroke="black" stroke-width="1" />
<path d="M97.52745407635692,1.0524140347874305 L98.74407279127462,0.40869052155942354 L100.0,-0.0" fill-opacity="0" stroke="black" stroke-width="1" />
<path d="M97.52745407635692,-1.0524140347874305 L98.74407279127462,-0.40869052155942354 L100.0,-0.0" fill-opacity="0" stroke="black" stroke-width="1" />
<path d="M0.0,-0.0 L2.0708760338758485,-14.996149933977726 L2.5390199126730324,-17.06486722514116" fill-opacity="0" stroke="black" stroke-width="1" />
<path d="M0.0,-0.0 L2.0708760338758485,14.996149933977726 L2.5390199126730324,17.06486722514116" fill-opacity="0" stroke="black" stroke-width="1" />
<path d="M0.0,100.0 L2.0708760338758485,85.00385006602227 L2.5390199126730324,82.93513277485884" fill-opacity="0" stroke="black" stroke-width="1" />
<path d="M0.0,-100.0 L2.0708760338758485,-85.00385006602227 L2.5390199126730324,-82.93513277485884" fill-opacity="0" stroke="black" stroke-width="1" />
<path d="M2.0708760338758485,-14.996149933977726 L2.5390199126730324,-17.06486722514116 L0.0,-22.0" fill-opacity="0" stroke="black" stroke-width="1" />
<path d="M2.0708760338758485,14.996149933977726 L2.5390199126730324,17.06486722514116 L0.0,22.0" fill-opacity="0" stroke="black" stroke-width="1" />
<path d="M2.0708760338758485,85.00385006602227 L2.5390199126730324,82.93513277485884 L0.0,78.0" fill-opacity="0" stroke="black" stroke-width="1" />
<path d="M2.0708760338758485,-85.00385006602227 L2.5390199126730324,-82.93513277485884 L0.0,-78.0" fill-opacity="0" stroke="black" stroke-width="1" />
<path d="M0.0,-22.0 L2.7748336274115104,-22.2709605476546 L3.8965130692220793,-24.34391610747383" fill-opacity="0" stroke="black" stroke-width="1" />
<path d="M0.0,22.0 L2.7748336274115104,22.2709605476546 L3.8965130692220793,24.34391610747383" fill-opacity="0" stroke="black" stroke-width="1" />
<path d="M0.0,78.0 L2.7748336274115104,77.7290394523454 L3.8965130692220793,75.65608389252617" fill-opacity="0" stroke="black" stroke-width="1" />
<path d="M0.0,-78.0 L2.7748336274115104,-77.7290394523454 L3.8965130692220793,-75.65608389252617" fill-opacity="0" stroke="black" stroke-width="1" />
<path d="M2.7748336274115104,-22.2709605476546 L3.8965130692220793,-24.34391610747383 L6.433647692833118,-25.33503523510479" fill-opacity="0" stroke="black" stroke-width="1" />
<path d="M2.7748336274115104,22.2709605476546 L3.8965130692220793,24.34391610747383 L6.433647692833118,25.33503523510479" fill-opacity="0" stroke="black" stroke-width="1" />
<path d="M2.7748336274115104,77.7290394523454 L3.8965130692220793,75.65608389252617 L6.433647692833118,74.66496476489522" fill-opacity="0" stroke="black" stroke-width="1" />
<path d="M2.7748336274115104,-77.7290394523454 L3.8965130692220793,-75.65608389252617 L6.433647692833118,-74.66496476489522" fill-opacity="0" stroke="black" stroke-width="1" />
<path d="M3.8965130692220793,-24.34391610747383 L6.433647692833118,-25.33503523510479 L7.847115597381822,-37.81198809834101" fill-opacity="0" stroke="black" stroke-width="1" />
<path d="M3.8965130692220793,24.34391610747383 L6.433647692833118,25.33503523510479 L7.847115597381822,37.81198809834101" fill-opacity="0" stroke="black" stroke-width="1" />
<path d="M3.8965130692220793,75.65608389252617 L6.433647692833118,74.66496476489522 L7.847115597381822,62.18801190165899" fill-opacity="0" stroke="black" stroke-width="1" />
<path d="M3.8965130692220793,-75.65608389252617 L6.433647692833118,-74.66496476489522 L7.847115597381822,-62.18801190165899" fill-opacity="0" stroke="black" stroke-width="1" />
<path d="M6.433647692833118,-25.33503523510479 L7.847115597381822,-37.81198809834101 L0.0,-45.0" fill-opacity="0" stroke="black" stroke-width="1" />
<path d="M6.433647692833118,25.33503523510479 L7.847115597381822,37.81198809834101 L0.0,45.0" fill-opacity="0" stroke="black" stroke-width="1" />
<path d="M6.433647692833118,74.66496476489522 L7.847115597381822,62.18801190165899 L0.0,55.0" fill-opacity="0" stroke="black" stroke-width="1" />
<path d="M6.433647692833118,-74.66496476489522 L7.847115597381822,-62.18801190165899 L0.0,-55.0" fill-opacity="0" stroke="black" stroke-width="1" />
<path d="M3.0,-50.0 L9.282763846854753,-44.46487244168809 L18.94398929862302,-44.744451073508344" fill-opacity="0" stroke="black" stroke-width="1" />
<path d="M3.0,50.0 L9.282763846854753,44.46487244168809 L18.94398929862302,44.744451073508344" fill-opacity="0" stroke="black" stroke-width="1" />
<path d="M3.0,50.0 L9.282763846854753,55.53512755831191 L18.94398929862302,55.255548926491656" fill-opacity="0" stroke="black" stroke-width="1" />
<path d="M3.0,-50.0 L9.282763846854753,-55.53512755831191 L18.94398929862302,-55.255548926491656" fill-opacity="0" stroke="black" stroke-width="1" />
<path d="M9.282763846854753,-44.46487244168809 L18.94398929862302,-44.744451073508344 L20.0,-50.0" fill-opacity="0" stroke="black" stroke-width="1" />
<path d="M9.282763846854753,44.46487244168809 L18.94398929862302,44.744451073508344 L20.0,50.0" fill-opacity="0" stroke="black" stroke-width="1" />
<path d="M9.282763846854753,55.53512755831191 L18.94398929862302,55.255548926491656 L20.0,50.0" fill-opacity="0" stroke="black" stroke-width="1" />
<path d="M9.282763846854753,-55.53512755831191 L18.94398929862302,-55.255548926491656 L20.0,-50.0" fill-opacity="0" stroke="black" stroke-width="1" />
<path d="M20.0,-50.0 L21.408180674403095,-48.414260473440606 L23.418546847145556,-49.42298788054483" fill-opacity="0" stroke="black" stroke-width="1" />
<path d="M20.0,50.0 L21.408180674403095,48.414260473440606 L23.418546847145556,49.42298788054483" fill-opacity="0" stroke="black" stroke-width="1" />
<path d="M20.0,50.0 L21.408180674403095,51.585739526559394 L23.418546847145556,50.57701211945517" fill-opacity="0" stroke="black" stroke-width="1" />
<path d="M20.0,-50.0 L21.408180674403095,-51.585739526559394 L23.418546847145556,-50.57701211945517" fill-opacity="0" stroke="black" stroke-width="1" />
<path d="M21.408180674403095,-48.414260473440606 L23.418546847145556,-49.42298788054483 L29.899400668931424,-49.54563196207779" fill-opacity="0" stroke="black" stroke-width="1" />
<path d="M21.408180674403095,48.414260473440606 L23.418546847145556,49.42298788054483 L29.899400668931424,49.54563196207779" fill-opacity="0" stroke="black" stroke-width="1" />
<path d="M21.408180674403095,51.585739526559394 L23.418546847145556,50.57701211945517 L29.899400668931424,50.45436803792221" fill-opacity="0" stroke="black" stroke-width="1" />
<path d="M21.408180674403095,-51.585739526559394 L23.418546847145556,-50.57701211945517 L29.899400668931424,-50.45436803792221" fill-opacity="0" stroke="black" stroke-width="1" />
<path d="M23.418546847145556,-49.42298788054483 L29.899400668931424,-49.54563196207779 L32.0,-50.0" fill-opacity="0" stroke="black" stroke-width="1" />
<path d="M23.418546847145556,49.42298788054483 L29.899400668931424,49.54563196207779 L32.0,50.0" fill-opacity="0" stroke="black" stroke-width="1" />
<path d="M23.418546847145556,50.57701211945517 L29.899400668931424,50.45436803792221 L32.0,50.0" fill-opacity="0" stroke="black" stroke-width="1" />
<path d="M23.418546847145556,-50.57701211945517 L29.899400668931424,-50.45436803792221 L32.0,-50.0" fill-opacity="0" stroke="black" stroke-width="1" />
<path d="M50.0,-50.0 L45.622263562650225,-49.76029230922221 L21.0,-21.0" fill-opacity="0" stroke="black" stroke-width="1" />
<path d="M50.0,50.0 L45.622263562650225,49.76029230922221 L21.0,21.0" fill-opacity="0" stroke="black" stroke-width="1" />
<path d="M50.0,50.0 L45.622263562650225,50.23970769077779 L21.0,79.0" fill-opacity="0" stroke="black" stroke-width="1" />
<path d="M50.0,-50.0 L45.622263562650225,-50.23970769077779 L21.0,-79.0" fill-opacity="0" stroke="black" stroke-width="1" />
<path d="M9.0,-9.0 L1.873099317950718,-8.06805448284264 L1.8621730547861648,-6.565631599518823" fill-opacity="0" stroke="black" stroke-width="1" />
<path d="M9.0,9.0 L1.873099317950718,8.06805448284264 L1.8621730547861648,6.565631599518823" fill-opacity="0" stroke="black" stroke-width="1" />
<path d="M9.0,91.0 L1.873099317950718,91.93194551715736 L1.8621730547861648,93.43436840048118" fill-opacity="0" stroke="black" stroke-width="1" />
<path d="M9.0,-91.0 L1.873099317950718,-91.93194551715736 L1.8621730547861648,-93.43436840048118" fill-opacity="0" stroke="black" stroke-width="1" />
<path d="M1.873099317950718,-8.06805448284264 L1.8621730547861648,-6.565631599518823 L1.171415648484308,-5.923984810430777" fill-opacity="0" stroke="black" stroke-width="1" />
<path d="M1.873099317950718,8.06805448284264 L1.8621730547861648,6.565631599518823 L1.171415648484308,5.923984810430777" fill-opacity="0" stroke="black" stroke-width="1" />
<path d="M1.873099317950718,91.93194551715736 L1.8621730547861648,93.43436840048118 L1.171415648484308,94.07601518956923" fill-opacity="0" stroke="black" stroke-width="1" />
<path d="M1.873099317950718,-91.93194551715736 L1.8621730547861648,-93.43436840048118 L1.171415648484308,-94.07601518956923" fill-opacity="0" stroke="black" stroke-width="1" />
<path d="M1.8621730547861648,-6.565631599518823 L1.171415648484308,-5.923984810430777 L5.0,-5.0" fill-opacity="0" stroke="black" stroke-width="1" />
<path d="M1.8621730547861648,6.565631599518823 L1.171415648484308,5.923984810430777 L5.0,5.0" fill-opacity="0" stroke="black" stroke-width="1" />
<path d="M1.8621730547861648,93.43436840048118 L1.171415648484308,94.07601518956923 L5.0,95.0" fill-opacity="0" stroke="black" stroke-width="1" />
<path d="M1.8621730547861648,-93.43436840048118 L1.171415648484308,-94.07601518956923 L5.0,-95.0" fill-opacity="0" stroke="black" stroke-width="1" />
<path d="M5.0,-5.0 L1.0524140347874305,-2.472545923643088 L0.40869052155942354,-1.255927208725377" fill-opacity="0" stroke="black" stroke-width="1" />
<path d="M5.0,5.0 L1.0524140347874305,2.472545923643088 L0.40869052155942354,1.255927208725377" fill-opacity="0" stroke="black" stroke-width="1" />
<path d="M5.0,95.0 L1.0524140347874305,97.52745407635692 L0.40869052155942354,98.74407279127462" fill-opacity="0" stroke="black" stroke-width="1" />
<path d="M5.0,-95.0 L1.0524140347874305,-97.52745407635692 L0.40869052155942354,-98.74407279127462" fill-opacity="0" stroke="black" stroke-width="1" />
<path d="M1.0524140347874305,-2.472545923643088 L0.40869052155942354,-1.255927208725377 L0.0,-0.0" fill-opacity="0" stroke="black" stroke-width="1" />
<path d="M1.0524140347874305,2.472545923643088 L0.40869052155942354,1.255927208725377 L0.0,-0.0" fill-opacity="0" stroke="black" stroke-width="1" />
<path d="M1.0524140347874305,97.52745407635692 L0.40869052155942354,98.74407279127462 L0.0,100.0" fill-opacity="0" stroke="black" stroke-width="1" />
<path d="M1.0524140347874305,-97.52745407635692 L0.40869052155942354,-98.74407279127462 L0.0,-100.0" fill-opacity="0" stroke="black" stroke-width="1" />
<path d="M0.0,100.0 L-2.0708760338758485,85.00385006602227 L-2.5390199126730324,82.93513277485884" fill-opacity="0" stroke="black" stroke-width="1" />
<path d="M0.0,-0.0 L-2.0708760338758485,-14.996149933977726 L-2.5390199126730324,-17.06486722514116" fill-opacity="0" stroke="black" stroke-width="1" />
<path d="M0.0,-0.0 L-2.0708760338758485,14.996149933977733 L-2.5390199126730324,17.064867225141157" fill-opacity="0" stroke="black" stroke-width="1" />
<path d="M0.0,-100.0 L-2.0708760338758485,-85.00385006602227 L-2.5390199126730324,-82.93513277485884" fill-opacity="0" stroke="black" stroke-width="1" />
<path d="M-2.0708760338758485,85.00385006602227 L-2.5390199126730324,82.93513277485884 L0.0,78.0" fill-opacity="0" stroke="black" stroke-width="1" />
<path d="M-2.0708760338758485,-14.996149933977726 L-2.5390199126730324,-17.06486722514116 L0.0,-22.0" fill-opacity="0" stroke="black" stroke-width="1" />
<path d="M-2.0708760338758485,14.996149933977733 L-2.5390199126730324,17.064867225141157 L0.0,22.0" fill-opacity="0" stroke="black" stroke-width="1" />
<path d="M-2.0708760338758485,-85.00385006602227 L-2.5390199126730324,-82.93513277485884 L0.0,-78.0" fill-opacity="0" stroke="black" stroke-width="1" />
<path d="M0.0,78.0 L-2.7748336274115104,77.7290394523454 L-3.8965130692220793,75.65608389252617" fill-opacity="0" stroke="black" stroke-width="1" />
<path d="M0.0,-22.0 L-2.7748336274115104,-22.2709605476546 L-3.8965130692220793,-24.34391610747383" fill-opacity="0" stroke="black" stroke-width="1" />
<path d="M0.0,22.0 L-2.7748336274115104,22.270960547654596 L-3.8965130692220793,24.34391610747383" fill-opacity="0" stroke="black" stroke-width="1" />
<path d="M0.0,-78.0 L-2.7748336274115104,-77.7290394523454 L-3.8965130692220793,-75.65608389252617" fill-opacity="0" stroke="black" stroke-width="1" />
<path d="M-2.7748336274115104,77.7290394523454 L-3.8965130692220793,75.65608389252617 L-6.433647692833118,74.66496476489522" fill-opacity="0" stroke="black" stroke-width="1" />
<path d="M-2.7748336274115104,-22.2709605476546 L-3.8965130692220793,-24.34391610747383 L-6.433647692833118,-25.33503523510479" fill-opacity="0" stroke="black" stroke-width="1" />
<path d="M-2.7748336274115104,22.270960547654596 L-3.8965130692220793,24.34391610747383 L-6.433647692833118,25.335035235104783" fill-opacity="0" stroke="black" stroke-width="1" />
<path d="M-2.7748336274115104,-77.7290394523454 L-3.8965130692220793,-75.65608389252617 L-6.433647692833118,-74.66496476489522" fill-opacity="0" stroke="black" stroke-width="1" />
<path d="M-3.8965130692220793,75.65608389252617 L-6.433647692833118,74.66496476489522 L-7.847115597381822,62.18801190165899" fill-opacity="0" stroke="black" stroke-width="1" />
<path d="M-3.8965130692220793,-24.34391610747383 L-6.433647692833118,-25.33503523510479 L-7.847115597381822,-37.81198809834101" fill-opacity="0" stroke="black" stroke-width="1" />
<path d="M-3.8965130692220793,24.34391610747383 L-6.433647692833118,25.335035235104783 L-7.847115597381822,37.81198809834101" fill-opacity="0" stroke="black" stroke-width="1" />
<path d="M-3.8965130692220793,-75.65608389252617 L-6.433647692833118,-74.66496476489522 L-7.847115597381822,-62.18801190165899" fill-opacity="0" stroke="black" stroke-width="1" />
<path d="M-6.433647692833118,74.66496476489522 L-7.847115597381822,62.18801190165899 L0.0,55.0" fill-opacity="0" stroke="black" stroke-width="1" />
<path d="M-6.433647692833118,-25.33503523510479 L-7.847115597381822,-37.81198809834101 L0.0,-45.0" fill-opacity="0" stroke="black" stroke-width="1" />
<path d="M-6.433647692833118,25.335035235104783 L-7.847115597381822,37.81198809834101 L0.0,45.0" fill-opacity="0" stroke="black" stroke-width="1" />
<path d="M-6.433647692833118,-74.66496476489522 L-7.847115597381822,-62.18801190165899 L0.0,-55.0" fill-opacity="0" stroke="black" stroke-width="1" />
<path d="M-3.0,50.0 L-9.282763846854753,55.53512755831191 L-18.94398929862302,55.255548926491656" fill-opacity="0" stroke="black" stroke-width="1" />
<path d="M-3.0,-50.0 L-9.282763846854753,-44.46487244168809 L-18.94398929862302,-44.744451073508344" fill-opacity="0" stroke="black" stroke-width="1" />
<path d="M-3.0,50.0 L-9.282763846854753,44.46487244168809 L-18.94398929862302,44.744451073508344" fill-opacity="0" stroke="black" stroke-width="1" />
<path d="M-3.0,-50.0 L-9.282763846854753,-55.53512755831191 L-18.94398929862302,-55.255548926491656" fill-opacity="0" stroke="black" stroke-width="1" />
<path d="M-9.282763846854753,55.53512755831191 L-18.94398929862302,55.255548926491656 L-20.0,50.0" fill-opacity="0" stroke="black" stroke-width="1" />
<path d="M-9.282763846854753,-44.46487244168809 L-18.94398929862302,-44.744451073508344 L-20.0,-50.0" fill-opacity="0" stroke="black" stroke-width="1" />
<path d="M-9.282763846854753,44.46487244168809 L-18.94398929862302,44.744451073508344 L-20.0,50.0" fill-opacity="0" stroke="black" stroke-width="1" />
<path d="M-9.282763846854753,-55.53512755831191 L-18.94398929862302,-55.255548926491656 L-20.0,-50.0" fill-opacity="0" stroke="black" stroke-width="1" />
<path d="M-20.0,50.0 L-21.408180674403095,51.585739526559394 L-23.418546847145556,50.57701211945517" fill-opacity="0" stroke="black" stroke-width="1" />
<path d="M-20.0,-50.0 L-21.408180674403095,-48.414260473440606 L-23.418546847145556,-49.42298788054483" fill-opacity="0" stroke="black" stroke-width="1" />
<path d="M-20.0,50.0 L-21.408180674403095,48.414260473440606 L-23.418546847145556,49.42298788054483" fill-opacity="0" stroke="black" stroke-width="1" />
<path d="M-20.0,-50.0 L-21.408180674403095,-51.585739526559394 L-23.418546847145556,-50.57701211945517" fill-opacity="0" stroke="black" stroke-width="1" />
<path d="M-21.408180674403095,51.585739526559394 L-23.418546847145556,50.57701211945517 L-29.899400668931424,50.45436803792221" fill-opacity="0" stroke="black" stroke-width="1" />
<path d="M-21.408180674403095,-48.414260473440606 L-23.418546847145556,-49.42298788054483 L-29.899400668931424,-49.54563196207779" fill-opacity="0" stroke="black" stroke-width="1" />
<path d="M-21.408180674403095,48.414260473440606 L-23.418546847145556,49.42298788054483 L-29.899400668931424,49.54563196207779" fill-opacity="0" stroke="black" stroke-width="1" />
<path d="M-21.408180674403095,-51.585739526559394 L-23.418546847145556,-50.57701211945517 L-29.899400668931424,-50.45436803792221" fill-opacity="0" stroke="black" stroke-width="1" />
<path d="M-23.418546847145556,50.57701211945517 L-29.899400668931424,50.45436803792221 L-32.0,50.0" fill-opacity="0" stroke="black" stroke-width="1" />
<path d="M-23.418546847145556,-49.42298788054483 L-29.899400668931424,-49.54563196207779 L-32.0,-50.0" fill-opacity="0" stroke="black" stroke-width="1" />
<path d="M-23.418546847145556,49.42298788054483 L-29.899400668931424,49.54563196207779 L-32.0,50.0" fill-opacity="0" stroke="black" stroke-width="1" />
<path d="M-23.418546847145556,-50.57701211945517 L-29.899400668931424,-50.45436803792221 L-32.0,-50.0" fill-opacity="0" stroke="black" stroke-width="1" />
<path d="M-50.0,50.0 L-45.622263562650225,50.23970769077779 L-21.0,79.0" fill-opacity="0" stroke="black" stroke-width="1" />
<path d="M-50.0,-50.0 L-45.622263562650225,-49.76029230922221 L-21.0,-21.0" fill-opacity="0" stroke="black" stroke-width="1" />
<path d="M-50.0,50.0 L-45.622263562650225,49.76029230922221 L-21.0,21.0" fill-opacity="0" stroke="black" stroke-width="1" />
<path d="M-50.0,-50.0 L-45.622263562650225,-50.23970769077779 L-21.0,-79.0" fill-opacity="0" stroke="black" stroke-width="1" />
<path d="M-9.0,91.0 L-1.873099317950718,91.93194551715736 L-1.8621730547861648,93.43436840048118" fill-opacity="0" stroke="black" stroke-width="1" />
<path d="M-9.0,-9.0 L-1.873099317950718,-8.06805448284264 L-1.8621730547861648,-6.565631599518823" fill-opacity="0" stroke="black" stroke-width="1" />
<path d="M-9.0,9.0 L-1.873099317950718,8.06805448284264 L-1.8621730547861648,6.565631599518824" fill-opacity="0" stroke="black" stroke-width="1" />
<path d="M-9.0,-91.0 L-1.873099317950718,-91.93194551715736 L-1.8621730547861648,-93.43436840048118" fill-opacity="0" stroke="black" stroke-width="1" />
<path d="M-1.873099317950718,91.93194551715736 L-1.8621730547861648,93.43436840048118 L-1.171415648484308,94.07601518956922" fill-opacity="0" stroke="black" stroke-width="1" />
<path d="M-1.873099317950718,-8.06805448284264 L-1.8621730547861648,-6.565631599518823 L-1.171415648484308,-5.923984810430777" fill-opacity="0" stroke="black" stroke-width="1" />
<path d="M-1.873099317950718,8.06805448284264 L-1.8621730547861648,6.565631599518824 L-1.171415648484308,5.923984810430781" fill-opacity="0" stroke="black" stroke-width="1" />
<path d="M-1.873099317950718,-91.93194551715736 L-1.8621730547861648,-93.43436840048118 L-1.171415648484308,-94.07601518956923" fill-opacity="0" stroke="black" stroke-width="1" />
<path d="M-1.8621730547861648,93.43436840048118 L-1.171415648484308,94.07601518956922 L-5.0,95.0" fill-opacity="0" stroke="black" stroke-width="1" />
<path d="M-1.8621730547861648,-6.565631599518823 L-1.171415648484308,-5.923984810430777 L-5.0,-5.0" fill-opacity="0" stroke="black" stroke-width="1" />
<path d="M-1.8621730547861648,6.565631599518824 L-1.171415648484308,5.923984810430781 L-5.0,5.0" fill-opacity="0" stroke="black" stroke-width="1" />
<path d="M-1.8621730547861648,-93.43436840048118 L-1.171415648484308,-94.07601518956923 L-5.0,-95.0" fill-opacity="0" stroke="black" stroke-width="1" />
<path d="M-5.0,95.0 L-1.0524140347874305,97.52745407635692 L-0.40869052155942354,98.74407279127462" fill-opacity="0" stroke="black" stroke-width="1" />
<path d="M-5.0,-5.0 L-1.0524140347874305,-2.472545923643088 L-0.40869052155942354,-1.255927208725377" fill-opacity="0" stroke="black" stroke-width="1" />
<path d="M-5.0,5.0 L-1.0524140347874305,2.4725459236430822 L-0.40869052155942354,1.2559272087253817" fill-opacity="0" stroke="black" stroke-width="1" />
<path d="M-5.0,-95.0 L-1.0524140347874305,-97.52745407635692 L-0.40869052155942354,-98.74407279127462" fill-opacity="0" stroke="black" stroke-width="1" />
<path d="M-1.0524140347874305,97.52745407635692 L-0.40869052155942354,98.74407279127462 L0.0,100.0" fill-opacity="0" stroke="black" stroke-width="1" />
<path d="M-1.0524140347874305,-2.472545923643088 L-0.40869052155942354,-1.255927208725377 L0.0,-0.0" fill-opacity="0" stroke="black" stroke-width="1" />
<path d="M-1.0524140347874305,2.4725459236430822 L-0.40869052155942354,1.2559272087253817 L0.0,-0.0" fill-opacity="0" stroke="black" stroke-width="1" />
<path d="M-1.0524140347874305,-97.52745407635692 L-0.40869052155942354,-98.74407279127462 L0.0,-100.0" fill-opacity="0" stroke="black" stroke-width="1" />
<path d="M-100.0,-0.0 L-85.00385006602227,-2.0708760338758485 L-82.93513277485884,-2.5390199126730324" fill-opacity="0" stroke="black" stroke-width="1" />
<path d="M-100.0,-0.0 L-85.00385006602227,2.0708760338758485 L-82.93513277485884,2.5390199126730324" fill-opacity="0" stroke="black" stroke-width="1" />
<path d="M-85.00385006602227,-2.0708760338758485 L-82.93513277485884,-2.5390199126730324 L-78.0,-0.0" fill-opacity="0" stroke="black" stroke-width="1" />
<path d="M-85.00385006602227,2.0708760338758485 L-82.93513277485884,2.5390199126730324 L-78.0,-0.0" fill-opacity="0" stroke="black" stroke-width="1" />
<path d="M-78.0,-0.0 L-77.7290394523454,-2.7748336274115104 L-75.65608389252617,-3.8965130692220793" fill-opacity="0" stroke="black" stroke-width="1" />
<path d="M-78.0,-0.0 L-77.7290394523454,2.7748336274115104 L-75.65608389252617,3.8965130692220793" fill-opacity="0" stroke="black" stroke-width="1" />
<path d="M-77.7290394523454,-2.7748336274115104 L-75.65608389252617,-3.8965130692220793 L-74.66496476489522,-6.433647692833118" fill-opacity="0" stroke="black" stroke-width="1" />
<path d="M-77.7290394523454,2.7748336274115104 L-75.65608389252617,3.8965130692220793 L-74.66496476489522,6.433647692833118" fill-opacity="0" stroke="black" stroke-width="1" />
<path d="M-75.65608389252617,-3.8965130692220793 L-74.66496476489522,-6.433647692833118 L-62.18801190165899,-7.847115597381822" fill-opacity="0" stroke="black" stroke-width="1" />
<path d="M-75.65608389252617,3.8965130692220793 L-74.66496476489522,6.433647692833118 L-62.18801190165899,7.847115597381822" fill-opacity="0" stroke="black" stroke-width="1" />
<path d="M-74.66496476489522,-6.433647692833118 L-62.18801190165899,-7.847115597381822 L-55.0,-0.0" fill-opacity="0" stroke="black" stroke-width="1" />
<path d="M-74.66496476489522,6.433647692833118 L-62.18801190165899,7.847115597381822 L-55.0,-0.0" fill-opacity="0" stroke="black" stroke-width="1" />
<path d="M-50.0,-3.0 L-55.53512755831191,-9.282763846854753 L-55.255548926491656,-18.94398929862302" fill-opacity="0" stroke="black" stroke-width="1" />
<path d="M-50.0,3.0 L-55.53512755831191,9.282763846854753 L-55.255548926491656,18.94398929862302" fill-opacity="0" stroke="black" stroke-width="1" />
<path d="M-55.53512755831191,-9.282763846854753 L-55.255548926491656,-18.94398929862302 L-50.0,-20.0" fill-opacity="0" stroke="black" stroke-width="1" />
<path d="M-55.53512755831191,9.282763846854753 L-55.255548926491656,18.94398929862302 L-50.0,20.0" fill-opacity="0" stroke="black" stroke-width="1" />
<path d="M-50.0,-20.0 L-51.585739526559394,-21.408180674403095 L-50.57701211945517,-23.418546847145556" fill-opacity="0" stroke="black" stroke-width="1" />
<path d="M-50.0,20.0 L-51.585739526559394,21.408180674403095 L-50.57701211945517,23.418546847145556" fill-opacity="0" stroke="black" stroke-width="1" />
<path d="M-51.585739526559394,-21.408180674403095 L-50.57701211945517,-23.418546847145556 L-50.45436803792221,-29.899400668931424" fill-opacity="0" stroke="black" stroke-width="1" />
<path d="M-51.585739526559394,21.408180674403095 L-50.57701211945517,23.418546847145556 L-50.45436803792221,29.899400668931424" fill-opacity="0" stroke="black" stroke-width="1" />
<path d="M-50.57701211945517,-23.418546847145556 L-50.45436803792221,-29.899400668931424 L-50.0,-32.0" fill-opacity="0" stroke="black" stroke-width="1" />
<path d="M-50.57701211945517,23.418546847145556 L-50.45436803792221,29.899400668931424 L-50.0,32.0" fill-opacity="0" stroke="black" stroke-width="1" />
<path d="M-50.0,-50.0 L-50.23970769077779,-45.622263562650225 L-79.0,-21.0" fill-opacity="0" stroke="black" stroke-width="1" />
<path d="M-50.0,50.0 L-50.23970769077779,45.622263562650225 L-79.0,21.0" fill-opacity="0" stroke="black" stroke-width="1" />
<path d="M-50.23970769077779,-45.622263562650225 L-79.0,-21.0 L-91.0,-9.0" fill-opacity="0" stroke="black" stroke-width="1" />
<path d="M-50.23970769077779,45.622263562650225 L-79.0,21.0 L-91.0,9.0" fill-opacity="0" stroke="black" stroke-width="1" />
<path d="M-79.0,-21.0 L-91.0,-9.0 L-91.93194551715736,-1.873099317950718" fill-opacity="0" stroke="black" stroke-width="1" />
<path d="M-79.0,21.0 L-91.0,9.0 L-91.93194551715736,1.873099317950718" fill-opacity="0" stroke="black" stroke-width="1" />
<path d="M-91.0,-9.0 L-91.93194551715736,-1.873099317950718 L-93.43436840048118,-1.8621730547861648" fill-opacity="0" stroke="black" stroke-width="1" />
<path d="M-91.0,9.0 L-91.93194551715736,1.873099317950718 L-93.43436840048118,1.8621730547861648" fill-opacity="0" stroke="black" stroke-width="1" />
<path d="M-91.93194551715736,-1.873099317950718 L-93.43436840048118,-1.8621730547861648 L-94.07601518956923,-1.171415648484308" fill-opacity="0" stroke="black" stroke-width="1" />
<path d="M-91.93194551715736,1.873099317950718 L-93.43436840048118,1.8621730547861648 L-94.07601518956923,1.171415648484308" fill-opacity="0" stroke="black" stroke-width="1" />
<path d="M-93.43436840048118,-1.8621730547861648 L-94.07601518956923,-1.171415648484308 L-95.0,-5.0" fill-opacity="0" stroke="black" stroke-width="1" />
<path d="M-93.43436840048118,1.8621730547861648 L-94.07601518956923,1.171415648484308 L-95.0,5.0" fill-opacity="0" stroke="black" stroke-width="1" />
<path d="M-94.07601518956923,-1.171415648484308 L-95.0,-5.0 L-97.52745407635692,-1.0524140347874305" fill-opacity="0" stroke="black" stroke-width="1" />
<path d="M-94.07601518956923,1.171415648484308 L-95.0,5.0 L-97.52745407635692,1.0524140347874305" fill-opacity="0" stroke="black" stroke-width="1" />
<path d="M-95.0,-5.0 L-97.52745407635692,-1.0524140347874305 L-98.74407279127462,-0.40869052155942354" fill-opacity="0" stroke="black" stroke-width="1" />
<path d="M-95.0,5.0 L-97.52745407635692,1.0524140347874305 L-98.74407279127462,0.40869052155942354" fill-opacity="0" stroke="black" stroke-width="1" />
<path d="M-97.52745407635692,-1.0524140347874305 L-98.74407279127462,-0.40869052155942354 L-100.0,-0.0" fill-opacity="0" stroke="black" stroke-width="1" />
<path d="M-97.52745407635692,1.0524140347874305 L-98.74407279127462,0.40869052155942354 L-100.0,-0.0" fill-opacity="0" stroke="black" stroke-width="1" />
<circle cx="0" cy="-97" r="8" stroke-dasharray="39.653880605311166 10.611601852125524" stroke-dashoffset="-17.59291886010284" stroke="black" stroke-width="1" fill="white" fill-opacity="1" />
<circle cx="0" cy="-97" r="4" stroke="black" stroke-width="1" fill="white" fill-opacity="1" />
</svg>