<?xml version="1.0" encoding="UTF-8"?>
<svg xmlns="http://www.w3.org/2000/svg" xmlns:xlink="http://www.w3.org/1999/xlink"
     width="250" height="250" viewBox="-125.0 -125.0 250 250">
<defs>
</defs>
<path d="M0.0,-0.0 L11.453221382653277,-1.2342207892210688 L12.555894323028514,-1.8084963153154596" fill="blue" fill-opacity="0.6" stroke="black" stroke-width="1" />
<path d="M0.0,-0.0 L11.453221382653277,1.2342207892210688 L12.555894323028514,1.8084963153154596" fill="orange" fill-opacity="0.6" stroke="black" stroke-width="1" />
<path d="M11.453221382653277,-1.2342207892210688 L12.555894323028514,-1.8084963153154596 L13.450958660134845,-2.2710258854915564" fill="black" fill-opacity="0.6" stroke="black" stroke-width="1" />
<path d="M11.453221382653277,1.2342207892210688 L12.555894323028514,1.8084963153154596 L13.450958660134845,2.2710258854915564" fill="brown" fill-opacity="0.6" stroke="black" stroke-width="1" />
<path d="M12.555894323028514,-1.8084963153154596 L13.450958660134845,-2.2710258854915564 L14.0,-0.0" fill="pink" fill-opacity="0.6" stroke="black" stroke-width="1" />
<path d="M12.555894323028514,1.8084963153154596 L13.450958660134845,2.2710258854915564 L14.0,-0.0" fill="orange" fill-opacity="0.6" stroke="black" stroke-width="1" />
<path d="M14.0,-0.0 L21.093244452272337,-2.6477207931627387 L21.18642557324792,-3.3291460674645306" fill="green" fill-opacity="0.6" stroke="black" stroke-width="1" />
<path d="M14.0,-0.0 L21.093244452272337,2.6477207931627387 L21.18642557324792,3.3291460674645306" fill="yellow" fill-opacity="0.6" stroke="black" stroke-width="1" />
<path d="M21.093244452272337,-2.6477207931627387 L21.18642557324792,-3.3291460674645306 L26.0,-0.0" fill="pink" fill-opacity="0.6" stroke="black" stroke-width="1" />
<path d="M21.093244452272337,2.6477207931627387 L21.18642557324792,3.3291460674645306 L26.0,-0.0" fill="purple" fill-opacity="0.6" stroke="black" stroke-width="1" />
<path d="M26.0,-0.0 L26.930717164484864,-3.5953306651330896 L31.0,-0.0" fill="green" fill-opacity="0.6" stroke="black" stroke-width="1" />
<path d="M26.0,-0.0 L26.930717164484864,3.5953306651330896 L31.0,-0.0" fill="green" fill-opacity="0.6" stroke="black" stroke-width="1" />
<path d="M33.0,-0.0 L36.780913288429595,-8.109094656458499 L37.94256666121457,-8.629073936617704" fill="brown" fill-opacity="0.6" stroke="black" stroke-width="1" />
<path d="M33.0,-0.0 L36.780913288429595,8.109094656458499 L37.94256666121457,8.629073936617704" fill="black" fill-opacity="0.6" stroke="black" stroke-width="1" />
<path d="M36.780913288429595,-8.109094656458499 L37.94256666121457,-8.629073936617704 L39.0,-0.0" fill="green" fill-opacity="0.6" stroke="black" stroke-width="1" />
<path d="M36.780913288429595,8.109094656458499 L37.94256666121457,8.629073936617704 L39.0,-0.0" fill="red" fill-opacity="0.6" stroke="black" stroke-width="1" />
<path d="M39.0,-0.0 L39.44139358411235,-8.851189776471657 L50.0,-0.0" fill="red" fill-opacity="0.6" stroke="black" stroke-width="1" />
<path d="M39.0,-0.0 L39.44139358411235,8.851189776471657 L50.0,-0.0" fill="purple" fill-opacity="0.6" stroke="black" stroke-width="1" />
<path d="M50.0,-7.0 L40.59036480580988,-9.415192455371708 L40.68641432186728,-10.025072869315876" fill="blue" fill-opacity="0.6" stroke="black" stroke-width="1" />
<path d="M50.0,7.0 L40.59036480580988,9.415192455371708 L40.68641432186728,10.025072869315876" fill="blue" fill-opacity="0.6" stroke="black" stroke-width="1" />
<path d="M40.59036480580988,-9.415192455371708 L40.68641432186728,-10.025072869315876 L41.50263442600549,-17.619836568188965" fill="green" fill-opacity="0.6" stroke="black" stroke-width="1" />
<path d="M40.59036480580988,9.415192455371708 L40.68641432186728,10.025072869315876 L41.50263442600549,17.619836568188965" fill="blue" fill-opacity="0.6" stroke="black" stroke-width="1" />
<path d="M40.68641432186728,-10.025072869315876 L41.50263442600549,-17.619836568188965 L50.0,-25.0" fill="red" fill-opacity="0.6" stroke="black" stroke-width="1" />
<path d="M40.68641432186728,10.025072869315876 L41.50263442600549,17.619836568188965 L50.0,25.0" fill="orange" fill-opacity="0.6" stroke="black" stroke-width="1" />
<path d="M50.0,-25.0 L42.141734607455035,-25.71879924893301 L50.0,-32.0" fill="purple" fill-opacity="0.6" stroke="black" stroke-width="1" />
<path d="M50.0,25.0 L42.141734607455035,25.71879924893301 L50.0,32.0" fill="red" fill-opacity="0.6" stroke="black" stroke-width="1" />
<path d="M50.0,-32.0 L43.03679218210597,-34.44171725790967 L49.78337634036691,-47.4684016881688" fill="blue" fill-opacity="0.6" stroke="black" stroke-width="1" />
<path d="M50.0,32.0 L43.03679218210597,34.44171725790967 L49.78337634036691,47.4684016881688" fill="pink" fill-opacity="0.6" stroke="black" stroke-width="1" />
<path d="M43.03679218210597,-34.44171725790967 L49.78337634036691,-47.4684016881688 L47.29787347394567,-39.3126345758113" fill="yellow" fill-opacity="0.6" stroke="black" stroke-width="1" />
<path d="M43.03679218210597,34.44171725790967 L49.78337634036691,47.4684016881688 L47.29787347394567,39.3126345758113" fill="blue" fill-opacity="0.6" stroke="black" stroke-width="1" />
<path d="M49.78337634036691,-47.4684016881688 L47.29787347394567,-39.3126345758113 L44.56936320134365,-38.78138889344415" fill="brown" fill-opacity="0.6" stroke="black" stroke-width="1" />
<path d="M49.78337634036691,47.4684016881688 L47.29787347394567,39.3126345758113 L44.56936320134365,38.78138889344415" fill="brown" fill-opacity="0.6" stroke="black" stroke-width="1" />
<path d="M47.29787347394567,-39.3126345758113 L44.56936320134365,-38.78138889344415 L44.044101129899246,-38.17840495422421" fill="black" fill-opacity="0.6" stroke="black" stroke-width="1" />
<path d="M47.29787347394567,39.3126345758113 L44.56936320134365,38.78138889344415 L44.044101129899246,38.17840495422421" fill="purple" fill-opacity="0.6" stroke="black" stroke-width="1" />
<path d="M44.56936320134365,-38.78138889344415 L44.044101129899246,-38.17840495422421 L44.0,-44.0" fill="purple" fill-opacity="0.6" stroke="black" stroke-width="1" />
<path d="M44.56936320134365,38.78138889344415 L44.044101129899246,38.17840495422421 L44.0,44.0" fill="red" fill-opacity="0.6" stroke="black" stroke-width="1" />
<path d="M38.17840495422421,55.955898870100754 L44.0,56.0 L35.0,65.0" fill="purple" fill-opacity="0.6" stroke="black" stroke-width="1" />
<path d="M38.17840495422421,-55.955898870100754 L44.0,-56.0 L35.0,-65.0" fill="orange" fill-opacity="0.6" stroke="black" stroke-width="1" />
<path d="M44.0,56.0 L35.0,65.0 L25.0,75.0" fill="yellow" fill-opacity="0.6" stroke="black" stroke-width="1" />
<path d="M44.0,-56.0 L35.0,-65.0 L25.0,-75.0" fill="orange" fill-opacity="0.6" stroke="black" stroke-width="1" />
<path d="M35.0,65.0 L25.0,75.0 L23.0,77.0" fill="orange" fill-opacity="0.6" stroke="black" stroke-width="1" />
<path d="M35.0,-65.0 L25.0,-75.0 L23.0,-77.0" fill="red" fill-opacity="0.6" stroke="black" stroke-width="1" />
<path d="M25.0,75.0 L23.0,77.0 L10.0,90.0" fill="purple" fill-opacity="0.6" stroke="black" stroke-width="1" />
<path d="M25.0,-75.0 L23.0,-77.0 L10.0,-90.0" fill="orange" fill-opacity="0.6" stroke="black" stroke-width="1" />
<path d="M23.0,77.0 L10.0,90.0 L0.38863427019348096,94.54009235986935" fill="pink" fill-opacity="0.6" stroke="black" stroke-width="1" />
<path d="M23.0,-77.0 L10.0,-90.0 L0.38863427019348096,-94.54009235986935" fill="red" fill-opacity="0.6" stroke="black" stroke-width="1" />
<path d="M10.0,-10.0 L5.459907640130652,-0.38863427019348096 L1.377461208515851,-0.027623376617758044" fill="black" fill-opacity="0.6" stroke="black" stroke-width="1" />
<path d="M10.0,10.0 L5.459907640130652,0.38863427019348096 L1.377461208515851,0.027623376617758044" fill="purple" fill-opacity="0.6" stroke="black" stroke-width="1" />
<path d="M5.459907640130652,-0.38863427019348096 L1.377461208515851,-0.027623376617758044 L0.0,-0.0" fill="black" fill-opacity="0.6" stroke="black" stroke-width="1" />
<path d="M5.459907640130652,0.38863427019348096 L1.377461208515851,0.027623376617758044 L0.0,-0.0" fill="red" fill-opacity="0.6" stroke="black" stroke-width="1" />
<path d="M0.0,-0.0 L-11.453221382653277,-1.2342207892210688 L-12.555894323028514,-1.8084963153154596" fill="pink" fill-opacity="0.6" stroke="black" stroke-width="1" />
<path d="M0.0,-0.0 L-11.453221382653277,1.2342207892210688 L-12.555894323028514,1.8084963153154596" fill="orange" fill-opacity="0.6" stroke="black" stroke-width="1" />
<path d="M-11.453221382653277,-1.2342207892210688 L-12.555894323028514,-1.8084963153154596 L-13.450958660134845,-2.2710258854915564" fill="black" fill-opacity="0.6" stroke="black" stroke-width="1" />
<path d="M-11.453221382653277,1.2342207892210688 L-12.555894323028514,1.8084963153154596 L-13.450958660134845,2.2710258854915564" fill="green" fill-opacity="0.6" stroke="black" stroke-width="1" />
<path d="M-12.555894323028514,-1.8084963153154596 L-13.450958660134845,-2.2710258854915564 L-14.0,-0.0" fill="pink" fill-opacity="0.6" stroke="black" stroke-width="1" />
<path d="M-12.555894323028514,1.8084963153154596 L-13.450958660134845,2.2710258854915564 L-14.0,-0.0" fill="pink" fill-opacity="0.6" stroke="black" stroke-width="1" />
<path d="M-14.0,-0.0 L-21.093244452272337,-2.6477207931627387 L-21.18642557324792,-3.3291460674645306" fill="brown" fill-opacity="0.6" stroke="black" stroke-width="1" />
<path d="M-14.0,-0.0 L-21.093244452272337,2.6477207931627387 L-21.18642557324792,3.3291460674645306" fill="purple" fill-opacity="0.6" stroke="black" stroke-width="1" />
<path d="M-21.093244452272337,-2.6477207931627387 L-21.18642557324792,-3.3291460674645306 L-26.0,-0.0" fill="black" fill-opacity="0.6" stroke="black" stroke-width="1" />
<path d="M-21.093244452272337,2.6477207931627387 L-21.18642557324792,3.3291460674645306 L-26.0,-0.0" fill="yellow" fill-opacity="0.6" stroke="black" stroke-width="1" />
<path d="M-26.0,-0.0 L-26.930717164484864,-3.5953306651330896 L-31.0,-0.0" fill="black" fill-opacity="0.6" stroke="black" stroke-width="1" />
<path d="M-26.0,-0.0 L-26.930717164484864,3.5953306651330896 L-31.0,-0.0" fill="black" fill-opacity="0.6" stroke="black" stroke-width="1" />
<path d="M-33.0,-0.0 L-36.780913288429595,-8.109094656458499 L-37.94256666121457,-8.629073936617704" fill="red" fill-opacity="0.6" stroke="black" stroke-width="1" />
<path d="M-33.0,-0.0 L-36.780913288429595,8.109094656458499 L-37.94256666121457,8.629073936617704" fill="red" fill-opacity="0.6" stroke="black" stroke-width="1" />
<path d="M-36.780913288429595,-8.109094656458499 L-37.94256666121457,-8.629073936617704 L-39.0,-0.0" fill="yellow" fill-opacity="0.6" stroke="black" stroke-width="1" />
<path d="M-36.780913288429595,8.109094656458499 L-37.94256666121457,8.629073936617704 L-39.0,-0.0" fill="brown" fill-opacity="0.6" stroke="black" stroke-width="1" />
<path d="M-39.0,-0.0 L-39.44139358411235,-8.851189776471657 L-50.0,-0.0" fill="green" fill-opacity="0.6" stroke="black" stroke-width="1" />
<path d="M-39.0,-0.0 L-39.44139358411235,8.851189776471657 L-50.0,-0.0" fill="green" fill-opacity="0.6" stroke="black" stroke-width="1" />
<path d="M-50.0,-7.0 L-40.59036480580988,-9.415192455371708 L-40.68641432186728,-10.025072869315876" fill="yellow" fill-opacity="0.6" stroke="black" stroke-width="1" />
<path d="M-50.0,7.0 L-40.59036480580988,9.415192455371708 L-40.68641432186728,10.025072869315876" fill="orange" fill-opacity="0.6" stroke="black" stroke-width="1" />
<path d="M-40.59036480580988,-9.415192455371708 L-40.68641432186728,-10.025072869315876 L-41.50263442600549,-17.619836568188965" fill="black" fill-opacity="0.6" stroke="black" stroke-width="1" />
<path d="M-40.59036480580988,9.415192455371708 L-40.68641432186728,10.025072869315876 L-41.50263442600549,17.619836568188965" fill="orange" fill-opacity="0.6" stroke="black" stroke-width="1" />
<path d="M-40.68641432186728,-10.025072869315876 L-41.50263442600549,-17.619836568188965 L-50.0,-25.0" fill="blue" fill-opacity="0.6" stroke="black" stroke-width="1" />
<path d="M-40.68641432186728,10.025072869315876 L-41.50263442600549,17.619836568188965 L-50.0,25.0" fill="brown" fill-opacity="0.6" stroke="black" stroke-width="1" />
<path d="M-50.0,-25.0 L-42.141734607455035,-25.71879924893301 L-50.0,-32.0" fill="blue" fill-opacity="0.6" stroke="black" stroke-width="1" />
<path d="M-50.0,25.0 L-42.141734607455035,25.71879924893301 L-50.0,32.0" fill="red" fill-opacity="0.6" stroke="black" stroke-width="1" />
<path d="M-50.0,-32.0 L-43.03679218210597,-34.44171725790967 L-49.78337634036691,-47.4684016881688" fill="purple" fill-opacity="0.6" stroke="black" stroke-width="1" />
<path d="M-50.0,32.0 L-43.03679218210597,34.44171725790967 L-49.78337634036691,47.4684016881688" fill="blue" fill-opacity="0.6" stroke="black" stroke-width="1" />
<path d="M-43.03679218210597,-34.44171725790967 L-49.78337634036691,-47.4684016881688 L-47.29787347394567,-39.3126345758113" fill="orange" fill-opacity="0.6" stroke="black" stroke-width="1" />
<path d="M-43.03679218210597,34.44171725790967 L-49.78337634036691,47.4684016881688 L-47.29787347394567,39.3126345758113" fill="pink" fill-opacity="0.6" stroke="black" stroke-width="1" />
<path d="M-49.78337634036691,-47.4684016881688 L-47.29787347394567,-39.3126345758113 L-44.56936320134365,-38.78138889344415" fill="pink" fill-opacity="0.6" stroke="black" stroke-width="1" />
<path d="M-49.78337634036691,47.4684016881688 L-47.29787347394567,39.3126345758113 L-44.56936320134365,38.78138889344415" fill="purple" fill-opacity="0.6" stroke="black" stroke-width="1" />
<path d="M-47.29787347394567,-39.3126345758113 L-44.56936320134365,-38.78138889344415 L-44.044101129899246,-38.17840495422421" fill="blue" fill-opacity="0.6" stroke="black" stroke-width="1" />
<path d="M-47.29787347394567,39.3126345758113 L-44.56936320134365,38.78138889344415 L-44.044101129899246,38.17840495422421" fill="pink" fill-opacity="0.6" stroke="black" stroke-width="1" />
<path d="M-44.56936320134365,-38.78138889344415 L-44.044101129899246,-38.17840495422421 L-44.0,-44.0" fill="orange" fill-opacity="0.6" stroke="black" stroke-width="1" />
<path d="M-44.56936320134365,38.78138889344415 L-44.044101129899246,38.17840495422421 L-44.0,44.0" fill="black" fill-opacity="0.6" stroke="black" stroke-width="1" />
<path d="M-38.17840495422421,55.955898870100754 L-44.0,56.0 L-35.0,65.0" fill="black" fill-opacity="0.6" stroke="black" stroke-width="1" />
<path d="M-38.17840495422421,-55.955898870100754 L-44.0,-56.0 L-35.0,-65.0" fill="orange" fill-opacity="0.6" stroke="black" stroke-width="1" />
<path d="M-44.0,56.0 L-35.0,65.0 L-25.0,75.0" fill="pink" fill-opacity="0.6" stroke="black" stroke-width="1" />
<path d="M-44.0,-56.0 L-35.0,-65.0 L-25.0,-75.0" fill="red" fill-opacity="0.6" stroke="black" stroke-width="1" />
<path d="M-35.0,65.0 L-25.0,75.0 L-23.0,77.0" fill="green" fill-opacity="0.6" stroke="black" stroke-width="1" />
<path d="M-35.0,-65.0 L-25.0,-75.0 L-23.0,-77.0" fill="blue" fill-opacity="0.6" stroke="black" stroke-width="1" />
<path d="M-25.0,75.0 L-23.0,77.0 L-10.0,90.0" fill="pink" fill-opacity="0.6" stroke="black" stroke-width="1" />
<path d="M-25.0,-75.0 L-23.0,-77.0 L-10.0,-90.0" fill="black" fill-opacity="0.6" stroke="black" stroke-width="1" />
<path d="M-23.0,77.0 L-10.0,90.0 L-0.38863427019348096,94.54009235986935" fill="brown" fill-opacity="0.6" stroke="black" stroke-width="1" />
<path d="M-23.0,-77.0 L-10.0,-90.0 L-0.38863427019348096,-94.54009235986935" fill="red" fill-opacity="0.6" stroke="black" stroke-width="1" />
<path d="M-10.0,-10.0 L-5.459907640130652,-0.38863427019348096 L-1.377461208515851,-0.027623376617758044" fill="brown" fill-opacity="0.6" stroke="black" stroke-width="1" />
<path d="M-10.0,10.0 L-5.459907640130652,0.38863427019348096 L-1.377461208515851,0.027623376617758044" fill="red" fill-opacity="0.6" stroke="black" stroke-width="1" />
<path d="M-5.459907640130652,-0.38863427019348096 L-1.377461208515851,-0.027623376617758044 L0.0,-0.0" fill="red" fill-opacity="0.6" stroke="black" stroke-width="1" />
<path d="M-5.459907640130652,0.38863427019348096 L-1.377461208515851,0.027623376617758044 L0.0,-0.0" fill="brown" fill-opacity="0.6" stroke="black" stroke-width="1" />
<path d="M100.0,-0.0 L88.54677861734672,1.2342207892210688 L87.44410567697149,1.8084963153154596" fill="brown" fill-opacity="0.6" stroke="black" stroke-width="1" />
<path d="M100.0,-0.0 L88.54677861734672,-1.2342207892210688 L87.44410567697149,-1.8084963153154596" fill="green" fill-opacity="0.6" stroke="black" stroke-width="1" />
<path d="M88.54677861734672,1.2342207892210688 L87.44410567697149,1.8084963153154596 L86.54904133986516,2.2710258854915564" fill="orange" fill-opacity="0.6" stroke="black" stroke-width="1" />
<path d="M88.54677861734672,-1.2342207892210688 L87.44410567697149,-1.8084963153154596 L86.54904133986516,-2.2710258854915564" fill="brown" fill-opacity="0.6" stroke="black" stroke-width="1" />
<path d="M87.44410567697149,1.8084963153154596 L86.54904133986516,2.2710258854915564 L86.0,-0.0" fill="black" fill-opacity="0.6" stroke="black" stroke-width="1" />
<path d="M87.44410567697149,-1.8084963153154596 L86.54904133986516,-2.2710258854915564 L86.0,-0.0" fill="red" fill-opacity="0.6" stroke="black" stroke-width="1" />
<path d="M86.0,-0.0 L78.90675554772767,2.6477207931627387 L78.81357442675208,3.3291460674645306" fill="pink" fill-opacity="0.6" stroke="black" stroke-width="1" />
<path d="M86.0,-0.0 L78.90675554772767,-2.6477207931627387 L78.81357442675208,-3.3291460674645306" fill="purple" fill-opacity="0.6" stroke="black" stroke-width="1" />
<path d="M78.90675554772767,2.6477207931627387 L78.81357442675208,3.3291460674645306 L74.0,-0.0" fill="purple" fill-opacity="0.6" stroke="black" stroke-width="1" />
<path d="M78.90675554772767,-2.6477207931627387 L78.81357442675208,-3.3291460674645306 L74.0,-0.0" fill="yellow" fill-opacity="0.6" stroke="black" stroke-width="1" />
<path d="M74.0,-0.0 L73.06928283551514,3.5953306651330896 L69.0,-0.0" fill="purple" fill-opacity="0.6" stroke="black" stroke-width="1" />
<path d="M74.0,-0.0 L73.06928283551514,-3.5953306651330896 L69.0,-0.0" fill="purple" fill-opacity="0.6" stroke="black" stroke-width="1" />
<path d="M67.0,-0.0 L63.219086711570405,8.109094656458499 L62.05743333878543,8.629073936617704" fill="red" fill-opacity="0.6" stroke="black" stroke-width="1" />
<path d="M67.0,-0.0 L63.219086711570405,-8.109094656458499 L62.05743333878543,-8.629073936617704" fill="blue" fill-opacity="0.6" stroke="black" stroke-width="1" />
<path d="M63.219086711570405,8.109094656458499 L62.05743333878543,8.629073936617704 L61.0,-0.0" fill="blue" fill-opacity="0.6" stroke="black" stroke-width="1" />
<path d="M63.219086711570405,-8.109094656458499 L62.05743333878543,-8.629073936617704 L61.0,-0.0" fill="green" fill-opacity="0.6" stroke="black" stroke-width="1" />
<path d="M61.0,-0.0 L60.55860641588765,8.851189776471657 L50.0,-0.0" fill="yellow" fill-opacity="0.6" stroke="black" stroke-width="1" />
<path d="M61.0,-0.0 L60.55860641588765,-8.851189776471657 L50.0,-0.0" fill="yellow" fill-opacity="0.6" stroke="black" stroke-width="1" />
<path d="M50.0,7.0 L59.40963519419012,9.415192455371708 L59.31358567813272,10.025072869315876" fill="black" fill-opacity="0.6" stroke="black" stroke-width="1" />
<path d="M50.0,-7.0 L59.40963519419012,-9.415192455371708 L59.31358567813272,-10.025072869315876" fill="red" fill-opacity="0.6" stroke="black" stroke-width="1" />
<path d="M59.40963519419012,9.415192455371708 L59.31358567813272,10.025072869315876 L58.49736557399451,17.619836568188965" fill="orange" fill-opacity="0.6" stroke="black" stroke-width="1" />
<path d="M59.40963519419012,-9.415192455371708 L59.31358567813272,-10.025072869315876 L58.49736557399451,-17.619836568188965" fill="yellow" fill-opacity="0.6" stroke="black" stroke-width="1" />
<path d="M59.31358567813272,10.025072869315876 L58.49736557399451,17.619836568188965 L50.0,25.0" fill="green" fill-opacity="0.6" stroke="black" stroke-width="1" />
<path d="M59.31358567813272,-10.025072869315876 L58.49736557399451,-17.619836568188965 L50.0,-25.0" fill="pink" fill-opacity="0.6" stroke="black" stroke-width="1" />
<path d="M50.0,25.0 L57.858265392544965,25.71879924893301 L50.0,32.0" fill="red" fill-opacity="0.6" stroke="black" stroke-width="1" />
<path d="M50.0,-25.0 L57.858265392544965,-25.71879924893301 L50.0,-32.0" fill="purple" fill-opacity="0.6" stroke="black" stroke-width="1" />
<path d="M50.0,32.0 L56.96320781789403,34.44171725790967 L50.21662365963309,47.4684016881688" fill="orange" fill-opacity="0.6" stroke="black" stroke-width="1" />
<path d="M50.0,-32.0 L56.96320781789403,-34.44171725790967 L50.21662365963309,-47.4684016881688" fill="blue" fill-opacity="0.6" stroke="black" stroke-width="1" />
<path d="M56.96320781789403,34.44171725790967 L50.21662365963309,47.4684016881688 L52.70212652605433,39.3126345758113" fill="red" fill-opacity="0.6" stroke="black" stroke-width="1" />
<path d="M56.96320781789403,-34.44171725790967 L50.21662365963309,-47.4684016881688 L52.70212652605433,-39.3126345758113" fill="green" fill-opacity="0.6" stroke="black" stroke-width="1" />
<path d="M50.21662365963309,47.4684016881688 L52.70212652605433,39.3126345758113 L55.43063679865635,38.78138889344415" fill="black" fill-opacity="0.6" stroke="black" stroke-width="1" />
<path d="M50.21662365963309,-47.4684016881688 L52.70212652605433,-39.3126345758113 L55.43063679865635,-38.78138889344415" fill="orange" fill-opacity="0.6" stroke="black" stroke-width="1" />
<path d="M52.70212652605433,39.3126345758113 L55.43063679865635,38.78138889344415 L55.955898870100754,38.17840495422421" fill="green" fill-opacity="0.6" stroke="black" stroke-width="1" />
<path d="M52.70212652605433,-39.3126345758113 L55.43063679865635,-38.78138889344415 L55.955898870100754,-38.17840495422421" fill="green" fill-opacity="0.6" stroke="black" stroke-width="1" />
<path d="M55.43063679865635,38.78138889344415 L55.955898870100754,38.17840495422421 L56.0,44.0" fill="purple" fill-opacity="0.6" stroke="black" stroke-width="1" />
<path d="M55.43063679865635,-38.78138889344415 L55.955898870100754,-38.17840495422421 L56.0,-44.0" fill="red" fill-opacity="0.6" stroke="black" stroke-width="1" />
<path d="M55.955898870100754,38.17840495422421 L56.0,44.0 L65.0,35.0" fill="green" fill-opacity="0.6" stroke="black" stroke-width="1" />
<path d="M55.955898870100754,-38.17840495422421 L56.0,-44.0 L65.0,-35.0" fill="orange" fill-opacity="0.6" stroke="black" stroke-width="1" />
<path d="M56.0,44.0 L65.0,35.0 L75.0,25.0" fill="blue" fill-opacity="0.6" stroke="black" stroke-width="1" />
<path d="M56.0,-44.0 L65.0,-35.0 L75.0,-25.0" fill="black" fill-opacity="0.6" stroke="black" stroke-width="1" />
<path d="M65.0,35.0 L75.0,25.0 L77.0,23.0" fill="brown" fill-opacity="0.6" stroke="black" stroke-width="1" />
<path d="M65.0,-35.0 L75.0,-25.0 L77.0,-23.0" fill="black" fill-opacity="0.6" stroke="black" stroke-width="1" />
<path d="M75.0,25.0 L77.0,23.0 L90.0,10.0" fill="brown" fill-opacity="0.6" stroke="black" stroke-width="1" />
<path d="M75.0,-25.0 L77.0,-23.0 L90.0,-10.0" fill="yellow" fill-opacity="0.6" stroke="black" stroke-width="1" />
<path d="M77.0,23.0 L90.0,10.0 L94.54009235986935,0.38863427019348096" fill="brown" fill-opacity="0.6" stroke="black" stroke-width="1" />
<path d="M77.0,-23.0 L90.0,-10.0 L94.54009235986935,-0.38863427019348096" fill="purple" fill-opacity="0.6" stroke="black" stroke-width="1" />
<path d="M90.0,10.0 L94.54009235986935,0.38863427019348096 L98.62253879148415,0.027623376617758044" fill="pink" fill-opacity="0.6" stroke="black" stroke-width="1" />
<path d="M90.0,-10.0 L94.54009235986935,-0.38863427019348096 L98.62253879148415,-0.027623376617758044" fill="pink" fill-opacity="0.6" stroke="black" stroke-width="1" />
<path d="M94.54009235986935,0.38863427019348096 L98.62253879148415,0.027623376617758044 L100.0,-0.0" fill="green" fill-opacity="0.6" stroke="black" stroke-width="1" />
<path d="M94.54009235986935,-0.38863427019348096 L98.62253879148415,-0.027623376617758044 L100.0,-0.0" fill="red" fill-opacity="0.6" stroke="black" stroke-width="1" />
<path d="M0.0,-0.0 L1.2342207892210688,-11.453221382653277 L1.8084963153154596,-12.555894323028514" fill="black" fill-opacity="0.6" stroke="black" stroke-width="1" />
<path d="M0.0,-0.0 L1.2342207892210688,11.453221382653277 L1.8084963153154596,12.555894323028514" fill="yellow" fill-opacity="0.6" stroke="black" stroke-width="1" />
<path d="M0.0,100.0 L1.2342207892210688,88.54677861734672 L1.8084963153154596,87.44410567697149" fill="orange" fill-opacity="0.6" stroke="black" stroke-width="1" />
<path d="M0.0,-100.0 L1.2342207892210688,-88.54677861734672 L1.8084963153154596,-87.44410567697149" fill="orange" fill-opacity="0.6" stroke="black" stroke-width="1" />
<path d="M1.2342207892210688,-11.453221382653277 L1.8084963153154596,-12.555894323028514 L2.2710258854915564,-13.450958660134845" fill="purple" fill-opacity="0.6" stroke="black" stroke-width="1" />
<path d="M1.2342207892210688,11.453221382653277 L1.8084963153154596,12.555894323028514 L2.2710258854915564,13.450958660134845" fill="purple" fill-opacity="0.6" stroke="black" stroke-width="1" />
<path d="M1.2342207892210688,88.54677861734672 L1.8084963153154596,87.44410567697149 L2.2710258854915564,86.54904133986516" fill="green" fill-opacity="0.6" stroke="black" stroke-width="1" />
<path d="M1.2342207892210688,-88.54677861734672 L1.8084963153154596,-87.44410567697149 L2.2710258854915564,-86.54904133986516" fill="red" fill-opacity="0.6" stroke="black" stroke-width="1" />
<path d="M1.8084963153154596,-12.555894323028514 L2.2710258854915564,-13.450958660134845 L0.0,-14.0" fill="pink" fill-opacity="0.6" stroke="black" stroke-width="1" />
<path d="M1.8084963153154596,12.555894323028514 L2.2710258854915564,13.450958660134845 L0.0,14.0" fill="yellow" fill-opacity="0.6" stroke="black" stroke-width="1" />
<path d="M1.8084963153154596,87.44410567697149 L2.2710258854915564,86.54904133986516 L0.0,86.0" fill="orange" fill-opacity="0.6" stroke="black" stroke-width="1" />
<path d="M1.8084963153154596,-87.44410567697149 L2.2710258854915564,-86.54904133986516 L0.0,-86.0" fill="orange" fill-opacity="0.6" stroke="black" stroke-width="1" />
<path d="M0.0,-14.0 L2.6477207931627387,-21.093244452272337 L3.3291460674645306,-21.18642557324792" fill="green" fill-opacity="0.6" stroke="black" stroke-width="1" />
<path d="M0.0,14.0 L2.6477207931627387,21.093244452272337 L3.3291460674645306,21.18642557324792" fill="blue" fill-opacity="0.6" stroke="black" stroke-width="1" />
<path d="M0.0,86.0 L2.6477207931627387,78.90675554772767 L3.3291460674645306,78.81357442675208" fill="blue" fill-opacity="0.6" stroke="black" stroke-width="1" />
<path d="M0.0,-86.0 L2.6477207931627387,-78.90675554772767 L3.3291460674645306,-78.81357442675208" fill="brown" fill-opacity="0.6" stroke="black" stroke-width="1" />
<path d="M2.6477207931627387,-21.093244452272337 L3.3291460674645306,-21.18642557324792 L0.0,-26.0" fill="red" fill-opacity="0.6" stroke="black" stroke-width="1" />
<path d="M2.6477207931627387,21.093244452272337 L3.3291460674645306,21.18642557324792 L0.0,26.0" fill="orange" fill-opacity="0.6" stroke="black" stroke-width="1" />
<path d="M2.6477207931627387,78.90675554772767 L3.3291460674645306,78.81357442675208 L0.0,74.0" fill="pink" fill-opacity="0.6" stroke="black" stroke-width="1" />
<path d="M2.6477207931627387,-78.90675554772767 L3.3291460674645306,-78.81357442675208 L0.0,-74.0" fill="red" fill-opacity="0.6" stroke="black" stroke-width="1" />
<path d="M0.0,-26.0 L3.5953306651330896,-26.930717164484864 L0.0,-31.0" fill="green" fill-opacity="0.6" stroke="black" stroke-width="1" />
<path d="M0.0,26.0 L3.5953306651330896,26.930717164484864 L0.0,31.0" fill="green" fill-opacity="0.6" stroke="black" stroke-width="1" />
<path d="M0.0,74.0 L3.5953306651330896,73.06928283551514 L0.0,69.0" fill="orange" fill-opacity="0.6" stroke="black" stroke-width="1" />
<path d="M0.0,-74.0 L3.5953306651330896,-73.06928283551514 L0.0,-69.0" fill="brown" fill-opacity="0.6" stroke="black" stroke-width="1" />
<path d="M0.0,-33.0 L8.109094656458499,-36.780913288429595 L8.629073936617704,-37.94256666121457" fill="pink" fill-opacity="0.6" stroke="black" stroke-width="1" />
<path d="M0.0,33.0 L8.109094656458499,36.780913288429595 L8.629073936617704,37.94256666121457" fill="black" fill-opacity="0.6" stroke="black" stroke-width="1" />
<path d="M0.0,67.0 L8.109094656458499,63.219086711570405 L8.629073936617704,62.05743333878543" fill="yellow" fill-opacity="0.6" stroke="black" stroke-width="1" />
<path d="M0.0,-67.0 L8.109094656458499,-63.219086711570405 L8.629073936617704,-62.05743333878543" fill="black" fill-opacity="0.6" stroke="black" stroke-width="1" />
<path d="M8.109094656458499,-36.780913288429595 L8.629073936617704,-37.94256666121457 L0.0,-39.0" fill="purple" fill-opacity="0.6" stroke="black" stroke-width="1" />
<path d="M8.109094656458499,36.780913288429595 L8.629073936617704,37.94256666121457 L0.0,39.0" fill="orange" fill-opacity="0.6" stroke="black" stroke-width="1" />
<path d="M8.109094656458499,63.219086711570405 L8.629073936617704,62.05743333878543 L0.0,61.0" fill="brown" fill-opacity="0.6" stroke="black" stroke-width="1" />
<path d="M8.109094656458499,-63.219086711570405 L8.629073936617704,-62.05743333878543 L0.0,-61.0" fill="green" fill-opacity="0.6" stroke="black" stroke-width="1" />
<path d="M0.0,-39.0 L8.851189776471657,-39.44139358411235 L0.0,-50.0" fill="black" fill-opacity="0.6" stroke="black" stroke-width="1" />
<path d="M0.0,39.0 L8.851189776471657,39.44139358411235 L0.0,50.0" fill="black" fill-opacity="0.6" stroke="black" stroke-width="1" />
<path d="M0.0,61.0 L8.851189776471657,60.55860641588765 L0.0,50.0" fill="blue" fill-opacity="0.6" stroke="black" stroke-width="1" />
<path d="M0.0,-61.0 L8.851189776471657,-60.55860641588765 L0.0,-50.0" fill="black" fill-opacity="0.6" stroke="black" stroke-width="1" />
<path d="M7.0,-50.0 L9.415192455371708,-40.59036480580988 L10.025072869315876,-40.68641432186728" fill="pink" fill-opacity="0.6" stroke="black" stroke-width="1" />
<path d="M7.0,50.0 L9.415192455371708,40.59036480580988 L10.025072869315876,40.68641432186728" fill="orange" fill-opacity="0.6" stroke="black" stroke-width="1" />
<path d="M7.0,50.0 L9.415192455371708,59.40963519419012 L10.025072869315876,59.31358567813272" fill="black" fill-opacity="0.6" stroke="black" stroke-width="1" />
<path d="M7.0,-50.0 L9.415192455371708,-59.40963519419012 L10.025072869315876,-59.31358567813272" fill="blue" fill-opacity="0.6" stroke="black" stroke-width="1" />
<path d="M9.415192455371708,-40.59036480580988 L10.025072869315876,-40.68641432186728 L17.619836568188965,-41.50263442600549" fill="yellow" fill-opacity="0.6" stroke="black" stroke-width="1" />
<path d="M9.415192455371708,40.59036480580988 L10.025072869315876,40.68641432186728 L17.619836568188965,41.50263442600549" fill="black" fill-opacity="0.6" stroke="black" stroke-width="1" />
<path d="M9.415192455371708,59.40963519419012 L10.025072869315876,59.31358567813272 L17.619836568188965,58.49736557399451" fill="orange" fill-opacity="0.6" stroke="black" stroke-width="1" />
<path d="M9.415192455371708,-59.40963519419012 L10.025072869315876,-59.31358567813272 L17.619836568188965,-58.49736557399451" fill="brown" fill-opacity="0.6" stroke="black" stroke-width="1" />
<path d="M10.025072869315876,-40.68641432186728 L17.619836568188965,-41.50263442600549 L25.0,-50.0" fill="green" fill-opacity="0.6" stroke="black" stroke-width="1" />
<path d="M10.025072869315876,40.68641432186728 L17.619836568188965,41.50263442600549 L25.0,50.0" fill="pink" fill-opacity="0.6" stroke="black" stroke-width="1" />
<path d="M10.025072869315876,59.31358567813272 L17.619836568188965,58.49736557399451 L25.0,50.0" fill="pink" fill-opacity="0.6" stroke="black" stroke-width="1" />
<path d="M10.025072869315876,-59.31358567813272 L17.619836568188965,-58.49736557399451 L25.0,-50.0" fill="green" fill-opacity="0.6" stroke="black" stroke-width="1" />
<path d="M25.0,-50.0 L25.71879924893301,-42.141734607455035 L32.0,-50.0" fill="yellow" fill-opacity="0.6" stroke="black" stroke-width="1" />
<path d="M25.0,50.0 L25.71879924893301,42.141734607455035 L32.0,50.0" fill="black" fill-opacity="0.6" stroke="black" stroke-width="1" />
<path d="M25.0,50.0 L25.71879924893301,57.858265392544965 L32.0,50.0" fill="brown" fill-opacity="0.6" stroke="black" stroke-width="1" />
<path d="M25.0,-50.0 L25.71879924893301,-57.858265392544965 L32.0,-50.0" fill="red" fill-opacity="0.6" stroke="black" stroke-width="1" />
<path d="M32.0,-50.0 L34.44171725790967,-43.03679218210597 L47.4684016881688,-49.78337634036691" fill="blue" fill-opacity="0.6" stroke="black" stroke-width="1" />
<path d="M32.0,50.0 L34.44171725790967,43.03679218210597 L47.4684016881688,49.78337634036691" fill="brown" fill-opacity="0.6" stroke="black" stroke-width="1" />
<path d="M32.0,50.0 L34.44171725790967,56.96320781789403 L47.4684016881688,50.21662365963309" fill="yellow" fill-opacity="0.6" stroke="black" stroke-width="1" />
<path d="M32.0,-50.0 L34.44171725790967,-56.96320781789403 L47.4684016881688,-50.21662365963309" fill="green" fill-opacity="0.6" stroke="black" stroke-width="1" />
<path d="M34.44171725790967,-43.03679218210597 L47.4684016881688,-49.78337634036691 L39.3126345758113,-47.29787347394567" fill="pink" fill-opacity="0.6" stroke="black" stroke-width="1" />
<path d="M34.44171725790967,43.03679218210597 L47.4684016881688,49.78337634036691 L39.3126345758113,47.29787347394567" fill="purple" fill-opacity="0.6" stroke="black" stroke-width="1" />
<path d="M34.44171725790967,56.96320781789403 L47.4684016881688,50.21662365963309 L39.3126345758113,52.70212652605433" fill="blue" fill-opacity="0.6" stroke="black" stroke-width="1" />
<path d="M34.44171725790967,-56.96320781789403 L47.4684016881688,-50.21662365963309 L39.3126345758113,-52.70212652605433" fill="yellow" fill-opacity="0.6" stroke="black" stroke-width="1" />
<path d="M47.4684016881688,-49.78337634036691 L39.3126345758113,-47.29787347394567 L38.78138889344415,-44.56936320134365" fill="blue" fill-opacity="0.6" stroke="black" stroke-width="1" />
<path d="M47.4684016881688,49.78337634036691 L39.3126345758113,47.29787347394567 L38.78138889344415,44.56936320134365" fill="orange" fill-opacity="0.6" stroke="black" stroke-width="1" />
<path d="M47.4684016881688,50.21662365963309 L39.3126345758113,52.70212652605433 L38.78138889344415,55.43063679865635" fill="blue" fill-opacity="0.6" stroke="black" stroke-width="1" />
<path d="M47.4684016881688,-50.21662365963309 L39.3126345758113,-52.70212652605433 L38.78138889344415,-55.43063679865635" fill="purple" fill-opacity="0.6" stroke="black" stroke-width="1" />
<path d="M39.3126345758113,-47.29787347394567 L38.78138889344415,-44.56936320134365 L38.17840495422421,-44.044101129899246" fill="orange" fill-opacity="0.6" stroke="black" stroke-width="1" />
<path d="M39.3126345758113,47.29787347394567 L38.78138889344415,44.56936320134365 L38.17840495422421,44.044101129899246" fill="purple" fill-opacity="0.6" stroke="black" stroke-width="1" />
<path d="M39.3126345758113,52.70212652605433 L38.78138889344415,55.43063679865635 L38.17840495422421,55.955898870100754" fill="red" fill-opacity="0.6" stroke="black" stroke-width="1" />
<path d="M39.3126345758113,-52.70212652605433 L38.78138889344415,-55.43063679865635 L38.17840495422421,-55.955898870100754" fill="pink" fill-opacity="0.6" stroke="black" stroke-width="1" />
<path d="M38.78138889344415,-44.56936320134365 L38.17840495422421,-44.044101129899246 L44.0,-44.0" fill="red" fill-opacity="0.6" stroke="black" stroke-width="1" />
<path d="M38.78138889344415,44.56936320134365 L38.17840495422421,44.044101129899246 L44.0,44.0" fill="pink" fill-opacity="0.6" stroke="black" stroke-width="1" />
<path d="M38.78138889344415,55.43063679865635 L38.17840495422421,55.955898870100754 L44.0,56.0" fill="green" fill-opacity="0.6" stroke="black" stroke-width="1" />
<path d="M38.78138889344415,-55.43063679865635 L38.17840495422421,-55.955898870100754 L44.0,-56.0" fill="yellow" fill-opacity="0.6" stroke="black" stroke-width="1" />
<path d="M10.0,-10.0 L0.38863427019348096,-5.459907640130652 L0.027623376617758044,-1.377461208515851" fill="purple" fill-opacity="0.6" stroke="black" stroke-width="1" />
<path d="M10.0,10.0 L0.38863427019348096,5.459907640130652 L0.027623376617758044,1.377461208515851" fill="orange" fill-opacity="0.6" stroke="black" stroke-width="1" />
<path d="M10.0,90.0 L0.38863427019348096,94.54009235986935 L0.027623376617758044,98.62253879148415" fill="pink" fill-opacity="0.6" stroke="black" stroke-width="1" />
<path d="M10.0,-90.0 L0.38863427019348096,-94.54009235986935 L0.027623376617758044,-98.62253879148415" fill="blue" fill-opacity="0.6" stroke="black" stroke-width="1" />
<path d="M0.38863427019348096,-5.459907640130652 L0.027623376617758044,-1.377461208515851 L0.0,-0.0" fill="brown" fill-opacity="0.6" stroke="black" stroke-width="1" />
<path d="M0.38863427019348096,5.459907640130652 L0.027623376617758044,1.377461208515851 L0.0,-0.0" fill="black" fill-opacity="0.6" stroke="black" stroke-width="1" />
<path d="M0.38863427019348096,94.54009235986935 L0.027623376617758044,98.62253879148415 L0.0,100.0" fill="red" fill-opacity="0.6" stroke="black" stroke-width="1" />
<path d="M0.38863427019348096,-94.54009235986935 L0.027623376617758044,-98.62253879148415 L0.0,-100.0" fill="orange" fill-opacity="0.6" stroke="black" stroke-width="1" />
<path d="M0.0,100.0 L-1.2342207892210688,88.54677861734672 L-1.8084963153154596,87.44410567697149" fill="green" fill-opacity="0.6" stroke="black" stroke-width="1" />
<path d="M0.0,-0.0 L-1.2342207892210688,-11.453221382653277 L-1.8084963153154596,-12.555894323028514" fill="brown" fill-opacity="0.6" stroke="black" stroke-width="1" />
<path d="M0.0,-0.0 L-1.2342207892210688,11.453221382653282 L-1.8084963153154596,12.555894323028511" fill="purple" fill-opacity="0.6" stroke="black" stroke-width="1" />
<path d="M0.0,-100.0 L-1.2342207892210688,-88.54677861734672 L-1.8084963153154596,-87.44410567697149" fill="brown" fill-opacity="0.6" stroke="black" stroke-width="1" />
<path d="M-1.2342207892210688,88.54677861734672 L-1.8084963153154596,87.44410567697149 L-2.2710258854915564,86.54904133986516" fill="orange" fill-opacity="0.6" stroke="black" stroke-width="1" />
<path d="M-1.2342207892210688,-11.453221382653277 L-1.8084963153154596,-12.555894323028514 L-2.2710258854915564,-13.450958660134845" fill="red" fill-opacity="0.6" stroke="black" stroke-width="1" />
<path d="M-1.2342207892210688,11.453221382653282 L-1.8084963153154596,12.555894323028511 L-2.2710258854915564,13.450958660134845" fill="purple" fill-opacity="0.6" stroke="black" stroke-width="1" />
<path d="M-1.2342207892210688,-88.54677861734672 L-1.8084963153154596,-87.44410567697149 L-2.2710258854915564,-86.54904133986516" fill="green" fill-opacity="0.6" stroke="black" stroke-width="1" />
<path d="M-1.8084963153154596,87.44410567697149 L-2.2710258854915564,86.54904133986516 L0.0,86.0" fill="brown" fill-opacity="0.6" stroke="black" stroke-width="1" />
<path d="M-1.8084963153154596,-12.555894323028514 L-2.2710258854915564,-13.450958660134845 L0.0,-14.0" fill="brown" fill-opacity="0.6" stroke="black" stroke-width="1" />
<path d="M-1.8084963153154596,12.555894323028511 L-2.2710258854915564,13.450958660134845 L0.0,14.0" fill="black" fill-opacity="0.6" stroke="black" stroke-width="1" />
<path d="M-1.8084963153154596,-87.44410567697149 L-2.2710258854915564,-86.54904133986516 L0.0,-86.0" fill="yellow" fill-opacity="0.6" stroke="black" stroke-width="1" />
<path d="M0.0,86.0 L-2.6477207931627387,78.90675554772767 L-3.3291460674645306,78.81357442675208" fill="blue" fill-opacity="0.6" stroke="black" stroke-width="1" />
<path d="M0.0,-14.0 L-2.6477207931627387,-21.093244452272337 L-3.3291460674645306,-21.18642557324792" fill="blue" fill-opacity="0.6" stroke="black" stroke-width="1" />
<path d="M0.0,14.0 L-2.6477207931627387,21.09324445227233 L-3.3291460674645306,21.186425573247917" fill="black" fill-opacity="0.6" stroke="black" stroke-width="1" />
<path d="M0.0,-86.0 L-2.6477207931627387,-78.90675554772767 L-3.3291460674645306,-78.81357442675208" fill="red" fill-opacity="0.6" stroke="black" stroke-width="1" />
<path d="M-2.6477207931627387,78.90675554772767 L-3.3291460674645306,78.81357442675208 L0.0,74.0" fill="blue" fill-opacity="0.6" stroke="black" stroke-width="1" />
<path d="M-2.6477207931627387,-21.093244452272337 L-3.3291460674645306,-21.18642557324792 L0.0,-26.0" fill="orange" fill-opacity="0.6" stroke="black" stroke-width="1" />
<path d="M-2.6477207931627387,21.09324445227233 L-3.3291460674645306,21.186425573247917 L0.0,26.0" fill="yellow" fill-opacity="0.6" stroke="black" stroke-width="1" />
<path d="M-2.6477207931627387,-78.90675554772767 L-3.3291460674645306,-78.81357442675208 L0.0,-74.0" fill="purple" fill-opacity="0.6" stroke="black" stroke-width="1" />
<path d="M0.0,74.0 L-3.5953306651330896,73.06928283551514 L0.0,69.0" fill="purple" fill-opacity="0.6" stroke="black" stroke-width="1" />
<path d="M0.0,-26.0 L-3.5953306651330896,-26.930717164484864 L0.0,-31.0" fill="brown" fill-opacity="0.6" stroke="black" stroke-width="1" />
<path d="M0.0,26.0 L-3.5953306651330896,26.93071716448486 L0.0,31.0" fill="blue" fill-opacity="0.6" stroke="black" stroke-width="1" />
<path d="M0.0,-74.0 L-3.5953306651330896,-73.06928283551514 L0.0,-69.0" fill="green" fill-opacity="0.6" stroke="black" stroke-width="1" />
<path d="M0.0,67.0 L-8.109094656458499,63.219086711570405 L-8.629073936617704,62.05743333878543" fill="black" fill-opacity="0.6" stroke="black" stroke-width="1" />
<path d="M0.0,-33.0 L-8.109094656458499,-36.780913288429595 L-8.629073936617704,-37.94256666121457" fill="pink" fill-opacity="0.6" stroke="black" stroke-width="1" />
<path d="M0.0,33.0 L-8.109094656458499,36.780913288429595 L-8.629073936617704,37.94256666121457" fill="blue" fill-opacity="0.6" stroke="black" stroke-width="1" />
<path d="M0.0,-67.0 L-8.109094656458499,-63.219086711570405 L-8.629073936617704,-62.05743333878543" fill="yellow" fill-opacity="0.6" stroke="black" stroke-width="1" />
<path d="M-8.109094656458499,63.219086711570405 L-8.629073936617704,62.05743333878543 L0.0,61.0" fill="brown" fill-opacity="0.6" stroke="black" stroke-width="1" />
<path d="M-8.109094656458499,-36.780913288429595 L-8.629073936617704,-37.94256666121457 L0.0,-39.0" fill="pink" fill-opacity="0.6" stroke="black" stroke-width="1" />
<path d="M-8.109094656458499,36.780913288429595 L-8.629073936617704,37.94256666121457 L0.0,39.0" fill="blue" fill-opacity="0.6" stroke="black" stroke-width="1" />
<path d="M-8.109094656458499,-63.219086711570405 L-8.629073936617704,-62.05743333878543 L0.0,-61.0" fill="black" fill-opacity="0.6" stroke="black" stroke-width="1" />
<path d="M0.0,61.0 L-8.851189776471657,60.55860641588765 L0.0,50.0" fill="red" fill-opacity="0.6" stroke="black" stroke-width="1" />
<path d="M0.0,-39.0 L-8.851189776471657,-39.44139358411235 L0.0,-50.0" fill="yellow" fill-opacity="0.6" stroke="black" stroke-width="1" />
<path d="M0.0,39.0 L-8.851189776471657,39.44139358411235 L0.0,50.0" fill="black" fill-opacity="0.6" stroke="black" stroke-width="1" />
<path d="M0.0,-61.0 L-8.851189776471657,-60.55860641588765 L0.0,-50.0" fill="brown" fill-opacity="0.6" stroke="black" stroke-width="1" />
<path d="M-7.0,50.0 L-9.415192455371708,59.40963519419012 L-10.025072869315876,59.31358567813272" fill="purple" fill-opacity="0.6" stroke="black" stroke-width="1" />
<path d="M-7.0,-50.0 L-9.415192455371708,-40.59036480580988 L-10.025072869315876,-40.68641432186728" fill="orange" fill-opacity="0.6" stroke="black" stroke-width="1" />
<path d="M-7.0,50.0 L-9.415192455371708,40.59036480580988 L-10.025072869315876,40.68641432186728" fill="green" fill-opacity="0.6" stroke="black" stroke-width="1" />
<path d="M-7.0,-50.0 L-9.415192455371708,-59.40963519419012 L-10.025072869315876,-59.31358567813272" fill="orange" fill-opacity="0.6" stroke="black" stroke-width="1" />
<path d="M-9.415192455371708,59.40963519419012 L-10.025072869315876,59.31358567813272 L-17.619836568188965,58.49736557399451" fill="brown" fill-opacity="0.6" stroke="black" stroke-width="1" />
<path d="M-9.415192455371708,-40.59036480580988 L-10.025072869315876,-40.68641432186728 L-17.619836568188965,-41.50263442600549" fill="black" fill-opacity="0.6" stroke="black" stroke-width="1" />
<path d="M-9.415192455371708,40.59036480580988 L-10.025072869315876,40.68641432186728 L-17.619836568188965,41.50263442600549" fill="green" fill-opacity="0.6" stroke="black" stroke-width="1" />
<path d="M-9.415192455371708,-59.40963519419012 L-10.025072869315876,-59.31358567813272 L-17.619836568188965,-58.49736557399451" fill="brown" fill-opacity="0.6" stroke="black" stroke-width="1" />
<path d="M-10.025072869315876,59.31358567813272 L-17.619836568188965,58.49736557399451 L-25.0,50.0" fill="red" fill-opacity="0.6" stroke="black" stroke-width="1" />
<path d="M-10.025072869315876,-40.68641432186728 L-17.619836568188965,-41.50263442600549 L-25.0,-50.0" fill="green" fill-opacity="0.6" stroke="black" stroke-width="1" />
<path d="M-10.025072869315876,40.68641432186728 L-17.619836568188965,41.50263442600549 L-25.0,50.0" fill="purple" fill-opacity="0.6" stroke="black" stroke-width="1" />
<path d="M-10.025072869315876,-59.31358567813272 L-17.619836568188965,-58.49736557399451 L-25.0,-50.0" fill="brown" fill-opacity="0.6" stroke="black" stroke-width="1" />
<path d="M-25.0,50.0 L-25.71879924893301,57.858265392544965 L-32.0,50.0" fill="yellow" fill-opacity="0.6" stroke="black" stroke-width="1" />
<path d="M-25.0,-50.0 L-25.71879924893301,-42.141734607455035 L-32.0,-50.0" fill="orange" fill-opacity="0.6" stroke="black" stroke-width="1" />
<path d="M-25.0,50.0 L-25.71879924893301,42.141734607455035 L-32.0,50.0" fill="orange" fill-opacity="0.6" stroke="black" stroke-width="1" />
<path d="M-25.0,-50.0 L-25.71879924893301,-57.858265392544965 L-32.0,-50.0" fill="orange" fill-opacity="0.6" stroke="black" stroke-width="1" />
<path d="M-32.0,50.0 L-34.44171725790967,56.96320781789403 L-47.4684016881688,50.21662365963309" fill="brown" fill-opacity="0.6" stroke="black" stroke-width="1" />
<path d="M-32.0,-50.0 L-34.44171725790967,-43.03679218210597 L-47.4684016881688,-49.78337634036691" fill="blue" fill-opacity="0.6" stroke="black" stroke-width="1" />
<path d="M-32.0,50.0 L-34.44171725790967,43.03679218210597 L-47.4684016881688,49.78337634036691" fill="yellow" fill-opacity="0.6" stroke="black" stroke-width="1" />
<path d="M-32.0,-50.0 L-34.44171725790967,-56.96320781789403 L-47.4684016881688,-50.21662365963309" fill="red" fill-opacity="0.6" stroke="black" stroke-width="1" />
<path d="M-34.44171725790967,56.96320781789403 L-47.4684016881688,50.21662365963309 L-39.3126345758113,52.70212652605433" fill="red" fill-opacity="0.6" stroke="black" stroke-width="1" />
<path d="M-34.44171725790967,-43.03679218210597 L-47.4684016881688,-49.78337634036691 L-39.3126345758113,-47.29787347394567" fill="pink" fill-opacity="0.6" stroke="black" stroke-width="1" />
<path d="M-34.44171725790967,43.03679218210597 L-47.4684016881688,49.78337634036691 L-39.3126345758113,47.29787347394567" fill="orange" fill-opacity="0.6" stroke="black" stroke-width="1" />
<path d="M-34.44171725790967,-56.96320781789403 L-47.4684016881688,-50.21662365963309 L-39.3126345758113,-52.70212652605433" fill="red" fill-opacity="0.6" stroke="black" stroke-width="1" />
<path d="M-47.4684016881688,50.21662365963309 L-39.3126345758113,52.70212652605433 L-38.78138889344415,55.43063679865635" fill="brown" fill-opacity="0.6" stroke="black" stroke-width="1" />
<path d="M-47.4684016881688,-49.78337634036691 L-39.3126345758113,-47.29787347394567 L-38.78138889344415,-44.56936320134365" fill="blue" fill-opacity="0.6" stroke="black" stroke-width="1" />
<path d="M-47.4684016881688,49.78337634036691 L-39.3126345758113,47.29787347394567 L-38.78138889344415,44.56936320134365" fill="red" fill-opacity="0.6" stroke="black" stroke-width="1" />
<path d="M-47.4684016881688,-50.21662365963309 L-39.3126345758113,-52.70212652605433 L-38.78138889344415,-55.43063679865635" fill="black" fill-opacity="0.6" stroke="black" stroke-width="1" />
<path d="M-39.3126345758113,52.70212652605433 L-38.78138889344415,55.43063679865635 L-38.17840495422421,55.955898870100754" fill="pink" fill-opacity="0.6" stroke="black" stroke-width="1" />
<path d="M-39.3126345758113,-47.29787347394567 L-38.78138889344415,-44.56936320134365 L-38.17840495422421,-44.044101129899246" fill="black" fill-opacity="0.6" stroke="black" stroke-width="1" />
<path d="M-39.3126345758113,47.29787347394567 L-38.78138889344415,44.56936320134365 L-38.17840495422421,44.044101129899246" fill="yellow" fill-opacity="0.6" stroke="black" stroke-width="1" />
<path d="M-39.3126345758113,-52.70212652605433 L-38.78138889344415,-55.43063679865635 L-38.17840495422421,-55.955898870100754" fill="orange" fill-opacity="0.6" stroke="black" stroke-width="1" />
<path d="M-38.78138889344415,55.43063679865635 L-38.17840495422421,55.955898870100754 L-44.0,56.0" fill="yellow" fill-opacity="0.6" stroke="black" stroke-width="1" />
<path d="M-38.78138889344415,-44.56936320134365 L-38.17840495422421,-44.044101129899246 L-44.0,-44.0" fill="black" fill-opacity="0.6" stroke="black" stroke-width="1" />
<path d="M-38.78138889344415,44.56936320134365 L-38.17840495422421,44.044101129899246 L-44.0,44.0" fill="blue" fill-opacity="0.6" stroke="black" stroke-width="1" />
<path d="M-38.78138889344415,-55.43063679865635 L-38.17840495422421,-55.955898870100754 L-44.0,-56.0" fill="orange" fill-opacity="0.6" stroke="black" stroke-width="1" />
<path d="M-10.0,90.0 L-0.38863427019348096,94.54009235986935 L-0.027623376617758044,98.62253879148415" fill="purple" fill-opacity="0.6" stroke="black" stroke-width="1" />
<path d="M-10.0,-10.0 L-0.38863427019348096,-5.459907640130652 L-0.027623376617758044,-1.377461208515851" fill="red" fill-opacity="0.6" stroke="black" stroke-width="1" />
<path d="M-10.0,10.0 L-0.38863427019348096,5.459907640130652 L-0.027623376617758044,1.3774612085158537" fill="red" fill-opacity="0.6" stroke="black" stroke-width="1" />
<path d="M-10.0,-90.0 L-0.38863427019348096,-94.54009235986935 L-0.027623376617758044,-98.62253879148415" fill="purple" fill-opacity="0.6" stroke="black" stroke-width="1" />
<path d="M-0.38863427019348096,94.54009235986935 L-0.027623376617758044,98.62253879148415 L0.0,100.0" fill="green" fill-opacity="0.6" stroke="black" stroke-width="1" />
<path d="M-0.38863427019348096,-5.459907640130652 L-0.027623376617758044,-1.377461208515851 L0.0,-0.0" fill="blue" fill-opacity="0.6" stroke="black" stroke-width="1" />
<path d="M-0.38863427019348096,5.459907640130652 L-0.027623376617758044,1.3774612085158537 L0.0,-0.0" fill="red" fill-opacity="0.6" stroke="black" stroke-width="1" />
<path d="M-0.38863427019348096,-94.54009235986935 L-0.027623376617758044,-98.62253879148415 L0.0,-100.0" fill="purple" fill-opacity="0.6" stroke="black" stroke-width="1" />
<path d="M-100.0,-0.0 L-88.54677861734672,-1.2342207892210688 L-87.44410567697149,-1.8084963153154596" fill="black" fill-opacity="0.6" stroke="black" stroke-width="1" />
<path d="M-100.0,-0.0 L-88.54677861734672,1.2342207892210688 L-87.44410567697149,1.8084963153154596" fill="blue" fill-opacity="0.6" stroke="black" stroke-width="1" />
<path d="M-88.54677861734672,-1.2342207892210688 L-87.44410567697149,-1.8084963153154596 L-86.54904133986516,-2.2710258854915564" fill="yellow" fill-opacity="0.6" stroke="black" stroke-width="1" />
<path d="M-88.54677861734672,1.2342207892210688 L-87.44410567697149,1.8084963153154596 L-86.54904133986516,2.2710258854915564" fill="black" fill-opacity="0.6" stroke="black" stroke-width="1" />
<path d="M-87.44410567697149,-1.8084963153154596 L-86.54904133986516,-2.2710258854915564 L-86.0,-0.0" fill="yellow" fill-opacity="0.6" stroke="black" stroke-width="1" />
<path d="M-87.44410567697149,1.8084963153154596 L-86.54904133986516,2.2710258854915564 L-86.0,-0.0" fill="pink" fill-opacity="0.6" stroke="black" stroke-width="1" />
<path d="M-86.0,-0.0 L-78.90675554772767,-2.6477207931627387 L-78.81357442675208,-3.3291460674645306" fill="purple" fill-opacity="0.6" stroke="black" stroke-width="1" />
<path d="M-86.0,-0.0 L-78.90675554772767,2.6477207931627387 L-78.81357442675208,3.3291460674645306" fill="purple" fill-opacity="0.6" stroke="black" stroke-width="1" />
<path d="M-78.90675554772767,-2.6477207931627387 L-78.81357442675208,-3.3291460674645306 L-74.0,-0.0" fill="pink" fill-opacity="0.6" stroke="black" stroke-width="1" />
<path d="M-78.90675554772767,2.6477207931627387 L-78.81357442675208,3.3291460674645306 L-74.0,-0.0" fill="orange" fill-opacity="0.6" stroke="black" stroke-width="1" />
<path d="M-74.0,-0.0 L-73.06928283551514,-3.5953306651330896 L-69.0,-0.0" fill="red" fill-opacity="0.6" stroke="black" stroke-width="1" />
<path d="M-74.0,-0.0 L-73.06928283551514,3.5953306651330896 L-69.0,-0.0" fill="purple" fill-opacity="0.6" stroke="black" stroke-width="1" />
<path d="M-67.0,-0.0 L-63.219086711570405,-8.109094656458499 L-62.05743333878543,-8.629073936617704" fill="pink" fill-opacity="0.6" stroke="black" stroke-width="1" />
<path d="M-67.0,-0.0 L-63.219086711570405,8.109094656458499 L-62.05743333878543,8.629073936617704" fill="brown" fill-opacity="0.6" stroke="black" stroke-width="1" />
<path d="M-63.219086711570405,-8.109094656458499 L-62.05743333878543,-8.629073936617704 L-61.0,-0.0" fill="orange" fill-opacity="0.6" stroke="black" stroke-width="1" />
<path d="M-63.219086711570405,8.109094656458499 L-62.05743333878543,8.629073936617704 L-61.0,-0.0" fill="blue" fill-opacity="0.6" stroke="black" stroke-width="1" />
<path d="M-61.0,-0.0 L-60.55860641588765,-8.851189776471657 L-50.0,-0.0" fill="pink" fill-opacity="0.6" stroke="black" stroke-width="1" />
<path d="M-61.0,-0.0 L-60.55860641588765,8.851189776471657 L-50.0,-0.0" fill="yellow" fill-opacity="0.6" stroke="black" stroke-width="1" />
<path d="M-50.0,-7.0 L-59.40963519419012,-9.415192455371708 L-59.31358567813272,-10.025072869315876" fill="green" fill-opacity="0.6" stroke="black" stroke-width="1" />
<path d="M-50.0,7.0 L-59.40963519419012,9.415192455371708 L-59.31358567813272,10.025072869315876" fill="green" fill-opacity="0.6" stroke="black" stroke-width="1" />
<path d="M-59.40963519419012,-9.415192455371708 L-59.31358567813272,-10.025072869315876 L-58.49736557399451,-17.619836568188965" fill="pink" fill-opacity="0.6" stroke="black" stroke-width="1" />
<path d="M-59.40963519419012,9.415192455371708 L-59.31358567813272,10.025072869315876 L-58.49736557399451,17.619836568188965" fill="blue" fill-opacity="0.6" stroke="black" stroke-width="1" />
<path d="M-59.31358567813272,-10.025072869315876 L-58.49736557399451,-17.619836568188965 L-50.0,-25.0" fill="black" fill-opacity="0.6" stroke="black" stroke-width="1" />
<path d="M-59.31358567813272,10.025072869315876 L-58.49736557399451,17.619836568188965 L-50.0,25.0" fill="green" fill-opacity="0.6" stroke="black" stroke-width="1" />
<path d="M-50.0,-25.0 L-57.858265392544965,-25.71879924893301 L-50.0,-32.0" fill="yellow" fill-opacity="0.6" stroke="black" stroke-width="1" />
<path d="M-50.0,25.0 L-57.858265392544965,25.71879924893301 L-50.0,32.0" fill="yellow" fill-opacity="0.6" stroke="black" stroke-width="1" />
<path d="M-50.0,-32.0 L-56.96320781789403,-34.44171725790967 L-50.21662365963309,-47.4684016881688" fill="brown" fill-opacity="0.6" stroke="black" stroke-width="1" />
<path d="M-50.0,32.0 L-56.96320781789403,34.44171725790967 L-50.21662365963309,47.4684016881688" fill="red" fill-opacity="0.6" stroke="black" stroke-width="1" />
<path d="M-56.96320781789403,-34.44171725790967 L-50.21662365963309,-47.4684016881688 L-52.70212652605433,-39.3126345758113" fill="black" fill-opacity="0.6" stroke="black" stroke-width="1" />
<path d="M-56.96320781789403,34.44171725790967 L-50.21662365963309,47.4684016881688 L-52.70212652605433,39.3126345758113" fill="red" fill-opacity="0.6" stroke="black" stroke-width="1" />
<path d="M-50.21662365963309,-47.4684016881688 L-52.70212652605433,-39.3126345758113 L-55.43063679865635,-38.78138889344415" fill="red" fill-opacity="0.6" stroke="black" stroke-width="1" />
<path d="M-50.21662365963309,47.4684016881688 L-52.70212652605433,39.3126345758113 L-55.43063679865635,38.78138889344415" fill="yellow" fill-opacity="0.6" stroke="black" stroke-width="1" />
<path d="M-52.70212652605433,-39.3126345758113 L-55.43063679865635,-38.78138889344415 L-55.955898870100754,-38.17840495422421" fill="black" fill-opacity="0.6" stroke="black" stroke-width="1" />
<path d="M-52.70212652605433,39.3126345758113 L-55.43063679865635,38.78138889344415 L-55.955898870100754,38.17840495422421" fill="green" fill-opacity="0.6" stroke="black" stroke-width="1" />
<path d="M-55.43063679865635,-38.78138889344415 L-55.955898870100754,-38.17840495422421 L-56.0,-44.0" fill="orange" fill-opacity="0.6" stroke="black" stroke-width="1" />
<path d="M-55.43063679865635,38.78138889344415 L-55.955898870100754,38.17840495422421 L-56.0,44.0" fill="orange" fill-opacity="0.6" stroke="black" stroke-width="1" />
<path d="M-55.955898870100754,-38.17840495422421 L-56.0,-44.0 L-65.0,-35.0" fill="green" fill-opacity="0.6" stroke="black" stroke-width="1" />
<path d="M-55.955898870100754,38.17840495422421 L-56.0,44.0 L-65.0,35.0" fill="green" fill-opacity="0.6" stroke="black" stroke-width="1" />
<path d="M-56.0,-44.0 L-65.0,-35.0 L-75.0,-25.0" fill="green" fill-opacity="0.6" stroke="black" stroke-width="1" />
<path d="M-56.0,44.0 L-65.0,35.0 L-75.0,25.0" fill="green" fill-opacity="0.6" stroke="black" stroke-width="1" />
<path d="M-65.0,-35.0 L-75.0,-25.0 L-77.0,-23.0" fill="black" fill-opacity="0.6" stroke="black" stroke-width="1" />
<path d="M-65.0,35.0 L-75.0,25.0 L-77.0,23.0" fill="purple" fill-opacity="0.6" stroke="black" stroke-width="1" />
<path d="M-75.0,-25.0 L-77.0,-23.0 L-90.0,-10.0" fill="blue" fill-opacity="0.6" stroke="black" stroke-width="1" />
<path d="M-75.0,25.0 L-77.0,23.0 L-90.0,10.0" fill="orange" fill-opacity="0.6" stroke="black" stroke-width="1" />
<path d="M-77.0,-23.0 L-90.0,-10.0 L-94.54009235986935,-0.38863427019348096" fill="red" fill-opacity="0.6" stroke="black" stroke-width="1" />
<path d="M-77.0,23.0 L-90.0,10.0 L-94.54009235986935,0.38863427019348096" fill="blue" fill-opacity="0.6" stroke="black" stroke-width="1" />
<path d="M-90.0,-10.0 L-94.54009235986935,-0.38863427019348096 L-98.62253879148415,-0.027623376617758044" fill="pink" fill-opacity="0.6" stroke="black" stroke-width="1" />
<path d="M-90.0,10.0 L-94.54009235986935,0.38863427019348096 L-98.62253879148415,0.027623376617758044" fill="green" fill-opacity="0.6" stroke="black" stroke-width="1" />
<path d="M-94.54009235986935,-0.38863427019348096 L-98.62253879148415,-0.027623376617758044 L-100.0,-0.0" fill="green" fill-opacity="0.6" stroke="black" stroke-width="1" />
<path d="M-94.54009235986935,0.38863427019348096 L-98.62253879148415,0.027623376617758044 L-100.0,-0.0" fill="orange" fill-opacity="0.6" stroke="black" stroke-width="1" />
</svg>