<?xml version="1.0" encoding="UTF-8"?>
<svg xmlns="http://www.w3.org/2000/svg" xmlns:xlink="http://www.w3.org/1999/xlink"
     width="250" height="250" viewBox="-125.0 -125.0 250 250">
<defs>
</defs>
<path d="M7.0,-0.0 L10.557620129872696,-1.9261263997895974 L30.0,-0.0" fill="yellow" fill-opacity="0.6" stroke="black" stroke-width="1" />
<path d="M7.0,-0.0 L10.557620129872696,1.9261263997895974 L30.0,-0.0" fill="red" fill-opacity="0.6" stroke="black" stroke-width="1" />
<path d="M50.0,-10.0 L43.72164831535595,-21.337012132183936 L46.44281016155552,-28.387741010019585" fill="green" fill-opacity="0.6" stroke="black" stroke-width="1" />
<path d="M50.0,10.0 L43.72164831535595,21.337012132183936 L46.44281016155552,28.387741010019585" fill="purple" fill-opacity="0.6" stroke="black" stroke-width="1" />
<path d="M43.72164831535595,-21.337012132183936 L46.44281016155552,-28.387741010019585 L50.0,-31.0" fill="blue" fill-opacity="0.6" stroke="black" stroke-width="1" />
<path d="M43.72164831535595,21.337012132183936 L46.44281016155552,28.387741010019585 L50.0,31.0" fill="black" fill-opacity="0.6" stroke="black" stroke-width="1" />
<path d="M50.0,50.0 L48.0,52.0 L44.0,56.0" fill="orange" fill-opacity="0.6" stroke="black" stroke-width="1" />
<path d="M50.0,-50.0 L48.0,-52.0 L44.0,-56.0" fill="brown" fill-opacity="0.6" stroke="black" stroke-width="1" />
<path d="M48.0,52.0 L44.0,56.0 L41.0,59.0" fill="purple" fill-opacity="0.6" stroke="black" stroke-width="1" />
<path d="M48.0,-52.0 L44.0,-56.0 L41.0,-59.0" fill="red" fill-opacity="0.6" stroke="black" stroke-width="1" />
<path d="M44.0,56.0 L41.0,59.0 L28.0,72.0" fill="green" fill-opacity="0.6" stroke="black" stroke-width="1" />
<path d="M44.0,-56.0 L41.0,-59.0 L28.0,-72.0" fill="pink" fill-opacity="0.6" stroke="black" stroke-width="1" />
<path d="M41.0,59.0 L28.0,72.0 L25.0,75.0" fill="yellow" fill-opacity="0.6" stroke="black" stroke-width="1" />
<path d="M41.0,-59.0 L28.0,-72.0 L25.0,-75.0" fill="black" fill-opacity="0.6" stroke="black" stroke-width="1" />
<path d="M28.0,72.0 L25.0,75.0 L20.0,80.0" fill="black" fill-opacity="0.6" stroke="black" stroke-width="1" />
<path d="M28.0,-72.0 L25.0,-75.0 L20.0,-80.0" fill="pink" fill-opacity="0.6" stroke="black" stroke-width="1" />
<path d="M25.0,75.0 L20.0,80.0 L4.0,96.0" fill="brown" fill-opacity="0.6" stroke="black" stroke-width="1" />
<path d="M25.0,-75.0 L20.0,-80.0 L4.0,-96.0" fill="black" fill-opacity="0.6" stroke="black" stroke-width="1" />
<path d="M20.0,80.0 L4.0,96.0 L0.0,100.0" fill="purple" fill-opacity="0.6" stroke="black" stroke-width="1" />
<path d="M20.0,-80.0 L4.0,-96.0 L0.0,-100.0" fill="red" fill-opacity="0.6" stroke="black" stroke-width="1" />
<path d="M-7.0,-0.0 L-10.557620129872696,-1.9261263997895974 L-30.0,-0.0" fill="orange" fill-opacity="0.6" stroke="black" stroke-width="1" />
<path d="M-7.0,-0.0 L-10.557620129872696,1.9261263997895974 L-30.0,-0.0" fill="green" fill-opacity="0.6" stroke="black" stroke-width="1" />
<path d="M-50.0,-10.0 L-43.72164831535595,-21.337012132183936 L-46.44281016155552,-28.387741010019585" fill="purple" fill-opacity="0.6" stroke="black" stroke-width="1" />
<path d="M-50.0,10.0 L-43.72164831535595,21.337012132183936 L-46.44281016155552,28.387741010019585" fill="brown" fill-opacity="0.6" stroke="black" stroke-width="1" />
<path d="M-43.72164831535595,-21.337012132183936 L-46.44281016155552,-28.387741010019585 L-50.0,-31.0" fill="orange" fill-opacity="0.6" stroke="black" stroke-width="1" />
<path d="M-43.72164831535595,21.337012132183936 L-46.44281016155552,28.387741010019585 L-50.0,31.0" fill="brown" fill-opacity="0.6" stroke="black" stroke-width="1" />
<path d="M-50.0,50.0 L-48.0,52.0 L-44.0,56.0" fill="brown" fill-opacity="0.6" stroke="black" stroke-width="1" />
<path d="M-50.0,-50.0 L-48.0,-52.0 L-44.0,-56.0" fill="brown" fill-opacity="0.6" stroke="black" stroke-width="1" />
<path d="M-48.0,52.0 L-44.0,56.0 L-41.0,59.0" fill="yellow" fill-opacity="0.6" stroke="black" stroke-width="1" />
<path d="M-48.0,-52.0 L-44.0,-56.0 L-41.0,-59.0" fill="purple" fill-opacity="0.6" stroke="black" stroke-width="1" />
<path d="M-44.0,56.0 L-41.0,59.0 L-28.0,72.0" fill="pink" fill-opacity="0.6" stroke="black" stroke-width="1" />
<path d="M-44.0,-56.0 L-41.0,-59.0 L-28.0,-72.0" fill="pink" fill-opacity="0.6" stroke="black" stroke-width="1" />
<path d="M-41.0,59.0 L-28.0,72.0 L-25.0,75.0" fill="black" fill-opacity="0.6" stroke="black" stroke-width="1" />
<path d="M-41.0,-59.0 L-28.0,-72.0 L-25.0,-75.0" fill="purple" fill-opacity="0.6" stroke="black" stroke-width="1" />
<path d="M-28.0,72.0 L-25.0,75.0 L-20.0,80.0" fill="red" fill-opacity="0.6" stroke="black" stroke-width="1" />
<path d="M-28.0,-72.0 L-25.0,-75.0 L-20.0,-80.0" fill="black" fill-opacity="0.6" stroke="black" stroke-width="1" />
<path d="M-25.0,75.0 L-20.0,80.0 L-4.0,96.0" fill="purple" fill-opacity="0.6" stroke="black" stroke-width="1" />
<path d="M-25.0,-75.0 L-20.0,-80.0 L-4.0,-96.0" fill="red" fill-opacity="0.6" stroke="black" stroke-width="1" />
<path d="M-20.0,80.0 L-4.0,96.0 L0.0,100.0" fill="black" fill-opacity="0.6" stroke="black" stroke-width="1" />
<path d="M-20.0,-80.0 L-4.0,-96.0 L0.0,-100.0" fill="blue" fill-opacity="0.6" stroke="black" stroke-width="1" />
<path d="M93.0,-0.0 L89.4423798701273,1.9261263997895974 L70.0,-0.0" fill="blue" fill-opacity="0.6" stroke="black" stroke-width="1" />
<path d="M93.0,-0.0 L89.4423798701273,-1.9261263997895974 L70.0,-0.0" fill="red" fill-opacity="0.6" stroke="black" stroke-width="1" />
<path d="M50.0,10.0 L56.27835168464405,21.337012132183936 L53.55718983844448,28.387741010019585" fill="green" fill-opacity="0.6" stroke="black" stroke-width="1" />
<path d="M50.0,-10.0 L56.27835168464405,-21.337012132183936 L53.55718983844448,-28.387741010019585" fill="yellow" fill-opacity="0.6" stroke="black" stroke-width="1" />
<path d="M56.27835168464405,21.337012132183936 L53.55718983844448,28.387741010019585 L50.0,31.0" fill="brown" fill-opacity="0.6" stroke="black" stroke-width="1" />
<path d="M56.27835168464405,-21.337012132183936 L53.55718983844448,-28.387741010019585 L50.0,-31.0" fill="green" fill-opacity="0.6" stroke="black" stroke-width="1" />
<path d="M50.0,50.0 L52.0,48.0 L56.0,44.0" fill="red" fill-opacity="0.6" stroke="black" stroke-width="1" />
<path d="M50.0,-50.0 L52.0,-48.0 L56.0,-44.0" fill="black" fill-opacity="0.6" stroke="black" stroke-width="1" />
<path d="M52.0,48.0 L56.0,44.0 L59.0,41.0" fill="yellow" fill-opacity="0.6" stroke="black" stroke-width="1" />
<path d="M52.0,-48.0 L56.0,-44.0 L59.0,-41.0" fill="purple" fill-opacity="0.6" stroke="black" stroke-width="1" />
<path d="M56.0,44.0 L59.0,41.0 L72.0,28.0" fill="red" fill-opacity="0.6" stroke="black" stroke-width="1" />
<path d="M56.0,-44.0 L59.0,-41.0 L72.0,-28.0" fill="orange" fill-opacity="0.6" stroke="black" stroke-width="1" />
<path d="M59.0,41.0 L72.0,28.0 L75.0,25.0" fill="yellow" fill-opacity="0.6" stroke="black" stroke-width="1" />
<path d="M59.0,-41.0 L72.0,-28.0 L75.0,-25.0" fill="black" fill-opacity="0.6" stroke="black" stroke-width="1" />
<path d="M72.0,28.0 L75.0,25.0 L80.0,20.0" fill="black" fill-opacity="0.6" stroke="black" stroke-width="1" />
<path d="M72.0,-28.0 L75.0,-25.0 L80.0,-20.0" fill="green" fill-opacity="0.6" stroke="black" stroke-width="1" />
<path d="M75.0,25.0 L80.0,20.0 L96.0,4.0" fill="yellow" fill-opacity="0.6" stroke="black" stroke-width="1" />
<path d="M75.0,-25.0 L80.0,-20.0 L96.0,-4.0" fill="red" fill-opacity="0.6" stroke="black" stroke-width="1" />
<path d="M80.0,20.0 L96.0,4.0 L100.0,-0.0" fill="orange" fill-opacity="0.6" stroke="black" stroke-width="1" />
<path d="M80.0,-20.0 L96.0,-4.0 L100.0,-0.0" fill="black" fill-opacity="0.6" stroke="black" stroke-width="1" />
<path d="M0.0,-7.0 L1.9261263997895974,-10.557620129872696 L0.0,-30.0" fill="green" fill-opacity="0.6" stroke="black" stroke-width="1" />
<path d="M0.0,7.0 L1.9261263997895974,10.557620129872696 L0.0,30.0" fill="red" fill-opacity="0.6" stroke="black" stroke-width="1" />
<path d="M0.0,93.0 L1.9261263997895974,89.4423798701273 L0.0,70.0" fill="pink" fill-opacity="0.6" stroke="black" stroke-width="1" />
<path d="M0.0,-93.0 L1.9261263997895974,-89.4423798701273 L0.0,-70.0" fill="brown" fill-opacity="0.6" stroke="black" stroke-width="1" />
<path d="M10.0,-50.0 L21.337012132183936,-43.72164831535595 L28.387741010019585,-46.44281016155552" fill="orange" fill-opacity="0.6" stroke="black" stroke-width="1" />
<path d="M10.0,50.0 L21.337012132183936,43.72164831535595 L28.387741010019585,46.44281016155552" fill="blue" fill-opacity="0.6" stroke="black" stroke-width="1" />
<path d="M10.0,50.0 L21.337012132183936,56.27835168464405 L28.387741010019585,53.55718983844448" fill="blue" fill-opacity="0.6" stroke="black" stroke-width="1" />
<path d="M10.0,-50.0 L21.337012132183936,-56.27835168464405 L28.387741010019585,-53.55718983844448" fill="blue" fill-opacity="0.6" stroke="black" stroke-width="1" />
<path d="M21.337012132183936,-43.72164831535595 L28.387741010019585,-46.44281016155552 L31.0,-50.0" fill="black" fill-opacity="0.6" stroke="black" stroke-width="1" />
<path d="M21.337012132183936,43.72164831535595 L28.387741010019585,46.44281016155552 L31.0,50.0" fill="yellow" fill-opacity="0.6" stroke="black" stroke-width="1" />
<path d="M21.337012132183936,56.27835168464405 L28.387741010019585,53.55718983844448 L31.0,50.0" fill="yellow" fill-opacity="0.6" stroke="black" stroke-width="1" />
<path d="M21.337012132183936,-56.27835168464405 L28.387741010019585,-53.55718983844448 L31.0,-50.0" fill="pink" fill-opacity="0.6" stroke="black" stroke-width="1" />
<path d="M0.0,93.0 L-1.9261263997895974,89.4423798701273 L0.0,70.0" fill="green" fill-opacity="0.6" stroke="black" stroke-width="1" />
<path d="M0.0,-7.0 L-1.9261263997895974,-10.557620129872696 L0.0,-30.0" fill="pink" fill-opacity="0.6" stroke="black" stroke-width="1" />
<path d="M0.0,7.0 L-1.9261263997895974,10.557620129872703 L0.0,30.0" fill="red" fill-opacity="0.6" stroke="black" stroke-width="1" />
<path d="M0.0,-93.0 L-1.9261263997895974,-89.4423798701273 L0.0,-70.0" fill="red" fill-opacity="0.6" stroke="black" stroke-width="1" />
<path d="M-10.0,50.0 L-21.337012132183936,56.27835168464405 L-28.387741010019585,53.55718983844448" fill="brown" fill-opacity="0.6" stroke="black" stroke-width="1" />
<path d="M-10.0,-50.0 L-21.337012132183936,-43.72164831535595 L-28.387741010019585,-46.44281016155552" fill="yellow" fill-opacity="0.6" stroke="black" stroke-width="1" />
<path d="M-10.0,50.0 L-21.337012132183936,43.72164831535595 L-28.387741010019585,46.44281016155552" fill="blue" fill-opacity="0.6" stroke="black" stroke-width="1" />
<path d="M-10.0,-50.0 L-21.337012132183936,-56.27835168464405 L-28.387741010019585,-53.55718983844448" fill="black" fill-opacity="0.6" stroke="black" stroke-width="1" />
<path d="M-21.337012132183936,56.27835168464405 L-28.387741010019585,53.55718983844448 L-31.0,50.0" fill="pink" fill-opacity="0.6" stroke="black" stroke-width="1" />
<path d="M-21.337012132183936,-43.72164831535595 L-28.387741010019585,-46.44281016155552 L-31.0,-50.0" fill="black" fill-opacity="0.6" stroke="black" stroke-width="1" />
<path d="M-21.337012132183936,43.72164831535595 L-28.387741010019585,46.44281016155552 L-31.0,50.0" fill="pink" fill-opacity="0.6" stroke="black" stroke-width="1" />
<path d="M-21.337012132183936,-56.27835168464405 L-28.387741010019585,-53.55718983844448 L-31.0,-50.0" fill="blue" fill-opacity="0.6" stroke="black" stroke-width="1" />
<path d="M-93.0,-0.0 L-89.4423798701273,-1.9261263997895974 L-70.0,-0.0" fill="blue" fill-opacity="0.6" stroke="black" stroke-width="1" />
<path d="M-93.0,-0.0 L-89.4423798701273,1.9261263997895974 L-70.0,-0.0" fill="brown" fill-opacity="0.6" stroke="black" stroke-width="1" />
<path d="M-50.0,-10.0 L-56.27835168464405,-21.337012132183936 L-53.55718983844448,-28.387741010019585" fill="red" fill-opacity="0.6" stroke="black" stroke-width="1" />
<path d="M-50.0,10.0 L-56.27835168464405,21.337012132183936 L-53.55718983844448,28.387741010019585" fill="yellow" fill-opacity="0.6" stroke="black" stroke-width="1" />
<path d="M-56.27835168464405,-21.337012132183936 L-53.55718983844448,-28.387741010019585 L-50.0,-31.0" fill="green" fill-opacity="0.6" stroke="black" stroke-width="1" />
<path d="M-56.27835168464405,21.337012132183936 L-53.55718983844448,28.387741010019585 L-50.0,31.0" fill="red" fill-opacity="0.6" stroke="black" stroke-width="1" />
<path d="M-50.0,-50.0 L-52.0,-48.0 L-56.0,-44.0" fill="black" fill-opacity="0.6" stroke="black" stroke-width="1" />
<path d="M-50.0,50.0 L-52.0,48.0 L-56.0,44.0" fill="yellow" fill-opacity="0.6" stroke="black" stroke-width="1" />
<path d="M-52.0,-48.0 L-56.0,-44.0 L-59.0,-41.0" fill="blue" fill-opacity="0.6" stroke="black" stroke-width="1" />
<path d="M-52.0,48.0 L-56.0,44.0 L-59.0,41.0" fill="orange" fill-opacity="0.6" stroke="black" stroke-width="1" />
<path d="M-56.0,-44.0 L-59.0,-41.0 L-72.0,-28.0" fill="red" fill-opacity="0.6" stroke="black" stroke-width="1" />
<path d="M-56.0,44.0 L-59.0,41.0 L-72.0,28.0" fill="blue" fill-opacity="0.6" stroke="black" stroke-width="1" />
<path d="M-59.0,-41.0 L-72.0,-28.0 L-75.0,-25.0" fill="green" fill-opacity="0.6" stroke="black" stroke-width="1" />
<path d="M-59.0,41.0 L-72.0,28.0 L-75.0,25.0" fill="blue" fill-opacity="0.6" stroke="black" stroke-width="1" />
<path d="M-72.0,-28.0 L-75.0,-25.0 L-80.0,-20.0" fill="pink" fill-opacity="0.6" stroke="black" stroke-width="1" />
<path d="M-72.0,28.0 L-75.0,25.0 L-80.0,20.0" fill="yellow" fill-opacity="0.6" stroke="black" stroke-width="1" />
<path d="M-75.0,-25.0 L-80.0,-20.0 L-96.0,-4.0" fill="yellow" fill-opacity="0.6" stroke="black" stroke-width="1" />
<path d="M-75.0,25.0 L-80.0,20.0 L-96.0,4.0" fill="green" fill-opacity="0.6" stroke="black" stroke-width="1" />
<path d="M-80.0,-20.0 L-96.0,-4.0 L-100.0,-0.0" fill="yellow" fill-opacity="0.6" stroke="black" stroke-width="1" />
<path d="M-80.0,20.0 L-96.0,4.0 L-100.0,-0.0" fill="pink" fill-opacity="0.6" stroke="black" stroke-width="1" />
</svg>