<?xml version="1.0" encoding="UTF-8"?>
<svg xmlns="http://www.w3.org/2000/svg" xmlns:xlink="http://www.w3.org/1999/xlink"
     width="250" height="250" viewBox="-125.0 -125.0 250 250">
<defs>
</defs>
<path d="M24.0,-0.0 L32.858591147756584,-5.304370107404603 L36.0,-0.0" fill="red" fill-opacity="0.6" stroke="black" stroke-width="1" />
<path d="M24.0,-0.0 L32.858591147756584,5.304370107404603 L36.0,-0.0" fill="green" fill-opacity="0.6" stroke="black" stroke-width="1" />
<path d="M50.0,50.0 L21.0,79.0 L15.0,85.0" fill="brown" fill-opacity="0.6" stroke="black" stroke-width="1" />
<path d="M50.0,-50.0 L21.0,-79.0 L15.0,-85.0" fill="green" fill-opacity="0.6" stroke="black" stroke-width="1" />
<path d="M21.0,79.0 L15.0,85.0 L0.141466554537506,92.84881108332208" fill="blue" fill-opacity="0.6" stroke="black" stroke-width="1" />
<path d="M21.0,-79.0 L15.0,-85.0 L0.141466554537506,-92.84881108332208" fill="orange" fill-opacity="0.6" stroke="black" stroke-width="1" />
<path d="M15.0,-15.0 L7.151188916677925,-0.141466554537506 L2.0,-2.0" fill="green" fill-opacity="0.6" stroke="black" stroke-width="1" />
<path d="M15.0,15.0 L7.151188916677925,0.141466554537506 L2.0,2.0" fill="purple" fill-opacity="0.6" stroke="black" stroke-width="1" />
<path d="M0.141466554537506,92.84881108332208 L2.0,98.0 L0.0,100.0" fill="brown" fill-opacity="0.6" stroke="black" stroke-width="1" />
<path d="M0.141466554537506,-92.84881108332208 L2.0,-98.0 L0.0,-100.0" fill="black" fill-opacity="0.6" stroke="black" stroke-width="1" />
<path d="M-24.0,-0.0 L-32.858591147756584,-5.304370107404603 L-36.0,-0.0" fill="brown" fill-opacity="0.6" stroke="black" stroke-width="1" />
<path d="M-24.0,-0.0 L-32.858591147756584,5.304370107404603 L-36.0,-0.0" fill="red" fill-opacity="0.6" stroke="black" stroke-width="1" />
<path d="M-50.0,50.0 L-21.0,79.0 L-15.0,85.0" fill="yellow" fill-opacity="0.6" stroke="black" stroke-width="1" />
<path d="M-50.0,-50.0 L-21.0,-79.0 L-15.0,-85.0" fill="pink" fill-opacity="0.6" stroke="black" stroke-width="1" />
<path d="M-21.0,79.0 L-15.0,85.0 L-0.141466554537506,92.84881108332208" fill="black" fill-opacity="0.6" stroke="black" stroke-width="1" />
<path d="M-21.0,-79.0 L-15.0,-85.0 L-0.141466554537506,-92.84881108332208" fill="green" fill-opacity="0.6" stroke="black" stroke-width="1" />
<path d="M-15.0,-15.0 L-7.151188916677925,-0.141466554537506 L-2.0,-2.0" fill="orange" fill-opacity="0.6" stroke="black" stroke-width="1" />
<path d="M-15.0,15.0 L-7.151188916677925,0.141466554537506 L-2.0,2.0" fill="black" fill-opacity="0.6" stroke="black" stroke-width="1" />
<path d="M-0.141466554537506,92.84881108332208 L-2.0,98.0 L0.0,100.0" fill="black" fill-opacity="0.6" stroke="black" stroke-width="1" />
<path d="M-0.141466554537506,-92.84881108332208 L-2.0,-98.0 L0.0,-100.0" fill="green" fill-opacity="0.6" stroke="black" stroke-width="1" />
<path d="M76.0,-0.0 L67.14140885224342,5.304370107404603 L64.0,-0.0" fill="red" fill-opacity="0.6" stroke="black" stroke-width="1" />
<path d="M76.0,-0.0 L67.14140885224342,-5.304370107404603 L64.0,-0.0" fill="purple" fill-opacity="0.6" stroke="black" stroke-width="1" />
<path d="M50.0,50.0 L79.0,21.0 L85.0,15.0" fill="brown" fill-opacity="0.6" stroke="black" stroke-width="1" />
<path d="M50.0,-50.0 L79.0,-21.0 L85.0,-15.0" fill="orange" fill-opacity="0.6" stroke="black" stroke-width="1" />
<path d="M79.0,21.0 L85.0,15.0 L92.84881108332208,0.141466554537506" fill="purple" fill-opacity="0.6" stroke="black" stroke-width="1" />
<path d="M79.0,-21.0 L85.0,-15.0 L92.84881108332208,-0.141466554537506" fill="brown" fill-opacity="0.6" stroke="black" stroke-width="1" />
<path d="M85.0,15.0 L92.84881108332208,0.141466554537506 L98.0,2.0" fill="pink" fill-opacity="0.6" stroke="black" stroke-width="1" />
<path d="M85.0,-15.0 L92.84881108332208,-0.141466554537506 L98.0,-2.0" fill="blue" fill-opacity="0.6" stroke="black" stroke-width="1" />
<path d="M92.84881108332208,0.141466554537506 L98.0,2.0 L100.0,-0.0" fill="yellow" fill-opacity="0.6" stroke="black" stroke-width="1" />
<path d="M92.84881108332208,-0.141466554537506 L98.0,-2.0 L100.0,-0.0" fill="orange" fill-opacity="0.6" stroke="black" stroke-width="1" />
<path d="M0.0,-24.0 L5.304370107404603,-32.858591147756584 L0.0,-36.0" fill="purple" fill-opacity="0.6" stroke="black" stroke-width="1" />
<path d="M0.0,24.0 L5.304370107404603,32.858591147756584 L0.0,36.0" fill="blue" fill-opacity="0.6" stroke="black" stroke-width="1" />
<path d="M0.0,76.0 L5.304370107404603,67.14140885224342 L0.0,64.0" fill="black" fill-opacity="0.6" stroke="black" stroke-width="1" />
<path d="M0.0,-76.0 L5.304370107404603,-67.14140885224342 L0.0,-64.0" fill="black" fill-opacity="0.6" stroke="black" stroke-width="1" />
<path d="M15.0,-15.0 L0.141466554537506,-7.151188916677925 L2.0,-2.0" fill="black" fill-opacity="0.6" stroke="black" stroke-width="1" />
<path d="M15.0,15.0 L0.141466554537506,7.151188916677925 L2.0,2.0" fill="brown" fill-opacity="0.6" stroke="black" stroke-width="1" />
<path d="M15.0,85.0 L0.141466554537506,92.84881108332208 L2.0,98.0" fill="brown" fill-opacity="0.6" stroke="black" stroke-width="1" />
<path d="M15.0,-85.0 L0.141466554537506,-92.84881108332208 L2.0,-98.0" fill="black" fill-opacity="0.6" stroke="black" stroke-width="1" />
<path d="M0.0,76.0 L-5.304370107404603,67.14140885224342 L0.0,64.0" fill="pink" fill-opacity="0.6" stroke="black" stroke-width="1" />
<path d="M0.0,-24.0 L-5.304370107404603,-32.858591147756584 L0.0,-36.0" fill="yellow" fill-opacity="0.6" stroke="black" stroke-width="1" />
<path d="M0.0,24.0 L-5.304370107404603,32.858591147756584 L0.0,36.0" fill="purple" fill-opacity="0.6" stroke="black" stroke-width="1" />
<path d="M0.0,-76.0 L-5.304370107404603,-67.14140885224342 L0.0,-64.0" fill="red" fill-opacity="0.6" stroke="black" stroke-width="1" />
<path d="M-15.0,85.0 L-0.141466554537506,92.84881108332208 L-2.0,98.0" fill="red" fill-opacity="0.6" stroke="black" stroke-width="1" />
<path d="M-15.0,-15.0 L-0.141466554537506,-7.151188916677925 L-2.0,-2.0" fill="blue" fill-opacity="0.6" stroke="black" stroke-width="1" />
<path d="M-15.0,15.0 L-0.141466554537506,7.151188916677924 L-2.0,2.0" fill="green" fill-opacity="0.6" stroke="black" stroke-width="1" />
<path d="M-15.0,-85.0 L-0.141466554537506,-92.84881108332208 L-2.0,-98.0" fill="orange" fill-opacity="0.6" stroke="black" stroke-width="1" />
<path d="M-76.0,-0.0 L-67.14140885224342,-5.304370107404603 L-64.0,-0.0" fill="black" fill-opacity="0.6" stroke="black" stroke-width="1" />
<path d="M-76.0,-0.0 L-67.14140885224342,5.304370107404603 L-64.0,-0.0" fill="yellow" fill-opacity="0.6" stroke="black" stroke-width="1" />
<path d="M-50.0,-50.0 L-79.0,-21.0 L-85.0,-15.0" fill="green" fill-opacity="0.6" stroke="black" stroke-width="1" />
<path d="M-50.0,50.0 L-79.0,21.0 L-85.0,15.0" fill="red" fill-opacity="0.6" stroke="black" stroke-width="1" />
<path d="M-79.0,-21.0 L-85.0,-15.0 L-92.84881108332208,-0.141466554537506" fill="purple" fill-opacity="0.6" stroke="black" stroke-width="1" />
<path d="M-79.0,21.0 L-85.0,15.0 L-92.84881108332208,0.141466554537506" fill="red" fill-opacity="0.6" stroke="black" stroke-width="1" />
<path d="M-85.0,-15.0 L-92.84881108332208,-0.141466554537506 L-98.0,-2.0" fill="blue" fill-opacity="0.6" stroke="black" stroke-width="1" />
<path d="M-85.0,15.0 L-92.84881108332208,0.141466554537506 L-98.0,2.0" fill="brown" fill-opacity="0.6" stroke="black" stroke-width="1" />
<path d="M-92.84881108332208,-0.141466554537506 L-98.0,-2.0 L-100.0,-0.0" fill="black" fill-opacity="0.6" stroke="black" stroke-width="1" />
<path d="M-92.84881108332208,0.141466554537506 L-98.0,2.0 L-100.0,-0.0" fill="yellow" fill-opacity="0.6" stroke="black" stroke-width="1" />
</svg>