<?xml version="1.0" encoding="UTF-8"?>
<svg xmlns="http://www.w3.org/2000/svg" xmlns:xlink="http://www.w3.org/1999/xlink"
     width="250" height="250" viewBox="-125.0 -125.0 250 250">
<defs>
</defs>
<path d="M0.0,-0.0 L13.079298685385938,-5.027524228605803 L21.0,-0.0" fill-opacity="0" stroke="black" stroke-width="1" />
<path d="M0.0,-0.0 L13.079298685385938,5.027524228605803 L21.0,-0.0" fill-opacity="0" stroke="black" stroke-width="1" />
<path d="M25.0,75.0 L21.0,79.0 L3.0503439990591104,92.58301213608476" fill-opacity="0" stroke="black" stroke-width="1" />
<path d="M25.0,-75.0 L21.0,-79.0 L3.0503439990591104,-92.58301213608476" fill-opacity="0" stroke="black" stroke-width="1" />
<path d="M21.0,-0.0 L21.40994896986452,-7.2492093482537285 L22.0,-0.0" fill-opacity="0" stroke="black" stroke-width="1" />
<path d="M21.0,-0.0 L21.40994896986452,7.2492093482537285 L22.0,-0.0" fill-opacity="0" stroke="black" stroke-width="1" />
<path d="M22.0,-0.0 L29.492727667894826,-12.154038922365908 L30.0,-0.0" fill-opacity="0" stroke="black" stroke-width="1" />
<path d="M22.0,-0.0 L29.492727667894826,12.154038922365908 L30.0,-0.0" fill-opacity="0" stroke="black" stroke-width="1" />
<path d="M50.0,-14.0 L33.353232309956525,-19.067017647352174 L40.20386851529778,-19.540490143839083" fill-opacity="0" stroke="black" stroke-width="1" />
<path d="M50.0,14.0 L33.353232309956525,19.067017647352174 L40.20386851529778,19.540490143839083" fill-opacity="0" stroke="black" stroke-width="1" />
<path d="M33.353232309956525,-19.067017647352174 L40.20386851529778,-19.540490143839083 L44.767939463923696,-23.90926887371506" fill-opacity="0" stroke="black" stroke-width="1" />
<path d="M33.353232309956525,19.067017647352174 L40.20386851529778,19.540490143839083 L44.767939463923696,23.90926887371506" fill-opacity="0" stroke="black" stroke-width="1" />
<path d="M40.20386851529778,-19.540490143839083 L44.767939463923696,-23.90926887371506 L47.312207190609996,-24.50410789390692" fill-opacity="0" stroke="black" stroke-width="1" />
<path d="M40.20386851529778,19.540490143839083 L44.767939463923696,23.90926887371506 L47.312207190609996,24.50410789390692" fill-opacity="0" stroke="black" stroke-width="1" />
<path d="M44.767939463923696,-23.90926887371506 L47.312207190609996,-24.50410789390692 L50.0,-29.0" fill-opacity="0" stroke="black" stroke-width="1" />
<path d="M44.767939463923696,23.90926887371506 L47.312207190609996,24.50410789390692 L50.0,29.0" fill-opacity="0" stroke="black" stroke-width="1" />
<path d="M50.0,-29.0 L48.38349201526343,-37.57697805239522 L50.0,-41.0" fill-opacity="0" stroke="black" stroke-width="1" />
<path d="M50.0,29.0 L48.38349201526343,37.57697805239522 L50.0,41.0" fill-opacity="0" stroke="black" stroke-width="1" />
<path d="M50.0,50.0 L40.0,60.0 L25.0,75.0" fill-opacity="0" stroke="black" stroke-width="1" />
<path d="M50.0,-50.0 L40.0,-60.0 L25.0,-75.0" fill-opacity="0" stroke="black" stroke-width="1" />
<path d="M40.0,60.0 L25.0,75.0 L21.0,79.0" fill-opacity="0" stroke="black" stroke-width="1" />
<path d="M40.0,-60.0 L25.0,-75.0 L21.0,-79.0" fill-opacity="0" stroke="black" stroke-width="1" />
<path d="M21.0,-21.0 L7.416987863915232,-3.0503439990591104 L7.282623751479167,-2.7708821574249933" fill-opacity="0" stroke="black" stroke-width="1" />
<path d="M21.0,21.0 L7.416987863915232,3.0503439990591104 L7.282623751479167,2.7708821574249933" fill-opacity="0" stroke="black" stroke-width="1" />
<path d="M7.416987863915232,-3.0503439990591104 L7.282623751479167,-2.7708821574249933 L7.0,-7.0" fill-opacity="0" stroke="black" stroke-width="1" />
<path d="M7.416987863915232,3.0503439990591104 L7.282623751479167,2.7708821574249933 L7.0,7.0" fill-opacity="0" stroke="black" stroke-width="1" />
<path d="M2.7708821574249933,92.71737624852084 L7.0,93.0 L1.5516521226634106,93.51647287425463" fill-opacity="0" stroke="black" stroke-width="1" />
<path d="M2.7708821574249933,-92.71737624852084 L7.0,-93.0 L1.5516521226634106,-93.51647287425463" fill-opacity="0" stroke="black" stroke-width="1" />
<path d="M7.0,-7.0 L6.48352712574537,-1.5516521226634106 L2.950272888350253,-0.759516449244516" fill-opacity="0" stroke="black" stroke-width="1" />
<path d="M7.0,7.0 L6.48352712574537,1.5516521226634106 L2.950272888350253,0.759516449244516" fill-opacity="0" stroke="black" stroke-width="1" />
<path d="M6.48352712574537,-1.5516521226634106 L2.950272888350253,-0.759516449244516 L1.0406958266622468,-0.3756667128887725" fill-opacity="0" stroke="black" stroke-width="1" />
<path d="M6.48352712574537,1.5516521226634106 L2.950272888350253,0.759516449244516 L1.0406958266622468,0.3756667128887725" fill-opacity="0" stroke="black" stroke-width="1" />
<path d="M2.950272888350253,-0.759516449244516 L1.0406958266622468,-0.3756667128887725 L0.0,-0.0" fill-opacity="0" stroke="black" stroke-width="1" />
<path d="M2.950272888350253,0.759516449244516 L1.0406958266622468,0.3756667128887725 L0.0,-0.0" fill-opacity="0" stroke="black" stroke-width="1" />
<path d="M0.0,-0.0 L-13.079298685385938,-5.027524228605803 L-21.0,-0.0" fill-opacity="0" stroke="black" stroke-width="1" />
<path d="M0.0,-0.0 L-13.079298685385938,5.027524228605803 L-21.0,-0.0" fill-opacity="0" stroke="black" stroke-width="1" />
<path d="M-25.0,75.0 L-21.0,79.0 L-3.0503439990591104,92.58301213608476" fill-opacity="0" stroke="black" stroke-width="1" />
<path d="M-25.0,-75.0 L-21.0,-79.0 L-3.0503439990591104,-92.58301213608476" fill-opacity="0" stroke="black" stroke-width="1" />
<path d="M-21.0,-0.0 L-21.40994896986452,-7.2492093482537285 L-22.0,-0.0" fill-opacity="0" stroke="black" stroke-width="1" />
<path d="M-21.0,-0.0 L-21.40994896986452,7.2492093482537285 L-22.0,-0.0" fill-opacity="0" stroke="black" stroke-width="1" />
<path d="M-22.0,-0.0 L-29.492727667894826,-12.154038922365908 L-30.0,-0.0" fill-opacity="0" stroke="black" stroke-width="1" />
<path d="M-22.0,-0.0 L-29.492727667894826,12.154038922365908 L-30.0,-0.0" fill-opacity="0" stroke="black" stroke-width="1" />
<path d="M-50.0,-14.0 L-33.353232309956525,-19.067017647352174 L-40.20386851529778,-19.540490143839083" fill-opacity="0" stroke="black" stroke-width="1" />
<path d="M-50.0,14.0 L-33.353232309956525,19.067017647352174 L-40.20386851529778,19.540490143839083" fill-opacity="0" stroke="black" stroke-width="1" />
<path d="M-33.353232309956525,-19.067017647352174 L-40.20386851529778,-19.540490143839083 L-44.767939463923696,-23.90926887371506" fill-opacity="0" stroke="black" stroke-width="1" />
<path d="M-33.353232309956525,19.067017647352174 L-40.20386851529778,19.540490143839083 L-44.767939463923696,23.90926887371506" fill-opacity="0" stroke="black" stroke-width="1" />
<path d="M-40.20386851529778,-19.540490143839083 L-44.767939463923696,-23.90926887371506 L-47.312207190609996,-24.50410789390692" fill-opacity="0" stroke="black" stroke-width="1" />
<path d="M-40.20386851529778,19.540490143839083 L-44.767939463923696,23.90926887371506 L-47.312207190609996,24.50410789390692" fill-opacity="0" stroke="black" stroke-width="1" />
<path d="M-44.767939463923696,-23.90926887371506 L-47.312207190609996,-24.50410789390692 L-50.0,-29.0" fill-opacity="0" stroke="black" stroke-width="1" />
<path d="M-44.767939463923696,23.90926887371506 L-47.312207190609996,24.50410789390692 L-50.0,29.0" fill-opacity="0" stroke="black" stroke-width="1" />
<path d="M-50.0,-29.0 L-48.38349201526343,-37.57697805239522 L-50.0,-41.0" fill-opacity="0" stroke="black" stroke-width="1" />
<path d="M-50.0,29.0 L-48.38349201526343,37.57697805239522 L-50.0,41.0" fill-opacity="0" stroke="black" stroke-width="1" />
<path d="M-50.0,50.0 L-40.0,60.0 L-25.0,75.0" fill-opacity="0" stroke="black" stroke-width="1" />
<path d="M-50.0,-50.0 L-40.0,-60.0 L-25.0,-75.0" fill-opacity="0" stroke="black" stroke-width="1" />
<path d="M-40.0,60.0 L-25.0,75.0 L-21.0,79.0" fill-opacity="0" stroke="black" stroke-width="1" />
<path d="M-40.0,-60.0 L-25.0,-75.0 L-21.0,-79.0" fill-opacity="0" stroke="black" stroke-width="1" />
<path d="M-21.0,-21.0 L-7.416987863915232,-3.0503439990591104 L-7.282623751479167,-2.7708821574249933" fill-opacity="0" stroke="black" stroke-width="1" />
<path d="M-21.0,21.0 L-7.416987863915232,3.0503439990591104 L-7.282623751479167,2.7708821574249933" fill-opacity="0" stroke="black" stroke-width="1" />
<path d="M-7.416987863915232,-3.0503439990591104 L-7.282623751479167,-2.7708821574249933 L-7.0,-7.0" fill-opacity="0" stroke="black" stroke-width="1" />
<path d="M-7.416987863915232,3.0503439990591104 L-7.282623751479167,2.7708821574249933 L-7.0,7.0" fill-opacity="0" stroke="black" stroke-width="1" />
<path d="M-2.7708821574249933,92.71737624852084 L-7.0,93.0 L-1.5516521226634106,93.51647287425463" fill-opacity="0" stroke="black" stroke-width="1" />
<path d="M-2.7708821574249933,-92.71737624852084 L-7.0,-93.0 L-1.5516521226634106,-93.51647287425463" fill-opacity="0" stroke="black" stroke-width="1" />
<path d="M-7.0,-7.0 L-6.48352712574537,-1.5516521226634106 L-2.950272888350253,-0.759516449244516" fill-opacity="0" stroke="black" stroke-width="1" />
<path d="M-7.0,7.0 L-6.48352712574537,1.5516521226634106 L-2.950272888350253,0.759516449244516" fill-opacity="0" stroke="black" stroke-width="1" />
<path d="M-6.48352712574537,-1.5516521226634106 L-2.950272888350253,-0.759516449244516 L-1.0406958266622468,-0.3756667128887725" fill-opacity="0" stroke="black" stroke-width="1" />
<path d="M-6.48352712574537,1.5516521226634106 L-2.950272888350253,0.759516449244516 L-1.0406958266622468,0.3756667128887725" fill-opacity="0" stroke="black" stroke-width="1" />
<path d="M-2.950272888350253,-0.759516449244516 L-1.0406958266622468,-0.3756667128887725 L0.0,-0.0" fill-opacity="0" stroke="black" stroke-width="1" />
<path d="M-2.950272888350253,0.759516449244516 L-1.0406958266622468,0.3756667128887725 L0.0,-0.0" fill-opacity="0" stroke="black" stroke-width="1" />
<path d="M100.0,-0.0 L86.92070131461406,5.027524228605803 L79.0,-0.0" fill-opacity="0" stroke="black" stroke-width="1" />
<path d="M100.0,-0.0 L86.92070131461406,-5.027524228605803 L79.0,-0.0" fill-opacity="0" stroke="black" stroke-width="1" />
<path d="M75.0,25.0 L79.0,21.0 L92.58301213608476,3.0503439990591104" fill-opacity="0" stroke="black" stroke-width="1" />
<path d="M75.0,-25.0 L79.0,-21.0 L92.58301213608476,-3.0503439990591104" fill-opacity="0" stroke="black" stroke-width="1" />
<path d="M79.0,-0.0 L78.59005103013548,7.2492093482537285 L78.0,-0.0" fill-opacity="0" stroke="black" stroke-width="1" />
<path d="M79.0,-0.0 L78.59005103013548,-7.2492093482537285 L78.0,-0.0" fill-opacity="0" stroke="black" stroke-width="1" />
<path d="M78.0,-0.0 L70.50727233210517,12.154038922365908 L70.0,-0.0" fill-opacity="0" stroke="black" stroke-width="1" />
<path d="M78.0,-0.0 L70.50727233210517,-12.154038922365908 L70.0,-0.0" fill-opacity="0" stroke="black" stroke-width="1" />
<path d="M50.0,14.0 L66.64676769004348,19.067017647352174 L59.79613148470222,19.540490143839083" fill-opacity="0" stroke="black" stroke-width="1" />
<path d="M50.0,-14.0 L66.64676769004348,-19.067017647352174 L59.79613148470222,-19.540490143839083" fill-opacity="0" stroke="black" stroke-width="1" />
<path d="M66.64676769004348,19.067017647352174 L59.79613148470222,19.540490143839083 L55.232060536076304,23.90926887371506" fill-opacity="0" stroke="black" stroke-width="1" />
<path d="M66.64676769004348,-19.067017647352174 L59.79613148470222,-19.540490143839083 L55.232060536076304,-23.90926887371506" fill-opacity="0" stroke="black" stroke-width="1" />
<path d="M59.79613148470222,19.540490143839083 L55.232060536076304,23.90926887371506 L52.687792809390004,24.50410789390692" fill-opacity="0" stroke="black" stroke-width="1" />
<path d="M59.79613148470222,-19.540490143839083 L55.232060536076304,-23.90926887371506 L52.687792809390004,-24.50410789390692" fill-opacity="0" stroke="black" stroke-width="1" />
<path d="M55.232060536076304,23.90926887371506 L52.687792809390004,24.50410789390692 L50.0,29.0" fill-opacity="0" stroke="black" stroke-width="1" />
<path d="M55.232060536076304,-23.90926887371506 L52.687792809390004,-24.50410789390692 L50.0,-29.0" fill-opacity="0" stroke="black" stroke-width="1" />
<path d="M50.0,29.0 L51.61650798473657,37.57697805239522 L50.0,41.0" fill-opacity="0" stroke="black" stroke-width="1" />
<path d="M50.0,-29.0 L51.61650798473657,-37.57697805239522 L50.0,-41.0" fill-opacity="0" stroke="black" stroke-width="1" />
<path d="M50.0,50.0 L60.0,40.0 L75.0,25.0" fill-opacity="0" stroke="black" stroke-width="1" />
<path d="M50.0,-50.0 L60.0,-40.0 L75.0,-25.0" fill-opacity="0" stroke="black" stroke-width="1" />
<path d="M60.0,40.0 L75.0,25.0 L79.0,21.0" fill-opacity="0" stroke="black" stroke-width="1" />
<path d="M60.0,-40.0 L75.0,-25.0 L79.0,-21.0" fill-opacity="0" stroke="black" stroke-width="1" />
<path d="M79.0,21.0 L92.58301213608476,3.0503439990591104 L92.71737624852084,2.7708821574249933" fill-opacity="0" stroke="black" stroke-width="1" />
<path d="M79.0,-21.0 L92.58301213608476,-3.0503439990591104 L92.71737624852084,-2.7708821574249933" fill-opacity="0" stroke="black" stroke-width="1" />
<path d="M92.58301213608476,3.0503439990591104 L92.71737624852084,2.7708821574249933 L93.0,7.0" fill-opacity="0" stroke="black" stroke-width="1" />
<path d="M92.58301213608476,-3.0503439990591104 L92.71737624852084,-2.7708821574249933 L93.0,-7.0" fill-opacity="0" stroke="black" stroke-width="1" />
<path d="M92.71737624852084,2.7708821574249933 L93.0,7.0 L93.51647287425463,1.5516521226634106" fill-opacity="0" stroke="black" stroke-width="1" />
<path d="M92.71737624852084,-2.7708821574249933 L93.0,-7.0 L93.51647287425463,-1.5516521226634106" fill-opacity="0" stroke="black" stroke-width="1" />
<path d="M93.0,7.0 L93.51647287425463,1.5516521226634106 L97.04972711164974,0.759516449244516" fill-opacity="0" stroke="black" stroke-width="1" />
<path d="M93.0,-7.0 L93.51647287425463,-1.5516521226634106 L97.04972711164974,-0.759516449244516" fill-opacity="0" stroke="black" stroke-width="1" />
<path d="M93.51647287425463,1.5516521226634106 L97.04972711164974,0.759516449244516 L98.95930417333776,0.3756667128887725" fill-opacity="0" stroke="black" stroke-width="1" />
<path d="M93.51647287425463,-1.5516521226634106 L97.04972711164974,-0.759516449244516 L98.95930417333776,-0.3756667128887725" fill-opacity="0" stroke="black" stroke-width="1" />
<path d="M97.04972711164974,0.759516449244516 L98.95930417333776,0.3756667128887725 L100.0,-0.0" fill-opacity="0" stroke="black" stroke-width="1" />
<path d="M97.04972711164974,-0.759516449244516 L98.95930417333776,-0.3756667128887725 L100.0,-0.0" fill-opacity="0" stroke="black" stroke-width="1" />
<path d="M0.0,-0.0 L5.027524228605803,-13.079298685385938 L0.0,-21.0" fill-opacity="0" stroke="black" stroke-width="1" />
<path d="M0.0,-0.0 L5.027524228605803,13.079298685385938 L0.0,21.0" fill-opacity="0" stroke="black" stroke-width="1" />
<path d="M0.0,100.0 L5.027524228605803,86.92070131461406 L0.0,79.0" fill-opacity="0" stroke="black" stroke-width="1" />
<path d="M0.0,-100.0 L5.027524228605803,-86.92070131461406 L0.0,-79.0" fill-opacity="0" stroke="black" stroke-width="1" />
<path d="M0.0,-21.0 L7.2492093482537285,-21.40994896986452 L0.0,-22.0" fill-opacity="0" stroke="black" stroke-width="1" />
<path d="M0.0,21.0 L7.2492093482537285,21.40994896986452 L0.0,22.0" fill-opacity="0" stroke="black" stroke-width="1" />
<path d="M0.0,79.0 L7.2492093482537285,78.59005103013548 L0.0,78.0" fill-opacity="0" stroke="black" stroke-width="1" />
<path d="M0.0,-79.0 L7.2492093482537285,-78.59005103013548 L0.0,-78.0" fill-opacity="0" stroke="black" stroke-width="1" />
<path d="M0.0,-22.0 L12.154038922365908,-29.492727667894826 L0.0,-30.0" fill-opacity="0" stroke="black" stroke-width="1" />
<path d="M0.0,22.0 L12.154038922365908,29.492727667894826 L0.0,30.0" fill-opacity="0" stroke="black" stroke-width="1" />
<path d="M0.0,78.0 L12.154038922365908,70.50727233210517 L0.0,70.0" fill-opacity="0" stroke="black" stroke-width="1" />
<path d="M0.0,-78.0 L12.154038922365908,-70.50727233210517 L0.0,-70.0" fill-opacity="0" stroke="black" stroke-width="1" />
<path d="M14.0,-50.0 L19.067017647352174,-33.353232309956525 L19.540490143839083,-40.20386851529778" fill-opacity="0" stroke="black" stroke-width="1" />
<path d="M14.0,50.0 L19.067017647352174,33.353232309956525 L19.540490143839083,40.20386851529778" fill-opacity="0" stroke="black" stroke-width="1" />
<path d="M14.0,50.0 L19.067017647352174,66.64676769004348 L19.540490143839083,59.79613148470222" fill-opacity="0" stroke="black" stroke-width="1" />
<path d="M14.0,-50.0 L19.067017647352174,-66.64676769004348 L19.540490143839083,-59.79613148470222" fill-opacity="0" stroke="black" stroke-width="1" />
<path d="M19.067017647352174,-33.353232309956525 L19.540490143839083,-40.20386851529778 L23.90926887371506,-44.767939463923696" fill-opacity="0" stroke="black" stroke-width="1" />
<path d="M19.067017647352174,33.353232309956525 L19.540490143839083,40.20386851529778 L23.90926887371506,44.767939463923696" fill-opacity="0" stroke="black" stroke-width="1" />
<path d="M19.067017647352174,66.64676769004348 L19.540490143839083,59.79613148470222 L23.90926887371506,55.232060536076304" fill-opacity="0" stroke="black" stroke-width="1" />
<path d="M19.067017647352174,-66.64676769004348 L19.540490143839083,-59.79613148470222 L23.90926887371506,-55.232060536076304" fill-opacity="0" stroke="black" stroke-width="1" />
<path d="M19.540490143839083,-40.20386851529778 L23.90926887371506,-44.767939463923696 L24.50410789390692,-47.312207190609996" fill-opacity="0" stroke="black" stroke-width="1" />
<path d="M19.540490143839083,40.20386851529778 L23.90926887371506,44.767939463923696 L24.50410789390692,47.312207190609996" fill-opacity="0" stroke="black" stroke-width="1" />
<path d="M19.540490143839083,59.79613148470222 L23.90926887371506,55.232060536076304 L24.50410789390692,52.687792809390004" fill-opacity="0" stroke="black" stroke-width="1" />
<path d="M19.540490143839083,-59.79613148470222 L23.90926887371506,-55.232060536076304 L24.50410789390692,-52.687792809390004" fill-opacity="0" stroke="black" stroke-width="1" />
<path d="M23.90926887371506,-44.767939463923696 L24.50410789390692,-47.312207190609996 L29.0,-50.0" fill-opacity="0" stroke="black" stroke-width="1" />
<path d="M23.90926887371506,44.767939463923696 L24.50410789390692,47.312207190609996 L29.0,50.0" fill-opacity="0" stroke="black" stroke-width="1" />
<path d="M23.90926887371506,55.232060536076304 L24.50410789390692,52.687792809390004 L29.0,50.0" fill-opacity="0" stroke="black" stroke-width="1" />
<path d="M23.90926887371506,-55.232060536076304 L24.50410789390692,-52.687792809390004 L29.0,-50.0" fill-opacity="0" stroke="black" stroke-width="1" />
<path d="M29.0,-50.0 L37.57697805239522,-48.38349201526343 L41.0,-50.0" fill-opacity="0" stroke="black" stroke-width="1" />
<path d="M29.0,50.0 L37.57697805239522,48.38349201526343 L41.0,50.0" fill-opacity="0" stroke="black" stroke-width="1" />
<path d="M29.0,50.0 L37.57697805239522,51.61650798473657 L41.0,50.0" fill-opacity="0" stroke="black" stroke-width="1" />
<path d="M29.0,-50.0 L37.57697805239522,-51.61650798473657 L41.0,-50.0" fill-opacity="0" stroke="black" stroke-width="1" />
<path d="M21.0,-21.0 L3.0503439990591104,-7.416987863915232 L2.7708821574249933,-7.282623751479167" fill-opacity="0" stroke="black" stroke-width="1" />
<path d="M21.0,21.0 L3.0503439990591104,7.416987863915232 L2.7708821574249933,7.282623751479167" fill-opacity="0" stroke="black" stroke-width="1" />
<path d="M21.0,79.0 L3.0503439990591104,92.58301213608476 L2.7708821574249933,92.71737624852084" fill-opacity="0" stroke="black" stroke-width="1" />
<path d="M21.0,-79.0 L3.0503439990591104,-92.58301213608476 L2.7708821574249933,-92.71737624852084" fill-opacity="0" stroke="black" stroke-width="1" />
<path d="M3.0503439990591104,-7.416987863915232 L2.7708821574249933,-7.282623751479167 L7.0,-7.0" fill-opacity="0" stroke="black" stroke-width="1" />
<path d="M3.0503439990591104,7.416987863915232 L2.7708821574249933,7.282623751479167 L7.0,7.0" fill-opacity="0" stroke="black" stroke-width="1" />
<path d="M3.0503439990591104,92.58301213608476 L2.7708821574249933,92.71737624852084 L7.0,93.0" fill-opacity="0" stroke="black" stroke-width="1" />
<path d="M3.0503439990591104,-92.58301213608476 L2.7708821574249933,-92.71737624852084 L7.0,-93.0" fill-opacity="0" stroke="black" stroke-width="1" />
<path d="M7.0,-7.0 L1.5516521226634106,-6.48352712574537 L0.759516449244516,-2.950272888350253" fill-opacity="0" stroke="black" stroke-width="1" />
<path d="M7.0,7.0 L1.5516521226634106,6.48352712574537 L0.759516449244516,2.950272888350253" fill-opacity="0" stroke="black" stroke-width="1" />
<path d="M7.0,93.0 L1.5516521226634106,93.51647287425463 L0.759516449244516,97.04972711164974" fill-opacity="0" stroke="black" stroke-width="1" />
<path d="M7.0,-93.0 L1.5516521226634106,-93.51647287425463 L0.759516449244516,-97.04972711164974" fill-opacity="0" stroke="black" stroke-width="1" />
<path d="M1.5516521226634106,-6.48352712574537 L0.759516449244516,-2.950272888350253 L0.3756667128887725,-1.0406958266622468" fill-opacity="0" stroke="black" stroke-width="1" />
<path d="M1.5516521226634106,6.48352712574537 L0.759516449244516,2.950272888350253 L0.3756667128887725,1.0406958266622468" fill-opacity="0" stroke="black" stroke-width="1" />
<path d="M1.5516521226634106,93.51647287425463 L0.759516449244516,97.04972711164974 L0.3756667128887725,98.95930417333776" fill-opacity="0" stroke="black" stroke-width="1" />
<path d="M1.5516521226634106,-93.51647287425463 L0.759516449244516,-97.04972711164974 L0.3756667128887725,-98.95930417333776" fill-opacity="0" stroke="black" stroke-width="1" />
<path d="M0.759516449244516,-2.950272888350253 L0.3756667128887725,-1.0406958266622468 L0.0,-0.0" fill-opacity="0" stroke="black" stroke-width="1" />
<path d="M0.759516449244516,2.950272888350253 L0.3756667128887725,1.0406958266622468 L0.0,-0.0" fill-opacity="0" stroke="black" stroke-width="1" />
<path d="M0.759516449244516,97.04972711164974 L0.3756667128887725,98.95930417333776 L0.0,100.0" fill-opacity="0" stroke="black" stroke-width="1" />
<path d="M0.759516449244516,-97.04972711164974 L0.3756667128887725,-98.95930417333776 L0.0,-100.0" fill-opacity="0" stroke="black" stroke-width="1" />
<path d="M0.0,100.0 L-5.027524228605803,86.92070131461406 L0.0,79.0" fill-opacity="0" stroke="black" stroke-width="1" />
<path d="M0.0,-0.0 L-5.027524228605803,-13.079298685385938 L0.0,-21.0" fill-opacity="0" stroke="black" stroke-width="1" />
<path d="M0.0,-0.0 L-5.027524228605803,13.079298685385936 L0.0,21.0" fill-opacity="0" stroke="black" stroke-width="1" />
<path d="M0.0,-100.0 L-5.027524228605803,-86.92070131461406 L0.0,-79.0" fill-opacity="0" stroke="black" stroke-width="1" />
<path d="M0.0,79.0 L-7.2492093482537285,78.59005103013548 L0.0,78.0" fill-opacity="0" stroke="black" stroke-width="1" />
<path d="M0.0,-21.0 L-7.2492093482537285,-21.40994896986452 L0.0,-22.0" fill-opacity="0" stroke="black" stroke-width="1" />
<path d="M0.0,21.0 L-7.2492093482537285,21.409948969864516 L0.0,22.0" fill-opacity="0" stroke="black" stroke-width="1" />
<path d="M0.0,-79.0 L-7.2492093482537285,-78.59005103013548 L0.0,-78.0" fill-opacity="0" stroke="black" stroke-width="1" />
<path d="M0.0,78.0 L-12.154038922365908,70.50727233210517 L0.0,70.0" fill-opacity="0" stroke="black" stroke-width="1" />
<path d="M0.0,-22.0 L-12.154038922365908,-29.492727667894826 L0.0,-30.0" fill-opacity="0" stroke="black" stroke-width="1" />
<path d="M0.0,22.0 L-12.154038922365908,29.492727667894826 L0.0,30.0" fill-opacity="0" stroke="black" stroke-width="1" />
<path d="M0.0,-78.0 L-12.154038922365908,-70.50727233210517 L0.0,-70.0" fill-opacity="0" stroke="black" stroke-width="1" />
<path d="M-14.0,50.0 L-19.067017647352174,66.64676769004348 L-19.540490143839083,59.79613148470222" fill-opacity="0" stroke="black" stroke-width="1" />
<path d="M-14.0,-50.0 L-19.067017647352174,-33.353232309956525 L-19.540490143839083,-40.20386851529778" fill-opacity="0" stroke="black" stroke-width="1" />
<path d="M-14.0,50.0 L-19.067017647352174,33.353232309956525 L-19.540490143839083,40.20386851529778" fill-opacity="0" stroke="black" stroke-width="1" />
<path d="M-14.0,-50.0 L-19.067017647352174,-66.64676769004348 L-19.540490143839083,-59.79613148470222" fill-opacity="0" stroke="black" stroke-width="1" />
<path d="M-19.067017647352174,66.64676769004348 L-19.540490143839083,59.79613148470222 L-23.90926887371506,55.232060536076304" fill-opacity="0" stroke="black" stroke-width="1" />
<path d="M-19.067017647352174,-33.353232309956525 L-19.540490143839083,-40.20386851529778 L-23.90926887371506,-44.767939463923696" fill-opacity="0" stroke="black" stroke-width="1" />
<path d="M-19.067017647352174,33.353232309956525 L-19.540490143839083,40.20386851529778 L-23.90926887371506,44.767939463923696" fill-opacity="0" stroke="black" stroke-width="1" />
<path d="M-19.067017647352174,-66.64676769004348 L-19.540490143839083,-59.79613148470222 L-23.90926887371506,-55.232060536076304" fill-opacity="0" stroke="black" stroke-width="1" />
<path d="M-19.540490143839083,59.79613148470222 L-23.90926887371506,55.232060536076304 L-24.50410789390692,52.687792809390004" fill-opacity="0" stroke="black" stroke-width="1" />
<path d="M-19.540490143839083,-40.20386851529778 L-23.90926887371506,-44.767939463923696 L-24.50410789390692,-47.312207190609996" fill-opacity="0" stroke="black" stroke-width="1" />
<path d="M-19.540490143839083,40.20386851529778 L-23.90926887371506,44.767939463923696 L-24.50410789390692,47.312207190609996" fill-opacity="0" stroke="black" stroke-width="1" />
<path d="M-19.540490143839083,-59.79613148470222 L-23.90926887371506,-55.232060536076304 L-24.50410789390692,-52.687792809390004" fill-opacity="0" stroke="black" stroke-width="1" />
<path d="M-23.90926887371506,55.232060536076304 L-24.50410789390692,52.687792809390004 L-29.0,50.0" fill-opacity="0" stroke="black" stroke-width="1" />
<path d="M-23.90926887371506,-44.767939463923696 L-24.50410789390692,-47.312207190609996 L-29.0,-50.0" fill-opacity="0" stroke="black" stroke-width="1" />
<path d="M-23.90926887371506,44.767939463923696 L-24.50410789390692,47.312207190609996 L-29.0,50.0" fill-opacity="0" stroke="black" stroke-width="1" />
<path d="M-23.90926887371506,-55.232060536076304 L-24.50410789390692,-52.687792809390004 L-29.0,-50.0" fill-opacity="0" stroke="black" stroke-width="1" />
<path d="M-29.0,50.0 L-37.57697805239522,51.61650798473657 L-41.0,50.0" fill-opacity="0" stroke="black" stroke-width="1" />
<path d="M-29.0,-50.0 L-37.57697805239522,-48.38349201526343 L-41.0,-50.0" fill-opacity="0" stroke="black" stroke-width="1" />
<path d="M-29.0,50.0 L-37.57697805239522,48.38349201526343 L-41.0,50.0" fill-opacity="0" stroke="black" stroke-width="1" />
<path d="M-29.0,-50.0 L-37.57697805239522,-51.61650798473657 L-41.0,-50.0" fill-opacity="0" stroke="black" stroke-width="1" />
<path d="M-21.0,79.0 L-3.0503439990591104,92.58301213608476 L-2.7708821574249933,92.71737624852084" fill-opacity="0" stroke="black" stroke-width="1" />
<path d="M-21.0,-21.0 L-3.0503439990591104,-7.416987863915232 L-2.7708821574249933,-7.282623751479167" fill-opacity="0" stroke="black" stroke-width="1" />
<path d="M-21.0,21.0 L-3.0503439990591104,7.416987863915239 L-2.7708821574249933,7.282623751479164" fill-opacity="0" stroke="black" stroke-width="1" />
<path d="M-21.0,-79.0 L-3.0503439990591104,-92.58301213608476 L-2.7708821574249933,-92.71737624852084" fill-opacity="0" stroke="black" stroke-width="1" />
<path d="M-3.0503439990591104,92.58301213608476 L-2.7708821574249933,92.71737624852084 L-7.0,93.0" fill-opacity="0" stroke="black" stroke-width="1" />
<path d="M-3.0503439990591104,-7.416987863915232 L-2.7708821574249933,-7.282623751479167 L-7.0,-7.0" fill-opacity="0" stroke="black" stroke-width="1" />
<path d="M-3.0503439990591104,7.416987863915239 L-2.7708821574249933,7.282623751479164 L-7.0,7.0" fill-opacity="0" stroke="black" stroke-width="1" />
<path d="M-3.0503439990591104,-92.58301213608476 L-2.7708821574249933,-92.71737624852084 L-7.0,-93.0" fill-opacity="0" stroke="black" stroke-width="1" />
<path d="M-7.0,93.0 L-1.5516521226634106,93.51647287425463 L-0.759516449244516,97.04972711164974" fill-opacity="0" stroke="black" stroke-width="1" />
<path d="M-7.0,-7.0 L-1.5516521226634106,-6.48352712574537 L-0.759516449244516,-2.950272888350253" fill-opacity="0" stroke="black" stroke-width="1" />
<path d="M-7.0,7.0 L-1.5516521226634106,6.483527125745368 L-0.759516449244516,2.9502728883502556" fill-opacity="0" stroke="black" stroke-width="1" />
<path d="M-7.0,-93.0 L-1.5516521226634106,-93.51647287425463 L-0.759516449244516,-97.04972711164974" fill-opacity="0" stroke="black" stroke-width="1" />
<path d="M-1.5516521226634106,93.51647287425463 L-0.759516449244516,97.04972711164974 L-0.3756667128887725,98.95930417333776" fill-opacity="0" stroke="black" stroke-width="1" />
<path d="M-1.5516521226634106,-6.48352712574537 L-0.759516449244516,-2.950272888350253 L-0.3756667128887725,-1.0406958266622468" fill-opacity="0" stroke="black" stroke-width="1" />
<path d="M-1.5516521226634106,6.483527125745368 L-0.759516449244516,2.9502728883502556 L-0.3756667128887725,1.040695826662244" fill-opacity="0" stroke="black" stroke-width="1" />
<path d="M-1.5516521226634106,-93.51647287425463 L-0.759516449244516,-97.04972711164974 L-0.3756667128887725,-98.95930417333776" fill-opacity="0" stroke="black" stroke-width="1" />
<path d="M-0.759516449244516,97.04972711164974 L-0.3756667128887725,98.95930417333776 L0.0,100.0" fill-opacity="0" stroke="black" stroke-width="1" />
<path d="M-0.759516449244516,-2.950272888350253 L-0.3756667128887725,-1.0406958266622468 L0.0,-0.0" fill-opacity="0" stroke="black" stroke-width="1" />
<path d="M-0.759516449244516,2.9502728883502556 L-0.3756667128887725,1.040695826662244 L0.0,-0.0" fill-opacity="0" stroke="black" stroke-width="1" />
<path d="M-0.759516449244516,-97.04972711164974 L-0.3756667128887725,-98.95930417333776 L0.0,-100.0" fill-opacity="0" stroke="black" stroke-width="1" />
<path d="M-100.0,-0.0 L-86.92070131461406,-5.027524228605803 L-79.0,-0.0" fill-opacity="0" stroke="black" stroke-width="1" />
<path d="M-100.0,-0.0 L-86.92070131461406,5.027524228605803 L-79.0,-0.0" fill-opacity="0" stroke="black" stroke-width="1" />
<path d="M-75.0,-25.0 L-79.0,-21.0 L-92.58301213608476,-3.0503439990591104" fill-opacity="0" stroke="black" stroke-width="1" />
<path d="M-75.0,25.0 L-79.0,21.0 L-92.58301213608476,3.0503439990591104" fill-opacity="0" stroke="black" stroke-width="1" />
<path d="M-79.0,-0.0 L-78.59005103013548,-7.2492093482537285 L-78.0,-0.0" fill-opacity="0" stroke="black" stroke-width="1" />
<path d="M-79.0,-0.0 L-78.59005103013548,7.2492093482537285 L-78.0,-0.0" fill-opacity="0" stroke="black" stroke-width="1" />
<path d="M-78.0,-0.0 L-70.50727233210517,-12.154038922365908 L-70.0,-0.0" fill-opacity="0" stroke="black" stroke-width="1" />
<path d="M-78.0,-0.0 L-70.50727233210517,12.154038922365908 L-70.0,-0.0" fill-opacity="0" stroke="black" stroke-width="1" />
<path d="M-50.0,-14.0 L-66.64676769004348,-19.067017647352174 L-59.79613148470222,-19.540490143839083" fill-opacity="0" stroke="black" stroke-width="1" />
<path d="M-50.0,14.0 L-66.64676769004348,19.067017647352174 L-59.79613148470222,19.540490143839083" fill-opacity="0" stroke="black" stroke-width="1" />
<path d="M-66.64676769004348,-19.067017647352174 L-59.79613148470222,-19.540490143839083 L-55.232060536076304,-23.90926887371506" fill-opacity="0" stroke="black" stroke-width="1" />
<path d="M-66.64676769004348,19.067017647352174 L-59.79613148470222,19.540490143839083 L-55.232060536076304,23.90926887371506" fill-opacity="0" stroke="black" stroke-width="1" />
<path d="M-59.79613148470222,-19.540490143839083 L-55.232060536076304,-23.90926887371506 L-52.687792809390004,-24.50410789390692" fill-opacity="0" stroke="black" stroke-width="1" />
<path d="M-59.79613148470222,19.540490143839083 L-55.232060536076304,23.90926887371506 L-52.687792809390004,24.50410789390692" fill-opacity="0" stroke="black" stroke-width="1" />
<path d="M-55.232060536076304,-23.90926887371506 L-52.687792809390004,-24.50410789390692 L-50.0,-29.0" fill-opacity="0" stroke="black" stroke-width="1" />
<path d="M-55.232060536076304,23.90926887371506 L-52.687792809390004,24.50410789390692 L-50.0,29.0" fill-opacity="0" stroke="black" stroke-width="1" />
<path d="M-50.0,-29.0 L-51.61650798473657,-37.57697805239522 L-50.0,-41.0" fill-opacity="0" stroke="black" stroke-width="1" />
<path d="M-50.0,29.0 L-51.61650798473657,37.57697805239522 L-50.0,41.0" fill-opacity="0" stroke="black" stroke-width="1" />
<path d="M-50.0,-50.0 L-60.0,-40.0 L-75.0,-25.0" fill-opacity="0" stroke="black" stroke-width="1" />
<path d="M-50.0,50.0 L-60.0,40.0 L-75.0,25.0" fill-opacity="0" stroke="black" stroke-width="1" />
<path d="M-60.0,-40.0 L-75.0,-25.0 L-79.0,-21.0" fill-opacity="0" stroke="black" stroke-width="1" />
<path d="M-60.0,40.0 L-75.0,25.0 L-79.0,21.0" fill-opacity="0" stroke="black" stroke-width="1" />
<path d="M-79.0,-21.0 L-92.58301213608476,-3.0503439990591104 L-92.71737624852084,-2.7708821574249933" fill-opacity="0" stroke="black" stroke-width="1" />
<path d="M-79.0,21.0 L-92.58301213608476,3.0503439990591104 L-92.71737624852084,2.7708821574249933" fill-opacity="0" stroke="black" stroke-width="1" />
<path d="M-92.58301213608476,-3.0503439990591104 L-92.71737624852084,-2.7708821574249933 L-93.0,-7.0" fill-opacity="0" stroke="black" stroke-width="1" />
<path d="M-92.58301213608476,3.0503439990591104 L-92.71737624852084,2.7708821574249933 L-93.0,7.0" fill-opacity="0" stroke="black" stroke-width="1" />
<path d="M-92.71737624852084,-2.7708821574249933 L-93.0,-7.0 L-93.51647287425463,-1.5516521226634106" fill-opacity="0" stroke="black" stroke-width="1" />
<path d="M-92.71737624852084,2.7708821574249933 L-93.0,7.0 L-93.51647287425463,1.5516521226634106" fill-opacity="0" stroke="black" stroke-width="1" />
<path d="M-93.0,-7.0 L-93.51647287425463,-1.5516521226634106 L-97.04972711164974,-0.759516449244516" fill-opacity="0" stroke="black" stroke-width="1" />
<path d="M-93.0,7.0 L-93.51647287425463,1.5516521226634106 L-97.04972711164974,0.759516449244516" fill-opacity="0" stroke="black" stroke-width="1" />
<path d="M-93.51647287425463,-1.5516521226634106 L-97.04972711164974,-0.759516449244516 L-98.95930417333776,-0.3756667128887725" fill-opacity="0" stroke="black" stroke-width="1" />
<path d="M-93.51647287425463,1.5516521226634106 L-97.04972711164974,0.759516449244516 L-98.95930417333776,0.3756667128887725" fill-opacity="0" stroke="black" stroke-width="1" />
<path d="M-97.04972711164974,-0.759516449244516 L-98.95930417333776,-0.3756667128887725 L-100.0,-0.0" fill-opacity="0" stroke="black" stroke-width="1" />
<path d="M-97.04972711164974,0.759516449244516 L-98.95930417333776,0.3756667128887725 L-100.0,-0.0" fill-opacity="0" stroke="black" stroke-width="1" />
</svg>