<?xml version="1.0" encoding="UTF-8"?>
<svg xmlns="http://www.w3.org/2000/svg" xmlns:xlink="http://www.w3.org/1999/xlink"
     width="250" height="250" viewBox="-125.0 -125.0 250 250">
<defs>
</defs>
<path d="M13.665053076276862,79.20407516019121 L20.0,80.0 L17.0,83.0" fill="orange" fill-opacity="0.6" stroke="black" stroke-width="1" />
<path d="M13.665053076276862,-79.20407516019121 L20.0,-80.0 L17.0,-83.0" fill="red" fill-opacity="0.6" stroke="black" stroke-width="1" />
<path d="M50.0,-11.0 L47.56598554227653,-22.766886368958485 L50.0,-24.0" fill="blue" fill-opacity="0.6" stroke="black" stroke-width="1" />
<path d="M50.0,11.0 L47.56598554227653,22.766886368958485 L50.0,24.0" fill="yellow" fill-opacity="0.6" stroke="black" stroke-width="1" />
<path d="M38.0,50.0 L46.0,54.0 L42.0,58.0" fill="purple" fill-opacity="0.6" stroke="black" stroke-width="1" />
<path d="M38.0,-50.0 L46.0,-54.0 L42.0,-58.0" fill="red" fill-opacity="0.6" stroke="black" stroke-width="1" />
<path d="M46.0,54.0 L42.0,58.0 L27.0,73.0" fill="pink" fill-opacity="0.6" stroke="black" stroke-width="1" />
<path d="M46.0,-54.0 L42.0,-58.0 L27.0,-73.0" fill="blue" fill-opacity="0.6" stroke="black" stroke-width="1" />
<path d="M42.0,58.0 L27.0,73.0 L26.0,74.0" fill="red" fill-opacity="0.6" stroke="black" stroke-width="1" />
<path d="M42.0,-58.0 L27.0,-73.0 L26.0,-74.0" fill="black" fill-opacity="0.6" stroke="black" stroke-width="1" />
<path d="M27.0,73.0 L26.0,74.0 L20.862842638237332,76.28305774859669" fill="pink" fill-opacity="0.6" stroke="black" stroke-width="1" />
<path d="M27.0,-73.0 L26.0,-74.0 L20.862842638237332,-76.28305774859669" fill="orange" fill-opacity="0.6" stroke="black" stroke-width="1" />
<path d="M26.0,-26.0 L23.716942251403314,-20.862842638237332 L22.946711746767093,-20.53196099498195" fill="red" fill-opacity="0.6" stroke="black" stroke-width="1" />
<path d="M26.0,26.0 L23.716942251403314,20.862842638237332 L22.946711746767093,20.53196099498195" fill="pink" fill-opacity="0.6" stroke="black" stroke-width="1" />
<path d="M23.716942251403314,-20.862842638237332 L22.946711746767093,-20.53196099498195 L21.85157685050648,-19.73638987116862" fill="red" fill-opacity="0.6" stroke="black" stroke-width="1" />
<path d="M23.716942251403314,20.862842638237332 L22.946711746767093,20.53196099498195 L21.85157685050648,19.73638987116862" fill="brown" fill-opacity="0.6" stroke="black" stroke-width="1" />
<path d="M22.946711746767093,-20.53196099498195 L21.85157685050648,-19.73638987116862 L20.795924839808794,-13.665053076276862" fill="pink" fill-opacity="0.6" stroke="black" stroke-width="1" />
<path d="M22.946711746767093,20.53196099498195 L21.85157685050648,19.73638987116862 L20.795924839808794,13.665053076276862" fill="black" fill-opacity="0.6" stroke="black" stroke-width="1" />
<path d="M21.85157685050648,-19.73638987116862 L20.795924839808794,-13.665053076276862 L20.0,-20.0" fill="orange" fill-opacity="0.6" stroke="black" stroke-width="1" />
<path d="M21.85157685050648,19.73638987116862 L20.795924839808794,13.665053076276862 L20.0,20.0" fill="green" fill-opacity="0.6" stroke="black" stroke-width="1" />
<path d="M20.0,80.0 L17.0,83.0 L12.865408728483802,83.82854672867451" fill="brown" fill-opacity="0.6" stroke="black" stroke-width="1" />
<path d="M20.0,-80.0 L17.0,-83.0 L12.865408728483802,-83.82854672867451" fill="pink" fill-opacity="0.6" stroke="black" stroke-width="1" />
<path d="M17.0,-17.0 L16.17145327132549,-12.865408728483802 L15.96632097343984,-8.147487114872527" fill="yellow" fill-opacity="0.6" stroke="black" stroke-width="1" />
<path d="M17.0,17.0 L16.17145327132549,12.865408728483802 L15.96632097343984,8.147487114872527" fill="green" fill-opacity="0.6" stroke="black" stroke-width="1" />
<path d="M16.17145327132549,-12.865408728483802 L15.96632097343984,-8.147487114872527 L12.871934613006607,-6.759082882156991" fill="orange" fill-opacity="0.6" stroke="black" stroke-width="1" />
<path d="M16.17145327132549,12.865408728483802 L15.96632097343984,8.147487114872527 L12.871934613006607,6.759082882156991" fill="pink" fill-opacity="0.6" stroke="black" stroke-width="1" />
<path d="M15.96632097343984,-8.147487114872527 L12.871934613006607,-6.759082882156991 L12.62410155538997,-6.081590359532402" fill="green" fill-opacity="0.6" stroke="black" stroke-width="1" />
<path d="M15.96632097343984,8.147487114872527 L12.871934613006607,6.759082882156991 L12.62410155538997,6.081590359532402" fill="pink" fill-opacity="0.6" stroke="black" stroke-width="1" />
<path d="M12.871934613006607,-6.759082882156991 L12.62410155538997,-6.081590359532402 L10.494415139674857,-5.980486219779952" fill="brown" fill-opacity="0.6" stroke="black" stroke-width="1" />
<path d="M12.871934613006607,6.759082882156991 L12.62410155538997,6.081590359532402 L10.494415139674857,5.980486219779952" fill="yellow" fill-opacity="0.6" stroke="black" stroke-width="1" />
<path d="M12.62410155538997,-6.081590359532402 L10.494415139674857,-5.980486219779952 L10.253308784963306,-3.254289897926836" fill="purple" fill-opacity="0.6" stroke="black" stroke-width="1" />
<path d="M12.62410155538997,6.081590359532402 L10.494415139674857,5.980486219779952 L10.253308784963306,3.254289897926836" fill="yellow" fill-opacity="0.6" stroke="black" stroke-width="1" />
<path d="M10.494415139674857,-5.980486219779952 L10.253308784963306,-3.254289897926836 L9.902379330185518,-3.1213868901448767" fill="blue" fill-opacity="0.6" stroke="black" stroke-width="1" />
<path d="M10.494415139674857,5.980486219779952 L10.253308784963306,3.254289897926836 L9.902379330185518,3.1213868901448767" fill="red" fill-opacity="0.6" stroke="black" stroke-width="1" />
<path d="M10.253308784963306,-3.254289897926836 L9.902379330185518,-3.1213868901448767 L9.637298089067393,-2.50794434139012" fill="blue" fill-opacity="0.6" stroke="black" stroke-width="1" />
<path d="M10.253308784963306,3.254289897926836 L9.902379330185518,3.1213868901448767 L9.637298089067393,2.50794434139012" fill="green" fill-opacity="0.6" stroke="black" stroke-width="1" />
<path d="M9.902379330185518,-3.1213868901448767 L9.637298089067393,-2.50794434139012 L7.751599182970165,-2.3303052464794973" fill="pink" fill-opacity="0.6" stroke="black" stroke-width="1" />
<path d="M9.902379330185518,3.1213868901448767 L9.637298089067393,2.50794434139012 L7.751599182970165,2.3303052464794973" fill="pink" fill-opacity="0.6" stroke="black" stroke-width="1" />
<path d="M9.637298089067393,-2.50794434139012 L7.751599182970165,-2.3303052464794973 L6.710239768644948,-1.149764404163607" fill="orange" fill-opacity="0.6" stroke="black" stroke-width="1" />
<path d="M9.637298089067393,2.50794434139012 L7.751599182970165,2.3303052464794973 L6.710239768644948,1.149764404163607" fill="orange" fill-opacity="0.6" stroke="black" stroke-width="1" />
<path d="M7.751599182970165,-2.3303052464794973 L6.710239768644948,-1.149764404163607 L5.408277855243682,-0.8742354437813858" fill="orange" fill-opacity="0.6" stroke="black" stroke-width="1" />
<path d="M7.751599182970165,2.3303052464794973 L6.710239768644948,1.149764404163607 L5.408277855243682,0.8742354437813858" fill="black" fill-opacity="0.6" stroke="black" stroke-width="1" />
<path d="M6.710239768644948,-1.149764404163607 L5.408277855243682,-0.8742354437813858 L3.3680348417408856,-0.32760171071371386" fill="yellow" fill-opacity="0.6" stroke="black" stroke-width="1" />
<path d="M6.710239768644948,1.149764404163607 L5.408277855243682,0.8742354437813858 L3.3680348417408856,0.32760171071371386" fill="red" fill-opacity="0.6" stroke="black" stroke-width="1" />
<path d="M5.408277855243682,-0.8742354437813858 L3.3680348417408856,-0.32760171071371386 L1.5507979819352644,-0.1166998755330953" fill="pink" fill-opacity="0.6" stroke="black" stroke-width="1" />
<path d="M5.408277855243682,0.8742354437813858 L3.3680348417408856,0.32760171071371386 L1.5507979819352644,0.1166998755330953" fill="brown" fill-opacity="0.6" stroke="black" stroke-width="1" />
<path d="M3.3680348417408856,-0.32760171071371386 L1.5507979819352644,-0.1166998755330953 L0.0,-0.0" fill="pink" fill-opacity="0.6" stroke="black" stroke-width="1" />
<path d="M3.3680348417408856,0.32760171071371386 L1.5507979819352644,0.1166998755330953 L0.0,-0.0" fill="orange" fill-opacity="0.6" stroke="black" stroke-width="1" />
<path d="M-13.665053076276862,79.20407516019121 L-20.0,80.0 L-17.0,83.0" fill="green" fill-opacity="0.6" stroke="black" stroke-width="1" />
<path d="M-13.665053076276862,-79.20407516019121 L-20.0,-80.0 L-17.0,-83.0" fill="black" fill-opacity="0.6" stroke="black" stroke-width="1" />
<path d="M-50.0,-11.0 L-47.56598554227653,-22.766886368958485 L-50.0,-24.0" fill="red" fill-opacity="0.6" stroke="black" stroke-width="1" />
<path d="M-50.0,11.0 L-47.56598554227653,22.766886368958485 L-50.0,24.0" fill="purple" fill-opacity="0.6" stroke="black" stroke-width="1" />
<path d="M-38.0,50.0 L-46.0,54.0 L-42.0,58.0" fill="blue" fill-opacity="0.6" stroke="black" stroke-width="1" />
<path d="M-38.0,-50.0 L-46.0,-54.0 L-42.0,-58.0" fill="orange" fill-opacity="0.6" stroke="black" stroke-width="1" />
<path d="M-46.0,54.0 L-42.0,58.0 L-27.0,73.0" fill="purple" fill-opacity="0.6" stroke="black" stroke-width="1" />
<path d="M-46.0,-54.0 L-42.0,-58.0 L-27.0,-73.0" fill="purple" fill-opacity="0.6" stroke="black" stroke-width="1" />
<path d="M-42.0,58.0 L-27.0,73.0 L-26.0,74.0" fill="pink" fill-opacity="0.6" stroke="black" stroke-width="1" />
<path d="M-42.0,-58.0 L-27.0,-73.0 L-26.0,-74.0" fill="brown" fill-opacity="0.6" stroke="black" stroke-width="1" />
<path d="M-27.0,73.0 L-26.0,74.0 L-20.862842638237332,76.28305774859669" fill="purple" fill-opacity="0.6" stroke="black" stroke-width="1" />
<path d="M-27.0,-73.0 L-26.0,-74.0 L-20.862842638237332,-76.28305774859669" fill="orange" fill-opacity="0.6" stroke="black" stroke-width="1" />
<path d="M-26.0,-26.0 L-23.716942251403314,-20.862842638237332 L-22.946711746767093,-20.53196099498195" fill="brown" fill-opacity="0.6" stroke="black" stroke-width="1" />
<path d="M-26.0,26.0 L-23.716942251403314,20.862842638237332 L-22.946711746767093,20.53196099498195" fill="purple" fill-opacity="0.6" stroke="black" stroke-width="1" />
<path d="M-23.716942251403314,-20.862842638237332 L-22.946711746767093,-20.53196099498195 L-21.85157685050648,-19.73638987116862" fill="black" fill-opacity="0.6" stroke="black" stroke-width="1" />
<path d="M-23.716942251403314,20.862842638237332 L-22.946711746767093,20.53196099498195 L-21.85157685050648,19.73638987116862" fill="green" fill-opacity="0.6" stroke="black" stroke-width="1" />
<path d="M-22.946711746767093,-20.53196099498195 L-21.85157685050648,-19.73638987116862 L-20.795924839808794,-13.665053076276862" fill="blue" fill-opacity="0.6" stroke="black" stroke-width="1" />
<path d="M-22.946711746767093,20.53196099498195 L-21.85157685050648,19.73638987116862 L-20.795924839808794,13.665053076276862" fill="purple" fill-opacity="0.6" stroke="black" stroke-width="1" />
<path d="M-21.85157685050648,-19.73638987116862 L-20.795924839808794,-13.665053076276862 L-20.0,-20.0" fill="black" fill-opacity="0.6" stroke="black" stroke-width="1" />
<path d="M-21.85157685050648,19.73638987116862 L-20.795924839808794,13.665053076276862 L-20.0,20.0" fill="yellow" fill-opacity="0.6" stroke="black" stroke-width="1" />
<path d="M-20.0,80.0 L-17.0,83.0 L-12.865408728483802,83.82854672867451" fill="black" fill-opacity="0.6" stroke="black" stroke-width="1" />
<path d="M-20.0,-80.0 L-17.0,-83.0 L-12.865408728483802,-83.82854672867451" fill="green" fill-opacity="0.6" stroke="black" stroke-width="1" />
<path d="M-17.0,-17.0 L-16.17145327132549,-12.865408728483802 L-15.96632097343984,-8.147487114872527" fill="red" fill-opacity="0.6" stroke="black" stroke-width="1" />
<path d="M-17.0,17.0 L-16.17145327132549,12.865408728483802 L-15.96632097343984,8.147487114872527" fill="green" fill-opacity="0.6" stroke="black" stroke-width="1" />
<path d="M-16.17145327132549,-12.865408728483802 L-15.96632097343984,-8.147487114872527 L-12.871934613006607,-6.759082882156991" fill="blue" fill-opacity="0.6" stroke="black" stroke-width="1" />
<path d="M-16.17145327132549,12.865408728483802 L-15.96632097343984,8.147487114872527 L-12.871934613006607,6.759082882156991" fill="brown" fill-opacity="0.6" stroke="black" stroke-width="1" />
<path d="M-15.96632097343984,-8.147487114872527 L-12.871934613006607,-6.759082882156991 L-12.62410155538997,-6.081590359532402" fill="pink" fill-opacity="0.6" stroke="black" stroke-width="1" />
<path d="M-15.96632097343984,8.147487114872527 L-12.871934613006607,6.759082882156991 L-12.62410155538997,6.081590359532402" fill="blue" fill-opacity="0.6" stroke="black" stroke-width="1" />
<path d="M-12.871934613006607,-6.759082882156991 L-12.62410155538997,-6.081590359532402 L-10.494415139674857,-5.980486219779952" fill="blue" fill-opacity="0.6" stroke="black" stroke-width="1" />
<path d="M-12.871934613006607,6.759082882156991 L-12.62410155538997,6.081590359532402 L-10.494415139674857,5.980486219779952" fill="pink" fill-opacity="0.6" stroke="black" stroke-width="1" />
<path d="M-12.62410155538997,-6.081590359532402 L-10.494415139674857,-5.980486219779952 L-10.253308784963306,-3.254289897926836" fill="blue" fill-opacity="0.6" stroke="black" stroke-width="1" />
<path d="M-12.62410155538997,6.081590359532402 L-10.494415139674857,5.980486219779952 L-10.253308784963306,3.254289897926836" fill="green" fill-opacity="0.6" stroke="black" stroke-width="1" />
<path d="M-10.494415139674857,-5.980486219779952 L-10.253308784963306,-3.254289897926836 L-9.902379330185518,-3.1213868901448767" fill="black" fill-opacity="0.6" stroke="black" stroke-width="1" />
<path d="M-10.494415139674857,5.980486219779952 L-10.253308784963306,3.254289897926836 L-9.902379330185518,3.1213868901448767" fill="blue" fill-opacity="0.6" stroke="black" stroke-width="1" />
<path d="M-10.253308784963306,-3.254289897926836 L-9.902379330185518,-3.1213868901448767 L-9.637298089067393,-2.50794434139012" fill="green" fill-opacity="0.6" stroke="black" stroke-width="1" />
<path d="M-10.253308784963306,3.254289897926836 L-9.902379330185518,3.1213868901448767 L-9.637298089067393,2.50794434139012" fill="yellow" fill-opacity="0.6" stroke="black" stroke-width="1" />
<path d="M-9.902379330185518,-3.1213868901448767 L-9.637298089067393,-2.50794434139012 L-7.751599182970165,-2.3303052464794973" fill="black" fill-opacity="0.6" stroke="black" stroke-width="1" />
<path d="M-9.902379330185518,3.1213868901448767 L-9.637298089067393,2.50794434139012 L-7.751599182970165,2.3303052464794973" fill="red" fill-opacity="0.6" stroke="black" stroke-width="1" />
<path d="M-9.637298089067393,-2.50794434139012 L-7.751599182970165,-2.3303052464794973 L-6.710239768644948,-1.149764404163607" fill="black" fill-opacity="0.6" stroke="black" stroke-width="1" />
<path d="M-9.637298089067393,2.50794434139012 L-7.751599182970165,2.3303052464794973 L-6.710239768644948,1.149764404163607" fill="orange" fill-opacity="0.6" stroke="black" stroke-width="1" />
<path d="M-7.751599182970165,-2.3303052464794973 L-6.710239768644948,-1.149764404163607 L-5.408277855243682,-0.8742354437813858" fill="black" fill-opacity="0.6" stroke="black" stroke-width="1" />
<path d="M-7.751599182970165,2.3303052464794973 L-6.710239768644948,1.149764404163607 L-5.408277855243682,0.8742354437813858" fill="purple" fill-opacity="0.6" stroke="black" stroke-width="1" />
<path d="M-6.710239768644948,-1.149764404163607 L-5.408277855243682,-0.8742354437813858 L-3.3680348417408856,-0.32760171071371386" fill="purple" fill-opacity="0.6" stroke="black" stroke-width="1" />
<path d="M-6.710239768644948,1.149764404163607 L-5.408277855243682,0.8742354437813858 L-3.3680348417408856,0.32760171071371386" fill="blue" fill-opacity="0.6" stroke="black" stroke-width="1" />
<path d="M-5.408277855243682,-0.8742354437813858 L-3.3680348417408856,-0.32760171071371386 L-1.5507979819352644,-0.1166998755330953" fill="yellow" fill-opacity="0.6" stroke="black" stroke-width="1" />
<path d="M-5.408277855243682,0.8742354437813858 L-3.3680348417408856,0.32760171071371386 L-1.5507979819352644,0.1166998755330953" fill="orange" fill-opacity="0.6" stroke="black" stroke-width="1" />
<path d="M-3.3680348417408856,-0.32760171071371386 L-1.5507979819352644,-0.1166998755330953 L0.0,-0.0" fill="blue" fill-opacity="0.6" stroke="black" stroke-width="1" />
<path d="M-3.3680348417408856,0.32760171071371386 L-1.5507979819352644,0.1166998755330953 L0.0,-0.0" fill="pink" fill-opacity="0.6" stroke="black" stroke-width="1" />
<path d="M79.20407516019121,13.665053076276862 L80.0,20.0 L83.0,17.0" fill="brown" fill-opacity="0.6" stroke="black" stroke-width="1" />
<path d="M79.20407516019121,-13.665053076276862 L80.0,-20.0 L83.0,-17.0" fill="green" fill-opacity="0.6" stroke="black" stroke-width="1" />
<path d="M50.0,11.0 L52.43401445772347,22.766886368958485 L50.0,24.0" fill="purple" fill-opacity="0.6" stroke="black" stroke-width="1" />
<path d="M50.0,-11.0 L52.43401445772347,-22.766886368958485 L50.0,-24.0" fill="red" fill-opacity="0.6" stroke="black" stroke-width="1" />
<path d="M50.0,38.0 L54.0,46.0 L58.0,42.0" fill="blue" fill-opacity="0.6" stroke="black" stroke-width="1" />
<path d="M50.0,-38.0 L54.0,-46.0 L58.0,-42.0" fill="green" fill-opacity="0.6" stroke="black" stroke-width="1" />
<path d="M54.0,46.0 L58.0,42.0 L73.0,27.0" fill="red" fill-opacity="0.6" stroke="black" stroke-width="1" />
<path d="M54.0,-46.0 L58.0,-42.0 L73.0,-27.0" fill="blue" fill-opacity="0.6" stroke="black" stroke-width="1" />
<path d="M58.0,42.0 L73.0,27.0 L74.0,26.0" fill="blue" fill-opacity="0.6" stroke="black" stroke-width="1" />
<path d="M58.0,-42.0 L73.0,-27.0 L74.0,-26.0" fill="brown" fill-opacity="0.6" stroke="black" stroke-width="1" />
<path d="M73.0,27.0 L74.0,26.0 L76.28305774859669,20.862842638237332" fill="black" fill-opacity="0.6" stroke="black" stroke-width="1" />
<path d="M73.0,-27.0 L74.0,-26.0 L76.28305774859669,-20.862842638237332" fill="yellow" fill-opacity="0.6" stroke="black" stroke-width="1" />
<path d="M74.0,26.0 L76.28305774859669,20.862842638237332 L77.0532882532329,20.53196099498195" fill="brown" fill-opacity="0.6" stroke="black" stroke-width="1" />
<path d="M74.0,-26.0 L76.28305774859669,-20.862842638237332 L77.0532882532329,-20.53196099498195" fill="black" fill-opacity="0.6" stroke="black" stroke-width="1" />
<path d="M76.28305774859669,20.862842638237332 L77.0532882532329,20.53196099498195 L78.14842314949352,19.73638987116862" fill="pink" fill-opacity="0.6" stroke="black" stroke-width="1" />
<path d="M76.28305774859669,-20.862842638237332 L77.0532882532329,-20.53196099498195 L78.14842314949352,-19.73638987116862" fill="purple" fill-opacity="0.6" stroke="black" stroke-width="1" />
<path d="M77.0532882532329,20.53196099498195 L78.14842314949352,19.73638987116862 L79.20407516019121,13.665053076276862" fill="purple" fill-opacity="0.6" stroke="black" stroke-width="1" />
<path d="M77.0532882532329,-20.53196099498195 L78.14842314949352,-19.73638987116862 L79.20407516019121,-13.665053076276862" fill="pink" fill-opacity="0.6" stroke="black" stroke-width="1" />
<path d="M78.14842314949352,19.73638987116862 L79.20407516019121,13.665053076276862 L80.0,20.0" fill="green" fill-opacity="0.6" stroke="black" stroke-width="1" />
<path d="M78.14842314949352,-19.73638987116862 L79.20407516019121,-13.665053076276862 L80.0,-20.0" fill="black" fill-opacity="0.6" stroke="black" stroke-width="1" />
<path d="M80.0,20.0 L83.0,17.0 L83.82854672867451,12.865408728483802" fill="black" fill-opacity="0.6" stroke="black" stroke-width="1" />
<path d="M80.0,-20.0 L83.0,-17.0 L83.82854672867451,-12.865408728483802" fill="red" fill-opacity="0.6" stroke="black" stroke-width="1" />
<path d="M83.0,17.0 L83.82854672867451,12.865408728483802 L84.03367902656015,8.147487114872527" fill="red" fill-opacity="0.6" stroke="black" stroke-width="1" />
<path d="M83.0,-17.0 L83.82854672867451,-12.865408728483802 L84.03367902656015,-8.147487114872527" fill="red" fill-opacity="0.6" stroke="black" stroke-width="1" />
<path d="M83.82854672867451,12.865408728483802 L84.03367902656015,8.147487114872527 L87.1280653869934,6.759082882156991" fill="red" fill-opacity="0.6" stroke="black" stroke-width="1" />
<path d="M83.82854672867451,-12.865408728483802 L84.03367902656015,-8.147487114872527 L87.1280653869934,-6.759082882156991" fill="green" fill-opacity="0.6" stroke="black" stroke-width="1" />
<path d="M84.03367902656015,8.147487114872527 L87.1280653869934,6.759082882156991 L87.37589844461003,6.081590359532402" fill="brown" fill-opacity="0.6" stroke="black" stroke-width="1" />
<path d="M84.03367902656015,-8.147487114872527 L87.1280653869934,-6.759082882156991 L87.37589844461003,-6.081590359532402" fill="orange" fill-opacity="0.6" stroke="black" stroke-width="1" />
<path d="M87.1280653869934,6.759082882156991 L87.37589844461003,6.081590359532402 L89.50558486032514,5.980486219779952" fill="blue" fill-opacity="0.6" stroke="black" stroke-width="1" />
<path d="M87.1280653869934,-6.759082882156991 L87.37589844461003,-6.081590359532402 L89.50558486032514,-5.980486219779952" fill="blue" fill-opacity="0.6" stroke="black" stroke-width="1" />
<path d="M87.37589844461003,6.081590359532402 L89.50558486032514,5.980486219779952 L89.74669121503669,3.254289897926836" fill="green" fill-opacity="0.6" stroke="black" stroke-width="1" />
<path d="M87.37589844461003,-6.081590359532402 L89.50558486032514,-5.980486219779952 L89.74669121503669,-3.254289897926836" fill="purple" fill-opacity="0.6" stroke="black" stroke-width="1" />
<path d="M89.50558486032514,5.980486219779952 L89.74669121503669,3.254289897926836 L90.09762066981449,3.1213868901448767" fill="blue" fill-opacity="0.6" stroke="black" stroke-width="1" />
<path d="M89.50558486032514,-5.980486219779952 L89.74669121503669,-3.254289897926836 L90.09762066981449,-3.1213868901448767" fill="green" fill-opacity="0.6" stroke="black" stroke-width="1" />
<path d="M89.74669121503669,3.254289897926836 L90.09762066981449,3.1213868901448767 L90.3627019109326,2.50794434139012" fill="blue" fill-opacity="0.6" stroke="black" stroke-width="1" />
<path d="M89.74669121503669,-3.254289897926836 L90.09762066981449,-3.1213868901448767 L90.3627019109326,-2.50794434139012" fill="blue" fill-opacity="0.6" stroke="black" stroke-width="1" />
<path d="M90.09762066981449,3.1213868901448767 L90.3627019109326,2.50794434139012 L92.24840081702983,2.3303052464794973" fill="red" fill-opacity="0.6" stroke="black" stroke-width="1" />
<path d="M90.09762066981449,-3.1213868901448767 L90.3627019109326,-2.50794434139012 L92.24840081702983,-2.3303052464794973" fill="yellow" fill-opacity="0.6" stroke="black" stroke-width="1" />
<path d="M90.3627019109326,2.50794434139012 L92.24840081702983,2.3303052464794973 L93.28976023135505,1.149764404163607" fill="purple" fill-opacity="0.6" stroke="black" stroke-width="1" />
<path d="M90.3627019109326,-2.50794434139012 L92.24840081702983,-2.3303052464794973 L93.28976023135505,-1.149764404163607" fill="yellow" fill-opacity="0.6" stroke="black" stroke-width="1" />
<path d="M92.24840081702983,2.3303052464794973 L93.28976023135505,1.149764404163607 L94.59172214475632,0.8742354437813858" fill="purple" fill-opacity="0.6" stroke="black" stroke-width="1" />
<path d="M92.24840081702983,-2.3303052464794973 L93.28976023135505,-1.149764404163607 L94.59172214475632,-0.8742354437813858" fill="brown" fill-opacity="0.6" stroke="black" stroke-width="1" />
<path d="M93.28976023135505,1.149764404163607 L94.59172214475632,0.8742354437813858 L96.6319651582591,0.32760171071371386" fill="black" fill-opacity="0.6" stroke="black" stroke-width="1" />
<path d="M93.28976023135505,-1.149764404163607 L94.59172214475632,-0.8742354437813858 L96.6319651582591,-0.32760171071371386" fill="blue" fill-opacity="0.6" stroke="black" stroke-width="1" />
<path d="M94.59172214475632,0.8742354437813858 L96.6319651582591,0.32760171071371386 L98.44920201806474,0.1166998755330953" fill="orange" fill-opacity="0.6" stroke="black" stroke-width="1" />
<path d="M94.59172214475632,-0.8742354437813858 L96.6319651582591,-0.32760171071371386 L98.44920201806474,-0.1166998755330953" fill="pink" fill-opacity="0.6" stroke="black" stroke-width="1" />
<path d="M96.6319651582591,0.32760171071371386 L98.44920201806474,0.1166998755330953 L100.0,-0.0" fill="brown" fill-opacity="0.6" stroke="black" stroke-width="1" />
<path d="M96.6319651582591,-0.32760171071371386 L98.44920201806474,-0.1166998755330953 L100.0,-0.0" fill="red" fill-opacity="0.6" stroke="black" stroke-width="1" />
<path d="M11.0,-50.0 L22.766886368958485,-47.56598554227653 L24.0,-50.0" fill="orange" fill-opacity="0.6" stroke="black" stroke-width="1" />
<path d="M11.0,50.0 L22.766886368958485,47.56598554227653 L24.0,50.0" fill="blue" fill-opacity="0.6" stroke="black" stroke-width="1" />
<path d="M11.0,50.0 L22.766886368958485,52.43401445772347 L24.0,50.0" fill="pink" fill-opacity="0.6" stroke="black" stroke-width="1" />
<path d="M11.0,-50.0 L22.766886368958485,-52.43401445772347 L24.0,-50.0" fill="purple" fill-opacity="0.6" stroke="black" stroke-width="1" />
<path d="M26.0,-26.0 L20.862842638237332,-23.716942251403314 L20.53196099498195,-22.946711746767093" fill="red" fill-opacity="0.6" stroke="black" stroke-width="1" />
<path d="M26.0,26.0 L20.862842638237332,23.716942251403314 L20.53196099498195,22.946711746767093" fill="brown" fill-opacity="0.6" stroke="black" stroke-width="1" />
<path d="M26.0,74.0 L20.862842638237332,76.28305774859669 L20.53196099498195,77.0532882532329" fill="orange" fill-opacity="0.6" stroke="black" stroke-width="1" />
<path d="M26.0,-74.0 L20.862842638237332,-76.28305774859669 L20.53196099498195,-77.0532882532329" fill="black" fill-opacity="0.6" stroke="black" stroke-width="1" />
<path d="M20.862842638237332,-23.716942251403314 L20.53196099498195,-22.946711746767093 L19.73638987116862,-21.85157685050648" fill="brown" fill-opacity="0.6" stroke="black" stroke-width="1" />
<path d="M20.862842638237332,23.716942251403314 L20.53196099498195,22.946711746767093 L19.73638987116862,21.85157685050648" fill="black" fill-opacity="0.6" stroke="black" stroke-width="1" />
<path d="M20.862842638237332,76.28305774859669 L20.53196099498195,77.0532882532329 L19.73638987116862,78.14842314949352" fill="yellow" fill-opacity="0.6" stroke="black" stroke-width="1" />
<path d="M20.862842638237332,-76.28305774859669 L20.53196099498195,-77.0532882532329 L19.73638987116862,-78.14842314949352" fill="black" fill-opacity="0.6" stroke="black" stroke-width="1" />
<path d="M20.53196099498195,-22.946711746767093 L19.73638987116862,-21.85157685050648 L13.665053076276862,-20.795924839808794" fill="brown" fill-opacity="0.6" stroke="black" stroke-width="1" />
<path d="M20.53196099498195,22.946711746767093 L19.73638987116862,21.85157685050648 L13.665053076276862,20.795924839808794" fill="black" fill-opacity="0.6" stroke="black" stroke-width="1" />
<path d="M20.53196099498195,77.0532882532329 L19.73638987116862,78.14842314949352 L13.665053076276862,79.20407516019121" fill="yellow" fill-opacity="0.6" stroke="black" stroke-width="1" />
<path d="M20.53196099498195,-77.0532882532329 L19.73638987116862,-78.14842314949352 L13.665053076276862,-79.20407516019121" fill="purple" fill-opacity="0.6" stroke="black" stroke-width="1" />
<path d="M19.73638987116862,-21.85157685050648 L13.665053076276862,-20.795924839808794 L20.0,-20.0" fill="black" fill-opacity="0.6" stroke="black" stroke-width="1" />
<path d="M19.73638987116862,21.85157685050648 L13.665053076276862,20.795924839808794 L20.0,20.0" fill="black" fill-opacity="0.6" stroke="black" stroke-width="1" />
<path d="M19.73638987116862,78.14842314949352 L13.665053076276862,79.20407516019121 L20.0,80.0" fill="brown" fill-opacity="0.6" stroke="black" stroke-width="1" />
<path d="M19.73638987116862,-78.14842314949352 L13.665053076276862,-79.20407516019121 L20.0,-80.0" fill="blue" fill-opacity="0.6" stroke="black" stroke-width="1" />
<path d="M17.0,-17.0 L12.865408728483802,-16.17145327132549 L8.147487114872527,-15.96632097343984" fill="red" fill-opacity="0.6" stroke="black" stroke-width="1" />
<path d="M17.0,17.0 L12.865408728483802,16.17145327132549 L8.147487114872527,15.96632097343984" fill="brown" fill-opacity="0.6" stroke="black" stroke-width="1" />
<path d="M17.0,83.0 L12.865408728483802,83.82854672867451 L8.147487114872527,84.03367902656015" fill="yellow" fill-opacity="0.6" stroke="black" stroke-width="1" />
<path d="M17.0,-83.0 L12.865408728483802,-83.82854672867451 L8.147487114872527,-84.03367902656015" fill="green" fill-opacity="0.6" stroke="black" stroke-width="1" />
<path d="M12.865408728483802,-16.17145327132549 L8.147487114872527,-15.96632097343984 L6.759082882156991,-12.871934613006607" fill="brown" fill-opacity="0.6" stroke="black" stroke-width="1" />
<path d="M12.865408728483802,16.17145327132549 L8.147487114872527,15.96632097343984 L6.759082882156991,12.871934613006607" fill="brown" fill-opacity="0.6" stroke="black" stroke-width="1" />
<path d="M12.865408728483802,83.82854672867451 L8.147487114872527,84.03367902656015 L6.759082882156991,87.1280653869934" fill="brown" fill-opacity="0.6" stroke="black" stroke-width="1" />
<path d="M12.865408728483802,-83.82854672867451 L8.147487114872527,-84.03367902656015 L6.759082882156991,-87.1280653869934" fill="yellow" fill-opacity="0.6" stroke="black" stroke-width="1" />
<path d="M8.147487114872527,-15.96632097343984 L6.759082882156991,-12.871934613006607 L6.081590359532402,-12.62410155538997" fill="yellow" fill-opacity="0.6" stroke="black" stroke-width="1" />
<path d="M8.147487114872527,15.96632097343984 L6.759082882156991,12.871934613006607 L6.081590359532402,12.62410155538997" fill="blue" fill-opacity="0.6" stroke="black" stroke-width="1" />
<path d="M8.147487114872527,84.03367902656015 L6.759082882156991,87.1280653869934 L6.081590359532402,87.37589844461003" fill="brown" fill-opacity="0.6" stroke="black" stroke-width="1" />
<path d="M8.147487114872527,-84.03367902656015 L6.759082882156991,-87.1280653869934 L6.081590359532402,-87.37589844461003" fill="blue" fill-opacity="0.6" stroke="black" stroke-width="1" />
<path d="M6.759082882156991,-12.871934613006607 L6.081590359532402,-12.62410155538997 L5.980486219779952,-10.494415139674857" fill="purple" fill-opacity="0.6" stroke="black" stroke-width="1" />
<path d="M6.759082882156991,12.871934613006607 L6.081590359532402,12.62410155538997 L5.980486219779952,10.494415139674857" fill="black" fill-opacity="0.6" stroke="black" stroke-width="1" />
<path d="M6.759082882156991,87.1280653869934 L6.081590359532402,87.37589844461003 L5.980486219779952,89.50558486032514" fill="red" fill-opacity="0.6" stroke="black" stroke-width="1" />
<path d="M6.759082882156991,-87.1280653869934 L6.081590359532402,-87.37589844461003 L5.980486219779952,-89.50558486032514" fill="green" fill-opacity="0.6" stroke="black" stroke-width="1" />
<path d="M6.081590359532402,-12.62410155538997 L5.980486219779952,-10.494415139674857 L3.254289897926836,-10.253308784963306" fill="purple" fill-opacity="0.6" stroke="black" stroke-width="1" />
<path d="M6.081590359532402,12.62410155538997 L5.980486219779952,10.494415139674857 L3.254289897926836,10.253308784963306" fill="brown" fill-opacity="0.6" stroke="black" stroke-width="1" />
<path d="M6.081590359532402,87.37589844461003 L5.980486219779952,89.50558486032514 L3.254289897926836,89.74669121503669" fill="green" fill-opacity="0.6" stroke="black" stroke-width="1" />
<path d="M6.081590359532402,-87.37589844461003 L5.980486219779952,-89.50558486032514 L3.254289897926836,-89.74669121503669" fill="green" fill-opacity="0.6" stroke="black" stroke-width="1" />
<path d="M5.980486219779952,-10.494415139674857 L3.254289897926836,-10.253308784963306 L3.1213868901448767,-9.902379330185518" fill="blue" fill-opacity="0.6" stroke="black" stroke-width="1" />
<path d="M5.980486219779952,10.494415139674857 L3.254289897926836,10.253308784963306 L3.1213868901448767,9.902379330185518" fill="green" fill-opacity="0.6" stroke="black" stroke-width="1" />
<path d="M5.980486219779952,89.50558486032514 L3.254289897926836,89.74669121503669 L3.1213868901448767,90.09762066981449" fill="red" fill-opacity="0.6" stroke="black" stroke-width="1" />
<path d="M5.980486219779952,-89.50558486032514 L3.254289897926836,-89.74669121503669 L3.1213868901448767,-90.09762066981449" fill="green" fill-opacity="0.6" stroke="black" stroke-width="1" />
<path d="M3.254289897926836,-10.253308784963306 L3.1213868901448767,-9.902379330185518 L2.50794434139012,-9.637298089067393" fill="red" fill-opacity="0.6" stroke="black" stroke-width="1" />
<path d="M3.254289897926836,10.253308784963306 L3.1213868901448767,9.902379330185518 L2.50794434139012,9.637298089067393" fill="red" fill-opacity="0.6" stroke="black" stroke-width="1" />
<path d="M3.254289897926836,89.74669121503669 L3.1213868901448767,90.09762066981449 L2.50794434139012,90.3627019109326" fill="brown" fill-opacity="0.6" stroke="black" stroke-width="1" />
<path d="M3.254289897926836,-89.74669121503669 L3.1213868901448767,-90.09762066981449 L2.50794434139012,-90.3627019109326" fill="green" fill-opacity="0.6" stroke="black" stroke-width="1" />
<path d="M3.1213868901448767,-9.902379330185518 L2.50794434139012,-9.637298089067393 L2.3303052464794973,-7.751599182970165" fill="pink" fill-opacity="0.6" stroke="black" stroke-width="1" />
<path d="M3.1213868901448767,9.902379330185518 L2.50794434139012,9.637298089067393 L2.3303052464794973,7.751599182970165" fill="brown" fill-opacity="0.6" stroke="black" stroke-width="1" />
<path d="M3.1213868901448767,90.09762066981449 L2.50794434139012,90.3627019109326 L2.3303052464794973,92.24840081702983" fill="brown" fill-opacity="0.6" stroke="black" stroke-width="1" />
<path d="M3.1213868901448767,-90.09762066981449 L2.50794434139012,-90.3627019109326 L2.3303052464794973,-92.24840081702983" fill="red" fill-opacity="0.6" stroke="black" stroke-width="1" />
<path d="M2.50794434139012,-9.637298089067393 L2.3303052464794973,-7.751599182970165 L1.149764404163607,-6.710239768644948" fill="red" fill-opacity="0.6" stroke="black" stroke-width="1" />
<path d="M2.50794434139012,9.637298089067393 L2.3303052464794973,7.751599182970165 L1.149764404163607,6.710239768644948" fill="pink" fill-opacity="0.6" stroke="black" stroke-width="1" />
<path d="M2.50794434139012,90.3627019109326 L2.3303052464794973,92.24840081702983 L1.149764404163607,93.28976023135505" fill="blue" fill-opacity="0.6" stroke="black" stroke-width="1" />
<path d="M2.50794434139012,-90.3627019109326 L2.3303052464794973,-92.24840081702983 L1.149764404163607,-93.28976023135505" fill="yellow" fill-opacity="0.6" stroke="black" stroke-width="1" />
<path d="M2.3303052464794973,-7.751599182970165 L1.149764404163607,-6.710239768644948 L0.8742354437813858,-5.408277855243682" fill="purple" fill-opacity="0.6" stroke="black" stroke-width="1" />
<path d="M2.3303052464794973,7.751599182970165 L1.149764404163607,6.710239768644948 L0.8742354437813858,5.408277855243682" fill="yellow" fill-opacity="0.6" stroke="black" stroke-width="1" />
<path d="M2.3303052464794973,92.24840081702983 L1.149764404163607,93.28976023135505 L0.8742354437813858,94.59172214475632" fill="yellow" fill-opacity="0.6" stroke="black" stroke-width="1" />
<path d="M2.3303052464794973,-92.24840081702983 L1.149764404163607,-93.28976023135505 L0.8742354437813858,-94.59172214475632" fill="black" fill-opacity="0.6" stroke="black" stroke-width="1" />
<path d="M1.149764404163607,-6.710239768644948 L0.8742354437813858,-5.408277855243682 L0.32760171071371386,-3.3680348417408856" fill="green" fill-opacity="0.6" stroke="black" stroke-width="1" />
<path d="M1.149764404163607,6.710239768644948 L0.8742354437813858,5.408277855243682 L0.32760171071371386,3.3680348417408856" fill="blue" fill-opacity="0.6" stroke="black" stroke-width="1" />
<path d="M1.149764404163607,93.28976023135505 L0.8742354437813858,94.59172214475632 L0.32760171071371386,96.6319651582591" fill="yellow" fill-opacity="0.6" stroke="black" stroke-width="1" />
<path d="M1.149764404163607,-93.28976023135505 L0.8742354437813858,-94.59172214475632 L0.32760171071371386,-96.6319651582591" fill="yellow" fill-opacity="0.6" stroke="black" stroke-width="1" />
<path d="M0.8742354437813858,-5.408277855243682 L0.32760171071371386,-3.3680348417408856 L0.1166998755330953,-1.5507979819352644" fill="orange" fill-opacity="0.6" stroke="black" stroke-width="1" />
<path d="M0.8742354437813858,5.408277855243682 L0.32760171071371386,3.3680348417408856 L0.1166998755330953,1.5507979819352644" fill="orange" fill-opacity="0.6" stroke="black" stroke-width="1" />
<path d="M0.8742354437813858,94.59172214475632 L0.32760171071371386,96.6319651582591 L0.1166998755330953,98.44920201806474" fill="yellow" fill-opacity="0.6" stroke="black" stroke-width="1" />
<path d="M0.8742354437813858,-94.59172214475632 L0.32760171071371386,-96.6319651582591 L0.1166998755330953,-98.44920201806474" fill="green" fill-opacity="0.6" stroke="black" stroke-width="1" />
<path d="M0.32760171071371386,-3.3680348417408856 L0.1166998755330953,-1.5507979819352644 L0.0,-0.0" fill="orange" fill-opacity="0.6" stroke="black" stroke-width="1" />
<path d="M0.32760171071371386,3.3680348417408856 L0.1166998755330953,1.5507979819352644 L0.0,-0.0" fill="green" fill-opacity="0.6" stroke="black" stroke-width="1" />
<path d="M0.32760171071371386,96.6319651582591 L0.1166998755330953,98.44920201806474 L0.0,100.0" fill="black" fill-opacity="0.6" stroke="black" stroke-width="1" />
<path d="M0.32760171071371386,-96.6319651582591 L0.1166998755330953,-98.44920201806474 L0.0,-100.0" fill="orange" fill-opacity="0.6" stroke="black" stroke-width="1" />
<path d="M-11.0,50.0 L-22.766886368958485,52.43401445772347 L-24.0,50.0" fill="black" fill-opacity="0.6" stroke="black" stroke-width="1" />
<path d="M-11.0,-50.0 L-22.766886368958485,-47.56598554227653 L-24.0,-50.0" fill="pink" fill-opacity="0.6" stroke="black" stroke-width="1" />
<path d="M-11.0,50.0 L-22.766886368958485,47.56598554227653 L-24.0,50.0" fill="brown" fill-opacity="0.6" stroke="black" stroke-width="1" />
<path d="M-11.0,-50.0 L-22.766886368958485,-52.43401445772347 L-24.0,-50.0" fill="red" fill-opacity="0.6" stroke="black" stroke-width="1" />
<path d="M-26.0,74.0 L-20.862842638237332,76.28305774859669 L-20.53196099498195,77.0532882532329" fill="brown" fill-opacity="0.6" stroke="black" stroke-width="1" />
<path d="M-26.0,-26.0 L-20.862842638237332,-23.716942251403314 L-20.53196099498195,-22.946711746767093" fill="pink" fill-opacity="0.6" stroke="black" stroke-width="1" />
<path d="M-26.0,26.0 L-20.862842638237332,23.71694225140331 L-20.53196099498195,22.946711746767093" fill="yellow" fill-opacity="0.6" stroke="black" stroke-width="1" />
<path d="M-26.0,-74.0 L-20.862842638237332,-76.28305774859669 L-20.53196099498195,-77.0532882532329" fill="blue" fill-opacity="0.6" stroke="black" stroke-width="1" />
<path d="M-20.862842638237332,76.28305774859669 L-20.53196099498195,77.0532882532329 L-19.73638987116862,78.14842314949352" fill="green" fill-opacity="0.6" stroke="black" stroke-width="1" />
<path d="M-20.862842638237332,-23.716942251403314 L-20.53196099498195,-22.946711746767093 L-19.73638987116862,-21.85157685050648" fill="green" fill-opacity="0.6" stroke="black" stroke-width="1" />
<path d="M-20.862842638237332,23.71694225140331 L-20.53196099498195,22.946711746767093 L-19.73638987116862,21.851576850506476" fill="pink" fill-opacity="0.6" stroke="black" stroke-width="1" />
<path d="M-20.862842638237332,-76.28305774859669 L-20.53196099498195,-77.0532882532329 L-19.73638987116862,-78.14842314949352" fill="brown" fill-opacity="0.6" stroke="black" stroke-width="1" />
<path d="M-20.53196099498195,77.0532882532329 L-19.73638987116862,78.14842314949352 L-13.665053076276862,79.20407516019121" fill="purple" fill-opacity="0.6" stroke="black" stroke-width="1" />
<path d="M-20.53196099498195,-22.946711746767093 L-19.73638987116862,-21.85157685050648 L-13.665053076276862,-20.795924839808794" fill="red" fill-opacity="0.6" stroke="black" stroke-width="1" />
<path d="M-20.53196099498195,22.946711746767093 L-19.73638987116862,21.851576850506476 L-13.665053076276862,20.79592483980879" fill="yellow" fill-opacity="0.6" stroke="black" stroke-width="1" />
<path d="M-20.53196099498195,-77.0532882532329 L-19.73638987116862,-78.14842314949352 L-13.665053076276862,-79.20407516019121" fill="pink" fill-opacity="0.6" stroke="black" stroke-width="1" />
<path d="M-19.73638987116862,78.14842314949352 L-13.665053076276862,79.20407516019121 L-20.0,80.0" fill="blue" fill-opacity="0.6" stroke="black" stroke-width="1" />
<path d="M-19.73638987116862,-21.85157685050648 L-13.665053076276862,-20.795924839808794 L-20.0,-20.0" fill="blue" fill-opacity="0.6" stroke="black" stroke-width="1" />
<path d="M-19.73638987116862,21.851576850506476 L-13.665053076276862,20.79592483980879 L-20.0,20.0" fill="blue" fill-opacity="0.6" stroke="black" stroke-width="1" />
<path d="M-19.73638987116862,-78.14842314949352 L-13.665053076276862,-79.20407516019121 L-20.0,-80.0" fill="pink" fill-opacity="0.6" stroke="black" stroke-width="1" />
<path d="M-17.0,83.0 L-12.865408728483802,83.82854672867451 L-8.147487114872527,84.03367902656016" fill="blue" fill-opacity="0.6" stroke="black" stroke-width="1" />
<path d="M-17.0,-17.0 L-12.865408728483802,-16.17145327132549 L-8.147487114872527,-15.96632097343984" fill="brown" fill-opacity="0.6" stroke="black" stroke-width="1" />
<path d="M-17.0,17.0 L-12.865408728483802,16.17145327132549 L-8.147487114872527,15.966320973439835" fill="yellow" fill-opacity="0.6" stroke="black" stroke-width="1" />
<path d="M-17.0,-83.0 L-12.865408728483802,-83.82854672867451 L-8.147487114872527,-84.03367902656015" fill="red" fill-opacity="0.6" stroke="black" stroke-width="1" />
<path d="M-12.865408728483802,83.82854672867451 L-8.147487114872527,84.03367902656016 L-6.759082882156991,87.1280653869934" fill="black" fill-opacity="0.6" stroke="black" stroke-width="1" />
<path d="M-12.865408728483802,-16.17145327132549 L-8.147487114872527,-15.96632097343984 L-6.759082882156991,-12.871934613006607" fill="yellow" fill-opacity="0.6" stroke="black" stroke-width="1" />
<path d="M-12.865408728483802,16.17145327132549 L-8.147487114872527,15.966320973439835 L-6.759082882156991,12.871934613006601" fill="yellow" fill-opacity="0.6" stroke="black" stroke-width="1" />
<path d="M-12.865408728483802,-83.82854672867451 L-8.147487114872527,-84.03367902656015 L-6.759082882156991,-87.1280653869934" fill="pink" fill-opacity="0.6" stroke="black" stroke-width="1" />
<path d="M-8.147487114872527,84.03367902656016 L-6.759082882156991,87.1280653869934 L-6.081590359532402,87.37589844461003" fill="green" fill-opacity="0.6" stroke="black" stroke-width="1" />
<path d="M-8.147487114872527,-15.96632097343984 L-6.759082882156991,-12.871934613006607 L-6.081590359532402,-12.62410155538997" fill="pink" fill-opacity="0.6" stroke="black" stroke-width="1" />
<path d="M-8.147487114872527,15.966320973439835 L-6.759082882156991,12.871934613006601 L-6.081590359532402,12.62410155538997" fill="brown" fill-opacity="0.6" stroke="black" stroke-width="1" />
<path d="M-8.147487114872527,-84.03367902656015 L-6.759082882156991,-87.1280653869934 L-6.081590359532402,-87.37589844461003" fill="blue" fill-opacity="0.6" stroke="black" stroke-width="1" />
<path d="M-6.759082882156991,87.1280653869934 L-6.081590359532402,87.37589844461003 L-5.980486219779952,89.50558486032514" fill="red" fill-opacity="0.6" stroke="black" stroke-width="1" />
<path d="M-6.759082882156991,-12.871934613006607 L-6.081590359532402,-12.62410155538997 L-5.980486219779952,-10.494415139674857" fill="brown" fill-opacity="0.6" stroke="black" stroke-width="1" />
<path d="M-6.759082882156991,12.871934613006601 L-6.081590359532402,12.62410155538997 L-5.980486219779952,10.494415139674857" fill="purple" fill-opacity="0.6" stroke="black" stroke-width="1" />
<path d="M-6.759082882156991,-87.1280653869934 L-6.081590359532402,-87.37589844461003 L-5.980486219779952,-89.50558486032514" fill="purple" fill-opacity="0.6" stroke="black" stroke-width="1" />
<path d="M-6.081590359532402,87.37589844461003 L-5.980486219779952,89.50558486032514 L-3.254289897926836,89.74669121503669" fill="red" fill-opacity="0.6" stroke="black" stroke-width="1" />
<path d="M-6.081590359532402,-12.62410155538997 L-5.980486219779952,-10.494415139674857 L-3.254289897926836,-10.253308784963306" fill="blue" fill-opacity="0.6" stroke="black" stroke-width="1" />
<path d="M-6.081590359532402,12.62410155538997 L-5.980486219779952,10.494415139674857 L-3.254289897926836,10.253308784963309" fill="brown" fill-opacity="0.6" stroke="black" stroke-width="1" />
<path d="M-6.081590359532402,-87.37589844461003 L-5.980486219779952,-89.50558486032514 L-3.254289897926836,-89.74669121503669" fill="red" fill-opacity="0.6" stroke="black" stroke-width="1" />
<path d="M-5.980486219779952,89.50558486032514 L-3.254289897926836,89.74669121503669 L-3.1213868901448767,90.09762066981449" fill="purple" fill-opacity="0.6" stroke="black" stroke-width="1" />
<path d="M-5.980486219779952,-10.494415139674857 L-3.254289897926836,-10.253308784963306 L-3.1213868901448767,-9.902379330185518" fill="yellow" fill-opacity="0.6" stroke="black" stroke-width="1" />
<path d="M-5.980486219779952,10.494415139674857 L-3.254289897926836,10.253308784963309 L-3.1213868901448767,9.90237933018551" fill="orange" fill-opacity="0.6" stroke="black" stroke-width="1" />
<path d="M-5.980486219779952,-89.50558486032514 L-3.254289897926836,-89.74669121503669 L-3.1213868901448767,-90.09762066981449" fill="blue" fill-opacity="0.6" stroke="black" stroke-width="1" />
<path d="M-3.254289897926836,89.74669121503669 L-3.1213868901448767,90.09762066981449 L-2.50794434139012,90.3627019109326" fill="blue" fill-opacity="0.6" stroke="black" stroke-width="1" />
<path d="M-3.254289897926836,-10.253308784963306 L-3.1213868901448767,-9.902379330185518 L-2.50794434139012,-9.637298089067393" fill="blue" fill-opacity="0.6" stroke="black" stroke-width="1" />
<path d="M-3.254289897926836,10.253308784963309 L-3.1213868901448767,9.90237933018551 L-2.50794434139012,9.6372980890674" fill="blue" fill-opacity="0.6" stroke="black" stroke-width="1" />
<path d="M-3.254289897926836,-89.74669121503669 L-3.1213868901448767,-90.09762066981449 L-2.50794434139012,-90.3627019109326" fill="black" fill-opacity="0.6" stroke="black" stroke-width="1" />
<path d="M-3.1213868901448767,90.09762066981449 L-2.50794434139012,90.3627019109326 L-2.3303052464794973,92.24840081702983" fill="orange" fill-opacity="0.6" stroke="black" stroke-width="1" />
<path d="M-3.1213868901448767,-9.902379330185518 L-2.50794434139012,-9.637298089067393 L-2.3303052464794973,-7.751599182970165" fill="brown" fill-opacity="0.6" stroke="black" stroke-width="1" />
<path d="M-3.1213868901448767,9.90237933018551 L-2.50794434139012,9.6372980890674 L-2.3303052464794973,7.751599182970168" fill="orange" fill-opacity="0.6" stroke="black" stroke-width="1" />
<path d="M-3.1213868901448767,-90.09762066981449 L-2.50794434139012,-90.3627019109326 L-2.3303052464794973,-92.24840081702983" fill="pink" fill-opacity="0.6" stroke="black" stroke-width="1" />
<path d="M-2.50794434139012,90.3627019109326 L-2.3303052464794973,92.24840081702983 L-1.149764404163607,93.28976023135505" fill="purple" fill-opacity="0.6" stroke="black" stroke-width="1" />
<path d="M-2.50794434139012,-9.637298089067393 L-2.3303052464794973,-7.751599182970165 L-1.149764404163607,-6.710239768644948" fill="purple" fill-opacity="0.6" stroke="black" stroke-width="1" />
<path d="M-2.50794434139012,9.6372980890674 L-2.3303052464794973,7.751599182970168 L-1.149764404163607,6.7102397686449535" fill="purple" fill-opacity="0.6" stroke="black" stroke-width="1" />
<path d="M-2.50794434139012,-90.3627019109326 L-2.3303052464794973,-92.24840081702983 L-1.149764404163607,-93.28976023135505" fill="pink" fill-opacity="0.6" stroke="black" stroke-width="1" />
<path d="M-2.3303052464794973,92.24840081702983 L-1.149764404163607,93.28976023135505 L-0.8742354437813858,94.59172214475632" fill="purple" fill-opacity="0.6" stroke="black" stroke-width="1" />
<path d="M-2.3303052464794973,-7.751599182970165 L-1.149764404163607,-6.710239768644948 L-0.8742354437813858,-5.408277855243682" fill="green" fill-opacity="0.6" stroke="black" stroke-width="1" />
<path d="M-2.3303052464794973,7.751599182970168 L-1.149764404163607,6.7102397686449535 L-0.8742354437813858,5.408277855243682" fill="pink" fill-opacity="0.6" stroke="black" stroke-width="1" />
<path d="M-2.3303052464794973,-92.24840081702983 L-1.149764404163607,-93.28976023135505 L-0.8742354437813858,-94.59172214475632" fill="black" fill-opacity="0.6" stroke="black" stroke-width="1" />
<path d="M-1.149764404163607,93.28976023135505 L-0.8742354437813858,94.59172214475632 L-0.32760171071371386,96.63196515825912" fill="green" fill-opacity="0.6" stroke="black" stroke-width="1" />
<path d="M-1.149764404163607,-6.710239768644948 L-0.8742354437813858,-5.408277855243682 L-0.32760171071371386,-3.3680348417408856" fill="pink" fill-opacity="0.6" stroke="black" stroke-width="1" />
<path d="M-1.149764404163607,6.7102397686449535 L-0.8742354437813858,5.408277855243682 L-0.32760171071371386,3.3680348417408794" fill="blue" fill-opacity="0.6" stroke="black" stroke-width="1" />
<path d="M-1.149764404163607,-93.28976023135505 L-0.8742354437813858,-94.59172214475632 L-0.32760171071371386,-96.6319651582591" fill="orange" fill-opacity="0.6" stroke="black" stroke-width="1" />
<path d="M-0.8742354437813858,94.59172214475632 L-0.32760171071371386,96.63196515825912 L-0.1166998755330953,98.44920201806474" fill="brown" fill-opacity="0.6" stroke="black" stroke-width="1" />
<path d="M-0.8742354437813858,-5.408277855243682 L-0.32760171071371386,-3.3680348417408856 L-0.1166998755330953,-1.5507979819352644" fill="brown" fill-opacity="0.6" stroke="black" stroke-width="1" />
<path d="M-0.8742354437813858,5.408277855243682 L-0.32760171071371386,3.3680348417408794 L-0.1166998755330953,1.5507979819352613" fill="black" fill-opacity="0.6" stroke="black" stroke-width="1" />
<path d="M-0.8742354437813858,-94.59172214475632 L-0.32760171071371386,-96.6319651582591 L-0.1166998755330953,-98.44920201806474" fill="green" fill-opacity="0.6" stroke="black" stroke-width="1" />
<path d="M-0.32760171071371386,96.63196515825912 L-0.1166998755330953,98.44920201806474 L0.0,100.0" fill="red" fill-opacity="0.6" stroke="black" stroke-width="1" />
<path d="M-0.32760171071371386,-3.3680348417408856 L-0.1166998755330953,-1.5507979819352644 L0.0,-0.0" fill="brown" fill-opacity="0.6" stroke="black" stroke-width="1" />
<path d="M-0.32760171071371386,3.3680348417408794 L-0.1166998755330953,1.5507979819352613 L0.0,-0.0" fill="black" fill-opacity="0.6" stroke="black" stroke-width="1" />
<path d="M-0.32760171071371386,-96.6319651582591 L-0.1166998755330953,-98.44920201806474 L0.0,-100.0" fill="purple" fill-opacity="0.6" stroke="black" stroke-width="1" />
<path d="M-79.20407516019121,-13.665053076276862 L-80.0,-20.0 L-83.0,-17.0" fill="red" fill-opacity="0.6" stroke="black" stroke-width="1" />
<path d="M-79.20407516019121,13.665053076276862 L-80.0,20.0 L-83.0,17.0" fill="brown" fill-opacity="0.6" stroke="black" stroke-width="1" />
<path d="M-50.0,-11.0 L-52.43401445772347,-22.766886368958485 L-50.0,-24.0" fill="black" fill-opacity="0.6" stroke="black" stroke-width="1" />
<path d="M-50.0,11.0 L-52.43401445772347,22.766886368958485 L-50.0,24.0" fill="brown" fill-opacity="0.6" stroke="black" stroke-width="1" />
<path d="M-50.0,-38.0 L-54.0,-46.0 L-58.0,-42.0" fill="purple" fill-opacity="0.6" stroke="black" stroke-width="1" />
<path d="M-50.0,38.0 L-54.0,46.0 L-58.0,42.0" fill="yellow" fill-opacity="0.6" stroke="black" stroke-width="1" />
<path d="M-54.0,-46.0 L-58.0,-42.0 L-73.0,-27.0" fill="black" fill-opacity="0.6" stroke="black" stroke-width="1" />
<path d="M-54.0,46.0 L-58.0,42.0 L-73.0,27.0" fill="yellow" fill-opacity="0.6" stroke="black" stroke-width="1" />
<path d="M-58.0,-42.0 L-73.0,-27.0 L-74.0,-26.0" fill="pink" fill-opacity="0.6" stroke="black" stroke-width="1" />
<path d="M-58.0,42.0 L-73.0,27.0 L-74.0,26.0" fill="black" fill-opacity="0.6" stroke="black" stroke-width="1" />
<path d="M-73.0,-27.0 L-74.0,-26.0 L-76.28305774859669,-20.862842638237332" fill="red" fill-opacity="0.6" stroke="black" stroke-width="1" />
<path d="M-73.0,27.0 L-74.0,26.0 L-76.28305774859669,20.862842638237332" fill="yellow" fill-opacity="0.6" stroke="black" stroke-width="1" />
<path d="M-74.0,-26.0 L-76.28305774859669,-20.862842638237332 L-77.0532882532329,-20.53196099498195" fill="purple" fill-opacity="0.6" stroke="black" stroke-width="1" />
<path d="M-74.0,26.0 L-76.28305774859669,20.862842638237332 L-77.0532882532329,20.53196099498195" fill="yellow" fill-opacity="0.6" stroke="black" stroke-width="1" />
<path d="M-76.28305774859669,-20.862842638237332 L-77.0532882532329,-20.53196099498195 L-78.14842314949352,-19.73638987116862" fill="green" fill-opacity="0.6" stroke="black" stroke-width="1" />
<path d="M-76.28305774859669,20.862842638237332 L-77.0532882532329,20.53196099498195 L-78.14842314949352,19.73638987116862" fill="yellow" fill-opacity="0.6" stroke="black" stroke-width="1" />
<path d="M-77.0532882532329,-20.53196099498195 L-78.14842314949352,-19.73638987116862 L-79.20407516019121,-13.665053076276862" fill="purple" fill-opacity="0.6" stroke="black" stroke-width="1" />
<path d="M-77.0532882532329,20.53196099498195 L-78.14842314949352,19.73638987116862 L-79.20407516019121,13.665053076276862" fill="black" fill-opacity="0.6" stroke="black" stroke-width="1" />
<path d="M-78.14842314949352,-19.73638987116862 L-79.20407516019121,-13.665053076276862 L-80.0,-20.0" fill="yellow" fill-opacity="0.6" stroke="black" stroke-width="1" />
<path d="M-78.14842314949352,19.73638987116862 L-79.20407516019121,13.665053076276862 L-80.0,20.0" fill="red" fill-opacity="0.6" stroke="black" stroke-width="1" />
<path d="M-80.0,-20.0 L-83.0,-17.0 L-83.82854672867451,-12.865408728483802" fill="black" fill-opacity="0.6" stroke="black" stroke-width="1" />
<path d="M-80.0,20.0 L-83.0,17.0 L-83.82854672867451,12.865408728483802" fill="pink" fill-opacity="0.6" stroke="black" stroke-width="1" />
<path d="M-83.0,-17.0 L-83.82854672867451,-12.865408728483802 L-84.03367902656015,-8.147487114872527" fill="orange" fill-opacity="0.6" stroke="black" stroke-width="1" />
<path d="M-83.0,17.0 L-83.82854672867451,12.865408728483802 L-84.03367902656015,8.147487114872527" fill="purple" fill-opacity="0.6" stroke="black" stroke-width="1" />
<path d="M-83.82854672867451,-12.865408728483802 L-84.03367902656015,-8.147487114872527 L-87.1280653869934,-6.759082882156991" fill="pink" fill-opacity="0.6" stroke="black" stroke-width="1" />
<path d="M-83.82854672867451,12.865408728483802 L-84.03367902656015,8.147487114872527 L-87.1280653869934,6.759082882156991" fill="brown" fill-opacity="0.6" stroke="black" stroke-width="1" />
<path d="M-84.03367902656015,-8.147487114872527 L-87.1280653869934,-6.759082882156991 L-87.37589844461003,-6.081590359532402" fill="red" fill-opacity="0.6" stroke="black" stroke-width="1" />
<path d="M-84.03367902656015,8.147487114872527 L-87.1280653869934,6.759082882156991 L-87.37589844461003,6.081590359532402" fill="green" fill-opacity="0.6" stroke="black" stroke-width="1" />
<path d="M-87.1280653869934,-6.759082882156991 L-87.37589844461003,-6.081590359532402 L-89.50558486032514,-5.980486219779952" fill="brown" fill-opacity="0.6" stroke="black" stroke-width="1" />
<path d="M-87.1280653869934,6.759082882156991 L-87.37589844461003,6.081590359532402 L-89.50558486032514,5.980486219779952" fill="orange" fill-opacity="0.6" stroke="black" stroke-width="1" />
<path d="M-87.37589844461003,-6.081590359532402 L-89.50558486032514,-5.980486219779952 L-89.74669121503669,-3.254289897926836" fill="blue" fill-opacity="0.6" stroke="black" stroke-width="1" />
<path d="M-87.37589844461003,6.081590359532402 L-89.50558486032514,5.980486219779952 L-89.74669121503669,3.254289897926836" fill="blue" fill-opacity="0.6" stroke="black" stroke-width="1" />
<path d="M-89.50558486032514,-5.980486219779952 L-89.74669121503669,-3.254289897926836 L-90.09762066981449,-3.1213868901448767" fill="purple" fill-opacity="0.6" stroke="black" stroke-width="1" />
<path d="M-89.50558486032514,5.980486219779952 L-89.74669121503669,3.254289897926836 L-90.09762066981449,3.1213868901448767" fill="orange" fill-opacity="0.6" stroke="black" stroke-width="1" />
<path d="M-89.74669121503669,-3.254289897926836 L-90.09762066981449,-3.1213868901448767 L-90.3627019109326,-2.50794434139012" fill="red" fill-opacity="0.6" stroke="black" stroke-width="1" />
<path d="M-89.74669121503669,3.254289897926836 L-90.09762066981449,3.1213868901448767 L-90.3627019109326,2.50794434139012" fill="pink" fill-opacity="0.6" stroke="black" stroke-width="1" />
<path d="M-90.09762066981449,-3.1213868901448767 L-90.3627019109326,-2.50794434139012 L-92.24840081702983,-2.3303052464794973" fill="green" fill-opacity="0.6" stroke="black" stroke-width="1" />
<path d="M-90.09762066981449,3.1213868901448767 L-90.3627019109326,2.50794434139012 L-92.24840081702983,2.3303052464794973" fill="yellow" fill-opacity="0.6" stroke="black" stroke-width="1" />
<path d="M-90.3627019109326,-2.50794434139012 L-92.24840081702983,-2.3303052464794973 L-93.28976023135505,-1.149764404163607" fill="brown" fill-opacity="0.6" stroke="black" stroke-width="1" />
<path d="M-90.3627019109326,2.50794434139012 L-92.24840081702983,2.3303052464794973 L-93.28976023135505,1.149764404163607" fill="red" fill-opacity="0.6" stroke="black" stroke-width="1" />
<path d="M-92.24840081702983,-2.3303052464794973 L-93.28976023135505,-1.149764404163607 L-94.59172214475632,-0.8742354437813858" fill="orange" fill-opacity="0.6" stroke="black" stroke-width="1" />
<path d="M-92.24840081702983,2.3303052464794973 L-93.28976023135505,1.149764404163607 L-94.59172214475632,0.8742354437813858" fill="pink" fill-opacity="0.6" stroke="black" stroke-width="1" />
<path d="M-93.28976023135505,-1.149764404163607 L-94.59172214475632,-0.8742354437813858 L-96.6319651582591,-0.32760171071371386" fill="yellow" fill-opacity="0.6" stroke="black" stroke-width="1" />
<path d="M-93.28976023135505,1.149764404163607 L-94.59172214475632,0.8742354437813858 L-96.6319651582591,0.32760171071371386" fill="blue" fill-opacity="0.6" stroke="black" stroke-width="1" />
<path d="M-94.59172214475632,-0.8742354437813858 L-96.6319651582591,-0.32760171071371386 L-98.44920201806474,-0.1166998755330953" fill="pink" fill-opacity="0.6" stroke="black" stroke-width="1" />
<path d="M-94.59172214475632,0.8742354437813858 L-96.6319651582591,0.32760171071371386 L-98.44920201806474,0.1166998755330953" fill="orange" fill-opacity="0.6" stroke="black" stroke-width="1" />
<path d="M-96.6319651582591,-0.32760171071371386 L-98.44920201806474,-0.1166998755330953 L-100.0,-0.0" fill="black" fill-opacity="0.6" stroke="black" stroke-width="1" />
<path d="M-96.6319651582591,0.32760171071371386 L-98.44920201806474,0.1166998755330953 L-100.0,-0.0" fill="yellow" fill-opacity="0.6" stroke="black" stroke-width="1" />
</svg>