<?xml version="1.0" encoding="UTF-8"?>
<svg xmlns="http://www.w3.org/2000/svg" xmlns:xlink="http://www.w3.org/1999/xlink"
     width="250" height="250" viewBox="-125.0 -125.0 250 250">
<defs>
</defs>
<path d="M9.0,-0.0 L10.514116988782472,-1.9417513878887565 L12.784343528068437,-2.481229037526664" fill="red" fill-opacity="0.6" stroke="black" stroke-width="1" />
<path d="M9.0,-0.0 L10.514116988782472,1.9417513878887565 L12.784343528068437,2.481229037526664" fill="yellow" fill-opacity="0.6" stroke="black" stroke-width="1" />
<path d="M10.514116988782472,-1.9417513878887565 L12.784343528068437,-2.481229037526664 L17.824770425418684,-5.610642424732751" fill="pink" fill-opacity="0.6" stroke="black" stroke-width="1" />
<path d="M10.514116988782472,1.9417513878887565 L12.784343528068437,2.481229037526664 L17.824770425418684,5.610642424732751" fill="purple" fill-opacity="0.6" stroke="black" stroke-width="1" />
<path d="M12.784343528068437,-2.481229037526664 L17.824770425418684,-5.610642424732751 L18.069008611425385,-6.393051004644707" fill="blue" fill-opacity="0.6" stroke="black" stroke-width="1" />
<path d="M12.784343528068437,2.481229037526664 L17.824770425418684,5.610642424732751 L18.069008611425385,6.393051004644707" fill="blue" fill-opacity="0.6" stroke="black" stroke-width="1" />
<path d="M17.824770425418684,-5.610642424732751 L18.069008611425385,-6.393051004644707 L18.31299799146551,-6.8812557556892955" fill="black" fill-opacity="0.6" stroke="black" stroke-width="1" />
<path d="M17.824770425418684,5.610642424732751 L18.069008611425385,6.393051004644707 L18.31299799146551,6.8812557556892955" fill="blue" fill-opacity="0.6" stroke="black" stroke-width="1" />
<path d="M18.069008611425385,-6.393051004644707 L18.31299799146551,-6.8812557556892955 L46.0,-0.0" fill="brown" fill-opacity="0.6" stroke="black" stroke-width="1" />
<path d="M18.069008611425385,6.393051004644707 L18.31299799146551,6.8812557556892955 L46.0,-0.0" fill="red" fill-opacity="0.6" stroke="black" stroke-width="1" />
<path d="M50.0,-1.0 L39.75667190284709,-13.27358055498349 L50.0,-15.0" fill="brown" fill-opacity="0.6" stroke="black" stroke-width="1" />
<path d="M50.0,1.0 L39.75667190284709,13.27358055498349 L50.0,15.0" fill="purple" fill-opacity="0.6" stroke="black" stroke-width="1" />
<path d="M50.0,-15.0 L46.12151849466258,-16.167512288974383 L46.43450421545971,-18.01906080698434" fill="purple" fill-opacity="0.6" stroke="black" stroke-width="1" />
<path d="M50.0,15.0 L46.12151849466258,16.167512288974383 L46.43450421545971,18.01906080698434" fill="pink" fill-opacity="0.6" stroke="black" stroke-width="1" />
<path d="M46.12151849466258,-16.167512288974383 L46.43450421545971,-18.01906080698434 L50.0,-50.0" fill="green" fill-opacity="0.6" stroke="black" stroke-width="1" />
<path d="M46.12151849466258,16.167512288974383 L46.43450421545971,18.01906080698434 L50.0,50.0" fill="green" fill-opacity="0.6" stroke="black" stroke-width="1" />
<path d="M50.0,50.0 L16.0,84.0 L15.0,85.0" fill="blue" fill-opacity="0.6" stroke="black" stroke-width="1" />
<path d="M50.0,-50.0 L16.0,-84.0 L15.0,-85.0" fill="orange" fill-opacity="0.6" stroke="black" stroke-width="1" />
<path d="M16.0,84.0 L15.0,85.0 L1.64724028024954,92.36170640784754" fill="orange" fill-opacity="0.6" stroke="black" stroke-width="1" />
<path d="M16.0,-84.0 L15.0,-85.0 L1.64724028024954,-92.36170640784754" fill="orange" fill-opacity="0.6" stroke="black" stroke-width="1" />
<path d="M15.0,-15.0 L7.638293592152461,-1.64724028024954 L7.277000261733457,-1.4444478324642351" fill="blue" fill-opacity="0.6" stroke="black" stroke-width="1" />
<path d="M15.0,15.0 L7.638293592152461,1.64724028024954 L7.277000261733457,1.4444478324642351" fill="brown" fill-opacity="0.6" stroke="black" stroke-width="1" />
<path d="M7.638293592152461,-1.64724028024954 L7.277000261733457,-1.4444478324642351 L7.131129551263809,-1.1932959421646876" fill="orange" fill-opacity="0.6" stroke="black" stroke-width="1" />
<path d="M7.638293592152461,1.64724028024954 L7.277000261733457,1.4444478324642351 L7.131129551263809,1.1932959421646876" fill="pink" fill-opacity="0.6" stroke="black" stroke-width="1" />
<path d="M7.277000261733457,-1.4444478324642351 L7.131129551263809,-1.1932959421646876 L6.924649653833804,-1.1871537504105183" fill="purple" fill-opacity="0.6" stroke="black" stroke-width="1" />
<path d="M7.277000261733457,1.4444478324642351 L7.131129551263809,1.1932959421646876 L6.924649653833804,1.1871537504105183" fill="purple" fill-opacity="0.6" stroke="black" stroke-width="1" />
<path d="M7.131129551263809,-1.1932959421646876 L6.924649653833804,-1.1871537504105183 L2.233591641639415,-1.1775548644939113" fill="orange" fill-opacity="0.6" stroke="black" stroke-width="1" />
<path d="M7.131129551263809,1.1932959421646876 L6.924649653833804,1.1871537504105183 L2.233591641639415,1.1775548644939113" fill="purple" fill-opacity="0.6" stroke="black" stroke-width="1" />
<path d="M6.924649653833804,-1.1871537504105183 L2.233591641639415,-1.1775548644939113 L2.0,-2.0" fill="yellow" fill-opacity="0.6" stroke="black" stroke-width="1" />
<path d="M6.924649653833804,1.1871537504105183 L2.233591641639415,1.1775548644939113 L2.0,2.0" fill="blue" fill-opacity="0.6" stroke="black" stroke-width="1" />
<path d="M1.1775548644939113,97.7664083583606 L2.0,98.0 L0.9765149746296135,98.12753793187643" fill="pink" fill-opacity="0.6" stroke="black" stroke-width="1" />
<path d="M1.1775548644939113,-97.7664083583606 L2.0,-98.0 L0.9765149746296135,-98.12753793187643" fill="orange" fill-opacity="0.6" stroke="black" stroke-width="1" />
<path d="M2.0,-2.0 L1.8724620681235704,-0.9765149746296135 L0.0,-0.0" fill="pink" fill-opacity="0.6" stroke="black" stroke-width="1" />
<path d="M2.0,2.0 L1.8724620681235704,0.9765149746296135 L0.0,-0.0" fill="brown" fill-opacity="0.6" stroke="black" stroke-width="1" />
<path d="M-9.0,-0.0 L-10.514116988782472,-1.9417513878887565 L-12.784343528068437,-2.481229037526664" fill="orange" fill-opacity="0.6" stroke="black" stroke-width="1" />
<path d="M-9.0,-0.0 L-10.514116988782472,1.9417513878887565 L-12.784343528068437,2.481229037526664" fill="black" fill-opacity="0.6" stroke="black" stroke-width="1" />
<path d="M-10.514116988782472,-1.9417513878887565 L-12.784343528068437,-2.481229037526664 L-17.824770425418684,-5.610642424732751" fill="yellow" fill-opacity="0.6" stroke="black" stroke-width="1" />
<path d="M-10.514116988782472,1.9417513878887565 L-12.784343528068437,2.481229037526664 L-17.824770425418684,5.610642424732751" fill="black" fill-opacity="0.6" stroke="black" stroke-width="1" />
<path d="M-12.784343528068437,-2.481229037526664 L-17.824770425418684,-5.610642424732751 L-18.069008611425385,-6.393051004644707" fill="purple" fill-opacity="0.6" stroke="black" stroke-width="1" />
<path d="M-12.784343528068437,2.481229037526664 L-17.824770425418684,5.610642424732751 L-18.069008611425385,6.393051004644707" fill="yellow" fill-opacity="0.6" stroke="black" stroke-width="1" />
<path d="M-17.824770425418684,-5.610642424732751 L-18.069008611425385,-6.393051004644707 L-18.31299799146551,-6.8812557556892955" fill="pink" fill-opacity="0.6" stroke="black" stroke-width="1" />
<path d="M-17.824770425418684,5.610642424732751 L-18.069008611425385,6.393051004644707 L-18.31299799146551,6.8812557556892955" fill="green" fill-opacity="0.6" stroke="black" stroke-width="1" />
<path d="M-18.069008611425385,-6.393051004644707 L-18.31299799146551,-6.8812557556892955 L-46.0,-0.0" fill="green" fill-opacity="0.6" stroke="black" stroke-width="1" />
<path d="M-18.069008611425385,6.393051004644707 L-18.31299799146551,6.8812557556892955 L-46.0,-0.0" fill="black" fill-opacity="0.6" stroke="black" stroke-width="1" />
<path d="M-50.0,-1.0 L-39.75667190284709,-13.27358055498349 L-50.0,-15.0" fill="brown" fill-opacity="0.6" stroke="black" stroke-width="1" />
<path d="M-50.0,1.0 L-39.75667190284709,13.27358055498349 L-50.0,15.0" fill="red" fill-opacity="0.6" stroke="black" stroke-width="1" />
<path d="M-50.0,-15.0 L-46.12151849466258,-16.167512288974383 L-46.43450421545971,-18.01906080698434" fill="black" fill-opacity="0.6" stroke="black" stroke-width="1" />
<path d="M-50.0,15.0 L-46.12151849466258,16.167512288974383 L-46.43450421545971,18.01906080698434" fill="green" fill-opacity="0.6" stroke="black" stroke-width="1" />
<path d="M-46.12151849466258,-16.167512288974383 L-46.43450421545971,-18.01906080698434 L-50.0,-50.0" fill="brown" fill-opacity="0.6" stroke="black" stroke-width="1" />
<path d="M-46.12151849466258,16.167512288974383 L-46.43450421545971,18.01906080698434 L-50.0,50.0" fill="red" fill-opacity="0.6" stroke="black" stroke-width="1" />
<path d="M-50.0,50.0 L-16.0,84.0 L-15.0,85.0" fill="pink" fill-opacity="0.6" stroke="black" stroke-width="1" />
<path d="M-50.0,-50.0 L-16.0,-84.0 L-15.0,-85.0" fill="pink" fill-opacity="0.6" stroke="black" stroke-width="1" />
<path d="M-16.0,84.0 L-15.0,85.0 L-1.64724028024954,92.36170640784754" fill="purple" fill-opacity="0.6" stroke="black" stroke-width="1" />
<path d="M-16.0,-84.0 L-15.0,-85.0 L-1.64724028024954,-92.36170640784754" fill="orange" fill-opacity="0.6" stroke="black" stroke-width="1" />
<path d="M-15.0,-15.0 L-7.638293592152461,-1.64724028024954 L-7.277000261733457,-1.4444478324642351" fill="yellow" fill-opacity="0.6" stroke="black" stroke-width="1" />
<path d="M-15.0,15.0 L-7.638293592152461,1.64724028024954 L-7.277000261733457,1.4444478324642351" fill="orange" fill-opacity="0.6" stroke="black" stroke-width="1" />
<path d="M-7.638293592152461,-1.64724028024954 L-7.277000261733457,-1.4444478324642351 L-7.131129551263809,-1.1932959421646876" fill="orange" fill-opacity="0.6" stroke="black" stroke-width="1" />
<path d="M-7.638293592152461,1.64724028024954 L-7.277000261733457,1.4444478324642351 L-7.131129551263809,1.1932959421646876" fill="brown" fill-opacity="0.6" stroke="black" stroke-width="1" />
<path d="M-7.277000261733457,-1.4444478324642351 L-7.131129551263809,-1.1932959421646876 L-6.924649653833804,-1.1871537504105183" fill="orange" fill-opacity="0.6" stroke="black" stroke-width="1" />
<path d="M-7.277000261733457,1.4444478324642351 L-7.131129551263809,1.1932959421646876 L-6.924649653833804,1.1871537504105183" fill="blue" fill-opacity="0.6" stroke="black" stroke-width="1" />
<path d="M-7.131129551263809,-1.1932959421646876 L-6.924649653833804,-1.1871537504105183 L-2.233591641639415,-1.1775548644939113" fill="brown" fill-opacity="0.6" stroke="black" stroke-width="1" />
<path d="M-7.131129551263809,1.1932959421646876 L-6.924649653833804,1.1871537504105183 L-2.233591641639415,1.1775548644939113" fill="yellow" fill-opacity="0.6" stroke="black" stroke-width="1" />
<path d="M-6.924649653833804,-1.1871537504105183 L-2.233591641639415,-1.1775548644939113 L-2.0,-2.0" fill="yellow" fill-opacity="0.6" stroke="black" stroke-width="1" />
<path d="M-6.924649653833804,1.1871537504105183 L-2.233591641639415,1.1775548644939113 L-2.0,2.0" fill="blue" fill-opacity="0.6" stroke="black" stroke-width="1" />
<path d="M-1.1775548644939113,97.76640835836058 L-2.0,98.0 L-0.9765149746296135,98.12753793187643" fill="brown" fill-opacity="0.6" stroke="black" stroke-width="1" />
<path d="M-1.1775548644939113,-97.7664083583606 L-2.0,-98.0 L-0.9765149746296135,-98.12753793187643" fill="purple" fill-opacity="0.6" stroke="black" stroke-width="1" />
<path d="M-2.0,-2.0 L-1.8724620681235704,-0.9765149746296135 L0.0,-0.0" fill="orange" fill-opacity="0.6" stroke="black" stroke-width="1" />
<path d="M-2.0,2.0 L-1.8724620681235704,0.9765149746296135 L0.0,-0.0" fill="orange" fill-opacity="0.6" stroke="black" stroke-width="1" />
<path d="M91.0,-0.0 L89.48588301121752,1.9417513878887565 L87.21565647193157,2.481229037526664" fill="black" fill-opacity="0.6" stroke="black" stroke-width="1" />
<path d="M91.0,-0.0 L89.48588301121752,-1.9417513878887565 L87.21565647193157,-2.481229037526664" fill="green" fill-opacity="0.6" stroke="black" stroke-width="1" />
<path d="M89.48588301121752,1.9417513878887565 L87.21565647193157,2.481229037526664 L82.17522957458132,5.610642424732751" fill="purple" fill-opacity="0.6" stroke="black" stroke-width="1" />
<path d="M89.48588301121752,-1.9417513878887565 L87.21565647193157,-2.481229037526664 L82.17522957458132,-5.610642424732751" fill="pink" fill-opacity="0.6" stroke="black" stroke-width="1" />
<path d="M87.21565647193157,2.481229037526664 L82.17522957458132,5.610642424732751 L81.93099138857461,6.393051004644707" fill="pink" fill-opacity="0.6" stroke="black" stroke-width="1" />
<path d="M87.21565647193157,-2.481229037526664 L82.17522957458132,-5.610642424732751 L81.93099138857461,-6.393051004644707" fill="purple" fill-opacity="0.6" stroke="black" stroke-width="1" />
<path d="M82.17522957458132,5.610642424732751 L81.93099138857461,6.393051004644707 L81.68700200853449,6.8812557556892955" fill="blue" fill-opacity="0.6" stroke="black" stroke-width="1" />
<path d="M82.17522957458132,-5.610642424732751 L81.93099138857461,-6.393051004644707 L81.68700200853449,-6.8812557556892955" fill="blue" fill-opacity="0.6" stroke="black" stroke-width="1" />
<path d="M81.93099138857461,6.393051004644707 L81.68700200853449,6.8812557556892955 L54.0,-0.0" fill="purple" fill-opacity="0.6" stroke="black" stroke-width="1" />
<path d="M81.93099138857461,-6.393051004644707 L81.68700200853449,-6.8812557556892955 L54.0,-0.0" fill="purple" fill-opacity="0.6" stroke="black" stroke-width="1" />
<path d="M50.0,1.0 L60.24332809715291,13.27358055498349 L50.0,15.0" fill="pink" fill-opacity="0.6" stroke="black" stroke-width="1" />
<path d="M50.0,-1.0 L60.24332809715291,-13.27358055498349 L50.0,-15.0" fill="yellow" fill-opacity="0.6" stroke="black" stroke-width="1" />
<path d="M50.0,15.0 L53.87848150533742,16.167512288974383 L53.56549578454029,18.01906080698434" fill="blue" fill-opacity="0.6" stroke="black" stroke-width="1" />
<path d="M50.0,-15.0 L53.87848150533742,-16.167512288974383 L53.56549578454029,-18.01906080698434" fill="black" fill-opacity="0.6" stroke="black" stroke-width="1" />
<path d="M53.87848150533742,16.167512288974383 L53.56549578454029,18.01906080698434 L50.0,50.0" fill="blue" fill-opacity="0.6" stroke="black" stroke-width="1" />
<path d="M53.87848150533742,-16.167512288974383 L53.56549578454029,-18.01906080698434 L50.0,-50.0" fill="red" fill-opacity="0.6" stroke="black" stroke-width="1" />
<path d="M50.0,50.0 L84.0,16.0 L85.0,15.0" fill="orange" fill-opacity="0.6" stroke="black" stroke-width="1" />
<path d="M50.0,-50.0 L84.0,-16.0 L85.0,-15.0" fill="blue" fill-opacity="0.6" stroke="black" stroke-width="1" />
<path d="M84.0,16.0 L85.0,15.0 L92.36170640784754,1.64724028024954" fill="blue" fill-opacity="0.6" stroke="black" stroke-width="1" />
<path d="M84.0,-16.0 L85.0,-15.0 L92.36170640784754,-1.64724028024954" fill="green" fill-opacity="0.6" stroke="black" stroke-width="1" />
<path d="M85.0,15.0 L92.36170640784754,1.64724028024954 L92.72299973826654,1.4444478324642351" fill="yellow" fill-opacity="0.6" stroke="black" stroke-width="1" />
<path d="M85.0,-15.0 L92.36170640784754,-1.64724028024954 L92.72299973826654,-1.4444478324642351" fill="red" fill-opacity="0.6" stroke="black" stroke-width="1" />
<path d="M92.36170640784754,1.64724028024954 L92.72299973826654,1.4444478324642351 L92.86887044873619,1.1932959421646876" fill="pink" fill-opacity="0.6" stroke="black" stroke-width="1" />
<path d="M92.36170640784754,-1.64724028024954 L92.72299973826654,-1.4444478324642351 L92.86887044873619,-1.1932959421646876" fill="black" fill-opacity="0.6" stroke="black" stroke-width="1" />
<path d="M92.72299973826654,1.4444478324642351 L92.86887044873619,1.1932959421646876 L93.0753503461662,1.1871537504105183" fill="purple" fill-opacity="0.6" stroke="black" stroke-width="1" />
<path d="M92.72299973826654,-1.4444478324642351 L92.86887044873619,-1.1932959421646876 L93.0753503461662,-1.1871537504105183" fill="orange" fill-opacity="0.6" stroke="black" stroke-width="1" />
<path d="M92.86887044873619,1.1932959421646876 L93.0753503461662,1.1871537504105183 L97.7664083583606,1.1775548644939113" fill="blue" fill-opacity="0.6" stroke="black" stroke-width="1" />
<path d="M92.86887044873619,-1.1932959421646876 L93.0753503461662,-1.1871537504105183 L97.7664083583606,-1.1775548644939113" fill="brown" fill-opacity="0.6" stroke="black" stroke-width="1" />
<path d="M93.0753503461662,1.1871537504105183 L97.7664083583606,1.1775548644939113 L98.0,2.0" fill="orange" fill-opacity="0.6" stroke="black" stroke-width="1" />
<path d="M93.0753503461662,-1.1871537504105183 L97.7664083583606,-1.1775548644939113 L98.0,-2.0" fill="yellow" fill-opacity="0.6" stroke="black" stroke-width="1" />
<path d="M97.7664083583606,1.1775548644939113 L98.0,2.0 L98.12753793187643,0.9765149746296135" fill="red" fill-opacity="0.6" stroke="black" stroke-width="1" />
<path d="M97.7664083583606,-1.1775548644939113 L98.0,-2.0 L98.12753793187643,-0.9765149746296135" fill="blue" fill-opacity="0.6" stroke="black" stroke-width="1" />
<path d="M98.0,2.0 L98.12753793187643,0.9765149746296135 L100.0,-0.0" fill="purple" fill-opacity="0.6" stroke="black" stroke-width="1" />
<path d="M98.0,-2.0 L98.12753793187643,-0.9765149746296135 L100.0,-0.0" fill="purple" fill-opacity="0.6" stroke="black" stroke-width="1" />
<path d="M0.0,-9.0 L1.9417513878887565,-10.514116988782472 L2.481229037526664,-12.784343528068437" fill="purple" fill-opacity="0.6" stroke="black" stroke-width="1" />
<path d="M0.0,9.0 L1.9417513878887565,10.514116988782472 L2.481229037526664,12.784343528068437" fill="red" fill-opacity="0.6" stroke="black" stroke-width="1" />
<path d="M0.0,91.0 L1.9417513878887565,89.48588301121752 L2.481229037526664,87.21565647193157" fill="purple" fill-opacity="0.6" stroke="black" stroke-width="1" />
<path d="M0.0,-91.0 L1.9417513878887565,-89.48588301121752 L2.481229037526664,-87.21565647193157" fill="brown" fill-opacity="0.6" stroke="black" stroke-width="1" />
<path d="M1.9417513878887565,-10.514116988782472 L2.481229037526664,-12.784343528068437 L5.610642424732751,-17.824770425418684" fill="orange" fill-opacity="0.6" stroke="black" stroke-width="1" />
<path d="M1.9417513878887565,10.514116988782472 L2.481229037526664,12.784343528068437 L5.610642424732751,17.824770425418684" fill="pink" fill-opacity="0.6" stroke="black" stroke-width="1" />
<path d="M1.9417513878887565,89.48588301121752 L2.481229037526664,87.21565647193157 L5.610642424732751,82.17522957458132" fill="purple" fill-opacity="0.6" stroke="black" stroke-width="1" />
<path d="M1.9417513878887565,-89.48588301121752 L2.481229037526664,-87.21565647193157 L5.610642424732751,-82.17522957458132" fill="black" fill-opacity="0.6" stroke="black" stroke-width="1" />
<path d="M2.481229037526664,-12.784343528068437 L5.610642424732751,-17.824770425418684 L6.393051004644707,-18.069008611425385" fill="black" fill-opacity="0.6" stroke="black" stroke-width="1" />
<path d="M2.481229037526664,12.784343528068437 L5.610642424732751,17.824770425418684 L6.393051004644707,18.069008611425385" fill="black" fill-opacity="0.6" stroke="black" stroke-width="1" />
<path d="M2.481229037526664,87.21565647193157 L5.610642424732751,82.17522957458132 L6.393051004644707,81.93099138857461" fill="red" fill-opacity="0.6" stroke="black" stroke-width="1" />
<path d="M2.481229037526664,-87.21565647193157 L5.610642424732751,-82.17522957458132 L6.393051004644707,-81.93099138857461" fill="yellow" fill-opacity="0.6" stroke="black" stroke-width="1" />
<path d="M5.610642424732751,-17.824770425418684 L6.393051004644707,-18.069008611425385 L6.8812557556892955,-18.31299799146551" fill="purple" fill-opacity="0.6" stroke="black" stroke-width="1" />
<path d="M5.610642424732751,17.824770425418684 L6.393051004644707,18.069008611425385 L6.8812557556892955,18.31299799146551" fill="purple" fill-opacity="0.6" stroke="black" stroke-width="1" />
<path d="M5.610642424732751,82.17522957458132 L6.393051004644707,81.93099138857461 L6.8812557556892955,81.68700200853449" fill="brown" fill-opacity="0.6" stroke="black" stroke-width="1" />
<path d="M5.610642424732751,-82.17522957458132 L6.393051004644707,-81.93099138857461 L6.8812557556892955,-81.68700200853449" fill="orange" fill-opacity="0.6" stroke="black" stroke-width="1" />
<path d="M6.393051004644707,-18.069008611425385 L6.8812557556892955,-18.31299799146551 L0.0,-46.0" fill="red" fill-opacity="0.6" stroke="black" stroke-width="1" />
<path d="M6.393051004644707,18.069008611425385 L6.8812557556892955,18.31299799146551 L0.0,46.0" fill="blue" fill-opacity="0.6" stroke="black" stroke-width="1" />
<path d="M6.393051004644707,81.93099138857461 L6.8812557556892955,81.68700200853449 L0.0,54.0" fill="brown" fill-opacity="0.6" stroke="black" stroke-width="1" />
<path d="M6.393051004644707,-81.93099138857461 L6.8812557556892955,-81.68700200853449 L0.0,-54.0" fill="red" fill-opacity="0.6" stroke="black" stroke-width="1" />
<path d="M1.0,-50.0 L13.27358055498349,-39.75667190284709 L15.0,-50.0" fill="red" fill-opacity="0.6" stroke="black" stroke-width="1" />
<path d="M1.0,50.0 L13.27358055498349,39.75667190284709 L15.0,50.0" fill="yellow" fill-opacity="0.6" stroke="black" stroke-width="1" />
<path d="M1.0,50.0 L13.27358055498349,60.24332809715291 L15.0,50.0" fill="purple" fill-opacity="0.6" stroke="black" stroke-width="1" />
<path d="M1.0,-50.0 L13.27358055498349,-60.24332809715291 L15.0,-50.0" fill="brown" fill-opacity="0.6" stroke="black" stroke-width="1" />
<path d="M15.0,-50.0 L16.167512288974383,-46.12151849466258 L18.01906080698434,-46.43450421545971" fill="green" fill-opacity="0.6" stroke="black" stroke-width="1" />
<path d="M15.0,50.0 L16.167512288974383,46.12151849466258 L18.01906080698434,46.43450421545971" fill="black" fill-opacity="0.6" stroke="black" stroke-width="1" />
<path d="M15.0,50.0 L16.167512288974383,53.87848150533742 L18.01906080698434,53.56549578454029" fill="blue" fill-opacity="0.6" stroke="black" stroke-width="1" />
<path d="M15.0,-50.0 L16.167512288974383,-53.87848150533742 L18.01906080698434,-53.56549578454029" fill="green" fill-opacity="0.6" stroke="black" stroke-width="1" />
<path d="M16.167512288974383,-46.12151849466258 L18.01906080698434,-46.43450421545971 L50.0,-50.0" fill="blue" fill-opacity="0.6" stroke="black" stroke-width="1" />
<path d="M16.167512288974383,46.12151849466258 L18.01906080698434,46.43450421545971 L50.0,50.0" fill="purple" fill-opacity="0.6" stroke="black" stroke-width="1" />
<path d="M16.167512288974383,53.87848150533742 L18.01906080698434,53.56549578454029 L50.0,50.0" fill="orange" fill-opacity="0.6" stroke="black" stroke-width="1" />
<path d="M16.167512288974383,-53.87848150533742 L18.01906080698434,-53.56549578454029 L50.0,-50.0" fill="red" fill-opacity="0.6" stroke="black" stroke-width="1" />
<path d="M15.0,-15.0 L1.64724028024954,-7.638293592152461 L1.4444478324642351,-7.277000261733457" fill="purple" fill-opacity="0.6" stroke="black" stroke-width="1" />
<path d="M15.0,15.0 L1.64724028024954,7.638293592152461 L1.4444478324642351,7.277000261733457" fill="yellow" fill-opacity="0.6" stroke="black" stroke-width="1" />
<path d="M15.0,85.0 L1.64724028024954,92.36170640784754 L1.4444478324642351,92.72299973826654" fill="pink" fill-opacity="0.6" stroke="black" stroke-width="1" />
<path d="M15.0,-85.0 L1.64724028024954,-92.36170640784754 L1.4444478324642351,-92.72299973826654" fill="pink" fill-opacity="0.6" stroke="black" stroke-width="1" />
<path d="M1.64724028024954,-7.638293592152461 L1.4444478324642351,-7.277000261733457 L1.1932959421646876,-7.131129551263809" fill="blue" fill-opacity="0.6" stroke="black" stroke-width="1" />
<path d="M1.64724028024954,7.638293592152461 L1.4444478324642351,7.277000261733457 L1.1932959421646876,7.131129551263809" fill="yellow" fill-opacity="0.6" stroke="black" stroke-width="1" />
<path d="M1.64724028024954,92.36170640784754 L1.4444478324642351,92.72299973826654 L1.1932959421646876,92.86887044873619" fill="blue" fill-opacity="0.6" stroke="black" stroke-width="1" />
<path d="M1.64724028024954,-92.36170640784754 L1.4444478324642351,-92.72299973826654 L1.1932959421646876,-92.86887044873619" fill="purple" fill-opacity="0.6" stroke="black" stroke-width="1" />
<path d="M1.4444478324642351,-7.277000261733457 L1.1932959421646876,-7.131129551263809 L1.1871537504105183,-6.924649653833804" fill="red" fill-opacity="0.6" stroke="black" stroke-width="1" />
<path d="M1.4444478324642351,7.277000261733457 L1.1932959421646876,7.131129551263809 L1.1871537504105183,6.924649653833804" fill="blue" fill-opacity="0.6" stroke="black" stroke-width="1" />
<path d="M1.4444478324642351,92.72299973826654 L1.1932959421646876,92.86887044873619 L1.1871537504105183,93.0753503461662" fill="brown" fill-opacity="0.6" stroke="black" stroke-width="1" />
<path d="M1.4444478324642351,-92.72299973826654 L1.1932959421646876,-92.86887044873619 L1.1871537504105183,-93.0753503461662" fill="black" fill-opacity="0.6" stroke="black" stroke-width="1" />
<path d="M1.1932959421646876,-7.131129551263809 L1.1871537504105183,-6.924649653833804 L1.1775548644939113,-2.233591641639415" fill="brown" fill-opacity="0.6" stroke="black" stroke-width="1" />
<path d="M1.1932959421646876,7.131129551263809 L1.1871537504105183,6.924649653833804 L1.1775548644939113,2.233591641639415" fill="green" fill-opacity="0.6" stroke="black" stroke-width="1" />
<path d="M1.1932959421646876,92.86887044873619 L1.1871537504105183,93.0753503461662 L1.1775548644939113,97.7664083583606" fill="green" fill-opacity="0.6" stroke="black" stroke-width="1" />
<path d="M1.1932959421646876,-92.86887044873619 L1.1871537504105183,-93.0753503461662 L1.1775548644939113,-97.7664083583606" fill="brown" fill-opacity="0.6" stroke="black" stroke-width="1" />
<path d="M1.1871537504105183,-6.924649653833804 L1.1775548644939113,-2.233591641639415 L2.0,-2.0" fill="black" fill-opacity="0.6" stroke="black" stroke-width="1" />
<path d="M1.1871537504105183,6.924649653833804 L1.1775548644939113,2.233591641639415 L2.0,2.0" fill="brown" fill-opacity="0.6" stroke="black" stroke-width="1" />
<path d="M1.1871537504105183,93.0753503461662 L1.1775548644939113,97.7664083583606 L2.0,98.0" fill="blue" fill-opacity="0.6" stroke="black" stroke-width="1" />
<path d="M1.1871537504105183,-93.0753503461662 L1.1775548644939113,-97.7664083583606 L2.0,-98.0" fill="purple" fill-opacity="0.6" stroke="black" stroke-width="1" />
<path d="M2.0,-2.0 L0.9765149746296135,-1.8724620681235704 L0.0,-0.0" fill="black" fill-opacity="0.6" stroke="black" stroke-width="1" />
<path d="M2.0,2.0 L0.9765149746296135,1.8724620681235704 L0.0,-0.0" fill="red" fill-opacity="0.6" stroke="black" stroke-width="1" />
<path d="M2.0,98.0 L0.9765149746296135,98.12753793187643 L0.0,100.0" fill="blue" fill-opacity="0.6" stroke="black" stroke-width="1" />
<path d="M2.0,-98.0 L0.9765149746296135,-98.12753793187643 L0.0,-100.0" fill="orange" fill-opacity="0.6" stroke="black" stroke-width="1" />
<path d="M0.0,91.0 L-1.9417513878887565,89.48588301121752 L-2.481229037526664,87.21565647193157" fill="red" fill-opacity="0.6" stroke="black" stroke-width="1" />
<path d="M0.0,-9.0 L-1.9417513878887565,-10.514116988782472 L-2.481229037526664,-12.784343528068437" fill="blue" fill-opacity="0.6" stroke="black" stroke-width="1" />
<path d="M0.0,9.0 L-1.9417513878887565,10.514116988782476 L-2.481229037526664,12.784343528068433" fill="brown" fill-opacity="0.6" stroke="black" stroke-width="1" />
<path d="M0.0,-91.0 L-1.9417513878887565,-89.48588301121752 L-2.481229037526664,-87.21565647193157" fill="orange" fill-opacity="0.6" stroke="black" stroke-width="1" />
<path d="M-1.9417513878887565,89.48588301121752 L-2.481229037526664,87.21565647193157 L-5.610642424732751,82.17522957458132" fill="brown" fill-opacity="0.6" stroke="black" stroke-width="1" />
<path d="M-1.9417513878887565,-10.514116988782472 L-2.481229037526664,-12.784343528068437 L-5.610642424732751,-17.824770425418684" fill="brown" fill-opacity="0.6" stroke="black" stroke-width="1" />
<path d="M-1.9417513878887565,10.514116988782476 L-2.481229037526664,12.784343528068433 L-5.610642424732751,17.824770425418677" fill="brown" fill-opacity="0.6" stroke="black" stroke-width="1" />
<path d="M-1.9417513878887565,-89.48588301121752 L-2.481229037526664,-87.21565647193157 L-5.610642424732751,-82.17522957458132" fill="yellow" fill-opacity="0.6" stroke="black" stroke-width="1" />
<path d="M-2.481229037526664,87.21565647193157 L-5.610642424732751,82.17522957458132 L-6.393051004644707,81.93099138857461" fill="purple" fill-opacity="0.6" stroke="black" stroke-width="1" />
<path d="M-2.481229037526664,-12.784343528068437 L-5.610642424732751,-17.824770425418684 L-6.393051004644707,-18.069008611425385" fill="red" fill-opacity="0.6" stroke="black" stroke-width="1" />
<path d="M-2.481229037526664,12.784343528068433 L-5.610642424732751,17.824770425418677 L-6.393051004644707,18.06900861142539" fill="red" fill-opacity="0.6" stroke="black" stroke-width="1" />
<path d="M-2.481229037526664,-87.21565647193157 L-5.610642424732751,-82.17522957458132 L-6.393051004644707,-81.93099138857461" fill="brown" fill-opacity="0.6" stroke="black" stroke-width="1" />
<path d="M-5.610642424732751,82.17522957458132 L-6.393051004644707,81.93099138857461 L-6.8812557556892955,81.68700200853449" fill="blue" fill-opacity="0.6" stroke="black" stroke-width="1" />
<path d="M-5.610642424732751,-17.824770425418684 L-6.393051004644707,-18.069008611425385 L-6.8812557556892955,-18.31299799146551" fill="green" fill-opacity="0.6" stroke="black" stroke-width="1" />
<path d="M-5.610642424732751,17.824770425418677 L-6.393051004644707,18.06900861142539 L-6.8812557556892955,18.312997991465508" fill="brown" fill-opacity="0.6" stroke="black" stroke-width="1" />
<path d="M-5.610642424732751,-82.17522957458132 L-6.393051004644707,-81.93099138857461 L-6.8812557556892955,-81.68700200853449" fill="orange" fill-opacity="0.6" stroke="black" stroke-width="1" />
<path d="M-6.393051004644707,81.93099138857461 L-6.8812557556892955,81.68700200853449 L0.0,54.0" fill="purple" fill-opacity="0.6" stroke="black" stroke-width="1" />
<path d="M-6.393051004644707,-18.069008611425385 L-6.8812557556892955,-18.31299799146551 L0.0,-46.0" fill="green" fill-opacity="0.6" stroke="black" stroke-width="1" />
<path d="M-6.393051004644707,18.06900861142539 L-6.8812557556892955,18.312997991465508 L0.0,46.0" fill="red" fill-opacity="0.6" stroke="black" stroke-width="1" />
<path d="M-6.393051004644707,-81.93099138857461 L-6.8812557556892955,-81.68700200853449 L0.0,-54.0" fill="yellow" fill-opacity="0.6" stroke="black" stroke-width="1" />
<path d="M-1.0,50.0 L-13.27358055498349,60.24332809715291 L-15.0,50.0" fill="yellow" fill-opacity="0.6" stroke="black" stroke-width="1" />
<path d="M-1.0,-50.0 L-13.27358055498349,-39.75667190284709 L-15.0,-50.0" fill="pink" fill-opacity="0.6" stroke="black" stroke-width="1" />
<path d="M-1.0,50.0 L-13.27358055498349,39.75667190284709 L-15.0,50.0" fill="red" fill-opacity="0.6" stroke="black" stroke-width="1" />
<path d="M-1.0,-50.0 L-13.27358055498349,-60.24332809715291 L-15.0,-50.0" fill="green" fill-opacity="0.6" stroke="black" stroke-width="1" />
<path d="M-15.0,50.0 L-16.167512288974383,53.87848150533742 L-18.01906080698434,53.56549578454029" fill="purple" fill-opacity="0.6" stroke="black" stroke-width="1" />
<path d="M-15.0,-50.0 L-16.167512288974383,-46.12151849466258 L-18.01906080698434,-46.43450421545971" fill="purple" fill-opacity="0.6" stroke="black" stroke-width="1" />
<path d="M-15.0,50.0 L-16.167512288974383,46.12151849466258 L-18.01906080698434,46.43450421545971" fill="purple" fill-opacity="0.6" stroke="black" stroke-width="1" />
<path d="M-15.0,-50.0 L-16.167512288974383,-53.87848150533742 L-18.01906080698434,-53.56549578454029" fill="blue" fill-opacity="0.6" stroke="black" stroke-width="1" />
<path d="M-16.167512288974383,53.87848150533742 L-18.01906080698434,53.56549578454029 L-50.0,50.0" fill="green" fill-opacity="0.6" stroke="black" stroke-width="1" />
<path d="M-16.167512288974383,-46.12151849466258 L-18.01906080698434,-46.43450421545971 L-50.0,-50.0" fill="blue" fill-opacity="0.6" stroke="black" stroke-width="1" />
<path d="M-16.167512288974383,46.12151849466258 L-18.01906080698434,46.43450421545971 L-50.0,50.0" fill="blue" fill-opacity="0.6" stroke="black" stroke-width="1" />
<path d="M-16.167512288974383,-53.87848150533742 L-18.01906080698434,-53.56549578454029 L-50.0,-50.0" fill="red" fill-opacity="0.6" stroke="black" stroke-width="1" />
<path d="M-15.0,85.0 L-1.64724028024954,92.36170640784754 L-1.4444478324642351,92.72299973826654" fill="orange" fill-opacity="0.6" stroke="black" stroke-width="1" />
<path d="M-15.0,-15.0 L-1.64724028024954,-7.638293592152461 L-1.4444478324642351,-7.277000261733457" fill="black" fill-opacity="0.6" stroke="black" stroke-width="1" />
<path d="M-15.0,15.0 L-1.64724028024954,7.638293592152465 L-1.4444478324642351,7.277000261733463" fill="orange" fill-opacity="0.6" stroke="black" stroke-width="1" />
<path d="M-15.0,-85.0 L-1.64724028024954,-92.36170640784754 L-1.4444478324642351,-92.72299973826654" fill="blue" fill-opacity="0.6" stroke="black" stroke-width="1" />
<path d="M-1.64724028024954,92.36170640784754 L-1.4444478324642351,92.72299973826654 L-1.1932959421646876,92.86887044873619" fill="purple" fill-opacity="0.6" stroke="black" stroke-width="1" />
<path d="M-1.64724028024954,-7.638293592152461 L-1.4444478324642351,-7.277000261733457 L-1.1932959421646876,-7.131129551263809" fill="orange" fill-opacity="0.6" stroke="black" stroke-width="1" />
<path d="M-1.64724028024954,7.638293592152465 L-1.4444478324642351,7.277000261733463 L-1.1932959421646876,7.131129551263811" fill="yellow" fill-opacity="0.6" stroke="black" stroke-width="1" />
<path d="M-1.64724028024954,-92.36170640784754 L-1.4444478324642351,-92.72299973826654 L-1.1932959421646876,-92.86887044873619" fill="purple" fill-opacity="0.6" stroke="black" stroke-width="1" />
<path d="M-1.4444478324642351,92.72299973826654 L-1.1932959421646876,92.86887044873619 L-1.1871537504105183,93.0753503461662" fill="orange" fill-opacity="0.6" stroke="black" stroke-width="1" />
<path d="M-1.4444478324642351,-7.277000261733457 L-1.1932959421646876,-7.131129551263809 L-1.1871537504105183,-6.924649653833804" fill="purple" fill-opacity="0.6" stroke="black" stroke-width="1" />
<path d="M-1.4444478324642351,7.277000261733463 L-1.1932959421646876,7.131129551263811 L-1.1871537504105183,6.9246496538337965" fill="blue" fill-opacity="0.6" stroke="black" stroke-width="1" />
<path d="M-1.4444478324642351,-92.72299973826654 L-1.1932959421646876,-92.86887044873619 L-1.1871537504105183,-93.0753503461662" fill="green" fill-opacity="0.6" stroke="black" stroke-width="1" />
<path d="M-1.1932959421646876,92.86887044873619 L-1.1871537504105183,93.0753503461662 L-1.1775548644939113,97.76640835836058" fill="green" fill-opacity="0.6" stroke="black" stroke-width="1" />
<path d="M-1.1932959421646876,-7.131129551263809 L-1.1871537504105183,-6.924649653833804 L-1.1775548644939113,-2.233591641639415" fill="red" fill-opacity="0.6" stroke="black" stroke-width="1" />
<path d="M-1.1932959421646876,7.131129551263811 L-1.1871537504105183,6.9246496538337965 L-1.1775548644939113,2.2335916416394213" fill="yellow" fill-opacity="0.6" stroke="black" stroke-width="1" />
<path d="M-1.1932959421646876,-92.86887044873619 L-1.1871537504105183,-93.0753503461662 L-1.1775548644939113,-97.7664083583606" fill="red" fill-opacity="0.6" stroke="black" stroke-width="1" />
<path d="M-1.1871537504105183,93.0753503461662 L-1.1775548644939113,97.76640835836058 L-2.0,98.0" fill="brown" fill-opacity="0.6" stroke="black" stroke-width="1" />
<path d="M-1.1871537504105183,-6.924649653833804 L-1.1775548644939113,-2.233591641639415 L-2.0,-2.0" fill="black" fill-opacity="0.6" stroke="black" stroke-width="1" />
<path d="M-1.1871537504105183,6.9246496538337965 L-1.1775548644939113,2.2335916416394213 L-2.0,2.0" fill="red" fill-opacity="0.6" stroke="black" stroke-width="1" />
<path d="M-1.1871537504105183,-93.0753503461662 L-1.1775548644939113,-97.7664083583606 L-2.0,-98.0" fill="pink" fill-opacity="0.6" stroke="black" stroke-width="1" />
<path d="M-2.0,98.0 L-0.9765149746296135,98.12753793187643 L0.0,100.0" fill="brown" fill-opacity="0.6" stroke="black" stroke-width="1" />
<path d="M-2.0,-2.0 L-0.9765149746296135,-1.8724620681235704 L0.0,-0.0" fill="pink" fill-opacity="0.6" stroke="black" stroke-width="1" />
<path d="M-2.0,2.0 L-0.9765149746296135,1.8724620681235677 L0.0,-0.0" fill="black" fill-opacity="0.6" stroke="black" stroke-width="1" />
<path d="M-2.0,-98.0 L-0.9765149746296135,-98.12753793187643 L0.0,-100.0" fill="green" fill-opacity="0.6" stroke="black" stroke-width="1" />
<path d="M-91.0,-0.0 L-89.48588301121752,-1.9417513878887565 L-87.21565647193157,-2.481229037526664" fill="black" fill-opacity="0.6" stroke="black" stroke-width="1" />
<path d="M-91.0,-0.0 L-89.48588301121752,1.9417513878887565 L-87.21565647193157,2.481229037526664" fill="yellow" fill-opacity="0.6" stroke="black" stroke-width="1" />
<path d="M-89.48588301121752,-1.9417513878887565 L-87.21565647193157,-2.481229037526664 L-82.17522957458132,-5.610642424732751" fill="red" fill-opacity="0.6" stroke="black" stroke-width="1" />
<path d="M-89.48588301121752,1.9417513878887565 L-87.21565647193157,2.481229037526664 L-82.17522957458132,5.610642424732751" fill="purple" fill-opacity="0.6" stroke="black" stroke-width="1" />
<path d="M-87.21565647193157,-2.481229037526664 L-82.17522957458132,-5.610642424732751 L-81.93099138857461,-6.393051004644707" fill="green" fill-opacity="0.6" stroke="black" stroke-width="1" />
<path d="M-87.21565647193157,2.481229037526664 L-82.17522957458132,5.610642424732751 L-81.93099138857461,6.393051004644707" fill="yellow" fill-opacity="0.6" stroke="black" stroke-width="1" />
<path d="M-82.17522957458132,-5.610642424732751 L-81.93099138857461,-6.393051004644707 L-81.68700200853449,-6.8812557556892955" fill="blue" fill-opacity="0.6" stroke="black" stroke-width="1" />
<path d="M-82.17522957458132,5.610642424732751 L-81.93099138857461,6.393051004644707 L-81.68700200853449,6.8812557556892955" fill="pink" fill-opacity="0.6" stroke="black" stroke-width="1" />
<path d="M-81.93099138857461,-6.393051004644707 L-81.68700200853449,-6.8812557556892955 L-54.0,-0.0" fill="purple" fill-opacity="0.6" stroke="black" stroke-width="1" />
<path d="M-81.93099138857461,6.393051004644707 L-81.68700200853449,6.8812557556892955 L-54.0,-0.0" fill="orange" fill-opacity="0.6" stroke="black" stroke-width="1" />
<path d="M-50.0,-1.0 L-60.24332809715291,-13.27358055498349 L-50.0,-15.0" fill="red" fill-opacity="0.6" stroke="black" stroke-width="1" />
<path d="M-50.0,1.0 L-60.24332809715291,13.27358055498349 L-50.0,15.0" fill="yellow" fill-opacity="0.6" stroke="black" stroke-width="1" />
<path d="M-50.0,-15.0 L-53.87848150533742,-16.167512288974383 L-53.56549578454029,-18.01906080698434" fill="orange" fill-opacity="0.6" stroke="black" stroke-width="1" />
<path d="M-50.0,15.0 L-53.87848150533742,16.167512288974383 L-53.56549578454029,18.01906080698434" fill="pink" fill-opacity="0.6" stroke="black" stroke-width="1" />
<path d="M-53.87848150533742,-16.167512288974383 L-53.56549578454029,-18.01906080698434 L-50.0,-50.0" fill="pink" fill-opacity="0.6" stroke="black" stroke-width="1" />
<path d="M-53.87848150533742,16.167512288974383 L-53.56549578454029,18.01906080698434 L-50.0,50.0" fill="yellow" fill-opacity="0.6" stroke="black" stroke-width="1" />
<path d="M-50.0,-50.0 L-84.0,-16.0 L-85.0,-15.0" fill="pink" fill-opacity="0.6" stroke="black" stroke-width="1" />
<path d="M-50.0,50.0 L-84.0,16.0 L-85.0,15.0" fill="pink" fill-opacity="0.6" stroke="black" stroke-width="1" />
<path d="M-84.0,-16.0 L-85.0,-15.0 L-92.36170640784754,-1.64724028024954" fill="blue" fill-opacity="0.6" stroke="black" stroke-width="1" />
<path d="M-84.0,16.0 L-85.0,15.0 L-92.36170640784754,1.64724028024954" fill="blue" fill-opacity="0.6" stroke="black" stroke-width="1" />
<path d="M-85.0,-15.0 L-92.36170640784754,-1.64724028024954 L-92.72299973826654,-1.4444478324642351" fill="purple" fill-opacity="0.6" stroke="black" stroke-width="1" />
<path d="M-85.0,15.0 L-92.36170640784754,1.64724028024954 L-92.72299973826654,1.4444478324642351" fill="purple" fill-opacity="0.6" stroke="black" stroke-width="1" />
<path d="M-92.36170640784754,-1.64724028024954 L-92.72299973826654,-1.4444478324642351 L-92.86887044873619,-1.1932959421646876" fill="blue" fill-opacity="0.6" stroke="black" stroke-width="1" />
<path d="M-92.36170640784754,1.64724028024954 L-92.72299973826654,1.4444478324642351 L-92.86887044873619,1.1932959421646876" fill="purple" fill-opacity="0.6" stroke="black" stroke-width="1" />
<path d="M-92.72299973826654,-1.4444478324642351 L-92.86887044873619,-1.1932959421646876 L-93.0753503461662,-1.1871537504105183" fill="purple" fill-opacity="0.6" stroke="black" stroke-width="1" />
<path d="M-92.72299973826654,1.4444478324642351 L-92.86887044873619,1.1932959421646876 L-93.0753503461662,1.1871537504105183" fill="brown" fill-opacity="0.6" stroke="black" stroke-width="1" />
<path d="M-92.86887044873619,-1.1932959421646876 L-93.0753503461662,-1.1871537504105183 L-97.7664083583606,-1.1775548644939113" fill="orange" fill-opacity="0.6" stroke="black" stroke-width="1" />
<path d="M-92.86887044873619,1.1932959421646876 L-93.0753503461662,1.1871537504105183 L-97.7664083583606,1.1775548644939113" fill="pink" fill-opacity="0.6" stroke="black" stroke-width="1" />
<path d="M-93.0753503461662,-1.1871537504105183 L-97.7664083583606,-1.1775548644939113 L-98.0,-2.0" fill="yellow" fill-opacity="0.6" stroke="black" stroke-width="1" />
<path d="M-93.0753503461662,1.1871537504105183 L-97.7664083583606,1.1775548644939113 L-98.0,2.0" fill="yellow" fill-opacity="0.6" stroke="black" stroke-width="1" />
<path d="M-97.7664083583606,-1.1775548644939113 L-98.0,-2.0 L-98.12753793187643,-0.9765149746296135" fill="orange" fill-opacity="0.6" stroke="black" stroke-width="1" />
<path d="M-97.7664083583606,1.1775548644939113 L-98.0,2.0 L-98.12753793187643,0.9765149746296135" fill="pink" fill-opacity="0.6" stroke="black" stroke-width="1" />
<path d="M-98.0,-2.0 L-98.12753793187643,-0.9765149746296135 L-100.0,-0.0" fill="blue" fill-opacity="0.6" stroke="black" stroke-width="1" />
<path d="M-98.0,2.0 L-98.12753793187643,0.9765149746296135 L-100.0,-0.0" fill="green" fill-opacity="0.6" stroke="black" stroke-width="1" />
</svg>