<?xml version="1.0" encoding="UTF-8"?>
<svg xmlns="http://www.w3.org/2000/svg" xmlns:xlink="http://www.w3.org/1999/xlink"
     width="250" height="250" viewBox="-125.0 -125.0 250 250">
<defs>
</defs>
<path d="M0.0,-0.0 L14.27963515937476,-4.194309753599 L18.0,-0.0" fill-opacity="0" stroke="black" stroke-width="1" />
<path d="M0.0,-0.0 L14.27963515937476,4.194309753599 L18.0,-0.0" fill-opacity="0" stroke="black" stroke-width="1" />
<path d="M18.0,-0.0 L26.104590356945153,-4.304002459932802 L33.36993343872907,-5.5259633251061615" fill-opacity="0" stroke="black" stroke-width="1" />
<path d="M18.0,-0.0 L26.104590356945153,4.304002459932802 L33.36993343872907,5.5259633251061615" fill-opacity="0" stroke="black" stroke-width="1" />
<path d="M26.104590356945153,-4.304002459932802 L33.36993343872907,-5.5259633251061615 L41.0,-0.0" fill-opacity="0" stroke="black" stroke-width="1" />
<path d="M26.104590356945153,4.304002459932802 L33.36993343872907,5.5259633251061615 L41.0,-0.0" fill-opacity="0" stroke="black" stroke-width="1" />
<path d="M50.0,50.0 L36.0,64.0 L30.392393797999244,64.2136915534501" fill-opacity="0" stroke="black" stroke-width="1" />
<path d="M50.0,-50.0 L36.0,-64.0 L30.392393797999244,-64.2136915534501" fill-opacity="0" stroke="black" stroke-width="1" />
<path d="M36.0,-36.0 L35.7863084465499,-30.392393797999244 L32.0,-32.0" fill-opacity="0" stroke="black" stroke-width="1" />
<path d="M36.0,36.0 L35.7863084465499,30.392393797999244 L32.0,32.0" fill-opacity="0" stroke="black" stroke-width="1" />
<path d="M30.392393797999244,64.2136915534501 L32.0,68.0 L31.0,69.0" fill-opacity="0" stroke="black" stroke-width="1" />
<path d="M30.392393797999244,-64.2136915534501 L32.0,-68.0 L31.0,-69.0" fill-opacity="0" stroke="black" stroke-width="1" />
<path d="M32.0,68.0 L31.0,69.0 L15.0,85.0" fill-opacity="0" stroke="black" stroke-width="1" />
<path d="M32.0,-68.0 L31.0,-69.0 L15.0,-85.0" fill-opacity="0" stroke="black" stroke-width="1" />
<path d="M31.0,69.0 L15.0,85.0 L3.264172623247054,88.76792131512329" fill-opacity="0" stroke="black" stroke-width="1" />
<path d="M31.0,-69.0 L15.0,-85.0 L3.264172623247054,-88.76792131512329" fill-opacity="0" stroke="black" stroke-width="1" />
<path d="M15.0,-15.0 L11.232078684876718,-3.264172623247054 L10.29730106153544,-2.9900974005287533" fill-opacity="0" stroke="black" stroke-width="1" />
<path d="M15.0,15.0 L11.232078684876718,3.264172623247054 L10.29730106153544,2.9900974005287533" fill-opacity="0" stroke="black" stroke-width="1" />
<path d="M11.232078684876718,-3.264172623247054 L10.29730106153544,-2.9900974005287533 L5.531355629879086,-1.5444561517665472" fill-opacity="0" stroke="black" stroke-width="1" />
<path d="M11.232078684876718,3.264172623247054 L10.29730106153544,2.9900974005287533 L5.531355629879086,1.5444561517665472" fill-opacity="0" stroke="black" stroke-width="1" />
<path d="M10.29730106153544,-2.9900974005287533 L5.531355629879086,-1.5444561517665472 L4.9050991619695505,-1.003429728376712" fill-opacity="0" stroke="black" stroke-width="1" />
<path d="M10.29730106153544,2.9900974005287533 L5.531355629879086,1.5444561517665472 L4.9050991619695505,1.003429728376712" fill-opacity="0" stroke="black" stroke-width="1" />
<path d="M5.531355629879086,-1.5444561517665472 L4.9050991619695505,-1.003429728376712 L4.883016074020025,-0.814940765596462" fill-opacity="0" stroke="black" stroke-width="1" />
<path d="M5.531355629879086,1.5444561517665472 L4.9050991619695505,1.003429728376712 L4.883016074020025,0.814940765596462" fill-opacity="0" stroke="black" stroke-width="1" />
<path d="M4.9050991619695505,-1.003429728376712 L4.883016074020025,-0.814940765596462 L3.286363917605828,-0.5933372060582198" fill-opacity="0" stroke="black" stroke-width="1" />
<path d="M4.9050991619695505,1.003429728376712 L4.883016074020025,0.814940765596462 L3.286363917605828,0.5933372060582198" fill-opacity="0" stroke="black" stroke-width="1" />
<path d="M4.883016074020025,-0.814940765596462 L3.286363917605828,-0.5933372060582198 L0.9711151861694356,-0.5077078394986057" fill-opacity="0" stroke="black" stroke-width="1" />
<path d="M4.883016074020025,0.814940765596462 L3.286363917605828,0.5933372060582198 L0.9711151861694356,0.5077078394986057" fill-opacity="0" stroke="black" stroke-width="1" />
<path d="M3.286363917605828,-0.5933372060582198 L0.9711151861694356,-0.5077078394986057 L0.0,-0.0" fill-opacity="0" stroke="black" stroke-width="1" />
<path d="M3.286363917605828,0.5933372060582198 L0.9711151861694356,0.5077078394986057 L0.0,-0.0" fill-opacity="0" stroke="black" stroke-width="1" />
<path d="M0.0,-0.0 L-14.27963515937476,-4.194309753599 L-18.0,-0.0" fill-opacity="0" stroke="black" stroke-width="1" />
<path d="M0.0,-0.0 L-14.27963515937476,4.194309753599 L-18.0,-0.0" fill-opacity="0" stroke="black" stroke-width="1" />
<path d="M-18.0,-0.0 L-26.104590356945153,-4.304002459932802 L-33.36993343872907,-5.5259633251061615" fill-opacity="0" stroke="black" stroke-width="1" />
<path d="M-18.0,-0.0 L-26.104590356945153,4.304002459932802 L-33.36993343872907,5.5259633251061615" fill-opacity="0" stroke="black" stroke-width="1" />
<path d="M-26.104590356945153,-4.304002459932802 L-33.36993343872907,-5.5259633251061615 L-41.0,-0.0" fill-opacity="0" stroke="black" stroke-width="1" />
<path d="M-26.104590356945153,4.304002459932802 L-33.36993343872907,5.5259633251061615 L-41.0,-0.0" fill-opacity="0" stroke="black" stroke-width="1" />
<path d="M-50.0,50.0 L-36.0,64.0 L-30.392393797999244,64.2136915534501" fill-opacity="0" stroke="black" stroke-width="1" />
<path d="M-50.0,-50.0 L-36.0,-64.0 L-30.392393797999244,-64.2136915534501" fill-opacity="0" stroke="black" stroke-width="1" />
<path d="M-36.0,-36.0 L-35.7863084465499,-30.392393797999244 L-32.0,-32.0" fill-opacity="0" stroke="black" stroke-width="1" />
<path d="M-36.0,36.0 L-35.7863084465499,30.392393797999244 L-32.0,32.0" fill-opacity="0" stroke="black" stroke-width="1" />
<path d="M-30.392393797999244,64.2136915534501 L-32.0,68.0 L-31.0,69.0" fill-opacity="0" stroke="black" stroke-width="1" />
<path d="M-30.392393797999244,-64.2136915534501 L-32.0,-68.0 L-31.0,-69.0" fill-opacity="0" stroke="black" stroke-width="1" />
<path d="M-32.0,68.0 L-31.0,69.0 L-15.0,85.0" fill-opacity="0" stroke="black" stroke-width="1" />
<path d="M-32.0,-68.0 L-31.0,-69.0 L-15.0,-85.0" fill-opacity="0" stroke="black" stroke-width="1" />
<path d="M-31.0,69.0 L-15.0,85.0 L-3.264172623247054,88.76792131512329" fill-opacity="0" stroke="black" stroke-width="1" />
<path d="M-31.0,-69.0 L-15.0,-85.0 L-3.264172623247054,-88.76792131512329" fill-opacity="0" stroke="black" stroke-width="1" />
<path d="M-15.0,-15.0 L-11.232078684876718,-3.264172623247054 L-10.29730106153544,-2.9900974005287533" fill-opacity="0" stroke="black" stroke-width="1" />
<path d="M-15.0,15.0 L-11.232078684876718,3.264172623247054 L-10.29730106153544,2.9900974005287533" fill-opacity="0" stroke="black" stroke-width="1" />
<path d="M-11.232078684876718,-3.264172623247054 L-10.29730106153544,-2.9900974005287533 L-5.531355629879086,-1.5444561517665472" fill-opacity="0" stroke="black" stroke-width="1" />
<path d="M-11.232078684876718,3.264172623247054 L-10.29730106153544,2.9900974005287533 L-5.531355629879086,1.5444561517665472" fill-opacity="0" stroke="black" stroke-width="1" />
<path d="M-10.29730106153544,-2.9900974005287533 L-5.531355629879086,-1.5444561517665472 L-4.9050991619695505,-1.003429728376712" fill-opacity="0" stroke="black" stroke-width="1" />
<path d="M-10.29730106153544,2.9900974005287533 L-5.531355629879086,1.5444561517665472 L-4.9050991619695505,1.003429728376712" fill-opacity="0" stroke="black" stroke-width="1" />
<path d="M-5.531355629879086,-1.5444561517665472 L-4.9050991619695505,-1.003429728376712 L-4.883016074020025,-0.814940765596462" fill-opacity="0" stroke="black" stroke-width="1" />
<path d="M-5.531355629879086,1.5444561517665472 L-4.9050991619695505,1.003429728376712 L-4.883016074020025,0.814940765596462" fill-opacity="0" stroke="black" stroke-width="1" />
<path d="M-4.9050991619695505,-1.003429728376712 L-4.883016074020025,-0.814940765596462 L-3.286363917605828,-0.5933372060582198" fill-opacity="0" stroke="black" stroke-width="1" />
<path d="M-4.9050991619695505,1.003429728376712 L-4.883016074020025,0.814940765596462 L-3.286363917605828,0.5933372060582198" fill-opacity="0" stroke="black" stroke-width="1" />
<path d="M-4.883016074020025,-0.814940765596462 L-3.286363917605828,-0.5933372060582198 L-0.9711151861694356,-0.5077078394986057" fill-opacity="0" stroke="black" stroke-width="1" />
<path d="M-4.883016074020025,0.814940765596462 L-3.286363917605828,0.5933372060582198 L-0.9711151861694356,0.5077078394986057" fill-opacity="0" stroke="black" stroke-width="1" />
<path d="M-3.286363917605828,-0.5933372060582198 L-0.9711151861694356,-0.5077078394986057 L0.0,-0.0" fill-opacity="0" stroke="black" stroke-width="1" />
<path d="M-3.286363917605828,0.5933372060582198 L-0.9711151861694356,0.5077078394986057 L0.0,-0.0" fill-opacity="0" stroke="black" stroke-width="1" />
<path d="M100.0,-0.0 L85.72036484062524,4.194309753599 L82.0,-0.0" fill-opacity="0" stroke="black" stroke-width="1" />
<path d="M100.0,-0.0 L85.72036484062524,-4.194309753599 L82.0,-0.0" fill-opacity="0" stroke="black" stroke-width="1" />
<path d="M82.0,-0.0 L73.89540964305485,4.304002459932802 L66.63006656127092,5.5259633251061615" fill-opacity="0" stroke="black" stroke-width="1" />
<path d="M82.0,-0.0 L73.89540964305485,-4.304002459932802 L66.63006656127092,-5.5259633251061615" fill-opacity="0" stroke="black" stroke-width="1" />
<path d="M73.89540964305485,4.304002459932802 L66.63006656127092,5.5259633251061615 L59.0,-0.0" fill-opacity="0" stroke="black" stroke-width="1" />
<path d="M73.89540964305485,-4.304002459932802 L66.63006656127092,-5.5259633251061615 L59.0,-0.0" fill-opacity="0" stroke="black" stroke-width="1" />
<path d="M50.0,50.0 L64.0,36.0 L64.2136915534501,30.392393797999244" fill-opacity="0" stroke="black" stroke-width="1" />
<path d="M50.0,-50.0 L64.0,-36.0 L64.2136915534501,-30.392393797999244" fill-opacity="0" stroke="black" stroke-width="1" />
<path d="M64.0,36.0 L64.2136915534501,30.392393797999244 L68.0,32.0" fill-opacity="0" stroke="black" stroke-width="1" />
<path d="M64.0,-36.0 L64.2136915534501,-30.392393797999244 L68.0,-32.0" fill-opacity="0" stroke="black" stroke-width="1" />
<path d="M64.2136915534501,30.392393797999244 L68.0,32.0 L69.0,31.0" fill-opacity="0" stroke="black" stroke-width="1" />
<path d="M64.2136915534501,-30.392393797999244 L68.0,-32.0 L69.0,-31.0" fill-opacity="0" stroke="black" stroke-width="1" />
<path d="M68.0,32.0 L69.0,31.0 L85.0,15.0" fill-opacity="0" stroke="black" stroke-width="1" />
<path d="M68.0,-32.0 L69.0,-31.0 L85.0,-15.0" fill-opacity="0" stroke="black" stroke-width="1" />
<path d="M69.0,31.0 L85.0,15.0 L88.76792131512329,3.264172623247054" fill-opacity="0" stroke="black" stroke-width="1" />
<path d="M69.0,-31.0 L85.0,-15.0 L88.76792131512329,-3.264172623247054" fill-opacity="0" stroke="black" stroke-width="1" />
<path d="M85.0,15.0 L88.76792131512329,3.264172623247054 L89.70269893846455,2.9900974005287533" fill-opacity="0" stroke="black" stroke-width="1" />
<path d="M85.0,-15.0 L88.76792131512329,-3.264172623247054 L89.70269893846455,-2.9900974005287533" fill-opacity="0" stroke="black" stroke-width="1" />
<path d="M88.76792131512329,3.264172623247054 L89.70269893846455,2.9900974005287533 L94.46864437012091,1.5444561517665472" fill-opacity="0" stroke="black" stroke-width="1" />
<path d="M88.76792131512329,-3.264172623247054 L89.70269893846455,-2.9900974005287533 L94.46864437012091,-1.5444561517665472" fill-opacity="0" stroke="black" stroke-width="1" />
<path d="M89.70269893846455,2.9900974005287533 L94.46864437012091,1.5444561517665472 L95.09490083803044,1.003429728376712" fill-opacity="0" stroke="black" stroke-width="1" />
<path d="M89.70269893846455,-2.9900974005287533 L94.46864437012091,-1.5444561517665472 L95.09490083803044,-1.003429728376712" fill-opacity="0" stroke="black" stroke-width="1" />
<path d="M94.46864437012091,1.5444561517665472 L95.09490083803044,1.003429728376712 L95.11698392597998,0.814940765596462" fill-opacity="0" stroke="black" stroke-width="1" />
<path d="M94.46864437012091,-1.5444561517665472 L95.09490083803044,-1.003429728376712 L95.11698392597998,-0.814940765596462" fill-opacity="0" stroke="black" stroke-width="1" />
<path d="M95.09490083803044,1.003429728376712 L95.11698392597998,0.814940765596462 L96.71363608239417,0.5933372060582198" fill-opacity="0" stroke="black" stroke-width="1" />
<path d="M95.09490083803044,-1.003429728376712 L95.11698392597998,-0.814940765596462 L96.71363608239417,-0.5933372060582198" fill-opacity="0" stroke="black" stroke-width="1" />
<path d="M95.11698392597998,0.814940765596462 L96.71363608239417,0.5933372060582198 L99.02888481383056,0.5077078394986057" fill-opacity="0" stroke="black" stroke-width="1" />
<path d="M95.11698392597998,-0.814940765596462 L96.71363608239417,-0.5933372060582198 L99.02888481383056,-0.5077078394986057" fill-opacity="0" stroke="black" stroke-width="1" />
<path d="M96.71363608239417,0.5933372060582198 L99.02888481383056,0.5077078394986057 L100.0,-0.0" fill-opacity="0" stroke="black" stroke-width="1" />
<path d="M96.71363608239417,-0.5933372060582198 L99.02888481383056,-0.5077078394986057 L100.0,-0.0" fill-opacity="0" stroke="black" stroke-width="1" />
<path d="M0.0,-0.0 L4.194309753599,-14.27963515937476 L0.0,-18.0" fill-opacity="0" stroke="black" stroke-width="1" />
<path d="M0.0,-0.0 L4.194309753599,14.27963515937476 L0.0,18.0" fill-opacity="0" stroke="black" stroke-width="1" />
<path d="M0.0,100.0 L4.194309753599,85.72036484062524 L0.0,82.0" fill-opacity="0" stroke="black" stroke-width="1" />
<path d="M0.0,-100.0 L4.194309753599,-85.72036484062524 L0.0,-82.0" fill-opacity="0" stroke="black" stroke-width="1" />
<path d="M0.0,-18.0 L4.304002459932802,-26.104590356945153 L5.5259633251061615,-33.36993343872907" fill-opacity="0" stroke="black" stroke-width="1" />
<path d="M0.0,18.0 L4.304002459932802,26.104590356945153 L5.5259633251061615,33.36993343872907" fill-opacity="0" stroke="black" stroke-width="1" />
<path d="M0.0,82.0 L4.304002459932802,73.89540964305485 L5.5259633251061615,66.63006656127092" fill-opacity="0" stroke="black" stroke-width="1" />
<path d="M0.0,-82.0 L4.304002459932802,-73.89540964305485 L5.5259633251061615,-66.63006656127092" fill-opacity="0" stroke="black" stroke-width="1" />
<path d="M4.304002459932802,-26.104590356945153 L5.5259633251061615,-33.36993343872907 L0.0,-41.0" fill-opacity="0" stroke="black" stroke-width="1" />
<path d="M4.304002459932802,26.104590356945153 L5.5259633251061615,33.36993343872907 L0.0,41.0" fill-opacity="0" stroke="black" stroke-width="1" />
<path d="M4.304002459932802,73.89540964305485 L5.5259633251061615,66.63006656127092 L0.0,59.0" fill-opacity="0" stroke="black" stroke-width="1" />
<path d="M4.304002459932802,-73.89540964305485 L5.5259633251061615,-66.63006656127092 L0.0,-59.0" fill-opacity="0" stroke="black" stroke-width="1" />
<path d="M36.0,-36.0 L30.392393797999244,-35.7863084465499 L32.0,-32.0" fill-opacity="0" stroke="black" stroke-width="1" />
<path d="M36.0,36.0 L30.392393797999244,35.7863084465499 L32.0,32.0" fill-opacity="0" stroke="black" stroke-width="1" />
<path d="M36.0,64.0 L30.392393797999244,64.2136915534501 L32.0,68.0" fill-opacity="0" stroke="black" stroke-width="1" />
<path d="M36.0,-64.0 L30.392393797999244,-64.2136915534501 L32.0,-68.0" fill-opacity="0" stroke="black" stroke-width="1" />
<path d="M15.0,-15.0 L3.264172623247054,-11.232078684876718 L2.9900974005287533,-10.29730106153544" fill-opacity="0" stroke="black" stroke-width="1" />
<path d="M15.0,15.0 L3.264172623247054,11.232078684876718 L2.9900974005287533,10.29730106153544" fill-opacity="0" stroke="black" stroke-width="1" />
<path d="M15.0,85.0 L3.264172623247054,88.76792131512329 L2.9900974005287533,89.70269893846455" fill-opacity="0" stroke="black" stroke-width="1" />
<path d="M15.0,-85.0 L3.264172623247054,-88.76792131512329 L2.9900974005287533,-89.70269893846455" fill-opacity="0" stroke="black" stroke-width="1" />
<path d="M3.264172623247054,-11.232078684876718 L2.9900974005287533,-10.29730106153544 L1.5444561517665472,-5.531355629879086" fill-opacity="0" stroke="black" stroke-width="1" />
<path d="M3.264172623247054,11.232078684876718 L2.9900974005287533,10.29730106153544 L1.5444561517665472,5.531355629879086" fill-opacity="0" stroke="black" stroke-width="1" />
<path d="M3.264172623247054,88.76792131512329 L2.9900974005287533,89.70269893846455 L1.5444561517665472,94.46864437012091" fill-opacity="0" stroke="black" stroke-width="1" />
<path d="M3.264172623247054,-88.76792131512329 L2.9900974005287533,-89.70269893846455 L1.5444561517665472,-94.46864437012091" fill-opacity="0" stroke="black" stroke-width="1" />
<path d="M2.9900974005287533,-10.29730106153544 L1.5444561517665472,-5.531355629879086 L1.003429728376712,-4.9050991619695505" fill-opacity="0" stroke="black" stroke-width="1" />
<path d="M2.9900974005287533,10.29730106153544 L1.5444561517665472,5.531355629879086 L1.003429728376712,4.9050991619695505" fill-opacity="0" stroke="black" stroke-width="1" />
<path d="M2.9900974005287533,89.70269893846455 L1.5444561517665472,94.46864437012091 L1.003429728376712,95.09490083803044" fill-opacity="0" stroke="black" stroke-width="1" />
<path d="M2.9900974005287533,-89.70269893846455 L1.5444561517665472,-94.46864437012091 L1.003429728376712,-95.09490083803044" fill-opacity="0" stroke="black" stroke-width="1" />
<path d="M1.5444561517665472,-5.531355629879086 L1.003429728376712,-4.9050991619695505 L0.814940765596462,-4.883016074020025" fill-opacity="0" stroke="black" stroke-width="1" />
<path d="M1.5444561517665472,5.531355629879086 L1.003429728376712,4.9050991619695505 L0.814940765596462,4.883016074020025" fill-opacity="0" stroke="black" stroke-width="1" />
<path d="M1.5444561517665472,94.46864437012091 L1.003429728376712,95.09490083803044 L0.814940765596462,95.11698392597998" fill-opacity="0" stroke="black" stroke-width="1" />
<path d="M1.5444561517665472,-94.46864437012091 L1.003429728376712,-95.09490083803044 L0.814940765596462,-95.11698392597998" fill-opacity="0" stroke="black" stroke-width="1" />
<path d="M1.003429728376712,-4.9050991619695505 L0.814940765596462,-4.883016074020025 L0.5933372060582198,-3.286363917605828" fill-opacity="0" stroke="black" stroke-width="1" />
<path d="M1.003429728376712,4.9050991619695505 L0.814940765596462,4.883016074020025 L0.5933372060582198,3.286363917605828" fill-opacity="0" stroke="black" stroke-width="1" />
<path d="M1.003429728376712,95.09490083803044 L0.814940765596462,95.11698392597998 L0.5933372060582198,96.71363608239417" fill-opacity="0" stroke="black" stroke-width="1" />
<path d="M1.003429728376712,-95.09490083803044 L0.814940765596462,-95.11698392597998 L0.5933372060582198,-96.71363608239417" fill-opacity="0" stroke="black" stroke-width="1" />
<path d="M0.814940765596462,-4.883016074020025 L0.5933372060582198,-3.286363917605828 L0.5077078394986057,-0.9711151861694356" fill-opacity="0" stroke="black" stroke-width="1" />
<path d="M0.814940765596462,4.883016074020025 L0.5933372060582198,3.286363917605828 L0.5077078394986057,0.9711151861694356" fill-opacity="0" stroke="black" stroke-width="1" />
<path d="M0.814940765596462,95.11698392597998 L0.5933372060582198,96.71363608239417 L0.5077078394986057,99.02888481383056" fill-opacity="0" stroke="black" stroke-width="1" />
<path d="M0.814940765596462,-95.11698392597998 L0.5933372060582198,-96.71363608239417 L0.5077078394986057,-99.02888481383056" fill-opacity="0" stroke="black" stroke-width="1" />
<path d="M0.5933372060582198,-3.286363917605828 L0.5077078394986057,-0.9711151861694356 L0.0,-0.0" fill-opacity="0" stroke="black" stroke-width="1" />
<path d="M0.5933372060582198,3.286363917605828 L0.5077078394986057,0.9711151861694356 L0.0,-0.0" fill-opacity="0" stroke="black" stroke-width="1" />
<path d="M0.5933372060582198,96.71363608239417 L0.5077078394986057,99.02888481383056 L0.0,100.0" fill-opacity="0" stroke="black" stroke-width="1" />
<path d="M0.5933372060582198,-96.71363608239417 L0.5077078394986057,-99.02888481383056 L0.0,-100.0" fill-opacity="0" stroke="black" stroke-width="1" />
<path d="M0.0,100.0 L-4.194309753599,85.72036484062524 L0.0,82.0" fill-opacity="0" stroke="black" stroke-width="1" />
<path d="M0.0,-0.0 L-4.194309753599,-14.27963515937476 L0.0,-18.0" fill-opacity="0" stroke="black" stroke-width="1" />
<path d="M0.0,-0.0 L-4.194309753599,14.279635159374763 L0.0,18.0" fill-opacity="0" stroke="black" stroke-width="1" />
<path d="M0.0,-100.0 L-4.194309753599,-85.72036484062524 L0.0,-82.0" fill-opacity="0" stroke="black" stroke-width="1" />
<path d="M0.0,82.0 L-4.304002459932802,73.89540964305485 L-5.5259633251061615,66.63006656127092" fill-opacity="0" stroke="black" stroke-width="1" />
<path d="M0.0,-18.0 L-4.304002459932802,-26.104590356945153 L-5.5259633251061615,-33.36993343872907" fill-opacity="0" stroke="black" stroke-width="1" />
<path d="M0.0,18.0 L-4.304002459932802,26.104590356945153 L-5.5259633251061615,33.36993343872908" fill-opacity="0" stroke="black" stroke-width="1" />
<path d="M0.0,-82.0 L-4.304002459932802,-73.89540964305485 L-5.5259633251061615,-66.63006656127092" fill-opacity="0" stroke="black" stroke-width="1" />
<path d="M-4.304002459932802,73.89540964305485 L-5.5259633251061615,66.63006656127092 L0.0,59.0" fill-opacity="0" stroke="black" stroke-width="1" />
<path d="M-4.304002459932802,-26.104590356945153 L-5.5259633251061615,-33.36993343872907 L0.0,-41.0" fill-opacity="0" stroke="black" stroke-width="1" />
<path d="M-4.304002459932802,26.104590356945153 L-5.5259633251061615,33.36993343872908 L0.0,41.0" fill-opacity="0" stroke="black" stroke-width="1" />
<path d="M-4.304002459932802,-73.89540964305485 L-5.5259633251061615,-66.63006656127092 L0.0,-59.0" fill-opacity="0" stroke="black" stroke-width="1" />
<path d="M-36.0,64.0 L-30.392393797999244,64.2136915534501 L-32.0,68.0" fill-opacity="0" stroke="black" stroke-width="1" />
<path d="M-36.0,-36.0 L-30.392393797999244,-35.7863084465499 L-32.0,-32.0" fill-opacity="0" stroke="black" stroke-width="1" />
<path d="M-36.0,36.0 L-30.392393797999244,35.786308446549896 L-32.0,32.0" fill-opacity="0" stroke="black" stroke-width="1" />
<path d="M-36.0,-64.0 L-30.392393797999244,-64.2136915534501 L-32.0,-68.0" fill-opacity="0" stroke="black" stroke-width="1" />
<path d="M-15.0,85.0 L-3.264172623247054,88.76792131512329 L-2.9900974005287533,89.70269893846456" fill-opacity="0" stroke="black" stroke-width="1" />
<path d="M-15.0,-15.0 L-3.264172623247054,-11.232078684876718 L-2.9900974005287533,-10.29730106153544" fill-opacity="0" stroke="black" stroke-width="1" />
<path d="M-15.0,15.0 L-3.264172623247054,11.232078684876711 L-2.9900974005287533,10.297301061535435" fill-opacity="0" stroke="black" stroke-width="1" />
<path d="M-15.0,-85.0 L-3.264172623247054,-88.76792131512329 L-2.9900974005287533,-89.70269893846455" fill-opacity="0" stroke="black" stroke-width="1" />
<path d="M-3.264172623247054,88.76792131512329 L-2.9900974005287533,89.70269893846456 L-1.5444561517665472,94.46864437012091" fill-opacity="0" stroke="black" stroke-width="1" />
<path d="M-3.264172623247054,-11.232078684876718 L-2.9900974005287533,-10.29730106153544 L-1.5444561517665472,-5.531355629879086" fill-opacity="0" stroke="black" stroke-width="1" />
<path d="M-3.264172623247054,11.232078684876711 L-2.9900974005287533,10.297301061535435 L-1.5444561517665472,5.531355629879087" fill-opacity="0" stroke="black" stroke-width="1" />
<path d="M-3.264172623247054,-88.76792131512329 L-2.9900974005287533,-89.70269893846455 L-1.5444561517665472,-94.46864437012091" fill-opacity="0" stroke="black" stroke-width="1" />
<path d="M-2.9900974005287533,89.70269893846456 L-1.5444561517665472,94.46864437012091 L-1.003429728376712,95.09490083803045" fill-opacity="0" stroke="black" stroke-width="1" />
<path d="M-2.9900974005287533,-10.29730106153544 L-1.5444561517665472,-5.531355629879086 L-1.003429728376712,-4.9050991619695505" fill-opacity="0" stroke="black" stroke-width="1" />
<path d="M-2.9900974005287533,10.297301061535435 L-1.5444561517665472,5.531355629879087 L-1.003429728376712,4.905099161969545" fill-opacity="0" stroke="black" stroke-width="1" />
<path d="M-2.9900974005287533,-89.70269893846455 L-1.5444561517665472,-94.46864437012091 L-1.003429728376712,-95.09490083803044" fill-opacity="0" stroke="black" stroke-width="1" />
<path d="M-1.5444561517665472,94.46864437012091 L-1.003429728376712,95.09490083803045 L-0.814940765596462,95.11698392597998" fill-opacity="0" stroke="black" stroke-width="1" />
<path d="M-1.5444561517665472,-5.531355629879086 L-1.003429728376712,-4.9050991619695505 L-0.814940765596462,-4.883016074020025" fill-opacity="0" stroke="black" stroke-width="1" />
<path d="M-1.5444561517665472,5.531355629879087 L-1.003429728376712,4.905099161969545 L-0.814940765596462,4.88301607402002" fill-opacity="0" stroke="black" stroke-width="1" />
<path d="M-1.5444561517665472,-94.46864437012091 L-1.003429728376712,-95.09490083803044 L-0.814940765596462,-95.11698392597998" fill-opacity="0" stroke="black" stroke-width="1" />
<path d="M-1.003429728376712,95.09490083803045 L-0.814940765596462,95.11698392597998 L-0.5933372060582198,96.71363608239417" fill-opacity="0" stroke="black" stroke-width="1" />
<path d="M-1.003429728376712,-4.9050991619695505 L-0.814940765596462,-4.883016074020025 L-0.5933372060582198,-3.286363917605828" fill-opacity="0" stroke="black" stroke-width="1" />
<path d="M-1.003429728376712,4.905099161969545 L-0.814940765596462,4.88301607402002 L-0.5933372060582198,3.2863639176058257" fill-opacity="0" stroke="black" stroke-width="1" />
<path d="M-1.003429728376712,-95.09490083803044 L-0.814940765596462,-95.11698392597998 L-0.5933372060582198,-96.71363608239417" fill-opacity="0" stroke="black" stroke-width="1" />
<path d="M-0.814940765596462,95.11698392597998 L-0.5933372060582198,96.71363608239417 L-0.5077078394986057,99.02888481383056" fill-opacity="0" stroke="black" stroke-width="1" />
<path d="M-0.814940765596462,-4.883016074020025 L-0.5933372060582198,-3.286363917605828 L-0.5077078394986057,-0.9711151861694356" fill-opacity="0" stroke="black" stroke-width="1" />
<path d="M-0.814940765596462,4.88301607402002 L-0.5933372060582198,3.2863639176058257 L-0.5077078394986057,0.9711151861694418" fill-opacity="0" stroke="black" stroke-width="1" />
<path d="M-0.814940765596462,-95.11698392597998 L-0.5933372060582198,-96.71363608239417 L-0.5077078394986057,-99.02888481383056" fill-opacity="0" stroke="black" stroke-width="1" />
<path d="M-0.5933372060582198,96.71363608239417 L-0.5077078394986057,99.02888481383056 L0.0,100.0" fill-opacity="0" stroke="black" stroke-width="1" />
<path d="M-0.5933372060582198,-3.286363917605828 L-0.5077078394986057,-0.9711151861694356 L0.0,-0.0" fill-opacity="0" stroke="black" stroke-width="1" />
<path d="M-0.5933372060582198,3.2863639176058257 L-0.5077078394986057,0.9711151861694418 L0.0,-0.0" fill-opacity="0" stroke="black" stroke-width="1" />
<path d="M-0.5933372060582198,-96.71363608239417 L-0.5077078394986057,-99.02888481383056 L0.0,-100.0" fill-opacity="0" stroke="black" stroke-width="1" />
<path d="M-100.0,-0.0 L-85.72036484062524,-4.194309753599 L-82.0,-0.0" fill-opacity="0" stroke="black" stroke-width="1" />
<path d="M-100.0,-0.0 L-85.72036484062524,4.194309753599 L-82.0,-0.0" fill-opacity="0" stroke="black" stroke-width="1" />
<path d="M-82.0,-0.0 L-73.89540964305485,-4.304002459932802 L-66.63006656127092,-5.5259633251061615" fill-opacity="0" stroke="black" stroke-width="1" />
<path d="M-82.0,-0.0 L-73.89540964305485,4.304002459932802 L-66.63006656127092,5.5259633251061615" fill-opacity="0" stroke="black" stroke-width="1" />
<path d="M-73.89540964305485,-4.304002459932802 L-66.63006656127092,-5.5259633251061615 L-59.0,-0.0" fill-opacity="0" stroke="black" stroke-width="1" />
<path d="M-73.89540964305485,4.304002459932802 L-66.63006656127092,5.5259633251061615 L-59.0,-0.0" fill-opacity="0" stroke="black" stroke-width="1" />
<path d="M-50.0,-50.0 L-64.0,-36.0 L-64.2136915534501,-30.392393797999244" fill-opacity="0" stroke="black" stroke-width="1" />
<path d="M-50.0,50.0 L-64.0,36.0 L-64.2136915534501,30.392393797999244" fill-opacity="0" stroke="black" stroke-width="1" />
<path d="M-64.0,-36.0 L-64.2136915534501,-30.392393797999244 L-68.0,-32.0" fill-opacity="0" stroke="black" stroke-width="1" />
<path d="M-64.0,36.0 L-64.2136915534501,30.392393797999244 L-68.0,32.0" fill-opacity="0" stroke="black" stroke-width="1" />
<path d="M-64.2136915534501,-30.392393797999244 L-68.0,-32.0 L-69.0,-31.0" fill-opacity="0" stroke="black" stroke-width="1" />
<path d="M-64.2136915534501,30.392393797999244 L-68.0,32.0 L-69.0,31.0" fill-opacity="0" stroke="black" stroke-width="1" />
<path d="M-68.0,-32.0 L-69.0,-31.0 L-85.0,-15.0" fill-opacity="0" stroke="black" stroke-width="1" />
<path d="M-68.0,32.0 L-69.0,31.0 L-85.0,15.0" fill-opacity="0" stroke="black" stroke-width="1" />
<path d="M-69.0,-31.0 L-85.0,-15.0 L-88.76792131512329,-3.264172623247054" fill-opacity="0" stroke="black" stroke-width="1" />
<path d="M-69.0,31.0 L-85.0,15.0 L-88.76792131512329,3.264172623247054" fill-opacity="0" stroke="black" stroke-width="1" />
<path d="M-85.0,-15.0 L-88.76792131512329,-3.264172623247054 L-89.70269893846455,-2.9900974005287533" fill-opacity="0" stroke="black" stroke-width="1" />
<path d="M-85.0,15.0 L-88.76792131512329,3.264172623247054 L-89.70269893846455,2.9900974005287533" fill-opacity="0" stroke="black" stroke-width="1" />
<path d="M-88.76792131512329,-3.264172623247054 L-89.70269893846455,-2.9900974005287533 L-94.46864437012091,-1.5444561517665472" fill-opacity="0" stroke="black" stroke-width="1" />
<path d="M-88.76792131512329,3.264172623247054 L-89.70269893846455,2.9900974005287533 L-94.46864437012091,1.5444561517665472" fill-opacity="0" stroke="black" stroke-width="1" />
<path d="M-89.70269893846455,-2.9900974005287533 L-94.46864437012091,-1.5444561517665472 L-95.09490083803044,-1.003429728376712" fill-opacity="0" stroke="black" stroke-width="1" />
<path d="M-89.70269893846455,2.9900974005287533 L-94.46864437012091,1.5444561517665472 L-95.09490083803044,1.003429728376712" fill-opacity="0" stroke="black" stroke-width="1" />
<path d="M-94.46864437012091,-1.5444561517665472 L-95.09490083803044,-1.003429728376712 L-95.11698392597998,-0.814940765596462" fill-opacity="0" stroke="black" stroke-width="1" />
<path d="M-94.46864437012091,1.5444561517665472 L-95.09490083803044,1.003429728376712 L-95.11698392597998,0.814940765596462" fill-opacity="0" stroke="black" stroke-width="1" />
<path d="M-95.09490083803044,-1.003429728376712 L-95.11698392597998,-0.814940765596462 L-96.71363608239417,-0.5933372060582198" fill-opacity="0" stroke="black" stroke-width="1" />
<path d="M-95.09490083803044,1.003429728376712 L-95.11698392597998,0.814940765596462 L-96.71363608239417,0.5933372060582198" fill-opacity="0" stroke="black" stroke-width="1" />
<path d="M-95.11698392597998,-0.814940765596462 L-96.71363608239417,-0.5933372060582198 L-99.02888481383056,-0.5077078394986057" fill-opacity="0" stroke="black" stroke-width="1" />
<path d="M-95.11698392597998,0.814940765596462 L-96.71363608239417,0.5933372060582198 L-99.02888481383056,0.5077078394986057" fill-opacity="0" stroke="black" stroke-width="1" />
<path d="M-96.71363608239417,-0.5933372060582198 L-99.02888481383056,-0.5077078394986057 L-100.0,-0.0" fill-opacity="0" stroke="black" stroke-width="1" />
<path d="M-96.71363608239417,0.5933372060582198 L-99.02888481383056,0.5077078394986057 L-100.0,-0.0" fill-opacity="0" stroke="black" stroke-width="1" />
<circle cx="0" cy="-97" r="8" stroke-dasharray="39.653880605311166 10.611601852125524" stroke-dashoffset="-17.59291886010284" stroke="black" stroke-width="1" fill="white" fill-opacity="1" />
<circle cx="0" cy="-97" r="4" stroke="black" stroke-width="1" fill="white" fill-opacity="1" />
</svg>