<?xml version="1.0" encoding="UTF-8"?>
<svg xmlns="http://www.w3.org/2000/svg" xmlns:xlink="http://www.w3.org/1999/xlink"
     width="250" height="250" viewBox="-125.0 -125.0 250 250">
<defs>
</defs>
<path d="M6.0,-0.0 L10.518503970286858,-0.9633689411590717 L11.0,-0.0" fill="blue" fill-opacity="0.6" stroke="black" stroke-width="1" />
<path d="M6.0,-0.0 L10.518503970286858,0.9633689411590717 L11.0,-0.0" fill="pink" fill-opacity="0.6" stroke="black" stroke-width="1" />
<path d="M14.0,86.0 L11.0,89.0 L0.030261831462430333,98.15546293537076" fill="blue" fill-opacity="0.6" stroke="black" stroke-width="1" />
<path d="M14.0,-86.0 L11.0,-89.0 L0.030261831462430333,-98.15546293537076" fill="yellow" fill-opacity="0.6" stroke="black" stroke-width="1" />
<path d="M11.0,-0.0 L14.133977940485547,-2.0157530451112766 L15.52921015929794,-2.343365814392759" fill="black" fill-opacity="0.6" stroke="black" stroke-width="1" />
<path d="M11.0,-0.0 L14.133977940485547,2.0157530451112766 L15.52921015929794,2.343365814392759" fill="pink" fill-opacity="0.6" stroke="black" stroke-width="1" />
<path d="M14.133977940485547,-2.0157530451112766 L15.52921015929794,-2.343365814392759 L18.23344752186763,-3.557820476140658" fill="pink" fill-opacity="0.6" stroke="black" stroke-width="1" />
<path d="M14.133977940485547,2.0157530451112766 L15.52921015929794,2.343365814392759 L18.23344752186763,3.557820476140658" fill="red" fill-opacity="0.6" stroke="black" stroke-width="1" />
<path d="M15.52921015929794,-2.343365814392759 L18.23344752186763,-3.557820476140658 L18.818877925119473,-7.158097136817276" fill="red" fill-opacity="0.6" stroke="black" stroke-width="1" />
<path d="M15.52921015929794,2.343365814392759 L18.23344752186763,3.557820476140658 L18.818877925119473,7.158097136817276" fill="yellow" fill-opacity="0.6" stroke="black" stroke-width="1" />
<path d="M18.23344752186763,-3.557820476140658 L18.818877925119473,-7.158097136817276 L21.82493779429866,-11.136320930342062" fill="yellow" fill-opacity="0.6" stroke="black" stroke-width="1" />
<path d="M18.23344752186763,3.557820476140658 L18.818877925119473,7.158097136817276 L21.82493779429866,11.136320930342062" fill="brown" fill-opacity="0.6" stroke="black" stroke-width="1" />
<path d="M18.818877925119473,-7.158097136817276 L21.82493779429866,-11.136320930342062 L22.0,-0.0" fill="pink" fill-opacity="0.6" stroke="black" stroke-width="1" />
<path d="M18.818877925119473,7.158097136817276 L21.82493779429866,11.136320930342062 L22.0,-0.0" fill="brown" fill-opacity="0.6" stroke="black" stroke-width="1" />
<path d="M32.0,68.0 L30.0,70.0 L29.0,71.0" fill="green" fill-opacity="0.6" stroke="black" stroke-width="1" />
<path d="M32.0,-68.0 L30.0,-70.0 L29.0,-71.0" fill="black" fill-opacity="0.6" stroke="black" stroke-width="1" />
<path d="M50.0,-21.0 L38.36522764094635,-21.688991790565687 L41.60235895051729,-30.859708454415944" fill="black" fill-opacity="0.6" stroke="black" stroke-width="1" />
<path d="M50.0,21.0 L38.36522764094635,21.688991790565687 L41.60235895051729,30.859708454415944" fill="pink" fill-opacity="0.6" stroke="black" stroke-width="1" />
<path d="M38.36522764094635,-21.688991790565687 L41.60235895051729,-30.859708454415944 L50.0,-41.0" fill="purple" fill-opacity="0.6" stroke="black" stroke-width="1" />
<path d="M38.36522764094635,21.688991790565687 L41.60235895051729,30.859708454415944 L50.0,41.0" fill="yellow" fill-opacity="0.6" stroke="black" stroke-width="1" />
<path d="M50.0,-50.0 L48.525564264083194,-42.27743866800694 L48.0,-48.0" fill="green" fill-opacity="0.6" stroke="black" stroke-width="1" />
<path d="M50.0,50.0 L48.525564264083194,42.27743866800694 L48.0,48.0" fill="blue" fill-opacity="0.6" stroke="black" stroke-width="1" />
<path d="M42.27743866800694,51.474435735916806 L48.0,52.0 L47.0,53.0" fill="pink" fill-opacity="0.6" stroke="black" stroke-width="1" />
<path d="M42.27743866800694,-51.474435735916806 L48.0,-52.0 L47.0,-53.0" fill="orange" fill-opacity="0.6" stroke="black" stroke-width="1" />
<path d="M48.0,52.0 L47.0,53.0 L42.0,58.0" fill="blue" fill-opacity="0.6" stroke="black" stroke-width="1" />
<path d="M48.0,-52.0 L47.0,-53.0 L42.0,-58.0" fill="green" fill-opacity="0.6" stroke="black" stroke-width="1" />
<path d="M47.0,53.0 L42.0,58.0 L32.0,68.0" fill="blue" fill-opacity="0.6" stroke="black" stroke-width="1" />
<path d="M47.0,-53.0 L42.0,-58.0 L32.0,-68.0" fill="red" fill-opacity="0.6" stroke="black" stroke-width="1" />
<path d="M42.0,58.0 L32.0,68.0 L30.0,70.0" fill="yellow" fill-opacity="0.6" stroke="black" stroke-width="1" />
<path d="M42.0,-58.0 L32.0,-68.0 L30.0,-70.0" fill="yellow" fill-opacity="0.6" stroke="black" stroke-width="1" />
<path d="M30.0,70.0 L29.0,71.0 L17.90149770804024,77.36229407989191" fill="red" fill-opacity="0.6" stroke="black" stroke-width="1" />
<path d="M30.0,-70.0 L29.0,-71.0 L17.90149770804024,-77.36229407989191" fill="purple" fill-opacity="0.6" stroke="black" stroke-width="1" />
<path d="M29.0,-29.0 L22.637705920108097,-17.90149770804024 L14.0,-14.0" fill="green" fill-opacity="0.6" stroke="black" stroke-width="1" />
<path d="M29.0,29.0 L22.637705920108097,17.90149770804024 L14.0,14.0" fill="yellow" fill-opacity="0.6" stroke="black" stroke-width="1" />
<path d="M17.90149770804024,77.36229407989191 L14.0,86.0 L11.0,89.0" fill="black" fill-opacity="0.6" stroke="black" stroke-width="1" />
<path d="M17.90149770804024,-77.36229407989191 L14.0,-86.0 L11.0,-89.0" fill="orange" fill-opacity="0.6" stroke="black" stroke-width="1" />
<path d="M11.0,-11.0 L1.844537064629237,-0.030261831462430333 L0.0,-0.0" fill="black" fill-opacity="0.6" stroke="black" stroke-width="1" />
<path d="M11.0,11.0 L1.844537064629237,0.030261831462430333 L0.0,-0.0" fill="green" fill-opacity="0.6" stroke="black" stroke-width="1" />
<path d="M-6.0,-0.0 L-10.518503970286858,-0.9633689411590717 L-11.0,-0.0" fill="orange" fill-opacity="0.6" stroke="black" stroke-width="1" />
<path d="M-6.0,-0.0 L-10.518503970286858,0.9633689411590717 L-11.0,-0.0" fill="orange" fill-opacity="0.6" stroke="black" stroke-width="1" />
<path d="M-14.0,86.0 L-11.0,89.0 L-0.030261831462430333,98.15546293537076" fill="green" fill-opacity="0.6" stroke="black" stroke-width="1" />
<path d="M-14.0,-86.0 L-11.0,-89.0 L-0.030261831462430333,-98.15546293537076" fill="yellow" fill-opacity="0.6" stroke="black" stroke-width="1" />
<path d="M-11.0,-0.0 L-14.133977940485547,-2.0157530451112766 L-15.52921015929794,-2.343365814392759" fill="red" fill-opacity="0.6" stroke="black" stroke-width="1" />
<path d="M-11.0,-0.0 L-14.133977940485547,2.0157530451112766 L-15.52921015929794,2.343365814392759" fill="red" fill-opacity="0.6" stroke="black" stroke-width="1" />
<path d="M-14.133977940485547,-2.0157530451112766 L-15.52921015929794,-2.343365814392759 L-18.23344752186763,-3.557820476140658" fill="purple" fill-opacity="0.6" stroke="black" stroke-width="1" />
<path d="M-14.133977940485547,2.0157530451112766 L-15.52921015929794,2.343365814392759 L-18.23344752186763,3.557820476140658" fill="orange" fill-opacity="0.6" stroke="black" stroke-width="1" />
<path d="M-15.52921015929794,-2.343365814392759 L-18.23344752186763,-3.557820476140658 L-18.818877925119473,-7.158097136817276" fill="orange" fill-opacity="0.6" stroke="black" stroke-width="1" />
<path d="M-15.52921015929794,2.343365814392759 L-18.23344752186763,3.557820476140658 L-18.818877925119473,7.158097136817276" fill="brown" fill-opacity="0.6" stroke="black" stroke-width="1" />
<path d="M-18.23344752186763,-3.557820476140658 L-18.818877925119473,-7.158097136817276 L-21.82493779429866,-11.136320930342062" fill="black" fill-opacity="0.6" stroke="black" stroke-width="1" />
<path d="M-18.23344752186763,3.557820476140658 L-18.818877925119473,7.158097136817276 L-21.82493779429866,11.136320930342062" fill="red" fill-opacity="0.6" stroke="black" stroke-width="1" />
<path d="M-18.818877925119473,-7.158097136817276 L-21.82493779429866,-11.136320930342062 L-22.0,-0.0" fill="black" fill-opacity="0.6" stroke="black" stroke-width="1" />
<path d="M-18.818877925119473,7.158097136817276 L-21.82493779429866,11.136320930342062 L-22.0,-0.0" fill="red" fill-opacity="0.6" stroke="black" stroke-width="1" />
<path d="M-32.0,68.0 L-30.0,70.0 L-29.0,71.0" fill="black" fill-opacity="0.6" stroke="black" stroke-width="1" />
<path d="M-32.0,-68.0 L-30.0,-70.0 L-29.0,-71.0" fill="brown" fill-opacity="0.6" stroke="black" stroke-width="1" />
<path d="M-50.0,-21.0 L-38.36522764094635,-21.688991790565687 L-41.60235895051729,-30.859708454415944" fill="yellow" fill-opacity="0.6" stroke="black" stroke-width="1" />
<path d="M-50.0,21.0 L-38.36522764094635,21.688991790565687 L-41.60235895051729,30.859708454415944" fill="yellow" fill-opacity="0.6" stroke="black" stroke-width="1" />
<path d="M-38.36522764094635,-21.688991790565687 L-41.60235895051729,-30.859708454415944 L-50.0,-41.0" fill="green" fill-opacity="0.6" stroke="black" stroke-width="1" />
<path d="M-38.36522764094635,21.688991790565687 L-41.60235895051729,30.859708454415944 L-50.0,41.0" fill="purple" fill-opacity="0.6" stroke="black" stroke-width="1" />
<path d="M-50.0,-50.0 L-48.525564264083194,-42.27743866800694 L-48.0,-48.0" fill="red" fill-opacity="0.6" stroke="black" stroke-width="1" />
<path d="M-50.0,50.0 L-48.525564264083194,42.27743866800694 L-48.0,48.0" fill="black" fill-opacity="0.6" stroke="black" stroke-width="1" />
<path d="M-42.27743866800694,51.474435735916806 L-48.0,52.0 L-47.0,53.0" fill="green" fill-opacity="0.6" stroke="black" stroke-width="1" />
<path d="M-42.27743866800694,-51.474435735916806 L-48.0,-52.0 L-47.0,-53.0" fill="green" fill-opacity="0.6" stroke="black" stroke-width="1" />
<path d="M-48.0,52.0 L-47.0,53.0 L-42.0,58.0" fill="blue" fill-opacity="0.6" stroke="black" stroke-width="1" />
<path d="M-48.0,-52.0 L-47.0,-53.0 L-42.0,-58.0" fill="brown" fill-opacity="0.6" stroke="black" stroke-width="1" />
<path d="M-47.0,53.0 L-42.0,58.0 L-32.0,68.0" fill="blue" fill-opacity="0.6" stroke="black" stroke-width="1" />
<path d="M-47.0,-53.0 L-42.0,-58.0 L-32.0,-68.0" fill="yellow" fill-opacity="0.6" stroke="black" stroke-width="1" />
<path d="M-42.0,58.0 L-32.0,68.0 L-30.0,70.0" fill="yellow" fill-opacity="0.6" stroke="black" stroke-width="1" />
<path d="M-42.0,-58.0 L-32.0,-68.0 L-30.0,-70.0" fill="purple" fill-opacity="0.6" stroke="black" stroke-width="1" />
<path d="M-30.0,70.0 L-29.0,71.0 L-17.90149770804024,77.36229407989191" fill="purple" fill-opacity="0.6" stroke="black" stroke-width="1" />
<path d="M-30.0,-70.0 L-29.0,-71.0 L-17.90149770804024,-77.36229407989191" fill="blue" fill-opacity="0.6" stroke="black" stroke-width="1" />
<path d="M-29.0,-29.0 L-22.637705920108097,-17.90149770804024 L-14.0,-14.0" fill="green" fill-opacity="0.6" stroke="black" stroke-width="1" />
<path d="M-29.0,29.0 L-22.637705920108097,17.90149770804024 L-14.0,14.0" fill="blue" fill-opacity="0.6" stroke="black" stroke-width="1" />
<path d="M-17.90149770804024,77.36229407989191 L-14.0,86.0 L-11.0,89.0" fill="blue" fill-opacity="0.6" stroke="black" stroke-width="1" />
<path d="M-17.90149770804024,-77.36229407989191 L-14.0,-86.0 L-11.0,-89.0" fill="blue" fill-opacity="0.6" stroke="black" stroke-width="1" />
<path d="M-11.0,-11.0 L-1.844537064629237,-0.030261831462430333 L0.0,-0.0" fill="pink" fill-opacity="0.6" stroke="black" stroke-width="1" />
<path d="M-11.0,11.0 L-1.844537064629237,0.030261831462430333 L0.0,-0.0" fill="green" fill-opacity="0.6" stroke="black" stroke-width="1" />
<path d="M94.0,-0.0 L89.48149602971314,0.9633689411590717 L89.0,-0.0" fill="green" fill-opacity="0.6" stroke="black" stroke-width="1" />
<path d="M94.0,-0.0 L89.48149602971314,-0.9633689411590717 L89.0,-0.0" fill="orange" fill-opacity="0.6" stroke="black" stroke-width="1" />
<path d="M86.0,14.0 L89.0,11.0 L98.15546293537076,0.030261831462430333" fill="black" fill-opacity="0.6" stroke="black" stroke-width="1" />
<path d="M86.0,-14.0 L89.0,-11.0 L98.15546293537076,-0.030261831462430333" fill="brown" fill-opacity="0.6" stroke="black" stroke-width="1" />
<path d="M89.0,-0.0 L85.86602205951445,2.0157530451112766 L84.47078984070205,2.343365814392759" fill="red" fill-opacity="0.6" stroke="black" stroke-width="1" />
<path d="M89.0,-0.0 L85.86602205951445,-2.0157530451112766 L84.47078984070205,-2.343365814392759" fill="purple" fill-opacity="0.6" stroke="black" stroke-width="1" />
<path d="M85.86602205951445,2.0157530451112766 L84.47078984070205,2.343365814392759 L81.76655247813237,3.557820476140658" fill="black" fill-opacity="0.6" stroke="black" stroke-width="1" />
<path d="M85.86602205951445,-2.0157530451112766 L84.47078984070205,-2.343365814392759 L81.76655247813237,-3.557820476140658" fill="pink" fill-opacity="0.6" stroke="black" stroke-width="1" />
<path d="M84.47078984070205,2.343365814392759 L81.76655247813237,3.557820476140658 L81.18112207488053,7.158097136817276" fill="purple" fill-opacity="0.6" stroke="black" stroke-width="1" />
<path d="M84.47078984070205,-2.343365814392759 L81.76655247813237,-3.557820476140658 L81.18112207488053,-7.158097136817276" fill="yellow" fill-opacity="0.6" stroke="black" stroke-width="1" />
<path d="M81.76655247813237,3.557820476140658 L81.18112207488053,7.158097136817276 L78.17506220570134,11.136320930342062" fill="orange" fill-opacity="0.6" stroke="black" stroke-width="1" />
<path d="M81.76655247813237,-3.557820476140658 L81.18112207488053,-7.158097136817276 L78.17506220570134,-11.136320930342062" fill="yellow" fill-opacity="0.6" stroke="black" stroke-width="1" />
<path d="M81.18112207488053,7.158097136817276 L78.17506220570134,11.136320930342062 L78.0,-0.0" fill="green" fill-opacity="0.6" stroke="black" stroke-width="1" />
<path d="M81.18112207488053,-7.158097136817276 L78.17506220570134,-11.136320930342062 L78.0,-0.0" fill="blue" fill-opacity="0.6" stroke="black" stroke-width="1" />
<path d="M68.0,32.0 L70.0,30.0 L71.0,29.0" fill="yellow" fill-opacity="0.6" stroke="black" stroke-width="1" />
<path d="M68.0,-32.0 L70.0,-30.0 L71.0,-29.0" fill="blue" fill-opacity="0.6" stroke="black" stroke-width="1" />
<path d="M50.0,21.0 L61.63477235905365,21.688991790565687 L58.39764104948271,30.859708454415944" fill="red" fill-opacity="0.6" stroke="black" stroke-width="1" />
<path d="M50.0,-21.0 L61.63477235905365,-21.688991790565687 L58.39764104948271,-30.859708454415944" fill="purple" fill-opacity="0.6" stroke="black" stroke-width="1" />
<path d="M61.63477235905365,21.688991790565687 L58.39764104948271,30.859708454415944 L50.0,41.0" fill="yellow" fill-opacity="0.6" stroke="black" stroke-width="1" />
<path d="M61.63477235905365,-21.688991790565687 L58.39764104948271,-30.859708454415944 L50.0,-41.0" fill="brown" fill-opacity="0.6" stroke="black" stroke-width="1" />
<path d="M50.0,50.0 L51.474435735916806,42.27743866800694 L52.0,48.0" fill="pink" fill-opacity="0.6" stroke="black" stroke-width="1" />
<path d="M50.0,-50.0 L51.474435735916806,-42.27743866800694 L52.0,-48.0" fill="orange" fill-opacity="0.6" stroke="black" stroke-width="1" />
<path d="M51.474435735916806,42.27743866800694 L52.0,48.0 L53.0,47.0" fill="red" fill-opacity="0.6" stroke="black" stroke-width="1" />
<path d="M51.474435735916806,-42.27743866800694 L52.0,-48.0 L53.0,-47.0" fill="brown" fill-opacity="0.6" stroke="black" stroke-width="1" />
<path d="M52.0,48.0 L53.0,47.0 L58.0,42.0" fill="red" fill-opacity="0.6" stroke="black" stroke-width="1" />
<path d="M52.0,-48.0 L53.0,-47.0 L58.0,-42.0" fill="green" fill-opacity="0.6" stroke="black" stroke-width="1" />
<path d="M53.0,47.0 L58.0,42.0 L68.0,32.0" fill="green" fill-opacity="0.6" stroke="black" stroke-width="1" />
<path d="M53.0,-47.0 L58.0,-42.0 L68.0,-32.0" fill="red" fill-opacity="0.6" stroke="black" stroke-width="1" />
<path d="M58.0,42.0 L68.0,32.0 L70.0,30.0" fill="brown" fill-opacity="0.6" stroke="black" stroke-width="1" />
<path d="M58.0,-42.0 L68.0,-32.0 L70.0,-30.0" fill="pink" fill-opacity="0.6" stroke="black" stroke-width="1" />
<path d="M70.0,30.0 L71.0,29.0 L77.36229407989191,17.90149770804024" fill="blue" fill-opacity="0.6" stroke="black" stroke-width="1" />
<path d="M70.0,-30.0 L71.0,-29.0 L77.36229407989191,-17.90149770804024" fill="green" fill-opacity="0.6" stroke="black" stroke-width="1" />
<path d="M71.0,29.0 L77.36229407989191,17.90149770804024 L86.0,14.0" fill="orange" fill-opacity="0.6" stroke="black" stroke-width="1" />
<path d="M71.0,-29.0 L77.36229407989191,-17.90149770804024 L86.0,-14.0" fill="orange" fill-opacity="0.6" stroke="black" stroke-width="1" />
<path d="M77.36229407989191,17.90149770804024 L86.0,14.0 L89.0,11.0" fill="brown" fill-opacity="0.6" stroke="black" stroke-width="1" />
<path d="M77.36229407989191,-17.90149770804024 L86.0,-14.0 L89.0,-11.0" fill="yellow" fill-opacity="0.6" stroke="black" stroke-width="1" />
<path d="M89.0,11.0 L98.15546293537076,0.030261831462430333 L100.0,-0.0" fill="pink" fill-opacity="0.6" stroke="black" stroke-width="1" />
<path d="M89.0,-11.0 L98.15546293537076,-0.030261831462430333 L100.0,-0.0" fill="yellow" fill-opacity="0.6" stroke="black" stroke-width="1" />
<path d="M0.0,-6.0 L0.9633689411590717,-10.518503970286858 L0.0,-11.0" fill="green" fill-opacity="0.6" stroke="black" stroke-width="1" />
<path d="M0.0,6.0 L0.9633689411590717,10.518503970286858 L0.0,11.0" fill="blue" fill-opacity="0.6" stroke="black" stroke-width="1" />
<path d="M0.0,94.0 L0.9633689411590717,89.48149602971314 L0.0,89.0" fill="purple" fill-opacity="0.6" stroke="black" stroke-width="1" />
<path d="M0.0,-94.0 L0.9633689411590717,-89.48149602971314 L0.0,-89.0" fill="green" fill-opacity="0.6" stroke="black" stroke-width="1" />
<path d="M0.0,-11.0 L2.0157530451112766,-14.133977940485547 L2.343365814392759,-15.52921015929794" fill="brown" fill-opacity="0.6" stroke="black" stroke-width="1" />
<path d="M0.0,11.0 L2.0157530451112766,14.133977940485547 L2.343365814392759,15.52921015929794" fill="red" fill-opacity="0.6" stroke="black" stroke-width="1" />
<path d="M0.0,89.0 L2.0157530451112766,85.86602205951445 L2.343365814392759,84.47078984070205" fill="purple" fill-opacity="0.6" stroke="black" stroke-width="1" />
<path d="M0.0,-89.0 L2.0157530451112766,-85.86602205951445 L2.343365814392759,-84.47078984070205" fill="brown" fill-opacity="0.6" stroke="black" stroke-width="1" />
<path d="M2.0157530451112766,-14.133977940485547 L2.343365814392759,-15.52921015929794 L3.557820476140658,-18.23344752186763" fill="green" fill-opacity="0.6" stroke="black" stroke-width="1" />
<path d="M2.0157530451112766,14.133977940485547 L2.343365814392759,15.52921015929794 L3.557820476140658,18.23344752186763" fill="brown" fill-opacity="0.6" stroke="black" stroke-width="1" />
<path d="M2.0157530451112766,85.86602205951445 L2.343365814392759,84.47078984070205 L3.557820476140658,81.76655247813237" fill="brown" fill-opacity="0.6" stroke="black" stroke-width="1" />
<path d="M2.0157530451112766,-85.86602205951445 L2.343365814392759,-84.47078984070205 L3.557820476140658,-81.76655247813237" fill="blue" fill-opacity="0.6" stroke="black" stroke-width="1" />
<path d="M2.343365814392759,-15.52921015929794 L3.557820476140658,-18.23344752186763 L7.158097136817276,-18.818877925119473" fill="brown" fill-opacity="0.6" stroke="black" stroke-width="1" />
<path d="M2.343365814392759,15.52921015929794 L3.557820476140658,18.23344752186763 L7.158097136817276,18.818877925119473" fill="black" fill-opacity="0.6" stroke="black" stroke-width="1" />
<path d="M2.343365814392759,84.47078984070205 L3.557820476140658,81.76655247813237 L7.158097136817276,81.18112207488053" fill="yellow" fill-opacity="0.6" stroke="black" stroke-width="1" />
<path d="M2.343365814392759,-84.47078984070205 L3.557820476140658,-81.76655247813237 L7.158097136817276,-81.18112207488053" fill="blue" fill-opacity="0.6" stroke="black" stroke-width="1" />
<path d="M3.557820476140658,-18.23344752186763 L7.158097136817276,-18.818877925119473 L11.136320930342062,-21.82493779429866" fill="pink" fill-opacity="0.6" stroke="black" stroke-width="1" />
<path d="M3.557820476140658,18.23344752186763 L7.158097136817276,18.818877925119473 L11.136320930342062,21.82493779429866" fill="yellow" fill-opacity="0.6" stroke="black" stroke-width="1" />
<path d="M3.557820476140658,81.76655247813237 L7.158097136817276,81.18112207488053 L11.136320930342062,78.17506220570134" fill="red" fill-opacity="0.6" stroke="black" stroke-width="1" />
<path d="M3.557820476140658,-81.76655247813237 L7.158097136817276,-81.18112207488053 L11.136320930342062,-78.17506220570134" fill="black" fill-opacity="0.6" stroke="black" stroke-width="1" />
<path d="M7.158097136817276,-18.818877925119473 L11.136320930342062,-21.82493779429866 L0.0,-22.0" fill="red" fill-opacity="0.6" stroke="black" stroke-width="1" />
<path d="M7.158097136817276,18.818877925119473 L11.136320930342062,21.82493779429866 L0.0,22.0" fill="purple" fill-opacity="0.6" stroke="black" stroke-width="1" />
<path d="M7.158097136817276,81.18112207488053 L11.136320930342062,78.17506220570134 L0.0,78.0" fill="red" fill-opacity="0.6" stroke="black" stroke-width="1" />
<path d="M7.158097136817276,-81.18112207488053 L11.136320930342062,-78.17506220570134 L0.0,-78.0" fill="yellow" fill-opacity="0.6" stroke="black" stroke-width="1" />
<path d="M21.0,-50.0 L21.688991790565687,-38.36522764094635 L30.859708454415944,-41.60235895051729" fill="blue" fill-opacity="0.6" stroke="black" stroke-width="1" />
<path d="M21.0,50.0 L21.688991790565687,38.36522764094635 L30.859708454415944,41.60235895051729" fill="purple" fill-opacity="0.6" stroke="black" stroke-width="1" />
<path d="M21.0,50.0 L21.688991790565687,61.63477235905365 L30.859708454415944,58.39764104948271" fill="blue" fill-opacity="0.6" stroke="black" stroke-width="1" />
<path d="M21.0,-50.0 L21.688991790565687,-61.63477235905365 L30.859708454415944,-58.39764104948271" fill="red" fill-opacity="0.6" stroke="black" stroke-width="1" />
<path d="M21.688991790565687,-38.36522764094635 L30.859708454415944,-41.60235895051729 L41.0,-50.0" fill="purple" fill-opacity="0.6" stroke="black" stroke-width="1" />
<path d="M21.688991790565687,38.36522764094635 L30.859708454415944,41.60235895051729 L41.0,50.0" fill="purple" fill-opacity="0.6" stroke="black" stroke-width="1" />
<path d="M21.688991790565687,61.63477235905365 L30.859708454415944,58.39764104948271 L41.0,50.0" fill="green" fill-opacity="0.6" stroke="black" stroke-width="1" />
<path d="M21.688991790565687,-61.63477235905365 L30.859708454415944,-58.39764104948271 L41.0,-50.0" fill="blue" fill-opacity="0.6" stroke="black" stroke-width="1" />
<path d="M50.0,-50.0 L42.27743866800694,-48.525564264083194 L48.0,-48.0" fill="pink" fill-opacity="0.6" stroke="black" stroke-width="1" />
<path d="M50.0,50.0 L42.27743866800694,48.525564264083194 L48.0,48.0" fill="purple" fill-opacity="0.6" stroke="black" stroke-width="1" />
<path d="M50.0,50.0 L42.27743866800694,51.474435735916806 L48.0,52.0" fill="red" fill-opacity="0.6" stroke="black" stroke-width="1" />
<path d="M50.0,-50.0 L42.27743866800694,-51.474435735916806 L48.0,-52.0" fill="orange" fill-opacity="0.6" stroke="black" stroke-width="1" />
<path d="M29.0,-29.0 L17.90149770804024,-22.637705920108097 L14.0,-14.0" fill="red" fill-opacity="0.6" stroke="black" stroke-width="1" />
<path d="M29.0,29.0 L17.90149770804024,22.637705920108097 L14.0,14.0" fill="red" fill-opacity="0.6" stroke="black" stroke-width="1" />
<path d="M29.0,71.0 L17.90149770804024,77.36229407989191 L14.0,86.0" fill="red" fill-opacity="0.6" stroke="black" stroke-width="1" />
<path d="M29.0,-71.0 L17.90149770804024,-77.36229407989191 L14.0,-86.0" fill="purple" fill-opacity="0.6" stroke="black" stroke-width="1" />
<path d="M11.0,-11.0 L0.030261831462430333,-1.844537064629237 L0.0,-0.0" fill="orange" fill-opacity="0.6" stroke="black" stroke-width="1" />
<path d="M11.0,11.0 L0.030261831462430333,1.844537064629237 L0.0,-0.0" fill="orange" fill-opacity="0.6" stroke="black" stroke-width="1" />
<path d="M11.0,89.0 L0.030261831462430333,98.15546293537076 L0.0,100.0" fill="yellow" fill-opacity="0.6" stroke="black" stroke-width="1" />
<path d="M11.0,-89.0 L0.030261831462430333,-98.15546293537076 L0.0,-100.0" fill="orange" fill-opacity="0.6" stroke="black" stroke-width="1" />
<path d="M0.0,94.0 L-0.9633689411590717,89.48149602971314 L0.0,89.0" fill="pink" fill-opacity="0.6" stroke="black" stroke-width="1" />
<path d="M0.0,-6.0 L-0.9633689411590717,-10.518503970286858 L0.0,-11.0" fill="green" fill-opacity="0.6" stroke="black" stroke-width="1" />
<path d="M0.0,6.0 L-0.9633689411590717,10.518503970286858 L0.0,11.0" fill="orange" fill-opacity="0.6" stroke="black" stroke-width="1" />
<path d="M0.0,-94.0 L-0.9633689411590717,-89.48149602971314 L0.0,-89.0" fill="yellow" fill-opacity="0.6" stroke="black" stroke-width="1" />
<path d="M0.0,89.0 L-2.0157530451112766,85.86602205951445 L-2.343365814392759,84.47078984070205" fill="orange" fill-opacity="0.6" stroke="black" stroke-width="1" />
<path d="M0.0,-11.0 L-2.0157530451112766,-14.133977940485547 L-2.343365814392759,-15.52921015929794" fill="green" fill-opacity="0.6" stroke="black" stroke-width="1" />
<path d="M0.0,11.0 L-2.0157530451112766,14.13397794048555 L-2.343365814392759,15.529210159297946" fill="green" fill-opacity="0.6" stroke="black" stroke-width="1" />
<path d="M0.0,-89.0 L-2.0157530451112766,-85.86602205951445 L-2.343365814392759,-84.47078984070205" fill="brown" fill-opacity="0.6" stroke="black" stroke-width="1" />
<path d="M-2.0157530451112766,85.86602205951445 L-2.343365814392759,84.47078984070205 L-3.557820476140658,81.76655247813237" fill="black" fill-opacity="0.6" stroke="black" stroke-width="1" />
<path d="M-2.0157530451112766,-14.133977940485547 L-2.343365814392759,-15.52921015929794 L-3.557820476140658,-18.23344752186763" fill="pink" fill-opacity="0.6" stroke="black" stroke-width="1" />
<path d="M-2.0157530451112766,14.13397794048555 L-2.343365814392759,15.529210159297946 L-3.557820476140658,18.23344752186763" fill="red" fill-opacity="0.6" stroke="black" stroke-width="1" />
<path d="M-2.0157530451112766,-85.86602205951445 L-2.343365814392759,-84.47078984070205 L-3.557820476140658,-81.76655247813237" fill="green" fill-opacity="0.6" stroke="black" stroke-width="1" />
<path d="M-2.343365814392759,84.47078984070205 L-3.557820476140658,81.76655247813237 L-7.158097136817276,81.18112207488053" fill="blue" fill-opacity="0.6" stroke="black" stroke-width="1" />
<path d="M-2.343365814392759,-15.52921015929794 L-3.557820476140658,-18.23344752186763 L-7.158097136817276,-18.818877925119473" fill="purple" fill-opacity="0.6" stroke="black" stroke-width="1" />
<path d="M-2.343365814392759,15.529210159297946 L-3.557820476140658,18.23344752186763 L-7.158097136817276,18.818877925119466" fill="green" fill-opacity="0.6" stroke="black" stroke-width="1" />
<path d="M-2.343365814392759,-84.47078984070205 L-3.557820476140658,-81.76655247813237 L-7.158097136817276,-81.18112207488053" fill="green" fill-opacity="0.6" stroke="black" stroke-width="1" />
<path d="M-3.557820476140658,81.76655247813237 L-7.158097136817276,81.18112207488053 L-11.136320930342062,78.17506220570134" fill="purple" fill-opacity="0.6" stroke="black" stroke-width="1" />
<path d="M-3.557820476140658,-18.23344752186763 L-7.158097136817276,-18.818877925119473 L-11.136320930342062,-21.82493779429866" fill="red" fill-opacity="0.6" stroke="black" stroke-width="1" />
<path d="M-3.557820476140658,18.23344752186763 L-7.158097136817276,18.818877925119466 L-11.136320930342062,21.824937794298663" fill="purple" fill-opacity="0.6" stroke="black" stroke-width="1" />
<path d="M-3.557820476140658,-81.76655247813237 L-7.158097136817276,-81.18112207488053 L-11.136320930342062,-78.17506220570134" fill="yellow" fill-opacity="0.6" stroke="black" stroke-width="1" />
<path d="M-7.158097136817276,81.18112207488053 L-11.136320930342062,78.17506220570134 L0.0,78.0" fill="orange" fill-opacity="0.6" stroke="black" stroke-width="1" />
<path d="M-7.158097136817276,-18.818877925119473 L-11.136320930342062,-21.82493779429866 L0.0,-22.0" fill="brown" fill-opacity="0.6" stroke="black" stroke-width="1" />
<path d="M-7.158097136817276,18.818877925119466 L-11.136320930342062,21.824937794298663 L0.0,22.0" fill="brown" fill-opacity="0.6" stroke="black" stroke-width="1" />
<path d="M-7.158097136817276,-81.18112207488053 L-11.136320930342062,-78.17506220570134 L0.0,-78.0" fill="yellow" fill-opacity="0.6" stroke="black" stroke-width="1" />
<path d="M-21.0,50.0 L-21.688991790565687,61.63477235905365 L-30.859708454415944,58.39764104948271" fill="blue" fill-opacity="0.6" stroke="black" stroke-width="1" />
<path d="M-21.0,-50.0 L-21.688991790565687,-38.36522764094635 L-30.859708454415944,-41.60235895051729" fill="brown" fill-opacity="0.6" stroke="black" stroke-width="1" />
<path d="M-21.0,50.0 L-21.688991790565687,38.36522764094635 L-30.859708454415944,41.60235895051729" fill="pink" fill-opacity="0.6" stroke="black" stroke-width="1" />
<path d="M-21.0,-50.0 L-21.688991790565687,-61.63477235905365 L-30.859708454415944,-58.39764104948271" fill="yellow" fill-opacity="0.6" stroke="black" stroke-width="1" />
<path d="M-21.688991790565687,61.63477235905365 L-30.859708454415944,58.39764104948271 L-41.0,50.0" fill="orange" fill-opacity="0.6" stroke="black" stroke-width="1" />
<path d="M-21.688991790565687,-38.36522764094635 L-30.859708454415944,-41.60235895051729 L-41.0,-50.0" fill="orange" fill-opacity="0.6" stroke="black" stroke-width="1" />
<path d="M-21.688991790565687,38.36522764094635 L-30.859708454415944,41.60235895051729 L-41.0,50.0" fill="green" fill-opacity="0.6" stroke="black" stroke-width="1" />
<path d="M-21.688991790565687,-61.63477235905365 L-30.859708454415944,-58.39764104948271 L-41.0,-50.0" fill="brown" fill-opacity="0.6" stroke="black" stroke-width="1" />
<path d="M-50.0,50.0 L-42.27743866800694,51.474435735916806 L-48.0,52.0" fill="pink" fill-opacity="0.6" stroke="black" stroke-width="1" />
<path d="M-50.0,-50.0 L-42.27743866800694,-48.525564264083194 L-48.0,-48.0" fill="green" fill-opacity="0.6" stroke="black" stroke-width="1" />
<path d="M-50.0,50.0 L-42.27743866800694,48.525564264083194 L-48.0,48.0" fill="green" fill-opacity="0.6" stroke="black" stroke-width="1" />
<path d="M-50.0,-50.0 L-42.27743866800694,-51.474435735916806 L-48.0,-52.0" fill="red" fill-opacity="0.6" stroke="black" stroke-width="1" />
<path d="M-29.0,71.0 L-17.90149770804024,77.36229407989191 L-14.0,86.0" fill="green" fill-opacity="0.6" stroke="black" stroke-width="1" />
<path d="M-29.0,-29.0 L-17.90149770804024,-22.637705920108097 L-14.0,-14.0" fill="purple" fill-opacity="0.6" stroke="black" stroke-width="1" />
<path d="M-29.0,29.0 L-17.90149770804024,22.63770592010809 L-14.0,14.0" fill="black" fill-opacity="0.6" stroke="black" stroke-width="1" />
<path d="M-29.0,-71.0 L-17.90149770804024,-77.36229407989191 L-14.0,-86.0" fill="orange" fill-opacity="0.6" stroke="black" stroke-width="1" />
<path d="M-11.0,89.0 L-0.030261831462430333,98.15546293537076 L0.0,100.0" fill="red" fill-opacity="0.6" stroke="black" stroke-width="1" />
<path d="M-11.0,-11.0 L-0.030261831462430333,-1.844537064629237 L0.0,-0.0" fill="black" fill-opacity="0.6" stroke="black" stroke-width="1" />
<path d="M-11.0,11.0 L-0.030261831462430333,1.844537064629236 L0.0,-0.0" fill="green" fill-opacity="0.6" stroke="black" stroke-width="1" />
<path d="M-11.0,-89.0 L-0.030261831462430333,-98.15546293537076 L0.0,-100.0" fill="brown" fill-opacity="0.6" stroke="black" stroke-width="1" />
<path d="M-94.0,-0.0 L-89.48149602971314,-0.9633689411590717 L-89.0,-0.0" fill="brown" fill-opacity="0.6" stroke="black" stroke-width="1" />
<path d="M-94.0,-0.0 L-89.48149602971314,0.9633689411590717 L-89.0,-0.0" fill="blue" fill-opacity="0.6" stroke="black" stroke-width="1" />
<path d="M-86.0,-14.0 L-89.0,-11.0 L-98.15546293537076,-0.030261831462430333" fill="pink" fill-opacity="0.6" stroke="black" stroke-width="1" />
<path d="M-86.0,14.0 L-89.0,11.0 L-98.15546293537076,0.030261831462430333" fill="orange" fill-opacity="0.6" stroke="black" stroke-width="1" />
<path d="M-89.0,-0.0 L-85.86602205951445,-2.0157530451112766 L-84.47078984070205,-2.343365814392759" fill="red" fill-opacity="0.6" stroke="black" stroke-width="1" />
<path d="M-89.0,-0.0 L-85.86602205951445,2.0157530451112766 L-84.47078984070205,2.343365814392759" fill="purple" fill-opacity="0.6" stroke="black" stroke-width="1" />
<path d="M-85.86602205951445,-2.0157530451112766 L-84.47078984070205,-2.343365814392759 L-81.76655247813237,-3.557820476140658" fill="black" fill-opacity="0.6" stroke="black" stroke-width="1" />
<path d="M-85.86602205951445,2.0157530451112766 L-84.47078984070205,2.343365814392759 L-81.76655247813237,3.557820476140658" fill="purple" fill-opacity="0.6" stroke="black" stroke-width="1" />
<path d="M-84.47078984070205,-2.343365814392759 L-81.76655247813237,-3.557820476140658 L-81.18112207488053,-7.158097136817276" fill="brown" fill-opacity="0.6" stroke="black" stroke-width="1" />
<path d="M-84.47078984070205,2.343365814392759 L-81.76655247813237,3.557820476140658 L-81.18112207488053,7.158097136817276" fill="blue" fill-opacity="0.6" stroke="black" stroke-width="1" />
<path d="M-81.76655247813237,-3.557820476140658 L-81.18112207488053,-7.158097136817276 L-78.17506220570134,-11.136320930342062" fill="purple" fill-opacity="0.6" stroke="black" stroke-width="1" />
<path d="M-81.76655247813237,3.557820476140658 L-81.18112207488053,7.158097136817276 L-78.17506220570134,11.136320930342062" fill="pink" fill-opacity="0.6" stroke="black" stroke-width="1" />
<path d="M-81.18112207488053,-7.158097136817276 L-78.17506220570134,-11.136320930342062 L-78.0,-0.0" fill="green" fill-opacity="0.6" stroke="black" stroke-width="1" />
<path d="M-81.18112207488053,7.158097136817276 L-78.17506220570134,11.136320930342062 L-78.0,-0.0" fill="pink" fill-opacity="0.6" stroke="black" stroke-width="1" />
<path d="M-68.0,-32.0 L-70.0,-30.0 L-71.0,-29.0" fill="pink" fill-opacity="0.6" stroke="black" stroke-width="1" />
<path d="M-68.0,32.0 L-70.0,30.0 L-71.0,29.0" fill="purple" fill-opacity="0.6" stroke="black" stroke-width="1" />
<path d="M-50.0,-21.0 L-61.63477235905365,-21.688991790565687 L-58.39764104948271,-30.859708454415944" fill="green" fill-opacity="0.6" stroke="black" stroke-width="1" />
<path d="M-50.0,21.0 L-61.63477235905365,21.688991790565687 L-58.39764104948271,30.859708454415944" fill="green" fill-opacity="0.6" stroke="black" stroke-width="1" />
<path d="M-61.63477235905365,-21.688991790565687 L-58.39764104948271,-30.859708454415944 L-50.0,-41.0" fill="yellow" fill-opacity="0.6" stroke="black" stroke-width="1" />
<path d="M-61.63477235905365,21.688991790565687 L-58.39764104948271,30.859708454415944 L-50.0,41.0" fill="green" fill-opacity="0.6" stroke="black" stroke-width="1" />
<path d="M-50.0,-50.0 L-51.474435735916806,-42.27743866800694 L-52.0,-48.0" fill="purple" fill-opacity="0.6" stroke="black" stroke-width="1" />
<path d="M-50.0,50.0 L-51.474435735916806,42.27743866800694 L-52.0,48.0" fill="orange" fill-opacity="0.6" stroke="black" stroke-width="1" />
<path d="M-51.474435735916806,-42.27743866800694 L-52.0,-48.0 L-53.0,-47.0" fill="purple" fill-opacity="0.6" stroke="black" stroke-width="1" />
<path d="M-51.474435735916806,42.27743866800694 L-52.0,48.0 L-53.0,47.0" fill="purple" fill-opacity="0.6" stroke="black" stroke-width="1" />
<path d="M-52.0,-48.0 L-53.0,-47.0 L-58.0,-42.0" fill="red" fill-opacity="0.6" stroke="black" stroke-width="1" />
<path d="M-52.0,48.0 L-53.0,47.0 L-58.0,42.0" fill="yellow" fill-opacity="0.6" stroke="black" stroke-width="1" />
<path d="M-53.0,-47.0 L-58.0,-42.0 L-68.0,-32.0" fill="red" fill-opacity="0.6" stroke="black" stroke-width="1" />
<path d="M-53.0,47.0 L-58.0,42.0 L-68.0,32.0" fill="blue" fill-opacity="0.6" stroke="black" stroke-width="1" />
<path d="M-58.0,-42.0 L-68.0,-32.0 L-70.0,-30.0" fill="orange" fill-opacity="0.6" stroke="black" stroke-width="1" />
<path d="M-58.0,42.0 L-68.0,32.0 L-70.0,30.0" fill="purple" fill-opacity="0.6" stroke="black" stroke-width="1" />
<path d="M-70.0,-30.0 L-71.0,-29.0 L-77.36229407989191,-17.90149770804024" fill="pink" fill-opacity="0.6" stroke="black" stroke-width="1" />
<path d="M-70.0,30.0 L-71.0,29.0 L-77.36229407989191,17.90149770804024" fill="pink" fill-opacity="0.6" stroke="black" stroke-width="1" />
<path d="M-71.0,-29.0 L-77.36229407989191,-17.90149770804024 L-86.0,-14.0" fill="black" fill-opacity="0.6" stroke="black" stroke-width="1" />
<path d="M-71.0,29.0 L-77.36229407989191,17.90149770804024 L-86.0,14.0" fill="yellow" fill-opacity="0.6" stroke="black" stroke-width="1" />
<path d="M-77.36229407989191,-17.90149770804024 L-86.0,-14.0 L-89.0,-11.0" fill="blue" fill-opacity="0.6" stroke="black" stroke-width="1" />
<path d="M-77.36229407989191,17.90149770804024 L-86.0,14.0 L-89.0,11.0" fill="blue" fill-opacity="0.6" stroke="black" stroke-width="1" />
<path d="M-89.0,-11.0 L-98.15546293537076,-0.030261831462430333 L-100.0,-0.0" fill="blue" fill-opacity="0.6" stroke="black" stroke-width="1" />
<path d="M-89.0,11.0 L-98.15546293537076,0.030261831462430333 L-100.0,-0.0" fill="pink" fill-opacity="0.6" stroke="black" stroke-width="1" />
</svg>