<?xml version="1.0" encoding="UTF-8"?>
<svg xmlns="http://www.w3.org/2000/svg" xmlns:xlink="http://www.w3.org/1999/xlink"
     width="250" height="250" viewBox="-125.0 -125.0 250 250">
<defs>
</defs>
<path d="M44.0,56.0 L27.0,73.0 L24.0,76.0" fill="red" fill-opacity="0.6" stroke="black" stroke-width="1" />
<path d="M44.0,-56.0 L27.0,-73.0 L24.0,-76.0" fill="orange" fill-opacity="0.6" stroke="black" stroke-width="1" />
<path d="M50.0,-15.0 L35.109608625690896,-25.69445506505105 L50.0,-36.0" fill="brown" fill-opacity="0.6" stroke="black" stroke-width="1" />
<path d="M50.0,15.0 L35.109608625690896,25.69445506505105 L50.0,36.0" fill="blue" fill-opacity="0.6" stroke="black" stroke-width="1" />
<path d="M40.0,50.0 L44.0,56.0 L27.0,73.0" fill="red" fill-opacity="0.6" stroke="black" stroke-width="1" />
<path d="M40.0,-50.0 L44.0,-56.0 L27.0,-73.0" fill="blue" fill-opacity="0.6" stroke="black" stroke-width="1" />
<path d="M27.0,73.0 L24.0,76.0 L14.353236357735783,77.96967895965824" fill="green" fill-opacity="0.6" stroke="black" stroke-width="1" />
<path d="M27.0,-73.0 L24.0,-76.0 L14.353236357735783,-77.96967895965824" fill="yellow" fill-opacity="0.6" stroke="black" stroke-width="1" />
<path d="M24.0,-24.0 L22.030321040341754,-14.353236357735783 L20.126044081966278,-13.301348401222302" fill="black" fill-opacity="0.6" stroke="black" stroke-width="1" />
<path d="M24.0,24.0 L22.030321040341754,14.353236357735783 L20.126044081966278,13.301348401222302" fill="yellow" fill-opacity="0.6" stroke="black" stroke-width="1" />
<path d="M22.030321040341754,-14.353236357735783 L20.126044081966278,-13.301348401222302 L12.278475347183115,-11.168515502709996" fill="red" fill-opacity="0.6" stroke="black" stroke-width="1" />
<path d="M22.030321040341754,14.353236357735783 L20.126044081966278,13.301348401222302 L12.278475347183115,11.168515502709996" fill="orange" fill-opacity="0.6" stroke="black" stroke-width="1" />
<path d="M20.126044081966278,-13.301348401222302 L12.278475347183115,-11.168515502709996 L8.0,-8.0" fill="orange" fill-opacity="0.6" stroke="black" stroke-width="1" />
<path d="M20.126044081966278,13.301348401222302 L12.278475347183115,11.168515502709996 L8.0,8.0" fill="pink" fill-opacity="0.6" stroke="black" stroke-width="1" />
<path d="M11.168515502709996,87.72152465281688 L8.0,92.0 L5.561968888195494,93.79546979564869" fill="pink" fill-opacity="0.6" stroke="black" stroke-width="1" />
<path d="M11.168515502709996,-87.72152465281688 L8.0,-92.0 L5.561968888195494,-93.79546979564869" fill="yellow" fill-opacity="0.6" stroke="black" stroke-width="1" />
<path d="M8.0,-8.0 L6.2045302043513155,-5.561968888195494 L0.0,-0.0" fill="black" fill-opacity="0.6" stroke="black" stroke-width="1" />
<path d="M8.0,8.0 L6.2045302043513155,5.561968888195494 L0.0,-0.0" fill="red" fill-opacity="0.6" stroke="black" stroke-width="1" />
<path d="M-44.0,56.0 L-27.0,73.0 L-24.0,76.0" fill="orange" fill-opacity="0.6" stroke="black" stroke-width="1" />
<path d="M-44.0,-56.0 L-27.0,-73.0 L-24.0,-76.0" fill="orange" fill-opacity="0.6" stroke="black" stroke-width="1" />
<path d="M-50.0,-15.0 L-35.109608625690896,-25.69445506505105 L-50.0,-36.0" fill="blue" fill-opacity="0.6" stroke="black" stroke-width="1" />
<path d="M-50.0,15.0 L-35.109608625690896,25.69445506505105 L-50.0,36.0" fill="pink" fill-opacity="0.6" stroke="black" stroke-width="1" />
<path d="M-40.0,50.0 L-44.0,56.0 L-27.0,73.0" fill="purple" fill-opacity="0.6" stroke="black" stroke-width="1" />
<path d="M-40.0,-50.0 L-44.0,-56.0 L-27.0,-73.0" fill="red" fill-opacity="0.6" stroke="black" stroke-width="1" />
<path d="M-27.0,73.0 L-24.0,76.0 L-14.353236357735783,77.96967895965824" fill="purple" fill-opacity="0.6" stroke="black" stroke-width="1" />
<path d="M-27.0,-73.0 L-24.0,-76.0 L-14.353236357735783,-77.96967895965824" fill="brown" fill-opacity="0.6" stroke="black" stroke-width="1" />
<path d="M-24.0,-24.0 L-22.030321040341754,-14.353236357735783 L-20.126044081966278,-13.301348401222302" fill="orange" fill-opacity="0.6" stroke="black" stroke-width="1" />
<path d="M-24.0,24.0 L-22.030321040341754,14.353236357735783 L-20.126044081966278,13.301348401222302" fill="yellow" fill-opacity="0.6" stroke="black" stroke-width="1" />
<path d="M-22.030321040341754,-14.353236357735783 L-20.126044081966278,-13.301348401222302 L-12.278475347183115,-11.168515502709996" fill="green" fill-opacity="0.6" stroke="black" stroke-width="1" />
<path d="M-22.030321040341754,14.353236357735783 L-20.126044081966278,13.301348401222302 L-12.278475347183115,11.168515502709996" fill="green" fill-opacity="0.6" stroke="black" stroke-width="1" />
<path d="M-20.126044081966278,-13.301348401222302 L-12.278475347183115,-11.168515502709996 L-8.0,-8.0" fill="yellow" fill-opacity="0.6" stroke="black" stroke-width="1" />
<path d="M-20.126044081966278,13.301348401222302 L-12.278475347183115,11.168515502709996 L-8.0,8.0" fill="red" fill-opacity="0.6" stroke="black" stroke-width="1" />
<path d="M-11.168515502709996,87.72152465281688 L-8.0,92.0 L-5.561968888195494,93.79546979564869" fill="orange" fill-opacity="0.6" stroke="black" stroke-width="1" />
<path d="M-11.168515502709996,-87.72152465281688 L-8.0,-92.0 L-5.561968888195494,-93.79546979564869" fill="purple" fill-opacity="0.6" stroke="black" stroke-width="1" />
<path d="M-8.0,-8.0 L-6.2045302043513155,-5.561968888195494 L0.0,-0.0" fill="brown" fill-opacity="0.6" stroke="black" stroke-width="1" />
<path d="M-8.0,8.0 L-6.2045302043513155,5.561968888195494 L0.0,-0.0" fill="purple" fill-opacity="0.6" stroke="black" stroke-width="1" />
<path d="M56.0,44.0 L73.0,27.0 L76.0,24.0" fill="green" fill-opacity="0.6" stroke="black" stroke-width="1" />
<path d="M56.0,-44.0 L73.0,-27.0 L76.0,-24.0" fill="green" fill-opacity="0.6" stroke="black" stroke-width="1" />
<path d="M50.0,15.0 L64.8903913743091,25.69445506505105 L50.0,36.0" fill="green" fill-opacity="0.6" stroke="black" stroke-width="1" />
<path d="M50.0,-15.0 L64.8903913743091,-25.69445506505105 L50.0,-36.0" fill="purple" fill-opacity="0.6" stroke="black" stroke-width="1" />
<path d="M50.0,40.0 L56.0,44.0 L73.0,27.0" fill="yellow" fill-opacity="0.6" stroke="black" stroke-width="1" />
<path d="M50.0,-40.0 L56.0,-44.0 L73.0,-27.0" fill="pink" fill-opacity="0.6" stroke="black" stroke-width="1" />
<path d="M73.0,27.0 L76.0,24.0 L77.96967895965824,14.353236357735783" fill="pink" fill-opacity="0.6" stroke="black" stroke-width="1" />
<path d="M73.0,-27.0 L76.0,-24.0 L77.96967895965824,-14.353236357735783" fill="pink" fill-opacity="0.6" stroke="black" stroke-width="1" />
<path d="M76.0,24.0 L77.96967895965824,14.353236357735783 L79.87395591803372,13.301348401222302" fill="green" fill-opacity="0.6" stroke="black" stroke-width="1" />
<path d="M76.0,-24.0 L77.96967895965824,-14.353236357735783 L79.87395591803372,-13.301348401222302" fill="brown" fill-opacity="0.6" stroke="black" stroke-width="1" />
<path d="M77.96967895965824,14.353236357735783 L79.87395591803372,13.301348401222302 L87.72152465281688,11.168515502709996" fill="blue" fill-opacity="0.6" stroke="black" stroke-width="1" />
<path d="M77.96967895965824,-14.353236357735783 L79.87395591803372,-13.301348401222302 L87.72152465281688,-11.168515502709996" fill="brown" fill-opacity="0.6" stroke="black" stroke-width="1" />
<path d="M79.87395591803372,13.301348401222302 L87.72152465281688,11.168515502709996 L92.0,8.0" fill="yellow" fill-opacity="0.6" stroke="black" stroke-width="1" />
<path d="M79.87395591803372,-13.301348401222302 L87.72152465281688,-11.168515502709996 L92.0,-8.0" fill="black" fill-opacity="0.6" stroke="black" stroke-width="1" />
<path d="M87.72152465281688,11.168515502709996 L92.0,8.0 L93.79546979564869,5.561968888195494" fill="purple" fill-opacity="0.6" stroke="black" stroke-width="1" />
<path d="M87.72152465281688,-11.168515502709996 L92.0,-8.0 L93.79546979564869,-5.561968888195494" fill="yellow" fill-opacity="0.6" stroke="black" stroke-width="1" />
<path d="M92.0,8.0 L93.79546979564869,5.561968888195494 L100.0,-0.0" fill="pink" fill-opacity="0.6" stroke="black" stroke-width="1" />
<path d="M92.0,-8.0 L93.79546979564869,-5.561968888195494 L100.0,-0.0" fill="green" fill-opacity="0.6" stroke="black" stroke-width="1" />
<path d="M15.0,-50.0 L25.69445506505105,-35.109608625690896 L36.0,-50.0" fill="blue" fill-opacity="0.6" stroke="black" stroke-width="1" />
<path d="M15.0,50.0 L25.69445506505105,35.109608625690896 L36.0,50.0" fill="brown" fill-opacity="0.6" stroke="black" stroke-width="1" />
<path d="M15.0,50.0 L25.69445506505105,64.8903913743091 L36.0,50.0" fill="red" fill-opacity="0.6" stroke="black" stroke-width="1" />
<path d="M15.0,-50.0 L25.69445506505105,-64.8903913743091 L36.0,-50.0" fill="yellow" fill-opacity="0.6" stroke="black" stroke-width="1" />
<path d="M24.0,-24.0 L14.353236357735783,-22.030321040341754 L13.301348401222302,-20.126044081966278" fill="yellow" fill-opacity="0.6" stroke="black" stroke-width="1" />
<path d="M24.0,24.0 L14.353236357735783,22.030321040341754 L13.301348401222302,20.126044081966278" fill="brown" fill-opacity="0.6" stroke="black" stroke-width="1" />
<path d="M24.0,76.0 L14.353236357735783,77.96967895965824 L13.301348401222302,79.87395591803372" fill="pink" fill-opacity="0.6" stroke="black" stroke-width="1" />
<path d="M24.0,-76.0 L14.353236357735783,-77.96967895965824 L13.301348401222302,-79.87395591803372" fill="orange" fill-opacity="0.6" stroke="black" stroke-width="1" />
<path d="M14.353236357735783,-22.030321040341754 L13.301348401222302,-20.126044081966278 L11.168515502709996,-12.278475347183115" fill="pink" fill-opacity="0.6" stroke="black" stroke-width="1" />
<path d="M14.353236357735783,22.030321040341754 L13.301348401222302,20.126044081966278 L11.168515502709996,12.278475347183115" fill="brown" fill-opacity="0.6" stroke="black" stroke-width="1" />
<path d="M14.353236357735783,77.96967895965824 L13.301348401222302,79.87395591803372 L11.168515502709996,87.72152465281688" fill="brown" fill-opacity="0.6" stroke="black" stroke-width="1" />
<path d="M14.353236357735783,-77.96967895965824 L13.301348401222302,-79.87395591803372 L11.168515502709996,-87.72152465281688" fill="blue" fill-opacity="0.6" stroke="black" stroke-width="1" />
<path d="M13.301348401222302,-20.126044081966278 L11.168515502709996,-12.278475347183115 L8.0,-8.0" fill="green" fill-opacity="0.6" stroke="black" stroke-width="1" />
<path d="M13.301348401222302,20.126044081966278 L11.168515502709996,12.278475347183115 L8.0,8.0" fill="red" fill-opacity="0.6" stroke="black" stroke-width="1" />
<path d="M13.301348401222302,79.87395591803372 L11.168515502709996,87.72152465281688 L8.0,92.0" fill="yellow" fill-opacity="0.6" stroke="black" stroke-width="1" />
<path d="M13.301348401222302,-79.87395591803372 L11.168515502709996,-87.72152465281688 L8.0,-92.0" fill="green" fill-opacity="0.6" stroke="black" stroke-width="1" />
<path d="M8.0,-8.0 L5.561968888195494,-6.2045302043513155 L0.0,-0.0" fill="blue" fill-opacity="0.6" stroke="black" stroke-width="1" />
<path d="M8.0,8.0 L5.561968888195494,6.2045302043513155 L0.0,-0.0" fill="orange" fill-opacity="0.6" stroke="black" stroke-width="1" />
<path d="M8.0,92.0 L5.561968888195494,93.79546979564869 L0.0,100.0" fill="green" fill-opacity="0.6" stroke="black" stroke-width="1" />
<path d="M8.0,-92.0 L5.561968888195494,-93.79546979564869 L0.0,-100.0" fill="black" fill-opacity="0.6" stroke="black" stroke-width="1" />
<path d="M-15.0,50.0 L-25.69445506505105,64.8903913743091 L-36.0,50.0" fill="purple" fill-opacity="0.6" stroke="black" stroke-width="1" />
<path d="M-15.0,-50.0 L-25.69445506505105,-35.109608625690896 L-36.0,-50.0" fill="orange" fill-opacity="0.6" stroke="black" stroke-width="1" />
<path d="M-15.0,50.0 L-25.69445506505105,35.109608625690896 L-36.0,50.0" fill="red" fill-opacity="0.6" stroke="black" stroke-width="1" />
<path d="M-15.0,-50.0 L-25.69445506505105,-64.8903913743091 L-36.0,-50.0" fill="yellow" fill-opacity="0.6" stroke="black" stroke-width="1" />
<path d="M-24.0,76.0 L-14.353236357735783,77.96967895965824 L-13.301348401222302,79.87395591803372" fill="green" fill-opacity="0.6" stroke="black" stroke-width="1" />
<path d="M-24.0,-24.0 L-14.353236357735783,-22.030321040341754 L-13.301348401222302,-20.126044081966278" fill="black" fill-opacity="0.6" stroke="black" stroke-width="1" />
<path d="M-24.0,24.0 L-14.353236357735783,22.03032104034176 L-13.301348401222302,20.126044081966285" fill="green" fill-opacity="0.6" stroke="black" stroke-width="1" />
<path d="M-24.0,-76.0 L-14.353236357735783,-77.96967895965824 L-13.301348401222302,-79.87395591803372" fill="orange" fill-opacity="0.6" stroke="black" stroke-width="1" />
<path d="M-14.353236357735783,77.96967895965824 L-13.301348401222302,79.87395591803372 L-11.168515502709996,87.72152465281688" fill="orange" fill-opacity="0.6" stroke="black" stroke-width="1" />
<path d="M-14.353236357735783,-22.030321040341754 L-13.301348401222302,-20.126044081966278 L-11.168515502709996,-12.278475347183115" fill="brown" fill-opacity="0.6" stroke="black" stroke-width="1" />
<path d="M-14.353236357735783,22.03032104034176 L-13.301348401222302,20.126044081966285 L-11.168515502709996,12.278475347183118" fill="pink" fill-opacity="0.6" stroke="black" stroke-width="1" />
<path d="M-14.353236357735783,-77.96967895965824 L-13.301348401222302,-79.87395591803372 L-11.168515502709996,-87.72152465281688" fill="yellow" fill-opacity="0.6" stroke="black" stroke-width="1" />
<path d="M-13.301348401222302,79.87395591803372 L-11.168515502709996,87.72152465281688 L-8.0,92.0" fill="pink" fill-opacity="0.6" stroke="black" stroke-width="1" />
<path d="M-13.301348401222302,-20.126044081966278 L-11.168515502709996,-12.278475347183115 L-8.0,-8.0" fill="brown" fill-opacity="0.6" stroke="black" stroke-width="1" />
<path d="M-13.301348401222302,20.126044081966285 L-11.168515502709996,12.278475347183118 L-8.0,8.0" fill="green" fill-opacity="0.6" stroke="black" stroke-width="1" />
<path d="M-13.301348401222302,-79.87395591803372 L-11.168515502709996,-87.72152465281688 L-8.0,-92.0" fill="orange" fill-opacity="0.6" stroke="black" stroke-width="1" />
<path d="M-8.0,92.0 L-5.561968888195494,93.79546979564869 L0.0,100.0" fill="pink" fill-opacity="0.6" stroke="black" stroke-width="1" />
<path d="M-8.0,-8.0 L-5.561968888195494,-6.2045302043513155 L0.0,-0.0" fill="brown" fill-opacity="0.6" stroke="black" stroke-width="1" />
<path d="M-8.0,8.0 L-5.561968888195494,6.204530204351315 L0.0,-0.0" fill="yellow" fill-opacity="0.6" stroke="black" stroke-width="1" />
<path d="M-8.0,-92.0 L-5.561968888195494,-93.79546979564869 L0.0,-100.0" fill="green" fill-opacity="0.6" stroke="black" stroke-width="1" />
<path d="M-56.0,-44.0 L-73.0,-27.0 L-76.0,-24.0" fill="red" fill-opacity="0.6" stroke="black" stroke-width="1" />
<path d="M-56.0,44.0 L-73.0,27.0 L-76.0,24.0" fill="pink" fill-opacity="0.6" stroke="black" stroke-width="1" />
<path d="M-50.0,-15.0 L-64.8903913743091,-25.69445506505105 L-50.0,-36.0" fill="orange" fill-opacity="0.6" stroke="black" stroke-width="1" />
<path d="M-50.0,15.0 L-64.8903913743091,25.69445506505105 L-50.0,36.0" fill="purple" fill-opacity="0.6" stroke="black" stroke-width="1" />
<path d="M-50.0,-40.0 L-56.0,-44.0 L-73.0,-27.0" fill="orange" fill-opacity="0.6" stroke="black" stroke-width="1" />
<path d="M-50.0,40.0 L-56.0,44.0 L-73.0,27.0" fill="pink" fill-opacity="0.6" stroke="black" stroke-width="1" />
<path d="M-73.0,-27.0 L-76.0,-24.0 L-77.96967895965824,-14.353236357735783" fill="orange" fill-opacity="0.6" stroke="black" stroke-width="1" />
<path d="M-73.0,27.0 L-76.0,24.0 L-77.96967895965824,14.353236357735783" fill="purple" fill-opacity="0.6" stroke="black" stroke-width="1" />
<path d="M-76.0,-24.0 L-77.96967895965824,-14.353236357735783 L-79.87395591803372,-13.301348401222302" fill="red" fill-opacity="0.6" stroke="black" stroke-width="1" />
<path d="M-76.0,24.0 L-77.96967895965824,14.353236357735783 L-79.87395591803372,13.301348401222302" fill="blue" fill-opacity="0.6" stroke="black" stroke-width="1" />
<path d="M-77.96967895965824,-14.353236357735783 L-79.87395591803372,-13.301348401222302 L-87.72152465281688,-11.168515502709996" fill="green" fill-opacity="0.6" stroke="black" stroke-width="1" />
<path d="M-77.96967895965824,14.353236357735783 L-79.87395591803372,13.301348401222302 L-87.72152465281688,11.168515502709996" fill="green" fill-opacity="0.6" stroke="black" stroke-width="1" />
<path d="M-79.87395591803372,-13.301348401222302 L-87.72152465281688,-11.168515502709996 L-92.0,-8.0" fill="blue" fill-opacity="0.6" stroke="black" stroke-width="1" />
<path d="M-79.87395591803372,13.301348401222302 L-87.72152465281688,11.168515502709996 L-92.0,8.0" fill="pink" fill-opacity="0.6" stroke="black" stroke-width="1" />
<path d="M-87.72152465281688,-11.168515502709996 L-92.0,-8.0 L-93.79546979564869,-5.561968888195494" fill="black" fill-opacity="0.6" stroke="black" stroke-width="1" />
<path d="M-87.72152465281688,11.168515502709996 L-92.0,8.0 L-93.79546979564869,5.561968888195494" fill="pink" fill-opacity="0.6" stroke="black" stroke-width="1" />
<path d="M-92.0,-8.0 L-93.79546979564869,-5.561968888195494 L-100.0,-0.0" fill="blue" fill-opacity="0.6" stroke="black" stroke-width="1" />
<path d="M-92.0,8.0 L-93.79546979564869,5.561968888195494 L-100.0,-0.0" fill="yellow" fill-opacity="0.6" stroke="black" stroke-width="1" />
</svg>