<?xml version="1.0" encoding="UTF-8"?>
<svg xmlns="http://www.w3.org/2000/svg" xmlns:xlink="http://www.w3.org/1999/xlink"
     width="250" height="250" viewBox="-125.0 -125.0 250 250">
<defs>
</defs>
<path d="M0.0,-0.0 L10.343448490036904,-0.836499518110706 L10.894948982705777,-1.3407950725654316" fill="pink" fill-opacity="0.6" stroke="black" stroke-width="1" />
<path d="M0.0,-0.0 L10.343448490036904,0.836499518110706 L10.894948982705777,1.3407950725654316" fill="orange" fill-opacity="0.6" stroke="black" stroke-width="1" />
<path d="M10.343448490036904,-0.836499518110706 L10.894948982705777,-1.3407950725654316 L15.0,-0.0" fill="purple" fill-opacity="0.6" stroke="black" stroke-width="1" />
<path d="M10.343448490036904,0.836499518110706 L10.894948982705777,1.3407950725654316 L15.0,-0.0" fill="yellow" fill-opacity="0.6" stroke="black" stroke-width="1" />
<path d="M15.0,-0.0 L16.154796516021353,-2.0531020119451404 L17.513928947549704,-2.3332877652558115" fill="brown" fill-opacity="0.6" stroke="black" stroke-width="1" />
<path d="M15.0,-0.0 L16.154796516021353,2.0531020119451404 L17.513928947549704,2.3332877652558115" fill="yellow" fill-opacity="0.6" stroke="black" stroke-width="1" />
<path d="M16.154796516021353,-2.0531020119451404 L17.513928947549704,-2.3332877652558115 L19.763579115628193,-3.1108512253103973" fill="orange" fill-opacity="0.6" stroke="black" stroke-width="1" />
<path d="M16.154796516021353,2.0531020119451404 L17.513928947549704,2.3332877652558115 L19.763579115628193,3.1108512253103973" fill="brown" fill-opacity="0.6" stroke="black" stroke-width="1" />
<path d="M17.513928947549704,-2.3332877652558115 L19.763579115628193,-3.1108512253103973 L21.784117468152587,-3.5537483758314616" fill="pink" fill-opacity="0.6" stroke="black" stroke-width="1" />
<path d="M17.513928947549704,2.3332877652558115 L19.763579115628193,3.1108512253103973 L21.784117468152587,3.5537483758314616" fill="orange" fill-opacity="0.6" stroke="black" stroke-width="1" />
<path d="M19.763579115628193,-3.1108512253103973 L21.784117468152587,-3.5537483758314616 L22.82441300510887,-5.067637167865718" fill="green" fill-opacity="0.6" stroke="black" stroke-width="1" />
<path d="M19.763579115628193,3.1108512253103973 L21.784117468152587,3.5537483758314616 L22.82441300510887,5.067637167865718" fill="pink" fill-opacity="0.6" stroke="black" stroke-width="1" />
<path d="M21.784117468152587,-3.5537483758314616 L22.82441300510887,-5.067637167865718 L24.918656488143636,-6.905115503225209" fill="green" fill-opacity="0.6" stroke="black" stroke-width="1" />
<path d="M21.784117468152587,3.5537483758314616 L22.82441300510887,5.067637167865718 L24.918656488143636,6.905115503225209" fill="red" fill-opacity="0.6" stroke="black" stroke-width="1" />
<path d="M22.82441300510887,-5.067637167865718 L24.918656488143636,-6.905115503225209 L25.864309872307373,-7.68581061409633" fill="pink" fill-opacity="0.6" stroke="black" stroke-width="1" />
<path d="M22.82441300510887,5.067637167865718 L24.918656488143636,6.905115503225209 L25.864309872307373,7.68581061409633" fill="pink" fill-opacity="0.6" stroke="black" stroke-width="1" />
<path d="M24.918656488143636,-6.905115503225209 L25.864309872307373,-7.68581061409633 L39.85389512178118,-9.283902175324554" fill="yellow" fill-opacity="0.6" stroke="black" stroke-width="1" />
<path d="M24.918656488143636,6.905115503225209 L25.864309872307373,7.68581061409633 L39.85389512178118,9.283902175324554" fill="yellow" fill-opacity="0.6" stroke="black" stroke-width="1" />
<path d="M25.864309872307373,-7.68581061409633 L39.85389512178118,-9.283902175324554 L49.0,-0.0" fill="pink" fill-opacity="0.6" stroke="black" stroke-width="1" />
<path d="M25.864309872307373,7.68581061409633 L39.85389512178118,9.283902175324554 L49.0,-0.0" fill="purple" fill-opacity="0.6" stroke="black" stroke-width="1" />
<path d="M50.0,-11.0 L41.54023989128835,-13.821397480362208 L42.33254696755149,-14.82168583430419" fill="pink" fill-opacity="0.6" stroke="black" stroke-width="1" />
<path d="M50.0,11.0 L41.54023989128835,13.821397480362208 L42.33254696755149,14.82168583430419" fill="green" fill-opacity="0.6" stroke="black" stroke-width="1" />
<path d="M41.54023989128835,-13.821397480362208 L42.33254696755149,-14.82168583430419 L44.84179192112102,-16.254318320505" fill="green" fill-opacity="0.6" stroke="black" stroke-width="1" />
<path d="M41.54023989128835,13.821397480362208 L42.33254696755149,14.82168583430419 L44.84179192112102,16.254318320505" fill="orange" fill-opacity="0.6" stroke="black" stroke-width="1" />
<path d="M42.33254696755149,-14.82168583430419 L44.84179192112102,-16.254318320505 L48.23605370169511,-16.715568106037455" fill="blue" fill-opacity="0.6" stroke="black" stroke-width="1" />
<path d="M42.33254696755149,14.82168583430419 L44.84179192112102,16.254318320505 L48.23605370169511,16.715568106037455" fill="red" fill-opacity="0.6" stroke="black" stroke-width="1" />
<path d="M44.84179192112102,-16.254318320505 L48.23605370169511,-16.715568106037455 L50.0,-37.0" fill="red" fill-opacity="0.6" stroke="black" stroke-width="1" />
<path d="M44.84179192112102,16.254318320505 L48.23605370169511,16.715568106037455 L50.0,37.0" fill="orange" fill-opacity="0.6" stroke="black" stroke-width="1" />
<path d="M50.0,50.0 L43.0,57.0 L28.0,72.0" fill="brown" fill-opacity="0.6" stroke="black" stroke-width="1" />
<path d="M50.0,-50.0 L43.0,-57.0 L28.0,-72.0" fill="purple" fill-opacity="0.6" stroke="black" stroke-width="1" />
<path d="M43.0,57.0 L28.0,72.0 L6.0,94.0" fill="black" fill-opacity="0.6" stroke="black" stroke-width="1" />
<path d="M43.0,-57.0 L28.0,-72.0 L6.0,-94.0" fill="black" fill-opacity="0.6" stroke="black" stroke-width="1" />
<path d="M28.0,72.0 L6.0,94.0 L0.4420161180439197,94.49571812579958" fill="black" fill-opacity="0.6" stroke="black" stroke-width="1" />
<path d="M28.0,-72.0 L6.0,-94.0 L0.4420161180439197,-94.49571812579958" fill="black" fill-opacity="0.6" stroke="black" stroke-width="1" />
<path d="M6.0,-6.0 L5.504281874200412,-0.4420161180439197 L4.426708117184763,-0.23966591972126583" fill="pink" fill-opacity="0.6" stroke="black" stroke-width="1" />
<path d="M6.0,6.0 L5.504281874200412,0.4420161180439197 L4.426708117184763,0.23966591972126583" fill="red" fill-opacity="0.6" stroke="black" stroke-width="1" />
<path d="M5.504281874200412,-0.4420161180439197 L4.426708117184763,-0.23966591972126583 L0.6376454296224687,-0.2120108865140938" fill="green" fill-opacity="0.6" stroke="black" stroke-width="1" />
<path d="M5.504281874200412,0.4420161180439197 L4.426708117184763,0.23966591972126583 L0.6376454296224687,0.2120108865140938" fill="black" fill-opacity="0.6" stroke="black" stroke-width="1" />
<path d="M4.426708117184763,-0.23966591972126583 L0.6376454296224687,-0.2120108865140938 L0.0,-0.0" fill="black" fill-opacity="0.6" stroke="black" stroke-width="1" />
<path d="M4.426708117184763,0.23966591972126583 L0.6376454296224687,0.2120108865140938 L0.0,-0.0" fill="blue" fill-opacity="0.6" stroke="black" stroke-width="1" />
<path d="M0.0,-0.0 L-10.343448490036904,-0.836499518110706 L-10.894948982705777,-1.3407950725654316" fill="pink" fill-opacity="0.6" stroke="black" stroke-width="1" />
<path d="M0.0,-0.0 L-10.343448490036904,0.836499518110706 L-10.894948982705777,1.3407950725654316" fill="brown" fill-opacity="0.6" stroke="black" stroke-width="1" />
<path d="M-10.343448490036904,-0.836499518110706 L-10.894948982705777,-1.3407950725654316 L-15.0,-0.0" fill="brown" fill-opacity="0.6" stroke="black" stroke-width="1" />
<path d="M-10.343448490036904,0.836499518110706 L-10.894948982705777,1.3407950725654316 L-15.0,-0.0" fill="blue" fill-opacity="0.6" stroke="black" stroke-width="1" />
<path d="M-15.0,-0.0 L-16.154796516021353,-2.0531020119451404 L-17.513928947549704,-2.3332877652558115" fill="purple" fill-opacity="0.6" stroke="black" stroke-width="1" />
<path d="M-15.0,-0.0 L-16.154796516021353,2.0531020119451404 L-17.513928947549704,2.3332877652558115" fill="green" fill-opacity="0.6" stroke="black" stroke-width="1" />
<path d="M-16.154796516021353,-2.0531020119451404 L-17.513928947549704,-2.3332877652558115 L-19.763579115628193,-3.1108512253103973" fill="brown" fill-opacity="0.6" stroke="black" stroke-width="1" />
<path d="M-16.154796516021353,2.0531020119451404 L-17.513928947549704,2.3332877652558115 L-19.763579115628193,3.1108512253103973" fill="yellow" fill-opacity="0.6" stroke="black" stroke-width="1" />
<path d="M-17.513928947549704,-2.3332877652558115 L-19.763579115628193,-3.1108512253103973 L-21.784117468152587,-3.5537483758314616" fill="yellow" fill-opacity="0.6" stroke="black" stroke-width="1" />
<path d="M-17.513928947549704,2.3332877652558115 L-19.763579115628193,3.1108512253103973 L-21.784117468152587,3.5537483758314616" fill="green" fill-opacity="0.6" stroke="black" stroke-width="1" />
<path d="M-19.763579115628193,-3.1108512253103973 L-21.784117468152587,-3.5537483758314616 L-22.82441300510887,-5.067637167865718" fill="yellow" fill-opacity="0.6" stroke="black" stroke-width="1" />
<path d="M-19.763579115628193,3.1108512253103973 L-21.784117468152587,3.5537483758314616 L-22.82441300510887,5.067637167865718" fill="purple" fill-opacity="0.6" stroke="black" stroke-width="1" />
<path d="M-21.784117468152587,-3.5537483758314616 L-22.82441300510887,-5.067637167865718 L-24.918656488143636,-6.905115503225209" fill="purple" fill-opacity="0.6" stroke="black" stroke-width="1" />
<path d="M-21.784117468152587,3.5537483758314616 L-22.82441300510887,5.067637167865718 L-24.918656488143636,6.905115503225209" fill="orange" fill-opacity="0.6" stroke="black" stroke-width="1" />
<path d="M-22.82441300510887,-5.067637167865718 L-24.918656488143636,-6.905115503225209 L-25.864309872307373,-7.68581061409633" fill="yellow" fill-opacity="0.6" stroke="black" stroke-width="1" />
<path d="M-22.82441300510887,5.067637167865718 L-24.918656488143636,6.905115503225209 L-25.864309872307373,7.68581061409633" fill="black" fill-opacity="0.6" stroke="black" stroke-width="1" />
<path d="M-24.918656488143636,-6.905115503225209 L-25.864309872307373,-7.68581061409633 L-39.85389512178118,-9.283902175324554" fill="green" fill-opacity="0.6" stroke="black" stroke-width="1" />
<path d="M-24.918656488143636,6.905115503225209 L-25.864309872307373,7.68581061409633 L-39.85389512178118,9.283902175324554" fill="green" fill-opacity="0.6" stroke="black" stroke-width="1" />
<path d="M-25.864309872307373,-7.68581061409633 L-39.85389512178118,-9.283902175324554 L-49.0,-0.0" fill="brown" fill-opacity="0.6" stroke="black" stroke-width="1" />
<path d="M-25.864309872307373,7.68581061409633 L-39.85389512178118,9.283902175324554 L-49.0,-0.0" fill="yellow" fill-opacity="0.6" stroke="black" stroke-width="1" />
<path d="M-50.0,-11.0 L-41.54023989128835,-13.821397480362208 L-42.33254696755149,-14.82168583430419" fill="red" fill-opacity="0.6" stroke="black" stroke-width="1" />
<path d="M-50.0,11.0 L-41.54023989128835,13.821397480362208 L-42.33254696755149,14.82168583430419" fill="yellow" fill-opacity="0.6" stroke="black" stroke-width="1" />
<path d="M-41.54023989128835,-13.821397480362208 L-42.33254696755149,-14.82168583430419 L-44.84179192112102,-16.254318320505" fill="black" fill-opacity="0.6" stroke="black" stroke-width="1" />
<path d="M-41.54023989128835,13.821397480362208 L-42.33254696755149,14.82168583430419 L-44.84179192112102,16.254318320505" fill="orange" fill-opacity="0.6" stroke="black" stroke-width="1" />
<path d="M-42.33254696755149,-14.82168583430419 L-44.84179192112102,-16.254318320505 L-48.23605370169511,-16.715568106037455" fill="yellow" fill-opacity="0.6" stroke="black" stroke-width="1" />
<path d="M-42.33254696755149,14.82168583430419 L-44.84179192112102,16.254318320505 L-48.23605370169511,16.715568106037455" fill="yellow" fill-opacity="0.6" stroke="black" stroke-width="1" />
<path d="M-44.84179192112102,-16.254318320505 L-48.23605370169511,-16.715568106037455 L-50.0,-37.0" fill="brown" fill-opacity="0.6" stroke="black" stroke-width="1" />
<path d="M-44.84179192112102,16.254318320505 L-48.23605370169511,16.715568106037455 L-50.0,37.0" fill="red" fill-opacity="0.6" stroke="black" stroke-width="1" />
<path d="M-50.0,50.0 L-43.0,57.0 L-28.0,72.0" fill="black" fill-opacity="0.6" stroke="black" stroke-width="1" />
<path d="M-50.0,-50.0 L-43.0,-57.0 L-28.0,-72.0" fill="purple" fill-opacity="0.6" stroke="black" stroke-width="1" />
<path d="M-43.0,57.0 L-28.0,72.0 L-6.0,94.0" fill="pink" fill-opacity="0.6" stroke="black" stroke-width="1" />
<path d="M-43.0,-57.0 L-28.0,-72.0 L-6.0,-94.0" fill="green" fill-opacity="0.6" stroke="black" stroke-width="1" />
<path d="M-28.0,72.0 L-6.0,94.0 L-0.4420161180439197,94.49571812579958" fill="pink" fill-opacity="0.6" stroke="black" stroke-width="1" />
<path d="M-28.0,-72.0 L-6.0,-94.0 L-0.4420161180439197,-94.49571812579958" fill="orange" fill-opacity="0.6" stroke="black" stroke-width="1" />
<path d="M-6.0,-6.0 L-5.504281874200412,-0.4420161180439197 L-4.426708117184763,-0.23966591972126583" fill="pink" fill-opacity="0.6" stroke="black" stroke-width="1" />
<path d="M-6.0,6.0 L-5.504281874200412,0.4420161180439197 L-4.426708117184763,0.23966591972126583" fill="brown" fill-opacity="0.6" stroke="black" stroke-width="1" />
<path d="M-5.504281874200412,-0.4420161180439197 L-4.426708117184763,-0.23966591972126583 L-0.6376454296224687,-0.2120108865140938" fill="blue" fill-opacity="0.6" stroke="black" stroke-width="1" />
<path d="M-5.504281874200412,0.4420161180439197 L-4.426708117184763,0.23966591972126583 L-0.6376454296224687,0.2120108865140938" fill="blue" fill-opacity="0.6" stroke="black" stroke-width="1" />
<path d="M-4.426708117184763,-0.23966591972126583 L-0.6376454296224687,-0.2120108865140938 L0.0,-0.0" fill="pink" fill-opacity="0.6" stroke="black" stroke-width="1" />
<path d="M-4.426708117184763,0.23966591972126583 L-0.6376454296224687,0.2120108865140938 L0.0,-0.0" fill="pink" fill-opacity="0.6" stroke="black" stroke-width="1" />
<path d="M100.0,-0.0 L89.6565515099631,0.836499518110706 L89.10505101729422,1.3407950725654316" fill="red" fill-opacity="0.6" stroke="black" stroke-width="1" />
<path d="M100.0,-0.0 L89.6565515099631,-0.836499518110706 L89.10505101729422,-1.3407950725654316" fill="brown" fill-opacity="0.6" stroke="black" stroke-width="1" />
<path d="M89.6565515099631,0.836499518110706 L89.10505101729422,1.3407950725654316 L85.0,-0.0" fill="pink" fill-opacity="0.6" stroke="black" stroke-width="1" />
<path d="M89.6565515099631,-0.836499518110706 L89.10505101729422,-1.3407950725654316 L85.0,-0.0" fill="black" fill-opacity="0.6" stroke="black" stroke-width="1" />
<path d="M85.0,-0.0 L83.84520348397865,2.0531020119451404 L82.4860710524503,2.3332877652558115" fill="purple" fill-opacity="0.6" stroke="black" stroke-width="1" />
<path d="M85.0,-0.0 L83.84520348397865,-2.0531020119451404 L82.4860710524503,-2.3332877652558115" fill="green" fill-opacity="0.6" stroke="black" stroke-width="1" />
<path d="M83.84520348397865,2.0531020119451404 L82.4860710524503,2.3332877652558115 L80.23642088437181,3.1108512253103973" fill="pink" fill-opacity="0.6" stroke="black" stroke-width="1" />
<path d="M83.84520348397865,-2.0531020119451404 L82.4860710524503,-2.3332877652558115 L80.23642088437181,-3.1108512253103973" fill="orange" fill-opacity="0.6" stroke="black" stroke-width="1" />
<path d="M82.4860710524503,2.3332877652558115 L80.23642088437181,3.1108512253103973 L78.21588253184741,3.5537483758314616" fill="red" fill-opacity="0.6" stroke="black" stroke-width="1" />
<path d="M82.4860710524503,-2.3332877652558115 L80.23642088437181,-3.1108512253103973 L78.21588253184741,-3.5537483758314616" fill="orange" fill-opacity="0.6" stroke="black" stroke-width="1" />
<path d="M80.23642088437181,3.1108512253103973 L78.21588253184741,3.5537483758314616 L77.17558699489113,5.067637167865718" fill="purple" fill-opacity="0.6" stroke="black" stroke-width="1" />
<path d="M80.23642088437181,-3.1108512253103973 L78.21588253184741,-3.5537483758314616 L77.17558699489113,-5.067637167865718" fill="blue" fill-opacity="0.6" stroke="black" stroke-width="1" />
<path d="M78.21588253184741,3.5537483758314616 L77.17558699489113,5.067637167865718 L75.08134351185636,6.905115503225209" fill="red" fill-opacity="0.6" stroke="black" stroke-width="1" />
<path d="M78.21588253184741,-3.5537483758314616 L77.17558699489113,-5.067637167865718 L75.08134351185636,-6.905115503225209" fill="orange" fill-opacity="0.6" stroke="black" stroke-width="1" />
<path d="M77.17558699489113,5.067637167865718 L75.08134351185636,6.905115503225209 L74.13569012769263,7.68581061409633" fill="orange" fill-opacity="0.6" stroke="black" stroke-width="1" />
<path d="M77.17558699489113,-5.067637167865718 L75.08134351185636,-6.905115503225209 L74.13569012769263,-7.68581061409633" fill="black" fill-opacity="0.6" stroke="black" stroke-width="1" />
<path d="M75.08134351185636,6.905115503225209 L74.13569012769263,7.68581061409633 L60.14610487821882,9.283902175324554" fill="purple" fill-opacity="0.6" stroke="black" stroke-width="1" />
<path d="M75.08134351185636,-6.905115503225209 L74.13569012769263,-7.68581061409633 L60.14610487821882,-9.283902175324554" fill="yellow" fill-opacity="0.6" stroke="black" stroke-width="1" />
<path d="M74.13569012769263,7.68581061409633 L60.14610487821882,9.283902175324554 L51.0,-0.0" fill="orange" fill-opacity="0.6" stroke="black" stroke-width="1" />
<path d="M74.13569012769263,-7.68581061409633 L60.14610487821882,-9.283902175324554 L51.0,-0.0" fill="purple" fill-opacity="0.6" stroke="black" stroke-width="1" />
<path d="M50.0,11.0 L58.45976010871165,13.821397480362208 L57.66745303244851,14.82168583430419" fill="yellow" fill-opacity="0.6" stroke="black" stroke-width="1" />
<path d="M50.0,-11.0 L58.45976010871165,-13.821397480362208 L57.66745303244851,-14.82168583430419" fill="green" fill-opacity="0.6" stroke="black" stroke-width="1" />
<path d="M58.45976010871165,13.821397480362208 L57.66745303244851,14.82168583430419 L55.15820807887898,16.254318320505" fill="yellow" fill-opacity="0.6" stroke="black" stroke-width="1" />
<path d="M58.45976010871165,-13.821397480362208 L57.66745303244851,-14.82168583430419 L55.15820807887898,-16.254318320505" fill="yellow" fill-opacity="0.6" stroke="black" stroke-width="1" />
<path d="M57.66745303244851,14.82168583430419 L55.15820807887898,16.254318320505 L51.76394629830489,16.715568106037455" fill="brown" fill-opacity="0.6" stroke="black" stroke-width="1" />
<path d="M57.66745303244851,-14.82168583430419 L55.15820807887898,-16.254318320505 L51.76394629830489,-16.715568106037455" fill="blue" fill-opacity="0.6" stroke="black" stroke-width="1" />
<path d="M55.15820807887898,16.254318320505 L51.76394629830489,16.715568106037455 L50.0,37.0" fill="yellow" fill-opacity="0.6" stroke="black" stroke-width="1" />
<path d="M55.15820807887898,-16.254318320505 L51.76394629830489,-16.715568106037455 L50.0,-37.0" fill="yellow" fill-opacity="0.6" stroke="black" stroke-width="1" />
<path d="M50.0,50.0 L57.0,43.0 L72.0,28.0" fill="black" fill-opacity="0.6" stroke="black" stroke-width="1" />
<path d="M50.0,-50.0 L57.0,-43.0 L72.0,-28.0" fill="brown" fill-opacity="0.6" stroke="black" stroke-width="1" />
<path d="M57.0,43.0 L72.0,28.0 L94.0,6.0" fill="green" fill-opacity="0.6" stroke="black" stroke-width="1" />
<path d="M57.0,-43.0 L72.0,-28.0 L94.0,-6.0" fill="green" fill-opacity="0.6" stroke="black" stroke-width="1" />
<path d="M72.0,28.0 L94.0,6.0 L94.49571812579958,0.4420161180439197" fill="purple" fill-opacity="0.6" stroke="black" stroke-width="1" />
<path d="M72.0,-28.0 L94.0,-6.0 L94.49571812579958,-0.4420161180439197" fill="orange" fill-opacity="0.6" stroke="black" stroke-width="1" />
<path d="M94.0,6.0 L94.49571812579958,0.4420161180439197 L95.57329188281524,0.23966591972126583" fill="brown" fill-opacity="0.6" stroke="black" stroke-width="1" />
<path d="M94.0,-6.0 L94.49571812579958,-0.4420161180439197 L95.57329188281524,-0.23966591972126583" fill="orange" fill-opacity="0.6" stroke="black" stroke-width="1" />
<path d="M94.49571812579958,0.4420161180439197 L95.57329188281524,0.23966591972126583 L99.36235457037753,0.2120108865140938" fill="pink" fill-opacity="0.6" stroke="black" stroke-width="1" />
<path d="M94.49571812579958,-0.4420161180439197 L95.57329188281524,-0.23966591972126583 L99.36235457037753,-0.2120108865140938" fill="orange" fill-opacity="0.6" stroke="black" stroke-width="1" />
<path d="M95.57329188281524,0.23966591972126583 L99.36235457037753,0.2120108865140938 L100.0,-0.0" fill="red" fill-opacity="0.6" stroke="black" stroke-width="1" />
<path d="M95.57329188281524,-0.23966591972126583 L99.36235457037753,-0.2120108865140938 L100.0,-0.0" fill="black" fill-opacity="0.6" stroke="black" stroke-width="1" />
<path d="M0.0,-0.0 L0.836499518110706,-10.343448490036904 L1.3407950725654316,-10.894948982705777" fill="yellow" fill-opacity="0.6" stroke="black" stroke-width="1" />
<path d="M0.0,-0.0 L0.836499518110706,10.343448490036904 L1.3407950725654316,10.894948982705777" fill="red" fill-opacity="0.6" stroke="black" stroke-width="1" />
<path d="M0.0,100.0 L0.836499518110706,89.6565515099631 L1.3407950725654316,89.10505101729422" fill="orange" fill-opacity="0.6" stroke="black" stroke-width="1" />
<path d="M0.0,-100.0 L0.836499518110706,-89.6565515099631 L1.3407950725654316,-89.10505101729422" fill="green" fill-opacity="0.6" stroke="black" stroke-width="1" />
<path d="M0.836499518110706,-10.343448490036904 L1.3407950725654316,-10.894948982705777 L0.0,-15.0" fill="yellow" fill-opacity="0.6" stroke="black" stroke-width="1" />
<path d="M0.836499518110706,10.343448490036904 L1.3407950725654316,10.894948982705777 L0.0,15.0" fill="red" fill-opacity="0.6" stroke="black" stroke-width="1" />
<path d="M0.836499518110706,89.6565515099631 L1.3407950725654316,89.10505101729422 L0.0,85.0" fill="brown" fill-opacity="0.6" stroke="black" stroke-width="1" />
<path d="M0.836499518110706,-89.6565515099631 L1.3407950725654316,-89.10505101729422 L0.0,-85.0" fill="orange" fill-opacity="0.6" stroke="black" stroke-width="1" />
<path d="M0.0,-15.0 L2.0531020119451404,-16.154796516021353 L2.3332877652558115,-17.513928947549704" fill="orange" fill-opacity="0.6" stroke="black" stroke-width="1" />
<path d="M0.0,15.0 L2.0531020119451404,16.154796516021353 L2.3332877652558115,17.513928947549704" fill="orange" fill-opacity="0.6" stroke="black" stroke-width="1" />
<path d="M0.0,85.0 L2.0531020119451404,83.84520348397865 L2.3332877652558115,82.4860710524503" fill="brown" fill-opacity="0.6" stroke="black" stroke-width="1" />
<path d="M0.0,-85.0 L2.0531020119451404,-83.84520348397865 L2.3332877652558115,-82.4860710524503" fill="red" fill-opacity="0.6" stroke="black" stroke-width="1" />
<path d="M2.0531020119451404,-16.154796516021353 L2.3332877652558115,-17.513928947549704 L3.1108512253103973,-19.763579115628193" fill="green" fill-opacity="0.6" stroke="black" stroke-width="1" />
<path d="M2.0531020119451404,16.154796516021353 L2.3332877652558115,17.513928947549704 L3.1108512253103973,19.763579115628193" fill="orange" fill-opacity="0.6" stroke="black" stroke-width="1" />
<path d="M2.0531020119451404,83.84520348397865 L2.3332877652558115,82.4860710524503 L3.1108512253103973,80.23642088437181" fill="pink" fill-opacity="0.6" stroke="black" stroke-width="1" />
<path d="M2.0531020119451404,-83.84520348397865 L2.3332877652558115,-82.4860710524503 L3.1108512253103973,-80.23642088437181" fill="green" fill-opacity="0.6" stroke="black" stroke-width="1" />
<path d="M2.3332877652558115,-17.513928947549704 L3.1108512253103973,-19.763579115628193 L3.5537483758314616,-21.784117468152587" fill="yellow" fill-opacity="0.6" stroke="black" stroke-width="1" />
<path d="M2.3332877652558115,17.513928947549704 L3.1108512253103973,19.763579115628193 L3.5537483758314616,21.784117468152587" fill="green" fill-opacity="0.6" stroke="black" stroke-width="1" />
<path d="M2.3332877652558115,82.4860710524503 L3.1108512253103973,80.23642088437181 L3.5537483758314616,78.21588253184741" fill="yellow" fill-opacity="0.6" stroke="black" stroke-width="1" />
<path d="M2.3332877652558115,-82.4860710524503 L3.1108512253103973,-80.23642088437181 L3.5537483758314616,-78.21588253184741" fill="green" fill-opacity="0.6" stroke="black" stroke-width="1" />
<path d="M3.1108512253103973,-19.763579115628193 L3.5537483758314616,-21.784117468152587 L5.067637167865718,-22.82441300510887" fill="purple" fill-opacity="0.6" stroke="black" stroke-width="1" />
<path d="M3.1108512253103973,19.763579115628193 L3.5537483758314616,21.784117468152587 L5.067637167865718,22.82441300510887" fill="orange" fill-opacity="0.6" stroke="black" stroke-width="1" />
<path d="M3.1108512253103973,80.23642088437181 L3.5537483758314616,78.21588253184741 L5.067637167865718,77.17558699489113" fill="pink" fill-opacity="0.6" stroke="black" stroke-width="1" />
<path d="M3.1108512253103973,-80.23642088437181 L3.5537483758314616,-78.21588253184741 L5.067637167865718,-77.17558699489113" fill="blue" fill-opacity="0.6" stroke="black" stroke-width="1" />
<path d="M3.5537483758314616,-21.784117468152587 L5.067637167865718,-22.82441300510887 L6.905115503225209,-24.918656488143636" fill="black" fill-opacity="0.6" stroke="black" stroke-width="1" />
<path d="M3.5537483758314616,21.784117468152587 L5.067637167865718,22.82441300510887 L6.905115503225209,24.918656488143636" fill="red" fill-opacity="0.6" stroke="black" stroke-width="1" />
<path d="M3.5537483758314616,78.21588253184741 L5.067637167865718,77.17558699489113 L6.905115503225209,75.08134351185636" fill="purple" fill-opacity="0.6" stroke="black" stroke-width="1" />
<path d="M3.5537483758314616,-78.21588253184741 L5.067637167865718,-77.17558699489113 L6.905115503225209,-75.08134351185636" fill="black" fill-opacity="0.6" stroke="black" stroke-width="1" />
<path d="M5.067637167865718,-22.82441300510887 L6.905115503225209,-24.918656488143636 L7.68581061409633,-25.864309872307373" fill="brown" fill-opacity="0.6" stroke="black" stroke-width="1" />
<path d="M5.067637167865718,22.82441300510887 L6.905115503225209,24.918656488143636 L7.68581061409633,25.864309872307373" fill="pink" fill-opacity="0.6" stroke="black" stroke-width="1" />
<path d="M5.067637167865718,77.17558699489113 L6.905115503225209,75.08134351185636 L7.68581061409633,74.13569012769263" fill="black" fill-opacity="0.6" stroke="black" stroke-width="1" />
<path d="M5.067637167865718,-77.17558699489113 L6.905115503225209,-75.08134351185636 L7.68581061409633,-74.13569012769263" fill="red" fill-opacity="0.6" stroke="black" stroke-width="1" />
<path d="M6.905115503225209,-24.918656488143636 L7.68581061409633,-25.864309872307373 L9.283902175324554,-39.85389512178118" fill="yellow" fill-opacity="0.6" stroke="black" stroke-width="1" />
<path d="M6.905115503225209,24.918656488143636 L7.68581061409633,25.864309872307373 L9.283902175324554,39.85389512178118" fill="purple" fill-opacity="0.6" stroke="black" stroke-width="1" />
<path d="M6.905115503225209,75.08134351185636 L7.68581061409633,74.13569012769263 L9.283902175324554,60.14610487821882" fill="pink" fill-opacity="0.6" stroke="black" stroke-width="1" />
<path d="M6.905115503225209,-75.08134351185636 L7.68581061409633,-74.13569012769263 L9.283902175324554,-60.14610487821882" fill="blue" fill-opacity="0.6" stroke="black" stroke-width="1" />
<path d="M7.68581061409633,-25.864309872307373 L9.283902175324554,-39.85389512178118 L0.0,-49.0" fill="blue" fill-opacity="0.6" stroke="black" stroke-width="1" />
<path d="M7.68581061409633,25.864309872307373 L9.283902175324554,39.85389512178118 L0.0,49.0" fill="red" fill-opacity="0.6" stroke="black" stroke-width="1" />
<path d="M7.68581061409633,74.13569012769263 L9.283902175324554,60.14610487821882 L0.0,51.0" fill="blue" fill-opacity="0.6" stroke="black" stroke-width="1" />
<path d="M7.68581061409633,-74.13569012769263 L9.283902175324554,-60.14610487821882 L0.0,-51.0" fill="purple" fill-opacity="0.6" stroke="black" stroke-width="1" />
<path d="M11.0,-50.0 L13.821397480362208,-41.54023989128835 L14.82168583430419,-42.33254696755149" fill="black" fill-opacity="0.6" stroke="black" stroke-width="1" />
<path d="M11.0,50.0 L13.821397480362208,41.54023989128835 L14.82168583430419,42.33254696755149" fill="blue" fill-opacity="0.6" stroke="black" stroke-width="1" />
<path d="M11.0,50.0 L13.821397480362208,58.45976010871165 L14.82168583430419,57.66745303244851" fill="yellow" fill-opacity="0.6" stroke="black" stroke-width="1" />
<path d="M11.0,-50.0 L13.821397480362208,-58.45976010871165 L14.82168583430419,-57.66745303244851" fill="brown" fill-opacity="0.6" stroke="black" stroke-width="1" />
<path d="M13.821397480362208,-41.54023989128835 L14.82168583430419,-42.33254696755149 L16.254318320505,-44.84179192112102" fill="purple" fill-opacity="0.6" stroke="black" stroke-width="1" />
<path d="M13.821397480362208,41.54023989128835 L14.82168583430419,42.33254696755149 L16.254318320505,44.84179192112102" fill="pink" fill-opacity="0.6" stroke="black" stroke-width="1" />
<path d="M13.821397480362208,58.45976010871165 L14.82168583430419,57.66745303244851 L16.254318320505,55.15820807887898" fill="orange" fill-opacity="0.6" stroke="black" stroke-width="1" />
<path d="M13.821397480362208,-58.45976010871165 L14.82168583430419,-57.66745303244851 L16.254318320505,-55.15820807887898" fill="green" fill-opacity="0.6" stroke="black" stroke-width="1" />
<path d="M14.82168583430419,-42.33254696755149 L16.254318320505,-44.84179192112102 L16.715568106037455,-48.23605370169511" fill="yellow" fill-opacity="0.6" stroke="black" stroke-width="1" />
<path d="M14.82168583430419,42.33254696755149 L16.254318320505,44.84179192112102 L16.715568106037455,48.23605370169511" fill="yellow" fill-opacity="0.6" stroke="black" stroke-width="1" />
<path d="M14.82168583430419,57.66745303244851 L16.254318320505,55.15820807887898 L16.715568106037455,51.76394629830489" fill="yellow" fill-opacity="0.6" stroke="black" stroke-width="1" />
<path d="M14.82168583430419,-57.66745303244851 L16.254318320505,-55.15820807887898 L16.715568106037455,-51.76394629830489" fill="red" fill-opacity="0.6" stroke="black" stroke-width="1" />
<path d="M16.254318320505,-44.84179192112102 L16.715568106037455,-48.23605370169511 L37.0,-50.0" fill="green" fill-opacity="0.6" stroke="black" stroke-width="1" />
<path d="M16.254318320505,44.84179192112102 L16.715568106037455,48.23605370169511 L37.0,50.0" fill="brown" fill-opacity="0.6" stroke="black" stroke-width="1" />
<path d="M16.254318320505,55.15820807887898 L16.715568106037455,51.76394629830489 L37.0,50.0" fill="blue" fill-opacity="0.6" stroke="black" stroke-width="1" />
<path d="M16.254318320505,-55.15820807887898 L16.715568106037455,-51.76394629830489 L37.0,-50.0" fill="green" fill-opacity="0.6" stroke="black" stroke-width="1" />
<path d="M6.0,-6.0 L0.4420161180439197,-5.504281874200412 L0.23966591972126583,-4.426708117184763" fill="black" fill-opacity="0.6" stroke="black" stroke-width="1" />
<path d="M6.0,6.0 L0.4420161180439197,5.504281874200412 L0.23966591972126583,4.426708117184763" fill="orange" fill-opacity="0.6" stroke="black" stroke-width="1" />
<path d="M6.0,94.0 L0.4420161180439197,94.49571812579958 L0.23966591972126583,95.57329188281524" fill="red" fill-opacity="0.6" stroke="black" stroke-width="1" />
<path d="M6.0,-94.0 L0.4420161180439197,-94.49571812579958 L0.23966591972126583,-95.57329188281524" fill="black" fill-opacity="0.6" stroke="black" stroke-width="1" />
<path d="M0.4420161180439197,-5.504281874200412 L0.23966591972126583,-4.426708117184763 L0.2120108865140938,-0.6376454296224687" fill="red" fill-opacity="0.6" stroke="black" stroke-width="1" />
<path d="M0.4420161180439197,5.504281874200412 L0.23966591972126583,4.426708117184763 L0.2120108865140938,0.6376454296224687" fill="orange" fill-opacity="0.6" stroke="black" stroke-width="1" />
<path d="M0.4420161180439197,94.49571812579958 L0.23966591972126583,95.57329188281524 L0.2120108865140938,99.36235457037753" fill="orange" fill-opacity="0.6" stroke="black" stroke-width="1" />
<path d="M0.4420161180439197,-94.49571812579958 L0.23966591972126583,-95.57329188281524 L0.2120108865140938,-99.36235457037753" fill="yellow" fill-opacity="0.6" stroke="black" stroke-width="1" />
<path d="M0.23966591972126583,-4.426708117184763 L0.2120108865140938,-0.6376454296224687 L0.0,-0.0" fill="orange" fill-opacity="0.6" stroke="black" stroke-width="1" />
<path d="M0.23966591972126583,4.426708117184763 L0.2120108865140938,0.6376454296224687 L0.0,-0.0" fill="blue" fill-opacity="0.6" stroke="black" stroke-width="1" />
<path d="M0.23966591972126583,95.57329188281524 L0.2120108865140938,99.36235457037753 L0.0,100.0" fill="yellow" fill-opacity="0.6" stroke="black" stroke-width="1" />
<path d="M0.23966591972126583,-95.57329188281524 L0.2120108865140938,-99.36235457037753 L0.0,-100.0" fill="brown" fill-opacity="0.6" stroke="black" stroke-width="1" />
<path d="M0.0,100.0 L-0.836499518110706,89.6565515099631 L-1.3407950725654316,89.10505101729422" fill="green" fill-opacity="0.6" stroke="black" stroke-width="1" />
<path d="M0.0,-0.0 L-0.836499518110706,-10.343448490036904 L-1.3407950725654316,-10.894948982705777" fill="red" fill-opacity="0.6" stroke="black" stroke-width="1" />
<path d="M0.0,-0.0 L-0.836499518110706,10.343448490036906 L-1.3407950725654316,10.894948982705785" fill="purple" fill-opacity="0.6" stroke="black" stroke-width="1" />
<path d="M0.0,-100.0 L-0.836499518110706,-89.6565515099631 L-1.3407950725654316,-89.10505101729422" fill="yellow" fill-opacity="0.6" stroke="black" stroke-width="1" />
<path d="M-0.836499518110706,89.6565515099631 L-1.3407950725654316,89.10505101729422 L0.0,85.0" fill="yellow" fill-opacity="0.6" stroke="black" stroke-width="1" />
<path d="M-0.836499518110706,-10.343448490036904 L-1.3407950725654316,-10.894948982705777 L0.0,-15.0" fill="red" fill-opacity="0.6" stroke="black" stroke-width="1" />
<path d="M-0.836499518110706,10.343448490036906 L-1.3407950725654316,10.894948982705785 L0.0,15.0" fill="red" fill-opacity="0.6" stroke="black" stroke-width="1" />
<path d="M-0.836499518110706,-89.6565515099631 L-1.3407950725654316,-89.10505101729422 L0.0,-85.0" fill="red" fill-opacity="0.6" stroke="black" stroke-width="1" />
<path d="M0.0,85.0 L-2.0531020119451404,83.84520348397865 L-2.3332877652558115,82.4860710524503" fill="orange" fill-opacity="0.6" stroke="black" stroke-width="1" />
<path d="M0.0,-15.0 L-2.0531020119451404,-16.154796516021353 L-2.3332877652558115,-17.513928947549704" fill="green" fill-opacity="0.6" stroke="black" stroke-width="1" />
<path d="M0.0,15.0 L-2.0531020119451404,16.15479651602135 L-2.3332877652558115,17.5139289475497" fill="blue" fill-opacity="0.6" stroke="black" stroke-width="1" />
<path d="M0.0,-85.0 L-2.0531020119451404,-83.84520348397865 L-2.3332877652558115,-82.4860710524503" fill="green" fill-opacity="0.6" stroke="black" stroke-width="1" />
<path d="M-2.0531020119451404,83.84520348397865 L-2.3332877652558115,82.4860710524503 L-3.1108512253103973,80.23642088437181" fill="green" fill-opacity="0.6" stroke="black" stroke-width="1" />
<path d="M-2.0531020119451404,-16.154796516021353 L-2.3332877652558115,-17.513928947549704 L-3.1108512253103973,-19.763579115628193" fill="yellow" fill-opacity="0.6" stroke="black" stroke-width="1" />
<path d="M-2.0531020119451404,16.15479651602135 L-2.3332877652558115,17.5139289475497 L-3.1108512253103973,19.76357911562819" fill="purple" fill-opacity="0.6" stroke="black" stroke-width="1" />
<path d="M-2.0531020119451404,-83.84520348397865 L-2.3332877652558115,-82.4860710524503 L-3.1108512253103973,-80.23642088437181" fill="purple" fill-opacity="0.6" stroke="black" stroke-width="1" />
<path d="M-2.3332877652558115,82.4860710524503 L-3.1108512253103973,80.23642088437181 L-3.5537483758314616,78.21588253184741" fill="pink" fill-opacity="0.6" stroke="black" stroke-width="1" />
<path d="M-2.3332877652558115,-17.513928947549704 L-3.1108512253103973,-19.763579115628193 L-3.5537483758314616,-21.784117468152587" fill="brown" fill-opacity="0.6" stroke="black" stroke-width="1" />
<path d="M-2.3332877652558115,17.5139289475497 L-3.1108512253103973,19.76357911562819 L-3.5537483758314616,21.784117468152587" fill="black" fill-opacity="0.6" stroke="black" stroke-width="1" />
<path d="M-2.3332877652558115,-82.4860710524503 L-3.1108512253103973,-80.23642088437181 L-3.5537483758314616,-78.21588253184741" fill="yellow" fill-opacity="0.6" stroke="black" stroke-width="1" />
<path d="M-3.1108512253103973,80.23642088437181 L-3.5537483758314616,78.21588253184741 L-5.067637167865718,77.17558699489113" fill="red" fill-opacity="0.6" stroke="black" stroke-width="1" />
<path d="M-3.1108512253103973,-19.763579115628193 L-3.5537483758314616,-21.784117468152587 L-5.067637167865718,-22.82441300510887" fill="purple" fill-opacity="0.6" stroke="black" stroke-width="1" />
<path d="M-3.1108512253103973,19.76357911562819 L-3.5537483758314616,21.784117468152587 L-5.067637167865718,22.824413005108866" fill="green" fill-opacity="0.6" stroke="black" stroke-width="1" />
<path d="M-3.1108512253103973,-80.23642088437181 L-3.5537483758314616,-78.21588253184741 L-5.067637167865718,-77.17558699489113" fill="yellow" fill-opacity="0.6" stroke="black" stroke-width="1" />
<path d="M-3.5537483758314616,78.21588253184741 L-5.067637167865718,77.17558699489113 L-6.905115503225209,75.08134351185636" fill="blue" fill-opacity="0.6" stroke="black" stroke-width="1" />
<path d="M-3.5537483758314616,-21.784117468152587 L-5.067637167865718,-22.82441300510887 L-6.905115503225209,-24.918656488143636" fill="purple" fill-opacity="0.6" stroke="black" stroke-width="1" />
<path d="M-3.5537483758314616,21.784117468152587 L-5.067637167865718,22.824413005108866 L-6.905115503225209,24.91865648814364" fill="orange" fill-opacity="0.6" stroke="black" stroke-width="1" />
<path d="M-3.5537483758314616,-78.21588253184741 L-5.067637167865718,-77.17558699489113 L-6.905115503225209,-75.08134351185636" fill="yellow" fill-opacity="0.6" stroke="black" stroke-width="1" />
<path d="M-5.067637167865718,77.17558699489113 L-6.905115503225209,75.08134351185636 L-7.68581061409633,74.13569012769263" fill="brown" fill-opacity="0.6" stroke="black" stroke-width="1" />
<path d="M-5.067637167865718,-22.82441300510887 L-6.905115503225209,-24.918656488143636 L-7.68581061409633,-25.864309872307373" fill="blue" fill-opacity="0.6" stroke="black" stroke-width="1" />
<path d="M-5.067637167865718,22.824413005108866 L-6.905115503225209,24.91865648814364 L-7.68581061409633,25.864309872307373" fill="green" fill-opacity="0.6" stroke="black" stroke-width="1" />
<path d="M-5.067637167865718,-77.17558699489113 L-6.905115503225209,-75.08134351185636 L-7.68581061409633,-74.13569012769263" fill="black" fill-opacity="0.6" stroke="black" stroke-width="1" />
<path d="M-6.905115503225209,75.08134351185636 L-7.68581061409633,74.13569012769263 L-9.283902175324554,60.14610487821882" fill="green" fill-opacity="0.6" stroke="black" stroke-width="1" />
<path d="M-6.905115503225209,-24.918656488143636 L-7.68581061409633,-25.864309872307373 L-9.283902175324554,-39.85389512178118" fill="purple" fill-opacity="0.6" stroke="black" stroke-width="1" />
<path d="M-6.905115503225209,24.91865648814364 L-7.68581061409633,25.864309872307373 L-9.283902175324554,39.85389512178118" fill="orange" fill-opacity="0.6" stroke="black" stroke-width="1" />
<path d="M-6.905115503225209,-75.08134351185636 L-7.68581061409633,-74.13569012769263 L-9.283902175324554,-60.14610487821882" fill="green" fill-opacity="0.6" stroke="black" stroke-width="1" />
<path d="M-7.68581061409633,74.13569012769263 L-9.283902175324554,60.14610487821882 L0.0,51.0" fill="yellow" fill-opacity="0.6" stroke="black" stroke-width="1" />
<path d="M-7.68581061409633,-25.864309872307373 L-9.283902175324554,-39.85389512178118 L0.0,-49.0" fill="pink" fill-opacity="0.6" stroke="black" stroke-width="1" />
<path d="M-7.68581061409633,25.864309872307373 L-9.283902175324554,39.85389512178118 L0.0,49.0" fill="yellow" fill-opacity="0.6" stroke="black" stroke-width="1" />
<path d="M-7.68581061409633,-74.13569012769263 L-9.283902175324554,-60.14610487821882 L0.0,-51.0" fill="blue" fill-opacity="0.6" stroke="black" stroke-width="1" />
<path d="M-11.0,50.0 L-13.821397480362208,58.45976010871165 L-14.82168583430419,57.66745303244851" fill="black" fill-opacity="0.6" stroke="black" stroke-width="1" />
<path d="M-11.0,-50.0 L-13.821397480362208,-41.54023989128835 L-14.82168583430419,-42.33254696755149" fill="black" fill-opacity="0.6" stroke="black" stroke-width="1" />
<path d="M-11.0,50.0 L-13.821397480362208,41.54023989128835 L-14.82168583430419,42.33254696755149" fill="green" fill-opacity="0.6" stroke="black" stroke-width="1" />
<path d="M-11.0,-50.0 L-13.821397480362208,-58.45976010871165 L-14.82168583430419,-57.66745303244851" fill="black" fill-opacity="0.6" stroke="black" stroke-width="1" />
<path d="M-13.821397480362208,58.45976010871165 L-14.82168583430419,57.66745303244851 L-16.254318320505,55.15820807887898" fill="orange" fill-opacity="0.6" stroke="black" stroke-width="1" />
<path d="M-13.821397480362208,-41.54023989128835 L-14.82168583430419,-42.33254696755149 L-16.254318320505,-44.84179192112102" fill="purple" fill-opacity="0.6" stroke="black" stroke-width="1" />
<path d="M-13.821397480362208,41.54023989128835 L-14.82168583430419,42.33254696755149 L-16.254318320505,44.84179192112102" fill="green" fill-opacity="0.6" stroke="black" stroke-width="1" />
<path d="M-13.821397480362208,-58.45976010871165 L-14.82168583430419,-57.66745303244851 L-16.254318320505,-55.15820807887898" fill="pink" fill-opacity="0.6" stroke="black" stroke-width="1" />
<path d="M-14.82168583430419,57.66745303244851 L-16.254318320505,55.15820807887898 L-16.715568106037455,51.76394629830489" fill="blue" fill-opacity="0.6" stroke="black" stroke-width="1" />
<path d="M-14.82168583430419,-42.33254696755149 L-16.254318320505,-44.84179192112102 L-16.715568106037455,-48.23605370169511" fill="brown" fill-opacity="0.6" stroke="black" stroke-width="1" />
<path d="M-14.82168583430419,42.33254696755149 L-16.254318320505,44.84179192112102 L-16.715568106037455,48.23605370169511" fill="yellow" fill-opacity="0.6" stroke="black" stroke-width="1" />
<path d="M-14.82168583430419,-57.66745303244851 L-16.254318320505,-55.15820807887898 L-16.715568106037455,-51.76394629830489" fill="blue" fill-opacity="0.6" stroke="black" stroke-width="1" />
<path d="M-16.254318320505,55.15820807887898 L-16.715568106037455,51.76394629830489 L-37.0,50.0" fill="brown" fill-opacity="0.6" stroke="black" stroke-width="1" />
<path d="M-16.254318320505,-44.84179192112102 L-16.715568106037455,-48.23605370169511 L-37.0,-50.0" fill="orange" fill-opacity="0.6" stroke="black" stroke-width="1" />
<path d="M-16.254318320505,44.84179192112102 L-16.715568106037455,48.23605370169511 L-37.0,50.0" fill="purple" fill-opacity="0.6" stroke="black" stroke-width="1" />
<path d="M-16.254318320505,-55.15820807887898 L-16.715568106037455,-51.76394629830489 L-37.0,-50.0" fill="yellow" fill-opacity="0.6" stroke="black" stroke-width="1" />
<path d="M-6.0,94.0 L-0.4420161180439197,94.49571812579958 L-0.23966591972126583,95.57329188281524" fill="brown" fill-opacity="0.6" stroke="black" stroke-width="1" />
<path d="M-6.0,-6.0 L-0.4420161180439197,-5.504281874200412 L-0.23966591972126583,-4.426708117184763" fill="orange" fill-opacity="0.6" stroke="black" stroke-width="1" />
<path d="M-6.0,6.0 L-0.4420161180439197,5.504281874200416 L-0.23966591972126583,4.426708117184759" fill="brown" fill-opacity="0.6" stroke="black" stroke-width="1" />
<path d="M-6.0,-94.0 L-0.4420161180439197,-94.49571812579958 L-0.23966591972126583,-95.57329188281524" fill="pink" fill-opacity="0.6" stroke="black" stroke-width="1" />
<path d="M-0.4420161180439197,94.49571812579958 L-0.23966591972126583,95.57329188281524 L-0.2120108865140938,99.36235457037753" fill="red" fill-opacity="0.6" stroke="black" stroke-width="1" />
<path d="M-0.4420161180439197,-5.504281874200412 L-0.23966591972126583,-4.426708117184763 L-0.2120108865140938,-0.6376454296224687" fill="orange" fill-opacity="0.6" stroke="black" stroke-width="1" />
<path d="M-0.4420161180439197,5.504281874200416 L-0.23966591972126583,4.426708117184759 L-0.2120108865140938,0.6376454296224665" fill="red" fill-opacity="0.6" stroke="black" stroke-width="1" />
<path d="M-0.4420161180439197,-94.49571812579958 L-0.23966591972126583,-95.57329188281524 L-0.2120108865140938,-99.36235457037753" fill="yellow" fill-opacity="0.6" stroke="black" stroke-width="1" />
<path d="M-0.23966591972126583,95.57329188281524 L-0.2120108865140938,99.36235457037753 L0.0,100.0" fill="brown" fill-opacity="0.6" stroke="black" stroke-width="1" />
<path d="M-0.23966591972126583,-4.426708117184763 L-0.2120108865140938,-0.6376454296224687 L0.0,-0.0" fill="purple" fill-opacity="0.6" stroke="black" stroke-width="1" />
<path d="M-0.23966591972126583,4.426708117184759 L-0.2120108865140938,0.6376454296224665 L0.0,-0.0" fill="blue" fill-opacity="0.6" stroke="black" stroke-width="1" />
<path d="M-0.23966591972126583,-95.57329188281524 L-0.2120108865140938,-99.36235457037753 L0.0,-100.0" fill="black" fill-opacity="0.6" stroke="black" stroke-width="1" />
<path d="M-100.0,-0.0 L-89.6565515099631,-0.836499518110706 L-89.10505101729422,-1.3407950725654316" fill="green" fill-opacity="0.6" stroke="black" stroke-width="1" />
<path d="M-100.0,-0.0 L-89.6565515099631,0.836499518110706 L-89.10505101729422,1.3407950725654316" fill="brown" fill-opacity="0.6" stroke="black" stroke-width="1" />
<path d="M-89.6565515099631,-0.836499518110706 L-89.10505101729422,-1.3407950725654316 L-85.0,-0.0" fill="black" fill-opacity="0.6" stroke="black" stroke-width="1" />
<path d="M-89.6565515099631,0.836499518110706 L-89.10505101729422,1.3407950725654316 L-85.0,-0.0" fill="purple" fill-opacity="0.6" stroke="black" stroke-width="1" />
<path d="M-85.0,-0.0 L-83.84520348397865,-2.0531020119451404 L-82.4860710524503,-2.3332877652558115" fill="red" fill-opacity="0.6" stroke="black" stroke-width="1" />
<path d="M-85.0,-0.0 L-83.84520348397865,2.0531020119451404 L-82.4860710524503,2.3332877652558115" fill="blue" fill-opacity="0.6" stroke="black" stroke-width="1" />
<path d="M-83.84520348397865,-2.0531020119451404 L-82.4860710524503,-2.3332877652558115 L-80.23642088437181,-3.1108512253103973" fill="brown" fill-opacity="0.6" stroke="black" stroke-width="1" />
<path d="M-83.84520348397865,2.0531020119451404 L-82.4860710524503,2.3332877652558115 L-80.23642088437181,3.1108512253103973" fill="black" fill-opacity="0.6" stroke="black" stroke-width="1" />
<path d="M-82.4860710524503,-2.3332877652558115 L-80.23642088437181,-3.1108512253103973 L-78.21588253184741,-3.5537483758314616" fill="blue" fill-opacity="0.6" stroke="black" stroke-width="1" />
<path d="M-82.4860710524503,2.3332877652558115 L-80.23642088437181,3.1108512253103973 L-78.21588253184741,3.5537483758314616" fill="orange" fill-opacity="0.6" stroke="black" stroke-width="1" />
<path d="M-80.23642088437181,-3.1108512253103973 L-78.21588253184741,-3.5537483758314616 L-77.17558699489113,-5.067637167865718" fill="red" fill-opacity="0.6" stroke="black" stroke-width="1" />
<path d="M-80.23642088437181,3.1108512253103973 L-78.21588253184741,3.5537483758314616 L-77.17558699489113,5.067637167865718" fill="orange" fill-opacity="0.6" stroke="black" stroke-width="1" />
<path d="M-78.21588253184741,-3.5537483758314616 L-77.17558699489113,-5.067637167865718 L-75.08134351185636,-6.905115503225209" fill="green" fill-opacity="0.6" stroke="black" stroke-width="1" />
<path d="M-78.21588253184741,3.5537483758314616 L-77.17558699489113,5.067637167865718 L-75.08134351185636,6.905115503225209" fill="purple" fill-opacity="0.6" stroke="black" stroke-width="1" />
<path d="M-77.17558699489113,-5.067637167865718 L-75.08134351185636,-6.905115503225209 L-74.13569012769263,-7.68581061409633" fill="yellow" fill-opacity="0.6" stroke="black" stroke-width="1" />
<path d="M-77.17558699489113,5.067637167865718 L-75.08134351185636,6.905115503225209 L-74.13569012769263,7.68581061409633" fill="pink" fill-opacity="0.6" stroke="black" stroke-width="1" />
<path d="M-75.08134351185636,-6.905115503225209 L-74.13569012769263,-7.68581061409633 L-60.14610487821882,-9.283902175324554" fill="red" fill-opacity="0.6" stroke="black" stroke-width="1" />
<path d="M-75.08134351185636,6.905115503225209 L-74.13569012769263,7.68581061409633 L-60.14610487821882,9.283902175324554" fill="black" fill-opacity="0.6" stroke="black" stroke-width="1" />
<path d="M-74.13569012769263,-7.68581061409633 L-60.14610487821882,-9.283902175324554 L-51.0,-0.0" fill="brown" fill-opacity="0.6" stroke="black" stroke-width="1" />
<path d="M-74.13569012769263,7.68581061409633 L-60.14610487821882,9.283902175324554 L-51.0,-0.0" fill="green" fill-opacity="0.6" stroke="black" stroke-width="1" />
<path d="M-50.0,-11.0 L-58.45976010871165,-13.821397480362208 L-57.66745303244851,-14.82168583430419" fill="orange" fill-opacity="0.6" stroke="black" stroke-width="1" />
<path d="M-50.0,11.0 L-58.45976010871165,13.821397480362208 L-57.66745303244851,14.82168583430419" fill="red" fill-opacity="0.6" stroke="black" stroke-width="1" />
<path d="M-58.45976010871165,-13.821397480362208 L-57.66745303244851,-14.82168583430419 L-55.15820807887898,-16.254318320505" fill="brown" fill-opacity="0.6" stroke="black" stroke-width="1" />
<path d="M-58.45976010871165,13.821397480362208 L-57.66745303244851,14.82168583430419 L-55.15820807887898,16.254318320505" fill="yellow" fill-opacity="0.6" stroke="black" stroke-width="1" />
<path d="M-57.66745303244851,-14.82168583430419 L-55.15820807887898,-16.254318320505 L-51.76394629830489,-16.715568106037455" fill="blue" fill-opacity="0.6" stroke="black" stroke-width="1" />
<path d="M-57.66745303244851,14.82168583430419 L-55.15820807887898,16.254318320505 L-51.76394629830489,16.715568106037455" fill="black" fill-opacity="0.6" stroke="black" stroke-width="1" />
<path d="M-55.15820807887898,-16.254318320505 L-51.76394629830489,-16.715568106037455 L-50.0,-37.0" fill="green" fill-opacity="0.6" stroke="black" stroke-width="1" />
<path d="M-55.15820807887898,16.254318320505 L-51.76394629830489,16.715568106037455 L-50.0,37.0" fill="blue" fill-opacity="0.6" stroke="black" stroke-width="1" />
<path d="M-50.0,-50.0 L-57.0,-43.0 L-72.0,-28.0" fill="orange" fill-opacity="0.6" stroke="black" stroke-width="1" />
<path d="M-50.0,50.0 L-57.0,43.0 L-72.0,28.0" fill="pink" fill-opacity="0.6" stroke="black" stroke-width="1" />
<path d="M-57.0,-43.0 L-72.0,-28.0 L-94.0,-6.0" fill="black" fill-opacity="0.6" stroke="black" stroke-width="1" />
<path d="M-57.0,43.0 L-72.0,28.0 L-94.0,6.0" fill="brown" fill-opacity="0.6" stroke="black" stroke-width="1" />
<path d="M-72.0,-28.0 L-94.0,-6.0 L-94.49571812579958,-0.4420161180439197" fill="orange" fill-opacity="0.6" stroke="black" stroke-width="1" />
<path d="M-72.0,28.0 L-94.0,6.0 L-94.49571812579958,0.4420161180439197" fill="brown" fill-opacity="0.6" stroke="black" stroke-width="1" />
<path d="M-94.0,-6.0 L-94.49571812579958,-0.4420161180439197 L-95.57329188281524,-0.23966591972126583" fill="red" fill-opacity="0.6" stroke="black" stroke-width="1" />
<path d="M-94.0,6.0 L-94.49571812579958,0.4420161180439197 L-95.57329188281524,0.23966591972126583" fill="red" fill-opacity="0.6" stroke="black" stroke-width="1" />
<path d="M-94.49571812579958,-0.4420161180439197 L-95.57329188281524,-0.23966591972126583 L-99.36235457037753,-0.2120108865140938" fill="orange" fill-opacity="0.6" stroke="black" stroke-width="1" />
<path d="M-94.49571812579958,0.4420161180439197 L-95.57329188281524,0.23966591972126583 L-99.36235457037753,0.2120108865140938" fill="purple" fill-opacity="0.6" stroke="black" stroke-width="1" />
<path d="M-95.57329188281524,-0.23966591972126583 L-99.36235457037753,-0.2120108865140938 L-100.0,-0.0" fill="red" fill-opacity="0.6" stroke="black" stroke-width="1" />
<path d="M-95.57329188281524,0.23966591972126583 L-99.36235457037753,0.2120108865140938 L-100.0,-0.0" fill="purple" fill-opacity="0.6" stroke="black" stroke-width="1" />
</svg>