<?xml version="1.0" encoding="UTF-8"?>
<svg xmlns="http://www.w3.org/2000/svg" xmlns:xlink="http://www.w3.org/1999/xlink"
     width="250" height="250" viewBox="-125.0 -125.0 250 250">
<defs>
</defs>
<path d="M7.0,-0.0 L11.158886918930271,-2.0757997053258426 L21.253247660429857,-3.7262962365697843" fill-opacity="0" stroke="black" stroke-width="1" />
<path d="M7.0,-0.0 L11.158886918930271,2.0757997053258426 L21.253247660429857,3.7262962365697843" fill-opacity="0" stroke="black" stroke-width="1" />
<path d="M11.158886918930271,-2.0757997053258426 L21.253247660429857,-3.7262962365697843 L22.033270006023336,-6.77588850435794" fill-opacity="0" stroke="black" stroke-width="1" />
<path d="M11.158886918930271,2.0757997053258426 L21.253247660429857,3.7262962365697843 L22.033270006023336,6.77588850435794" fill-opacity="0" stroke="black" stroke-width="1" />
<path d="M21.253247660429857,-3.7262962365697843 L22.033270006023336,-6.77588850435794 L29.232978868878316,-9.09790929124602" fill-opacity="0" stroke="black" stroke-width="1" />
<path d="M21.253247660429857,3.7262962365697843 L22.033270006023336,6.77588850435794 L29.232978868878316,9.09790929124602" fill-opacity="0" stroke="black" stroke-width="1" />
<path d="M22.033270006023336,-6.77588850435794 L29.232978868878316,-9.09790929124602 L35.0,-0.0" fill-opacity="0" stroke="black" stroke-width="1" />
<path d="M22.033270006023336,6.77588850435794 L29.232978868878316,9.09790929124602 L35.0,-0.0" fill-opacity="0" stroke="black" stroke-width="1" />
<path d="M43.0,-0.0 L38.70337527705046,-13.96119282113871 L50.0,-14.0" fill-opacity="0" stroke="black" stroke-width="1" />
<path d="M43.0,-0.0 L38.70337527705046,13.96119282113871 L50.0,14.0" fill-opacity="0" stroke="black" stroke-width="1" />
<path d="M50.0,-50.0 L45.57514152749106,-38.69112541392607 L38.0,-38.0" fill-opacity="0" stroke="black" stroke-width="1" />
<path d="M50.0,50.0 L45.57514152749106,38.69112541392607 L38.0,38.0" fill-opacity="0" stroke="black" stroke-width="1" />
<path d="M38.69112541392607,54.42485847250894 L38.0,62.0 L23.0,77.0" fill-opacity="0" stroke="black" stroke-width="1" />
<path d="M38.69112541392607,-54.42485847250894 L38.0,-62.0 L23.0,-77.0" fill-opacity="0" stroke="black" stroke-width="1" />
<path d="M38.0,62.0 L23.0,77.0 L12.0,88.0" fill-opacity="0" stroke="black" stroke-width="1" />
<path d="M38.0,-62.0 L23.0,-77.0 L12.0,-88.0" fill-opacity="0" stroke="black" stroke-width="1" />
<path d="M23.0,77.0 L12.0,88.0 L9.0,91.0" fill-opacity="0" stroke="black" stroke-width="1" />
<path d="M23.0,-77.0 L12.0,-88.0 L9.0,-91.0" fill-opacity="0" stroke="black" stroke-width="1" />
<path d="M12.0,88.0 L9.0,91.0 L0.24680114362229544,98.58059637105012" fill-opacity="0" stroke="black" stroke-width="1" />
<path d="M12.0,-88.0 L9.0,-91.0 L0.24680114362229544,-98.58059637105012" fill-opacity="0" stroke="black" stroke-width="1" />
<path d="M9.0,-9.0 L1.4194036289498835,-0.24680114362229544 L0.0,-0.0" fill-opacity="0" stroke="black" stroke-width="1" />
<path d="M9.0,9.0 L1.4194036289498835,0.24680114362229544 L0.0,-0.0" fill-opacity="0" stroke="black" stroke-width="1" />
<path d="M-7.0,-0.0 L-11.158886918930271,-2.0757997053258426 L-21.253247660429857,-3.7262962365697843" fill-opacity="0" stroke="black" stroke-width="1" />
<path d="M-7.0,-0.0 L-11.158886918930271,2.0757997053258426 L-21.253247660429857,3.7262962365697843" fill-opacity="0" stroke="black" stroke-width="1" />
<path d="M-11.158886918930271,-2.0757997053258426 L-21.253247660429857,-3.7262962365697843 L-22.033270006023336,-6.77588850435794" fill-opacity="0" stroke="black" stroke-width="1" />
<path d="M-11.158886918930271,2.0757997053258426 L-21.253247660429857,3.7262962365697843 L-22.033270006023336,6.77588850435794" fill-opacity="0" stroke="black" stroke-width="1" />
<path d="M-21.253247660429857,-3.7262962365697843 L-22.033270006023336,-6.77588850435794 L-29.232978868878316,-9.09790929124602" fill-opacity="0" stroke="black" stroke-width="1" />
<path d="M-21.253247660429857,3.7262962365697843 L-22.033270006023336,6.77588850435794 L-29.232978868878316,9.09790929124602" fill-opacity="0" stroke="black" stroke-width="1" />
<path d="M-22.033270006023336,-6.77588850435794 L-29.232978868878316,-9.09790929124602 L-35.0,-0.0" fill-opacity="0" stroke="black" stroke-width="1" />
<path d="M-22.033270006023336,6.77588850435794 L-29.232978868878316,9.09790929124602 L-35.0,-0.0" fill-opacity="0" stroke="black" stroke-width="1" />
<path d="M-43.0,-0.0 L-38.70337527705046,-13.96119282113871 L-50.0,-14.0" fill-opacity="0" stroke="black" stroke-width="1" />
<path d="M-43.0,-0.0 L-38.70337527705046,13.96119282113871 L-50.0,14.0" fill-opacity="0" stroke="black" stroke-width="1" />
<path d="M-50.0,-50.0 L-45.57514152749106,-38.69112541392607 L-38.0,-38.0" fill-opacity="0" stroke="black" stroke-width="1" />
<path d="M-50.0,50.0 L-45.57514152749106,38.69112541392607 L-38.0,38.0" fill-opacity="0" stroke="black" stroke-width="1" />
<path d="M-38.69112541392607,54.42485847250894 L-38.0,62.0 L-23.0,77.0" fill-opacity="0" stroke="black" stroke-width="1" />
<path d="M-38.69112541392607,-54.42485847250894 L-38.0,-62.0 L-23.0,-77.0" fill-opacity="0" stroke="black" stroke-width="1" />
<path d="M-38.0,62.0 L-23.0,77.0 L-12.0,88.0" fill-opacity="0" stroke="black" stroke-width="1" />
<path d="M-38.0,-62.0 L-23.0,-77.0 L-12.0,-88.0" fill-opacity="0" stroke="black" stroke-width="1" />
<path d="M-23.0,77.0 L-12.0,88.0 L-9.0,91.0" fill-opacity="0" stroke="black" stroke-width="1" />
<path d="M-23.0,-77.0 L-12.0,-88.0 L-9.0,-91.0" fill-opacity="0" stroke="black" stroke-width="1" />
<path d="M-12.0,88.0 L-9.0,91.0 L-0.24680114362229544,98.58059637105012" fill-opacity="0" stroke="black" stroke-width="1" />
<path d="M-12.0,-88.0 L-9.0,-91.0 L-0.24680114362229544,-98.58059637105012" fill-opacity="0" stroke="black" stroke-width="1" />
<path d="M-9.0,-9.0 L-1.4194036289498835,-0.24680114362229544 L0.0,-0.0" fill-opacity="0" stroke="black" stroke-width="1" />
<path d="M-9.0,9.0 L-1.4194036289498835,0.24680114362229544 L0.0,-0.0" fill-opacity="0" stroke="black" stroke-width="1" />
<path d="M93.0,-0.0 L88.84111308106972,2.0757997053258426 L78.74675233957015,3.7262962365697843" fill-opacity="0" stroke="black" stroke-width="1" />
<path d="M93.0,-0.0 L88.84111308106972,-2.0757997053258426 L78.74675233957015,-3.7262962365697843" fill-opacity="0" stroke="black" stroke-width="1" />
<path d="M88.84111308106972,2.0757997053258426 L78.74675233957015,3.7262962365697843 L77.96672999397666,6.77588850435794" fill-opacity="0" stroke="black" stroke-width="1" />
<path d="M88.84111308106972,-2.0757997053258426 L78.74675233957015,-3.7262962365697843 L77.96672999397666,-6.77588850435794" fill-opacity="0" stroke="black" stroke-width="1" />
<path d="M78.74675233957015,3.7262962365697843 L77.96672999397666,6.77588850435794 L70.76702113112168,9.09790929124602" fill-opacity="0" stroke="black" stroke-width="1" />
<path d="M78.74675233957015,-3.7262962365697843 L77.96672999397666,-6.77588850435794 L70.76702113112168,-9.09790929124602" fill-opacity="0" stroke="black" stroke-width="1" />
<path d="M77.96672999397666,6.77588850435794 L70.76702113112168,9.09790929124602 L65.0,-0.0" fill-opacity="0" stroke="black" stroke-width="1" />
<path d="M77.96672999397666,-6.77588850435794 L70.76702113112168,-9.09790929124602 L65.0,-0.0" fill-opacity="0" stroke="black" stroke-width="1" />
<path d="M57.0,-0.0 L61.29662472294954,13.96119282113871 L50.0,14.0" fill-opacity="0" stroke="black" stroke-width="1" />
<path d="M57.0,-0.0 L61.29662472294954,-13.96119282113871 L50.0,-14.0" fill-opacity="0" stroke="black" stroke-width="1" />
<path d="M50.0,50.0 L54.42485847250894,38.69112541392607 L62.0,38.0" fill-opacity="0" stroke="black" stroke-width="1" />
<path d="M50.0,-50.0 L54.42485847250894,-38.69112541392607 L62.0,-38.0" fill-opacity="0" stroke="black" stroke-width="1" />
<path d="M54.42485847250894,38.69112541392607 L62.0,38.0 L77.0,23.0" fill-opacity="0" stroke="black" stroke-width="1" />
<path d="M54.42485847250894,-38.69112541392607 L62.0,-38.0 L77.0,-23.0" fill-opacity="0" stroke="black" stroke-width="1" />
<path d="M62.0,38.0 L77.0,23.0 L88.0,12.0" fill-opacity="0" stroke="black" stroke-width="1" />
<path d="M62.0,-38.0 L77.0,-23.0 L88.0,-12.0" fill-opacity="0" stroke="black" stroke-width="1" />
<path d="M77.0,23.0 L88.0,12.0 L91.0,9.0" fill-opacity="0" stroke="black" stroke-width="1" />
<path d="M77.0,-23.0 L88.0,-12.0 L91.0,-9.0" fill-opacity="0" stroke="black" stroke-width="1" />
<path d="M88.0,12.0 L91.0,9.0 L98.58059637105012,0.24680114362229544" fill-opacity="0" stroke="black" stroke-width="1" />
<path d="M88.0,-12.0 L91.0,-9.0 L98.58059637105012,-0.24680114362229544" fill-opacity="0" stroke="black" stroke-width="1" />
<path d="M91.0,9.0 L98.58059637105012,0.24680114362229544 L100.0,-0.0" fill-opacity="0" stroke="black" stroke-width="1" />
<path d="M91.0,-9.0 L98.58059637105012,-0.24680114362229544 L100.0,-0.0" fill-opacity="0" stroke="black" stroke-width="1" />
<path d="M0.0,-7.0 L2.0757997053258426,-11.158886918930271 L3.7262962365697843,-21.253247660429857" fill-opacity="0" stroke="black" stroke-width="1" />
<path d="M0.0,7.0 L2.0757997053258426,11.158886918930271 L3.7262962365697843,21.253247660429857" fill-opacity="0" stroke="black" stroke-width="1" />
<path d="M0.0,93.0 L2.0757997053258426,88.84111308106972 L3.7262962365697843,78.74675233957015" fill-opacity="0" stroke="black" stroke-width="1" />
<path d="M0.0,-93.0 L2.0757997053258426,-88.84111308106972 L3.7262962365697843,-78.74675233957015" fill-opacity="0" stroke="black" stroke-width="1" />
<path d="M2.0757997053258426,-11.158886918930271 L3.7262962365697843,-21.253247660429857 L6.77588850435794,-22.033270006023336" fill-opacity="0" stroke="black" stroke-width="1" />
<path d="M2.0757997053258426,11.158886918930271 L3.7262962365697843,21.253247660429857 L6.77588850435794,22.033270006023336" fill-opacity="0" stroke="black" stroke-width="1" />
<path d="M2.0757997053258426,88.84111308106972 L3.7262962365697843,78.74675233957015 L6.77588850435794,77.96672999397666" fill-opacity="0" stroke="black" stroke-width="1" />
<path d="M2.0757997053258426,-88.84111308106972 L3.7262962365697843,-78.74675233957015 L6.77588850435794,-77.96672999397666" fill-opacity="0" stroke="black" stroke-width="1" />
<path d="M3.7262962365697843,-21.253247660429857 L6.77588850435794,-22.033270006023336 L9.09790929124602,-29.232978868878316" fill-opacity="0" stroke="black" stroke-width="1" />
<path d="M3.7262962365697843,21.253247660429857 L6.77588850435794,22.033270006023336 L9.09790929124602,29.232978868878316" fill-opacity="0" stroke="black" stroke-width="1" />
<path d="M3.7262962365697843,78.74675233957015 L6.77588850435794,77.96672999397666 L9.09790929124602,70.76702113112168" fill-opacity="0" stroke="black" stroke-width="1" />
<path d="M3.7262962365697843,-78.74675233957015 L6.77588850435794,-77.96672999397666 L9.09790929124602,-70.76702113112168" fill-opacity="0" stroke="black" stroke-width="1" />
<path d="M6.77588850435794,-22.033270006023336 L9.09790929124602,-29.232978868878316 L0.0,-35.0" fill-opacity="0" stroke="black" stroke-width="1" />
<path d="M6.77588850435794,22.033270006023336 L9.09790929124602,29.232978868878316 L0.0,35.0" fill-opacity="0" stroke="black" stroke-width="1" />
<path d="M6.77588850435794,77.96672999397666 L9.09790929124602,70.76702113112168 L0.0,65.0" fill-opacity="0" stroke="black" stroke-width="1" />
<path d="M6.77588850435794,-77.96672999397666 L9.09790929124602,-70.76702113112168 L0.0,-65.0" fill-opacity="0" stroke="black" stroke-width="1" />
<path d="M0.0,-43.0 L13.96119282113871,-38.70337527705046 L14.0,-50.0" fill-opacity="0" stroke="black" stroke-width="1" />
<path d="M0.0,43.0 L13.96119282113871,38.70337527705046 L14.0,50.0" fill-opacity="0" stroke="black" stroke-width="1" />
<path d="M0.0,57.0 L13.96119282113871,61.29662472294954 L14.0,50.0" fill-opacity="0" stroke="black" stroke-width="1" />
<path d="M0.0,-57.0 L13.96119282113871,-61.29662472294954 L14.0,-50.0" fill-opacity="0" stroke="black" stroke-width="1" />
<path d="M50.0,-50.0 L38.69112541392607,-45.57514152749106 L38.0,-38.0" fill-opacity="0" stroke="black" stroke-width="1" />
<path d="M50.0,50.0 L38.69112541392607,45.57514152749106 L38.0,38.0" fill-opacity="0" stroke="black" stroke-width="1" />
<path d="M50.0,50.0 L38.69112541392607,54.42485847250894 L38.0,62.0" fill-opacity="0" stroke="black" stroke-width="1" />
<path d="M50.0,-50.0 L38.69112541392607,-54.42485847250894 L38.0,-62.0" fill-opacity="0" stroke="black" stroke-width="1" />
<path d="M9.0,-9.0 L0.24680114362229544,-1.4194036289498835 L0.0,-0.0" fill-opacity="0" stroke="black" stroke-width="1" />
<path d="M9.0,9.0 L0.24680114362229544,1.4194036289498835 L0.0,-0.0" fill-opacity="0" stroke="black" stroke-width="1" />
<path d="M9.0,91.0 L0.24680114362229544,98.58059637105012 L0.0,100.0" fill-opacity="0" stroke="black" stroke-width="1" />
<path d="M9.0,-91.0 L0.24680114362229544,-98.58059637105012 L0.0,-100.0" fill-opacity="0" stroke="black" stroke-width="1" />
<path d="M0.0,93.0 L-2.0757997053258426,88.84111308106972 L-3.7262962365697843,78.74675233957015" fill-opacity="0" stroke="black" stroke-width="1" />
<path d="M0.0,-7.0 L-2.0757997053258426,-11.158886918930271 L-3.7262962365697843,-21.253247660429857" fill-opacity="0" stroke="black" stroke-width="1" />
<path d="M0.0,7.0 L-2.0757997053258426,11.158886918930278 L-3.7262962365697843,21.25324766042985" fill-opacity="0" stroke="black" stroke-width="1" />
<path d="M0.0,-93.0 L-2.0757997053258426,-88.84111308106972 L-3.7262962365697843,-78.74675233957015" fill-opacity="0" stroke="black" stroke-width="1" />
<path d="M-2.0757997053258426,88.84111308106972 L-3.7262962365697843,78.74675233957015 L-6.77588850435794,77.96672999397666" fill-opacity="0" stroke="black" stroke-width="1" />
<path d="M-2.0757997053258426,-11.158886918930271 L-3.7262962365697843,-21.253247660429857 L-6.77588850435794,-22.033270006023336" fill-opacity="0" stroke="black" stroke-width="1" />
<path d="M-2.0757997053258426,11.158886918930278 L-3.7262962365697843,21.25324766042985 L-6.77588850435794,22.033270006023344" fill-opacity="0" stroke="black" stroke-width="1" />
<path d="M-2.0757997053258426,-88.84111308106972 L-3.7262962365697843,-78.74675233957015 L-6.77588850435794,-77.96672999397666" fill-opacity="0" stroke="black" stroke-width="1" />
<path d="M-3.7262962365697843,78.74675233957015 L-6.77588850435794,77.96672999397666 L-9.09790929124602,70.76702113112168" fill-opacity="0" stroke="black" stroke-width="1" />
<path d="M-3.7262962365697843,-21.253247660429857 L-6.77588850435794,-22.033270006023336 L-9.09790929124602,-29.232978868878316" fill-opacity="0" stroke="black" stroke-width="1" />
<path d="M-3.7262962365697843,21.25324766042985 L-6.77588850435794,22.033270006023344 L-9.09790929124602,29.23297886887832" fill-opacity="0" stroke="black" stroke-width="1" />
<path d="M-3.7262962365697843,-78.74675233957015 L-6.77588850435794,-77.96672999397666 L-9.09790929124602,-70.76702113112168" fill-opacity="0" stroke="black" stroke-width="1" />
<path d="M-6.77588850435794,77.96672999397666 L-9.09790929124602,70.76702113112168 L0.0,65.0" fill-opacity="0" stroke="black" stroke-width="1" />
<path d="M-6.77588850435794,-22.033270006023336 L-9.09790929124602,-29.232978868878316 L0.0,-35.0" fill-opacity="0" stroke="black" stroke-width="1" />
<path d="M-6.77588850435794,22.033270006023344 L-9.09790929124602,29.23297886887832 L0.0,35.0" fill-opacity="0" stroke="black" stroke-width="1" />
<path d="M-6.77588850435794,-77.96672999397666 L-9.09790929124602,-70.76702113112168 L0.0,-65.0" fill-opacity="0" stroke="black" stroke-width="1" />
<path d="M0.0,57.0 L-13.96119282113871,61.29662472294954 L-14.0,50.0" fill-opacity="0" stroke="black" stroke-width="1" />
<path d="M0.0,-43.0 L-13.96119282113871,-38.70337527705046 L-14.0,-50.0" fill-opacity="0" stroke="black" stroke-width="1" />
<path d="M0.0,43.0 L-13.96119282113871,38.70337527705046 L-14.0,50.0" fill-opacity="0" stroke="black" stroke-width="1" />
<path d="M0.0,-57.0 L-13.96119282113871,-61.29662472294954 L-14.0,-50.0" fill-opacity="0" stroke="black" stroke-width="1" />
<path d="M-50.0,50.0 L-38.69112541392607,54.42485847250894 L-38.0,62.0" fill-opacity="0" stroke="black" stroke-width="1" />
<path d="M-50.0,-50.0 L-38.69112541392607,-45.57514152749106 L-38.0,-38.0" fill-opacity="0" stroke="black" stroke-width="1" />
<path d="M-50.0,50.0 L-38.69112541392607,45.57514152749106 L-38.0,38.0" fill-opacity="0" stroke="black" stroke-width="1" />
<path d="M-50.0,-50.0 L-38.69112541392607,-54.42485847250894 L-38.0,-62.0" fill-opacity="0" stroke="black" stroke-width="1" />
<path d="M-9.0,91.0 L-0.24680114362229544,98.58059637105012 L0.0,100.0" fill-opacity="0" stroke="black" stroke-width="1" />
<path d="M-9.0,-9.0 L-0.24680114362229544,-1.4194036289498835 L0.0,-0.0" fill-opacity="0" stroke="black" stroke-width="1" />
<path d="M-9.0,9.0 L-0.24680114362229544,1.4194036289498797 L0.0,-0.0" fill-opacity="0" stroke="black" stroke-width="1" />
<path d="M-9.0,-91.0 L-0.24680114362229544,-98.58059637105012 L0.0,-100.0" fill-opacity="0" stroke="black" stroke-width="1" />
<path d="M-93.0,-0.0 L-88.84111308106972,-2.0757997053258426 L-78.74675233957015,-3.7262962365697843" fill-opacity="0" stroke="black" stroke-width="1" />
<path d="M-93.0,-0.0 L-88.84111308106972,2.0757997053258426 L-78.74675233957015,3.7262962365697843" fill-opacity="0" stroke="black" stroke-width="1" />
<path d="M-88.84111308106972,-2.0757997053258426 L-78.74675233957015,-3.7262962365697843 L-77.96672999397666,-6.77588850435794" fill-opacity="0" stroke="black" stroke-width="1" />
<path d="M-88.84111308106972,2.0757997053258426 L-78.74675233957015,3.7262962365697843 L-77.96672999397666,6.77588850435794" fill-opacity="0" stroke="black" stroke-width="1" />
<path d="M-78.74675233957015,-3.7262962365697843 L-77.96672999397666,-6.77588850435794 L-70.76702113112168,-9.09790929124602" fill-opacity="0" stroke="black" stroke-width="1" />
<path d="M-78.74675233957015,3.7262962365697843 L-77.96672999397666,6.77588850435794 L-70.76702113112168,9.09790929124602" fill-opacity="0" stroke="black" stroke-width="1" />
<path d="M-77.96672999397666,-6.77588850435794 L-70.76702113112168,-9.09790929124602 L-65.0,-0.0" fill-opacity="0" stroke="black" stroke-width="1" />
<path d="M-77.96672999397666,6.77588850435794 L-70.76702113112168,9.09790929124602 L-65.0,-0.0" fill-opacity="0" stroke="black" stroke-width="1" />
<path d="M-57.0,-0.0 L-61.29662472294954,-13.96119282113871 L-50.0,-14.0" fill-opacity="0" stroke="black" stroke-width="1" />
<path d="M-57.0,-0.0 L-61.29662472294954,13.96119282113871 L-50.0,14.0" fill-opacity="0" stroke="black" stroke-width="1" />
<path d="M-50.0,-50.0 L-54.42485847250894,-38.69112541392607 L-62.0,-38.0" fill-opacity="0" stroke="black" stroke-width="1" />
<path d="M-50.0,50.0 L-54.42485847250894,38.69112541392607 L-62.0,38.0" fill-opacity="0" stroke="black" stroke-width="1" />
<path d="M-54.42485847250894,-38.69112541392607 L-62.0,-38.0 L-77.0,-23.0" fill-opacity="0" stroke="black" stroke-width="1" />
<path d="M-54.42485847250894,38.69112541392607 L-62.0,38.0 L-77.0,23.0" fill-opacity="0" stroke="black" stroke-width="1" />
<path d="M-62.0,-38.0 L-77.0,-23.0 L-88.0,-12.0" fill-opacity="0" stroke="black" stroke-width="1" />
<path d="M-62.0,38.0 L-77.0,23.0 L-88.0,12.0" fill-opacity="0" stroke="black" stroke-width="1" />
<path d="M-77.0,-23.0 L-88.0,-12.0 L-91.0,-9.0" fill-opacity="0" stroke="black" stroke-width="1" />
<path d="M-77.0,23.0 L-88.0,12.0 L-91.0,9.0" fill-opacity="0" stroke="black" stroke-width="1" />
<path d="M-88.0,-12.0 L-91.0,-9.0 L-98.58059637105012,-0.24680114362229544" fill-opacity="0" stroke="black" stroke-width="1" />
<path d="M-88.0,12.0 L-91.0,9.0 L-98.58059637105012,0.24680114362229544" fill-opacity="0" stroke="black" stroke-width="1" />
<path d="M-91.0,-9.0 L-98.58059637105012,-0.24680114362229544 L-100.0,-0.0" fill-opacity="0" stroke="black" stroke-width="1" />
<path d="M-91.0,9.0 L-98.58059637105012,0.24680114362229544 L-100.0,-0.0" fill-opacity="0" stroke="black" stroke-width="1" />
<circle cx="0" cy="-97" r="8" stroke-dasharray="39.653880605311166 10.611601852125524" stroke-dashoffset="-17.59291886010284" stroke="black" stroke-width="1" fill="white" fill-opacity="1" />
<circle cx="0" cy="-97" r="4" stroke="black" stroke-width="1" fill="white" fill-opacity="1" />
</svg>