<?xml version="1.0" encoding="UTF-8"?>
<svg xmlns="http://www.w3.org/2000/svg" xmlns:xlink="http://www.w3.org/1999/xlink"
     width="250" height="250" viewBox="-125.0 -125.0 250 250">
<defs>
</defs>
<path d="M34.0,-0.0 L39.52729644877698,-7.259612953116451 L42.0,-0.0" fill-opacity="0" stroke="black" stroke-width="1" />
<path d="M34.0,-0.0 L39.52729644877698,7.259612953116451 L42.0,-0.0" fill-opacity="0" stroke="black" stroke-width="1" />
<path d="M49.0,51.0 L32.0,68.0 L23.0,77.0" fill-opacity="0" stroke="black" stroke-width="1" />
<path d="M49.0,-51.0 L32.0,-68.0 L23.0,-77.0" fill-opacity="0" stroke="black" stroke-width="1" />
<path d="M23.0,77.0 L22.0,78.0 L14.0,86.0" fill-opacity="0" stroke="black" stroke-width="1" />
<path d="M23.0,-77.0 L22.0,-78.0 L14.0,-86.0" fill-opacity="0" stroke="black" stroke-width="1" />
<path d="M22.0,78.0 L14.0,86.0 L6.9391958564503975,86.95667554726383" fill-opacity="0" stroke="black" stroke-width="1" />
<path d="M22.0,-78.0 L14.0,-86.0 L6.9391958564503975,-86.95667554726383" fill-opacity="0" stroke="black" stroke-width="1" />
<path d="M14.0,-14.0 L13.04332445273617,-6.9391958564503975 L12.0,-12.0" fill-opacity="0" stroke="black" stroke-width="1" />
<path d="M14.0,14.0 L13.04332445273617,6.9391958564503975 L12.0,12.0" fill-opacity="0" stroke="black" stroke-width="1" />
<path d="M6.9391958564503975,86.95667554726383 L12.0,88.0 L5.765201525514263,90.26381077611667" fill-opacity="0" stroke="black" stroke-width="1" />
<path d="M6.9391958564503975,-86.95667554726383 L12.0,-88.0 L5.765201525514263,-90.26381077611667" fill-opacity="0" stroke="black" stroke-width="1" />
<path d="M12.0,-12.0 L9.736189223883326,-5.765201525514263 L5.5528170930318534,-4.43572183192971" fill-opacity="0" stroke="black" stroke-width="1" />
<path d="M12.0,12.0 L9.736189223883326,5.765201525514263 L5.5528170930318534,4.43572183192971" fill-opacity="0" stroke="black" stroke-width="1" />
<path d="M9.736189223883326,-5.765201525514263 L5.5528170930318534,-4.43572183192971 L5.161886178713182,-2.4368792646373065" fill-opacity="0" stroke="black" stroke-width="1" />
<path d="M9.736189223883326,5.765201525514263 L5.5528170930318534,4.43572183192971 L5.161886178713182,2.4368792646373065" fill-opacity="0" stroke="black" stroke-width="1" />
<path d="M5.5528170930318534,-4.43572183192971 L5.161886178713182,-2.4368792646373065 L3.0729852282885046,-0.5851910834031748" fill-opacity="0" stroke="black" stroke-width="1" />
<path d="M5.5528170930318534,4.43572183192971 L5.161886178713182,2.4368792646373065 L3.0729852282885046,0.5851910834031748" fill-opacity="0" stroke="black" stroke-width="1" />
<path d="M5.161886178713182,-2.4368792646373065 L3.0729852282885046,-0.5851910834031748 L0.0,-0.0" fill-opacity="0" stroke="black" stroke-width="1" />
<path d="M5.161886178713182,2.4368792646373065 L3.0729852282885046,0.5851910834031748 L0.0,-0.0" fill-opacity="0" stroke="black" stroke-width="1" />
<path d="M-34.0,-0.0 L-39.52729644877698,-7.259612953116451 L-42.0,-0.0" fill-opacity="0" stroke="black" stroke-width="1" />
<path d="M-34.0,-0.0 L-39.52729644877698,7.259612953116451 L-42.0,-0.0" fill-opacity="0" stroke="black" stroke-width="1" />
<path d="M-49.0,51.0 L-32.0,68.0 L-23.0,77.0" fill-opacity="0" stroke="black" stroke-width="1" />
<path d="M-49.0,-51.0 L-32.0,-68.0 L-23.0,-77.0" fill-opacity="0" stroke="black" stroke-width="1" />
<path d="M-23.0,77.0 L-22.0,78.0 L-14.0,86.0" fill-opacity="0" stroke="black" stroke-width="1" />
<path d="M-23.0,-77.0 L-22.0,-78.0 L-14.0,-86.0" fill-opacity="0" stroke="black" stroke-width="1" />
<path d="M-22.0,78.0 L-14.0,86.0 L-6.9391958564503975,86.95667554726383" fill-opacity="0" stroke="black" stroke-width="1" />
<path d="M-22.0,-78.0 L-14.0,-86.0 L-6.9391958564503975,-86.95667554726383" fill-opacity="0" stroke="black" stroke-width="1" />
<path d="M-14.0,-14.0 L-13.04332445273617,-6.9391958564503975 L-12.0,-12.0" fill-opacity="0" stroke="black" stroke-width="1" />
<path d="M-14.0,14.0 L-13.04332445273617,6.9391958564503975 L-12.0,12.0" fill-opacity="0" stroke="black" stroke-width="1" />
<path d="M-6.9391958564503975,86.95667554726383 L-12.0,88.0 L-5.765201525514263,90.26381077611667" fill-opacity="0" stroke="black" stroke-width="1" />
<path d="M-6.9391958564503975,-86.95667554726383 L-12.0,-88.0 L-5.765201525514263,-90.26381077611667" fill-opacity="0" stroke="black" stroke-width="1" />
<path d="M-12.0,-12.0 L-9.736189223883326,-5.765201525514263 L-5.5528170930318534,-4.43572183192971" fill-opacity="0" stroke="black" stroke-width="1" />
<path d="M-12.0,12.0 L-9.736189223883326,5.765201525514263 L-5.5528170930318534,4.43572183192971" fill-opacity="0" stroke="black" stroke-width="1" />
<path d="M-9.736189223883326,-5.765201525514263 L-5.5528170930318534,-4.43572183192971 L-5.161886178713182,-2.4368792646373065" fill-opacity="0" stroke="black" stroke-width="1" />
<path d="M-9.736189223883326,5.765201525514263 L-5.5528170930318534,4.43572183192971 L-5.161886178713182,2.4368792646373065" fill-opacity="0" stroke="black" stroke-width="1" />
<path d="M-5.5528170930318534,-4.43572183192971 L-5.161886178713182,-2.4368792646373065 L-3.0729852282885046,-0.5851910834031748" fill-opacity="0" stroke="black" stroke-width="1" />
<path d="M-5.5528170930318534,4.43572183192971 L-5.161886178713182,2.4368792646373065 L-3.0729852282885046,0.5851910834031748" fill-opacity="0" stroke="black" stroke-width="1" />
<path d="M-5.161886178713182,-2.4368792646373065 L-3.0729852282885046,-0.5851910834031748 L0.0,-0.0" fill-opacity="0" stroke="black" stroke-width="1" />
<path d="M-5.161886178713182,2.4368792646373065 L-3.0729852282885046,0.5851910834031748 L0.0,-0.0" fill-opacity="0" stroke="black" stroke-width="1" />
<path d="M66.0,-0.0 L60.47270355122302,7.259612953116451 L58.0,-0.0" fill-opacity="0" stroke="black" stroke-width="1" />
<path d="M66.0,-0.0 L60.47270355122302,-7.259612953116451 L58.0,-0.0" fill-opacity="0" stroke="black" stroke-width="1" />
<path d="M51.0,49.0 L68.0,32.0 L77.0,23.0" fill-opacity="0" stroke="black" stroke-width="1" />
<path d="M51.0,-49.0 L68.0,-32.0 L77.0,-23.0" fill-opacity="0" stroke="black" stroke-width="1" />
<path d="M77.0,23.0 L78.0,22.0 L86.0,14.0" fill-opacity="0" stroke="black" stroke-width="1" />
<path d="M77.0,-23.0 L78.0,-22.0 L86.0,-14.0" fill-opacity="0" stroke="black" stroke-width="1" />
<path d="M78.0,22.0 L86.0,14.0 L86.95667554726383,6.9391958564503975" fill-opacity="0" stroke="black" stroke-width="1" />
<path d="M78.0,-22.0 L86.0,-14.0 L86.95667554726383,-6.9391958564503975" fill-opacity="0" stroke="black" stroke-width="1" />
<path d="M86.0,14.0 L86.95667554726383,6.9391958564503975 L88.0,12.0" fill-opacity="0" stroke="black" stroke-width="1" />
<path d="M86.0,-14.0 L86.95667554726383,-6.9391958564503975 L88.0,-12.0" fill-opacity="0" stroke="black" stroke-width="1" />
<path d="M86.95667554726383,6.9391958564503975 L88.0,12.0 L90.26381077611667,5.765201525514263" fill-opacity="0" stroke="black" stroke-width="1" />
<path d="M86.95667554726383,-6.9391958564503975 L88.0,-12.0 L90.26381077611667,-5.765201525514263" fill-opacity="0" stroke="black" stroke-width="1" />
<path d="M88.0,12.0 L90.26381077611667,5.765201525514263 L94.44718290696815,4.43572183192971" fill-opacity="0" stroke="black" stroke-width="1" />
<path d="M88.0,-12.0 L90.26381077611667,-5.765201525514263 L94.44718290696815,-4.43572183192971" fill-opacity="0" stroke="black" stroke-width="1" />
<path d="M90.26381077611667,5.765201525514263 L94.44718290696815,4.43572183192971 L94.83811382128681,2.4368792646373065" fill-opacity="0" stroke="black" stroke-width="1" />
<path d="M90.26381077611667,-5.765201525514263 L94.44718290696815,-4.43572183192971 L94.83811382128681,-2.4368792646373065" fill-opacity="0" stroke="black" stroke-width="1" />
<path d="M94.44718290696815,4.43572183192971 L94.83811382128681,2.4368792646373065 L96.9270147717115,0.5851910834031748" fill-opacity="0" stroke="black" stroke-width="1" />
<path d="M94.44718290696815,-4.43572183192971 L94.83811382128681,-2.4368792646373065 L96.9270147717115,-0.5851910834031748" fill-opacity="0" stroke="black" stroke-width="1" />
<path d="M94.83811382128681,2.4368792646373065 L96.9270147717115,0.5851910834031748 L100.0,-0.0" fill-opacity="0" stroke="black" stroke-width="1" />
<path d="M94.83811382128681,-2.4368792646373065 L96.9270147717115,-0.5851910834031748 L100.0,-0.0" fill-opacity="0" stroke="black" stroke-width="1" />
<path d="M0.0,-34.0 L7.259612953116451,-39.52729644877698 L0.0,-42.0" fill-opacity="0" stroke="black" stroke-width="1" />
<path d="M0.0,34.0 L7.259612953116451,39.52729644877698 L0.0,42.0" fill-opacity="0" stroke="black" stroke-width="1" />
<path d="M0.0,66.0 L7.259612953116451,60.47270355122302 L0.0,58.0" fill-opacity="0" stroke="black" stroke-width="1" />
<path d="M0.0,-66.0 L7.259612953116451,-60.47270355122302 L0.0,-58.0" fill-opacity="0" stroke="black" stroke-width="1" />
<path d="M14.0,-14.0 L6.9391958564503975,-13.04332445273617 L12.0,-12.0" fill-opacity="0" stroke="black" stroke-width="1" />
<path d="M14.0,14.0 L6.9391958564503975,13.04332445273617 L12.0,12.0" fill-opacity="0" stroke="black" stroke-width="1" />
<path d="M14.0,86.0 L6.9391958564503975,86.95667554726383 L12.0,88.0" fill-opacity="0" stroke="black" stroke-width="1" />
<path d="M14.0,-86.0 L6.9391958564503975,-86.95667554726383 L12.0,-88.0" fill-opacity="0" stroke="black" stroke-width="1" />
<path d="M12.0,-12.0 L5.765201525514263,-9.736189223883326 L4.43572183192971,-5.5528170930318534" fill-opacity="0" stroke="black" stroke-width="1" />
<path d="M12.0,12.0 L5.765201525514263,9.736189223883326 L4.43572183192971,5.5528170930318534" fill-opacity="0" stroke="black" stroke-width="1" />
<path d="M12.0,88.0 L5.765201525514263,90.26381077611667 L4.43572183192971,94.44718290696815" fill-opacity="0" stroke="black" stroke-width="1" />
<path d="M12.0,-88.0 L5.765201525514263,-90.26381077611667 L4.43572183192971,-94.44718290696815" fill-opacity="0" stroke="black" stroke-width="1" />
<path d="M5.765201525514263,-9.736189223883326 L4.43572183192971,-5.5528170930318534 L2.4368792646373065,-5.161886178713182" fill-opacity="0" stroke="black" stroke-width="1" />
<path d="M5.765201525514263,9.736189223883326 L4.43572183192971,5.5528170930318534 L2.4368792646373065,5.161886178713182" fill-opacity="0" stroke="black" stroke-width="1" />
<path d="M5.765201525514263,90.26381077611667 L4.43572183192971,94.44718290696815 L2.4368792646373065,94.83811382128681" fill-opacity="0" stroke="black" stroke-width="1" />
<path d="M5.765201525514263,-90.26381077611667 L4.43572183192971,-94.44718290696815 L2.4368792646373065,-94.83811382128681" fill-opacity="0" stroke="black" stroke-width="1" />
<path d="M4.43572183192971,-5.5528170930318534 L2.4368792646373065,-5.161886178713182 L0.5851910834031748,-3.0729852282885046" fill-opacity="0" stroke="black" stroke-width="1" />
<path d="M4.43572183192971,5.5528170930318534 L2.4368792646373065,5.161886178713182 L0.5851910834031748,3.0729852282885046" fill-opacity="0" stroke="black" stroke-width="1" />
<path d="M4.43572183192971,94.44718290696815 L2.4368792646373065,94.83811382128681 L0.5851910834031748,96.9270147717115" fill-opacity="0" stroke="black" stroke-width="1" />
<path d="M4.43572183192971,-94.44718290696815 L2.4368792646373065,-94.83811382128681 L0.5851910834031748,-96.9270147717115" fill-opacity="0" stroke="black" stroke-width="1" />
<path d="M2.4368792646373065,-5.161886178713182 L0.5851910834031748,-3.0729852282885046 L0.0,-0.0" fill-opacity="0" stroke="black" stroke-width="1" />
<path d="M2.4368792646373065,5.161886178713182 L0.5851910834031748,3.0729852282885046 L0.0,-0.0" fill-opacity="0" stroke="black" stroke-width="1" />
<path d="M2.4368792646373065,94.83811382128681 L0.5851910834031748,96.9270147717115 L0.0,100.0" fill-opacity="0" stroke="black" stroke-width="1" />
<path d="M2.4368792646373065,-94.83811382128681 L0.5851910834031748,-96.9270147717115 L0.0,-100.0" fill-opacity="0" stroke="black" stroke-width="1" />
<path d="M0.0,66.0 L-7.259612953116451,60.47270355122302 L0.0,58.0" fill-opacity="0" stroke="black" stroke-width="1" />
<path d="M0.0,-34.0 L-7.259612953116451,-39.52729644877698 L0.0,-42.0" fill-opacity="0" stroke="black" stroke-width="1" />
<path d="M0.0,34.0 L-7.259612953116451,39.52729644877698 L0.0,42.0" fill-opacity="0" stroke="black" stroke-width="1" />
<path d="M0.0,-66.0 L-7.259612953116451,-60.47270355122302 L0.0,-58.0" fill-opacity="0" stroke="black" stroke-width="1" />
<path d="M-14.0,86.0 L-6.9391958564503975,86.95667554726383 L-12.0,88.0" fill-opacity="0" stroke="black" stroke-width="1" />
<path d="M-14.0,-14.0 L-6.9391958564503975,-13.04332445273617 L-12.0,-12.0" fill-opacity="0" stroke="black" stroke-width="1" />
<path d="M-14.0,14.0 L-6.9391958564503975,13.043324452736172 L-12.0,12.0" fill-opacity="0" stroke="black" stroke-width="1" />
<path d="M-14.0,-86.0 L-6.9391958564503975,-86.95667554726383 L-12.0,-88.0" fill-opacity="0" stroke="black" stroke-width="1" />
<path d="M-12.0,88.0 L-5.765201525514263,90.26381077611667 L-4.43572183192971,94.44718290696815" fill-opacity="0" stroke="black" stroke-width="1" />
<path d="M-12.0,-12.0 L-5.765201525514263,-9.736189223883326 L-4.43572183192971,-5.5528170930318534" fill-opacity="0" stroke="black" stroke-width="1" />
<path d="M-12.0,12.0 L-5.765201525514263,9.73618922388333 L-4.43572183192971,5.552817093031848" fill-opacity="0" stroke="black" stroke-width="1" />
<path d="M-12.0,-88.0 L-5.765201525514263,-90.26381077611667 L-4.43572183192971,-94.44718290696815" fill-opacity="0" stroke="black" stroke-width="1" />
<path d="M-5.765201525514263,90.26381077611667 L-4.43572183192971,94.44718290696815 L-2.4368792646373065,94.83811382128681" fill-opacity="0" stroke="black" stroke-width="1" />
<path d="M-5.765201525514263,-9.736189223883326 L-4.43572183192971,-5.5528170930318534 L-2.4368792646373065,-5.161886178713182" fill-opacity="0" stroke="black" stroke-width="1" />
<path d="M-5.765201525514263,9.73618922388333 L-4.43572183192971,5.552817093031848 L-2.4368792646373065,5.161886178713189" fill-opacity="0" stroke="black" stroke-width="1" />
<path d="M-5.765201525514263,-90.26381077611667 L-4.43572183192971,-94.44718290696815 L-2.4368792646373065,-94.83811382128681" fill-opacity="0" stroke="black" stroke-width="1" />
<path d="M-4.43572183192971,94.44718290696815 L-2.4368792646373065,94.83811382128681 L-0.5851910834031748,96.9270147717115" fill-opacity="0" stroke="black" stroke-width="1" />
<path d="M-4.43572183192971,-5.5528170930318534 L-2.4368792646373065,-5.161886178713182 L-0.5851910834031748,-3.0729852282885046" fill-opacity="0" stroke="black" stroke-width="1" />
<path d="M-4.43572183192971,5.552817093031848 L-2.4368792646373065,5.161886178713189 L-0.5851910834031748,3.072985228288502" fill-opacity="0" stroke="black" stroke-width="1" />
<path d="M-4.43572183192971,-94.44718290696815 L-2.4368792646373065,-94.83811382128681 L-0.5851910834031748,-96.9270147717115" fill-opacity="0" stroke="black" stroke-width="1" />
<path d="M-2.4368792646373065,94.83811382128681 L-0.5851910834031748,96.9270147717115 L0.0,100.0" fill-opacity="0" stroke="black" stroke-width="1" />
<path d="M-2.4368792646373065,-5.161886178713182 L-0.5851910834031748,-3.0729852282885046 L0.0,-0.0" fill-opacity="0" stroke="black" stroke-width="1" />
<path d="M-2.4368792646373065,5.161886178713189 L-0.5851910834031748,3.072985228288502 L0.0,-0.0" fill-opacity="0" stroke="black" stroke-width="1" />
<path d="M-2.4368792646373065,-94.83811382128681 L-0.5851910834031748,-96.9270147717115 L0.0,-100.0" fill-opacity="0" stroke="black" stroke-width="1" />
<path d="M-66.0,-0.0 L-60.47270355122302,-7.259612953116451 L-58.0,-0.0" fill-opacity="0" stroke="black" stroke-width="1" />
<path d="M-66.0,-0.0 L-60.47270355122302,7.259612953116451 L-58.0,-0.0" fill-opacity="0" stroke="black" stroke-width="1" />
<path d="M-51.0,-49.0 L-68.0,-32.0 L-77.0,-23.0" fill-opacity="0" stroke="black" stroke-width="1" />
<path d="M-51.0,49.0 L-68.0,32.0 L-77.0,23.0" fill-opacity="0" stroke="black" stroke-width="1" />
<path d="M-77.0,-23.0 L-78.0,-22.0 L-86.0,-14.0" fill-opacity="0" stroke="black" stroke-width="1" />
<path d="M-77.0,23.0 L-78.0,22.0 L-86.0,14.0" fill-opacity="0" stroke="black" stroke-width="1" />
<path d="M-78.0,-22.0 L-86.0,-14.0 L-86.95667554726383,-6.9391958564503975" fill-opacity="0" stroke="black" stroke-width="1" />
<path d="M-78.0,22.0 L-86.0,14.0 L-86.95667554726383,6.9391958564503975" fill-opacity="0" stroke="black" stroke-width="1" />
<path d="M-86.0,-14.0 L-86.95667554726383,-6.9391958564503975 L-88.0,-12.0" fill-opacity="0" stroke="black" stroke-width="1" />
<path d="M-86.0,14.0 L-86.95667554726383,6.9391958564503975 L-88.0,12.0" fill-opacity="0" stroke="black" stroke-width="1" />
<path d="M-86.95667554726383,-6.9391958564503975 L-88.0,-12.0 L-90.26381077611667,-5.765201525514263" fill-opacity="0" stroke="black" stroke-width="1" />
<path d="M-86.95667554726383,6.9391958564503975 L-88.0,12.0 L-90.26381077611667,5.765201525514263" fill-opacity="0" stroke="black" stroke-width="1" />
<path d="M-88.0,-12.0 L-90.26381077611667,-5.765201525514263 L-94.44718290696815,-4.43572183192971" fill-opacity="0" stroke="black" stroke-width="1" />
<path d="M-88.0,12.0 L-90.26381077611667,5.765201525514263 L-94.44718290696815,4.43572183192971" fill-opacity="0" stroke="black" stroke-width="1" />
<path d="M-90.26381077611667,-5.765201525514263 L-94.44718290696815,-4.43572183192971 L-94.83811382128681,-2.4368792646373065" fill-opacity="0" stroke="black" stroke-width="1" />
<path d="M-90.26381077611667,5.765201525514263 L-94.44718290696815,4.43572183192971 L-94.83811382128681,2.4368792646373065" fill-opacity="0" stroke="black" stroke-width="1" />
<path d="M-94.44718290696815,-4.43572183192971 L-94.83811382128681,-2.4368792646373065 L-96.9270147717115,-0.5851910834031748" fill-opacity="0" stroke="black" stroke-width="1" />
<path d="M-94.44718290696815,4.43572183192971 L-94.83811382128681,2.4368792646373065 L-96.9270147717115,0.5851910834031748" fill-opacity="0" stroke="black" stroke-width="1" />
<path d="M-94.83811382128681,-2.4368792646373065 L-96.9270147717115,-0.5851910834031748 L-100.0,-0.0" fill-opacity="0" stroke="black" stroke-width="1" />
<path d="M-94.83811382128681,2.4368792646373065 L-96.9270147717115,0.5851910834031748 L-100.0,-0.0" fill-opacity="0" stroke="black" stroke-width="1" />
<circle cx="0" cy="-97" r="8" stroke-dasharray="39.653880605311166 10.611601852125524" stroke-dashoffset="-17.59291886010284" stroke="black" stroke-width="1" fill="white" fill-opacity="1" />
<circle cx="0" cy="-97" r="4" stroke="black" stroke-width="1" fill="white" fill-opacity="1" />
</svg>