<?xml version="1.0" encoding="UTF-8"?>
<svg xmlns="http://www.w3.org/2000/svg" xmlns:xlink="http://www.w3.org/1999/xlink"
     width="250" height="250" viewBox="-125.0 -125.0 250 250">
<defs>
</defs>
<path d="M12.0,88.0 L3.0,97.0 L1.0741739407398587,97.76045222449288" fill-opacity="0" stroke="black" stroke-width="1" />
<path d="M12.0,-88.0 L3.0,-97.0 L1.0741739407398587,-97.76045222449288" fill-opacity="0" stroke="black" stroke-width="1" />
<path d="M15.0,-0.0 L15.678133352852736,-1.4012122607642397 L16.0,-0.0" fill-opacity="0" stroke="black" stroke-width="1" />
<path d="M15.0,-0.0 L15.678133352852736,1.4012122607642397 L16.0,-0.0" fill-opacity="0" stroke="black" stroke-width="1" />
<path d="M16.0,-0.0 L16.511104824820684,-2.0089956734498284 L16.733398900508078,-2.225060940885537" fill-opacity="0" stroke="black" stroke-width="1" />
<path d="M16.0,-0.0 L16.511104824820684,2.0089956734498284 L16.733398900508078,2.225060940885537" fill-opacity="0" stroke="black" stroke-width="1" />
<path d="M16.511104824820684,-2.0089956734498284 L16.733398900508078,-2.225060940885537 L20.75316870073589,-2.53822859478538" fill-opacity="0" stroke="black" stroke-width="1" />
<path d="M16.511104824820684,2.0089956734498284 L16.733398900508078,2.225060940885537 L20.75316870073589,2.53822859478538" fill-opacity="0" stroke="black" stroke-width="1" />
<path d="M16.733398900508078,-2.225060940885537 L20.75316870073589,-2.53822859478538 L21.0,-0.0" fill-opacity="0" stroke="black" stroke-width="1" />
<path d="M16.733398900508078,2.225060940885537 L20.75316870073589,2.53822859478538 L21.0,-0.0" fill-opacity="0" stroke="black" stroke-width="1" />
<path d="M21.0,-0.0 L21.011402104438154,-3.2919585305763945 L21.253106225761183,-5.53104833691169" fill-opacity="0" stroke="black" stroke-width="1" />
<path d="M21.0,-0.0 L21.011402104438154,3.2919585305763945 L21.253106225761183,5.53104833691169" fill-opacity="0" stroke="black" stroke-width="1" />
<path d="M21.011402104438154,-3.2919585305763945 L21.253106225761183,-5.53104833691169 L21.51170152973349,-6.24557903595875" fill-opacity="0" stroke="black" stroke-width="1" />
<path d="M21.011402104438154,3.2919585305763945 L21.253106225761183,5.53104833691169 L21.51170152973349,6.24557903595875" fill-opacity="0" stroke="black" stroke-width="1" />
<path d="M21.253106225761183,-5.53104833691169 L21.51170152973349,-6.24557903595875 L22.0,-0.0" fill-opacity="0" stroke="black" stroke-width="1" />
<path d="M21.253106225761183,5.53104833691169 L21.51170152973349,6.24557903595875 L22.0,-0.0" fill-opacity="0" stroke="black" stroke-width="1" />
<path d="M23.0,77.0 L22.0,78.0 L12.0,88.0" fill-opacity="0" stroke="black" stroke-width="1" />
<path d="M23.0,-77.0 L22.0,-78.0 L12.0,-88.0" fill-opacity="0" stroke="black" stroke-width="1" />
<path d="M22.0,-0.0 L23.359742203198714,-7.317563715684738 L24.29217922832979,-7.587235095542259" fill-opacity="0" stroke="black" stroke-width="1" />
<path d="M22.0,-0.0 L23.359742203198714,7.317563715684738 L24.29217922832979,7.587235095542259" fill-opacity="0" stroke="black" stroke-width="1" />
<path d="M23.359742203198714,-7.317563715684738 L24.29217922832979,-7.587235095542259 L24.443057627630438,-8.059803055098913" fill-opacity="0" stroke="black" stroke-width="1" />
<path d="M23.359742203198714,7.317563715684738 L24.29217922832979,7.587235095542259 L24.443057627630438,8.059803055098913" fill-opacity="0" stroke="black" stroke-width="1" />
<path d="M24.29217922832979,-7.587235095542259 L24.443057627630438,-8.059803055098913 L32.04788444654905,-9.21461095501094" fill-opacity="0" stroke="black" stroke-width="1" />
<path d="M24.29217922832979,7.587235095542259 L24.443057627630438,8.059803055098913 L32.04788444654905,9.21461095501094" fill-opacity="0" stroke="black" stroke-width="1" />
<path d="M24.443057627630438,-8.059803055098913 L32.04788444654905,-9.21461095501094 L33.22698302785554,-16.666930028444956" fill-opacity="0" stroke="black" stroke-width="1" />
<path d="M24.443057627630438,8.059803055098913 L32.04788444654905,9.21461095501094 L33.22698302785554,16.666930028444956" fill-opacity="0" stroke="black" stroke-width="1" />
<path d="M32.04788444654905,-9.21461095501094 L33.22698302785554,-16.666930028444956 L50.0,-0.0" fill-opacity="0" stroke="black" stroke-width="1" />
<path d="M32.04788444654905,9.21461095501094 L33.22698302785554,16.666930028444956 L50.0,-0.0" fill-opacity="0" stroke="black" stroke-width="1" />
<path d="M50.0,-14.0 L34.742972722442126,-17.212369671096134 L35.07041124783563,-17.426110924238767" fill-opacity="0" stroke="black" stroke-width="1" />
<path d="M50.0,14.0 L34.742972722442126,17.212369671096134 L35.07041124783563,17.426110924238767" fill-opacity="0" stroke="black" stroke-width="1" />
<path d="M34.742972722442126,-17.212369671096134 L35.07041124783563,-17.426110924238767 L37.80263643671377,-18.495259586305025" fill-opacity="0" stroke="black" stroke-width="1" />
<path d="M34.742972722442126,17.212369671096134 L35.07041124783563,17.426110924238767 L37.80263643671377,18.495259586305025" fill-opacity="0" stroke="black" stroke-width="1" />
<path d="M35.07041124783563,-17.426110924238767 L37.80263643671377,-18.495259586305025 L50.0,-19.0" fill-opacity="0" stroke="black" stroke-width="1" />
<path d="M35.07041124783563,17.426110924238767 L37.80263643671377,18.495259586305025 L50.0,19.0" fill-opacity="0" stroke="black" stroke-width="1" />
<path d="M50.0,-19.0 L43.48263260481093,-22.576031948776546 L50.0,-27.0" fill-opacity="0" stroke="black" stroke-width="1" />
<path d="M50.0,19.0 L43.48263260481093,22.576031948776546 L50.0,27.0" fill-opacity="0" stroke="black" stroke-width="1" />
<path d="M50.0,-28.0 L46.35741889241909,-33.02631898878998 L50.0,-50.0" fill-opacity="0" stroke="black" stroke-width="1" />
<path d="M50.0,28.0 L46.35741889241909,33.02631898878998 L50.0,50.0" fill-opacity="0" stroke="black" stroke-width="1" />
<path d="M50.0,50.0 L41.0,59.0 L23.0,77.0" fill-opacity="0" stroke="black" stroke-width="1" />
<path d="M50.0,-50.0 L41.0,-59.0 L23.0,-77.0" fill-opacity="0" stroke="black" stroke-width="1" />
<path d="M41.0,59.0 L23.0,77.0 L22.0,78.0" fill-opacity="0" stroke="black" stroke-width="1" />
<path d="M41.0,-59.0 L23.0,-77.0 L22.0,-78.0" fill-opacity="0" stroke="black" stroke-width="1" />
<path d="M22.0,78.0 L12.0,88.0 L3.0,97.0" fill-opacity="0" stroke="black" stroke-width="1" />
<path d="M22.0,-78.0 L12.0,-88.0 L3.0,-97.0" fill-opacity="0" stroke="black" stroke-width="1" />
<path d="M3.0,-3.0 L2.2395477755071225,-1.0741739407398587 L0.7497121661775408,-0.29013339639427205" fill-opacity="0" stroke="black" stroke-width="1" />
<path d="M3.0,3.0 L2.2395477755071225,1.0741739407398587 L0.7497121661775408,0.29013339639427205" fill-opacity="0" stroke="black" stroke-width="1" />
<path d="M2.2395477755071225,-1.0741739407398587 L0.7497121661775408,-0.29013339639427205 L0.0,-0.0" fill-opacity="0" stroke="black" stroke-width="1" />
<path d="M2.2395477755071225,1.0741739407398587 L0.7497121661775408,0.29013339639427205 L0.0,-0.0" fill-opacity="0" stroke="black" stroke-width="1" />
<path d="M-12.0,88.0 L-3.0,97.0 L-1.0741739407398587,97.76045222449288" fill-opacity="0" stroke="black" stroke-width="1" />
<path d="M-12.0,-88.0 L-3.0,-97.0 L-1.0741739407398587,-97.76045222449288" fill-opacity="0" stroke="black" stroke-width="1" />
<path d="M-15.0,-0.0 L-15.678133352852736,-1.4012122607642397 L-16.0,-0.0" fill-opacity="0" stroke="black" stroke-width="1" />
<path d="M-15.0,-0.0 L-15.678133352852736,1.4012122607642397 L-16.0,-0.0" fill-opacity="0" stroke="black" stroke-width="1" />
<path d="M-16.0,-0.0 L-16.511104824820684,-2.0089956734498284 L-16.733398900508078,-2.225060940885537" fill-opacity="0" stroke="black" stroke-width="1" />
<path d="M-16.0,-0.0 L-16.511104824820684,2.0089956734498284 L-16.733398900508078,2.225060940885537" fill-opacity="0" stroke="black" stroke-width="1" />
<path d="M-16.511104824820684,-2.0089956734498284 L-16.733398900508078,-2.225060940885537 L-20.75316870073589,-2.53822859478538" fill-opacity="0" stroke="black" stroke-width="1" />
<path d="M-16.511104824820684,2.0089956734498284 L-16.733398900508078,2.225060940885537 L-20.75316870073589,2.53822859478538" fill-opacity="0" stroke="black" stroke-width="1" />
<path d="M-16.733398900508078,-2.225060940885537 L-20.75316870073589,-2.53822859478538 L-21.0,-0.0" fill-opacity="0" stroke="black" stroke-width="1" />
<path d="M-16.733398900508078,2.225060940885537 L-20.75316870073589,2.53822859478538 L-21.0,-0.0" fill-opacity="0" stroke="black" stroke-width="1" />
<path d="M-21.0,-0.0 L-21.011402104438154,-3.2919585305763945 L-21.253106225761183,-5.53104833691169" fill-opacity="0" stroke="black" stroke-width="1" />
<path d="M-21.0,-0.0 L-21.011402104438154,3.2919585305763945 L-21.253106225761183,5.53104833691169" fill-opacity="0" stroke="black" stroke-width="1" />
<path d="M-21.011402104438154,-3.2919585305763945 L-21.253106225761183,-5.53104833691169 L-21.51170152973349,-6.24557903595875" fill-opacity="0" stroke="black" stroke-width="1" />
<path d="M-21.011402104438154,3.2919585305763945 L-21.253106225761183,5.53104833691169 L-21.51170152973349,6.24557903595875" fill-opacity="0" stroke="black" stroke-width="1" />
<path d="M-21.253106225761183,-5.53104833691169 L-21.51170152973349,-6.24557903595875 L-22.0,-0.0" fill-opacity="0" stroke="black" stroke-width="1" />
<path d="M-21.253106225761183,5.53104833691169 L-21.51170152973349,6.24557903595875 L-22.0,-0.0" fill-opacity="0" stroke="black" stroke-width="1" />
<path d="M-23.0,77.0 L-22.0,78.0 L-12.0,88.0" fill-opacity="0" stroke="black" stroke-width="1" />
<path d="M-23.0,-77.0 L-22.0,-78.0 L-12.0,-88.0" fill-opacity="0" stroke="black" stroke-width="1" />
<path d="M-22.0,-0.0 L-23.359742203198714,-7.317563715684738 L-24.29217922832979,-7.587235095542259" fill-opacity="0" stroke="black" stroke-width="1" />
<path d="M-22.0,-0.0 L-23.359742203198714,7.317563715684738 L-24.29217922832979,7.587235095542259" fill-opacity="0" stroke="black" stroke-width="1" />
<path d="M-23.359742203198714,-7.317563715684738 L-24.29217922832979,-7.587235095542259 L-24.443057627630438,-8.059803055098913" fill-opacity="0" stroke="black" stroke-width="1" />
<path d="M-23.359742203198714,7.317563715684738 L-24.29217922832979,7.587235095542259 L-24.443057627630438,8.059803055098913" fill-opacity="0" stroke="black" stroke-width="1" />
<path d="M-24.29217922832979,-7.587235095542259 L-24.443057627630438,-8.059803055098913 L-32.04788444654905,-9.21461095501094" fill-opacity="0" stroke="black" stroke-width="1" />
<path d="M-24.29217922832979,7.587235095542259 L-24.443057627630438,8.059803055098913 L-32.04788444654905,9.21461095501094" fill-opacity="0" stroke="black" stroke-width="1" />
<path d="M-24.443057627630438,-8.059803055098913 L-32.04788444654905,-9.21461095501094 L-33.22698302785554,-16.666930028444956" fill-opacity="0" stroke="black" stroke-width="1" />
<path d="M-24.443057627630438,8.059803055098913 L-32.04788444654905,9.21461095501094 L-33.22698302785554,16.666930028444956" fill-opacity="0" stroke="black" stroke-width="1" />
<path d="M-32.04788444654905,-9.21461095501094 L-33.22698302785554,-16.666930028444956 L-50.0,-0.0" fill-opacity="0" stroke="black" stroke-width="1" />
<path d="M-32.04788444654905,9.21461095501094 L-33.22698302785554,16.666930028444956 L-50.0,-0.0" fill-opacity="0" stroke="black" stroke-width="1" />
<path d="M-50.0,-14.0 L-34.742972722442126,-17.212369671096134 L-35.07041124783563,-17.426110924238767" fill-opacity="0" stroke="black" stroke-width="1" />
<path d="M-50.0,14.0 L-34.742972722442126,17.212369671096134 L-35.07041124783563,17.426110924238767" fill-opacity="0" stroke="black" stroke-width="1" />
<path d="M-34.742972722442126,-17.212369671096134 L-35.07041124783563,-17.426110924238767 L-37.80263643671377,-18.495259586305025" fill-opacity="0" stroke="black" stroke-width="1" />
<path d="M-34.742972722442126,17.212369671096134 L-35.07041124783563,17.426110924238767 L-37.80263643671377,18.495259586305025" fill-opacity="0" stroke="black" stroke-width="1" />
<path d="M-35.07041124783563,-17.426110924238767 L-37.80263643671377,-18.495259586305025 L-50.0,-19.0" fill-opacity="0" stroke="black" stroke-width="1" />
<path d="M-35.07041124783563,17.426110924238767 L-37.80263643671377,18.495259586305025 L-50.0,19.0" fill-opacity="0" stroke="black" stroke-width="1" />
<path d="M-50.0,-19.0 L-43.48263260481093,-22.576031948776546 L-50.0,-27.0" fill-opacity="0" stroke="black" stroke-width="1" />
<path d="M-50.0,19.0 L-43.48263260481093,22.576031948776546 L-50.0,27.0" fill-opacity="0" stroke="black" stroke-width="1" />
<path d="M-50.0,-28.0 L-46.35741889241909,-33.02631898878998 L-50.0,-50.0" fill-opacity="0" stroke="black" stroke-width="1" />
<path d="M-50.0,28.0 L-46.35741889241909,33.02631898878998 L-50.0,50.0" fill-opacity="0" stroke="black" stroke-width="1" />
<path d="M-50.0,50.0 L-41.0,59.0 L-23.0,77.0" fill-opacity="0" stroke="black" stroke-width="1" />
<path d="M-50.0,-50.0 L-41.0,-59.0 L-23.0,-77.0" fill-opacity="0" stroke="black" stroke-width="1" />
<path d="M-41.0,59.0 L-23.0,77.0 L-22.0,78.0" fill-opacity="0" stroke="black" stroke-width="1" />
<path d="M-41.0,-59.0 L-23.0,-77.0 L-22.0,-78.0" fill-opacity="0" stroke="black" stroke-width="1" />
<path d="M-22.0,78.0 L-12.0,88.0 L-3.0,97.0" fill-opacity="0" stroke="black" stroke-width="1" />
<path d="M-22.0,-78.0 L-12.0,-88.0 L-3.0,-97.0" fill-opacity="0" stroke="black" stroke-width="1" />
<path d="M-3.0,-3.0 L-2.2395477755071225,-1.0741739407398587 L-0.7497121661775408,-0.29013339639427205" fill-opacity="0" stroke="black" stroke-width="1" />
<path d="M-3.0,3.0 L-2.2395477755071225,1.0741739407398587 L-0.7497121661775408,0.29013339639427205" fill-opacity="0" stroke="black" stroke-width="1" />
<path d="M-2.2395477755071225,-1.0741739407398587 L-0.7497121661775408,-0.29013339639427205 L0.0,-0.0" fill-opacity="0" stroke="black" stroke-width="1" />
<path d="M-2.2395477755071225,1.0741739407398587 L-0.7497121661775408,0.29013339639427205 L0.0,-0.0" fill-opacity="0" stroke="black" stroke-width="1" />
<path d="M88.0,12.0 L97.0,3.0 L97.76045222449288,1.0741739407398587" fill-opacity="0" stroke="black" stroke-width="1" />
<path d="M88.0,-12.0 L97.0,-3.0 L97.76045222449288,-1.0741739407398587" fill-opacity="0" stroke="black" stroke-width="1" />
<path d="M85.0,-0.0 L84.32186664714726,1.4012122607642397 L84.0,-0.0" fill-opacity="0" stroke="black" stroke-width="1" />
<path d="M85.0,-0.0 L84.32186664714726,-1.4012122607642397 L84.0,-0.0" fill-opacity="0" stroke="black" stroke-width="1" />
<path d="M84.0,-0.0 L83.48889517517932,2.0089956734498284 L83.26660109949192,2.225060940885537" fill-opacity="0" stroke="black" stroke-width="1" />
<path d="M84.0,-0.0 L83.48889517517932,-2.0089956734498284 L83.26660109949192,-2.225060940885537" fill-opacity="0" stroke="black" stroke-width="1" />
<path d="M83.48889517517932,2.0089956734498284 L83.26660109949192,2.225060940885537 L79.2468312992641,2.53822859478538" fill-opacity="0" stroke="black" stroke-width="1" />
<path d="M83.48889517517932,-2.0089956734498284 L83.26660109949192,-2.225060940885537 L79.2468312992641,-2.53822859478538" fill-opacity="0" stroke="black" stroke-width="1" />
<path d="M83.26660109949192,2.225060940885537 L79.2468312992641,2.53822859478538 L79.0,-0.0" fill-opacity="0" stroke="black" stroke-width="1" />
<path d="M83.26660109949192,-2.225060940885537 L79.2468312992641,-2.53822859478538 L79.0,-0.0" fill-opacity="0" stroke="black" stroke-width="1" />
<path d="M79.0,-0.0 L78.98859789556184,3.2919585305763945 L78.74689377423881,5.53104833691169" fill-opacity="0" stroke="black" stroke-width="1" />
<path d="M79.0,-0.0 L78.98859789556184,-3.2919585305763945 L78.74689377423881,-5.53104833691169" fill-opacity="0" stroke="black" stroke-width="1" />
<path d="M78.98859789556184,3.2919585305763945 L78.74689377423881,5.53104833691169 L78.48829847026651,6.24557903595875" fill-opacity="0" stroke="black" stroke-width="1" />
<path d="M78.98859789556184,-3.2919585305763945 L78.74689377423881,-5.53104833691169 L78.48829847026651,-6.24557903595875" fill-opacity="0" stroke="black" stroke-width="1" />
<path d="M78.74689377423881,5.53104833691169 L78.48829847026651,6.24557903595875 L78.0,-0.0" fill-opacity="0" stroke="black" stroke-width="1" />
<path d="M78.74689377423881,-5.53104833691169 L78.48829847026651,-6.24557903595875 L78.0,-0.0" fill-opacity="0" stroke="black" stroke-width="1" />
<path d="M77.0,23.0 L78.0,22.0 L88.0,12.0" fill-opacity="0" stroke="black" stroke-width="1" />
<path d="M77.0,-23.0 L78.0,-22.0 L88.0,-12.0" fill-opacity="0" stroke="black" stroke-width="1" />
<path d="M78.0,-0.0 L76.64025779680128,7.317563715684738 L75.70782077167021,7.587235095542259" fill-opacity="0" stroke="black" stroke-width="1" />
<path d="M78.0,-0.0 L76.64025779680128,-7.317563715684738 L75.70782077167021,-7.587235095542259" fill-opacity="0" stroke="black" stroke-width="1" />
<path d="M76.64025779680128,7.317563715684738 L75.70782077167021,7.587235095542259 L75.55694237236956,8.059803055098913" fill-opacity="0" stroke="black" stroke-width="1" />
<path d="M76.64025779680128,-7.317563715684738 L75.70782077167021,-7.587235095542259 L75.55694237236956,-8.059803055098913" fill-opacity="0" stroke="black" stroke-width="1" />
<path d="M75.70782077167021,7.587235095542259 L75.55694237236956,8.059803055098913 L67.95211555345095,9.21461095501094" fill-opacity="0" stroke="black" stroke-width="1" />
<path d="M75.70782077167021,-7.587235095542259 L75.55694237236956,-8.059803055098913 L67.95211555345095,-9.21461095501094" fill-opacity="0" stroke="black" stroke-width="1" />
<path d="M75.55694237236956,8.059803055098913 L67.95211555345095,9.21461095501094 L66.77301697214446,16.666930028444956" fill-opacity="0" stroke="black" stroke-width="1" />
<path d="M75.55694237236956,-8.059803055098913 L67.95211555345095,-9.21461095501094 L66.77301697214446,-16.666930028444956" fill-opacity="0" stroke="black" stroke-width="1" />
<path d="M67.95211555345095,9.21461095501094 L66.77301697214446,16.666930028444956 L50.0,-0.0" fill-opacity="0" stroke="black" stroke-width="1" />
<path d="M67.95211555345095,-9.21461095501094 L66.77301697214446,-16.666930028444956 L50.0,-0.0" fill-opacity="0" stroke="black" stroke-width="1" />
<path d="M50.0,14.0 L65.25702727755788,17.212369671096134 L64.92958875216436,17.426110924238767" fill-opacity="0" stroke="black" stroke-width="1" />
<path d="M50.0,-14.0 L65.25702727755788,-17.212369671096134 L64.92958875216436,-17.426110924238767" fill-opacity="0" stroke="black" stroke-width="1" />
<path d="M65.25702727755788,17.212369671096134 L64.92958875216436,17.426110924238767 L62.19736356328623,18.495259586305025" fill-opacity="0" stroke="black" stroke-width="1" />
<path d="M65.25702727755788,-17.212369671096134 L64.92958875216436,-17.426110924238767 L62.19736356328623,-18.495259586305025" fill-opacity="0" stroke="black" stroke-width="1" />
<path d="M64.92958875216436,17.426110924238767 L62.19736356328623,18.495259586305025 L50.0,19.0" fill-opacity="0" stroke="black" stroke-width="1" />
<path d="M64.92958875216436,-17.426110924238767 L62.19736356328623,-18.495259586305025 L50.0,-19.0" fill-opacity="0" stroke="black" stroke-width="1" />
<path d="M50.0,19.0 L56.51736739518907,22.576031948776546 L50.0,27.0" fill-opacity="0" stroke="black" stroke-width="1" />
<path d="M50.0,-19.0 L56.51736739518907,-22.576031948776546 L50.0,-27.0" fill-opacity="0" stroke="black" stroke-width="1" />
<path d="M50.0,28.0 L53.64258110758091,33.02631898878998 L50.0,50.0" fill-opacity="0" stroke="black" stroke-width="1" />
<path d="M50.0,-28.0 L53.64258110758091,-33.02631898878998 L50.0,-50.0" fill-opacity="0" stroke="black" stroke-width="1" />
<path d="M50.0,50.0 L59.0,41.0 L77.0,23.0" fill-opacity="0" stroke="black" stroke-width="1" />
<path d="M50.0,-50.0 L59.0,-41.0 L77.0,-23.0" fill-opacity="0" stroke="black" stroke-width="1" />
<path d="M59.0,41.0 L77.0,23.0 L78.0,22.0" fill-opacity="0" stroke="black" stroke-width="1" />
<path d="M59.0,-41.0 L77.0,-23.0 L78.0,-22.0" fill-opacity="0" stroke="black" stroke-width="1" />
<path d="M78.0,22.0 L88.0,12.0 L97.0,3.0" fill-opacity="0" stroke="black" stroke-width="1" />
<path d="M78.0,-22.0 L88.0,-12.0 L97.0,-3.0" fill-opacity="0" stroke="black" stroke-width="1" />
<path d="M97.0,3.0 L97.76045222449288,1.0741739407398587 L99.25028783382245,0.29013339639427205" fill-opacity="0" stroke="black" stroke-width="1" />
<path d="M97.0,-3.0 L97.76045222449288,-1.0741739407398587 L99.25028783382245,-0.29013339639427205" fill-opacity="0" stroke="black" stroke-width="1" />
<path d="M97.76045222449288,1.0741739407398587 L99.25028783382245,0.29013339639427205 L100.0,-0.0" fill-opacity="0" stroke="black" stroke-width="1" />
<path d="M97.76045222449288,-1.0741739407398587 L99.25028783382245,-0.29013339639427205 L100.0,-0.0" fill-opacity="0" stroke="black" stroke-width="1" />
<path d="M0.0,-15.0 L1.4012122607642397,-15.678133352852736 L0.0,-16.0" fill-opacity="0" stroke="black" stroke-width="1" />
<path d="M0.0,15.0 L1.4012122607642397,15.678133352852736 L0.0,16.0" fill-opacity="0" stroke="black" stroke-width="1" />
<path d="M0.0,85.0 L1.4012122607642397,84.32186664714726 L0.0,84.0" fill-opacity="0" stroke="black" stroke-width="1" />
<path d="M0.0,-85.0 L1.4012122607642397,-84.32186664714726 L0.0,-84.0" fill-opacity="0" stroke="black" stroke-width="1" />
<path d="M0.0,-16.0 L2.0089956734498284,-16.511104824820684 L2.225060940885537,-16.733398900508078" fill-opacity="0" stroke="black" stroke-width="1" />
<path d="M0.0,16.0 L2.0089956734498284,16.511104824820684 L2.225060940885537,16.733398900508078" fill-opacity="0" stroke="black" stroke-width="1" />
<path d="M0.0,84.0 L2.0089956734498284,83.48889517517932 L2.225060940885537,83.26660109949192" fill-opacity="0" stroke="black" stroke-width="1" />
<path d="M0.0,-84.0 L2.0089956734498284,-83.48889517517932 L2.225060940885537,-83.26660109949192" fill-opacity="0" stroke="black" stroke-width="1" />
<path d="M2.0089956734498284,-16.511104824820684 L2.225060940885537,-16.733398900508078 L2.53822859478538,-20.75316870073589" fill-opacity="0" stroke="black" stroke-width="1" />
<path d="M2.0089956734498284,16.511104824820684 L2.225060940885537,16.733398900508078 L2.53822859478538,20.75316870073589" fill-opacity="0" stroke="black" stroke-width="1" />
<path d="M2.0089956734498284,83.48889517517932 L2.225060940885537,83.26660109949192 L2.53822859478538,79.2468312992641" fill-opacity="0" stroke="black" stroke-width="1" />
<path d="M2.0089956734498284,-83.48889517517932 L2.225060940885537,-83.26660109949192 L2.53822859478538,-79.2468312992641" fill-opacity="0" stroke="black" stroke-width="1" />
<path d="M2.225060940885537,-16.733398900508078 L2.53822859478538,-20.75316870073589 L0.0,-21.0" fill-opacity="0" stroke="black" stroke-width="1" />
<path d="M2.225060940885537,16.733398900508078 L2.53822859478538,20.75316870073589 L0.0,21.0" fill-opacity="0" stroke="black" stroke-width="1" />
<path d="M2.225060940885537,83.26660109949192 L2.53822859478538,79.2468312992641 L0.0,79.0" fill-opacity="0" stroke="black" stroke-width="1" />
<path d="M2.225060940885537,-83.26660109949192 L2.53822859478538,-79.2468312992641 L0.0,-79.0" fill-opacity="0" stroke="black" stroke-width="1" />
<path d="M0.0,-21.0 L3.2919585305763945,-21.011402104438154 L5.53104833691169,-21.253106225761183" fill-opacity="0" stroke="black" stroke-width="1" />
<path d="M0.0,21.0 L3.2919585305763945,21.011402104438154 L5.53104833691169,21.253106225761183" fill-opacity="0" stroke="black" stroke-width="1" />
<path d="M0.0,79.0 L3.2919585305763945,78.98859789556184 L5.53104833691169,78.74689377423881" fill-opacity="0" stroke="black" stroke-width="1" />
<path d="M0.0,-79.0 L3.2919585305763945,-78.98859789556184 L5.53104833691169,-78.74689377423881" fill-opacity="0" stroke="black" stroke-width="1" />
<path d="M3.2919585305763945,-21.011402104438154 L5.53104833691169,-21.253106225761183 L6.24557903595875,-21.51170152973349" fill-opacity="0" stroke="black" stroke-width="1" />
<path d="M3.2919585305763945,21.011402104438154 L5.53104833691169,21.253106225761183 L6.24557903595875,21.51170152973349" fill-opacity="0" stroke="black" stroke-width="1" />
<path d="M3.2919585305763945,78.98859789556184 L5.53104833691169,78.74689377423881 L6.24557903595875,78.48829847026651" fill-opacity="0" stroke="black" stroke-width="1" />
<path d="M3.2919585305763945,-78.98859789556184 L5.53104833691169,-78.74689377423881 L6.24557903595875,-78.48829847026651" fill-opacity="0" stroke="black" stroke-width="1" />
<path d="M5.53104833691169,-21.253106225761183 L6.24557903595875,-21.51170152973349 L0.0,-22.0" fill-opacity="0" stroke="black" stroke-width="1" />
<path d="M5.53104833691169,21.253106225761183 L6.24557903595875,21.51170152973349 L0.0,22.0" fill-opacity="0" stroke="black" stroke-width="1" />
<path d="M5.53104833691169,78.74689377423881 L6.24557903595875,78.48829847026651 L0.0,78.0" fill-opacity="0" stroke="black" stroke-width="1" />
<path d="M5.53104833691169,-78.74689377423881 L6.24557903595875,-78.48829847026651 L0.0,-78.0" fill-opacity="0" stroke="black" stroke-width="1" />
<path d="M0.0,-22.0 L7.317563715684738,-23.359742203198714 L7.587235095542259,-24.29217922832979" fill-opacity="0" stroke="black" stroke-width="1" />
<path d="M0.0,22.0 L7.317563715684738,23.359742203198714 L7.587235095542259,24.29217922832979" fill-opacity="0" stroke="black" stroke-width="1" />
<path d="M0.0,78.0 L7.317563715684738,76.64025779680128 L7.587235095542259,75.70782077167021" fill-opacity="0" stroke="black" stroke-width="1" />
<path d="M0.0,-78.0 L7.317563715684738,-76.64025779680128 L7.587235095542259,-75.70782077167021" fill-opacity="0" stroke="black" stroke-width="1" />
<path d="M7.317563715684738,-23.359742203198714 L7.587235095542259,-24.29217922832979 L8.059803055098913,-24.443057627630438" fill-opacity="0" stroke="black" stroke-width="1" />
<path d="M7.317563715684738,23.359742203198714 L7.587235095542259,24.29217922832979 L8.059803055098913,24.443057627630438" fill-opacity="0" stroke="black" stroke-width="1" />
<path d="M7.317563715684738,76.64025779680128 L7.587235095542259,75.70782077167021 L8.059803055098913,75.55694237236956" fill-opacity="0" stroke="black" stroke-width="1" />
<path d="M7.317563715684738,-76.64025779680128 L7.587235095542259,-75.70782077167021 L8.059803055098913,-75.55694237236956" fill-opacity="0" stroke="black" stroke-width="1" />
<path d="M7.587235095542259,-24.29217922832979 L8.059803055098913,-24.443057627630438 L9.21461095501094,-32.04788444654905" fill-opacity="0" stroke="black" stroke-width="1" />
<path d="M7.587235095542259,24.29217922832979 L8.059803055098913,24.443057627630438 L9.21461095501094,32.04788444654905" fill-opacity="0" stroke="black" stroke-width="1" />
<path d="M7.587235095542259,75.70782077167021 L8.059803055098913,75.55694237236956 L9.21461095501094,67.95211555345095" fill-opacity="0" stroke="black" stroke-width="1" />
<path d="M7.587235095542259,-75.70782077167021 L8.059803055098913,-75.55694237236956 L9.21461095501094,-67.95211555345095" fill-opacity="0" stroke="black" stroke-width="1" />
<path d="M8.059803055098913,-24.443057627630438 L9.21461095501094,-32.04788444654905 L16.666930028444956,-33.22698302785554" fill-opacity="0" stroke="black" stroke-width="1" />
<path d="M8.059803055098913,24.443057627630438 L9.21461095501094,32.04788444654905 L16.666930028444956,33.22698302785554" fill-opacity="0" stroke="black" stroke-width="1" />
<path d="M8.059803055098913,75.55694237236956 L9.21461095501094,67.95211555345095 L16.666930028444956,66.77301697214446" fill-opacity="0" stroke="black" stroke-width="1" />
<path d="M8.059803055098913,-75.55694237236956 L9.21461095501094,-67.95211555345095 L16.666930028444956,-66.77301697214446" fill-opacity="0" stroke="black" stroke-width="1" />
<path d="M9.21461095501094,-32.04788444654905 L16.666930028444956,-33.22698302785554 L0.0,-50.0" fill-opacity="0" stroke="black" stroke-width="1" />
<path d="M9.21461095501094,32.04788444654905 L16.666930028444956,33.22698302785554 L0.0,50.0" fill-opacity="0" stroke="black" stroke-width="1" />
<path d="M9.21461095501094,67.95211555345095 L16.666930028444956,66.77301697214446 L0.0,50.0" fill-opacity="0" stroke="black" stroke-width="1" />
<path d="M9.21461095501094,-67.95211555345095 L16.666930028444956,-66.77301697214446 L0.0,-50.0" fill-opacity="0" stroke="black" stroke-width="1" />
<path d="M14.0,-50.0 L17.212369671096134,-34.742972722442126 L17.426110924238767,-35.07041124783563" fill-opacity="0" stroke="black" stroke-width="1" />
<path d="M14.0,50.0 L17.212369671096134,34.742972722442126 L17.426110924238767,35.07041124783563" fill-opacity="0" stroke="black" stroke-width="1" />
<path d="M14.0,50.0 L17.212369671096134,65.25702727755788 L17.426110924238767,64.92958875216436" fill-opacity="0" stroke="black" stroke-width="1" />
<path d="M14.0,-50.0 L17.212369671096134,-65.25702727755788 L17.426110924238767,-64.92958875216436" fill-opacity="0" stroke="black" stroke-width="1" />
<path d="M17.212369671096134,-34.742972722442126 L17.426110924238767,-35.07041124783563 L18.495259586305025,-37.80263643671377" fill-opacity="0" stroke="black" stroke-width="1" />
<path d="M17.212369671096134,34.742972722442126 L17.426110924238767,35.07041124783563 L18.495259586305025,37.80263643671377" fill-opacity="0" stroke="black" stroke-width="1" />
<path d="M17.212369671096134,65.25702727755788 L17.426110924238767,64.92958875216436 L18.495259586305025,62.19736356328623" fill-opacity="0" stroke="black" stroke-width="1" />
<path d="M17.212369671096134,-65.25702727755788 L17.426110924238767,-64.92958875216436 L18.495259586305025,-62.19736356328623" fill-opacity="0" stroke="black" stroke-width="1" />
<path d="M17.426110924238767,-35.07041124783563 L18.495259586305025,-37.80263643671377 L19.0,-50.0" fill-opacity="0" stroke="black" stroke-width="1" />
<path d="M17.426110924238767,35.07041124783563 L18.495259586305025,37.80263643671377 L19.0,50.0" fill-opacity="0" stroke="black" stroke-width="1" />
<path d="M17.426110924238767,64.92958875216436 L18.495259586305025,62.19736356328623 L19.0,50.0" fill-opacity="0" stroke="black" stroke-width="1" />
<path d="M17.426110924238767,-64.92958875216436 L18.495259586305025,-62.19736356328623 L19.0,-50.0" fill-opacity="0" stroke="black" stroke-width="1" />
<path d="M19.0,-50.0 L22.576031948776546,-43.48263260481093 L27.0,-50.0" fill-opacity="0" stroke="black" stroke-width="1" />
<path d="M19.0,50.0 L22.576031948776546,43.48263260481093 L27.0,50.0" fill-opacity="0" stroke="black" stroke-width="1" />
<path d="M19.0,50.0 L22.576031948776546,56.51736739518907 L27.0,50.0" fill-opacity="0" stroke="black" stroke-width="1" />
<path d="M19.0,-50.0 L22.576031948776546,-56.51736739518907 L27.0,-50.0" fill-opacity="0" stroke="black" stroke-width="1" />
<path d="M28.0,-50.0 L33.02631898878998,-46.35741889241909 L50.0,-50.0" fill-opacity="0" stroke="black" stroke-width="1" />
<path d="M28.0,50.0 L33.02631898878998,46.35741889241909 L50.0,50.0" fill-opacity="0" stroke="black" stroke-width="1" />
<path d="M28.0,50.0 L33.02631898878998,53.64258110758091 L50.0,50.0" fill-opacity="0" stroke="black" stroke-width="1" />
<path d="M28.0,-50.0 L33.02631898878998,-53.64258110758091 L50.0,-50.0" fill-opacity="0" stroke="black" stroke-width="1" />
<path d="M3.0,-3.0 L1.0741739407398587,-2.2395477755071225 L0.29013339639427205,-0.7497121661775408" fill-opacity="0" stroke="black" stroke-width="1" />
<path d="M3.0,3.0 L1.0741739407398587,2.2395477755071225 L0.29013339639427205,0.7497121661775408" fill-opacity="0" stroke="black" stroke-width="1" />
<path d="M3.0,97.0 L1.0741739407398587,97.76045222449288 L0.29013339639427205,99.25028783382245" fill-opacity="0" stroke="black" stroke-width="1" />
<path d="M3.0,-97.0 L1.0741739407398587,-97.76045222449288 L0.29013339639427205,-99.25028783382245" fill-opacity="0" stroke="black" stroke-width="1" />
<path d="M1.0741739407398587,-2.2395477755071225 L0.29013339639427205,-0.7497121661775408 L0.0,-0.0" fill-opacity="0" stroke="black" stroke-width="1" />
<path d="M1.0741739407398587,2.2395477755071225 L0.29013339639427205,0.7497121661775408 L0.0,-0.0" fill-opacity="0" stroke="black" stroke-width="1" />
<path d="M1.0741739407398587,97.76045222449288 L0.29013339639427205,99.25028783382245 L0.0,100.0" fill-opacity="0" stroke="black" stroke-width="1" />
<path d="M1.0741739407398587,-97.76045222449288 L0.29013339639427205,-99.25028783382245 L0.0,-100.0" fill-opacity="0" stroke="black" stroke-width="1" />
<path d="M0.0,85.0 L-1.4012122607642397,84.32186664714726 L0.0,84.0" fill-opacity="0" stroke="black" stroke-width="1" />
<path d="M0.0,-15.0 L-1.4012122607642397,-15.678133352852736 L0.0,-16.0" fill-opacity="0" stroke="black" stroke-width="1" />
<path d="M0.0,15.0 L-1.4012122607642397,15.67813335285274 L0.0,16.0" fill-opacity="0" stroke="black" stroke-width="1" />
<path d="M0.0,-85.0 L-1.4012122607642397,-84.32186664714726 L0.0,-84.0" fill-opacity="0" stroke="black" stroke-width="1" />
<path d="M0.0,84.0 L-2.0089956734498284,83.48889517517932 L-2.225060940885537,83.26660109949192" fill-opacity="0" stroke="black" stroke-width="1" />
<path d="M0.0,-16.0 L-2.0089956734498284,-16.511104824820684 L-2.225060940885537,-16.733398900508078" fill-opacity="0" stroke="black" stroke-width="1" />
<path d="M0.0,16.0 L-2.0089956734498284,16.511104824820677 L-2.225060940885537,16.733398900508078" fill-opacity="0" stroke="black" stroke-width="1" />
<path d="M0.0,-84.0 L-2.0089956734498284,-83.48889517517932 L-2.225060940885537,-83.26660109949192" fill-opacity="0" stroke="black" stroke-width="1" />
<path d="M-2.0089956734498284,83.48889517517932 L-2.225060940885537,83.26660109949192 L-2.53822859478538,79.2468312992641" fill-opacity="0" stroke="black" stroke-width="1" />
<path d="M-2.0089956734498284,-16.511104824820684 L-2.225060940885537,-16.733398900508078 L-2.53822859478538,-20.75316870073589" fill-opacity="0" stroke="black" stroke-width="1" />
<path d="M-2.0089956734498284,16.511104824820677 L-2.225060940885537,16.733398900508078 L-2.53822859478538,20.7531687007359" fill-opacity="0" stroke="black" stroke-width="1" />
<path d="M-2.0089956734498284,-83.48889517517932 L-2.225060940885537,-83.26660109949192 L-2.53822859478538,-79.2468312992641" fill-opacity="0" stroke="black" stroke-width="1" />
<path d="M-2.225060940885537,83.26660109949192 L-2.53822859478538,79.2468312992641 L0.0,79.0" fill-opacity="0" stroke="black" stroke-width="1" />
<path d="M-2.225060940885537,-16.733398900508078 L-2.53822859478538,-20.75316870073589 L0.0,-21.0" fill-opacity="0" stroke="black" stroke-width="1" />
<path d="M-2.225060940885537,16.733398900508078 L-2.53822859478538,20.7531687007359 L0.0,21.0" fill-opacity="0" stroke="black" stroke-width="1" />
<path d="M-2.225060940885537,-83.26660109949192 L-2.53822859478538,-79.2468312992641 L0.0,-79.0" fill-opacity="0" stroke="black" stroke-width="1" />
<path d="M0.0,79.0 L-3.2919585305763945,78.98859789556184 L-5.53104833691169,78.74689377423881" fill-opacity="0" stroke="black" stroke-width="1" />
<path d="M0.0,-21.0 L-3.2919585305763945,-21.011402104438154 L-5.53104833691169,-21.253106225761183" fill-opacity="0" stroke="black" stroke-width="1" />
<path d="M0.0,21.0 L-3.2919585305763945,21.01140210443816 L-5.53104833691169,21.253106225761186" fill-opacity="0" stroke="black" stroke-width="1" />
<path d="M0.0,-79.0 L-3.2919585305763945,-78.98859789556184 L-5.53104833691169,-78.74689377423881" fill-opacity="0" stroke="black" stroke-width="1" />
<path d="M-3.2919585305763945,78.98859789556184 L-5.53104833691169,78.74689377423881 L-6.24557903595875,78.48829847026651" fill-opacity="0" stroke="black" stroke-width="1" />
<path d="M-3.2919585305763945,-21.011402104438154 L-5.53104833691169,-21.253106225761183 L-6.24557903595875,-21.51170152973349" fill-opacity="0" stroke="black" stroke-width="1" />
<path d="M-3.2919585305763945,21.01140210443816 L-5.53104833691169,21.253106225761186 L-6.24557903595875,21.511701529733486" fill-opacity="0" stroke="black" stroke-width="1" />
<path d="M-3.2919585305763945,-78.98859789556184 L-5.53104833691169,-78.74689377423881 L-6.24557903595875,-78.48829847026651" fill-opacity="0" stroke="black" stroke-width="1" />
<path d="M-5.53104833691169,78.74689377423881 L-6.24557903595875,78.48829847026651 L0.0,78.0" fill-opacity="0" stroke="black" stroke-width="1" />
<path d="M-5.53104833691169,-21.253106225761183 L-6.24557903595875,-21.51170152973349 L0.0,-22.0" fill-opacity="0" stroke="black" stroke-width="1" />
<path d="M-5.53104833691169,21.253106225761186 L-6.24557903595875,21.511701529733486 L0.0,22.0" fill-opacity="0" stroke="black" stroke-width="1" />
<path d="M-5.53104833691169,-78.74689377423881 L-6.24557903595875,-78.48829847026651 L0.0,-78.0" fill-opacity="0" stroke="black" stroke-width="1" />
<path d="M0.0,78.0 L-7.317563715684738,76.64025779680128 L-7.587235095542259,75.70782077167021" fill-opacity="0" stroke="black" stroke-width="1" />
<path d="M0.0,-22.0 L-7.317563715684738,-23.359742203198714 L-7.587235095542259,-24.29217922832979" fill-opacity="0" stroke="black" stroke-width="1" />
<path d="M0.0,22.0 L-7.317563715684738,23.35974220319872 L-7.587235095542259,24.292179228329786" fill-opacity="0" stroke="black" stroke-width="1" />
<path d="M0.0,-78.0 L-7.317563715684738,-76.64025779680128 L-7.587235095542259,-75.70782077167021" fill-opacity="0" stroke="black" stroke-width="1" />
<path d="M-7.317563715684738,76.64025779680128 L-7.587235095542259,75.70782077167021 L-8.059803055098913,75.55694237236956" fill-opacity="0" stroke="black" stroke-width="1" />
<path d="M-7.317563715684738,-23.359742203198714 L-7.587235095542259,-24.29217922832979 L-8.059803055098913,-24.443057627630438" fill-opacity="0" stroke="black" stroke-width="1" />
<path d="M-7.317563715684738,23.35974220319872 L-7.587235095542259,24.292179228329786 L-8.059803055098913,24.443057627630438" fill-opacity="0" stroke="black" stroke-width="1" />
<path d="M-7.317563715684738,-76.64025779680128 L-7.587235095542259,-75.70782077167021 L-8.059803055098913,-75.55694237236956" fill-opacity="0" stroke="black" stroke-width="1" />
<path d="M-7.587235095542259,75.70782077167021 L-8.059803055098913,75.55694237236956 L-9.21461095501094,67.95211555345095" fill-opacity="0" stroke="black" stroke-width="1" />
<path d="M-7.587235095542259,-24.29217922832979 L-8.059803055098913,-24.443057627630438 L-9.21461095501094,-32.04788444654905" fill-opacity="0" stroke="black" stroke-width="1" />
<path d="M-7.587235095542259,24.292179228329786 L-8.059803055098913,24.443057627630438 L-9.21461095501094,32.04788444654905" fill-opacity="0" stroke="black" stroke-width="1" />
<path d="M-7.587235095542259,-75.70782077167021 L-8.059803055098913,-75.55694237236956 L-9.21461095501094,-67.95211555345095" fill-opacity="0" stroke="black" stroke-width="1" />
<path d="M-8.059803055098913,75.55694237236956 L-9.21461095501094,67.95211555345095 L-16.666930028444956,66.77301697214446" fill-opacity="0" stroke="black" stroke-width="1" />
<path d="M-8.059803055098913,-24.443057627630438 L-9.21461095501094,-32.04788444654905 L-16.666930028444956,-33.22698302785554" fill-opacity="0" stroke="black" stroke-width="1" />
<path d="M-8.059803055098913,24.443057627630438 L-9.21461095501094,32.04788444654905 L-16.666930028444956,33.22698302785554" fill-opacity="0" stroke="black" stroke-width="1" />
<path d="M-8.059803055098913,-75.55694237236956 L-9.21461095501094,-67.95211555345095 L-16.666930028444956,-66.77301697214446" fill-opacity="0" stroke="black" stroke-width="1" />
<path d="M-9.21461095501094,67.95211555345095 L-16.666930028444956,66.77301697214446 L0.0,50.0" fill-opacity="0" stroke="black" stroke-width="1" />
<path d="M-9.21461095501094,-32.04788444654905 L-16.666930028444956,-33.22698302785554 L0.0,-50.0" fill-opacity="0" stroke="black" stroke-width="1" />
<path d="M-9.21461095501094,32.04788444654905 L-16.666930028444956,33.22698302785554 L0.0,50.0" fill-opacity="0" stroke="black" stroke-width="1" />
<path d="M-9.21461095501094,-67.95211555345095 L-16.666930028444956,-66.77301697214446 L0.0,-50.0" fill-opacity="0" stroke="black" stroke-width="1" />
<path d="M-14.0,50.0 L-17.212369671096134,65.25702727755788 L-17.426110924238767,64.92958875216436" fill-opacity="0" stroke="black" stroke-width="1" />
<path d="M-14.0,-50.0 L-17.212369671096134,-34.742972722442126 L-17.426110924238767,-35.07041124783563" fill-opacity="0" stroke="black" stroke-width="1" />
<path d="M-14.0,50.0 L-17.212369671096134,34.74297272244212 L-17.426110924238767,35.07041124783564" fill-opacity="0" stroke="black" stroke-width="1" />
<path d="M-14.0,-50.0 L-17.212369671096134,-65.25702727755788 L-17.426110924238767,-64.92958875216436" fill-opacity="0" stroke="black" stroke-width="1" />
<path d="M-17.212369671096134,65.25702727755788 L-17.426110924238767,64.92958875216436 L-18.495259586305025,62.19736356328623" fill-opacity="0" stroke="black" stroke-width="1" />
<path d="M-17.212369671096134,-34.742972722442126 L-17.426110924238767,-35.07041124783563 L-18.495259586305025,-37.80263643671377" fill-opacity="0" stroke="black" stroke-width="1" />
<path d="M-17.212369671096134,34.74297272244212 L-17.426110924238767,35.07041124783564 L-18.495259586305025,37.80263643671377" fill-opacity="0" stroke="black" stroke-width="1" />
<path d="M-17.212369671096134,-65.25702727755788 L-17.426110924238767,-64.92958875216436 L-18.495259586305025,-62.19736356328623" fill-opacity="0" stroke="black" stroke-width="1" />
<path d="M-17.426110924238767,64.92958875216436 L-18.495259586305025,62.19736356328623 L-19.0,50.0" fill-opacity="0" stroke="black" stroke-width="1" />
<path d="M-17.426110924238767,-35.07041124783563 L-18.495259586305025,-37.80263643671377 L-19.0,-50.0" fill-opacity="0" stroke="black" stroke-width="1" />
<path d="M-17.426110924238767,35.07041124783564 L-18.495259586305025,37.80263643671377 L-19.0,50.0" fill-opacity="0" stroke="black" stroke-width="1" />
<path d="M-17.426110924238767,-64.92958875216436 L-18.495259586305025,-62.19736356328623 L-19.0,-50.0" fill-opacity="0" stroke="black" stroke-width="1" />
<path d="M-19.0,50.0 L-22.576031948776546,56.51736739518907 L-27.0,50.0" fill-opacity="0" stroke="black" stroke-width="1" />
<path d="M-19.0,-50.0 L-22.576031948776546,-43.48263260481093 L-27.0,-50.0" fill-opacity="0" stroke="black" stroke-width="1" />
<path d="M-19.0,50.0 L-22.576031948776546,43.48263260481093 L-27.0,50.0" fill-opacity="0" stroke="black" stroke-width="1" />
<path d="M-19.0,-50.0 L-22.576031948776546,-56.51736739518907 L-27.0,-50.0" fill-opacity="0" stroke="black" stroke-width="1" />
<path d="M-28.0,50.0 L-33.02631898878998,53.64258110758091 L-50.0,50.0" fill-opacity="0" stroke="black" stroke-width="1" />
<path d="M-28.0,-50.0 L-33.02631898878998,-46.35741889241909 L-50.0,-50.0" fill-opacity="0" stroke="black" stroke-width="1" />
<path d="M-28.0,50.0 L-33.02631898878998,46.35741889241909 L-50.0,50.0" fill-opacity="0" stroke="black" stroke-width="1" />
<path d="M-28.0,-50.0 L-33.02631898878998,-53.64258110758091 L-50.0,-50.0" fill-opacity="0" stroke="black" stroke-width="1" />
<path d="M-3.0,97.0 L-1.0741739407398587,97.76045222449288 L-0.29013339639427205,99.25028783382245" fill-opacity="0" stroke="black" stroke-width="1" />
<path d="M-3.0,-3.0 L-1.0741739407398587,-2.2395477755071225 L-0.29013339639427205,-0.7497121661775408" fill-opacity="0" stroke="black" stroke-width="1" />
<path d="M-3.0,3.0 L-1.0741739407398587,2.23954777550712 L-0.29013339639427205,0.7497121661775452" fill-opacity="0" stroke="black" stroke-width="1" />
<path d="M-3.0,-97.0 L-1.0741739407398587,-97.76045222449288 L-0.29013339639427205,-99.25028783382245" fill-opacity="0" stroke="black" stroke-width="1" />
<path d="M-1.0741739407398587,97.76045222449288 L-0.29013339639427205,99.25028783382245 L0.0,100.0" fill-opacity="0" stroke="black" stroke-width="1" />
<path d="M-1.0741739407398587,-2.2395477755071225 L-0.29013339639427205,-0.7497121661775408 L0.0,-0.0" fill-opacity="0" stroke="black" stroke-width="1" />
<path d="M-1.0741739407398587,2.23954777550712 L-0.29013339639427205,0.7497121661775452 L0.0,-0.0" fill-opacity="0" stroke="black" stroke-width="1" />
<path d="M-1.0741739407398587,-97.76045222449288 L-0.29013339639427205,-99.25028783382245 L0.0,-100.0" fill-opacity="0" stroke="black" stroke-width="1" />
<path d="M-88.0,-12.0 L-97.0,-3.0 L-97.76045222449288,-1.0741739407398587" fill-opacity="0" stroke="black" stroke-width="1" />
<path d="M-88.0,12.0 L-97.0,3.0 L-97.76045222449288,1.0741739407398587" fill-opacity="0" stroke="black" stroke-width="1" />
<path d="M-85.0,-0.0 L-84.32186664714726,-1.4012122607642397 L-84.0,-0.0" fill-opacity="0" stroke="black" stroke-width="1" />
<path d="M-85.0,-0.0 L-84.32186664714726,1.4012122607642397 L-84.0,-0.0" fill-opacity="0" stroke="black" stroke-width="1" />
<path d="M-84.0,-0.0 L-83.48889517517932,-2.0089956734498284 L-83.26660109949192,-2.225060940885537" fill-opacity="0" stroke="black" stroke-width="1" />
<path d="M-84.0,-0.0 L-83.48889517517932,2.0089956734498284 L-83.26660109949192,2.225060940885537" fill-opacity="0" stroke="black" stroke-width="1" />
<path d="M-83.48889517517932,-2.0089956734498284 L-83.26660109949192,-2.225060940885537 L-79.2468312992641,-2.53822859478538" fill-opacity="0" stroke="black" stroke-width="1" />
<path d="M-83.48889517517932,2.0089956734498284 L-83.26660109949192,2.225060940885537 L-79.2468312992641,2.53822859478538" fill-opacity="0" stroke="black" stroke-width="1" />
<path d="M-83.26660109949192,-2.225060940885537 L-79.2468312992641,-2.53822859478538 L-79.0,-0.0" fill-opacity="0" stroke="black" stroke-width="1" />
<path d="M-83.26660109949192,2.225060940885537 L-79.2468312992641,2.53822859478538 L-79.0,-0.0" fill-opacity="0" stroke="black" stroke-width="1" />
<path d="M-79.0,-0.0 L-78.98859789556184,-3.2919585305763945 L-78.74689377423881,-5.53104833691169" fill-opacity="0" stroke="black" stroke-width="1" />
<path d="M-79.0,-0.0 L-78.98859789556184,3.2919585305763945 L-78.74689377423881,5.53104833691169" fill-opacity="0" stroke="black" stroke-width="1" />
<path d="M-78.98859789556184,-3.2919585305763945 L-78.74689377423881,-5.53104833691169 L-78.48829847026651,-6.24557903595875" fill-opacity="0" stroke="black" stroke-width="1" />
<path d="M-78.98859789556184,3.2919585305763945 L-78.74689377423881,5.53104833691169 L-78.48829847026651,6.24557903595875" fill-opacity="0" stroke="black" stroke-width="1" />
<path d="M-78.74689377423881,-5.53104833691169 L-78.48829847026651,-6.24557903595875 L-78.0,-0.0" fill-opacity="0" stroke="black" stroke-width="1" />
<path d="M-78.74689377423881,5.53104833691169 L-78.48829847026651,6.24557903595875 L-78.0,-0.0" fill-opacity="0" stroke="black" stroke-width="1" />
<path d="M-77.0,-23.0 L-78.0,-22.0 L-88.0,-12.0" fill-opacity="0" stroke="black" stroke-width="1" />
<path d="M-77.0,23.0 L-78.0,22.0 L-88.0,12.0" fill-opacity="0" stroke="black" stroke-width="1" />
<path d="M-78.0,-0.0 L-76.64025779680128,-7.317563715684738 L-75.70782077167021,-7.587235095542259" fill-opacity="0" stroke="black" stroke-width="1" />
<path d="M-78.0,-0.0 L-76.64025779680128,7.317563715684738 L-75.70782077167021,7.587235095542259" fill-opacity="0" stroke="black" stroke-width="1" />
<path d="M-76.64025779680128,-7.317563715684738 L-75.70782077167021,-7.587235095542259 L-75.55694237236956,-8.059803055098913" fill-opacity="0" stroke="black" stroke-width="1" />
<path d="M-76.64025779680128,7.317563715684738 L-75.70782077167021,7.587235095542259 L-75.55694237236956,8.059803055098913" fill-opacity="0" stroke="black" stroke-width="1" />
<path d="M-75.70782077167021,-7.587235095542259 L-75.55694237236956,-8.059803055098913 L-67.95211555345095,-9.21461095501094" fill-opacity="0" stroke="black" stroke-width="1" />
<path d="M-75.70782077167021,7.587235095542259 L-75.55694237236956,8.059803055098913 L-67.95211555345095,9.21461095501094" fill-opacity="0" stroke="black" stroke-width="1" />
<path d="M-75.55694237236956,-8.059803055098913 L-67.95211555345095,-9.21461095501094 L-66.77301697214446,-16.666930028444956" fill-opacity="0" stroke="black" stroke-width="1" />
<path d="M-75.55694237236956,8.059803055098913 L-67.95211555345095,9.21461095501094 L-66.77301697214446,16.666930028444956" fill-opacity="0" stroke="black" stroke-width="1" />
<path d="M-67.95211555345095,-9.21461095501094 L-66.77301697214446,-16.666930028444956 L-50.0,-0.0" fill-opacity="0" stroke="black" stroke-width="1" />
<path d="M-67.95211555345095,9.21461095501094 L-66.77301697214446,16.666930028444956 L-50.0,-0.0" fill-opacity="0" stroke="black" stroke-width="1" />
<path d="M-50.0,-14.0 L-65.25702727755788,-17.212369671096134 L-64.92958875216436,-17.426110924238767" fill-opacity="0" stroke="black" stroke-width="1" />
<path d="M-50.0,14.0 L-65.25702727755788,17.212369671096134 L-64.92958875216436,17.426110924238767" fill-opacity="0" stroke="black" stroke-width="1" />
<path d="M-65.25702727755788,-17.212369671096134 L-64.92958875216436,-17.426110924238767 L-62.19736356328623,-18.495259586305025" fill-opacity="0" stroke="black" stroke-width="1" />
<path d="M-65.25702727755788,17.212369671096134 L-64.92958875216436,17.426110924238767 L-62.19736356328623,18.495259586305025" fill-opacity="0" stroke="black" stroke-width="1" />
<path d="M-64.92958875216436,-17.426110924238767 L-62.19736356328623,-18.495259586305025 L-50.0,-19.0" fill-opacity="0" stroke="black" stroke-width="1" />
<path d="M-64.92958875216436,17.426110924238767 L-62.19736356328623,18.495259586305025 L-50.0,19.0" fill-opacity="0" stroke="black" stroke-width="1" />
<path d="M-50.0,-19.0 L-56.51736739518907,-22.576031948776546 L-50.0,-27.0" fill-opacity="0" stroke="black" stroke-width="1" />
<path d="M-50.0,19.0 L-56.51736739518907,22.576031948776546 L-50.0,27.0" fill-opacity="0" stroke="black" stroke-width="1" />
<path d="M-50.0,-28.0 L-53.64258110758091,-33.02631898878998 L-50.0,-50.0" fill-opacity="0" stroke="black" stroke-width="1" />
<path d="M-50.0,28.0 L-53.64258110758091,33.02631898878998 L-50.0,50.0" fill-opacity="0" stroke="black" stroke-width="1" />
<path d="M-50.0,-50.0 L-59.0,-41.0 L-77.0,-23.0" fill-opacity="0" stroke="black" stroke-width="1" />
<path d="M-50.0,50.0 L-59.0,41.0 L-77.0,23.0" fill-opacity="0" stroke="black" stroke-width="1" />
<path d="M-59.0,-41.0 L-77.0,-23.0 L-78.0,-22.0" fill-opacity="0" stroke="black" stroke-width="1" />
<path d="M-59.0,41.0 L-77.0,23.0 L-78.0,22.0" fill-opacity="0" stroke="black" stroke-width="1" />
<path d="M-78.0,-22.0 L-88.0,-12.0 L-97.0,-3.0" fill-opacity="0" stroke="black" stroke-width="1" />
<path d="M-78.0,22.0 L-88.0,12.0 L-97.0,3.0" fill-opacity="0" stroke="black" stroke-width="1" />
<path d="M-97.0,-3.0 L-97.76045222449288,-1.0741739407398587 L-99.25028783382245,-0.29013339639427205" fill-opacity="0" stroke="black" stroke-width="1" />
<path d="M-97.0,3.0 L-97.76045222449288,1.0741739407398587 L-99.25028783382245,0.29013339639427205" fill-opacity="0" stroke="black" stroke-width="1" />
<path d="M-97.76045222449288,-1.0741739407398587 L-99.25028783382245,-0.29013339639427205 L-100.0,-0.0" fill-opacity="0" stroke="black" stroke-width="1" />
<path d="M-97.76045222449288,1.0741739407398587 L-99.25028783382245,0.29013339639427205 L-100.0,-0.0" fill-opacity="0" stroke="black" stroke-width="1" />
</svg>