<?xml version="1.0" encoding="UTF-8"?>
<svg xmlns="http://www.w3.org/2000/svg" xmlns:xlink="http://www.w3.org/1999/xlink"
     width="250" height="250" viewBox="-125.0 -125.0 250 250">
<defs>
</defs>
<path d="M10.0,-0.0 L16.212218989177785,-3.179245417143692 L18.0,-0.0" fill-opacity="0" stroke="black" stroke-width="1" />
<path d="M10.0,-0.0 L16.212218989177785,3.179245417143692 L18.0,-0.0" fill-opacity="0" stroke="black" stroke-width="1" />
<path d="M18.0,-0.0 L18.341775702051883,-3.3887283966413606 L18.75296613324693,-4.531845560239768" fill-opacity="0" stroke="black" stroke-width="1" />
<path d="M18.0,-0.0 L18.341775702051883,3.3887283966413606 L18.75296613324693,4.531845560239768" fill-opacity="0" stroke="black" stroke-width="1" />
<path d="M18.341775702051883,-3.3887283966413606 L18.75296613324693,-4.531845560239768 L24.86921991534047,-5.021663951399055" fill-opacity="0" stroke="black" stroke-width="1" />
<path d="M18.341775702051883,3.3887283966413606 L18.75296613324693,4.531845560239768 L24.86921991534047,5.021663951399055" fill-opacity="0" stroke="black" stroke-width="1" />
<path d="M18.75296613324693,-4.531845560239768 L24.86921991534047,-5.021663951399055 L26.0,-0.0" fill-opacity="0" stroke="black" stroke-width="1" />
<path d="M18.75296613324693,4.531845560239768 L24.86921991534047,5.021663951399055 L26.0,-0.0" fill-opacity="0" stroke="black" stroke-width="1" />
<path d="M26.0,-0.0 L26.556919107060427,-6.150281151853684 L29.054323978347163,-7.1143915647641105" fill-opacity="0" stroke="black" stroke-width="1" />
<path d="M26.0,-0.0 L26.556919107060427,6.150281151853684 L29.054323978347163,7.1143915647641105" fill-opacity="0" stroke="black" stroke-width="1" />
<path d="M26.556919107060427,-6.150281151853684 L29.054323978347163,-7.1143915647641105 L30.0,-0.0" fill-opacity="0" stroke="black" stroke-width="1" />
<path d="M26.556919107060427,6.150281151853684 L29.054323978347163,7.1143915647641105 L30.0,-0.0" fill-opacity="0" stroke="black" stroke-width="1" />
<path d="M50.0,-4.0 L46.0596170749221,-9.157139349366345 L50.0,-23.0" fill-opacity="0" stroke="black" stroke-width="1" />
<path d="M50.0,4.0 L46.0596170749221,9.157139349366345 L50.0,23.0" fill-opacity="0" stroke="black" stroke-width="1" />
<path d="M50.0,-23.0 L47.087861902002025,-25.564624944463787 L50.0,-27.0" fill-opacity="0" stroke="black" stroke-width="1" />
<path d="M50.0,23.0 L47.087861902002025,25.564624944463787 L50.0,27.0" fill-opacity="0" stroke="black" stroke-width="1" />
<path d="M38.0,50.0 L47.0,53.0 L46.0,54.0" fill-opacity="0" stroke="black" stroke-width="1" />
<path d="M38.0,-50.0 L47.0,-53.0 L46.0,-54.0" fill-opacity="0" stroke="black" stroke-width="1" />
<path d="M47.0,53.0 L46.0,54.0 L27.0,73.0" fill-opacity="0" stroke="black" stroke-width="1" />
<path d="M47.0,-53.0 L46.0,-54.0 L27.0,-73.0" fill-opacity="0" stroke="black" stroke-width="1" />
<path d="M46.0,54.0 L27.0,73.0 L13.0,87.0" fill-opacity="0" stroke="black" stroke-width="1" />
<path d="M46.0,-54.0 L27.0,-73.0 L13.0,-87.0" fill-opacity="0" stroke="black" stroke-width="1" />
<path d="M27.0,73.0 L13.0,87.0 L11.0,89.0" fill-opacity="0" stroke="black" stroke-width="1" />
<path d="M27.0,-73.0 L13.0,-87.0 L11.0,-89.0" fill-opacity="0" stroke="black" stroke-width="1" />
<path d="M13.0,87.0 L11.0,89.0 L3.0752191185252826,90.39717997393991" fill-opacity="0" stroke="black" stroke-width="1" />
<path d="M13.0,-87.0 L11.0,-89.0 L3.0752191185252826,-90.39717997393991" fill-opacity="0" stroke="black" stroke-width="1" />
<path d="M11.0,-11.0 L9.602820026060087,-3.0752191185252826 L8.116051276160313,-2.4165309333857605" fill-opacity="0" stroke="black" stroke-width="1" />
<path d="M11.0,11.0 L9.602820026060087,3.0752191185252826 L8.116051276160313,2.4165309333857605" fill-opacity="0" stroke="black" stroke-width="1" />
<path d="M9.602820026060087,-3.0752191185252826 L8.116051276160313,-2.4165309333857605 L7.679791850831686,-1.9756077649524917" fill-opacity="0" stroke="black" stroke-width="1" />
<path d="M9.602820026060087,3.0752191185252826 L8.116051276160313,2.4165309333857605 L7.679791850831686,1.9756077649524917" fill-opacity="0" stroke="black" stroke-width="1" />
<path d="M8.116051276160313,-2.4165309333857605 L7.679791850831686,-1.9756077649524917 L5.0,-5.0" fill-opacity="0" stroke="black" stroke-width="1" />
<path d="M8.116051276160313,2.4165309333857605 L7.679791850831686,1.9756077649524917 L5.0,5.0" fill-opacity="0" stroke="black" stroke-width="1" />
<path d="M1.9756077649524917,92.32020814916831 L5.0,95.0 L0.706095994327939,95.79102174034185" fill-opacity="0" stroke="black" stroke-width="1" />
<path d="M1.9756077649524917,-92.32020814916831 L5.0,-95.0 L0.706095994327939,-95.79102174034185" fill-opacity="0" stroke="black" stroke-width="1" />
<path d="M5.0,-5.0 L4.208978259658153,-0.706095994327939 L1.5167972791479523,-0.41778204198453517" fill-opacity="0" stroke="black" stroke-width="1" />
<path d="M5.0,5.0 L4.208978259658153,0.706095994327939 L1.5167972791479523,0.41778204198453517" fill-opacity="0" stroke="black" stroke-width="1" />
<path d="M4.208978259658153,-0.706095994327939 L1.5167972791479523,-0.41778204198453517 L0.0,-0.0" fill-opacity="0" stroke="black" stroke-width="1" />
<path d="M4.208978259658153,0.706095994327939 L1.5167972791479523,0.41778204198453517 L0.0,-0.0" fill-opacity="0" stroke="black" stroke-width="1" />
<path d="M-10.0,-0.0 L-16.212218989177785,-3.179245417143692 L-18.0,-0.0" fill-opacity="0" stroke="black" stroke-width="1" />
<path d="M-10.0,-0.0 L-16.212218989177785,3.179245417143692 L-18.0,-0.0" fill-opacity="0" stroke="black" stroke-width="1" />
<path d="M-18.0,-0.0 L-18.341775702051883,-3.3887283966413606 L-18.75296613324693,-4.531845560239768" fill-opacity="0" stroke="black" stroke-width="1" />
<path d="M-18.0,-0.0 L-18.341775702051883,3.3887283966413606 L-18.75296613324693,4.531845560239768" fill-opacity="0" stroke="black" stroke-width="1" />
<path d="M-18.341775702051883,-3.3887283966413606 L-18.75296613324693,-4.531845560239768 L-24.86921991534047,-5.021663951399055" fill-opacity="0" stroke="black" stroke-width="1" />
<path d="M-18.341775702051883,3.3887283966413606 L-18.75296613324693,4.531845560239768 L-24.86921991534047,5.021663951399055" fill-opacity="0" stroke="black" stroke-width="1" />
<path d="M-18.75296613324693,-4.531845560239768 L-24.86921991534047,-5.021663951399055 L-26.0,-0.0" fill-opacity="0" stroke="black" stroke-width="1" />
<path d="M-18.75296613324693,4.531845560239768 L-24.86921991534047,5.021663951399055 L-26.0,-0.0" fill-opacity="0" stroke="black" stroke-width="1" />
<path d="M-26.0,-0.0 L-26.556919107060427,-6.150281151853684 L-29.054323978347163,-7.1143915647641105" fill-opacity="0" stroke="black" stroke-width="1" />
<path d="M-26.0,-0.0 L-26.556919107060427,6.150281151853684 L-29.054323978347163,7.1143915647641105" fill-opacity="0" stroke="black" stroke-width="1" />
<path d="M-26.556919107060427,-6.150281151853684 L-29.054323978347163,-7.1143915647641105 L-30.0,-0.0" fill-opacity="0" stroke="black" stroke-width="1" />
<path d="M-26.556919107060427,6.150281151853684 L-29.054323978347163,7.1143915647641105 L-30.0,-0.0" fill-opacity="0" stroke="black" stroke-width="1" />
<path d="M-50.0,-4.0 L-46.0596170749221,-9.157139349366345 L-50.0,-23.0" fill-opacity="0" stroke="black" stroke-width="1" />
<path d="M-50.0,4.0 L-46.0596170749221,9.157139349366345 L-50.0,23.0" fill-opacity="0" stroke="black" stroke-width="1" />
<path d="M-50.0,-23.0 L-47.087861902002025,-25.564624944463787 L-50.0,-27.0" fill-opacity="0" stroke="black" stroke-width="1" />
<path d="M-50.0,23.0 L-47.087861902002025,25.564624944463787 L-50.0,27.0" fill-opacity="0" stroke="black" stroke-width="1" />
<path d="M-38.0,50.0 L-47.0,53.0 L-46.0,54.0" fill-opacity="0" stroke="black" stroke-width="1" />
<path d="M-38.0,-50.0 L-47.0,-53.0 L-46.0,-54.0" fill-opacity="0" stroke="black" stroke-width="1" />
<path d="M-47.0,53.0 L-46.0,54.0 L-27.0,73.0" fill-opacity="0" stroke="black" stroke-width="1" />
<path d="M-47.0,-53.0 L-46.0,-54.0 L-27.0,-73.0" fill-opacity="0" stroke="black" stroke-width="1" />
<path d="M-46.0,54.0 L-27.0,73.0 L-13.0,87.0" fill-opacity="0" stroke="black" stroke-width="1" />
<path d="M-46.0,-54.0 L-27.0,-73.0 L-13.0,-87.0" fill-opacity="0" stroke="black" stroke-width="1" />
<path d="M-27.0,73.0 L-13.0,87.0 L-11.0,89.0" fill-opacity="0" stroke="black" stroke-width="1" />
<path d="M-27.0,-73.0 L-13.0,-87.0 L-11.0,-89.0" fill-opacity="0" stroke="black" stroke-width="1" />
<path d="M-13.0,87.0 L-11.0,89.0 L-3.0752191185252826,90.39717997393991" fill-opacity="0" stroke="black" stroke-width="1" />
<path d="M-13.0,-87.0 L-11.0,-89.0 L-3.0752191185252826,-90.39717997393991" fill-opacity="0" stroke="black" stroke-width="1" />
<path d="M-11.0,-11.0 L-9.602820026060087,-3.0752191185252826 L-8.116051276160313,-2.4165309333857605" fill-opacity="0" stroke="black" stroke-width="1" />
<path d="M-11.0,11.0 L-9.602820026060087,3.0752191185252826 L-8.116051276160313,2.4165309333857605" fill-opacity="0" stroke="black" stroke-width="1" />
<path d="M-9.602820026060087,-3.0752191185252826 L-8.116051276160313,-2.4165309333857605 L-7.679791850831686,-1.9756077649524917" fill-opacity="0" stroke="black" stroke-width="1" />
<path d="M-9.602820026060087,3.0752191185252826 L-8.116051276160313,2.4165309333857605 L-7.679791850831686,1.9756077649524917" fill-opacity="0" stroke="black" stroke-width="1" />
<path d="M-8.116051276160313,-2.4165309333857605 L-7.679791850831686,-1.9756077649524917 L-5.0,-5.0" fill-opacity="0" stroke="black" stroke-width="1" />
<path d="M-8.116051276160313,2.4165309333857605 L-7.679791850831686,1.9756077649524917 L-5.0,5.0" fill-opacity="0" stroke="black" stroke-width="1" />
<path d="M-1.9756077649524917,92.32020814916831 L-5.0,95.0 L-0.706095994327939,95.79102174034185" fill-opacity="0" stroke="black" stroke-width="1" />
<path d="M-1.9756077649524917,-92.32020814916831 L-5.0,-95.0 L-0.706095994327939,-95.79102174034185" fill-opacity="0" stroke="black" stroke-width="1" />
<path d="M-5.0,-5.0 L-4.208978259658153,-0.706095994327939 L-1.5167972791479523,-0.41778204198453517" fill-opacity="0" stroke="black" stroke-width="1" />
<path d="M-5.0,5.0 L-4.208978259658153,0.706095994327939 L-1.5167972791479523,0.41778204198453517" fill-opacity="0" stroke="black" stroke-width="1" />
<path d="M-4.208978259658153,-0.706095994327939 L-1.5167972791479523,-0.41778204198453517 L0.0,-0.0" fill-opacity="0" stroke="black" stroke-width="1" />
<path d="M-4.208978259658153,0.706095994327939 L-1.5167972791479523,0.41778204198453517 L0.0,-0.0" fill-opacity="0" stroke="black" stroke-width="1" />
<path d="M90.0,-0.0 L83.78778101082221,3.179245417143692 L82.0,-0.0" fill-opacity="0" stroke="black" stroke-width="1" />
<path d="M90.0,-0.0 L83.78778101082221,-3.179245417143692 L82.0,-0.0" fill-opacity="0" stroke="black" stroke-width="1" />
<path d="M82.0,-0.0 L81.65822429794812,3.3887283966413606 L81.24703386675307,4.531845560239768" fill-opacity="0" stroke="black" stroke-width="1" />
<path d="M82.0,-0.0 L81.65822429794812,-3.3887283966413606 L81.24703386675307,-4.531845560239768" fill-opacity="0" stroke="black" stroke-width="1" />
<path d="M81.65822429794812,3.3887283966413606 L81.24703386675307,4.531845560239768 L75.13078008465953,5.021663951399055" fill-opacity="0" stroke="black" stroke-width="1" />
<path d="M81.65822429794812,-3.3887283966413606 L81.24703386675307,-4.531845560239768 L75.13078008465953,-5.021663951399055" fill-opacity="0" stroke="black" stroke-width="1" />
<path d="M81.24703386675307,4.531845560239768 L75.13078008465953,5.021663951399055 L74.0,-0.0" fill-opacity="0" stroke="black" stroke-width="1" />
<path d="M81.24703386675307,-4.531845560239768 L75.13078008465953,-5.021663951399055 L74.0,-0.0" fill-opacity="0" stroke="black" stroke-width="1" />
<path d="M74.0,-0.0 L73.44308089293958,6.150281151853684 L70.94567602165284,7.1143915647641105" fill-opacity="0" stroke="black" stroke-width="1" />
<path d="M74.0,-0.0 L73.44308089293958,-6.150281151853684 L70.94567602165284,-7.1143915647641105" fill-opacity="0" stroke="black" stroke-width="1" />
<path d="M73.44308089293958,6.150281151853684 L70.94567602165284,7.1143915647641105 L70.0,-0.0" fill-opacity="0" stroke="black" stroke-width="1" />
<path d="M73.44308089293958,-6.150281151853684 L70.94567602165284,-7.1143915647641105 L70.0,-0.0" fill-opacity="0" stroke="black" stroke-width="1" />
<path d="M50.0,4.0 L53.9403829250779,9.157139349366345 L50.0,23.0" fill-opacity="0" stroke="black" stroke-width="1" />
<path d="M50.0,-4.0 L53.9403829250779,-9.157139349366345 L50.0,-23.0" fill-opacity="0" stroke="black" stroke-width="1" />
<path d="M50.0,23.0 L52.912138097997975,25.564624944463787 L50.0,27.0" fill-opacity="0" stroke="black" stroke-width="1" />
<path d="M50.0,-23.0 L52.912138097997975,-25.564624944463787 L50.0,-27.0" fill-opacity="0" stroke="black" stroke-width="1" />
<path d="M50.0,38.0 L53.0,47.0 L54.0,46.0" fill-opacity="0" stroke="black" stroke-width="1" />
<path d="M50.0,-38.0 L53.0,-47.0 L54.0,-46.0" fill-opacity="0" stroke="black" stroke-width="1" />
<path d="M53.0,47.0 L54.0,46.0 L73.0,27.0" fill-opacity="0" stroke="black" stroke-width="1" />
<path d="M53.0,-47.0 L54.0,-46.0 L73.0,-27.0" fill-opacity="0" stroke="black" stroke-width="1" />
<path d="M54.0,46.0 L73.0,27.0 L87.0,13.0" fill-opacity="0" stroke="black" stroke-width="1" />
<path d="M54.0,-46.0 L73.0,-27.0 L87.0,-13.0" fill-opacity="0" stroke="black" stroke-width="1" />
<path d="M73.0,27.0 L87.0,13.0 L89.0,11.0" fill-opacity="0" stroke="black" stroke-width="1" />
<path d="M73.0,-27.0 L87.0,-13.0 L89.0,-11.0" fill-opacity="0" stroke="black" stroke-width="1" />
<path d="M87.0,13.0 L89.0,11.0 L90.39717997393991,3.0752191185252826" fill-opacity="0" stroke="black" stroke-width="1" />
<path d="M87.0,-13.0 L89.0,-11.0 L90.39717997393991,-3.0752191185252826" fill-opacity="0" stroke="black" stroke-width="1" />
<path d="M89.0,11.0 L90.39717997393991,3.0752191185252826 L91.8839487238397,2.4165309333857605" fill-opacity="0" stroke="black" stroke-width="1" />
<path d="M89.0,-11.0 L90.39717997393991,-3.0752191185252826 L91.8839487238397,-2.4165309333857605" fill-opacity="0" stroke="black" stroke-width="1" />
<path d="M90.39717997393991,3.0752191185252826 L91.8839487238397,2.4165309333857605 L92.32020814916831,1.9756077649524917" fill-opacity="0" stroke="black" stroke-width="1" />
<path d="M90.39717997393991,-3.0752191185252826 L91.8839487238397,-2.4165309333857605 L92.32020814916831,-1.9756077649524917" fill-opacity="0" stroke="black" stroke-width="1" />
<path d="M91.8839487238397,2.4165309333857605 L92.32020814916831,1.9756077649524917 L95.0,5.0" fill-opacity="0" stroke="black" stroke-width="1" />
<path d="M91.8839487238397,-2.4165309333857605 L92.32020814916831,-1.9756077649524917 L95.0,-5.0" fill-opacity="0" stroke="black" stroke-width="1" />
<path d="M92.32020814916831,1.9756077649524917 L95.0,5.0 L95.79102174034185,0.706095994327939" fill-opacity="0" stroke="black" stroke-width="1" />
<path d="M92.32020814916831,-1.9756077649524917 L95.0,-5.0 L95.79102174034185,-0.706095994327939" fill-opacity="0" stroke="black" stroke-width="1" />
<path d="M95.0,5.0 L95.79102174034185,0.706095994327939 L98.48320272085205,0.41778204198453517" fill-opacity="0" stroke="black" stroke-width="1" />
<path d="M95.0,-5.0 L95.79102174034185,-0.706095994327939 L98.48320272085205,-0.41778204198453517" fill-opacity="0" stroke="black" stroke-width="1" />
<path d="M95.79102174034185,0.706095994327939 L98.48320272085205,0.41778204198453517 L100.0,-0.0" fill-opacity="0" stroke="black" stroke-width="1" />
<path d="M95.79102174034185,-0.706095994327939 L98.48320272085205,-0.41778204198453517 L100.0,-0.0" fill-opacity="0" stroke="black" stroke-width="1" />
<path d="M0.0,-10.0 L3.179245417143692,-16.212218989177785 L0.0,-18.0" fill-opacity="0" stroke="black" stroke-width="1" />
<path d="M0.0,10.0 L3.179245417143692,16.212218989177785 L0.0,18.0" fill-opacity="0" stroke="black" stroke-width="1" />
<path d="M0.0,90.0 L3.179245417143692,83.78778101082221 L0.0,82.0" fill-opacity="0" stroke="black" stroke-width="1" />
<path d="M0.0,-90.0 L3.179245417143692,-83.78778101082221 L0.0,-82.0" fill-opacity="0" stroke="black" stroke-width="1" />
<path d="M0.0,-18.0 L3.3887283966413606,-18.341775702051883 L4.531845560239768,-18.75296613324693" fill-opacity="0" stroke="black" stroke-width="1" />
<path d="M0.0,18.0 L3.3887283966413606,18.341775702051883 L4.531845560239768,18.75296613324693" fill-opacity="0" stroke="black" stroke-width="1" />
<path d="M0.0,82.0 L3.3887283966413606,81.65822429794812 L4.531845560239768,81.24703386675307" fill-opacity="0" stroke="black" stroke-width="1" />
<path d="M0.0,-82.0 L3.3887283966413606,-81.65822429794812 L4.531845560239768,-81.24703386675307" fill-opacity="0" stroke="black" stroke-width="1" />
<path d="M3.3887283966413606,-18.341775702051883 L4.531845560239768,-18.75296613324693 L5.021663951399055,-24.86921991534047" fill-opacity="0" stroke="black" stroke-width="1" />
<path d="M3.3887283966413606,18.341775702051883 L4.531845560239768,18.75296613324693 L5.021663951399055,24.86921991534047" fill-opacity="0" stroke="black" stroke-width="1" />
<path d="M3.3887283966413606,81.65822429794812 L4.531845560239768,81.24703386675307 L5.021663951399055,75.13078008465953" fill-opacity="0" stroke="black" stroke-width="1" />
<path d="M3.3887283966413606,-81.65822429794812 L4.531845560239768,-81.24703386675307 L5.021663951399055,-75.13078008465953" fill-opacity="0" stroke="black" stroke-width="1" />
<path d="M4.531845560239768,-18.75296613324693 L5.021663951399055,-24.86921991534047 L0.0,-26.0" fill-opacity="0" stroke="black" stroke-width="1" />
<path d="M4.531845560239768,18.75296613324693 L5.021663951399055,24.86921991534047 L0.0,26.0" fill-opacity="0" stroke="black" stroke-width="1" />
<path d="M4.531845560239768,81.24703386675307 L5.021663951399055,75.13078008465953 L0.0,74.0" fill-opacity="0" stroke="black" stroke-width="1" />
<path d="M4.531845560239768,-81.24703386675307 L5.021663951399055,-75.13078008465953 L0.0,-74.0" fill-opacity="0" stroke="black" stroke-width="1" />
<path d="M0.0,-26.0 L6.150281151853684,-26.556919107060427 L7.1143915647641105,-29.054323978347163" fill-opacity="0" stroke="black" stroke-width="1" />
<path d="M0.0,26.0 L6.150281151853684,26.556919107060427 L7.1143915647641105,29.054323978347163" fill-opacity="0" stroke="black" stroke-width="1" />
<path d="M0.0,74.0 L6.150281151853684,73.44308089293958 L7.1143915647641105,70.94567602165284" fill-opacity="0" stroke="black" stroke-width="1" />
<path d="M0.0,-74.0 L6.150281151853684,-73.44308089293958 L7.1143915647641105,-70.94567602165284" fill-opacity="0" stroke="black" stroke-width="1" />
<path d="M6.150281151853684,-26.556919107060427 L7.1143915647641105,-29.054323978347163 L0.0,-30.0" fill-opacity="0" stroke="black" stroke-width="1" />
<path d="M6.150281151853684,26.556919107060427 L7.1143915647641105,29.054323978347163 L0.0,30.0" fill-opacity="0" stroke="black" stroke-width="1" />
<path d="M6.150281151853684,73.44308089293958 L7.1143915647641105,70.94567602165284 L0.0,70.0" fill-opacity="0" stroke="black" stroke-width="1" />
<path d="M6.150281151853684,-73.44308089293958 L7.1143915647641105,-70.94567602165284 L0.0,-70.0" fill-opacity="0" stroke="black" stroke-width="1" />
<path d="M4.0,-50.0 L9.157139349366345,-46.0596170749221 L23.0,-50.0" fill-opacity="0" stroke="black" stroke-width="1" />
<path d="M4.0,50.0 L9.157139349366345,46.0596170749221 L23.0,50.0" fill-opacity="0" stroke="black" stroke-width="1" />
<path d="M4.0,50.0 L9.157139349366345,53.9403829250779 L23.0,50.0" fill-opacity="0" stroke="black" stroke-width="1" />
<path d="M4.0,-50.0 L9.157139349366345,-53.9403829250779 L23.0,-50.0" fill-opacity="0" stroke="black" stroke-width="1" />
<path d="M23.0,-50.0 L25.564624944463787,-47.087861902002025 L27.0,-50.0" fill-opacity="0" stroke="black" stroke-width="1" />
<path d="M23.0,50.0 L25.564624944463787,47.087861902002025 L27.0,50.0" fill-opacity="0" stroke="black" stroke-width="1" />
<path d="M23.0,50.0 L25.564624944463787,52.912138097997975 L27.0,50.0" fill-opacity="0" stroke="black" stroke-width="1" />
<path d="M23.0,-50.0 L25.564624944463787,-52.912138097997975 L27.0,-50.0" fill-opacity="0" stroke="black" stroke-width="1" />
<path d="M11.0,-11.0 L3.0752191185252826,-9.602820026060087 L2.4165309333857605,-8.116051276160313" fill-opacity="0" stroke="black" stroke-width="1" />
<path d="M11.0,11.0 L3.0752191185252826,9.602820026060087 L2.4165309333857605,8.116051276160313" fill-opacity="0" stroke="black" stroke-width="1" />
<path d="M11.0,89.0 L3.0752191185252826,90.39717997393991 L2.4165309333857605,91.8839487238397" fill-opacity="0" stroke="black" stroke-width="1" />
<path d="M11.0,-89.0 L3.0752191185252826,-90.39717997393991 L2.4165309333857605,-91.8839487238397" fill-opacity="0" stroke="black" stroke-width="1" />
<path d="M3.0752191185252826,-9.602820026060087 L2.4165309333857605,-8.116051276160313 L1.9756077649524917,-7.679791850831686" fill-opacity="0" stroke="black" stroke-width="1" />
<path d="M3.0752191185252826,9.602820026060087 L2.4165309333857605,8.116051276160313 L1.9756077649524917,7.679791850831686" fill-opacity="0" stroke="black" stroke-width="1" />
<path d="M3.0752191185252826,90.39717997393991 L2.4165309333857605,91.8839487238397 L1.9756077649524917,92.32020814916831" fill-opacity="0" stroke="black" stroke-width="1" />
<path d="M3.0752191185252826,-90.39717997393991 L2.4165309333857605,-91.8839487238397 L1.9756077649524917,-92.32020814916831" fill-opacity="0" stroke="black" stroke-width="1" />
<path d="M2.4165309333857605,-8.116051276160313 L1.9756077649524917,-7.679791850831686 L5.0,-5.0" fill-opacity="0" stroke="black" stroke-width="1" />
<path d="M2.4165309333857605,8.116051276160313 L1.9756077649524917,7.679791850831686 L5.0,5.0" fill-opacity="0" stroke="black" stroke-width="1" />
<path d="M2.4165309333857605,91.8839487238397 L1.9756077649524917,92.32020814916831 L5.0,95.0" fill-opacity="0" stroke="black" stroke-width="1" />
<path d="M2.4165309333857605,-91.8839487238397 L1.9756077649524917,-92.32020814916831 L5.0,-95.0" fill-opacity="0" stroke="black" stroke-width="1" />
<path d="M5.0,-5.0 L0.706095994327939,-4.208978259658153 L0.41778204198453517,-1.5167972791479523" fill-opacity="0" stroke="black" stroke-width="1" />
<path d="M5.0,5.0 L0.706095994327939,4.208978259658153 L0.41778204198453517,1.5167972791479523" fill-opacity="0" stroke="black" stroke-width="1" />
<path d="M5.0,95.0 L0.706095994327939,95.79102174034185 L0.41778204198453517,98.48320272085205" fill-opacity="0" stroke="black" stroke-width="1" />
<path d="M5.0,-95.0 L0.706095994327939,-95.79102174034185 L0.41778204198453517,-98.48320272085205" fill-opacity="0" stroke="black" stroke-width="1" />
<path d="M0.706095994327939,-4.208978259658153 L0.41778204198453517,-1.5167972791479523 L0.0,-0.0" fill-opacity="0" stroke="black" stroke-width="1" />
<path d="M0.706095994327939,4.208978259658153 L0.41778204198453517,1.5167972791479523 L0.0,-0.0" fill-opacity="0" stroke="black" stroke-width="1" />
<path d="M0.706095994327939,95.79102174034185 L0.41778204198453517,98.48320272085205 L0.0,100.0" fill-opacity="0" stroke="black" stroke-width="1" />
<path d="M0.706095994327939,-95.79102174034185 L0.41778204198453517,-98.48320272085205 L0.0,-100.0" fill-opacity="0" stroke="black" stroke-width="1" />
<path d="M0.0,90.0 L-3.179245417143692,83.78778101082221 L0.0,82.0" fill-opacity="0" stroke="black" stroke-width="1" />
<path d="M0.0,-10.0 L-3.179245417143692,-16.212218989177785 L0.0,-18.0" fill-opacity="0" stroke="black" stroke-width="1" />
<path d="M0.0,10.0 L-3.179245417143692,16.212218989177785 L0.0,18.0" fill-opacity="0" stroke="black" stroke-width="1" />
<path d="M0.0,-90.0 L-3.179245417143692,-83.78778101082221 L0.0,-82.0" fill-opacity="0" stroke="black" stroke-width="1" />
<path d="M0.0,82.0 L-3.3887283966413606,81.65822429794812 L-4.531845560239768,81.24703386675307" fill-opacity="0" stroke="black" stroke-width="1" />
<path d="M0.0,-18.0 L-3.3887283966413606,-18.341775702051883 L-4.531845560239768,-18.75296613324693" fill-opacity="0" stroke="black" stroke-width="1" />
<path d="M0.0,18.0 L-3.3887283966413606,18.341775702051876 L-4.531845560239768,18.75296613324693" fill-opacity="0" stroke="black" stroke-width="1" />
<path d="M0.0,-82.0 L-3.3887283966413606,-81.65822429794812 L-4.531845560239768,-81.24703386675307" fill-opacity="0" stroke="black" stroke-width="1" />
<path d="M-3.3887283966413606,81.65822429794812 L-4.531845560239768,81.24703386675307 L-5.021663951399055,75.13078008465953" fill-opacity="0" stroke="black" stroke-width="1" />
<path d="M-3.3887283966413606,-18.341775702051883 L-4.531845560239768,-18.75296613324693 L-5.021663951399055,-24.86921991534047" fill-opacity="0" stroke="black" stroke-width="1" />
<path d="M-3.3887283966413606,18.341775702051876 L-4.531845560239768,18.75296613324693 L-5.021663951399055,24.869219915340466" fill-opacity="0" stroke="black" stroke-width="1" />
<path d="M-3.3887283966413606,-81.65822429794812 L-4.531845560239768,-81.24703386675307 L-5.021663951399055,-75.13078008465953" fill-opacity="0" stroke="black" stroke-width="1" />
<path d="M-4.531845560239768,81.24703386675307 L-5.021663951399055,75.13078008465953 L0.0,74.0" fill-opacity="0" stroke="black" stroke-width="1" />
<path d="M-4.531845560239768,-18.75296613324693 L-5.021663951399055,-24.86921991534047 L0.0,-26.0" fill-opacity="0" stroke="black" stroke-width="1" />
<path d="M-4.531845560239768,18.75296613324693 L-5.021663951399055,24.869219915340466 L0.0,26.0" fill-opacity="0" stroke="black" stroke-width="1" />
<path d="M-4.531845560239768,-81.24703386675307 L-5.021663951399055,-75.13078008465953 L0.0,-74.0" fill-opacity="0" stroke="black" stroke-width="1" />
<path d="M0.0,74.0 L-6.150281151853684,73.44308089293958 L-7.1143915647641105,70.94567602165284" fill-opacity="0" stroke="black" stroke-width="1" />
<path d="M0.0,-26.0 L-6.150281151853684,-26.556919107060427 L-7.1143915647641105,-29.054323978347163" fill-opacity="0" stroke="black" stroke-width="1" />
<path d="M0.0,26.0 L-6.150281151853684,26.556919107060423 L-7.1143915647641105,29.054323978347156" fill-opacity="0" stroke="black" stroke-width="1" />
<path d="M0.0,-74.0 L-6.150281151853684,-73.44308089293958 L-7.1143915647641105,-70.94567602165284" fill-opacity="0" stroke="black" stroke-width="1" />
<path d="M-6.150281151853684,73.44308089293958 L-7.1143915647641105,70.94567602165284 L0.0,70.0" fill-opacity="0" stroke="black" stroke-width="1" />
<path d="M-6.150281151853684,-26.556919107060427 L-7.1143915647641105,-29.054323978347163 L0.0,-30.0" fill-opacity="0" stroke="black" stroke-width="1" />
<path d="M-6.150281151853684,26.556919107060423 L-7.1143915647641105,29.054323978347156 L0.0,30.0" fill-opacity="0" stroke="black" stroke-width="1" />
<path d="M-6.150281151853684,-73.44308089293958 L-7.1143915647641105,-70.94567602165284 L0.0,-70.0" fill-opacity="0" stroke="black" stroke-width="1" />
<path d="M-4.0,50.0 L-9.157139349366345,53.9403829250779 L-23.0,50.0" fill-opacity="0" stroke="black" stroke-width="1" />
<path d="M-4.0,-50.0 L-9.157139349366345,-46.0596170749221 L-23.0,-50.0" fill-opacity="0" stroke="black" stroke-width="1" />
<path d="M-4.0,50.0 L-9.157139349366345,46.0596170749221 L-23.0,50.0" fill-opacity="0" stroke="black" stroke-width="1" />
<path d="M-4.0,-50.0 L-9.157139349366345,-53.9403829250779 L-23.0,-50.0" fill-opacity="0" stroke="black" stroke-width="1" />
<path d="M-23.0,50.0 L-25.564624944463787,52.912138097997975 L-27.0,50.0" fill-opacity="0" stroke="black" stroke-width="1" />
<path d="M-23.0,-50.0 L-25.564624944463787,-47.087861902002025 L-27.0,-50.0" fill-opacity="0" stroke="black" stroke-width="1" />
<path d="M-23.0,50.0 L-25.564624944463787,47.087861902002025 L-27.0,50.0" fill-opacity="0" stroke="black" stroke-width="1" />
<path d="M-23.0,-50.0 L-25.564624944463787,-52.912138097997975 L-27.0,-50.0" fill-opacity="0" stroke="black" stroke-width="1" />
<path d="M-11.0,89.0 L-3.0752191185252826,90.39717997393991 L-2.4165309333857605,91.8839487238397" fill-opacity="0" stroke="black" stroke-width="1" />
<path d="M-11.0,-11.0 L-3.0752191185252826,-9.602820026060087 L-2.4165309333857605,-8.116051276160313" fill-opacity="0" stroke="black" stroke-width="1" />
<path d="M-11.0,11.0 L-3.0752191185252826,9.602820026060087 L-2.4165309333857605,8.116051276160306" fill-opacity="0" stroke="black" stroke-width="1" />
<path d="M-11.0,-89.0 L-3.0752191185252826,-90.39717997393991 L-2.4165309333857605,-91.8839487238397" fill-opacity="0" stroke="black" stroke-width="1" />
<path d="M-3.0752191185252826,90.39717997393991 L-2.4165309333857605,91.8839487238397 L-1.9756077649524917,92.32020814916831" fill-opacity="0" stroke="black" stroke-width="1" />
<path d="M-3.0752191185252826,-9.602820026060087 L-2.4165309333857605,-8.116051276160313 L-1.9756077649524917,-7.679791850831686" fill-opacity="0" stroke="black" stroke-width="1" />
<path d="M-3.0752191185252826,9.602820026060087 L-2.4165309333857605,8.116051276160306 L-1.9756077649524917,7.679791850831691" fill-opacity="0" stroke="black" stroke-width="1" />
<path d="M-3.0752191185252826,-90.39717997393991 L-2.4165309333857605,-91.8839487238397 L-1.9756077649524917,-92.32020814916831" fill-opacity="0" stroke="black" stroke-width="1" />
<path d="M-2.4165309333857605,91.8839487238397 L-1.9756077649524917,92.32020814916831 L-5.0,95.0" fill-opacity="0" stroke="black" stroke-width="1" />
<path d="M-2.4165309333857605,-8.116051276160313 L-1.9756077649524917,-7.679791850831686 L-5.0,-5.0" fill-opacity="0" stroke="black" stroke-width="1" />
<path d="M-2.4165309333857605,8.116051276160306 L-1.9756077649524917,7.679791850831691 L-5.0,5.0" fill-opacity="0" stroke="black" stroke-width="1" />
<path d="M-2.4165309333857605,-91.8839487238397 L-1.9756077649524917,-92.32020814916831 L-5.0,-95.0" fill-opacity="0" stroke="black" stroke-width="1" />
<path d="M-5.0,95.0 L-0.706095994327939,95.79102174034185 L-0.41778204198453517,98.48320272085205" fill-opacity="0" stroke="black" stroke-width="1" />
<path d="M-5.0,-5.0 L-0.706095994327939,-4.208978259658153 L-0.41778204198453517,-1.5167972791479523" fill-opacity="0" stroke="black" stroke-width="1" />
<path d="M-5.0,5.0 L-0.706095994327939,4.208978259658153 L-0.41778204198453517,1.5167972791479514" fill-opacity="0" stroke="black" stroke-width="1" />
<path d="M-5.0,-95.0 L-0.706095994327939,-95.79102174034185 L-0.41778204198453517,-98.48320272085205" fill-opacity="0" stroke="black" stroke-width="1" />
<path d="M-0.706095994327939,95.79102174034185 L-0.41778204198453517,98.48320272085205 L0.0,100.0" fill-opacity="0" stroke="black" stroke-width="1" />
<path d="M-0.706095994327939,-4.208978259658153 L-0.41778204198453517,-1.5167972791479523 L0.0,-0.0" fill-opacity="0" stroke="black" stroke-width="1" />
<path d="M-0.706095994327939,4.208978259658153 L-0.41778204198453517,1.5167972791479514 L0.0,-0.0" fill-opacity="0" stroke="black" stroke-width="1" />
<path d="M-0.706095994327939,-95.79102174034185 L-0.41778204198453517,-98.48320272085205 L0.0,-100.0" fill-opacity="0" stroke="black" stroke-width="1" />
<path d="M-90.0,-0.0 L-83.78778101082221,-3.179245417143692 L-82.0,-0.0" fill-opacity="0" stroke="black" stroke-width="1" />
<path d="M-90.0,-0.0 L-83.78778101082221,3.179245417143692 L-82.0,-0.0" fill-opacity="0" stroke="black" stroke-width="1" />
<path d="M-82.0,-0.0 L-81.65822429794812,-3.3887283966413606 L-81.24703386675307,-4.531845560239768" fill-opacity="0" stroke="black" stroke-width="1" />
<path d="M-82.0,-0.0 L-81.65822429794812,3.3887283966413606 L-81.24703386675307,4.531845560239768" fill-opacity="0" stroke="black" stroke-width="1" />
<path d="M-81.65822429794812,-3.3887283966413606 L-81.24703386675307,-4.531845560239768 L-75.13078008465953,-5.021663951399055" fill-opacity="0" stroke="black" stroke-width="1" />
<path d="M-81.65822429794812,3.3887283966413606 L-81.24703386675307,4.531845560239768 L-75.13078008465953,5.021663951399055" fill-opacity="0" stroke="black" stroke-width="1" />
<path d="M-81.24703386675307,-4.531845560239768 L-75.13078008465953,-5.021663951399055 L-74.0,-0.0" fill-opacity="0" stroke="black" stroke-width="1" />
<path d="M-81.24703386675307,4.531845560239768 L-75.13078008465953,5.021663951399055 L-74.0,-0.0" fill-opacity="0" stroke="black" stroke-width="1" />
<path d="M-74.0,-0.0 L-73.44308089293958,-6.150281151853684 L-70.94567602165284,-7.1143915647641105" fill-opacity="0" stroke="black" stroke-width="1" />
<path d="M-74.0,-0.0 L-73.44308089293958,6.150281151853684 L-70.94567602165284,7.1143915647641105" fill-opacity="0" stroke="black" stroke-width="1" />
<path d="M-73.44308089293958,-6.150281151853684 L-70.94567602165284,-7.1143915647641105 L-70.0,-0.0" fill-opacity="0" stroke="black" stroke-width="1" />
<path d="M-73.44308089293958,6.150281151853684 L-70.94567602165284,7.1143915647641105 L-70.0,-0.0" fill-opacity="0" stroke="black" stroke-width="1" />
<path d="M-50.0,-4.0 L-53.9403829250779,-9.157139349366345 L-50.0,-23.0" fill-opacity="0" stroke="black" stroke-width="1" />
<path d="M-50.0,4.0 L-53.9403829250779,9.157139349366345 L-50.0,23.0" fill-opacity="0" stroke="black" stroke-width="1" />
<path d="M-50.0,-23.0 L-52.912138097997975,-25.564624944463787 L-50.0,-27.0" fill-opacity="0" stroke="black" stroke-width="1" />
<path d="M-50.0,23.0 L-52.912138097997975,25.564624944463787 L-50.0,27.0" fill-opacity="0" stroke="black" stroke-width="1" />
<path d="M-50.0,-38.0 L-53.0,-47.0 L-54.0,-46.0" fill-opacity="0" stroke="black" stroke-width="1" />
<path d="M-50.0,38.0 L-53.0,47.0 L-54.0,46.0" fill-opacity="0" stroke="black" stroke-width="1" />
<path d="M-53.0,-47.0 L-54.0,-46.0 L-73.0,-27.0" fill-opacity="0" stroke="black" stroke-width="1" />
<path d="M-53.0,47.0 L-54.0,46.0 L-73.0,27.0" fill-opacity="0" stroke="black" stroke-width="1" />
<path d="M-54.0,-46.0 L-73.0,-27.0 L-87.0,-13.0" fill-opacity="0" stroke="black" stroke-width="1" />
<path d="M-54.0,46.0 L-73.0,27.0 L-87.0,13.0" fill-opacity="0" stroke="black" stroke-width="1" />
<path d="M-73.0,-27.0 L-87.0,-13.0 L-89.0,-11.0" fill-opacity="0" stroke="black" stroke-width="1" />
<path d="M-73.0,27.0 L-87.0,13.0 L-89.0,11.0" fill-opacity="0" stroke="black" stroke-width="1" />
<path d="M-87.0,-13.0 L-89.0,-11.0 L-90.39717997393991,-3.0752191185252826" fill-opacity="0" stroke="black" stroke-width="1" />
<path d="M-87.0,13.0 L-89.0,11.0 L-90.39717997393991,3.0752191185252826" fill-opacity="0" stroke="black" stroke-width="1" />
<path d="M-89.0,-11.0 L-90.39717997393991,-3.0752191185252826 L-91.8839487238397,-2.4165309333857605" fill-opacity="0" stroke="black" stroke-width="1" />
<path d="M-89.0,11.0 L-90.39717997393991,3.0752191185252826 L-91.8839487238397,2.4165309333857605" fill-opacity="0" stroke="black" stroke-width="1" />
<path d="M-90.39717997393991,-3.0752191185252826 L-91.8839487238397,-2.4165309333857605 L-92.32020814916831,-1.9756077649524917" fill-opacity="0" stroke="black" stroke-width="1" />
<path d="M-90.39717997393991,3.0752191185252826 L-91.8839487238397,2.4165309333857605 L-92.32020814916831,1.9756077649524917" fill-opacity="0" stroke="black" stroke-width="1" />
<path d="M-91.8839487238397,-2.4165309333857605 L-92.32020814916831,-1.9756077649524917 L-95.0,-5.0" fill-opacity="0" stroke="black" stroke-width="1" />
<path d="M-91.8839487238397,2.4165309333857605 L-92.32020814916831,1.9756077649524917 L-95.0,5.0" fill-opacity="0" stroke="black" stroke-width="1" />
<path d="M-92.32020814916831,-1.9756077649524917 L-95.0,-5.0 L-95.79102174034185,-0.706095994327939" fill-opacity="0" stroke="black" stroke-width="1" />
<path d="M-92.32020814916831,1.9756077649524917 L-95.0,5.0 L-95.79102174034185,0.706095994327939" fill-opacity="0" stroke="black" stroke-width="1" />
<path d="M-95.0,-5.0 L-95.79102174034185,-0.706095994327939 L-98.48320272085205,-0.41778204198453517" fill-opacity="0" stroke="black" stroke-width="1" />
<path d="M-95.0,5.0 L-95.79102174034185,0.706095994327939 L-98.48320272085205,0.41778204198453517" fill-opacity="0" stroke="black" stroke-width="1" />
<path d="M-95.79102174034185,-0.706095994327939 L-98.48320272085205,-0.41778204198453517 L-100.0,-0.0" fill-opacity="0" stroke="black" stroke-width="1" />
<path d="M-95.79102174034185,0.706095994327939 L-98.48320272085205,0.41778204198453517 L-100.0,-0.0" fill-opacity="0" stroke="black" stroke-width="1" />
<circle cx="0" cy="-97" r="8" stroke-dasharray="39.653880605311166 10.611601852125524" stroke-dashoffset="-17.59291886010284" stroke="black" stroke-width="1" fill="white" fill-opacity="1" />
<circle cx="0" cy="-97" r="4" stroke="black" stroke-width="1" fill="white" fill-opacity="1" />
</svg>