<?xml version="1.0" encoding="UTF-8"?>
<svg xmlns="http://www.w3.org/2000/svg" xmlns:xlink="http://www.w3.org/1999/xlink"
     width="250" height="250" viewBox="-125.0 -125.0 250 250">
<defs>
</defs>
<path d="M0.0,-0.0 L14.953766316586563,-4.3166853129634335 L24.0,-0.0" fill-opacity="0" stroke="black" stroke-width="1" />
<path d="M0.0,-0.0 L14.953766316586563,4.3166853129634335 L24.0,-0.0" fill-opacity="0" stroke="black" stroke-width="1" />
<path d="M24.0,-0.0 L25.550066932595115,-7.122622743040338 L26.98329765882361,-7.78938004263251" fill-opacity="0" stroke="black" stroke-width="1" />
<path d="M24.0,-0.0 L25.550066932595115,7.122622743040338 L26.98329765882361,7.78938004263251" fill-opacity="0" stroke="black" stroke-width="1" />
<path d="M25.550066932595115,-7.122622743040338 L26.98329765882361,-7.78938004263251 L28.0,-0.0" fill-opacity="0" stroke="black" stroke-width="1" />
<path d="M25.550066932595115,7.122622743040338 L26.98329765882361,7.78938004263251 L28.0,-0.0" fill-opacity="0" stroke="black" stroke-width="1" />
<path d="M37.0,63.0 L36.0,64.0 L30.77062015880559,64.78856893764214" fill-opacity="0" stroke="black" stroke-width="1" />
<path d="M37.0,-63.0 L36.0,-64.0 L30.77062015880559,-64.78856893764214" fill-opacity="0" stroke="black" stroke-width="1" />
<path d="M50.0,-15.0 L34.14726032827327,-16.927322085637687 L50.0,-20.0" fill-opacity="0" stroke="black" stroke-width="1" />
<path d="M50.0,15.0 L34.14726032827327,16.927322085637687 L50.0,20.0" fill-opacity="0" stroke="black" stroke-width="1" />
<path d="M46.0,50.0 L44.0,56.0 L42.0,58.0" fill-opacity="0" stroke="black" stroke-width="1" />
<path d="M46.0,-50.0 L44.0,-56.0 L42.0,-58.0" fill-opacity="0" stroke="black" stroke-width="1" />
<path d="M44.0,56.0 L42.0,58.0 L31.04933813811791,62.593375488999556" fill-opacity="0" stroke="black" stroke-width="1" />
<path d="M44.0,-56.0 L42.0,-58.0 L31.04933813811791,-62.593375488999556" fill-opacity="0" stroke="black" stroke-width="1" />
<path d="M42.0,-42.0 L37.406624511000444,-31.04933813811791 L37.0,-37.0" fill-opacity="0" stroke="black" stroke-width="1" />
<path d="M42.0,42.0 L37.406624511000444,31.04933813811791 L37.0,37.0" fill-opacity="0" stroke="black" stroke-width="1" />
<path d="M31.04933813811791,62.593375488999556 L37.0,63.0 L36.0,64.0" fill-opacity="0" stroke="black" stroke-width="1" />
<path d="M31.04933813811791,-62.593375488999556 L37.0,-63.0 L36.0,-64.0" fill-opacity="0" stroke="black" stroke-width="1" />
<path d="M36.0,-36.0 L35.21143106235785,-30.77062015880559 L22.0,-22.0" fill-opacity="0" stroke="black" stroke-width="1" />
<path d="M36.0,36.0 L35.21143106235785,30.77062015880559 L22.0,22.0" fill-opacity="0" stroke="black" stroke-width="1" />
<path d="M30.77062015880559,64.78856893764214 L22.0,78.0 L1.9253995829112025,90.3328835631725" fill-opacity="0" stroke="black" stroke-width="1" />
<path d="M30.77062015880559,-64.78856893764214 L22.0,-78.0 L1.9253995829112025,-90.3328835631725" fill-opacity="0" stroke="black" stroke-width="1" />
<path d="M22.0,-22.0 L9.667116436827495,-1.9253995829112025 L0.0,-0.0" fill-opacity="0" stroke="black" stroke-width="1" />
<path d="M22.0,22.0 L9.667116436827495,1.9253995829112025 L0.0,-0.0" fill-opacity="0" stroke="black" stroke-width="1" />
<path d="M0.0,-0.0 L-14.953766316586563,-4.3166853129634335 L-24.0,-0.0" fill-opacity="0" stroke="black" stroke-width="1" />
<path d="M0.0,-0.0 L-14.953766316586563,4.3166853129634335 L-24.0,-0.0" fill-opacity="0" stroke="black" stroke-width="1" />
<path d="M-24.0,-0.0 L-25.550066932595115,-7.122622743040338 L-26.98329765882361,-7.78938004263251" fill-opacity="0" stroke="black" stroke-width="1" />
<path d="M-24.0,-0.0 L-25.550066932595115,7.122622743040338 L-26.98329765882361,7.78938004263251" fill-opacity="0" stroke="black" stroke-width="1" />
<path d="M-25.550066932595115,-7.122622743040338 L-26.98329765882361,-7.78938004263251 L-28.0,-0.0" fill-opacity="0" stroke="black" stroke-width="1" />
<path d="M-25.550066932595115,7.122622743040338 L-26.98329765882361,7.78938004263251 L-28.0,-0.0" fill-opacity="0" stroke="black" stroke-width="1" />
<path d="M-37.0,63.0 L-36.0,64.0 L-30.77062015880559,64.78856893764214" fill-opacity="0" stroke="black" stroke-width="1" />
<path d="M-37.0,-63.0 L-36.0,-64.0 L-30.77062015880559,-64.78856893764214" fill-opacity="0" stroke="black" stroke-width="1" />
<path d="M-50.0,-15.0 L-34.14726032827327,-16.927322085637687 L-50.0,-20.0" fill-opacity="0" stroke="black" stroke-width="1" />
<path d="M-50.0,15.0 L-34.14726032827327,16.927322085637687 L-50.0,20.0" fill-opacity="0" stroke="black" stroke-width="1" />
<path d="M-46.0,50.0 L-44.0,56.0 L-42.0,58.0" fill-opacity="0" stroke="black" stroke-width="1" />
<path d="M-46.0,-50.0 L-44.0,-56.0 L-42.0,-58.0" fill-opacity="0" stroke="black" stroke-width="1" />
<path d="M-44.0,56.0 L-42.0,58.0 L-31.04933813811791,62.593375488999556" fill-opacity="0" stroke="black" stroke-width="1" />
<path d="M-44.0,-56.0 L-42.0,-58.0 L-31.04933813811791,-62.593375488999556" fill-opacity="0" stroke="black" stroke-width="1" />
<path d="M-42.0,-42.0 L-37.406624511000444,-31.04933813811791 L-37.0,-37.0" fill-opacity="0" stroke="black" stroke-width="1" />
<path d="M-42.0,42.0 L-37.406624511000444,31.04933813811791 L-37.0,37.0" fill-opacity="0" stroke="black" stroke-width="1" />
<path d="M-31.04933813811791,62.593375488999556 L-37.0,63.0 L-36.0,64.0" fill-opacity="0" stroke="black" stroke-width="1" />
<path d="M-31.04933813811791,-62.593375488999556 L-37.0,-63.0 L-36.0,-64.0" fill-opacity="0" stroke="black" stroke-width="1" />
<path d="M-36.0,-36.0 L-35.21143106235785,-30.77062015880559 L-22.0,-22.0" fill-opacity="0" stroke="black" stroke-width="1" />
<path d="M-36.0,36.0 L-35.21143106235785,30.77062015880559 L-22.0,22.0" fill-opacity="0" stroke="black" stroke-width="1" />
<path d="M-30.77062015880559,64.78856893764214 L-22.0,78.0 L-1.9253995829112025,90.3328835631725" fill-opacity="0" stroke="black" stroke-width="1" />
<path d="M-30.77062015880559,-64.78856893764214 L-22.0,-78.0 L-1.9253995829112025,-90.3328835631725" fill-opacity="0" stroke="black" stroke-width="1" />
<path d="M-22.0,-22.0 L-9.667116436827495,-1.9253995829112025 L0.0,-0.0" fill-opacity="0" stroke="black" stroke-width="1" />
<path d="M-22.0,22.0 L-9.667116436827495,1.9253995829112025 L0.0,-0.0" fill-opacity="0" stroke="black" stroke-width="1" />
<path d="M100.0,-0.0 L85.04623368341343,4.3166853129634335 L76.0,-0.0" fill-opacity="0" stroke="black" stroke-width="1" />
<path d="M100.0,-0.0 L85.04623368341343,-4.3166853129634335 L76.0,-0.0" fill-opacity="0" stroke="black" stroke-width="1" />
<path d="M76.0,-0.0 L74.44993306740488,7.122622743040338 L73.0167023411764,7.78938004263251" fill-opacity="0" stroke="black" stroke-width="1" />
<path d="M76.0,-0.0 L74.44993306740488,-7.122622743040338 L73.0167023411764,-7.78938004263251" fill-opacity="0" stroke="black" stroke-width="1" />
<path d="M74.44993306740488,7.122622743040338 L73.0167023411764,7.78938004263251 L72.0,-0.0" fill-opacity="0" stroke="black" stroke-width="1" />
<path d="M74.44993306740488,-7.122622743040338 L73.0167023411764,-7.78938004263251 L72.0,-0.0" fill-opacity="0" stroke="black" stroke-width="1" />
<path d="M63.0,37.0 L64.0,36.0 L64.78856893764214,30.77062015880559" fill-opacity="0" stroke="black" stroke-width="1" />
<path d="M63.0,-37.0 L64.0,-36.0 L64.78856893764214,-30.77062015880559" fill-opacity="0" stroke="black" stroke-width="1" />
<path d="M50.0,15.0 L65.85273967172674,16.927322085637687 L50.0,20.0" fill-opacity="0" stroke="black" stroke-width="1" />
<path d="M50.0,-15.0 L65.85273967172674,-16.927322085637687 L50.0,-20.0" fill-opacity="0" stroke="black" stroke-width="1" />
<path d="M50.0,46.0 L56.0,44.0 L58.0,42.0" fill-opacity="0" stroke="black" stroke-width="1" />
<path d="M50.0,-46.0 L56.0,-44.0 L58.0,-42.0" fill-opacity="0" stroke="black" stroke-width="1" />
<path d="M56.0,44.0 L58.0,42.0 L62.593375488999556,31.04933813811791" fill-opacity="0" stroke="black" stroke-width="1" />
<path d="M56.0,-44.0 L58.0,-42.0 L62.593375488999556,-31.04933813811791" fill-opacity="0" stroke="black" stroke-width="1" />
<path d="M58.0,42.0 L62.593375488999556,31.04933813811791 L63.0,37.0" fill-opacity="0" stroke="black" stroke-width="1" />
<path d="M58.0,-42.0 L62.593375488999556,-31.04933813811791 L63.0,-37.0" fill-opacity="0" stroke="black" stroke-width="1" />
<path d="M62.593375488999556,31.04933813811791 L63.0,37.0 L64.0,36.0" fill-opacity="0" stroke="black" stroke-width="1" />
<path d="M62.593375488999556,-31.04933813811791 L63.0,-37.0 L64.0,-36.0" fill-opacity="0" stroke="black" stroke-width="1" />
<path d="M64.0,36.0 L64.78856893764214,30.77062015880559 L78.0,22.0" fill-opacity="0" stroke="black" stroke-width="1" />
<path d="M64.0,-36.0 L64.78856893764214,-30.77062015880559 L78.0,-22.0" fill-opacity="0" stroke="black" stroke-width="1" />
<path d="M64.78856893764214,30.77062015880559 L78.0,22.0 L90.3328835631725,1.9253995829112025" fill-opacity="0" stroke="black" stroke-width="1" />
<path d="M64.78856893764214,-30.77062015880559 L78.0,-22.0 L90.3328835631725,-1.9253995829112025" fill-opacity="0" stroke="black" stroke-width="1" />
<path d="M78.0,22.0 L90.3328835631725,1.9253995829112025 L100.0,-0.0" fill-opacity="0" stroke="black" stroke-width="1" />
<path d="M78.0,-22.0 L90.3328835631725,-1.9253995829112025 L100.0,-0.0" fill-opacity="0" stroke="black" stroke-width="1" />
<path d="M0.0,-0.0 L4.3166853129634335,-14.953766316586563 L0.0,-24.0" fill-opacity="0" stroke="black" stroke-width="1" />
<path d="M0.0,-0.0 L4.3166853129634335,14.953766316586563 L0.0,24.0" fill-opacity="0" stroke="black" stroke-width="1" />
<path d="M0.0,100.0 L4.3166853129634335,85.04623368341343 L0.0,76.0" fill-opacity="0" stroke="black" stroke-width="1" />
<path d="M0.0,-100.0 L4.3166853129634335,-85.04623368341343 L0.0,-76.0" fill-opacity="0" stroke="black" stroke-width="1" />
<path d="M0.0,-24.0 L7.122622743040338,-25.550066932595115 L7.78938004263251,-26.98329765882361" fill-opacity="0" stroke="black" stroke-width="1" />
<path d="M0.0,24.0 L7.122622743040338,25.550066932595115 L7.78938004263251,26.98329765882361" fill-opacity="0" stroke="black" stroke-width="1" />
<path d="M0.0,76.0 L7.122622743040338,74.44993306740488 L7.78938004263251,73.0167023411764" fill-opacity="0" stroke="black" stroke-width="1" />
<path d="M0.0,-76.0 L7.122622743040338,-74.44993306740488 L7.78938004263251,-73.0167023411764" fill-opacity="0" stroke="black" stroke-width="1" />
<path d="M7.122622743040338,-25.550066932595115 L7.78938004263251,-26.98329765882361 L0.0,-28.0" fill-opacity="0" stroke="black" stroke-width="1" />
<path d="M7.122622743040338,25.550066932595115 L7.78938004263251,26.98329765882361 L0.0,28.0" fill-opacity="0" stroke="black" stroke-width="1" />
<path d="M7.122622743040338,74.44993306740488 L7.78938004263251,73.0167023411764 L0.0,72.0" fill-opacity="0" stroke="black" stroke-width="1" />
<path d="M7.122622743040338,-74.44993306740488 L7.78938004263251,-73.0167023411764 L0.0,-72.0" fill-opacity="0" stroke="black" stroke-width="1" />
<path d="M15.0,-50.0 L16.927322085637687,-34.14726032827327 L20.0,-50.0" fill-opacity="0" stroke="black" stroke-width="1" />
<path d="M15.0,50.0 L16.927322085637687,34.14726032827327 L20.0,50.0" fill-opacity="0" stroke="black" stroke-width="1" />
<path d="M15.0,50.0 L16.927322085637687,65.85273967172674 L20.0,50.0" fill-opacity="0" stroke="black" stroke-width="1" />
<path d="M15.0,-50.0 L16.927322085637687,-65.85273967172674 L20.0,-50.0" fill-opacity="0" stroke="black" stroke-width="1" />
<path d="M42.0,-42.0 L31.04933813811791,-37.406624511000444 L37.0,-37.0" fill-opacity="0" stroke="black" stroke-width="1" />
<path d="M42.0,42.0 L31.04933813811791,37.406624511000444 L37.0,37.0" fill-opacity="0" stroke="black" stroke-width="1" />
<path d="M42.0,58.0 L31.04933813811791,62.593375488999556 L37.0,63.0" fill-opacity="0" stroke="black" stroke-width="1" />
<path d="M42.0,-58.0 L31.04933813811791,-62.593375488999556 L37.0,-63.0" fill-opacity="0" stroke="black" stroke-width="1" />
<path d="M36.0,-36.0 L30.77062015880559,-35.21143106235785 L22.0,-22.0" fill-opacity="0" stroke="black" stroke-width="1" />
<path d="M36.0,36.0 L30.77062015880559,35.21143106235785 L22.0,22.0" fill-opacity="0" stroke="black" stroke-width="1" />
<path d="M36.0,64.0 L30.77062015880559,64.78856893764214 L22.0,78.0" fill-opacity="0" stroke="black" stroke-width="1" />
<path d="M36.0,-64.0 L30.77062015880559,-64.78856893764214 L22.0,-78.0" fill-opacity="0" stroke="black" stroke-width="1" />
<path d="M22.0,-22.0 L1.9253995829112025,-9.667116436827495 L0.0,-0.0" fill-opacity="0" stroke="black" stroke-width="1" />
<path d="M22.0,22.0 L1.9253995829112025,9.667116436827495 L0.0,-0.0" fill-opacity="0" stroke="black" stroke-width="1" />
<path d="M22.0,78.0 L1.9253995829112025,90.3328835631725 L0.0,100.0" fill-opacity="0" stroke="black" stroke-width="1" />
<path d="M22.0,-78.0 L1.9253995829112025,-90.3328835631725 L0.0,-100.0" fill-opacity="0" stroke="black" stroke-width="1" />
<path d="M0.0,100.0 L-4.3166853129634335,85.04623368341343 L0.0,76.0" fill-opacity="0" stroke="black" stroke-width="1" />
<path d="M0.0,-0.0 L-4.3166853129634335,-14.953766316586563 L0.0,-24.0" fill-opacity="0" stroke="black" stroke-width="1" />
<path d="M0.0,-0.0 L-4.3166853129634335,14.953766316586567 L0.0,24.0" fill-opacity="0" stroke="black" stroke-width="1" />
<path d="M0.0,-100.0 L-4.3166853129634335,-85.04623368341343 L0.0,-76.0" fill-opacity="0" stroke="black" stroke-width="1" />
<path d="M0.0,76.0 L-7.122622743040338,74.44993306740488 L-7.78938004263251,73.0167023411764" fill-opacity="0" stroke="black" stroke-width="1" />
<path d="M0.0,-24.0 L-7.122622743040338,-25.550066932595115 L-7.78938004263251,-26.98329765882361" fill-opacity="0" stroke="black" stroke-width="1" />
<path d="M0.0,24.0 L-7.122622743040338,25.550066932595115 L-7.78938004263251,26.983297658823602" fill-opacity="0" stroke="black" stroke-width="1" />
<path d="M0.0,-76.0 L-7.122622743040338,-74.44993306740488 L-7.78938004263251,-73.0167023411764" fill-opacity="0" stroke="black" stroke-width="1" />
<path d="M-7.122622743040338,74.44993306740488 L-7.78938004263251,73.0167023411764 L0.0,72.0" fill-opacity="0" stroke="black" stroke-width="1" />
<path d="M-7.122622743040338,-25.550066932595115 L-7.78938004263251,-26.98329765882361 L0.0,-28.0" fill-opacity="0" stroke="black" stroke-width="1" />
<path d="M-7.122622743040338,25.550066932595115 L-7.78938004263251,26.983297658823602 L0.0,28.0" fill-opacity="0" stroke="black" stroke-width="1" />
<path d="M-7.122622743040338,-74.44993306740488 L-7.78938004263251,-73.0167023411764 L0.0,-72.0" fill-opacity="0" stroke="black" stroke-width="1" />
<path d="M-15.0,50.0 L-16.927322085637687,65.85273967172674 L-20.0,50.0" fill-opacity="0" stroke="black" stroke-width="1" />
<path d="M-15.0,-50.0 L-16.927322085637687,-34.14726032827327 L-20.0,-50.0" fill-opacity="0" stroke="black" stroke-width="1" />
<path d="M-15.0,50.0 L-16.927322085637687,34.14726032827326 L-20.0,50.0" fill-opacity="0" stroke="black" stroke-width="1" />
<path d="M-15.0,-50.0 L-16.927322085637687,-65.85273967172674 L-20.0,-50.0" fill-opacity="0" stroke="black" stroke-width="1" />
<path d="M-42.0,58.0 L-31.04933813811791,62.593375488999556 L-37.0,63.0" fill-opacity="0" stroke="black" stroke-width="1" />
<path d="M-42.0,-42.0 L-31.04933813811791,-37.406624511000444 L-37.0,-37.0" fill-opacity="0" stroke="black" stroke-width="1" />
<path d="M-42.0,42.0 L-31.04933813811791,37.406624511000444 L-37.0,37.0" fill-opacity="0" stroke="black" stroke-width="1" />
<path d="M-42.0,-58.0 L-31.04933813811791,-62.593375488999556 L-37.0,-63.0" fill-opacity="0" stroke="black" stroke-width="1" />
<path d="M-36.0,64.0 L-30.77062015880559,64.78856893764214 L-22.0,78.0" fill-opacity="0" stroke="black" stroke-width="1" />
<path d="M-36.0,-36.0 L-30.77062015880559,-35.21143106235785 L-22.0,-22.0" fill-opacity="0" stroke="black" stroke-width="1" />
<path d="M-36.0,36.0 L-30.77062015880559,35.21143106235786 L-22.0,22.0" fill-opacity="0" stroke="black" stroke-width="1" />
<path d="M-36.0,-64.0 L-30.77062015880559,-64.78856893764214 L-22.0,-78.0" fill-opacity="0" stroke="black" stroke-width="1" />
<path d="M-22.0,78.0 L-1.9253995829112025,90.3328835631725 L0.0,100.0" fill-opacity="0" stroke="black" stroke-width="1" />
<path d="M-22.0,-22.0 L-1.9253995829112025,-9.667116436827495 L0.0,-0.0" fill-opacity="0" stroke="black" stroke-width="1" />
<path d="M-22.0,22.0 L-1.9253995829112025,9.667116436827499 L0.0,-0.0" fill-opacity="0" stroke="black" stroke-width="1" />
<path d="M-22.0,-78.0 L-1.9253995829112025,-90.3328835631725 L0.0,-100.0" fill-opacity="0" stroke="black" stroke-width="1" />
<path d="M-100.0,-0.0 L-85.04623368341343,-4.3166853129634335 L-76.0,-0.0" fill-opacity="0" stroke="black" stroke-width="1" />
<path d="M-100.0,-0.0 L-85.04623368341343,4.3166853129634335 L-76.0,-0.0" fill-opacity="0" stroke="black" stroke-width="1" />
<path d="M-76.0,-0.0 L-74.44993306740488,-7.122622743040338 L-73.0167023411764,-7.78938004263251" fill-opacity="0" stroke="black" stroke-width="1" />
<path d="M-76.0,-0.0 L-74.44993306740488,7.122622743040338 L-73.0167023411764,7.78938004263251" fill-opacity="0" stroke="black" stroke-width="1" />
<path d="M-74.44993306740488,-7.122622743040338 L-73.0167023411764,-7.78938004263251 L-72.0,-0.0" fill-opacity="0" stroke="black" stroke-width="1" />
<path d="M-74.44993306740488,7.122622743040338 L-73.0167023411764,7.78938004263251 L-72.0,-0.0" fill-opacity="0" stroke="black" stroke-width="1" />
<path d="M-63.0,-37.0 L-64.0,-36.0 L-64.78856893764214,-30.77062015880559" fill-opacity="0" stroke="black" stroke-width="1" />
<path d="M-63.0,37.0 L-64.0,36.0 L-64.78856893764214,30.77062015880559" fill-opacity="0" stroke="black" stroke-width="1" />
<path d="M-50.0,-15.0 L-65.85273967172674,-16.927322085637687 L-50.0,-20.0" fill-opacity="0" stroke="black" stroke-width="1" />
<path d="M-50.0,15.0 L-65.85273967172674,16.927322085637687 L-50.0,20.0" fill-opacity="0" stroke="black" stroke-width="1" />
<path d="M-50.0,-46.0 L-56.0,-44.0 L-58.0,-42.0" fill-opacity="0" stroke="black" stroke-width="1" />
<path d="M-50.0,46.0 L-56.0,44.0 L-58.0,42.0" fill-opacity="0" stroke="black" stroke-width="1" />
<path d="M-56.0,-44.0 L-58.0,-42.0 L-62.593375488999556,-31.04933813811791" fill-opacity="0" stroke="black" stroke-width="1" />
<path d="M-56.0,44.0 L-58.0,42.0 L-62.593375488999556,31.04933813811791" fill-opacity="0" stroke="black" stroke-width="1" />
<path d="M-58.0,-42.0 L-62.593375488999556,-31.04933813811791 L-63.0,-37.0" fill-opacity="0" stroke="black" stroke-width="1" />
<path d="M-58.0,42.0 L-62.593375488999556,31.04933813811791 L-63.0,37.0" fill-opacity="0" stroke="black" stroke-width="1" />
<path d="M-62.593375488999556,-31.04933813811791 L-63.0,-37.0 L-64.0,-36.0" fill-opacity="0" stroke="black" stroke-width="1" />
<path d="M-62.593375488999556,31.04933813811791 L-63.0,37.0 L-64.0,36.0" fill-opacity="0" stroke="black" stroke-width="1" />
<path d="M-64.0,-36.0 L-64.78856893764214,-30.77062015880559 L-78.0,-22.0" fill-opacity="0" stroke="black" stroke-width="1" />
<path d="M-64.0,36.0 L-64.78856893764214,30.77062015880559 L-78.0,22.0" fill-opacity="0" stroke="black" stroke-width="1" />
<path d="M-64.78856893764214,-30.77062015880559 L-78.0,-22.0 L-90.3328835631725,-1.9253995829112025" fill-opacity="0" stroke="black" stroke-width="1" />
<path d="M-64.78856893764214,30.77062015880559 L-78.0,22.0 L-90.3328835631725,1.9253995829112025" fill-opacity="0" stroke="black" stroke-width="1" />
<path d="M-78.0,-22.0 L-90.3328835631725,-1.9253995829112025 L-100.0,-0.0" fill-opacity="0" stroke="black" stroke-width="1" />
<path d="M-78.0,22.0 L-90.3328835631725,1.9253995829112025 L-100.0,-0.0" fill-opacity="0" stroke="black" stroke-width="1" />
<circle cx="0" cy="-97" r="8" stroke-dasharray="39.653880605311166 10.611601852125524" stroke-dashoffset="-17.59291886010284" stroke="black" stroke-width="1" fill="white" fill-opacity="1" />
<circle cx="0" cy="-97" r="4" stroke="black" stroke-width="1" fill="white" fill-opacity="1" />
</svg>