<?xml version="1.0" encoding="UTF-8"?>
<svg xmlns="http://www.w3.org/2000/svg" xmlns:xlink="http://www.w3.org/1999/xlink"
     width="250" height="250" viewBox="-125.0 -125.0 250 250">
<defs>
</defs>
<path d="M3.0038425551495025,90.2868751050437 L7.0,93.0 L1.3247085010439974,94.93870925652888" fill-opacity="0" stroke="black" stroke-width="1" />
<path d="M3.0038425551495025,-90.2868751050437 L7.0,-93.0 L1.3247085010439974,-94.93870925652888" fill-opacity="0" stroke="black" stroke-width="1" />
<path d="M7.0,-0.0 L19.85977075459491,-3.070231899231868 L21.349724300647438,-3.6745349041597986" fill-opacity="0" stroke="black" stroke-width="1" />
<path d="M7.0,-0.0 L19.85977075459491,3.070231899231868 L21.349724300647438,3.6745349041597986" fill-opacity="0" stroke="black" stroke-width="1" />
<path d="M19.85977075459491,-3.070231899231868 L21.349724300647438,-3.6745349041597986 L21.74961668243322,-4.101379510775222" fill-opacity="0" stroke="black" stroke-width="1" />
<path d="M19.85977075459491,3.070231899231868 L21.349724300647438,3.6745349041597986 L21.74961668243322,4.101379510775222" fill-opacity="0" stroke="black" stroke-width="1" />
<path d="M21.349724300647438,-3.6745349041597986 L21.74961668243322,-4.101379510775222 L22.0,-0.0" fill-opacity="0" stroke="black" stroke-width="1" />
<path d="M21.349724300647438,3.6745349041597986 L21.74961668243322,4.101379510775222 L22.0,-0.0" fill-opacity="0" stroke="black" stroke-width="1" />
<path d="M22.0,-0.0 L23.955701351211506,-4.149651028558109 L24.605316736806444,-6.6484745703755985" fill-opacity="0" stroke="black" stroke-width="1" />
<path d="M22.0,-0.0 L23.955701351211506,4.149651028558109 L24.605316736806444,6.6484745703755985" fill-opacity="0" stroke="black" stroke-width="1" />
<path d="M23.955701351211506,-4.149651028558109 L24.605316736806444,-6.6484745703755985 L25.0,-0.0" fill-opacity="0" stroke="black" stroke-width="1" />
<path d="M23.955701351211506,4.149651028558109 L24.605316736806444,6.6484745703755985 L25.0,-0.0" fill-opacity="0" stroke="black" stroke-width="1" />
<path d="M30.0,70.0 L25.0,75.0 L24.0,76.0" fill-opacity="0" stroke="black" stroke-width="1" />
<path d="M30.0,-70.0 L25.0,-75.0 L24.0,-76.0" fill-opacity="0" stroke="black" stroke-width="1" />
<path d="M28.0,-0.0 L28.620808503622737,-9.848275643407433 L28.96497294878259,-9.895708060024372" fill-opacity="0" stroke="black" stroke-width="1" />
<path d="M28.0,-0.0 L28.620808503622737,9.848275643407433 L28.96497294878259,9.895708060024372" fill-opacity="0" stroke="black" stroke-width="1" />
<path d="M28.620808503622737,-9.848275643407433 L28.96497294878259,-9.895708060024372 L30.790865186301914,-10.900934424853121" fill-opacity="0" stroke="black" stroke-width="1" />
<path d="M28.620808503622737,9.848275643407433 L28.96497294878259,9.895708060024372 L30.790865186301914,10.900934424853121" fill-opacity="0" stroke="black" stroke-width="1" />
<path d="M28.96497294878259,-9.895708060024372 L30.790865186301914,-10.900934424853121 L30.860035415356442,-12.261618172441645" fill-opacity="0" stroke="black" stroke-width="1" />
<path d="M28.96497294878259,9.895708060024372 L30.790865186301914,10.900934424853121 L30.860035415356442,12.261618172441645" fill-opacity="0" stroke="black" stroke-width="1" />
<path d="M30.790865186301914,-10.900934424853121 L30.860035415356442,-12.261618172441645 L32.386300263125,-15.651802166295997" fill-opacity="0" stroke="black" stroke-width="1" />
<path d="M30.790865186301914,10.900934424853121 L30.860035415356442,12.261618172441645 L32.386300263125,15.651802166295997" fill-opacity="0" stroke="black" stroke-width="1" />
<path d="M30.860035415356442,-12.261618172441645 L32.386300263125,-15.651802166295997 L33.0,-0.0" fill-opacity="0" stroke="black" stroke-width="1" />
<path d="M30.860035415356442,12.261618172441645 L32.386300263125,15.651802166295997 L33.0,-0.0" fill-opacity="0" stroke="black" stroke-width="1" />
<path d="M50.0,-15.0 L35.08423690009015,-16.51288519947575 L35.76977314149284,-17.222650692596474" fill-opacity="0" stroke="black" stroke-width="1" />
<path d="M50.0,15.0 L35.08423690009015,16.51288519947575 L35.76977314149284,17.222650692596474" fill-opacity="0" stroke="black" stroke-width="1" />
<path d="M35.08423690009015,-16.51288519947575 L35.76977314149284,-17.222650692596474 L50.0,-19.0" fill-opacity="0" stroke="black" stroke-width="1" />
<path d="M35.08423690009015,16.51288519947575 L35.76977314149284,17.222650692596474 L50.0,19.0" fill-opacity="0" stroke="black" stroke-width="1" />
<path d="M50.0,-19.0 L36.3044100575417,-19.106523158371562 L40.57550951531849,-23.898028847876294" fill-opacity="0" stroke="black" stroke-width="1" />
<path d="M50.0,19.0 L36.3044100575417,19.106523158371562 L40.57550951531849,23.898028847876294" fill-opacity="0" stroke="black" stroke-width="1" />
<path d="M36.3044100575417,-19.106523158371562 L40.57550951531849,-23.898028847876294 L42.66835660668314,-26.389823739318697" fill-opacity="0" stroke="black" stroke-width="1" />
<path d="M36.3044100575417,19.106523158371562 L40.57550951531849,23.898028847876294 L42.66835660668314,26.389823739318697" fill-opacity="0" stroke="black" stroke-width="1" />
<path d="M40.57550951531849,-23.898028847876294 L42.66835660668314,-26.389823739318697 L44.622888795770024,-28.258894429074317" fill-opacity="0" stroke="black" stroke-width="1" />
<path d="M40.57550951531849,23.898028847876294 L42.66835660668314,26.389823739318697 L44.622888795770024,28.258894429074317" fill-opacity="0" stroke="black" stroke-width="1" />
<path d="M42.66835660668314,-26.389823739318697 L44.622888795770024,-28.258894429074317 L46.710835544123086,-30.663035247691745" fill-opacity="0" stroke="black" stroke-width="1" />
<path d="M42.66835660668314,26.389823739318697 L44.622888795770024,28.258894429074317 L46.710835544123086,30.663035247691745" fill-opacity="0" stroke="black" stroke-width="1" />
<path d="M44.622888795770024,-28.258894429074317 L46.710835544123086,-30.663035247691745 L50.0,-39.0" fill-opacity="0" stroke="black" stroke-width="1" />
<path d="M44.622888795770024,28.258894429074317 L46.710835544123086,30.663035247691745 L50.0,39.0" fill-opacity="0" stroke="black" stroke-width="1" />
<path d="M49.0,50.0 L30.0,70.0 L25.0,75.0" fill-opacity="0" stroke="black" stroke-width="1" />
<path d="M49.0,-50.0 L30.0,-70.0 L25.0,-75.0" fill-opacity="0" stroke="black" stroke-width="1" />
<path d="M25.0,75.0 L24.0,76.0 L19.0,81.0" fill-opacity="0" stroke="black" stroke-width="1" />
<path d="M25.0,-75.0 L24.0,-76.0 L19.0,-81.0" fill-opacity="0" stroke="black" stroke-width="1" />
<path d="M24.0,76.0 L19.0,81.0 L13.0,87.0" fill-opacity="0" stroke="black" stroke-width="1" />
<path d="M24.0,-76.0 L19.0,-81.0 L13.0,-87.0" fill-opacity="0" stroke="black" stroke-width="1" />
<path d="M19.0,81.0 L13.0,87.0 L3.0038425551495025,90.2868751050437" fill-opacity="0" stroke="black" stroke-width="1" />
<path d="M19.0,-81.0 L13.0,-87.0 L3.0038425551495025,-90.2868751050437" fill-opacity="0" stroke="black" stroke-width="1" />
<path d="M13.0,-13.0 L9.713124894956298,-3.0038425551495025 L7.0,-7.0" fill-opacity="0" stroke="black" stroke-width="1" />
<path d="M13.0,13.0 L9.713124894956298,3.0038425551495025 L7.0,7.0" fill-opacity="0" stroke="black" stroke-width="1" />
<path d="M7.0,-7.0 L5.061290743471119,-1.3247085010439974 L0.0,-0.0" fill-opacity="0" stroke="black" stroke-width="1" />
<path d="M7.0,7.0 L5.061290743471119,1.3247085010439974 L0.0,-0.0" fill-opacity="0" stroke="black" stroke-width="1" />
<path d="M-3.0038425551495025,90.2868751050437 L-7.0,93.0 L-1.3247085010439974,94.93870925652888" fill-opacity="0" stroke="black" stroke-width="1" />
<path d="M-3.0038425551495025,-90.2868751050437 L-7.0,-93.0 L-1.3247085010439974,-94.93870925652888" fill-opacity="0" stroke="black" stroke-width="1" />
<path d="M-7.0,-0.0 L-19.85977075459491,-3.070231899231868 L-21.349724300647438,-3.6745349041597986" fill-opacity="0" stroke="black" stroke-width="1" />
<path d="M-7.0,-0.0 L-19.85977075459491,3.070231899231868 L-21.349724300647438,3.6745349041597986" fill-opacity="0" stroke="black" stroke-width="1" />
<path d="M-19.85977075459491,-3.070231899231868 L-21.349724300647438,-3.6745349041597986 L-21.74961668243322,-4.101379510775222" fill-opacity="0" stroke="black" stroke-width="1" />
<path d="M-19.85977075459491,3.070231899231868 L-21.349724300647438,3.6745349041597986 L-21.74961668243322,4.101379510775222" fill-opacity="0" stroke="black" stroke-width="1" />
<path d="M-21.349724300647438,-3.6745349041597986 L-21.74961668243322,-4.101379510775222 L-22.0,-0.0" fill-opacity="0" stroke="black" stroke-width="1" />
<path d="M-21.349724300647438,3.6745349041597986 L-21.74961668243322,4.101379510775222 L-22.0,-0.0" fill-opacity="0" stroke="black" stroke-width="1" />
<path d="M-22.0,-0.0 L-23.955701351211506,-4.149651028558109 L-24.605316736806444,-6.6484745703755985" fill-opacity="0" stroke="black" stroke-width="1" />
<path d="M-22.0,-0.0 L-23.955701351211506,4.149651028558109 L-24.605316736806444,6.6484745703755985" fill-opacity="0" stroke="black" stroke-width="1" />
<path d="M-23.955701351211506,-4.149651028558109 L-24.605316736806444,-6.6484745703755985 L-25.0,-0.0" fill-opacity="0" stroke="black" stroke-width="1" />
<path d="M-23.955701351211506,4.149651028558109 L-24.605316736806444,6.6484745703755985 L-25.0,-0.0" fill-opacity="0" stroke="black" stroke-width="1" />
<path d="M-30.0,70.0 L-25.0,75.0 L-24.0,76.0" fill-opacity="0" stroke="black" stroke-width="1" />
<path d="M-30.0,-70.0 L-25.0,-75.0 L-24.0,-76.0" fill-opacity="0" stroke="black" stroke-width="1" />
<path d="M-28.0,-0.0 L-28.620808503622737,-9.848275643407433 L-28.96497294878259,-9.895708060024372" fill-opacity="0" stroke="black" stroke-width="1" />
<path d="M-28.0,-0.0 L-28.620808503622737,9.848275643407433 L-28.96497294878259,9.895708060024372" fill-opacity="0" stroke="black" stroke-width="1" />
<path d="M-28.620808503622737,-9.848275643407433 L-28.96497294878259,-9.895708060024372 L-30.790865186301914,-10.900934424853121" fill-opacity="0" stroke="black" stroke-width="1" />
<path d="M-28.620808503622737,9.848275643407433 L-28.96497294878259,9.895708060024372 L-30.790865186301914,10.900934424853121" fill-opacity="0" stroke="black" stroke-width="1" />
<path d="M-28.96497294878259,-9.895708060024372 L-30.790865186301914,-10.900934424853121 L-30.860035415356442,-12.261618172441645" fill-opacity="0" stroke="black" stroke-width="1" />
<path d="M-28.96497294878259,9.895708060024372 L-30.790865186301914,10.900934424853121 L-30.860035415356442,12.261618172441645" fill-opacity="0" stroke="black" stroke-width="1" />
<path d="M-30.790865186301914,-10.900934424853121 L-30.860035415356442,-12.261618172441645 L-32.386300263125,-15.651802166295997" fill-opacity="0" stroke="black" stroke-width="1" />
<path d="M-30.790865186301914,10.900934424853121 L-30.860035415356442,12.261618172441645 L-32.386300263125,15.651802166295997" fill-opacity="0" stroke="black" stroke-width="1" />
<path d="M-30.860035415356442,-12.261618172441645 L-32.386300263125,-15.651802166295997 L-33.0,-0.0" fill-opacity="0" stroke="black" stroke-width="1" />
<path d="M-30.860035415356442,12.261618172441645 L-32.386300263125,15.651802166295997 L-33.0,-0.0" fill-opacity="0" stroke="black" stroke-width="1" />
<path d="M-50.0,-15.0 L-35.08423690009015,-16.51288519947575 L-35.76977314149284,-17.222650692596474" fill-opacity="0" stroke="black" stroke-width="1" />
<path d="M-50.0,15.0 L-35.08423690009015,16.51288519947575 L-35.76977314149284,17.222650692596474" fill-opacity="0" stroke="black" stroke-width="1" />
<path d="M-35.08423690009015,-16.51288519947575 L-35.76977314149284,-17.222650692596474 L-50.0,-19.0" fill-opacity="0" stroke="black" stroke-width="1" />
<path d="M-35.08423690009015,16.51288519947575 L-35.76977314149284,17.222650692596474 L-50.0,19.0" fill-opacity="0" stroke="black" stroke-width="1" />
<path d="M-50.0,-19.0 L-36.3044100575417,-19.106523158371562 L-40.57550951531849,-23.898028847876294" fill-opacity="0" stroke="black" stroke-width="1" />
<path d="M-50.0,19.0 L-36.3044100575417,19.106523158371562 L-40.57550951531849,23.898028847876294" fill-opacity="0" stroke="black" stroke-width="1" />
<path d="M-36.3044100575417,-19.106523158371562 L-40.57550951531849,-23.898028847876294 L-42.66835660668314,-26.389823739318697" fill-opacity="0" stroke="black" stroke-width="1" />
<path d="M-36.3044100575417,19.106523158371562 L-40.57550951531849,23.898028847876294 L-42.66835660668314,26.389823739318697" fill-opacity="0" stroke="black" stroke-width="1" />
<path d="M-40.57550951531849,-23.898028847876294 L-42.66835660668314,-26.389823739318697 L-44.622888795770024,-28.258894429074317" fill-opacity="0" stroke="black" stroke-width="1" />
<path d="M-40.57550951531849,23.898028847876294 L-42.66835660668314,26.389823739318697 L-44.622888795770024,28.258894429074317" fill-opacity="0" stroke="black" stroke-width="1" />
<path d="M-42.66835660668314,-26.389823739318697 L-44.622888795770024,-28.258894429074317 L-46.710835544123086,-30.663035247691745" fill-opacity="0" stroke="black" stroke-width="1" />
<path d="M-42.66835660668314,26.389823739318697 L-44.622888795770024,28.258894429074317 L-46.710835544123086,30.663035247691745" fill-opacity="0" stroke="black" stroke-width="1" />
<path d="M-44.622888795770024,-28.258894429074317 L-46.710835544123086,-30.663035247691745 L-50.0,-39.0" fill-opacity="0" stroke="black" stroke-width="1" />
<path d="M-44.622888795770024,28.258894429074317 L-46.710835544123086,30.663035247691745 L-50.0,39.0" fill-opacity="0" stroke="black" stroke-width="1" />
<path d="M-49.0,50.0 L-30.0,70.0 L-25.0,75.0" fill-opacity="0" stroke="black" stroke-width="1" />
<path d="M-49.0,-50.0 L-30.0,-70.0 L-25.0,-75.0" fill-opacity="0" stroke="black" stroke-width="1" />
<path d="M-25.0,75.0 L-24.0,76.0 L-19.0,81.0" fill-opacity="0" stroke="black" stroke-width="1" />
<path d="M-25.0,-75.0 L-24.0,-76.0 L-19.0,-81.0" fill-opacity="0" stroke="black" stroke-width="1" />
<path d="M-24.0,76.0 L-19.0,81.0 L-13.0,87.0" fill-opacity="0" stroke="black" stroke-width="1" />
<path d="M-24.0,-76.0 L-19.0,-81.0 L-13.0,-87.0" fill-opacity="0" stroke="black" stroke-width="1" />
<path d="M-19.0,81.0 L-13.0,87.0 L-3.0038425551495025,90.2868751050437" fill-opacity="0" stroke="black" stroke-width="1" />
<path d="M-19.0,-81.0 L-13.0,-87.0 L-3.0038425551495025,-90.2868751050437" fill-opacity="0" stroke="black" stroke-width="1" />
<path d="M-13.0,-13.0 L-9.713124894956298,-3.0038425551495025 L-7.0,-7.0" fill-opacity="0" stroke="black" stroke-width="1" />
<path d="M-13.0,13.0 L-9.713124894956298,3.0038425551495025 L-7.0,7.0" fill-opacity="0" stroke="black" stroke-width="1" />
<path d="M-7.0,-7.0 L-5.061290743471119,-1.3247085010439974 L0.0,-0.0" fill-opacity="0" stroke="black" stroke-width="1" />
<path d="M-7.0,7.0 L-5.061290743471119,1.3247085010439974 L0.0,-0.0" fill-opacity="0" stroke="black" stroke-width="1" />
<path d="M90.2868751050437,3.0038425551495025 L93.0,7.0 L94.93870925652888,1.3247085010439974" fill-opacity="0" stroke="black" stroke-width="1" />
<path d="M90.2868751050437,-3.0038425551495025 L93.0,-7.0 L94.93870925652888,-1.3247085010439974" fill-opacity="0" stroke="black" stroke-width="1" />
<path d="M93.0,-0.0 L80.1402292454051,3.070231899231868 L78.65027569935256,3.6745349041597986" fill-opacity="0" stroke="black" stroke-width="1" />
<path d="M93.0,-0.0 L80.1402292454051,-3.070231899231868 L78.65027569935256,-3.6745349041597986" fill-opacity="0" stroke="black" stroke-width="1" />
<path d="M80.1402292454051,3.070231899231868 L78.65027569935256,3.6745349041597986 L78.25038331756679,4.101379510775222" fill-opacity="0" stroke="black" stroke-width="1" />
<path d="M80.1402292454051,-3.070231899231868 L78.65027569935256,-3.6745349041597986 L78.25038331756679,-4.101379510775222" fill-opacity="0" stroke="black" stroke-width="1" />
<path d="M78.65027569935256,3.6745349041597986 L78.25038331756679,4.101379510775222 L78.0,-0.0" fill-opacity="0" stroke="black" stroke-width="1" />
<path d="M78.65027569935256,-3.6745349041597986 L78.25038331756679,-4.101379510775222 L78.0,-0.0" fill-opacity="0" stroke="black" stroke-width="1" />
<path d="M78.0,-0.0 L76.0442986487885,4.149651028558109 L75.39468326319356,6.6484745703755985" fill-opacity="0" stroke="black" stroke-width="1" />
<path d="M78.0,-0.0 L76.0442986487885,-4.149651028558109 L75.39468326319356,-6.6484745703755985" fill-opacity="0" stroke="black" stroke-width="1" />
<path d="M76.0442986487885,4.149651028558109 L75.39468326319356,6.6484745703755985 L75.0,-0.0" fill-opacity="0" stroke="black" stroke-width="1" />
<path d="M76.0442986487885,-4.149651028558109 L75.39468326319356,-6.6484745703755985 L75.0,-0.0" fill-opacity="0" stroke="black" stroke-width="1" />
<path d="M70.0,30.0 L75.0,25.0 L76.0,24.0" fill-opacity="0" stroke="black" stroke-width="1" />
<path d="M70.0,-30.0 L75.0,-25.0 L76.0,-24.0" fill-opacity="0" stroke="black" stroke-width="1" />
<path d="M72.0,-0.0 L71.37919149637726,9.848275643407433 L71.03502705121741,9.895708060024372" fill-opacity="0" stroke="black" stroke-width="1" />
<path d="M72.0,-0.0 L71.37919149637726,-9.848275643407433 L71.03502705121741,-9.895708060024372" fill-opacity="0" stroke="black" stroke-width="1" />
<path d="M71.37919149637726,9.848275643407433 L71.03502705121741,9.895708060024372 L69.20913481369809,10.900934424853121" fill-opacity="0" stroke="black" stroke-width="1" />
<path d="M71.37919149637726,-9.848275643407433 L71.03502705121741,-9.895708060024372 L69.20913481369809,-10.900934424853121" fill-opacity="0" stroke="black" stroke-width="1" />
<path d="M71.03502705121741,9.895708060024372 L69.20913481369809,10.900934424853121 L69.13996458464356,12.261618172441645" fill-opacity="0" stroke="black" stroke-width="1" />
<path d="M71.03502705121741,-9.895708060024372 L69.20913481369809,-10.900934424853121 L69.13996458464356,-12.261618172441645" fill-opacity="0" stroke="black" stroke-width="1" />
<path d="M69.20913481369809,10.900934424853121 L69.13996458464356,12.261618172441645 L67.61369973687499,15.651802166295997" fill-opacity="0" stroke="black" stroke-width="1" />
<path d="M69.20913481369809,-10.900934424853121 L69.13996458464356,-12.261618172441645 L67.61369973687499,-15.651802166295997" fill-opacity="0" stroke="black" stroke-width="1" />
<path d="M69.13996458464356,12.261618172441645 L67.61369973687499,15.651802166295997 L67.0,-0.0" fill-opacity="0" stroke="black" stroke-width="1" />
<path d="M69.13996458464356,-12.261618172441645 L67.61369973687499,-15.651802166295997 L67.0,-0.0" fill-opacity="0" stroke="black" stroke-width="1" />
<path d="M50.0,15.0 L64.91576309990985,16.51288519947575 L64.23022685850717,17.222650692596474" fill-opacity="0" stroke="black" stroke-width="1" />
<path d="M50.0,-15.0 L64.91576309990985,-16.51288519947575 L64.23022685850717,-17.222650692596474" fill-opacity="0" stroke="black" stroke-width="1" />
<path d="M64.91576309990985,16.51288519947575 L64.23022685850717,17.222650692596474 L50.0,19.0" fill-opacity="0" stroke="black" stroke-width="1" />
<path d="M64.91576309990985,-16.51288519947575 L64.23022685850717,-17.222650692596474 L50.0,-19.0" fill-opacity="0" stroke="black" stroke-width="1" />
<path d="M50.0,19.0 L63.6955899424583,19.106523158371562 L59.42449048468151,23.898028847876294" fill-opacity="0" stroke="black" stroke-width="1" />
<path d="M50.0,-19.0 L63.6955899424583,-19.106523158371562 L59.42449048468151,-23.898028847876294" fill-opacity="0" stroke="black" stroke-width="1" />
<path d="M63.6955899424583,19.106523158371562 L59.42449048468151,23.898028847876294 L57.33164339331686,26.389823739318697" fill-opacity="0" stroke="black" stroke-width="1" />
<path d="M63.6955899424583,-19.106523158371562 L59.42449048468151,-23.898028847876294 L57.33164339331686,-26.389823739318697" fill-opacity="0" stroke="black" stroke-width="1" />
<path d="M59.42449048468151,23.898028847876294 L57.33164339331686,26.389823739318697 L55.377111204229976,28.258894429074317" fill-opacity="0" stroke="black" stroke-width="1" />
<path d="M59.42449048468151,-23.898028847876294 L57.33164339331686,-26.389823739318697 L55.377111204229976,-28.258894429074317" fill-opacity="0" stroke="black" stroke-width="1" />
<path d="M57.33164339331686,26.389823739318697 L55.377111204229976,28.258894429074317 L53.289164455876914,30.663035247691745" fill-opacity="0" stroke="black" stroke-width="1" />
<path d="M57.33164339331686,-26.389823739318697 L55.377111204229976,-28.258894429074317 L53.289164455876914,-30.663035247691745" fill-opacity="0" stroke="black" stroke-width="1" />
<path d="M55.377111204229976,28.258894429074317 L53.289164455876914,30.663035247691745 L50.0,39.0" fill-opacity="0" stroke="black" stroke-width="1" />
<path d="M55.377111204229976,-28.258894429074317 L53.289164455876914,-30.663035247691745 L50.0,-39.0" fill-opacity="0" stroke="black" stroke-width="1" />
<path d="M50.0,49.0 L70.0,30.0 L75.0,25.0" fill-opacity="0" stroke="black" stroke-width="1" />
<path d="M50.0,-49.0 L70.0,-30.0 L75.0,-25.0" fill-opacity="0" stroke="black" stroke-width="1" />
<path d="M75.0,25.0 L76.0,24.0 L81.0,19.0" fill-opacity="0" stroke="black" stroke-width="1" />
<path d="M75.0,-25.0 L76.0,-24.0 L81.0,-19.0" fill-opacity="0" stroke="black" stroke-width="1" />
<path d="M76.0,24.0 L81.0,19.0 L87.0,13.0" fill-opacity="0" stroke="black" stroke-width="1" />
<path d="M76.0,-24.0 L81.0,-19.0 L87.0,-13.0" fill-opacity="0" stroke="black" stroke-width="1" />
<path d="M81.0,19.0 L87.0,13.0 L90.2868751050437,3.0038425551495025" fill-opacity="0" stroke="black" stroke-width="1" />
<path d="M81.0,-19.0 L87.0,-13.0 L90.2868751050437,-3.0038425551495025" fill-opacity="0" stroke="black" stroke-width="1" />
<path d="M87.0,13.0 L90.2868751050437,3.0038425551495025 L93.0,7.0" fill-opacity="0" stroke="black" stroke-width="1" />
<path d="M87.0,-13.0 L90.2868751050437,-3.0038425551495025 L93.0,-7.0" fill-opacity="0" stroke="black" stroke-width="1" />
<path d="M93.0,7.0 L94.93870925652888,1.3247085010439974 L100.0,-0.0" fill-opacity="0" stroke="black" stroke-width="1" />
<path d="M93.0,-7.0 L94.93870925652888,-1.3247085010439974 L100.0,-0.0" fill-opacity="0" stroke="black" stroke-width="1" />
<path d="M0.0,-7.0 L3.070231899231868,-19.85977075459491 L3.6745349041597986,-21.349724300647438" fill-opacity="0" stroke="black" stroke-width="1" />
<path d="M0.0,7.0 L3.070231899231868,19.85977075459491 L3.6745349041597986,21.349724300647438" fill-opacity="0" stroke="black" stroke-width="1" />
<path d="M0.0,93.0 L3.070231899231868,80.1402292454051 L3.6745349041597986,78.65027569935256" fill-opacity="0" stroke="black" stroke-width="1" />
<path d="M0.0,-93.0 L3.070231899231868,-80.1402292454051 L3.6745349041597986,-78.65027569935256" fill-opacity="0" stroke="black" stroke-width="1" />
<path d="M3.070231899231868,-19.85977075459491 L3.6745349041597986,-21.349724300647438 L4.101379510775222,-21.74961668243322" fill-opacity="0" stroke="black" stroke-width="1" />
<path d="M3.070231899231868,19.85977075459491 L3.6745349041597986,21.349724300647438 L4.101379510775222,21.74961668243322" fill-opacity="0" stroke="black" stroke-width="1" />
<path d="M3.070231899231868,80.1402292454051 L3.6745349041597986,78.65027569935256 L4.101379510775222,78.25038331756679" fill-opacity="0" stroke="black" stroke-width="1" />
<path d="M3.070231899231868,-80.1402292454051 L3.6745349041597986,-78.65027569935256 L4.101379510775222,-78.25038331756679" fill-opacity="0" stroke="black" stroke-width="1" />
<path d="M3.6745349041597986,-21.349724300647438 L4.101379510775222,-21.74961668243322 L0.0,-22.0" fill-opacity="0" stroke="black" stroke-width="1" />
<path d="M3.6745349041597986,21.349724300647438 L4.101379510775222,21.74961668243322 L0.0,22.0" fill-opacity="0" stroke="black" stroke-width="1" />
<path d="M3.6745349041597986,78.65027569935256 L4.101379510775222,78.25038331756679 L0.0,78.0" fill-opacity="0" stroke="black" stroke-width="1" />
<path d="M3.6745349041597986,-78.65027569935256 L4.101379510775222,-78.25038331756679 L0.0,-78.0" fill-opacity="0" stroke="black" stroke-width="1" />
<path d="M0.0,-22.0 L4.149651028558109,-23.955701351211506 L6.6484745703755985,-24.605316736806444" fill-opacity="0" stroke="black" stroke-width="1" />
<path d="M0.0,22.0 L4.149651028558109,23.955701351211506 L6.6484745703755985,24.605316736806444" fill-opacity="0" stroke="black" stroke-width="1" />
<path d="M0.0,78.0 L4.149651028558109,76.0442986487885 L6.6484745703755985,75.39468326319356" fill-opacity="0" stroke="black" stroke-width="1" />
<path d="M0.0,-78.0 L4.149651028558109,-76.0442986487885 L6.6484745703755985,-75.39468326319356" fill-opacity="0" stroke="black" stroke-width="1" />
<path d="M4.149651028558109,-23.955701351211506 L6.6484745703755985,-24.605316736806444 L0.0,-25.0" fill-opacity="0" stroke="black" stroke-width="1" />
<path d="M4.149651028558109,23.955701351211506 L6.6484745703755985,24.605316736806444 L0.0,25.0" fill-opacity="0" stroke="black" stroke-width="1" />
<path d="M4.149651028558109,76.0442986487885 L6.6484745703755985,75.39468326319356 L0.0,75.0" fill-opacity="0" stroke="black" stroke-width="1" />
<path d="M4.149651028558109,-76.0442986487885 L6.6484745703755985,-75.39468326319356 L0.0,-75.0" fill-opacity="0" stroke="black" stroke-width="1" />
<path d="M0.0,-28.0 L9.848275643407433,-28.620808503622737 L9.895708060024372,-28.96497294878259" fill-opacity="0" stroke="black" stroke-width="1" />
<path d="M0.0,28.0 L9.848275643407433,28.620808503622737 L9.895708060024372,28.96497294878259" fill-opacity="0" stroke="black" stroke-width="1" />
<path d="M0.0,72.0 L9.848275643407433,71.37919149637726 L9.895708060024372,71.03502705121741" fill-opacity="0" stroke="black" stroke-width="1" />
<path d="M0.0,-72.0 L9.848275643407433,-71.37919149637726 L9.895708060024372,-71.03502705121741" fill-opacity="0" stroke="black" stroke-width="1" />
<path d="M9.848275643407433,-28.620808503622737 L9.895708060024372,-28.96497294878259 L10.900934424853121,-30.790865186301914" fill-opacity="0" stroke="black" stroke-width="1" />
<path d="M9.848275643407433,28.620808503622737 L9.895708060024372,28.96497294878259 L10.900934424853121,30.790865186301914" fill-opacity="0" stroke="black" stroke-width="1" />
<path d="M9.848275643407433,71.37919149637726 L9.895708060024372,71.03502705121741 L10.900934424853121,69.20913481369809" fill-opacity="0" stroke="black" stroke-width="1" />
<path d="M9.848275643407433,-71.37919149637726 L9.895708060024372,-71.03502705121741 L10.900934424853121,-69.20913481369809" fill-opacity="0" stroke="black" stroke-width="1" />
<path d="M9.895708060024372,-28.96497294878259 L10.900934424853121,-30.790865186301914 L12.261618172441645,-30.860035415356442" fill-opacity="0" stroke="black" stroke-width="1" />
<path d="M9.895708060024372,28.96497294878259 L10.900934424853121,30.790865186301914 L12.261618172441645,30.860035415356442" fill-opacity="0" stroke="black" stroke-width="1" />
<path d="M9.895708060024372,71.03502705121741 L10.900934424853121,69.20913481369809 L12.261618172441645,69.13996458464356" fill-opacity="0" stroke="black" stroke-width="1" />
<path d="M9.895708060024372,-71.03502705121741 L10.900934424853121,-69.20913481369809 L12.261618172441645,-69.13996458464356" fill-opacity="0" stroke="black" stroke-width="1" />
<path d="M10.900934424853121,-30.790865186301914 L12.261618172441645,-30.860035415356442 L15.651802166295997,-32.386300263125" fill-opacity="0" stroke="black" stroke-width="1" />
<path d="M10.900934424853121,30.790865186301914 L12.261618172441645,30.860035415356442 L15.651802166295997,32.386300263125" fill-opacity="0" stroke="black" stroke-width="1" />
<path d="M10.900934424853121,69.20913481369809 L12.261618172441645,69.13996458464356 L15.651802166295997,67.61369973687499" fill-opacity="0" stroke="black" stroke-width="1" />
<path d="M10.900934424853121,-69.20913481369809 L12.261618172441645,-69.13996458464356 L15.651802166295997,-67.61369973687499" fill-opacity="0" stroke="black" stroke-width="1" />
<path d="M12.261618172441645,-30.860035415356442 L15.651802166295997,-32.386300263125 L0.0,-33.0" fill-opacity="0" stroke="black" stroke-width="1" />
<path d="M12.261618172441645,30.860035415356442 L15.651802166295997,32.386300263125 L0.0,33.0" fill-opacity="0" stroke="black" stroke-width="1" />
<path d="M12.261618172441645,69.13996458464356 L15.651802166295997,67.61369973687499 L0.0,67.0" fill-opacity="0" stroke="black" stroke-width="1" />
<path d="M12.261618172441645,-69.13996458464356 L15.651802166295997,-67.61369973687499 L0.0,-67.0" fill-opacity="0" stroke="black" stroke-width="1" />
<path d="M15.0,-50.0 L16.51288519947575,-35.08423690009015 L17.222650692596474,-35.76977314149284" fill-opacity="0" stroke="black" stroke-width="1" />
<path d="M15.0,50.0 L16.51288519947575,35.08423690009015 L17.222650692596474,35.76977314149284" fill-opacity="0" stroke="black" stroke-width="1" />
<path d="M15.0,50.0 L16.51288519947575,64.91576309990985 L17.222650692596474,64.23022685850717" fill-opacity="0" stroke="black" stroke-width="1" />
<path d="M15.0,-50.0 L16.51288519947575,-64.91576309990985 L17.222650692596474,-64.23022685850717" fill-opacity="0" stroke="black" stroke-width="1" />
<path d="M16.51288519947575,-35.08423690009015 L17.222650692596474,-35.76977314149284 L19.0,-50.0" fill-opacity="0" stroke="black" stroke-width="1" />
<path d="M16.51288519947575,35.08423690009015 L17.222650692596474,35.76977314149284 L19.0,50.0" fill-opacity="0" stroke="black" stroke-width="1" />
<path d="M16.51288519947575,64.91576309990985 L17.222650692596474,64.23022685850717 L19.0,50.0" fill-opacity="0" stroke="black" stroke-width="1" />
<path d="M16.51288519947575,-64.91576309990985 L17.222650692596474,-64.23022685850717 L19.0,-50.0" fill-opacity="0" stroke="black" stroke-width="1" />
<path d="M19.0,-50.0 L19.106523158371562,-36.3044100575417 L23.898028847876294,-40.57550951531849" fill-opacity="0" stroke="black" stroke-width="1" />
<path d="M19.0,50.0 L19.106523158371562,36.3044100575417 L23.898028847876294,40.57550951531849" fill-opacity="0" stroke="black" stroke-width="1" />
<path d="M19.0,50.0 L19.106523158371562,63.6955899424583 L23.898028847876294,59.42449048468151" fill-opacity="0" stroke="black" stroke-width="1" />
<path d="M19.0,-50.0 L19.106523158371562,-63.6955899424583 L23.898028847876294,-59.42449048468151" fill-opacity="0" stroke="black" stroke-width="1" />
<path d="M19.106523158371562,-36.3044100575417 L23.898028847876294,-40.57550951531849 L26.389823739318697,-42.66835660668314" fill-opacity="0" stroke="black" stroke-width="1" />
<path d="M19.106523158371562,36.3044100575417 L23.898028847876294,40.57550951531849 L26.389823739318697,42.66835660668314" fill-opacity="0" stroke="black" stroke-width="1" />
<path d="M19.106523158371562,63.6955899424583 L23.898028847876294,59.42449048468151 L26.389823739318697,57.33164339331686" fill-opacity="0" stroke="black" stroke-width="1" />
<path d="M19.106523158371562,-63.6955899424583 L23.898028847876294,-59.42449048468151 L26.389823739318697,-57.33164339331686" fill-opacity="0" stroke="black" stroke-width="1" />
<path d="M23.898028847876294,-40.57550951531849 L26.389823739318697,-42.66835660668314 L28.258894429074317,-44.622888795770024" fill-opacity="0" stroke="black" stroke-width="1" />
<path d="M23.898028847876294,40.57550951531849 L26.389823739318697,42.66835660668314 L28.258894429074317,44.622888795770024" fill-opacity="0" stroke="black" stroke-width="1" />
<path d="M23.898028847876294,59.42449048468151 L26.389823739318697,57.33164339331686 L28.258894429074317,55.377111204229976" fill-opacity="0" stroke="black" stroke-width="1" />
<path d="M23.898028847876294,-59.42449048468151 L26.389823739318697,-57.33164339331686 L28.258894429074317,-55.377111204229976" fill-opacity="0" stroke="black" stroke-width="1" />
<path d="M26.389823739318697,-42.66835660668314 L28.258894429074317,-44.622888795770024 L30.663035247691745,-46.710835544123086" fill-opacity="0" stroke="black" stroke-width="1" />
<path d="M26.389823739318697,42.66835660668314 L28.258894429074317,44.622888795770024 L30.663035247691745,46.710835544123086" fill-opacity="0" stroke="black" stroke-width="1" />
<path d="M26.389823739318697,57.33164339331686 L28.258894429074317,55.377111204229976 L30.663035247691745,53.289164455876914" fill-opacity="0" stroke="black" stroke-width="1" />
<path d="M26.389823739318697,-57.33164339331686 L28.258894429074317,-55.377111204229976 L30.663035247691745,-53.289164455876914" fill-opacity="0" stroke="black" stroke-width="1" />
<path d="M28.258894429074317,-44.622888795770024 L30.663035247691745,-46.710835544123086 L39.0,-50.0" fill-opacity="0" stroke="black" stroke-width="1" />
<path d="M28.258894429074317,44.622888795770024 L30.663035247691745,46.710835544123086 L39.0,50.0" fill-opacity="0" stroke="black" stroke-width="1" />
<path d="M28.258894429074317,55.377111204229976 L30.663035247691745,53.289164455876914 L39.0,50.0" fill-opacity="0" stroke="black" stroke-width="1" />
<path d="M28.258894429074317,-55.377111204229976 L30.663035247691745,-53.289164455876914 L39.0,-50.0" fill-opacity="0" stroke="black" stroke-width="1" />
<path d="M13.0,-13.0 L3.0038425551495025,-9.713124894956298 L7.0,-7.0" fill-opacity="0" stroke="black" stroke-width="1" />
<path d="M13.0,13.0 L3.0038425551495025,9.713124894956298 L7.0,7.0" fill-opacity="0" stroke="black" stroke-width="1" />
<path d="M13.0,87.0 L3.0038425551495025,90.2868751050437 L7.0,93.0" fill-opacity="0" stroke="black" stroke-width="1" />
<path d="M13.0,-87.0 L3.0038425551495025,-90.2868751050437 L7.0,-93.0" fill-opacity="0" stroke="black" stroke-width="1" />
<path d="M7.0,-7.0 L1.3247085010439974,-5.061290743471119 L0.0,-0.0" fill-opacity="0" stroke="black" stroke-width="1" />
<path d="M7.0,7.0 L1.3247085010439974,5.061290743471119 L0.0,-0.0" fill-opacity="0" stroke="black" stroke-width="1" />
<path d="M7.0,93.0 L1.3247085010439974,94.93870925652888 L0.0,100.0" fill-opacity="0" stroke="black" stroke-width="1" />
<path d="M7.0,-93.0 L1.3247085010439974,-94.93870925652888 L0.0,-100.0" fill-opacity="0" stroke="black" stroke-width="1" />
<path d="M0.0,93.0 L-3.070231899231868,80.1402292454051 L-3.6745349041597986,78.65027569935256" fill-opacity="0" stroke="black" stroke-width="1" />
<path d="M0.0,-7.0 L-3.070231899231868,-19.85977075459491 L-3.6745349041597986,-21.349724300647438" fill-opacity="0" stroke="black" stroke-width="1" />
<path d="M0.0,7.0 L-3.070231899231868,19.859770754594905 L-3.6745349041597986,21.349724300647438" fill-opacity="0" stroke="black" stroke-width="1" />
<path d="M0.0,-93.0 L-3.070231899231868,-80.1402292454051 L-3.6745349041597986,-78.65027569935256" fill-opacity="0" stroke="black" stroke-width="1" />
<path d="M-3.070231899231868,80.1402292454051 L-3.6745349041597986,78.65027569935256 L-4.101379510775222,78.25038331756679" fill-opacity="0" stroke="black" stroke-width="1" />
<path d="M-3.070231899231868,-19.85977075459491 L-3.6745349041597986,-21.349724300647438 L-4.101379510775222,-21.74961668243322" fill-opacity="0" stroke="black" stroke-width="1" />
<path d="M-3.070231899231868,19.859770754594905 L-3.6745349041597986,21.349724300647438 L-4.101379510775222,21.749616682433214" fill-opacity="0" stroke="black" stroke-width="1" />
<path d="M-3.070231899231868,-80.1402292454051 L-3.6745349041597986,-78.65027569935256 L-4.101379510775222,-78.25038331756679" fill-opacity="0" stroke="black" stroke-width="1" />
<path d="M-3.6745349041597986,78.65027569935256 L-4.101379510775222,78.25038331756679 L0.0,78.0" fill-opacity="0" stroke="black" stroke-width="1" />
<path d="M-3.6745349041597986,-21.349724300647438 L-4.101379510775222,-21.74961668243322 L0.0,-22.0" fill-opacity="0" stroke="black" stroke-width="1" />
<path d="M-3.6745349041597986,21.349724300647438 L-4.101379510775222,21.749616682433214 L0.0,22.0" fill-opacity="0" stroke="black" stroke-width="1" />
<path d="M-3.6745349041597986,-78.65027569935256 L-4.101379510775222,-78.25038331756679 L0.0,-78.0" fill-opacity="0" stroke="black" stroke-width="1" />
<path d="M0.0,78.0 L-4.149651028558109,76.0442986487885 L-6.6484745703755985,75.39468326319356" fill-opacity="0" stroke="black" stroke-width="1" />
<path d="M0.0,-22.0 L-4.149651028558109,-23.955701351211506 L-6.6484745703755985,-24.605316736806444" fill-opacity="0" stroke="black" stroke-width="1" />
<path d="M0.0,22.0 L-4.149651028558109,23.955701351211502 L-6.6484745703755985,24.605316736806444" fill-opacity="0" stroke="black" stroke-width="1" />
<path d="M0.0,-78.0 L-4.149651028558109,-76.0442986487885 L-6.6484745703755985,-75.39468326319356" fill-opacity="0" stroke="black" stroke-width="1" />
<path d="M-4.149651028558109,76.0442986487885 L-6.6484745703755985,75.39468326319356 L0.0,75.0" fill-opacity="0" stroke="black" stroke-width="1" />
<path d="M-4.149651028558109,-23.955701351211506 L-6.6484745703755985,-24.605316736806444 L0.0,-25.0" fill-opacity="0" stroke="black" stroke-width="1" />
<path d="M-4.149651028558109,23.955701351211502 L-6.6484745703755985,24.605316736806444 L0.0,25.0" fill-opacity="0" stroke="black" stroke-width="1" />
<path d="M-4.149651028558109,-76.0442986487885 L-6.6484745703755985,-75.39468326319356 L0.0,-75.0" fill-opacity="0" stroke="black" stroke-width="1" />
<path d="M0.0,72.0 L-9.848275643407433,71.37919149637726 L-9.895708060024372,71.03502705121741" fill-opacity="0" stroke="black" stroke-width="1" />
<path d="M0.0,-28.0 L-9.848275643407433,-28.620808503622737 L-9.895708060024372,-28.96497294878259" fill-opacity="0" stroke="black" stroke-width="1" />
<path d="M0.0,28.0 L-9.848275643407433,28.62080850362274 L-9.895708060024372,28.964972948782588" fill-opacity="0" stroke="black" stroke-width="1" />
<path d="M0.0,-72.0 L-9.848275643407433,-71.37919149637726 L-9.895708060024372,-71.03502705121741" fill-opacity="0" stroke="black" stroke-width="1" />
<path d="M-9.848275643407433,71.37919149637726 L-9.895708060024372,71.03502705121741 L-10.900934424853121,69.20913481369809" fill-opacity="0" stroke="black" stroke-width="1" />
<path d="M-9.848275643407433,-28.620808503622737 L-9.895708060024372,-28.96497294878259 L-10.900934424853121,-30.790865186301914" fill-opacity="0" stroke="black" stroke-width="1" />
<path d="M-9.848275643407433,28.62080850362274 L-9.895708060024372,28.964972948782588 L-10.900934424853121,30.790865186301914" fill-opacity="0" stroke="black" stroke-width="1" />
<path d="M-9.848275643407433,-71.37919149637726 L-9.895708060024372,-71.03502705121741 L-10.900934424853121,-69.20913481369809" fill-opacity="0" stroke="black" stroke-width="1" />
<path d="M-9.895708060024372,71.03502705121741 L-10.900934424853121,69.20913481369809 L-12.261618172441645,69.13996458464356" fill-opacity="0" stroke="black" stroke-width="1" />
<path d="M-9.895708060024372,-28.96497294878259 L-10.900934424853121,-30.790865186301914 L-12.261618172441645,-30.860035415356442" fill-opacity="0" stroke="black" stroke-width="1" />
<path d="M-9.895708060024372,28.964972948782588 L-10.900934424853121,30.790865186301914 L-12.261618172441645,30.860035415356435" fill-opacity="0" stroke="black" stroke-width="1" />
<path d="M-9.895708060024372,-71.03502705121741 L-10.900934424853121,-69.20913481369809 L-12.261618172441645,-69.13996458464356" fill-opacity="0" stroke="black" stroke-width="1" />
<path d="M-10.900934424853121,69.20913481369809 L-12.261618172441645,69.13996458464356 L-15.651802166295997,67.61369973687499" fill-opacity="0" stroke="black" stroke-width="1" />
<path d="M-10.900934424853121,-30.790865186301914 L-12.261618172441645,-30.860035415356442 L-15.651802166295997,-32.386300263125" fill-opacity="0" stroke="black" stroke-width="1" />
<path d="M-10.900934424853121,30.790865186301914 L-12.261618172441645,30.860035415356435 L-15.651802166295997,32.38630026312501" fill-opacity="0" stroke="black" stroke-width="1" />
<path d="M-10.900934424853121,-69.20913481369809 L-12.261618172441645,-69.13996458464356 L-15.651802166295997,-67.61369973687499" fill-opacity="0" stroke="black" stroke-width="1" />
<path d="M-12.261618172441645,69.13996458464356 L-15.651802166295997,67.61369973687499 L0.0,67.0" fill-opacity="0" stroke="black" stroke-width="1" />
<path d="M-12.261618172441645,-30.860035415356442 L-15.651802166295997,-32.386300263125 L0.0,-33.0" fill-opacity="0" stroke="black" stroke-width="1" />
<path d="M-12.261618172441645,30.860035415356435 L-15.651802166295997,32.38630026312501 L0.0,33.0" fill-opacity="0" stroke="black" stroke-width="1" />
<path d="M-12.261618172441645,-69.13996458464356 L-15.651802166295997,-67.61369973687499 L0.0,-67.0" fill-opacity="0" stroke="black" stroke-width="1" />
<path d="M-15.0,50.0 L-16.51288519947575,64.91576309990985 L-17.222650692596474,64.23022685850717" fill-opacity="0" stroke="black" stroke-width="1" />
<path d="M-15.0,-50.0 L-16.51288519947575,-35.08423690009015 L-17.222650692596474,-35.76977314149284" fill-opacity="0" stroke="black" stroke-width="1" />
<path d="M-15.0,50.0 L-16.51288519947575,35.08423690009015 L-17.222650692596474,35.769773141492834" fill-opacity="0" stroke="black" stroke-width="1" />
<path d="M-15.0,-50.0 L-16.51288519947575,-64.91576309990985 L-17.222650692596474,-64.23022685850717" fill-opacity="0" stroke="black" stroke-width="1" />
<path d="M-16.51288519947575,64.91576309990985 L-17.222650692596474,64.23022685850717 L-19.0,50.0" fill-opacity="0" stroke="black" stroke-width="1" />
<path d="M-16.51288519947575,-35.08423690009015 L-17.222650692596474,-35.76977314149284 L-19.0,-50.0" fill-opacity="0" stroke="black" stroke-width="1" />
<path d="M-16.51288519947575,35.08423690009015 L-17.222650692596474,35.769773141492834 L-19.0,50.0" fill-opacity="0" stroke="black" stroke-width="1" />
<path d="M-16.51288519947575,-64.91576309990985 L-17.222650692596474,-64.23022685850717 L-19.0,-50.0" fill-opacity="0" stroke="black" stroke-width="1" />
<path d="M-19.0,50.0 L-19.106523158371562,63.6955899424583 L-23.898028847876294,59.42449048468151" fill-opacity="0" stroke="black" stroke-width="1" />
<path d="M-19.0,-50.0 L-19.106523158371562,-36.3044100575417 L-23.898028847876294,-40.57550951531849" fill-opacity="0" stroke="black" stroke-width="1" />
<path d="M-19.0,50.0 L-19.106523158371562,36.3044100575417 L-23.898028847876294,40.57550951531849" fill-opacity="0" stroke="black" stroke-width="1" />
<path d="M-19.0,-50.0 L-19.106523158371562,-63.6955899424583 L-23.898028847876294,-59.42449048468151" fill-opacity="0" stroke="black" stroke-width="1" />
<path d="M-19.106523158371562,63.6955899424583 L-23.898028847876294,59.42449048468151 L-26.389823739318697,57.33164339331686" fill-opacity="0" stroke="black" stroke-width="1" />
<path d="M-19.106523158371562,-36.3044100575417 L-23.898028847876294,-40.57550951531849 L-26.389823739318697,-42.66835660668314" fill-opacity="0" stroke="black" stroke-width="1" />
<path d="M-19.106523158371562,36.3044100575417 L-23.898028847876294,40.57550951531849 L-26.389823739318697,42.66835660668314" fill-opacity="0" stroke="black" stroke-width="1" />
<path d="M-19.106523158371562,-63.6955899424583 L-23.898028847876294,-59.42449048468151 L-26.389823739318697,-57.33164339331686" fill-opacity="0" stroke="black" stroke-width="1" />
<path d="M-23.898028847876294,59.42449048468151 L-26.389823739318697,57.33164339331686 L-28.258894429074317,55.377111204229976" fill-opacity="0" stroke="black" stroke-width="1" />
<path d="M-23.898028847876294,-40.57550951531849 L-26.389823739318697,-42.66835660668314 L-28.258894429074317,-44.622888795770024" fill-opacity="0" stroke="black" stroke-width="1" />
<path d="M-23.898028847876294,40.57550951531849 L-26.389823739318697,42.66835660668314 L-28.258894429074317,44.622888795770024" fill-opacity="0" stroke="black" stroke-width="1" />
<path d="M-23.898028847876294,-59.42449048468151 L-26.389823739318697,-57.33164339331686 L-28.258894429074317,-55.377111204229976" fill-opacity="0" stroke="black" stroke-width="1" />
<path d="M-26.389823739318697,57.33164339331686 L-28.258894429074317,55.377111204229976 L-30.663035247691745,53.289164455876914" fill-opacity="0" stroke="black" stroke-width="1" />
<path d="M-26.389823739318697,-42.66835660668314 L-28.258894429074317,-44.622888795770024 L-30.663035247691745,-46.710835544123086" fill-opacity="0" stroke="black" stroke-width="1" />
<path d="M-26.389823739318697,42.66835660668314 L-28.258894429074317,44.622888795770024 L-30.663035247691745,46.710835544123086" fill-opacity="0" stroke="black" stroke-width="1" />
<path d="M-26.389823739318697,-57.33164339331686 L-28.258894429074317,-55.377111204229976 L-30.663035247691745,-53.289164455876914" fill-opacity="0" stroke="black" stroke-width="1" />
<path d="M-28.258894429074317,55.377111204229976 L-30.663035247691745,53.289164455876914 L-39.0,50.0" fill-opacity="0" stroke="black" stroke-width="1" />
<path d="M-28.258894429074317,-44.622888795770024 L-30.663035247691745,-46.710835544123086 L-39.0,-50.0" fill-opacity="0" stroke="black" stroke-width="1" />
<path d="M-28.258894429074317,44.622888795770024 L-30.663035247691745,46.710835544123086 L-39.0,50.0" fill-opacity="0" stroke="black" stroke-width="1" />
<path d="M-28.258894429074317,-55.377111204229976 L-30.663035247691745,-53.289164455876914 L-39.0,-50.0" fill-opacity="0" stroke="black" stroke-width="1" />
<path d="M-13.0,87.0 L-3.0038425551495025,90.2868751050437 L-7.0,93.0" fill-opacity="0" stroke="black" stroke-width="1" />
<path d="M-13.0,-13.0 L-3.0038425551495025,-9.713124894956298 L-7.0,-7.0" fill-opacity="0" stroke="black" stroke-width="1" />
<path d="M-13.0,13.0 L-3.0038425551495025,9.713124894956294 L-7.0,7.0" fill-opacity="0" stroke="black" stroke-width="1" />
<path d="M-13.0,-87.0 L-3.0038425551495025,-90.2868751050437 L-7.0,-93.0" fill-opacity="0" stroke="black" stroke-width="1" />
<path d="M-7.0,93.0 L-1.3247085010439974,94.93870925652888 L0.0,100.0" fill-opacity="0" stroke="black" stroke-width="1" />
<path d="M-7.0,-7.0 L-1.3247085010439974,-5.061290743471119 L0.0,-0.0" fill-opacity="0" stroke="black" stroke-width="1" />
<path d="M-7.0,7.0 L-1.3247085010439974,5.061290743471119 L0.0,-0.0" fill-opacity="0" stroke="black" stroke-width="1" />
<path d="M-7.0,-93.0 L-1.3247085010439974,-94.93870925652888 L0.0,-100.0" fill-opacity="0" stroke="black" stroke-width="1" />
<path d="M-90.2868751050437,-3.0038425551495025 L-93.0,-7.0 L-94.93870925652888,-1.3247085010439974" fill-opacity="0" stroke="black" stroke-width="1" />
<path d="M-90.2868751050437,3.0038425551495025 L-93.0,7.0 L-94.93870925652888,1.3247085010439974" fill-opacity="0" stroke="black" stroke-width="1" />
<path d="M-93.0,-0.0 L-80.1402292454051,-3.070231899231868 L-78.65027569935256,-3.6745349041597986" fill-opacity="0" stroke="black" stroke-width="1" />
<path d="M-93.0,-0.0 L-80.1402292454051,3.070231899231868 L-78.65027569935256,3.6745349041597986" fill-opacity="0" stroke="black" stroke-width="1" />
<path d="M-80.1402292454051,-3.070231899231868 L-78.65027569935256,-3.6745349041597986 L-78.25038331756679,-4.101379510775222" fill-opacity="0" stroke="black" stroke-width="1" />
<path d="M-80.1402292454051,3.070231899231868 L-78.65027569935256,3.6745349041597986 L-78.25038331756679,4.101379510775222" fill-opacity="0" stroke="black" stroke-width="1" />
<path d="M-78.65027569935256,-3.6745349041597986 L-78.25038331756679,-4.101379510775222 L-78.0,-0.0" fill-opacity="0" stroke="black" stroke-width="1" />
<path d="M-78.65027569935256,3.6745349041597986 L-78.25038331756679,4.101379510775222 L-78.0,-0.0" fill-opacity="0" stroke="black" stroke-width="1" />
<path d="M-78.0,-0.0 L-76.0442986487885,-4.149651028558109 L-75.39468326319356,-6.6484745703755985" fill-opacity="0" stroke="black" stroke-width="1" />
<path d="M-78.0,-0.0 L-76.0442986487885,4.149651028558109 L-75.39468326319356,6.6484745703755985" fill-opacity="0" stroke="black" stroke-width="1" />
<path d="M-76.0442986487885,-4.149651028558109 L-75.39468326319356,-6.6484745703755985 L-75.0,-0.0" fill-opacity="0" stroke="black" stroke-width="1" />
<path d="M-76.0442986487885,4.149651028558109 L-75.39468326319356,6.6484745703755985 L-75.0,-0.0" fill-opacity="0" stroke="black" stroke-width="1" />
<path d="M-70.0,-30.0 L-75.0,-25.0 L-76.0,-24.0" fill-opacity="0" stroke="black" stroke-width="1" />
<path d="M-70.0,30.0 L-75.0,25.0 L-76.0,24.0" fill-opacity="0" stroke="black" stroke-width="1" />
<path d="M-72.0,-0.0 L-71.37919149637726,-9.848275643407433 L-71.03502705121741,-9.895708060024372" fill-opacity="0" stroke="black" stroke-width="1" />
<path d="M-72.0,-0.0 L-71.37919149637726,9.848275643407433 L-71.03502705121741,9.895708060024372" fill-opacity="0" stroke="black" stroke-width="1" />
<path d="M-71.37919149637726,-9.848275643407433 L-71.03502705121741,-9.895708060024372 L-69.20913481369809,-10.900934424853121" fill-opacity="0" stroke="black" stroke-width="1" />
<path d="M-71.37919149637726,9.848275643407433 L-71.03502705121741,9.895708060024372 L-69.20913481369809,10.900934424853121" fill-opacity="0" stroke="black" stroke-width="1" />
<path d="M-71.03502705121741,-9.895708060024372 L-69.20913481369809,-10.900934424853121 L-69.13996458464356,-12.261618172441645" fill-opacity="0" stroke="black" stroke-width="1" />
<path d="M-71.03502705121741,9.895708060024372 L-69.20913481369809,10.900934424853121 L-69.13996458464356,12.261618172441645" fill-opacity="0" stroke="black" stroke-width="1" />
<path d="M-69.20913481369809,-10.900934424853121 L-69.13996458464356,-12.261618172441645 L-67.61369973687499,-15.651802166295997" fill-opacity="0" stroke="black" stroke-width="1" />
<path d="M-69.20913481369809,10.900934424853121 L-69.13996458464356,12.261618172441645 L-67.61369973687499,15.651802166295997" fill-opacity="0" stroke="black" stroke-width="1" />
<path d="M-69.13996458464356,-12.261618172441645 L-67.61369973687499,-15.651802166295997 L-67.0,-0.0" fill-opacity="0" stroke="black" stroke-width="1" />
<path d="M-69.13996458464356,12.261618172441645 L-67.61369973687499,15.651802166295997 L-67.0,-0.0" fill-opacity="0" stroke="black" stroke-width="1" />
<path d="M-50.0,-15.0 L-64.91576309990985,-16.51288519947575 L-64.23022685850717,-17.222650692596474" fill-opacity="0" stroke="black" stroke-width="1" />
<path d="M-50.0,15.0 L-64.91576309990985,16.51288519947575 L-64.23022685850717,17.222650692596474" fill-opacity="0" stroke="black" stroke-width="1" />
<path d="M-64.91576309990985,-16.51288519947575 L-64.23022685850717,-17.222650692596474 L-50.0,-19.0" fill-opacity="0" stroke="black" stroke-width="1" />
<path d="M-64.91576309990985,16.51288519947575 L-64.23022685850717,17.222650692596474 L-50.0,19.0" fill-opacity="0" stroke="black" stroke-width="1" />
<path d="M-50.0,-19.0 L-63.6955899424583,-19.106523158371562 L-59.42449048468151,-23.898028847876294" fill-opacity="0" stroke="black" stroke-width="1" />
<path d="M-50.0,19.0 L-63.6955899424583,19.106523158371562 L-59.42449048468151,23.898028847876294" fill-opacity="0" stroke="black" stroke-width="1" />
<path d="M-63.6955899424583,-19.106523158371562 L-59.42449048468151,-23.898028847876294 L-57.33164339331686,-26.389823739318697" fill-opacity="0" stroke="black" stroke-width="1" />
<path d="M-63.6955899424583,19.106523158371562 L-59.42449048468151,23.898028847876294 L-57.33164339331686,26.389823739318697" fill-opacity="0" stroke="black" stroke-width="1" />
<path d="M-59.42449048468151,-23.898028847876294 L-57.33164339331686,-26.389823739318697 L-55.377111204229976,-28.258894429074317" fill-opacity="0" stroke="black" stroke-width="1" />
<path d="M-59.42449048468151,23.898028847876294 L-57.33164339331686,26.389823739318697 L-55.377111204229976,28.258894429074317" fill-opacity="0" stroke="black" stroke-width="1" />
<path d="M-57.33164339331686,-26.389823739318697 L-55.377111204229976,-28.258894429074317 L-53.289164455876914,-30.663035247691745" fill-opacity="0" stroke="black" stroke-width="1" />
<path d="M-57.33164339331686,26.389823739318697 L-55.377111204229976,28.258894429074317 L-53.289164455876914,30.663035247691745" fill-opacity="0" stroke="black" stroke-width="1" />
<path d="M-55.377111204229976,-28.258894429074317 L-53.289164455876914,-30.663035247691745 L-50.0,-39.0" fill-opacity="0" stroke="black" stroke-width="1" />
<path d="M-55.377111204229976,28.258894429074317 L-53.289164455876914,30.663035247691745 L-50.0,39.0" fill-opacity="0" stroke="black" stroke-width="1" />
<path d="M-50.0,-49.0 L-70.0,-30.0 L-75.0,-25.0" fill-opacity="0" stroke="black" stroke-width="1" />
<path d="M-50.0,49.0 L-70.0,30.0 L-75.0,25.0" fill-opacity="0" stroke="black" stroke-width="1" />
<path d="M-75.0,-25.0 L-76.0,-24.0 L-81.0,-19.0" fill-opacity="0" stroke="black" stroke-width="1" />
<path d="M-75.0,25.0 L-76.0,24.0 L-81.0,19.0" fill-opacity="0" stroke="black" stroke-width="1" />
<path d="M-76.0,-24.0 L-81.0,-19.0 L-87.0,-13.0" fill-opacity="0" stroke="black" stroke-width="1" />
<path d="M-76.0,24.0 L-81.0,19.0 L-87.0,13.0" fill-opacity="0" stroke="black" stroke-width="1" />
<path d="M-81.0,-19.0 L-87.0,-13.0 L-90.2868751050437,-3.0038425551495025" fill-opacity="0" stroke="black" stroke-width="1" />
<path d="M-81.0,19.0 L-87.0,13.0 L-90.2868751050437,3.0038425551495025" fill-opacity="0" stroke="black" stroke-width="1" />
<path d="M-87.0,-13.0 L-90.2868751050437,-3.0038425551495025 L-93.0,-7.0" fill-opacity="0" stroke="black" stroke-width="1" />
<path d="M-87.0,13.0 L-90.2868751050437,3.0038425551495025 L-93.0,7.0" fill-opacity="0" stroke="black" stroke-width="1" />
<path d="M-93.0,-7.0 L-94.93870925652888,-1.3247085010439974 L-100.0,-0.0" fill-opacity="0" stroke="black" stroke-width="1" />
<path d="M-93.0,7.0 L-94.93870925652888,1.3247085010439974 L-100.0,-0.0" fill-opacity="0" stroke="black" stroke-width="1" />
<circle cx="0" cy="-97" r="8" stroke-dasharray="39.653880605311166 10.611601852125524" stroke-dashoffset="-17.59291886010284" stroke="black" stroke-width="1" fill="white" fill-opacity="1" />
<circle cx="0" cy="-97" r="4" stroke="black" stroke-width="1" fill="white" fill-opacity="1" />
</svg>