<?xml version="1.0" encoding="UTF-8"?>
<svg xmlns="http://www.w3.org/2000/svg" xmlns:xlink="http://www.w3.org/1999/xlink"
     width="250" height="250" viewBox="-125.0 -125.0 250 250">
<defs>
</defs>
<path d="M11.0,-0.0 L12.46535292301929,-3.6881489912069543 L15.854435136203627,-3.9772617135664365" fill="pink" fill-opacity="0.6" stroke="black" stroke-width="1" />
<path d="M11.0,-0.0 L12.46535292301929,3.6881489912069543 L15.854435136203627,3.9772617135664365" fill="brown" fill-opacity="0.6" stroke="black" stroke-width="1" />
<path d="M12.46535292301929,-3.6881489912069543 L15.854435136203627,-3.9772617135664365 L17.02033062743563,-4.680114681903675" fill="red" fill-opacity="0.6" stroke="black" stroke-width="1" />
<path d="M12.46535292301929,3.6881489912069543 L15.854435136203627,3.9772617135664365 L17.02033062743563,4.680114681903675" fill="orange" fill-opacity="0.6" stroke="black" stroke-width="1" />
<path d="M15.854435136203627,-3.9772617135664365 L17.02033062743563,-4.680114681903675 L28.378313414178873,-7.681920482327069" fill="red" fill-opacity="0.6" stroke="black" stroke-width="1" />
<path d="M15.854435136203627,3.9772617135664365 L17.02033062743563,4.680114681903675 L28.378313414178873,7.681920482327069" fill="black" fill-opacity="0.6" stroke="black" stroke-width="1" />
<path d="M17.02033062743563,-4.680114681903675 L28.378313414178873,-7.681920482327069 L29.092185446534636,-11.107046987042116" fill="orange" fill-opacity="0.6" stroke="black" stroke-width="1" />
<path d="M17.02033062743563,4.680114681903675 L28.378313414178873,7.681920482327069 L29.092185446534636,11.107046987042116" fill="green" fill-opacity="0.6" stroke="black" stroke-width="1" />
<path d="M28.378313414178873,-7.681920482327069 L29.092185446534636,-11.107046987042116 L33.20458083007527,-12.311502902947874" fill="brown" fill-opacity="0.6" stroke="black" stroke-width="1" />
<path d="M28.378313414178873,7.681920482327069 L29.092185446534636,11.107046987042116 L33.20458083007527,12.311502902947874" fill="purple" fill-opacity="0.6" stroke="black" stroke-width="1" />
<path d="M29.092185446534636,-11.107046987042116 L33.20458083007527,-12.311502902947874 L50.0,-0.0" fill="black" fill-opacity="0.6" stroke="black" stroke-width="1" />
<path d="M29.092185446534636,11.107046987042116 L33.20458083007527,12.311502902947874 L50.0,-0.0" fill="green" fill-opacity="0.6" stroke="black" stroke-width="1" />
<path d="M50.0,-6.0 L36.26968328596083,-24.76347841476752 L46.510314253048904,-33.15223742235539" fill="pink" fill-opacity="0.6" stroke="black" stroke-width="1" />
<path d="M50.0,6.0 L36.26968328596083,24.76347841476752 L46.510314253048904,33.15223742235539" fill="yellow" fill-opacity="0.6" stroke="black" stroke-width="1" />
<path d="M36.26968328596083,-24.76347841476752 L46.510314253048904,-33.15223742235539 L50.0,-37.0" fill="black" fill-opacity="0.6" stroke="black" stroke-width="1" />
<path d="M36.26968328596083,24.76347841476752 L46.510314253048904,33.15223742235539 L50.0,37.0" fill="black" fill-opacity="0.6" stroke="black" stroke-width="1" />
<path d="M50.0,-46.0 L49.8888976587004,-44.185452371435616 L49.401109035043305,-43.99119962778394" fill="black" fill-opacity="0.6" stroke="black" stroke-width="1" />
<path d="M50.0,46.0 L49.8888976587004,44.185452371435616 L49.401109035043305,43.99119962778394" fill="brown" fill-opacity="0.6" stroke="black" stroke-width="1" />
<path d="M49.8888976587004,-44.185452371435616 L49.401109035043305,-43.99119962778394 L42.0,-42.0" fill="yellow" fill-opacity="0.6" stroke="black" stroke-width="1" />
<path d="M49.8888976587004,44.185452371435616 L49.401109035043305,43.99119962778394 L42.0,42.0" fill="blue" fill-opacity="0.6" stroke="black" stroke-width="1" />
<path d="M43.99119962778394,50.598890964956695 L42.0,58.0 L17.0,83.0" fill="red" fill-opacity="0.6" stroke="black" stroke-width="1" />
<path d="M43.99119962778394,-50.598890964956695 L42.0,-58.0 L17.0,-83.0" fill="brown" fill-opacity="0.6" stroke="black" stroke-width="1" />
<path d="M42.0,58.0 L17.0,83.0 L10.0,90.0" fill="green" fill-opacity="0.6" stroke="black" stroke-width="1" />
<path d="M42.0,-58.0 L17.0,-83.0 L10.0,-90.0" fill="blue" fill-opacity="0.6" stroke="black" stroke-width="1" />
<path d="M17.0,83.0 L10.0,90.0 L2.970651952810176,91.51173050802069" fill="green" fill-opacity="0.6" stroke="black" stroke-width="1" />
<path d="M17.0,-83.0 L10.0,-90.0 L2.970651952810176,-91.51173050802069" fill="purple" fill-opacity="0.6" stroke="black" stroke-width="1" />
<path d="M10.0,-10.0 L8.488269491979304,-2.970651952810176 L7.5496853894338685,-2.645064128972585" fill="orange" fill-opacity="0.6" stroke="black" stroke-width="1" />
<path d="M10.0,10.0 L8.488269491979304,2.970651952810176 L7.5496853894338685,2.645064128972585" fill="yellow" fill-opacity="0.6" stroke="black" stroke-width="1" />
<path d="M8.488269491979304,-2.970651952810176 L7.5496853894338685,-2.645064128972585 L7.440913881646916,-2.5722571579863738" fill="black" fill-opacity="0.6" stroke="black" stroke-width="1" />
<path d="M8.488269491979304,2.970651952810176 L7.5496853894338685,2.645064128972585 L7.440913881646916,2.5722571579863738" fill="green" fill-opacity="0.6" stroke="black" stroke-width="1" />
<path d="M7.5496853894338685,-2.645064128972585 L7.440913881646916,-2.5722571579863738 L4.549700177449035,-2.2401936311586907" fill="brown" fill-opacity="0.6" stroke="black" stroke-width="1" />
<path d="M7.5496853894338685,2.645064128972585 L7.440913881646916,2.5722571579863738 L4.549700177449035,2.2401936311586907" fill="yellow" fill-opacity="0.6" stroke="black" stroke-width="1" />
<path d="M7.440913881646916,-2.5722571579863738 L4.549700177449035,-2.2401936311586907 L2.8843605335242217,-1.9209382617341568" fill="orange" fill-opacity="0.6" stroke="black" stroke-width="1" />
<path d="M7.440913881646916,2.5722571579863738 L4.549700177449035,2.2401936311586907 L2.8843605335242217,1.9209382617341568" fill="black" fill-opacity="0.6" stroke="black" stroke-width="1" />
<path d="M4.549700177449035,-2.2401936311586907 L2.8843605335242217,-1.9209382617341568 L2.1499301016124686,-0.8938434888853177" fill="brown" fill-opacity="0.6" stroke="black" stroke-width="1" />
<path d="M4.549700177449035,2.2401936311586907 L2.8843605335242217,1.9209382617341568 L2.1499301016124686,0.8938434888853177" fill="blue" fill-opacity="0.6" stroke="black" stroke-width="1" />
<path d="M2.8843605335242217,-1.9209382617341568 L2.1499301016124686,-0.8938434888853177 L2.090151539701451,-0.559555399649265" fill="pink" fill-opacity="0.6" stroke="black" stroke-width="1" />
<path d="M2.8843605335242217,1.9209382617341568 L2.1499301016124686,0.8938434888853177 L2.090151539701451,0.559555399649265" fill="yellow" fill-opacity="0.6" stroke="black" stroke-width="1" />
<path d="M2.1499301016124686,-0.8938434888853177 L2.090151539701451,-0.559555399649265 L0.5993170182623464,-0.2973265030849549" fill="red" fill-opacity="0.6" stroke="black" stroke-width="1" />
<path d="M2.1499301016124686,0.8938434888853177 L2.090151539701451,0.559555399649265 L0.5993170182623464,0.2973265030849549" fill="red" fill-opacity="0.6" stroke="black" stroke-width="1" />
<path d="M2.090151539701451,-0.559555399649265 L0.5993170182623464,-0.2973265030849549 L0.0,-0.0" fill="black" fill-opacity="0.6" stroke="black" stroke-width="1" />
<path d="M2.090151539701451,0.559555399649265 L0.5993170182623464,0.2973265030849549 L0.0,-0.0" fill="pink" fill-opacity="0.6" stroke="black" stroke-width="1" />
<path d="M-11.0,-0.0 L-12.46535292301929,-3.6881489912069543 L-15.854435136203627,-3.9772617135664365" fill="yellow" fill-opacity="0.6" stroke="black" stroke-width="1" />
<path d="M-11.0,-0.0 L-12.46535292301929,3.6881489912069543 L-15.854435136203627,3.9772617135664365" fill="brown" fill-opacity="0.6" stroke="black" stroke-width="1" />
<path d="M-12.46535292301929,-3.6881489912069543 L-15.854435136203627,-3.9772617135664365 L-17.02033062743563,-4.680114681903675" fill="brown" fill-opacity="0.6" stroke="black" stroke-width="1" />
<path d="M-12.46535292301929,3.6881489912069543 L-15.854435136203627,3.9772617135664365 L-17.02033062743563,4.680114681903675" fill="yellow" fill-opacity="0.6" stroke="black" stroke-width="1" />
<path d="M-15.854435136203627,-3.9772617135664365 L-17.02033062743563,-4.680114681903675 L-28.378313414178873,-7.681920482327069" fill="blue" fill-opacity="0.6" stroke="black" stroke-width="1" />
<path d="M-15.854435136203627,3.9772617135664365 L-17.02033062743563,4.680114681903675 L-28.378313414178873,7.681920482327069" fill="yellow" fill-opacity="0.6" stroke="black" stroke-width="1" />
<path d="M-17.02033062743563,-4.680114681903675 L-28.378313414178873,-7.681920482327069 L-29.092185446534636,-11.107046987042116" fill="yellow" fill-opacity="0.6" stroke="black" stroke-width="1" />
<path d="M-17.02033062743563,4.680114681903675 L-28.378313414178873,7.681920482327069 L-29.092185446534636,11.107046987042116" fill="brown" fill-opacity="0.6" stroke="black" stroke-width="1" />
<path d="M-28.378313414178873,-7.681920482327069 L-29.092185446534636,-11.107046987042116 L-33.20458083007527,-12.311502902947874" fill="yellow" fill-opacity="0.6" stroke="black" stroke-width="1" />
<path d="M-28.378313414178873,7.681920482327069 L-29.092185446534636,11.107046987042116 L-33.20458083007527,12.311502902947874" fill="blue" fill-opacity="0.6" stroke="black" stroke-width="1" />
<path d="M-29.092185446534636,-11.107046987042116 L-33.20458083007527,-12.311502902947874 L-50.0,-0.0" fill="red" fill-opacity="0.6" stroke="black" stroke-width="1" />
<path d="M-29.092185446534636,11.107046987042116 L-33.20458083007527,12.311502902947874 L-50.0,-0.0" fill="green" fill-opacity="0.6" stroke="black" stroke-width="1" />
<path d="M-50.0,-6.0 L-36.26968328596083,-24.76347841476752 L-46.510314253048904,-33.15223742235539" fill="brown" fill-opacity="0.6" stroke="black" stroke-width="1" />
<path d="M-50.0,6.0 L-36.26968328596083,24.76347841476752 L-46.510314253048904,33.15223742235539" fill="pink" fill-opacity="0.6" stroke="black" stroke-width="1" />
<path d="M-36.26968328596083,-24.76347841476752 L-46.510314253048904,-33.15223742235539 L-50.0,-37.0" fill="blue" fill-opacity="0.6" stroke="black" stroke-width="1" />
<path d="M-36.26968328596083,24.76347841476752 L-46.510314253048904,33.15223742235539 L-50.0,37.0" fill="red" fill-opacity="0.6" stroke="black" stroke-width="1" />
<path d="M-50.0,-46.0 L-49.8888976587004,-44.185452371435616 L-49.401109035043305,-43.99119962778394" fill="red" fill-opacity="0.6" stroke="black" stroke-width="1" />
<path d="M-50.0,46.0 L-49.8888976587004,44.185452371435616 L-49.401109035043305,43.99119962778394" fill="green" fill-opacity="0.6" stroke="black" stroke-width="1" />
<path d="M-49.8888976587004,-44.185452371435616 L-49.401109035043305,-43.99119962778394 L-42.0,-42.0" fill="brown" fill-opacity="0.6" stroke="black" stroke-width="1" />
<path d="M-49.8888976587004,44.185452371435616 L-49.401109035043305,43.99119962778394 L-42.0,42.0" fill="brown" fill-opacity="0.6" stroke="black" stroke-width="1" />
<path d="M-43.99119962778394,50.598890964956695 L-42.0,58.0 L-17.0,83.0" fill="purple" fill-opacity="0.6" stroke="black" stroke-width="1" />
<path d="M-43.99119962778394,-50.598890964956695 L-42.0,-58.0 L-17.0,-83.0" fill="brown" fill-opacity="0.6" stroke="black" stroke-width="1" />
<path d="M-42.0,58.0 L-17.0,83.0 L-10.0,90.0" fill="pink" fill-opacity="0.6" stroke="black" stroke-width="1" />
<path d="M-42.0,-58.0 L-17.0,-83.0 L-10.0,-90.0" fill="yellow" fill-opacity="0.6" stroke="black" stroke-width="1" />
<path d="M-17.0,83.0 L-10.0,90.0 L-2.970651952810176,91.51173050802069" fill="orange" fill-opacity="0.6" stroke="black" stroke-width="1" />
<path d="M-17.0,-83.0 L-10.0,-90.0 L-2.970651952810176,-91.51173050802069" fill="purple" fill-opacity="0.6" stroke="black" stroke-width="1" />
<path d="M-10.0,-10.0 L-8.488269491979304,-2.970651952810176 L-7.5496853894338685,-2.645064128972585" fill="black" fill-opacity="0.6" stroke="black" stroke-width="1" />
<path d="M-10.0,10.0 L-8.488269491979304,2.970651952810176 L-7.5496853894338685,2.645064128972585" fill="pink" fill-opacity="0.6" stroke="black" stroke-width="1" />
<path d="M-8.488269491979304,-2.970651952810176 L-7.5496853894338685,-2.645064128972585 L-7.440913881646916,-2.5722571579863738" fill="orange" fill-opacity="0.6" stroke="black" stroke-width="1" />
<path d="M-8.488269491979304,2.970651952810176 L-7.5496853894338685,2.645064128972585 L-7.440913881646916,2.5722571579863738" fill="purple" fill-opacity="0.6" stroke="black" stroke-width="1" />
<path d="M-7.5496853894338685,-2.645064128972585 L-7.440913881646916,-2.5722571579863738 L-4.549700177449035,-2.2401936311586907" fill="brown" fill-opacity="0.6" stroke="black" stroke-width="1" />
<path d="M-7.5496853894338685,2.645064128972585 L-7.440913881646916,2.5722571579863738 L-4.549700177449035,2.2401936311586907" fill="black" fill-opacity="0.6" stroke="black" stroke-width="1" />
<path d="M-7.440913881646916,-2.5722571579863738 L-4.549700177449035,-2.2401936311586907 L-2.8843605335242217,-1.9209382617341568" fill="brown" fill-opacity="0.6" stroke="black" stroke-width="1" />
<path d="M-7.440913881646916,2.5722571579863738 L-4.549700177449035,2.2401936311586907 L-2.8843605335242217,1.9209382617341568" fill="pink" fill-opacity="0.6" stroke="black" stroke-width="1" />
<path d="M-4.549700177449035,-2.2401936311586907 L-2.8843605335242217,-1.9209382617341568 L-2.1499301016124686,-0.8938434888853177" fill="black" fill-opacity="0.6" stroke="black" stroke-width="1" />
<path d="M-4.549700177449035,2.2401936311586907 L-2.8843605335242217,1.9209382617341568 L-2.1499301016124686,0.8938434888853177" fill="orange" fill-opacity="0.6" stroke="black" stroke-width="1" />
<path d="M-2.8843605335242217,-1.9209382617341568 L-2.1499301016124686,-0.8938434888853177 L-2.090151539701451,-0.559555399649265" fill="red" fill-opacity="0.6" stroke="black" stroke-width="1" />
<path d="M-2.8843605335242217,1.9209382617341568 L-2.1499301016124686,0.8938434888853177 L-2.090151539701451,0.559555399649265" fill="brown" fill-opacity="0.6" stroke="black" stroke-width="1" />
<path d="M-2.1499301016124686,-0.8938434888853177 L-2.090151539701451,-0.559555399649265 L-0.5993170182623464,-0.2973265030849549" fill="black" fill-opacity="0.6" stroke="black" stroke-width="1" />
<path d="M-2.1499301016124686,0.8938434888853177 L-2.090151539701451,0.559555399649265 L-0.5993170182623464,0.2973265030849549" fill="pink" fill-opacity="0.6" stroke="black" stroke-width="1" />
<path d="M-2.090151539701451,-0.559555399649265 L-0.5993170182623464,-0.2973265030849549 L0.0,-0.0" fill="black" fill-opacity="0.6" stroke="black" stroke-width="1" />
<path d="M-2.090151539701451,0.559555399649265 L-0.5993170182623464,0.2973265030849549 L0.0,-0.0" fill="red" fill-opacity="0.6" stroke="black" stroke-width="1" />
<path d="M89.0,-0.0 L87.53464707698072,3.6881489912069543 L84.14556486379638,3.9772617135664365" fill="purple" fill-opacity="0.6" stroke="black" stroke-width="1" />
<path d="M89.0,-0.0 L87.53464707698072,-3.6881489912069543 L84.14556486379638,-3.9772617135664365" fill="black" fill-opacity="0.6" stroke="black" stroke-width="1" />
<path d="M87.53464707698072,3.6881489912069543 L84.14556486379638,3.9772617135664365 L82.97966937256437,4.680114681903675" fill="green" fill-opacity="0.6" stroke="black" stroke-width="1" />
<path d="M87.53464707698072,-3.6881489912069543 L84.14556486379638,-3.9772617135664365 L82.97966937256437,-4.680114681903675" fill="blue" fill-opacity="0.6" stroke="black" stroke-width="1" />
<path d="M84.14556486379638,3.9772617135664365 L82.97966937256437,4.680114681903675 L71.62168658582112,7.681920482327069" fill="black" fill-opacity="0.6" stroke="black" stroke-width="1" />
<path d="M84.14556486379638,-3.9772617135664365 L82.97966937256437,-4.680114681903675 L71.62168658582112,-7.681920482327069" fill="purple" fill-opacity="0.6" stroke="black" stroke-width="1" />
<path d="M82.97966937256437,4.680114681903675 L71.62168658582112,7.681920482327069 L70.90781455346536,11.107046987042116" fill="brown" fill-opacity="0.6" stroke="black" stroke-width="1" />
<path d="M82.97966937256437,-4.680114681903675 L71.62168658582112,-7.681920482327069 L70.90781455346536,-11.107046987042116" fill="brown" fill-opacity="0.6" stroke="black" stroke-width="1" />
<path d="M71.62168658582112,7.681920482327069 L70.90781455346536,11.107046987042116 L66.79541916992473,12.311502902947874" fill="green" fill-opacity="0.6" stroke="black" stroke-width="1" />
<path d="M71.62168658582112,-7.681920482327069 L70.90781455346536,-11.107046987042116 L66.79541916992473,-12.311502902947874" fill="pink" fill-opacity="0.6" stroke="black" stroke-width="1" />
<path d="M70.90781455346536,11.107046987042116 L66.79541916992473,12.311502902947874 L50.0,-0.0" fill="green" fill-opacity="0.6" stroke="black" stroke-width="1" />
<path d="M70.90781455346536,-11.107046987042116 L66.79541916992473,-12.311502902947874 L50.0,-0.0" fill="blue" fill-opacity="0.6" stroke="black" stroke-width="1" />
<path d="M50.0,6.0 L63.73031671403917,24.76347841476752 L53.489685746951096,33.15223742235539" fill="green" fill-opacity="0.6" stroke="black" stroke-width="1" />
<path d="M50.0,-6.0 L63.73031671403917,-24.76347841476752 L53.489685746951096,-33.15223742235539" fill="brown" fill-opacity="0.6" stroke="black" stroke-width="1" />
<path d="M63.73031671403917,24.76347841476752 L53.489685746951096,33.15223742235539 L50.0,37.0" fill="brown" fill-opacity="0.6" stroke="black" stroke-width="1" />
<path d="M63.73031671403917,-24.76347841476752 L53.489685746951096,-33.15223742235539 L50.0,-37.0" fill="black" fill-opacity="0.6" stroke="black" stroke-width="1" />
<path d="M50.0,46.0 L50.1111023412996,44.185452371435616 L50.598890964956695,43.99119962778394" fill="red" fill-opacity="0.6" stroke="black" stroke-width="1" />
<path d="M50.0,-46.0 L50.1111023412996,-44.185452371435616 L50.598890964956695,-43.99119962778394" fill="red" fill-opacity="0.6" stroke="black" stroke-width="1" />
<path d="M50.1111023412996,44.185452371435616 L50.598890964956695,43.99119962778394 L58.0,42.0" fill="black" fill-opacity="0.6" stroke="black" stroke-width="1" />
<path d="M50.1111023412996,-44.185452371435616 L50.598890964956695,-43.99119962778394 L58.0,-42.0" fill="yellow" fill-opacity="0.6" stroke="black" stroke-width="1" />
<path d="M50.598890964956695,43.99119962778394 L58.0,42.0 L83.0,17.0" fill="purple" fill-opacity="0.6" stroke="black" stroke-width="1" />
<path d="M50.598890964956695,-43.99119962778394 L58.0,-42.0 L83.0,-17.0" fill="yellow" fill-opacity="0.6" stroke="black" stroke-width="1" />
<path d="M58.0,42.0 L83.0,17.0 L90.0,10.0" fill="green" fill-opacity="0.6" stroke="black" stroke-width="1" />
<path d="M58.0,-42.0 L83.0,-17.0 L90.0,-10.0" fill="pink" fill-opacity="0.6" stroke="black" stroke-width="1" />
<path d="M83.0,17.0 L90.0,10.0 L91.51173050802069,2.970651952810176" fill="purple" fill-opacity="0.6" stroke="black" stroke-width="1" />
<path d="M83.0,-17.0 L90.0,-10.0 L91.51173050802069,-2.970651952810176" fill="blue" fill-opacity="0.6" stroke="black" stroke-width="1" />
<path d="M90.0,10.0 L91.51173050802069,2.970651952810176 L92.45031461056612,2.645064128972585" fill="green" fill-opacity="0.6" stroke="black" stroke-width="1" />
<path d="M90.0,-10.0 L91.51173050802069,-2.970651952810176 L92.45031461056612,-2.645064128972585" fill="orange" fill-opacity="0.6" stroke="black" stroke-width="1" />
<path d="M91.51173050802069,2.970651952810176 L92.45031461056612,2.645064128972585 L92.5590861183531,2.5722571579863738" fill="red" fill-opacity="0.6" stroke="black" stroke-width="1" />
<path d="M91.51173050802069,-2.970651952810176 L92.45031461056612,-2.645064128972585 L92.5590861183531,-2.5722571579863738" fill="yellow" fill-opacity="0.6" stroke="black" stroke-width="1" />
<path d="M92.45031461056612,2.645064128972585 L92.5590861183531,2.5722571579863738 L95.45029982255096,2.2401936311586907" fill="pink" fill-opacity="0.6" stroke="black" stroke-width="1" />
<path d="M92.45031461056612,-2.645064128972585 L92.5590861183531,-2.5722571579863738 L95.45029982255096,-2.2401936311586907" fill="blue" fill-opacity="0.6" stroke="black" stroke-width="1" />
<path d="M92.5590861183531,2.5722571579863738 L95.45029982255096,2.2401936311586907 L97.11563946647578,1.9209382617341568" fill="purple" fill-opacity="0.6" stroke="black" stroke-width="1" />
<path d="M92.5590861183531,-2.5722571579863738 L95.45029982255096,-2.2401936311586907 L97.11563946647578,-1.9209382617341568" fill="red" fill-opacity="0.6" stroke="black" stroke-width="1" />
<path d="M95.45029982255096,2.2401936311586907 L97.11563946647578,1.9209382617341568 L97.85006989838753,0.8938434888853177" fill="yellow" fill-opacity="0.6" stroke="black" stroke-width="1" />
<path d="M95.45029982255096,-2.2401936311586907 L97.11563946647578,-1.9209382617341568 L97.85006989838753,-0.8938434888853177" fill="purple" fill-opacity="0.6" stroke="black" stroke-width="1" />
<path d="M97.11563946647578,1.9209382617341568 L97.85006989838753,0.8938434888853177 L97.90984846029855,0.559555399649265" fill="pink" fill-opacity="0.6" stroke="black" stroke-width="1" />
<path d="M97.11563946647578,-1.9209382617341568 L97.85006989838753,-0.8938434888853177 L97.90984846029855,-0.559555399649265" fill="black" fill-opacity="0.6" stroke="black" stroke-width="1" />
<path d="M97.85006989838753,0.8938434888853177 L97.90984846029855,0.559555399649265 L99.40068298173765,0.2973265030849549" fill="yellow" fill-opacity="0.6" stroke="black" stroke-width="1" />
<path d="M97.85006989838753,-0.8938434888853177 L97.90984846029855,-0.559555399649265 L99.40068298173765,-0.2973265030849549" fill="red" fill-opacity="0.6" stroke="black" stroke-width="1" />
<path d="M97.90984846029855,0.559555399649265 L99.40068298173765,0.2973265030849549 L100.0,-0.0" fill="green" fill-opacity="0.6" stroke="black" stroke-width="1" />
<path d="M97.90984846029855,-0.559555399649265 L99.40068298173765,-0.2973265030849549 L100.0,-0.0" fill="pink" fill-opacity="0.6" stroke="black" stroke-width="1" />
<path d="M0.0,-11.0 L3.6881489912069543,-12.46535292301929 L3.9772617135664365,-15.854435136203627" fill="pink" fill-opacity="0.6" stroke="black" stroke-width="1" />
<path d="M0.0,11.0 L3.6881489912069543,12.46535292301929 L3.9772617135664365,15.854435136203627" fill="purple" fill-opacity="0.6" stroke="black" stroke-width="1" />
<path d="M0.0,89.0 L3.6881489912069543,87.53464707698072 L3.9772617135664365,84.14556486379638" fill="black" fill-opacity="0.6" stroke="black" stroke-width="1" />
<path d="M0.0,-89.0 L3.6881489912069543,-87.53464707698072 L3.9772617135664365,-84.14556486379638" fill="black" fill-opacity="0.6" stroke="black" stroke-width="1" />
<path d="M3.6881489912069543,-12.46535292301929 L3.9772617135664365,-15.854435136203627 L4.680114681903675,-17.02033062743563" fill="purple" fill-opacity="0.6" stroke="black" stroke-width="1" />
<path d="M3.6881489912069543,12.46535292301929 L3.9772617135664365,15.854435136203627 L4.680114681903675,17.02033062743563" fill="orange" fill-opacity="0.6" stroke="black" stroke-width="1" />
<path d="M3.6881489912069543,87.53464707698072 L3.9772617135664365,84.14556486379638 L4.680114681903675,82.97966937256437" fill="purple" fill-opacity="0.6" stroke="black" stroke-width="1" />
<path d="M3.6881489912069543,-87.53464707698072 L3.9772617135664365,-84.14556486379638 L4.680114681903675,-82.97966937256437" fill="green" fill-opacity="0.6" stroke="black" stroke-width="1" />
<path d="M3.9772617135664365,-15.854435136203627 L4.680114681903675,-17.02033062743563 L7.681920482327069,-28.378313414178873" fill="brown" fill-opacity="0.6" stroke="black" stroke-width="1" />
<path d="M3.9772617135664365,15.854435136203627 L4.680114681903675,17.02033062743563 L7.681920482327069,28.378313414178873" fill="blue" fill-opacity="0.6" stroke="black" stroke-width="1" />
<path d="M3.9772617135664365,84.14556486379638 L4.680114681903675,82.97966937256437 L7.681920482327069,71.62168658582112" fill="blue" fill-opacity="0.6" stroke="black" stroke-width="1" />
<path d="M3.9772617135664365,-84.14556486379638 L4.680114681903675,-82.97966937256437 L7.681920482327069,-71.62168658582112" fill="yellow" fill-opacity="0.6" stroke="black" stroke-width="1" />
<path d="M4.680114681903675,-17.02033062743563 L7.681920482327069,-28.378313414178873 L11.107046987042116,-29.092185446534636" fill="yellow" fill-opacity="0.6" stroke="black" stroke-width="1" />
<path d="M4.680114681903675,17.02033062743563 L7.681920482327069,28.378313414178873 L11.107046987042116,29.092185446534636" fill="orange" fill-opacity="0.6" stroke="black" stroke-width="1" />
<path d="M4.680114681903675,82.97966937256437 L7.681920482327069,71.62168658582112 L11.107046987042116,70.90781455346536" fill="red" fill-opacity="0.6" stroke="black" stroke-width="1" />
<path d="M4.680114681903675,-82.97966937256437 L7.681920482327069,-71.62168658582112 L11.107046987042116,-70.90781455346536" fill="red" fill-opacity="0.6" stroke="black" stroke-width="1" />
<path d="M7.681920482327069,-28.378313414178873 L11.107046987042116,-29.092185446534636 L12.311502902947874,-33.20458083007527" fill="brown" fill-opacity="0.6" stroke="black" stroke-width="1" />
<path d="M7.681920482327069,28.378313414178873 L11.107046987042116,29.092185446534636 L12.311502902947874,33.20458083007527" fill="red" fill-opacity="0.6" stroke="black" stroke-width="1" />
<path d="M7.681920482327069,71.62168658582112 L11.107046987042116,70.90781455346536 L12.311502902947874,66.79541916992473" fill="green" fill-opacity="0.6" stroke="black" stroke-width="1" />
<path d="M7.681920482327069,-71.62168658582112 L11.107046987042116,-70.90781455346536 L12.311502902947874,-66.79541916992473" fill="green" fill-opacity="0.6" stroke="black" stroke-width="1" />
<path d="M11.107046987042116,-29.092185446534636 L12.311502902947874,-33.20458083007527 L0.0,-50.0" fill="orange" fill-opacity="0.6" stroke="black" stroke-width="1" />
<path d="M11.107046987042116,29.092185446534636 L12.311502902947874,33.20458083007527 L0.0,50.0" fill="blue" fill-opacity="0.6" stroke="black" stroke-width="1" />
<path d="M11.107046987042116,70.90781455346536 L12.311502902947874,66.79541916992473 L0.0,50.0" fill="blue" fill-opacity="0.6" stroke="black" stroke-width="1" />
<path d="M11.107046987042116,-70.90781455346536 L12.311502902947874,-66.79541916992473 L0.0,-50.0" fill="brown" fill-opacity="0.6" stroke="black" stroke-width="1" />
<path d="M6.0,-50.0 L24.76347841476752,-36.26968328596083 L33.15223742235539,-46.510314253048904" fill="green" fill-opacity="0.6" stroke="black" stroke-width="1" />
<path d="M6.0,50.0 L24.76347841476752,36.26968328596083 L33.15223742235539,46.510314253048904" fill="brown" fill-opacity="0.6" stroke="black" stroke-width="1" />
<path d="M6.0,50.0 L24.76347841476752,63.73031671403917 L33.15223742235539,53.489685746951096" fill="yellow" fill-opacity="0.6" stroke="black" stroke-width="1" />
<path d="M6.0,-50.0 L24.76347841476752,-63.73031671403917 L33.15223742235539,-53.489685746951096" fill="green" fill-opacity="0.6" stroke="black" stroke-width="1" />
<path d="M24.76347841476752,-36.26968328596083 L33.15223742235539,-46.510314253048904 L37.0,-50.0" fill="black" fill-opacity="0.6" stroke="black" stroke-width="1" />
<path d="M24.76347841476752,36.26968328596083 L33.15223742235539,46.510314253048904 L37.0,50.0" fill="red" fill-opacity="0.6" stroke="black" stroke-width="1" />
<path d="M24.76347841476752,63.73031671403917 L33.15223742235539,53.489685746951096 L37.0,50.0" fill="yellow" fill-opacity="0.6" stroke="black" stroke-width="1" />
<path d="M24.76347841476752,-63.73031671403917 L33.15223742235539,-53.489685746951096 L37.0,-50.0" fill="brown" fill-opacity="0.6" stroke="black" stroke-width="1" />
<path d="M46.0,-50.0 L44.185452371435616,-49.8888976587004 L43.99119962778394,-49.401109035043305" fill="blue" fill-opacity="0.6" stroke="black" stroke-width="1" />
<path d="M46.0,50.0 L44.185452371435616,49.8888976587004 L43.99119962778394,49.401109035043305" fill="green" fill-opacity="0.6" stroke="black" stroke-width="1" />
<path d="M46.0,50.0 L44.185452371435616,50.1111023412996 L43.99119962778394,50.598890964956695" fill="orange" fill-opacity="0.6" stroke="black" stroke-width="1" />
<path d="M46.0,-50.0 L44.185452371435616,-50.1111023412996 L43.99119962778394,-50.598890964956695" fill="blue" fill-opacity="0.6" stroke="black" stroke-width="1" />
<path d="M44.185452371435616,-49.8888976587004 L43.99119962778394,-49.401109035043305 L42.0,-42.0" fill="red" fill-opacity="0.6" stroke="black" stroke-width="1" />
<path d="M44.185452371435616,49.8888976587004 L43.99119962778394,49.401109035043305 L42.0,42.0" fill="orange" fill-opacity="0.6" stroke="black" stroke-width="1" />
<path d="M44.185452371435616,50.1111023412996 L43.99119962778394,50.598890964956695 L42.0,58.0" fill="brown" fill-opacity="0.6" stroke="black" stroke-width="1" />
<path d="M44.185452371435616,-50.1111023412996 L43.99119962778394,-50.598890964956695 L42.0,-58.0" fill="red" fill-opacity="0.6" stroke="black" stroke-width="1" />
<path d="M10.0,-10.0 L2.970651952810176,-8.488269491979304 L2.645064128972585,-7.5496853894338685" fill="black" fill-opacity="0.6" stroke="black" stroke-width="1" />
<path d="M10.0,10.0 L2.970651952810176,8.488269491979304 L2.645064128972585,7.5496853894338685" fill="yellow" fill-opacity="0.6" stroke="black" stroke-width="1" />
<path d="M10.0,90.0 L2.970651952810176,91.51173050802069 L2.645064128972585,92.45031461056612" fill="orange" fill-opacity="0.6" stroke="black" stroke-width="1" />
<path d="M10.0,-90.0 L2.970651952810176,-91.51173050802069 L2.645064128972585,-92.45031461056612" fill="red" fill-opacity="0.6" stroke="black" stroke-width="1" />
<path d="M2.970651952810176,-8.488269491979304 L2.645064128972585,-7.5496853894338685 L2.5722571579863738,-7.440913881646916" fill="brown" fill-opacity="0.6" stroke="black" stroke-width="1" />
<path d="M2.970651952810176,8.488269491979304 L2.645064128972585,7.5496853894338685 L2.5722571579863738,7.440913881646916" fill="purple" fill-opacity="0.6" stroke="black" stroke-width="1" />
<path d="M2.970651952810176,91.51173050802069 L2.645064128972585,92.45031461056612 L2.5722571579863738,92.5590861183531" fill="black" fill-opacity="0.6" stroke="black" stroke-width="1" />
<path d="M2.970651952810176,-91.51173050802069 L2.645064128972585,-92.45031461056612 L2.5722571579863738,-92.5590861183531" fill="black" fill-opacity="0.6" stroke="black" stroke-width="1" />
<path d="M2.645064128972585,-7.5496853894338685 L2.5722571579863738,-7.440913881646916 L2.2401936311586907,-4.549700177449035" fill="green" fill-opacity="0.6" stroke="black" stroke-width="1" />
<path d="M2.645064128972585,7.5496853894338685 L2.5722571579863738,7.440913881646916 L2.2401936311586907,4.549700177449035" fill="red" fill-opacity="0.6" stroke="black" stroke-width="1" />
<path d="M2.645064128972585,92.45031461056612 L2.5722571579863738,92.5590861183531 L2.2401936311586907,95.45029982255096" fill="blue" fill-opacity="0.6" stroke="black" stroke-width="1" />
<path d="M2.645064128972585,-92.45031461056612 L2.5722571579863738,-92.5590861183531 L2.2401936311586907,-95.45029982255096" fill="red" fill-opacity="0.6" stroke="black" stroke-width="1" />
<path d="M2.5722571579863738,-7.440913881646916 L2.2401936311586907,-4.549700177449035 L1.9209382617341568,-2.8843605335242217" fill="yellow" fill-opacity="0.6" stroke="black" stroke-width="1" />
<path d="M2.5722571579863738,7.440913881646916 L2.2401936311586907,4.549700177449035 L1.9209382617341568,2.8843605335242217" fill="green" fill-opacity="0.6" stroke="black" stroke-width="1" />
<path d="M2.5722571579863738,92.5590861183531 L2.2401936311586907,95.45029982255096 L1.9209382617341568,97.11563946647578" fill="pink" fill-opacity="0.6" stroke="black" stroke-width="1" />
<path d="M2.5722571579863738,-92.5590861183531 L2.2401936311586907,-95.45029982255096 L1.9209382617341568,-97.11563946647578" fill="blue" fill-opacity="0.6" stroke="black" stroke-width="1" />
<path d="M2.2401936311586907,-4.549700177449035 L1.9209382617341568,-2.8843605335242217 L0.8938434888853177,-2.1499301016124686" fill="blue" fill-opacity="0.6" stroke="black" stroke-width="1" />
<path d="M2.2401936311586907,4.549700177449035 L1.9209382617341568,2.8843605335242217 L0.8938434888853177,2.1499301016124686" fill="purple" fill-opacity="0.6" stroke="black" stroke-width="1" />
<path d="M2.2401936311586907,95.45029982255096 L1.9209382617341568,97.11563946647578 L0.8938434888853177,97.85006989838753" fill="pink" fill-opacity="0.6" stroke="black" stroke-width="1" />
<path d="M2.2401936311586907,-95.45029982255096 L1.9209382617341568,-97.11563946647578 L0.8938434888853177,-97.85006989838753" fill="green" fill-opacity="0.6" stroke="black" stroke-width="1" />
<path d="M1.9209382617341568,-2.8843605335242217 L0.8938434888853177,-2.1499301016124686 L0.559555399649265,-2.090151539701451" fill="black" fill-opacity="0.6" stroke="black" stroke-width="1" />
<path d="M1.9209382617341568,2.8843605335242217 L0.8938434888853177,2.1499301016124686 L0.559555399649265,2.090151539701451" fill="brown" fill-opacity="0.6" stroke="black" stroke-width="1" />
<path d="M1.9209382617341568,97.11563946647578 L0.8938434888853177,97.85006989838753 L0.559555399649265,97.90984846029855" fill="blue" fill-opacity="0.6" stroke="black" stroke-width="1" />
<path d="M1.9209382617341568,-97.11563946647578 L0.8938434888853177,-97.85006989838753 L0.559555399649265,-97.90984846029855" fill="orange" fill-opacity="0.6" stroke="black" stroke-width="1" />
<path d="M0.8938434888853177,-2.1499301016124686 L0.559555399649265,-2.090151539701451 L0.2973265030849549,-0.5993170182623464" fill="yellow" fill-opacity="0.6" stroke="black" stroke-width="1" />
<path d="M0.8938434888853177,2.1499301016124686 L0.559555399649265,2.090151539701451 L0.2973265030849549,0.5993170182623464" fill="yellow" fill-opacity="0.6" stroke="black" stroke-width="1" />
<path d="M0.8938434888853177,97.85006989838753 L0.559555399649265,97.90984846029855 L0.2973265030849549,99.40068298173765" fill="yellow" fill-opacity="0.6" stroke="black" stroke-width="1" />
<path d="M0.8938434888853177,-97.85006989838753 L0.559555399649265,-97.90984846029855 L0.2973265030849549,-99.40068298173765" fill="black" fill-opacity="0.6" stroke="black" stroke-width="1" />
<path d="M0.559555399649265,-2.090151539701451 L0.2973265030849549,-0.5993170182623464 L0.0,-0.0" fill="yellow" fill-opacity="0.6" stroke="black" stroke-width="1" />
<path d="M0.559555399649265,2.090151539701451 L0.2973265030849549,0.5993170182623464 L0.0,-0.0" fill="green" fill-opacity="0.6" stroke="black" stroke-width="1" />
<path d="M0.559555399649265,97.90984846029855 L0.2973265030849549,99.40068298173765 L0.0,100.0" fill="green" fill-opacity="0.6" stroke="black" stroke-width="1" />
<path d="M0.559555399649265,-97.90984846029855 L0.2973265030849549,-99.40068298173765 L0.0,-100.0" fill="black" fill-opacity="0.6" stroke="black" stroke-width="1" />
<path d="M0.0,89.0 L-3.6881489912069543,87.5346470769807 L-3.9772617135664365,84.14556486379638" fill="brown" fill-opacity="0.6" stroke="black" stroke-width="1" />
<path d="M0.0,-11.0 L-3.6881489912069543,-12.46535292301929 L-3.9772617135664365,-15.854435136203627" fill="brown" fill-opacity="0.6" stroke="black" stroke-width="1" />
<path d="M0.0,11.0 L-3.6881489912069543,12.465352923019296 L-3.9772617135664365,15.85443513620362" fill="yellow" fill-opacity="0.6" stroke="black" stroke-width="1" />
<path d="M0.0,-89.0 L-3.6881489912069543,-87.53464707698072 L-3.9772617135664365,-84.14556486379638" fill="black" fill-opacity="0.6" stroke="black" stroke-width="1" />
<path d="M-3.6881489912069543,87.5346470769807 L-3.9772617135664365,84.14556486379638 L-4.680114681903675,82.97966937256437" fill="green" fill-opacity="0.6" stroke="black" stroke-width="1" />
<path d="M-3.6881489912069543,-12.46535292301929 L-3.9772617135664365,-15.854435136203627 L-4.680114681903675,-17.02033062743563" fill="brown" fill-opacity="0.6" stroke="black" stroke-width="1" />
<path d="M-3.6881489912069543,12.465352923019296 L-3.9772617135664365,15.85443513620362 L-4.680114681903675,17.020330627435627" fill="red" fill-opacity="0.6" stroke="black" stroke-width="1" />
<path d="M-3.6881489912069543,-87.53464707698072 L-3.9772617135664365,-84.14556486379638 L-4.680114681903675,-82.97966937256437" fill="orange" fill-opacity="0.6" stroke="black" stroke-width="1" />
<path d="M-3.9772617135664365,84.14556486379638 L-4.680114681903675,82.97966937256437 L-7.681920482327069,71.62168658582112" fill="red" fill-opacity="0.6" stroke="black" stroke-width="1" />
<path d="M-3.9772617135664365,-15.854435136203627 L-4.680114681903675,-17.02033062743563 L-7.681920482327069,-28.378313414178873" fill="yellow" fill-opacity="0.6" stroke="black" stroke-width="1" />
<path d="M-3.9772617135664365,15.85443513620362 L-4.680114681903675,17.020330627435627 L-7.681920482327069,28.378313414178876" fill="yellow" fill-opacity="0.6" stroke="black" stroke-width="1" />
<path d="M-3.9772617135664365,-84.14556486379638 L-4.680114681903675,-82.97966937256437 L-7.681920482327069,-71.62168658582112" fill="purple" fill-opacity="0.6" stroke="black" stroke-width="1" />
<path d="M-4.680114681903675,82.97966937256437 L-7.681920482327069,71.62168658582112 L-11.107046987042116,70.90781455346536" fill="purple" fill-opacity="0.6" stroke="black" stroke-width="1" />
<path d="M-4.680114681903675,-17.02033062743563 L-7.681920482327069,-28.378313414178873 L-11.107046987042116,-29.092185446534636" fill="pink" fill-opacity="0.6" stroke="black" stroke-width="1" />
<path d="M-4.680114681903675,17.020330627435627 L-7.681920482327069,28.378313414178876 L-11.107046987042116,29.092185446534643" fill="red" fill-opacity="0.6" stroke="black" stroke-width="1" />
<path d="M-4.680114681903675,-82.97966937256437 L-7.681920482327069,-71.62168658582112 L-11.107046987042116,-70.90781455346536" fill="green" fill-opacity="0.6" stroke="black" stroke-width="1" />
<path d="M-7.681920482327069,71.62168658582112 L-11.107046987042116,70.90781455346536 L-12.311502902947874,66.79541916992473" fill="brown" fill-opacity="0.6" stroke="black" stroke-width="1" />
<path d="M-7.681920482327069,-28.378313414178873 L-11.107046987042116,-29.092185446534636 L-12.311502902947874,-33.20458083007527" fill="blue" fill-opacity="0.6" stroke="black" stroke-width="1" />
<path d="M-7.681920482327069,28.378313414178876 L-11.107046987042116,29.092185446534643 L-12.311502902947874,33.20458083007527" fill="brown" fill-opacity="0.6" stroke="black" stroke-width="1" />
<path d="M-7.681920482327069,-71.62168658582112 L-11.107046987042116,-70.90781455346536 L-12.311502902947874,-66.79541916992473" fill="green" fill-opacity="0.6" stroke="black" stroke-width="1" />
<path d="M-11.107046987042116,70.90781455346536 L-12.311502902947874,66.79541916992473 L0.0,50.0" fill="green" fill-opacity="0.6" stroke="black" stroke-width="1" />
<path d="M-11.107046987042116,-29.092185446534636 L-12.311502902947874,-33.20458083007527 L0.0,-50.0" fill="yellow" fill-opacity="0.6" stroke="black" stroke-width="1" />
<path d="M-11.107046987042116,29.092185446534643 L-12.311502902947874,33.20458083007527 L0.0,50.0" fill="orange" fill-opacity="0.6" stroke="black" stroke-width="1" />
<path d="M-11.107046987042116,-70.90781455346536 L-12.311502902947874,-66.79541916992473 L0.0,-50.0" fill="pink" fill-opacity="0.6" stroke="black" stroke-width="1" />
<path d="M-6.0,50.0 L-24.76347841476752,63.73031671403917 L-33.15223742235539,53.489685746951096" fill="red" fill-opacity="0.6" stroke="black" stroke-width="1" />
<path d="M-6.0,-50.0 L-24.76347841476752,-36.26968328596083 L-33.15223742235539,-46.510314253048904" fill="green" fill-opacity="0.6" stroke="black" stroke-width="1" />
<path d="M-6.0,50.0 L-24.76347841476752,36.26968328596083 L-33.15223742235539,46.510314253048904" fill="blue" fill-opacity="0.6" stroke="black" stroke-width="1" />
<path d="M-6.0,-50.0 L-24.76347841476752,-63.73031671403917 L-33.15223742235539,-53.489685746951096" fill="pink" fill-opacity="0.6" stroke="black" stroke-width="1" />
<path d="M-24.76347841476752,63.73031671403917 L-33.15223742235539,53.489685746951096 L-37.0,50.0" fill="pink" fill-opacity="0.6" stroke="black" stroke-width="1" />
<path d="M-24.76347841476752,-36.26968328596083 L-33.15223742235539,-46.510314253048904 L-37.0,-50.0" fill="blue" fill-opacity="0.6" stroke="black" stroke-width="1" />
<path d="M-24.76347841476752,36.26968328596083 L-33.15223742235539,46.510314253048904 L-37.0,50.0" fill="orange" fill-opacity="0.6" stroke="black" stroke-width="1" />
<path d="M-24.76347841476752,-63.73031671403917 L-33.15223742235539,-53.489685746951096 L-37.0,-50.0" fill="green" fill-opacity="0.6" stroke="black" stroke-width="1" />
<path d="M-46.0,50.0 L-44.185452371435616,50.1111023412996 L-43.99119962778394,50.598890964956695" fill="orange" fill-opacity="0.6" stroke="black" stroke-width="1" />
<path d="M-46.0,-50.0 L-44.185452371435616,-49.8888976587004 L-43.99119962778394,-49.401109035043305" fill="orange" fill-opacity="0.6" stroke="black" stroke-width="1" />
<path d="M-46.0,50.0 L-44.185452371435616,49.8888976587004 L-43.99119962778394,49.401109035043305" fill="yellow" fill-opacity="0.6" stroke="black" stroke-width="1" />
<path d="M-46.0,-50.0 L-44.185452371435616,-50.1111023412996 L-43.99119962778394,-50.598890964956695" fill="pink" fill-opacity="0.6" stroke="black" stroke-width="1" />
<path d="M-44.185452371435616,50.1111023412996 L-43.99119962778394,50.598890964956695 L-42.0,58.0" fill="black" fill-opacity="0.6" stroke="black" stroke-width="1" />
<path d="M-44.185452371435616,-49.8888976587004 L-43.99119962778394,-49.401109035043305 L-42.0,-42.0" fill="yellow" fill-opacity="0.6" stroke="black" stroke-width="1" />
<path d="M-44.185452371435616,49.8888976587004 L-43.99119962778394,49.401109035043305 L-42.0,42.0" fill="pink" fill-opacity="0.6" stroke="black" stroke-width="1" />
<path d="M-44.185452371435616,-50.1111023412996 L-43.99119962778394,-50.598890964956695 L-42.0,-58.0" fill="orange" fill-opacity="0.6" stroke="black" stroke-width="1" />
<path d="M-10.0,90.0 L-2.970651952810176,91.51173050802069 L-2.645064128972585,92.45031461056612" fill="pink" fill-opacity="0.6" stroke="black" stroke-width="1" />
<path d="M-10.0,-10.0 L-2.970651952810176,-8.488269491979304 L-2.645064128972585,-7.5496853894338685" fill="orange" fill-opacity="0.6" stroke="black" stroke-width="1" />
<path d="M-10.0,10.0 L-2.970651952810176,8.48826949197931 L-2.645064128972585,7.549685389433876" fill="blue" fill-opacity="0.6" stroke="black" stroke-width="1" />
<path d="M-10.0,-90.0 L-2.970651952810176,-91.51173050802069 L-2.645064128972585,-92.45031461056612" fill="purple" fill-opacity="0.6" stroke="black" stroke-width="1" />
<path d="M-2.970651952810176,91.51173050802069 L-2.645064128972585,92.45031461056612 L-2.5722571579863738,92.55908611835308" fill="black" fill-opacity="0.6" stroke="black" stroke-width="1" />
<path d="M-2.970651952810176,-8.488269491979304 L-2.645064128972585,-7.5496853894338685 L-2.5722571579863738,-7.440913881646916" fill="yellow" fill-opacity="0.6" stroke="black" stroke-width="1" />
<path d="M-2.970651952810176,8.48826949197931 L-2.645064128972585,7.549685389433876 L-2.5722571579863738,7.440913881646921" fill="orange" fill-opacity="0.6" stroke="black" stroke-width="1" />
<path d="M-2.970651952810176,-91.51173050802069 L-2.645064128972585,-92.45031461056612 L-2.5722571579863738,-92.5590861183531" fill="black" fill-opacity="0.6" stroke="black" stroke-width="1" />
<path d="M-2.645064128972585,92.45031461056612 L-2.5722571579863738,92.55908611835308 L-2.2401936311586907,95.45029982255096" fill="yellow" fill-opacity="0.6" stroke="black" stroke-width="1" />
<path d="M-2.645064128972585,-7.5496853894338685 L-2.5722571579863738,-7.440913881646916 L-2.2401936311586907,-4.549700177449035" fill="brown" fill-opacity="0.6" stroke="black" stroke-width="1" />
<path d="M-2.645064128972585,7.549685389433876 L-2.5722571579863738,7.440913881646921 L-2.2401936311586907,4.54970017744904" fill="orange" fill-opacity="0.6" stroke="black" stroke-width="1" />
<path d="M-2.645064128972585,-92.45031461056612 L-2.5722571579863738,-92.5590861183531 L-2.2401936311586907,-95.45029982255096" fill="brown" fill-opacity="0.6" stroke="black" stroke-width="1" />
<path d="M-2.5722571579863738,92.55908611835308 L-2.2401936311586907,95.45029982255096 L-1.9209382617341568,97.11563946647578" fill="pink" fill-opacity="0.6" stroke="black" stroke-width="1" />
<path d="M-2.5722571579863738,-7.440913881646916 L-2.2401936311586907,-4.549700177449035 L-1.9209382617341568,-2.8843605335242217" fill="brown" fill-opacity="0.6" stroke="black" stroke-width="1" />
<path d="M-2.5722571579863738,7.440913881646921 L-2.2401936311586907,4.54970017744904 L-1.9209382617341568,2.884360533524216" fill="purple" fill-opacity="0.6" stroke="black" stroke-width="1" />
<path d="M-2.5722571579863738,-92.5590861183531 L-2.2401936311586907,-95.45029982255096 L-1.9209382617341568,-97.11563946647578" fill="green" fill-opacity="0.6" stroke="black" stroke-width="1" />
<path d="M-2.2401936311586907,95.45029982255096 L-1.9209382617341568,97.11563946647578 L-0.8938434888853177,97.85006989838753" fill="brown" fill-opacity="0.6" stroke="black" stroke-width="1" />
<path d="M-2.2401936311586907,-4.549700177449035 L-1.9209382617341568,-2.8843605335242217 L-0.8938434888853177,-2.1499301016124686" fill="blue" fill-opacity="0.6" stroke="black" stroke-width="1" />
<path d="M-2.2401936311586907,4.54970017744904 L-1.9209382617341568,2.884360533524216 L-0.8938434888853177,2.149930101612469" fill="purple" fill-opacity="0.6" stroke="black" stroke-width="1" />
<path d="M-2.2401936311586907,-95.45029982255096 L-1.9209382617341568,-97.11563946647578 L-0.8938434888853177,-97.85006989838753" fill="yellow" fill-opacity="0.6" stroke="black" stroke-width="1" />
<path d="M-1.9209382617341568,97.11563946647578 L-0.8938434888853177,97.85006989838753 L-0.559555399649265,97.90984846029855" fill="purple" fill-opacity="0.6" stroke="black" stroke-width="1" />
<path d="M-1.9209382617341568,-2.8843605335242217 L-0.8938434888853177,-2.1499301016124686 L-0.559555399649265,-2.090151539701451" fill="red" fill-opacity="0.6" stroke="black" stroke-width="1" />
<path d="M-1.9209382617341568,2.884360533524216 L-0.8938434888853177,2.149930101612469 L-0.559555399649265,2.090151539701452" fill="black" fill-opacity="0.6" stroke="black" stroke-width="1" />
<path d="M-1.9209382617341568,-97.11563946647578 L-0.8938434888853177,-97.85006989838753 L-0.559555399649265,-97.90984846029855" fill="pink" fill-opacity="0.6" stroke="black" stroke-width="1" />
<path d="M-0.8938434888853177,97.85006989838753 L-0.559555399649265,97.90984846029855 L-0.2973265030849549,99.40068298173766" fill="purple" fill-opacity="0.6" stroke="black" stroke-width="1" />
<path d="M-0.8938434888853177,-2.1499301016124686 L-0.559555399649265,-2.090151539701451 L-0.2973265030849549,-0.5993170182623464" fill="pink" fill-opacity="0.6" stroke="black" stroke-width="1" />
<path d="M-0.8938434888853177,2.149930101612469 L-0.559555399649265,2.090151539701452 L-0.2973265030849549,0.5993170182623402" fill="orange" fill-opacity="0.6" stroke="black" stroke-width="1" />
<path d="M-0.8938434888853177,-97.85006989838753 L-0.559555399649265,-97.90984846029855 L-0.2973265030849549,-99.40068298173765" fill="red" fill-opacity="0.6" stroke="black" stroke-width="1" />
<path d="M-0.559555399649265,97.90984846029855 L-0.2973265030849549,99.40068298173766 L0.0,100.0" fill="green" fill-opacity="0.6" stroke="black" stroke-width="1" />
<path d="M-0.559555399649265,-2.090151539701451 L-0.2973265030849549,-0.5993170182623464 L0.0,-0.0" fill="brown" fill-opacity="0.6" stroke="black" stroke-width="1" />
<path d="M-0.559555399649265,2.090151539701452 L-0.2973265030849549,0.5993170182623402 L0.0,-0.0" fill="orange" fill-opacity="0.6" stroke="black" stroke-width="1" />
<path d="M-0.559555399649265,-97.90984846029855 L-0.2973265030849549,-99.40068298173765 L0.0,-100.0" fill="purple" fill-opacity="0.6" stroke="black" stroke-width="1" />
<path d="M-89.0,-0.0 L-87.53464707698072,-3.6881489912069543 L-84.14556486379638,-3.9772617135664365" fill="green" fill-opacity="0.6" stroke="black" stroke-width="1" />
<path d="M-89.0,-0.0 L-87.53464707698072,3.6881489912069543 L-84.14556486379638,3.9772617135664365" fill="pink" fill-opacity="0.6" stroke="black" stroke-width="1" />
<path d="M-87.53464707698072,-3.6881489912069543 L-84.14556486379638,-3.9772617135664365 L-82.97966937256437,-4.680114681903675" fill="blue" fill-opacity="0.6" stroke="black" stroke-width="1" />
<path d="M-87.53464707698072,3.6881489912069543 L-84.14556486379638,3.9772617135664365 L-82.97966937256437,4.680114681903675" fill="orange" fill-opacity="0.6" stroke="black" stroke-width="1" />
<path d="M-84.14556486379638,-3.9772617135664365 L-82.97966937256437,-4.680114681903675 L-71.62168658582112,-7.681920482327069" fill="purple" fill-opacity="0.6" stroke="black" stroke-width="1" />
<path d="M-84.14556486379638,3.9772617135664365 L-82.97966937256437,4.680114681903675 L-71.62168658582112,7.681920482327069" fill="yellow" fill-opacity="0.6" stroke="black" stroke-width="1" />
<path d="M-82.97966937256437,-4.680114681903675 L-71.62168658582112,-7.681920482327069 L-70.90781455346536,-11.107046987042116" fill="orange" fill-opacity="0.6" stroke="black" stroke-width="1" />
<path d="M-82.97966937256437,4.680114681903675 L-71.62168658582112,7.681920482327069 L-70.90781455346536,11.107046987042116" fill="blue" fill-opacity="0.6" stroke="black" stroke-width="1" />
<path d="M-71.62168658582112,-7.681920482327069 L-70.90781455346536,-11.107046987042116 L-66.79541916992473,-12.311502902947874" fill="purple" fill-opacity="0.6" stroke="black" stroke-width="1" />
<path d="M-71.62168658582112,7.681920482327069 L-70.90781455346536,11.107046987042116 L-66.79541916992473,12.311502902947874" fill="pink" fill-opacity="0.6" stroke="black" stroke-width="1" />
<path d="M-70.90781455346536,-11.107046987042116 L-66.79541916992473,-12.311502902947874 L-50.0,-0.0" fill="black" fill-opacity="0.6" stroke="black" stroke-width="1" />
<path d="M-70.90781455346536,11.107046987042116 L-66.79541916992473,12.311502902947874 L-50.0,-0.0" fill="orange" fill-opacity="0.6" stroke="black" stroke-width="1" />
<path d="M-50.0,-6.0 L-63.73031671403917,-24.76347841476752 L-53.489685746951096,-33.15223742235539" fill="orange" fill-opacity="0.6" stroke="black" stroke-width="1" />
<path d="M-50.0,6.0 L-63.73031671403917,24.76347841476752 L-53.489685746951096,33.15223742235539" fill="purple" fill-opacity="0.6" stroke="black" stroke-width="1" />
<path d="M-63.73031671403917,-24.76347841476752 L-53.489685746951096,-33.15223742235539 L-50.0,-37.0" fill="purple" fill-opacity="0.6" stroke="black" stroke-width="1" />
<path d="M-63.73031671403917,24.76347841476752 L-53.489685746951096,33.15223742235539 L-50.0,37.0" fill="green" fill-opacity="0.6" stroke="black" stroke-width="1" />
<path d="M-50.0,-46.0 L-50.1111023412996,-44.185452371435616 L-50.598890964956695,-43.99119962778394" fill="blue" fill-opacity="0.6" stroke="black" stroke-width="1" />
<path d="M-50.0,46.0 L-50.1111023412996,44.185452371435616 L-50.598890964956695,43.99119962778394" fill="yellow" fill-opacity="0.6" stroke="black" stroke-width="1" />
<path d="M-50.1111023412996,-44.185452371435616 L-50.598890964956695,-43.99119962778394 L-58.0,-42.0" fill="red" fill-opacity="0.6" stroke="black" stroke-width="1" />
<path d="M-50.1111023412996,44.185452371435616 L-50.598890964956695,43.99119962778394 L-58.0,42.0" fill="yellow" fill-opacity="0.6" stroke="black" stroke-width="1" />
<path d="M-50.598890964956695,-43.99119962778394 L-58.0,-42.0 L-83.0,-17.0" fill="yellow" fill-opacity="0.6" stroke="black" stroke-width="1" />
<path d="M-50.598890964956695,43.99119962778394 L-58.0,42.0 L-83.0,17.0" fill="green" fill-opacity="0.6" stroke="black" stroke-width="1" />
<path d="M-58.0,-42.0 L-83.0,-17.0 L-90.0,-10.0" fill="brown" fill-opacity="0.6" stroke="black" stroke-width="1" />
<path d="M-58.0,42.0 L-83.0,17.0 L-90.0,10.0" fill="brown" fill-opacity="0.6" stroke="black" stroke-width="1" />
<path d="M-83.0,-17.0 L-90.0,-10.0 L-91.51173050802069,-2.970651952810176" fill="green" fill-opacity="0.6" stroke="black" stroke-width="1" />
<path d="M-83.0,17.0 L-90.0,10.0 L-91.51173050802069,2.970651952810176" fill="pink" fill-opacity="0.6" stroke="black" stroke-width="1" />
<path d="M-90.0,-10.0 L-91.51173050802069,-2.970651952810176 L-92.45031461056612,-2.645064128972585" fill="pink" fill-opacity="0.6" stroke="black" stroke-width="1" />
<path d="M-90.0,10.0 L-91.51173050802069,2.970651952810176 L-92.45031461056612,2.645064128972585" fill="black" fill-opacity="0.6" stroke="black" stroke-width="1" />
<path d="M-91.51173050802069,-2.970651952810176 L-92.45031461056612,-2.645064128972585 L-92.5590861183531,-2.5722571579863738" fill="brown" fill-opacity="0.6" stroke="black" stroke-width="1" />
<path d="M-91.51173050802069,2.970651952810176 L-92.45031461056612,2.645064128972585 L-92.5590861183531,2.5722571579863738" fill="black" fill-opacity="0.6" stroke="black" stroke-width="1" />
<path d="M-92.45031461056612,-2.645064128972585 L-92.5590861183531,-2.5722571579863738 L-95.45029982255096,-2.2401936311586907" fill="black" fill-opacity="0.6" stroke="black" stroke-width="1" />
<path d="M-92.45031461056612,2.645064128972585 L-92.5590861183531,2.5722571579863738 L-95.45029982255096,2.2401936311586907" fill="red" fill-opacity="0.6" stroke="black" stroke-width="1" />
<path d="M-92.5590861183531,-2.5722571579863738 L-95.45029982255096,-2.2401936311586907 L-97.11563946647578,-1.9209382617341568" fill="brown" fill-opacity="0.6" stroke="black" stroke-width="1" />
<path d="M-92.5590861183531,2.5722571579863738 L-95.45029982255096,2.2401936311586907 L-97.11563946647578,1.9209382617341568" fill="pink" fill-opacity="0.6" stroke="black" stroke-width="1" />
<path d="M-95.45029982255096,-2.2401936311586907 L-97.11563946647578,-1.9209382617341568 L-97.85006989838753,-0.8938434888853177" fill="brown" fill-opacity="0.6" stroke="black" stroke-width="1" />
<path d="M-95.45029982255096,2.2401936311586907 L-97.11563946647578,1.9209382617341568 L-97.85006989838753,0.8938434888853177" fill="orange" fill-opacity="0.6" stroke="black" stroke-width="1" />
<path d="M-97.11563946647578,-1.9209382617341568 L-97.85006989838753,-0.8938434888853177 L-97.90984846029855,-0.559555399649265" fill="pink" fill-opacity="0.6" stroke="black" stroke-width="1" />
<path d="M-97.11563946647578,1.9209382617341568 L-97.85006989838753,0.8938434888853177 L-97.90984846029855,0.559555399649265" fill="purple" fill-opacity="0.6" stroke="black" stroke-width="1" />
<path d="M-97.85006989838753,-0.8938434888853177 L-97.90984846029855,-0.559555399649265 L-99.40068298173765,-0.2973265030849549" fill="blue" fill-opacity="0.6" stroke="black" stroke-width="1" />
<path d="M-97.85006989838753,0.8938434888853177 L-97.90984846029855,0.559555399649265 L-99.40068298173765,0.2973265030849549" fill="blue" fill-opacity="0.6" stroke="black" stroke-width="1" />
<path d="M-97.90984846029855,-0.559555399649265 L-99.40068298173765,-0.2973265030849549 L-100.0,-0.0" fill="orange" fill-opacity="0.6" stroke="black" stroke-width="1" />
<path d="M-97.90984846029855,0.559555399649265 L-99.40068298173765,0.2973265030849549 L-100.0,-0.0" fill="pink" fill-opacity="0.6" stroke="black" stroke-width="1" />
</svg>