<?xml version="1.0" encoding="UTF-8"?>
<svg xmlns="http://www.w3.org/2000/svg" xmlns:xlink="http://www.w3.org/1999/xlink"
     width="250" height="250" viewBox="-125.0 -125.0 250 250">
<defs>
</defs>
<path d="M12.0,-0.0 L14.470440600506373,-5.868315983529418 L20.301696022568024,-9.467700551875847" fill-opacity="0" stroke="black" stroke-width="1" />
<path d="M12.0,-0.0 L14.470440600506373,5.868315983529418 L20.301696022568024,9.467700551875847" fill-opacity="0" stroke="black" stroke-width="1" />
<path d="M14.470440600506373,-5.868315983529418 L20.301696022568024,-9.467700551875847 L23.51913034400699,-9.641150126242904" fill-opacity="0" stroke="black" stroke-width="1" />
<path d="M14.470440600506373,5.868315983529418 L20.301696022568024,9.467700551875847 L23.51913034400699,9.641150126242904" fill-opacity="0" stroke="black" stroke-width="1" />
<path d="M20.301696022568024,-9.467700551875847 L23.51913034400699,-9.641150126242904 L25.170813854288415,-9.808238746858759" fill-opacity="0" stroke="black" stroke-width="1" />
<path d="M20.301696022568024,9.467700551875847 L23.51913034400699,9.641150126242904 L25.170813854288415,9.808238746858759" fill-opacity="0" stroke="black" stroke-width="1" />
<path d="M23.51913034400699,-9.641150126242904 L25.170813854288415,-9.808238746858759 L26.715863872100584,-13.193615841492937" fill-opacity="0" stroke="black" stroke-width="1" />
<path d="M23.51913034400699,9.641150126242904 L25.170813854288415,9.808238746858759 L26.715863872100584,13.193615841492937" fill-opacity="0" stroke="black" stroke-width="1" />
<path d="M25.170813854288415,-9.808238746858759 L26.715863872100584,-13.193615841492937 L27.12536320183372,-14.054916562700262" fill-opacity="0" stroke="black" stroke-width="1" />
<path d="M25.170813854288415,9.808238746858759 L26.715863872100584,13.193615841492937 L27.12536320183372,14.054916562700262" fill-opacity="0" stroke="black" stroke-width="1" />
<path d="M26.715863872100584,-13.193615841492937 L27.12536320183372,-14.054916562700262 L29.112915459631814,-17.49240570978378" fill-opacity="0" stroke="black" stroke-width="1" />
<path d="M26.715863872100584,13.193615841492937 L27.12536320183372,14.054916562700262 L29.112915459631814,17.49240570978378" fill-opacity="0" stroke="black" stroke-width="1" />
<path d="M27.12536320183372,-14.054916562700262 L29.112915459631814,-17.49240570978378 L29.250696985511762,-17.605213425280112" fill-opacity="0" stroke="black" stroke-width="1" />
<path d="M27.12536320183372,14.054916562700262 L29.112915459631814,17.49240570978378 L29.250696985511762,17.605213425280112" fill-opacity="0" stroke="black" stroke-width="1" />
<path d="M29.112915459631814,-17.49240570978378 L29.250696985511762,-17.605213425280112 L31.0,-0.0" fill-opacity="0" stroke="black" stroke-width="1" />
<path d="M29.112915459631814,17.49240570978378 L29.250696985511762,17.605213425280112 L31.0,-0.0" fill-opacity="0" stroke="black" stroke-width="1" />
<path d="M50.0,-12.0 L32.802833424659696,-22.90154032013588 L33.34047008378066,-24.185239480140627" fill-opacity="0" stroke="black" stroke-width="1" />
<path d="M50.0,12.0 L32.802833424659696,22.90154032013588 L33.34047008378066,24.185239480140627" fill-opacity="0" stroke="black" stroke-width="1" />
<path d="M32.802833424659696,-22.90154032013588 L33.34047008378066,-24.185239480140627 L33.39533513138734,-24.713054373664793" fill-opacity="0" stroke="black" stroke-width="1" />
<path d="M32.802833424659696,22.90154032013588 L33.34047008378066,24.185239480140627 L33.39533513138734,24.713054373664793" fill-opacity="0" stroke="black" stroke-width="1" />
<path d="M33.34047008378066,-24.185239480140627 L33.39533513138734,-24.713054373664793 L39.06596731614677,-25.923630051716906" fill-opacity="0" stroke="black" stroke-width="1" />
<path d="M33.34047008378066,24.185239480140627 L33.39533513138734,24.713054373664793 L39.06596731614677,25.923630051716906" fill-opacity="0" stroke="black" stroke-width="1" />
<path d="M33.39533513138734,-24.713054373664793 L39.06596731614677,-25.923630051716906 L39.305037791890875,-26.45464606626196" fill-opacity="0" stroke="black" stroke-width="1" />
<path d="M33.39533513138734,24.713054373664793 L39.06596731614677,25.923630051716906 L39.305037791890875,26.45464606626196" fill-opacity="0" stroke="black" stroke-width="1" />
<path d="M39.06596731614677,-25.923630051716906 L39.305037791890875,-26.45464606626196 L50.0,-48.0" fill-opacity="0" stroke="black" stroke-width="1" />
<path d="M39.06596731614677,25.923630051716906 L39.305037791890875,26.45464606626196 L50.0,48.0" fill-opacity="0" stroke="black" stroke-width="1" />
<path d="M50.0,-50.0 L45.492088313626056,-43.57625425218246 L34.0,-34.0" fill-opacity="0" stroke="black" stroke-width="1" />
<path d="M50.0,50.0 L45.492088313626056,43.57625425218246 L34.0,34.0" fill-opacity="0" stroke="black" stroke-width="1" />
<path d="M43.57625425218246,54.507911686373944 L34.0,66.0 L21.0,79.0" fill-opacity="0" stroke="black" stroke-width="1" />
<path d="M43.57625425218246,-54.507911686373944 L34.0,-66.0 L21.0,-79.0" fill-opacity="0" stroke="black" stroke-width="1" />
<path d="M34.0,66.0 L21.0,79.0 L18.0,82.0" fill-opacity="0" stroke="black" stroke-width="1" />
<path d="M34.0,-66.0 L21.0,-79.0 L18.0,-82.0" fill-opacity="0" stroke="black" stroke-width="1" />
<path d="M21.0,79.0 L18.0,82.0 L8.522161998724856,83.52401366196304" fill-opacity="0" stroke="black" stroke-width="1" />
<path d="M21.0,-79.0 L18.0,-82.0 L8.522161998724856,-83.52401366196304" fill-opacity="0" stroke="black" stroke-width="1" />
<path d="M18.0,-18.0 L16.475986338036968,-8.522161998724856 L16.0,-16.0" fill-opacity="0" stroke="black" stroke-width="1" />
<path d="M18.0,18.0 L16.475986338036968,8.522161998724856 L16.0,16.0" fill-opacity="0" stroke="black" stroke-width="1" />
<path d="M8.522161998724856,83.52401366196304 L16.0,84.0 L5.197749835041848,90.46233521442666" fill-opacity="0" stroke="black" stroke-width="1" />
<path d="M8.522161998724856,-83.52401366196304 L16.0,-84.0 L5.197749835041848,-90.46233521442666" fill-opacity="0" stroke="black" stroke-width="1" />
<path d="M16.0,-16.0 L9.537664785573341,-5.197749835041848 L7.554886492795321,-4.803313801780737" fill-opacity="0" stroke="black" stroke-width="1" />
<path d="M16.0,16.0 L9.537664785573341,5.197749835041848 L7.554886492795321,4.803313801780737" fill-opacity="0" stroke="black" stroke-width="1" />
<path d="M9.537664785573341,-5.197749835041848 L7.554886492795321,-4.803313801780737 L5.553598456163305,-2.3611089944411385" fill-opacity="0" stroke="black" stroke-width="1" />
<path d="M9.537664785573341,5.197749835041848 L7.554886492795321,4.803313801780737 L5.553598456163305,2.3611089944411385" fill-opacity="0" stroke="black" stroke-width="1" />
<path d="M7.554886492795321,-4.803313801780737 L5.553598456163305,-2.3611089944411385 L3.2246084202465664,-1.2049019365475773" fill-opacity="0" stroke="black" stroke-width="1" />
<path d="M7.554886492795321,4.803313801780737 L5.553598456163305,2.3611089944411385 L3.2246084202465664,1.2049019365475773" fill-opacity="0" stroke="black" stroke-width="1" />
<path d="M5.553598456163305,-2.3611089944411385 L3.2246084202465664,-1.2049019365475773 L2.614301831565524,-1.0482201731964187" fill-opacity="0" stroke="black" stroke-width="1" />
<path d="M5.553598456163305,2.3611089944411385 L3.2246084202465664,1.2049019365475773 L2.614301831565524,1.0482201731964187" fill-opacity="0" stroke="black" stroke-width="1" />
<path d="M3.2246084202465664,-1.2049019365475773 L2.614301831565524,-1.0482201731964187 L0.0,-0.0" fill-opacity="0" stroke="black" stroke-width="1" />
<path d="M3.2246084202465664,1.2049019365475773 L2.614301831565524,1.0482201731964187 L0.0,-0.0" fill-opacity="0" stroke="black" stroke-width="1" />
<path d="M-12.0,-0.0 L-14.470440600506373,-5.868315983529418 L-20.301696022568024,-9.467700551875847" fill-opacity="0" stroke="black" stroke-width="1" />
<path d="M-12.0,-0.0 L-14.470440600506373,5.868315983529418 L-20.301696022568024,9.467700551875847" fill-opacity="0" stroke="black" stroke-width="1" />
<path d="M-14.470440600506373,-5.868315983529418 L-20.301696022568024,-9.467700551875847 L-23.51913034400699,-9.641150126242904" fill-opacity="0" stroke="black" stroke-width="1" />
<path d="M-14.470440600506373,5.868315983529418 L-20.301696022568024,9.467700551875847 L-23.51913034400699,9.641150126242904" fill-opacity="0" stroke="black" stroke-width="1" />
<path d="M-20.301696022568024,-9.467700551875847 L-23.51913034400699,-9.641150126242904 L-25.170813854288415,-9.808238746858759" fill-opacity="0" stroke="black" stroke-width="1" />
<path d="M-20.301696022568024,9.467700551875847 L-23.51913034400699,9.641150126242904 L-25.170813854288415,9.808238746858759" fill-opacity="0" stroke="black" stroke-width="1" />
<path d="M-23.51913034400699,-9.641150126242904 L-25.170813854288415,-9.808238746858759 L-26.715863872100584,-13.193615841492937" fill-opacity="0" stroke="black" stroke-width="1" />
<path d="M-23.51913034400699,9.641150126242904 L-25.170813854288415,9.808238746858759 L-26.715863872100584,13.193615841492937" fill-opacity="0" stroke="black" stroke-width="1" />
<path d="M-25.170813854288415,-9.808238746858759 L-26.715863872100584,-13.193615841492937 L-27.12536320183372,-14.054916562700262" fill-opacity="0" stroke="black" stroke-width="1" />
<path d="M-25.170813854288415,9.808238746858759 L-26.715863872100584,13.193615841492937 L-27.12536320183372,14.054916562700262" fill-opacity="0" stroke="black" stroke-width="1" />
<path d="M-26.715863872100584,-13.193615841492937 L-27.12536320183372,-14.054916562700262 L-29.112915459631814,-17.49240570978378" fill-opacity="0" stroke="black" stroke-width="1" />
<path d="M-26.715863872100584,13.193615841492937 L-27.12536320183372,14.054916562700262 L-29.112915459631814,17.49240570978378" fill-opacity="0" stroke="black" stroke-width="1" />
<path d="M-27.12536320183372,-14.054916562700262 L-29.112915459631814,-17.49240570978378 L-29.250696985511762,-17.605213425280112" fill-opacity="0" stroke="black" stroke-width="1" />
<path d="M-27.12536320183372,14.054916562700262 L-29.112915459631814,17.49240570978378 L-29.250696985511762,17.605213425280112" fill-opacity="0" stroke="black" stroke-width="1" />
<path d="M-29.112915459631814,-17.49240570978378 L-29.250696985511762,-17.605213425280112 L-31.0,-0.0" fill-opacity="0" stroke="black" stroke-width="1" />
<path d="M-29.112915459631814,17.49240570978378 L-29.250696985511762,17.605213425280112 L-31.0,-0.0" fill-opacity="0" stroke="black" stroke-width="1" />
<path d="M-50.0,-12.0 L-32.802833424659696,-22.90154032013588 L-33.34047008378066,-24.185239480140627" fill-opacity="0" stroke="black" stroke-width="1" />
<path d="M-50.0,12.0 L-32.802833424659696,22.90154032013588 L-33.34047008378066,24.185239480140627" fill-opacity="0" stroke="black" stroke-width="1" />
<path d="M-32.802833424659696,-22.90154032013588 L-33.34047008378066,-24.185239480140627 L-33.39533513138734,-24.713054373664793" fill-opacity="0" stroke="black" stroke-width="1" />
<path d="M-32.802833424659696,22.90154032013588 L-33.34047008378066,24.185239480140627 L-33.39533513138734,24.713054373664793" fill-opacity="0" stroke="black" stroke-width="1" />
<path d="M-33.34047008378066,-24.185239480140627 L-33.39533513138734,-24.713054373664793 L-39.06596731614677,-25.923630051716906" fill-opacity="0" stroke="black" stroke-width="1" />
<path d="M-33.34047008378066,24.185239480140627 L-33.39533513138734,24.713054373664793 L-39.06596731614677,25.923630051716906" fill-opacity="0" stroke="black" stroke-width="1" />
<path d="M-33.39533513138734,-24.713054373664793 L-39.06596731614677,-25.923630051716906 L-39.305037791890875,-26.45464606626196" fill-opacity="0" stroke="black" stroke-width="1" />
<path d="M-33.39533513138734,24.713054373664793 L-39.06596731614677,25.923630051716906 L-39.305037791890875,26.45464606626196" fill-opacity="0" stroke="black" stroke-width="1" />
<path d="M-39.06596731614677,-25.923630051716906 L-39.305037791890875,-26.45464606626196 L-50.0,-48.0" fill-opacity="0" stroke="black" stroke-width="1" />
<path d="M-39.06596731614677,25.923630051716906 L-39.305037791890875,26.45464606626196 L-50.0,48.0" fill-opacity="0" stroke="black" stroke-width="1" />
<path d="M-50.0,-50.0 L-45.492088313626056,-43.57625425218246 L-34.0,-34.0" fill-opacity="0" stroke="black" stroke-width="1" />
<path d="M-50.0,50.0 L-45.492088313626056,43.57625425218246 L-34.0,34.0" fill-opacity="0" stroke="black" stroke-width="1" />
<path d="M-43.57625425218246,54.507911686373944 L-34.0,66.0 L-21.0,79.0" fill-opacity="0" stroke="black" stroke-width="1" />
<path d="M-43.57625425218246,-54.507911686373944 L-34.0,-66.0 L-21.0,-79.0" fill-opacity="0" stroke="black" stroke-width="1" />
<path d="M-34.0,66.0 L-21.0,79.0 L-18.0,82.0" fill-opacity="0" stroke="black" stroke-width="1" />
<path d="M-34.0,-66.0 L-21.0,-79.0 L-18.0,-82.0" fill-opacity="0" stroke="black" stroke-width="1" />
<path d="M-21.0,79.0 L-18.0,82.0 L-8.522161998724856,83.52401366196304" fill-opacity="0" stroke="black" stroke-width="1" />
<path d="M-21.0,-79.0 L-18.0,-82.0 L-8.522161998724856,-83.52401366196304" fill-opacity="0" stroke="black" stroke-width="1" />
<path d="M-18.0,-18.0 L-16.475986338036968,-8.522161998724856 L-16.0,-16.0" fill-opacity="0" stroke="black" stroke-width="1" />
<path d="M-18.0,18.0 L-16.475986338036968,8.522161998724856 L-16.0,16.0" fill-opacity="0" stroke="black" stroke-width="1" />
<path d="M-8.522161998724856,83.52401366196304 L-16.0,84.0 L-5.197749835041848,90.46233521442666" fill-opacity="0" stroke="black" stroke-width="1" />
<path d="M-8.522161998724856,-83.52401366196304 L-16.0,-84.0 L-5.197749835041848,-90.46233521442666" fill-opacity="0" stroke="black" stroke-width="1" />
<path d="M-16.0,-16.0 L-9.537664785573341,-5.197749835041848 L-7.554886492795321,-4.803313801780737" fill-opacity="0" stroke="black" stroke-width="1" />
<path d="M-16.0,16.0 L-9.537664785573341,5.197749835041848 L-7.554886492795321,4.803313801780737" fill-opacity="0" stroke="black" stroke-width="1" />
<path d="M-9.537664785573341,-5.197749835041848 L-7.554886492795321,-4.803313801780737 L-5.553598456163305,-2.3611089944411385" fill-opacity="0" stroke="black" stroke-width="1" />
<path d="M-9.537664785573341,5.197749835041848 L-7.554886492795321,4.803313801780737 L-5.553598456163305,2.3611089944411385" fill-opacity="0" stroke="black" stroke-width="1" />
<path d="M-7.554886492795321,-4.803313801780737 L-5.553598456163305,-2.3611089944411385 L-3.2246084202465664,-1.2049019365475773" fill-opacity="0" stroke="black" stroke-width="1" />
<path d="M-7.554886492795321,4.803313801780737 L-5.553598456163305,2.3611089944411385 L-3.2246084202465664,1.2049019365475773" fill-opacity="0" stroke="black" stroke-width="1" />
<path d="M-5.553598456163305,-2.3611089944411385 L-3.2246084202465664,-1.2049019365475773 L-2.614301831565524,-1.0482201731964187" fill-opacity="0" stroke="black" stroke-width="1" />
<path d="M-5.553598456163305,2.3611089944411385 L-3.2246084202465664,1.2049019365475773 L-2.614301831565524,1.0482201731964187" fill-opacity="0" stroke="black" stroke-width="1" />
<path d="M-3.2246084202465664,-1.2049019365475773 L-2.614301831565524,-1.0482201731964187 L0.0,-0.0" fill-opacity="0" stroke="black" stroke-width="1" />
<path d="M-3.2246084202465664,1.2049019365475773 L-2.614301831565524,1.0482201731964187 L0.0,-0.0" fill-opacity="0" stroke="black" stroke-width="1" />
<path d="M88.0,-0.0 L85.52955939949362,5.868315983529418 L79.69830397743198,9.467700551875847" fill-opacity="0" stroke="black" stroke-width="1" />
<path d="M88.0,-0.0 L85.52955939949362,-5.868315983529418 L79.69830397743198,-9.467700551875847" fill-opacity="0" stroke="black" stroke-width="1" />
<path d="M85.52955939949362,5.868315983529418 L79.69830397743198,9.467700551875847 L76.48086965599302,9.641150126242904" fill-opacity="0" stroke="black" stroke-width="1" />
<path d="M85.52955939949362,-5.868315983529418 L79.69830397743198,-9.467700551875847 L76.48086965599302,-9.641150126242904" fill-opacity="0" stroke="black" stroke-width="1" />
<path d="M79.69830397743198,9.467700551875847 L76.48086965599302,9.641150126242904 L74.82918614571159,9.808238746858759" fill-opacity="0" stroke="black" stroke-width="1" />
<path d="M79.69830397743198,-9.467700551875847 L76.48086965599302,-9.641150126242904 L74.82918614571159,-9.808238746858759" fill-opacity="0" stroke="black" stroke-width="1" />
<path d="M76.48086965599302,9.641150126242904 L74.82918614571159,9.808238746858759 L73.28413612789942,13.193615841492937" fill-opacity="0" stroke="black" stroke-width="1" />
<path d="M76.48086965599302,-9.641150126242904 L74.82918614571159,-9.808238746858759 L73.28413612789942,-13.193615841492937" fill-opacity="0" stroke="black" stroke-width="1" />
<path d="M74.82918614571159,9.808238746858759 L73.28413612789942,13.193615841492937 L72.87463679816628,14.054916562700262" fill-opacity="0" stroke="black" stroke-width="1" />
<path d="M74.82918614571159,-9.808238746858759 L73.28413612789942,-13.193615841492937 L72.87463679816628,-14.054916562700262" fill-opacity="0" stroke="black" stroke-width="1" />
<path d="M73.28413612789942,13.193615841492937 L72.87463679816628,14.054916562700262 L70.88708454036819,17.49240570978378" fill-opacity="0" stroke="black" stroke-width="1" />
<path d="M73.28413612789942,-13.193615841492937 L72.87463679816628,-14.054916562700262 L70.88708454036819,-17.49240570978378" fill-opacity="0" stroke="black" stroke-width="1" />
<path d="M72.87463679816628,14.054916562700262 L70.88708454036819,17.49240570978378 L70.74930301448823,17.605213425280112" fill-opacity="0" stroke="black" stroke-width="1" />
<path d="M72.87463679816628,-14.054916562700262 L70.88708454036819,-17.49240570978378 L70.74930301448823,-17.605213425280112" fill-opacity="0" stroke="black" stroke-width="1" />
<path d="M70.88708454036819,17.49240570978378 L70.74930301448823,17.605213425280112 L69.0,-0.0" fill-opacity="0" stroke="black" stroke-width="1" />
<path d="M70.88708454036819,-17.49240570978378 L70.74930301448823,-17.605213425280112 L69.0,-0.0" fill-opacity="0" stroke="black" stroke-width="1" />
<path d="M50.0,12.0 L67.1971665753403,22.90154032013588 L66.65952991621934,24.185239480140627" fill-opacity="0" stroke="black" stroke-width="1" />
<path d="M50.0,-12.0 L67.1971665753403,-22.90154032013588 L66.65952991621934,-24.185239480140627" fill-opacity="0" stroke="black" stroke-width="1" />
<path d="M67.1971665753403,22.90154032013588 L66.65952991621934,24.185239480140627 L66.60466486861266,24.713054373664793" fill-opacity="0" stroke="black" stroke-width="1" />
<path d="M67.1971665753403,-22.90154032013588 L66.65952991621934,-24.185239480140627 L66.60466486861266,-24.713054373664793" fill-opacity="0" stroke="black" stroke-width="1" />
<path d="M66.65952991621934,24.185239480140627 L66.60466486861266,24.713054373664793 L60.93403268385323,25.923630051716906" fill-opacity="0" stroke="black" stroke-width="1" />
<path d="M66.65952991621934,-24.185239480140627 L66.60466486861266,-24.713054373664793 L60.93403268385323,-25.923630051716906" fill-opacity="0" stroke="black" stroke-width="1" />
<path d="M66.60466486861266,24.713054373664793 L60.93403268385323,25.923630051716906 L60.694962208109125,26.45464606626196" fill-opacity="0" stroke="black" stroke-width="1" />
<path d="M66.60466486861266,-24.713054373664793 L60.93403268385323,-25.923630051716906 L60.694962208109125,-26.45464606626196" fill-opacity="0" stroke="black" stroke-width="1" />
<path d="M60.93403268385323,25.923630051716906 L60.694962208109125,26.45464606626196 L50.0,48.0" fill-opacity="0" stroke="black" stroke-width="1" />
<path d="M60.93403268385323,-25.923630051716906 L60.694962208109125,-26.45464606626196 L50.0,-48.0" fill-opacity="0" stroke="black" stroke-width="1" />
<path d="M50.0,50.0 L54.507911686373944,43.57625425218246 L66.0,34.0" fill-opacity="0" stroke="black" stroke-width="1" />
<path d="M50.0,-50.0 L54.507911686373944,-43.57625425218246 L66.0,-34.0" fill-opacity="0" stroke="black" stroke-width="1" />
<path d="M54.507911686373944,43.57625425218246 L66.0,34.0 L79.0,21.0" fill-opacity="0" stroke="black" stroke-width="1" />
<path d="M54.507911686373944,-43.57625425218246 L66.0,-34.0 L79.0,-21.0" fill-opacity="0" stroke="black" stroke-width="1" />
<path d="M66.0,34.0 L79.0,21.0 L82.0,18.0" fill-opacity="0" stroke="black" stroke-width="1" />
<path d="M66.0,-34.0 L79.0,-21.0 L82.0,-18.0" fill-opacity="0" stroke="black" stroke-width="1" />
<path d="M79.0,21.0 L82.0,18.0 L83.52401366196304,8.522161998724856" fill-opacity="0" stroke="black" stroke-width="1" />
<path d="M79.0,-21.0 L82.0,-18.0 L83.52401366196304,-8.522161998724856" fill-opacity="0" stroke="black" stroke-width="1" />
<path d="M82.0,18.0 L83.52401366196304,8.522161998724856 L84.0,16.0" fill-opacity="0" stroke="black" stroke-width="1" />
<path d="M82.0,-18.0 L83.52401366196304,-8.522161998724856 L84.0,-16.0" fill-opacity="0" stroke="black" stroke-width="1" />
<path d="M83.52401366196304,8.522161998724856 L84.0,16.0 L90.46233521442666,5.197749835041848" fill-opacity="0" stroke="black" stroke-width="1" />
<path d="M83.52401366196304,-8.522161998724856 L84.0,-16.0 L90.46233521442666,-5.197749835041848" fill-opacity="0" stroke="black" stroke-width="1" />
<path d="M84.0,16.0 L90.46233521442666,5.197749835041848 L92.44511350720468,4.803313801780737" fill-opacity="0" stroke="black" stroke-width="1" />
<path d="M84.0,-16.0 L90.46233521442666,-5.197749835041848 L92.44511350720468,-4.803313801780737" fill-opacity="0" stroke="black" stroke-width="1" />
<path d="M90.46233521442666,5.197749835041848 L92.44511350720468,4.803313801780737 L94.44640154383669,2.3611089944411385" fill-opacity="0" stroke="black" stroke-width="1" />
<path d="M90.46233521442666,-5.197749835041848 L92.44511350720468,-4.803313801780737 L94.44640154383669,-2.3611089944411385" fill-opacity="0" stroke="black" stroke-width="1" />
<path d="M92.44511350720468,4.803313801780737 L94.44640154383669,2.3611089944411385 L96.77539157975343,1.2049019365475773" fill-opacity="0" stroke="black" stroke-width="1" />
<path d="M92.44511350720468,-4.803313801780737 L94.44640154383669,-2.3611089944411385 L96.77539157975343,-1.2049019365475773" fill-opacity="0" stroke="black" stroke-width="1" />
<path d="M94.44640154383669,2.3611089944411385 L96.77539157975343,1.2049019365475773 L97.38569816843447,1.0482201731964187" fill-opacity="0" stroke="black" stroke-width="1" />
<path d="M94.44640154383669,-2.3611089944411385 L96.77539157975343,-1.2049019365475773 L97.38569816843447,-1.0482201731964187" fill-opacity="0" stroke="black" stroke-width="1" />
<path d="M96.77539157975343,1.2049019365475773 L97.38569816843447,1.0482201731964187 L100.0,-0.0" fill-opacity="0" stroke="black" stroke-width="1" />
<path d="M96.77539157975343,-1.2049019365475773 L97.38569816843447,-1.0482201731964187 L100.0,-0.0" fill-opacity="0" stroke="black" stroke-width="1" />
<path d="M0.0,-12.0 L5.868315983529418,-14.470440600506373 L9.467700551875847,-20.301696022568024" fill-opacity="0" stroke="black" stroke-width="1" />
<path d="M0.0,12.0 L5.868315983529418,14.470440600506373 L9.467700551875847,20.301696022568024" fill-opacity="0" stroke="black" stroke-width="1" />
<path d="M0.0,88.0 L5.868315983529418,85.52955939949362 L9.467700551875847,79.69830397743198" fill-opacity="0" stroke="black" stroke-width="1" />
<path d="M0.0,-88.0 L5.868315983529418,-85.52955939949362 L9.467700551875847,-79.69830397743198" fill-opacity="0" stroke="black" stroke-width="1" />
<path d="M5.868315983529418,-14.470440600506373 L9.467700551875847,-20.301696022568024 L9.641150126242904,-23.51913034400699" fill-opacity="0" stroke="black" stroke-width="1" />
<path d="M5.868315983529418,14.470440600506373 L9.467700551875847,20.301696022568024 L9.641150126242904,23.51913034400699" fill-opacity="0" stroke="black" stroke-width="1" />
<path d="M5.868315983529418,85.52955939949362 L9.467700551875847,79.69830397743198 L9.641150126242904,76.48086965599302" fill-opacity="0" stroke="black" stroke-width="1" />
<path d="M5.868315983529418,-85.52955939949362 L9.467700551875847,-79.69830397743198 L9.641150126242904,-76.48086965599302" fill-opacity="0" stroke="black" stroke-width="1" />
<path d="M9.467700551875847,-20.301696022568024 L9.641150126242904,-23.51913034400699 L9.808238746858759,-25.170813854288415" fill-opacity="0" stroke="black" stroke-width="1" />
<path d="M9.467700551875847,20.301696022568024 L9.641150126242904,23.51913034400699 L9.808238746858759,25.170813854288415" fill-opacity="0" stroke="black" stroke-width="1" />
<path d="M9.467700551875847,79.69830397743198 L9.641150126242904,76.48086965599302 L9.808238746858759,74.82918614571159" fill-opacity="0" stroke="black" stroke-width="1" />
<path d="M9.467700551875847,-79.69830397743198 L9.641150126242904,-76.48086965599302 L9.808238746858759,-74.82918614571159" fill-opacity="0" stroke="black" stroke-width="1" />
<path d="M9.641150126242904,-23.51913034400699 L9.808238746858759,-25.170813854288415 L13.193615841492937,-26.715863872100584" fill-opacity="0" stroke="black" stroke-width="1" />
<path d="M9.641150126242904,23.51913034400699 L9.808238746858759,25.170813854288415 L13.193615841492937,26.715863872100584" fill-opacity="0" stroke="black" stroke-width="1" />
<path d="M9.641150126242904,76.48086965599302 L9.808238746858759,74.82918614571159 L13.193615841492937,73.28413612789942" fill-opacity="0" stroke="black" stroke-width="1" />
<path d="M9.641150126242904,-76.48086965599302 L9.808238746858759,-74.82918614571159 L13.193615841492937,-73.28413612789942" fill-opacity="0" stroke="black" stroke-width="1" />
<path d="M9.808238746858759,-25.170813854288415 L13.193615841492937,-26.715863872100584 L14.054916562700262,-27.12536320183372" fill-opacity="0" stroke="black" stroke-width="1" />
<path d="M9.808238746858759,25.170813854288415 L13.193615841492937,26.715863872100584 L14.054916562700262,27.12536320183372" fill-opacity="0" stroke="black" stroke-width="1" />
<path d="M9.808238746858759,74.82918614571159 L13.193615841492937,73.28413612789942 L14.054916562700262,72.87463679816628" fill-opacity="0" stroke="black" stroke-width="1" />
<path d="M9.808238746858759,-74.82918614571159 L13.193615841492937,-73.28413612789942 L14.054916562700262,-72.87463679816628" fill-opacity="0" stroke="black" stroke-width="1" />
<path d="M13.193615841492937,-26.715863872100584 L14.054916562700262,-27.12536320183372 L17.49240570978378,-29.112915459631814" fill-opacity="0" stroke="black" stroke-width="1" />
<path d="M13.193615841492937,26.715863872100584 L14.054916562700262,27.12536320183372 L17.49240570978378,29.112915459631814" fill-opacity="0" stroke="black" stroke-width="1" />
<path d="M13.193615841492937,73.28413612789942 L14.054916562700262,72.87463679816628 L17.49240570978378,70.88708454036819" fill-opacity="0" stroke="black" stroke-width="1" />
<path d="M13.193615841492937,-73.28413612789942 L14.054916562700262,-72.87463679816628 L17.49240570978378,-70.88708454036819" fill-opacity="0" stroke="black" stroke-width="1" />
<path d="M14.054916562700262,-27.12536320183372 L17.49240570978378,-29.112915459631814 L17.605213425280112,-29.250696985511762" fill-opacity="0" stroke="black" stroke-width="1" />
<path d="M14.054916562700262,27.12536320183372 L17.49240570978378,29.112915459631814 L17.605213425280112,29.250696985511762" fill-opacity="0" stroke="black" stroke-width="1" />
<path d="M14.054916562700262,72.87463679816628 L17.49240570978378,70.88708454036819 L17.605213425280112,70.74930301448823" fill-opacity="0" stroke="black" stroke-width="1" />
<path d="M14.054916562700262,-72.87463679816628 L17.49240570978378,-70.88708454036819 L17.605213425280112,-70.74930301448823" fill-opacity="0" stroke="black" stroke-width="1" />
<path d="M17.49240570978378,-29.112915459631814 L17.605213425280112,-29.250696985511762 L0.0,-31.0" fill-opacity="0" stroke="black" stroke-width="1" />
<path d="M17.49240570978378,29.112915459631814 L17.605213425280112,29.250696985511762 L0.0,31.0" fill-opacity="0" stroke="black" stroke-width="1" />
<path d="M17.49240570978378,70.88708454036819 L17.605213425280112,70.74930301448823 L0.0,69.0" fill-opacity="0" stroke="black" stroke-width="1" />
<path d="M17.49240570978378,-70.88708454036819 L17.605213425280112,-70.74930301448823 L0.0,-69.0" fill-opacity="0" stroke="black" stroke-width="1" />
<path d="M12.0,-50.0 L22.90154032013588,-32.802833424659696 L24.185239480140627,-33.34047008378066" fill-opacity="0" stroke="black" stroke-width="1" />
<path d="M12.0,50.0 L22.90154032013588,32.802833424659696 L24.185239480140627,33.34047008378066" fill-opacity="0" stroke="black" stroke-width="1" />
<path d="M12.0,50.0 L22.90154032013588,67.1971665753403 L24.185239480140627,66.65952991621934" fill-opacity="0" stroke="black" stroke-width="1" />
<path d="M12.0,-50.0 L22.90154032013588,-67.1971665753403 L24.185239480140627,-66.65952991621934" fill-opacity="0" stroke="black" stroke-width="1" />
<path d="M22.90154032013588,-32.802833424659696 L24.185239480140627,-33.34047008378066 L24.713054373664793,-33.39533513138734" fill-opacity="0" stroke="black" stroke-width="1" />
<path d="M22.90154032013588,32.802833424659696 L24.185239480140627,33.34047008378066 L24.713054373664793,33.39533513138734" fill-opacity="0" stroke="black" stroke-width="1" />
<path d="M22.90154032013588,67.1971665753403 L24.185239480140627,66.65952991621934 L24.713054373664793,66.60466486861266" fill-opacity="0" stroke="black" stroke-width="1" />
<path d="M22.90154032013588,-67.1971665753403 L24.185239480140627,-66.65952991621934 L24.713054373664793,-66.60466486861266" fill-opacity="0" stroke="black" stroke-width="1" />
<path d="M24.185239480140627,-33.34047008378066 L24.713054373664793,-33.39533513138734 L25.923630051716906,-39.06596731614677" fill-opacity="0" stroke="black" stroke-width="1" />
<path d="M24.185239480140627,33.34047008378066 L24.713054373664793,33.39533513138734 L25.923630051716906,39.06596731614677" fill-opacity="0" stroke="black" stroke-width="1" />
<path d="M24.185239480140627,66.65952991621934 L24.713054373664793,66.60466486861266 L25.923630051716906,60.93403268385323" fill-opacity="0" stroke="black" stroke-width="1" />
<path d="M24.185239480140627,-66.65952991621934 L24.713054373664793,-66.60466486861266 L25.923630051716906,-60.93403268385323" fill-opacity="0" stroke="black" stroke-width="1" />
<path d="M24.713054373664793,-33.39533513138734 L25.923630051716906,-39.06596731614677 L26.45464606626196,-39.305037791890875" fill-opacity="0" stroke="black" stroke-width="1" />
<path d="M24.713054373664793,33.39533513138734 L25.923630051716906,39.06596731614677 L26.45464606626196,39.305037791890875" fill-opacity="0" stroke="black" stroke-width="1" />
<path d="M24.713054373664793,66.60466486861266 L25.923630051716906,60.93403268385323 L26.45464606626196,60.694962208109125" fill-opacity="0" stroke="black" stroke-width="1" />
<path d="M24.713054373664793,-66.60466486861266 L25.923630051716906,-60.93403268385323 L26.45464606626196,-60.694962208109125" fill-opacity="0" stroke="black" stroke-width="1" />
<path d="M25.923630051716906,-39.06596731614677 L26.45464606626196,-39.305037791890875 L48.0,-50.0" fill-opacity="0" stroke="black" stroke-width="1" />
<path d="M25.923630051716906,39.06596731614677 L26.45464606626196,39.305037791890875 L48.0,50.0" fill-opacity="0" stroke="black" stroke-width="1" />
<path d="M25.923630051716906,60.93403268385323 L26.45464606626196,60.694962208109125 L48.0,50.0" fill-opacity="0" stroke="black" stroke-width="1" />
<path d="M25.923630051716906,-60.93403268385323 L26.45464606626196,-60.694962208109125 L48.0,-50.0" fill-opacity="0" stroke="black" stroke-width="1" />
<path d="M50.0,-50.0 L43.57625425218246,-45.492088313626056 L34.0,-34.0" fill-opacity="0" stroke="black" stroke-width="1" />
<path d="M50.0,50.0 L43.57625425218246,45.492088313626056 L34.0,34.0" fill-opacity="0" stroke="black" stroke-width="1" />
<path d="M50.0,50.0 L43.57625425218246,54.507911686373944 L34.0,66.0" fill-opacity="0" stroke="black" stroke-width="1" />
<path d="M50.0,-50.0 L43.57625425218246,-54.507911686373944 L34.0,-66.0" fill-opacity="0" stroke="black" stroke-width="1" />
<path d="M18.0,-18.0 L8.522161998724856,-16.475986338036968 L16.0,-16.0" fill-opacity="0" stroke="black" stroke-width="1" />
<path d="M18.0,18.0 L8.522161998724856,16.475986338036968 L16.0,16.0" fill-opacity="0" stroke="black" stroke-width="1" />
<path d="M18.0,82.0 L8.522161998724856,83.52401366196304 L16.0,84.0" fill-opacity="0" stroke="black" stroke-width="1" />
<path d="M18.0,-82.0 L8.522161998724856,-83.52401366196304 L16.0,-84.0" fill-opacity="0" stroke="black" stroke-width="1" />
<path d="M16.0,-16.0 L5.197749835041848,-9.537664785573341 L4.803313801780737,-7.554886492795321" fill-opacity="0" stroke="black" stroke-width="1" />
<path d="M16.0,16.0 L5.197749835041848,9.537664785573341 L4.803313801780737,7.554886492795321" fill-opacity="0" stroke="black" stroke-width="1" />
<path d="M16.0,84.0 L5.197749835041848,90.46233521442666 L4.803313801780737,92.44511350720468" fill-opacity="0" stroke="black" stroke-width="1" />
<path d="M16.0,-84.0 L5.197749835041848,-90.46233521442666 L4.803313801780737,-92.44511350720468" fill-opacity="0" stroke="black" stroke-width="1" />
<path d="M5.197749835041848,-9.537664785573341 L4.803313801780737,-7.554886492795321 L2.3611089944411385,-5.553598456163305" fill-opacity="0" stroke="black" stroke-width="1" />
<path d="M5.197749835041848,9.537664785573341 L4.803313801780737,7.554886492795321 L2.3611089944411385,5.553598456163305" fill-opacity="0" stroke="black" stroke-width="1" />
<path d="M5.197749835041848,90.46233521442666 L4.803313801780737,92.44511350720468 L2.3611089944411385,94.44640154383669" fill-opacity="0" stroke="black" stroke-width="1" />
<path d="M5.197749835041848,-90.46233521442666 L4.803313801780737,-92.44511350720468 L2.3611089944411385,-94.44640154383669" fill-opacity="0" stroke="black" stroke-width="1" />
<path d="M4.803313801780737,-7.554886492795321 L2.3611089944411385,-5.553598456163305 L1.2049019365475773,-3.2246084202465664" fill-opacity="0" stroke="black" stroke-width="1" />
<path d="M4.803313801780737,7.554886492795321 L2.3611089944411385,5.553598456163305 L1.2049019365475773,3.2246084202465664" fill-opacity="0" stroke="black" stroke-width="1" />
<path d="M4.803313801780737,92.44511350720468 L2.3611089944411385,94.44640154383669 L1.2049019365475773,96.77539157975343" fill-opacity="0" stroke="black" stroke-width="1" />
<path d="M4.803313801780737,-92.44511350720468 L2.3611089944411385,-94.44640154383669 L1.2049019365475773,-96.77539157975343" fill-opacity="0" stroke="black" stroke-width="1" />
<path d="M2.3611089944411385,-5.553598456163305 L1.2049019365475773,-3.2246084202465664 L1.0482201731964187,-2.614301831565524" fill-opacity="0" stroke="black" stroke-width="1" />
<path d="M2.3611089944411385,5.553598456163305 L1.2049019365475773,3.2246084202465664 L1.0482201731964187,2.614301831565524" fill-opacity="0" stroke="black" stroke-width="1" />
<path d="M2.3611089944411385,94.44640154383669 L1.2049019365475773,96.77539157975343 L1.0482201731964187,97.38569816843447" fill-opacity="0" stroke="black" stroke-width="1" />
<path d="M2.3611089944411385,-94.44640154383669 L1.2049019365475773,-96.77539157975343 L1.0482201731964187,-97.38569816843447" fill-opacity="0" stroke="black" stroke-width="1" />
<path d="M1.2049019365475773,-3.2246084202465664 L1.0482201731964187,-2.614301831565524 L0.0,-0.0" fill-opacity="0" stroke="black" stroke-width="1" />
<path d="M1.2049019365475773,3.2246084202465664 L1.0482201731964187,2.614301831565524 L0.0,-0.0" fill-opacity="0" stroke="black" stroke-width="1" />
<path d="M1.2049019365475773,96.77539157975343 L1.0482201731964187,97.38569816843447 L0.0,100.0" fill-opacity="0" stroke="black" stroke-width="1" />
<path d="M1.2049019365475773,-96.77539157975343 L1.0482201731964187,-97.38569816843447 L0.0,-100.0" fill-opacity="0" stroke="black" stroke-width="1" />
<path d="M0.0,88.0 L-5.868315983529418,85.52955939949362 L-9.467700551875847,79.69830397743198" fill-opacity="0" stroke="black" stroke-width="1" />
<path d="M0.0,-12.0 L-5.868315983529418,-14.470440600506373 L-9.467700551875847,-20.301696022568024" fill-opacity="0" stroke="black" stroke-width="1" />
<path d="M0.0,12.0 L-5.868315983529418,14.470440600506379 L-9.467700551875847,20.301696022568024" fill-opacity="0" stroke="black" stroke-width="1" />
<path d="M0.0,-88.0 L-5.868315983529418,-85.52955939949362 L-9.467700551875847,-79.69830397743198" fill-opacity="0" stroke="black" stroke-width="1" />
<path d="M-5.868315983529418,85.52955939949362 L-9.467700551875847,79.69830397743198 L-9.641150126242904,76.48086965599302" fill-opacity="0" stroke="black" stroke-width="1" />
<path d="M-5.868315983529418,-14.470440600506373 L-9.467700551875847,-20.301696022568024 L-9.641150126242904,-23.51913034400699" fill-opacity="0" stroke="black" stroke-width="1" />
<path d="M-5.868315983529418,14.470440600506379 L-9.467700551875847,20.301696022568024 L-9.641150126242904,23.51913034400698" fill-opacity="0" stroke="black" stroke-width="1" />
<path d="M-5.868315983529418,-85.52955939949362 L-9.467700551875847,-79.69830397743198 L-9.641150126242904,-76.48086965599302" fill-opacity="0" stroke="black" stroke-width="1" />
<path d="M-9.467700551875847,79.69830397743198 L-9.641150126242904,76.48086965599302 L-9.808238746858759,74.82918614571159" fill-opacity="0" stroke="black" stroke-width="1" />
<path d="M-9.467700551875847,-20.301696022568024 L-9.641150126242904,-23.51913034400699 L-9.808238746858759,-25.170813854288415" fill-opacity="0" stroke="black" stroke-width="1" />
<path d="M-9.467700551875847,20.301696022568024 L-9.641150126242904,23.51913034400698 L-9.808238746858759,25.17081385428841" fill-opacity="0" stroke="black" stroke-width="1" />
<path d="M-9.467700551875847,-79.69830397743198 L-9.641150126242904,-76.48086965599302 L-9.808238746858759,-74.82918614571159" fill-opacity="0" stroke="black" stroke-width="1" />
<path d="M-9.641150126242904,76.48086965599302 L-9.808238746858759,74.82918614571159 L-13.193615841492937,73.28413612789942" fill-opacity="0" stroke="black" stroke-width="1" />
<path d="M-9.641150126242904,-23.51913034400699 L-9.808238746858759,-25.170813854288415 L-13.193615841492937,-26.715863872100584" fill-opacity="0" stroke="black" stroke-width="1" />
<path d="M-9.641150126242904,23.51913034400698 L-9.808238746858759,25.17081385428841 L-13.193615841492937,26.715863872100584" fill-opacity="0" stroke="black" stroke-width="1" />
<path d="M-9.641150126242904,-76.48086965599302 L-9.808238746858759,-74.82918614571159 L-13.193615841492937,-73.28413612789942" fill-opacity="0" stroke="black" stroke-width="1" />
<path d="M-9.808238746858759,74.82918614571159 L-13.193615841492937,73.28413612789942 L-14.054916562700262,72.87463679816628" fill-opacity="0" stroke="black" stroke-width="1" />
<path d="M-9.808238746858759,-25.170813854288415 L-13.193615841492937,-26.715863872100584 L-14.054916562700262,-27.12536320183372" fill-opacity="0" stroke="black" stroke-width="1" />
<path d="M-9.808238746858759,25.17081385428841 L-13.193615841492937,26.715863872100584 L-14.054916562700262,27.12536320183372" fill-opacity="0" stroke="black" stroke-width="1" />
<path d="M-9.808238746858759,-74.82918614571159 L-13.193615841492937,-73.28413612789942 L-14.054916562700262,-72.87463679816628" fill-opacity="0" stroke="black" stroke-width="1" />
<path d="M-13.193615841492937,73.28413612789942 L-14.054916562700262,72.87463679816628 L-17.49240570978378,70.88708454036819" fill-opacity="0" stroke="black" stroke-width="1" />
<path d="M-13.193615841492937,-26.715863872100584 L-14.054916562700262,-27.12536320183372 L-17.49240570978378,-29.112915459631814" fill-opacity="0" stroke="black" stroke-width="1" />
<path d="M-13.193615841492937,26.715863872100584 L-14.054916562700262,27.12536320183372 L-17.49240570978378,29.112915459631807" fill-opacity="0" stroke="black" stroke-width="1" />
<path d="M-13.193615841492937,-73.28413612789942 L-14.054916562700262,-72.87463679816628 L-17.49240570978378,-70.88708454036819" fill-opacity="0" stroke="black" stroke-width="1" />
<path d="M-14.054916562700262,72.87463679816628 L-17.49240570978378,70.88708454036819 L-17.605213425280112,70.74930301448823" fill-opacity="0" stroke="black" stroke-width="1" />
<path d="M-14.054916562700262,-27.12536320183372 L-17.49240570978378,-29.112915459631814 L-17.605213425280112,-29.250696985511762" fill-opacity="0" stroke="black" stroke-width="1" />
<path d="M-14.054916562700262,27.12536320183372 L-17.49240570978378,29.112915459631807 L-17.605213425280112,29.250696985511766" fill-opacity="0" stroke="black" stroke-width="1" />
<path d="M-14.054916562700262,-72.87463679816628 L-17.49240570978378,-70.88708454036819 L-17.605213425280112,-70.74930301448823" fill-opacity="0" stroke="black" stroke-width="1" />
<path d="M-17.49240570978378,70.88708454036819 L-17.605213425280112,70.74930301448823 L0.0,69.0" fill-opacity="0" stroke="black" stroke-width="1" />
<path d="M-17.49240570978378,-29.112915459631814 L-17.605213425280112,-29.250696985511762 L0.0,-31.0" fill-opacity="0" stroke="black" stroke-width="1" />
<path d="M-17.49240570978378,29.112915459631807 L-17.605213425280112,29.250696985511766 L0.0,31.0" fill-opacity="0" stroke="black" stroke-width="1" />
<path d="M-17.49240570978378,-70.88708454036819 L-17.605213425280112,-70.74930301448823 L0.0,-69.0" fill-opacity="0" stroke="black" stroke-width="1" />
<path d="M-12.0,50.0 L-22.90154032013588,67.1971665753403 L-24.185239480140627,66.65952991621934" fill-opacity="0" stroke="black" stroke-width="1" />
<path d="M-12.0,-50.0 L-22.90154032013588,-32.802833424659696 L-24.185239480140627,-33.34047008378066" fill-opacity="0" stroke="black" stroke-width="1" />
<path d="M-12.0,50.0 L-22.90154032013588,32.802833424659696 L-24.185239480140627,33.34047008378066" fill-opacity="0" stroke="black" stroke-width="1" />
<path d="M-12.0,-50.0 L-22.90154032013588,-67.1971665753403 L-24.185239480140627,-66.65952991621934" fill-opacity="0" stroke="black" stroke-width="1" />
<path d="M-22.90154032013588,67.1971665753403 L-24.185239480140627,66.65952991621934 L-24.713054373664793,66.60466486861266" fill-opacity="0" stroke="black" stroke-width="1" />
<path d="M-22.90154032013588,-32.802833424659696 L-24.185239480140627,-33.34047008378066 L-24.713054373664793,-33.39533513138734" fill-opacity="0" stroke="black" stroke-width="1" />
<path d="M-22.90154032013588,32.802833424659696 L-24.185239480140627,33.34047008378066 L-24.713054373664793,33.39533513138734" fill-opacity="0" stroke="black" stroke-width="1" />
<path d="M-22.90154032013588,-67.1971665753403 L-24.185239480140627,-66.65952991621934 L-24.713054373664793,-66.60466486861266" fill-opacity="0" stroke="black" stroke-width="1" />
<path d="M-24.185239480140627,66.65952991621934 L-24.713054373664793,66.60466486861266 L-25.923630051716906,60.93403268385323" fill-opacity="0" stroke="black" stroke-width="1" />
<path d="M-24.185239480140627,-33.34047008378066 L-24.713054373664793,-33.39533513138734 L-25.923630051716906,-39.06596731614677" fill-opacity="0" stroke="black" stroke-width="1" />
<path d="M-24.185239480140627,33.34047008378066 L-24.713054373664793,33.39533513138734 L-25.923630051716906,39.06596731614677" fill-opacity="0" stroke="black" stroke-width="1" />
<path d="M-24.185239480140627,-66.65952991621934 L-24.713054373664793,-66.60466486861266 L-25.923630051716906,-60.93403268385323" fill-opacity="0" stroke="black" stroke-width="1" />
<path d="M-24.713054373664793,66.60466486861266 L-25.923630051716906,60.93403268385323 L-26.45464606626196,60.694962208109125" fill-opacity="0" stroke="black" stroke-width="1" />
<path d="M-24.713054373664793,-33.39533513138734 L-25.923630051716906,-39.06596731614677 L-26.45464606626196,-39.305037791890875" fill-opacity="0" stroke="black" stroke-width="1" />
<path d="M-24.713054373664793,33.39533513138734 L-25.923630051716906,39.06596731614677 L-26.45464606626196,39.305037791890875" fill-opacity="0" stroke="black" stroke-width="1" />
<path d="M-24.713054373664793,-66.60466486861266 L-25.923630051716906,-60.93403268385323 L-26.45464606626196,-60.694962208109125" fill-opacity="0" stroke="black" stroke-width="1" />
<path d="M-25.923630051716906,60.93403268385323 L-26.45464606626196,60.694962208109125 L-48.0,50.0" fill-opacity="0" stroke="black" stroke-width="1" />
<path d="M-25.923630051716906,-39.06596731614677 L-26.45464606626196,-39.305037791890875 L-48.0,-50.0" fill-opacity="0" stroke="black" stroke-width="1" />
<path d="M-25.923630051716906,39.06596731614677 L-26.45464606626196,39.305037791890875 L-48.0,50.0" fill-opacity="0" stroke="black" stroke-width="1" />
<path d="M-25.923630051716906,-60.93403268385323 L-26.45464606626196,-60.694962208109125 L-48.0,-50.0" fill-opacity="0" stroke="black" stroke-width="1" />
<path d="M-50.0,50.0 L-43.57625425218246,54.507911686373944 L-34.0,66.0" fill-opacity="0" stroke="black" stroke-width="1" />
<path d="M-50.0,-50.0 L-43.57625425218246,-45.492088313626056 L-34.0,-34.0" fill-opacity="0" stroke="black" stroke-width="1" />
<path d="M-50.0,50.0 L-43.57625425218246,45.492088313626056 L-34.0,34.0" fill-opacity="0" stroke="black" stroke-width="1" />
<path d="M-50.0,-50.0 L-43.57625425218246,-54.507911686373944 L-34.0,-66.0" fill-opacity="0" stroke="black" stroke-width="1" />
<path d="M-18.0,82.0 L-8.522161998724856,83.52401366196304 L-16.0,84.0" fill-opacity="0" stroke="black" stroke-width="1" />
<path d="M-18.0,-18.0 L-8.522161998724856,-16.475986338036968 L-16.0,-16.0" fill-opacity="0" stroke="black" stroke-width="1" />
<path d="M-18.0,18.0 L-8.522161998724856,16.47598633803696 L-16.0,16.0" fill-opacity="0" stroke="black" stroke-width="1" />
<path d="M-18.0,-82.0 L-8.522161998724856,-83.52401366196304 L-16.0,-84.0" fill-opacity="0" stroke="black" stroke-width="1" />
<path d="M-16.0,84.0 L-5.197749835041848,90.46233521442666 L-4.803313801780737,92.44511350720468" fill-opacity="0" stroke="black" stroke-width="1" />
<path d="M-16.0,-16.0 L-5.197749835041848,-9.537664785573341 L-4.803313801780737,-7.554886492795321" fill-opacity="0" stroke="black" stroke-width="1" />
<path d="M-16.0,16.0 L-5.197749835041848,9.537664785573341 L-4.803313801780737,7.554886492795319" fill-opacity="0" stroke="black" stroke-width="1" />
<path d="M-16.0,-84.0 L-5.197749835041848,-90.46233521442666 L-4.803313801780737,-92.44511350720468" fill-opacity="0" stroke="black" stroke-width="1" />
<path d="M-5.197749835041848,90.46233521442666 L-4.803313801780737,92.44511350720468 L-2.3611089944411385,94.4464015438367" fill-opacity="0" stroke="black" stroke-width="1" />
<path d="M-5.197749835041848,-9.537664785573341 L-4.803313801780737,-7.554886492795321 L-2.3611089944411385,-5.553598456163305" fill-opacity="0" stroke="black" stroke-width="1" />
<path d="M-5.197749835041848,9.537664785573341 L-4.803313801780737,7.554886492795319 L-2.3611089944411385,5.5535984561633" fill-opacity="0" stroke="black" stroke-width="1" />
<path d="M-5.197749835041848,-90.46233521442666 L-4.803313801780737,-92.44511350720468 L-2.3611089944411385,-94.44640154383669" fill-opacity="0" stroke="black" stroke-width="1" />
<path d="M-4.803313801780737,92.44511350720468 L-2.3611089944411385,94.4464015438367 L-1.2049019365475773,96.77539157975343" fill-opacity="0" stroke="black" stroke-width="1" />
<path d="M-4.803313801780737,-7.554886492795321 L-2.3611089944411385,-5.553598456163305 L-1.2049019365475773,-3.2246084202465664" fill-opacity="0" stroke="black" stroke-width="1" />
<path d="M-4.803313801780737,7.554886492795319 L-2.3611089944411385,5.5535984561633 L-1.2049019365475773,3.224608420246568" fill-opacity="0" stroke="black" stroke-width="1" />
<path d="M-4.803313801780737,-92.44511350720468 L-2.3611089944411385,-94.44640154383669 L-1.2049019365475773,-96.77539157975343" fill-opacity="0" stroke="black" stroke-width="1" />
<path d="M-2.3611089944411385,94.4464015438367 L-1.2049019365475773,96.77539157975343 L-1.0482201731964187,97.38569816843447" fill-opacity="0" stroke="black" stroke-width="1" />
<path d="M-2.3611089944411385,-5.553598456163305 L-1.2049019365475773,-3.2246084202465664 L-1.0482201731964187,-2.614301831565524" fill-opacity="0" stroke="black" stroke-width="1" />
<path d="M-2.3611089944411385,5.5535984561633 L-1.2049019365475773,3.224608420246568 L-1.0482201731964187,2.614301831565527" fill-opacity="0" stroke="black" stroke-width="1" />
<path d="M-2.3611089944411385,-94.44640154383669 L-1.2049019365475773,-96.77539157975343 L-1.0482201731964187,-97.38569816843447" fill-opacity="0" stroke="black" stroke-width="1" />
<path d="M-1.2049019365475773,96.77539157975343 L-1.0482201731964187,97.38569816843447 L0.0,100.0" fill-opacity="0" stroke="black" stroke-width="1" />
<path d="M-1.2049019365475773,-3.2246084202465664 L-1.0482201731964187,-2.614301831565524 L0.0,-0.0" fill-opacity="0" stroke="black" stroke-width="1" />
<path d="M-1.2049019365475773,3.224608420246568 L-1.0482201731964187,2.614301831565527 L0.0,-0.0" fill-opacity="0" stroke="black" stroke-width="1" />
<path d="M-1.2049019365475773,-96.77539157975343 L-1.0482201731964187,-97.38569816843447 L0.0,-100.0" fill-opacity="0" stroke="black" stroke-width="1" />
<path d="M-88.0,-0.0 L-85.52955939949362,-5.868315983529418 L-79.69830397743198,-9.467700551875847" fill-opacity="0" stroke="black" stroke-width="1" />
<path d="M-88.0,-0.0 L-85.52955939949362,5.868315983529418 L-79.69830397743198,9.467700551875847" fill-opacity="0" stroke="black" stroke-width="1" />
<path d="M-85.52955939949362,-5.868315983529418 L-79.69830397743198,-9.467700551875847 L-76.48086965599302,-9.641150126242904" fill-opacity="0" stroke="black" stroke-width="1" />
<path d="M-85.52955939949362,5.868315983529418 L-79.69830397743198,9.467700551875847 L-76.48086965599302,9.641150126242904" fill-opacity="0" stroke="black" stroke-width="1" />
<path d="M-79.69830397743198,-9.467700551875847 L-76.48086965599302,-9.641150126242904 L-74.82918614571159,-9.808238746858759" fill-opacity="0" stroke="black" stroke-width="1" />
<path d="M-79.69830397743198,9.467700551875847 L-76.48086965599302,9.641150126242904 L-74.82918614571159,9.808238746858759" fill-opacity="0" stroke="black" stroke-width="1" />
<path d="M-76.48086965599302,-9.641150126242904 L-74.82918614571159,-9.808238746858759 L-73.28413612789942,-13.193615841492937" fill-opacity="0" stroke="black" stroke-width="1" />
<path d="M-76.48086965599302,9.641150126242904 L-74.82918614571159,9.808238746858759 L-73.28413612789942,13.193615841492937" fill-opacity="0" stroke="black" stroke-width="1" />
<path d="M-74.82918614571159,-9.808238746858759 L-73.28413612789942,-13.193615841492937 L-72.87463679816628,-14.054916562700262" fill-opacity="0" stroke="black" stroke-width="1" />
<path d="M-74.82918614571159,9.808238746858759 L-73.28413612789942,13.193615841492937 L-72.87463679816628,14.054916562700262" fill-opacity="0" stroke="black" stroke-width="1" />
<path d="M-73.28413612789942,-13.193615841492937 L-72.87463679816628,-14.054916562700262 L-70.88708454036819,-17.49240570978378" fill-opacity="0" stroke="black" stroke-width="1" />
<path d="M-73.28413612789942,13.193615841492937 L-72.87463679816628,14.054916562700262 L-70.88708454036819,17.49240570978378" fill-opacity="0" stroke="black" stroke-width="1" />
<path d="M-72.87463679816628,-14.054916562700262 L-70.88708454036819,-17.49240570978378 L-70.74930301448823,-17.605213425280112" fill-opacity="0" stroke="black" stroke-width="1" />
<path d="M-72.87463679816628,14.054916562700262 L-70.88708454036819,17.49240570978378 L-70.74930301448823,17.605213425280112" fill-opacity="0" stroke="black" stroke-width="1" />
<path d="M-70.88708454036819,-17.49240570978378 L-70.74930301448823,-17.605213425280112 L-69.0,-0.0" fill-opacity="0" stroke="black" stroke-width="1" />
<path d="M-70.88708454036819,17.49240570978378 L-70.74930301448823,17.605213425280112 L-69.0,-0.0" fill-opacity="0" stroke="black" stroke-width="1" />
<path d="M-50.0,-12.0 L-67.1971665753403,-22.90154032013588 L-66.65952991621934,-24.185239480140627" fill-opacity="0" stroke="black" stroke-width="1" />
<path d="M-50.0,12.0 L-67.1971665753403,22.90154032013588 L-66.65952991621934,24.185239480140627" fill-opacity="0" stroke="black" stroke-width="1" />
<path d="M-67.1971665753403,-22.90154032013588 L-66.65952991621934,-24.185239480140627 L-66.60466486861266,-24.713054373664793" fill-opacity="0" stroke="black" stroke-width="1" />
<path d="M-67.1971665753403,22.90154032013588 L-66.65952991621934,24.185239480140627 L-66.60466486861266,24.713054373664793" fill-opacity="0" stroke="black" stroke-width="1" />
<path d="M-66.65952991621934,-24.185239480140627 L-66.60466486861266,-24.713054373664793 L-60.93403268385323,-25.923630051716906" fill-opacity="0" stroke="black" stroke-width="1" />
<path d="M-66.65952991621934,24.185239480140627 L-66.60466486861266,24.713054373664793 L-60.93403268385323,25.923630051716906" fill-opacity="0" stroke="black" stroke-width="1" />
<path d="M-66.60466486861266,-24.713054373664793 L-60.93403268385323,-25.923630051716906 L-60.694962208109125,-26.45464606626196" fill-opacity="0" stroke="black" stroke-width="1" />
<path d="M-66.60466486861266,24.713054373664793 L-60.93403268385323,25.923630051716906 L-60.694962208109125,26.45464606626196" fill-opacity="0" stroke="black" stroke-width="1" />
<path d="M-60.93403268385323,-25.923630051716906 L-60.694962208109125,-26.45464606626196 L-50.0,-48.0" fill-opacity="0" stroke="black" stroke-width="1" />
<path d="M-60.93403268385323,25.923630051716906 L-60.694962208109125,26.45464606626196 L-50.0,48.0" fill-opacity="0" stroke="black" stroke-width="1" />
<path d="M-50.0,-50.0 L-54.507911686373944,-43.57625425218246 L-66.0,-34.0" fill-opacity="0" stroke="black" stroke-width="1" />
<path d="M-50.0,50.0 L-54.507911686373944,43.57625425218246 L-66.0,34.0" fill-opacity="0" stroke="black" stroke-width="1" />
<path d="M-54.507911686373944,-43.57625425218246 L-66.0,-34.0 L-79.0,-21.0" fill-opacity="0" stroke="black" stroke-width="1" />
<path d="M-54.507911686373944,43.57625425218246 L-66.0,34.0 L-79.0,21.0" fill-opacity="0" stroke="black" stroke-width="1" />
<path d="M-66.0,-34.0 L-79.0,-21.0 L-82.0,-18.0" fill-opacity="0" stroke="black" stroke-width="1" />
<path d="M-66.0,34.0 L-79.0,21.0 L-82.0,18.0" fill-opacity="0" stroke="black" stroke-width="1" />
<path d="M-79.0,-21.0 L-82.0,-18.0 L-83.52401366196304,-8.522161998724856" fill-opacity="0" stroke="black" stroke-width="1" />
<path d="M-79.0,21.0 L-82.0,18.0 L-83.52401366196304,8.522161998724856" fill-opacity="0" stroke="black" stroke-width="1" />
<path d="M-82.0,-18.0 L-83.52401366196304,-8.522161998724856 L-84.0,-16.0" fill-opacity="0" stroke="black" stroke-width="1" />
<path d="M-82.0,18.0 L-83.52401366196304,8.522161998724856 L-84.0,16.0" fill-opacity="0" stroke="black" stroke-width="1" />
<path d="M-83.52401366196304,-8.522161998724856 L-84.0,-16.0 L-90.46233521442666,-5.197749835041848" fill-opacity="0" stroke="black" stroke-width="1" />
<path d="M-83.52401366196304,8.522161998724856 L-84.0,16.0 L-90.46233521442666,5.197749835041848" fill-opacity="0" stroke="black" stroke-width="1" />
<path d="M-84.0,-16.0 L-90.46233521442666,-5.197749835041848 L-92.44511350720468,-4.803313801780737" fill-opacity="0" stroke="black" stroke-width="1" />
<path d="M-84.0,16.0 L-90.46233521442666,5.197749835041848 L-92.44511350720468,4.803313801780737" fill-opacity="0" stroke="black" stroke-width="1" />
<path d="M-90.46233521442666,-5.197749835041848 L-92.44511350720468,-4.803313801780737 L-94.44640154383669,-2.3611089944411385" fill-opacity="0" stroke="black" stroke-width="1" />
<path d="M-90.46233521442666,5.197749835041848 L-92.44511350720468,4.803313801780737 L-94.44640154383669,2.3611089944411385" fill-opacity="0" stroke="black" stroke-width="1" />
<path d="M-92.44511350720468,-4.803313801780737 L-94.44640154383669,-2.3611089944411385 L-96.77539157975343,-1.2049019365475773" fill-opacity="0" stroke="black" stroke-width="1" />
<path d="M-92.44511350720468,4.803313801780737 L-94.44640154383669,2.3611089944411385 L-96.77539157975343,1.2049019365475773" fill-opacity="0" stroke="black" stroke-width="1" />
<path d="M-94.44640154383669,-2.3611089944411385 L-96.77539157975343,-1.2049019365475773 L-97.38569816843447,-1.0482201731964187" fill-opacity="0" stroke="black" stroke-width="1" />
<path d="M-94.44640154383669,2.3611089944411385 L-96.77539157975343,1.2049019365475773 L-97.38569816843447,1.0482201731964187" fill-opacity="0" stroke="black" stroke-width="1" />
<path d="M-96.77539157975343,-1.2049019365475773 L-97.38569816843447,-1.0482201731964187 L-100.0,-0.0" fill-opacity="0" stroke="black" stroke-width="1" />
<path d="M-96.77539157975343,1.2049019365475773 L-97.38569816843447,1.0482201731964187 L-100.0,-0.0" fill-opacity="0" stroke="black" stroke-width="1" />
</svg>