<?xml version="1.0" encoding="UTF-8"?>
<svg xmlns="http://www.w3.org/2000/svg" xmlns:xlink="http://www.w3.org/1999/xlink"
     width="250" height="250" viewBox="-125.0 -125.0 250 250">
<defs>
</defs>
<path d="M14.0,-0.0 L14.084040495778787,-4.0982629581068295 L15.035603166084643,-4.861999004676208" fill="yellow" fill-opacity="0.6" stroke="black" stroke-width="1" />
<path d="M14.0,-0.0 L14.084040495778787,4.0982629581068295 L15.035603166084643,4.861999004676208" fill="pink" fill-opacity="0.6" stroke="black" stroke-width="1" />
<path d="M14.084040495778787,-4.0982629581068295 L15.035603166084643,-4.861999004676208 L18.621420237889126,-5.924006848744777" fill="black" fill-opacity="0.6" stroke="black" stroke-width="1" />
<path d="M14.084040495778787,4.0982629581068295 L15.035603166084643,4.861999004676208 L18.621420237889126,5.924006848744777" fill="pink" fill-opacity="0.6" stroke="black" stroke-width="1" />
<path d="M15.035603166084643,-4.861999004676208 L18.621420237889126,-5.924006848744777 L25.0,-0.0" fill="pink" fill-opacity="0.6" stroke="black" stroke-width="1" />
<path d="M15.035603166084643,4.861999004676208 L18.621420237889126,5.924006848744777 L25.0,-0.0" fill="orange" fill-opacity="0.6" stroke="black" stroke-width="1" />
<path d="M25.0,-0.0 L28.68372662061168,-6.467535380043399 L31.0,-0.0" fill="yellow" fill-opacity="0.6" stroke="black" stroke-width="1" />
<path d="M25.0,-0.0 L28.68372662061168,6.467535380043399 L31.0,-0.0" fill="brown" fill-opacity="0.6" stroke="black" stroke-width="1" />
<path d="M31.0,-0.0 L34.31893365292996,-8.042311381811047 L35.455467782176825,-8.8578770011355" fill="black" fill-opacity="0.6" stroke="black" stroke-width="1" />
<path d="M31.0,-0.0 L34.31893365292996,8.042311381811047 L35.455467782176825,8.8578770011355" fill="red" fill-opacity="0.6" stroke="black" stroke-width="1" />
<path d="M34.31893365292996,-8.042311381811047 L35.455467782176825,-8.8578770011355 L38.0,-0.0" fill="blue" fill-opacity="0.6" stroke="black" stroke-width="1" />
<path d="M34.31893365292996,8.042311381811047 L35.455467782176825,8.8578770011355 L38.0,-0.0" fill="orange" fill-opacity="0.6" stroke="black" stroke-width="1" />
<path d="M45.0,55.0 L42.0,58.0 L34.0,66.0" fill="yellow" fill-opacity="0.6" stroke="black" stroke-width="1" />
<path d="M45.0,-55.0 L42.0,-58.0 L34.0,-66.0" fill="yellow" fill-opacity="0.6" stroke="black" stroke-width="1" />
<path d="M50.0,50.0 L45.0,55.0 L42.0,58.0" fill="blue" fill-opacity="0.6" stroke="black" stroke-width="1" />
<path d="M50.0,-50.0 L45.0,-55.0 L42.0,-58.0" fill="pink" fill-opacity="0.6" stroke="black" stroke-width="1" />
<path d="M50.0,-13.0 L36.268352137048524,-14.150591017334682 L50.0,-19.0" fill="orange" fill-opacity="0.6" stroke="black" stroke-width="1" />
<path d="M50.0,13.0 L36.268352137048524,14.150591017334682 L50.0,19.0" fill="brown" fill-opacity="0.6" stroke="black" stroke-width="1" />
<path d="M50.0,-19.0 L38.32873201419618,-20.52615698817299 L40.206778253979664,-22.792807234051697" fill="brown" fill-opacity="0.6" stroke="black" stroke-width="1" />
<path d="M50.0,19.0 L38.32873201419618,20.52615698817299 L40.206778253979664,22.792807234051697" fill="pink" fill-opacity="0.6" stroke="black" stroke-width="1" />
<path d="M38.32873201419618,-20.52615698817299 L40.206778253979664,-22.792807234051697 L42.37980695487258,-27.15793427398814" fill="brown" fill-opacity="0.6" stroke="black" stroke-width="1" />
<path d="M38.32873201419618,20.52615698817299 L40.206778253979664,22.792807234051697 L42.37980695487258,27.15793427398814" fill="red" fill-opacity="0.6" stroke="black" stroke-width="1" />
<path d="M40.206778253979664,-22.792807234051697 L42.37980695487258,-27.15793427398814 L50.0,-29.0" fill="orange" fill-opacity="0.6" stroke="black" stroke-width="1" />
<path d="M40.206778253979664,22.792807234051697 L42.37980695487258,27.15793427398814 L50.0,29.0" fill="red" fill-opacity="0.6" stroke="black" stroke-width="1" />
<path d="M42.0,58.0 L34.0,66.0 L29.0,71.0" fill="purple" fill-opacity="0.6" stroke="black" stroke-width="1" />
<path d="M42.0,-58.0 L34.0,-66.0 L29.0,-71.0" fill="black" fill-opacity="0.6" stroke="black" stroke-width="1" />
<path d="M34.0,66.0 L29.0,71.0 L23.0,77.0" fill="orange" fill-opacity="0.6" stroke="black" stroke-width="1" />
<path d="M34.0,-66.0 L29.0,-71.0 L23.0,-77.0" fill="brown" fill-opacity="0.6" stroke="black" stroke-width="1" />
<path d="M29.0,71.0 L23.0,77.0 L9.0,91.0" fill="red" fill-opacity="0.6" stroke="black" stroke-width="1" />
<path d="M29.0,-71.0 L23.0,-77.0 L9.0,-91.0" fill="black" fill-opacity="0.6" stroke="black" stroke-width="1" />
<path d="M23.0,77.0 L9.0,91.0 L4.092486026838163,92.15770784484211" fill="pink" fill-opacity="0.6" stroke="black" stroke-width="1" />
<path d="M23.0,-77.0 L9.0,-91.0 L4.092486026838163,-92.15770784484211" fill="purple" fill-opacity="0.6" stroke="black" stroke-width="1" />
<path d="M9.0,-9.0 L7.842292155157892,-4.092486026838163 L7.0,-7.0" fill="black" fill-opacity="0.6" stroke="black" stroke-width="1" />
<path d="M9.0,9.0 L7.842292155157892,4.092486026838163 L7.0,7.0" fill="orange" fill-opacity="0.6" stroke="black" stroke-width="1" />
<path d="M4.092486026838163,92.15770784484211 L7.0,93.0 L3.0,97.0" fill="brown" fill-opacity="0.6" stroke="black" stroke-width="1" />
<path d="M4.092486026838163,-92.15770784484211 L7.0,-93.0 L3.0,-97.0" fill="brown" fill-opacity="0.6" stroke="black" stroke-width="1" />
<path d="M7.0,93.0 L3.0,97.0 L0.0,100.0" fill="red" fill-opacity="0.6" stroke="black" stroke-width="1" />
<path d="M7.0,-93.0 L3.0,-97.0 L0.0,-100.0" fill="orange" fill-opacity="0.6" stroke="black" stroke-width="1" />
<path d="M-14.0,-0.0 L-14.084040495778787,-4.0982629581068295 L-15.035603166084643,-4.861999004676208" fill="pink" fill-opacity="0.6" stroke="black" stroke-width="1" />
<path d="M-14.0,-0.0 L-14.084040495778787,4.0982629581068295 L-15.035603166084643,4.861999004676208" fill="blue" fill-opacity="0.6" stroke="black" stroke-width="1" />
<path d="M-14.084040495778787,-4.0982629581068295 L-15.035603166084643,-4.861999004676208 L-18.621420237889126,-5.924006848744777" fill="brown" fill-opacity="0.6" stroke="black" stroke-width="1" />
<path d="M-14.084040495778787,4.0982629581068295 L-15.035603166084643,4.861999004676208 L-18.621420237889126,5.924006848744777" fill="purple" fill-opacity="0.6" stroke="black" stroke-width="1" />
<path d="M-15.035603166084643,-4.861999004676208 L-18.621420237889126,-5.924006848744777 L-25.0,-0.0" fill="red" fill-opacity="0.6" stroke="black" stroke-width="1" />
<path d="M-15.035603166084643,4.861999004676208 L-18.621420237889126,5.924006848744777 L-25.0,-0.0" fill="pink" fill-opacity="0.6" stroke="black" stroke-width="1" />
<path d="M-25.0,-0.0 L-28.68372662061168,-6.467535380043399 L-31.0,-0.0" fill="pink" fill-opacity="0.6" stroke="black" stroke-width="1" />
<path d="M-25.0,-0.0 L-28.68372662061168,6.467535380043399 L-31.0,-0.0" fill="red" fill-opacity="0.6" stroke="black" stroke-width="1" />
<path d="M-31.0,-0.0 L-34.31893365292996,-8.042311381811047 L-35.455467782176825,-8.8578770011355" fill="pink" fill-opacity="0.6" stroke="black" stroke-width="1" />
<path d="M-31.0,-0.0 L-34.31893365292996,8.042311381811047 L-35.455467782176825,8.8578770011355" fill="purple" fill-opacity="0.6" stroke="black" stroke-width="1" />
<path d="M-34.31893365292996,-8.042311381811047 L-35.455467782176825,-8.8578770011355 L-38.0,-0.0" fill="green" fill-opacity="0.6" stroke="black" stroke-width="1" />
<path d="M-34.31893365292996,8.042311381811047 L-35.455467782176825,8.8578770011355 L-38.0,-0.0" fill="orange" fill-opacity="0.6" stroke="black" stroke-width="1" />
<path d="M-45.0,55.0 L-42.0,58.0 L-34.0,66.0" fill="orange" fill-opacity="0.6" stroke="black" stroke-width="1" />
<path d="M-45.0,-55.0 L-42.0,-58.0 L-34.0,-66.0" fill="yellow" fill-opacity="0.6" stroke="black" stroke-width="1" />
<path d="M-50.0,50.0 L-45.0,55.0 L-42.0,58.0" fill="red" fill-opacity="0.6" stroke="black" stroke-width="1" />
<path d="M-50.0,-50.0 L-45.0,-55.0 L-42.0,-58.0" fill="red" fill-opacity="0.6" stroke="black" stroke-width="1" />
<path d="M-50.0,-13.0 L-36.268352137048524,-14.150591017334682 L-50.0,-19.0" fill="black" fill-opacity="0.6" stroke="black" stroke-width="1" />
<path d="M-50.0,13.0 L-36.268352137048524,14.150591017334682 L-50.0,19.0" fill="black" fill-opacity="0.6" stroke="black" stroke-width="1" />
<path d="M-50.0,-19.0 L-38.32873201419618,-20.52615698817299 L-40.206778253979664,-22.792807234051697" fill="green" fill-opacity="0.6" stroke="black" stroke-width="1" />
<path d="M-50.0,19.0 L-38.32873201419618,20.52615698817299 L-40.206778253979664,22.792807234051697" fill="brown" fill-opacity="0.6" stroke="black" stroke-width="1" />
<path d="M-38.32873201419618,-20.52615698817299 L-40.206778253979664,-22.792807234051697 L-42.37980695487258,-27.15793427398814" fill="orange" fill-opacity="0.6" stroke="black" stroke-width="1" />
<path d="M-38.32873201419618,20.52615698817299 L-40.206778253979664,22.792807234051697 L-42.37980695487258,27.15793427398814" fill="red" fill-opacity="0.6" stroke="black" stroke-width="1" />
<path d="M-40.206778253979664,-22.792807234051697 L-42.37980695487258,-27.15793427398814 L-50.0,-29.0" fill="pink" fill-opacity="0.6" stroke="black" stroke-width="1" />
<path d="M-40.206778253979664,22.792807234051697 L-42.37980695487258,27.15793427398814 L-50.0,29.0" fill="blue" fill-opacity="0.6" stroke="black" stroke-width="1" />
<path d="M-42.0,58.0 L-34.0,66.0 L-29.0,71.0" fill="black" fill-opacity="0.6" stroke="black" stroke-width="1" />
<path d="M-42.0,-58.0 L-34.0,-66.0 L-29.0,-71.0" fill="red" fill-opacity="0.6" stroke="black" stroke-width="1" />
<path d="M-34.0,66.0 L-29.0,71.0 L-23.0,77.0" fill="red" fill-opacity="0.6" stroke="black" stroke-width="1" />
<path d="M-34.0,-66.0 L-29.0,-71.0 L-23.0,-77.0" fill="purple" fill-opacity="0.6" stroke="black" stroke-width="1" />
<path d="M-29.0,71.0 L-23.0,77.0 L-9.0,91.0" fill="red" fill-opacity="0.6" stroke="black" stroke-width="1" />
<path d="M-29.0,-71.0 L-23.0,-77.0 L-9.0,-91.0" fill="yellow" fill-opacity="0.6" stroke="black" stroke-width="1" />
<path d="M-23.0,77.0 L-9.0,91.0 L-4.092486026838163,92.15770784484211" fill="green" fill-opacity="0.6" stroke="black" stroke-width="1" />
<path d="M-23.0,-77.0 L-9.0,-91.0 L-4.092486026838163,-92.15770784484211" fill="purple" fill-opacity="0.6" stroke="black" stroke-width="1" />
<path d="M-9.0,-9.0 L-7.842292155157892,-4.092486026838163 L-7.0,-7.0" fill="orange" fill-opacity="0.6" stroke="black" stroke-width="1" />
<path d="M-9.0,9.0 L-7.842292155157892,4.092486026838163 L-7.0,7.0" fill="orange" fill-opacity="0.6" stroke="black" stroke-width="1" />
<path d="M-4.092486026838163,92.15770784484211 L-7.0,93.0 L-3.0,97.0" fill="green" fill-opacity="0.6" stroke="black" stroke-width="1" />
<path d="M-4.092486026838163,-92.15770784484211 L-7.0,-93.0 L-3.0,-97.0" fill="green" fill-opacity="0.6" stroke="black" stroke-width="1" />
<path d="M-7.0,93.0 L-3.0,97.0 L0.0,100.0" fill="green" fill-opacity="0.6" stroke="black" stroke-width="1" />
<path d="M-7.0,-93.0 L-3.0,-97.0 L0.0,-100.0" fill="blue" fill-opacity="0.6" stroke="black" stroke-width="1" />
<path d="M86.0,-0.0 L85.9159595042212,4.0982629581068295 L84.96439683391536,4.861999004676208" fill="orange" fill-opacity="0.6" stroke="black" stroke-width="1" />
<path d="M86.0,-0.0 L85.9159595042212,-4.0982629581068295 L84.96439683391536,-4.861999004676208" fill="black" fill-opacity="0.6" stroke="black" stroke-width="1" />
<path d="M85.9159595042212,4.0982629581068295 L84.96439683391536,4.861999004676208 L81.37857976211087,5.924006848744777" fill="blue" fill-opacity="0.6" stroke="black" stroke-width="1" />
<path d="M85.9159595042212,-4.0982629581068295 L84.96439683391536,-4.861999004676208 L81.37857976211087,-5.924006848744777" fill="yellow" fill-opacity="0.6" stroke="black" stroke-width="1" />
<path d="M84.96439683391536,4.861999004676208 L81.37857976211087,5.924006848744777 L75.0,-0.0" fill="purple" fill-opacity="0.6" stroke="black" stroke-width="1" />
<path d="M84.96439683391536,-4.861999004676208 L81.37857976211087,-5.924006848744777 L75.0,-0.0" fill="brown" fill-opacity="0.6" stroke="black" stroke-width="1" />
<path d="M75.0,-0.0 L71.31627337938832,6.467535380043399 L69.0,-0.0" fill="brown" fill-opacity="0.6" stroke="black" stroke-width="1" />
<path d="M75.0,-0.0 L71.31627337938832,-6.467535380043399 L69.0,-0.0" fill="green" fill-opacity="0.6" stroke="black" stroke-width="1" />
<path d="M69.0,-0.0 L65.68106634707004,8.042311381811047 L64.54453221782317,8.8578770011355" fill="green" fill-opacity="0.6" stroke="black" stroke-width="1" />
<path d="M69.0,-0.0 L65.68106634707004,-8.042311381811047 L64.54453221782317,-8.8578770011355" fill="red" fill-opacity="0.6" stroke="black" stroke-width="1" />
<path d="M65.68106634707004,8.042311381811047 L64.54453221782317,8.8578770011355 L62.0,-0.0" fill="blue" fill-opacity="0.6" stroke="black" stroke-width="1" />
<path d="M65.68106634707004,-8.042311381811047 L64.54453221782317,-8.8578770011355 L62.0,-0.0" fill="purple" fill-opacity="0.6" stroke="black" stroke-width="1" />
<path d="M55.0,45.0 L58.0,42.0 L66.0,34.0" fill="red" fill-opacity="0.6" stroke="black" stroke-width="1" />
<path d="M55.0,-45.0 L58.0,-42.0 L66.0,-34.0" fill="yellow" fill-opacity="0.6" stroke="black" stroke-width="1" />
<path d="M50.0,50.0 L55.0,45.0 L58.0,42.0" fill="yellow" fill-opacity="0.6" stroke="black" stroke-width="1" />
<path d="M50.0,-50.0 L55.0,-45.0 L58.0,-42.0" fill="green" fill-opacity="0.6" stroke="black" stroke-width="1" />
<path d="M50.0,13.0 L63.731647862951476,14.150591017334682 L50.0,19.0" fill="green" fill-opacity="0.6" stroke="black" stroke-width="1" />
<path d="M50.0,-13.0 L63.731647862951476,-14.150591017334682 L50.0,-19.0" fill="orange" fill-opacity="0.6" stroke="black" stroke-width="1" />
<path d="M50.0,19.0 L61.67126798580382,20.52615698817299 L59.793221746020336,22.792807234051697" fill="green" fill-opacity="0.6" stroke="black" stroke-width="1" />
<path d="M50.0,-19.0 L61.67126798580382,-20.52615698817299 L59.793221746020336,-22.792807234051697" fill="green" fill-opacity="0.6" stroke="black" stroke-width="1" />
<path d="M61.67126798580382,20.52615698817299 L59.793221746020336,22.792807234051697 L57.62019304512742,27.15793427398814" fill="purple" fill-opacity="0.6" stroke="black" stroke-width="1" />
<path d="M61.67126798580382,-20.52615698817299 L59.793221746020336,-22.792807234051697 L57.62019304512742,-27.15793427398814" fill="yellow" fill-opacity="0.6" stroke="black" stroke-width="1" />
<path d="M59.793221746020336,22.792807234051697 L57.62019304512742,27.15793427398814 L50.0,29.0" fill="pink" fill-opacity="0.6" stroke="black" stroke-width="1" />
<path d="M59.793221746020336,-22.792807234051697 L57.62019304512742,-27.15793427398814 L50.0,-29.0" fill="orange" fill-opacity="0.6" stroke="black" stroke-width="1" />
<path d="M58.0,42.0 L66.0,34.0 L71.0,29.0" fill="black" fill-opacity="0.6" stroke="black" stroke-width="1" />
<path d="M58.0,-42.0 L66.0,-34.0 L71.0,-29.0" fill="red" fill-opacity="0.6" stroke="black" stroke-width="1" />
<path d="M66.0,34.0 L71.0,29.0 L77.0,23.0" fill="green" fill-opacity="0.6" stroke="black" stroke-width="1" />
<path d="M66.0,-34.0 L71.0,-29.0 L77.0,-23.0" fill="purple" fill-opacity="0.6" stroke="black" stroke-width="1" />
<path d="M71.0,29.0 L77.0,23.0 L91.0,9.0" fill="brown" fill-opacity="0.6" stroke="black" stroke-width="1" />
<path d="M71.0,-29.0 L77.0,-23.0 L91.0,-9.0" fill="blue" fill-opacity="0.6" stroke="black" stroke-width="1" />
<path d="M77.0,23.0 L91.0,9.0 L92.15770784484211,4.092486026838163" fill="brown" fill-opacity="0.6" stroke="black" stroke-width="1" />
<path d="M77.0,-23.0 L91.0,-9.0 L92.15770784484211,-4.092486026838163" fill="red" fill-opacity="0.6" stroke="black" stroke-width="1" />
<path d="M91.0,9.0 L92.15770784484211,4.092486026838163 L93.0,7.0" fill="red" fill-opacity="0.6" stroke="black" stroke-width="1" />
<path d="M91.0,-9.0 L92.15770784484211,-4.092486026838163 L93.0,-7.0" fill="green" fill-opacity="0.6" stroke="black" stroke-width="1" />
<path d="M92.15770784484211,4.092486026838163 L93.0,7.0 L97.0,3.0" fill="pink" fill-opacity="0.6" stroke="black" stroke-width="1" />
<path d="M92.15770784484211,-4.092486026838163 L93.0,-7.0 L97.0,-3.0" fill="blue" fill-opacity="0.6" stroke="black" stroke-width="1" />
<path d="M93.0,7.0 L97.0,3.0 L100.0,-0.0" fill="green" fill-opacity="0.6" stroke="black" stroke-width="1" />
<path d="M93.0,-7.0 L97.0,-3.0 L100.0,-0.0" fill="purple" fill-opacity="0.6" stroke="black" stroke-width="1" />
<path d="M0.0,-14.0 L4.0982629581068295,-14.084040495778787 L4.861999004676208,-15.035603166084643" fill="green" fill-opacity="0.6" stroke="black" stroke-width="1" />
<path d="M0.0,14.0 L4.0982629581068295,14.084040495778787 L4.861999004676208,15.035603166084643" fill="blue" fill-opacity="0.6" stroke="black" stroke-width="1" />
<path d="M0.0,86.0 L4.0982629581068295,85.9159595042212 L4.861999004676208,84.96439683391536" fill="yellow" fill-opacity="0.6" stroke="black" stroke-width="1" />
<path d="M0.0,-86.0 L4.0982629581068295,-85.9159595042212 L4.861999004676208,-84.96439683391536" fill="blue" fill-opacity="0.6" stroke="black" stroke-width="1" />
<path d="M4.0982629581068295,-14.084040495778787 L4.861999004676208,-15.035603166084643 L5.924006848744777,-18.621420237889126" fill="purple" fill-opacity="0.6" stroke="black" stroke-width="1" />
<path d="M4.0982629581068295,14.084040495778787 L4.861999004676208,15.035603166084643 L5.924006848744777,18.621420237889126" fill="black" fill-opacity="0.6" stroke="black" stroke-width="1" />
<path d="M4.0982629581068295,85.9159595042212 L4.861999004676208,84.96439683391536 L5.924006848744777,81.37857976211087" fill="purple" fill-opacity="0.6" stroke="black" stroke-width="1" />
<path d="M4.0982629581068295,-85.9159595042212 L4.861999004676208,-84.96439683391536 L5.924006848744777,-81.37857976211087" fill="purple" fill-opacity="0.6" stroke="black" stroke-width="1" />
<path d="M4.861999004676208,-15.035603166084643 L5.924006848744777,-18.621420237889126 L0.0,-25.0" fill="orange" fill-opacity="0.6" stroke="black" stroke-width="1" />
<path d="M4.861999004676208,15.035603166084643 L5.924006848744777,18.621420237889126 L0.0,25.0" fill="black" fill-opacity="0.6" stroke="black" stroke-width="1" />
<path d="M4.861999004676208,84.96439683391536 L5.924006848744777,81.37857976211087 L0.0,75.0" fill="orange" fill-opacity="0.6" stroke="black" stroke-width="1" />
<path d="M4.861999004676208,-84.96439683391536 L5.924006848744777,-81.37857976211087 L0.0,-75.0" fill="orange" fill-opacity="0.6" stroke="black" stroke-width="1" />
<path d="M0.0,-25.0 L6.467535380043399,-28.68372662061168 L0.0,-31.0" fill="red" fill-opacity="0.6" stroke="black" stroke-width="1" />
<path d="M0.0,25.0 L6.467535380043399,28.68372662061168 L0.0,31.0" fill="brown" fill-opacity="0.6" stroke="black" stroke-width="1" />
<path d="M0.0,75.0 L6.467535380043399,71.31627337938832 L0.0,69.0" fill="green" fill-opacity="0.6" stroke="black" stroke-width="1" />
<path d="M0.0,-75.0 L6.467535380043399,-71.31627337938832 L0.0,-69.0" fill="orange" fill-opacity="0.6" stroke="black" stroke-width="1" />
<path d="M0.0,-31.0 L8.042311381811047,-34.31893365292996 L8.8578770011355,-35.455467782176825" fill="green" fill-opacity="0.6" stroke="black" stroke-width="1" />
<path d="M0.0,31.0 L8.042311381811047,34.31893365292996 L8.8578770011355,35.455467782176825" fill="pink" fill-opacity="0.6" stroke="black" stroke-width="1" />
<path d="M0.0,69.0 L8.042311381811047,65.68106634707004 L8.8578770011355,64.54453221782317" fill="green" fill-opacity="0.6" stroke="black" stroke-width="1" />
<path d="M0.0,-69.0 L8.042311381811047,-65.68106634707004 L8.8578770011355,-64.54453221782317" fill="blue" fill-opacity="0.6" stroke="black" stroke-width="1" />
<path d="M8.042311381811047,-34.31893365292996 L8.8578770011355,-35.455467782176825 L0.0,-38.0" fill="blue" fill-opacity="0.6" stroke="black" stroke-width="1" />
<path d="M8.042311381811047,34.31893365292996 L8.8578770011355,35.455467782176825 L0.0,38.0" fill="yellow" fill-opacity="0.6" stroke="black" stroke-width="1" />
<path d="M8.042311381811047,65.68106634707004 L8.8578770011355,64.54453221782317 L0.0,62.0" fill="green" fill-opacity="0.6" stroke="black" stroke-width="1" />
<path d="M8.042311381811047,-65.68106634707004 L8.8578770011355,-64.54453221782317 L0.0,-62.0" fill="orange" fill-opacity="0.6" stroke="black" stroke-width="1" />
<path d="M13.0,-50.0 L14.150591017334682,-36.268352137048524 L19.0,-50.0" fill="brown" fill-opacity="0.6" stroke="black" stroke-width="1" />
<path d="M13.0,50.0 L14.150591017334682,36.268352137048524 L19.0,50.0" fill="purple" fill-opacity="0.6" stroke="black" stroke-width="1" />
<path d="M13.0,50.0 L14.150591017334682,63.731647862951476 L19.0,50.0" fill="orange" fill-opacity="0.6" stroke="black" stroke-width="1" />
<path d="M13.0,-50.0 L14.150591017334682,-63.731647862951476 L19.0,-50.0" fill="purple" fill-opacity="0.6" stroke="black" stroke-width="1" />
<path d="M19.0,-50.0 L20.52615698817299,-38.32873201419618 L22.792807234051697,-40.206778253979664" fill="blue" fill-opacity="0.6" stroke="black" stroke-width="1" />
<path d="M19.0,50.0 L20.52615698817299,38.32873201419618 L22.792807234051697,40.206778253979664" fill="pink" fill-opacity="0.6" stroke="black" stroke-width="1" />
<path d="M19.0,50.0 L20.52615698817299,61.67126798580382 L22.792807234051697,59.793221746020336" fill="blue" fill-opacity="0.6" stroke="black" stroke-width="1" />
<path d="M19.0,-50.0 L20.52615698817299,-61.67126798580382 L22.792807234051697,-59.793221746020336" fill="brown" fill-opacity="0.6" stroke="black" stroke-width="1" />
<path d="M20.52615698817299,-38.32873201419618 L22.792807234051697,-40.206778253979664 L27.15793427398814,-42.37980695487258" fill="red" fill-opacity="0.6" stroke="black" stroke-width="1" />
<path d="M20.52615698817299,38.32873201419618 L22.792807234051697,40.206778253979664 L27.15793427398814,42.37980695487258" fill="blue" fill-opacity="0.6" stroke="black" stroke-width="1" />
<path d="M20.52615698817299,61.67126798580382 L22.792807234051697,59.793221746020336 L27.15793427398814,57.62019304512742" fill="blue" fill-opacity="0.6" stroke="black" stroke-width="1" />
<path d="M20.52615698817299,-61.67126798580382 L22.792807234051697,-59.793221746020336 L27.15793427398814,-57.62019304512742" fill="yellow" fill-opacity="0.6" stroke="black" stroke-width="1" />
<path d="M22.792807234051697,-40.206778253979664 L27.15793427398814,-42.37980695487258 L29.0,-50.0" fill="red" fill-opacity="0.6" stroke="black" stroke-width="1" />
<path d="M22.792807234051697,40.206778253979664 L27.15793427398814,42.37980695487258 L29.0,50.0" fill="orange" fill-opacity="0.6" stroke="black" stroke-width="1" />
<path d="M22.792807234051697,59.793221746020336 L27.15793427398814,57.62019304512742 L29.0,50.0" fill="orange" fill-opacity="0.6" stroke="black" stroke-width="1" />
<path d="M22.792807234051697,-59.793221746020336 L27.15793427398814,-57.62019304512742 L29.0,-50.0" fill="pink" fill-opacity="0.6" stroke="black" stroke-width="1" />
<path d="M9.0,-9.0 L4.092486026838163,-7.842292155157892 L7.0,-7.0" fill="pink" fill-opacity="0.6" stroke="black" stroke-width="1" />
<path d="M9.0,9.0 L4.092486026838163,7.842292155157892 L7.0,7.0" fill="green" fill-opacity="0.6" stroke="black" stroke-width="1" />
<path d="M9.0,91.0 L4.092486026838163,92.15770784484211 L7.0,93.0" fill="purple" fill-opacity="0.6" stroke="black" stroke-width="1" />
<path d="M9.0,-91.0 L4.092486026838163,-92.15770784484211 L7.0,-93.0" fill="red" fill-opacity="0.6" stroke="black" stroke-width="1" />
<path d="M0.0,86.0 L-4.0982629581068295,85.9159595042212 L-4.861999004676208,84.96439683391536" fill="green" fill-opacity="0.6" stroke="black" stroke-width="1" />
<path d="M0.0,-14.0 L-4.0982629581068295,-14.084040495778787 L-4.861999004676208,-15.035603166084643" fill="brown" fill-opacity="0.6" stroke="black" stroke-width="1" />
<path d="M0.0,14.0 L-4.0982629581068295,14.084040495778794 L-4.861999004676208,15.035603166084641" fill="pink" fill-opacity="0.6" stroke="black" stroke-width="1" />
<path d="M0.0,-86.0 L-4.0982629581068295,-85.9159595042212 L-4.861999004676208,-84.96439683391536" fill="pink" fill-opacity="0.6" stroke="black" stroke-width="1" />
<path d="M-4.0982629581068295,85.9159595042212 L-4.861999004676208,84.96439683391536 L-5.924006848744777,81.37857976211087" fill="yellow" fill-opacity="0.6" stroke="black" stroke-width="1" />
<path d="M-4.0982629581068295,-14.084040495778787 L-4.861999004676208,-15.035603166084643 L-5.924006848744777,-18.621420237889126" fill="red" fill-opacity="0.6" stroke="black" stroke-width="1" />
<path d="M-4.0982629581068295,14.084040495778794 L-4.861999004676208,15.035603166084641 L-5.924006848744777,18.621420237889126" fill="green" fill-opacity="0.6" stroke="black" stroke-width="1" />
<path d="M-4.0982629581068295,-85.9159595042212 L-4.861999004676208,-84.96439683391536 L-5.924006848744777,-81.37857976211087" fill="green" fill-opacity="0.6" stroke="black" stroke-width="1" />
<path d="M-4.861999004676208,84.96439683391536 L-5.924006848744777,81.37857976211087 L0.0,75.0" fill="green" fill-opacity="0.6" stroke="black" stroke-width="1" />
<path d="M-4.861999004676208,-15.035603166084643 L-5.924006848744777,-18.621420237889126 L0.0,-25.0" fill="brown" fill-opacity="0.6" stroke="black" stroke-width="1" />
<path d="M-4.861999004676208,15.035603166084641 L-5.924006848744777,18.621420237889126 L0.0,25.0" fill="blue" fill-opacity="0.6" stroke="black" stroke-width="1" />
<path d="M-4.861999004676208,-84.96439683391536 L-5.924006848744777,-81.37857976211087 L0.0,-75.0" fill="yellow" fill-opacity="0.6" stroke="black" stroke-width="1" />
<path d="M0.0,75.0 L-6.467535380043399,71.31627337938832 L0.0,69.0" fill="green" fill-opacity="0.6" stroke="black" stroke-width="1" />
<path d="M0.0,-25.0 L-6.467535380043399,-28.68372662061168 L0.0,-31.0" fill="green" fill-opacity="0.6" stroke="black" stroke-width="1" />
<path d="M0.0,25.0 L-6.467535380043399,28.68372662061168 L0.0,31.0" fill="yellow" fill-opacity="0.6" stroke="black" stroke-width="1" />
<path d="M0.0,-75.0 L-6.467535380043399,-71.31627337938832 L0.0,-69.0" fill="brown" fill-opacity="0.6" stroke="black" stroke-width="1" />
<path d="M0.0,69.0 L-8.042311381811047,65.68106634707004 L-8.8578770011355,64.54453221782317" fill="blue" fill-opacity="0.6" stroke="black" stroke-width="1" />
<path d="M0.0,-31.0 L-8.042311381811047,-34.31893365292996 L-8.8578770011355,-35.455467782176825" fill="yellow" fill-opacity="0.6" stroke="black" stroke-width="1" />
<path d="M0.0,31.0 L-8.042311381811047,34.31893365292996 L-8.8578770011355,35.455467782176825" fill="green" fill-opacity="0.6" stroke="black" stroke-width="1" />
<path d="M0.0,-69.0 L-8.042311381811047,-65.68106634707004 L-8.8578770011355,-64.54453221782317" fill="orange" fill-opacity="0.6" stroke="black" stroke-width="1" />
<path d="M-8.042311381811047,65.68106634707004 L-8.8578770011355,64.54453221782317 L0.0,62.0" fill="brown" fill-opacity="0.6" stroke="black" stroke-width="1" />
<path d="M-8.042311381811047,-34.31893365292996 L-8.8578770011355,-35.455467782176825 L0.0,-38.0" fill="yellow" fill-opacity="0.6" stroke="black" stroke-width="1" />
<path d="M-8.042311381811047,34.31893365292996 L-8.8578770011355,35.455467782176825 L0.0,38.0" fill="orange" fill-opacity="0.6" stroke="black" stroke-width="1" />
<path d="M-8.042311381811047,-65.68106634707004 L-8.8578770011355,-64.54453221782317 L0.0,-62.0" fill="black" fill-opacity="0.6" stroke="black" stroke-width="1" />
<path d="M-13.0,50.0 L-14.150591017334682,63.731647862951476 L-19.0,50.0" fill="green" fill-opacity="0.6" stroke="black" stroke-width="1" />
<path d="M-13.0,-50.0 L-14.150591017334682,-36.268352137048524 L-19.0,-50.0" fill="blue" fill-opacity="0.6" stroke="black" stroke-width="1" />
<path d="M-13.0,50.0 L-14.150591017334682,36.268352137048524 L-19.0,50.0" fill="red" fill-opacity="0.6" stroke="black" stroke-width="1" />
<path d="M-13.0,-50.0 L-14.150591017334682,-63.731647862951476 L-19.0,-50.0" fill="brown" fill-opacity="0.6" stroke="black" stroke-width="1" />
<path d="M-19.0,50.0 L-20.52615698817299,61.67126798580382 L-22.792807234051697,59.793221746020336" fill="green" fill-opacity="0.6" stroke="black" stroke-width="1" />
<path d="M-19.0,-50.0 L-20.52615698817299,-38.32873201419618 L-22.792807234051697,-40.206778253979664" fill="pink" fill-opacity="0.6" stroke="black" stroke-width="1" />
<path d="M-19.0,50.0 L-20.52615698817299,38.32873201419618 L-22.792807234051697,40.206778253979664" fill="black" fill-opacity="0.6" stroke="black" stroke-width="1" />
<path d="M-19.0,-50.0 L-20.52615698817299,-61.67126798580382 L-22.792807234051697,-59.793221746020336" fill="brown" fill-opacity="0.6" stroke="black" stroke-width="1" />
<path d="M-20.52615698817299,61.67126798580382 L-22.792807234051697,59.793221746020336 L-27.15793427398814,57.62019304512742" fill="black" fill-opacity="0.6" stroke="black" stroke-width="1" />
<path d="M-20.52615698817299,-38.32873201419618 L-22.792807234051697,-40.206778253979664 L-27.15793427398814,-42.37980695487258" fill="green" fill-opacity="0.6" stroke="black" stroke-width="1" />
<path d="M-20.52615698817299,38.32873201419618 L-22.792807234051697,40.206778253979664 L-27.15793427398814,42.37980695487258" fill="pink" fill-opacity="0.6" stroke="black" stroke-width="1" />
<path d="M-20.52615698817299,-61.67126798580382 L-22.792807234051697,-59.793221746020336 L-27.15793427398814,-57.62019304512742" fill="blue" fill-opacity="0.6" stroke="black" stroke-width="1" />
<path d="M-22.792807234051697,59.793221746020336 L-27.15793427398814,57.62019304512742 L-29.0,50.0" fill="purple" fill-opacity="0.6" stroke="black" stroke-width="1" />
<path d="M-22.792807234051697,-40.206778253979664 L-27.15793427398814,-42.37980695487258 L-29.0,-50.0" fill="purple" fill-opacity="0.6" stroke="black" stroke-width="1" />
<path d="M-22.792807234051697,40.206778253979664 L-27.15793427398814,42.37980695487258 L-29.0,50.0" fill="pink" fill-opacity="0.6" stroke="black" stroke-width="1" />
<path d="M-22.792807234051697,-59.793221746020336 L-27.15793427398814,-57.62019304512742 L-29.0,-50.0" fill="blue" fill-opacity="0.6" stroke="black" stroke-width="1" />
<path d="M-9.0,91.0 L-4.092486026838163,92.15770784484211 L-7.0,93.0" fill="orange" fill-opacity="0.6" stroke="black" stroke-width="1" />
<path d="M-9.0,-9.0 L-4.092486026838163,-7.842292155157892 L-7.0,-7.0" fill="blue" fill-opacity="0.6" stroke="black" stroke-width="1" />
<path d="M-9.0,9.0 L-4.092486026838163,7.842292155157892 L-7.0,7.0" fill="purple" fill-opacity="0.6" stroke="black" stroke-width="1" />
<path d="M-9.0,-91.0 L-4.092486026838163,-92.15770784484211 L-7.0,-93.0" fill="yellow" fill-opacity="0.6" stroke="black" stroke-width="1" />
<path d="M-86.0,-0.0 L-85.9159595042212,-4.0982629581068295 L-84.96439683391536,-4.861999004676208" fill="brown" fill-opacity="0.6" stroke="black" stroke-width="1" />
<path d="M-86.0,-0.0 L-85.9159595042212,4.0982629581068295 L-84.96439683391536,4.861999004676208" fill="red" fill-opacity="0.6" stroke="black" stroke-width="1" />
<path d="M-85.9159595042212,-4.0982629581068295 L-84.96439683391536,-4.861999004676208 L-81.37857976211087,-5.924006848744777" fill="red" fill-opacity="0.6" stroke="black" stroke-width="1" />
<path d="M-85.9159595042212,4.0982629581068295 L-84.96439683391536,4.861999004676208 L-81.37857976211087,5.924006848744777" fill="brown" fill-opacity="0.6" stroke="black" stroke-width="1" />
<path d="M-84.96439683391536,-4.861999004676208 L-81.37857976211087,-5.924006848744777 L-75.0,-0.0" fill="red" fill-opacity="0.6" stroke="black" stroke-width="1" />
<path d="M-84.96439683391536,4.861999004676208 L-81.37857976211087,5.924006848744777 L-75.0,-0.0" fill="blue" fill-opacity="0.6" stroke="black" stroke-width="1" />
<path d="M-75.0,-0.0 L-71.31627337938832,-6.467535380043399 L-69.0,-0.0" fill="brown" fill-opacity="0.6" stroke="black" stroke-width="1" />
<path d="M-75.0,-0.0 L-71.31627337938832,6.467535380043399 L-69.0,-0.0" fill="blue" fill-opacity="0.6" stroke="black" stroke-width="1" />
<path d="M-69.0,-0.0 L-65.68106634707004,-8.042311381811047 L-64.54453221782317,-8.8578770011355" fill="green" fill-opacity="0.6" stroke="black" stroke-width="1" />
<path d="M-69.0,-0.0 L-65.68106634707004,8.042311381811047 L-64.54453221782317,8.8578770011355" fill="yellow" fill-opacity="0.6" stroke="black" stroke-width="1" />
<path d="M-65.68106634707004,-8.042311381811047 L-64.54453221782317,-8.8578770011355 L-62.0,-0.0" fill="purple" fill-opacity="0.6" stroke="black" stroke-width="1" />
<path d="M-65.68106634707004,8.042311381811047 L-64.54453221782317,8.8578770011355 L-62.0,-0.0" fill="red" fill-opacity="0.6" stroke="black" stroke-width="1" />
<path d="M-55.0,-45.0 L-58.0,-42.0 L-66.0,-34.0" fill="brown" fill-opacity="0.6" stroke="black" stroke-width="1" />
<path d="M-55.0,45.0 L-58.0,42.0 L-66.0,34.0" fill="yellow" fill-opacity="0.6" stroke="black" stroke-width="1" />
<path d="M-50.0,-50.0 L-55.0,-45.0 L-58.0,-42.0" fill="black" fill-opacity="0.6" stroke="black" stroke-width="1" />
<path d="M-50.0,50.0 L-55.0,45.0 L-58.0,42.0" fill="brown" fill-opacity="0.6" stroke="black" stroke-width="1" />
<path d="M-50.0,-13.0 L-63.731647862951476,-14.150591017334682 L-50.0,-19.0" fill="blue" fill-opacity="0.6" stroke="black" stroke-width="1" />
<path d="M-50.0,13.0 L-63.731647862951476,14.150591017334682 L-50.0,19.0" fill="red" fill-opacity="0.6" stroke="black" stroke-width="1" />
<path d="M-50.0,-19.0 L-61.67126798580382,-20.52615698817299 L-59.793221746020336,-22.792807234051697" fill="green" fill-opacity="0.6" stroke="black" stroke-width="1" />
<path d="M-50.0,19.0 L-61.67126798580382,20.52615698817299 L-59.793221746020336,22.792807234051697" fill="orange" fill-opacity="0.6" stroke="black" stroke-width="1" />
<path d="M-61.67126798580382,-20.52615698817299 L-59.793221746020336,-22.792807234051697 L-57.62019304512742,-27.15793427398814" fill="brown" fill-opacity="0.6" stroke="black" stroke-width="1" />
<path d="M-61.67126798580382,20.52615698817299 L-59.793221746020336,22.792807234051697 L-57.62019304512742,27.15793427398814" fill="orange" fill-opacity="0.6" stroke="black" stroke-width="1" />
<path d="M-59.793221746020336,-22.792807234051697 L-57.62019304512742,-27.15793427398814 L-50.0,-29.0" fill="red" fill-opacity="0.6" stroke="black" stroke-width="1" />
<path d="M-59.793221746020336,22.792807234051697 L-57.62019304512742,27.15793427398814 L-50.0,29.0" fill="purple" fill-opacity="0.6" stroke="black" stroke-width="1" />
<path d="M-58.0,-42.0 L-66.0,-34.0 L-71.0,-29.0" fill="brown" fill-opacity="0.6" stroke="black" stroke-width="1" />
<path d="M-58.0,42.0 L-66.0,34.0 L-71.0,29.0" fill="green" fill-opacity="0.6" stroke="black" stroke-width="1" />
<path d="M-66.0,-34.0 L-71.0,-29.0 L-77.0,-23.0" fill="red" fill-opacity="0.6" stroke="black" stroke-width="1" />
<path d="M-66.0,34.0 L-71.0,29.0 L-77.0,23.0" fill="red" fill-opacity="0.6" stroke="black" stroke-width="1" />
<path d="M-71.0,-29.0 L-77.0,-23.0 L-91.0,-9.0" fill="black" fill-opacity="0.6" stroke="black" stroke-width="1" />
<path d="M-71.0,29.0 L-77.0,23.0 L-91.0,9.0" fill="pink" fill-opacity="0.6" stroke="black" stroke-width="1" />
<path d="M-77.0,-23.0 L-91.0,-9.0 L-92.15770784484211,-4.092486026838163" fill="red" fill-opacity="0.6" stroke="black" stroke-width="1" />
<path d="M-77.0,23.0 L-91.0,9.0 L-92.15770784484211,4.092486026838163" fill="yellow" fill-opacity="0.6" stroke="black" stroke-width="1" />
<path d="M-91.0,-9.0 L-92.15770784484211,-4.092486026838163 L-93.0,-7.0" fill="purple" fill-opacity="0.6" stroke="black" stroke-width="1" />
<path d="M-91.0,9.0 L-92.15770784484211,4.092486026838163 L-93.0,7.0" fill="pink" fill-opacity="0.6" stroke="black" stroke-width="1" />
<path d="M-92.15770784484211,-4.092486026838163 L-93.0,-7.0 L-97.0,-3.0" fill="green" fill-opacity="0.6" stroke="black" stroke-width="1" />
<path d="M-92.15770784484211,4.092486026838163 L-93.0,7.0 L-97.0,3.0" fill="yellow" fill-opacity="0.6" stroke="black" stroke-width="1" />
<path d="M-93.0,-7.0 L-97.0,-3.0 L-100.0,-0.0" fill="purple" fill-opacity="0.6" stroke="black" stroke-width="1" />
<path d="M-93.0,7.0 L-97.0,3.0 L-100.0,-0.0" fill="brown" fill-opacity="0.6" stroke="black" stroke-width="1" />
</svg>