<?xml version="1.0" encoding="UTF-8"?>
<svg xmlns="http://www.w3.org/2000/svg" xmlns:xlink="http://www.w3.org/1999/xlink"
     width="250" height="250" viewBox="-125.0 -125.0 250 250">
<defs>
</defs>
<path d="M11.758621923808677,83.27243197804242 L15.0,85.0 L5.471663644741332,87.02415811456683" fill-opacity="0" stroke="black" stroke-width="1" />
<path d="M11.758621923808677,-83.27243197804242 L15.0,-85.0 L5.471663644741332,-87.02415811456683" fill-opacity="0" stroke="black" stroke-width="1" />
<path d="M50.0,-22.0 L44.02731544428553,-23.079766458036318 L50.0,-24.0" fill-opacity="0" stroke="black" stroke-width="1" />
<path d="M50.0,22.0 L44.02731544428553,23.079766458036318 L50.0,24.0" fill-opacity="0" stroke="black" stroke-width="1" />
<path d="M50.0,-27.0 L48.61274726312999,-29.01676799616537 L50.0,-30.0" fill-opacity="0" stroke="black" stroke-width="1" />
<path d="M50.0,27.0 L48.61274726312999,29.01676799616537 L50.0,30.0" fill-opacity="0" stroke="black" stroke-width="1" />
<path d="M50.0,50.0 L38.0,62.0 L33.0,67.0" fill-opacity="0" stroke="black" stroke-width="1" />
<path d="M50.0,-50.0 L38.0,-62.0 L33.0,-67.0" fill-opacity="0" stroke="black" stroke-width="1" />
<path d="M33.0,67.0 L31.0,69.0 L19.83552871004438,75.3125832792119" fill-opacity="0" stroke="black" stroke-width="1" />
<path d="M33.0,-67.0 L31.0,-69.0 L19.83552871004438,-75.3125832792119" fill-opacity="0" stroke="black" stroke-width="1" />
<path d="M31.0,-31.0 L24.687416720788097,-19.83552871004438 L21.45086991125579,-16.43524008627334" fill-opacity="0" stroke="black" stroke-width="1" />
<path d="M31.0,31.0 L24.687416720788097,19.83552871004438 L21.45086991125579,16.43524008627334" fill-opacity="0" stroke="black" stroke-width="1" />
<path d="M24.687416720788097,-19.83552871004438 L21.45086991125579,-16.43524008627334 L21.39054563547817,-14.474441037932545" fill-opacity="0" stroke="black" stroke-width="1" />
<path d="M24.687416720788097,19.83552871004438 L21.45086991125579,16.43524008627334 L21.39054563547817,14.474441037932545" fill-opacity="0" stroke="black" stroke-width="1" />
<path d="M21.45086991125579,-16.43524008627334 L21.39054563547817,-14.474441037932545 L21.016312461481302,-13.305807140666753" fill-opacity="0" stroke="black" stroke-width="1" />
<path d="M21.45086991125579,16.43524008627334 L21.39054563547817,14.474441037932545 L21.016312461481302,13.305807140666753" fill-opacity="0" stroke="black" stroke-width="1" />
<path d="M21.39054563547817,-14.474441037932545 L21.016312461481302,-13.305807140666753 L16.727568021957584,-11.758621923808677" fill-opacity="0" stroke="black" stroke-width="1" />
<path d="M21.39054563547817,14.474441037932545 L21.016312461481302,13.305807140666753 L16.727568021957584,11.758621923808677" fill-opacity="0" stroke="black" stroke-width="1" />
<path d="M21.016312461481302,-13.305807140666753 L16.727568021957584,-11.758621923808677 L15.0,-15.0" fill-opacity="0" stroke="black" stroke-width="1" />
<path d="M21.016312461481302,13.305807140666753 L16.727568021957584,11.758621923808677 L15.0,15.0" fill-opacity="0" stroke="black" stroke-width="1" />
<path d="M15.0,-15.0 L12.975841885433164,-5.471663644741332 L10.0,-10.0" fill-opacity="0" stroke="black" stroke-width="1" />
<path d="M15.0,15.0 L12.975841885433164,5.471663644741332 L10.0,10.0" fill-opacity="0" stroke="black" stroke-width="1" />
<path d="M5.471663644741332,87.02415811456683 L10.0,90.0 L1.5857785636648178,90.60847266112376" fill-opacity="0" stroke="black" stroke-width="1" />
<path d="M5.471663644741332,-87.02415811456683 L10.0,-90.0 L1.5857785636648178,-90.60847266112376" fill-opacity="0" stroke="black" stroke-width="1" />
<path d="M10.0,-10.0 L9.391527338876237,-1.5857785636648178 L6.0,-6.0" fill-opacity="0" stroke="black" stroke-width="1" />
<path d="M10.0,10.0 L9.391527338876237,1.5857785636648178 L6.0,6.0" fill-opacity="0" stroke="black" stroke-width="1" />
<path d="M1.5857785636648178,90.60847266112376 L6.0,94.0 L1.4484899973127394,94.58291234967308" fill-opacity="0" stroke="black" stroke-width="1" />
<path d="M1.5857785636648178,-90.60847266112376 L6.0,-94.0 L1.4484899973127394,-94.58291234967308" fill-opacity="0" stroke="black" stroke-width="1" />
<path d="M6.0,-6.0 L5.41708765032693,-1.4484899973127394 L5.225454646068445,-0.8611114992094465" fill-opacity="0" stroke="black" stroke-width="1" />
<path d="M6.0,6.0 L5.41708765032693,1.4484899973127394 L5.225454646068445,0.8611114992094465" fill-opacity="0" stroke="black" stroke-width="1" />
<path d="M5.41708765032693,-1.4484899973127394 L5.225454646068445,-0.8611114992094465 L4.0,-4.0" fill-opacity="0" stroke="black" stroke-width="1" />
<path d="M5.41708765032693,1.4484899973127394 L5.225454646068445,0.8611114992094465 L4.0,4.0" fill-opacity="0" stroke="black" stroke-width="1" />
<path d="M0.8611114992094465,94.77454535393156 L4.0,96.0 L0.1397254006475248,99.05021293844567" fill-opacity="0" stroke="black" stroke-width="1" />
<path d="M0.8611114992094465,-94.77454535393156 L4.0,-96.0 L0.1397254006475248,-99.05021293844567" fill-opacity="0" stroke="black" stroke-width="1" />
<path d="M4.0,-4.0 L0.9497870615543358,-0.1397254006475248 L0.0,-0.0" fill-opacity="0" stroke="black" stroke-width="1" />
<path d="M4.0,4.0 L0.9497870615543358,0.1397254006475248 L0.0,-0.0" fill-opacity="0" stroke="black" stroke-width="1" />
<path d="M-11.758621923808677,83.27243197804242 L-15.0,85.0 L-5.471663644741332,87.02415811456683" fill-opacity="0" stroke="black" stroke-width="1" />
<path d="M-11.758621923808677,-83.27243197804242 L-15.0,-85.0 L-5.471663644741332,-87.02415811456683" fill-opacity="0" stroke="black" stroke-width="1" />
<path d="M-50.0,-22.0 L-44.02731544428553,-23.079766458036318 L-50.0,-24.0" fill-opacity="0" stroke="black" stroke-width="1" />
<path d="M-50.0,22.0 L-44.02731544428553,23.079766458036318 L-50.0,24.0" fill-opacity="0" stroke="black" stroke-width="1" />
<path d="M-50.0,-27.0 L-48.61274726312999,-29.01676799616537 L-50.0,-30.0" fill-opacity="0" stroke="black" stroke-width="1" />
<path d="M-50.0,27.0 L-48.61274726312999,29.01676799616537 L-50.0,30.0" fill-opacity="0" stroke="black" stroke-width="1" />
<path d="M-50.0,50.0 L-38.0,62.0 L-33.0,67.0" fill-opacity="0" stroke="black" stroke-width="1" />
<path d="M-50.0,-50.0 L-38.0,-62.0 L-33.0,-67.0" fill-opacity="0" stroke="black" stroke-width="1" />
<path d="M-33.0,67.0 L-31.0,69.0 L-19.83552871004438,75.3125832792119" fill-opacity="0" stroke="black" stroke-width="1" />
<path d="M-33.0,-67.0 L-31.0,-69.0 L-19.83552871004438,-75.3125832792119" fill-opacity="0" stroke="black" stroke-width="1" />
<path d="M-31.0,-31.0 L-24.687416720788097,-19.83552871004438 L-21.45086991125579,-16.43524008627334" fill-opacity="0" stroke="black" stroke-width="1" />
<path d="M-31.0,31.0 L-24.687416720788097,19.83552871004438 L-21.45086991125579,16.43524008627334" fill-opacity="0" stroke="black" stroke-width="1" />
<path d="M-24.687416720788097,-19.83552871004438 L-21.45086991125579,-16.43524008627334 L-21.39054563547817,-14.474441037932545" fill-opacity="0" stroke="black" stroke-width="1" />
<path d="M-24.687416720788097,19.83552871004438 L-21.45086991125579,16.43524008627334 L-21.39054563547817,14.474441037932545" fill-opacity="0" stroke="black" stroke-width="1" />
<path d="M-21.45086991125579,-16.43524008627334 L-21.39054563547817,-14.474441037932545 L-21.016312461481302,-13.305807140666753" fill-opacity="0" stroke="black" stroke-width="1" />
<path d="M-21.45086991125579,16.43524008627334 L-21.39054563547817,14.474441037932545 L-21.016312461481302,13.305807140666753" fill-opacity="0" stroke="black" stroke-width="1" />
<path d="M-21.39054563547817,-14.474441037932545 L-21.016312461481302,-13.305807140666753 L-16.727568021957584,-11.758621923808677" fill-opacity="0" stroke="black" stroke-width="1" />
<path d="M-21.39054563547817,14.474441037932545 L-21.016312461481302,13.305807140666753 L-16.727568021957584,11.758621923808677" fill-opacity="0" stroke="black" stroke-width="1" />
<path d="M-21.016312461481302,-13.305807140666753 L-16.727568021957584,-11.758621923808677 L-15.0,-15.0" fill-opacity="0" stroke="black" stroke-width="1" />
<path d="M-21.016312461481302,13.305807140666753 L-16.727568021957584,11.758621923808677 L-15.0,15.0" fill-opacity="0" stroke="black" stroke-width="1" />
<path d="M-15.0,-15.0 L-12.975841885433164,-5.471663644741332 L-10.0,-10.0" fill-opacity="0" stroke="black" stroke-width="1" />
<path d="M-15.0,15.0 L-12.975841885433164,5.471663644741332 L-10.0,10.0" fill-opacity="0" stroke="black" stroke-width="1" />
<path d="M-5.471663644741332,87.02415811456683 L-10.0,90.0 L-1.5857785636648178,90.60847266112376" fill-opacity="0" stroke="black" stroke-width="1" />
<path d="M-5.471663644741332,-87.02415811456683 L-10.0,-90.0 L-1.5857785636648178,-90.60847266112376" fill-opacity="0" stroke="black" stroke-width="1" />
<path d="M-10.0,-10.0 L-9.391527338876237,-1.5857785636648178 L-6.0,-6.0" fill-opacity="0" stroke="black" stroke-width="1" />
<path d="M-10.0,10.0 L-9.391527338876237,1.5857785636648178 L-6.0,6.0" fill-opacity="0" stroke="black" stroke-width="1" />
<path d="M-1.5857785636648178,90.60847266112376 L-6.0,94.0 L-1.4484899973127394,94.58291234967307" fill-opacity="0" stroke="black" stroke-width="1" />
<path d="M-1.5857785636648178,-90.60847266112376 L-6.0,-94.0 L-1.4484899973127394,-94.58291234967308" fill-opacity="0" stroke="black" stroke-width="1" />
<path d="M-6.0,-6.0 L-5.41708765032693,-1.4484899973127394 L-5.225454646068445,-0.8611114992094465" fill-opacity="0" stroke="black" stroke-width="1" />
<path d="M-6.0,6.0 L-5.41708765032693,1.4484899973127394 L-5.225454646068445,0.8611114992094465" fill-opacity="0" stroke="black" stroke-width="1" />
<path d="M-5.41708765032693,-1.4484899973127394 L-5.225454646068445,-0.8611114992094465 L-4.0,-4.0" fill-opacity="0" stroke="black" stroke-width="1" />
<path d="M-5.41708765032693,1.4484899973127394 L-5.225454646068445,0.8611114992094465 L-4.0,4.0" fill-opacity="0" stroke="black" stroke-width="1" />
<path d="M-0.8611114992094465,94.77454535393156 L-4.0,96.0 L-0.1397254006475248,99.05021293844567" fill-opacity="0" stroke="black" stroke-width="1" />
<path d="M-0.8611114992094465,-94.77454535393156 L-4.0,-96.0 L-0.1397254006475248,-99.05021293844567" fill-opacity="0" stroke="black" stroke-width="1" />
<path d="M-4.0,-4.0 L-0.9497870615543358,-0.1397254006475248 L0.0,-0.0" fill-opacity="0" stroke="black" stroke-width="1" />
<path d="M-4.0,4.0 L-0.9497870615543358,0.1397254006475248 L0.0,-0.0" fill-opacity="0" stroke="black" stroke-width="1" />
<path d="M83.27243197804242,11.758621923808677 L85.0,15.0 L87.02415811456683,5.471663644741332" fill-opacity="0" stroke="black" stroke-width="1" />
<path d="M83.27243197804242,-11.758621923808677 L85.0,-15.0 L87.02415811456683,-5.471663644741332" fill-opacity="0" stroke="black" stroke-width="1" />
<path d="M50.0,22.0 L55.97268455571447,23.079766458036318 L50.0,24.0" fill-opacity="0" stroke="black" stroke-width="1" />
<path d="M50.0,-22.0 L55.97268455571447,-23.079766458036318 L50.0,-24.0" fill-opacity="0" stroke="black" stroke-width="1" />
<path d="M50.0,27.0 L51.38725273687001,29.01676799616537 L50.0,30.0" fill-opacity="0" stroke="black" stroke-width="1" />
<path d="M50.0,-27.0 L51.38725273687001,-29.01676799616537 L50.0,-30.0" fill-opacity="0" stroke="black" stroke-width="1" />
<path d="M50.0,50.0 L62.0,38.0 L67.0,33.0" fill-opacity="0" stroke="black" stroke-width="1" />
<path d="M50.0,-50.0 L62.0,-38.0 L67.0,-33.0" fill-opacity="0" stroke="black" stroke-width="1" />
<path d="M67.0,33.0 L69.0,31.0 L75.3125832792119,19.83552871004438" fill-opacity="0" stroke="black" stroke-width="1" />
<path d="M67.0,-33.0 L69.0,-31.0 L75.3125832792119,-19.83552871004438" fill-opacity="0" stroke="black" stroke-width="1" />
<path d="M69.0,31.0 L75.3125832792119,19.83552871004438 L78.5491300887442,16.43524008627334" fill-opacity="0" stroke="black" stroke-width="1" />
<path d="M69.0,-31.0 L75.3125832792119,-19.83552871004438 L78.5491300887442,-16.43524008627334" fill-opacity="0" stroke="black" stroke-width="1" />
<path d="M75.3125832792119,19.83552871004438 L78.5491300887442,16.43524008627334 L78.60945436452184,14.474441037932545" fill-opacity="0" stroke="black" stroke-width="1" />
<path d="M75.3125832792119,-19.83552871004438 L78.5491300887442,-16.43524008627334 L78.60945436452184,-14.474441037932545" fill-opacity="0" stroke="black" stroke-width="1" />
<path d="M78.5491300887442,16.43524008627334 L78.60945436452184,14.474441037932545 L78.9836875385187,13.305807140666753" fill-opacity="0" stroke="black" stroke-width="1" />
<path d="M78.5491300887442,-16.43524008627334 L78.60945436452184,-14.474441037932545 L78.9836875385187,-13.305807140666753" fill-opacity="0" stroke="black" stroke-width="1" />
<path d="M78.60945436452184,14.474441037932545 L78.9836875385187,13.305807140666753 L83.27243197804242,11.758621923808677" fill-opacity="0" stroke="black" stroke-width="1" />
<path d="M78.60945436452184,-14.474441037932545 L78.9836875385187,-13.305807140666753 L83.27243197804242,-11.758621923808677" fill-opacity="0" stroke="black" stroke-width="1" />
<path d="M78.9836875385187,13.305807140666753 L83.27243197804242,11.758621923808677 L85.0,15.0" fill-opacity="0" stroke="black" stroke-width="1" />
<path d="M78.9836875385187,-13.305807140666753 L83.27243197804242,-11.758621923808677 L85.0,-15.0" fill-opacity="0" stroke="black" stroke-width="1" />
<path d="M85.0,15.0 L87.02415811456683,5.471663644741332 L90.0,10.0" fill-opacity="0" stroke="black" stroke-width="1" />
<path d="M85.0,-15.0 L87.02415811456683,-5.471663644741332 L90.0,-10.0" fill-opacity="0" stroke="black" stroke-width="1" />
<path d="M87.02415811456683,5.471663644741332 L90.0,10.0 L90.60847266112376,1.5857785636648178" fill-opacity="0" stroke="black" stroke-width="1" />
<path d="M87.02415811456683,-5.471663644741332 L90.0,-10.0 L90.60847266112376,-1.5857785636648178" fill-opacity="0" stroke="black" stroke-width="1" />
<path d="M90.0,10.0 L90.60847266112376,1.5857785636648178 L94.0,6.0" fill-opacity="0" stroke="black" stroke-width="1" />
<path d="M90.0,-10.0 L90.60847266112376,-1.5857785636648178 L94.0,-6.0" fill-opacity="0" stroke="black" stroke-width="1" />
<path d="M90.60847266112376,1.5857785636648178 L94.0,6.0 L94.58291234967308,1.4484899973127394" fill-opacity="0" stroke="black" stroke-width="1" />
<path d="M90.60847266112376,-1.5857785636648178 L94.0,-6.0 L94.58291234967308,-1.4484899973127394" fill-opacity="0" stroke="black" stroke-width="1" />
<path d="M94.0,6.0 L94.58291234967308,1.4484899973127394 L94.77454535393156,0.8611114992094465" fill-opacity="0" stroke="black" stroke-width="1" />
<path d="M94.0,-6.0 L94.58291234967308,-1.4484899973127394 L94.77454535393156,-0.8611114992094465" fill-opacity="0" stroke="black" stroke-width="1" />
<path d="M94.58291234967308,1.4484899973127394 L94.77454535393156,0.8611114992094465 L96.0,4.0" fill-opacity="0" stroke="black" stroke-width="1" />
<path d="M94.58291234967308,-1.4484899973127394 L94.77454535393156,-0.8611114992094465 L96.0,-4.0" fill-opacity="0" stroke="black" stroke-width="1" />
<path d="M94.77454535393156,0.8611114992094465 L96.0,4.0 L99.05021293844567,0.1397254006475248" fill-opacity="0" stroke="black" stroke-width="1" />
<path d="M94.77454535393156,-0.8611114992094465 L96.0,-4.0 L99.05021293844567,-0.1397254006475248" fill-opacity="0" stroke="black" stroke-width="1" />
<path d="M96.0,4.0 L99.05021293844567,0.1397254006475248 L100.0,-0.0" fill-opacity="0" stroke="black" stroke-width="1" />
<path d="M96.0,-4.0 L99.05021293844567,-0.1397254006475248 L100.0,-0.0" fill-opacity="0" stroke="black" stroke-width="1" />
<path d="M22.0,-50.0 L23.079766458036318,-44.02731544428553 L24.0,-50.0" fill-opacity="0" stroke="black" stroke-width="1" />
<path d="M22.0,50.0 L23.079766458036318,44.02731544428553 L24.0,50.0" fill-opacity="0" stroke="black" stroke-width="1" />
<path d="M22.0,50.0 L23.079766458036318,55.97268455571447 L24.0,50.0" fill-opacity="0" stroke="black" stroke-width="1" />
<path d="M22.0,-50.0 L23.079766458036318,-55.97268455571447 L24.0,-50.0" fill-opacity="0" stroke="black" stroke-width="1" />
<path d="M27.0,-50.0 L29.01676799616537,-48.61274726312999 L30.0,-50.0" fill-opacity="0" stroke="black" stroke-width="1" />
<path d="M27.0,50.0 L29.01676799616537,48.61274726312999 L30.0,50.0" fill-opacity="0" stroke="black" stroke-width="1" />
<path d="M27.0,50.0 L29.01676799616537,51.38725273687001 L30.0,50.0" fill-opacity="0" stroke="black" stroke-width="1" />
<path d="M27.0,-50.0 L29.01676799616537,-51.38725273687001 L30.0,-50.0" fill-opacity="0" stroke="black" stroke-width="1" />
<path d="M31.0,-31.0 L19.83552871004438,-24.687416720788097 L16.43524008627334,-21.45086991125579" fill-opacity="0" stroke="black" stroke-width="1" />
<path d="M31.0,31.0 L19.83552871004438,24.687416720788097 L16.43524008627334,21.45086991125579" fill-opacity="0" stroke="black" stroke-width="1" />
<path d="M31.0,69.0 L19.83552871004438,75.3125832792119 L16.43524008627334,78.5491300887442" fill-opacity="0" stroke="black" stroke-width="1" />
<path d="M31.0,-69.0 L19.83552871004438,-75.3125832792119 L16.43524008627334,-78.5491300887442" fill-opacity="0" stroke="black" stroke-width="1" />
<path d="M19.83552871004438,-24.687416720788097 L16.43524008627334,-21.45086991125579 L14.474441037932545,-21.39054563547817" fill-opacity="0" stroke="black" stroke-width="1" />
<path d="M19.83552871004438,24.687416720788097 L16.43524008627334,21.45086991125579 L14.474441037932545,21.39054563547817" fill-opacity="0" stroke="black" stroke-width="1" />
<path d="M19.83552871004438,75.3125832792119 L16.43524008627334,78.5491300887442 L14.474441037932545,78.60945436452184" fill-opacity="0" stroke="black" stroke-width="1" />
<path d="M19.83552871004438,-75.3125832792119 L16.43524008627334,-78.5491300887442 L14.474441037932545,-78.60945436452184" fill-opacity="0" stroke="black" stroke-width="1" />
<path d="M16.43524008627334,-21.45086991125579 L14.474441037932545,-21.39054563547817 L13.305807140666753,-21.016312461481302" fill-opacity="0" stroke="black" stroke-width="1" />
<path d="M16.43524008627334,21.45086991125579 L14.474441037932545,21.39054563547817 L13.305807140666753,21.016312461481302" fill-opacity="0" stroke="black" stroke-width="1" />
<path d="M16.43524008627334,78.5491300887442 L14.474441037932545,78.60945436452184 L13.305807140666753,78.9836875385187" fill-opacity="0" stroke="black" stroke-width="1" />
<path d="M16.43524008627334,-78.5491300887442 L14.474441037932545,-78.60945436452184 L13.305807140666753,-78.9836875385187" fill-opacity="0" stroke="black" stroke-width="1" />
<path d="M14.474441037932545,-21.39054563547817 L13.305807140666753,-21.016312461481302 L11.758621923808677,-16.727568021957584" fill-opacity="0" stroke="black" stroke-width="1" />
<path d="M14.474441037932545,21.39054563547817 L13.305807140666753,21.016312461481302 L11.758621923808677,16.727568021957584" fill-opacity="0" stroke="black" stroke-width="1" />
<path d="M14.474441037932545,78.60945436452184 L13.305807140666753,78.9836875385187 L11.758621923808677,83.27243197804242" fill-opacity="0" stroke="black" stroke-width="1" />
<path d="M14.474441037932545,-78.60945436452184 L13.305807140666753,-78.9836875385187 L11.758621923808677,-83.27243197804242" fill-opacity="0" stroke="black" stroke-width="1" />
<path d="M13.305807140666753,-21.016312461481302 L11.758621923808677,-16.727568021957584 L15.0,-15.0" fill-opacity="0" stroke="black" stroke-width="1" />
<path d="M13.305807140666753,21.016312461481302 L11.758621923808677,16.727568021957584 L15.0,15.0" fill-opacity="0" stroke="black" stroke-width="1" />
<path d="M13.305807140666753,78.9836875385187 L11.758621923808677,83.27243197804242 L15.0,85.0" fill-opacity="0" stroke="black" stroke-width="1" />
<path d="M13.305807140666753,-78.9836875385187 L11.758621923808677,-83.27243197804242 L15.0,-85.0" fill-opacity="0" stroke="black" stroke-width="1" />
<path d="M15.0,-15.0 L5.471663644741332,-12.975841885433164 L10.0,-10.0" fill-opacity="0" stroke="black" stroke-width="1" />
<path d="M15.0,15.0 L5.471663644741332,12.975841885433164 L10.0,10.0" fill-opacity="0" stroke="black" stroke-width="1" />
<path d="M15.0,85.0 L5.471663644741332,87.02415811456683 L10.0,90.0" fill-opacity="0" stroke="black" stroke-width="1" />
<path d="M15.0,-85.0 L5.471663644741332,-87.02415811456683 L10.0,-90.0" fill-opacity="0" stroke="black" stroke-width="1" />
<path d="M10.0,-10.0 L1.5857785636648178,-9.391527338876237 L6.0,-6.0" fill-opacity="0" stroke="black" stroke-width="1" />
<path d="M10.0,10.0 L1.5857785636648178,9.391527338876237 L6.0,6.0" fill-opacity="0" stroke="black" stroke-width="1" />
<path d="M10.0,90.0 L1.5857785636648178,90.60847266112376 L6.0,94.0" fill-opacity="0" stroke="black" stroke-width="1" />
<path d="M10.0,-90.0 L1.5857785636648178,-90.60847266112376 L6.0,-94.0" fill-opacity="0" stroke="black" stroke-width="1" />
<path d="M6.0,-6.0 L1.4484899973127394,-5.41708765032693 L0.8611114992094465,-5.225454646068445" fill-opacity="0" stroke="black" stroke-width="1" />
<path d="M6.0,6.0 L1.4484899973127394,5.41708765032693 L0.8611114992094465,5.225454646068445" fill-opacity="0" stroke="black" stroke-width="1" />
<path d="M6.0,94.0 L1.4484899973127394,94.58291234967308 L0.8611114992094465,94.77454535393156" fill-opacity="0" stroke="black" stroke-width="1" />
<path d="M6.0,-94.0 L1.4484899973127394,-94.58291234967308 L0.8611114992094465,-94.77454535393156" fill-opacity="0" stroke="black" stroke-width="1" />
<path d="M1.4484899973127394,-5.41708765032693 L0.8611114992094465,-5.225454646068445 L4.0,-4.0" fill-opacity="0" stroke="black" stroke-width="1" />
<path d="M1.4484899973127394,5.41708765032693 L0.8611114992094465,5.225454646068445 L4.0,4.0" fill-opacity="0" stroke="black" stroke-width="1" />
<path d="M1.4484899973127394,94.58291234967308 L0.8611114992094465,94.77454535393156 L4.0,96.0" fill-opacity="0" stroke="black" stroke-width="1" />
<path d="M1.4484899973127394,-94.58291234967308 L0.8611114992094465,-94.77454535393156 L4.0,-96.0" fill-opacity="0" stroke="black" stroke-width="1" />
<path d="M4.0,-4.0 L0.1397254006475248,-0.9497870615543358 L0.0,-0.0" fill-opacity="0" stroke="black" stroke-width="1" />
<path d="M4.0,4.0 L0.1397254006475248,0.9497870615543358 L0.0,-0.0" fill-opacity="0" stroke="black" stroke-width="1" />
<path d="M4.0,96.0 L0.1397254006475248,99.05021293844567 L0.0,100.0" fill-opacity="0" stroke="black" stroke-width="1" />
<path d="M4.0,-96.0 L0.1397254006475248,-99.05021293844567 L0.0,-100.0" fill-opacity="0" stroke="black" stroke-width="1" />
<path d="M-22.0,50.0 L-23.079766458036318,55.97268455571447 L-24.0,50.0" fill-opacity="0" stroke="black" stroke-width="1" />
<path d="M-22.0,-50.0 L-23.079766458036318,-44.02731544428553 L-24.0,-50.0" fill-opacity="0" stroke="black" stroke-width="1" />
<path d="M-22.0,50.0 L-23.079766458036318,44.02731544428553 L-24.0,50.0" fill-opacity="0" stroke="black" stroke-width="1" />
<path d="M-22.0,-50.0 L-23.079766458036318,-55.97268455571447 L-24.0,-50.0" fill-opacity="0" stroke="black" stroke-width="1" />
<path d="M-27.0,50.0 L-29.01676799616537,51.38725273687001 L-30.0,50.0" fill-opacity="0" stroke="black" stroke-width="1" />
<path d="M-27.0,-50.0 L-29.01676799616537,-48.61274726312999 L-30.0,-50.0" fill-opacity="0" stroke="black" stroke-width="1" />
<path d="M-27.0,50.0 L-29.01676799616537,48.61274726312999 L-30.0,50.0" fill-opacity="0" stroke="black" stroke-width="1" />
<path d="M-27.0,-50.0 L-29.01676799616537,-51.38725273687001 L-30.0,-50.0" fill-opacity="0" stroke="black" stroke-width="1" />
<path d="M-31.0,69.0 L-19.83552871004438,75.3125832792119 L-16.43524008627334,78.5491300887442" fill-opacity="0" stroke="black" stroke-width="1" />
<path d="M-31.0,-31.0 L-19.83552871004438,-24.687416720788097 L-16.43524008627334,-21.45086991125579" fill-opacity="0" stroke="black" stroke-width="1" />
<path d="M-31.0,31.0 L-19.83552871004438,24.687416720788093 L-16.43524008627334,21.450869911255793" fill-opacity="0" stroke="black" stroke-width="1" />
<path d="M-31.0,-69.0 L-19.83552871004438,-75.3125832792119 L-16.43524008627334,-78.5491300887442" fill-opacity="0" stroke="black" stroke-width="1" />
<path d="M-19.83552871004438,75.3125832792119 L-16.43524008627334,78.5491300887442 L-14.474441037932545,78.60945436452184" fill-opacity="0" stroke="black" stroke-width="1" />
<path d="M-19.83552871004438,-24.687416720788097 L-16.43524008627334,-21.45086991125579 L-14.474441037932545,-21.39054563547817" fill-opacity="0" stroke="black" stroke-width="1" />
<path d="M-19.83552871004438,24.687416720788093 L-16.43524008627334,21.450869911255793 L-14.474441037932545,21.390545635478162" fill-opacity="0" stroke="black" stroke-width="1" />
<path d="M-19.83552871004438,-75.3125832792119 L-16.43524008627334,-78.5491300887442 L-14.474441037932545,-78.60945436452184" fill-opacity="0" stroke="black" stroke-width="1" />
<path d="M-16.43524008627334,78.5491300887442 L-14.474441037932545,78.60945436452184 L-13.305807140666753,78.9836875385187" fill-opacity="0" stroke="black" stroke-width="1" />
<path d="M-16.43524008627334,-21.45086991125579 L-14.474441037932545,-21.39054563547817 L-13.305807140666753,-21.016312461481302" fill-opacity="0" stroke="black" stroke-width="1" />
<path d="M-16.43524008627334,21.450869911255793 L-14.474441037932545,21.390545635478162 L-13.305807140666753,21.016312461481306" fill-opacity="0" stroke="black" stroke-width="1" />
<path d="M-16.43524008627334,-78.5491300887442 L-14.474441037932545,-78.60945436452184 L-13.305807140666753,-78.9836875385187" fill-opacity="0" stroke="black" stroke-width="1" />
<path d="M-14.474441037932545,78.60945436452184 L-13.305807140666753,78.9836875385187 L-11.758621923808677,83.27243197804242" fill-opacity="0" stroke="black" stroke-width="1" />
<path d="M-14.474441037932545,-21.39054563547817 L-13.305807140666753,-21.016312461481302 L-11.758621923808677,-16.727568021957584" fill-opacity="0" stroke="black" stroke-width="1" />
<path d="M-14.474441037932545,21.390545635478162 L-13.305807140666753,21.016312461481306 L-11.758621923808677,16.72756802195758" fill-opacity="0" stroke="black" stroke-width="1" />
<path d="M-14.474441037932545,-78.60945436452184 L-13.305807140666753,-78.9836875385187 L-11.758621923808677,-83.27243197804242" fill-opacity="0" stroke="black" stroke-width="1" />
<path d="M-13.305807140666753,78.9836875385187 L-11.758621923808677,83.27243197804242 L-15.0,85.0" fill-opacity="0" stroke="black" stroke-width="1" />
<path d="M-13.305807140666753,-21.016312461481302 L-11.758621923808677,-16.727568021957584 L-15.0,-15.0" fill-opacity="0" stroke="black" stroke-width="1" />
<path d="M-13.305807140666753,21.016312461481306 L-11.758621923808677,16.72756802195758 L-15.0,15.0" fill-opacity="0" stroke="black" stroke-width="1" />
<path d="M-13.305807140666753,-78.9836875385187 L-11.758621923808677,-83.27243197804242 L-15.0,-85.0" fill-opacity="0" stroke="black" stroke-width="1" />
<path d="M-15.0,85.0 L-5.471663644741332,87.02415811456683 L-10.0,90.0" fill-opacity="0" stroke="black" stroke-width="1" />
<path d="M-15.0,-15.0 L-5.471663644741332,-12.975841885433164 L-10.0,-10.0" fill-opacity="0" stroke="black" stroke-width="1" />
<path d="M-15.0,15.0 L-5.471663644741332,12.97584188543317 L-10.0,10.0" fill-opacity="0" stroke="black" stroke-width="1" />
<path d="M-15.0,-85.0 L-5.471663644741332,-87.02415811456683 L-10.0,-90.0" fill-opacity="0" stroke="black" stroke-width="1" />
<path d="M-10.0,90.0 L-1.5857785636648178,90.60847266112376 L-6.0,94.0" fill-opacity="0" stroke="black" stroke-width="1" />
<path d="M-10.0,-10.0 L-1.5857785636648178,-9.391527338876237 L-6.0,-6.0" fill-opacity="0" stroke="black" stroke-width="1" />
<path d="M-10.0,10.0 L-1.5857785636648178,9.391527338876244 L-6.0,6.0" fill-opacity="0" stroke="black" stroke-width="1" />
<path d="M-10.0,-90.0 L-1.5857785636648178,-90.60847266112376 L-6.0,-94.0" fill-opacity="0" stroke="black" stroke-width="1" />
<path d="M-6.0,94.0 L-1.4484899973127394,94.58291234967307 L-0.8611114992094465,94.77454535393156" fill-opacity="0" stroke="black" stroke-width="1" />
<path d="M-6.0,-6.0 L-1.4484899973127394,-5.41708765032693 L-0.8611114992094465,-5.225454646068445" fill-opacity="0" stroke="black" stroke-width="1" />
<path d="M-6.0,6.0 L-1.4484899973127394,5.417087650326934 L-0.8611114992094465,5.225454646068442" fill-opacity="0" stroke="black" stroke-width="1" />
<path d="M-6.0,-94.0 L-1.4484899973127394,-94.58291234967308 L-0.8611114992094465,-94.77454535393156" fill-opacity="0" stroke="black" stroke-width="1" />
<path d="M-1.4484899973127394,94.58291234967307 L-0.8611114992094465,94.77454535393156 L-4.0,96.0" fill-opacity="0" stroke="black" stroke-width="1" />
<path d="M-1.4484899973127394,-5.41708765032693 L-0.8611114992094465,-5.225454646068445 L-4.0,-4.0" fill-opacity="0" stroke="black" stroke-width="1" />
<path d="M-1.4484899973127394,5.417087650326934 L-0.8611114992094465,5.225454646068442 L-4.0,4.0" fill-opacity="0" stroke="black" stroke-width="1" />
<path d="M-1.4484899973127394,-94.58291234967308 L-0.8611114992094465,-94.77454535393156 L-4.0,-96.0" fill-opacity="0" stroke="black" stroke-width="1" />
<path d="M-4.0,96.0 L-0.1397254006475248,99.05021293844567 L0.0,100.0" fill-opacity="0" stroke="black" stroke-width="1" />
<path d="M-4.0,-4.0 L-0.1397254006475248,-0.9497870615543358 L0.0,-0.0" fill-opacity="0" stroke="black" stroke-width="1" />
<path d="M-4.0,4.0 L-0.1397254006475248,0.949787061554332 L0.0,-0.0" fill-opacity="0" stroke="black" stroke-width="1" />
<path d="M-4.0,-96.0 L-0.1397254006475248,-99.05021293844567 L0.0,-100.0" fill-opacity="0" stroke="black" stroke-width="1" />
<path d="M-83.27243197804242,-11.758621923808677 L-85.0,-15.0 L-87.02415811456683,-5.471663644741332" fill-opacity="0" stroke="black" stroke-width="1" />
<path d="M-83.27243197804242,11.758621923808677 L-85.0,15.0 L-87.02415811456683,5.471663644741332" fill-opacity="0" stroke="black" stroke-width="1" />
<path d="M-50.0,-22.0 L-55.97268455571447,-23.079766458036318 L-50.0,-24.0" fill-opacity="0" stroke="black" stroke-width="1" />
<path d="M-50.0,22.0 L-55.97268455571447,23.079766458036318 L-50.0,24.0" fill-opacity="0" stroke="black" stroke-width="1" />
<path d="M-50.0,-27.0 L-51.38725273687001,-29.01676799616537 L-50.0,-30.0" fill-opacity="0" stroke="black" stroke-width="1" />
<path d="M-50.0,27.0 L-51.38725273687001,29.01676799616537 L-50.0,30.0" fill-opacity="0" stroke="black" stroke-width="1" />
<path d="M-50.0,-50.0 L-62.0,-38.0 L-67.0,-33.0" fill-opacity="0" stroke="black" stroke-width="1" />
<path d="M-50.0,50.0 L-62.0,38.0 L-67.0,33.0" fill-opacity="0" stroke="black" stroke-width="1" />
<path d="M-67.0,-33.0 L-69.0,-31.0 L-75.3125832792119,-19.83552871004438" fill-opacity="0" stroke="black" stroke-width="1" />
<path d="M-67.0,33.0 L-69.0,31.0 L-75.3125832792119,19.83552871004438" fill-opacity="0" stroke="black" stroke-width="1" />
<path d="M-69.0,-31.0 L-75.3125832792119,-19.83552871004438 L-78.5491300887442,-16.43524008627334" fill-opacity="0" stroke="black" stroke-width="1" />
<path d="M-69.0,31.0 L-75.3125832792119,19.83552871004438 L-78.5491300887442,16.43524008627334" fill-opacity="0" stroke="black" stroke-width="1" />
<path d="M-75.3125832792119,-19.83552871004438 L-78.5491300887442,-16.43524008627334 L-78.60945436452184,-14.474441037932545" fill-opacity="0" stroke="black" stroke-width="1" />
<path d="M-75.3125832792119,19.83552871004438 L-78.5491300887442,16.43524008627334 L-78.60945436452184,14.474441037932545" fill-opacity="0" stroke="black" stroke-width="1" />
<path d="M-78.5491300887442,-16.43524008627334 L-78.60945436452184,-14.474441037932545 L-78.9836875385187,-13.305807140666753" fill-opacity="0" stroke="black" stroke-width="1" />
<path d="M-78.5491300887442,16.43524008627334 L-78.60945436452184,14.474441037932545 L-78.9836875385187,13.305807140666753" fill-opacity="0" stroke="black" stroke-width="1" />
<path d="M-78.60945436452184,-14.474441037932545 L-78.9836875385187,-13.305807140666753 L-83.27243197804242,-11.758621923808677" fill-opacity="0" stroke="black" stroke-width="1" />
<path d="M-78.60945436452184,14.474441037932545 L-78.9836875385187,13.305807140666753 L-83.27243197804242,11.758621923808677" fill-opacity="0" stroke="black" stroke-width="1" />
<path d="M-78.9836875385187,-13.305807140666753 L-83.27243197804242,-11.758621923808677 L-85.0,-15.0" fill-opacity="0" stroke="black" stroke-width="1" />
<path d="M-78.9836875385187,13.305807140666753 L-83.27243197804242,11.758621923808677 L-85.0,15.0" fill-opacity="0" stroke="black" stroke-width="1" />
<path d="M-85.0,-15.0 L-87.02415811456683,-5.471663644741332 L-90.0,-10.0" fill-opacity="0" stroke="black" stroke-width="1" />
<path d="M-85.0,15.0 L-87.02415811456683,5.471663644741332 L-90.0,10.0" fill-opacity="0" stroke="black" stroke-width="1" />
<path d="M-87.02415811456683,-5.471663644741332 L-90.0,-10.0 L-90.60847266112376,-1.5857785636648178" fill-opacity="0" stroke="black" stroke-width="1" />
<path d="M-87.02415811456683,5.471663644741332 L-90.0,10.0 L-90.60847266112376,1.5857785636648178" fill-opacity="0" stroke="black" stroke-width="1" />
<path d="M-90.0,-10.0 L-90.60847266112376,-1.5857785636648178 L-94.0,-6.0" fill-opacity="0" stroke="black" stroke-width="1" />
<path d="M-90.0,10.0 L-90.60847266112376,1.5857785636648178 L-94.0,6.0" fill-opacity="0" stroke="black" stroke-width="1" />
<path d="M-90.60847266112376,-1.5857785636648178 L-94.0,-6.0 L-94.58291234967308,-1.4484899973127394" fill-opacity="0" stroke="black" stroke-width="1" />
<path d="M-90.60847266112376,1.5857785636648178 L-94.0,6.0 L-94.58291234967308,1.4484899973127394" fill-opacity="0" stroke="black" stroke-width="1" />
<path d="M-94.0,-6.0 L-94.58291234967308,-1.4484899973127394 L-94.77454535393156,-0.8611114992094465" fill-opacity="0" stroke="black" stroke-width="1" />
<path d="M-94.0,6.0 L-94.58291234967308,1.4484899973127394 L-94.77454535393156,0.8611114992094465" fill-opacity="0" stroke="black" stroke-width="1" />
<path d="M-94.58291234967308,-1.4484899973127394 L-94.77454535393156,-0.8611114992094465 L-96.0,-4.0" fill-opacity="0" stroke="black" stroke-width="1" />
<path d="M-94.58291234967308,1.4484899973127394 L-94.77454535393156,0.8611114992094465 L-96.0,4.0" fill-opacity="0" stroke="black" stroke-width="1" />
<path d="M-94.77454535393156,-0.8611114992094465 L-96.0,-4.0 L-99.05021293844567,-0.1397254006475248" fill-opacity="0" stroke="black" stroke-width="1" />
<path d="M-94.77454535393156,0.8611114992094465 L-96.0,4.0 L-99.05021293844567,0.1397254006475248" fill-opacity="0" stroke="black" stroke-width="1" />
<path d="M-96.0,-4.0 L-99.05021293844567,-0.1397254006475248 L-100.0,-0.0" fill-opacity="0" stroke="black" stroke-width="1" />
<path d="M-96.0,4.0 L-99.05021293844567,0.1397254006475248 L-100.0,-0.0" fill-opacity="0" stroke="black" stroke-width="1" />
<circle cx="0" cy="-97" r="8" stroke-dasharray="39.653880605311166 10.611601852125524" stroke-dashoffset="-17.59291886010284" stroke="black" stroke-width="1" fill="white" fill-opacity="1" />
<circle cx="0" cy="-97" r="4" stroke="black" stroke-width="1" fill="white" fill-opacity="1" />
</svg>