<?xml version="1.0" encoding="UTF-8"?>
<svg xmlns="http://www.w3.org/2000/svg" xmlns:xlink="http://www.w3.org/1999/xlink"
     width="250" height="250" viewBox="-125.0 -125.0 250 250">
<defs>
</defs>
<path d="M0.0,-0.0 L11.819401611516067,-3.5693423060265212 L21.883829452777665,-4.713612714692323" fill="yellow" fill-opacity="0.6" stroke="black" stroke-width="1" />
<path d="M0.0,-0.0 L11.819401611516067,3.5693423060265212 L21.883829452777665,4.713612714692323" fill="orange" fill-opacity="0.6" stroke="black" stroke-width="1" />
<path d="M11.819401611516067,-3.5693423060265212 L21.883829452777665,-4.713612714692323 L22.459827246423337,-6.17892098839209" fill="orange" fill-opacity="0.6" stroke="black" stroke-width="1" />
<path d="M11.819401611516067,3.5693423060265212 L21.883829452777665,4.713612714692323 L22.459827246423337,6.17892098839209" fill="pink" fill-opacity="0.6" stroke="black" stroke-width="1" />
<path d="M21.883829452777665,-4.713612714692323 L22.459827246423337,-6.17892098839209 L23.140277314146527,-7.885657342291394" fill="yellow" fill-opacity="0.6" stroke="black" stroke-width="1" />
<path d="M21.883829452777665,4.713612714692323 L22.459827246423337,6.17892098839209 L23.140277314146527,7.885657342291394" fill="red" fill-opacity="0.6" stroke="black" stroke-width="1" />
<path d="M22.459827246423337,-6.17892098839209 L23.140277314146527,-7.885657342291394 L25.0,-0.0" fill="yellow" fill-opacity="0.6" stroke="black" stroke-width="1" />
<path d="M22.459827246423337,6.17892098839209 L23.140277314146527,7.885657342291394 L25.0,-0.0" fill="purple" fill-opacity="0.6" stroke="black" stroke-width="1" />
<path d="M35.0,-0.0 L39.936175412396466,-7.91961327034122 L40.0,-0.0" fill="orange" fill-opacity="0.6" stroke="black" stroke-width="1" />
<path d="M35.0,-0.0 L39.936175412396466,7.91961327034122 L40.0,-0.0" fill="pink" fill-opacity="0.6" stroke="black" stroke-width="1" />
<path d="M44.0,-0.0 L42.25832675167106,-10.00529253148812 L43.869874226275925,-24.44606494798568" fill="blue" fill-opacity="0.6" stroke="black" stroke-width="1" />
<path d="M44.0,-0.0 L42.25832675167106,10.00529253148812 L43.869874226275925,24.44606494798568" fill="purple" fill-opacity="0.6" stroke="black" stroke-width="1" />
<path d="M42.25832675167106,-10.00529253148812 L43.869874226275925,-24.44606494798568 L50.0,-27.0" fill="blue" fill-opacity="0.6" stroke="black" stroke-width="1" />
<path d="M42.25832675167106,10.00529253148812 L43.869874226275925,24.44606494798568 L50.0,27.0" fill="orange" fill-opacity="0.6" stroke="black" stroke-width="1" />
<path d="M50.0,-49.0 L48.51144929534461,-46.82126809051327 L47.765033551813445,-44.27106963104615" fill="orange" fill-opacity="0.6" stroke="black" stroke-width="1" />
<path d="M50.0,49.0 L48.51144929534461,46.82126809051327 L47.765033551813445,44.27106963104615" fill="red" fill-opacity="0.6" stroke="black" stroke-width="1" />
<path d="M48.51144929534461,-46.82126809051327 L47.765033551813445,-44.27106963104615 L44.833773724628145,-39.74242603882525" fill="blue" fill-opacity="0.6" stroke="black" stroke-width="1" />
<path d="M48.51144929534461,46.82126809051327 L47.765033551813445,44.27106963104615 L44.833773724628145,39.74242603882525" fill="black" fill-opacity="0.6" stroke="black" stroke-width="1" />
<path d="M47.765033551813445,-44.27106963104615 L44.833773724628145,-39.74242603882525 L38.0,-38.0" fill="yellow" fill-opacity="0.6" stroke="black" stroke-width="1" />
<path d="M47.765033551813445,44.27106963104615 L44.833773724628145,39.74242603882525 L38.0,38.0" fill="purple" fill-opacity="0.6" stroke="black" stroke-width="1" />
<path d="M39.74242603882525,55.166226275371855 L38.0,62.0 L31.0,69.0" fill="yellow" fill-opacity="0.6" stroke="black" stroke-width="1" />
<path d="M39.74242603882525,-55.166226275371855 L38.0,-62.0 L31.0,-69.0" fill="purple" fill-opacity="0.6" stroke="black" stroke-width="1" />
<path d="M38.0,62.0 L31.0,69.0 L14.0,86.0" fill="green" fill-opacity="0.6" stroke="black" stroke-width="1" />
<path d="M38.0,-62.0 L31.0,-69.0 L14.0,-86.0" fill="green" fill-opacity="0.6" stroke="black" stroke-width="1" />
<path d="M31.0,69.0 L14.0,86.0 L13.0,87.0" fill="brown" fill-opacity="0.6" stroke="black" stroke-width="1" />
<path d="M31.0,-69.0 L14.0,-86.0 L13.0,-87.0" fill="purple" fill-opacity="0.6" stroke="black" stroke-width="1" />
<path d="M14.0,86.0 L13.0,87.0 L3.389233995195147,89.7659179707397" fill="blue" fill-opacity="0.6" stroke="black" stroke-width="1" />
<path d="M14.0,-86.0 L13.0,-87.0 L3.389233995195147,-89.7659179707397" fill="brown" fill-opacity="0.6" stroke="black" stroke-width="1" />
<path d="M13.0,-13.0 L10.234082029260305,-3.389233995195147 L6.29518660529737,-3.003504493720724" fill="pink" fill-opacity="0.6" stroke="black" stroke-width="1" />
<path d="M13.0,13.0 L10.234082029260305,3.389233995195147 L6.29518660529737,3.003504493720724" fill="black" fill-opacity="0.6" stroke="black" stroke-width="1" />
<path d="M10.234082029260305,-3.389233995195147 L6.29518660529737,-3.003504493720724 L6.133670837352529,-2.930008526789492" fill="blue" fill-opacity="0.6" stroke="black" stroke-width="1" />
<path d="M10.234082029260305,3.389233995195147 L6.29518660529737,3.003504493720724 L6.133670837352529,2.930008526789492" fill="brown" fill-opacity="0.6" stroke="black" stroke-width="1" />
<path d="M6.29518660529737,-3.003504493720724 L6.133670837352529,-2.930008526789492 L4.711106652567227,-2.1072640060824344" fill="green" fill-opacity="0.6" stroke="black" stroke-width="1" />
<path d="M6.29518660529737,3.003504493720724 L6.133670837352529,2.930008526789492 L4.711106652567227,2.1072640060824344" fill="pink" fill-opacity="0.6" stroke="black" stroke-width="1" />
<path d="M6.133670837352529,-2.930008526789492 L4.711106652567227,-2.1072640060824344 L4.512670420212967,-1.084762087704233" fill="green" fill-opacity="0.6" stroke="black" stroke-width="1" />
<path d="M6.133670837352529,2.930008526789492 L4.711106652567227,2.1072640060824344 L4.512670420212967,1.084762087704233" fill="green" fill-opacity="0.6" stroke="black" stroke-width="1" />
<path d="M4.711106652567227,-2.1072640060824344 L4.512670420212967,-1.084762087704233 L1.296580668416769,-0.41103666426542673" fill="green" fill-opacity="0.6" stroke="black" stroke-width="1" />
<path d="M4.711106652567227,2.1072640060824344 L4.512670420212967,1.084762087704233 L1.296580668416769,0.41103666426542673" fill="brown" fill-opacity="0.6" stroke="black" stroke-width="1" />
<path d="M4.512670420212967,-1.084762087704233 L1.296580668416769,-0.41103666426542673 L1.0,-1.0" fill="green" fill-opacity="0.6" stroke="black" stroke-width="1" />
<path d="M4.512670420212967,1.084762087704233 L1.296580668416769,0.41103666426542673 L1.0,1.0" fill="green" fill-opacity="0.6" stroke="black" stroke-width="1" />
<path d="M0.41103666426542673,98.70341933158323 L1.0,99.0 L0.0,100.0" fill="purple" fill-opacity="0.6" stroke="black" stroke-width="1" />
<path d="M0.41103666426542673,-98.70341933158323 L1.0,-99.0 L0.0,-100.0" fill="pink" fill-opacity="0.6" stroke="black" stroke-width="1" />
<path d="M0.0,-0.0 L-11.819401611516067,-3.5693423060265212 L-21.883829452777665,-4.713612714692323" fill="orange" fill-opacity="0.6" stroke="black" stroke-width="1" />
<path d="M0.0,-0.0 L-11.819401611516067,3.5693423060265212 L-21.883829452777665,4.713612714692323" fill="red" fill-opacity="0.6" stroke="black" stroke-width="1" />
<path d="M-11.819401611516067,-3.5693423060265212 L-21.883829452777665,-4.713612714692323 L-22.459827246423337,-6.17892098839209" fill="brown" fill-opacity="0.6" stroke="black" stroke-width="1" />
<path d="M-11.819401611516067,3.5693423060265212 L-21.883829452777665,4.713612714692323 L-22.459827246423337,6.17892098839209" fill="purple" fill-opacity="0.6" stroke="black" stroke-width="1" />
<path d="M-21.883829452777665,-4.713612714692323 L-22.459827246423337,-6.17892098839209 L-23.140277314146527,-7.885657342291394" fill="red" fill-opacity="0.6" stroke="black" stroke-width="1" />
<path d="M-21.883829452777665,4.713612714692323 L-22.459827246423337,6.17892098839209 L-23.140277314146527,7.885657342291394" fill="red" fill-opacity="0.6" stroke="black" stroke-width="1" />
<path d="M-22.459827246423337,-6.17892098839209 L-23.140277314146527,-7.885657342291394 L-25.0,-0.0" fill="brown" fill-opacity="0.6" stroke="black" stroke-width="1" />
<path d="M-22.459827246423337,6.17892098839209 L-23.140277314146527,7.885657342291394 L-25.0,-0.0" fill="orange" fill-opacity="0.6" stroke="black" stroke-width="1" />
<path d="M-35.0,-0.0 L-39.936175412396466,-7.91961327034122 L-40.0,-0.0" fill="pink" fill-opacity="0.6" stroke="black" stroke-width="1" />
<path d="M-35.0,-0.0 L-39.936175412396466,7.91961327034122 L-40.0,-0.0" fill="yellow" fill-opacity="0.6" stroke="black" stroke-width="1" />
<path d="M-44.0,-0.0 L-42.25832675167106,-10.00529253148812 L-43.869874226275925,-24.44606494798568" fill="black" fill-opacity="0.6" stroke="black" stroke-width="1" />
<path d="M-44.0,-0.0 L-42.25832675167106,10.00529253148812 L-43.869874226275925,24.44606494798568" fill="red" fill-opacity="0.6" stroke="black" stroke-width="1" />
<path d="M-42.25832675167106,-10.00529253148812 L-43.869874226275925,-24.44606494798568 L-50.0,-27.0" fill="yellow" fill-opacity="0.6" stroke="black" stroke-width="1" />
<path d="M-42.25832675167106,10.00529253148812 L-43.869874226275925,24.44606494798568 L-50.0,27.0" fill="brown" fill-opacity="0.6" stroke="black" stroke-width="1" />
<path d="M-50.0,-49.0 L-48.51144929534461,-46.82126809051327 L-47.765033551813445,-44.27106963104615" fill="black" fill-opacity="0.6" stroke="black" stroke-width="1" />
<path d="M-50.0,49.0 L-48.51144929534461,46.82126809051327 L-47.765033551813445,44.27106963104615" fill="green" fill-opacity="0.6" stroke="black" stroke-width="1" />
<path d="M-48.51144929534461,-46.82126809051327 L-47.765033551813445,-44.27106963104615 L-44.833773724628145,-39.74242603882525" fill="red" fill-opacity="0.6" stroke="black" stroke-width="1" />
<path d="M-48.51144929534461,46.82126809051327 L-47.765033551813445,44.27106963104615 L-44.833773724628145,39.74242603882525" fill="blue" fill-opacity="0.6" stroke="black" stroke-width="1" />
<path d="M-47.765033551813445,-44.27106963104615 L-44.833773724628145,-39.74242603882525 L-38.0,-38.0" fill="blue" fill-opacity="0.6" stroke="black" stroke-width="1" />
<path d="M-47.765033551813445,44.27106963104615 L-44.833773724628145,39.74242603882525 L-38.0,38.0" fill="yellow" fill-opacity="0.6" stroke="black" stroke-width="1" />
<path d="M-39.74242603882525,55.166226275371855 L-38.0,62.0 L-31.0,69.0" fill="green" fill-opacity="0.6" stroke="black" stroke-width="1" />
<path d="M-39.74242603882525,-55.166226275371855 L-38.0,-62.0 L-31.0,-69.0" fill="blue" fill-opacity="0.6" stroke="black" stroke-width="1" />
<path d="M-38.0,62.0 L-31.0,69.0 L-14.0,86.0" fill="orange" fill-opacity="0.6" stroke="black" stroke-width="1" />
<path d="M-38.0,-62.0 L-31.0,-69.0 L-14.0,-86.0" fill="blue" fill-opacity="0.6" stroke="black" stroke-width="1" />
<path d="M-31.0,69.0 L-14.0,86.0 L-13.0,87.0" fill="black" fill-opacity="0.6" stroke="black" stroke-width="1" />
<path d="M-31.0,-69.0 L-14.0,-86.0 L-13.0,-87.0" fill="pink" fill-opacity="0.6" stroke="black" stroke-width="1" />
<path d="M-14.0,86.0 L-13.0,87.0 L-3.389233995195147,89.7659179707397" fill="green" fill-opacity="0.6" stroke="black" stroke-width="1" />
<path d="M-14.0,-86.0 L-13.0,-87.0 L-3.389233995195147,-89.7659179707397" fill="blue" fill-opacity="0.6" stroke="black" stroke-width="1" />
<path d="M-13.0,-13.0 L-10.234082029260305,-3.389233995195147 L-6.29518660529737,-3.003504493720724" fill="purple" fill-opacity="0.6" stroke="black" stroke-width="1" />
<path d="M-13.0,13.0 L-10.234082029260305,3.389233995195147 L-6.29518660529737,3.003504493720724" fill="black" fill-opacity="0.6" stroke="black" stroke-width="1" />
<path d="M-10.234082029260305,-3.389233995195147 L-6.29518660529737,-3.003504493720724 L-6.133670837352529,-2.930008526789492" fill="green" fill-opacity="0.6" stroke="black" stroke-width="1" />
<path d="M-10.234082029260305,3.389233995195147 L-6.29518660529737,3.003504493720724 L-6.133670837352529,2.930008526789492" fill="red" fill-opacity="0.6" stroke="black" stroke-width="1" />
<path d="M-6.29518660529737,-3.003504493720724 L-6.133670837352529,-2.930008526789492 L-4.711106652567227,-2.1072640060824344" fill="blue" fill-opacity="0.6" stroke="black" stroke-width="1" />
<path d="M-6.29518660529737,3.003504493720724 L-6.133670837352529,2.930008526789492 L-4.711106652567227,2.1072640060824344" fill="purple" fill-opacity="0.6" stroke="black" stroke-width="1" />
<path d="M-6.133670837352529,-2.930008526789492 L-4.711106652567227,-2.1072640060824344 L-4.512670420212967,-1.084762087704233" fill="yellow" fill-opacity="0.6" stroke="black" stroke-width="1" />
<path d="M-6.133670837352529,2.930008526789492 L-4.711106652567227,2.1072640060824344 L-4.512670420212967,1.084762087704233" fill="black" fill-opacity="0.6" stroke="black" stroke-width="1" />
<path d="M-4.711106652567227,-2.1072640060824344 L-4.512670420212967,-1.084762087704233 L-1.296580668416769,-0.41103666426542673" fill="black" fill-opacity="0.6" stroke="black" stroke-width="1" />
<path d="M-4.711106652567227,2.1072640060824344 L-4.512670420212967,1.084762087704233 L-1.296580668416769,0.41103666426542673" fill="red" fill-opacity="0.6" stroke="black" stroke-width="1" />
<path d="M-4.512670420212967,-1.084762087704233 L-1.296580668416769,-0.41103666426542673 L-1.0,-1.0" fill="pink" fill-opacity="0.6" stroke="black" stroke-width="1" />
<path d="M-4.512670420212967,1.084762087704233 L-1.296580668416769,0.41103666426542673 L-1.0,1.0" fill="black" fill-opacity="0.6" stroke="black" stroke-width="1" />
<path d="M-0.41103666426542673,98.70341933158323 L-1.0,99.0 L0.0,100.0" fill="black" fill-opacity="0.6" stroke="black" stroke-width="1" />
<path d="M-0.41103666426542673,-98.70341933158323 L-1.0,-99.0 L0.0,-100.0" fill="pink" fill-opacity="0.6" stroke="black" stroke-width="1" />
<path d="M100.0,-0.0 L88.18059838848393,3.5693423060265212 L78.11617054722234,4.713612714692323" fill="blue" fill-opacity="0.6" stroke="black" stroke-width="1" />
<path d="M100.0,-0.0 L88.18059838848393,-3.5693423060265212 L78.11617054722234,-4.713612714692323" fill="yellow" fill-opacity="0.6" stroke="black" stroke-width="1" />
<path d="M88.18059838848393,3.5693423060265212 L78.11617054722234,4.713612714692323 L77.54017275357666,6.17892098839209" fill="red" fill-opacity="0.6" stroke="black" stroke-width="1" />
<path d="M88.18059838848393,-3.5693423060265212 L78.11617054722234,-4.713612714692323 L77.54017275357666,-6.17892098839209" fill="green" fill-opacity="0.6" stroke="black" stroke-width="1" />
<path d="M78.11617054722234,4.713612714692323 L77.54017275357666,6.17892098839209 L76.85972268585347,7.885657342291394" fill="yellow" fill-opacity="0.6" stroke="black" stroke-width="1" />
<path d="M78.11617054722234,-4.713612714692323 L77.54017275357666,-6.17892098839209 L76.85972268585347,-7.885657342291394" fill="red" fill-opacity="0.6" stroke="black" stroke-width="1" />
<path d="M77.54017275357666,6.17892098839209 L76.85972268585347,7.885657342291394 L75.0,-0.0" fill="yellow" fill-opacity="0.6" stroke="black" stroke-width="1" />
<path d="M77.54017275357666,-6.17892098839209 L76.85972268585347,-7.885657342291394 L75.0,-0.0" fill="red" fill-opacity="0.6" stroke="black" stroke-width="1" />
<path d="M65.0,-0.0 L60.063824587603534,7.91961327034122 L60.0,-0.0" fill="green" fill-opacity="0.6" stroke="black" stroke-width="1" />
<path d="M65.0,-0.0 L60.063824587603534,-7.91961327034122 L60.0,-0.0" fill="purple" fill-opacity="0.6" stroke="black" stroke-width="1" />
<path d="M56.0,-0.0 L57.74167324832894,10.00529253148812 L56.130125773724075,24.44606494798568" fill="green" fill-opacity="0.6" stroke="black" stroke-width="1" />
<path d="M56.0,-0.0 L57.74167324832894,-10.00529253148812 L56.130125773724075,-24.44606494798568" fill="green" fill-opacity="0.6" stroke="black" stroke-width="1" />
<path d="M57.74167324832894,10.00529253148812 L56.130125773724075,24.44606494798568 L50.0,27.0" fill="pink" fill-opacity="0.6" stroke="black" stroke-width="1" />
<path d="M57.74167324832894,-10.00529253148812 L56.130125773724075,-24.44606494798568 L50.0,-27.0" fill="brown" fill-opacity="0.6" stroke="black" stroke-width="1" />
<path d="M50.0,49.0 L51.48855070465539,46.82126809051327 L52.234966448186555,44.27106963104615" fill="red" fill-opacity="0.6" stroke="black" stroke-width="1" />
<path d="M50.0,-49.0 L51.48855070465539,-46.82126809051327 L52.234966448186555,-44.27106963104615" fill="brown" fill-opacity="0.6" stroke="black" stroke-width="1" />
<path d="M51.48855070465539,46.82126809051327 L52.234966448186555,44.27106963104615 L55.166226275371855,39.74242603882525" fill="yellow" fill-opacity="0.6" stroke="black" stroke-width="1" />
<path d="M51.48855070465539,-46.82126809051327 L52.234966448186555,-44.27106963104615 L55.166226275371855,-39.74242603882525" fill="green" fill-opacity="0.6" stroke="black" stroke-width="1" />
<path d="M52.234966448186555,44.27106963104615 L55.166226275371855,39.74242603882525 L62.0,38.0" fill="blue" fill-opacity="0.6" stroke="black" stroke-width="1" />
<path d="M52.234966448186555,-44.27106963104615 L55.166226275371855,-39.74242603882525 L62.0,-38.0" fill="brown" fill-opacity="0.6" stroke="black" stroke-width="1" />
<path d="M55.166226275371855,39.74242603882525 L62.0,38.0 L69.0,31.0" fill="pink" fill-opacity="0.6" stroke="black" stroke-width="1" />
<path d="M55.166226275371855,-39.74242603882525 L62.0,-38.0 L69.0,-31.0" fill="red" fill-opacity="0.6" stroke="black" stroke-width="1" />
<path d="M62.0,38.0 L69.0,31.0 L86.0,14.0" fill="orange" fill-opacity="0.6" stroke="black" stroke-width="1" />
<path d="M62.0,-38.0 L69.0,-31.0 L86.0,-14.0" fill="yellow" fill-opacity="0.6" stroke="black" stroke-width="1" />
<path d="M69.0,31.0 L86.0,14.0 L87.0,13.0" fill="blue" fill-opacity="0.6" stroke="black" stroke-width="1" />
<path d="M69.0,-31.0 L86.0,-14.0 L87.0,-13.0" fill="red" fill-opacity="0.6" stroke="black" stroke-width="1" />
<path d="M86.0,14.0 L87.0,13.0 L89.7659179707397,3.389233995195147" fill="purple" fill-opacity="0.6" stroke="black" stroke-width="1" />
<path d="M86.0,-14.0 L87.0,-13.0 L89.7659179707397,-3.389233995195147" fill="orange" fill-opacity="0.6" stroke="black" stroke-width="1" />
<path d="M87.0,13.0 L89.7659179707397,3.389233995195147 L93.70481339470263,3.003504493720724" fill="yellow" fill-opacity="0.6" stroke="black" stroke-width="1" />
<path d="M87.0,-13.0 L89.7659179707397,-3.389233995195147 L93.70481339470263,-3.003504493720724" fill="purple" fill-opacity="0.6" stroke="black" stroke-width="1" />
<path d="M89.7659179707397,3.389233995195147 L93.70481339470263,3.003504493720724 L93.86632916264747,2.930008526789492" fill="black" fill-opacity="0.6" stroke="black" stroke-width="1" />
<path d="M89.7659179707397,-3.389233995195147 L93.70481339470263,-3.003504493720724 L93.86632916264747,-2.930008526789492" fill="red" fill-opacity="0.6" stroke="black" stroke-width="1" />
<path d="M93.70481339470263,3.003504493720724 L93.86632916264747,2.930008526789492 L95.28889334743278,2.1072640060824344" fill="green" fill-opacity="0.6" stroke="black" stroke-width="1" />
<path d="M93.70481339470263,-3.003504493720724 L93.86632916264747,-2.930008526789492 L95.28889334743278,-2.1072640060824344" fill="purple" fill-opacity="0.6" stroke="black" stroke-width="1" />
<path d="M93.86632916264747,2.930008526789492 L95.28889334743278,2.1072640060824344 L95.48732957978703,1.084762087704233" fill="green" fill-opacity="0.6" stroke="black" stroke-width="1" />
<path d="M93.86632916264747,-2.930008526789492 L95.28889334743278,-2.1072640060824344 L95.48732957978703,-1.084762087704233" fill="pink" fill-opacity="0.6" stroke="black" stroke-width="1" />
<path d="M95.28889334743278,2.1072640060824344 L95.48732957978703,1.084762087704233 L98.70341933158323,0.41103666426542673" fill="pink" fill-opacity="0.6" stroke="black" stroke-width="1" />
<path d="M95.28889334743278,-2.1072640060824344 L95.48732957978703,-1.084762087704233 L98.70341933158323,-0.41103666426542673" fill="green" fill-opacity="0.6" stroke="black" stroke-width="1" />
<path d="M95.48732957978703,1.084762087704233 L98.70341933158323,0.41103666426542673 L99.0,1.0" fill="orange" fill-opacity="0.6" stroke="black" stroke-width="1" />
<path d="M95.48732957978703,-1.084762087704233 L98.70341933158323,-0.41103666426542673 L99.0,-1.0" fill="brown" fill-opacity="0.6" stroke="black" stroke-width="1" />
<path d="M98.70341933158323,0.41103666426542673 L99.0,1.0 L100.0,-0.0" fill="orange" fill-opacity="0.6" stroke="black" stroke-width="1" />
<path d="M98.70341933158323,-0.41103666426542673 L99.0,-1.0 L100.0,-0.0" fill="black" fill-opacity="0.6" stroke="black" stroke-width="1" />
<path d="M0.0,-0.0 L3.5693423060265212,-11.819401611516067 L4.713612714692323,-21.883829452777665" fill="yellow" fill-opacity="0.6" stroke="black" stroke-width="1" />
<path d="M0.0,-0.0 L3.5693423060265212,11.819401611516067 L4.713612714692323,21.883829452777665" fill="blue" fill-opacity="0.6" stroke="black" stroke-width="1" />
<path d="M0.0,100.0 L3.5693423060265212,88.18059838848393 L4.713612714692323,78.11617054722234" fill="pink" fill-opacity="0.6" stroke="black" stroke-width="1" />
<path d="M0.0,-100.0 L3.5693423060265212,-88.18059838848393 L4.713612714692323,-78.11617054722234" fill="orange" fill-opacity="0.6" stroke="black" stroke-width="1" />
<path d="M3.5693423060265212,-11.819401611516067 L4.713612714692323,-21.883829452777665 L6.17892098839209,-22.459827246423337" fill="green" fill-opacity="0.6" stroke="black" stroke-width="1" />
<path d="M3.5693423060265212,11.819401611516067 L4.713612714692323,21.883829452777665 L6.17892098839209,22.459827246423337" fill="red" fill-opacity="0.6" stroke="black" stroke-width="1" />
<path d="M3.5693423060265212,88.18059838848393 L4.713612714692323,78.11617054722234 L6.17892098839209,77.54017275357666" fill="black" fill-opacity="0.6" stroke="black" stroke-width="1" />
<path d="M3.5693423060265212,-88.18059838848393 L4.713612714692323,-78.11617054722234 L6.17892098839209,-77.54017275357666" fill="orange" fill-opacity="0.6" stroke="black" stroke-width="1" />
<path d="M4.713612714692323,-21.883829452777665 L6.17892098839209,-22.459827246423337 L7.885657342291394,-23.140277314146527" fill="orange" fill-opacity="0.6" stroke="black" stroke-width="1" />
<path d="M4.713612714692323,21.883829452777665 L6.17892098839209,22.459827246423337 L7.885657342291394,23.140277314146527" fill="pink" fill-opacity="0.6" stroke="black" stroke-width="1" />
<path d="M4.713612714692323,78.11617054722234 L6.17892098839209,77.54017275357666 L7.885657342291394,76.85972268585347" fill="yellow" fill-opacity="0.6" stroke="black" stroke-width="1" />
<path d="M4.713612714692323,-78.11617054722234 L6.17892098839209,-77.54017275357666 L7.885657342291394,-76.85972268585347" fill="green" fill-opacity="0.6" stroke="black" stroke-width="1" />
<path d="M6.17892098839209,-22.459827246423337 L7.885657342291394,-23.140277314146527 L0.0,-25.0" fill="red" fill-opacity="0.6" stroke="black" stroke-width="1" />
<path d="M6.17892098839209,22.459827246423337 L7.885657342291394,23.140277314146527 L0.0,25.0" fill="black" fill-opacity="0.6" stroke="black" stroke-width="1" />
<path d="M6.17892098839209,77.54017275357666 L7.885657342291394,76.85972268585347 L0.0,75.0" fill="pink" fill-opacity="0.6" stroke="black" stroke-width="1" />
<path d="M6.17892098839209,-77.54017275357666 L7.885657342291394,-76.85972268585347 L0.0,-75.0" fill="orange" fill-opacity="0.6" stroke="black" stroke-width="1" />
<path d="M0.0,-35.0 L7.91961327034122,-39.936175412396466 L0.0,-40.0" fill="purple" fill-opacity="0.6" stroke="black" stroke-width="1" />
<path d="M0.0,35.0 L7.91961327034122,39.936175412396466 L0.0,40.0" fill="yellow" fill-opacity="0.6" stroke="black" stroke-width="1" />
<path d="M0.0,65.0 L7.91961327034122,60.063824587603534 L0.0,60.0" fill="black" fill-opacity="0.6" stroke="black" stroke-width="1" />
<path d="M0.0,-65.0 L7.91961327034122,-60.063824587603534 L0.0,-60.0" fill="red" fill-opacity="0.6" stroke="black" stroke-width="1" />
<path d="M0.0,-44.0 L10.00529253148812,-42.25832675167106 L24.44606494798568,-43.869874226275925" fill="pink" fill-opacity="0.6" stroke="black" stroke-width="1" />
<path d="M0.0,44.0 L10.00529253148812,42.25832675167106 L24.44606494798568,43.869874226275925" fill="brown" fill-opacity="0.6" stroke="black" stroke-width="1" />
<path d="M0.0,56.0 L10.00529253148812,57.74167324832894 L24.44606494798568,56.130125773724075" fill="blue" fill-opacity="0.6" stroke="black" stroke-width="1" />
<path d="M0.0,-56.0 L10.00529253148812,-57.74167324832894 L24.44606494798568,-56.130125773724075" fill="purple" fill-opacity="0.6" stroke="black" stroke-width="1" />
<path d="M10.00529253148812,-42.25832675167106 L24.44606494798568,-43.869874226275925 L27.0,-50.0" fill="blue" fill-opacity="0.6" stroke="black" stroke-width="1" />
<path d="M10.00529253148812,42.25832675167106 L24.44606494798568,43.869874226275925 L27.0,50.0" fill="blue" fill-opacity="0.6" stroke="black" stroke-width="1" />
<path d="M10.00529253148812,57.74167324832894 L24.44606494798568,56.130125773724075 L27.0,50.0" fill="red" fill-opacity="0.6" stroke="black" stroke-width="1" />
<path d="M10.00529253148812,-57.74167324832894 L24.44606494798568,-56.130125773724075 L27.0,-50.0" fill="red" fill-opacity="0.6" stroke="black" stroke-width="1" />
<path d="M49.0,-50.0 L46.82126809051327,-48.51144929534461 L44.27106963104615,-47.765033551813445" fill="yellow" fill-opacity="0.6" stroke="black" stroke-width="1" />
<path d="M49.0,50.0 L46.82126809051327,48.51144929534461 L44.27106963104615,47.765033551813445" fill="red" fill-opacity="0.6" stroke="black" stroke-width="1" />
<path d="M49.0,50.0 L46.82126809051327,51.48855070465539 L44.27106963104615,52.234966448186555" fill="brown" fill-opacity="0.6" stroke="black" stroke-width="1" />
<path d="M49.0,-50.0 L46.82126809051327,-51.48855070465539 L44.27106963104615,-52.234966448186555" fill="black" fill-opacity="0.6" stroke="black" stroke-width="1" />
<path d="M46.82126809051327,-48.51144929534461 L44.27106963104615,-47.765033551813445 L39.74242603882525,-44.833773724628145" fill="red" fill-opacity="0.6" stroke="black" stroke-width="1" />
<path d="M46.82126809051327,48.51144929534461 L44.27106963104615,47.765033551813445 L39.74242603882525,44.833773724628145" fill="brown" fill-opacity="0.6" stroke="black" stroke-width="1" />
<path d="M46.82126809051327,51.48855070465539 L44.27106963104615,52.234966448186555 L39.74242603882525,55.166226275371855" fill="yellow" fill-opacity="0.6" stroke="black" stroke-width="1" />
<path d="M46.82126809051327,-51.48855070465539 L44.27106963104615,-52.234966448186555 L39.74242603882525,-55.166226275371855" fill="purple" fill-opacity="0.6" stroke="black" stroke-width="1" />
<path d="M44.27106963104615,-47.765033551813445 L39.74242603882525,-44.833773724628145 L38.0,-38.0" fill="pink" fill-opacity="0.6" stroke="black" stroke-width="1" />
<path d="M44.27106963104615,47.765033551813445 L39.74242603882525,44.833773724628145 L38.0,38.0" fill="black" fill-opacity="0.6" stroke="black" stroke-width="1" />
<path d="M44.27106963104615,52.234966448186555 L39.74242603882525,55.166226275371855 L38.0,62.0" fill="brown" fill-opacity="0.6" stroke="black" stroke-width="1" />
<path d="M44.27106963104615,-52.234966448186555 L39.74242603882525,-55.166226275371855 L38.0,-62.0" fill="purple" fill-opacity="0.6" stroke="black" stroke-width="1" />
<path d="M13.0,-13.0 L3.389233995195147,-10.234082029260305 L3.003504493720724,-6.29518660529737" fill="purple" fill-opacity="0.6" stroke="black" stroke-width="1" />
<path d="M13.0,13.0 L3.389233995195147,10.234082029260305 L3.003504493720724,6.29518660529737" fill="red" fill-opacity="0.6" stroke="black" stroke-width="1" />
<path d="M13.0,87.0 L3.389233995195147,89.7659179707397 L3.003504493720724,93.70481339470263" fill="black" fill-opacity="0.6" stroke="black" stroke-width="1" />
<path d="M13.0,-87.0 L3.389233995195147,-89.7659179707397 L3.003504493720724,-93.70481339470263" fill="brown" fill-opacity="0.6" stroke="black" stroke-width="1" />
<path d="M3.389233995195147,-10.234082029260305 L3.003504493720724,-6.29518660529737 L2.930008526789492,-6.133670837352529" fill="pink" fill-opacity="0.6" stroke="black" stroke-width="1" />
<path d="M3.389233995195147,10.234082029260305 L3.003504493720724,6.29518660529737 L2.930008526789492,6.133670837352529" fill="red" fill-opacity="0.6" stroke="black" stroke-width="1" />
<path d="M3.389233995195147,89.7659179707397 L3.003504493720724,93.70481339470263 L2.930008526789492,93.86632916264747" fill="red" fill-opacity="0.6" stroke="black" stroke-width="1" />
<path d="M3.389233995195147,-89.7659179707397 L3.003504493720724,-93.70481339470263 L2.930008526789492,-93.86632916264747" fill="orange" fill-opacity="0.6" stroke="black" stroke-width="1" />
<path d="M3.003504493720724,-6.29518660529737 L2.930008526789492,-6.133670837352529 L2.1072640060824344,-4.711106652567227" fill="purple" fill-opacity="0.6" stroke="black" stroke-width="1" />
<path d="M3.003504493720724,6.29518660529737 L2.930008526789492,6.133670837352529 L2.1072640060824344,4.711106652567227" fill="pink" fill-opacity="0.6" stroke="black" stroke-width="1" />
<path d="M3.003504493720724,93.70481339470263 L2.930008526789492,93.86632916264747 L2.1072640060824344,95.28889334743278" fill="blue" fill-opacity="0.6" stroke="black" stroke-width="1" />
<path d="M3.003504493720724,-93.70481339470263 L2.930008526789492,-93.86632916264747 L2.1072640060824344,-95.28889334743278" fill="purple" fill-opacity="0.6" stroke="black" stroke-width="1" />
<path d="M2.930008526789492,-6.133670837352529 L2.1072640060824344,-4.711106652567227 L1.084762087704233,-4.512670420212967" fill="black" fill-opacity="0.6" stroke="black" stroke-width="1" />
<path d="M2.930008526789492,6.133670837352529 L2.1072640060824344,4.711106652567227 L1.084762087704233,4.512670420212967" fill="red" fill-opacity="0.6" stroke="black" stroke-width="1" />
<path d="M2.930008526789492,93.86632916264747 L2.1072640060824344,95.28889334743278 L1.084762087704233,95.48732957978703" fill="brown" fill-opacity="0.6" stroke="black" stroke-width="1" />
<path d="M2.930008526789492,-93.86632916264747 L2.1072640060824344,-95.28889334743278 L1.084762087704233,-95.48732957978703" fill="red" fill-opacity="0.6" stroke="black" stroke-width="1" />
<path d="M2.1072640060824344,-4.711106652567227 L1.084762087704233,-4.512670420212967 L0.41103666426542673,-1.296580668416769" fill="purple" fill-opacity="0.6" stroke="black" stroke-width="1" />
<path d="M2.1072640060824344,4.711106652567227 L1.084762087704233,4.512670420212967 L0.41103666426542673,1.296580668416769" fill="black" fill-opacity="0.6" stroke="black" stroke-width="1" />
<path d="M2.1072640060824344,95.28889334743278 L1.084762087704233,95.48732957978703 L0.41103666426542673,98.70341933158323" fill="pink" fill-opacity="0.6" stroke="black" stroke-width="1" />
<path d="M2.1072640060824344,-95.28889334743278 L1.084762087704233,-95.48732957978703 L0.41103666426542673,-98.70341933158323" fill="purple" fill-opacity="0.6" stroke="black" stroke-width="1" />
<path d="M1.084762087704233,-4.512670420212967 L0.41103666426542673,-1.296580668416769 L1.0,-1.0" fill="orange" fill-opacity="0.6" stroke="black" stroke-width="1" />
<path d="M1.084762087704233,4.512670420212967 L0.41103666426542673,1.296580668416769 L1.0,1.0" fill="black" fill-opacity="0.6" stroke="black" stroke-width="1" />
<path d="M1.084762087704233,95.48732957978703 L0.41103666426542673,98.70341933158323 L1.0,99.0" fill="purple" fill-opacity="0.6" stroke="black" stroke-width="1" />
<path d="M1.084762087704233,-95.48732957978703 L0.41103666426542673,-98.70341933158323 L1.0,-99.0" fill="blue" fill-opacity="0.6" stroke="black" stroke-width="1" />
<path d="M0.0,100.0 L-3.5693423060265212,88.18059838848393 L-4.713612714692323,78.11617054722234" fill="orange" fill-opacity="0.6" stroke="black" stroke-width="1" />
<path d="M0.0,-0.0 L-3.5693423060265212,-11.819401611516067 L-4.713612714692323,-21.883829452777665" fill="brown" fill-opacity="0.6" stroke="black" stroke-width="1" />
<path d="M0.0,-0.0 L-3.5693423060265212,11.81940161151607 L-4.713612714692323,21.88382945277766" fill="orange" fill-opacity="0.6" stroke="black" stroke-width="1" />
<path d="M0.0,-100.0 L-3.5693423060265212,-88.18059838848393 L-4.713612714692323,-78.11617054722234" fill="pink" fill-opacity="0.6" stroke="black" stroke-width="1" />
<path d="M-3.5693423060265212,88.18059838848393 L-4.713612714692323,78.11617054722234 L-6.17892098839209,77.54017275357666" fill="yellow" fill-opacity="0.6" stroke="black" stroke-width="1" />
<path d="M-3.5693423060265212,-11.819401611516067 L-4.713612714692323,-21.883829452777665 L-6.17892098839209,-22.459827246423337" fill="orange" fill-opacity="0.6" stroke="black" stroke-width="1" />
<path d="M-3.5693423060265212,11.81940161151607 L-4.713612714692323,21.88382945277766 L-6.17892098839209,22.459827246423345" fill="green" fill-opacity="0.6" stroke="black" stroke-width="1" />
<path d="M-3.5693423060265212,-88.18059838848393 L-4.713612714692323,-78.11617054722234 L-6.17892098839209,-77.54017275357666" fill="black" fill-opacity="0.6" stroke="black" stroke-width="1" />
<path d="M-4.713612714692323,78.11617054722234 L-6.17892098839209,77.54017275357666 L-7.885657342291394,76.85972268585347" fill="red" fill-opacity="0.6" stroke="black" stroke-width="1" />
<path d="M-4.713612714692323,-21.883829452777665 L-6.17892098839209,-22.459827246423337 L-7.885657342291394,-23.140277314146527" fill="black" fill-opacity="0.6" stroke="black" stroke-width="1" />
<path d="M-4.713612714692323,21.88382945277766 L-6.17892098839209,22.459827246423345 L-7.885657342291394,23.14027731414653" fill="brown" fill-opacity="0.6" stroke="black" stroke-width="1" />
<path d="M-4.713612714692323,-78.11617054722234 L-6.17892098839209,-77.54017275357666 L-7.885657342291394,-76.85972268585347" fill="red" fill-opacity="0.6" stroke="black" stroke-width="1" />
<path d="M-6.17892098839209,77.54017275357666 L-7.885657342291394,76.85972268585347 L0.0,75.0" fill="yellow" fill-opacity="0.6" stroke="black" stroke-width="1" />
<path d="M-6.17892098839209,-22.459827246423337 L-7.885657342291394,-23.140277314146527 L0.0,-25.0" fill="black" fill-opacity="0.6" stroke="black" stroke-width="1" />
<path d="M-6.17892098839209,22.459827246423345 L-7.885657342291394,23.14027731414653 L0.0,25.0" fill="pink" fill-opacity="0.6" stroke="black" stroke-width="1" />
<path d="M-6.17892098839209,-77.54017275357666 L-7.885657342291394,-76.85972268585347 L0.0,-75.0" fill="orange" fill-opacity="0.6" stroke="black" stroke-width="1" />
<path d="M0.0,65.0 L-7.91961327034122,60.063824587603534 L0.0,60.0" fill="purple" fill-opacity="0.6" stroke="black" stroke-width="1" />
<path d="M0.0,-35.0 L-7.91961327034122,-39.936175412396466 L0.0,-40.0" fill="orange" fill-opacity="0.6" stroke="black" stroke-width="1" />
<path d="M0.0,35.0 L-7.91961327034122,39.936175412396466 L0.0,40.0" fill="pink" fill-opacity="0.6" stroke="black" stroke-width="1" />
<path d="M0.0,-65.0 L-7.91961327034122,-60.063824587603534 L0.0,-60.0" fill="purple" fill-opacity="0.6" stroke="black" stroke-width="1" />
<path d="M0.0,56.0 L-10.00529253148812,57.74167324832894 L-24.44606494798568,56.130125773724075" fill="brown" fill-opacity="0.6" stroke="black" stroke-width="1" />
<path d="M0.0,-44.0 L-10.00529253148812,-42.25832675167106 L-24.44606494798568,-43.869874226275925" fill="brown" fill-opacity="0.6" stroke="black" stroke-width="1" />
<path d="M0.0,44.0 L-10.00529253148812,42.25832675167106 L-24.44606494798568,43.869874226275925" fill="red" fill-opacity="0.6" stroke="black" stroke-width="1" />
<path d="M0.0,-56.0 L-10.00529253148812,-57.74167324832894 L-24.44606494798568,-56.130125773724075" fill="pink" fill-opacity="0.6" stroke="black" stroke-width="1" />
<path d="M-10.00529253148812,57.74167324832894 L-24.44606494798568,56.130125773724075 L-27.0,50.0" fill="black" fill-opacity="0.6" stroke="black" stroke-width="1" />
<path d="M-10.00529253148812,-42.25832675167106 L-24.44606494798568,-43.869874226275925 L-27.0,-50.0" fill="pink" fill-opacity="0.6" stroke="black" stroke-width="1" />
<path d="M-10.00529253148812,42.25832675167106 L-24.44606494798568,43.869874226275925 L-27.0,50.0" fill="blue" fill-opacity="0.6" stroke="black" stroke-width="1" />
<path d="M-10.00529253148812,-57.74167324832894 L-24.44606494798568,-56.130125773724075 L-27.0,-50.0" fill="orange" fill-opacity="0.6" stroke="black" stroke-width="1" />
<path d="M-49.0,50.0 L-46.82126809051327,51.48855070465539 L-44.27106963104615,52.234966448186555" fill="brown" fill-opacity="0.6" stroke="black" stroke-width="1" />
<path d="M-49.0,-50.0 L-46.82126809051327,-48.51144929534461 L-44.27106963104615,-47.765033551813445" fill="orange" fill-opacity="0.6" stroke="black" stroke-width="1" />
<path d="M-49.0,50.0 L-46.82126809051327,48.51144929534461 L-44.27106963104615,47.765033551813445" fill="black" fill-opacity="0.6" stroke="black" stroke-width="1" />
<path d="M-49.0,-50.0 L-46.82126809051327,-51.48855070465539 L-44.27106963104615,-52.234966448186555" fill="black" fill-opacity="0.6" stroke="black" stroke-width="1" />
<path d="M-46.82126809051327,51.48855070465539 L-44.27106963104615,52.234966448186555 L-39.74242603882525,55.166226275371855" fill="blue" fill-opacity="0.6" stroke="black" stroke-width="1" />
<path d="M-46.82126809051327,-48.51144929534461 L-44.27106963104615,-47.765033551813445 L-39.74242603882525,-44.833773724628145" fill="blue" fill-opacity="0.6" stroke="black" stroke-width="1" />
<path d="M-46.82126809051327,48.51144929534461 L-44.27106963104615,47.765033551813445 L-39.74242603882525,44.833773724628145" fill="orange" fill-opacity="0.6" stroke="black" stroke-width="1" />
<path d="M-46.82126809051327,-51.48855070465539 L-44.27106963104615,-52.234966448186555 L-39.74242603882525,-55.166226275371855" fill="purple" fill-opacity="0.6" stroke="black" stroke-width="1" />
<path d="M-44.27106963104615,52.234966448186555 L-39.74242603882525,55.166226275371855 L-38.0,62.0" fill="green" fill-opacity="0.6" stroke="black" stroke-width="1" />
<path d="M-44.27106963104615,-47.765033551813445 L-39.74242603882525,-44.833773724628145 L-38.0,-38.0" fill="green" fill-opacity="0.6" stroke="black" stroke-width="1" />
<path d="M-44.27106963104615,47.765033551813445 L-39.74242603882525,44.833773724628145 L-38.0,38.0" fill="orange" fill-opacity="0.6" stroke="black" stroke-width="1" />
<path d="M-44.27106963104615,-52.234966448186555 L-39.74242603882525,-55.166226275371855 L-38.0,-62.0" fill="green" fill-opacity="0.6" stroke="black" stroke-width="1" />
<path d="M-13.0,87.0 L-3.389233995195147,89.7659179707397 L-3.003504493720724,93.70481339470263" fill="yellow" fill-opacity="0.6" stroke="black" stroke-width="1" />
<path d="M-13.0,-13.0 L-3.389233995195147,-10.234082029260305 L-3.003504493720724,-6.29518660529737" fill="yellow" fill-opacity="0.6" stroke="black" stroke-width="1" />
<path d="M-13.0,13.0 L-3.389233995195147,10.234082029260307 L-3.003504493720724,6.295186605297374" fill="green" fill-opacity="0.6" stroke="black" stroke-width="1" />
<path d="M-13.0,-87.0 L-3.389233995195147,-89.7659179707397 L-3.003504493720724,-93.70481339470263" fill="blue" fill-opacity="0.6" stroke="black" stroke-width="1" />
<path d="M-3.389233995195147,89.7659179707397 L-3.003504493720724,93.70481339470263 L-2.930008526789492,93.86632916264747" fill="blue" fill-opacity="0.6" stroke="black" stroke-width="1" />
<path d="M-3.389233995195147,-10.234082029260305 L-3.003504493720724,-6.29518660529737 L-2.930008526789492,-6.133670837352529" fill="green" fill-opacity="0.6" stroke="black" stroke-width="1" />
<path d="M-3.389233995195147,10.234082029260307 L-3.003504493720724,6.295186605297374 L-2.930008526789492,6.1336708373525255" fill="blue" fill-opacity="0.6" stroke="black" stroke-width="1" />
<path d="M-3.389233995195147,-89.7659179707397 L-3.003504493720724,-93.70481339470263 L-2.930008526789492,-93.86632916264747" fill="brown" fill-opacity="0.6" stroke="black" stroke-width="1" />
<path d="M-3.003504493720724,93.70481339470263 L-2.930008526789492,93.86632916264747 L-2.1072640060824344,95.28889334743278" fill="yellow" fill-opacity="0.6" stroke="black" stroke-width="1" />
<path d="M-3.003504493720724,-6.29518660529737 L-2.930008526789492,-6.133670837352529 L-2.1072640060824344,-4.711106652567227" fill="red" fill-opacity="0.6" stroke="black" stroke-width="1" />
<path d="M-3.003504493720724,6.295186605297374 L-2.930008526789492,6.1336708373525255 L-2.1072640060824344,4.711106652567224" fill="blue" fill-opacity="0.6" stroke="black" stroke-width="1" />
<path d="M-3.003504493720724,-93.70481339470263 L-2.930008526789492,-93.86632916264747 L-2.1072640060824344,-95.28889334743278" fill="blue" fill-opacity="0.6" stroke="black" stroke-width="1" />
<path d="M-2.930008526789492,93.86632916264747 L-2.1072640060824344,95.28889334743278 L-1.084762087704233,95.48732957978703" fill="purple" fill-opacity="0.6" stroke="black" stroke-width="1" />
<path d="M-2.930008526789492,-6.133670837352529 L-2.1072640060824344,-4.711106652567227 L-1.084762087704233,-4.512670420212967" fill="red" fill-opacity="0.6" stroke="black" stroke-width="1" />
<path d="M-2.930008526789492,6.1336708373525255 L-2.1072640060824344,4.711106652567224 L-1.084762087704233,4.51267042021297" fill="red" fill-opacity="0.6" stroke="black" stroke-width="1" />
<path d="M-2.930008526789492,-93.86632916264747 L-2.1072640060824344,-95.28889334743278 L-1.084762087704233,-95.48732957978703" fill="green" fill-opacity="0.6" stroke="black" stroke-width="1" />
<path d="M-2.1072640060824344,95.28889334743278 L-1.084762087704233,95.48732957978703 L-0.41103666426542673,98.70341933158323" fill="green" fill-opacity="0.6" stroke="black" stroke-width="1" />
<path d="M-2.1072640060824344,-4.711106652567227 L-1.084762087704233,-4.512670420212967 L-0.41103666426542673,-1.296580668416769" fill="red" fill-opacity="0.6" stroke="black" stroke-width="1" />
<path d="M-2.1072640060824344,4.711106652567224 L-1.084762087704233,4.51267042021297 L-0.41103666426542673,1.296580668416766" fill="green" fill-opacity="0.6" stroke="black" stroke-width="1" />
<path d="M-2.1072640060824344,-95.28889334743278 L-1.084762087704233,-95.48732957978703 L-0.41103666426542673,-98.70341933158323" fill="purple" fill-opacity="0.6" stroke="black" stroke-width="1" />
<path d="M-1.084762087704233,95.48732957978703 L-0.41103666426542673,98.70341933158323 L-1.0,99.0" fill="green" fill-opacity="0.6" stroke="black" stroke-width="1" />
<path d="M-1.084762087704233,-4.512670420212967 L-0.41103666426542673,-1.296580668416769 L-1.0,-1.0" fill="yellow" fill-opacity="0.6" stroke="black" stroke-width="1" />
<path d="M-1.084762087704233,4.51267042021297 L-0.41103666426542673,1.296580668416766 L-1.0,1.0" fill="yellow" fill-opacity="0.6" stroke="black" stroke-width="1" />
<path d="M-1.084762087704233,-95.48732957978703 L-0.41103666426542673,-98.70341933158323 L-1.0,-99.0" fill="purple" fill-opacity="0.6" stroke="black" stroke-width="1" />
<path d="M-100.0,-0.0 L-88.18059838848393,-3.5693423060265212 L-78.11617054722234,-4.713612714692323" fill="red" fill-opacity="0.6" stroke="black" stroke-width="1" />
<path d="M-100.0,-0.0 L-88.18059838848393,3.5693423060265212 L-78.11617054722234,4.713612714692323" fill="green" fill-opacity="0.6" stroke="black" stroke-width="1" />
<path d="M-88.18059838848393,-3.5693423060265212 L-78.11617054722234,-4.713612714692323 L-77.54017275357666,-6.17892098839209" fill="purple" fill-opacity="0.6" stroke="black" stroke-width="1" />
<path d="M-88.18059838848393,3.5693423060265212 L-78.11617054722234,4.713612714692323 L-77.54017275357666,6.17892098839209" fill="brown" fill-opacity="0.6" stroke="black" stroke-width="1" />
<path d="M-78.11617054722234,-4.713612714692323 L-77.54017275357666,-6.17892098839209 L-76.85972268585347,-7.885657342291394" fill="red" fill-opacity="0.6" stroke="black" stroke-width="1" />
<path d="M-78.11617054722234,4.713612714692323 L-77.54017275357666,6.17892098839209 L-76.85972268585347,7.885657342291394" fill="black" fill-opacity="0.6" stroke="black" stroke-width="1" />
<path d="M-77.54017275357666,-6.17892098839209 L-76.85972268585347,-7.885657342291394 L-75.0,-0.0" fill="green" fill-opacity="0.6" stroke="black" stroke-width="1" />
<path d="M-77.54017275357666,6.17892098839209 L-76.85972268585347,7.885657342291394 L-75.0,-0.0" fill="red" fill-opacity="0.6" stroke="black" stroke-width="1" />
<path d="M-65.0,-0.0 L-60.063824587603534,-7.91961327034122 L-60.0,-0.0" fill="red" fill-opacity="0.6" stroke="black" stroke-width="1" />
<path d="M-65.0,-0.0 L-60.063824587603534,7.91961327034122 L-60.0,-0.0" fill="yellow" fill-opacity="0.6" stroke="black" stroke-width="1" />
<path d="M-56.0,-0.0 L-57.74167324832894,-10.00529253148812 L-56.130125773724075,-24.44606494798568" fill="red" fill-opacity="0.6" stroke="black" stroke-width="1" />
<path d="M-56.0,-0.0 L-57.74167324832894,10.00529253148812 L-56.130125773724075,24.44606494798568" fill="purple" fill-opacity="0.6" stroke="black" stroke-width="1" />
<path d="M-57.74167324832894,-10.00529253148812 L-56.130125773724075,-24.44606494798568 L-50.0,-27.0" fill="pink" fill-opacity="0.6" stroke="black" stroke-width="1" />
<path d="M-57.74167324832894,10.00529253148812 L-56.130125773724075,24.44606494798568 L-50.0,27.0" fill="yellow" fill-opacity="0.6" stroke="black" stroke-width="1" />
<path d="M-50.0,-49.0 L-51.48855070465539,-46.82126809051327 L-52.234966448186555,-44.27106963104615" fill="green" fill-opacity="0.6" stroke="black" stroke-width="1" />
<path d="M-50.0,49.0 L-51.48855070465539,46.82126809051327 L-52.234966448186555,44.27106963104615" fill="green" fill-opacity="0.6" stroke="black" stroke-width="1" />
<path d="M-51.48855070465539,-46.82126809051327 L-52.234966448186555,-44.27106963104615 L-55.166226275371855,-39.74242603882525" fill="yellow" fill-opacity="0.6" stroke="black" stroke-width="1" />
<path d="M-51.48855070465539,46.82126809051327 L-52.234966448186555,44.27106963104615 L-55.166226275371855,39.74242603882525" fill="red" fill-opacity="0.6" stroke="black" stroke-width="1" />
<path d="M-52.234966448186555,-44.27106963104615 L-55.166226275371855,-39.74242603882525 L-62.0,-38.0" fill="green" fill-opacity="0.6" stroke="black" stroke-width="1" />
<path d="M-52.234966448186555,44.27106963104615 L-55.166226275371855,39.74242603882525 L-62.0,38.0" fill="pink" fill-opacity="0.6" stroke="black" stroke-width="1" />
<path d="M-55.166226275371855,-39.74242603882525 L-62.0,-38.0 L-69.0,-31.0" fill="blue" fill-opacity="0.6" stroke="black" stroke-width="1" />
<path d="M-55.166226275371855,39.74242603882525 L-62.0,38.0 L-69.0,31.0" fill="pink" fill-opacity="0.6" stroke="black" stroke-width="1" />
<path d="M-62.0,-38.0 L-69.0,-31.0 L-86.0,-14.0" fill="brown" fill-opacity="0.6" stroke="black" stroke-width="1" />
<path d="M-62.0,38.0 L-69.0,31.0 L-86.0,14.0" fill="pink" fill-opacity="0.6" stroke="black" stroke-width="1" />
<path d="M-69.0,-31.0 L-86.0,-14.0 L-87.0,-13.0" fill="pink" fill-opacity="0.6" stroke="black" stroke-width="1" />
<path d="M-69.0,31.0 L-86.0,14.0 L-87.0,13.0" fill="orange" fill-opacity="0.6" stroke="black" stroke-width="1" />
<path d="M-86.0,-14.0 L-87.0,-13.0 L-89.7659179707397,-3.389233995195147" fill="brown" fill-opacity="0.6" stroke="black" stroke-width="1" />
<path d="M-86.0,14.0 L-87.0,13.0 L-89.7659179707397,3.389233995195147" fill="brown" fill-opacity="0.6" stroke="black" stroke-width="1" />
<path d="M-87.0,-13.0 L-89.7659179707397,-3.389233995195147 L-93.70481339470263,-3.003504493720724" fill="yellow" fill-opacity="0.6" stroke="black" stroke-width="1" />
<path d="M-87.0,13.0 L-89.7659179707397,3.389233995195147 L-93.70481339470263,3.003504493720724" fill="orange" fill-opacity="0.6" stroke="black" stroke-width="1" />
<path d="M-89.7659179707397,-3.389233995195147 L-93.70481339470263,-3.003504493720724 L-93.86632916264747,-2.930008526789492" fill="orange" fill-opacity="0.6" stroke="black" stroke-width="1" />
<path d="M-89.7659179707397,3.389233995195147 L-93.70481339470263,3.003504493720724 L-93.86632916264747,2.930008526789492" fill="pink" fill-opacity="0.6" stroke="black" stroke-width="1" />
<path d="M-93.70481339470263,-3.003504493720724 L-93.86632916264747,-2.930008526789492 L-95.28889334743278,-2.1072640060824344" fill="black" fill-opacity="0.6" stroke="black" stroke-width="1" />
<path d="M-93.70481339470263,3.003504493720724 L-93.86632916264747,2.930008526789492 L-95.28889334743278,2.1072640060824344" fill="black" fill-opacity="0.6" stroke="black" stroke-width="1" />
<path d="M-93.86632916264747,-2.930008526789492 L-95.28889334743278,-2.1072640060824344 L-95.48732957978703,-1.084762087704233" fill="black" fill-opacity="0.6" stroke="black" stroke-width="1" />
<path d="M-93.86632916264747,2.930008526789492 L-95.28889334743278,2.1072640060824344 L-95.48732957978703,1.084762087704233" fill="black" fill-opacity="0.6" stroke="black" stroke-width="1" />
<path d="M-95.28889334743278,-2.1072640060824344 L-95.48732957978703,-1.084762087704233 L-98.70341933158323,-0.41103666426542673" fill="red" fill-opacity="0.6" stroke="black" stroke-width="1" />
<path d="M-95.28889334743278,2.1072640060824344 L-95.48732957978703,1.084762087704233 L-98.70341933158323,0.41103666426542673" fill="black" fill-opacity="0.6" stroke="black" stroke-width="1" />
<path d="M-95.48732957978703,-1.084762087704233 L-98.70341933158323,-0.41103666426542673 L-99.0,-1.0" fill="orange" fill-opacity="0.6" stroke="black" stroke-width="1" />
<path d="M-95.48732957978703,1.084762087704233 L-98.70341933158323,0.41103666426542673 L-99.0,1.0" fill="yellow" fill-opacity="0.6" stroke="black" stroke-width="1" />
<path d="M-98.70341933158323,-0.41103666426542673 L-99.0,-1.0 L-100.0,-0.0" fill="brown" fill-opacity="0.6" stroke="black" stroke-width="1" />
<path d="M-98.70341933158323,0.41103666426542673 L-99.0,1.0 L-100.0,-0.0" fill="black" fill-opacity="0.6" stroke="black" stroke-width="1" />
</svg>