<?xml version="1.0" encoding="UTF-8"?>
<svg xmlns="http://www.w3.org/2000/svg" xmlns:xlink="http://www.w3.org/1999/xlink"
     width="250" height="250" viewBox="-125.0 -125.0 250 250">
<defs>
</defs>
<path d="M4.0,-0.0 L9.39132748275297,-0.14350869667104638 L11.055925115727995,-2.3068782781261787" fill="green" fill-opacity="0.6" stroke="black" stroke-width="1" />
<path d="M4.0,-0.0 L9.39132748275297,0.14350869667104638 L11.055925115727995,2.3068782781261787" fill="brown" fill-opacity="0.6" stroke="black" stroke-width="1" />
<path d="M9.39132748275297,-0.14350869667104638 L11.055925115727995,-2.3068782781261787 L12.996265981503731,-2.888724311684693" fill="brown" fill-opacity="0.6" stroke="black" stroke-width="1" />
<path d="M9.39132748275297,0.14350869667104638 L11.055925115727995,2.3068782781261787 L12.996265981503731,2.888724311684693" fill="red" fill-opacity="0.6" stroke="black" stroke-width="1" />
<path d="M11.055925115727995,-2.3068782781261787 L12.996265981503731,-2.888724311684693 L13.280760146174037,-2.9079270939840725" fill="blue" fill-opacity="0.6" stroke="black" stroke-width="1" />
<path d="M11.055925115727995,2.3068782781261787 L12.996265981503731,2.888724311684693 L13.280760146174037,2.9079270939840725" fill="pink" fill-opacity="0.6" stroke="black" stroke-width="1" />
<path d="M12.996265981503731,-2.888724311684693 L13.280760146174037,-2.9079270939840725 L15.305096976477312,-4.869689885088052" fill="yellow" fill-opacity="0.6" stroke="black" stroke-width="1" />
<path d="M12.996265981503731,2.888724311684693 L13.280760146174037,2.9079270939840725 L15.305096976477312,4.869689885088052" fill="yellow" fill-opacity="0.6" stroke="black" stroke-width="1" />
<path d="M13.280760146174037,-2.9079270939840725 L15.305096976477312,-4.869689885088052 L17.0,-0.0" fill="orange" fill-opacity="0.6" stroke="black" stroke-width="1" />
<path d="M13.280760146174037,2.9079270939840725 L15.305096976477312,4.869689885088052 L17.0,-0.0" fill="black" fill-opacity="0.6" stroke="black" stroke-width="1" />
<path d="M17.0,-0.0 L17.053269560557872,-5.75475808792047 L25.696081752850823,-9.085153212680492" fill="blue" fill-opacity="0.6" stroke="black" stroke-width="1" />
<path d="M17.0,-0.0 L17.053269560557872,5.75475808792047 L25.696081752850823,9.085153212680492" fill="orange" fill-opacity="0.6" stroke="black" stroke-width="1" />
<path d="M17.053269560557872,-5.75475808792047 L25.696081752850823,-9.085153212680492 L32.0,-0.0" fill="pink" fill-opacity="0.6" stroke="black" stroke-width="1" />
<path d="M17.053269560557872,5.75475808792047 L25.696081752850823,9.085153212680492 L32.0,-0.0" fill="yellow" fill-opacity="0.6" stroke="black" stroke-width="1" />
<path d="M50.0,-0.0 L42.85862310747203,-10.274834867056299 L50.0,-14.0" fill="blue" fill-opacity="0.6" stroke="black" stroke-width="1" />
<path d="M50.0,-0.0 L42.85862310747203,10.274834867056299 L50.0,14.0" fill="yellow" fill-opacity="0.6" stroke="black" stroke-width="1" />
<path d="M50.0,-14.0 L46.871619607137326,-17.88879324728198 L50.0,-21.0" fill="purple" fill-opacity="0.6" stroke="black" stroke-width="1" />
<path d="M50.0,14.0 L46.871619607137326,17.88879324728198 L50.0,21.0" fill="black" fill-opacity="0.6" stroke="black" stroke-width="1" />
<path d="M50.0,-21.0 L46.91009203439429,-21.023596248609337 L48.350636661557495,-25.6126161810246" fill="black" fill-opacity="0.6" stroke="black" stroke-width="1" />
<path d="M50.0,21.0 L46.91009203439429,21.023596248609337 L48.350636661557495,25.6126161810246" fill="green" fill-opacity="0.6" stroke="black" stroke-width="1" />
<path d="M46.91009203439429,-21.023596248609337 L48.350636661557495,-25.6126161810246 L50.0,-27.0" fill="black" fill-opacity="0.6" stroke="black" stroke-width="1" />
<path d="M46.91009203439429,21.023596248609337 L48.350636661557495,25.6126161810246 L50.0,27.0" fill="purple" fill-opacity="0.6" stroke="black" stroke-width="1" />
<path d="M40.0,50.0 L40.0,60.0 L39.0,61.0" fill="purple" fill-opacity="0.6" stroke="black" stroke-width="1" />
<path d="M40.0,-50.0 L40.0,-60.0 L39.0,-61.0" fill="black" fill-opacity="0.6" stroke="black" stroke-width="1" />
<path d="M39.0,61.0 L25.0,75.0 L18.0,82.0" fill="black" fill-opacity="0.6" stroke="black" stroke-width="1" />
<path d="M39.0,-61.0 L25.0,-75.0 L18.0,-82.0" fill="pink" fill-opacity="0.6" stroke="black" stroke-width="1" />
<path d="M25.0,75.0 L18.0,82.0 L2.0,98.0" fill="orange" fill-opacity="0.6" stroke="black" stroke-width="1" />
<path d="M25.0,-75.0 L18.0,-82.0 L2.0,-98.0" fill="orange" fill-opacity="0.6" stroke="black" stroke-width="1" />
<path d="M18.0,82.0 L2.0,98.0 L0.0,100.0" fill="pink" fill-opacity="0.6" stroke="black" stroke-width="1" />
<path d="M18.0,-82.0 L2.0,-98.0 L0.0,-100.0" fill="brown" fill-opacity="0.6" stroke="black" stroke-width="1" />
<path d="M-4.0,-0.0 L-9.39132748275297,-0.14350869667104638 L-11.055925115727995,-2.3068782781261787" fill="brown" fill-opacity="0.6" stroke="black" stroke-width="1" />
<path d="M-4.0,-0.0 L-9.39132748275297,0.14350869667104638 L-11.055925115727995,2.3068782781261787" fill="blue" fill-opacity="0.6" stroke="black" stroke-width="1" />
<path d="M-9.39132748275297,-0.14350869667104638 L-11.055925115727995,-2.3068782781261787 L-12.996265981503731,-2.888724311684693" fill="orange" fill-opacity="0.6" stroke="black" stroke-width="1" />
<path d="M-9.39132748275297,0.14350869667104638 L-11.055925115727995,2.3068782781261787 L-12.996265981503731,2.888724311684693" fill="red" fill-opacity="0.6" stroke="black" stroke-width="1" />
<path d="M-11.055925115727995,-2.3068782781261787 L-12.996265981503731,-2.888724311684693 L-13.280760146174037,-2.9079270939840725" fill="brown" fill-opacity="0.6" stroke="black" stroke-width="1" />
<path d="M-11.055925115727995,2.3068782781261787 L-12.996265981503731,2.888724311684693 L-13.280760146174037,2.9079270939840725" fill="brown" fill-opacity="0.6" stroke="black" stroke-width="1" />
<path d="M-12.996265981503731,-2.888724311684693 L-13.280760146174037,-2.9079270939840725 L-15.305096976477312,-4.869689885088052" fill="black" fill-opacity="0.6" stroke="black" stroke-width="1" />
<path d="M-12.996265981503731,2.888724311684693 L-13.280760146174037,2.9079270939840725 L-15.305096976477312,4.869689885088052" fill="red" fill-opacity="0.6" stroke="black" stroke-width="1" />
<path d="M-13.280760146174037,-2.9079270939840725 L-15.305096976477312,-4.869689885088052 L-17.0,-0.0" fill="purple" fill-opacity="0.6" stroke="black" stroke-width="1" />
<path d="M-13.280760146174037,2.9079270939840725 L-15.305096976477312,4.869689885088052 L-17.0,-0.0" fill="pink" fill-opacity="0.6" stroke="black" stroke-width="1" />
<path d="M-17.0,-0.0 L-17.053269560557872,-5.75475808792047 L-25.696081752850823,-9.085153212680492" fill="brown" fill-opacity="0.6" stroke="black" stroke-width="1" />
<path d="M-17.0,-0.0 L-17.053269560557872,5.75475808792047 L-25.696081752850823,9.085153212680492" fill="yellow" fill-opacity="0.6" stroke="black" stroke-width="1" />
<path d="M-17.053269560557872,-5.75475808792047 L-25.696081752850823,-9.085153212680492 L-32.0,-0.0" fill="blue" fill-opacity="0.6" stroke="black" stroke-width="1" />
<path d="M-17.053269560557872,5.75475808792047 L-25.696081752850823,9.085153212680492 L-32.0,-0.0" fill="black" fill-opacity="0.6" stroke="black" stroke-width="1" />
<path d="M-50.0,-0.0 L-42.85862310747203,-10.274834867056299 L-50.0,-14.0" fill="orange" fill-opacity="0.6" stroke="black" stroke-width="1" />
<path d="M-50.0,-0.0 L-42.85862310747203,10.274834867056299 L-50.0,14.0" fill="green" fill-opacity="0.6" stroke="black" stroke-width="1" />
<path d="M-50.0,-14.0 L-46.871619607137326,-17.88879324728198 L-50.0,-21.0" fill="red" fill-opacity="0.6" stroke="black" stroke-width="1" />
<path d="M-50.0,14.0 L-46.871619607137326,17.88879324728198 L-50.0,21.0" fill="brown" fill-opacity="0.6" stroke="black" stroke-width="1" />
<path d="M-50.0,-21.0 L-46.91009203439429,-21.023596248609337 L-48.350636661557495,-25.6126161810246" fill="pink" fill-opacity="0.6" stroke="black" stroke-width="1" />
<path d="M-50.0,21.0 L-46.91009203439429,21.023596248609337 L-48.350636661557495,25.6126161810246" fill="orange" fill-opacity="0.6" stroke="black" stroke-width="1" />
<path d="M-46.91009203439429,-21.023596248609337 L-48.350636661557495,-25.6126161810246 L-50.0,-27.0" fill="red" fill-opacity="0.6" stroke="black" stroke-width="1" />
<path d="M-46.91009203439429,21.023596248609337 L-48.350636661557495,25.6126161810246 L-50.0,27.0" fill="green" fill-opacity="0.6" stroke="black" stroke-width="1" />
<path d="M-40.0,50.0 L-40.0,60.0 L-39.0,61.0" fill="yellow" fill-opacity="0.6" stroke="black" stroke-width="1" />
<path d="M-40.0,-50.0 L-40.0,-60.0 L-39.0,-61.0" fill="yellow" fill-opacity="0.6" stroke="black" stroke-width="1" />
<path d="M-39.0,61.0 L-25.0,75.0 L-18.0,82.0" fill="pink" fill-opacity="0.6" stroke="black" stroke-width="1" />
<path d="M-39.0,-61.0 L-25.0,-75.0 L-18.0,-82.0" fill="orange" fill-opacity="0.6" stroke="black" stroke-width="1" />
<path d="M-25.0,75.0 L-18.0,82.0 L-2.0,98.0" fill="brown" fill-opacity="0.6" stroke="black" stroke-width="1" />
<path d="M-25.0,-75.0 L-18.0,-82.0 L-2.0,-98.0" fill="green" fill-opacity="0.6" stroke="black" stroke-width="1" />
<path d="M-18.0,82.0 L-2.0,98.0 L0.0,100.0" fill="yellow" fill-opacity="0.6" stroke="black" stroke-width="1" />
<path d="M-18.0,-82.0 L-2.0,-98.0 L0.0,-100.0" fill="red" fill-opacity="0.6" stroke="black" stroke-width="1" />
<path d="M96.0,-0.0 L90.60867251724703,0.14350869667104638 L88.944074884272,2.3068782781261787" fill="green" fill-opacity="0.6" stroke="black" stroke-width="1" />
<path d="M96.0,-0.0 L90.60867251724703,-0.14350869667104638 L88.944074884272,-2.3068782781261787" fill="orange" fill-opacity="0.6" stroke="black" stroke-width="1" />
<path d="M90.60867251724703,0.14350869667104638 L88.944074884272,2.3068782781261787 L87.00373401849626,2.888724311684693" fill="purple" fill-opacity="0.6" stroke="black" stroke-width="1" />
<path d="M90.60867251724703,-0.14350869667104638 L88.944074884272,-2.3068782781261787 L87.00373401849626,-2.888724311684693" fill="brown" fill-opacity="0.6" stroke="black" stroke-width="1" />
<path d="M88.944074884272,2.3068782781261787 L87.00373401849626,2.888724311684693 L86.71923985382597,2.9079270939840725" fill="black" fill-opacity="0.6" stroke="black" stroke-width="1" />
<path d="M88.944074884272,-2.3068782781261787 L87.00373401849626,-2.888724311684693 L86.71923985382597,-2.9079270939840725" fill="black" fill-opacity="0.6" stroke="black" stroke-width="1" />
<path d="M87.00373401849626,2.888724311684693 L86.71923985382597,2.9079270939840725 L84.69490302352268,4.869689885088052" fill="yellow" fill-opacity="0.6" stroke="black" stroke-width="1" />
<path d="M87.00373401849626,-2.888724311684693 L86.71923985382597,-2.9079270939840725 L84.69490302352268,-4.869689885088052" fill="orange" fill-opacity="0.6" stroke="black" stroke-width="1" />
<path d="M86.71923985382597,2.9079270939840725 L84.69490302352268,4.869689885088052 L83.0,-0.0" fill="yellow" fill-opacity="0.6" stroke="black" stroke-width="1" />
<path d="M86.71923985382597,-2.9079270939840725 L84.69490302352268,-4.869689885088052 L83.0,-0.0" fill="purple" fill-opacity="0.6" stroke="black" stroke-width="1" />
<path d="M83.0,-0.0 L82.94673043944212,5.75475808792047 L74.30391824714917,9.085153212680492" fill="green" fill-opacity="0.6" stroke="black" stroke-width="1" />
<path d="M83.0,-0.0 L82.94673043944212,-5.75475808792047 L74.30391824714917,-9.085153212680492" fill="brown" fill-opacity="0.6" stroke="black" stroke-width="1" />
<path d="M82.94673043944212,5.75475808792047 L74.30391824714917,9.085153212680492 L68.0,-0.0" fill="yellow" fill-opacity="0.6" stroke="black" stroke-width="1" />
<path d="M82.94673043944212,-5.75475808792047 L74.30391824714917,-9.085153212680492 L68.0,-0.0" fill="black" fill-opacity="0.6" stroke="black" stroke-width="1" />
<path d="M50.0,-0.0 L57.14137689252797,10.274834867056299 L50.0,14.0" fill="yellow" fill-opacity="0.6" stroke="black" stroke-width="1" />
<path d="M50.0,-0.0 L57.14137689252797,-10.274834867056299 L50.0,-14.0" fill="black" fill-opacity="0.6" stroke="black" stroke-width="1" />
<path d="M50.0,14.0 L53.128380392862674,17.88879324728198 L50.0,21.0" fill="yellow" fill-opacity="0.6" stroke="black" stroke-width="1" />
<path d="M50.0,-14.0 L53.128380392862674,-17.88879324728198 L50.0,-21.0" fill="green" fill-opacity="0.6" stroke="black" stroke-width="1" />
<path d="M50.0,21.0 L53.08990796560571,21.023596248609337 L51.649363338442505,25.6126161810246" fill="pink" fill-opacity="0.6" stroke="black" stroke-width="1" />
<path d="M50.0,-21.0 L53.08990796560571,-21.023596248609337 L51.649363338442505,-25.6126161810246" fill="green" fill-opacity="0.6" stroke="black" stroke-width="1" />
<path d="M53.08990796560571,21.023596248609337 L51.649363338442505,25.6126161810246 L50.0,27.0" fill="brown" fill-opacity="0.6" stroke="black" stroke-width="1" />
<path d="M53.08990796560571,-21.023596248609337 L51.649363338442505,-25.6126161810246 L50.0,-27.0" fill="yellow" fill-opacity="0.6" stroke="black" stroke-width="1" />
<path d="M50.0,40.0 L60.0,40.0 L61.0,39.0" fill="yellow" fill-opacity="0.6" stroke="black" stroke-width="1" />
<path d="M50.0,-40.0 L60.0,-40.0 L61.0,-39.0" fill="red" fill-opacity="0.6" stroke="black" stroke-width="1" />
<path d="M61.0,39.0 L75.0,25.0 L82.0,18.0" fill="blue" fill-opacity="0.6" stroke="black" stroke-width="1" />
<path d="M61.0,-39.0 L75.0,-25.0 L82.0,-18.0" fill="pink" fill-opacity="0.6" stroke="black" stroke-width="1" />
<path d="M75.0,25.0 L82.0,18.0 L98.0,2.0" fill="purple" fill-opacity="0.6" stroke="black" stroke-width="1" />
<path d="M75.0,-25.0 L82.0,-18.0 L98.0,-2.0" fill="red" fill-opacity="0.6" stroke="black" stroke-width="1" />
<path d="M82.0,18.0 L98.0,2.0 L100.0,-0.0" fill="orange" fill-opacity="0.6" stroke="black" stroke-width="1" />
<path d="M82.0,-18.0 L98.0,-2.0 L100.0,-0.0" fill="red" fill-opacity="0.6" stroke="black" stroke-width="1" />
<path d="M0.0,-4.0 L0.14350869667104638,-9.39132748275297 L2.3068782781261787,-11.055925115727995" fill="blue" fill-opacity="0.6" stroke="black" stroke-width="1" />
<path d="M0.0,4.0 L0.14350869667104638,9.39132748275297 L2.3068782781261787,11.055925115727995" fill="blue" fill-opacity="0.6" stroke="black" stroke-width="1" />
<path d="M0.0,96.0 L0.14350869667104638,90.60867251724703 L2.3068782781261787,88.944074884272" fill="green" fill-opacity="0.6" stroke="black" stroke-width="1" />
<path d="M0.0,-96.0 L0.14350869667104638,-90.60867251724703 L2.3068782781261787,-88.944074884272" fill="orange" fill-opacity="0.6" stroke="black" stroke-width="1" />
<path d="M0.14350869667104638,-9.39132748275297 L2.3068782781261787,-11.055925115727995 L2.888724311684693,-12.996265981503731" fill="orange" fill-opacity="0.6" stroke="black" stroke-width="1" />
<path d="M0.14350869667104638,9.39132748275297 L2.3068782781261787,11.055925115727995 L2.888724311684693,12.996265981503731" fill="green" fill-opacity="0.6" stroke="black" stroke-width="1" />
<path d="M0.14350869667104638,90.60867251724703 L2.3068782781261787,88.944074884272 L2.888724311684693,87.00373401849626" fill="brown" fill-opacity="0.6" stroke="black" stroke-width="1" />
<path d="M0.14350869667104638,-90.60867251724703 L2.3068782781261787,-88.944074884272 L2.888724311684693,-87.00373401849626" fill="blue" fill-opacity="0.6" stroke="black" stroke-width="1" />
<path d="M2.3068782781261787,-11.055925115727995 L2.888724311684693,-12.996265981503731 L2.9079270939840725,-13.280760146174037" fill="pink" fill-opacity="0.6" stroke="black" stroke-width="1" />
<path d="M2.3068782781261787,11.055925115727995 L2.888724311684693,12.996265981503731 L2.9079270939840725,13.280760146174037" fill="blue" fill-opacity="0.6" stroke="black" stroke-width="1" />
<path d="M2.3068782781261787,88.944074884272 L2.888724311684693,87.00373401849626 L2.9079270939840725,86.71923985382597" fill="orange" fill-opacity="0.6" stroke="black" stroke-width="1" />
<path d="M2.3068782781261787,-88.944074884272 L2.888724311684693,-87.00373401849626 L2.9079270939840725,-86.71923985382597" fill="red" fill-opacity="0.6" stroke="black" stroke-width="1" />
<path d="M2.888724311684693,-12.996265981503731 L2.9079270939840725,-13.280760146174037 L4.869689885088052,-15.305096976477312" fill="blue" fill-opacity="0.6" stroke="black" stroke-width="1" />
<path d="M2.888724311684693,12.996265981503731 L2.9079270939840725,13.280760146174037 L4.869689885088052,15.305096976477312" fill="red" fill-opacity="0.6" stroke="black" stroke-width="1" />
<path d="M2.888724311684693,87.00373401849626 L2.9079270939840725,86.71923985382597 L4.869689885088052,84.69490302352268" fill="green" fill-opacity="0.6" stroke="black" stroke-width="1" />
<path d="M2.888724311684693,-87.00373401849626 L2.9079270939840725,-86.71923985382597 L4.869689885088052,-84.69490302352268" fill="blue" fill-opacity="0.6" stroke="black" stroke-width="1" />
<path d="M2.9079270939840725,-13.280760146174037 L4.869689885088052,-15.305096976477312 L0.0,-17.0" fill="red" fill-opacity="0.6" stroke="black" stroke-width="1" />
<path d="M2.9079270939840725,13.280760146174037 L4.869689885088052,15.305096976477312 L0.0,17.0" fill="purple" fill-opacity="0.6" stroke="black" stroke-width="1" />
<path d="M2.9079270939840725,86.71923985382597 L4.869689885088052,84.69490302352268 L0.0,83.0" fill="yellow" fill-opacity="0.6" stroke="black" stroke-width="1" />
<path d="M2.9079270939840725,-86.71923985382597 L4.869689885088052,-84.69490302352268 L0.0,-83.0" fill="pink" fill-opacity="0.6" stroke="black" stroke-width="1" />
<path d="M0.0,-17.0 L5.75475808792047,-17.053269560557872 L9.085153212680492,-25.696081752850823" fill="yellow" fill-opacity="0.6" stroke="black" stroke-width="1" />
<path d="M0.0,17.0 L5.75475808792047,17.053269560557872 L9.085153212680492,25.696081752850823" fill="orange" fill-opacity="0.6" stroke="black" stroke-width="1" />
<path d="M0.0,83.0 L5.75475808792047,82.94673043944212 L9.085153212680492,74.30391824714917" fill="brown" fill-opacity="0.6" stroke="black" stroke-width="1" />
<path d="M0.0,-83.0 L5.75475808792047,-82.94673043944212 L9.085153212680492,-74.30391824714917" fill="purple" fill-opacity="0.6" stroke="black" stroke-width="1" />
<path d="M5.75475808792047,-17.053269560557872 L9.085153212680492,-25.696081752850823 L0.0,-32.0" fill="brown" fill-opacity="0.6" stroke="black" stroke-width="1" />
<path d="M5.75475808792047,17.053269560557872 L9.085153212680492,25.696081752850823 L0.0,32.0" fill="orange" fill-opacity="0.6" stroke="black" stroke-width="1" />
<path d="M5.75475808792047,82.94673043944212 L9.085153212680492,74.30391824714917 L0.0,68.0" fill="black" fill-opacity="0.6" stroke="black" stroke-width="1" />
<path d="M5.75475808792047,-82.94673043944212 L9.085153212680492,-74.30391824714917 L0.0,-68.0" fill="brown" fill-opacity="0.6" stroke="black" stroke-width="1" />
<path d="M0.0,-50.0 L10.274834867056299,-42.85862310747203 L14.0,-50.0" fill="red" fill-opacity="0.6" stroke="black" stroke-width="1" />
<path d="M0.0,50.0 L10.274834867056299,42.85862310747203 L14.0,50.0" fill="blue" fill-opacity="0.6" stroke="black" stroke-width="1" />
<path d="M0.0,50.0 L10.274834867056299,57.14137689252797 L14.0,50.0" fill="yellow" fill-opacity="0.6" stroke="black" stroke-width="1" />
<path d="M0.0,-50.0 L10.274834867056299,-57.14137689252797 L14.0,-50.0" fill="black" fill-opacity="0.6" stroke="black" stroke-width="1" />
<path d="M14.0,-50.0 L17.88879324728198,-46.871619607137326 L21.0,-50.0" fill="green" fill-opacity="0.6" stroke="black" stroke-width="1" />
<path d="M14.0,50.0 L17.88879324728198,46.871619607137326 L21.0,50.0" fill="green" fill-opacity="0.6" stroke="black" stroke-width="1" />
<path d="M14.0,50.0 L17.88879324728198,53.128380392862674 L21.0,50.0" fill="orange" fill-opacity="0.6" stroke="black" stroke-width="1" />
<path d="M14.0,-50.0 L17.88879324728198,-53.128380392862674 L21.0,-50.0" fill="green" fill-opacity="0.6" stroke="black" stroke-width="1" />
<path d="M21.0,-50.0 L21.023596248609337,-46.91009203439429 L25.6126161810246,-48.350636661557495" fill="purple" fill-opacity="0.6" stroke="black" stroke-width="1" />
<path d="M21.0,50.0 L21.023596248609337,46.91009203439429 L25.6126161810246,48.350636661557495" fill="red" fill-opacity="0.6" stroke="black" stroke-width="1" />
<path d="M21.0,50.0 L21.023596248609337,53.08990796560571 L25.6126161810246,51.649363338442505" fill="orange" fill-opacity="0.6" stroke="black" stroke-width="1" />
<path d="M21.0,-50.0 L21.023596248609337,-53.08990796560571 L25.6126161810246,-51.649363338442505" fill="red" fill-opacity="0.6" stroke="black" stroke-width="1" />
<path d="M21.023596248609337,-46.91009203439429 L25.6126161810246,-48.350636661557495 L27.0,-50.0" fill="green" fill-opacity="0.6" stroke="black" stroke-width="1" />
<path d="M21.023596248609337,46.91009203439429 L25.6126161810246,48.350636661557495 L27.0,50.0" fill="brown" fill-opacity="0.6" stroke="black" stroke-width="1" />
<path d="M21.023596248609337,53.08990796560571 L25.6126161810246,51.649363338442505 L27.0,50.0" fill="black" fill-opacity="0.6" stroke="black" stroke-width="1" />
<path d="M21.023596248609337,-53.08990796560571 L25.6126161810246,-51.649363338442505 L27.0,-50.0" fill="green" fill-opacity="0.6" stroke="black" stroke-width="1" />
<path d="M0.0,96.0 L-0.14350869667104638,90.60867251724703 L-2.3068782781261787,88.944074884272" fill="pink" fill-opacity="0.6" stroke="black" stroke-width="1" />
<path d="M0.0,-4.0 L-0.14350869667104638,-9.39132748275297 L-2.3068782781261787,-11.055925115727995" fill="purple" fill-opacity="0.6" stroke="black" stroke-width="1" />
<path d="M0.0,4.0 L-0.14350869667104638,9.39132748275297 L-2.3068782781261787,11.055925115728002" fill="red" fill-opacity="0.6" stroke="black" stroke-width="1" />
<path d="M0.0,-96.0 L-0.14350869667104638,-90.60867251724703 L-2.3068782781261787,-88.944074884272" fill="red" fill-opacity="0.6" stroke="black" stroke-width="1" />
<path d="M-0.14350869667104638,90.60867251724703 L-2.3068782781261787,88.944074884272 L-2.888724311684693,87.00373401849627" fill="red" fill-opacity="0.6" stroke="black" stroke-width="1" />
<path d="M-0.14350869667104638,-9.39132748275297 L-2.3068782781261787,-11.055925115727995 L-2.888724311684693,-12.996265981503731" fill="black" fill-opacity="0.6" stroke="black" stroke-width="1" />
<path d="M-0.14350869667104638,9.39132748275297 L-2.3068782781261787,11.055925115728002 L-2.888724311684693,12.996265981503726" fill="green" fill-opacity="0.6" stroke="black" stroke-width="1" />
<path d="M-0.14350869667104638,-90.60867251724703 L-2.3068782781261787,-88.944074884272 L-2.888724311684693,-87.00373401849626" fill="orange" fill-opacity="0.6" stroke="black" stroke-width="1" />
<path d="M-2.3068782781261787,88.944074884272 L-2.888724311684693,87.00373401849627 L-2.9079270939840725,86.71923985382597" fill="green" fill-opacity="0.6" stroke="black" stroke-width="1" />
<path d="M-2.3068782781261787,-11.055925115727995 L-2.888724311684693,-12.996265981503731 L-2.9079270939840725,-13.280760146174037" fill="brown" fill-opacity="0.6" stroke="black" stroke-width="1" />
<path d="M-2.3068782781261787,11.055925115728002 L-2.888724311684693,12.996265981503726 L-2.9079270939840725,13.280760146174032" fill="red" fill-opacity="0.6" stroke="black" stroke-width="1" />
<path d="M-2.3068782781261787,-88.944074884272 L-2.888724311684693,-87.00373401849626 L-2.9079270939840725,-86.71923985382597" fill="orange" fill-opacity="0.6" stroke="black" stroke-width="1" />
<path d="M-2.888724311684693,87.00373401849627 L-2.9079270939840725,86.71923985382597 L-4.869689885088052,84.69490302352268" fill="red" fill-opacity="0.6" stroke="black" stroke-width="1" />
<path d="M-2.888724311684693,-12.996265981503731 L-2.9079270939840725,-13.280760146174037 L-4.869689885088052,-15.305096976477312" fill="yellow" fill-opacity="0.6" stroke="black" stroke-width="1" />
<path d="M-2.888724311684693,12.996265981503726 L-2.9079270939840725,13.280760146174032 L-4.869689885088052,15.305096976477316" fill="pink" fill-opacity="0.6" stroke="black" stroke-width="1" />
<path d="M-2.888724311684693,-87.00373401849626 L-2.9079270939840725,-86.71923985382597 L-4.869689885088052,-84.69490302352268" fill="red" fill-opacity="0.6" stroke="black" stroke-width="1" />
<path d="M-2.9079270939840725,86.71923985382597 L-4.869689885088052,84.69490302352268 L0.0,83.0" fill="black" fill-opacity="0.6" stroke="black" stroke-width="1" />
<path d="M-2.9079270939840725,-13.280760146174037 L-4.869689885088052,-15.305096976477312 L0.0,-17.0" fill="red" fill-opacity="0.6" stroke="black" stroke-width="1" />
<path d="M-2.9079270939840725,13.280760146174032 L-4.869689885088052,15.305096976477316 L0.0,17.0" fill="brown" fill-opacity="0.6" stroke="black" stroke-width="1" />
<path d="M-2.9079270939840725,-86.71923985382597 L-4.869689885088052,-84.69490302352268 L0.0,-83.0" fill="red" fill-opacity="0.6" stroke="black" stroke-width="1" />
<path d="M0.0,83.0 L-5.75475808792047,82.94673043944212 L-9.085153212680492,74.30391824714917" fill="red" fill-opacity="0.6" stroke="black" stroke-width="1" />
<path d="M0.0,-17.0 L-5.75475808792047,-17.053269560557872 L-9.085153212680492,-25.696081752850823" fill="brown" fill-opacity="0.6" stroke="black" stroke-width="1" />
<path d="M0.0,17.0 L-5.75475808792047,17.05326956055788 L-9.085153212680492,25.69608175285083" fill="green" fill-opacity="0.6" stroke="black" stroke-width="1" />
<path d="M0.0,-83.0 L-5.75475808792047,-82.94673043944212 L-9.085153212680492,-74.30391824714917" fill="black" fill-opacity="0.6" stroke="black" stroke-width="1" />
<path d="M-5.75475808792047,82.94673043944212 L-9.085153212680492,74.30391824714917 L0.0,68.0" fill="orange" fill-opacity="0.6" stroke="black" stroke-width="1" />
<path d="M-5.75475808792047,-17.053269560557872 L-9.085153212680492,-25.696081752850823 L0.0,-32.0" fill="green" fill-opacity="0.6" stroke="black" stroke-width="1" />
<path d="M-5.75475808792047,17.05326956055788 L-9.085153212680492,25.69608175285083 L0.0,32.0" fill="brown" fill-opacity="0.6" stroke="black" stroke-width="1" />
<path d="M-5.75475808792047,-82.94673043944212 L-9.085153212680492,-74.30391824714917 L0.0,-68.0" fill="yellow" fill-opacity="0.6" stroke="black" stroke-width="1" />
<path d="M0.0,50.0 L-10.274834867056299,57.14137689252797 L-14.0,50.0" fill="brown" fill-opacity="0.6" stroke="black" stroke-width="1" />
<path d="M0.0,-50.0 L-10.274834867056299,-42.85862310747203 L-14.0,-50.0" fill="black" fill-opacity="0.6" stroke="black" stroke-width="1" />
<path d="M0.0,50.0 L-10.274834867056299,42.85862310747203 L-14.0,50.0" fill="yellow" fill-opacity="0.6" stroke="black" stroke-width="1" />
<path d="M0.0,-50.0 L-10.274834867056299,-57.14137689252797 L-14.0,-50.0" fill="green" fill-opacity="0.6" stroke="black" stroke-width="1" />
<path d="M-14.0,50.0 L-17.88879324728198,53.128380392862674 L-21.0,50.0" fill="blue" fill-opacity="0.6" stroke="black" stroke-width="1" />
<path d="M-14.0,-50.0 L-17.88879324728198,-46.871619607137326 L-21.0,-50.0" fill="green" fill-opacity="0.6" stroke="black" stroke-width="1" />
<path d="M-14.0,50.0 L-17.88879324728198,46.871619607137326 L-21.0,50.0" fill="purple" fill-opacity="0.6" stroke="black" stroke-width="1" />
<path d="M-14.0,-50.0 L-17.88879324728198,-53.128380392862674 L-21.0,-50.0" fill="green" fill-opacity="0.6" stroke="black" stroke-width="1" />
<path d="M-21.0,50.0 L-21.023596248609337,53.08990796560571 L-25.6126161810246,51.649363338442505" fill="yellow" fill-opacity="0.6" stroke="black" stroke-width="1" />
<path d="M-21.0,-50.0 L-21.023596248609337,-46.91009203439429 L-25.6126161810246,-48.350636661557495" fill="black" fill-opacity="0.6" stroke="black" stroke-width="1" />
<path d="M-21.0,50.0 L-21.023596248609337,46.91009203439429 L-25.6126161810246,48.350636661557495" fill="purple" fill-opacity="0.6" stroke="black" stroke-width="1" />
<path d="M-21.0,-50.0 L-21.023596248609337,-53.08990796560571 L-25.6126161810246,-51.649363338442505" fill="orange" fill-opacity="0.6" stroke="black" stroke-width="1" />
<path d="M-21.023596248609337,53.08990796560571 L-25.6126161810246,51.649363338442505 L-27.0,50.0" fill="blue" fill-opacity="0.6" stroke="black" stroke-width="1" />
<path d="M-21.023596248609337,-46.91009203439429 L-25.6126161810246,-48.350636661557495 L-27.0,-50.0" fill="yellow" fill-opacity="0.6" stroke="black" stroke-width="1" />
<path d="M-21.023596248609337,46.91009203439429 L-25.6126161810246,48.350636661557495 L-27.0,50.0" fill="blue" fill-opacity="0.6" stroke="black" stroke-width="1" />
<path d="M-21.023596248609337,-53.08990796560571 L-25.6126161810246,-51.649363338442505 L-27.0,-50.0" fill="black" fill-opacity="0.6" stroke="black" stroke-width="1" />
<path d="M-96.0,-0.0 L-90.60867251724703,-0.14350869667104638 L-88.944074884272,-2.3068782781261787" fill="purple" fill-opacity="0.6" stroke="black" stroke-width="1" />
<path d="M-96.0,-0.0 L-90.60867251724703,0.14350869667104638 L-88.944074884272,2.3068782781261787" fill="purple" fill-opacity="0.6" stroke="black" stroke-width="1" />
<path d="M-90.60867251724703,-0.14350869667104638 L-88.944074884272,-2.3068782781261787 L-87.00373401849626,-2.888724311684693" fill="pink" fill-opacity="0.6" stroke="black" stroke-width="1" />
<path d="M-90.60867251724703,0.14350869667104638 L-88.944074884272,2.3068782781261787 L-87.00373401849626,2.888724311684693" fill="black" fill-opacity="0.6" stroke="black" stroke-width="1" />
<path d="M-88.944074884272,-2.3068782781261787 L-87.00373401849626,-2.888724311684693 L-86.71923985382597,-2.9079270939840725" fill="blue" fill-opacity="0.6" stroke="black" stroke-width="1" />
<path d="M-88.944074884272,2.3068782781261787 L-87.00373401849626,2.888724311684693 L-86.71923985382597,2.9079270939840725" fill="pink" fill-opacity="0.6" stroke="black" stroke-width="1" />
<path d="M-87.00373401849626,-2.888724311684693 L-86.71923985382597,-2.9079270939840725 L-84.69490302352268,-4.869689885088052" fill="brown" fill-opacity="0.6" stroke="black" stroke-width="1" />
<path d="M-87.00373401849626,2.888724311684693 L-86.71923985382597,2.9079270939840725 L-84.69490302352268,4.869689885088052" fill="purple" fill-opacity="0.6" stroke="black" stroke-width="1" />
<path d="M-86.71923985382597,-2.9079270939840725 L-84.69490302352268,-4.869689885088052 L-83.0,-0.0" fill="pink" fill-opacity="0.6" stroke="black" stroke-width="1" />
<path d="M-86.71923985382597,2.9079270939840725 L-84.69490302352268,4.869689885088052 L-83.0,-0.0" fill="yellow" fill-opacity="0.6" stroke="black" stroke-width="1" />
<path d="M-83.0,-0.0 L-82.94673043944212,-5.75475808792047 L-74.30391824714917,-9.085153212680492" fill="brown" fill-opacity="0.6" stroke="black" stroke-width="1" />
<path d="M-83.0,-0.0 L-82.94673043944212,5.75475808792047 L-74.30391824714917,9.085153212680492" fill="red" fill-opacity="0.6" stroke="black" stroke-width="1" />
<path d="M-82.94673043944212,-5.75475808792047 L-74.30391824714917,-9.085153212680492 L-68.0,-0.0" fill="black" fill-opacity="0.6" stroke="black" stroke-width="1" />
<path d="M-82.94673043944212,5.75475808792047 L-74.30391824714917,9.085153212680492 L-68.0,-0.0" fill="purple" fill-opacity="0.6" stroke="black" stroke-width="1" />
<path d="M-50.0,-0.0 L-57.14137689252797,-10.274834867056299 L-50.0,-14.0" fill="purple" fill-opacity="0.6" stroke="black" stroke-width="1" />
<path d="M-50.0,-0.0 L-57.14137689252797,10.274834867056299 L-50.0,14.0" fill="blue" fill-opacity="0.6" stroke="black" stroke-width="1" />
<path d="M-50.0,-14.0 L-53.128380392862674,-17.88879324728198 L-50.0,-21.0" fill="black" fill-opacity="0.6" stroke="black" stroke-width="1" />
<path d="M-50.0,14.0 L-53.128380392862674,17.88879324728198 L-50.0,21.0" fill="red" fill-opacity="0.6" stroke="black" stroke-width="1" />
<path d="M-50.0,-21.0 L-53.08990796560571,-21.023596248609337 L-51.649363338442505,-25.6126161810246" fill="orange" fill-opacity="0.6" stroke="black" stroke-width="1" />
<path d="M-50.0,21.0 L-53.08990796560571,21.023596248609337 L-51.649363338442505,25.6126161810246" fill="red" fill-opacity="0.6" stroke="black" stroke-width="1" />
<path d="M-53.08990796560571,-21.023596248609337 L-51.649363338442505,-25.6126161810246 L-50.0,-27.0" fill="blue" fill-opacity="0.6" stroke="black" stroke-width="1" />
<path d="M-53.08990796560571,21.023596248609337 L-51.649363338442505,25.6126161810246 L-50.0,27.0" fill="blue" fill-opacity="0.6" stroke="black" stroke-width="1" />
<path d="M-50.0,-40.0 L-60.0,-40.0 L-61.0,-39.0" fill="orange" fill-opacity="0.6" stroke="black" stroke-width="1" />
<path d="M-50.0,40.0 L-60.0,40.0 L-61.0,39.0" fill="black" fill-opacity="0.6" stroke="black" stroke-width="1" />
<path d="M-61.0,-39.0 L-75.0,-25.0 L-82.0,-18.0" fill="black" fill-opacity="0.6" stroke="black" stroke-width="1" />
<path d="M-61.0,39.0 L-75.0,25.0 L-82.0,18.0" fill="yellow" fill-opacity="0.6" stroke="black" stroke-width="1" />
<path d="M-75.0,-25.0 L-82.0,-18.0 L-98.0,-2.0" fill="pink" fill-opacity="0.6" stroke="black" stroke-width="1" />
<path d="M-75.0,25.0 L-82.0,18.0 L-98.0,2.0" fill="red" fill-opacity="0.6" stroke="black" stroke-width="1" />
<path d="M-82.0,-18.0 L-98.0,-2.0 L-100.0,-0.0" fill="green" fill-opacity="0.6" stroke="black" stroke-width="1" />
<path d="M-82.0,18.0 L-98.0,2.0 L-100.0,-0.0" fill="red" fill-opacity="0.6" stroke="black" stroke-width="1" />
</svg>