<?xml version="1.0" encoding="UTF-8"?>
<svg xmlns="http://www.w3.org/2000/svg" xmlns:xlink="http://www.w3.org/1999/xlink"
     width="250" height="250" viewBox="-125.0 -125.0 250 250">
<defs>
</defs>
<path d="M5.0,-0.0 L12.606861982685146,-1.8344527329381022 L16.095253274949194,-1.9132580911351393" fill-opacity="0" stroke="black" stroke-width="1" />
<path d="M5.0,-0.0 L12.606861982685146,1.8344527329381022 L16.095253274949194,1.9132580911351393" fill-opacity="0" stroke="black" stroke-width="1" />
<path d="M12.606861982685146,-1.8344527329381022 L16.095253274949194,-1.9132580911351393 L21.079756546695453,-3.1099821457851755" fill-opacity="0" stroke="black" stroke-width="1" />
<path d="M12.606861982685146,1.8344527329381022 L16.095253274949194,1.9132580911351393 L21.079756546695453,3.1099821457851755" fill-opacity="0" stroke="black" stroke-width="1" />
<path d="M16.095253274949194,-1.9132580911351393 L21.079756546695453,-3.1099821457851755 L21.639196202488456,-3.8010742334360774" fill-opacity="0" stroke="black" stroke-width="1" />
<path d="M16.095253274949194,1.9132580911351393 L21.079756546695453,3.1099821457851755 L21.639196202488456,3.8010742334360774" fill-opacity="0" stroke="black" stroke-width="1" />
<path d="M21.079756546695453,-3.1099821457851755 L21.639196202488456,-3.8010742334360774 L22.670443268393957,-8.053549831173463" fill-opacity="0" stroke="black" stroke-width="1" />
<path d="M21.079756546695453,3.1099821457851755 L21.639196202488456,3.8010742334360774 L22.670443268393957,8.053549831173463" fill-opacity="0" stroke="black" stroke-width="1" />
<path d="M21.639196202488456,-3.8010742334360774 L22.670443268393957,-8.053549831173463 L37.18061602098862,-8.58311222361724" fill-opacity="0" stroke="black" stroke-width="1" />
<path d="M21.639196202488456,3.8010742334360774 L22.670443268393957,8.053549831173463 L37.18061602098862,8.58311222361724" fill-opacity="0" stroke="black" stroke-width="1" />
<path d="M22.670443268393957,-8.053549831173463 L37.18061602098862,-8.58311222361724 L48.0,-0.0" fill-opacity="0" stroke="black" stroke-width="1" />
<path d="M22.670443268393957,8.053549831173463 L37.18061602098862,8.58311222361724 L48.0,-0.0" fill-opacity="0" stroke="black" stroke-width="1" />
<path d="M50.0,-13.0 L38.108324897366984,-15.10388213989209 L40.775951237333494,-18.01820688414954" fill-opacity="0" stroke="black" stroke-width="1" />
<path d="M50.0,13.0 L38.108324897366984,15.10388213989209 L40.775951237333494,18.01820688414954" fill-opacity="0" stroke="black" stroke-width="1" />
<path d="M38.108324897366984,-15.10388213989209 L40.775951237333494,-18.01820688414954 L44.49451897111855,-32.607555407345636" fill-opacity="0" stroke="black" stroke-width="1" />
<path d="M38.108324897366984,15.10388213989209 L40.775951237333494,18.01820688414954 L44.49451897111855,32.607555407345636" fill-opacity="0" stroke="black" stroke-width="1" />
<path d="M40.775951237333494,-18.01820688414954 L44.49451897111855,-32.607555407345636 L50.0,-46.0" fill-opacity="0" stroke="black" stroke-width="1" />
<path d="M40.775951237333494,18.01820688414954 L44.49451897111855,32.607555407345636 L50.0,46.0" fill-opacity="0" stroke="black" stroke-width="1" />
<path d="M50.0,-48.0 L49.821465356158264,-42.50368465534067 L16.0,-16.0" fill-opacity="0" stroke="black" stroke-width="1" />
<path d="M50.0,48.0 L49.821465356158264,42.50368465534067 L16.0,16.0" fill-opacity="0" stroke="black" stroke-width="1" />
<path d="M42.50368465534067,50.178534643841736 L16.0,84.0 L14.0,86.0" fill-opacity="0" stroke="black" stroke-width="1" />
<path d="M42.50368465534067,-50.178534643841736 L16.0,-84.0 L14.0,-86.0" fill-opacity="0" stroke="black" stroke-width="1" />
<path d="M16.0,84.0 L14.0,86.0 L9.0,91.0" fill-opacity="0" stroke="black" stroke-width="1" />
<path d="M16.0,-84.0 L14.0,-86.0 L9.0,-91.0" fill-opacity="0" stroke="black" stroke-width="1" />
<path d="M14.0,86.0 L9.0,91.0 L0.22149876887735642,96.95434428375836" fill-opacity="0" stroke="black" stroke-width="1" />
<path d="M14.0,-86.0 L9.0,-91.0 L0.22149876887735642,-96.95434428375836" fill-opacity="0" stroke="black" stroke-width="1" />
<path d="M9.0,-9.0 L3.04565571624163,-0.22149876887735642 L1.5153803830790569,-0.07129338485086893" fill-opacity="0" stroke="black" stroke-width="1" />
<path d="M9.0,9.0 L3.04565571624163,0.22149876887735642 L1.5153803830790569,0.07129338485086893" fill-opacity="0" stroke="black" stroke-width="1" />
<path d="M3.04565571624163,-0.22149876887735642 L1.5153803830790569,-0.07129338485086893 L0.0,-0.0" fill-opacity="0" stroke="black" stroke-width="1" />
<path d="M3.04565571624163,0.22149876887735642 L1.5153803830790569,0.07129338485086893 L0.0,-0.0" fill-opacity="0" stroke="black" stroke-width="1" />
<path d="M-5.0,-0.0 L-12.606861982685146,-1.8344527329381022 L-16.095253274949194,-1.9132580911351393" fill-opacity="0" stroke="black" stroke-width="1" />
<path d="M-5.0,-0.0 L-12.606861982685146,1.8344527329381022 L-16.095253274949194,1.9132580911351393" fill-opacity="0" stroke="black" stroke-width="1" />
<path d="M-12.606861982685146,-1.8344527329381022 L-16.095253274949194,-1.9132580911351393 L-21.079756546695453,-3.1099821457851755" fill-opacity="0" stroke="black" stroke-width="1" />
<path d="M-12.606861982685146,1.8344527329381022 L-16.095253274949194,1.9132580911351393 L-21.079756546695453,3.1099821457851755" fill-opacity="0" stroke="black" stroke-width="1" />
<path d="M-16.095253274949194,-1.9132580911351393 L-21.079756546695453,-3.1099821457851755 L-21.639196202488456,-3.8010742334360774" fill-opacity="0" stroke="black" stroke-width="1" />
<path d="M-16.095253274949194,1.9132580911351393 L-21.079756546695453,3.1099821457851755 L-21.639196202488456,3.8010742334360774" fill-opacity="0" stroke="black" stroke-width="1" />
<path d="M-21.079756546695453,-3.1099821457851755 L-21.639196202488456,-3.8010742334360774 L-22.670443268393957,-8.053549831173463" fill-opacity="0" stroke="black" stroke-width="1" />
<path d="M-21.079756546695453,3.1099821457851755 L-21.639196202488456,3.8010742334360774 L-22.670443268393957,8.053549831173463" fill-opacity="0" stroke="black" stroke-width="1" />
<path d="M-21.639196202488456,-3.8010742334360774 L-22.670443268393957,-8.053549831173463 L-37.18061602098862,-8.58311222361724" fill-opacity="0" stroke="black" stroke-width="1" />
<path d="M-21.639196202488456,3.8010742334360774 L-22.670443268393957,8.053549831173463 L-37.18061602098862,8.58311222361724" fill-opacity="0" stroke="black" stroke-width="1" />
<path d="M-22.670443268393957,-8.053549831173463 L-37.18061602098862,-8.58311222361724 L-48.0,-0.0" fill-opacity="0" stroke="black" stroke-width="1" />
<path d="M-22.670443268393957,8.053549831173463 L-37.18061602098862,8.58311222361724 L-48.0,-0.0" fill-opacity="0" stroke="black" stroke-width="1" />
<path d="M-50.0,-13.0 L-38.108324897366984,-15.10388213989209 L-40.775951237333494,-18.01820688414954" fill-opacity="0" stroke="black" stroke-width="1" />
<path d="M-50.0,13.0 L-38.108324897366984,15.10388213989209 L-40.775951237333494,18.01820688414954" fill-opacity="0" stroke="black" stroke-width="1" />
<path d="M-38.108324897366984,-15.10388213989209 L-40.775951237333494,-18.01820688414954 L-44.49451897111855,-32.607555407345636" fill-opacity="0" stroke="black" stroke-width="1" />
<path d="M-38.108324897366984,15.10388213989209 L-40.775951237333494,18.01820688414954 L-44.49451897111855,32.607555407345636" fill-opacity="0" stroke="black" stroke-width="1" />
<path d="M-40.775951237333494,-18.01820688414954 L-44.49451897111855,-32.607555407345636 L-50.0,-46.0" fill-opacity="0" stroke="black" stroke-width="1" />
<path d="M-40.775951237333494,18.01820688414954 L-44.49451897111855,32.607555407345636 L-50.0,46.0" fill-opacity="0" stroke="black" stroke-width="1" />
<path d="M-50.0,-48.0 L-49.821465356158264,-42.50368465534067 L-16.0,-16.0" fill-opacity="0" stroke="black" stroke-width="1" />
<path d="M-50.0,48.0 L-49.821465356158264,42.50368465534067 L-16.0,16.0" fill-opacity="0" stroke="black" stroke-width="1" />
<path d="M-42.50368465534067,50.178534643841736 L-16.0,84.0 L-14.0,86.0" fill-opacity="0" stroke="black" stroke-width="1" />
<path d="M-42.50368465534067,-50.178534643841736 L-16.0,-84.0 L-14.0,-86.0" fill-opacity="0" stroke="black" stroke-width="1" />
<path d="M-16.0,84.0 L-14.0,86.0 L-9.0,91.0" fill-opacity="0" stroke="black" stroke-width="1" />
<path d="M-16.0,-84.0 L-14.0,-86.0 L-9.0,-91.0" fill-opacity="0" stroke="black" stroke-width="1" />
<path d="M-14.0,86.0 L-9.0,91.0 L-0.22149876887735642,96.95434428375837" fill-opacity="0" stroke="black" stroke-width="1" />
<path d="M-14.0,-86.0 L-9.0,-91.0 L-0.22149876887735642,-96.95434428375836" fill-opacity="0" stroke="black" stroke-width="1" />
<path d="M-9.0,-9.0 L-3.04565571624163,-0.22149876887735642 L-1.5153803830790569,-0.07129338485086893" fill-opacity="0" stroke="black" stroke-width="1" />
<path d="M-9.0,9.0 L-3.04565571624163,0.22149876887735642 L-1.5153803830790569,0.07129338485086893" fill-opacity="0" stroke="black" stroke-width="1" />
<path d="M-3.04565571624163,-0.22149876887735642 L-1.5153803830790569,-0.07129338485086893 L0.0,-0.0" fill-opacity="0" stroke="black" stroke-width="1" />
<path d="M-3.04565571624163,0.22149876887735642 L-1.5153803830790569,0.07129338485086893 L0.0,-0.0" fill-opacity="0" stroke="black" stroke-width="1" />
<path d="M95.0,-0.0 L87.39313801731485,1.8344527329381022 L83.90474672505081,1.9132580911351393" fill-opacity="0" stroke="black" stroke-width="1" />
<path d="M95.0,-0.0 L87.39313801731485,-1.8344527329381022 L83.90474672505081,-1.9132580911351393" fill-opacity="0" stroke="black" stroke-width="1" />
<path d="M87.39313801731485,1.8344527329381022 L83.90474672505081,1.9132580911351393 L78.92024345330455,3.1099821457851755" fill-opacity="0" stroke="black" stroke-width="1" />
<path d="M87.39313801731485,-1.8344527329381022 L83.90474672505081,-1.9132580911351393 L78.92024345330455,-3.1099821457851755" fill-opacity="0" stroke="black" stroke-width="1" />
<path d="M83.90474672505081,1.9132580911351393 L78.92024345330455,3.1099821457851755 L78.36080379751155,3.8010742334360774" fill-opacity="0" stroke="black" stroke-width="1" />
<path d="M83.90474672505081,-1.9132580911351393 L78.92024345330455,-3.1099821457851755 L78.36080379751155,-3.8010742334360774" fill-opacity="0" stroke="black" stroke-width="1" />
<path d="M78.92024345330455,3.1099821457851755 L78.36080379751155,3.8010742334360774 L77.32955673160605,8.053549831173463" fill-opacity="0" stroke="black" stroke-width="1" />
<path d="M78.92024345330455,-3.1099821457851755 L78.36080379751155,-3.8010742334360774 L77.32955673160605,-8.053549831173463" fill-opacity="0" stroke="black" stroke-width="1" />
<path d="M78.36080379751155,3.8010742334360774 L77.32955673160605,8.053549831173463 L62.81938397901138,8.58311222361724" fill-opacity="0" stroke="black" stroke-width="1" />
<path d="M78.36080379751155,-3.8010742334360774 L77.32955673160605,-8.053549831173463 L62.81938397901138,-8.58311222361724" fill-opacity="0" stroke="black" stroke-width="1" />
<path d="M77.32955673160605,8.053549831173463 L62.81938397901138,8.58311222361724 L52.0,-0.0" fill-opacity="0" stroke="black" stroke-width="1" />
<path d="M77.32955673160605,-8.053549831173463 L62.81938397901138,-8.58311222361724 L52.0,-0.0" fill-opacity="0" stroke="black" stroke-width="1" />
<path d="M50.0,13.0 L61.891675102633016,15.10388213989209 L59.224048762666506,18.01820688414954" fill-opacity="0" stroke="black" stroke-width="1" />
<path d="M50.0,-13.0 L61.891675102633016,-15.10388213989209 L59.224048762666506,-18.01820688414954" fill-opacity="0" stroke="black" stroke-width="1" />
<path d="M61.891675102633016,15.10388213989209 L59.224048762666506,18.01820688414954 L55.50548102888145,32.607555407345636" fill-opacity="0" stroke="black" stroke-width="1" />
<path d="M61.891675102633016,-15.10388213989209 L59.224048762666506,-18.01820688414954 L55.50548102888145,-32.607555407345636" fill-opacity="0" stroke="black" stroke-width="1" />
<path d="M59.224048762666506,18.01820688414954 L55.50548102888145,32.607555407345636 L50.0,46.0" fill-opacity="0" stroke="black" stroke-width="1" />
<path d="M59.224048762666506,-18.01820688414954 L55.50548102888145,-32.607555407345636 L50.0,-46.0" fill-opacity="0" stroke="black" stroke-width="1" />
<path d="M50.0,48.0 L50.178534643841736,42.50368465534067 L84.0,16.0" fill-opacity="0" stroke="black" stroke-width="1" />
<path d="M50.0,-48.0 L50.178534643841736,-42.50368465534067 L84.0,-16.0" fill-opacity="0" stroke="black" stroke-width="1" />
<path d="M50.178534643841736,42.50368465534067 L84.0,16.0 L86.0,14.0" fill-opacity="0" stroke="black" stroke-width="1" />
<path d="M50.178534643841736,-42.50368465534067 L84.0,-16.0 L86.0,-14.0" fill-opacity="0" stroke="black" stroke-width="1" />
<path d="M84.0,16.0 L86.0,14.0 L91.0,9.0" fill-opacity="0" stroke="black" stroke-width="1" />
<path d="M84.0,-16.0 L86.0,-14.0 L91.0,-9.0" fill-opacity="0" stroke="black" stroke-width="1" />
<path d="M86.0,14.0 L91.0,9.0 L96.95434428375836,0.22149876887735642" fill-opacity="0" stroke="black" stroke-width="1" />
<path d="M86.0,-14.0 L91.0,-9.0 L96.95434428375836,-0.22149876887735642" fill-opacity="0" stroke="black" stroke-width="1" />
<path d="M91.0,9.0 L96.95434428375836,0.22149876887735642 L98.48461961692095,0.07129338485086893" fill-opacity="0" stroke="black" stroke-width="1" />
<path d="M91.0,-9.0 L96.95434428375836,-0.22149876887735642 L98.48461961692095,-0.07129338485086893" fill-opacity="0" stroke="black" stroke-width="1" />
<path d="M96.95434428375836,0.22149876887735642 L98.48461961692095,0.07129338485086893 L100.0,-0.0" fill-opacity="0" stroke="black" stroke-width="1" />
<path d="M96.95434428375836,-0.22149876887735642 L98.48461961692095,-0.07129338485086893 L100.0,-0.0" fill-opacity="0" stroke="black" stroke-width="1" />
<path d="M0.0,-5.0 L1.8344527329381022,-12.606861982685146 L1.9132580911351393,-16.095253274949194" fill-opacity="0" stroke="black" stroke-width="1" />
<path d="M0.0,5.0 L1.8344527329381022,12.606861982685146 L1.9132580911351393,16.095253274949194" fill-opacity="0" stroke="black" stroke-width="1" />
<path d="M0.0,95.0 L1.8344527329381022,87.39313801731485 L1.9132580911351393,83.90474672505081" fill-opacity="0" stroke="black" stroke-width="1" />
<path d="M0.0,-95.0 L1.8344527329381022,-87.39313801731485 L1.9132580911351393,-83.90474672505081" fill-opacity="0" stroke="black" stroke-width="1" />
<path d="M1.8344527329381022,-12.606861982685146 L1.9132580911351393,-16.095253274949194 L3.1099821457851755,-21.079756546695453" fill-opacity="0" stroke="black" stroke-width="1" />
<path d="M1.8344527329381022,12.606861982685146 L1.9132580911351393,16.095253274949194 L3.1099821457851755,21.079756546695453" fill-opacity="0" stroke="black" stroke-width="1" />
<path d="M1.8344527329381022,87.39313801731485 L1.9132580911351393,83.90474672505081 L3.1099821457851755,78.92024345330455" fill-opacity="0" stroke="black" stroke-width="1" />
<path d="M1.8344527329381022,-87.39313801731485 L1.9132580911351393,-83.90474672505081 L3.1099821457851755,-78.92024345330455" fill-opacity="0" stroke="black" stroke-width="1" />
<path d="M1.9132580911351393,-16.095253274949194 L3.1099821457851755,-21.079756546695453 L3.8010742334360774,-21.639196202488456" fill-opacity="0" stroke="black" stroke-width="1" />
<path d="M1.9132580911351393,16.095253274949194 L3.1099821457851755,21.079756546695453 L3.8010742334360774,21.639196202488456" fill-opacity="0" stroke="black" stroke-width="1" />
<path d="M1.9132580911351393,83.90474672505081 L3.1099821457851755,78.92024345330455 L3.8010742334360774,78.36080379751155" fill-opacity="0" stroke="black" stroke-width="1" />
<path d="M1.9132580911351393,-83.90474672505081 L3.1099821457851755,-78.92024345330455 L3.8010742334360774,-78.36080379751155" fill-opacity="0" stroke="black" stroke-width="1" />
<path d="M3.1099821457851755,-21.079756546695453 L3.8010742334360774,-21.639196202488456 L8.053549831173463,-22.670443268393957" fill-opacity="0" stroke="black" stroke-width="1" />
<path d="M3.1099821457851755,21.079756546695453 L3.8010742334360774,21.639196202488456 L8.053549831173463,22.670443268393957" fill-opacity="0" stroke="black" stroke-width="1" />
<path d="M3.1099821457851755,78.92024345330455 L3.8010742334360774,78.36080379751155 L8.053549831173463,77.32955673160605" fill-opacity="0" stroke="black" stroke-width="1" />
<path d="M3.1099821457851755,-78.92024345330455 L3.8010742334360774,-78.36080379751155 L8.053549831173463,-77.32955673160605" fill-opacity="0" stroke="black" stroke-width="1" />
<path d="M3.8010742334360774,-21.639196202488456 L8.053549831173463,-22.670443268393957 L8.58311222361724,-37.18061602098862" fill-opacity="0" stroke="black" stroke-width="1" />
<path d="M3.8010742334360774,21.639196202488456 L8.053549831173463,22.670443268393957 L8.58311222361724,37.18061602098862" fill-opacity="0" stroke="black" stroke-width="1" />
<path d="M3.8010742334360774,78.36080379751155 L8.053549831173463,77.32955673160605 L8.58311222361724,62.81938397901138" fill-opacity="0" stroke="black" stroke-width="1" />
<path d="M3.8010742334360774,-78.36080379751155 L8.053549831173463,-77.32955673160605 L8.58311222361724,-62.81938397901138" fill-opacity="0" stroke="black" stroke-width="1" />
<path d="M8.053549831173463,-22.670443268393957 L8.58311222361724,-37.18061602098862 L0.0,-48.0" fill-opacity="0" stroke="black" stroke-width="1" />
<path d="M8.053549831173463,22.670443268393957 L8.58311222361724,37.18061602098862 L0.0,48.0" fill-opacity="0" stroke="black" stroke-width="1" />
<path d="M8.053549831173463,77.32955673160605 L8.58311222361724,62.81938397901138 L0.0,52.0" fill-opacity="0" stroke="black" stroke-width="1" />
<path d="M8.053549831173463,-77.32955673160605 L8.58311222361724,-62.81938397901138 L0.0,-52.0" fill-opacity="0" stroke="black" stroke-width="1" />
<path d="M13.0,-50.0 L15.10388213989209,-38.108324897366984 L18.01820688414954,-40.775951237333494" fill-opacity="0" stroke="black" stroke-width="1" />
<path d="M13.0,50.0 L15.10388213989209,38.108324897366984 L18.01820688414954,40.775951237333494" fill-opacity="0" stroke="black" stroke-width="1" />
<path d="M13.0,50.0 L15.10388213989209,61.891675102633016 L18.01820688414954,59.224048762666506" fill-opacity="0" stroke="black" stroke-width="1" />
<path d="M13.0,-50.0 L15.10388213989209,-61.891675102633016 L18.01820688414954,-59.224048762666506" fill-opacity="0" stroke="black" stroke-width="1" />
<path d="M15.10388213989209,-38.108324897366984 L18.01820688414954,-40.775951237333494 L32.607555407345636,-44.49451897111855" fill-opacity="0" stroke="black" stroke-width="1" />
<path d="M15.10388213989209,38.108324897366984 L18.01820688414954,40.775951237333494 L32.607555407345636,44.49451897111855" fill-opacity="0" stroke="black" stroke-width="1" />
<path d="M15.10388213989209,61.891675102633016 L18.01820688414954,59.224048762666506 L32.607555407345636,55.50548102888145" fill-opacity="0" stroke="black" stroke-width="1" />
<path d="M15.10388213989209,-61.891675102633016 L18.01820688414954,-59.224048762666506 L32.607555407345636,-55.50548102888145" fill-opacity="0" stroke="black" stroke-width="1" />
<path d="M18.01820688414954,-40.775951237333494 L32.607555407345636,-44.49451897111855 L46.0,-50.0" fill-opacity="0" stroke="black" stroke-width="1" />
<path d="M18.01820688414954,40.775951237333494 L32.607555407345636,44.49451897111855 L46.0,50.0" fill-opacity="0" stroke="black" stroke-width="1" />
<path d="M18.01820688414954,59.224048762666506 L32.607555407345636,55.50548102888145 L46.0,50.0" fill-opacity="0" stroke="black" stroke-width="1" />
<path d="M18.01820688414954,-59.224048762666506 L32.607555407345636,-55.50548102888145 L46.0,-50.0" fill-opacity="0" stroke="black" stroke-width="1" />
<path d="M48.0,-50.0 L42.50368465534067,-49.821465356158264 L16.0,-16.0" fill-opacity="0" stroke="black" stroke-width="1" />
<path d="M48.0,50.0 L42.50368465534067,49.821465356158264 L16.0,16.0" fill-opacity="0" stroke="black" stroke-width="1" />
<path d="M48.0,50.0 L42.50368465534067,50.178534643841736 L16.0,84.0" fill-opacity="0" stroke="black" stroke-width="1" />
<path d="M48.0,-50.0 L42.50368465534067,-50.178534643841736 L16.0,-84.0" fill-opacity="0" stroke="black" stroke-width="1" />
<path d="M9.0,-9.0 L0.22149876887735642,-3.04565571624163 L0.07129338485086893,-1.5153803830790569" fill-opacity="0" stroke="black" stroke-width="1" />
<path d="M9.0,9.0 L0.22149876887735642,3.04565571624163 L0.07129338485086893,1.5153803830790569" fill-opacity="0" stroke="black" stroke-width="1" />
<path d="M9.0,91.0 L0.22149876887735642,96.95434428375836 L0.07129338485086893,98.48461961692095" fill-opacity="0" stroke="black" stroke-width="1" />
<path d="M9.0,-91.0 L0.22149876887735642,-96.95434428375836 L0.07129338485086893,-98.48461961692095" fill-opacity="0" stroke="black" stroke-width="1" />
<path d="M0.22149876887735642,-3.04565571624163 L0.07129338485086893,-1.5153803830790569 L0.0,-0.0" fill-opacity="0" stroke="black" stroke-width="1" />
<path d="M0.22149876887735642,3.04565571624163 L0.07129338485086893,1.5153803830790569 L0.0,-0.0" fill-opacity="0" stroke="black" stroke-width="1" />
<path d="M0.22149876887735642,96.95434428375836 L0.07129338485086893,98.48461961692095 L0.0,100.0" fill-opacity="0" stroke="black" stroke-width="1" />
<path d="M0.22149876887735642,-96.95434428375836 L0.07129338485086893,-98.48461961692095 L0.0,-100.0" fill-opacity="0" stroke="black" stroke-width="1" />
<path d="M0.0,95.0 L-1.8344527329381022,87.39313801731485 L-1.9132580911351393,83.90474672505081" fill-opacity="0" stroke="black" stroke-width="1" />
<path d="M0.0,-5.0 L-1.8344527329381022,-12.606861982685146 L-1.9132580911351393,-16.095253274949194" fill-opacity="0" stroke="black" stroke-width="1" />
<path d="M0.0,5.0 L-1.8344527329381022,12.606861982685146 L-1.9132580911351393,16.095253274949187" fill-opacity="0" stroke="black" stroke-width="1" />
<path d="M0.0,-95.0 L-1.8344527329381022,-87.39313801731485 L-1.9132580911351393,-83.90474672505081" fill-opacity="0" stroke="black" stroke-width="1" />
<path d="M-1.8344527329381022,87.39313801731485 L-1.9132580911351393,83.90474672505081 L-3.1099821457851755,78.92024345330455" fill-opacity="0" stroke="black" stroke-width="1" />
<path d="M-1.8344527329381022,-12.606861982685146 L-1.9132580911351393,-16.095253274949194 L-3.1099821457851755,-21.079756546695453" fill-opacity="0" stroke="black" stroke-width="1" />
<path d="M-1.8344527329381022,12.606861982685146 L-1.9132580911351393,16.095253274949187 L-3.1099821457851755,21.07975654669545" fill-opacity="0" stroke="black" stroke-width="1" />
<path d="M-1.8344527329381022,-87.39313801731485 L-1.9132580911351393,-83.90474672505081 L-3.1099821457851755,-78.92024345330455" fill-opacity="0" stroke="black" stroke-width="1" />
<path d="M-1.9132580911351393,83.90474672505081 L-3.1099821457851755,78.92024345330455 L-3.8010742334360774,78.36080379751155" fill-opacity="0" stroke="black" stroke-width="1" />
<path d="M-1.9132580911351393,-16.095253274949194 L-3.1099821457851755,-21.079756546695453 L-3.8010742334360774,-21.639196202488456" fill-opacity="0" stroke="black" stroke-width="1" />
<path d="M-1.9132580911351393,16.095253274949187 L-3.1099821457851755,21.07975654669545 L-3.8010742334360774,21.63919620248845" fill-opacity="0" stroke="black" stroke-width="1" />
<path d="M-1.9132580911351393,-83.90474672505081 L-3.1099821457851755,-78.92024345330455 L-3.8010742334360774,-78.36080379751155" fill-opacity="0" stroke="black" stroke-width="1" />
<path d="M-3.1099821457851755,78.92024345330455 L-3.8010742334360774,78.36080379751155 L-8.053549831173463,77.32955673160605" fill-opacity="0" stroke="black" stroke-width="1" />
<path d="M-3.1099821457851755,-21.079756546695453 L-3.8010742334360774,-21.639196202488456 L-8.053549831173463,-22.670443268393957" fill-opacity="0" stroke="black" stroke-width="1" />
<path d="M-3.1099821457851755,21.07975654669545 L-3.8010742334360774,21.63919620248845 L-8.053549831173463,22.670443268393953" fill-opacity="0" stroke="black" stroke-width="1" />
<path d="M-3.1099821457851755,-78.92024345330455 L-3.8010742334360774,-78.36080379751155 L-8.053549831173463,-77.32955673160605" fill-opacity="0" stroke="black" stroke-width="1" />
<path d="M-3.8010742334360774,78.36080379751155 L-8.053549831173463,77.32955673160605 L-8.58311222361724,62.81938397901138" fill-opacity="0" stroke="black" stroke-width="1" />
<path d="M-3.8010742334360774,-21.639196202488456 L-8.053549831173463,-22.670443268393957 L-8.58311222361724,-37.18061602098862" fill-opacity="0" stroke="black" stroke-width="1" />
<path d="M-3.8010742334360774,21.63919620248845 L-8.053549831173463,22.670443268393953 L-8.58311222361724,37.18061602098862" fill-opacity="0" stroke="black" stroke-width="1" />
<path d="M-3.8010742334360774,-78.36080379751155 L-8.053549831173463,-77.32955673160605 L-8.58311222361724,-62.81938397901138" fill-opacity="0" stroke="black" stroke-width="1" />
<path d="M-8.053549831173463,77.32955673160605 L-8.58311222361724,62.81938397901138 L0.0,52.0" fill-opacity="0" stroke="black" stroke-width="1" />
<path d="M-8.053549831173463,-22.670443268393957 L-8.58311222361724,-37.18061602098862 L0.0,-48.0" fill-opacity="0" stroke="black" stroke-width="1" />
<path d="M-8.053549831173463,22.670443268393953 L-8.58311222361724,37.18061602098862 L0.0,48.0" fill-opacity="0" stroke="black" stroke-width="1" />
<path d="M-8.053549831173463,-77.32955673160605 L-8.58311222361724,-62.81938397901138 L0.0,-52.0" fill-opacity="0" stroke="black" stroke-width="1" />
<path d="M-13.0,50.0 L-15.10388213989209,61.891675102633016 L-18.01820688414954,59.224048762666506" fill-opacity="0" stroke="black" stroke-width="1" />
<path d="M-13.0,-50.0 L-15.10388213989209,-38.108324897366984 L-18.01820688414954,-40.775951237333494" fill-opacity="0" stroke="black" stroke-width="1" />
<path d="M-13.0,50.0 L-15.10388213989209,38.108324897366984 L-18.01820688414954,40.775951237333494" fill-opacity="0" stroke="black" stroke-width="1" />
<path d="M-13.0,-50.0 L-15.10388213989209,-61.891675102633016 L-18.01820688414954,-59.224048762666506" fill-opacity="0" stroke="black" stroke-width="1" />
<path d="M-15.10388213989209,61.891675102633016 L-18.01820688414954,59.224048762666506 L-32.607555407345636,55.50548102888145" fill-opacity="0" stroke="black" stroke-width="1" />
<path d="M-15.10388213989209,-38.108324897366984 L-18.01820688414954,-40.775951237333494 L-32.607555407345636,-44.49451897111855" fill-opacity="0" stroke="black" stroke-width="1" />
<path d="M-15.10388213989209,38.108324897366984 L-18.01820688414954,40.775951237333494 L-32.607555407345636,44.49451897111855" fill-opacity="0" stroke="black" stroke-width="1" />
<path d="M-15.10388213989209,-61.891675102633016 L-18.01820688414954,-59.224048762666506 L-32.607555407345636,-55.50548102888145" fill-opacity="0" stroke="black" stroke-width="1" />
<path d="M-18.01820688414954,59.224048762666506 L-32.607555407345636,55.50548102888145 L-46.0,50.0" fill-opacity="0" stroke="black" stroke-width="1" />
<path d="M-18.01820688414954,-40.775951237333494 L-32.607555407345636,-44.49451897111855 L-46.0,-50.0" fill-opacity="0" stroke="black" stroke-width="1" />
<path d="M-18.01820688414954,40.775951237333494 L-32.607555407345636,44.49451897111855 L-46.0,50.0" fill-opacity="0" stroke="black" stroke-width="1" />
<path d="M-18.01820688414954,-59.224048762666506 L-32.607555407345636,-55.50548102888145 L-46.0,-50.0" fill-opacity="0" stroke="black" stroke-width="1" />
<path d="M-48.0,50.0 L-42.50368465534067,50.178534643841736 L-16.0,84.0" fill-opacity="0" stroke="black" stroke-width="1" />
<path d="M-48.0,-50.0 L-42.50368465534067,-49.821465356158264 L-16.0,-16.0" fill-opacity="0" stroke="black" stroke-width="1" />
<path d="M-48.0,50.0 L-42.50368465534067,49.821465356158264 L-16.0,16.0" fill-opacity="0" stroke="black" stroke-width="1" />
<path d="M-48.0,-50.0 L-42.50368465534067,-50.178534643841736 L-16.0,-84.0" fill-opacity="0" stroke="black" stroke-width="1" />
<path d="M-9.0,91.0 L-0.22149876887735642,96.95434428375837 L-0.07129338485086893,98.48461961692094" fill-opacity="0" stroke="black" stroke-width="1" />
<path d="M-9.0,-9.0 L-0.22149876887735642,-3.04565571624163 L-0.07129338485086893,-1.5153803830790569" fill-opacity="0" stroke="black" stroke-width="1" />
<path d="M-9.0,9.0 L-0.22149876887735642,3.045655716241626 L-0.07129338485086893,1.5153803830790622" fill-opacity="0" stroke="black" stroke-width="1" />
<path d="M-9.0,-91.0 L-0.22149876887735642,-96.95434428375836 L-0.07129338485086893,-98.48461961692095" fill-opacity="0" stroke="black" stroke-width="1" />
<path d="M-0.22149876887735642,96.95434428375837 L-0.07129338485086893,98.48461961692094 L0.0,100.0" fill-opacity="0" stroke="black" stroke-width="1" />
<path d="M-0.22149876887735642,-3.04565571624163 L-0.07129338485086893,-1.5153803830790569 L0.0,-0.0" fill-opacity="0" stroke="black" stroke-width="1" />
<path d="M-0.22149876887735642,3.045655716241626 L-0.07129338485086893,1.5153803830790622 L0.0,-0.0" fill-opacity="0" stroke="black" stroke-width="1" />
<path d="M-0.22149876887735642,-96.95434428375836 L-0.07129338485086893,-98.48461961692095 L0.0,-100.0" fill-opacity="0" stroke="black" stroke-width="1" />
<path d="M-95.0,-0.0 L-87.39313801731485,-1.8344527329381022 L-83.90474672505081,-1.9132580911351393" fill-opacity="0" stroke="black" stroke-width="1" />
<path d="M-95.0,-0.0 L-87.39313801731485,1.8344527329381022 L-83.90474672505081,1.9132580911351393" fill-opacity="0" stroke="black" stroke-width="1" />
<path d="M-87.39313801731485,-1.8344527329381022 L-83.90474672505081,-1.9132580911351393 L-78.92024345330455,-3.1099821457851755" fill-opacity="0" stroke="black" stroke-width="1" />
<path d="M-87.39313801731485,1.8344527329381022 L-83.90474672505081,1.9132580911351393 L-78.92024345330455,3.1099821457851755" fill-opacity="0" stroke="black" stroke-width="1" />
<path d="M-83.90474672505081,-1.9132580911351393 L-78.92024345330455,-3.1099821457851755 L-78.36080379751155,-3.8010742334360774" fill-opacity="0" stroke="black" stroke-width="1" />
<path d="M-83.90474672505081,1.9132580911351393 L-78.92024345330455,3.1099821457851755 L-78.36080379751155,3.8010742334360774" fill-opacity="0" stroke="black" stroke-width="1" />
<path d="M-78.92024345330455,-3.1099821457851755 L-78.36080379751155,-3.8010742334360774 L-77.32955673160605,-8.053549831173463" fill-opacity="0" stroke="black" stroke-width="1" />
<path d="M-78.92024345330455,3.1099821457851755 L-78.36080379751155,3.8010742334360774 L-77.32955673160605,8.053549831173463" fill-opacity="0" stroke="black" stroke-width="1" />
<path d="M-78.36080379751155,-3.8010742334360774 L-77.32955673160605,-8.053549831173463 L-62.81938397901138,-8.58311222361724" fill-opacity="0" stroke="black" stroke-width="1" />
<path d="M-78.36080379751155,3.8010742334360774 L-77.32955673160605,8.053549831173463 L-62.81938397901138,8.58311222361724" fill-opacity="0" stroke="black" stroke-width="1" />
<path d="M-77.32955673160605,-8.053549831173463 L-62.81938397901138,-8.58311222361724 L-52.0,-0.0" fill-opacity="0" stroke="black" stroke-width="1" />
<path d="M-77.32955673160605,8.053549831173463 L-62.81938397901138,8.58311222361724 L-52.0,-0.0" fill-opacity="0" stroke="black" stroke-width="1" />
<path d="M-50.0,-13.0 L-61.891675102633016,-15.10388213989209 L-59.224048762666506,-18.01820688414954" fill-opacity="0" stroke="black" stroke-width="1" />
<path d="M-50.0,13.0 L-61.891675102633016,15.10388213989209 L-59.224048762666506,18.01820688414954" fill-opacity="0" stroke="black" stroke-width="1" />
<path d="M-61.891675102633016,-15.10388213989209 L-59.224048762666506,-18.01820688414954 L-55.50548102888145,-32.607555407345636" fill-opacity="0" stroke="black" stroke-width="1" />
<path d="M-61.891675102633016,15.10388213989209 L-59.224048762666506,18.01820688414954 L-55.50548102888145,32.607555407345636" fill-opacity="0" stroke="black" stroke-width="1" />
<path d="M-59.224048762666506,-18.01820688414954 L-55.50548102888145,-32.607555407345636 L-50.0,-46.0" fill-opacity="0" stroke="black" stroke-width="1" />
<path d="M-59.224048762666506,18.01820688414954 L-55.50548102888145,32.607555407345636 L-50.0,46.0" fill-opacity="0" stroke="black" stroke-width="1" />
<path d="M-50.0,-48.0 L-50.178534643841736,-42.50368465534067 L-84.0,-16.0" fill-opacity="0" stroke="black" stroke-width="1" />
<path d="M-50.0,48.0 L-50.178534643841736,42.50368465534067 L-84.0,16.0" fill-opacity="0" stroke="black" stroke-width="1" />
<path d="M-50.178534643841736,-42.50368465534067 L-84.0,-16.0 L-86.0,-14.0" fill-opacity="0" stroke="black" stroke-width="1" />
<path d="M-50.178534643841736,42.50368465534067 L-84.0,16.0 L-86.0,14.0" fill-opacity="0" stroke="black" stroke-width="1" />
<path d="M-84.0,-16.0 L-86.0,-14.0 L-91.0,-9.0" fill-opacity="0" stroke="black" stroke-width="1" />
<path d="M-84.0,16.0 L-86.0,14.0 L-91.0,9.0" fill-opacity="0" stroke="black" stroke-width="1" />
<path d="M-86.0,-14.0 L-91.0,-9.0 L-96.95434428375836,-0.22149876887735642" fill-opacity="0" stroke="black" stroke-width="1" />
<path d="M-86.0,14.0 L-91.0,9.0 L-96.95434428375836,0.22149876887735642" fill-opacity="0" stroke="black" stroke-width="1" />
<path d="M-91.0,-9.0 L-96.95434428375836,-0.22149876887735642 L-98.48461961692095,-0.07129338485086893" fill-opacity="0" stroke="black" stroke-width="1" />
<path d="M-91.0,9.0 L-96.95434428375836,0.22149876887735642 L-98.48461961692095,0.07129338485086893" fill-opacity="0" stroke="black" stroke-width="1" />
<path d="M-96.95434428375836,-0.22149876887735642 L-98.48461961692095,-0.07129338485086893 L-100.0,-0.0" fill-opacity="0" stroke="black" stroke-width="1" />
<path d="M-96.95434428375836,0.22149876887735642 L-98.48461961692095,0.07129338485086893 L-100.0,-0.0" fill-opacity="0" stroke="black" stroke-width="1" />
<circle cx="0" cy="-97" r="8" stroke-dasharray="39.653880605311166 10.611601852125524" stroke-dashoffset="-17.59291886010284" stroke="black" stroke-width="1" fill="white" fill-opacity="1" />
<circle cx="0" cy="-97" r="4" stroke="black" stroke-width="1" fill="white" fill-opacity="1" />
</svg>