<?xml version="1.0" encoding="UTF-8"?>
<svg xmlns="http://www.w3.org/2000/svg" xmlns:xlink="http://www.w3.org/1999/xlink"
     width="250" height="250" viewBox="-125.0 -125.0 250 250">
<defs>
</defs>
<path d="M32.95278867352154,65.88459529710579 L18.0,82.0 L12.463635702796896,82.37660601611711" fill-opacity="0" stroke="black" stroke-width="1" />
<path d="M32.95278867352154,-65.88459529710579 L18.0,-82.0 L12.463635702796896,-82.37660601611711" fill-opacity="0" stroke="black" stroke-width="1" />
<path d="M50.0,-50.0 L34.1154047028942,-32.95278867352154 L18.0,-18.0" fill-opacity="0" stroke="black" stroke-width="1" />
<path d="M50.0,50.0 L34.1154047028942,32.95278867352154 L18.0,18.0" fill-opacity="0" stroke="black" stroke-width="1" />
<path d="M18.0,-18.0 L17.62339398388289,-12.463635702796896 L9.418959874978245,-2.3583528072172273" fill-opacity="0" stroke="black" stroke-width="1" />
<path d="M18.0,18.0 L17.62339398388289,12.463635702796896 L9.418959874978245,2.3583528072172273" fill-opacity="0" stroke="black" stroke-width="1" />
<path d="M17.62339398388289,-12.463635702796896 L9.418959874978245,-2.3583528072172273 L7.741183549984903,-1.852711088635263" fill-opacity="0" stroke="black" stroke-width="1" />
<path d="M17.62339398388289,12.463635702796896 L9.418959874978245,2.3583528072172273 L7.741183549984903,1.852711088635263" fill-opacity="0" stroke="black" stroke-width="1" />
<path d="M9.418959874978245,-2.3583528072172273 L7.741183549984903,-1.852711088635263 L6.048201533284342,-0.6400076306108073" fill-opacity="0" stroke="black" stroke-width="1" />
<path d="M9.418959874978245,2.3583528072172273 L7.741183549984903,1.852711088635263 L6.048201533284342,0.6400076306108073" fill-opacity="0" stroke="black" stroke-width="1" />
<path d="M7.741183549984903,-1.852711088635263 L6.048201533284342,-0.6400076306108073 L5.0,-5.0" fill-opacity="0" stroke="black" stroke-width="1" />
<path d="M7.741183549984903,1.852711088635263 L6.048201533284342,0.6400076306108073 L5.0,5.0" fill-opacity="0" stroke="black" stroke-width="1" />
<path d="M5.0,95.0 L4.0,96.0 L1.0,99.0" fill-opacity="0" stroke="black" stroke-width="1" />
<path d="M5.0,-95.0 L4.0,-96.0 L1.0,-99.0" fill-opacity="0" stroke="black" stroke-width="1" />
<path d="M4.0,96.0 L1.0,99.0 L0.39585448230173326,99.38884997948472" fill-opacity="0" stroke="black" stroke-width="1" />
<path d="M4.0,-96.0 L1.0,-99.0 L0.39585448230173326,-99.38884997948472" fill-opacity="0" stroke="black" stroke-width="1" />
<path d="M1.0,-1.0 L0.6111500205152887,-0.39585448230173326 L0.0,-0.0" fill-opacity="0" stroke="black" stroke-width="1" />
<path d="M1.0,1.0 L0.6111500205152887,0.39585448230173326 L0.0,-0.0" fill-opacity="0" stroke="black" stroke-width="1" />
<path d="M-32.95278867352154,65.88459529710579 L-18.0,82.0 L-12.463635702796896,82.37660601611711" fill-opacity="0" stroke="black" stroke-width="1" />
<path d="M-32.95278867352154,-65.88459529710579 L-18.0,-82.0 L-12.463635702796896,-82.37660601611711" fill-opacity="0" stroke="black" stroke-width="1" />
<path d="M-50.0,-50.0 L-34.1154047028942,-32.95278867352154 L-18.0,-18.0" fill-opacity="0" stroke="black" stroke-width="1" />
<path d="M-50.0,50.0 L-34.1154047028942,32.95278867352154 L-18.0,18.0" fill-opacity="0" stroke="black" stroke-width="1" />
<path d="M-18.0,-18.0 L-17.62339398388289,-12.463635702796896 L-9.418959874978245,-2.3583528072172273" fill-opacity="0" stroke="black" stroke-width="1" />
<path d="M-18.0,18.0 L-17.62339398388289,12.463635702796896 L-9.418959874978245,2.3583528072172273" fill-opacity="0" stroke="black" stroke-width="1" />
<path d="M-17.62339398388289,-12.463635702796896 L-9.418959874978245,-2.3583528072172273 L-7.741183549984903,-1.852711088635263" fill-opacity="0" stroke="black" stroke-width="1" />
<path d="M-17.62339398388289,12.463635702796896 L-9.418959874978245,2.3583528072172273 L-7.741183549984903,1.852711088635263" fill-opacity="0" stroke="black" stroke-width="1" />
<path d="M-9.418959874978245,-2.3583528072172273 L-7.741183549984903,-1.852711088635263 L-6.048201533284342,-0.6400076306108073" fill-opacity="0" stroke="black" stroke-width="1" />
<path d="M-9.418959874978245,2.3583528072172273 L-7.741183549984903,1.852711088635263 L-6.048201533284342,0.6400076306108073" fill-opacity="0" stroke="black" stroke-width="1" />
<path d="M-7.741183549984903,-1.852711088635263 L-6.048201533284342,-0.6400076306108073 L-5.0,-5.0" fill-opacity="0" stroke="black" stroke-width="1" />
<path d="M-7.741183549984903,1.852711088635263 L-6.048201533284342,0.6400076306108073 L-5.0,5.0" fill-opacity="0" stroke="black" stroke-width="1" />
<path d="M-5.0,95.0 L-4.0,96.0 L-1.0,99.0" fill-opacity="0" stroke="black" stroke-width="1" />
<path d="M-5.0,-95.0 L-4.0,-96.0 L-1.0,-99.0" fill-opacity="0" stroke="black" stroke-width="1" />
<path d="M-4.0,96.0 L-1.0,99.0 L-0.39585448230173326,99.38884997948472" fill-opacity="0" stroke="black" stroke-width="1" />
<path d="M-4.0,-96.0 L-1.0,-99.0 L-0.39585448230173326,-99.38884997948472" fill-opacity="0" stroke="black" stroke-width="1" />
<path d="M-1.0,-1.0 L-0.6111500205152887,-0.39585448230173326 L0.0,-0.0" fill-opacity="0" stroke="black" stroke-width="1" />
<path d="M-1.0,1.0 L-0.6111500205152887,0.39585448230173326 L0.0,-0.0" fill-opacity="0" stroke="black" stroke-width="1" />
<path d="M65.88459529710579,32.95278867352154 L82.0,18.0 L82.37660601611711,12.463635702796896" fill-opacity="0" stroke="black" stroke-width="1" />
<path d="M65.88459529710579,-32.95278867352154 L82.0,-18.0 L82.37660601611711,-12.463635702796896" fill-opacity="0" stroke="black" stroke-width="1" />
<path d="M50.0,50.0 L65.88459529710579,32.95278867352154 L82.0,18.0" fill-opacity="0" stroke="black" stroke-width="1" />
<path d="M50.0,-50.0 L65.88459529710579,-32.95278867352154 L82.0,-18.0" fill-opacity="0" stroke="black" stroke-width="1" />
<path d="M82.0,18.0 L82.37660601611711,12.463635702796896 L90.58104012502176,2.3583528072172273" fill-opacity="0" stroke="black" stroke-width="1" />
<path d="M82.0,-18.0 L82.37660601611711,-12.463635702796896 L90.58104012502176,-2.3583528072172273" fill-opacity="0" stroke="black" stroke-width="1" />
<path d="M82.37660601611711,12.463635702796896 L90.58104012502176,2.3583528072172273 L92.2588164500151,1.852711088635263" fill-opacity="0" stroke="black" stroke-width="1" />
<path d="M82.37660601611711,-12.463635702796896 L90.58104012502176,-2.3583528072172273 L92.2588164500151,-1.852711088635263" fill-opacity="0" stroke="black" stroke-width="1" />
<path d="M90.58104012502176,2.3583528072172273 L92.2588164500151,1.852711088635263 L93.95179846671566,0.6400076306108073" fill-opacity="0" stroke="black" stroke-width="1" />
<path d="M90.58104012502176,-2.3583528072172273 L92.2588164500151,-1.852711088635263 L93.95179846671566,-0.6400076306108073" fill-opacity="0" stroke="black" stroke-width="1" />
<path d="M92.2588164500151,1.852711088635263 L93.95179846671566,0.6400076306108073 L95.0,5.0" fill-opacity="0" stroke="black" stroke-width="1" />
<path d="M92.2588164500151,-1.852711088635263 L93.95179846671566,-0.6400076306108073 L95.0,-5.0" fill-opacity="0" stroke="black" stroke-width="1" />
<path d="M95.0,5.0 L96.0,4.0 L99.0,1.0" fill-opacity="0" stroke="black" stroke-width="1" />
<path d="M95.0,-5.0 L96.0,-4.0 L99.0,-1.0" fill-opacity="0" stroke="black" stroke-width="1" />
<path d="M96.0,4.0 L99.0,1.0 L99.38884997948472,0.39585448230173326" fill-opacity="0" stroke="black" stroke-width="1" />
<path d="M96.0,-4.0 L99.0,-1.0 L99.38884997948472,-0.39585448230173326" fill-opacity="0" stroke="black" stroke-width="1" />
<path d="M99.0,1.0 L99.38884997948472,0.39585448230173326 L100.0,-0.0" fill-opacity="0" stroke="black" stroke-width="1" />
<path d="M99.0,-1.0 L99.38884997948472,-0.39585448230173326 L100.0,-0.0" fill-opacity="0" stroke="black" stroke-width="1" />
<path d="M50.0,-50.0 L32.95278867352154,-34.1154047028942 L18.0,-18.0" fill-opacity="0" stroke="black" stroke-width="1" />
<path d="M50.0,50.0 L32.95278867352154,34.1154047028942 L18.0,18.0" fill-opacity="0" stroke="black" stroke-width="1" />
<path d="M50.0,50.0 L32.95278867352154,65.88459529710579 L18.0,82.0" fill-opacity="0" stroke="black" stroke-width="1" />
<path d="M50.0,-50.0 L32.95278867352154,-65.88459529710579 L18.0,-82.0" fill-opacity="0" stroke="black" stroke-width="1" />
<path d="M18.0,-18.0 L12.463635702796896,-17.62339398388289 L2.3583528072172273,-9.418959874978245" fill-opacity="0" stroke="black" stroke-width="1" />
<path d="M18.0,18.0 L12.463635702796896,17.62339398388289 L2.3583528072172273,9.418959874978245" fill-opacity="0" stroke="black" stroke-width="1" />
<path d="M18.0,82.0 L12.463635702796896,82.37660601611711 L2.3583528072172273,90.58104012502176" fill-opacity="0" stroke="black" stroke-width="1" />
<path d="M18.0,-82.0 L12.463635702796896,-82.37660601611711 L2.3583528072172273,-90.58104012502176" fill-opacity="0" stroke="black" stroke-width="1" />
<path d="M12.463635702796896,-17.62339398388289 L2.3583528072172273,-9.418959874978245 L1.852711088635263,-7.741183549984903" fill-opacity="0" stroke="black" stroke-width="1" />
<path d="M12.463635702796896,17.62339398388289 L2.3583528072172273,9.418959874978245 L1.852711088635263,7.741183549984903" fill-opacity="0" stroke="black" stroke-width="1" />
<path d="M12.463635702796896,82.37660601611711 L2.3583528072172273,90.58104012502176 L1.852711088635263,92.2588164500151" fill-opacity="0" stroke="black" stroke-width="1" />
<path d="M12.463635702796896,-82.37660601611711 L2.3583528072172273,-90.58104012502176 L1.852711088635263,-92.2588164500151" fill-opacity="0" stroke="black" stroke-width="1" />
<path d="M2.3583528072172273,-9.418959874978245 L1.852711088635263,-7.741183549984903 L0.6400076306108073,-6.048201533284342" fill-opacity="0" stroke="black" stroke-width="1" />
<path d="M2.3583528072172273,9.418959874978245 L1.852711088635263,7.741183549984903 L0.6400076306108073,6.048201533284342" fill-opacity="0" stroke="black" stroke-width="1" />
<path d="M2.3583528072172273,90.58104012502176 L1.852711088635263,92.2588164500151 L0.6400076306108073,93.95179846671566" fill-opacity="0" stroke="black" stroke-width="1" />
<path d="M2.3583528072172273,-90.58104012502176 L1.852711088635263,-92.2588164500151 L0.6400076306108073,-93.95179846671566" fill-opacity="0" stroke="black" stroke-width="1" />
<path d="M1.852711088635263,-7.741183549984903 L0.6400076306108073,-6.048201533284342 L5.0,-5.0" fill-opacity="0" stroke="black" stroke-width="1" />
<path d="M1.852711088635263,7.741183549984903 L0.6400076306108073,6.048201533284342 L5.0,5.0" fill-opacity="0" stroke="black" stroke-width="1" />
<path d="M1.852711088635263,92.2588164500151 L0.6400076306108073,93.95179846671566 L5.0,95.0" fill-opacity="0" stroke="black" stroke-width="1" />
<path d="M1.852711088635263,-92.2588164500151 L0.6400076306108073,-93.95179846671566 L5.0,-95.0" fill-opacity="0" stroke="black" stroke-width="1" />
<path d="M1.0,-1.0 L0.39585448230173326,-0.6111500205152887 L0.0,-0.0" fill-opacity="0" stroke="black" stroke-width="1" />
<path d="M1.0,1.0 L0.39585448230173326,0.6111500205152887 L0.0,-0.0" fill-opacity="0" stroke="black" stroke-width="1" />
<path d="M1.0,99.0 L0.39585448230173326,99.38884997948472 L0.0,100.0" fill-opacity="0" stroke="black" stroke-width="1" />
<path d="M1.0,-99.0 L0.39585448230173326,-99.38884997948472 L0.0,-100.0" fill-opacity="0" stroke="black" stroke-width="1" />
<path d="M-50.0,50.0 L-32.95278867352154,65.88459529710579 L-18.0,82.0" fill-opacity="0" stroke="black" stroke-width="1" />
<path d="M-50.0,-50.0 L-32.95278867352154,-34.1154047028942 L-18.0,-18.0" fill-opacity="0" stroke="black" stroke-width="1" />
<path d="M-50.0,50.0 L-32.95278867352154,34.11540470289421 L-18.0,18.0" fill-opacity="0" stroke="black" stroke-width="1" />
<path d="M-50.0,-50.0 L-32.95278867352154,-65.88459529710579 L-18.0,-82.0" fill-opacity="0" stroke="black" stroke-width="1" />
<path d="M-18.0,82.0 L-12.463635702796896,82.37660601611711 L-2.3583528072172273,90.58104012502176" fill-opacity="0" stroke="black" stroke-width="1" />
<path d="M-18.0,-18.0 L-12.463635702796896,-17.62339398388289 L-2.3583528072172273,-9.418959874978245" fill-opacity="0" stroke="black" stroke-width="1" />
<path d="M-18.0,18.0 L-12.463635702796896,17.62339398388289 L-2.3583528072172273,9.418959874978242" fill-opacity="0" stroke="black" stroke-width="1" />
<path d="M-18.0,-82.0 L-12.463635702796896,-82.37660601611711 L-2.3583528072172273,-90.58104012502176" fill-opacity="0" stroke="black" stroke-width="1" />
<path d="M-12.463635702796896,82.37660601611711 L-2.3583528072172273,90.58104012502176 L-1.852711088635263,92.2588164500151" fill-opacity="0" stroke="black" stroke-width="1" />
<path d="M-12.463635702796896,-17.62339398388289 L-2.3583528072172273,-9.418959874978245 L-1.852711088635263,-7.741183549984903" fill-opacity="0" stroke="black" stroke-width="1" />
<path d="M-12.463635702796896,17.62339398388289 L-2.3583528072172273,9.418959874978242 L-1.852711088635263,7.741183549984896" fill-opacity="0" stroke="black" stroke-width="1" />
<path d="M-12.463635702796896,-82.37660601611711 L-2.3583528072172273,-90.58104012502176 L-1.852711088635263,-92.2588164500151" fill-opacity="0" stroke="black" stroke-width="1" />
<path d="M-2.3583528072172273,90.58104012502176 L-1.852711088635263,92.2588164500151 L-0.6400076306108073,93.95179846671566" fill-opacity="0" stroke="black" stroke-width="1" />
<path d="M-2.3583528072172273,-9.418959874978245 L-1.852711088635263,-7.741183549984903 L-0.6400076306108073,-6.048201533284342" fill-opacity="0" stroke="black" stroke-width="1" />
<path d="M-2.3583528072172273,9.418959874978242 L-1.852711088635263,7.741183549984896 L-0.6400076306108073,6.048201533284342" fill-opacity="0" stroke="black" stroke-width="1" />
<path d="M-2.3583528072172273,-90.58104012502176 L-1.852711088635263,-92.2588164500151 L-0.6400076306108073,-93.95179846671566" fill-opacity="0" stroke="black" stroke-width="1" />
<path d="M-1.852711088635263,92.2588164500151 L-0.6400076306108073,93.95179846671566 L-5.0,95.0" fill-opacity="0" stroke="black" stroke-width="1" />
<path d="M-1.852711088635263,-7.741183549984903 L-0.6400076306108073,-6.048201533284342 L-5.0,-5.0" fill-opacity="0" stroke="black" stroke-width="1" />
<path d="M-1.852711088635263,7.741183549984896 L-0.6400076306108073,6.048201533284342 L-5.0,5.0" fill-opacity="0" stroke="black" stroke-width="1" />
<path d="M-1.852711088635263,-92.2588164500151 L-0.6400076306108073,-93.95179846671566 L-5.0,-95.0" fill-opacity="0" stroke="black" stroke-width="1" />
<path d="M-1.0,99.0 L-0.39585448230173326,99.38884997948472 L0.0,100.0" fill-opacity="0" stroke="black" stroke-width="1" />
<path d="M-1.0,-1.0 L-0.39585448230173326,-0.6111500205152887 L0.0,-0.0" fill-opacity="0" stroke="black" stroke-width="1" />
<path d="M-1.0,1.0 L-0.39585448230173326,0.6111500205152822 L0.0,-0.0" fill-opacity="0" stroke="black" stroke-width="1" />
<path d="M-1.0,-99.0 L-0.39585448230173326,-99.38884997948472 L0.0,-100.0" fill-opacity="0" stroke="black" stroke-width="1" />
<path d="M-65.88459529710579,-32.95278867352154 L-82.0,-18.0 L-82.37660601611711,-12.463635702796896" fill-opacity="0" stroke="black" stroke-width="1" />
<path d="M-65.88459529710579,32.95278867352154 L-82.0,18.0 L-82.37660601611711,12.463635702796896" fill-opacity="0" stroke="black" stroke-width="1" />
<path d="M-50.0,-50.0 L-65.88459529710579,-32.95278867352154 L-82.0,-18.0" fill-opacity="0" stroke="black" stroke-width="1" />
<path d="M-50.0,50.0 L-65.88459529710579,32.95278867352154 L-82.0,18.0" fill-opacity="0" stroke="black" stroke-width="1" />
<path d="M-82.0,-18.0 L-82.37660601611711,-12.463635702796896 L-90.58104012502176,-2.3583528072172273" fill-opacity="0" stroke="black" stroke-width="1" />
<path d="M-82.0,18.0 L-82.37660601611711,12.463635702796896 L-90.58104012502176,2.3583528072172273" fill-opacity="0" stroke="black" stroke-width="1" />
<path d="M-82.37660601611711,-12.463635702796896 L-90.58104012502176,-2.3583528072172273 L-92.2588164500151,-1.852711088635263" fill-opacity="0" stroke="black" stroke-width="1" />
<path d="M-82.37660601611711,12.463635702796896 L-90.58104012502176,2.3583528072172273 L-92.2588164500151,1.852711088635263" fill-opacity="0" stroke="black" stroke-width="1" />
<path d="M-90.58104012502176,-2.3583528072172273 L-92.2588164500151,-1.852711088635263 L-93.95179846671566,-0.6400076306108073" fill-opacity="0" stroke="black" stroke-width="1" />
<path d="M-90.58104012502176,2.3583528072172273 L-92.2588164500151,1.852711088635263 L-93.95179846671566,0.6400076306108073" fill-opacity="0" stroke="black" stroke-width="1" />
<path d="M-92.2588164500151,-1.852711088635263 L-93.95179846671566,-0.6400076306108073 L-95.0,-5.0" fill-opacity="0" stroke="black" stroke-width="1" />
<path d="M-92.2588164500151,1.852711088635263 L-93.95179846671566,0.6400076306108073 L-95.0,5.0" fill-opacity="0" stroke="black" stroke-width="1" />
<path d="M-95.0,-5.0 L-96.0,-4.0 L-99.0,-1.0" fill-opacity="0" stroke="black" stroke-width="1" />
<path d="M-95.0,5.0 L-96.0,4.0 L-99.0,1.0" fill-opacity="0" stroke="black" stroke-width="1" />
<path d="M-96.0,-4.0 L-99.0,-1.0 L-99.38884997948472,-0.39585448230173326" fill-opacity="0" stroke="black" stroke-width="1" />
<path d="M-96.0,4.0 L-99.0,1.0 L-99.38884997948472,0.39585448230173326" fill-opacity="0" stroke="black" stroke-width="1" />
<path d="M-99.0,-1.0 L-99.38884997948472,-0.39585448230173326 L-100.0,-0.0" fill-opacity="0" stroke="black" stroke-width="1" />
<path d="M-99.0,1.0 L-99.38884997948472,0.39585448230173326 L-100.0,-0.0" fill-opacity="0" stroke="black" stroke-width="1" />
<circle cx="0" cy="-97" r="8" stroke-dasharray="39.653880605311166 10.611601852125524" stroke-dashoffset="-17.59291886010284" stroke="black" stroke-width="1" fill="white" fill-opacity="1" />
<circle cx="0" cy="-97" r="4" stroke="black" stroke-width="1" fill="white" fill-opacity="1" />
</svg>