<?xml version="1.0" encoding="UTF-8"?>
<svg xmlns="http://www.w3.org/2000/svg" xmlns:xlink="http://www.w3.org/1999/xlink"
     width="250" height="250" viewBox="-125.0 -125.0 250 250">
<defs>
</defs>
<path d="M6.0,-0.0 L13.636194789295068,-0.7597416457940265 L15.02921315283892,-1.489770814111909" fill-opacity="0" stroke="black" stroke-width="1" />
<path d="M6.0,-0.0 L13.636194789295068,0.7597416457940265 L15.02921315283892,1.489770814111909" fill-opacity="0" stroke="black" stroke-width="1" />
<path d="M13.636194789295068,-0.7597416457940265 L15.02921315283892,-1.489770814111909 L17.100567461406524,-2.1059748553752975" fill-opacity="0" stroke="black" stroke-width="1" />
<path d="M13.636194789295068,0.7597416457940265 L15.02921315283892,1.489770814111909 L17.100567461406524,2.1059748553752975" fill-opacity="0" stroke="black" stroke-width="1" />
<path d="M15.02921315283892,-1.489770814111909 L17.100567461406524,-2.1059748553752975 L23.85191459430031,-4.190746484649088" fill-opacity="0" stroke="black" stroke-width="1" />
<path d="M15.02921315283892,1.489770814111909 L17.100567461406524,2.1059748553752975 L23.85191459430031,4.190746484649088" fill-opacity="0" stroke="black" stroke-width="1" />
<path d="M17.100567461406524,-2.1059748553752975 L23.85191459430031,-4.190746484649088 L25.0,-0.0" fill-opacity="0" stroke="black" stroke-width="1" />
<path d="M17.100567461406524,2.1059748553752975 L23.85191459430031,4.190746484649088 L25.0,-0.0" fill-opacity="0" stroke="black" stroke-width="1" />
<path d="M30.0,70.0 L25.0,75.0 L17.0,83.0" fill-opacity="0" stroke="black" stroke-width="1" />
<path d="M30.0,-70.0 L25.0,-75.0 L17.0,-83.0" fill-opacity="0" stroke="black" stroke-width="1" />
<path d="M25.0,-0.0 L37.99575130037003,-4.231655941998384 L40.0,-0.0" fill-opacity="0" stroke="black" stroke-width="1" />
<path d="M25.0,-0.0 L37.99575130037003,4.231655941998384 L40.0,-0.0" fill-opacity="0" stroke="black" stroke-width="1" />
<path d="M33.0,50.0 L46.0,54.0 L37.501299765063585,58.07195871727046" fill-opacity="0" stroke="black" stroke-width="1" />
<path d="M33.0,-50.0 L46.0,-54.0 L37.501299765063585,-58.07195871727046" fill-opacity="0" stroke="black" stroke-width="1" />
<path d="M46.0,-46.0 L41.92804128272954,-37.501299765063585 L38.64066446624664,-33.83718505546846" fill-opacity="0" stroke="black" stroke-width="1" />
<path d="M46.0,46.0 L41.92804128272954,37.501299765063585 L38.64066446624664,33.83718505546846" fill-opacity="0" stroke="black" stroke-width="1" />
<path d="M41.92804128272954,-37.501299765063585 L38.64066446624664,-33.83718505546846 L36.0,-36.0" fill-opacity="0" stroke="black" stroke-width="1" />
<path d="M41.92804128272954,37.501299765063585 L38.64066446624664,33.83718505546846 L36.0,36.0" fill-opacity="0" stroke="black" stroke-width="1" />
<path d="M33.83718505546846,61.35933553375336 L36.0,64.0 L30.0,70.0" fill-opacity="0" stroke="black" stroke-width="1" />
<path d="M33.83718505546846,-61.35933553375336 L36.0,-64.0 L30.0,-70.0" fill-opacity="0" stroke="black" stroke-width="1" />
<path d="M36.0,64.0 L30.0,70.0 L25.0,75.0" fill-opacity="0" stroke="black" stroke-width="1" />
<path d="M36.0,-64.0 L30.0,-70.0 L25.0,-75.0" fill-opacity="0" stroke="black" stroke-width="1" />
<path d="M25.0,75.0 L17.0,83.0 L7.0,93.0" fill-opacity="0" stroke="black" stroke-width="1" />
<path d="M25.0,-75.0 L17.0,-83.0 L7.0,-93.0" fill-opacity="0" stroke="black" stroke-width="1" />
<path d="M17.0,83.0 L7.0,93.0 L0.5941967733175679,93.20603975313337" fill-opacity="0" stroke="black" stroke-width="1" />
<path d="M17.0,-83.0 L7.0,-93.0 L0.5941967733175679,-93.20603975313337" fill-opacity="0" stroke="black" stroke-width="1" />
<path d="M7.0,-7.0 L6.793960246866632,-0.5941967733175679 L3.0,-3.0" fill-opacity="0" stroke="black" stroke-width="1" />
<path d="M7.0,7.0 L6.793960246866632,0.5941967733175679 L3.0,3.0" fill-opacity="0" stroke="black" stroke-width="1" />
<path d="M0.5941967733175679,93.20603975313337 L3.0,97.0 L0.0,100.0" fill-opacity="0" stroke="black" stroke-width="1" />
<path d="M0.5941967733175679,-93.20603975313337 L3.0,-97.0 L0.0,-100.0" fill-opacity="0" stroke="black" stroke-width="1" />
<path d="M-6.0,-0.0 L-13.636194789295068,-0.7597416457940265 L-15.02921315283892,-1.489770814111909" fill-opacity="0" stroke="black" stroke-width="1" />
<path d="M-6.0,-0.0 L-13.636194789295068,0.7597416457940265 L-15.02921315283892,1.489770814111909" fill-opacity="0" stroke="black" stroke-width="1" />
<path d="M-13.636194789295068,-0.7597416457940265 L-15.02921315283892,-1.489770814111909 L-17.100567461406524,-2.1059748553752975" fill-opacity="0" stroke="black" stroke-width="1" />
<path d="M-13.636194789295068,0.7597416457940265 L-15.02921315283892,1.489770814111909 L-17.100567461406524,2.1059748553752975" fill-opacity="0" stroke="black" stroke-width="1" />
<path d="M-15.02921315283892,-1.489770814111909 L-17.100567461406524,-2.1059748553752975 L-23.85191459430031,-4.190746484649088" fill-opacity="0" stroke="black" stroke-width="1" />
<path d="M-15.02921315283892,1.489770814111909 L-17.100567461406524,2.1059748553752975 L-23.85191459430031,4.190746484649088" fill-opacity="0" stroke="black" stroke-width="1" />
<path d="M-17.100567461406524,-2.1059748553752975 L-23.85191459430031,-4.190746484649088 L-25.0,-0.0" fill-opacity="0" stroke="black" stroke-width="1" />
<path d="M-17.100567461406524,2.1059748553752975 L-23.85191459430031,4.190746484649088 L-25.0,-0.0" fill-opacity="0" stroke="black" stroke-width="1" />
<path d="M-30.0,70.0 L-25.0,75.0 L-17.0,83.0" fill-opacity="0" stroke="black" stroke-width="1" />
<path d="M-30.0,-70.0 L-25.0,-75.0 L-17.0,-83.0" fill-opacity="0" stroke="black" stroke-width="1" />
<path d="M-25.0,-0.0 L-37.99575130037003,-4.231655941998384 L-40.0,-0.0" fill-opacity="0" stroke="black" stroke-width="1" />
<path d="M-25.0,-0.0 L-37.99575130037003,4.231655941998384 L-40.0,-0.0" fill-opacity="0" stroke="black" stroke-width="1" />
<path d="M-33.0,50.0 L-46.0,54.0 L-37.501299765063585,58.07195871727046" fill-opacity="0" stroke="black" stroke-width="1" />
<path d="M-33.0,-50.0 L-46.0,-54.0 L-37.501299765063585,-58.07195871727046" fill-opacity="0" stroke="black" stroke-width="1" />
<path d="M-46.0,-46.0 L-41.92804128272954,-37.501299765063585 L-38.64066446624664,-33.83718505546846" fill-opacity="0" stroke="black" stroke-width="1" />
<path d="M-46.0,46.0 L-41.92804128272954,37.501299765063585 L-38.64066446624664,33.83718505546846" fill-opacity="0" stroke="black" stroke-width="1" />
<path d="M-41.92804128272954,-37.501299765063585 L-38.64066446624664,-33.83718505546846 L-36.0,-36.0" fill-opacity="0" stroke="black" stroke-width="1" />
<path d="M-41.92804128272954,37.501299765063585 L-38.64066446624664,33.83718505546846 L-36.0,36.0" fill-opacity="0" stroke="black" stroke-width="1" />
<path d="M-33.83718505546846,61.35933553375336 L-36.0,64.0 L-30.0,70.0" fill-opacity="0" stroke="black" stroke-width="1" />
<path d="M-33.83718505546846,-61.35933553375336 L-36.0,-64.0 L-30.0,-70.0" fill-opacity="0" stroke="black" stroke-width="1" />
<path d="M-36.0,64.0 L-30.0,70.0 L-25.0,75.0" fill-opacity="0" stroke="black" stroke-width="1" />
<path d="M-36.0,-64.0 L-30.0,-70.0 L-25.0,-75.0" fill-opacity="0" stroke="black" stroke-width="1" />
<path d="M-25.0,75.0 L-17.0,83.0 L-7.0,93.0" fill-opacity="0" stroke="black" stroke-width="1" />
<path d="M-25.0,-75.0 L-17.0,-83.0 L-7.0,-93.0" fill-opacity="0" stroke="black" stroke-width="1" />
<path d="M-17.0,83.0 L-7.0,93.0 L-0.5941967733175679,93.20603975313337" fill-opacity="0" stroke="black" stroke-width="1" />
<path d="M-17.0,-83.0 L-7.0,-93.0 L-0.5941967733175679,-93.20603975313337" fill-opacity="0" stroke="black" stroke-width="1" />
<path d="M-7.0,-7.0 L-6.793960246866632,-0.5941967733175679 L-3.0,-3.0" fill-opacity="0" stroke="black" stroke-width="1" />
<path d="M-7.0,7.0 L-6.793960246866632,0.5941967733175679 L-3.0,3.0" fill-opacity="0" stroke="black" stroke-width="1" />
<path d="M-0.5941967733175679,93.20603975313337 L-3.0,97.0 L0.0,100.0" fill-opacity="0" stroke="black" stroke-width="1" />
<path d="M-0.5941967733175679,-93.20603975313337 L-3.0,-97.0 L0.0,-100.0" fill-opacity="0" stroke="black" stroke-width="1" />
<path d="M94.0,-0.0 L86.36380521070492,0.7597416457940265 L84.97078684716108,1.489770814111909" fill-opacity="0" stroke="black" stroke-width="1" />
<path d="M94.0,-0.0 L86.36380521070492,-0.7597416457940265 L84.97078684716108,-1.489770814111909" fill-opacity="0" stroke="black" stroke-width="1" />
<path d="M86.36380521070492,0.7597416457940265 L84.97078684716108,1.489770814111909 L82.89943253859347,2.1059748553752975" fill-opacity="0" stroke="black" stroke-width="1" />
<path d="M86.36380521070492,-0.7597416457940265 L84.97078684716108,-1.489770814111909 L82.89943253859347,-2.1059748553752975" fill-opacity="0" stroke="black" stroke-width="1" />
<path d="M84.97078684716108,1.489770814111909 L82.89943253859347,2.1059748553752975 L76.14808540569969,4.190746484649088" fill-opacity="0" stroke="black" stroke-width="1" />
<path d="M84.97078684716108,-1.489770814111909 L82.89943253859347,-2.1059748553752975 L76.14808540569969,-4.190746484649088" fill-opacity="0" stroke="black" stroke-width="1" />
<path d="M82.89943253859347,2.1059748553752975 L76.14808540569969,4.190746484649088 L75.0,-0.0" fill-opacity="0" stroke="black" stroke-width="1" />
<path d="M82.89943253859347,-2.1059748553752975 L76.14808540569969,-4.190746484649088 L75.0,-0.0" fill-opacity="0" stroke="black" stroke-width="1" />
<path d="M70.0,30.0 L75.0,25.0 L83.0,17.0" fill-opacity="0" stroke="black" stroke-width="1" />
<path d="M70.0,-30.0 L75.0,-25.0 L83.0,-17.0" fill-opacity="0" stroke="black" stroke-width="1" />
<path d="M75.0,-0.0 L62.00424869962997,4.231655941998384 L60.0,-0.0" fill-opacity="0" stroke="black" stroke-width="1" />
<path d="M75.0,-0.0 L62.00424869962997,-4.231655941998384 L60.0,-0.0" fill-opacity="0" stroke="black" stroke-width="1" />
<path d="M50.0,33.0 L54.0,46.0 L58.07195871727046,37.501299765063585" fill-opacity="0" stroke="black" stroke-width="1" />
<path d="M50.0,-33.0 L54.0,-46.0 L58.07195871727046,-37.501299765063585" fill-opacity="0" stroke="black" stroke-width="1" />
<path d="M54.0,46.0 L58.07195871727046,37.501299765063585 L61.35933553375336,33.83718505546846" fill-opacity="0" stroke="black" stroke-width="1" />
<path d="M54.0,-46.0 L58.07195871727046,-37.501299765063585 L61.35933553375336,-33.83718505546846" fill-opacity="0" stroke="black" stroke-width="1" />
<path d="M58.07195871727046,37.501299765063585 L61.35933553375336,33.83718505546846 L64.0,36.0" fill-opacity="0" stroke="black" stroke-width="1" />
<path d="M58.07195871727046,-37.501299765063585 L61.35933553375336,-33.83718505546846 L64.0,-36.0" fill-opacity="0" stroke="black" stroke-width="1" />
<path d="M61.35933553375336,33.83718505546846 L64.0,36.0 L70.0,30.0" fill-opacity="0" stroke="black" stroke-width="1" />
<path d="M61.35933553375336,-33.83718505546846 L64.0,-36.0 L70.0,-30.0" fill-opacity="0" stroke="black" stroke-width="1" />
<path d="M64.0,36.0 L70.0,30.0 L75.0,25.0" fill-opacity="0" stroke="black" stroke-width="1" />
<path d="M64.0,-36.0 L70.0,-30.0 L75.0,-25.0" fill-opacity="0" stroke="black" stroke-width="1" />
<path d="M75.0,25.0 L83.0,17.0 L93.0,7.0" fill-opacity="0" stroke="black" stroke-width="1" />
<path d="M75.0,-25.0 L83.0,-17.0 L93.0,-7.0" fill-opacity="0" stroke="black" stroke-width="1" />
<path d="M83.0,17.0 L93.0,7.0 L93.20603975313337,0.5941967733175679" fill-opacity="0" stroke="black" stroke-width="1" />
<path d="M83.0,-17.0 L93.0,-7.0 L93.20603975313337,-0.5941967733175679" fill-opacity="0" stroke="black" stroke-width="1" />
<path d="M93.0,7.0 L93.20603975313337,0.5941967733175679 L97.0,3.0" fill-opacity="0" stroke="black" stroke-width="1" />
<path d="M93.0,-7.0 L93.20603975313337,-0.5941967733175679 L97.0,-3.0" fill-opacity="0" stroke="black" stroke-width="1" />
<path d="M93.20603975313337,0.5941967733175679 L97.0,3.0 L100.0,-0.0" fill-opacity="0" stroke="black" stroke-width="1" />
<path d="M93.20603975313337,-0.5941967733175679 L97.0,-3.0 L100.0,-0.0" fill-opacity="0" stroke="black" stroke-width="1" />
<path d="M0.0,-6.0 L0.7597416457940265,-13.636194789295068 L1.489770814111909,-15.02921315283892" fill-opacity="0" stroke="black" stroke-width="1" />
<path d="M0.0,6.0 L0.7597416457940265,13.636194789295068 L1.489770814111909,15.02921315283892" fill-opacity="0" stroke="black" stroke-width="1" />
<path d="M0.0,94.0 L0.7597416457940265,86.36380521070492 L1.489770814111909,84.97078684716108" fill-opacity="0" stroke="black" stroke-width="1" />
<path d="M0.0,-94.0 L0.7597416457940265,-86.36380521070492 L1.489770814111909,-84.97078684716108" fill-opacity="0" stroke="black" stroke-width="1" />
<path d="M0.7597416457940265,-13.636194789295068 L1.489770814111909,-15.02921315283892 L2.1059748553752975,-17.100567461406524" fill-opacity="0" stroke="black" stroke-width="1" />
<path d="M0.7597416457940265,13.636194789295068 L1.489770814111909,15.02921315283892 L2.1059748553752975,17.100567461406524" fill-opacity="0" stroke="black" stroke-width="1" />
<path d="M0.7597416457940265,86.36380521070492 L1.489770814111909,84.97078684716108 L2.1059748553752975,82.89943253859347" fill-opacity="0" stroke="black" stroke-width="1" />
<path d="M0.7597416457940265,-86.36380521070492 L1.489770814111909,-84.97078684716108 L2.1059748553752975,-82.89943253859347" fill-opacity="0" stroke="black" stroke-width="1" />
<path d="M1.489770814111909,-15.02921315283892 L2.1059748553752975,-17.100567461406524 L4.190746484649088,-23.85191459430031" fill-opacity="0" stroke="black" stroke-width="1" />
<path d="M1.489770814111909,15.02921315283892 L2.1059748553752975,17.100567461406524 L4.190746484649088,23.85191459430031" fill-opacity="0" stroke="black" stroke-width="1" />
<path d="M1.489770814111909,84.97078684716108 L2.1059748553752975,82.89943253859347 L4.190746484649088,76.14808540569969" fill-opacity="0" stroke="black" stroke-width="1" />
<path d="M1.489770814111909,-84.97078684716108 L2.1059748553752975,-82.89943253859347 L4.190746484649088,-76.14808540569969" fill-opacity="0" stroke="black" stroke-width="1" />
<path d="M2.1059748553752975,-17.100567461406524 L4.190746484649088,-23.85191459430031 L0.0,-25.0" fill-opacity="0" stroke="black" stroke-width="1" />
<path d="M2.1059748553752975,17.100567461406524 L4.190746484649088,23.85191459430031 L0.0,25.0" fill-opacity="0" stroke="black" stroke-width="1" />
<path d="M2.1059748553752975,82.89943253859347 L4.190746484649088,76.14808540569969 L0.0,75.0" fill-opacity="0" stroke="black" stroke-width="1" />
<path d="M2.1059748553752975,-82.89943253859347 L4.190746484649088,-76.14808540569969 L0.0,-75.0" fill-opacity="0" stroke="black" stroke-width="1" />
<path d="M0.0,-25.0 L4.231655941998384,-37.99575130037003 L0.0,-40.0" fill-opacity="0" stroke="black" stroke-width="1" />
<path d="M0.0,25.0 L4.231655941998384,37.99575130037003 L0.0,40.0" fill-opacity="0" stroke="black" stroke-width="1" />
<path d="M0.0,75.0 L4.231655941998384,62.00424869962997 L0.0,60.0" fill-opacity="0" stroke="black" stroke-width="1" />
<path d="M0.0,-75.0 L4.231655941998384,-62.00424869962997 L0.0,-60.0" fill-opacity="0" stroke="black" stroke-width="1" />
<path d="M46.0,-46.0 L37.501299765063585,-41.92804128272954 L33.83718505546846,-38.64066446624664" fill-opacity="0" stroke="black" stroke-width="1" />
<path d="M46.0,46.0 L37.501299765063585,41.92804128272954 L33.83718505546846,38.64066446624664" fill-opacity="0" stroke="black" stroke-width="1" />
<path d="M46.0,54.0 L37.501299765063585,58.07195871727046 L33.83718505546846,61.35933553375336" fill-opacity="0" stroke="black" stroke-width="1" />
<path d="M46.0,-54.0 L37.501299765063585,-58.07195871727046 L33.83718505546846,-61.35933553375336" fill-opacity="0" stroke="black" stroke-width="1" />
<path d="M37.501299765063585,-41.92804128272954 L33.83718505546846,-38.64066446624664 L36.0,-36.0" fill-opacity="0" stroke="black" stroke-width="1" />
<path d="M37.501299765063585,41.92804128272954 L33.83718505546846,38.64066446624664 L36.0,36.0" fill-opacity="0" stroke="black" stroke-width="1" />
<path d="M37.501299765063585,58.07195871727046 L33.83718505546846,61.35933553375336 L36.0,64.0" fill-opacity="0" stroke="black" stroke-width="1" />
<path d="M37.501299765063585,-58.07195871727046 L33.83718505546846,-61.35933553375336 L36.0,-64.0" fill-opacity="0" stroke="black" stroke-width="1" />
<path d="M7.0,-7.0 L0.5941967733175679,-6.793960246866632 L3.0,-3.0" fill-opacity="0" stroke="black" stroke-width="1" />
<path d="M7.0,7.0 L0.5941967733175679,6.793960246866632 L3.0,3.0" fill-opacity="0" stroke="black" stroke-width="1" />
<path d="M7.0,93.0 L0.5941967733175679,93.20603975313337 L3.0,97.0" fill-opacity="0" stroke="black" stroke-width="1" />
<path d="M7.0,-93.0 L0.5941967733175679,-93.20603975313337 L3.0,-97.0" fill-opacity="0" stroke="black" stroke-width="1" />
<path d="M0.0,94.0 L-0.7597416457940265,86.36380521070492 L-1.489770814111909,84.97078684716108" fill-opacity="0" stroke="black" stroke-width="1" />
<path d="M0.0,-6.0 L-0.7597416457940265,-13.636194789295068 L-1.489770814111909,-15.02921315283892" fill-opacity="0" stroke="black" stroke-width="1" />
<path d="M0.0,6.0 L-0.7597416457940265,13.636194789295075 L-1.489770814111909,15.02921315283892" fill-opacity="0" stroke="black" stroke-width="1" />
<path d="M0.0,-94.0 L-0.7597416457940265,-86.36380521070492 L-1.489770814111909,-84.97078684716108" fill-opacity="0" stroke="black" stroke-width="1" />
<path d="M-0.7597416457940265,86.36380521070492 L-1.489770814111909,84.97078684716108 L-2.1059748553752975,82.89943253859347" fill-opacity="0" stroke="black" stroke-width="1" />
<path d="M-0.7597416457940265,-13.636194789295068 L-1.489770814111909,-15.02921315283892 L-2.1059748553752975,-17.100567461406524" fill-opacity="0" stroke="black" stroke-width="1" />
<path d="M-0.7597416457940265,13.636194789295075 L-1.489770814111909,15.02921315283892 L-2.1059748553752975,17.100567461406527" fill-opacity="0" stroke="black" stroke-width="1" />
<path d="M-0.7597416457940265,-86.36380521070492 L-1.489770814111909,-84.97078684716108 L-2.1059748553752975,-82.89943253859347" fill-opacity="0" stroke="black" stroke-width="1" />
<path d="M-1.489770814111909,84.97078684716108 L-2.1059748553752975,82.89943253859347 L-4.190746484649088,76.14808540569969" fill-opacity="0" stroke="black" stroke-width="1" />
<path d="M-1.489770814111909,-15.02921315283892 L-2.1059748553752975,-17.100567461406524 L-4.190746484649088,-23.85191459430031" fill-opacity="0" stroke="black" stroke-width="1" />
<path d="M-1.489770814111909,15.02921315283892 L-2.1059748553752975,17.100567461406527 L-4.190746484649088,23.85191459430031" fill-opacity="0" stroke="black" stroke-width="1" />
<path d="M-1.489770814111909,-84.97078684716108 L-2.1059748553752975,-82.89943253859347 L-4.190746484649088,-76.14808540569969" fill-opacity="0" stroke="black" stroke-width="1" />
<path d="M-2.1059748553752975,82.89943253859347 L-4.190746484649088,76.14808540569969 L0.0,75.0" fill-opacity="0" stroke="black" stroke-width="1" />
<path d="M-2.1059748553752975,-17.100567461406524 L-4.190746484649088,-23.85191459430031 L0.0,-25.0" fill-opacity="0" stroke="black" stroke-width="1" />
<path d="M-2.1059748553752975,17.100567461406527 L-4.190746484649088,23.85191459430031 L0.0,25.0" fill-opacity="0" stroke="black" stroke-width="1" />
<path d="M-2.1059748553752975,-82.89943253859347 L-4.190746484649088,-76.14808540569969 L0.0,-75.0" fill-opacity="0" stroke="black" stroke-width="1" />
<path d="M0.0,75.0 L-4.231655941998384,62.00424869962997 L0.0,60.0" fill-opacity="0" stroke="black" stroke-width="1" />
<path d="M0.0,-25.0 L-4.231655941998384,-37.99575130037003 L0.0,-40.0" fill-opacity="0" stroke="black" stroke-width="1" />
<path d="M0.0,25.0 L-4.231655941998384,37.99575130037003 L0.0,40.0" fill-opacity="0" stroke="black" stroke-width="1" />
<path d="M0.0,-75.0 L-4.231655941998384,-62.00424869962997 L0.0,-60.0" fill-opacity="0" stroke="black" stroke-width="1" />
<path d="M-46.0,54.0 L-37.501299765063585,58.07195871727046 L-33.83718505546846,61.35933553375336" fill-opacity="0" stroke="black" stroke-width="1" />
<path d="M-46.0,-46.0 L-37.501299765063585,-41.92804128272954 L-33.83718505546846,-38.64066446624664" fill-opacity="0" stroke="black" stroke-width="1" />
<path d="M-46.0,46.0 L-37.501299765063585,41.92804128272954 L-33.83718505546846,38.64066446624664" fill-opacity="0" stroke="black" stroke-width="1" />
<path d="M-46.0,-54.0 L-37.501299765063585,-58.07195871727046 L-33.83718505546846,-61.35933553375336" fill-opacity="0" stroke="black" stroke-width="1" />
<path d="M-37.501299765063585,58.07195871727046 L-33.83718505546846,61.35933553375336 L-36.0,64.0" fill-opacity="0" stroke="black" stroke-width="1" />
<path d="M-37.501299765063585,-41.92804128272954 L-33.83718505546846,-38.64066446624664 L-36.0,-36.0" fill-opacity="0" stroke="black" stroke-width="1" />
<path d="M-37.501299765063585,41.92804128272954 L-33.83718505546846,38.64066446624664 L-36.0,36.0" fill-opacity="0" stroke="black" stroke-width="1" />
<path d="M-37.501299765063585,-58.07195871727046 L-33.83718505546846,-61.35933553375336 L-36.0,-64.0" fill-opacity="0" stroke="black" stroke-width="1" />
<path d="M-7.0,93.0 L-0.5941967733175679,93.20603975313337 L-3.0,97.0" fill-opacity="0" stroke="black" stroke-width="1" />
<path d="M-7.0,-7.0 L-0.5941967733175679,-6.793960246866632 L-3.0,-3.0" fill-opacity="0" stroke="black" stroke-width="1" />
<path d="M-7.0,7.0 L-0.5941967733175679,6.793960246866632 L-3.0,3.0" fill-opacity="0" stroke="black" stroke-width="1" />
<path d="M-7.0,-93.0 L-0.5941967733175679,-93.20603975313337 L-3.0,-97.0" fill-opacity="0" stroke="black" stroke-width="1" />
<path d="M-94.0,-0.0 L-86.36380521070492,-0.7597416457940265 L-84.97078684716108,-1.489770814111909" fill-opacity="0" stroke="black" stroke-width="1" />
<path d="M-94.0,-0.0 L-86.36380521070492,0.7597416457940265 L-84.97078684716108,1.489770814111909" fill-opacity="0" stroke="black" stroke-width="1" />
<path d="M-86.36380521070492,-0.7597416457940265 L-84.97078684716108,-1.489770814111909 L-82.89943253859347,-2.1059748553752975" fill-opacity="0" stroke="black" stroke-width="1" />
<path d="M-86.36380521070492,0.7597416457940265 L-84.97078684716108,1.489770814111909 L-82.89943253859347,2.1059748553752975" fill-opacity="0" stroke="black" stroke-width="1" />
<path d="M-84.97078684716108,-1.489770814111909 L-82.89943253859347,-2.1059748553752975 L-76.14808540569969,-4.190746484649088" fill-opacity="0" stroke="black" stroke-width="1" />
<path d="M-84.97078684716108,1.489770814111909 L-82.89943253859347,2.1059748553752975 L-76.14808540569969,4.190746484649088" fill-opacity="0" stroke="black" stroke-width="1" />
<path d="M-82.89943253859347,-2.1059748553752975 L-76.14808540569969,-4.190746484649088 L-75.0,-0.0" fill-opacity="0" stroke="black" stroke-width="1" />
<path d="M-82.89943253859347,2.1059748553752975 L-76.14808540569969,4.190746484649088 L-75.0,-0.0" fill-opacity="0" stroke="black" stroke-width="1" />
<path d="M-70.0,-30.0 L-75.0,-25.0 L-83.0,-17.0" fill-opacity="0" stroke="black" stroke-width="1" />
<path d="M-70.0,30.0 L-75.0,25.0 L-83.0,17.0" fill-opacity="0" stroke="black" stroke-width="1" />
<path d="M-75.0,-0.0 L-62.00424869962997,-4.231655941998384 L-60.0,-0.0" fill-opacity="0" stroke="black" stroke-width="1" />
<path d="M-75.0,-0.0 L-62.00424869962997,4.231655941998384 L-60.0,-0.0" fill-opacity="0" stroke="black" stroke-width="1" />
<path d="M-50.0,-33.0 L-54.0,-46.0 L-58.07195871727046,-37.501299765063585" fill-opacity="0" stroke="black" stroke-width="1" />
<path d="M-50.0,33.0 L-54.0,46.0 L-58.07195871727046,37.501299765063585" fill-opacity="0" stroke="black" stroke-width="1" />
<path d="M-54.0,-46.0 L-58.07195871727046,-37.501299765063585 L-61.35933553375336,-33.83718505546846" fill-opacity="0" stroke="black" stroke-width="1" />
<path d="M-54.0,46.0 L-58.07195871727046,37.501299765063585 L-61.35933553375336,33.83718505546846" fill-opacity="0" stroke="black" stroke-width="1" />
<path d="M-58.07195871727046,-37.501299765063585 L-61.35933553375336,-33.83718505546846 L-64.0,-36.0" fill-opacity="0" stroke="black" stroke-width="1" />
<path d="M-58.07195871727046,37.501299765063585 L-61.35933553375336,33.83718505546846 L-64.0,36.0" fill-opacity="0" stroke="black" stroke-width="1" />
<path d="M-61.35933553375336,-33.83718505546846 L-64.0,-36.0 L-70.0,-30.0" fill-opacity="0" stroke="black" stroke-width="1" />
<path d="M-61.35933553375336,33.83718505546846 L-64.0,36.0 L-70.0,30.0" fill-opacity="0" stroke="black" stroke-width="1" />
<path d="M-64.0,-36.0 L-70.0,-30.0 L-75.0,-25.0" fill-opacity="0" stroke="black" stroke-width="1" />
<path d="M-64.0,36.0 L-70.0,30.0 L-75.0,25.0" fill-opacity="0" stroke="black" stroke-width="1" />
<path d="M-75.0,-25.0 L-83.0,-17.0 L-93.0,-7.0" fill-opacity="0" stroke="black" stroke-width="1" />
<path d="M-75.0,25.0 L-83.0,17.0 L-93.0,7.0" fill-opacity="0" stroke="black" stroke-width="1" />
<path d="M-83.0,-17.0 L-93.0,-7.0 L-93.20603975313337,-0.5941967733175679" fill-opacity="0" stroke="black" stroke-width="1" />
<path d="M-83.0,17.0 L-93.0,7.0 L-93.20603975313337,0.5941967733175679" fill-opacity="0" stroke="black" stroke-width="1" />
<path d="M-93.0,-7.0 L-93.20603975313337,-0.5941967733175679 L-97.0,-3.0" fill-opacity="0" stroke="black" stroke-width="1" />
<path d="M-93.0,7.0 L-93.20603975313337,0.5941967733175679 L-97.0,3.0" fill-opacity="0" stroke="black" stroke-width="1" />
<path d="M-93.20603975313337,-0.5941967733175679 L-97.0,-3.0 L-100.0,-0.0" fill-opacity="0" stroke="black" stroke-width="1" />
<path d="M-93.20603975313337,0.5941967733175679 L-97.0,3.0 L-100.0,-0.0" fill-opacity="0" stroke="black" stroke-width="1" />
<circle cx="0" cy="-97" r="8" stroke-dasharray="39.653880605311166 10.611601852125524" stroke-dashoffset="-17.59291886010284" stroke="black" stroke-width="1" fill="white" fill-opacity="1" />
<circle cx="0" cy="-97" r="4" stroke="black" stroke-width="1" fill="white" fill-opacity="1" />
</svg>