<?xml version="1.0" encoding="UTF-8"?>
<svg xmlns="http://www.w3.org/2000/svg" xmlns:xlink="http://www.w3.org/1999/xlink"
     width="250" height="250" viewBox="-125.0 -125.0 250 250">
<defs>
</defs>
<path d="M18.0,-0.0 L18.942910782992882,-10.666671174964653 L24.0,-0.0" fill="purple" fill-opacity="0.6" stroke="black" stroke-width="1" />
<path d="M18.0,-0.0 L18.942910782992882,10.666671174964653 L24.0,-0.0" fill="pink" fill-opacity="0.6" stroke="black" stroke-width="1" />
<path d="M27.0,-0.0 L27.43852896050859,-12.256448310735562 L50.0,-8.0" fill="black" fill-opacity="0.6" stroke="black" stroke-width="1" />
<path d="M27.0,-0.0 L27.43852896050859,12.256448310735562 L50.0,8.0" fill="blue" fill-opacity="0.6" stroke="black" stroke-width="1" />
<path d="M50.0,-8.0 L46.59558076578658,-12.951449344125642 L48.25264097348301,-17.17809646811672" fill="yellow" fill-opacity="0.6" stroke="black" stroke-width="1" />
<path d="M50.0,8.0 L46.59558076578658,12.951449344125642 L48.25264097348301,17.17809646811672" fill="blue" fill-opacity="0.6" stroke="black" stroke-width="1" />
<path d="M46.59558076578658,-12.951449344125642 L48.25264097348301,-17.17809646811672 L49.57410670084608,-25.835805747304118" fill="orange" fill-opacity="0.6" stroke="black" stroke-width="1" />
<path d="M46.59558076578658,12.951449344125642 L48.25264097348301,17.17809646811672 L49.57410670084608,25.835805747304118" fill="purple" fill-opacity="0.6" stroke="black" stroke-width="1" />
<path d="M48.25264097348301,-17.17809646811672 L49.57410670084608,-25.835805747304118 L50.0,-29.0" fill="blue" fill-opacity="0.6" stroke="black" stroke-width="1" />
<path d="M48.25264097348301,17.17809646811672 L49.57410670084608,25.835805747304118 L50.0,29.0" fill="purple" fill-opacity="0.6" stroke="black" stroke-width="1" />
<path d="M50.0,50.0 L31.0,69.0 L8.660049734915294,84.22854855927928" fill="brown" fill-opacity="0.6" stroke="black" stroke-width="1" />
<path d="M50.0,-50.0 L31.0,-69.0 L8.660049734915294,-84.22854855927928" fill="orange" fill-opacity="0.6" stroke="black" stroke-width="1" />
<path d="M31.0,-31.0 L15.771451440720725,-8.660049734915294 L15.0,-15.0" fill="blue" fill-opacity="0.6" stroke="black" stroke-width="1" />
<path d="M31.0,31.0 L15.771451440720725,8.660049734915294 L15.0,15.0" fill="purple" fill-opacity="0.6" stroke="black" stroke-width="1" />
<path d="M8.660049734915294,84.22854855927928 L15.0,85.0 L8.19708952423978,88.93686945357143" fill="purple" fill-opacity="0.6" stroke="black" stroke-width="1" />
<path d="M8.660049734915294,-84.22854855927928 L15.0,-85.0 L8.19708952423978,-88.93686945357143" fill="blue" fill-opacity="0.6" stroke="black" stroke-width="1" />
<path d="M15.0,-15.0 L11.063130546428562,-8.19708952423978 L9.608468121424796,-3.47233455936632" fill="blue" fill-opacity="0.6" stroke="black" stroke-width="1" />
<path d="M15.0,15.0 L11.063130546428562,8.19708952423978 L9.608468121424796,3.47233455936632" fill="red" fill-opacity="0.6" stroke="black" stroke-width="1" />
<path d="M11.063130546428562,-8.19708952423978 L9.608468121424796,-3.47233455936632 L7.569306367654072,-3.269862549516557" fill="orange" fill-opacity="0.6" stroke="black" stroke-width="1" />
<path d="M11.063130546428562,8.19708952423978 L9.608468121424796,3.47233455936632 L7.569306367654072,3.269862549516557" fill="red" fill-opacity="0.6" stroke="black" stroke-width="1" />
<path d="M9.608468121424796,-3.47233455936632 L7.569306367654072,-3.269862549516557 L7.34745656110109,-2.610951263028195" fill="green" fill-opacity="0.6" stroke="black" stroke-width="1" />
<path d="M9.608468121424796,3.47233455936632 L7.569306367654072,3.269862549516557 L7.34745656110109,2.610951263028195" fill="pink" fill-opacity="0.6" stroke="black" stroke-width="1" />
<path d="M7.569306367654072,-3.269862549516557 L7.34745656110109,-2.610951263028195 L6.555400365399972,-1.8438532767331686" fill="purple" fill-opacity="0.6" stroke="black" stroke-width="1" />
<path d="M7.569306367654072,3.269862549516557 L7.34745656110109,2.610951263028195 L6.555400365399972,1.8438532767331686" fill="brown" fill-opacity="0.6" stroke="black" stroke-width="1" />
<path d="M7.34745656110109,-2.610951263028195 L6.555400365399972,-1.8438532767331686 L3.3114224025101335,-1.2056225548712398" fill="blue" fill-opacity="0.6" stroke="black" stroke-width="1" />
<path d="M7.34745656110109,2.610951263028195 L6.555400365399972,1.8438532767331686 L3.3114224025101335,1.2056225548712398" fill="green" fill-opacity="0.6" stroke="black" stroke-width="1" />
<path d="M6.555400365399972,-1.8438532767331686 L3.3114224025101335,-1.2056225548712398 L2.0,-2.0" fill="yellow" fill-opacity="0.6" stroke="black" stroke-width="1" />
<path d="M6.555400365399972,1.8438532767331686 L3.3114224025101335,1.2056225548712398 L2.0,2.0" fill="purple" fill-opacity="0.6" stroke="black" stroke-width="1" />
<path d="M1.2056225548712398,96.68857759748987 L2.0,98.0 L0.0,100.0" fill="brown" fill-opacity="0.6" stroke="black" stroke-width="1" />
<path d="M1.2056225548712398,-96.68857759748987 L2.0,-98.0 L0.0,-100.0" fill="red" fill-opacity="0.6" stroke="black" stroke-width="1" />
<path d="M-18.0,-0.0 L-18.942910782992882,-10.666671174964653 L-24.0,-0.0" fill="blue" fill-opacity="0.6" stroke="black" stroke-width="1" />
<path d="M-18.0,-0.0 L-18.942910782992882,10.666671174964653 L-24.0,-0.0" fill="blue" fill-opacity="0.6" stroke="black" stroke-width="1" />
<path d="M-27.0,-0.0 L-27.43852896050859,-12.256448310735562 L-50.0,-8.0" fill="red" fill-opacity="0.6" stroke="black" stroke-width="1" />
<path d="M-27.0,-0.0 L-27.43852896050859,12.256448310735562 L-50.0,8.0" fill="pink" fill-opacity="0.6" stroke="black" stroke-width="1" />
<path d="M-50.0,-8.0 L-46.59558076578658,-12.951449344125642 L-48.25264097348301,-17.17809646811672" fill="brown" fill-opacity="0.6" stroke="black" stroke-width="1" />
<path d="M-50.0,8.0 L-46.59558076578658,12.951449344125642 L-48.25264097348301,17.17809646811672" fill="black" fill-opacity="0.6" stroke="black" stroke-width="1" />
<path d="M-46.59558076578658,-12.951449344125642 L-48.25264097348301,-17.17809646811672 L-49.57410670084608,-25.835805747304118" fill="brown" fill-opacity="0.6" stroke="black" stroke-width="1" />
<path d="M-46.59558076578658,12.951449344125642 L-48.25264097348301,17.17809646811672 L-49.57410670084608,25.835805747304118" fill="black" fill-opacity="0.6" stroke="black" stroke-width="1" />
<path d="M-48.25264097348301,-17.17809646811672 L-49.57410670084608,-25.835805747304118 L-50.0,-29.0" fill="purple" fill-opacity="0.6" stroke="black" stroke-width="1" />
<path d="M-48.25264097348301,17.17809646811672 L-49.57410670084608,25.835805747304118 L-50.0,29.0" fill="yellow" fill-opacity="0.6" stroke="black" stroke-width="1" />
<path d="M-50.0,50.0 L-31.0,69.0 L-8.660049734915294,84.22854855927928" fill="blue" fill-opacity="0.6" stroke="black" stroke-width="1" />
<path d="M-50.0,-50.0 L-31.0,-69.0 L-8.660049734915294,-84.22854855927928" fill="black" fill-opacity="0.6" stroke="black" stroke-width="1" />
<path d="M-31.0,-31.0 L-15.771451440720725,-8.660049734915294 L-15.0,-15.0" fill="pink" fill-opacity="0.6" stroke="black" stroke-width="1" />
<path d="M-31.0,31.0 L-15.771451440720725,8.660049734915294 L-15.0,15.0" fill="blue" fill-opacity="0.6" stroke="black" stroke-width="1" />
<path d="M-8.660049734915294,84.22854855927928 L-15.0,85.0 L-8.19708952423978,88.93686945357143" fill="red" fill-opacity="0.6" stroke="black" stroke-width="1" />
<path d="M-8.660049734915294,-84.22854855927928 L-15.0,-85.0 L-8.19708952423978,-88.93686945357143" fill="brown" fill-opacity="0.6" stroke="black" stroke-width="1" />
<path d="M-15.0,-15.0 L-11.063130546428562,-8.19708952423978 L-9.608468121424796,-3.47233455936632" fill="red" fill-opacity="0.6" stroke="black" stroke-width="1" />
<path d="M-15.0,15.0 L-11.063130546428562,8.19708952423978 L-9.608468121424796,3.47233455936632" fill="purple" fill-opacity="0.6" stroke="black" stroke-width="1" />
<path d="M-11.063130546428562,-8.19708952423978 L-9.608468121424796,-3.47233455936632 L-7.569306367654072,-3.269862549516557" fill="brown" fill-opacity="0.6" stroke="black" stroke-width="1" />
<path d="M-11.063130546428562,8.19708952423978 L-9.608468121424796,3.47233455936632 L-7.569306367654072,3.269862549516557" fill="red" fill-opacity="0.6" stroke="black" stroke-width="1" />
<path d="M-9.608468121424796,-3.47233455936632 L-7.569306367654072,-3.269862549516557 L-7.34745656110109,-2.610951263028195" fill="blue" fill-opacity="0.6" stroke="black" stroke-width="1" />
<path d="M-9.608468121424796,3.47233455936632 L-7.569306367654072,3.269862549516557 L-7.34745656110109,2.610951263028195" fill="pink" fill-opacity="0.6" stroke="black" stroke-width="1" />
<path d="M-7.569306367654072,-3.269862549516557 L-7.34745656110109,-2.610951263028195 L-6.555400365399972,-1.8438532767331686" fill="pink" fill-opacity="0.6" stroke="black" stroke-width="1" />
<path d="M-7.569306367654072,3.269862549516557 L-7.34745656110109,2.610951263028195 L-6.555400365399972,1.8438532767331686" fill="yellow" fill-opacity="0.6" stroke="black" stroke-width="1" />
<path d="M-7.34745656110109,-2.610951263028195 L-6.555400365399972,-1.8438532767331686 L-3.3114224025101335,-1.2056225548712398" fill="blue" fill-opacity="0.6" stroke="black" stroke-width="1" />
<path d="M-7.34745656110109,2.610951263028195 L-6.555400365399972,1.8438532767331686 L-3.3114224025101335,1.2056225548712398" fill="purple" fill-opacity="0.6" stroke="black" stroke-width="1" />
<path d="M-6.555400365399972,-1.8438532767331686 L-3.3114224025101335,-1.2056225548712398 L-2.0,-2.0" fill="pink" fill-opacity="0.6" stroke="black" stroke-width="1" />
<path d="M-6.555400365399972,1.8438532767331686 L-3.3114224025101335,1.2056225548712398 L-2.0,2.0" fill="pink" fill-opacity="0.6" stroke="black" stroke-width="1" />
<path d="M-1.2056225548712398,96.68857759748987 L-2.0,98.0 L0.0,100.0" fill="blue" fill-opacity="0.6" stroke="black" stroke-width="1" />
<path d="M-1.2056225548712398,-96.68857759748987 L-2.0,-98.0 L0.0,-100.0" fill="pink" fill-opacity="0.6" stroke="black" stroke-width="1" />
<path d="M82.0,-0.0 L81.05708921700712,10.666671174964653 L76.0,-0.0" fill="brown" fill-opacity="0.6" stroke="black" stroke-width="1" />
<path d="M82.0,-0.0 L81.05708921700712,-10.666671174964653 L76.0,-0.0" fill="brown" fill-opacity="0.6" stroke="black" stroke-width="1" />
<path d="M73.0,-0.0 L72.56147103949141,12.256448310735562 L50.0,8.0" fill="black" fill-opacity="0.6" stroke="black" stroke-width="1" />
<path d="M73.0,-0.0 L72.56147103949141,-12.256448310735562 L50.0,-8.0" fill="brown" fill-opacity="0.6" stroke="black" stroke-width="1" />
<path d="M50.0,8.0 L53.40441923421342,12.951449344125642 L51.74735902651699,17.17809646811672" fill="brown" fill-opacity="0.6" stroke="black" stroke-width="1" />
<path d="M50.0,-8.0 L53.40441923421342,-12.951449344125642 L51.74735902651699,-17.17809646811672" fill="yellow" fill-opacity="0.6" stroke="black" stroke-width="1" />
<path d="M53.40441923421342,12.951449344125642 L51.74735902651699,17.17809646811672 L50.42589329915392,25.835805747304118" fill="pink" fill-opacity="0.6" stroke="black" stroke-width="1" />
<path d="M53.40441923421342,-12.951449344125642 L51.74735902651699,-17.17809646811672 L50.42589329915392,-25.835805747304118" fill="orange" fill-opacity="0.6" stroke="black" stroke-width="1" />
<path d="M51.74735902651699,17.17809646811672 L50.42589329915392,25.835805747304118 L50.0,29.0" fill="green" fill-opacity="0.6" stroke="black" stroke-width="1" />
<path d="M51.74735902651699,-17.17809646811672 L50.42589329915392,-25.835805747304118 L50.0,-29.0" fill="purple" fill-opacity="0.6" stroke="black" stroke-width="1" />
<path d="M50.0,50.0 L69.0,31.0 L84.22854855927928,8.660049734915294" fill="yellow" fill-opacity="0.6" stroke="black" stroke-width="1" />
<path d="M50.0,-50.0 L69.0,-31.0 L84.22854855927928,-8.660049734915294" fill="pink" fill-opacity="0.6" stroke="black" stroke-width="1" />
<path d="M69.0,31.0 L84.22854855927928,8.660049734915294 L85.0,15.0" fill="pink" fill-opacity="0.6" stroke="black" stroke-width="1" />
<path d="M69.0,-31.0 L84.22854855927928,-8.660049734915294 L85.0,-15.0" fill="orange" fill-opacity="0.6" stroke="black" stroke-width="1" />
<path d="M84.22854855927928,8.660049734915294 L85.0,15.0 L88.93686945357143,8.19708952423978" fill="red" fill-opacity="0.6" stroke="black" stroke-width="1" />
<path d="M84.22854855927928,-8.660049734915294 L85.0,-15.0 L88.93686945357143,-8.19708952423978" fill="orange" fill-opacity="0.6" stroke="black" stroke-width="1" />
<path d="M85.0,15.0 L88.93686945357143,8.19708952423978 L90.39153187857521,3.47233455936632" fill="purple" fill-opacity="0.6" stroke="black" stroke-width="1" />
<path d="M85.0,-15.0 L88.93686945357143,-8.19708952423978 L90.39153187857521,-3.47233455936632" fill="brown" fill-opacity="0.6" stroke="black" stroke-width="1" />
<path d="M88.93686945357143,8.19708952423978 L90.39153187857521,3.47233455936632 L92.43069363234594,3.269862549516557" fill="red" fill-opacity="0.6" stroke="black" stroke-width="1" />
<path d="M88.93686945357143,-8.19708952423978 L90.39153187857521,-3.47233455936632 L92.43069363234594,-3.269862549516557" fill="green" fill-opacity="0.6" stroke="black" stroke-width="1" />
<path d="M90.39153187857521,3.47233455936632 L92.43069363234594,3.269862549516557 L92.6525434388989,2.610951263028195" fill="pink" fill-opacity="0.6" stroke="black" stroke-width="1" />
<path d="M90.39153187857521,-3.47233455936632 L92.43069363234594,-3.269862549516557 L92.6525434388989,-2.610951263028195" fill="yellow" fill-opacity="0.6" stroke="black" stroke-width="1" />
<path d="M92.43069363234594,3.269862549516557 L92.6525434388989,2.610951263028195 L93.44459963460002,1.8438532767331686" fill="red" fill-opacity="0.6" stroke="black" stroke-width="1" />
<path d="M92.43069363234594,-3.269862549516557 L92.6525434388989,-2.610951263028195 L93.44459963460002,-1.8438532767331686" fill="red" fill-opacity="0.6" stroke="black" stroke-width="1" />
<path d="M92.6525434388989,2.610951263028195 L93.44459963460002,1.8438532767331686 L96.68857759748987,1.2056225548712398" fill="black" fill-opacity="0.6" stroke="black" stroke-width="1" />
<path d="M92.6525434388989,-2.610951263028195 L93.44459963460002,-1.8438532767331686 L96.68857759748987,-1.2056225548712398" fill="purple" fill-opacity="0.6" stroke="black" stroke-width="1" />
<path d="M93.44459963460002,1.8438532767331686 L96.68857759748987,1.2056225548712398 L98.0,2.0" fill="black" fill-opacity="0.6" stroke="black" stroke-width="1" />
<path d="M93.44459963460002,-1.8438532767331686 L96.68857759748987,-1.2056225548712398 L98.0,-2.0" fill="red" fill-opacity="0.6" stroke="black" stroke-width="1" />
<path d="M96.68857759748987,1.2056225548712398 L98.0,2.0 L100.0,-0.0" fill="yellow" fill-opacity="0.6" stroke="black" stroke-width="1" />
<path d="M96.68857759748987,-1.2056225548712398 L98.0,-2.0 L100.0,-0.0" fill="brown" fill-opacity="0.6" stroke="black" stroke-width="1" />
<path d="M0.0,-18.0 L10.666671174964653,-18.942910782992882 L0.0,-24.0" fill="brown" fill-opacity="0.6" stroke="black" stroke-width="1" />
<path d="M0.0,18.0 L10.666671174964653,18.942910782992882 L0.0,24.0" fill="orange" fill-opacity="0.6" stroke="black" stroke-width="1" />
<path d="M0.0,82.0 L10.666671174964653,81.05708921700712 L0.0,76.0" fill="brown" fill-opacity="0.6" stroke="black" stroke-width="1" />
<path d="M0.0,-82.0 L10.666671174964653,-81.05708921700712 L0.0,-76.0" fill="blue" fill-opacity="0.6" stroke="black" stroke-width="1" />
<path d="M0.0,-27.0 L12.256448310735562,-27.43852896050859 L8.0,-50.0" fill="blue" fill-opacity="0.6" stroke="black" stroke-width="1" />
<path d="M0.0,27.0 L12.256448310735562,27.43852896050859 L8.0,50.0" fill="red" fill-opacity="0.6" stroke="black" stroke-width="1" />
<path d="M0.0,73.0 L12.256448310735562,72.56147103949141 L8.0,50.0" fill="brown" fill-opacity="0.6" stroke="black" stroke-width="1" />
<path d="M0.0,-73.0 L12.256448310735562,-72.56147103949141 L8.0,-50.0" fill="red" fill-opacity="0.6" stroke="black" stroke-width="1" />
<path d="M8.0,-50.0 L12.951449344125642,-46.59558076578658 L17.17809646811672,-48.25264097348301" fill="yellow" fill-opacity="0.6" stroke="black" stroke-width="1" />
<path d="M8.0,50.0 L12.951449344125642,46.59558076578658 L17.17809646811672,48.25264097348301" fill="blue" fill-opacity="0.6" stroke="black" stroke-width="1" />
<path d="M8.0,50.0 L12.951449344125642,53.40441923421342 L17.17809646811672,51.74735902651699" fill="yellow" fill-opacity="0.6" stroke="black" stroke-width="1" />
<path d="M8.0,-50.0 L12.951449344125642,-53.40441923421342 L17.17809646811672,-51.74735902651699" fill="black" fill-opacity="0.6" stroke="black" stroke-width="1" />
<path d="M12.951449344125642,-46.59558076578658 L17.17809646811672,-48.25264097348301 L25.835805747304118,-49.57410670084608" fill="purple" fill-opacity="0.6" stroke="black" stroke-width="1" />
<path d="M12.951449344125642,46.59558076578658 L17.17809646811672,48.25264097348301 L25.835805747304118,49.57410670084608" fill="blue" fill-opacity="0.6" stroke="black" stroke-width="1" />
<path d="M12.951449344125642,53.40441923421342 L17.17809646811672,51.74735902651699 L25.835805747304118,50.42589329915392" fill="black" fill-opacity="0.6" stroke="black" stroke-width="1" />
<path d="M12.951449344125642,-53.40441923421342 L17.17809646811672,-51.74735902651699 L25.835805747304118,-50.42589329915392" fill="pink" fill-opacity="0.6" stroke="black" stroke-width="1" />
<path d="M17.17809646811672,-48.25264097348301 L25.835805747304118,-49.57410670084608 L29.0,-50.0" fill="brown" fill-opacity="0.6" stroke="black" stroke-width="1" />
<path d="M17.17809646811672,48.25264097348301 L25.835805747304118,49.57410670084608 L29.0,50.0" fill="blue" fill-opacity="0.6" stroke="black" stroke-width="1" />
<path d="M17.17809646811672,51.74735902651699 L25.835805747304118,50.42589329915392 L29.0,50.0" fill="orange" fill-opacity="0.6" stroke="black" stroke-width="1" />
<path d="M17.17809646811672,-51.74735902651699 L25.835805747304118,-50.42589329915392 L29.0,-50.0" fill="black" fill-opacity="0.6" stroke="black" stroke-width="1" />
<path d="M31.0,-31.0 L8.660049734915294,-15.771451440720725 L15.0,-15.0" fill="black" fill-opacity="0.6" stroke="black" stroke-width="1" />
<path d="M31.0,31.0 L8.660049734915294,15.771451440720725 L15.0,15.0" fill="red" fill-opacity="0.6" stroke="black" stroke-width="1" />
<path d="M31.0,69.0 L8.660049734915294,84.22854855927928 L15.0,85.0" fill="green" fill-opacity="0.6" stroke="black" stroke-width="1" />
<path d="M31.0,-69.0 L8.660049734915294,-84.22854855927928 L15.0,-85.0" fill="purple" fill-opacity="0.6" stroke="black" stroke-width="1" />
<path d="M15.0,-15.0 L8.19708952423978,-11.063130546428562 L3.47233455936632,-9.608468121424796" fill="black" fill-opacity="0.6" stroke="black" stroke-width="1" />
<path d="M15.0,15.0 L8.19708952423978,11.063130546428562 L3.47233455936632,9.608468121424796" fill="red" fill-opacity="0.6" stroke="black" stroke-width="1" />
<path d="M15.0,85.0 L8.19708952423978,88.93686945357143 L3.47233455936632,90.39153187857521" fill="orange" fill-opacity="0.6" stroke="black" stroke-width="1" />
<path d="M15.0,-85.0 L8.19708952423978,-88.93686945357143 L3.47233455936632,-90.39153187857521" fill="black" fill-opacity="0.6" stroke="black" stroke-width="1" />
<path d="M8.19708952423978,-11.063130546428562 L3.47233455936632,-9.608468121424796 L3.269862549516557,-7.569306367654072" fill="purple" fill-opacity="0.6" stroke="black" stroke-width="1" />
<path d="M8.19708952423978,11.063130546428562 L3.47233455936632,9.608468121424796 L3.269862549516557,7.569306367654072" fill="purple" fill-opacity="0.6" stroke="black" stroke-width="1" />
<path d="M8.19708952423978,88.93686945357143 L3.47233455936632,90.39153187857521 L3.269862549516557,92.43069363234594" fill="brown" fill-opacity="0.6" stroke="black" stroke-width="1" />
<path d="M8.19708952423978,-88.93686945357143 L3.47233455936632,-90.39153187857521 L3.269862549516557,-92.43069363234594" fill="yellow" fill-opacity="0.6" stroke="black" stroke-width="1" />
<path d="M3.47233455936632,-9.608468121424796 L3.269862549516557,-7.569306367654072 L2.610951263028195,-7.34745656110109" fill="purple" fill-opacity="0.6" stroke="black" stroke-width="1" />
<path d="M3.47233455936632,9.608468121424796 L3.269862549516557,7.569306367654072 L2.610951263028195,7.34745656110109" fill="yellow" fill-opacity="0.6" stroke="black" stroke-width="1" />
<path d="M3.47233455936632,90.39153187857521 L3.269862549516557,92.43069363234594 L2.610951263028195,92.6525434388989" fill="red" fill-opacity="0.6" stroke="black" stroke-width="1" />
<path d="M3.47233455936632,-90.39153187857521 L3.269862549516557,-92.43069363234594 L2.610951263028195,-92.6525434388989" fill="brown" fill-opacity="0.6" stroke="black" stroke-width="1" />
<path d="M3.269862549516557,-7.569306367654072 L2.610951263028195,-7.34745656110109 L1.8438532767331686,-6.555400365399972" fill="blue" fill-opacity="0.6" stroke="black" stroke-width="1" />
<path d="M3.269862549516557,7.569306367654072 L2.610951263028195,7.34745656110109 L1.8438532767331686,6.555400365399972" fill="blue" fill-opacity="0.6" stroke="black" stroke-width="1" />
<path d="M3.269862549516557,92.43069363234594 L2.610951263028195,92.6525434388989 L1.8438532767331686,93.44459963460002" fill="purple" fill-opacity="0.6" stroke="black" stroke-width="1" />
<path d="M3.269862549516557,-92.43069363234594 L2.610951263028195,-92.6525434388989 L1.8438532767331686,-93.44459963460002" fill="pink" fill-opacity="0.6" stroke="black" stroke-width="1" />
<path d="M2.610951263028195,-7.34745656110109 L1.8438532767331686,-6.555400365399972 L1.2056225548712398,-3.3114224025101335" fill="black" fill-opacity="0.6" stroke="black" stroke-width="1" />
<path d="M2.610951263028195,7.34745656110109 L1.8438532767331686,6.555400365399972 L1.2056225548712398,3.3114224025101335" fill="orange" fill-opacity="0.6" stroke="black" stroke-width="1" />
<path d="M2.610951263028195,92.6525434388989 L1.8438532767331686,93.44459963460002 L1.2056225548712398,96.68857759748987" fill="brown" fill-opacity="0.6" stroke="black" stroke-width="1" />
<path d="M2.610951263028195,-92.6525434388989 L1.8438532767331686,-93.44459963460002 L1.2056225548712398,-96.68857759748987" fill="pink" fill-opacity="0.6" stroke="black" stroke-width="1" />
<path d="M1.8438532767331686,-6.555400365399972 L1.2056225548712398,-3.3114224025101335 L2.0,-2.0" fill="pink" fill-opacity="0.6" stroke="black" stroke-width="1" />
<path d="M1.8438532767331686,6.555400365399972 L1.2056225548712398,3.3114224025101335 L2.0,2.0" fill="green" fill-opacity="0.6" stroke="black" stroke-width="1" />
<path d="M1.8438532767331686,93.44459963460002 L1.2056225548712398,96.68857759748987 L2.0,98.0" fill="black" fill-opacity="0.6" stroke="black" stroke-width="1" />
<path d="M1.8438532767331686,-93.44459963460002 L1.2056225548712398,-96.68857759748987 L2.0,-98.0" fill="pink" fill-opacity="0.6" stroke="black" stroke-width="1" />
<path d="M0.0,82.0 L-10.666671174964653,81.05708921700712 L0.0,76.0" fill="yellow" fill-opacity="0.6" stroke="black" stroke-width="1" />
<path d="M0.0,-18.0 L-10.666671174964653,-18.942910782992882 L0.0,-24.0" fill="brown" fill-opacity="0.6" stroke="black" stroke-width="1" />
<path d="M0.0,18.0 L-10.666671174964653,18.942910782992882 L0.0,24.0" fill="brown" fill-opacity="0.6" stroke="black" stroke-width="1" />
<path d="M0.0,-82.0 L-10.666671174964653,-81.05708921700712 L0.0,-76.0" fill="blue" fill-opacity="0.6" stroke="black" stroke-width="1" />
<path d="M0.0,73.0 L-12.256448310735562,72.56147103949141 L-8.0,50.0" fill="yellow" fill-opacity="0.6" stroke="black" stroke-width="1" />
<path d="M0.0,-27.0 L-12.256448310735562,-27.43852896050859 L-8.0,-50.0" fill="orange" fill-opacity="0.6" stroke="black" stroke-width="1" />
<path d="M0.0,27.0 L-12.256448310735562,27.43852896050859 L-8.0,50.0" fill="purple" fill-opacity="0.6" stroke="black" stroke-width="1" />
<path d="M0.0,-73.0 L-12.256448310735562,-72.56147103949141 L-8.0,-50.0" fill="purple" fill-opacity="0.6" stroke="black" stroke-width="1" />
<path d="M-8.0,50.0 L-12.951449344125642,53.40441923421342 L-17.17809646811672,51.74735902651699" fill="orange" fill-opacity="0.6" stroke="black" stroke-width="1" />
<path d="M-8.0,-50.0 L-12.951449344125642,-46.59558076578658 L-17.17809646811672,-48.25264097348301" fill="pink" fill-opacity="0.6" stroke="black" stroke-width="1" />
<path d="M-8.0,50.0 L-12.951449344125642,46.59558076578658 L-17.17809646811672,48.25264097348301" fill="yellow" fill-opacity="0.6" stroke="black" stroke-width="1" />
<path d="M-8.0,-50.0 L-12.951449344125642,-53.40441923421342 L-17.17809646811672,-51.74735902651699" fill="yellow" fill-opacity="0.6" stroke="black" stroke-width="1" />
<path d="M-12.951449344125642,53.40441923421342 L-17.17809646811672,51.74735902651699 L-25.835805747304118,50.42589329915392" fill="orange" fill-opacity="0.6" stroke="black" stroke-width="1" />
<path d="M-12.951449344125642,-46.59558076578658 L-17.17809646811672,-48.25264097348301 L-25.835805747304118,-49.57410670084608" fill="brown" fill-opacity="0.6" stroke="black" stroke-width="1" />
<path d="M-12.951449344125642,46.59558076578658 L-17.17809646811672,48.25264097348301 L-25.835805747304118,49.57410670084608" fill="purple" fill-opacity="0.6" stroke="black" stroke-width="1" />
<path d="M-12.951449344125642,-53.40441923421342 L-17.17809646811672,-51.74735902651699 L-25.835805747304118,-50.42589329915392" fill="blue" fill-opacity="0.6" stroke="black" stroke-width="1" />
<path d="M-17.17809646811672,51.74735902651699 L-25.835805747304118,50.42589329915392 L-29.0,50.0" fill="blue" fill-opacity="0.6" stroke="black" stroke-width="1" />
<path d="M-17.17809646811672,-48.25264097348301 L-25.835805747304118,-49.57410670084608 L-29.0,-50.0" fill="green" fill-opacity="0.6" stroke="black" stroke-width="1" />
<path d="M-17.17809646811672,48.25264097348301 L-25.835805747304118,49.57410670084608 L-29.0,50.0" fill="green" fill-opacity="0.6" stroke="black" stroke-width="1" />
<path d="M-17.17809646811672,-51.74735902651699 L-25.835805747304118,-50.42589329915392 L-29.0,-50.0" fill="green" fill-opacity="0.6" stroke="black" stroke-width="1" />
<path d="M-31.0,69.0 L-8.660049734915294,84.22854855927928 L-15.0,85.0" fill="yellow" fill-opacity="0.6" stroke="black" stroke-width="1" />
<path d="M-31.0,-31.0 L-8.660049734915294,-15.771451440720725 L-15.0,-15.0" fill="black" fill-opacity="0.6" stroke="black" stroke-width="1" />
<path d="M-31.0,31.0 L-8.660049734915294,15.771451440720725 L-15.0,15.0" fill="purple" fill-opacity="0.6" stroke="black" stroke-width="1" />
<path d="M-31.0,-69.0 L-8.660049734915294,-84.22854855927928 L-15.0,-85.0" fill="blue" fill-opacity="0.6" stroke="black" stroke-width="1" />
<path d="M-15.0,85.0 L-8.19708952423978,88.93686945357143 L-3.47233455936632,90.39153187857521" fill="blue" fill-opacity="0.6" stroke="black" stroke-width="1" />
<path d="M-15.0,-15.0 L-8.19708952423978,-11.063130546428562 L-3.47233455936632,-9.608468121424796" fill="brown" fill-opacity="0.6" stroke="black" stroke-width="1" />
<path d="M-15.0,15.0 L-8.19708952423978,11.063130546428567 L-3.47233455936632,9.608468121424792" fill="pink" fill-opacity="0.6" stroke="black" stroke-width="1" />
<path d="M-15.0,-85.0 L-8.19708952423978,-88.93686945357143 L-3.47233455936632,-90.39153187857521" fill="black" fill-opacity="0.6" stroke="black" stroke-width="1" />
<path d="M-8.19708952423978,88.93686945357143 L-3.47233455936632,90.39153187857521 L-3.269862549516557,92.43069363234594" fill="green" fill-opacity="0.6" stroke="black" stroke-width="1" />
<path d="M-8.19708952423978,-11.063130546428562 L-3.47233455936632,-9.608468121424796 L-3.269862549516557,-7.569306367654072" fill="brown" fill-opacity="0.6" stroke="black" stroke-width="1" />
<path d="M-8.19708952423978,11.063130546428567 L-3.47233455936632,9.608468121424792 L-3.269862549516557,7.569306367654065" fill="black" fill-opacity="0.6" stroke="black" stroke-width="1" />
<path d="M-8.19708952423978,-88.93686945357143 L-3.47233455936632,-90.39153187857521 L-3.269862549516557,-92.43069363234594" fill="blue" fill-opacity="0.6" stroke="black" stroke-width="1" />
<path d="M-3.47233455936632,90.39153187857521 L-3.269862549516557,92.43069363234594 L-2.610951263028195,92.6525434388989" fill="red" fill-opacity="0.6" stroke="black" stroke-width="1" />
<path d="M-3.47233455936632,-9.608468121424796 L-3.269862549516557,-7.569306367654072 L-2.610951263028195,-7.34745656110109" fill="purple" fill-opacity="0.6" stroke="black" stroke-width="1" />
<path d="M-3.47233455936632,9.608468121424792 L-3.269862549516557,7.569306367654065 L-2.610951263028195,7.347456561101097" fill="pink" fill-opacity="0.6" stroke="black" stroke-width="1" />
<path d="M-3.47233455936632,-90.39153187857521 L-3.269862549516557,-92.43069363234594 L-2.610951263028195,-92.6525434388989" fill="orange" fill-opacity="0.6" stroke="black" stroke-width="1" />
<path d="M-3.269862549516557,92.43069363234594 L-2.610951263028195,92.6525434388989 L-1.8438532767331686,93.44459963460002" fill="green" fill-opacity="0.6" stroke="black" stroke-width="1" />
<path d="M-3.269862549516557,-7.569306367654072 L-2.610951263028195,-7.34745656110109 L-1.8438532767331686,-6.555400365399972" fill="green" fill-opacity="0.6" stroke="black" stroke-width="1" />
<path d="M-3.269862549516557,7.569306367654065 L-2.610951263028195,7.347456561101097 L-1.8438532767331686,6.555400365399976" fill="brown" fill-opacity="0.6" stroke="black" stroke-width="1" />
<path d="M-3.269862549516557,-92.43069363234594 L-2.610951263028195,-92.6525434388989 L-1.8438532767331686,-93.44459963460002" fill="green" fill-opacity="0.6" stroke="black" stroke-width="1" />
<path d="M-2.610951263028195,92.6525434388989 L-1.8438532767331686,93.44459963460002 L-1.2056225548712398,96.68857759748987" fill="green" fill-opacity="0.6" stroke="black" stroke-width="1" />
<path d="M-2.610951263028195,-7.34745656110109 L-1.8438532767331686,-6.555400365399972 L-1.2056225548712398,-3.3114224025101335" fill="brown" fill-opacity="0.6" stroke="black" stroke-width="1" />
<path d="M-2.610951263028195,7.347456561101097 L-1.8438532767331686,6.555400365399976 L-1.2056225548712398,3.311422402510132" fill="blue" fill-opacity="0.6" stroke="black" stroke-width="1" />
<path d="M-2.610951263028195,-92.6525434388989 L-1.8438532767331686,-93.44459963460002 L-1.2056225548712398,-96.68857759748987" fill="yellow" fill-opacity="0.6" stroke="black" stroke-width="1" />
<path d="M-1.8438532767331686,93.44459963460002 L-1.2056225548712398,96.68857759748987 L-2.0,98.0" fill="yellow" fill-opacity="0.6" stroke="black" stroke-width="1" />
<path d="M-1.8438532767331686,-6.555400365399972 L-1.2056225548712398,-3.3114224025101335 L-2.0,-2.0" fill="purple" fill-opacity="0.6" stroke="black" stroke-width="1" />
<path d="M-1.8438532767331686,6.555400365399976 L-1.2056225548712398,3.311422402510132 L-2.0,2.0" fill="orange" fill-opacity="0.6" stroke="black" stroke-width="1" />
<path d="M-1.8438532767331686,-93.44459963460002 L-1.2056225548712398,-96.68857759748987 L-2.0,-98.0" fill="yellow" fill-opacity="0.6" stroke="black" stroke-width="1" />
<path d="M-82.0,-0.0 L-81.05708921700712,-10.666671174964653 L-76.0,-0.0" fill="pink" fill-opacity="0.6" stroke="black" stroke-width="1" />
<path d="M-82.0,-0.0 L-81.05708921700712,10.666671174964653 L-76.0,-0.0" fill="blue" fill-opacity="0.6" stroke="black" stroke-width="1" />
<path d="M-73.0,-0.0 L-72.56147103949141,-12.256448310735562 L-50.0,-8.0" fill="orange" fill-opacity="0.6" stroke="black" stroke-width="1" />
<path d="M-73.0,-0.0 L-72.56147103949141,12.256448310735562 L-50.0,8.0" fill="red" fill-opacity="0.6" stroke="black" stroke-width="1" />
<path d="M-50.0,-8.0 L-53.40441923421342,-12.951449344125642 L-51.74735902651699,-17.17809646811672" fill="black" fill-opacity="0.6" stroke="black" stroke-width="1" />
<path d="M-50.0,8.0 L-53.40441923421342,12.951449344125642 L-51.74735902651699,17.17809646811672" fill="purple" fill-opacity="0.6" stroke="black" stroke-width="1" />
<path d="M-53.40441923421342,-12.951449344125642 L-51.74735902651699,-17.17809646811672 L-50.42589329915392,-25.835805747304118" fill="red" fill-opacity="0.6" stroke="black" stroke-width="1" />
<path d="M-53.40441923421342,12.951449344125642 L-51.74735902651699,17.17809646811672 L-50.42589329915392,25.835805747304118" fill="purple" fill-opacity="0.6" stroke="black" stroke-width="1" />
<path d="M-51.74735902651699,-17.17809646811672 L-50.42589329915392,-25.835805747304118 L-50.0,-29.0" fill="blue" fill-opacity="0.6" stroke="black" stroke-width="1" />
<path d="M-51.74735902651699,17.17809646811672 L-50.42589329915392,25.835805747304118 L-50.0,29.0" fill="purple" fill-opacity="0.6" stroke="black" stroke-width="1" />
<path d="M-50.0,-50.0 L-69.0,-31.0 L-84.22854855927928,-8.660049734915294" fill="orange" fill-opacity="0.6" stroke="black" stroke-width="1" />
<path d="M-50.0,50.0 L-69.0,31.0 L-84.22854855927928,8.660049734915294" fill="red" fill-opacity="0.6" stroke="black" stroke-width="1" />
<path d="M-69.0,-31.0 L-84.22854855927928,-8.660049734915294 L-85.0,-15.0" fill="black" fill-opacity="0.6" stroke="black" stroke-width="1" />
<path d="M-69.0,31.0 L-84.22854855927928,8.660049734915294 L-85.0,15.0" fill="red" fill-opacity="0.6" stroke="black" stroke-width="1" />
<path d="M-84.22854855927928,-8.660049734915294 L-85.0,-15.0 L-88.93686945357143,-8.19708952423978" fill="black" fill-opacity="0.6" stroke="black" stroke-width="1" />
<path d="M-84.22854855927928,8.660049734915294 L-85.0,15.0 L-88.93686945357143,8.19708952423978" fill="yellow" fill-opacity="0.6" stroke="black" stroke-width="1" />
<path d="M-85.0,-15.0 L-88.93686945357143,-8.19708952423978 L-90.39153187857521,-3.47233455936632" fill="green" fill-opacity="0.6" stroke="black" stroke-width="1" />
<path d="M-85.0,15.0 L-88.93686945357143,8.19708952423978 L-90.39153187857521,3.47233455936632" fill="yellow" fill-opacity="0.6" stroke="black" stroke-width="1" />
<path d="M-88.93686945357143,-8.19708952423978 L-90.39153187857521,-3.47233455936632 L-92.43069363234594,-3.269862549516557" fill="green" fill-opacity="0.6" stroke="black" stroke-width="1" />
<path d="M-88.93686945357143,8.19708952423978 L-90.39153187857521,3.47233455936632 L-92.43069363234594,3.269862549516557" fill="orange" fill-opacity="0.6" stroke="black" stroke-width="1" />
<path d="M-90.39153187857521,-3.47233455936632 L-92.43069363234594,-3.269862549516557 L-92.6525434388989,-2.610951263028195" fill="purple" fill-opacity="0.6" stroke="black" stroke-width="1" />
<path d="M-90.39153187857521,3.47233455936632 L-92.43069363234594,3.269862549516557 L-92.6525434388989,2.610951263028195" fill="blue" fill-opacity="0.6" stroke="black" stroke-width="1" />
<path d="M-92.43069363234594,-3.269862549516557 L-92.6525434388989,-2.610951263028195 L-93.44459963460002,-1.8438532767331686" fill="blue" fill-opacity="0.6" stroke="black" stroke-width="1" />
<path d="M-92.43069363234594,3.269862549516557 L-92.6525434388989,2.610951263028195 L-93.44459963460002,1.8438532767331686" fill="brown" fill-opacity="0.6" stroke="black" stroke-width="1" />
<path d="M-92.6525434388989,-2.610951263028195 L-93.44459963460002,-1.8438532767331686 L-96.68857759748987,-1.2056225548712398" fill="blue" fill-opacity="0.6" stroke="black" stroke-width="1" />
<path d="M-92.6525434388989,2.610951263028195 L-93.44459963460002,1.8438532767331686 L-96.68857759748987,1.2056225548712398" fill="brown" fill-opacity="0.6" stroke="black" stroke-width="1" />
<path d="M-93.44459963460002,-1.8438532767331686 L-96.68857759748987,-1.2056225548712398 L-98.0,-2.0" fill="black" fill-opacity="0.6" stroke="black" stroke-width="1" />
<path d="M-93.44459963460002,1.8438532767331686 L-96.68857759748987,1.2056225548712398 L-98.0,2.0" fill="blue" fill-opacity="0.6" stroke="black" stroke-width="1" />
<path d="M-96.68857759748987,-1.2056225548712398 L-98.0,-2.0 L-100.0,-0.0" fill="brown" fill-opacity="0.6" stroke="black" stroke-width="1" />
<path d="M-96.68857759748987,1.2056225548712398 L-98.0,2.0 L-100.0,-0.0" fill="green" fill-opacity="0.6" stroke="black" stroke-width="1" />
</svg>