<?xml version="1.0" encoding="UTF-8"?>
<svg xmlns="http://www.w3.org/2000/svg" xmlns:xlink="http://www.w3.org/1999/xlink"
     width="250" height="250" viewBox="-125.0 -125.0 250 250">
<defs>
</defs>
<path d="M12.0,88.0 L10.0,90.0 L2.2500498381601424,90.46847392788536" fill-opacity="0" stroke="black" stroke-width="1" />
<path d="M12.0,-88.0 L10.0,-90.0 L2.2500498381601424,-90.46847392788536" fill-opacity="0" stroke="black" stroke-width="1" />
<path d="M10.0,-0.0 L12.61477271215593,-2.462305373884783 L14.132290404124992,-4.635544598166875" fill-opacity="0" stroke="black" stroke-width="1" />
<path d="M10.0,-0.0 L12.61477271215593,2.462305373884783 L14.132290404124992,4.635544598166875" fill-opacity="0" stroke="black" stroke-width="1" />
<path d="M12.61477271215593,-2.462305373884783 L14.132290404124992,-4.635544598166875 L14.946569610413064,-6.23616432382002" fill-opacity="0" stroke="black" stroke-width="1" />
<path d="M12.61477271215593,2.462305373884783 L14.132290404124992,4.635544598166875 L14.946569610413064,6.23616432382002" fill-opacity="0" stroke="black" stroke-width="1" />
<path d="M14.132290404124992,-4.635544598166875 L14.946569610413064,-6.23616432382002 L24.0,-0.0" fill-opacity="0" stroke="black" stroke-width="1" />
<path d="M14.132290404124992,4.635544598166875 L14.946569610413064,6.23616432382002 L24.0,-0.0" fill-opacity="0" stroke="black" stroke-width="1" />
<path d="M28.0,72.0 L24.0,76.0 L20.0,80.0" fill-opacity="0" stroke="black" stroke-width="1" />
<path d="M28.0,-72.0 L24.0,-76.0 L20.0,-80.0" fill-opacity="0" stroke="black" stroke-width="1" />
<path d="M24.0,-0.0 L28.208172966588,-13.815417151984736 L29.0,-0.0" fill-opacity="0" stroke="black" stroke-width="1" />
<path d="M24.0,-0.0 L28.208172966588,13.815417151984736 L29.0,-0.0" fill-opacity="0" stroke="black" stroke-width="1" />
<path d="M50.0,-15.0 L36.314940321863965,-16.59945274685983 L50.0,-17.0" fill-opacity="0" stroke="black" stroke-width="1" />
<path d="M50.0,15.0 L36.314940321863965,16.59945274685983 L50.0,17.0" fill-opacity="0" stroke="black" stroke-width="1" />
<path d="M50.0,-17.0 L40.433447847351005,-21.528012418406004 L50.0,-23.0" fill-opacity="0" stroke="black" stroke-width="1" />
<path d="M50.0,17.0 L40.433447847351005,21.528012418406004 L50.0,23.0" fill-opacity="0" stroke="black" stroke-width="1" />
<path d="M50.0,-23.0 L46.16348283741714,-27.969027118178 L47.99649439989901,-31.80862765302116" fill-opacity="0" stroke="black" stroke-width="1" />
<path d="M50.0,23.0 L46.16348283741714,27.969027118178 L47.99649439989901,31.80862765302116" fill-opacity="0" stroke="black" stroke-width="1" />
<path d="M46.16348283741714,-27.969027118178 L47.99649439989901,-31.80862765302116 L48.78328184010992,-33.719141750923704" fill-opacity="0" stroke="black" stroke-width="1" />
<path d="M46.16348283741714,27.969027118178 L47.99649439989901,31.80862765302116 L48.78328184010992,33.719141750923704" fill-opacity="0" stroke="black" stroke-width="1" />
<path d="M47.99649439989901,-31.80862765302116 L48.78328184010992,-33.719141750923704 L49.62543659125454,-37.454531876761706" fill-opacity="0" stroke="black" stroke-width="1" />
<path d="M47.99649439989901,31.80862765302116 L48.78328184010992,33.719141750923704 L49.62543659125454,37.454531876761706" fill-opacity="0" stroke="black" stroke-width="1" />
<path d="M48.78328184010992,-33.719141750923704 L49.62543659125454,-37.454531876761706 L50.0,-48.0" fill-opacity="0" stroke="black" stroke-width="1" />
<path d="M48.78328184010992,33.719141750923704 L49.62543659125454,37.454531876761706 L50.0,48.0" fill-opacity="0" stroke="black" stroke-width="1" />
<path d="M50.0,50.0 L43.0,57.0 L31.0,69.0" fill-opacity="0" stroke="black" stroke-width="1" />
<path d="M50.0,-50.0 L43.0,-57.0 L31.0,-69.0" fill-opacity="0" stroke="black" stroke-width="1" />
<path d="M43.0,57.0 L31.0,69.0 L30.0,70.0" fill-opacity="0" stroke="black" stroke-width="1" />
<path d="M43.0,-57.0 L31.0,-69.0 L30.0,-70.0" fill-opacity="0" stroke="black" stroke-width="1" />
<path d="M31.0,69.0 L30.0,70.0 L28.0,72.0" fill-opacity="0" stroke="black" stroke-width="1" />
<path d="M31.0,-69.0 L30.0,-70.0 L28.0,-72.0" fill-opacity="0" stroke="black" stroke-width="1" />
<path d="M30.0,70.0 L28.0,72.0 L24.0,76.0" fill-opacity="0" stroke="black" stroke-width="1" />
<path d="M30.0,-70.0 L28.0,-72.0 L24.0,-76.0" fill-opacity="0" stroke="black" stroke-width="1" />
<path d="M24.0,76.0 L20.0,80.0 L13.181196206552181,81.40586488835439" fill-opacity="0" stroke="black" stroke-width="1" />
<path d="M24.0,-76.0 L20.0,-80.0 L13.181196206552181,-81.40586488835439" fill-opacity="0" stroke="black" stroke-width="1" />
<path d="M20.0,-20.0 L18.594135111645613,-13.181196206552181 L15.228951001571795,-8.06001370882058" fill-opacity="0" stroke="black" stroke-width="1" />
<path d="M20.0,20.0 L18.594135111645613,13.181196206552181 L15.228951001571795,8.06001370882058" fill-opacity="0" stroke="black" stroke-width="1" />
<path d="M18.594135111645613,-13.181196206552181 L15.228951001571795,-8.06001370882058 L12.0,-12.0" fill-opacity="0" stroke="black" stroke-width="1" />
<path d="M18.594135111645613,13.181196206552181 L15.228951001571795,8.06001370882058 L12.0,12.0" fill-opacity="0" stroke="black" stroke-width="1" />
<path d="M8.06001370882058,84.7710489984282 L12.0,88.0 L10.0,90.0" fill-opacity="0" stroke="black" stroke-width="1" />
<path d="M8.06001370882058,-84.7710489984282 L12.0,-88.0 L10.0,-90.0" fill-opacity="0" stroke="black" stroke-width="1" />
<path d="M10.0,-10.0 L9.531526072114643,-2.2500498381601424 L9.076225384971858,-1.6652695070744432" fill-opacity="0" stroke="black" stroke-width="1" />
<path d="M10.0,10.0 L9.531526072114643,2.2500498381601424 L9.076225384971858,1.6652695070744432" fill-opacity="0" stroke="black" stroke-width="1" />
<path d="M9.531526072114643,-2.2500498381601424 L9.076225384971858,-1.6652695070744432 L6.002516787670304,-1.3071192649862202" fill-opacity="0" stroke="black" stroke-width="1" />
<path d="M9.531526072114643,2.2500498381601424 L9.076225384971858,1.6652695070744432 L6.002516787670304,1.3071192649862202" fill-opacity="0" stroke="black" stroke-width="1" />
<path d="M9.076225384971858,-1.6652695070744432 L6.002516787670304,-1.3071192649862202 L5.6833131542757265,-1.2108453044344851" fill-opacity="0" stroke="black" stroke-width="1" />
<path d="M9.076225384971858,1.6652695070744432 L6.002516787670304,1.3071192649862202 L5.6833131542757265,1.2108453044344851" fill-opacity="0" stroke="black" stroke-width="1" />
<path d="M6.002516787670304,-1.3071192649862202 L5.6833131542757265,-1.2108453044344851 L4.4675855681867045,-0.9885973374081036" fill-opacity="0" stroke="black" stroke-width="1" />
<path d="M6.002516787670304,1.3071192649862202 L5.6833131542757265,1.2108453044344851 L4.4675855681867045,0.9885973374081036" fill-opacity="0" stroke="black" stroke-width="1" />
<path d="M5.6833131542757265,-1.2108453044344851 L4.4675855681867045,-0.9885973374081036 L3.812695842339692,-0.8609719845030839" fill-opacity="0" stroke="black" stroke-width="1" />
<path d="M5.6833131542757265,1.2108453044344851 L4.4675855681867045,0.9885973374081036 L3.812695842339692,0.8609719845030839" fill-opacity="0" stroke="black" stroke-width="1" />
<path d="M4.4675855681867045,-0.9885973374081036 L3.812695842339692,-0.8609719845030839 L2.827243363258108,-0.2685082879943679" fill-opacity="0" stroke="black" stroke-width="1" />
<path d="M4.4675855681867045,0.9885973374081036 L3.812695842339692,0.8609719845030839 L2.827243363258108,0.2685082879943679" fill-opacity="0" stroke="black" stroke-width="1" />
<path d="M3.812695842339692,-0.8609719845030839 L2.827243363258108,-0.2685082879943679 L1.1632997935367262,-0.0029292075340303647" fill-opacity="0" stroke="black" stroke-width="1" />
<path d="M3.812695842339692,0.8609719845030839 L2.827243363258108,0.2685082879943679 L1.1632997935367262,0.0029292075340303647" fill-opacity="0" stroke="black" stroke-width="1" />
<path d="M2.827243363258108,-0.2685082879943679 L1.1632997935367262,-0.0029292075340303647 L0.0,-0.0" fill-opacity="0" stroke="black" stroke-width="1" />
<path d="M2.827243363258108,0.2685082879943679 L1.1632997935367262,0.0029292075340303647 L0.0,-0.0" fill-opacity="0" stroke="black" stroke-width="1" />
<path d="M-12.0,88.0 L-10.0,90.0 L-2.2500498381601424,90.46847392788536" fill-opacity="0" stroke="black" stroke-width="1" />
<path d="M-12.0,-88.0 L-10.0,-90.0 L-2.2500498381601424,-90.46847392788536" fill-opacity="0" stroke="black" stroke-width="1" />
<path d="M-10.0,-0.0 L-12.61477271215593,-2.462305373884783 L-14.132290404124992,-4.635544598166875" fill-opacity="0" stroke="black" stroke-width="1" />
<path d="M-10.0,-0.0 L-12.61477271215593,2.462305373884783 L-14.132290404124992,4.635544598166875" fill-opacity="0" stroke="black" stroke-width="1" />
<path d="M-12.61477271215593,-2.462305373884783 L-14.132290404124992,-4.635544598166875 L-14.946569610413064,-6.23616432382002" fill-opacity="0" stroke="black" stroke-width="1" />
<path d="M-12.61477271215593,2.462305373884783 L-14.132290404124992,4.635544598166875 L-14.946569610413064,6.23616432382002" fill-opacity="0" stroke="black" stroke-width="1" />
<path d="M-14.132290404124992,-4.635544598166875 L-14.946569610413064,-6.23616432382002 L-24.0,-0.0" fill-opacity="0" stroke="black" stroke-width="1" />
<path d="M-14.132290404124992,4.635544598166875 L-14.946569610413064,6.23616432382002 L-24.0,-0.0" fill-opacity="0" stroke="black" stroke-width="1" />
<path d="M-28.0,72.0 L-24.0,76.0 L-20.0,80.0" fill-opacity="0" stroke="black" stroke-width="1" />
<path d="M-28.0,-72.0 L-24.0,-76.0 L-20.0,-80.0" fill-opacity="0" stroke="black" stroke-width="1" />
<path d="M-24.0,-0.0 L-28.208172966588,-13.815417151984736 L-29.0,-0.0" fill-opacity="0" stroke="black" stroke-width="1" />
<path d="M-24.0,-0.0 L-28.208172966588,13.815417151984736 L-29.0,-0.0" fill-opacity="0" stroke="black" stroke-width="1" />
<path d="M-50.0,-15.0 L-36.314940321863965,-16.59945274685983 L-50.0,-17.0" fill-opacity="0" stroke="black" stroke-width="1" />
<path d="M-50.0,15.0 L-36.314940321863965,16.59945274685983 L-50.0,17.0" fill-opacity="0" stroke="black" stroke-width="1" />
<path d="M-50.0,-17.0 L-40.433447847351005,-21.528012418406004 L-50.0,-23.0" fill-opacity="0" stroke="black" stroke-width="1" />
<path d="M-50.0,17.0 L-40.433447847351005,21.528012418406004 L-50.0,23.0" fill-opacity="0" stroke="black" stroke-width="1" />
<path d="M-50.0,-23.0 L-46.16348283741714,-27.969027118178 L-47.99649439989901,-31.80862765302116" fill-opacity="0" stroke="black" stroke-width="1" />
<path d="M-50.0,23.0 L-46.16348283741714,27.969027118178 L-47.99649439989901,31.80862765302116" fill-opacity="0" stroke="black" stroke-width="1" />
<path d="M-46.16348283741714,-27.969027118178 L-47.99649439989901,-31.80862765302116 L-48.78328184010992,-33.719141750923704" fill-opacity="0" stroke="black" stroke-width="1" />
<path d="M-46.16348283741714,27.969027118178 L-47.99649439989901,31.80862765302116 L-48.78328184010992,33.719141750923704" fill-opacity="0" stroke="black" stroke-width="1" />
<path d="M-47.99649439989901,-31.80862765302116 L-48.78328184010992,-33.719141750923704 L-49.62543659125454,-37.454531876761706" fill-opacity="0" stroke="black" stroke-width="1" />
<path d="M-47.99649439989901,31.80862765302116 L-48.78328184010992,33.719141750923704 L-49.62543659125454,37.454531876761706" fill-opacity="0" stroke="black" stroke-width="1" />
<path d="M-48.78328184010992,-33.719141750923704 L-49.62543659125454,-37.454531876761706 L-50.0,-48.0" fill-opacity="0" stroke="black" stroke-width="1" />
<path d="M-48.78328184010992,33.719141750923704 L-49.62543659125454,37.454531876761706 L-50.0,48.0" fill-opacity="0" stroke="black" stroke-width="1" />
<path d="M-50.0,50.0 L-43.0,57.0 L-31.0,69.0" fill-opacity="0" stroke="black" stroke-width="1" />
<path d="M-50.0,-50.0 L-43.0,-57.0 L-31.0,-69.0" fill-opacity="0" stroke="black" stroke-width="1" />
<path d="M-43.0,57.0 L-31.0,69.0 L-30.0,70.0" fill-opacity="0" stroke="black" stroke-width="1" />
<path d="M-43.0,-57.0 L-31.0,-69.0 L-30.0,-70.0" fill-opacity="0" stroke="black" stroke-width="1" />
<path d="M-31.0,69.0 L-30.0,70.0 L-28.0,72.0" fill-opacity="0" stroke="black" stroke-width="1" />
<path d="M-31.0,-69.0 L-30.0,-70.0 L-28.0,-72.0" fill-opacity="0" stroke="black" stroke-width="1" />
<path d="M-30.0,70.0 L-28.0,72.0 L-24.0,76.0" fill-opacity="0" stroke="black" stroke-width="1" />
<path d="M-30.0,-70.0 L-28.0,-72.0 L-24.0,-76.0" fill-opacity="0" stroke="black" stroke-width="1" />
<path d="M-24.0,76.0 L-20.0,80.0 L-13.181196206552181,81.40586488835439" fill-opacity="0" stroke="black" stroke-width="1" />
<path d="M-24.0,-76.0 L-20.0,-80.0 L-13.181196206552181,-81.40586488835439" fill-opacity="0" stroke="black" stroke-width="1" />
<path d="M-20.0,-20.0 L-18.594135111645613,-13.181196206552181 L-15.228951001571795,-8.06001370882058" fill-opacity="0" stroke="black" stroke-width="1" />
<path d="M-20.0,20.0 L-18.594135111645613,13.181196206552181 L-15.228951001571795,8.06001370882058" fill-opacity="0" stroke="black" stroke-width="1" />
<path d="M-18.594135111645613,-13.181196206552181 L-15.228951001571795,-8.06001370882058 L-12.0,-12.0" fill-opacity="0" stroke="black" stroke-width="1" />
<path d="M-18.594135111645613,13.181196206552181 L-15.228951001571795,8.06001370882058 L-12.0,12.0" fill-opacity="0" stroke="black" stroke-width="1" />
<path d="M-8.06001370882058,84.7710489984282 L-12.0,88.0 L-10.0,90.0" fill-opacity="0" stroke="black" stroke-width="1" />
<path d="M-8.06001370882058,-84.7710489984282 L-12.0,-88.0 L-10.0,-90.0" fill-opacity="0" stroke="black" stroke-width="1" />
<path d="M-10.0,-10.0 L-9.531526072114643,-2.2500498381601424 L-9.076225384971858,-1.6652695070744432" fill-opacity="0" stroke="black" stroke-width="1" />
<path d="M-10.0,10.0 L-9.531526072114643,2.2500498381601424 L-9.076225384971858,1.6652695070744432" fill-opacity="0" stroke="black" stroke-width="1" />
<path d="M-9.531526072114643,-2.2500498381601424 L-9.076225384971858,-1.6652695070744432 L-6.002516787670304,-1.3071192649862202" fill-opacity="0" stroke="black" stroke-width="1" />
<path d="M-9.531526072114643,2.2500498381601424 L-9.076225384971858,1.6652695070744432 L-6.002516787670304,1.3071192649862202" fill-opacity="0" stroke="black" stroke-width="1" />
<path d="M-9.076225384971858,-1.6652695070744432 L-6.002516787670304,-1.3071192649862202 L-5.6833131542757265,-1.2108453044344851" fill-opacity="0" stroke="black" stroke-width="1" />
<path d="M-9.076225384971858,1.6652695070744432 L-6.002516787670304,1.3071192649862202 L-5.6833131542757265,1.2108453044344851" fill-opacity="0" stroke="black" stroke-width="1" />
<path d="M-6.002516787670304,-1.3071192649862202 L-5.6833131542757265,-1.2108453044344851 L-4.4675855681867045,-0.9885973374081036" fill-opacity="0" stroke="black" stroke-width="1" />
<path d="M-6.002516787670304,1.3071192649862202 L-5.6833131542757265,1.2108453044344851 L-4.4675855681867045,0.9885973374081036" fill-opacity="0" stroke="black" stroke-width="1" />
<path d="M-5.6833131542757265,-1.2108453044344851 L-4.4675855681867045,-0.9885973374081036 L-3.812695842339692,-0.8609719845030839" fill-opacity="0" stroke="black" stroke-width="1" />
<path d="M-5.6833131542757265,1.2108453044344851 L-4.4675855681867045,0.9885973374081036 L-3.812695842339692,0.8609719845030839" fill-opacity="0" stroke="black" stroke-width="1" />
<path d="M-4.4675855681867045,-0.9885973374081036 L-3.812695842339692,-0.8609719845030839 L-2.827243363258108,-0.2685082879943679" fill-opacity="0" stroke="black" stroke-width="1" />
<path d="M-4.4675855681867045,0.9885973374081036 L-3.812695842339692,0.8609719845030839 L-2.827243363258108,0.2685082879943679" fill-opacity="0" stroke="black" stroke-width="1" />
<path d="M-3.812695842339692,-0.8609719845030839 L-2.827243363258108,-0.2685082879943679 L-1.1632997935367262,-0.0029292075340303647" fill-opacity="0" stroke="black" stroke-width="1" />
<path d="M-3.812695842339692,0.8609719845030839 L-2.827243363258108,0.2685082879943679 L-1.1632997935367262,0.0029292075340303647" fill-opacity="0" stroke="black" stroke-width="1" />
<path d="M-2.827243363258108,-0.2685082879943679 L-1.1632997935367262,-0.0029292075340303647 L0.0,-0.0" fill-opacity="0" stroke="black" stroke-width="1" />
<path d="M-2.827243363258108,0.2685082879943679 L-1.1632997935367262,0.0029292075340303647 L0.0,-0.0" fill-opacity="0" stroke="black" stroke-width="1" />
<path d="M88.0,12.0 L90.0,10.0 L90.46847392788536,2.2500498381601424" fill-opacity="0" stroke="black" stroke-width="1" />
<path d="M88.0,-12.0 L90.0,-10.0 L90.46847392788536,-2.2500498381601424" fill-opacity="0" stroke="black" stroke-width="1" />
<path d="M90.0,-0.0 L87.38522728784407,2.462305373884783 L85.867709595875,4.635544598166875" fill-opacity="0" stroke="black" stroke-width="1" />
<path d="M90.0,-0.0 L87.38522728784407,-2.462305373884783 L85.867709595875,-4.635544598166875" fill-opacity="0" stroke="black" stroke-width="1" />
<path d="M87.38522728784407,2.462305373884783 L85.867709595875,4.635544598166875 L85.05343038958694,6.23616432382002" fill-opacity="0" stroke="black" stroke-width="1" />
<path d="M87.38522728784407,-2.462305373884783 L85.867709595875,-4.635544598166875 L85.05343038958694,-6.23616432382002" fill-opacity="0" stroke="black" stroke-width="1" />
<path d="M85.867709595875,4.635544598166875 L85.05343038958694,6.23616432382002 L76.0,-0.0" fill-opacity="0" stroke="black" stroke-width="1" />
<path d="M85.867709595875,-4.635544598166875 L85.05343038958694,-6.23616432382002 L76.0,-0.0" fill-opacity="0" stroke="black" stroke-width="1" />
<path d="M72.0,28.0 L76.0,24.0 L80.0,20.0" fill-opacity="0" stroke="black" stroke-width="1" />
<path d="M72.0,-28.0 L76.0,-24.0 L80.0,-20.0" fill-opacity="0" stroke="black" stroke-width="1" />
<path d="M76.0,-0.0 L71.791827033412,13.815417151984736 L71.0,-0.0" fill-opacity="0" stroke="black" stroke-width="1" />
<path d="M76.0,-0.0 L71.791827033412,-13.815417151984736 L71.0,-0.0" fill-opacity="0" stroke="black" stroke-width="1" />
<path d="M50.0,15.0 L63.685059678136035,16.59945274685983 L50.0,17.0" fill-opacity="0" stroke="black" stroke-width="1" />
<path d="M50.0,-15.0 L63.685059678136035,-16.59945274685983 L50.0,-17.0" fill-opacity="0" stroke="black" stroke-width="1" />
<path d="M50.0,17.0 L59.566552152648995,21.528012418406004 L50.0,23.0" fill-opacity="0" stroke="black" stroke-width="1" />
<path d="M50.0,-17.0 L59.566552152648995,-21.528012418406004 L50.0,-23.0" fill-opacity="0" stroke="black" stroke-width="1" />
<path d="M50.0,23.0 L53.83651716258286,27.969027118178 L52.00350560010099,31.80862765302116" fill-opacity="0" stroke="black" stroke-width="1" />
<path d="M50.0,-23.0 L53.83651716258286,-27.969027118178 L52.00350560010099,-31.80862765302116" fill-opacity="0" stroke="black" stroke-width="1" />
<path d="M53.83651716258286,27.969027118178 L52.00350560010099,31.80862765302116 L51.21671815989008,33.719141750923704" fill-opacity="0" stroke="black" stroke-width="1" />
<path d="M53.83651716258286,-27.969027118178 L52.00350560010099,-31.80862765302116 L51.21671815989008,-33.719141750923704" fill-opacity="0" stroke="black" stroke-width="1" />
<path d="M52.00350560010099,31.80862765302116 L51.21671815989008,33.719141750923704 L50.37456340874546,37.454531876761706" fill-opacity="0" stroke="black" stroke-width="1" />
<path d="M52.00350560010099,-31.80862765302116 L51.21671815989008,-33.719141750923704 L50.37456340874546,-37.454531876761706" fill-opacity="0" stroke="black" stroke-width="1" />
<path d="M51.21671815989008,33.719141750923704 L50.37456340874546,37.454531876761706 L50.0,48.0" fill-opacity="0" stroke="black" stroke-width="1" />
<path d="M51.21671815989008,-33.719141750923704 L50.37456340874546,-37.454531876761706 L50.0,-48.0" fill-opacity="0" stroke="black" stroke-width="1" />
<path d="M50.0,50.0 L57.0,43.0 L69.0,31.0" fill-opacity="0" stroke="black" stroke-width="1" />
<path d="M50.0,-50.0 L57.0,-43.0 L69.0,-31.0" fill-opacity="0" stroke="black" stroke-width="1" />
<path d="M57.0,43.0 L69.0,31.0 L70.0,30.0" fill-opacity="0" stroke="black" stroke-width="1" />
<path d="M57.0,-43.0 L69.0,-31.0 L70.0,-30.0" fill-opacity="0" stroke="black" stroke-width="1" />
<path d="M69.0,31.0 L70.0,30.0 L72.0,28.0" fill-opacity="0" stroke="black" stroke-width="1" />
<path d="M69.0,-31.0 L70.0,-30.0 L72.0,-28.0" fill-opacity="0" stroke="black" stroke-width="1" />
<path d="M70.0,30.0 L72.0,28.0 L76.0,24.0" fill-opacity="0" stroke="black" stroke-width="1" />
<path d="M70.0,-30.0 L72.0,-28.0 L76.0,-24.0" fill-opacity="0" stroke="black" stroke-width="1" />
<path d="M76.0,24.0 L80.0,20.0 L81.40586488835439,13.181196206552181" fill-opacity="0" stroke="black" stroke-width="1" />
<path d="M76.0,-24.0 L80.0,-20.0 L81.40586488835439,-13.181196206552181" fill-opacity="0" stroke="black" stroke-width="1" />
<path d="M80.0,20.0 L81.40586488835439,13.181196206552181 L84.7710489984282,8.06001370882058" fill-opacity="0" stroke="black" stroke-width="1" />
<path d="M80.0,-20.0 L81.40586488835439,-13.181196206552181 L84.7710489984282,-8.06001370882058" fill-opacity="0" stroke="black" stroke-width="1" />
<path d="M81.40586488835439,13.181196206552181 L84.7710489984282,8.06001370882058 L88.0,12.0" fill-opacity="0" stroke="black" stroke-width="1" />
<path d="M81.40586488835439,-13.181196206552181 L84.7710489984282,-8.06001370882058 L88.0,-12.0" fill-opacity="0" stroke="black" stroke-width="1" />
<path d="M84.7710489984282,8.06001370882058 L88.0,12.0 L90.0,10.0" fill-opacity="0" stroke="black" stroke-width="1" />
<path d="M84.7710489984282,-8.06001370882058 L88.0,-12.0 L90.0,-10.0" fill-opacity="0" stroke="black" stroke-width="1" />
<path d="M90.0,10.0 L90.46847392788536,2.2500498381601424 L90.92377461502815,1.6652695070744432" fill-opacity="0" stroke="black" stroke-width="1" />
<path d="M90.0,-10.0 L90.46847392788536,-2.2500498381601424 L90.92377461502815,-1.6652695070744432" fill-opacity="0" stroke="black" stroke-width="1" />
<path d="M90.46847392788536,2.2500498381601424 L90.92377461502815,1.6652695070744432 L93.9974832123297,1.3071192649862202" fill-opacity="0" stroke="black" stroke-width="1" />
<path d="M90.46847392788536,-2.2500498381601424 L90.92377461502815,-1.6652695070744432 L93.9974832123297,-1.3071192649862202" fill-opacity="0" stroke="black" stroke-width="1" />
<path d="M90.92377461502815,1.6652695070744432 L93.9974832123297,1.3071192649862202 L94.31668684572428,1.2108453044344851" fill-opacity="0" stroke="black" stroke-width="1" />
<path d="M90.92377461502815,-1.6652695070744432 L93.9974832123297,-1.3071192649862202 L94.31668684572428,-1.2108453044344851" fill-opacity="0" stroke="black" stroke-width="1" />
<path d="M93.9974832123297,1.3071192649862202 L94.31668684572428,1.2108453044344851 L95.5324144318133,0.9885973374081036" fill-opacity="0" stroke="black" stroke-width="1" />
<path d="M93.9974832123297,-1.3071192649862202 L94.31668684572428,-1.2108453044344851 L95.5324144318133,-0.9885973374081036" fill-opacity="0" stroke="black" stroke-width="1" />
<path d="M94.31668684572428,1.2108453044344851 L95.5324144318133,0.9885973374081036 L96.18730415766031,0.8609719845030839" fill-opacity="0" stroke="black" stroke-width="1" />
<path d="M94.31668684572428,-1.2108453044344851 L95.5324144318133,-0.9885973374081036 L96.18730415766031,-0.8609719845030839" fill-opacity="0" stroke="black" stroke-width="1" />
<path d="M95.5324144318133,0.9885973374081036 L96.18730415766031,0.8609719845030839 L97.1727566367419,0.2685082879943679" fill-opacity="0" stroke="black" stroke-width="1" />
<path d="M95.5324144318133,-0.9885973374081036 L96.18730415766031,-0.8609719845030839 L97.1727566367419,-0.2685082879943679" fill-opacity="0" stroke="black" stroke-width="1" />
<path d="M96.18730415766031,0.8609719845030839 L97.1727566367419,0.2685082879943679 L98.83670020646328,0.0029292075340303647" fill-opacity="0" stroke="black" stroke-width="1" />
<path d="M96.18730415766031,-0.8609719845030839 L97.1727566367419,-0.2685082879943679 L98.83670020646328,-0.0029292075340303647" fill-opacity="0" stroke="black" stroke-width="1" />
<path d="M97.1727566367419,0.2685082879943679 L98.83670020646328,0.0029292075340303647 L100.0,-0.0" fill-opacity="0" stroke="black" stroke-width="1" />
<path d="M97.1727566367419,-0.2685082879943679 L98.83670020646328,-0.0029292075340303647 L100.0,-0.0" fill-opacity="0" stroke="black" stroke-width="1" />
<path d="M0.0,-10.0 L2.462305373884783,-12.61477271215593 L4.635544598166875,-14.132290404124992" fill-opacity="0" stroke="black" stroke-width="1" />
<path d="M0.0,10.0 L2.462305373884783,12.61477271215593 L4.635544598166875,14.132290404124992" fill-opacity="0" stroke="black" stroke-width="1" />
<path d="M0.0,90.0 L2.462305373884783,87.38522728784407 L4.635544598166875,85.867709595875" fill-opacity="0" stroke="black" stroke-width="1" />
<path d="M0.0,-90.0 L2.462305373884783,-87.38522728784407 L4.635544598166875,-85.867709595875" fill-opacity="0" stroke="black" stroke-width="1" />
<path d="M2.462305373884783,-12.61477271215593 L4.635544598166875,-14.132290404124992 L6.23616432382002,-14.946569610413064" fill-opacity="0" stroke="black" stroke-width="1" />
<path d="M2.462305373884783,12.61477271215593 L4.635544598166875,14.132290404124992 L6.23616432382002,14.946569610413064" fill-opacity="0" stroke="black" stroke-width="1" />
<path d="M2.462305373884783,87.38522728784407 L4.635544598166875,85.867709595875 L6.23616432382002,85.05343038958694" fill-opacity="0" stroke="black" stroke-width="1" />
<path d="M2.462305373884783,-87.38522728784407 L4.635544598166875,-85.867709595875 L6.23616432382002,-85.05343038958694" fill-opacity="0" stroke="black" stroke-width="1" />
<path d="M4.635544598166875,-14.132290404124992 L6.23616432382002,-14.946569610413064 L0.0,-24.0" fill-opacity="0" stroke="black" stroke-width="1" />
<path d="M4.635544598166875,14.132290404124992 L6.23616432382002,14.946569610413064 L0.0,24.0" fill-opacity="0" stroke="black" stroke-width="1" />
<path d="M4.635544598166875,85.867709595875 L6.23616432382002,85.05343038958694 L0.0,76.0" fill-opacity="0" stroke="black" stroke-width="1" />
<path d="M4.635544598166875,-85.867709595875 L6.23616432382002,-85.05343038958694 L0.0,-76.0" fill-opacity="0" stroke="black" stroke-width="1" />
<path d="M0.0,-24.0 L13.815417151984736,-28.208172966588 L0.0,-29.0" fill-opacity="0" stroke="black" stroke-width="1" />
<path d="M0.0,24.0 L13.815417151984736,28.208172966588 L0.0,29.0" fill-opacity="0" stroke="black" stroke-width="1" />
<path d="M0.0,76.0 L13.815417151984736,71.791827033412 L0.0,71.0" fill-opacity="0" stroke="black" stroke-width="1" />
<path d="M0.0,-76.0 L13.815417151984736,-71.791827033412 L0.0,-71.0" fill-opacity="0" stroke="black" stroke-width="1" />
<path d="M15.0,-50.0 L16.59945274685983,-36.314940321863965 L17.0,-50.0" fill-opacity="0" stroke="black" stroke-width="1" />
<path d="M15.0,50.0 L16.59945274685983,36.314940321863965 L17.0,50.0" fill-opacity="0" stroke="black" stroke-width="1" />
<path d="M15.0,50.0 L16.59945274685983,63.685059678136035 L17.0,50.0" fill-opacity="0" stroke="black" stroke-width="1" />
<path d="M15.0,-50.0 L16.59945274685983,-63.685059678136035 L17.0,-50.0" fill-opacity="0" stroke="black" stroke-width="1" />
<path d="M17.0,-50.0 L21.528012418406004,-40.433447847351005 L23.0,-50.0" fill-opacity="0" stroke="black" stroke-width="1" />
<path d="M17.0,50.0 L21.528012418406004,40.433447847351005 L23.0,50.0" fill-opacity="0" stroke="black" stroke-width="1" />
<path d="M17.0,50.0 L21.528012418406004,59.566552152648995 L23.0,50.0" fill-opacity="0" stroke="black" stroke-width="1" />
<path d="M17.0,-50.0 L21.528012418406004,-59.566552152648995 L23.0,-50.0" fill-opacity="0" stroke="black" stroke-width="1" />
<path d="M23.0,-50.0 L27.969027118178,-46.16348283741714 L31.80862765302116,-47.99649439989901" fill-opacity="0" stroke="black" stroke-width="1" />
<path d="M23.0,50.0 L27.969027118178,46.16348283741714 L31.80862765302116,47.99649439989901" fill-opacity="0" stroke="black" stroke-width="1" />
<path d="M23.0,50.0 L27.969027118178,53.83651716258286 L31.80862765302116,52.00350560010099" fill-opacity="0" stroke="black" stroke-width="1" />
<path d="M23.0,-50.0 L27.969027118178,-53.83651716258286 L31.80862765302116,-52.00350560010099" fill-opacity="0" stroke="black" stroke-width="1" />
<path d="M27.969027118178,-46.16348283741714 L31.80862765302116,-47.99649439989901 L33.719141750923704,-48.78328184010992" fill-opacity="0" stroke="black" stroke-width="1" />
<path d="M27.969027118178,46.16348283741714 L31.80862765302116,47.99649439989901 L33.719141750923704,48.78328184010992" fill-opacity="0" stroke="black" stroke-width="1" />
<path d="M27.969027118178,53.83651716258286 L31.80862765302116,52.00350560010099 L33.719141750923704,51.21671815989008" fill-opacity="0" stroke="black" stroke-width="1" />
<path d="M27.969027118178,-53.83651716258286 L31.80862765302116,-52.00350560010099 L33.719141750923704,-51.21671815989008" fill-opacity="0" stroke="black" stroke-width="1" />
<path d="M31.80862765302116,-47.99649439989901 L33.719141750923704,-48.78328184010992 L37.454531876761706,-49.62543659125454" fill-opacity="0" stroke="black" stroke-width="1" />
<path d="M31.80862765302116,47.99649439989901 L33.719141750923704,48.78328184010992 L37.454531876761706,49.62543659125454" fill-opacity="0" stroke="black" stroke-width="1" />
<path d="M31.80862765302116,52.00350560010099 L33.719141750923704,51.21671815989008 L37.454531876761706,50.37456340874546" fill-opacity="0" stroke="black" stroke-width="1" />
<path d="M31.80862765302116,-52.00350560010099 L33.719141750923704,-51.21671815989008 L37.454531876761706,-50.37456340874546" fill-opacity="0" stroke="black" stroke-width="1" />
<path d="M33.719141750923704,-48.78328184010992 L37.454531876761706,-49.62543659125454 L48.0,-50.0" fill-opacity="0" stroke="black" stroke-width="1" />
<path d="M33.719141750923704,48.78328184010992 L37.454531876761706,49.62543659125454 L48.0,50.0" fill-opacity="0" stroke="black" stroke-width="1" />
<path d="M33.719141750923704,51.21671815989008 L37.454531876761706,50.37456340874546 L48.0,50.0" fill-opacity="0" stroke="black" stroke-width="1" />
<path d="M33.719141750923704,-51.21671815989008 L37.454531876761706,-50.37456340874546 L48.0,-50.0" fill-opacity="0" stroke="black" stroke-width="1" />
<path d="M20.0,-20.0 L13.181196206552181,-18.594135111645613 L8.06001370882058,-15.228951001571795" fill-opacity="0" stroke="black" stroke-width="1" />
<path d="M20.0,20.0 L13.181196206552181,18.594135111645613 L8.06001370882058,15.228951001571795" fill-opacity="0" stroke="black" stroke-width="1" />
<path d="M20.0,80.0 L13.181196206552181,81.40586488835439 L8.06001370882058,84.7710489984282" fill-opacity="0" stroke="black" stroke-width="1" />
<path d="M20.0,-80.0 L13.181196206552181,-81.40586488835439 L8.06001370882058,-84.7710489984282" fill-opacity="0" stroke="black" stroke-width="1" />
<path d="M13.181196206552181,-18.594135111645613 L8.06001370882058,-15.228951001571795 L12.0,-12.0" fill-opacity="0" stroke="black" stroke-width="1" />
<path d="M13.181196206552181,18.594135111645613 L8.06001370882058,15.228951001571795 L12.0,12.0" fill-opacity="0" stroke="black" stroke-width="1" />
<path d="M13.181196206552181,81.40586488835439 L8.06001370882058,84.7710489984282 L12.0,88.0" fill-opacity="0" stroke="black" stroke-width="1" />
<path d="M13.181196206552181,-81.40586488835439 L8.06001370882058,-84.7710489984282 L12.0,-88.0" fill-opacity="0" stroke="black" stroke-width="1" />
<path d="M10.0,-10.0 L2.2500498381601424,-9.531526072114643 L1.6652695070744432,-9.076225384971858" fill-opacity="0" stroke="black" stroke-width="1" />
<path d="M10.0,10.0 L2.2500498381601424,9.531526072114643 L1.6652695070744432,9.076225384971858" fill-opacity="0" stroke="black" stroke-width="1" />
<path d="M10.0,90.0 L2.2500498381601424,90.46847392788536 L1.6652695070744432,90.92377461502815" fill-opacity="0" stroke="black" stroke-width="1" />
<path d="M10.0,-90.0 L2.2500498381601424,-90.46847392788536 L1.6652695070744432,-90.92377461502815" fill-opacity="0" stroke="black" stroke-width="1" />
<path d="M2.2500498381601424,-9.531526072114643 L1.6652695070744432,-9.076225384971858 L1.3071192649862202,-6.002516787670304" fill-opacity="0" stroke="black" stroke-width="1" />
<path d="M2.2500498381601424,9.531526072114643 L1.6652695070744432,9.076225384971858 L1.3071192649862202,6.002516787670304" fill-opacity="0" stroke="black" stroke-width="1" />
<path d="M2.2500498381601424,90.46847392788536 L1.6652695070744432,90.92377461502815 L1.3071192649862202,93.9974832123297" fill-opacity="0" stroke="black" stroke-width="1" />
<path d="M2.2500498381601424,-90.46847392788536 L1.6652695070744432,-90.92377461502815 L1.3071192649862202,-93.9974832123297" fill-opacity="0" stroke="black" stroke-width="1" />
<path d="M1.6652695070744432,-9.076225384971858 L1.3071192649862202,-6.002516787670304 L1.2108453044344851,-5.6833131542757265" fill-opacity="0" stroke="black" stroke-width="1" />
<path d="M1.6652695070744432,9.076225384971858 L1.3071192649862202,6.002516787670304 L1.2108453044344851,5.6833131542757265" fill-opacity="0" stroke="black" stroke-width="1" />
<path d="M1.6652695070744432,90.92377461502815 L1.3071192649862202,93.9974832123297 L1.2108453044344851,94.31668684572428" fill-opacity="0" stroke="black" stroke-width="1" />
<path d="M1.6652695070744432,-90.92377461502815 L1.3071192649862202,-93.9974832123297 L1.2108453044344851,-94.31668684572428" fill-opacity="0" stroke="black" stroke-width="1" />
<path d="M1.3071192649862202,-6.002516787670304 L1.2108453044344851,-5.6833131542757265 L0.9885973374081036,-4.4675855681867045" fill-opacity="0" stroke="black" stroke-width="1" />
<path d="M1.3071192649862202,6.002516787670304 L1.2108453044344851,5.6833131542757265 L0.9885973374081036,4.4675855681867045" fill-opacity="0" stroke="black" stroke-width="1" />
<path d="M1.3071192649862202,93.9974832123297 L1.2108453044344851,94.31668684572428 L0.9885973374081036,95.5324144318133" fill-opacity="0" stroke="black" stroke-width="1" />
<path d="M1.3071192649862202,-93.9974832123297 L1.2108453044344851,-94.31668684572428 L0.9885973374081036,-95.5324144318133" fill-opacity="0" stroke="black" stroke-width="1" />
<path d="M1.2108453044344851,-5.6833131542757265 L0.9885973374081036,-4.4675855681867045 L0.8609719845030839,-3.812695842339692" fill-opacity="0" stroke="black" stroke-width="1" />
<path d="M1.2108453044344851,5.6833131542757265 L0.9885973374081036,4.4675855681867045 L0.8609719845030839,3.812695842339692" fill-opacity="0" stroke="black" stroke-width="1" />
<path d="M1.2108453044344851,94.31668684572428 L0.9885973374081036,95.5324144318133 L0.8609719845030839,96.18730415766031" fill-opacity="0" stroke="black" stroke-width="1" />
<path d="M1.2108453044344851,-94.31668684572428 L0.9885973374081036,-95.5324144318133 L0.8609719845030839,-96.18730415766031" fill-opacity="0" stroke="black" stroke-width="1" />
<path d="M0.9885973374081036,-4.4675855681867045 L0.8609719845030839,-3.812695842339692 L0.2685082879943679,-2.827243363258108" fill-opacity="0" stroke="black" stroke-width="1" />
<path d="M0.9885973374081036,4.4675855681867045 L0.8609719845030839,3.812695842339692 L0.2685082879943679,2.827243363258108" fill-opacity="0" stroke="black" stroke-width="1" />
<path d="M0.9885973374081036,95.5324144318133 L0.8609719845030839,96.18730415766031 L0.2685082879943679,97.1727566367419" fill-opacity="0" stroke="black" stroke-width="1" />
<path d="M0.9885973374081036,-95.5324144318133 L0.8609719845030839,-96.18730415766031 L0.2685082879943679,-97.1727566367419" fill-opacity="0" stroke="black" stroke-width="1" />
<path d="M0.8609719845030839,-3.812695842339692 L0.2685082879943679,-2.827243363258108 L0.0029292075340303647,-1.1632997935367262" fill-opacity="0" stroke="black" stroke-width="1" />
<path d="M0.8609719845030839,3.812695842339692 L0.2685082879943679,2.827243363258108 L0.0029292075340303647,1.1632997935367262" fill-opacity="0" stroke="black" stroke-width="1" />
<path d="M0.8609719845030839,96.18730415766031 L0.2685082879943679,97.1727566367419 L0.0029292075340303647,98.83670020646328" fill-opacity="0" stroke="black" stroke-width="1" />
<path d="M0.8609719845030839,-96.18730415766031 L0.2685082879943679,-97.1727566367419 L0.0029292075340303647,-98.83670020646328" fill-opacity="0" stroke="black" stroke-width="1" />
<path d="M0.2685082879943679,-2.827243363258108 L0.0029292075340303647,-1.1632997935367262 L0.0,-0.0" fill-opacity="0" stroke="black" stroke-width="1" />
<path d="M0.2685082879943679,2.827243363258108 L0.0029292075340303647,1.1632997935367262 L0.0,-0.0" fill-opacity="0" stroke="black" stroke-width="1" />
<path d="M0.2685082879943679,97.1727566367419 L0.0029292075340303647,98.83670020646328 L0.0,100.0" fill-opacity="0" stroke="black" stroke-width="1" />
<path d="M0.2685082879943679,-97.1727566367419 L0.0029292075340303647,-98.83670020646328 L0.0,-100.0" fill-opacity="0" stroke="black" stroke-width="1" />
<path d="M0.0,90.0 L-2.462305373884783,87.38522728784407 L-4.635544598166875,85.86770959587501" fill-opacity="0" stroke="black" stroke-width="1" />
<path d="M0.0,-10.0 L-2.462305373884783,-12.61477271215593 L-4.635544598166875,-14.132290404124992" fill-opacity="0" stroke="black" stroke-width="1" />
<path d="M0.0,10.0 L-2.462305373884783,12.614772712155926 L-4.635544598166875,14.132290404124987" fill-opacity="0" stroke="black" stroke-width="1" />
<path d="M0.0,-90.0 L-2.462305373884783,-87.38522728784407 L-4.635544598166875,-85.867709595875" fill-opacity="0" stroke="black" stroke-width="1" />
<path d="M-2.462305373884783,87.38522728784407 L-4.635544598166875,85.86770959587501 L-6.23616432382002,85.05343038958694" fill-opacity="0" stroke="black" stroke-width="1" />
<path d="M-2.462305373884783,-12.61477271215593 L-4.635544598166875,-14.132290404124992 L-6.23616432382002,-14.946569610413064" fill-opacity="0" stroke="black" stroke-width="1" />
<path d="M-2.462305373884783,12.614772712155926 L-4.635544598166875,14.132290404124987 L-6.23616432382002,14.946569610413064" fill-opacity="0" stroke="black" stroke-width="1" />
<path d="M-2.462305373884783,-87.38522728784407 L-4.635544598166875,-85.867709595875 L-6.23616432382002,-85.05343038958694" fill-opacity="0" stroke="black" stroke-width="1" />
<path d="M-4.635544598166875,85.86770959587501 L-6.23616432382002,85.05343038958694 L0.0,76.0" fill-opacity="0" stroke="black" stroke-width="1" />
<path d="M-4.635544598166875,-14.132290404124992 L-6.23616432382002,-14.946569610413064 L0.0,-24.0" fill-opacity="0" stroke="black" stroke-width="1" />
<path d="M-4.635544598166875,14.132290404124987 L-6.23616432382002,14.946569610413064 L0.0,24.0" fill-opacity="0" stroke="black" stroke-width="1" />
<path d="M-4.635544598166875,-85.867709595875 L-6.23616432382002,-85.05343038958694 L0.0,-76.0" fill-opacity="0" stroke="black" stroke-width="1" />
<path d="M0.0,76.0 L-13.815417151984736,71.791827033412 L0.0,71.0" fill-opacity="0" stroke="black" stroke-width="1" />
<path d="M0.0,-24.0 L-13.815417151984736,-28.208172966588 L0.0,-29.0" fill-opacity="0" stroke="black" stroke-width="1" />
<path d="M0.0,24.0 L-13.815417151984736,28.208172966587995 L0.0,29.0" fill-opacity="0" stroke="black" stroke-width="1" />
<path d="M0.0,-76.0 L-13.815417151984736,-71.791827033412 L0.0,-71.0" fill-opacity="0" stroke="black" stroke-width="1" />
<path d="M-15.0,50.0 L-16.59945274685983,63.685059678136035 L-17.0,50.0" fill-opacity="0" stroke="black" stroke-width="1" />
<path d="M-15.0,-50.0 L-16.59945274685983,-36.314940321863965 L-17.0,-50.0" fill-opacity="0" stroke="black" stroke-width="1" />
<path d="M-15.0,50.0 L-16.59945274685983,36.314940321863965 L-17.0,50.0" fill-opacity="0" stroke="black" stroke-width="1" />
<path d="M-15.0,-50.0 L-16.59945274685983,-63.685059678136035 L-17.0,-50.0" fill-opacity="0" stroke="black" stroke-width="1" />
<path d="M-17.0,50.0 L-21.528012418406004,59.566552152648995 L-23.0,50.0" fill-opacity="0" stroke="black" stroke-width="1" />
<path d="M-17.0,-50.0 L-21.528012418406004,-40.433447847351005 L-23.0,-50.0" fill-opacity="0" stroke="black" stroke-width="1" />
<path d="M-17.0,50.0 L-21.528012418406004,40.433447847351005 L-23.0,50.0" fill-opacity="0" stroke="black" stroke-width="1" />
<path d="M-17.0,-50.0 L-21.528012418406004,-59.566552152648995 L-23.0,-50.0" fill-opacity="0" stroke="black" stroke-width="1" />
<path d="M-23.0,50.0 L-27.969027118178,53.83651716258286 L-31.80862765302116,52.00350560010099" fill-opacity="0" stroke="black" stroke-width="1" />
<path d="M-23.0,-50.0 L-27.969027118178,-46.16348283741714 L-31.80862765302116,-47.99649439989901" fill-opacity="0" stroke="black" stroke-width="1" />
<path d="M-23.0,50.0 L-27.969027118178,46.16348283741714 L-31.80862765302116,47.99649439989901" fill-opacity="0" stroke="black" stroke-width="1" />
<path d="M-23.0,-50.0 L-27.969027118178,-53.83651716258286 L-31.80862765302116,-52.00350560010099" fill-opacity="0" stroke="black" stroke-width="1" />
<path d="M-27.969027118178,53.83651716258286 L-31.80862765302116,52.00350560010099 L-33.719141750923704,51.21671815989008" fill-opacity="0" stroke="black" stroke-width="1" />
<path d="M-27.969027118178,-46.16348283741714 L-31.80862765302116,-47.99649439989901 L-33.719141750923704,-48.78328184010992" fill-opacity="0" stroke="black" stroke-width="1" />
<path d="M-27.969027118178,46.16348283741714 L-31.80862765302116,47.99649439989901 L-33.719141750923704,48.78328184010992" fill-opacity="0" stroke="black" stroke-width="1" />
<path d="M-27.969027118178,-53.83651716258286 L-31.80862765302116,-52.00350560010099 L-33.719141750923704,-51.21671815989008" fill-opacity="0" stroke="black" stroke-width="1" />
<path d="M-31.80862765302116,52.00350560010099 L-33.719141750923704,51.21671815989008 L-37.454531876761706,50.37456340874546" fill-opacity="0" stroke="black" stroke-width="1" />
<path d="M-31.80862765302116,-47.99649439989901 L-33.719141750923704,-48.78328184010992 L-37.454531876761706,-49.62543659125454" fill-opacity="0" stroke="black" stroke-width="1" />
<path d="M-31.80862765302116,47.99649439989901 L-33.719141750923704,48.78328184010992 L-37.454531876761706,49.62543659125454" fill-opacity="0" stroke="black" stroke-width="1" />
<path d="M-31.80862765302116,-52.00350560010099 L-33.719141750923704,-51.21671815989008 L-37.454531876761706,-50.37456340874546" fill-opacity="0" stroke="black" stroke-width="1" />
<path d="M-33.719141750923704,51.21671815989008 L-37.454531876761706,50.37456340874546 L-48.0,50.0" fill-opacity="0" stroke="black" stroke-width="1" />
<path d="M-33.719141750923704,-48.78328184010992 L-37.454531876761706,-49.62543659125454 L-48.0,-50.0" fill-opacity="0" stroke="black" stroke-width="1" />
<path d="M-33.719141750923704,48.78328184010992 L-37.454531876761706,49.62543659125454 L-48.0,50.0" fill-opacity="0" stroke="black" stroke-width="1" />
<path d="M-33.719141750923704,-51.21671815989008 L-37.454531876761706,-50.37456340874546 L-48.0,-50.0" fill-opacity="0" stroke="black" stroke-width="1" />
<path d="M-20.0,80.0 L-13.181196206552181,81.40586488835439 L-8.06001370882058,84.7710489984282" fill-opacity="0" stroke="black" stroke-width="1" />
<path d="M-20.0,-20.0 L-13.181196206552181,-18.594135111645613 L-8.06001370882058,-15.228951001571795" fill-opacity="0" stroke="black" stroke-width="1" />
<path d="M-20.0,20.0 L-13.181196206552181,18.594135111645613 L-8.06001370882058,15.2289510015718" fill-opacity="0" stroke="black" stroke-width="1" />
<path d="M-20.0,-80.0 L-13.181196206552181,-81.40586488835439 L-8.06001370882058,-84.7710489984282" fill-opacity="0" stroke="black" stroke-width="1" />
<path d="M-13.181196206552181,81.40586488835439 L-8.06001370882058,84.7710489984282 L-12.0,88.0" fill-opacity="0" stroke="black" stroke-width="1" />
<path d="M-13.181196206552181,-18.594135111645613 L-8.06001370882058,-15.228951001571795 L-12.0,-12.0" fill-opacity="0" stroke="black" stroke-width="1" />
<path d="M-13.181196206552181,18.594135111645613 L-8.06001370882058,15.2289510015718 L-12.0,12.0" fill-opacity="0" stroke="black" stroke-width="1" />
<path d="M-13.181196206552181,-81.40586488835439 L-8.06001370882058,-84.7710489984282 L-12.0,-88.0" fill-opacity="0" stroke="black" stroke-width="1" />
<path d="M-10.0,90.0 L-2.2500498381601424,90.46847392788536 L-1.6652695070744432,90.92377461502814" fill-opacity="0" stroke="black" stroke-width="1" />
<path d="M-10.0,-10.0 L-2.2500498381601424,-9.531526072114643 L-1.6652695070744432,-9.076225384971858" fill-opacity="0" stroke="black" stroke-width="1" />
<path d="M-10.0,10.0 L-2.2500498381601424,9.531526072114644 L-1.6652695070744432,9.076225384971863" fill-opacity="0" stroke="black" stroke-width="1" />
<path d="M-10.0,-90.0 L-2.2500498381601424,-90.46847392788536 L-1.6652695070744432,-90.92377461502815" fill-opacity="0" stroke="black" stroke-width="1" />
<path d="M-2.2500498381601424,90.46847392788536 L-1.6652695070744432,90.92377461502814 L-1.3071192649862202,93.9974832123297" fill-opacity="0" stroke="black" stroke-width="1" />
<path d="M-2.2500498381601424,-9.531526072114643 L-1.6652695070744432,-9.076225384971858 L-1.3071192649862202,-6.002516787670304" fill-opacity="0" stroke="black" stroke-width="1" />
<path d="M-2.2500498381601424,9.531526072114644 L-1.6652695070744432,9.076225384971863 L-1.3071192649862202,6.002516787670302" fill-opacity="0" stroke="black" stroke-width="1" />
<path d="M-2.2500498381601424,-90.46847392788536 L-1.6652695070744432,-90.92377461502815 L-1.3071192649862202,-93.9974832123297" fill-opacity="0" stroke="black" stroke-width="1" />
<path d="M-1.6652695070744432,90.92377461502814 L-1.3071192649862202,93.9974832123297 L-1.2108453044344851,94.31668684572428" fill-opacity="0" stroke="black" stroke-width="1" />
<path d="M-1.6652695070744432,-9.076225384971858 L-1.3071192649862202,-6.002516787670304 L-1.2108453044344851,-5.6833131542757265" fill-opacity="0" stroke="black" stroke-width="1" />
<path d="M-1.6652695070744432,9.076225384971863 L-1.3071192649862202,6.002516787670302 L-1.2108453044344851,5.683313154275723" fill-opacity="0" stroke="black" stroke-width="1" />
<path d="M-1.6652695070744432,-90.92377461502815 L-1.3071192649862202,-93.9974832123297 L-1.2108453044344851,-94.31668684572428" fill-opacity="0" stroke="black" stroke-width="1" />
<path d="M-1.3071192649862202,93.9974832123297 L-1.2108453044344851,94.31668684572428 L-0.9885973374081036,95.5324144318133" fill-opacity="0" stroke="black" stroke-width="1" />
<path d="M-1.3071192649862202,-6.002516787670304 L-1.2108453044344851,-5.6833131542757265 L-0.9885973374081036,-4.4675855681867045" fill-opacity="0" stroke="black" stroke-width="1" />
<path d="M-1.3071192649862202,6.002516787670302 L-1.2108453044344851,5.683313154275723 L-0.9885973374081036,4.467585568186706" fill-opacity="0" stroke="black" stroke-width="1" />
<path d="M-1.3071192649862202,-93.9974832123297 L-1.2108453044344851,-94.31668684572428 L-0.9885973374081036,-95.5324144318133" fill-opacity="0" stroke="black" stroke-width="1" />
<path d="M-1.2108453044344851,94.31668684572428 L-0.9885973374081036,95.5324144318133 L-0.8609719845030839,96.18730415766031" fill-opacity="0" stroke="black" stroke-width="1" />
<path d="M-1.2108453044344851,-5.6833131542757265 L-0.9885973374081036,-4.4675855681867045 L-0.8609719845030839,-3.812695842339692" fill-opacity="0" stroke="black" stroke-width="1" />
<path d="M-1.2108453044344851,5.683313154275723 L-0.9885973374081036,4.467585568186706 L-0.8609719845030839,3.812695842339693" fill-opacity="0" stroke="black" stroke-width="1" />
<path d="M-1.2108453044344851,-94.31668684572428 L-0.9885973374081036,-95.5324144318133 L-0.8609719845030839,-96.18730415766031" fill-opacity="0" stroke="black" stroke-width="1" />
<path d="M-0.9885973374081036,95.5324144318133 L-0.8609719845030839,96.18730415766031 L-0.2685082879943679,97.1727566367419" fill-opacity="0" stroke="black" stroke-width="1" />
<path d="M-0.9885973374081036,-4.4675855681867045 L-0.8609719845030839,-3.812695842339692 L-0.2685082879943679,-2.827243363258108" fill-opacity="0" stroke="black" stroke-width="1" />
<path d="M-0.9885973374081036,4.467585568186706 L-0.8609719845030839,3.812695842339693 L-0.2685082879943679,2.8272433632581055" fill-opacity="0" stroke="black" stroke-width="1" />
<path d="M-0.9885973374081036,-95.5324144318133 L-0.8609719845030839,-96.18730415766031 L-0.2685082879943679,-97.1727566367419" fill-opacity="0" stroke="black" stroke-width="1" />
<path d="M-0.8609719845030839,96.18730415766031 L-0.2685082879943679,97.1727566367419 L-0.0029292075340303647,98.83670020646328" fill-opacity="0" stroke="black" stroke-width="1" />
<path d="M-0.8609719845030839,-3.812695842339692 L-0.2685082879943679,-2.827243363258108 L-0.0029292075340303647,-1.1632997935367262" fill-opacity="0" stroke="black" stroke-width="1" />
<path d="M-0.8609719845030839,3.812695842339693 L-0.2685082879943679,2.8272433632581055 L-0.0029292075340303647,1.1632997935367229" fill-opacity="0" stroke="black" stroke-width="1" />
<path d="M-0.8609719845030839,-96.18730415766031 L-0.2685082879943679,-97.1727566367419 L-0.0029292075340303647,-98.83670020646328" fill-opacity="0" stroke="black" stroke-width="1" />
<path d="M-0.2685082879943679,97.1727566367419 L-0.0029292075340303647,98.83670020646328 L0.0,100.0" fill-opacity="0" stroke="black" stroke-width="1" />
<path d="M-0.2685082879943679,-2.827243363258108 L-0.0029292075340303647,-1.1632997935367262 L0.0,-0.0" fill-opacity="0" stroke="black" stroke-width="1" />
<path d="M-0.2685082879943679,2.8272433632581055 L-0.0029292075340303647,1.1632997935367229 L0.0,-0.0" fill-opacity="0" stroke="black" stroke-width="1" />
<path d="M-0.2685082879943679,-97.1727566367419 L-0.0029292075340303647,-98.83670020646328 L0.0,-100.0" fill-opacity="0" stroke="black" stroke-width="1" />
<path d="M-88.0,-12.0 L-90.0,-10.0 L-90.46847392788536,-2.2500498381601424" fill-opacity="0" stroke="black" stroke-width="1" />
<path d="M-88.0,12.0 L-90.0,10.0 L-90.46847392788536,2.2500498381601424" fill-opacity="0" stroke="black" stroke-width="1" />
<path d="M-90.0,-0.0 L-87.38522728784407,-2.462305373884783 L-85.867709595875,-4.635544598166875" fill-opacity="0" stroke="black" stroke-width="1" />
<path d="M-90.0,-0.0 L-87.38522728784407,2.462305373884783 L-85.867709595875,4.635544598166875" fill-opacity="0" stroke="black" stroke-width="1" />
<path d="M-87.38522728784407,-2.462305373884783 L-85.867709595875,-4.635544598166875 L-85.05343038958694,-6.23616432382002" fill-opacity="0" stroke="black" stroke-width="1" />
<path d="M-87.38522728784407,2.462305373884783 L-85.867709595875,4.635544598166875 L-85.05343038958694,6.23616432382002" fill-opacity="0" stroke="black" stroke-width="1" />
<path d="M-85.867709595875,-4.635544598166875 L-85.05343038958694,-6.23616432382002 L-76.0,-0.0" fill-opacity="0" stroke="black" stroke-width="1" />
<path d="M-85.867709595875,4.635544598166875 L-85.05343038958694,6.23616432382002 L-76.0,-0.0" fill-opacity="0" stroke="black" stroke-width="1" />
<path d="M-72.0,-28.0 L-76.0,-24.0 L-80.0,-20.0" fill-opacity="0" stroke="black" stroke-width="1" />
<path d="M-72.0,28.0 L-76.0,24.0 L-80.0,20.0" fill-opacity="0" stroke="black" stroke-width="1" />
<path d="M-76.0,-0.0 L-71.791827033412,-13.815417151984736 L-71.0,-0.0" fill-opacity="0" stroke="black" stroke-width="1" />
<path d="M-76.0,-0.0 L-71.791827033412,13.815417151984736 L-71.0,-0.0" fill-opacity="0" stroke="black" stroke-width="1" />
<path d="M-50.0,-15.0 L-63.685059678136035,-16.59945274685983 L-50.0,-17.0" fill-opacity="0" stroke="black" stroke-width="1" />
<path d="M-50.0,15.0 L-63.685059678136035,16.59945274685983 L-50.0,17.0" fill-opacity="0" stroke="black" stroke-width="1" />
<path d="M-50.0,-17.0 L-59.566552152648995,-21.528012418406004 L-50.0,-23.0" fill-opacity="0" stroke="black" stroke-width="1" />
<path d="M-50.0,17.0 L-59.566552152648995,21.528012418406004 L-50.0,23.0" fill-opacity="0" stroke="black" stroke-width="1" />
<path d="M-50.0,-23.0 L-53.83651716258286,-27.969027118178 L-52.00350560010099,-31.80862765302116" fill-opacity="0" stroke="black" stroke-width="1" />
<path d="M-50.0,23.0 L-53.83651716258286,27.969027118178 L-52.00350560010099,31.80862765302116" fill-opacity="0" stroke="black" stroke-width="1" />
<path d="M-53.83651716258286,-27.969027118178 L-52.00350560010099,-31.80862765302116 L-51.21671815989008,-33.719141750923704" fill-opacity="0" stroke="black" stroke-width="1" />
<path d="M-53.83651716258286,27.969027118178 L-52.00350560010099,31.80862765302116 L-51.21671815989008,33.719141750923704" fill-opacity="0" stroke="black" stroke-width="1" />
<path d="M-52.00350560010099,-31.80862765302116 L-51.21671815989008,-33.719141750923704 L-50.37456340874546,-37.454531876761706" fill-opacity="0" stroke="black" stroke-width="1" />
<path d="M-52.00350560010099,31.80862765302116 L-51.21671815989008,33.719141750923704 L-50.37456340874546,37.454531876761706" fill-opacity="0" stroke="black" stroke-width="1" />
<path d="M-51.21671815989008,-33.719141750923704 L-50.37456340874546,-37.454531876761706 L-50.0,-48.0" fill-opacity="0" stroke="black" stroke-width="1" />
<path d="M-51.21671815989008,33.719141750923704 L-50.37456340874546,37.454531876761706 L-50.0,48.0" fill-opacity="0" stroke="black" stroke-width="1" />
<path d="M-50.0,-50.0 L-57.0,-43.0 L-69.0,-31.0" fill-opacity="0" stroke="black" stroke-width="1" />
<path d="M-50.0,50.0 L-57.0,43.0 L-69.0,31.0" fill-opacity="0" stroke="black" stroke-width="1" />
<path d="M-57.0,-43.0 L-69.0,-31.0 L-70.0,-30.0" fill-opacity="0" stroke="black" stroke-width="1" />
<path d="M-57.0,43.0 L-69.0,31.0 L-70.0,30.0" fill-opacity="0" stroke="black" stroke-width="1" />
<path d="M-69.0,-31.0 L-70.0,-30.0 L-72.0,-28.0" fill-opacity="0" stroke="black" stroke-width="1" />
<path d="M-69.0,31.0 L-70.0,30.0 L-72.0,28.0" fill-opacity="0" stroke="black" stroke-width="1" />
<path d="M-70.0,-30.0 L-72.0,-28.0 L-76.0,-24.0" fill-opacity="0" stroke="black" stroke-width="1" />
<path d="M-70.0,30.0 L-72.0,28.0 L-76.0,24.0" fill-opacity="0" stroke="black" stroke-width="1" />
<path d="M-76.0,-24.0 L-80.0,-20.0 L-81.40586488835439,-13.181196206552181" fill-opacity="0" stroke="black" stroke-width="1" />
<path d="M-76.0,24.0 L-80.0,20.0 L-81.40586488835439,13.181196206552181" fill-opacity="0" stroke="black" stroke-width="1" />
<path d="M-80.0,-20.0 L-81.40586488835439,-13.181196206552181 L-84.7710489984282,-8.06001370882058" fill-opacity="0" stroke="black" stroke-width="1" />
<path d="M-80.0,20.0 L-81.40586488835439,13.181196206552181 L-84.7710489984282,8.06001370882058" fill-opacity="0" stroke="black" stroke-width="1" />
<path d="M-81.40586488835439,-13.181196206552181 L-84.7710489984282,-8.06001370882058 L-88.0,-12.0" fill-opacity="0" stroke="black" stroke-width="1" />
<path d="M-81.40586488835439,13.181196206552181 L-84.7710489984282,8.06001370882058 L-88.0,12.0" fill-opacity="0" stroke="black" stroke-width="1" />
<path d="M-84.7710489984282,-8.06001370882058 L-88.0,-12.0 L-90.0,-10.0" fill-opacity="0" stroke="black" stroke-width="1" />
<path d="M-84.7710489984282,8.06001370882058 L-88.0,12.0 L-90.0,10.0" fill-opacity="0" stroke="black" stroke-width="1" />
<path d="M-90.0,-10.0 L-90.46847392788536,-2.2500498381601424 L-90.92377461502815,-1.6652695070744432" fill-opacity="0" stroke="black" stroke-width="1" />
<path d="M-90.0,10.0 L-90.46847392788536,2.2500498381601424 L-90.92377461502815,1.6652695070744432" fill-opacity="0" stroke="black" stroke-width="1" />
<path d="M-90.46847392788536,-2.2500498381601424 L-90.92377461502815,-1.6652695070744432 L-93.9974832123297,-1.3071192649862202" fill-opacity="0" stroke="black" stroke-width="1" />
<path d="M-90.46847392788536,2.2500498381601424 L-90.92377461502815,1.6652695070744432 L-93.9974832123297,1.3071192649862202" fill-opacity="0" stroke="black" stroke-width="1" />
<path d="M-90.92377461502815,-1.6652695070744432 L-93.9974832123297,-1.3071192649862202 L-94.31668684572428,-1.2108453044344851" fill-opacity="0" stroke="black" stroke-width="1" />
<path d="M-90.92377461502815,1.6652695070744432 L-93.9974832123297,1.3071192649862202 L-94.31668684572428,1.2108453044344851" fill-opacity="0" stroke="black" stroke-width="1" />
<path d="M-93.9974832123297,-1.3071192649862202 L-94.31668684572428,-1.2108453044344851 L-95.5324144318133,-0.9885973374081036" fill-opacity="0" stroke="black" stroke-width="1" />
<path d="M-93.9974832123297,1.3071192649862202 L-94.31668684572428,1.2108453044344851 L-95.5324144318133,0.9885973374081036" fill-opacity="0" stroke="black" stroke-width="1" />
<path d="M-94.31668684572428,-1.2108453044344851 L-95.5324144318133,-0.9885973374081036 L-96.18730415766031,-0.8609719845030839" fill-opacity="0" stroke="black" stroke-width="1" />
<path d="M-94.31668684572428,1.2108453044344851 L-95.5324144318133,0.9885973374081036 L-96.18730415766031,0.8609719845030839" fill-opacity="0" stroke="black" stroke-width="1" />
<path d="M-95.5324144318133,-0.9885973374081036 L-96.18730415766031,-0.8609719845030839 L-97.1727566367419,-0.2685082879943679" fill-opacity="0" stroke="black" stroke-width="1" />
<path d="M-95.5324144318133,0.9885973374081036 L-96.18730415766031,0.8609719845030839 L-97.1727566367419,0.2685082879943679" fill-opacity="0" stroke="black" stroke-width="1" />
<path d="M-96.18730415766031,-0.8609719845030839 L-97.1727566367419,-0.2685082879943679 L-98.83670020646328,-0.0029292075340303647" fill-opacity="0" stroke="black" stroke-width="1" />
<path d="M-96.18730415766031,0.8609719845030839 L-97.1727566367419,0.2685082879943679 L-98.83670020646328,0.0029292075340303647" fill-opacity="0" stroke="black" stroke-width="1" />
<path d="M-97.1727566367419,-0.2685082879943679 L-98.83670020646328,-0.0029292075340303647 L-100.0,-0.0" fill-opacity="0" stroke="black" stroke-width="1" />
<path d="M-97.1727566367419,0.2685082879943679 L-98.83670020646328,0.0029292075340303647 L-100.0,-0.0" fill-opacity="0" stroke="black" stroke-width="1" />
<circle cx="0" cy="-97" r="8" stroke-dasharray="39.653880605311166 10.611601852125524" stroke-dashoffset="-17.59291886010284" stroke="black" stroke-width="1" fill="white" fill-opacity="1" />
<circle cx="0" cy="-97" r="4" stroke="black" stroke-width="1" fill="white" fill-opacity="1" />
</svg>