<?xml version="1.0" encoding="UTF-8"?>
<svg xmlns="http://www.w3.org/2000/svg" xmlns:xlink="http://www.w3.org/1999/xlink"
     width="250" height="250" viewBox="-125.0 -125.0 250 250">
<defs>
</defs>
<path d="M23.0,-0.0 L30.339143808892672,-17.47340338930094 L32.0,-0.0" fill="pink" fill-opacity="0.6" stroke="black" stroke-width="1" />
<path d="M23.0,-0.0 L30.339143808892672,17.47340338930094 L32.0,-0.0" fill="blue" fill-opacity="0.6" stroke="black" stroke-width="1" />
<path d="M50.0,-30.0 L49.07961437079098,-30.549310706684402 L50.0,-33.0" fill="red" fill-opacity="0.6" stroke="black" stroke-width="1" />
<path d="M50.0,30.0 L49.07961437079098,30.549310706684402 L50.0,33.0" fill="black" fill-opacity="0.6" stroke="black" stroke-width="1" />
<path d="M44.0,56.0 L38.0,62.0 L29.0,71.0" fill="purple" fill-opacity="0.6" stroke="black" stroke-width="1" />
<path d="M44.0,-56.0 L38.0,-62.0 L29.0,-71.0" fill="orange" fill-opacity="0.6" stroke="black" stroke-width="1" />
<path d="M38.0,62.0 L29.0,71.0 L22.0,78.0" fill="blue" fill-opacity="0.6" stroke="black" stroke-width="1" />
<path d="M38.0,-62.0 L29.0,-71.0 L22.0,-78.0" fill="green" fill-opacity="0.6" stroke="black" stroke-width="1" />
<path d="M29.0,71.0 L22.0,78.0 L13.0,87.0" fill="black" fill-opacity="0.6" stroke="black" stroke-width="1" />
<path d="M29.0,-71.0 L22.0,-78.0 L13.0,-87.0" fill="black" fill-opacity="0.6" stroke="black" stroke-width="1" />
<path d="M22.0,78.0 L13.0,87.0 L12.0,88.0" fill="orange" fill-opacity="0.6" stroke="black" stroke-width="1" />
<path d="M22.0,-78.0 L13.0,-87.0 L12.0,-88.0" fill="green" fill-opacity="0.6" stroke="black" stroke-width="1" />
<path d="M13.0,87.0 L12.0,88.0 L1.0,99.0" fill="orange" fill-opacity="0.6" stroke="black" stroke-width="1" />
<path d="M13.0,-87.0 L12.0,-88.0 L1.0,-99.0" fill="purple" fill-opacity="0.6" stroke="black" stroke-width="1" />
<path d="M12.0,88.0 L1.0,99.0 L0.0,100.0" fill="blue" fill-opacity="0.6" stroke="black" stroke-width="1" />
<path d="M12.0,-88.0 L1.0,-99.0 L0.0,-100.0" fill="black" fill-opacity="0.6" stroke="black" stroke-width="1" />
<path d="M-23.0,-0.0 L-30.339143808892672,-17.47340338930094 L-32.0,-0.0" fill="green" fill-opacity="0.6" stroke="black" stroke-width="1" />
<path d="M-23.0,-0.0 L-30.339143808892672,17.47340338930094 L-32.0,-0.0" fill="yellow" fill-opacity="0.6" stroke="black" stroke-width="1" />
<path d="M-50.0,-30.0 L-49.07961437079098,-30.549310706684402 L-50.0,-33.0" fill="orange" fill-opacity="0.6" stroke="black" stroke-width="1" />
<path d="M-50.0,30.0 L-49.07961437079098,30.549310706684402 L-50.0,33.0" fill="red" fill-opacity="0.6" stroke="black" stroke-width="1" />
<path d="M-44.0,56.0 L-38.0,62.0 L-29.0,71.0" fill="pink" fill-opacity="0.6" stroke="black" stroke-width="1" />
<path d="M-44.0,-56.0 L-38.0,-62.0 L-29.0,-71.0" fill="orange" fill-opacity="0.6" stroke="black" stroke-width="1" />
<path d="M-38.0,62.0 L-29.0,71.0 L-22.0,78.0" fill="orange" fill-opacity="0.6" stroke="black" stroke-width="1" />
<path d="M-38.0,-62.0 L-29.0,-71.0 L-22.0,-78.0" fill="black" fill-opacity="0.6" stroke="black" stroke-width="1" />
<path d="M-29.0,71.0 L-22.0,78.0 L-13.0,87.0" fill="pink" fill-opacity="0.6" stroke="black" stroke-width="1" />
<path d="M-29.0,-71.0 L-22.0,-78.0 L-13.0,-87.0" fill="purple" fill-opacity="0.6" stroke="black" stroke-width="1" />
<path d="M-22.0,78.0 L-13.0,87.0 L-12.0,88.0" fill="black" fill-opacity="0.6" stroke="black" stroke-width="1" />
<path d="M-22.0,-78.0 L-13.0,-87.0 L-12.0,-88.0" fill="yellow" fill-opacity="0.6" stroke="black" stroke-width="1" />
<path d="M-13.0,87.0 L-12.0,88.0 L-1.0,99.0" fill="brown" fill-opacity="0.6" stroke="black" stroke-width="1" />
<path d="M-13.0,-87.0 L-12.0,-88.0 L-1.0,-99.0" fill="brown" fill-opacity="0.6" stroke="black" stroke-width="1" />
<path d="M-12.0,88.0 L-1.0,99.0 L0.0,100.0" fill="black" fill-opacity="0.6" stroke="black" stroke-width="1" />
<path d="M-12.0,-88.0 L-1.0,-99.0 L0.0,-100.0" fill="green" fill-opacity="0.6" stroke="black" stroke-width="1" />
<path d="M77.0,-0.0 L69.66085619110733,17.47340338930094 L68.0,-0.0" fill="brown" fill-opacity="0.6" stroke="black" stroke-width="1" />
<path d="M77.0,-0.0 L69.66085619110733,-17.47340338930094 L68.0,-0.0" fill="pink" fill-opacity="0.6" stroke="black" stroke-width="1" />
<path d="M50.0,30.0 L50.92038562920902,30.549310706684402 L50.0,33.0" fill="brown" fill-opacity="0.6" stroke="black" stroke-width="1" />
<path d="M50.0,-30.0 L50.92038562920902,-30.549310706684402 L50.0,-33.0" fill="brown" fill-opacity="0.6" stroke="black" stroke-width="1" />
<path d="M56.0,44.0 L62.0,38.0 L71.0,29.0" fill="brown" fill-opacity="0.6" stroke="black" stroke-width="1" />
<path d="M56.0,-44.0 L62.0,-38.0 L71.0,-29.0" fill="blue" fill-opacity="0.6" stroke="black" stroke-width="1" />
<path d="M62.0,38.0 L71.0,29.0 L78.0,22.0" fill="black" fill-opacity="0.6" stroke="black" stroke-width="1" />
<path d="M62.0,-38.0 L71.0,-29.0 L78.0,-22.0" fill="blue" fill-opacity="0.6" stroke="black" stroke-width="1" />
<path d="M71.0,29.0 L78.0,22.0 L87.0,13.0" fill="orange" fill-opacity="0.6" stroke="black" stroke-width="1" />
<path d="M71.0,-29.0 L78.0,-22.0 L87.0,-13.0" fill="green" fill-opacity="0.6" stroke="black" stroke-width="1" />
<path d="M78.0,22.0 L87.0,13.0 L88.0,12.0" fill="brown" fill-opacity="0.6" stroke="black" stroke-width="1" />
<path d="M78.0,-22.0 L87.0,-13.0 L88.0,-12.0" fill="blue" fill-opacity="0.6" stroke="black" stroke-width="1" />
<path d="M87.0,13.0 L88.0,12.0 L99.0,1.0" fill="green" fill-opacity="0.6" stroke="black" stroke-width="1" />
<path d="M87.0,-13.0 L88.0,-12.0 L99.0,-1.0" fill="pink" fill-opacity="0.6" stroke="black" stroke-width="1" />
<path d="M88.0,12.0 L99.0,1.0 L100.0,-0.0" fill="black" fill-opacity="0.6" stroke="black" stroke-width="1" />
<path d="M88.0,-12.0 L99.0,-1.0 L100.0,-0.0" fill="pink" fill-opacity="0.6" stroke="black" stroke-width="1" />
<path d="M0.0,-23.0 L17.47340338930094,-30.339143808892672 L0.0,-32.0" fill="purple" fill-opacity="0.6" stroke="black" stroke-width="1" />
<path d="M0.0,23.0 L17.47340338930094,30.339143808892672 L0.0,32.0" fill="orange" fill-opacity="0.6" stroke="black" stroke-width="1" />
<path d="M0.0,77.0 L17.47340338930094,69.66085619110733 L0.0,68.0" fill="orange" fill-opacity="0.6" stroke="black" stroke-width="1" />
<path d="M0.0,-77.0 L17.47340338930094,-69.66085619110733 L0.0,-68.0" fill="pink" fill-opacity="0.6" stroke="black" stroke-width="1" />
<path d="M30.0,-50.0 L30.549310706684402,-49.07961437079098 L33.0,-50.0" fill="brown" fill-opacity="0.6" stroke="black" stroke-width="1" />
<path d="M30.0,50.0 L30.549310706684402,49.07961437079098 L33.0,50.0" fill="blue" fill-opacity="0.6" stroke="black" stroke-width="1" />
<path d="M30.0,50.0 L30.549310706684402,50.92038562920902 L33.0,50.0" fill="pink" fill-opacity="0.6" stroke="black" stroke-width="1" />
<path d="M30.0,-50.0 L30.549310706684402,-50.92038562920902 L33.0,-50.0" fill="black" fill-opacity="0.6" stroke="black" stroke-width="1" />
<path d="M0.0,77.0 L-17.47340338930094,69.66085619110733 L0.0,68.0" fill="brown" fill-opacity="0.6" stroke="black" stroke-width="1" />
<path d="M0.0,-23.0 L-17.47340338930094,-30.339143808892672 L0.0,-32.0" fill="pink" fill-opacity="0.6" stroke="black" stroke-width="1" />
<path d="M0.0,23.0 L-17.47340338930094,30.339143808892672 L0.0,32.0" fill="brown" fill-opacity="0.6" stroke="black" stroke-width="1" />
<path d="M0.0,-77.0 L-17.47340338930094,-69.66085619110733 L0.0,-68.0" fill="red" fill-opacity="0.6" stroke="black" stroke-width="1" />
<path d="M-30.0,50.0 L-30.549310706684402,50.92038562920902 L-33.0,50.0" fill="pink" fill-opacity="0.6" stroke="black" stroke-width="1" />
<path d="M-30.0,-50.0 L-30.549310706684402,-49.07961437079098 L-33.0,-50.0" fill="pink" fill-opacity="0.6" stroke="black" stroke-width="1" />
<path d="M-30.0,50.0 L-30.549310706684402,49.07961437079098 L-33.0,50.0" fill="purple" fill-opacity="0.6" stroke="black" stroke-width="1" />
<path d="M-30.0,-50.0 L-30.549310706684402,-50.92038562920902 L-33.0,-50.0" fill="red" fill-opacity="0.6" stroke="black" stroke-width="1" />
<path d="M-77.0,-0.0 L-69.66085619110733,-17.47340338930094 L-68.0,-0.0" fill="orange" fill-opacity="0.6" stroke="black" stroke-width="1" />
<path d="M-77.0,-0.0 L-69.66085619110733,17.47340338930094 L-68.0,-0.0" fill="brown" fill-opacity="0.6" stroke="black" stroke-width="1" />
<path d="M-50.0,-30.0 L-50.92038562920902,-30.549310706684402 L-50.0,-33.0" fill="pink" fill-opacity="0.6" stroke="black" stroke-width="1" />
<path d="M-50.0,30.0 L-50.92038562920902,30.549310706684402 L-50.0,33.0" fill="black" fill-opacity="0.6" stroke="black" stroke-width="1" />
<path d="M-56.0,-44.0 L-62.0,-38.0 L-71.0,-29.0" fill="black" fill-opacity="0.6" stroke="black" stroke-width="1" />
<path d="M-56.0,44.0 L-62.0,38.0 L-71.0,29.0" fill="purple" fill-opacity="0.6" stroke="black" stroke-width="1" />
<path d="M-62.0,-38.0 L-71.0,-29.0 L-78.0,-22.0" fill="green" fill-opacity="0.6" stroke="black" stroke-width="1" />
<path d="M-62.0,38.0 L-71.0,29.0 L-78.0,22.0" fill="green" fill-opacity="0.6" stroke="black" stroke-width="1" />
<path d="M-71.0,-29.0 L-78.0,-22.0 L-87.0,-13.0" fill="pink" fill-opacity="0.6" stroke="black" stroke-width="1" />
<path d="M-71.0,29.0 L-78.0,22.0 L-87.0,13.0" fill="pink" fill-opacity="0.6" stroke="black" stroke-width="1" />
<path d="M-78.0,-22.0 L-87.0,-13.0 L-88.0,-12.0" fill="purple" fill-opacity="0.6" stroke="black" stroke-width="1" />
<path d="M-78.0,22.0 L-87.0,13.0 L-88.0,12.0" fill="green" fill-opacity="0.6" stroke="black" stroke-width="1" />
<path d="M-87.0,-13.0 L-88.0,-12.0 L-99.0,-1.0" fill="pink" fill-opacity="0.6" stroke="black" stroke-width="1" />
<path d="M-87.0,13.0 L-88.0,12.0 L-99.0,1.0" fill="blue" fill-opacity="0.6" stroke="black" stroke-width="1" />
<path d="M-88.0,-12.0 L-99.0,-1.0 L-100.0,-0.0" fill="black" fill-opacity="0.6" stroke="black" stroke-width="1" />
<path d="M-88.0,12.0 L-99.0,1.0 L-100.0,-0.0" fill="yellow" fill-opacity="0.6" stroke="black" stroke-width="1" />
</svg>