<?xml version="1.0" encoding="UTF-8"?>
<svg xmlns="http://www.w3.org/2000/svg" xmlns:xlink="http://www.w3.org/1999/xlink"
     width="250" height="250" viewBox="-125.0 -125.0 250 250">
<defs>
</defs>
<path d="M7.0,-0.0 L18.115239623582962,-4.295893583361069 L18.765611601113307,-4.728631339377659" fill-opacity="0" stroke="black" stroke-width="1" />
<path d="M7.0,-0.0 L18.115239623582962,4.295893583361069 L18.765611601113307,4.728631339377659" fill-opacity="0" stroke="black" stroke-width="1" />
<path d="M18.115239623582962,-4.295893583361069 L18.765611601113307,-4.728631339377659 L20.174343250070446,-5.179832375181065" fill-opacity="0" stroke="black" stroke-width="1" />
<path d="M18.115239623582962,4.295893583361069 L18.765611601113307,4.728631339377659 L20.174343250070446,5.179832375181065" fill-opacity="0" stroke="black" stroke-width="1" />
<path d="M18.765611601113307,-4.728631339377659 L20.174343250070446,-5.179832375181065 L23.125240485198884,-6.7212060412348364" fill-opacity="0" stroke="black" stroke-width="1" />
<path d="M18.765611601113307,4.728631339377659 L20.174343250070446,5.179832375181065 L23.125240485198884,6.7212060412348364" fill-opacity="0" stroke="black" stroke-width="1" />
<path d="M20.174343250070446,-5.179832375181065 L23.125240485198884,-6.7212060412348364 L24.0,-0.0" fill-opacity="0" stroke="black" stroke-width="1" />
<path d="M20.174343250070446,5.179832375181065 L23.125240485198884,6.7212060412348364 L24.0,-0.0" fill-opacity="0" stroke="black" stroke-width="1" />
<path d="M24.0,-0.0 L26.22255158745505,-7.909763825343092 L35.92828091170564,-8.982274419746167" fill-opacity="0" stroke="black" stroke-width="1" />
<path d="M24.0,-0.0 L26.22255158745505,7.909763825343092 L35.92828091170564,8.982274419746167" fill-opacity="0" stroke="black" stroke-width="1" />
<path d="M26.22255158745505,-7.909763825343092 L35.92828091170564,-8.982274419746167 L36.491767698514614,-11.453266212626378" fill-opacity="0" stroke="black" stroke-width="1" />
<path d="M26.22255158745505,7.909763825343092 L35.92828091170564,8.982274419746167 L36.491767698514614,11.453266212626378" fill-opacity="0" stroke="black" stroke-width="1" />
<path d="M35.92828091170564,-8.982274419746167 L36.491767698514614,-11.453266212626378 L48.0,-0.0" fill-opacity="0" stroke="black" stroke-width="1" />
<path d="M35.92828091170564,8.982274419746167 L36.491767698514614,11.453266212626378 L48.0,-0.0" fill-opacity="0" stroke="black" stroke-width="1" />
<path d="M50.0,-8.0 L42.197363672598094,-22.657684506375166 L42.459101630168185,-28.37798684216084" fill-opacity="0" stroke="black" stroke-width="1" />
<path d="M50.0,8.0 L42.197363672598094,22.657684506375166 L42.459101630168185,28.37798684216084" fill-opacity="0" stroke="black" stroke-width="1" />
<path d="M42.197363672598094,-22.657684506375166 L42.459101630168185,-28.37798684216084 L46.77479391912705,-32.28572603205514" fill-opacity="0" stroke="black" stroke-width="1" />
<path d="M42.197363672598094,22.657684506375166 L42.459101630168185,28.37798684216084 L46.77479391912705,32.28572603205514" fill-opacity="0" stroke="black" stroke-width="1" />
<path d="M42.459101630168185,-28.37798684216084 L46.77479391912705,-32.28572603205514 L46.8222476806114,-34.4624208350462" fill-opacity="0" stroke="black" stroke-width="1" />
<path d="M42.459101630168185,28.37798684216084 L46.77479391912705,32.28572603205514 L46.8222476806114,34.4624208350462" fill-opacity="0" stroke="black" stroke-width="1" />
<path d="M46.77479391912705,-32.28572603205514 L46.8222476806114,-34.4624208350462 L48.8375219465918,-34.486879328434554" fill-opacity="0" stroke="black" stroke-width="1" />
<path d="M46.77479391912705,32.28572603205514 L46.8222476806114,34.4624208350462 L48.8375219465918,34.486879328434554" fill-opacity="0" stroke="black" stroke-width="1" />
<path d="M46.8222476806114,-34.4624208350462 L48.8375219465918,-34.486879328434554 L49.10965758163238,-35.79711645961061" fill-opacity="0" stroke="black" stroke-width="1" />
<path d="M46.8222476806114,34.4624208350462 L48.8375219465918,34.486879328434554 L49.10965758163238,35.79711645961061" fill-opacity="0" stroke="black" stroke-width="1" />
<path d="M48.8375219465918,-34.486879328434554 L49.10965758163238,-35.79711645961061 L49.44828179552229,-37.509778904237336" fill-opacity="0" stroke="black" stroke-width="1" />
<path d="M48.8375219465918,34.486879328434554 L49.10965758163238,35.79711645961061 L49.44828179552229,37.509778904237336" fill-opacity="0" stroke="black" stroke-width="1" />
<path d="M49.10965758163238,-35.79711645961061 L49.44828179552229,-37.509778904237336 L50.0,-38.0" fill-opacity="0" stroke="black" stroke-width="1" />
<path d="M49.10965758163238,35.79711645961061 L49.44828179552229,37.509778904237336 L50.0,38.0" fill-opacity="0" stroke="black" stroke-width="1" />
<path d="M38.0,62.0 L33.0,67.0 L3.8444156038086765,90.40617163870093" fill-opacity="0" stroke="black" stroke-width="1" />
<path d="M38.0,-62.0 L33.0,-67.0 L3.8444156038086765,-90.40617163870093" fill-opacity="0" stroke="black" stroke-width="1" />
<path d="M33.0,-33.0 L9.593828361299067,-3.8444156038086765 L7.976533485550963,-3.4616397641013865" fill-opacity="0" stroke="black" stroke-width="1" />
<path d="M33.0,33.0 L9.593828361299067,3.8444156038086765 L7.976533485550963,3.4616397641013865" fill-opacity="0" stroke="black" stroke-width="1" />
<path d="M9.593828361299067,-3.8444156038086765 L7.976533485550963,-3.4616397641013865 L6.0,-6.0" fill-opacity="0" stroke="black" stroke-width="1" />
<path d="M9.593828361299067,3.8444156038086765 L7.976533485550963,3.4616397641013865 L6.0,6.0" fill-opacity="0" stroke="black" stroke-width="1" />
<path d="M3.4616397641013865,92.02346651444904 L6.0,94.0 L2.612208473764688,94.2326262492085" fill-opacity="0" stroke="black" stroke-width="1" />
<path d="M3.4616397641013865,-92.02346651444904 L6.0,-94.0 L2.612208473764688,-94.2326262492085" fill-opacity="0" stroke="black" stroke-width="1" />
<path d="M6.0,-6.0 L5.767373750791499,-2.612208473764688 L5.514084185807378,-0.25132956692953956" fill-opacity="0" stroke="black" stroke-width="1" />
<path d="M6.0,6.0 L5.767373750791499,2.612208473764688 L5.514084185807378,0.25132956692953956" fill-opacity="0" stroke="black" stroke-width="1" />
<path d="M5.767373750791499,-2.612208473764688 L5.514084185807378,-0.25132956692953956 L3.0045406745096312,-0.21914201087200672" fill-opacity="0" stroke="black" stroke-width="1" />
<path d="M5.767373750791499,2.612208473764688 L5.514084185807378,0.25132956692953956 L3.0045406745096312,0.21914201087200672" fill-opacity="0" stroke="black" stroke-width="1" />
<path d="M5.514084185807378,-0.25132956692953956 L3.0045406745096312,-0.21914201087200672 L0.0,-0.0" fill-opacity="0" stroke="black" stroke-width="1" />
<path d="M5.514084185807378,0.25132956692953956 L3.0045406745096312,0.21914201087200672 L0.0,-0.0" fill-opacity="0" stroke="black" stroke-width="1" />
<path d="M-7.0,-0.0 L-18.115239623582962,-4.295893583361069 L-18.765611601113307,-4.728631339377659" fill-opacity="0" stroke="black" stroke-width="1" />
<path d="M-7.0,-0.0 L-18.115239623582962,4.295893583361069 L-18.765611601113307,4.728631339377659" fill-opacity="0" stroke="black" stroke-width="1" />
<path d="M-18.115239623582962,-4.295893583361069 L-18.765611601113307,-4.728631339377659 L-20.174343250070446,-5.179832375181065" fill-opacity="0" stroke="black" stroke-width="1" />
<path d="M-18.115239623582962,4.295893583361069 L-18.765611601113307,4.728631339377659 L-20.174343250070446,5.179832375181065" fill-opacity="0" stroke="black" stroke-width="1" />
<path d="M-18.765611601113307,-4.728631339377659 L-20.174343250070446,-5.179832375181065 L-23.125240485198884,-6.7212060412348364" fill-opacity="0" stroke="black" stroke-width="1" />
<path d="M-18.765611601113307,4.728631339377659 L-20.174343250070446,5.179832375181065 L-23.125240485198884,6.7212060412348364" fill-opacity="0" stroke="black" stroke-width="1" />
<path d="M-20.174343250070446,-5.179832375181065 L-23.125240485198884,-6.7212060412348364 L-24.0,-0.0" fill-opacity="0" stroke="black" stroke-width="1" />
<path d="M-20.174343250070446,5.179832375181065 L-23.125240485198884,6.7212060412348364 L-24.0,-0.0" fill-opacity="0" stroke="black" stroke-width="1" />
<path d="M-24.0,-0.0 L-26.22255158745505,-7.909763825343092 L-35.92828091170564,-8.982274419746167" fill-opacity="0" stroke="black" stroke-width="1" />
<path d="M-24.0,-0.0 L-26.22255158745505,7.909763825343092 L-35.92828091170564,8.982274419746167" fill-opacity="0" stroke="black" stroke-width="1" />
<path d="M-26.22255158745505,-7.909763825343092 L-35.92828091170564,-8.982274419746167 L-36.491767698514614,-11.453266212626378" fill-opacity="0" stroke="black" stroke-width="1" />
<path d="M-26.22255158745505,7.909763825343092 L-35.92828091170564,8.982274419746167 L-36.491767698514614,11.453266212626378" fill-opacity="0" stroke="black" stroke-width="1" />
<path d="M-35.92828091170564,-8.982274419746167 L-36.491767698514614,-11.453266212626378 L-48.0,-0.0" fill-opacity="0" stroke="black" stroke-width="1" />
<path d="M-35.92828091170564,8.982274419746167 L-36.491767698514614,11.453266212626378 L-48.0,-0.0" fill-opacity="0" stroke="black" stroke-width="1" />
<path d="M-50.0,-8.0 L-42.197363672598094,-22.657684506375166 L-42.459101630168185,-28.37798684216084" fill-opacity="0" stroke="black" stroke-width="1" />
<path d="M-50.0,8.0 L-42.197363672598094,22.657684506375166 L-42.459101630168185,28.37798684216084" fill-opacity="0" stroke="black" stroke-width="1" />
<path d="M-42.197363672598094,-22.657684506375166 L-42.459101630168185,-28.37798684216084 L-46.77479391912705,-32.28572603205514" fill-opacity="0" stroke="black" stroke-width="1" />
<path d="M-42.197363672598094,22.657684506375166 L-42.459101630168185,28.37798684216084 L-46.77479391912705,32.28572603205514" fill-opacity="0" stroke="black" stroke-width="1" />
<path d="M-42.459101630168185,-28.37798684216084 L-46.77479391912705,-32.28572603205514 L-46.8222476806114,-34.4624208350462" fill-opacity="0" stroke="black" stroke-width="1" />
<path d="M-42.459101630168185,28.37798684216084 L-46.77479391912705,32.28572603205514 L-46.8222476806114,34.4624208350462" fill-opacity="0" stroke="black" stroke-width="1" />
<path d="M-46.77479391912705,-32.28572603205514 L-46.8222476806114,-34.4624208350462 L-48.8375219465918,-34.486879328434554" fill-opacity="0" stroke="black" stroke-width="1" />
<path d="M-46.77479391912705,32.28572603205514 L-46.8222476806114,34.4624208350462 L-48.8375219465918,34.486879328434554" fill-opacity="0" stroke="black" stroke-width="1" />
<path d="M-46.8222476806114,-34.4624208350462 L-48.8375219465918,-34.486879328434554 L-49.10965758163238,-35.79711645961061" fill-opacity="0" stroke="black" stroke-width="1" />
<path d="M-46.8222476806114,34.4624208350462 L-48.8375219465918,34.486879328434554 L-49.10965758163238,35.79711645961061" fill-opacity="0" stroke="black" stroke-width="1" />
<path d="M-48.8375219465918,-34.486879328434554 L-49.10965758163238,-35.79711645961061 L-49.44828179552229,-37.509778904237336" fill-opacity="0" stroke="black" stroke-width="1" />
<path d="M-48.8375219465918,34.486879328434554 L-49.10965758163238,35.79711645961061 L-49.44828179552229,37.509778904237336" fill-opacity="0" stroke="black" stroke-width="1" />
<path d="M-49.10965758163238,-35.79711645961061 L-49.44828179552229,-37.509778904237336 L-50.0,-38.0" fill-opacity="0" stroke="black" stroke-width="1" />
<path d="M-49.10965758163238,35.79711645961061 L-49.44828179552229,37.509778904237336 L-50.0,38.0" fill-opacity="0" stroke="black" stroke-width="1" />
<path d="M-38.0,62.0 L-33.0,67.0 L-3.8444156038086765,90.40617163870093" fill-opacity="0" stroke="black" stroke-width="1" />
<path d="M-38.0,-62.0 L-33.0,-67.0 L-3.8444156038086765,-90.40617163870093" fill-opacity="0" stroke="black" stroke-width="1" />
<path d="M-33.0,-33.0 L-9.593828361299067,-3.8444156038086765 L-7.976533485550963,-3.4616397641013865" fill-opacity="0" stroke="black" stroke-width="1" />
<path d="M-33.0,33.0 L-9.593828361299067,3.8444156038086765 L-7.976533485550963,3.4616397641013865" fill-opacity="0" stroke="black" stroke-width="1" />
<path d="M-9.593828361299067,-3.8444156038086765 L-7.976533485550963,-3.4616397641013865 L-6.0,-6.0" fill-opacity="0" stroke="black" stroke-width="1" />
<path d="M-9.593828361299067,3.8444156038086765 L-7.976533485550963,3.4616397641013865 L-6.0,6.0" fill-opacity="0" stroke="black" stroke-width="1" />
<path d="M-3.4616397641013865,92.02346651444904 L-6.0,94.0 L-2.612208473764688,94.2326262492085" fill-opacity="0" stroke="black" stroke-width="1" />
<path d="M-3.4616397641013865,-92.02346651444904 L-6.0,-94.0 L-2.612208473764688,-94.2326262492085" fill-opacity="0" stroke="black" stroke-width="1" />
<path d="M-6.0,-6.0 L-5.767373750791499,-2.612208473764688 L-5.514084185807378,-0.25132956692953956" fill-opacity="0" stroke="black" stroke-width="1" />
<path d="M-6.0,6.0 L-5.767373750791499,2.612208473764688 L-5.514084185807378,0.25132956692953956" fill-opacity="0" stroke="black" stroke-width="1" />
<path d="M-5.767373750791499,-2.612208473764688 L-5.514084185807378,-0.25132956692953956 L-3.0045406745096312,-0.21914201087200672" fill-opacity="0" stroke="black" stroke-width="1" />
<path d="M-5.767373750791499,2.612208473764688 L-5.514084185807378,0.25132956692953956 L-3.0045406745096312,0.21914201087200672" fill-opacity="0" stroke="black" stroke-width="1" />
<path d="M-5.514084185807378,-0.25132956692953956 L-3.0045406745096312,-0.21914201087200672 L0.0,-0.0" fill-opacity="0" stroke="black" stroke-width="1" />
<path d="M-5.514084185807378,0.25132956692953956 L-3.0045406745096312,0.21914201087200672 L0.0,-0.0" fill-opacity="0" stroke="black" stroke-width="1" />
<path d="M93.0,-0.0 L81.88476037641703,4.295893583361069 L81.2343883988867,4.728631339377659" fill-opacity="0" stroke="black" stroke-width="1" />
<path d="M93.0,-0.0 L81.88476037641703,-4.295893583361069 L81.2343883988867,-4.728631339377659" fill-opacity="0" stroke="black" stroke-width="1" />
<path d="M81.88476037641703,4.295893583361069 L81.2343883988867,4.728631339377659 L79.82565674992955,5.179832375181065" fill-opacity="0" stroke="black" stroke-width="1" />
<path d="M81.88476037641703,-4.295893583361069 L81.2343883988867,-4.728631339377659 L79.82565674992955,-5.179832375181065" fill-opacity="0" stroke="black" stroke-width="1" />
<path d="M81.2343883988867,4.728631339377659 L79.82565674992955,5.179832375181065 L76.87475951480111,6.7212060412348364" fill-opacity="0" stroke="black" stroke-width="1" />
<path d="M81.2343883988867,-4.728631339377659 L79.82565674992955,-5.179832375181065 L76.87475951480111,-6.7212060412348364" fill-opacity="0" stroke="black" stroke-width="1" />
<path d="M79.82565674992955,5.179832375181065 L76.87475951480111,6.7212060412348364 L76.0,-0.0" fill-opacity="0" stroke="black" stroke-width="1" />
<path d="M79.82565674992955,-5.179832375181065 L76.87475951480111,-6.7212060412348364 L76.0,-0.0" fill-opacity="0" stroke="black" stroke-width="1" />
<path d="M76.0,-0.0 L73.77744841254494,7.909763825343092 L64.07171908829436,8.982274419746167" fill-opacity="0" stroke="black" stroke-width="1" />
<path d="M76.0,-0.0 L73.77744841254494,-7.909763825343092 L64.07171908829436,-8.982274419746167" fill-opacity="0" stroke="black" stroke-width="1" />
<path d="M73.77744841254494,7.909763825343092 L64.07171908829436,8.982274419746167 L63.508232301485386,11.453266212626378" fill-opacity="0" stroke="black" stroke-width="1" />
<path d="M73.77744841254494,-7.909763825343092 L64.07171908829436,-8.982274419746167 L63.508232301485386,-11.453266212626378" fill-opacity="0" stroke="black" stroke-width="1" />
<path d="M64.07171908829436,8.982274419746167 L63.508232301485386,11.453266212626378 L52.0,-0.0" fill-opacity="0" stroke="black" stroke-width="1" />
<path d="M64.07171908829436,-8.982274419746167 L63.508232301485386,-11.453266212626378 L52.0,-0.0" fill-opacity="0" stroke="black" stroke-width="1" />
<path d="M50.0,8.0 L57.802636327401906,22.657684506375166 L57.540898369831815,28.37798684216084" fill-opacity="0" stroke="black" stroke-width="1" />
<path d="M50.0,-8.0 L57.802636327401906,-22.657684506375166 L57.540898369831815,-28.37798684216084" fill-opacity="0" stroke="black" stroke-width="1" />
<path d="M57.802636327401906,22.657684506375166 L57.540898369831815,28.37798684216084 L53.22520608087295,32.28572603205514" fill-opacity="0" stroke="black" stroke-width="1" />
<path d="M57.802636327401906,-22.657684506375166 L57.540898369831815,-28.37798684216084 L53.22520608087295,-32.28572603205514" fill-opacity="0" stroke="black" stroke-width="1" />
<path d="M57.540898369831815,28.37798684216084 L53.22520608087295,32.28572603205514 L53.1777523193886,34.4624208350462" fill-opacity="0" stroke="black" stroke-width="1" />
<path d="M57.540898369831815,-28.37798684216084 L53.22520608087295,-32.28572603205514 L53.1777523193886,-34.4624208350462" fill-opacity="0" stroke="black" stroke-width="1" />
<path d="M53.22520608087295,32.28572603205514 L53.1777523193886,34.4624208350462 L51.1624780534082,34.486879328434554" fill-opacity="0" stroke="black" stroke-width="1" />
<path d="M53.22520608087295,-32.28572603205514 L53.1777523193886,-34.4624208350462 L51.1624780534082,-34.486879328434554" fill-opacity="0" stroke="black" stroke-width="1" />
<path d="M53.1777523193886,34.4624208350462 L51.1624780534082,34.486879328434554 L50.89034241836762,35.79711645961061" fill-opacity="0" stroke="black" stroke-width="1" />
<path d="M53.1777523193886,-34.4624208350462 L51.1624780534082,-34.486879328434554 L50.89034241836762,-35.79711645961061" fill-opacity="0" stroke="black" stroke-width="1" />
<path d="M51.1624780534082,34.486879328434554 L50.89034241836762,35.79711645961061 L50.55171820447771,37.509778904237336" fill-opacity="0" stroke="black" stroke-width="1" />
<path d="M51.1624780534082,-34.486879328434554 L50.89034241836762,-35.79711645961061 L50.55171820447771,-37.509778904237336" fill-opacity="0" stroke="black" stroke-width="1" />
<path d="M50.89034241836762,35.79711645961061 L50.55171820447771,37.509778904237336 L50.0,38.0" fill-opacity="0" stroke="black" stroke-width="1" />
<path d="M50.89034241836762,-35.79711645961061 L50.55171820447771,-37.509778904237336 L50.0,-38.0" fill-opacity="0" stroke="black" stroke-width="1" />
<path d="M62.0,38.0 L67.0,33.0 L90.40617163870093,3.8444156038086765" fill-opacity="0" stroke="black" stroke-width="1" />
<path d="M62.0,-38.0 L67.0,-33.0 L90.40617163870093,-3.8444156038086765" fill-opacity="0" stroke="black" stroke-width="1" />
<path d="M67.0,33.0 L90.40617163870093,3.8444156038086765 L92.02346651444904,3.4616397641013865" fill-opacity="0" stroke="black" stroke-width="1" />
<path d="M67.0,-33.0 L90.40617163870093,-3.8444156038086765 L92.02346651444904,-3.4616397641013865" fill-opacity="0" stroke="black" stroke-width="1" />
<path d="M90.40617163870093,3.8444156038086765 L92.02346651444904,3.4616397641013865 L94.0,6.0" fill-opacity="0" stroke="black" stroke-width="1" />
<path d="M90.40617163870093,-3.8444156038086765 L92.02346651444904,-3.4616397641013865 L94.0,-6.0" fill-opacity="0" stroke="black" stroke-width="1" />
<path d="M92.02346651444904,3.4616397641013865 L94.0,6.0 L94.2326262492085,2.612208473764688" fill-opacity="0" stroke="black" stroke-width="1" />
<path d="M92.02346651444904,-3.4616397641013865 L94.0,-6.0 L94.2326262492085,-2.612208473764688" fill-opacity="0" stroke="black" stroke-width="1" />
<path d="M94.0,6.0 L94.2326262492085,2.612208473764688 L94.48591581419262,0.25132956692953956" fill-opacity="0" stroke="black" stroke-width="1" />
<path d="M94.0,-6.0 L94.2326262492085,-2.612208473764688 L94.48591581419262,-0.25132956692953956" fill-opacity="0" stroke="black" stroke-width="1" />
<path d="M94.2326262492085,2.612208473764688 L94.48591581419262,0.25132956692953956 L96.99545932549037,0.21914201087200672" fill-opacity="0" stroke="black" stroke-width="1" />
<path d="M94.2326262492085,-2.612208473764688 L94.48591581419262,-0.25132956692953956 L96.99545932549037,-0.21914201087200672" fill-opacity="0" stroke="black" stroke-width="1" />
<path d="M94.48591581419262,0.25132956692953956 L96.99545932549037,0.21914201087200672 L100.0,-0.0" fill-opacity="0" stroke="black" stroke-width="1" />
<path d="M94.48591581419262,-0.25132956692953956 L96.99545932549037,-0.21914201087200672 L100.0,-0.0" fill-opacity="0" stroke="black" stroke-width="1" />
<path d="M0.0,-7.0 L4.295893583361069,-18.115239623582962 L4.728631339377659,-18.765611601113307" fill-opacity="0" stroke="black" stroke-width="1" />
<path d="M0.0,7.0 L4.295893583361069,18.115239623582962 L4.728631339377659,18.765611601113307" fill-opacity="0" stroke="black" stroke-width="1" />
<path d="M0.0,93.0 L4.295893583361069,81.88476037641703 L4.728631339377659,81.2343883988867" fill-opacity="0" stroke="black" stroke-width="1" />
<path d="M0.0,-93.0 L4.295893583361069,-81.88476037641703 L4.728631339377659,-81.2343883988867" fill-opacity="0" stroke="black" stroke-width="1" />
<path d="M4.295893583361069,-18.115239623582962 L4.728631339377659,-18.765611601113307 L5.179832375181065,-20.174343250070446" fill-opacity="0" stroke="black" stroke-width="1" />
<path d="M4.295893583361069,18.115239623582962 L4.728631339377659,18.765611601113307 L5.179832375181065,20.174343250070446" fill-opacity="0" stroke="black" stroke-width="1" />
<path d="M4.295893583361069,81.88476037641703 L4.728631339377659,81.2343883988867 L5.179832375181065,79.82565674992955" fill-opacity="0" stroke="black" stroke-width="1" />
<path d="M4.295893583361069,-81.88476037641703 L4.728631339377659,-81.2343883988867 L5.179832375181065,-79.82565674992955" fill-opacity="0" stroke="black" stroke-width="1" />
<path d="M4.728631339377659,-18.765611601113307 L5.179832375181065,-20.174343250070446 L6.7212060412348364,-23.125240485198884" fill-opacity="0" stroke="black" stroke-width="1" />
<path d="M4.728631339377659,18.765611601113307 L5.179832375181065,20.174343250070446 L6.7212060412348364,23.125240485198884" fill-opacity="0" stroke="black" stroke-width="1" />
<path d="M4.728631339377659,81.2343883988867 L5.179832375181065,79.82565674992955 L6.7212060412348364,76.87475951480111" fill-opacity="0" stroke="black" stroke-width="1" />
<path d="M4.728631339377659,-81.2343883988867 L5.179832375181065,-79.82565674992955 L6.7212060412348364,-76.87475951480111" fill-opacity="0" stroke="black" stroke-width="1" />
<path d="M5.179832375181065,-20.174343250070446 L6.7212060412348364,-23.125240485198884 L0.0,-24.0" fill-opacity="0" stroke="black" stroke-width="1" />
<path d="M5.179832375181065,20.174343250070446 L6.7212060412348364,23.125240485198884 L0.0,24.0" fill-opacity="0" stroke="black" stroke-width="1" />
<path d="M5.179832375181065,79.82565674992955 L6.7212060412348364,76.87475951480111 L0.0,76.0" fill-opacity="0" stroke="black" stroke-width="1" />
<path d="M5.179832375181065,-79.82565674992955 L6.7212060412348364,-76.87475951480111 L0.0,-76.0" fill-opacity="0" stroke="black" stroke-width="1" />
<path d="M0.0,-24.0 L7.909763825343092,-26.22255158745505 L8.982274419746167,-35.92828091170564" fill-opacity="0" stroke="black" stroke-width="1" />
<path d="M0.0,24.0 L7.909763825343092,26.22255158745505 L8.982274419746167,35.92828091170564" fill-opacity="0" stroke="black" stroke-width="1" />
<path d="M0.0,76.0 L7.909763825343092,73.77744841254494 L8.982274419746167,64.07171908829436" fill-opacity="0" stroke="black" stroke-width="1" />
<path d="M0.0,-76.0 L7.909763825343092,-73.77744841254494 L8.982274419746167,-64.07171908829436" fill-opacity="0" stroke="black" stroke-width="1" />
<path d="M7.909763825343092,-26.22255158745505 L8.982274419746167,-35.92828091170564 L11.453266212626378,-36.491767698514614" fill-opacity="0" stroke="black" stroke-width="1" />
<path d="M7.909763825343092,26.22255158745505 L8.982274419746167,35.92828091170564 L11.453266212626378,36.491767698514614" fill-opacity="0" stroke="black" stroke-width="1" />
<path d="M7.909763825343092,73.77744841254494 L8.982274419746167,64.07171908829436 L11.453266212626378,63.508232301485386" fill-opacity="0" stroke="black" stroke-width="1" />
<path d="M7.909763825343092,-73.77744841254494 L8.982274419746167,-64.07171908829436 L11.453266212626378,-63.508232301485386" fill-opacity="0" stroke="black" stroke-width="1" />
<path d="M8.982274419746167,-35.92828091170564 L11.453266212626378,-36.491767698514614 L0.0,-48.0" fill-opacity="0" stroke="black" stroke-width="1" />
<path d="M8.982274419746167,35.92828091170564 L11.453266212626378,36.491767698514614 L0.0,48.0" fill-opacity="0" stroke="black" stroke-width="1" />
<path d="M8.982274419746167,64.07171908829436 L11.453266212626378,63.508232301485386 L0.0,52.0" fill-opacity="0" stroke="black" stroke-width="1" />
<path d="M8.982274419746167,-64.07171908829436 L11.453266212626378,-63.508232301485386 L0.0,-52.0" fill-opacity="0" stroke="black" stroke-width="1" />
<path d="M8.0,-50.0 L22.657684506375166,-42.197363672598094 L28.37798684216084,-42.459101630168185" fill-opacity="0" stroke="black" stroke-width="1" />
<path d="M8.0,50.0 L22.657684506375166,42.197363672598094 L28.37798684216084,42.459101630168185" fill-opacity="0" stroke="black" stroke-width="1" />
<path d="M8.0,50.0 L22.657684506375166,57.802636327401906 L28.37798684216084,57.540898369831815" fill-opacity="0" stroke="black" stroke-width="1" />
<path d="M8.0,-50.0 L22.657684506375166,-57.802636327401906 L28.37798684216084,-57.540898369831815" fill-opacity="0" stroke="black" stroke-width="1" />
<path d="M22.657684506375166,-42.197363672598094 L28.37798684216084,-42.459101630168185 L32.28572603205514,-46.77479391912705" fill-opacity="0" stroke="black" stroke-width="1" />
<path d="M22.657684506375166,42.197363672598094 L28.37798684216084,42.459101630168185 L32.28572603205514,46.77479391912705" fill-opacity="0" stroke="black" stroke-width="1" />
<path d="M22.657684506375166,57.802636327401906 L28.37798684216084,57.540898369831815 L32.28572603205514,53.22520608087295" fill-opacity="0" stroke="black" stroke-width="1" />
<path d="M22.657684506375166,-57.802636327401906 L28.37798684216084,-57.540898369831815 L32.28572603205514,-53.22520608087295" fill-opacity="0" stroke="black" stroke-width="1" />
<path d="M28.37798684216084,-42.459101630168185 L32.28572603205514,-46.77479391912705 L34.4624208350462,-46.8222476806114" fill-opacity="0" stroke="black" stroke-width="1" />
<path d="M28.37798684216084,42.459101630168185 L32.28572603205514,46.77479391912705 L34.4624208350462,46.8222476806114" fill-opacity="0" stroke="black" stroke-width="1" />
<path d="M28.37798684216084,57.540898369831815 L32.28572603205514,53.22520608087295 L34.4624208350462,53.1777523193886" fill-opacity="0" stroke="black" stroke-width="1" />
<path d="M28.37798684216084,-57.540898369831815 L32.28572603205514,-53.22520608087295 L34.4624208350462,-53.1777523193886" fill-opacity="0" stroke="black" stroke-width="1" />
<path d="M32.28572603205514,-46.77479391912705 L34.4624208350462,-46.8222476806114 L34.486879328434554,-48.8375219465918" fill-opacity="0" stroke="black" stroke-width="1" />
<path d="M32.28572603205514,46.77479391912705 L34.4624208350462,46.8222476806114 L34.486879328434554,48.8375219465918" fill-opacity="0" stroke="black" stroke-width="1" />
<path d="M32.28572603205514,53.22520608087295 L34.4624208350462,53.1777523193886 L34.486879328434554,51.1624780534082" fill-opacity="0" stroke="black" stroke-width="1" />
<path d="M32.28572603205514,-53.22520608087295 L34.4624208350462,-53.1777523193886 L34.486879328434554,-51.1624780534082" fill-opacity="0" stroke="black" stroke-width="1" />
<path d="M34.4624208350462,-46.8222476806114 L34.486879328434554,-48.8375219465918 L35.79711645961061,-49.10965758163238" fill-opacity="0" stroke="black" stroke-width="1" />
<path d="M34.4624208350462,46.8222476806114 L34.486879328434554,48.8375219465918 L35.79711645961061,49.10965758163238" fill-opacity="0" stroke="black" stroke-width="1" />
<path d="M34.4624208350462,53.1777523193886 L34.486879328434554,51.1624780534082 L35.79711645961061,50.89034241836762" fill-opacity="0" stroke="black" stroke-width="1" />
<path d="M34.4624208350462,-53.1777523193886 L34.486879328434554,-51.1624780534082 L35.79711645961061,-50.89034241836762" fill-opacity="0" stroke="black" stroke-width="1" />
<path d="M34.486879328434554,-48.8375219465918 L35.79711645961061,-49.10965758163238 L37.509778904237336,-49.44828179552229" fill-opacity="0" stroke="black" stroke-width="1" />
<path d="M34.486879328434554,48.8375219465918 L35.79711645961061,49.10965758163238 L37.509778904237336,49.44828179552229" fill-opacity="0" stroke="black" stroke-width="1" />
<path d="M34.486879328434554,51.1624780534082 L35.79711645961061,50.89034241836762 L37.509778904237336,50.55171820447771" fill-opacity="0" stroke="black" stroke-width="1" />
<path d="M34.486879328434554,-51.1624780534082 L35.79711645961061,-50.89034241836762 L37.509778904237336,-50.55171820447771" fill-opacity="0" stroke="black" stroke-width="1" />
<path d="M35.79711645961061,-49.10965758163238 L37.509778904237336,-49.44828179552229 L38.0,-50.0" fill-opacity="0" stroke="black" stroke-width="1" />
<path d="M35.79711645961061,49.10965758163238 L37.509778904237336,49.44828179552229 L38.0,50.0" fill-opacity="0" stroke="black" stroke-width="1" />
<path d="M35.79711645961061,50.89034241836762 L37.509778904237336,50.55171820447771 L38.0,50.0" fill-opacity="0" stroke="black" stroke-width="1" />
<path d="M35.79711645961061,-50.89034241836762 L37.509778904237336,-50.55171820447771 L38.0,-50.0" fill-opacity="0" stroke="black" stroke-width="1" />
<path d="M33.0,-33.0 L3.8444156038086765,-9.593828361299067 L3.4616397641013865,-7.976533485550963" fill-opacity="0" stroke="black" stroke-width="1" />
<path d="M33.0,33.0 L3.8444156038086765,9.593828361299067 L3.4616397641013865,7.976533485550963" fill-opacity="0" stroke="black" stroke-width="1" />
<path d="M33.0,67.0 L3.8444156038086765,90.40617163870093 L3.4616397641013865,92.02346651444904" fill-opacity="0" stroke="black" stroke-width="1" />
<path d="M33.0,-67.0 L3.8444156038086765,-90.40617163870093 L3.4616397641013865,-92.02346651444904" fill-opacity="0" stroke="black" stroke-width="1" />
<path d="M3.8444156038086765,-9.593828361299067 L3.4616397641013865,-7.976533485550963 L6.0,-6.0" fill-opacity="0" stroke="black" stroke-width="1" />
<path d="M3.8444156038086765,9.593828361299067 L3.4616397641013865,7.976533485550963 L6.0,6.0" fill-opacity="0" stroke="black" stroke-width="1" />
<path d="M3.8444156038086765,90.40617163870093 L3.4616397641013865,92.02346651444904 L6.0,94.0" fill-opacity="0" stroke="black" stroke-width="1" />
<path d="M3.8444156038086765,-90.40617163870093 L3.4616397641013865,-92.02346651444904 L6.0,-94.0" fill-opacity="0" stroke="black" stroke-width="1" />
<path d="M6.0,-6.0 L2.612208473764688,-5.767373750791499 L0.25132956692953956,-5.514084185807378" fill-opacity="0" stroke="black" stroke-width="1" />
<path d="M6.0,6.0 L2.612208473764688,5.767373750791499 L0.25132956692953956,5.514084185807378" fill-opacity="0" stroke="black" stroke-width="1" />
<path d="M6.0,94.0 L2.612208473764688,94.2326262492085 L0.25132956692953956,94.48591581419262" fill-opacity="0" stroke="black" stroke-width="1" />
<path d="M6.0,-94.0 L2.612208473764688,-94.2326262492085 L0.25132956692953956,-94.48591581419262" fill-opacity="0" stroke="black" stroke-width="1" />
<path d="M2.612208473764688,-5.767373750791499 L0.25132956692953956,-5.514084185807378 L0.21914201087200672,-3.0045406745096312" fill-opacity="0" stroke="black" stroke-width="1" />
<path d="M2.612208473764688,5.767373750791499 L0.25132956692953956,5.514084185807378 L0.21914201087200672,3.0045406745096312" fill-opacity="0" stroke="black" stroke-width="1" />
<path d="M2.612208473764688,94.2326262492085 L0.25132956692953956,94.48591581419262 L0.21914201087200672,96.99545932549037" fill-opacity="0" stroke="black" stroke-width="1" />
<path d="M2.612208473764688,-94.2326262492085 L0.25132956692953956,-94.48591581419262 L0.21914201087200672,-96.99545932549037" fill-opacity="0" stroke="black" stroke-width="1" />
<path d="M0.25132956692953956,-5.514084185807378 L0.21914201087200672,-3.0045406745096312 L0.0,-0.0" fill-opacity="0" stroke="black" stroke-width="1" />
<path d="M0.25132956692953956,5.514084185807378 L0.21914201087200672,3.0045406745096312 L0.0,-0.0" fill-opacity="0" stroke="black" stroke-width="1" />
<path d="M0.25132956692953956,94.48591581419262 L0.21914201087200672,96.99545932549037 L0.0,100.0" fill-opacity="0" stroke="black" stroke-width="1" />
<path d="M0.25132956692953956,-94.48591581419262 L0.21914201087200672,-96.99545932549037 L0.0,-100.0" fill-opacity="0" stroke="black" stroke-width="1" />
<path d="M0.0,93.0 L-4.295893583361069,81.88476037641703 L-4.728631339377659,81.2343883988867" fill-opacity="0" stroke="black" stroke-width="1" />
<path d="M0.0,-7.0 L-4.295893583361069,-18.115239623582962 L-4.728631339377659,-18.765611601113307" fill-opacity="0" stroke="black" stroke-width="1" />
<path d="M0.0,7.0 L-4.295893583361069,18.115239623582966 L-4.728631339377659,18.765611601113307" fill-opacity="0" stroke="black" stroke-width="1" />
<path d="M0.0,-93.0 L-4.295893583361069,-81.88476037641703 L-4.728631339377659,-81.2343883988867" fill-opacity="0" stroke="black" stroke-width="1" />
<path d="M-4.295893583361069,81.88476037641703 L-4.728631339377659,81.2343883988867 L-5.179832375181065,79.82565674992955" fill-opacity="0" stroke="black" stroke-width="1" />
<path d="M-4.295893583361069,-18.115239623582962 L-4.728631339377659,-18.765611601113307 L-5.179832375181065,-20.174343250070446" fill-opacity="0" stroke="black" stroke-width="1" />
<path d="M-4.295893583361069,18.115239623582966 L-4.728631339377659,18.765611601113307 L-5.179832375181065,20.17434325007045" fill-opacity="0" stroke="black" stroke-width="1" />
<path d="M-4.295893583361069,-81.88476037641703 L-4.728631339377659,-81.2343883988867 L-5.179832375181065,-79.82565674992955" fill-opacity="0" stroke="black" stroke-width="1" />
<path d="M-4.728631339377659,81.2343883988867 L-5.179832375181065,79.82565674992955 L-6.7212060412348364,76.87475951480111" fill-opacity="0" stroke="black" stroke-width="1" />
<path d="M-4.728631339377659,-18.765611601113307 L-5.179832375181065,-20.174343250070446 L-6.7212060412348364,-23.125240485198884" fill-opacity="0" stroke="black" stroke-width="1" />
<path d="M-4.728631339377659,18.765611601113307 L-5.179832375181065,20.17434325007045 L-6.7212060412348364,23.125240485198887" fill-opacity="0" stroke="black" stroke-width="1" />
<path d="M-4.728631339377659,-81.2343883988867 L-5.179832375181065,-79.82565674992955 L-6.7212060412348364,-76.87475951480111" fill-opacity="0" stroke="black" stroke-width="1" />
<path d="M-5.179832375181065,79.82565674992955 L-6.7212060412348364,76.87475951480111 L0.0,76.0" fill-opacity="0" stroke="black" stroke-width="1" />
<path d="M-5.179832375181065,-20.174343250070446 L-6.7212060412348364,-23.125240485198884 L0.0,-24.0" fill-opacity="0" stroke="black" stroke-width="1" />
<path d="M-5.179832375181065,20.17434325007045 L-6.7212060412348364,23.125240485198887 L0.0,24.0" fill-opacity="0" stroke="black" stroke-width="1" />
<path d="M-5.179832375181065,-79.82565674992955 L-6.7212060412348364,-76.87475951480111 L0.0,-76.0" fill-opacity="0" stroke="black" stroke-width="1" />
<path d="M0.0,76.0 L-7.909763825343092,73.77744841254494 L-8.982274419746167,64.07171908829436" fill-opacity="0" stroke="black" stroke-width="1" />
<path d="M0.0,-24.0 L-7.909763825343092,-26.22255158745505 L-8.982274419746167,-35.92828091170564" fill-opacity="0" stroke="black" stroke-width="1" />
<path d="M0.0,24.0 L-7.909763825343092,26.222551587455058 L-8.982274419746167,35.92828091170564" fill-opacity="0" stroke="black" stroke-width="1" />
<path d="M0.0,-76.0 L-7.909763825343092,-73.77744841254494 L-8.982274419746167,-64.07171908829436" fill-opacity="0" stroke="black" stroke-width="1" />
<path d="M-7.909763825343092,73.77744841254494 L-8.982274419746167,64.07171908829436 L-11.453266212626378,63.508232301485386" fill-opacity="0" stroke="black" stroke-width="1" />
<path d="M-7.909763825343092,-26.22255158745505 L-8.982274419746167,-35.92828091170564 L-11.453266212626378,-36.491767698514614" fill-opacity="0" stroke="black" stroke-width="1" />
<path d="M-7.909763825343092,26.222551587455058 L-8.982274419746167,35.92828091170564 L-11.453266212626378,36.491767698514614" fill-opacity="0" stroke="black" stroke-width="1" />
<path d="M-7.909763825343092,-73.77744841254494 L-8.982274419746167,-64.07171908829436 L-11.453266212626378,-63.508232301485386" fill-opacity="0" stroke="black" stroke-width="1" />
<path d="M-8.982274419746167,64.07171908829436 L-11.453266212626378,63.508232301485386 L0.0,52.0" fill-opacity="0" stroke="black" stroke-width="1" />
<path d="M-8.982274419746167,-35.92828091170564 L-11.453266212626378,-36.491767698514614 L0.0,-48.0" fill-opacity="0" stroke="black" stroke-width="1" />
<path d="M-8.982274419746167,35.92828091170564 L-11.453266212626378,36.491767698514614 L0.0,48.0" fill-opacity="0" stroke="black" stroke-width="1" />
<path d="M-8.982274419746167,-64.07171908829436 L-11.453266212626378,-63.508232301485386 L0.0,-52.0" fill-opacity="0" stroke="black" stroke-width="1" />
<path d="M-8.0,50.0 L-22.657684506375166,57.802636327401906 L-28.37798684216084,57.540898369831815" fill-opacity="0" stroke="black" stroke-width="1" />
<path d="M-8.0,-50.0 L-22.657684506375166,-42.197363672598094 L-28.37798684216084,-42.459101630168185" fill-opacity="0" stroke="black" stroke-width="1" />
<path d="M-8.0,50.0 L-22.657684506375166,42.197363672598094 L-28.37798684216084,42.459101630168185" fill-opacity="0" stroke="black" stroke-width="1" />
<path d="M-8.0,-50.0 L-22.657684506375166,-57.802636327401906 L-28.37798684216084,-57.540898369831815" fill-opacity="0" stroke="black" stroke-width="1" />
<path d="M-22.657684506375166,57.802636327401906 L-28.37798684216084,57.540898369831815 L-32.28572603205514,53.22520608087295" fill-opacity="0" stroke="black" stroke-width="1" />
<path d="M-22.657684506375166,-42.197363672598094 L-28.37798684216084,-42.459101630168185 L-32.28572603205514,-46.77479391912705" fill-opacity="0" stroke="black" stroke-width="1" />
<path d="M-22.657684506375166,42.197363672598094 L-28.37798684216084,42.459101630168185 L-32.28572603205514,46.77479391912705" fill-opacity="0" stroke="black" stroke-width="1" />
<path d="M-22.657684506375166,-57.802636327401906 L-28.37798684216084,-57.540898369831815 L-32.28572603205514,-53.22520608087295" fill-opacity="0" stroke="black" stroke-width="1" />
<path d="M-28.37798684216084,57.540898369831815 L-32.28572603205514,53.22520608087295 L-34.4624208350462,53.1777523193886" fill-opacity="0" stroke="black" stroke-width="1" />
<path d="M-28.37798684216084,-42.459101630168185 L-32.28572603205514,-46.77479391912705 L-34.4624208350462,-46.8222476806114" fill-opacity="0" stroke="black" stroke-width="1" />
<path d="M-28.37798684216084,42.459101630168185 L-32.28572603205514,46.77479391912705 L-34.4624208350462,46.8222476806114" fill-opacity="0" stroke="black" stroke-width="1" />
<path d="M-28.37798684216084,-57.540898369831815 L-32.28572603205514,-53.22520608087295 L-34.4624208350462,-53.1777523193886" fill-opacity="0" stroke="black" stroke-width="1" />
<path d="M-32.28572603205514,53.22520608087295 L-34.4624208350462,53.1777523193886 L-34.486879328434554,51.1624780534082" fill-opacity="0" stroke="black" stroke-width="1" />
<path d="M-32.28572603205514,-46.77479391912705 L-34.4624208350462,-46.8222476806114 L-34.486879328434554,-48.8375219465918" fill-opacity="0" stroke="black" stroke-width="1" />
<path d="M-32.28572603205514,46.77479391912705 L-34.4624208350462,46.8222476806114 L-34.486879328434554,48.8375219465918" fill-opacity="0" stroke="black" stroke-width="1" />
<path d="M-32.28572603205514,-53.22520608087295 L-34.4624208350462,-53.1777523193886 L-34.486879328434554,-51.1624780534082" fill-opacity="0" stroke="black" stroke-width="1" />
<path d="M-34.4624208350462,53.1777523193886 L-34.486879328434554,51.1624780534082 L-35.79711645961061,50.89034241836762" fill-opacity="0" stroke="black" stroke-width="1" />
<path d="M-34.4624208350462,-46.8222476806114 L-34.486879328434554,-48.8375219465918 L-35.79711645961061,-49.10965758163238" fill-opacity="0" stroke="black" stroke-width="1" />
<path d="M-34.4624208350462,46.8222476806114 L-34.486879328434554,48.8375219465918 L-35.79711645961061,49.10965758163238" fill-opacity="0" stroke="black" stroke-width="1" />
<path d="M-34.4624208350462,-53.1777523193886 L-34.486879328434554,-51.1624780534082 L-35.79711645961061,-50.89034241836762" fill-opacity="0" stroke="black" stroke-width="1" />
<path d="M-34.486879328434554,51.1624780534082 L-35.79711645961061,50.89034241836762 L-37.509778904237336,50.55171820447771" fill-opacity="0" stroke="black" stroke-width="1" />
<path d="M-34.486879328434554,-48.8375219465918 L-35.79711645961061,-49.10965758163238 L-37.509778904237336,-49.44828179552229" fill-opacity="0" stroke="black" stroke-width="1" />
<path d="M-34.486879328434554,48.8375219465918 L-35.79711645961061,49.10965758163238 L-37.509778904237336,49.44828179552229" fill-opacity="0" stroke="black" stroke-width="1" />
<path d="M-34.486879328434554,-51.1624780534082 L-35.79711645961061,-50.89034241836762 L-37.509778904237336,-50.55171820447771" fill-opacity="0" stroke="black" stroke-width="1" />
<path d="M-35.79711645961061,50.89034241836762 L-37.509778904237336,50.55171820447771 L-38.0,50.0" fill-opacity="0" stroke="black" stroke-width="1" />
<path d="M-35.79711645961061,-49.10965758163238 L-37.509778904237336,-49.44828179552229 L-38.0,-50.0" fill-opacity="0" stroke="black" stroke-width="1" />
<path d="M-35.79711645961061,49.10965758163238 L-37.509778904237336,49.44828179552229 L-38.0,50.0" fill-opacity="0" stroke="black" stroke-width="1" />
<path d="M-35.79711645961061,-50.89034241836762 L-37.509778904237336,-50.55171820447771 L-38.0,-50.0" fill-opacity="0" stroke="black" stroke-width="1" />
<path d="M-33.0,67.0 L-3.8444156038086765,90.40617163870093 L-3.4616397641013865,92.02346651444904" fill-opacity="0" stroke="black" stroke-width="1" />
<path d="M-33.0,-33.0 L-3.8444156038086765,-9.593828361299067 L-3.4616397641013865,-7.976533485550963" fill-opacity="0" stroke="black" stroke-width="1" />
<path d="M-33.0,33.0 L-3.8444156038086765,9.593828361299074 L-3.4616397641013865,7.976533485550959" fill-opacity="0" stroke="black" stroke-width="1" />
<path d="M-33.0,-67.0 L-3.8444156038086765,-90.40617163870093 L-3.4616397641013865,-92.02346651444904" fill-opacity="0" stroke="black" stroke-width="1" />
<path d="M-3.8444156038086765,90.40617163870093 L-3.4616397641013865,92.02346651444904 L-6.0,94.0" fill-opacity="0" stroke="black" stroke-width="1" />
<path d="M-3.8444156038086765,-9.593828361299067 L-3.4616397641013865,-7.976533485550963 L-6.0,-6.0" fill-opacity="0" stroke="black" stroke-width="1" />
<path d="M-3.8444156038086765,9.593828361299074 L-3.4616397641013865,7.976533485550959 L-6.0,6.0" fill-opacity="0" stroke="black" stroke-width="1" />
<path d="M-3.8444156038086765,-90.40617163870093 L-3.4616397641013865,-92.02346651444904 L-6.0,-94.0" fill-opacity="0" stroke="black" stroke-width="1" />
<path d="M-6.0,94.0 L-2.612208473764688,94.2326262492085 L-0.25132956692953956,94.48591581419262" fill-opacity="0" stroke="black" stroke-width="1" />
<path d="M-6.0,-6.0 L-2.612208473764688,-5.767373750791499 L-0.25132956692953956,-5.514084185807378" fill-opacity="0" stroke="black" stroke-width="1" />
<path d="M-6.0,6.0 L-2.612208473764688,5.767373750791506 L-0.25132956692953956,5.514084185807377" fill-opacity="0" stroke="black" stroke-width="1" />
<path d="M-6.0,-94.0 L-2.612208473764688,-94.2326262492085 L-0.25132956692953956,-94.48591581419262" fill-opacity="0" stroke="black" stroke-width="1" />
<path d="M-2.612208473764688,94.2326262492085 L-0.25132956692953956,94.48591581419262 L-0.21914201087200672,96.99545932549037" fill-opacity="0" stroke="black" stroke-width="1" />
<path d="M-2.612208473764688,-5.767373750791499 L-0.25132956692953956,-5.514084185807378 L-0.21914201087200672,-3.0045406745096312" fill-opacity="0" stroke="black" stroke-width="1" />
<path d="M-2.612208473764688,5.767373750791506 L-0.25132956692953956,5.514084185807377 L-0.21914201087200672,3.0045406745096273" fill-opacity="0" stroke="black" stroke-width="1" />
<path d="M-2.612208473764688,-94.2326262492085 L-0.25132956692953956,-94.48591581419262 L-0.21914201087200672,-96.99545932549037" fill-opacity="0" stroke="black" stroke-width="1" />
<path d="M-0.25132956692953956,94.48591581419262 L-0.21914201087200672,96.99545932549037 L0.0,100.0" fill-opacity="0" stroke="black" stroke-width="1" />
<path d="M-0.25132956692953956,-5.514084185807378 L-0.21914201087200672,-3.0045406745096312 L0.0,-0.0" fill-opacity="0" stroke="black" stroke-width="1" />
<path d="M-0.25132956692953956,5.514084185807377 L-0.21914201087200672,3.0045406745096273 L0.0,-0.0" fill-opacity="0" stroke="black" stroke-width="1" />
<path d="M-0.25132956692953956,-94.48591581419262 L-0.21914201087200672,-96.99545932549037 L0.0,-100.0" fill-opacity="0" stroke="black" stroke-width="1" />
<path d="M-93.0,-0.0 L-81.88476037641703,-4.295893583361069 L-81.2343883988867,-4.728631339377659" fill-opacity="0" stroke="black" stroke-width="1" />
<path d="M-93.0,-0.0 L-81.88476037641703,4.295893583361069 L-81.2343883988867,4.728631339377659" fill-opacity="0" stroke="black" stroke-width="1" />
<path d="M-81.88476037641703,-4.295893583361069 L-81.2343883988867,-4.728631339377659 L-79.82565674992955,-5.179832375181065" fill-opacity="0" stroke="black" stroke-width="1" />
<path d="M-81.88476037641703,4.295893583361069 L-81.2343883988867,4.728631339377659 L-79.82565674992955,5.179832375181065" fill-opacity="0" stroke="black" stroke-width="1" />
<path d="M-81.2343883988867,-4.728631339377659 L-79.82565674992955,-5.179832375181065 L-76.87475951480111,-6.7212060412348364" fill-opacity="0" stroke="black" stroke-width="1" />
<path d="M-81.2343883988867,4.728631339377659 L-79.82565674992955,5.179832375181065 L-76.87475951480111,6.7212060412348364" fill-opacity="0" stroke="black" stroke-width="1" />
<path d="M-79.82565674992955,-5.179832375181065 L-76.87475951480111,-6.7212060412348364 L-76.0,-0.0" fill-opacity="0" stroke="black" stroke-width="1" />
<path d="M-79.82565674992955,5.179832375181065 L-76.87475951480111,6.7212060412348364 L-76.0,-0.0" fill-opacity="0" stroke="black" stroke-width="1" />
<path d="M-76.0,-0.0 L-73.77744841254494,-7.909763825343092 L-64.07171908829436,-8.982274419746167" fill-opacity="0" stroke="black" stroke-width="1" />
<path d="M-76.0,-0.0 L-73.77744841254494,7.909763825343092 L-64.07171908829436,8.982274419746167" fill-opacity="0" stroke="black" stroke-width="1" />
<path d="M-73.77744841254494,-7.909763825343092 L-64.07171908829436,-8.982274419746167 L-63.508232301485386,-11.453266212626378" fill-opacity="0" stroke="black" stroke-width="1" />
<path d="M-73.77744841254494,7.909763825343092 L-64.07171908829436,8.982274419746167 L-63.508232301485386,11.453266212626378" fill-opacity="0" stroke="black" stroke-width="1" />
<path d="M-64.07171908829436,-8.982274419746167 L-63.508232301485386,-11.453266212626378 L-52.0,-0.0" fill-opacity="0" stroke="black" stroke-width="1" />
<path d="M-64.07171908829436,8.982274419746167 L-63.508232301485386,11.453266212626378 L-52.0,-0.0" fill-opacity="0" stroke="black" stroke-width="1" />
<path d="M-50.0,-8.0 L-57.802636327401906,-22.657684506375166 L-57.540898369831815,-28.37798684216084" fill-opacity="0" stroke="black" stroke-width="1" />
<path d="M-50.0,8.0 L-57.802636327401906,22.657684506375166 L-57.540898369831815,28.37798684216084" fill-opacity="0" stroke="black" stroke-width="1" />
<path d="M-57.802636327401906,-22.657684506375166 L-57.540898369831815,-28.37798684216084 L-53.22520608087295,-32.28572603205514" fill-opacity="0" stroke="black" stroke-width="1" />
<path d="M-57.802636327401906,22.657684506375166 L-57.540898369831815,28.37798684216084 L-53.22520608087295,32.28572603205514" fill-opacity="0" stroke="black" stroke-width="1" />
<path d="M-57.540898369831815,-28.37798684216084 L-53.22520608087295,-32.28572603205514 L-53.1777523193886,-34.4624208350462" fill-opacity="0" stroke="black" stroke-width="1" />
<path d="M-57.540898369831815,28.37798684216084 L-53.22520608087295,32.28572603205514 L-53.1777523193886,34.4624208350462" fill-opacity="0" stroke="black" stroke-width="1" />
<path d="M-53.22520608087295,-32.28572603205514 L-53.1777523193886,-34.4624208350462 L-51.1624780534082,-34.486879328434554" fill-opacity="0" stroke="black" stroke-width="1" />
<path d="M-53.22520608087295,32.28572603205514 L-53.1777523193886,34.4624208350462 L-51.1624780534082,34.486879328434554" fill-opacity="0" stroke="black" stroke-width="1" />
<path d="M-53.1777523193886,-34.4624208350462 L-51.1624780534082,-34.486879328434554 L-50.89034241836762,-35.79711645961061" fill-opacity="0" stroke="black" stroke-width="1" />
<path d="M-53.1777523193886,34.4624208350462 L-51.1624780534082,34.486879328434554 L-50.89034241836762,35.79711645961061" fill-opacity="0" stroke="black" stroke-width="1" />
<path d="M-51.1624780534082,-34.486879328434554 L-50.89034241836762,-35.79711645961061 L-50.55171820447771,-37.509778904237336" fill-opacity="0" stroke="black" stroke-width="1" />
<path d="M-51.1624780534082,34.486879328434554 L-50.89034241836762,35.79711645961061 L-50.55171820447771,37.509778904237336" fill-opacity="0" stroke="black" stroke-width="1" />
<path d="M-50.89034241836762,-35.79711645961061 L-50.55171820447771,-37.509778904237336 L-50.0,-38.0" fill-opacity="0" stroke="black" stroke-width="1" />
<path d="M-50.89034241836762,35.79711645961061 L-50.55171820447771,37.509778904237336 L-50.0,38.0" fill-opacity="0" stroke="black" stroke-width="1" />
<path d="M-62.0,-38.0 L-67.0,-33.0 L-90.40617163870093,-3.8444156038086765" fill-opacity="0" stroke="black" stroke-width="1" />
<path d="M-62.0,38.0 L-67.0,33.0 L-90.40617163870093,3.8444156038086765" fill-opacity="0" stroke="black" stroke-width="1" />
<path d="M-67.0,-33.0 L-90.40617163870093,-3.8444156038086765 L-92.02346651444904,-3.4616397641013865" fill-opacity="0" stroke="black" stroke-width="1" />
<path d="M-67.0,33.0 L-90.40617163870093,3.8444156038086765 L-92.02346651444904,3.4616397641013865" fill-opacity="0" stroke="black" stroke-width="1" />
<path d="M-90.40617163870093,-3.8444156038086765 L-92.02346651444904,-3.4616397641013865 L-94.0,-6.0" fill-opacity="0" stroke="black" stroke-width="1" />
<path d="M-90.40617163870093,3.8444156038086765 L-92.02346651444904,3.4616397641013865 L-94.0,6.0" fill-opacity="0" stroke="black" stroke-width="1" />
<path d="M-92.02346651444904,-3.4616397641013865 L-94.0,-6.0 L-94.2326262492085,-2.612208473764688" fill-opacity="0" stroke="black" stroke-width="1" />
<path d="M-92.02346651444904,3.4616397641013865 L-94.0,6.0 L-94.2326262492085,2.612208473764688" fill-opacity="0" stroke="black" stroke-width="1" />
<path d="M-94.0,-6.0 L-94.2326262492085,-2.612208473764688 L-94.48591581419262,-0.25132956692953956" fill-opacity="0" stroke="black" stroke-width="1" />
<path d="M-94.0,6.0 L-94.2326262492085,2.612208473764688 L-94.48591581419262,0.25132956692953956" fill-opacity="0" stroke="black" stroke-width="1" />
<path d="M-94.2326262492085,-2.612208473764688 L-94.48591581419262,-0.25132956692953956 L-96.99545932549037,-0.21914201087200672" fill-opacity="0" stroke="black" stroke-width="1" />
<path d="M-94.2326262492085,2.612208473764688 L-94.48591581419262,0.25132956692953956 L-96.99545932549037,0.21914201087200672" fill-opacity="0" stroke="black" stroke-width="1" />
<path d="M-94.48591581419262,-0.25132956692953956 L-96.99545932549037,-0.21914201087200672 L-100.0,-0.0" fill-opacity="0" stroke="black" stroke-width="1" />
<path d="M-94.48591581419262,0.25132956692953956 L-96.99545932549037,0.21914201087200672 L-100.0,-0.0" fill-opacity="0" stroke="black" stroke-width="1" />
<circle cx="0" cy="-97" r="8" stroke-dasharray="39.653880605311166 10.611601852125524" stroke-dashoffset="-17.59291886010284" stroke="black" stroke-width="1" fill="white" fill-opacity="1" />
<circle cx="0" cy="-97" r="4" stroke="black" stroke-width="1" fill="white" fill-opacity="1" />
</svg>