<?xml version="1.0" encoding="UTF-8"?>
<svg xmlns="http://www.w3.org/2000/svg" xmlns:xlink="http://www.w3.org/1999/xlink"
     width="250" height="250" viewBox="-125.0 -125.0 250 250">
<defs>
</defs>
<path d="M3.0,-0.0 L17.646326878461295,-1.4874540947229313 L27.0,-0.0" fill="pink" fill-opacity="0.6" stroke="black" stroke-width="1" />
<path d="M3.0,-0.0 L17.646326878461295,1.4874540947229313 L27.0,-0.0" fill="yellow" fill-opacity="0.6" stroke="black" stroke-width="1" />
<path d="M39.0,50.0 L41.0,59.0 L40.0,60.0" fill="purple" fill-opacity="0.6" stroke="black" stroke-width="1" />
<path d="M39.0,-50.0 L41.0,-59.0 L40.0,-60.0" fill="green" fill-opacity="0.6" stroke="black" stroke-width="1" />
<path d="M41.0,59.0 L40.0,60.0 L37.0,63.0" fill="brown" fill-opacity="0.6" stroke="black" stroke-width="1" />
<path d="M41.0,-59.0 L40.0,-60.0 L37.0,-63.0" fill="brown" fill-opacity="0.6" stroke="black" stroke-width="1" />
<path d="M40.0,60.0 L37.0,63.0 L0.0,100.0" fill="pink" fill-opacity="0.6" stroke="black" stroke-width="1" />
<path d="M40.0,-60.0 L37.0,-63.0 L0.0,-100.0" fill="blue" fill-opacity="0.6" stroke="black" stroke-width="1" />
<path d="M-3.0,-0.0 L-17.646326878461295,-1.4874540947229313 L-27.0,-0.0" fill="black" fill-opacity="0.6" stroke="black" stroke-width="1" />
<path d="M-3.0,-0.0 L-17.646326878461295,1.4874540947229313 L-27.0,-0.0" fill="green" fill-opacity="0.6" stroke="black" stroke-width="1" />
<path d="M-39.0,50.0 L-41.0,59.0 L-40.0,60.0" fill="brown" fill-opacity="0.6" stroke="black" stroke-width="1" />
<path d="M-39.0,-50.0 L-41.0,-59.0 L-40.0,-60.0" fill="blue" fill-opacity="0.6" stroke="black" stroke-width="1" />
<path d="M-41.0,59.0 L-40.0,60.0 L-37.0,63.0" fill="pink" fill-opacity="0.6" stroke="black" stroke-width="1" />
<path d="M-41.0,-59.0 L-40.0,-60.0 L-37.0,-63.0" fill="brown" fill-opacity="0.6" stroke="black" stroke-width="1" />
<path d="M-40.0,60.0 L-37.0,63.0 L0.0,100.0" fill="black" fill-opacity="0.6" stroke="black" stroke-width="1" />
<path d="M-40.0,-60.0 L-37.0,-63.0 L0.0,-100.0" fill="orange" fill-opacity="0.6" stroke="black" stroke-width="1" />
<path d="M97.0,-0.0 L82.3536731215387,1.4874540947229313 L73.0,-0.0" fill="black" fill-opacity="0.6" stroke="black" stroke-width="1" />
<path d="M97.0,-0.0 L82.3536731215387,-1.4874540947229313 L73.0,-0.0" fill="orange" fill-opacity="0.6" stroke="black" stroke-width="1" />
<path d="M50.0,39.0 L59.0,41.0 L60.0,40.0" fill="blue" fill-opacity="0.6" stroke="black" stroke-width="1" />
<path d="M50.0,-39.0 L59.0,-41.0 L60.0,-40.0" fill="black" fill-opacity="0.6" stroke="black" stroke-width="1" />
<path d="M59.0,41.0 L60.0,40.0 L63.0,37.0" fill="blue" fill-opacity="0.6" stroke="black" stroke-width="1" />
<path d="M59.0,-41.0 L60.0,-40.0 L63.0,-37.0" fill="brown" fill-opacity="0.6" stroke="black" stroke-width="1" />
<path d="M60.0,40.0 L63.0,37.0 L100.0,-0.0" fill="green" fill-opacity="0.6" stroke="black" stroke-width="1" />
<path d="M60.0,-40.0 L63.0,-37.0 L100.0,-0.0" fill="orange" fill-opacity="0.6" stroke="black" stroke-width="1" />
<path d="M0.0,-3.0 L1.4874540947229313,-17.646326878461295 L0.0,-27.0" fill="pink" fill-opacity="0.6" stroke="black" stroke-width="1" />
<path d="M0.0,3.0 L1.4874540947229313,17.646326878461295 L0.0,27.0" fill="green" fill-opacity="0.6" stroke="black" stroke-width="1" />
<path d="M0.0,97.0 L1.4874540947229313,82.3536731215387 L0.0,73.0" fill="blue" fill-opacity="0.6" stroke="black" stroke-width="1" />
<path d="M0.0,-97.0 L1.4874540947229313,-82.3536731215387 L0.0,-73.0" fill="orange" fill-opacity="0.6" stroke="black" stroke-width="1" />
<path d="M0.0,97.0 L-1.4874540947229313,82.3536731215387 L0.0,73.0" fill="pink" fill-opacity="0.6" stroke="black" stroke-width="1" />
<path d="M0.0,-3.0 L-1.4874540947229313,-17.646326878461295 L0.0,-27.0" fill="green" fill-opacity="0.6" stroke="black" stroke-width="1" />
<path d="M0.0,3.0 L-1.4874540947229313,17.646326878461295 L0.0,27.0" fill="yellow" fill-opacity="0.6" stroke="black" stroke-width="1" />
<path d="M0.0,-97.0 L-1.4874540947229313,-82.3536731215387 L0.0,-73.0" fill="brown" fill-opacity="0.6" stroke="black" stroke-width="1" />
<path d="M-97.0,-0.0 L-82.3536731215387,-1.4874540947229313 L-73.0,-0.0" fill="yellow" fill-opacity="0.6" stroke="black" stroke-width="1" />
<path d="M-97.0,-0.0 L-82.3536731215387,1.4874540947229313 L-73.0,-0.0" fill="yellow" fill-opacity="0.6" stroke="black" stroke-width="1" />
<path d="M-50.0,-39.0 L-59.0,-41.0 L-60.0,-40.0" fill="purple" fill-opacity="0.6" stroke="black" stroke-width="1" />
<path d="M-50.0,39.0 L-59.0,41.0 L-60.0,40.0" fill="purple" fill-opacity="0.6" stroke="black" stroke-width="1" />
<path d="M-59.0,-41.0 L-60.0,-40.0 L-63.0,-37.0" fill="red" fill-opacity="0.6" stroke="black" stroke-width="1" />
<path d="M-59.0,41.0 L-60.0,40.0 L-63.0,37.0" fill="red" fill-opacity="0.6" stroke="black" stroke-width="1" />
<path d="M-60.0,-40.0 L-63.0,-37.0 L-100.0,-0.0" fill="purple" fill-opacity="0.6" stroke="black" stroke-width="1" />
<path d="M-60.0,40.0 L-63.0,37.0 L-100.0,-0.0" fill="brown" fill-opacity="0.6" stroke="black" stroke-width="1" />
</svg>