<?xml version="1.0" encoding="UTF-8"?>
<svg xmlns="http://www.w3.org/2000/svg" xmlns:xlink="http://www.w3.org/1999/xlink"
     width="250" height="250" viewBox="-125.0 -125.0 250 250">
<defs>
</defs>
<path d="M0.0,-0.0 l4.0,-0.0 l10.0,-0.0 l2.002634217422216,-2.8435665622502104 l3.381792206120373,-0.4741915028955379 l1.0088133049971049,-0.1989199622864759 l3.5767233322635263,-0.18842510210873842 l1.6721877668882215,-1.3462999415562362 l1.3721354596570272,-7.9650648309117615 l7.985713712651531,13.01646790200896 l-1.8632520049873236,-19.247119063568473 l14.24440168677674,-9.827725209340954 l2.6188503182105833,-1.9251557270905728 l0.0,-2.0 l0.0,-14.0 l0.0,-3.0 l-6.0,6.0 l-5.0,5.0 l-30.0,30.0 l-1.1608890148187587,6.551012693731695 l-3.566757474703847,1.455762269710469 Z" stroke-width="1" stroke="grey" fill="purple" fill-opacity="0" />
<path d="M0.0,-0.0 l4.0,-0.0 l10.0,-0.0 l2.002634217422216,2.8435665622502104 l3.381792206120373,0.4741915028955379 l1.0088133049971049,0.1989199622864759 l3.5767233322635263,0.18842510210873842 l1.6721877668882215,1.3462999415562362 l1.3721354596570272,7.9650648309117615 l7.985713712651531,-13.01646790200896 l-1.8632520049873236,19.247119063568473 l14.24440168677674,9.827725209340954 l2.6188503182105833,1.9251557270905728 l0.0,2.0 l0.0,14.0 l0.0,3.0 l-6.0,-6.0 l-5.0,-5.0 l-30.0,-30.0 l-1.1608890148187587,-6.551012693731695 l-3.566757474703847,-1.455762269710469 Z" stroke-width="1" stroke="grey" fill="orange" fill-opacity="0" />
<path d="M0.0,-0.0 l-4.0,-0.0 l-10.0,-0.0 l-2.002634217422216,-2.8435665622502104 l-3.381792206120373,-0.4741915028955379 l-1.0088133049971049,-0.1989199622864759 l-3.5767233322635263,-0.18842510210873842 l-1.6721877668882215,-1.3462999415562362 l-1.3721354596570272,-7.9650648309117615 l-7.985713712651531,13.01646790200896 l1.8632520049873236,-19.247119063568473 l-14.24440168677674,-9.827725209340954 l-2.6188503182105833,-1.9251557270905728 l0.0,-2.0 l0.0,-14.0 l0.0,-3.0 l6.0,6.0 l5.0,5.0 l30.0,30.0 l1.1608890148187587,6.551012693731695 l3.566757474703847,1.455762269710469 Z" stroke-width="1" stroke="grey" fill="purple" fill-opacity="0" />
<path d="M100.0,-0.0 l-4.0,-0.0 l-10.0,-0.0 l-2.0026342174222123,2.8435665622502104 l-3.3817922061203802,0.4741915028955379 l-1.0088133049971049,0.1989199622864759 l-3.5767233322635263,0.18842510210873842 l-1.6721877668882144,1.3462999415562362 l-1.3721354596570308,7.9650648309117615 l-7.985713712651531,-13.01646790200896 l1.8632520049873165,19.247119063568473 l-14.244401686776733,9.827725209340954 l-2.6188503182105833,1.9251557270905728 l0.0,2.0 l0.0,14.0 l0.0,3.0 l6.0,-6.0 l5.0,-5.0 l30.0,-30.0 l1.160889014818764,-6.551012693731695 l3.5667574747038486,-1.455762269710469 Z" stroke-width="1" stroke="grey" fill="pink" fill-opacity="0" />
<path d="M0.0,-0.0 l0.0,-4.0 l0.0,-10.0 l2.8435665622502104,-2.002634217422216 l0.4741915028955379,-3.381792206120373 l0.1989199622864759,-1.0088133049971049 l0.18842510210873842,-3.5767233322635263 l1.3462999415562362,-1.6721877668882215 l7.9650648309117615,-1.3721354596570272 l-13.01646790200896,-7.985713712651531 l19.247119063568473,1.8632520049873236 l9.827725209340954,-14.24440168677674 l1.9251557270905728,-2.6188503182105833 l2.0,-0.0 l14.0,-0.0 l3.0,-0.0 l-6.0,6.0 l-5.0,5.0 l-30.0,30.0 l-6.551012693731695,1.1608890148187587 l-1.455762269710469,3.566757474703847 Z" stroke-width="1" stroke="grey" fill="blue" fill-opacity="0" />
<path d="M0.0,-0.0 l0.0,4.0 l0.0,10.0 l2.8435665622502104,2.002634217422216 l0.4741915028955379,3.381792206120373 l0.1989199622864759,1.0088133049971049 l0.18842510210873842,3.5767233322635263 l1.3462999415562362,1.6721877668882215 l7.9650648309117615,1.3721354596570272 l-13.01646790200896,7.985713712651531 l19.247119063568473,-1.8632520049873236 l9.827725209340954,14.24440168677674 l1.9251557270905728,2.6188503182105833 l2.0,-0.0 l14.0,-0.0 l3.0,-0.0 l-6.0,-6.0 l-5.0,-5.0 l-30.0,-30.0 l-6.551012693731695,-1.1608890148187587 l-1.455762269710469,-3.566757474703847 Z" stroke-width="1" stroke="grey" fill="green" fill-opacity="0" />
<path d="M0.0,-0.0 l-4.0,-0.0 l-10.0,-0.0 l-2.002634217422216,2.8435665622502104 l-3.381792206120373,0.4741915028955379 l-1.0088133049971049,0.1989199622864759 l-3.5767233322635263,0.18842510210873842 l-1.6721877668882215,1.3462999415562362 l-1.3721354596570272,7.9650648309117615 l-7.985713712651531,-13.01646790200896 l1.8632520049873236,19.247119063568473 l-14.24440168677674,9.827725209340954 l-2.6188503182105833,1.9251557270905728 l0.0,2.0 l0.0,14.0 l0.0,3.0 l6.0,-6.0 l5.0,-5.0 l30.0,-30.0 l1.1608890148187587,-6.551012693731695 l3.566757474703847,-1.455762269710469 Z" stroke-width="1" stroke="grey" fill="brown" fill-opacity="0" />
<path d="M0.0,100.0 l0.0,-4.0 l0.0,-10.0 l-2.8435665622502104,-2.0026342174222123 l-0.4741915028955379,-3.3817922061203802 l-0.1989199622864759,-1.0088133049971049 l-0.18842510210873842,-3.5767233322635263 l-1.3462999415562362,-1.6721877668882144 l-7.9650648309117615,-1.3721354596570308 l13.01646790200896,-7.985713712651531 l-19.247119063568473,1.8632520049873165 l-9.827725209340954,-14.244401686776733 l-1.9251557270905728,-2.6188503182105833 l-2.0,-0.0 l-14.0,-0.0 l-3.0,-0.0 l6.0,6.0 l5.0,5.0 l30.0,30.0 l6.551012693731695,1.160889014818764 l1.455762269710469,3.5667574747038486 Z" stroke-width="1" stroke="grey" fill="purple" fill-opacity="0" />
<path d="M0.0,-0.0 l0.0,-4.0 l0.0,-10.0 l-2.8435665622502104,-2.002634217422216 l-0.4741915028955379,-3.381792206120373 l-0.1989199622864759,-1.0088133049971049 l-0.18842510210873842,-3.5767233322635263 l-1.3462999415562362,-1.6721877668882215 l-7.9650648309117615,-1.3721354596570272 l13.01646790200896,-7.985713712651531 l-19.247119063568473,1.8632520049873236 l-9.827725209340954,-14.24440168677674 l-1.9251557270905728,-2.6188503182105833 l-2.0,-0.0 l-14.0,-0.0 l-3.0,-0.0 l6.0,6.0 l5.0,5.0 l30.0,30.0 l6.551012693731695,1.1608890148187587 l1.455762269710469,3.566757474703847 Z" stroke-width="1" stroke="grey" fill="pink" fill-opacity="0" />
<path d="M100.0,-0.0 l-4.0,-0.0 l-10.0,-0.0 l-2.0026342174222123,-2.8435665622502104 l-3.3817922061203802,-0.4741915028955379 l-1.0088133049971049,-0.1989199622864759 l-3.5767233322635263,-0.18842510210873842 l-1.6721877668882144,-1.3462999415562362 l-1.3721354596570308,-7.9650648309117615 l-7.985713712651531,13.01646790200896 l1.8632520049873165,-19.247119063568473 l-14.244401686776733,-9.827725209340954 l-2.6188503182105833,-1.9251557270905728 l0.0,-2.0 l0.0,-14.0 l0.0,-3.0 l6.0,6.0 l5.0,5.0 l30.0,30.0 l1.160889014818764,6.551012693731695 l3.5667574747038486,1.455762269710469 Z" stroke-width="1" stroke="grey" fill="black" fill-opacity="0" />
<path d="M-100.0,-0.0 l4.0,-0.0 l10.0,-0.0 l2.0026342174222123,-2.8435665622502104 l3.3817922061203802,-0.4741915028955379 l1.0088133049971049,-0.1989199622864759 l3.5767233322635263,-0.18842510210873842 l1.6721877668882144,-1.3462999415562362 l1.3721354596570308,-7.9650648309117615 l7.985713712651531,13.01646790200896 l-1.8632520049873165,-19.247119063568473 l14.244401686776733,-9.827725209340954 l2.6188503182105833,-1.9251557270905728 l0.0,-2.0 l0.0,-14.0 l0.0,-3.0 l-6.0,6.0 l-5.0,5.0 l-30.0,30.0 l-1.160889014818764,6.551012693731695 l-3.5667574747038486,1.455762269710469 Z" stroke-width="1" stroke="grey" fill="blue" fill-opacity="0" />
<path d="M0.0,100.0 l0.0,-4.0 l0.0,-10.0 l2.8435665622502104,-2.0026342174222123 l0.4741915028955379,-3.3817922061203802 l0.1989199622864759,-1.0088133049971049 l0.18842510210873842,-3.5767233322635263 l1.3462999415562362,-1.6721877668882144 l7.9650648309117615,-1.3721354596570308 l-13.01646790200896,-7.985713712651531 l19.247119063568473,1.8632520049873165 l9.827725209340954,-14.244401686776733 l1.9251557270905728,-2.6188503182105833 l2.0,-0.0 l14.0,-0.0 l3.0,-0.0 l-6.0,6.0 l-5.0,5.0 l-30.0,30.0 l-6.551012693731695,1.160889014818764 l-1.455762269710469,3.5667574747038486 Z" stroke-width="1" stroke="grey" fill="black" fill-opacity="0" />
<path d="M0.0,-100.0 l0.0,4.0 l0.0,10.0 l2.8435665622502104,2.0026342174222123 l0.4741915028955379,3.3817922061203802 l0.1989199622864759,1.0088133049971049 l0.18842510210873842,3.5767233322635263 l1.3462999415562362,1.6721877668882144 l7.9650648309117615,1.3721354596570308 l-13.01646790200896,7.985713712651531 l19.247119063568473,-1.8632520049873165 l9.827725209340954,14.244401686776733 l1.9251557270905728,2.6188503182105833 l2.0,-0.0 l14.0,-0.0 l3.0,-0.0 l-6.0,-6.0 l-5.0,-5.0 l-30.0,-30.0 l-6.551012693731695,-1.160889014818764 l-1.455762269710469,-3.5667574747038486 Z" stroke-width="1" stroke="grey" fill="black" fill-opacity="0" />
<path d="M0.0,-0.0 l0.0,4.0 l0.0,10.0 l-2.8435665622502104,2.0026342174222123 l-0.4741915028955379,3.3817922061203802 l-0.1989199622864759,1.0088133049971049 l-0.18842510210873842,3.5767233322635263 l-1.3462999415562362,1.6721877668882144 l-7.9650648309117615,1.3721354596570308 l13.01646790200896,7.985713712651531 l-19.247119063568473,-1.8632520049873165 l-9.827725209340954,14.244401686776733 l-1.9251557270905728,2.6188503182105833 l-2.0,-0.0 l-14.0,-0.0 l-3.0,-0.0 l6.0,-6.0 l5.0,-5.0 l30.0,-30.0 l6.551012693731695,-1.160889014818764 l1.455762269710469,-3.5667574747038486 Z" stroke-width="1" stroke="grey" fill="brown" fill-opacity="0" />
<path d="M-100.0,-0.0 l4.0,-0.0 l10.0,-0.0 l2.0026342174222123,2.8435665622502104 l3.3817922061203802,0.4741915028955379 l1.0088133049971049,0.1989199622864759 l3.5767233322635263,0.18842510210873842 l1.6721877668882144,1.3462999415562362 l1.3721354596570308,7.9650648309117615 l7.985713712651531,-13.01646790200896 l-1.8632520049873165,19.247119063568473 l14.244401686776733,9.827725209340954 l2.6188503182105833,1.9251557270905728 l0.0,2.0 l0.0,14.0 l0.0,3.0 l-6.0,-6.0 l-5.0,-5.0 l-30.0,-30.0 l-1.160889014818764,-6.551012693731695 l-3.5667574747038486,-1.455762269710469 Z" stroke-width="1" stroke="grey" fill="pink" fill-opacity="0" />
<path d="M0.0,-100.0 l0.0,4.0 l0.0,10.0 l-2.8435665622502104,2.0026342174222123 l-0.4741915028955379,3.3817922061203802 l-0.1989199622864759,1.0088133049971049 l-0.18842510210873842,3.5767233322635263 l-1.3462999415562362,1.6721877668882144 l-7.9650648309117615,1.3721354596570308 l13.01646790200896,7.985713712651531 l-19.247119063568473,-1.8632520049873165 l-9.827725209340954,14.244401686776733 l-1.9251557270905728,2.6188503182105833 l-2.0,-0.0 l-14.0,-0.0 l-3.0,-0.0 l6.0,-6.0 l5.0,-5.0 l30.0,-30.0 l6.551012693731695,-1.160889014818764 l1.455762269710469,-3.5667574747038486 Z" stroke-width="1" stroke="grey" fill="pink" fill-opacity="0" />
</svg>