<?xml version="1.0" encoding="UTF-8"?>
<svg xmlns="http://www.w3.org/2000/svg" xmlns:xlink="http://www.w3.org/1999/xlink"
     width="250" height="250" viewBox="-125.0 -125.0 250 250">
<defs>
</defs>
<path d="M0.0,-0.0 L11.427313206434214,-2.9737196269367603 L14.0,-0.0" fill-opacity="0" stroke="black" stroke-width="1" />
<path d="M0.0,-0.0 L11.427313206434214,2.9737196269367603 L14.0,-0.0" fill-opacity="0" stroke="black" stroke-width="1" />
<path d="M14.0,-0.0 L14.61840332634161,-3.1640462794070565 L17.034891064056456,-3.1794132473801797" fill-opacity="0" stroke="black" stroke-width="1" />
<path d="M14.0,-0.0 L14.61840332634161,3.1640462794070565 L17.034891064056456,3.1794132473801797" fill-opacity="0" stroke="black" stroke-width="1" />
<path d="M14.61840332634161,-3.1640462794070565 L17.034891064056456,-3.1794132473801797 L24.503393890188352,-9.24404531954775" fill-opacity="0" stroke="black" stroke-width="1" />
<path d="M14.61840332634161,3.1640462794070565 L17.034891064056456,3.1794132473801797 L24.503393890188352,9.24404531954775" fill-opacity="0" stroke="black" stroke-width="1" />
<path d="M17.034891064056456,-3.1794132473801797 L24.503393890188352,-9.24404531954775 L33.929969645898694,-15.623380138014067" fill-opacity="0" stroke="black" stroke-width="1" />
<path d="M17.034891064056456,3.1794132473801797 L24.503393890188352,9.24404531954775 L33.929969645898694,15.623380138014067" fill-opacity="0" stroke="black" stroke-width="1" />
<path d="M24.503393890188352,-9.24404531954775 L33.929969645898694,-15.623380138014067 L39.0,-0.0" fill-opacity="0" stroke="black" stroke-width="1" />
<path d="M24.503393890188352,9.24404531954775 L33.929969645898694,15.623380138014067 L39.0,-0.0" fill-opacity="0" stroke="black" stroke-width="1" />
<path d="M50.0,-14.0 L44.38330754571216,-16.581040800608367 L50.0,-25.0" fill-opacity="0" stroke="black" stroke-width="1" />
<path d="M50.0,14.0 L44.38330754571216,16.581040800608367 L50.0,25.0" fill-opacity="0" stroke="black" stroke-width="1" />
<path d="M50.0,-25.0 L45.273939744629466,-33.36871800784003 L50.0,-47.0" fill-opacity="0" stroke="black" stroke-width="1" />
<path d="M50.0,25.0 L45.273939744629466,33.36871800784003 L50.0,47.0" fill-opacity="0" stroke="black" stroke-width="1" />
<path d="M50.0,50.0 L48.0,52.0 L43.28230949891374,53.55470407654542" fill-opacity="0" stroke="black" stroke-width="1" />
<path d="M50.0,-50.0 L48.0,-52.0 L43.28230949891374,-53.55470407654542" fill-opacity="0" stroke="black" stroke-width="1" />
<path d="M48.0,-48.0 L46.44529592345458,-43.28230949891374 L34.0,-34.0" fill-opacity="0" stroke="black" stroke-width="1" />
<path d="M48.0,48.0 L46.44529592345458,43.28230949891374 L34.0,34.0" fill-opacity="0" stroke="black" stroke-width="1" />
<path d="M43.28230949891374,53.55470407654542 L34.0,66.0 L28.0,72.0" fill-opacity="0" stroke="black" stroke-width="1" />
<path d="M43.28230949891374,-53.55470407654542 L34.0,-66.0 L28.0,-72.0" fill-opacity="0" stroke="black" stroke-width="1" />
<path d="M34.0,66.0 L28.0,72.0 L18.0,82.0" fill-opacity="0" stroke="black" stroke-width="1" />
<path d="M34.0,-66.0 L28.0,-72.0 L18.0,-82.0" fill-opacity="0" stroke="black" stroke-width="1" />
<path d="M28.0,72.0 L18.0,82.0 L1.4102705271567872,92.57694824716594" fill-opacity="0" stroke="black" stroke-width="1" />
<path d="M28.0,-72.0 L18.0,-82.0 L1.4102705271567872,-92.57694824716594" fill-opacity="0" stroke="black" stroke-width="1" />
<path d="M18.0,-18.0 L7.423051752834059,-1.4102705271567872 L7.090976575188835,-0.8031271703556452" fill-opacity="0" stroke="black" stroke-width="1" />
<path d="M18.0,18.0 L7.423051752834059,1.4102705271567872 L7.090976575188835,0.8031271703556452" fill-opacity="0" stroke="black" stroke-width="1" />
<path d="M7.423051752834059,-1.4102705271567872 L7.090976575188835,-0.8031271703556452 L6.670680920156907,-0.5811505357111835" fill-opacity="0" stroke="black" stroke-width="1" />
<path d="M7.423051752834059,1.4102705271567872 L7.090976575188835,0.8031271703556452 L6.670680920156907,0.5811505357111835" fill-opacity="0" stroke="black" stroke-width="1" />
<path d="M7.090976575188835,-0.8031271703556452 L6.670680920156907,-0.5811505357111835 L2.149902534156478,-0.08973269214029023" fill-opacity="0" stroke="black" stroke-width="1" />
<path d="M7.090976575188835,0.8031271703556452 L6.670680920156907,0.5811505357111835 L2.149902534156478,0.08973269214029023" fill-opacity="0" stroke="black" stroke-width="1" />
<path d="M6.670680920156907,-0.5811505357111835 L2.149902534156478,-0.08973269214029023 L1.284404930435251,-0.05186008388227935" fill-opacity="0" stroke="black" stroke-width="1" />
<path d="M6.670680920156907,0.5811505357111835 L2.149902534156478,0.08973269214029023 L1.284404930435251,0.05186008388227935" fill-opacity="0" stroke="black" stroke-width="1" />
<path d="M2.149902534156478,-0.08973269214029023 L1.284404930435251,-0.05186008388227935 L0.0,-0.0" fill-opacity="0" stroke="black" stroke-width="1" />
<path d="M2.149902534156478,0.08973269214029023 L1.284404930435251,0.05186008388227935 L0.0,-0.0" fill-opacity="0" stroke="black" stroke-width="1" />
<path d="M0.0,-0.0 L-11.427313206434214,-2.9737196269367603 L-14.0,-0.0" fill-opacity="0" stroke="black" stroke-width="1" />
<path d="M0.0,-0.0 L-11.427313206434214,2.9737196269367603 L-14.0,-0.0" fill-opacity="0" stroke="black" stroke-width="1" />
<path d="M-14.0,-0.0 L-14.61840332634161,-3.1640462794070565 L-17.034891064056456,-3.1794132473801797" fill-opacity="0" stroke="black" stroke-width="1" />
<path d="M-14.0,-0.0 L-14.61840332634161,3.1640462794070565 L-17.034891064056456,3.1794132473801797" fill-opacity="0" stroke="black" stroke-width="1" />
<path d="M-14.61840332634161,-3.1640462794070565 L-17.034891064056456,-3.1794132473801797 L-24.503393890188352,-9.24404531954775" fill-opacity="0" stroke="black" stroke-width="1" />
<path d="M-14.61840332634161,3.1640462794070565 L-17.034891064056456,3.1794132473801797 L-24.503393890188352,9.24404531954775" fill-opacity="0" stroke="black" stroke-width="1" />
<path d="M-17.034891064056456,-3.1794132473801797 L-24.503393890188352,-9.24404531954775 L-33.929969645898694,-15.623380138014067" fill-opacity="0" stroke="black" stroke-width="1" />
<path d="M-17.034891064056456,3.1794132473801797 L-24.503393890188352,9.24404531954775 L-33.929969645898694,15.623380138014067" fill-opacity="0" stroke="black" stroke-width="1" />
<path d="M-24.503393890188352,-9.24404531954775 L-33.929969645898694,-15.623380138014067 L-39.0,-0.0" fill-opacity="0" stroke="black" stroke-width="1" />
<path d="M-24.503393890188352,9.24404531954775 L-33.929969645898694,15.623380138014067 L-39.0,-0.0" fill-opacity="0" stroke="black" stroke-width="1" />
<path d="M-50.0,-14.0 L-44.38330754571216,-16.581040800608367 L-50.0,-25.0" fill-opacity="0" stroke="black" stroke-width="1" />
<path d="M-50.0,14.0 L-44.38330754571216,16.581040800608367 L-50.0,25.0" fill-opacity="0" stroke="black" stroke-width="1" />
<path d="M-50.0,-25.0 L-45.273939744629466,-33.36871800784003 L-50.0,-47.0" fill-opacity="0" stroke="black" stroke-width="1" />
<path d="M-50.0,25.0 L-45.273939744629466,33.36871800784003 L-50.0,47.0" fill-opacity="0" stroke="black" stroke-width="1" />
<path d="M-50.0,50.0 L-48.0,52.0 L-43.28230949891374,53.55470407654542" fill-opacity="0" stroke="black" stroke-width="1" />
<path d="M-50.0,-50.0 L-48.0,-52.0 L-43.28230949891374,-53.55470407654542" fill-opacity="0" stroke="black" stroke-width="1" />
<path d="M-48.0,-48.0 L-46.44529592345458,-43.28230949891374 L-34.0,-34.0" fill-opacity="0" stroke="black" stroke-width="1" />
<path d="M-48.0,48.0 L-46.44529592345458,43.28230949891374 L-34.0,34.0" fill-opacity="0" stroke="black" stroke-width="1" />
<path d="M-43.28230949891374,53.55470407654542 L-34.0,66.0 L-28.0,72.0" fill-opacity="0" stroke="black" stroke-width="1" />
<path d="M-43.28230949891374,-53.55470407654542 L-34.0,-66.0 L-28.0,-72.0" fill-opacity="0" stroke="black" stroke-width="1" />
<path d="M-34.0,66.0 L-28.0,72.0 L-18.0,82.0" fill-opacity="0" stroke="black" stroke-width="1" />
<path d="M-34.0,-66.0 L-28.0,-72.0 L-18.0,-82.0" fill-opacity="0" stroke="black" stroke-width="1" />
<path d="M-28.0,72.0 L-18.0,82.0 L-1.4102705271567872,92.57694824716594" fill-opacity="0" stroke="black" stroke-width="1" />
<path d="M-28.0,-72.0 L-18.0,-82.0 L-1.4102705271567872,-92.57694824716594" fill-opacity="0" stroke="black" stroke-width="1" />
<path d="M-18.0,-18.0 L-7.423051752834059,-1.4102705271567872 L-7.090976575188835,-0.8031271703556452" fill-opacity="0" stroke="black" stroke-width="1" />
<path d="M-18.0,18.0 L-7.423051752834059,1.4102705271567872 L-7.090976575188835,0.8031271703556452" fill-opacity="0" stroke="black" stroke-width="1" />
<path d="M-7.423051752834059,-1.4102705271567872 L-7.090976575188835,-0.8031271703556452 L-6.670680920156907,-0.5811505357111835" fill-opacity="0" stroke="black" stroke-width="1" />
<path d="M-7.423051752834059,1.4102705271567872 L-7.090976575188835,0.8031271703556452 L-6.670680920156907,0.5811505357111835" fill-opacity="0" stroke="black" stroke-width="1" />
<path d="M-7.090976575188835,-0.8031271703556452 L-6.670680920156907,-0.5811505357111835 L-2.149902534156478,-0.08973269214029023" fill-opacity="0" stroke="black" stroke-width="1" />
<path d="M-7.090976575188835,0.8031271703556452 L-6.670680920156907,0.5811505357111835 L-2.149902534156478,0.08973269214029023" fill-opacity="0" stroke="black" stroke-width="1" />
<path d="M-6.670680920156907,-0.5811505357111835 L-2.149902534156478,-0.08973269214029023 L-1.284404930435251,-0.05186008388227935" fill-opacity="0" stroke="black" stroke-width="1" />
<path d="M-6.670680920156907,0.5811505357111835 L-2.149902534156478,0.08973269214029023 L-1.284404930435251,0.05186008388227935" fill-opacity="0" stroke="black" stroke-width="1" />
<path d="M-2.149902534156478,-0.08973269214029023 L-1.284404930435251,-0.05186008388227935 L0.0,-0.0" fill-opacity="0" stroke="black" stroke-width="1" />
<path d="M-2.149902534156478,0.08973269214029023 L-1.284404930435251,0.05186008388227935 L0.0,-0.0" fill-opacity="0" stroke="black" stroke-width="1" />
<path d="M100.0,-0.0 L88.5726867935658,2.9737196269367603 L86.0,-0.0" fill-opacity="0" stroke="black" stroke-width="1" />
<path d="M100.0,-0.0 L88.5726867935658,-2.9737196269367603 L86.0,-0.0" fill-opacity="0" stroke="black" stroke-width="1" />
<path d="M86.0,-0.0 L85.3815966736584,3.1640462794070565 L82.96510893594355,3.1794132473801797" fill-opacity="0" stroke="black" stroke-width="1" />
<path d="M86.0,-0.0 L85.3815966736584,-3.1640462794070565 L82.96510893594355,-3.1794132473801797" fill-opacity="0" stroke="black" stroke-width="1" />
<path d="M85.3815966736584,3.1640462794070565 L82.96510893594355,3.1794132473801797 L75.49660610981165,9.24404531954775" fill-opacity="0" stroke="black" stroke-width="1" />
<path d="M85.3815966736584,-3.1640462794070565 L82.96510893594355,-3.1794132473801797 L75.49660610981165,-9.24404531954775" fill-opacity="0" stroke="black" stroke-width="1" />
<path d="M82.96510893594355,3.1794132473801797 L75.49660610981165,9.24404531954775 L66.0700303541013,15.623380138014067" fill-opacity="0" stroke="black" stroke-width="1" />
<path d="M82.96510893594355,-3.1794132473801797 L75.49660610981165,-9.24404531954775 L66.0700303541013,-15.623380138014067" fill-opacity="0" stroke="black" stroke-width="1" />
<path d="M75.49660610981165,9.24404531954775 L66.0700303541013,15.623380138014067 L61.0,-0.0" fill-opacity="0" stroke="black" stroke-width="1" />
<path d="M75.49660610981165,-9.24404531954775 L66.0700303541013,-15.623380138014067 L61.0,-0.0" fill-opacity="0" stroke="black" stroke-width="1" />
<path d="M50.0,14.0 L55.61669245428784,16.581040800608367 L50.0,25.0" fill-opacity="0" stroke="black" stroke-width="1" />
<path d="M50.0,-14.0 L55.61669245428784,-16.581040800608367 L50.0,-25.0" fill-opacity="0" stroke="black" stroke-width="1" />
<path d="M50.0,25.0 L54.726060255370534,33.36871800784003 L50.0,47.0" fill-opacity="0" stroke="black" stroke-width="1" />
<path d="M50.0,-25.0 L54.726060255370534,-33.36871800784003 L50.0,-47.0" fill-opacity="0" stroke="black" stroke-width="1" />
<path d="M50.0,50.0 L52.0,48.0 L53.55470407654542,43.28230949891374" fill-opacity="0" stroke="black" stroke-width="1" />
<path d="M50.0,-50.0 L52.0,-48.0 L53.55470407654542,-43.28230949891374" fill-opacity="0" stroke="black" stroke-width="1" />
<path d="M52.0,48.0 L53.55470407654542,43.28230949891374 L66.0,34.0" fill-opacity="0" stroke="black" stroke-width="1" />
<path d="M52.0,-48.0 L53.55470407654542,-43.28230949891374 L66.0,-34.0" fill-opacity="0" stroke="black" stroke-width="1" />
<path d="M53.55470407654542,43.28230949891374 L66.0,34.0 L72.0,28.0" fill-opacity="0" stroke="black" stroke-width="1" />
<path d="M53.55470407654542,-43.28230949891374 L66.0,-34.0 L72.0,-28.0" fill-opacity="0" stroke="black" stroke-width="1" />
<path d="M66.0,34.0 L72.0,28.0 L82.0,18.0" fill-opacity="0" stroke="black" stroke-width="1" />
<path d="M66.0,-34.0 L72.0,-28.0 L82.0,-18.0" fill-opacity="0" stroke="black" stroke-width="1" />
<path d="M72.0,28.0 L82.0,18.0 L92.57694824716594,1.4102705271567872" fill-opacity="0" stroke="black" stroke-width="1" />
<path d="M72.0,-28.0 L82.0,-18.0 L92.57694824716594,-1.4102705271567872" fill-opacity="0" stroke="black" stroke-width="1" />
<path d="M82.0,18.0 L92.57694824716594,1.4102705271567872 L92.90902342481117,0.8031271703556452" fill-opacity="0" stroke="black" stroke-width="1" />
<path d="M82.0,-18.0 L92.57694824716594,-1.4102705271567872 L92.90902342481117,-0.8031271703556452" fill-opacity="0" stroke="black" stroke-width="1" />
<path d="M92.57694824716594,1.4102705271567872 L92.90902342481117,0.8031271703556452 L93.32931907984309,0.5811505357111835" fill-opacity="0" stroke="black" stroke-width="1" />
<path d="M92.57694824716594,-1.4102705271567872 L92.90902342481117,-0.8031271703556452 L93.32931907984309,-0.5811505357111835" fill-opacity="0" stroke="black" stroke-width="1" />
<path d="M92.90902342481117,0.8031271703556452 L93.32931907984309,0.5811505357111835 L97.85009746584352,0.08973269214029023" fill-opacity="0" stroke="black" stroke-width="1" />
<path d="M92.90902342481117,-0.8031271703556452 L93.32931907984309,-0.5811505357111835 L97.85009746584352,-0.08973269214029023" fill-opacity="0" stroke="black" stroke-width="1" />
<path d="M93.32931907984309,0.5811505357111835 L97.85009746584352,0.08973269214029023 L98.71559506956476,0.05186008388227935" fill-opacity="0" stroke="black" stroke-width="1" />
<path d="M93.32931907984309,-0.5811505357111835 L97.85009746584352,-0.08973269214029023 L98.71559506956476,-0.05186008388227935" fill-opacity="0" stroke="black" stroke-width="1" />
<path d="M97.85009746584352,0.08973269214029023 L98.71559506956476,0.05186008388227935 L100.0,-0.0" fill-opacity="0" stroke="black" stroke-width="1" />
<path d="M97.85009746584352,-0.08973269214029023 L98.71559506956476,-0.05186008388227935 L100.0,-0.0" fill-opacity="0" stroke="black" stroke-width="1" />
<path d="M0.0,-0.0 L2.9737196269367603,-11.427313206434214 L0.0,-14.0" fill-opacity="0" stroke="black" stroke-width="1" />
<path d="M0.0,-0.0 L2.9737196269367603,11.427313206434214 L0.0,14.0" fill-opacity="0" stroke="black" stroke-width="1" />
<path d="M0.0,100.0 L2.9737196269367603,88.5726867935658 L0.0,86.0" fill-opacity="0" stroke="black" stroke-width="1" />
<path d="M0.0,-100.0 L2.9737196269367603,-88.5726867935658 L0.0,-86.0" fill-opacity="0" stroke="black" stroke-width="1" />
<path d="M0.0,-14.0 L3.1640462794070565,-14.61840332634161 L3.1794132473801797,-17.034891064056456" fill-opacity="0" stroke="black" stroke-width="1" />
<path d="M0.0,14.0 L3.1640462794070565,14.61840332634161 L3.1794132473801797,17.034891064056456" fill-opacity="0" stroke="black" stroke-width="1" />
<path d="M0.0,86.0 L3.1640462794070565,85.3815966736584 L3.1794132473801797,82.96510893594355" fill-opacity="0" stroke="black" stroke-width="1" />
<path d="M0.0,-86.0 L3.1640462794070565,-85.3815966736584 L3.1794132473801797,-82.96510893594355" fill-opacity="0" stroke="black" stroke-width="1" />
<path d="M3.1640462794070565,-14.61840332634161 L3.1794132473801797,-17.034891064056456 L9.24404531954775,-24.503393890188352" fill-opacity="0" stroke="black" stroke-width="1" />
<path d="M3.1640462794070565,14.61840332634161 L3.1794132473801797,17.034891064056456 L9.24404531954775,24.503393890188352" fill-opacity="0" stroke="black" stroke-width="1" />
<path d="M3.1640462794070565,85.3815966736584 L3.1794132473801797,82.96510893594355 L9.24404531954775,75.49660610981165" fill-opacity="0" stroke="black" stroke-width="1" />
<path d="M3.1640462794070565,-85.3815966736584 L3.1794132473801797,-82.96510893594355 L9.24404531954775,-75.49660610981165" fill-opacity="0" stroke="black" stroke-width="1" />
<path d="M3.1794132473801797,-17.034891064056456 L9.24404531954775,-24.503393890188352 L15.623380138014067,-33.929969645898694" fill-opacity="0" stroke="black" stroke-width="1" />
<path d="M3.1794132473801797,17.034891064056456 L9.24404531954775,24.503393890188352 L15.623380138014067,33.929969645898694" fill-opacity="0" stroke="black" stroke-width="1" />
<path d="M3.1794132473801797,82.96510893594355 L9.24404531954775,75.49660610981165 L15.623380138014067,66.0700303541013" fill-opacity="0" stroke="black" stroke-width="1" />
<path d="M3.1794132473801797,-82.96510893594355 L9.24404531954775,-75.49660610981165 L15.623380138014067,-66.0700303541013" fill-opacity="0" stroke="black" stroke-width="1" />
<path d="M9.24404531954775,-24.503393890188352 L15.623380138014067,-33.929969645898694 L0.0,-39.0" fill-opacity="0" stroke="black" stroke-width="1" />
<path d="M9.24404531954775,24.503393890188352 L15.623380138014067,33.929969645898694 L0.0,39.0" fill-opacity="0" stroke="black" stroke-width="1" />
<path d="M9.24404531954775,75.49660610981165 L15.623380138014067,66.0700303541013 L0.0,61.0" fill-opacity="0" stroke="black" stroke-width="1" />
<path d="M9.24404531954775,-75.49660610981165 L15.623380138014067,-66.0700303541013 L0.0,-61.0" fill-opacity="0" stroke="black" stroke-width="1" />
<path d="M14.0,-50.0 L16.581040800608367,-44.38330754571216 L25.0,-50.0" fill-opacity="0" stroke="black" stroke-width="1" />
<path d="M14.0,50.0 L16.581040800608367,44.38330754571216 L25.0,50.0" fill-opacity="0" stroke="black" stroke-width="1" />
<path d="M14.0,50.0 L16.581040800608367,55.61669245428784 L25.0,50.0" fill-opacity="0" stroke="black" stroke-width="1" />
<path d="M14.0,-50.0 L16.581040800608367,-55.61669245428784 L25.0,-50.0" fill-opacity="0" stroke="black" stroke-width="1" />
<path d="M25.0,-50.0 L33.36871800784003,-45.273939744629466 L47.0,-50.0" fill-opacity="0" stroke="black" stroke-width="1" />
<path d="M25.0,50.0 L33.36871800784003,45.273939744629466 L47.0,50.0" fill-opacity="0" stroke="black" stroke-width="1" />
<path d="M25.0,50.0 L33.36871800784003,54.726060255370534 L47.0,50.0" fill-opacity="0" stroke="black" stroke-width="1" />
<path d="M25.0,-50.0 L33.36871800784003,-54.726060255370534 L47.0,-50.0" fill-opacity="0" stroke="black" stroke-width="1" />
<path d="M48.0,-48.0 L43.28230949891374,-46.44529592345458 L34.0,-34.0" fill-opacity="0" stroke="black" stroke-width="1" />
<path d="M48.0,48.0 L43.28230949891374,46.44529592345458 L34.0,34.0" fill-opacity="0" stroke="black" stroke-width="1" />
<path d="M48.0,52.0 L43.28230949891374,53.55470407654542 L34.0,66.0" fill-opacity="0" stroke="black" stroke-width="1" />
<path d="M48.0,-52.0 L43.28230949891374,-53.55470407654542 L34.0,-66.0" fill-opacity="0" stroke="black" stroke-width="1" />
<path d="M18.0,-18.0 L1.4102705271567872,-7.423051752834059 L0.8031271703556452,-7.090976575188835" fill-opacity="0" stroke="black" stroke-width="1" />
<path d="M18.0,18.0 L1.4102705271567872,7.423051752834059 L0.8031271703556452,7.090976575188835" fill-opacity="0" stroke="black" stroke-width="1" />
<path d="M18.0,82.0 L1.4102705271567872,92.57694824716594 L0.8031271703556452,92.90902342481117" fill-opacity="0" stroke="black" stroke-width="1" />
<path d="M18.0,-82.0 L1.4102705271567872,-92.57694824716594 L0.8031271703556452,-92.90902342481117" fill-opacity="0" stroke="black" stroke-width="1" />
<path d="M1.4102705271567872,-7.423051752834059 L0.8031271703556452,-7.090976575188835 L0.5811505357111835,-6.670680920156907" fill-opacity="0" stroke="black" stroke-width="1" />
<path d="M1.4102705271567872,7.423051752834059 L0.8031271703556452,7.090976575188835 L0.5811505357111835,6.670680920156907" fill-opacity="0" stroke="black" stroke-width="1" />
<path d="M1.4102705271567872,92.57694824716594 L0.8031271703556452,92.90902342481117 L0.5811505357111835,93.32931907984309" fill-opacity="0" stroke="black" stroke-width="1" />
<path d="M1.4102705271567872,-92.57694824716594 L0.8031271703556452,-92.90902342481117 L0.5811505357111835,-93.32931907984309" fill-opacity="0" stroke="black" stroke-width="1" />
<path d="M0.8031271703556452,-7.090976575188835 L0.5811505357111835,-6.670680920156907 L0.08973269214029023,-2.149902534156478" fill-opacity="0" stroke="black" stroke-width="1" />
<path d="M0.8031271703556452,7.090976575188835 L0.5811505357111835,6.670680920156907 L0.08973269214029023,2.149902534156478" fill-opacity="0" stroke="black" stroke-width="1" />
<path d="M0.8031271703556452,92.90902342481117 L0.5811505357111835,93.32931907984309 L0.08973269214029023,97.85009746584352" fill-opacity="0" stroke="black" stroke-width="1" />
<path d="M0.8031271703556452,-92.90902342481117 L0.5811505357111835,-93.32931907984309 L0.08973269214029023,-97.85009746584352" fill-opacity="0" stroke="black" stroke-width="1" />
<path d="M0.5811505357111835,-6.670680920156907 L0.08973269214029023,-2.149902534156478 L0.05186008388227935,-1.284404930435251" fill-opacity="0" stroke="black" stroke-width="1" />
<path d="M0.5811505357111835,6.670680920156907 L0.08973269214029023,2.149902534156478 L0.05186008388227935,1.284404930435251" fill-opacity="0" stroke="black" stroke-width="1" />
<path d="M0.5811505357111835,93.32931907984309 L0.08973269214029023,97.85009746584352 L0.05186008388227935,98.71559506956476" fill-opacity="0" stroke="black" stroke-width="1" />
<path d="M0.5811505357111835,-93.32931907984309 L0.08973269214029023,-97.85009746584352 L0.05186008388227935,-98.71559506956476" fill-opacity="0" stroke="black" stroke-width="1" />
<path d="M0.08973269214029023,-2.149902534156478 L0.05186008388227935,-1.284404930435251 L0.0,-0.0" fill-opacity="0" stroke="black" stroke-width="1" />
<path d="M0.08973269214029023,2.149902534156478 L0.05186008388227935,1.284404930435251 L0.0,-0.0" fill-opacity="0" stroke="black" stroke-width="1" />
<path d="M0.08973269214029023,97.85009746584352 L0.05186008388227935,98.71559506956476 L0.0,100.0" fill-opacity="0" stroke="black" stroke-width="1" />
<path d="M0.08973269214029023,-97.85009746584352 L0.05186008388227935,-98.71559506956476 L0.0,-100.0" fill-opacity="0" stroke="black" stroke-width="1" />
<path d="M0.0,100.0 L-2.9737196269367603,88.5726867935658 L0.0,86.0" fill-opacity="0" stroke="black" stroke-width="1" />
<path d="M0.0,-0.0 L-2.9737196269367603,-11.427313206434214 L0.0,-14.0" fill-opacity="0" stroke="black" stroke-width="1" />
<path d="M0.0,-0.0 L-2.9737196269367603,11.427313206434206 L0.0,14.0" fill-opacity="0" stroke="black" stroke-width="1" />
<path d="M0.0,-100.0 L-2.9737196269367603,-88.5726867935658 L0.0,-86.0" fill-opacity="0" stroke="black" stroke-width="1" />
<path d="M0.0,86.0 L-3.1640462794070565,85.3815966736584 L-3.1794132473801797,82.96510893594355" fill-opacity="0" stroke="black" stroke-width="1" />
<path d="M0.0,-14.0 L-3.1640462794070565,-14.61840332634161 L-3.1794132473801797,-17.034891064056456" fill-opacity="0" stroke="black" stroke-width="1" />
<path d="M0.0,14.0 L-3.1640462794070565,14.618403326341607 L-3.1794132473801797,17.034891064056453" fill-opacity="0" stroke="black" stroke-width="1" />
<path d="M0.0,-86.0 L-3.1640462794070565,-85.3815966736584 L-3.1794132473801797,-82.96510893594355" fill-opacity="0" stroke="black" stroke-width="1" />
<path d="M-3.1640462794070565,85.3815966736584 L-3.1794132473801797,82.96510893594355 L-9.24404531954775,75.49660610981165" fill-opacity="0" stroke="black" stroke-width="1" />
<path d="M-3.1640462794070565,-14.61840332634161 L-3.1794132473801797,-17.034891064056456 L-9.24404531954775,-24.503393890188352" fill-opacity="0" stroke="black" stroke-width="1" />
<path d="M-3.1640462794070565,14.618403326341607 L-3.1794132473801797,17.034891064056453 L-9.24404531954775,24.50339389018835" fill-opacity="0" stroke="black" stroke-width="1" />
<path d="M-3.1640462794070565,-85.3815966736584 L-3.1794132473801797,-82.96510893594355 L-9.24404531954775,-75.49660610981165" fill-opacity="0" stroke="black" stroke-width="1" />
<path d="M-3.1794132473801797,82.96510893594355 L-9.24404531954775,75.49660610981165 L-15.623380138014067,66.0700303541013" fill-opacity="0" stroke="black" stroke-width="1" />
<path d="M-3.1794132473801797,-17.034891064056456 L-9.24404531954775,-24.503393890188352 L-15.623380138014067,-33.929969645898694" fill-opacity="0" stroke="black" stroke-width="1" />
<path d="M-3.1794132473801797,17.034891064056453 L-9.24404531954775,24.50339389018835 L-15.623380138014067,33.929969645898694" fill-opacity="0" stroke="black" stroke-width="1" />
<path d="M-3.1794132473801797,-82.96510893594355 L-9.24404531954775,-75.49660610981165 L-15.623380138014067,-66.0700303541013" fill-opacity="0" stroke="black" stroke-width="1" />
<path d="M-9.24404531954775,75.49660610981165 L-15.623380138014067,66.0700303541013 L0.0,61.0" fill-opacity="0" stroke="black" stroke-width="1" />
<path d="M-9.24404531954775,-24.503393890188352 L-15.623380138014067,-33.929969645898694 L0.0,-39.0" fill-opacity="0" stroke="black" stroke-width="1" />
<path d="M-9.24404531954775,24.50339389018835 L-15.623380138014067,33.929969645898694 L0.0,39.0" fill-opacity="0" stroke="black" stroke-width="1" />
<path d="M-9.24404531954775,-75.49660610981165 L-15.623380138014067,-66.0700303541013 L0.0,-61.0" fill-opacity="0" stroke="black" stroke-width="1" />
<path d="M-14.0,50.0 L-16.581040800608367,55.61669245428784 L-25.0,50.0" fill-opacity="0" stroke="black" stroke-width="1" />
<path d="M-14.0,-50.0 L-16.581040800608367,-44.38330754571216 L-25.0,-50.0" fill-opacity="0" stroke="black" stroke-width="1" />
<path d="M-14.0,50.0 L-16.581040800608367,44.38330754571216 L-25.0,50.0" fill-opacity="0" stroke="black" stroke-width="1" />
<path d="M-14.0,-50.0 L-16.581040800608367,-55.61669245428784 L-25.0,-50.0" fill-opacity="0" stroke="black" stroke-width="1" />
<path d="M-25.0,50.0 L-33.36871800784003,54.726060255370534 L-47.0,50.0" fill-opacity="0" stroke="black" stroke-width="1" />
<path d="M-25.0,-50.0 L-33.36871800784003,-45.273939744629466 L-47.0,-50.0" fill-opacity="0" stroke="black" stroke-width="1" />
<path d="M-25.0,50.0 L-33.36871800784003,45.273939744629466 L-47.0,50.0" fill-opacity="0" stroke="black" stroke-width="1" />
<path d="M-25.0,-50.0 L-33.36871800784003,-54.726060255370534 L-47.0,-50.0" fill-opacity="0" stroke="black" stroke-width="1" />
<path d="M-48.0,52.0 L-43.28230949891374,53.55470407654542 L-34.0,66.0" fill-opacity="0" stroke="black" stroke-width="1" />
<path d="M-48.0,-48.0 L-43.28230949891374,-46.44529592345458 L-34.0,-34.0" fill-opacity="0" stroke="black" stroke-width="1" />
<path d="M-48.0,48.0 L-43.28230949891374,46.44529592345458 L-34.0,34.0" fill-opacity="0" stroke="black" stroke-width="1" />
<path d="M-48.0,-52.0 L-43.28230949891374,-53.55470407654542 L-34.0,-66.0" fill-opacity="0" stroke="black" stroke-width="1" />
<path d="M-18.0,82.0 L-1.4102705271567872,92.57694824716594 L-0.8031271703556452,92.90902342481117" fill-opacity="0" stroke="black" stroke-width="1" />
<path d="M-18.0,-18.0 L-1.4102705271567872,-7.423051752834059 L-0.8031271703556452,-7.090976575188835" fill-opacity="0" stroke="black" stroke-width="1" />
<path d="M-18.0,18.0 L-1.4102705271567872,7.423051752834056 L-0.8031271703556452,7.090976575188833" fill-opacity="0" stroke="black" stroke-width="1" />
<path d="M-18.0,-82.0 L-1.4102705271567872,-92.57694824716594 L-0.8031271703556452,-92.90902342481117" fill-opacity="0" stroke="black" stroke-width="1" />
<path d="M-1.4102705271567872,92.57694824716594 L-0.8031271703556452,92.90902342481117 L-0.5811505357111835,93.32931907984309" fill-opacity="0" stroke="black" stroke-width="1" />
<path d="M-1.4102705271567872,-7.423051752834059 L-0.8031271703556452,-7.090976575188835 L-0.5811505357111835,-6.670680920156907" fill-opacity="0" stroke="black" stroke-width="1" />
<path d="M-1.4102705271567872,7.423051752834056 L-0.8031271703556452,7.090976575188833 L-0.5811505357111835,6.6706809201569115" fill-opacity="0" stroke="black" stroke-width="1" />
<path d="M-1.4102705271567872,-92.57694824716594 L-0.8031271703556452,-92.90902342481117 L-0.5811505357111835,-93.32931907984309" fill-opacity="0" stroke="black" stroke-width="1" />
<path d="M-0.8031271703556452,92.90902342481117 L-0.5811505357111835,93.32931907984309 L-0.08973269214029023,97.85009746584352" fill-opacity="0" stroke="black" stroke-width="1" />
<path d="M-0.8031271703556452,-7.090976575188835 L-0.5811505357111835,-6.670680920156907 L-0.08973269214029023,-2.149902534156478" fill-opacity="0" stroke="black" stroke-width="1" />
<path d="M-0.8031271703556452,7.090976575188833 L-0.5811505357111835,6.6706809201569115 L-0.08973269214029023,2.1499025341564817" fill-opacity="0" stroke="black" stroke-width="1" />
<path d="M-0.8031271703556452,-92.90902342481117 L-0.5811505357111835,-93.32931907984309 L-0.08973269214029023,-97.85009746584352" fill-opacity="0" stroke="black" stroke-width="1" />
<path d="M-0.5811505357111835,93.32931907984309 L-0.08973269214029023,97.85009746584352 L-0.05186008388227935,98.71559506956476" fill-opacity="0" stroke="black" stroke-width="1" />
<path d="M-0.5811505357111835,-6.670680920156907 L-0.08973269214029023,-2.149902534156478 L-0.05186008388227935,-1.284404930435251" fill-opacity="0" stroke="black" stroke-width="1" />
<path d="M-0.5811505357111835,6.6706809201569115 L-0.08973269214029023,2.1499025341564817 L-0.05186008388227935,1.2844049304352438" fill-opacity="0" stroke="black" stroke-width="1" />
<path d="M-0.5811505357111835,-93.32931907984309 L-0.08973269214029023,-97.85009746584352 L-0.05186008388227935,-98.71559506956476" fill-opacity="0" stroke="black" stroke-width="1" />
<path d="M-0.08973269214029023,97.85009746584352 L-0.05186008388227935,98.71559506956476 L0.0,100.0" fill-opacity="0" stroke="black" stroke-width="1" />
<path d="M-0.08973269214029023,-2.149902534156478 L-0.05186008388227935,-1.284404930435251 L0.0,-0.0" fill-opacity="0" stroke="black" stroke-width="1" />
<path d="M-0.08973269214029023,2.1499025341564817 L-0.05186008388227935,1.2844049304352438 L0.0,-0.0" fill-opacity="0" stroke="black" stroke-width="1" />
<path d="M-0.08973269214029023,-97.85009746584352 L-0.05186008388227935,-98.71559506956476 L0.0,-100.0" fill-opacity="0" stroke="black" stroke-width="1" />
<path d="M-100.0,-0.0 L-88.5726867935658,-2.9737196269367603 L-86.0,-0.0" fill-opacity="0" stroke="black" stroke-width="1" />
<path d="M-100.0,-0.0 L-88.5726867935658,2.9737196269367603 L-86.0,-0.0" fill-opacity="0" stroke="black" stroke-width="1" />
<path d="M-86.0,-0.0 L-85.3815966736584,-3.1640462794070565 L-82.96510893594355,-3.1794132473801797" fill-opacity="0" stroke="black" stroke-width="1" />
<path d="M-86.0,-0.0 L-85.3815966736584,3.1640462794070565 L-82.96510893594355,3.1794132473801797" fill-opacity="0" stroke="black" stroke-width="1" />
<path d="M-85.3815966736584,-3.1640462794070565 L-82.96510893594355,-3.1794132473801797 L-75.49660610981165,-9.24404531954775" fill-opacity="0" stroke="black" stroke-width="1" />
<path d="M-85.3815966736584,3.1640462794070565 L-82.96510893594355,3.1794132473801797 L-75.49660610981165,9.24404531954775" fill-opacity="0" stroke="black" stroke-width="1" />
<path d="M-82.96510893594355,-3.1794132473801797 L-75.49660610981165,-9.24404531954775 L-66.0700303541013,-15.623380138014067" fill-opacity="0" stroke="black" stroke-width="1" />
<path d="M-82.96510893594355,3.1794132473801797 L-75.49660610981165,9.24404531954775 L-66.0700303541013,15.623380138014067" fill-opacity="0" stroke="black" stroke-width="1" />
<path d="M-75.49660610981165,-9.24404531954775 L-66.0700303541013,-15.623380138014067 L-61.0,-0.0" fill-opacity="0" stroke="black" stroke-width="1" />
<path d="M-75.49660610981165,9.24404531954775 L-66.0700303541013,15.623380138014067 L-61.0,-0.0" fill-opacity="0" stroke="black" stroke-width="1" />
<path d="M-50.0,-14.0 L-55.61669245428784,-16.581040800608367 L-50.0,-25.0" fill-opacity="0" stroke="black" stroke-width="1" />
<path d="M-50.0,14.0 L-55.61669245428784,16.581040800608367 L-50.0,25.0" fill-opacity="0" stroke="black" stroke-width="1" />
<path d="M-50.0,-25.0 L-54.726060255370534,-33.36871800784003 L-50.0,-47.0" fill-opacity="0" stroke="black" stroke-width="1" />
<path d="M-50.0,25.0 L-54.726060255370534,33.36871800784003 L-50.0,47.0" fill-opacity="0" stroke="black" stroke-width="1" />
<path d="M-50.0,-50.0 L-52.0,-48.0 L-53.55470407654542,-43.28230949891374" fill-opacity="0" stroke="black" stroke-width="1" />
<path d="M-50.0,50.0 L-52.0,48.0 L-53.55470407654542,43.28230949891374" fill-opacity="0" stroke="black" stroke-width="1" />
<path d="M-52.0,-48.0 L-53.55470407654542,-43.28230949891374 L-66.0,-34.0" fill-opacity="0" stroke="black" stroke-width="1" />
<path d="M-52.0,48.0 L-53.55470407654542,43.28230949891374 L-66.0,34.0" fill-opacity="0" stroke="black" stroke-width="1" />
<path d="M-53.55470407654542,-43.28230949891374 L-66.0,-34.0 L-72.0,-28.0" fill-opacity="0" stroke="black" stroke-width="1" />
<path d="M-53.55470407654542,43.28230949891374 L-66.0,34.0 L-72.0,28.0" fill-opacity="0" stroke="black" stroke-width="1" />
<path d="M-66.0,-34.0 L-72.0,-28.0 L-82.0,-18.0" fill-opacity="0" stroke="black" stroke-width="1" />
<path d="M-66.0,34.0 L-72.0,28.0 L-82.0,18.0" fill-opacity="0" stroke="black" stroke-width="1" />
<path d="M-72.0,-28.0 L-82.0,-18.0 L-92.57694824716594,-1.4102705271567872" fill-opacity="0" stroke="black" stroke-width="1" />
<path d="M-72.0,28.0 L-82.0,18.0 L-92.57694824716594,1.4102705271567872" fill-opacity="0" stroke="black" stroke-width="1" />
<path d="M-82.0,-18.0 L-92.57694824716594,-1.4102705271567872 L-92.90902342481117,-0.8031271703556452" fill-opacity="0" stroke="black" stroke-width="1" />
<path d="M-82.0,18.0 L-92.57694824716594,1.4102705271567872 L-92.90902342481117,0.8031271703556452" fill-opacity="0" stroke="black" stroke-width="1" />
<path d="M-92.57694824716594,-1.4102705271567872 L-92.90902342481117,-0.8031271703556452 L-93.32931907984309,-0.5811505357111835" fill-opacity="0" stroke="black" stroke-width="1" />
<path d="M-92.57694824716594,1.4102705271567872 L-92.90902342481117,0.8031271703556452 L-93.32931907984309,0.5811505357111835" fill-opacity="0" stroke="black" stroke-width="1" />
<path d="M-92.90902342481117,-0.8031271703556452 L-93.32931907984309,-0.5811505357111835 L-97.85009746584352,-0.08973269214029023" fill-opacity="0" stroke="black" stroke-width="1" />
<path d="M-92.90902342481117,0.8031271703556452 L-93.32931907984309,0.5811505357111835 L-97.85009746584352,0.08973269214029023" fill-opacity="0" stroke="black" stroke-width="1" />
<path d="M-93.32931907984309,-0.5811505357111835 L-97.85009746584352,-0.08973269214029023 L-98.71559506956476,-0.05186008388227935" fill-opacity="0" stroke="black" stroke-width="1" />
<path d="M-93.32931907984309,0.5811505357111835 L-97.85009746584352,0.08973269214029023 L-98.71559506956476,0.05186008388227935" fill-opacity="0" stroke="black" stroke-width="1" />
<path d="M-97.85009746584352,-0.08973269214029023 L-98.71559506956476,-0.05186008388227935 L-100.0,-0.0" fill-opacity="0" stroke="black" stroke-width="1" />
<path d="M-97.85009746584352,0.08973269214029023 L-98.71559506956476,0.05186008388227935 L-100.0,-0.0" fill-opacity="0" stroke="black" stroke-width="1" />
</svg>