<?xml version="1.0" encoding="UTF-8"?>
<svg xmlns="http://www.w3.org/2000/svg" xmlns:xlink="http://www.w3.org/1999/xlink"
     width="250" height="250" viewBox="-125.0 -125.0 250 250">
<defs>
</defs>
<path d="M0.0,-0.0 l5.0,-0.0 l3.0,-0.0 l3.0,-0.0 l3.0911989239860382,-4.341029874259298 l2.6572480794304383,-0.23533230014519368 l3.2515529965835235,4.576362174404491 l3.233076711428108,-4.837236118578567 l4.293417342025386,-1.541036233924908 l2.1972946119740655,-1.0616519217418556 l0.5930528347586552,-0.1915658652020804 l5.774812257290847,-0.9750381632767837 l6.9083462425229385,8.606528302724195 l7.0,-0.0 l0.0,-8.0 l-11.476650512604216,-6.678358719518217 l5.57296709122496,-1.016320137926332 l1.9785362421078219,-0.8592685196425993 l3.925147179271434,-14.446052622912852 l0.0,-1.0 l-2.978785027264152,-0.21170940631319013 l0.844460306228143,-1.0528070950566573 l2.134324721036009,-4.735483498630153 l0.0,-8.0 l-14.0,10.0 l-2.0,2.0 l-24.44211214962671,29.981790426472738 l-1.557887850373291,-3.981790426472738 l-0.4074629641524652,5.304381009080331 l-0.5925370358475348,-4.304381009080331 l-0.3408410492564071,4.395859497420216 l-1.6591589507435929,-2.395859497420216 l-0.04529745839678334,3.236583166234187 l-1.9145531237864102,0.6794640259301266 Z" stroke-width="1" stroke="grey" fill="orange" fill-opacity="0" />
</svg>