<?xml version="1.0" encoding="UTF-8"?>
<svg xmlns="http://www.w3.org/2000/svg" xmlns:xlink="http://www.w3.org/1999/xlink"
     width="250" height="250" viewBox="-125.0 -125.0 250 250">
<defs>
</defs>
<path d="M15.0,-0.0 L16.23809784738699,-4.879568282350783 L18.2083772493937,-5.312180889775816" fill-opacity="0" stroke="black" stroke-width="1" />
<path d="M15.0,-0.0 L16.23809784738699,4.879568282350783 L18.2083772493937,5.312180889775816" fill-opacity="0" stroke="black" stroke-width="1" />
<path d="M16.23809784738699,-4.879568282350783 L18.2083772493937,-5.312180889775816 L18.862440730785465,-7.608570230664226" fill-opacity="0" stroke="black" stroke-width="1" />
<path d="M16.23809784738699,4.879568282350783 L18.2083772493937,5.312180889775816 L18.862440730785465,7.608570230664226" fill-opacity="0" stroke="black" stroke-width="1" />
<path d="M18.2083772493937,-5.312180889775816 L18.862440730785465,-7.608570230664226 L22.0,-0.0" fill-opacity="0" stroke="black" stroke-width="1" />
<path d="M18.2083772493937,5.312180889775816 L18.862440730785465,7.608570230664226 L22.0,-0.0" fill-opacity="0" stroke="black" stroke-width="1" />
<path d="M22.0,-0.0 L22.955983100774354,-11.185774971052131 L26.02047469503831,-11.802279563932766" fill-opacity="0" stroke="black" stroke-width="1" />
<path d="M22.0,-0.0 L22.955983100774354,11.185774971052131 L26.02047469503831,11.802279563932766" fill-opacity="0" stroke="black" stroke-width="1" />
<path d="M22.955983100774354,-11.185774971052131 L26.02047469503831,-11.802279563932766 L26.036282823209945,-14.640420887197786" fill-opacity="0" stroke="black" stroke-width="1" />
<path d="M22.955983100774354,11.185774971052131 L26.02047469503831,11.802279563932766 L26.036282823209945,14.640420887197786" fill-opacity="0" stroke="black" stroke-width="1" />
<path d="M26.02047469503831,-11.802279563932766 L26.036282823209945,-14.640420887197786 L36.0,-0.0" fill-opacity="0" stroke="black" stroke-width="1" />
<path d="M26.02047469503831,11.802279563932766 L26.036282823209945,14.640420887197786 L36.0,-0.0" fill-opacity="0" stroke="black" stroke-width="1" />
<path d="M50.0,-14.0 L39.800356607523796,-17.47536586589444 L40.04739783201606,-20.26063183011611" fill-opacity="0" stroke="black" stroke-width="1" />
<path d="M50.0,14.0 L39.800356607523796,17.47536586589444 L40.04739783201606,20.26063183011611" fill-opacity="0" stroke="black" stroke-width="1" />
<path d="M39.800356607523796,-17.47536586589444 L40.04739783201606,-20.26063183011611 L43.027801966251786,-22.88072924242252" fill-opacity="0" stroke="black" stroke-width="1" />
<path d="M39.800356607523796,17.47536586589444 L40.04739783201606,20.26063183011611 L43.027801966251786,22.88072924242252" fill-opacity="0" stroke="black" stroke-width="1" />
<path d="M40.04739783201606,-20.26063183011611 L43.027801966251786,-22.88072924242252 L50.0,-32.0" fill-opacity="0" stroke="black" stroke-width="1" />
<path d="M40.04739783201606,20.26063183011611 L43.027801966251786,22.88072924242252 L50.0,32.0" fill-opacity="0" stroke="black" stroke-width="1" />
<path d="M50.0,50.0 L37.0,63.0 L35.0,65.0" fill-opacity="0" stroke="black" stroke-width="1" />
<path d="M50.0,-50.0 L37.0,-63.0 L35.0,-65.0" fill-opacity="0" stroke="black" stroke-width="1" />
<path d="M37.0,63.0 L35.0,65.0 L25.0,75.0" fill-opacity="0" stroke="black" stroke-width="1" />
<path d="M37.0,-63.0 L35.0,-65.0 L25.0,-75.0" fill-opacity="0" stroke="black" stroke-width="1" />
<path d="M35.0,65.0 L25.0,75.0 L17.0,83.0" fill-opacity="0" stroke="black" stroke-width="1" />
<path d="M35.0,-65.0 L25.0,-75.0 L17.0,-83.0" fill-opacity="0" stroke="black" stroke-width="1" />
<path d="M25.0,75.0 L17.0,83.0 L13.0,87.0" fill-opacity="0" stroke="black" stroke-width="1" />
<path d="M25.0,-75.0 L17.0,-83.0 L13.0,-87.0" fill-opacity="0" stroke="black" stroke-width="1" />
<path d="M17.0,83.0 L13.0,87.0 L0.0,100.0" fill-opacity="0" stroke="black" stroke-width="1" />
<path d="M17.0,-83.0 L13.0,-87.0 L0.0,-100.0" fill-opacity="0" stroke="black" stroke-width="1" />
<path d="M-15.0,-0.0 L-16.23809784738699,-4.879568282350783 L-18.2083772493937,-5.312180889775816" fill-opacity="0" stroke="black" stroke-width="1" />
<path d="M-15.0,-0.0 L-16.23809784738699,4.879568282350783 L-18.2083772493937,5.312180889775816" fill-opacity="0" stroke="black" stroke-width="1" />
<path d="M-16.23809784738699,-4.879568282350783 L-18.2083772493937,-5.312180889775816 L-18.862440730785465,-7.608570230664226" fill-opacity="0" stroke="black" stroke-width="1" />
<path d="M-16.23809784738699,4.879568282350783 L-18.2083772493937,5.312180889775816 L-18.862440730785465,7.608570230664226" fill-opacity="0" stroke="black" stroke-width="1" />
<path d="M-18.2083772493937,-5.312180889775816 L-18.862440730785465,-7.608570230664226 L-22.0,-0.0" fill-opacity="0" stroke="black" stroke-width="1" />
<path d="M-18.2083772493937,5.312180889775816 L-18.862440730785465,7.608570230664226 L-22.0,-0.0" fill-opacity="0" stroke="black" stroke-width="1" />
<path d="M-22.0,-0.0 L-22.955983100774354,-11.185774971052131 L-26.02047469503831,-11.802279563932766" fill-opacity="0" stroke="black" stroke-width="1" />
<path d="M-22.0,-0.0 L-22.955983100774354,11.185774971052131 L-26.02047469503831,11.802279563932766" fill-opacity="0" stroke="black" stroke-width="1" />
<path d="M-22.955983100774354,-11.185774971052131 L-26.02047469503831,-11.802279563932766 L-26.036282823209945,-14.640420887197786" fill-opacity="0" stroke="black" stroke-width="1" />
<path d="M-22.955983100774354,11.185774971052131 L-26.02047469503831,11.802279563932766 L-26.036282823209945,14.640420887197786" fill-opacity="0" stroke="black" stroke-width="1" />
<path d="M-26.02047469503831,-11.802279563932766 L-26.036282823209945,-14.640420887197786 L-36.0,-0.0" fill-opacity="0" stroke="black" stroke-width="1" />
<path d="M-26.02047469503831,11.802279563932766 L-26.036282823209945,14.640420887197786 L-36.0,-0.0" fill-opacity="0" stroke="black" stroke-width="1" />
<path d="M-50.0,-14.0 L-39.800356607523796,-17.47536586589444 L-40.04739783201606,-20.26063183011611" fill-opacity="0" stroke="black" stroke-width="1" />
<path d="M-50.0,14.0 L-39.800356607523796,17.47536586589444 L-40.04739783201606,20.26063183011611" fill-opacity="0" stroke="black" stroke-width="1" />
<path d="M-39.800356607523796,-17.47536586589444 L-40.04739783201606,-20.26063183011611 L-43.027801966251786,-22.88072924242252" fill-opacity="0" stroke="black" stroke-width="1" />
<path d="M-39.800356607523796,17.47536586589444 L-40.04739783201606,20.26063183011611 L-43.027801966251786,22.88072924242252" fill-opacity="0" stroke="black" stroke-width="1" />
<path d="M-40.04739783201606,-20.26063183011611 L-43.027801966251786,-22.88072924242252 L-50.0,-32.0" fill-opacity="0" stroke="black" stroke-width="1" />
<path d="M-40.04739783201606,20.26063183011611 L-43.027801966251786,22.88072924242252 L-50.0,32.0" fill-opacity="0" stroke="black" stroke-width="1" />
<path d="M-50.0,50.0 L-37.0,63.0 L-35.0,65.0" fill-opacity="0" stroke="black" stroke-width="1" />
<path d="M-50.0,-50.0 L-37.0,-63.0 L-35.0,-65.0" fill-opacity="0" stroke="black" stroke-width="1" />
<path d="M-37.0,63.0 L-35.0,65.0 L-25.0,75.0" fill-opacity="0" stroke="black" stroke-width="1" />
<path d="M-37.0,-63.0 L-35.0,-65.0 L-25.0,-75.0" fill-opacity="0" stroke="black" stroke-width="1" />
<path d="M-35.0,65.0 L-25.0,75.0 L-17.0,83.0" fill-opacity="0" stroke="black" stroke-width="1" />
<path d="M-35.0,-65.0 L-25.0,-75.0 L-17.0,-83.0" fill-opacity="0" stroke="black" stroke-width="1" />
<path d="M-25.0,75.0 L-17.0,83.0 L-13.0,87.0" fill-opacity="0" stroke="black" stroke-width="1" />
<path d="M-25.0,-75.0 L-17.0,-83.0 L-13.0,-87.0" fill-opacity="0" stroke="black" stroke-width="1" />
<path d="M-17.0,83.0 L-13.0,87.0 L0.0,100.0" fill-opacity="0" stroke="black" stroke-width="1" />
<path d="M-17.0,-83.0 L-13.0,-87.0 L0.0,-100.0" fill-opacity="0" stroke="black" stroke-width="1" />
<path d="M85.0,-0.0 L83.761902152613,4.879568282350783 L81.79162275060631,5.312180889775816" fill-opacity="0" stroke="black" stroke-width="1" />
<path d="M85.0,-0.0 L83.761902152613,-4.879568282350783 L81.79162275060631,-5.312180889775816" fill-opacity="0" stroke="black" stroke-width="1" />
<path d="M83.761902152613,4.879568282350783 L81.79162275060631,5.312180889775816 L81.13755926921453,7.608570230664226" fill-opacity="0" stroke="black" stroke-width="1" />
<path d="M83.761902152613,-4.879568282350783 L81.79162275060631,-5.312180889775816 L81.13755926921453,-7.608570230664226" fill-opacity="0" stroke="black" stroke-width="1" />
<path d="M81.79162275060631,5.312180889775816 L81.13755926921453,7.608570230664226 L78.0,-0.0" fill-opacity="0" stroke="black" stroke-width="1" />
<path d="M81.79162275060631,-5.312180889775816 L81.13755926921453,-7.608570230664226 L78.0,-0.0" fill-opacity="0" stroke="black" stroke-width="1" />
<path d="M78.0,-0.0 L77.04401689922565,11.185774971052131 L73.9795253049617,11.802279563932766" fill-opacity="0" stroke="black" stroke-width="1" />
<path d="M78.0,-0.0 L77.04401689922565,-11.185774971052131 L73.9795253049617,-11.802279563932766" fill-opacity="0" stroke="black" stroke-width="1" />
<path d="M77.04401689922565,11.185774971052131 L73.9795253049617,11.802279563932766 L73.96371717679006,14.640420887197786" fill-opacity="0" stroke="black" stroke-width="1" />
<path d="M77.04401689922565,-11.185774971052131 L73.9795253049617,-11.802279563932766 L73.96371717679006,-14.640420887197786" fill-opacity="0" stroke="black" stroke-width="1" />
<path d="M73.9795253049617,11.802279563932766 L73.96371717679006,14.640420887197786 L64.0,-0.0" fill-opacity="0" stroke="black" stroke-width="1" />
<path d="M73.9795253049617,-11.802279563932766 L73.96371717679006,-14.640420887197786 L64.0,-0.0" fill-opacity="0" stroke="black" stroke-width="1" />
<path d="M50.0,14.0 L60.199643392476204,17.47536586589444 L59.95260216798394,20.26063183011611" fill-opacity="0" stroke="black" stroke-width="1" />
<path d="M50.0,-14.0 L60.199643392476204,-17.47536586589444 L59.95260216798394,-20.26063183011611" fill-opacity="0" stroke="black" stroke-width="1" />
<path d="M60.199643392476204,17.47536586589444 L59.95260216798394,20.26063183011611 L56.972198033748214,22.88072924242252" fill-opacity="0" stroke="black" stroke-width="1" />
<path d="M60.199643392476204,-17.47536586589444 L59.95260216798394,-20.26063183011611 L56.972198033748214,-22.88072924242252" fill-opacity="0" stroke="black" stroke-width="1" />
<path d="M59.95260216798394,20.26063183011611 L56.972198033748214,22.88072924242252 L50.0,32.0" fill-opacity="0" stroke="black" stroke-width="1" />
<path d="M59.95260216798394,-20.26063183011611 L56.972198033748214,-22.88072924242252 L50.0,-32.0" fill-opacity="0" stroke="black" stroke-width="1" />
<path d="M50.0,50.0 L63.0,37.0 L65.0,35.0" fill-opacity="0" stroke="black" stroke-width="1" />
<path d="M50.0,-50.0 L63.0,-37.0 L65.0,-35.0" fill-opacity="0" stroke="black" stroke-width="1" />
<path d="M63.0,37.0 L65.0,35.0 L75.0,25.0" fill-opacity="0" stroke="black" stroke-width="1" />
<path d="M63.0,-37.0 L65.0,-35.0 L75.0,-25.0" fill-opacity="0" stroke="black" stroke-width="1" />
<path d="M65.0,35.0 L75.0,25.0 L83.0,17.0" fill-opacity="0" stroke="black" stroke-width="1" />
<path d="M65.0,-35.0 L75.0,-25.0 L83.0,-17.0" fill-opacity="0" stroke="black" stroke-width="1" />
<path d="M75.0,25.0 L83.0,17.0 L87.0,13.0" fill-opacity="0" stroke="black" stroke-width="1" />
<path d="M75.0,-25.0 L83.0,-17.0 L87.0,-13.0" fill-opacity="0" stroke="black" stroke-width="1" />
<path d="M83.0,17.0 L87.0,13.0 L100.0,-0.0" fill-opacity="0" stroke="black" stroke-width="1" />
<path d="M83.0,-17.0 L87.0,-13.0 L100.0,-0.0" fill-opacity="0" stroke="black" stroke-width="1" />
<path d="M0.0,-15.0 L4.879568282350783,-16.23809784738699 L5.312180889775816,-18.2083772493937" fill-opacity="0" stroke="black" stroke-width="1" />
<path d="M0.0,15.0 L4.879568282350783,16.23809784738699 L5.312180889775816,18.2083772493937" fill-opacity="0" stroke="black" stroke-width="1" />
<path d="M0.0,85.0 L4.879568282350783,83.761902152613 L5.312180889775816,81.79162275060631" fill-opacity="0" stroke="black" stroke-width="1" />
<path d="M0.0,-85.0 L4.879568282350783,-83.761902152613 L5.312180889775816,-81.79162275060631" fill-opacity="0" stroke="black" stroke-width="1" />
<path d="M4.879568282350783,-16.23809784738699 L5.312180889775816,-18.2083772493937 L7.608570230664226,-18.862440730785465" fill-opacity="0" stroke="black" stroke-width="1" />
<path d="M4.879568282350783,16.23809784738699 L5.312180889775816,18.2083772493937 L7.608570230664226,18.862440730785465" fill-opacity="0" stroke="black" stroke-width="1" />
<path d="M4.879568282350783,83.761902152613 L5.312180889775816,81.79162275060631 L7.608570230664226,81.13755926921453" fill-opacity="0" stroke="black" stroke-width="1" />
<path d="M4.879568282350783,-83.761902152613 L5.312180889775816,-81.79162275060631 L7.608570230664226,-81.13755926921453" fill-opacity="0" stroke="black" stroke-width="1" />
<path d="M5.312180889775816,-18.2083772493937 L7.608570230664226,-18.862440730785465 L0.0,-22.0" fill-opacity="0" stroke="black" stroke-width="1" />
<path d="M5.312180889775816,18.2083772493937 L7.608570230664226,18.862440730785465 L0.0,22.0" fill-opacity="0" stroke="black" stroke-width="1" />
<path d="M5.312180889775816,81.79162275060631 L7.608570230664226,81.13755926921453 L0.0,78.0" fill-opacity="0" stroke="black" stroke-width="1" />
<path d="M5.312180889775816,-81.79162275060631 L7.608570230664226,-81.13755926921453 L0.0,-78.0" fill-opacity="0" stroke="black" stroke-width="1" />
<path d="M0.0,-22.0 L11.185774971052131,-22.955983100774354 L11.802279563932766,-26.02047469503831" fill-opacity="0" stroke="black" stroke-width="1" />
<path d="M0.0,22.0 L11.185774971052131,22.955983100774354 L11.802279563932766,26.02047469503831" fill-opacity="0" stroke="black" stroke-width="1" />
<path d="M0.0,78.0 L11.185774971052131,77.04401689922565 L11.802279563932766,73.9795253049617" fill-opacity="0" stroke="black" stroke-width="1" />
<path d="M0.0,-78.0 L11.185774971052131,-77.04401689922565 L11.802279563932766,-73.9795253049617" fill-opacity="0" stroke="black" stroke-width="1" />
<path d="M11.185774971052131,-22.955983100774354 L11.802279563932766,-26.02047469503831 L14.640420887197786,-26.036282823209945" fill-opacity="0" stroke="black" stroke-width="1" />
<path d="M11.185774971052131,22.955983100774354 L11.802279563932766,26.02047469503831 L14.640420887197786,26.036282823209945" fill-opacity="0" stroke="black" stroke-width="1" />
<path d="M11.185774971052131,77.04401689922565 L11.802279563932766,73.9795253049617 L14.640420887197786,73.96371717679006" fill-opacity="0" stroke="black" stroke-width="1" />
<path d="M11.185774971052131,-77.04401689922565 L11.802279563932766,-73.9795253049617 L14.640420887197786,-73.96371717679006" fill-opacity="0" stroke="black" stroke-width="1" />
<path d="M11.802279563932766,-26.02047469503831 L14.640420887197786,-26.036282823209945 L0.0,-36.0" fill-opacity="0" stroke="black" stroke-width="1" />
<path d="M11.802279563932766,26.02047469503831 L14.640420887197786,26.036282823209945 L0.0,36.0" fill-opacity="0" stroke="black" stroke-width="1" />
<path d="M11.802279563932766,73.9795253049617 L14.640420887197786,73.96371717679006 L0.0,64.0" fill-opacity="0" stroke="black" stroke-width="1" />
<path d="M11.802279563932766,-73.9795253049617 L14.640420887197786,-73.96371717679006 L0.0,-64.0" fill-opacity="0" stroke="black" stroke-width="1" />
<path d="M14.0,-50.0 L17.47536586589444,-39.800356607523796 L20.26063183011611,-40.04739783201606" fill-opacity="0" stroke="black" stroke-width="1" />
<path d="M14.0,50.0 L17.47536586589444,39.800356607523796 L20.26063183011611,40.04739783201606" fill-opacity="0" stroke="black" stroke-width="1" />
<path d="M14.0,50.0 L17.47536586589444,60.199643392476204 L20.26063183011611,59.95260216798394" fill-opacity="0" stroke="black" stroke-width="1" />
<path d="M14.0,-50.0 L17.47536586589444,-60.199643392476204 L20.26063183011611,-59.95260216798394" fill-opacity="0" stroke="black" stroke-width="1" />
<path d="M17.47536586589444,-39.800356607523796 L20.26063183011611,-40.04739783201606 L22.88072924242252,-43.027801966251786" fill-opacity="0" stroke="black" stroke-width="1" />
<path d="M17.47536586589444,39.800356607523796 L20.26063183011611,40.04739783201606 L22.88072924242252,43.027801966251786" fill-opacity="0" stroke="black" stroke-width="1" />
<path d="M17.47536586589444,60.199643392476204 L20.26063183011611,59.95260216798394 L22.88072924242252,56.972198033748214" fill-opacity="0" stroke="black" stroke-width="1" />
<path d="M17.47536586589444,-60.199643392476204 L20.26063183011611,-59.95260216798394 L22.88072924242252,-56.972198033748214" fill-opacity="0" stroke="black" stroke-width="1" />
<path d="M20.26063183011611,-40.04739783201606 L22.88072924242252,-43.027801966251786 L32.0,-50.0" fill-opacity="0" stroke="black" stroke-width="1" />
<path d="M20.26063183011611,40.04739783201606 L22.88072924242252,43.027801966251786 L32.0,50.0" fill-opacity="0" stroke="black" stroke-width="1" />
<path d="M20.26063183011611,59.95260216798394 L22.88072924242252,56.972198033748214 L32.0,50.0" fill-opacity="0" stroke="black" stroke-width="1" />
<path d="M20.26063183011611,-59.95260216798394 L22.88072924242252,-56.972198033748214 L32.0,-50.0" fill-opacity="0" stroke="black" stroke-width="1" />
<path d="M0.0,85.0 L-4.879568282350783,83.761902152613 L-5.312180889775816,81.79162275060631" fill-opacity="0" stroke="black" stroke-width="1" />
<path d="M0.0,-15.0 L-4.879568282350783,-16.23809784738699 L-5.312180889775816,-18.2083772493937" fill-opacity="0" stroke="black" stroke-width="1" />
<path d="M0.0,15.0 L-4.879568282350783,16.238097847386996 L-5.312180889775816,18.208377249393692" fill-opacity="0" stroke="black" stroke-width="1" />
<path d="M0.0,-85.0 L-4.879568282350783,-83.761902152613 L-5.312180889775816,-81.79162275060631" fill-opacity="0" stroke="black" stroke-width="1" />
<path d="M-4.879568282350783,83.761902152613 L-5.312180889775816,81.79162275060631 L-7.608570230664226,81.13755926921453" fill-opacity="0" stroke="black" stroke-width="1" />
<path d="M-4.879568282350783,-16.23809784738699 L-5.312180889775816,-18.2083772493937 L-7.608570230664226,-18.862440730785465" fill-opacity="0" stroke="black" stroke-width="1" />
<path d="M-4.879568282350783,16.238097847386996 L-5.312180889775816,18.208377249393692 L-7.608570230664226,18.862440730785465" fill-opacity="0" stroke="black" stroke-width="1" />
<path d="M-4.879568282350783,-83.761902152613 L-5.312180889775816,-81.79162275060631 L-7.608570230664226,-81.13755926921453" fill-opacity="0" stroke="black" stroke-width="1" />
<path d="M-5.312180889775816,81.79162275060631 L-7.608570230664226,81.13755926921453 L0.0,78.0" fill-opacity="0" stroke="black" stroke-width="1" />
<path d="M-5.312180889775816,-18.2083772493937 L-7.608570230664226,-18.862440730785465 L0.0,-22.0" fill-opacity="0" stroke="black" stroke-width="1" />
<path d="M-5.312180889775816,18.208377249393692 L-7.608570230664226,18.862440730785465 L0.0,22.0" fill-opacity="0" stroke="black" stroke-width="1" />
<path d="M-5.312180889775816,-81.79162275060631 L-7.608570230664226,-81.13755926921453 L0.0,-78.0" fill-opacity="0" stroke="black" stroke-width="1" />
<path d="M0.0,78.0 L-11.185774971052131,77.04401689922565 L-11.802279563932766,73.9795253049617" fill-opacity="0" stroke="black" stroke-width="1" />
<path d="M0.0,-22.0 L-11.185774971052131,-22.955983100774354 L-11.802279563932766,-26.02047469503831" fill-opacity="0" stroke="black" stroke-width="1" />
<path d="M0.0,22.0 L-11.185774971052131,22.955983100774347 L-11.802279563932766,26.020474695038303" fill-opacity="0" stroke="black" stroke-width="1" />
<path d="M0.0,-78.0 L-11.185774971052131,-77.04401689922565 L-11.802279563932766,-73.9795253049617" fill-opacity="0" stroke="black" stroke-width="1" />
<path d="M-11.185774971052131,77.04401689922565 L-11.802279563932766,73.9795253049617 L-14.640420887197786,73.96371717679006" fill-opacity="0" stroke="black" stroke-width="1" />
<path d="M-11.185774971052131,-22.955983100774354 L-11.802279563932766,-26.02047469503831 L-14.640420887197786,-26.036282823209945" fill-opacity="0" stroke="black" stroke-width="1" />
<path d="M-11.185774971052131,22.955983100774347 L-11.802279563932766,26.020474695038303 L-14.640420887197786,26.036282823209945" fill-opacity="0" stroke="black" stroke-width="1" />
<path d="M-11.185774971052131,-77.04401689922565 L-11.802279563932766,-73.9795253049617 L-14.640420887197786,-73.96371717679006" fill-opacity="0" stroke="black" stroke-width="1" />
<path d="M-11.802279563932766,73.9795253049617 L-14.640420887197786,73.96371717679006 L0.0,64.0" fill-opacity="0" stroke="black" stroke-width="1" />
<path d="M-11.802279563932766,-26.02047469503831 L-14.640420887197786,-26.036282823209945 L0.0,-36.0" fill-opacity="0" stroke="black" stroke-width="1" />
<path d="M-11.802279563932766,26.020474695038303 L-14.640420887197786,26.036282823209945 L0.0,36.0" fill-opacity="0" stroke="black" stroke-width="1" />
<path d="M-11.802279563932766,-73.9795253049617 L-14.640420887197786,-73.96371717679006 L0.0,-64.0" fill-opacity="0" stroke="black" stroke-width="1" />
<path d="M-14.0,50.0 L-17.47536586589444,60.199643392476204 L-20.26063183011611,59.95260216798394" fill-opacity="0" stroke="black" stroke-width="1" />
<path d="M-14.0,-50.0 L-17.47536586589444,-39.800356607523796 L-20.26063183011611,-40.04739783201606" fill-opacity="0" stroke="black" stroke-width="1" />
<path d="M-14.0,50.0 L-17.47536586589444,39.800356607523796 L-20.26063183011611,40.04739783201606" fill-opacity="0" stroke="black" stroke-width="1" />
<path d="M-14.0,-50.0 L-17.47536586589444,-60.199643392476204 L-20.26063183011611,-59.95260216798394" fill-opacity="0" stroke="black" stroke-width="1" />
<path d="M-17.47536586589444,60.199643392476204 L-20.26063183011611,59.95260216798394 L-22.88072924242252,56.972198033748214" fill-opacity="0" stroke="black" stroke-width="1" />
<path d="M-17.47536586589444,-39.800356607523796 L-20.26063183011611,-40.04739783201606 L-22.88072924242252,-43.027801966251786" fill-opacity="0" stroke="black" stroke-width="1" />
<path d="M-17.47536586589444,39.800356607523796 L-20.26063183011611,40.04739783201606 L-22.88072924242252,43.027801966251786" fill-opacity="0" stroke="black" stroke-width="1" />
<path d="M-17.47536586589444,-60.199643392476204 L-20.26063183011611,-59.95260216798394 L-22.88072924242252,-56.972198033748214" fill-opacity="0" stroke="black" stroke-width="1" />
<path d="M-20.26063183011611,59.95260216798394 L-22.88072924242252,56.972198033748214 L-32.0,50.0" fill-opacity="0" stroke="black" stroke-width="1" />
<path d="M-20.26063183011611,-40.04739783201606 L-22.88072924242252,-43.027801966251786 L-32.0,-50.0" fill-opacity="0" stroke="black" stroke-width="1" />
<path d="M-20.26063183011611,40.04739783201606 L-22.88072924242252,43.027801966251786 L-32.0,50.0" fill-opacity="0" stroke="black" stroke-width="1" />
<path d="M-20.26063183011611,-59.95260216798394 L-22.88072924242252,-56.972198033748214 L-32.0,-50.0" fill-opacity="0" stroke="black" stroke-width="1" />
<path d="M-85.0,-0.0 L-83.761902152613,-4.879568282350783 L-81.79162275060631,-5.312180889775816" fill-opacity="0" stroke="black" stroke-width="1" />
<path d="M-85.0,-0.0 L-83.761902152613,4.879568282350783 L-81.79162275060631,5.312180889775816" fill-opacity="0" stroke="black" stroke-width="1" />
<path d="M-83.761902152613,-4.879568282350783 L-81.79162275060631,-5.312180889775816 L-81.13755926921453,-7.608570230664226" fill-opacity="0" stroke="black" stroke-width="1" />
<path d="M-83.761902152613,4.879568282350783 L-81.79162275060631,5.312180889775816 L-81.13755926921453,7.608570230664226" fill-opacity="0" stroke="black" stroke-width="1" />
<path d="M-81.79162275060631,-5.312180889775816 L-81.13755926921453,-7.608570230664226 L-78.0,-0.0" fill-opacity="0" stroke="black" stroke-width="1" />
<path d="M-81.79162275060631,5.312180889775816 L-81.13755926921453,7.608570230664226 L-78.0,-0.0" fill-opacity="0" stroke="black" stroke-width="1" />
<path d="M-78.0,-0.0 L-77.04401689922565,-11.185774971052131 L-73.9795253049617,-11.802279563932766" fill-opacity="0" stroke="black" stroke-width="1" />
<path d="M-78.0,-0.0 L-77.04401689922565,11.185774971052131 L-73.9795253049617,11.802279563932766" fill-opacity="0" stroke="black" stroke-width="1" />
<path d="M-77.04401689922565,-11.185774971052131 L-73.9795253049617,-11.802279563932766 L-73.96371717679006,-14.640420887197786" fill-opacity="0" stroke="black" stroke-width="1" />
<path d="M-77.04401689922565,11.185774971052131 L-73.9795253049617,11.802279563932766 L-73.96371717679006,14.640420887197786" fill-opacity="0" stroke="black" stroke-width="1" />
<path d="M-73.9795253049617,-11.802279563932766 L-73.96371717679006,-14.640420887197786 L-64.0,-0.0" fill-opacity="0" stroke="black" stroke-width="1" />
<path d="M-73.9795253049617,11.802279563932766 L-73.96371717679006,14.640420887197786 L-64.0,-0.0" fill-opacity="0" stroke="black" stroke-width="1" />
<path d="M-50.0,-14.0 L-60.199643392476204,-17.47536586589444 L-59.95260216798394,-20.26063183011611" fill-opacity="0" stroke="black" stroke-width="1" />
<path d="M-50.0,14.0 L-60.199643392476204,17.47536586589444 L-59.95260216798394,20.26063183011611" fill-opacity="0" stroke="black" stroke-width="1" />
<path d="M-60.199643392476204,-17.47536586589444 L-59.95260216798394,-20.26063183011611 L-56.972198033748214,-22.88072924242252" fill-opacity="0" stroke="black" stroke-width="1" />
<path d="M-60.199643392476204,17.47536586589444 L-59.95260216798394,20.26063183011611 L-56.972198033748214,22.88072924242252" fill-opacity="0" stroke="black" stroke-width="1" />
<path d="M-59.95260216798394,-20.26063183011611 L-56.972198033748214,-22.88072924242252 L-50.0,-32.0" fill-opacity="0" stroke="black" stroke-width="1" />
<path d="M-59.95260216798394,20.26063183011611 L-56.972198033748214,22.88072924242252 L-50.0,32.0" fill-opacity="0" stroke="black" stroke-width="1" />
<path d="M-50.0,-50.0 L-63.0,-37.0 L-65.0,-35.0" fill-opacity="0" stroke="black" stroke-width="1" />
<path d="M-50.0,50.0 L-63.0,37.0 L-65.0,35.0" fill-opacity="0" stroke="black" stroke-width="1" />
<path d="M-63.0,-37.0 L-65.0,-35.0 L-75.0,-25.0" fill-opacity="0" stroke="black" stroke-width="1" />
<path d="M-63.0,37.0 L-65.0,35.0 L-75.0,25.0" fill-opacity="0" stroke="black" stroke-width="1" />
<path d="M-65.0,-35.0 L-75.0,-25.0 L-83.0,-17.0" fill-opacity="0" stroke="black" stroke-width="1" />
<path d="M-65.0,35.0 L-75.0,25.0 L-83.0,17.0" fill-opacity="0" stroke="black" stroke-width="1" />
<path d="M-75.0,-25.0 L-83.0,-17.0 L-87.0,-13.0" fill-opacity="0" stroke="black" stroke-width="1" />
<path d="M-75.0,25.0 L-83.0,17.0 L-87.0,13.0" fill-opacity="0" stroke="black" stroke-width="1" />
<path d="M-83.0,-17.0 L-87.0,-13.0 L-100.0,-0.0" fill-opacity="0" stroke="black" stroke-width="1" />
<path d="M-83.0,17.0 L-87.0,13.0 L-100.0,-0.0" fill-opacity="0" stroke="black" stroke-width="1" />
</svg>