<?xml version="1.0" encoding="UTF-8"?>
<svg xmlns="http://www.w3.org/2000/svg" xmlns:xlink="http://www.w3.org/1999/xlink"
     width="250" height="250" viewBox="-125.0 -125.0 250 250">
<defs>
</defs>
<path d="M50.0,50.0 L38.0,62.0 L36.0,64.0" fill-opacity="0" stroke="black" stroke-width="1" />
<path d="M50.0,-50.0 L38.0,-62.0 L36.0,-64.0" fill-opacity="0" stroke="black" stroke-width="1" />
<path d="M38.0,62.0 L36.0,64.0 L18.0,82.0" fill-opacity="0" stroke="black" stroke-width="1" />
<path d="M38.0,-62.0 L36.0,-64.0 L18.0,-82.0" fill-opacity="0" stroke="black" stroke-width="1" />
<path d="M36.0,64.0 L18.0,82.0 L0.04010788619816935,93.05389773770273" fill-opacity="0" stroke="black" stroke-width="1" />
<path d="M36.0,-64.0 L18.0,-82.0 L0.04010788619816935,-93.05389773770273" fill-opacity="0" stroke="black" stroke-width="1" />
<path d="M18.0,-18.0 L6.946102262297271,-0.04010788619816935 L0.0,-0.0" fill-opacity="0" stroke="black" stroke-width="1" />
<path d="M18.0,18.0 L6.946102262297271,0.04010788619816935 L0.0,-0.0" fill-opacity="0" stroke="black" stroke-width="1" />
<path d="M-50.0,50.0 L-38.0,62.0 L-36.0,64.0" fill-opacity="0" stroke="black" stroke-width="1" />
<path d="M-50.0,-50.0 L-38.0,-62.0 L-36.0,-64.0" fill-opacity="0" stroke="black" stroke-width="1" />
<path d="M-38.0,62.0 L-36.0,64.0 L-18.0,82.0" fill-opacity="0" stroke="black" stroke-width="1" />
<path d="M-38.0,-62.0 L-36.0,-64.0 L-18.0,-82.0" fill-opacity="0" stroke="black" stroke-width="1" />
<path d="M-36.0,64.0 L-18.0,82.0 L-0.04010788619816935,93.05389773770273" fill-opacity="0" stroke="black" stroke-width="1" />
<path d="M-36.0,-64.0 L-18.0,-82.0 L-0.04010788619816935,-93.05389773770273" fill-opacity="0" stroke="black" stroke-width="1" />
<path d="M-18.0,-18.0 L-6.946102262297271,-0.04010788619816935 L0.0,-0.0" fill-opacity="0" stroke="black" stroke-width="1" />
<path d="M-18.0,18.0 L-6.946102262297271,0.04010788619816935 L0.0,-0.0" fill-opacity="0" stroke="black" stroke-width="1" />
<path d="M50.0,50.0 L62.0,38.0 L64.0,36.0" fill-opacity="0" stroke="black" stroke-width="1" />
<path d="M50.0,-50.0 L62.0,-38.0 L64.0,-36.0" fill-opacity="0" stroke="black" stroke-width="1" />
<path d="M62.0,38.0 L64.0,36.0 L82.0,18.0" fill-opacity="0" stroke="black" stroke-width="1" />
<path d="M62.0,-38.0 L64.0,-36.0 L82.0,-18.0" fill-opacity="0" stroke="black" stroke-width="1" />
<path d="M64.0,36.0 L82.0,18.0 L93.05389773770273,0.04010788619816935" fill-opacity="0" stroke="black" stroke-width="1" />
<path d="M64.0,-36.0 L82.0,-18.0 L93.05389773770273,-0.04010788619816935" fill-opacity="0" stroke="black" stroke-width="1" />
<path d="M82.0,18.0 L93.05389773770273,0.04010788619816935 L100.0,-0.0" fill-opacity="0" stroke="black" stroke-width="1" />
<path d="M82.0,-18.0 L93.05389773770273,-0.04010788619816935 L100.0,-0.0" fill-opacity="0" stroke="black" stroke-width="1" />
<path d="M18.0,-18.0 L0.04010788619816935,-6.946102262297271 L0.0,-0.0" fill-opacity="0" stroke="black" stroke-width="1" />
<path d="M18.0,18.0 L0.04010788619816935,6.946102262297271 L0.0,-0.0" fill-opacity="0" stroke="black" stroke-width="1" />
<path d="M18.0,82.0 L0.04010788619816935,93.05389773770273 L0.0,100.0" fill-opacity="0" stroke="black" stroke-width="1" />
<path d="M18.0,-82.0 L0.04010788619816935,-93.05389773770273 L0.0,-100.0" fill-opacity="0" stroke="black" stroke-width="1" />
<path d="M-18.0,82.0 L-0.04010788619816935,93.05389773770273 L0.0,100.0" fill-opacity="0" stroke="black" stroke-width="1" />
<path d="M-18.0,-18.0 L-0.04010788619816935,-6.946102262297271 L0.0,-0.0" fill-opacity="0" stroke="black" stroke-width="1" />
<path d="M-18.0,18.0 L-0.04010788619816935,6.9461022622972735 L0.0,-0.0" fill-opacity="0" stroke="black" stroke-width="1" />
<path d="M-18.0,-82.0 L-0.04010788619816935,-93.05389773770273 L0.0,-100.0" fill-opacity="0" stroke="black" stroke-width="1" />
<path d="M-50.0,-50.0 L-62.0,-38.0 L-64.0,-36.0" fill-opacity="0" stroke="black" stroke-width="1" />
<path d="M-50.0,50.0 L-62.0,38.0 L-64.0,36.0" fill-opacity="0" stroke="black" stroke-width="1" />
<path d="M-62.0,-38.0 L-64.0,-36.0 L-82.0,-18.0" fill-opacity="0" stroke="black" stroke-width="1" />
<path d="M-62.0,38.0 L-64.0,36.0 L-82.0,18.0" fill-opacity="0" stroke="black" stroke-width="1" />
<path d="M-64.0,-36.0 L-82.0,-18.0 L-93.05389773770273,-0.04010788619816935" fill-opacity="0" stroke="black" stroke-width="1" />
<path d="M-64.0,36.0 L-82.0,18.0 L-93.05389773770273,0.04010788619816935" fill-opacity="0" stroke="black" stroke-width="1" />
<path d="M-82.0,-18.0 L-93.05389773770273,-0.04010788619816935 L-100.0,-0.0" fill-opacity="0" stroke="black" stroke-width="1" />
<path d="M-82.0,18.0 L-93.05389773770273,0.04010788619816935 L-100.0,-0.0" fill-opacity="0" stroke="black" stroke-width="1" />
<circle cx="0" cy="-97" r="8" stroke-dasharray="39.653880605311166 10.611601852125524" stroke-dashoffset="-17.59291886010284" stroke="black" stroke-width="1" fill="white" fill-opacity="1" />
<circle cx="0" cy="-97" r="4" stroke="black" stroke-width="1" fill="white" fill-opacity="1" />
</svg>