<?xml version="1.0" encoding="UTF-8"?>
<svg xmlns="http://www.w3.org/2000/svg" xmlns:xlink="http://www.w3.org/1999/xlink"
     width="250" height="250" viewBox="-125.0 -125.0 250 250">
<defs>
</defs>
<path d="M13.0,-0.0 L22.951864909907016,-9.537609149773218 L27.0,-0.0" fill-opacity="0" stroke="black" stroke-width="1" />
<path d="M13.0,-0.0 L22.951864909907016,9.537609149773218 L27.0,-0.0" fill-opacity="0" stroke="black" stroke-width="1" />
<path d="M27.0,-0.0 L34.927416335467505,-9.892474858185963 L37.0,-0.0" fill-opacity="0" stroke="black" stroke-width="1" />
<path d="M27.0,-0.0 L34.927416335467505,9.892474858185963 L37.0,-0.0" fill-opacity="0" stroke="black" stroke-width="1" />
<path d="M50.0,-6.0 L40.24527834295628,-11.798935177316599 L43.23416269376424,-12.225120842282108" fill-opacity="0" stroke="black" stroke-width="1" />
<path d="M50.0,6.0 L40.24527834295628,11.798935177316599 L43.23416269376424,12.225120842282108" fill-opacity="0" stroke="black" stroke-width="1" />
<path d="M40.24527834295628,-11.798935177316599 L43.23416269376424,-12.225120842282108 L50.0,-13.0" fill-opacity="0" stroke="black" stroke-width="1" />
<path d="M40.24527834295628,11.798935177316599 L43.23416269376424,12.225120842282108 L50.0,13.0" fill-opacity="0" stroke="black" stroke-width="1" />
<path d="M50.0,50.0 L34.0,66.0 L22.0,78.0" fill-opacity="0" stroke="black" stroke-width="1" />
<path d="M50.0,-50.0 L34.0,-66.0 L22.0,-78.0" fill-opacity="0" stroke="black" stroke-width="1" />
<path d="M34.0,66.0 L22.0,78.0 L19.0,81.0" fill-opacity="0" stroke="black" stroke-width="1" />
<path d="M34.0,-66.0 L22.0,-78.0 L19.0,-81.0" fill-opacity="0" stroke="black" stroke-width="1" />
<path d="M22.0,78.0 L19.0,81.0 L16.0,84.0" fill-opacity="0" stroke="black" stroke-width="1" />
<path d="M22.0,-78.0 L19.0,-81.0 L16.0,-84.0" fill-opacity="0" stroke="black" stroke-width="1" />
<path d="M19.0,81.0 L16.0,84.0 L9.063961507716032,89.06282600014772" fill-opacity="0" stroke="black" stroke-width="1" />
<path d="M19.0,-81.0 L16.0,-84.0 L9.063961507716032,-89.06282600014772" fill-opacity="0" stroke="black" stroke-width="1" />
<path d="M16.0,-16.0 L10.93717399985228,-9.063961507716032 L10.479563907267087,-7.576333128919234" fill-opacity="0" stroke="black" stroke-width="1" />
<path d="M16.0,16.0 L10.93717399985228,9.063961507716032 L10.479563907267087,7.576333128919234" fill-opacity="0" stroke="black" stroke-width="1" />
<path d="M10.93717399985228,-9.063961507716032 L10.479563907267087,-7.576333128919234 L9.346220431424051,-4.298586758824538" fill-opacity="0" stroke="black" stroke-width="1" />
<path d="M10.93717399985228,9.063961507716032 L10.479563907267087,7.576333128919234 L9.346220431424051,4.298586758824538" fill-opacity="0" stroke="black" stroke-width="1" />
<path d="M10.479563907267087,-7.576333128919234 L9.346220431424051,-4.298586758824538 L7.625023924989633,-3.9886921886943156" fill-opacity="0" stroke="black" stroke-width="1" />
<path d="M10.479563907267087,7.576333128919234 L9.346220431424051,4.298586758824538 L7.625023924989633,3.9886921886943156" fill-opacity="0" stroke="black" stroke-width="1" />
<path d="M9.346220431424051,-4.298586758824538 L7.625023924989633,-3.9886921886943156 L5.71936191950414,-3.254958583778439" fill-opacity="0" stroke="black" stroke-width="1" />
<path d="M9.346220431424051,4.298586758824538 L7.625023924989633,3.9886921886943156 L5.71936191950414,3.254958583778439" fill-opacity="0" stroke="black" stroke-width="1" />
<path d="M7.625023924989633,-3.9886921886943156 L5.71936191950414,-3.254958583778439 L2.0,-2.0" fill-opacity="0" stroke="black" stroke-width="1" />
<path d="M7.625023924989633,3.9886921886943156 L5.71936191950414,3.254958583778439 L2.0,2.0" fill-opacity="0" stroke="black" stroke-width="1" />
<path d="M3.254958583778439,94.28063808049586 L2.0,98.0 L0.0,100.0" fill-opacity="0" stroke="black" stroke-width="1" />
<path d="M3.254958583778439,-94.28063808049586 L2.0,-98.0 L0.0,-100.0" fill-opacity="0" stroke="black" stroke-width="1" />
<path d="M-13.0,-0.0 L-22.951864909907016,-9.537609149773218 L-27.0,-0.0" fill-opacity="0" stroke="black" stroke-width="1" />
<path d="M-13.0,-0.0 L-22.951864909907016,9.537609149773218 L-27.0,-0.0" fill-opacity="0" stroke="black" stroke-width="1" />
<path d="M-27.0,-0.0 L-34.927416335467505,-9.892474858185963 L-37.0,-0.0" fill-opacity="0" stroke="black" stroke-width="1" />
<path d="M-27.0,-0.0 L-34.927416335467505,9.892474858185963 L-37.0,-0.0" fill-opacity="0" stroke="black" stroke-width="1" />
<path d="M-50.0,-6.0 L-40.24527834295628,-11.798935177316599 L-43.23416269376424,-12.225120842282108" fill-opacity="0" stroke="black" stroke-width="1" />
<path d="M-50.0,6.0 L-40.24527834295628,11.798935177316599 L-43.23416269376424,12.225120842282108" fill-opacity="0" stroke="black" stroke-width="1" />
<path d="M-40.24527834295628,-11.798935177316599 L-43.23416269376424,-12.225120842282108 L-50.0,-13.0" fill-opacity="0" stroke="black" stroke-width="1" />
<path d="M-40.24527834295628,11.798935177316599 L-43.23416269376424,12.225120842282108 L-50.0,13.0" fill-opacity="0" stroke="black" stroke-width="1" />
<path d="M-50.0,50.0 L-34.0,66.0 L-22.0,78.0" fill-opacity="0" stroke="black" stroke-width="1" />
<path d="M-50.0,-50.0 L-34.0,-66.0 L-22.0,-78.0" fill-opacity="0" stroke="black" stroke-width="1" />
<path d="M-34.0,66.0 L-22.0,78.0 L-19.0,81.0" fill-opacity="0" stroke="black" stroke-width="1" />
<path d="M-34.0,-66.0 L-22.0,-78.0 L-19.0,-81.0" fill-opacity="0" stroke="black" stroke-width="1" />
<path d="M-22.0,78.0 L-19.0,81.0 L-16.0,84.0" fill-opacity="0" stroke="black" stroke-width="1" />
<path d="M-22.0,-78.0 L-19.0,-81.0 L-16.0,-84.0" fill-opacity="0" stroke="black" stroke-width="1" />
<path d="M-19.0,81.0 L-16.0,84.0 L-9.063961507716032,89.06282600014772" fill-opacity="0" stroke="black" stroke-width="1" />
<path d="M-19.0,-81.0 L-16.0,-84.0 L-9.063961507716032,-89.06282600014772" fill-opacity="0" stroke="black" stroke-width="1" />
<path d="M-16.0,-16.0 L-10.93717399985228,-9.063961507716032 L-10.479563907267087,-7.576333128919234" fill-opacity="0" stroke="black" stroke-width="1" />
<path d="M-16.0,16.0 L-10.93717399985228,9.063961507716032 L-10.479563907267087,7.576333128919234" fill-opacity="0" stroke="black" stroke-width="1" />
<path d="M-10.93717399985228,-9.063961507716032 L-10.479563907267087,-7.576333128919234 L-9.346220431424051,-4.298586758824538" fill-opacity="0" stroke="black" stroke-width="1" />
<path d="M-10.93717399985228,9.063961507716032 L-10.479563907267087,7.576333128919234 L-9.346220431424051,4.298586758824538" fill-opacity="0" stroke="black" stroke-width="1" />
<path d="M-10.479563907267087,-7.576333128919234 L-9.346220431424051,-4.298586758824538 L-7.625023924989633,-3.9886921886943156" fill-opacity="0" stroke="black" stroke-width="1" />
<path d="M-10.479563907267087,7.576333128919234 L-9.346220431424051,4.298586758824538 L-7.625023924989633,3.9886921886943156" fill-opacity="0" stroke="black" stroke-width="1" />
<path d="M-9.346220431424051,-4.298586758824538 L-7.625023924989633,-3.9886921886943156 L-5.71936191950414,-3.254958583778439" fill-opacity="0" stroke="black" stroke-width="1" />
<path d="M-9.346220431424051,4.298586758824538 L-7.625023924989633,3.9886921886943156 L-5.71936191950414,3.254958583778439" fill-opacity="0" stroke="black" stroke-width="1" />
<path d="M-7.625023924989633,-3.9886921886943156 L-5.71936191950414,-3.254958583778439 L-2.0,-2.0" fill-opacity="0" stroke="black" stroke-width="1" />
<path d="M-7.625023924989633,3.9886921886943156 L-5.71936191950414,3.254958583778439 L-2.0,2.0" fill-opacity="0" stroke="black" stroke-width="1" />
<path d="M-3.254958583778439,94.28063808049586 L-2.0,98.0 L0.0,100.0" fill-opacity="0" stroke="black" stroke-width="1" />
<path d="M-3.254958583778439,-94.28063808049586 L-2.0,-98.0 L0.0,-100.0" fill-opacity="0" stroke="black" stroke-width="1" />
<path d="M87.0,-0.0 L77.04813509009298,9.537609149773218 L73.0,-0.0" fill-opacity="0" stroke="black" stroke-width="1" />
<path d="M87.0,-0.0 L77.04813509009298,-9.537609149773218 L73.0,-0.0" fill-opacity="0" stroke="black" stroke-width="1" />
<path d="M73.0,-0.0 L65.07258366453249,9.892474858185963 L63.0,-0.0" fill-opacity="0" stroke="black" stroke-width="1" />
<path d="M73.0,-0.0 L65.07258366453249,-9.892474858185963 L63.0,-0.0" fill-opacity="0" stroke="black" stroke-width="1" />
<path d="M50.0,6.0 L59.75472165704372,11.798935177316599 L56.76583730623576,12.225120842282108" fill-opacity="0" stroke="black" stroke-width="1" />
<path d="M50.0,-6.0 L59.75472165704372,-11.798935177316599 L56.76583730623576,-12.225120842282108" fill-opacity="0" stroke="black" stroke-width="1" />
<path d="M59.75472165704372,11.798935177316599 L56.76583730623576,12.225120842282108 L50.0,13.0" fill-opacity="0" stroke="black" stroke-width="1" />
<path d="M59.75472165704372,-11.798935177316599 L56.76583730623576,-12.225120842282108 L50.0,-13.0" fill-opacity="0" stroke="black" stroke-width="1" />
<path d="M50.0,50.0 L66.0,34.0 L78.0,22.0" fill-opacity="0" stroke="black" stroke-width="1" />
<path d="M50.0,-50.0 L66.0,-34.0 L78.0,-22.0" fill-opacity="0" stroke="black" stroke-width="1" />
<path d="M66.0,34.0 L78.0,22.0 L81.0,19.0" fill-opacity="0" stroke="black" stroke-width="1" />
<path d="M66.0,-34.0 L78.0,-22.0 L81.0,-19.0" fill-opacity="0" stroke="black" stroke-width="1" />
<path d="M78.0,22.0 L81.0,19.0 L84.0,16.0" fill-opacity="0" stroke="black" stroke-width="1" />
<path d="M78.0,-22.0 L81.0,-19.0 L84.0,-16.0" fill-opacity="0" stroke="black" stroke-width="1" />
<path d="M81.0,19.0 L84.0,16.0 L89.06282600014772,9.063961507716032" fill-opacity="0" stroke="black" stroke-width="1" />
<path d="M81.0,-19.0 L84.0,-16.0 L89.06282600014772,-9.063961507716032" fill-opacity="0" stroke="black" stroke-width="1" />
<path d="M84.0,16.0 L89.06282600014772,9.063961507716032 L89.52043609273292,7.576333128919234" fill-opacity="0" stroke="black" stroke-width="1" />
<path d="M84.0,-16.0 L89.06282600014772,-9.063961507716032 L89.52043609273292,-7.576333128919234" fill-opacity="0" stroke="black" stroke-width="1" />
<path d="M89.06282600014772,9.063961507716032 L89.52043609273292,7.576333128919234 L90.65377956857594,4.298586758824538" fill-opacity="0" stroke="black" stroke-width="1" />
<path d="M89.06282600014772,-9.063961507716032 L89.52043609273292,-7.576333128919234 L90.65377956857594,-4.298586758824538" fill-opacity="0" stroke="black" stroke-width="1" />
<path d="M89.52043609273292,7.576333128919234 L90.65377956857594,4.298586758824538 L92.37497607501037,3.9886921886943156" fill-opacity="0" stroke="black" stroke-width="1" />
<path d="M89.52043609273292,-7.576333128919234 L90.65377956857594,-4.298586758824538 L92.37497607501037,-3.9886921886943156" fill-opacity="0" stroke="black" stroke-width="1" />
<path d="M90.65377956857594,4.298586758824538 L92.37497607501037,3.9886921886943156 L94.28063808049586,3.254958583778439" fill-opacity="0" stroke="black" stroke-width="1" />
<path d="M90.65377956857594,-4.298586758824538 L92.37497607501037,-3.9886921886943156 L94.28063808049586,-3.254958583778439" fill-opacity="0" stroke="black" stroke-width="1" />
<path d="M92.37497607501037,3.9886921886943156 L94.28063808049586,3.254958583778439 L98.0,2.0" fill-opacity="0" stroke="black" stroke-width="1" />
<path d="M92.37497607501037,-3.9886921886943156 L94.28063808049586,-3.254958583778439 L98.0,-2.0" fill-opacity="0" stroke="black" stroke-width="1" />
<path d="M94.28063808049586,3.254958583778439 L98.0,2.0 L100.0,-0.0" fill-opacity="0" stroke="black" stroke-width="1" />
<path d="M94.28063808049586,-3.254958583778439 L98.0,-2.0 L100.0,-0.0" fill-opacity="0" stroke="black" stroke-width="1" />
<path d="M0.0,-13.0 L9.537609149773218,-22.951864909907016 L0.0,-27.0" fill-opacity="0" stroke="black" stroke-width="1" />
<path d="M0.0,13.0 L9.537609149773218,22.951864909907016 L0.0,27.0" fill-opacity="0" stroke="black" stroke-width="1" />
<path d="M0.0,87.0 L9.537609149773218,77.04813509009298 L0.0,73.0" fill-opacity="0" stroke="black" stroke-width="1" />
<path d="M0.0,-87.0 L9.537609149773218,-77.04813509009298 L0.0,-73.0" fill-opacity="0" stroke="black" stroke-width="1" />
<path d="M0.0,-27.0 L9.892474858185963,-34.927416335467505 L0.0,-37.0" fill-opacity="0" stroke="black" stroke-width="1" />
<path d="M0.0,27.0 L9.892474858185963,34.927416335467505 L0.0,37.0" fill-opacity="0" stroke="black" stroke-width="1" />
<path d="M0.0,73.0 L9.892474858185963,65.07258366453249 L0.0,63.0" fill-opacity="0" stroke="black" stroke-width="1" />
<path d="M0.0,-73.0 L9.892474858185963,-65.07258366453249 L0.0,-63.0" fill-opacity="0" stroke="black" stroke-width="1" />
<path d="M6.0,-50.0 L11.798935177316599,-40.24527834295628 L12.225120842282108,-43.23416269376424" fill-opacity="0" stroke="black" stroke-width="1" />
<path d="M6.0,50.0 L11.798935177316599,40.24527834295628 L12.225120842282108,43.23416269376424" fill-opacity="0" stroke="black" stroke-width="1" />
<path d="M6.0,50.0 L11.798935177316599,59.75472165704372 L12.225120842282108,56.76583730623576" fill-opacity="0" stroke="black" stroke-width="1" />
<path d="M6.0,-50.0 L11.798935177316599,-59.75472165704372 L12.225120842282108,-56.76583730623576" fill-opacity="0" stroke="black" stroke-width="1" />
<path d="M11.798935177316599,-40.24527834295628 L12.225120842282108,-43.23416269376424 L13.0,-50.0" fill-opacity="0" stroke="black" stroke-width="1" />
<path d="M11.798935177316599,40.24527834295628 L12.225120842282108,43.23416269376424 L13.0,50.0" fill-opacity="0" stroke="black" stroke-width="1" />
<path d="M11.798935177316599,59.75472165704372 L12.225120842282108,56.76583730623576 L13.0,50.0" fill-opacity="0" stroke="black" stroke-width="1" />
<path d="M11.798935177316599,-59.75472165704372 L12.225120842282108,-56.76583730623576 L13.0,-50.0" fill-opacity="0" stroke="black" stroke-width="1" />
<path d="M16.0,-16.0 L9.063961507716032,-10.93717399985228 L7.576333128919234,-10.479563907267087" fill-opacity="0" stroke="black" stroke-width="1" />
<path d="M16.0,16.0 L9.063961507716032,10.93717399985228 L7.576333128919234,10.479563907267087" fill-opacity="0" stroke="black" stroke-width="1" />
<path d="M16.0,84.0 L9.063961507716032,89.06282600014772 L7.576333128919234,89.52043609273292" fill-opacity="0" stroke="black" stroke-width="1" />
<path d="M16.0,-84.0 L9.063961507716032,-89.06282600014772 L7.576333128919234,-89.52043609273292" fill-opacity="0" stroke="black" stroke-width="1" />
<path d="M9.063961507716032,-10.93717399985228 L7.576333128919234,-10.479563907267087 L4.298586758824538,-9.346220431424051" fill-opacity="0" stroke="black" stroke-width="1" />
<path d="M9.063961507716032,10.93717399985228 L7.576333128919234,10.479563907267087 L4.298586758824538,9.346220431424051" fill-opacity="0" stroke="black" stroke-width="1" />
<path d="M9.063961507716032,89.06282600014772 L7.576333128919234,89.52043609273292 L4.298586758824538,90.65377956857594" fill-opacity="0" stroke="black" stroke-width="1" />
<path d="M9.063961507716032,-89.06282600014772 L7.576333128919234,-89.52043609273292 L4.298586758824538,-90.65377956857594" fill-opacity="0" stroke="black" stroke-width="1" />
<path d="M7.576333128919234,-10.479563907267087 L4.298586758824538,-9.346220431424051 L3.9886921886943156,-7.625023924989633" fill-opacity="0" stroke="black" stroke-width="1" />
<path d="M7.576333128919234,10.479563907267087 L4.298586758824538,9.346220431424051 L3.9886921886943156,7.625023924989633" fill-opacity="0" stroke="black" stroke-width="1" />
<path d="M7.576333128919234,89.52043609273292 L4.298586758824538,90.65377956857594 L3.9886921886943156,92.37497607501037" fill-opacity="0" stroke="black" stroke-width="1" />
<path d="M7.576333128919234,-89.52043609273292 L4.298586758824538,-90.65377956857594 L3.9886921886943156,-92.37497607501037" fill-opacity="0" stroke="black" stroke-width="1" />
<path d="M4.298586758824538,-9.346220431424051 L3.9886921886943156,-7.625023924989633 L3.254958583778439,-5.71936191950414" fill-opacity="0" stroke="black" stroke-width="1" />
<path d="M4.298586758824538,9.346220431424051 L3.9886921886943156,7.625023924989633 L3.254958583778439,5.71936191950414" fill-opacity="0" stroke="black" stroke-width="1" />
<path d="M4.298586758824538,90.65377956857594 L3.9886921886943156,92.37497607501037 L3.254958583778439,94.28063808049586" fill-opacity="0" stroke="black" stroke-width="1" />
<path d="M4.298586758824538,-90.65377956857594 L3.9886921886943156,-92.37497607501037 L3.254958583778439,-94.28063808049586" fill-opacity="0" stroke="black" stroke-width="1" />
<path d="M3.9886921886943156,-7.625023924989633 L3.254958583778439,-5.71936191950414 L2.0,-2.0" fill-opacity="0" stroke="black" stroke-width="1" />
<path d="M3.9886921886943156,7.625023924989633 L3.254958583778439,5.71936191950414 L2.0,2.0" fill-opacity="0" stroke="black" stroke-width="1" />
<path d="M3.9886921886943156,92.37497607501037 L3.254958583778439,94.28063808049586 L2.0,98.0" fill-opacity="0" stroke="black" stroke-width="1" />
<path d="M3.9886921886943156,-92.37497607501037 L3.254958583778439,-94.28063808049586 L2.0,-98.0" fill-opacity="0" stroke="black" stroke-width="1" />
<path d="M0.0,87.0 L-9.537609149773218,77.04813509009298 L0.0,73.0" fill-opacity="0" stroke="black" stroke-width="1" />
<path d="M0.0,-13.0 L-9.537609149773218,-22.951864909907016 L0.0,-27.0" fill-opacity="0" stroke="black" stroke-width="1" />
<path d="M0.0,13.0 L-9.537609149773218,22.951864909907016 L0.0,27.0" fill-opacity="0" stroke="black" stroke-width="1" />
<path d="M0.0,-87.0 L-9.537609149773218,-77.04813509009298 L0.0,-73.0" fill-opacity="0" stroke="black" stroke-width="1" />
<path d="M0.0,73.0 L-9.892474858185963,65.07258366453249 L0.0,63.0" fill-opacity="0" stroke="black" stroke-width="1" />
<path d="M0.0,-27.0 L-9.892474858185963,-34.927416335467505 L0.0,-37.0" fill-opacity="0" stroke="black" stroke-width="1" />
<path d="M0.0,27.0 L-9.892474858185963,34.92741633546751 L0.0,37.0" fill-opacity="0" stroke="black" stroke-width="1" />
<path d="M0.0,-73.0 L-9.892474858185963,-65.07258366453249 L0.0,-63.0" fill-opacity="0" stroke="black" stroke-width="1" />
<path d="M-6.0,50.0 L-11.798935177316599,59.75472165704372 L-12.225120842282108,56.76583730623576" fill-opacity="0" stroke="black" stroke-width="1" />
<path d="M-6.0,-50.0 L-11.798935177316599,-40.24527834295628 L-12.225120842282108,-43.23416269376424" fill-opacity="0" stroke="black" stroke-width="1" />
<path d="M-6.0,50.0 L-11.798935177316599,40.24527834295628 L-12.225120842282108,43.23416269376424" fill-opacity="0" stroke="black" stroke-width="1" />
<path d="M-6.0,-50.0 L-11.798935177316599,-59.75472165704372 L-12.225120842282108,-56.76583730623576" fill-opacity="0" stroke="black" stroke-width="1" />
<path d="M-11.798935177316599,59.75472165704372 L-12.225120842282108,56.76583730623576 L-13.0,50.0" fill-opacity="0" stroke="black" stroke-width="1" />
<path d="M-11.798935177316599,-40.24527834295628 L-12.225120842282108,-43.23416269376424 L-13.0,-50.0" fill-opacity="0" stroke="black" stroke-width="1" />
<path d="M-11.798935177316599,40.24527834295628 L-12.225120842282108,43.23416269376424 L-13.0,50.0" fill-opacity="0" stroke="black" stroke-width="1" />
<path d="M-11.798935177316599,-59.75472165704372 L-12.225120842282108,-56.76583730623576 L-13.0,-50.0" fill-opacity="0" stroke="black" stroke-width="1" />
<path d="M-16.0,84.0 L-9.063961507716032,89.06282600014772 L-7.576333128919234,89.52043609273291" fill-opacity="0" stroke="black" stroke-width="1" />
<path d="M-16.0,-16.0 L-9.063961507716032,-10.93717399985228 L-7.576333128919234,-10.479563907267087" fill-opacity="0" stroke="black" stroke-width="1" />
<path d="M-16.0,16.0 L-9.063961507716032,10.937173999852277 L-7.576333128919234,10.479563907267092" fill-opacity="0" stroke="black" stroke-width="1" />
<path d="M-16.0,-84.0 L-9.063961507716032,-89.06282600014772 L-7.576333128919234,-89.52043609273292" fill-opacity="0" stroke="black" stroke-width="1" />
<path d="M-9.063961507716032,89.06282600014772 L-7.576333128919234,89.52043609273291 L-4.298586758824538,90.65377956857594" fill-opacity="0" stroke="black" stroke-width="1" />
<path d="M-9.063961507716032,-10.93717399985228 L-7.576333128919234,-10.479563907267087 L-4.298586758824538,-9.346220431424051" fill-opacity="0" stroke="black" stroke-width="1" />
<path d="M-9.063961507716032,10.937173999852277 L-7.576333128919234,10.479563907267092 L-4.298586758824538,9.346220431424058" fill-opacity="0" stroke="black" stroke-width="1" />
<path d="M-9.063961507716032,-89.06282600014772 L-7.576333128919234,-89.52043609273292 L-4.298586758824538,-90.65377956857594" fill-opacity="0" stroke="black" stroke-width="1" />
<path d="M-7.576333128919234,89.52043609273291 L-4.298586758824538,90.65377956857594 L-3.9886921886943156,92.37497607501037" fill-opacity="0" stroke="black" stroke-width="1" />
<path d="M-7.576333128919234,-10.479563907267087 L-4.298586758824538,-9.346220431424051 L-3.9886921886943156,-7.625023924989633" fill-opacity="0" stroke="black" stroke-width="1" />
<path d="M-7.576333128919234,10.479563907267092 L-4.298586758824538,9.346220431424058 L-3.9886921886943156,7.625023924989634" fill-opacity="0" stroke="black" stroke-width="1" />
<path d="M-7.576333128919234,-89.52043609273292 L-4.298586758824538,-90.65377956857594 L-3.9886921886943156,-92.37497607501037" fill-opacity="0" stroke="black" stroke-width="1" />
<path d="M-4.298586758824538,90.65377956857594 L-3.9886921886943156,92.37497607501037 L-3.254958583778439,94.28063808049586" fill-opacity="0" stroke="black" stroke-width="1" />
<path d="M-4.298586758824538,-9.346220431424051 L-3.9886921886943156,-7.625023924989633 L-3.254958583778439,-5.71936191950414" fill-opacity="0" stroke="black" stroke-width="1" />
<path d="M-4.298586758824538,9.346220431424058 L-3.9886921886943156,7.625023924989634 L-3.254958583778439,5.719361919504138" fill-opacity="0" stroke="black" stroke-width="1" />
<path d="M-4.298586758824538,-90.65377956857594 L-3.9886921886943156,-92.37497607501037 L-3.254958583778439,-94.28063808049586" fill-opacity="0" stroke="black" stroke-width="1" />
<path d="M-3.9886921886943156,92.37497607501037 L-3.254958583778439,94.28063808049586 L-2.0,98.0" fill-opacity="0" stroke="black" stroke-width="1" />
<path d="M-3.9886921886943156,-7.625023924989633 L-3.254958583778439,-5.71936191950414 L-2.0,-2.0" fill-opacity="0" stroke="black" stroke-width="1" />
<path d="M-3.9886921886943156,7.625023924989634 L-3.254958583778439,5.719361919504138 L-2.0,2.0" fill-opacity="0" stroke="black" stroke-width="1" />
<path d="M-3.9886921886943156,-92.37497607501037 L-3.254958583778439,-94.28063808049586 L-2.0,-98.0" fill-opacity="0" stroke="black" stroke-width="1" />
<path d="M-87.0,-0.0 L-77.04813509009298,-9.537609149773218 L-73.0,-0.0" fill-opacity="0" stroke="black" stroke-width="1" />
<path d="M-87.0,-0.0 L-77.04813509009298,9.537609149773218 L-73.0,-0.0" fill-opacity="0" stroke="black" stroke-width="1" />
<path d="M-73.0,-0.0 L-65.07258366453249,-9.892474858185963 L-63.0,-0.0" fill-opacity="0" stroke="black" stroke-width="1" />
<path d="M-73.0,-0.0 L-65.07258366453249,9.892474858185963 L-63.0,-0.0" fill-opacity="0" stroke="black" stroke-width="1" />
<path d="M-50.0,-6.0 L-59.75472165704372,-11.798935177316599 L-56.76583730623576,-12.225120842282108" fill-opacity="0" stroke="black" stroke-width="1" />
<path d="M-50.0,6.0 L-59.75472165704372,11.798935177316599 L-56.76583730623576,12.225120842282108" fill-opacity="0" stroke="black" stroke-width="1" />
<path d="M-59.75472165704372,-11.798935177316599 L-56.76583730623576,-12.225120842282108 L-50.0,-13.0" fill-opacity="0" stroke="black" stroke-width="1" />
<path d="M-59.75472165704372,11.798935177316599 L-56.76583730623576,12.225120842282108 L-50.0,13.0" fill-opacity="0" stroke="black" stroke-width="1" />
<path d="M-50.0,-50.0 L-66.0,-34.0 L-78.0,-22.0" fill-opacity="0" stroke="black" stroke-width="1" />
<path d="M-50.0,50.0 L-66.0,34.0 L-78.0,22.0" fill-opacity="0" stroke="black" stroke-width="1" />
<path d="M-66.0,-34.0 L-78.0,-22.0 L-81.0,-19.0" fill-opacity="0" stroke="black" stroke-width="1" />
<path d="M-66.0,34.0 L-78.0,22.0 L-81.0,19.0" fill-opacity="0" stroke="black" stroke-width="1" />
<path d="M-78.0,-22.0 L-81.0,-19.0 L-84.0,-16.0" fill-opacity="0" stroke="black" stroke-width="1" />
<path d="M-78.0,22.0 L-81.0,19.0 L-84.0,16.0" fill-opacity="0" stroke="black" stroke-width="1" />
<path d="M-81.0,-19.0 L-84.0,-16.0 L-89.06282600014772,-9.063961507716032" fill-opacity="0" stroke="black" stroke-width="1" />
<path d="M-81.0,19.0 L-84.0,16.0 L-89.06282600014772,9.063961507716032" fill-opacity="0" stroke="black" stroke-width="1" />
<path d="M-84.0,-16.0 L-89.06282600014772,-9.063961507716032 L-89.52043609273292,-7.576333128919234" fill-opacity="0" stroke="black" stroke-width="1" />
<path d="M-84.0,16.0 L-89.06282600014772,9.063961507716032 L-89.52043609273292,7.576333128919234" fill-opacity="0" stroke="black" stroke-width="1" />
<path d="M-89.06282600014772,-9.063961507716032 L-89.52043609273292,-7.576333128919234 L-90.65377956857594,-4.298586758824538" fill-opacity="0" stroke="black" stroke-width="1" />
<path d="M-89.06282600014772,9.063961507716032 L-89.52043609273292,7.576333128919234 L-90.65377956857594,4.298586758824538" fill-opacity="0" stroke="black" stroke-width="1" />
<path d="M-89.52043609273292,-7.576333128919234 L-90.65377956857594,-4.298586758824538 L-92.37497607501037,-3.9886921886943156" fill-opacity="0" stroke="black" stroke-width="1" />
<path d="M-89.52043609273292,7.576333128919234 L-90.65377956857594,4.298586758824538 L-92.37497607501037,3.9886921886943156" fill-opacity="0" stroke="black" stroke-width="1" />
<path d="M-90.65377956857594,-4.298586758824538 L-92.37497607501037,-3.9886921886943156 L-94.28063808049586,-3.254958583778439" fill-opacity="0" stroke="black" stroke-width="1" />
<path d="M-90.65377956857594,4.298586758824538 L-92.37497607501037,3.9886921886943156 L-94.28063808049586,3.254958583778439" fill-opacity="0" stroke="black" stroke-width="1" />
<path d="M-92.37497607501037,-3.9886921886943156 L-94.28063808049586,-3.254958583778439 L-98.0,-2.0" fill-opacity="0" stroke="black" stroke-width="1" />
<path d="M-92.37497607501037,3.9886921886943156 L-94.28063808049586,3.254958583778439 L-98.0,2.0" fill-opacity="0" stroke="black" stroke-width="1" />
<path d="M-94.28063808049586,-3.254958583778439 L-98.0,-2.0 L-100.0,-0.0" fill-opacity="0" stroke="black" stroke-width="1" />
<path d="M-94.28063808049586,3.254958583778439 L-98.0,2.0 L-100.0,-0.0" fill-opacity="0" stroke="black" stroke-width="1" />
<circle cx="0" cy="-97" r="8" stroke-dasharray="39.653880605311166 10.611601852125524" stroke-dashoffset="-17.59291886010284" stroke="black" stroke-width="1" fill="white" fill-opacity="1" />
<circle cx="0" cy="-97" r="4" stroke="black" stroke-width="1" fill="white" fill-opacity="1" />
</svg>