<?xml version="1.0" encoding="UTF-8"?>
<svg xmlns="http://www.w3.org/2000/svg" xmlns:xlink="http://www.w3.org/1999/xlink"
     width="250" height="250" viewBox="-125.0 -125.0 250 250">
<defs>
</defs>
<path d="M12.0,-0.0 L16.13969420848065,-1.752593123719392 L19.840111200341724,-1.7862383632405485" fill="yellow" fill-opacity="0.6" stroke="black" stroke-width="1" />
<path d="M12.0,-0.0 L16.13969420848065,1.752593123719392 L19.840111200341724,1.7862383632405485" fill="pink" fill-opacity="0.6" stroke="black" stroke-width="1" />
<path d="M16.13969420848065,-1.752593123719392 L19.840111200341724,-1.7862383632405485 L21.0,-0.0" fill="brown" fill-opacity="0.6" stroke="black" stroke-width="1" />
<path d="M16.13969420848065,1.752593123719392 L19.840111200341724,1.7862383632405485 L21.0,-0.0" fill="brown" fill-opacity="0.6" stroke="black" stroke-width="1" />
<path d="M22.0,-0.0 L31.4072370170918,-3.500777769218227 L32.70397387181019,-3.7725279312349898" fill="blue" fill-opacity="0.6" stroke="black" stroke-width="1" />
<path d="M22.0,-0.0 L31.4072370170918,3.500777769218227 L32.70397387181019,3.7725279312349898" fill="blue" fill-opacity="0.6" stroke="black" stroke-width="1" />
<path d="M31.4072370170918,-3.500777769218227 L32.70397387181019,-3.7725279312349898 L34.0,-0.0" fill="black" fill-opacity="0.6" stroke="black" stroke-width="1" />
<path d="M31.4072370170918,3.500777769218227 L32.70397387181019,3.7725279312349898 L34.0,-0.0" fill="red" fill-opacity="0.6" stroke="black" stroke-width="1" />
<path d="M50.0,-11.0 L40.31511740171826,-13.6859137748502 L50.0,-14.0" fill="pink" fill-opacity="0.6" stroke="black" stroke-width="1" />
<path d="M50.0,11.0 L40.31511740171826,13.6859137748502 L50.0,14.0" fill="green" fill-opacity="0.6" stroke="black" stroke-width="1" />
<path d="M50.0,-14.0 L40.70085108648381,-14.50177690063029 L43.43516704218938,-14.687610158921391" fill="orange" fill-opacity="0.6" stroke="black" stroke-width="1" />
<path d="M50.0,14.0 L40.70085108648381,14.50177690063029 L43.43516704218938,14.687610158921391" fill="brown" fill-opacity="0.6" stroke="black" stroke-width="1" />
<path d="M40.70085108648381,-14.50177690063029 L43.43516704218938,-14.687610158921391 L50.0,-17.0" fill="purple" fill-opacity="0.6" stroke="black" stroke-width="1" />
<path d="M40.70085108648381,14.50177690063029 L43.43516704218938,14.687610158921391 L50.0,17.0" fill="green" fill-opacity="0.6" stroke="black" stroke-width="1" />
<path d="M50.0,-17.0 L44.84892534021644,-17.148226637335007 L50.0,-19.0" fill="pink" fill-opacity="0.6" stroke="black" stroke-width="1" />
<path d="M50.0,17.0 L44.84892534021644,17.148226637335007 L50.0,19.0" fill="green" fill-opacity="0.6" stroke="black" stroke-width="1" />
<path d="M50.0,-31.0 L46.66266478345466,-34.23183769666548 L50.0,-45.0" fill="blue" fill-opacity="0.6" stroke="black" stroke-width="1" />
<path d="M50.0,31.0 L46.66266478345466,34.23183769666548 L50.0,45.0" fill="pink" fill-opacity="0.6" stroke="black" stroke-width="1" />
<path d="M50.0,50.0 L47.0,53.0 L41.0,59.0" fill="brown" fill-opacity="0.6" stroke="black" stroke-width="1" />
<path d="M50.0,-50.0 L47.0,-53.0 L41.0,-59.0" fill="red" fill-opacity="0.6" stroke="black" stroke-width="1" />
<path d="M47.0,53.0 L41.0,59.0 L30.0,70.0" fill="green" fill-opacity="0.6" stroke="black" stroke-width="1" />
<path d="M47.0,-53.0 L41.0,-59.0 L30.0,-70.0" fill="brown" fill-opacity="0.6" stroke="black" stroke-width="1" />
<path d="M30.0,70.0 L29.0,71.0 L25.0,75.0" fill="blue" fill-opacity="0.6" stroke="black" stroke-width="1" />
<path d="M30.0,-70.0 L29.0,-71.0 L25.0,-75.0" fill="red" fill-opacity="0.6" stroke="black" stroke-width="1" />
<path d="M29.0,71.0 L25.0,75.0 L15.0,85.0" fill="black" fill-opacity="0.6" stroke="black" stroke-width="1" />
<path d="M29.0,-71.0 L25.0,-75.0 L15.0,-85.0" fill="black" fill-opacity="0.6" stroke="black" stroke-width="1" />
<path d="M25.0,75.0 L15.0,85.0 L8.0,92.0" fill="pink" fill-opacity="0.6" stroke="black" stroke-width="1" />
<path d="M25.0,-75.0 L15.0,-85.0 L8.0,-92.0" fill="orange" fill-opacity="0.6" stroke="black" stroke-width="1" />
<path d="M15.0,85.0 L8.0,92.0 L1.4421715740110899,92.18231514382357" fill="black" fill-opacity="0.6" stroke="black" stroke-width="1" />
<path d="M15.0,-85.0 L8.0,-92.0 L1.4421715740110899,-92.18231514382357" fill="orange" fill-opacity="0.6" stroke="black" stroke-width="1" />
<path d="M8.0,-8.0 L7.817684856176427,-1.4421715740110899 L6.83882607155728,-1.2552211742462294" fill="blue" fill-opacity="0.6" stroke="black" stroke-width="1" />
<path d="M8.0,8.0 L7.817684856176427,1.4421715740110899 L6.83882607155728,1.2552211742462294" fill="brown" fill-opacity="0.6" stroke="black" stroke-width="1" />
<path d="M7.817684856176427,-1.4421715740110899 L6.83882607155728,-1.2552211742462294 L1.5181876532420535,-1.059542467826502" fill="green" fill-opacity="0.6" stroke="black" stroke-width="1" />
<path d="M7.817684856176427,1.4421715740110899 L6.83882607155728,1.2552211742462294 L1.5181876532420535,1.059542467826502" fill="brown" fill-opacity="0.6" stroke="black" stroke-width="1" />
<path d="M6.83882607155728,-1.2552211742462294 L1.5181876532420535,-1.059542467826502 L0.0,-0.0" fill="green" fill-opacity="0.6" stroke="black" stroke-width="1" />
<path d="M6.83882607155728,1.2552211742462294 L1.5181876532420535,1.059542467826502 L0.0,-0.0" fill="pink" fill-opacity="0.6" stroke="black" stroke-width="1" />
<path d="M-12.0,-0.0 L-16.13969420848065,-1.752593123719392 L-19.840111200341724,-1.7862383632405485" fill="green" fill-opacity="0.6" stroke="black" stroke-width="1" />
<path d="M-12.0,-0.0 L-16.13969420848065,1.752593123719392 L-19.840111200341724,1.7862383632405485" fill="red" fill-opacity="0.6" stroke="black" stroke-width="1" />
<path d="M-16.13969420848065,-1.752593123719392 L-19.840111200341724,-1.7862383632405485 L-21.0,-0.0" fill="red" fill-opacity="0.6" stroke="black" stroke-width="1" />
<path d="M-16.13969420848065,1.752593123719392 L-19.840111200341724,1.7862383632405485 L-21.0,-0.0" fill="brown" fill-opacity="0.6" stroke="black" stroke-width="1" />
<path d="M-22.0,-0.0 L-31.4072370170918,-3.500777769218227 L-32.70397387181019,-3.7725279312349898" fill="green" fill-opacity="0.6" stroke="black" stroke-width="1" />
<path d="M-22.0,-0.0 L-31.4072370170918,3.500777769218227 L-32.70397387181019,3.7725279312349898" fill="blue" fill-opacity="0.6" stroke="black" stroke-width="1" />
<path d="M-31.4072370170918,-3.500777769218227 L-32.70397387181019,-3.7725279312349898 L-34.0,-0.0" fill="blue" fill-opacity="0.6" stroke="black" stroke-width="1" />
<path d="M-31.4072370170918,3.500777769218227 L-32.70397387181019,3.7725279312349898 L-34.0,-0.0" fill="green" fill-opacity="0.6" stroke="black" stroke-width="1" />
<path d="M-50.0,-11.0 L-40.31511740171826,-13.6859137748502 L-50.0,-14.0" fill="red" fill-opacity="0.6" stroke="black" stroke-width="1" />
<path d="M-50.0,11.0 L-40.31511740171826,13.6859137748502 L-50.0,14.0" fill="purple" fill-opacity="0.6" stroke="black" stroke-width="1" />
<path d="M-50.0,-14.0 L-40.70085108648381,-14.50177690063029 L-43.43516704218938,-14.687610158921391" fill="pink" fill-opacity="0.6" stroke="black" stroke-width="1" />
<path d="M-50.0,14.0 L-40.70085108648381,14.50177690063029 L-43.43516704218938,14.687610158921391" fill="green" fill-opacity="0.6" stroke="black" stroke-width="1" />
<path d="M-40.70085108648381,-14.50177690063029 L-43.43516704218938,-14.687610158921391 L-50.0,-17.0" fill="green" fill-opacity="0.6" stroke="black" stroke-width="1" />
<path d="M-40.70085108648381,14.50177690063029 L-43.43516704218938,14.687610158921391 L-50.0,17.0" fill="orange" fill-opacity="0.6" stroke="black" stroke-width="1" />
<path d="M-50.0,-17.0 L-44.84892534021644,-17.148226637335007 L-50.0,-19.0" fill="black" fill-opacity="0.6" stroke="black" stroke-width="1" />
<path d="M-50.0,17.0 L-44.84892534021644,17.148226637335007 L-50.0,19.0" fill="green" fill-opacity="0.6" stroke="black" stroke-width="1" />
<path d="M-50.0,-31.0 L-46.66266478345466,-34.23183769666548 L-50.0,-45.0" fill="purple" fill-opacity="0.6" stroke="black" stroke-width="1" />
<path d="M-50.0,31.0 L-46.66266478345466,34.23183769666548 L-50.0,45.0" fill="orange" fill-opacity="0.6" stroke="black" stroke-width="1" />
<path d="M-50.0,50.0 L-47.0,53.0 L-41.0,59.0" fill="orange" fill-opacity="0.6" stroke="black" stroke-width="1" />
<path d="M-50.0,-50.0 L-47.0,-53.0 L-41.0,-59.0" fill="blue" fill-opacity="0.6" stroke="black" stroke-width="1" />
<path d="M-47.0,53.0 L-41.0,59.0 L-30.0,70.0" fill="red" fill-opacity="0.6" stroke="black" stroke-width="1" />
<path d="M-47.0,-53.0 L-41.0,-59.0 L-30.0,-70.0" fill="orange" fill-opacity="0.6" stroke="black" stroke-width="1" />
<path d="M-30.0,70.0 L-29.0,71.0 L-25.0,75.0" fill="orange" fill-opacity="0.6" stroke="black" stroke-width="1" />
<path d="M-30.0,-70.0 L-29.0,-71.0 L-25.0,-75.0" fill="green" fill-opacity="0.6" stroke="black" stroke-width="1" />
<path d="M-29.0,71.0 L-25.0,75.0 L-15.0,85.0" fill="blue" fill-opacity="0.6" stroke="black" stroke-width="1" />
<path d="M-29.0,-71.0 L-25.0,-75.0 L-15.0,-85.0" fill="pink" fill-opacity="0.6" stroke="black" stroke-width="1" />
<path d="M-25.0,75.0 L-15.0,85.0 L-8.0,92.0" fill="black" fill-opacity="0.6" stroke="black" stroke-width="1" />
<path d="M-25.0,-75.0 L-15.0,-85.0 L-8.0,-92.0" fill="purple" fill-opacity="0.6" stroke="black" stroke-width="1" />
<path d="M-15.0,85.0 L-8.0,92.0 L-1.4421715740110899,92.18231514382357" fill="brown" fill-opacity="0.6" stroke="black" stroke-width="1" />
<path d="M-15.0,-85.0 L-8.0,-92.0 L-1.4421715740110899,-92.18231514382357" fill="blue" fill-opacity="0.6" stroke="black" stroke-width="1" />
<path d="M-8.0,-8.0 L-7.817684856176427,-1.4421715740110899 L-6.83882607155728,-1.2552211742462294" fill="blue" fill-opacity="0.6" stroke="black" stroke-width="1" />
<path d="M-8.0,8.0 L-7.817684856176427,1.4421715740110899 L-6.83882607155728,1.2552211742462294" fill="orange" fill-opacity="0.6" stroke="black" stroke-width="1" />
<path d="M-7.817684856176427,-1.4421715740110899 L-6.83882607155728,-1.2552211742462294 L-1.5181876532420535,-1.059542467826502" fill="pink" fill-opacity="0.6" stroke="black" stroke-width="1" />
<path d="M-7.817684856176427,1.4421715740110899 L-6.83882607155728,1.2552211742462294 L-1.5181876532420535,1.059542467826502" fill="red" fill-opacity="0.6" stroke="black" stroke-width="1" />
<path d="M-6.83882607155728,-1.2552211742462294 L-1.5181876532420535,-1.059542467826502 L0.0,-0.0" fill="red" fill-opacity="0.6" stroke="black" stroke-width="1" />
<path d="M-6.83882607155728,1.2552211742462294 L-1.5181876532420535,1.059542467826502 L0.0,-0.0" fill="black" fill-opacity="0.6" stroke="black" stroke-width="1" />
<path d="M88.0,-0.0 L83.86030579151935,1.752593123719392 L80.15988879965828,1.7862383632405485" fill="green" fill-opacity="0.6" stroke="black" stroke-width="1" />
<path d="M88.0,-0.0 L83.86030579151935,-1.752593123719392 L80.15988879965828,-1.7862383632405485" fill="yellow" fill-opacity="0.6" stroke="black" stroke-width="1" />
<path d="M83.86030579151935,1.752593123719392 L80.15988879965828,1.7862383632405485 L79.0,-0.0" fill="pink" fill-opacity="0.6" stroke="black" stroke-width="1" />
<path d="M83.86030579151935,-1.752593123719392 L80.15988879965828,-1.7862383632405485 L79.0,-0.0" fill="brown" fill-opacity="0.6" stroke="black" stroke-width="1" />
<path d="M78.0,-0.0 L68.5927629829082,3.500777769218227 L67.29602612818981,3.7725279312349898" fill="green" fill-opacity="0.6" stroke="black" stroke-width="1" />
<path d="M78.0,-0.0 L68.5927629829082,-3.500777769218227 L67.29602612818981,-3.7725279312349898" fill="purple" fill-opacity="0.6" stroke="black" stroke-width="1" />
<path d="M68.5927629829082,3.500777769218227 L67.29602612818981,3.7725279312349898 L66.0,-0.0" fill="black" fill-opacity="0.6" stroke="black" stroke-width="1" />
<path d="M68.5927629829082,-3.500777769218227 L67.29602612818981,-3.7725279312349898 L66.0,-0.0" fill="orange" fill-opacity="0.6" stroke="black" stroke-width="1" />
<path d="M50.0,11.0 L59.68488259828174,13.6859137748502 L50.0,14.0" fill="purple" fill-opacity="0.6" stroke="black" stroke-width="1" />
<path d="M50.0,-11.0 L59.68488259828174,-13.6859137748502 L50.0,-14.0" fill="purple" fill-opacity="0.6" stroke="black" stroke-width="1" />
<path d="M50.0,14.0 L59.29914891351619,14.50177690063029 L56.56483295781062,14.687610158921391" fill="red" fill-opacity="0.6" stroke="black" stroke-width="1" />
<path d="M50.0,-14.0 L59.29914891351619,-14.50177690063029 L56.56483295781062,-14.687610158921391" fill="pink" fill-opacity="0.6" stroke="black" stroke-width="1" />
<path d="M59.29914891351619,14.50177690063029 L56.56483295781062,14.687610158921391 L50.0,17.0" fill="green" fill-opacity="0.6" stroke="black" stroke-width="1" />
<path d="M59.29914891351619,-14.50177690063029 L56.56483295781062,-14.687610158921391 L50.0,-17.0" fill="red" fill-opacity="0.6" stroke="black" stroke-width="1" />
<path d="M50.0,17.0 L55.15107465978356,17.148226637335007 L50.0,19.0" fill="red" fill-opacity="0.6" stroke="black" stroke-width="1" />
<path d="M50.0,-17.0 L55.15107465978356,-17.148226637335007 L50.0,-19.0" fill="blue" fill-opacity="0.6" stroke="black" stroke-width="1" />
<path d="M50.0,31.0 L53.33733521654534,34.23183769666548 L50.0,45.0" fill="brown" fill-opacity="0.6" stroke="black" stroke-width="1" />
<path d="M50.0,-31.0 L53.33733521654534,-34.23183769666548 L50.0,-45.0" fill="orange" fill-opacity="0.6" stroke="black" stroke-width="1" />
<path d="M50.0,50.0 L53.0,47.0 L59.0,41.0" fill="green" fill-opacity="0.6" stroke="black" stroke-width="1" />
<path d="M50.0,-50.0 L53.0,-47.0 L59.0,-41.0" fill="yellow" fill-opacity="0.6" stroke="black" stroke-width="1" />
<path d="M53.0,47.0 L59.0,41.0 L70.0,30.0" fill="brown" fill-opacity="0.6" stroke="black" stroke-width="1" />
<path d="M53.0,-47.0 L59.0,-41.0 L70.0,-30.0" fill="black" fill-opacity="0.6" stroke="black" stroke-width="1" />
<path d="M70.0,30.0 L71.0,29.0 L75.0,25.0" fill="orange" fill-opacity="0.6" stroke="black" stroke-width="1" />
<path d="M70.0,-30.0 L71.0,-29.0 L75.0,-25.0" fill="red" fill-opacity="0.6" stroke="black" stroke-width="1" />
<path d="M71.0,29.0 L75.0,25.0 L85.0,15.0" fill="black" fill-opacity="0.6" stroke="black" stroke-width="1" />
<path d="M71.0,-29.0 L75.0,-25.0 L85.0,-15.0" fill="blue" fill-opacity="0.6" stroke="black" stroke-width="1" />
<path d="M75.0,25.0 L85.0,15.0 L92.0,8.0" fill="blue" fill-opacity="0.6" stroke="black" stroke-width="1" />
<path d="M75.0,-25.0 L85.0,-15.0 L92.0,-8.0" fill="red" fill-opacity="0.6" stroke="black" stroke-width="1" />
<path d="M85.0,15.0 L92.0,8.0 L92.18231514382357,1.4421715740110899" fill="red" fill-opacity="0.6" stroke="black" stroke-width="1" />
<path d="M85.0,-15.0 L92.0,-8.0 L92.18231514382357,-1.4421715740110899" fill="orange" fill-opacity="0.6" stroke="black" stroke-width="1" />
<path d="M92.0,8.0 L92.18231514382357,1.4421715740110899 L93.16117392844272,1.2552211742462294" fill="black" fill-opacity="0.6" stroke="black" stroke-width="1" />
<path d="M92.0,-8.0 L92.18231514382357,-1.4421715740110899 L93.16117392844272,-1.2552211742462294" fill="yellow" fill-opacity="0.6" stroke="black" stroke-width="1" />
<path d="M92.18231514382357,1.4421715740110899 L93.16117392844272,1.2552211742462294 L98.48181234675795,1.059542467826502" fill="black" fill-opacity="0.6" stroke="black" stroke-width="1" />
<path d="M92.18231514382357,-1.4421715740110899 L93.16117392844272,-1.2552211742462294 L98.48181234675795,-1.059542467826502" fill="red" fill-opacity="0.6" stroke="black" stroke-width="1" />
<path d="M93.16117392844272,1.2552211742462294 L98.48181234675795,1.059542467826502 L100.0,-0.0" fill="yellow" fill-opacity="0.6" stroke="black" stroke-width="1" />
<path d="M93.16117392844272,-1.2552211742462294 L98.48181234675795,-1.059542467826502 L100.0,-0.0" fill="purple" fill-opacity="0.6" stroke="black" stroke-width="1" />
<path d="M0.0,-12.0 L1.752593123719392,-16.13969420848065 L1.7862383632405485,-19.840111200341724" fill="yellow" fill-opacity="0.6" stroke="black" stroke-width="1" />
<path d="M0.0,12.0 L1.752593123719392,16.13969420848065 L1.7862383632405485,19.840111200341724" fill="pink" fill-opacity="0.6" stroke="black" stroke-width="1" />
<path d="M0.0,88.0 L1.752593123719392,83.86030579151935 L1.7862383632405485,80.15988879965828" fill="green" fill-opacity="0.6" stroke="black" stroke-width="1" />
<path d="M0.0,-88.0 L1.752593123719392,-83.86030579151935 L1.7862383632405485,-80.15988879965828" fill="red" fill-opacity="0.6" stroke="black" stroke-width="1" />
<path d="M1.752593123719392,-16.13969420848065 L1.7862383632405485,-19.840111200341724 L0.0,-21.0" fill="purple" fill-opacity="0.6" stroke="black" stroke-width="1" />
<path d="M1.752593123719392,16.13969420848065 L1.7862383632405485,19.840111200341724 L0.0,21.0" fill="brown" fill-opacity="0.6" stroke="black" stroke-width="1" />
<path d="M1.752593123719392,83.86030579151935 L1.7862383632405485,80.15988879965828 L0.0,79.0" fill="red" fill-opacity="0.6" stroke="black" stroke-width="1" />
<path d="M1.752593123719392,-83.86030579151935 L1.7862383632405485,-80.15988879965828 L0.0,-79.0" fill="red" fill-opacity="0.6" stroke="black" stroke-width="1" />
<path d="M0.0,-22.0 L3.500777769218227,-31.4072370170918 L3.7725279312349898,-32.70397387181019" fill="yellow" fill-opacity="0.6" stroke="black" stroke-width="1" />
<path d="M0.0,22.0 L3.500777769218227,31.4072370170918 L3.7725279312349898,32.70397387181019" fill="yellow" fill-opacity="0.6" stroke="black" stroke-width="1" />
<path d="M0.0,78.0 L3.500777769218227,68.5927629829082 L3.7725279312349898,67.29602612818981" fill="orange" fill-opacity="0.6" stroke="black" stroke-width="1" />
<path d="M0.0,-78.0 L3.500777769218227,-68.5927629829082 L3.7725279312349898,-67.29602612818981" fill="brown" fill-opacity="0.6" stroke="black" stroke-width="1" />
<path d="M3.500777769218227,-31.4072370170918 L3.7725279312349898,-32.70397387181019 L0.0,-34.0" fill="purple" fill-opacity="0.6" stroke="black" stroke-width="1" />
<path d="M3.500777769218227,31.4072370170918 L3.7725279312349898,32.70397387181019 L0.0,34.0" fill="yellow" fill-opacity="0.6" stroke="black" stroke-width="1" />
<path d="M3.500777769218227,68.5927629829082 L3.7725279312349898,67.29602612818981 L0.0,66.0" fill="brown" fill-opacity="0.6" stroke="black" stroke-width="1" />
<path d="M3.500777769218227,-68.5927629829082 L3.7725279312349898,-67.29602612818981 L0.0,-66.0" fill="pink" fill-opacity="0.6" stroke="black" stroke-width="1" />
<path d="M11.0,-50.0 L13.6859137748502,-40.31511740171826 L14.0,-50.0" fill="blue" fill-opacity="0.6" stroke="black" stroke-width="1" />
<path d="M11.0,50.0 L13.6859137748502,40.31511740171826 L14.0,50.0" fill="yellow" fill-opacity="0.6" stroke="black" stroke-width="1" />
<path d="M11.0,50.0 L13.6859137748502,59.68488259828174 L14.0,50.0" fill="green" fill-opacity="0.6" stroke="black" stroke-width="1" />
<path d="M11.0,-50.0 L13.6859137748502,-59.68488259828174 L14.0,-50.0" fill="blue" fill-opacity="0.6" stroke="black" stroke-width="1" />
<path d="M14.0,-50.0 L14.50177690063029,-40.70085108648381 L14.687610158921391,-43.43516704218938" fill="brown" fill-opacity="0.6" stroke="black" stroke-width="1" />
<path d="M14.0,50.0 L14.50177690063029,40.70085108648381 L14.687610158921391,43.43516704218938" fill="pink" fill-opacity="0.6" stroke="black" stroke-width="1" />
<path d="M14.0,50.0 L14.50177690063029,59.29914891351619 L14.687610158921391,56.56483295781062" fill="yellow" fill-opacity="0.6" stroke="black" stroke-width="1" />
<path d="M14.0,-50.0 L14.50177690063029,-59.29914891351619 L14.687610158921391,-56.56483295781062" fill="black" fill-opacity="0.6" stroke="black" stroke-width="1" />
<path d="M14.50177690063029,-40.70085108648381 L14.687610158921391,-43.43516704218938 L17.0,-50.0" fill="black" fill-opacity="0.6" stroke="black" stroke-width="1" />
<path d="M14.50177690063029,40.70085108648381 L14.687610158921391,43.43516704218938 L17.0,50.0" fill="pink" fill-opacity="0.6" stroke="black" stroke-width="1" />
<path d="M14.50177690063029,59.29914891351619 L14.687610158921391,56.56483295781062 L17.0,50.0" fill="purple" fill-opacity="0.6" stroke="black" stroke-width="1" />
<path d="M14.50177690063029,-59.29914891351619 L14.687610158921391,-56.56483295781062 L17.0,-50.0" fill="green" fill-opacity="0.6" stroke="black" stroke-width="1" />
<path d="M17.0,-50.0 L17.148226637335007,-44.84892534021644 L19.0,-50.0" fill="purple" fill-opacity="0.6" stroke="black" stroke-width="1" />
<path d="M17.0,50.0 L17.148226637335007,44.84892534021644 L19.0,50.0" fill="green" fill-opacity="0.6" stroke="black" stroke-width="1" />
<path d="M17.0,50.0 L17.148226637335007,55.15107465978356 L19.0,50.0" fill="purple" fill-opacity="0.6" stroke="black" stroke-width="1" />
<path d="M17.0,-50.0 L17.148226637335007,-55.15107465978356 L19.0,-50.0" fill="green" fill-opacity="0.6" stroke="black" stroke-width="1" />
<path d="M31.0,-50.0 L34.23183769666548,-46.66266478345466 L45.0,-50.0" fill="red" fill-opacity="0.6" stroke="black" stroke-width="1" />
<path d="M31.0,50.0 L34.23183769666548,46.66266478345466 L45.0,50.0" fill="brown" fill-opacity="0.6" stroke="black" stroke-width="1" />
<path d="M31.0,50.0 L34.23183769666548,53.33733521654534 L45.0,50.0" fill="blue" fill-opacity="0.6" stroke="black" stroke-width="1" />
<path d="M31.0,-50.0 L34.23183769666548,-53.33733521654534 L45.0,-50.0" fill="green" fill-opacity="0.6" stroke="black" stroke-width="1" />
<path d="M8.0,-8.0 L1.4421715740110899,-7.817684856176427 L1.2552211742462294,-6.83882607155728" fill="pink" fill-opacity="0.6" stroke="black" stroke-width="1" />
<path d="M8.0,8.0 L1.4421715740110899,7.817684856176427 L1.2552211742462294,6.83882607155728" fill="purple" fill-opacity="0.6" stroke="black" stroke-width="1" />
<path d="M8.0,92.0 L1.4421715740110899,92.18231514382357 L1.2552211742462294,93.16117392844272" fill="brown" fill-opacity="0.6" stroke="black" stroke-width="1" />
<path d="M8.0,-92.0 L1.4421715740110899,-92.18231514382357 L1.2552211742462294,-93.16117392844272" fill="green" fill-opacity="0.6" stroke="black" stroke-width="1" />
<path d="M1.4421715740110899,-7.817684856176427 L1.2552211742462294,-6.83882607155728 L1.059542467826502,-1.5181876532420535" fill="black" fill-opacity="0.6" stroke="black" stroke-width="1" />
<path d="M1.4421715740110899,7.817684856176427 L1.2552211742462294,6.83882607155728 L1.059542467826502,1.5181876532420535" fill="red" fill-opacity="0.6" stroke="black" stroke-width="1" />
<path d="M1.4421715740110899,92.18231514382357 L1.2552211742462294,93.16117392844272 L1.059542467826502,98.48181234675795" fill="brown" fill-opacity="0.6" stroke="black" stroke-width="1" />
<path d="M1.4421715740110899,-92.18231514382357 L1.2552211742462294,-93.16117392844272 L1.059542467826502,-98.48181234675795" fill="red" fill-opacity="0.6" stroke="black" stroke-width="1" />
<path d="M1.2552211742462294,-6.83882607155728 L1.059542467826502,-1.5181876532420535 L0.0,-0.0" fill="purple" fill-opacity="0.6" stroke="black" stroke-width="1" />
<path d="M1.2552211742462294,6.83882607155728 L1.059542467826502,1.5181876532420535 L0.0,-0.0" fill="pink" fill-opacity="0.6" stroke="black" stroke-width="1" />
<path d="M1.2552211742462294,93.16117392844272 L1.059542467826502,98.48181234675795 L0.0,100.0" fill="blue" fill-opacity="0.6" stroke="black" stroke-width="1" />
<path d="M1.2552211742462294,-93.16117392844272 L1.059542467826502,-98.48181234675795 L0.0,-100.0" fill="orange" fill-opacity="0.6" stroke="black" stroke-width="1" />
<path d="M0.0,88.0 L-1.752593123719392,83.86030579151935 L-1.7862383632405485,80.15988879965828" fill="blue" fill-opacity="0.6" stroke="black" stroke-width="1" />
<path d="M0.0,-12.0 L-1.752593123719392,-16.13969420848065 L-1.7862383632405485,-19.840111200341724" fill="red" fill-opacity="0.6" stroke="black" stroke-width="1" />
<path d="M0.0,12.0 L-1.752593123719392,16.13969420848065 L-1.7862383632405485,19.840111200341724" fill="purple" fill-opacity="0.6" stroke="black" stroke-width="1" />
<path d="M0.0,-88.0 L-1.752593123719392,-83.86030579151935 L-1.7862383632405485,-80.15988879965828" fill="red" fill-opacity="0.6" stroke="black" stroke-width="1" />
<path d="M-1.752593123719392,83.86030579151935 L-1.7862383632405485,80.15988879965828 L0.0,79.0" fill="purple" fill-opacity="0.6" stroke="black" stroke-width="1" />
<path d="M-1.752593123719392,-16.13969420848065 L-1.7862383632405485,-19.840111200341724 L0.0,-21.0" fill="brown" fill-opacity="0.6" stroke="black" stroke-width="1" />
<path d="M-1.752593123719392,16.13969420848065 L-1.7862383632405485,19.840111200341724 L0.0,21.0" fill="red" fill-opacity="0.6" stroke="black" stroke-width="1" />
<path d="M-1.752593123719392,-83.86030579151935 L-1.7862383632405485,-80.15988879965828 L0.0,-79.0" fill="blue" fill-opacity="0.6" stroke="black" stroke-width="1" />
<path d="M0.0,78.0 L-3.500777769218227,68.5927629829082 L-3.7725279312349898,67.29602612818981" fill="black" fill-opacity="0.6" stroke="black" stroke-width="1" />
<path d="M0.0,-22.0 L-3.500777769218227,-31.4072370170918 L-3.7725279312349898,-32.70397387181019" fill="purple" fill-opacity="0.6" stroke="black" stroke-width="1" />
<path d="M0.0,22.0 L-3.500777769218227,31.407237017091802 L-3.7725279312349898,32.70397387181019" fill="orange" fill-opacity="0.6" stroke="black" stroke-width="1" />
<path d="M0.0,-78.0 L-3.500777769218227,-68.5927629829082 L-3.7725279312349898,-67.29602612818981" fill="purple" fill-opacity="0.6" stroke="black" stroke-width="1" />
<path d="M-3.500777769218227,68.5927629829082 L-3.7725279312349898,67.29602612818981 L0.0,66.0" fill="pink" fill-opacity="0.6" stroke="black" stroke-width="1" />
<path d="M-3.500777769218227,-31.4072370170918 L-3.7725279312349898,-32.70397387181019 L0.0,-34.0" fill="orange" fill-opacity="0.6" stroke="black" stroke-width="1" />
<path d="M-3.500777769218227,31.407237017091802 L-3.7725279312349898,32.70397387181019 L0.0,34.0" fill="yellow" fill-opacity="0.6" stroke="black" stroke-width="1" />
<path d="M-3.500777769218227,-68.5927629829082 L-3.7725279312349898,-67.29602612818981 L0.0,-66.0" fill="pink" fill-opacity="0.6" stroke="black" stroke-width="1" />
<path d="M-11.0,50.0 L-13.6859137748502,59.68488259828174 L-14.0,50.0" fill="brown" fill-opacity="0.6" stroke="black" stroke-width="1" />
<path d="M-11.0,-50.0 L-13.6859137748502,-40.31511740171826 L-14.0,-50.0" fill="pink" fill-opacity="0.6" stroke="black" stroke-width="1" />
<path d="M-11.0,50.0 L-13.6859137748502,40.31511740171826 L-14.0,50.0" fill="orange" fill-opacity="0.6" stroke="black" stroke-width="1" />
<path d="M-11.0,-50.0 L-13.6859137748502,-59.68488259828174 L-14.0,-50.0" fill="red" fill-opacity="0.6" stroke="black" stroke-width="1" />
<path d="M-14.0,50.0 L-14.50177690063029,59.29914891351619 L-14.687610158921391,56.56483295781062" fill="purple" fill-opacity="0.6" stroke="black" stroke-width="1" />
<path d="M-14.0,-50.0 L-14.50177690063029,-40.70085108648381 L-14.687610158921391,-43.43516704218938" fill="orange" fill-opacity="0.6" stroke="black" stroke-width="1" />
<path d="M-14.0,50.0 L-14.50177690063029,40.70085108648381 L-14.687610158921391,43.43516704218938" fill="blue" fill-opacity="0.6" stroke="black" stroke-width="1" />
<path d="M-14.0,-50.0 L-14.50177690063029,-59.29914891351619 L-14.687610158921391,-56.56483295781062" fill="pink" fill-opacity="0.6" stroke="black" stroke-width="1" />
<path d="M-14.50177690063029,59.29914891351619 L-14.687610158921391,56.56483295781062 L-17.0,50.0" fill="purple" fill-opacity="0.6" stroke="black" stroke-width="1" />
<path d="M-14.50177690063029,-40.70085108648381 L-14.687610158921391,-43.43516704218938 L-17.0,-50.0" fill="brown" fill-opacity="0.6" stroke="black" stroke-width="1" />
<path d="M-14.50177690063029,40.70085108648381 L-14.687610158921391,43.43516704218938 L-17.0,50.0" fill="yellow" fill-opacity="0.6" stroke="black" stroke-width="1" />
<path d="M-14.50177690063029,-59.29914891351619 L-14.687610158921391,-56.56483295781062 L-17.0,-50.0" fill="purple" fill-opacity="0.6" stroke="black" stroke-width="1" />
<path d="M-17.0,50.0 L-17.148226637335007,55.15107465978356 L-19.0,50.0" fill="yellow" fill-opacity="0.6" stroke="black" stroke-width="1" />
<path d="M-17.0,-50.0 L-17.148226637335007,-44.84892534021644 L-19.0,-50.0" fill="brown" fill-opacity="0.6" stroke="black" stroke-width="1" />
<path d="M-17.0,50.0 L-17.148226637335007,44.84892534021644 L-19.0,50.0" fill="brown" fill-opacity="0.6" stroke="black" stroke-width="1" />
<path d="M-17.0,-50.0 L-17.148226637335007,-55.15107465978356 L-19.0,-50.0" fill="brown" fill-opacity="0.6" stroke="black" stroke-width="1" />
<path d="M-31.0,50.0 L-34.23183769666548,53.33733521654534 L-45.0,50.0" fill="orange" fill-opacity="0.6" stroke="black" stroke-width="1" />
<path d="M-31.0,-50.0 L-34.23183769666548,-46.66266478345466 L-45.0,-50.0" fill="brown" fill-opacity="0.6" stroke="black" stroke-width="1" />
<path d="M-31.0,50.0 L-34.23183769666548,46.66266478345466 L-45.0,50.0" fill="green" fill-opacity="0.6" stroke="black" stroke-width="1" />
<path d="M-31.0,-50.0 L-34.23183769666548,-53.33733521654534 L-45.0,-50.0" fill="black" fill-opacity="0.6" stroke="black" stroke-width="1" />
<path d="M-8.0,92.0 L-1.4421715740110899,92.18231514382357 L-1.2552211742462294,93.16117392844272" fill="green" fill-opacity="0.6" stroke="black" stroke-width="1" />
<path d="M-8.0,-8.0 L-1.4421715740110899,-7.817684856176427 L-1.2552211742462294,-6.83882607155728" fill="purple" fill-opacity="0.6" stroke="black" stroke-width="1" />
<path d="M-8.0,8.0 L-1.4421715740110899,7.817684856176427 L-1.2552211742462294,6.838826071557278" fill="green" fill-opacity="0.6" stroke="black" stroke-width="1" />
<path d="M-8.0,-92.0 L-1.4421715740110899,-92.18231514382357 L-1.2552211742462294,-93.16117392844272" fill="pink" fill-opacity="0.6" stroke="black" stroke-width="1" />
<path d="M-1.4421715740110899,92.18231514382357 L-1.2552211742462294,93.16117392844272 L-1.059542467826502,98.48181234675795" fill="black" fill-opacity="0.6" stroke="black" stroke-width="1" />
<path d="M-1.4421715740110899,-7.817684856176427 L-1.2552211742462294,-6.83882607155728 L-1.059542467826502,-1.5181876532420535" fill="purple" fill-opacity="0.6" stroke="black" stroke-width="1" />
<path d="M-1.4421715740110899,7.817684856176427 L-1.2552211742462294,6.838826071557278 L-1.059542467826502,1.5181876532420517" fill="yellow" fill-opacity="0.6" stroke="black" stroke-width="1" />
<path d="M-1.4421715740110899,-92.18231514382357 L-1.2552211742462294,-93.16117392844272 L-1.059542467826502,-98.48181234675795" fill="brown" fill-opacity="0.6" stroke="black" stroke-width="1" />
<path d="M-1.2552211742462294,93.16117392844272 L-1.059542467826502,98.48181234675795 L0.0,100.0" fill="orange" fill-opacity="0.6" stroke="black" stroke-width="1" />
<path d="M-1.2552211742462294,-6.83882607155728 L-1.059542467826502,-1.5181876532420535 L0.0,-0.0" fill="red" fill-opacity="0.6" stroke="black" stroke-width="1" />
<path d="M-1.2552211742462294,6.838826071557278 L-1.059542467826502,1.5181876532420517 L0.0,-0.0" fill="pink" fill-opacity="0.6" stroke="black" stroke-width="1" />
<path d="M-1.2552211742462294,-93.16117392844272 L-1.059542467826502,-98.48181234675795 L0.0,-100.0" fill="red" fill-opacity="0.6" stroke="black" stroke-width="1" />
<path d="M-88.0,-0.0 L-83.86030579151935,-1.752593123719392 L-80.15988879965828,-1.7862383632405485" fill="black" fill-opacity="0.6" stroke="black" stroke-width="1" />
<path d="M-88.0,-0.0 L-83.86030579151935,1.752593123719392 L-80.15988879965828,1.7862383632405485" fill="red" fill-opacity="0.6" stroke="black" stroke-width="1" />
<path d="M-83.86030579151935,-1.752593123719392 L-80.15988879965828,-1.7862383632405485 L-79.0,-0.0" fill="green" fill-opacity="0.6" stroke="black" stroke-width="1" />
<path d="M-83.86030579151935,1.752593123719392 L-80.15988879965828,1.7862383632405485 L-79.0,-0.0" fill="green" fill-opacity="0.6" stroke="black" stroke-width="1" />
<path d="M-78.0,-0.0 L-68.5927629829082,-3.500777769218227 L-67.29602612818981,-3.7725279312349898" fill="yellow" fill-opacity="0.6" stroke="black" stroke-width="1" />
<path d="M-78.0,-0.0 L-68.5927629829082,3.500777769218227 L-67.29602612818981,3.7725279312349898" fill="red" fill-opacity="0.6" stroke="black" stroke-width="1" />
<path d="M-68.5927629829082,-3.500777769218227 L-67.29602612818981,-3.7725279312349898 L-66.0,-0.0" fill="purple" fill-opacity="0.6" stroke="black" stroke-width="1" />
<path d="M-68.5927629829082,3.500777769218227 L-67.29602612818981,3.7725279312349898 L-66.0,-0.0" fill="blue" fill-opacity="0.6" stroke="black" stroke-width="1" />
<path d="M-50.0,-11.0 L-59.68488259828174,-13.6859137748502 L-50.0,-14.0" fill="purple" fill-opacity="0.6" stroke="black" stroke-width="1" />
<path d="M-50.0,11.0 L-59.68488259828174,13.6859137748502 L-50.0,14.0" fill="blue" fill-opacity="0.6" stroke="black" stroke-width="1" />
<path d="M-50.0,-14.0 L-59.29914891351619,-14.50177690063029 L-56.56483295781062,-14.687610158921391" fill="pink" fill-opacity="0.6" stroke="black" stroke-width="1" />
<path d="M-50.0,14.0 L-59.29914891351619,14.50177690063029 L-56.56483295781062,14.687610158921391" fill="black" fill-opacity="0.6" stroke="black" stroke-width="1" />
<path d="M-59.29914891351619,-14.50177690063029 L-56.56483295781062,-14.687610158921391 L-50.0,-17.0" fill="pink" fill-opacity="0.6" stroke="black" stroke-width="1" />
<path d="M-59.29914891351619,14.50177690063029 L-56.56483295781062,14.687610158921391 L-50.0,17.0" fill="red" fill-opacity="0.6" stroke="black" stroke-width="1" />
<path d="M-50.0,-17.0 L-55.15107465978356,-17.148226637335007 L-50.0,-19.0" fill="red" fill-opacity="0.6" stroke="black" stroke-width="1" />
<path d="M-50.0,17.0 L-55.15107465978356,17.148226637335007 L-50.0,19.0" fill="brown" fill-opacity="0.6" stroke="black" stroke-width="1" />
<path d="M-50.0,-31.0 L-53.33733521654534,-34.23183769666548 L-50.0,-45.0" fill="orange" fill-opacity="0.6" stroke="black" stroke-width="1" />
<path d="M-50.0,31.0 L-53.33733521654534,34.23183769666548 L-50.0,45.0" fill="yellow" fill-opacity="0.6" stroke="black" stroke-width="1" />
<path d="M-50.0,-50.0 L-53.0,-47.0 L-59.0,-41.0" fill="orange" fill-opacity="0.6" stroke="black" stroke-width="1" />
<path d="M-50.0,50.0 L-53.0,47.0 L-59.0,41.0" fill="green" fill-opacity="0.6" stroke="black" stroke-width="1" />
<path d="M-53.0,-47.0 L-59.0,-41.0 L-70.0,-30.0" fill="pink" fill-opacity="0.6" stroke="black" stroke-width="1" />
<path d="M-53.0,47.0 L-59.0,41.0 L-70.0,30.0" fill="pink" fill-opacity="0.6" stroke="black" stroke-width="1" />
<path d="M-70.0,-30.0 L-71.0,-29.0 L-75.0,-25.0" fill="green" fill-opacity="0.6" stroke="black" stroke-width="1" />
<path d="M-70.0,30.0 L-71.0,29.0 L-75.0,25.0" fill="black" fill-opacity="0.6" stroke="black" stroke-width="1" />
<path d="M-71.0,-29.0 L-75.0,-25.0 L-85.0,-15.0" fill="green" fill-opacity="0.6" stroke="black" stroke-width="1" />
<path d="M-71.0,29.0 L-75.0,25.0 L-85.0,15.0" fill="pink" fill-opacity="0.6" stroke="black" stroke-width="1" />
<path d="M-75.0,-25.0 L-85.0,-15.0 L-92.0,-8.0" fill="yellow" fill-opacity="0.6" stroke="black" stroke-width="1" />
<path d="M-75.0,25.0 L-85.0,15.0 L-92.0,8.0" fill="purple" fill-opacity="0.6" stroke="black" stroke-width="1" />
<path d="M-85.0,-15.0 L-92.0,-8.0 L-92.18231514382357,-1.4421715740110899" fill="black" fill-opacity="0.6" stroke="black" stroke-width="1" />
<path d="M-85.0,15.0 L-92.0,8.0 L-92.18231514382357,1.4421715740110899" fill="orange" fill-opacity="0.6" stroke="black" stroke-width="1" />
<path d="M-92.0,-8.0 L-92.18231514382357,-1.4421715740110899 L-93.16117392844272,-1.2552211742462294" fill="black" fill-opacity="0.6" stroke="black" stroke-width="1" />
<path d="M-92.0,8.0 L-92.18231514382357,1.4421715740110899 L-93.16117392844272,1.2552211742462294" fill="pink" fill-opacity="0.6" stroke="black" stroke-width="1" />
<path d="M-92.18231514382357,-1.4421715740110899 L-93.16117392844272,-1.2552211742462294 L-98.48181234675795,-1.059542467826502" fill="black" fill-opacity="0.6" stroke="black" stroke-width="1" />
<path d="M-92.18231514382357,1.4421715740110899 L-93.16117392844272,1.2552211742462294 L-98.48181234675795,1.059542467826502" fill="black" fill-opacity="0.6" stroke="black" stroke-width="1" />
<path d="M-93.16117392844272,-1.2552211742462294 L-98.48181234675795,-1.059542467826502 L-100.0,-0.0" fill="black" fill-opacity="0.6" stroke="black" stroke-width="1" />
<path d="M-93.16117392844272,1.2552211742462294 L-98.48181234675795,1.059542467826502 L-100.0,-0.0" fill="purple" fill-opacity="0.6" stroke="black" stroke-width="1" />
</svg>