<?xml version="1.0" encoding="UTF-8"?>
<svg xmlns="http://www.w3.org/2000/svg" xmlns:xlink="http://www.w3.org/1999/xlink"
     width="250" height="250" viewBox="-125.0 -125.0 250 250">
<defs>
</defs>
<path d="M10.0,-0.0 L11.234265428128676,-2.239335915029892 L15.107393557838344,-2.4487855509071457" fill="purple" fill-opacity="0.6" stroke="black" stroke-width="1" />
<path d="M10.0,-0.0 L11.234265428128676,2.239335915029892 L15.107393557838344,2.4487855509071457" fill="green" fill-opacity="0.6" stroke="black" stroke-width="1" />
<path d="M11.234265428128676,-2.239335915029892 L15.107393557838344,-2.4487855509071457 L15.166400361897365,-4.913254092038876" fill="pink" fill-opacity="0.6" stroke="black" stroke-width="1" />
<path d="M11.234265428128676,2.239335915029892 L15.107393557838344,2.4487855509071457 L15.166400361897365,4.913254092038876" fill="pink" fill-opacity="0.6" stroke="black" stroke-width="1" />
<path d="M15.107393557838344,-2.4487855509071457 L15.166400361897365,-4.913254092038876 L21.09805982348641,-5.116148448820327" fill="pink" fill-opacity="0.6" stroke="black" stroke-width="1" />
<path d="M15.107393557838344,2.4487855509071457 L15.166400361897365,4.913254092038876 L21.09805982348641,5.116148448820327" fill="black" fill-opacity="0.6" stroke="black" stroke-width="1" />
<path d="M15.166400361897365,-4.913254092038876 L21.09805982348641,-5.116148448820327 L21.81846459397346,-5.710509345799072" fill="pink" fill-opacity="0.6" stroke="black" stroke-width="1" />
<path d="M15.166400361897365,4.913254092038876 L21.09805982348641,5.116148448820327 L21.81846459397346,5.710509345799072" fill="orange" fill-opacity="0.6" stroke="black" stroke-width="1" />
<path d="M21.09805982348641,-5.116148448820327 L21.81846459397346,-5.710509345799072 L22.0,-0.0" fill="blue" fill-opacity="0.6" stroke="black" stroke-width="1" />
<path d="M21.09805982348641,5.116148448820327 L21.81846459397346,5.710509345799072 L22.0,-0.0" fill="pink" fill-opacity="0.6" stroke="black" stroke-width="1" />
<path d="M30.0,70.0 L23.0,77.0 L21.0,79.0" fill="purple" fill-opacity="0.6" stroke="black" stroke-width="1" />
<path d="M30.0,-70.0 L23.0,-77.0 L21.0,-79.0" fill="purple" fill-opacity="0.6" stroke="black" stroke-width="1" />
<path d="M23.0,-0.0 L25.041427213433387,-6.851349415486127 L25.60482185758667,-8.628931886837016" fill="purple" fill-opacity="0.6" stroke="black" stroke-width="1" />
<path d="M23.0,-0.0 L25.041427213433387,6.851349415486127 L25.60482185758667,8.628931886837016" fill="pink" fill-opacity="0.6" stroke="black" stroke-width="1" />
<path d="M25.041427213433387,-6.851349415486127 L25.60482185758667,-8.628931886837016 L28.423067384033132,-10.261366270444292" fill="orange" fill-opacity="0.6" stroke="black" stroke-width="1" />
<path d="M25.041427213433387,6.851349415486127 L25.60482185758667,8.628931886837016 L28.423067384033132,10.261366270444292" fill="green" fill-opacity="0.6" stroke="black" stroke-width="1" />
<path d="M25.60482185758667,-8.628931886837016 L28.423067384033132,-10.261366270444292 L29.43168936791359,-11.50731317038263" fill="yellow" fill-opacity="0.6" stroke="black" stroke-width="1" />
<path d="M25.60482185758667,8.628931886837016 L28.423067384033132,10.261366270444292 L29.43168936791359,11.50731317038263" fill="brown" fill-opacity="0.6" stroke="black" stroke-width="1" />
<path d="M28.423067384033132,-10.261366270444292 L29.43168936791359,-11.50731317038263 L29.71124850194622,-12.543485745362323" fill="yellow" fill-opacity="0.6" stroke="black" stroke-width="1" />
<path d="M28.423067384033132,10.261366270444292 L29.43168936791359,11.50731317038263 L29.71124850194622,12.543485745362323" fill="yellow" fill-opacity="0.6" stroke="black" stroke-width="1" />
<path d="M29.43168936791359,-11.50731317038263 L29.71124850194622,-12.543485745362323 L30.227340891492023,-16.227125397246294" fill="purple" fill-opacity="0.6" stroke="black" stroke-width="1" />
<path d="M29.43168936791359,11.50731317038263 L29.71124850194622,12.543485745362323 L30.227340891492023,16.227125397246294" fill="purple" fill-opacity="0.6" stroke="black" stroke-width="1" />
<path d="M29.71124850194622,-12.543485745362323 L30.227340891492023,-16.227125397246294 L40.0,-0.0" fill="orange" fill-opacity="0.6" stroke="black" stroke-width="1" />
<path d="M29.71124850194622,12.543485745362323 L30.227340891492023,16.227125397246294 L40.0,-0.0" fill="orange" fill-opacity="0.6" stroke="black" stroke-width="1" />
<path d="M48.0,52.0 L40.0,60.0 L30.0,70.0" fill="red" fill-opacity="0.6" stroke="black" stroke-width="1" />
<path d="M48.0,-52.0 L40.0,-60.0 L30.0,-70.0" fill="brown" fill-opacity="0.6" stroke="black" stroke-width="1" />
<path d="M50.0,-15.0 L35.91857611757808,-18.42056335383397 L38.195895024591685,-21.051506604088" fill="brown" fill-opacity="0.6" stroke="black" stroke-width="1" />
<path d="M50.0,15.0 L35.91857611757808,18.42056335383397 L38.195895024591685,21.051506604088" fill="red" fill-opacity="0.6" stroke="black" stroke-width="1" />
<path d="M35.91857611757808,-18.42056335383397 L38.195895024591685,-21.051506604088 L38.61926696166449,-22.853898437084215" fill="blue" fill-opacity="0.6" stroke="black" stroke-width="1" />
<path d="M35.91857611757808,18.42056335383397 L38.195895024591685,21.051506604088 L38.61926696166449,22.853898437084215" fill="brown" fill-opacity="0.6" stroke="black" stroke-width="1" />
<path d="M38.195895024591685,-21.051506604088 L38.61926696166449,-22.853898437084215 L39.18339532950543,-24.59926841838084" fill="brown" fill-opacity="0.6" stroke="black" stroke-width="1" />
<path d="M38.195895024591685,21.051506604088 L38.61926696166449,22.853898437084215 L39.18339532950543,24.59926841838084" fill="brown" fill-opacity="0.6" stroke="black" stroke-width="1" />
<path d="M38.61926696166449,-22.853898437084215 L39.18339532950543,-24.59926841838084 L44.90308026369135,-26.916069331992905" fill="red" fill-opacity="0.6" stroke="black" stroke-width="1" />
<path d="M38.61926696166449,22.853898437084215 L39.18339532950543,24.59926841838084 L44.90308026369135,26.916069331992905" fill="orange" fill-opacity="0.6" stroke="black" stroke-width="1" />
<path d="M39.18339532950543,-24.59926841838084 L44.90308026369135,-26.916069331992905 L48.04418203229686,-27.843148248231138" fill="pink" fill-opacity="0.6" stroke="black" stroke-width="1" />
<path d="M39.18339532950543,24.59926841838084 L44.90308026369135,26.916069331992905 L48.04418203229686,27.843148248231138" fill="green" fill-opacity="0.6" stroke="black" stroke-width="1" />
<path d="M44.90308026369135,-26.916069331992905 L48.04418203229686,-27.843148248231138 L50.0,-38.0" fill="green" fill-opacity="0.6" stroke="black" stroke-width="1" />
<path d="M44.90308026369135,26.916069331992905 L48.04418203229686,27.843148248231138 L50.0,38.0" fill="brown" fill-opacity="0.6" stroke="black" stroke-width="1" />
<path d="M42.0,50.0 L48.0,52.0 L40.0,60.0" fill="brown" fill-opacity="0.6" stroke="black" stroke-width="1" />
<path d="M42.0,-50.0 L48.0,-52.0 L40.0,-60.0" fill="brown" fill-opacity="0.6" stroke="black" stroke-width="1" />
<path d="M40.0,60.0 L30.0,70.0 L23.0,77.0" fill="purple" fill-opacity="0.6" stroke="black" stroke-width="1" />
<path d="M40.0,-60.0 L30.0,-70.0 L23.0,-77.0" fill="red" fill-opacity="0.6" stroke="black" stroke-width="1" />
<path d="M23.0,77.0 L21.0,79.0 L20.0,80.0" fill="brown" fill-opacity="0.6" stroke="black" stroke-width="1" />
<path d="M23.0,-77.0 L21.0,-79.0 L20.0,-80.0" fill="green" fill-opacity="0.6" stroke="black" stroke-width="1" />
<path d="M21.0,79.0 L20.0,80.0 L17.0,83.0" fill="blue" fill-opacity="0.6" stroke="black" stroke-width="1" />
<path d="M21.0,-79.0 L20.0,-80.0 L17.0,-83.0" fill="purple" fill-opacity="0.6" stroke="black" stroke-width="1" />
<path d="M20.0,80.0 L17.0,83.0 L8.0,92.0" fill="purple" fill-opacity="0.6" stroke="black" stroke-width="1" />
<path d="M20.0,-80.0 L17.0,-83.0 L8.0,-92.0" fill="red" fill-opacity="0.6" stroke="black" stroke-width="1" />
<path d="M17.0,83.0 L8.0,92.0 L1.7890375586763485,94.2698984602131" fill="purple" fill-opacity="0.6" stroke="black" stroke-width="1" />
<path d="M17.0,-83.0 L8.0,-92.0 L1.7890375586763485,-94.2698984602131" fill="orange" fill-opacity="0.6" stroke="black" stroke-width="1" />
<path d="M8.0,-8.0 L5.730101539786897,-1.7890375586763485 L4.070771260969019,-0.732298356873792" fill="purple" fill-opacity="0.6" stroke="black" stroke-width="1" />
<path d="M8.0,8.0 L5.730101539786897,1.7890375586763485 L4.070771260969019,0.732298356873792" fill="black" fill-opacity="0.6" stroke="black" stroke-width="1" />
<path d="M5.730101539786897,-1.7890375586763485 L4.070771260969019,-0.732298356873792 L3.1909240885873604,-0.2818966774217002" fill="black" fill-opacity="0.6" stroke="black" stroke-width="1" />
<path d="M5.730101539786897,1.7890375586763485 L4.070771260969019,0.732298356873792 L3.1909240885873604,0.2818966774217002" fill="green" fill-opacity="0.6" stroke="black" stroke-width="1" />
<path d="M4.070771260969019,-0.732298356873792 L3.1909240885873604,-0.2818966774217002 L0.0,-0.0" fill="black" fill-opacity="0.6" stroke="black" stroke-width="1" />
<path d="M4.070771260969019,0.732298356873792 L3.1909240885873604,0.2818966774217002 L0.0,-0.0" fill="black" fill-opacity="0.6" stroke="black" stroke-width="1" />
<path d="M-10.0,-0.0 L-11.234265428128676,-2.239335915029892 L-15.107393557838344,-2.4487855509071457" fill="black" fill-opacity="0.6" stroke="black" stroke-width="1" />
<path d="M-10.0,-0.0 L-11.234265428128676,2.239335915029892 L-15.107393557838344,2.4487855509071457" fill="pink" fill-opacity="0.6" stroke="black" stroke-width="1" />
<path d="M-11.234265428128676,-2.239335915029892 L-15.107393557838344,-2.4487855509071457 L-15.166400361897365,-4.913254092038876" fill="purple" fill-opacity="0.6" stroke="black" stroke-width="1" />
<path d="M-11.234265428128676,2.239335915029892 L-15.107393557838344,2.4487855509071457 L-15.166400361897365,4.913254092038876" fill="orange" fill-opacity="0.6" stroke="black" stroke-width="1" />
<path d="M-15.107393557838344,-2.4487855509071457 L-15.166400361897365,-4.913254092038876 L-21.09805982348641,-5.116148448820327" fill="red" fill-opacity="0.6" stroke="black" stroke-width="1" />
<path d="M-15.107393557838344,2.4487855509071457 L-15.166400361897365,4.913254092038876 L-21.09805982348641,5.116148448820327" fill="yellow" fill-opacity="0.6" stroke="black" stroke-width="1" />
<path d="M-15.166400361897365,-4.913254092038876 L-21.09805982348641,-5.116148448820327 L-21.81846459397346,-5.710509345799072" fill="black" fill-opacity="0.6" stroke="black" stroke-width="1" />
<path d="M-15.166400361897365,4.913254092038876 L-21.09805982348641,5.116148448820327 L-21.81846459397346,5.710509345799072" fill="blue" fill-opacity="0.6" stroke="black" stroke-width="1" />
<path d="M-21.09805982348641,-5.116148448820327 L-21.81846459397346,-5.710509345799072 L-22.0,-0.0" fill="pink" fill-opacity="0.6" stroke="black" stroke-width="1" />
<path d="M-21.09805982348641,5.116148448820327 L-21.81846459397346,5.710509345799072 L-22.0,-0.0" fill="yellow" fill-opacity="0.6" stroke="black" stroke-width="1" />
<path d="M-30.0,70.0 L-23.0,77.0 L-21.0,79.0" fill="orange" fill-opacity="0.6" stroke="black" stroke-width="1" />
<path d="M-30.0,-70.0 L-23.0,-77.0 L-21.0,-79.0" fill="green" fill-opacity="0.6" stroke="black" stroke-width="1" />
<path d="M-23.0,-0.0 L-25.041427213433387,-6.851349415486127 L-25.60482185758667,-8.628931886837016" fill="yellow" fill-opacity="0.6" stroke="black" stroke-width="1" />
<path d="M-23.0,-0.0 L-25.041427213433387,6.851349415486127 L-25.60482185758667,8.628931886837016" fill="brown" fill-opacity="0.6" stroke="black" stroke-width="1" />
<path d="M-25.041427213433387,-6.851349415486127 L-25.60482185758667,-8.628931886837016 L-28.423067384033132,-10.261366270444292" fill="brown" fill-opacity="0.6" stroke="black" stroke-width="1" />
<path d="M-25.041427213433387,6.851349415486127 L-25.60482185758667,8.628931886837016 L-28.423067384033132,10.261366270444292" fill="black" fill-opacity="0.6" stroke="black" stroke-width="1" />
<path d="M-25.60482185758667,-8.628931886837016 L-28.423067384033132,-10.261366270444292 L-29.43168936791359,-11.50731317038263" fill="purple" fill-opacity="0.6" stroke="black" stroke-width="1" />
<path d="M-25.60482185758667,8.628931886837016 L-28.423067384033132,10.261366270444292 L-29.43168936791359,11.50731317038263" fill="green" fill-opacity="0.6" stroke="black" stroke-width="1" />
<path d="M-28.423067384033132,-10.261366270444292 L-29.43168936791359,-11.50731317038263 L-29.71124850194622,-12.543485745362323" fill="brown" fill-opacity="0.6" stroke="black" stroke-width="1" />
<path d="M-28.423067384033132,10.261366270444292 L-29.43168936791359,11.50731317038263 L-29.71124850194622,12.543485745362323" fill="brown" fill-opacity="0.6" stroke="black" stroke-width="1" />
<path d="M-29.43168936791359,-11.50731317038263 L-29.71124850194622,-12.543485745362323 L-30.227340891492023,-16.227125397246294" fill="pink" fill-opacity="0.6" stroke="black" stroke-width="1" />
<path d="M-29.43168936791359,11.50731317038263 L-29.71124850194622,12.543485745362323 L-30.227340891492023,16.227125397246294" fill="orange" fill-opacity="0.6" stroke="black" stroke-width="1" />
<path d="M-29.71124850194622,-12.543485745362323 L-30.227340891492023,-16.227125397246294 L-40.0,-0.0" fill="brown" fill-opacity="0.6" stroke="black" stroke-width="1" />
<path d="M-29.71124850194622,12.543485745362323 L-30.227340891492023,16.227125397246294 L-40.0,-0.0" fill="blue" fill-opacity="0.6" stroke="black" stroke-width="1" />
<path d="M-48.0,52.0 L-40.0,60.0 L-30.0,70.0" fill="pink" fill-opacity="0.6" stroke="black" stroke-width="1" />
<path d="M-48.0,-52.0 L-40.0,-60.0 L-30.0,-70.0" fill="purple" fill-opacity="0.6" stroke="black" stroke-width="1" />
<path d="M-50.0,-15.0 L-35.91857611757808,-18.42056335383397 L-38.195895024591685,-21.051506604088" fill="green" fill-opacity="0.6" stroke="black" stroke-width="1" />
<path d="M-50.0,15.0 L-35.91857611757808,18.42056335383397 L-38.195895024591685,21.051506604088" fill="orange" fill-opacity="0.6" stroke="black" stroke-width="1" />
<path d="M-35.91857611757808,-18.42056335383397 L-38.195895024591685,-21.051506604088 L-38.61926696166449,-22.853898437084215" fill="pink" fill-opacity="0.6" stroke="black" stroke-width="1" />
<path d="M-35.91857611757808,18.42056335383397 L-38.195895024591685,21.051506604088 L-38.61926696166449,22.853898437084215" fill="brown" fill-opacity="0.6" stroke="black" stroke-width="1" />
<path d="M-38.195895024591685,-21.051506604088 L-38.61926696166449,-22.853898437084215 L-39.18339532950543,-24.59926841838084" fill="purple" fill-opacity="0.6" stroke="black" stroke-width="1" />
<path d="M-38.195895024591685,21.051506604088 L-38.61926696166449,22.853898437084215 L-39.18339532950543,24.59926841838084" fill="blue" fill-opacity="0.6" stroke="black" stroke-width="1" />
<path d="M-38.61926696166449,-22.853898437084215 L-39.18339532950543,-24.59926841838084 L-44.90308026369135,-26.916069331992905" fill="blue" fill-opacity="0.6" stroke="black" stroke-width="1" />
<path d="M-38.61926696166449,22.853898437084215 L-39.18339532950543,24.59926841838084 L-44.90308026369135,26.916069331992905" fill="orange" fill-opacity="0.6" stroke="black" stroke-width="1" />
<path d="M-39.18339532950543,-24.59926841838084 L-44.90308026369135,-26.916069331992905 L-48.04418203229686,-27.843148248231138" fill="red" fill-opacity="0.6" stroke="black" stroke-width="1" />
<path d="M-39.18339532950543,24.59926841838084 L-44.90308026369135,26.916069331992905 L-48.04418203229686,27.843148248231138" fill="black" fill-opacity="0.6" stroke="black" stroke-width="1" />
<path d="M-44.90308026369135,-26.916069331992905 L-48.04418203229686,-27.843148248231138 L-50.0,-38.0" fill="green" fill-opacity="0.6" stroke="black" stroke-width="1" />
<path d="M-44.90308026369135,26.916069331992905 L-48.04418203229686,27.843148248231138 L-50.0,38.0" fill="purple" fill-opacity="0.6" stroke="black" stroke-width="1" />
<path d="M-42.0,50.0 L-48.0,52.0 L-40.0,60.0" fill="green" fill-opacity="0.6" stroke="black" stroke-width="1" />
<path d="M-42.0,-50.0 L-48.0,-52.0 L-40.0,-60.0" fill="brown" fill-opacity="0.6" stroke="black" stroke-width="1" />
<path d="M-40.0,60.0 L-30.0,70.0 L-23.0,77.0" fill="red" fill-opacity="0.6" stroke="black" stroke-width="1" />
<path d="M-40.0,-60.0 L-30.0,-70.0 L-23.0,-77.0" fill="orange" fill-opacity="0.6" stroke="black" stroke-width="1" />
<path d="M-23.0,77.0 L-21.0,79.0 L-20.0,80.0" fill="orange" fill-opacity="0.6" stroke="black" stroke-width="1" />
<path d="M-23.0,-77.0 L-21.0,-79.0 L-20.0,-80.0" fill="black" fill-opacity="0.6" stroke="black" stroke-width="1" />
<path d="M-21.0,79.0 L-20.0,80.0 L-17.0,83.0" fill="blue" fill-opacity="0.6" stroke="black" stroke-width="1" />
<path d="M-21.0,-79.0 L-20.0,-80.0 L-17.0,-83.0" fill="green" fill-opacity="0.6" stroke="black" stroke-width="1" />
<path d="M-20.0,80.0 L-17.0,83.0 L-8.0,92.0" fill="orange" fill-opacity="0.6" stroke="black" stroke-width="1" />
<path d="M-20.0,-80.0 L-17.0,-83.0 L-8.0,-92.0" fill="blue" fill-opacity="0.6" stroke="black" stroke-width="1" />
<path d="M-17.0,83.0 L-8.0,92.0 L-1.7890375586763485,94.2698984602131" fill="orange" fill-opacity="0.6" stroke="black" stroke-width="1" />
<path d="M-17.0,-83.0 L-8.0,-92.0 L-1.7890375586763485,-94.2698984602131" fill="blue" fill-opacity="0.6" stroke="black" stroke-width="1" />
<path d="M-8.0,-8.0 L-5.730101539786897,-1.7890375586763485 L-4.070771260969019,-0.732298356873792" fill="blue" fill-opacity="0.6" stroke="black" stroke-width="1" />
<path d="M-8.0,8.0 L-5.730101539786897,1.7890375586763485 L-4.070771260969019,0.732298356873792" fill="red" fill-opacity="0.6" stroke="black" stroke-width="1" />
<path d="M-5.730101539786897,-1.7890375586763485 L-4.070771260969019,-0.732298356873792 L-3.1909240885873604,-0.2818966774217002" fill="yellow" fill-opacity="0.6" stroke="black" stroke-width="1" />
<path d="M-5.730101539786897,1.7890375586763485 L-4.070771260969019,0.732298356873792 L-3.1909240885873604,0.2818966774217002" fill="orange" fill-opacity="0.6" stroke="black" stroke-width="1" />
<path d="M-4.070771260969019,-0.732298356873792 L-3.1909240885873604,-0.2818966774217002 L0.0,-0.0" fill="purple" fill-opacity="0.6" stroke="black" stroke-width="1" />
<path d="M-4.070771260969019,0.732298356873792 L-3.1909240885873604,0.2818966774217002 L0.0,-0.0" fill="black" fill-opacity="0.6" stroke="black" stroke-width="1" />
<path d="M90.0,-0.0 L88.76573457187132,2.239335915029892 L84.89260644216165,2.4487855509071457" fill="blue" fill-opacity="0.6" stroke="black" stroke-width="1" />
<path d="M90.0,-0.0 L88.76573457187132,-2.239335915029892 L84.89260644216165,-2.4487855509071457" fill="blue" fill-opacity="0.6" stroke="black" stroke-width="1" />
<path d="M88.76573457187132,2.239335915029892 L84.89260644216165,2.4487855509071457 L84.83359963810264,4.913254092038876" fill="red" fill-opacity="0.6" stroke="black" stroke-width="1" />
<path d="M88.76573457187132,-2.239335915029892 L84.89260644216165,-2.4487855509071457 L84.83359963810264,-4.913254092038876" fill="brown" fill-opacity="0.6" stroke="black" stroke-width="1" />
<path d="M84.89260644216165,2.4487855509071457 L84.83359963810264,4.913254092038876 L78.90194017651359,5.116148448820327" fill="yellow" fill-opacity="0.6" stroke="black" stroke-width="1" />
<path d="M84.89260644216165,-2.4487855509071457 L84.83359963810264,-4.913254092038876 L78.90194017651359,-5.116148448820327" fill="purple" fill-opacity="0.6" stroke="black" stroke-width="1" />
<path d="M84.83359963810264,4.913254092038876 L78.90194017651359,5.116148448820327 L78.18153540602654,5.710509345799072" fill="black" fill-opacity="0.6" stroke="black" stroke-width="1" />
<path d="M84.83359963810264,-4.913254092038876 L78.90194017651359,-5.116148448820327 L78.18153540602654,-5.710509345799072" fill="orange" fill-opacity="0.6" stroke="black" stroke-width="1" />
<path d="M78.90194017651359,5.116148448820327 L78.18153540602654,5.710509345799072 L78.0,-0.0" fill="red" fill-opacity="0.6" stroke="black" stroke-width="1" />
<path d="M78.90194017651359,-5.116148448820327 L78.18153540602654,-5.710509345799072 L78.0,-0.0" fill="brown" fill-opacity="0.6" stroke="black" stroke-width="1" />
<path d="M70.0,30.0 L77.0,23.0 L79.0,21.0" fill="green" fill-opacity="0.6" stroke="black" stroke-width="1" />
<path d="M70.0,-30.0 L77.0,-23.0 L79.0,-21.0" fill="green" fill-opacity="0.6" stroke="black" stroke-width="1" />
<path d="M77.0,-0.0 L74.9585727865666,6.851349415486127 L74.39517814241333,8.628931886837016" fill="yellow" fill-opacity="0.6" stroke="black" stroke-width="1" />
<path d="M77.0,-0.0 L74.9585727865666,-6.851349415486127 L74.39517814241333,-8.628931886837016" fill="purple" fill-opacity="0.6" stroke="black" stroke-width="1" />
<path d="M74.9585727865666,6.851349415486127 L74.39517814241333,8.628931886837016 L71.57693261596687,10.261366270444292" fill="brown" fill-opacity="0.6" stroke="black" stroke-width="1" />
<path d="M74.9585727865666,-6.851349415486127 L74.39517814241333,-8.628931886837016 L71.57693261596687,-10.261366270444292" fill="blue" fill-opacity="0.6" stroke="black" stroke-width="1" />
<path d="M74.39517814241333,8.628931886837016 L71.57693261596687,10.261366270444292 L70.56831063208641,11.50731317038263" fill="black" fill-opacity="0.6" stroke="black" stroke-width="1" />
<path d="M74.39517814241333,-8.628931886837016 L71.57693261596687,-10.261366270444292 L70.56831063208641,-11.50731317038263" fill="green" fill-opacity="0.6" stroke="black" stroke-width="1" />
<path d="M71.57693261596687,10.261366270444292 L70.56831063208641,11.50731317038263 L70.28875149805378,12.543485745362323" fill="orange" fill-opacity="0.6" stroke="black" stroke-width="1" />
<path d="M71.57693261596687,-10.261366270444292 L70.56831063208641,-11.50731317038263 L70.28875149805378,-12.543485745362323" fill="green" fill-opacity="0.6" stroke="black" stroke-width="1" />
<path d="M70.56831063208641,11.50731317038263 L70.28875149805378,12.543485745362323 L69.77265910850798,16.227125397246294" fill="brown" fill-opacity="0.6" stroke="black" stroke-width="1" />
<path d="M70.56831063208641,-11.50731317038263 L70.28875149805378,-12.543485745362323 L69.77265910850798,-16.227125397246294" fill="purple" fill-opacity="0.6" stroke="black" stroke-width="1" />
<path d="M70.28875149805378,12.543485745362323 L69.77265910850798,16.227125397246294 L60.0,-0.0" fill="pink" fill-opacity="0.6" stroke="black" stroke-width="1" />
<path d="M70.28875149805378,-12.543485745362323 L69.77265910850798,-16.227125397246294 L60.0,-0.0" fill="red" fill-opacity="0.6" stroke="black" stroke-width="1" />
<path d="M52.0,48.0 L60.0,40.0 L70.0,30.0" fill="purple" fill-opacity="0.6" stroke="black" stroke-width="1" />
<path d="M52.0,-48.0 L60.0,-40.0 L70.0,-30.0" fill="orange" fill-opacity="0.6" stroke="black" stroke-width="1" />
<path d="M50.0,15.0 L64.08142388242192,18.42056335383397 L61.804104975408315,21.051506604088" fill="black" fill-opacity="0.6" stroke="black" stroke-width="1" />
<path d="M50.0,-15.0 L64.08142388242192,-18.42056335383397 L61.804104975408315,-21.051506604088" fill="black" fill-opacity="0.6" stroke="black" stroke-width="1" />
<path d="M64.08142388242192,18.42056335383397 L61.804104975408315,21.051506604088 L61.38073303833551,22.853898437084215" fill="red" fill-opacity="0.6" stroke="black" stroke-width="1" />
<path d="M64.08142388242192,-18.42056335383397 L61.804104975408315,-21.051506604088 L61.38073303833551,-22.853898437084215" fill="green" fill-opacity="0.6" stroke="black" stroke-width="1" />
<path d="M61.804104975408315,21.051506604088 L61.38073303833551,22.853898437084215 L60.81660467049457,24.59926841838084" fill="pink" fill-opacity="0.6" stroke="black" stroke-width="1" />
<path d="M61.804104975408315,-21.051506604088 L61.38073303833551,-22.853898437084215 L60.81660467049457,-24.59926841838084" fill="black" fill-opacity="0.6" stroke="black" stroke-width="1" />
<path d="M61.38073303833551,22.853898437084215 L60.81660467049457,24.59926841838084 L55.09691973630865,26.916069331992905" fill="red" fill-opacity="0.6" stroke="black" stroke-width="1" />
<path d="M61.38073303833551,-22.853898437084215 L60.81660467049457,-24.59926841838084 L55.09691973630865,-26.916069331992905" fill="purple" fill-opacity="0.6" stroke="black" stroke-width="1" />
<path d="M60.81660467049457,24.59926841838084 L55.09691973630865,26.916069331992905 L51.95581796770314,27.843148248231138" fill="orange" fill-opacity="0.6" stroke="black" stroke-width="1" />
<path d="M60.81660467049457,-24.59926841838084 L55.09691973630865,-26.916069331992905 L51.95581796770314,-27.843148248231138" fill="brown" fill-opacity="0.6" stroke="black" stroke-width="1" />
<path d="M55.09691973630865,26.916069331992905 L51.95581796770314,27.843148248231138 L50.0,38.0" fill="brown" fill-opacity="0.6" stroke="black" stroke-width="1" />
<path d="M55.09691973630865,-26.916069331992905 L51.95581796770314,-27.843148248231138 L50.0,-38.0" fill="black" fill-opacity="0.6" stroke="black" stroke-width="1" />
<path d="M50.0,42.0 L52.0,48.0 L60.0,40.0" fill="pink" fill-opacity="0.6" stroke="black" stroke-width="1" />
<path d="M50.0,-42.0 L52.0,-48.0 L60.0,-40.0" fill="brown" fill-opacity="0.6" stroke="black" stroke-width="1" />
<path d="M60.0,40.0 L70.0,30.0 L77.0,23.0" fill="orange" fill-opacity="0.6" stroke="black" stroke-width="1" />
<path d="M60.0,-40.0 L70.0,-30.0 L77.0,-23.0" fill="orange" fill-opacity="0.6" stroke="black" stroke-width="1" />
<path d="M77.0,23.0 L79.0,21.0 L80.0,20.0" fill="blue" fill-opacity="0.6" stroke="black" stroke-width="1" />
<path d="M77.0,-23.0 L79.0,-21.0 L80.0,-20.0" fill="blue" fill-opacity="0.6" stroke="black" stroke-width="1" />
<path d="M79.0,21.0 L80.0,20.0 L83.0,17.0" fill="purple" fill-opacity="0.6" stroke="black" stroke-width="1" />
<path d="M79.0,-21.0 L80.0,-20.0 L83.0,-17.0" fill="orange" fill-opacity="0.6" stroke="black" stroke-width="1" />
<path d="M80.0,20.0 L83.0,17.0 L92.0,8.0" fill="red" fill-opacity="0.6" stroke="black" stroke-width="1" />
<path d="M80.0,-20.0 L83.0,-17.0 L92.0,-8.0" fill="orange" fill-opacity="0.6" stroke="black" stroke-width="1" />
<path d="M83.0,17.0 L92.0,8.0 L94.2698984602131,1.7890375586763485" fill="purple" fill-opacity="0.6" stroke="black" stroke-width="1" />
<path d="M83.0,-17.0 L92.0,-8.0 L94.2698984602131,-1.7890375586763485" fill="brown" fill-opacity="0.6" stroke="black" stroke-width="1" />
<path d="M92.0,8.0 L94.2698984602131,1.7890375586763485 L95.92922873903098,0.732298356873792" fill="yellow" fill-opacity="0.6" stroke="black" stroke-width="1" />
<path d="M92.0,-8.0 L94.2698984602131,-1.7890375586763485 L95.92922873903098,-0.732298356873792" fill="orange" fill-opacity="0.6" stroke="black" stroke-width="1" />
<path d="M94.2698984602131,1.7890375586763485 L95.92922873903098,0.732298356873792 L96.80907591141263,0.2818966774217002" fill="green" fill-opacity="0.6" stroke="black" stroke-width="1" />
<path d="M94.2698984602131,-1.7890375586763485 L95.92922873903098,-0.732298356873792 L96.80907591141263,-0.2818966774217002" fill="brown" fill-opacity="0.6" stroke="black" stroke-width="1" />
<path d="M95.92922873903098,0.732298356873792 L96.80907591141263,0.2818966774217002 L100.0,-0.0" fill="orange" fill-opacity="0.6" stroke="black" stroke-width="1" />
<path d="M95.92922873903098,-0.732298356873792 L96.80907591141263,-0.2818966774217002 L100.0,-0.0" fill="green" fill-opacity="0.6" stroke="black" stroke-width="1" />
<path d="M0.0,-10.0 L2.239335915029892,-11.234265428128676 L2.4487855509071457,-15.107393557838344" fill="purple" fill-opacity="0.6" stroke="black" stroke-width="1" />
<path d="M0.0,10.0 L2.239335915029892,11.234265428128676 L2.4487855509071457,15.107393557838344" fill="orange" fill-opacity="0.6" stroke="black" stroke-width="1" />
<path d="M0.0,90.0 L2.239335915029892,88.76573457187132 L2.4487855509071457,84.89260644216165" fill="black" fill-opacity="0.6" stroke="black" stroke-width="1" />
<path d="M0.0,-90.0 L2.239335915029892,-88.76573457187132 L2.4487855509071457,-84.89260644216165" fill="blue" fill-opacity="0.6" stroke="black" stroke-width="1" />
<path d="M2.239335915029892,-11.234265428128676 L2.4487855509071457,-15.107393557838344 L4.913254092038876,-15.166400361897365" fill="orange" fill-opacity="0.6" stroke="black" stroke-width="1" />
<path d="M2.239335915029892,11.234265428128676 L2.4487855509071457,15.107393557838344 L4.913254092038876,15.166400361897365" fill="purple" fill-opacity="0.6" stroke="black" stroke-width="1" />
<path d="M2.239335915029892,88.76573457187132 L2.4487855509071457,84.89260644216165 L4.913254092038876,84.83359963810264" fill="orange" fill-opacity="0.6" stroke="black" stroke-width="1" />
<path d="M2.239335915029892,-88.76573457187132 L2.4487855509071457,-84.89260644216165 L4.913254092038876,-84.83359963810264" fill="purple" fill-opacity="0.6" stroke="black" stroke-width="1" />
<path d="M2.4487855509071457,-15.107393557838344 L4.913254092038876,-15.166400361897365 L5.116148448820327,-21.09805982348641" fill="blue" fill-opacity="0.6" stroke="black" stroke-width="1" />
<path d="M2.4487855509071457,15.107393557838344 L4.913254092038876,15.166400361897365 L5.116148448820327,21.09805982348641" fill="red" fill-opacity="0.6" stroke="black" stroke-width="1" />
<path d="M2.4487855509071457,84.89260644216165 L4.913254092038876,84.83359963810264 L5.116148448820327,78.90194017651359" fill="purple" fill-opacity="0.6" stroke="black" stroke-width="1" />
<path d="M2.4487855509071457,-84.89260644216165 L4.913254092038876,-84.83359963810264 L5.116148448820327,-78.90194017651359" fill="blue" fill-opacity="0.6" stroke="black" stroke-width="1" />
<path d="M4.913254092038876,-15.166400361897365 L5.116148448820327,-21.09805982348641 L5.710509345799072,-21.81846459397346" fill="orange" fill-opacity="0.6" stroke="black" stroke-width="1" />
<path d="M4.913254092038876,15.166400361897365 L5.116148448820327,21.09805982348641 L5.710509345799072,21.81846459397346" fill="purple" fill-opacity="0.6" stroke="black" stroke-width="1" />
<path d="M4.913254092038876,84.83359963810264 L5.116148448820327,78.90194017651359 L5.710509345799072,78.18153540602654" fill="pink" fill-opacity="0.6" stroke="black" stroke-width="1" />
<path d="M4.913254092038876,-84.83359963810264 L5.116148448820327,-78.90194017651359 L5.710509345799072,-78.18153540602654" fill="pink" fill-opacity="0.6" stroke="black" stroke-width="1" />
<path d="M5.116148448820327,-21.09805982348641 L5.710509345799072,-21.81846459397346 L0.0,-22.0" fill="blue" fill-opacity="0.6" stroke="black" stroke-width="1" />
<path d="M5.116148448820327,21.09805982348641 L5.710509345799072,21.81846459397346 L0.0,22.0" fill="yellow" fill-opacity="0.6" stroke="black" stroke-width="1" />
<path d="M5.116148448820327,78.90194017651359 L5.710509345799072,78.18153540602654 L0.0,78.0" fill="brown" fill-opacity="0.6" stroke="black" stroke-width="1" />
<path d="M5.116148448820327,-78.90194017651359 L5.710509345799072,-78.18153540602654 L0.0,-78.0" fill="pink" fill-opacity="0.6" stroke="black" stroke-width="1" />
<path d="M0.0,-23.0 L6.851349415486127,-25.041427213433387 L8.628931886837016,-25.60482185758667" fill="black" fill-opacity="0.6" stroke="black" stroke-width="1" />
<path d="M0.0,23.0 L6.851349415486127,25.041427213433387 L8.628931886837016,25.60482185758667" fill="purple" fill-opacity="0.6" stroke="black" stroke-width="1" />
<path d="M0.0,77.0 L6.851349415486127,74.9585727865666 L8.628931886837016,74.39517814241333" fill="orange" fill-opacity="0.6" stroke="black" stroke-width="1" />
<path d="M0.0,-77.0 L6.851349415486127,-74.9585727865666 L8.628931886837016,-74.39517814241333" fill="yellow" fill-opacity="0.6" stroke="black" stroke-width="1" />
<path d="M6.851349415486127,-25.041427213433387 L8.628931886837016,-25.60482185758667 L10.261366270444292,-28.423067384033132" fill="orange" fill-opacity="0.6" stroke="black" stroke-width="1" />
<path d="M6.851349415486127,25.041427213433387 L8.628931886837016,25.60482185758667 L10.261366270444292,28.423067384033132" fill="yellow" fill-opacity="0.6" stroke="black" stroke-width="1" />
<path d="M6.851349415486127,74.9585727865666 L8.628931886837016,74.39517814241333 L10.261366270444292,71.57693261596687" fill="red" fill-opacity="0.6" stroke="black" stroke-width="1" />
<path d="M6.851349415486127,-74.9585727865666 L8.628931886837016,-74.39517814241333 L10.261366270444292,-71.57693261596687" fill="black" fill-opacity="0.6" stroke="black" stroke-width="1" />
<path d="M8.628931886837016,-25.60482185758667 L10.261366270444292,-28.423067384033132 L11.50731317038263,-29.43168936791359" fill="orange" fill-opacity="0.6" stroke="black" stroke-width="1" />
<path d="M8.628931886837016,25.60482185758667 L10.261366270444292,28.423067384033132 L11.50731317038263,29.43168936791359" fill="green" fill-opacity="0.6" stroke="black" stroke-width="1" />
<path d="M8.628931886837016,74.39517814241333 L10.261366270444292,71.57693261596687 L11.50731317038263,70.56831063208641" fill="blue" fill-opacity="0.6" stroke="black" stroke-width="1" />
<path d="M8.628931886837016,-74.39517814241333 L10.261366270444292,-71.57693261596687 L11.50731317038263,-70.56831063208641" fill="pink" fill-opacity="0.6" stroke="black" stroke-width="1" />
<path d="M10.261366270444292,-28.423067384033132 L11.50731317038263,-29.43168936791359 L12.543485745362323,-29.71124850194622" fill="green" fill-opacity="0.6" stroke="black" stroke-width="1" />
<path d="M10.261366270444292,28.423067384033132 L11.50731317038263,29.43168936791359 L12.543485745362323,29.71124850194622" fill="black" fill-opacity="0.6" stroke="black" stroke-width="1" />
<path d="M10.261366270444292,71.57693261596687 L11.50731317038263,70.56831063208641 L12.543485745362323,70.28875149805378" fill="yellow" fill-opacity="0.6" stroke="black" stroke-width="1" />
<path d="M10.261366270444292,-71.57693261596687 L11.50731317038263,-70.56831063208641 L12.543485745362323,-70.28875149805378" fill="orange" fill-opacity="0.6" stroke="black" stroke-width="1" />
<path d="M11.50731317038263,-29.43168936791359 L12.543485745362323,-29.71124850194622 L16.227125397246294,-30.227340891492023" fill="black" fill-opacity="0.6" stroke="black" stroke-width="1" />
<path d="M11.50731317038263,29.43168936791359 L12.543485745362323,29.71124850194622 L16.227125397246294,30.227340891492023" fill="brown" fill-opacity="0.6" stroke="black" stroke-width="1" />
<path d="M11.50731317038263,70.56831063208641 L12.543485745362323,70.28875149805378 L16.227125397246294,69.77265910850798" fill="blue" fill-opacity="0.6" stroke="black" stroke-width="1" />
<path d="M11.50731317038263,-70.56831063208641 L12.543485745362323,-70.28875149805378 L16.227125397246294,-69.77265910850798" fill="pink" fill-opacity="0.6" stroke="black" stroke-width="1" />
<path d="M12.543485745362323,-29.71124850194622 L16.227125397246294,-30.227340891492023 L0.0,-40.0" fill="orange" fill-opacity="0.6" stroke="black" stroke-width="1" />
<path d="M12.543485745362323,29.71124850194622 L16.227125397246294,30.227340891492023 L0.0,40.0" fill="green" fill-opacity="0.6" stroke="black" stroke-width="1" />
<path d="M12.543485745362323,70.28875149805378 L16.227125397246294,69.77265910850798 L0.0,60.0" fill="purple" fill-opacity="0.6" stroke="black" stroke-width="1" />
<path d="M12.543485745362323,-70.28875149805378 L16.227125397246294,-69.77265910850798 L0.0,-60.0" fill="black" fill-opacity="0.6" stroke="black" stroke-width="1" />
<path d="M15.0,-50.0 L18.42056335383397,-35.91857611757808 L21.051506604088,-38.195895024591685" fill="pink" fill-opacity="0.6" stroke="black" stroke-width="1" />
<path d="M15.0,50.0 L18.42056335383397,35.91857611757808 L21.051506604088,38.195895024591685" fill="black" fill-opacity="0.6" stroke="black" stroke-width="1" />
<path d="M15.0,50.0 L18.42056335383397,64.08142388242192 L21.051506604088,61.804104975408315" fill="pink" fill-opacity="0.6" stroke="black" stroke-width="1" />
<path d="M15.0,-50.0 L18.42056335383397,-64.08142388242192 L21.051506604088,-61.804104975408315" fill="brown" fill-opacity="0.6" stroke="black" stroke-width="1" />
<path d="M18.42056335383397,-35.91857611757808 L21.051506604088,-38.195895024591685 L22.853898437084215,-38.61926696166449" fill="yellow" fill-opacity="0.6" stroke="black" stroke-width="1" />
<path d="M18.42056335383397,35.91857611757808 L21.051506604088,38.195895024591685 L22.853898437084215,38.61926696166449" fill="blue" fill-opacity="0.6" stroke="black" stroke-width="1" />
<path d="M18.42056335383397,64.08142388242192 L21.051506604088,61.804104975408315 L22.853898437084215,61.38073303833551" fill="green" fill-opacity="0.6" stroke="black" stroke-width="1" />
<path d="M18.42056335383397,-64.08142388242192 L21.051506604088,-61.804104975408315 L22.853898437084215,-61.38073303833551" fill="blue" fill-opacity="0.6" stroke="black" stroke-width="1" />
<path d="M21.051506604088,-38.195895024591685 L22.853898437084215,-38.61926696166449 L24.59926841838084,-39.18339532950543" fill="brown" fill-opacity="0.6" stroke="black" stroke-width="1" />
<path d="M21.051506604088,38.195895024591685 L22.853898437084215,38.61926696166449 L24.59926841838084,39.18339532950543" fill="orange" fill-opacity="0.6" stroke="black" stroke-width="1" />
<path d="M21.051506604088,61.804104975408315 L22.853898437084215,61.38073303833551 L24.59926841838084,60.81660467049457" fill="blue" fill-opacity="0.6" stroke="black" stroke-width="1" />
<path d="M21.051506604088,-61.804104975408315 L22.853898437084215,-61.38073303833551 L24.59926841838084,-60.81660467049457" fill="yellow" fill-opacity="0.6" stroke="black" stroke-width="1" />
<path d="M22.853898437084215,-38.61926696166449 L24.59926841838084,-39.18339532950543 L26.916069331992905,-44.90308026369135" fill="red" fill-opacity="0.6" stroke="black" stroke-width="1" />
<path d="M22.853898437084215,38.61926696166449 L24.59926841838084,39.18339532950543 L26.916069331992905,44.90308026369135" fill="yellow" fill-opacity="0.6" stroke="black" stroke-width="1" />
<path d="M22.853898437084215,61.38073303833551 L24.59926841838084,60.81660467049457 L26.916069331992905,55.09691973630865" fill="pink" fill-opacity="0.6" stroke="black" stroke-width="1" />
<path d="M22.853898437084215,-61.38073303833551 L24.59926841838084,-60.81660467049457 L26.916069331992905,-55.09691973630865" fill="black" fill-opacity="0.6" stroke="black" stroke-width="1" />
<path d="M24.59926841838084,-39.18339532950543 L26.916069331992905,-44.90308026369135 L27.843148248231138,-48.04418203229686" fill="green" fill-opacity="0.6" stroke="black" stroke-width="1" />
<path d="M24.59926841838084,39.18339532950543 L26.916069331992905,44.90308026369135 L27.843148248231138,48.04418203229686" fill="black" fill-opacity="0.6" stroke="black" stroke-width="1" />
<path d="M24.59926841838084,60.81660467049457 L26.916069331992905,55.09691973630865 L27.843148248231138,51.95581796770314" fill="red" fill-opacity="0.6" stroke="black" stroke-width="1" />
<path d="M24.59926841838084,-60.81660467049457 L26.916069331992905,-55.09691973630865 L27.843148248231138,-51.95581796770314" fill="purple" fill-opacity="0.6" stroke="black" stroke-width="1" />
<path d="M26.916069331992905,-44.90308026369135 L27.843148248231138,-48.04418203229686 L38.0,-50.0" fill="black" fill-opacity="0.6" stroke="black" stroke-width="1" />
<path d="M26.916069331992905,44.90308026369135 L27.843148248231138,48.04418203229686 L38.0,50.0" fill="black" fill-opacity="0.6" stroke="black" stroke-width="1" />
<path d="M26.916069331992905,55.09691973630865 L27.843148248231138,51.95581796770314 L38.0,50.0" fill="blue" fill-opacity="0.6" stroke="black" stroke-width="1" />
<path d="M26.916069331992905,-55.09691973630865 L27.843148248231138,-51.95581796770314 L38.0,-50.0" fill="yellow" fill-opacity="0.6" stroke="black" stroke-width="1" />
<path d="M8.0,-8.0 L1.7890375586763485,-5.730101539786897 L0.732298356873792,-4.070771260969019" fill="yellow" fill-opacity="0.6" stroke="black" stroke-width="1" />
<path d="M8.0,8.0 L1.7890375586763485,5.730101539786897 L0.732298356873792,4.070771260969019" fill="purple" fill-opacity="0.6" stroke="black" stroke-width="1" />
<path d="M8.0,92.0 L1.7890375586763485,94.2698984602131 L0.732298356873792,95.92922873903098" fill="orange" fill-opacity="0.6" stroke="black" stroke-width="1" />
<path d="M8.0,-92.0 L1.7890375586763485,-94.2698984602131 L0.732298356873792,-95.92922873903098" fill="blue" fill-opacity="0.6" stroke="black" stroke-width="1" />
<path d="M1.7890375586763485,-5.730101539786897 L0.732298356873792,-4.070771260969019 L0.2818966774217002,-3.1909240885873604" fill="purple" fill-opacity="0.6" stroke="black" stroke-width="1" />
<path d="M1.7890375586763485,5.730101539786897 L0.732298356873792,4.070771260969019 L0.2818966774217002,3.1909240885873604" fill="brown" fill-opacity="0.6" stroke="black" stroke-width="1" />
<path d="M1.7890375586763485,94.2698984602131 L0.732298356873792,95.92922873903098 L0.2818966774217002,96.80907591141263" fill="brown" fill-opacity="0.6" stroke="black" stroke-width="1" />
<path d="M1.7890375586763485,-94.2698984602131 L0.732298356873792,-95.92922873903098 L0.2818966774217002,-96.80907591141263" fill="pink" fill-opacity="0.6" stroke="black" stroke-width="1" />
<path d="M0.732298356873792,-4.070771260969019 L0.2818966774217002,-3.1909240885873604 L0.0,-0.0" fill="pink" fill-opacity="0.6" stroke="black" stroke-width="1" />
<path d="M0.732298356873792,4.070771260969019 L0.2818966774217002,3.1909240885873604 L0.0,-0.0" fill="brown" fill-opacity="0.6" stroke="black" stroke-width="1" />
<path d="M0.732298356873792,95.92922873903098 L0.2818966774217002,96.80907591141263 L0.0,100.0" fill="purple" fill-opacity="0.6" stroke="black" stroke-width="1" />
<path d="M0.732298356873792,-95.92922873903098 L0.2818966774217002,-96.80907591141263 L0.0,-100.0" fill="yellow" fill-opacity="0.6" stroke="black" stroke-width="1" />
<path d="M0.0,90.0 L-2.239335915029892,88.76573457187132 L-2.4487855509071457,84.89260644216165" fill="black" fill-opacity="0.6" stroke="black" stroke-width="1" />
<path d="M0.0,-10.0 L-2.239335915029892,-11.234265428128676 L-2.4487855509071457,-15.107393557838344" fill="blue" fill-opacity="0.6" stroke="black" stroke-width="1" />
<path d="M0.0,10.0 L-2.239335915029892,11.23426542812868 L-2.4487855509071457,15.10739355783835" fill="orange" fill-opacity="0.6" stroke="black" stroke-width="1" />
<path d="M0.0,-90.0 L-2.239335915029892,-88.76573457187132 L-2.4487855509071457,-84.89260644216165" fill="purple" fill-opacity="0.6" stroke="black" stroke-width="1" />
<path d="M-2.239335915029892,88.76573457187132 L-2.4487855509071457,84.89260644216165 L-4.913254092038876,84.83359963810264" fill="black" fill-opacity="0.6" stroke="black" stroke-width="1" />
<path d="M-2.239335915029892,-11.234265428128676 L-2.4487855509071457,-15.107393557838344 L-4.913254092038876,-15.166400361897365" fill="yellow" fill-opacity="0.6" stroke="black" stroke-width="1" />
<path d="M-2.239335915029892,11.23426542812868 L-2.4487855509071457,15.10739355783835 L-4.913254092038876,15.16640036189736" fill="purple" fill-opacity="0.6" stroke="black" stroke-width="1" />
<path d="M-2.239335915029892,-88.76573457187132 L-2.4487855509071457,-84.89260644216165 L-4.913254092038876,-84.83359963810264" fill="purple" fill-opacity="0.6" stroke="black" stroke-width="1" />
<path d="M-2.4487855509071457,84.89260644216165 L-4.913254092038876,84.83359963810264 L-5.116148448820327,78.90194017651359" fill="blue" fill-opacity="0.6" stroke="black" stroke-width="1" />
<path d="M-2.4487855509071457,-15.107393557838344 L-4.913254092038876,-15.166400361897365 L-5.116148448820327,-21.09805982348641" fill="pink" fill-opacity="0.6" stroke="black" stroke-width="1" />
<path d="M-2.4487855509071457,15.10739355783835 L-4.913254092038876,15.16640036189736 L-5.116148448820327,21.09805982348641" fill="yellow" fill-opacity="0.6" stroke="black" stroke-width="1" />
<path d="M-2.4487855509071457,-84.89260644216165 L-4.913254092038876,-84.83359963810264 L-5.116148448820327,-78.90194017651359" fill="brown" fill-opacity="0.6" stroke="black" stroke-width="1" />
<path d="M-4.913254092038876,84.83359963810264 L-5.116148448820327,78.90194017651359 L-5.710509345799072,78.18153540602654" fill="orange" fill-opacity="0.6" stroke="black" stroke-width="1" />
<path d="M-4.913254092038876,-15.166400361897365 L-5.116148448820327,-21.09805982348641 L-5.710509345799072,-21.81846459397346" fill="blue" fill-opacity="0.6" stroke="black" stroke-width="1" />
<path d="M-4.913254092038876,15.16640036189736 L-5.116148448820327,21.09805982348641 L-5.710509345799072,21.81846459397346" fill="pink" fill-opacity="0.6" stroke="black" stroke-width="1" />
<path d="M-4.913254092038876,-84.83359963810264 L-5.116148448820327,-78.90194017651359 L-5.710509345799072,-78.18153540602654" fill="yellow" fill-opacity="0.6" stroke="black" stroke-width="1" />
<path d="M-5.116148448820327,78.90194017651359 L-5.710509345799072,78.18153540602654 L0.0,78.0" fill="pink" fill-opacity="0.6" stroke="black" stroke-width="1" />
<path d="M-5.116148448820327,-21.09805982348641 L-5.710509345799072,-21.81846459397346 L0.0,-22.0" fill="red" fill-opacity="0.6" stroke="black" stroke-width="1" />
<path d="M-5.116148448820327,21.09805982348641 L-5.710509345799072,21.81846459397346 L0.0,22.0" fill="orange" fill-opacity="0.6" stroke="black" stroke-width="1" />
<path d="M-5.116148448820327,-78.90194017651359 L-5.710509345799072,-78.18153540602654 L0.0,-78.0" fill="blue" fill-opacity="0.6" stroke="black" stroke-width="1" />
<path d="M0.0,77.0 L-6.851349415486127,74.9585727865666 L-8.628931886837016,74.39517814241333" fill="yellow" fill-opacity="0.6" stroke="black" stroke-width="1" />
<path d="M0.0,-23.0 L-6.851349415486127,-25.041427213433387 L-8.628931886837016,-25.60482185758667" fill="brown" fill-opacity="0.6" stroke="black" stroke-width="1" />
<path d="M0.0,23.0 L-6.851349415486127,25.041427213433394 L-8.628931886837016,25.60482185758667" fill="blue" fill-opacity="0.6" stroke="black" stroke-width="1" />
<path d="M0.0,-77.0 L-6.851349415486127,-74.9585727865666 L-8.628931886837016,-74.39517814241333" fill="black" fill-opacity="0.6" stroke="black" stroke-width="1" />
<path d="M-6.851349415486127,74.9585727865666 L-8.628931886837016,74.39517814241333 L-10.261366270444292,71.57693261596687" fill="purple" fill-opacity="0.6" stroke="black" stroke-width="1" />
<path d="M-6.851349415486127,-25.041427213433387 L-8.628931886837016,-25.60482185758667 L-10.261366270444292,-28.423067384033132" fill="green" fill-opacity="0.6" stroke="black" stroke-width="1" />
<path d="M-6.851349415486127,25.041427213433394 L-8.628931886837016,25.60482185758667 L-10.261366270444292,28.423067384033132" fill="purple" fill-opacity="0.6" stroke="black" stroke-width="1" />
<path d="M-6.851349415486127,-74.9585727865666 L-8.628931886837016,-74.39517814241333 L-10.261366270444292,-71.57693261596687" fill="yellow" fill-opacity="0.6" stroke="black" stroke-width="1" />
<path d="M-8.628931886837016,74.39517814241333 L-10.261366270444292,71.57693261596687 L-11.50731317038263,70.56831063208641" fill="orange" fill-opacity="0.6" stroke="black" stroke-width="1" />
<path d="M-8.628931886837016,-25.60482185758667 L-10.261366270444292,-28.423067384033132 L-11.50731317038263,-29.43168936791359" fill="red" fill-opacity="0.6" stroke="black" stroke-width="1" />
<path d="M-8.628931886837016,25.60482185758667 L-10.261366270444292,28.423067384033132 L-11.50731317038263,29.43168936791359" fill="black" fill-opacity="0.6" stroke="black" stroke-width="1" />
<path d="M-8.628931886837016,-74.39517814241333 L-10.261366270444292,-71.57693261596687 L-11.50731317038263,-70.56831063208641" fill="green" fill-opacity="0.6" stroke="black" stroke-width="1" />
<path d="M-10.261366270444292,71.57693261596687 L-11.50731317038263,70.56831063208641 L-12.543485745362323,70.28875149805378" fill="orange" fill-opacity="0.6" stroke="black" stroke-width="1" />
<path d="M-10.261366270444292,-28.423067384033132 L-11.50731317038263,-29.43168936791359 L-12.543485745362323,-29.71124850194622" fill="yellow" fill-opacity="0.6" stroke="black" stroke-width="1" />
<path d="M-10.261366270444292,28.423067384033132 L-11.50731317038263,29.43168936791359 L-12.543485745362323,29.711248501946216" fill="brown" fill-opacity="0.6" stroke="black" stroke-width="1" />
<path d="M-10.261366270444292,-71.57693261596687 L-11.50731317038263,-70.56831063208641 L-12.543485745362323,-70.28875149805378" fill="yellow" fill-opacity="0.6" stroke="black" stroke-width="1" />
<path d="M-11.50731317038263,70.56831063208641 L-12.543485745362323,70.28875149805378 L-16.227125397246294,69.77265910850798" fill="orange" fill-opacity="0.6" stroke="black" stroke-width="1" />
<path d="M-11.50731317038263,-29.43168936791359 L-12.543485745362323,-29.71124850194622 L-16.227125397246294,-30.227340891492023" fill="green" fill-opacity="0.6" stroke="black" stroke-width="1" />
<path d="M-11.50731317038263,29.43168936791359 L-12.543485745362323,29.711248501946216 L-16.227125397246294,30.22734089149202" fill="blue" fill-opacity="0.6" stroke="black" stroke-width="1" />
<path d="M-11.50731317038263,-70.56831063208641 L-12.543485745362323,-70.28875149805378 L-16.227125397246294,-69.77265910850798" fill="green" fill-opacity="0.6" stroke="black" stroke-width="1" />
<path d="M-12.543485745362323,70.28875149805378 L-16.227125397246294,69.77265910850798 L0.0,60.0" fill="pink" fill-opacity="0.6" stroke="black" stroke-width="1" />
<path d="M-12.543485745362323,-29.71124850194622 L-16.227125397246294,-30.227340891492023 L0.0,-40.0" fill="green" fill-opacity="0.6" stroke="black" stroke-width="1" />
<path d="M-12.543485745362323,29.711248501946216 L-16.227125397246294,30.22734089149202 L0.0,40.0" fill="yellow" fill-opacity="0.6" stroke="black" stroke-width="1" />
<path d="M-12.543485745362323,-70.28875149805378 L-16.227125397246294,-69.77265910850798 L0.0,-60.0" fill="blue" fill-opacity="0.6" stroke="black" stroke-width="1" />
<path d="M-15.0,50.0 L-18.42056335383397,64.08142388242192 L-21.051506604088,61.804104975408315" fill="purple" fill-opacity="0.6" stroke="black" stroke-width="1" />
<path d="M-15.0,-50.0 L-18.42056335383397,-35.91857611757808 L-21.051506604088,-38.195895024591685" fill="brown" fill-opacity="0.6" stroke="black" stroke-width="1" />
<path d="M-15.0,50.0 L-18.42056335383397,35.918576117578084 L-21.051506604088,38.195895024591685" fill="red" fill-opacity="0.6" stroke="black" stroke-width="1" />
<path d="M-15.0,-50.0 L-18.42056335383397,-64.08142388242192 L-21.051506604088,-61.804104975408315" fill="purple" fill-opacity="0.6" stroke="black" stroke-width="1" />
<path d="M-18.42056335383397,64.08142388242192 L-21.051506604088,61.804104975408315 L-22.853898437084215,61.38073303833551" fill="pink" fill-opacity="0.6" stroke="black" stroke-width="1" />
<path d="M-18.42056335383397,-35.91857611757808 L-21.051506604088,-38.195895024591685 L-22.853898437084215,-38.61926696166449" fill="blue" fill-opacity="0.6" stroke="black" stroke-width="1" />
<path d="M-18.42056335383397,35.918576117578084 L-21.051506604088,38.195895024591685 L-22.853898437084215,38.61926696166449" fill="brown" fill-opacity="0.6" stroke="black" stroke-width="1" />
<path d="M-18.42056335383397,-64.08142388242192 L-21.051506604088,-61.804104975408315 L-22.853898437084215,-61.38073303833551" fill="yellow" fill-opacity="0.6" stroke="black" stroke-width="1" />
<path d="M-21.051506604088,61.804104975408315 L-22.853898437084215,61.38073303833551 L-24.59926841838084,60.81660467049457" fill="orange" fill-opacity="0.6" stroke="black" stroke-width="1" />
<path d="M-21.051506604088,-38.195895024591685 L-22.853898437084215,-38.61926696166449 L-24.59926841838084,-39.18339532950543" fill="red" fill-opacity="0.6" stroke="black" stroke-width="1" />
<path d="M-21.051506604088,38.195895024591685 L-22.853898437084215,38.61926696166449 L-24.59926841838084,39.18339532950543" fill="purple" fill-opacity="0.6" stroke="black" stroke-width="1" />
<path d="M-21.051506604088,-61.804104975408315 L-22.853898437084215,-61.38073303833551 L-24.59926841838084,-60.81660467049457" fill="red" fill-opacity="0.6" stroke="black" stroke-width="1" />
<path d="M-22.853898437084215,61.38073303833551 L-24.59926841838084,60.81660467049457 L-26.916069331992905,55.09691973630865" fill="brown" fill-opacity="0.6" stroke="black" stroke-width="1" />
<path d="M-22.853898437084215,-38.61926696166449 L-24.59926841838084,-39.18339532950543 L-26.916069331992905,-44.90308026369135" fill="pink" fill-opacity="0.6" stroke="black" stroke-width="1" />
<path d="M-22.853898437084215,38.61926696166449 L-24.59926841838084,39.18339532950543 L-26.916069331992905,44.90308026369135" fill="green" fill-opacity="0.6" stroke="black" stroke-width="1" />
<path d="M-22.853898437084215,-61.38073303833551 L-24.59926841838084,-60.81660467049457 L-26.916069331992905,-55.09691973630865" fill="brown" fill-opacity="0.6" stroke="black" stroke-width="1" />
<path d="M-24.59926841838084,60.81660467049457 L-26.916069331992905,55.09691973630865 L-27.843148248231138,51.95581796770314" fill="black" fill-opacity="0.6" stroke="black" stroke-width="1" />
<path d="M-24.59926841838084,-39.18339532950543 L-26.916069331992905,-44.90308026369135 L-27.843148248231138,-48.04418203229686" fill="yellow" fill-opacity="0.6" stroke="black" stroke-width="1" />
<path d="M-24.59926841838084,39.18339532950543 L-26.916069331992905,44.90308026369135 L-27.843148248231138,48.04418203229686" fill="blue" fill-opacity="0.6" stroke="black" stroke-width="1" />
<path d="M-24.59926841838084,-60.81660467049457 L-26.916069331992905,-55.09691973630865 L-27.843148248231138,-51.95581796770314" fill="purple" fill-opacity="0.6" stroke="black" stroke-width="1" />
<path d="M-26.916069331992905,55.09691973630865 L-27.843148248231138,51.95581796770314 L-38.0,50.0" fill="pink" fill-opacity="0.6" stroke="black" stroke-width="1" />
<path d="M-26.916069331992905,-44.90308026369135 L-27.843148248231138,-48.04418203229686 L-38.0,-50.0" fill="orange" fill-opacity="0.6" stroke="black" stroke-width="1" />
<path d="M-26.916069331992905,44.90308026369135 L-27.843148248231138,48.04418203229686 L-38.0,50.0" fill="brown" fill-opacity="0.6" stroke="black" stroke-width="1" />
<path d="M-26.916069331992905,-55.09691973630865 L-27.843148248231138,-51.95581796770314 L-38.0,-50.0" fill="pink" fill-opacity="0.6" stroke="black" stroke-width="1" />
<path d="M-8.0,92.0 L-1.7890375586763485,94.2698984602131 L-0.732298356873792,95.92922873903098" fill="brown" fill-opacity="0.6" stroke="black" stroke-width="1" />
<path d="M-8.0,-8.0 L-1.7890375586763485,-5.730101539786897 L-0.732298356873792,-4.070771260969019" fill="red" fill-opacity="0.6" stroke="black" stroke-width="1" />
<path d="M-8.0,8.0 L-1.7890375586763485,5.730101539786901 L-0.732298356873792,4.070771260969025" fill="blue" fill-opacity="0.6" stroke="black" stroke-width="1" />
<path d="M-8.0,-92.0 L-1.7890375586763485,-94.2698984602131 L-0.732298356873792,-95.92922873903098" fill="yellow" fill-opacity="0.6" stroke="black" stroke-width="1" />
<path d="M-1.7890375586763485,94.2698984602131 L-0.732298356873792,95.92922873903098 L-0.2818966774217002,96.80907591141263" fill="orange" fill-opacity="0.6" stroke="black" stroke-width="1" />
<path d="M-1.7890375586763485,-5.730101539786897 L-0.732298356873792,-4.070771260969019 L-0.2818966774217002,-3.1909240885873604" fill="purple" fill-opacity="0.6" stroke="black" stroke-width="1" />
<path d="M-1.7890375586763485,5.730101539786901 L-0.732298356873792,4.070771260969025 L-0.2818966774217002,3.1909240885873658" fill="pink" fill-opacity="0.6" stroke="black" stroke-width="1" />
<path d="M-1.7890375586763485,-94.2698984602131 L-0.732298356873792,-95.92922873903098 L-0.2818966774217002,-96.80907591141263" fill="black" fill-opacity="0.6" stroke="black" stroke-width="1" />
<path d="M-0.732298356873792,95.92922873903098 L-0.2818966774217002,96.80907591141263 L0.0,100.0" fill="orange" fill-opacity="0.6" stroke="black" stroke-width="1" />
<path d="M-0.732298356873792,-4.070771260969019 L-0.2818966774217002,-3.1909240885873604 L0.0,-0.0" fill="black" fill-opacity="0.6" stroke="black" stroke-width="1" />
<path d="M-0.732298356873792,4.070771260969025 L-0.2818966774217002,3.1909240885873658 L0.0,-0.0" fill="pink" fill-opacity="0.6" stroke="black" stroke-width="1" />
<path d="M-0.732298356873792,-95.92922873903098 L-0.2818966774217002,-96.80907591141263 L0.0,-100.0" fill="brown" fill-opacity="0.6" stroke="black" stroke-width="1" />
<path d="M-90.0,-0.0 L-88.76573457187132,-2.239335915029892 L-84.89260644216165,-2.4487855509071457" fill="blue" fill-opacity="0.6" stroke="black" stroke-width="1" />
<path d="M-90.0,-0.0 L-88.76573457187132,2.239335915029892 L-84.89260644216165,2.4487855509071457" fill="green" fill-opacity="0.6" stroke="black" stroke-width="1" />
<path d="M-88.76573457187132,-2.239335915029892 L-84.89260644216165,-2.4487855509071457 L-84.83359963810264,-4.913254092038876" fill="red" fill-opacity="0.6" stroke="black" stroke-width="1" />
<path d="M-88.76573457187132,2.239335915029892 L-84.89260644216165,2.4487855509071457 L-84.83359963810264,4.913254092038876" fill="purple" fill-opacity="0.6" stroke="black" stroke-width="1" />
<path d="M-84.89260644216165,-2.4487855509071457 L-84.83359963810264,-4.913254092038876 L-78.90194017651359,-5.116148448820327" fill="purple" fill-opacity="0.6" stroke="black" stroke-width="1" />
<path d="M-84.89260644216165,2.4487855509071457 L-84.83359963810264,4.913254092038876 L-78.90194017651359,5.116148448820327" fill="black" fill-opacity="0.6" stroke="black" stroke-width="1" />
<path d="M-84.83359963810264,-4.913254092038876 L-78.90194017651359,-5.116148448820327 L-78.18153540602654,-5.710509345799072" fill="yellow" fill-opacity="0.6" stroke="black" stroke-width="1" />
<path d="M-84.83359963810264,4.913254092038876 L-78.90194017651359,5.116148448820327 L-78.18153540602654,5.710509345799072" fill="purple" fill-opacity="0.6" stroke="black" stroke-width="1" />
<path d="M-78.90194017651359,-5.116148448820327 L-78.18153540602654,-5.710509345799072 L-78.0,-0.0" fill="blue" fill-opacity="0.6" stroke="black" stroke-width="1" />
<path d="M-78.90194017651359,5.116148448820327 L-78.18153540602654,5.710509345799072 L-78.0,-0.0" fill="black" fill-opacity="0.6" stroke="black" stroke-width="1" />
<path d="M-70.0,-30.0 L-77.0,-23.0 L-79.0,-21.0" fill="brown" fill-opacity="0.6" stroke="black" stroke-width="1" />
<path d="M-70.0,30.0 L-77.0,23.0 L-79.0,21.0" fill="purple" fill-opacity="0.6" stroke="black" stroke-width="1" />
<path d="M-77.0,-0.0 L-74.9585727865666,-6.851349415486127 L-74.39517814241333,-8.628931886837016" fill="purple" fill-opacity="0.6" stroke="black" stroke-width="1" />
<path d="M-77.0,-0.0 L-74.9585727865666,6.851349415486127 L-74.39517814241333,8.628931886837016" fill="purple" fill-opacity="0.6" stroke="black" stroke-width="1" />
<path d="M-74.9585727865666,-6.851349415486127 L-74.39517814241333,-8.628931886837016 L-71.57693261596687,-10.261366270444292" fill="brown" fill-opacity="0.6" stroke="black" stroke-width="1" />
<path d="M-74.9585727865666,6.851349415486127 L-74.39517814241333,8.628931886837016 L-71.57693261596687,10.261366270444292" fill="pink" fill-opacity="0.6" stroke="black" stroke-width="1" />
<path d="M-74.39517814241333,-8.628931886837016 L-71.57693261596687,-10.261366270444292 L-70.56831063208641,-11.50731317038263" fill="purple" fill-opacity="0.6" stroke="black" stroke-width="1" />
<path d="M-74.39517814241333,8.628931886837016 L-71.57693261596687,10.261366270444292 L-70.56831063208641,11.50731317038263" fill="yellow" fill-opacity="0.6" stroke="black" stroke-width="1" />
<path d="M-71.57693261596687,-10.261366270444292 L-70.56831063208641,-11.50731317038263 L-70.28875149805378,-12.543485745362323" fill="brown" fill-opacity="0.6" stroke="black" stroke-width="1" />
<path d="M-71.57693261596687,10.261366270444292 L-70.56831063208641,11.50731317038263 L-70.28875149805378,12.543485745362323" fill="orange" fill-opacity="0.6" stroke="black" stroke-width="1" />
<path d="M-70.56831063208641,-11.50731317038263 L-70.28875149805378,-12.543485745362323 L-69.77265910850798,-16.227125397246294" fill="purple" fill-opacity="0.6" stroke="black" stroke-width="1" />
<path d="M-70.56831063208641,11.50731317038263 L-70.28875149805378,12.543485745362323 L-69.77265910850798,16.227125397246294" fill="blue" fill-opacity="0.6" stroke="black" stroke-width="1" />
<path d="M-70.28875149805378,-12.543485745362323 L-69.77265910850798,-16.227125397246294 L-60.0,-0.0" fill="pink" fill-opacity="0.6" stroke="black" stroke-width="1" />
<path d="M-70.28875149805378,12.543485745362323 L-69.77265910850798,16.227125397246294 L-60.0,-0.0" fill="green" fill-opacity="0.6" stroke="black" stroke-width="1" />
<path d="M-52.0,-48.0 L-60.0,-40.0 L-70.0,-30.0" fill="black" fill-opacity="0.6" stroke="black" stroke-width="1" />
<path d="M-52.0,48.0 L-60.0,40.0 L-70.0,30.0" fill="brown" fill-opacity="0.6" stroke="black" stroke-width="1" />
<path d="M-50.0,-15.0 L-64.08142388242192,-18.42056335383397 L-61.804104975408315,-21.051506604088" fill="black" fill-opacity="0.6" stroke="black" stroke-width="1" />
<path d="M-50.0,15.0 L-64.08142388242192,18.42056335383397 L-61.804104975408315,21.051506604088" fill="orange" fill-opacity="0.6" stroke="black" stroke-width="1" />
<path d="M-64.08142388242192,-18.42056335383397 L-61.804104975408315,-21.051506604088 L-61.38073303833551,-22.853898437084215" fill="black" fill-opacity="0.6" stroke="black" stroke-width="1" />
<path d="M-64.08142388242192,18.42056335383397 L-61.804104975408315,21.051506604088 L-61.38073303833551,22.853898437084215" fill="brown" fill-opacity="0.6" stroke="black" stroke-width="1" />
<path d="M-61.804104975408315,-21.051506604088 L-61.38073303833551,-22.853898437084215 L-60.81660467049457,-24.59926841838084" fill="red" fill-opacity="0.6" stroke="black" stroke-width="1" />
<path d="M-61.804104975408315,21.051506604088 L-61.38073303833551,22.853898437084215 L-60.81660467049457,24.59926841838084" fill="yellow" fill-opacity="0.6" stroke="black" stroke-width="1" />
<path d="M-61.38073303833551,-22.853898437084215 L-60.81660467049457,-24.59926841838084 L-55.09691973630865,-26.916069331992905" fill="red" fill-opacity="0.6" stroke="black" stroke-width="1" />
<path d="M-61.38073303833551,22.853898437084215 L-60.81660467049457,24.59926841838084 L-55.09691973630865,26.916069331992905" fill="blue" fill-opacity="0.6" stroke="black" stroke-width="1" />
<path d="M-60.81660467049457,-24.59926841838084 L-55.09691973630865,-26.916069331992905 L-51.95581796770314,-27.843148248231138" fill="purple" fill-opacity="0.6" stroke="black" stroke-width="1" />
<path d="M-60.81660467049457,24.59926841838084 L-55.09691973630865,26.916069331992905 L-51.95581796770314,27.843148248231138" fill="yellow" fill-opacity="0.6" stroke="black" stroke-width="1" />
<path d="M-55.09691973630865,-26.916069331992905 L-51.95581796770314,-27.843148248231138 L-50.0,-38.0" fill="orange" fill-opacity="0.6" stroke="black" stroke-width="1" />
<path d="M-55.09691973630865,26.916069331992905 L-51.95581796770314,27.843148248231138 L-50.0,38.0" fill="pink" fill-opacity="0.6" stroke="black" stroke-width="1" />
<path d="M-50.0,-42.0 L-52.0,-48.0 L-60.0,-40.0" fill="purple" fill-opacity="0.6" stroke="black" stroke-width="1" />
<path d="M-50.0,42.0 L-52.0,48.0 L-60.0,40.0" fill="purple" fill-opacity="0.6" stroke="black" stroke-width="1" />
<path d="M-60.0,-40.0 L-70.0,-30.0 L-77.0,-23.0" fill="blue" fill-opacity="0.6" stroke="black" stroke-width="1" />
<path d="M-60.0,40.0 L-70.0,30.0 L-77.0,23.0" fill="yellow" fill-opacity="0.6" stroke="black" stroke-width="1" />
<path d="M-77.0,-23.0 L-79.0,-21.0 L-80.0,-20.0" fill="pink" fill-opacity="0.6" stroke="black" stroke-width="1" />
<path d="M-77.0,23.0 L-79.0,21.0 L-80.0,20.0" fill="purple" fill-opacity="0.6" stroke="black" stroke-width="1" />
<path d="M-79.0,-21.0 L-80.0,-20.0 L-83.0,-17.0" fill="yellow" fill-opacity="0.6" stroke="black" stroke-width="1" />
<path d="M-79.0,21.0 L-80.0,20.0 L-83.0,17.0" fill="orange" fill-opacity="0.6" stroke="black" stroke-width="1" />
<path d="M-80.0,-20.0 L-83.0,-17.0 L-92.0,-8.0" fill="orange" fill-opacity="0.6" stroke="black" stroke-width="1" />
<path d="M-80.0,20.0 L-83.0,17.0 L-92.0,8.0" fill="pink" fill-opacity="0.6" stroke="black" stroke-width="1" />
<path d="M-83.0,-17.0 L-92.0,-8.0 L-94.2698984602131,-1.7890375586763485" fill="black" fill-opacity="0.6" stroke="black" stroke-width="1" />
<path d="M-83.0,17.0 L-92.0,8.0 L-94.2698984602131,1.7890375586763485" fill="purple" fill-opacity="0.6" stroke="black" stroke-width="1" />
<path d="M-92.0,-8.0 L-94.2698984602131,-1.7890375586763485 L-95.92922873903098,-0.732298356873792" fill="red" fill-opacity="0.6" stroke="black" stroke-width="1" />
<path d="M-92.0,8.0 L-94.2698984602131,1.7890375586763485 L-95.92922873903098,0.732298356873792" fill="red" fill-opacity="0.6" stroke="black" stroke-width="1" />
<path d="M-94.2698984602131,-1.7890375586763485 L-95.92922873903098,-0.732298356873792 L-96.80907591141263,-0.2818966774217002" fill="red" fill-opacity="0.6" stroke="black" stroke-width="1" />
<path d="M-94.2698984602131,1.7890375586763485 L-95.92922873903098,0.732298356873792 L-96.80907591141263,0.2818966774217002" fill="red" fill-opacity="0.6" stroke="black" stroke-width="1" />
<path d="M-95.92922873903098,-0.732298356873792 L-96.80907591141263,-0.2818966774217002 L-100.0,-0.0" fill="black" fill-opacity="0.6" stroke="black" stroke-width="1" />
<path d="M-95.92922873903098,0.732298356873792 L-96.80907591141263,0.2818966774217002 L-100.0,-0.0" fill="purple" fill-opacity="0.6" stroke="black" stroke-width="1" />
</svg>