<?xml version="1.0" encoding="UTF-8"?>
<svg xmlns="http://www.w3.org/2000/svg" xmlns:xlink="http://www.w3.org/1999/xlink"
     width="250" height="250" viewBox="-125.0 -125.0 250 250">
<defs>
</defs>
<path d="M18.0,-0.0 L19.99891931642394,-6.4965047987168205 L24.009081618741423,-6.862377052148999" fill-opacity="0" stroke="black" stroke-width="1" />
<path d="M18.0,-0.0 L19.99891931642394,6.4965047987168205 L24.009081618741423,6.862377052148999" fill-opacity="0" stroke="black" stroke-width="1" />
<path d="M19.99891931642394,-6.4965047987168205 L24.009081618741423,-6.862377052148999 L28.538176158721395,-18.105917027213565" fill-opacity="0" stroke="black" stroke-width="1" />
<path d="M19.99891931642394,6.4965047987168205 L24.009081618741423,6.862377052148999 L28.538176158721395,18.105917027213565" fill-opacity="0" stroke="black" stroke-width="1" />
<path d="M24.009081618741423,-6.862377052148999 L28.538176158721395,-18.105917027213565 L50.0,-0.0" fill-opacity="0" stroke="black" stroke-width="1" />
<path d="M24.009081618741423,6.862377052148999 L28.538176158721395,18.105917027213565 L50.0,-0.0" fill-opacity="0" stroke="black" stroke-width="1" />
<path d="M50.0,-22.0 L47.49825058255667,-35.33763674445976 L50.0,-39.0" fill-opacity="0" stroke="black" stroke-width="1" />
<path d="M50.0,22.0 L47.49825058255667,35.33763674445976 L50.0,39.0" fill-opacity="0" stroke="black" stroke-width="1" />
<path d="M50.0,-50.0 L47.95162293685805,-45.77922993861064 L39.0,-39.0" fill-opacity="0" stroke="black" stroke-width="1" />
<path d="M50.0,50.0 L47.95162293685805,45.77922993861064 L39.0,39.0" fill-opacity="0" stroke="black" stroke-width="1" />
<path d="M45.77922993861064,52.04837706314195 L39.0,61.0 L33.47277549679118,63.77513104474383" fill-opacity="0" stroke="black" stroke-width="1" />
<path d="M45.77922993861064,-52.04837706314195 L39.0,-61.0 L33.47277549679118,-63.77513104474383" fill-opacity="0" stroke="black" stroke-width="1" />
<path d="M39.0,-39.0 L36.22486895525617,-33.47277549679118 L35.09494601315965,-28.44789358728535" fill-opacity="0" stroke="black" stroke-width="1" />
<path d="M39.0,39.0 L36.22486895525617,33.47277549679118 L35.09494601315965,28.44789358728535" fill-opacity="0" stroke="black" stroke-width="1" />
<path d="M36.22486895525617,-33.47277549679118 L35.09494601315965,-28.44789358728535 L33.0,-33.0" fill-opacity="0" stroke="black" stroke-width="1" />
<path d="M36.22486895525617,33.47277549679118 L35.09494601315965,28.44789358728535 L33.0,33.0" fill-opacity="0" stroke="black" stroke-width="1" />
<path d="M28.44789358728535,64.90505398684036 L33.0,67.0 L25.993634226268636,70.79416555355479" fill-opacity="0" stroke="black" stroke-width="1" />
<path d="M28.44789358728535,-64.90505398684036 L33.0,-67.0 L25.993634226268636,-70.79416555355479" fill-opacity="0" stroke="black" stroke-width="1" />
<path d="M33.0,-33.0 L29.205834446445213,-25.993634226268636 L27.0,-27.0" fill-opacity="0" stroke="black" stroke-width="1" />
<path d="M33.0,33.0 L29.205834446445213,25.993634226268636 L27.0,27.0" fill-opacity="0" stroke="black" stroke-width="1" />
<path d="M25.993634226268636,70.79416555355479 L27.0,73.0 L4.999765933528902,92.22671319076127" fill-opacity="0" stroke="black" stroke-width="1" />
<path d="M25.993634226268636,-70.79416555355479 L27.0,-73.0 L4.999765933528902,-92.22671319076127" fill-opacity="0" stroke="black" stroke-width="1" />
<path d="M27.0,-27.0 L7.773286809238717,-4.999765933528902 L7.511019448600248,-2.413647559568792" fill-opacity="0" stroke="black" stroke-width="1" />
<path d="M27.0,27.0 L7.773286809238717,4.999765933528902 L7.511019448600248,2.413647559568792" fill-opacity="0" stroke="black" stroke-width="1" />
<path d="M7.773286809238717,-4.999765933528902 L7.511019448600248,-2.413647559568792 L6.663718141802832,-1.5016996471594517" fill-opacity="0" stroke="black" stroke-width="1" />
<path d="M7.773286809238717,4.999765933528902 L7.511019448600248,2.413647559568792 L6.663718141802832,1.5016996471594517" fill-opacity="0" stroke="black" stroke-width="1" />
<path d="M7.511019448600248,-2.413647559568792 L6.663718141802832,-1.5016996471594517 L3.305786344457795,-1.4438690718057525" fill-opacity="0" stroke="black" stroke-width="1" />
<path d="M7.511019448600248,2.413647559568792 L6.663718141802832,1.5016996471594517 L3.305786344457795,1.4438690718057525" fill-opacity="0" stroke="black" stroke-width="1" />
<path d="M6.663718141802832,-1.5016996471594517 L3.305786344457795,-1.4438690718057525 L2.6190750013404704,-1.3767101279733893" fill-opacity="0" stroke="black" stroke-width="1" />
<path d="M6.663718141802832,1.5016996471594517 L3.305786344457795,1.4438690718057525 L2.6190750013404704,1.3767101279733893" fill-opacity="0" stroke="black" stroke-width="1" />
<path d="M3.305786344457795,-1.4438690718057525 L2.6190750013404704,-1.3767101279733893 L2.5244159301858806,-1.2071082951958987" fill-opacity="0" stroke="black" stroke-width="1" />
<path d="M3.305786344457795,1.4438690718057525 L2.6190750013404704,1.3767101279733893 L2.5244159301858806,1.2071082951958987" fill-opacity="0" stroke="black" stroke-width="1" />
<path d="M2.6190750013404704,-1.3767101279733893 L2.5244159301858806,-1.2071082951958987 L2.3070785620108114,-0.6896424249523879" fill-opacity="0" stroke="black" stroke-width="1" />
<path d="M2.6190750013404704,1.3767101279733893 L2.5244159301858806,1.2071082951958987 L2.3070785620108114,0.6896424249523879" fill-opacity="0" stroke="black" stroke-width="1" />
<path d="M2.5244159301858806,-1.2071082951958987 L2.3070785620108114,-0.6896424249523879 L0.02640843659101333,-0.00502668863785066" fill-opacity="0" stroke="black" stroke-width="1" />
<path d="M2.5244159301858806,1.2071082951958987 L2.3070785620108114,0.6896424249523879 L0.02640843659101333,0.00502668863785066" fill-opacity="0" stroke="black" stroke-width="1" />
<path d="M2.3070785620108114,-0.6896424249523879 L0.02640843659101333,-0.00502668863785066 L0.0,-0.0" fill-opacity="0" stroke="black" stroke-width="1" />
<path d="M2.3070785620108114,0.6896424249523879 L0.02640843659101333,0.00502668863785066 L0.0,-0.0" fill-opacity="0" stroke="black" stroke-width="1" />
<path d="M-18.0,-0.0 L-19.99891931642394,-6.4965047987168205 L-24.009081618741423,-6.862377052148999" fill-opacity="0" stroke="black" stroke-width="1" />
<path d="M-18.0,-0.0 L-19.99891931642394,6.4965047987168205 L-24.009081618741423,6.862377052148999" fill-opacity="0" stroke="black" stroke-width="1" />
<path d="M-19.99891931642394,-6.4965047987168205 L-24.009081618741423,-6.862377052148999 L-28.538176158721395,-18.105917027213565" fill-opacity="0" stroke="black" stroke-width="1" />
<path d="M-19.99891931642394,6.4965047987168205 L-24.009081618741423,6.862377052148999 L-28.538176158721395,18.105917027213565" fill-opacity="0" stroke="black" stroke-width="1" />
<path d="M-24.009081618741423,-6.862377052148999 L-28.538176158721395,-18.105917027213565 L-50.0,-0.0" fill-opacity="0" stroke="black" stroke-width="1" />
<path d="M-24.009081618741423,6.862377052148999 L-28.538176158721395,18.105917027213565 L-50.0,-0.0" fill-opacity="0" stroke="black" stroke-width="1" />
<path d="M-50.0,-22.0 L-47.49825058255667,-35.33763674445976 L-50.0,-39.0" fill-opacity="0" stroke="black" stroke-width="1" />
<path d="M-50.0,22.0 L-47.49825058255667,35.33763674445976 L-50.0,39.0" fill-opacity="0" stroke="black" stroke-width="1" />
<path d="M-50.0,-50.0 L-47.95162293685805,-45.77922993861064 L-39.0,-39.0" fill-opacity="0" stroke="black" stroke-width="1" />
<path d="M-50.0,50.0 L-47.95162293685805,45.77922993861064 L-39.0,39.0" fill-opacity="0" stroke="black" stroke-width="1" />
<path d="M-45.77922993861064,52.04837706314195 L-39.0,61.0 L-33.47277549679118,63.77513104474383" fill-opacity="0" stroke="black" stroke-width="1" />
<path d="M-45.77922993861064,-52.04837706314195 L-39.0,-61.0 L-33.47277549679118,-63.77513104474383" fill-opacity="0" stroke="black" stroke-width="1" />
<path d="M-39.0,-39.0 L-36.22486895525617,-33.47277549679118 L-35.09494601315965,-28.44789358728535" fill-opacity="0" stroke="black" stroke-width="1" />
<path d="M-39.0,39.0 L-36.22486895525617,33.47277549679118 L-35.09494601315965,28.44789358728535" fill-opacity="0" stroke="black" stroke-width="1" />
<path d="M-36.22486895525617,-33.47277549679118 L-35.09494601315965,-28.44789358728535 L-33.0,-33.0" fill-opacity="0" stroke="black" stroke-width="1" />
<path d="M-36.22486895525617,33.47277549679118 L-35.09494601315965,28.44789358728535 L-33.0,33.0" fill-opacity="0" stroke="black" stroke-width="1" />
<path d="M-28.44789358728535,64.90505398684036 L-33.0,67.0 L-25.993634226268636,70.79416555355479" fill-opacity="0" stroke="black" stroke-width="1" />
<path d="M-28.44789358728535,-64.90505398684036 L-33.0,-67.0 L-25.993634226268636,-70.79416555355479" fill-opacity="0" stroke="black" stroke-width="1" />
<path d="M-33.0,-33.0 L-29.205834446445213,-25.993634226268636 L-27.0,-27.0" fill-opacity="0" stroke="black" stroke-width="1" />
<path d="M-33.0,33.0 L-29.205834446445213,25.993634226268636 L-27.0,27.0" fill-opacity="0" stroke="black" stroke-width="1" />
<path d="M-25.993634226268636,70.79416555355479 L-27.0,73.0 L-4.999765933528902,92.22671319076129" fill-opacity="0" stroke="black" stroke-width="1" />
<path d="M-25.993634226268636,-70.79416555355479 L-27.0,-73.0 L-4.999765933528902,-92.22671319076127" fill-opacity="0" stroke="black" stroke-width="1" />
<path d="M-27.0,-27.0 L-7.773286809238717,-4.999765933528902 L-7.511019448600248,-2.413647559568792" fill-opacity="0" stroke="black" stroke-width="1" />
<path d="M-27.0,27.0 L-7.773286809238717,4.999765933528902 L-7.511019448600248,2.413647559568792" fill-opacity="0" stroke="black" stroke-width="1" />
<path d="M-7.773286809238717,-4.999765933528902 L-7.511019448600248,-2.413647559568792 L-6.663718141802832,-1.5016996471594517" fill-opacity="0" stroke="black" stroke-width="1" />
<path d="M-7.773286809238717,4.999765933528902 L-7.511019448600248,2.413647559568792 L-6.663718141802832,1.5016996471594517" fill-opacity="0" stroke="black" stroke-width="1" />
<path d="M-7.511019448600248,-2.413647559568792 L-6.663718141802832,-1.5016996471594517 L-3.305786344457795,-1.4438690718057525" fill-opacity="0" stroke="black" stroke-width="1" />
<path d="M-7.511019448600248,2.413647559568792 L-6.663718141802832,1.5016996471594517 L-3.305786344457795,1.4438690718057525" fill-opacity="0" stroke="black" stroke-width="1" />
<path d="M-6.663718141802832,-1.5016996471594517 L-3.305786344457795,-1.4438690718057525 L-2.6190750013404704,-1.3767101279733893" fill-opacity="0" stroke="black" stroke-width="1" />
<path d="M-6.663718141802832,1.5016996471594517 L-3.305786344457795,1.4438690718057525 L-2.6190750013404704,1.3767101279733893" fill-opacity="0" stroke="black" stroke-width="1" />
<path d="M-3.305786344457795,-1.4438690718057525 L-2.6190750013404704,-1.3767101279733893 L-2.5244159301858806,-1.2071082951958987" fill-opacity="0" stroke="black" stroke-width="1" />
<path d="M-3.305786344457795,1.4438690718057525 L-2.6190750013404704,1.3767101279733893 L-2.5244159301858806,1.2071082951958987" fill-opacity="0" stroke="black" stroke-width="1" />
<path d="M-2.6190750013404704,-1.3767101279733893 L-2.5244159301858806,-1.2071082951958987 L-2.3070785620108114,-0.6896424249523879" fill-opacity="0" stroke="black" stroke-width="1" />
<path d="M-2.6190750013404704,1.3767101279733893 L-2.5244159301858806,1.2071082951958987 L-2.3070785620108114,0.6896424249523879" fill-opacity="0" stroke="black" stroke-width="1" />
<path d="M-2.5244159301858806,-1.2071082951958987 L-2.3070785620108114,-0.6896424249523879 L-0.02640843659101333,-0.00502668863785066" fill-opacity="0" stroke="black" stroke-width="1" />
<path d="M-2.5244159301858806,1.2071082951958987 L-2.3070785620108114,0.6896424249523879 L-0.02640843659101333,0.00502668863785066" fill-opacity="0" stroke="black" stroke-width="1" />
<path d="M-2.3070785620108114,-0.6896424249523879 L-0.02640843659101333,-0.00502668863785066 L0.0,-0.0" fill-opacity="0" stroke="black" stroke-width="1" />
<path d="M-2.3070785620108114,0.6896424249523879 L-0.02640843659101333,0.00502668863785066 L0.0,-0.0" fill-opacity="0" stroke="black" stroke-width="1" />
<path d="M82.0,-0.0 L80.00108068357606,6.4965047987168205 L75.99091838125858,6.862377052148999" fill-opacity="0" stroke="black" stroke-width="1" />
<path d="M82.0,-0.0 L80.00108068357606,-6.4965047987168205 L75.99091838125858,-6.862377052148999" fill-opacity="0" stroke="black" stroke-width="1" />
<path d="M80.00108068357606,6.4965047987168205 L75.99091838125858,6.862377052148999 L71.4618238412786,18.105917027213565" fill-opacity="0" stroke="black" stroke-width="1" />
<path d="M80.00108068357606,-6.4965047987168205 L75.99091838125858,-6.862377052148999 L71.4618238412786,-18.105917027213565" fill-opacity="0" stroke="black" stroke-width="1" />
<path d="M75.99091838125858,6.862377052148999 L71.4618238412786,18.105917027213565 L50.0,-0.0" fill-opacity="0" stroke="black" stroke-width="1" />
<path d="M75.99091838125858,-6.862377052148999 L71.4618238412786,-18.105917027213565 L50.0,-0.0" fill-opacity="0" stroke="black" stroke-width="1" />
<path d="M50.0,22.0 L52.50174941744333,35.33763674445976 L50.0,39.0" fill-opacity="0" stroke="black" stroke-width="1" />
<path d="M50.0,-22.0 L52.50174941744333,-35.33763674445976 L50.0,-39.0" fill-opacity="0" stroke="black" stroke-width="1" />
<path d="M50.0,50.0 L52.04837706314195,45.77922993861064 L61.0,39.0" fill-opacity="0" stroke="black" stroke-width="1" />
<path d="M50.0,-50.0 L52.04837706314195,-45.77922993861064 L61.0,-39.0" fill-opacity="0" stroke="black" stroke-width="1" />
<path d="M52.04837706314195,45.77922993861064 L61.0,39.0 L63.77513104474383,33.47277549679118" fill-opacity="0" stroke="black" stroke-width="1" />
<path d="M52.04837706314195,-45.77922993861064 L61.0,-39.0 L63.77513104474383,-33.47277549679118" fill-opacity="0" stroke="black" stroke-width="1" />
<path d="M61.0,39.0 L63.77513104474383,33.47277549679118 L64.90505398684036,28.44789358728535" fill-opacity="0" stroke="black" stroke-width="1" />
<path d="M61.0,-39.0 L63.77513104474383,-33.47277549679118 L64.90505398684036,-28.44789358728535" fill-opacity="0" stroke="black" stroke-width="1" />
<path d="M63.77513104474383,33.47277549679118 L64.90505398684036,28.44789358728535 L67.0,33.0" fill-opacity="0" stroke="black" stroke-width="1" />
<path d="M63.77513104474383,-33.47277549679118 L64.90505398684036,-28.44789358728535 L67.0,-33.0" fill-opacity="0" stroke="black" stroke-width="1" />
<path d="M64.90505398684036,28.44789358728535 L67.0,33.0 L70.79416555355479,25.993634226268636" fill-opacity="0" stroke="black" stroke-width="1" />
<path d="M64.90505398684036,-28.44789358728535 L67.0,-33.0 L70.79416555355479,-25.993634226268636" fill-opacity="0" stroke="black" stroke-width="1" />
<path d="M67.0,33.0 L70.79416555355479,25.993634226268636 L73.0,27.0" fill-opacity="0" stroke="black" stroke-width="1" />
<path d="M67.0,-33.0 L70.79416555355479,-25.993634226268636 L73.0,-27.0" fill-opacity="0" stroke="black" stroke-width="1" />
<path d="M70.79416555355479,25.993634226268636 L73.0,27.0 L92.22671319076127,4.999765933528902" fill-opacity="0" stroke="black" stroke-width="1" />
<path d="M70.79416555355479,-25.993634226268636 L73.0,-27.0 L92.22671319076127,-4.999765933528902" fill-opacity="0" stroke="black" stroke-width="1" />
<path d="M73.0,27.0 L92.22671319076127,4.999765933528902 L92.48898055139975,2.413647559568792" fill-opacity="0" stroke="black" stroke-width="1" />
<path d="M73.0,-27.0 L92.22671319076127,-4.999765933528902 L92.48898055139975,-2.413647559568792" fill-opacity="0" stroke="black" stroke-width="1" />
<path d="M92.22671319076127,4.999765933528902 L92.48898055139975,2.413647559568792 L93.33628185819717,1.5016996471594517" fill-opacity="0" stroke="black" stroke-width="1" />
<path d="M92.22671319076127,-4.999765933528902 L92.48898055139975,-2.413647559568792 L93.33628185819717,-1.5016996471594517" fill-opacity="0" stroke="black" stroke-width="1" />
<path d="M92.48898055139975,2.413647559568792 L93.33628185819717,1.5016996471594517 L96.6942136555422,1.4438690718057525" fill-opacity="0" stroke="black" stroke-width="1" />
<path d="M92.48898055139975,-2.413647559568792 L93.33628185819717,-1.5016996471594517 L96.6942136555422,-1.4438690718057525" fill-opacity="0" stroke="black" stroke-width="1" />
<path d="M93.33628185819717,1.5016996471594517 L96.6942136555422,1.4438690718057525 L97.38092499865954,1.3767101279733893" fill-opacity="0" stroke="black" stroke-width="1" />
<path d="M93.33628185819717,-1.5016996471594517 L96.6942136555422,-1.4438690718057525 L97.38092499865954,-1.3767101279733893" fill-opacity="0" stroke="black" stroke-width="1" />
<path d="M96.6942136555422,1.4438690718057525 L97.38092499865954,1.3767101279733893 L97.47558406981412,1.2071082951958987" fill-opacity="0" stroke="black" stroke-width="1" />
<path d="M96.6942136555422,-1.4438690718057525 L97.38092499865954,-1.3767101279733893 L97.47558406981412,-1.2071082951958987" fill-opacity="0" stroke="black" stroke-width="1" />
<path d="M97.38092499865954,1.3767101279733893 L97.47558406981412,1.2071082951958987 L97.69292143798918,0.6896424249523879" fill-opacity="0" stroke="black" stroke-width="1" />
<path d="M97.38092499865954,-1.3767101279733893 L97.47558406981412,-1.2071082951958987 L97.69292143798918,-0.6896424249523879" fill-opacity="0" stroke="black" stroke-width="1" />
<path d="M97.47558406981412,1.2071082951958987 L97.69292143798918,0.6896424249523879 L99.97359156340899,0.00502668863785066" fill-opacity="0" stroke="black" stroke-width="1" />
<path d="M97.47558406981412,-1.2071082951958987 L97.69292143798918,-0.6896424249523879 L99.97359156340899,-0.00502668863785066" fill-opacity="0" stroke="black" stroke-width="1" />
<path d="M97.69292143798918,0.6896424249523879 L99.97359156340899,0.00502668863785066 L100.0,-0.0" fill-opacity="0" stroke="black" stroke-width="1" />
<path d="M97.69292143798918,-0.6896424249523879 L99.97359156340899,-0.00502668863785066 L100.0,-0.0" fill-opacity="0" stroke="black" stroke-width="1" />
<path d="M0.0,-18.0 L6.4965047987168205,-19.99891931642394 L6.862377052148999,-24.009081618741423" fill-opacity="0" stroke="black" stroke-width="1" />
<path d="M0.0,18.0 L6.4965047987168205,19.99891931642394 L6.862377052148999,24.009081618741423" fill-opacity="0" stroke="black" stroke-width="1" />
<path d="M0.0,82.0 L6.4965047987168205,80.00108068357606 L6.862377052148999,75.99091838125858" fill-opacity="0" stroke="black" stroke-width="1" />
<path d="M0.0,-82.0 L6.4965047987168205,-80.00108068357606 L6.862377052148999,-75.99091838125858" fill-opacity="0" stroke="black" stroke-width="1" />
<path d="M6.4965047987168205,-19.99891931642394 L6.862377052148999,-24.009081618741423 L18.105917027213565,-28.538176158721395" fill-opacity="0" stroke="black" stroke-width="1" />
<path d="M6.4965047987168205,19.99891931642394 L6.862377052148999,24.009081618741423 L18.105917027213565,28.538176158721395" fill-opacity="0" stroke="black" stroke-width="1" />
<path d="M6.4965047987168205,80.00108068357606 L6.862377052148999,75.99091838125858 L18.105917027213565,71.4618238412786" fill-opacity="0" stroke="black" stroke-width="1" />
<path d="M6.4965047987168205,-80.00108068357606 L6.862377052148999,-75.99091838125858 L18.105917027213565,-71.4618238412786" fill-opacity="0" stroke="black" stroke-width="1" />
<path d="M6.862377052148999,-24.009081618741423 L18.105917027213565,-28.538176158721395 L0.0,-50.0" fill-opacity="0" stroke="black" stroke-width="1" />
<path d="M6.862377052148999,24.009081618741423 L18.105917027213565,28.538176158721395 L0.0,50.0" fill-opacity="0" stroke="black" stroke-width="1" />
<path d="M6.862377052148999,75.99091838125858 L18.105917027213565,71.4618238412786 L0.0,50.0" fill-opacity="0" stroke="black" stroke-width="1" />
<path d="M6.862377052148999,-75.99091838125858 L18.105917027213565,-71.4618238412786 L0.0,-50.0" fill-opacity="0" stroke="black" stroke-width="1" />
<path d="M22.0,-50.0 L35.33763674445976,-47.49825058255667 L39.0,-50.0" fill-opacity="0" stroke="black" stroke-width="1" />
<path d="M22.0,50.0 L35.33763674445976,47.49825058255667 L39.0,50.0" fill-opacity="0" stroke="black" stroke-width="1" />
<path d="M22.0,50.0 L35.33763674445976,52.50174941744333 L39.0,50.0" fill-opacity="0" stroke="black" stroke-width="1" />
<path d="M22.0,-50.0 L35.33763674445976,-52.50174941744333 L39.0,-50.0" fill-opacity="0" stroke="black" stroke-width="1" />
<path d="M50.0,-50.0 L45.77922993861064,-47.95162293685805 L39.0,-39.0" fill-opacity="0" stroke="black" stroke-width="1" />
<path d="M50.0,50.0 L45.77922993861064,47.95162293685805 L39.0,39.0" fill-opacity="0" stroke="black" stroke-width="1" />
<path d="M50.0,50.0 L45.77922993861064,52.04837706314195 L39.0,61.0" fill-opacity="0" stroke="black" stroke-width="1" />
<path d="M50.0,-50.0 L45.77922993861064,-52.04837706314195 L39.0,-61.0" fill-opacity="0" stroke="black" stroke-width="1" />
<path d="M39.0,-39.0 L33.47277549679118,-36.22486895525617 L28.44789358728535,-35.09494601315965" fill-opacity="0" stroke="black" stroke-width="1" />
<path d="M39.0,39.0 L33.47277549679118,36.22486895525617 L28.44789358728535,35.09494601315965" fill-opacity="0" stroke="black" stroke-width="1" />
<path d="M39.0,61.0 L33.47277549679118,63.77513104474383 L28.44789358728535,64.90505398684036" fill-opacity="0" stroke="black" stroke-width="1" />
<path d="M39.0,-61.0 L33.47277549679118,-63.77513104474383 L28.44789358728535,-64.90505398684036" fill-opacity="0" stroke="black" stroke-width="1" />
<path d="M33.47277549679118,-36.22486895525617 L28.44789358728535,-35.09494601315965 L33.0,-33.0" fill-opacity="0" stroke="black" stroke-width="1" />
<path d="M33.47277549679118,36.22486895525617 L28.44789358728535,35.09494601315965 L33.0,33.0" fill-opacity="0" stroke="black" stroke-width="1" />
<path d="M33.47277549679118,63.77513104474383 L28.44789358728535,64.90505398684036 L33.0,67.0" fill-opacity="0" stroke="black" stroke-width="1" />
<path d="M33.47277549679118,-63.77513104474383 L28.44789358728535,-64.90505398684036 L33.0,-67.0" fill-opacity="0" stroke="black" stroke-width="1" />
<path d="M33.0,-33.0 L25.993634226268636,-29.205834446445213 L27.0,-27.0" fill-opacity="0" stroke="black" stroke-width="1" />
<path d="M33.0,33.0 L25.993634226268636,29.205834446445213 L27.0,27.0" fill-opacity="0" stroke="black" stroke-width="1" />
<path d="M33.0,67.0 L25.993634226268636,70.79416555355479 L27.0,73.0" fill-opacity="0" stroke="black" stroke-width="1" />
<path d="M33.0,-67.0 L25.993634226268636,-70.79416555355479 L27.0,-73.0" fill-opacity="0" stroke="black" stroke-width="1" />
<path d="M27.0,-27.0 L4.999765933528902,-7.773286809238717 L2.413647559568792,-7.511019448600248" fill-opacity="0" stroke="black" stroke-width="1" />
<path d="M27.0,27.0 L4.999765933528902,7.773286809238717 L2.413647559568792,7.511019448600248" fill-opacity="0" stroke="black" stroke-width="1" />
<path d="M27.0,73.0 L4.999765933528902,92.22671319076127 L2.413647559568792,92.48898055139975" fill-opacity="0" stroke="black" stroke-width="1" />
<path d="M27.0,-73.0 L4.999765933528902,-92.22671319076127 L2.413647559568792,-92.48898055139975" fill-opacity="0" stroke="black" stroke-width="1" />
<path d="M4.999765933528902,-7.773286809238717 L2.413647559568792,-7.511019448600248 L1.5016996471594517,-6.663718141802832" fill-opacity="0" stroke="black" stroke-width="1" />
<path d="M4.999765933528902,7.773286809238717 L2.413647559568792,7.511019448600248 L1.5016996471594517,6.663718141802832" fill-opacity="0" stroke="black" stroke-width="1" />
<path d="M4.999765933528902,92.22671319076127 L2.413647559568792,92.48898055139975 L1.5016996471594517,93.33628185819717" fill-opacity="0" stroke="black" stroke-width="1" />
<path d="M4.999765933528902,-92.22671319076127 L2.413647559568792,-92.48898055139975 L1.5016996471594517,-93.33628185819717" fill-opacity="0" stroke="black" stroke-width="1" />
<path d="M2.413647559568792,-7.511019448600248 L1.5016996471594517,-6.663718141802832 L1.4438690718057525,-3.305786344457795" fill-opacity="0" stroke="black" stroke-width="1" />
<path d="M2.413647559568792,7.511019448600248 L1.5016996471594517,6.663718141802832 L1.4438690718057525,3.305786344457795" fill-opacity="0" stroke="black" stroke-width="1" />
<path d="M2.413647559568792,92.48898055139975 L1.5016996471594517,93.33628185819717 L1.4438690718057525,96.6942136555422" fill-opacity="0" stroke="black" stroke-width="1" />
<path d="M2.413647559568792,-92.48898055139975 L1.5016996471594517,-93.33628185819717 L1.4438690718057525,-96.6942136555422" fill-opacity="0" stroke="black" stroke-width="1" />
<path d="M1.5016996471594517,-6.663718141802832 L1.4438690718057525,-3.305786344457795 L1.3767101279733893,-2.6190750013404704" fill-opacity="0" stroke="black" stroke-width="1" />
<path d="M1.5016996471594517,6.663718141802832 L1.4438690718057525,3.305786344457795 L1.3767101279733893,2.6190750013404704" fill-opacity="0" stroke="black" stroke-width="1" />
<path d="M1.5016996471594517,93.33628185819717 L1.4438690718057525,96.6942136555422 L1.3767101279733893,97.38092499865954" fill-opacity="0" stroke="black" stroke-width="1" />
<path d="M1.5016996471594517,-93.33628185819717 L1.4438690718057525,-96.6942136555422 L1.3767101279733893,-97.38092499865954" fill-opacity="0" stroke="black" stroke-width="1" />
<path d="M1.4438690718057525,-3.305786344457795 L1.3767101279733893,-2.6190750013404704 L1.2071082951958987,-2.5244159301858806" fill-opacity="0" stroke="black" stroke-width="1" />
<path d="M1.4438690718057525,3.305786344457795 L1.3767101279733893,2.6190750013404704 L1.2071082951958987,2.5244159301858806" fill-opacity="0" stroke="black" stroke-width="1" />
<path d="M1.4438690718057525,96.6942136555422 L1.3767101279733893,97.38092499865954 L1.2071082951958987,97.47558406981412" fill-opacity="0" stroke="black" stroke-width="1" />
<path d="M1.4438690718057525,-96.6942136555422 L1.3767101279733893,-97.38092499865954 L1.2071082951958987,-97.47558406981412" fill-opacity="0" stroke="black" stroke-width="1" />
<path d="M1.3767101279733893,-2.6190750013404704 L1.2071082951958987,-2.5244159301858806 L0.6896424249523879,-2.3070785620108114" fill-opacity="0" stroke="black" stroke-width="1" />
<path d="M1.3767101279733893,2.6190750013404704 L1.2071082951958987,2.5244159301858806 L0.6896424249523879,2.3070785620108114" fill-opacity="0" stroke="black" stroke-width="1" />
<path d="M1.3767101279733893,97.38092499865954 L1.2071082951958987,97.47558406981412 L0.6896424249523879,97.69292143798918" fill-opacity="0" stroke="black" stroke-width="1" />
<path d="M1.3767101279733893,-97.38092499865954 L1.2071082951958987,-97.47558406981412 L0.6896424249523879,-97.69292143798918" fill-opacity="0" stroke="black" stroke-width="1" />
<path d="M1.2071082951958987,-2.5244159301858806 L0.6896424249523879,-2.3070785620108114 L0.00502668863785066,-0.02640843659101333" fill-opacity="0" stroke="black" stroke-width="1" />
<path d="M1.2071082951958987,2.5244159301858806 L0.6896424249523879,2.3070785620108114 L0.00502668863785066,0.02640843659101333" fill-opacity="0" stroke="black" stroke-width="1" />
<path d="M1.2071082951958987,97.47558406981412 L0.6896424249523879,97.69292143798918 L0.00502668863785066,99.97359156340899" fill-opacity="0" stroke="black" stroke-width="1" />
<path d="M1.2071082951958987,-97.47558406981412 L0.6896424249523879,-97.69292143798918 L0.00502668863785066,-99.97359156340899" fill-opacity="0" stroke="black" stroke-width="1" />
<path d="M0.6896424249523879,-2.3070785620108114 L0.00502668863785066,-0.02640843659101333 L0.0,-0.0" fill-opacity="0" stroke="black" stroke-width="1" />
<path d="M0.6896424249523879,2.3070785620108114 L0.00502668863785066,0.02640843659101333 L0.0,-0.0" fill-opacity="0" stroke="black" stroke-width="1" />
<path d="M0.6896424249523879,97.69292143798918 L0.00502668863785066,99.97359156340899 L0.0,100.0" fill-opacity="0" stroke="black" stroke-width="1" />
<path d="M0.6896424249523879,-97.69292143798918 L0.00502668863785066,-99.97359156340899 L0.0,-100.0" fill-opacity="0" stroke="black" stroke-width="1" />
<path d="M0.0,82.0 L-6.4965047987168205,80.00108068357606 L-6.862377052148999,75.99091838125858" fill-opacity="0" stroke="black" stroke-width="1" />
<path d="M0.0,-18.0 L-6.4965047987168205,-19.99891931642394 L-6.862377052148999,-24.009081618741423" fill-opacity="0" stroke="black" stroke-width="1" />
<path d="M0.0,18.0 L-6.4965047987168205,19.998919316423937 L-6.862377052148999,24.00908161874142" fill-opacity="0" stroke="black" stroke-width="1" />
<path d="M0.0,-82.0 L-6.4965047987168205,-80.00108068357606 L-6.862377052148999,-75.99091838125858" fill-opacity="0" stroke="black" stroke-width="1" />
<path d="M-6.4965047987168205,80.00108068357606 L-6.862377052148999,75.99091838125858 L-18.105917027213565,71.4618238412786" fill-opacity="0" stroke="black" stroke-width="1" />
<path d="M-6.4965047987168205,-19.99891931642394 L-6.862377052148999,-24.009081618741423 L-18.105917027213565,-28.538176158721395" fill-opacity="0" stroke="black" stroke-width="1" />
<path d="M-6.4965047987168205,19.998919316423937 L-6.862377052148999,24.00908161874142 L-18.105917027213565,28.5381761587214" fill-opacity="0" stroke="black" stroke-width="1" />
<path d="M-6.4965047987168205,-80.00108068357606 L-6.862377052148999,-75.99091838125858 L-18.105917027213565,-71.4618238412786" fill-opacity="0" stroke="black" stroke-width="1" />
<path d="M-6.862377052148999,75.99091838125858 L-18.105917027213565,71.4618238412786 L0.0,50.0" fill-opacity="0" stroke="black" stroke-width="1" />
<path d="M-6.862377052148999,-24.009081618741423 L-18.105917027213565,-28.538176158721395 L0.0,-50.0" fill-opacity="0" stroke="black" stroke-width="1" />
<path d="M-6.862377052148999,24.00908161874142 L-18.105917027213565,28.5381761587214 L0.0,50.0" fill-opacity="0" stroke="black" stroke-width="1" />
<path d="M-6.862377052148999,-75.99091838125858 L-18.105917027213565,-71.4618238412786 L0.0,-50.0" fill-opacity="0" stroke="black" stroke-width="1" />
<path d="M-22.0,50.0 L-35.33763674445976,52.50174941744333 L-39.0,50.0" fill-opacity="0" stroke="black" stroke-width="1" />
<path d="M-22.0,-50.0 L-35.33763674445976,-47.49825058255667 L-39.0,-50.0" fill-opacity="0" stroke="black" stroke-width="1" />
<path d="M-22.0,50.0 L-35.33763674445976,47.49825058255667 L-39.0,50.0" fill-opacity="0" stroke="black" stroke-width="1" />
<path d="M-22.0,-50.0 L-35.33763674445976,-52.50174941744333 L-39.0,-50.0" fill-opacity="0" stroke="black" stroke-width="1" />
<path d="M-50.0,50.0 L-45.77922993861064,52.04837706314195 L-39.0,61.0" fill-opacity="0" stroke="black" stroke-width="1" />
<path d="M-50.0,-50.0 L-45.77922993861064,-47.95162293685805 L-39.0,-39.0" fill-opacity="0" stroke="black" stroke-width="1" />
<path d="M-50.0,50.0 L-45.77922993861064,47.95162293685805 L-39.0,39.0" fill-opacity="0" stroke="black" stroke-width="1" />
<path d="M-50.0,-50.0 L-45.77922993861064,-52.04837706314195 L-39.0,-61.0" fill-opacity="0" stroke="black" stroke-width="1" />
<path d="M-39.0,61.0 L-33.47277549679118,63.77513104474383 L-28.44789358728535,64.90505398684036" fill-opacity="0" stroke="black" stroke-width="1" />
<path d="M-39.0,-39.0 L-33.47277549679118,-36.22486895525617 L-28.44789358728535,-35.09494601315965" fill-opacity="0" stroke="black" stroke-width="1" />
<path d="M-39.0,39.0 L-33.47277549679118,36.22486895525617 L-28.44789358728535,35.09494601315964" fill-opacity="0" stroke="black" stroke-width="1" />
<path d="M-39.0,-61.0 L-33.47277549679118,-63.77513104474383 L-28.44789358728535,-64.90505398684036" fill-opacity="0" stroke="black" stroke-width="1" />
<path d="M-33.47277549679118,63.77513104474383 L-28.44789358728535,64.90505398684036 L-33.0,67.0" fill-opacity="0" stroke="black" stroke-width="1" />
<path d="M-33.47277549679118,-36.22486895525617 L-28.44789358728535,-35.09494601315965 L-33.0,-33.0" fill-opacity="0" stroke="black" stroke-width="1" />
<path d="M-33.47277549679118,36.22486895525617 L-28.44789358728535,35.09494601315964 L-33.0,33.0" fill-opacity="0" stroke="black" stroke-width="1" />
<path d="M-33.47277549679118,-63.77513104474383 L-28.44789358728535,-64.90505398684036 L-33.0,-67.0" fill-opacity="0" stroke="black" stroke-width="1" />
<path d="M-33.0,67.0 L-25.993634226268636,70.79416555355479 L-27.0,73.0" fill-opacity="0" stroke="black" stroke-width="1" />
<path d="M-33.0,-33.0 L-25.993634226268636,-29.205834446445213 L-27.0,-27.0" fill-opacity="0" stroke="black" stroke-width="1" />
<path d="M-33.0,33.0 L-25.993634226268636,29.20583444644521 L-27.0,27.0" fill-opacity="0" stroke="black" stroke-width="1" />
<path d="M-33.0,-67.0 L-25.993634226268636,-70.79416555355479 L-27.0,-73.0" fill-opacity="0" stroke="black" stroke-width="1" />
<path d="M-27.0,73.0 L-4.999765933528902,92.22671319076129 L-2.413647559568792,92.48898055139975" fill-opacity="0" stroke="black" stroke-width="1" />
<path d="M-27.0,-27.0 L-4.999765933528902,-7.773286809238717 L-2.413647559568792,-7.511019448600248" fill-opacity="0" stroke="black" stroke-width="1" />
<path d="M-27.0,27.0 L-4.999765933528902,7.773286809238712 L-2.413647559568792,7.511019448600251" fill-opacity="0" stroke="black" stroke-width="1" />
<path d="M-27.0,-73.0 L-4.999765933528902,-92.22671319076127 L-2.413647559568792,-92.48898055139975" fill-opacity="0" stroke="black" stroke-width="1" />
<path d="M-4.999765933528902,92.22671319076129 L-2.413647559568792,92.48898055139975 L-1.5016996471594517,93.33628185819717" fill-opacity="0" stroke="black" stroke-width="1" />
<path d="M-4.999765933528902,-7.773286809238717 L-2.413647559568792,-7.511019448600248 L-1.5016996471594517,-6.663718141802832" fill-opacity="0" stroke="black" stroke-width="1" />
<path d="M-4.999765933528902,7.773286809238712 L-2.413647559568792,7.511019448600251 L-1.5016996471594517,6.663718141802832" fill-opacity="0" stroke="black" stroke-width="1" />
<path d="M-4.999765933528902,-92.22671319076127 L-2.413647559568792,-92.48898055139975 L-1.5016996471594517,-93.33628185819717" fill-opacity="0" stroke="black" stroke-width="1" />
<path d="M-2.413647559568792,92.48898055139975 L-1.5016996471594517,93.33628185819717 L-1.4438690718057525,96.6942136555422" fill-opacity="0" stroke="black" stroke-width="1" />
<path d="M-2.413647559568792,-7.511019448600248 L-1.5016996471594517,-6.663718141802832 L-1.4438690718057525,-3.305786344457795" fill-opacity="0" stroke="black" stroke-width="1" />
<path d="M-2.413647559568792,7.511019448600251 L-1.5016996471594517,6.663718141802832 L-1.4438690718057525,3.3057863444578004" fill-opacity="0" stroke="black" stroke-width="1" />
<path d="M-2.413647559568792,-92.48898055139975 L-1.5016996471594517,-93.33628185819717 L-1.4438690718057525,-96.6942136555422" fill-opacity="0" stroke="black" stroke-width="1" />
<path d="M-1.5016996471594517,93.33628185819717 L-1.4438690718057525,96.6942136555422 L-1.3767101279733893,97.38092499865952" fill-opacity="0" stroke="black" stroke-width="1" />
<path d="M-1.5016996471594517,-6.663718141802832 L-1.4438690718057525,-3.305786344457795 L-1.3767101279733893,-2.6190750013404704" fill-opacity="0" stroke="black" stroke-width="1" />
<path d="M-1.5016996471594517,6.663718141802832 L-1.4438690718057525,3.3057863444578004 L-1.3767101279733893,2.6190750013404767" fill-opacity="0" stroke="black" stroke-width="1" />
<path d="M-1.5016996471594517,-93.33628185819717 L-1.4438690718057525,-96.6942136555422 L-1.3767101279733893,-97.38092499865954" fill-opacity="0" stroke="black" stroke-width="1" />
<path d="M-1.4438690718057525,96.6942136555422 L-1.3767101279733893,97.38092499865952 L-1.2071082951958987,97.47558406981412" fill-opacity="0" stroke="black" stroke-width="1" />
<path d="M-1.4438690718057525,-3.305786344457795 L-1.3767101279733893,-2.6190750013404704 L-1.2071082951958987,-2.5244159301858806" fill-opacity="0" stroke="black" stroke-width="1" />
<path d="M-1.4438690718057525,3.3057863444578004 L-1.3767101279733893,2.6190750013404767 L-1.2071082951958987,2.5244159301858815" fill-opacity="0" stroke="black" stroke-width="1" />
<path d="M-1.4438690718057525,-96.6942136555422 L-1.3767101279733893,-97.38092499865954 L-1.2071082951958987,-97.47558406981412" fill-opacity="0" stroke="black" stroke-width="1" />
<path d="M-1.3767101279733893,97.38092499865952 L-1.2071082951958987,97.47558406981412 L-0.6896424249523879,97.69292143798918" fill-opacity="0" stroke="black" stroke-width="1" />
<path d="M-1.3767101279733893,-2.6190750013404704 L-1.2071082951958987,-2.5244159301858806 L-0.6896424249523879,-2.3070785620108114" fill-opacity="0" stroke="black" stroke-width="1" />
<path d="M-1.3767101279733893,2.6190750013404767 L-1.2071082951958987,2.5244159301858815 L-0.6896424249523879,2.3070785620108154" fill-opacity="0" stroke="black" stroke-width="1" />
<path d="M-1.3767101279733893,-97.38092499865954 L-1.2071082951958987,-97.47558406981412 L-0.6896424249523879,-97.69292143798918" fill-opacity="0" stroke="black" stroke-width="1" />
<path d="M-1.2071082951958987,97.47558406981412 L-0.6896424249523879,97.69292143798918 L-0.00502668863785066,99.97359156340899" fill-opacity="0" stroke="black" stroke-width="1" />
<path d="M-1.2071082951958987,-2.5244159301858806 L-0.6896424249523879,-2.3070785620108114 L-0.00502668863785066,-0.02640843659101333" fill-opacity="0" stroke="black" stroke-width="1" />
<path d="M-1.2071082951958987,2.5244159301858815 L-0.6896424249523879,2.3070785620108154 L-0.00502668863785066,0.02640843659101222" fill-opacity="0" stroke="black" stroke-width="1" />
<path d="M-1.2071082951958987,-97.47558406981412 L-0.6896424249523879,-97.69292143798918 L-0.00502668863785066,-99.97359156340899" fill-opacity="0" stroke="black" stroke-width="1" />
<path d="M-0.6896424249523879,97.69292143798918 L-0.00502668863785066,99.97359156340899 L0.0,100.0" fill-opacity="0" stroke="black" stroke-width="1" />
<path d="M-0.6896424249523879,-2.3070785620108114 L-0.00502668863785066,-0.02640843659101333 L0.0,-0.0" fill-opacity="0" stroke="black" stroke-width="1" />
<path d="M-0.6896424249523879,2.3070785620108154 L-0.00502668863785066,0.02640843659101222 L0.0,-0.0" fill-opacity="0" stroke="black" stroke-width="1" />
<path d="M-0.6896424249523879,-97.69292143798918 L-0.00502668863785066,-99.97359156340899 L0.0,-100.0" fill-opacity="0" stroke="black" stroke-width="1" />
<path d="M-82.0,-0.0 L-80.00108068357606,-6.4965047987168205 L-75.99091838125858,-6.862377052148999" fill-opacity="0" stroke="black" stroke-width="1" />
<path d="M-82.0,-0.0 L-80.00108068357606,6.4965047987168205 L-75.99091838125858,6.862377052148999" fill-opacity="0" stroke="black" stroke-width="1" />
<path d="M-80.00108068357606,-6.4965047987168205 L-75.99091838125858,-6.862377052148999 L-71.4618238412786,-18.105917027213565" fill-opacity="0" stroke="black" stroke-width="1" />
<path d="M-80.00108068357606,6.4965047987168205 L-75.99091838125858,6.862377052148999 L-71.4618238412786,18.105917027213565" fill-opacity="0" stroke="black" stroke-width="1" />
<path d="M-75.99091838125858,-6.862377052148999 L-71.4618238412786,-18.105917027213565 L-50.0,-0.0" fill-opacity="0" stroke="black" stroke-width="1" />
<path d="M-75.99091838125858,6.862377052148999 L-71.4618238412786,18.105917027213565 L-50.0,-0.0" fill-opacity="0" stroke="black" stroke-width="1" />
<path d="M-50.0,-22.0 L-52.50174941744333,-35.33763674445976 L-50.0,-39.0" fill-opacity="0" stroke="black" stroke-width="1" />
<path d="M-50.0,22.0 L-52.50174941744333,35.33763674445976 L-50.0,39.0" fill-opacity="0" stroke="black" stroke-width="1" />
<path d="M-50.0,-50.0 L-52.04837706314195,-45.77922993861064 L-61.0,-39.0" fill-opacity="0" stroke="black" stroke-width="1" />
<path d="M-50.0,50.0 L-52.04837706314195,45.77922993861064 L-61.0,39.0" fill-opacity="0" stroke="black" stroke-width="1" />
<path d="M-52.04837706314195,-45.77922993861064 L-61.0,-39.0 L-63.77513104474383,-33.47277549679118" fill-opacity="0" stroke="black" stroke-width="1" />
<path d="M-52.04837706314195,45.77922993861064 L-61.0,39.0 L-63.77513104474383,33.47277549679118" fill-opacity="0" stroke="black" stroke-width="1" />
<path d="M-61.0,-39.0 L-63.77513104474383,-33.47277549679118 L-64.90505398684036,-28.44789358728535" fill-opacity="0" stroke="black" stroke-width="1" />
<path d="M-61.0,39.0 L-63.77513104474383,33.47277549679118 L-64.90505398684036,28.44789358728535" fill-opacity="0" stroke="black" stroke-width="1" />
<path d="M-63.77513104474383,-33.47277549679118 L-64.90505398684036,-28.44789358728535 L-67.0,-33.0" fill-opacity="0" stroke="black" stroke-width="1" />
<path d="M-63.77513104474383,33.47277549679118 L-64.90505398684036,28.44789358728535 L-67.0,33.0" fill-opacity="0" stroke="black" stroke-width="1" />
<path d="M-64.90505398684036,-28.44789358728535 L-67.0,-33.0 L-70.79416555355479,-25.993634226268636" fill-opacity="0" stroke="black" stroke-width="1" />
<path d="M-64.90505398684036,28.44789358728535 L-67.0,33.0 L-70.79416555355479,25.993634226268636" fill-opacity="0" stroke="black" stroke-width="1" />
<path d="M-67.0,-33.0 L-70.79416555355479,-25.993634226268636 L-73.0,-27.0" fill-opacity="0" stroke="black" stroke-width="1" />
<path d="M-67.0,33.0 L-70.79416555355479,25.993634226268636 L-73.0,27.0" fill-opacity="0" stroke="black" stroke-width="1" />
<path d="M-70.79416555355479,-25.993634226268636 L-73.0,-27.0 L-92.22671319076127,-4.999765933528902" fill-opacity="0" stroke="black" stroke-width="1" />
<path d="M-70.79416555355479,25.993634226268636 L-73.0,27.0 L-92.22671319076127,4.999765933528902" fill-opacity="0" stroke="black" stroke-width="1" />
<path d="M-73.0,-27.0 L-92.22671319076127,-4.999765933528902 L-92.48898055139975,-2.413647559568792" fill-opacity="0" stroke="black" stroke-width="1" />
<path d="M-73.0,27.0 L-92.22671319076127,4.999765933528902 L-92.48898055139975,2.413647559568792" fill-opacity="0" stroke="black" stroke-width="1" />
<path d="M-92.22671319076127,-4.999765933528902 L-92.48898055139975,-2.413647559568792 L-93.33628185819717,-1.5016996471594517" fill-opacity="0" stroke="black" stroke-width="1" />
<path d="M-92.22671319076127,4.999765933528902 L-92.48898055139975,2.413647559568792 L-93.33628185819717,1.5016996471594517" fill-opacity="0" stroke="black" stroke-width="1" />
<path d="M-92.48898055139975,-2.413647559568792 L-93.33628185819717,-1.5016996471594517 L-96.6942136555422,-1.4438690718057525" fill-opacity="0" stroke="black" stroke-width="1" />
<path d="M-92.48898055139975,2.413647559568792 L-93.33628185819717,1.5016996471594517 L-96.6942136555422,1.4438690718057525" fill-opacity="0" stroke="black" stroke-width="1" />
<path d="M-93.33628185819717,-1.5016996471594517 L-96.6942136555422,-1.4438690718057525 L-97.38092499865954,-1.3767101279733893" fill-opacity="0" stroke="black" stroke-width="1" />
<path d="M-93.33628185819717,1.5016996471594517 L-96.6942136555422,1.4438690718057525 L-97.38092499865954,1.3767101279733893" fill-opacity="0" stroke="black" stroke-width="1" />
<path d="M-96.6942136555422,-1.4438690718057525 L-97.38092499865954,-1.3767101279733893 L-97.47558406981412,-1.2071082951958987" fill-opacity="0" stroke="black" stroke-width="1" />
<path d="M-96.6942136555422,1.4438690718057525 L-97.38092499865954,1.3767101279733893 L-97.47558406981412,1.2071082951958987" fill-opacity="0" stroke="black" stroke-width="1" />
<path d="M-97.38092499865954,-1.3767101279733893 L-97.47558406981412,-1.2071082951958987 L-97.69292143798918,-0.6896424249523879" fill-opacity="0" stroke="black" stroke-width="1" />
<path d="M-97.38092499865954,1.3767101279733893 L-97.47558406981412,1.2071082951958987 L-97.69292143798918,0.6896424249523879" fill-opacity="0" stroke="black" stroke-width="1" />
<path d="M-97.47558406981412,-1.2071082951958987 L-97.69292143798918,-0.6896424249523879 L-99.97359156340899,-0.00502668863785066" fill-opacity="0" stroke="black" stroke-width="1" />
<path d="M-97.47558406981412,1.2071082951958987 L-97.69292143798918,0.6896424249523879 L-99.97359156340899,0.00502668863785066" fill-opacity="0" stroke="black" stroke-width="1" />
<path d="M-97.69292143798918,-0.6896424249523879 L-99.97359156340899,-0.00502668863785066 L-100.0,-0.0" fill-opacity="0" stroke="black" stroke-width="1" />
<path d="M-97.69292143798918,0.6896424249523879 L-99.97359156340899,0.00502668863785066 L-100.0,-0.0" fill-opacity="0" stroke="black" stroke-width="1" />
<circle cx="0" cy="-97" r="8" stroke-dasharray="39.653880605311166 10.611601852125524" stroke-dashoffset="-17.59291886010284" stroke="black" stroke-width="1" fill="white" fill-opacity="1" />
<circle cx="0" cy="-97" r="4" stroke="black" stroke-width="1" fill="white" fill-opacity="1" />
</svg>