<?xml version="1.0" encoding="UTF-8"?>
<svg xmlns="http://www.w3.org/2000/svg" xmlns:xlink="http://www.w3.org/1999/xlink"
     width="250" height="250" viewBox="-125.0 -125.0 250 250">
<defs>
</defs>
<path d="M13.0,-0.0 L15.913167541661306,-2.088609433203964 L17.0,-0.0" fill-opacity="0" stroke="black" stroke-width="1" />
<path d="M13.0,-0.0 L15.913167541661306,2.088609433203964 L17.0,-0.0" fill-opacity="0" stroke="black" stroke-width="1" />
<path d="M17.0,-0.0 L18.58619593787911,-4.616258028475046 L25.627598521016754,-4.9417711092014205" fill-opacity="0" stroke="black" stroke-width="1" />
<path d="M17.0,-0.0 L18.58619593787911,4.616258028475046 L25.627598521016754,4.9417711092014205" fill-opacity="0" stroke="black" stroke-width="1" />
<path d="M18.58619593787911,-4.616258028475046 L25.627598521016754,-4.9417711092014205 L28.802319952698966,-11.698823803065242" fill-opacity="0" stroke="black" stroke-width="1" />
<path d="M18.58619593787911,4.616258028475046 L25.627598521016754,4.9417711092014205 L28.802319952698966,11.698823803065242" fill-opacity="0" stroke="black" stroke-width="1" />
<path d="M25.627598521016754,-4.9417711092014205 L28.802319952698966,-11.698823803065242 L29.46750869273871,-15.394281896276741" fill-opacity="0" stroke="black" stroke-width="1" />
<path d="M25.627598521016754,4.9417711092014205 L28.802319952698966,11.698823803065242 L29.46750869273871,15.394281896276741" fill-opacity="0" stroke="black" stroke-width="1" />
<path d="M28.802319952698966,-11.698823803065242 L29.46750869273871,-15.394281896276741 L45.0,-0.0" fill-opacity="0" stroke="black" stroke-width="1" />
<path d="M28.802319952698966,11.698823803065242 L29.46750869273871,15.394281896276741 L45.0,-0.0" fill-opacity="0" stroke="black" stroke-width="1" />
<path d="M50.0,-9.0 L36.133765423633214,-19.578113030355023 L50.0,-21.0" fill-opacity="0" stroke="black" stroke-width="1" />
<path d="M50.0,9.0 L36.133765423633214,19.578113030355023 L50.0,21.0" fill-opacity="0" stroke="black" stroke-width="1" />
<path d="M50.0,50.0 L49.0,51.0 L38.0,62.0" fill-opacity="0" stroke="black" stroke-width="1" />
<path d="M50.0,-50.0 L49.0,-51.0 L38.0,-62.0" fill-opacity="0" stroke="black" stroke-width="1" />
<path d="M49.0,51.0 L38.0,62.0 L25.0,75.0" fill-opacity="0" stroke="black" stroke-width="1" />
<path d="M49.0,-51.0 L38.0,-62.0 L25.0,-75.0" fill-opacity="0" stroke="black" stroke-width="1" />
<path d="M38.0,62.0 L25.0,75.0 L21.0,79.0" fill-opacity="0" stroke="black" stroke-width="1" />
<path d="M38.0,-62.0 L25.0,-75.0 L21.0,-79.0" fill-opacity="0" stroke="black" stroke-width="1" />
<path d="M21.0,-21.0 L5.305923581088562,-0.9416197974411609 L1.1627574693065579,-0.3774783417619703" fill-opacity="0" stroke="black" stroke-width="1" />
<path d="M21.0,21.0 L5.305923581088562,0.9416197974411609 L1.1627574693065579,0.3774783417619703" fill-opacity="0" stroke="black" stroke-width="1" />
<path d="M5.305923581088562,-0.9416197974411609 L1.1627574693065579,-0.3774783417619703 L0.0,-0.0" fill-opacity="0" stroke="black" stroke-width="1" />
<path d="M5.305923581088562,0.9416197974411609 L1.1627574693065579,0.3774783417619703 L0.0,-0.0" fill-opacity="0" stroke="black" stroke-width="1" />
<path d="M-13.0,-0.0 L-15.913167541661306,-2.088609433203964 L-17.0,-0.0" fill-opacity="0" stroke="black" stroke-width="1" />
<path d="M-13.0,-0.0 L-15.913167541661306,2.088609433203964 L-17.0,-0.0" fill-opacity="0" stroke="black" stroke-width="1" />
<path d="M-17.0,-0.0 L-18.58619593787911,-4.616258028475046 L-25.627598521016754,-4.9417711092014205" fill-opacity="0" stroke="black" stroke-width="1" />
<path d="M-17.0,-0.0 L-18.58619593787911,4.616258028475046 L-25.627598521016754,4.9417711092014205" fill-opacity="0" stroke="black" stroke-width="1" />
<path d="M-18.58619593787911,-4.616258028475046 L-25.627598521016754,-4.9417711092014205 L-28.802319952698966,-11.698823803065242" fill-opacity="0" stroke="black" stroke-width="1" />
<path d="M-18.58619593787911,4.616258028475046 L-25.627598521016754,4.9417711092014205 L-28.802319952698966,11.698823803065242" fill-opacity="0" stroke="black" stroke-width="1" />
<path d="M-25.627598521016754,-4.9417711092014205 L-28.802319952698966,-11.698823803065242 L-29.46750869273871,-15.394281896276741" fill-opacity="0" stroke="black" stroke-width="1" />
<path d="M-25.627598521016754,4.9417711092014205 L-28.802319952698966,11.698823803065242 L-29.46750869273871,15.394281896276741" fill-opacity="0" stroke="black" stroke-width="1" />
<path d="M-28.802319952698966,-11.698823803065242 L-29.46750869273871,-15.394281896276741 L-45.0,-0.0" fill-opacity="0" stroke="black" stroke-width="1" />
<path d="M-28.802319952698966,11.698823803065242 L-29.46750869273871,15.394281896276741 L-45.0,-0.0" fill-opacity="0" stroke="black" stroke-width="1" />
<path d="M-50.0,-9.0 L-36.133765423633214,-19.578113030355023 L-50.0,-21.0" fill-opacity="0" stroke="black" stroke-width="1" />
<path d="M-50.0,9.0 L-36.133765423633214,19.578113030355023 L-50.0,21.0" fill-opacity="0" stroke="black" stroke-width="1" />
<path d="M-50.0,50.0 L-49.0,51.0 L-38.0,62.0" fill-opacity="0" stroke="black" stroke-width="1" />
<path d="M-50.0,-50.0 L-49.0,-51.0 L-38.0,-62.0" fill-opacity="0" stroke="black" stroke-width="1" />
<path d="M-49.0,51.0 L-38.0,62.0 L-25.0,75.0" fill-opacity="0" stroke="black" stroke-width="1" />
<path d="M-49.0,-51.0 L-38.0,-62.0 L-25.0,-75.0" fill-opacity="0" stroke="black" stroke-width="1" />
<path d="M-38.0,62.0 L-25.0,75.0 L-21.0,79.0" fill-opacity="0" stroke="black" stroke-width="1" />
<path d="M-38.0,-62.0 L-25.0,-75.0 L-21.0,-79.0" fill-opacity="0" stroke="black" stroke-width="1" />
<path d="M-21.0,-21.0 L-5.305923581088562,-0.9416197974411609 L-1.1627574693065579,-0.3774783417619703" fill-opacity="0" stroke="black" stroke-width="1" />
<path d="M-21.0,21.0 L-5.305923581088562,0.9416197974411609 L-1.1627574693065579,0.3774783417619703" fill-opacity="0" stroke="black" stroke-width="1" />
<path d="M-5.305923581088562,-0.9416197974411609 L-1.1627574693065579,-0.3774783417619703 L0.0,-0.0" fill-opacity="0" stroke="black" stroke-width="1" />
<path d="M-5.305923581088562,0.9416197974411609 L-1.1627574693065579,0.3774783417619703 L0.0,-0.0" fill-opacity="0" stroke="black" stroke-width="1" />
<path d="M87.0,-0.0 L84.08683245833869,2.088609433203964 L83.0,-0.0" fill-opacity="0" stroke="black" stroke-width="1" />
<path d="M87.0,-0.0 L84.08683245833869,-2.088609433203964 L83.0,-0.0" fill-opacity="0" stroke="black" stroke-width="1" />
<path d="M83.0,-0.0 L81.41380406212089,4.616258028475046 L74.37240147898325,4.9417711092014205" fill-opacity="0" stroke="black" stroke-width="1" />
<path d="M83.0,-0.0 L81.41380406212089,-4.616258028475046 L74.37240147898325,-4.9417711092014205" fill-opacity="0" stroke="black" stroke-width="1" />
<path d="M81.41380406212089,4.616258028475046 L74.37240147898325,4.9417711092014205 L71.19768004730103,11.698823803065242" fill-opacity="0" stroke="black" stroke-width="1" />
<path d="M81.41380406212089,-4.616258028475046 L74.37240147898325,-4.9417711092014205 L71.19768004730103,-11.698823803065242" fill-opacity="0" stroke="black" stroke-width="1" />
<path d="M74.37240147898325,4.9417711092014205 L71.19768004730103,11.698823803065242 L70.5324913072613,15.394281896276741" fill-opacity="0" stroke="black" stroke-width="1" />
<path d="M74.37240147898325,-4.9417711092014205 L71.19768004730103,-11.698823803065242 L70.5324913072613,-15.394281896276741" fill-opacity="0" stroke="black" stroke-width="1" />
<path d="M71.19768004730103,11.698823803065242 L70.5324913072613,15.394281896276741 L55.0,-0.0" fill-opacity="0" stroke="black" stroke-width="1" />
<path d="M71.19768004730103,-11.698823803065242 L70.5324913072613,-15.394281896276741 L55.0,-0.0" fill-opacity="0" stroke="black" stroke-width="1" />
<path d="M50.0,9.0 L63.866234576366786,19.578113030355023 L50.0,21.0" fill-opacity="0" stroke="black" stroke-width="1" />
<path d="M50.0,-9.0 L63.866234576366786,-19.578113030355023 L50.0,-21.0" fill-opacity="0" stroke="black" stroke-width="1" />
<path d="M50.0,50.0 L51.0,49.0 L62.0,38.0" fill-opacity="0" stroke="black" stroke-width="1" />
<path d="M50.0,-50.0 L51.0,-49.0 L62.0,-38.0" fill-opacity="0" stroke="black" stroke-width="1" />
<path d="M51.0,49.0 L62.0,38.0 L75.0,25.0" fill-opacity="0" stroke="black" stroke-width="1" />
<path d="M51.0,-49.0 L62.0,-38.0 L75.0,-25.0" fill-opacity="0" stroke="black" stroke-width="1" />
<path d="M62.0,38.0 L75.0,25.0 L79.0,21.0" fill-opacity="0" stroke="black" stroke-width="1" />
<path d="M62.0,-38.0 L75.0,-25.0 L79.0,-21.0" fill-opacity="0" stroke="black" stroke-width="1" />
<path d="M79.0,21.0 L94.69407641891144,0.9416197974411609 L98.83724253069344,0.3774783417619703" fill-opacity="0" stroke="black" stroke-width="1" />
<path d="M79.0,-21.0 L94.69407641891144,-0.9416197974411609 L98.83724253069344,-0.3774783417619703" fill-opacity="0" stroke="black" stroke-width="1" />
<path d="M94.69407641891144,0.9416197974411609 L98.83724253069344,0.3774783417619703 L100.0,-0.0" fill-opacity="0" stroke="black" stroke-width="1" />
<path d="M94.69407641891144,-0.9416197974411609 L98.83724253069344,-0.3774783417619703 L100.0,-0.0" fill-opacity="0" stroke="black" stroke-width="1" />
<path d="M0.0,-13.0 L2.088609433203964,-15.913167541661306 L0.0,-17.0" fill-opacity="0" stroke="black" stroke-width="1" />
<path d="M0.0,13.0 L2.088609433203964,15.913167541661306 L0.0,17.0" fill-opacity="0" stroke="black" stroke-width="1" />
<path d="M0.0,87.0 L2.088609433203964,84.08683245833869 L0.0,83.0" fill-opacity="0" stroke="black" stroke-width="1" />
<path d="M0.0,-87.0 L2.088609433203964,-84.08683245833869 L0.0,-83.0" fill-opacity="0" stroke="black" stroke-width="1" />
<path d="M0.0,-17.0 L4.616258028475046,-18.58619593787911 L4.9417711092014205,-25.627598521016754" fill-opacity="0" stroke="black" stroke-width="1" />
<path d="M0.0,17.0 L4.616258028475046,18.58619593787911 L4.9417711092014205,25.627598521016754" fill-opacity="0" stroke="black" stroke-width="1" />
<path d="M0.0,83.0 L4.616258028475046,81.41380406212089 L4.9417711092014205,74.37240147898325" fill-opacity="0" stroke="black" stroke-width="1" />
<path d="M0.0,-83.0 L4.616258028475046,-81.41380406212089 L4.9417711092014205,-74.37240147898325" fill-opacity="0" stroke="black" stroke-width="1" />
<path d="M4.616258028475046,-18.58619593787911 L4.9417711092014205,-25.627598521016754 L11.698823803065242,-28.802319952698966" fill-opacity="0" stroke="black" stroke-width="1" />
<path d="M4.616258028475046,18.58619593787911 L4.9417711092014205,25.627598521016754 L11.698823803065242,28.802319952698966" fill-opacity="0" stroke="black" stroke-width="1" />
<path d="M4.616258028475046,81.41380406212089 L4.9417711092014205,74.37240147898325 L11.698823803065242,71.19768004730103" fill-opacity="0" stroke="black" stroke-width="1" />
<path d="M4.616258028475046,-81.41380406212089 L4.9417711092014205,-74.37240147898325 L11.698823803065242,-71.19768004730103" fill-opacity="0" stroke="black" stroke-width="1" />
<path d="M4.9417711092014205,-25.627598521016754 L11.698823803065242,-28.802319952698966 L15.394281896276741,-29.46750869273871" fill-opacity="0" stroke="black" stroke-width="1" />
<path d="M4.9417711092014205,25.627598521016754 L11.698823803065242,28.802319952698966 L15.394281896276741,29.46750869273871" fill-opacity="0" stroke="black" stroke-width="1" />
<path d="M4.9417711092014205,74.37240147898325 L11.698823803065242,71.19768004730103 L15.394281896276741,70.5324913072613" fill-opacity="0" stroke="black" stroke-width="1" />
<path d="M4.9417711092014205,-74.37240147898325 L11.698823803065242,-71.19768004730103 L15.394281896276741,-70.5324913072613" fill-opacity="0" stroke="black" stroke-width="1" />
<path d="M11.698823803065242,-28.802319952698966 L15.394281896276741,-29.46750869273871 L0.0,-45.0" fill-opacity="0" stroke="black" stroke-width="1" />
<path d="M11.698823803065242,28.802319952698966 L15.394281896276741,29.46750869273871 L0.0,45.0" fill-opacity="0" stroke="black" stroke-width="1" />
<path d="M11.698823803065242,71.19768004730103 L15.394281896276741,70.5324913072613 L0.0,55.0" fill-opacity="0" stroke="black" stroke-width="1" />
<path d="M11.698823803065242,-71.19768004730103 L15.394281896276741,-70.5324913072613 L0.0,-55.0" fill-opacity="0" stroke="black" stroke-width="1" />
<path d="M9.0,-50.0 L19.578113030355023,-36.133765423633214 L21.0,-50.0" fill-opacity="0" stroke="black" stroke-width="1" />
<path d="M9.0,50.0 L19.578113030355023,36.133765423633214 L21.0,50.0" fill-opacity="0" stroke="black" stroke-width="1" />
<path d="M9.0,50.0 L19.578113030355023,63.866234576366786 L21.0,50.0" fill-opacity="0" stroke="black" stroke-width="1" />
<path d="M9.0,-50.0 L19.578113030355023,-63.866234576366786 L21.0,-50.0" fill-opacity="0" stroke="black" stroke-width="1" />
<path d="M21.0,-21.0 L0.9416197974411609,-5.305923581088562 L0.3774783417619703,-1.1627574693065579" fill-opacity="0" stroke="black" stroke-width="1" />
<path d="M21.0,21.0 L0.9416197974411609,5.305923581088562 L0.3774783417619703,1.1627574693065579" fill-opacity="0" stroke="black" stroke-width="1" />
<path d="M21.0,79.0 L0.9416197974411609,94.69407641891144 L0.3774783417619703,98.83724253069344" fill-opacity="0" stroke="black" stroke-width="1" />
<path d="M21.0,-79.0 L0.9416197974411609,-94.69407641891144 L0.3774783417619703,-98.83724253069344" fill-opacity="0" stroke="black" stroke-width="1" />
<path d="M0.9416197974411609,-5.305923581088562 L0.3774783417619703,-1.1627574693065579 L0.0,-0.0" fill-opacity="0" stroke="black" stroke-width="1" />
<path d="M0.9416197974411609,5.305923581088562 L0.3774783417619703,1.1627574693065579 L0.0,-0.0" fill-opacity="0" stroke="black" stroke-width="1" />
<path d="M0.9416197974411609,94.69407641891144 L0.3774783417619703,98.83724253069344 L0.0,100.0" fill-opacity="0" stroke="black" stroke-width="1" />
<path d="M0.9416197974411609,-94.69407641891144 L0.3774783417619703,-98.83724253069344 L0.0,-100.0" fill-opacity="0" stroke="black" stroke-width="1" />
<path d="M0.0,87.0 L-2.088609433203964,84.08683245833869 L0.0,83.0" fill-opacity="0" stroke="black" stroke-width="1" />
<path d="M0.0,-13.0 L-2.088609433203964,-15.913167541661306 L0.0,-17.0" fill-opacity="0" stroke="black" stroke-width="1" />
<path d="M0.0,13.0 L-2.088609433203964,15.91316754166131 L0.0,17.0" fill-opacity="0" stroke="black" stroke-width="1" />
<path d="M0.0,-87.0 L-2.088609433203964,-84.08683245833869 L0.0,-83.0" fill-opacity="0" stroke="black" stroke-width="1" />
<path d="M0.0,83.0 L-4.616258028475046,81.41380406212089 L-4.9417711092014205,74.37240147898325" fill-opacity="0" stroke="black" stroke-width="1" />
<path d="M0.0,-17.0 L-4.616258028475046,-18.58619593787911 L-4.9417711092014205,-25.627598521016754" fill-opacity="0" stroke="black" stroke-width="1" />
<path d="M0.0,17.0 L-4.616258028475046,18.58619593787911 L-4.9417711092014205,25.62759852101675" fill-opacity="0" stroke="black" stroke-width="1" />
<path d="M0.0,-83.0 L-4.616258028475046,-81.41380406212089 L-4.9417711092014205,-74.37240147898325" fill-opacity="0" stroke="black" stroke-width="1" />
<path d="M-4.616258028475046,81.41380406212089 L-4.9417711092014205,74.37240147898325 L-11.698823803065242,71.19768004730103" fill-opacity="0" stroke="black" stroke-width="1" />
<path d="M-4.616258028475046,-18.58619593787911 L-4.9417711092014205,-25.627598521016754 L-11.698823803065242,-28.802319952698966" fill-opacity="0" stroke="black" stroke-width="1" />
<path d="M-4.616258028475046,18.58619593787911 L-4.9417711092014205,25.62759852101675 L-11.698823803065242,28.802319952698966" fill-opacity="0" stroke="black" stroke-width="1" />
<path d="M-4.616258028475046,-81.41380406212089 L-4.9417711092014205,-74.37240147898325 L-11.698823803065242,-71.19768004730103" fill-opacity="0" stroke="black" stroke-width="1" />
<path d="M-4.9417711092014205,74.37240147898325 L-11.698823803065242,71.19768004730103 L-15.394281896276741,70.5324913072613" fill-opacity="0" stroke="black" stroke-width="1" />
<path d="M-4.9417711092014205,-25.627598521016754 L-11.698823803065242,-28.802319952698966 L-15.394281896276741,-29.46750869273871" fill-opacity="0" stroke="black" stroke-width="1" />
<path d="M-4.9417711092014205,25.62759852101675 L-11.698823803065242,28.802319952698966 L-15.394281896276741,29.467508692738704" fill-opacity="0" stroke="black" stroke-width="1" />
<path d="M-4.9417711092014205,-74.37240147898325 L-11.698823803065242,-71.19768004730103 L-15.394281896276741,-70.5324913072613" fill-opacity="0" stroke="black" stroke-width="1" />
<path d="M-11.698823803065242,71.19768004730103 L-15.394281896276741,70.5324913072613 L0.0,55.0" fill-opacity="0" stroke="black" stroke-width="1" />
<path d="M-11.698823803065242,-28.802319952698966 L-15.394281896276741,-29.46750869273871 L0.0,-45.0" fill-opacity="0" stroke="black" stroke-width="1" />
<path d="M-11.698823803065242,28.802319952698966 L-15.394281896276741,29.467508692738704 L0.0,45.0" fill-opacity="0" stroke="black" stroke-width="1" />
<path d="M-11.698823803065242,-71.19768004730103 L-15.394281896276741,-70.5324913072613 L0.0,-55.0" fill-opacity="0" stroke="black" stroke-width="1" />
<path d="M-9.0,50.0 L-19.578113030355023,63.866234576366786 L-21.0,50.0" fill-opacity="0" stroke="black" stroke-width="1" />
<path d="M-9.0,-50.0 L-19.578113030355023,-36.133765423633214 L-21.0,-50.0" fill-opacity="0" stroke="black" stroke-width="1" />
<path d="M-9.0,50.0 L-19.578113030355023,36.133765423633214 L-21.0,50.0" fill-opacity="0" stroke="black" stroke-width="1" />
<path d="M-9.0,-50.0 L-19.578113030355023,-63.866234576366786 L-21.0,-50.0" fill-opacity="0" stroke="black" stroke-width="1" />
<path d="M-21.0,79.0 L-0.9416197974411609,94.69407641891144 L-0.3774783417619703,98.83724253069344" fill-opacity="0" stroke="black" stroke-width="1" />
<path d="M-21.0,-21.0 L-0.9416197974411609,-5.305923581088562 L-0.3774783417619703,-1.1627574693065579" fill-opacity="0" stroke="black" stroke-width="1" />
<path d="M-21.0,21.0 L-0.9416197974411609,5.305923581088564 L-0.3774783417619703,1.1627574693065554" fill-opacity="0" stroke="black" stroke-width="1" />
<path d="M-21.0,-79.0 L-0.9416197974411609,-94.69407641891144 L-0.3774783417619703,-98.83724253069344" fill-opacity="0" stroke="black" stroke-width="1" />
<path d="M-0.9416197974411609,94.69407641891144 L-0.3774783417619703,98.83724253069344 L0.0,100.0" fill-opacity="0" stroke="black" stroke-width="1" />
<path d="M-0.9416197974411609,-5.305923581088562 L-0.3774783417619703,-1.1627574693065579 L0.0,-0.0" fill-opacity="0" stroke="black" stroke-width="1" />
<path d="M-0.9416197974411609,5.305923581088564 L-0.3774783417619703,1.1627574693065554 L0.0,-0.0" fill-opacity="0" stroke="black" stroke-width="1" />
<path d="M-0.9416197974411609,-94.69407641891144 L-0.3774783417619703,-98.83724253069344 L0.0,-100.0" fill-opacity="0" stroke="black" stroke-width="1" />
<path d="M-87.0,-0.0 L-84.08683245833869,-2.088609433203964 L-83.0,-0.0" fill-opacity="0" stroke="black" stroke-width="1" />
<path d="M-87.0,-0.0 L-84.08683245833869,2.088609433203964 L-83.0,-0.0" fill-opacity="0" stroke="black" stroke-width="1" />
<path d="M-83.0,-0.0 L-81.41380406212089,-4.616258028475046 L-74.37240147898325,-4.9417711092014205" fill-opacity="0" stroke="black" stroke-width="1" />
<path d="M-83.0,-0.0 L-81.41380406212089,4.616258028475046 L-74.37240147898325,4.9417711092014205" fill-opacity="0" stroke="black" stroke-width="1" />
<path d="M-81.41380406212089,-4.616258028475046 L-74.37240147898325,-4.9417711092014205 L-71.19768004730103,-11.698823803065242" fill-opacity="0" stroke="black" stroke-width="1" />
<path d="M-81.41380406212089,4.616258028475046 L-74.37240147898325,4.9417711092014205 L-71.19768004730103,11.698823803065242" fill-opacity="0" stroke="black" stroke-width="1" />
<path d="M-74.37240147898325,-4.9417711092014205 L-71.19768004730103,-11.698823803065242 L-70.5324913072613,-15.394281896276741" fill-opacity="0" stroke="black" stroke-width="1" />
<path d="M-74.37240147898325,4.9417711092014205 L-71.19768004730103,11.698823803065242 L-70.5324913072613,15.394281896276741" fill-opacity="0" stroke="black" stroke-width="1" />
<path d="M-71.19768004730103,-11.698823803065242 L-70.5324913072613,-15.394281896276741 L-55.0,-0.0" fill-opacity="0" stroke="black" stroke-width="1" />
<path d="M-71.19768004730103,11.698823803065242 L-70.5324913072613,15.394281896276741 L-55.0,-0.0" fill-opacity="0" stroke="black" stroke-width="1" />
<path d="M-50.0,-9.0 L-63.866234576366786,-19.578113030355023 L-50.0,-21.0" fill-opacity="0" stroke="black" stroke-width="1" />
<path d="M-50.0,9.0 L-63.866234576366786,19.578113030355023 L-50.0,21.0" fill-opacity="0" stroke="black" stroke-width="1" />
<path d="M-50.0,-50.0 L-51.0,-49.0 L-62.0,-38.0" fill-opacity="0" stroke="black" stroke-width="1" />
<path d="M-50.0,50.0 L-51.0,49.0 L-62.0,38.0" fill-opacity="0" stroke="black" stroke-width="1" />
<path d="M-51.0,-49.0 L-62.0,-38.0 L-75.0,-25.0" fill-opacity="0" stroke="black" stroke-width="1" />
<path d="M-51.0,49.0 L-62.0,38.0 L-75.0,25.0" fill-opacity="0" stroke="black" stroke-width="1" />
<path d="M-62.0,-38.0 L-75.0,-25.0 L-79.0,-21.0" fill-opacity="0" stroke="black" stroke-width="1" />
<path d="M-62.0,38.0 L-75.0,25.0 L-79.0,21.0" fill-opacity="0" stroke="black" stroke-width="1" />
<path d="M-79.0,-21.0 L-94.69407641891144,-0.9416197974411609 L-98.83724253069344,-0.3774783417619703" fill-opacity="0" stroke="black" stroke-width="1" />
<path d="M-79.0,21.0 L-94.69407641891144,0.9416197974411609 L-98.83724253069344,0.3774783417619703" fill-opacity="0" stroke="black" stroke-width="1" />
<path d="M-94.69407641891144,-0.9416197974411609 L-98.83724253069344,-0.3774783417619703 L-100.0,-0.0" fill-opacity="0" stroke="black" stroke-width="1" />
<path d="M-94.69407641891144,0.9416197974411609 L-98.83724253069344,0.3774783417619703 L-100.0,-0.0" fill-opacity="0" stroke="black" stroke-width="1" />
</svg>