<?xml version="1.0" encoding="UTF-8"?>
<svg xmlns="http://www.w3.org/2000/svg" xmlns:xlink="http://www.w3.org/1999/xlink"
     width="250" height="250" viewBox="-125.0 -125.0 250 250">
<defs>
</defs>
<path d="M17.0,-0.0 L20.734838065459194,-7.833382243587906 L22.0,-0.0" fill="black" fill-opacity="0.6" stroke="black" stroke-width="1" />
<path d="M17.0,-0.0 L20.734838065459194,7.833382243587906 L22.0,-0.0" fill="black" fill-opacity="0.6" stroke="black" stroke-width="1" />
<path d="M22.0,-0.0 L24.524431149758186,-8.646754849749568 L28.0,-0.0" fill="purple" fill-opacity="0.6" stroke="black" stroke-width="1" />
<path d="M22.0,-0.0 L24.524431149758186,8.646754849749568 L28.0,-0.0" fill="brown" fill-opacity="0.6" stroke="black" stroke-width="1" />
<path d="M49.0,50.0 L33.0,67.0 L24.0,76.0" fill="orange" fill-opacity="0.6" stroke="black" stroke-width="1" />
<path d="M49.0,-50.0 L33.0,-67.0 L24.0,-76.0" fill="orange" fill-opacity="0.6" stroke="black" stroke-width="1" />
<path d="M33.0,67.0 L24.0,76.0 L23.0,77.0" fill="green" fill-opacity="0.6" stroke="black" stroke-width="1" />
<path d="M33.0,-67.0 L24.0,-76.0 L23.0,-77.0" fill="red" fill-opacity="0.6" stroke="black" stroke-width="1" />
<path d="M23.0,77.0 L20.0,80.0 L7.76361111138037,84.39442242326417" fill="blue" fill-opacity="0.6" stroke="black" stroke-width="1" />
<path d="M23.0,-77.0 L20.0,-80.0 L7.76361111138037,-84.39442242326417" fill="pink" fill-opacity="0.6" stroke="black" stroke-width="1" />
<path d="M20.0,-20.0 L15.605577576735824,-7.76361111138037 L11.241209069592218,-3.8309351542617174" fill="purple" fill-opacity="0.6" stroke="black" stroke-width="1" />
<path d="M20.0,20.0 L15.605577576735824,7.76361111138037 L11.241209069592218,3.8309351542617174" fill="purple" fill-opacity="0.6" stroke="black" stroke-width="1" />
<path d="M15.605577576735824,-7.76361111138037 L11.241209069592218,-3.8309351542617174 L10.961859869800078,-3.4520462785694863" fill="orange" fill-opacity="0.6" stroke="black" stroke-width="1" />
<path d="M15.605577576735824,7.76361111138037 L11.241209069592218,3.8309351542617174 L10.961859869800078,3.4520462785694863" fill="pink" fill-opacity="0.6" stroke="black" stroke-width="1" />
<path d="M11.241209069592218,-3.8309351542617174 L10.961859869800078,-3.4520462785694863 L9.841602919839849,-2.9174985815517336" fill="purple" fill-opacity="0.6" stroke="black" stroke-width="1" />
<path d="M11.241209069592218,3.8309351542617174 L10.961859869800078,3.4520462785694863 L9.841602919839849,2.9174985815517336" fill="red" fill-opacity="0.6" stroke="black" stroke-width="1" />
<path d="M10.961859869800078,-3.4520462785694863 L9.841602919839849,-2.9174985815517336 L8.390721987010584,-2.799149247481683" fill="black" fill-opacity="0.6" stroke="black" stroke-width="1" />
<path d="M10.961859869800078,3.4520462785694863 L9.841602919839849,2.9174985815517336 L8.390721987010584,2.799149247481683" fill="blue" fill-opacity="0.6" stroke="black" stroke-width="1" />
<path d="M9.841602919839849,-2.9174985815517336 L8.390721987010584,-2.799149247481683 L7.984498668255708,-2.6365259368246714" fill="green" fill-opacity="0.6" stroke="black" stroke-width="1" />
<path d="M9.841602919839849,2.9174985815517336 L8.390721987010584,2.799149247481683 L7.984498668255708,2.6365259368246714" fill="red" fill-opacity="0.6" stroke="black" stroke-width="1" />
<path d="M8.390721987010584,-2.799149247481683 L7.984498668255708,-2.6365259368246714 L5.9382518479255015,-2.363896640182738" fill="pink" fill-opacity="0.6" stroke="black" stroke-width="1" />
<path d="M8.390721987010584,2.799149247481683 L7.984498668255708,2.6365259368246714 L5.9382518479255015,2.363896640182738" fill="green" fill-opacity="0.6" stroke="black" stroke-width="1" />
<path d="M7.984498668255708,-2.6365259368246714 L5.9382518479255015,-2.363896640182738 L3.933407360007168,-1.4045954945898678" fill="brown" fill-opacity="0.6" stroke="black" stroke-width="1" />
<path d="M7.984498668255708,2.6365259368246714 L5.9382518479255015,2.363896640182738 L3.933407360007168,1.4045954945898678" fill="brown" fill-opacity="0.6" stroke="black" stroke-width="1" />
<path d="M5.9382518479255015,-2.363896640182738 L3.933407360007168,-1.4045954945898678 L2.7146509407833976,-0.6686455548745689" fill="yellow" fill-opacity="0.6" stroke="black" stroke-width="1" />
<path d="M5.9382518479255015,2.363896640182738 L3.933407360007168,1.4045954945898678 L2.7146509407833976,0.6686455548745689" fill="orange" fill-opacity="0.6" stroke="black" stroke-width="1" />
<path d="M3.933407360007168,-1.4045954945898678 L2.7146509407833976,-0.6686455548745689 L1.8197952045858556,-0.33612884325465164" fill="brown" fill-opacity="0.6" stroke="black" stroke-width="1" />
<path d="M3.933407360007168,1.4045954945898678 L2.7146509407833976,0.6686455548745689 L1.8197952045858556,0.33612884325465164" fill="yellow" fill-opacity="0.6" stroke="black" stroke-width="1" />
<path d="M2.7146509407833976,-0.6686455548745689 L1.8197952045858556,-0.33612884325465164 L0.30038866293194966,-0.2408499062938373" fill="blue" fill-opacity="0.6" stroke="black" stroke-width="1" />
<path d="M2.7146509407833976,0.6686455548745689 L1.8197952045858556,0.33612884325465164 L0.30038866293194966,0.2408499062938373" fill="green" fill-opacity="0.6" stroke="black" stroke-width="1" />
<path d="M1.8197952045858556,-0.33612884325465164 L0.30038866293194966,-0.2408499062938373 L0.0,-0.0" fill="yellow" fill-opacity="0.6" stroke="black" stroke-width="1" />
<path d="M1.8197952045858556,0.33612884325465164 L0.30038866293194966,0.2408499062938373 L0.0,-0.0" fill="yellow" fill-opacity="0.6" stroke="black" stroke-width="1" />
<path d="M-17.0,-0.0 L-20.734838065459194,-7.833382243587906 L-22.0,-0.0" fill="purple" fill-opacity="0.6" stroke="black" stroke-width="1" />
<path d="M-17.0,-0.0 L-20.734838065459194,7.833382243587906 L-22.0,-0.0" fill="yellow" fill-opacity="0.6" stroke="black" stroke-width="1" />
<path d="M-22.0,-0.0 L-24.524431149758186,-8.646754849749568 L-28.0,-0.0" fill="green" fill-opacity="0.6" stroke="black" stroke-width="1" />
<path d="M-22.0,-0.0 L-24.524431149758186,8.646754849749568 L-28.0,-0.0" fill="green" fill-opacity="0.6" stroke="black" stroke-width="1" />
<path d="M-49.0,50.0 L-33.0,67.0 L-24.0,76.0" fill="red" fill-opacity="0.6" stroke="black" stroke-width="1" />
<path d="M-49.0,-50.0 L-33.0,-67.0 L-24.0,-76.0" fill="pink" fill-opacity="0.6" stroke="black" stroke-width="1" />
<path d="M-33.0,67.0 L-24.0,76.0 L-23.0,77.0" fill="red" fill-opacity="0.6" stroke="black" stroke-width="1" />
<path d="M-33.0,-67.0 L-24.0,-76.0 L-23.0,-77.0" fill="purple" fill-opacity="0.6" stroke="black" stroke-width="1" />
<path d="M-23.0,77.0 L-20.0,80.0 L-7.76361111138037,84.39442242326417" fill="orange" fill-opacity="0.6" stroke="black" stroke-width="1" />
<path d="M-23.0,-77.0 L-20.0,-80.0 L-7.76361111138037,-84.39442242326417" fill="black" fill-opacity="0.6" stroke="black" stroke-width="1" />
<path d="M-20.0,-20.0 L-15.605577576735824,-7.76361111138037 L-11.241209069592218,-3.8309351542617174" fill="brown" fill-opacity="0.6" stroke="black" stroke-width="1" />
<path d="M-20.0,20.0 L-15.605577576735824,7.76361111138037 L-11.241209069592218,3.8309351542617174" fill="red" fill-opacity="0.6" stroke="black" stroke-width="1" />
<path d="M-15.605577576735824,-7.76361111138037 L-11.241209069592218,-3.8309351542617174 L-10.961859869800078,-3.4520462785694863" fill="brown" fill-opacity="0.6" stroke="black" stroke-width="1" />
<path d="M-15.605577576735824,7.76361111138037 L-11.241209069592218,3.8309351542617174 L-10.961859869800078,3.4520462785694863" fill="orange" fill-opacity="0.6" stroke="black" stroke-width="1" />
<path d="M-11.241209069592218,-3.8309351542617174 L-10.961859869800078,-3.4520462785694863 L-9.841602919839849,-2.9174985815517336" fill="brown" fill-opacity="0.6" stroke="black" stroke-width="1" />
<path d="M-11.241209069592218,3.8309351542617174 L-10.961859869800078,3.4520462785694863 L-9.841602919839849,2.9174985815517336" fill="purple" fill-opacity="0.6" stroke="black" stroke-width="1" />
<path d="M-10.961859869800078,-3.4520462785694863 L-9.841602919839849,-2.9174985815517336 L-8.390721987010584,-2.799149247481683" fill="pink" fill-opacity="0.6" stroke="black" stroke-width="1" />
<path d="M-10.961859869800078,3.4520462785694863 L-9.841602919839849,2.9174985815517336 L-8.390721987010584,2.799149247481683" fill="black" fill-opacity="0.6" stroke="black" stroke-width="1" />
<path d="M-9.841602919839849,-2.9174985815517336 L-8.390721987010584,-2.799149247481683 L-7.984498668255708,-2.6365259368246714" fill="red" fill-opacity="0.6" stroke="black" stroke-width="1" />
<path d="M-9.841602919839849,2.9174985815517336 L-8.390721987010584,2.799149247481683 L-7.984498668255708,2.6365259368246714" fill="pink" fill-opacity="0.6" stroke="black" stroke-width="1" />
<path d="M-8.390721987010584,-2.799149247481683 L-7.984498668255708,-2.6365259368246714 L-5.9382518479255015,-2.363896640182738" fill="red" fill-opacity="0.6" stroke="black" stroke-width="1" />
<path d="M-8.390721987010584,2.799149247481683 L-7.984498668255708,2.6365259368246714 L-5.9382518479255015,2.363896640182738" fill="black" fill-opacity="0.6" stroke="black" stroke-width="1" />
<path d="M-7.984498668255708,-2.6365259368246714 L-5.9382518479255015,-2.363896640182738 L-3.933407360007168,-1.4045954945898678" fill="purple" fill-opacity="0.6" stroke="black" stroke-width="1" />
<path d="M-7.984498668255708,2.6365259368246714 L-5.9382518479255015,2.363896640182738 L-3.933407360007168,1.4045954945898678" fill="red" fill-opacity="0.6" stroke="black" stroke-width="1" />
<path d="M-5.9382518479255015,-2.363896640182738 L-3.933407360007168,-1.4045954945898678 L-2.7146509407833976,-0.6686455548745689" fill="brown" fill-opacity="0.6" stroke="black" stroke-width="1" />
<path d="M-5.9382518479255015,2.363896640182738 L-3.933407360007168,1.4045954945898678 L-2.7146509407833976,0.6686455548745689" fill="red" fill-opacity="0.6" stroke="black" stroke-width="1" />
<path d="M-3.933407360007168,-1.4045954945898678 L-2.7146509407833976,-0.6686455548745689 L-1.8197952045858556,-0.33612884325465164" fill="purple" fill-opacity="0.6" stroke="black" stroke-width="1" />
<path d="M-3.933407360007168,1.4045954945898678 L-2.7146509407833976,0.6686455548745689 L-1.8197952045858556,0.33612884325465164" fill="blue" fill-opacity="0.6" stroke="black" stroke-width="1" />
<path d="M-2.7146509407833976,-0.6686455548745689 L-1.8197952045858556,-0.33612884325465164 L-0.30038866293194966,-0.2408499062938373" fill="orange" fill-opacity="0.6" stroke="black" stroke-width="1" />
<path d="M-2.7146509407833976,0.6686455548745689 L-1.8197952045858556,0.33612884325465164 L-0.30038866293194966,0.2408499062938373" fill="pink" fill-opacity="0.6" stroke="black" stroke-width="1" />
<path d="M-1.8197952045858556,-0.33612884325465164 L-0.30038866293194966,-0.2408499062938373 L0.0,-0.0" fill="green" fill-opacity="0.6" stroke="black" stroke-width="1" />
<path d="M-1.8197952045858556,0.33612884325465164 L-0.30038866293194966,0.2408499062938373 L0.0,-0.0" fill="purple" fill-opacity="0.6" stroke="black" stroke-width="1" />
<path d="M83.0,-0.0 L79.2651619345408,7.833382243587906 L78.0,-0.0" fill="green" fill-opacity="0.6" stroke="black" stroke-width="1" />
<path d="M83.0,-0.0 L79.2651619345408,-7.833382243587906 L78.0,-0.0" fill="brown" fill-opacity="0.6" stroke="black" stroke-width="1" />
<path d="M78.0,-0.0 L75.47556885024181,8.646754849749568 L72.0,-0.0" fill="blue" fill-opacity="0.6" stroke="black" stroke-width="1" />
<path d="M78.0,-0.0 L75.47556885024181,-8.646754849749568 L72.0,-0.0" fill="black" fill-opacity="0.6" stroke="black" stroke-width="1" />
<path d="M50.0,49.0 L67.0,33.0 L76.0,24.0" fill="black" fill-opacity="0.6" stroke="black" stroke-width="1" />
<path d="M50.0,-49.0 L67.0,-33.0 L76.0,-24.0" fill="green" fill-opacity="0.6" stroke="black" stroke-width="1" />
<path d="M67.0,33.0 L76.0,24.0 L77.0,23.0" fill="blue" fill-opacity="0.6" stroke="black" stroke-width="1" />
<path d="M67.0,-33.0 L76.0,-24.0 L77.0,-23.0" fill="yellow" fill-opacity="0.6" stroke="black" stroke-width="1" />
<path d="M77.0,23.0 L80.0,20.0 L84.39442242326417,7.76361111138037" fill="green" fill-opacity="0.6" stroke="black" stroke-width="1" />
<path d="M77.0,-23.0 L80.0,-20.0 L84.39442242326417,-7.76361111138037" fill="black" fill-opacity="0.6" stroke="black" stroke-width="1" />
<path d="M80.0,20.0 L84.39442242326417,7.76361111138037 L88.75879093040778,3.8309351542617174" fill="green" fill-opacity="0.6" stroke="black" stroke-width="1" />
<path d="M80.0,-20.0 L84.39442242326417,-7.76361111138037 L88.75879093040778,-3.8309351542617174" fill="black" fill-opacity="0.6" stroke="black" stroke-width="1" />
<path d="M84.39442242326417,7.76361111138037 L88.75879093040778,3.8309351542617174 L89.03814013019992,3.4520462785694863" fill="blue" fill-opacity="0.6" stroke="black" stroke-width="1" />
<path d="M84.39442242326417,-7.76361111138037 L88.75879093040778,-3.8309351542617174 L89.03814013019992,-3.4520462785694863" fill="pink" fill-opacity="0.6" stroke="black" stroke-width="1" />
<path d="M88.75879093040778,3.8309351542617174 L89.03814013019992,3.4520462785694863 L90.15839708016014,2.9174985815517336" fill="pink" fill-opacity="0.6" stroke="black" stroke-width="1" />
<path d="M88.75879093040778,-3.8309351542617174 L89.03814013019992,-3.4520462785694863 L90.15839708016014,-2.9174985815517336" fill="brown" fill-opacity="0.6" stroke="black" stroke-width="1" />
<path d="M89.03814013019992,3.4520462785694863 L90.15839708016014,2.9174985815517336 L91.60927801298942,2.799149247481683" fill="purple" fill-opacity="0.6" stroke="black" stroke-width="1" />
<path d="M89.03814013019992,-3.4520462785694863 L90.15839708016014,-2.9174985815517336 L91.60927801298942,-2.799149247481683" fill="pink" fill-opacity="0.6" stroke="black" stroke-width="1" />
<path d="M90.15839708016014,2.9174985815517336 L91.60927801298942,2.799149247481683 L92.01550133174429,2.6365259368246714" fill="pink" fill-opacity="0.6" stroke="black" stroke-width="1" />
<path d="M90.15839708016014,-2.9174985815517336 L91.60927801298942,-2.799149247481683 L92.01550133174429,-2.6365259368246714" fill="red" fill-opacity="0.6" stroke="black" stroke-width="1" />
<path d="M91.60927801298942,2.799149247481683 L92.01550133174429,2.6365259368246714 L94.0617481520745,2.363896640182738" fill="yellow" fill-opacity="0.6" stroke="black" stroke-width="1" />
<path d="M91.60927801298942,-2.799149247481683 L92.01550133174429,-2.6365259368246714 L94.0617481520745,-2.363896640182738" fill="blue" fill-opacity="0.6" stroke="black" stroke-width="1" />
<path d="M92.01550133174429,2.6365259368246714 L94.0617481520745,2.363896640182738 L96.06659263999283,1.4045954945898678" fill="pink" fill-opacity="0.6" stroke="black" stroke-width="1" />
<path d="M92.01550133174429,-2.6365259368246714 L94.0617481520745,-2.363896640182738 L96.06659263999283,-1.4045954945898678" fill="pink" fill-opacity="0.6" stroke="black" stroke-width="1" />
<path d="M94.0617481520745,2.363896640182738 L96.06659263999283,1.4045954945898678 L97.2853490592166,0.6686455548745689" fill="red" fill-opacity="0.6" stroke="black" stroke-width="1" />
<path d="M94.0617481520745,-2.363896640182738 L96.06659263999283,-1.4045954945898678 L97.2853490592166,-0.6686455548745689" fill="blue" fill-opacity="0.6" stroke="black" stroke-width="1" />
<path d="M96.06659263999283,1.4045954945898678 L97.2853490592166,0.6686455548745689 L98.18020479541414,0.33612884325465164" fill="orange" fill-opacity="0.6" stroke="black" stroke-width="1" />
<path d="M96.06659263999283,-1.4045954945898678 L97.2853490592166,-0.6686455548745689 L98.18020479541414,-0.33612884325465164" fill="green" fill-opacity="0.6" stroke="black" stroke-width="1" />
<path d="M97.2853490592166,0.6686455548745689 L98.18020479541414,0.33612884325465164 L99.69961133706805,0.2408499062938373" fill="orange" fill-opacity="0.6" stroke="black" stroke-width="1" />
<path d="M97.2853490592166,-0.6686455548745689 L98.18020479541414,-0.33612884325465164 L99.69961133706805,-0.2408499062938373" fill="yellow" fill-opacity="0.6" stroke="black" stroke-width="1" />
<path d="M98.18020479541414,0.33612884325465164 L99.69961133706805,0.2408499062938373 L100.0,-0.0" fill="yellow" fill-opacity="0.6" stroke="black" stroke-width="1" />
<path d="M98.18020479541414,-0.33612884325465164 L99.69961133706805,-0.2408499062938373 L100.0,-0.0" fill="green" fill-opacity="0.6" stroke="black" stroke-width="1" />
<path d="M0.0,-17.0 L7.833382243587906,-20.734838065459194 L0.0,-22.0" fill="black" fill-opacity="0.6" stroke="black" stroke-width="1" />
<path d="M0.0,17.0 L7.833382243587906,20.734838065459194 L0.0,22.0" fill="brown" fill-opacity="0.6" stroke="black" stroke-width="1" />
<path d="M0.0,83.0 L7.833382243587906,79.2651619345408 L0.0,78.0" fill="orange" fill-opacity="0.6" stroke="black" stroke-width="1" />
<path d="M0.0,-83.0 L7.833382243587906,-79.2651619345408 L0.0,-78.0" fill="green" fill-opacity="0.6" stroke="black" stroke-width="1" />
<path d="M0.0,-22.0 L8.646754849749568,-24.524431149758186 L0.0,-28.0" fill="brown" fill-opacity="0.6" stroke="black" stroke-width="1" />
<path d="M0.0,22.0 L8.646754849749568,24.524431149758186 L0.0,28.0" fill="green" fill-opacity="0.6" stroke="black" stroke-width="1" />
<path d="M0.0,78.0 L8.646754849749568,75.47556885024181 L0.0,72.0" fill="orange" fill-opacity="0.6" stroke="black" stroke-width="1" />
<path d="M0.0,-78.0 L8.646754849749568,-75.47556885024181 L0.0,-72.0" fill="brown" fill-opacity="0.6" stroke="black" stroke-width="1" />
<path d="M20.0,-20.0 L7.76361111138037,-15.605577576735824 L3.8309351542617174,-11.241209069592218" fill="orange" fill-opacity="0.6" stroke="black" stroke-width="1" />
<path d="M20.0,20.0 L7.76361111138037,15.605577576735824 L3.8309351542617174,11.241209069592218" fill="purple" fill-opacity="0.6" stroke="black" stroke-width="1" />
<path d="M20.0,80.0 L7.76361111138037,84.39442242326417 L3.8309351542617174,88.75879093040778" fill="yellow" fill-opacity="0.6" stroke="black" stroke-width="1" />
<path d="M20.0,-80.0 L7.76361111138037,-84.39442242326417 L3.8309351542617174,-88.75879093040778" fill="green" fill-opacity="0.6" stroke="black" stroke-width="1" />
<path d="M7.76361111138037,-15.605577576735824 L3.8309351542617174,-11.241209069592218 L3.4520462785694863,-10.961859869800078" fill="green" fill-opacity="0.6" stroke="black" stroke-width="1" />
<path d="M7.76361111138037,15.605577576735824 L3.8309351542617174,11.241209069592218 L3.4520462785694863,10.961859869800078" fill="green" fill-opacity="0.6" stroke="black" stroke-width="1" />
<path d="M7.76361111138037,84.39442242326417 L3.8309351542617174,88.75879093040778 L3.4520462785694863,89.03814013019992" fill="blue" fill-opacity="0.6" stroke="black" stroke-width="1" />
<path d="M7.76361111138037,-84.39442242326417 L3.8309351542617174,-88.75879093040778 L3.4520462785694863,-89.03814013019992" fill="green" fill-opacity="0.6" stroke="black" stroke-width="1" />
<path d="M3.8309351542617174,-11.241209069592218 L3.4520462785694863,-10.961859869800078 L2.9174985815517336,-9.841602919839849" fill="blue" fill-opacity="0.6" stroke="black" stroke-width="1" />
<path d="M3.8309351542617174,11.241209069592218 L3.4520462785694863,10.961859869800078 L2.9174985815517336,9.841602919839849" fill="brown" fill-opacity="0.6" stroke="black" stroke-width="1" />
<path d="M3.8309351542617174,88.75879093040778 L3.4520462785694863,89.03814013019992 L2.9174985815517336,90.15839708016014" fill="green" fill-opacity="0.6" stroke="black" stroke-width="1" />
<path d="M3.8309351542617174,-88.75879093040778 L3.4520462785694863,-89.03814013019992 L2.9174985815517336,-90.15839708016014" fill="brown" fill-opacity="0.6" stroke="black" stroke-width="1" />
<path d="M3.4520462785694863,-10.961859869800078 L2.9174985815517336,-9.841602919839849 L2.799149247481683,-8.390721987010584" fill="green" fill-opacity="0.6" stroke="black" stroke-width="1" />
<path d="M3.4520462785694863,10.961859869800078 L2.9174985815517336,9.841602919839849 L2.799149247481683,8.390721987010584" fill="black" fill-opacity="0.6" stroke="black" stroke-width="1" />
<path d="M3.4520462785694863,89.03814013019992 L2.9174985815517336,90.15839708016014 L2.799149247481683,91.60927801298942" fill="green" fill-opacity="0.6" stroke="black" stroke-width="1" />
<path d="M3.4520462785694863,-89.03814013019992 L2.9174985815517336,-90.15839708016014 L2.799149247481683,-91.60927801298942" fill="red" fill-opacity="0.6" stroke="black" stroke-width="1" />
<path d="M2.9174985815517336,-9.841602919839849 L2.799149247481683,-8.390721987010584 L2.6365259368246714,-7.984498668255708" fill="red" fill-opacity="0.6" stroke="black" stroke-width="1" />
<path d="M2.9174985815517336,9.841602919839849 L2.799149247481683,8.390721987010584 L2.6365259368246714,7.984498668255708" fill="blue" fill-opacity="0.6" stroke="black" stroke-width="1" />
<path d="M2.9174985815517336,90.15839708016014 L2.799149247481683,91.60927801298942 L2.6365259368246714,92.01550133174429" fill="yellow" fill-opacity="0.6" stroke="black" stroke-width="1" />
<path d="M2.9174985815517336,-90.15839708016014 L2.799149247481683,-91.60927801298942 L2.6365259368246714,-92.01550133174429" fill="green" fill-opacity="0.6" stroke="black" stroke-width="1" />
<path d="M2.799149247481683,-8.390721987010584 L2.6365259368246714,-7.984498668255708 L2.363896640182738,-5.9382518479255015" fill="yellow" fill-opacity="0.6" stroke="black" stroke-width="1" />
<path d="M2.799149247481683,8.390721987010584 L2.6365259368246714,7.984498668255708 L2.363896640182738,5.9382518479255015" fill="yellow" fill-opacity="0.6" stroke="black" stroke-width="1" />
<path d="M2.799149247481683,91.60927801298942 L2.6365259368246714,92.01550133174429 L2.363896640182738,94.0617481520745" fill="brown" fill-opacity="0.6" stroke="black" stroke-width="1" />
<path d="M2.799149247481683,-91.60927801298942 L2.6365259368246714,-92.01550133174429 L2.363896640182738,-94.0617481520745" fill="pink" fill-opacity="0.6" stroke="black" stroke-width="1" />
<path d="M2.6365259368246714,-7.984498668255708 L2.363896640182738,-5.9382518479255015 L1.4045954945898678,-3.933407360007168" fill="red" fill-opacity="0.6" stroke="black" stroke-width="1" />
<path d="M2.6365259368246714,7.984498668255708 L2.363896640182738,5.9382518479255015 L1.4045954945898678,3.933407360007168" fill="orange" fill-opacity="0.6" stroke="black" stroke-width="1" />
<path d="M2.6365259368246714,92.01550133174429 L2.363896640182738,94.0617481520745 L1.4045954945898678,96.06659263999283" fill="blue" fill-opacity="0.6" stroke="black" stroke-width="1" />
<path d="M2.6365259368246714,-92.01550133174429 L2.363896640182738,-94.0617481520745 L1.4045954945898678,-96.06659263999283" fill="yellow" fill-opacity="0.6" stroke="black" stroke-width="1" />
<path d="M2.363896640182738,-5.9382518479255015 L1.4045954945898678,-3.933407360007168 L0.6686455548745689,-2.7146509407833976" fill="purple" fill-opacity="0.6" stroke="black" stroke-width="1" />
<path d="M2.363896640182738,5.9382518479255015 L1.4045954945898678,3.933407360007168 L0.6686455548745689,2.7146509407833976" fill="blue" fill-opacity="0.6" stroke="black" stroke-width="1" />
<path d="M2.363896640182738,94.0617481520745 L1.4045954945898678,96.06659263999283 L0.6686455548745689,97.2853490592166" fill="purple" fill-opacity="0.6" stroke="black" stroke-width="1" />
<path d="M2.363896640182738,-94.0617481520745 L1.4045954945898678,-96.06659263999283 L0.6686455548745689,-97.2853490592166" fill="orange" fill-opacity="0.6" stroke="black" stroke-width="1" />
<path d="M1.4045954945898678,-3.933407360007168 L0.6686455548745689,-2.7146509407833976 L0.33612884325465164,-1.8197952045858556" fill="purple" fill-opacity="0.6" stroke="black" stroke-width="1" />
<path d="M1.4045954945898678,3.933407360007168 L0.6686455548745689,2.7146509407833976 L0.33612884325465164,1.8197952045858556" fill="pink" fill-opacity="0.6" stroke="black" stroke-width="1" />
<path d="M1.4045954945898678,96.06659263999283 L0.6686455548745689,97.2853490592166 L0.33612884325465164,98.18020479541414" fill="purple" fill-opacity="0.6" stroke="black" stroke-width="1" />
<path d="M1.4045954945898678,-96.06659263999283 L0.6686455548745689,-97.2853490592166 L0.33612884325465164,-98.18020479541414" fill="black" fill-opacity="0.6" stroke="black" stroke-width="1" />
<path d="M0.6686455548745689,-2.7146509407833976 L0.33612884325465164,-1.8197952045858556 L0.2408499062938373,-0.30038866293194966" fill="black" fill-opacity="0.6" stroke="black" stroke-width="1" />
<path d="M0.6686455548745689,2.7146509407833976 L0.33612884325465164,1.8197952045858556 L0.2408499062938373,0.30038866293194966" fill="green" fill-opacity="0.6" stroke="black" stroke-width="1" />
<path d="M0.6686455548745689,97.2853490592166 L0.33612884325465164,98.18020479541414 L0.2408499062938373,99.69961133706805" fill="black" fill-opacity="0.6" stroke="black" stroke-width="1" />
<path d="M0.6686455548745689,-97.2853490592166 L0.33612884325465164,-98.18020479541414 L0.2408499062938373,-99.69961133706805" fill="yellow" fill-opacity="0.6" stroke="black" stroke-width="1" />
<path d="M0.33612884325465164,-1.8197952045858556 L0.2408499062938373,-0.30038866293194966 L0.0,-0.0" fill="yellow" fill-opacity="0.6" stroke="black" stroke-width="1" />
<path d="M0.33612884325465164,1.8197952045858556 L0.2408499062938373,0.30038866293194966 L0.0,-0.0" fill="purple" fill-opacity="0.6" stroke="black" stroke-width="1" />
<path d="M0.33612884325465164,98.18020479541414 L0.2408499062938373,99.69961133706805 L0.0,100.0" fill="yellow" fill-opacity="0.6" stroke="black" stroke-width="1" />
<path d="M0.33612884325465164,-98.18020479541414 L0.2408499062938373,-99.69961133706805 L0.0,-100.0" fill="purple" fill-opacity="0.6" stroke="black" stroke-width="1" />
<path d="M0.0,83.0 L-7.833382243587906,79.2651619345408 L0.0,78.0" fill="orange" fill-opacity="0.6" stroke="black" stroke-width="1" />
<path d="M0.0,-17.0 L-7.833382243587906,-20.734838065459194 L0.0,-22.0" fill="black" fill-opacity="0.6" stroke="black" stroke-width="1" />
<path d="M0.0,17.0 L-7.833382243587906,20.7348380654592 L0.0,22.0" fill="red" fill-opacity="0.6" stroke="black" stroke-width="1" />
<path d="M0.0,-83.0 L-7.833382243587906,-79.2651619345408 L0.0,-78.0" fill="yellow" fill-opacity="0.6" stroke="black" stroke-width="1" />
<path d="M0.0,78.0 L-8.646754849749568,75.47556885024181 L0.0,72.0" fill="green" fill-opacity="0.6" stroke="black" stroke-width="1" />
<path d="M0.0,-22.0 L-8.646754849749568,-24.524431149758186 L0.0,-28.0" fill="brown" fill-opacity="0.6" stroke="black" stroke-width="1" />
<path d="M0.0,22.0 L-8.646754849749568,24.524431149758186 L0.0,28.0" fill="blue" fill-opacity="0.6" stroke="black" stroke-width="1" />
<path d="M0.0,-78.0 L-8.646754849749568,-75.47556885024181 L0.0,-72.0" fill="purple" fill-opacity="0.6" stroke="black" stroke-width="1" />
<path d="M-20.0,80.0 L-7.76361111138037,84.39442242326417 L-3.8309351542617174,88.75879093040778" fill="orange" fill-opacity="0.6" stroke="black" stroke-width="1" />
<path d="M-20.0,-20.0 L-7.76361111138037,-15.605577576735824 L-3.8309351542617174,-11.241209069592218" fill="pink" fill-opacity="0.6" stroke="black" stroke-width="1" />
<path d="M-20.0,20.0 L-7.76361111138037,15.605577576735826 L-3.8309351542617174,11.241209069592216" fill="pink" fill-opacity="0.6" stroke="black" stroke-width="1" />
<path d="M-20.0,-80.0 L-7.76361111138037,-84.39442242326417 L-3.8309351542617174,-88.75879093040778" fill="pink" fill-opacity="0.6" stroke="black" stroke-width="1" />
<path d="M-7.76361111138037,84.39442242326417 L-3.8309351542617174,88.75879093040778 L-3.4520462785694863,89.03814013019992" fill="brown" fill-opacity="0.6" stroke="black" stroke-width="1" />
<path d="M-7.76361111138037,-15.605577576735824 L-3.8309351542617174,-11.241209069592218 L-3.4520462785694863,-10.961859869800078" fill="purple" fill-opacity="0.6" stroke="black" stroke-width="1" />
<path d="M-7.76361111138037,15.605577576735826 L-3.8309351542617174,11.241209069592216 L-3.4520462785694863,10.96185986980008" fill="red" fill-opacity="0.6" stroke="black" stroke-width="1" />
<path d="M-7.76361111138037,-84.39442242326417 L-3.8309351542617174,-88.75879093040778 L-3.4520462785694863,-89.03814013019992" fill="pink" fill-opacity="0.6" stroke="black" stroke-width="1" />
<path d="M-3.8309351542617174,88.75879093040778 L-3.4520462785694863,89.03814013019992 L-2.9174985815517336,90.15839708016016" fill="pink" fill-opacity="0.6" stroke="black" stroke-width="1" />
<path d="M-3.8309351542617174,-11.241209069592218 L-3.4520462785694863,-10.961859869800078 L-2.9174985815517336,-9.841602919839849" fill="orange" fill-opacity="0.6" stroke="black" stroke-width="1" />
<path d="M-3.8309351542617174,11.241209069592216 L-3.4520462785694863,10.96185986980008 L-2.9174985815517336,9.841602919839843" fill="purple" fill-opacity="0.6" stroke="black" stroke-width="1" />
<path d="M-3.8309351542617174,-88.75879093040778 L-3.4520462785694863,-89.03814013019992 L-2.9174985815517336,-90.15839708016014" fill="black" fill-opacity="0.6" stroke="black" stroke-width="1" />
<path d="M-3.4520462785694863,89.03814013019992 L-2.9174985815517336,90.15839708016016 L-2.799149247481683,91.60927801298942" fill="red" fill-opacity="0.6" stroke="black" stroke-width="1" />
<path d="M-3.4520462785694863,-10.961859869800078 L-2.9174985815517336,-9.841602919839849 L-2.799149247481683,-8.390721987010584" fill="red" fill-opacity="0.6" stroke="black" stroke-width="1" />
<path d="M-3.4520462785694863,10.96185986980008 L-2.9174985815517336,9.841602919839843 L-2.799149247481683,8.39072198701058" fill="green" fill-opacity="0.6" stroke="black" stroke-width="1" />
<path d="M-3.4520462785694863,-89.03814013019992 L-2.9174985815517336,-90.15839708016014 L-2.799149247481683,-91.60927801298942" fill="red" fill-opacity="0.6" stroke="black" stroke-width="1" />
<path d="M-2.9174985815517336,90.15839708016016 L-2.799149247481683,91.60927801298942 L-2.6365259368246714,92.01550133174429" fill="red" fill-opacity="0.6" stroke="black" stroke-width="1" />
<path d="M-2.9174985815517336,-9.841602919839849 L-2.799149247481683,-8.390721987010584 L-2.6365259368246714,-7.984498668255708" fill="black" fill-opacity="0.6" stroke="black" stroke-width="1" />
<path d="M-2.9174985815517336,9.841602919839843 L-2.799149247481683,8.39072198701058 L-2.6365259368246714,7.984498668255711" fill="black" fill-opacity="0.6" stroke="black" stroke-width="1" />
<path d="M-2.9174985815517336,-90.15839708016014 L-2.799149247481683,-91.60927801298942 L-2.6365259368246714,-92.01550133174429" fill="yellow" fill-opacity="0.6" stroke="black" stroke-width="1" />
<path d="M-2.799149247481683,91.60927801298942 L-2.6365259368246714,92.01550133174429 L-2.363896640182738,94.0617481520745" fill="green" fill-opacity="0.6" stroke="black" stroke-width="1" />
<path d="M-2.799149247481683,-8.390721987010584 L-2.6365259368246714,-7.984498668255708 L-2.363896640182738,-5.9382518479255015" fill="yellow" fill-opacity="0.6" stroke="black" stroke-width="1" />
<path d="M-2.799149247481683,8.39072198701058 L-2.6365259368246714,7.984498668255711 L-2.363896640182738,5.9382518479255" fill="red" fill-opacity="0.6" stroke="black" stroke-width="1" />
<path d="M-2.799149247481683,-91.60927801298942 L-2.6365259368246714,-92.01550133174429 L-2.363896640182738,-94.0617481520745" fill="pink" fill-opacity="0.6" stroke="black" stroke-width="1" />
<path d="M-2.6365259368246714,92.01550133174429 L-2.363896640182738,94.0617481520745 L-1.4045954945898678,96.06659263999283" fill="black" fill-opacity="0.6" stroke="black" stroke-width="1" />
<path d="M-2.6365259368246714,-7.984498668255708 L-2.363896640182738,-5.9382518479255015 L-1.4045954945898678,-3.933407360007168" fill="orange" fill-opacity="0.6" stroke="black" stroke-width="1" />
<path d="M-2.6365259368246714,7.984498668255711 L-2.363896640182738,5.9382518479255 L-1.4045954945898678,3.933407360007166" fill="blue" fill-opacity="0.6" stroke="black" stroke-width="1" />
<path d="M-2.6365259368246714,-92.01550133174429 L-2.363896640182738,-94.0617481520745 L-1.4045954945898678,-96.06659263999283" fill="black" fill-opacity="0.6" stroke="black" stroke-width="1" />
<path d="M-2.363896640182738,94.0617481520745 L-1.4045954945898678,96.06659263999283 L-0.6686455548745689,97.2853490592166" fill="pink" fill-opacity="0.6" stroke="black" stroke-width="1" />
<path d="M-2.363896640182738,-5.9382518479255015 L-1.4045954945898678,-3.933407360007168 L-0.6686455548745689,-2.7146509407833976" fill="yellow" fill-opacity="0.6" stroke="black" stroke-width="1" />
<path d="M-2.363896640182738,5.9382518479255 L-1.4045954945898678,3.933407360007166 L-0.6686455548745689,2.7146509407834003" fill="pink" fill-opacity="0.6" stroke="black" stroke-width="1" />
<path d="M-2.363896640182738,-94.0617481520745 L-1.4045954945898678,-96.06659263999283 L-0.6686455548745689,-97.2853490592166" fill="black" fill-opacity="0.6" stroke="black" stroke-width="1" />
<path d="M-1.4045954945898678,96.06659263999283 L-0.6686455548745689,97.2853490592166 L-0.33612884325465164,98.18020479541414" fill="purple" fill-opacity="0.6" stroke="black" stroke-width="1" />
<path d="M-1.4045954945898678,-3.933407360007168 L-0.6686455548745689,-2.7146509407833976 L-0.33612884325465164,-1.8197952045858556" fill="pink" fill-opacity="0.6" stroke="black" stroke-width="1" />
<path d="M-1.4045954945898678,3.933407360007166 L-0.6686455548745689,2.7146509407834003 L-0.33612884325465164,1.8197952045858585" fill="green" fill-opacity="0.6" stroke="black" stroke-width="1" />
<path d="M-1.4045954945898678,-96.06659263999283 L-0.6686455548745689,-97.2853490592166 L-0.33612884325465164,-98.18020479541414" fill="black" fill-opacity="0.6" stroke="black" stroke-width="1" />
<path d="M-0.6686455548745689,97.2853490592166 L-0.33612884325465164,98.18020479541414 L-0.2408499062938373,99.69961133706805" fill="yellow" fill-opacity="0.6" stroke="black" stroke-width="1" />
<path d="M-0.6686455548745689,-2.7146509407833976 L-0.33612884325465164,-1.8197952045858556 L-0.2408499062938373,-0.30038866293194966" fill="pink" fill-opacity="0.6" stroke="black" stroke-width="1" />
<path d="M-0.6686455548745689,2.7146509407834003 L-0.33612884325465164,1.8197952045858585 L-0.2408499062938373,0.300388662931951" fill="brown" fill-opacity="0.6" stroke="black" stroke-width="1" />
<path d="M-0.6686455548745689,-97.2853490592166 L-0.33612884325465164,-98.18020479541414 L-0.2408499062938373,-99.69961133706805" fill="yellow" fill-opacity="0.6" stroke="black" stroke-width="1" />
<path d="M-0.33612884325465164,98.18020479541414 L-0.2408499062938373,99.69961133706805 L0.0,100.0" fill="brown" fill-opacity="0.6" stroke="black" stroke-width="1" />
<path d="M-0.33612884325465164,-1.8197952045858556 L-0.2408499062938373,-0.30038866293194966 L0.0,-0.0" fill="red" fill-opacity="0.6" stroke="black" stroke-width="1" />
<path d="M-0.33612884325465164,1.8197952045858585 L-0.2408499062938373,0.300388662931951 L0.0,-0.0" fill="pink" fill-opacity="0.6" stroke="black" stroke-width="1" />
<path d="M-0.33612884325465164,-98.18020479541414 L-0.2408499062938373,-99.69961133706805 L0.0,-100.0" fill="blue" fill-opacity="0.6" stroke="black" stroke-width="1" />
<path d="M-83.0,-0.0 L-79.2651619345408,-7.833382243587906 L-78.0,-0.0" fill="blue" fill-opacity="0.6" stroke="black" stroke-width="1" />
<path d="M-83.0,-0.0 L-79.2651619345408,7.833382243587906 L-78.0,-0.0" fill="orange" fill-opacity="0.6" stroke="black" stroke-width="1" />
<path d="M-78.0,-0.0 L-75.47556885024181,-8.646754849749568 L-72.0,-0.0" fill="pink" fill-opacity="0.6" stroke="black" stroke-width="1" />
<path d="M-78.0,-0.0 L-75.47556885024181,8.646754849749568 L-72.0,-0.0" fill="red" fill-opacity="0.6" stroke="black" stroke-width="1" />
<path d="M-50.0,-49.0 L-67.0,-33.0 L-76.0,-24.0" fill="blue" fill-opacity="0.6" stroke="black" stroke-width="1" />
<path d="M-50.0,49.0 L-67.0,33.0 L-76.0,24.0" fill="brown" fill-opacity="0.6" stroke="black" stroke-width="1" />
<path d="M-67.0,-33.0 L-76.0,-24.0 L-77.0,-23.0" fill="pink" fill-opacity="0.6" stroke="black" stroke-width="1" />
<path d="M-67.0,33.0 L-76.0,24.0 L-77.0,23.0" fill="purple" fill-opacity="0.6" stroke="black" stroke-width="1" />
<path d="M-77.0,-23.0 L-80.0,-20.0 L-84.39442242326417,-7.76361111138037" fill="yellow" fill-opacity="0.6" stroke="black" stroke-width="1" />
<path d="M-77.0,23.0 L-80.0,20.0 L-84.39442242326417,7.76361111138037" fill="pink" fill-opacity="0.6" stroke="black" stroke-width="1" />
<path d="M-80.0,-20.0 L-84.39442242326417,-7.76361111138037 L-88.75879093040778,-3.8309351542617174" fill="blue" fill-opacity="0.6" stroke="black" stroke-width="1" />
<path d="M-80.0,20.0 L-84.39442242326417,7.76361111138037 L-88.75879093040778,3.8309351542617174" fill="black" fill-opacity="0.6" stroke="black" stroke-width="1" />
<path d="M-84.39442242326417,-7.76361111138037 L-88.75879093040778,-3.8309351542617174 L-89.03814013019992,-3.4520462785694863" fill="orange" fill-opacity="0.6" stroke="black" stroke-width="1" />
<path d="M-84.39442242326417,7.76361111138037 L-88.75879093040778,3.8309351542617174 L-89.03814013019992,3.4520462785694863" fill="yellow" fill-opacity="0.6" stroke="black" stroke-width="1" />
<path d="M-88.75879093040778,-3.8309351542617174 L-89.03814013019992,-3.4520462785694863 L-90.15839708016014,-2.9174985815517336" fill="brown" fill-opacity="0.6" stroke="black" stroke-width="1" />
<path d="M-88.75879093040778,3.8309351542617174 L-89.03814013019992,3.4520462785694863 L-90.15839708016014,2.9174985815517336" fill="orange" fill-opacity="0.6" stroke="black" stroke-width="1" />
<path d="M-89.03814013019992,-3.4520462785694863 L-90.15839708016014,-2.9174985815517336 L-91.60927801298942,-2.799149247481683" fill="red" fill-opacity="0.6" stroke="black" stroke-width="1" />
<path d="M-89.03814013019992,3.4520462785694863 L-90.15839708016014,2.9174985815517336 L-91.60927801298942,2.799149247481683" fill="brown" fill-opacity="0.6" stroke="black" stroke-width="1" />
<path d="M-90.15839708016014,-2.9174985815517336 L-91.60927801298942,-2.799149247481683 L-92.01550133174429,-2.6365259368246714" fill="blue" fill-opacity="0.6" stroke="black" stroke-width="1" />
<path d="M-90.15839708016014,2.9174985815517336 L-91.60927801298942,2.799149247481683 L-92.01550133174429,2.6365259368246714" fill="red" fill-opacity="0.6" stroke="black" stroke-width="1" />
<path d="M-91.60927801298942,-2.799149247481683 L-92.01550133174429,-2.6365259368246714 L-94.0617481520745,-2.363896640182738" fill="orange" fill-opacity="0.6" stroke="black" stroke-width="1" />
<path d="M-91.60927801298942,2.799149247481683 L-92.01550133174429,2.6365259368246714 L-94.0617481520745,2.363896640182738" fill="orange" fill-opacity="0.6" stroke="black" stroke-width="1" />
<path d="M-92.01550133174429,-2.6365259368246714 L-94.0617481520745,-2.363896640182738 L-96.06659263999283,-1.4045954945898678" fill="green" fill-opacity="0.6" stroke="black" stroke-width="1" />
<path d="M-92.01550133174429,2.6365259368246714 L-94.0617481520745,2.363896640182738 L-96.06659263999283,1.4045954945898678" fill="blue" fill-opacity="0.6" stroke="black" stroke-width="1" />
<path d="M-94.0617481520745,-2.363896640182738 L-96.06659263999283,-1.4045954945898678 L-97.2853490592166,-0.6686455548745689" fill="green" fill-opacity="0.6" stroke="black" stroke-width="1" />
<path d="M-94.0617481520745,2.363896640182738 L-96.06659263999283,1.4045954945898678 L-97.2853490592166,0.6686455548745689" fill="brown" fill-opacity="0.6" stroke="black" stroke-width="1" />
<path d="M-96.06659263999283,-1.4045954945898678 L-97.2853490592166,-0.6686455548745689 L-98.18020479541414,-0.33612884325465164" fill="red" fill-opacity="0.6" stroke="black" stroke-width="1" />
<path d="M-96.06659263999283,1.4045954945898678 L-97.2853490592166,0.6686455548745689 L-98.18020479541414,0.33612884325465164" fill="green" fill-opacity="0.6" stroke="black" stroke-width="1" />
<path d="M-97.2853490592166,-0.6686455548745689 L-98.18020479541414,-0.33612884325465164 L-99.69961133706805,-0.2408499062938373" fill="pink" fill-opacity="0.6" stroke="black" stroke-width="1" />
<path d="M-97.2853490592166,0.6686455548745689 L-98.18020479541414,0.33612884325465164 L-99.69961133706805,0.2408499062938373" fill="yellow" fill-opacity="0.6" stroke="black" stroke-width="1" />
<path d="M-98.18020479541414,-0.33612884325465164 L-99.69961133706805,-0.2408499062938373 L-100.0,-0.0" fill="red" fill-opacity="0.6" stroke="black" stroke-width="1" />
<path d="M-98.18020479541414,0.33612884325465164 L-99.69961133706805,0.2408499062938373 L-100.0,-0.0" fill="orange" fill-opacity="0.6" stroke="black" stroke-width="1" />
</svg>