<?xml version="1.0" encoding="UTF-8"?>
<svg xmlns="http://www.w3.org/2000/svg" xmlns:xlink="http://www.w3.org/1999/xlink"
     width="250" height="250" viewBox="-125.0 -125.0 250 250">
<defs>
</defs>
<path d="M0.0,-0.0 L11.103454229053462,-1.3132526437962422 L11.89785998946662,-1.634244456415767" fill="blue" fill-opacity="0.6" stroke="black" stroke-width="1" />
<path d="M0.0,-0.0 L11.103454229053462,1.3132526437962422 L11.89785998946662,1.634244456415767" fill="purple" fill-opacity="0.6" stroke="black" stroke-width="1" />
<path d="M11.103454229053462,-1.3132526437962422 L11.89785998946662,-1.634244456415767 L15.0,-0.0" fill="purple" fill-opacity="0.6" stroke="black" stroke-width="1" />
<path d="M11.103454229053462,1.3132526437962422 L11.89785998946662,1.634244456415767 L15.0,-0.0" fill="black" fill-opacity="0.6" stroke="black" stroke-width="1" />
<path d="M15.0,-0.0 L15.780618307042086,-4.19283587436698 L20.224896157293724,-4.540302821685975" fill="red" fill-opacity="0.6" stroke="black" stroke-width="1" />
<path d="M15.0,-0.0 L15.780618307042086,4.19283587436698 L20.224896157293724,4.540302821685975" fill="black" fill-opacity="0.6" stroke="black" stroke-width="1" />
<path d="M15.780618307042086,-4.19283587436698 L20.224896157293724,-4.540302821685975 L20.879724691370473,-5.87914548304563" fill="pink" fill-opacity="0.6" stroke="black" stroke-width="1" />
<path d="M15.780618307042086,4.19283587436698 L20.224896157293724,4.540302821685975 L20.879724691370473,5.87914548304563" fill="orange" fill-opacity="0.6" stroke="black" stroke-width="1" />
<path d="M20.224896157293724,-4.540302821685975 L20.879724691370473,-5.87914548304563 L23.0,-0.0" fill="blue" fill-opacity="0.6" stroke="black" stroke-width="1" />
<path d="M20.224896157293724,4.540302821685975 L20.879724691370473,5.87914548304563 L23.0,-0.0" fill="orange" fill-opacity="0.6" stroke="black" stroke-width="1" />
<path d="M23.0,-0.0 L23.480683518726295,-14.689801990715557 L29.04845908009549,-17.685675709700526" fill="orange" fill-opacity="0.6" stroke="black" stroke-width="1" />
<path d="M23.0,-0.0 L23.480683518726295,14.689801990715557 L29.04845908009549,17.685675709700526" fill="blue" fill-opacity="0.6" stroke="black" stroke-width="1" />
<path d="M23.480683518726295,-14.689801990715557 L29.04845908009549,-17.685675709700526 L37.0,-0.0" fill="blue" fill-opacity="0.6" stroke="black" stroke-width="1" />
<path d="M23.480683518726295,14.689801990715557 L29.04845908009549,17.685675709700526 L37.0,-0.0" fill="orange" fill-opacity="0.6" stroke="black" stroke-width="1" />
<path d="M50.0,-11.0 L30.516575523509772,-21.358591159297795 L50.0,-22.0" fill="brown" fill-opacity="0.6" stroke="black" stroke-width="1" />
<path d="M50.0,11.0 L30.516575523509772,21.358591159297795 L50.0,22.0" fill="blue" fill-opacity="0.6" stroke="black" stroke-width="1" />
<path d="M50.0,-25.0 L36.73848667608728,-25.386621337355177 L43.82226675205183,-27.44930592113911" fill="green" fill-opacity="0.6" stroke="black" stroke-width="1" />
<path d="M50.0,25.0 L36.73848667608728,25.386621337355177 L43.82226675205183,27.44930592113911" fill="yellow" fill-opacity="0.6" stroke="black" stroke-width="1" />
<path d="M36.73848667608728,-25.386621337355177 L43.82226675205183,-27.44930592113911 L47.67825598623858,-28.471870295338032" fill="black" fill-opacity="0.6" stroke="black" stroke-width="1" />
<path d="M36.73848667608728,25.386621337355177 L43.82226675205183,27.44930592113911 L47.67825598623858,28.471870295338032" fill="green" fill-opacity="0.6" stroke="black" stroke-width="1" />
<path d="M43.82226675205183,-27.44930592113911 L47.67825598623858,-28.471870295338032 L48.374762538455684,-30.17976543175206" fill="pink" fill-opacity="0.6" stroke="black" stroke-width="1" />
<path d="M43.82226675205183,27.44930592113911 L47.67825598623858,28.471870295338032 L48.374762538455684,30.17976543175206" fill="blue" fill-opacity="0.6" stroke="black" stroke-width="1" />
<path d="M47.67825598623858,-28.471870295338032 L48.374762538455684,-30.17976543175206 L50.0,-36.0" fill="pink" fill-opacity="0.6" stroke="black" stroke-width="1" />
<path d="M47.67825598623858,28.471870295338032 L48.374762538455684,30.17976543175206 L50.0,36.0" fill="green" fill-opacity="0.6" stroke="black" stroke-width="1" />
<path d="M50.0,-36.0 L49.41886803251827,-39.424495843503394 L50.0,-47.0" fill="yellow" fill-opacity="0.6" stroke="black" stroke-width="1" />
<path d="M50.0,36.0 L49.41886803251827,39.424495843503394 L50.0,47.0" fill="black" fill-opacity="0.6" stroke="black" stroke-width="1" />
<path d="M31.0,69.0 L13.0,87.0 L9.0,91.0" fill="purple" fill-opacity="0.6" stroke="black" stroke-width="1" />
<path d="M31.0,-69.0 L13.0,-87.0 L9.0,-91.0" fill="blue" fill-opacity="0.6" stroke="black" stroke-width="1" />
<path d="M13.0,87.0 L9.0,91.0 L8.0,92.0" fill="red" fill-opacity="0.6" stroke="black" stroke-width="1" />
<path d="M13.0,-87.0 L9.0,-91.0 L8.0,-92.0" fill="green" fill-opacity="0.6" stroke="black" stroke-width="1" />
<path d="M9.0,91.0 L8.0,92.0 L0.6068021491441499,97.20090295351746" fill="brown" fill-opacity="0.6" stroke="black" stroke-width="1" />
<path d="M9.0,-91.0 L8.0,-92.0 L0.6068021491441499,-97.20090295351746" fill="black" fill-opacity="0.6" stroke="black" stroke-width="1" />
<path d="M8.0,-8.0 L2.7990970464825407,-0.6068021491441499 L2.3424693901060167,-0.32334202245126453" fill="orange" fill-opacity="0.6" stroke="black" stroke-width="1" />
<path d="M8.0,8.0 L2.7990970464825407,0.6068021491441499 L2.3424693901060167,0.32334202245126453" fill="brown" fill-opacity="0.6" stroke="black" stroke-width="1" />
<path d="M2.7990970464825407,-0.6068021491441499 L2.3424693901060167,-0.32334202245126453 L0.6149692975945587,-0.07122871213083945" fill="pink" fill-opacity="0.6" stroke="black" stroke-width="1" />
<path d="M2.7990970464825407,0.6068021491441499 L2.3424693901060167,0.32334202245126453 L0.6149692975945587,0.07122871213083945" fill="purple" fill-opacity="0.6" stroke="black" stroke-width="1" />
<path d="M2.3424693901060167,-0.32334202245126453 L0.6149692975945587,-0.07122871213083945 L0.0,-0.0" fill="purple" fill-opacity="0.6" stroke="black" stroke-width="1" />
<path d="M2.3424693901060167,0.32334202245126453 L0.6149692975945587,0.07122871213083945 L0.0,-0.0" fill="black" fill-opacity="0.6" stroke="black" stroke-width="1" />
<path d="M0.0,-0.0 L-11.103454229053462,-1.3132526437962422 L-11.89785998946662,-1.634244456415767" fill="orange" fill-opacity="0.6" stroke="black" stroke-width="1" />
<path d="M0.0,-0.0 L-11.103454229053462,1.3132526437962422 L-11.89785998946662,1.634244456415767" fill="green" fill-opacity="0.6" stroke="black" stroke-width="1" />
<path d="M-11.103454229053462,-1.3132526437962422 L-11.89785998946662,-1.634244456415767 L-15.0,-0.0" fill="yellow" fill-opacity="0.6" stroke="black" stroke-width="1" />
<path d="M-11.103454229053462,1.3132526437962422 L-11.89785998946662,1.634244456415767 L-15.0,-0.0" fill="pink" fill-opacity="0.6" stroke="black" stroke-width="1" />
<path d="M-15.0,-0.0 L-15.780618307042086,-4.19283587436698 L-20.224896157293724,-4.540302821685975" fill="orange" fill-opacity="0.6" stroke="black" stroke-width="1" />
<path d="M-15.0,-0.0 L-15.780618307042086,4.19283587436698 L-20.224896157293724,4.540302821685975" fill="pink" fill-opacity="0.6" stroke="black" stroke-width="1" />
<path d="M-15.780618307042086,-4.19283587436698 L-20.224896157293724,-4.540302821685975 L-20.879724691370473,-5.87914548304563" fill="brown" fill-opacity="0.6" stroke="black" stroke-width="1" />
<path d="M-15.780618307042086,4.19283587436698 L-20.224896157293724,4.540302821685975 L-20.879724691370473,5.87914548304563" fill="green" fill-opacity="0.6" stroke="black" stroke-width="1" />
<path d="M-20.224896157293724,-4.540302821685975 L-20.879724691370473,-5.87914548304563 L-23.0,-0.0" fill="black" fill-opacity="0.6" stroke="black" stroke-width="1" />
<path d="M-20.224896157293724,4.540302821685975 L-20.879724691370473,5.87914548304563 L-23.0,-0.0" fill="brown" fill-opacity="0.6" stroke="black" stroke-width="1" />
<path d="M-23.0,-0.0 L-23.480683518726295,-14.689801990715557 L-29.04845908009549,-17.685675709700526" fill="black" fill-opacity="0.6" stroke="black" stroke-width="1" />
<path d="M-23.0,-0.0 L-23.480683518726295,14.689801990715557 L-29.04845908009549,17.685675709700526" fill="yellow" fill-opacity="0.6" stroke="black" stroke-width="1" />
<path d="M-23.480683518726295,-14.689801990715557 L-29.04845908009549,-17.685675709700526 L-37.0,-0.0" fill="pink" fill-opacity="0.6" stroke="black" stroke-width="1" />
<path d="M-23.480683518726295,14.689801990715557 L-29.04845908009549,17.685675709700526 L-37.0,-0.0" fill="brown" fill-opacity="0.6" stroke="black" stroke-width="1" />
<path d="M-50.0,-11.0 L-30.516575523509772,-21.358591159297795 L-50.0,-22.0" fill="green" fill-opacity="0.6" stroke="black" stroke-width="1" />
<path d="M-50.0,11.0 L-30.516575523509772,21.358591159297795 L-50.0,22.0" fill="green" fill-opacity="0.6" stroke="black" stroke-width="1" />
<path d="M-50.0,-25.0 L-36.73848667608728,-25.386621337355177 L-43.82226675205183,-27.44930592113911" fill="green" fill-opacity="0.6" stroke="black" stroke-width="1" />
<path d="M-50.0,25.0 L-36.73848667608728,25.386621337355177 L-43.82226675205183,27.44930592113911" fill="yellow" fill-opacity="0.6" stroke="black" stroke-width="1" />
<path d="M-36.73848667608728,-25.386621337355177 L-43.82226675205183,-27.44930592113911 L-47.67825598623858,-28.471870295338032" fill="purple" fill-opacity="0.6" stroke="black" stroke-width="1" />
<path d="M-36.73848667608728,25.386621337355177 L-43.82226675205183,27.44930592113911 L-47.67825598623858,28.471870295338032" fill="orange" fill-opacity="0.6" stroke="black" stroke-width="1" />
<path d="M-43.82226675205183,-27.44930592113911 L-47.67825598623858,-28.471870295338032 L-48.374762538455684,-30.17976543175206" fill="red" fill-opacity="0.6" stroke="black" stroke-width="1" />
<path d="M-43.82226675205183,27.44930592113911 L-47.67825598623858,28.471870295338032 L-48.374762538455684,30.17976543175206" fill="red" fill-opacity="0.6" stroke="black" stroke-width="1" />
<path d="M-47.67825598623858,-28.471870295338032 L-48.374762538455684,-30.17976543175206 L-50.0,-36.0" fill="red" fill-opacity="0.6" stroke="black" stroke-width="1" />
<path d="M-47.67825598623858,28.471870295338032 L-48.374762538455684,30.17976543175206 L-50.0,36.0" fill="black" fill-opacity="0.6" stroke="black" stroke-width="1" />
<path d="M-50.0,-36.0 L-49.41886803251827,-39.424495843503394 L-50.0,-47.0" fill="orange" fill-opacity="0.6" stroke="black" stroke-width="1" />
<path d="M-50.0,36.0 L-49.41886803251827,39.424495843503394 L-50.0,47.0" fill="blue" fill-opacity="0.6" stroke="black" stroke-width="1" />
<path d="M-31.0,69.0 L-13.0,87.0 L-9.0,91.0" fill="blue" fill-opacity="0.6" stroke="black" stroke-width="1" />
<path d="M-31.0,-69.0 L-13.0,-87.0 L-9.0,-91.0" fill="orange" fill-opacity="0.6" stroke="black" stroke-width="1" />
<path d="M-13.0,87.0 L-9.0,91.0 L-8.0,92.0" fill="brown" fill-opacity="0.6" stroke="black" stroke-width="1" />
<path d="M-13.0,-87.0 L-9.0,-91.0 L-8.0,-92.0" fill="red" fill-opacity="0.6" stroke="black" stroke-width="1" />
<path d="M-9.0,91.0 L-8.0,92.0 L-0.6068021491441499,97.20090295351746" fill="brown" fill-opacity="0.6" stroke="black" stroke-width="1" />
<path d="M-9.0,-91.0 L-8.0,-92.0 L-0.6068021491441499,-97.20090295351746" fill="pink" fill-opacity="0.6" stroke="black" stroke-width="1" />
<path d="M-8.0,-8.0 L-2.7990970464825407,-0.6068021491441499 L-2.3424693901060167,-0.32334202245126453" fill="green" fill-opacity="0.6" stroke="black" stroke-width="1" />
<path d="M-8.0,8.0 L-2.7990970464825407,0.6068021491441499 L-2.3424693901060167,0.32334202245126453" fill="yellow" fill-opacity="0.6" stroke="black" stroke-width="1" />
<path d="M-2.7990970464825407,-0.6068021491441499 L-2.3424693901060167,-0.32334202245126453 L-0.6149692975945587,-0.07122871213083945" fill="red" fill-opacity="0.6" stroke="black" stroke-width="1" />
<path d="M-2.7990970464825407,0.6068021491441499 L-2.3424693901060167,0.32334202245126453 L-0.6149692975945587,0.07122871213083945" fill="brown" fill-opacity="0.6" stroke="black" stroke-width="1" />
<path d="M-2.3424693901060167,-0.32334202245126453 L-0.6149692975945587,-0.07122871213083945 L0.0,-0.0" fill="blue" fill-opacity="0.6" stroke="black" stroke-width="1" />
<path d="M-2.3424693901060167,0.32334202245126453 L-0.6149692975945587,0.07122871213083945 L0.0,-0.0" fill="orange" fill-opacity="0.6" stroke="black" stroke-width="1" />
<path d="M100.0,-0.0 L88.89654577094655,1.3132526437962422 L88.10214001053339,1.634244456415767" fill="orange" fill-opacity="0.6" stroke="black" stroke-width="1" />
<path d="M100.0,-0.0 L88.89654577094655,-1.3132526437962422 L88.10214001053339,-1.634244456415767" fill="brown" fill-opacity="0.6" stroke="black" stroke-width="1" />
<path d="M88.89654577094655,1.3132526437962422 L88.10214001053339,1.634244456415767 L85.0,-0.0" fill="pink" fill-opacity="0.6" stroke="black" stroke-width="1" />
<path d="M88.89654577094655,-1.3132526437962422 L88.10214001053339,-1.634244456415767 L85.0,-0.0" fill="black" fill-opacity="0.6" stroke="black" stroke-width="1" />
<path d="M85.0,-0.0 L84.21938169295791,4.19283587436698 L79.77510384270627,4.540302821685975" fill="yellow" fill-opacity="0.6" stroke="black" stroke-width="1" />
<path d="M85.0,-0.0 L84.21938169295791,-4.19283587436698 L79.77510384270627,-4.540302821685975" fill="red" fill-opacity="0.6" stroke="black" stroke-width="1" />
<path d="M84.21938169295791,4.19283587436698 L79.77510384270627,4.540302821685975 L79.12027530862953,5.87914548304563" fill="brown" fill-opacity="0.6" stroke="black" stroke-width="1" />
<path d="M84.21938169295791,-4.19283587436698 L79.77510384270627,-4.540302821685975 L79.12027530862953,-5.87914548304563" fill="green" fill-opacity="0.6" stroke="black" stroke-width="1" />
<path d="M79.77510384270627,4.540302821685975 L79.12027530862953,5.87914548304563 L77.0,-0.0" fill="brown" fill-opacity="0.6" stroke="black" stroke-width="1" />
<path d="M79.77510384270627,-4.540302821685975 L79.12027530862953,-5.87914548304563 L77.0,-0.0" fill="yellow" fill-opacity="0.6" stroke="black" stroke-width="1" />
<path d="M77.0,-0.0 L76.5193164812737,14.689801990715557 L70.95154091990452,17.685675709700526" fill="purple" fill-opacity="0.6" stroke="black" stroke-width="1" />
<path d="M77.0,-0.0 L76.5193164812737,-14.689801990715557 L70.95154091990452,-17.685675709700526" fill="blue" fill-opacity="0.6" stroke="black" stroke-width="1" />
<path d="M76.5193164812737,14.689801990715557 L70.95154091990452,17.685675709700526 L63.0,-0.0" fill="pink" fill-opacity="0.6" stroke="black" stroke-width="1" />
<path d="M76.5193164812737,-14.689801990715557 L70.95154091990452,-17.685675709700526 L63.0,-0.0" fill="purple" fill-opacity="0.6" stroke="black" stroke-width="1" />
<path d="M50.0,11.0 L69.48342447649023,21.358591159297795 L50.0,22.0" fill="blue" fill-opacity="0.6" stroke="black" stroke-width="1" />
<path d="M50.0,-11.0 L69.48342447649023,-21.358591159297795 L50.0,-22.0" fill="orange" fill-opacity="0.6" stroke="black" stroke-width="1" />
<path d="M50.0,25.0 L63.26151332391272,25.386621337355177 L56.17773324794817,27.44930592113911" fill="yellow" fill-opacity="0.6" stroke="black" stroke-width="1" />
<path d="M50.0,-25.0 L63.26151332391272,-25.386621337355177 L56.17773324794817,-27.44930592113911" fill="orange" fill-opacity="0.6" stroke="black" stroke-width="1" />
<path d="M63.26151332391272,25.386621337355177 L56.17773324794817,27.44930592113911 L52.32174401376142,28.471870295338032" fill="pink" fill-opacity="0.6" stroke="black" stroke-width="1" />
<path d="M63.26151332391272,-25.386621337355177 L56.17773324794817,-27.44930592113911 L52.32174401376142,-28.471870295338032" fill="green" fill-opacity="0.6" stroke="black" stroke-width="1" />
<path d="M56.17773324794817,27.44930592113911 L52.32174401376142,28.471870295338032 L51.625237461544316,30.17976543175206" fill="orange" fill-opacity="0.6" stroke="black" stroke-width="1" />
<path d="M56.17773324794817,-27.44930592113911 L52.32174401376142,-28.471870295338032 L51.625237461544316,-30.17976543175206" fill="blue" fill-opacity="0.6" stroke="black" stroke-width="1" />
<path d="M52.32174401376142,28.471870295338032 L51.625237461544316,30.17976543175206 L50.0,36.0" fill="blue" fill-opacity="0.6" stroke="black" stroke-width="1" />
<path d="M52.32174401376142,-28.471870295338032 L51.625237461544316,-30.17976543175206 L50.0,-36.0" fill="red" fill-opacity="0.6" stroke="black" stroke-width="1" />
<path d="M50.0,36.0 L50.58113196748173,39.424495843503394 L50.0,47.0" fill="red" fill-opacity="0.6" stroke="black" stroke-width="1" />
<path d="M50.0,-36.0 L50.58113196748173,-39.424495843503394 L50.0,-47.0" fill="blue" fill-opacity="0.6" stroke="black" stroke-width="1" />
<path d="M69.0,31.0 L87.0,13.0 L91.0,9.0" fill="red" fill-opacity="0.6" stroke="black" stroke-width="1" />
<path d="M69.0,-31.0 L87.0,-13.0 L91.0,-9.0" fill="orange" fill-opacity="0.6" stroke="black" stroke-width="1" />
<path d="M87.0,13.0 L91.0,9.0 L92.0,8.0" fill="orange" fill-opacity="0.6" stroke="black" stroke-width="1" />
<path d="M87.0,-13.0 L91.0,-9.0 L92.0,-8.0" fill="red" fill-opacity="0.6" stroke="black" stroke-width="1" />
<path d="M91.0,9.0 L92.0,8.0 L97.20090295351746,0.6068021491441499" fill="purple" fill-opacity="0.6" stroke="black" stroke-width="1" />
<path d="M91.0,-9.0 L92.0,-8.0 L97.20090295351746,-0.6068021491441499" fill="black" fill-opacity="0.6" stroke="black" stroke-width="1" />
<path d="M92.0,8.0 L97.20090295351746,0.6068021491441499 L97.65753060989398,0.32334202245126453" fill="black" fill-opacity="0.6" stroke="black" stroke-width="1" />
<path d="M92.0,-8.0 L97.20090295351746,-0.6068021491441499 L97.65753060989398,-0.32334202245126453" fill="yellow" fill-opacity="0.6" stroke="black" stroke-width="1" />
<path d="M97.20090295351746,0.6068021491441499 L97.65753060989398,0.32334202245126453 L99.38503070240544,0.07122871213083945" fill="green" fill-opacity="0.6" stroke="black" stroke-width="1" />
<path d="M97.20090295351746,-0.6068021491441499 L97.65753060989398,-0.32334202245126453 L99.38503070240544,-0.07122871213083945" fill="yellow" fill-opacity="0.6" stroke="black" stroke-width="1" />
<path d="M97.65753060989398,0.32334202245126453 L99.38503070240544,0.07122871213083945 L100.0,-0.0" fill="green" fill-opacity="0.6" stroke="black" stroke-width="1" />
<path d="M97.65753060989398,-0.32334202245126453 L99.38503070240544,-0.07122871213083945 L100.0,-0.0" fill="purple" fill-opacity="0.6" stroke="black" stroke-width="1" />
<path d="M0.0,-0.0 L1.3132526437962422,-11.103454229053462 L1.634244456415767,-11.89785998946662" fill="orange" fill-opacity="0.6" stroke="black" stroke-width="1" />
<path d="M0.0,-0.0 L1.3132526437962422,11.103454229053462 L1.634244456415767,11.89785998946662" fill="brown" fill-opacity="0.6" stroke="black" stroke-width="1" />
<path d="M0.0,100.0 L1.3132526437962422,88.89654577094655 L1.634244456415767,88.10214001053339" fill="brown" fill-opacity="0.6" stroke="black" stroke-width="1" />
<path d="M0.0,-100.0 L1.3132526437962422,-88.89654577094655 L1.634244456415767,-88.10214001053339" fill="brown" fill-opacity="0.6" stroke="black" stroke-width="1" />
<path d="M1.3132526437962422,-11.103454229053462 L1.634244456415767,-11.89785998946662 L0.0,-15.0" fill="brown" fill-opacity="0.6" stroke="black" stroke-width="1" />
<path d="M1.3132526437962422,11.103454229053462 L1.634244456415767,11.89785998946662 L0.0,15.0" fill="blue" fill-opacity="0.6" stroke="black" stroke-width="1" />
<path d="M1.3132526437962422,88.89654577094655 L1.634244456415767,88.10214001053339 L0.0,85.0" fill="purple" fill-opacity="0.6" stroke="black" stroke-width="1" />
<path d="M1.3132526437962422,-88.89654577094655 L1.634244456415767,-88.10214001053339 L0.0,-85.0" fill="pink" fill-opacity="0.6" stroke="black" stroke-width="1" />
<path d="M0.0,-15.0 L4.19283587436698,-15.780618307042086 L4.540302821685975,-20.224896157293724" fill="black" fill-opacity="0.6" stroke="black" stroke-width="1" />
<path d="M0.0,15.0 L4.19283587436698,15.780618307042086 L4.540302821685975,20.224896157293724" fill="green" fill-opacity="0.6" stroke="black" stroke-width="1" />
<path d="M0.0,85.0 L4.19283587436698,84.21938169295791 L4.540302821685975,79.77510384270627" fill="brown" fill-opacity="0.6" stroke="black" stroke-width="1" />
<path d="M0.0,-85.0 L4.19283587436698,-84.21938169295791 L4.540302821685975,-79.77510384270627" fill="orange" fill-opacity="0.6" stroke="black" stroke-width="1" />
<path d="M4.19283587436698,-15.780618307042086 L4.540302821685975,-20.224896157293724 L5.87914548304563,-20.879724691370473" fill="yellow" fill-opacity="0.6" stroke="black" stroke-width="1" />
<path d="M4.19283587436698,15.780618307042086 L4.540302821685975,20.224896157293724 L5.87914548304563,20.879724691370473" fill="yellow" fill-opacity="0.6" stroke="black" stroke-width="1" />
<path d="M4.19283587436698,84.21938169295791 L4.540302821685975,79.77510384270627 L5.87914548304563,79.12027530862953" fill="orange" fill-opacity="0.6" stroke="black" stroke-width="1" />
<path d="M4.19283587436698,-84.21938169295791 L4.540302821685975,-79.77510384270627 L5.87914548304563,-79.12027530862953" fill="red" fill-opacity="0.6" stroke="black" stroke-width="1" />
<path d="M4.540302821685975,-20.224896157293724 L5.87914548304563,-20.879724691370473 L0.0,-23.0" fill="red" fill-opacity="0.6" stroke="black" stroke-width="1" />
<path d="M4.540302821685975,20.224896157293724 L5.87914548304563,20.879724691370473 L0.0,23.0" fill="blue" fill-opacity="0.6" stroke="black" stroke-width="1" />
<path d="M4.540302821685975,79.77510384270627 L5.87914548304563,79.12027530862953 L0.0,77.0" fill="orange" fill-opacity="0.6" stroke="black" stroke-width="1" />
<path d="M4.540302821685975,-79.77510384270627 L5.87914548304563,-79.12027530862953 L0.0,-77.0" fill="orange" fill-opacity="0.6" stroke="black" stroke-width="1" />
<path d="M0.0,-23.0 L14.689801990715557,-23.480683518726295 L17.685675709700526,-29.04845908009549" fill="brown" fill-opacity="0.6" stroke="black" stroke-width="1" />
<path d="M0.0,23.0 L14.689801990715557,23.480683518726295 L17.685675709700526,29.04845908009549" fill="purple" fill-opacity="0.6" stroke="black" stroke-width="1" />
<path d="M0.0,77.0 L14.689801990715557,76.5193164812737 L17.685675709700526,70.95154091990452" fill="green" fill-opacity="0.6" stroke="black" stroke-width="1" />
<path d="M0.0,-77.0 L14.689801990715557,-76.5193164812737 L17.685675709700526,-70.95154091990452" fill="yellow" fill-opacity="0.6" stroke="black" stroke-width="1" />
<path d="M14.689801990715557,-23.480683518726295 L17.685675709700526,-29.04845908009549 L0.0,-37.0" fill="black" fill-opacity="0.6" stroke="black" stroke-width="1" />
<path d="M14.689801990715557,23.480683518726295 L17.685675709700526,29.04845908009549 L0.0,37.0" fill="black" fill-opacity="0.6" stroke="black" stroke-width="1" />
<path d="M14.689801990715557,76.5193164812737 L17.685675709700526,70.95154091990452 L0.0,63.0" fill="red" fill-opacity="0.6" stroke="black" stroke-width="1" />
<path d="M14.689801990715557,-76.5193164812737 L17.685675709700526,-70.95154091990452 L0.0,-63.0" fill="red" fill-opacity="0.6" stroke="black" stroke-width="1" />
<path d="M11.0,-50.0 L21.358591159297795,-30.516575523509772 L22.0,-50.0" fill="pink" fill-opacity="0.6" stroke="black" stroke-width="1" />
<path d="M11.0,50.0 L21.358591159297795,30.516575523509772 L22.0,50.0" fill="green" fill-opacity="0.6" stroke="black" stroke-width="1" />
<path d="M11.0,50.0 L21.358591159297795,69.48342447649023 L22.0,50.0" fill="orange" fill-opacity="0.6" stroke="black" stroke-width="1" />
<path d="M11.0,-50.0 L21.358591159297795,-69.48342447649023 L22.0,-50.0" fill="red" fill-opacity="0.6" stroke="black" stroke-width="1" />
<path d="M25.0,-50.0 L25.386621337355177,-36.73848667608728 L27.44930592113911,-43.82226675205183" fill="brown" fill-opacity="0.6" stroke="black" stroke-width="1" />
<path d="M25.0,50.0 L25.386621337355177,36.73848667608728 L27.44930592113911,43.82226675205183" fill="orange" fill-opacity="0.6" stroke="black" stroke-width="1" />
<path d="M25.0,50.0 L25.386621337355177,63.26151332391272 L27.44930592113911,56.17773324794817" fill="purple" fill-opacity="0.6" stroke="black" stroke-width="1" />
<path d="M25.0,-50.0 L25.386621337355177,-63.26151332391272 L27.44930592113911,-56.17773324794817" fill="pink" fill-opacity="0.6" stroke="black" stroke-width="1" />
<path d="M25.386621337355177,-36.73848667608728 L27.44930592113911,-43.82226675205183 L28.471870295338032,-47.67825598623858" fill="pink" fill-opacity="0.6" stroke="black" stroke-width="1" />
<path d="M25.386621337355177,36.73848667608728 L27.44930592113911,43.82226675205183 L28.471870295338032,47.67825598623858" fill="blue" fill-opacity="0.6" stroke="black" stroke-width="1" />
<path d="M25.386621337355177,63.26151332391272 L27.44930592113911,56.17773324794817 L28.471870295338032,52.32174401376142" fill="green" fill-opacity="0.6" stroke="black" stroke-width="1" />
<path d="M25.386621337355177,-63.26151332391272 L27.44930592113911,-56.17773324794817 L28.471870295338032,-52.32174401376142" fill="yellow" fill-opacity="0.6" stroke="black" stroke-width="1" />
<path d="M27.44930592113911,-43.82226675205183 L28.471870295338032,-47.67825598623858 L30.17976543175206,-48.374762538455684" fill="yellow" fill-opacity="0.6" stroke="black" stroke-width="1" />
<path d="M27.44930592113911,43.82226675205183 L28.471870295338032,47.67825598623858 L30.17976543175206,48.374762538455684" fill="pink" fill-opacity="0.6" stroke="black" stroke-width="1" />
<path d="M27.44930592113911,56.17773324794817 L28.471870295338032,52.32174401376142 L30.17976543175206,51.625237461544316" fill="yellow" fill-opacity="0.6" stroke="black" stroke-width="1" />
<path d="M27.44930592113911,-56.17773324794817 L28.471870295338032,-52.32174401376142 L30.17976543175206,-51.625237461544316" fill="black" fill-opacity="0.6" stroke="black" stroke-width="1" />
<path d="M28.471870295338032,-47.67825598623858 L30.17976543175206,-48.374762538455684 L36.0,-50.0" fill="red" fill-opacity="0.6" stroke="black" stroke-width="1" />
<path d="M28.471870295338032,47.67825598623858 L30.17976543175206,48.374762538455684 L36.0,50.0" fill="red" fill-opacity="0.6" stroke="black" stroke-width="1" />
<path d="M28.471870295338032,52.32174401376142 L30.17976543175206,51.625237461544316 L36.0,50.0" fill="purple" fill-opacity="0.6" stroke="black" stroke-width="1" />
<path d="M28.471870295338032,-52.32174401376142 L30.17976543175206,-51.625237461544316 L36.0,-50.0" fill="pink" fill-opacity="0.6" stroke="black" stroke-width="1" />
<path d="M36.0,-50.0 L39.424495843503394,-49.41886803251827 L47.0,-50.0" fill="green" fill-opacity="0.6" stroke="black" stroke-width="1" />
<path d="M36.0,50.0 L39.424495843503394,49.41886803251827 L47.0,50.0" fill="pink" fill-opacity="0.6" stroke="black" stroke-width="1" />
<path d="M36.0,50.0 L39.424495843503394,50.58113196748173 L47.0,50.0" fill="brown" fill-opacity="0.6" stroke="black" stroke-width="1" />
<path d="M36.0,-50.0 L39.424495843503394,-50.58113196748173 L47.0,-50.0" fill="purple" fill-opacity="0.6" stroke="black" stroke-width="1" />
<path d="M8.0,-8.0 L0.6068021491441499,-2.7990970464825407 L0.32334202245126453,-2.3424693901060167" fill="green" fill-opacity="0.6" stroke="black" stroke-width="1" />
<path d="M8.0,8.0 L0.6068021491441499,2.7990970464825407 L0.32334202245126453,2.3424693901060167" fill="green" fill-opacity="0.6" stroke="black" stroke-width="1" />
<path d="M8.0,92.0 L0.6068021491441499,97.20090295351746 L0.32334202245126453,97.65753060989398" fill="brown" fill-opacity="0.6" stroke="black" stroke-width="1" />
<path d="M8.0,-92.0 L0.6068021491441499,-97.20090295351746 L0.32334202245126453,-97.65753060989398" fill="purple" fill-opacity="0.6" stroke="black" stroke-width="1" />
<path d="M0.6068021491441499,-2.7990970464825407 L0.32334202245126453,-2.3424693901060167 L0.07122871213083945,-0.6149692975945587" fill="green" fill-opacity="0.6" stroke="black" stroke-width="1" />
<path d="M0.6068021491441499,2.7990970464825407 L0.32334202245126453,2.3424693901060167 L0.07122871213083945,0.6149692975945587" fill="red" fill-opacity="0.6" stroke="black" stroke-width="1" />
<path d="M0.6068021491441499,97.20090295351746 L0.32334202245126453,97.65753060989398 L0.07122871213083945,99.38503070240544" fill="green" fill-opacity="0.6" stroke="black" stroke-width="1" />
<path d="M0.6068021491441499,-97.20090295351746 L0.32334202245126453,-97.65753060989398 L0.07122871213083945,-99.38503070240544" fill="yellow" fill-opacity="0.6" stroke="black" stroke-width="1" />
<path d="M0.32334202245126453,-2.3424693901060167 L0.07122871213083945,-0.6149692975945587 L0.0,-0.0" fill="orange" fill-opacity="0.6" stroke="black" stroke-width="1" />
<path d="M0.32334202245126453,2.3424693901060167 L0.07122871213083945,0.6149692975945587 L0.0,-0.0" fill="yellow" fill-opacity="0.6" stroke="black" stroke-width="1" />
<path d="M0.32334202245126453,97.65753060989398 L0.07122871213083945,99.38503070240544 L0.0,100.0" fill="pink" fill-opacity="0.6" stroke="black" stroke-width="1" />
<path d="M0.32334202245126453,-97.65753060989398 L0.07122871213083945,-99.38503070240544 L0.0,-100.0" fill="green" fill-opacity="0.6" stroke="black" stroke-width="1" />
<path d="M0.0,100.0 L-1.3132526437962422,88.89654577094655 L-1.634244456415767,88.10214001053338" fill="green" fill-opacity="0.6" stroke="black" stroke-width="1" />
<path d="M0.0,-0.0 L-1.3132526437962422,-11.103454229053462 L-1.634244456415767,-11.89785998946662" fill="black" fill-opacity="0.6" stroke="black" stroke-width="1" />
<path d="M0.0,-0.0 L-1.3132526437962422,11.103454229053455 L-1.634244456415767,11.897859989466625" fill="pink" fill-opacity="0.6" stroke="black" stroke-width="1" />
<path d="M0.0,-100.0 L-1.3132526437962422,-88.89654577094655 L-1.634244456415767,-88.10214001053339" fill="red" fill-opacity="0.6" stroke="black" stroke-width="1" />
<path d="M-1.3132526437962422,88.89654577094655 L-1.634244456415767,88.10214001053338 L0.0,85.0" fill="brown" fill-opacity="0.6" stroke="black" stroke-width="1" />
<path d="M-1.3132526437962422,-11.103454229053462 L-1.634244456415767,-11.89785998946662 L0.0,-15.0" fill="orange" fill-opacity="0.6" stroke="black" stroke-width="1" />
<path d="M-1.3132526437962422,11.103454229053455 L-1.634244456415767,11.897859989466625 L0.0,15.0" fill="orange" fill-opacity="0.6" stroke="black" stroke-width="1" />
<path d="M-1.3132526437962422,-88.89654577094655 L-1.634244456415767,-88.10214001053339 L0.0,-85.0" fill="green" fill-opacity="0.6" stroke="black" stroke-width="1" />
<path d="M0.0,85.0 L-4.19283587436698,84.21938169295791 L-4.540302821685975,79.77510384270627" fill="brown" fill-opacity="0.6" stroke="black" stroke-width="1" />
<path d="M0.0,-15.0 L-4.19283587436698,-15.780618307042086 L-4.540302821685975,-20.224896157293724" fill="red" fill-opacity="0.6" stroke="black" stroke-width="1" />
<path d="M0.0,15.0 L-4.19283587436698,15.78061830704209 L-4.540302821685975,20.224896157293728" fill="green" fill-opacity="0.6" stroke="black" stroke-width="1" />
<path d="M0.0,-85.0 L-4.19283587436698,-84.21938169295791 L-4.540302821685975,-79.77510384270627" fill="blue" fill-opacity="0.6" stroke="black" stroke-width="1" />
<path d="M-4.19283587436698,84.21938169295791 L-4.540302821685975,79.77510384270627 L-5.87914548304563,79.12027530862953" fill="pink" fill-opacity="0.6" stroke="black" stroke-width="1" />
<path d="M-4.19283587436698,-15.780618307042086 L-4.540302821685975,-20.224896157293724 L-5.87914548304563,-20.879724691370473" fill="purple" fill-opacity="0.6" stroke="black" stroke-width="1" />
<path d="M-4.19283587436698,15.78061830704209 L-4.540302821685975,20.224896157293728 L-5.87914548304563,20.87972469137047" fill="blue" fill-opacity="0.6" stroke="black" stroke-width="1" />
<path d="M-4.19283587436698,-84.21938169295791 L-4.540302821685975,-79.77510384270627 L-5.87914548304563,-79.12027530862953" fill="green" fill-opacity="0.6" stroke="black" stroke-width="1" />
<path d="M-4.540302821685975,79.77510384270627 L-5.87914548304563,79.12027530862953 L0.0,77.0" fill="orange" fill-opacity="0.6" stroke="black" stroke-width="1" />
<path d="M-4.540302821685975,-20.224896157293724 L-5.87914548304563,-20.879724691370473 L0.0,-23.0" fill="blue" fill-opacity="0.6" stroke="black" stroke-width="1" />
<path d="M-4.540302821685975,20.224896157293728 L-5.87914548304563,20.87972469137047 L0.0,23.0" fill="black" fill-opacity="0.6" stroke="black" stroke-width="1" />
<path d="M-4.540302821685975,-79.77510384270627 L-5.87914548304563,-79.12027530862953 L0.0,-77.0" fill="blue" fill-opacity="0.6" stroke="black" stroke-width="1" />
<path d="M0.0,77.0 L-14.689801990715557,76.5193164812737 L-17.685675709700526,70.95154091990452" fill="black" fill-opacity="0.6" stroke="black" stroke-width="1" />
<path d="M0.0,-23.0 L-14.689801990715557,-23.480683518726295 L-17.685675709700526,-29.04845908009549" fill="brown" fill-opacity="0.6" stroke="black" stroke-width="1" />
<path d="M0.0,23.0 L-14.689801990715557,23.480683518726295 L-17.685675709700526,29.048459080095483" fill="orange" fill-opacity="0.6" stroke="black" stroke-width="1" />
<path d="M0.0,-77.0 L-14.689801990715557,-76.5193164812737 L-17.685675709700526,-70.95154091990452" fill="purple" fill-opacity="0.6" stroke="black" stroke-width="1" />
<path d="M-14.689801990715557,76.5193164812737 L-17.685675709700526,70.95154091990452 L0.0,63.0" fill="orange" fill-opacity="0.6" stroke="black" stroke-width="1" />
<path d="M-14.689801990715557,-23.480683518726295 L-17.685675709700526,-29.04845908009549 L0.0,-37.0" fill="orange" fill-opacity="0.6" stroke="black" stroke-width="1" />
<path d="M-14.689801990715557,23.480683518726295 L-17.685675709700526,29.048459080095483 L0.0,37.0" fill="red" fill-opacity="0.6" stroke="black" stroke-width="1" />
<path d="M-14.689801990715557,-76.5193164812737 L-17.685675709700526,-70.95154091990452 L0.0,-63.0" fill="yellow" fill-opacity="0.6" stroke="black" stroke-width="1" />
<path d="M-11.0,50.0 L-21.358591159297795,69.48342447649023 L-22.0,50.0" fill="blue" fill-opacity="0.6" stroke="black" stroke-width="1" />
<path d="M-11.0,-50.0 L-21.358591159297795,-30.516575523509772 L-22.0,-50.0" fill="pink" fill-opacity="0.6" stroke="black" stroke-width="1" />
<path d="M-11.0,50.0 L-21.358591159297795,30.516575523509772 L-22.0,50.0" fill="red" fill-opacity="0.6" stroke="black" stroke-width="1" />
<path d="M-11.0,-50.0 L-21.358591159297795,-69.48342447649023 L-22.0,-50.0" fill="red" fill-opacity="0.6" stroke="black" stroke-width="1" />
<path d="M-25.0,50.0 L-25.386621337355177,63.26151332391272 L-27.44930592113911,56.17773324794817" fill="pink" fill-opacity="0.6" stroke="black" stroke-width="1" />
<path d="M-25.0,-50.0 L-25.386621337355177,-36.73848667608728 L-27.44930592113911,-43.82226675205183" fill="green" fill-opacity="0.6" stroke="black" stroke-width="1" />
<path d="M-25.0,50.0 L-25.386621337355177,36.73848667608728 L-27.44930592113911,43.82226675205183" fill="pink" fill-opacity="0.6" stroke="black" stroke-width="1" />
<path d="M-25.0,-50.0 L-25.386621337355177,-63.26151332391272 L-27.44930592113911,-56.17773324794817" fill="red" fill-opacity="0.6" stroke="black" stroke-width="1" />
<path d="M-25.386621337355177,63.26151332391272 L-27.44930592113911,56.17773324794817 L-28.471870295338032,52.32174401376142" fill="yellow" fill-opacity="0.6" stroke="black" stroke-width="1" />
<path d="M-25.386621337355177,-36.73848667608728 L-27.44930592113911,-43.82226675205183 L-28.471870295338032,-47.67825598623858" fill="green" fill-opacity="0.6" stroke="black" stroke-width="1" />
<path d="M-25.386621337355177,36.73848667608728 L-27.44930592113911,43.82226675205183 L-28.471870295338032,47.67825598623858" fill="red" fill-opacity="0.6" stroke="black" stroke-width="1" />
<path d="M-25.386621337355177,-63.26151332391272 L-27.44930592113911,-56.17773324794817 L-28.471870295338032,-52.32174401376142" fill="brown" fill-opacity="0.6" stroke="black" stroke-width="1" />
<path d="M-27.44930592113911,56.17773324794817 L-28.471870295338032,52.32174401376142 L-30.17976543175206,51.625237461544316" fill="black" fill-opacity="0.6" stroke="black" stroke-width="1" />
<path d="M-27.44930592113911,-43.82226675205183 L-28.471870295338032,-47.67825598623858 L-30.17976543175206,-48.374762538455684" fill="orange" fill-opacity="0.6" stroke="black" stroke-width="1" />
<path d="M-27.44930592113911,43.82226675205183 L-28.471870295338032,47.67825598623858 L-30.17976543175206,48.374762538455684" fill="purple" fill-opacity="0.6" stroke="black" stroke-width="1" />
<path d="M-27.44930592113911,-56.17773324794817 L-28.471870295338032,-52.32174401376142 L-30.17976543175206,-51.625237461544316" fill="brown" fill-opacity="0.6" stroke="black" stroke-width="1" />
<path d="M-28.471870295338032,52.32174401376142 L-30.17976543175206,51.625237461544316 L-36.0,50.0" fill="black" fill-opacity="0.6" stroke="black" stroke-width="1" />
<path d="M-28.471870295338032,-47.67825598623858 L-30.17976543175206,-48.374762538455684 L-36.0,-50.0" fill="black" fill-opacity="0.6" stroke="black" stroke-width="1" />
<path d="M-28.471870295338032,47.67825598623858 L-30.17976543175206,48.374762538455684 L-36.0,50.0" fill="green" fill-opacity="0.6" stroke="black" stroke-width="1" />
<path d="M-28.471870295338032,-52.32174401376142 L-30.17976543175206,-51.625237461544316 L-36.0,-50.0" fill="black" fill-opacity="0.6" stroke="black" stroke-width="1" />
<path d="M-36.0,50.0 L-39.424495843503394,50.58113196748173 L-47.0,50.0" fill="green" fill-opacity="0.6" stroke="black" stroke-width="1" />
<path d="M-36.0,-50.0 L-39.424495843503394,-49.41886803251827 L-47.0,-50.0" fill="purple" fill-opacity="0.6" stroke="black" stroke-width="1" />
<path d="M-36.0,50.0 L-39.424495843503394,49.41886803251827 L-47.0,50.0" fill="red" fill-opacity="0.6" stroke="black" stroke-width="1" />
<path d="M-36.0,-50.0 L-39.424495843503394,-50.58113196748173 L-47.0,-50.0" fill="red" fill-opacity="0.6" stroke="black" stroke-width="1" />
<path d="M-8.0,92.0 L-0.6068021491441499,97.20090295351746 L-0.32334202245126453,97.65753060989398" fill="green" fill-opacity="0.6" stroke="black" stroke-width="1" />
<path d="M-8.0,-8.0 L-0.6068021491441499,-2.7990970464825407 L-0.32334202245126453,-2.3424693901060167" fill="pink" fill-opacity="0.6" stroke="black" stroke-width="1" />
<path d="M-8.0,8.0 L-0.6068021491441499,2.7990970464825438 L-0.32334202245126453,2.342469390106018" fill="purple" fill-opacity="0.6" stroke="black" stroke-width="1" />
<path d="M-8.0,-92.0 L-0.6068021491441499,-97.20090295351746 L-0.32334202245126453,-97.65753060989398" fill="pink" fill-opacity="0.6" stroke="black" stroke-width="1" />
<path d="M-0.6068021491441499,97.20090295351746 L-0.32334202245126453,97.65753060989398 L-0.07122871213083945,99.38503070240544" fill="green" fill-opacity="0.6" stroke="black" stroke-width="1" />
<path d="M-0.6068021491441499,-2.7990970464825407 L-0.32334202245126453,-2.3424693901060167 L-0.07122871213083945,-0.6149692975945587" fill="red" fill-opacity="0.6" stroke="black" stroke-width="1" />
<path d="M-0.6068021491441499,2.7990970464825438 L-0.32334202245126453,2.342469390106018 L-0.07122871213083945,0.6149692975945555" fill="brown" fill-opacity="0.6" stroke="black" stroke-width="1" />
<path d="M-0.6068021491441499,-97.20090295351746 L-0.32334202245126453,-97.65753060989398 L-0.07122871213083945,-99.38503070240544" fill="black" fill-opacity="0.6" stroke="black" stroke-width="1" />
<path d="M-0.32334202245126453,97.65753060989398 L-0.07122871213083945,99.38503070240544 L0.0,100.0" fill="black" fill-opacity="0.6" stroke="black" stroke-width="1" />
<path d="M-0.32334202245126453,-2.3424693901060167 L-0.07122871213083945,-0.6149692975945587 L0.0,-0.0" fill="orange" fill-opacity="0.6" stroke="black" stroke-width="1" />
<path d="M-0.32334202245126453,2.342469390106018 L-0.07122871213083945,0.6149692975945555 L0.0,-0.0" fill="yellow" fill-opacity="0.6" stroke="black" stroke-width="1" />
<path d="M-0.32334202245126453,-97.65753060989398 L-0.07122871213083945,-99.38503070240544 L0.0,-100.0" fill="red" fill-opacity="0.6" stroke="black" stroke-width="1" />
<path d="M-100.0,-0.0 L-88.89654577094655,-1.3132526437962422 L-88.10214001053339,-1.634244456415767" fill="purple" fill-opacity="0.6" stroke="black" stroke-width="1" />
<path d="M-100.0,-0.0 L-88.89654577094655,1.3132526437962422 L-88.10214001053339,1.634244456415767" fill="green" fill-opacity="0.6" stroke="black" stroke-width="1" />
<path d="M-88.89654577094655,-1.3132526437962422 L-88.10214001053339,-1.634244456415767 L-85.0,-0.0" fill="orange" fill-opacity="0.6" stroke="black" stroke-width="1" />
<path d="M-88.89654577094655,1.3132526437962422 L-88.10214001053339,1.634244456415767 L-85.0,-0.0" fill="green" fill-opacity="0.6" stroke="black" stroke-width="1" />
<path d="M-85.0,-0.0 L-84.21938169295791,-4.19283587436698 L-79.77510384270627,-4.540302821685975" fill="green" fill-opacity="0.6" stroke="black" stroke-width="1" />
<path d="M-85.0,-0.0 L-84.21938169295791,4.19283587436698 L-79.77510384270627,4.540302821685975" fill="pink" fill-opacity="0.6" stroke="black" stroke-width="1" />
<path d="M-84.21938169295791,-4.19283587436698 L-79.77510384270627,-4.540302821685975 L-79.12027530862953,-5.87914548304563" fill="yellow" fill-opacity="0.6" stroke="black" stroke-width="1" />
<path d="M-84.21938169295791,4.19283587436698 L-79.77510384270627,4.540302821685975 L-79.12027530862953,5.87914548304563" fill="green" fill-opacity="0.6" stroke="black" stroke-width="1" />
<path d="M-79.77510384270627,-4.540302821685975 L-79.12027530862953,-5.87914548304563 L-77.0,-0.0" fill="black" fill-opacity="0.6" stroke="black" stroke-width="1" />
<path d="M-79.77510384270627,4.540302821685975 L-79.12027530862953,5.87914548304563 L-77.0,-0.0" fill="black" fill-opacity="0.6" stroke="black" stroke-width="1" />
<path d="M-77.0,-0.0 L-76.5193164812737,-14.689801990715557 L-70.95154091990452,-17.685675709700526" fill="brown" fill-opacity="0.6" stroke="black" stroke-width="1" />
<path d="M-77.0,-0.0 L-76.5193164812737,14.689801990715557 L-70.95154091990452,17.685675709700526" fill="black" fill-opacity="0.6" stroke="black" stroke-width="1" />
<path d="M-76.5193164812737,-14.689801990715557 L-70.95154091990452,-17.685675709700526 L-63.0,-0.0" fill="pink" fill-opacity="0.6" stroke="black" stroke-width="1" />
<path d="M-76.5193164812737,14.689801990715557 L-70.95154091990452,17.685675709700526 L-63.0,-0.0" fill="red" fill-opacity="0.6" stroke="black" stroke-width="1" />
<path d="M-50.0,-11.0 L-69.48342447649023,-21.358591159297795 L-50.0,-22.0" fill="purple" fill-opacity="0.6" stroke="black" stroke-width="1" />
<path d="M-50.0,11.0 L-69.48342447649023,21.358591159297795 L-50.0,22.0" fill="orange" fill-opacity="0.6" stroke="black" stroke-width="1" />
<path d="M-50.0,-25.0 L-63.26151332391272,-25.386621337355177 L-56.17773324794817,-27.44930592113911" fill="orange" fill-opacity="0.6" stroke="black" stroke-width="1" />
<path d="M-50.0,25.0 L-63.26151332391272,25.386621337355177 L-56.17773324794817,27.44930592113911" fill="black" fill-opacity="0.6" stroke="black" stroke-width="1" />
<path d="M-63.26151332391272,-25.386621337355177 L-56.17773324794817,-27.44930592113911 L-52.32174401376142,-28.471870295338032" fill="yellow" fill-opacity="0.6" stroke="black" stroke-width="1" />
<path d="M-63.26151332391272,25.386621337355177 L-56.17773324794817,27.44930592113911 L-52.32174401376142,28.471870295338032" fill="blue" fill-opacity="0.6" stroke="black" stroke-width="1" />
<path d="M-56.17773324794817,-27.44930592113911 L-52.32174401376142,-28.471870295338032 L-51.625237461544316,-30.17976543175206" fill="purple" fill-opacity="0.6" stroke="black" stroke-width="1" />
<path d="M-56.17773324794817,27.44930592113911 L-52.32174401376142,28.471870295338032 L-51.625237461544316,30.17976543175206" fill="blue" fill-opacity="0.6" stroke="black" stroke-width="1" />
<path d="M-52.32174401376142,-28.471870295338032 L-51.625237461544316,-30.17976543175206 L-50.0,-36.0" fill="purple" fill-opacity="0.6" stroke="black" stroke-width="1" />
<path d="M-52.32174401376142,28.471870295338032 L-51.625237461544316,30.17976543175206 L-50.0,36.0" fill="purple" fill-opacity="0.6" stroke="black" stroke-width="1" />
<path d="M-50.0,-36.0 L-50.58113196748173,-39.424495843503394 L-50.0,-47.0" fill="pink" fill-opacity="0.6" stroke="black" stroke-width="1" />
<path d="M-50.0,36.0 L-50.58113196748173,39.424495843503394 L-50.0,47.0" fill="orange" fill-opacity="0.6" stroke="black" stroke-width="1" />
<path d="M-69.0,-31.0 L-87.0,-13.0 L-91.0,-9.0" fill="orange" fill-opacity="0.6" stroke="black" stroke-width="1" />
<path d="M-69.0,31.0 L-87.0,13.0 L-91.0,9.0" fill="green" fill-opacity="0.6" stroke="black" stroke-width="1" />
<path d="M-87.0,-13.0 L-91.0,-9.0 L-92.0,-8.0" fill="yellow" fill-opacity="0.6" stroke="black" stroke-width="1" />
<path d="M-87.0,13.0 L-91.0,9.0 L-92.0,8.0" fill="pink" fill-opacity="0.6" stroke="black" stroke-width="1" />
<path d="M-91.0,-9.0 L-92.0,-8.0 L-97.20090295351746,-0.6068021491441499" fill="green" fill-opacity="0.6" stroke="black" stroke-width="1" />
<path d="M-91.0,9.0 L-92.0,8.0 L-97.20090295351746,0.6068021491441499" fill="purple" fill-opacity="0.6" stroke="black" stroke-width="1" />
<path d="M-92.0,-8.0 L-97.20090295351746,-0.6068021491441499 L-97.65753060989398,-0.32334202245126453" fill="blue" fill-opacity="0.6" stroke="black" stroke-width="1" />
<path d="M-92.0,8.0 L-97.20090295351746,0.6068021491441499 L-97.65753060989398,0.32334202245126453" fill="blue" fill-opacity="0.6" stroke="black" stroke-width="1" />
<path d="M-97.20090295351746,-0.6068021491441499 L-97.65753060989398,-0.32334202245126453 L-99.38503070240544,-0.07122871213083945" fill="purple" fill-opacity="0.6" stroke="black" stroke-width="1" />
<path d="M-97.20090295351746,0.6068021491441499 L-97.65753060989398,0.32334202245126453 L-99.38503070240544,0.07122871213083945" fill="purple" fill-opacity="0.6" stroke="black" stroke-width="1" />
<path d="M-97.65753060989398,-0.32334202245126453 L-99.38503070240544,-0.07122871213083945 L-100.0,-0.0" fill="orange" fill-opacity="0.6" stroke="black" stroke-width="1" />
<path d="M-97.65753060989398,0.32334202245126453 L-99.38503070240544,0.07122871213083945 L-100.0,-0.0" fill="yellow" fill-opacity="0.6" stroke="black" stroke-width="1" />
</svg>