<?xml version="1.0" encoding="UTF-8"?>
<svg xmlns="http://www.w3.org/2000/svg" xmlns:xlink="http://www.w3.org/1999/xlink"
     width="250" height="250" viewBox="-125.0 -125.0 250 250">
<defs>
</defs>
<path d="M8.0,-0.0 L12.537207157248016,-3.6313575518028505 L12.676909331722262,-4.333464392005122" fill="green" fill-opacity="0.6" stroke="black" stroke-width="1" />
<path d="M8.0,-0.0 L12.537207157248016,3.6313575518028505 L12.676909331722262,4.333464392005122" fill="red" fill-opacity="0.6" stroke="black" stroke-width="1" />
<path d="M12.537207157248016,-3.6313575518028505 L12.676909331722262,-4.333464392005122 L14.550817464828297,-4.687968511830909" fill="purple" fill-opacity="0.6" stroke="black" stroke-width="1" />
<path d="M12.537207157248016,3.6313575518028505 L12.676909331722262,4.333464392005122 L14.550817464828297,4.687968511830909" fill="black" fill-opacity="0.6" stroke="black" stroke-width="1" />
<path d="M12.676909331722262,-4.333464392005122 L14.550817464828297,-4.687968511830909 L15.0,-0.0" fill="brown" fill-opacity="0.6" stroke="black" stroke-width="1" />
<path d="M12.676909331722262,4.333464392005122 L14.550817464828297,4.687968511830909 L15.0,-0.0" fill="green" fill-opacity="0.6" stroke="black" stroke-width="1" />
<path d="M15.0,-0.0 L20.117682256944647,-8.0084974713798 L22.934788400923225,-8.743552812560882" fill="red" fill-opacity="0.6" stroke="black" stroke-width="1" />
<path d="M15.0,-0.0 L20.117682256944647,8.0084974713798 L22.934788400923225,8.743552812560882" fill="pink" fill-opacity="0.6" stroke="black" stroke-width="1" />
<path d="M20.117682256944647,-8.0084974713798 L22.934788400923225,-8.743552812560882 L26.824340849030587,-12.295324475692091" fill="purple" fill-opacity="0.6" stroke="black" stroke-width="1" />
<path d="M20.117682256944647,8.0084974713798 L22.934788400923225,8.743552812560882 L26.824340849030587,12.295324475692091" fill="red" fill-opacity="0.6" stroke="black" stroke-width="1" />
<path d="M22.934788400923225,-8.743552812560882 L26.824340849030587,-12.295324475692091 L30.64452290218423,-12.46227030927893" fill="black" fill-opacity="0.6" stroke="black" stroke-width="1" />
<path d="M22.934788400923225,8.743552812560882 L26.824340849030587,12.295324475692091 L30.64452290218423,12.46227030927893" fill="blue" fill-opacity="0.6" stroke="black" stroke-width="1" />
<path d="M26.824340849030587,-12.295324475692091 L30.64452290218423,-12.46227030927893 L31.622096600911675,-12.799687470938641" fill="purple" fill-opacity="0.6" stroke="black" stroke-width="1" />
<path d="M26.824340849030587,12.295324475692091 L30.64452290218423,12.46227030927893 L31.622096600911675,12.799687470938641" fill="yellow" fill-opacity="0.6" stroke="black" stroke-width="1" />
<path d="M30.64452290218423,-12.46227030927893 L31.622096600911675,-12.799687470938641 L32.43178052883257,-16.35396785654927" fill="yellow" fill-opacity="0.6" stroke="black" stroke-width="1" />
<path d="M30.64452290218423,12.46227030927893 L31.622096600911675,12.799687470938641 L32.43178052883257,16.35396785654927" fill="blue" fill-opacity="0.6" stroke="black" stroke-width="1" />
<path d="M31.622096600911675,-12.799687470938641 L32.43178052883257,-16.35396785654927 L50.0,-0.0" fill="green" fill-opacity="0.6" stroke="black" stroke-width="1" />
<path d="M31.622096600911675,12.799687470938641 L32.43178052883257,16.35396785654927 L50.0,-0.0" fill="blue" fill-opacity="0.6" stroke="black" stroke-width="1" />
<path d="M50.0,-9.0 L36.60461692488073,-16.635272849463323 L37.46610424504483,-19.255563178301603" fill="pink" fill-opacity="0.6" stroke="black" stroke-width="1" />
<path d="M50.0,9.0 L36.60461692488073,16.635272849463323 L37.46610424504483,19.255563178301603" fill="green" fill-opacity="0.6" stroke="black" stroke-width="1" />
<path d="M36.60461692488073,-16.635272849463323 L37.46610424504483,-19.255563178301603 L41.51213794051439,-25.960837950994332" fill="purple" fill-opacity="0.6" stroke="black" stroke-width="1" />
<path d="M36.60461692488073,16.635272849463323 L37.46610424504483,19.255563178301603 L41.51213794051439,25.960837950994332" fill="brown" fill-opacity="0.6" stroke="black" stroke-width="1" />
<path d="M37.46610424504483,-19.255563178301603 L41.51213794051439,-25.960837950994332 L46.381324956848744,-28.238764837483288" fill="pink" fill-opacity="0.6" stroke="black" stroke-width="1" />
<path d="M37.46610424504483,19.255563178301603 L41.51213794051439,25.960837950994332 L46.381324956848744,28.238764837483288" fill="pink" fill-opacity="0.6" stroke="black" stroke-width="1" />
<path d="M41.51213794051439,-25.960837950994332 L46.381324956848744,-28.238764837483288 L46.861327886001966,-28.39862741448103" fill="purple" fill-opacity="0.6" stroke="black" stroke-width="1" />
<path d="M41.51213794051439,25.960837950994332 L46.381324956848744,28.238764837483288 L46.861327886001966,28.39862741448103" fill="pink" fill-opacity="0.6" stroke="black" stroke-width="1" />
<path d="M46.381324956848744,-28.238764837483288 L46.861327886001966,-28.39862741448103 L50.0,-29.0" fill="purple" fill-opacity="0.6" stroke="black" stroke-width="1" />
<path d="M46.381324956848744,28.238764837483288 L46.861327886001966,28.39862741448103 L50.0,29.0" fill="red" fill-opacity="0.6" stroke="black" stroke-width="1" />
<path d="M50.0,-37.0 L49.21182642601103,-40.77580887592347 L50.0,-50.0" fill="pink" fill-opacity="0.6" stroke="black" stroke-width="1" />
<path d="M50.0,37.0 L49.21182642601103,40.77580887592347 L50.0,50.0" fill="green" fill-opacity="0.6" stroke="black" stroke-width="1" />
<path d="M50.0,50.0 L39.0,61.0 L33.0,67.0" fill="pink" fill-opacity="0.6" stroke="black" stroke-width="1" />
<path d="M50.0,-50.0 L39.0,-61.0 L33.0,-67.0" fill="orange" fill-opacity="0.6" stroke="black" stroke-width="1" />
<path d="M39.0,61.0 L33.0,67.0 L21.0,79.0" fill="red" fill-opacity="0.6" stroke="black" stroke-width="1" />
<path d="M39.0,-61.0 L33.0,-67.0 L21.0,-79.0" fill="brown" fill-opacity="0.6" stroke="black" stroke-width="1" />
<path d="M33.0,67.0 L21.0,79.0 L1.8438015760520898,90.58276021400377" fill="purple" fill-opacity="0.6" stroke="black" stroke-width="1" />
<path d="M33.0,-67.0 L21.0,-79.0 L1.8438015760520898,-90.58276021400377" fill="purple" fill-opacity="0.6" stroke="black" stroke-width="1" />
<path d="M21.0,-21.0 L9.417239785996228,-1.8438015760520898 L8.626404757148686,-1.7163328047640647" fill="black" fill-opacity="0.6" stroke="black" stroke-width="1" />
<path d="M21.0,21.0 L9.417239785996228,1.8438015760520898 L8.626404757148686,1.7163328047640647" fill="orange" fill-opacity="0.6" stroke="black" stroke-width="1" />
<path d="M9.417239785996228,-1.8438015760520898 L8.626404757148686,-1.7163328047640647 L7.864624121906644,-0.6356534941927561" fill="red" fill-opacity="0.6" stroke="black" stroke-width="1" />
<path d="M9.417239785996228,1.8438015760520898 L8.626404757148686,1.7163328047640647 L7.864624121906644,0.6356534941927561" fill="purple" fill-opacity="0.6" stroke="black" stroke-width="1" />
<path d="M8.626404757148686,-1.7163328047640647 L7.864624121906644,-0.6356534941927561 L4.671152306864218,-0.49321579802054305" fill="purple" fill-opacity="0.6" stroke="black" stroke-width="1" />
<path d="M8.626404757148686,1.7163328047640647 L7.864624121906644,0.6356534941927561 L4.671152306864218,0.49321579802054305" fill="purple" fill-opacity="0.6" stroke="black" stroke-width="1" />
<path d="M7.864624121906644,-0.6356534941927561 L4.671152306864218,-0.49321579802054305 L0.0,-0.0" fill="brown" fill-opacity="0.6" stroke="black" stroke-width="1" />
<path d="M7.864624121906644,0.6356534941927561 L4.671152306864218,0.49321579802054305 L0.0,-0.0" fill="blue" fill-opacity="0.6" stroke="black" stroke-width="1" />
<path d="M-8.0,-0.0 L-12.537207157248016,-3.6313575518028505 L-12.676909331722262,-4.333464392005122" fill="orange" fill-opacity="0.6" stroke="black" stroke-width="1" />
<path d="M-8.0,-0.0 L-12.537207157248016,3.6313575518028505 L-12.676909331722262,4.333464392005122" fill="orange" fill-opacity="0.6" stroke="black" stroke-width="1" />
<path d="M-12.537207157248016,-3.6313575518028505 L-12.676909331722262,-4.333464392005122 L-14.550817464828297,-4.687968511830909" fill="green" fill-opacity="0.6" stroke="black" stroke-width="1" />
<path d="M-12.537207157248016,3.6313575518028505 L-12.676909331722262,4.333464392005122 L-14.550817464828297,4.687968511830909" fill="brown" fill-opacity="0.6" stroke="black" stroke-width="1" />
<path d="M-12.676909331722262,-4.333464392005122 L-14.550817464828297,-4.687968511830909 L-15.0,-0.0" fill="red" fill-opacity="0.6" stroke="black" stroke-width="1" />
<path d="M-12.676909331722262,4.333464392005122 L-14.550817464828297,4.687968511830909 L-15.0,-0.0" fill="green" fill-opacity="0.6" stroke="black" stroke-width="1" />
<path d="M-15.0,-0.0 L-20.117682256944647,-8.0084974713798 L-22.934788400923225,-8.743552812560882" fill="pink" fill-opacity="0.6" stroke="black" stroke-width="1" />
<path d="M-15.0,-0.0 L-20.117682256944647,8.0084974713798 L-22.934788400923225,8.743552812560882" fill="red" fill-opacity="0.6" stroke="black" stroke-width="1" />
<path d="M-20.117682256944647,-8.0084974713798 L-22.934788400923225,-8.743552812560882 L-26.824340849030587,-12.295324475692091" fill="purple" fill-opacity="0.6" stroke="black" stroke-width="1" />
<path d="M-20.117682256944647,8.0084974713798 L-22.934788400923225,8.743552812560882 L-26.824340849030587,12.295324475692091" fill="purple" fill-opacity="0.6" stroke="black" stroke-width="1" />
<path d="M-22.934788400923225,-8.743552812560882 L-26.824340849030587,-12.295324475692091 L-30.64452290218423,-12.46227030927893" fill="blue" fill-opacity="0.6" stroke="black" stroke-width="1" />
<path d="M-22.934788400923225,8.743552812560882 L-26.824340849030587,12.295324475692091 L-30.64452290218423,12.46227030927893" fill="yellow" fill-opacity="0.6" stroke="black" stroke-width="1" />
<path d="M-26.824340849030587,-12.295324475692091 L-30.64452290218423,-12.46227030927893 L-31.622096600911675,-12.799687470938641" fill="black" fill-opacity="0.6" stroke="black" stroke-width="1" />
<path d="M-26.824340849030587,12.295324475692091 L-30.64452290218423,12.46227030927893 L-31.622096600911675,12.799687470938641" fill="blue" fill-opacity="0.6" stroke="black" stroke-width="1" />
<path d="M-30.64452290218423,-12.46227030927893 L-31.622096600911675,-12.799687470938641 L-32.43178052883257,-16.35396785654927" fill="orange" fill-opacity="0.6" stroke="black" stroke-width="1" />
<path d="M-30.64452290218423,12.46227030927893 L-31.622096600911675,12.799687470938641 L-32.43178052883257,16.35396785654927" fill="orange" fill-opacity="0.6" stroke="black" stroke-width="1" />
<path d="M-31.622096600911675,-12.799687470938641 L-32.43178052883257,-16.35396785654927 L-50.0,-0.0" fill="purple" fill-opacity="0.6" stroke="black" stroke-width="1" />
<path d="M-31.622096600911675,12.799687470938641 L-32.43178052883257,16.35396785654927 L-50.0,-0.0" fill="green" fill-opacity="0.6" stroke="black" stroke-width="1" />
<path d="M-50.0,-9.0 L-36.60461692488073,-16.635272849463323 L-37.46610424504483,-19.255563178301603" fill="red" fill-opacity="0.6" stroke="black" stroke-width="1" />
<path d="M-50.0,9.0 L-36.60461692488073,16.635272849463323 L-37.46610424504483,19.255563178301603" fill="blue" fill-opacity="0.6" stroke="black" stroke-width="1" />
<path d="M-36.60461692488073,-16.635272849463323 L-37.46610424504483,-19.255563178301603 L-41.51213794051439,-25.960837950994332" fill="green" fill-opacity="0.6" stroke="black" stroke-width="1" />
<path d="M-36.60461692488073,16.635272849463323 L-37.46610424504483,19.255563178301603 L-41.51213794051439,25.960837950994332" fill="purple" fill-opacity="0.6" stroke="black" stroke-width="1" />
<path d="M-37.46610424504483,-19.255563178301603 L-41.51213794051439,-25.960837950994332 L-46.381324956848744,-28.238764837483288" fill="purple" fill-opacity="0.6" stroke="black" stroke-width="1" />
<path d="M-37.46610424504483,19.255563178301603 L-41.51213794051439,25.960837950994332 L-46.381324956848744,28.238764837483288" fill="brown" fill-opacity="0.6" stroke="black" stroke-width="1" />
<path d="M-41.51213794051439,-25.960837950994332 L-46.381324956848744,-28.238764837483288 L-46.861327886001966,-28.39862741448103" fill="orange" fill-opacity="0.6" stroke="black" stroke-width="1" />
<path d="M-41.51213794051439,25.960837950994332 L-46.381324956848744,28.238764837483288 L-46.861327886001966,28.39862741448103" fill="black" fill-opacity="0.6" stroke="black" stroke-width="1" />
<path d="M-46.381324956848744,-28.238764837483288 L-46.861327886001966,-28.39862741448103 L-50.0,-29.0" fill="green" fill-opacity="0.6" stroke="black" stroke-width="1" />
<path d="M-46.381324956848744,28.238764837483288 L-46.861327886001966,28.39862741448103 L-50.0,29.0" fill="black" fill-opacity="0.6" stroke="black" stroke-width="1" />
<path d="M-50.0,-37.0 L-49.21182642601103,-40.77580887592347 L-50.0,-50.0" fill="purple" fill-opacity="0.6" stroke="black" stroke-width="1" />
<path d="M-50.0,37.0 L-49.21182642601103,40.77580887592347 L-50.0,50.0" fill="yellow" fill-opacity="0.6" stroke="black" stroke-width="1" />
<path d="M-50.0,50.0 L-39.0,61.0 L-33.0,67.0" fill="yellow" fill-opacity="0.6" stroke="black" stroke-width="1" />
<path d="M-50.0,-50.0 L-39.0,-61.0 L-33.0,-67.0" fill="green" fill-opacity="0.6" stroke="black" stroke-width="1" />
<path d="M-39.0,61.0 L-33.0,67.0 L-21.0,79.0" fill="purple" fill-opacity="0.6" stroke="black" stroke-width="1" />
<path d="M-39.0,-61.0 L-33.0,-67.0 L-21.0,-79.0" fill="black" fill-opacity="0.6" stroke="black" stroke-width="1" />
<path d="M-33.0,67.0 L-21.0,79.0 L-1.8438015760520898,90.58276021400377" fill="red" fill-opacity="0.6" stroke="black" stroke-width="1" />
<path d="M-33.0,-67.0 L-21.0,-79.0 L-1.8438015760520898,-90.58276021400377" fill="blue" fill-opacity="0.6" stroke="black" stroke-width="1" />
<path d="M-21.0,-21.0 L-9.417239785996228,-1.8438015760520898 L-8.626404757148686,-1.7163328047640647" fill="brown" fill-opacity="0.6" stroke="black" stroke-width="1" />
<path d="M-21.0,21.0 L-9.417239785996228,1.8438015760520898 L-8.626404757148686,1.7163328047640647" fill="brown" fill-opacity="0.6" stroke="black" stroke-width="1" />
<path d="M-9.417239785996228,-1.8438015760520898 L-8.626404757148686,-1.7163328047640647 L-7.864624121906644,-0.6356534941927561" fill="black" fill-opacity="0.6" stroke="black" stroke-width="1" />
<path d="M-9.417239785996228,1.8438015760520898 L-8.626404757148686,1.7163328047640647 L-7.864624121906644,0.6356534941927561" fill="black" fill-opacity="0.6" stroke="black" stroke-width="1" />
<path d="M-8.626404757148686,-1.7163328047640647 L-7.864624121906644,-0.6356534941927561 L-4.671152306864218,-0.49321579802054305" fill="orange" fill-opacity="0.6" stroke="black" stroke-width="1" />
<path d="M-8.626404757148686,1.7163328047640647 L-7.864624121906644,0.6356534941927561 L-4.671152306864218,0.49321579802054305" fill="orange" fill-opacity="0.6" stroke="black" stroke-width="1" />
<path d="M-7.864624121906644,-0.6356534941927561 L-4.671152306864218,-0.49321579802054305 L0.0,-0.0" fill="red" fill-opacity="0.6" stroke="black" stroke-width="1" />
<path d="M-7.864624121906644,0.6356534941927561 L-4.671152306864218,0.49321579802054305 L0.0,-0.0" fill="pink" fill-opacity="0.6" stroke="black" stroke-width="1" />
<path d="M92.0,-0.0 L87.46279284275198,3.6313575518028505 L87.32309066827773,4.333464392005122" fill="green" fill-opacity="0.6" stroke="black" stroke-width="1" />
<path d="M92.0,-0.0 L87.46279284275198,-3.6313575518028505 L87.32309066827773,-4.333464392005122" fill="orange" fill-opacity="0.6" stroke="black" stroke-width="1" />
<path d="M87.46279284275198,3.6313575518028505 L87.32309066827773,4.333464392005122 L85.4491825351717,4.687968511830909" fill="brown" fill-opacity="0.6" stroke="black" stroke-width="1" />
<path d="M87.46279284275198,-3.6313575518028505 L87.32309066827773,-4.333464392005122 L85.4491825351717,-4.687968511830909" fill="black" fill-opacity="0.6" stroke="black" stroke-width="1" />
<path d="M87.32309066827773,4.333464392005122 L85.4491825351717,4.687968511830909 L85.0,-0.0" fill="brown" fill-opacity="0.6" stroke="black" stroke-width="1" />
<path d="M87.32309066827773,-4.333464392005122 L85.4491825351717,-4.687968511830909 L85.0,-0.0" fill="red" fill-opacity="0.6" stroke="black" stroke-width="1" />
<path d="M85.0,-0.0 L79.88231774305535,8.0084974713798 L77.06521159907678,8.743552812560882" fill="blue" fill-opacity="0.6" stroke="black" stroke-width="1" />
<path d="M85.0,-0.0 L79.88231774305535,-8.0084974713798 L77.06521159907678,-8.743552812560882" fill="green" fill-opacity="0.6" stroke="black" stroke-width="1" />
<path d="M79.88231774305535,8.0084974713798 L77.06521159907678,8.743552812560882 L73.17565915096941,12.295324475692091" fill="purple" fill-opacity="0.6" stroke="black" stroke-width="1" />
<path d="M79.88231774305535,-8.0084974713798 L77.06521159907678,-8.743552812560882 L73.17565915096941,-12.295324475692091" fill="red" fill-opacity="0.6" stroke="black" stroke-width="1" />
<path d="M77.06521159907678,8.743552812560882 L73.17565915096941,12.295324475692091 L69.35547709781576,12.46227030927893" fill="red" fill-opacity="0.6" stroke="black" stroke-width="1" />
<path d="M77.06521159907678,-8.743552812560882 L73.17565915096941,-12.295324475692091 L69.35547709781576,-12.46227030927893" fill="brown" fill-opacity="0.6" stroke="black" stroke-width="1" />
<path d="M73.17565915096941,12.295324475692091 L69.35547709781576,12.46227030927893 L68.37790339908832,12.799687470938641" fill="blue" fill-opacity="0.6" stroke="black" stroke-width="1" />
<path d="M73.17565915096941,-12.295324475692091 L69.35547709781576,-12.46227030927893 L68.37790339908832,-12.799687470938641" fill="brown" fill-opacity="0.6" stroke="black" stroke-width="1" />
<path d="M69.35547709781576,12.46227030927893 L68.37790339908832,12.799687470938641 L67.56821947116742,16.35396785654927" fill="brown" fill-opacity="0.6" stroke="black" stroke-width="1" />
<path d="M69.35547709781576,-12.46227030927893 L68.37790339908832,-12.799687470938641 L67.56821947116742,-16.35396785654927" fill="purple" fill-opacity="0.6" stroke="black" stroke-width="1" />
<path d="M68.37790339908832,12.799687470938641 L67.56821947116742,16.35396785654927 L50.0,-0.0" fill="pink" fill-opacity="0.6" stroke="black" stroke-width="1" />
<path d="M68.37790339908832,-12.799687470938641 L67.56821947116742,-16.35396785654927 L50.0,-0.0" fill="orange" fill-opacity="0.6" stroke="black" stroke-width="1" />
<path d="M50.0,9.0 L63.39538307511927,16.635272849463323 L62.53389575495517,19.255563178301603" fill="orange" fill-opacity="0.6" stroke="black" stroke-width="1" />
<path d="M50.0,-9.0 L63.39538307511927,-16.635272849463323 L62.53389575495517,-19.255563178301603" fill="blue" fill-opacity="0.6" stroke="black" stroke-width="1" />
<path d="M63.39538307511927,16.635272849463323 L62.53389575495517,19.255563178301603 L58.48786205948561,25.960837950994332" fill="green" fill-opacity="0.6" stroke="black" stroke-width="1" />
<path d="M63.39538307511927,-16.635272849463323 L62.53389575495517,-19.255563178301603 L58.48786205948561,-25.960837950994332" fill="orange" fill-opacity="0.6" stroke="black" stroke-width="1" />
<path d="M62.53389575495517,19.255563178301603 L58.48786205948561,25.960837950994332 L53.618675043151256,28.238764837483288" fill="black" fill-opacity="0.6" stroke="black" stroke-width="1" />
<path d="M62.53389575495517,-19.255563178301603 L58.48786205948561,-25.960837950994332 L53.618675043151256,-28.238764837483288" fill="black" fill-opacity="0.6" stroke="black" stroke-width="1" />
<path d="M58.48786205948561,25.960837950994332 L53.618675043151256,28.238764837483288 L53.138672113998034,28.39862741448103" fill="pink" fill-opacity="0.6" stroke="black" stroke-width="1" />
<path d="M58.48786205948561,-25.960837950994332 L53.618675043151256,-28.238764837483288 L53.138672113998034,-28.39862741448103" fill="orange" fill-opacity="0.6" stroke="black" stroke-width="1" />
<path d="M53.618675043151256,28.238764837483288 L53.138672113998034,28.39862741448103 L50.0,29.0" fill="blue" fill-opacity="0.6" stroke="black" stroke-width="1" />
<path d="M53.618675043151256,-28.238764837483288 L53.138672113998034,-28.39862741448103 L50.0,-29.0" fill="purple" fill-opacity="0.6" stroke="black" stroke-width="1" />
<path d="M50.0,37.0 L50.78817357398897,40.77580887592347 L50.0,50.0" fill="red" fill-opacity="0.6" stroke="black" stroke-width="1" />
<path d="M50.0,-37.0 L50.78817357398897,-40.77580887592347 L50.0,-50.0" fill="black" fill-opacity="0.6" stroke="black" stroke-width="1" />
<path d="M50.0,50.0 L61.0,39.0 L67.0,33.0" fill="red" fill-opacity="0.6" stroke="black" stroke-width="1" />
<path d="M50.0,-50.0 L61.0,-39.0 L67.0,-33.0" fill="blue" fill-opacity="0.6" stroke="black" stroke-width="1" />
<path d="M61.0,39.0 L67.0,33.0 L79.0,21.0" fill="pink" fill-opacity="0.6" stroke="black" stroke-width="1" />
<path d="M61.0,-39.0 L67.0,-33.0 L79.0,-21.0" fill="pink" fill-opacity="0.6" stroke="black" stroke-width="1" />
<path d="M67.0,33.0 L79.0,21.0 L90.58276021400377,1.8438015760520898" fill="brown" fill-opacity="0.6" stroke="black" stroke-width="1" />
<path d="M67.0,-33.0 L79.0,-21.0 L90.58276021400377,-1.8438015760520898" fill="black" fill-opacity="0.6" stroke="black" stroke-width="1" />
<path d="M79.0,21.0 L90.58276021400377,1.8438015760520898 L91.37359524285131,1.7163328047640647" fill="yellow" fill-opacity="0.6" stroke="black" stroke-width="1" />
<path d="M79.0,-21.0 L90.58276021400377,-1.8438015760520898 L91.37359524285131,-1.7163328047640647" fill="green" fill-opacity="0.6" stroke="black" stroke-width="1" />
<path d="M90.58276021400377,1.8438015760520898 L91.37359524285131,1.7163328047640647 L92.13537587809336,0.6356534941927561" fill="yellow" fill-opacity="0.6" stroke="black" stroke-width="1" />
<path d="M90.58276021400377,-1.8438015760520898 L91.37359524285131,-1.7163328047640647 L92.13537587809336,-0.6356534941927561" fill="purple" fill-opacity="0.6" stroke="black" stroke-width="1" />
<path d="M91.37359524285131,1.7163328047640647 L92.13537587809336,0.6356534941927561 L95.32884769313578,0.49321579802054305" fill="pink" fill-opacity="0.6" stroke="black" stroke-width="1" />
<path d="M91.37359524285131,-1.7163328047640647 L92.13537587809336,-0.6356534941927561 L95.32884769313578,-0.49321579802054305" fill="yellow" fill-opacity="0.6" stroke="black" stroke-width="1" />
<path d="M92.13537587809336,0.6356534941927561 L95.32884769313578,0.49321579802054305 L100.0,-0.0" fill="purple" fill-opacity="0.6" stroke="black" stroke-width="1" />
<path d="M92.13537587809336,-0.6356534941927561 L95.32884769313578,-0.49321579802054305 L100.0,-0.0" fill="blue" fill-opacity="0.6" stroke="black" stroke-width="1" />
<path d="M0.0,-8.0 L3.6313575518028505,-12.537207157248016 L4.333464392005122,-12.676909331722262" fill="yellow" fill-opacity="0.6" stroke="black" stroke-width="1" />
<path d="M0.0,8.0 L3.6313575518028505,12.537207157248016 L4.333464392005122,12.676909331722262" fill="yellow" fill-opacity="0.6" stroke="black" stroke-width="1" />
<path d="M0.0,92.0 L3.6313575518028505,87.46279284275198 L4.333464392005122,87.32309066827773" fill="green" fill-opacity="0.6" stroke="black" stroke-width="1" />
<path d="M0.0,-92.0 L3.6313575518028505,-87.46279284275198 L4.333464392005122,-87.32309066827773" fill="orange" fill-opacity="0.6" stroke="black" stroke-width="1" />
<path d="M3.6313575518028505,-12.537207157248016 L4.333464392005122,-12.676909331722262 L4.687968511830909,-14.550817464828297" fill="blue" fill-opacity="0.6" stroke="black" stroke-width="1" />
<path d="M3.6313575518028505,12.537207157248016 L4.333464392005122,12.676909331722262 L4.687968511830909,14.550817464828297" fill="blue" fill-opacity="0.6" stroke="black" stroke-width="1" />
<path d="M3.6313575518028505,87.46279284275198 L4.333464392005122,87.32309066827773 L4.687968511830909,85.4491825351717" fill="orange" fill-opacity="0.6" stroke="black" stroke-width="1" />
<path d="M3.6313575518028505,-87.46279284275198 L4.333464392005122,-87.32309066827773 L4.687968511830909,-85.4491825351717" fill="black" fill-opacity="0.6" stroke="black" stroke-width="1" />
<path d="M4.333464392005122,-12.676909331722262 L4.687968511830909,-14.550817464828297 L0.0,-15.0" fill="orange" fill-opacity="0.6" stroke="black" stroke-width="1" />
<path d="M4.333464392005122,12.676909331722262 L4.687968511830909,14.550817464828297 L0.0,15.0" fill="pink" fill-opacity="0.6" stroke="black" stroke-width="1" />
<path d="M4.333464392005122,87.32309066827773 L4.687968511830909,85.4491825351717 L0.0,85.0" fill="yellow" fill-opacity="0.6" stroke="black" stroke-width="1" />
<path d="M4.333464392005122,-87.32309066827773 L4.687968511830909,-85.4491825351717 L0.0,-85.0" fill="blue" fill-opacity="0.6" stroke="black" stroke-width="1" />
<path d="M0.0,-15.0 L8.0084974713798,-20.117682256944647 L8.743552812560882,-22.934788400923225" fill="red" fill-opacity="0.6" stroke="black" stroke-width="1" />
<path d="M0.0,15.0 L8.0084974713798,20.117682256944647 L8.743552812560882,22.934788400923225" fill="pink" fill-opacity="0.6" stroke="black" stroke-width="1" />
<path d="M0.0,85.0 L8.0084974713798,79.88231774305535 L8.743552812560882,77.06521159907678" fill="blue" fill-opacity="0.6" stroke="black" stroke-width="1" />
<path d="M0.0,-85.0 L8.0084974713798,-79.88231774305535 L8.743552812560882,-77.06521159907678" fill="green" fill-opacity="0.6" stroke="black" stroke-width="1" />
<path d="M8.0084974713798,-20.117682256944647 L8.743552812560882,-22.934788400923225 L12.295324475692091,-26.824340849030587" fill="yellow" fill-opacity="0.6" stroke="black" stroke-width="1" />
<path d="M8.0084974713798,20.117682256944647 L8.743552812560882,22.934788400923225 L12.295324475692091,26.824340849030587" fill="black" fill-opacity="0.6" stroke="black" stroke-width="1" />
<path d="M8.0084974713798,79.88231774305535 L8.743552812560882,77.06521159907678 L12.295324475692091,73.17565915096941" fill="brown" fill-opacity="0.6" stroke="black" stroke-width="1" />
<path d="M8.0084974713798,-79.88231774305535 L8.743552812560882,-77.06521159907678 L12.295324475692091,-73.17565915096941" fill="blue" fill-opacity="0.6" stroke="black" stroke-width="1" />
<path d="M8.743552812560882,-22.934788400923225 L12.295324475692091,-26.824340849030587 L12.46227030927893,-30.64452290218423" fill="blue" fill-opacity="0.6" stroke="black" stroke-width="1" />
<path d="M8.743552812560882,22.934788400923225 L12.295324475692091,26.824340849030587 L12.46227030927893,30.64452290218423" fill="red" fill-opacity="0.6" stroke="black" stroke-width="1" />
<path d="M8.743552812560882,77.06521159907678 L12.295324475692091,73.17565915096941 L12.46227030927893,69.35547709781576" fill="green" fill-opacity="0.6" stroke="black" stroke-width="1" />
<path d="M8.743552812560882,-77.06521159907678 L12.295324475692091,-73.17565915096941 L12.46227030927893,-69.35547709781576" fill="orange" fill-opacity="0.6" stroke="black" stroke-width="1" />
<path d="M12.295324475692091,-26.824340849030587 L12.46227030927893,-30.64452290218423 L12.799687470938641,-31.622096600911675" fill="brown" fill-opacity="0.6" stroke="black" stroke-width="1" />
<path d="M12.295324475692091,26.824340849030587 L12.46227030927893,30.64452290218423 L12.799687470938641,31.622096600911675" fill="pink" fill-opacity="0.6" stroke="black" stroke-width="1" />
<path d="M12.295324475692091,73.17565915096941 L12.46227030927893,69.35547709781576 L12.799687470938641,68.37790339908832" fill="yellow" fill-opacity="0.6" stroke="black" stroke-width="1" />
<path d="M12.295324475692091,-73.17565915096941 L12.46227030927893,-69.35547709781576 L12.799687470938641,-68.37790339908832" fill="purple" fill-opacity="0.6" stroke="black" stroke-width="1" />
<path d="M12.46227030927893,-30.64452290218423 L12.799687470938641,-31.622096600911675 L16.35396785654927,-32.43178052883257" fill="orange" fill-opacity="0.6" stroke="black" stroke-width="1" />
<path d="M12.46227030927893,30.64452290218423 L12.799687470938641,31.622096600911675 L16.35396785654927,32.43178052883257" fill="pink" fill-opacity="0.6" stroke="black" stroke-width="1" />
<path d="M12.46227030927893,69.35547709781576 L12.799687470938641,68.37790339908832 L16.35396785654927,67.56821947116742" fill="blue" fill-opacity="0.6" stroke="black" stroke-width="1" />
<path d="M12.46227030927893,-69.35547709781576 L12.799687470938641,-68.37790339908832 L16.35396785654927,-67.56821947116742" fill="brown" fill-opacity="0.6" stroke="black" stroke-width="1" />
<path d="M12.799687470938641,-31.622096600911675 L16.35396785654927,-32.43178052883257 L0.0,-50.0" fill="red" fill-opacity="0.6" stroke="black" stroke-width="1" />
<path d="M12.799687470938641,31.622096600911675 L16.35396785654927,32.43178052883257 L0.0,50.0" fill="black" fill-opacity="0.6" stroke="black" stroke-width="1" />
<path d="M12.799687470938641,68.37790339908832 L16.35396785654927,67.56821947116742 L0.0,50.0" fill="purple" fill-opacity="0.6" stroke="black" stroke-width="1" />
<path d="M12.799687470938641,-68.37790339908832 L16.35396785654927,-67.56821947116742 L0.0,-50.0" fill="pink" fill-opacity="0.6" stroke="black" stroke-width="1" />
<path d="M9.0,-50.0 L16.635272849463323,-36.60461692488073 L19.255563178301603,-37.46610424504483" fill="red" fill-opacity="0.6" stroke="black" stroke-width="1" />
<path d="M9.0,50.0 L16.635272849463323,36.60461692488073 L19.255563178301603,37.46610424504483" fill="purple" fill-opacity="0.6" stroke="black" stroke-width="1" />
<path d="M9.0,50.0 L16.635272849463323,63.39538307511927 L19.255563178301603,62.53389575495517" fill="red" fill-opacity="0.6" stroke="black" stroke-width="1" />
<path d="M9.0,-50.0 L16.635272849463323,-63.39538307511927 L19.255563178301603,-62.53389575495517" fill="black" fill-opacity="0.6" stroke="black" stroke-width="1" />
<path d="M16.635272849463323,-36.60461692488073 L19.255563178301603,-37.46610424504483 L25.960837950994332,-41.51213794051439" fill="green" fill-opacity="0.6" stroke="black" stroke-width="1" />
<path d="M16.635272849463323,36.60461692488073 L19.255563178301603,37.46610424504483 L25.960837950994332,41.51213794051439" fill="green" fill-opacity="0.6" stroke="black" stroke-width="1" />
<path d="M16.635272849463323,63.39538307511927 L19.255563178301603,62.53389575495517 L25.960837950994332,58.48786205948561" fill="green" fill-opacity="0.6" stroke="black" stroke-width="1" />
<path d="M16.635272849463323,-63.39538307511927 L19.255563178301603,-62.53389575495517 L25.960837950994332,-58.48786205948561" fill="green" fill-opacity="0.6" stroke="black" stroke-width="1" />
<path d="M19.255563178301603,-37.46610424504483 L25.960837950994332,-41.51213794051439 L28.238764837483288,-46.381324956848744" fill="orange" fill-opacity="0.6" stroke="black" stroke-width="1" />
<path d="M19.255563178301603,37.46610424504483 L25.960837950994332,41.51213794051439 L28.238764837483288,46.381324956848744" fill="orange" fill-opacity="0.6" stroke="black" stroke-width="1" />
<path d="M19.255563178301603,62.53389575495517 L25.960837950994332,58.48786205948561 L28.238764837483288,53.618675043151256" fill="yellow" fill-opacity="0.6" stroke="black" stroke-width="1" />
<path d="M19.255563178301603,-62.53389575495517 L25.960837950994332,-58.48786205948561 L28.238764837483288,-53.618675043151256" fill="black" fill-opacity="0.6" stroke="black" stroke-width="1" />
<path d="M25.960837950994332,-41.51213794051439 L28.238764837483288,-46.381324956848744 L28.39862741448103,-46.861327886001966" fill="orange" fill-opacity="0.6" stroke="black" stroke-width="1" />
<path d="M25.960837950994332,41.51213794051439 L28.238764837483288,46.381324956848744 L28.39862741448103,46.861327886001966" fill="pink" fill-opacity="0.6" stroke="black" stroke-width="1" />
<path d="M25.960837950994332,58.48786205948561 L28.238764837483288,53.618675043151256 L28.39862741448103,53.138672113998034" fill="blue" fill-opacity="0.6" stroke="black" stroke-width="1" />
<path d="M25.960837950994332,-58.48786205948561 L28.238764837483288,-53.618675043151256 L28.39862741448103,-53.138672113998034" fill="orange" fill-opacity="0.6" stroke="black" stroke-width="1" />
<path d="M28.238764837483288,-46.381324956848744 L28.39862741448103,-46.861327886001966 L29.0,-50.0" fill="purple" fill-opacity="0.6" stroke="black" stroke-width="1" />
<path d="M28.238764837483288,46.381324956848744 L28.39862741448103,46.861327886001966 L29.0,50.0" fill="red" fill-opacity="0.6" stroke="black" stroke-width="1" />
<path d="M28.238764837483288,53.618675043151256 L28.39862741448103,53.138672113998034 L29.0,50.0" fill="blue" fill-opacity="0.6" stroke="black" stroke-width="1" />
<path d="M28.238764837483288,-53.618675043151256 L28.39862741448103,-53.138672113998034 L29.0,-50.0" fill="red" fill-opacity="0.6" stroke="black" stroke-width="1" />
<path d="M37.0,-50.0 L40.77580887592347,-49.21182642601103 L50.0,-50.0" fill="green" fill-opacity="0.6" stroke="black" stroke-width="1" />
<path d="M37.0,50.0 L40.77580887592347,49.21182642601103 L50.0,50.0" fill="pink" fill-opacity="0.6" stroke="black" stroke-width="1" />
<path d="M37.0,50.0 L40.77580887592347,50.78817357398897 L50.0,50.0" fill="pink" fill-opacity="0.6" stroke="black" stroke-width="1" />
<path d="M37.0,-50.0 L40.77580887592347,-50.78817357398897 L50.0,-50.0" fill="red" fill-opacity="0.6" stroke="black" stroke-width="1" />
<path d="M21.0,-21.0 L1.8438015760520898,-9.417239785996228 L1.7163328047640647,-8.626404757148686" fill="brown" fill-opacity="0.6" stroke="black" stroke-width="1" />
<path d="M21.0,21.0 L1.8438015760520898,9.417239785996228 L1.7163328047640647,8.626404757148686" fill="yellow" fill-opacity="0.6" stroke="black" stroke-width="1" />
<path d="M21.0,79.0 L1.8438015760520898,90.58276021400377 L1.7163328047640647,91.37359524285131" fill="black" fill-opacity="0.6" stroke="black" stroke-width="1" />
<path d="M21.0,-79.0 L1.8438015760520898,-90.58276021400377 L1.7163328047640647,-91.37359524285131" fill="orange" fill-opacity="0.6" stroke="black" stroke-width="1" />
<path d="M1.8438015760520898,-9.417239785996228 L1.7163328047640647,-8.626404757148686 L0.6356534941927561,-7.864624121906644" fill="green" fill-opacity="0.6" stroke="black" stroke-width="1" />
<path d="M1.8438015760520898,9.417239785996228 L1.7163328047640647,8.626404757148686 L0.6356534941927561,7.864624121906644" fill="orange" fill-opacity="0.6" stroke="black" stroke-width="1" />
<path d="M1.8438015760520898,90.58276021400377 L1.7163328047640647,91.37359524285131 L0.6356534941927561,92.13537587809336" fill="pink" fill-opacity="0.6" stroke="black" stroke-width="1" />
<path d="M1.8438015760520898,-90.58276021400377 L1.7163328047640647,-91.37359524285131 L0.6356534941927561,-92.13537587809336" fill="black" fill-opacity="0.6" stroke="black" stroke-width="1" />
<path d="M1.7163328047640647,-8.626404757148686 L0.6356534941927561,-7.864624121906644 L0.49321579802054305,-4.671152306864218" fill="blue" fill-opacity="0.6" stroke="black" stroke-width="1" />
<path d="M1.7163328047640647,8.626404757148686 L0.6356534941927561,7.864624121906644 L0.49321579802054305,4.671152306864218" fill="orange" fill-opacity="0.6" stroke="black" stroke-width="1" />
<path d="M1.7163328047640647,91.37359524285131 L0.6356534941927561,92.13537587809336 L0.49321579802054305,95.32884769313578" fill="purple" fill-opacity="0.6" stroke="black" stroke-width="1" />
<path d="M1.7163328047640647,-91.37359524285131 L0.6356534941927561,-92.13537587809336 L0.49321579802054305,-95.32884769313578" fill="red" fill-opacity="0.6" stroke="black" stroke-width="1" />
<path d="M0.6356534941927561,-7.864624121906644 L0.49321579802054305,-4.671152306864218 L0.0,-0.0" fill="orange" fill-opacity="0.6" stroke="black" stroke-width="1" />
<path d="M0.6356534941927561,7.864624121906644 L0.49321579802054305,4.671152306864218 L0.0,-0.0" fill="purple" fill-opacity="0.6" stroke="black" stroke-width="1" />
<path d="M0.6356534941927561,92.13537587809336 L0.49321579802054305,95.32884769313578 L0.0,100.0" fill="purple" fill-opacity="0.6" stroke="black" stroke-width="1" />
<path d="M0.6356534941927561,-92.13537587809336 L0.49321579802054305,-95.32884769313578 L0.0,-100.0" fill="red" fill-opacity="0.6" stroke="black" stroke-width="1" />
<path d="M0.0,92.0 L-3.6313575518028505,87.46279284275198 L-4.333464392005122,87.32309066827774" fill="red" fill-opacity="0.6" stroke="black" stroke-width="1" />
<path d="M0.0,-8.0 L-3.6313575518028505,-12.537207157248016 L-4.333464392005122,-12.676909331722262" fill="yellow" fill-opacity="0.6" stroke="black" stroke-width="1" />
<path d="M0.0,8.0 L-3.6313575518028505,12.53720715724802 L-4.333464392005122,12.676909331722257" fill="red" fill-opacity="0.6" stroke="black" stroke-width="1" />
<path d="M0.0,-92.0 L-3.6313575518028505,-87.46279284275198 L-4.333464392005122,-87.32309066827773" fill="blue" fill-opacity="0.6" stroke="black" stroke-width="1" />
<path d="M-3.6313575518028505,87.46279284275198 L-4.333464392005122,87.32309066827774 L-4.687968511830909,85.4491825351717" fill="black" fill-opacity="0.6" stroke="black" stroke-width="1" />
<path d="M-3.6313575518028505,-12.537207157248016 L-4.333464392005122,-12.676909331722262 L-4.687968511830909,-14.550817464828297" fill="green" fill-opacity="0.6" stroke="black" stroke-width="1" />
<path d="M-3.6313575518028505,12.53720715724802 L-4.333464392005122,12.676909331722257 L-4.687968511830909,14.550817464828299" fill="black" fill-opacity="0.6" stroke="black" stroke-width="1" />
<path d="M-3.6313575518028505,-87.46279284275198 L-4.333464392005122,-87.32309066827773 L-4.687968511830909,-85.4491825351717" fill="black" fill-opacity="0.6" stroke="black" stroke-width="1" />
<path d="M-4.333464392005122,87.32309066827774 L-4.687968511830909,85.4491825351717 L0.0,85.0" fill="blue" fill-opacity="0.6" stroke="black" stroke-width="1" />
<path d="M-4.333464392005122,-12.676909331722262 L-4.687968511830909,-14.550817464828297 L0.0,-15.0" fill="green" fill-opacity="0.6" stroke="black" stroke-width="1" />
<path d="M-4.333464392005122,12.676909331722257 L-4.687968511830909,14.550817464828299 L0.0,15.0" fill="purple" fill-opacity="0.6" stroke="black" stroke-width="1" />
<path d="M-4.333464392005122,-87.32309066827773 L-4.687968511830909,-85.4491825351717 L0.0,-85.0" fill="pink" fill-opacity="0.6" stroke="black" stroke-width="1" />
<path d="M0.0,85.0 L-8.0084974713798,79.88231774305535 L-8.743552812560882,77.06521159907678" fill="red" fill-opacity="0.6" stroke="black" stroke-width="1" />
<path d="M0.0,-15.0 L-8.0084974713798,-20.117682256944647 L-8.743552812560882,-22.934788400923225" fill="purple" fill-opacity="0.6" stroke="black" stroke-width="1" />
<path d="M0.0,15.0 L-8.0084974713798,20.117682256944647 L-8.743552812560882,22.934788400923225" fill="red" fill-opacity="0.6" stroke="black" stroke-width="1" />
<path d="M0.0,-85.0 L-8.0084974713798,-79.88231774305535 L-8.743552812560882,-77.06521159907678" fill="blue" fill-opacity="0.6" stroke="black" stroke-width="1" />
<path d="M-8.0084974713798,79.88231774305535 L-8.743552812560882,77.06521159907678 L-12.295324475692091,73.17565915096941" fill="orange" fill-opacity="0.6" stroke="black" stroke-width="1" />
<path d="M-8.0084974713798,-20.117682256944647 L-8.743552812560882,-22.934788400923225 L-12.295324475692091,-26.824340849030587" fill="purple" fill-opacity="0.6" stroke="black" stroke-width="1" />
<path d="M-8.0084974713798,20.117682256944647 L-8.743552812560882,22.934788400923225 L-12.295324475692091,26.82434084903059" fill="pink" fill-opacity="0.6" stroke="black" stroke-width="1" />
<path d="M-8.0084974713798,-79.88231774305535 L-8.743552812560882,-77.06521159907678 L-12.295324475692091,-73.17565915096941" fill="black" fill-opacity="0.6" stroke="black" stroke-width="1" />
<path d="M-8.743552812560882,77.06521159907678 L-12.295324475692091,73.17565915096941 L-12.46227030927893,69.35547709781576" fill="pink" fill-opacity="0.6" stroke="black" stroke-width="1" />
<path d="M-8.743552812560882,-22.934788400923225 L-12.295324475692091,-26.824340849030587 L-12.46227030927893,-30.64452290218423" fill="brown" fill-opacity="0.6" stroke="black" stroke-width="1" />
<path d="M-8.743552812560882,22.934788400923225 L-12.295324475692091,26.82434084903059 L-12.46227030927893,30.644522902184235" fill="green" fill-opacity="0.6" stroke="black" stroke-width="1" />
<path d="M-8.743552812560882,-77.06521159907678 L-12.295324475692091,-73.17565915096941 L-12.46227030927893,-69.35547709781576" fill="green" fill-opacity="0.6" stroke="black" stroke-width="1" />
<path d="M-12.295324475692091,73.17565915096941 L-12.46227030927893,69.35547709781576 L-12.799687470938641,68.37790339908832" fill="red" fill-opacity="0.6" stroke="black" stroke-width="1" />
<path d="M-12.295324475692091,-26.824340849030587 L-12.46227030927893,-30.64452290218423 L-12.799687470938641,-31.622096600911675" fill="brown" fill-opacity="0.6" stroke="black" stroke-width="1" />
<path d="M-12.295324475692091,26.82434084903059 L-12.46227030927893,30.644522902184235 L-12.799687470938641,31.622096600911675" fill="pink" fill-opacity="0.6" stroke="black" stroke-width="1" />
<path d="M-12.295324475692091,-73.17565915096941 L-12.46227030927893,-69.35547709781576 L-12.799687470938641,-68.37790339908832" fill="pink" fill-opacity="0.6" stroke="black" stroke-width="1" />
<path d="M-12.46227030927893,69.35547709781576 L-12.799687470938641,68.37790339908832 L-16.35396785654927,67.56821947116742" fill="blue" fill-opacity="0.6" stroke="black" stroke-width="1" />
<path d="M-12.46227030927893,-30.64452290218423 L-12.799687470938641,-31.622096600911675 L-16.35396785654927,-32.43178052883257" fill="red" fill-opacity="0.6" stroke="black" stroke-width="1" />
<path d="M-12.46227030927893,30.644522902184235 L-12.799687470938641,31.622096600911675 L-16.35396785654927,32.431780528832576" fill="green" fill-opacity="0.6" stroke="black" stroke-width="1" />
<path d="M-12.46227030927893,-69.35547709781576 L-12.799687470938641,-68.37790339908832 L-16.35396785654927,-67.56821947116742" fill="blue" fill-opacity="0.6" stroke="black" stroke-width="1" />
<path d="M-12.799687470938641,68.37790339908832 L-16.35396785654927,67.56821947116742 L0.0,50.0" fill="pink" fill-opacity="0.6" stroke="black" stroke-width="1" />
<path d="M-12.799687470938641,-31.622096600911675 L-16.35396785654927,-32.43178052883257 L0.0,-50.0" fill="blue" fill-opacity="0.6" stroke="black" stroke-width="1" />
<path d="M-12.799687470938641,31.622096600911675 L-16.35396785654927,32.431780528832576 L0.0,50.0" fill="red" fill-opacity="0.6" stroke="black" stroke-width="1" />
<path d="M-12.799687470938641,-68.37790339908832 L-16.35396785654927,-67.56821947116742 L0.0,-50.0" fill="black" fill-opacity="0.6" stroke="black" stroke-width="1" />
<path d="M-9.0,50.0 L-16.635272849463323,63.39538307511927 L-19.255563178301603,62.53389575495517" fill="blue" fill-opacity="0.6" stroke="black" stroke-width="1" />
<path d="M-9.0,-50.0 L-16.635272849463323,-36.60461692488073 L-19.255563178301603,-37.46610424504483" fill="green" fill-opacity="0.6" stroke="black" stroke-width="1" />
<path d="M-9.0,50.0 L-16.635272849463323,36.60461692488073 L-19.255563178301603,37.46610424504483" fill="red" fill-opacity="0.6" stroke="black" stroke-width="1" />
<path d="M-9.0,-50.0 L-16.635272849463323,-63.39538307511927 L-19.255563178301603,-62.53389575495517" fill="pink" fill-opacity="0.6" stroke="black" stroke-width="1" />
<path d="M-16.635272849463323,63.39538307511927 L-19.255563178301603,62.53389575495517 L-25.960837950994332,58.48786205948561" fill="yellow" fill-opacity="0.6" stroke="black" stroke-width="1" />
<path d="M-16.635272849463323,-36.60461692488073 L-19.255563178301603,-37.46610424504483 L-25.960837950994332,-41.51213794051439" fill="orange" fill-opacity="0.6" stroke="black" stroke-width="1" />
<path d="M-16.635272849463323,36.60461692488073 L-19.255563178301603,37.46610424504483 L-25.960837950994332,41.51213794051439" fill="red" fill-opacity="0.6" stroke="black" stroke-width="1" />
<path d="M-16.635272849463323,-63.39538307511927 L-19.255563178301603,-62.53389575495517 L-25.960837950994332,-58.48786205948561" fill="purple" fill-opacity="0.6" stroke="black" stroke-width="1" />
<path d="M-19.255563178301603,62.53389575495517 L-25.960837950994332,58.48786205948561 L-28.238764837483288,53.618675043151256" fill="red" fill-opacity="0.6" stroke="black" stroke-width="1" />
<path d="M-19.255563178301603,-37.46610424504483 L-25.960837950994332,-41.51213794051439 L-28.238764837483288,-46.381324956848744" fill="black" fill-opacity="0.6" stroke="black" stroke-width="1" />
<path d="M-19.255563178301603,37.46610424504483 L-25.960837950994332,41.51213794051439 L-28.238764837483288,46.381324956848744" fill="orange" fill-opacity="0.6" stroke="black" stroke-width="1" />
<path d="M-19.255563178301603,-62.53389575495517 L-25.960837950994332,-58.48786205948561 L-28.238764837483288,-53.618675043151256" fill="brown" fill-opacity="0.6" stroke="black" stroke-width="1" />
<path d="M-25.960837950994332,58.48786205948561 L-28.238764837483288,53.618675043151256 L-28.39862741448103,53.138672113998034" fill="brown" fill-opacity="0.6" stroke="black" stroke-width="1" />
<path d="M-25.960837950994332,-41.51213794051439 L-28.238764837483288,-46.381324956848744 L-28.39862741448103,-46.861327886001966" fill="orange" fill-opacity="0.6" stroke="black" stroke-width="1" />
<path d="M-25.960837950994332,41.51213794051439 L-28.238764837483288,46.381324956848744 L-28.39862741448103,46.861327886001966" fill="orange" fill-opacity="0.6" stroke="black" stroke-width="1" />
<path d="M-25.960837950994332,-58.48786205948561 L-28.238764837483288,-53.618675043151256 L-28.39862741448103,-53.138672113998034" fill="yellow" fill-opacity="0.6" stroke="black" stroke-width="1" />
<path d="M-28.238764837483288,53.618675043151256 L-28.39862741448103,53.138672113998034 L-29.0,50.0" fill="orange" fill-opacity="0.6" stroke="black" stroke-width="1" />
<path d="M-28.238764837483288,-46.381324956848744 L-28.39862741448103,-46.861327886001966 L-29.0,-50.0" fill="purple" fill-opacity="0.6" stroke="black" stroke-width="1" />
<path d="M-28.238764837483288,46.381324956848744 L-28.39862741448103,46.861327886001966 L-29.0,50.0" fill="green" fill-opacity="0.6" stroke="black" stroke-width="1" />
<path d="M-28.238764837483288,-53.618675043151256 L-28.39862741448103,-53.138672113998034 L-29.0,-50.0" fill="yellow" fill-opacity="0.6" stroke="black" stroke-width="1" />
<path d="M-37.0,50.0 L-40.77580887592347,50.78817357398897 L-50.0,50.0" fill="green" fill-opacity="0.6" stroke="black" stroke-width="1" />
<path d="M-37.0,-50.0 L-40.77580887592347,-49.21182642601103 L-50.0,-50.0" fill="yellow" fill-opacity="0.6" stroke="black" stroke-width="1" />
<path d="M-37.0,50.0 L-40.77580887592347,49.21182642601103 L-50.0,50.0" fill="black" fill-opacity="0.6" stroke="black" stroke-width="1" />
<path d="M-37.0,-50.0 L-40.77580887592347,-50.78817357398897 L-50.0,-50.0" fill="orange" fill-opacity="0.6" stroke="black" stroke-width="1" />
<path d="M-21.0,79.0 L-1.8438015760520898,90.58276021400377 L-1.7163328047640647,91.37359524285131" fill="brown" fill-opacity="0.6" stroke="black" stroke-width="1" />
<path d="M-21.0,-21.0 L-1.8438015760520898,-9.417239785996228 L-1.7163328047640647,-8.626404757148686" fill="brown" fill-opacity="0.6" stroke="black" stroke-width="1" />
<path d="M-21.0,21.0 L-1.8438015760520898,9.41723978599623 L-1.7163328047640647,8.626404757148691" fill="brown" fill-opacity="0.6" stroke="black" stroke-width="1" />
<path d="M-21.0,-79.0 L-1.8438015760520898,-90.58276021400377 L-1.7163328047640647,-91.37359524285131" fill="pink" fill-opacity="0.6" stroke="black" stroke-width="1" />
<path d="M-1.8438015760520898,90.58276021400377 L-1.7163328047640647,91.37359524285131 L-0.6356534941927561,92.13537587809336" fill="blue" fill-opacity="0.6" stroke="black" stroke-width="1" />
<path d="M-1.8438015760520898,-9.417239785996228 L-1.7163328047640647,-8.626404757148686 L-0.6356534941927561,-7.864624121906644" fill="pink" fill-opacity="0.6" stroke="black" stroke-width="1" />
<path d="M-1.8438015760520898,9.41723978599623 L-1.7163328047640647,8.626404757148691 L-0.6356534941927561,7.864624121906644" fill="blue" fill-opacity="0.6" stroke="black" stroke-width="1" />
<path d="M-1.8438015760520898,-90.58276021400377 L-1.7163328047640647,-91.37359524285131 L-0.6356534941927561,-92.13537587809336" fill="red" fill-opacity="0.6" stroke="black" stroke-width="1" />
<path d="M-1.7163328047640647,91.37359524285131 L-0.6356534941927561,92.13537587809336 L-0.49321579802054305,95.32884769313578" fill="orange" fill-opacity="0.6" stroke="black" stroke-width="1" />
<path d="M-1.7163328047640647,-8.626404757148686 L-0.6356534941927561,-7.864624121906644 L-0.49321579802054305,-4.671152306864218" fill="yellow" fill-opacity="0.6" stroke="black" stroke-width="1" />
<path d="M-1.7163328047640647,8.626404757148691 L-0.6356534941927561,7.864624121906644 L-0.49321579802054305,4.671152306864215" fill="purple" fill-opacity="0.6" stroke="black" stroke-width="1" />
<path d="M-1.7163328047640647,-91.37359524285131 L-0.6356534941927561,-92.13537587809336 L-0.49321579802054305,-95.32884769313578" fill="blue" fill-opacity="0.6" stroke="black" stroke-width="1" />
<path d="M-0.6356534941927561,92.13537587809336 L-0.49321579802054305,95.32884769313578 L0.0,100.0" fill="orange" fill-opacity="0.6" stroke="black" stroke-width="1" />
<path d="M-0.6356534941927561,-7.864624121906644 L-0.49321579802054305,-4.671152306864218 L0.0,-0.0" fill="green" fill-opacity="0.6" stroke="black" stroke-width="1" />
<path d="M-0.6356534941927561,7.864624121906644 L-0.49321579802054305,4.671152306864215 L0.0,-0.0" fill="brown" fill-opacity="0.6" stroke="black" stroke-width="1" />
<path d="M-0.6356534941927561,-92.13537587809336 L-0.49321579802054305,-95.32884769313578 L0.0,-100.0" fill="yellow" fill-opacity="0.6" stroke="black" stroke-width="1" />
<path d="M-92.0,-0.0 L-87.46279284275198,-3.6313575518028505 L-87.32309066827773,-4.333464392005122" fill="blue" fill-opacity="0.6" stroke="black" stroke-width="1" />
<path d="M-92.0,-0.0 L-87.46279284275198,3.6313575518028505 L-87.32309066827773,4.333464392005122" fill="brown" fill-opacity="0.6" stroke="black" stroke-width="1" />
<path d="M-87.46279284275198,-3.6313575518028505 L-87.32309066827773,-4.333464392005122 L-85.4491825351717,-4.687968511830909" fill="black" fill-opacity="0.6" stroke="black" stroke-width="1" />
<path d="M-87.46279284275198,3.6313575518028505 L-87.32309066827773,4.333464392005122 L-85.4491825351717,4.687968511830909" fill="green" fill-opacity="0.6" stroke="black" stroke-width="1" />
<path d="M-87.32309066827773,-4.333464392005122 L-85.4491825351717,-4.687968511830909 L-85.0,-0.0" fill="black" fill-opacity="0.6" stroke="black" stroke-width="1" />
<path d="M-87.32309066827773,4.333464392005122 L-85.4491825351717,4.687968511830909 L-85.0,-0.0" fill="orange" fill-opacity="0.6" stroke="black" stroke-width="1" />
<path d="M-85.0,-0.0 L-79.88231774305535,-8.0084974713798 L-77.06521159907678,-8.743552812560882" fill="red" fill-opacity="0.6" stroke="black" stroke-width="1" />
<path d="M-85.0,-0.0 L-79.88231774305535,8.0084974713798 L-77.06521159907678,8.743552812560882" fill="yellow" fill-opacity="0.6" stroke="black" stroke-width="1" />
<path d="M-79.88231774305535,-8.0084974713798 L-77.06521159907678,-8.743552812560882 L-73.17565915096941,-12.295324475692091" fill="yellow" fill-opacity="0.6" stroke="black" stroke-width="1" />
<path d="M-79.88231774305535,8.0084974713798 L-77.06521159907678,8.743552812560882 L-73.17565915096941,12.295324475692091" fill="red" fill-opacity="0.6" stroke="black" stroke-width="1" />
<path d="M-77.06521159907678,-8.743552812560882 L-73.17565915096941,-12.295324475692091 L-69.35547709781576,-12.46227030927893" fill="brown" fill-opacity="0.6" stroke="black" stroke-width="1" />
<path d="M-77.06521159907678,8.743552812560882 L-73.17565915096941,12.295324475692091 L-69.35547709781576,12.46227030927893" fill="orange" fill-opacity="0.6" stroke="black" stroke-width="1" />
<path d="M-73.17565915096941,-12.295324475692091 L-69.35547709781576,-12.46227030927893 L-68.37790339908832,-12.799687470938641" fill="orange" fill-opacity="0.6" stroke="black" stroke-width="1" />
<path d="M-73.17565915096941,12.295324475692091 L-69.35547709781576,12.46227030927893 L-68.37790339908832,12.799687470938641" fill="purple" fill-opacity="0.6" stroke="black" stroke-width="1" />
<path d="M-69.35547709781576,-12.46227030927893 L-68.37790339908832,-12.799687470938641 L-67.56821947116742,-16.35396785654927" fill="blue" fill-opacity="0.6" stroke="black" stroke-width="1" />
<path d="M-69.35547709781576,12.46227030927893 L-68.37790339908832,12.799687470938641 L-67.56821947116742,16.35396785654927" fill="yellow" fill-opacity="0.6" stroke="black" stroke-width="1" />
<path d="M-68.37790339908832,-12.799687470938641 L-67.56821947116742,-16.35396785654927 L-50.0,-0.0" fill="blue" fill-opacity="0.6" stroke="black" stroke-width="1" />
<path d="M-68.37790339908832,12.799687470938641 L-67.56821947116742,16.35396785654927 L-50.0,-0.0" fill="red" fill-opacity="0.6" stroke="black" stroke-width="1" />
<path d="M-50.0,-9.0 L-63.39538307511927,-16.635272849463323 L-62.53389575495517,-19.255563178301603" fill="yellow" fill-opacity="0.6" stroke="black" stroke-width="1" />
<path d="M-50.0,9.0 L-63.39538307511927,16.635272849463323 L-62.53389575495517,19.255563178301603" fill="pink" fill-opacity="0.6" stroke="black" stroke-width="1" />
<path d="M-63.39538307511927,-16.635272849463323 L-62.53389575495517,-19.255563178301603 L-58.48786205948561,-25.960837950994332" fill="brown" fill-opacity="0.6" stroke="black" stroke-width="1" />
<path d="M-63.39538307511927,16.635272849463323 L-62.53389575495517,19.255563178301603 L-58.48786205948561,25.960837950994332" fill="pink" fill-opacity="0.6" stroke="black" stroke-width="1" />
<path d="M-62.53389575495517,-19.255563178301603 L-58.48786205948561,-25.960837950994332 L-53.618675043151256,-28.238764837483288" fill="red" fill-opacity="0.6" stroke="black" stroke-width="1" />
<path d="M-62.53389575495517,19.255563178301603 L-58.48786205948561,25.960837950994332 L-53.618675043151256,28.238764837483288" fill="black" fill-opacity="0.6" stroke="black" stroke-width="1" />
<path d="M-58.48786205948561,-25.960837950994332 L-53.618675043151256,-28.238764837483288 L-53.138672113998034,-28.39862741448103" fill="green" fill-opacity="0.6" stroke="black" stroke-width="1" />
<path d="M-58.48786205948561,25.960837950994332 L-53.618675043151256,28.238764837483288 L-53.138672113998034,28.39862741448103" fill="blue" fill-opacity="0.6" stroke="black" stroke-width="1" />
<path d="M-53.618675043151256,-28.238764837483288 L-53.138672113998034,-28.39862741448103 L-50.0,-29.0" fill="blue" fill-opacity="0.6" stroke="black" stroke-width="1" />
<path d="M-53.618675043151256,28.238764837483288 L-53.138672113998034,28.39862741448103 L-50.0,29.0" fill="purple" fill-opacity="0.6" stroke="black" stroke-width="1" />
<path d="M-50.0,-37.0 L-50.78817357398897,-40.77580887592347 L-50.0,-50.0" fill="blue" fill-opacity="0.6" stroke="black" stroke-width="1" />
<path d="M-50.0,37.0 L-50.78817357398897,40.77580887592347 L-50.0,50.0" fill="red" fill-opacity="0.6" stroke="black" stroke-width="1" />
<path d="M-50.0,-50.0 L-61.0,-39.0 L-67.0,-33.0" fill="pink" fill-opacity="0.6" stroke="black" stroke-width="1" />
<path d="M-50.0,50.0 L-61.0,39.0 L-67.0,33.0" fill="orange" fill-opacity="0.6" stroke="black" stroke-width="1" />
<path d="M-61.0,-39.0 L-67.0,-33.0 L-79.0,-21.0" fill="orange" fill-opacity="0.6" stroke="black" stroke-width="1" />
<path d="M-61.0,39.0 L-67.0,33.0 L-79.0,21.0" fill="red" fill-opacity="0.6" stroke="black" stroke-width="1" />
<path d="M-67.0,-33.0 L-79.0,-21.0 L-90.58276021400377,-1.8438015760520898" fill="orange" fill-opacity="0.6" stroke="black" stroke-width="1" />
<path d="M-67.0,33.0 L-79.0,21.0 L-90.58276021400377,1.8438015760520898" fill="red" fill-opacity="0.6" stroke="black" stroke-width="1" />
<path d="M-79.0,-21.0 L-90.58276021400377,-1.8438015760520898 L-91.37359524285131,-1.7163328047640647" fill="orange" fill-opacity="0.6" stroke="black" stroke-width="1" />
<path d="M-79.0,21.0 L-90.58276021400377,1.8438015760520898 L-91.37359524285131,1.7163328047640647" fill="yellow" fill-opacity="0.6" stroke="black" stroke-width="1" />
<path d="M-90.58276021400377,-1.8438015760520898 L-91.37359524285131,-1.7163328047640647 L-92.13537587809336,-0.6356534941927561" fill="pink" fill-opacity="0.6" stroke="black" stroke-width="1" />
<path d="M-90.58276021400377,1.8438015760520898 L-91.37359524285131,1.7163328047640647 L-92.13537587809336,0.6356534941927561" fill="blue" fill-opacity="0.6" stroke="black" stroke-width="1" />
<path d="M-91.37359524285131,-1.7163328047640647 L-92.13537587809336,-0.6356534941927561 L-95.32884769313578,-0.49321579802054305" fill="green" fill-opacity="0.6" stroke="black" stroke-width="1" />
<path d="M-91.37359524285131,1.7163328047640647 L-92.13537587809336,0.6356534941927561 L-95.32884769313578,0.49321579802054305" fill="yellow" fill-opacity="0.6" stroke="black" stroke-width="1" />
<path d="M-92.13537587809336,-0.6356534941927561 L-95.32884769313578,-0.49321579802054305 L-100.0,-0.0" fill="black" fill-opacity="0.6" stroke="black" stroke-width="1" />
<path d="M-92.13537587809336,0.6356534941927561 L-95.32884769313578,0.49321579802054305 L-100.0,-0.0" fill="blue" fill-opacity="0.6" stroke="black" stroke-width="1" />
</svg>