<?xml version="1.0" encoding="UTF-8"?>
<svg xmlns="http://www.w3.org/2000/svg" xmlns:xlink="http://www.w3.org/1999/xlink"
     width="250" height="250" viewBox="-125.0 -125.0 250 250">
<defs>
</defs>
<path d="M21.0,79.0 L20.0,80.0 L2.3879544154069676,91.09634039870679" fill-opacity="0" stroke="black" stroke-width="1" />
<path d="M21.0,-79.0 L20.0,-80.0 L2.3879544154069676,-91.09634039870679" fill-opacity="0" stroke="black" stroke-width="1" />
<path d="M20.0,-0.0 L27.76198618129802,-3.0207936876473274 L28.564161103247585,-4.8211112807659" fill-opacity="0" stroke="black" stroke-width="1" />
<path d="M20.0,-0.0 L27.76198618129802,3.0207936876473274 L28.564161103247585,4.8211112807659" fill-opacity="0" stroke="black" stroke-width="1" />
<path d="M27.76198618129802,-3.0207936876473274 L28.564161103247585,-4.8211112807659 L31.93511000392143,-6.155601744675499" fill-opacity="0" stroke="black" stroke-width="1" />
<path d="M27.76198618129802,3.0207936876473274 L28.564161103247585,4.8211112807659 L31.93511000392143,6.155601744675499" fill-opacity="0" stroke="black" stroke-width="1" />
<path d="M28.564161103247585,-4.8211112807659 L31.93511000392143,-6.155601744675499 L33.04011737430313,-7.808254887061598" fill-opacity="0" stroke="black" stroke-width="1" />
<path d="M28.564161103247585,4.8211112807659 L31.93511000392143,6.155601744675499 L33.04011737430313,7.808254887061598" fill-opacity="0" stroke="black" stroke-width="1" />
<path d="M31.93511000392143,-6.155601744675499 L33.04011737430313,-7.808254887061598 L33.21477878223724,-15.457956924989046" fill-opacity="0" stroke="black" stroke-width="1" />
<path d="M31.93511000392143,6.155601744675499 L33.04011737430313,7.808254887061598 L33.21477878223724,15.457956924989046" fill-opacity="0" stroke="black" stroke-width="1" />
<path d="M33.04011737430313,-7.808254887061598 L33.21477878223724,-15.457956924989046 L34.0,-0.0" fill-opacity="0" stroke="black" stroke-width="1" />
<path d="M33.04011737430313,7.808254887061598 L33.21477878223724,15.457956924989046 L34.0,-0.0" fill-opacity="0" stroke="black" stroke-width="1" />
<path d="M50.0,-3.0 L37.245107313055875,-16.740246202989457 L38.97326095139295,-18.163276942988357" fill-opacity="0" stroke="black" stroke-width="1" />
<path d="M50.0,3.0 L37.245107313055875,16.740246202989457 L38.97326095139295,18.163276942988357" fill-opacity="0" stroke="black" stroke-width="1" />
<path d="M37.245107313055875,-16.740246202989457 L38.97326095139295,-18.163276942988357 L40.31886872586803,-18.56114171744252" fill-opacity="0" stroke="black" stroke-width="1" />
<path d="M37.245107313055875,16.740246202989457 L38.97326095139295,18.163276942988357 L40.31886872586803,18.56114171744252" fill-opacity="0" stroke="black" stroke-width="1" />
<path d="M38.97326095139295,-18.163276942988357 L40.31886872586803,-18.56114171744252 L50.0,-22.0" fill-opacity="0" stroke="black" stroke-width="1" />
<path d="M38.97326095139295,18.163276942988357 L40.31886872586803,18.56114171744252 L50.0,22.0" fill-opacity="0" stroke="black" stroke-width="1" />
<path d="M50.0,-22.0 L40.53995744114691,-22.462659563102346 L50.0,-24.0" fill-opacity="0" stroke="black" stroke-width="1" />
<path d="M50.0,22.0 L40.53995744114691,22.462659563102346 L50.0,24.0" fill-opacity="0" stroke="black" stroke-width="1" />
<path d="M50.0,-24.0 L40.95191543973771,-27.365242704838906 L44.62576380625662,-27.924348563715228" fill-opacity="0" stroke="black" stroke-width="1" />
<path d="M50.0,24.0 L40.95191543973771,27.365242704838906 L44.62576380625662,27.924348563715228" fill-opacity="0" stroke="black" stroke-width="1" />
<path d="M40.95191543973771,-27.365242704838906 L44.62576380625662,-27.924348563715228 L46.717780410534765,-32.20948853706123" fill-opacity="0" stroke="black" stroke-width="1" />
<path d="M40.95191543973771,27.365242704838906 L44.62576380625662,27.924348563715228 L46.717780410534765,32.20948853706123" fill-opacity="0" stroke="black" stroke-width="1" />
<path d="M44.62576380625662,-27.924348563715228 L46.717780410534765,-32.20948853706123 L49.02447297038934,-34.348418907714255" fill-opacity="0" stroke="black" stroke-width="1" />
<path d="M44.62576380625662,27.924348563715228 L46.717780410534765,32.20948853706123 L49.02447297038934,34.348418907714255" fill-opacity="0" stroke="black" stroke-width="1" />
<path d="M46.717780410534765,-32.20948853706123 L49.02447297038934,-34.348418907714255 L50.0,-37.0" fill-opacity="0" stroke="black" stroke-width="1" />
<path d="M46.717780410534765,32.20948853706123 L49.02447297038934,34.348418907714255 L50.0,37.0" fill-opacity="0" stroke="black" stroke-width="1" />
<path d="M48.0,50.0 L47.0,53.0 L37.0,63.0" fill-opacity="0" stroke="black" stroke-width="1" />
<path d="M48.0,-50.0 L47.0,-53.0 L37.0,-63.0" fill-opacity="0" stroke="black" stroke-width="1" />
<path d="M47.0,53.0 L37.0,63.0 L31.0,69.0" fill-opacity="0" stroke="black" stroke-width="1" />
<path d="M47.0,-53.0 L37.0,-63.0 L31.0,-69.0" fill-opacity="0" stroke="black" stroke-width="1" />
<path d="M37.0,63.0 L31.0,69.0 L21.0,79.0" fill-opacity="0" stroke="black" stroke-width="1" />
<path d="M37.0,-63.0 L31.0,-69.0 L21.0,-79.0" fill-opacity="0" stroke="black" stroke-width="1" />
<path d="M31.0,69.0 L21.0,79.0 L20.0,80.0" fill-opacity="0" stroke="black" stroke-width="1" />
<path d="M31.0,-69.0 L21.0,-79.0 L20.0,-80.0" fill-opacity="0" stroke="black" stroke-width="1" />
<path d="M20.0,-20.0 L8.903659601293212,-2.3879544154069676 L8.0557702719872,-1.9835191208168224" fill-opacity="0" stroke="black" stroke-width="1" />
<path d="M20.0,20.0 L8.903659601293212,2.3879544154069676 L8.0557702719872,1.9835191208168224" fill-opacity="0" stroke="black" stroke-width="1" />
<path d="M8.903659601293212,-2.3879544154069676 L8.0557702719872,-1.9835191208168224 L6.0,-6.0" fill-opacity="0" stroke="black" stroke-width="1" />
<path d="M8.903659601293212,2.3879544154069676 L8.0557702719872,1.9835191208168224 L6.0,6.0" fill-opacity="0" stroke="black" stroke-width="1" />
<path d="M1.9835191208168224,91.9442297280128 L6.0,94.0 L0.9445417322693828,94.99883052756687" fill-opacity="0" stroke="black" stroke-width="1" />
<path d="M1.9835191208168224,-91.9442297280128 L6.0,-94.0 L0.9445417322693828,-94.99883052756687" fill-opacity="0" stroke="black" stroke-width="1" />
<path d="M6.0,-6.0 L5.001169472433137,-0.9445417322693828 L5.0,-5.0" fill-opacity="0" stroke="black" stroke-width="1" />
<path d="M6.0,6.0 L5.001169472433137,0.9445417322693828 L5.0,5.0" fill-opacity="0" stroke="black" stroke-width="1" />
<path d="M0.9445417322693828,94.99883052756687 L5.0,95.0 L3.0,97.0" fill-opacity="0" stroke="black" stroke-width="1" />
<path d="M0.9445417322693828,-94.99883052756687 L5.0,-95.0 L3.0,-97.0" fill-opacity="0" stroke="black" stroke-width="1" />
<path d="M5.0,95.0 L3.0,97.0 L0.06801600354264803,98.03838406681118" fill-opacity="0" stroke="black" stroke-width="1" />
<path d="M5.0,-95.0 L3.0,-97.0 L0.06801600354264803,-98.03838406681118" fill-opacity="0" stroke="black" stroke-width="1" />
<path d="M3.0,-3.0 L1.9616159331888317,-0.06801600354264803 L0.0,-0.0" fill-opacity="0" stroke="black" stroke-width="1" />
<path d="M3.0,3.0 L1.9616159331888317,0.06801600354264803 L0.0,-0.0" fill-opacity="0" stroke="black" stroke-width="1" />
<path d="M-21.0,79.0 L-20.0,80.0 L-2.3879544154069676,91.09634039870679" fill-opacity="0" stroke="black" stroke-width="1" />
<path d="M-21.0,-79.0 L-20.0,-80.0 L-2.3879544154069676,-91.09634039870679" fill-opacity="0" stroke="black" stroke-width="1" />
<path d="M-20.0,-0.0 L-27.76198618129802,-3.0207936876473274 L-28.564161103247585,-4.8211112807659" fill-opacity="0" stroke="black" stroke-width="1" />
<path d="M-20.0,-0.0 L-27.76198618129802,3.0207936876473274 L-28.564161103247585,4.8211112807659" fill-opacity="0" stroke="black" stroke-width="1" />
<path d="M-27.76198618129802,-3.0207936876473274 L-28.564161103247585,-4.8211112807659 L-31.93511000392143,-6.155601744675499" fill-opacity="0" stroke="black" stroke-width="1" />
<path d="M-27.76198618129802,3.0207936876473274 L-28.564161103247585,4.8211112807659 L-31.93511000392143,6.155601744675499" fill-opacity="0" stroke="black" stroke-width="1" />
<path d="M-28.564161103247585,-4.8211112807659 L-31.93511000392143,-6.155601744675499 L-33.04011737430313,-7.808254887061598" fill-opacity="0" stroke="black" stroke-width="1" />
<path d="M-28.564161103247585,4.8211112807659 L-31.93511000392143,6.155601744675499 L-33.04011737430313,7.808254887061598" fill-opacity="0" stroke="black" stroke-width="1" />
<path d="M-31.93511000392143,-6.155601744675499 L-33.04011737430313,-7.808254887061598 L-33.21477878223724,-15.457956924989046" fill-opacity="0" stroke="black" stroke-width="1" />
<path d="M-31.93511000392143,6.155601744675499 L-33.04011737430313,7.808254887061598 L-33.21477878223724,15.457956924989046" fill-opacity="0" stroke="black" stroke-width="1" />
<path d="M-33.04011737430313,-7.808254887061598 L-33.21477878223724,-15.457956924989046 L-34.0,-0.0" fill-opacity="0" stroke="black" stroke-width="1" />
<path d="M-33.04011737430313,7.808254887061598 L-33.21477878223724,15.457956924989046 L-34.0,-0.0" fill-opacity="0" stroke="black" stroke-width="1" />
<path d="M-50.0,-3.0 L-37.245107313055875,-16.740246202989457 L-38.97326095139295,-18.163276942988357" fill-opacity="0" stroke="black" stroke-width="1" />
<path d="M-50.0,3.0 L-37.245107313055875,16.740246202989457 L-38.97326095139295,18.163276942988357" fill-opacity="0" stroke="black" stroke-width="1" />
<path d="M-37.245107313055875,-16.740246202989457 L-38.97326095139295,-18.163276942988357 L-40.31886872586803,-18.56114171744252" fill-opacity="0" stroke="black" stroke-width="1" />
<path d="M-37.245107313055875,16.740246202989457 L-38.97326095139295,18.163276942988357 L-40.31886872586803,18.56114171744252" fill-opacity="0" stroke="black" stroke-width="1" />
<path d="M-38.97326095139295,-18.163276942988357 L-40.31886872586803,-18.56114171744252 L-50.0,-22.0" fill-opacity="0" stroke="black" stroke-width="1" />
<path d="M-38.97326095139295,18.163276942988357 L-40.31886872586803,18.56114171744252 L-50.0,22.0" fill-opacity="0" stroke="black" stroke-width="1" />
<path d="M-50.0,-22.0 L-40.53995744114691,-22.462659563102346 L-50.0,-24.0" fill-opacity="0" stroke="black" stroke-width="1" />
<path d="M-50.0,22.0 L-40.53995744114691,22.462659563102346 L-50.0,24.0" fill-opacity="0" stroke="black" stroke-width="1" />
<path d="M-50.0,-24.0 L-40.95191543973771,-27.365242704838906 L-44.62576380625662,-27.924348563715228" fill-opacity="0" stroke="black" stroke-width="1" />
<path d="M-50.0,24.0 L-40.95191543973771,27.365242704838906 L-44.62576380625662,27.924348563715228" fill-opacity="0" stroke="black" stroke-width="1" />
<path d="M-40.95191543973771,-27.365242704838906 L-44.62576380625662,-27.924348563715228 L-46.717780410534765,-32.20948853706123" fill-opacity="0" stroke="black" stroke-width="1" />
<path d="M-40.95191543973771,27.365242704838906 L-44.62576380625662,27.924348563715228 L-46.717780410534765,32.20948853706123" fill-opacity="0" stroke="black" stroke-width="1" />
<path d="M-44.62576380625662,-27.924348563715228 L-46.717780410534765,-32.20948853706123 L-49.02447297038934,-34.348418907714255" fill-opacity="0" stroke="black" stroke-width="1" />
<path d="M-44.62576380625662,27.924348563715228 L-46.717780410534765,32.20948853706123 L-49.02447297038934,34.348418907714255" fill-opacity="0" stroke="black" stroke-width="1" />
<path d="M-46.717780410534765,-32.20948853706123 L-49.02447297038934,-34.348418907714255 L-50.0,-37.0" fill-opacity="0" stroke="black" stroke-width="1" />
<path d="M-46.717780410534765,32.20948853706123 L-49.02447297038934,34.348418907714255 L-50.0,37.0" fill-opacity="0" stroke="black" stroke-width="1" />
<path d="M-48.0,50.0 L-47.0,53.0 L-37.0,63.0" fill-opacity="0" stroke="black" stroke-width="1" />
<path d="M-48.0,-50.0 L-47.0,-53.0 L-37.0,-63.0" fill-opacity="0" stroke="black" stroke-width="1" />
<path d="M-47.0,53.0 L-37.0,63.0 L-31.0,69.0" fill-opacity="0" stroke="black" stroke-width="1" />
<path d="M-47.0,-53.0 L-37.0,-63.0 L-31.0,-69.0" fill-opacity="0" stroke="black" stroke-width="1" />
<path d="M-37.0,63.0 L-31.0,69.0 L-21.0,79.0" fill-opacity="0" stroke="black" stroke-width="1" />
<path d="M-37.0,-63.0 L-31.0,-69.0 L-21.0,-79.0" fill-opacity="0" stroke="black" stroke-width="1" />
<path d="M-31.0,69.0 L-21.0,79.0 L-20.0,80.0" fill-opacity="0" stroke="black" stroke-width="1" />
<path d="M-31.0,-69.0 L-21.0,-79.0 L-20.0,-80.0" fill-opacity="0" stroke="black" stroke-width="1" />
<path d="M-20.0,-20.0 L-8.903659601293212,-2.3879544154069676 L-8.0557702719872,-1.9835191208168224" fill-opacity="0" stroke="black" stroke-width="1" />
<path d="M-20.0,20.0 L-8.903659601293212,2.3879544154069676 L-8.0557702719872,1.9835191208168224" fill-opacity="0" stroke="black" stroke-width="1" />
<path d="M-8.903659601293212,-2.3879544154069676 L-8.0557702719872,-1.9835191208168224 L-6.0,-6.0" fill-opacity="0" stroke="black" stroke-width="1" />
<path d="M-8.903659601293212,2.3879544154069676 L-8.0557702719872,1.9835191208168224 L-6.0,6.0" fill-opacity="0" stroke="black" stroke-width="1" />
<path d="M-1.9835191208168224,91.9442297280128 L-6.0,94.0 L-0.9445417322693828,94.99883052756687" fill-opacity="0" stroke="black" stroke-width="1" />
<path d="M-1.9835191208168224,-91.9442297280128 L-6.0,-94.0 L-0.9445417322693828,-94.99883052756687" fill-opacity="0" stroke="black" stroke-width="1" />
<path d="M-6.0,-6.0 L-5.001169472433137,-0.9445417322693828 L-5.0,-5.0" fill-opacity="0" stroke="black" stroke-width="1" />
<path d="M-6.0,6.0 L-5.001169472433137,0.9445417322693828 L-5.0,5.0" fill-opacity="0" stroke="black" stroke-width="1" />
<path d="M-0.9445417322693828,94.99883052756687 L-5.0,95.0 L-3.0,97.0" fill-opacity="0" stroke="black" stroke-width="1" />
<path d="M-0.9445417322693828,-94.99883052756687 L-5.0,-95.0 L-3.0,-97.0" fill-opacity="0" stroke="black" stroke-width="1" />
<path d="M-5.0,95.0 L-3.0,97.0 L-0.06801600354264803,98.03838406681116" fill-opacity="0" stroke="black" stroke-width="1" />
<path d="M-5.0,-95.0 L-3.0,-97.0 L-0.06801600354264803,-98.03838406681118" fill-opacity="0" stroke="black" stroke-width="1" />
<path d="M-3.0,-3.0 L-1.9616159331888317,-0.06801600354264803 L0.0,-0.0" fill-opacity="0" stroke="black" stroke-width="1" />
<path d="M-3.0,3.0 L-1.9616159331888317,0.06801600354264803 L0.0,-0.0" fill-opacity="0" stroke="black" stroke-width="1" />
<path d="M79.0,21.0 L80.0,20.0 L91.09634039870679,2.3879544154069676" fill-opacity="0" stroke="black" stroke-width="1" />
<path d="M79.0,-21.0 L80.0,-20.0 L91.09634039870679,-2.3879544154069676" fill-opacity="0" stroke="black" stroke-width="1" />
<path d="M80.0,-0.0 L72.23801381870197,3.0207936876473274 L71.43583889675241,4.8211112807659" fill-opacity="0" stroke="black" stroke-width="1" />
<path d="M80.0,-0.0 L72.23801381870197,-3.0207936876473274 L71.43583889675241,-4.8211112807659" fill-opacity="0" stroke="black" stroke-width="1" />
<path d="M72.23801381870197,3.0207936876473274 L71.43583889675241,4.8211112807659 L68.06488999607856,6.155601744675499" fill-opacity="0" stroke="black" stroke-width="1" />
<path d="M72.23801381870197,-3.0207936876473274 L71.43583889675241,-4.8211112807659 L68.06488999607856,-6.155601744675499" fill-opacity="0" stroke="black" stroke-width="1" />
<path d="M71.43583889675241,4.8211112807659 L68.06488999607856,6.155601744675499 L66.95988262569688,7.808254887061598" fill-opacity="0" stroke="black" stroke-width="1" />
<path d="M71.43583889675241,-4.8211112807659 L68.06488999607856,-6.155601744675499 L66.95988262569688,-7.808254887061598" fill-opacity="0" stroke="black" stroke-width="1" />
<path d="M68.06488999607856,6.155601744675499 L66.95988262569688,7.808254887061598 L66.78522121776277,15.457956924989046" fill-opacity="0" stroke="black" stroke-width="1" />
<path d="M68.06488999607856,-6.155601744675499 L66.95988262569688,-7.808254887061598 L66.78522121776277,-15.457956924989046" fill-opacity="0" stroke="black" stroke-width="1" />
<path d="M66.95988262569688,7.808254887061598 L66.78522121776277,15.457956924989046 L66.0,-0.0" fill-opacity="0" stroke="black" stroke-width="1" />
<path d="M66.95988262569688,-7.808254887061598 L66.78522121776277,-15.457956924989046 L66.0,-0.0" fill-opacity="0" stroke="black" stroke-width="1" />
<path d="M50.0,3.0 L62.754892686944125,16.740246202989457 L61.02673904860705,18.163276942988357" fill-opacity="0" stroke="black" stroke-width="1" />
<path d="M50.0,-3.0 L62.754892686944125,-16.740246202989457 L61.02673904860705,-18.163276942988357" fill-opacity="0" stroke="black" stroke-width="1" />
<path d="M62.754892686944125,16.740246202989457 L61.02673904860705,18.163276942988357 L59.68113127413197,18.56114171744252" fill-opacity="0" stroke="black" stroke-width="1" />
<path d="M62.754892686944125,-16.740246202989457 L61.02673904860705,-18.163276942988357 L59.68113127413197,-18.56114171744252" fill-opacity="0" stroke="black" stroke-width="1" />
<path d="M61.02673904860705,18.163276942988357 L59.68113127413197,18.56114171744252 L50.0,22.0" fill-opacity="0" stroke="black" stroke-width="1" />
<path d="M61.02673904860705,-18.163276942988357 L59.68113127413197,-18.56114171744252 L50.0,-22.0" fill-opacity="0" stroke="black" stroke-width="1" />
<path d="M50.0,22.0 L59.46004255885309,22.462659563102346 L50.0,24.0" fill-opacity="0" stroke="black" stroke-width="1" />
<path d="M50.0,-22.0 L59.46004255885309,-22.462659563102346 L50.0,-24.0" fill-opacity="0" stroke="black" stroke-width="1" />
<path d="M50.0,24.0 L59.04808456026229,27.365242704838906 L55.37423619374338,27.924348563715228" fill-opacity="0" stroke="black" stroke-width="1" />
<path d="M50.0,-24.0 L59.04808456026229,-27.365242704838906 L55.37423619374338,-27.924348563715228" fill-opacity="0" stroke="black" stroke-width="1" />
<path d="M59.04808456026229,27.365242704838906 L55.37423619374338,27.924348563715228 L53.282219589465235,32.20948853706123" fill-opacity="0" stroke="black" stroke-width="1" />
<path d="M59.04808456026229,-27.365242704838906 L55.37423619374338,-27.924348563715228 L53.282219589465235,-32.20948853706123" fill-opacity="0" stroke="black" stroke-width="1" />
<path d="M55.37423619374338,27.924348563715228 L53.282219589465235,32.20948853706123 L50.97552702961066,34.348418907714255" fill-opacity="0" stroke="black" stroke-width="1" />
<path d="M55.37423619374338,-27.924348563715228 L53.282219589465235,-32.20948853706123 L50.97552702961066,-34.348418907714255" fill-opacity="0" stroke="black" stroke-width="1" />
<path d="M53.282219589465235,32.20948853706123 L50.97552702961066,34.348418907714255 L50.0,37.0" fill-opacity="0" stroke="black" stroke-width="1" />
<path d="M53.282219589465235,-32.20948853706123 L50.97552702961066,-34.348418907714255 L50.0,-37.0" fill-opacity="0" stroke="black" stroke-width="1" />
<path d="M50.0,48.0 L53.0,47.0 L63.0,37.0" fill-opacity="0" stroke="black" stroke-width="1" />
<path d="M50.0,-48.0 L53.0,-47.0 L63.0,-37.0" fill-opacity="0" stroke="black" stroke-width="1" />
<path d="M53.0,47.0 L63.0,37.0 L69.0,31.0" fill-opacity="0" stroke="black" stroke-width="1" />
<path d="M53.0,-47.0 L63.0,-37.0 L69.0,-31.0" fill-opacity="0" stroke="black" stroke-width="1" />
<path d="M63.0,37.0 L69.0,31.0 L79.0,21.0" fill-opacity="0" stroke="black" stroke-width="1" />
<path d="M63.0,-37.0 L69.0,-31.0 L79.0,-21.0" fill-opacity="0" stroke="black" stroke-width="1" />
<path d="M69.0,31.0 L79.0,21.0 L80.0,20.0" fill-opacity="0" stroke="black" stroke-width="1" />
<path d="M69.0,-31.0 L79.0,-21.0 L80.0,-20.0" fill-opacity="0" stroke="black" stroke-width="1" />
<path d="M80.0,20.0 L91.09634039870679,2.3879544154069676 L91.9442297280128,1.9835191208168224" fill-opacity="0" stroke="black" stroke-width="1" />
<path d="M80.0,-20.0 L91.09634039870679,-2.3879544154069676 L91.9442297280128,-1.9835191208168224" fill-opacity="0" stroke="black" stroke-width="1" />
<path d="M91.09634039870679,2.3879544154069676 L91.9442297280128,1.9835191208168224 L94.0,6.0" fill-opacity="0" stroke="black" stroke-width="1" />
<path d="M91.09634039870679,-2.3879544154069676 L91.9442297280128,-1.9835191208168224 L94.0,-6.0" fill-opacity="0" stroke="black" stroke-width="1" />
<path d="M91.9442297280128,1.9835191208168224 L94.0,6.0 L94.99883052756687,0.9445417322693828" fill-opacity="0" stroke="black" stroke-width="1" />
<path d="M91.9442297280128,-1.9835191208168224 L94.0,-6.0 L94.99883052756687,-0.9445417322693828" fill-opacity="0" stroke="black" stroke-width="1" />
<path d="M94.0,6.0 L94.99883052756687,0.9445417322693828 L95.0,5.0" fill-opacity="0" stroke="black" stroke-width="1" />
<path d="M94.0,-6.0 L94.99883052756687,-0.9445417322693828 L95.0,-5.0" fill-opacity="0" stroke="black" stroke-width="1" />
<path d="M94.99883052756687,0.9445417322693828 L95.0,5.0 L97.0,3.0" fill-opacity="0" stroke="black" stroke-width="1" />
<path d="M94.99883052756687,-0.9445417322693828 L95.0,-5.0 L97.0,-3.0" fill-opacity="0" stroke="black" stroke-width="1" />
<path d="M95.0,5.0 L97.0,3.0 L98.03838406681118,0.06801600354264803" fill-opacity="0" stroke="black" stroke-width="1" />
<path d="M95.0,-5.0 L97.0,-3.0 L98.03838406681118,-0.06801600354264803" fill-opacity="0" stroke="black" stroke-width="1" />
<path d="M97.0,3.0 L98.03838406681118,0.06801600354264803 L100.0,-0.0" fill-opacity="0" stroke="black" stroke-width="1" />
<path d="M97.0,-3.0 L98.03838406681118,-0.06801600354264803 L100.0,-0.0" fill-opacity="0" stroke="black" stroke-width="1" />
<path d="M0.0,-20.0 L3.0207936876473274,-27.76198618129802 L4.8211112807659,-28.564161103247585" fill-opacity="0" stroke="black" stroke-width="1" />
<path d="M0.0,20.0 L3.0207936876473274,27.76198618129802 L4.8211112807659,28.564161103247585" fill-opacity="0" stroke="black" stroke-width="1" />
<path d="M0.0,80.0 L3.0207936876473274,72.23801381870197 L4.8211112807659,71.43583889675241" fill-opacity="0" stroke="black" stroke-width="1" />
<path d="M0.0,-80.0 L3.0207936876473274,-72.23801381870197 L4.8211112807659,-71.43583889675241" fill-opacity="0" stroke="black" stroke-width="1" />
<path d="M3.0207936876473274,-27.76198618129802 L4.8211112807659,-28.564161103247585 L6.155601744675499,-31.93511000392143" fill-opacity="0" stroke="black" stroke-width="1" />
<path d="M3.0207936876473274,27.76198618129802 L4.8211112807659,28.564161103247585 L6.155601744675499,31.93511000392143" fill-opacity="0" stroke="black" stroke-width="1" />
<path d="M3.0207936876473274,72.23801381870197 L4.8211112807659,71.43583889675241 L6.155601744675499,68.06488999607856" fill-opacity="0" stroke="black" stroke-width="1" />
<path d="M3.0207936876473274,-72.23801381870197 L4.8211112807659,-71.43583889675241 L6.155601744675499,-68.06488999607856" fill-opacity="0" stroke="black" stroke-width="1" />
<path d="M4.8211112807659,-28.564161103247585 L6.155601744675499,-31.93511000392143 L7.808254887061598,-33.04011737430313" fill-opacity="0" stroke="black" stroke-width="1" />
<path d="M4.8211112807659,28.564161103247585 L6.155601744675499,31.93511000392143 L7.808254887061598,33.04011737430313" fill-opacity="0" stroke="black" stroke-width="1" />
<path d="M4.8211112807659,71.43583889675241 L6.155601744675499,68.06488999607856 L7.808254887061598,66.95988262569688" fill-opacity="0" stroke="black" stroke-width="1" />
<path d="M4.8211112807659,-71.43583889675241 L6.155601744675499,-68.06488999607856 L7.808254887061598,-66.95988262569688" fill-opacity="0" stroke="black" stroke-width="1" />
<path d="M6.155601744675499,-31.93511000392143 L7.808254887061598,-33.04011737430313 L15.457956924989046,-33.21477878223724" fill-opacity="0" stroke="black" stroke-width="1" />
<path d="M6.155601744675499,31.93511000392143 L7.808254887061598,33.04011737430313 L15.457956924989046,33.21477878223724" fill-opacity="0" stroke="black" stroke-width="1" />
<path d="M6.155601744675499,68.06488999607856 L7.808254887061598,66.95988262569688 L15.457956924989046,66.78522121776277" fill-opacity="0" stroke="black" stroke-width="1" />
<path d="M6.155601744675499,-68.06488999607856 L7.808254887061598,-66.95988262569688 L15.457956924989046,-66.78522121776277" fill-opacity="0" stroke="black" stroke-width="1" />
<path d="M7.808254887061598,-33.04011737430313 L15.457956924989046,-33.21477878223724 L0.0,-34.0" fill-opacity="0" stroke="black" stroke-width="1" />
<path d="M7.808254887061598,33.04011737430313 L15.457956924989046,33.21477878223724 L0.0,34.0" fill-opacity="0" stroke="black" stroke-width="1" />
<path d="M7.808254887061598,66.95988262569688 L15.457956924989046,66.78522121776277 L0.0,66.0" fill-opacity="0" stroke="black" stroke-width="1" />
<path d="M7.808254887061598,-66.95988262569688 L15.457956924989046,-66.78522121776277 L0.0,-66.0" fill-opacity="0" stroke="black" stroke-width="1" />
<path d="M3.0,-50.0 L16.740246202989457,-37.245107313055875 L18.163276942988357,-38.97326095139295" fill-opacity="0" stroke="black" stroke-width="1" />
<path d="M3.0,50.0 L16.740246202989457,37.245107313055875 L18.163276942988357,38.97326095139295" fill-opacity="0" stroke="black" stroke-width="1" />
<path d="M3.0,50.0 L16.740246202989457,62.754892686944125 L18.163276942988357,61.02673904860705" fill-opacity="0" stroke="black" stroke-width="1" />
<path d="M3.0,-50.0 L16.740246202989457,-62.754892686944125 L18.163276942988357,-61.02673904860705" fill-opacity="0" stroke="black" stroke-width="1" />
<path d="M16.740246202989457,-37.245107313055875 L18.163276942988357,-38.97326095139295 L18.56114171744252,-40.31886872586803" fill-opacity="0" stroke="black" stroke-width="1" />
<path d="M16.740246202989457,37.245107313055875 L18.163276942988357,38.97326095139295 L18.56114171744252,40.31886872586803" fill-opacity="0" stroke="black" stroke-width="1" />
<path d="M16.740246202989457,62.754892686944125 L18.163276942988357,61.02673904860705 L18.56114171744252,59.68113127413197" fill-opacity="0" stroke="black" stroke-width="1" />
<path d="M16.740246202989457,-62.754892686944125 L18.163276942988357,-61.02673904860705 L18.56114171744252,-59.68113127413197" fill-opacity="0" stroke="black" stroke-width="1" />
<path d="M18.163276942988357,-38.97326095139295 L18.56114171744252,-40.31886872586803 L22.0,-50.0" fill-opacity="0" stroke="black" stroke-width="1" />
<path d="M18.163276942988357,38.97326095139295 L18.56114171744252,40.31886872586803 L22.0,50.0" fill-opacity="0" stroke="black" stroke-width="1" />
<path d="M18.163276942988357,61.02673904860705 L18.56114171744252,59.68113127413197 L22.0,50.0" fill-opacity="0" stroke="black" stroke-width="1" />
<path d="M18.163276942988357,-61.02673904860705 L18.56114171744252,-59.68113127413197 L22.0,-50.0" fill-opacity="0" stroke="black" stroke-width="1" />
<path d="M22.0,-50.0 L22.462659563102346,-40.53995744114691 L24.0,-50.0" fill-opacity="0" stroke="black" stroke-width="1" />
<path d="M22.0,50.0 L22.462659563102346,40.53995744114691 L24.0,50.0" fill-opacity="0" stroke="black" stroke-width="1" />
<path d="M22.0,50.0 L22.462659563102346,59.46004255885309 L24.0,50.0" fill-opacity="0" stroke="black" stroke-width="1" />
<path d="M22.0,-50.0 L22.462659563102346,-59.46004255885309 L24.0,-50.0" fill-opacity="0" stroke="black" stroke-width="1" />
<path d="M24.0,-50.0 L27.365242704838906,-40.95191543973771 L27.924348563715228,-44.62576380625662" fill-opacity="0" stroke="black" stroke-width="1" />
<path d="M24.0,50.0 L27.365242704838906,40.95191543973771 L27.924348563715228,44.62576380625662" fill-opacity="0" stroke="black" stroke-width="1" />
<path d="M24.0,50.0 L27.365242704838906,59.04808456026229 L27.924348563715228,55.37423619374338" fill-opacity="0" stroke="black" stroke-width="1" />
<path d="M24.0,-50.0 L27.365242704838906,-59.04808456026229 L27.924348563715228,-55.37423619374338" fill-opacity="0" stroke="black" stroke-width="1" />
<path d="M27.365242704838906,-40.95191543973771 L27.924348563715228,-44.62576380625662 L32.20948853706123,-46.717780410534765" fill-opacity="0" stroke="black" stroke-width="1" />
<path d="M27.365242704838906,40.95191543973771 L27.924348563715228,44.62576380625662 L32.20948853706123,46.717780410534765" fill-opacity="0" stroke="black" stroke-width="1" />
<path d="M27.365242704838906,59.04808456026229 L27.924348563715228,55.37423619374338 L32.20948853706123,53.282219589465235" fill-opacity="0" stroke="black" stroke-width="1" />
<path d="M27.365242704838906,-59.04808456026229 L27.924348563715228,-55.37423619374338 L32.20948853706123,-53.282219589465235" fill-opacity="0" stroke="black" stroke-width="1" />
<path d="M27.924348563715228,-44.62576380625662 L32.20948853706123,-46.717780410534765 L34.348418907714255,-49.02447297038934" fill-opacity="0" stroke="black" stroke-width="1" />
<path d="M27.924348563715228,44.62576380625662 L32.20948853706123,46.717780410534765 L34.348418907714255,49.02447297038934" fill-opacity="0" stroke="black" stroke-width="1" />
<path d="M27.924348563715228,55.37423619374338 L32.20948853706123,53.282219589465235 L34.348418907714255,50.97552702961066" fill-opacity="0" stroke="black" stroke-width="1" />
<path d="M27.924348563715228,-55.37423619374338 L32.20948853706123,-53.282219589465235 L34.348418907714255,-50.97552702961066" fill-opacity="0" stroke="black" stroke-width="1" />
<path d="M32.20948853706123,-46.717780410534765 L34.348418907714255,-49.02447297038934 L37.0,-50.0" fill-opacity="0" stroke="black" stroke-width="1" />
<path d="M32.20948853706123,46.717780410534765 L34.348418907714255,49.02447297038934 L37.0,50.0" fill-opacity="0" stroke="black" stroke-width="1" />
<path d="M32.20948853706123,53.282219589465235 L34.348418907714255,50.97552702961066 L37.0,50.0" fill-opacity="0" stroke="black" stroke-width="1" />
<path d="M32.20948853706123,-53.282219589465235 L34.348418907714255,-50.97552702961066 L37.0,-50.0" fill-opacity="0" stroke="black" stroke-width="1" />
<path d="M20.0,-20.0 L2.3879544154069676,-8.903659601293212 L1.9835191208168224,-8.0557702719872" fill-opacity="0" stroke="black" stroke-width="1" />
<path d="M20.0,20.0 L2.3879544154069676,8.903659601293212 L1.9835191208168224,8.0557702719872" fill-opacity="0" stroke="black" stroke-width="1" />
<path d="M20.0,80.0 L2.3879544154069676,91.09634039870679 L1.9835191208168224,91.9442297280128" fill-opacity="0" stroke="black" stroke-width="1" />
<path d="M20.0,-80.0 L2.3879544154069676,-91.09634039870679 L1.9835191208168224,-91.9442297280128" fill-opacity="0" stroke="black" stroke-width="1" />
<path d="M2.3879544154069676,-8.903659601293212 L1.9835191208168224,-8.0557702719872 L6.0,-6.0" fill-opacity="0" stroke="black" stroke-width="1" />
<path d="M2.3879544154069676,8.903659601293212 L1.9835191208168224,8.0557702719872 L6.0,6.0" fill-opacity="0" stroke="black" stroke-width="1" />
<path d="M2.3879544154069676,91.09634039870679 L1.9835191208168224,91.9442297280128 L6.0,94.0" fill-opacity="0" stroke="black" stroke-width="1" />
<path d="M2.3879544154069676,-91.09634039870679 L1.9835191208168224,-91.9442297280128 L6.0,-94.0" fill-opacity="0" stroke="black" stroke-width="1" />
<path d="M6.0,-6.0 L0.9445417322693828,-5.001169472433137 L5.0,-5.0" fill-opacity="0" stroke="black" stroke-width="1" />
<path d="M6.0,6.0 L0.9445417322693828,5.001169472433137 L5.0,5.0" fill-opacity="0" stroke="black" stroke-width="1" />
<path d="M6.0,94.0 L0.9445417322693828,94.99883052756687 L5.0,95.0" fill-opacity="0" stroke="black" stroke-width="1" />
<path d="M6.0,-94.0 L0.9445417322693828,-94.99883052756687 L5.0,-95.0" fill-opacity="0" stroke="black" stroke-width="1" />
<path d="M3.0,-3.0 L0.06801600354264803,-1.9616159331888317 L0.0,-0.0" fill-opacity="0" stroke="black" stroke-width="1" />
<path d="M3.0,3.0 L0.06801600354264803,1.9616159331888317 L0.0,-0.0" fill-opacity="0" stroke="black" stroke-width="1" />
<path d="M3.0,97.0 L0.06801600354264803,98.03838406681118 L0.0,100.0" fill-opacity="0" stroke="black" stroke-width="1" />
<path d="M3.0,-97.0 L0.06801600354264803,-98.03838406681118 L0.0,-100.0" fill-opacity="0" stroke="black" stroke-width="1" />
<path d="M0.0,80.0 L-3.0207936876473274,72.23801381870197 L-4.8211112807659,71.43583889675241" fill-opacity="0" stroke="black" stroke-width="1" />
<path d="M0.0,-20.0 L-3.0207936876473274,-27.76198618129802 L-4.8211112807659,-28.564161103247585" fill-opacity="0" stroke="black" stroke-width="1" />
<path d="M0.0,20.0 L-3.0207936876473274,27.761986181298028 L-4.8211112807659,28.564161103247585" fill-opacity="0" stroke="black" stroke-width="1" />
<path d="M0.0,-80.0 L-3.0207936876473274,-72.23801381870197 L-4.8211112807659,-71.43583889675241" fill-opacity="0" stroke="black" stroke-width="1" />
<path d="M-3.0207936876473274,72.23801381870197 L-4.8211112807659,71.43583889675241 L-6.155601744675499,68.06488999607856" fill-opacity="0" stroke="black" stroke-width="1" />
<path d="M-3.0207936876473274,-27.76198618129802 L-4.8211112807659,-28.564161103247585 L-6.155601744675499,-31.93511000392143" fill-opacity="0" stroke="black" stroke-width="1" />
<path d="M-3.0207936876473274,27.761986181298028 L-4.8211112807659,28.564161103247585 L-6.155601744675499,31.935110003921437" fill-opacity="0" stroke="black" stroke-width="1" />
<path d="M-3.0207936876473274,-72.23801381870197 L-4.8211112807659,-71.43583889675241 L-6.155601744675499,-68.06488999607856" fill-opacity="0" stroke="black" stroke-width="1" />
<path d="M-4.8211112807659,71.43583889675241 L-6.155601744675499,68.06488999607856 L-7.808254887061598,66.95988262569688" fill-opacity="0" stroke="black" stroke-width="1" />
<path d="M-4.8211112807659,-28.564161103247585 L-6.155601744675499,-31.93511000392143 L-7.808254887061598,-33.04011737430313" fill-opacity="0" stroke="black" stroke-width="1" />
<path d="M-4.8211112807659,28.564161103247585 L-6.155601744675499,31.935110003921437 L-7.808254887061598,33.04011737430312" fill-opacity="0" stroke="black" stroke-width="1" />
<path d="M-4.8211112807659,-71.43583889675241 L-6.155601744675499,-68.06488999607856 L-7.808254887061598,-66.95988262569688" fill-opacity="0" stroke="black" stroke-width="1" />
<path d="M-6.155601744675499,68.06488999607856 L-7.808254887061598,66.95988262569688 L-15.457956924989046,66.78522121776277" fill-opacity="0" stroke="black" stroke-width="1" />
<path d="M-6.155601744675499,-31.93511000392143 L-7.808254887061598,-33.04011737430313 L-15.457956924989046,-33.21477878223724" fill-opacity="0" stroke="black" stroke-width="1" />
<path d="M-6.155601744675499,31.935110003921437 L-7.808254887061598,33.04011737430312 L-15.457956924989046,33.21477878223723" fill-opacity="0" stroke="black" stroke-width="1" />
<path d="M-6.155601744675499,-68.06488999607856 L-7.808254887061598,-66.95988262569688 L-15.457956924989046,-66.78522121776277" fill-opacity="0" stroke="black" stroke-width="1" />
<path d="M-7.808254887061598,66.95988262569688 L-15.457956924989046,66.78522121776277 L0.0,66.0" fill-opacity="0" stroke="black" stroke-width="1" />
<path d="M-7.808254887061598,-33.04011737430313 L-15.457956924989046,-33.21477878223724 L0.0,-34.0" fill-opacity="0" stroke="black" stroke-width="1" />
<path d="M-7.808254887061598,33.04011737430312 L-15.457956924989046,33.21477878223723 L0.0,34.0" fill-opacity="0" stroke="black" stroke-width="1" />
<path d="M-7.808254887061598,-66.95988262569688 L-15.457956924989046,-66.78522121776277 L0.0,-66.0" fill-opacity="0" stroke="black" stroke-width="1" />
<path d="M-3.0,50.0 L-16.740246202989457,62.754892686944125 L-18.163276942988357,61.02673904860705" fill-opacity="0" stroke="black" stroke-width="1" />
<path d="M-3.0,-50.0 L-16.740246202989457,-37.245107313055875 L-18.163276942988357,-38.97326095139295" fill-opacity="0" stroke="black" stroke-width="1" />
<path d="M-3.0,50.0 L-16.740246202989457,37.245107313055875 L-18.163276942988357,38.97326095139295" fill-opacity="0" stroke="black" stroke-width="1" />
<path d="M-3.0,-50.0 L-16.740246202989457,-62.754892686944125 L-18.163276942988357,-61.02673904860705" fill-opacity="0" stroke="black" stroke-width="1" />
<path d="M-16.740246202989457,62.754892686944125 L-18.163276942988357,61.02673904860705 L-18.56114171744252,59.68113127413197" fill-opacity="0" stroke="black" stroke-width="1" />
<path d="M-16.740246202989457,-37.245107313055875 L-18.163276942988357,-38.97326095139295 L-18.56114171744252,-40.31886872586803" fill-opacity="0" stroke="black" stroke-width="1" />
<path d="M-16.740246202989457,37.245107313055875 L-18.163276942988357,38.97326095139295 L-18.56114171744252,40.31886872586803" fill-opacity="0" stroke="black" stroke-width="1" />
<path d="M-16.740246202989457,-62.754892686944125 L-18.163276942988357,-61.02673904860705 L-18.56114171744252,-59.68113127413197" fill-opacity="0" stroke="black" stroke-width="1" />
<path d="M-18.163276942988357,61.02673904860705 L-18.56114171744252,59.68113127413197 L-22.0,50.0" fill-opacity="0" stroke="black" stroke-width="1" />
<path d="M-18.163276942988357,-38.97326095139295 L-18.56114171744252,-40.31886872586803 L-22.0,-50.0" fill-opacity="0" stroke="black" stroke-width="1" />
<path d="M-18.163276942988357,38.97326095139295 L-18.56114171744252,40.31886872586803 L-22.0,50.0" fill-opacity="0" stroke="black" stroke-width="1" />
<path d="M-18.163276942988357,-61.02673904860705 L-18.56114171744252,-59.68113127413197 L-22.0,-50.0" fill-opacity="0" stroke="black" stroke-width="1" />
<path d="M-22.0,50.0 L-22.462659563102346,59.46004255885309 L-24.0,50.0" fill-opacity="0" stroke="black" stroke-width="1" />
<path d="M-22.0,-50.0 L-22.462659563102346,-40.53995744114691 L-24.0,-50.0" fill-opacity="0" stroke="black" stroke-width="1" />
<path d="M-22.0,50.0 L-22.462659563102346,40.53995744114691 L-24.0,50.0" fill-opacity="0" stroke="black" stroke-width="1" />
<path d="M-22.0,-50.0 L-22.462659563102346,-59.46004255885309 L-24.0,-50.0" fill-opacity="0" stroke="black" stroke-width="1" />
<path d="M-24.0,50.0 L-27.365242704838906,59.04808456026229 L-27.924348563715228,55.37423619374338" fill-opacity="0" stroke="black" stroke-width="1" />
<path d="M-24.0,-50.0 L-27.365242704838906,-40.95191543973771 L-27.924348563715228,-44.62576380625662" fill-opacity="0" stroke="black" stroke-width="1" />
<path d="M-24.0,50.0 L-27.365242704838906,40.95191543973771 L-27.924348563715228,44.62576380625662" fill-opacity="0" stroke="black" stroke-width="1" />
<path d="M-24.0,-50.0 L-27.365242704838906,-59.04808456026229 L-27.924348563715228,-55.37423619374338" fill-opacity="0" stroke="black" stroke-width="1" />
<path d="M-27.365242704838906,59.04808456026229 L-27.924348563715228,55.37423619374338 L-32.20948853706123,53.282219589465235" fill-opacity="0" stroke="black" stroke-width="1" />
<path d="M-27.365242704838906,-40.95191543973771 L-27.924348563715228,-44.62576380625662 L-32.20948853706123,-46.717780410534765" fill-opacity="0" stroke="black" stroke-width="1" />
<path d="M-27.365242704838906,40.95191543973771 L-27.924348563715228,44.62576380625662 L-32.20948853706123,46.717780410534765" fill-opacity="0" stroke="black" stroke-width="1" />
<path d="M-27.365242704838906,-59.04808456026229 L-27.924348563715228,-55.37423619374338 L-32.20948853706123,-53.282219589465235" fill-opacity="0" stroke="black" stroke-width="1" />
<path d="M-27.924348563715228,55.37423619374338 L-32.20948853706123,53.282219589465235 L-34.348418907714255,50.97552702961066" fill-opacity="0" stroke="black" stroke-width="1" />
<path d="M-27.924348563715228,-44.62576380625662 L-32.20948853706123,-46.717780410534765 L-34.348418907714255,-49.02447297038934" fill-opacity="0" stroke="black" stroke-width="1" />
<path d="M-27.924348563715228,44.62576380625662 L-32.20948853706123,46.717780410534765 L-34.348418907714255,49.02447297038934" fill-opacity="0" stroke="black" stroke-width="1" />
<path d="M-27.924348563715228,-55.37423619374338 L-32.20948853706123,-53.282219589465235 L-34.348418907714255,-50.97552702961066" fill-opacity="0" stroke="black" stroke-width="1" />
<path d="M-32.20948853706123,53.282219589465235 L-34.348418907714255,50.97552702961066 L-37.0,50.0" fill-opacity="0" stroke="black" stroke-width="1" />
<path d="M-32.20948853706123,-46.717780410534765 L-34.348418907714255,-49.02447297038934 L-37.0,-50.0" fill-opacity="0" stroke="black" stroke-width="1" />
<path d="M-32.20948853706123,46.717780410534765 L-34.348418907714255,49.02447297038934 L-37.0,50.0" fill-opacity="0" stroke="black" stroke-width="1" />
<path d="M-32.20948853706123,-53.282219589465235 L-34.348418907714255,-50.97552702961066 L-37.0,-50.0" fill-opacity="0" stroke="black" stroke-width="1" />
<path d="M-20.0,80.0 L-2.3879544154069676,91.09634039870679 L-1.9835191208168224,91.9442297280128" fill-opacity="0" stroke="black" stroke-width="1" />
<path d="M-20.0,-20.0 L-2.3879544154069676,-8.903659601293212 L-1.9835191208168224,-8.0557702719872" fill-opacity="0" stroke="black" stroke-width="1" />
<path d="M-20.0,20.0 L-2.3879544154069676,8.903659601293214 L-1.9835191208168224,8.0557702719872" fill-opacity="0" stroke="black" stroke-width="1" />
<path d="M-20.0,-80.0 L-2.3879544154069676,-91.09634039870679 L-1.9835191208168224,-91.9442297280128" fill-opacity="0" stroke="black" stroke-width="1" />
<path d="M-2.3879544154069676,91.09634039870679 L-1.9835191208168224,91.9442297280128 L-6.0,94.0" fill-opacity="0" stroke="black" stroke-width="1" />
<path d="M-2.3879544154069676,-8.903659601293212 L-1.9835191208168224,-8.0557702719872 L-6.0,-6.0" fill-opacity="0" stroke="black" stroke-width="1" />
<path d="M-2.3879544154069676,8.903659601293214 L-1.9835191208168224,8.0557702719872 L-6.0,6.0" fill-opacity="0" stroke="black" stroke-width="1" />
<path d="M-2.3879544154069676,-91.09634039870679 L-1.9835191208168224,-91.9442297280128 L-6.0,-94.0" fill-opacity="0" stroke="black" stroke-width="1" />
<path d="M-6.0,94.0 L-0.9445417322693828,94.99883052756687 L-5.0,95.0" fill-opacity="0" stroke="black" stroke-width="1" />
<path d="M-6.0,-6.0 L-0.9445417322693828,-5.001169472433137 L-5.0,-5.0" fill-opacity="0" stroke="black" stroke-width="1" />
<path d="M-6.0,6.0 L-0.9445417322693828,5.0011694724331335 L-5.0,5.0" fill-opacity="0" stroke="black" stroke-width="1" />
<path d="M-6.0,-94.0 L-0.9445417322693828,-94.99883052756687 L-5.0,-95.0" fill-opacity="0" stroke="black" stroke-width="1" />
<path d="M-3.0,97.0 L-0.06801600354264803,98.03838406681116 L0.0,100.0" fill-opacity="0" stroke="black" stroke-width="1" />
<path d="M-3.0,-3.0 L-0.06801600354264803,-1.9616159331888317 L0.0,-0.0" fill-opacity="0" stroke="black" stroke-width="1" />
<path d="M-3.0,3.0 L-0.06801600354264803,1.9616159331888383 L0.0,-0.0" fill-opacity="0" stroke="black" stroke-width="1" />
<path d="M-3.0,-97.0 L-0.06801600354264803,-98.03838406681118 L0.0,-100.0" fill-opacity="0" stroke="black" stroke-width="1" />
<path d="M-79.0,-21.0 L-80.0,-20.0 L-91.09634039870679,-2.3879544154069676" fill-opacity="0" stroke="black" stroke-width="1" />
<path d="M-79.0,21.0 L-80.0,20.0 L-91.09634039870679,2.3879544154069676" fill-opacity="0" stroke="black" stroke-width="1" />
<path d="M-80.0,-0.0 L-72.23801381870197,-3.0207936876473274 L-71.43583889675241,-4.8211112807659" fill-opacity="0" stroke="black" stroke-width="1" />
<path d="M-80.0,-0.0 L-72.23801381870197,3.0207936876473274 L-71.43583889675241,4.8211112807659" fill-opacity="0" stroke="black" stroke-width="1" />
<path d="M-72.23801381870197,-3.0207936876473274 L-71.43583889675241,-4.8211112807659 L-68.06488999607856,-6.155601744675499" fill-opacity="0" stroke="black" stroke-width="1" />
<path d="M-72.23801381870197,3.0207936876473274 L-71.43583889675241,4.8211112807659 L-68.06488999607856,6.155601744675499" fill-opacity="0" stroke="black" stroke-width="1" />
<path d="M-71.43583889675241,-4.8211112807659 L-68.06488999607856,-6.155601744675499 L-66.95988262569688,-7.808254887061598" fill-opacity="0" stroke="black" stroke-width="1" />
<path d="M-71.43583889675241,4.8211112807659 L-68.06488999607856,6.155601744675499 L-66.95988262569688,7.808254887061598" fill-opacity="0" stroke="black" stroke-width="1" />
<path d="M-68.06488999607856,-6.155601744675499 L-66.95988262569688,-7.808254887061598 L-66.78522121776277,-15.457956924989046" fill-opacity="0" stroke="black" stroke-width="1" />
<path d="M-68.06488999607856,6.155601744675499 L-66.95988262569688,7.808254887061598 L-66.78522121776277,15.457956924989046" fill-opacity="0" stroke="black" stroke-width="1" />
<path d="M-66.95988262569688,-7.808254887061598 L-66.78522121776277,-15.457956924989046 L-66.0,-0.0" fill-opacity="0" stroke="black" stroke-width="1" />
<path d="M-66.95988262569688,7.808254887061598 L-66.78522121776277,15.457956924989046 L-66.0,-0.0" fill-opacity="0" stroke="black" stroke-width="1" />
<path d="M-50.0,-3.0 L-62.754892686944125,-16.740246202989457 L-61.02673904860705,-18.163276942988357" fill-opacity="0" stroke="black" stroke-width="1" />
<path d="M-50.0,3.0 L-62.754892686944125,16.740246202989457 L-61.02673904860705,18.163276942988357" fill-opacity="0" stroke="black" stroke-width="1" />
<path d="M-62.754892686944125,-16.740246202989457 L-61.02673904860705,-18.163276942988357 L-59.68113127413197,-18.56114171744252" fill-opacity="0" stroke="black" stroke-width="1" />
<path d="M-62.754892686944125,16.740246202989457 L-61.02673904860705,18.163276942988357 L-59.68113127413197,18.56114171744252" fill-opacity="0" stroke="black" stroke-width="1" />
<path d="M-61.02673904860705,-18.163276942988357 L-59.68113127413197,-18.56114171744252 L-50.0,-22.0" fill-opacity="0" stroke="black" stroke-width="1" />
<path d="M-61.02673904860705,18.163276942988357 L-59.68113127413197,18.56114171744252 L-50.0,22.0" fill-opacity="0" stroke="black" stroke-width="1" />
<path d="M-50.0,-22.0 L-59.46004255885309,-22.462659563102346 L-50.0,-24.0" fill-opacity="0" stroke="black" stroke-width="1" />
<path d="M-50.0,22.0 L-59.46004255885309,22.462659563102346 L-50.0,24.0" fill-opacity="0" stroke="black" stroke-width="1" />
<path d="M-50.0,-24.0 L-59.04808456026229,-27.365242704838906 L-55.37423619374338,-27.924348563715228" fill-opacity="0" stroke="black" stroke-width="1" />
<path d="M-50.0,24.0 L-59.04808456026229,27.365242704838906 L-55.37423619374338,27.924348563715228" fill-opacity="0" stroke="black" stroke-width="1" />
<path d="M-59.04808456026229,-27.365242704838906 L-55.37423619374338,-27.924348563715228 L-53.282219589465235,-32.20948853706123" fill-opacity="0" stroke="black" stroke-width="1" />
<path d="M-59.04808456026229,27.365242704838906 L-55.37423619374338,27.924348563715228 L-53.282219589465235,32.20948853706123" fill-opacity="0" stroke="black" stroke-width="1" />
<path d="M-55.37423619374338,-27.924348563715228 L-53.282219589465235,-32.20948853706123 L-50.97552702961066,-34.348418907714255" fill-opacity="0" stroke="black" stroke-width="1" />
<path d="M-55.37423619374338,27.924348563715228 L-53.282219589465235,32.20948853706123 L-50.97552702961066,34.348418907714255" fill-opacity="0" stroke="black" stroke-width="1" />
<path d="M-53.282219589465235,-32.20948853706123 L-50.97552702961066,-34.348418907714255 L-50.0,-37.0" fill-opacity="0" stroke="black" stroke-width="1" />
<path d="M-53.282219589465235,32.20948853706123 L-50.97552702961066,34.348418907714255 L-50.0,37.0" fill-opacity="0" stroke="black" stroke-width="1" />
<path d="M-50.0,-48.0 L-53.0,-47.0 L-63.0,-37.0" fill-opacity="0" stroke="black" stroke-width="1" />
<path d="M-50.0,48.0 L-53.0,47.0 L-63.0,37.0" fill-opacity="0" stroke="black" stroke-width="1" />
<path d="M-53.0,-47.0 L-63.0,-37.0 L-69.0,-31.0" fill-opacity="0" stroke="black" stroke-width="1" />
<path d="M-53.0,47.0 L-63.0,37.0 L-69.0,31.0" fill-opacity="0" stroke="black" stroke-width="1" />
<path d="M-63.0,-37.0 L-69.0,-31.0 L-79.0,-21.0" fill-opacity="0" stroke="black" stroke-width="1" />
<path d="M-63.0,37.0 L-69.0,31.0 L-79.0,21.0" fill-opacity="0" stroke="black" stroke-width="1" />
<path d="M-69.0,-31.0 L-79.0,-21.0 L-80.0,-20.0" fill-opacity="0" stroke="black" stroke-width="1" />
<path d="M-69.0,31.0 L-79.0,21.0 L-80.0,20.0" fill-opacity="0" stroke="black" stroke-width="1" />
<path d="M-80.0,-20.0 L-91.09634039870679,-2.3879544154069676 L-91.9442297280128,-1.9835191208168224" fill-opacity="0" stroke="black" stroke-width="1" />
<path d="M-80.0,20.0 L-91.09634039870679,2.3879544154069676 L-91.9442297280128,1.9835191208168224" fill-opacity="0" stroke="black" stroke-width="1" />
<path d="M-91.09634039870679,-2.3879544154069676 L-91.9442297280128,-1.9835191208168224 L-94.0,-6.0" fill-opacity="0" stroke="black" stroke-width="1" />
<path d="M-91.09634039870679,2.3879544154069676 L-91.9442297280128,1.9835191208168224 L-94.0,6.0" fill-opacity="0" stroke="black" stroke-width="1" />
<path d="M-91.9442297280128,-1.9835191208168224 L-94.0,-6.0 L-94.99883052756687,-0.9445417322693828" fill-opacity="0" stroke="black" stroke-width="1" />
<path d="M-91.9442297280128,1.9835191208168224 L-94.0,6.0 L-94.99883052756687,0.9445417322693828" fill-opacity="0" stroke="black" stroke-width="1" />
<path d="M-94.0,-6.0 L-94.99883052756687,-0.9445417322693828 L-95.0,-5.0" fill-opacity="0" stroke="black" stroke-width="1" />
<path d="M-94.0,6.0 L-94.99883052756687,0.9445417322693828 L-95.0,5.0" fill-opacity="0" stroke="black" stroke-width="1" />
<path d="M-94.99883052756687,-0.9445417322693828 L-95.0,-5.0 L-97.0,-3.0" fill-opacity="0" stroke="black" stroke-width="1" />
<path d="M-94.99883052756687,0.9445417322693828 L-95.0,5.0 L-97.0,3.0" fill-opacity="0" stroke="black" stroke-width="1" />
<path d="M-95.0,-5.0 L-97.0,-3.0 L-98.03838406681118,-0.06801600354264803" fill-opacity="0" stroke="black" stroke-width="1" />
<path d="M-95.0,5.0 L-97.0,3.0 L-98.03838406681118,0.06801600354264803" fill-opacity="0" stroke="black" stroke-width="1" />
<path d="M-97.0,-3.0 L-98.03838406681118,-0.06801600354264803 L-100.0,-0.0" fill-opacity="0" stroke="black" stroke-width="1" />
<path d="M-97.0,3.0 L-98.03838406681118,0.06801600354264803 L-100.0,-0.0" fill-opacity="0" stroke="black" stroke-width="1" />
<circle cx="0" cy="-97" r="8" stroke-dasharray="39.653880605311166 10.611601852125524" stroke-dashoffset="-17.59291886010284" stroke="black" stroke-width="1" fill="white" fill-opacity="1" />
<circle cx="0" cy="-97" r="4" stroke="black" stroke-width="1" fill="white" fill-opacity="1" />
</svg>