<?xml version="1.0" encoding="UTF-8"?>
<svg xmlns="http://www.w3.org/2000/svg" xmlns:xlink="http://www.w3.org/1999/xlink"
     width="250" height="250" viewBox="-125.0 -125.0 250 250">
<defs>
</defs>
<path d="M14.0,-0.0 L20.529120242121063,-3.632677194765005 L20.85432438687105,-4.192095426414095" fill-opacity="0" stroke="black" stroke-width="1" />
<path d="M14.0,-0.0 L20.529120242121063,3.632677194765005 L20.85432438687105,4.192095426414095" fill-opacity="0" stroke="black" stroke-width="1" />
<path d="M20.529120242121063,-3.632677194765005 L20.85432438687105,-4.192095426414095 L24.078684345652984,-8.447169622903933" fill-opacity="0" stroke="black" stroke-width="1" />
<path d="M20.529120242121063,3.632677194765005 L20.85432438687105,4.192095426414095 L24.078684345652984,8.447169622903933" fill-opacity="0" stroke="black" stroke-width="1" />
<path d="M20.85432438687105,-4.192095426414095 L24.078684345652984,-8.447169622903933 L24.47553133427045,-9.023904350421022" fill-opacity="0" stroke="black" stroke-width="1" />
<path d="M20.85432438687105,4.192095426414095 L24.078684345652984,8.447169622903933 L24.47553133427045,9.023904350421022" fill-opacity="0" stroke="black" stroke-width="1" />
<path d="M24.078684345652984,-8.447169622903933 L24.47553133427045,-9.023904350421022 L25.731303826917603,-9.515829420076422" fill-opacity="0" stroke="black" stroke-width="1" />
<path d="M24.078684345652984,8.447169622903933 L24.47553133427045,9.023904350421022 L25.731303826917603,9.515829420076422" fill-opacity="0" stroke="black" stroke-width="1" />
<path d="M24.47553133427045,-9.023904350421022 L25.731303826917603,-9.515829420076422 L30.828223628746844,-12.169741355132821" fill-opacity="0" stroke="black" stroke-width="1" />
<path d="M24.47553133427045,9.023904350421022 L25.731303826917603,9.515829420076422 L30.828223628746844,12.169741355132821" fill-opacity="0" stroke="black" stroke-width="1" />
<path d="M25.731303826917603,-9.515829420076422 L30.828223628746844,-12.169741355132821 L32.862770192054214,-12.723942140281622" fill-opacity="0" stroke="black" stroke-width="1" />
<path d="M25.731303826917603,9.515829420076422 L30.828223628746844,12.169741355132821 L32.862770192054214,12.723942140281622" fill-opacity="0" stroke="black" stroke-width="1" />
<path d="M30.828223628746844,-12.169741355132821 L32.862770192054214,-12.723942140281622 L46.0,-0.0" fill-opacity="0" stroke="black" stroke-width="1" />
<path d="M30.828223628746844,12.169741355132821 L32.862770192054214,12.723942140281622 L46.0,-0.0" fill-opacity="0" stroke="black" stroke-width="1" />
<path d="M50.0,50.0 L46.0,54.0 L41.0,59.0" fill-opacity="0" stroke="black" stroke-width="1" />
<path d="M50.0,-50.0 L46.0,-54.0 L41.0,-59.0" fill-opacity="0" stroke="black" stroke-width="1" />
<path d="M50.0,-18.0 L37.21791133461268,-19.616366449747044 L40.41651309918958,-21.050453450854363" fill-opacity="0" stroke="black" stroke-width="1" />
<path d="M50.0,18.0 L37.21791133461268,19.616366449747044 L40.41651309918958,21.050453450854363" fill-opacity="0" stroke="black" stroke-width="1" />
<path d="M37.21791133461268,-19.616366449747044 L40.41651309918958,-21.050453450854363 L40.67056062397275,-23.94744918415343" fill-opacity="0" stroke="black" stroke-width="1" />
<path d="M37.21791133461268,19.616366449747044 L40.41651309918958,21.050453450854363 L40.67056062397275,23.94744918415343" fill-opacity="0" stroke="black" stroke-width="1" />
<path d="M40.41651309918958,-21.050453450854363 L40.67056062397275,-23.94744918415343 L45.487765465180715,-24.25715450843052" fill-opacity="0" stroke="black" stroke-width="1" />
<path d="M40.41651309918958,21.050453450854363 L40.67056062397275,23.94744918415343 L45.487765465180715,24.25715450843052" fill-opacity="0" stroke="black" stroke-width="1" />
<path d="M40.67056062397275,-23.94744918415343 L45.487765465180715,-24.25715450843052 L50.0,-27.0" fill-opacity="0" stroke="black" stroke-width="1" />
<path d="M40.67056062397275,23.94744918415343 L45.487765465180715,24.25715450843052 L50.0,27.0" fill-opacity="0" stroke="black" stroke-width="1" />
<path d="M50.0,-27.0 L47.23207026103022,-27.141342406416403 L47.5242851417544,-29.526648739761445" fill-opacity="0" stroke="black" stroke-width="1" />
<path d="M50.0,27.0 L47.23207026103022,27.141342406416403 L47.5242851417544,29.526648739761445" fill-opacity="0" stroke="black" stroke-width="1" />
<path d="M47.23207026103022,-27.141342406416403 L47.5242851417544,-29.526648739761445 L49.49455698766626,-32.850106559978826" fill-opacity="0" stroke="black" stroke-width="1" />
<path d="M47.23207026103022,27.141342406416403 L47.5242851417544,29.526648739761445 L49.49455698766626,32.850106559978826" fill-opacity="0" stroke="black" stroke-width="1" />
<path d="M47.5242851417544,-29.526648739761445 L49.49455698766626,-32.850106559978826 L50.0,-39.0" fill-opacity="0" stroke="black" stroke-width="1" />
<path d="M47.5242851417544,29.526648739761445 L49.49455698766626,32.850106559978826 L50.0,39.0" fill-opacity="0" stroke="black" stroke-width="1" />
<path d="M46.0,54.0 L41.0,59.0 L12.0,88.0" fill-opacity="0" stroke="black" stroke-width="1" />
<path d="M46.0,-54.0 L41.0,-59.0 L12.0,-88.0" fill-opacity="0" stroke="black" stroke-width="1" />
<path d="M12.0,-12.0 L10.511080197173806,-3.2984675500662197 L5.109276194405366,-2.843824872765752" fill-opacity="0" stroke="black" stroke-width="1" />
<path d="M12.0,12.0 L10.511080197173806,3.2984675500662197 L5.109276194405366,2.843824872765752" fill-opacity="0" stroke="black" stroke-width="1" />
<path d="M10.511080197173806,-3.2984675500662197 L5.109276194405366,-2.843824872765752 L4.972372975402888,-1.522725300593708" fill-opacity="0" stroke="black" stroke-width="1" />
<path d="M10.511080197173806,3.2984675500662197 L5.109276194405366,2.843824872765752 L4.972372975402888,1.522725300593708" fill-opacity="0" stroke="black" stroke-width="1" />
<path d="M5.109276194405366,-2.843824872765752 L4.972372975402888,-1.522725300593708 L3.2166218357350007,-0.7541719767317594" fill-opacity="0" stroke="black" stroke-width="1" />
<path d="M5.109276194405366,2.843824872765752 L4.972372975402888,1.522725300593708 L3.2166218357350007,0.7541719767317594" fill-opacity="0" stroke="black" stroke-width="1" />
<path d="M4.972372975402888,-1.522725300593708 L3.2166218357350007,-0.7541719767317594 L3.20442613885919,-0.6427672570880918" fill-opacity="0" stroke="black" stroke-width="1" />
<path d="M4.972372975402888,1.522725300593708 L3.2166218357350007,0.7541719767317594 L3.20442613885919,0.6427672570880918" fill-opacity="0" stroke="black" stroke-width="1" />
<path d="M3.2166218357350007,-0.7541719767317594 L3.20442613885919,-0.6427672570880918 L3.0,-3.0" fill-opacity="0" stroke="black" stroke-width="1" />
<path d="M3.2166218357350007,0.7541719767317594 L3.20442613885919,0.6427672570880918 L3.0,3.0" fill-opacity="0" stroke="black" stroke-width="1" />
<path d="M0.6427672570880918,96.79557386114081 L3.0,97.0 L0.0,100.0" fill-opacity="0" stroke="black" stroke-width="1" />
<path d="M0.6427672570880918,-96.79557386114081 L3.0,-97.0 L0.0,-100.0" fill-opacity="0" stroke="black" stroke-width="1" />
<path d="M-14.0,-0.0 L-20.529120242121063,-3.632677194765005 L-20.85432438687105,-4.192095426414095" fill-opacity="0" stroke="black" stroke-width="1" />
<path d="M-14.0,-0.0 L-20.529120242121063,3.632677194765005 L-20.85432438687105,4.192095426414095" fill-opacity="0" stroke="black" stroke-width="1" />
<path d="M-20.529120242121063,-3.632677194765005 L-20.85432438687105,-4.192095426414095 L-24.078684345652984,-8.447169622903933" fill-opacity="0" stroke="black" stroke-width="1" />
<path d="M-20.529120242121063,3.632677194765005 L-20.85432438687105,4.192095426414095 L-24.078684345652984,8.447169622903933" fill-opacity="0" stroke="black" stroke-width="1" />
<path d="M-20.85432438687105,-4.192095426414095 L-24.078684345652984,-8.447169622903933 L-24.47553133427045,-9.023904350421022" fill-opacity="0" stroke="black" stroke-width="1" />
<path d="M-20.85432438687105,4.192095426414095 L-24.078684345652984,8.447169622903933 L-24.47553133427045,9.023904350421022" fill-opacity="0" stroke="black" stroke-width="1" />
<path d="M-24.078684345652984,-8.447169622903933 L-24.47553133427045,-9.023904350421022 L-25.731303826917603,-9.515829420076422" fill-opacity="0" stroke="black" stroke-width="1" />
<path d="M-24.078684345652984,8.447169622903933 L-24.47553133427045,9.023904350421022 L-25.731303826917603,9.515829420076422" fill-opacity="0" stroke="black" stroke-width="1" />
<path d="M-24.47553133427045,-9.023904350421022 L-25.731303826917603,-9.515829420076422 L-30.828223628746844,-12.169741355132821" fill-opacity="0" stroke="black" stroke-width="1" />
<path d="M-24.47553133427045,9.023904350421022 L-25.731303826917603,9.515829420076422 L-30.828223628746844,12.169741355132821" fill-opacity="0" stroke="black" stroke-width="1" />
<path d="M-25.731303826917603,-9.515829420076422 L-30.828223628746844,-12.169741355132821 L-32.862770192054214,-12.723942140281622" fill-opacity="0" stroke="black" stroke-width="1" />
<path d="M-25.731303826917603,9.515829420076422 L-30.828223628746844,12.169741355132821 L-32.862770192054214,12.723942140281622" fill-opacity="0" stroke="black" stroke-width="1" />
<path d="M-30.828223628746844,-12.169741355132821 L-32.862770192054214,-12.723942140281622 L-46.0,-0.0" fill-opacity="0" stroke="black" stroke-width="1" />
<path d="M-30.828223628746844,12.169741355132821 L-32.862770192054214,12.723942140281622 L-46.0,-0.0" fill-opacity="0" stroke="black" stroke-width="1" />
<path d="M-50.0,50.0 L-46.0,54.0 L-41.0,59.0" fill-opacity="0" stroke="black" stroke-width="1" />
<path d="M-50.0,-50.0 L-46.0,-54.0 L-41.0,-59.0" fill-opacity="0" stroke="black" stroke-width="1" />
<path d="M-50.0,-18.0 L-37.21791133461268,-19.616366449747044 L-40.41651309918958,-21.050453450854363" fill-opacity="0" stroke="black" stroke-width="1" />
<path d="M-50.0,18.0 L-37.21791133461268,19.616366449747044 L-40.41651309918958,21.050453450854363" fill-opacity="0" stroke="black" stroke-width="1" />
<path d="M-37.21791133461268,-19.616366449747044 L-40.41651309918958,-21.050453450854363 L-40.67056062397275,-23.94744918415343" fill-opacity="0" stroke="black" stroke-width="1" />
<path d="M-37.21791133461268,19.616366449747044 L-40.41651309918958,21.050453450854363 L-40.67056062397275,23.94744918415343" fill-opacity="0" stroke="black" stroke-width="1" />
<path d="M-40.41651309918958,-21.050453450854363 L-40.67056062397275,-23.94744918415343 L-45.487765465180715,-24.25715450843052" fill-opacity="0" stroke="black" stroke-width="1" />
<path d="M-40.41651309918958,21.050453450854363 L-40.67056062397275,23.94744918415343 L-45.487765465180715,24.25715450843052" fill-opacity="0" stroke="black" stroke-width="1" />
<path d="M-40.67056062397275,-23.94744918415343 L-45.487765465180715,-24.25715450843052 L-50.0,-27.0" fill-opacity="0" stroke="black" stroke-width="1" />
<path d="M-40.67056062397275,23.94744918415343 L-45.487765465180715,24.25715450843052 L-50.0,27.0" fill-opacity="0" stroke="black" stroke-width="1" />
<path d="M-50.0,-27.0 L-47.23207026103022,-27.141342406416403 L-47.5242851417544,-29.526648739761445" fill-opacity="0" stroke="black" stroke-width="1" />
<path d="M-50.0,27.0 L-47.23207026103022,27.141342406416403 L-47.5242851417544,29.526648739761445" fill-opacity="0" stroke="black" stroke-width="1" />
<path d="M-47.23207026103022,-27.141342406416403 L-47.5242851417544,-29.526648739761445 L-49.49455698766626,-32.850106559978826" fill-opacity="0" stroke="black" stroke-width="1" />
<path d="M-47.23207026103022,27.141342406416403 L-47.5242851417544,29.526648739761445 L-49.49455698766626,32.850106559978826" fill-opacity="0" stroke="black" stroke-width="1" />
<path d="M-47.5242851417544,-29.526648739761445 L-49.49455698766626,-32.850106559978826 L-50.0,-39.0" fill-opacity="0" stroke="black" stroke-width="1" />
<path d="M-47.5242851417544,29.526648739761445 L-49.49455698766626,32.850106559978826 L-50.0,39.0" fill-opacity="0" stroke="black" stroke-width="1" />
<path d="M-46.0,54.0 L-41.0,59.0 L-12.0,88.0" fill-opacity="0" stroke="black" stroke-width="1" />
<path d="M-46.0,-54.0 L-41.0,-59.0 L-12.0,-88.0" fill-opacity="0" stroke="black" stroke-width="1" />
<path d="M-12.0,-12.0 L-10.511080197173806,-3.2984675500662197 L-5.109276194405366,-2.843824872765752" fill-opacity="0" stroke="black" stroke-width="1" />
<path d="M-12.0,12.0 L-10.511080197173806,3.2984675500662197 L-5.109276194405366,2.843824872765752" fill-opacity="0" stroke="black" stroke-width="1" />
<path d="M-10.511080197173806,-3.2984675500662197 L-5.109276194405366,-2.843824872765752 L-4.972372975402888,-1.522725300593708" fill-opacity="0" stroke="black" stroke-width="1" />
<path d="M-10.511080197173806,3.2984675500662197 L-5.109276194405366,2.843824872765752 L-4.972372975402888,1.522725300593708" fill-opacity="0" stroke="black" stroke-width="1" />
<path d="M-5.109276194405366,-2.843824872765752 L-4.972372975402888,-1.522725300593708 L-3.2166218357350007,-0.7541719767317594" fill-opacity="0" stroke="black" stroke-width="1" />
<path d="M-5.109276194405366,2.843824872765752 L-4.972372975402888,1.522725300593708 L-3.2166218357350007,0.7541719767317594" fill-opacity="0" stroke="black" stroke-width="1" />
<path d="M-4.972372975402888,-1.522725300593708 L-3.2166218357350007,-0.7541719767317594 L-3.20442613885919,-0.6427672570880918" fill-opacity="0" stroke="black" stroke-width="1" />
<path d="M-4.972372975402888,1.522725300593708 L-3.2166218357350007,0.7541719767317594 L-3.20442613885919,0.6427672570880918" fill-opacity="0" stroke="black" stroke-width="1" />
<path d="M-3.2166218357350007,-0.7541719767317594 L-3.20442613885919,-0.6427672570880918 L-3.0,-3.0" fill-opacity="0" stroke="black" stroke-width="1" />
<path d="M-3.2166218357350007,0.7541719767317594 L-3.20442613885919,0.6427672570880918 L-3.0,3.0" fill-opacity="0" stroke="black" stroke-width="1" />
<path d="M-0.6427672570880918,96.79557386114081 L-3.0,97.0 L0.0,100.0" fill-opacity="0" stroke="black" stroke-width="1" />
<path d="M-0.6427672570880918,-96.79557386114081 L-3.0,-97.0 L0.0,-100.0" fill-opacity="0" stroke="black" stroke-width="1" />
<path d="M86.0,-0.0 L79.47087975787893,3.632677194765005 L79.14567561312896,4.192095426414095" fill-opacity="0" stroke="black" stroke-width="1" />
<path d="M86.0,-0.0 L79.47087975787893,-3.632677194765005 L79.14567561312896,-4.192095426414095" fill-opacity="0" stroke="black" stroke-width="1" />
<path d="M79.47087975787893,3.632677194765005 L79.14567561312896,4.192095426414095 L75.92131565434701,8.447169622903933" fill-opacity="0" stroke="black" stroke-width="1" />
<path d="M79.47087975787893,-3.632677194765005 L79.14567561312896,-4.192095426414095 L75.92131565434701,-8.447169622903933" fill-opacity="0" stroke="black" stroke-width="1" />
<path d="M79.14567561312896,4.192095426414095 L75.92131565434701,8.447169622903933 L75.52446866572956,9.023904350421022" fill-opacity="0" stroke="black" stroke-width="1" />
<path d="M79.14567561312896,-4.192095426414095 L75.92131565434701,-8.447169622903933 L75.52446866572956,-9.023904350421022" fill-opacity="0" stroke="black" stroke-width="1" />
<path d="M75.92131565434701,8.447169622903933 L75.52446866572956,9.023904350421022 L74.26869617308239,9.515829420076422" fill-opacity="0" stroke="black" stroke-width="1" />
<path d="M75.92131565434701,-8.447169622903933 L75.52446866572956,-9.023904350421022 L74.26869617308239,-9.515829420076422" fill-opacity="0" stroke="black" stroke-width="1" />
<path d="M75.52446866572956,9.023904350421022 L74.26869617308239,9.515829420076422 L69.17177637125316,12.169741355132821" fill-opacity="0" stroke="black" stroke-width="1" />
<path d="M75.52446866572956,-9.023904350421022 L74.26869617308239,-9.515829420076422 L69.17177637125316,-12.169741355132821" fill-opacity="0" stroke="black" stroke-width="1" />
<path d="M74.26869617308239,9.515829420076422 L69.17177637125316,12.169741355132821 L67.13722980794579,12.723942140281622" fill-opacity="0" stroke="black" stroke-width="1" />
<path d="M74.26869617308239,-9.515829420076422 L69.17177637125316,-12.169741355132821 L67.13722980794579,-12.723942140281622" fill-opacity="0" stroke="black" stroke-width="1" />
<path d="M69.17177637125316,12.169741355132821 L67.13722980794579,12.723942140281622 L54.0,-0.0" fill-opacity="0" stroke="black" stroke-width="1" />
<path d="M69.17177637125316,-12.169741355132821 L67.13722980794579,-12.723942140281622 L54.0,-0.0" fill-opacity="0" stroke="black" stroke-width="1" />
<path d="M50.0,50.0 L54.0,46.0 L59.0,41.0" fill-opacity="0" stroke="black" stroke-width="1" />
<path d="M50.0,-50.0 L54.0,-46.0 L59.0,-41.0" fill-opacity="0" stroke="black" stroke-width="1" />
<path d="M50.0,18.0 L62.78208866538732,19.616366449747044 L59.58348690081042,21.050453450854363" fill-opacity="0" stroke="black" stroke-width="1" />
<path d="M50.0,-18.0 L62.78208866538732,-19.616366449747044 L59.58348690081042,-21.050453450854363" fill-opacity="0" stroke="black" stroke-width="1" />
<path d="M62.78208866538732,19.616366449747044 L59.58348690081042,21.050453450854363 L59.32943937602725,23.94744918415343" fill-opacity="0" stroke="black" stroke-width="1" />
<path d="M62.78208866538732,-19.616366449747044 L59.58348690081042,-21.050453450854363 L59.32943937602725,-23.94744918415343" fill-opacity="0" stroke="black" stroke-width="1" />
<path d="M59.58348690081042,21.050453450854363 L59.32943937602725,23.94744918415343 L54.512234534819285,24.25715450843052" fill-opacity="0" stroke="black" stroke-width="1" />
<path d="M59.58348690081042,-21.050453450854363 L59.32943937602725,-23.94744918415343 L54.512234534819285,-24.25715450843052" fill-opacity="0" stroke="black" stroke-width="1" />
<path d="M59.32943937602725,23.94744918415343 L54.512234534819285,24.25715450843052 L50.0,27.0" fill-opacity="0" stroke="black" stroke-width="1" />
<path d="M59.32943937602725,-23.94744918415343 L54.512234534819285,-24.25715450843052 L50.0,-27.0" fill-opacity="0" stroke="black" stroke-width="1" />
<path d="M50.0,27.0 L52.76792973896978,27.141342406416403 L52.4757148582456,29.526648739761445" fill-opacity="0" stroke="black" stroke-width="1" />
<path d="M50.0,-27.0 L52.76792973896978,-27.141342406416403 L52.4757148582456,-29.526648739761445" fill-opacity="0" stroke="black" stroke-width="1" />
<path d="M52.76792973896978,27.141342406416403 L52.4757148582456,29.526648739761445 L50.50544301233374,32.850106559978826" fill-opacity="0" stroke="black" stroke-width="1" />
<path d="M52.76792973896978,-27.141342406416403 L52.4757148582456,-29.526648739761445 L50.50544301233374,-32.850106559978826" fill-opacity="0" stroke="black" stroke-width="1" />
<path d="M52.4757148582456,29.526648739761445 L50.50544301233374,32.850106559978826 L50.0,39.0" fill-opacity="0" stroke="black" stroke-width="1" />
<path d="M52.4757148582456,-29.526648739761445 L50.50544301233374,-32.850106559978826 L50.0,-39.0" fill-opacity="0" stroke="black" stroke-width="1" />
<path d="M54.0,46.0 L59.0,41.0 L88.0,12.0" fill-opacity="0" stroke="black" stroke-width="1" />
<path d="M54.0,-46.0 L59.0,-41.0 L88.0,-12.0" fill-opacity="0" stroke="black" stroke-width="1" />
<path d="M88.0,12.0 L89.48891980282619,3.2984675500662197 L94.89072380559463,2.843824872765752" fill-opacity="0" stroke="black" stroke-width="1" />
<path d="M88.0,-12.0 L89.48891980282619,-3.2984675500662197 L94.89072380559463,-2.843824872765752" fill-opacity="0" stroke="black" stroke-width="1" />
<path d="M89.48891980282619,3.2984675500662197 L94.89072380559463,2.843824872765752 L95.02762702459711,1.522725300593708" fill-opacity="0" stroke="black" stroke-width="1" />
<path d="M89.48891980282619,-3.2984675500662197 L94.89072380559463,-2.843824872765752 L95.02762702459711,-1.522725300593708" fill-opacity="0" stroke="black" stroke-width="1" />
<path d="M94.89072380559463,2.843824872765752 L95.02762702459711,1.522725300593708 L96.783378164265,0.7541719767317594" fill-opacity="0" stroke="black" stroke-width="1" />
<path d="M94.89072380559463,-2.843824872765752 L95.02762702459711,-1.522725300593708 L96.783378164265,-0.7541719767317594" fill-opacity="0" stroke="black" stroke-width="1" />
<path d="M95.02762702459711,1.522725300593708 L96.783378164265,0.7541719767317594 L96.79557386114081,0.6427672570880918" fill-opacity="0" stroke="black" stroke-width="1" />
<path d="M95.02762702459711,-1.522725300593708 L96.783378164265,-0.7541719767317594 L96.79557386114081,-0.6427672570880918" fill-opacity="0" stroke="black" stroke-width="1" />
<path d="M96.783378164265,0.7541719767317594 L96.79557386114081,0.6427672570880918 L97.0,3.0" fill-opacity="0" stroke="black" stroke-width="1" />
<path d="M96.783378164265,-0.7541719767317594 L96.79557386114081,-0.6427672570880918 L97.0,-3.0" fill-opacity="0" stroke="black" stroke-width="1" />
<path d="M96.79557386114081,0.6427672570880918 L97.0,3.0 L100.0,-0.0" fill-opacity="0" stroke="black" stroke-width="1" />
<path d="M96.79557386114081,-0.6427672570880918 L97.0,-3.0 L100.0,-0.0" fill-opacity="0" stroke="black" stroke-width="1" />
<path d="M0.0,-14.0 L3.632677194765005,-20.529120242121063 L4.192095426414095,-20.85432438687105" fill-opacity="0" stroke="black" stroke-width="1" />
<path d="M0.0,14.0 L3.632677194765005,20.529120242121063 L4.192095426414095,20.85432438687105" fill-opacity="0" stroke="black" stroke-width="1" />
<path d="M0.0,86.0 L3.632677194765005,79.47087975787893 L4.192095426414095,79.14567561312896" fill-opacity="0" stroke="black" stroke-width="1" />
<path d="M0.0,-86.0 L3.632677194765005,-79.47087975787893 L4.192095426414095,-79.14567561312896" fill-opacity="0" stroke="black" stroke-width="1" />
<path d="M3.632677194765005,-20.529120242121063 L4.192095426414095,-20.85432438687105 L8.447169622903933,-24.078684345652984" fill-opacity="0" stroke="black" stroke-width="1" />
<path d="M3.632677194765005,20.529120242121063 L4.192095426414095,20.85432438687105 L8.447169622903933,24.078684345652984" fill-opacity="0" stroke="black" stroke-width="1" />
<path d="M3.632677194765005,79.47087975787893 L4.192095426414095,79.14567561312896 L8.447169622903933,75.92131565434701" fill-opacity="0" stroke="black" stroke-width="1" />
<path d="M3.632677194765005,-79.47087975787893 L4.192095426414095,-79.14567561312896 L8.447169622903933,-75.92131565434701" fill-opacity="0" stroke="black" stroke-width="1" />
<path d="M4.192095426414095,-20.85432438687105 L8.447169622903933,-24.078684345652984 L9.023904350421022,-24.47553133427045" fill-opacity="0" stroke="black" stroke-width="1" />
<path d="M4.192095426414095,20.85432438687105 L8.447169622903933,24.078684345652984 L9.023904350421022,24.47553133427045" fill-opacity="0" stroke="black" stroke-width="1" />
<path d="M4.192095426414095,79.14567561312896 L8.447169622903933,75.92131565434701 L9.023904350421022,75.52446866572956" fill-opacity="0" stroke="black" stroke-width="1" />
<path d="M4.192095426414095,-79.14567561312896 L8.447169622903933,-75.92131565434701 L9.023904350421022,-75.52446866572956" fill-opacity="0" stroke="black" stroke-width="1" />
<path d="M8.447169622903933,-24.078684345652984 L9.023904350421022,-24.47553133427045 L9.515829420076422,-25.731303826917603" fill-opacity="0" stroke="black" stroke-width="1" />
<path d="M8.447169622903933,24.078684345652984 L9.023904350421022,24.47553133427045 L9.515829420076422,25.731303826917603" fill-opacity="0" stroke="black" stroke-width="1" />
<path d="M8.447169622903933,75.92131565434701 L9.023904350421022,75.52446866572956 L9.515829420076422,74.26869617308239" fill-opacity="0" stroke="black" stroke-width="1" />
<path d="M8.447169622903933,-75.92131565434701 L9.023904350421022,-75.52446866572956 L9.515829420076422,-74.26869617308239" fill-opacity="0" stroke="black" stroke-width="1" />
<path d="M9.023904350421022,-24.47553133427045 L9.515829420076422,-25.731303826917603 L12.169741355132821,-30.828223628746844" fill-opacity="0" stroke="black" stroke-width="1" />
<path d="M9.023904350421022,24.47553133427045 L9.515829420076422,25.731303826917603 L12.169741355132821,30.828223628746844" fill-opacity="0" stroke="black" stroke-width="1" />
<path d="M9.023904350421022,75.52446866572956 L9.515829420076422,74.26869617308239 L12.169741355132821,69.17177637125316" fill-opacity="0" stroke="black" stroke-width="1" />
<path d="M9.023904350421022,-75.52446866572956 L9.515829420076422,-74.26869617308239 L12.169741355132821,-69.17177637125316" fill-opacity="0" stroke="black" stroke-width="1" />
<path d="M9.515829420076422,-25.731303826917603 L12.169741355132821,-30.828223628746844 L12.723942140281622,-32.862770192054214" fill-opacity="0" stroke="black" stroke-width="1" />
<path d="M9.515829420076422,25.731303826917603 L12.169741355132821,30.828223628746844 L12.723942140281622,32.862770192054214" fill-opacity="0" stroke="black" stroke-width="1" />
<path d="M9.515829420076422,74.26869617308239 L12.169741355132821,69.17177637125316 L12.723942140281622,67.13722980794579" fill-opacity="0" stroke="black" stroke-width="1" />
<path d="M9.515829420076422,-74.26869617308239 L12.169741355132821,-69.17177637125316 L12.723942140281622,-67.13722980794579" fill-opacity="0" stroke="black" stroke-width="1" />
<path d="M12.169741355132821,-30.828223628746844 L12.723942140281622,-32.862770192054214 L0.0,-46.0" fill-opacity="0" stroke="black" stroke-width="1" />
<path d="M12.169741355132821,30.828223628746844 L12.723942140281622,32.862770192054214 L0.0,46.0" fill-opacity="0" stroke="black" stroke-width="1" />
<path d="M12.169741355132821,69.17177637125316 L12.723942140281622,67.13722980794579 L0.0,54.0" fill-opacity="0" stroke="black" stroke-width="1" />
<path d="M12.169741355132821,-69.17177637125316 L12.723942140281622,-67.13722980794579 L0.0,-54.0" fill-opacity="0" stroke="black" stroke-width="1" />
<path d="M18.0,-50.0 L19.616366449747044,-37.21791133461268 L21.050453450854363,-40.41651309918958" fill-opacity="0" stroke="black" stroke-width="1" />
<path d="M18.0,50.0 L19.616366449747044,37.21791133461268 L21.050453450854363,40.41651309918958" fill-opacity="0" stroke="black" stroke-width="1" />
<path d="M18.0,50.0 L19.616366449747044,62.78208866538732 L21.050453450854363,59.58348690081042" fill-opacity="0" stroke="black" stroke-width="1" />
<path d="M18.0,-50.0 L19.616366449747044,-62.78208866538732 L21.050453450854363,-59.58348690081042" fill-opacity="0" stroke="black" stroke-width="1" />
<path d="M19.616366449747044,-37.21791133461268 L21.050453450854363,-40.41651309918958 L23.94744918415343,-40.67056062397275" fill-opacity="0" stroke="black" stroke-width="1" />
<path d="M19.616366449747044,37.21791133461268 L21.050453450854363,40.41651309918958 L23.94744918415343,40.67056062397275" fill-opacity="0" stroke="black" stroke-width="1" />
<path d="M19.616366449747044,62.78208866538732 L21.050453450854363,59.58348690081042 L23.94744918415343,59.32943937602725" fill-opacity="0" stroke="black" stroke-width="1" />
<path d="M19.616366449747044,-62.78208866538732 L21.050453450854363,-59.58348690081042 L23.94744918415343,-59.32943937602725" fill-opacity="0" stroke="black" stroke-width="1" />
<path d="M21.050453450854363,-40.41651309918958 L23.94744918415343,-40.67056062397275 L24.25715450843052,-45.487765465180715" fill-opacity="0" stroke="black" stroke-width="1" />
<path d="M21.050453450854363,40.41651309918958 L23.94744918415343,40.67056062397275 L24.25715450843052,45.487765465180715" fill-opacity="0" stroke="black" stroke-width="1" />
<path d="M21.050453450854363,59.58348690081042 L23.94744918415343,59.32943937602725 L24.25715450843052,54.512234534819285" fill-opacity="0" stroke="black" stroke-width="1" />
<path d="M21.050453450854363,-59.58348690081042 L23.94744918415343,-59.32943937602725 L24.25715450843052,-54.512234534819285" fill-opacity="0" stroke="black" stroke-width="1" />
<path d="M23.94744918415343,-40.67056062397275 L24.25715450843052,-45.487765465180715 L27.0,-50.0" fill-opacity="0" stroke="black" stroke-width="1" />
<path d="M23.94744918415343,40.67056062397275 L24.25715450843052,45.487765465180715 L27.0,50.0" fill-opacity="0" stroke="black" stroke-width="1" />
<path d="M23.94744918415343,59.32943937602725 L24.25715450843052,54.512234534819285 L27.0,50.0" fill-opacity="0" stroke="black" stroke-width="1" />
<path d="M23.94744918415343,-59.32943937602725 L24.25715450843052,-54.512234534819285 L27.0,-50.0" fill-opacity="0" stroke="black" stroke-width="1" />
<path d="M27.0,-50.0 L27.141342406416403,-47.23207026103022 L29.526648739761445,-47.5242851417544" fill-opacity="0" stroke="black" stroke-width="1" />
<path d="M27.0,50.0 L27.141342406416403,47.23207026103022 L29.526648739761445,47.5242851417544" fill-opacity="0" stroke="black" stroke-width="1" />
<path d="M27.0,50.0 L27.141342406416403,52.76792973896978 L29.526648739761445,52.4757148582456" fill-opacity="0" stroke="black" stroke-width="1" />
<path d="M27.0,-50.0 L27.141342406416403,-52.76792973896978 L29.526648739761445,-52.4757148582456" fill-opacity="0" stroke="black" stroke-width="1" />
<path d="M27.141342406416403,-47.23207026103022 L29.526648739761445,-47.5242851417544 L32.850106559978826,-49.49455698766626" fill-opacity="0" stroke="black" stroke-width="1" />
<path d="M27.141342406416403,47.23207026103022 L29.526648739761445,47.5242851417544 L32.850106559978826,49.49455698766626" fill-opacity="0" stroke="black" stroke-width="1" />
<path d="M27.141342406416403,52.76792973896978 L29.526648739761445,52.4757148582456 L32.850106559978826,50.50544301233374" fill-opacity="0" stroke="black" stroke-width="1" />
<path d="M27.141342406416403,-52.76792973896978 L29.526648739761445,-52.4757148582456 L32.850106559978826,-50.50544301233374" fill-opacity="0" stroke="black" stroke-width="1" />
<path d="M29.526648739761445,-47.5242851417544 L32.850106559978826,-49.49455698766626 L39.0,-50.0" fill-opacity="0" stroke="black" stroke-width="1" />
<path d="M29.526648739761445,47.5242851417544 L32.850106559978826,49.49455698766626 L39.0,50.0" fill-opacity="0" stroke="black" stroke-width="1" />
<path d="M29.526648739761445,52.4757148582456 L32.850106559978826,50.50544301233374 L39.0,50.0" fill-opacity="0" stroke="black" stroke-width="1" />
<path d="M29.526648739761445,-52.4757148582456 L32.850106559978826,-50.50544301233374 L39.0,-50.0" fill-opacity="0" stroke="black" stroke-width="1" />
<path d="M12.0,-12.0 L3.2984675500662197,-10.511080197173806 L2.843824872765752,-5.109276194405366" fill-opacity="0" stroke="black" stroke-width="1" />
<path d="M12.0,12.0 L3.2984675500662197,10.511080197173806 L2.843824872765752,5.109276194405366" fill-opacity="0" stroke="black" stroke-width="1" />
<path d="M12.0,88.0 L3.2984675500662197,89.48891980282619 L2.843824872765752,94.89072380559463" fill-opacity="0" stroke="black" stroke-width="1" />
<path d="M12.0,-88.0 L3.2984675500662197,-89.48891980282619 L2.843824872765752,-94.89072380559463" fill-opacity="0" stroke="black" stroke-width="1" />
<path d="M3.2984675500662197,-10.511080197173806 L2.843824872765752,-5.109276194405366 L1.522725300593708,-4.972372975402888" fill-opacity="0" stroke="black" stroke-width="1" />
<path d="M3.2984675500662197,10.511080197173806 L2.843824872765752,5.109276194405366 L1.522725300593708,4.972372975402888" fill-opacity="0" stroke="black" stroke-width="1" />
<path d="M3.2984675500662197,89.48891980282619 L2.843824872765752,94.89072380559463 L1.522725300593708,95.02762702459711" fill-opacity="0" stroke="black" stroke-width="1" />
<path d="M3.2984675500662197,-89.48891980282619 L2.843824872765752,-94.89072380559463 L1.522725300593708,-95.02762702459711" fill-opacity="0" stroke="black" stroke-width="1" />
<path d="M2.843824872765752,-5.109276194405366 L1.522725300593708,-4.972372975402888 L0.7541719767317594,-3.2166218357350007" fill-opacity="0" stroke="black" stroke-width="1" />
<path d="M2.843824872765752,5.109276194405366 L1.522725300593708,4.972372975402888 L0.7541719767317594,3.2166218357350007" fill-opacity="0" stroke="black" stroke-width="1" />
<path d="M2.843824872765752,94.89072380559463 L1.522725300593708,95.02762702459711 L0.7541719767317594,96.783378164265" fill-opacity="0" stroke="black" stroke-width="1" />
<path d="M2.843824872765752,-94.89072380559463 L1.522725300593708,-95.02762702459711 L0.7541719767317594,-96.783378164265" fill-opacity="0" stroke="black" stroke-width="1" />
<path d="M1.522725300593708,-4.972372975402888 L0.7541719767317594,-3.2166218357350007 L0.6427672570880918,-3.20442613885919" fill-opacity="0" stroke="black" stroke-width="1" />
<path d="M1.522725300593708,4.972372975402888 L0.7541719767317594,3.2166218357350007 L0.6427672570880918,3.20442613885919" fill-opacity="0" stroke="black" stroke-width="1" />
<path d="M1.522725300593708,95.02762702459711 L0.7541719767317594,96.783378164265 L0.6427672570880918,96.79557386114081" fill-opacity="0" stroke="black" stroke-width="1" />
<path d="M1.522725300593708,-95.02762702459711 L0.7541719767317594,-96.783378164265 L0.6427672570880918,-96.79557386114081" fill-opacity="0" stroke="black" stroke-width="1" />
<path d="M0.7541719767317594,-3.2166218357350007 L0.6427672570880918,-3.20442613885919 L3.0,-3.0" fill-opacity="0" stroke="black" stroke-width="1" />
<path d="M0.7541719767317594,3.2166218357350007 L0.6427672570880918,3.20442613885919 L3.0,3.0" fill-opacity="0" stroke="black" stroke-width="1" />
<path d="M0.7541719767317594,96.783378164265 L0.6427672570880918,96.79557386114081 L3.0,97.0" fill-opacity="0" stroke="black" stroke-width="1" />
<path d="M0.7541719767317594,-96.783378164265 L0.6427672570880918,-96.79557386114081 L3.0,-97.0" fill-opacity="0" stroke="black" stroke-width="1" />
<path d="M0.0,86.0 L-3.632677194765005,79.47087975787893 L-4.192095426414095,79.14567561312896" fill-opacity="0" stroke="black" stroke-width="1" />
<path d="M0.0,-14.0 L-3.632677194765005,-20.529120242121063 L-4.192095426414095,-20.85432438687105" fill-opacity="0" stroke="black" stroke-width="1" />
<path d="M0.0,14.0 L-3.632677194765005,20.529120242121067 L-4.192095426414095,20.854324386871042" fill-opacity="0" stroke="black" stroke-width="1" />
<path d="M0.0,-86.0 L-3.632677194765005,-79.47087975787893 L-4.192095426414095,-79.14567561312896" fill-opacity="0" stroke="black" stroke-width="1" />
<path d="M-3.632677194765005,79.47087975787893 L-4.192095426414095,79.14567561312896 L-8.447169622903933,75.92131565434701" fill-opacity="0" stroke="black" stroke-width="1" />
<path d="M-3.632677194765005,-20.529120242121063 L-4.192095426414095,-20.85432438687105 L-8.447169622903933,-24.078684345652984" fill-opacity="0" stroke="black" stroke-width="1" />
<path d="M-3.632677194765005,20.529120242121067 L-4.192095426414095,20.854324386871042 L-8.447169622903933,24.078684345652988" fill-opacity="0" stroke="black" stroke-width="1" />
<path d="M-3.632677194765005,-79.47087975787893 L-4.192095426414095,-79.14567561312896 L-8.447169622903933,-75.92131565434701" fill-opacity="0" stroke="black" stroke-width="1" />
<path d="M-4.192095426414095,79.14567561312896 L-8.447169622903933,75.92131565434701 L-9.023904350421022,75.52446866572956" fill-opacity="0" stroke="black" stroke-width="1" />
<path d="M-4.192095426414095,-20.85432438687105 L-8.447169622903933,-24.078684345652984 L-9.023904350421022,-24.47553133427045" fill-opacity="0" stroke="black" stroke-width="1" />
<path d="M-4.192095426414095,20.854324386871042 L-8.447169622903933,24.078684345652988 L-9.023904350421022,24.475531334270443" fill-opacity="0" stroke="black" stroke-width="1" />
<path d="M-4.192095426414095,-79.14567561312896 L-8.447169622903933,-75.92131565434701 L-9.023904350421022,-75.52446866572956" fill-opacity="0" stroke="black" stroke-width="1" />
<path d="M-8.447169622903933,75.92131565434701 L-9.023904350421022,75.52446866572956 L-9.515829420076422,74.26869617308239" fill-opacity="0" stroke="black" stroke-width="1" />
<path d="M-8.447169622903933,-24.078684345652984 L-9.023904350421022,-24.47553133427045 L-9.515829420076422,-25.731303826917603" fill-opacity="0" stroke="black" stroke-width="1" />
<path d="M-8.447169622903933,24.078684345652988 L-9.023904350421022,24.475531334270443 L-9.515829420076422,25.73130382691761" fill-opacity="0" stroke="black" stroke-width="1" />
<path d="M-8.447169622903933,-75.92131565434701 L-9.023904350421022,-75.52446866572956 L-9.515829420076422,-74.26869617308239" fill-opacity="0" stroke="black" stroke-width="1" />
<path d="M-9.023904350421022,75.52446866572956 L-9.515829420076422,74.26869617308239 L-12.169741355132821,69.17177637125316" fill-opacity="0" stroke="black" stroke-width="1" />
<path d="M-9.023904350421022,-24.47553133427045 L-9.515829420076422,-25.731303826917603 L-12.169741355132821,-30.828223628746844" fill-opacity="0" stroke="black" stroke-width="1" />
<path d="M-9.023904350421022,24.475531334270443 L-9.515829420076422,25.73130382691761 L-12.169741355132821,30.82822362874684" fill-opacity="0" stroke="black" stroke-width="1" />
<path d="M-9.023904350421022,-75.52446866572956 L-9.515829420076422,-74.26869617308239 L-12.169741355132821,-69.17177637125316" fill-opacity="0" stroke="black" stroke-width="1" />
<path d="M-9.515829420076422,74.26869617308239 L-12.169741355132821,69.17177637125316 L-12.723942140281622,67.13722980794579" fill-opacity="0" stroke="black" stroke-width="1" />
<path d="M-9.515829420076422,-25.731303826917603 L-12.169741355132821,-30.828223628746844 L-12.723942140281622,-32.862770192054214" fill-opacity="0" stroke="black" stroke-width="1" />
<path d="M-9.515829420076422,25.73130382691761 L-12.169741355132821,30.82822362874684 L-12.723942140281622,32.862770192054214" fill-opacity="0" stroke="black" stroke-width="1" />
<path d="M-9.515829420076422,-74.26869617308239 L-12.169741355132821,-69.17177637125316 L-12.723942140281622,-67.13722980794579" fill-opacity="0" stroke="black" stroke-width="1" />
<path d="M-12.169741355132821,69.17177637125316 L-12.723942140281622,67.13722980794579 L0.0,54.0" fill-opacity="0" stroke="black" stroke-width="1" />
<path d="M-12.169741355132821,-30.828223628746844 L-12.723942140281622,-32.862770192054214 L0.0,-46.0" fill-opacity="0" stroke="black" stroke-width="1" />
<path d="M-12.169741355132821,30.82822362874684 L-12.723942140281622,32.862770192054214 L0.0,46.0" fill-opacity="0" stroke="black" stroke-width="1" />
<path d="M-12.169741355132821,-69.17177637125316 L-12.723942140281622,-67.13722980794579 L0.0,-54.0" fill-opacity="0" stroke="black" stroke-width="1" />
<path d="M-18.0,50.0 L-19.616366449747044,62.78208866538732 L-21.050453450854363,59.58348690081042" fill-opacity="0" stroke="black" stroke-width="1" />
<path d="M-18.0,-50.0 L-19.616366449747044,-37.21791133461268 L-21.050453450854363,-40.41651309918958" fill-opacity="0" stroke="black" stroke-width="1" />
<path d="M-18.0,50.0 L-19.616366449747044,37.21791133461268 L-21.050453450854363,40.41651309918958" fill-opacity="0" stroke="black" stroke-width="1" />
<path d="M-18.0,-50.0 L-19.616366449747044,-62.78208866538732 L-21.050453450854363,-59.58348690081042" fill-opacity="0" stroke="black" stroke-width="1" />
<path d="M-19.616366449747044,62.78208866538732 L-21.050453450854363,59.58348690081042 L-23.94744918415343,59.32943937602725" fill-opacity="0" stroke="black" stroke-width="1" />
<path d="M-19.616366449747044,-37.21791133461268 L-21.050453450854363,-40.41651309918958 L-23.94744918415343,-40.67056062397275" fill-opacity="0" stroke="black" stroke-width="1" />
<path d="M-19.616366449747044,37.21791133461268 L-21.050453450854363,40.41651309918958 L-23.94744918415343,40.67056062397275" fill-opacity="0" stroke="black" stroke-width="1" />
<path d="M-19.616366449747044,-62.78208866538732 L-21.050453450854363,-59.58348690081042 L-23.94744918415343,-59.32943937602725" fill-opacity="0" stroke="black" stroke-width="1" />
<path d="M-21.050453450854363,59.58348690081042 L-23.94744918415343,59.32943937602725 L-24.25715450843052,54.512234534819285" fill-opacity="0" stroke="black" stroke-width="1" />
<path d="M-21.050453450854363,-40.41651309918958 L-23.94744918415343,-40.67056062397275 L-24.25715450843052,-45.487765465180715" fill-opacity="0" stroke="black" stroke-width="1" />
<path d="M-21.050453450854363,40.41651309918958 L-23.94744918415343,40.67056062397275 L-24.25715450843052,45.487765465180715" fill-opacity="0" stroke="black" stroke-width="1" />
<path d="M-21.050453450854363,-59.58348690081042 L-23.94744918415343,-59.32943937602725 L-24.25715450843052,-54.512234534819285" fill-opacity="0" stroke="black" stroke-width="1" />
<path d="M-23.94744918415343,59.32943937602725 L-24.25715450843052,54.512234534819285 L-27.0,50.0" fill-opacity="0" stroke="black" stroke-width="1" />
<path d="M-23.94744918415343,-40.67056062397275 L-24.25715450843052,-45.487765465180715 L-27.0,-50.0" fill-opacity="0" stroke="black" stroke-width="1" />
<path d="M-23.94744918415343,40.67056062397275 L-24.25715450843052,45.487765465180715 L-27.0,50.0" fill-opacity="0" stroke="black" stroke-width="1" />
<path d="M-23.94744918415343,-59.32943937602725 L-24.25715450843052,-54.512234534819285 L-27.0,-50.0" fill-opacity="0" stroke="black" stroke-width="1" />
<path d="M-27.0,50.0 L-27.141342406416403,52.76792973896978 L-29.526648739761445,52.4757148582456" fill-opacity="0" stroke="black" stroke-width="1" />
<path d="M-27.0,-50.0 L-27.141342406416403,-47.23207026103022 L-29.526648739761445,-47.5242851417544" fill-opacity="0" stroke="black" stroke-width="1" />
<path d="M-27.0,50.0 L-27.141342406416403,47.23207026103022 L-29.526648739761445,47.5242851417544" fill-opacity="0" stroke="black" stroke-width="1" />
<path d="M-27.0,-50.0 L-27.141342406416403,-52.76792973896978 L-29.526648739761445,-52.4757148582456" fill-opacity="0" stroke="black" stroke-width="1" />
<path d="M-27.141342406416403,52.76792973896978 L-29.526648739761445,52.4757148582456 L-32.850106559978826,50.50544301233374" fill-opacity="0" stroke="black" stroke-width="1" />
<path d="M-27.141342406416403,-47.23207026103022 L-29.526648739761445,-47.5242851417544 L-32.850106559978826,-49.49455698766626" fill-opacity="0" stroke="black" stroke-width="1" />
<path d="M-27.141342406416403,47.23207026103022 L-29.526648739761445,47.5242851417544 L-32.850106559978826,49.49455698766626" fill-opacity="0" stroke="black" stroke-width="1" />
<path d="M-27.141342406416403,-52.76792973896978 L-29.526648739761445,-52.4757148582456 L-32.850106559978826,-50.50544301233374" fill-opacity="0" stroke="black" stroke-width="1" />
<path d="M-29.526648739761445,52.4757148582456 L-32.850106559978826,50.50544301233374 L-39.0,50.0" fill-opacity="0" stroke="black" stroke-width="1" />
<path d="M-29.526648739761445,-47.5242851417544 L-32.850106559978826,-49.49455698766626 L-39.0,-50.0" fill-opacity="0" stroke="black" stroke-width="1" />
<path d="M-29.526648739761445,47.5242851417544 L-32.850106559978826,49.49455698766626 L-39.0,50.0" fill-opacity="0" stroke="black" stroke-width="1" />
<path d="M-29.526648739761445,-52.4757148582456 L-32.850106559978826,-50.50544301233374 L-39.0,-50.0" fill-opacity="0" stroke="black" stroke-width="1" />
<path d="M-12.0,88.0 L-3.2984675500662197,89.48891980282619 L-2.843824872765752,94.89072380559463" fill-opacity="0" stroke="black" stroke-width="1" />
<path d="M-12.0,-12.0 L-3.2984675500662197,-10.511080197173806 L-2.843824872765752,-5.109276194405366" fill-opacity="0" stroke="black" stroke-width="1" />
<path d="M-12.0,12.0 L-3.2984675500662197,10.511080197173811 L-2.843824872765752,5.109276194405368" fill-opacity="0" stroke="black" stroke-width="1" />
<path d="M-12.0,-88.0 L-3.2984675500662197,-89.48891980282619 L-2.843824872765752,-94.89072380559463" fill-opacity="0" stroke="black" stroke-width="1" />
<path d="M-3.2984675500662197,89.48891980282619 L-2.843824872765752,94.89072380559463 L-1.522725300593708,95.02762702459711" fill-opacity="0" stroke="black" stroke-width="1" />
<path d="M-3.2984675500662197,-10.511080197173806 L-2.843824872765752,-5.109276194405366 L-1.522725300593708,-4.972372975402888" fill-opacity="0" stroke="black" stroke-width="1" />
<path d="M-3.2984675500662197,10.511080197173811 L-2.843824872765752,5.109276194405368 L-1.522725300593708,4.972372975402891" fill-opacity="0" stroke="black" stroke-width="1" />
<path d="M-3.2984675500662197,-89.48891980282619 L-2.843824872765752,-94.89072380559463 L-1.522725300593708,-95.02762702459711" fill-opacity="0" stroke="black" stroke-width="1" />
<path d="M-2.843824872765752,94.89072380559463 L-1.522725300593708,95.02762702459711 L-0.7541719767317594,96.783378164265" fill-opacity="0" stroke="black" stroke-width="1" />
<path d="M-2.843824872765752,-5.109276194405366 L-1.522725300593708,-4.972372975402888 L-0.7541719767317594,-3.2166218357350007" fill-opacity="0" stroke="black" stroke-width="1" />
<path d="M-2.843824872765752,5.109276194405368 L-1.522725300593708,4.972372975402891 L-0.7541719767317594,3.2166218357349976" fill-opacity="0" stroke="black" stroke-width="1" />
<path d="M-2.843824872765752,-94.89072380559463 L-1.522725300593708,-95.02762702459711 L-0.7541719767317594,-96.783378164265" fill-opacity="0" stroke="black" stroke-width="1" />
<path d="M-1.522725300593708,95.02762702459711 L-0.7541719767317594,96.783378164265 L-0.6427672570880918,96.79557386114081" fill-opacity="0" stroke="black" stroke-width="1" />
<path d="M-1.522725300593708,-4.972372975402888 L-0.7541719767317594,-3.2166218357350007 L-0.6427672570880918,-3.20442613885919" fill-opacity="0" stroke="black" stroke-width="1" />
<path d="M-1.522725300593708,4.972372975402891 L-0.7541719767317594,3.2166218357349976 L-0.6427672570880918,3.2044261388591906" fill-opacity="0" stroke="black" stroke-width="1" />
<path d="M-1.522725300593708,-95.02762702459711 L-0.7541719767317594,-96.783378164265 L-0.6427672570880918,-96.79557386114081" fill-opacity="0" stroke="black" stroke-width="1" />
<path d="M-0.7541719767317594,96.783378164265 L-0.6427672570880918,96.79557386114081 L-3.0,97.0" fill-opacity="0" stroke="black" stroke-width="1" />
<path d="M-0.7541719767317594,-3.2166218357350007 L-0.6427672570880918,-3.20442613885919 L-3.0,-3.0" fill-opacity="0" stroke="black" stroke-width="1" />
<path d="M-0.7541719767317594,3.2166218357349976 L-0.6427672570880918,3.2044261388591906 L-3.0,3.0" fill-opacity="0" stroke="black" stroke-width="1" />
<path d="M-0.7541719767317594,-96.783378164265 L-0.6427672570880918,-96.79557386114081 L-3.0,-97.0" fill-opacity="0" stroke="black" stroke-width="1" />
<path d="M-86.0,-0.0 L-79.47087975787893,-3.632677194765005 L-79.14567561312896,-4.192095426414095" fill-opacity="0" stroke="black" stroke-width="1" />
<path d="M-86.0,-0.0 L-79.47087975787893,3.632677194765005 L-79.14567561312896,4.192095426414095" fill-opacity="0" stroke="black" stroke-width="1" />
<path d="M-79.47087975787893,-3.632677194765005 L-79.14567561312896,-4.192095426414095 L-75.92131565434701,-8.447169622903933" fill-opacity="0" stroke="black" stroke-width="1" />
<path d="M-79.47087975787893,3.632677194765005 L-79.14567561312896,4.192095426414095 L-75.92131565434701,8.447169622903933" fill-opacity="0" stroke="black" stroke-width="1" />
<path d="M-79.14567561312896,-4.192095426414095 L-75.92131565434701,-8.447169622903933 L-75.52446866572956,-9.023904350421022" fill-opacity="0" stroke="black" stroke-width="1" />
<path d="M-79.14567561312896,4.192095426414095 L-75.92131565434701,8.447169622903933 L-75.52446866572956,9.023904350421022" fill-opacity="0" stroke="black" stroke-width="1" />
<path d="M-75.92131565434701,-8.447169622903933 L-75.52446866572956,-9.023904350421022 L-74.26869617308239,-9.515829420076422" fill-opacity="0" stroke="black" stroke-width="1" />
<path d="M-75.92131565434701,8.447169622903933 L-75.52446866572956,9.023904350421022 L-74.26869617308239,9.515829420076422" fill-opacity="0" stroke="black" stroke-width="1" />
<path d="M-75.52446866572956,-9.023904350421022 L-74.26869617308239,-9.515829420076422 L-69.17177637125316,-12.169741355132821" fill-opacity="0" stroke="black" stroke-width="1" />
<path d="M-75.52446866572956,9.023904350421022 L-74.26869617308239,9.515829420076422 L-69.17177637125316,12.169741355132821" fill-opacity="0" stroke="black" stroke-width="1" />
<path d="M-74.26869617308239,-9.515829420076422 L-69.17177637125316,-12.169741355132821 L-67.13722980794579,-12.723942140281622" fill-opacity="0" stroke="black" stroke-width="1" />
<path d="M-74.26869617308239,9.515829420076422 L-69.17177637125316,12.169741355132821 L-67.13722980794579,12.723942140281622" fill-opacity="0" stroke="black" stroke-width="1" />
<path d="M-69.17177637125316,-12.169741355132821 L-67.13722980794579,-12.723942140281622 L-54.0,-0.0" fill-opacity="0" stroke="black" stroke-width="1" />
<path d="M-69.17177637125316,12.169741355132821 L-67.13722980794579,12.723942140281622 L-54.0,-0.0" fill-opacity="0" stroke="black" stroke-width="1" />
<path d="M-50.0,-50.0 L-54.0,-46.0 L-59.0,-41.0" fill-opacity="0" stroke="black" stroke-width="1" />
<path d="M-50.0,50.0 L-54.0,46.0 L-59.0,41.0" fill-opacity="0" stroke="black" stroke-width="1" />
<path d="M-50.0,-18.0 L-62.78208866538732,-19.616366449747044 L-59.58348690081042,-21.050453450854363" fill-opacity="0" stroke="black" stroke-width="1" />
<path d="M-50.0,18.0 L-62.78208866538732,19.616366449747044 L-59.58348690081042,21.050453450854363" fill-opacity="0" stroke="black" stroke-width="1" />
<path d="M-62.78208866538732,-19.616366449747044 L-59.58348690081042,-21.050453450854363 L-59.32943937602725,-23.94744918415343" fill-opacity="0" stroke="black" stroke-width="1" />
<path d="M-62.78208866538732,19.616366449747044 L-59.58348690081042,21.050453450854363 L-59.32943937602725,23.94744918415343" fill-opacity="0" stroke="black" stroke-width="1" />
<path d="M-59.58348690081042,-21.050453450854363 L-59.32943937602725,-23.94744918415343 L-54.512234534819285,-24.25715450843052" fill-opacity="0" stroke="black" stroke-width="1" />
<path d="M-59.58348690081042,21.050453450854363 L-59.32943937602725,23.94744918415343 L-54.512234534819285,24.25715450843052" fill-opacity="0" stroke="black" stroke-width="1" />
<path d="M-59.32943937602725,-23.94744918415343 L-54.512234534819285,-24.25715450843052 L-50.0,-27.0" fill-opacity="0" stroke="black" stroke-width="1" />
<path d="M-59.32943937602725,23.94744918415343 L-54.512234534819285,24.25715450843052 L-50.0,27.0" fill-opacity="0" stroke="black" stroke-width="1" />
<path d="M-50.0,-27.0 L-52.76792973896978,-27.141342406416403 L-52.4757148582456,-29.526648739761445" fill-opacity="0" stroke="black" stroke-width="1" />
<path d="M-50.0,27.0 L-52.76792973896978,27.141342406416403 L-52.4757148582456,29.526648739761445" fill-opacity="0" stroke="black" stroke-width="1" />
<path d="M-52.76792973896978,-27.141342406416403 L-52.4757148582456,-29.526648739761445 L-50.50544301233374,-32.850106559978826" fill-opacity="0" stroke="black" stroke-width="1" />
<path d="M-52.76792973896978,27.141342406416403 L-52.4757148582456,29.526648739761445 L-50.50544301233374,32.850106559978826" fill-opacity="0" stroke="black" stroke-width="1" />
<path d="M-52.4757148582456,-29.526648739761445 L-50.50544301233374,-32.850106559978826 L-50.0,-39.0" fill-opacity="0" stroke="black" stroke-width="1" />
<path d="M-52.4757148582456,29.526648739761445 L-50.50544301233374,32.850106559978826 L-50.0,39.0" fill-opacity="0" stroke="black" stroke-width="1" />
<path d="M-54.0,-46.0 L-59.0,-41.0 L-88.0,-12.0" fill-opacity="0" stroke="black" stroke-width="1" />
<path d="M-54.0,46.0 L-59.0,41.0 L-88.0,12.0" fill-opacity="0" stroke="black" stroke-width="1" />
<path d="M-88.0,-12.0 L-89.48891980282619,-3.2984675500662197 L-94.89072380559463,-2.843824872765752" fill-opacity="0" stroke="black" stroke-width="1" />
<path d="M-88.0,12.0 L-89.48891980282619,3.2984675500662197 L-94.89072380559463,2.843824872765752" fill-opacity="0" stroke="black" stroke-width="1" />
<path d="M-89.48891980282619,-3.2984675500662197 L-94.89072380559463,-2.843824872765752 L-95.02762702459711,-1.522725300593708" fill-opacity="0" stroke="black" stroke-width="1" />
<path d="M-89.48891980282619,3.2984675500662197 L-94.89072380559463,2.843824872765752 L-95.02762702459711,1.522725300593708" fill-opacity="0" stroke="black" stroke-width="1" />
<path d="M-94.89072380559463,-2.843824872765752 L-95.02762702459711,-1.522725300593708 L-96.783378164265,-0.7541719767317594" fill-opacity="0" stroke="black" stroke-width="1" />
<path d="M-94.89072380559463,2.843824872765752 L-95.02762702459711,1.522725300593708 L-96.783378164265,0.7541719767317594" fill-opacity="0" stroke="black" stroke-width="1" />
<path d="M-95.02762702459711,-1.522725300593708 L-96.783378164265,-0.7541719767317594 L-96.79557386114081,-0.6427672570880918" fill-opacity="0" stroke="black" stroke-width="1" />
<path d="M-95.02762702459711,1.522725300593708 L-96.783378164265,0.7541719767317594 L-96.79557386114081,0.6427672570880918" fill-opacity="0" stroke="black" stroke-width="1" />
<path d="M-96.783378164265,-0.7541719767317594 L-96.79557386114081,-0.6427672570880918 L-97.0,-3.0" fill-opacity="0" stroke="black" stroke-width="1" />
<path d="M-96.783378164265,0.7541719767317594 L-96.79557386114081,0.6427672570880918 L-97.0,3.0" fill-opacity="0" stroke="black" stroke-width="1" />
<path d="M-96.79557386114081,-0.6427672570880918 L-97.0,-3.0 L-100.0,-0.0" fill-opacity="0" stroke="black" stroke-width="1" />
<path d="M-96.79557386114081,0.6427672570880918 L-97.0,3.0 L-100.0,-0.0" fill-opacity="0" stroke="black" stroke-width="1" />
<circle cx="0" cy="-97" r="8" stroke-dasharray="39.653880605311166 10.611601852125524" stroke-dashoffset="-17.59291886010284" stroke="black" stroke-width="1" fill="white" fill-opacity="1" />
<circle cx="0" cy="-97" r="4" stroke="black" stroke-width="1" fill="white" fill-opacity="1" />
</svg>