<?xml version="1.0" encoding="UTF-8"?>
<svg xmlns="http://www.w3.org/2000/svg" xmlns:xlink="http://www.w3.org/1999/xlink"
     width="250" height="250" viewBox="-125.0 -125.0 250 250">
<defs>
</defs>
<path d="M21.0,79.0 L12.0,88.0 L11.0,89.0" fill="yellow" fill-opacity="0.6" stroke="black" stroke-width="1" />
<path d="M21.0,-79.0 L12.0,-88.0 L11.0,-89.0" fill="yellow" fill-opacity="0.6" stroke="black" stroke-width="1" />
<path d="M12.0,-0.0 L12.782113583128563,-2.7863769669671785 L17.675246181123445,-4.870401729174093" fill="brown" fill-opacity="0.6" stroke="black" stroke-width="1" />
<path d="M12.0,-0.0 L12.782113583128563,2.7863769669671785 L17.675246181123445,4.870401729174093" fill="yellow" fill-opacity="0.6" stroke="black" stroke-width="1" />
<path d="M12.782113583128563,-2.7863769669671785 L17.675246181123445,-4.870401729174093 L23.0,-0.0" fill="yellow" fill-opacity="0.6" stroke="black" stroke-width="1" />
<path d="M12.782113583128563,2.7863769669671785 L17.675246181123445,4.870401729174093 L23.0,-0.0" fill="red" fill-opacity="0.6" stroke="black" stroke-width="1" />
<path d="M23.0,-0.0 L24.062884519220226,-6.501267045966695 L25.660472265865828,-13.094877695783847" fill="red" fill-opacity="0.6" stroke="black" stroke-width="1" />
<path d="M23.0,-0.0 L24.062884519220226,6.501267045966695 L25.660472265865828,13.094877695783847" fill="blue" fill-opacity="0.6" stroke="black" stroke-width="1" />
<path d="M24.062884519220226,-6.501267045966695 L25.660472265865828,-13.094877695783847 L27.184839821214723,-13.182280554673426" fill="yellow" fill-opacity="0.6" stroke="black" stroke-width="1" />
<path d="M24.062884519220226,6.501267045966695 L25.660472265865828,13.094877695783847 L27.184839821214723,13.182280554673426" fill="purple" fill-opacity="0.6" stroke="black" stroke-width="1" />
<path d="M25.660472265865828,-13.094877695783847 L27.184839821214723,-13.182280554673426 L27.891588745766953,-16.834930583394726" fill="blue" fill-opacity="0.6" stroke="black" stroke-width="1" />
<path d="M25.660472265865828,13.094877695783847 L27.184839821214723,13.182280554673426 L27.891588745766953,16.834930583394726" fill="brown" fill-opacity="0.6" stroke="black" stroke-width="1" />
<path d="M27.184839821214723,-13.182280554673426 L27.891588745766953,-16.834930583394726 L28.471615599419493,-18.314963559730657" fill="green" fill-opacity="0.6" stroke="black" stroke-width="1" />
<path d="M27.184839821214723,13.182280554673426 L27.891588745766953,16.834930583394726 L28.471615599419493,18.314963559730657" fill="black" fill-opacity="0.6" stroke="black" stroke-width="1" />
<path d="M27.891588745766953,-16.834930583394726 L28.471615599419493,-18.314963559730657 L44.0,-0.0" fill="blue" fill-opacity="0.6" stroke="black" stroke-width="1" />
<path d="M27.891588745766953,16.834930583394726 L28.471615599419493,18.314963559730657 L44.0,-0.0" fill="red" fill-opacity="0.6" stroke="black" stroke-width="1" />
<path d="M50.0,-5.0 L41.322224014618314,-23.257876579341456 L44.47723237685244,-24.30545279213226" fill="green" fill-opacity="0.6" stroke="black" stroke-width="1" />
<path d="M50.0,5.0 L41.322224014618314,23.257876579341456 L44.47723237685244,24.30545279213226" fill="brown" fill-opacity="0.6" stroke="black" stroke-width="1" />
<path d="M41.322224014618314,-23.257876579341456 L44.47723237685244,-24.30545279213226 L46.05902358647088,-25.688394118568038" fill="brown" fill-opacity="0.6" stroke="black" stroke-width="1" />
<path d="M41.322224014618314,23.257876579341456 L44.47723237685244,24.30545279213226 L46.05902358647088,25.688394118568038" fill="orange" fill-opacity="0.6" stroke="black" stroke-width="1" />
<path d="M44.47723237685244,-24.30545279213226 L46.05902358647088,-25.688394118568038 L50.0,-26.0" fill="yellow" fill-opacity="0.6" stroke="black" stroke-width="1" />
<path d="M44.47723237685244,24.30545279213226 L46.05902358647088,25.688394118568038 L50.0,26.0" fill="yellow" fill-opacity="0.6" stroke="black" stroke-width="1" />
<path d="M50.0,-49.0 L30.149281775270218,-22.667774893174066 L21.0,-21.0" fill="yellow" fill-opacity="0.6" stroke="black" stroke-width="1" />
<path d="M50.0,49.0 L30.149281775270218,22.667774893174066 L21.0,21.0" fill="green" fill-opacity="0.6" stroke="black" stroke-width="1" />
<path d="M22.667774893174066,69.85071822472977 L21.0,79.0 L12.0,88.0" fill="black" fill-opacity="0.6" stroke="black" stroke-width="1" />
<path d="M22.667774893174066,-69.85071822472977 L21.0,-79.0 L12.0,-88.0" fill="blue" fill-opacity="0.6" stroke="black" stroke-width="1" />
<path d="M12.0,88.0 L11.0,89.0 L2.3535967966615736,90.88250517619184" fill="purple" fill-opacity="0.6" stroke="black" stroke-width="1" />
<path d="M12.0,-88.0 L11.0,-89.0 L2.3535967966615736,-90.88250517619184" fill="blue" fill-opacity="0.6" stroke="black" stroke-width="1" />
<path d="M11.0,-11.0 L9.117494823808164,-2.3535967966615736 L9.068887220186461,-1.1670989779036633" fill="red" fill-opacity="0.6" stroke="black" stroke-width="1" />
<path d="M11.0,11.0 L9.117494823808164,2.3535967966615736 L9.068887220186461,1.1670989779036633" fill="yellow" fill-opacity="0.6" stroke="black" stroke-width="1" />
<path d="M9.117494823808164,-2.3535967966615736 L9.068887220186461,-1.1670989779036633 L1.0,-1.0" fill="brown" fill-opacity="0.6" stroke="black" stroke-width="1" />
<path d="M9.117494823808164,2.3535967966615736 L9.068887220186461,1.1670989779036633 L1.0,1.0" fill="purple" fill-opacity="0.6" stroke="black" stroke-width="1" />
<path d="M1.1670989779036633,90.93111277981353 L1.0,99.0 L0.0,100.0" fill="pink" fill-opacity="0.6" stroke="black" stroke-width="1" />
<path d="M1.1670989779036633,-90.93111277981353 L1.0,-99.0 L0.0,-100.0" fill="green" fill-opacity="0.6" stroke="black" stroke-width="1" />
<path d="M-21.0,79.0 L-12.0,88.0 L-11.0,89.0" fill="yellow" fill-opacity="0.6" stroke="black" stroke-width="1" />
<path d="M-21.0,-79.0 L-12.0,-88.0 L-11.0,-89.0" fill="purple" fill-opacity="0.6" stroke="black" stroke-width="1" />
<path d="M-12.0,-0.0 L-12.782113583128563,-2.7863769669671785 L-17.675246181123445,-4.870401729174093" fill="brown" fill-opacity="0.6" stroke="black" stroke-width="1" />
<path d="M-12.0,-0.0 L-12.782113583128563,2.7863769669671785 L-17.675246181123445,4.870401729174093" fill="brown" fill-opacity="0.6" stroke="black" stroke-width="1" />
<path d="M-12.782113583128563,-2.7863769669671785 L-17.675246181123445,-4.870401729174093 L-23.0,-0.0" fill="black" fill-opacity="0.6" stroke="black" stroke-width="1" />
<path d="M-12.782113583128563,2.7863769669671785 L-17.675246181123445,4.870401729174093 L-23.0,-0.0" fill="brown" fill-opacity="0.6" stroke="black" stroke-width="1" />
<path d="M-23.0,-0.0 L-24.062884519220226,-6.501267045966695 L-25.660472265865828,-13.094877695783847" fill="orange" fill-opacity="0.6" stroke="black" stroke-width="1" />
<path d="M-23.0,-0.0 L-24.062884519220226,6.501267045966695 L-25.660472265865828,13.094877695783847" fill="purple" fill-opacity="0.6" stroke="black" stroke-width="1" />
<path d="M-24.062884519220226,-6.501267045966695 L-25.660472265865828,-13.094877695783847 L-27.184839821214723,-13.182280554673426" fill="blue" fill-opacity="0.6" stroke="black" stroke-width="1" />
<path d="M-24.062884519220226,6.501267045966695 L-25.660472265865828,13.094877695783847 L-27.184839821214723,13.182280554673426" fill="blue" fill-opacity="0.6" stroke="black" stroke-width="1" />
<path d="M-25.660472265865828,-13.094877695783847 L-27.184839821214723,-13.182280554673426 L-27.891588745766953,-16.834930583394726" fill="pink" fill-opacity="0.6" stroke="black" stroke-width="1" />
<path d="M-25.660472265865828,13.094877695783847 L-27.184839821214723,13.182280554673426 L-27.891588745766953,16.834930583394726" fill="green" fill-opacity="0.6" stroke="black" stroke-width="1" />
<path d="M-27.184839821214723,-13.182280554673426 L-27.891588745766953,-16.834930583394726 L-28.471615599419493,-18.314963559730657" fill="pink" fill-opacity="0.6" stroke="black" stroke-width="1" />
<path d="M-27.184839821214723,13.182280554673426 L-27.891588745766953,16.834930583394726 L-28.471615599419493,18.314963559730657" fill="yellow" fill-opacity="0.6" stroke="black" stroke-width="1" />
<path d="M-27.891588745766953,-16.834930583394726 L-28.471615599419493,-18.314963559730657 L-44.0,-0.0" fill="black" fill-opacity="0.6" stroke="black" stroke-width="1" />
<path d="M-27.891588745766953,16.834930583394726 L-28.471615599419493,18.314963559730657 L-44.0,-0.0" fill="orange" fill-opacity="0.6" stroke="black" stroke-width="1" />
<path d="M-50.0,-5.0 L-41.322224014618314,-23.257876579341456 L-44.47723237685244,-24.30545279213226" fill="brown" fill-opacity="0.6" stroke="black" stroke-width="1" />
<path d="M-50.0,5.0 L-41.322224014618314,23.257876579341456 L-44.47723237685244,24.30545279213226" fill="black" fill-opacity="0.6" stroke="black" stroke-width="1" />
<path d="M-41.322224014618314,-23.257876579341456 L-44.47723237685244,-24.30545279213226 L-46.05902358647088,-25.688394118568038" fill="red" fill-opacity="0.6" stroke="black" stroke-width="1" />
<path d="M-41.322224014618314,23.257876579341456 L-44.47723237685244,24.30545279213226 L-46.05902358647088,25.688394118568038" fill="black" fill-opacity="0.6" stroke="black" stroke-width="1" />
<path d="M-44.47723237685244,-24.30545279213226 L-46.05902358647088,-25.688394118568038 L-50.0,-26.0" fill="blue" fill-opacity="0.6" stroke="black" stroke-width="1" />
<path d="M-44.47723237685244,24.30545279213226 L-46.05902358647088,25.688394118568038 L-50.0,26.0" fill="black" fill-opacity="0.6" stroke="black" stroke-width="1" />
<path d="M-50.0,-49.0 L-30.149281775270218,-22.667774893174066 L-21.0,-21.0" fill="blue" fill-opacity="0.6" stroke="black" stroke-width="1" />
<path d="M-50.0,49.0 L-30.149281775270218,22.667774893174066 L-21.0,21.0" fill="yellow" fill-opacity="0.6" stroke="black" stroke-width="1" />
<path d="M-22.667774893174066,69.85071822472977 L-21.0,79.0 L-12.0,88.0" fill="orange" fill-opacity="0.6" stroke="black" stroke-width="1" />
<path d="M-22.667774893174066,-69.85071822472977 L-21.0,-79.0 L-12.0,-88.0" fill="blue" fill-opacity="0.6" stroke="black" stroke-width="1" />
<path d="M-12.0,88.0 L-11.0,89.0 L-2.3535967966615736,90.88250517619184" fill="brown" fill-opacity="0.6" stroke="black" stroke-width="1" />
<path d="M-12.0,-88.0 L-11.0,-89.0 L-2.3535967966615736,-90.88250517619184" fill="brown" fill-opacity="0.6" stroke="black" stroke-width="1" />
<path d="M-11.0,-11.0 L-9.117494823808164,-2.3535967966615736 L-9.068887220186461,-1.1670989779036633" fill="blue" fill-opacity="0.6" stroke="black" stroke-width="1" />
<path d="M-11.0,11.0 L-9.117494823808164,2.3535967966615736 L-9.068887220186461,1.1670989779036633" fill="blue" fill-opacity="0.6" stroke="black" stroke-width="1" />
<path d="M-9.117494823808164,-2.3535967966615736 L-9.068887220186461,-1.1670989779036633 L-1.0,-1.0" fill="brown" fill-opacity="0.6" stroke="black" stroke-width="1" />
<path d="M-9.117494823808164,2.3535967966615736 L-9.068887220186461,1.1670989779036633 L-1.0,1.0" fill="purple" fill-opacity="0.6" stroke="black" stroke-width="1" />
<path d="M-1.1670989779036633,90.93111277981353 L-1.0,99.0 L0.0,100.0" fill="yellow" fill-opacity="0.6" stroke="black" stroke-width="1" />
<path d="M-1.1670989779036633,-90.93111277981353 L-1.0,-99.0 L0.0,-100.0" fill="blue" fill-opacity="0.6" stroke="black" stroke-width="1" />
<path d="M79.0,21.0 L88.0,12.0 L89.0,11.0" fill="black" fill-opacity="0.6" stroke="black" stroke-width="1" />
<path d="M79.0,-21.0 L88.0,-12.0 L89.0,-11.0" fill="black" fill-opacity="0.6" stroke="black" stroke-width="1" />
<path d="M88.0,-0.0 L87.21788641687144,2.7863769669671785 L82.32475381887656,4.870401729174093" fill="brown" fill-opacity="0.6" stroke="black" stroke-width="1" />
<path d="M88.0,-0.0 L87.21788641687144,-2.7863769669671785 L82.32475381887656,-4.870401729174093" fill="pink" fill-opacity="0.6" stroke="black" stroke-width="1" />
<path d="M87.21788641687144,2.7863769669671785 L82.32475381887656,4.870401729174093 L77.0,-0.0" fill="brown" fill-opacity="0.6" stroke="black" stroke-width="1" />
<path d="M87.21788641687144,-2.7863769669671785 L82.32475381887656,-4.870401729174093 L77.0,-0.0" fill="blue" fill-opacity="0.6" stroke="black" stroke-width="1" />
<path d="M77.0,-0.0 L75.93711548077977,6.501267045966695 L74.33952773413418,13.094877695783847" fill="green" fill-opacity="0.6" stroke="black" stroke-width="1" />
<path d="M77.0,-0.0 L75.93711548077977,-6.501267045966695 L74.33952773413418,-13.094877695783847" fill="black" fill-opacity="0.6" stroke="black" stroke-width="1" />
<path d="M75.93711548077977,6.501267045966695 L74.33952773413418,13.094877695783847 L72.81516017878528,13.182280554673426" fill="black" fill-opacity="0.6" stroke="black" stroke-width="1" />
<path d="M75.93711548077977,-6.501267045966695 L74.33952773413418,-13.094877695783847 L72.81516017878528,-13.182280554673426" fill="black" fill-opacity="0.6" stroke="black" stroke-width="1" />
<path d="M74.33952773413418,13.094877695783847 L72.81516017878528,13.182280554673426 L72.10841125423305,16.834930583394726" fill="black" fill-opacity="0.6" stroke="black" stroke-width="1" />
<path d="M74.33952773413418,-13.094877695783847 L72.81516017878528,-13.182280554673426 L72.10841125423305,-16.834930583394726" fill="brown" fill-opacity="0.6" stroke="black" stroke-width="1" />
<path d="M72.81516017878528,13.182280554673426 L72.10841125423305,16.834930583394726 L71.5283844005805,18.314963559730657" fill="green" fill-opacity="0.6" stroke="black" stroke-width="1" />
<path d="M72.81516017878528,-13.182280554673426 L72.10841125423305,-16.834930583394726 L71.5283844005805,-18.314963559730657" fill="blue" fill-opacity="0.6" stroke="black" stroke-width="1" />
<path d="M72.10841125423305,16.834930583394726 L71.5283844005805,18.314963559730657 L56.0,-0.0" fill="pink" fill-opacity="0.6" stroke="black" stroke-width="1" />
<path d="M72.10841125423305,-16.834930583394726 L71.5283844005805,-18.314963559730657 L56.0,-0.0" fill="red" fill-opacity="0.6" stroke="black" stroke-width="1" />
<path d="M50.0,5.0 L58.677775985381686,23.257876579341456 L55.52276762314756,24.30545279213226" fill="green" fill-opacity="0.6" stroke="black" stroke-width="1" />
<path d="M50.0,-5.0 L58.677775985381686,-23.257876579341456 L55.52276762314756,-24.30545279213226" fill="green" fill-opacity="0.6" stroke="black" stroke-width="1" />
<path d="M58.677775985381686,23.257876579341456 L55.52276762314756,24.30545279213226 L53.94097641352912,25.688394118568038" fill="brown" fill-opacity="0.6" stroke="black" stroke-width="1" />
<path d="M58.677775985381686,-23.257876579341456 L55.52276762314756,-24.30545279213226 L53.94097641352912,-25.688394118568038" fill="purple" fill-opacity="0.6" stroke="black" stroke-width="1" />
<path d="M55.52276762314756,24.30545279213226 L53.94097641352912,25.688394118568038 L50.0,26.0" fill="red" fill-opacity="0.6" stroke="black" stroke-width="1" />
<path d="M55.52276762314756,-24.30545279213226 L53.94097641352912,-25.688394118568038 L50.0,-26.0" fill="green" fill-opacity="0.6" stroke="black" stroke-width="1" />
<path d="M50.0,49.0 L69.85071822472977,22.667774893174066 L79.0,21.0" fill="black" fill-opacity="0.6" stroke="black" stroke-width="1" />
<path d="M50.0,-49.0 L69.85071822472977,-22.667774893174066 L79.0,-21.0" fill="purple" fill-opacity="0.6" stroke="black" stroke-width="1" />
<path d="M69.85071822472977,22.667774893174066 L79.0,21.0 L88.0,12.0" fill="brown" fill-opacity="0.6" stroke="black" stroke-width="1" />
<path d="M69.85071822472977,-22.667774893174066 L79.0,-21.0 L88.0,-12.0" fill="orange" fill-opacity="0.6" stroke="black" stroke-width="1" />
<path d="M88.0,12.0 L89.0,11.0 L90.88250517619184,2.3535967966615736" fill="purple" fill-opacity="0.6" stroke="black" stroke-width="1" />
<path d="M88.0,-12.0 L89.0,-11.0 L90.88250517619184,-2.3535967966615736" fill="red" fill-opacity="0.6" stroke="black" stroke-width="1" />
<path d="M89.0,11.0 L90.88250517619184,2.3535967966615736 L90.93111277981353,1.1670989779036633" fill="brown" fill-opacity="0.6" stroke="black" stroke-width="1" />
<path d="M89.0,-11.0 L90.88250517619184,-2.3535967966615736 L90.93111277981353,-1.1670989779036633" fill="blue" fill-opacity="0.6" stroke="black" stroke-width="1" />
<path d="M90.88250517619184,2.3535967966615736 L90.93111277981353,1.1670989779036633 L99.0,1.0" fill="purple" fill-opacity="0.6" stroke="black" stroke-width="1" />
<path d="M90.88250517619184,-2.3535967966615736 L90.93111277981353,-1.1670989779036633 L99.0,-1.0" fill="purple" fill-opacity="0.6" stroke="black" stroke-width="1" />
<path d="M90.93111277981353,1.1670989779036633 L99.0,1.0 L100.0,-0.0" fill="black" fill-opacity="0.6" stroke="black" stroke-width="1" />
<path d="M90.93111277981353,-1.1670989779036633 L99.0,-1.0 L100.0,-0.0" fill="red" fill-opacity="0.6" stroke="black" stroke-width="1" />
<path d="M0.0,-12.0 L2.7863769669671785,-12.782113583128563 L4.870401729174093,-17.675246181123445" fill="orange" fill-opacity="0.6" stroke="black" stroke-width="1" />
<path d="M0.0,12.0 L2.7863769669671785,12.782113583128563 L4.870401729174093,17.675246181123445" fill="red" fill-opacity="0.6" stroke="black" stroke-width="1" />
<path d="M0.0,88.0 L2.7863769669671785,87.21788641687144 L4.870401729174093,82.32475381887656" fill="green" fill-opacity="0.6" stroke="black" stroke-width="1" />
<path d="M0.0,-88.0 L2.7863769669671785,-87.21788641687144 L4.870401729174093,-82.32475381887656" fill="black" fill-opacity="0.6" stroke="black" stroke-width="1" />
<path d="M2.7863769669671785,-12.782113583128563 L4.870401729174093,-17.675246181123445 L0.0,-23.0" fill="yellow" fill-opacity="0.6" stroke="black" stroke-width="1" />
<path d="M2.7863769669671785,12.782113583128563 L4.870401729174093,17.675246181123445 L0.0,23.0" fill="blue" fill-opacity="0.6" stroke="black" stroke-width="1" />
<path d="M2.7863769669671785,87.21788641687144 L4.870401729174093,82.32475381887656 L0.0,77.0" fill="black" fill-opacity="0.6" stroke="black" stroke-width="1" />
<path d="M2.7863769669671785,-87.21788641687144 L4.870401729174093,-82.32475381887656 L0.0,-77.0" fill="blue" fill-opacity="0.6" stroke="black" stroke-width="1" />
<path d="M0.0,-23.0 L6.501267045966695,-24.062884519220226 L13.094877695783847,-25.660472265865828" fill="yellow" fill-opacity="0.6" stroke="black" stroke-width="1" />
<path d="M0.0,23.0 L6.501267045966695,24.062884519220226 L13.094877695783847,25.660472265865828" fill="orange" fill-opacity="0.6" stroke="black" stroke-width="1" />
<path d="M0.0,77.0 L6.501267045966695,75.93711548077977 L13.094877695783847,74.33952773413418" fill="orange" fill-opacity="0.6" stroke="black" stroke-width="1" />
<path d="M0.0,-77.0 L6.501267045966695,-75.93711548077977 L13.094877695783847,-74.33952773413418" fill="green" fill-opacity="0.6" stroke="black" stroke-width="1" />
<path d="M6.501267045966695,-24.062884519220226 L13.094877695783847,-25.660472265865828 L13.182280554673426,-27.184839821214723" fill="red" fill-opacity="0.6" stroke="black" stroke-width="1" />
<path d="M6.501267045966695,24.062884519220226 L13.094877695783847,25.660472265865828 L13.182280554673426,27.184839821214723" fill="blue" fill-opacity="0.6" stroke="black" stroke-width="1" />
<path d="M6.501267045966695,75.93711548077977 L13.094877695783847,74.33952773413418 L13.182280554673426,72.81516017878528" fill="black" fill-opacity="0.6" stroke="black" stroke-width="1" />
<path d="M6.501267045966695,-75.93711548077977 L13.094877695783847,-74.33952773413418 L13.182280554673426,-72.81516017878528" fill="purple" fill-opacity="0.6" stroke="black" stroke-width="1" />
<path d="M13.094877695783847,-25.660472265865828 L13.182280554673426,-27.184839821214723 L16.834930583394726,-27.891588745766953" fill="purple" fill-opacity="0.6" stroke="black" stroke-width="1" />
<path d="M13.094877695783847,25.660472265865828 L13.182280554673426,27.184839821214723 L16.834930583394726,27.891588745766953" fill="yellow" fill-opacity="0.6" stroke="black" stroke-width="1" />
<path d="M13.094877695783847,74.33952773413418 L13.182280554673426,72.81516017878528 L16.834930583394726,72.10841125423305" fill="green" fill-opacity="0.6" stroke="black" stroke-width="1" />
<path d="M13.094877695783847,-74.33952773413418 L13.182280554673426,-72.81516017878528 L16.834930583394726,-72.10841125423305" fill="black" fill-opacity="0.6" stroke="black" stroke-width="1" />
<path d="M13.182280554673426,-27.184839821214723 L16.834930583394726,-27.891588745766953 L18.314963559730657,-28.471615599419493" fill="brown" fill-opacity="0.6" stroke="black" stroke-width="1" />
<path d="M13.182280554673426,27.184839821214723 L16.834930583394726,27.891588745766953 L18.314963559730657,28.471615599419493" fill="blue" fill-opacity="0.6" stroke="black" stroke-width="1" />
<path d="M13.182280554673426,72.81516017878528 L16.834930583394726,72.10841125423305 L18.314963559730657,71.5283844005805" fill="black" fill-opacity="0.6" stroke="black" stroke-width="1" />
<path d="M13.182280554673426,-72.81516017878528 L16.834930583394726,-72.10841125423305 L18.314963559730657,-71.5283844005805" fill="pink" fill-opacity="0.6" stroke="black" stroke-width="1" />
<path d="M16.834930583394726,-27.891588745766953 L18.314963559730657,-28.471615599419493 L0.0,-44.0" fill="blue" fill-opacity="0.6" stroke="black" stroke-width="1" />
<path d="M16.834930583394726,27.891588745766953 L18.314963559730657,28.471615599419493 L0.0,44.0" fill="red" fill-opacity="0.6" stroke="black" stroke-width="1" />
<path d="M16.834930583394726,72.10841125423305 L18.314963559730657,71.5283844005805 L0.0,56.0" fill="black" fill-opacity="0.6" stroke="black" stroke-width="1" />
<path d="M16.834930583394726,-72.10841125423305 L18.314963559730657,-71.5283844005805 L0.0,-56.0" fill="black" fill-opacity="0.6" stroke="black" stroke-width="1" />
<path d="M5.0,-50.0 L23.257876579341456,-41.322224014618314 L24.30545279213226,-44.47723237685244" fill="orange" fill-opacity="0.6" stroke="black" stroke-width="1" />
<path d="M5.0,50.0 L23.257876579341456,41.322224014618314 L24.30545279213226,44.47723237685244" fill="brown" fill-opacity="0.6" stroke="black" stroke-width="1" />
<path d="M5.0,50.0 L23.257876579341456,58.677775985381686 L24.30545279213226,55.52276762314756" fill="brown" fill-opacity="0.6" stroke="black" stroke-width="1" />
<path d="M5.0,-50.0 L23.257876579341456,-58.677775985381686 L24.30545279213226,-55.52276762314756" fill="purple" fill-opacity="0.6" stroke="black" stroke-width="1" />
<path d="M23.257876579341456,-41.322224014618314 L24.30545279213226,-44.47723237685244 L25.688394118568038,-46.05902358647088" fill="pink" fill-opacity="0.6" stroke="black" stroke-width="1" />
<path d="M23.257876579341456,41.322224014618314 L24.30545279213226,44.47723237685244 L25.688394118568038,46.05902358647088" fill="yellow" fill-opacity="0.6" stroke="black" stroke-width="1" />
<path d="M23.257876579341456,58.677775985381686 L24.30545279213226,55.52276762314756 L25.688394118568038,53.94097641352912" fill="black" fill-opacity="0.6" stroke="black" stroke-width="1" />
<path d="M23.257876579341456,-58.677775985381686 L24.30545279213226,-55.52276762314756 L25.688394118568038,-53.94097641352912" fill="green" fill-opacity="0.6" stroke="black" stroke-width="1" />
<path d="M24.30545279213226,-44.47723237685244 L25.688394118568038,-46.05902358647088 L26.0,-50.0" fill="red" fill-opacity="0.6" stroke="black" stroke-width="1" />
<path d="M24.30545279213226,44.47723237685244 L25.688394118568038,46.05902358647088 L26.0,50.0" fill="black" fill-opacity="0.6" stroke="black" stroke-width="1" />
<path d="M24.30545279213226,55.52276762314756 L25.688394118568038,53.94097641352912 L26.0,50.0" fill="yellow" fill-opacity="0.6" stroke="black" stroke-width="1" />
<path d="M24.30545279213226,-55.52276762314756 L25.688394118568038,-53.94097641352912 L26.0,-50.0" fill="red" fill-opacity="0.6" stroke="black" stroke-width="1" />
<path d="M49.0,-50.0 L22.667774893174066,-30.149281775270218 L21.0,-21.0" fill="brown" fill-opacity="0.6" stroke="black" stroke-width="1" />
<path d="M49.0,50.0 L22.667774893174066,30.149281775270218 L21.0,21.0" fill="yellow" fill-opacity="0.6" stroke="black" stroke-width="1" />
<path d="M49.0,50.0 L22.667774893174066,69.85071822472977 L21.0,79.0" fill="pink" fill-opacity="0.6" stroke="black" stroke-width="1" />
<path d="M49.0,-50.0 L22.667774893174066,-69.85071822472977 L21.0,-79.0" fill="green" fill-opacity="0.6" stroke="black" stroke-width="1" />
<path d="M11.0,-11.0 L2.3535967966615736,-9.117494823808164 L1.1670989779036633,-9.068887220186461" fill="brown" fill-opacity="0.6" stroke="black" stroke-width="1" />
<path d="M11.0,11.0 L2.3535967966615736,9.117494823808164 L1.1670989779036633,9.068887220186461" fill="yellow" fill-opacity="0.6" stroke="black" stroke-width="1" />
<path d="M11.0,89.0 L2.3535967966615736,90.88250517619184 L1.1670989779036633,90.93111277981353" fill="brown" fill-opacity="0.6" stroke="black" stroke-width="1" />
<path d="M11.0,-89.0 L2.3535967966615736,-90.88250517619184 L1.1670989779036633,-90.93111277981353" fill="brown" fill-opacity="0.6" stroke="black" stroke-width="1" />
<path d="M2.3535967966615736,-9.117494823808164 L1.1670989779036633,-9.068887220186461 L1.0,-1.0" fill="brown" fill-opacity="0.6" stroke="black" stroke-width="1" />
<path d="M2.3535967966615736,9.117494823808164 L1.1670989779036633,9.068887220186461 L1.0,1.0" fill="brown" fill-opacity="0.6" stroke="black" stroke-width="1" />
<path d="M2.3535967966615736,90.88250517619184 L1.1670989779036633,90.93111277981353 L1.0,99.0" fill="red" fill-opacity="0.6" stroke="black" stroke-width="1" />
<path d="M2.3535967966615736,-90.88250517619184 L1.1670989779036633,-90.93111277981353 L1.0,-99.0" fill="black" fill-opacity="0.6" stroke="black" stroke-width="1" />
<path d="M0.0,88.0 L-2.7863769669671785,87.21788641687144 L-4.870401729174093,82.32475381887656" fill="orange" fill-opacity="0.6" stroke="black" stroke-width="1" />
<path d="M0.0,-12.0 L-2.7863769669671785,-12.782113583128563 L-4.870401729174093,-17.675246181123445" fill="brown" fill-opacity="0.6" stroke="black" stroke-width="1" />
<path d="M0.0,12.0 L-2.7863769669671785,12.782113583128563 L-4.870401729174093,17.67524618112344" fill="blue" fill-opacity="0.6" stroke="black" stroke-width="1" />
<path d="M0.0,-88.0 L-2.7863769669671785,-87.21788641687144 L-4.870401729174093,-82.32475381887656" fill="brown" fill-opacity="0.6" stroke="black" stroke-width="1" />
<path d="M-2.7863769669671785,87.21788641687144 L-4.870401729174093,82.32475381887656 L0.0,77.0" fill="orange" fill-opacity="0.6" stroke="black" stroke-width="1" />
<path d="M-2.7863769669671785,-12.782113583128563 L-4.870401729174093,-17.675246181123445 L0.0,-23.0" fill="black" fill-opacity="0.6" stroke="black" stroke-width="1" />
<path d="M-2.7863769669671785,12.782113583128563 L-4.870401729174093,17.67524618112344 L0.0,23.0" fill="pink" fill-opacity="0.6" stroke="black" stroke-width="1" />
<path d="M-2.7863769669671785,-87.21788641687144 L-4.870401729174093,-82.32475381887656 L0.0,-77.0" fill="yellow" fill-opacity="0.6" stroke="black" stroke-width="1" />
<path d="M0.0,77.0 L-6.501267045966695,75.93711548077977 L-13.094877695783847,74.33952773413418" fill="yellow" fill-opacity="0.6" stroke="black" stroke-width="1" />
<path d="M0.0,-23.0 L-6.501267045966695,-24.062884519220226 L-13.094877695783847,-25.660472265865828" fill="blue" fill-opacity="0.6" stroke="black" stroke-width="1" />
<path d="M0.0,23.0 L-6.501267045966695,24.062884519220233 L-13.094877695783847,25.66047226586582" fill="brown" fill-opacity="0.6" stroke="black" stroke-width="1" />
<path d="M0.0,-77.0 L-6.501267045966695,-75.93711548077977 L-13.094877695783847,-74.33952773413418" fill="orange" fill-opacity="0.6" stroke="black" stroke-width="1" />
<path d="M-6.501267045966695,75.93711548077977 L-13.094877695783847,74.33952773413418 L-13.182280554673426,72.81516017878528" fill="pink" fill-opacity="0.6" stroke="black" stroke-width="1" />
<path d="M-6.501267045966695,-24.062884519220226 L-13.094877695783847,-25.660472265865828 L-13.182280554673426,-27.184839821214723" fill="purple" fill-opacity="0.6" stroke="black" stroke-width="1" />
<path d="M-6.501267045966695,24.062884519220233 L-13.094877695783847,25.66047226586582 L-13.182280554673426,27.184839821214723" fill="brown" fill-opacity="0.6" stroke="black" stroke-width="1" />
<path d="M-6.501267045966695,-75.93711548077977 L-13.094877695783847,-74.33952773413418 L-13.182280554673426,-72.81516017878528" fill="green" fill-opacity="0.6" stroke="black" stroke-width="1" />
<path d="M-13.094877695783847,74.33952773413418 L-13.182280554673426,72.81516017878528 L-16.834930583394726,72.10841125423305" fill="red" fill-opacity="0.6" stroke="black" stroke-width="1" />
<path d="M-13.094877695783847,-25.660472265865828 L-13.182280554673426,-27.184839821214723 L-16.834930583394726,-27.891588745766953" fill="blue" fill-opacity="0.6" stroke="black" stroke-width="1" />
<path d="M-13.094877695783847,25.66047226586582 L-13.182280554673426,27.184839821214723 L-16.834930583394726,27.891588745766953" fill="orange" fill-opacity="0.6" stroke="black" stroke-width="1" />
<path d="M-13.094877695783847,-74.33952773413418 L-13.182280554673426,-72.81516017878528 L-16.834930583394726,-72.10841125423305" fill="purple" fill-opacity="0.6" stroke="black" stroke-width="1" />
<path d="M-13.182280554673426,72.81516017878528 L-16.834930583394726,72.10841125423305 L-18.314963559730657,71.5283844005805" fill="pink" fill-opacity="0.6" stroke="black" stroke-width="1" />
<path d="M-13.182280554673426,-27.184839821214723 L-16.834930583394726,-27.891588745766953 L-18.314963559730657,-28.471615599419493" fill="brown" fill-opacity="0.6" stroke="black" stroke-width="1" />
<path d="M-13.182280554673426,27.184839821214723 L-16.834930583394726,27.891588745766953 L-18.314963559730657,28.471615599419493" fill="red" fill-opacity="0.6" stroke="black" stroke-width="1" />
<path d="M-13.182280554673426,-72.81516017878528 L-16.834930583394726,-72.10841125423305 L-18.314963559730657,-71.5283844005805" fill="brown" fill-opacity="0.6" stroke="black" stroke-width="1" />
<path d="M-16.834930583394726,72.10841125423305 L-18.314963559730657,71.5283844005805 L0.0,56.0" fill="orange" fill-opacity="0.6" stroke="black" stroke-width="1" />
<path d="M-16.834930583394726,-27.891588745766953 L-18.314963559730657,-28.471615599419493 L0.0,-44.0" fill="yellow" fill-opacity="0.6" stroke="black" stroke-width="1" />
<path d="M-16.834930583394726,27.891588745766953 L-18.314963559730657,28.471615599419493 L0.0,44.0" fill="pink" fill-opacity="0.6" stroke="black" stroke-width="1" />
<path d="M-16.834930583394726,-72.10841125423305 L-18.314963559730657,-71.5283844005805 L0.0,-56.0" fill="green" fill-opacity="0.6" stroke="black" stroke-width="1" />
<path d="M-5.0,50.0 L-23.257876579341456,58.677775985381686 L-24.30545279213226,55.52276762314756" fill="yellow" fill-opacity="0.6" stroke="black" stroke-width="1" />
<path d="M-5.0,-50.0 L-23.257876579341456,-41.322224014618314 L-24.30545279213226,-44.47723237685244" fill="green" fill-opacity="0.6" stroke="black" stroke-width="1" />
<path d="M-5.0,50.0 L-23.257876579341456,41.322224014618314 L-24.30545279213226,44.47723237685244" fill="brown" fill-opacity="0.6" stroke="black" stroke-width="1" />
<path d="M-5.0,-50.0 L-23.257876579341456,-58.677775985381686 L-24.30545279213226,-55.52276762314756" fill="purple" fill-opacity="0.6" stroke="black" stroke-width="1" />
<path d="M-23.257876579341456,58.677775985381686 L-24.30545279213226,55.52276762314756 L-25.688394118568038,53.94097641352912" fill="orange" fill-opacity="0.6" stroke="black" stroke-width="1" />
<path d="M-23.257876579341456,-41.322224014618314 L-24.30545279213226,-44.47723237685244 L-25.688394118568038,-46.05902358647088" fill="orange" fill-opacity="0.6" stroke="black" stroke-width="1" />
<path d="M-23.257876579341456,41.322224014618314 L-24.30545279213226,44.47723237685244 L-25.688394118568038,46.05902358647088" fill="red" fill-opacity="0.6" stroke="black" stroke-width="1" />
<path d="M-23.257876579341456,-58.677775985381686 L-24.30545279213226,-55.52276762314756 L-25.688394118568038,-53.94097641352912" fill="purple" fill-opacity="0.6" stroke="black" stroke-width="1" />
<path d="M-24.30545279213226,55.52276762314756 L-25.688394118568038,53.94097641352912 L-26.0,50.0" fill="brown" fill-opacity="0.6" stroke="black" stroke-width="1" />
<path d="M-24.30545279213226,-44.47723237685244 L-25.688394118568038,-46.05902358647088 L-26.0,-50.0" fill="brown" fill-opacity="0.6" stroke="black" stroke-width="1" />
<path d="M-24.30545279213226,44.47723237685244 L-25.688394118568038,46.05902358647088 L-26.0,50.0" fill="black" fill-opacity="0.6" stroke="black" stroke-width="1" />
<path d="M-24.30545279213226,-55.52276762314756 L-25.688394118568038,-53.94097641352912 L-26.0,-50.0" fill="orange" fill-opacity="0.6" stroke="black" stroke-width="1" />
<path d="M-49.0,50.0 L-22.667774893174066,69.85071822472977 L-21.0,79.0" fill="green" fill-opacity="0.6" stroke="black" stroke-width="1" />
<path d="M-49.0,-50.0 L-22.667774893174066,-30.149281775270218 L-21.0,-21.0" fill="orange" fill-opacity="0.6" stroke="black" stroke-width="1" />
<path d="M-49.0,50.0 L-22.667774893174066,30.149281775270225 L-21.0,21.0" fill="black" fill-opacity="0.6" stroke="black" stroke-width="1" />
<path d="M-49.0,-50.0 L-22.667774893174066,-69.85071822472977 L-21.0,-79.0" fill="brown" fill-opacity="0.6" stroke="black" stroke-width="1" />
<path d="M-11.0,89.0 L-2.3535967966615736,90.88250517619184 L-1.1670989779036633,90.93111277981353" fill="black" fill-opacity="0.6" stroke="black" stroke-width="1" />
<path d="M-11.0,-11.0 L-2.3535967966615736,-9.117494823808164 L-1.1670989779036633,-9.068887220186461" fill="orange" fill-opacity="0.6" stroke="black" stroke-width="1" />
<path d="M-11.0,11.0 L-2.3535967966615736,9.117494823808158 L-1.1670989779036633,9.068887220186468" fill="orange" fill-opacity="0.6" stroke="black" stroke-width="1" />
<path d="M-11.0,-89.0 L-2.3535967966615736,-90.88250517619184 L-1.1670989779036633,-90.93111277981353" fill="blue" fill-opacity="0.6" stroke="black" stroke-width="1" />
<path d="M-2.3535967966615736,90.88250517619184 L-1.1670989779036633,90.93111277981353 L-1.0,99.0" fill="green" fill-opacity="0.6" stroke="black" stroke-width="1" />
<path d="M-2.3535967966615736,-9.117494823808164 L-1.1670989779036633,-9.068887220186461 L-1.0,-1.0" fill="green" fill-opacity="0.6" stroke="black" stroke-width="1" />
<path d="M-2.3535967966615736,9.117494823808158 L-1.1670989779036633,9.068887220186468 L-1.0,1.0" fill="purple" fill-opacity="0.6" stroke="black" stroke-width="1" />
<path d="M-2.3535967966615736,-90.88250517619184 L-1.1670989779036633,-90.93111277981353 L-1.0,-99.0" fill="purple" fill-opacity="0.6" stroke="black" stroke-width="1" />
<path d="M-79.0,-21.0 L-88.0,-12.0 L-89.0,-11.0" fill="red" fill-opacity="0.6" stroke="black" stroke-width="1" />
<path d="M-79.0,21.0 L-88.0,12.0 L-89.0,11.0" fill="pink" fill-opacity="0.6" stroke="black" stroke-width="1" />
<path d="M-88.0,-0.0 L-87.21788641687144,-2.7863769669671785 L-82.32475381887656,-4.870401729174093" fill="pink" fill-opacity="0.6" stroke="black" stroke-width="1" />
<path d="M-88.0,-0.0 L-87.21788641687144,2.7863769669671785 L-82.32475381887656,4.870401729174093" fill="pink" fill-opacity="0.6" stroke="black" stroke-width="1" />
<path d="M-87.21788641687144,-2.7863769669671785 L-82.32475381887656,-4.870401729174093 L-77.0,-0.0" fill="purple" fill-opacity="0.6" stroke="black" stroke-width="1" />
<path d="M-87.21788641687144,2.7863769669671785 L-82.32475381887656,4.870401729174093 L-77.0,-0.0" fill="yellow" fill-opacity="0.6" stroke="black" stroke-width="1" />
<path d="M-77.0,-0.0 L-75.93711548077977,-6.501267045966695 L-74.33952773413418,-13.094877695783847" fill="brown" fill-opacity="0.6" stroke="black" stroke-width="1" />
<path d="M-77.0,-0.0 L-75.93711548077977,6.501267045966695 L-74.33952773413418,13.094877695783847" fill="red" fill-opacity="0.6" stroke="black" stroke-width="1" />
<path d="M-75.93711548077977,-6.501267045966695 L-74.33952773413418,-13.094877695783847 L-72.81516017878528,-13.182280554673426" fill="pink" fill-opacity="0.6" stroke="black" stroke-width="1" />
<path d="M-75.93711548077977,6.501267045966695 L-74.33952773413418,13.094877695783847 L-72.81516017878528,13.182280554673426" fill="pink" fill-opacity="0.6" stroke="black" stroke-width="1" />
<path d="M-74.33952773413418,-13.094877695783847 L-72.81516017878528,-13.182280554673426 L-72.10841125423305,-16.834930583394726" fill="pink" fill-opacity="0.6" stroke="black" stroke-width="1" />
<path d="M-74.33952773413418,13.094877695783847 L-72.81516017878528,13.182280554673426 L-72.10841125423305,16.834930583394726" fill="blue" fill-opacity="0.6" stroke="black" stroke-width="1" />
<path d="M-72.81516017878528,-13.182280554673426 L-72.10841125423305,-16.834930583394726 L-71.5283844005805,-18.314963559730657" fill="blue" fill-opacity="0.6" stroke="black" stroke-width="1" />
<path d="M-72.81516017878528,13.182280554673426 L-72.10841125423305,16.834930583394726 L-71.5283844005805,18.314963559730657" fill="yellow" fill-opacity="0.6" stroke="black" stroke-width="1" />
<path d="M-72.10841125423305,-16.834930583394726 L-71.5283844005805,-18.314963559730657 L-56.0,-0.0" fill="brown" fill-opacity="0.6" stroke="black" stroke-width="1" />
<path d="M-72.10841125423305,16.834930583394726 L-71.5283844005805,18.314963559730657 L-56.0,-0.0" fill="yellow" fill-opacity="0.6" stroke="black" stroke-width="1" />
<path d="M-50.0,-5.0 L-58.677775985381686,-23.257876579341456 L-55.52276762314756,-24.30545279213226" fill="purple" fill-opacity="0.6" stroke="black" stroke-width="1" />
<path d="M-50.0,5.0 L-58.677775985381686,23.257876579341456 L-55.52276762314756,24.30545279213226" fill="red" fill-opacity="0.6" stroke="black" stroke-width="1" />
<path d="M-58.677775985381686,-23.257876579341456 L-55.52276762314756,-24.30545279213226 L-53.94097641352912,-25.688394118568038" fill="pink" fill-opacity="0.6" stroke="black" stroke-width="1" />
<path d="M-58.677775985381686,23.257876579341456 L-55.52276762314756,24.30545279213226 L-53.94097641352912,25.688394118568038" fill="orange" fill-opacity="0.6" stroke="black" stroke-width="1" />
<path d="M-55.52276762314756,-24.30545279213226 L-53.94097641352912,-25.688394118568038 L-50.0,-26.0" fill="orange" fill-opacity="0.6" stroke="black" stroke-width="1" />
<path d="M-55.52276762314756,24.30545279213226 L-53.94097641352912,25.688394118568038 L-50.0,26.0" fill="green" fill-opacity="0.6" stroke="black" stroke-width="1" />
<path d="M-50.0,-49.0 L-69.85071822472977,-22.667774893174066 L-79.0,-21.0" fill="green" fill-opacity="0.6" stroke="black" stroke-width="1" />
<path d="M-50.0,49.0 L-69.85071822472977,22.667774893174066 L-79.0,21.0" fill="brown" fill-opacity="0.6" stroke="black" stroke-width="1" />
<path d="M-69.85071822472977,-22.667774893174066 L-79.0,-21.0 L-88.0,-12.0" fill="green" fill-opacity="0.6" stroke="black" stroke-width="1" />
<path d="M-69.85071822472977,22.667774893174066 L-79.0,21.0 L-88.0,12.0" fill="green" fill-opacity="0.6" stroke="black" stroke-width="1" />
<path d="M-88.0,-12.0 L-89.0,-11.0 L-90.88250517619184,-2.3535967966615736" fill="brown" fill-opacity="0.6" stroke="black" stroke-width="1" />
<path d="M-88.0,12.0 L-89.0,11.0 L-90.88250517619184,2.3535967966615736" fill="brown" fill-opacity="0.6" stroke="black" stroke-width="1" />
<path d="M-89.0,-11.0 L-90.88250517619184,-2.3535967966615736 L-90.93111277981353,-1.1670989779036633" fill="blue" fill-opacity="0.6" stroke="black" stroke-width="1" />
<path d="M-89.0,11.0 L-90.88250517619184,2.3535967966615736 L-90.93111277981353,1.1670989779036633" fill="green" fill-opacity="0.6" stroke="black" stroke-width="1" />
<path d="M-90.88250517619184,-2.3535967966615736 L-90.93111277981353,-1.1670989779036633 L-99.0,-1.0" fill="brown" fill-opacity="0.6" stroke="black" stroke-width="1" />
<path d="M-90.88250517619184,2.3535967966615736 L-90.93111277981353,1.1670989779036633 L-99.0,1.0" fill="purple" fill-opacity="0.6" stroke="black" stroke-width="1" />
<path d="M-90.93111277981353,-1.1670989779036633 L-99.0,-1.0 L-100.0,-0.0" fill="yellow" fill-opacity="0.6" stroke="black" stroke-width="1" />
<path d="M-90.93111277981353,1.1670989779036633 L-99.0,1.0 L-100.0,-0.0" fill="brown" fill-opacity="0.6" stroke="black" stroke-width="1" />
</svg>