<?xml version="1.0" encoding="UTF-8"?>
<svg xmlns="http://www.w3.org/2000/svg" xmlns:xlink="http://www.w3.org/1999/xlink"
     width="250" height="250" viewBox="-125.0 -125.0 250 250">
<defs>
</defs>
<path d="M50.0,-4.0 L46.11241218125146,-13.264869711751903 L50.0,-15.0" fill="orange" fill-opacity="0.6" stroke="black" stroke-width="1" />
<path d="M50.0,4.0 L46.11241218125146,13.264869711751903 L50.0,15.0" fill="green" fill-opacity="0.6" stroke="black" stroke-width="1" />
<path d="M50.0,50.0 L29.0,71.0 L25.0,75.0" fill="blue" fill-opacity="0.6" stroke="black" stroke-width="1" />
<path d="M50.0,-50.0 L29.0,-71.0 L25.0,-75.0" fill="green" fill-opacity="0.6" stroke="black" stroke-width="1" />
<path d="M29.0,71.0 L25.0,75.0 L23.0,77.0" fill="brown" fill-opacity="0.6" stroke="black" stroke-width="1" />
<path d="M29.0,-71.0 L25.0,-75.0 L23.0,-77.0" fill="purple" fill-opacity="0.6" stroke="black" stroke-width="1" />
<path d="M25.0,75.0 L23.0,77.0 L10.49998890901856,84.45352780941609" fill="orange" fill-opacity="0.6" stroke="black" stroke-width="1" />
<path d="M25.0,-75.0 L23.0,-77.0 L10.49998890901856,-84.45352780941609" fill="black" fill-opacity="0.6" stroke="black" stroke-width="1" />
<path d="M23.0,-23.0 L15.546472190583914,-10.49998890901856 L12.0,-12.0" fill="orange" fill-opacity="0.6" stroke="black" stroke-width="1" />
<path d="M23.0,23.0 L15.546472190583914,10.49998890901856 L12.0,12.0" fill="yellow" fill-opacity="0.6" stroke="black" stroke-width="1" />
<path d="M10.49998890901856,84.45352780941609 L12.0,88.0 L6.369483002583455,88.16705427320969" fill="blue" fill-opacity="0.6" stroke="black" stroke-width="1" />
<path d="M10.49998890901856,-84.45352780941609 L12.0,-88.0 L6.369483002583455,-88.16705427320969" fill="yellow" fill-opacity="0.6" stroke="black" stroke-width="1" />
<path d="M12.0,-12.0 L11.832945726790312,-6.369483002583455 L8.816729928287886,-5.181649942194324" fill="black" fill-opacity="0.6" stroke="black" stroke-width="1" />
<path d="M12.0,12.0 L11.832945726790312,6.369483002583455 L8.816729928287886,5.181649942194324" fill="yellow" fill-opacity="0.6" stroke="black" stroke-width="1" />
<path d="M11.832945726790312,-6.369483002583455 L8.816729928287886,-5.181649942194324 L7.972031524630424,-3.922125494190981" fill="orange" fill-opacity="0.6" stroke="black" stroke-width="1" />
<path d="M11.832945726790312,6.369483002583455 L8.816729928287886,5.181649942194324 L7.972031524630424,3.922125494190981" fill="green" fill-opacity="0.6" stroke="black" stroke-width="1" />
<path d="M8.816729928287886,-5.181649942194324 L7.972031524630424,-3.922125494190981 L5.67413752908888,-3.146819735086294" fill="purple" fill-opacity="0.6" stroke="black" stroke-width="1" />
<path d="M8.816729928287886,5.181649942194324 L7.972031524630424,3.922125494190981 L5.67413752908888,3.146819735086294" fill="black" fill-opacity="0.6" stroke="black" stroke-width="1" />
<path d="M7.972031524630424,-3.922125494190981 L5.67413752908888,-3.146819735086294 L4.458653072987523,-1.1864710632275302" fill="red" fill-opacity="0.6" stroke="black" stroke-width="1" />
<path d="M7.972031524630424,3.922125494190981 L5.67413752908888,3.146819735086294 L4.458653072987523,1.1864710632275302" fill="orange" fill-opacity="0.6" stroke="black" stroke-width="1" />
<path d="M5.67413752908888,-3.146819735086294 L4.458653072987523,-1.1864710632275302 L4.0,-4.0" fill="purple" fill-opacity="0.6" stroke="black" stroke-width="1" />
<path d="M5.67413752908888,3.146819735086294 L4.458653072987523,1.1864710632275302 L4.0,4.0" fill="yellow" fill-opacity="0.6" stroke="black" stroke-width="1" />
<path d="M1.1864710632275302,95.54134692701248 L4.0,96.0 L0.0,100.0" fill="black" fill-opacity="0.6" stroke="black" stroke-width="1" />
<path d="M1.1864710632275302,-95.54134692701248 L4.0,-96.0 L0.0,-100.0" fill="black" fill-opacity="0.6" stroke="black" stroke-width="1" />
<path d="M-50.0,-4.0 L-46.11241218125146,-13.264869711751903 L-50.0,-15.0" fill="pink" fill-opacity="0.6" stroke="black" stroke-width="1" />
<path d="M-50.0,4.0 L-46.11241218125146,13.264869711751903 L-50.0,15.0" fill="orange" fill-opacity="0.6" stroke="black" stroke-width="1" />
<path d="M-50.0,50.0 L-29.0,71.0 L-25.0,75.0" fill="black" fill-opacity="0.6" stroke="black" stroke-width="1" />
<path d="M-50.0,-50.0 L-29.0,-71.0 L-25.0,-75.0" fill="red" fill-opacity="0.6" stroke="black" stroke-width="1" />
<path d="M-29.0,71.0 L-25.0,75.0 L-23.0,77.0" fill="green" fill-opacity="0.6" stroke="black" stroke-width="1" />
<path d="M-29.0,-71.0 L-25.0,-75.0 L-23.0,-77.0" fill="blue" fill-opacity="0.6" stroke="black" stroke-width="1" />
<path d="M-25.0,75.0 L-23.0,77.0 L-10.49998890901856,84.45352780941609" fill="purple" fill-opacity="0.6" stroke="black" stroke-width="1" />
<path d="M-25.0,-75.0 L-23.0,-77.0 L-10.49998890901856,-84.45352780941609" fill="red" fill-opacity="0.6" stroke="black" stroke-width="1" />
<path d="M-23.0,-23.0 L-15.546472190583914,-10.49998890901856 L-12.0,-12.0" fill="orange" fill-opacity="0.6" stroke="black" stroke-width="1" />
<path d="M-23.0,23.0 L-15.546472190583914,10.49998890901856 L-12.0,12.0" fill="purple" fill-opacity="0.6" stroke="black" stroke-width="1" />
<path d="M-10.49998890901856,84.45352780941609 L-12.0,88.0 L-6.369483002583455,88.16705427320969" fill="green" fill-opacity="0.6" stroke="black" stroke-width="1" />
<path d="M-10.49998890901856,-84.45352780941609 L-12.0,-88.0 L-6.369483002583455,-88.16705427320969" fill="red" fill-opacity="0.6" stroke="black" stroke-width="1" />
<path d="M-12.0,-12.0 L-11.832945726790312,-6.369483002583455 L-8.816729928287886,-5.181649942194324" fill="black" fill-opacity="0.6" stroke="black" stroke-width="1" />
<path d="M-12.0,12.0 L-11.832945726790312,6.369483002583455 L-8.816729928287886,5.181649942194324" fill="yellow" fill-opacity="0.6" stroke="black" stroke-width="1" />
<path d="M-11.832945726790312,-6.369483002583455 L-8.816729928287886,-5.181649942194324 L-7.972031524630424,-3.922125494190981" fill="brown" fill-opacity="0.6" stroke="black" stroke-width="1" />
<path d="M-11.832945726790312,6.369483002583455 L-8.816729928287886,5.181649942194324 L-7.972031524630424,3.922125494190981" fill="brown" fill-opacity="0.6" stroke="black" stroke-width="1" />
<path d="M-8.816729928287886,-5.181649942194324 L-7.972031524630424,-3.922125494190981 L-5.67413752908888,-3.146819735086294" fill="black" fill-opacity="0.6" stroke="black" stroke-width="1" />
<path d="M-8.816729928287886,5.181649942194324 L-7.972031524630424,3.922125494190981 L-5.67413752908888,3.146819735086294" fill="orange" fill-opacity="0.6" stroke="black" stroke-width="1" />
<path d="M-7.972031524630424,-3.922125494190981 L-5.67413752908888,-3.146819735086294 L-4.458653072987523,-1.1864710632275302" fill="yellow" fill-opacity="0.6" stroke="black" stroke-width="1" />
<path d="M-7.972031524630424,3.922125494190981 L-5.67413752908888,3.146819735086294 L-4.458653072987523,1.1864710632275302" fill="brown" fill-opacity="0.6" stroke="black" stroke-width="1" />
<path d="M-5.67413752908888,-3.146819735086294 L-4.458653072987523,-1.1864710632275302 L-4.0,-4.0" fill="black" fill-opacity="0.6" stroke="black" stroke-width="1" />
<path d="M-5.67413752908888,3.146819735086294 L-4.458653072987523,1.1864710632275302 L-4.0,4.0" fill="pink" fill-opacity="0.6" stroke="black" stroke-width="1" />
<path d="M-1.1864710632275302,95.54134692701248 L-4.0,96.0 L0.0,100.0" fill="pink" fill-opacity="0.6" stroke="black" stroke-width="1" />
<path d="M-1.1864710632275302,-95.54134692701248 L-4.0,-96.0 L0.0,-100.0" fill="black" fill-opacity="0.6" stroke="black" stroke-width="1" />
<path d="M50.0,4.0 L53.88758781874854,13.264869711751903 L50.0,15.0" fill="brown" fill-opacity="0.6" stroke="black" stroke-width="1" />
<path d="M50.0,-4.0 L53.88758781874854,-13.264869711751903 L50.0,-15.0" fill="brown" fill-opacity="0.6" stroke="black" stroke-width="1" />
<path d="M50.0,50.0 L71.0,29.0 L75.0,25.0" fill="blue" fill-opacity="0.6" stroke="black" stroke-width="1" />
<path d="M50.0,-50.0 L71.0,-29.0 L75.0,-25.0" fill="blue" fill-opacity="0.6" stroke="black" stroke-width="1" />
<path d="M71.0,29.0 L75.0,25.0 L77.0,23.0" fill="purple" fill-opacity="0.6" stroke="black" stroke-width="1" />
<path d="M71.0,-29.0 L75.0,-25.0 L77.0,-23.0" fill="red" fill-opacity="0.6" stroke="black" stroke-width="1" />
<path d="M75.0,25.0 L77.0,23.0 L84.45352780941609,10.49998890901856" fill="black" fill-opacity="0.6" stroke="black" stroke-width="1" />
<path d="M75.0,-25.0 L77.0,-23.0 L84.45352780941609,-10.49998890901856" fill="purple" fill-opacity="0.6" stroke="black" stroke-width="1" />
<path d="M77.0,23.0 L84.45352780941609,10.49998890901856 L88.0,12.0" fill="blue" fill-opacity="0.6" stroke="black" stroke-width="1" />
<path d="M77.0,-23.0 L84.45352780941609,-10.49998890901856 L88.0,-12.0" fill="brown" fill-opacity="0.6" stroke="black" stroke-width="1" />
<path d="M84.45352780941609,10.49998890901856 L88.0,12.0 L88.16705427320969,6.369483002583455" fill="green" fill-opacity="0.6" stroke="black" stroke-width="1" />
<path d="M84.45352780941609,-10.49998890901856 L88.0,-12.0 L88.16705427320969,-6.369483002583455" fill="black" fill-opacity="0.6" stroke="black" stroke-width="1" />
<path d="M88.0,12.0 L88.16705427320969,6.369483002583455 L91.18327007171212,5.181649942194324" fill="green" fill-opacity="0.6" stroke="black" stroke-width="1" />
<path d="M88.0,-12.0 L88.16705427320969,-6.369483002583455 L91.18327007171212,-5.181649942194324" fill="red" fill-opacity="0.6" stroke="black" stroke-width="1" />
<path d="M88.16705427320969,6.369483002583455 L91.18327007171212,5.181649942194324 L92.02796847536958,3.922125494190981" fill="orange" fill-opacity="0.6" stroke="black" stroke-width="1" />
<path d="M88.16705427320969,-6.369483002583455 L91.18327007171212,-5.181649942194324 L92.02796847536958,-3.922125494190981" fill="black" fill-opacity="0.6" stroke="black" stroke-width="1" />
<path d="M91.18327007171212,5.181649942194324 L92.02796847536958,3.922125494190981 L94.32586247091112,3.146819735086294" fill="blue" fill-opacity="0.6" stroke="black" stroke-width="1" />
<path d="M91.18327007171212,-5.181649942194324 L92.02796847536958,-3.922125494190981 L94.32586247091112,-3.146819735086294" fill="blue" fill-opacity="0.6" stroke="black" stroke-width="1" />
<path d="M92.02796847536958,3.922125494190981 L94.32586247091112,3.146819735086294 L95.54134692701248,1.1864710632275302" fill="blue" fill-opacity="0.6" stroke="black" stroke-width="1" />
<path d="M92.02796847536958,-3.922125494190981 L94.32586247091112,-3.146819735086294 L95.54134692701248,-1.1864710632275302" fill="green" fill-opacity="0.6" stroke="black" stroke-width="1" />
<path d="M94.32586247091112,3.146819735086294 L95.54134692701248,1.1864710632275302 L96.0,4.0" fill="green" fill-opacity="0.6" stroke="black" stroke-width="1" />
<path d="M94.32586247091112,-3.146819735086294 L95.54134692701248,-1.1864710632275302 L96.0,-4.0" fill="red" fill-opacity="0.6" stroke="black" stroke-width="1" />
<path d="M95.54134692701248,1.1864710632275302 L96.0,4.0 L100.0,-0.0" fill="orange" fill-opacity="0.6" stroke="black" stroke-width="1" />
<path d="M95.54134692701248,-1.1864710632275302 L96.0,-4.0 L100.0,-0.0" fill="orange" fill-opacity="0.6" stroke="black" stroke-width="1" />
<path d="M4.0,-50.0 L13.264869711751903,-46.11241218125146 L15.0,-50.0" fill="purple" fill-opacity="0.6" stroke="black" stroke-width="1" />
<path d="M4.0,50.0 L13.264869711751903,46.11241218125146 L15.0,50.0" fill="red" fill-opacity="0.6" stroke="black" stroke-width="1" />
<path d="M4.0,50.0 L13.264869711751903,53.88758781874854 L15.0,50.0" fill="yellow" fill-opacity="0.6" stroke="black" stroke-width="1" />
<path d="M4.0,-50.0 L13.264869711751903,-53.88758781874854 L15.0,-50.0" fill="brown" fill-opacity="0.6" stroke="black" stroke-width="1" />
<path d="M23.0,-23.0 L10.49998890901856,-15.546472190583914 L12.0,-12.0" fill="red" fill-opacity="0.6" stroke="black" stroke-width="1" />
<path d="M23.0,23.0 L10.49998890901856,15.546472190583914 L12.0,12.0" fill="yellow" fill-opacity="0.6" stroke="black" stroke-width="1" />
<path d="M23.0,77.0 L10.49998890901856,84.45352780941609 L12.0,88.0" fill="black" fill-opacity="0.6" stroke="black" stroke-width="1" />
<path d="M23.0,-77.0 L10.49998890901856,-84.45352780941609 L12.0,-88.0" fill="orange" fill-opacity="0.6" stroke="black" stroke-width="1" />
<path d="M12.0,-12.0 L6.369483002583455,-11.832945726790312 L5.181649942194324,-8.816729928287886" fill="red" fill-opacity="0.6" stroke="black" stroke-width="1" />
<path d="M12.0,12.0 L6.369483002583455,11.832945726790312 L5.181649942194324,8.816729928287886" fill="blue" fill-opacity="0.6" stroke="black" stroke-width="1" />
<path d="M12.0,88.0 L6.369483002583455,88.16705427320969 L5.181649942194324,91.18327007171212" fill="green" fill-opacity="0.6" stroke="black" stroke-width="1" />
<path d="M12.0,-88.0 L6.369483002583455,-88.16705427320969 L5.181649942194324,-91.18327007171212" fill="yellow" fill-opacity="0.6" stroke="black" stroke-width="1" />
<path d="M6.369483002583455,-11.832945726790312 L5.181649942194324,-8.816729928287886 L3.922125494190981,-7.972031524630424" fill="blue" fill-opacity="0.6" stroke="black" stroke-width="1" />
<path d="M6.369483002583455,11.832945726790312 L5.181649942194324,8.816729928287886 L3.922125494190981,7.972031524630424" fill="green" fill-opacity="0.6" stroke="black" stroke-width="1" />
<path d="M6.369483002583455,88.16705427320969 L5.181649942194324,91.18327007171212 L3.922125494190981,92.02796847536958" fill="green" fill-opacity="0.6" stroke="black" stroke-width="1" />
<path d="M6.369483002583455,-88.16705427320969 L5.181649942194324,-91.18327007171212 L3.922125494190981,-92.02796847536958" fill="yellow" fill-opacity="0.6" stroke="black" stroke-width="1" />
<path d="M5.181649942194324,-8.816729928287886 L3.922125494190981,-7.972031524630424 L3.146819735086294,-5.67413752908888" fill="pink" fill-opacity="0.6" stroke="black" stroke-width="1" />
<path d="M5.181649942194324,8.816729928287886 L3.922125494190981,7.972031524630424 L3.146819735086294,5.67413752908888" fill="blue" fill-opacity="0.6" stroke="black" stroke-width="1" />
<path d="M5.181649942194324,91.18327007171212 L3.922125494190981,92.02796847536958 L3.146819735086294,94.32586247091112" fill="yellow" fill-opacity="0.6" stroke="black" stroke-width="1" />
<path d="M5.181649942194324,-91.18327007171212 L3.922125494190981,-92.02796847536958 L3.146819735086294,-94.32586247091112" fill="yellow" fill-opacity="0.6" stroke="black" stroke-width="1" />
<path d="M3.922125494190981,-7.972031524630424 L3.146819735086294,-5.67413752908888 L1.1864710632275302,-4.458653072987523" fill="brown" fill-opacity="0.6" stroke="black" stroke-width="1" />
<path d="M3.922125494190981,7.972031524630424 L3.146819735086294,5.67413752908888 L1.1864710632275302,4.458653072987523" fill="yellow" fill-opacity="0.6" stroke="black" stroke-width="1" />
<path d="M3.922125494190981,92.02796847536958 L3.146819735086294,94.32586247091112 L1.1864710632275302,95.54134692701248" fill="brown" fill-opacity="0.6" stroke="black" stroke-width="1" />
<path d="M3.922125494190981,-92.02796847536958 L3.146819735086294,-94.32586247091112 L1.1864710632275302,-95.54134692701248" fill="black" fill-opacity="0.6" stroke="black" stroke-width="1" />
<path d="M3.146819735086294,-5.67413752908888 L1.1864710632275302,-4.458653072987523 L4.0,-4.0" fill="black" fill-opacity="0.6" stroke="black" stroke-width="1" />
<path d="M3.146819735086294,5.67413752908888 L1.1864710632275302,4.458653072987523 L4.0,4.0" fill="blue" fill-opacity="0.6" stroke="black" stroke-width="1" />
<path d="M3.146819735086294,94.32586247091112 L1.1864710632275302,95.54134692701248 L4.0,96.0" fill="yellow" fill-opacity="0.6" stroke="black" stroke-width="1" />
<path d="M3.146819735086294,-94.32586247091112 L1.1864710632275302,-95.54134692701248 L4.0,-96.0" fill="black" fill-opacity="0.6" stroke="black" stroke-width="1" />
<path d="M-4.0,50.0 L-13.264869711751903,53.88758781874854 L-15.0,50.0" fill="green" fill-opacity="0.6" stroke="black" stroke-width="1" />
<path d="M-4.0,-50.0 L-13.264869711751903,-46.11241218125146 L-15.0,-50.0" fill="brown" fill-opacity="0.6" stroke="black" stroke-width="1" />
<path d="M-4.0,50.0 L-13.264869711751903,46.11241218125146 L-15.0,50.0" fill="red" fill-opacity="0.6" stroke="black" stroke-width="1" />
<path d="M-4.0,-50.0 L-13.264869711751903,-53.88758781874854 L-15.0,-50.0" fill="purple" fill-opacity="0.6" stroke="black" stroke-width="1" />
<path d="M-23.0,77.0 L-10.49998890901856,84.45352780941609 L-12.0,88.0" fill="red" fill-opacity="0.6" stroke="black" stroke-width="1" />
<path d="M-23.0,-23.0 L-10.49998890901856,-15.546472190583914 L-12.0,-12.0" fill="brown" fill-opacity="0.6" stroke="black" stroke-width="1" />
<path d="M-23.0,23.0 L-10.49998890901856,15.546472190583913 L-12.0,12.0" fill="brown" fill-opacity="0.6" stroke="black" stroke-width="1" />
<path d="M-23.0,-77.0 L-10.49998890901856,-84.45352780941609 L-12.0,-88.0" fill="purple" fill-opacity="0.6" stroke="black" stroke-width="1" />
<path d="M-12.0,88.0 L-6.369483002583455,88.16705427320969 L-5.181649942194324,91.18327007171212" fill="brown" fill-opacity="0.6" stroke="black" stroke-width="1" />
<path d="M-12.0,-12.0 L-6.369483002583455,-11.832945726790312 L-5.181649942194324,-8.816729928287886" fill="brown" fill-opacity="0.6" stroke="black" stroke-width="1" />
<path d="M-12.0,12.0 L-6.369483002583455,11.832945726790314 L-5.181649942194324,8.816729928287884" fill="red" fill-opacity="0.6" stroke="black" stroke-width="1" />
<path d="M-12.0,-88.0 L-6.369483002583455,-88.16705427320969 L-5.181649942194324,-91.18327007171212" fill="purple" fill-opacity="0.6" stroke="black" stroke-width="1" />
<path d="M-6.369483002583455,88.16705427320969 L-5.181649942194324,91.18327007171212 L-3.922125494190981,92.02796847536958" fill="purple" fill-opacity="0.6" stroke="black" stroke-width="1" />
<path d="M-6.369483002583455,-11.832945726790312 L-5.181649942194324,-8.816729928287886 L-3.922125494190981,-7.972031524630424" fill="black" fill-opacity="0.6" stroke="black" stroke-width="1" />
<path d="M-6.369483002583455,11.832945726790314 L-5.181649942194324,8.816729928287884 L-3.922125494190981,7.972031524630424" fill="brown" fill-opacity="0.6" stroke="black" stroke-width="1" />
<path d="M-6.369483002583455,-88.16705427320969 L-5.181649942194324,-91.18327007171212 L-3.922125494190981,-92.02796847536958" fill="orange" fill-opacity="0.6" stroke="black" stroke-width="1" />
<path d="M-5.181649942194324,91.18327007171212 L-3.922125494190981,92.02796847536958 L-3.146819735086294,94.32586247091112" fill="blue" fill-opacity="0.6" stroke="black" stroke-width="1" />
<path d="M-5.181649942194324,-8.816729928287886 L-3.922125494190981,-7.972031524630424 L-3.146819735086294,-5.67413752908888" fill="pink" fill-opacity="0.6" stroke="black" stroke-width="1" />
<path d="M-5.181649942194324,8.816729928287884 L-3.922125494190981,7.972031524630424 L-3.146819735086294,5.674137529088881" fill="red" fill-opacity="0.6" stroke="black" stroke-width="1" />
<path d="M-5.181649942194324,-91.18327007171212 L-3.922125494190981,-92.02796847536958 L-3.146819735086294,-94.32586247091112" fill="purple" fill-opacity="0.6" stroke="black" stroke-width="1" />
<path d="M-3.922125494190981,92.02796847536958 L-3.146819735086294,94.32586247091112 L-1.1864710632275302,95.54134692701248" fill="pink" fill-opacity="0.6" stroke="black" stroke-width="1" />
<path d="M-3.922125494190981,-7.972031524630424 L-3.146819735086294,-5.67413752908888 L-1.1864710632275302,-4.458653072987523" fill="purple" fill-opacity="0.6" stroke="black" stroke-width="1" />
<path d="M-3.922125494190981,7.972031524630424 L-3.146819735086294,5.674137529088881 L-1.1864710632275302,4.4586530729875165" fill="blue" fill-opacity="0.6" stroke="black" stroke-width="1" />
<path d="M-3.922125494190981,-92.02796847536958 L-3.146819735086294,-94.32586247091112 L-1.1864710632275302,-95.54134692701248" fill="brown" fill-opacity="0.6" stroke="black" stroke-width="1" />
<path d="M-3.146819735086294,94.32586247091112 L-1.1864710632275302,95.54134692701248 L-4.0,96.0" fill="orange" fill-opacity="0.6" stroke="black" stroke-width="1" />
<path d="M-3.146819735086294,-5.67413752908888 L-1.1864710632275302,-4.458653072987523 L-4.0,-4.0" fill="red" fill-opacity="0.6" stroke="black" stroke-width="1" />
<path d="M-3.146819735086294,5.674137529088881 L-1.1864710632275302,4.4586530729875165 L-4.0,4.0" fill="brown" fill-opacity="0.6" stroke="black" stroke-width="1" />
<path d="M-3.146819735086294,-94.32586247091112 L-1.1864710632275302,-95.54134692701248 L-4.0,-96.0" fill="yellow" fill-opacity="0.6" stroke="black" stroke-width="1" />
<path d="M-50.0,-4.0 L-53.88758781874854,-13.264869711751903 L-50.0,-15.0" fill="black" fill-opacity="0.6" stroke="black" stroke-width="1" />
<path d="M-50.0,4.0 L-53.88758781874854,13.264869711751903 L-50.0,15.0" fill="black" fill-opacity="0.6" stroke="black" stroke-width="1" />
<path d="M-50.0,-50.0 L-71.0,-29.0 L-75.0,-25.0" fill="red" fill-opacity="0.6" stroke="black" stroke-width="1" />
<path d="M-50.0,50.0 L-71.0,29.0 L-75.0,25.0" fill="brown" fill-opacity="0.6" stroke="black" stroke-width="1" />
<path d="M-71.0,-29.0 L-75.0,-25.0 L-77.0,-23.0" fill="pink" fill-opacity="0.6" stroke="black" stroke-width="1" />
<path d="M-71.0,29.0 L-75.0,25.0 L-77.0,23.0" fill="yellow" fill-opacity="0.6" stroke="black" stroke-width="1" />
<path d="M-75.0,-25.0 L-77.0,-23.0 L-84.45352780941609,-10.49998890901856" fill="pink" fill-opacity="0.6" stroke="black" stroke-width="1" />
<path d="M-75.0,25.0 L-77.0,23.0 L-84.45352780941609,10.49998890901856" fill="red" fill-opacity="0.6" stroke="black" stroke-width="1" />
<path d="M-77.0,-23.0 L-84.45352780941609,-10.49998890901856 L-88.0,-12.0" fill="orange" fill-opacity="0.6" stroke="black" stroke-width="1" />
<path d="M-77.0,23.0 L-84.45352780941609,10.49998890901856 L-88.0,12.0" fill="red" fill-opacity="0.6" stroke="black" stroke-width="1" />
<path d="M-84.45352780941609,-10.49998890901856 L-88.0,-12.0 L-88.16705427320969,-6.369483002583455" fill="brown" fill-opacity="0.6" stroke="black" stroke-width="1" />
<path d="M-84.45352780941609,10.49998890901856 L-88.0,12.0 L-88.16705427320969,6.369483002583455" fill="yellow" fill-opacity="0.6" stroke="black" stroke-width="1" />
<path d="M-88.0,-12.0 L-88.16705427320969,-6.369483002583455 L-91.18327007171212,-5.181649942194324" fill="blue" fill-opacity="0.6" stroke="black" stroke-width="1" />
<path d="M-88.0,12.0 L-88.16705427320969,6.369483002583455 L-91.18327007171212,5.181649942194324" fill="purple" fill-opacity="0.6" stroke="black" stroke-width="1" />
<path d="M-88.16705427320969,-6.369483002583455 L-91.18327007171212,-5.181649942194324 L-92.02796847536958,-3.922125494190981" fill="green" fill-opacity="0.6" stroke="black" stroke-width="1" />
<path d="M-88.16705427320969,6.369483002583455 L-91.18327007171212,5.181649942194324 L-92.02796847536958,3.922125494190981" fill="orange" fill-opacity="0.6" stroke="black" stroke-width="1" />
<path d="M-91.18327007171212,-5.181649942194324 L-92.02796847536958,-3.922125494190981 L-94.32586247091112,-3.146819735086294" fill="orange" fill-opacity="0.6" stroke="black" stroke-width="1" />
<path d="M-91.18327007171212,5.181649942194324 L-92.02796847536958,3.922125494190981 L-94.32586247091112,3.146819735086294" fill="orange" fill-opacity="0.6" stroke="black" stroke-width="1" />
<path d="M-92.02796847536958,-3.922125494190981 L-94.32586247091112,-3.146819735086294 L-95.54134692701248,-1.1864710632275302" fill="blue" fill-opacity="0.6" stroke="black" stroke-width="1" />
<path d="M-92.02796847536958,3.922125494190981 L-94.32586247091112,3.146819735086294 L-95.54134692701248,1.1864710632275302" fill="pink" fill-opacity="0.6" stroke="black" stroke-width="1" />
<path d="M-94.32586247091112,-3.146819735086294 L-95.54134692701248,-1.1864710632275302 L-96.0,-4.0" fill="yellow" fill-opacity="0.6" stroke="black" stroke-width="1" />
<path d="M-94.32586247091112,3.146819735086294 L-95.54134692701248,1.1864710632275302 L-96.0,4.0" fill="yellow" fill-opacity="0.6" stroke="black" stroke-width="1" />
<path d="M-95.54134692701248,-1.1864710632275302 L-96.0,-4.0 L-100.0,-0.0" fill="orange" fill-opacity="0.6" stroke="black" stroke-width="1" />
<path d="M-95.54134692701248,1.1864710632275302 L-96.0,4.0 L-100.0,-0.0" fill="brown" fill-opacity="0.6" stroke="black" stroke-width="1" />
</svg>