<?xml version="1.0" encoding="UTF-8"?>
<svg xmlns="http://www.w3.org/2000/svg" xmlns:xlink="http://www.w3.org/1999/xlink"
     width="250" height="250" viewBox="-125.0 -125.0 250 250">
<defs>
</defs>
<path d="M47.0,53.0 L46.0,54.0 L31.0,69.0" fill-opacity="0" stroke="black" stroke-width="1" />
<path d="M47.0,-53.0 L46.0,-54.0 L31.0,-69.0" fill-opacity="0" stroke="black" stroke-width="1" />
<path d="M50.0,50.0 L47.0,53.0 L46.0,54.0" fill-opacity="0" stroke="black" stroke-width="1" />
<path d="M50.0,-50.0 L47.0,-53.0 L46.0,-54.0" fill-opacity="0" stroke="black" stroke-width="1" />
<path d="M50.0,-13.0 L42.34215920242159,-13.534321488988699 L44.57495173035426,-21.91103283072023" fill-opacity="0" stroke="black" stroke-width="1" />
<path d="M50.0,13.0 L42.34215920242159,13.534321488988699 L44.57495173035426,21.91103283072023" fill-opacity="0" stroke="black" stroke-width="1" />
<path d="M42.34215920242159,-13.534321488988699 L44.57495173035426,-21.91103283072023 L50.0,-23.0" fill-opacity="0" stroke="black" stroke-width="1" />
<path d="M42.34215920242159,13.534321488988699 L44.57495173035426,21.91103283072023 L50.0,23.0" fill-opacity="0" stroke="black" stroke-width="1" />
<path d="M50.0,-34.0 L46.10813793758212,-37.32808924414331 L50.0,-49.0" fill-opacity="0" stroke="black" stroke-width="1" />
<path d="M50.0,34.0 L46.10813793758212,37.32808924414331 L50.0,49.0" fill-opacity="0" stroke="black" stroke-width="1" />
<path d="M46.0,54.0 L31.0,69.0 L21.0,79.0" fill-opacity="0" stroke="black" stroke-width="1" />
<path d="M46.0,-54.0 L31.0,-69.0 L21.0,-79.0" fill-opacity="0" stroke="black" stroke-width="1" />
<path d="M31.0,69.0 L21.0,79.0 L10.0,90.0" fill-opacity="0" stroke="black" stroke-width="1" />
<path d="M31.0,-69.0 L21.0,-79.0 L10.0,-90.0" fill-opacity="0" stroke="black" stroke-width="1" />
<path d="M21.0,79.0 L10.0,90.0 L7.829757886443635,90.77010937604612" fill-opacity="0" stroke="black" stroke-width="1" />
<path d="M21.0,-79.0 L10.0,-90.0 L7.829757886443635,-90.77010937604612" fill-opacity="0" stroke="black" stroke-width="1" />
<path d="M10.0,-10.0 L9.229890623953883,-7.829757886443635 L6.0,-6.0" fill-opacity="0" stroke="black" stroke-width="1" />
<path d="M10.0,10.0 L9.229890623953883,7.829757886443635 L6.0,6.0" fill-opacity="0" stroke="black" stroke-width="1" />
<path d="M7.829757886443635,90.77010937604612 L6.0,94.0 L5.0,95.0" fill-opacity="0" stroke="black" stroke-width="1" />
<path d="M7.829757886443635,-90.77010937604612 L6.0,-94.0 L5.0,-95.0" fill-opacity="0" stroke="black" stroke-width="1" />
<path d="M6.0,94.0 L5.0,95.0 L2.883344265670482,96.655943822213" fill-opacity="0" stroke="black" stroke-width="1" />
<path d="M6.0,-94.0 L5.0,-95.0 L2.883344265670482,-96.655943822213" fill-opacity="0" stroke="black" stroke-width="1" />
<path d="M5.0,-5.0 L3.3440561777869857,-2.883344265670482 L2.0,-2.0" fill-opacity="0" stroke="black" stroke-width="1" />
<path d="M5.0,5.0 L3.3440561777869857,2.883344265670482 L2.0,2.0" fill-opacity="0" stroke="black" stroke-width="1" />
<path d="M2.883344265670482,96.655943822213 L2.0,98.0 L0.8330339346939171,98.03455069633573" fill-opacity="0" stroke="black" stroke-width="1" />
<path d="M2.883344265670482,-96.655943822213 L2.0,-98.0 L0.8330339346939171,-98.03455069633573" fill-opacity="0" stroke="black" stroke-width="1" />
<path d="M2.0,-2.0 L1.965449303664274,-0.8330339346939171 L0.5593975271439122,-0.29807595560381317" fill-opacity="0" stroke="black" stroke-width="1" />
<path d="M2.0,2.0 L1.965449303664274,0.8330339346939171 L0.5593975271439122,0.29807595560381317" fill-opacity="0" stroke="black" stroke-width="1" />
<path d="M1.965449303664274,-0.8330339346939171 L0.5593975271439122,-0.29807595560381317 L0.0,-0.0" fill-opacity="0" stroke="black" stroke-width="1" />
<path d="M1.965449303664274,0.8330339346939171 L0.5593975271439122,0.29807595560381317 L0.0,-0.0" fill-opacity="0" stroke="black" stroke-width="1" />
<path d="M-47.0,53.0 L-46.0,54.0 L-31.0,69.0" fill-opacity="0" stroke="black" stroke-width="1" />
<path d="M-47.0,-53.0 L-46.0,-54.0 L-31.0,-69.0" fill-opacity="0" stroke="black" stroke-width="1" />
<path d="M-50.0,50.0 L-47.0,53.0 L-46.0,54.0" fill-opacity="0" stroke="black" stroke-width="1" />
<path d="M-50.0,-50.0 L-47.0,-53.0 L-46.0,-54.0" fill-opacity="0" stroke="black" stroke-width="1" />
<path d="M-50.0,-13.0 L-42.34215920242159,-13.534321488988699 L-44.57495173035426,-21.91103283072023" fill-opacity="0" stroke="black" stroke-width="1" />
<path d="M-50.0,13.0 L-42.34215920242159,13.534321488988699 L-44.57495173035426,21.91103283072023" fill-opacity="0" stroke="black" stroke-width="1" />
<path d="M-42.34215920242159,-13.534321488988699 L-44.57495173035426,-21.91103283072023 L-50.0,-23.0" fill-opacity="0" stroke="black" stroke-width="1" />
<path d="M-42.34215920242159,13.534321488988699 L-44.57495173035426,21.91103283072023 L-50.0,23.0" fill-opacity="0" stroke="black" stroke-width="1" />
<path d="M-50.0,-34.0 L-46.10813793758212,-37.32808924414331 L-50.0,-49.0" fill-opacity="0" stroke="black" stroke-width="1" />
<path d="M-50.0,34.0 L-46.10813793758212,37.32808924414331 L-50.0,49.0" fill-opacity="0" stroke="black" stroke-width="1" />
<path d="M-46.0,54.0 L-31.0,69.0 L-21.0,79.0" fill-opacity="0" stroke="black" stroke-width="1" />
<path d="M-46.0,-54.0 L-31.0,-69.0 L-21.0,-79.0" fill-opacity="0" stroke="black" stroke-width="1" />
<path d="M-31.0,69.0 L-21.0,79.0 L-10.0,90.0" fill-opacity="0" stroke="black" stroke-width="1" />
<path d="M-31.0,-69.0 L-21.0,-79.0 L-10.0,-90.0" fill-opacity="0" stroke="black" stroke-width="1" />
<path d="M-21.0,79.0 L-10.0,90.0 L-7.829757886443635,90.77010937604612" fill-opacity="0" stroke="black" stroke-width="1" />
<path d="M-21.0,-79.0 L-10.0,-90.0 L-7.829757886443635,-90.77010937604612" fill-opacity="0" stroke="black" stroke-width="1" />
<path d="M-10.0,-10.0 L-9.229890623953883,-7.829757886443635 L-6.0,-6.0" fill-opacity="0" stroke="black" stroke-width="1" />
<path d="M-10.0,10.0 L-9.229890623953883,7.829757886443635 L-6.0,6.0" fill-opacity="0" stroke="black" stroke-width="1" />
<path d="M-7.829757886443635,90.77010937604612 L-6.0,94.0 L-5.0,95.0" fill-opacity="0" stroke="black" stroke-width="1" />
<path d="M-7.829757886443635,-90.77010937604612 L-6.0,-94.0 L-5.0,-95.0" fill-opacity="0" stroke="black" stroke-width="1" />
<path d="M-6.0,94.0 L-5.0,95.0 L-2.883344265670482,96.65594382221302" fill-opacity="0" stroke="black" stroke-width="1" />
<path d="M-6.0,-94.0 L-5.0,-95.0 L-2.883344265670482,-96.655943822213" fill-opacity="0" stroke="black" stroke-width="1" />
<path d="M-5.0,-5.0 L-3.3440561777869857,-2.883344265670482 L-2.0,-2.0" fill-opacity="0" stroke="black" stroke-width="1" />
<path d="M-5.0,5.0 L-3.3440561777869857,2.883344265670482 L-2.0,2.0" fill-opacity="0" stroke="black" stroke-width="1" />
<path d="M-2.883344265670482,96.65594382221302 L-2.0,98.0 L-0.8330339346939171,98.03455069633573" fill-opacity="0" stroke="black" stroke-width="1" />
<path d="M-2.883344265670482,-96.655943822213 L-2.0,-98.0 L-0.8330339346939171,-98.03455069633573" fill-opacity="0" stroke="black" stroke-width="1" />
<path d="M-2.0,-2.0 L-1.965449303664274,-0.8330339346939171 L-0.5593975271439122,-0.29807595560381317" fill-opacity="0" stroke="black" stroke-width="1" />
<path d="M-2.0,2.0 L-1.965449303664274,0.8330339346939171 L-0.5593975271439122,0.29807595560381317" fill-opacity="0" stroke="black" stroke-width="1" />
<path d="M-1.965449303664274,-0.8330339346939171 L-0.5593975271439122,-0.29807595560381317 L0.0,-0.0" fill-opacity="0" stroke="black" stroke-width="1" />
<path d="M-1.965449303664274,0.8330339346939171 L-0.5593975271439122,0.29807595560381317 L0.0,-0.0" fill-opacity="0" stroke="black" stroke-width="1" />
<path d="M53.0,47.0 L54.0,46.0 L69.0,31.0" fill-opacity="0" stroke="black" stroke-width="1" />
<path d="M53.0,-47.0 L54.0,-46.0 L69.0,-31.0" fill-opacity="0" stroke="black" stroke-width="1" />
<path d="M50.0,50.0 L53.0,47.0 L54.0,46.0" fill-opacity="0" stroke="black" stroke-width="1" />
<path d="M50.0,-50.0 L53.0,-47.0 L54.0,-46.0" fill-opacity="0" stroke="black" stroke-width="1" />
<path d="M50.0,13.0 L57.65784079757841,13.534321488988699 L55.42504826964574,21.91103283072023" fill-opacity="0" stroke="black" stroke-width="1" />
<path d="M50.0,-13.0 L57.65784079757841,-13.534321488988699 L55.42504826964574,-21.91103283072023" fill-opacity="0" stroke="black" stroke-width="1" />
<path d="M57.65784079757841,13.534321488988699 L55.42504826964574,21.91103283072023 L50.0,23.0" fill-opacity="0" stroke="black" stroke-width="1" />
<path d="M57.65784079757841,-13.534321488988699 L55.42504826964574,-21.91103283072023 L50.0,-23.0" fill-opacity="0" stroke="black" stroke-width="1" />
<path d="M50.0,34.0 L53.89186206241788,37.32808924414331 L50.0,49.0" fill-opacity="0" stroke="black" stroke-width="1" />
<path d="M50.0,-34.0 L53.89186206241788,-37.32808924414331 L50.0,-49.0" fill-opacity="0" stroke="black" stroke-width="1" />
<path d="M54.0,46.0 L69.0,31.0 L79.0,21.0" fill-opacity="0" stroke="black" stroke-width="1" />
<path d="M54.0,-46.0 L69.0,-31.0 L79.0,-21.0" fill-opacity="0" stroke="black" stroke-width="1" />
<path d="M69.0,31.0 L79.0,21.0 L90.0,10.0" fill-opacity="0" stroke="black" stroke-width="1" />
<path d="M69.0,-31.0 L79.0,-21.0 L90.0,-10.0" fill-opacity="0" stroke="black" stroke-width="1" />
<path d="M79.0,21.0 L90.0,10.0 L90.77010937604612,7.829757886443635" fill-opacity="0" stroke="black" stroke-width="1" />
<path d="M79.0,-21.0 L90.0,-10.0 L90.77010937604612,-7.829757886443635" fill-opacity="0" stroke="black" stroke-width="1" />
<path d="M90.0,10.0 L90.77010937604612,7.829757886443635 L94.0,6.0" fill-opacity="0" stroke="black" stroke-width="1" />
<path d="M90.0,-10.0 L90.77010937604612,-7.829757886443635 L94.0,-6.0" fill-opacity="0" stroke="black" stroke-width="1" />
<path d="M90.77010937604612,7.829757886443635 L94.0,6.0 L95.0,5.0" fill-opacity="0" stroke="black" stroke-width="1" />
<path d="M90.77010937604612,-7.829757886443635 L94.0,-6.0 L95.0,-5.0" fill-opacity="0" stroke="black" stroke-width="1" />
<path d="M94.0,6.0 L95.0,5.0 L96.655943822213,2.883344265670482" fill-opacity="0" stroke="black" stroke-width="1" />
<path d="M94.0,-6.0 L95.0,-5.0 L96.655943822213,-2.883344265670482" fill-opacity="0" stroke="black" stroke-width="1" />
<path d="M95.0,5.0 L96.655943822213,2.883344265670482 L98.0,2.0" fill-opacity="0" stroke="black" stroke-width="1" />
<path d="M95.0,-5.0 L96.655943822213,-2.883344265670482 L98.0,-2.0" fill-opacity="0" stroke="black" stroke-width="1" />
<path d="M96.655943822213,2.883344265670482 L98.0,2.0 L98.03455069633573,0.8330339346939171" fill-opacity="0" stroke="black" stroke-width="1" />
<path d="M96.655943822213,-2.883344265670482 L98.0,-2.0 L98.03455069633573,-0.8330339346939171" fill-opacity="0" stroke="black" stroke-width="1" />
<path d="M98.0,2.0 L98.03455069633573,0.8330339346939171 L99.44060247285609,0.29807595560381317" fill-opacity="0" stroke="black" stroke-width="1" />
<path d="M98.0,-2.0 L98.03455069633573,-0.8330339346939171 L99.44060247285609,-0.29807595560381317" fill-opacity="0" stroke="black" stroke-width="1" />
<path d="M98.03455069633573,0.8330339346939171 L99.44060247285609,0.29807595560381317 L100.0,-0.0" fill-opacity="0" stroke="black" stroke-width="1" />
<path d="M98.03455069633573,-0.8330339346939171 L99.44060247285609,-0.29807595560381317 L100.0,-0.0" fill-opacity="0" stroke="black" stroke-width="1" />
<path d="M13.0,-50.0 L13.534321488988699,-42.34215920242159 L21.91103283072023,-44.57495173035426" fill-opacity="0" stroke="black" stroke-width="1" />
<path d="M13.0,50.0 L13.534321488988699,42.34215920242159 L21.91103283072023,44.57495173035426" fill-opacity="0" stroke="black" stroke-width="1" />
<path d="M13.0,50.0 L13.534321488988699,57.65784079757841 L21.91103283072023,55.42504826964574" fill-opacity="0" stroke="black" stroke-width="1" />
<path d="M13.0,-50.0 L13.534321488988699,-57.65784079757841 L21.91103283072023,-55.42504826964574" fill-opacity="0" stroke="black" stroke-width="1" />
<path d="M13.534321488988699,-42.34215920242159 L21.91103283072023,-44.57495173035426 L23.0,-50.0" fill-opacity="0" stroke="black" stroke-width="1" />
<path d="M13.534321488988699,42.34215920242159 L21.91103283072023,44.57495173035426 L23.0,50.0" fill-opacity="0" stroke="black" stroke-width="1" />
<path d="M13.534321488988699,57.65784079757841 L21.91103283072023,55.42504826964574 L23.0,50.0" fill-opacity="0" stroke="black" stroke-width="1" />
<path d="M13.534321488988699,-57.65784079757841 L21.91103283072023,-55.42504826964574 L23.0,-50.0" fill-opacity="0" stroke="black" stroke-width="1" />
<path d="M34.0,-50.0 L37.32808924414331,-46.10813793758212 L49.0,-50.0" fill-opacity="0" stroke="black" stroke-width="1" />
<path d="M34.0,50.0 L37.32808924414331,46.10813793758212 L49.0,50.0" fill-opacity="0" stroke="black" stroke-width="1" />
<path d="M34.0,50.0 L37.32808924414331,53.89186206241788 L49.0,50.0" fill-opacity="0" stroke="black" stroke-width="1" />
<path d="M34.0,-50.0 L37.32808924414331,-53.89186206241788 L49.0,-50.0" fill-opacity="0" stroke="black" stroke-width="1" />
<path d="M10.0,-10.0 L7.829757886443635,-9.229890623953883 L6.0,-6.0" fill-opacity="0" stroke="black" stroke-width="1" />
<path d="M10.0,10.0 L7.829757886443635,9.229890623953883 L6.0,6.0" fill-opacity="0" stroke="black" stroke-width="1" />
<path d="M10.0,90.0 L7.829757886443635,90.77010937604612 L6.0,94.0" fill-opacity="0" stroke="black" stroke-width="1" />
<path d="M10.0,-90.0 L7.829757886443635,-90.77010937604612 L6.0,-94.0" fill-opacity="0" stroke="black" stroke-width="1" />
<path d="M5.0,-5.0 L2.883344265670482,-3.3440561777869857 L2.0,-2.0" fill-opacity="0" stroke="black" stroke-width="1" />
<path d="M5.0,5.0 L2.883344265670482,3.3440561777869857 L2.0,2.0" fill-opacity="0" stroke="black" stroke-width="1" />
<path d="M5.0,95.0 L2.883344265670482,96.655943822213 L2.0,98.0" fill-opacity="0" stroke="black" stroke-width="1" />
<path d="M5.0,-95.0 L2.883344265670482,-96.655943822213 L2.0,-98.0" fill-opacity="0" stroke="black" stroke-width="1" />
<path d="M2.0,-2.0 L0.8330339346939171,-1.965449303664274 L0.29807595560381317,-0.5593975271439122" fill-opacity="0" stroke="black" stroke-width="1" />
<path d="M2.0,2.0 L0.8330339346939171,1.965449303664274 L0.29807595560381317,0.5593975271439122" fill-opacity="0" stroke="black" stroke-width="1" />
<path d="M2.0,98.0 L0.8330339346939171,98.03455069633573 L0.29807595560381317,99.44060247285609" fill-opacity="0" stroke="black" stroke-width="1" />
<path d="M2.0,-98.0 L0.8330339346939171,-98.03455069633573 L0.29807595560381317,-99.44060247285609" fill-opacity="0" stroke="black" stroke-width="1" />
<path d="M0.8330339346939171,-1.965449303664274 L0.29807595560381317,-0.5593975271439122 L0.0,-0.0" fill-opacity="0" stroke="black" stroke-width="1" />
<path d="M0.8330339346939171,1.965449303664274 L0.29807595560381317,0.5593975271439122 L0.0,-0.0" fill-opacity="0" stroke="black" stroke-width="1" />
<path d="M0.8330339346939171,98.03455069633573 L0.29807595560381317,99.44060247285609 L0.0,100.0" fill-opacity="0" stroke="black" stroke-width="1" />
<path d="M0.8330339346939171,-98.03455069633573 L0.29807595560381317,-99.44060247285609 L0.0,-100.0" fill-opacity="0" stroke="black" stroke-width="1" />
<path d="M-13.0,50.0 L-13.534321488988699,57.65784079757841 L-21.91103283072023,55.42504826964574" fill-opacity="0" stroke="black" stroke-width="1" />
<path d="M-13.0,-50.0 L-13.534321488988699,-42.34215920242159 L-21.91103283072023,-44.57495173035426" fill-opacity="0" stroke="black" stroke-width="1" />
<path d="M-13.0,50.0 L-13.534321488988699,42.34215920242159 L-21.91103283072023,44.57495173035426" fill-opacity="0" stroke="black" stroke-width="1" />
<path d="M-13.0,-50.0 L-13.534321488988699,-57.65784079757841 L-21.91103283072023,-55.42504826964574" fill-opacity="0" stroke="black" stroke-width="1" />
<path d="M-13.534321488988699,57.65784079757841 L-21.91103283072023,55.42504826964574 L-23.0,50.0" fill-opacity="0" stroke="black" stroke-width="1" />
<path d="M-13.534321488988699,-42.34215920242159 L-21.91103283072023,-44.57495173035426 L-23.0,-50.0" fill-opacity="0" stroke="black" stroke-width="1" />
<path d="M-13.534321488988699,42.34215920242159 L-21.91103283072023,44.57495173035426 L-23.0,50.0" fill-opacity="0" stroke="black" stroke-width="1" />
<path d="M-13.534321488988699,-57.65784079757841 L-21.91103283072023,-55.42504826964574 L-23.0,-50.0" fill-opacity="0" stroke="black" stroke-width="1" />
<path d="M-34.0,50.0 L-37.32808924414331,53.89186206241788 L-49.0,50.0" fill-opacity="0" stroke="black" stroke-width="1" />
<path d="M-34.0,-50.0 L-37.32808924414331,-46.10813793758212 L-49.0,-50.0" fill-opacity="0" stroke="black" stroke-width="1" />
<path d="M-34.0,50.0 L-37.32808924414331,46.10813793758212 L-49.0,50.0" fill-opacity="0" stroke="black" stroke-width="1" />
<path d="M-34.0,-50.0 L-37.32808924414331,-53.89186206241788 L-49.0,-50.0" fill-opacity="0" stroke="black" stroke-width="1" />
<path d="M-10.0,90.0 L-7.829757886443635,90.77010937604612 L-6.0,94.0" fill-opacity="0" stroke="black" stroke-width="1" />
<path d="M-10.0,-10.0 L-7.829757886443635,-9.229890623953883 L-6.0,-6.0" fill-opacity="0" stroke="black" stroke-width="1" />
<path d="M-10.0,10.0 L-7.829757886443635,9.229890623953878 L-6.0,6.0" fill-opacity="0" stroke="black" stroke-width="1" />
<path d="M-10.0,-90.0 L-7.829757886443635,-90.77010937604612 L-6.0,-94.0" fill-opacity="0" stroke="black" stroke-width="1" />
<path d="M-5.0,95.0 L-2.883344265670482,96.65594382221302 L-2.0,98.0" fill-opacity="0" stroke="black" stroke-width="1" />
<path d="M-5.0,-5.0 L-2.883344265670482,-3.3440561777869857 L-2.0,-2.0" fill-opacity="0" stroke="black" stroke-width="1" />
<path d="M-5.0,5.0 L-2.883344265670482,3.3440561777869817 L-2.0,2.0" fill-opacity="0" stroke="black" stroke-width="1" />
<path d="M-5.0,-95.0 L-2.883344265670482,-96.655943822213 L-2.0,-98.0" fill-opacity="0" stroke="black" stroke-width="1" />
<path d="M-2.0,98.0 L-0.8330339346939171,98.03455069633573 L-0.29807595560381317,99.44060247285609" fill-opacity="0" stroke="black" stroke-width="1" />
<path d="M-2.0,-2.0 L-0.8330339346939171,-1.965449303664274 L-0.29807595560381317,-0.5593975271439122" fill-opacity="0" stroke="black" stroke-width="1" />
<path d="M-2.0,2.0 L-0.8330339346939171,1.965449303664272 L-0.29807595560381317,0.5593975271439149" fill-opacity="0" stroke="black" stroke-width="1" />
<path d="M-2.0,-98.0 L-0.8330339346939171,-98.03455069633573 L-0.29807595560381317,-99.44060247285609" fill-opacity="0" stroke="black" stroke-width="1" />
<path d="M-0.8330339346939171,98.03455069633573 L-0.29807595560381317,99.44060247285609 L0.0,100.0" fill-opacity="0" stroke="black" stroke-width="1" />
<path d="M-0.8330339346939171,-1.965449303664274 L-0.29807595560381317,-0.5593975271439122 L0.0,-0.0" fill-opacity="0" stroke="black" stroke-width="1" />
<path d="M-0.8330339346939171,1.965449303664272 L-0.29807595560381317,0.5593975271439149 L0.0,-0.0" fill-opacity="0" stroke="black" stroke-width="1" />
<path d="M-0.8330339346939171,-98.03455069633573 L-0.29807595560381317,-99.44060247285609 L0.0,-100.0" fill-opacity="0" stroke="black" stroke-width="1" />
<path d="M-53.0,-47.0 L-54.0,-46.0 L-69.0,-31.0" fill-opacity="0" stroke="black" stroke-width="1" />
<path d="M-53.0,47.0 L-54.0,46.0 L-69.0,31.0" fill-opacity="0" stroke="black" stroke-width="1" />
<path d="M-50.0,-50.0 L-53.0,-47.0 L-54.0,-46.0" fill-opacity="0" stroke="black" stroke-width="1" />
<path d="M-50.0,50.0 L-53.0,47.0 L-54.0,46.0" fill-opacity="0" stroke="black" stroke-width="1" />
<path d="M-50.0,-13.0 L-57.65784079757841,-13.534321488988699 L-55.42504826964574,-21.91103283072023" fill-opacity="0" stroke="black" stroke-width="1" />
<path d="M-50.0,13.0 L-57.65784079757841,13.534321488988699 L-55.42504826964574,21.91103283072023" fill-opacity="0" stroke="black" stroke-width="1" />
<path d="M-57.65784079757841,-13.534321488988699 L-55.42504826964574,-21.91103283072023 L-50.0,-23.0" fill-opacity="0" stroke="black" stroke-width="1" />
<path d="M-57.65784079757841,13.534321488988699 L-55.42504826964574,21.91103283072023 L-50.0,23.0" fill-opacity="0" stroke="black" stroke-width="1" />
<path d="M-50.0,-34.0 L-53.89186206241788,-37.32808924414331 L-50.0,-49.0" fill-opacity="0" stroke="black" stroke-width="1" />
<path d="M-50.0,34.0 L-53.89186206241788,37.32808924414331 L-50.0,49.0" fill-opacity="0" stroke="black" stroke-width="1" />
<path d="M-54.0,-46.0 L-69.0,-31.0 L-79.0,-21.0" fill-opacity="0" stroke="black" stroke-width="1" />
<path d="M-54.0,46.0 L-69.0,31.0 L-79.0,21.0" fill-opacity="0" stroke="black" stroke-width="1" />
<path d="M-69.0,-31.0 L-79.0,-21.0 L-90.0,-10.0" fill-opacity="0" stroke="black" stroke-width="1" />
<path d="M-69.0,31.0 L-79.0,21.0 L-90.0,10.0" fill-opacity="0" stroke="black" stroke-width="1" />
<path d="M-79.0,-21.0 L-90.0,-10.0 L-90.77010937604612,-7.829757886443635" fill-opacity="0" stroke="black" stroke-width="1" />
<path d="M-79.0,21.0 L-90.0,10.0 L-90.77010937604612,7.829757886443635" fill-opacity="0" stroke="black" stroke-width="1" />
<path d="M-90.0,-10.0 L-90.77010937604612,-7.829757886443635 L-94.0,-6.0" fill-opacity="0" stroke="black" stroke-width="1" />
<path d="M-90.0,10.0 L-90.77010937604612,7.829757886443635 L-94.0,6.0" fill-opacity="0" stroke="black" stroke-width="1" />
<path d="M-90.77010937604612,-7.829757886443635 L-94.0,-6.0 L-95.0,-5.0" fill-opacity="0" stroke="black" stroke-width="1" />
<path d="M-90.77010937604612,7.829757886443635 L-94.0,6.0 L-95.0,5.0" fill-opacity="0" stroke="black" stroke-width="1" />
<path d="M-94.0,-6.0 L-95.0,-5.0 L-96.655943822213,-2.883344265670482" fill-opacity="0" stroke="black" stroke-width="1" />
<path d="M-94.0,6.0 L-95.0,5.0 L-96.655943822213,2.883344265670482" fill-opacity="0" stroke="black" stroke-width="1" />
<path d="M-95.0,-5.0 L-96.655943822213,-2.883344265670482 L-98.0,-2.0" fill-opacity="0" stroke="black" stroke-width="1" />
<path d="M-95.0,5.0 L-96.655943822213,2.883344265670482 L-98.0,2.0" fill-opacity="0" stroke="black" stroke-width="1" />
<path d="M-96.655943822213,-2.883344265670482 L-98.0,-2.0 L-98.03455069633573,-0.8330339346939171" fill-opacity="0" stroke="black" stroke-width="1" />
<path d="M-96.655943822213,2.883344265670482 L-98.0,2.0 L-98.03455069633573,0.8330339346939171" fill-opacity="0" stroke="black" stroke-width="1" />
<path d="M-98.0,-2.0 L-98.03455069633573,-0.8330339346939171 L-99.44060247285609,-0.29807595560381317" fill-opacity="0" stroke="black" stroke-width="1" />
<path d="M-98.0,2.0 L-98.03455069633573,0.8330339346939171 L-99.44060247285609,0.29807595560381317" fill-opacity="0" stroke="black" stroke-width="1" />
<path d="M-98.03455069633573,-0.8330339346939171 L-99.44060247285609,-0.29807595560381317 L-100.0,-0.0" fill-opacity="0" stroke="black" stroke-width="1" />
<path d="M-98.03455069633573,0.8330339346939171 L-99.44060247285609,0.29807595560381317 L-100.0,-0.0" fill-opacity="0" stroke="black" stroke-width="1" />
<circle cx="0" cy="-97" r="8" stroke-dasharray="39.653880605311166 10.611601852125524" stroke-dashoffset="-17.59291886010284" stroke="black" stroke-width="1" fill="white" fill-opacity="1" />
<circle cx="0" cy="-97" r="4" stroke="black" stroke-width="1" fill="white" fill-opacity="1" />
</svg>