<?xml version="1.0" encoding="UTF-8"?>
<svg xmlns="http://www.w3.org/2000/svg" xmlns:xlink="http://www.w3.org/1999/xlink"
     width="250" height="250" viewBox="-125.0 -125.0 250 250">
<defs>
</defs>
<path d="M10.0,-0.0 L11.045716911993658,-2.455960414865105 L13.74855735629048,-2.65077651500416" fill-opacity="0" stroke="black" stroke-width="1" />
<path d="M10.0,-0.0 L11.045716911993658,2.455960414865105 L13.74855735629048,2.65077651500416" fill-opacity="0" stroke="black" stroke-width="1" />
<path d="M11.045716911993658,-2.455960414865105 L13.74855735629048,-2.65077651500416 L15.082068618246907,-4.682234661618328" fill-opacity="0" stroke="black" stroke-width="1" />
<path d="M11.045716911993658,2.455960414865105 L13.74855735629048,2.65077651500416 L15.082068618246907,4.682234661618328" fill-opacity="0" stroke="black" stroke-width="1" />
<path d="M13.74855735629048,-2.65077651500416 L15.082068618246907,-4.682234661618328 L20.115191511122816,-6.6905787075551535" fill-opacity="0" stroke="black" stroke-width="1" />
<path d="M13.74855735629048,2.65077651500416 L15.082068618246907,4.682234661618328 L20.115191511122816,6.6905787075551535" fill-opacity="0" stroke="black" stroke-width="1" />
<path d="M15.082068618246907,-4.682234661618328 L20.115191511122816,-6.6905787075551535 L25.0,-0.0" fill-opacity="0" stroke="black" stroke-width="1" />
<path d="M15.082068618246907,4.682234661618328 L20.115191511122816,6.6905787075551535 L25.0,-0.0" fill-opacity="0" stroke="black" stroke-width="1" />
<path d="M32.0,68.0 L25.0,75.0 L1.9588337551595711,91.91895133754457" fill-opacity="0" stroke="black" stroke-width="1" />
<path d="M32.0,-68.0 L25.0,-75.0 L1.9588337551595711,-91.91895133754457" fill-opacity="0" stroke="black" stroke-width="1" />
<path d="M25.0,-0.0 L28.14056868345072,-9.23796503757095 L28.518020751173996,-19.79551540194112" fill-opacity="0" stroke="black" stroke-width="1" />
<path d="M25.0,-0.0 L28.14056868345072,9.23796503757095 L28.518020751173996,19.79551540194112" fill-opacity="0" stroke="black" stroke-width="1" />
<path d="M28.14056868345072,-9.23796503757095 L28.518020751173996,-19.79551540194112 L44.0,-0.0" fill-opacity="0" stroke="black" stroke-width="1" />
<path d="M28.14056868345072,9.23796503757095 L28.518020751173996,19.79551540194112 L44.0,-0.0" fill-opacity="0" stroke="black" stroke-width="1" />
<path d="M50.0,-20.0 L36.582948262919075,-20.38703006377613 L50.0,-29.0" fill-opacity="0" stroke="black" stroke-width="1" />
<path d="M50.0,20.0 L36.582948262919075,20.38703006377613 L50.0,29.0" fill-opacity="0" stroke="black" stroke-width="1" />
<path d="M50.0,-29.0 L47.247676898443416,-33.63068777509336 L50.0,-50.0" fill-opacity="0" stroke="black" stroke-width="1" />
<path d="M50.0,29.0 L47.247676898443416,33.63068777509336 L50.0,50.0" fill-opacity="0" stroke="black" stroke-width="1" />
<path d="M50.0,50.0 L42.0,58.0 L33.01260096882522,62.79539579317467" fill-opacity="0" stroke="black" stroke-width="1" />
<path d="M50.0,-50.0 L42.0,-58.0 L33.01260096882522,-62.79539579317467" fill-opacity="0" stroke="black" stroke-width="1" />
<path d="M42.0,-42.0 L37.20460420682533,-33.01260096882522 L32.0,-32.0" fill-opacity="0" stroke="black" stroke-width="1" />
<path d="M42.0,42.0 L37.20460420682533,33.01260096882522 L32.0,32.0" fill-opacity="0" stroke="black" stroke-width="1" />
<path d="M33.01260096882522,62.79539579317467 L32.0,68.0 L25.0,75.0" fill-opacity="0" stroke="black" stroke-width="1" />
<path d="M33.01260096882522,-62.79539579317467 L32.0,-68.0 L25.0,-75.0" fill-opacity="0" stroke="black" stroke-width="1" />
<path d="M25.0,-25.0 L8.081048662455432,-1.9588337551595711 L2.775518473688588,-0.8035678239282487" fill-opacity="0" stroke="black" stroke-width="1" />
<path d="M25.0,25.0 L8.081048662455432,1.9588337551595711 L2.775518473688588,0.8035678239282487" fill-opacity="0" stroke="black" stroke-width="1" />
<path d="M8.081048662455432,-1.9588337551595711 L2.775518473688588,-0.8035678239282487 L1.3732032002034655,-0.4902126781211491" fill-opacity="0" stroke="black" stroke-width="1" />
<path d="M8.081048662455432,1.9588337551595711 L2.775518473688588,0.8035678239282487 L1.3732032002034655,0.4902126781211491" fill-opacity="0" stroke="black" stroke-width="1" />
<path d="M2.775518473688588,-0.8035678239282487 L1.3732032002034655,-0.4902126781211491 L0.0,-0.0" fill-opacity="0" stroke="black" stroke-width="1" />
<path d="M2.775518473688588,0.8035678239282487 L1.3732032002034655,0.4902126781211491 L0.0,-0.0" fill-opacity="0" stroke="black" stroke-width="1" />
<path d="M-10.0,-0.0 L-11.045716911993658,-2.455960414865105 L-13.74855735629048,-2.65077651500416" fill-opacity="0" stroke="black" stroke-width="1" />
<path d="M-10.0,-0.0 L-11.045716911993658,2.455960414865105 L-13.74855735629048,2.65077651500416" fill-opacity="0" stroke="black" stroke-width="1" />
<path d="M-11.045716911993658,-2.455960414865105 L-13.74855735629048,-2.65077651500416 L-15.082068618246907,-4.682234661618328" fill-opacity="0" stroke="black" stroke-width="1" />
<path d="M-11.045716911993658,2.455960414865105 L-13.74855735629048,2.65077651500416 L-15.082068618246907,4.682234661618328" fill-opacity="0" stroke="black" stroke-width="1" />
<path d="M-13.74855735629048,-2.65077651500416 L-15.082068618246907,-4.682234661618328 L-20.115191511122816,-6.6905787075551535" fill-opacity="0" stroke="black" stroke-width="1" />
<path d="M-13.74855735629048,2.65077651500416 L-15.082068618246907,4.682234661618328 L-20.115191511122816,6.6905787075551535" fill-opacity="0" stroke="black" stroke-width="1" />
<path d="M-15.082068618246907,-4.682234661618328 L-20.115191511122816,-6.6905787075551535 L-25.0,-0.0" fill-opacity="0" stroke="black" stroke-width="1" />
<path d="M-15.082068618246907,4.682234661618328 L-20.115191511122816,6.6905787075551535 L-25.0,-0.0" fill-opacity="0" stroke="black" stroke-width="1" />
<path d="M-32.0,68.0 L-25.0,75.0 L-1.9588337551595711,91.91895133754457" fill-opacity="0" stroke="black" stroke-width="1" />
<path d="M-32.0,-68.0 L-25.0,-75.0 L-1.9588337551595711,-91.91895133754457" fill-opacity="0" stroke="black" stroke-width="1" />
<path d="M-25.0,-0.0 L-28.14056868345072,-9.23796503757095 L-28.518020751173996,-19.79551540194112" fill-opacity="0" stroke="black" stroke-width="1" />
<path d="M-25.0,-0.0 L-28.14056868345072,9.23796503757095 L-28.518020751173996,19.79551540194112" fill-opacity="0" stroke="black" stroke-width="1" />
<path d="M-28.14056868345072,-9.23796503757095 L-28.518020751173996,-19.79551540194112 L-44.0,-0.0" fill-opacity="0" stroke="black" stroke-width="1" />
<path d="M-28.14056868345072,9.23796503757095 L-28.518020751173996,19.79551540194112 L-44.0,-0.0" fill-opacity="0" stroke="black" stroke-width="1" />
<path d="M-50.0,-20.0 L-36.582948262919075,-20.38703006377613 L-50.0,-29.0" fill-opacity="0" stroke="black" stroke-width="1" />
<path d="M-50.0,20.0 L-36.582948262919075,20.38703006377613 L-50.0,29.0" fill-opacity="0" stroke="black" stroke-width="1" />
<path d="M-50.0,-29.0 L-47.247676898443416,-33.63068777509336 L-50.0,-50.0" fill-opacity="0" stroke="black" stroke-width="1" />
<path d="M-50.0,29.0 L-47.247676898443416,33.63068777509336 L-50.0,50.0" fill-opacity="0" stroke="black" stroke-width="1" />
<path d="M-50.0,50.0 L-42.0,58.0 L-33.01260096882522,62.79539579317467" fill-opacity="0" stroke="black" stroke-width="1" />
<path d="M-50.0,-50.0 L-42.0,-58.0 L-33.01260096882522,-62.79539579317467" fill-opacity="0" stroke="black" stroke-width="1" />
<path d="M-42.0,-42.0 L-37.20460420682533,-33.01260096882522 L-32.0,-32.0" fill-opacity="0" stroke="black" stroke-width="1" />
<path d="M-42.0,42.0 L-37.20460420682533,33.01260096882522 L-32.0,32.0" fill-opacity="0" stroke="black" stroke-width="1" />
<path d="M-33.01260096882522,62.79539579317467 L-32.0,68.0 L-25.0,75.0" fill-opacity="0" stroke="black" stroke-width="1" />
<path d="M-33.01260096882522,-62.79539579317467 L-32.0,-68.0 L-25.0,-75.0" fill-opacity="0" stroke="black" stroke-width="1" />
<path d="M-25.0,-25.0 L-8.081048662455432,-1.9588337551595711 L-2.775518473688588,-0.8035678239282487" fill-opacity="0" stroke="black" stroke-width="1" />
<path d="M-25.0,25.0 L-8.081048662455432,1.9588337551595711 L-2.775518473688588,0.8035678239282487" fill-opacity="0" stroke="black" stroke-width="1" />
<path d="M-8.081048662455432,-1.9588337551595711 L-2.775518473688588,-0.8035678239282487 L-1.3732032002034655,-0.4902126781211491" fill-opacity="0" stroke="black" stroke-width="1" />
<path d="M-8.081048662455432,1.9588337551595711 L-2.775518473688588,0.8035678239282487 L-1.3732032002034655,0.4902126781211491" fill-opacity="0" stroke="black" stroke-width="1" />
<path d="M-2.775518473688588,-0.8035678239282487 L-1.3732032002034655,-0.4902126781211491 L0.0,-0.0" fill-opacity="0" stroke="black" stroke-width="1" />
<path d="M-2.775518473688588,0.8035678239282487 L-1.3732032002034655,0.4902126781211491 L0.0,-0.0" fill-opacity="0" stroke="black" stroke-width="1" />
<path d="M90.0,-0.0 L88.95428308800635,2.455960414865105 L86.25144264370952,2.65077651500416" fill-opacity="0" stroke="black" stroke-width="1" />
<path d="M90.0,-0.0 L88.95428308800635,-2.455960414865105 L86.25144264370952,-2.65077651500416" fill-opacity="0" stroke="black" stroke-width="1" />
<path d="M88.95428308800635,2.455960414865105 L86.25144264370952,2.65077651500416 L84.91793138175309,4.682234661618328" fill-opacity="0" stroke="black" stroke-width="1" />
<path d="M88.95428308800635,-2.455960414865105 L86.25144264370952,-2.65077651500416 L84.91793138175309,-4.682234661618328" fill-opacity="0" stroke="black" stroke-width="1" />
<path d="M86.25144264370952,2.65077651500416 L84.91793138175309,4.682234661618328 L79.88480848887718,6.6905787075551535" fill-opacity="0" stroke="black" stroke-width="1" />
<path d="M86.25144264370952,-2.65077651500416 L84.91793138175309,-4.682234661618328 L79.88480848887718,-6.6905787075551535" fill-opacity="0" stroke="black" stroke-width="1" />
<path d="M84.91793138175309,4.682234661618328 L79.88480848887718,6.6905787075551535 L75.0,-0.0" fill-opacity="0" stroke="black" stroke-width="1" />
<path d="M84.91793138175309,-4.682234661618328 L79.88480848887718,-6.6905787075551535 L75.0,-0.0" fill-opacity="0" stroke="black" stroke-width="1" />
<path d="M68.0,32.0 L75.0,25.0 L91.91895133754457,1.9588337551595711" fill-opacity="0" stroke="black" stroke-width="1" />
<path d="M68.0,-32.0 L75.0,-25.0 L91.91895133754457,-1.9588337551595711" fill-opacity="0" stroke="black" stroke-width="1" />
<path d="M75.0,-0.0 L71.85943131654928,9.23796503757095 L71.48197924882601,19.79551540194112" fill-opacity="0" stroke="black" stroke-width="1" />
<path d="M75.0,-0.0 L71.85943131654928,-9.23796503757095 L71.48197924882601,-19.79551540194112" fill-opacity="0" stroke="black" stroke-width="1" />
<path d="M71.85943131654928,9.23796503757095 L71.48197924882601,19.79551540194112 L56.0,-0.0" fill-opacity="0" stroke="black" stroke-width="1" />
<path d="M71.85943131654928,-9.23796503757095 L71.48197924882601,-19.79551540194112 L56.0,-0.0" fill-opacity="0" stroke="black" stroke-width="1" />
<path d="M50.0,20.0 L63.417051737080925,20.38703006377613 L50.0,29.0" fill-opacity="0" stroke="black" stroke-width="1" />
<path d="M50.0,-20.0 L63.417051737080925,-20.38703006377613 L50.0,-29.0" fill-opacity="0" stroke="black" stroke-width="1" />
<path d="M50.0,29.0 L52.752323101556584,33.63068777509336 L50.0,50.0" fill-opacity="0" stroke="black" stroke-width="1" />
<path d="M50.0,-29.0 L52.752323101556584,-33.63068777509336 L50.0,-50.0" fill-opacity="0" stroke="black" stroke-width="1" />
<path d="M50.0,50.0 L58.0,42.0 L62.79539579317467,33.01260096882522" fill-opacity="0" stroke="black" stroke-width="1" />
<path d="M50.0,-50.0 L58.0,-42.0 L62.79539579317467,-33.01260096882522" fill-opacity="0" stroke="black" stroke-width="1" />
<path d="M58.0,42.0 L62.79539579317467,33.01260096882522 L68.0,32.0" fill-opacity="0" stroke="black" stroke-width="1" />
<path d="M58.0,-42.0 L62.79539579317467,-33.01260096882522 L68.0,-32.0" fill-opacity="0" stroke="black" stroke-width="1" />
<path d="M62.79539579317467,33.01260096882522 L68.0,32.0 L75.0,25.0" fill-opacity="0" stroke="black" stroke-width="1" />
<path d="M62.79539579317467,-33.01260096882522 L68.0,-32.0 L75.0,-25.0" fill-opacity="0" stroke="black" stroke-width="1" />
<path d="M75.0,25.0 L91.91895133754457,1.9588337551595711 L97.22448152631142,0.8035678239282487" fill-opacity="0" stroke="black" stroke-width="1" />
<path d="M75.0,-25.0 L91.91895133754457,-1.9588337551595711 L97.22448152631142,-0.8035678239282487" fill-opacity="0" stroke="black" stroke-width="1" />
<path d="M91.91895133754457,1.9588337551595711 L97.22448152631142,0.8035678239282487 L98.62679679979654,0.4902126781211491" fill-opacity="0" stroke="black" stroke-width="1" />
<path d="M91.91895133754457,-1.9588337551595711 L97.22448152631142,-0.8035678239282487 L98.62679679979654,-0.4902126781211491" fill-opacity="0" stroke="black" stroke-width="1" />
<path d="M97.22448152631142,0.8035678239282487 L98.62679679979654,0.4902126781211491 L100.0,-0.0" fill-opacity="0" stroke="black" stroke-width="1" />
<path d="M97.22448152631142,-0.8035678239282487 L98.62679679979654,-0.4902126781211491 L100.0,-0.0" fill-opacity="0" stroke="black" stroke-width="1" />
<path d="M0.0,-10.0 L2.455960414865105,-11.045716911993658 L2.65077651500416,-13.74855735629048" fill-opacity="0" stroke="black" stroke-width="1" />
<path d="M0.0,10.0 L2.455960414865105,11.045716911993658 L2.65077651500416,13.74855735629048" fill-opacity="0" stroke="black" stroke-width="1" />
<path d="M0.0,90.0 L2.455960414865105,88.95428308800635 L2.65077651500416,86.25144264370952" fill-opacity="0" stroke="black" stroke-width="1" />
<path d="M0.0,-90.0 L2.455960414865105,-88.95428308800635 L2.65077651500416,-86.25144264370952" fill-opacity="0" stroke="black" stroke-width="1" />
<path d="M2.455960414865105,-11.045716911993658 L2.65077651500416,-13.74855735629048 L4.682234661618328,-15.082068618246907" fill-opacity="0" stroke="black" stroke-width="1" />
<path d="M2.455960414865105,11.045716911993658 L2.65077651500416,13.74855735629048 L4.682234661618328,15.082068618246907" fill-opacity="0" stroke="black" stroke-width="1" />
<path d="M2.455960414865105,88.95428308800635 L2.65077651500416,86.25144264370952 L4.682234661618328,84.91793138175309" fill-opacity="0" stroke="black" stroke-width="1" />
<path d="M2.455960414865105,-88.95428308800635 L2.65077651500416,-86.25144264370952 L4.682234661618328,-84.91793138175309" fill-opacity="0" stroke="black" stroke-width="1" />
<path d="M2.65077651500416,-13.74855735629048 L4.682234661618328,-15.082068618246907 L6.6905787075551535,-20.115191511122816" fill-opacity="0" stroke="black" stroke-width="1" />
<path d="M2.65077651500416,13.74855735629048 L4.682234661618328,15.082068618246907 L6.6905787075551535,20.115191511122816" fill-opacity="0" stroke="black" stroke-width="1" />
<path d="M2.65077651500416,86.25144264370952 L4.682234661618328,84.91793138175309 L6.6905787075551535,79.88480848887718" fill-opacity="0" stroke="black" stroke-width="1" />
<path d="M2.65077651500416,-86.25144264370952 L4.682234661618328,-84.91793138175309 L6.6905787075551535,-79.88480848887718" fill-opacity="0" stroke="black" stroke-width="1" />
<path d="M4.682234661618328,-15.082068618246907 L6.6905787075551535,-20.115191511122816 L0.0,-25.0" fill-opacity="0" stroke="black" stroke-width="1" />
<path d="M4.682234661618328,15.082068618246907 L6.6905787075551535,20.115191511122816 L0.0,25.0" fill-opacity="0" stroke="black" stroke-width="1" />
<path d="M4.682234661618328,84.91793138175309 L6.6905787075551535,79.88480848887718 L0.0,75.0" fill-opacity="0" stroke="black" stroke-width="1" />
<path d="M4.682234661618328,-84.91793138175309 L6.6905787075551535,-79.88480848887718 L0.0,-75.0" fill-opacity="0" stroke="black" stroke-width="1" />
<path d="M0.0,-25.0 L9.23796503757095,-28.14056868345072 L19.79551540194112,-28.518020751173996" fill-opacity="0" stroke="black" stroke-width="1" />
<path d="M0.0,25.0 L9.23796503757095,28.14056868345072 L19.79551540194112,28.518020751173996" fill-opacity="0" stroke="black" stroke-width="1" />
<path d="M0.0,75.0 L9.23796503757095,71.85943131654928 L19.79551540194112,71.48197924882601" fill-opacity="0" stroke="black" stroke-width="1" />
<path d="M0.0,-75.0 L9.23796503757095,-71.85943131654928 L19.79551540194112,-71.48197924882601" fill-opacity="0" stroke="black" stroke-width="1" />
<path d="M9.23796503757095,-28.14056868345072 L19.79551540194112,-28.518020751173996 L0.0,-44.0" fill-opacity="0" stroke="black" stroke-width="1" />
<path d="M9.23796503757095,28.14056868345072 L19.79551540194112,28.518020751173996 L0.0,44.0" fill-opacity="0" stroke="black" stroke-width="1" />
<path d="M9.23796503757095,71.85943131654928 L19.79551540194112,71.48197924882601 L0.0,56.0" fill-opacity="0" stroke="black" stroke-width="1" />
<path d="M9.23796503757095,-71.85943131654928 L19.79551540194112,-71.48197924882601 L0.0,-56.0" fill-opacity="0" stroke="black" stroke-width="1" />
<path d="M20.0,-50.0 L20.38703006377613,-36.582948262919075 L29.0,-50.0" fill-opacity="0" stroke="black" stroke-width="1" />
<path d="M20.0,50.0 L20.38703006377613,36.582948262919075 L29.0,50.0" fill-opacity="0" stroke="black" stroke-width="1" />
<path d="M20.0,50.0 L20.38703006377613,63.417051737080925 L29.0,50.0" fill-opacity="0" stroke="black" stroke-width="1" />
<path d="M20.0,-50.0 L20.38703006377613,-63.417051737080925 L29.0,-50.0" fill-opacity="0" stroke="black" stroke-width="1" />
<path d="M29.0,-50.0 L33.63068777509336,-47.247676898443416 L50.0,-50.0" fill-opacity="0" stroke="black" stroke-width="1" />
<path d="M29.0,50.0 L33.63068777509336,47.247676898443416 L50.0,50.0" fill-opacity="0" stroke="black" stroke-width="1" />
<path d="M29.0,50.0 L33.63068777509336,52.752323101556584 L50.0,50.0" fill-opacity="0" stroke="black" stroke-width="1" />
<path d="M29.0,-50.0 L33.63068777509336,-52.752323101556584 L50.0,-50.0" fill-opacity="0" stroke="black" stroke-width="1" />
<path d="M42.0,-42.0 L33.01260096882522,-37.20460420682533 L32.0,-32.0" fill-opacity="0" stroke="black" stroke-width="1" />
<path d="M42.0,42.0 L33.01260096882522,37.20460420682533 L32.0,32.0" fill-opacity="0" stroke="black" stroke-width="1" />
<path d="M42.0,58.0 L33.01260096882522,62.79539579317467 L32.0,68.0" fill-opacity="0" stroke="black" stroke-width="1" />
<path d="M42.0,-58.0 L33.01260096882522,-62.79539579317467 L32.0,-68.0" fill-opacity="0" stroke="black" stroke-width="1" />
<path d="M25.0,-25.0 L1.9588337551595711,-8.081048662455432 L0.8035678239282487,-2.775518473688588" fill-opacity="0" stroke="black" stroke-width="1" />
<path d="M25.0,25.0 L1.9588337551595711,8.081048662455432 L0.8035678239282487,2.775518473688588" fill-opacity="0" stroke="black" stroke-width="1" />
<path d="M25.0,75.0 L1.9588337551595711,91.91895133754457 L0.8035678239282487,97.22448152631142" fill-opacity="0" stroke="black" stroke-width="1" />
<path d="M25.0,-75.0 L1.9588337551595711,-91.91895133754457 L0.8035678239282487,-97.22448152631142" fill-opacity="0" stroke="black" stroke-width="1" />
<path d="M1.9588337551595711,-8.081048662455432 L0.8035678239282487,-2.775518473688588 L0.4902126781211491,-1.3732032002034655" fill-opacity="0" stroke="black" stroke-width="1" />
<path d="M1.9588337551595711,8.081048662455432 L0.8035678239282487,2.775518473688588 L0.4902126781211491,1.3732032002034655" fill-opacity="0" stroke="black" stroke-width="1" />
<path d="M1.9588337551595711,91.91895133754457 L0.8035678239282487,97.22448152631142 L0.4902126781211491,98.62679679979654" fill-opacity="0" stroke="black" stroke-width="1" />
<path d="M1.9588337551595711,-91.91895133754457 L0.8035678239282487,-97.22448152631142 L0.4902126781211491,-98.62679679979654" fill-opacity="0" stroke="black" stroke-width="1" />
<path d="M0.8035678239282487,-2.775518473688588 L0.4902126781211491,-1.3732032002034655 L0.0,-0.0" fill-opacity="0" stroke="black" stroke-width="1" />
<path d="M0.8035678239282487,2.775518473688588 L0.4902126781211491,1.3732032002034655 L0.0,-0.0" fill-opacity="0" stroke="black" stroke-width="1" />
<path d="M0.8035678239282487,97.22448152631142 L0.4902126781211491,98.62679679979654 L0.0,100.0" fill-opacity="0" stroke="black" stroke-width="1" />
<path d="M0.8035678239282487,-97.22448152631142 L0.4902126781211491,-98.62679679979654 L0.0,-100.0" fill-opacity="0" stroke="black" stroke-width="1" />
<path d="M0.0,90.0 L-2.455960414865105,88.95428308800635 L-2.65077651500416,86.25144264370952" fill-opacity="0" stroke="black" stroke-width="1" />
<path d="M0.0,-10.0 L-2.455960414865105,-11.045716911993658 L-2.65077651500416,-13.74855735629048" fill-opacity="0" stroke="black" stroke-width="1" />
<path d="M0.0,10.0 L-2.455960414865105,11.045716911993651 L-2.65077651500416,13.748557356290476" fill-opacity="0" stroke="black" stroke-width="1" />
<path d="M0.0,-90.0 L-2.455960414865105,-88.95428308800635 L-2.65077651500416,-86.25144264370952" fill-opacity="0" stroke="black" stroke-width="1" />
<path d="M-2.455960414865105,88.95428308800635 L-2.65077651500416,86.25144264370952 L-4.682234661618328,84.91793138175309" fill-opacity="0" stroke="black" stroke-width="1" />
<path d="M-2.455960414865105,-11.045716911993658 L-2.65077651500416,-13.74855735629048 L-4.682234661618328,-15.082068618246907" fill-opacity="0" stroke="black" stroke-width="1" />
<path d="M-2.455960414865105,11.045716911993651 L-2.65077651500416,13.748557356290476 L-4.682234661618328,15.082068618246907" fill-opacity="0" stroke="black" stroke-width="1" />
<path d="M-2.455960414865105,-88.95428308800635 L-2.65077651500416,-86.25144264370952 L-4.682234661618328,-84.91793138175309" fill-opacity="0" stroke="black" stroke-width="1" />
<path d="M-2.65077651500416,86.25144264370952 L-4.682234661618328,84.91793138175309 L-6.6905787075551535,79.88480848887718" fill-opacity="0" stroke="black" stroke-width="1" />
<path d="M-2.65077651500416,-13.74855735629048 L-4.682234661618328,-15.082068618246907 L-6.6905787075551535,-20.115191511122816" fill-opacity="0" stroke="black" stroke-width="1" />
<path d="M-2.65077651500416,13.748557356290476 L-4.682234661618328,15.082068618246907 L-6.6905787075551535,20.115191511122816" fill-opacity="0" stroke="black" stroke-width="1" />
<path d="M-2.65077651500416,-86.25144264370952 L-4.682234661618328,-84.91793138175309 L-6.6905787075551535,-79.88480848887718" fill-opacity="0" stroke="black" stroke-width="1" />
<path d="M-4.682234661618328,84.91793138175309 L-6.6905787075551535,79.88480848887718 L0.0,75.0" fill-opacity="0" stroke="black" stroke-width="1" />
<path d="M-4.682234661618328,-15.082068618246907 L-6.6905787075551535,-20.115191511122816 L0.0,-25.0" fill-opacity="0" stroke="black" stroke-width="1" />
<path d="M-4.682234661618328,15.082068618246907 L-6.6905787075551535,20.115191511122816 L0.0,25.0" fill-opacity="0" stroke="black" stroke-width="1" />
<path d="M-4.682234661618328,-84.91793138175309 L-6.6905787075551535,-79.88480848887718 L0.0,-75.0" fill-opacity="0" stroke="black" stroke-width="1" />
<path d="M0.0,75.0 L-9.23796503757095,71.85943131654928 L-19.79551540194112,71.48197924882601" fill-opacity="0" stroke="black" stroke-width="1" />
<path d="M0.0,-25.0 L-9.23796503757095,-28.14056868345072 L-19.79551540194112,-28.518020751173996" fill-opacity="0" stroke="black" stroke-width="1" />
<path d="M0.0,25.0 L-9.23796503757095,28.140568683450724 L-19.79551540194112,28.518020751173992" fill-opacity="0" stroke="black" stroke-width="1" />
<path d="M0.0,-75.0 L-9.23796503757095,-71.85943131654928 L-19.79551540194112,-71.48197924882601" fill-opacity="0" stroke="black" stroke-width="1" />
<path d="M-9.23796503757095,71.85943131654928 L-19.79551540194112,71.48197924882601 L0.0,56.0" fill-opacity="0" stroke="black" stroke-width="1" />
<path d="M-9.23796503757095,-28.14056868345072 L-19.79551540194112,-28.518020751173996 L0.0,-44.0" fill-opacity="0" stroke="black" stroke-width="1" />
<path d="M-9.23796503757095,28.140568683450724 L-19.79551540194112,28.518020751173992 L0.0,44.0" fill-opacity="0" stroke="black" stroke-width="1" />
<path d="M-9.23796503757095,-71.85943131654928 L-19.79551540194112,-71.48197924882601 L0.0,-56.0" fill-opacity="0" stroke="black" stroke-width="1" />
<path d="M-20.0,50.0 L-20.38703006377613,63.417051737080925 L-29.0,50.0" fill-opacity="0" stroke="black" stroke-width="1" />
<path d="M-20.0,-50.0 L-20.38703006377613,-36.582948262919075 L-29.0,-50.0" fill-opacity="0" stroke="black" stroke-width="1" />
<path d="M-20.0,50.0 L-20.38703006377613,36.582948262919075 L-29.0,50.0" fill-opacity="0" stroke="black" stroke-width="1" />
<path d="M-20.0,-50.0 L-20.38703006377613,-63.417051737080925 L-29.0,-50.0" fill-opacity="0" stroke="black" stroke-width="1" />
<path d="M-29.0,50.0 L-33.63068777509336,52.752323101556584 L-50.0,50.0" fill-opacity="0" stroke="black" stroke-width="1" />
<path d="M-29.0,-50.0 L-33.63068777509336,-47.247676898443416 L-50.0,-50.0" fill-opacity="0" stroke="black" stroke-width="1" />
<path d="M-29.0,50.0 L-33.63068777509336,47.247676898443416 L-50.0,50.0" fill-opacity="0" stroke="black" stroke-width="1" />
<path d="M-29.0,-50.0 L-33.63068777509336,-52.752323101556584 L-50.0,-50.0" fill-opacity="0" stroke="black" stroke-width="1" />
<path d="M-42.0,58.0 L-33.01260096882522,62.79539579317467 L-32.0,68.0" fill-opacity="0" stroke="black" stroke-width="1" />
<path d="M-42.0,-42.0 L-33.01260096882522,-37.20460420682533 L-32.0,-32.0" fill-opacity="0" stroke="black" stroke-width="1" />
<path d="M-42.0,42.0 L-33.01260096882522,37.20460420682533 L-32.0,32.0" fill-opacity="0" stroke="black" stroke-width="1" />
<path d="M-42.0,-58.0 L-33.01260096882522,-62.79539579317467 L-32.0,-68.0" fill-opacity="0" stroke="black" stroke-width="1" />
<path d="M-25.0,75.0 L-1.9588337551595711,91.91895133754457 L-0.8035678239282487,97.22448152631141" fill-opacity="0" stroke="black" stroke-width="1" />
<path d="M-25.0,-25.0 L-1.9588337551595711,-8.081048662455432 L-0.8035678239282487,-2.775518473688588" fill-opacity="0" stroke="black" stroke-width="1" />
<path d="M-25.0,25.0 L-1.9588337551595711,8.08104866245543 L-0.8035678239282487,2.7755184736885923" fill-opacity="0" stroke="black" stroke-width="1" />
<path d="M-25.0,-75.0 L-1.9588337551595711,-91.91895133754457 L-0.8035678239282487,-97.22448152631142" fill-opacity="0" stroke="black" stroke-width="1" />
<path d="M-1.9588337551595711,91.91895133754457 L-0.8035678239282487,97.22448152631141 L-0.4902126781211491,98.62679679979654" fill-opacity="0" stroke="black" stroke-width="1" />
<path d="M-1.9588337551595711,-8.081048662455432 L-0.8035678239282487,-2.775518473688588 L-0.4902126781211491,-1.3732032002034655" fill-opacity="0" stroke="black" stroke-width="1" />
<path d="M-1.9588337551595711,8.08104866245543 L-0.8035678239282487,2.7755184736885923 L-0.4902126781211491,1.3732032002034629" fill-opacity="0" stroke="black" stroke-width="1" />
<path d="M-1.9588337551595711,-91.91895133754457 L-0.8035678239282487,-97.22448152631142 L-0.4902126781211491,-98.62679679979654" fill-opacity="0" stroke="black" stroke-width="1" />
<path d="M-0.8035678239282487,97.22448152631141 L-0.4902126781211491,98.62679679979654 L0.0,100.0" fill-opacity="0" stroke="black" stroke-width="1" />
<path d="M-0.8035678239282487,-2.775518473688588 L-0.4902126781211491,-1.3732032002034655 L0.0,-0.0" fill-opacity="0" stroke="black" stroke-width="1" />
<path d="M-0.8035678239282487,2.7755184736885923 L-0.4902126781211491,1.3732032002034629 L0.0,-0.0" fill-opacity="0" stroke="black" stroke-width="1" />
<path d="M-0.8035678239282487,-97.22448152631142 L-0.4902126781211491,-98.62679679979654 L0.0,-100.0" fill-opacity="0" stroke="black" stroke-width="1" />
<path d="M-90.0,-0.0 L-88.95428308800635,-2.455960414865105 L-86.25144264370952,-2.65077651500416" fill-opacity="0" stroke="black" stroke-width="1" />
<path d="M-90.0,-0.0 L-88.95428308800635,2.455960414865105 L-86.25144264370952,2.65077651500416" fill-opacity="0" stroke="black" stroke-width="1" />
<path d="M-88.95428308800635,-2.455960414865105 L-86.25144264370952,-2.65077651500416 L-84.91793138175309,-4.682234661618328" fill-opacity="0" stroke="black" stroke-width="1" />
<path d="M-88.95428308800635,2.455960414865105 L-86.25144264370952,2.65077651500416 L-84.91793138175309,4.682234661618328" fill-opacity="0" stroke="black" stroke-width="1" />
<path d="M-86.25144264370952,-2.65077651500416 L-84.91793138175309,-4.682234661618328 L-79.88480848887718,-6.6905787075551535" fill-opacity="0" stroke="black" stroke-width="1" />
<path d="M-86.25144264370952,2.65077651500416 L-84.91793138175309,4.682234661618328 L-79.88480848887718,6.6905787075551535" fill-opacity="0" stroke="black" stroke-width="1" />
<path d="M-84.91793138175309,-4.682234661618328 L-79.88480848887718,-6.6905787075551535 L-75.0,-0.0" fill-opacity="0" stroke="black" stroke-width="1" />
<path d="M-84.91793138175309,4.682234661618328 L-79.88480848887718,6.6905787075551535 L-75.0,-0.0" fill-opacity="0" stroke="black" stroke-width="1" />
<path d="M-68.0,-32.0 L-75.0,-25.0 L-91.91895133754457,-1.9588337551595711" fill-opacity="0" stroke="black" stroke-width="1" />
<path d="M-68.0,32.0 L-75.0,25.0 L-91.91895133754457,1.9588337551595711" fill-opacity="0" stroke="black" stroke-width="1" />
<path d="M-75.0,-0.0 L-71.85943131654928,-9.23796503757095 L-71.48197924882601,-19.79551540194112" fill-opacity="0" stroke="black" stroke-width="1" />
<path d="M-75.0,-0.0 L-71.85943131654928,9.23796503757095 L-71.48197924882601,19.79551540194112" fill-opacity="0" stroke="black" stroke-width="1" />
<path d="M-71.85943131654928,-9.23796503757095 L-71.48197924882601,-19.79551540194112 L-56.0,-0.0" fill-opacity="0" stroke="black" stroke-width="1" />
<path d="M-71.85943131654928,9.23796503757095 L-71.48197924882601,19.79551540194112 L-56.0,-0.0" fill-opacity="0" stroke="black" stroke-width="1" />
<path d="M-50.0,-20.0 L-63.417051737080925,-20.38703006377613 L-50.0,-29.0" fill-opacity="0" stroke="black" stroke-width="1" />
<path d="M-50.0,20.0 L-63.417051737080925,20.38703006377613 L-50.0,29.0" fill-opacity="0" stroke="black" stroke-width="1" />
<path d="M-50.0,-29.0 L-52.752323101556584,-33.63068777509336 L-50.0,-50.0" fill-opacity="0" stroke="black" stroke-width="1" />
<path d="M-50.0,29.0 L-52.752323101556584,33.63068777509336 L-50.0,50.0" fill-opacity="0" stroke="black" stroke-width="1" />
<path d="M-50.0,-50.0 L-58.0,-42.0 L-62.79539579317467,-33.01260096882522" fill-opacity="0" stroke="black" stroke-width="1" />
<path d="M-50.0,50.0 L-58.0,42.0 L-62.79539579317467,33.01260096882522" fill-opacity="0" stroke="black" stroke-width="1" />
<path d="M-58.0,-42.0 L-62.79539579317467,-33.01260096882522 L-68.0,-32.0" fill-opacity="0" stroke="black" stroke-width="1" />
<path d="M-58.0,42.0 L-62.79539579317467,33.01260096882522 L-68.0,32.0" fill-opacity="0" stroke="black" stroke-width="1" />
<path d="M-62.79539579317467,-33.01260096882522 L-68.0,-32.0 L-75.0,-25.0" fill-opacity="0" stroke="black" stroke-width="1" />
<path d="M-62.79539579317467,33.01260096882522 L-68.0,32.0 L-75.0,25.0" fill-opacity="0" stroke="black" stroke-width="1" />
<path d="M-75.0,-25.0 L-91.91895133754457,-1.9588337551595711 L-97.22448152631142,-0.8035678239282487" fill-opacity="0" stroke="black" stroke-width="1" />
<path d="M-75.0,25.0 L-91.91895133754457,1.9588337551595711 L-97.22448152631142,0.8035678239282487" fill-opacity="0" stroke="black" stroke-width="1" />
<path d="M-91.91895133754457,-1.9588337551595711 L-97.22448152631142,-0.8035678239282487 L-98.62679679979654,-0.4902126781211491" fill-opacity="0" stroke="black" stroke-width="1" />
<path d="M-91.91895133754457,1.9588337551595711 L-97.22448152631142,0.8035678239282487 L-98.62679679979654,0.4902126781211491" fill-opacity="0" stroke="black" stroke-width="1" />
<path d="M-97.22448152631142,-0.8035678239282487 L-98.62679679979654,-0.4902126781211491 L-100.0,-0.0" fill-opacity="0" stroke="black" stroke-width="1" />
<path d="M-97.22448152631142,0.8035678239282487 L-98.62679679979654,0.4902126781211491 L-100.0,-0.0" fill-opacity="0" stroke="black" stroke-width="1" />
<circle cx="0" cy="-97" r="8" stroke-dasharray="39.653880605311166 10.611601852125524" stroke-dashoffset="-17.59291886010284" stroke="black" stroke-width="1" fill="white" fill-opacity="1" />
<circle cx="0" cy="-97" r="4" stroke="black" stroke-width="1" fill="white" fill-opacity="1" />
</svg>