<?xml version="1.0" encoding="UTF-8"?>
<svg xmlns="http://www.w3.org/2000/svg" xmlns:xlink="http://www.w3.org/1999/xlink"
     width="250" height="250" viewBox="-125.0 -125.0 250 250">
<defs>
</defs>
<path d="M5.0,-0.0 L10.518780675449753,-1.7891587887398863 L15.294417614097977,-2.432986330085296" fill-opacity="0" stroke="black" stroke-width="1" />
<path d="M5.0,-0.0 L10.518780675449753,1.7891587887398863 L15.294417614097977,2.432986330085296" fill-opacity="0" stroke="black" stroke-width="1" />
<path d="M10.518780675449753,-1.7891587887398863 L15.294417614097977,-2.432986330085296 L15.390390546538562,-2.7135198693559266" fill-opacity="0" stroke="black" stroke-width="1" />
<path d="M10.518780675449753,1.7891587887398863 L15.294417614097977,2.432986330085296 L15.390390546538562,2.7135198693559266" fill-opacity="0" stroke="black" stroke-width="1" />
<path d="M15.294417614097977,-2.432986330085296 L15.390390546538562,-2.7135198693559266 L15.532110428929025,-3.8734040638309706" fill-opacity="0" stroke="black" stroke-width="1" />
<path d="M15.294417614097977,2.432986330085296 L15.390390546538562,2.7135198693559266 L15.532110428929025,3.8734040638309706" fill-opacity="0" stroke="black" stroke-width="1" />
<path d="M15.390390546538562,-2.7135198693559266 L15.532110428929025,-3.8734040638309706 L17.96905806230183,-4.394722267149912" fill-opacity="0" stroke="black" stroke-width="1" />
<path d="M15.390390546538562,2.7135198693559266 L15.532110428929025,3.8734040638309706 L17.96905806230183,4.394722267149912" fill-opacity="0" stroke="black" stroke-width="1" />
<path d="M15.532110428929025,-3.8734040638309706 L17.96905806230183,-4.394722267149912 L18.315653322611595,-5.152785901134389" fill-opacity="0" stroke="black" stroke-width="1" />
<path d="M15.532110428929025,3.8734040638309706 L17.96905806230183,4.394722267149912 L18.315653322611595,5.152785901134389" fill-opacity="0" stroke="black" stroke-width="1" />
<path d="M17.96905806230183,-4.394722267149912 L18.315653322611595,-5.152785901134389 L19.51410110856896,-5.239108651594078" fill-opacity="0" stroke="black" stroke-width="1" />
<path d="M17.96905806230183,4.394722267149912 L18.315653322611595,5.152785901134389 L19.51410110856896,5.239108651594078" fill-opacity="0" stroke="black" stroke-width="1" />
<path d="M18.315653322611595,-5.152785901134389 L19.51410110856896,-5.239108651594078 L19.91744468160223,-11.336114018774309" fill-opacity="0" stroke="black" stroke-width="1" />
<path d="M18.315653322611595,5.152785901134389 L19.51410110856896,5.239108651594078 L19.91744468160223,11.336114018774309" fill-opacity="0" stroke="black" stroke-width="1" />
<path d="M19.51410110856896,-5.239108651594078 L19.91744468160223,-11.336114018774309 L26.436188456642856,-13.174631163950446" fill-opacity="0" stroke="black" stroke-width="1" />
<path d="M19.51410110856896,5.239108651594078 L19.91744468160223,11.336114018774309 L26.436188456642856,13.174631163950446" fill-opacity="0" stroke="black" stroke-width="1" />
<path d="M19.91744468160223,-11.336114018774309 L26.436188456642856,-13.174631163950446 L31.18198079505995,-17.174069178337824" fill-opacity="0" stroke="black" stroke-width="1" />
<path d="M19.91744468160223,11.336114018774309 L26.436188456642856,13.174631163950446 L31.18198079505995,17.174069178337824" fill-opacity="0" stroke="black" stroke-width="1" />
<path d="M26.436188456642856,-13.174631163950446 L31.18198079505995,-17.174069178337824 L31.378844405279953,-17.266891670067977" fill-opacity="0" stroke="black" stroke-width="1" />
<path d="M26.436188456642856,13.174631163950446 L31.18198079505995,17.174069178337824 L31.378844405279953,17.266891670067977" fill-opacity="0" stroke="black" stroke-width="1" />
<path d="M31.18198079505995,-17.174069178337824 L31.378844405279953,-17.266891670067977 L35.0,-0.0" fill-opacity="0" stroke="black" stroke-width="1" />
<path d="M31.18198079505995,17.174069178337824 L31.378844405279953,17.266891670067977 L35.0,-0.0" fill-opacity="0" stroke="black" stroke-width="1" />
<path d="M50.0,-16.0 L33.72252643284334,-19.07640311416289 L41.82025093617529,-23.964604872891915" fill-opacity="0" stroke="black" stroke-width="1" />
<path d="M50.0,16.0 L33.72252643284334,19.07640311416289 L41.82025093617529,23.964604872891915" fill-opacity="0" stroke="black" stroke-width="1" />
<path d="M33.72252643284334,-19.07640311416289 L41.82025093617529,-23.964604872891915 L43.709623402518666,-24.979474659183186" fill-opacity="0" stroke="black" stroke-width="1" />
<path d="M33.72252643284334,19.07640311416289 L41.82025093617529,23.964604872891915 L43.709623402518666,24.979474659183186" fill-opacity="0" stroke="black" stroke-width="1" />
<path d="M41.82025093617529,-23.964604872891915 L43.709623402518666,-24.979474659183186 L50.0,-28.0" fill-opacity="0" stroke="black" stroke-width="1" />
<path d="M41.82025093617529,23.964604872891915 L43.709623402518666,24.979474659183186 L50.0,28.0" fill-opacity="0" stroke="black" stroke-width="1" />
<path d="M50.0,-32.0 L45.00551715818173,-33.08005816907685 L50.0,-48.0" fill-opacity="0" stroke="black" stroke-width="1" />
<path d="M50.0,32.0 L45.00551715818173,33.08005816907685 L50.0,48.0" fill-opacity="0" stroke="black" stroke-width="1" />
<path d="M50.0,-48.0 L48.07330791933259,-44.055268494623334 L48.0,-48.0" fill-opacity="0" stroke="black" stroke-width="1" />
<path d="M50.0,48.0 L48.07330791933259,44.055268494623334 L48.0,48.0" fill-opacity="0" stroke="black" stroke-width="1" />
<path d="M44.055268494623334,51.92669208066741 L48.0,52.0 L40.69111788690306,53.242092472140925" fill-opacity="0" stroke="black" stroke-width="1" />
<path d="M44.055268494623334,-51.92669208066741 L48.0,-52.0 L40.69111788690306,-53.242092472140925" fill-opacity="0" stroke="black" stroke-width="1" />
<path d="M48.0,-48.0 L46.757907527859075,-40.69111788690306 L46.0,-46.0" fill-opacity="0" stroke="black" stroke-width="1" />
<path d="M48.0,48.0 L46.757907527859075,40.69111788690306 L46.0,46.0" fill-opacity="0" stroke="black" stroke-width="1" />
<path d="M40.69111788690306,53.242092472140925 L46.0,54.0 L41.0,59.0" fill-opacity="0" stroke="black" stroke-width="1" />
<path d="M40.69111788690306,-53.242092472140925 L46.0,-54.0 L41.0,-59.0" fill-opacity="0" stroke="black" stroke-width="1" />
<path d="M46.0,54.0 L41.0,59.0 L27.0,73.0" fill-opacity="0" stroke="black" stroke-width="1" />
<path d="M46.0,-54.0 L41.0,-59.0 L27.0,-73.0" fill-opacity="0" stroke="black" stroke-width="1" />
<path d="M41.0,59.0 L27.0,73.0 L17.0,83.0" fill-opacity="0" stroke="black" stroke-width="1" />
<path d="M41.0,-59.0 L27.0,-73.0 L17.0,-83.0" fill-opacity="0" stroke="black" stroke-width="1" />
<path d="M27.0,73.0 L17.0,83.0 L0.7517562048841325,94.1801813568513" fill-opacity="0" stroke="black" stroke-width="1" />
<path d="M27.0,-73.0 L17.0,-83.0 L0.7517562048841325,-94.1801813568513" fill-opacity="0" stroke="black" stroke-width="1" />
<path d="M17.0,-17.0 L5.819818643148699,-0.7517562048841325 L3.249291042559493,-0.4738336533410801" fill-opacity="0" stroke="black" stroke-width="1" />
<path d="M17.0,17.0 L5.819818643148699,0.7517562048841325 L3.249291042559493,0.4738336533410801" fill-opacity="0" stroke="black" stroke-width="1" />
<path d="M5.819818643148699,-0.7517562048841325 L3.249291042559493,-0.4738336533410801 L0.0,-0.0" fill-opacity="0" stroke="black" stroke-width="1" />
<path d="M5.819818643148699,0.7517562048841325 L3.249291042559493,0.4738336533410801 L0.0,-0.0" fill-opacity="0" stroke="black" stroke-width="1" />
<path d="M-5.0,-0.0 L-10.518780675449753,-1.7891587887398863 L-15.294417614097977,-2.432986330085296" fill-opacity="0" stroke="black" stroke-width="1" />
<path d="M-5.0,-0.0 L-10.518780675449753,1.7891587887398863 L-15.294417614097977,2.432986330085296" fill-opacity="0" stroke="black" stroke-width="1" />
<path d="M-10.518780675449753,-1.7891587887398863 L-15.294417614097977,-2.432986330085296 L-15.390390546538562,-2.7135198693559266" fill-opacity="0" stroke="black" stroke-width="1" />
<path d="M-10.518780675449753,1.7891587887398863 L-15.294417614097977,2.432986330085296 L-15.390390546538562,2.7135198693559266" fill-opacity="0" stroke="black" stroke-width="1" />
<path d="M-15.294417614097977,-2.432986330085296 L-15.390390546538562,-2.7135198693559266 L-15.532110428929025,-3.8734040638309706" fill-opacity="0" stroke="black" stroke-width="1" />
<path d="M-15.294417614097977,2.432986330085296 L-15.390390546538562,2.7135198693559266 L-15.532110428929025,3.8734040638309706" fill-opacity="0" stroke="black" stroke-width="1" />
<path d="M-15.390390546538562,-2.7135198693559266 L-15.532110428929025,-3.8734040638309706 L-17.96905806230183,-4.394722267149912" fill-opacity="0" stroke="black" stroke-width="1" />
<path d="M-15.390390546538562,2.7135198693559266 L-15.532110428929025,3.8734040638309706 L-17.96905806230183,4.394722267149912" fill-opacity="0" stroke="black" stroke-width="1" />
<path d="M-15.532110428929025,-3.8734040638309706 L-17.96905806230183,-4.394722267149912 L-18.315653322611595,-5.152785901134389" fill-opacity="0" stroke="black" stroke-width="1" />
<path d="M-15.532110428929025,3.8734040638309706 L-17.96905806230183,4.394722267149912 L-18.315653322611595,5.152785901134389" fill-opacity="0" stroke="black" stroke-width="1" />
<path d="M-17.96905806230183,-4.394722267149912 L-18.315653322611595,-5.152785901134389 L-19.51410110856896,-5.239108651594078" fill-opacity="0" stroke="black" stroke-width="1" />
<path d="M-17.96905806230183,4.394722267149912 L-18.315653322611595,5.152785901134389 L-19.51410110856896,5.239108651594078" fill-opacity="0" stroke="black" stroke-width="1" />
<path d="M-18.315653322611595,-5.152785901134389 L-19.51410110856896,-5.239108651594078 L-19.91744468160223,-11.336114018774309" fill-opacity="0" stroke="black" stroke-width="1" />
<path d="M-18.315653322611595,5.152785901134389 L-19.51410110856896,5.239108651594078 L-19.91744468160223,11.336114018774309" fill-opacity="0" stroke="black" stroke-width="1" />
<path d="M-19.51410110856896,-5.239108651594078 L-19.91744468160223,-11.336114018774309 L-26.436188456642856,-13.174631163950446" fill-opacity="0" stroke="black" stroke-width="1" />
<path d="M-19.51410110856896,5.239108651594078 L-19.91744468160223,11.336114018774309 L-26.436188456642856,13.174631163950446" fill-opacity="0" stroke="black" stroke-width="1" />
<path d="M-19.91744468160223,-11.336114018774309 L-26.436188456642856,-13.174631163950446 L-31.18198079505995,-17.174069178337824" fill-opacity="0" stroke="black" stroke-width="1" />
<path d="M-19.91744468160223,11.336114018774309 L-26.436188456642856,13.174631163950446 L-31.18198079505995,17.174069178337824" fill-opacity="0" stroke="black" stroke-width="1" />
<path d="M-26.436188456642856,-13.174631163950446 L-31.18198079505995,-17.174069178337824 L-31.378844405279953,-17.266891670067977" fill-opacity="0" stroke="black" stroke-width="1" />
<path d="M-26.436188456642856,13.174631163950446 L-31.18198079505995,17.174069178337824 L-31.378844405279953,17.266891670067977" fill-opacity="0" stroke="black" stroke-width="1" />
<path d="M-31.18198079505995,-17.174069178337824 L-31.378844405279953,-17.266891670067977 L-35.0,-0.0" fill-opacity="0" stroke="black" stroke-width="1" />
<path d="M-31.18198079505995,17.174069178337824 L-31.378844405279953,17.266891670067977 L-35.0,-0.0" fill-opacity="0" stroke="black" stroke-width="1" />
<path d="M-50.0,-16.0 L-33.72252643284334,-19.07640311416289 L-41.82025093617529,-23.964604872891915" fill-opacity="0" stroke="black" stroke-width="1" />
<path d="M-50.0,16.0 L-33.72252643284334,19.07640311416289 L-41.82025093617529,23.964604872891915" fill-opacity="0" stroke="black" stroke-width="1" />
<path d="M-33.72252643284334,-19.07640311416289 L-41.82025093617529,-23.964604872891915 L-43.709623402518666,-24.979474659183186" fill-opacity="0" stroke="black" stroke-width="1" />
<path d="M-33.72252643284334,19.07640311416289 L-41.82025093617529,23.964604872891915 L-43.709623402518666,24.979474659183186" fill-opacity="0" stroke="black" stroke-width="1" />
<path d="M-41.82025093617529,-23.964604872891915 L-43.709623402518666,-24.979474659183186 L-50.0,-28.0" fill-opacity="0" stroke="black" stroke-width="1" />
<path d="M-41.82025093617529,23.964604872891915 L-43.709623402518666,24.979474659183186 L-50.0,28.0" fill-opacity="0" stroke="black" stroke-width="1" />
<path d="M-50.0,-32.0 L-45.00551715818173,-33.08005816907685 L-50.0,-48.0" fill-opacity="0" stroke="black" stroke-width="1" />
<path d="M-50.0,32.0 L-45.00551715818173,33.08005816907685 L-50.0,48.0" fill-opacity="0" stroke="black" stroke-width="1" />
<path d="M-50.0,-48.0 L-48.07330791933259,-44.055268494623334 L-48.0,-48.0" fill-opacity="0" stroke="black" stroke-width="1" />
<path d="M-50.0,48.0 L-48.07330791933259,44.055268494623334 L-48.0,48.0" fill-opacity="0" stroke="black" stroke-width="1" />
<path d="M-44.055268494623334,51.92669208066741 L-48.0,52.0 L-40.69111788690306,53.242092472140925" fill-opacity="0" stroke="black" stroke-width="1" />
<path d="M-44.055268494623334,-51.92669208066741 L-48.0,-52.0 L-40.69111788690306,-53.242092472140925" fill-opacity="0" stroke="black" stroke-width="1" />
<path d="M-48.0,-48.0 L-46.757907527859075,-40.69111788690306 L-46.0,-46.0" fill-opacity="0" stroke="black" stroke-width="1" />
<path d="M-48.0,48.0 L-46.757907527859075,40.69111788690306 L-46.0,46.0" fill-opacity="0" stroke="black" stroke-width="1" />
<path d="M-40.69111788690306,53.242092472140925 L-46.0,54.0 L-41.0,59.0" fill-opacity="0" stroke="black" stroke-width="1" />
<path d="M-40.69111788690306,-53.242092472140925 L-46.0,-54.0 L-41.0,-59.0" fill-opacity="0" stroke="black" stroke-width="1" />
<path d="M-46.0,54.0 L-41.0,59.0 L-27.0,73.0" fill-opacity="0" stroke="black" stroke-width="1" />
<path d="M-46.0,-54.0 L-41.0,-59.0 L-27.0,-73.0" fill-opacity="0" stroke="black" stroke-width="1" />
<path d="M-41.0,59.0 L-27.0,73.0 L-17.0,83.0" fill-opacity="0" stroke="black" stroke-width="1" />
<path d="M-41.0,-59.0 L-27.0,-73.0 L-17.0,-83.0" fill-opacity="0" stroke="black" stroke-width="1" />
<path d="M-27.0,73.0 L-17.0,83.0 L-0.7517562048841325,94.1801813568513" fill-opacity="0" stroke="black" stroke-width="1" />
<path d="M-27.0,-73.0 L-17.0,-83.0 L-0.7517562048841325,-94.1801813568513" fill-opacity="0" stroke="black" stroke-width="1" />
<path d="M-17.0,-17.0 L-5.819818643148699,-0.7517562048841325 L-3.249291042559493,-0.4738336533410801" fill-opacity="0" stroke="black" stroke-width="1" />
<path d="M-17.0,17.0 L-5.819818643148699,0.7517562048841325 L-3.249291042559493,0.4738336533410801" fill-opacity="0" stroke="black" stroke-width="1" />
<path d="M-5.819818643148699,-0.7517562048841325 L-3.249291042559493,-0.4738336533410801 L0.0,-0.0" fill-opacity="0" stroke="black" stroke-width="1" />
<path d="M-5.819818643148699,0.7517562048841325 L-3.249291042559493,0.4738336533410801 L0.0,-0.0" fill-opacity="0" stroke="black" stroke-width="1" />
<path d="M95.0,-0.0 L89.48121932455024,1.7891587887398863 L84.70558238590202,2.432986330085296" fill-opacity="0" stroke="black" stroke-width="1" />
<path d="M95.0,-0.0 L89.48121932455024,-1.7891587887398863 L84.70558238590202,-2.432986330085296" fill-opacity="0" stroke="black" stroke-width="1" />
<path d="M89.48121932455024,1.7891587887398863 L84.70558238590202,2.432986330085296 L84.60960945346145,2.7135198693559266" fill-opacity="0" stroke="black" stroke-width="1" />
<path d="M89.48121932455024,-1.7891587887398863 L84.70558238590202,-2.432986330085296 L84.60960945346145,-2.7135198693559266" fill-opacity="0" stroke="black" stroke-width="1" />
<path d="M84.70558238590202,2.432986330085296 L84.60960945346145,2.7135198693559266 L84.46788957107097,3.8734040638309706" fill-opacity="0" stroke="black" stroke-width="1" />
<path d="M84.70558238590202,-2.432986330085296 L84.60960945346145,-2.7135198693559266 L84.46788957107097,-3.8734040638309706" fill-opacity="0" stroke="black" stroke-width="1" />
<path d="M84.60960945346145,2.7135198693559266 L84.46788957107097,3.8734040638309706 L82.03094193769817,4.394722267149912" fill-opacity="0" stroke="black" stroke-width="1" />
<path d="M84.60960945346145,-2.7135198693559266 L84.46788957107097,-3.8734040638309706 L82.03094193769817,-4.394722267149912" fill-opacity="0" stroke="black" stroke-width="1" />
<path d="M84.46788957107097,3.8734040638309706 L82.03094193769817,4.394722267149912 L81.6843466773884,5.152785901134389" fill-opacity="0" stroke="black" stroke-width="1" />
<path d="M84.46788957107097,-3.8734040638309706 L82.03094193769817,-4.394722267149912 L81.6843466773884,-5.152785901134389" fill-opacity="0" stroke="black" stroke-width="1" />
<path d="M82.03094193769817,4.394722267149912 L81.6843466773884,5.152785901134389 L80.48589889143105,5.239108651594078" fill-opacity="0" stroke="black" stroke-width="1" />
<path d="M82.03094193769817,-4.394722267149912 L81.6843466773884,-5.152785901134389 L80.48589889143105,-5.239108651594078" fill-opacity="0" stroke="black" stroke-width="1" />
<path d="M81.6843466773884,5.152785901134389 L80.48589889143105,5.239108651594078 L80.08255531839777,11.336114018774309" fill-opacity="0" stroke="black" stroke-width="1" />
<path d="M81.6843466773884,-5.152785901134389 L80.48589889143105,-5.239108651594078 L80.08255531839777,-11.336114018774309" fill-opacity="0" stroke="black" stroke-width="1" />
<path d="M80.48589889143105,5.239108651594078 L80.08255531839777,11.336114018774309 L73.56381154335715,13.174631163950446" fill-opacity="0" stroke="black" stroke-width="1" />
<path d="M80.48589889143105,-5.239108651594078 L80.08255531839777,-11.336114018774309 L73.56381154335715,-13.174631163950446" fill-opacity="0" stroke="black" stroke-width="1" />
<path d="M80.08255531839777,11.336114018774309 L73.56381154335715,13.174631163950446 L68.81801920494004,17.174069178337824" fill-opacity="0" stroke="black" stroke-width="1" />
<path d="M80.08255531839777,-11.336114018774309 L73.56381154335715,-13.174631163950446 L68.81801920494004,-17.174069178337824" fill-opacity="0" stroke="black" stroke-width="1" />
<path d="M73.56381154335715,13.174631163950446 L68.81801920494004,17.174069178337824 L68.62115559472005,17.266891670067977" fill-opacity="0" stroke="black" stroke-width="1" />
<path d="M73.56381154335715,-13.174631163950446 L68.81801920494004,-17.174069178337824 L68.62115559472005,-17.266891670067977" fill-opacity="0" stroke="black" stroke-width="1" />
<path d="M68.81801920494004,17.174069178337824 L68.62115559472005,17.266891670067977 L65.0,-0.0" fill-opacity="0" stroke="black" stroke-width="1" />
<path d="M68.81801920494004,-17.174069178337824 L68.62115559472005,-17.266891670067977 L65.0,-0.0" fill-opacity="0" stroke="black" stroke-width="1" />
<path d="M50.0,16.0 L66.27747356715666,19.07640311416289 L58.17974906382471,23.964604872891915" fill-opacity="0" stroke="black" stroke-width="1" />
<path d="M50.0,-16.0 L66.27747356715666,-19.07640311416289 L58.17974906382471,-23.964604872891915" fill-opacity="0" stroke="black" stroke-width="1" />
<path d="M66.27747356715666,19.07640311416289 L58.17974906382471,23.964604872891915 L56.290376597481334,24.979474659183186" fill-opacity="0" stroke="black" stroke-width="1" />
<path d="M66.27747356715666,-19.07640311416289 L58.17974906382471,-23.964604872891915 L56.290376597481334,-24.979474659183186" fill-opacity="0" stroke="black" stroke-width="1" />
<path d="M58.17974906382471,23.964604872891915 L56.290376597481334,24.979474659183186 L50.0,28.0" fill-opacity="0" stroke="black" stroke-width="1" />
<path d="M58.17974906382471,-23.964604872891915 L56.290376597481334,-24.979474659183186 L50.0,-28.0" fill-opacity="0" stroke="black" stroke-width="1" />
<path d="M50.0,32.0 L54.99448284181827,33.08005816907685 L50.0,48.0" fill-opacity="0" stroke="black" stroke-width="1" />
<path d="M50.0,-32.0 L54.99448284181827,-33.08005816907685 L50.0,-48.0" fill-opacity="0" stroke="black" stroke-width="1" />
<path d="M50.0,48.0 L51.92669208066741,44.055268494623334 L52.0,48.0" fill-opacity="0" stroke="black" stroke-width="1" />
<path d="M50.0,-48.0 L51.92669208066741,-44.055268494623334 L52.0,-48.0" fill-opacity="0" stroke="black" stroke-width="1" />
<path d="M51.92669208066741,44.055268494623334 L52.0,48.0 L53.242092472140925,40.69111788690306" fill-opacity="0" stroke="black" stroke-width="1" />
<path d="M51.92669208066741,-44.055268494623334 L52.0,-48.0 L53.242092472140925,-40.69111788690306" fill-opacity="0" stroke="black" stroke-width="1" />
<path d="M52.0,48.0 L53.242092472140925,40.69111788690306 L54.0,46.0" fill-opacity="0" stroke="black" stroke-width="1" />
<path d="M52.0,-48.0 L53.242092472140925,-40.69111788690306 L54.0,-46.0" fill-opacity="0" stroke="black" stroke-width="1" />
<path d="M53.242092472140925,40.69111788690306 L54.0,46.0 L59.0,41.0" fill-opacity="0" stroke="black" stroke-width="1" />
<path d="M53.242092472140925,-40.69111788690306 L54.0,-46.0 L59.0,-41.0" fill-opacity="0" stroke="black" stroke-width="1" />
<path d="M54.0,46.0 L59.0,41.0 L73.0,27.0" fill-opacity="0" stroke="black" stroke-width="1" />
<path d="M54.0,-46.0 L59.0,-41.0 L73.0,-27.0" fill-opacity="0" stroke="black" stroke-width="1" />
<path d="M59.0,41.0 L73.0,27.0 L83.0,17.0" fill-opacity="0" stroke="black" stroke-width="1" />
<path d="M59.0,-41.0 L73.0,-27.0 L83.0,-17.0" fill-opacity="0" stroke="black" stroke-width="1" />
<path d="M73.0,27.0 L83.0,17.0 L94.1801813568513,0.7517562048841325" fill-opacity="0" stroke="black" stroke-width="1" />
<path d="M73.0,-27.0 L83.0,-17.0 L94.1801813568513,-0.7517562048841325" fill-opacity="0" stroke="black" stroke-width="1" />
<path d="M83.0,17.0 L94.1801813568513,0.7517562048841325 L96.75070895744051,0.4738336533410801" fill-opacity="0" stroke="black" stroke-width="1" />
<path d="M83.0,-17.0 L94.1801813568513,-0.7517562048841325 L96.75070895744051,-0.4738336533410801" fill-opacity="0" stroke="black" stroke-width="1" />
<path d="M94.1801813568513,0.7517562048841325 L96.75070895744051,0.4738336533410801 L100.0,-0.0" fill-opacity="0" stroke="black" stroke-width="1" />
<path d="M94.1801813568513,-0.7517562048841325 L96.75070895744051,-0.4738336533410801 L100.0,-0.0" fill-opacity="0" stroke="black" stroke-width="1" />
<path d="M0.0,-5.0 L1.7891587887398863,-10.518780675449753 L2.432986330085296,-15.294417614097977" fill-opacity="0" stroke="black" stroke-width="1" />
<path d="M0.0,5.0 L1.7891587887398863,10.518780675449753 L2.432986330085296,15.294417614097977" fill-opacity="0" stroke="black" stroke-width="1" />
<path d="M0.0,95.0 L1.7891587887398863,89.48121932455024 L2.432986330085296,84.70558238590202" fill-opacity="0" stroke="black" stroke-width="1" />
<path d="M0.0,-95.0 L1.7891587887398863,-89.48121932455024 L2.432986330085296,-84.70558238590202" fill-opacity="0" stroke="black" stroke-width="1" />
<path d="M1.7891587887398863,-10.518780675449753 L2.432986330085296,-15.294417614097977 L2.7135198693559266,-15.390390546538562" fill-opacity="0" stroke="black" stroke-width="1" />
<path d="M1.7891587887398863,10.518780675449753 L2.432986330085296,15.294417614097977 L2.7135198693559266,15.390390546538562" fill-opacity="0" stroke="black" stroke-width="1" />
<path d="M1.7891587887398863,89.48121932455024 L2.432986330085296,84.70558238590202 L2.7135198693559266,84.60960945346145" fill-opacity="0" stroke="black" stroke-width="1" />
<path d="M1.7891587887398863,-89.48121932455024 L2.432986330085296,-84.70558238590202 L2.7135198693559266,-84.60960945346145" fill-opacity="0" stroke="black" stroke-width="1" />
<path d="M2.432986330085296,-15.294417614097977 L2.7135198693559266,-15.390390546538562 L3.8734040638309706,-15.532110428929025" fill-opacity="0" stroke="black" stroke-width="1" />
<path d="M2.432986330085296,15.294417614097977 L2.7135198693559266,15.390390546538562 L3.8734040638309706,15.532110428929025" fill-opacity="0" stroke="black" stroke-width="1" />
<path d="M2.432986330085296,84.70558238590202 L2.7135198693559266,84.60960945346145 L3.8734040638309706,84.46788957107097" fill-opacity="0" stroke="black" stroke-width="1" />
<path d="M2.432986330085296,-84.70558238590202 L2.7135198693559266,-84.60960945346145 L3.8734040638309706,-84.46788957107097" fill-opacity="0" stroke="black" stroke-width="1" />
<path d="M2.7135198693559266,-15.390390546538562 L3.8734040638309706,-15.532110428929025 L4.394722267149912,-17.96905806230183" fill-opacity="0" stroke="black" stroke-width="1" />
<path d="M2.7135198693559266,15.390390546538562 L3.8734040638309706,15.532110428929025 L4.394722267149912,17.96905806230183" fill-opacity="0" stroke="black" stroke-width="1" />
<path d="M2.7135198693559266,84.60960945346145 L3.8734040638309706,84.46788957107097 L4.394722267149912,82.03094193769817" fill-opacity="0" stroke="black" stroke-width="1" />
<path d="M2.7135198693559266,-84.60960945346145 L3.8734040638309706,-84.46788957107097 L4.394722267149912,-82.03094193769817" fill-opacity="0" stroke="black" stroke-width="1" />
<path d="M3.8734040638309706,-15.532110428929025 L4.394722267149912,-17.96905806230183 L5.152785901134389,-18.315653322611595" fill-opacity="0" stroke="black" stroke-width="1" />
<path d="M3.8734040638309706,15.532110428929025 L4.394722267149912,17.96905806230183 L5.152785901134389,18.315653322611595" fill-opacity="0" stroke="black" stroke-width="1" />
<path d="M3.8734040638309706,84.46788957107097 L4.394722267149912,82.03094193769817 L5.152785901134389,81.6843466773884" fill-opacity="0" stroke="black" stroke-width="1" />
<path d="M3.8734040638309706,-84.46788957107097 L4.394722267149912,-82.03094193769817 L5.152785901134389,-81.6843466773884" fill-opacity="0" stroke="black" stroke-width="1" />
<path d="M4.394722267149912,-17.96905806230183 L5.152785901134389,-18.315653322611595 L5.239108651594078,-19.51410110856896" fill-opacity="0" stroke="black" stroke-width="1" />
<path d="M4.394722267149912,17.96905806230183 L5.152785901134389,18.315653322611595 L5.239108651594078,19.51410110856896" fill-opacity="0" stroke="black" stroke-width="1" />
<path d="M4.394722267149912,82.03094193769817 L5.152785901134389,81.6843466773884 L5.239108651594078,80.48589889143105" fill-opacity="0" stroke="black" stroke-width="1" />
<path d="M4.394722267149912,-82.03094193769817 L5.152785901134389,-81.6843466773884 L5.239108651594078,-80.48589889143105" fill-opacity="0" stroke="black" stroke-width="1" />
<path d="M5.152785901134389,-18.315653322611595 L5.239108651594078,-19.51410110856896 L11.336114018774309,-19.91744468160223" fill-opacity="0" stroke="black" stroke-width="1" />
<path d="M5.152785901134389,18.315653322611595 L5.239108651594078,19.51410110856896 L11.336114018774309,19.91744468160223" fill-opacity="0" stroke="black" stroke-width="1" />
<path d="M5.152785901134389,81.6843466773884 L5.239108651594078,80.48589889143105 L11.336114018774309,80.08255531839777" fill-opacity="0" stroke="black" stroke-width="1" />
<path d="M5.152785901134389,-81.6843466773884 L5.239108651594078,-80.48589889143105 L11.336114018774309,-80.08255531839777" fill-opacity="0" stroke="black" stroke-width="1" />
<path d="M5.239108651594078,-19.51410110856896 L11.336114018774309,-19.91744468160223 L13.174631163950446,-26.436188456642856" fill-opacity="0" stroke="black" stroke-width="1" />
<path d="M5.239108651594078,19.51410110856896 L11.336114018774309,19.91744468160223 L13.174631163950446,26.436188456642856" fill-opacity="0" stroke="black" stroke-width="1" />
<path d="M5.239108651594078,80.48589889143105 L11.336114018774309,80.08255531839777 L13.174631163950446,73.56381154335715" fill-opacity="0" stroke="black" stroke-width="1" />
<path d="M5.239108651594078,-80.48589889143105 L11.336114018774309,-80.08255531839777 L13.174631163950446,-73.56381154335715" fill-opacity="0" stroke="black" stroke-width="1" />
<path d="M11.336114018774309,-19.91744468160223 L13.174631163950446,-26.436188456642856 L17.174069178337824,-31.18198079505995" fill-opacity="0" stroke="black" stroke-width="1" />
<path d="M11.336114018774309,19.91744468160223 L13.174631163950446,26.436188456642856 L17.174069178337824,31.18198079505995" fill-opacity="0" stroke="black" stroke-width="1" />
<path d="M11.336114018774309,80.08255531839777 L13.174631163950446,73.56381154335715 L17.174069178337824,68.81801920494004" fill-opacity="0" stroke="black" stroke-width="1" />
<path d="M11.336114018774309,-80.08255531839777 L13.174631163950446,-73.56381154335715 L17.174069178337824,-68.81801920494004" fill-opacity="0" stroke="black" stroke-width="1" />
<path d="M13.174631163950446,-26.436188456642856 L17.174069178337824,-31.18198079505995 L17.266891670067977,-31.378844405279953" fill-opacity="0" stroke="black" stroke-width="1" />
<path d="M13.174631163950446,26.436188456642856 L17.174069178337824,31.18198079505995 L17.266891670067977,31.378844405279953" fill-opacity="0" stroke="black" stroke-width="1" />
<path d="M13.174631163950446,73.56381154335715 L17.174069178337824,68.81801920494004 L17.266891670067977,68.62115559472005" fill-opacity="0" stroke="black" stroke-width="1" />
<path d="M13.174631163950446,-73.56381154335715 L17.174069178337824,-68.81801920494004 L17.266891670067977,-68.62115559472005" fill-opacity="0" stroke="black" stroke-width="1" />
<path d="M17.174069178337824,-31.18198079505995 L17.266891670067977,-31.378844405279953 L0.0,-35.0" fill-opacity="0" stroke="black" stroke-width="1" />
<path d="M17.174069178337824,31.18198079505995 L17.266891670067977,31.378844405279953 L0.0,35.0" fill-opacity="0" stroke="black" stroke-width="1" />
<path d="M17.174069178337824,68.81801920494004 L17.266891670067977,68.62115559472005 L0.0,65.0" fill-opacity="0" stroke="black" stroke-width="1" />
<path d="M17.174069178337824,-68.81801920494004 L17.266891670067977,-68.62115559472005 L0.0,-65.0" fill-opacity="0" stroke="black" stroke-width="1" />
<path d="M16.0,-50.0 L19.07640311416289,-33.72252643284334 L23.964604872891915,-41.82025093617529" fill-opacity="0" stroke="black" stroke-width="1" />
<path d="M16.0,50.0 L19.07640311416289,33.72252643284334 L23.964604872891915,41.82025093617529" fill-opacity="0" stroke="black" stroke-width="1" />
<path d="M16.0,50.0 L19.07640311416289,66.27747356715666 L23.964604872891915,58.17974906382471" fill-opacity="0" stroke="black" stroke-width="1" />
<path d="M16.0,-50.0 L19.07640311416289,-66.27747356715666 L23.964604872891915,-58.17974906382471" fill-opacity="0" stroke="black" stroke-width="1" />
<path d="M19.07640311416289,-33.72252643284334 L23.964604872891915,-41.82025093617529 L24.979474659183186,-43.709623402518666" fill-opacity="0" stroke="black" stroke-width="1" />
<path d="M19.07640311416289,33.72252643284334 L23.964604872891915,41.82025093617529 L24.979474659183186,43.709623402518666" fill-opacity="0" stroke="black" stroke-width="1" />
<path d="M19.07640311416289,66.27747356715666 L23.964604872891915,58.17974906382471 L24.979474659183186,56.290376597481334" fill-opacity="0" stroke="black" stroke-width="1" />
<path d="M19.07640311416289,-66.27747356715666 L23.964604872891915,-58.17974906382471 L24.979474659183186,-56.290376597481334" fill-opacity="0" stroke="black" stroke-width="1" />
<path d="M23.964604872891915,-41.82025093617529 L24.979474659183186,-43.709623402518666 L28.0,-50.0" fill-opacity="0" stroke="black" stroke-width="1" />
<path d="M23.964604872891915,41.82025093617529 L24.979474659183186,43.709623402518666 L28.0,50.0" fill-opacity="0" stroke="black" stroke-width="1" />
<path d="M23.964604872891915,58.17974906382471 L24.979474659183186,56.290376597481334 L28.0,50.0" fill-opacity="0" stroke="black" stroke-width="1" />
<path d="M23.964604872891915,-58.17974906382471 L24.979474659183186,-56.290376597481334 L28.0,-50.0" fill-opacity="0" stroke="black" stroke-width="1" />
<path d="M32.0,-50.0 L33.08005816907685,-45.00551715818173 L48.0,-50.0" fill-opacity="0" stroke="black" stroke-width="1" />
<path d="M32.0,50.0 L33.08005816907685,45.00551715818173 L48.0,50.0" fill-opacity="0" stroke="black" stroke-width="1" />
<path d="M32.0,50.0 L33.08005816907685,54.99448284181827 L48.0,50.0" fill-opacity="0" stroke="black" stroke-width="1" />
<path d="M32.0,-50.0 L33.08005816907685,-54.99448284181827 L48.0,-50.0" fill-opacity="0" stroke="black" stroke-width="1" />
<path d="M48.0,-50.0 L44.055268494623334,-48.07330791933259 L48.0,-48.0" fill-opacity="0" stroke="black" stroke-width="1" />
<path d="M48.0,50.0 L44.055268494623334,48.07330791933259 L48.0,48.0" fill-opacity="0" stroke="black" stroke-width="1" />
<path d="M48.0,50.0 L44.055268494623334,51.92669208066741 L48.0,52.0" fill-opacity="0" stroke="black" stroke-width="1" />
<path d="M48.0,-50.0 L44.055268494623334,-51.92669208066741 L48.0,-52.0" fill-opacity="0" stroke="black" stroke-width="1" />
<path d="M48.0,-48.0 L40.69111788690306,-46.757907527859075 L46.0,-46.0" fill-opacity="0" stroke="black" stroke-width="1" />
<path d="M48.0,48.0 L40.69111788690306,46.757907527859075 L46.0,46.0" fill-opacity="0" stroke="black" stroke-width="1" />
<path d="M48.0,52.0 L40.69111788690306,53.242092472140925 L46.0,54.0" fill-opacity="0" stroke="black" stroke-width="1" />
<path d="M48.0,-52.0 L40.69111788690306,-53.242092472140925 L46.0,-54.0" fill-opacity="0" stroke="black" stroke-width="1" />
<path d="M17.0,-17.0 L0.7517562048841325,-5.819818643148699 L0.4738336533410801,-3.249291042559493" fill-opacity="0" stroke="black" stroke-width="1" />
<path d="M17.0,17.0 L0.7517562048841325,5.819818643148699 L0.4738336533410801,3.249291042559493" fill-opacity="0" stroke="black" stroke-width="1" />
<path d="M17.0,83.0 L0.7517562048841325,94.1801813568513 L0.4738336533410801,96.75070895744051" fill-opacity="0" stroke="black" stroke-width="1" />
<path d="M17.0,-83.0 L0.7517562048841325,-94.1801813568513 L0.4738336533410801,-96.75070895744051" fill-opacity="0" stroke="black" stroke-width="1" />
<path d="M0.7517562048841325,-5.819818643148699 L0.4738336533410801,-3.249291042559493 L0.0,-0.0" fill-opacity="0" stroke="black" stroke-width="1" />
<path d="M0.7517562048841325,5.819818643148699 L0.4738336533410801,3.249291042559493 L0.0,-0.0" fill-opacity="0" stroke="black" stroke-width="1" />
<path d="M0.7517562048841325,94.1801813568513 L0.4738336533410801,96.75070895744051 L0.0,100.0" fill-opacity="0" stroke="black" stroke-width="1" />
<path d="M0.7517562048841325,-94.1801813568513 L0.4738336533410801,-96.75070895744051 L0.0,-100.0" fill-opacity="0" stroke="black" stroke-width="1" />
<path d="M0.0,95.0 L-1.7891587887398863,89.48121932455025 L-2.432986330085296,84.70558238590202" fill-opacity="0" stroke="black" stroke-width="1" />
<path d="M0.0,-5.0 L-1.7891587887398863,-10.518780675449753 L-2.432986330085296,-15.294417614097977" fill-opacity="0" stroke="black" stroke-width="1" />
<path d="M0.0,5.0 L-1.7891587887398863,10.518780675449747 L-2.432986330085296,15.29441761409798" fill-opacity="0" stroke="black" stroke-width="1" />
<path d="M0.0,-95.0 L-1.7891587887398863,-89.48121932455024 L-2.432986330085296,-84.70558238590202" fill-opacity="0" stroke="black" stroke-width="1" />
<path d="M-1.7891587887398863,89.48121932455025 L-2.432986330085296,84.70558238590202 L-2.7135198693559266,84.60960945346145" fill-opacity="0" stroke="black" stroke-width="1" />
<path d="M-1.7891587887398863,-10.518780675449753 L-2.432986330085296,-15.294417614097977 L-2.7135198693559266,-15.390390546538562" fill-opacity="0" stroke="black" stroke-width="1" />
<path d="M-1.7891587887398863,10.518780675449747 L-2.432986330085296,15.29441761409798 L-2.7135198693559266,15.390390546538555" fill-opacity="0" stroke="black" stroke-width="1" />
<path d="M-1.7891587887398863,-89.48121932455024 L-2.432986330085296,-84.70558238590202 L-2.7135198693559266,-84.60960945346145" fill-opacity="0" stroke="black" stroke-width="1" />
<path d="M-2.432986330085296,84.70558238590202 L-2.7135198693559266,84.60960945346145 L-3.8734040638309706,84.46788957107097" fill-opacity="0" stroke="black" stroke-width="1" />
<path d="M-2.432986330085296,-15.294417614097977 L-2.7135198693559266,-15.390390546538562 L-3.8734040638309706,-15.532110428929025" fill-opacity="0" stroke="black" stroke-width="1" />
<path d="M-2.432986330085296,15.29441761409798 L-2.7135198693559266,15.390390546538555 L-3.8734040638309706,15.53211042892903" fill-opacity="0" stroke="black" stroke-width="1" />
<path d="M-2.432986330085296,-84.70558238590202 L-2.7135198693559266,-84.60960945346145 L-3.8734040638309706,-84.46788957107097" fill-opacity="0" stroke="black" stroke-width="1" />
<path d="M-2.7135198693559266,84.60960945346145 L-3.8734040638309706,84.46788957107097 L-4.394722267149912,82.03094193769817" fill-opacity="0" stroke="black" stroke-width="1" />
<path d="M-2.7135198693559266,-15.390390546538562 L-3.8734040638309706,-15.532110428929025 L-4.394722267149912,-17.96905806230183" fill-opacity="0" stroke="black" stroke-width="1" />
<path d="M-2.7135198693559266,15.390390546538555 L-3.8734040638309706,15.53211042892903 L-4.394722267149912,17.969058062301826" fill-opacity="0" stroke="black" stroke-width="1" />
<path d="M-2.7135198693559266,-84.60960945346145 L-3.8734040638309706,-84.46788957107097 L-4.394722267149912,-82.03094193769817" fill-opacity="0" stroke="black" stroke-width="1" />
<path d="M-3.8734040638309706,84.46788957107097 L-4.394722267149912,82.03094193769817 L-5.152785901134389,81.6843466773884" fill-opacity="0" stroke="black" stroke-width="1" />
<path d="M-3.8734040638309706,-15.532110428929025 L-4.394722267149912,-17.96905806230183 L-5.152785901134389,-18.315653322611595" fill-opacity="0" stroke="black" stroke-width="1" />
<path d="M-3.8734040638309706,15.53211042892903 L-4.394722267149912,17.969058062301826 L-5.152785901134389,18.315653322611595" fill-opacity="0" stroke="black" stroke-width="1" />
<path d="M-3.8734040638309706,-84.46788957107097 L-4.394722267149912,-82.03094193769817 L-5.152785901134389,-81.6843466773884" fill-opacity="0" stroke="black" stroke-width="1" />
<path d="M-4.394722267149912,82.03094193769817 L-5.152785901134389,81.6843466773884 L-5.239108651594078,80.48589889143105" fill-opacity="0" stroke="black" stroke-width="1" />
<path d="M-4.394722267149912,-17.96905806230183 L-5.152785901134389,-18.315653322611595 L-5.239108651594078,-19.51410110856896" fill-opacity="0" stroke="black" stroke-width="1" />
<path d="M-4.394722267149912,17.969058062301826 L-5.152785901134389,18.315653322611595 L-5.239108651594078,19.51410110856895" fill-opacity="0" stroke="black" stroke-width="1" />
<path d="M-4.394722267149912,-82.03094193769817 L-5.152785901134389,-81.6843466773884 L-5.239108651594078,-80.48589889143105" fill-opacity="0" stroke="black" stroke-width="1" />
<path d="M-5.152785901134389,81.6843466773884 L-5.239108651594078,80.48589889143105 L-11.336114018774309,80.08255531839777" fill-opacity="0" stroke="black" stroke-width="1" />
<path d="M-5.152785901134389,-18.315653322611595 L-5.239108651594078,-19.51410110856896 L-11.336114018774309,-19.91744468160223" fill-opacity="0" stroke="black" stroke-width="1" />
<path d="M-5.152785901134389,18.315653322611595 L-5.239108651594078,19.51410110856895 L-11.336114018774309,19.917444681602234" fill-opacity="0" stroke="black" stroke-width="1" />
<path d="M-5.152785901134389,-81.6843466773884 L-5.239108651594078,-80.48589889143105 L-11.336114018774309,-80.08255531839777" fill-opacity="0" stroke="black" stroke-width="1" />
<path d="M-5.239108651594078,80.48589889143105 L-11.336114018774309,80.08255531839777 L-13.174631163950446,73.56381154335715" fill-opacity="0" stroke="black" stroke-width="1" />
<path d="M-5.239108651594078,-19.51410110856896 L-11.336114018774309,-19.91744468160223 L-13.174631163950446,-26.436188456642856" fill-opacity="0" stroke="black" stroke-width="1" />
<path d="M-5.239108651594078,19.51410110856895 L-11.336114018774309,19.917444681602234 L-13.174631163950446,26.436188456642853" fill-opacity="0" stroke="black" stroke-width="1" />
<path d="M-5.239108651594078,-80.48589889143105 L-11.336114018774309,-80.08255531839777 L-13.174631163950446,-73.56381154335715" fill-opacity="0" stroke="black" stroke-width="1" />
<path d="M-11.336114018774309,80.08255531839777 L-13.174631163950446,73.56381154335715 L-17.174069178337824,68.81801920494004" fill-opacity="0" stroke="black" stroke-width="1" />
<path d="M-11.336114018774309,-19.91744468160223 L-13.174631163950446,-26.436188456642856 L-17.174069178337824,-31.18198079505995" fill-opacity="0" stroke="black" stroke-width="1" />
<path d="M-11.336114018774309,19.917444681602234 L-13.174631163950446,26.436188456642853 L-17.174069178337824,31.181980795059957" fill-opacity="0" stroke="black" stroke-width="1" />
<path d="M-11.336114018774309,-80.08255531839777 L-13.174631163950446,-73.56381154335715 L-17.174069178337824,-68.81801920494004" fill-opacity="0" stroke="black" stroke-width="1" />
<path d="M-13.174631163950446,73.56381154335715 L-17.174069178337824,68.81801920494004 L-17.266891670067977,68.62115559472005" fill-opacity="0" stroke="black" stroke-width="1" />
<path d="M-13.174631163950446,-26.436188456642856 L-17.174069178337824,-31.18198079505995 L-17.266891670067977,-31.378844405279953" fill-opacity="0" stroke="black" stroke-width="1" />
<path d="M-13.174631163950446,26.436188456642853 L-17.174069178337824,31.181980795059957 L-17.266891670067977,31.37884440527995" fill-opacity="0" stroke="black" stroke-width="1" />
<path d="M-13.174631163950446,-73.56381154335715 L-17.174069178337824,-68.81801920494004 L-17.266891670067977,-68.62115559472005" fill-opacity="0" stroke="black" stroke-width="1" />
<path d="M-17.174069178337824,68.81801920494004 L-17.266891670067977,68.62115559472005 L0.0,65.0" fill-opacity="0" stroke="black" stroke-width="1" />
<path d="M-17.174069178337824,-31.18198079505995 L-17.266891670067977,-31.378844405279953 L0.0,-35.0" fill-opacity="0" stroke="black" stroke-width="1" />
<path d="M-17.174069178337824,31.181980795059957 L-17.266891670067977,31.37884440527995 L0.0,35.0" fill-opacity="0" stroke="black" stroke-width="1" />
<path d="M-17.174069178337824,-68.81801920494004 L-17.266891670067977,-68.62115559472005 L0.0,-65.0" fill-opacity="0" stroke="black" stroke-width="1" />
<path d="M-16.0,50.0 L-19.07640311416289,66.27747356715666 L-23.964604872891915,58.17974906382471" fill-opacity="0" stroke="black" stroke-width="1" />
<path d="M-16.0,-50.0 L-19.07640311416289,-33.72252643284334 L-23.964604872891915,-41.82025093617529" fill-opacity="0" stroke="black" stroke-width="1" />
<path d="M-16.0,50.0 L-19.07640311416289,33.72252643284334 L-23.964604872891915,41.82025093617529" fill-opacity="0" stroke="black" stroke-width="1" />
<path d="M-16.0,-50.0 L-19.07640311416289,-66.27747356715666 L-23.964604872891915,-58.17974906382471" fill-opacity="0" stroke="black" stroke-width="1" />
<path d="M-19.07640311416289,66.27747356715666 L-23.964604872891915,58.17974906382471 L-24.979474659183186,56.290376597481334" fill-opacity="0" stroke="black" stroke-width="1" />
<path d="M-19.07640311416289,-33.72252643284334 L-23.964604872891915,-41.82025093617529 L-24.979474659183186,-43.709623402518666" fill-opacity="0" stroke="black" stroke-width="1" />
<path d="M-19.07640311416289,33.72252643284334 L-23.964604872891915,41.82025093617529 L-24.979474659183186,43.709623402518666" fill-opacity="0" stroke="black" stroke-width="1" />
<path d="M-19.07640311416289,-66.27747356715666 L-23.964604872891915,-58.17974906382471 L-24.979474659183186,-56.290376597481334" fill-opacity="0" stroke="black" stroke-width="1" />
<path d="M-23.964604872891915,58.17974906382471 L-24.979474659183186,56.290376597481334 L-28.0,50.0" fill-opacity="0" stroke="black" stroke-width="1" />
<path d="M-23.964604872891915,-41.82025093617529 L-24.979474659183186,-43.709623402518666 L-28.0,-50.0" fill-opacity="0" stroke="black" stroke-width="1" />
<path d="M-23.964604872891915,41.82025093617529 L-24.979474659183186,43.709623402518666 L-28.0,50.0" fill-opacity="0" stroke="black" stroke-width="1" />
<path d="M-23.964604872891915,-58.17974906382471 L-24.979474659183186,-56.290376597481334 L-28.0,-50.0" fill-opacity="0" stroke="black" stroke-width="1" />
<path d="M-32.0,50.0 L-33.08005816907685,54.99448284181827 L-48.0,50.0" fill-opacity="0" stroke="black" stroke-width="1" />
<path d="M-32.0,-50.0 L-33.08005816907685,-45.00551715818173 L-48.0,-50.0" fill-opacity="0" stroke="black" stroke-width="1" />
<path d="M-32.0,50.0 L-33.08005816907685,45.00551715818173 L-48.0,50.0" fill-opacity="0" stroke="black" stroke-width="1" />
<path d="M-32.0,-50.0 L-33.08005816907685,-54.99448284181827 L-48.0,-50.0" fill-opacity="0" stroke="black" stroke-width="1" />
<path d="M-48.0,50.0 L-44.055268494623334,51.92669208066741 L-48.0,52.0" fill-opacity="0" stroke="black" stroke-width="1" />
<path d="M-48.0,-50.0 L-44.055268494623334,-48.07330791933259 L-48.0,-48.0" fill-opacity="0" stroke="black" stroke-width="1" />
<path d="M-48.0,50.0 L-44.055268494623334,48.07330791933259 L-48.0,48.0" fill-opacity="0" stroke="black" stroke-width="1" />
<path d="M-48.0,-50.0 L-44.055268494623334,-51.92669208066741 L-48.0,-52.0" fill-opacity="0" stroke="black" stroke-width="1" />
<path d="M-48.0,52.0 L-40.69111788690306,53.242092472140925 L-46.0,54.0" fill-opacity="0" stroke="black" stroke-width="1" />
<path d="M-48.0,-48.0 L-40.69111788690306,-46.757907527859075 L-46.0,-46.0" fill-opacity="0" stroke="black" stroke-width="1" />
<path d="M-48.0,48.0 L-40.69111788690306,46.757907527859075 L-46.0,46.0" fill-opacity="0" stroke="black" stroke-width="1" />
<path d="M-48.0,-52.0 L-40.69111788690306,-53.242092472140925 L-46.0,-54.0" fill-opacity="0" stroke="black" stroke-width="1" />
<path d="M-17.0,83.0 L-0.7517562048841325,94.1801813568513 L-0.4738336533410801,96.75070895744051" fill-opacity="0" stroke="black" stroke-width="1" />
<path d="M-17.0,-17.0 L-0.7517562048841325,-5.819818643148699 L-0.4738336533410801,-3.249291042559493" fill-opacity="0" stroke="black" stroke-width="1" />
<path d="M-17.0,17.0 L-0.7517562048841325,5.819818643148693 L-0.4738336533410801,3.2492910425594914" fill-opacity="0" stroke="black" stroke-width="1" />
<path d="M-17.0,-83.0 L-0.7517562048841325,-94.1801813568513 L-0.4738336533410801,-96.75070895744051" fill-opacity="0" stroke="black" stroke-width="1" />
<path d="M-0.7517562048841325,94.1801813568513 L-0.4738336533410801,96.75070895744051 L0.0,100.0" fill-opacity="0" stroke="black" stroke-width="1" />
<path d="M-0.7517562048841325,-5.819818643148699 L-0.4738336533410801,-3.249291042559493 L0.0,-0.0" fill-opacity="0" stroke="black" stroke-width="1" />
<path d="M-0.7517562048841325,5.819818643148693 L-0.4738336533410801,3.2492910425594914 L0.0,-0.0" fill-opacity="0" stroke="black" stroke-width="1" />
<path d="M-0.7517562048841325,-94.1801813568513 L-0.4738336533410801,-96.75070895744051 L0.0,-100.0" fill-opacity="0" stroke="black" stroke-width="1" />
<path d="M-95.0,-0.0 L-89.48121932455024,-1.7891587887398863 L-84.70558238590202,-2.432986330085296" fill-opacity="0" stroke="black" stroke-width="1" />
<path d="M-95.0,-0.0 L-89.48121932455024,1.7891587887398863 L-84.70558238590202,2.432986330085296" fill-opacity="0" stroke="black" stroke-width="1" />
<path d="M-89.48121932455024,-1.7891587887398863 L-84.70558238590202,-2.432986330085296 L-84.60960945346145,-2.7135198693559266" fill-opacity="0" stroke="black" stroke-width="1" />
<path d="M-89.48121932455024,1.7891587887398863 L-84.70558238590202,2.432986330085296 L-84.60960945346145,2.7135198693559266" fill-opacity="0" stroke="black" stroke-width="1" />
<path d="M-84.70558238590202,-2.432986330085296 L-84.60960945346145,-2.7135198693559266 L-84.46788957107097,-3.8734040638309706" fill-opacity="0" stroke="black" stroke-width="1" />
<path d="M-84.70558238590202,2.432986330085296 L-84.60960945346145,2.7135198693559266 L-84.46788957107097,3.8734040638309706" fill-opacity="0" stroke="black" stroke-width="1" />
<path d="M-84.60960945346145,-2.7135198693559266 L-84.46788957107097,-3.8734040638309706 L-82.03094193769817,-4.394722267149912" fill-opacity="0" stroke="black" stroke-width="1" />
<path d="M-84.60960945346145,2.7135198693559266 L-84.46788957107097,3.8734040638309706 L-82.03094193769817,4.394722267149912" fill-opacity="0" stroke="black" stroke-width="1" />
<path d="M-84.46788957107097,-3.8734040638309706 L-82.03094193769817,-4.394722267149912 L-81.6843466773884,-5.152785901134389" fill-opacity="0" stroke="black" stroke-width="1" />
<path d="M-84.46788957107097,3.8734040638309706 L-82.03094193769817,4.394722267149912 L-81.6843466773884,5.152785901134389" fill-opacity="0" stroke="black" stroke-width="1" />
<path d="M-82.03094193769817,-4.394722267149912 L-81.6843466773884,-5.152785901134389 L-80.48589889143105,-5.239108651594078" fill-opacity="0" stroke="black" stroke-width="1" />
<path d="M-82.03094193769817,4.394722267149912 L-81.6843466773884,5.152785901134389 L-80.48589889143105,5.239108651594078" fill-opacity="0" stroke="black" stroke-width="1" />
<path d="M-81.6843466773884,-5.152785901134389 L-80.48589889143105,-5.239108651594078 L-80.08255531839777,-11.336114018774309" fill-opacity="0" stroke="black" stroke-width="1" />
<path d="M-81.6843466773884,5.152785901134389 L-80.48589889143105,5.239108651594078 L-80.08255531839777,11.336114018774309" fill-opacity="0" stroke="black" stroke-width="1" />
<path d="M-80.48589889143105,-5.239108651594078 L-80.08255531839777,-11.336114018774309 L-73.56381154335715,-13.174631163950446" fill-opacity="0" stroke="black" stroke-width="1" />
<path d="M-80.48589889143105,5.239108651594078 L-80.08255531839777,11.336114018774309 L-73.56381154335715,13.174631163950446" fill-opacity="0" stroke="black" stroke-width="1" />
<path d="M-80.08255531839777,-11.336114018774309 L-73.56381154335715,-13.174631163950446 L-68.81801920494004,-17.174069178337824" fill-opacity="0" stroke="black" stroke-width="1" />
<path d="M-80.08255531839777,11.336114018774309 L-73.56381154335715,13.174631163950446 L-68.81801920494004,17.174069178337824" fill-opacity="0" stroke="black" stroke-width="1" />
<path d="M-73.56381154335715,-13.174631163950446 L-68.81801920494004,-17.174069178337824 L-68.62115559472005,-17.266891670067977" fill-opacity="0" stroke="black" stroke-width="1" />
<path d="M-73.56381154335715,13.174631163950446 L-68.81801920494004,17.174069178337824 L-68.62115559472005,17.266891670067977" fill-opacity="0" stroke="black" stroke-width="1" />
<path d="M-68.81801920494004,-17.174069178337824 L-68.62115559472005,-17.266891670067977 L-65.0,-0.0" fill-opacity="0" stroke="black" stroke-width="1" />
<path d="M-68.81801920494004,17.174069178337824 L-68.62115559472005,17.266891670067977 L-65.0,-0.0" fill-opacity="0" stroke="black" stroke-width="1" />
<path d="M-50.0,-16.0 L-66.27747356715666,-19.07640311416289 L-58.17974906382471,-23.964604872891915" fill-opacity="0" stroke="black" stroke-width="1" />
<path d="M-50.0,16.0 L-66.27747356715666,19.07640311416289 L-58.17974906382471,23.964604872891915" fill-opacity="0" stroke="black" stroke-width="1" />
<path d="M-66.27747356715666,-19.07640311416289 L-58.17974906382471,-23.964604872891915 L-56.290376597481334,-24.979474659183186" fill-opacity="0" stroke="black" stroke-width="1" />
<path d="M-66.27747356715666,19.07640311416289 L-58.17974906382471,23.964604872891915 L-56.290376597481334,24.979474659183186" fill-opacity="0" stroke="black" stroke-width="1" />
<path d="M-58.17974906382471,-23.964604872891915 L-56.290376597481334,-24.979474659183186 L-50.0,-28.0" fill-opacity="0" stroke="black" stroke-width="1" />
<path d="M-58.17974906382471,23.964604872891915 L-56.290376597481334,24.979474659183186 L-50.0,28.0" fill-opacity="0" stroke="black" stroke-width="1" />
<path d="M-50.0,-32.0 L-54.99448284181827,-33.08005816907685 L-50.0,-48.0" fill-opacity="0" stroke="black" stroke-width="1" />
<path d="M-50.0,32.0 L-54.99448284181827,33.08005816907685 L-50.0,48.0" fill-opacity="0" stroke="black" stroke-width="1" />
<path d="M-50.0,-48.0 L-51.92669208066741,-44.055268494623334 L-52.0,-48.0" fill-opacity="0" stroke="black" stroke-width="1" />
<path d="M-50.0,48.0 L-51.92669208066741,44.055268494623334 L-52.0,48.0" fill-opacity="0" stroke="black" stroke-width="1" />
<path d="M-51.92669208066741,-44.055268494623334 L-52.0,-48.0 L-53.242092472140925,-40.69111788690306" fill-opacity="0" stroke="black" stroke-width="1" />
<path d="M-51.92669208066741,44.055268494623334 L-52.0,48.0 L-53.242092472140925,40.69111788690306" fill-opacity="0" stroke="black" stroke-width="1" />
<path d="M-52.0,-48.0 L-53.242092472140925,-40.69111788690306 L-54.0,-46.0" fill-opacity="0" stroke="black" stroke-width="1" />
<path d="M-52.0,48.0 L-53.242092472140925,40.69111788690306 L-54.0,46.0" fill-opacity="0" stroke="black" stroke-width="1" />
<path d="M-53.242092472140925,-40.69111788690306 L-54.0,-46.0 L-59.0,-41.0" fill-opacity="0" stroke="black" stroke-width="1" />
<path d="M-53.242092472140925,40.69111788690306 L-54.0,46.0 L-59.0,41.0" fill-opacity="0" stroke="black" stroke-width="1" />
<path d="M-54.0,-46.0 L-59.0,-41.0 L-73.0,-27.0" fill-opacity="0" stroke="black" stroke-width="1" />
<path d="M-54.0,46.0 L-59.0,41.0 L-73.0,27.0" fill-opacity="0" stroke="black" stroke-width="1" />
<path d="M-59.0,-41.0 L-73.0,-27.0 L-83.0,-17.0" fill-opacity="0" stroke="black" stroke-width="1" />
<path d="M-59.0,41.0 L-73.0,27.0 L-83.0,17.0" fill-opacity="0" stroke="black" stroke-width="1" />
<path d="M-73.0,-27.0 L-83.0,-17.0 L-94.1801813568513,-0.7517562048841325" fill-opacity="0" stroke="black" stroke-width="1" />
<path d="M-73.0,27.0 L-83.0,17.0 L-94.1801813568513,0.7517562048841325" fill-opacity="0" stroke="black" stroke-width="1" />
<path d="M-83.0,-17.0 L-94.1801813568513,-0.7517562048841325 L-96.75070895744051,-0.4738336533410801" fill-opacity="0" stroke="black" stroke-width="1" />
<path d="M-83.0,17.0 L-94.1801813568513,0.7517562048841325 L-96.75070895744051,0.4738336533410801" fill-opacity="0" stroke="black" stroke-width="1" />
<path d="M-94.1801813568513,-0.7517562048841325 L-96.75070895744051,-0.4738336533410801 L-100.0,-0.0" fill-opacity="0" stroke="black" stroke-width="1" />
<path d="M-94.1801813568513,0.7517562048841325 L-96.75070895744051,0.4738336533410801 L-100.0,-0.0" fill-opacity="0" stroke="black" stroke-width="1" />
<circle cx="0" cy="-97" r="8" stroke-dasharray="39.653880605311166 10.611601852125524" stroke-dashoffset="-17.59291886010284" stroke="black" stroke-width="1" fill="white" fill-opacity="1" />
<circle cx="0" cy="-97" r="4" stroke="black" stroke-width="1" fill="white" fill-opacity="1" />
</svg>