<?xml version="1.0" encoding="UTF-8"?>
<svg xmlns="http://www.w3.org/2000/svg" xmlns:xlink="http://www.w3.org/1999/xlink"
     width="250" height="250" viewBox="-125.0 -125.0 250 250">
<defs>
</defs>
<path d="M0.0,-0.0 L10.32872559340492,-0.3720015444947544 L12.098228654958609,-0.37236244879955693" fill="blue" fill-opacity="0.6" stroke="black" stroke-width="1" />
<path d="M0.0,-0.0 L10.32872559340492,0.3720015444947544 L12.098228654958609,0.37236244879955693" fill="pink" fill-opacity="0.6" stroke="black" stroke-width="1" />
<path d="M10.32872559340492,-0.3720015444947544 L12.098228654958609,-0.37236244879955693 L15.0,-0.0" fill="pink" fill-opacity="0.6" stroke="black" stroke-width="1" />
<path d="M10.32872559340492,0.3720015444947544 L12.098228654958609,0.37236244879955693 L15.0,-0.0" fill="black" fill-opacity="0.6" stroke="black" stroke-width="1" />
<path d="M15.0,-0.0 L15.762148002314813,-3.0098207023209893 L16.242036641850937,-3.8463363971213553" fill="brown" fill-opacity="0.6" stroke="black" stroke-width="1" />
<path d="M15.0,-0.0 L15.762148002314813,3.0098207023209893 L16.242036641850937,3.8463363971213553" fill="black" fill-opacity="0.6" stroke="black" stroke-width="1" />
<path d="M15.762148002314813,-3.0098207023209893 L16.242036641850937,-3.8463363971213553 L20.48740051548809,-5.383159492531507" fill="green" fill-opacity="0.6" stroke="black" stroke-width="1" />
<path d="M15.762148002314813,3.0098207023209893 L16.242036641850937,3.8463363971213553 L20.48740051548809,5.383159492531507" fill="red" fill-opacity="0.6" stroke="black" stroke-width="1" />
<path d="M16.242036641850937,-3.8463363971213553 L20.48740051548809,-5.383159492531507 L22.052808505584288,-5.840244535173825" fill="pink" fill-opacity="0.6" stroke="black" stroke-width="1" />
<path d="M16.242036641850937,3.8463363971213553 L20.48740051548809,5.383159492531507 L22.052808505584288,5.840244535173825" fill="brown" fill-opacity="0.6" stroke="black" stroke-width="1" />
<path d="M20.48740051548809,-5.383159492531507 L22.052808505584288,-5.840244535173825 L22.803494186069777,-9.334586744243312" fill="red" fill-opacity="0.6" stroke="black" stroke-width="1" />
<path d="M20.48740051548809,5.383159492531507 L22.052808505584288,5.840244535173825 L22.803494186069777,9.334586744243312" fill="black" fill-opacity="0.6" stroke="black" stroke-width="1" />
<path d="M22.052808505584288,-5.840244535173825 L22.803494186069777,-9.334586744243312 L24.53915418372778,-12.314789113367816" fill="black" fill-opacity="0.6" stroke="black" stroke-width="1" />
<path d="M22.052808505584288,5.840244535173825 L22.803494186069777,9.334586744243312 L24.53915418372778,12.314789113367816" fill="purple" fill-opacity="0.6" stroke="black" stroke-width="1" />
<path d="M22.803494186069777,-9.334586744243312 L24.53915418372778,-12.314789113367816 L27.0,-0.0" fill="blue" fill-opacity="0.6" stroke="black" stroke-width="1" />
<path d="M22.803494186069777,9.334586744243312 L24.53915418372778,12.314789113367816 L27.0,-0.0" fill="blue" fill-opacity="0.6" stroke="black" stroke-width="1" />
<path d="M50.0,-13.0 L46.1447136207875,-23.73818934734298 L46.2819054504046,-32.966957578736825" fill="green" fill-opacity="0.6" stroke="black" stroke-width="1" />
<path d="M50.0,13.0 L46.1447136207875,23.73818934734298 L46.2819054504046,32.966957578736825" fill="orange" fill-opacity="0.6" stroke="black" stroke-width="1" />
<path d="M46.1447136207875,-23.73818934734298 L46.2819054504046,-32.966957578736825 L30.0,-30.0" fill="green" fill-opacity="0.6" stroke="black" stroke-width="1" />
<path d="M46.1447136207875,23.73818934734298 L46.2819054504046,32.966957578736825 L30.0,30.0" fill="blue" fill-opacity="0.6" stroke="black" stroke-width="1" />
<path d="M32.966957578736825,53.7180945495954 L30.0,70.0 L11.0,89.0" fill="orange" fill-opacity="0.6" stroke="black" stroke-width="1" />
<path d="M32.966957578736825,-53.7180945495954 L30.0,-70.0 L11.0,-89.0" fill="purple" fill-opacity="0.6" stroke="black" stroke-width="1" />
<path d="M30.0,70.0 L11.0,89.0 L6.0,94.0" fill="orange" fill-opacity="0.6" stroke="black" stroke-width="1" />
<path d="M30.0,-70.0 L11.0,-89.0 L6.0,-94.0" fill="yellow" fill-opacity="0.6" stroke="black" stroke-width="1" />
<path d="M11.0,89.0 L6.0,94.0 L0.0,100.0" fill="purple" fill-opacity="0.6" stroke="black" stroke-width="1" />
<path d="M11.0,-89.0 L6.0,-94.0 L0.0,-100.0" fill="brown" fill-opacity="0.6" stroke="black" stroke-width="1" />
<path d="M0.0,-0.0 L-10.32872559340492,-0.3720015444947544 L-12.098228654958609,-0.37236244879955693" fill="brown" fill-opacity="0.6" stroke="black" stroke-width="1" />
<path d="M0.0,-0.0 L-10.32872559340492,0.3720015444947544 L-12.098228654958609,0.37236244879955693" fill="blue" fill-opacity="0.6" stroke="black" stroke-width="1" />
<path d="M-10.32872559340492,-0.3720015444947544 L-12.098228654958609,-0.37236244879955693 L-15.0,-0.0" fill="orange" fill-opacity="0.6" stroke="black" stroke-width="1" />
<path d="M-10.32872559340492,0.3720015444947544 L-12.098228654958609,0.37236244879955693 L-15.0,-0.0" fill="green" fill-opacity="0.6" stroke="black" stroke-width="1" />
<path d="M-15.0,-0.0 L-15.762148002314813,-3.0098207023209893 L-16.242036641850937,-3.8463363971213553" fill="blue" fill-opacity="0.6" stroke="black" stroke-width="1" />
<path d="M-15.0,-0.0 L-15.762148002314813,3.0098207023209893 L-16.242036641850937,3.8463363971213553" fill="blue" fill-opacity="0.6" stroke="black" stroke-width="1" />
<path d="M-15.762148002314813,-3.0098207023209893 L-16.242036641850937,-3.8463363971213553 L-20.48740051548809,-5.383159492531507" fill="yellow" fill-opacity="0.6" stroke="black" stroke-width="1" />
<path d="M-15.762148002314813,3.0098207023209893 L-16.242036641850937,3.8463363971213553 L-20.48740051548809,5.383159492531507" fill="pink" fill-opacity="0.6" stroke="black" stroke-width="1" />
<path d="M-16.242036641850937,-3.8463363971213553 L-20.48740051548809,-5.383159492531507 L-22.052808505584288,-5.840244535173825" fill="green" fill-opacity="0.6" stroke="black" stroke-width="1" />
<path d="M-16.242036641850937,3.8463363971213553 L-20.48740051548809,5.383159492531507 L-22.052808505584288,5.840244535173825" fill="green" fill-opacity="0.6" stroke="black" stroke-width="1" />
<path d="M-20.48740051548809,-5.383159492531507 L-22.052808505584288,-5.840244535173825 L-22.803494186069777,-9.334586744243312" fill="yellow" fill-opacity="0.6" stroke="black" stroke-width="1" />
<path d="M-20.48740051548809,5.383159492531507 L-22.052808505584288,5.840244535173825 L-22.803494186069777,9.334586744243312" fill="green" fill-opacity="0.6" stroke="black" stroke-width="1" />
<path d="M-22.052808505584288,-5.840244535173825 L-22.803494186069777,-9.334586744243312 L-24.53915418372778,-12.314789113367816" fill="yellow" fill-opacity="0.6" stroke="black" stroke-width="1" />
<path d="M-22.052808505584288,5.840244535173825 L-22.803494186069777,9.334586744243312 L-24.53915418372778,12.314789113367816" fill="purple" fill-opacity="0.6" stroke="black" stroke-width="1" />
<path d="M-22.803494186069777,-9.334586744243312 L-24.53915418372778,-12.314789113367816 L-27.0,-0.0" fill="green" fill-opacity="0.6" stroke="black" stroke-width="1" />
<path d="M-22.803494186069777,9.334586744243312 L-24.53915418372778,12.314789113367816 L-27.0,-0.0" fill="pink" fill-opacity="0.6" stroke="black" stroke-width="1" />
<path d="M-50.0,-13.0 L-46.1447136207875,-23.73818934734298 L-46.2819054504046,-32.966957578736825" fill="brown" fill-opacity="0.6" stroke="black" stroke-width="1" />
<path d="M-50.0,13.0 L-46.1447136207875,23.73818934734298 L-46.2819054504046,32.966957578736825" fill="red" fill-opacity="0.6" stroke="black" stroke-width="1" />
<path d="M-46.1447136207875,-23.73818934734298 L-46.2819054504046,-32.966957578736825 L-30.0,-30.0" fill="red" fill-opacity="0.6" stroke="black" stroke-width="1" />
<path d="M-46.1447136207875,23.73818934734298 L-46.2819054504046,32.966957578736825 L-30.0,30.0" fill="pink" fill-opacity="0.6" stroke="black" stroke-width="1" />
<path d="M-32.966957578736825,53.7180945495954 L-30.0,70.0 L-11.0,89.0" fill="orange" fill-opacity="0.6" stroke="black" stroke-width="1" />
<path d="M-32.966957578736825,-53.7180945495954 L-30.0,-70.0 L-11.0,-89.0" fill="yellow" fill-opacity="0.6" stroke="black" stroke-width="1" />
<path d="M-30.0,70.0 L-11.0,89.0 L-6.0,94.0" fill="brown" fill-opacity="0.6" stroke="black" stroke-width="1" />
<path d="M-30.0,-70.0 L-11.0,-89.0 L-6.0,-94.0" fill="red" fill-opacity="0.6" stroke="black" stroke-width="1" />
<path d="M-11.0,89.0 L-6.0,94.0 L0.0,100.0" fill="yellow" fill-opacity="0.6" stroke="black" stroke-width="1" />
<path d="M-11.0,-89.0 L-6.0,-94.0 L0.0,-100.0" fill="brown" fill-opacity="0.6" stroke="black" stroke-width="1" />
<path d="M100.0,-0.0 L89.67127440659507,0.3720015444947544 L87.9017713450414,0.37236244879955693" fill="green" fill-opacity="0.6" stroke="black" stroke-width="1" />
<path d="M100.0,-0.0 L89.67127440659507,-0.3720015444947544 L87.9017713450414,-0.37236244879955693" fill="yellow" fill-opacity="0.6" stroke="black" stroke-width="1" />
<path d="M89.67127440659507,0.3720015444947544 L87.9017713450414,0.37236244879955693 L85.0,-0.0" fill="yellow" fill-opacity="0.6" stroke="black" stroke-width="1" />
<path d="M89.67127440659507,-0.3720015444947544 L87.9017713450414,-0.37236244879955693 L85.0,-0.0" fill="yellow" fill-opacity="0.6" stroke="black" stroke-width="1" />
<path d="M85.0,-0.0 L84.23785199768518,3.0098207023209893 L83.75796335814906,3.8463363971213553" fill="yellow" fill-opacity="0.6" stroke="black" stroke-width="1" />
<path d="M85.0,-0.0 L84.23785199768518,-3.0098207023209893 L83.75796335814906,-3.8463363971213553" fill="green" fill-opacity="0.6" stroke="black" stroke-width="1" />
<path d="M84.23785199768518,3.0098207023209893 L83.75796335814906,3.8463363971213553 L79.51259948451191,5.383159492531507" fill="purple" fill-opacity="0.6" stroke="black" stroke-width="1" />
<path d="M84.23785199768518,-3.0098207023209893 L83.75796335814906,-3.8463363971213553 L79.51259948451191,-5.383159492531507" fill="purple" fill-opacity="0.6" stroke="black" stroke-width="1" />
<path d="M83.75796335814906,3.8463363971213553 L79.51259948451191,5.383159492531507 L77.9471914944157,5.840244535173825" fill="red" fill-opacity="0.6" stroke="black" stroke-width="1" />
<path d="M83.75796335814906,-3.8463363971213553 L79.51259948451191,-5.383159492531507 L77.9471914944157,-5.840244535173825" fill="pink" fill-opacity="0.6" stroke="black" stroke-width="1" />
<path d="M79.51259948451191,5.383159492531507 L77.9471914944157,5.840244535173825 L77.19650581393023,9.334586744243312" fill="yellow" fill-opacity="0.6" stroke="black" stroke-width="1" />
<path d="M79.51259948451191,-5.383159492531507 L77.9471914944157,-5.840244535173825 L77.19650581393023,-9.334586744243312" fill="red" fill-opacity="0.6" stroke="black" stroke-width="1" />
<path d="M77.9471914944157,5.840244535173825 L77.19650581393023,9.334586744243312 L75.46084581627221,12.314789113367816" fill="green" fill-opacity="0.6" stroke="black" stroke-width="1" />
<path d="M77.9471914944157,-5.840244535173825 L77.19650581393023,-9.334586744243312 L75.46084581627221,-12.314789113367816" fill="brown" fill-opacity="0.6" stroke="black" stroke-width="1" />
<path d="M77.19650581393023,9.334586744243312 L75.46084581627221,12.314789113367816 L73.0,-0.0" fill="black" fill-opacity="0.6" stroke="black" stroke-width="1" />
<path d="M77.19650581393023,-9.334586744243312 L75.46084581627221,-12.314789113367816 L73.0,-0.0" fill="orange" fill-opacity="0.6" stroke="black" stroke-width="1" />
<path d="M50.0,13.0 L53.8552863792125,23.73818934734298 L53.7180945495954,32.966957578736825" fill="green" fill-opacity="0.6" stroke="black" stroke-width="1" />
<path d="M50.0,-13.0 L53.8552863792125,-23.73818934734298 L53.7180945495954,-32.966957578736825" fill="blue" fill-opacity="0.6" stroke="black" stroke-width="1" />
<path d="M53.8552863792125,23.73818934734298 L53.7180945495954,32.966957578736825 L70.0,30.0" fill="blue" fill-opacity="0.6" stroke="black" stroke-width="1" />
<path d="M53.8552863792125,-23.73818934734298 L53.7180945495954,-32.966957578736825 L70.0,-30.0" fill="pink" fill-opacity="0.6" stroke="black" stroke-width="1" />
<path d="M53.7180945495954,32.966957578736825 L70.0,30.0 L89.0,11.0" fill="yellow" fill-opacity="0.6" stroke="black" stroke-width="1" />
<path d="M53.7180945495954,-32.966957578736825 L70.0,-30.0 L89.0,-11.0" fill="red" fill-opacity="0.6" stroke="black" stroke-width="1" />
<path d="M70.0,30.0 L89.0,11.0 L94.0,6.0" fill="green" fill-opacity="0.6" stroke="black" stroke-width="1" />
<path d="M70.0,-30.0 L89.0,-11.0 L94.0,-6.0" fill="brown" fill-opacity="0.6" stroke="black" stroke-width="1" />
<path d="M89.0,11.0 L94.0,6.0 L100.0,-0.0" fill="yellow" fill-opacity="0.6" stroke="black" stroke-width="1" />
<path d="M89.0,-11.0 L94.0,-6.0 L100.0,-0.0" fill="blue" fill-opacity="0.6" stroke="black" stroke-width="1" />
<path d="M0.0,-0.0 L0.3720015444947544,-10.32872559340492 L0.37236244879955693,-12.098228654958609" fill="red" fill-opacity="0.6" stroke="black" stroke-width="1" />
<path d="M0.0,-0.0 L0.3720015444947544,10.32872559340492 L0.37236244879955693,12.098228654958609" fill="blue" fill-opacity="0.6" stroke="black" stroke-width="1" />
<path d="M0.0,100.0 L0.3720015444947544,89.67127440659507 L0.37236244879955693,87.9017713450414" fill="red" fill-opacity="0.6" stroke="black" stroke-width="1" />
<path d="M0.0,-100.0 L0.3720015444947544,-89.67127440659507 L0.37236244879955693,-87.9017713450414" fill="red" fill-opacity="0.6" stroke="black" stroke-width="1" />
<path d="M0.3720015444947544,-10.32872559340492 L0.37236244879955693,-12.098228654958609 L0.0,-15.0" fill="brown" fill-opacity="0.6" stroke="black" stroke-width="1" />
<path d="M0.3720015444947544,10.32872559340492 L0.37236244879955693,12.098228654958609 L0.0,15.0" fill="black" fill-opacity="0.6" stroke="black" stroke-width="1" />
<path d="M0.3720015444947544,89.67127440659507 L0.37236244879955693,87.9017713450414 L0.0,85.0" fill="red" fill-opacity="0.6" stroke="black" stroke-width="1" />
<path d="M0.3720015444947544,-89.67127440659507 L0.37236244879955693,-87.9017713450414 L0.0,-85.0" fill="purple" fill-opacity="0.6" stroke="black" stroke-width="1" />
<path d="M0.0,-15.0 L3.0098207023209893,-15.762148002314813 L3.8463363971213553,-16.242036641850937" fill="brown" fill-opacity="0.6" stroke="black" stroke-width="1" />
<path d="M0.0,15.0 L3.0098207023209893,15.762148002314813 L3.8463363971213553,16.242036641850937" fill="pink" fill-opacity="0.6" stroke="black" stroke-width="1" />
<path d="M0.0,85.0 L3.0098207023209893,84.23785199768518 L3.8463363971213553,83.75796335814906" fill="red" fill-opacity="0.6" stroke="black" stroke-width="1" />
<path d="M0.0,-85.0 L3.0098207023209893,-84.23785199768518 L3.8463363971213553,-83.75796335814906" fill="blue" fill-opacity="0.6" stroke="black" stroke-width="1" />
<path d="M3.0098207023209893,-15.762148002314813 L3.8463363971213553,-16.242036641850937 L5.383159492531507,-20.48740051548809" fill="green" fill-opacity="0.6" stroke="black" stroke-width="1" />
<path d="M3.0098207023209893,15.762148002314813 L3.8463363971213553,16.242036641850937 L5.383159492531507,20.48740051548809" fill="green" fill-opacity="0.6" stroke="black" stroke-width="1" />
<path d="M3.0098207023209893,84.23785199768518 L3.8463363971213553,83.75796335814906 L5.383159492531507,79.51259948451191" fill="black" fill-opacity="0.6" stroke="black" stroke-width="1" />
<path d="M3.0098207023209893,-84.23785199768518 L3.8463363971213553,-83.75796335814906 L5.383159492531507,-79.51259948451191" fill="orange" fill-opacity="0.6" stroke="black" stroke-width="1" />
<path d="M3.8463363971213553,-16.242036641850937 L5.383159492531507,-20.48740051548809 L5.840244535173825,-22.052808505584288" fill="orange" fill-opacity="0.6" stroke="black" stroke-width="1" />
<path d="M3.8463363971213553,16.242036641850937 L5.383159492531507,20.48740051548809 L5.840244535173825,22.052808505584288" fill="green" fill-opacity="0.6" stroke="black" stroke-width="1" />
<path d="M3.8463363971213553,83.75796335814906 L5.383159492531507,79.51259948451191 L5.840244535173825,77.9471914944157" fill="red" fill-opacity="0.6" stroke="black" stroke-width="1" />
<path d="M3.8463363971213553,-83.75796335814906 L5.383159492531507,-79.51259948451191 L5.840244535173825,-77.9471914944157" fill="black" fill-opacity="0.6" stroke="black" stroke-width="1" />
<path d="M5.383159492531507,-20.48740051548809 L5.840244535173825,-22.052808505584288 L9.334586744243312,-22.803494186069777" fill="blue" fill-opacity="0.6" stroke="black" stroke-width="1" />
<path d="M5.383159492531507,20.48740051548809 L5.840244535173825,22.052808505584288 L9.334586744243312,22.803494186069777" fill="brown" fill-opacity="0.6" stroke="black" stroke-width="1" />
<path d="M5.383159492531507,79.51259948451191 L5.840244535173825,77.9471914944157 L9.334586744243312,77.19650581393023" fill="orange" fill-opacity="0.6" stroke="black" stroke-width="1" />
<path d="M5.383159492531507,-79.51259948451191 L5.840244535173825,-77.9471914944157 L9.334586744243312,-77.19650581393023" fill="purple" fill-opacity="0.6" stroke="black" stroke-width="1" />
<path d="M5.840244535173825,-22.052808505584288 L9.334586744243312,-22.803494186069777 L12.314789113367816,-24.53915418372778" fill="purple" fill-opacity="0.6" stroke="black" stroke-width="1" />
<path d="M5.840244535173825,22.052808505584288 L9.334586744243312,22.803494186069777 L12.314789113367816,24.53915418372778" fill="pink" fill-opacity="0.6" stroke="black" stroke-width="1" />
<path d="M5.840244535173825,77.9471914944157 L9.334586744243312,77.19650581393023 L12.314789113367816,75.46084581627221" fill="red" fill-opacity="0.6" stroke="black" stroke-width="1" />
<path d="M5.840244535173825,-77.9471914944157 L9.334586744243312,-77.19650581393023 L12.314789113367816,-75.46084581627221" fill="blue" fill-opacity="0.6" stroke="black" stroke-width="1" />
<path d="M9.334586744243312,-22.803494186069777 L12.314789113367816,-24.53915418372778 L0.0,-27.0" fill="green" fill-opacity="0.6" stroke="black" stroke-width="1" />
<path d="M9.334586744243312,22.803494186069777 L12.314789113367816,24.53915418372778 L0.0,27.0" fill="blue" fill-opacity="0.6" stroke="black" stroke-width="1" />
<path d="M9.334586744243312,77.19650581393023 L12.314789113367816,75.46084581627221 L0.0,73.0" fill="green" fill-opacity="0.6" stroke="black" stroke-width="1" />
<path d="M9.334586744243312,-77.19650581393023 L12.314789113367816,-75.46084581627221 L0.0,-73.0" fill="blue" fill-opacity="0.6" stroke="black" stroke-width="1" />
<path d="M13.0,-50.0 L23.73818934734298,-46.1447136207875 L32.966957578736825,-46.2819054504046" fill="pink" fill-opacity="0.6" stroke="black" stroke-width="1" />
<path d="M13.0,50.0 L23.73818934734298,46.1447136207875 L32.966957578736825,46.2819054504046" fill="orange" fill-opacity="0.6" stroke="black" stroke-width="1" />
<path d="M13.0,50.0 L23.73818934734298,53.8552863792125 L32.966957578736825,53.7180945495954" fill="brown" fill-opacity="0.6" stroke="black" stroke-width="1" />
<path d="M13.0,-50.0 L23.73818934734298,-53.8552863792125 L32.966957578736825,-53.7180945495954" fill="blue" fill-opacity="0.6" stroke="black" stroke-width="1" />
<path d="M23.73818934734298,-46.1447136207875 L32.966957578736825,-46.2819054504046 L30.0,-30.0" fill="brown" fill-opacity="0.6" stroke="black" stroke-width="1" />
<path d="M23.73818934734298,46.1447136207875 L32.966957578736825,46.2819054504046 L30.0,30.0" fill="pink" fill-opacity="0.6" stroke="black" stroke-width="1" />
<path d="M23.73818934734298,53.8552863792125 L32.966957578736825,53.7180945495954 L30.0,70.0" fill="black" fill-opacity="0.6" stroke="black" stroke-width="1" />
<path d="M23.73818934734298,-53.8552863792125 L32.966957578736825,-53.7180945495954 L30.0,-70.0" fill="black" fill-opacity="0.6" stroke="black" stroke-width="1" />
<path d="M0.0,100.0 L-0.3720015444947544,89.67127440659507 L-0.37236244879955693,87.9017713450414" fill="yellow" fill-opacity="0.6" stroke="black" stroke-width="1" />
<path d="M0.0,-0.0 L-0.3720015444947544,-10.32872559340492 L-0.37236244879955693,-12.098228654958609" fill="black" fill-opacity="0.6" stroke="black" stroke-width="1" />
<path d="M0.0,-0.0 L-0.3720015444947544,10.328725593404926 L-0.37236244879955693,12.098228654958604" fill="black" fill-opacity="0.6" stroke="black" stroke-width="1" />
<path d="M0.0,-100.0 L-0.3720015444947544,-89.67127440659507 L-0.37236244879955693,-87.9017713450414" fill="black" fill-opacity="0.6" stroke="black" stroke-width="1" />
<path d="M-0.3720015444947544,89.67127440659507 L-0.37236244879955693,87.9017713450414 L0.0,85.0" fill="orange" fill-opacity="0.6" stroke="black" stroke-width="1" />
<path d="M-0.3720015444947544,-10.32872559340492 L-0.37236244879955693,-12.098228654958609 L0.0,-15.0" fill="red" fill-opacity="0.6" stroke="black" stroke-width="1" />
<path d="M-0.3720015444947544,10.328725593404926 L-0.37236244879955693,12.098228654958604 L0.0,15.0" fill="yellow" fill-opacity="0.6" stroke="black" stroke-width="1" />
<path d="M-0.3720015444947544,-89.67127440659507 L-0.37236244879955693,-87.9017713450414 L0.0,-85.0" fill="black" fill-opacity="0.6" stroke="black" stroke-width="1" />
<path d="M0.0,85.0 L-3.0098207023209893,84.23785199768518 L-3.8463363971213553,83.75796335814906" fill="brown" fill-opacity="0.6" stroke="black" stroke-width="1" />
<path d="M0.0,-15.0 L-3.0098207023209893,-15.762148002314813 L-3.8463363971213553,-16.242036641850937" fill="orange" fill-opacity="0.6" stroke="black" stroke-width="1" />
<path d="M0.0,15.0 L-3.0098207023209893,15.762148002314817 L-3.8463363971213553,16.242036641850945" fill="orange" fill-opacity="0.6" stroke="black" stroke-width="1" />
<path d="M0.0,-85.0 L-3.0098207023209893,-84.23785199768518 L-3.8463363971213553,-83.75796335814906" fill="purple" fill-opacity="0.6" stroke="black" stroke-width="1" />
<path d="M-3.0098207023209893,84.23785199768518 L-3.8463363971213553,83.75796335814906 L-5.383159492531507,79.51259948451191" fill="orange" fill-opacity="0.6" stroke="black" stroke-width="1" />
<path d="M-3.0098207023209893,-15.762148002314813 L-3.8463363971213553,-16.242036641850937 L-5.383159492531507,-20.48740051548809" fill="black" fill-opacity="0.6" stroke="black" stroke-width="1" />
<path d="M-3.0098207023209893,15.762148002314817 L-3.8463363971213553,16.242036641850945 L-5.383159492531507,20.48740051548809" fill="green" fill-opacity="0.6" stroke="black" stroke-width="1" />
<path d="M-3.0098207023209893,-84.23785199768518 L-3.8463363971213553,-83.75796335814906 L-5.383159492531507,-79.51259948451191" fill="brown" fill-opacity="0.6" stroke="black" stroke-width="1" />
<path d="M-3.8463363971213553,83.75796335814906 L-5.383159492531507,79.51259948451191 L-5.840244535173825,77.9471914944157" fill="pink" fill-opacity="0.6" stroke="black" stroke-width="1" />
<path d="M-3.8463363971213553,-16.242036641850937 L-5.383159492531507,-20.48740051548809 L-5.840244535173825,-22.052808505584288" fill="black" fill-opacity="0.6" stroke="black" stroke-width="1" />
<path d="M-3.8463363971213553,16.242036641850945 L-5.383159492531507,20.48740051548809 L-5.840244535173825,22.052808505584295" fill="purple" fill-opacity="0.6" stroke="black" stroke-width="1" />
<path d="M-3.8463363971213553,-83.75796335814906 L-5.383159492531507,-79.51259948451191 L-5.840244535173825,-77.9471914944157" fill="red" fill-opacity="0.6" stroke="black" stroke-width="1" />
<path d="M-5.383159492531507,79.51259948451191 L-5.840244535173825,77.9471914944157 L-9.334586744243312,77.19650581393023" fill="purple" fill-opacity="0.6" stroke="black" stroke-width="1" />
<path d="M-5.383159492531507,-20.48740051548809 L-5.840244535173825,-22.052808505584288 L-9.334586744243312,-22.803494186069777" fill="pink" fill-opacity="0.6" stroke="black" stroke-width="1" />
<path d="M-5.383159492531507,20.48740051548809 L-5.840244535173825,22.052808505584295 L-9.334586744243312,22.80349418606977" fill="orange" fill-opacity="0.6" stroke="black" stroke-width="1" />
<path d="M-5.383159492531507,-79.51259948451191 L-5.840244535173825,-77.9471914944157 L-9.334586744243312,-77.19650581393023" fill="green" fill-opacity="0.6" stroke="black" stroke-width="1" />
<path d="M-5.840244535173825,77.9471914944157 L-9.334586744243312,77.19650581393023 L-12.314789113367816,75.46084581627221" fill="red" fill-opacity="0.6" stroke="black" stroke-width="1" />
<path d="M-5.840244535173825,-22.052808505584288 L-9.334586744243312,-22.803494186069777 L-12.314789113367816,-24.53915418372778" fill="blue" fill-opacity="0.6" stroke="black" stroke-width="1" />
<path d="M-5.840244535173825,22.052808505584295 L-9.334586744243312,22.80349418606977 L-12.314789113367816,24.53915418372779" fill="purple" fill-opacity="0.6" stroke="black" stroke-width="1" />
<path d="M-5.840244535173825,-77.9471914944157 L-9.334586744243312,-77.19650581393023 L-12.314789113367816,-75.46084581627221" fill="brown" fill-opacity="0.6" stroke="black" stroke-width="1" />
<path d="M-9.334586744243312,77.19650581393023 L-12.314789113367816,75.46084581627221 L0.0,73.0" fill="green" fill-opacity="0.6" stroke="black" stroke-width="1" />
<path d="M-9.334586744243312,-22.803494186069777 L-12.314789113367816,-24.53915418372778 L0.0,-27.0" fill="blue" fill-opacity="0.6" stroke="black" stroke-width="1" />
<path d="M-9.334586744243312,22.80349418606977 L-12.314789113367816,24.53915418372779 L0.0,27.0" fill="pink" fill-opacity="0.6" stroke="black" stroke-width="1" />
<path d="M-9.334586744243312,-77.19650581393023 L-12.314789113367816,-75.46084581627221 L0.0,-73.0" fill="blue" fill-opacity="0.6" stroke="black" stroke-width="1" />
<path d="M-13.0,50.0 L-23.73818934734298,53.8552863792125 L-32.966957578736825,53.7180945495954" fill="blue" fill-opacity="0.6" stroke="black" stroke-width="1" />
<path d="M-13.0,-50.0 L-23.73818934734298,-46.1447136207875 L-32.966957578736825,-46.2819054504046" fill="orange" fill-opacity="0.6" stroke="black" stroke-width="1" />
<path d="M-13.0,50.0 L-23.73818934734298,46.1447136207875 L-32.966957578736825,46.2819054504046" fill="pink" fill-opacity="0.6" stroke="black" stroke-width="1" />
<path d="M-13.0,-50.0 L-23.73818934734298,-53.8552863792125 L-32.966957578736825,-53.7180945495954" fill="brown" fill-opacity="0.6" stroke="black" stroke-width="1" />
<path d="M-23.73818934734298,53.8552863792125 L-32.966957578736825,53.7180945495954 L-30.0,70.0" fill="brown" fill-opacity="0.6" stroke="black" stroke-width="1" />
<path d="M-23.73818934734298,-46.1447136207875 L-32.966957578736825,-46.2819054504046 L-30.0,-30.0" fill="red" fill-opacity="0.6" stroke="black" stroke-width="1" />
<path d="M-23.73818934734298,46.1447136207875 L-32.966957578736825,46.2819054504046 L-30.0,30.0" fill="brown" fill-opacity="0.6" stroke="black" stroke-width="1" />
<path d="M-23.73818934734298,-53.8552863792125 L-32.966957578736825,-53.7180945495954 L-30.0,-70.0" fill="yellow" fill-opacity="0.6" stroke="black" stroke-width="1" />
<path d="M-100.0,-0.0 L-89.67127440659507,-0.3720015444947544 L-87.9017713450414,-0.37236244879955693" fill="orange" fill-opacity="0.6" stroke="black" stroke-width="1" />
<path d="M-100.0,-0.0 L-89.67127440659507,0.3720015444947544 L-87.9017713450414,0.37236244879955693" fill="green" fill-opacity="0.6" stroke="black" stroke-width="1" />
<path d="M-89.67127440659507,-0.3720015444947544 L-87.9017713450414,-0.37236244879955693 L-85.0,-0.0" fill="orange" fill-opacity="0.6" stroke="black" stroke-width="1" />
<path d="M-89.67127440659507,0.3720015444947544 L-87.9017713450414,0.37236244879955693 L-85.0,-0.0" fill="blue" fill-opacity="0.6" stroke="black" stroke-width="1" />
<path d="M-85.0,-0.0 L-84.23785199768518,-3.0098207023209893 L-83.75796335814906,-3.8463363971213553" fill="pink" fill-opacity="0.6" stroke="black" stroke-width="1" />
<path d="M-85.0,-0.0 L-84.23785199768518,3.0098207023209893 L-83.75796335814906,3.8463363971213553" fill="purple" fill-opacity="0.6" stroke="black" stroke-width="1" />
<path d="M-84.23785199768518,-3.0098207023209893 L-83.75796335814906,-3.8463363971213553 L-79.51259948451191,-5.383159492531507" fill="yellow" fill-opacity="0.6" stroke="black" stroke-width="1" />
<path d="M-84.23785199768518,3.0098207023209893 L-83.75796335814906,3.8463363971213553 L-79.51259948451191,5.383159492531507" fill="pink" fill-opacity="0.6" stroke="black" stroke-width="1" />
<path d="M-83.75796335814906,-3.8463363971213553 L-79.51259948451191,-5.383159492531507 L-77.9471914944157,-5.840244535173825" fill="pink" fill-opacity="0.6" stroke="black" stroke-width="1" />
<path d="M-83.75796335814906,3.8463363971213553 L-79.51259948451191,5.383159492531507 L-77.9471914944157,5.840244535173825" fill="blue" fill-opacity="0.6" stroke="black" stroke-width="1" />
<path d="M-79.51259948451191,-5.383159492531507 L-77.9471914944157,-5.840244535173825 L-77.19650581393023,-9.334586744243312" fill="pink" fill-opacity="0.6" stroke="black" stroke-width="1" />
<path d="M-79.51259948451191,5.383159492531507 L-77.9471914944157,5.840244535173825 L-77.19650581393023,9.334586744243312" fill="orange" fill-opacity="0.6" stroke="black" stroke-width="1" />
<path d="M-77.9471914944157,-5.840244535173825 L-77.19650581393023,-9.334586744243312 L-75.46084581627221,-12.314789113367816" fill="black" fill-opacity="0.6" stroke="black" stroke-width="1" />
<path d="M-77.9471914944157,5.840244535173825 L-77.19650581393023,9.334586744243312 L-75.46084581627221,12.314789113367816" fill="green" fill-opacity="0.6" stroke="black" stroke-width="1" />
<path d="M-77.19650581393023,-9.334586744243312 L-75.46084581627221,-12.314789113367816 L-73.0,-0.0" fill="green" fill-opacity="0.6" stroke="black" stroke-width="1" />
<path d="M-77.19650581393023,9.334586744243312 L-75.46084581627221,12.314789113367816 L-73.0,-0.0" fill="blue" fill-opacity="0.6" stroke="black" stroke-width="1" />
<path d="M-50.0,-13.0 L-53.8552863792125,-23.73818934734298 L-53.7180945495954,-32.966957578736825" fill="blue" fill-opacity="0.6" stroke="black" stroke-width="1" />
<path d="M-50.0,13.0 L-53.8552863792125,23.73818934734298 L-53.7180945495954,32.966957578736825" fill="green" fill-opacity="0.6" stroke="black" stroke-width="1" />
<path d="M-53.8552863792125,-23.73818934734298 L-53.7180945495954,-32.966957578736825 L-70.0,-30.0" fill="blue" fill-opacity="0.6" stroke="black" stroke-width="1" />
<path d="M-53.8552863792125,23.73818934734298 L-53.7180945495954,32.966957578736825 L-70.0,30.0" fill="red" fill-opacity="0.6" stroke="black" stroke-width="1" />
<path d="M-53.7180945495954,-32.966957578736825 L-70.0,-30.0 L-89.0,-11.0" fill="brown" fill-opacity="0.6" stroke="black" stroke-width="1" />
<path d="M-53.7180945495954,32.966957578736825 L-70.0,30.0 L-89.0,11.0" fill="pink" fill-opacity="0.6" stroke="black" stroke-width="1" />
<path d="M-70.0,-30.0 L-89.0,-11.0 L-94.0,-6.0" fill="brown" fill-opacity="0.6" stroke="black" stroke-width="1" />
<path d="M-70.0,30.0 L-89.0,11.0 L-94.0,6.0" fill="yellow" fill-opacity="0.6" stroke="black" stroke-width="1" />
<path d="M-89.0,-11.0 L-94.0,-6.0 L-100.0,-0.0" fill="yellow" fill-opacity="0.6" stroke="black" stroke-width="1" />
<path d="M-89.0,11.0 L-94.0,6.0 L-100.0,-0.0" fill="black" fill-opacity="0.6" stroke="black" stroke-width="1" />
</svg>