<?xml version="1.0" encoding="UTF-8"?>
<svg xmlns="http://www.w3.org/2000/svg" xmlns:xlink="http://www.w3.org/1999/xlink"
     width="250" height="250" viewBox="-125.0 -125.0 250 250">
<defs>
</defs>
<path d="M0.0,-0.0 L18.583733880740983,-9.706629946347716 L42.0,-0.0" fill-opacity="0" stroke="black" stroke-width="1" />
<path d="M0.0,-0.0 L18.583733880740983,9.706629946347716 L42.0,-0.0" fill-opacity="0" stroke="black" stroke-width="1" />
<path d="M50.0,-12.0 L35.873475741405244,-19.366858977172903 L50.0,-44.0" fill-opacity="0" stroke="black" stroke-width="1" />
<path d="M50.0,12.0 L35.873475741405244,19.366858977172903 L50.0,44.0" fill-opacity="0" stroke="black" stroke-width="1" />
<path d="M50.0,-44.0 L41.148603834775244,-35.08054196400284 L37.32822788369003,-32.17114164231424" fill-opacity="0" stroke="black" stroke-width="1" />
<path d="M50.0,44.0 L41.148603834775244,35.08054196400284 L37.32822788369003,32.17114164231424" fill-opacity="0" stroke="black" stroke-width="1" />
<path d="M41.148603834775244,-35.08054196400284 L37.32822788369003,-32.17114164231424 L34.0,-34.0" fill-opacity="0" stroke="black" stroke-width="1" />
<path d="M41.148603834775244,35.08054196400284 L37.32822788369003,32.17114164231424 L34.0,34.0" fill-opacity="0" stroke="black" stroke-width="1" />
<path d="M32.17114164231424,62.67177211630997 L34.0,66.0 L13.336879893782902,79.58879033822001" fill-opacity="0" stroke="black" stroke-width="1" />
<path d="M32.17114164231424,-62.67177211630997 L34.0,-66.0 L13.336879893782902,-79.58879033822001" fill-opacity="0" stroke="black" stroke-width="1" />
<path d="M34.0,-34.0 L20.41120966178,-13.336879893782902 L3.0,-3.0" fill-opacity="0" stroke="black" stroke-width="1" />
<path d="M34.0,34.0 L20.41120966178,13.336879893782902 L3.0,3.0" fill-opacity="0" stroke="black" stroke-width="1" />
<path d="M13.336879893782902,79.58879033822001 L3.0,97.0 L0.0,100.0" fill-opacity="0" stroke="black" stroke-width="1" />
<path d="M13.336879893782902,-79.58879033822001 L3.0,-97.0 L0.0,-100.0" fill-opacity="0" stroke="black" stroke-width="1" />
<path d="M0.0,-0.0 L-18.583733880740983,-9.706629946347716 L-42.0,-0.0" fill-opacity="0" stroke="black" stroke-width="1" />
<path d="M0.0,-0.0 L-18.583733880740983,9.706629946347716 L-42.0,-0.0" fill-opacity="0" stroke="black" stroke-width="1" />
<path d="M-50.0,-12.0 L-35.873475741405244,-19.366858977172903 L-50.0,-44.0" fill-opacity="0" stroke="black" stroke-width="1" />
<path d="M-50.0,12.0 L-35.873475741405244,19.366858977172903 L-50.0,44.0" fill-opacity="0" stroke="black" stroke-width="1" />
<path d="M-50.0,-44.0 L-41.148603834775244,-35.08054196400284 L-37.32822788369003,-32.17114164231424" fill-opacity="0" stroke="black" stroke-width="1" />
<path d="M-50.0,44.0 L-41.148603834775244,35.08054196400284 L-37.32822788369003,32.17114164231424" fill-opacity="0" stroke="black" stroke-width="1" />
<path d="M-41.148603834775244,-35.08054196400284 L-37.32822788369003,-32.17114164231424 L-34.0,-34.0" fill-opacity="0" stroke="black" stroke-width="1" />
<path d="M-41.148603834775244,35.08054196400284 L-37.32822788369003,32.17114164231424 L-34.0,34.0" fill-opacity="0" stroke="black" stroke-width="1" />
<path d="M-32.17114164231424,62.67177211630997 L-34.0,66.0 L-13.336879893782902,79.58879033822001" fill-opacity="0" stroke="black" stroke-width="1" />
<path d="M-32.17114164231424,-62.67177211630997 L-34.0,-66.0 L-13.336879893782902,-79.58879033822001" fill-opacity="0" stroke="black" stroke-width="1" />
<path d="M-34.0,-34.0 L-20.41120966178,-13.336879893782902 L-3.0,-3.0" fill-opacity="0" stroke="black" stroke-width="1" />
<path d="M-34.0,34.0 L-20.41120966178,13.336879893782902 L-3.0,3.0" fill-opacity="0" stroke="black" stroke-width="1" />
<path d="M-13.336879893782902,79.58879033822001 L-3.0,97.0 L0.0,100.0" fill-opacity="0" stroke="black" stroke-width="1" />
<path d="M-13.336879893782902,-79.58879033822001 L-3.0,-97.0 L0.0,-100.0" fill-opacity="0" stroke="black" stroke-width="1" />
<path d="M100.0,-0.0 L81.41626611925902,9.706629946347716 L58.0,-0.0" fill-opacity="0" stroke="black" stroke-width="1" />
<path d="M100.0,-0.0 L81.41626611925902,-9.706629946347716 L58.0,-0.0" fill-opacity="0" stroke="black" stroke-width="1" />
<path d="M50.0,12.0 L64.12652425859476,19.366858977172903 L50.0,44.0" fill-opacity="0" stroke="black" stroke-width="1" />
<path d="M50.0,-12.0 L64.12652425859476,-19.366858977172903 L50.0,-44.0" fill-opacity="0" stroke="black" stroke-width="1" />
<path d="M50.0,44.0 L58.851396165224756,35.08054196400284 L62.67177211630997,32.17114164231424" fill-opacity="0" stroke="black" stroke-width="1" />
<path d="M50.0,-44.0 L58.851396165224756,-35.08054196400284 L62.67177211630997,-32.17114164231424" fill-opacity="0" stroke="black" stroke-width="1" />
<path d="M58.851396165224756,35.08054196400284 L62.67177211630997,32.17114164231424 L66.0,34.0" fill-opacity="0" stroke="black" stroke-width="1" />
<path d="M58.851396165224756,-35.08054196400284 L62.67177211630997,-32.17114164231424 L66.0,-34.0" fill-opacity="0" stroke="black" stroke-width="1" />
<path d="M62.67177211630997,32.17114164231424 L66.0,34.0 L79.58879033822001,13.336879893782902" fill-opacity="0" stroke="black" stroke-width="1" />
<path d="M62.67177211630997,-32.17114164231424 L66.0,-34.0 L79.58879033822001,-13.336879893782902" fill-opacity="0" stroke="black" stroke-width="1" />
<path d="M66.0,34.0 L79.58879033822001,13.336879893782902 L97.0,3.0" fill-opacity="0" stroke="black" stroke-width="1" />
<path d="M66.0,-34.0 L79.58879033822001,-13.336879893782902 L97.0,-3.0" fill-opacity="0" stroke="black" stroke-width="1" />
<path d="M79.58879033822001,13.336879893782902 L97.0,3.0 L100.0,-0.0" fill-opacity="0" stroke="black" stroke-width="1" />
<path d="M79.58879033822001,-13.336879893782902 L97.0,-3.0 L100.0,-0.0" fill-opacity="0" stroke="black" stroke-width="1" />
<path d="M0.0,-0.0 L9.706629946347716,-18.583733880740983 L0.0,-42.0" fill-opacity="0" stroke="black" stroke-width="1" />
<path d="M0.0,-0.0 L9.706629946347716,18.583733880740983 L0.0,42.0" fill-opacity="0" stroke="black" stroke-width="1" />
<path d="M0.0,100.0 L9.706629946347716,81.41626611925902 L0.0,58.0" fill-opacity="0" stroke="black" stroke-width="1" />
<path d="M0.0,-100.0 L9.706629946347716,-81.41626611925902 L0.0,-58.0" fill-opacity="0" stroke="black" stroke-width="1" />
<path d="M12.0,-50.0 L19.366858977172903,-35.873475741405244 L44.0,-50.0" fill-opacity="0" stroke="black" stroke-width="1" />
<path d="M12.0,50.0 L19.366858977172903,35.873475741405244 L44.0,50.0" fill-opacity="0" stroke="black" stroke-width="1" />
<path d="M12.0,50.0 L19.366858977172903,64.12652425859476 L44.0,50.0" fill-opacity="0" stroke="black" stroke-width="1" />
<path d="M12.0,-50.0 L19.366858977172903,-64.12652425859476 L44.0,-50.0" fill-opacity="0" stroke="black" stroke-width="1" />
<path d="M44.0,-50.0 L35.08054196400284,-41.148603834775244 L32.17114164231424,-37.32822788369003" fill-opacity="0" stroke="black" stroke-width="1" />
<path d="M44.0,50.0 L35.08054196400284,41.148603834775244 L32.17114164231424,37.32822788369003" fill-opacity="0" stroke="black" stroke-width="1" />
<path d="M44.0,50.0 L35.08054196400284,58.851396165224756 L32.17114164231424,62.67177211630997" fill-opacity="0" stroke="black" stroke-width="1" />
<path d="M44.0,-50.0 L35.08054196400284,-58.851396165224756 L32.17114164231424,-62.67177211630997" fill-opacity="0" stroke="black" stroke-width="1" />
<path d="M35.08054196400284,-41.148603834775244 L32.17114164231424,-37.32822788369003 L34.0,-34.0" fill-opacity="0" stroke="black" stroke-width="1" />
<path d="M35.08054196400284,41.148603834775244 L32.17114164231424,37.32822788369003 L34.0,34.0" fill-opacity="0" stroke="black" stroke-width="1" />
<path d="M35.08054196400284,58.851396165224756 L32.17114164231424,62.67177211630997 L34.0,66.0" fill-opacity="0" stroke="black" stroke-width="1" />
<path d="M35.08054196400284,-58.851396165224756 L32.17114164231424,-62.67177211630997 L34.0,-66.0" fill-opacity="0" stroke="black" stroke-width="1" />
<path d="M34.0,-34.0 L13.336879893782902,-20.41120966178 L3.0,-3.0" fill-opacity="0" stroke="black" stroke-width="1" />
<path d="M34.0,34.0 L13.336879893782902,20.41120966178 L3.0,3.0" fill-opacity="0" stroke="black" stroke-width="1" />
<path d="M34.0,66.0 L13.336879893782902,79.58879033822001 L3.0,97.0" fill-opacity="0" stroke="black" stroke-width="1" />
<path d="M34.0,-66.0 L13.336879893782902,-79.58879033822001 L3.0,-97.0" fill-opacity="0" stroke="black" stroke-width="1" />
<path d="M0.0,100.0 L-9.706629946347716,81.41626611925902 L0.0,58.0" fill-opacity="0" stroke="black" stroke-width="1" />
<path d="M0.0,-0.0 L-9.706629946347716,-18.583733880740983 L0.0,-42.0" fill-opacity="0" stroke="black" stroke-width="1" />
<path d="M0.0,-0.0 L-9.706629946347716,18.58373388074098 L0.0,42.0" fill-opacity="0" stroke="black" stroke-width="1" />
<path d="M0.0,-100.0 L-9.706629946347716,-81.41626611925902 L0.0,-58.0" fill-opacity="0" stroke="black" stroke-width="1" />
<path d="M-12.0,50.0 L-19.366858977172903,64.12652425859476 L-44.0,50.0" fill-opacity="0" stroke="black" stroke-width="1" />
<path d="M-12.0,-50.0 L-19.366858977172903,-35.873475741405244 L-44.0,-50.0" fill-opacity="0" stroke="black" stroke-width="1" />
<path d="M-12.0,50.0 L-19.366858977172903,35.873475741405244 L-44.0,50.0" fill-opacity="0" stroke="black" stroke-width="1" />
<path d="M-12.0,-50.0 L-19.366858977172903,-64.12652425859476 L-44.0,-50.0" fill-opacity="0" stroke="black" stroke-width="1" />
<path d="M-44.0,50.0 L-35.08054196400284,58.851396165224756 L-32.17114164231424,62.67177211630997" fill-opacity="0" stroke="black" stroke-width="1" />
<path d="M-44.0,-50.0 L-35.08054196400284,-41.148603834775244 L-32.17114164231424,-37.32822788369003" fill-opacity="0" stroke="black" stroke-width="1" />
<path d="M-44.0,50.0 L-35.08054196400284,41.148603834775244 L-32.17114164231424,37.32822788369003" fill-opacity="0" stroke="black" stroke-width="1" />
<path d="M-44.0,-50.0 L-35.08054196400284,-58.851396165224756 L-32.17114164231424,-62.67177211630997" fill-opacity="0" stroke="black" stroke-width="1" />
<path d="M-35.08054196400284,58.851396165224756 L-32.17114164231424,62.67177211630997 L-34.0,66.0" fill-opacity="0" stroke="black" stroke-width="1" />
<path d="M-35.08054196400284,-41.148603834775244 L-32.17114164231424,-37.32822788369003 L-34.0,-34.0" fill-opacity="0" stroke="black" stroke-width="1" />
<path d="M-35.08054196400284,41.148603834775244 L-32.17114164231424,37.32822788369003 L-34.0,34.0" fill-opacity="0" stroke="black" stroke-width="1" />
<path d="M-35.08054196400284,-58.851396165224756 L-32.17114164231424,-62.67177211630997 L-34.0,-66.0" fill-opacity="0" stroke="black" stroke-width="1" />
<path d="M-34.0,66.0 L-13.336879893782902,79.58879033822001 L-3.0,97.0" fill-opacity="0" stroke="black" stroke-width="1" />
<path d="M-34.0,-34.0 L-13.336879893782902,-20.41120966178 L-3.0,-3.0" fill-opacity="0" stroke="black" stroke-width="1" />
<path d="M-34.0,34.0 L-13.336879893782902,20.411209661779992 L-3.0,3.0" fill-opacity="0" stroke="black" stroke-width="1" />
<path d="M-34.0,-66.0 L-13.336879893782902,-79.58879033822001 L-3.0,-97.0" fill-opacity="0" stroke="black" stroke-width="1" />
<path d="M-100.0,-0.0 L-81.41626611925902,-9.706629946347716 L-58.0,-0.0" fill-opacity="0" stroke="black" stroke-width="1" />
<path d="M-100.0,-0.0 L-81.41626611925902,9.706629946347716 L-58.0,-0.0" fill-opacity="0" stroke="black" stroke-width="1" />
<path d="M-50.0,-12.0 L-64.12652425859476,-19.366858977172903 L-50.0,-44.0" fill-opacity="0" stroke="black" stroke-width="1" />
<path d="M-50.0,12.0 L-64.12652425859476,19.366858977172903 L-50.0,44.0" fill-opacity="0" stroke="black" stroke-width="1" />
<path d="M-50.0,-44.0 L-58.851396165224756,-35.08054196400284 L-62.67177211630997,-32.17114164231424" fill-opacity="0" stroke="black" stroke-width="1" />
<path d="M-50.0,44.0 L-58.851396165224756,35.08054196400284 L-62.67177211630997,32.17114164231424" fill-opacity="0" stroke="black" stroke-width="1" />
<path d="M-58.851396165224756,-35.08054196400284 L-62.67177211630997,-32.17114164231424 L-66.0,-34.0" fill-opacity="0" stroke="black" stroke-width="1" />
<path d="M-58.851396165224756,35.08054196400284 L-62.67177211630997,32.17114164231424 L-66.0,34.0" fill-opacity="0" stroke="black" stroke-width="1" />
<path d="M-62.67177211630997,-32.17114164231424 L-66.0,-34.0 L-79.58879033822001,-13.336879893782902" fill-opacity="0" stroke="black" stroke-width="1" />
<path d="M-62.67177211630997,32.17114164231424 L-66.0,34.0 L-79.58879033822001,13.336879893782902" fill-opacity="0" stroke="black" stroke-width="1" />
<path d="M-66.0,-34.0 L-79.58879033822001,-13.336879893782902 L-97.0,-3.0" fill-opacity="0" stroke="black" stroke-width="1" />
<path d="M-66.0,34.0 L-79.58879033822001,13.336879893782902 L-97.0,3.0" fill-opacity="0" stroke="black" stroke-width="1" />
<path d="M-79.58879033822001,-13.336879893782902 L-97.0,-3.0 L-100.0,-0.0" fill-opacity="0" stroke="black" stroke-width="1" />
<path d="M-79.58879033822001,13.336879893782902 L-97.0,3.0 L-100.0,-0.0" fill-opacity="0" stroke="black" stroke-width="1" />
</svg>