<?xml version="1.0" encoding="UTF-8"?>
<svg xmlns="http://www.w3.org/2000/svg" xmlns:xlink="http://www.w3.org/1999/xlink"
     width="250" height="250" viewBox="-125.0 -125.0 250 250">
<defs>
</defs>
<path d="M4.0,-0.0 L12.205154097776344,-1.2222217533642776 L15.0,-0.0" fill-opacity="0" stroke="black" stroke-width="1" />
<path d="M4.0,-0.0 L12.205154097776344,1.2222217533642776 L15.0,-0.0" fill-opacity="0" stroke="black" stroke-width="1" />
<path d="M15.0,-0.0 L15.691227237892585,-1.5746971761840927 L19.0,-0.0" fill-opacity="0" stroke="black" stroke-width="1" />
<path d="M15.0,-0.0 L15.691227237892585,1.5746971761840927 L19.0,-0.0" fill-opacity="0" stroke="black" stroke-width="1" />
<path d="M33.0,67.0 L22.0,78.0 L20.0,80.0" fill-opacity="0" stroke="black" stroke-width="1" />
<path d="M33.0,-67.0 L22.0,-78.0 L20.0,-80.0" fill-opacity="0" stroke="black" stroke-width="1" />
<path d="M36.0,-0.0 L38.62674040566174,-3.7074183978129422 L45.0,-0.0" fill-opacity="0" stroke="black" stroke-width="1" />
<path d="M36.0,-0.0 L38.62674040566174,3.7074183978129422 L45.0,-0.0" fill-opacity="0" stroke="black" stroke-width="1" />
<path d="M50.0,-15.0 L49.39515265671408,-21.44969872070695 L50.0,-32.0" fill-opacity="0" stroke="black" stroke-width="1" />
<path d="M50.0,15.0 L49.39515265671408,21.44969872070695 L50.0,32.0" fill-opacity="0" stroke="black" stroke-width="1" />
<path d="M49.0,50.0 L47.0,53.0 L42.0,58.0" fill-opacity="0" stroke="black" stroke-width="1" />
<path d="M49.0,-50.0 L47.0,-53.0 L42.0,-58.0" fill-opacity="0" stroke="black" stroke-width="1" />
<path d="M47.0,53.0 L42.0,58.0 L39.0,61.0" fill-opacity="0" stroke="black" stroke-width="1" />
<path d="M47.0,-53.0 L42.0,-58.0 L39.0,-61.0" fill-opacity="0" stroke="black" stroke-width="1" />
<path d="M42.0,58.0 L39.0,61.0 L33.0,67.0" fill-opacity="0" stroke="black" stroke-width="1" />
<path d="M42.0,-58.0 L39.0,-61.0 L33.0,-67.0" fill-opacity="0" stroke="black" stroke-width="1" />
<path d="M39.0,61.0 L33.0,67.0 L22.0,78.0" fill-opacity="0" stroke="black" stroke-width="1" />
<path d="M39.0,-61.0 L33.0,-67.0 L22.0,-78.0" fill-opacity="0" stroke="black" stroke-width="1" />
<path d="M22.0,78.0 L20.0,80.0 L0.5372114026352175,97.05880815619042" fill-opacity="0" stroke="black" stroke-width="1" />
<path d="M22.0,-78.0 L20.0,-80.0 L0.5372114026352175,-97.05880815619042" fill-opacity="0" stroke="black" stroke-width="1" />
<path d="M20.0,-20.0 L2.9411918438095705,-0.5372114026352175 L2.0,-2.0" fill-opacity="0" stroke="black" stroke-width="1" />
<path d="M20.0,20.0 L2.9411918438095705,0.5372114026352175 L2.0,2.0" fill-opacity="0" stroke="black" stroke-width="1" />
<path d="M0.5372114026352175,97.05880815619042 L2.0,98.0 L0.3751245246039314,98.0839735623729" fill-opacity="0" stroke="black" stroke-width="1" />
<path d="M0.5372114026352175,-97.05880815619042 L2.0,-98.0 L0.3751245246039314,-98.0839735623729" fill-opacity="0" stroke="black" stroke-width="1" />
<path d="M2.0,-2.0 L1.9160264376270886,-0.3751245246039314 L1.6825945759040506,-0.21391405557891935" fill-opacity="0" stroke="black" stroke-width="1" />
<path d="M2.0,2.0 L1.9160264376270886,0.3751245246039314 L1.6825945759040506,0.21391405557891935" fill-opacity="0" stroke="black" stroke-width="1" />
<path d="M1.9160264376270886,-0.3751245246039314 L1.6825945759040506,-0.21391405557891935 L0.07186142757112379,-0.016399755774859637" fill-opacity="0" stroke="black" stroke-width="1" />
<path d="M1.9160264376270886,0.3751245246039314 L1.6825945759040506,0.21391405557891935 L0.07186142757112379,0.016399755774859637" fill-opacity="0" stroke="black" stroke-width="1" />
<path d="M1.6825945759040506,-0.21391405557891935 L0.07186142757112379,-0.016399755774859637 L0.0,-0.0" fill-opacity="0" stroke="black" stroke-width="1" />
<path d="M1.6825945759040506,0.21391405557891935 L0.07186142757112379,0.016399755774859637 L0.0,-0.0" fill-opacity="0" stroke="black" stroke-width="1" />
<path d="M-4.0,-0.0 L-12.205154097776344,-1.2222217533642776 L-15.0,-0.0" fill-opacity="0" stroke="black" stroke-width="1" />
<path d="M-4.0,-0.0 L-12.205154097776344,1.2222217533642776 L-15.0,-0.0" fill-opacity="0" stroke="black" stroke-width="1" />
<path d="M-15.0,-0.0 L-15.691227237892585,-1.5746971761840927 L-19.0,-0.0" fill-opacity="0" stroke="black" stroke-width="1" />
<path d="M-15.0,-0.0 L-15.691227237892585,1.5746971761840927 L-19.0,-0.0" fill-opacity="0" stroke="black" stroke-width="1" />
<path d="M-33.0,67.0 L-22.0,78.0 L-20.0,80.0" fill-opacity="0" stroke="black" stroke-width="1" />
<path d="M-33.0,-67.0 L-22.0,-78.0 L-20.0,-80.0" fill-opacity="0" stroke="black" stroke-width="1" />
<path d="M-36.0,-0.0 L-38.62674040566174,-3.7074183978129422 L-45.0,-0.0" fill-opacity="0" stroke="black" stroke-width="1" />
<path d="M-36.0,-0.0 L-38.62674040566174,3.7074183978129422 L-45.0,-0.0" fill-opacity="0" stroke="black" stroke-width="1" />
<path d="M-50.0,-15.0 L-49.39515265671408,-21.44969872070695 L-50.0,-32.0" fill-opacity="0" stroke="black" stroke-width="1" />
<path d="M-50.0,15.0 L-49.39515265671408,21.44969872070695 L-50.0,32.0" fill-opacity="0" stroke="black" stroke-width="1" />
<path d="M-49.0,50.0 L-47.0,53.0 L-42.0,58.0" fill-opacity="0" stroke="black" stroke-width="1" />
<path d="M-49.0,-50.0 L-47.0,-53.0 L-42.0,-58.0" fill-opacity="0" stroke="black" stroke-width="1" />
<path d="M-47.0,53.0 L-42.0,58.0 L-39.0,61.0" fill-opacity="0" stroke="black" stroke-width="1" />
<path d="M-47.0,-53.0 L-42.0,-58.0 L-39.0,-61.0" fill-opacity="0" stroke="black" stroke-width="1" />
<path d="M-42.0,58.0 L-39.0,61.0 L-33.0,67.0" fill-opacity="0" stroke="black" stroke-width="1" />
<path d="M-42.0,-58.0 L-39.0,-61.0 L-33.0,-67.0" fill-opacity="0" stroke="black" stroke-width="1" />
<path d="M-39.0,61.0 L-33.0,67.0 L-22.0,78.0" fill-opacity="0" stroke="black" stroke-width="1" />
<path d="M-39.0,-61.0 L-33.0,-67.0 L-22.0,-78.0" fill-opacity="0" stroke="black" stroke-width="1" />
<path d="M-22.0,78.0 L-20.0,80.0 L-0.5372114026352175,97.05880815619042" fill-opacity="0" stroke="black" stroke-width="1" />
<path d="M-22.0,-78.0 L-20.0,-80.0 L-0.5372114026352175,-97.05880815619042" fill-opacity="0" stroke="black" stroke-width="1" />
<path d="M-20.0,-20.0 L-2.9411918438095705,-0.5372114026352175 L-2.0,-2.0" fill-opacity="0" stroke="black" stroke-width="1" />
<path d="M-20.0,20.0 L-2.9411918438095705,0.5372114026352175 L-2.0,2.0" fill-opacity="0" stroke="black" stroke-width="1" />
<path d="M-0.5372114026352175,97.05880815619042 L-2.0,98.0 L-0.3751245246039314,98.08397356237292" fill-opacity="0" stroke="black" stroke-width="1" />
<path d="M-0.5372114026352175,-97.05880815619042 L-2.0,-98.0 L-0.3751245246039314,-98.0839735623729" fill-opacity="0" stroke="black" stroke-width="1" />
<path d="M-2.0,-2.0 L-1.9160264376270886,-0.3751245246039314 L-1.6825945759040506,-0.21391405557891935" fill-opacity="0" stroke="black" stroke-width="1" />
<path d="M-2.0,2.0 L-1.9160264376270886,0.3751245246039314 L-1.6825945759040506,0.21391405557891935" fill-opacity="0" stroke="black" stroke-width="1" />
<path d="M-1.9160264376270886,-0.3751245246039314 L-1.6825945759040506,-0.21391405557891935 L-0.07186142757112379,-0.016399755774859637" fill-opacity="0" stroke="black" stroke-width="1" />
<path d="M-1.9160264376270886,0.3751245246039314 L-1.6825945759040506,0.21391405557891935 L-0.07186142757112379,0.016399755774859637" fill-opacity="0" stroke="black" stroke-width="1" />
<path d="M-1.6825945759040506,-0.21391405557891935 L-0.07186142757112379,-0.016399755774859637 L0.0,-0.0" fill-opacity="0" stroke="black" stroke-width="1" />
<path d="M-1.6825945759040506,0.21391405557891935 L-0.07186142757112379,0.016399755774859637 L0.0,-0.0" fill-opacity="0" stroke="black" stroke-width="1" />
<path d="M96.0,-0.0 L87.79484590222366,1.2222217533642776 L85.0,-0.0" fill-opacity="0" stroke="black" stroke-width="1" />
<path d="M96.0,-0.0 L87.79484590222366,-1.2222217533642776 L85.0,-0.0" fill-opacity="0" stroke="black" stroke-width="1" />
<path d="M85.0,-0.0 L84.30877276210742,1.5746971761840927 L81.0,-0.0" fill-opacity="0" stroke="black" stroke-width="1" />
<path d="M85.0,-0.0 L84.30877276210742,-1.5746971761840927 L81.0,-0.0" fill-opacity="0" stroke="black" stroke-width="1" />
<path d="M67.0,33.0 L78.0,22.0 L80.0,20.0" fill-opacity="0" stroke="black" stroke-width="1" />
<path d="M67.0,-33.0 L78.0,-22.0 L80.0,-20.0" fill-opacity="0" stroke="black" stroke-width="1" />
<path d="M64.0,-0.0 L61.37325959433826,3.7074183978129422 L55.0,-0.0" fill-opacity="0" stroke="black" stroke-width="1" />
<path d="M64.0,-0.0 L61.37325959433826,-3.7074183978129422 L55.0,-0.0" fill-opacity="0" stroke="black" stroke-width="1" />
<path d="M50.0,15.0 L50.60484734328592,21.44969872070695 L50.0,32.0" fill-opacity="0" stroke="black" stroke-width="1" />
<path d="M50.0,-15.0 L50.60484734328592,-21.44969872070695 L50.0,-32.0" fill-opacity="0" stroke="black" stroke-width="1" />
<path d="M50.0,49.0 L53.0,47.0 L58.0,42.0" fill-opacity="0" stroke="black" stroke-width="1" />
<path d="M50.0,-49.0 L53.0,-47.0 L58.0,-42.0" fill-opacity="0" stroke="black" stroke-width="1" />
<path d="M53.0,47.0 L58.0,42.0 L61.0,39.0" fill-opacity="0" stroke="black" stroke-width="1" />
<path d="M53.0,-47.0 L58.0,-42.0 L61.0,-39.0" fill-opacity="0" stroke="black" stroke-width="1" />
<path d="M58.0,42.0 L61.0,39.0 L67.0,33.0" fill-opacity="0" stroke="black" stroke-width="1" />
<path d="M58.0,-42.0 L61.0,-39.0 L67.0,-33.0" fill-opacity="0" stroke="black" stroke-width="1" />
<path d="M61.0,39.0 L67.0,33.0 L78.0,22.0" fill-opacity="0" stroke="black" stroke-width="1" />
<path d="M61.0,-39.0 L67.0,-33.0 L78.0,-22.0" fill-opacity="0" stroke="black" stroke-width="1" />
<path d="M78.0,22.0 L80.0,20.0 L97.05880815619042,0.5372114026352175" fill-opacity="0" stroke="black" stroke-width="1" />
<path d="M78.0,-22.0 L80.0,-20.0 L97.05880815619042,-0.5372114026352175" fill-opacity="0" stroke="black" stroke-width="1" />
<path d="M80.0,20.0 L97.05880815619042,0.5372114026352175 L98.0,2.0" fill-opacity="0" stroke="black" stroke-width="1" />
<path d="M80.0,-20.0 L97.05880815619042,-0.5372114026352175 L98.0,-2.0" fill-opacity="0" stroke="black" stroke-width="1" />
<path d="M97.05880815619042,0.5372114026352175 L98.0,2.0 L98.0839735623729,0.3751245246039314" fill-opacity="0" stroke="black" stroke-width="1" />
<path d="M97.05880815619042,-0.5372114026352175 L98.0,-2.0 L98.0839735623729,-0.3751245246039314" fill-opacity="0" stroke="black" stroke-width="1" />
<path d="M98.0,2.0 L98.0839735623729,0.3751245246039314 L98.31740542409595,0.21391405557891935" fill-opacity="0" stroke="black" stroke-width="1" />
<path d="M98.0,-2.0 L98.0839735623729,-0.3751245246039314 L98.31740542409595,-0.21391405557891935" fill-opacity="0" stroke="black" stroke-width="1" />
<path d="M98.0839735623729,0.3751245246039314 L98.31740542409595,0.21391405557891935 L99.92813857242888,0.016399755774859637" fill-opacity="0" stroke="black" stroke-width="1" />
<path d="M98.0839735623729,-0.3751245246039314 L98.31740542409595,-0.21391405557891935 L99.92813857242888,-0.016399755774859637" fill-opacity="0" stroke="black" stroke-width="1" />
<path d="M98.31740542409595,0.21391405557891935 L99.92813857242888,0.016399755774859637 L100.0,-0.0" fill-opacity="0" stroke="black" stroke-width="1" />
<path d="M98.31740542409595,-0.21391405557891935 L99.92813857242888,-0.016399755774859637 L100.0,-0.0" fill-opacity="0" stroke="black" stroke-width="1" />
<path d="M0.0,-4.0 L1.2222217533642776,-12.205154097776344 L0.0,-15.0" fill-opacity="0" stroke="black" stroke-width="1" />
<path d="M0.0,4.0 L1.2222217533642776,12.205154097776344 L0.0,15.0" fill-opacity="0" stroke="black" stroke-width="1" />
<path d="M0.0,96.0 L1.2222217533642776,87.79484590222366 L0.0,85.0" fill-opacity="0" stroke="black" stroke-width="1" />
<path d="M0.0,-96.0 L1.2222217533642776,-87.79484590222366 L0.0,-85.0" fill-opacity="0" stroke="black" stroke-width="1" />
<path d="M0.0,-15.0 L1.5746971761840927,-15.691227237892585 L0.0,-19.0" fill-opacity="0" stroke="black" stroke-width="1" />
<path d="M0.0,15.0 L1.5746971761840927,15.691227237892585 L0.0,19.0" fill-opacity="0" stroke="black" stroke-width="1" />
<path d="M0.0,85.0 L1.5746971761840927,84.30877276210742 L0.0,81.0" fill-opacity="0" stroke="black" stroke-width="1" />
<path d="M0.0,-85.0 L1.5746971761840927,-84.30877276210742 L0.0,-81.0" fill-opacity="0" stroke="black" stroke-width="1" />
<path d="M0.0,-36.0 L3.7074183978129422,-38.62674040566174 L0.0,-45.0" fill-opacity="0" stroke="black" stroke-width="1" />
<path d="M0.0,36.0 L3.7074183978129422,38.62674040566174 L0.0,45.0" fill-opacity="0" stroke="black" stroke-width="1" />
<path d="M0.0,64.0 L3.7074183978129422,61.37325959433826 L0.0,55.0" fill-opacity="0" stroke="black" stroke-width="1" />
<path d="M0.0,-64.0 L3.7074183978129422,-61.37325959433826 L0.0,-55.0" fill-opacity="0" stroke="black" stroke-width="1" />
<path d="M15.0,-50.0 L21.44969872070695,-49.39515265671408 L32.0,-50.0" fill-opacity="0" stroke="black" stroke-width="1" />
<path d="M15.0,50.0 L21.44969872070695,49.39515265671408 L32.0,50.0" fill-opacity="0" stroke="black" stroke-width="1" />
<path d="M15.0,50.0 L21.44969872070695,50.60484734328592 L32.0,50.0" fill-opacity="0" stroke="black" stroke-width="1" />
<path d="M15.0,-50.0 L21.44969872070695,-50.60484734328592 L32.0,-50.0" fill-opacity="0" stroke="black" stroke-width="1" />
<path d="M20.0,-20.0 L0.5372114026352175,-2.9411918438095705 L2.0,-2.0" fill-opacity="0" stroke="black" stroke-width="1" />
<path d="M20.0,20.0 L0.5372114026352175,2.9411918438095705 L2.0,2.0" fill-opacity="0" stroke="black" stroke-width="1" />
<path d="M20.0,80.0 L0.5372114026352175,97.05880815619042 L2.0,98.0" fill-opacity="0" stroke="black" stroke-width="1" />
<path d="M20.0,-80.0 L0.5372114026352175,-97.05880815619042 L2.0,-98.0" fill-opacity="0" stroke="black" stroke-width="1" />
<path d="M2.0,-2.0 L0.3751245246039314,-1.9160264376270886 L0.21391405557891935,-1.6825945759040506" fill-opacity="0" stroke="black" stroke-width="1" />
<path d="M2.0,2.0 L0.3751245246039314,1.9160264376270886 L0.21391405557891935,1.6825945759040506" fill-opacity="0" stroke="black" stroke-width="1" />
<path d="M2.0,98.0 L0.3751245246039314,98.0839735623729 L0.21391405557891935,98.31740542409595" fill-opacity="0" stroke="black" stroke-width="1" />
<path d="M2.0,-98.0 L0.3751245246039314,-98.0839735623729 L0.21391405557891935,-98.31740542409595" fill-opacity="0" stroke="black" stroke-width="1" />
<path d="M0.3751245246039314,-1.9160264376270886 L0.21391405557891935,-1.6825945759040506 L0.016399755774859637,-0.07186142757112379" fill-opacity="0" stroke="black" stroke-width="1" />
<path d="M0.3751245246039314,1.9160264376270886 L0.21391405557891935,1.6825945759040506 L0.016399755774859637,0.07186142757112379" fill-opacity="0" stroke="black" stroke-width="1" />
<path d="M0.3751245246039314,98.0839735623729 L0.21391405557891935,98.31740542409595 L0.016399755774859637,99.92813857242888" fill-opacity="0" stroke="black" stroke-width="1" />
<path d="M0.3751245246039314,-98.0839735623729 L0.21391405557891935,-98.31740542409595 L0.016399755774859637,-99.92813857242888" fill-opacity="0" stroke="black" stroke-width="1" />
<path d="M0.21391405557891935,-1.6825945759040506 L0.016399755774859637,-0.07186142757112379 L0.0,-0.0" fill-opacity="0" stroke="black" stroke-width="1" />
<path d="M0.21391405557891935,1.6825945759040506 L0.016399755774859637,0.07186142757112379 L0.0,-0.0" fill-opacity="0" stroke="black" stroke-width="1" />
<path d="M0.21391405557891935,98.31740542409595 L0.016399755774859637,99.92813857242888 L0.0,100.0" fill-opacity="0" stroke="black" stroke-width="1" />
<path d="M0.21391405557891935,-98.31740542409595 L0.016399755774859637,-99.92813857242888 L0.0,-100.0" fill-opacity="0" stroke="black" stroke-width="1" />
<path d="M0.0,96.0 L-1.2222217533642776,87.79484590222366 L0.0,85.0" fill-opacity="0" stroke="black" stroke-width="1" />
<path d="M0.0,-4.0 L-1.2222217533642776,-12.205154097776344 L0.0,-15.0" fill-opacity="0" stroke="black" stroke-width="1" />
<path d="M0.0,4.0 L-1.2222217533642776,12.205154097776344 L0.0,15.0" fill-opacity="0" stroke="black" stroke-width="1" />
<path d="M0.0,-96.0 L-1.2222217533642776,-87.79484590222366 L0.0,-85.0" fill-opacity="0" stroke="black" stroke-width="1" />
<path d="M0.0,85.0 L-1.5746971761840927,84.30877276210741 L0.0,81.0" fill-opacity="0" stroke="black" stroke-width="1" />
<path d="M0.0,-15.0 L-1.5746971761840927,-15.691227237892585 L0.0,-19.0" fill-opacity="0" stroke="black" stroke-width="1" />
<path d="M0.0,15.0 L-1.5746971761840927,15.69122723789259 L0.0,19.0" fill-opacity="0" stroke="black" stroke-width="1" />
<path d="M0.0,-85.0 L-1.5746971761840927,-84.30877276210742 L0.0,-81.0" fill-opacity="0" stroke="black" stroke-width="1" />
<path d="M0.0,64.0 L-3.7074183978129422,61.37325959433826 L0.0,55.0" fill-opacity="0" stroke="black" stroke-width="1" />
<path d="M0.0,-36.0 L-3.7074183978129422,-38.62674040566174 L0.0,-45.0" fill-opacity="0" stroke="black" stroke-width="1" />
<path d="M0.0,36.0 L-3.7074183978129422,38.62674040566174 L0.0,45.0" fill-opacity="0" stroke="black" stroke-width="1" />
<path d="M0.0,-64.0 L-3.7074183978129422,-61.37325959433826 L0.0,-55.0" fill-opacity="0" stroke="black" stroke-width="1" />
<path d="M-15.0,50.0 L-21.44969872070695,50.60484734328592 L-32.0,50.0" fill-opacity="0" stroke="black" stroke-width="1" />
<path d="M-15.0,-50.0 L-21.44969872070695,-49.39515265671408 L-32.0,-50.0" fill-opacity="0" stroke="black" stroke-width="1" />
<path d="M-15.0,50.0 L-21.44969872070695,49.39515265671408 L-32.0,50.0" fill-opacity="0" stroke="black" stroke-width="1" />
<path d="M-15.0,-50.0 L-21.44969872070695,-50.60484734328592 L-32.0,-50.0" fill-opacity="0" stroke="black" stroke-width="1" />
<path d="M-20.0,80.0 L-0.5372114026352175,97.05880815619042 L-2.0,98.0" fill-opacity="0" stroke="black" stroke-width="1" />
<path d="M-20.0,-20.0 L-0.5372114026352175,-2.9411918438095705 L-2.0,-2.0" fill-opacity="0" stroke="black" stroke-width="1" />
<path d="M-20.0,20.0 L-0.5372114026352175,2.9411918438095768 L-2.0,2.0" fill-opacity="0" stroke="black" stroke-width="1" />
<path d="M-20.0,-80.0 L-0.5372114026352175,-97.05880815619042 L-2.0,-98.0" fill-opacity="0" stroke="black" stroke-width="1" />
<path d="M-2.0,98.0 L-0.3751245246039314,98.08397356237292 L-0.21391405557891935,98.31740542409595" fill-opacity="0" stroke="black" stroke-width="1" />
<path d="M-2.0,-2.0 L-0.3751245246039314,-1.9160264376270886 L-0.21391405557891935,-1.6825945759040506" fill-opacity="0" stroke="black" stroke-width="1" />
<path d="M-2.0,2.0 L-0.3751245246039314,1.9160264376270817 L-0.21391405557891935,1.682594575904048" fill-opacity="0" stroke="black" stroke-width="1" />
<path d="M-2.0,-98.0 L-0.3751245246039314,-98.0839735623729 L-0.21391405557891935,-98.31740542409595" fill-opacity="0" stroke="black" stroke-width="1" />
<path d="M-0.3751245246039314,98.08397356237292 L-0.21391405557891935,98.31740542409595 L-0.016399755774859637,99.92813857242888" fill-opacity="0" stroke="black" stroke-width="1" />
<path d="M-0.3751245246039314,-1.9160264376270886 L-0.21391405557891935,-1.6825945759040506 L-0.016399755774859637,-0.07186142757112379" fill-opacity="0" stroke="black" stroke-width="1" />
<path d="M-0.3751245246039314,1.9160264376270817 L-0.21391405557891935,1.682594575904048 L-0.016399755774859637,0.0718614275711218" fill-opacity="0" stroke="black" stroke-width="1" />
<path d="M-0.3751245246039314,-98.0839735623729 L-0.21391405557891935,-98.31740542409595 L-0.016399755774859637,-99.92813857242888" fill-opacity="0" stroke="black" stroke-width="1" />
<path d="M-0.21391405557891935,98.31740542409595 L-0.016399755774859637,99.92813857242888 L0.0,100.0" fill-opacity="0" stroke="black" stroke-width="1" />
<path d="M-0.21391405557891935,-1.6825945759040506 L-0.016399755774859637,-0.07186142757112379 L0.0,-0.0" fill-opacity="0" stroke="black" stroke-width="1" />
<path d="M-0.21391405557891935,1.682594575904048 L-0.016399755774859637,0.0718614275711218 L0.0,-0.0" fill-opacity="0" stroke="black" stroke-width="1" />
<path d="M-0.21391405557891935,-98.31740542409595 L-0.016399755774859637,-99.92813857242888 L0.0,-100.0" fill-opacity="0" stroke="black" stroke-width="1" />
<path d="M-96.0,-0.0 L-87.79484590222366,-1.2222217533642776 L-85.0,-0.0" fill-opacity="0" stroke="black" stroke-width="1" />
<path d="M-96.0,-0.0 L-87.79484590222366,1.2222217533642776 L-85.0,-0.0" fill-opacity="0" stroke="black" stroke-width="1" />
<path d="M-85.0,-0.0 L-84.30877276210742,-1.5746971761840927 L-81.0,-0.0" fill-opacity="0" stroke="black" stroke-width="1" />
<path d="M-85.0,-0.0 L-84.30877276210742,1.5746971761840927 L-81.0,-0.0" fill-opacity="0" stroke="black" stroke-width="1" />
<path d="M-67.0,-33.0 L-78.0,-22.0 L-80.0,-20.0" fill-opacity="0" stroke="black" stroke-width="1" />
<path d="M-67.0,33.0 L-78.0,22.0 L-80.0,20.0" fill-opacity="0" stroke="black" stroke-width="1" />
<path d="M-64.0,-0.0 L-61.37325959433826,-3.7074183978129422 L-55.0,-0.0" fill-opacity="0" stroke="black" stroke-width="1" />
<path d="M-64.0,-0.0 L-61.37325959433826,3.7074183978129422 L-55.0,-0.0" fill-opacity="0" stroke="black" stroke-width="1" />
<path d="M-50.0,-15.0 L-50.60484734328592,-21.44969872070695 L-50.0,-32.0" fill-opacity="0" stroke="black" stroke-width="1" />
<path d="M-50.0,15.0 L-50.60484734328592,21.44969872070695 L-50.0,32.0" fill-opacity="0" stroke="black" stroke-width="1" />
<path d="M-50.0,-49.0 L-53.0,-47.0 L-58.0,-42.0" fill-opacity="0" stroke="black" stroke-width="1" />
<path d="M-50.0,49.0 L-53.0,47.0 L-58.0,42.0" fill-opacity="0" stroke="black" stroke-width="1" />
<path d="M-53.0,-47.0 L-58.0,-42.0 L-61.0,-39.0" fill-opacity="0" stroke="black" stroke-width="1" />
<path d="M-53.0,47.0 L-58.0,42.0 L-61.0,39.0" fill-opacity="0" stroke="black" stroke-width="1" />
<path d="M-58.0,-42.0 L-61.0,-39.0 L-67.0,-33.0" fill-opacity="0" stroke="black" stroke-width="1" />
<path d="M-58.0,42.0 L-61.0,39.0 L-67.0,33.0" fill-opacity="0" stroke="black" stroke-width="1" />
<path d="M-61.0,-39.0 L-67.0,-33.0 L-78.0,-22.0" fill-opacity="0" stroke="black" stroke-width="1" />
<path d="M-61.0,39.0 L-67.0,33.0 L-78.0,22.0" fill-opacity="0" stroke="black" stroke-width="1" />
<path d="M-78.0,-22.0 L-80.0,-20.0 L-97.05880815619042,-0.5372114026352175" fill-opacity="0" stroke="black" stroke-width="1" />
<path d="M-78.0,22.0 L-80.0,20.0 L-97.05880815619042,0.5372114026352175" fill-opacity="0" stroke="black" stroke-width="1" />
<path d="M-80.0,-20.0 L-97.05880815619042,-0.5372114026352175 L-98.0,-2.0" fill-opacity="0" stroke="black" stroke-width="1" />
<path d="M-80.0,20.0 L-97.05880815619042,0.5372114026352175 L-98.0,2.0" fill-opacity="0" stroke="black" stroke-width="1" />
<path d="M-97.05880815619042,-0.5372114026352175 L-98.0,-2.0 L-98.0839735623729,-0.3751245246039314" fill-opacity="0" stroke="black" stroke-width="1" />
<path d="M-97.05880815619042,0.5372114026352175 L-98.0,2.0 L-98.0839735623729,0.3751245246039314" fill-opacity="0" stroke="black" stroke-width="1" />
<path d="M-98.0,-2.0 L-98.0839735623729,-0.3751245246039314 L-98.31740542409595,-0.21391405557891935" fill-opacity="0" stroke="black" stroke-width="1" />
<path d="M-98.0,2.0 L-98.0839735623729,0.3751245246039314 L-98.31740542409595,0.21391405557891935" fill-opacity="0" stroke="black" stroke-width="1" />
<path d="M-98.0839735623729,-0.3751245246039314 L-98.31740542409595,-0.21391405557891935 L-99.92813857242888,-0.016399755774859637" fill-opacity="0" stroke="black" stroke-width="1" />
<path d="M-98.0839735623729,0.3751245246039314 L-98.31740542409595,0.21391405557891935 L-99.92813857242888,0.016399755774859637" fill-opacity="0" stroke="black" stroke-width="1" />
<path d="M-98.31740542409595,-0.21391405557891935 L-99.92813857242888,-0.016399755774859637 L-100.0,-0.0" fill-opacity="0" stroke="black" stroke-width="1" />
<path d="M-98.31740542409595,0.21391405557891935 L-99.92813857242888,0.016399755774859637 L-100.0,-0.0" fill-opacity="0" stroke="black" stroke-width="1" />
<circle cx="0" cy="-97" r="8" stroke-dasharray="39.653880605311166 10.611601852125524" stroke-dashoffset="-17.59291886010284" stroke="black" stroke-width="1" fill="white" fill-opacity="1" />
<circle cx="0" cy="-97" r="4" stroke="black" stroke-width="1" fill="white" fill-opacity="1" />
</svg>