<?xml version="1.0" encoding="UTF-8"?>
<svg xmlns="http://www.w3.org/2000/svg" xmlns:xlink="http://www.w3.org/1999/xlink"
     width="250" height="250" viewBox="-125.0 -125.0 250 250">
<defs>
</defs>
<path d="M14.0,-0.0 L18.721716914281295,-4.64025711057412 L18.930413329862695,-6.05883484908319" fill="yellow" fill-opacity="0.6" stroke="black" stroke-width="1" />
<path d="M14.0,-0.0 L18.721716914281295,4.64025711057412 L18.930413329862695,6.05883484908319" fill="black" fill-opacity="0.6" stroke="black" stroke-width="1" />
<path d="M18.721716914281295,-4.64025711057412 L18.930413329862695,-6.05883484908319 L23.966677283075985,-6.557692306774154" fill="yellow" fill-opacity="0.6" stroke="black" stroke-width="1" />
<path d="M18.721716914281295,4.64025711057412 L18.930413329862695,6.05883484908319 L23.966677283075985,6.557692306774154" fill="pink" fill-opacity="0.6" stroke="black" stroke-width="1" />
<path d="M18.930413329862695,-6.05883484908319 L23.966677283075985,-6.557692306774154 L24.87979199508712,-12.035246706611076" fill="pink" fill-opacity="0.6" stroke="black" stroke-width="1" />
<path d="M18.930413329862695,6.05883484908319 L23.966677283075985,6.557692306774154 L24.87979199508712,12.035246706611076" fill="red" fill-opacity="0.6" stroke="black" stroke-width="1" />
<path d="M23.966677283075985,-6.557692306774154 L24.87979199508712,-12.035246706611076 L26.0,-0.0" fill="purple" fill-opacity="0.6" stroke="black" stroke-width="1" />
<path d="M23.966677283075985,6.557692306774154 L24.87979199508712,12.035246706611076 L26.0,-0.0" fill="blue" fill-opacity="0.6" stroke="black" stroke-width="1" />
<path d="M26.0,-0.0 L33.54886012524431,-15.109211505665304 L50.0,-0.0" fill="blue" fill-opacity="0.6" stroke="black" stroke-width="1" />
<path d="M26.0,-0.0 L33.54886012524431,15.109211505665304 L50.0,-0.0" fill="yellow" fill-opacity="0.6" stroke="black" stroke-width="1" />
<path d="M50.0,-10.0 L36.20174773357337,-17.354356253606156 L44.87792721890001,-17.7362680011048" fill="red" fill-opacity="0.6" stroke="black" stroke-width="1" />
<path d="M50.0,10.0 L36.20174773357337,17.354356253606156 L44.87792721890001,17.7362680011048" fill="green" fill-opacity="0.6" stroke="black" stroke-width="1" />
<path d="M36.20174773357337,-17.354356253606156 L44.87792721890001,-17.7362680011048 L50.0,-25.0" fill="purple" fill-opacity="0.6" stroke="black" stroke-width="1" />
<path d="M36.20174773357337,17.354356253606156 L44.87792721890001,17.7362680011048 L50.0,25.0" fill="orange" fill-opacity="0.6" stroke="black" stroke-width="1" />
<path d="M50.0,-50.0 L46.189990828798045,-44.63005651850002 L40.0,-40.0" fill="purple" fill-opacity="0.6" stroke="black" stroke-width="1" />
<path d="M50.0,50.0 L46.189990828798045,44.63005651850002 L40.0,40.0" fill="blue" fill-opacity="0.6" stroke="black" stroke-width="1" />
<path d="M44.63005651850002,53.810009171201955 L40.0,60.0 L30.0,70.0" fill="orange" fill-opacity="0.6" stroke="black" stroke-width="1" />
<path d="M44.63005651850002,-53.810009171201955 L40.0,-60.0 L30.0,-70.0" fill="green" fill-opacity="0.6" stroke="black" stroke-width="1" />
<path d="M40.0,60.0 L30.0,70.0 L29.0,71.0" fill="purple" fill-opacity="0.6" stroke="black" stroke-width="1" />
<path d="M40.0,-60.0 L30.0,-70.0 L29.0,-71.0" fill="red" fill-opacity="0.6" stroke="black" stroke-width="1" />
<path d="M30.0,70.0 L29.0,71.0 L2.892234725979781,90.59330416495956" fill="brown" fill-opacity="0.6" stroke="black" stroke-width="1" />
<path d="M30.0,-70.0 L29.0,-71.0 L2.892234725979781,-90.59330416495956" fill="pink" fill-opacity="0.6" stroke="black" stroke-width="1" />
<path d="M29.0,-29.0 L9.406695835040429,-2.892234725979781 L9.31314918721346,-1.350500356251978" fill="red" fill-opacity="0.6" stroke="black" stroke-width="1" />
<path d="M29.0,29.0 L9.406695835040429,2.892234725979781 L9.31314918721346,1.350500356251978" fill="purple" fill-opacity="0.6" stroke="black" stroke-width="1" />
<path d="M9.406695835040429,-2.892234725979781 L9.31314918721346,-1.350500356251978 L2.9372625237625236,-0.010714469361506468" fill="blue" fill-opacity="0.6" stroke="black" stroke-width="1" />
<path d="M9.406695835040429,2.892234725979781 L9.31314918721346,1.350500356251978 L2.9372625237625236,0.010714469361506468" fill="purple" fill-opacity="0.6" stroke="black" stroke-width="1" />
<path d="M9.31314918721346,-1.350500356251978 L2.9372625237625236,-0.010714469361506468 L1.668290314971882,-0.008189658812096656" fill="yellow" fill-opacity="0.6" stroke="black" stroke-width="1" />
<path d="M9.31314918721346,1.350500356251978 L2.9372625237625236,0.010714469361506468 L1.668290314971882,0.008189658812096656" fill="blue" fill-opacity="0.6" stroke="black" stroke-width="1" />
<path d="M2.9372625237625236,-0.010714469361506468 L1.668290314971882,-0.008189658812096656 L0.0,-0.0" fill="orange" fill-opacity="0.6" stroke="black" stroke-width="1" />
<path d="M2.9372625237625236,0.010714469361506468 L1.668290314971882,0.008189658812096656 L0.0,-0.0" fill="red" fill-opacity="0.6" stroke="black" stroke-width="1" />
<path d="M-14.0,-0.0 L-18.721716914281295,-4.64025711057412 L-18.930413329862695,-6.05883484908319" fill="pink" fill-opacity="0.6" stroke="black" stroke-width="1" />
<path d="M-14.0,-0.0 L-18.721716914281295,4.64025711057412 L-18.930413329862695,6.05883484908319" fill="black" fill-opacity="0.6" stroke="black" stroke-width="1" />
<path d="M-18.721716914281295,-4.64025711057412 L-18.930413329862695,-6.05883484908319 L-23.966677283075985,-6.557692306774154" fill="yellow" fill-opacity="0.6" stroke="black" stroke-width="1" />
<path d="M-18.721716914281295,4.64025711057412 L-18.930413329862695,6.05883484908319 L-23.966677283075985,6.557692306774154" fill="yellow" fill-opacity="0.6" stroke="black" stroke-width="1" />
<path d="M-18.930413329862695,-6.05883484908319 L-23.966677283075985,-6.557692306774154 L-24.87979199508712,-12.035246706611076" fill="pink" fill-opacity="0.6" stroke="black" stroke-width="1" />
<path d="M-18.930413329862695,6.05883484908319 L-23.966677283075985,6.557692306774154 L-24.87979199508712,12.035246706611076" fill="purple" fill-opacity="0.6" stroke="black" stroke-width="1" />
<path d="M-23.966677283075985,-6.557692306774154 L-24.87979199508712,-12.035246706611076 L-26.0,-0.0" fill="yellow" fill-opacity="0.6" stroke="black" stroke-width="1" />
<path d="M-23.966677283075985,6.557692306774154 L-24.87979199508712,12.035246706611076 L-26.0,-0.0" fill="brown" fill-opacity="0.6" stroke="black" stroke-width="1" />
<path d="M-26.0,-0.0 L-33.54886012524431,-15.109211505665304 L-50.0,-0.0" fill="orange" fill-opacity="0.6" stroke="black" stroke-width="1" />
<path d="M-26.0,-0.0 L-33.54886012524431,15.109211505665304 L-50.0,-0.0" fill="red" fill-opacity="0.6" stroke="black" stroke-width="1" />
<path d="M-50.0,-10.0 L-36.20174773357337,-17.354356253606156 L-44.87792721890001,-17.7362680011048" fill="blue" fill-opacity="0.6" stroke="black" stroke-width="1" />
<path d="M-50.0,10.0 L-36.20174773357337,17.354356253606156 L-44.87792721890001,17.7362680011048" fill="pink" fill-opacity="0.6" stroke="black" stroke-width="1" />
<path d="M-36.20174773357337,-17.354356253606156 L-44.87792721890001,-17.7362680011048 L-50.0,-25.0" fill="pink" fill-opacity="0.6" stroke="black" stroke-width="1" />
<path d="M-36.20174773357337,17.354356253606156 L-44.87792721890001,17.7362680011048 L-50.0,25.0" fill="orange" fill-opacity="0.6" stroke="black" stroke-width="1" />
<path d="M-50.0,-50.0 L-46.189990828798045,-44.63005651850002 L-40.0,-40.0" fill="orange" fill-opacity="0.6" stroke="black" stroke-width="1" />
<path d="M-50.0,50.0 L-46.189990828798045,44.63005651850002 L-40.0,40.0" fill="blue" fill-opacity="0.6" stroke="black" stroke-width="1" />
<path d="M-44.63005651850002,53.810009171201955 L-40.0,60.0 L-30.0,70.0" fill="green" fill-opacity="0.6" stroke="black" stroke-width="1" />
<path d="M-44.63005651850002,-53.810009171201955 L-40.0,-60.0 L-30.0,-70.0" fill="purple" fill-opacity="0.6" stroke="black" stroke-width="1" />
<path d="M-40.0,60.0 L-30.0,70.0 L-29.0,71.0" fill="orange" fill-opacity="0.6" stroke="black" stroke-width="1" />
<path d="M-40.0,-60.0 L-30.0,-70.0 L-29.0,-71.0" fill="green" fill-opacity="0.6" stroke="black" stroke-width="1" />
<path d="M-30.0,70.0 L-29.0,71.0 L-2.892234725979781,90.59330416495958" fill="yellow" fill-opacity="0.6" stroke="black" stroke-width="1" />
<path d="M-30.0,-70.0 L-29.0,-71.0 L-2.892234725979781,-90.59330416495956" fill="yellow" fill-opacity="0.6" stroke="black" stroke-width="1" />
<path d="M-29.0,-29.0 L-9.406695835040429,-2.892234725979781 L-9.31314918721346,-1.350500356251978" fill="yellow" fill-opacity="0.6" stroke="black" stroke-width="1" />
<path d="M-29.0,29.0 L-9.406695835040429,2.892234725979781 L-9.31314918721346,1.350500356251978" fill="yellow" fill-opacity="0.6" stroke="black" stroke-width="1" />
<path d="M-9.406695835040429,-2.892234725979781 L-9.31314918721346,-1.350500356251978 L-2.9372625237625236,-0.010714469361506468" fill="black" fill-opacity="0.6" stroke="black" stroke-width="1" />
<path d="M-9.406695835040429,2.892234725979781 L-9.31314918721346,1.350500356251978 L-2.9372625237625236,0.010714469361506468" fill="orange" fill-opacity="0.6" stroke="black" stroke-width="1" />
<path d="M-9.31314918721346,-1.350500356251978 L-2.9372625237625236,-0.010714469361506468 L-1.668290314971882,-0.008189658812096656" fill="brown" fill-opacity="0.6" stroke="black" stroke-width="1" />
<path d="M-9.31314918721346,1.350500356251978 L-2.9372625237625236,0.010714469361506468 L-1.668290314971882,0.008189658812096656" fill="pink" fill-opacity="0.6" stroke="black" stroke-width="1" />
<path d="M-2.9372625237625236,-0.010714469361506468 L-1.668290314971882,-0.008189658812096656 L0.0,-0.0" fill="yellow" fill-opacity="0.6" stroke="black" stroke-width="1" />
<path d="M-2.9372625237625236,0.010714469361506468 L-1.668290314971882,0.008189658812096656 L0.0,-0.0" fill="blue" fill-opacity="0.6" stroke="black" stroke-width="1" />
<path d="M86.0,-0.0 L81.2782830857187,4.64025711057412 L81.06958667013731,6.05883484908319" fill="red" fill-opacity="0.6" stroke="black" stroke-width="1" />
<path d="M86.0,-0.0 L81.2782830857187,-4.64025711057412 L81.06958667013731,-6.05883484908319" fill="yellow" fill-opacity="0.6" stroke="black" stroke-width="1" />
<path d="M81.2782830857187,4.64025711057412 L81.06958667013731,6.05883484908319 L76.03332271692402,6.557692306774154" fill="black" fill-opacity="0.6" stroke="black" stroke-width="1" />
<path d="M81.2782830857187,-4.64025711057412 L81.06958667013731,-6.05883484908319 L76.03332271692402,-6.557692306774154" fill="blue" fill-opacity="0.6" stroke="black" stroke-width="1" />
<path d="M81.06958667013731,6.05883484908319 L76.03332271692402,6.557692306774154 L75.12020800491288,12.035246706611076" fill="orange" fill-opacity="0.6" stroke="black" stroke-width="1" />
<path d="M81.06958667013731,-6.05883484908319 L76.03332271692402,-6.557692306774154 L75.12020800491288,-12.035246706611076" fill="purple" fill-opacity="0.6" stroke="black" stroke-width="1" />
<path d="M76.03332271692402,6.557692306774154 L75.12020800491288,12.035246706611076 L74.0,-0.0" fill="yellow" fill-opacity="0.6" stroke="black" stroke-width="1" />
<path d="M76.03332271692402,-6.557692306774154 L75.12020800491288,-12.035246706611076 L74.0,-0.0" fill="pink" fill-opacity="0.6" stroke="black" stroke-width="1" />
<path d="M74.0,-0.0 L66.45113987475568,15.109211505665304 L50.0,-0.0" fill="black" fill-opacity="0.6" stroke="black" stroke-width="1" />
<path d="M74.0,-0.0 L66.45113987475568,-15.109211505665304 L50.0,-0.0" fill="purple" fill-opacity="0.6" stroke="black" stroke-width="1" />
<path d="M50.0,10.0 L63.79825226642663,17.354356253606156 L55.12207278109999,17.7362680011048" fill="orange" fill-opacity="0.6" stroke="black" stroke-width="1" />
<path d="M50.0,-10.0 L63.79825226642663,-17.354356253606156 L55.12207278109999,-17.7362680011048" fill="green" fill-opacity="0.6" stroke="black" stroke-width="1" />
<path d="M63.79825226642663,17.354356253606156 L55.12207278109999,17.7362680011048 L50.0,25.0" fill="orange" fill-opacity="0.6" stroke="black" stroke-width="1" />
<path d="M63.79825226642663,-17.354356253606156 L55.12207278109999,-17.7362680011048 L50.0,-25.0" fill="red" fill-opacity="0.6" stroke="black" stroke-width="1" />
<path d="M50.0,50.0 L53.810009171201955,44.63005651850002 L60.0,40.0" fill="black" fill-opacity="0.6" stroke="black" stroke-width="1" />
<path d="M50.0,-50.0 L53.810009171201955,-44.63005651850002 L60.0,-40.0" fill="brown" fill-opacity="0.6" stroke="black" stroke-width="1" />
<path d="M53.810009171201955,44.63005651850002 L60.0,40.0 L70.0,30.0" fill="yellow" fill-opacity="0.6" stroke="black" stroke-width="1" />
<path d="M53.810009171201955,-44.63005651850002 L60.0,-40.0 L70.0,-30.0" fill="red" fill-opacity="0.6" stroke="black" stroke-width="1" />
<path d="M60.0,40.0 L70.0,30.0 L71.0,29.0" fill="purple" fill-opacity="0.6" stroke="black" stroke-width="1" />
<path d="M60.0,-40.0 L70.0,-30.0 L71.0,-29.0" fill="yellow" fill-opacity="0.6" stroke="black" stroke-width="1" />
<path d="M70.0,30.0 L71.0,29.0 L90.59330416495956,2.892234725979781" fill="red" fill-opacity="0.6" stroke="black" stroke-width="1" />
<path d="M70.0,-30.0 L71.0,-29.0 L90.59330416495956,-2.892234725979781" fill="yellow" fill-opacity="0.6" stroke="black" stroke-width="1" />
<path d="M71.0,29.0 L90.59330416495956,2.892234725979781 L90.68685081278653,1.350500356251978" fill="red" fill-opacity="0.6" stroke="black" stroke-width="1" />
<path d="M71.0,-29.0 L90.59330416495956,-2.892234725979781 L90.68685081278653,-1.350500356251978" fill="orange" fill-opacity="0.6" stroke="black" stroke-width="1" />
<path d="M90.59330416495956,2.892234725979781 L90.68685081278653,1.350500356251978 L97.06273747623747,0.010714469361506468" fill="green" fill-opacity="0.6" stroke="black" stroke-width="1" />
<path d="M90.59330416495956,-2.892234725979781 L90.68685081278653,-1.350500356251978 L97.06273747623747,-0.010714469361506468" fill="green" fill-opacity="0.6" stroke="black" stroke-width="1" />
<path d="M90.68685081278653,1.350500356251978 L97.06273747623747,0.010714469361506468 L98.33170968502812,0.008189658812096656" fill="orange" fill-opacity="0.6" stroke="black" stroke-width="1" />
<path d="M90.68685081278653,-1.350500356251978 L97.06273747623747,-0.010714469361506468 L98.33170968502812,-0.008189658812096656" fill="purple" fill-opacity="0.6" stroke="black" stroke-width="1" />
<path d="M97.06273747623747,0.010714469361506468 L98.33170968502812,0.008189658812096656 L100.0,-0.0" fill="yellow" fill-opacity="0.6" stroke="black" stroke-width="1" />
<path d="M97.06273747623747,-0.010714469361506468 L98.33170968502812,-0.008189658812096656 L100.0,-0.0" fill="pink" fill-opacity="0.6" stroke="black" stroke-width="1" />
<path d="M0.0,-14.0 L4.64025711057412,-18.721716914281295 L6.05883484908319,-18.930413329862695" fill="red" fill-opacity="0.6" stroke="black" stroke-width="1" />
<path d="M0.0,14.0 L4.64025711057412,18.721716914281295 L6.05883484908319,18.930413329862695" fill="red" fill-opacity="0.6" stroke="black" stroke-width="1" />
<path d="M0.0,86.0 L4.64025711057412,81.2782830857187 L6.05883484908319,81.06958667013731" fill="purple" fill-opacity="0.6" stroke="black" stroke-width="1" />
<path d="M0.0,-86.0 L4.64025711057412,-81.2782830857187 L6.05883484908319,-81.06958667013731" fill="purple" fill-opacity="0.6" stroke="black" stroke-width="1" />
<path d="M4.64025711057412,-18.721716914281295 L6.05883484908319,-18.930413329862695 L6.557692306774154,-23.966677283075985" fill="green" fill-opacity="0.6" stroke="black" stroke-width="1" />
<path d="M4.64025711057412,18.721716914281295 L6.05883484908319,18.930413329862695 L6.557692306774154,23.966677283075985" fill="green" fill-opacity="0.6" stroke="black" stroke-width="1" />
<path d="M4.64025711057412,81.2782830857187 L6.05883484908319,81.06958667013731 L6.557692306774154,76.03332271692402" fill="black" fill-opacity="0.6" stroke="black" stroke-width="1" />
<path d="M4.64025711057412,-81.2782830857187 L6.05883484908319,-81.06958667013731 L6.557692306774154,-76.03332271692402" fill="orange" fill-opacity="0.6" stroke="black" stroke-width="1" />
<path d="M6.05883484908319,-18.930413329862695 L6.557692306774154,-23.966677283075985 L12.035246706611076,-24.87979199508712" fill="red" fill-opacity="0.6" stroke="black" stroke-width="1" />
<path d="M6.05883484908319,18.930413329862695 L6.557692306774154,23.966677283075985 L12.035246706611076,24.87979199508712" fill="blue" fill-opacity="0.6" stroke="black" stroke-width="1" />
<path d="M6.05883484908319,81.06958667013731 L6.557692306774154,76.03332271692402 L12.035246706611076,75.12020800491288" fill="pink" fill-opacity="0.6" stroke="black" stroke-width="1" />
<path d="M6.05883484908319,-81.06958667013731 L6.557692306774154,-76.03332271692402 L12.035246706611076,-75.12020800491288" fill="yellow" fill-opacity="0.6" stroke="black" stroke-width="1" />
<path d="M6.557692306774154,-23.966677283075985 L12.035246706611076,-24.87979199508712 L0.0,-26.0" fill="green" fill-opacity="0.6" stroke="black" stroke-width="1" />
<path d="M6.557692306774154,23.966677283075985 L12.035246706611076,24.87979199508712 L0.0,26.0" fill="purple" fill-opacity="0.6" stroke="black" stroke-width="1" />
<path d="M6.557692306774154,76.03332271692402 L12.035246706611076,75.12020800491288 L0.0,74.0" fill="orange" fill-opacity="0.6" stroke="black" stroke-width="1" />
<path d="M6.557692306774154,-76.03332271692402 L12.035246706611076,-75.12020800491288 L0.0,-74.0" fill="yellow" fill-opacity="0.6" stroke="black" stroke-width="1" />
<path d="M0.0,-26.0 L15.109211505665304,-33.54886012524431 L0.0,-50.0" fill="orange" fill-opacity="0.6" stroke="black" stroke-width="1" />
<path d="M0.0,26.0 L15.109211505665304,33.54886012524431 L0.0,50.0" fill="red" fill-opacity="0.6" stroke="black" stroke-width="1" />
<path d="M0.0,74.0 L15.109211505665304,66.45113987475568 L0.0,50.0" fill="blue" fill-opacity="0.6" stroke="black" stroke-width="1" />
<path d="M0.0,-74.0 L15.109211505665304,-66.45113987475568 L0.0,-50.0" fill="pink" fill-opacity="0.6" stroke="black" stroke-width="1" />
<path d="M10.0,-50.0 L17.354356253606156,-36.20174773357337 L17.7362680011048,-44.87792721890001" fill="purple" fill-opacity="0.6" stroke="black" stroke-width="1" />
<path d="M10.0,50.0 L17.354356253606156,36.20174773357337 L17.7362680011048,44.87792721890001" fill="orange" fill-opacity="0.6" stroke="black" stroke-width="1" />
<path d="M10.0,50.0 L17.354356253606156,63.79825226642663 L17.7362680011048,55.12207278109999" fill="pink" fill-opacity="0.6" stroke="black" stroke-width="1" />
<path d="M10.0,-50.0 L17.354356253606156,-63.79825226642663 L17.7362680011048,-55.12207278109999" fill="blue" fill-opacity="0.6" stroke="black" stroke-width="1" />
<path d="M17.354356253606156,-36.20174773357337 L17.7362680011048,-44.87792721890001 L25.0,-50.0" fill="brown" fill-opacity="0.6" stroke="black" stroke-width="1" />
<path d="M17.354356253606156,36.20174773357337 L17.7362680011048,44.87792721890001 L25.0,50.0" fill="orange" fill-opacity="0.6" stroke="black" stroke-width="1" />
<path d="M17.354356253606156,63.79825226642663 L17.7362680011048,55.12207278109999 L25.0,50.0" fill="yellow" fill-opacity="0.6" stroke="black" stroke-width="1" />
<path d="M17.354356253606156,-63.79825226642663 L17.7362680011048,-55.12207278109999 L25.0,-50.0" fill="red" fill-opacity="0.6" stroke="black" stroke-width="1" />
<path d="M50.0,-50.0 L44.63005651850002,-46.189990828798045 L40.0,-40.0" fill="purple" fill-opacity="0.6" stroke="black" stroke-width="1" />
<path d="M50.0,50.0 L44.63005651850002,46.189990828798045 L40.0,40.0" fill="purple" fill-opacity="0.6" stroke="black" stroke-width="1" />
<path d="M50.0,50.0 L44.63005651850002,53.810009171201955 L40.0,60.0" fill="orange" fill-opacity="0.6" stroke="black" stroke-width="1" />
<path d="M50.0,-50.0 L44.63005651850002,-53.810009171201955 L40.0,-60.0" fill="purple" fill-opacity="0.6" stroke="black" stroke-width="1" />
<path d="M29.0,-29.0 L2.892234725979781,-9.406695835040429 L1.350500356251978,-9.31314918721346" fill="green" fill-opacity="0.6" stroke="black" stroke-width="1" />
<path d="M29.0,29.0 L2.892234725979781,9.406695835040429 L1.350500356251978,9.31314918721346" fill="green" fill-opacity="0.6" stroke="black" stroke-width="1" />
<path d="M29.0,71.0 L2.892234725979781,90.59330416495956 L1.350500356251978,90.68685081278653" fill="green" fill-opacity="0.6" stroke="black" stroke-width="1" />
<path d="M29.0,-71.0 L2.892234725979781,-90.59330416495956 L1.350500356251978,-90.68685081278653" fill="pink" fill-opacity="0.6" stroke="black" stroke-width="1" />
<path d="M2.892234725979781,-9.406695835040429 L1.350500356251978,-9.31314918721346 L0.010714469361506468,-2.9372625237625236" fill="black" fill-opacity="0.6" stroke="black" stroke-width="1" />
<path d="M2.892234725979781,9.406695835040429 L1.350500356251978,9.31314918721346 L0.010714469361506468,2.9372625237625236" fill="red" fill-opacity="0.6" stroke="black" stroke-width="1" />
<path d="M2.892234725979781,90.59330416495956 L1.350500356251978,90.68685081278653 L0.010714469361506468,97.06273747623747" fill="red" fill-opacity="0.6" stroke="black" stroke-width="1" />
<path d="M2.892234725979781,-90.59330416495956 L1.350500356251978,-90.68685081278653 L0.010714469361506468,-97.06273747623747" fill="purple" fill-opacity="0.6" stroke="black" stroke-width="1" />
<path d="M1.350500356251978,-9.31314918721346 L0.010714469361506468,-2.9372625237625236 L0.008189658812096656,-1.668290314971882" fill="purple" fill-opacity="0.6" stroke="black" stroke-width="1" />
<path d="M1.350500356251978,9.31314918721346 L0.010714469361506468,2.9372625237625236 L0.008189658812096656,1.668290314971882" fill="yellow" fill-opacity="0.6" stroke="black" stroke-width="1" />
<path d="M1.350500356251978,90.68685081278653 L0.010714469361506468,97.06273747623747 L0.008189658812096656,98.33170968502812" fill="brown" fill-opacity="0.6" stroke="black" stroke-width="1" />
<path d="M1.350500356251978,-90.68685081278653 L0.010714469361506468,-97.06273747623747 L0.008189658812096656,-98.33170968502812" fill="pink" fill-opacity="0.6" stroke="black" stroke-width="1" />
<path d="M0.010714469361506468,-2.9372625237625236 L0.008189658812096656,-1.668290314971882 L0.0,-0.0" fill="orange" fill-opacity="0.6" stroke="black" stroke-width="1" />
<path d="M0.010714469361506468,2.9372625237625236 L0.008189658812096656,1.668290314971882 L0.0,-0.0" fill="green" fill-opacity="0.6" stroke="black" stroke-width="1" />
<path d="M0.010714469361506468,97.06273747623747 L0.008189658812096656,98.33170968502812 L0.0,100.0" fill="orange" fill-opacity="0.6" stroke="black" stroke-width="1" />
<path d="M0.010714469361506468,-97.06273747623747 L0.008189658812096656,-98.33170968502812 L0.0,-100.0" fill="brown" fill-opacity="0.6" stroke="black" stroke-width="1" />
<path d="M0.0,86.0 L-4.64025711057412,81.2782830857187 L-6.05883484908319,81.06958667013731" fill="purple" fill-opacity="0.6" stroke="black" stroke-width="1" />
<path d="M0.0,-14.0 L-4.64025711057412,-18.721716914281295 L-6.05883484908319,-18.930413329862695" fill="yellow" fill-opacity="0.6" stroke="black" stroke-width="1" />
<path d="M0.0,14.0 L-4.64025711057412,18.721716914281302 L-6.05883484908319,18.930413329862688" fill="blue" fill-opacity="0.6" stroke="black" stroke-width="1" />
<path d="M0.0,-86.0 L-4.64025711057412,-81.2782830857187 L-6.05883484908319,-81.06958667013731" fill="red" fill-opacity="0.6" stroke="black" stroke-width="1" />
<path d="M-4.64025711057412,81.2782830857187 L-6.05883484908319,81.06958667013731 L-6.557692306774154,76.03332271692402" fill="purple" fill-opacity="0.6" stroke="black" stroke-width="1" />
<path d="M-4.64025711057412,-18.721716914281295 L-6.05883484908319,-18.930413329862695 L-6.557692306774154,-23.966677283075985" fill="red" fill-opacity="0.6" stroke="black" stroke-width="1" />
<path d="M-4.64025711057412,18.721716914281302 L-6.05883484908319,18.930413329862688 L-6.557692306774154,23.96667728307598" fill="green" fill-opacity="0.6" stroke="black" stroke-width="1" />
<path d="M-4.64025711057412,-81.2782830857187 L-6.05883484908319,-81.06958667013731 L-6.557692306774154,-76.03332271692402" fill="orange" fill-opacity="0.6" stroke="black" stroke-width="1" />
<path d="M-6.05883484908319,81.06958667013731 L-6.557692306774154,76.03332271692402 L-12.035246706611076,75.12020800491288" fill="black" fill-opacity="0.6" stroke="black" stroke-width="1" />
<path d="M-6.05883484908319,-18.930413329862695 L-6.557692306774154,-23.966677283075985 L-12.035246706611076,-24.87979199508712" fill="black" fill-opacity="0.6" stroke="black" stroke-width="1" />
<path d="M-6.05883484908319,18.930413329862688 L-6.557692306774154,23.96667728307598 L-12.035246706611076,24.879791995087118" fill="blue" fill-opacity="0.6" stroke="black" stroke-width="1" />
<path d="M-6.05883484908319,-81.06958667013731 L-6.557692306774154,-76.03332271692402 L-12.035246706611076,-75.12020800491288" fill="blue" fill-opacity="0.6" stroke="black" stroke-width="1" />
<path d="M-6.557692306774154,76.03332271692402 L-12.035246706611076,75.12020800491288 L0.0,74.0" fill="orange" fill-opacity="0.6" stroke="black" stroke-width="1" />
<path d="M-6.557692306774154,-23.966677283075985 L-12.035246706611076,-24.87979199508712 L0.0,-26.0" fill="pink" fill-opacity="0.6" stroke="black" stroke-width="1" />
<path d="M-6.557692306774154,23.96667728307598 L-12.035246706611076,24.879791995087118 L0.0,26.0" fill="purple" fill-opacity="0.6" stroke="black" stroke-width="1" />
<path d="M-6.557692306774154,-76.03332271692402 L-12.035246706611076,-75.12020800491288 L0.0,-74.0" fill="yellow" fill-opacity="0.6" stroke="black" stroke-width="1" />
<path d="M0.0,74.0 L-15.109211505665304,66.45113987475568 L0.0,50.0" fill="red" fill-opacity="0.6" stroke="black" stroke-width="1" />
<path d="M0.0,-26.0 L-15.109211505665304,-33.54886012524431 L0.0,-50.0" fill="pink" fill-opacity="0.6" stroke="black" stroke-width="1" />
<path d="M0.0,26.0 L-15.109211505665304,33.54886012524432 L0.0,50.0" fill="green" fill-opacity="0.6" stroke="black" stroke-width="1" />
<path d="M0.0,-74.0 L-15.109211505665304,-66.45113987475568 L0.0,-50.0" fill="red" fill-opacity="0.6" stroke="black" stroke-width="1" />
<path d="M-10.0,50.0 L-17.354356253606156,63.79825226642663 L-17.7362680011048,55.12207278109999" fill="purple" fill-opacity="0.6" stroke="black" stroke-width="1" />
<path d="M-10.0,-50.0 L-17.354356253606156,-36.20174773357337 L-17.7362680011048,-44.87792721890001" fill="yellow" fill-opacity="0.6" stroke="black" stroke-width="1" />
<path d="M-10.0,50.0 L-17.354356253606156,36.20174773357337 L-17.7362680011048,44.87792721890001" fill="black" fill-opacity="0.6" stroke="black" stroke-width="1" />
<path d="M-10.0,-50.0 L-17.354356253606156,-63.79825226642663 L-17.7362680011048,-55.12207278109999" fill="green" fill-opacity="0.6" stroke="black" stroke-width="1" />
<path d="M-17.354356253606156,63.79825226642663 L-17.7362680011048,55.12207278109999 L-25.0,50.0" fill="green" fill-opacity="0.6" stroke="black" stroke-width="1" />
<path d="M-17.354356253606156,-36.20174773357337 L-17.7362680011048,-44.87792721890001 L-25.0,-50.0" fill="black" fill-opacity="0.6" stroke="black" stroke-width="1" />
<path d="M-17.354356253606156,36.20174773357337 L-17.7362680011048,44.87792721890001 L-25.0,50.0" fill="purple" fill-opacity="0.6" stroke="black" stroke-width="1" />
<path d="M-17.354356253606156,-63.79825226642663 L-17.7362680011048,-55.12207278109999 L-25.0,-50.0" fill="red" fill-opacity="0.6" stroke="black" stroke-width="1" />
<path d="M-50.0,50.0 L-44.63005651850002,53.810009171201955 L-40.0,60.0" fill="blue" fill-opacity="0.6" stroke="black" stroke-width="1" />
<path d="M-50.0,-50.0 L-44.63005651850002,-46.189990828798045 L-40.0,-40.0" fill="yellow" fill-opacity="0.6" stroke="black" stroke-width="1" />
<path d="M-50.0,50.0 L-44.63005651850002,46.189990828798045 L-40.0,40.0" fill="orange" fill-opacity="0.6" stroke="black" stroke-width="1" />
<path d="M-50.0,-50.0 L-44.63005651850002,-53.810009171201955 L-40.0,-60.0" fill="orange" fill-opacity="0.6" stroke="black" stroke-width="1" />
<path d="M-29.0,71.0 L-2.892234725979781,90.59330416495958 L-1.350500356251978,90.68685081278655" fill="brown" fill-opacity="0.6" stroke="black" stroke-width="1" />
<path d="M-29.0,-29.0 L-2.892234725979781,-9.406695835040429 L-1.350500356251978,-9.31314918721346" fill="purple" fill-opacity="0.6" stroke="black" stroke-width="1" />
<path d="M-29.0,29.0 L-2.892234725979781,9.406695835040424 L-1.350500356251978,9.313149187213455" fill="pink" fill-opacity="0.6" stroke="black" stroke-width="1" />
<path d="M-29.0,-71.0 L-2.892234725979781,-90.59330416495956 L-1.350500356251978,-90.68685081278653" fill="pink" fill-opacity="0.6" stroke="black" stroke-width="1" />
<path d="M-2.892234725979781,90.59330416495958 L-1.350500356251978,90.68685081278655 L-0.010714469361506468,97.06273747623747" fill="green" fill-opacity="0.6" stroke="black" stroke-width="1" />
<path d="M-2.892234725979781,-9.406695835040429 L-1.350500356251978,-9.31314918721346 L-0.010714469361506468,-2.9372625237625236" fill="pink" fill-opacity="0.6" stroke="black" stroke-width="1" />
<path d="M-2.892234725979781,9.406695835040424 L-1.350500356251978,9.313149187213455 L-0.010714469361506468,2.937262523762527" fill="purple" fill-opacity="0.6" stroke="black" stroke-width="1" />
<path d="M-2.892234725979781,-90.59330416495956 L-1.350500356251978,-90.68685081278653 L-0.010714469361506468,-97.06273747623747" fill="red" fill-opacity="0.6" stroke="black" stroke-width="1" />
<path d="M-1.350500356251978,90.68685081278655 L-0.010714469361506468,97.06273747623747 L-0.008189658812096656,98.33170968502812" fill="yellow" fill-opacity="0.6" stroke="black" stroke-width="1" />
<path d="M-1.350500356251978,-9.31314918721346 L-0.010714469361506468,-2.9372625237625236 L-0.008189658812096656,-1.668290314971882" fill="orange" fill-opacity="0.6" stroke="black" stroke-width="1" />
<path d="M-1.350500356251978,9.313149187213455 L-0.010714469361506468,2.937262523762527 L-0.008189658812096656,1.668290314971884" fill="blue" fill-opacity="0.6" stroke="black" stroke-width="1" />
<path d="M-1.350500356251978,-90.68685081278653 L-0.010714469361506468,-97.06273747623747 L-0.008189658812096656,-98.33170968502812" fill="green" fill-opacity="0.6" stroke="black" stroke-width="1" />
<path d="M-0.010714469361506468,97.06273747623747 L-0.008189658812096656,98.33170968502812 L0.0,100.0" fill="purple" fill-opacity="0.6" stroke="black" stroke-width="1" />
<path d="M-0.010714469361506468,-2.9372625237625236 L-0.008189658812096656,-1.668290314971882 L0.0,-0.0" fill="blue" fill-opacity="0.6" stroke="black" stroke-width="1" />
<path d="M-0.010714469361506468,2.937262523762527 L-0.008189658812096656,1.668290314971884 L0.0,-0.0" fill="green" fill-opacity="0.6" stroke="black" stroke-width="1" />
<path d="M-0.010714469361506468,-97.06273747623747 L-0.008189658812096656,-98.33170968502812 L0.0,-100.0" fill="yellow" fill-opacity="0.6" stroke="black" stroke-width="1" />
<path d="M-86.0,-0.0 L-81.2782830857187,-4.64025711057412 L-81.06958667013731,-6.05883484908319" fill="purple" fill-opacity="0.6" stroke="black" stroke-width="1" />
<path d="M-86.0,-0.0 L-81.2782830857187,4.64025711057412 L-81.06958667013731,6.05883484908319" fill="blue" fill-opacity="0.6" stroke="black" stroke-width="1" />
<path d="M-81.2782830857187,-4.64025711057412 L-81.06958667013731,-6.05883484908319 L-76.03332271692402,-6.557692306774154" fill="purple" fill-opacity="0.6" stroke="black" stroke-width="1" />
<path d="M-81.2782830857187,4.64025711057412 L-81.06958667013731,6.05883484908319 L-76.03332271692402,6.557692306774154" fill="purple" fill-opacity="0.6" stroke="black" stroke-width="1" />
<path d="M-81.06958667013731,-6.05883484908319 L-76.03332271692402,-6.557692306774154 L-75.12020800491288,-12.035246706611076" fill="pink" fill-opacity="0.6" stroke="black" stroke-width="1" />
<path d="M-81.06958667013731,6.05883484908319 L-76.03332271692402,6.557692306774154 L-75.12020800491288,12.035246706611076" fill="purple" fill-opacity="0.6" stroke="black" stroke-width="1" />
<path d="M-76.03332271692402,-6.557692306774154 L-75.12020800491288,-12.035246706611076 L-74.0,-0.0" fill="black" fill-opacity="0.6" stroke="black" stroke-width="1" />
<path d="M-76.03332271692402,6.557692306774154 L-75.12020800491288,12.035246706611076 L-74.0,-0.0" fill="yellow" fill-opacity="0.6" stroke="black" stroke-width="1" />
<path d="M-74.0,-0.0 L-66.45113987475568,-15.109211505665304 L-50.0,-0.0" fill="pink" fill-opacity="0.6" stroke="black" stroke-width="1" />
<path d="M-74.0,-0.0 L-66.45113987475568,15.109211505665304 L-50.0,-0.0" fill="purple" fill-opacity="0.6" stroke="black" stroke-width="1" />
<path d="M-50.0,-10.0 L-63.79825226642663,-17.354356253606156 L-55.12207278109999,-17.7362680011048" fill="green" fill-opacity="0.6" stroke="black" stroke-width="1" />
<path d="M-50.0,10.0 L-63.79825226642663,17.354356253606156 L-55.12207278109999,17.7362680011048" fill="purple" fill-opacity="0.6" stroke="black" stroke-width="1" />
<path d="M-63.79825226642663,-17.354356253606156 L-55.12207278109999,-17.7362680011048 L-50.0,-25.0" fill="purple" fill-opacity="0.6" stroke="black" stroke-width="1" />
<path d="M-63.79825226642663,17.354356253606156 L-55.12207278109999,17.7362680011048 L-50.0,25.0" fill="purple" fill-opacity="0.6" stroke="black" stroke-width="1" />
<path d="M-50.0,-50.0 L-53.810009171201955,-44.63005651850002 L-60.0,-40.0" fill="black" fill-opacity="0.6" stroke="black" stroke-width="1" />
<path d="M-50.0,50.0 L-53.810009171201955,44.63005651850002 L-60.0,40.0" fill="brown" fill-opacity="0.6" stroke="black" stroke-width="1" />
<path d="M-53.810009171201955,-44.63005651850002 L-60.0,-40.0 L-70.0,-30.0" fill="red" fill-opacity="0.6" stroke="black" stroke-width="1" />
<path d="M-53.810009171201955,44.63005651850002 L-60.0,40.0 L-70.0,30.0" fill="purple" fill-opacity="0.6" stroke="black" stroke-width="1" />
<path d="M-60.0,-40.0 L-70.0,-30.0 L-71.0,-29.0" fill="brown" fill-opacity="0.6" stroke="black" stroke-width="1" />
<path d="M-60.0,40.0 L-70.0,30.0 L-71.0,29.0" fill="purple" fill-opacity="0.6" stroke="black" stroke-width="1" />
<path d="M-70.0,-30.0 L-71.0,-29.0 L-90.59330416495956,-2.892234725979781" fill="pink" fill-opacity="0.6" stroke="black" stroke-width="1" />
<path d="M-70.0,30.0 L-71.0,29.0 L-90.59330416495956,2.892234725979781" fill="red" fill-opacity="0.6" stroke="black" stroke-width="1" />
<path d="M-71.0,-29.0 L-90.59330416495956,-2.892234725979781 L-90.68685081278653,-1.350500356251978" fill="pink" fill-opacity="0.6" stroke="black" stroke-width="1" />
<path d="M-71.0,29.0 L-90.59330416495956,2.892234725979781 L-90.68685081278653,1.350500356251978" fill="red" fill-opacity="0.6" stroke="black" stroke-width="1" />
<path d="M-90.59330416495956,-2.892234725979781 L-90.68685081278653,-1.350500356251978 L-97.06273747623747,-0.010714469361506468" fill="yellow" fill-opacity="0.6" stroke="black" stroke-width="1" />
<path d="M-90.59330416495956,2.892234725979781 L-90.68685081278653,1.350500356251978 L-97.06273747623747,0.010714469361506468" fill="yellow" fill-opacity="0.6" stroke="black" stroke-width="1" />
<path d="M-90.68685081278653,-1.350500356251978 L-97.06273747623747,-0.010714469361506468 L-98.33170968502812,-0.008189658812096656" fill="red" fill-opacity="0.6" stroke="black" stroke-width="1" />
<path d="M-90.68685081278653,1.350500356251978 L-97.06273747623747,0.010714469361506468 L-98.33170968502812,0.008189658812096656" fill="blue" fill-opacity="0.6" stroke="black" stroke-width="1" />
<path d="M-97.06273747623747,-0.010714469361506468 L-98.33170968502812,-0.008189658812096656 L-100.0,-0.0" fill="pink" fill-opacity="0.6" stroke="black" stroke-width="1" />
<path d="M-97.06273747623747,0.010714469361506468 L-98.33170968502812,0.008189658812096656 L-100.0,-0.0" fill="orange" fill-opacity="0.6" stroke="black" stroke-width="1" />
</svg>