<?xml version="1.0" encoding="UTF-8"?>
<svg xmlns="http://www.w3.org/2000/svg" xmlns:xlink="http://www.w3.org/1999/xlink"
     width="250" height="250" viewBox="-125.0 -125.0 250 250">
<defs>
</defs>
<path d="M13.0,-0.0 L14.75989979162598,-6.40897990053077 L17.0,-0.0" fill="purple" fill-opacity="0.6" stroke="black" stroke-width="1" />
<path d="M13.0,-0.0 L14.75989979162598,6.40897990053077 L17.0,-0.0" fill="purple" fill-opacity="0.6" stroke="black" stroke-width="1" />
<path d="M17.0,-0.0 L18.887421165997985,-7.131552741765003 L23.212194941817298,-8.890666945835815" fill="yellow" fill-opacity="0.6" stroke="black" stroke-width="1" />
<path d="M17.0,-0.0 L18.887421165997985,7.131552741765003 L23.212194941817298,8.890666945835815" fill="purple" fill-opacity="0.6" stroke="black" stroke-width="1" />
<path d="M18.887421165997985,-7.131552741765003 L23.212194941817298,-8.890666945835815 L25.0,-0.0" fill="yellow" fill-opacity="0.6" stroke="black" stroke-width="1" />
<path d="M18.887421165997985,7.131552741765003 L23.212194941817298,8.890666945835815 L25.0,-0.0" fill="yellow" fill-opacity="0.6" stroke="black" stroke-width="1" />
<path d="M25.0,-0.0 L27.38317646781097,-17.563124627911364 L50.0,-0.0" fill="yellow" fill-opacity="0.6" stroke="black" stroke-width="1" />
<path d="M25.0,-0.0 L27.38317646781097,17.563124627911364 L50.0,-0.0" fill="green" fill-opacity="0.6" stroke="black" stroke-width="1" />
<path d="M50.0,-50.0 L43.5610111169832,-35.99766368305933 L38.00709139413484,-30.030237209719253" fill="pink" fill-opacity="0.6" stroke="black" stroke-width="1" />
<path d="M50.0,50.0 L43.5610111169832,35.99766368305933 L38.00709139413484,30.030237209719253" fill="purple" fill-opacity="0.6" stroke="black" stroke-width="1" />
<path d="M43.5610111169832,-35.99766368305933 L38.00709139413484,-30.030237209719253 L34.68977474691563,-29.334007547446344" fill="blue" fill-opacity="0.6" stroke="black" stroke-width="1" />
<path d="M43.5610111169832,35.99766368305933 L38.00709139413484,30.030237209719253 L34.68977474691563,29.334007547446344" fill="green" fill-opacity="0.6" stroke="black" stroke-width="1" />
<path d="M38.00709139413484,-30.030237209719253 L34.68977474691563,-29.334007547446344 L30.14550012628907,-27.207145879312495" fill="purple" fill-opacity="0.6" stroke="black" stroke-width="1" />
<path d="M38.00709139413484,30.030237209719253 L34.68977474691563,29.334007547446344 L30.14550012628907,27.207145879312495" fill="orange" fill-opacity="0.6" stroke="black" stroke-width="1" />
<path d="M34.68977474691563,-29.334007547446344 L30.14550012628907,-27.207145879312495 L19.0,-19.0" fill="red" fill-opacity="0.6" stroke="black" stroke-width="1" />
<path d="M34.68977474691563,29.334007547446344 L30.14550012628907,27.207145879312495 L19.0,19.0" fill="green" fill-opacity="0.6" stroke="black" stroke-width="1" />
<path d="M27.207145879312495,69.85449987371094 L19.0,81.0 L16.0,84.0" fill="orange" fill-opacity="0.6" stroke="black" stroke-width="1" />
<path d="M27.207145879312495,-69.85449987371094 L19.0,-81.0 L16.0,-84.0" fill="green" fill-opacity="0.6" stroke="black" stroke-width="1" />
<path d="M19.0,81.0 L16.0,84.0 L4.606770845405313,88.28981783756457" fill="brown" fill-opacity="0.6" stroke="black" stroke-width="1" />
<path d="M19.0,-81.0 L16.0,-84.0 L4.606770845405313,-88.28981783756457" fill="pink" fill-opacity="0.6" stroke="black" stroke-width="1" />
<path d="M16.0,-16.0 L11.71018216243543,-4.606770845405313 L10.089583679141427,-3.275119516075695" fill="black" fill-opacity="0.6" stroke="black" stroke-width="1" />
<path d="M16.0,16.0 L11.71018216243543,4.606770845405313 L10.089583679141427,3.275119516075695" fill="red" fill-opacity="0.6" stroke="black" stroke-width="1" />
<path d="M11.71018216243543,-4.606770845405313 L10.089583679141427,-3.275119516075695 L6.141821643675121,-2.7270648570490885" fill="brown" fill-opacity="0.6" stroke="black" stroke-width="1" />
<path d="M11.71018216243543,4.606770845405313 L10.089583679141427,3.275119516075695 L6.141821643675121,2.7270648570490885" fill="green" fill-opacity="0.6" stroke="black" stroke-width="1" />
<path d="M10.089583679141427,-3.275119516075695 L6.141821643675121,-2.7270648570490885 L6.0,-6.0" fill="blue" fill-opacity="0.6" stroke="black" stroke-width="1" />
<path d="M10.089583679141427,3.275119516075695 L6.141821643675121,2.7270648570490885 L6.0,6.0" fill="brown" fill-opacity="0.6" stroke="black" stroke-width="1" />
<path d="M2.7270648570490885,93.85817835632488 L6.0,94.0 L0.9283910318072228,96.15248680214702" fill="black" fill-opacity="0.6" stroke="black" stroke-width="1" />
<path d="M2.7270648570490885,-93.85817835632488 L6.0,-94.0 L0.9283910318072228,-96.15248680214702" fill="red" fill-opacity="0.6" stroke="black" stroke-width="1" />
<path d="M6.0,-6.0 L3.847513197852981,-0.9283910318072228 L3.5038231067723804,-0.8688430566050738" fill="orange" fill-opacity="0.6" stroke="black" stroke-width="1" />
<path d="M6.0,6.0 L3.847513197852981,0.9283910318072228 L3.5038231067723804,0.8688430566050738" fill="black" fill-opacity="0.6" stroke="black" stroke-width="1" />
<path d="M3.847513197852981,-0.9283910318072228 L3.5038231067723804,-0.8688430566050738 L1.1673020792149158,-0.6740727025961863" fill="brown" fill-opacity="0.6" stroke="black" stroke-width="1" />
<path d="M3.847513197852981,0.9283910318072228 L3.5038231067723804,0.8688430566050738 L1.1673020792149158,0.6740727025961863" fill="brown" fill-opacity="0.6" stroke="black" stroke-width="1" />
<path d="M3.5038231067723804,-0.8688430566050738 L1.1673020792149158,-0.6740727025961863 L0.7156024196367405,-0.062336205684382535" fill="blue" fill-opacity="0.6" stroke="black" stroke-width="1" />
<path d="M3.5038231067723804,0.8688430566050738 L1.1673020792149158,0.6740727025961863 L0.7156024196367405,0.062336205684382535" fill="orange" fill-opacity="0.6" stroke="black" stroke-width="1" />
<path d="M1.1673020792149158,-0.6740727025961863 L0.7156024196367405,-0.062336205684382535 L0.0,-0.0" fill="pink" fill-opacity="0.6" stroke="black" stroke-width="1" />
<path d="M1.1673020792149158,0.6740727025961863 L0.7156024196367405,0.062336205684382535 L0.0,-0.0" fill="purple" fill-opacity="0.6" stroke="black" stroke-width="1" />
<path d="M-13.0,-0.0 L-14.75989979162598,-6.40897990053077 L-17.0,-0.0" fill="orange" fill-opacity="0.6" stroke="black" stroke-width="1" />
<path d="M-13.0,-0.0 L-14.75989979162598,6.40897990053077 L-17.0,-0.0" fill="yellow" fill-opacity="0.6" stroke="black" stroke-width="1" />
<path d="M-17.0,-0.0 L-18.887421165997985,-7.131552741765003 L-23.212194941817298,-8.890666945835815" fill="brown" fill-opacity="0.6" stroke="black" stroke-width="1" />
<path d="M-17.0,-0.0 L-18.887421165997985,7.131552741765003 L-23.212194941817298,8.890666945835815" fill="orange" fill-opacity="0.6" stroke="black" stroke-width="1" />
<path d="M-18.887421165997985,-7.131552741765003 L-23.212194941817298,-8.890666945835815 L-25.0,-0.0" fill="green" fill-opacity="0.6" stroke="black" stroke-width="1" />
<path d="M-18.887421165997985,7.131552741765003 L-23.212194941817298,8.890666945835815 L-25.0,-0.0" fill="green" fill-opacity="0.6" stroke="black" stroke-width="1" />
<path d="M-25.0,-0.0 L-27.38317646781097,-17.563124627911364 L-50.0,-0.0" fill="green" fill-opacity="0.6" stroke="black" stroke-width="1" />
<path d="M-25.0,-0.0 L-27.38317646781097,17.563124627911364 L-50.0,-0.0" fill="green" fill-opacity="0.6" stroke="black" stroke-width="1" />
<path d="M-50.0,-50.0 L-43.5610111169832,-35.99766368305933 L-38.00709139413484,-30.030237209719253" fill="purple" fill-opacity="0.6" stroke="black" stroke-width="1" />
<path d="M-50.0,50.0 L-43.5610111169832,35.99766368305933 L-38.00709139413484,30.030237209719253" fill="yellow" fill-opacity="0.6" stroke="black" stroke-width="1" />
<path d="M-43.5610111169832,-35.99766368305933 L-38.00709139413484,-30.030237209719253 L-34.68977474691563,-29.334007547446344" fill="pink" fill-opacity="0.6" stroke="black" stroke-width="1" />
<path d="M-43.5610111169832,35.99766368305933 L-38.00709139413484,30.030237209719253 L-34.68977474691563,29.334007547446344" fill="yellow" fill-opacity="0.6" stroke="black" stroke-width="1" />
<path d="M-38.00709139413484,-30.030237209719253 L-34.68977474691563,-29.334007547446344 L-30.14550012628907,-27.207145879312495" fill="red" fill-opacity="0.6" stroke="black" stroke-width="1" />
<path d="M-38.00709139413484,30.030237209719253 L-34.68977474691563,29.334007547446344 L-30.14550012628907,27.207145879312495" fill="purple" fill-opacity="0.6" stroke="black" stroke-width="1" />
<path d="M-34.68977474691563,-29.334007547446344 L-30.14550012628907,-27.207145879312495 L-19.0,-19.0" fill="green" fill-opacity="0.6" stroke="black" stroke-width="1" />
<path d="M-34.68977474691563,29.334007547446344 L-30.14550012628907,27.207145879312495 L-19.0,19.0" fill="yellow" fill-opacity="0.6" stroke="black" stroke-width="1" />
<path d="M-27.207145879312495,69.85449987371094 L-19.0,81.0 L-16.0,84.0" fill="yellow" fill-opacity="0.6" stroke="black" stroke-width="1" />
<path d="M-27.207145879312495,-69.85449987371094 L-19.0,-81.0 L-16.0,-84.0" fill="green" fill-opacity="0.6" stroke="black" stroke-width="1" />
<path d="M-19.0,81.0 L-16.0,84.0 L-4.606770845405313,88.28981783756457" fill="green" fill-opacity="0.6" stroke="black" stroke-width="1" />
<path d="M-19.0,-81.0 L-16.0,-84.0 L-4.606770845405313,-88.28981783756457" fill="yellow" fill-opacity="0.6" stroke="black" stroke-width="1" />
<path d="M-16.0,-16.0 L-11.71018216243543,-4.606770845405313 L-10.089583679141427,-3.275119516075695" fill="yellow" fill-opacity="0.6" stroke="black" stroke-width="1" />
<path d="M-16.0,16.0 L-11.71018216243543,4.606770845405313 L-10.089583679141427,3.275119516075695" fill="brown" fill-opacity="0.6" stroke="black" stroke-width="1" />
<path d="M-11.71018216243543,-4.606770845405313 L-10.089583679141427,-3.275119516075695 L-6.141821643675121,-2.7270648570490885" fill="yellow" fill-opacity="0.6" stroke="black" stroke-width="1" />
<path d="M-11.71018216243543,4.606770845405313 L-10.089583679141427,3.275119516075695 L-6.141821643675121,2.7270648570490885" fill="purple" fill-opacity="0.6" stroke="black" stroke-width="1" />
<path d="M-10.089583679141427,-3.275119516075695 L-6.141821643675121,-2.7270648570490885 L-6.0,-6.0" fill="yellow" fill-opacity="0.6" stroke="black" stroke-width="1" />
<path d="M-10.089583679141427,3.275119516075695 L-6.141821643675121,2.7270648570490885 L-6.0,6.0" fill="brown" fill-opacity="0.6" stroke="black" stroke-width="1" />
<path d="M-2.7270648570490885,93.85817835632488 L-6.0,94.0 L-0.9283910318072228,96.15248680214702" fill="black" fill-opacity="0.6" stroke="black" stroke-width="1" />
<path d="M-2.7270648570490885,-93.85817835632488 L-6.0,-94.0 L-0.9283910318072228,-96.15248680214702" fill="red" fill-opacity="0.6" stroke="black" stroke-width="1" />
<path d="M-6.0,-6.0 L-3.847513197852981,-0.9283910318072228 L-3.5038231067723804,-0.8688430566050738" fill="yellow" fill-opacity="0.6" stroke="black" stroke-width="1" />
<path d="M-6.0,6.0 L-3.847513197852981,0.9283910318072228 L-3.5038231067723804,0.8688430566050738" fill="purple" fill-opacity="0.6" stroke="black" stroke-width="1" />
<path d="M-3.847513197852981,-0.9283910318072228 L-3.5038231067723804,-0.8688430566050738 L-1.1673020792149158,-0.6740727025961863" fill="green" fill-opacity="0.6" stroke="black" stroke-width="1" />
<path d="M-3.847513197852981,0.9283910318072228 L-3.5038231067723804,0.8688430566050738 L-1.1673020792149158,0.6740727025961863" fill="orange" fill-opacity="0.6" stroke="black" stroke-width="1" />
<path d="M-3.5038231067723804,-0.8688430566050738 L-1.1673020792149158,-0.6740727025961863 L-0.7156024196367405,-0.062336205684382535" fill="red" fill-opacity="0.6" stroke="black" stroke-width="1" />
<path d="M-3.5038231067723804,0.8688430566050738 L-1.1673020792149158,0.6740727025961863 L-0.7156024196367405,0.062336205684382535" fill="pink" fill-opacity="0.6" stroke="black" stroke-width="1" />
<path d="M-1.1673020792149158,-0.6740727025961863 L-0.7156024196367405,-0.062336205684382535 L0.0,-0.0" fill="yellow" fill-opacity="0.6" stroke="black" stroke-width="1" />
<path d="M-1.1673020792149158,0.6740727025961863 L-0.7156024196367405,0.062336205684382535 L0.0,-0.0" fill="brown" fill-opacity="0.6" stroke="black" stroke-width="1" />
<path d="M87.0,-0.0 L85.24010020837402,6.40897990053077 L83.0,-0.0" fill="brown" fill-opacity="0.6" stroke="black" stroke-width="1" />
<path d="M87.0,-0.0 L85.24010020837402,-6.40897990053077 L83.0,-0.0" fill="purple" fill-opacity="0.6" stroke="black" stroke-width="1" />
<path d="M83.0,-0.0 L81.11257883400202,7.131552741765003 L76.7878050581827,8.890666945835815" fill="green" fill-opacity="0.6" stroke="black" stroke-width="1" />
<path d="M83.0,-0.0 L81.11257883400202,-7.131552741765003 L76.7878050581827,-8.890666945835815" fill="purple" fill-opacity="0.6" stroke="black" stroke-width="1" />
<path d="M81.11257883400202,7.131552741765003 L76.7878050581827,8.890666945835815 L75.0,-0.0" fill="black" fill-opacity="0.6" stroke="black" stroke-width="1" />
<path d="M81.11257883400202,-7.131552741765003 L76.7878050581827,-8.890666945835815 L75.0,-0.0" fill="green" fill-opacity="0.6" stroke="black" stroke-width="1" />
<path d="M75.0,-0.0 L72.61682353218903,17.563124627911364 L50.0,-0.0" fill="black" fill-opacity="0.6" stroke="black" stroke-width="1" />
<path d="M75.0,-0.0 L72.61682353218903,-17.563124627911364 L50.0,-0.0" fill="green" fill-opacity="0.6" stroke="black" stroke-width="1" />
<path d="M50.0,50.0 L56.4389888830168,35.99766368305933 L61.99290860586516,30.030237209719253" fill="yellow" fill-opacity="0.6" stroke="black" stroke-width="1" />
<path d="M50.0,-50.0 L56.4389888830168,-35.99766368305933 L61.99290860586516,-30.030237209719253" fill="orange" fill-opacity="0.6" stroke="black" stroke-width="1" />
<path d="M56.4389888830168,35.99766368305933 L61.99290860586516,30.030237209719253 L65.31022525308437,29.334007547446344" fill="yellow" fill-opacity="0.6" stroke="black" stroke-width="1" />
<path d="M56.4389888830168,-35.99766368305933 L61.99290860586516,-30.030237209719253 L65.31022525308437,-29.334007547446344" fill="red" fill-opacity="0.6" stroke="black" stroke-width="1" />
<path d="M61.99290860586516,30.030237209719253 L65.31022525308437,29.334007547446344 L69.85449987371094,27.207145879312495" fill="blue" fill-opacity="0.6" stroke="black" stroke-width="1" />
<path d="M61.99290860586516,-30.030237209719253 L65.31022525308437,-29.334007547446344 L69.85449987371094,-27.207145879312495" fill="yellow" fill-opacity="0.6" stroke="black" stroke-width="1" />
<path d="M65.31022525308437,29.334007547446344 L69.85449987371094,27.207145879312495 L81.0,19.0" fill="yellow" fill-opacity="0.6" stroke="black" stroke-width="1" />
<path d="M65.31022525308437,-29.334007547446344 L69.85449987371094,-27.207145879312495 L81.0,-19.0" fill="pink" fill-opacity="0.6" stroke="black" stroke-width="1" />
<path d="M69.85449987371094,27.207145879312495 L81.0,19.0 L84.0,16.0" fill="black" fill-opacity="0.6" stroke="black" stroke-width="1" />
<path d="M69.85449987371094,-27.207145879312495 L81.0,-19.0 L84.0,-16.0" fill="brown" fill-opacity="0.6" stroke="black" stroke-width="1" />
<path d="M81.0,19.0 L84.0,16.0 L88.28981783756457,4.606770845405313" fill="blue" fill-opacity="0.6" stroke="black" stroke-width="1" />
<path d="M81.0,-19.0 L84.0,-16.0 L88.28981783756457,-4.606770845405313" fill="red" fill-opacity="0.6" stroke="black" stroke-width="1" />
<path d="M84.0,16.0 L88.28981783756457,4.606770845405313 L89.91041632085857,3.275119516075695" fill="yellow" fill-opacity="0.6" stroke="black" stroke-width="1" />
<path d="M84.0,-16.0 L88.28981783756457,-4.606770845405313 L89.91041632085857,-3.275119516075695" fill="green" fill-opacity="0.6" stroke="black" stroke-width="1" />
<path d="M88.28981783756457,4.606770845405313 L89.91041632085857,3.275119516075695 L93.85817835632488,2.7270648570490885" fill="black" fill-opacity="0.6" stroke="black" stroke-width="1" />
<path d="M88.28981783756457,-4.606770845405313 L89.91041632085857,-3.275119516075695 L93.85817835632488,-2.7270648570490885" fill="blue" fill-opacity="0.6" stroke="black" stroke-width="1" />
<path d="M89.91041632085857,3.275119516075695 L93.85817835632488,2.7270648570490885 L94.0,6.0" fill="green" fill-opacity="0.6" stroke="black" stroke-width="1" />
<path d="M89.91041632085857,-3.275119516075695 L93.85817835632488,-2.7270648570490885 L94.0,-6.0" fill="red" fill-opacity="0.6" stroke="black" stroke-width="1" />
<path d="M93.85817835632488,2.7270648570490885 L94.0,6.0 L96.15248680214702,0.9283910318072228" fill="black" fill-opacity="0.6" stroke="black" stroke-width="1" />
<path d="M93.85817835632488,-2.7270648570490885 L94.0,-6.0 L96.15248680214702,-0.9283910318072228" fill="pink" fill-opacity="0.6" stroke="black" stroke-width="1" />
<path d="M94.0,6.0 L96.15248680214702,0.9283910318072228 L96.49617689322761,0.8688430566050738" fill="green" fill-opacity="0.6" stroke="black" stroke-width="1" />
<path d="M94.0,-6.0 L96.15248680214702,-0.9283910318072228 L96.49617689322761,-0.8688430566050738" fill="black" fill-opacity="0.6" stroke="black" stroke-width="1" />
<path d="M96.15248680214702,0.9283910318072228 L96.49617689322761,0.8688430566050738 L98.83269792078508,0.6740727025961863" fill="blue" fill-opacity="0.6" stroke="black" stroke-width="1" />
<path d="M96.15248680214702,-0.9283910318072228 L96.49617689322761,-0.8688430566050738 L98.83269792078508,-0.6740727025961863" fill="black" fill-opacity="0.6" stroke="black" stroke-width="1" />
<path d="M96.49617689322761,0.8688430566050738 L98.83269792078508,0.6740727025961863 L99.28439758036326,0.062336205684382535" fill="purple" fill-opacity="0.6" stroke="black" stroke-width="1" />
<path d="M96.49617689322761,-0.8688430566050738 L98.83269792078508,-0.6740727025961863 L99.28439758036326,-0.062336205684382535" fill="yellow" fill-opacity="0.6" stroke="black" stroke-width="1" />
<path d="M98.83269792078508,0.6740727025961863 L99.28439758036326,0.062336205684382535 L100.0,-0.0" fill="green" fill-opacity="0.6" stroke="black" stroke-width="1" />
<path d="M98.83269792078508,-0.6740727025961863 L99.28439758036326,-0.062336205684382535 L100.0,-0.0" fill="brown" fill-opacity="0.6" stroke="black" stroke-width="1" />
<path d="M0.0,-13.0 L6.40897990053077,-14.75989979162598 L0.0,-17.0" fill="red" fill-opacity="0.6" stroke="black" stroke-width="1" />
<path d="M0.0,13.0 L6.40897990053077,14.75989979162598 L0.0,17.0" fill="pink" fill-opacity="0.6" stroke="black" stroke-width="1" />
<path d="M0.0,87.0 L6.40897990053077,85.24010020837402 L0.0,83.0" fill="pink" fill-opacity="0.6" stroke="black" stroke-width="1" />
<path d="M0.0,-87.0 L6.40897990053077,-85.24010020837402 L0.0,-83.0" fill="brown" fill-opacity="0.6" stroke="black" stroke-width="1" />
<path d="M0.0,-17.0 L7.131552741765003,-18.887421165997985 L8.890666945835815,-23.212194941817298" fill="orange" fill-opacity="0.6" stroke="black" stroke-width="1" />
<path d="M0.0,17.0 L7.131552741765003,18.887421165997985 L8.890666945835815,23.212194941817298" fill="orange" fill-opacity="0.6" stroke="black" stroke-width="1" />
<path d="M0.0,83.0 L7.131552741765003,81.11257883400202 L8.890666945835815,76.7878050581827" fill="pink" fill-opacity="0.6" stroke="black" stroke-width="1" />
<path d="M0.0,-83.0 L7.131552741765003,-81.11257883400202 L8.890666945835815,-76.7878050581827" fill="brown" fill-opacity="0.6" stroke="black" stroke-width="1" />
<path d="M7.131552741765003,-18.887421165997985 L8.890666945835815,-23.212194941817298 L0.0,-25.0" fill="green" fill-opacity="0.6" stroke="black" stroke-width="1" />
<path d="M7.131552741765003,18.887421165997985 L8.890666945835815,23.212194941817298 L0.0,25.0" fill="green" fill-opacity="0.6" stroke="black" stroke-width="1" />
<path d="M7.131552741765003,81.11257883400202 L8.890666945835815,76.7878050581827 L0.0,75.0" fill="yellow" fill-opacity="0.6" stroke="black" stroke-width="1" />
<path d="M7.131552741765003,-81.11257883400202 L8.890666945835815,-76.7878050581827 L0.0,-75.0" fill="green" fill-opacity="0.6" stroke="black" stroke-width="1" />
<path d="M0.0,-25.0 L17.563124627911364,-27.38317646781097 L0.0,-50.0" fill="purple" fill-opacity="0.6" stroke="black" stroke-width="1" />
<path d="M0.0,25.0 L17.563124627911364,27.38317646781097 L0.0,50.0" fill="brown" fill-opacity="0.6" stroke="black" stroke-width="1" />
<path d="M0.0,75.0 L17.563124627911364,72.61682353218903 L0.0,50.0" fill="red" fill-opacity="0.6" stroke="black" stroke-width="1" />
<path d="M0.0,-75.0 L17.563124627911364,-72.61682353218903 L0.0,-50.0" fill="green" fill-opacity="0.6" stroke="black" stroke-width="1" />
<path d="M50.0,-50.0 L35.99766368305933,-43.5610111169832 L30.030237209719253,-38.00709139413484" fill="orange" fill-opacity="0.6" stroke="black" stroke-width="1" />
<path d="M50.0,50.0 L35.99766368305933,43.5610111169832 L30.030237209719253,38.00709139413484" fill="blue" fill-opacity="0.6" stroke="black" stroke-width="1" />
<path d="M50.0,50.0 L35.99766368305933,56.4389888830168 L30.030237209719253,61.99290860586516" fill="blue" fill-opacity="0.6" stroke="black" stroke-width="1" />
<path d="M50.0,-50.0 L35.99766368305933,-56.4389888830168 L30.030237209719253,-61.99290860586516" fill="purple" fill-opacity="0.6" stroke="black" stroke-width="1" />
<path d="M35.99766368305933,-43.5610111169832 L30.030237209719253,-38.00709139413484 L29.334007547446344,-34.68977474691563" fill="brown" fill-opacity="0.6" stroke="black" stroke-width="1" />
<path d="M35.99766368305933,43.5610111169832 L30.030237209719253,38.00709139413484 L29.334007547446344,34.68977474691563" fill="yellow" fill-opacity="0.6" stroke="black" stroke-width="1" />
<path d="M35.99766368305933,56.4389888830168 L30.030237209719253,61.99290860586516 L29.334007547446344,65.31022525308437" fill="blue" fill-opacity="0.6" stroke="black" stroke-width="1" />
<path d="M35.99766368305933,-56.4389888830168 L30.030237209719253,-61.99290860586516 L29.334007547446344,-65.31022525308437" fill="pink" fill-opacity="0.6" stroke="black" stroke-width="1" />
<path d="M30.030237209719253,-38.00709139413484 L29.334007547446344,-34.68977474691563 L27.207145879312495,-30.14550012628907" fill="black" fill-opacity="0.6" stroke="black" stroke-width="1" />
<path d="M30.030237209719253,38.00709139413484 L29.334007547446344,34.68977474691563 L27.207145879312495,30.14550012628907" fill="orange" fill-opacity="0.6" stroke="black" stroke-width="1" />
<path d="M30.030237209719253,61.99290860586516 L29.334007547446344,65.31022525308437 L27.207145879312495,69.85449987371094" fill="purple" fill-opacity="0.6" stroke="black" stroke-width="1" />
<path d="M30.030237209719253,-61.99290860586516 L29.334007547446344,-65.31022525308437 L27.207145879312495,-69.85449987371094" fill="pink" fill-opacity="0.6" stroke="black" stroke-width="1" />
<path d="M29.334007547446344,-34.68977474691563 L27.207145879312495,-30.14550012628907 L19.0,-19.0" fill="black" fill-opacity="0.6" stroke="black" stroke-width="1" />
<path d="M29.334007547446344,34.68977474691563 L27.207145879312495,30.14550012628907 L19.0,19.0" fill="purple" fill-opacity="0.6" stroke="black" stroke-width="1" />
<path d="M29.334007547446344,65.31022525308437 L27.207145879312495,69.85449987371094 L19.0,81.0" fill="red" fill-opacity="0.6" stroke="black" stroke-width="1" />
<path d="M29.334007547446344,-65.31022525308437 L27.207145879312495,-69.85449987371094 L19.0,-81.0" fill="orange" fill-opacity="0.6" stroke="black" stroke-width="1" />
<path d="M16.0,-16.0 L4.606770845405313,-11.71018216243543 L3.275119516075695,-10.089583679141427" fill="blue" fill-opacity="0.6" stroke="black" stroke-width="1" />
<path d="M16.0,16.0 L4.606770845405313,11.71018216243543 L3.275119516075695,10.089583679141427" fill="orange" fill-opacity="0.6" stroke="black" stroke-width="1" />
<path d="M16.0,84.0 L4.606770845405313,88.28981783756457 L3.275119516075695,89.91041632085857" fill="black" fill-opacity="0.6" stroke="black" stroke-width="1" />
<path d="M16.0,-84.0 L4.606770845405313,-88.28981783756457 L3.275119516075695,-89.91041632085857" fill="yellow" fill-opacity="0.6" stroke="black" stroke-width="1" />
<path d="M4.606770845405313,-11.71018216243543 L3.275119516075695,-10.089583679141427 L2.7270648570490885,-6.141821643675121" fill="black" fill-opacity="0.6" stroke="black" stroke-width="1" />
<path d="M4.606770845405313,11.71018216243543 L3.275119516075695,10.089583679141427 L2.7270648570490885,6.141821643675121" fill="red" fill-opacity="0.6" stroke="black" stroke-width="1" />
<path d="M4.606770845405313,88.28981783756457 L3.275119516075695,89.91041632085857 L2.7270648570490885,93.85817835632488" fill="black" fill-opacity="0.6" stroke="black" stroke-width="1" />
<path d="M4.606770845405313,-88.28981783756457 L3.275119516075695,-89.91041632085857 L2.7270648570490885,-93.85817835632488" fill="red" fill-opacity="0.6" stroke="black" stroke-width="1" />
<path d="M3.275119516075695,-10.089583679141427 L2.7270648570490885,-6.141821643675121 L6.0,-6.0" fill="red" fill-opacity="0.6" stroke="black" stroke-width="1" />
<path d="M3.275119516075695,10.089583679141427 L2.7270648570490885,6.141821643675121 L6.0,6.0" fill="pink" fill-opacity="0.6" stroke="black" stroke-width="1" />
<path d="M3.275119516075695,89.91041632085857 L2.7270648570490885,93.85817835632488 L6.0,94.0" fill="yellow" fill-opacity="0.6" stroke="black" stroke-width="1" />
<path d="M3.275119516075695,-89.91041632085857 L2.7270648570490885,-93.85817835632488 L6.0,-94.0" fill="black" fill-opacity="0.6" stroke="black" stroke-width="1" />
<path d="M6.0,-6.0 L0.9283910318072228,-3.847513197852981 L0.8688430566050738,-3.5038231067723804" fill="red" fill-opacity="0.6" stroke="black" stroke-width="1" />
<path d="M6.0,6.0 L0.9283910318072228,3.847513197852981 L0.8688430566050738,3.5038231067723804" fill="red" fill-opacity="0.6" stroke="black" stroke-width="1" />
<path d="M6.0,94.0 L0.9283910318072228,96.15248680214702 L0.8688430566050738,96.49617689322761" fill="red" fill-opacity="0.6" stroke="black" stroke-width="1" />
<path d="M6.0,-94.0 L0.9283910318072228,-96.15248680214702 L0.8688430566050738,-96.49617689322761" fill="red" fill-opacity="0.6" stroke="black" stroke-width="1" />
<path d="M0.9283910318072228,-3.847513197852981 L0.8688430566050738,-3.5038231067723804 L0.6740727025961863,-1.1673020792149158" fill="blue" fill-opacity="0.6" stroke="black" stroke-width="1" />
<path d="M0.9283910318072228,3.847513197852981 L0.8688430566050738,3.5038231067723804 L0.6740727025961863,1.1673020792149158" fill="green" fill-opacity="0.6" stroke="black" stroke-width="1" />
<path d="M0.9283910318072228,96.15248680214702 L0.8688430566050738,96.49617689322761 L0.6740727025961863,98.83269792078508" fill="brown" fill-opacity="0.6" stroke="black" stroke-width="1" />
<path d="M0.9283910318072228,-96.15248680214702 L0.8688430566050738,-96.49617689322761 L0.6740727025961863,-98.83269792078508" fill="brown" fill-opacity="0.6" stroke="black" stroke-width="1" />
<path d="M0.8688430566050738,-3.5038231067723804 L0.6740727025961863,-1.1673020792149158 L0.062336205684382535,-0.7156024196367405" fill="pink" fill-opacity="0.6" stroke="black" stroke-width="1" />
<path d="M0.8688430566050738,3.5038231067723804 L0.6740727025961863,1.1673020792149158 L0.062336205684382535,0.7156024196367405" fill="blue" fill-opacity="0.6" stroke="black" stroke-width="1" />
<path d="M0.8688430566050738,96.49617689322761 L0.6740727025961863,98.83269792078508 L0.062336205684382535,99.28439758036326" fill="pink" fill-opacity="0.6" stroke="black" stroke-width="1" />
<path d="M0.8688430566050738,-96.49617689322761 L0.6740727025961863,-98.83269792078508 L0.062336205684382535,-99.28439758036326" fill="pink" fill-opacity="0.6" stroke="black" stroke-width="1" />
<path d="M0.6740727025961863,-1.1673020792149158 L0.062336205684382535,-0.7156024196367405 L0.0,-0.0" fill="purple" fill-opacity="0.6" stroke="black" stroke-width="1" />
<path d="M0.6740727025961863,1.1673020792149158 L0.062336205684382535,0.7156024196367405 L0.0,-0.0" fill="purple" fill-opacity="0.6" stroke="black" stroke-width="1" />
<path d="M0.6740727025961863,98.83269792078508 L0.062336205684382535,99.28439758036326 L0.0,100.0" fill="yellow" fill-opacity="0.6" stroke="black" stroke-width="1" />
<path d="M0.6740727025961863,-98.83269792078508 L0.062336205684382535,-99.28439758036326 L0.0,-100.0" fill="red" fill-opacity="0.6" stroke="black" stroke-width="1" />
<path d="M0.0,87.0 L-6.40897990053077,85.24010020837402 L0.0,83.0" fill="orange" fill-opacity="0.6" stroke="black" stroke-width="1" />
<path d="M0.0,-13.0 L-6.40897990053077,-14.75989979162598 L0.0,-17.0" fill="blue" fill-opacity="0.6" stroke="black" stroke-width="1" />
<path d="M0.0,13.0 L-6.40897990053077,14.759899791625983 L0.0,17.0" fill="yellow" fill-opacity="0.6" stroke="black" stroke-width="1" />
<path d="M0.0,-87.0 L-6.40897990053077,-85.24010020837402 L0.0,-83.0" fill="purple" fill-opacity="0.6" stroke="black" stroke-width="1" />
<path d="M0.0,83.0 L-7.131552741765003,81.11257883400202 L-8.890666945835815,76.7878050581827" fill="black" fill-opacity="0.6" stroke="black" stroke-width="1" />
<path d="M0.0,-17.0 L-7.131552741765003,-18.887421165997985 L-8.890666945835815,-23.212194941817298" fill="orange" fill-opacity="0.6" stroke="black" stroke-width="1" />
<path d="M0.0,17.0 L-7.131552741765003,18.887421165997978 L-8.890666945835815,23.2121949418173" fill="black" fill-opacity="0.6" stroke="black" stroke-width="1" />
<path d="M0.0,-83.0 L-7.131552741765003,-81.11257883400202 L-8.890666945835815,-76.7878050581827" fill="blue" fill-opacity="0.6" stroke="black" stroke-width="1" />
<path d="M-7.131552741765003,81.11257883400202 L-8.890666945835815,76.7878050581827 L0.0,75.0" fill="brown" fill-opacity="0.6" stroke="black" stroke-width="1" />
<path d="M-7.131552741765003,-18.887421165997985 L-8.890666945835815,-23.212194941817298 L0.0,-25.0" fill="orange" fill-opacity="0.6" stroke="black" stroke-width="1" />
<path d="M-7.131552741765003,18.887421165997978 L-8.890666945835815,23.2121949418173 L0.0,25.0" fill="red" fill-opacity="0.6" stroke="black" stroke-width="1" />
<path d="M-7.131552741765003,-81.11257883400202 L-8.890666945835815,-76.7878050581827 L0.0,-75.0" fill="blue" fill-opacity="0.6" stroke="black" stroke-width="1" />
<path d="M0.0,75.0 L-17.563124627911364,72.61682353218903 L0.0,50.0" fill="yellow" fill-opacity="0.6" stroke="black" stroke-width="1" />
<path d="M0.0,-25.0 L-17.563124627911364,-27.38317646781097 L0.0,-50.0" fill="pink" fill-opacity="0.6" stroke="black" stroke-width="1" />
<path d="M0.0,25.0 L-17.563124627911364,27.38317646781097 L0.0,50.0" fill="pink" fill-opacity="0.6" stroke="black" stroke-width="1" />
<path d="M0.0,-75.0 L-17.563124627911364,-72.61682353218903 L0.0,-50.0" fill="orange" fill-opacity="0.6" stroke="black" stroke-width="1" />
<path d="M-50.0,50.0 L-35.99766368305933,56.4389888830168 L-30.030237209719253,61.99290860586516" fill="black" fill-opacity="0.6" stroke="black" stroke-width="1" />
<path d="M-50.0,-50.0 L-35.99766368305933,-43.5610111169832 L-30.030237209719253,-38.00709139413484" fill="brown" fill-opacity="0.6" stroke="black" stroke-width="1" />
<path d="M-50.0,50.0 L-35.99766368305933,43.5610111169832 L-30.030237209719253,38.00709139413484" fill="yellow" fill-opacity="0.6" stroke="black" stroke-width="1" />
<path d="M-50.0,-50.0 L-35.99766368305933,-56.4389888830168 L-30.030237209719253,-61.99290860586516" fill="purple" fill-opacity="0.6" stroke="black" stroke-width="1" />
<path d="M-35.99766368305933,56.4389888830168 L-30.030237209719253,61.99290860586516 L-29.334007547446344,65.31022525308437" fill="purple" fill-opacity="0.6" stroke="black" stroke-width="1" />
<path d="M-35.99766368305933,-43.5610111169832 L-30.030237209719253,-38.00709139413484 L-29.334007547446344,-34.68977474691563" fill="yellow" fill-opacity="0.6" stroke="black" stroke-width="1" />
<path d="M-35.99766368305933,43.5610111169832 L-30.030237209719253,38.00709139413484 L-29.334007547446344,34.68977474691563" fill="green" fill-opacity="0.6" stroke="black" stroke-width="1" />
<path d="M-35.99766368305933,-56.4389888830168 L-30.030237209719253,-61.99290860586516 L-29.334007547446344,-65.31022525308437" fill="pink" fill-opacity="0.6" stroke="black" stroke-width="1" />
<path d="M-30.030237209719253,61.99290860586516 L-29.334007547446344,65.31022525308437 L-27.207145879312495,69.85449987371094" fill="blue" fill-opacity="0.6" stroke="black" stroke-width="1" />
<path d="M-30.030237209719253,-38.00709139413484 L-29.334007547446344,-34.68977474691563 L-27.207145879312495,-30.14550012628907" fill="black" fill-opacity="0.6" stroke="black" stroke-width="1" />
<path d="M-30.030237209719253,38.00709139413484 L-29.334007547446344,34.68977474691563 L-27.207145879312495,30.145500126289065" fill="red" fill-opacity="0.6" stroke="black" stroke-width="1" />
<path d="M-30.030237209719253,-61.99290860586516 L-29.334007547446344,-65.31022525308437 L-27.207145879312495,-69.85449987371094" fill="green" fill-opacity="0.6" stroke="black" stroke-width="1" />
<path d="M-29.334007547446344,65.31022525308437 L-27.207145879312495,69.85449987371094 L-19.0,81.0" fill="yellow" fill-opacity="0.6" stroke="black" stroke-width="1" />
<path d="M-29.334007547446344,-34.68977474691563 L-27.207145879312495,-30.14550012628907 L-19.0,-19.0" fill="yellow" fill-opacity="0.6" stroke="black" stroke-width="1" />
<path d="M-29.334007547446344,34.68977474691563 L-27.207145879312495,30.145500126289065 L-19.0,19.0" fill="orange" fill-opacity="0.6" stroke="black" stroke-width="1" />
<path d="M-29.334007547446344,-65.31022525308437 L-27.207145879312495,-69.85449987371094 L-19.0,-81.0" fill="blue" fill-opacity="0.6" stroke="black" stroke-width="1" />
<path d="M-16.0,84.0 L-4.606770845405313,88.28981783756457 L-3.275119516075695,89.91041632085857" fill="purple" fill-opacity="0.6" stroke="black" stroke-width="1" />
<path d="M-16.0,-16.0 L-4.606770845405313,-11.71018216243543 L-3.275119516075695,-10.089583679141427" fill="black" fill-opacity="0.6" stroke="black" stroke-width="1" />
<path d="M-16.0,16.0 L-4.606770845405313,11.71018216243543 L-3.275119516075695,10.089583679141427" fill="pink" fill-opacity="0.6" stroke="black" stroke-width="1" />
<path d="M-16.0,-84.0 L-4.606770845405313,-88.28981783756457 L-3.275119516075695,-89.91041632085857" fill="red" fill-opacity="0.6" stroke="black" stroke-width="1" />
<path d="M-4.606770845405313,88.28981783756457 L-3.275119516075695,89.91041632085857 L-2.7270648570490885,93.85817835632488" fill="brown" fill-opacity="0.6" stroke="black" stroke-width="1" />
<path d="M-4.606770845405313,-11.71018216243543 L-3.275119516075695,-10.089583679141427 L-2.7270648570490885,-6.141821643675121" fill="black" fill-opacity="0.6" stroke="black" stroke-width="1" />
<path d="M-4.606770845405313,11.71018216243543 L-3.275119516075695,10.089583679141427 L-2.7270648570490885,6.141821643675115" fill="brown" fill-opacity="0.6" stroke="black" stroke-width="1" />
<path d="M-4.606770845405313,-88.28981783756457 L-3.275119516075695,-89.91041632085857 L-2.7270648570490885,-93.85817835632488" fill="brown" fill-opacity="0.6" stroke="black" stroke-width="1" />
<path d="M-3.275119516075695,89.91041632085857 L-2.7270648570490885,93.85817835632488 L-6.0,94.0" fill="brown" fill-opacity="0.6" stroke="black" stroke-width="1" />
<path d="M-3.275119516075695,-10.089583679141427 L-2.7270648570490885,-6.141821643675121 L-6.0,-6.0" fill="green" fill-opacity="0.6" stroke="black" stroke-width="1" />
<path d="M-3.275119516075695,10.089583679141427 L-2.7270648570490885,6.141821643675115 L-6.0,6.0" fill="yellow" fill-opacity="0.6" stroke="black" stroke-width="1" />
<path d="M-3.275119516075695,-89.91041632085857 L-2.7270648570490885,-93.85817835632488 L-6.0,-94.0" fill="black" fill-opacity="0.6" stroke="black" stroke-width="1" />
<path d="M-6.0,94.0 L-0.9283910318072228,96.15248680214702 L-0.8688430566050738,96.49617689322761" fill="red" fill-opacity="0.6" stroke="black" stroke-width="1" />
<path d="M-6.0,-6.0 L-0.9283910318072228,-3.847513197852981 L-0.8688430566050738,-3.5038231067723804" fill="red" fill-opacity="0.6" stroke="black" stroke-width="1" />
<path d="M-6.0,6.0 L-0.9283910318072228,3.847513197852976 L-0.8688430566050738,3.503823106772387" fill="brown" fill-opacity="0.6" stroke="black" stroke-width="1" />
<path d="M-6.0,-94.0 L-0.9283910318072228,-96.15248680214702 L-0.8688430566050738,-96.49617689322761" fill="black" fill-opacity="0.6" stroke="black" stroke-width="1" />
<path d="M-0.9283910318072228,96.15248680214702 L-0.8688430566050738,96.49617689322761 L-0.6740727025961863,98.83269792078508" fill="brown" fill-opacity="0.6" stroke="black" stroke-width="1" />
<path d="M-0.9283910318072228,-3.847513197852981 L-0.8688430566050738,-3.5038231067723804 L-0.6740727025961863,-1.1673020792149158" fill="black" fill-opacity="0.6" stroke="black" stroke-width="1" />
<path d="M-0.9283910318072228,3.847513197852976 L-0.8688430566050738,3.503823106772387 L-0.6740727025961863,1.1673020792149202" fill="red" fill-opacity="0.6" stroke="black" stroke-width="1" />
<path d="M-0.9283910318072228,-96.15248680214702 L-0.8688430566050738,-96.49617689322761 L-0.6740727025961863,-98.83269792078508" fill="green" fill-opacity="0.6" stroke="black" stroke-width="1" />
<path d="M-0.8688430566050738,96.49617689322761 L-0.6740727025961863,98.83269792078508 L-0.062336205684382535,99.28439758036326" fill="orange" fill-opacity="0.6" stroke="black" stroke-width="1" />
<path d="M-0.8688430566050738,-3.5038231067723804 L-0.6740727025961863,-1.1673020792149158 L-0.062336205684382535,-0.7156024196367405" fill="green" fill-opacity="0.6" stroke="black" stroke-width="1" />
<path d="M-0.8688430566050738,3.503823106772387 L-0.6740727025961863,1.1673020792149202 L-0.062336205684382535,0.7156024196367383" fill="black" fill-opacity="0.6" stroke="black" stroke-width="1" />
<path d="M-0.8688430566050738,-96.49617689322761 L-0.6740727025961863,-98.83269792078508 L-0.062336205684382535,-99.28439758036326" fill="black" fill-opacity="0.6" stroke="black" stroke-width="1" />
<path d="M-0.6740727025961863,98.83269792078508 L-0.062336205684382535,99.28439758036326 L0.0,100.0" fill="yellow" fill-opacity="0.6" stroke="black" stroke-width="1" />
<path d="M-0.6740727025961863,-1.1673020792149158 L-0.062336205684382535,-0.7156024196367405 L0.0,-0.0" fill="green" fill-opacity="0.6" stroke="black" stroke-width="1" />
<path d="M-0.6740727025961863,1.1673020792149202 L-0.062336205684382535,0.7156024196367383 L0.0,-0.0" fill="purple" fill-opacity="0.6" stroke="black" stroke-width="1" />
<path d="M-0.6740727025961863,-98.83269792078508 L-0.062336205684382535,-99.28439758036326 L0.0,-100.0" fill="yellow" fill-opacity="0.6" stroke="black" stroke-width="1" />
<path d="M-87.0,-0.0 L-85.24010020837402,-6.40897990053077 L-83.0,-0.0" fill="orange" fill-opacity="0.6" stroke="black" stroke-width="1" />
<path d="M-87.0,-0.0 L-85.24010020837402,6.40897990053077 L-83.0,-0.0" fill="yellow" fill-opacity="0.6" stroke="black" stroke-width="1" />
<path d="M-83.0,-0.0 L-81.11257883400202,-7.131552741765003 L-76.7878050581827,-8.890666945835815" fill="pink" fill-opacity="0.6" stroke="black" stroke-width="1" />
<path d="M-83.0,-0.0 L-81.11257883400202,7.131552741765003 L-76.7878050581827,8.890666945835815" fill="green" fill-opacity="0.6" stroke="black" stroke-width="1" />
<path d="M-81.11257883400202,-7.131552741765003 L-76.7878050581827,-8.890666945835815 L-75.0,-0.0" fill="brown" fill-opacity="0.6" stroke="black" stroke-width="1" />
<path d="M-81.11257883400202,7.131552741765003 L-76.7878050581827,8.890666945835815 L-75.0,-0.0" fill="blue" fill-opacity="0.6" stroke="black" stroke-width="1" />
<path d="M-75.0,-0.0 L-72.61682353218903,-17.563124627911364 L-50.0,-0.0" fill="brown" fill-opacity="0.6" stroke="black" stroke-width="1" />
<path d="M-75.0,-0.0 L-72.61682353218903,17.563124627911364 L-50.0,-0.0" fill="orange" fill-opacity="0.6" stroke="black" stroke-width="1" />
<path d="M-50.0,-50.0 L-56.4389888830168,-35.99766368305933 L-61.99290860586516,-30.030237209719253" fill="pink" fill-opacity="0.6" stroke="black" stroke-width="1" />
<path d="M-50.0,50.0 L-56.4389888830168,35.99766368305933 L-61.99290860586516,30.030237209719253" fill="blue" fill-opacity="0.6" stroke="black" stroke-width="1" />
<path d="M-56.4389888830168,-35.99766368305933 L-61.99290860586516,-30.030237209719253 L-65.31022525308437,-29.334007547446344" fill="green" fill-opacity="0.6" stroke="black" stroke-width="1" />
<path d="M-56.4389888830168,35.99766368305933 L-61.99290860586516,30.030237209719253 L-65.31022525308437,29.334007547446344" fill="green" fill-opacity="0.6" stroke="black" stroke-width="1" />
<path d="M-61.99290860586516,-30.030237209719253 L-65.31022525308437,-29.334007547446344 L-69.85449987371094,-27.207145879312495" fill="blue" fill-opacity="0.6" stroke="black" stroke-width="1" />
<path d="M-61.99290860586516,30.030237209719253 L-65.31022525308437,29.334007547446344 L-69.85449987371094,27.207145879312495" fill="orange" fill-opacity="0.6" stroke="black" stroke-width="1" />
<path d="M-65.31022525308437,-29.334007547446344 L-69.85449987371094,-27.207145879312495 L-81.0,-19.0" fill="green" fill-opacity="0.6" stroke="black" stroke-width="1" />
<path d="M-65.31022525308437,29.334007547446344 L-69.85449987371094,27.207145879312495 L-81.0,19.0" fill="purple" fill-opacity="0.6" stroke="black" stroke-width="1" />
<path d="M-69.85449987371094,-27.207145879312495 L-81.0,-19.0 L-84.0,-16.0" fill="red" fill-opacity="0.6" stroke="black" stroke-width="1" />
<path d="M-69.85449987371094,27.207145879312495 L-81.0,19.0 L-84.0,16.0" fill="brown" fill-opacity="0.6" stroke="black" stroke-width="1" />
<path d="M-81.0,-19.0 L-84.0,-16.0 L-88.28981783756457,-4.606770845405313" fill="yellow" fill-opacity="0.6" stroke="black" stroke-width="1" />
<path d="M-81.0,19.0 L-84.0,16.0 L-88.28981783756457,4.606770845405313" fill="brown" fill-opacity="0.6" stroke="black" stroke-width="1" />
<path d="M-84.0,-16.0 L-88.28981783756457,-4.606770845405313 L-89.91041632085857,-3.275119516075695" fill="yellow" fill-opacity="0.6" stroke="black" stroke-width="1" />
<path d="M-84.0,16.0 L-88.28981783756457,4.606770845405313 L-89.91041632085857,3.275119516075695" fill="green" fill-opacity="0.6" stroke="black" stroke-width="1" />
<path d="M-88.28981783756457,-4.606770845405313 L-89.91041632085857,-3.275119516075695 L-93.85817835632488,-2.7270648570490885" fill="red" fill-opacity="0.6" stroke="black" stroke-width="1" />
<path d="M-88.28981783756457,4.606770845405313 L-89.91041632085857,3.275119516075695 L-93.85817835632488,2.7270648570490885" fill="green" fill-opacity="0.6" stroke="black" stroke-width="1" />
<path d="M-89.91041632085857,-3.275119516075695 L-93.85817835632488,-2.7270648570490885 L-94.0,-6.0" fill="orange" fill-opacity="0.6" stroke="black" stroke-width="1" />
<path d="M-89.91041632085857,3.275119516075695 L-93.85817835632488,2.7270648570490885 L-94.0,6.0" fill="red" fill-opacity="0.6" stroke="black" stroke-width="1" />
<path d="M-93.85817835632488,-2.7270648570490885 L-94.0,-6.0 L-96.15248680214702,-0.9283910318072228" fill="brown" fill-opacity="0.6" stroke="black" stroke-width="1" />
<path d="M-93.85817835632488,2.7270648570490885 L-94.0,6.0 L-96.15248680214702,0.9283910318072228" fill="black" fill-opacity="0.6" stroke="black" stroke-width="1" />
<path d="M-94.0,-6.0 L-96.15248680214702,-0.9283910318072228 L-96.49617689322761,-0.8688430566050738" fill="black" fill-opacity="0.6" stroke="black" stroke-width="1" />
<path d="M-94.0,6.0 L-96.15248680214702,0.9283910318072228 L-96.49617689322761,0.8688430566050738" fill="brown" fill-opacity="0.6" stroke="black" stroke-width="1" />
<path d="M-96.15248680214702,-0.9283910318072228 L-96.49617689322761,-0.8688430566050738 L-98.83269792078508,-0.6740727025961863" fill="orange" fill-opacity="0.6" stroke="black" stroke-width="1" />
<path d="M-96.15248680214702,0.9283910318072228 L-96.49617689322761,0.8688430566050738 L-98.83269792078508,0.6740727025961863" fill="green" fill-opacity="0.6" stroke="black" stroke-width="1" />
<path d="M-96.49617689322761,-0.8688430566050738 L-98.83269792078508,-0.6740727025961863 L-99.28439758036326,-0.062336205684382535" fill="pink" fill-opacity="0.6" stroke="black" stroke-width="1" />
<path d="M-96.49617689322761,0.8688430566050738 L-98.83269792078508,0.6740727025961863 L-99.28439758036326,0.062336205684382535" fill="purple" fill-opacity="0.6" stroke="black" stroke-width="1" />
<path d="M-98.83269792078508,-0.6740727025961863 L-99.28439758036326,-0.062336205684382535 L-100.0,-0.0" fill="yellow" fill-opacity="0.6" stroke="black" stroke-width="1" />
<path d="M-98.83269792078508,0.6740727025961863 L-99.28439758036326,0.062336205684382535 L-100.0,-0.0" fill="orange" fill-opacity="0.6" stroke="black" stroke-width="1" />
</svg>