<?xml version="1.0" encoding="UTF-8"?>
<svg xmlns="http://www.w3.org/2000/svg" xmlns:xlink="http://www.w3.org/1999/xlink"
     width="250" height="250" viewBox="-125.0 -125.0 250 250">
<defs>
</defs>
<path d="M35.0,50.0 L49.0,51.0 L37.0,63.0" fill-opacity="0" stroke="black" stroke-width="1" />
<path d="M35.0,-50.0 L49.0,-51.0 L37.0,-63.0" fill-opacity="0" stroke="black" stroke-width="1" />
<path d="M49.0,51.0 L37.0,63.0 L10.0,90.0" fill-opacity="0" stroke="black" stroke-width="1" />
<path d="M49.0,-51.0 L37.0,-63.0 L10.0,-90.0" fill-opacity="0" stroke="black" stroke-width="1" />
<path d="M37.0,63.0 L10.0,90.0 L0.2741091030679807,98.57474122871974" fill-opacity="0" stroke="black" stroke-width="1" />
<path d="M37.0,-63.0 L10.0,-90.0 L0.2741091030679807,-98.57474122871974" fill-opacity="0" stroke="black" stroke-width="1" />
<path d="M10.0,-10.0 L1.4252587712802578,-0.2741091030679807 L0.0,-0.0" fill-opacity="0" stroke="black" stroke-width="1" />
<path d="M10.0,10.0 L1.4252587712802578,0.2741091030679807 L0.0,-0.0" fill-opacity="0" stroke="black" stroke-width="1" />
<path d="M-35.0,50.0 L-49.0,51.0 L-37.0,63.0" fill-opacity="0" stroke="black" stroke-width="1" />
<path d="M-35.0,-50.0 L-49.0,-51.0 L-37.0,-63.0" fill-opacity="0" stroke="black" stroke-width="1" />
<path d="M-49.0,51.0 L-37.0,63.0 L-10.0,90.0" fill-opacity="0" stroke="black" stroke-width="1" />
<path d="M-49.0,-51.0 L-37.0,-63.0 L-10.0,-90.0" fill-opacity="0" stroke="black" stroke-width="1" />
<path d="M-37.0,63.0 L-10.0,90.0 L-0.2741091030679807,98.57474122871974" fill-opacity="0" stroke="black" stroke-width="1" />
<path d="M-37.0,-63.0 L-10.0,-90.0 L-0.2741091030679807,-98.57474122871974" fill-opacity="0" stroke="black" stroke-width="1" />
<path d="M-10.0,-10.0 L-1.4252587712802578,-0.2741091030679807 L0.0,-0.0" fill-opacity="0" stroke="black" stroke-width="1" />
<path d="M-10.0,10.0 L-1.4252587712802578,0.2741091030679807 L0.0,-0.0" fill-opacity="0" stroke="black" stroke-width="1" />
<path d="M50.0,35.0 L51.0,49.0 L63.0,37.0" fill-opacity="0" stroke="black" stroke-width="1" />
<path d="M50.0,-35.0 L51.0,-49.0 L63.0,-37.0" fill-opacity="0" stroke="black" stroke-width="1" />
<path d="M51.0,49.0 L63.0,37.0 L90.0,10.0" fill-opacity="0" stroke="black" stroke-width="1" />
<path d="M51.0,-49.0 L63.0,-37.0 L90.0,-10.0" fill-opacity="0" stroke="black" stroke-width="1" />
<path d="M63.0,37.0 L90.0,10.0 L98.57474122871974,0.2741091030679807" fill-opacity="0" stroke="black" stroke-width="1" />
<path d="M63.0,-37.0 L90.0,-10.0 L98.57474122871974,-0.2741091030679807" fill-opacity="0" stroke="black" stroke-width="1" />
<path d="M90.0,10.0 L98.57474122871974,0.2741091030679807 L100.0,-0.0" fill-opacity="0" stroke="black" stroke-width="1" />
<path d="M90.0,-10.0 L98.57474122871974,-0.2741091030679807 L100.0,-0.0" fill-opacity="0" stroke="black" stroke-width="1" />
<path d="M10.0,-10.0 L0.2741091030679807,-1.4252587712802578 L0.0,-0.0" fill-opacity="0" stroke="black" stroke-width="1" />
<path d="M10.0,10.0 L0.2741091030679807,1.4252587712802578 L0.0,-0.0" fill-opacity="0" stroke="black" stroke-width="1" />
<path d="M10.0,90.0 L0.2741091030679807,98.57474122871974 L0.0,100.0" fill-opacity="0" stroke="black" stroke-width="1" />
<path d="M10.0,-90.0 L0.2741091030679807,-98.57474122871974 L0.0,-100.0" fill-opacity="0" stroke="black" stroke-width="1" />
<path d="M-10.0,90.0 L-0.2741091030679807,98.57474122871974 L0.0,100.0" fill-opacity="0" stroke="black" stroke-width="1" />
<path d="M-10.0,-10.0 L-0.2741091030679807,-1.4252587712802578 L0.0,-0.0" fill-opacity="0" stroke="black" stroke-width="1" />
<path d="M-10.0,10.0 L-0.2741091030679807,1.4252587712802551 L0.0,-0.0" fill-opacity="0" stroke="black" stroke-width="1" />
<path d="M-10.0,-90.0 L-0.2741091030679807,-98.57474122871974 L0.0,-100.0" fill-opacity="0" stroke="black" stroke-width="1" />
<path d="M-50.0,-35.0 L-51.0,-49.0 L-63.0,-37.0" fill-opacity="0" stroke="black" stroke-width="1" />
<path d="M-50.0,35.0 L-51.0,49.0 L-63.0,37.0" fill-opacity="0" stroke="black" stroke-width="1" />
<path d="M-51.0,-49.0 L-63.0,-37.0 L-90.0,-10.0" fill-opacity="0" stroke="black" stroke-width="1" />
<path d="M-51.0,49.0 L-63.0,37.0 L-90.0,10.0" fill-opacity="0" stroke="black" stroke-width="1" />
<path d="M-63.0,-37.0 L-90.0,-10.0 L-98.57474122871974,-0.2741091030679807" fill-opacity="0" stroke="black" stroke-width="1" />
<path d="M-63.0,37.0 L-90.0,10.0 L-98.57474122871974,0.2741091030679807" fill-opacity="0" stroke="black" stroke-width="1" />
<path d="M-90.0,-10.0 L-98.57474122871974,-0.2741091030679807 L-100.0,-0.0" fill-opacity="0" stroke="black" stroke-width="1" />
<path d="M-90.0,10.0 L-98.57474122871974,0.2741091030679807 L-100.0,-0.0" fill-opacity="0" stroke="black" stroke-width="1" />
<circle cx="0" cy="-97" r="8" stroke-dasharray="39.653880605311166 10.611601852125524" stroke-dashoffset="-17.59291886010284" stroke="black" stroke-width="1" fill="white" fill-opacity="1" />
<circle cx="0" cy="-97" r="4" stroke="black" stroke-width="1" fill="white" fill-opacity="1" />
</svg>